<svg id="Layer_1" data-name="Layer 1" xmlns="http://www.w3.org/2000/svg" viewBox="0 0 2854.91 2293.79"><defs><style>.cls-1{fill:#fff;}</style></defs><path class="cls-1" d="M2181.54,1366.65c-1.89-2.2-.55-7.67.07-11.49,3.89-24.21-4.3-44.16-22.12-60.05-16.2-14.52-32.81-28.58-49.94-42-49.65-38.82-74.24-102-60.11-169l19.23-108.14V976c.26-2,.57-3.94.66-5.87,1-22.94,1.31-45.78-2.61-68.48-8.63-50.53-39.69-86.43-77.42-117.77a1180.49,1180.49,0,0,0-132.11-94.93c-6.09-1.89-12.32-3.58-18-6.36-1.14-.59-2.24-1.17-3.3-1.82-.56-.35-1.11-.69-1.62-1a27.09,27.09,0,0,1-3.1-2.34c-.51-.41-1-.86-1.48-1.3-7.18,3.58-13.24-1.41-19.33-3.3-25.58-7.91-52-10.08-78.35-12.87q-38.49,1.76-77,3.55C1580.93,679,1508.53,703.52,1431.83,705c-12.34-.14-24.69-.24-37-.38-26.24-2.89-51.52-9.18-74.91-21.81-67.42-36.35-134-33.39-200,3.92-.38.21-.73.42-1.14.62h0l-9.67,5.27-3.33,1.82-2.62,1.79c-11.18,7.81-21.87,16.4-35.63,19.57-36.18,16.58-70.24,35.77-112,8.49-36.63-23.93-74.16-7.87-89.36,32.65-2.37,6.36-6.64,10.45-10.87,15-30.13,32.19-60.6,64.18-86.74,99.85-18.06,24.59-29.89,51.39-27.31,82.89,1,12.56-3.61,23.73-10.08,34-11,17.44-22.6,34.43-33.88,51.67-7.84,11.93-16.71,23.28-22.22,36.63-6.91,16.71-2.3,27.17,13.93,34.46,11.94,5.33,25.32,9.66,34.57,18.19,13.45,12.39,28,12,43.2,9.43,18.75-3.17,37.28-11,55.17,3,2.3,1.82,6.6,1.14,10,1.62,18.71,2.61,32.85-7.16,46.95-17.23,31.16-22.22,60.43-47.54,96.34-62.33,18.91-7.81,29-2,33,18.13.89,4.43.89,9.11,1,13.69,3.2,113.81-41.93,211.56-102,304-13.69,21.08-34.91,32.54-59.5,37.49-21.94,4.4-43.48,10.11-63.32,20.81-13.45,7.26-24.63,16.82-29.44,32-3.72,11.66-3.55,19,13.07,18.74,58.43-.61,117-2.13,175.27,1.31,41.24,2.48,71.65-12.79,99.4-40.27,31.82-31.48,60.09-66.25,91.67-97.82,34.43-34.43,63.87-71.65,81.17-117.6h0c1.54-4,2.8-8,4.17-12.06.8-2.35,1.63-4.69,2.58-7h0c.54-1.3,1.12-2.59,1.75-3.85h0c.46-1,1-1.89,1.5-2.81q.54-.92,1.11-1.83a38.52,38.52,0,0,1,2.54-3.51c5.95-28.34,20.85-52.49,37-79.28,50.83,62.36,94.07,127.26,124.3,200.32h0c2.65,8.7,6.21,17.17,8.69,25.91.23.8.45,1.6.65,2.41.28,1,.53,2.1.76,3.16a63.78,63.78,0,0,1,1.56,12.94h0c9.73,29.85,4.23,38.48-26.17,41.44-15,1.45-28.86,6.6-42.21,13.41-12,6.16-22.56,13.9-27.72,26.87q-9.54,23.84,15.27,21.39c5-.52,9.5-2.65,15-1.93,40.45,5.34,79.83-1.06,118.63-12,15.75-4.44,26-13.72,26.24-31.61.17-11.9,4.82-15.44,17.13-9.77,27.27,12.66,55.24,23.77,86.3,32-7.95-20.57-11.15-40-12.7-60-4.74-62.4,22.09-115.74,46.95-169.78,3.48-7.56,9.63-6.29,16-6,30.44,1.48,60.81.69,90.32-7.53,10-2.79,11.52,1.34,13.14,9.35,9.19,45.44,17.65,91,23.18,137,4.82,39.65-3.23,50.11-41.89,58.26-20.09,4.23-40.72,6.74-59,17.23-15.2,8.74-26,20.61-26.24,39.35-.07,6.4-.38,9.46,9.56,10,68.55,3.33,137.1,1.23,205.65,1.71,45.09.31,71.37-19.43,84.75-62.77,9.8-31.67,19.47-63.35,28.61-95.2,2.89-10,5.85-14.48,17.34-9.22,31.16,14.28,62.87,27.31,94.24,41.07,11,4.85,22,10.32,30.58,18.78,12.38,12.24,33.46,19.67,20.7,45.61-5.46,11.11.45,26.1,10.05,36.39,4.43,4.78,8.91,9,17.51,8,15.82-1.72,34.63-15.55,34.6-33.91C2187.94,1420.48,2203.35,1392,2181.54,1366.65Zm-607.28-102.33c-21,49.53-40.07,99.47-29.1,156.09-16.57-2.58-30-8.57-43.92-13.28-7.12-2.4-6.26-6.19-4.12-11.76,9.8-25.69,13.48-53,20.18-79.49,2.86-11.31,1.76-22.7-.79-34-6.94-30.5-15.3-60.6-25.83-93.07,22,10.53,41.42,21.4,62.5,28.76,12.07,4.19,30.82,2.3,34.67,13C1590.91,1239.08,1579.15,1252.8,1574.26,1264.32ZM1994.88,1137c-35,96.17-68.83,192.65-97.58,290.88-10,34.43-25.66,45.23-61.33,45.3-48,.1-96,0-146.52,0,8.12-10.63,18.16-11.59,27-14.14,10.94-3.16,22.35-4.81,33.43-7.56,36.56-9,51.15-26.9,50.18-64.8-1.17-43.65-11-86.2-18.74-129-2.34-12.94-5-25.87-8.12-38.63-7.64-30.54,4-57.51,15.61-84.34,10.53-24.21,25.52-46,39.63-68.17,2.61-4.09,6.88-7.7,5.43-16.47-42.89,36.87-82.17,73.88-98.33,128.08-3.79,12.73-10.12,18-21,21.12-59.16,17.17-115.53,7.43-170.19-17.85-20.39-9.42-38.21-23-56.92-35.12-39-25.28-78.9-49.66-125.54-57.3-70.82-11.59-109.17,2.62-143.67,64.6-16.51,29.61-27.86,61.36-40.17,92.73-13.55,34.53-32.16,65.21-58.92,91.59s-51.11,55.72-77,83.3c-12.89,13.8-26.89,26.56-40.31,39.9-17.54,17.44-37.73,25.42-63.32,24.11-36.56-1.86-73.33-.41-110-.48-5.54,0-11-.52-19.68-.93,13.35-12.86,27.79-16.4,41.62-18.36,50.11-7.09,84.34-34.74,108.52-77.94,41.3-73.81,76.52-149.59,86.53-235,9-77.56-13.41-144.45-65.83-201.52,6.74,24.49,15,48.23,20.26,72.82,1.38,6.26,3.2,11.38-6.36,10.59-31.82-2.65-57.65,12.42-82.55,29-21.94,14.55-42.89,30.55-64.32,45.89-5.64,4-10.66,7.53-18.4,2.33-14.24-9.56-30.75-10.25-46.16-4.47-21.25,8-36.49-3-54.41-11-21.6-9.7-12.18-19.22-4.33-30.71q16.45-24.15,32.88-48.26c15.1-22.25,25-45.71,23-73.78-1.44-20.87,9.22-38.69,21-55.1,26.24-36.32,57.17-68.61,87.92-101.05,7.49-7.94,13.65-15.61,16.23-27.1,3.78-16.65,15.61-22.53,27.45-13.69,35.46,26.52,73.53,19.81,111.81,10.83,29.76-6.94,57.2-19.64,82.48-37A267.59,267.59,0,0,1,1176,693.58c34.32-14.14,69.3-15.17,101.29,2.85,74.6,42,153.4,39.45,233.89,27.34,53.83-8.08,105.73-24.93,159.45-33.57,70.68-11.38,135.66,2.41,194.71,42.07,40.9,27.45,80.76,56.41,116.64,90.46,34.39,32.6,50.07,72.3,50.11,119.73C2032.16,1009.87,2017.65,1074.33,1994.88,1137Z"/><path class="cls-1" d="M1771.93,253c-79.66-102.26-184.5-171.84-301.1-225.12C1447,17,1422.68,7.09,1396,0c12.42,69.31-13.93,129.05-42,188.11-29.1,61.29-67.55,116.84-107.55,171.39-54.62,74.53-103,152.88-139.48,238-16.4,38.28-32.6,76.8-39.58,118.32,13.75-3.17,24.45-11.77,35.63-19.57l5-12.83.31-.79c.14-.35.28-.69.41-1,.42-1,.86-2,1.17-3,26.93-80.59,65.52-155.5,111.82-226.6.52-.79,1.72-1.1,3.68-2.3,5.47,62.94,40.31,108.86,84.27,149.82,23.39,21.81,48.91,41.52,68.86,66.8,8.8,11.14,17.85,22.53,16.27,38.28,12.34.14,24.69.24,37,.38,16.1-47.64,33.16-95,45.37-143.81,1.75-7,6.74-11.9,11.07-17.16,29-35.26,66-59.74,106.56-79.42,31.92-15.48,64.25-30.13,94.17-49.39,36.15-23.25,72.3-46.43,94.28-88.33,22.77,35.91,34.77,73.57,48,111.07,22.7,64-.86,111-49.6,150.65-29.06,23.66-61.84,41.13-95.07,58-10.63,5.4-21.08,11.18-31.61,16.78l77-3.54c40.34-24.52,80.86-48.87,112.2-91-.69,39.41-9,73.09-14.49,107.1l1.45,1.34c1,.83,2,1.62,3.09,2.34.52.35,1.07.69,1.62,1,1.07.66,2.17,1.24,3.3,1.83,5.68,2.78,11.9,4.47,18,6.36C1899.88,529.72,1873.67,383.57,1771.93,253Zm-298,167.37a1340,1340,0,0,1-60.09,238.56c-38.83-51.15-94.1-83.55-129.32-135.55-25.8-38-33-79.73-23.77-124.44a32.81,32.81,0,0,1,5.5-12.38c32.71-44.75,64.87-89.88,94.24-142.09,11.22,34.64,32.51,56.54,56.62,76.36a401.57,401.57,0,0,1,30.75,27.37C1467.53,368.09,1478.68,390.14,1473.93,420.38Zm6-84.75c-26.07-29.65-60.54-46.61-79.52-79.35-14.9-25.63-17.37-53.25-5.2-80.8,14.55-32.95,25.39-67.07,33.71-103.39C1464.06,125,1486.38,239.53,1479.88,335.63ZM1463.06,62l-2.27-1.62,1.24-1c.44.76.93,1.48,1.41,2.24,37.8,12.17,71.06,33.29,104.11,54.37,13.21,8.43,13.62,29.65,3.41,47-15.07,25.56-39.08,42.76-61,66.18-3.75-21-6.88-39.07-10.29-57.13C1492.4,133.69,1477.4,98,1463.06,62Zm283.28,264.91c-10.8,15.82-25.42,27.79-40.73,38.93A589.59,589.59,0,0,1,1608.14,423c-39.35,18.43-78.18,37.83-114.74,69.86,10.8-56.38,17.95-108.93,19.19-162.14.14-5.75,1.51-11.63.51-17.13-6.08-33.47,10-56.58,33.82-77,14.75-12.62,29-26.1,40.58-41.82,5.74-7.77,10.25-16.44,15.69-24.46,4.78-7.08,1.68-20.6,9.66-22s15.17,8.77,22.36,14.31c40.44,31.23,77.11,66.45,109,106.45C1759.68,288.33,1760.37,306.29,1746.34,326.89Z"/><path class="cls-1" d="M478.38,2000.78H348.5c16.57-9.84,20.56-24.08,21.13-40,2.9-81.38,1.63-162.75,0-244.12-.32-15.69-4.78-29.32-22.3-40.69,17,0,30.15-.19,43.26,0,55,.91,110-2.47,165,1.9,25.53,2,49.22,10.41,69.82,26.08,36.89,28.06,42.87,74.14,14.38,110.61-13.27,17-30.27,29.46-49.22,39.49-4.57,2.42-11.61,3.46-5.18,11.8,29.35,38.1,57.74,76.95,87.65,114.59,12.28,15.45,15.46,14.66,25.64-2.13,24.71-40.72,40.73-85.6,60.11-128.85,16.36-36.49,30.3-74.09,47.47-110.17,8.93-18.79,5.7-33.7-5.26-49.07-2.89-4-5.7-8.16-10-14.26,32,0,62.1.22,92.17-.13,9-.11,9.68,6.72,12,12.15q53.9,128,107.64,256c8.59,20.35,17.31,40.84,37.79,56.56H900.18c23.57-31.64,1.62-59.26-7.94-88.11-1.45-4.37-5.18-3.83-8.47-3.84q-53.31-.09-106.61-.05c-4,0-7.78-.17-9.78,4.69-11.68,28.35-28.29,56.19-6.79,88.16-59.24,0-117.11-.18-175,.2-7.92,0-10.79-4.38-14.35-9.72q-33.79-50.73-67.87-101.27c-6.75-10.05-33.19-16.78-43.93-11.52-5,2.46-3.48,6.77-3.38,10.38.72,26.93,1.68,53.84,2.62,80.76C459.15,1983,464.49,1993,478.38,2000.78Zm-21.62-221.52H456c0,12,.05,24,0,36-.18,32.86-.2,32.86,32,31.74,42.61-1.49,72.62-36.29,70.81-82.08-1.61-40.59-29.08-62.75-74.73-60.3a76.7,76.7,0,0,1-8.54.5c-13.74-.73-19.63,5.2-19,19.35C457.36,1742.69,456.76,1761,456.76,1779.26Zm325.82,97.55h96.09L830.86,1759Z"/><path class="cls-1" d="M2473.69,2001.44c-39.77,0-75.26-.27-110.75.19-8.53.11-13.12-3-17.69-10-22.19-34-45-67.58-67.64-101.28-6.49-9.65-34.09-16.49-44.08-11.17-4.82,2.57-3.1,6.94-3,10.54.61,25.75,1.48,51.5,2.3,77.25.43,13.65,4.28,25.61,20.72,33.85H2122.71c16.22-9.33,20.71-23,21.23-38.18,2.82-82.43,1.67-164.88.07-247.33-.3-15.58-5.8-28.74-22.55-39.68,72.77,1.86,141.3-2.46,209.71,2.5a127,127,0,0,1,68.15,25.57c37.58,28.32,43.48,74.88,14.18,111.78-13.39,16.87-30.37,29.41-49.52,39-6.05,3-9.06,5.36-3.71,12.34,28.2,36.76,55.83,74,84,110.76C2451.16,1986.55,2460.64,1993,2473.69,2001.44Zm-243.28-223.29c0,13.14.05,26.27,0,39.41-.14,30.36-.16,30.36,30.91,29.44,43.66-1.3,74.17-36.37,72-82.71-1.93-40.36-29.47-62.17-75.38-59.64-4,.21-8,.77-12,.74-11.07-.08-15,5.8-14.87,16.23C2231.33,1740.46,2230.65,1778.15,2230.41,1778.15Z"/><path class="cls-1" d="M2487.55,2001.44c17.2-10.8,21.78-23.8,22.32-38.66q4.43-123.67,0-247.34c-.52-14.86-4.9-28.06-21.95-39.43,8.92,0,13.61-.06,18.3,0,63,.92,126.05-2.86,188.92,1.86,84.41,6.32,146.27,70.31,149.9,153.16,3.51,80-58,154.23-138.46,167.37a219.12,219.12,0,0,1-35.87,3C2611.18,2001.4,2551.63,2001.44,2487.55,2001.44Zm146.37-296.57c-3.75.24-11.84.21-19.73,1.41-10.13,1.54-16.27,6.81-16.24,18.37.23,75.63.1,151.25.2,226.87,0,11.27,5.44,17.34,17.12,19.73,48.76,9.94,90.68-9.53,112.49-54.8s23.94-92.68,9-140.43C2721.49,1727.27,2689.18,1704.51,2633.92,1704.87Z"/><path class="cls-1" d="M1055.59,2000.55c18.06-10.67,21.81-26.06,21.87-42.4q.42-119.37,0-238.72c0-16.52-4.77-31.39-23.11-44.34,79.95,4.2,155.63-6.93,230.14,6.56,78,14.12,129,80.94,127.15,160.06-1.74,75.51-60.5,143.51-135,156.27a228.43,228.43,0,0,1-39.26,3.52c-58.4-.16-116.8-.09-175.19-.13C1061.13,2001.37,1060,2001.11,1055.59,2000.55Zm109.13-164.22c0,36.66.16,73.32-.08,110-.11,15.72,6.15,23.63,22.67,26,45.73,6.6,82.82-10.61,105-51.31,21.15-38.89,24.59-80.58,16.79-123.35-12.46-68.25-50.21-97.13-119.26-92.25-21,1.49-25,5.34-25.07,26.1C1164.54,1766.45,1164.68,1801.39,1164.72,1836.33Z"/><path class="cls-1" d="M14.48,2000.46c17.8-10.89,20.63-27.3,21-43.89,2-79.63,1.69-159.27.21-238.91-.3-16.09-5.35-30.11-21.23-41.31,66.17,0,129.46,0,192.74.06a87.54,87.54,0,0,1,13.66,1.49c32.89,5.29,61,18,71.87,52.52,8.56,27.21-8.07,60.69-38.64,81.67-6.9,4.74-14.48,8.49-22.82,13.32,13.18,4.1,25.51,6.86,37,11.69,60.08,25.31,68.8,97.42,16.78,137.05-20.64,15.72-44.65,25.2-69.89,25.79C149,2001.49,82.83,2000.46,14.48,2000.46ZM123.15,1907h0c0,16.6-.2,33.2.09,49.78.14,8.39,2.55,15.39,11.9,18.7,34.34,12.16,73.89-7.91,83.44-42.74,16.12-58.81-23.38-100.59-83.34-88.5-8.78,1.77-12.7,5.29-12.32,14.71C123.62,1875,123.15,1891,123.15,1907Zm0-148.06h-.51q0,20.52,0,41.06c0,5.75-.29,10.87,7.38,13.22,19.91,6.1,48.24-2.79,61.58-20.23,15.82-20.68,17.31-51.85,3.45-72.19-11.73-17.21-39.89-26-61.34-20-8.43,2.39-10.43,8-10.51,15.32C123,1730.46,123.12,1744.72,123.12,1759Z"/><path class="cls-1" d="M1907.19,2008.54c-46.74.16-85.7-9.64-121.12-31.65-105.48-65.54-106.65-209.42-1.08-274.85,70.11-43.46,144.53-45.4,217.74-8.49,60.55,30.52,94.63,81.2,92.56,150.51-2,67.86-39.19,114.1-98.58,143.47A203,203,0,0,1,1907.19,2008.54Zm-100.94-170.22c-.47,30.71,3.69,60.57,17.85,88.21,15.65,30.54,38.78,50.72,75,51.33,36.88.62,62.58-18.1,77.45-49.92,27.69-59.25,27.69-119.68-.43-178.87-14.82-31.18-40.31-49.92-76-49.67s-59.76,20.17-75.48,50.83C1810.45,1777.81,1805.79,1807.6,1806.25,1838.32Z"/><path class="cls-1" d="M1669.38,1820.44v70.2c-29.19-44.37-72.64-29.11-111.46-31.79-7.14-.49-8.07,4.31-8,10.09.16,29.2-.51,58.42.46,87.59.56,16.81,9,31.12,21.93,44.3H1438.89c16.62-10.06,21-23.7,21.76-38.89,4-83,3.24-166-.11-248.93-.69-17.29-3.26-20.58-18-37h204.67c33.08,0,33.08,0,33.08,32.92V1740c-16.65-27.73-40.29-34.74-66.94-35.12-17.17-.24-34.36.22-51.53-.22-8.79-.23-12.12,2.94-12,11.91.35,34.35.19,68.71.1,103.06,0,5.58.11,10.12,7.86,9.75C1594.68,1827.69,1632.25,1834.4,1669.38,1820.44Z"/><path class="cls-1" d="M1844,2098c32,0,68.69-.06,105.33,0,10.38,0,20.43,2.29,30.23,5.67,20.1,6.92,35.91,18.69,40,40.69,4.24,22.5-7.86,38.32-24.45,51.35-19.18,15.06-19.66,15.27-4.22,34.86,16.2,20.58,29,44,52.76,63.09H1977c-6.47,0-8.25-5.59-11-9.65-12.19-18-24.78-35.8-35.93-54.44-6.58-11-16.15-10.59-25.29-8.35-9.34,2.29-4.7,11.69-4.48,17.55.65,18-4.13,36.87,9.2,54.13h-65.68C1851.72,2228.52,1850.74,2164.12,1844,2098Zm56.11,61.7h-.2c0,10.85,0,21.7,0,32.55,0,4-.37,8.24,5.49,8.67,17.17,1.27,33.41-.66,44.94-15.28,11.89-15.08,15-32.15,7.09-49.84-7.11-15.9-20.75-21-37.78-21.15-14.28-.15-21.62,3.69-19.74,19.38C1901,2142.47,1900.11,2151.13,1900.11,2159.69Z"/><path class="cls-1" d="M813.34,2098c37.47,0,74.64-.12,111.81.13,5.63,0,11.35,1.36,16.85,2.78,17.1,4.43,30.86,13.47,34.92,31.63,3.92,17.55-5.21,30.95-17.41,42.32-4.81,4.47-10.5,8-16.82,12.73,8.77,3.48,16.28,5.75,23.14,9.28,30.36,15.6,35.65,52.36,10.94,76-14.31,13.72-32.28,20-51.52,20.39-37.15.83-74.34.24-111.81.24C827.61,2267.23,827.54,2123.73,813.34,2098ZM875.12,2238c0,7.41.6,14.87-.13,22.2-1.43,14.17,4.84,19.56,18.62,19.43,23.64-.21,38.58-13.76,40-37.38,1.59-26.21-9.79-40.64-34.52-43.78-19.79-2.51-24,1.09-24,20.75Q875.11,2228.59,875.12,2238Zm-.07-90.58H875c0,7.95,0,15.91,0,23.87,0,5,1,8.25,7,9.42,14.86,2.86,30.37-4.15,37.33-17.85,7.31-14.4,5-33.18-5.7-42.62a32.28,32.28,0,0,0-31.93-7c-11.46,3.55-5.21,14.52-6.53,22.22C874.5,2139.34,875.05,2143.42,875.05,2147.4Z"/><path class="cls-1" d="M59.59,2219.87c71.49-2.56,143-5.32,214.49-7.64q206.85-6.7,413.7-13c17.47-.54,22.54,4.27,22.58,21.85,0,13-1.83,24.18-19.36,23.6q-315.83-10.55-631.65-20.75C59.44,2222.58,59.51,2221.23,59.59,2219.87Z"/><path class="cls-1" d="M2791.4,2224.06q-219.75,7.33-439.5,14.67c-56.09,1.88-112.17,3.89-168.26,5.71-16.63.54-22.15-5.24-22.24-22.47s5.54-23.24,22-22.71q300.47,9.7,600.92,19.55a67.76,67.76,0,0,1,6.79.87Q2791.27,2221.87,2791.4,2224.06Z"/><path class="cls-1" d="M1596.1,2292.48c11-18.13,1.36-33.54-4.66-49.38-2.19-5.76-7.1-4.78-11.54-4.81-13.17-.08-26.34,0-39.51,0-24.88,0-39,17.5-34.17,42.6.75,3.88,2.46,7.58,4,12.13h-43.5c30.64-52.24,51.13-108.55,74.56-163.51,5.19-12.19-6.76-19.62-8.57-31.52,17,0,33.38.27,49.75-.11,9-.21,9.41,6.86,11.69,12.3q29.56,70.33,58.94,140.75c6,14.18,12,28.32,23.8,41.58Zm-71.18-73.57c17.08,0,31.83-.18,46.57.07,8.21.14,9.93-2.87,6.81-10.31-8-19.06-15.59-38.28-24.59-60.52C1543.54,2173.16,1534.62,2195.06,1524.92,2218.91Z"/><path class="cls-1" d="M1300,2217.35c-21.71-24.95-47-16.58-70.33-17.7-6.32-.3-6.66,4.93-6.66,9.74,0,17.18-.09,34.37.1,51.55.11,11.22,6,16,17.29,16.53,31.81,1.43,60.55-4.13,82.46-35.91-1.63,7.4-2.23,10.65-3.07,13.85-10,38-10.46,38.35-49.68,38.35H1159.94c15.18-24.44,15.45-171.34,0-195.81,47.09,0,93.1.07,139.1-.07,6.65,0,9.21,2.69,9,9.19-.27,8.58-.06,17.18-.06,28.33-20.93-29.44-50.47-18.18-76.91-20.25-5.92-.46-8.07,3.2-8.07,8.6,0,2.29,0,4.58-.08,6.87-1,55.45-.86,56.67,58.78,49.06,18.17-2.32,20,3,18.33,17.31C1299.48,2202,1300,2207.15,1300,2217.35Z"/><path class="cls-1" d="M1390.49,1344.65c4.46,14.65,11.48,28.64,11.66,44.43-53.55-26.38-101.08-61.68-146.79-99.6-13.58-11.27-26.6-23.2-39.87-34.83,4.1-10.55,6.24-22,13.65-31.05,21.8,19.06,42.88,39,65.55,56.93C1324.86,1304.41,1354.88,1328.79,1390.49,1344.65Z"/><path class="cls-1" d="M59.59,2219.87c-.08,1.36-.15,2.71-.24,4.07H0A199.09,199.09,0,0,1,59.59,2219.87Z"/><path class="cls-1" d="M2791.4,2224.06q-.14-2.19-.24-4.38a228,228,0,0,1,63.75,4.38Z"/><path class="cls-1" d="M1463.06,62l-2.26-1.61,1.22-1c.47.74.94,1.48,1.42,2.21Z"/><line class="cls-1" x1="1103.05" y1="696.26" x2="1100.95" y2="701.76"/><line class="cls-1" x1="1110.27" y1="677.48" x2="1108.72" y2="681.6"/><path class="cls-1" d="M1394.79,704.65c-26.25-2.89-51.53-9.18-74.92-21.81-67.41-36.35-134-33.39-200,3.92-.37.21-.72.42-1.13.62h0l-9.66,5.27-3.34,1.82-2.61,1.79,5-12.83.31-.79c.14-.35.28-.69.41-1,.42-1,.86-2,1.17-3,26.93-80.59,65.52-155.5,111.82-226.6.52-.79,1.72-1.1,3.68-2.3,5.47,62.94,40.31,108.86,84.27,149.82,23.39,21.81,48.91,41.52,68.86,66.8C1387.32,677.51,1396.37,688.9,1394.79,704.65Z"/><line class="cls-1" x1="2068.68" y1="975.98" x2="2068.67" y2="976.05"/><line class="cls-1" x1="2052.69" y1="1071.1" x2="2052.68" y2="1071.15"/></svg>