<svg id="Layer_1" data-name="Layer 1" xmlns="http://www.w3.org/2000/svg" viewBox="0 0 3146.35 2293.79"><defs><style>.cls-1{fill:#424722;}.cls-2{fill:#969b2e;}.cls-3{fill:#2e2d2c;}.cls-4{fill:#858585;}.cls-5{fill:#fcfcfc;}.cls-6{fill:none;}</style></defs><path class="cls-1" d="M2327.25,1366.65c-1.89-2.2-.55-7.67.07-11.49,3.89-24.21-4.3-44.16-22.12-60.05-16.2-14.52-32.81-28.58-49.94-42-49.65-38.82-74.24-102-60.11-169l19.23-108.14V976c.26-2,.57-3.94.66-5.87,1-22.94,1.31-45.78-2.61-68.48-8.63-50.53-39.69-86.43-77.42-117.77a1180.49,1180.49,0,0,0-132.11-94.93c-6.09-1.89-12.32-3.58-18-6.36-1.14-.59-2.24-1.17-3.3-1.82-.56-.35-1.11-.69-1.62-1a27.09,27.09,0,0,1-3.1-2.34c-.51-.41-1-.86-1.48-1.3-7.18,3.58-13.24-1.41-19.33-3.3-25.58-7.91-52-10.08-78.35-12.87q-38.49,1.76-77,3.55C1726.64,679,1654.24,703.52,1577.54,705c-12.34-.14-24.69-.24-37-.38-26.24-2.89-51.52-9.18-74.91-21.81-67.42-36.35-134-33.39-200,3.92-.38.21-.73.42-1.14.62h0l-9.67,5.27-3.33,1.82-2.62,1.79c-11.18,7.81-21.87,16.4-35.63,19.57-36.18,16.58-70.24,35.77-112,8.49-36.63-23.93-74.16-7.87-89.36,32.65-2.37,6.36-6.64,10.45-10.87,15-30.13,32.19-60.6,64.18-86.74,99.85-18.06,24.59-29.89,51.39-27.31,82.89,1,12.56-3.61,23.73-10.08,34-11,17.44-22.6,34.43-33.88,51.67-7.84,11.93-16.71,23.28-22.22,36.63-6.91,16.71-2.3,27.17,13.93,34.46,11.94,5.33,25.32,9.66,34.57,18.19,13.45,12.39,28,12,43.2,9.43,18.75-3.17,37.28-11,55.17,3,2.3,1.82,6.6,1.14,10,1.62,18.71,2.61,32.85-7.16,47-17.23,31.16-22.22,60.43-47.54,96.34-62.33,18.91-7.81,29-2,33,18.13.89,4.43.89,9.11,1,13.69,3.2,113.81-41.93,211.56-102,304-13.69,21.08-34.91,32.54-59.5,37.49-21.94,4.4-43.48,10.11-63.32,20.81-13.45,7.26-24.63,16.82-29.44,32-3.72,11.66-3.55,19,13.07,18.74,58.43-.61,117-2.13,175.27,1.31,41.24,2.48,71.65-12.79,99.4-40.27,31.82-31.48,60.09-66.25,91.67-97.82,34.43-34.43,63.87-71.65,81.17-117.6h0c1.54-4,2.8-8,4.17-12.06.8-2.35,1.63-4.69,2.58-7h0c.54-1.3,1.12-2.59,1.75-3.85h0c.46-1,1-1.89,1.5-2.81q.54-.92,1.11-1.83a38.52,38.52,0,0,1,2.54-3.51c6-28.34,20.85-52.49,37.05-79.28,50.83,62.36,94.07,127.26,124.3,200.32h0c2.65,8.7,6.21,17.17,8.69,25.91.23.8.45,1.6.65,2.41.28,1,.53,2.1.76,3.16a63.78,63.78,0,0,1,1.56,12.94h0c9.73,29.85,4.23,38.48-26.17,41.44-15,1.45-28.86,6.6-42.21,13.41-12,6.16-22.56,13.9-27.72,26.87q-9.54,23.84,15.27,21.39c5-.52,9.5-2.65,15-1.93,40.45,5.34,79.83-1.06,118.63-12,15.75-4.44,26-13.72,26.24-31.61.17-11.9,4.82-15.44,17.13-9.77,27.27,12.66,55.24,23.77,86.3,32-7.95-20.57-11.15-40-12.7-60-4.74-62.4,22.09-115.74,46.95-169.78,3.48-7.56,9.63-6.29,16-6,30.44,1.48,60.81.69,90.32-7.53,10-2.79,11.52,1.34,13.14,9.35,9.19,45.44,17.65,91,23.18,137,4.82,39.65-3.23,50.11-41.89,58.26-20.09,4.23-40.72,6.74-59,17.23-15.2,8.74-26,20.61-26.24,39.35-.07,6.4-.38,9.46,9.56,10,68.55,3.33,137.1,1.23,205.65,1.71,45.09.31,71.37-19.43,84.75-62.77,9.8-31.67,19.47-63.35,28.61-95.2,2.89-10,5.85-14.48,17.34-9.22,31.16,14.28,62.87,27.31,94.24,41.07,11,4.85,22,10.32,30.58,18.78,12.38,12.24,33.46,19.67,20.7,45.61-5.46,11.11.45,26.1,10.05,36.39,4.43,4.78,8.91,9,17.51,8,15.82-1.72,34.63-15.55,34.6-33.91C2333.65,1420.48,2349.06,1392,2327.25,1366.65ZM1720,1264.32c-21,49.53-40.07,99.47-29.1,156.09-16.57-2.58-30-8.57-43.92-13.28-7.12-2.4-6.26-6.19-4.12-11.76,9.8-25.69,13.48-53,20.18-79.49,2.86-11.31,1.76-22.7-.79-34-6.94-30.5-15.3-60.6-25.83-93.07,21.95,10.53,41.42,21.4,62.5,28.76,12.07,4.19,30.82,2.3,34.67,13C1736.62,1239.08,1724.86,1252.8,1720,1264.32ZM2140.59,1137c-35,96.17-68.83,192.65-97.58,290.88-10,34.43-25.66,45.23-61.33,45.3-48,.1-96,0-146.52,0,8.12-10.63,18.16-11.59,27-14.14,10.94-3.16,22.35-4.81,33.43-7.56,36.56-9,51.15-26.9,50.18-64.8-1.17-43.65-11-86.2-18.74-129-2.34-12.94-5-25.87-8.12-38.63-7.64-30.54,4-57.51,15.61-84.34,10.53-24.21,25.52-46,39.63-68.17,2.61-4.09,6.88-7.7,5.43-16.47-42.89,36.87-82.17,73.88-98.33,128.08-3.79,12.73-10.12,18-21,21.12-59.16,17.17-115.53,7.43-170.19-17.85-20.39-9.42-38.21-23-56.92-35.12-39-25.28-78.9-49.66-125.54-57.3-70.82-11.59-109.17,2.62-143.67,64.6-16.51,29.61-27.86,61.36-40.17,92.73-13.55,34.53-32.16,65.21-58.92,91.59s-51.11,55.72-77,83.3c-12.89,13.8-26.89,26.56-40.31,39.9-17.54,17.44-37.73,25.42-63.32,24.11-36.56-1.86-73.33-.41-110-.48-5.54,0-11-.52-19.68-.93,13.35-12.86,27.79-16.4,41.62-18.36,50.11-7.09,84.34-34.74,108.52-77.94,41.3-73.81,76.52-149.59,86.53-235,9-77.56-13.41-144.45-65.83-201.52,6.74,24.49,15,48.23,20.26,72.82,1.38,6.26,3.2,11.38-6.36,10.59-31.82-2.65-57.65,12.42-82.55,29-21.94,14.55-42.89,30.55-64.32,45.89-5.64,4-10.66,7.53-18.4,2.33-14.24-9.56-30.75-10.25-46.16-4.47-21.25,8-36.49-3-54.41-11-21.6-9.7-12.18-19.22-4.33-30.71q16.46-24.15,32.88-48.26c15.1-22.25,25-45.71,23-73.78-1.44-20.87,9.22-38.69,21-55.1C972.36,852,1003.29,819.74,1034,787.3c7.49-7.94,13.65-15.61,16.23-27.1,3.78-16.65,15.61-22.53,27.45-13.69,35.46,26.52,73.53,19.81,111.81,10.83,29.76-6.94,57.2-19.64,82.48-37a267.59,267.59,0,0,1,49.74-26.75c34.32-14.14,69.3-15.17,101.29,2.85,74.6,42,153.4,39.45,233.89,27.34,53.83-8.08,105.73-24.93,159.45-33.57,70.68-11.38,135.66,2.41,194.71,42.07,40.9,27.45,80.76,56.41,116.64,90.46,34.39,32.6,50.07,72.3,50.11,119.73C2177.87,1009.87,2163.36,1074.33,2140.59,1137Z"/><path class="cls-2" d="M1917.65,253C1838,150.75,1733.15,81.17,1616.55,27.89,1592.68,17,1568.4,7.09,1541.71,0c12.42,69.31-13.93,129.05-42,188.11-29.1,61.29-67.56,116.84-107.56,171.39-54.61,74.53-102.94,152.88-139.47,238-16.4,38.28-32.6,76.8-39.59,118.32,13.76-3.17,24.46-11.77,35.64-19.57l5-12.83.31-.79.41-1c.42-1,.86-2,1.17-3,26.93-80.59,65.52-155.5,111.82-226.6.52-.79,1.72-1.1,3.68-2.3,5.47,62.94,40.31,108.86,84.27,149.82,23.39,21.81,48.91,41.52,68.86,66.8,8.8,11.14,17.85,22.53,16.27,38.28,12.34.14,24.69.24,37,.38,16.09-47.64,33.15-95,45.37-143.81,1.75-7,6.74-11.9,11.07-17.16,29-35.26,66-59.74,106.56-79.42,31.91-15.48,64.25-30.13,94.17-49.39,36.15-23.25,72.3-46.43,94.28-88.33,22.76,35.91,34.77,73.57,48,111.07,22.7,64-.86,111-49.6,150.65-29.07,23.66-61.84,41.13-95.07,58-10.63,5.4-21.08,11.18-31.61,16.78l77-3.54c40.34-24.52,80.86-48.87,112.19-91-.68,39.41-9,73.09-14.48,107.1l1.45,1.34c1,.83,2,1.62,3.09,2.34.52.35,1.07.69,1.62,1,1.07.66,2.17,1.24,3.3,1.83,5.68,2.78,11.9,4.47,18,6.36C2045.6,529.72,2019.39,383.57,1917.65,253Zm-298,167.37a1340,1340,0,0,1-60.09,238.56c-38.83-51.15-94.1-83.55-129.32-135.55-25.8-38-33-79.73-23.77-124.44a32.81,32.81,0,0,1,5.5-12.38c32.71-44.75,64.87-89.88,94.24-142.09,11.22,34.64,32.51,56.54,56.62,76.36a401.57,401.57,0,0,1,30.75,27.37C1613.25,368.09,1624.4,390.14,1619.65,420.38Zm5.95-84.75c-26.07-29.65-60.54-46.61-79.52-79.35-14.9-25.63-17.37-53.25-5.2-80.8,14.55-32.95,25.39-67.07,33.71-103.39C1609.78,125,1632.1,239.53,1625.6,335.63ZM1608.78,62c-.76-.55-1.52-1.07-2.27-1.62.41-.31.82-.65,1.24-1,.44.76.93,1.48,1.41,2.24,37.8,12.17,71.06,33.29,104.11,54.37,13.21,8.43,13.62,29.65,3.41,47-15.07,25.56-39.08,42.76-61.06,66.18-3.74-21-6.87-39.07-10.28-57.13C1638.12,133.69,1623.12,98,1608.78,62Zm283.28,264.91c-10.8,15.82-25.42,27.79-40.73,38.93A589.59,589.59,0,0,1,1753.86,423c-39.35,18.43-78.18,37.83-114.74,69.86,10.8-56.38,18-108.93,19.19-162.14.14-5.75,1.51-11.63.51-17.13-6.08-33.47,9.94-56.58,33.81-77,14.76-12.62,29-26.1,40.59-41.82,5.74-7.77,10.25-16.44,15.68-24.46,4.79-7.08,1.69-20.6,9.67-22s15.17,8.77,22.36,14.31C1821.37,193.75,1858,229,1890,269,1905.4,288.33,1906.09,306.29,1892.06,326.89Z"/><path class="cls-3" d="M624.1,2000.78H494.22c16.57-9.84,20.56-24.08,21.13-40,2.9-81.38,1.63-162.75,0-244.12-.31-15.69-4.77-29.32-22.29-40.69,17,0,30.15-.19,43.26,0,55,.91,110-2.47,165,1.9,25.53,2,49.22,10.41,69.82,26.08,36.88,28.06,42.87,74.14,14.38,110.61-13.27,17-30.27,29.46-49.22,39.49-4.57,2.42-11.61,3.46-5.18,11.8,29.35,38.1,57.73,76.95,87.65,114.59,12.27,15.45,15.46,14.66,25.64-2.13,24.71-40.72,40.73-85.6,60.11-128.85,16.36-36.49,30.3-74.09,47.47-110.17,8.93-18.79,5.7-33.7-5.26-49.07-2.89-4-5.7-8.16-10-14.26,32,0,62.1.22,92.17-.13,9-.11,9.68,6.72,12,12.15q53.89,128,107.63,256c8.6,20.35,17.32,40.84,37.8,56.56H1045.9c23.57-31.64,1.62-59.26-7.94-88.11-1.45-4.37-5.18-3.83-8.47-3.84q-53.31-.09-106.61-.05c-4,0-7.78-.17-9.78,4.69-11.68,28.35-28.29,56.19-6.79,88.16-59.24,0-117.11-.18-175,.2-7.93,0-10.8-4.38-14.35-9.72q-33.79-50.73-67.87-101.27c-6.75-10.05-33.19-16.78-43.94-11.52-5,2.46-3.47,6.77-3.37,10.38.72,26.93,1.68,53.84,2.62,80.76C604.87,1983,610.21,1993,624.1,2000.78Zm-21.62-221.52h-.75c0,12,0,24,0,36-.18,32.86-.2,32.86,32,31.74,42.6-1.49,72.62-36.29,70.81-82.08-1.61-40.59-29.08-62.75-74.73-60.3a76.7,76.7,0,0,1-8.54.5c-13.74-.73-19.64,5.2-19,19.35C603.08,1742.69,602.48,1761,602.48,1779.26Zm325.82,97.55h96.09c-15.73-38.76-31-76.29-47.81-117.86Z"/><path class="cls-3" d="M2619.41,2001.44c-39.77,0-75.26-.27-110.75.19-8.53.11-13.13-3-17.69-10-22.19-34-45-67.58-67.65-101.28-6.48-9.65-34.08-16.49-44.07-11.17-4.82,2.57-3.1,6.94-3,10.54.61,25.75,1.48,51.5,2.3,77.25.43,13.65,4.28,25.61,20.71,33.85H2268.43c16.22-9.33,20.71-23,21.23-38.18,2.82-82.43,1.67-164.88.07-247.33-.3-15.58-5.81-28.74-22.55-39.68,72.77,1.86,141.3-2.46,209.71,2.5a127,127,0,0,1,68.15,25.57c37.58,28.32,43.47,74.88,14.17,111.78-13.39,16.87-30.36,29.41-49.51,39-6,3-9.06,5.36-3.71,12.34,28.2,36.76,55.83,74,84,110.76C2596.88,1986.55,2606.36,1993,2619.41,2001.44Zm-243.28-223.29c0,13.14,0,26.27,0,39.41-.14,30.36-.16,30.36,30.91,29.44,43.66-1.3,74.17-36.37,72-82.71-1.93-40.36-29.48-62.17-75.38-59.64-4,.21-8,.77-12,.74-11.07-.08-15,5.8-14.87,16.23C2377,1740.46,2376.37,1778.15,2376.13,1778.15Z"/><path class="cls-3" d="M2633.27,2001.44c17.2-10.8,21.78-23.8,22.31-38.66q4.43-123.67,0-247.34c-.52-14.86-4.9-28.06-22-39.43,8.92,0,13.61-.06,18.3,0,63,.92,126.05-2.86,188.92,1.86,84.41,6.32,146.27,70.31,149.9,153.16,3.51,80-58,154.23-138.46,167.37a219.12,219.12,0,0,1-35.87,3C2756.9,2001.4,2697.35,2001.44,2633.27,2001.44Zm146.37-296.57c-3.75.24-11.84.21-19.73,1.41-10.13,1.54-16.27,6.81-16.24,18.37.23,75.63.1,151.25.2,226.87,0,11.27,5.44,17.34,17.12,19.73,48.76,9.94,90.68-9.53,112.49-54.8s23.94-92.68,9-140.43C2867.21,1727.27,2834.9,1704.51,2779.64,1704.87Z"/><path class="cls-3" d="M1201.31,2000.55c18.06-10.67,21.81-26.06,21.87-42.4q.42-119.37,0-238.72c0-16.52-4.77-31.39-23.12-44.34,80,4.2,155.64-6.93,230.15,6.56,78,14.12,129,80.94,127.15,160.06-1.75,75.51-60.5,143.51-135,156.27a228.43,228.43,0,0,1-39.26,3.52c-58.4-.16-116.8-.09-175.19-.13C1206.85,2001.37,1205.72,2001.11,1201.31,2000.55Zm109.12-164.22c0,36.66.17,73.32-.07,110-.11,15.72,6.14,23.63,22.67,26,45.73,6.6,82.82-10.61,105-51.31,21.15-38.89,24.59-80.58,16.78-123.35-12.45-68.25-50.2-97.13-119.25-92.25-21,1.49-25,5.34-25.07,26.1C1310.26,1766.45,1310.39,1801.39,1310.43,1836.33Z"/><path class="cls-3" d="M160.2,2000.46c17.79-10.89,20.63-27.3,21-43.89,2-79.63,1.69-159.27.21-238.91-.3-16.09-5.35-30.11-21.23-41.31,66.17,0,129.45,0,192.74.06a87.67,87.67,0,0,1,13.66,1.49c32.89,5.29,61,18,71.87,52.52,8.56,27.21-8.07,60.69-38.65,81.67-6.9,4.74-14.47,8.49-22.81,13.32,13.18,4.1,25.51,6.86,37,11.69,60.09,25.31,68.8,97.42,16.79,137.05-20.64,15.72-44.65,25.2-69.89,25.79C294.75,2001.49,228.54,2000.46,160.2,2000.46ZM268.87,1907h.05c0,16.6-.2,33.2.09,49.78.14,8.39,2.55,15.39,11.9,18.7,34.34,12.16,73.89-7.91,83.44-42.74C380.47,1874,341,1832.19,281,1844.28c-8.78,1.77-12.7,5.29-12.32,14.71C269.34,1875,268.87,1891,268.87,1907Zm0-148.06h-.51q0,20.52,0,41.06c0,5.75-.29,10.87,7.38,13.22,19.91,6.1,48.24-2.79,61.58-20.23,15.82-20.68,17.3-51.85,3.45-72.19-11.73-17.21-39.89-26-61.34-20-8.43,2.39-10.43,8-10.52,15.32C268.72,1730.46,268.84,1744.72,268.84,1759Z"/><path class="cls-3" d="M2052.91,2008.54c-46.74.16-85.7-9.64-121.12-31.65-105.49-65.54-106.65-209.42-1.08-274.85,70.11-43.46,144.53-45.4,217.73-8.49,60.55,30.52,94.64,81.2,92.57,150.51-2,67.86-39.2,114.1-98.58,143.47A203,203,0,0,1,2052.91,2008.54ZM1952,1838.32c-.48,30.71,3.68,60.57,17.85,88.21,15.64,30.54,38.78,50.72,75,51.33,36.88.62,62.58-18.1,77.45-49.92,27.69-59.25,27.69-119.68-.43-178.87-14.82-31.18-40.31-49.92-76-49.67s-59.76,20.17-75.49,50.83C1956.17,1777.81,1951.51,1807.6,1952,1838.32Z"/><path class="cls-3" d="M1815.1,1820.44v70.2c-29.19-44.37-72.64-29.11-111.46-31.79-7.14-.49-8.07,4.31-8,10.09.17,29.2-.5,58.42.47,87.59.56,16.81,9,31.12,21.93,44.3H1584.61c16.62-10.06,21-23.7,21.76-38.89,4-83,3.24-166-.11-248.93-.7-17.29-3.26-20.58-18-37h204.68c33.07,0,33.07,0,33.07,32.92V1740c-16.64-27.73-40.28-34.74-66.93-35.12-17.18-.24-34.36.22-51.53-.22-8.79-.23-12.12,2.94-12,11.91.35,34.35.18,68.71.1,103.06,0,5.58.11,10.12,7.86,9.75C1740.4,1827.69,1778,1834.4,1815.1,1820.44Z"/><path class="cls-2" d="M1989.72,2098c32,0,68.69-.06,105.33,0,10.37,0,20.43,2.29,30.23,5.67,20.1,6.92,35.91,18.69,40,40.69,4.24,22.5-7.86,38.32-24.45,51.35-19.18,15.06-19.66,15.27-4.23,34.86,16.21,20.58,29,44,52.77,63.09h-66.68c-6.46,0-8.24-5.59-11-9.65-12.19-18-24.78-35.8-35.93-54.44-6.58-11-16.15-10.59-25.29-8.35-9.34,2.29-4.7,11.69-4.48,17.55.65,18-4.13,36.87,9.2,54.13h-65.68C1997.43,2228.52,1996.46,2164.12,1989.72,2098Zm56.11,61.7h-.2c0,10.85,0,21.7,0,32.55,0,4-.37,8.24,5.49,8.67,17.17,1.27,33.41-.66,44.94-15.28,11.89-15.08,15-32.15,7.09-49.84-7.11-15.9-20.75-21-37.78-21.15-14.29-.15-21.62,3.69-19.74,19.38C2046.67,2142.47,2045.83,2151.13,2045.83,2159.69Z"/><path class="cls-2" d="M959.05,2098c37.48,0,74.65-.12,111.82.13,5.63,0,11.35,1.36,16.85,2.78,17.1,4.43,30.86,13.47,34.92,31.63,3.92,17.55-5.21,30.95-17.41,42.32-4.81,4.47-10.5,8-16.82,12.73,8.77,3.48,16.27,5.75,23.13,9.28,30.37,15.6,35.66,52.36,11,76-14.31,13.72-32.28,20-51.52,20.39-37.15.83-74.34.24-111.81.24C973.32,2267.23,973.25,2123.73,959.05,2098ZM1020.84,2238c0,7.41.6,14.87-.13,22.2-1.43,14.17,4.84,19.56,18.62,19.43,23.64-.21,38.58-13.76,40-37.38,1.58-26.21-9.79-40.64-34.52-43.78-19.8-2.51-24,1.09-24,20.75Q1020.82,2228.59,1020.84,2238Zm-.07-90.58h-.08c0,7.95,0,15.91,0,23.87,0,5,1,8.25,7.05,9.42,14.86,2.86,30.37-4.15,37.33-17.85,7.31-14.4,5-33.18-5.7-42.62a32.28,32.28,0,0,0-31.93-7c-11.46,3.55-5.21,14.52-6.54,22.22C1020.22,2139.34,1020.77,2143.42,1020.77,2147.4Z"/><path class="cls-2" d="M205.31,2219.87c71.49-2.56,143-5.32,214.49-7.64q206.84-6.7,413.7-13c17.47-.54,22.54,4.27,22.58,21.85,0,13-1.83,24.18-19.37,23.6q-315.81-10.55-631.64-20.75C205.16,2222.58,205.23,2221.23,205.31,2219.87Z"/><path class="cls-2" d="M2937.12,2224.06q-219.75,7.33-439.5,14.67c-56.09,1.88-112.17,3.89-168.26,5.71-16.63.54-22.15-5.24-22.24-22.47s5.54-23.24,22.05-22.71q300.47,9.7,600.92,19.55a68.13,68.13,0,0,1,6.79.87Q2937,2221.87,2937.12,2224.06Z"/><path class="cls-2" d="M1741.82,2292.48c11-18.13,1.36-33.54-4.66-49.38-2.19-5.76-7.1-4.78-11.54-4.81-13.17-.08-26.34,0-39.51,0-24.88,0-39,17.5-34.17,42.6.74,3.88,2.46,7.58,4,12.13h-43.5c30.64-52.24,51.13-108.55,74.56-163.51,5.19-12.19-6.76-19.62-8.57-31.52,17,0,33.38.27,49.75-.11,9-.21,9.41,6.86,11.69,12.3q29.57,70.33,58.94,140.75c6,14.18,12,28.32,23.79,41.58Zm-71.18-73.57c17.08,0,31.82-.18,46.56.07,8.21.14,9.94-2.87,6.82-10.31-8-19.06-15.59-38.28-24.59-60.52C1689.25,2173.16,1680.34,2195.06,1670.64,2218.91Z"/><path class="cls-2" d="M1445.7,2217.35c-21.71-24.95-47-16.58-70.33-17.7-6.32-.3-6.66,4.93-6.66,9.74,0,17.18-.09,34.37.09,51.55.12,11.22,6,16,17.3,16.53,31.81,1.43,60.55-4.13,82.46-35.91-1.63,7.4-2.23,10.65-3.07,13.85-10,38-10.47,38.35-49.69,38.35H1305.65c15.19-24.44,15.46-171.34.06-195.81,47.09,0,93.1.07,139.1-.07,6.64,0,9.21,2.69,9,9.19-.27,8.58-.06,17.18-.06,28.33-20.93-29.44-50.48-18.18-76.91-20.25-5.92-.46-8.07,3.2-8.07,8.6,0,2.29,0,4.58-.08,6.87-1,55.45-.86,56.67,58.78,49.06,18.17-2.32,20,3,18.33,17.31C1445.2,2202,1445.7,2207.15,1445.7,2217.35Z"/><path class="cls-2" d="M1536.21,1344.65c4.46,14.65,11.48,28.64,11.66,44.43-53.55-26.38-101.08-61.68-146.79-99.6-13.58-11.27-26.6-23.2-39.88-34.83,4.11-10.55,6.25-22,13.66-31.05,21.79,19.06,42.88,39,65.55,56.93C1470.57,1304.41,1500.6,1328.79,1536.21,1344.65Z"/><path class="cls-4" d="M205.31,2219.87c-.08,1.36-.15,2.71-.24,4.07H145.72A199.09,199.09,0,0,1,205.31,2219.87Z"/><path class="cls-4" d="M2937.12,2224.06q-.13-2.19-.24-4.38a228,228,0,0,1,63.75,4.38Z"/><path class="cls-5" d="M1608.78,62l-2.27-1.61,1.23-1c.47.74.94,1.48,1.42,2.21Z"/><line class="cls-6" x1="1248.77" y1="696.26" x2="1246.67" y2="701.76"/><line class="cls-6" x1="1255.99" y1="677.48" x2="1254.44" y2="681.6"/><path class="cls-6" d="M1540.51,704.65c-26.25-2.89-51.53-9.18-74.92-21.81-67.41-36.35-134-33.39-200,3.92-.38.21-.72.42-1.13.62h0l-9.66,5.27-3.34,1.82-2.61,1.79,5-12.83.31-.79.41-1c.42-1,.86-2,1.17-3,26.93-80.59,65.52-155.5,111.82-226.6.52-.79,1.72-1.1,3.68-2.3,5.47,62.94,40.31,108.86,84.27,149.82,23.39,21.81,48.91,41.52,68.86,66.8C1533,677.51,1542.09,688.9,1540.51,704.65Z"/><line class="cls-6" x1="2214.39" y1="975.98" x2="2214.38" y2="976.05"/><line class="cls-6" x1="2198.4" y1="1071.1" x2="2198.39" y2="1071.15"/></svg>