<svg id="Layer_1" data-name="Layer 1" xmlns="http://www.w3.org/2000/svg" viewBox="0 0 1941.2 2277.82"><defs><style>.cls-1{fill:#fff;}</style></defs><path class="cls-1" d="M985,1857.73c-20,3.26-27-5.57-23.8-24.84a80.37,80.37,0,0,0,1-21c-1.38-13.56-16.32-20.42-28.6-14.49-6.17,3-13.22,4.12-19.89,6.06-7.06,2-13.9-.76-15.63-6.65-2.84-9.69,6.68-8.53,12.07-9.34,17.38-2.61,32.13-21.49,52.81-8.15,2,1.28,13.39-9,18.08-15.55,24.45-34.32,65.67-25.56,86.46,2.06,6.9,9.15,10.51,15.92,25.11,6.7,19.29-12.19,36.77,9.46,56.42,11.32,6,.56.77,9.41-4.53,11.13-8.22,2.67-16.72,1.84-25.36.24-25.7-4.74-31.19.59-32.74,26.58-.75,12.51,5.1,25.29-5.17,38-5.13,6.34,5.94,12.86,12.69,15.89,46,20.7,76,56.14,91,103.31,12.73,40.19-6.1,84.91-47.25,80.21-21-2.4-58.2-39.18-54.59-59.89,1.74-10,9.71-26.35,25.07-28.68,11.53-1.75,25.61-6.37,31.74,10.54,2.4,6.63,5.41,12.93,15,15,.49-22.32-14-37.07-23.92-53.75-.72-1.22-2.5-2.69-3.68-2.6-13.8,1-18.09,20.34-36.29,16.18-25-5.71-9.55,18.88-18.68,28.56-14.11-39.67-48.78-8.84-71.57-21.58-2.27-1.27-5.32,2.83-4.38,6.37,1.29,4.79,5.47,4.94,9.43,4.7,12.28-.77,24.29-3.58,36.92-.68,14.7,3.38,21.58,13.31,21.56,26.32,0,16.69-14.39,12.65-24.66,13.17-9.33.48-18.7.45-28,.44-19,0-33.93-16.27-32.65-35.66,1-14.49.47-24.56-20-18.24-18.07,5.58-25-3.9-25.06-28.86-21.31,22.07-29.13,41.62-25.65,64.11,3.33,1.78,6.65.76,8-2.06,8.37-16.85,22.57-22.15,39-16.27,17.82,6.4,11.85,23.59,11.5,36.69-.67,24.83-23.25,50.74-44.5,53.28-23,2.75-51.33-12.09-53.3-31.79-2.6-26,2-51.93,13.06-76.29,18.32-40.18,48.15-69,87-88.76,4.53-2.3,10.65-1.48,16-2.11l-.26-.23c.86,6.18,4,8.91,10.63,9.69,27.95,3.26,56.89-6.44,85.29,10-5.14-17.21-20.4-18.61-27.63-28-20.68-27-45.84-27.64-68.25-.85Zm62.38-50.93c23.36-8.37,18.3-20.29,6.71-35.23-13.62-17.55-26.6-19.07-47.14-9.47-24.75,11.57-32.85,30.17-15,50.62-4.1,5.31-18.18.78-14.7,13.16,1.68,6,6.2,11.79,12.87,12.17,9.52.55,12.52-8.79,15.7-15,3.93-7.66,2.62-16.64-2.56-24.39-3.6-5.37-6.91-12.22-1.47-16.93,5.6-4.86,9.15,2.83,13.25,5.68,3.81,2.64,8.15,7.27,12.35,3.88C1054.78,1769.2,1040.39,1800.69,1047.35,1806.8Zm20.06,15.44c0-6.54-4.58-7.28-9.36-6.93-5.7.42-13.47-2.4-15.55,5.75-2,8,5,7.86,10.14,8.65C1059.26,1830.73,1064.89,1829.5,1067.41,1822.24Zm.84,33.72c-.38-.46-.71-1.22-1.15-1.28s-.95.6-1.43.94c.38.45.72,1.22,1.15,1.27S1067.77,1856.3,1068.25,1856Z"/><path class="cls-1" d="M1050.87,2057c-17.67-1.86-29.25-7.54-42.8-2.71-11.18,4-19.67-.42-22.52-13.19-3.13-14,5.67-19.18,16.49-19.81,19.4-1.13,38.92-.61,58.38-.16,8.55.2,15.75,5.1,16.48,13.66.62,7.23-.1,17-9.29,19.27-13.21,3.35-9.68,6.35-3.21,14.82,7.31,9.57,3,24.54-8.1,24-17.3-.84-15.73,7.64-15.29,18,.53,12.75-13.08,15.87-15.17,10.62-7.34-18.44-26.37-25-35.72-40.89-6.34-10.76-.72-10.08,6.55-13.34C1012.4,2060.21,1030.59,2067.87,1050.87,2057Z"/><path class="cls-1" d="M985,1867.32v-9.59l-.23.22c3.36.86,9.66,1.89,9.62,2.56-.31,5.72-5.61,5.44-9.66,6.58Z"/><path class="cls-1" d="M1555.54,387.84c2.22.71,5.6.74,6.46,2.23,12.83,22,34.72,33.25,53.78,48.5,47.19,37.75,93.44,77.3,135.31,120.71,13.09,13.57,28.69,30.12,35.89,49,10.18,26.71,29,50.24,35.82,76.57,7.81,30,27.86,52.85,35.92,82.38,8.25,30.21,18.85,60.3,29.91,89.77,27.51,73.33,24.8,151.93,42.54,226.86,5,21.08,8.59,42.85,9.5,64.44a636,636,0,0,1-4.45,105c-1.62,13-1.56,26.26-2.61,39.37-4.15,51.46-16.06,101.49-27.53,151.65-3.55,15.55-1.23,32-6.39,47.74-7.1,21.64-10.52,44.07-25.69,63.11-8.46,10.61,4.5,25.5.89,39-1.31,4.88,1.71,11.22-3.26,15.17-31.33,24.87-29,65.14-44.44,97.26-9.22,19.14-14.65,40.26-30.34,55.74-11.39,11.24-20.83,25.32-23.91,39.53-7.64,35.3-36.14,56.11-54.24,83.76-10.38,15.85-17.21,32.86-26.28,49-5.34,9.46-8.56,16.7-21.57,20.55-18.76,5.56-22.77,27.73-31.78,43.26-7.2,12.42-13.28,24-27.48,29.45a73.61,73.61,0,0,0-35.38,27.69c-17.37,24.76-47.08,34.87-70.86,52.17-41.35,30.09-82.55,60.7-126.14,87.26-30.7,18.72-62.51,36.18-97.58,47.63-33.54,10.94-64.36,29.43-100.77,32.9-12.47,1.19-24.5,4.19-36.71.27-24.22-7.77-49.26-6.64-74.06-6.48-35.15.23-68.18-10.49-101.72-18.29-16.81-3.91-32.79-4.93-50.18-4.62-33.11.6-65.73,4.62-99.91-8.43-35.18-13.43-72.49-22.72-107.53-37.61-47.91-20.36-96-40-142-65-24.76-13.49-52.36-23.41-73.1-42.25-60.92-55.34-126.82-105.91-178.35-170.63C289.15,1887.2,258,1854.76,234,1815.05c-22.74-37.63-50.58-73.47-76.47-109.87-13.71-19.26-18.86-43.09-32.08-63.32-33.34-51-49.49-111.19-84.39-161.74-10.7-15.49-11.46-35.44-13.43-54-4.2-39.6-14.32-77.93-22.34-116.75-3.43-16.63-10.36-35.81,1-53.37,3.21-5,1.52-10.62.29-15.94-8.17-35.42-4.06-71-3.12-106.79,1-37.88.35-75.49,5.47-113.43,7.57-56,19.18-111.5,24.62-167.51C36,827,48.2,806,51.22,782.51c8.43-65.74,40.32-122.72,67.94-180.37,25.89-54.06,66.25-100.64,113.63-138.08,55.11-43.55,119.37-72.74,181-106,32.52-17.58,65-31.43,101.71-37.17,15.81-2.47,31.91-7.74,43.66-23.27,6.69-8.86,23.38-9,35.18-7.48,30.71,4,61.53,9.08,92.14,12.18,43.29,4.37,81.92,19.71,122.08,37-12.87-25.54-22.82-51-39.6-73.73-25.76-34.82-57.71-64-85.1-97.36-17.81-21.69-43-37.69-72.78-42-39.75-5.74-46.65-21.68-27.9-56.9,9.92-18.63,24.62-33,37.52-48.52,25-30,62.3-26.34,88.26,3.48,45.56,52.33,84.8,109.45,120.53,168.38,20.29,33.47,40.15,68,57,103.61,8.12,17.14,19.36,19.8,33.62,11,10.74-6.6,21.46-8.31,33.34-7.2,36.6,3.42,72.07-6.48,108.14-9.43,49.06-4,97.51-.73,146.22,5.15,61.67,7.46,122.31,20.26,181.94,36.5a425.25,425.25,0,0,1,120.67,54.08c10.7,7,25.7,7.85,38.36,13.77,8.55,4,7-6.81,7.06-12.62ZM1129.84,715c-7.12,2.79-15.42,1.42-21.74,7.37-16,15-39.32,11.45-57.56,23.07-25.58,16.3-65.91-9.12-85.63,28.18-.32.6-3,.22-4.49-.11-29.34-6.57-59-12.09-87.82-20.37-11.35-3.26-18.23-6.58-17.21,9,.37,5.65-.68,9.36-6.57,9.84-4.29.34-7.29-2.43-9-6.23-1.89-4.27-3.23-8.79-5.24-13-8.83-18.55-10.48-44.73-42.22-39-5,.9-8.43-4.51-8.62-9.38-.55-14-9.34-21.89-19.44-30.15-7.44,26.8-10.37,27.28-31.16,9.42-11.37-9.77-22-21.66-39-22.74-3.43,12.79,4,21.46,8.68,31.09,3.42,7,7.15,16.3-2.26,20.35-9.7,4.17-13.53-4.71-15.6-12.56-2.18-8.27-3.45-16.79-5.38-25.13-4-17.41-12.28-20.75-26.22-8.89-7.64,6.5-11.9,3.94-17.73-1.1A79.22,79.22,0,0,0,620.74,654c-4.14-2.14-9.53-2.58-8.77-8.82.82-6.63,6.26-9.57,11.78-9,12.67,1.22,21.44-5.09,31.73-11.15,10.76-6.35,23.67-12,37.81-5.79,8.2,3.58,18.43,4.22,22-6,3.78-10.9-6.14-14.65-14.17-17.71-7.74-2.95-19.87-3.47-14.27-15.63,4.6-10,14.85-4,23-2.38,7.75,1.52,17.85,12,22.89,1.88,8.86-17.83,24.6-15.91,39.13-19.2,9.94-2.26,25.07-1.18,13.41-19.25-4.32-6.69.94-14.92,5.68-15.58,25.28-3.54,20.21-20.55,17.69-36.59-.67-4.25-.71-7.88,3.27-10,3.74-2,9.19-1.93,10.07,2.11,3.58,16.55,20,15.21,30,22.77,13.11,10,15.94,3.32,14.84-9.56-3.15-36.78-20.47-69-33.13-102.71A24.15,24.15,0,0,0,814,376.09c-27.46-3.34-51.28-17.8-77-26.15-61.83-20.07-124.22-24.33-186.59-13.25-70.79,12.57-134.36,46.75-196.45,81.7C325.66,434.3,298.1,453.15,279,481.11c-3.95,5.8-8.69,10.6-16.83,11.11-16.2,1-64.51,38.07-68.47,52.15-.79,2.81-1.24,6.55,0,8.93,5.15,10.14-.92,18.06-4.69,26.24-12.93,28-30.34,53.89-35.15,85.68-1.7,11.24-5.18,27.79-16,32.12-41.05,16.43-50.62,54.44-66.14,88.89-14.17,31.45-13.52,65.45-16.52,98.59-1.51,16.65-15,34.61,2.76,51.82,3.2,3.1,2.69,19.47-7.91,24-18.57,8-16.86,24-17.65,39.35-.59,11.51,3.09,23.29-2,34.53-7,15.39-2.65,29.87,2.91,46.94,6.41-8.23,7.15-15.65,8.74-23.08,4.37-20.5,1.9-42,9-62,2.66-7.55,2.11-20.74,13.23-18.14,9.82,2.29,10.52,14.53,7.91,23.9-5.72,20.53-11.53,40.76-12.35,62.49-.51,13.41,6.86,26.42-.69,40.45-9.91,18.42-7.15,39-7.14,59.37,0,22.74,10.91,49.69-17.09,66.16-8.88,5.22-3.16,22.32-18.45,24.47-3.77.53,1.28,2.32,2.12,2.56,14.31,4.11,13,17.68,17.55,27.94,9.1,20.61,8.94,42.57,8.08,64-1.21,30.11,20.7,54.32,18.83,84.34-.52,8.26,7,12.22,14.82,10.81,8.08-1.46,11.58-8.25,10.83-15.8-.6-6-4.41-11.58-5.12-17.55-.5-4.29.8-10,6.61-10.79,2.6-.37,7.82,1.46,8,2.81,2,15.55,18,27.91,9.7,46.1-3.32,7.25-5.21,11.06-14.63,10.53-25.31-1.42-31.57,9.16-19.14,32.58q49.61,93.43,100.47,186.18c4.21,7.67,8.88,17.17,19.68,18.06,16.44,1.35,22,13.51,23.47,26.28,3.37,29.09,17.91,54.24,36.23,73.34,46.58,48.54,85.54,104.85,141.94,143.73,5.35,3.69,13.51,9.2,1.87,15.13-4.07,2.07-12.76-1.83-10,7.58,1.92,6.54,6.25,11.84,13.07,15.61C438,1999,476.37,2017.71,507.75,2047c27.41,25.62,58.81,45,94,56.75,25.57,8.57,37.59,35.16,64,42.59,16,4.5,31.18,13.91,46.81,19.34,38.54,13.4,77.26,29.69,118.92,28.95,62.47-1.11,122.77,8.29,182.37,26.79,25.09,7.78,52.78,11.57,78.43,4.47,28.79-8,56.62-7.17,85.19-2.64,52,8.24,100.66-2.12,144.18-30.79,32.17-21.2,62.73-45.1,92.52-69.6,43.09-35.43,95.19-59.44,131-104.17,6.59-8.23,16.39-14.55,25.81-19.75,23.76-13.14,44.77-29.73,65-47.63,49.08-43.41,64.8-108.26,102.57-159.27,27.62-37.3,45-81.64,72.2-120,15.07-21.23,24.89-45.78,29.54-72.79,4-23.13-1.12-47.61,13.17-69.69,25.67-39.69,29.16-85.92,33.52-131.49,2.88-30,22.19-58.35,9-90-.6-1.45,1.33-4.41,2.73-6.15,20.15-25,10.14-56.43,17.77-84.34,8.44-30.88-16.36-63.07-.75-95.24,1-2-1-6.22-2.69-8.52-20.56-27.24-15.61-59.2-15.44-89.66.24-42.2-1.84-83.4-25.52-120.15-4-6.25-4-11.34-.53-17.24s3-12.06,1.32-18.15c-7-25.68-15.13-51.08-20.84-77-3.5-15.86-12.6-29.06-20.16-41.88-21.58-36.62-52-68-57.86-113.17-1.5-11.56-9.16-23.51-16.89-32.88-26.42-32-57.25-59.73-89.63-85.61-5.81-4.64-11.8-13.27-19.58-11-22,6.32-28.24-11.69-37.07-23.43C1584.84,449,1554,425.15,1507.77,431.1c-8.43,1.09-12.35-3-17.25-8.76-13.84-16.33-27.84-30.77-49.45-39.93-17.2-7.29-36.75-7.51-52.09-18.52-26.15-18.77-57-24.19-87.35-28.74-40.57-6.1-81.7-8.39-122.52-12.95-36.83-4.11-73.71-1.52-110.41,0-45.44,1.83-89.92,15.44-136,13-8.92-.48-19.53,2-15.71,14,5.17,16.37.69,36.52,12.72,49.2,20.46,21.56,3.73,56.34,29.28,74.91,1.44,49,20.8,94.79,26,143.13.57,5.27-1.13,11.4,4.9,14.49,1.46.75,5.36-.12,5.89-1.27,2.26-5-1.39-8.75-3.74-12.7-7.79-13.09,4.4-19.76,9.5-28.53,1.94-3.33,6.43-5.76,10.09-3.21,8.57,6,9.56,15.48,9.54,25,0,2.27-.91,4.57-1.55,6.8-1.17,4.09-.81,8.34,2.86,10.36,5.79,3.19,8.73-1.8,10.52-5.91,5.68-13,18.52-20.23,24.89-33.38,7.84-16.22,19.62-15.49,29.83-.07,7.56,11.43,13.7,3.32,18.73-1.26,7.84-7.16,16.32-15.28,26.55-9.93,18.38,9.61,24.45.29,31.11-14.5,2.93-6.52,3.72-20.69,15-16.63,7.72,2.77,5.76,15,6.23,23.53.33,5.9-2.64,10.25-6.06,14.71s-12.84,8.73-7,14.74c6,6.19,14.94,2,21.14-3,4.11-3.31,6.37-8.83,10.23-12.55,7.7-7.4,16.13-12.56,27-5.16,13.51,9.22-2.26,13.64-3.5,20.39-.63,3.47-5,6.61-2.92,10.58,2.94,5.53,8,2.42,12.38,2,13.36-1.18,22.94-14,37.29-11.94,6.35.91,16.15-3.7,17.25,6.42.86,7.93.58,20.11-8.75,22.31-34,8-63.38,27.32-96.61,37.45-25.08,7.65-45.48,24.46-56.29,50.1Zm-60.56-35c8.83-2.52,16-3.93,16.35-12.68a5.39,5.39,0,0,0-6.06-5.41C1069.37,662.79,1068.35,669.84,1069.28,680ZM850.56,536.65c-3.4-9.06-4.88-18.82-14.27-24.46-1-.58-5.22,1.6-5.32,2.73-1,11.65,5.95,18.31,15.52,23C847,538.15,847.82,537.54,850.56,536.65ZM39.08,1142.06c-.31-3.9-1.49-7.92-6.5-7.32-3.35.4-4.53,3.84-4.08,7.19s1.76,6.11,5.46,6.45C38.28,1148.78,38.64,1145.45,39.08,1142.06ZM868,526.21c3.31,0,6.34-.91,6-4.71-.14-1.67-2.65-4.54-3.86-4.43-2.57.23-6.43,1.5-7.15,3.35C861.82,523.57,864.7,525.64,868,526.21Z"/><path class="cls-1" d="M1555.85,387.55l-.3.29Z"/><path class="cls-1" d="M690.5,1482.22c34.94-28.91,68.27-29.28,102.76-14.41,29.81,12.86,38.48,25.72,35.7,57.54-3.26,37.47-23.3,68.05-47.6,94.67-13.41,14.7-35.71,10.06-53.8,8.91-25.73-1.62-51.69-29.49-53.2-55.23-1.06-18.14-10.25-36.64.58-54.78,1.62-2.71,1.73-6.2-1.91-7.8-3.27-1.44-6.28.06-8.12,2.81-18.75,28-47,40.27-78.37,47.12-6,1.3-9.13,6-6.21,9.91,25.31,34.1,34.26,80.63,76.73,101.62,4.09,2,9.11,3.85,13.46,3.4,36.9-3.79,74.1-5,108.33-23.17,25.4-13.43,48.58-35.74,81.75-26.23,9.12,2.62,18.25,4.47,23.75,13.29,2.78,4.45,8.06,8.35,4.08,14.44-3.37,5.14-6.95,12.15-14.17,10.21-28.57-7.68-51.08,6.31-70.87,22.35-29.08,23.55-63.64,23.09-97,26.57-45.67,4.76-84.49-11.47-118-43.39-12.74-12.15-17.77-28.07-23.16-42.11-6.52-17-17.58-28.7-30-46.5-11.51,27.63-20.3,53.94-40.13,72.78-52.71,50.09-120.62,57.3-171.88-5-14.82-18-11.08-39.49-5.92-59.63,5.76-22.43,26.9-22.7,44.55-26.06,12.31-2.35,21.35,6.41,26,16,3.81,8-3.18,14.5-11.29,17.38-14,5-28.43,12.14-24.78,28.86,3.54,16.22,19.16,24.49,34.76,27.61,43.1,8.63,93.44-23.9,104.18-66.21.56-2.23,1.14-4.91.43-6.93-19.41-55.43,19.25-104.89,16.92-158.93-.42-9.57,5.51-22.44,8.6-33.78,4.13-15.16,12.69-28.08,30.41-31.5,4.11-.79,9.83-2.55,8.69-8.9-1-5.39-5.61-6.81-10.51-7.52-62.46-9-124.63-10.54-183.23,17-21.35,10-31.45,32-34.83,54.91-4.1,27.83,5.12,51.07,31.39,64.29,24.69,12.43,48.49,27.61,78.92,22.43,11.2-1.91,28.19-2.43,27.53,16-.59,16.73-9.33,26-29.57,23.17-17.91-2.47-35.95,1.28-54.89-2.61-34.28-7-58.2-27.89-75.38-53.93-12.53-19-23.59-41.9-23.88-66.85-.11-9.25,2.24-18.75-4.18-27.06-2.57-3.32-3.67-7.59-.32-10.6,41.46-37.12,86-68.51,143.37-75.46,63.59-7.7,125.15,5.68,183,28,47.06,18.15,98.47,72.41,91.9,120.12C693.83,1458.05,692.58,1467.1,690.5,1482.22Zm-58.16-39.93c-3.2-27.07-7-53.78-32.4-71.06-20-13.62-21.73-13-28.21,10.91a138.6,138.6,0,0,1-7.41,19.58c-13.66,30.9-26.41,61.81-27.12,96.59-.37,18.11,6,27.14,24.14,25.17C599.17,1519.35,636.89,1482.18,632.34,1442.29Zm76.71,109.79c.71,11.83-.43,19.35,4.45,25.09,6.49,7.66,5.09,21.84,20.68,22.22,15.29.37,19.71-10.86,25.37-20.6,11-19,25.61-35.52,23.84-61-.85-12.25,1.59-23-10.23-29.84-12.39-7.14-24.6-4.55-34.1,5.51C722.27,1511.21,714.55,1533.56,709.05,1552.08Z"/><path class="cls-1" d="M877.83,1179.69c17.4-18.33,34-28.32,59.59-10.36-8.06-38.54,4.14-72.07,8-105.6a530.36,530.36,0,0,1,20.95-97.59c7.36-23.22,67.46-39.24,85.72-23.52,9.77,8.41,12.59,44,3.38,56.42-12.29,16.6-25.67,32.39-39.36,49.49,23.55,9,50.34,7.19,65.43,29.73,13.64,20.35,2.75,45,10.91,67.3,8.55-45.42,38.63-73.49,73.74-97.4,14.48-9.86,31.9-9,46.51-3,25.8,10.59,28.13,43.56,5,63.39-16.72,14.32-31.83,31.39-56.17,34.63-12.59,1.68-16.32,13.19-16.81,24.92-.36,8.43-2.59,19.2,7.9,22,12.54,3.35,28.22,7.75,38-2.68,17.68-18.78,41.78-32.61,47.88-61.35,2.56-12.07,4.91-26.79,20.32-31.9,6.72-2.24,13.25-5.12,19.46,1.29,5.42,5.59,11.19,10.14,7.92,19.92-10.74,32.14-49.69,95.76-96.46,104.61-26,4.91-75.75-14.3-90.35-36.49-15.16-23-18.17-23-34.55.79-25.81,37.43-51.51,48-88.61,38-14.12-3.82-21.11-15.21-30.24-24.39s-15.32-17.21-25.42,1c-12.57,22.66-45.22,28.88-67.51,14.6-14.68-9.4-28-7.78-41.52.3-15.41,9.18-32.37,16.67-47.45,3.9-17.08-14.48-22.94-33.64-19.91-58.07,3.4-27.38,10.47-54.09,12.74-81.55,2.44-29.5,17.27-43.27,38.69-35.48,16.22,5.9,20.76,16,14,32.91-12.1,30.43-18.47,62-12.79,95,.65,3.78.66,8.63,5.63,8.73,2.16.05,4.84-3,6.53-5.28,23.73-31.44,27.13-69.77,34.09-106.44,2.51-13.22,7.91-19.84,18.86-23,10.13-2.9,20.71-1.54,27.66,7.49,7.16,9.32,12.67,18.75,5.47,31.9-9.49,17.34-19.39,34.31-20.22,55.84C874.39,1153.21,885.9,1164.55,877.83,1179.69Zm157.36-67.78c-3.67-11.46-7.51-30.23-19.25-27.05-12.69,3.44-34.44,3.71-36.43,26.11-1.62,18.35-4,36.63-5.41,55a31.27,31.27,0,0,0,15.43,29.37c8.26,4.7,16.43-5.12,23.42-11.3C1035,1164.53,1026.89,1136.19,1035.19,1111.91Z"/><path class="cls-1" d="M489,853.1c46.25,16.65,96.3,13.79,140.83,33.84,16.51,7.43,30,20.31,41.45,34.81,13.18,16.69,30.79,28.5,40.39,49.73,14.53,32.14,29.24,64.9,26.8,99.3-2.7,38-4.15,75.55-32.38,110.83-47.57,59.44-108.68,78.86-178.76,86-35.42,3.61-69.39,1.83-102.47-13.35-18.61-8.53-38.8-1.22-57.37,2.38-12.95,2.51-22.67-.67-33.37-4.77-10.91-4.17-12.62-12.36-10.08-22.82,2.72-11.15,9.9-11.67,19.6-10.66,55.8,5.8,77.57-5.9,104.54-55.19,11.46-20.93,8.15-25.66-15.43-30.25-68.26-13.28-125-63.72-123.27-135.1,1.28-52.69,24.4-94.17,76.6-120.4C420.25,860.3,455.82,865.75,489,853.1ZM434,1231.05c5.22,8.42,10.46,7.55,14.79,8.42,49.41,9.88,97.81,1.06,145-11.71,16.93-4.58,39.46-16.85,44.53-31,10.58-29.44,46.35-43.89,41.39-83.65-2.81-22.48,3.93-48.51,6.67-72.9,2.42-21.58-5.74-40.09-16.59-59-14.92-26-29.94-53.49-58.13-63.57C567.32,901.84,524.3,876,473.51,887.76c-65.1,15.11-112,28.3-118.93,102.4-2,21.19-9.79,44.34,3.68,63.84,18.37,26.61,47.48,41.11,74.27,57.41,12.93,7.87,38.85-4.59,38.74-19.24-.19-22.37,10.69-41.93,11-64,.4-34.38,8.34-67.62,20.74-99.71,5.06-13.1,11.15-24.53,28.83-19,17.34,5.4,15,20.34,11.62,30.91-15.57,48.88-15.51,100.64-29.24,149.75-2.62,9.38-1.62,17.21,11.34,17.34,39.61.39,65.88-40.91,47-75.33-4.88-8.9-10.25-17.43-12.15-27.33-2.64-13.76,6.54-21.51,18.85-16.68,25.71,10.1,47.74,74.28,33.16,97.56-19.68,31.41-51.41,46.26-85.44,48.35-22.59,1.38-31.45,12.08-36.71,28C480.18,1192.35,466.71,1218.78,434,1231.05Z"/><path class="cls-1" d="M1386.36,1151.19c.73-31.91,6.07-62.38,27.39-88.15,11.13-13.46,5.93-30,5.55-44.57-1.3-49.64,43.33-96.55,97.63-87,26.66,4.69,26.18,21.1,30.84,36,4.85,15.46-2,31-14.35,42-8.26,7.32-19.53,7.8-28.09,1.28-8.72-6.64-4.64-15,1.62-22.24,13.68-15.84-2.92-22.54-10.88-29.38-10.15-8.73-17.35-1.52-23.7,8.49-16.62,26.19-15.58,42.59,6.61,61.85,5.8,5,6.13,10,4.18,16.51-7.57,25.08,18,76.08,42,84.37,8.33,2.88,12.89-2.3,13.95-8.13,1.94-10.81,15.47-22.71-.74-32.88-8.54-5.37-20.6-10-17.32-21.5,3-10.53,14.37-15.45,25.85-17,16.18-2.15,31.37-8.78,48-9.48,12-.5,21.48,3.08,23,14.39,1.42,10.24-8.21,13.54-17.47,14.45-12.38,1.21-16.62,6.51-14.56,20.13,3.35,22.14-10.22,40.5-19.55,58.92-6.59,13-5.61,16,7.51,23.81,26.68,15.78,45.74,3.28,65.82-10.87,6-4.24,12.4-12.86,18.46-1.82,4.57,8.32,15.4,15.59,6.14,28.43-7.42,10.29-18.61,18.55-28.07,19.25-26.3,2-55.45,14.38-79-2.9-27.88-20.49-52.93-12.06-80-2.06s-60.32,0-81.24-19.71C1385.25,1173.2,1387.93,1162.59,1386.36,1151.19Zm108.21,11.32c-16.86-17-32.85-34.61-44.56-55.69-5-9.08-12.34-12-19-.22-7.87,14-4.14,43.64,7,53.43C1458.22,1177.74,1471.76,1178.52,1494.57,1162.51Z"/><path class="cls-1" d="M1658.57,1442.21c8.09,24.68-15.67,42-22,65-2.2,8-10.73,16.33.1,22,10.11,5.34,15.24-4.59,19.27-12,6.34-11.61,12.57-23.38,17.5-35.62,5.31-13.2,15.45-15.26,26.58-11.93,15.42,4.61,4.64,15.84,3.34,23.31-6.42,36.84-34.26,57.48-61.77,77.85-12.8,9.48-25.71,5.46-36.29-4.09-12.3-11.12-20.73-25.84-11-41.55,11.93-19.18,14.57-42.16,27.87-60.82,3.51-4.91,7.81-18.42-.23-23.28-8.19-4.95-15.31,4.36-20.65,10.76-17.73,21.26-29.2,46.4-35.49,72.61-4.55,19-16.13,35.12-18.25,54.84-.9,8.33-9.88,12.55-17.73,11.85-8.8-.78-19.47-.82-22.81-12.59-5.38-19-16.07-14-25.36-4.4-11.3,11.73-24.76,18.62-40,22.29-25.45,6.11-50.58-8.45-58.87-33.47-14-42.18,12.51-102.8,53.53-123.25,6.19-3.08,11.09-9,17.43-11.51,37.33-14.68,64.17,2.81,68.62,43.5.74,6.7-4.06,18.6,7.37,18.81,9.62.17,5-10.67,6.8-16.82,4.66-16.38,10.66-32.38,15.85-48.61,3.52-11,12.14-13.44,20.18-8.42,15.23,9.5,28.69,2.7,38-6.09,12.39-11.71,24.08-9.66,35.76-3.95C1659.29,1413,1660,1426.34,1658.57,1442.21Zm-243.08,87.08c0,11.56-.75,22,12.77,29.22,13.67,7.28,20.27-1.13,28.17-7.74,27.37-22.94,33.1-51.85,25-85.78-2.94-12.28-6.57-13.16-17-9.11C1444.81,1463.51,1415.35,1506.71,1415.49,1529.29Z"/><path class="cls-1" d="M1227.56,1486.24c-4.14,25.54-8.14,51.55-23.91,73.76-4.26,6-8.31,13-2.8,19,6.27,6.92,13.66,1.29,18.58-3,29-25.48,45.34-59.18,54.33-95.39a653,653,0,0,1,19.34-63.79c4.7-13.08,13.92-21.39,29-15.74,16.24,6.1,11,19.34,6.76,29.54-12,28.47-14.19,52.15,13.14,75.78,17.81,15.39,29.85,40.57,19.15,65.54-11.14,26-33,42-61.7,48.28-14.45,3.14-24.58-3.19-33.24-12.29-11.09-11.65-20.42-11.09-31.79-.47-17,15.83-52,20-64.62,8.64-15.5-13.92-18.28-42.82-4.08-64.07,11.59-17.35,8.12-39.73,21.11-56.32,2.54-3.25.49-8.06-3.21-10-6.42-3.4-12.3-.69-16.94,3.92-16.22,16.11-24.88,36.57-34.55,56.9-10.28,21.59-7,46.36-19.24,67.25-4.95,8.43-9,18.2-19.16,17.71-10.45-.5-22-3.4-27.21-15-4.46-10-1.33-17.73,4.14-27.75,13.44-24.58,20.56-52.24,23.39-80,1.54-15.12,4.22-29,11.17-42.21,7.47-14.21,18.59-19.35,32.58-10.16,10.1,6.64,17.12,5.73,27.16-1,15.24-10.25,32.73-8.89,49.08-1.11C1227.34,1460.52,1230.64,1472,1227.56,1486.24Zm91.29,69.18c-3.83-9.41-7-27.08-18.92-30.64-11.19-3.34-16.41,12.85-19.66,24.24-1,3.6-3.54,6.82-5.59,10.08-4.92,7.81-5.93,14.5,4.68,18.3,8.35,3,13.73,15.93,24.19,10.18C1313.63,1582,1316.29,1570.47,1318.85,1555.42Z"/><path class="cls-1" d="M836.82,1539.74c6.81-31.55,15.43-62.77,19.86-94.57,3.91-28,14-52.4,29.53-75.49,14.91-22.13,55-26.29,68.22-4.44,11,18.18,7.54,38.93-3.75,56.62-7,10.91-15.44,21.11-27.51,27.9-9.57,5.38-7.76,10.92,2.87,12.68a96.28,96.28,0,0,1,28.75,9c11.9,6.06,27.59,6.28,30.4,24.2,3.85,24.58,11.94,50.36-3.61,72.51-12.65,18-26.61,35.29-45.5,49-21.52,15.66-41.21,12.26-61.06,2.61-20.85-10.13-36.78-25.37-34.92-52.22C840.73,1558.49,838,1549.16,836.82,1539.74Zm40.66,9.65c.8,15.15-.06,25.82,6.59,35.71,9.68,14.37,23.43,13.76,30.57,2.58,12.24-19.14,24.66-39.55,26.59-63.24,1.64-20.14-22.15-34.91-40.81-26.67C874.5,1509.21,883.9,1534.59,877.48,1549.39Z"/><path class="cls-1" d="M1032.07,1624.78c-19-1.38-40.27-34.45-38.24-59.7,2.37-29.52,12.47-56.86,24.28-83.63,6.6-15,17.83-25.92,34.55-19.27,15.66,6.23,11.85,21,8.33,34.33-3.38,12.79-7.13,25.22-12.53,37.47-8.17,18.54-6.64,37.39,2.2,56.33C1061.05,1612.57,1052.91,1626.29,1032.07,1624.78Z"/><path class="cls-1" d="M671.77,734c4.76,11.84-4.58,27.08,4.49,41.1,2.7,4.18-3,8.47-8.3,8.29-5.78-.21-24.12-31-20.86-35.94,6.62-9.94,3.58-21.33,6.52-31.72,2.71-9.57,2.14-14.83-10.93-11.52-12,3-14.49-6.27-13.43-15.93,1.19-10.89,8.92-11.73,17.31-9.4,16,4.48,30,10.39,24.16,32.16C669,717.45,671.23,724.91,671.77,734Z"/><path class="cls-1" d="M1237.66,677.85c-8.27,23.77-12.25,48.74-19.49,72.81-1.38,4.59-6.4,10-12.68,7.06s-4.3-9.92-2.92-14.57c7.82-26.51,16.29-52.82,24.65-79.17,1.36-4.28,2.55-10,8.94-7.62,4.28,1.57,3.67,6.14,3.08,10S1238.18,674,1237.66,677.85Z"/><path class="cls-1" d="M1085.75,1430.13c-2.29,16.71-16.41,18.3-27.76,18.93-16.55.92-26.14-9.86-25-26.34,1.19-17.43,18.82-15.52,28.55-16.29C1074,1405.46,1082.9,1416.52,1085.75,1430.13Z"/><path class="cls-1" d="M989.26,825.12c.1-13,4.57-25.78.63-39.07-2.27-7.66,3.67-13,10.16-16.38,4.44-2.27,9.12-1.34,12.89,2.12,6,5.52,2.93,11.59.12,17-6.11,11.68-6.51,23.86-3.36,36.08,1.47,5.68.75,10.46-.92,15.72-1.9,6-3.21,13.17-10.94,12.89-9.37-.33-5.6-9.43-7.4-14.56C989,834.66,989.58,829.73,989.26,825.12Z"/><path class="cls-1" d="M711.51,758.47c.38,5.41.81,10.8,1.14,16.19.37,6,8.85,15.1-2.73,16.62-8.44,1.12-9.25-9-9.17-15.92.13-10.11-8.56-16.3-10.31-25.49-1.59-8.37-4.22-19.62,5.33-21.77,7.93-1.79,13.17,9.24,16.55,16.7C714,748.48,711.9,753.86,711.51,758.47Z"/><path class="cls-1" d="M1106.63,787.12c-2.79,1.06-4.88,1.83-7,2.64-23.15,9.07-26.91,6.69-29.27-19.51-.86-9.52-.06-22.2,9.8-23.42,11.55-1.42,10.56,11.06,9.15,19.17C1086.9,780.14,1104.82,774.67,1106.63,787.12Z"/><path class="cls-1" d="M859.76,795.94c9.18,1.44,10.47,7.94,10.59,14,.24,12,17.14,30.11,2,33.9s-10.44-18.88-13.14-30.29C857.9,808,847.13,800.52,859.76,795.94Z"/><path class="cls-1" d="M1129.5,715.25c8.86,11.36,11.52,24.55,11.55,38.56,0,5.74-.5,11.82-7.83,11.31-6.54-.46-10-7.26-7.3-11.83,7.3-12.54.12-25.86,3.91-38.28Z"/><path class="cls-1" d="M984.53,1867.19c0-3.23.05-6.45.07-9.68l-.4.34c3.14.87,8.59-1.32,8.55,3.9,0,4.2-5,4.53-8.58,5.17Z"/><path class="cls-1" d="M1131.22,784.27l-2.91,2.55a22.22,22.22,0,0,1-1.62-3.33c-.08-.24,1.24-1.33,1.56-1.2A15.84,15.84,0,0,1,1131.22,784.27Z"/></svg>