<svg id="Layer_1" data-name="Layer 1" xmlns="http://www.w3.org/2000/svg" viewBox="0 0 2677.58 2281.29"><defs><style>.cls-1{fill:#fff;}</style></defs><path class="cls-1" d="M113.92,2258.74c-51.38-32.37-82.69-81.06-108.9-133.9a69.13,69.13,0,0,1-3.8-9.27c-3.08-9.38-.45-13.06,9.28-14,4.46-.46,11.39,2.38,12.53-3.7,1.07-5.72-2.57-12.51-8.09-14.8-10.1-4.18-8-8.31-3.67-16.16,10.9-19.8,15.28-40.46.19-60.63-3.51-4.68-.9-8.51.89-12.41,7.42-16.18,15.1-32.23,21.44-48.91,12.46-32.81,16.79-66.11,6.72-100.26-2-6.78.1-9.69,6-11.73,6.7-2.34,13.37-4.69,20.64-3.17,4.92,1,8.09.22,7.25-6-1.81-13.38-.43-26.65,1.84-39.86,10.54-12.83,23.32-22.15,39.89-25.54,9.25,1.9,14.27,6.1,9.26,16.27-.93,1.89-.88,4.36-.93,6.57-.06,3.38,0,7.79,3.53,8.65,4.39,1,4.66-3.74,5.65-6.69a115.63,115.63,0,0,0,3.59-12.89c4.26-20.25,17.35-31.4,36.9-35.58,12-2.56,24.14-4.31,36.18-6.65,11.05-2.15,22.12-5.26,30.15-13.36,5.69-5.74,11.28-7.42,18.84-6.3,17.31,2.58,34-1.08,50.6-5.58,24.33-6.59,47.36-20.58,73-19,23.09,1.45,33.87-9.72,41.33-28.36a10.65,10.65,0,0,1,1.53-3c6.53-7.75,3.79-14.63-.89-22.29-14.27-23.43-32.39-43.42-52.74-61.59-34.84-31.12-66.77-63.87-81.95-110.22-19.76-60.32-34.17-121.68-41.49-184.62-9-77.35-12-155-7.37-232.8.8-13.36-.16-27.32,3.48-39.9,8.2-28.36,8.85-57.32,9.72-86.22,1.5-50.19,1.45-100.42,2.39-150.62,1.13-60.09,15.67-117.09,41.75-171,20.92-43.22,46.46-83.85,72.15-124.39,22.88-36.1,45.42-72.38,63.39-111.36,9.58-20.78,15.95-43.41,32-60.86,35.06-40.69,79.56-69.1,125.24-95.9,37.51-22,76-42.42,111.42-67.87a29.65,29.65,0,0,1,10.08-4.55c63-15.39,123.52-38.53,184.42-60.42,67.29-24.18,134.93-47.16,206.35-56.07,14-1.75,28.16-2.43,42.25-3.61,10.13-.84,20.16.71,29.85-6,6.87-4.72,16.37-1.42,23.06,3.63,7.08,5.35,14.75,6.46,23,6.65,70.72,1.64,139,15.66,203.93,43.52,45.12,19.35,86.75,44.48,117.76,84.05,2.74,3.5,5.54,6.87,10,8.52,63.81,23.29,107.46,70.09,145,124.14,32.56,46.84,56.46,98.77,87,146.78,23.37,36.72,47.13,73.35,62.81,114.2,12.4,32.27,22.64,65.37,35,97.65,11,28.81,24.56,56.63,34.61,85.88,19.53,56.83,21,115,15.31,174.2-15,154.75-59.19,301.76-116.35,445.43-1,2.42-2,4.82-2.91,7.26-5.86,15.85-5.54,16.3,11.08,15.62,3.47-.14,7.09.13,8.94,3.34,3.23,5.59-3.67,7.18-5.26,11.89,22.61,7.33,45.29,14.29,67.71,22,137.3,47.22,263.85,114.39,378.19,204.19,13.45,10.57,14.42,10.46,22.68-5,17.41-32.67,15.59-66.46,5-100.6.25-7.64-2.53-14.63-5-21.6-10.16-28.73-20-57.58-31-86-5.67-14.69-5.93-27.9,3-41.25,6-9,10.94-18.6,16.66-27.74,19.57-31.27,23.87-63.16,6.48-97.2-12.33-24.13-23-49.08-34.36-73.71-1.43-3.12-2.78-6-6.25-7.39-26.9-10.86-50.33-27.25-71.65-46.52-17.21-15.54-36.42-30.1-35.09-57.6.34-7.09-3.45-14.37-5.3-21.57-3.44-13.33-7.43-26.54-10.16-40-4.44-21.89-1-41.6,19-55.17,12.3-8.33,26.18-12.52,40.9-13.46,42.91-2.74,84.39,5.52,125.48,16.73,5.75,1.57,6.6,4.86,6,9.92-2.31,20.67-3.81,41.45-6.82,62a458.16,458.16,0,0,0-4.49,91.21c1.63,30.46,8.14,59.6,25.87,85.36,4.3,6.25,8.84,9,16.69,7.62,24.61-4.38,49.57-4.53,74.48-5.52,23.38-.93,46.87-1,69.9-6.36,17.74-4.12,20.28-6.73,22.56-23.87,1.81-13.63,4.34-27.16,6.27-40.78,4.34-30.51,6.24-60.79-19.73-83.88-27.72-24.66-39.19-57.28-45.64-92-3.61-19.43-3.95-39.34,7.53-57.28,5.05-7.9,10.81-14.61,21.42-12.61,29.36,5.51,58.5,1.76,87.8-.92,24.72-2.27,50-5.56,73.37,6.78,11,5.83,22.47,13.68,23.76,26.42,2.54,25-.86,49.83-13.13,72.47-14.61,26.94-37.49,46.24-62.42,62.59-20.08,13.17-31.68,28.28-32,53.77-.39,30-9.88,59.38-9.09,89.75,1,37,18.11,63.83,57.87,65.1,6.41.21,11.16,3.58,15.58,7.77,15.7,14.87,26.23,33.1,34.43,52.85,1.58,7,3,14,7,20.15q.75,3.33,1.51,6.67a8.21,8.21,0,0,0,.63,8.52q.49,6,1,12c-.34,4.38-.33,8.73,1.14,13-.64,5-.89,10,1,14.84-3.75,22.32-4.27,45.08-10.15,67.12-8.09,30.38-19,59.37-36.4,85.86-9.81,14.94-22.6,25.15-39,31.78-35.93,14.51-48.48,34.93-46.15,73.44,1.32,21.88,4.63,43.67,3.2,65.68-1.84,28.19-13.1,53.36-26.21,77.61q-32.09,59.33-65.77,117.79c-20.78,36.18-52.35,61.44-87.3,82.82-27.9,17.07-56.53,33-83.94,50.81-15.14,9.83-28.58,22.35-38,38.3-8.14,7.55-16.35,15-24.39,22.71-6.5,6.2-13.4,7.36-22.37,5.25-75.56-17.75-150.52-37.69-224.76-60.3-33.63-10.24-67.12-21-100.66-31.46a83.66,83.66,0,0,1-8.55-2c-39.18-13.55-78.29-27.32-117.52-40.73-33-11.3-64.81-26.67-98.82-34.75-106.75-25.36-214.36-46.46-322.7-64.06-79.29-12.88-158.87-23.68-238.49-34-74.82-9.71-150.11-15.51-225.5-19.39-19.3-1-38.59-2.13-57.89-3.12-6.67-.35-9.84-2.81-6.55-9.74l.47-.48-.58.36c-3.62.71-7.32,1.14-10.85,2.17A253.51,253.51,0,0,1,739.5,1800c-39,3.47-78.11.12-117.08,3.86-25.4,2.44-25.94,2.08-34.49-21.23-15.11-41.18-33.27-81.26-44.28-123.92-1.56-6.06-.95-17.22-6.46-16.76-6.11.5-4.22,11.24-5.25,17.64-1.43,8.85-4.84,13.34-15.08,10.3-7.34-2.18-15.24-3-23.15-.9-7.6,2-14.58,4.69-16,13.33s2.75,15.23,9.74,19.86c5.57,3.69,11.65,6.6,17.25,10.24,3.82,2.49,7,5.81,5.66,11.09-6.58,26.51-1.78,52.51,3.85,78.37,1.63,7.44-.16,10-7.67,10.5-15.22,1-30,4.46-44.61,8.91-3.33.25-6.77.07-10,.84a758.16,758.16,0,0,0-113.43,36.6c-45,18.61-87.9,42-132.86,60.69-25.19,10.47-46.92,22.82-58.17,49.52-23.13,54.87-29.44,109.87-2,164.89a203.33,203.33,0,0,0,45.37,59.86c7.62,15.47,21.58,26.29,29.91,41.4,5.77,10.45,10.69,21.14,15.41,32,4.39,10.15-1.57,11-9.16,12.17-38,5.67-73.91-.93-107.94-18.47C117.43,2260,115.64,2259.44,113.92,2258.74ZM1707.77,604a36.18,36.18,0,0,1,8.23-18c4.1-4.91,7.33-10.49,7.73-17,.45-7.15.32-13.11-10.67-10.76-13.87,3-19.79-2-22.61-15.6-1.81-8.71-4.81-17.23-3.79-26.33a4.94,4.94,0,0,0-3-5.39c-21.17-11-29.72-31.3-38.28-51.61-6.92-16.44-13.16-33.23-24.53-47.34-4.68-5.81-3.28-8.62,4-8.78,6.93-.15,8.41-3.22,5.45-9.28-4.6-9.43-10.14-18.2-17.67-25.54-6.78-6.6-12.72-6.27-16.88,2.22-4.87,9.93-9,6.92-14.74,1.26-16.42-16.09-19.75-35.93-16.19-58.4-19.76,15.07-19.38,14.53-36.35-.25-12.11-10.56-19.94-21.91-16.46-38.64.36-1.75.92-3.8-1.24-4.84a4.82,4.82,0,0,0-6,1.78c-2.16,2.93-3.46,6.48-5.39,9.62-3.84,6.28-8.89,8.14-14.46,2.39-9.88-10.21-18.48-21.18-22.34-35.43-1.38-5.1,2.89-13.78-7.57-14.63-6.83-.55-12.29,1.78-17.3,6.13a52,52,0,0,1-9,6.48c-2,1.12-5.64,2.75-6.65-.78-4.25-15-17.36-15.54-29.09-18.44-12.48-3.08-22-8.89-23.17-23.39-.21-2.66,1.93-7.88-3.55-7.64-3.78.17-4.78,4.18-5.4,7.58-1,5.37-2.23,10.71-9.38,9.88-7.87-.92-7.08-7.14-7.23-12.75-.16-5.85,2.17-12.4-3.89-17.31-3.88,4.37-7.18,8.11-8.9,13.2-2.43,7.15-6.63,12.73-15.4,11.59-9-1.18-10.51-8.53-11.67-15.54-1.22-7.32-1.83-14.75-2.43-22.16-.7-8.58-5.35-11.13-13.51-10.35-6.57.62-12,3.67-17.73,6.31-6.31,2.92-11.42,3.58-16.76-2.65-7.76-9.05-18.34-10.72-29.59-7.94-10.56,2.62-20.25,7.46-29.4,13.19-5.81,3.65-9,4.48-13.5-2.72-8.21-13.2-15.11-12.2-21.31,1.7-.76,1.69-1.53,3.38-2.39,5-1,2-2.49,4.26-4.85,4.08-3-.24-2.24-3.28-2.71-5.29-1.08-4.7-1.54-9.66-3.34-14.06-4-9.87-12.37-12.2-22.06-10.71s-7.43,9.5-8,15.81c-.18,1.85.09,3.74-.09,5.58-.55,5.45.13,12.08-7.14,13.42s-9.12-4.84-11.31-10c-1.45-3.41-2.67-6.92-4.28-10.25-1.17-2.43-3.16-4.35-6.09-4.11-3.38.28-1.89,3.43-2.65,5.25-3.85,9.11-13.92,14-19,8.57-14.23-15.27-25.83-31.91-23-54.52,1.66-13.26.2-14.42-13-12.31-7.6,1.21-9.06,4.1-5.66,11.22,6.64,13.92,6.63,28.42,3.66,43.58-2,10.39-6.4,10.7-14.39,7.34-12.67-5.33-25.26-11-38.28-15.28-21.47-7.12-23.36-5.32-21.7,17.16a26.69,26.69,0,0,1,.17,3.34c-.41,8.82-6.86,13.71-14.26,9.26-8.47-5.08-15.44-3.09-23.06.66-12.33,6.07-24.9,11.68-37.06,18.08-40.07,21.12-77.85,46.57-120,63.73-2.94,1.2-5.5,3.78-7.73,6.18-15.38,16.61-33.77,29-53.94,38.95-26.7,13.2-54.9,22.81-82.09,34.82-35.43,15.64-66.08,36.74-85.73,71.51-12.51,22.13-21.74,45.57-30.37,69.32-10.65,29.31-21.52,58.26-37.36,85.57-52.69,90.82-86.55,188.11-95.5,293.33-.68,9.63-1.32,19.27-2,28.9-2.88,39.3,3.54,77.89,8.33,116.67,3.35,27.11,4.25,54.21-9.49,79.55a68.06,68.06,0,0,0-8,28.86c-1,17.08-1.91,34.17-3.06,51.25-5.43,80.79,6.58,157.73,46.83,229.48,19.82,35.33,36.84,72.3,42.88,113.11.84,5.65,5.2,7.78,9.11,10.52,25.26,17.76,50.43,35.65,75.84,53.17,5.85,4,8.21,8.37,5,14.91-2.72,5.54-.61,7.19,4.89,9.3,16,6.12,38-16.71,35.7-34.53-.23-1.73-1.11-4.11-2.43-4.83-11.68-6.45-10.36-17.32-10.77-28.17a76,76,0,0,0-4.48-24c-6-15.54-6.46-33.76-16.82-46.78-33.41-42-56.45-89-72.77-139.68-28.07-87.1-37.89-177.18-44.07-267.95-2.34-34.3,3.44-66.5,16.92-97.87,8.8-20.47,16.88-41.25,22-63.11,13-55.42,27.61-110.4,45-164.6,2.47-7.66,3.58-16.17,9.33-22.48,20.91-23,36.87-49.44,53.58-75.39,15.34-23.83,30.18-49.34,54.34-64.31,28.59-17.7,49.81-42.11,73.32-64.95C747.79,450,812.38,423.29,881,406.27c43.65-10.82,88.19-18,132-28.17,49.9-11.58,100-18.88,151.41-16.35,72.47,3.57,141.07,24.4,210.43,43.15,35.31,9.54,62.39,25.25,77.46,59.2,1.78,4,4.8,7.51,7.33,11.19,13.8,20,30.33,36.71,54.31,44.19,3.48,1.09,5.4,3.37,7.12,6.49,10.35,18.67,23.54,35.1,38.78,50.09,18.88,18.57,39.76,34.76,59.82,51.91,34,29.1,64,61,77.56,105.34,6.39,20.85,6.41,42.57,11.55,63.59,16.46,67.42,22.89,135.65,13,204.78-4,27.44-15.35,53.69-13,82.18.23,2.78-1.46,5.71-2.24,8.57-10.11,37.22-25.9,72-45.23,105.26-26.24,45.18-58.78,85.91-90,127.54-4.85,6.45-9.14,11.47-4.72,21.4,6.56,14.72-7,33.59-22.88,35.24-12.24,1.27-22.83,6.63-32.15,14.3-9.76,8-19,16.69-28.57,24.94-9,7.75-18.84,13.54-31.43,10.84-3.9-.83-6.27-.75-6.64,4.26-.41,5.6-4.69,7.54-9.6,6.85-6.44-.92-3.52-6.09-3.74-9.78-.08-1.31-.31-2.62-.6-5-18.55,9.8-38.68,11.23-58.85,16.78,8.76,7,8,15.61,7,23.62-.9,7.43-8.38,1.62-11.94,4.53-1.41,1.16-3.35,1.75-4.57,3-2,2.12-4.54,4.66-3.18,7.7,1.26,2.83,4.66,1.8,7.11,1.64q24.48-1.59,49-3.53c2.9-.22,6.45-.36,7-4.14.62-4.33-3.08-4.36-6-4.81-3.56-.56-8.33.14-7.82-5.44.49-5.3,5.46-4.16,8.81-4.59,50.36-6.37,90.83-29,119-72,1.09-1.65,1.41-5,4.27-4.06,3.17,1,3,3.79,1.61,6.44-1,1.94-.71,3.66,1.18,4.74a4.91,4.91,0,0,0,6.15-.93c12.27-11.89,29-18.51,38.93-33.08,2.8-4.13,6-4.56,10.39-4.26a66.66,66.66,0,0,0,36.6-7.83c28.43-15.15,43.63-41,54.65-69.43,4.26-11,10-18.32,21-22.17,5.48-1.93,10.78-4.37,12.53-11.38,7.65-30.51,21.72-58.51,34.77-86.86,12-26.08,22.9-52.52,28.59-80.78,8.93-44.3,5.62-88.9,3-133.46-3.13-53.09-8.4-106.13-3.23-159.38a32.94,32.94,0,0,0-2.67-17.39C1758.59,715.52,1739.86,656.71,1707.77,604Zm-520.9,886.15c-1.15-5.07-.34-11.77-6.73-12.78-9.7-1.52-19.08-4.95-29.5-1.27a253.22,253.22,0,0,1-86.55,14.39c-122.7-.87-228.67-47-324.21-120.92-2.53-2-6-3.57-5.55-7.73.77-7.59-3.57-12.64-8.69-17.16-6.92-6.11-11.89-13.41-13.47-22.54-3.07-17.72-13-30.36-28-39.68a88.17,88.17,0,0,1-11.39-9c-16.17-14.23-19.18-28.83-6-46,18-23.4,24.91-50.22,30.06-78.23,7.86-42.73,10.72-86.35,24.4-128.06,13.2-40.25,23.41-81.48,41-120.27,11.93-26.36,28.77-47.53,56.48-58.71,7.89-3.19,15.23-7.77,22.67-12,13-7.36,23.29-17.14,28.22-31.8,2.55-7.6,7.67-13.28,14.05-18.24,40.77-31.7,87.67-46.49,138.48-50.3,7.74-.58,14.12-2.06,20-7.65,8.8-8.35,19.32-10.84,31.87-9.06,36.82,5.22,73.78,9.47,110.72,13.8a41.73,41.73,0,0,1,23.67,10.6c40.84,35.28,86.67,64.06,128.75,97.73,20.09,16.08,40.64,33.65,49.5,58,17.92,49.15,24.59,100.34,14.75,152.53-9.92,52.63-37.8,97.61-63.89,142.93a342.16,342.16,0,0,0-37,92.5c-.66,2.78-2,7.57,1,8,16.23,2.26,16.43,16.16,21,27.09,5,11.9,11.76,14.75,24,10.23,36.34-13.44,66.17-36.58,93.87-62.94,30.41-28.95,58.64-60.38,94.27-83.39,4.91-3.17,5.28-7.68,5.92-12.41,2-15.12,3.84-30.26,6-45.35,9.64-66.17,15.46-132.4,2.7-198.83-1.78-9.28-1.61-16.41,7.25-22.19,4.92-3.21,7.68-8.32.56-13.37-7.64-5.42-9.92-13.43-9.8-22.54.14-10.21,3.32-19.75,5.67-29.5,1.46-6,6.75-13-3.57-16.87-1.15-.43-2-4.21-1.51-6.06,3.48-13.4-2.39-21.47-14-27.16-3.53-1.72-6.32-5.15-9.13-8.1-16.19-16.92-24.21-38-30.63-60-1.17-4-.81-9.11-6.7-10.44-8.56-1.92-14.22-8.38-19.11-14.71-41.22-53.28-95.91-86.76-158.17-109.86-63.14-23.44-128.75-36.33-194.85-47.39a22.87,22.87,0,0,0-13.08,1.18c-50.65,21.12-103.82,34-156.67,48-58.27,15.44-116.71,30.53-170.33,59.25-8.72,4.68-17.09,6.78-26.63,4-8.65-2.52-15.27-.15-21.87,6.58-34.8,35.52-59.84,77.62-83.1,121s-43.53,88-69.36,129.85c-7,11.36-11.87,23-13.11,36.19-1.54,16.3-3.69,32.56-4.45,48.89-2.74,59,3.86,117.42,12.12,175.68,11.54,81.37,26.38,162.32,30.41,244.61.35,7,4.42,11.63,8.42,16.42,12,14.41,28.19,24.22,41.66,36.91,23.28,21.92,48.57,39.38,79.82,48.18,13.74,3.87,25.7,12.7,31.91,26.22,4,8.73,8.2,7.52,14.43,3.49,7.09-4.6,14.58-6.47,23.33-4.52,68.39,15.19,137.76,18.78,207.54,16.24,74.19-2.7,147.39-13.5,220-28.39,30.23-6.2,60.25-13.45,90.32-20.42,3.72-.86,10.22-.41,6.45-7.93-1.43-2.84-8.42-3.72-4.36-8.07,3.22-3.44,7.51.62,11.22,2,2.78,1,5.59,2.07,8.45,2.87,8.46,2.37,12.92-.67,15.35-9.42,3.68-13.22-5.49-21.1-10.41-31.48-5.88,5.9-11.45,10.7-15.23,17.3-2.15,3.74-4.85,8.06-10.29,7.13-6.21-1.07-5.46-6.72-5.52-10.76-.16-10.64-4.87-12.78-14.31-9.61-14.06,4.72-28.09,10-43.45,8.07-4.37-.56-5.29,2.78-6.77,5.94-3.26,7-2.79,14.53-3.79,21.85s-5.19,12.66-12.43,14c-7.75,1.47-9.7-5.33-12.19-10.63-1.73-3.69-2.64-7.83-4.69-11.3-6.08-10.28-16.18-10-21.74.5C1191.88,1487.32,1191,1489.32,1186.87,1490.15Zm119.78-167.05c.34-7.48.88-13.3.74-19.1-.07-2.56-1.77-5.15-5-4.91-3.44.25-3.77,3-3.48,5.75C1299.59,1311,1299.17,1317.48,1306.65,1323.1Z"/></svg>