<svg id="Layer_1" data-name="Layer 1" xmlns="http://www.w3.org/2000/svg" viewBox="0 0 2960.45 2281.29"><defs><style>.cls-1{fill:#5b471c;}.cls-2{fill:#fbcc99;}.cls-3{fill:#f69120;}</style></defs><path class="cls-1" d="M255.35,2258.74c-51.37-32.37-82.69-81.06-108.89-133.9a69.18,69.18,0,0,1-3.81-9.27c-3.07-9.38-.45-13.06,9.28-14,4.47-.46,11.4,2.38,12.53-3.7,1.07-5.72-2.57-12.51-8.09-14.8-10.1-4.18-8-8.31-3.67-16.16,10.9-19.8,15.29-40.46.19-60.63-3.51-4.68-.89-8.51.89-12.41,7.42-16.18,15.1-32.23,21.44-48.91,12.47-32.81,16.79-66.11,6.72-100.26-2-6.78.1-9.69,5.95-11.73,6.7-2.34,13.37-4.69,20.65-3.17,4.91,1,8.08.22,7.24-6-1.81-13.38-.43-26.65,1.85-39.86,10.53-12.83,23.31-22.15,39.88-25.54,9.26,1.9,14.27,6.1,9.27,16.27-.94,1.89-.89,4.36-.93,6.57-.07,3.38-.05,7.79,3.52,8.65,4.39,1,4.67-3.74,5.65-6.69a117.88,117.88,0,0,0,3.6-12.89c4.25-20.25,17.34-31.4,36.89-35.58,12-2.56,24.14-4.31,36.18-6.65,11.06-2.15,22.12-5.26,30.16-13.36,5.68-5.74,11.27-7.42,18.83-6.3,17.31,2.58,34-1.08,50.6-5.58,24.33-6.59,47.36-20.58,73-19,23.09,1.45,33.87-9.72,41.33-28.36a11,11,0,0,1,1.54-3c6.52-7.75,3.78-14.63-.89-22.29-14.28-23.43-32.4-43.42-52.74-61.59-34.85-31.12-66.78-63.87-82-110.22-19.75-60.32-34.17-121.68-41.49-184.62-9-77.35-12-155-7.37-232.8.8-13.36-.16-27.32,3.48-39.9,8.2-28.36,8.86-57.32,9.72-86.22,1.5-50.19,1.45-100.42,2.4-150.62C399.41,704.2,414,647.2,440,593.27c20.91-43.22,46.46-83.85,72.15-124.39,22.87-36.1,45.42-72.38,63.39-111.36,9.58-20.78,15.94-43.41,32-60.86,35.07-40.69,79.56-69.1,125.24-95.9,37.52-22,76-42.42,111.43-67.87a29.48,29.48,0,0,1,10.08-4.55c63-15.39,123.51-38.53,184.41-60.42,67.29-24.18,134.93-47.16,206.35-56.07,14-1.75,28.16-2.43,42.25-3.61,10.13-.84,20.16.71,29.85-6,6.88-4.72,16.37-1.42,23.06,3.63,7.09,5.35,14.75,6.46,23,6.65,70.72,1.64,139,15.66,203.93,43.52,45.12,19.35,86.75,44.48,117.76,84.05,2.74,3.5,5.54,6.87,10,8.52,63.81,23.29,107.46,70.09,145,124.14,32.55,46.84,56.45,98.77,87,146.78,23.37,36.72,47.13,73.35,62.82,114.2,12.39,32.27,22.64,65.37,35,97.65,11,28.81,24.55,56.63,34.6,85.88,19.53,56.83,21,115,15.31,174.2-14.95,154.75-59.19,301.76-116.35,445.43-1,2.42-2,4.82-2.91,7.26-5.86,15.85-5.54,16.3,11.08,15.62,3.47-.14,7.09.13,8.94,3.34,3.23,5.59-3.67,7.18-5.25,11.89,22.61,7.33,45.28,14.29,67.7,22,137.3,47.22,263.86,114.39,378.19,204.19,13.46,10.57,14.42,10.46,22.68-5,17.42-32.67,15.6-66.46,4.95-100.6.26-7.64-2.53-14.63-5-21.6-10.16-28.73-20-57.58-31-86-5.67-14.69-5.93-27.9,3-41.25,6-9,10.94-18.6,16.66-27.74,19.57-31.27,23.87-63.16,6.47-97.2-12.33-24.13-23-49.08-34.35-73.71-1.44-3.12-2.79-6-6.26-7.39-26.89-10.86-50.32-27.25-71.65-46.52-17.21-15.54-36.42-30.1-35.09-57.6.34-7.09-3.44-14.37-5.3-21.57-3.44-13.33-7.42-26.54-10.16-40-4.44-21.89-1-41.6,19-55.17,12.3-8.33,26.18-12.52,40.9-13.46,42.92-2.74,84.39,5.52,125.48,16.73,5.76,1.57,6.6,4.86,6,9.92-2.32,20.67-3.81,41.45-6.83,62a458.91,458.91,0,0,0-4.49,91.21c1.63,30.46,8.14,59.6,25.87,85.36,4.3,6.25,8.85,9,16.69,7.62,24.61-4.38,49.57-4.53,74.48-5.52,23.38-.93,46.87-1,69.91-6.36,17.74-4.12,20.28-6.73,22.55-23.87,1.82-13.63,4.34-27.16,6.28-40.78,4.33-30.51,6.23-60.79-19.73-83.88-27.73-24.66-39.2-57.28-45.65-92-3.61-19.43-4-39.34,7.53-57.28,5.05-7.9,10.82-14.61,21.43-12.61,29.35,5.51,58.49,1.76,87.79-.92,24.72-2.27,50-5.56,73.37,6.78,11,5.83,22.48,13.68,23.77,26.42,2.53,25-.86,49.83-13.14,72.47-14.61,26.94-37.49,46.24-62.41,62.59-20.09,13.17-31.69,28.28-32,53.77-.38,30-9.88,59.38-9.08,89.75,1,37,18.11,63.83,57.86,65.1,6.42.21,11.16,3.58,15.58,7.77,15.7,14.87,26.23,33.1,34.43,52.85,1.59,7,3,14,7,20.15.5,2.22,1,4.44,1.51,6.67a8.23,8.23,0,0,0,.63,8.52q.51,6,1,12c-.34,4.38-.32,8.73,1.14,13-.64,5-.89,10,1.05,14.84-3.75,22.32-4.28,45.08-10.15,67.12-8.09,30.38-19,59.37-36.4,85.86-9.82,14.94-22.61,25.15-39,31.78-35.94,14.51-48.49,34.93-46.16,73.44,1.32,21.88,4.63,43.67,3.2,65.68-1.84,28.19-13.1,53.36-26.21,77.61q-32.08,59.33-65.77,117.79c-20.78,36.18-52.35,61.44-87.29,82.82-27.91,17.07-56.54,33-83.95,50.81-15.13,9.83-28.58,22.35-38,38.3-8.13,7.55-16.35,15-24.39,22.71-6.49,6.2-13.39,7.36-22.36,5.25-75.56-17.75-150.52-37.69-224.77-60.3-33.63-10.24-67.11-21-100.66-31.46a84.28,84.28,0,0,1-8.55-2c-39.18-13.55-78.29-27.32-117.51-40.73-33-11.3-64.81-26.67-98.82-34.75-106.76-25.36-214.36-46.46-322.7-64.06-79.3-12.88-158.88-23.68-238.49-34-74.82-9.71-150.12-15.51-225.51-19.39-19.3-1-38.59-2.13-57.89-3.12-6.67-.35-9.84-2.81-6.55-9.74l.47-.48-.58.36c-3.62.71-7.32,1.14-10.84,2.17a253.75,253.75,0,0,1-49.14,9.73c-39,3.47-78.11.12-117.07,3.86-25.41,2.44-26,2.08-34.5-21.23-15.1-41.18-33.27-81.26-44.27-123.92-1.57-6.06-1-17.22-6.47-16.76-6.1.5-4.21,11.24-5.25,17.64-1.43,8.85-4.83,13.34-15.08,10.3-7.33-2.18-15.24-3-23.15-.9-7.59,2-14.58,4.69-16,13.33s2.76,15.23,9.74,19.86c5.57,3.69,11.65,6.6,17.25,10.24,3.82,2.49,7,5.81,5.66,11.09-6.58,26.51-1.77,52.51,3.86,78.37,1.62,7.44-.17,10-7.68,10.5-15.22,1-30,4.46-44.61,8.91-3.33.25-6.76.07-10,.84A757.67,757.67,0,0,0,480,1858.73c-45.05,18.61-87.91,42-132.87,60.69-25.19,10.47-46.92,22.82-58.17,49.52-23.12,54.87-29.44,109.87-2,164.89a203.13,203.13,0,0,0,45.36,59.86c7.62,15.47,21.58,26.29,29.91,41.4,5.77,10.45,10.7,21.14,15.41,32,4.39,10.15-1.57,11-9.15,12.17-38,5.67-73.91-.93-107.95-18.47C258.87,2260,257.08,2259.44,255.35,2258.74ZM1849.2,604a36.11,36.11,0,0,1,8.24-18c4.09-4.91,7.32-10.49,7.73-17,.44-7.15.31-13.11-10.68-10.76-13.86,3-19.78-2-22.61-15.6-1.81-8.71-4.81-17.23-3.79-26.33a4.94,4.94,0,0,0-3-5.39c-21.17-11-29.72-31.3-38.28-51.61-6.93-16.44-13.17-33.23-24.54-47.34-4.68-5.81-3.28-8.62,4-8.78,6.93-.15,8.4-3.22,5.45-9.28-4.6-9.43-10.15-18.2-17.68-25.54-6.78-6.6-12.72-6.27-16.88,2.22-4.87,9.93-9,6.92-14.74,1.26-16.42-16.09-19.75-35.93-16.19-58.4-19.75,15.07-19.37,14.53-36.34-.25-12.12-10.56-20-21.91-16.47-38.64.36-1.75.93-3.8-1.23-4.84a4.81,4.81,0,0,0-6,1.78c-2.17,2.93-3.47,6.48-5.39,9.62-3.85,6.28-8.89,8.14-14.47,2.39-9.88-10.21-18.48-21.18-22.33-35.43-1.38-5.1,2.88-13.78-7.58-14.63-6.83-.55-12.28,1.78-17.29,6.13a52.47,52.47,0,0,1-9,6.48c-2,1.12-5.64,2.75-6.64-.78-4.26-15-17.37-15.54-29.1-18.44-12.48-3.08-22-8.89-23.16-23.39-.22-2.66,1.93-7.88-3.56-7.64-3.78.17-4.78,4.18-5.39,7.58-1,5.37-2.24,10.71-9.38,9.88-7.87-.92-7.09-7.14-7.24-12.75-.16-5.85,2.18-12.4-3.88-17.31-3.89,4.37-7.18,8.11-8.91,13.2-2.43,7.15-6.63,12.73-15.4,11.59-9-1.18-10.51-8.53-11.67-15.54-1.22-7.32-1.82-14.75-2.43-22.16-.7-8.58-5.35-11.13-13.5-10.35-6.58.62-12.05,3.67-17.74,6.31-6.31,2.92-11.42,3.58-16.76-2.65-7.76-9.05-18.33-10.72-29.58-7.94-10.57,2.62-20.26,7.46-29.4,13.19-5.81,3.65-9,4.48-13.51-2.72-8.2-13.2-15.11-12.2-21.31,1.7-.76,1.69-1.53,3.38-2.38,5-1.06,2-2.49,4.26-4.86,4.08-3-.24-2.24-3.28-2.71-5.29-1.08-4.7-1.53-9.66-3.34-14.06-4-9.87-12.37-12.2-22.06-10.71s-7.42,9.5-8,15.81c-.18,1.85.1,3.74-.09,5.58-.55,5.45.14,12.08-7.14,13.42s-9.12-4.84-11.3-10c-1.46-3.41-2.68-6.92-4.28-10.25-1.17-2.43-3.17-4.35-6.1-4.11-3.38.28-1.88,3.43-2.65,5.25-3.84,9.11-13.92,14-19,8.57-14.22-15.27-25.82-31.91-23-54.52,1.66-13.26.2-14.42-13-12.31-7.59,1.21-9,4.1-5.66,11.22,6.64,13.92,6.63,28.42,3.67,43.58-2,10.39-6.41,10.7-14.4,7.34-12.66-5.33-25.26-11-38.28-15.28-21.47-7.12-23.36-5.32-21.7,17.16a28.75,28.75,0,0,1,.18,3.34c-.42,8.82-6.87,13.71-14.27,9.26-8.46-5.08-15.44-3.09-23,.66-12.34,6.07-24.91,11.68-37.07,18.08-40.07,21.12-77.84,46.57-120,63.73-2.94,1.2-5.5,3.78-7.72,6.18-15.38,16.61-33.77,29-54,38.95-26.69,13.2-54.9,22.81-82.09,34.82-35.42,15.64-66.08,36.74-85.73,71.51-12.51,22.13-21.74,45.57-30.37,69.32-10.64,29.31-21.51,58.26-37.36,85.57-52.69,90.82-86.55,188.11-95.5,293.33-.67,9.63-1.32,19.27-2,28.9-2.88,39.3,3.53,77.89,8.32,116.67,3.35,27.11,4.25,54.21-9.49,79.55a68.21,68.21,0,0,0-8,28.86c-1,17.08-1.91,34.17-3.06,51.25-5.42,80.79,6.59,157.73,46.83,229.48,19.82,35.33,36.84,72.3,42.88,113.11.84,5.65,5.2,7.78,9.12,10.52,25.26,17.76,50.42,35.65,75.84,53.17,5.84,4,8.2,8.37,5,14.91-2.71,5.54-.61,7.19,4.9,9.3,16,6.12,38-16.71,35.69-34.53-.22-1.73-1.11-4.11-2.43-4.83-11.67-6.45-10.35-17.32-10.77-28.17a76,76,0,0,0-4.47-24c-6-15.54-6.47-33.76-16.83-46.78-33.41-42-56.45-89-72.77-139.68-28.06-87.1-37.88-177.18-44.07-267.95-2.33-34.3,3.45-66.5,16.92-97.87,8.8-20.47,16.89-41.25,22-63.11,13-55.42,27.61-110.4,45-164.6,2.46-7.66,3.57-16.17,9.32-22.48,20.91-23,36.87-49.44,53.59-75.39,15.33-23.83,30.17-49.34,54.34-64.31,28.58-17.7,49.8-42.11,73.31-64.95,51.62-50.16,116.21-76.9,184.86-93.92,43.65-10.82,88.2-18,132-28.17,49.89-11.58,100-18.88,151.4-16.35,72.47,3.57,141.07,24.4,210.43,43.15,35.31,9.54,62.4,25.25,77.46,59.2,1.78,4,4.8,7.51,7.33,11.19,13.81,20,30.34,36.71,54.32,44.19,3.47,1.09,5.39,3.37,7.12,6.49,10.34,18.67,23.54,35.1,38.78,50.09,18.87,18.57,39.75,34.76,59.82,51.91,34,29.1,64,61,77.56,105.34,6.39,20.85,6.41,42.57,11.54,63.59,16.47,67.42,22.89,135.65,13,204.78-4,27.44-15.35,53.69-13,82.18.22,2.78-1.47,5.71-2.25,8.57-10.1,37.22-25.9,72-45.22,105.26-26.25,45.18-58.79,85.91-90.06,127.54-4.85,6.45-9.13,11.47-4.71,21.4,6.55,14.72-7,33.59-22.89,35.24-12.23,1.27-22.83,6.63-32.15,14.3-9.76,8-19,16.69-28.57,24.94-9,7.75-18.83,13.54-31.42,10.84-3.91-.83-6.28-.75-6.65,4.26-.41,5.6-4.69,7.54-9.6,6.85-6.44-.92-3.52-6.09-3.74-9.78-.08-1.31-.3-2.62-.6-5-18.55,9.8-38.68,11.23-58.85,16.78,8.76,7,8,15.61,7,23.62-.9,7.43-8.39,1.62-11.94,4.53-1.42,1.16-3.35,1.75-4.57,3-2,2.12-4.55,4.66-3.19,7.7,1.26,2.83,4.66,1.8,7.11,1.64q24.49-1.59,49-3.53c2.9-.22,6.45-.36,7-4.14.62-4.33-3.08-4.36-5.95-4.81-3.55-.56-8.33.14-7.81-5.44.48-5.3,5.45-4.16,8.81-4.59,50.35-6.37,90.82-29,119-72,1.08-1.65,1.4-5,4.26-4.06,3.18,1,3,3.79,1.61,6.44-1,1.94-.71,3.66,1.18,4.74a4.93,4.93,0,0,0,6.16-.93c12.26-11.89,29.05-18.51,38.92-33.08,2.8-4.13,6-4.56,10.39-4.26a66.66,66.66,0,0,0,36.6-7.83c28.44-15.15,43.63-41,54.65-69.43,4.26-11,10-18.32,21-22.17,5.49-1.93,10.78-4.37,12.54-11.38,7.64-30.51,21.72-58.51,34.77-86.86,12-26.08,22.89-52.52,28.58-80.78,8.93-44.3,5.62-88.9,3-133.46-3.14-53.09-8.41-106.13-3.24-159.38a32.94,32.94,0,0,0-2.66-17.39C1900,715.52,1881.3,656.71,1849.2,604Zm-520.9,886.15c-1.15-5.07-.34-11.77-6.73-12.78-9.7-1.52-19.08-4.95-29.5-1.27a253.16,253.16,0,0,1-86.54,14.39c-122.7-.87-228.68-47-324.22-120.92-2.52-2-6-3.57-5.54-7.73.77-7.59-3.57-12.64-8.7-17.16-6.92-6.11-11.88-13.41-13.47-22.54-3.07-17.72-13-30.36-28-39.68a88.27,88.27,0,0,1-11.4-9c-16.16-14.23-19.18-28.83-6-46,18-23.4,24.91-50.22,30.07-78.23,7.85-42.73,10.71-86.35,24.39-128.06,13.2-40.25,23.41-81.48,41-120.27,11.94-26.36,28.77-47.53,56.48-58.71,7.89-3.19,15.24-7.77,22.68-12,13-7.36,23.29-17.14,28.21-31.8,2.55-7.6,7.67-13.28,14.05-18.24,40.77-31.7,87.67-46.49,138.48-50.3,7.75-.58,14.12-2.06,20-7.65,8.8-8.35,19.32-10.84,31.87-9.06,36.82,5.22,73.78,9.47,110.73,13.8a41.73,41.73,0,0,1,23.66,10.6c40.84,35.28,86.68,64.06,128.75,97.73,20.09,16.08,40.64,33.65,49.51,58,17.91,49.15,24.58,100.34,14.74,152.53-9.92,52.63-37.8,97.61-63.88,142.93a341.86,341.86,0,0,0-37.06,92.5c-.66,2.78-2,7.57,1,8,16.24,2.26,16.44,16.16,21,27.09,5,11.9,11.76,14.75,24,10.23,36.34-13.44,66.16-36.58,93.86-62.94,30.41-28.95,58.64-60.38,94.27-83.39,4.91-3.17,5.29-7.68,5.93-12.41,2-15.12,3.83-30.26,6-45.35,9.64-66.17,15.46-132.4,2.71-198.83-1.79-9.28-1.62-16.41,7.24-22.19,4.92-3.21,7.68-8.32.57-13.37-7.64-5.42-9.93-13.43-9.81-22.54.14-10.21,3.32-19.75,5.68-29.5,1.46-6,6.74-13-3.58-16.87-1.15-.43-2-4.21-1.51-6.06,3.48-13.4-2.39-21.47-14-27.16-3.53-1.72-6.31-5.15-9.13-8.1-16.19-16.92-24.21-38-30.63-60-1.16-4-.81-9.11-6.7-10.44-8.55-1.92-14.22-8.38-19.11-14.71-41.22-53.28-95.91-86.76-158.16-109.86-63.15-23.44-128.76-36.33-194.86-47.39a22.87,22.87,0,0,0-13.08,1.18c-50.64,21.12-103.82,34-156.66,48-58.27,15.44-116.71,30.53-170.33,59.25-8.73,4.68-17.09,6.78-26.64,4-8.65-2.52-15.27-.15-21.87,6.58-34.8,35.52-59.84,77.62-83.1,121s-43.52,88-69.35,129.85c-7,11.36-11.87,23-13.12,36.19-1.54,16.3-3.69,32.56-4.44,48.89-2.74,59,3.85,117.42,12.12,175.68,11.53,81.37,26.38,162.32,30.4,244.61.35,7,4.42,11.63,8.42,16.42,12,14.41,28.19,24.22,41.66,36.91,23.28,21.92,48.57,39.38,79.82,48.18,13.75,3.87,25.7,12.7,31.92,26.22,4,8.73,8.19,7.52,14.42,3.49,7.1-4.6,14.59-6.47,23.33-4.52,68.4,15.19,137.76,18.78,207.55,16.24,74.18-2.7,147.38-13.5,220-28.39,30.24-6.2,60.25-13.45,90.32-20.42,3.73-.86,10.23-.41,6.45-7.93-1.42-2.84-8.42-3.72-4.36-8.07,3.22-3.44,7.52.62,11.22,2,2.78,1,5.59,2.07,8.45,2.87,8.46,2.37,12.93-.67,15.36-9.42,3.67-13.22-5.49-21.1-10.42-31.48-5.88,5.9-11.45,10.7-15.23,17.3-2.15,3.74-4.85,8.06-10.29,7.13-6.2-1.07-5.46-6.72-5.52-10.76-.15-10.64-4.87-12.78-14.3-9.61-14.07,4.72-28.1,10-43.46,8.07-4.36-.56-5.29,2.78-6.76,5.94-3.27,7-2.79,14.53-3.8,21.85s-5.19,12.66-12.43,14c-7.75,1.47-9.69-5.33-12.18-10.63-1.74-3.69-2.64-7.83-4.7-11.3-6.08-10.28-16.18-10-21.73.5C1333.31,1487.32,1332.42,1489.32,1328.3,1490.15Zm119.78-167.05c.34-7.48.89-13.3.74-19.1-.07-2.56-1.77-5.15-4.94-4.91-3.44.25-3.77,3-3.49,5.75C1441,1311,1440.6,1317.48,1448.08,1323.1Z"/><path class="cls-2" d="M1328.3,1490.15c4.12-.83,5-2.83,6.08-4.84,5.55-10.46,15.65-10.78,21.73-.5,2.06,3.47,3,7.61,4.7,11.3,2.49,5.3,4.43,12.1,12.18,10.63,7.24-1.37,11.41-6.6,12.43-14s.53-14.85,3.8-21.85c1.47-3.16,2.4-6.5,6.76-5.94,15.36,2,29.39-3.35,43.46-8.07,9.43-3.17,14.15-1,14.3,9.61.06,4-.68,9.69,5.52,10.76,5.44.93,8.14-3.39,10.29-7.13,3.78-6.6,9.35-11.4,15.23-17.3,4.93,10.38,14.09,18.26,10.42,31.48-2.43,8.75-6.9,11.79-15.36,9.42-2.86-.8-5.67-1.82-8.45-2.87-3.7-1.38-8-5.44-11.22-2-4.06,4.35,2.94,5.23,4.36,8.07,3.78,7.52-2.72,7.07-6.45,7.93-30.07,7-60.08,14.22-90.32,20.42-72.61,14.89-145.81,25.69-220,28.39-69.79,2.54-139.15-1.05-207.55-16.24-8.74-2-16.23-.08-23.33,4.52-6.23,4-10.41,5.24-14.42-3.49-6.22-13.52-18.17-22.35-31.92-26.22-31.25-8.8-56.54-26.26-79.82-48.18-13.47-12.69-29.63-22.5-41.66-36.91-4-4.79-8.07-9.38-8.42-16.42-4-82.29-18.87-163.24-30.4-244.61-8.27-58.26-14.86-116.68-12.12-175.68.75-16.33,2.9-32.59,4.44-48.89,1.25-13.19,6.1-24.83,13.12-36.19,25.83-41.81,46.15-86.61,69.35-129.85s48.3-85.46,83.1-121c6.6-6.73,13.22-9.1,21.87-6.58,9.55,2.79,17.91.69,26.64-4,53.62-28.72,112.06-43.81,170.33-59.25,52.84-14,106-26.92,156.66-48a22.87,22.87,0,0,1,13.08-1.18c66.1,11.06,131.71,23.95,194.86,47.39,62.25,23.1,116.94,56.58,158.16,109.86,4.89,6.33,10.56,12.79,19.11,14.71,5.89,1.33,5.54,6.46,6.7,10.44,6.42,22,14.44,43.06,30.63,60,2.82,2.95,5.6,6.38,9.13,8.1,11.63,5.69,17.5,13.76,14,27.16-.47,1.85.36,5.63,1.51,6.06,10.32,3.89,5,10.82,3.58,16.87-2.36,9.75-5.54,19.29-5.68,29.5-.12,9.11,2.17,17.12,9.81,22.54,7.11,5.05,4.35,10.16-.57,13.37-8.86,5.78-9,12.91-7.24,22.19,12.75,66.43,6.93,132.66-2.71,198.83-2.2,15.09-4,30.23-6,45.35-.64,4.73-1,9.24-5.93,12.41-35.63,23-63.86,54.44-94.27,83.39-27.7,26.36-57.52,49.5-93.86,62.94-12.25,4.52-19.06,1.67-24-10.23-4.54-10.93-4.74-24.83-21-27.09-3-.43-1.67-5.22-1-8a341.86,341.86,0,0,1,37.06-92.5c26.08-45.32,54-90.3,63.88-142.93,9.84-52.19,3.17-103.38-14.74-152.53-8.87-24.31-29.42-41.88-49.51-58-42.07-33.67-87.91-62.45-128.75-97.73a41.73,41.73,0,0,0-23.66-10.6c-37-4.33-73.91-8.58-110.73-13.8-12.55-1.78-23.07.71-31.87,9.06-5.89,5.59-12.26,7.07-20,7.65-50.81,3.81-97.71,18.6-138.48,50.3-6.38,5-11.5,10.64-14.05,18.24-4.92,14.66-15.22,24.44-28.21,31.8-7.44,4.22-14.79,8.8-22.68,12-27.71,11.18-44.54,32.35-56.48,58.71-17.57,38.79-27.78,80-41,120.27-13.68,41.71-16.54,85.33-24.39,128.06-5.16,28-12.09,54.83-30.07,78.23-13.22,17.19-10.2,31.79,6,46a88.27,88.27,0,0,0,11.4,9c15,9.32,24.9,22,28,39.68,1.59,9.13,6.55,16.43,13.47,22.54,5.13,4.52,9.47,9.57,8.7,17.16-.42,4.16,3,5.77,5.54,7.73,95.54,73.89,201.52,120,324.22,120.92a253.16,253.16,0,0,0,86.54-14.39c10.42-3.68,19.8-.25,29.5,1.27C1328,1478.38,1327.15,1485.08,1328.3,1490.15Z"/><path class="cls-2" d="M1849.2,604c32.1,52.71,50.83,111.52,76.41,167.2a32.94,32.94,0,0,1,2.66,17.39c-5.17,53.25.1,106.29,3.24,159.38,2.63,44.56,5.94,89.16-3,133.46-5.69,28.26-16.58,54.7-28.58,80.78-13,28.35-27.13,56.35-34.77,86.86-1.76,7-7.05,9.45-12.54,11.38-11,3.85-16.72,11.16-21,22.17-11,28.47-26.21,54.28-54.65,69.43a66.66,66.66,0,0,1-36.6,7.83c-4.4-.3-7.59.13-10.39,4.26-9.87,14.57-26.66,21.19-38.92,33.08a4.93,4.93,0,0,1-6.16.93c-1.89-1.08-2.21-2.8-1.18-4.74,1.41-2.65,1.57-5.41-1.61-6.44-2.86-.92-3.18,2.41-4.26,4.06-28.14,43.06-68.61,65.65-119,72-3.36.43-8.33-.71-8.81,4.59-.52,5.58,4.26,4.88,7.81,5.44,2.87.45,6.57.48,5.95,4.81-.54,3.78-4.09,3.92-7,4.14q-24.47,1.9-49,3.53c-2.45.16-5.85,1.19-7.11-1.64-1.36-3,1.2-5.58,3.19-7.7,1.22-1.3,3.15-1.89,4.57-3,3.55-2.91,11,2.9,11.94-4.53,1-8,1.71-16.58-7-23.62,20.17-5.55,40.3-7,58.85-16.78.3,2.42.52,3.73.6,5,.22,3.69-2.7,8.86,3.74,9.78,4.91.69,9.19-1.25,9.6-6.85.37-5,2.74-5.09,6.65-4.26,12.59,2.7,22.41-3.09,31.42-10.84,9.58-8.25,18.81-16.91,28.57-24.94,9.32-7.67,19.92-13,32.15-14.3,15.91-1.65,29.44-20.52,22.89-35.24-4.42-9.93-.14-15,4.71-21.4,31.27-41.63,63.81-82.36,90.06-127.54,19.32-33.26,35.12-68,45.22-105.26.78-2.86,2.47-5.79,2.25-8.57-2.33-28.49,9.07-54.74,13-82.18,9.94-69.13,3.52-137.36-13-204.78-5.13-21-5.15-42.74-11.54-63.59-13.6-44.36-43.52-76.24-77.56-105.34-20.07-17.15-41-33.34-59.82-51.91-15.24-15-28.44-31.42-38.78-50.09-1.73-3.12-3.65-5.4-7.12-6.49-24-7.48-40.51-24.18-54.32-44.19-2.53-3.68-5.55-7.17-7.33-11.19-15.06-34-42.15-49.66-77.46-59.2-69.36-18.75-138-39.58-210.43-43.15-51.45-2.53-101.51,4.77-151.4,16.35-43.83,10.16-88.38,17.35-132,28.17-68.65,17-133.24,43.76-184.86,93.92-23.51,22.84-44.73,47.25-73.31,64.95-24.17,15-39,40.48-54.34,64.31-16.72,25.95-32.68,52.42-53.59,75.39-5.75,6.31-6.86,14.82-9.32,22.48-17.42,54.2-32.06,109.18-45,164.6-5.12,21.86-13.21,42.64-22,63.11-13.47,31.37-19.25,63.57-16.92,97.87,6.19,90.77,16,180.85,44.07,267.95,16.32,50.65,39.36,97.71,72.77,139.68,10.36,13,10.86,31.24,16.83,46.78a76,76,0,0,1,4.47,24c.42,10.85-.9,21.72,10.77,28.17,1.32.72,2.21,3.1,2.43,4.83,2.32,17.82-19.69,40.65-35.69,34.53-5.51-2.11-7.61-3.76-4.9-9.3,3.2-6.54.84-10.88-5-14.91-25.42-17.52-50.58-35.41-75.84-53.17-3.92-2.74-8.28-4.87-9.12-10.52-6-40.81-23.06-77.78-42.88-113.11-40.24-71.75-52.25-148.69-46.83-229.48,1.15-17.08,2.09-34.17,3.06-51.25a68.21,68.21,0,0,1,8-28.86c13.74-25.34,12.84-52.44,9.49-79.55-4.79-38.78-11.2-77.37-8.32-116.67.7-9.63,1.35-19.27,2-28.9,1.2-1.35,2.79-2.52,3.54-4.09,7.36-15.41,13.43-31.36,19.86-47.17,20-49.18,40.82-98,61.89-146.8,6.31-14.59,10.07-31,20.84-42.9,19.62-21.78,40.17-42.79,61.19-63.23,36.25-35.25,73.17-69.81,109.8-104.66,12.91-12.29,24.07-27.35,39.75-35.55,25.57-13.38,52.65-23.9,79.15-35.5,20.75-9.08,41.63-17.83,62.36-26.94,27.86-12.25,55.44-25.13,83.49-36.91,22.81-9.58,47.64-11.7,71.65-16.26,52.24-9.93,105.07-15.5,158.24-18.74,55-3.36,109.1-1,162.06,15.83,35.52,11.28,69.7,25.41,101.86,44.3,30.49,17.91,58.23,39.8,86.79,60.47,52.31,37.87,103.75,77,156.46,114.28a115.91,115.91,0,0,1,37.35,42.64C1832.1,576.28,1839.42,590.91,1849.2,604Z"/><path class="cls-2" d="M1448.08,1323.1c-7.48-5.62-7.06-12.14-7.69-18.26-.28-2.79,0-5.5,3.49-5.75,3.17-.24,4.87,2.35,4.94,4.91C1449,1309.8,1448.42,1315.62,1448.08,1323.1Z"/><polygon class="cls-3" points="940.91 1788.1 941.49 1787.74 941.02 1788.22 940.91 1788.1"/></svg>