<svg id="Layer_1" data-name="Layer 1" xmlns="http://www.w3.org/2000/svg" viewBox="0 0 6307.2 2258.56"><defs><style>.cls-1{fill:#fff;}</style></defs><path class="cls-1" d="M2791.53,2251c-147.39,0-267.68,0-388,0-8.2,0-16.42.09-24.59-.48s-17.51-1.73-18.72-12.11c-1.15-9.91,6.79-15,14.78-17,14-3.58,28.41-6.92,42.8-7.88,28.05-1.87,55.61-2.59,83.47-10.37,45.77-12.78,54.48-19.79,57.26-69.69,2.42-43.55,1.2-87.14,5.77-130.75,22.65-216,7.77-432.64,10.83-649,1.09-77.42-19.63-153.35-16.55-231,.76-19.19-13.65-28.81-30.49-27.86-49,2.77-94.73-17.43-143-19-8.77-.27-21.25-1.65-21.26-12.64s12.42-11.65,21.24-12.65c9.92-1.14,20-1.09,30-1.09,234.21,0,468.41-.34,702.61.59,53.72.22,105.54,15.43,157.57,27.68,47.86,11.27,92.87,29.58,136.66,51.61,86.67,43.61,155,107.75,206.85,188.56,33.37,52,53.63,109.62,70.2,169.79,25.79,93.61,22.32,187.91,10.06,280.65-11.76,88.93-50.38,170.45-103,245.35-61.74,87.9-144.31,148.22-241,188.95-48.45,20.41-100.41,32.23-154.13,39.29C3055.45,2261,2909.78,2243.46,2791.53,2251Zm-35.23-524.52c-4.65,109.33,3.08,250.88,10.93,392.42.6,11,1.05,21.12,13.63,27.12,37.24,17.76,78.29,28.9,117.25,31.14,78.82,4.53,158,14.11,237.5-10.33,64.39-19.81,123.5-45.71,176.09-87.05,81.19-63.8,131.81-148,164.52-244.51,22.36-66,16.6-134.17,19.43-202,3.62-87-12.6-169-50.76-246.89-41.22-84.16-103.16-149.06-185.31-193.83-68.85-37.51-142.12-59.66-220.56-71.43-73.19-11-144.17-13.18-216.37,1.63-39.25,8-53.35,18.89-53.81,58.87-1.14,98.17-8.81,196-12.06,294C2754.37,1548.31,2756.3,1621.13,2756.3,1726.43Zm-98.67-75.92q0-253.77,0-507.53c0-8.18-.06-16.37-.1-24.55-.06-12.6-1.24-24.13-18.21-24.43-18.34-.32-20.09,11.85-20.11,25.61,0,4.55-.08,9.1-.08,13.65q0,513,0,1026a208.58,208.58,0,0,0,1,24.51c1.44,12.07,9.38,16.94,21,16.64s15.85-7.32,16.14-17.78q.34-12.27.35-24.55Q2657.64,1904.27,2657.63,1650.51Zm598.95,514.93c32.08,2,51.78-11.25,70.75-22.32,153.29-89.47,238.59-227.12,263-398.87,15.06-105.93,8.67-214.66-33.35-315.77-47.05-113.2-117.42-208.86-230.31-266.1-29.94-15.18-60.1-31.06-94.6-34.86,49,20.33,92.78,48.14,132.88,82.63,80.42,69.18,130.18,156.16,158.93,257.47,8.74,30.79,12.76,61.89,19.35,92.76,8.41,39.37,11.49,79.29,7.87,118.89-4.85,53.08-12.59,105.72-27.48,157.56-22.51,78.29-60,147.27-112.69,209C3369.1,2094.85,3316.53,2129.81,3256.58,2165.44Z"/><path class="cls-1" d="M5680.11,1668.56c50.15,28.07,86.66,67.79,117.76,111.25,69.71,97.39,135,198,205.31,294.9,30.16,41.58,61.79,83.35,105.28,113.61,18,12.54,35.07,26,57.67,29.24,10.33,1.5,18.26,7.88,26.11,14.16,4.12,3.29,10.06,5.93,7.76,12.64-1.69,4.95-7,6.06-11.41,5.93-58-1.63-115.83,1.8-174.18-4.13-118.49-12-176.3-98.13-236.71-182.25-67.24-93.63-128.84-191.3-201.72-280.86-51.65-63.47-142.38-90.67-218.4-66.82-11,3.46-14,10.79-14,20.47.24,113.74-1.58,227.55,2.34,341.16,1.16,33.55,14.22,67.15,14.46,102,.1,14.64,12.33,14.84,23.08,18,45.75,13.36,93.26,13.91,139.93,20.52,6.29.9,12.73,1.89,18.62,4.11,7.54,2.84,11.47,9.25,10.46,17.28-1,7.69-7.54,9.84-14.1,10.49-7.23.71-14.55.8-21.83.8q-261.09.07-522.18-.25c-13.15,0-34.18,6.82-35.54-13.9-1.26-19.37,19.41-18.45,33.25-19.93,39.71-4.23,79.26-8.59,118.29-17.85,16.77-4,23.54-10.6,25.66-28.52,29-245.37,21-491.79,20-737.88-.32-76.23-1.86-152.74-5.84-229-1.55-29.6-9.55-58.93-15.26-88.25-3.23-16.55-16.68-22-30.94-21.08-45.4,2.8-87.54-16-132.08-18.43-8.14-.44-18.17-2.4-18.45-12.55-.28-10.47,9.9-11.81,18-12.86a191.14,191.14,0,0,1,24.54-1.12c181.35,0,362.9-5.07,544,1.85,150.3,5.74,266.1,76.34,330.65,218.28,33.88,74.5,41.31,151,8.87,226.61-36.26,84.54-101.77,139.83-189.34,168.75C5687.62,1665.73,5685.11,1666.73,5680.11,1668.56Zm29.43-244.66c0-70.53-5.12-86.43-30.57-145.1-44.58-102.76-171.65-182-292.59-168.92-15.78,1.71-25.85,6.34-26.73,23.92-3.82,76-20.58,150.72-17.34,227.66,3.56,84.49.95,169.23,1.19,253.85,0,12.7-1.2,26.14,16.89,29.12,80.15,13.17,159,6.25,231.54-29.28C5677.9,1573,5703.87,1493,5709.54,1423.9Zm-513.27,223.77q0,253.83,0,507.67c0,8.19.08,16.38.38,24.56.48,13.3,8.1,19.62,20.86,20.37,13.63.79,20.2-6.44,21-19.43.45-7.26.54-14.55.54-21.82q0-507.68-.12-1015.34a186.4,186.4,0,0,0-3.46-35.11c-2.35-12.09-11.94-14.72-23.06-14-11.67.71-15.53,7.82-15.75,18.19-.2,9.09-.4,18.19-.4,27.29Q5196.26,1393.83,5196.27,1647.67Zm382,71.48c12.44,13,26.83,24.75,37,39.37,52.85,76,104,153.14,157,229,40.44,58,75.83,120.35,130.54,166.73,24.2,20.52,50.89,40.38,92,42.56-17.39-13.84-29.87-23.71-41-35.32-49.24-51.53-88.77-110.44-129.73-168.23C5771.58,1919.21,5723,1842.2,5663.94,1773,5641.68,1746.9,5616,1724,5578.32,1719.15Zm-5.49-608.32c89.69,51.91,141.71,123.24,168.42,217.62,27.39,96.83,3.74,181-46.88,262.72,39-21.21,60.1-57.26,76.21-94.85,28.53-66.56,27.84-134.37,5.12-204C5750.74,1215.83,5651.67,1118.34,5572.83,1110.83Z"/><path class="cls-1" d="M4283,2251c-133.07,0-266.14.18-399.2-.3-12.38,0-32.26,6.42-34.16-11.95-1.94-18.67,18.39-20.71,32.14-22.27,43.22-4.89,86.84-5.26,129.32-17.3,16.51-4.68,23.57-10.65,25.58-28.59,28.2-251.92,21.65-504.79,20.08-757.41-.42-68.05-2-136.39-5.75-204.45-1.73-31.46-9.63-62.55-14.23-93.88-2.33-15.93-12.27-22.18-26.68-20.93-49.89,4.3-96-20.71-145.68-18.06-8.05.43-18.38-1.6-18.86-11.76-.57-12.32,10.68-13.14,19.67-13.76,12.71-.88,25.5-.9,38.26-.9q386.89-.09,773.8-.05c40.28,0,37.73,1.57,44.08,40.67,9.49,58.45,16.29,116.75,15,175.94-.14,6.37.28,12.76-.15,19.1-.67,9.92-.11,22.34-13.47,23.14-12,.72-11.74-11.11-14.45-19.7-16.28-51.67-33.16-103.15-49.4-154.83-3.42-10.9-11.85-13.13-20.89-14.52-76-11.67-152.08-13.24-228.37-2.37-37.83,5.39-75.85,10.27-114.17,9.2-23-.64-32.53,7.75-37.72,31.71-12.07,55.65-14.32,111.5-13.94,167.92.54,78.27.47,156.54.32,234.8,0,17.58,3.43,28.81,25.09,30.26,100.15,6.68,200.18,1.23,300.27-.54,17.3-.3,20.83-9.34,25.51-24.67,10-32.71,13.1-67.56,29.37-98.34,3.72-7,6.23-17.26,16.47-15.4,10.94,2,11.75,12.64,12.65,21.75.63,6.32.55,12.73.56,19.09q.11,136.51.05,273a186.47,186.47,0,0,1-2.26,27.1c-.81,5.43-3.6,10.56-9.51,12.3-7.84,2.3-11.42-3.35-15.09-8.73-7.82-11.43-15-23.76-15.05-37.55-.12-28.12-17.51-51.51-19.7-79-1.09-13.59-13.77-15.37-24.62-17.43-100.76-19.08-201.15-13.13-301.5,3.78-15.82,2.67-21.74,11-21.71,25.89.3,125.59-.05,251.18,1.34,376.75.24,22.37,7.42,44.69,11.73,67,3.43,17.77,15.75,23.77,32.61,27.71,106.86,25,215.34,15.64,323.31,16.4,45.3.31,48.54-1.78,60.51-45.36,11-40.2,29.91-77.77,38.24-118.83,1.36-6.74,6.3-13,10.47-18.86s9-12.35,17.78-9.69c8.3,2.54,9.93,10.18,10.67,17.48,3.16,31.1-1.45,62.19-6.75,92.23-6.23,35.32-7.7,70.38-8.33,105.82-.71,39.58-8.25,47.45-48.57,48.21-34.62.65-69.26.21-103.9.21Zm-186-603.44v270.16c0,82.77-.09,165.54.17,248.32,0,11.27-2.94,24.13,12.2,30.07,21.66,8.5,30.28.06,30.29-31.5q.1-517.11,0-1034.22c0-8.12-.22-16.52-2.21-24.31-2.76-10.84-12.23-12.18-21.84-12.06-10.62.13-17.5,4.72-18,16-.44,9.08-.51,18.19-.51,27.28Q4097,1392.38,4097.05,1647.52Z"/><path class="cls-1" d="M897.78,1033.94c105-6.91,209.67,13.82,315.3,14.49,37.44.23,74.66-2.51,111.37-9.61,25.37-4.91,39,5.89,42.35,29.65,10.76,77,4.1,154.4,5.4,231.62.14,8.49-2.63,17.36-13.12,17.62s-11.23-9.35-14.47-16.93c-19.55-45.79-25.36-96-46.2-141.42-5.32-11.59-12.84-14.69-24.42-17.72-42.14-11.05-85.76-13-128-21.76-91.44-18.88-184.35-16.94-274.74-6.87-114.41,12.75-218.47,58.9-296.52,149.75-41.34,48.12-68.17,103.49-89.94,163.12-33.27,91.11-36.07,184.84-29.35,278.7,4.77,66.52,25.26,130.68,55.33,191.53,50.72,102.67,129.17,177.17,230.34,227.39,39.09,19.4,81.49,32,124.59,43.57,56.29,15.09,111.7,13.09,167.61,12.6,123.47-1.09,227.27-48.07,310.26-139.86,3.66-4,6.7-8.81,10.93-12.11,6.76-5.26,14.93-8.34,22.48-2.19,6.91,5.64,1,11.75-1.76,17-19.2,36-38.69,71.79-57.94,107.73-14.56,27.19-29.19,54.36-43.22,81.82-7.35,14.38-18.44,24.11-34.38,22.27-139.13-16-278,11.87-417,2.06-66.51-4.69-130.06-21.3-192.46-44-65.43-23.77-125.09-56.65-178.4-101.89-67.62-57.38-118.67-126.08-156.65-206.21-50.4-106.31-57-218.68-47.31-332.16,4.72-55.19,21.77-109.29,43-161.92,26.14-64.79,59.81-124.12,106.86-175.18C461,1166.34,534.17,1112.65,623.4,1078.7,712.37,1044.85,802.15,1027,897.78,1033.94ZM742.26,2194.24C531.63,2126.08,383.72,1980.53,350.1,1760,309.29,1492.29,394.27,1267,643,1123.63c-82.92,26.12-149.27,76.35-205.34,140.08-107,121.61-156,267.62-145,425.77C312.68,1975.61,526.28,2161.86,742.26,2194.24Z"/><path class="cls-1" d="M1893.77,2251c-91.14,0-182.28.2-273.41-.28-10.73-.05-28.15,5.78-29.86-9.86-1.76-16.14,14.63-21.63,28.63-23.1,44.25-4.64,88.06-11.54,131.75-20,17.35-3.37,22.66-11,27.38-27.43,11.08-38.45,7.29-77.47,10.51-116.21,17.48-210.57,17.58-421.51,14.89-632.5-1.17-91.8-17.76-182.65-17.34-274.78.18-41.12-16.27-53.33-57.89-53.51-44.07-.18-85-19.66-129.1-19.31-5.87,0-14-2.56-14.22-10.28-.25-9.5,8.84-10.72,15.68-12a154.2,154.2,0,0,1,27.16-2.23q267.94-.16,535.89.22c13.54,0,36.81-5.5,37.28,11.62.54,19.83-23.17,13.62-37.35,15.24-45.05,5.15-88.7,20.63-134.87,17.76-10.5-.66-16.25,6.87-19.42,16.24-5.82,17.23-12,34.2-12.71,52.83-7.88,219-25,437.77-15.4,657,4.51,103.45,15.84,206.57,16.41,310.31.09,16.82,6.91,33.59,10.54,50.4,2.6,12,12,14.89,22.22,17,35.52,7.3,70.49,18,107.54,15.1a85.08,85.08,0,0,1,45.12,8.92c8,4,18.31,8.08,15.57,19.4-2.4,9.88-12.67,9.1-20.65,9.18-33.72.34-67.44.28-101.16.29Q1985.37,2251.09,1893.77,2251Zm-50.61-606.45q0,255.12,0,510.24c0,9.09,0,18.2.68,27.26.73,10.19,5.44,17.76,16.77,17.59,11.52-.17,22.45-3.06,24.18-16.88,1.24-9.87,1-20,1-30q.06-508.88,0-1017.76c0-8.18-.13-16.37-.45-24.55-.43-11.16-6.92-15.7-17.59-16.61-25.52-2.18-24.58,15.21-24.57,32.24Q1843.2,1385.38,1843.16,1644.59Z"/><path class="cls-1" d="M1031.74,717.48c-157.37-2.27-271.26-75.87-336.34-218-45.11-98.47-25.64-194.39,32.76-283.65,48-73.37,116.92-119.95,198.61-144.71,147.5-44.69,312.63,5.4,403.15,130.56,49.89,69,71.11,148.59,56.63,231.7-20.12,115.42-83.29,202-193,252C1141.83,709,1089.16,721.94,1031.74,717.48ZM782,392.07c-5.39,48.74,8.72,99.45,31.14,148.89,60.1,132.51,245,176.73,359.32,88.15,48.81-37.82,80.1-86.28,96.23-147,20.59-77.51,17.56-154-11.11-226.42-32-81-92.42-132.86-182-151.33C996.33,88,929.58,110,871.69,159.28,802.82,217.85,778.17,297.12,782,392.07Z"/><path class="cls-1" d="M2176.29,323q0,144.63.18,289.27c0,9.59-3.71,21.57,6.21,27.83,11.13,7,17.77-4.55,25.85-9.58,9.21-5.73,19.83-14.38,28.44-1.44s5.85,26.35-6.9,36.19c-23.41,18.07-53.07,22-79.1,34.23-4,1.87-9.61.79-13.17,3.09-24,15.52-35.55,8.16-41.15-18.75-4.4-21.18-18.79-23.42-34.43-10.29-52.24,43.87-114.61,54-177.2,40.51-65.68-14.18-114.46-58.06-144.36-118.94-66.6-135.61-8.33-261.4,112.93-326.2,62.62-33.46,130.8-32.48,197.93-9.78,24.46,8.27,32.67,2.95,32.86-23.25.25-36.33-1.56-72.61,3.08-109,4.14-32.4-3.84-41.44-37.73-50.89C2038.6,73,2032,66.49,2032.38,54.91s7.41-19.25,18.68-19.9c30.08-1.74,55.67-14.79,81.34-28.8,26.25-14.32,43.63-3.36,43.74,27.55C2176.46,130.19,2176.26,226.61,2176.29,323ZM2084.1,473.2h-.21c0-41.83-.2-83.66.07-125.49.19-28.89-17.81-45.3-40.89-55.7-36.35-16.37-72.19-21.62-112.83-5.75-61.56,24.06-99.33,64.05-119,127-12.44,39.84-7,76.17,2,114.23,12.07,51.16,39,90.62,85.76,116.23,41.39,22.68,86.19,16.86,127.85,8.45,46.46-9.38,57.23-30.71,57.29-78.07Q2084.15,523.67,2084.1,473.2Z"/><path class="cls-1" d="M2767.48,717c-46.05,3.59-94.64-7.19-139.76-34.12-13.25-7.9-19.81-17.93-19.72-33,.22-35.47-.1-71,.63-106.41.24-11.81,1.78-25.79,17.4-26.61,16.76-.88,24.52,11.16,25.3,26.3,1.09,21,4.9,40.74,13,60.64,27.55,67.32,94.53,96.1,165.16,75.79,56-16.09,92.34-49.48,102.07-104.31,7-39.19-9.47-76.86-39.92-104.88-34.72-31.95-78.56-47.91-121.36-65.44-40.45-16.58-79-36.39-110.67-67.38-79.65-78-55-175.17,17.82-234.36C2737,54.81,2808.42,44,2883.6,62.56c11.37,2.8,23.38,3,35.08,4.57,32.15,4.29,56.92,25,60.05,54.18,2.51,23.38,1.29,47.23.59,70.84-.29,10-3.06,21.56-15.21,23-13.44,1.55-22-7.22-26.06-19.59-7.72-23.39-19.11-44.57-32.78-65.25-35.42-53.6-153-48.34-192.49,2-28.55,36.4-20.61,99.05,16.57,130.74,37.43,31.91,84,46.09,127.62,65.91,40.53,18.42,79.88,37,111.26,71,84,90.93,47.28,227-49.13,282.47C2860.34,716.13,2846.37,718.61,2767.48,717Z"/><path class="cls-1" d="M4661.61,437.84c-46.45,0-92.93,1.07-139.34-.41-25.59-.82-32.64,9.49-32.79,33.73-.49,79.93,49.4,161.35,126.42,180.53,59.66,14.86,123.65,14.27,174.57-33.94,3.94-3.73,7.86-7.8,12.51-10.4,7.58-4.23,16-11.85,24.22-1.92,7.11,8.58,7.58,17.76-.52,27-34.39,39.28-75.46,72.14-126.63,80.37-75.32,12.1-149.29,9.26-214.28-43.77-124.8-101.84-123-308.26,33-391,62.81-33.32,126.62-35.69,192.51-29.66,52.71,4.82,112.39,65,124,117.27,15.3,68.61,12.37,72.18-59,72.17Q4719,437.82,4661.61,437.84Zm-49.89-43.47c13.65,0,27.3.05,40.95,0,14.56-.07,29.13-.72,43.68-.25,37.29,1.18,59.85-24.43,41.82-69.56-6.08-15.22-20.7-26.28-36.81-34.85-42.95-22.85-84.54-16.48-125.36,3.37-34.59,16.82-60.52,42-71,81.06-4.61,17.14,1.3,20.77,16.65,20.48C4551.65,394.06,4581.69,394.45,4611.72,394.37Z"/><path class="cls-1" d="M3339,437.86c-46.45,0-92.9-.25-139.34.08-33.11.24-42.38,7.89-37,37.87,10.36,57.81,27.52,112.67,78.58,150.28,59.58,43.86,154.87,44.19,213.52-.84,8.66-6.64,18-12.41,26.62-19.1,8-6.18,16-9.67,24.33-1.66,9.42,9,5.36,18.57-1.35,26.57-24.23,28.9-54.07,50.52-87.55,67.88-54.27,28.13-115,27.75-168,13.46-83.73-22.61-144.37-77.76-166.48-169.32-22.42-92.89-2.95-171.4,68.51-233.78,43.44-37.92,94.78-61.93,155.06-63.28,52.52-1.18,103.19.07,147.67,34.2,38.37,29.43,58.23,69.12,66.91,114.6,5.72,29.93-6.45,42.48-36.72,42.79-48.26.5-96.54.14-144.8.14Zm-52.18-43.42v-.75c30.91,0,61.91,1.34,92.73-.36,35.06-1.93,50.11-26.55,37.66-58.06-15.09-38.21-66.3-68.1-110.72-59.64-52.71,10-96.54,36.37-123.6,84.89-11.57,20.76-4.49,33.08,19.35,33.73C3230.44,395,3258.64,394.44,3286.84,394.44Z"/><path class="cls-1" d="M1601.91,335.86q0,143.24,0,286.45c.06,39.73,3.77,44,43.75,50.51,10.75,1.75,19.92,4.52,20.78,17.24.92,13.58-7.17,20.07-19.48,21.58-8,1-16.27.78-24.4.51-45.49-1.52-91-3.89-136.37,1.67-9.27,1.13-18.24,1.09-26.71-3-10.31-5-14.3-14.09-13-24.77,1.24-10,9.85-11.6,18.27-13.13,42.27-7.69,44.92-10.63,44.94-52.2.09-167.33-.34-334.65.45-502,.12-26.49-3.25-44.9-35.89-43.11-9.71.53-21.21-4.19-21-16.87.16-11.89,7.9-21.41,19.72-23.15,31.94-4.7,60.68-17.18,89.23-31.46,18.52-9.26,34.6.18,38.25,20.81,1.72,9.76,1.39,19.93,1.4,29.91Q1602,195.37,1601.91,335.86Z"/><path class="cls-1" d="M5444.07,246.69c28.7,1.28,58.06-3.26,86.08,8.87,17.8,7.71,28.4,18.42,27.3,39-.93,17.22-.19,34.54-.89,51.78-.3,7.33-2.61,14.71-10.67,17.53-8.33,2.91-13.64-2.89-19.05-7.73-6.19-5.54-10.39-12.25-13.7-20-25.25-59.19-89.61-82.17-151.64-40-33.66,22.88-28.2,76.89,8.41,98.4,38.64,22.7,83.29,30.45,123.19,49.72,34.32,16.57,67.58,33.91,82.58,73.95,23.73,63.34,2,128.62-55.86,164.18-71.06,43.67-144.65,40.94-222.91,22.13-68.92-16.56-68.88-60.15-57.48-117.82,2.77-14,8.3-31,26.59-29.33,16.39,1.47,22.63,17.37,26.12,31.58,3.63,14.79,5.15,29.61,10.72,44.49,14.88,39.82,69.14,64.16,111.49,53.48,35.89-9,71.61-22.08,87-62.21,16.1-41.9-9.94-88.16-57.4-105.93-41.43-15.5-84.26-26.44-124.12-47.38-79-41.52-78.14-140.65-7.64-192.28C5351.53,250.27,5396,241.09,5444.07,246.69Z"/><path class="cls-1" d="M4282,328.58q0,144.69.06,289.38c.06,37.43,9.65,49.28,42.56,54.68,12.41,2,28.57,2.05,25.91,20.34-2.29,15.71-15.8,21.31-30.88,20.84-23.65-.74-47.27-2.77-70.92-2.94-27.28-.19-54.6-1.34-81.81,3.37-16.66,2.88-32.85-.77-35-20.75-2.1-19.35,13.9-19.62,27.94-21.4,27.14-3.42,39.82-17.6,39.85-45.45.22-169.26,0-338.52.25-507.77,0-24.77-9.55-39.49-35.39-42.91-12.23-1.62-28-3.26-27.46-20.51.52-18,16-20.71,29.87-21.14,25.69-.78,47.05-13.64,68.78-24.19,33.15-16.1,45.81-10.36,46,26.35.5,97.36.17,194.73.17,292.1Z"/><path class="cls-1" d="M5053.05,310.3c21.69-23.34,43.85-45.35,74.82-56.5,27.35-9.85,51.46-8.38,74.21,10,22,17.81,28.94,46.86,15.22,64.4-24.24,31-44.44,34.06-73.49,10.3-15.05-12.3-29.86-26.94-50.8-15.88-24.43,12.91-43.26,34.41-44,61.59-2.38,85.36-1.38,170.83-1.14,256.25.07,23.22,15.93,30.44,36.3,32,12.42,1,28.06-.53,26.5,18.8-1.43,17.86-14.1,25.77-30.55,23.73-50.85-6.31-101.59-5.39-152.47-1.36-7.06.56-14.41-1.77-21.53-3.23-10.4-2.12-15.64-8.92-15.44-19.37.2-10.91,7-15.43,17.07-17.81,47.56-11.18,47.55-11.35,47.55-60.78,0-75.43-.39-150.86.14-226.29.14-20.2-4.55-33.52-28-34.14-14-.36-25.15-8.54-27.2-22.52-2.16-14.75,12.71-15,21.81-20,29.31-15.94,60.26-28.59,84.32-53.75,16.47-17.23,37.6-7.89,40.42,16.11,1.36,11.54.24,23.37.24,35.07Z"/><path class="cls-1" d="M3609.53,469.53c0-49.14-.58-98.28.27-147.4.36-20.87-4.74-33.68-28.76-31.59-8.2.71-17.25-.59-20.72-9.79-3.82-10.1,1.91-18.66,9.35-23.73,38.13-25.95,70.33-56.68,91.94-98.39,7.66-14.8,27.67-10.14,32.85,7.07,2.81,9.31,2.32,19.77,2.4,29.72.45,51.31.35,51.29,52.81,51.36,13.66,0,27.34-.1,41,.44,14,.57,25.45,5.05,25.75,21.8.31,17.15-11,21.31-25.28,21.47-23.69.27-47.39.51-71.07.35-14.33-.1-22.89,5.79-22.73,20.69,1.09,100.93-3.52,201.87,2.51,302.79,3.12,52.28,47.72,64,88.75,34.91,9.83-7,18.91-10.84,30.09-8.22,10.91,2.56,15,9.42,9.66,20.39-21.87,44.76-128.92,73.49-170.62,45.48-30.9-20.75-46.65-50.9-47.7-87.24-1.44-50-.36-100.07-.36-150.11Z"/><path class="cls-1" d="M3888.53,472.68c0-50-.53-100,.2-150,.3-20.27-3.59-34.1-28.15-32.19-9,.71-19.26-.39-21.7-11.92-2.09-9.86,2.81-18.71,10.5-23.69,38.69-25.11,72.09-54.81,92-97.55,3-6.5,9.84-7.59,16.64-5.59,9.65,2.84,16.15,9.15,16.84,19.22,1,14.49,2,29.15.88,43.57-2,25.5,9.47,34.3,33.85,32.52,18.11-1.33,36.4-.31,54.61-.15,15,.14,30.8.09,31.18,21.16.42,22.95-16.57,22.47-32.46,22.64-19.12.21-38.26.67-57.36,0-19.45-.68-29.49,8.21-29.16,27.25,1.7,100.81-6.14,201.79,4.44,302.43,4,37.88,29.23,52.67,65.33,39.29,13.51-5,26.06-12.59,39.46-18,6.83-2.74,14.64-2.49,20.36,3.52,4.45,4.69,2.83,9.85-.08,15-33.41,58.72-149.15,82.45-189.29,28.53-15.77-21.19-29.1-42.94-28.39-71.45C3889.45,569.08,3888.57,520.87,3888.53,472.68Z"/><path class="cls-1" d="M5770.88,361.16c45.66,7.3,91.56-8.42,137.53-22.81,10.93-3.42,19.46-.85,28.5,3.94,40.74,21.53,85,24.39,129.81,24.41,36.46,0,73-1.55,109.34.21,41.45,2,79.95,15.79,114.81,38.17,7.18,4.6,21.46,9.87,14.43,22.32-7.18,12.73-17.14,2.65-25.91-1.18-57-24.89-114.56-28.48-175.1-11C6008,443,5908.65,449,5809.94,435.44c-39.66-5.45-81.72-17.34-114.16-46.39-5.24-4.69-12.92-8.79-9.72-17.67,3-8.19,11-8.63,18.25-9.35C5725.22,360,5746.1,366.54,5770.88,361.16Z"/><path class="cls-1" d="M411.6,442.08c-86.56.15-159.19-13.7-231.48-32.24C127.72,396.41,75.8,404,26.34,426.2,18,429.93,8,436.54,1.87,426.92c-6.43-10.14,5.26-16.75,11.82-21.36,34.87-24.49,74.77-36.5,116.7-38.61,59.86-3,120,3.05,179.82-5.33,11.8-1.65,24.13-1.65,33.92-8.73,31.18-22.56,63.78-15.79,95.12-3.19,43.79,17.62,89.17,12,134.16,13.54,15.5.52,38.12-9.39,42.8,10.52,3.85,16.4-17.2,24.14-31.85,31.81C526.38,436,463.23,439.89,411.6,442.08Z"/></svg>