<svg id="Layer_1" data-name="Layer 1" xmlns="http://www.w3.org/2000/svg" viewBox="0 0 5864.3 1652.29"><defs><style>.cls-1{fill:#fff;}</style></defs><path class="cls-1" d="M4150.55,1007.28c-54.2,28.56-76.51,20.08-98.47-33.5q-159.52-389.22-319.21-778.37c-29.55-72-65.4-95.85-142.35-95.93-40.61,0-81.22-.25-121.82,0-77.32.56-131.6,46.71-137.41,116.44-6,72.67,40.24,131.72,116.86,141.12,38,4.66,63.57,17,58.57,57.29-5.17,41.67-38.34,45.16-72.74,41.85-114.67-11-207.61-116.35-204.46-231.84,3.25-118.93,96.42-218.87,212.82-222.9,92.7-3.21,185.61,0,278.41-1.3,33.69-.48,48.7,17.23,60.13,45.44q172.62,426,346.37,851.52c8.68,21.31,18,42.33,31.54,73.93,18.64-75,35.14-140,50.92-205.13q57.1-235.94,113.44-472.07C4331,260.64,4344.8,236,4384.06,242c33.64,5.18,46,29.57,36.08,74.75C4406.87,377.47,4392.49,438,4376.52,498c-9,34-5.1,66,5.86,98q49.15,143.46,98.85,286.73c5,14.56,6.29,34.12,28,32.74,21.27-1.35,20.56-20.3,24.25-35.65,48.73-202.37,97-404.84,146.86-606.94C4718.66,117.28,4810.57,33.9,4959.24,16.4c42.13-4.95,69.07,11,70.87,43.84,2.17,39.62-22.7,51.56-57.41,55.24-105.17,11.15-167.44,66.22-194,175q-105.93,433.8-209.31,868.22c-7.26,30.4-17.3,58.45-52.09,59.83-35.34,1.4-46.22-26.28-55.33-56.32-36.87-121.68-75.33-242.88-114-364-4-12.41-4.14-32.16-23.86-31.35-20.62.85-16.85,21-20,33.68-30.8,124.88-59.3,250.34-91.42,374.88-36.62,142-102.09,267.91-219.73,360.53-209.57,165-527.57,152.92-733.77-26.58-196.42-171-265.15-432.95-172.07-655.82,112.67-269.75,455.49-379.16,685.16-218.67,147.43,103,209.29,310,140.57,476.12-53.63,129.67-161.57,178-292.49,189.6-14.42,1.28-29,.64-43.44,1.76-34.75,2.67-56.26-12.94-61-47.14-4.08-29.67,21.68-50.66,60.51-52.2,17.37-.69,34.95.12,52.08-2.29,176.12-24.83,235.42-136.23,202.62-302.86C3790.43,691,3560,596.29,3364.25,699.38c-198.72,104.67-270.2,317.31-181.41,539.63,119,298,502.39,411.51,747.86,219.9,106.55-83.17,158.29-200.62,191.63-327.55C4132.88,1091.24,4140.82,1050.44,4150.55,1007.28Z"/><path class="cls-1" d="M407.31,978.47c0-56.54.47-113.09-.19-169.63-.39-34.51,13.85-57.28,49.55-57.46,36.83-.18,49,25,49,58.29-.05,59.44,1,118.91-.47,178.32-.92,36.21,5.57,68.53,42.51,81.84,40.44,14.57,76-1.4,99.29-34.55,50.92-72.52,52.47-152.61,19.57-231.62-60.22-144.59-225-197.85-377.35-125.14C119.54,759.45,53,962.29,135.5,1147.16,218.69,1333.64,413.58,1432,622,1400.57c210.69-31.73,311.14-171.39,359.12-367.44,23.15-94.62,16.34-189.86-10.78-283.37C939.39,643,863,581.63,763.36,543.53c-65.9-25.19-72.12-56.89-21.56-106.58,65.23-64.11,66-185.91,1.52-256.26C629.68,56.6,401.78,84.74,320.76,232.46c-14.61,26.64-17.28,54.75-16.48,84,1,34.83-16.18,57.5-50.42,57.29-32-.18-46.84-22.22-48.67-55C199.67,219.9,243.52,146.36,318.7,87.33c140.05-110,308.12-115.94,450.72-15.39,101.14,71.32,145.73,205.65,107.34,323.38-17.61,54-11.85,87.47,31.08,114.23,108.82,67.81,155.67,171.69,175.57,291.36,30.93,186-8.3,357.86-118.73,510C855,1462.07,696,1509.08,517.44,1502.89c-284.06-9.83-495.51-215-516.34-498.54-14.74-200.71,119.74-388.1,318.19-443.41,68-19,87.61-44.15,88-113.82.25-46.4-.09-92.79.07-139.19.15-43.43,18.27-69.64,49.88-66.76,40.72,3.71,49.65,32.48,48.7,68.64-1.28,49.27,1.12,98.64-.72,147.87-2.28,61.25,25.54,100.46,79.81,126.44,160.93,77,238.19,252,186.83,421.88-34.36,113.63-115.08,173.85-229.61,190.13-125.28,17.8-140.45,15.48-135.11-117.62C408.46,1045.21,407.32,1011.82,407.31,978.47Z"/><path class="cls-1" d="M5123.37,801c0,99.84.2,192.37-.19,284.89a263,263,0,0,1-4.29,47.29c-4.85,25.92-25.41,35.67-48,35.34-23.23-.34-41.21-13.46-46.26-38.29-2-9.82-2.36-20.1-2.37-30.16-.11-203,.21-406-.34-609-.09-33.54,6-62.81,43.88-68.9,36.22-5.81,50.26,20.31,60.27,49.77q47.41,139.51,95.71,278.74c4.1,11.9,9,23.53,13.81,35.94C5252,778.17,5245,765,5245,755.08c.66-87,.18-174,.47-261,.14-45.73,16.52-67.26,50.47-65.19,39.58,2.42,48.21,28.3,48.09,63.3q-1,306.71.11,613.4c.12,31.23-7.09,56-40.16,62.24s-49.69-14.23-59.62-43.67Q5198,986.47,5149.85,849.38C5144.85,835.05,5144.21,818.33,5123.37,801Z"/><path class="cls-1" d="M2394.16,785.15c0-92.95-.21-182.76.19-272.57.07-15.79,1-32,4.48-47.28,6-26.43,24.75-38.66,51.33-36.43,26.92,2.26,41.25,19.07,44.67,45.08,1.31,10,.46,20.27.46,30.42,0,197.24-.41,394.48.3,591.71.13,34.86-4,66.88-44.66,72.19-38.49,5-50.32-25.38-60.54-55.68-30.94-91.73-62.65-183.19-94.19-274.71-4.07-11.83-5.22-25.22-16.41-34.12-13.66,8.06-7.33,21-7.39,31.2-.56,91.36-1,182.73,0,274.09.38,35.08-15,58.26-48.87,59.2-34.7,1-50-22.45-50-57.34q.58-315.42-.09-630.86c-.07-30,10.24-52.45,40.62-57.84,30.16-5.34,48.87,11.75,58.54,39.86q51.42,149.57,103.1,299C2378.47,768.92,2377.89,778.37,2394.16,785.15Z"/><path class="cls-1" d="M1565.82,795c0-102.83-.23-205.67.07-308.5.14-49,15.91-64.77,64.57-65.44,31.86-.45,63.74-.76,95.59,0,91.22,2.09,160.54,68.16,161.68,159q2.71,217.21-.09,434.49c-1,84.5-72.34,151.33-161.85,155.11-33.25,1.4-66.64,1.08-99.92.05-43-1.33-59.75-18.63-59.91-61.79C1565.56,1003.57,1565.83,899.29,1565.82,795Zm98.74-.37c0,72.3-.44,144.6.16,216.9.4,49,31,70,77.46,54.89,36-11.71,47.3-38.3,47.2-73.55-.37-131.58,0-263.17-.33-394.75,0-11.36-1.11-23.35-4.84-33.94-13.36-38-44.2-48.23-80-43.49-34.78,4.61-40.26,31.15-39.94,61.39C1665.07,652.93,1664.55,723.79,1664.56,794.64Z"/><path class="cls-1" d="M1477.91,797.69c-4.1,78.13,5.69,156.59-5.07,234.45-10.94,79.25-82.3,139.71-159.72,137.53-82.46-2.32-154.66-63.78-156.69-144.87q-5.76-230.26-.11-460.76c2-80.34,76.31-142.49,158-143.1,80.59-.59,147.37,57,158.27,137.94C1483.29,638.24,1473.84,718.11,1477.91,797.69Zm-101.84,2.23c0-69.42.6-138.84-.23-208.25-.5-42.29-25.28-70.64-59.75-71.52-36.84-.94-62.79,27.72-63,72.52q-.81,201.74-.08,403.49c.16,44,27,75,61.87,74.35s60.37-30.81,60.92-75.35C1376.63,930.09,1376,865,1376.07,799.92Z"/><path class="cls-1" d="M2592.51,795.51c0-100-.21-200,.06-300,.16-59.42,15.45-74.48,74.41-74.57,55.07-.08,110.13,0,165.2.07,33.36,0,57.1,12.15,57.33,49.5.23,37.87-24.18,49.19-57.28,49.31-24.63.1-49.27-.32-73.9.08-45.11.73-64.58,18-66.61,61.67a935.1,935.1,0,0,0,.1,95.6c2.09,37.06,20.33,59.11,60.85,57.23,18.76-.87,38.06-1.83,56.33,1.51,27.42,5,44.27,23.88,42.29,52-1.95,27.84-19.11,42.74-48.68,45.12-111.29,9-111.25,9.48-111.25,122.41,0,110.86,4.39,115.31,113.84,115.44,13,0,26.13-.58,39.11.34,26.5,1.88,43.14,15,45.4,42.84,2.37,29.34-12.22,51.7-39.5,53-70.8,3.46-142,4.39-212.75.56-33.48-1.82-45.45-30.24-45.21-63.57C2593,1001.28,2592.52,898.39,2592.51,795.51Z"/><path class="cls-1" d="M5444,795.46c0-101.4-.16-202.79.1-304.19.14-55.6,14.27-70,68.46-70.23,56.49-.25,113,.18,169.48,0,33.81-.13,57.7,13.56,57.84,49.47.14,36.17-23.81,49.84-57.76,49.5-27.51-.28-55.06-.64-82.55.26-36.19,1.19-56.34,19.64-56.6,56.91-.25,34.76-.61,69.54.13,104.28.74,34.91,19,52.91,54.41,52.68,17.38-.11,34.88-1,52.12.56,31.58,2.91,52.3,19,50.41,52.93-1.76,31.36-21.61,44.09-52.22,45.73-105,5.64-104.94,6.07-104.94,109.15,0,20.28-.21,40.56,0,60.84.61,49.72,17.28,66.35,68.34,67.5,26.06.59,52.15.26,78.22.12,29.43-.15,47.05,15,50.25,43.3,3.23,28.6-12.37,51.55-39.8,52.73-72.17,3.1-144.7,3.62-216.8-.29-29.68-1.61-39.68-28.52-39.46-58.35C5444.41,1004,5443.94,899.75,5444,795.46Z"/><path class="cls-1" d="M2073.54,799.07c.05,101.41.28,202.82-.06,304.23-.15,44.92-18.3,69.55-50.37,65.73-37.15-4.42-48.78-30.07-48.7-65q.71-306.4.34-612.81c0-34,10-61.68,49.9-62.1,40.51-.43,49.31,26.51,49.08,61.38C2073.05,593.34,2073.49,696.21,2073.54,799.07Z"/><path class="cls-1" d="M4924.94,799.85q0,154.27,0,308.56c0,24.88-7,45.25-31.59,56.66-18.17,8.43-33.78,3.55-48.82-6.88-16.22-11.24-18.56-28.08-18.54-46.12q.24-312.91.14-625.82c0-33.87,12-57.9,49.16-57.17,35.95.71,49.8,24,49.75,57.86Q4924.82,643.39,4924.94,799.85Z"/><path class="cls-1" d="M4914,1366.08c22-43.77,40.32-79.48,57.84-115.58,7-14.42,15.7-24.21,33.24-20.92,18.68,3.5,21,17.91,21,32.94q.38,121.56.08,243.13c-.07,17.28-5.86,33-26.55,32.53-21.43-.48-23.66-16.75-23.53-34.09.34-41.84.11-83.68.11-129.34-18.18,9.55-20.27,26.54-28,39.1-8.85,14.34-12.65,34.41-35.17,33.28-21.5-1.08-26.1-20.26-34.19-35.17-6.06-11.18-11.69-22.61-24.89-33.6,0,39.09-.09,78.18,0,117.27.06,19.53-.22,41.6-25.34,42.52-26.59,1-25.69-21.46-25.65-40.89.13-76.7,0-153.41.06-230.11,0-15.81-2.08-33.15,18.64-39,21.44-6.06,27.41,10.58,34.63,24.61C4874.16,1287.41,4891.71,1322.2,4914,1366.08Z"/><path class="cls-1" d="M5593.89,1371.51c0-36.93.25-73.87-.1-110.79-.17-17.66,3.19-32.88,24.44-33.42,19.23-.5,24.57,15.16,24.75,29.66,1.06,83.91,1.06,167.84.88,251.76,0,14.06-6,25.21-22.21,27.38-15.46,2.08-24.28-5.56-30.33-18.81-19-41.75-38.36-83.37-66.31-124.14,0,36.25-.14,72.49.06,108.73.11,19.28-4.79,37.13-27.14,36.22-19.44-.8-23.77-18-23.74-35.33q.17-119.4.13-238.79c0-17.18,3-33.32,22.44-36.7,19.76-3.42,27.32,12.39,34,27.31q26.4,59.1,52.64,118.26Z"/><path class="cls-1" d="M4757.29,1301.62c-2.35-44.64-41.34-76.76-84.77-75.63-41.86,1-74.76,32.81-77.81,77.64-1.83,27.32-.35,54.83-.35,82.24-.08,23.07-.61,46.22,0,69.28,1.48,47.61,35.86,83.73,80.07,85,41.26,1.22,80.86-33.77,82.86-78.42C4759.81,1408.5,4760.07,1354.89,4757.29,1301.62Zm-50.48,155.62c-.26,18.19-11.4,31.24-29.33,31.68-20.19.52-31.59-12.71-32-33.25-.52-24.54-.09-49.17-.09-73.8h-.17v-69.45c-.09-20.2,9.31-34.82,29.59-35.86,20.63-1.13,31.85,13.31,32.2,33.07C4707.77,1358.8,4707.59,1408.07,4706.81,1457.24Z"/><path class="cls-1" d="M5427.87,1496.66c-19.58-80.07-39.94-159.87-60.05-239.86-3.65-14.88-9.14-27.41-27.76-27.76-19.32-.35-23.59,13.58-27.68,27.85-12.53,44.47-25.24,89-37.42,133.68-10.62,39-20.63,78.24-29.16,110.36-1,21.41,1.31,34.9,17.67,37.16,14.45,1.92,24.89-5.31,28.46-20.71,1.57-7,5.66-13.58,6.35-20.63,3.48-35.68,29-35.25,54.14-32,25.85,3.4,19.75,28.2,25.76,44.39,5.66,15.4,10.1,32.72,31.07,28.81C5433,1533.57,5432.14,1514.16,5427.87,1496.66Zm-73.1-73.36H5322a8.83,8.83,0,0,1-8.62-10.88l22.11-92.43a2.49,2.49,0,0,1,4.87,0l22.37,93.3A8.14,8.14,0,0,1,5354.77,1423.3Z"/><path class="cls-1" d="M4386.94,1382.14c0-27.49-2.6-55.29.61-82.4,4.76-40.18,29.07-66.33,69.58-72.26,37.9-5.56,68.19,9.3,85.72,44.4,9.34,18.72,16.06,41-6.87,53.74-25.24,14-31.89-7.14-37.66-26.06-5.12-16.82-18.06-21.79-33.86-20.08-16.75,1.8-26.45,12.28-26.64,28.88-.58,49.19-.21,98.39-.26,147.58,0,19.47,11.85,29.31,29,32.22s27.07-7.87,31.71-23.09c5.4-17.74,11.92-36,34.91-26.79s19.25,29.31,12.76,48.23c-11.66,34-49.68,57.46-85.48,53-39.46-5-71-37.79-73.6-79.22-1.63-25.94-.3-52.07-.3-78.11Z"/><path class="cls-1" d="M5229.7,1292.4c-13.49-50.05-78.15-81.46-134.29-66.41-19.67,5.22-23.93,17.76-23.76,35.34.35,40.47.09,80.94.09,121.41h.17c0,42,.09,83.9-.09,125.85,0,14.62,4.18,25.93,20.72,27.67,18.45,1.83,26.8-9.57,28-25.67,1.57-21.5,2.35-43.34,1.22-64.93-1.22-22,4.79-33.07,28.9-38.2C5215.6,1393.36,5244.85,1348.62,5229.7,1292.4Zm-87.38,66.93c-35.42,2.08-19.84-26.37-24.19-43.26,4.87-15-11.06-41.77,21.93-40.47,26.19,1.05,44.21,15.75,43.78,42.91C5183.49,1343.31,5166.43,1357.93,5142.32,1359.33Z"/><path class="cls-1" d="M5765.64,1329.64c18-31.3,32.34-56.06,46.4-81,8.35-14.81,17.93-28.3,37.35-19,22.63,10.82,15,27.8,6.48,44-5.37,10.25-10.18,21-16.94,30.28-38.21,52.48-55.21,110.2-47.12,175.28,1.74,14,0,29-3.33,42.84-3,12.23-13.29,18.69-26.9,15.8-10.88-2.3-18.4-8.19-19-20.3-.23-4.34-1.15-8.77-.54-13,11.79-81.76-13.25-153.4-58.24-220.4-10.66-15.88-25.88-38.65.08-52.19,25.66-13.39,33.9,12.18,43.65,29.39C5738.86,1281.37,5750,1301.54,5765.64,1329.64Z"/></svg>