<?xml version="1.0" encoding="utf-8"?>
<!-- Generator: Adobe Illustrator 27.1.1, SVG Export Plug-In . SVG Version: 6.00 Build 0)  -->
<svg version="1.1" id="Layer_1" xmlns="http://www.w3.org/2000/svg" xmlns:xlink="http://www.w3.org/1999/xlink" x="0px" y="0px"
	 viewBox="0 0 1078 1078" style="enable-background:new 0 0 1078 1078;" xml:space="preserve">
<style type="text/css">
	.st0{fill:#A52B29;}
</style>
<g>
	<polygon class="st0" points="305.1,770.7 310.6,775 311.7,770.3 307.9,767.6 	"/>
	<polygon class="st0" points="336.1,771.9 342.7,770.7 342.3,768.4 338.8,767.6 336.1,769.9 332.6,768 326.8,768 326.1,775 
		331.5,778.1 336.1,775.8 	"/>
	<polygon class="st0" points="342.7,779.6 337.7,780 336.1,780.8 336.1,785.8 334.2,789.3 336.5,789.3 339.2,785.8 342.3,785.4 
		345.8,781.6 346.6,776.5 343.9,775.8 	"/>
	<polygon class="st0" points="353.2,791.2 353.2,793.2 355.9,793.6 355.5,791.2 	"/>
	<polygon class="st0" points="294.3,776.1 297,773 291.6,772.7 	"/>
	<polygon class="st0" points="278.4,788.9 285,788.5 278,784.3 	"/>
	<polygon class="st0" points="194.4,524.9 197.5,525.6 197.5,523.7 189.8,516 189.4,508.6 185.5,511.3 186.7,517.5 187.8,521.8 	"/>
	<polygon class="st0" points="211.8,771.1 209.9,774.2 213.4,778.5 218.4,778.1 218.4,774.2 215.7,771.5 	"/>
	<polygon class="st0" points="184.3,665.8 179.7,663.5 181.2,668.1 	"/>
	<polygon class="st0" points="226.5,771.9 221.5,772.3 221.9,778.1 226.2,775.8 	"/>
	<polygon class="st0" points="254.8,424.2 250.9,432.3 254.8,435 264.9,435.4 270.7,443.9 274.2,452.1 277.3,455.2 285.4,454.8 
		290.8,459.4 293.5,455.2 293.9,452.5 287,447.8 278.8,440.5 278.8,434.3 276.5,430 267.6,430 260.2,423 260.2,418.4 	"/>
	<polygon class="st0" points="178.5,643.7 181.6,639.1 177,639.1 	"/>
	<polygon class="st0" points="222.7,780.8 222.3,782.3 225.8,783.1 227.3,785.4 230.4,783.1 231.6,785.1 236.6,784.7 235.8,780.4 	
		"/>
	<polygon class="st0" points="407,745.2 407,748.3 413.9,747.9 412.4,745.6 	"/>
	<polygon class="st0" points="278.8,773.4 272.6,769.2 272.6,760.7 267.6,759.1 251.7,761.4 240.9,766.9 240.5,774.2 247.8,776.9 
		253.7,773.4 260.2,773 278.4,778.5 	"/>
	<polygon class="st0" points="284.6,563.6 280.4,565.5 276.9,564 271.1,564.4 268.4,567.8 272.6,575.6 276.5,577.1 284.6,584.1 
		293.9,584.9 298.6,577.1 299,573.6 295.9,566.3 289.7,563.2 	"/>
	<polygon class="st0" points="877.8,783.9 882.4,783.9 882.8,778.1 878.2,779.6 	"/>
	<polygon class="st0" points="866.6,810.2 866.6,810.2 866.9,809.4 	"/>
	<polygon class="st0" points="862.3,776.1 863.1,773 853.8,763.4 848.7,763 848,767.6 847.6,772.3 855.7,780.8 851.5,786.2 
		853,794.7 856.1,796.3 857.6,791.6 860.7,790.5 860.7,784.7 858.8,782.7 859.2,775.8 	"/>
	<polygon class="st0" points="896,812.5 890.9,799.4 873.5,782.3 864.2,784.3 865,793.2 862.7,798.2 866.9,799 869.3,797.1 
		871.6,800.5 869.7,802.1 864.2,801.7 870.8,806.7 877,809.1 878.9,812.2 878.9,816 871.6,819.9 872,823.4 887.8,840.4 891.3,840 
		890.6,831.9 884,831.1 879.7,820.3 882,820.3 894,829.6 899.1,838.5 904.5,838.5 903.3,818.7 	"/>
	<polygon class="st0" points="866.6,810.2 865,814.5 866.6,817.6 870.8,818 874.7,810.6 	"/>
	<polygon class="st0" points="391.5,477.6 388,477.2 384.9,480.3 391.5,482.3 	"/>
	<polygon class="st0" points="329.2,401 325.3,401 325.7,405.2 329.5,405.2 	"/>
	<polygon class="st0" points="937,789.3 939,784.7 936.2,782 929.7,782.3 920,774.6 913.4,774.6 905.7,769.2 899.8,769.2 897.9,763 
		892.5,761.8 891.7,756 887.8,754.1 888.2,747.5 868.5,718.8 861.5,713 861.5,708.4 844.9,694.8 842.2,690.6 836,682.8 828.6,680.5 
		828.6,672 824,667 817.4,664.2 809.3,669.3 803.1,677.4 801.5,686.7 795.7,687.1 786,697.5 782.9,696.4 782.9,686.7 773.6,678.2 
		764.7,670.4 762.8,662.7 753.1,657.7 753.9,649.2 743,648.8 740.3,653 735.7,653 733,650.3 728.3,653.4 721.4,648.8 721.4,316.6 
		694.6,300.7 687.7,298.8 679.2,303 670.6,303.4 661.7,297.2 645.1,294.9 622.6,280.9 600.6,279.4 592.8,281.3 592,274.4 
		585.1,271.7 589.3,267.8 588.6,264.3 576.2,260 566.9,260 565.3,261.6 561.8,259.3 562.2,249.2 559.1,245.7 549.5,256.9 
		546.4,256.6 546.4,253.5 552.9,250.4 552.9,247.3 545.6,238 541.3,237.6 523.9,249.6 508.8,249.6 510.3,246.1 503.4,245.7 
		483.2,258.9 476.3,258.9 474,255.8 463.5,261.6 449.6,275.9 438.7,286.4 432.9,291 422.8,291.4 414.3,289.8 405.4,284.8 
		394.6,299.9 394.2,309.2 404.3,318.5 412.4,335.9 413.2,356.4 424.4,364.2 437.6,365.7 440.3,368.8 434.5,377.7 437.2,388.2 
		430.6,378.1 430.6,368.8 424.8,367.7 425.2,372.3 427.9,380.4 439.1,394.8 433.7,394.8 425.2,399 401.2,389.4 400.8,381.6 
		406.2,376.6 406.2,371.2 398.1,369.2 389.2,370 370.6,370.8 376.4,379.7 369,372.7 336.5,377.3 333.4,383.2 352.4,401.4 
		349.3,406.8 348.1,414.5 345.4,417.6 345,425 362.1,438.9 377.9,439.7 395.7,447 403.5,447 406.6,444.7 421.3,445.1 421.7,442 
		426.3,446.3 426.7,454 417,453.6 417.4,466.4 419.4,478.8 408.1,489.2 400.8,488.9 393,485.8 389.2,486.1 377.2,494.3 370.6,495.1 
		365.2,484.2 353.2,484.2 344.6,492 342.7,498.9 329.9,505.9 309.4,522.5 308.2,534.5 311,543.1 314.8,547.7 318.7,546.2 322.2,550 
		319.1,552.4 313.3,555.8 317.5,561.6 307.5,565.9 310.6,574.4 317.1,583.3 320.2,599.2 335.7,605 345.8,601.9 352.4,597.7 
		354.3,605.8 355.5,622.8 348.1,628.2 348.1,645.3 345.8,648.8 339.2,648.8 345.8,653.4 353.9,653 355.5,649.2 373.3,646.8 
		381,656.9 386.1,654.2 391.1,673.9 395,675.9 398.8,673.2 399.2,663.9 402.7,660 405.4,664.2 406.2,670.4 412.4,672 430.6,667.3 
		431.4,672 423.6,676.3 417.4,682.8 406.6,709.9 389.9,717.7 384.5,723.5 383.4,728.9 379.5,726.6 343.5,739.4 336.5,755.2 
		331.5,753.7 333.4,749.4 327.6,744 314,743.2 293.5,755.6 285,760.7 276.1,760.7 274.2,769.9 280.8,769.6 279.2,764.1 283.9,764.9 
		284.2,770.3 291.2,770.3 292.8,760.7 293.9,769.9 303.6,769.6 316,756.8 319.1,757.2 316.4,762.2 321.8,765.7 338.1,764.9 
		348.1,760.3 353.5,759.9 354.7,765.7 357,763.8 358.6,758.3 381.4,759.1 388.8,752.9 383.7,748.7 386.1,744 396.1,744.8 
		395.4,740.1 405,740.9 407.7,736.7 412,737.4 429.8,730.1 430.6,723.5 452.3,714.2 460,706.8 464.7,704.5 469.7,707.6 478.6,704.1 
		482.9,696.8 484.8,691.7 491.4,688.3 497.2,685.5 498.7,680.1 494.5,673.5 486,672.8 485.2,667.7 488.3,661.5 493.7,660.8 
		498.7,655 506.1,654.6 519.3,642.2 520.8,636.8 526.6,627.9 541.3,612 551,608.5 558.4,605 566.5,608.1 571.9,618.2 566.1,618.2 
		560.7,612.4 549.1,620.1 542.5,620.5 541.7,632.5 529.7,651.5 532,659.2 540.9,659.2 538.6,663.1 533.2,663.5 523.9,670.4 
		523.9,673.9 531.3,677.8 544.4,675.5 549.8,668.9 555.3,669.3 566.9,662.7 568.8,653.8 575,653.4 599.4,656.5 603.3,652.2 
		607.1,634.8 600.9,639.1 603.3,630.6 597.1,625.1 600.2,619.3 600.6,625.1 613.7,625.1 616.4,621.3 622.6,620.9 621.5,627.5 
		628.8,627.9 621.5,632.9 637.3,637.2 623.8,638.7 618.8,643.3 622.2,648.8 640.1,642.2 649,648.8 651.7,645.3 654,650.7 
		669.5,659.6 680.7,659.6 695.8,657.7 712.5,661.9 720.2,669.3 737.6,670.8 744.6,665 747.7,674.3 740.7,677 745.4,681.7 774,696.4 
		779.4,706.1 800.3,721.9 813.1,714.2 810.8,705.7 797.2,697.9 809.3,702.6 811.2,699.9 814.7,704.9 814.7,715.4 822.8,713 
		830.9,720 821.3,682.1 825.9,687.1 831.3,710.3 839.8,720 849.1,718.5 856.1,732 859.6,732 861.9,753.7 875.1,755.6 881.3,764.1 
		888.2,768.4 889.8,779.2 882.8,789.3 894,795.5 898.7,786.2 897.9,798.2 894.8,801.7 900.2,808.3 902.9,799 902.2,794.3 
		905.3,795.1 907.6,804 903.7,809.4 906,819.5 908,821.1 909.1,814.9 911.9,817.2 910.7,824.9 915.3,825.7 913.8,829.2 920.4,828.8 
		920.4,824.9 916.5,824.9 916.9,818.3 913.8,816 920.4,814.9 922.3,811.8 922.3,805.6 924.2,810.6 921.9,817.6 926.6,832.7 
		933.5,833.1 942,816.8 942.4,809.4 937.4,794 	"/>
	<polygon class="st0" points="846.8,720.4 837.5,720.8 833.3,713.8 832.5,716.5 836,722.3 837.9,736.7 843.7,744 843.7,748.3 
		841.4,751 841.8,756 843.7,761.4 851.5,754.1 851.5,751.4 856.1,748.3 856.1,743.2 848.4,730.8 850.7,728.5 	"/>
	<polygon class="st0" points="884.7,770.7 871.6,758.3 861.9,757.9 854.6,757.2 853.8,760.7 863.8,771.5 864.2,778.1 869.3,777.3 
		872.4,777.7 873.1,773 869.3,768 870.4,765.3 875.1,771.5 875.5,774.2 879.7,775 884,772.7 	"/>
	<polygon class="st0" points="507.6,722.3 509.6,717.3 506.1,716.9 498.3,720.8 498.3,716.1 487.9,713.8 478.6,715 477.8,728.1 
		474.7,720.4 468.9,720 465,722.3 460,731.2 465.8,753.7 474,753.7 483.2,744 484.4,748.7 508.8,733.2 511.5,729.3 507.6,725 	"/>
	<polygon class="st0" points="462.3,756.4 460,755.2 451.9,760.3 451.5,763 458.5,761 462.3,758.7 463.9,761 472.4,761.8 
		467.4,757.2 	"/>
	<polygon class="st0" points="511.1,700.6 511.1,697.5 512.7,695.2 512.7,693.7 506.9,692.5 494.1,706.5 491.4,707.2 491.4,709.5 
		498.3,714.2 499.1,708.8 501.4,712.3 515,712.6 517.7,710.3 518.5,703.4 516.5,700.6 	"/>
	<polygon class="st0" points="598.2,658.8 598.2,665 606.4,661.9 609.5,654.6 618,645.3 613.7,643 	"/>
	<polygon class="st0" points="431.4,775.8 427.1,778.9 432.9,784.3 436,781.6 435.6,776.5 	"/>
	<polygon class="st0" points="844.5,769.2 837.1,752.5 837.9,749.4 832.9,749.8 826.3,745.2 823.2,747.5 822.8,744 820.5,739 
		824.7,739.8 833.3,745.6 836.7,745.6 834.8,737.8 827.8,737.8 823.6,732.8 829,735.5 832.1,735.5 834,733.6 833.6,727.7 
		817.8,719.2 815.1,721.2 808.9,721.2 805.4,722.7 804.6,732.4 809.3,737 814.3,745.9 820.5,752.1 820.1,764.9 825.5,761 
		825.5,759.1 824.4,754.9 827.1,754.9 829.4,761.4 830.2,771.9 836.4,778.1 838.3,783.9 842.9,791.6 846,790.5 844.5,782.3 	"/>
	<polygon class="st0" points="351.6,784.7 351.6,778.9 347.7,782.7 347.7,784.7 350.4,788.9 354.3,785.1 	"/>
	<polygon class="st0" points="202.5,775.8 201.4,778.1 199.4,773.4 196,773.4 190.9,771.5 182.8,784.7 164.6,786.6 168.9,792 
		176.6,792 180.9,789.3 184.7,791.2 194,791.6 210.3,784.3 210.3,782.3 206,776.5 	"/>
	<polygon class="st0" points="170.8,780.8 168.1,778.1 158.8,778.1 154.9,782 145.2,783.1 144.1,787.4 135.6,790.9 149.9,791.2 
		159.6,786.2 166.9,785.4 	"/>
</g>
</svg>
