<svg id="Layer_1" data-name="Layer 1" xmlns="http://www.w3.org/2000/svg" viewBox="0 0 917.6 582.9"><defs><style>.cls-1{fill:#a62b2a;}.cls-2{fill:none;stroke:#b0b0b0;stroke-width:2px;}</style></defs><polygon class="cls-1" points="631.74 462.14 632.47 461.74 632.84 455.13 632.22 454.31 630.55 453.63 627.7 450.43 628.36 446.61 676.81 441.55 676.44 440.4 674.95 438.91 674.34 437.19 674.93 430.92 672.52 425.18 673.06 422.36 673.37 418.57 675.51 414.86 675.42 414.37 673.65 413.33 673.65 410 671.92 408.12 668.98 401.9 656.25 356.7 612.41 360.54 613.15 361.68 613.15 361.92 611.85 428.86 616.2 461.71 616.4 461.6 617.7 461.7 618.3 462.1 619.1 462 621.1 458.2 621.1 455.9 622.2 454.8 623.6 455.3 627 461.7 627 462.6 623.7 464.8 627.2 464.4 632.1 462.8 632.1 462.8 631.74 462.14"/><polygon class="cls-1" points="43.8 564.9 45.2 566 45.5 564.8 44.5 564.1 43.8 564.9"/><polygon class="cls-1" points="51.8 565.2 53.5 564.9 53.4 564.3 52.5 564.1 51.8 564.7 50.9 564.2 49.4 564.2 49.2 566 50.6 566.8 51.8 566.2 51.8 565.2"/><polygon class="cls-1" points="53.5 567.2 52.2 567.3 51.8 567.5 51.8 568.8 51.3 569.7 51.9 569.7 52.6 568.8 53.4 568.7 54.3 567.7 54.5 566.4 53.8 566.2 53.5 567.2"/><polygon class="cls-1" points="56.2 570.2 56.2 570.7 56.9 570.8 56.8 570.2 56.2 570.2"/><polygon class="cls-1" points="41 566.3 41.7 565.5 40.3 565.4 41 566.3"/><polygon class="cls-1" points="36.9 569.6 38.6 569.5 36.8 568.4 36.9 569.6"/><polygon class="cls-1" points="15.2 501.4 16 501.6 16 501.1 14 499.1 13.9 497.2 12.9 497.9 13.2 499.5 13.5 500.6 15.2 501.4"/><polygon class="cls-1" points="19.7 565 19.2 565.8 20.1 566.9 21.4 566.8 21.4 565.8 20.7 565.1 19.7 565"/><polygon class="cls-1" points="12.6 537.8 11.4 537.2 11.8 538.4 12.6 537.8"/><polygon class="cls-1" points="23.5 565.2 22.2 565.3 22.3 566.8 23.4 566.2 23.5 565.2"/><polygon class="cls-1" points="30.8 475.4 29.8 477.5 30.8 478.2 33.4 478.3 34.9 480.5 35.8 482.6 36.6 483.4 38.7 483.3 40.1 484.5 40.8 483.4 40.9 482.7 39.1 481.5 37 479.6 37 478 36.4 476.9 34.1 476.9 32.2 475.1 32.2 473.9 30.8 475.4"/><polygon class="cls-1" points="11.1 532.1 11.9 530.9 10.7 530.9 11.1 532.1"/><polygon class="cls-1" points="22.5 567.5 22.4 567.9 23.3 568.1 23.7 568.7 24.5 568.1 24.8 568.6 26.1 568.5 25.9 567.4 22.5 567.5"/><polygon class="cls-1" points="70.1 558.3 70.1 559.1 71.9 559 71.5 558.4 70.1 558.3"/><polygon class="cls-1" points="37 565.6 35.4 564.5 35.4 562.3 34.1 561.9 30 562.5 27.2 563.9 27.1 565.8 29 566.5 30.5 565.6 32.2 565.5 36.9 566.9 37 565.6"/><polygon class="cls-1" points="38.5 511.4 37.4 511.9 36.5 511.5 35 511.6 34.3 512.5 35.4 514.5 36.4 514.9 38.5 516.7 40.9 516.9 42.1 514.9 42.2 514 41.4 512.1 39.8 511.3 38.5 511.4"/><polygon class="cls-1" points="191.7 568.3 192.9 568.3 193 566.8 191.8 567.2 191.7 568.3"/><polygon class="cls-1" points="188.8 575.1 188.82 575.1 188.9 574.9 188.8 575.1"/><polygon class="cls-1" points="187.7 566.3 187.9 565.5 185.5 563 184.2 562.9 184 564.1 183.9 565.3 186 567.5 184.9 568.9 185.3 571.1 186.1 571.5 186.5 570.3 187.3 570 187.3 568.5 186.8 568 186.9 566.2 187.7 566.3"/><polygon class="cls-1" points="196.4 575.7 195.1 572.3 190.6 567.9 188.2 568.4 188.4 570.7 187.8 572 188.9 572.2 189.5 571.7 190.1 572.6 189.6 573 188.2 572.9 189.9 574.2 191.5 574.8 192 575.6 192 576.6 190.1 577.6 190.2 578.5 194.3 582.9 195.2 582.8 195 580.7 193.3 580.5 192.2 577.7 192.8 577.7 195.9 580.1 197.2 582.4 198.6 582.4 198.3 577.3 196.4 575.7"/><polygon class="cls-1" points="188.82 575.1 188.4 576.2 188.8 577 189.9 577.1 190.9 575.2 188.82 575.1"/><polygon class="cls-1" points="66.1 489.2 65.2 489.1 64.4 489.9 66.1 490.4 66.1 489.2"/><polygon class="cls-1" points="50 469.4 49 469.4 49.1 470.5 50.1 470.5 50 469.4"/><polygon class="cls-1" points="207 569.7 207.5 568.5 206.8 567.8 205.1 567.9 202.6 565.9 200.9 565.9 198.9 564.5 197.4 564.5 196.9 562.9 195.5 562.6 195.3 561.1 194.3 560.6 194.4 558.9 189.3 551.5 187.5 550 187.5 548.8 183.2 545.3 182.5 544.2 180.9 542.2 179 541.6 179 539.4 177.8 538.1 176.1 537.4 174 538.7 172.4 540.8 172 543.2 170.5 543.3 168 546 167.2 545.7 167.2 543.2 164.8 541 162.5 539 162 537 159.5 535.7 159.7 533.5 156.9 533.4 156.2 534.5 155 534.5 154.3 533.8 153.1 534.6 151.3 533.4 151.3 447.6 144.4 443.5 142.6 443 140.4 444.1 138.2 444.2 135.9 442.6 131.6 442 125.8 438.4 120.1 438 118.1 438.5 117.9 436.7 116.1 436 117.2 435 117 434.1 113.8 433 111.4 433 111 433.4 110.1 432.8 110.2 430.2 109.4 429.3 106.9 432.2 106.1 432.1 106.1 431.3 107.8 430.5 107.8 429.7 105.9 427.3 104.8 427.2 100.3 430.3 96.4 430.3 96.8 429.4 95 429.3 89.8 432.7 88 432.7 87.4 431.9 84.7 433.4 81.1 437.1 78.3 439.8 76.8 441 74.2 441.1 72 440.7 69.7 439.4 66.9 443.3 66.8 445.7 69.4 448.1 71.5 452.6 71.7 457.9 74.6 459.9 78 460.3 78.7 461.1 77.2 463.4 77.9 466.1 76.2 463.5 76.2 461.1 74.7 460.8 74.8 462 75.5 464.1 78.4 467.8 77 467.8 74.8 468.9 68.6 466.4 68.5 464.4 69.9 463.1 69.9 461.7 67.8 461.2 65.5 461.4 60.7 461.6 62.2 463.9 60.3 462.1 51.9 463.3 51.1 464.8 56 469.5 55.2 470.9 54.9 472.9 54.2 473.7 54.1 475.6 58.5 479.2 62.6 479.4 67.2 481.3 69.2 481.3 70 480.7 73.8 480.8 73.9 480 75.1 481.1 75.2 483.1 72.7 483 72.8 486.3 73.3 489.5 70.4 492.2 68.5 492.1 66.5 491.3 65.5 491.4 62.4 493.5 60.7 493.7 59.3 490.9 56.2 490.9 54 492.9 53.5 494.7 50.2 496.5 44.9 500.8 44.6 503.9 45.3 506.1 46.3 507.3 47.3 506.9 48.2 507.9 47.4 508.5 45.9 509.4 47 510.9 44.4 512 45.2 514.2 46.9 516.5 47.7 520.6 51.7 522.1 54.3 521.3 56 520.2 56.5 522.3 56.8 526.7 54.9 528.1 54.9 532.5 54.3 533.4 52.6 533.4 54.3 534.6 56.4 534.5 56.8 533.5 61.4 532.9 63.4 535.5 64.7 534.8 66 539.9 67 540.4 68 539.7 68.1 537.3 69 536.3 69.7 537.4 69.9 539 71.5 539.4 76.2 538.2 76.4 539.4 74.4 540.5 72.8 542.2 70 549.2 65.7 551.2 64.3 552.7 64 554.1 63 553.5 53.7 556.8 51.9 560.9 50.6 560.5 51.1 559.4 49.6 558 46.1 557.8 40.8 561 38.6 562.3 36.3 562.3 35.8 564.7 37.5 564.6 37.1 563.2 38.3 563.4 38.4 564.8 40.2 564.8 40.6 562.3 40.9 564.7 43.4 564.6 46.6 561.3 47.4 561.4 46.7 562.7 48.1 563.6 52.3 563.4 54.9 562.2 56.3 562.1 56.6 563.6 57.2 563.1 57.6 561.7 63.5 561.9 65.4 560.3 64.1 559.2 64.7 558 67.3 558.2 67.1 557 69.6 557.2 70.3 556.1 71.4 556.3 76 554.4 76.2 552.7 81.8 550.3 83.8 548.4 85 547.8 86.3 548.6 88.6 547.7 89.7 545.8 90.2 544.5 91.9 543.6 93.4 542.9 93.8 541.5 92.7 539.8 90.5 539.6 90.3 538.3 91.1 536.7 92.5 536.5 93.8 535 95.7 534.9 99.1 531.7 99.5 530.3 101 528 104.8 523.9 107.3 523 109.2 522.1 111.3 522.9 112.7 525.5 111.2 525.5 109.8 524 106.8 526 105.1 526.1 104.9 529.2 101.8 534.1 102.4 536.1 104.7 536.1 104.1 537.1 102.7 537.2 100.3 539 100.3 539.9 102.2 540.9 105.6 540.3 107 538.6 108.4 538.7 111.4 537 111.9 534.7 113.5 534.6 119.8 535.4 120.8 534.3 121.8 529.8 120.2 530.9 120.8 528.7 119.2 527.3 120 525.8 120.1 527.3 123.5 527.3 124.2 526.3 125.8 526.2 125.5 527.9 127.4 528 125.5 529.3 129.6 530.4 126.1 530.8 124.8 532 125.7 533.4 130.3 531.7 132.6 533.4 133.3 532.5 133.9 533.9 137.9 536.2 140.8 536.2 144.7 535.7 149 536.8 151 538.7 155.5 539.1 157.3 537.6 158.1 540 156.3 540.7 157.5 541.9 164.9 545.7 166.3 548.2 171.7 552.3 175 550.3 174.4 548.1 170.9 546.1 174 547.3 174.5 546.6 175.4 547.9 175.4 550.6 177.5 550 179.6 551.8 177.1 542 178.3 543.3 179.7 549.3 181.9 551.8 184.3 551.4 186.1 554.9 187 554.9 187.6 560.5 191 561 192.6 563.2 194.4 564.3 194.8 567.1 193 569.7 195.9 571.3 197.1 568.9 196.9 572 196.1 572.9 197.5 574.6 198.2 572.2 198 571 198.8 571.2 199.4 573.5 198.4 574.9 199 577.5 199.5 577.9 199.8 576.3 200.5 576.9 200.2 578.9 201.4 579.1 201 580 202.7 579.9 202.7 578.9 201.7 578.9 201.8 577.2 201 576.6 202.7 576.3 203.2 575.5 203.2 573.9 203.7 575.2 203.1 577 204.3 580.9 206.1 581 208.3 576.8 208.4 574.9 207.1 570.9 207 569.7"/><polygon class="cls-1" points="183.7 551.9 181.3 552 180.2 550.2 180 550.9 180.9 552.4 181.4 556.1 182.9 558 182.9 559.1 182.3 559.8 182.4 561.1 182.9 562.5 184.9 560.6 184.9 559.9 186.1 559.1 186.1 557.8 184.1 554.6 184.7 554 183.7 551.9"/><polygon class="cls-1" points="193.5 564.9 190.1 561.7 187.6 561.6 185.7 561.4 185.5 562.3 188.1 565.1 188.2 566.8 189.5 566.6 190.3 566.7 190.5 565.5 189.5 564.2 189.8 563.5 191 565.1 191.1 565.8 192.2 566 193.3 565.4 193.5 564.9"/><polygon class="cls-1" points="96.1 552.4 96.6 551.1 95.7 551 93.7 552 93.7 550.8 91 550.2 88.6 550.5 88.4 553.9 87.6 551.9 86.1 551.8 85.1 552.4 83.8 554.7 85.3 560.5 87.4 560.5 89.8 558 90.1 559.2 96.4 555.2 97.1 554.2 96.1 553.1 96.1 552.4"/><polygon class="cls-1" points="84.4 561.2 83.8 560.9 81.7 562.2 81.6 562.9 83.4 562.4 84.4 561.8 84.8 562.4 87 562.6 85.7 561.4 84.4 561.2"/><polygon class="cls-1" points="97 546.8 97 546 97.4 545.4 97.4 545 95.9 544.7 92.6 548.3 91.9 548.5 91.9 549.1 93.7 550.3 93.9 548.9 94.5 549.8 98 549.9 98.7 549.3 98.9 547.5 98.4 546.8 97 546.8"/><polygon class="cls-1" points="119.5 536 119.5 537.6 121.6 536.8 122.4 534.9 124.6 532.5 123.5 531.9 119.5 536"/><polygon class="cls-1" points="76.4 566.2 75.3 567 76.8 568.4 77.6 567.7 77.5 566.4 76.4 566.2"/><polygon class="cls-1" points="183.1 564.5 181.2 560.2 181.4 559.4 180.1 559.5 178.4 558.3 177.6 558.9 177.5 558 176.9 556.7 178 556.9 180.2 558.4 181.1 558.4 180.6 556.4 178.8 556.4 177.7 555.1 179.1 555.8 179.9 555.8 180.4 555.3 180.3 553.8 176.2 551.6 175.5 552.1 173.9 552.1 173 552.5 172.8 555 174 556.2 175.3 558.5 176.9 560.1 176.8 563.4 178.2 562.4 178.2 561.9 177.9 560.8 178.6 560.8 179.2 562.5 179.4 565.2 181 566.8 181.5 568.3 182.7 570.3 183.5 570 183.1 567.9 183.1 564.5"/><polygon class="cls-1" points="55.8 568.5 55.8 567 54.8 568 54.8 568.5 55.5 569.6 56.5 568.6 55.8 568.5"/><polygon class="cls-1" points="17.3 566.2 17 566.8 16.5 565.6 15.6 565.6 14.3 565.1 12.2 568.5 7.5 569 8.6 570.4 10.6 570.4 11.7 569.7 12.7 570.2 15.1 570.3 19.3 568.4 19.3 567.9 18.2 566.4 17.3 566.2"/><polygon class="cls-1" points="9.1 567.5 8.4 566.8 6 566.8 5 567.8 2.5 568.1 2.2 569.2 0 570.1 3.7 570.2 6.2 568.9 8.1 568.7 9.1 567.5"/><polygon class="cls-1" points="203.89 300.54 158.4 292.47 155.1 309.43 152.35 312.75 149.51 312.75 148.24 309.89 145.03 308.67 142.31 309.14 141.35 322.09 141.86 327.03 141.28 330.22 139.88 333.21 139.11 335.02 140.26 338.03 141.7 339.88 142.89 345.64 145.19 348.14 145.72 350.64 144.01 352.35 139.29 354.02 137.1 357.3 135.5 364.32 132.82 367.88 131.46 368.14 130.49 374.22 131.22 375.29 133.04 375.5 134.42 377.7 133.44 380.66 130.03 383.16 127.57 383.05 127.6 382.3 125.6 384.1 125.1 387 189.3 424.5 225.86 429.79 243.15 306.43 203.89 300.54"/><polygon class="cls-1" points="573.82 361.24 574.89 358.62 576.07 359.11 575.58 358.68 575.88 357.19 574.62 356.17 575.44 354.82 575.39 354.19 573.34 354 575.69 351.65 576.59 352.21 576.62 352.05 576.23 350.98 576.48 349.23 578.03 349.7 577.85 349.02 579.23 347.9 578.32 347.99 577.14 346.2 578.65 344.69 580.15 344.5 580.65 343.71 581.52 343.58 580.75 342.81 580.75 341.25 582.04 341.25 581.31 340.73 581.27 340.5 569.38 341.35 573 334.84 574.45 333.56 574.45 331.92 573.2 329.97 533.84 331.95 495.58 332.63 499.55 356.25 499.55 356.31 498.86 394.97 500.83 396.71 503.43 395.51 507.44 396.51 507.64 408.23 558.83 406.96 559.69 405.88 560.11 403.37 558.67 401.07 558.06 398.4 559.05 397.61 557.41 396.54 557.18 395 558.33 394.35 557.57 393.65 559.46 385.77 562.75 384.22 562.75 384.16 561.51 382.58 564.85 376.35 566.94 376.35 567.93 375.56 567.64 370.49 571.02 365.57 572.46 365.09 572.06 362.62 572.8 362.5 572.5 361.81 573.82 361.24"/><polygon class="cls-1" points="59.8 363.8 61.6 365.7 63 365.6 59.6 360.4 59.8 363.8"/><polygon class="cls-1" points="39 332.2 35.7 331.7 36.6 334.4 40.4 334.4 39 332.2"/><polygon class="cls-1" points="49 334 45.9 333.8 41.6 331.6 41.6 334 43.6 335.2 48 335 49 334"/><polygon class="cls-1" points="65.9 355.7 66.6 355.1 65.3 352.6 62.7 350.2 61.5 350.6 63.3 354.7 65.9 355.7"/><polygon class="cls-1" points="129.57 381.64 132.16 379.74 132.78 377.9 132.16 376.9 130.38 376.71 128.91 374.58 130.14 366.86 131.97 366.52 134.1 363.68 135.78 356.58 138.31 352.78 143.19 351.05 144.08 350.16 143.81 348.86 141.51 346.36 140.3 340.52 138.9 338.67 137.49 334.99 138.35 332.98 68.12 228.23 66.92 224.42 66.97 224.21 83.19 161.82 17.8 143.42 18 142.7 17.1 145.2 17 153.6 13 162.8 13.1 164.2 11.4 166.6 4.5 174.1 4.2 179.3 9.7 190.4 9.5 196.8 7.2 200.4 6.4 211.1 12.9 223.9 14 227.8 13.3 233.4 18.7 239.5 19.6 239.6 20.4 238.6 19.9 237.3 21.4 233.5 22.8 233 24.7 236 21.9 237.5 22.9 239.2 22.4 240.3 23.8 243.7 23.8 248.4 20.1 245.2 20.1 242.7 20.9 242 21 240.4 18.5 240.2 18.3 242.3 17.1 246.5 17.1 254 18.6 257.5 21.1 260.8 23.6 260.8 24.6 261.7 25 264.9 23.2 268 20.8 268.8 20.2 275.9 23.1 278.6 25.1 283.6 24.9 286.1 26.5 288.4 26.9 291.4 29.6 295.1 33.6 304.5 35 306.1 33.2 311.2 32.4 316 32.2 318.8 34.7 321.3 37.5 321.6 42.2 323.1 45.3 325.4 49 325.9 51.7 328.1 56.2 334.7 57.7 336.6 60.5 337.9 64.4 338.5 66.6 339.7 67.3 343.4 66.2 345.2 68.2 347.1 71.8 347 78.8 355.6 79.4 357.1 80.6 358.5 82.4 363.3 82.8 371.2 82.6 374.2 83.6 377.2 127.6 382.3 127.63 381.55 129.57 381.64"/><polygon class="cls-1" points="368.85 251.05 368.85 251.05 370.2 229.69 337.85 227.35 337.9 226.6 337.83 227.35 300.33 223.95 256.15 218.34 244.84 305.15 296.69 311.56 348.35 316.35 364.11 317.31 368.85 251.05"/><polygon class="cls-1" points="812.32 223.89 812.99 222.42 812.33 222.18 811.11 222.41 809.87 223.31 808.91 225 816.23 251.12 826.39 248.98 824.4 242.1 823.3 242.6 820 240 819.5 238.3 817.7 237.3 817.5 233.6 815.4 231.4 814.3 230.6 813.1 229.5 812.7 226.3 811.96 226.19 812.32 223.89"/><polygon class="cls-1" points="746.3 408.8 745.39 405.27 743.04 400.75 739 398.57 738.67 395.63 735.26 389.28 730.35 387.02 727.47 383.92 727.37 382.53 725.01 380.17 723.25 379.68 721 377.88 719.91 375.7 718.01 374.32 716.63 374.12 713.72 372.18 709.41 366.94 709.01 365.23 706.27 361.69 703.83 361.98 697.21 357.85 696.93 356 698.52 352.36 700.27 351.44 700.3 350.87 679.8 353.74 679.7 353 679.79 353.75 657.76 356.54 670.4 401.44 673.23 407.37 675.15 409.4 675.15 412.47 676.78 413.43 677.09 415.14 674.83 419.03 674.55 422.56 674.08 425.02 676.47 430.68 675.86 437 676.25 438.09 677.76 439.6 678.49 441.9 681.53 447.42 731.81 444.11 732.5 447.75 733.04 448.35 734.21 448.02 734.62 444.49 733.25 442.43 733.25 439.29 736.17 437.43 738.15 438.48 741.93 439.14 745.4 438.86 744.8 434.5 744.3 432.5 746.6 426.3 747.2 420.3 748.1 419.2 748.1 417.2 746.6 416.7 747.8 416.5 752 410.3 752 408.9 751.1 408.5 751.03 409.25 746.3 408.8"/><polygon class="cls-1" points="305.1 536.7 303.7 536.2 300.2 533.6 298.4 533.3 295.5 534.6 294 531.9 291.9 531.5 290.8 533 290.7 534.7 293.4 537.1 295.3 537.6 295.9 538.6 296.3 541.6 299.9 541.8 305.2 539.2 305.1 536.7"/><polygon class="cls-1" points="291.3 541.6 290.4 543 294.4 543.1 293.8 541.3 291.3 541.6"/><polygon class="cls-1" points="283.4 534.3 285.1 538.3 288.2 537.7 288.5 535.7 287.1 534.2 283.4 534.3"/><polygon class="cls-1" points="218.5 511.5 217.9 513.3 218.9 514.1 220 512.6 221.9 512 222.3 509.4 220.7 509.4 220.4 510.6 218.5 511.5"/><polygon class="cls-1" points="269.7 522.3 268.9 522 268.4 523 267.2 521.7 267.4 520.3 265.6 517 264.5 516.3 263.3 517 261.4 519.1 258.5 519.7 259.3 521.9 261.5 524.7 261.6 525.7 263.7 525.4 266 525.5 267.7 526.7 271.2 525.9 271.2 525.2 270.2 524.4 269.7 522.3"/><polygon class="cls-1" points="290.5 530 290.7 528.5 285.9 528.7 279.3 527.6 278.2 530 283.2 530 288 531.6 290.5 530"/><polygon class="cls-1" points="237.7 505.5 236.7 504.6 231.5 504.6 227.3 507.5 227.5 509.8 229.9 511 231.8 512.3 234.5 512.7 237.1 510.5 236.9 508.6 237.7 506.9 237.7 505.5"/><polygon class="cls-1" points="326.6 562 326.7 560.3 326.2 559.7 324.2 559.7 324.4 557.2 323.7 556 321.1 553.7 316.6 551.8 313.8 551.6 310.5 548.9 309.3 548.3 307.2 548.5 307 551.7 308.7 553.6 308.8 554.8 304 559.3 303.9 560.5 305.8 563.7 307.5 567.9 307.5 570.5 307 571.7 307.1 575.1 311.2 577.2 312.3 578.3 313.5 577.2 315.6 573.6 320.1 570.7 323.4 570.2 325.9 569.2 327.6 568 330.8 564.5 328 563.4 326.6 562"/><polygon class="cls-1" points="165.53 22.47 152.87 78.42 153.57 82.43 152.49 86.63 153.92 89.85 157.5 93.02 158.09 96.83 153.71 101.84 150.4 107.46 148.87 108.82 148.97 110.31 147.07 113.04 144.57 113.84 140.84 119.25 140.68 122.71 143.36 123.82 144.58 126.53 143.6 127.64 143.17 129.74 140.31 135.46 132 171.93 155.66 177.17 178.94 181.86 226.08 189.93 234.34 136.66 233.77 136.59 232.03 132.15 231.19 130.89 230.14 131.25 227.19 134.72 218.03 132.99 215.92 134.2 209.23 132.65 207.4 135.26 204.25 132.11 204.25 127.7 203.91 125.16 201.78 123.86 199.01 120.13 196.44 110.14 196.94 106.92 196.51 104.77 195.2 103.47 192.12 105.52 188.62 107.28 186.8 104.32 185.08 103.7 185.71 98.81 192.75 81.95 192.75 81.25 189.9 81.25 188.5 79.15 187.63 79.15 184.95 75.65 184.95 73.47 181.25 65.6 179.43 64.93 175.46 59.64 177.09 54.76 173.41 47.4 178.27 25.14 164.8 22.3 164.8 22.3 165.53 22.47"/><polygon class="cls-1" points="559.93 198.17 561.89 200.13 561.68 201.77 562.15 202.35 563.36 202.35 566.54 206.32 566.66 209.33 565.17 212.88 564.24 213.99 564.14 216.37 562.17 218.91 557.65 220.85 555.2 220.85 552.72 221.51 551.91 224.75 552.67 225.86 553.68 226.16 554.86 227.99 554.74 232.02 554.08 232.69 552.55 234.84 552.55 237.27 551.24 238.84 548.58 239.73 548.02 240.57 548.56 241.26 548.44 244.13 547.64 244.92 546.38 248.26 547.52 253.37 549.9 259 552.02 260.46 560.76 269 561.58 271.81 561.01 273.62 561.84 275.08 564.86 274.02 568.25 274.84 571.45 276.55 571.45 278.63 570.32 279.66 570.68 281.36 567.87 288.97 568.2 290.93 575.28 297.73 580.17 299.05 583.11 303.55 583.96 305.91 585.77 307.94 585.62 309.9 584.85 310.48 584.85 311.83 586.53 315.37 587.63 316.55 589.22 316.55 588.99 315.23 593.65 310.92 600.78 314.02 601.55 313.87 601.8 312.34 600.11 310.56 600.6 306.51 602.3 305.66 603.16 306.09 603.6 305.22 607.12 304.65 607.12 304.59 605.67 302.46 605.52 300.86 607.75 298.13 607.75 297.67 606.42 294.85 607.86 294.85 607.95 288.35 611.82 282.96 613.13 278.72 614.68 276.98 614.93 275.02 613.99 273.05 614.35 271.98 614.35 271.63 611.95 268.13 611.96 265.76 612.94 260.66 608.85 210.56 609.6 210.5 609.6 210.5 608 207.3 606.8 203.2 603.4 198.6 603.32 194.75 558.64 197.48 559.93 198.17"/><polygon class="cls-1" points="613.45 265.97 613.45 267.67 615.85 271.17 615.81 272.34 615.61 272.95 616.47 274.78 616.12 277.63 614.47 279.48 613.11 283.74 609.45 288.85 609.36 294.86 614.39 294.31 615.12 292.38 616.93 293.5 618.54 293.12 620.59 293.86 623.37 295.57 624.86 293.25 629.03 290.63 631.85 293.73 632.78 292.51 633.1 289.65 638.17 286.58 638.49 288.65 639.89 289.54 642.47 289.36 643.16 288.96 643.26 285.76 645.98 281.76 650.33 277.6 650.24 276.11 651.74 271.37 654.33 272.54 660.25 268.57 660 267.52 658.32 265.16 659.43 263.06 652.86 206.09 653.6 206 653.6 206 652.85 206.05 652.81 205.43 621.18 208.75 621.1 208 621.1 208 619.4 209.6 614.3 211.9 610.37 210.73 614.46 260.74 613.45 265.97"/><polygon class="cls-1" points="462.3 177.48 462.27 178.04 463.58 179.55 463.41 181.38 462.57 181.8 462.73 182.41 463.98 182.79 464.89 185.39 463.11 190.74 462.23 194.54 463.38 195.61 463.72 197.07 464.38 198.67 464.95 199.71 464.95 202.07 465.55 203.9 465.55 205.17 466.79 208.7 469.04 213.1 469.24 216.79 472.04 221.78 472.42 227.64 473.78 228.37 473.56 231.64 474.38 235.03 473.7 237.17 475.2 240.85 500.6 240.95 527.77 239.75 542.34 238.94 544.43 240.53 545.05 242.19 545.95 243.09 546.86 243.58 546.96 243.48 547.04 241.74 546.18 240.63 547.62 238.47 550.36 237.56 551.05 236.73 551.05 234.36 552.97 231.67 553.26 231.38 553.34 228.41 552.72 227.44 551.73 227.14 550.29 225.05 551.48 220.29 555.1 219.35 557.35 219.35 561.23 217.69 562.66 215.83 562.76 213.41 563.95 212.01 565.14 209.07 565.06 206.88 562.64 203.85 561.44 203.85 560.12 202.23 560.31 200.67 558.95 199.31 555.73 197.63 556.52 196.69 555.58 194.66 552.43 193.96 549.49 192.32 547.35 186.42 547.46 183.61 548.96 180.52 548.62 179.9 546.38 178.19 546.21 175.98 528.33 176.65 492.02 177.55 463.8 177.55 463.8 176.8 463.77 177.55 462.3 177.48"/><polygon class="cls-1" points="490.31 272.96 487.6 268.06 484.88 265.34 485.51 262.42 488.18 259.86 488.23 259.21 487.43 258.1 486.84 258.75 484.2 257.96 481.38 255.05 449.3 255.05 405.58 253.85 370.3 251.89 365.6 317.38 432.53 320.25 493.74 320.35 493.26 273.61 490.31 272.96"/><polygon class="cls-1" points="708.45 290.45 707.04 290.45 702.22 284.32 702.3 283.6 701.58 283.17 700.75 282.01 698.59 280.2 699.22 276.45 698.63 275.48 698.73 274.37 697.78 272.7 694.18 271.26 693.23 267.99 690.71 269.33 690.03 271.25 688.79 271.25 687.26 272.07 685.79 271.09 683.15 270.39 681.95 270.9 681.95 272.22 678.64 271.92 676.79 269.88 674.77 270.06 669.95 269.23 669.95 267.82 668 264.8 665.6 263.81 663.84 264.56 661.23 264.4 660.55 264.14 660.08 265.04 661.4 266.88 661.95 269.23 654.47 274.26 652.66 273.43 651.76 276.29 651.87 278.2 647.08 282.79 644.74 286.24 644.64 289.84 642.93 290.84 639.51 291.06 637.11 289.55 637.03 289.02 634.5 290.55 634.22 293.09 631.95 296.07 628.77 292.57 625.94 294.35 623.83 297.63 619.88 295.18 618.46 294.68 616.67 295.1 616.29 294.87 616.62 295.59 615.85 297.34 613.65 296.94 613.48 295.92 610.57 296.24 611.04 297.36 609.82 299.39 609.09 298.86 607.07 301.34 607.13 301.94 608.68 304.21 608.48 305.95 604.6 306.58 603.84 308.11 602.3 307.34 602 307.49 601.69 310.04 603.4 311.86 602.85 315.13 600.62 315.58 593.95 312.68 590.61 315.78 590.78 316.84 592.25 317.74 591.87 319.34 591.11 320.85 592.04 321.79 590.63 326.6 589.28 327.38 588.28 326.74 588 327.48 609.78 326.08 609.96 325.8 608.52 321.95 613.58 321.95 614.25 322.52 636.46 320.56 639.16 319.75 656.56 318.75 661.68 317.96 682.18 316.56 687.61 315.2 694.52 311 695.17 310.74 695.68 308.79 697.71 308.23 698.77 307.17 698.88 305.37 701.02 304.04 701.4 301.94 704.69 298.65 707.54 297.67 711.35 292.54 709.88 292.17 708.45 290.45"/><path class="cls-1" d="M590.7,466l.29-1.29-4.79-6.79,1-5.07,1-1.36,0-.34-36.06,2,1.9-13,2.46-4.9,5.69-8L559.83,424h2.72V421.7l-2.49-2.59.48-1.65-1-.85-1.7-7.58.23-.55-50.38,1.25.48,19.08.64,3.13,2.62,2.83.71,5.42,3.78,4.58.72,3.88h1.14l-.11,8.24-3.2,6.19,1.36,2.41-1.39,1.61.63,2.72-.1,4.6L512.72,478l-.12,1-1.42,1,.62,1.11,1.11,1-.51.55,1.6-1.3,5.3-.9,6.1-.1,9.6,3.8,8,1,1.5-1.4,1.8-.2,4.8,2.2,1.6-.4,1.1-1.5-4.2-1.8-2.2,1-1.1-.2-1.4-2,3.3-2.2,1.6-.1v1.7l1.5-.1,3.4-.3.4,2.3,1.1.4.6,1.9,4.8,1,1.7,1.6v.7h-1.2l-1.5,1.7,1.7,1.2,5.4,1,2.7,2.8,4.4-1-3.7.2-.1-.6,2.8-.7.2-1.8,1.2-.3v-1.4l1.1.1v1.6l2.5.1.8-1.9.9.3.2,2.5,1.2.2-1.8,2,2.6-.9,2-1.1,2.9-3.3h-.7l-1.3,1.2-.4-.1-.5-.8.9-1.2v-2.3l1.1-.8.7.7,1-.8,1-.1.6,1.3-.6,1.9h2.4l5.1,1.7.5,1.3,1.6,1.4,2.8.1,1.3.7,1.8-1,.9-1.7v-1.7h-1.4l-1.2-1.4-1.1-1.1-3.2-.9-2.6.2-4.2-2.4v-2.3l1.3-1,2.4.6-3.1-1.6.2-.8h3.6l2.6-3.5-2.6-1.8.8-1.5-1.2-.8h-.8l-2,2.1v2.1l-.6.7-1.1-.1-1.6-1.4h-1.3v-1.5l.6-.7.8.7,1.7-1.6.7-1.6,0,0-.42-.49Zm-14.8,3.25h-1.2V467l1.6-1.5,1.4.6v1.1Zm13,.7-.9-1.5-1.4,1.2-.9,1.4-2.8.8-1.6.1-3.7-1,.1-1.7,2-2,1.1-2.4,1.6.1,1.9,1,.8,1.1,2.5.1,1.5.8.2,1.4Z"/><polygon class="cls-1" points="894.8 101 894 100.7 892.4 103.1 894.1 104.8 895 105 896 104 896 102.9 895 102.1 894.8 101"/><polygon class="cls-1" points="897.3 98.8 896 98.1 895.6 99.3 895.1 99.8 896 101.1 897 101.6 897.3 100.6 897.3 98.8"/><polygon class="cls-1" points="897.1 102.5 897.6 102.9 897.5 103.9 898.6 103.9 898.6 102.1 898.1 101.4 897.1 102.5"/><polygon class="cls-1" points="901.3 99 899.8 98.8 898.8 99.6 898.8 100.9 899.5 100.1 900.4 100.9 900.8 100.4 901.9 100.6 900.9 99.8 901.3 99"/><polygon class="cls-1" points="917.5 77.5 916.1 75.5 913.1 72.3 911.2 72.3 910.4 74.5 907.5 71.5 907.8 70.7 907.8 69.2 906.2 64.7 905.4 64.5 904.7 64.9 899.9 64.9 899.6 61.3 891.5 35.3 884.2 31.6 881.3 31.5 874.6 38.1 871.9 37.1 870.9 33.2 868.2 33.2 861.3 52.7 862 58.9 860.3 61.3 859.9 65.9 861.2 69.6 862 69.8 862 71.4 860.4 75.9 858.9 77.3 857.6 79.5 857.2 87.3 854.8 86.3 854.03 86.51 865.94 123.39 866.49 127.05 869.62 129 870.41 131.2 872.49 132.46 872.1 133.1 873.5 132.8 874.5 129.8 873.7 126.9 875.3 126 875.8 123.2 875.2 121.9 878.5 120 876.3 117.7 877.2 115.3 878.6 113.1 879.1 116.3 880.7 114.3 882 115.2 883.2 114.4 883.2 112.7 886.4 111.4 886.7 108.5 889.2 108.3 891.9 104.6 891.9 103.9 891 103.4 890.9 100.1 891.5 99 891.7 100.6 892.7 100.1 892.5 96.9 891.6 97.2 891.5 98.4 890.3 97 891.2 95.6 891.8 95.7 892.9 95.3 893.4 98.1 895.4 97.8 898.3 98.5 898.3 97.5 897.2 96.3 898.5 96.4 898.6 94.1 899.2 94.9 899.5 96.8 901.6 98.3 901.8 97.3 902.7 97.1 902.4 96.3 903.2 95.7 903.1 94.1 901.5 93.9 899.5 94.6 901.6 92.2 902.9 92 903.3 93.3 905 94.9 905.4 92.8 907.7 91.6 906.8 90.3 906.9 88.6 908 89.1 908.7 89.1 910.4 87.7 910.8 85.4 913 85.7 913.1 85 913.3 83.4 913.8 84.8 915.3 83.8 917.6 79.7 917.5 77.5"/><polygon class="cls-1" points="893 166.3 891.5 167.8 889.2 167.8 889.3 168.6 890.1 169 893.5 169 894.4 168.4 894.5 167.1 892.6 165.3 893 166.3"/><polygon class="cls-1" points="885.2 167.2 884.1 167 883.5 166.1 882.7 166.3 881.5 167.3 880.9 169.4 879.9 170.2 881.1 170.8 882.2 169.5 885 168.8 886.3 168.5 885.8 166.6 885.2 167.2"/><polygon class="cls-1" points="871.13 138.63 870.14 138.4 868.89 139.21 868.35 140.41 866.56 140.98 866.31 142.38 865.05 144.27 846.36 148.13 846.36 148.13 834.53 150.71 834.06 164.88 834.33 165.26 844.82 162.86 845.15 163.32 845.15 162.8 861.29 159.12 861.38 159.37 867.92 157.35 868.68 160.15 869.47 160.15 870.14 162.58 872.59 163.83 874.01 165.03 875.18 167.54 875.2 167.5 876.3 167.7 877.5 166.6 877.1 165.4 877.4 164.3 878.6 164.3 879.6 163.1 879.7 161.8 880.6 161.9 880.9 163.2 881.4 163.8 880.9 165.7 877.6 169 878.8 169 880.8 167.1 882.8 165 885 163.8 885.1 162.6 886.7 161.6 887.6 161.9 891.1 159.6 891.8 160.6 891.8 162.4 892.8 159.6 891.6 156.3 890.3 153.6 888 151.5 886.2 151.1 884.9 152.2 886.1 153.2 886.5 152.3 887.3 152.3 888.8 155.9 889.1 155 890.3 157.1 889.2 157.4 887.6 158.6 886.8 159.5 884.9 159.6 883 159.6 882 158.9 881.4 156.9 880.6 155.8 878.8 155.7 878.6 153.1 876.1 150.5 874.3 150.5 873.2 149.9 872.9 150.7 872 150.9 871.4 149.9 872.2 149.2 871.3 148 872.6 147.7 872.2 146.9 873.1 145.9 872.9 145.1 875.9 142.7 875.9 141.6 875.1 140.3 874 141.6 873 141.2 871.3 137.9 871.3 137.9 871.13 138.63"/><polygon class="cls-1" points="610.35 428.94 610.35 428.88 611.65 362.12 610.71 360.68 573.67 363.19 574.14 366.11 571.98 366.83 569.16 370.91 569.47 376.24 567.46 377.85 565.75 377.85 563.29 382.42 564.25 383.64 564.25 385.18 560.75 386.83 559.23 393.14 560.87 394.65 558.92 395.74 560.55 396.79 560.55 398.37 559.74 399 560.1 400.6 561.69 403.04 561.11 406.52 559.85 408.09 559.39 409.17 560.88 415.79 562.26 416.94 561.74 418.69 564.05 421.1 564.05 425.45 562.76 425.45 564.02 427.2 557.75 435.99 555.43 440.63 553.87 451.5 589.81 449.5 589.63 451.96 588.61 453.4 587.8 457.53 592.61 464.34 592.3 465.65 593.32 467.18 593.87 467.81 593.3 468.3 594 468.4 596.6 465.7 597.2 465.6 597.3 464 597.8 463.8 598.7 464.5 606.6 462 609 463.5 614 463.4 615.5 462.1 614.76 462.2 610.35 428.94"/><polygon class="cls-1" points="543.75 243.02 543.17 241.47 541.87 240.46 527.84 241.25 500.63 242.45 476.52 242.36 476.82 242.66 476.49 244.18 478.45 247.63 482.3 253.84 485 256.64 486.36 257.05 487.57 255.7 489.77 258.79 489.62 260.54 486.88 263.18 486.52 264.86 488.86 267.24 491.29 271.64 494.74 272.39 495.25 321.09 495.25 321.09 495.44 331.14 533.79 330.45 574 328.43 575.95 331.48 575.95 334.24 574.1 335.88 572.02 339.65 581.42 338.98 582.35 337.12 583.25 336.74 582.26 335.79 580.87 333.48 583.69 333.81 582.07 332.08 584.1 331.35 584.13 331.07 583.55 330.11 583.55 328.91 582.79 328.15 583.18 326.15 585.21 326.15 586.44 327.38 587.52 324.46 589.32 325.62 589.37 325.6 590.36 322.22 589.29 321.15 590.49 318.75 590.55 318.46 589.89 318.05 586.97 318.05 585.22 316.12 583.35 312.17 583.35 309.73 584.18 309.1 584.23 308.46 582.64 306.69 581.72 304.14 579.23 300.35 574.52 299.07 566.8 291.67 566.33 288.83 569.12 281.24 568.68 279.14 569.95 277.97 569.95 277.45 567.63 276.21 564.94 275.58 561.16 276.92 559.39 273.79 560.01 271.79 559.43 269.8 551.02 261.58 548.7 260 546.07 253.76 544.82 248.14 546.07 244.84 544.97 244.23 543.75 243.02"/><polygon class="cls-1" points="179.73 25.46 174.99 47.2 178.71 54.64 177.14 59.36 180.37 63.67 182.35 64.4 186.45 73.13 186.45 75.15 188.37 77.65 189.3 77.65 190.7 79.75 194.25 79.75 194.25 82.25 187.13 99.29 186.72 102.7 187.8 103.08 189.18 105.32 191.37 104.23 195.4 101.53 197.89 104.03 198.46 106.88 197.97 110.06 200.39 119.47 202.81 122.74 205.3 124.25 205.74 127.6 205.75 131.49 207.2 132.94 208.57 130.96 215.68 132.6 217.77 131.41 226.61 133.08 229.26 129.96 231.81 129.11 233.4 131.53 234.67 134.78 236.59 124.46 294.6 132.46 344.83 137.68 346.75 117.73 346.75 117.73 351.95 51.04 352.7 51.1 352.7 51.1 299.2 45.5 244.9 37.8 179 25.3 179 25.3 179.73 25.46"/><polygon class="cls-1" points="449.32 253.55 480.35 253.55 477.16 248.4 474.91 244.42 475.18 243.14 474.17 242.13 474.7 241.6 474.01 241.88 472.1 237.23 472.82 234.97 472.04 231.76 472.22 229.23 470.98 228.56 470.56 222.22 467.76 217.21 467.56 213.5 465.39 209.25 464.05 205.3 464.05 204.03 463.45 202.2 463.45 200.09 463.29 199.81 462.11 199.97 459.81 199.07 458.84 196.29 457.87 195.24 451.68 193.01 451.09 191.93 449.64 191.5 448.18 192.13 447.18 191.63 446.26 192.04 445.56 191.64 444.61 192.06 444 191.62 443.1 192.25 441.71 191.69 440.05 193.53 437.62 193.67 435.46 191.62 433.77 191.42 430.39 188.24 392.67 186.65 342.29 183.2 338.71 225.91 371.8 228.31 370.4 250.39 405.64 252.35 449.32 253.55"/><polygon class="cls-1" points="155.35 178.63 130.94 173.23 131.1 172.5 130.93 173.23 84.64 162.2 68.48 224.38 69.48 227.57 139.08 331.38 139.88 329.67 140.34 326.97 139.85 322.11 140.9 307.86 145.17 307.13 149.36 308.71 150.49 311.25 151.65 311.25 153.7 308.77 157.06 291.46 157.06 291.46 177.92 183.19 155.35 178.63"/><polygon class="cls-1" points="869.18 132.2 868.38 130 865.11 127.95 864.47 123.67 852.92 87.98 852.8 88.4 851.5 88.5 850.5 87.4 848.6 88.8 848.1 94.9 848.1 94.9 848.76 94.55 850.11 97.13 849.03 100.56 851.11 103.33 850.66 105.26 850.76 106.66 849.42 109.23 848.04 109.63 847.47 110.86 845.37 111.86 844.92 112.82 846.28 116.13 845.77 118.65 846.31 120.27 845.29 122.21 845.7 124.16 844.37 126.1 844.57 128.29 843.88 129.36 844.52 133.48 845.28 135.1 844.78 137.69 845.66 139.45 845.4 142.37 844.94 143.56 844.87 144.56 846.5 146.57 864.15 142.93 864.89 141.81 865.24 139.82 867.25 139.19 867.71 138.19 869.86 136.8 871.42 137.16 872.1 133.1 871.71 133.74 869.18 132.2"/><polygon class="cls-1" points="831.91 190.73 818.39 186.19 817.06 188.03 817.16 190.18 814.3 195.31 815.75 197.05 814.85 199.61 813.99 200.47 814.38 203.24 816.98 204.1 818.01 206.97 819.95 208 824.92 211.79 820.95 214.92 819.41 217.13 817.51 220.31 815.85 220.93 814.64 222.4 813.73 224.41 813.44 226.41 812.7 226.3 813.5 227.2 813.9 229.5 815.1 230.1 817.5 231.6 819.3 232.4 820.9 233.2 821 234.3 821.8 234.4 822.9 233.2 823.7 233.6 825.8 233.8 825.6 236.7 825.8 239.2 827.6 238.5 829.1 234.6 830.7 229.8 833.6 227 834.2 223.5 833.6 222.3 835.3 219.4 835.3 218.2 834.6 217.1 835.8 214.4 835.5 210.8 834.9 202.6 833.7 201.2 833.7 202.6 834.2 203.2 833.1 203.2 832.5 202.8 831.2 202.6 830.3 203.2 829.1 201.6 829.8 199.9 829.8 198.9 831.5 198.2 832.3 196.1 831.55 196.05 831.91 190.73"/><polygon class="cls-1" points="272.13 419.98 307.28 423.65 338.31 426.19 346.21 326.95 346.99 326.95 347.51 317.78 296.53 313.05 244.64 306.63 227.34 430 242.3 432.1 243.7 421.9 273.35 425.85 271.72 424.06 272.13 419.98"/><polygon class="cls-1" points="830.1 199.1 830.1 200.1 829.4 201.7 830 202.4 832.4 200.1 832.3 199.2 831.7 198.7 830.1 199.1"/><polygon class="cls-1" points="836.21 189.96 834.1 187.23 837.48 183.94 836.11 182.8 833.29 166.39 832.54 165.32 833.04 150.42 831.86 149.35 832.43 147.09 829.52 133.32 828.52 132.53 827.29 134.72 825.68 130.79 826.48 129.01 823.44 122.44 823.8 118.22 824.11 117.47 823.53 115.54 823.89 113.54 821.79 111.35 821.23 107.76 821.53 106.64 820.11 105.72 820.8 103.55 820.12 102.12 820.8 101.8 820.8 101.8 800.2 107 797.7 106.9 795.6 108.6 789.7 115 786 121.3 785.3 123.7 779.1 129.8 779.2 132.9 781.5 134.3 783 134.3 783.1 136.1 781.1 137.4 782.3 138.1 783.7 140.8 783.3 144 782.2 144.5 780.3 144.9 777.9 148 775.4 150.6 772.8 151.9 769.8 151.9 766.4 152.6 764.6 154.2 763.7 154.3 760.5 152.7 756.1 152.7 747.9 154.3 740.3 158.2 740.5 161.4 742.3 164.4 744 164.9 745.7 168.2 744.9 169.3 742.6 171.3 742 173.7 738.1 176.2 737.5 177.9 733.2 181.8 733.2 181.8 733.94 181.7 734.64 186.91 804.65 173.11 806.85 174.53 807.18 175.75 809.06 175.75 812.18 181.8 814.79 183.71 816.68 183.41 818.44 184.62 833.49 189.67 833.06 195.94 834 194.5 835.5 192.8 836.8 189.5 836.8 189.5 836.21 189.96"/><polygon class="cls-1" points="862.9 181.5 862.7 182.2 861.8 182.9 861 181.8 859.3 182.8 859.2 183.7 858.3 183.5 858.8 182.6 857.6 181.9 857 182.8 857.9 183.1 858.1 183.6 857.8 184.1 856.4 186.7 854.5 186.7 855.4 184.9 856.3 184.3 856.6 182.6 858 181 858.9 180.2 860.4 179.5 859.2 179.3 858.5 180.2 857.8 180.2 856.7 181 856.5 182 854.3 184.1 853.9 185 852.5 185.9 844.8 187.8 845 188.7 844.1 189.4 842.1 189.7 841.1 189.1 840.9 190.2 839.8 189.8 839.9 190.8 838.7 190.7 837.5 191.2 837.3 192.3 836.3 192.3 836.5 193.3 835.8 193.3 836 194.3 834.2 194.7 832.7 197 832.5 199.1 833.2 199.7 834.5 199.4 835.6 199.7 836.5 198.4 838.4 198.4 840.8 197.5 845.9 195.4 845.4 194.9 843.5 195.7 841.5 196.6 841.7 195.8 844.3 194.7 845.1 193.7 846.3 193.8 850.4 191.5 850.4 192.2 846.2 195.2 850.7 192.4 852.4 190.2 853.9 190.1 858.4 187 861.6 183.9 864.6 181.6 865.6 180.4 863.9 180.3 862.9 181.5"/><polygon class="cls-1" points="863.32 172.56 860.28 160.89 846.65 164 846.65 164.64 844.71 165.29 844.18 164.54 834.86 166.67 837.49 182 839.72 183.86 836.1 187.37 837.38 189.02 842.2 185 843.9 183.7 844.7 183.7 847.1 180.6 848.5 180.7 851.4 179.6 853.5 179.6 858.8 176.9 861.6 176 862.6 175 863.27 175.22 862.92 173.65 863.32 172.56"/><polygon class="cls-1" points="861.8 176.5 861.3 177.5 863.1 176.4 861.8 176.5"/><polygon class="cls-1" points="832.9 310.5 831.4 309.1 833.1 313.3 833.5 316.4 833.5 320.1 828.9 323.4 826.2 325.9 826.3 327.3 829.5 324.1 832.6 321.7 834.3 321.3 833.9 313.7 832.9 310.5"/><polygon class="cls-1" points="824.5 300.1 827.9 305.6 829.7 307.7 831 308.7 829.6 305.9 827.4 302.5 825 299.5 822.8 295.2 822 294.5 824.2 298.8 824.5 300.1"/><polygon class="cls-1" points="790.25 301.74 750.84 309.04 722.05 312.47 722.05 317.8 720.05 317.67 719.01 318.56 716.38 324.27 713.5 323.05 710.53 325.17 709.84 327.25 707.64 329 706.17 327.53 706.1 326.39 702.69 329.2 702.07 332.7 697.29 335.14 696.82 336.26 693.31 339.11 689.67 339.62 685.48 342.36 684.68 346.44 682.91 347.67 681.47 347.57 680.54 348.43 680.47 352.13 700.9 349.27 705.44 347.35 706.57 347.27 713.86 342.97 714.03 342.95 737.63 340.71 738.49 341.79 738.43 342.21 739.31 341.11 743.44 344.86 743.52 346.94 762.69 344.22 762.93 344.38 787.43 361.49 787 362.1 787 362.1 791 359.9 794 359.2 795.7 359.2 796.8 360.3 797.6 358.3 798.2 353.3 799.9 349.4 805.3 343.3 809.4 339.8 814.8 337.5 817.3 337.1 818.6 337.5 819.3 338.6 822.6 332 825.9 326.7 825.2 326.4 820.8 333.2 820.3 332.4 822.3 330.2 821.9 328.7 819.9 328.2 820.9 329.5 819.7 329.6 818.5 327.8 817.3 329.8 815.7 330 816.7 327.3 817.4 325.6 817.2 322.7 815 322.6 815.9 321.7 817 322 819.7 322.1 820.5 321.6 822.8 321.6 824.8 319.7 825 316.5 826.3 315.1 827.5 314.9 828.8 313.9 828.3 310.2 826.1 306.4 823.4 306.2 822.5 307.8 822 306.8 819.3 307 818.1 307.4 816.2 308.6 815.9 308.2 815 308.2 813.2 309.4 810.6 309.9 810.6 308.6 811.4 307.6 812.4 308.3 813.4 308.3 815.1 306.2 818.8 304.5 820.8 302.3 823.2 302.3 824 303.6 825.7 304.4 825.2 302.9 824.9 301.3 822.1 298.2 821.8 296.8 821.4 297.8 820.5 296.5 819.2 294.9 819.35 295.63 790.25 301.74"/><polygon class="cls-1" points="828.1 306.6 827.2 306.4 827.2 307.4 829.7 309.6 829.5 308.2 828.1 306.6"/><polygon class="cls-1" points="353.45 51.16 348.31 117.11 386.75 119.95 432.73 122.05 461.49 122.44 461.55 121.06 461.26 115.46 458.34 108.02 458.74 102.21 457.75 99.44 457.06 85.6 455.78 83.11 453 73.75 453.56 72.52 453.84 67.78 452.97 66.26 454.1 63.38 451.79 56.34 452.5 56.1 452.5 56.1 397.2 54.5 352.7 51.1 352.7 51.1 353.45 51.16"/><polygon class="cls-1" points="675.12 203.24 654.43 206.63 660.89 262.66 661.65 262.96 663.57 263.04 665.6 262.19 669 263.6 671.45 267.38 671.45 267.97 674.83 268.55 677.41 268.32 679.36 270.48 680.45 270.58 680.45 269.9 683.05 268.81 686.52 269.78 687.34 270.33 688.41 269.75 688.97 269.75 689.49 268.27 693.76 266.01 694.72 267.6 695.42 270.14 698.82 271.5 699.82 273.24 702.54 272.05 703.53 272.05 703.9 268.82 705.17 268.14 703.95 264.75 705.19 263.28 705.51 261.1 706.78 258.18 709.41 259 709.87 260.63 709.93 260.6 710.7 259.71 711.35 259.58 711.35 258.67 709.3 257.06 710.93 256.25 710.84 254.41 712.47 251.65 713.61 251.65 713.81 250.85 715.93 248.31 717.29 249.57 718.8 248.15 719.37 248.15 720.89 246.45 722.98 243.01 723.93 242.58 724.22 241 723.7 239.86 724.75 236.09 724.89 230.57 725.91 227.39 725.35 225.49 725.44 223.41 723.72 220.83 726.17 219.5 721.4 190.38 712.8 195.1 709 198.2 704.1 204.1 698.9 204.4 695.3 206.5 692.8 208.2 691.3 208.3 689.1 206.8 686.7 207.2 685.1 208.7 683.2 207.9 685.2 206.8 688.3 206.3 688.4 205.3 686.9 205.3 685.6 204.5 684.6 206 683.6 206 682.9 205.1 680.8 204.5 677.8 203.2 675.9 203.6 675 202.5 675 202.5 675.12 203.24"/><polygon class="cls-1" points="493.96 332.02 494.7 331.9 494.7 331.9 493.95 331.91 493.76 321.85 432.5 321.75 364.77 318.85 364.8 318.1 364.75 318.85 349.01 317.89 348.49 327 401.07 330.2 399.67 373.14 402.07 374.29 404.51 377.22 405.38 377.39 406.52 376.35 408.34 376.99 409.13 377.56 410.24 376.05 413.39 378.38 413.88 381.23 414.59 381.64 416.88 381.54 420.37 383.44 422.08 383.36 423.81 382.86 425.85 384.81 427.66 382.74 431.89 384.07 433.7 386.93 436.66 386.8 435.82 389.31 437.08 389.91 440.14 387.26 442.89 389.06 444.78 388.33 444.93 390.49 445.79 391.11 448.06 388.65 450.22 389.91 449.88 392.16 450.36 393.02 450.74 392.77 453.68 387.84 456 390.43 457.57 390.82 459.88 390.05 461.96 391.93 463.17 391.83 464.41 392.97 467.23 392.27 467.86 390.49 472.23 390.14 473.68 390.77 479.09 388.06 479.8 389.82 483.84 389.58 484.43 387.7 487.58 389.02 492.06 392.72 497.37 394.3 498.05 356.36 493.96 332.02"/><polygon class="cls-1" points="84.3 160.58 130.54 171.59 138.93 134.87 141.78 129.16 142.2 126.96 142.82 126.27 142.24 124.98 139.13 123.69 139.36 118.75 143.63 112.56 146.13 111.76 147.44 109.89 147.33 108.18 149.31 106.42 152.53 100.91 156.5 96.37 156.1 93.78 152.68 90.75 151.16 87.34 121.44 80.18 118.67 81.17 112.86 80.17 111.49 79.48 110.12 80.58 106.6 80.16 102.39 80.62 101.43 81.38 96.52 80.91 95.7 79.28 95.05 79.17 90.47 80.52 88.89 79.44 86.16 80.43 85.9 78.08 84.07 77.13 82.43 76.91 81.5 75.88 78.61 76.17 77.37 75.35 76.65 75.35 75.49 76.22 69.53 76.98 62.27 72.36 63.44 66.36 63.08 62.61 60.27 59.36 56.38 59.46 55.7 57.61 56.05 56.57 55.89 56.38 55.27 56.45 55.2 55.7 54.1 57 52.6 56.8 52.1 55.7 51.1 55.6 50.4 56.2 48.4 54.3 48.4 58.6 47.1 59.9 46 63.4 45.9 65.7 41.4 78 28.2 109.3 25 113.9 23.4 113.8 23.5 115.9 18.3 123 18 126.3 19 127.6 19.1 130 17.9 131.1 16.7 134.1 16.8 139.8 18 142.7 18.2 141.98 84.3 160.58"/><polygon class="cls-1" points="722.84 189.88 727.74 219.78 727 219.9 727 219.9 727.74 219.78 730.82 238.74 747.46 235.96 807.62 224.23 808.73 222.29 810.49 221 812.47 220.62 813.76 221.11 814.95 219.67 816.49 219.09 818.16 216.31 819.94 213.81 822.48 211.81 819.1 209.24 816.79 208.03 815.82 205.3 813.02 204.37 812.41 199.93 813.55 198.79 814.05 197.35 812.5 195.49 815.64 189.82 815.54 187.57 817.04 185.48 816.32 184.99 814.41 185.29 811.01 182.8 808.14 177.25 806.02 177.25 805.55 175.47 804.35 174.69 733.36 188.69 732.52 182.35 729 185.2 728.1 185.3 725.4 188.3 722.1 190 722.1 190 722.84 189.88"/><polygon class="cls-1" points="868.6 176.5 868.7 177.7 869.6 177.7 870.1 177.1 869.3 175.8 868.6 176.5"/><polygon class="cls-1" points="867.52 161.65 866.88 159.25 861.81 160.81 864.88 172.64 864.48 173.75 864.77 175.07 869.7 171.9 869.8 168.9 869 168.1 869.4 167.5 869.3 166.2 868.4 165.5 869.6 165.1 868.7 163.5 868.85 163.56 868.33 161.65 867.52 161.65"/><polygon class="cls-1" points="874.12 168.82 872.79 165.97 871.68 165.03 870.56 164.47 870.8 165.6 871.5 166.8 870.1 166 871.2 167.7 870.9 168.9 870.3 167.8 870.3 170.3 870.9 169.4 871.3 170.3 872.6 168.8 872.4 166.3 873.8 169.4 874.8 168.5 874.8 168.5 874.12 168.82"/><polygon class="cls-1" points="742.08 348.66 741.96 345.54 739.49 343.29 738.43 344.61 736.68 343.86 736.9 342.29 714.34 344.43 707.03 348.74 705.68 348.84 701.83 350.5 701.73 352.37 699.68 353.44 698.47 356.2 698.59 356.95 704.17 360.42 706.93 360.11 710.39 364.57 710.79 366.26 714.8 371.13 717.17 372.68 718.59 372.88 721.09 374.7 722.2 376.92 723.95 378.32 725.79 378.83 728.83 381.87 728.93 383.28 731.25 385.78 736.34 388.12 740.13 395.17 740.4 397.63 744.16 399.65 746.83 404.81 747.5 407.4 751.17 407.75 751.1 408.5 751.9 407 752.5 407 754.3 405.5 754.8 403.5 758 401.4 758.3 399 757.1 398.1 757.9 397.4 758.7 397.8 760 397.4 761.8 395.3 765.6 393.5 767.2 391.1 767.3 390.4 772.1 386 772 385.5 771.1 384.7 772.2 383.2 773 383.2 773.4 383.7 774.1 382.9 775.4 382.9 776 381.4 778.3 379.3 778 373.9 778.8 371.6 782.4 365.4 784.8 363.2 786.24 362.48 762.31 345.79 742.08 348.66"/><polygon class="cls-1" points="392.75 185.15 431.01 186.76 434.43 189.98 436.14 190.18 438.18 192.13 439.35 192.07 441.29 189.91 442.9 190.55 444 189.78 444.79 190.34 445.64 189.96 446.34 190.36 447.22 189.97 448.22 190.47 449.56 189.9 452.11 190.67 452.72 191.79 458.73 193.96 460.16 195.51 461 197.93 462.29 198.43 462.64 198.38 462.27 197.47 462.02 196.39 460.57 195.06 461.67 190.33 463.31 185.41 462.82 184 461.48 183.59 460.83 181 461.99 180.42 462.02 180.05 460.73 178.56 460.9 175.92 463.05 176.02 463.25 137.56 462.07 136.07 459.27 135.43 458.8 133.3 456.99 130.64 457.45 128.82 460.61 126.88 461.36 125.22 461.42 123.94 432.69 123.55 386.67 121.45 348.18 118.6 346.25 138.57 346.25 138.57 342.42 181.7 392.75 185.15"/><polygon class="cls-1" points="661.85 319.45 656.72 320.24 639.33 321.24 636.67 322.05 613.75 324.08 613.02 323.45 610.68 323.45 611.64 326 610.62 327.52 587.28 329.03 586.2 330.38 585.05 329.38 585.05 329.69 585.67 330.73 585.5 332.45 584.73 332.72 585.88 333.95 584.24 335.38 583.96 335.35 584.85 336.17 584.85 337.7 583.45 338.29 582.68 339.82 582.69 339.87 584.39 341.08 583.43 342.75 582.81 342.75 583.11 343.05 583.34 344.84 581.55 345.09 581.05 345.9 579.35 346.11 579.07 346.4 579.08 346.41 580.22 346.31 581.26 348.19 579.55 349.58 580.17 351.9 577.92 351.23 578.18 351.95 577.61 354.59 576.89 354.15 576.96 355.19 576.58 355.83 577.52 356.61 577.22 358.12 578.2 358.98 576.77 361.02 575.71 360.58 575.3 361.58 611.03 359.15 611.03 359.15 656.72 355.15 678.96 352.34 679.06 347.77 680.93 346.03 682.49 346.13 683.32 345.56 684.12 341.44 689.13 338.18 692.69 337.69 695.58 335.34 696.11 334.06 700.73 331.7 701.31 328.4 705.81 324.68 707.51 325.1 707.63 326.87 707.76 327 708.56 326.35 709.26 324.23 713.3 321.35 715.62 322.33 717.79 317.64 719.54 316.13 720.55 316.2 720.55 311.97 717.63 312.29 717.43 313.28 688.03 316.64 682.35 318.05 661.85 319.45"/><polygon class="cls-1" points="458.7 513.5 455.1 515.8 454.4 517.3 446.2 528.9 443.4 536.8 443.4 545.6 447 557.6 447.4 562.1 448.2 562.2 447.6 557.4 444.1 545.1 443.9 537 448.8 526.5 454.9 518.3 462.1 513.2 462.1 512.5 461.3 512.5 458.7 513.5"/><polygon class="cls-1" points="509.22 479.48 511.2 478.08 511.28 477.44 513.46 473.98 513.55 469.98 512.78 466.7 513.99 465.31 512.75 463.12 516.15 456.51 516.24 450.15 515.38 450.15 514.5 445.43 510.68 440.81 509.99 435.43 507.41 432.66 506.65 428.92 506.15 409.02 506.9 409 506.9 409 506.15 409.01 505.96 397.69 503.57 397.09 500.57 398.49 497.73 395.97 491.34 394.08 486.71 390.25 485.37 389.7 484.96 391.02 478.8 391.38 478.31 390.13 473.72 392.43 471.97 391.66 468.95 391.91 468.37 393.53 463.99 394.63 462.63 393.38 461.44 393.47 459.52 391.75 457.63 392.38 455.2 391.77 453.92 390.36 451.86 393.83 449.84 395.18 448.32 392.44 448.58 390.69 448.34 390.55 446.01 393.09 443.48 391.31 443.42 390.46 442.71 390.74 440.26 389.14 437.32 391.69 433.98 390.09 434.54 388.4 432.9 388.47 430.91 385.33 428.14 384.46 425.95 386.99 423.39 384.54 422.24 384.85 420.03 384.96 416.52 383.06 414.21 383.16 412.52 382.17 412.01 379.22 410.56 378.15 409.47 379.64 407.56 378.28 406.88 378.05 405.82 379.01 403.69 378.58 401.13 375.5 398.13 374.06 399.53 331.6 347.67 328.45 347.59 328.45 339.69 427.81 307.14 425.15 273.47 421.63 273.28 423.54 275.06 425.5 274.5 426 276.9 427 278.6 430.7 279.9 432.1 279.7 433.3 281.8 435.1 284.8 436.4 288 440.8 290.6 443.1 291.2 445.2 294.1 447 294.1 448.1 296 449.7 296.9 449.8 299.3 451.5 300 452.6 301.2 452.8 301.2 453.8 302.8 455.4 303.4 459.6 306 463.7 306.1 466.1 305.3 467.6 306 468.9 305.8 470.5 308.1 474.5 308.2 476.5 311.6 479.6 312.6 479.7 314.2 480.9 314 481.7 317.4 485.1 319.5 485.9 320.8 486.1 322.5 488.4 326.1 488.9 328.1 491.8 329.1 491.8 330.9 493.3 333.8 493.2 333.9 491.4 335.2 490.8 336.1 489.2 337.2 489.1 338.6 487.9 339.7 483.5 341.7 480.3 343.4 477.5 346.7 476.3 348.9 476.9 350.2 475 354.4 477.1 359 477.1 361.6 478.2 363.8 478.2 365.1 477.1 365.8 477.7 366.6 477.7 368.7 480.5 369.5 480.7 369.5 481.4 370.7 481.8 370.8 483.6 374.1 485.3 374.1 486.4 379.2 491.2 381 494.3 381.1 496 383.8 500.9 383.7 503 385.7 505.2 385.6 505.9 387 507.4 386.5 508.1 386.3 509.7 387.3 510.4 387.5 512.5 390.4 515 392.4 516.6 393.3 519 394.1 519.2 394.9 520.9 394.8 522.8 398.8 526.3 399.9 526.3 401.6 527.7 402.4 530.9 401.7 533.9 403 535.3 403.3 537.5 402.7 540.1 404.1 540.7 404.1 542.3 405.8 543.7 406.9 545.4 407.8 550.1 409.2 551.9 409.2 553.2 414.6 554.8 417.8 557.4 419.9 557.3 421.6 558.3 425.2 561.3 428 562.1 435.1 562.1 437.4 562.7 440.8 566.4 442.2 566.6 443.1 566.9 442.9 565.5 444.5 564.1 446.7 564.3 446.8 563.6 444.6 561 443.5 558.9 443.5 556.3 442.7 554.6 441.6 554.2 441.2 552.7 442.2 552.3 442.6 550.1 442 547 440.4 545.6 440.4 542.5 441.7 541.6 441.4 540.2 441.2 539 442.3 539.1 442.7 535.9 440.8 536.5 439 535.9 441.9 535.5 443.3 534.5 444.3 532.8 444.6 530 446.4 526.5 445.4 525.7 444.1 524.9 443.8 523.5 445.6 522.4 447.2 523 448.8 522.3 450.6 519 451 517.3 451.8 516.6 453.3 516.4 456 514.4 455.5 513.3 456 511.2 457.2 512.4 458.9 512.3 462.8 510.6 463.5 509.8 461.7 508.2 460.5 507.3 459.1 506.6 458.3 504.4 459.8 504.4 460.1 506.1 461.9 507.3 464.5 506 465.6 504.5 467.1 504.6 467.3 506.4 466.7 507.2 466.7 508.3 463.5 511.3 467.6 508.8 472.1 506.9 475.8 504.9 480.8 501.9 484 500.5 488 496.6 492.9 492.6 495.2 491 495.2 490.2 493.9 489.9 490.6 486.5 490.3 484.8 492.2 482.2 494.6 480.9 495.2 480.9 496.1 482.7 495.3 484.7 496 485.5 498.9 485.6 498.4 486.5 496.6 487.2 494.5 489.5 495.2 490 497 488.2 500.5 486.8 508.9 482.9 511.4 482.69 510.55 481.87 509.22 479.48"/><polygon class="cls-1" points="222.55 213.33 225.85 191.42 179.4 183.46 158.68 291 204.13 299.06 243.35 304.94 254.66 218.13 222.55 213.33"/><polygon class="cls-1" points="821.89 105.08 823.26 105.97 822.76 107.84 823.21 110.65 825.51 113.06 825.07 115.46 825.69 117.53 825.24 118.67 824.96 122.16 828.12 128.99 827.32 130.81 827.51 131.28 828.08 130.27 830.88 132.48 833.97 147.11 833.54 148.85 834.02 149.28 844.85 146.93 843.33 145.04 843.5 143.13 843.96 141.93 844.14 139.75 843.22 137.91 843.72 135.3 843.06 133.81 842.32 129.04 843.03 127.91 842.83 125.7 844.1 123.84 843.71 121.99 844.69 120.13 844.23 118.75 844.72 116.28 843.28 112.78 844.23 110.74 846.33 109.74 846.96 108.37 848.38 107.97 849.24 106.34 849.14 105.14 849.49 103.67 847.37 100.84 848.49 97.27 847.43 95.25 848.1 94.9 848.1 94.9 821.54 101.61 822.4 103.45 821.89 105.08"/><polygon class="cls-1" points="812.3 260.3 811.5 258.4 810.2 259.3 811 261.1 812.7 261.9 812.3 260.3"/><polygon class="cls-1" points="813.1 264.1 813.1 262.4 812.3 262.4 812.3 263.44 813.01 263.36 813.1 264.1"/><polygon class="cls-1" points="807.57 225.77 770.88 232.92 772.79 234.31 776.15 233.8 775.8 235.54 776.2 236.15 777.07 236.15 777.33 237.08 778.51 237.67 778.31 239.24 778.63 239.38 780.03 239.64 781.15 239.52 782.24 240.5 783.85 240.76 783.85 242.55 783.33 243.24 783.62 243.36 784.24 243.98 785 244.04 785.89 243.7 788.46 244.61 788.32 245.31 788.56 245.35 789.81 245.35 789.95 245.49 790.86 243.92 794.73 246.6 792.7 249.7 792.28 251.6 790.94 252.81 791.23 253.22 790.6 254.05 790 253.6 790 253.6 790.3 254.1 789.5 256.2 789.9 258.5 791 259.3 792.6 258 793.4 257.3 794 257.5 795 258.8 796 259.8 797.7 260.6 798.1 260.4 799.3 260.7 800.3 260.2 801.7 260.5 803.4 261.9 804.6 262.1 805 261.9 806.5 263.1 807.2 263.1 807.2 262.1 806.8 260.7 805.2 258.7 804.8 255.9 803.2 254.5 801.9 253.1 801.2 249.7 800.3 248.6 800.8 247.3 800.8 245.2 801.3 243.9 800.8 243.6 801.9 242.6 801 241.4 801.2 240.7 799.9 239.4 798.6 238.8 800.4 238.3 801 236.1 801.7 235.2 802.6 235.6 805.2 232 804.2 230.7 805 229.6 806.5 229.2 806.3 231.3 806.6 232 806.1 232.6 806.6 233.4 805.2 233.6 804.1 235 803 237.4 803.2 239.1 804.1 241.2 805.1 240.2 805.5 241.9 804.3 242.6 803.4 241.7 802.5 242.7 802.3 245.1 802.9 246.1 803.9 244.7 804.8 243.6 805.8 244.5 805.7 246.1 804.9 245.4 803.9 246.4 803.8 249.8 804.4 249.5 804.8 248.4 806.1 248.5 806.2 249.2 807.6 249.8 805.9 250.1 805.3 251.1 805.3 252 806.3 252.6 804.8 253.4 806.2 255.1 807.2 256.2 807.4 257.4 809.4 258.4 810.5 257.9 811.2 257.3 810.7 256.5 811.4 254.9 812.2 255.5 811.8 256.8 812.5 257.6 814.4 258 813.2 258.3 813.2 260.3 814.8 259.3 814.6 260.8 815.4 261.3 815 262 815.3 264.5 816.6 263.9 817 263 818.3 262.8 817.74 262.31 818.57 261.36 823.35 259.69 823.6 260.4 823.9 259.3 824.7 257.9 824.9 255.8 825.6 254.9 826.2 255.5 826.1 258 825.29 259.48 825.5 259.9 825.5 259.9 826.5 258.1 826.6 255 826.6 250.47 815.17 252.88 807.57 225.77"/><polygon class="cls-1" points="750.51 246.02 751.41 244.43 754.78 240.2 756.94 240.5 759.66 236.53 761.94 237.73 764.64 237.4 766.37 234.45 767.69 234.45 768.36 233.42 748.45 237.3 749.84 246.62 750.51 246.02"/><polygon class="cls-1" points="812.37 264.78 812.3 264.2 812.2 264.8 812.37 264.78"/><polygon class="cls-1" points="824.9 260.2 824.9 260.2 823.8 263 824.3 264.1 824.7 263 825.25 260.86 825.24 260.87 824.9 260.2"/><polygon class="cls-1" points="818.86 263.29 818.3 262.8 817.9 263.7 818.6 264 818.4 265.9 817.9 265.4 816.6 266.4 817.6 266.8 815.8 271.2 815.9 279.3 817.8 282.4 818.3 280.9 818.7 278.2 818.4 275.9 819.1 275 818.9 273.6 820.1 273 819.5 272.5 820 271.8 820.8 272.9 820.6 274 820.2 277.9 821.3 275.7 821.7 272.6 821.8 269.6 821.5 267.6 822.1 265.3 823.2 263.5 823.3 261.3 823.3 261.3 819.43 262.64 818.86 263.29"/><polygon class="cls-1" points="790.28 251.38 790.92 250.8 791.22 249.46 791.02 248.97 791.12 248.48 790.98 248.16 790.65 247.89 790.26 247.79 789.63 247.29 790.1 246.7 790.1 246.7 789.57 247.23 789.19 246.85 788.38 246.84 787.54 246.7 786.68 245.85 786.74 245.59 785.91 245.3 785.21 245.56 783.56 245.43 782.78 244.64 782.08 244.36 781.68 242.95 782.35 242.04 781.56 241.9 780.65 241.08 779.97 241.16 778.79 240.94 778.7 241.08 778.33 242.58 777.63 245.82 767.99 240.81 768.62 241.93 767.75 244.41 767.86 247.59 766.56 248.46 766.08 250.5 765.05 251.41 763.6 253.26 762.83 253.94 761.6 257.01 759.29 255.95 757.18 263.75 755.5 265.82 751.96 265.18 750.63 263.24 749.53 262.91 749.44 266.88 748.12 268.48 748.53 270.01 746.42 272.23 746.79 274.03 742.99 280.5 742.16 283.23 743.85 284.58 742.07 286.84 742.18 288.32 738.93 291.14 738.19 289.97 734.12 292.91 733.78 292.69 732.83 294.39 726.75 297.04 724.13 295.47 723.62 296.55 721.41 298.64 718.63 298.76 713.68 296.17 713.58 294.69 712.12 294.01 708.46 298.93 705.51 299.95 702.8 302.67 702.38 304.96 700.33 306.23 700.23 307.83 698.49 309.57 696.91 310.01 696.43 311.86 695.14 312.37 691.2 314.77 716.17 311.92 716.37 310.91 722.8 310.21 722.5 310.9 750.61 307.56 789.96 300.26 818.85 294.21 818.6 293.7 819 293.6 819.9 294.5 819.8 293.1 819.5 291.2 821.1 292.4 822 294.5 822 293.2 818.6 287.7 818.6 286.5 817.9 285.7 816.6 286.4 817.1 287.8 816.3 287.8 815.9 286.8 815.3 287.7 814.4 286.6 812.3 286.5 812.1 287.2 813.6 289.3 812.2 288.6 811.7 287.6 811.3 288.4 810.5 288.5 809 290.2 809.3 288.6 809.3 287.2 807.8 286.5 806 286 805.8 284.3 805.2 283 804.6 284.1 802.9 283.1 800.9 283.4 801.1 282.5 802.6 282.3 803.5 282.8 805.2 282 806.1 282.4 806.6 283.4 806.6 284.1 808.5 284.5 808.8 285.4 809.7 285.8 810.6 287 812 285.4 812.6 285.4 812.5 283.3 811.2 284.3 810.6 283.4 812.1 283.2 810.9 282.3 809.7 282.9 809.6 281.2 807.9 281.4 805.7 280.3 803.9 278.1 807.5 280.3 808.4 280.6 810.1 279.8 808.4 278.9 809 278.3 808 277.8 808.8 277.6 808.5 276.7 809.6 277.6 810 276.8 810.4 278.1 811.6 278.9 812.2 278.4 811.7 277.8 811.6 275.3 810.5 275.2 808.9 274.4 809.8 273.3 807.8 273.2 807.4 272.7 806 273.3 804.6 272.5 804.1 271.3 802 270.1 799.9 268.3 797.7 266.4 800.7 267.7 801.6 268.9 803.7 269.6 806 272.1 806.2 270.4 806.8 271.7 809.1 272.2 809.1 268.2 808.3 267.1 809.4 267.5 809.5 265.9 806.4 264.5 804.8 264.3 803.5 264.1 803.8 262.9 802.3 262.6 802.2 262 800.4 262 800.2 262.8 799.5 261.8 796.8 261.8 795.8 261.4 795.6 260.4 794.4 259.8 794 258.3 793.4 257.9 792.7 259 791.8 259.2 790.9 259.9 789.4 259.9 788.5 258.6 788.9 255.5 789.38 253.19 788.25 251.58 790.28 251.38"/><polygon class="cls-1" points="73.9 39 73.4 39 73.2 39.8 72.7 40.2 72.9 41.1 73.6 40.7 73.5 40.1 74 39.8 73.9 39"/><polygon class="cls-1" points="76.7 7 75.6 6 74.7 6.1 76.5 7.6 76.7 7"/><polygon class="cls-1" points="74.8 8.1 75.1 10.8 76.7 12.1 77.3 10.2 76.2 8 74.8 8.1"/><polygon class="cls-1" points="78.5 6 77.4 5.8 77.9 7.2 78.5 6"/><polygon class="cls-1" points="79.9 0 78.7 0 78.7 0.8 79.9 1.4 79.9 0"/><polygon class="cls-1" points="81 9.3 81.9 9.1 81.2 7.6 80 7.3 80.2 9.7 81 9.3"/><polygon class="cls-1" points="78.5 13.7 79.8 13.4 80 12.4 81.2 10.6 80.2 10.2 79.5 11.8 79.4 10.2 78.3 10.4 77.6 11.8 78 13.1 78.5 13.7"/><polygon class="cls-1" points="78.3 29.8 78.1 31.7 79 32.5 79.4 29.8 78.3 29.8"/><polygon class="cls-1" points="77.2 36.6 77.1 37.4 77.5 37.6 78 37 79.1 37.1 78.4 34.7 77.2 36.6"/><polygon class="cls-1" points="56.51 54.81 57.75 56.23 57.29 57.59 57.42 57.94 60.94 57.84 64.52 61.99 64.96 66.44 63.93 71.64 69.87 75.42 74.91 74.78 76.15 73.85 77.83 73.85 78.99 74.63 82.1 74.32 83.17 75.49 84.65 75.73 87.3 77.12 87.44 78.37 89.11 77.76 90.73 78.88 94.95 77.63 96.7 77.92 97.48 79.49 100.97 79.83 101.81 79.18 106.6 78.64 109.68 79.02 111.31 77.72 113.43 78.78 118.53 79.63 121.36 78.62 121.58 78.67 151.16 85.8 152.03 82.37 151.34 78.38 164.07 22.14 164.8 22.3 164.8 22.3 141.2 16.8 109.5 8.8 84.1 1.3 82.2 1.9 83.7 6.8 82.4 6.9 83.4 9.9 84.6 7.4 85.5 8.2 85.5 11.5 84.3 11.2 84.3 13.8 82.9 10.6 82 10.6 81.4 14.7 78.7 17.7 80.6 20.3 80.1 23.3 81.6 24.5 81.6 25.7 83.1 25.7 83.5 23.8 82.1 21.5 81.2 22.8 81.5 21 81.3 18.6 79.8 18.1 81.6 16.8 82.6 17.6 83.3 17.2 82.4 16.1 82.6 14.1 83.2 15.7 84.8 17.4 84.5 19 84.2 18.3 82.4 18.4 82.1 20.7 82.7 21.2 83.3 23.1 83.9 23 83.2 20.1 84 19.2 84.1 22.7 85.3 24.1 85 25.5 84 25.4 81.7 27.6 81.5 30 80.1 30.8 80.8 32.9 79.9 32.6 80 35.3 79.8 38.2 78.5 38.2 78.4 39.4 77.7 39.7 77.4 38.8 76.6 38.2 76.4 39.4 74.4 41.3 73.8 41.4 73.1 42.2 72.4 42.2 71.7 40.4 71.2 41.4 70.8 40 69.8 41.8 70 39.6 67.8 40.2 69.1 39 71.2 39.4 71.8 39 71.7 36.8 72.9 35.6 73.1 36.7 72.3 37.8 72.4 39.8 73.2 38.9 73.9 36.7 74.7 36 75.5 36.5 74.6 37.6 74.8 39 75.8 39.2 75.9 37.4 76.8 36.4 77.8 34.5 77.7 32.5 77 33 75.7 33 76.6 31.9 75.9 31.3 76.7 30.5 77 32.1 77.7 31.4 77.7 29.7 77.4 28.6 78.5 29.5 79.1 28.7 80.6 28.7 80.5 24.7 79.4 24.7 79.4 26.1 76.4 28.4 75.4 30 73.5 30.2 71.7 31 69.1 33.8 69.1 34.4 73 33.9 72.5 34.8 70.1 35 67.9 35 68 34 70.1 31.8 70.5 30.8 74.3 28 74.7 25.9 76.3 25.5 75.1 28.9 77.6 26 78.4 25.3 78.5 23.8 78.1 22.4 79.2 23.2 79.6 20.6 78.5 20.6 77.8 22.1 77.7 20.5 78.8 19.9 78.3 19.2 76.9 19.4 76.4 22 75.8 19.3 75.1 19.3 74.1 20.9 73.9 17.9 70.7 18 65.6 15.5 60.9 13.6 53.1 6 52.2 5.9 52 6.5 52.7 7.9 50.7 10.2 50.3 12.9 50.2 16.9 51.6 19 52.1 21 51.2 27.1 51.4 30.7 51.7 35.3 50.5 38.4 51.9 36.8 53.6 38.7 55.8 39.9 52.6 39.9 52 41.5 51.1 41 50.9 39.5 50.7 43.7 52.2 44.1 53.2 43.8 54.3 45.8 52.5 45.4 51.3 49.6 51.8 51.8 50.7 49.5 49.9 49.7 49.9 51.7 49.4 51.2 50.1 45.2 47.6 52.7 49.2 53 49.9 54.5 51.9 54.6 53.1 54.2 55.2 55.7 55.13 54.95 56.51 54.81"/><polygon class="cls-1" points="79.6 9.5 79.4 7.3 78.5 7.1 77.5 8.5 78.3 8.9 77.9 10 79.6 9.5"/><polygon class="cls-1" points="725.88 221.37 726.67 222.56 726.43 221.07 725.88 221.37"/><polygon class="cls-1" points="726.85 225.31 727.43 227.22 726.91 224.04 726.85 225.31"/><polygon class="cls-1" points="727.47 227.46 726.35 230.93 726.22 236.4 725.3 239.74 725.78 240.8 725.27 243.62 724.02 244.19 722.06 247.4 720.03 249.65 719.4 249.65 717.3 251.63 716.07 250.49 715.18 251.55 714.79 253.15 713.33 253.15 712.36 254.79 712.47 257.15 712.1 257.34 712.85 257.94 712.85 260.81 711.5 261.09 710.87 261.81 708.93 262.77 708.19 260.19 707.62 260.02 706.93 261.6 706.61 263.92 705.65 265.05 707.03 268.86 705.3 269.78 704.87 273.55 702.86 273.55 700.21 274.71 700.17 275.13 700.78 276.15 700.21 279.6 701.91 281.06 702.62 282.04 703.9 282.81 703.78 283.88 707.76 288.95 709.15 288.95 710.72 290.83 711.57 291.04 712.85 290.95 712.9 291.7 712.9 291.7 713.39 291.13 714.59 292.16 713.91 293.19 715.02 293.71 715.12 295.23 718.97 297.24 720.79 297.16 722.38 295.65 723.47 293.33 726.85 295.36 731.8 293.16 731.06 292.69 732.27 289.88 734.08 291.09 738.61 287.83 739.26 288.86 740.63 287.68 740.53 286.36 741.75 284.82 740.43 283.77 741.65 279.82 745.21 273.77 744.78 271.77 746.87 269.59 746.48 268.12 747.96 266.32 748.07 260.89 751.57 261.96 752.84 263.82 754.9 264.18 755.82 263.05 758.31 253.85 760.8 254.99 761.57 253.06 762.55 252.19 764 250.34 764.73 249.7 765.24 247.54 766.34 246.81 766.25 244.19 766.98 242.07 766.11 240.52 766.58 238.38 776.58 243.58 776.87 242.24 777.34 240.45 776.69 240.16 776.89 238.53 776.07 238.12 775.93 237.65 775.4 237.65 774.2 235.86 774.25 235.6 772.41 235.89 770.23 234.3 769.46 234.47 768.51 235.95 767.23 235.95 765.56 238.8 761.66 239.27 760.14 238.47 757.66 242.11 755.42 241.8 752.62 245.32 751.6 247.06 748.76 249.58 746.97 237.56 729.58 240.46 727.47 227.46"/><polygon class="cls-1" points="623.8 136.3 624.8 136.3 624.8 135.4 623.7 135.3 623.8 136.3"/><polygon class="cls-1" points="631.8 118.3 631.7 119.4 631.4 120.1 631.6 122.3 632 122.6 632.7 122.7 633.2 121.8 633.3 120.2 633 119.6 632.9 118.5 631.8 118.3"/><polygon class="cls-1" points="573.8 78.4 576.6 76.4 575.5 75.9 577.8 74.3 578.8 74.3 581.8 72.4 581.7 71.5 583.3 69.7 581 69.9 578.3 71.8 571.2 77.1 572 78.1 573.8 78.4"/><polygon class="cls-1" points="645.9 114.7 645.9 114.2 645.1 114 645.1 114.9 645.9 114.7"/><polygon class="cls-1" points="647.5 115.4 646.6 115.4 646.2 115.7 647.1 116.1 648.2 117.2 649.8 117.1 649.7 116 648.1 115.8 647.5 115.4"/><polygon class="cls-1" points="626.3 132.7 624.4 132.5 624.4 133.5 626.5 135.1 626.3 132.7"/><polygon class="cls-1" points="561.12 110.93 578.01 114.7 579.4 115.7 583.4 116.5 584.01 116.93 586.63 116.75 591.87 117.6 593.94 119.82 592.96 120.8 593.07 120.91 596.87 121.61 598.44 123.18 598.55 128.06 597.65 130.01 598.25 130.04 599.52 129.02 601.28 130.57 600.13 133.81 600.77 134.85 601.68 135.07 601.5 135.8 601.5 135.8 602.3 134 605.2 129.4 606.8 123.4 609.1 121.4 608.6 119.8 609.1 118.9 610.1 120.5 609.8 122.7 612.7 120.5 612.9 118.2 615 118.8 615.8 117.2 616.5 117.8 615.8 119.3 614.8 119.8 613.8 121.8 615.2 123.6 616.3 123.1 615.8 122.4 616.8 120.9 618.7 119.2 619.5 119.2 619.7 116.6 621.7 114.8 629.6 114.3 631.5 111.2 635.3 110.9 639.1 112.1 643.3 114.8 644 114.6 643.8 111.1 644.5 110.9 649 112 650.5 111.8 653.4 111.1 655.1 111.5 656.9 111.6 656.9 110.5 656.2 109.6 654.7 109.4 653.6 108.6 654.1 107.2 653.3 106.9 650.7 107 650.6 106 651.7 105.2 652.3 106 652.8 104.2 652.1 103.5 652.8 103.3 651.4 102 651.7 100.7 651.8 98.8 650.5 98.8 649 99.8 647.1 99.9 646.6 101.7 644.7 101.9 644.4 100.7 642.2 100.8 641.2 102 640.5 101.9 640.3 101.1 637.7 101.5 637.6 96.7 638.6 94.7 637.9 94.6 636.1 95.7 633.9 95.7 630.1 98.4 623.9 98.7 619.8 99.5 617.9 101 616.5 102.3 614 104 613.7 104.8 613.1 103.1 611.8 102.5 611.8 103.1 612.5 103.8 612.5 105.1 611 104.5 610.4 104.5 610.1 105.7 608.1 103.8 606.8 103.6 605.5 105.1 602.3 105 601.8 103.6 599.8 101.7 598.5 100.1 598.5 99.4 597.4 98 594.8 96.8 591.5 96.7 590.4 95.8 589 95.8 588.3 96.2 586.1 98.4 585.4 99.5 584.4 98.8 584.6 97.8 585.4 95.7 588.6 90.7 589.4 90.5 591.1 88.6 591.8 87 594.8 86.4 595.6 85.8 595.5 84.8 595 84.3 590.5 84.5 588.5 85 585.9 86.2 584.7 87.4 583 89.6 581.2 90.6 577.9 94 577.5 95.6 570.1 100.2 566.1 100.7 564.3 101.1 562 104.1 560.2 104.8 556.7 106.63 558.16 107.17 561.12 110.93"/><polygon class="cls-1" points="662.2 111.7 662.8 111.2 662.6 109.2 660.9 107.4 659 107.5 658.9 108 660 108.4 658.4 109.2 658.1 110.2 657.5 109.6 657.1 110.4 658.4 111.6 662.2 111.7"/><polygon class="cls-1" points="654.29 205.13 674.88 201.76 675 202.5 675 202.5 675.5 201.3 679.4 195.4 679.4 191.1 680.2 189 682.4 188.2 684.4 180.4 685.4 179.9 686.4 180.5 686.2 181.1 685.1 181.9 685.4 182.8 686.2 183.2 688.1 181.8 688.5 172 686.9 169.7 685.7 166 685.7 163.5 683.4 159.1 683.4 157.3 682.2 154 679.9 151 677 150 672.2 153 669.7 157.6 669.5 158.5 666.5 162 665 161.8 662.1 159 662 155.6 663.5 153.7 665.5 153.5 666.7 151.8 666.9 147.8 667.7 147 668.8 146.9 669.7 145.2 669.5 135.6 669.2 134.3 668 133.1 666.3 132.1 666.2 130.3 666.9 129.7 668.7 130.5 668.4 128.8 666.5 126.1 665.8 124.5 664.7 123.4 662.5 123.4 654.4 120.5 653 118.8 649.9 118.5 648.7 118.8 644.3 116.5 642.9 116.5 643.4 117.5 640.7 117.4 640.8 118 641.4 118.6 638.9 120.7 639 122.5 640.5 124.8 642 125 642 125.6 640.5 126.1 638.4 126 635.6 128.5 635.7 131 636.1 136.8 633.9 140.2 634.7 135.7 633.9 135.1 633 140.4 632 138.1 632.5 135.8 632 134.8 632.6 133.5 632 132.4 633 131.4 633 130.2 631.7 130.8 630.4 133.9 629.7 134.6 628.4 137 626.7 136.8 626.6 138 625 138 625.2 139.5 625.4 141.5 622.4 142.7 622.5 144 623.5 145.7 623.4 150.9 622.1 155.3 620.4 157.8 621.6 159.2 622.4 162.7 621.4 165.2 621.2 167.3 622.9 170.7 625.4 175.6 626.6 177.5 628.2 184.4 628.1 193.2 627.2 197.1 625.2 200.3 624.3 204 622.3 207 622.13 207.14 654.19 203.77 654.29 205.13"/><polygon class="cls-1" points="454.63 66.14 455.36 67.42 455.04 72.88 454.6 73.86 457.2 82.62 458.54 85.2 459.24 99.25 460.26 101.99 459.86 107.78 462.75 115.26 463.05 121.06 462.95 123.24 462.95 123.24 462.84 125.58 461.79 127.92 458.75 129.78 458.61 130.36 460.2 132.7 460.53 134.18 462.93 134.73 464.75 137.04 464.55 176.05 492 176.05 528.28 175.15 545.96 174.49 545.05 170.75 544.87 167.97 542.96 165.36 540.17 164.62 534.72 160.84 534.13 157.61 527.82 154.5 527.66 153.45 524.65 153.45 522.3 150.67 519.99 149.17 520.72 143.85 519.83 142.26 520.37 136.47 521.33 134.75 521.08 132.53 520.22 131.6 518.05 131.24 518.05 128.73 521.01 122.59 526.74 118.81 526.31 105.03 527.88 105.72 527.88 105.72 527.99 104.58 529.66 103.46 531.23 104.81 531.32 104.8 530.5 103.3 534.8 100.2 537.9 96.5 539.5 95.7 544.2 89.8 550.5 84 554.4 81.9 560.7 79.2 568.3 74.7 567.7 74.3 564 75 561.2 75.1 560.2 73.5 558.8 72.6 549 73.8 548 71 546.4 70.9 544.7 71.7 541 74.8 536.9 74.8 534.8 73.8 534.5 72.1 530.6 71.3 530 69.7 529.3 68.4 528.3 69.3 525.7 69.4 515.8 63.9 512.9 63.9 512.1 63.2 509 64.5 508.2 65.8 504.9 66.6 503.6 66.4 503.6 64.7 502.9 63.8 497 63.8 496.6 62.4 494 62.4 492.9 62.8 490.5 61.1 490.8 59.7 490.2 57.3 489.5 56.2 489.3 53.2 488.3 50.1 486.2 48.5 483.3 48.5 483.4 56.5 453.29 56.11 455.7 63.42 454.63 66.14"/><polygon class="cls-1" points="224.25 212.07 255.6 216.76 300.49 222.46 337.22 225.78 340.85 182.34 341.6 182.4 340.85 182.33 344.69 139.17 294.42 133.95 237.81 126.14 235.94 136.13 227.44 190.91 227.44 190.91 224.25 212.07"/><polygon class="cls-1" points="553.3 100.4 552.3 100.7 552.1 101.4 553 101.3 553.3 100.4"/><polygon class="cls-1" points="551.2 101.6 549.7 103.2 549.9 103.7 551.4 103.1 551.4 102.5 552.3 102.2 551.7 101.5 551.2 101.6"/><polygon class="cls-1" points="554.1 99.3 554.2 98.3 552 98.8 551.8 99.7 553.5 99.7 554.1 99.3"/><polygon class="cls-1" points="555.7 97.2 555.8 95.8 554.8 95.8 554.5 97.7 555.7 97.2"/><polygon class="cls-1" points="531.81 106.24 530.77 106.39 529.54 105.34 529.41 105.42 529.32 106.48 528.12 107.47 527.89 107.37 528.26 119.59 522.19 123.61 519.55 129.07 519.55 129.97 520.98 130.2 522.52 131.87 522.87 135.06 521.83 136.93 521.37 141.94 522.28 143.55 521.61 148.43 523.37 149.62 525.35 151.95 528.94 151.95 529.18 153.5 535.47 156.59 536.08 159.96 540.91 163.31 543.85 164.04 546.34 167.43 546.54 170.59 547.63 175.02 546.9 175.2 547.65 175.14 547.82 177.41 549.78 178.9 550.64 180.48 548.94 183.99 548.86 186.18 550.71 191.28 553.07 192.59 556.62 193.34 557.87 196.02 603.24 193.25 603 190 603.4 187 602.1 185.5 602.1 182.8 601 181.9 601.5 180.8 600.7 179.1 601 178.8 600 177.3 601.5 172.3 602.6 168.2 602.2 164.5 601.9 162.9 602.8 159.8 602.5 157.9 604.9 156 604.8 154.7 604.2 152.7 604.5 148.5 607.3 141.3 608 140.8 609.2 136.3 609.8 136.2 610.5 134 610 132.8 611 132.7 611 130.7 609.6 130.6 608.6 131.5 608.6 133 606.8 134.1 606.4 136.2 605.7 137.1 604.9 140.4 601.4 141.5 599.8 145.7 597.8 146.8 597.3 148.4 596.5 149.1 595.9 148.4 596.1 145.3 598.5 141.9 598.3 139.6 601.2 138.8 601.5 135.8 601.5 135.8 601.32 136.53 599.82 136.15 598.47 133.99 599.52 131.03 599.47 130.98 598.75 131.56 595.35 131.39 597.05 127.74 596.96 123.82 596.13 123 592.34 122.3 590.84 120.8 591.86 119.78 591.13 119 586.57 118.25 583.58 118.47 582.8 117.9 578.8 117.1 577.39 116.1 560.28 112.27 557.24 108.43 555.54 107.8 555.8 107.1 553.9 106.4 550.6 104.5 550.6 105.9 548.3 107 547.9 106.1 549.3 104.5 548.8 103 550 101.6 550.8 100 548.6 98.4 547.6 99.4 547.3 98.9 545.5 100.6 543.7 101.5 543.3 100.7 542.6 101.9 541.4 101.9 541.1 102.9 534.3 105.5 531.7 105.5 531.7 105.5 531.81 106.24"/><polygon class="cls-1" points="610.7 129.3 612 131 613.1 127.7 611.1 128 610.7 129.3"/><path class="cls-2" d="M205.13,482.9v55l36,45m-251-168h147l68,68h85l54,54v46"/><path class="cls-1" d="M793.4,246.59h0l-.18.29-.21.31-.18.29-.24.37-.2.3-.1.16,0,0h0s0,0,0,0h-.06v0a0,0,0,0,0,0,0h0v0h0v-.08h0l0,0v0l0,0h0V248h0v-.09s0-.07,0-.1,0-.08,0-.13,0,0,0-.06a.22.22,0,0,1,0-.11h0a.18.18,0,0,0,.05-.08l0-.09h0s0,0,0,0h.08l0,0h0l0,0h0l.16-.13a.13.13,0,0,0,0-.06l0-.1a.15.15,0,0,0,0-.09v-.21h0a.19.19,0,0,1,0-.08v0l0,0s0,0,0,0v0h0v0h0l0,0,0,0h0s0,0,0,0h0s0,0,0,0l0,0v0h0l.09.06.39.25,0,0Z"/><path class="cls-1" d="M790.67,246.7h0l-.07-.05,0,0-.06,0,0,0,0,0,0,0h0l.08-.12h0a0,0,0,0,1,0,0h0a0,0,0,0,0,0,0h0v0l0,0,0-.05.12-.19.25-.37c.07-.12.15-.24.23-.36l.07-.11h0l.11.06.13.09.33.22.31.2.31.2.26.17.17.11h0l0,0s0,0,0,0l0,0h0l0,0v0s0,0,0,.06h0l0,0h0l0,.05v0a.19.19,0,0,0,0,.08v.05s0,0,0,0h0a0,0,0,0,0,0,0h0s0,0,0,0h0s0,.08,0,.12,0,0,0,.05a0,0,0,0,1,0,0l0,0a.36.36,0,0,0-.14.11l0,0,0,0a0,0,0,0,1,0,0h-.1l0,0,0,0,0,.1h0a0,0,0,0,1,0,0h0v0H792v-.06a.19.19,0,0,0,0-.07,0,0,0,0,0,0,0v0h0s0,0,0,0v0l-.06,0-.08,0h0s0,0,0,0v0h0a.39.39,0,0,1,.1.08l0,.07v0a.29.29,0,0,0,0,.09l0,.09v0h0l0,0,0-.06-.06-.09a.8.8,0,0,0-.13-.13l-.07,0h0s0,0,0,0h-.06s0,0,0,0l0,0h0a0,0,0,0,0,0,0l0,0,0,0,0,0h0l-.1-.06,0,0h0s0,0,0,0h0a.05.05,0,0,1,0-.05v0a0,0,0,0,0,0,0l-.05,0h-.18l-.09,0h-.11l-.06,0-.06,0-.06,0,0,0s0,0,0,0h0s0,0,0,0Z"/><path class="cls-1" d="M791.3,247.09h0l0,0a.46.46,0,0,0,.07.07l.07.05.07,0h0v0h-.05v0l0,0h-.08l0,0-.09-.11Z"/><path class="cls-1" d="M791.24,246.92h.08v0a1.17,1.17,0,0,0,0,.11v0h0a.1.1,0,0,1-.05,0v0l0,0h0a.06.06,0,0,1,0-.06Z"/><path class="cls-1" d="M792.62,246.9h0l0-.08s0,0,0-.06v0a.25.25,0,0,1,0-.07h0s0,0,0,0h0a0,0,0,0,0,0,0h0s0,0,0,0h0v0h0a.17.17,0,0,1,0,.07v0a0,0,0,0,0,0,0,.49.49,0,0,1,0,.12s0,.06,0,.08a.08.08,0,0,1,0,0Z"/><path class="cls-1" d="M792.63,246.79s0,0,0-.06h0a.08.08,0,0,1,0,0v0Z"/><path class="cls-1" d="M792.79,246.35l0,0v0h0Z"/><polygon class="cls-1" points="751.1 574.4 752.8 574.3 752.1 573.3 751.1 574.4"/><polygon class="cls-1" points="771.6 568.4 772.7 568.5 775.6 565.7 772.6 567.1 771.6 568.4"/><polygon class="cls-1" points="786 552.7 785.2 553.7 784.2 556.3 783 557.9 782.3 559.6 780.4 561.8 780.4 562.7 783.1 559.9 785.5 556.4 786.1 554.4 788.2 549.5 787.7 547.1 786 552.7"/><polygon class="cls-1" points="778.3 563.1 776.9 565.1 778 564.9 779.5 563.3 779.4 562.8 778.3 563.1"/><polygon class="cls-1" points="745.56 440.35 741.87 440.66 737.55 439.86 736.23 439.17 734.75 440.11 734.75 441.97 736.18 444.11 735.59 449.18 732.56 450.05 731.1 448.45 730.59 445.69 680.67 448.98 677.38 443 629.64 447.99 629.3 449.97 631.44 452.37 633.18 453.08 634.36 454.67 633.93 462.52 634.3 462.1 644.8 459.4 654 458.9 662.1 460.8 670.6 465.8 673 466.6 675.2 468.6 675.1 471.3 677.5 471.3 679.4 470.3 681.9 470.4 683.9 469.6 686.8 467.6 689.9 464.7 691 464.3 691.6 464.8 693 464.8 693.5 464 693 462.8 692.4 462.2 692.6 461.4 694.6 460.3 699.6 459.9 700.4 460.9 701.4 461 703.7 462 706.7 463.8 707.9 465.5 709 466.7 711.8 468.1 711.8 470.5 714.6 472.4 715.6 472.5 717.2 473.9 717.9 475.5 718.9 475.7 719.7 477.8 720.4 478.4 721.4 477.3 724.3 477.4 724.8 478.8 725.9 479.7 725.9 481 728.8 483.2 729 492.8 727.2 498.6 728.2 499.8 728 503.2 727.2 504.6 727.9 505.8 730.2 508.1 730.5 509.6 731.3 510.6 730.9 508.7 732.2 508.1 733 504.5 730 503.3 730.1 502.7 732.7 502.3 733.6 504.9 734.7 505.5 734.8 503.5 735.9 503.8 736.5 504.6 736.4 505.3 733.5 509.5 733.3 510.6 731.6 512.5 731.6 513.6 735.3 517.4 740.6 525.3 742.4 527.4 742.4 529.2 745.2 533.8 747.5 534.4 748.2 533.2 746.1 533.5 743.1 529 743.3 527.6 744.8 526.8 744.8 525.3 744.2 524 745.1 523.1 745.5 524 746.2 524.5 746.2 528.5 745 527.9 744.2 528.8 745.6 530.4 746.6 533 747.8 532.4 750.1 533.6 752.2 535.8 753.8 540.9 756.9 545.7 757.7 544.4 760.5 543.9 763.7 545.2 764 546.9 767.3 550.7 767.4 551.8 769.6 554.5 768.9 555 768.9 557.7 771.6 559.1 773.1 559.1 775.8 557.3 777.3 557.6 778.4 558 780.7 556.3 780.9 555.6 782.1 555.9 784.5 554.2 785.8 551.9 785.1 548.7 784.9 547.4 786 543.4 786.6 543.2 787.2 544.8 788 543 787.2 535.8 786.8 525.3 785.8 518.5 785.1 516.8 778.5 505.7 773.3 496.6 771.1 493.3 769.8 489.7 769.6 486.3 770.5 486 770.5 485.1 769.4 482.9 765.4 478.9 757.8 469.2 752.1 458.8 747.8 448.1 747.2 444.4 746 443.4 745.5 439.6 745.5 439.6 745.56 440.35"/><polygon class="cls-1" points="767.6 567.6 765.2 568.5 763.7 569.1 760 572.4 758.4 572.6 758.4 573.3 760.7 573.4 764.6 570.9 767 570.9 769.6 569.7 767.9 568.9 767.6 567.6"/><path class="cls-1" d="M874.55,235.86h.81a8.94,8.94,0,0,0,.65.84q16,16,31.93,32a4.58,4.58,0,0,0,.86.57v.28a3.36,3.36,0,0,0-.43.31Q895.29,283,882.25,296.2a2.43,2.43,0,0,1-2.74.76,3.2,3.2,0,0,1-1-2.54,33.77,33.77,0,0,1,2.71-12,7.72,7.72,0,0,1,1.07-1.7c.71-.91,1.55-1.72,2.21-2.66a1.16,1.16,0,0,1,1.53-.59,2.82,2.82,0,0,0,1.78-.2c.94-.41,1.76-1.09,2.7-1.53a7.72,7.72,0,0,0,4.77-6.38l.33-2.68.7-1.19.42-.9-.3-.26c-.54.45-1.34.8-1.58,1.38a12.19,12.19,0,0,0-1.18,4.19c-.06,2.3-.89,3.9-3,4.79a11.39,11.39,0,0,0-2.33,1.37,1.89,1.89,0,0,1-2.22.33,1.76,1.76,0,0,0-2.35.73c-.79,1-1.66,2-2.65,3.15-.36-1.74-.57-3.05-.9-4.33-.38-1.47-1.58-2.14-3-2.71,2.69,2.07,2.86,4.82,2.44,7.77-1.21-2.46-2-5.19-4.54-6.95l1.87-1.27-1.58-1.5-1.28.77.88,1.47-.3.23a32,32,0,0,1-2.52-2.41,3.88,3.88,0,0,1-1.16-2.18c.09-1.71-.82-2.39-2.18-2.77a19.12,19.12,0,0,0-3.56-.75,7.31,7.31,0,0,1-4.9-2c-.66-.65-.9-1.7-1.48-2.45-1.36-1.76-2.82-3.43-4.42-5.36,1-.62,1.78-1,2.49-1.51a2.61,2.61,0,0,0,.62-.62,20.14,20.14,0,0,1,1.72-2.34c4.58-4.63,9.22-9.22,13.82-13.83C873.67,237,874.09,236.41,874.55,235.86Z"/><path class="cls-1" d="M895.59,266.64l-.82,2.94a3.24,3.24,0,0,1,.8-3.87c.16-.17.48-.18.72-.26Z"/><path class="cls-1" d="M869.32,270.42l4.07,4.73-.36.32C872.15,273.6,869.34,273.37,869.32,270.42Z"/><path class="cls-1" d="M868.33,267.31c1.78.16,2.15.92,2,3.19l-.35.17Z"/><path class="cls-2" d="M847.1,315h55l45-36m-100,36V230l54-54h46"/></svg>