<?xml version="1.0" encoding="utf-8"?>
<!-- Generator: Adobe Illustrator 25.4.1, SVG Export Plug-In . SVG Version: 6.00 Build 0)  -->
<svg version="1.1" id="Layer_1" xmlns="http://www.w3.org/2000/svg" xmlns:xlink="http://www.w3.org/1999/xlink" x="0px" y="0px"
	 viewBox="0 0 2784.6 2485.4" style="enable-background:new 0 0 2784.6 2485.4;" xml:space="preserve">
<style type="text/css">
	.st0{fill:#A62B2A;}
</style>
<polygon class="st0" points="2784.6,922.3 2782.9,924 2779.5,931.9 2777.1,935.5 2775.6,938.9 2774.2,943 2772.6,946.3 
	2771.3,950.3 2770.6,954.9 2770.1,957.5 2769.2,959.8 2767.8,961.9 2766.8,963.3 2765.3,965.3 2764,966.9 2762.9,969.9 2762.3,973 
	2762.8,977.2 2763.1,978.7 2762.8,981.3 2762.7,981.7 2762.2,982.6 2761.8,983.3 2760.8,984.5 2758.9,987 2758.1,987.9 2756.1,991 
	2753.7,996 2752.1,1001.2 2750.1,1007.2 2748.6,1012.9 2747.3,1020.2 2746.3,1023.7 2745.9,1027.4 2745.4,1029.2 2744.7,1030.7 
	2743.3,1032.4 2741.3,1036.1 2739.9,1038.7 2738.5,1041.9 2737.5,1046.6 2736.9,1048.5 2736.4,1052.1 2669.8,999.7 2645.6,981 
	2624.6,965 2622.8,963.4 2593.9,941.2 2537.8,897.7 2509.6,874.5 2498.9,865.9 2487.6,856.8 2434.3,816.9 2432.3,825.9 
	2431.4,830.7 2432.1,834 2432.6,835.2 2432.6,839.1 2432.6,840.8 2432.5,841.7 2432.4,842.1 2431.5,843.4 2430.2,846 2429.6,850.1 
	2430,852.9 2431.1,856.2 2431.3,856.8 2430.6,857.6 2428.4,861.8 2426.5,865.1 2426,870.1 2427.1,874.6 2429.4,878.3 2432.5,881.3 
	2433.3,882.7 2433.9,884 2434.2,885.5 2434.2,885.9 2433.7,886.9 2431.3,891 2427.3,897.5 2425.3,901.1 2423.5,905.2 2426,910.2 
	2429.3,912.7 2432.6,913.2 2435.3,913.8 2434.8,914.8 2434.2,918.5 2433.4,921.6 2431.9,925.1 2429.3,930.7 2427.3,933.7 
	2426.1,935.6 2425.6,936.2 2423.9,938.8 2421.7,941.5 2419.2,944.4 2417.7,946.1 2415.5,949.1 2414.8,950.1 2412.1,954.8 
	2411.4,955.7 2411.1,956.1 2409.5,957.1 2407.7,958.4 2406.3,959.8 2405.2,962.5 2404.5,964.6 2403.5,966.9 2400.7,970.9 
	2399.5,972.4 2397.6,974.8 2395.4,979.6 2396.8,985.6 2400.1,987.4 2404,989.3 2404.9,989.8 2404.9,991.3 2404.7,993 2403.6,996 
	2403,997.3 2401.8,999.5 2399.1,1003.5 2393.2,1011.2 2389.8,1015.8 2388.6,1018.3 2386.9,1022.7 2389,1027.7 2390.9,1029.5 
	2392.1,1030.3 2392.6,1030.7 2392.4,1032.3 2393.8,1036.7 2398.5,1041.9 2402.6,1044.5 2404.3,1045.8 2403.1,1047.2 2399.5,1049.7 
	2395.7,1053.1 2392.2,1056.6 2390.1,1060.2 2388.6,1063.1 2387.4,1066.7 2386.7,1068.3 2385.2,1071.2 2383.8,1073.4 2382.4,1075.3 
	2377.4,1080.4 2375.7,1081.4 2374.3,1082.3 2371.3,1083.6 2369.4,1084.1 2368.5,1084.3 2367.8,1084.3 2363.9,1085.6 2360.4,1088.2 
	2358,1090.3 2355.9,1092.7 2352.6,1096.4 2346.5,1105.8 2343.8,1109.6 2341.9,1112.2 2338.1,1116.6 2334.1,1119.6 2331.4,1121.8 
	2328.8,1124.2 2324.4,1130.2 2320.7,1135 2310.6,1146.7 2322.2,1157.1 2319.2,1161.1 2315.8,1164.9 2309.6,1173.4 2306.7,1178.1 
	2304.1,1183.5 2302.9,1185.8 2302.4,1184.9 2301.2,1183.9 2298.4,1182.1 2297.6,1182.1 2295,1178.8 2291.1,1176.5 2287.6,1177.4 
	2285.4,1178.4 2283.3,1180.6 2282.4,1181.8 2281,1184.6 2280.1,1186.6 2278.7,1188.8 2278.2,1189.4 2276.2,1190.7 2273.5,1191.8 
	2271.5,1194.4 2269.6,1197.4 2268.3,1199.9 2267,1202.9 2265.6,1205.3 2263.9,1209.4 2261.5,1213.9 2258.6,1218.7 2257.7,1219.7 
	2256.2,1220.5 2254.7,1221 2251.5,1222.4 2249.9,1224.2 2249.5,1224.8 2248.4,1226 2247.1,1227.1 2246.3,1227.7 2244.8,1228 
	2245.3,1223 2244,1219.6 2240.9,1216.6 2237.3,1215.6 2233.8,1215.6 2230.3,1216.9 2227.9,1218.2 2223.5,1220.4 2219.9,1223.6 
	2217.2,1226.7 2214.7,1231.2 2212.9,1234.7 2211.8,1236.1 2209.7,1238.6 2209.4,1238.8 2206.9,1239.9 2204.4,1241.5 2202.6,1242.8 
	2200.9,1244.2 2198.6,1246.4 2197.5,1247.7 2193.8,1252.7 2191.2,1257 2188.7,1260.9 2186.4,1265.4 2184.7,1268.6 2183.9,1270.2 
	2181.7,1276.5 2180.2,1282.3 2176.8,1289.6 2173.7,1297.2 2171.9,1300.8 2171.4,1301.8 2168.5,1305.9 2165.1,1311.4 2160.1,1320.8 
	2159.3,1322.4 2156.6,1327.3 2155.6,1329.5 2153.6,1333.7 2152.9,1336.4 2080.9,1275.9 2074.3,1282.2 2072.8,1286.6 2072.8,1289.5 
	2073.4,1291.2 2072.2,1292.9 2070.8,1295.8 2070.4,1297.5 2070.1,1298.4 2069.7,1300.1 2068,1300.8 2064.6,1303.1 2062.3,1306.1 
	2061.3,1307.8 2060.3,1309.7 2059.6,1311.5 2059.2,1314.8 2059.2,1317.1 2059.3,1319.3 2059.1,1321.3 2057.8,1321.2 2053,1321.3 
	2046.4,1323.8 2044.1,1326.1 2043.3,1327.4 2041.7,1330.1 2041.9,1333.4 2042.3,1336.3 2043.1,1338.8 2043.1,1339 2042.4,1342.8 
	2041.7,1344.8 2040.9,1346.7 2040.5,1347.7 2039.3,1350.2 2036.4,1355.1 2032.2,1360.8 2028.6,1367.8 2026.9,1373.2 2025.6,1377.9 
	2024.8,1381.2 2024.4,1383 2023.6,1387.3 2023.2,1390 2022.5,1393.4 2022.5,1397.4 2023.3,1399.6 2023.8,1402.7 2025,1404.8 
	2025.4,1405.4 2025.6,1406.3 2025.6,1407.4 2025.1,1409.7 2024.7,1413 2024.3,1414.9 2022.6,1419.1 2022.1,1421.2 2021.7,1421.5 
	2018.6,1419.2 2015.6,1419.2 2014.1,1419.2 2010.3,1419.8 2007.6,1421.4 2005.9,1422.6 2005.2,1423.4 2003.9,1424.9 2003,1426.1 
	2001,1429.6 1998.5,1433.9 1996.4,1439.2 1992.1,1448.4 1990.7,1451.5 1988.9,1454.1 1987.9,1456.9 1987.2,1459.8 1986.5,1464.4 
	1986.1,1468.6 1985.6,1471.3 1984.1,1475.9 1983.6,1477.6 1983.3,1478.5 1982,1480.8 1980.3,1483.5 1980.1,1484.1 1977.2,1489.8 
	1971.6,1500 1965.2,1511.8 1963.5,1515.3 1961.1,1520.6 1959.6,1524.6 1958.5,1529.5 1957.6,1532.9 1957.7,1536.6 1958.1,1538.7 
	1958.9,1541.3 1958.9,1541.4 1958.8,1541.8 1958.6,1542.1 1957.5,1543.3 1955.7,1545.4 1953.8,1548 1952.6,1549.9 1951.3,1552.6 
	1950.8,1553.8 1949.1,1555.8 1947.1,1557.2 1943.5,1559.3 1941.8,1561.7 1941.1,1563 1939.8,1565.8 1939.4,1568.5 1939.2,1569.9 
	1938.7,1570 1935.4,1571.3 1931.8,1574.9 1930.6,1576.4 1927.9,1579.8 1926,1581.7 1925.1,1582.4 1923.9,1583.3 1921.6,1585.1 
	1919.9,1586.7 1918.4,1588.7 1917.6,1593.7 1917.7,1594.1 1916,1594.6 1914.9,1594.8 1913,1595.6 1911.4,1596.6 1907.2,1599.7 
	1906.8,1599.8 1903.4,1599.5 1897,1597 1880.1,1591.4 1861.4,1585.3 1848.4,1581 1816.1,1570.4 1805.6,1545.6 1797.2,1529.9 
	1792.7,1522.2 1788.5,1515.2 1783.5,1508.3 1781.5,1505.1 1780.1,1503.1 1777.8,1500.7 1774.1,1498.4 1767.4,1495.5 1762.1,1493.7 
	1758,1492.3 1756,1491.8 1752.1,1490.3 1747.9,1488.5 1736.9,1482.8 1730.9,1479.6 1724.2,1476.2 1718.3,1473.5 1717.1,1472.9 
	1714.7,1472.5 1714.1,1472.5 1710.1,1472.8 1706.6,1475.4 1704.9,1478.2 1703.6,1481.1 1702.3,1483.5 1701.9,1485.3 1701.6,1486.3 
	1701.1,1487.1 1700,1488.2 1697.9,1491.9 1697.4,1493.9 1697.4,1495.8 1697.8,1497.9 1697,1498.4 1695.5,1501.6 1694,1505.6 
	1693,1511.6 1693.7,1517.2 1694.4,1519.1 1692.9,1522.3 1692.9,1526.2 1694.3,1528.8 1695.6,1530.8 1696.2,1531.6 1694.6,1532 
	1690.5,1532.6 1688.2,1535.9 1686.4,1538.1 1685.5,1540.4 1684.9,1541.6 1684.4,1542.3 1683.7,1542.9 1682,1545.1 1680.1,1548 
	1679.4,1550.3 1679.3,1551.2 1679.1,1551.9 1678.6,1554.4 1678.7,1558.5 1678.7,1561 1678.5,1562.4 1678.3,1563.5 1678.1,1564.8 
	1678.1,1568 1678.9,1570.3 1681.5,1573.5 1682.5,1574.9 1683.1,1576.3 1683.6,1578 1683.6,1578.9 1683.4,1580.1 1682.7,1581.5 
	1681.5,1585.4 1682.2,1589 1682.3,1589.4 1681.6,1592.5 1681.6,1593.4 1680.4,1595.3 1680,1596.9 1679.5,1598.2 1678.9,1599 
	1677.2,1600.7 1675.6,1602.7 1674.3,1604.7 1672.7,1607.4 1671.8,1608.7 1669.7,1611.4 1667.9,1614.6 1666.6,1616.7 1666,1618.4 
	1665.6,1619.4 1664.8,1620.7 1663.7,1623.2 1662,1626.6 1659.9,1632.4 1659.5,1634.9 1659,1639.3 1660.4,1642.9 1661.4,1644.2 
	1661.6,1644.7 1661,1645.5 1660.1,1646 1659.2,1646.2 1656.4,1645.8 1655.4,1645.5 1652.4,1645 1649.7,1645.1 1647.1,1645.9 
	1645.5,1646.8 1644.2,1647.8 1642.7,1649.3 1641.2,1651.2 1640.1,1652.7 1639.2,1655.3 1638.3,1657.4 1637.9,1658.4 1636.2,1661.9 
	1634.6,1663.5 1633.1,1665.1 1630.5,1666.8 1626.9,1669.8 1624.4,1672.1 1622.9,1673.9 1621.3,1676.2 1618.9,1679.1 1617.4,1681.1 
	1616.5,1683.1 1615.8,1685.2 1615.7,1687 1615.6,1691.1 1618.1,1695.2 1619.9,1697.3 1620.6,1698.4 1621.4,1699.3 1623.6,1701.4 
	1624.5,1702.5 1626.9,1707.7 1627.5,1710.6 1627.9,1712.2 1626.2,1713.1 1623.9,1714.4 1622.3,1715.2 1621.4,1715.6 1618.2,1716.2 
	1614.8,1719.5 1612.9,1723.2 1612.8,1723.5 1611,1724.2 1609.2,1724.2 1607.8,1724.9 1605.4,1726.4 1603.5,1728.5 1603.2,1729.1 
	1602.1,1729.3 1599.8,1730.1 1597.2,1731.3 1594.4,1734.1 1592.7,1736.5 1592.3,1736.9 1591.5,1737.4 1589.5,1739.1 1587.4,1741.2 
	1586.9,1742.1 1586.2,1743.2 1584.7,1746 1580.5,1752.1 1579.7,1752.9 1579.2,1753.3 1578.3,1753.9 1577.4,1754.5 1573.2,1756.5 
	1570.4,1758.9 1567.1,1763.5 1565.9,1766.7 1565.3,1767.2 1564.4,1767.8 1562,1768.5 1556.4,1771.4 1554.2,1774.5 1552.7,1778.4 
	1553.4,1782.7 1553.8,1783.7 1553.2,1785.5 1554.9,1789.8 1554,1791.2 1554,1794.2 1554.1,1796.2 1554.1,1796.4 1551.8,1798.8 
	1550.2,1801.3 1548.9,1804.2 1548.2,1806.6 1548.1,1806.9 1544.4,1808.5 1542.4,1810.1 1540.8,1812.5 1540.2,1815.3 1540.3,1817.8 
	1540.6,1820.7 1540.7,1822.2 1541.2,1827 1541.7,1828.7 1544.1,1832.5 1545.8,1834.1 1547.2,1835.1 1545.8,1836.9 1542,1840.8 
	1540.5,1842.8 1538.1,1845.6 1536.1,1848.8 1534.5,1852.3 1531.2,1859.9 1530.4,1861.5 1530.2,1862.3 1529.5,1864 1527.8,1869 
	1525.2,1877.4 1523.9,1881.6 1523.1,1883.6 1522.1,1886.1 1521,1887.8 1519.7,1890.1 1518.1,1891.9 1516.3,1895 1515.2,1896.9 
	1513.1,1898.9 1511.5,1901.3 1510.4,1903.9 1509.6,1907.1 1509.3,1909.1 1508.9,1909.9 1507.6,1910.9 1506.4,1912 1503.9,1914.2 
	1500.8,1917 1498,1919.8 1492.2,1925 1489.5,1927.2 1486.8,1930.3 1484.9,1932.4 1484,1933.6 1482.9,1934.8 1481.4,1936.4 
	1478.1,1939.9 1477.5,1940.3 1473.8,1943.4 1471.4,1944.9 1469.1,1946.7 1466.1,1949.4 1464.8,1950.6 1464,1951.4 1462.8,1952.8 
	1460.5,1955.2 1458.2,1958.2 1455.9,1961.9 1455.5,1962.6 1454.9,1963.1 1453,1964.3 1450.2,1966.8 1444.6,1972.3 1441.3,1977.8 
	1439.3,1980.8 1439.1,1981.1 1438.2,1981.6 1436,1983.3 1433.7,1985.4 1431.9,1988.1 1430.9,1989.3 1430.3,1989.7 1428.6,1989.7 
	1424.5,1990.8 1421.8,1992.5 1418.9,1994.9 1414.3,1999.5 1412.3,2002.3 1411.1,2004.1 1409.9,2006.5 1409.5,2007.2 1408.8,2008.5 
	1408.1,2010.2 1407.1,2012 1404.7,2015.9 1403.1,2019.2 1402.9,2022 1402.9,2025.3 1403,2025.6 1402.3,2026.1 1401.3,2026.7 
	1400.9,2027 1399.6,2027.6 1396.7,2029.3 1394.4,2031.9 1391.7,2035.7 1390.3,2039.1 1389.2,2040.8 1387.9,2042.4 1381.8,2048.6 
	1378.7,2052.9 1377.2,2056.3 1376.7,2058.5 1376.4,2061.3 1376.9,2064.6 1377.3,2066.6 1378.2,2068.7 1375.3,2070.7 1370.1,2075.1 
	1366.4,2079.2 1364.3,2083 1361,2087.9 1359.1,2093.1 1358,2095.7 1357.5,2096.8 1356.7,2098.6 1355.7,2103.2 1357.9,2106.4 
	1359.4,2108.2 1360.8,2110.3 1361,2110.5 1359.2,2111.1 1356.3,2113.3 1354.7,2116.1 1350.8,2122.2 1349.7,2124 1348.8,2125.1 
	1347.8,2126.5 1347.1,2127.3 1345.1,2129.1 1342.2,2130.9 1341.2,2131.4 1340.6,2131.6 1338.4,2132.4 1327,2135.9 1350.3,2166 
	1358.3,2173.3 1378.6,2185.5 1377.8,2186.9 1374.3,2190.6 1368,2196.3 1360.7,2202.5 1353.1,2207.4 1341.3,2213.7 1318.8,2226.2 
	1326.5,2241.1 1308.3,2251.5 1339.4,2263.2 1337.6,2265.8 1334.4,2268.8 1331.8,2270.5 1329,2271.9 1323.1,2274.1 1314.9,2276.8 
	1309.9,2278.3 1307.5,2279.5 1304.6,2280.8 1299.9,2284.4 1297.6,2288.9 1297.6,2290.9 1296.3,2291.7 1295.3,2292.2 1292.4,2293.6 
	1279.6,2299.9 1271.4,2304.5 1265.3,2309.1 1259.6,2314.4 1256.4,2316.9 1251.8,2320.9 1250.2,2321.6 1247,2322.6 1244.6,2323.3 
	1241.4,2324.6 1240.2,2322.7 1238.2,2321.5 1236.9,2319.9 1235.5,2317.7 1235.5,2317.7 1235.7,2315.5 1236,2312.6 1236.1,2306.3 
	1234.6,2300.4 1232.6,2295.1 1231.2,2292 1228.7,2288.4 1225.4,2286.6 1221.8,2285.2 1217.8,2285.8 1214.2,2286.6 1206.7,2288.7 
	1201.2,2289.8 1194.9,2291.7 1190.8,2293.6 1183.9,2297.2 1180.1,2299.8 1175.5,2303.4 1170.2,2307.7 1165.4,2311.1 1163,2312.7 
	1160.5,2314.2 1154.6,2317.4 1148.6,2321.7 1143.6,2325 1134.8,2331 1124.7,2336.9 1116.4,2341.2 1104.3,2348.2 1095.6,2352.9 
	1092.8,2354.4 1089.5,2356.1 1083.1,2358.7 1076.9,2361.3 1072.1,2363 1071.4,2361.3 1068.9,2356.3 1065.5,2351.6 1062.1,2349.7 
	1058.7,2348.6 1055.9,2348.6 1055.4,2348.5 1050.9,2342.5 1046.8,2337.8 1041.4,2333.7 1037.2,2329.9 1032.9,2326.8 1028,2325.9 
	1025.3,2325.9 1024.3,2325.3 1016.9,2319.7 1010.4,2329.9 1007.4,2335.1 1007.4,2339.4 1007.8,2341.9 1007.9,2342.6 1001.5,2352.7 
	999.4,2356.1 997.7,2361.1 998.6,2366.2 1001.5,2370.2 1004.5,2373.7 1006.3,2375.6 1014.7,2386.4 1014.3,2386.6 1011.8,2388.5 
	1007.3,2391.5 1003.4,2394.5 1000.6,2397 994.4,2403.1 990.9,2406 984.2,2410.3 978.8,2412.9 970.9,2416.8 968.5,2417.8 
	958.7,2421.4 957.4,2421.8 954.7,2422.4 953.4,2422.5 952.8,2422.5 951.4,2420.4 949.8,2418.2 946.1,2416 941.5,2415.3 
	936.2,2417.1 928.5,2419.5 925.3,2420.4 915.4,2423.4 910,2424.4 902,2426.1 894.2,2427.1 887.1,2428.6 879.6,2429.9 872.7,2431.7 
	862.5,2434.7 855.6,2437.6 849.5,2439.6 840.5,2442.7 834.1,2445.8 828.7,2448.5 823.7,2451.6 818.2,2454.8 812,2459 811,2459.7 
	808.7,2461.2 805.2,2463.2 804,2463.6 797.8,2458.1 757.1,2422.2 730.4,2391.5 725.6,2389.1 719.9,2391.4 716.2,2399.3 
	715.3,2401.1 712.9,2401.9 710.6,2402.5 709.3,2402.7 707.6,2403.3 704.1,2405.5 702.3,2407.4 700.5,2409.8 699,2412.6 
	698.1,2415.6 697.7,2417.5 696.7,2419.4 695.5,2422.5 694.2,2425.3 693.4,2427.5 691.6,2431.7 690.2,2434.2 689,2435.4 
	687.8,2436.5 685.8,2437.1 684.2,2437.2 682.5,2436.9 679.9,2436.3 677.3,2437.1 675.2,2437.5 673.3,2438.3 670.2,2439.8 
	666.8,2442.6 664.6,2444.4 662.6,2446.4 662,2447 660.9,2447 657.2,2448.9 654.9,2450.7 654.2,2451.3 653.2,2451.7 651.1,2449.7 
	646.4,2447 641.8,2450 638.8,2453.6 637.1,2457.9 636.7,2461.2 636.1,2463 635.3,2464.7 634.5,2465.7 630.3,2468.4 627.2,2469.6 
	622.9,2471.7 620.5,2472.6 616.5,2474.4 613.3,2476.9 610.8,2479 608.7,2480.6 608.4,2481 606.7,2482.4 542.9,2485.4 542.3,2484.3 
	539.5,2480.7 538.5,2480.1 536,2478.8 534.6,2477.9 532.8,2476.7 530.1,2474.1 526.3,2470.9 523.9,2468.3 521.5,2464.6 
	518.6,2461.5 516.1,2459.9 514.4,2459.2 511.2,2458.6 508.8,2458.6 506.7,2449.2 505,2445 504.1,2443.6 502.3,2440.9 499.8,2438.6 
	499.4,2438.2 498.8,2437.1 497,2434.6 493.1,2432.6 489.2,2432.6 488.1,2432.8 487.6,2432.8 487,2432.4 485,2430.9 482.7,2429.4 
	477.9,2427.4 474.3,2426.7 471.2,2425.7 467.6,2426.3 463.7,2426.8 460.5,2428.4 458.3,2429.6 457.4,2429.9 456.6,2429.7 
	456.2,2429.5 454.7,2428.1 453.9,2427.4 450.8,2425.6 446.1,2423.7 444.5,2423.4 444.4,2422.9 444.6,2419.7 444.5,2416.3 
	443.5,2414.4 441.7,2411.7 438.5,2410.7 438.9,2408.8 438,2404.3 436.4,2401.9 434.1,2399.6 433,2399 431.4,2396.6 430.2,2394.4 
	426,2391.3 421.3,2391.1 419.6,2391.8 418,2390.6 416.6,2388.6 415.2,2386 413,2383.8 410,2379.8 406.4,2377.4 406.2,2377 
	405.3,2375.5 403.9,2373.7 402.8,2372.6 402,2371.6 401.5,2369.6 400.5,2367.9 400.1,2366.3 400.1,2364.8 398.6,2360.4 
	399.2,2355.2 399.8,2352.9 401.1,2346.7 401.2,2345.9 402.2,2345.2 404.9,2341.4 403.7,2335.5 400.4,2331.1 398.4,2329.6 
	397.8,2328.7 397.2,2327 397.1,2326.6 397.3,2324.6 397.9,2321.7 398.3,2320.1 397.9,2316.1 395.4,2312.9 392.1,2311 390.1,2310.3 
	383.5,2306.7 383.1,2306.5 381.7,2305.6 377.1,2305.1 375.6,2302.7 372.6,2300.7 368.5,2298.5 366.4,2298.5 366.1,2298 
	364.7,2295.5 363.8,2292.7 363.9,2291.4 364.1,2290.9 364.4,2290.5 365.3,2289.7 366.4,2289.2 369.2,2288.5 371.5,2287.4 
	372.9,2286.6 375.8,2284.9 376.9,2284.4 377.2,2284.3 377.5,2284.3 380,2284.9 382,2284.8 386.9,2284.1 391,2278 390.6,2276.2 
	391.9,2275.6 394,2271.8 394.7,2271.4 396.4,2270.7 398.9,2268.8 402.2,2267.4 403.5,2262.8 403.5,2259.8 401.6,2255.6 
	396.9,2252.3 393.5,2253 394.9,2248.5 390.4,2244 385.6,2242.5 385.5,2242.5 382.6,2240.2 381.8,2237.2 380.5,2235.2 378.1,2233.1 
	375.2,2232.2 371.8,2231.9 367.5,2233 364.7,2234.9 362.9,2235.2 361,2235.9 360.5,2236.1 359.7,2235.6 352.9,2236 350.3,2239.4 
	348.2,2237.8 342.6,2237.5 340.9,2238.3 340.6,2237.9 339.7,2235.2 335.5,2231.8 328.8,2231.6 324.8,2236.6 324.8,2238.9 
	324.5,2238.9 324,2236.2 317.8,2227.8 314.1,2225.1 309.7,2224.4 308.2,2224.2 301.9,2224.7 301.3,2224.9 299.4,2222.8 
	295.2,2221.4 291.5,2222.4 288.9,2222.4 285.2,2224.2 284.4,2225.1 284.3,2224.5 283.9,2223.7 287.8,2222.3 289.8,2217.8 
	290.1,2216.7 290.5,2214.1 289.5,2208.6 287.9,2204.2 286.3,2201.2 285.4,2200.2 284,2198.8 282.8,2197.5 280.5,2195.6 
	277.9,2195.2 275.7,2195.2 273.1,2195.9 273.1,2188.9 268.5,2185.8 268.7,2185.1 268.4,2179 263.5,2176.9 263.5,2173.1 262.3,2170 
	261.4,2168.8 263,2165.9 262.2,2161.2 260,2157.1 255.5,2155.4 251.8,2154.9 247.6,2155.7 243.7,2158.6 241.5,2162.8 241.1,2169.2 
	242.8,2172.1 239,2172.4 237.7,2173.2 237.5,2173.1 237.5,2173 238.5,2166.9 234.2,2160.1 233.1,2154.7 227.4,2151.2 224.2,2147.4 
	219.1,2146.2 215.8,2146.2 212.5,2147.9 211.6,2148.4 210.7,2148.6 205.9,2145.6 203,2142.9 198,2135.2 193.2,2134.8 193.4,2134.7 
	189.7,2128.4 189.7,2128.3 192.4,2121.4 190.5,2118.3 187.6,2114.7 184.8,2113.2 184.4,2113 182.6,2107.4 180.8,2105.1 
	179.5,2096.2 177.3,2094 174.1,2091.7 176,2090.4 177.7,2086.2 180.1,2085 182.9,2083 184.2,2079.8 184,2075.9 182.5,2073.2 
	181,2071.8 178.3,2070.2 177.3,2070.2 177.8,2067.6 170.8,2062.8 168.5,2062.5 167.8,2059.1 165.7,2055.4 160.6,2054 157.4,2050.6 
	154,2048.9 152.2,2047.9 149.3,2043.9 146.2,2043.1 142.4,2036.4 142,2035.8 138.6,2031.6 133.6,2032.6 134.3,2028.4 127.1,2016.4 
	126.1,2014.8 124.1,2013.2 125.2,2007.7 124.4,2006.8 133.8,2000.8 126.3,1995.7 123.7,1993.9 123.7,1990.5 123.1,1987.4 
	122.2,1985.6 121.4,1984.4 119.2,1982.1 115.5,1979.4 114.8,1978.6 113.1,1975.4 112,1973.2 102.6,1966.4 99.8,1964.7 97.3,1964.2 
	94.8,1960 90.5,1960.9 88.2,1961.5 88.1,1961.4 87.9,1955.9 85.7,1951.6 83.3,1951.2 84,1950.3 83.1,1947.6 83.8,1947.4 
	92.3,1939.8 94.9,1935.5 91.1,1928.2 90.3,1927.7 94,1926.6 95.3,1925.6 98.4,1922.8 98.6,1920.5 98.9,1918.8 98.9,1915.2 
	97.1,1912.5 93.2,1909.3 91,1908.2 88.1,1907.8 86.3,1907.9 86.1,1905.2 80.5,1899.9 75.2,1899.3 68.4,1896 68.1,1895 64.4,1889.7 
	63.6,1882.6 60,1877.8 58.3,1875.8 57.1,1867.6 56.4,1866.5 54.5,1863.1 54.3,1859.4 51,1853.6 50.8,1852.9 50.3,1847.2 
	46.5,1845.1 43.5,1843.8 41.6,1840.8 39.7,1837.9 34,1836.1 31.1,1833.6 30.7,1833.2 30.5,1832.7 30.5,1826.8 30.3,1825.5 
	29.6,1822.7 28.6,1820.8 26.8,1818.3 20.1,1810.7 18.6,1810.2 12.3,1808.4 11.6,1808.2 8.2,1799.6 1.5,1796.5 1.8,1789.6 0,1784 
	6.2,1784.3 8.6,1784.4 14.9,1781.4 18,1777.2 19,1775.4 20.1,1771.2 21.6,1766.5 23.9,1758.8 25.6,1752.6 26,1751.3 26.4,1743.6 
	23.6,1738.5 18.5,1733.9 18.4,1733.4 18.4,1732.6 18.5,1731.5 19,1730.8 25.5,1730.6 27.2,1730.1 31.1,1728.3 31.7,1727.8 
	34.4,1725.2 36,1723.3 39.3,1715.2 40,1704.1 37.8,1695.1 37.1,1691.9 36.9,1687.1 40,1678.7 41.6,1673.7 41,1666.4 38.7,1659.4 
	36.3,1656.6 28.5,1647.9 28.2,1645.9 29.7,1634.8 30.8,1626.2 29,1618.6 28.7,1616.8 29.6,1615.3 30.4,1612.7 30.7,1611.2 
	37.9,1614.5 43.8,1615.9 49.4,1615.9 55.8,1615.4 61.8,1614.6 69.1,1612.4 76,1610.3 85.3,1605.6 91.8,1603.6 95,1602.8 
	99.2,1601.8 107.6,1599.7 115.2,1597.6 118.2,1596.8 123.6,1594.4 129.5,1592.1 130.1,1591.8 132.6,1591.2 134.1,1591.4 135,1591.6 
	137.1,1592.3 139.1,1592.7 142.9,1593.9 145.9,1594 149,1593.7 155,1593 160.4,1591.8 164.8,1590.8 167.7,1590.1 171.2,1589.5 
	173.5,1588.8 175.6,1587.7 178.4,1586.5 182.3,1583.7 185.1,1581.1 188.3,1576.5 188.5,1575.2 189.3,1572.1 190,1570.3 191,1564.3 
	191.6,1562 192.2,1559.7 193,1558.3 194.7,1554.4 196,1549.3 196.6,1545.4 197.3,1539.6 197.9,1535.3 198.2,1531.6 198.9,1527.2 
	199.4,1524.6 201.8,1518.6 203.4,1513 203.9,1510.3 204.3,1507.1 204.8,1504.6 204.5,1499.1 204.6,1495.1 204.6,1493.4 205,1489.8 
	206,1487 206.4,1486.3 207.5,1485 208.8,1484 211.2,1481.9 217.1,1477.1 217.9,1476.8 219.5,1476.6 222.2,1476.6 224.8,1477.1 
	228.2,1478.2 236.9,1481 242,1481.9 244.5,1482.4 249.8,1481.7 254.5,1481.4 257,1480.7 260.4,1479.3 262.6,1477.8 264,1476.7 
	265.6,1475.5 267,1474.3 270.8,1470.3 273.1,1466.1 274.8,1460.6 275.1,1458.3 275.8,1454.5 275.1,1447.5 273.9,1439.6 
	271.6,1434.2 269,1426.3 267,1419 265.6,1413.2 265.4,1412.2 265.1,1409.8 265.3,1408.2 265.8,1405.7 267.2,1402.3 268.7,1398.9 
	269.6,1394.8 269.9,1388.1 268.8,1384.3 268.1,1382.6 266.2,1377.2 264.3,1371.4 263.7,1368.7 263.7,1365.3 263.7,1358.7 
	262.7,1354.8 260.9,1350.7 258,1347.5 255.5,1344.6 253.1,1343.5 252.1,1342.6 250.2,1341.2 249.9,1340.7 249.7,1339.2 
	250.3,1333.5 250.7,1332.2 251.2,1330.8 253.4,1327.5 255.1,1326.1 258.8,1322.8 259.6,1322.1 260.6,1321.5 262.5,1320.1 
	264.4,1319.4 271.3,1316.5 275.1,1315.2 280.3,1311.9 283.4,1309.3 286.8,1305.7 289.7,1302.2 292.7,1297.3 294.4,1292.4 
	295.6,1286.4 296.3,1280.6 296.4,1276.2 296,1271.6 294.3,1265.1 294.2,1264.6 293.9,1261.1 294.1,1258.8 294.2,1258.2 
	295.4,1255.4 296.4,1253.9 298.6,1251.9 300.8,1249.6 303.9,1245.8 306.1,1241.4 311.7,1231.4 313.1,1228.5 315.4,1223.6 
	316.6,1221.1 317.3,1218.8 318.8,1216.1 320.3,1212.7 321.7,1209.3 322,1208.2 322.4,1207.4 323.5,1204.2 324.4,1202.6 
	325.4,1201.4 326,1200.8 331.8,1197.3 334.6,1195.9 338.2,1194.4 343.6,1190.5 346.6,1187.3 348.3,1185.5 349.5,1183.7 
	351.3,1179.3 351.8,1175.4 351.9,1171.7 352.3,1169.4 353.2,1167.5 354.2,1166.1 355.2,1165.6 356.6,1164.8 359.1,1164.6 
	363.4,1165 366.1,1166.1 368.4,1167.6 370.3,1169.2 371.2,1170.8 372.4,1174.8 373.4,1179.5 374.8,1182.4 375.6,1184.2 
	376.5,1185.3 378.7,1188.2 380.6,1189.5 383.1,1191 384.8,1191.4 387.6,1191.8 391.9,1191.7 397.7,1190.1 399.3,1189.4 
	400.5,1189.3 401.4,1189.6 402.2,1190.1 402.7,1190.6 403.9,1192.5 405.9,1197.1 408.3,1202 410.4,1205.7 411.7,1208.1 
	412.8,1211.4 414.2,1216.6 417.9,1223.2 419.7,1227.3 420.6,1229.8 420.8,1230.6 420.7,1230.9 420.2,1231.9 418.6,1234.3 
	416.9,1236.3 413.6,1239.9 408.1,1245.5 406.7,1248.2 405.1,1251.1 404.3,1254.4 404.3,1256.2 404.6,1259 406.2,1262.3 
	408.9,1266.2 413.9,1270.6 415.4,1271.9 419.9,1274.8 426.5,1277.8 430.7,1278.3 434.1,1278.8 440.1,1276.5 441,1275.6 
	444.1,1273.1 447.5,1270.8 450.8,1267.8 456.4,1262.6 458.1,1260.6 462.1,1254.5 463.6,1250.8 464.5,1246.3 465,1242.3 
	465.1,1238.9 465.5,1235.6 465.7,1234.4 466.7,1232.3 467.5,1230.8 468.1,1230 469.7,1228 471.1,1226.9 471.7,1226.5 473.7,1226.9 
	474.3,1227.2 475.6,1227.9 476.6,1229 479.4,1233 482.4,1235.2 484.8,1237.3 487.8,1239.7 489.5,1240.8 491.6,1241.7 494.7,1242.8 
	495.7,1243.1 498.2,1243.6 501.9,1243.7 503.8,1243.4 506.7,1241.9 508.6,1240.6 511.4,1237.4 512.5,1235.1 513.1,1232.7 
	513.1,1229.8 513,1227.9 511.9,1223.8 510,1221.4 508.4,1219 506.9,1216.9 504.5,1214 502.6,1211.1 502.1,1209.5 501.7,1207.6 
	502,1203.4 503,1200.7 504.5,1197.9 506.3,1194.6 507.4,1192.3 509.4,1189.2 511.2,1185.1 511.7,1182.6 512.5,1176.8 512.4,1176.2 
	512.4,1172.9 511.5,1168.4 510.5,1163.9 508.2,1160.5 504.9,1156.3 501.7,1152.7 500.4,1151.4 498.4,1149.6 494.9,1146.3 
	491.4,1143.4 489.3,1140.8 487.5,1136.8 485.9,1131.8 484.8,1128.8 484.4,1127.4 484.4,1126.8 487.7,1128.1 492.8,1129.6 
	502.4,1129.4 507.7,1127.7 511.8,1125.5 513.5,1124.4 516.1,1122.3 519.2,1118.8 521.8,1114.5 523.7,1109.8 524.4,1107 
	524.8,1105.2 525.3,1101.8 525.1,1087.4 525.1,1082.3 524.6,1074.7 523.4,1069.2 521.3,1063 519.4,1057.9 518.6,1055.1 
	518.5,1054.3 518.8,1051.4 518.9,1050.9 520,1049.5 525.5,1045 528.1,1041.4 530.2,1036 532.3,1031.7 533.4,1030.1 534,1029.5 
	534.6,1029.2 536.9,1028.6 543.8,1028.1 546.5,1027.2 550,1025.9 553.1,1022.2 553.7,1019.7 554.6,1014.3 554.6,1011.3 
	554.9,1007.4 554.4,1004.3 553,998.7 552.9,997.3 553.1,996.4 553.8,994.9 555.4,992.4 557.9,990.1 559,989 559.6,988.6 
	561.1,987.8 562.5,987.2 567.9,985.9 571.4,985.4 576.2,985.8 577.7,986 579.9,986.4 582.1,987.2 586.2,988.3 586.9,988.3 
	590.1,988 592.5,987.6 594.6,987.3 600.1,988.3 601.7,989.1 605.8,991.3 608.1,992.3 611.5,993.4 615.9,994.3 618.7,993.6 
	622,992.2 625,988.1 625.6,985.3 625.9,983.7 626.2,981.4 626.4,976.8 626.7,972.9 626.8,967.8 627.2,963.5 627.8,958.6 
	628.7,954.2 629.5,949.2 630.1,945.1 630.1,942.4 630.4,940.3 631.2,936.9 631.5,936.1 632,935.1 633.1,933.5 635.1,931.2 
	636.8,929.5 638.4,928.5 641.1,927.5 651.3,923.1 657.9,918.9 659.3,918.1 660.5,917.3 664.2,914.4 668.2,910.5 671.3,906.4 
	674.5,901.8 676.8,898.2 677.8,896.8 679.6,894.9 681.2,893.1 683.4,891.7 685.1,891 686.6,890.8 689.8,891.1 692.5,892 695.4,894 
	697.3,895.7 699.1,897.5 701,900.3 702.3,902.5 704.4,907.1 706.8,915.1 708.2,920.5 709.6,925 711.7,929.7 715.1,934.2 
	719.5,938.2 724.9,940.3 728.6,941.3 731.8,941.3 734.6,941.1 739.3,939.7 741.1,939.1 745.1,937.5 751.2,932.9 757.3,929.5 
	761.8,926.6 766.5,923.6 768.5,921.8 770.9,919.8 772.7,918.6 775.6,916.9 777.7,916.1 779.6,915.2 781.2,914.3 784,912.3 
	785.8,911.2 787,910.7 790,910.3 792.8,909.1 798.4,907.4 799.3,907.2 802.6,907.2 805.7,908.1 807.1,908.6 809.1,908.9 
	816.6,909.5 821.2,906.9 824.1,904.2 826.1,899.3 827.7,892.9 829.2,888.4 829.6,887.6 837.2,880 839.9,876.2 841.3,874.2 
	842.3,873.2 843,872.7 846.9,870 849.9,869.1 853.3,868 861.2,867.2 865,866.4 868.8,864.9 872.5,862.2 875,858.5 878.1,853.3 
	880.9,848 885.7,840.3 889.5,832.8 893.8,827.2 895.7,824.8 901,819 902.6,817.2 907.7,812.7 915.1,805.4 918.2,800.8 919.1,799.8 
	920.9,797.9 923,796 924.2,795.2 930.8,789.8 933.7,786.2 937.1,782.7 939,780.7 946.5,773.7 952.3,767.8 962.7,758.6 965.4,756.4 
	969.9,752.8 973.7,749.3 976.4,746.7 979.7,744.4 982.2,742.4 984.1,741.6 985.3,741.3 988.1,741.2 991.4,741.2 993.6,741.5 
	995.8,741.9 1000,742.2 1004.3,741.6 1009.5,739 1013.6,734.9 1015.6,731.7 1017.5,728.2 1018.5,725.9 1020.2,719.9 1021.7,713.1 
	1022.1,710 1023.1,701.7 1022.3,691.3 1023,686.2 1023.1,685.3 1023.2,684.9 1023.5,684.3 1024.1,683.8 1025,683 1026.1,682.5 
	1028.2,681.8 1032,680.3 1036.2,678.2 1038.9,675.2 1041.8,671.5 1043.1,665.8 1042.3,661.2 1040.9,658.5 1039.7,656 1037.3,651.8 
	1031.5,643.5 1027.1,638.3 1024.6,635.7 1022.8,633.6 1021.7,631.3 1021.1,629.6 1020.9,627.7 1021.1,626.8 1022.2,624.7 1026,621 
	1030,618.1 1034.9,614.1 1036.9,612.6 1038.5,611.2 1042.2,607 1044.4,602.5 1045.8,598.2 1046.1,595.9 1046.3,594.2 1046.7,589.7 
	1045.8,582.8 1044,573.5 1044.1,571.7 1044.1,571.4 1045,570.7 1056.1,564.3 1059.2,561.3 1061,559.7 1063.3,557 1065.4,553 
	1066.1,548.6 1065.3,543.9 1064.9,541.9 1063.4,538.5 1061.1,535.1 1059.3,532.8 1056.7,527.1 1055.8,524 1055.5,522.6 
	1055.6,522.1 1057.5,521.7 1058.4,521.9 1059.6,522.2 1062.9,524.2 1063.6,524.7 1067,526.7 1071.5,528.8 1075,528.9 1078.8,528.2 
	1080.6,527.1 1083.4,524.9 1085.1,520.1 1085.5,515.4 1085.4,514.3 1084.7,511.1 1083.5,507.7 1081.7,503.1 1080.5,499 
	1079.7,495.9 1079.7,494.5 1080.1,493.1 1081.2,491.4 1084,489 1087.3,486.8 1089.4,484.2 1091.3,482.3 1093.4,477.7 1094.2,474 
	1094.4,472.1 1094.5,469.2 1094.2,464.9 1093.6,460.2 1092.4,449.8 1092.6,445.9 1092.9,443.9 1093.2,440.5 1094.1,437.8 
	1095.7,433.2 1095.9,432.7 1097.1,429.2 1097.6,426.8 1097.9,424.4 1098,423.4 1098.2,417.1 1097.7,413.6 1097,410.8 1095.8,407.6 
	1094.6,404.9 1094,403.1 1093.8,402 1094,401.4 1094.4,400.2 1095.2,398.7 1096.4,397 1098.3,394.9 1100.1,393.2 1102.9,390.8 
	1103.4,390.3 1108.4,385.5 1110.6,381.9 1111.7,376.8 1111.8,371.2 1112,365.9 1110.6,361.7 1110.4,358.3 1110.6,356.7 
	1111.3,352.3 1111.8,349.5 1112.8,345 1113.3,344 1114.1,341 1116.8,336.2 1119.9,330.4 1122.6,326.4 1124.5,323.9 1126.7,320.4 
	1131.1,314.5 1132.4,310.6 1133.5,306.5 1134.2,303.7 1134.7,299 1135.2,295.8 1136.4,291.8 1137,289.4 1138.6,284 1139.2,282.4 
	1140.6,279.9 1141.8,278.2 1144.4,276 1148.3,274.4 1151.7,271.8 1154.6,269.9 1158.2,266.6 1161.1,262.4 1162.1,257.3 
	1162.1,253.1 1161.8,249.6 1161.6,248.5 1161.4,247.3 1161.8,246 1162.8,243.7 1165.1,239.5 1167.4,235.2 1168.2,233.8 
	1169.4,231.5 1170.6,226.5 1171.5,221.7 1170.8,214.1 1169.7,212.1 1169,209.9 1167.8,207.3 1166.4,204.5 1165.4,202.7 
	1165.1,201.2 1164.9,199.7 1165.4,196.9 1166.2,193.7 1167.3,190.5 1167.9,187.2 1167.4,183.9 1166.9,180.4 1164.9,175.9 
	1162.5,173.5 1159.9,171.5 1157.5,170.2 1156.2,169.2 1157.1,168.5 1159.7,166.3 1161,165 1163,162.7 1163.8,160 1164.3,156 
	1164,151.8 1163.5,146.4 1163.5,145.6 1163.7,144.1 1164,140 1164.2,138.6 1164.4,137.9 1166,133.9 1168,129.8 1170.1,125 
	1172.3,119.3 1173.2,114.2 1173.3,108.9 1172.9,107.9 1172.2,105.9 1171.8,103.3 1170.3,99.5 1168.5,95.9 1165.7,92.2 1164.4,90.3 
	1162.9,87.7 1160.6,83.5 1159.2,78.2 1157.4,72.1 1157,70 1156.9,68.4 1156.3,65.5 1154.9,62.8 1153.3,59.7 1152.6,58.7 
	1151.7,57.3 1150.7,55.6 1149.4,53.1 1148.4,50 1146.3,46 1143.6,42.4 1136.7,36 1135.2,34.3 1134.5,32.4 1134.4,31.3 1134.5,30.4 
	1134.6,30 1135.3,28.7 1135.9,27.8 1138.5,25.5 1140.9,23.1 1146,17.3 1147.5,14.8 1148,14.2 1148.8,13.3 1151.1,11.3 1152.2,10.5 
	1154.4,9 1156.3,8.2 1159.3,7.1 1161.3,6.2 1162.9,5.7 1163.7,5.9 1164.4,6 1167.5,9 1170.8,12 1175.2,13.5 1179.4,13.5 1182.1,12 
	1187.2,8.9 1190.2,6 1195.5,2.4 1198.6,1.2 1203.6,0 1204,106.1 1204,163.6 1204.4,246 1204.6,377.2 1204.5,441.8 1204.4,482.4 
	1204.7,507.2 1205.7,635.3 1206.4,665.2 1264.5,665 1395.8,664.1 1551.4,662.7 1584.6,662.1 1637.4,661.7 1767.8,660.6 
	1791.4,660.2 1792,716.8 1792.8,779.4 1792.9,785.9 1790.8,785.7 1790.6,845.4 1790.4,972.8 1790.7,1007.7 1791.1,1033.8 
	1795.1,1035.2 1798.4,1036.1 1801.8,1036.7 1802.3,1036.7 1803.3,1037.2 1807.6,1038.2 1812,1035.1 1813.3,1033.1 1813.9,1031.4 
	1814,1031.3 1816.3,1031.2 1820.9,1030.6 1823.1,1028.3 1824,1027.8 1824.9,1027 1825.9,1026.7 1829,1026 1830.5,1024.3 
	1831.6,1023.3 1832.3,1022.4 1834.1,1021.6 1837.2,1019.1 1838.9,1015.8 1839.4,1012.4 1839.4,1012 1839.7,1011.8 1842.3,1009 
	1842.9,1008.7 1848,1003.6 1850.9,999.5 1852.8,996.7 1855.1,994.2 1856.2,992.2 1857.6,991 1858.2,990.1 1860.5,988.8 1862.4,987 
	1863.4,985.4 1863.5,985.3 1865.1,984.8 1866.5,984.4 1868.2,984 1871.3,982.9 1873.7,981.1 1875.2,979.8 1877.6,978.3 
	1879.4,975.4 1879.5,975.2 1882.1,974.2 1883.9,969.6 1883.5,966.8 1886.8,964.2 1888.8,963.9 1891.6,963.9 1894.6,962.4 
	1894.6,962.4 1897.7,965.2 1902.9,965.8 1905,965.4 1908.3,965.8 1913.6,960.4 1914.1,957.9 1915.9,955.4 1916.5,952.9 1917,950.4 
	1917,948.5 1917.1,947.8 1917.8,945.9 1918.3,945 1918.8,944.3 1919.9,943.9 1922.8,941.6 1924.2,940 1924.5,940.1 1928.1,939 
	1930.8,937.1 1932.5,934.4 1934.5,930.2 1933.8,928.2 1934,928 1935.4,924 1935.1,923.2 1935.6,922.8 1936.6,922.4 1938,921.6 
	1940.4,921 1942.5,920.2 1944.8,919.1 1945.3,918.7 1945.6,918.6 1948.9,918.5 1953.9,918.5 1956.2,913.9 1956.8,912.5 
	1957.6,911.3 1958.8,908.6 1959.6,906.7 1961.6,903.8 1962.8,900.2 1963,900 1963.6,900.3 1966.7,900.9 1970,900.3 1973,898.8 
	1973.1,898.7 1974.4,899.5 1978.1,901.2 1983,899.3 1985.9,895.5 1985.9,890.8 1983.9,886.7 1986,888.8 1992.3,887.2 1995.7,883.7 
	1997.1,880 1997.1,878.9 2001.1,876.2 2002.9,873.8 2004.6,870.6 2004.5,868.1 2005.3,868.2 2008.2,868.4 2014.7,865.8 2014.2,860 
	2013.6,855.8 2012.9,855.1 2013.8,854.4 2015.8,852.5 2017.8,848.3 2017.8,845 2020.1,842.8 2021.3,840.8 2022,839 2022.1,838.1 
	2022.4,838.1 2024.5,837.5 2026.5,837.1 2027.4,836.7 2030.6,836.2 2031,835.9 2033.4,837.3 2037,838.5 2041.8,836.9 2043.5,834.3 
	2045.9,839 2049.9,841.3 2053.2,842 2055.8,841.8 2056.6,841.8 2059.1,842.4 2059.3,842.5 2060.8,843.6 2063.4,845.3 2065.9,847.3 
	2070.7,850.7 2076.3,854.7 2080.9,857 2085.3,859.2 2088.3,860.6 2092.5,861.2 2095.6,860.3 2098.9,858.6 2100,856.7 2101.9,854.9 
	2101.4,849.9 2100.4,848.3 2100.3,848.3 2101.2,846.8 2102.3,842.7 2101.7,841.2 2102.4,840.7 2103.9,839.3 2106.5,837.7 
	2108.9,834.4 2109.4,832.3 2110.4,829.7 2110.2,828.3 2110.2,826.5 2110,826.1 2111.6,824.8 2117,826.6 2122.1,822.3 2123.4,819.8 
	2123.6,818.7 2124.4,817.7 2126.2,815.3 2128,812.5 2129.3,808.7 2130.2,805 2132.8,804.4 2136.2,800.5 2136.5,799 2139.1,799 
	2140.1,798.5 2144.3,796.7 2145.8,793 2147.3,789.7 2148,787.7 2148.4,785 2148.3,784.7 2150.2,783.5 2152,781.9 2153.5,779.9 
	2153.8,779.6 2156.4,775.8 2156.7,775.3 2158.7,771.8 2159.4,768.1 2159.6,766.5 2159.9,766.6 2160.8,767.4 2163.3,768.9 
	2167.1,769.9 2169.4,769.9 2173,769.3 2177.2,766.9 2179.3,763 2180,759 2178.9,754.6 2176.3,751.1 2174,749.3 2172.5,748.3 
	2172.3,748 2171.9,747.5 2173.9,746.1 2174.5,744.3 2174.9,743.9 2175,743.7 2176.1,742.9 2176.8,741.6 2177.4,740.9 2178.8,738.1 
	2179.2,736.1 2179.8,736.1 2180.3,736.1 2182,736.4 2185.6,734.3 2187.3,732 2187.5,731.3 2188.7,727.5 2187.8,724.3 2187.5,722.9 
	2187,720.6 2186.4,716.1 2186.5,715.3 2186.6,715.3 2187,717.1 2188.4,721.2 2190.9,723.4 2193.4,724.5 2194.5,724.9 2193.5,725.7 
	2190.6,728.8 2189.6,732.7 2189.6,734.5 2189.5,736.8 2190.8,740.5 2192.7,741.5 2193.1,742 2193.5,743 2193.7,743.4 2193.7,744.4 
	2195.7,749 2197.2,750.1 2200.3,752.7 2203.8,754.3 2206.6,754.3 2207.5,754.3 2210.6,754.7 2213.3,754.7 2213.7,754.5 
	2216.2,758.9 2219.1,763.5 2223.3,766.2 2224.9,767.2 2226.3,767.7 2228.7,769.7 2232.6,771.5 2233.4,771.8 2234.4,772.3 
	2236.4,772.8 2237.3,773.8 2241.4,777.5 2243.1,778.4 2243.8,778.8 2245.7,780.6 2250.8,782.2 2252,782.5 2253.6,782.8 
	2254.2,783.1 2255.6,783.8 2257.6,784.5 2258.2,784.7 2258.8,784.9 2260.3,785.5 2265.3,786.2 2266.8,786.2 2268.2,786.2 
	2270.8,785.8 2272.6,785.4 2273.9,785.3 2276,784.7 2279.3,784.1 2281.2,783.6 2282.4,783.7 2284.2,784 2288.2,786.2 2290.9,787.1 
	2293.5,786.9 2294.6,786.6 2296.3,789.1 2300.3,790.6 2304.1,790.6 2304.4,791.2 2307.3,793.8 2311,796 2313.8,796.7 2316.4,797 
	2317.9,797 2320.4,796.6 2323.5,795.8 2331.2,793.4 2334.6,792.5 2337.1,792.2 2338.1,792.1 2339.2,792.4 2340.6,792.3 
	2342.6,793.8 2345.9,795.6 2348,796.6 2351.2,797.3 2355.3,796.7 2357.3,795.6 2358.6,795.3 2359.3,794.9 2359.4,794.9 
	2361.3,795.7 2361.8,795.9 2363.1,796.6 2365.4,797.1 2367.1,797.2 2369.5,797.2 2374.3,794.3 2376.6,790.4 2377,789.3 
	2378.1,787.2 2378.7,784.2 2378.5,781.6 2380.6,780.5 2381.5,779.7 2382,780.1 2386.1,780.9 2390.2,780.2 2394.8,776.9 
	2394.8,775.9 2395.7,776.2 2398.5,774.8 2403,771.9 2402.7,767.7 2402.8,764.5 2399.5,759.2 2397.7,757.3 2396.3,756.3 
	2395.1,755.2 2393.9,753.7 2389.1,752.4 2385.5,750.1 2382.1,747.5 2380.2,744.4 2381.9,744.6 2382.5,744.6 2385.1,745.4 
	2385.8,745.7 2387.8,746.9 2389.9,747.9 2392.1,749.5 2397.4,751.8 2403.4,752.6 2408.5,750.7 2411.6,748.5 2414.5,745.5 
	2415.6,740 2414.4,735.8 2412.5,731.8 2408.8,728.9 2406.2,727.7 2405.2,727.3 2404.7,726.9 2402.9,726.1 2400.3,724.7 2399,723.7 
	2398.1,722.8 2395.9,720.8 2394.7,719.2 2399.4,720.5 2400.9,721.2 2402.2,722.3 2403.7,723.8 2405.4,725 2408.3,726.8 
	2408.4,726.8 2409.8,728.2 2412.4,728.7 2415.3,729.7 2416,729.7 2416.6,730.1 2419.8,730.1 2422.5,729 2425.1,727.3 2427.5,723.5 
	2427.3,719 2426,716.7 2425.7,716 2427.8,716.3 2428.2,716.2 2429.7,716.6 2434.7,714.8 2436.8,711.2 2438,707.9 2443.4,709 
	2448.2,710.3 2449.4,710.7 2453.9,712.9 2459.3,715.3 2463,716.7 2466.7,718.5 2470.5,719.7 2476.5,721.4 2479.1,721.3 2482.2,721 
	2484.6,719.5 2487.4,717.2 2488.1,714.6 2488.6,712.4 2488.6,711.8 2488.9,710 2488.9,708.5 2489.1,707.3 2489.8,705.9 
	2490.9,704.3 2492.5,702.4 2494,701 2496.2,698.7 2497.9,697.3 2502.9,693 2506,690.2 2507.6,688.5 2508.1,687.2 2510,684.6 
	2508.5,678.8 2507.4,677.4 2510.4,676.9 2511.8,676.9 2514.7,677.1 2518.1,675.3 2520.2,674.2 2521.7,672.2 2523.8,670.2 
	2525.7,666.1 2526.5,665.2 2527.6,663.6 2528.5,662.9 2529.5,662.4 2532.8,662.5 2538.1,664.3 2545,666.5 2549.5,667.4 
	2555.8,668.8 2563,670.9 2567.6,672.7 2569.6,673.1 2572.8,675.2 2574.3,676.1 2575.7,677.3 2578,679 2580.3,680.2 2584.5,682.5 
	2586.7,684.3 2589.2,686.5 2590.9,688.4 2593.2,691.2 2593.9,691.8 2594.3,692.5 2596.7,695.5 2598.4,697.9 2600.5,699.6 
	2603,701.6 2604.5,702.4 2605,702.7 2606.7,704.8 2608.1,707.2 2610,709.5 2612.6,714.4 2616.9,720.2 2618.6,722.9 2622.2,726.7 
	2624.7,728.3 2627.1,729.2 2630.2,730.1 2632.2,730.3 2638.5,730.3 2644.6,729.3 2645.4,728.9 2648.2,728.1 2649.3,727 
	2650.4,725.8 2652.2,724.4 2653,723.6 2653.3,725.2 2653.4,726.7 2652.9,732.3 2656.5,736.7 2660.5,739 2664.2,739 2666.6,738.7 
	2670.7,736.5 2673,730.3 2673.4,726.7 2673.5,724.4 2677.5,725.6 2685.6,727.1 2689.9,727.7 2691.6,728.2 2693.8,728.3 2697,728.4 
	2699,727.3 2702.2,725.2 2703.7,722.2 2704.5,719.1 2706.6,719.8 2714.8,721.8 2719.3,722.4 2720.1,722.9 2720.5,723.9 2720.8,725 
	2721,726.3 2721.1,728.2 2721.4,731.1 2721.5,732.3 2720.9,735.1 2720.1,737.3 2720.1,737.6 2719.9,738.2 2718.2,740.3 
	2717.5,740.7 2714.8,741.4 2709.1,742.1 2705.6,742.3 2702.6,742.4 2699.5,743.1 2697.6,743.9 2695.4,744.6 2692.5,747.5 
	2691.4,750.2 2690.4,753.2 2691.2,756.2 2692.3,759.5 2695,763 2698.7,765.3 2698.8,765.5 2701.8,767.4 2702.5,768.1 2703,768.8 
	2703.2,769.1 2703.3,769.7 2703.3,770.1 2702.5,773.8 2702.3,777.2 2703,783.1 2706.9,787.8 2709.8,789 2712.4,789.7 2714.8,789.7 
	2714.6,790.4 2714.7,794.3 2716.3,798.6 2719.9,800.8 2722.8,802.3 2724.2,802.3 2728.5,803.1 2729,803.1 2730.8,803.3 
	2732.4,803.4 2734.9,803.4 2736.5,803.9 2740.4,805.5 2742.4,806.4 2741.3,809.3 2742.7,813 2743.4,814.2 2744.9,816.1 
	2745.4,816.6 2744.3,818.1 2741.9,821.4 2742.9,824.8 2744.3,828.5 2746.1,830 2746.2,830.2 2743.4,831 2741.8,834 2740.5,837 
	2741.7,840.7 2742.9,842.9 2745.1,845.5 2747.7,846.8 2750.1,848.3 2761.1,850.2 2763.9,850.5 2767,850.4 2768.5,850.8 2769.4,851 
	2769.8,851.3 2770.6,852.1 2771.2,853.6 2771.8,855.8 2775,860.9 2777.2,865 2778.5,869 2778.8,870.1 2777.5,870.6 2776.3,871 
	2774.4,872.1 2770.9,875.2 2771.2,878.8 2771.2,880.6 2771.6,882.2 2771.9,884.1 2772.9,886.1 2774.2,889.5 2774.8,891.9 
	2775,892.7 2775,894.2 2774.9,895.1 2774.7,896.1 2774,897.6 2772.2,899.5 2770.1,900.9 2769.4,902.3 2767.6,905.2 2768.2,911.1 
	2769.2,912.9 2770.4,914.8 2771.2,915.6 2771.7,916.3 2772.5,917.1 2773.6,917.9 2774.9,918.6 2777.1,919.8 2781.7,921.3 
	2784.3,922.2 "/>
</svg>
