<svg id="Layer_1" data-name="Layer 1" xmlns="http://www.w3.org/2000/svg" viewBox="0 0 4134.84 1459.96"><path d="M2563.53,897.6c35.9-23.68,41.82-57,41.47-94.22q-2.62-277.61-4-555.23c-.13-27.76-9.53-49.9-35.81-70.06,12.06-2.6,19.24-5.22,26.53-5.57,83.59-4,167.18-10,250.79-10.49,56.44-.37,110.77,14.72,157.95,48,54.64,38.52,80.39,91.39,69.35,158-10.38,62.69-50.74,100.51-110,119.74-4.55,1.48-9,3.37-13.11,4.94,27.12,18.92,56.15,34.14,78.87,55.94,77.28,74.15,100.16,165.76,73.38,268.21-16.38,62.65-61.88,99.83-122.65,118.63-47.25,14.63-95.73,15.3-144,8-79.85-12.13-159.45-25.83-239.13-39.07C2583.19,902.73,2573.41,899.89,2563.53,897.6Zm395-161.79c-7.92-43.6-12.45-86.07-23.68-126.69-21.47-77.62-97.15-105.83-161.88-107.93-15.54-.51-22.21,6.1-21.4,22.54,1.33,27.08.79,54.26,1,81.39q.87,112.2,1.76,224.4c.28,30.39,8.93,56.61,38.47,71.18,54.67,27,122.42,3.27,142.38-54C2947.49,811.31,2951,772.85,2958.51,735.81ZM2752.37,347.49h1c0,16.87-.06,33.74,0,50.62s.75,33.75.29,50.6c-.35,12.53,3.95,19.58,17.28,19.61,22.7,0,45.6,2.23,68.07,0,48.73-4.76,76.83-31.24,87.18-79.21,8.24-38.19,6.06-76.11-6.85-112.81-10.4-29.53-26.86-55.51-54.14-72.82s-55.73-17.33-83.81-3.37c-25.13,12.5-30,35.64-29.2,61.54C2753,290.26,2752.37,318.89,2752.37,347.49Z"/><path d="M1826.1,885.38l-218,11.6c49.61-42.55,39.48-95.93,40-146.31,1.58-157.83,1.75-315.67,3.42-473.5.4-38.33,2.42-75.89-40.34-97.86l3.36-5.45c24.19-3.82,48.28-8.71,72.6-11.26,87.1-9.11,174.33-13.22,261.14,2.43,46,8.29,88.76,24.64,126.1,54.24,84.76,67.17,94.56,227.79-41.35,282.41-14.13,5.68-28.64,10.43-45.55,16.55,15.45,31.57,30.22,61.69,45,91.82,22.89,46.82,45.89,93.57,68.58,140.47,23.74,49.05,46,99.1,96.57,130.29h-254c33.22-41.87,9-79.49-7.13-117.41-29.21-68.93-59.8-137.28-88.47-206.43-6.82-16.45-17-21.45-32-17.36-5.69,1.56-13.86,9.14-13.9,14-.88,93.23-1.88,186.49.31,279.66C1802.78,850.17,1817.2,866.7,1826.1,885.38Zm-24.5-520.62h-.85c0,41.81-.47,83.64.46,125.43.16,7,5,18.59,10.08,20.15,51.08,15.56,127.24-15.48,149-64.6,32.36-73.23,29.42-147.19-10.11-217.75-16.41-29.3-43.44-44.83-77-48.75-43.4-5.09-71.11,18.72-71.48,62.29C1801.32,282.6,1801.6,323.68,1801.6,364.76Z"/><path d="M3171.54,164.67c3.79,0,11.6-.09,19.41,0,88.87,1.15,177.77,1.41,266.6,3.87,47.87,1.32,90.22-9,124.72-43.87,1.33-1.35,3.89-1.49,6-2.22,16.46,73.87,32.83,147.3,50.2,225.21-6-6.4-9.83-9.83-12.92-13.81-33.17-42.77-71.65-79.68-118.63-107.09-31-18.1-64.24-28.87-100.61-27.61-31.71,1.1-50.9,17.36-55.44,48.79-2.08,14.42-1.57,29.28-1.5,43.94.34,74.19,1.42,148.37,1.08,222.56-.08,17.68,5.76,25.21,23.39,26.06,28.55,1.37,57,5.42,85.55,6,42.73.84,78.6-15.81,107.08-47.82,4.75-5.35,9-11.17,18.1-14.34V683.58c-4.73-5.58-7.86-8.22-9.69-11.57-23.8-43.53-60.59-69-108.91-78-31.74-5.93-63.65-10.9-95.45-16.55-13.46-2.39-18.56,2.65-18.43,16.38,1,106.51,1.31,213,2.48,319.51,1,91.82,72.57,108,141.06,93.88,65.58-13.51,113-57.1,156.2-105.3,8.26-9.21,15.65-19.18,26.44-27.3q-41.66,122.82-83.28,245.59c-1.84,0-4.06.53-4.43-.08-26.3-42.93-69.37-55.88-114.86-65.42-105.65-22.16-211.16-44.93-316.72-67.48-4.22-.9-8.37-2.12-18-4.58,54.23-27.23,57.85-74.3,57.56-122.06-1.22-207.87-2.45-415.74-5.66-623.59C3192.53,213.7,3179.53,190.61,3171.54,164.67Z"/><path d="M953.83,208.19,867.27,387.93c-5.81-13.62-9.09-24.73-14.91-34.3-22-36.16-41-74.92-68-107-43.66-51.83-109.28-45.36-146.1,11.85-13.27,20.63-24.14,44.15-30.19,67.86-28.35,111.12-36,223.79-6,335.35,12.21,45.29,31.48,90.85,57.26,129.85,62.8,95,158.35,112.8,254.62,51.51,29.33-18.67,55.19-42.76,86.65-63.68-10.83,27.33-19.87,55.54-32.82,81.83-46,93.38-116.45,158.92-218.62,187.24-72.44,20.08-133.54.51-183.93-53.44-48.42-51.85-76.13-114.87-90.74-183.34-39.37-184.54-14.93-359.84,85.41-520.86C645.32,153.74,825.11,117.28,953.83,208.19Z"/><path d="M1096.77,959.28,948.29,985.12c0-3.79-.62-5.82.09-6.53,51.24-51.5,76.69-116.58,100.41-183.54,74.24-209.58,150.3-418.51,225.71-627.68,1-2.68,2.52-5.15,5.78-11.66,4,10.24,7.12,17.22,9.61,24.4Q1395.4,483.71,1501,787.28c14.74,42.2,29.77,84.79,72.66,109.74q-1.46,2.24-2.9,4.48l-249.29,25.34c6-8.4,9.65-13.59,13.4-18.69,16.28-22.17,21.21-46.5,13.19-72.93-11.07-36.52-23-72.76-33.56-109.43-3.82-13.3-10.45-17.18-23.78-15.68-57.61,6.47-115.37,11.69-172.89,18.83-7.06.88-16.3,9.34-18.93,16.38-10.81,28.83-19.45,58.47-28.87,87.82C1055.44,878.49,1055.63,921.23,1096.77,959.28Zm200.1-291.09L1221.5,420.88l-7,.23C1183,507.53,1151.62,594,1118.53,685Z"/><path d="M2253.23,880.64c34.76-23.82,33.67-58.92,33.55-93.83-.59-182.9-.53-365.8-2.29-548.69-.24-24.92-9.39-49.76-14.5-75h196.62c-37.78,38-32.91,82.2-32.71,125.24.82,174.09,2,348.17,2.59,522.25.1,30.11,2.46,58.8,32.41,85.27l-211.25-10.77Z"/><path d="M3044.82,1342.21c-42.54,25.91-43,25.93-67.07,3.65-40.22,21.11-41.88,21.07-61.12-.59-13.27,6.23-26.51,17.52-39.08,16.81-10.73-.6-20.68-15-33.85-25.58-5,3.92-14.22,11.81-24.09,18.8-26.69,18.91-54.39,34.88-89.2,31.51-24-2.33-41.22-14.89-46.42-37.33-4.34-18.72-6.34-40-2-58.35,20.44-87.48,75.6-147.6,155.68-185.23,31.56-14.83,60-10,72.88,8.32,13.88,19.79,6.79,54.85-15.83,78.33-19.13,19.87-38.75,25.17-61.35,13.59,7.33-4.6,13.93-7.06,18.13-11.69,12.48-13.74,27.35-26.76,35.08-43,9.52-20-5.83-37.61-27.89-33.37-13.9,2.68-28.8,8.51-39.64,17.36-53.17,43.41-91.05,97.63-106.43,165.35-5.11,22.53-12.18,49,10.28,65.55,22.17,16.34,44-.31,63-11.31,43.28-25,81.3-55.69,97.44-106,1.12-3.47,2.08-8,4.66-9.79,5.3-3.79,11.66-6.11,17.58-9,2.23,6.32,7.79,13.78,6.09,18.77-6.12,18-15.4,34.89-22.07,52.74a139.28,139.28,0,0,0-8.18,41c23.81-6.22,33.48-23.45,43.55-41.38,11.38-20.27,23.74-40.33,38.36-58.3,10.12-12.44,24.49-20.27,43.16-15,4.65,1.3,14.59-4.64,17.19-9.75,12.33-24.17,22.15-49.63,34.71-73.67,3.46-6.61,13.28-9.89,20.18-14.7,1.34,8.42,6.27,18.37,3.45,25-18.63,43.91-39.39,86.91-58.43,130.65-7.36,16.89-12.06,34.94-18,52.47q4.11,2.77,8.2,5.57c8.75-7.38,19-13.58,25.89-22.43,9.82-12.68,15.46-28.76,25.94-40.71,14.14-16.14,29.25-33.17,47.51-43.48,18.85-10.65,33.54,4,27.76,25.44-5.62,20.85-18.48,36.48-39.14,44.64-5.45,2.16-14.1,2.36-16,6.14-4.87,9.6-6.76,20.71-9.85,31.21,8.39,1.12,19.85,6.27,24.62,2.64,18.35-14,39-28.06,50.42-47.14,13.8-23.15,18.68-51.53,28.3-77.33,2.55-6.84,8.3-12.48,12.58-18.68,4.77,5,9.45,10.15,14.32,15.09s9,12.07,14.92,14c21.19,7,24.6,20.79,18.2,39.75-4.92,14.61-10.17,29.12-14.54,43.89-2.36,8-3.19,16.5-5.08,26.82,31.93-2.66,35.9-34.18,56-48.45,4.13,28.9-36.93,72.16-61.92,68.06-19.46-3.19-22-18-18.95-33.51,2.94-15.06,8.67-29.55,12.95-44.36,2.75-9.5,9.33-20.27-5.29-26-14.18-5.55-17.64,5.49-21.75,15-12.3,28.64-26.76,55.9-53.86,73.45-10.33,6.69-21.56,12.81-33.24,16.42C3068.87,1371.73,3057.62,1366.21,3044.82,1342.21Zm-95.53-1.12c30.39-17,54.24-63.66,48.23-92C2970.9,1256.87,2942.81,1309.08,2949.29,1341.09Zm174.86-95.92-33.79,42.35C3118,1284.62,3126.91,1273.18,3124.15,1245.17Z"/><path d="M2536.88,1345.12l47.25-51.7c3.37,29-38.06,72.93-62.47,67.92-8.43-1.73-15.6-9.57-24.14-15.13-38.71,21-39.73,21-61.14-1.69-5.18,3.59-10.05,9.09-15.93,10.58-11.32,2.86-27.77,8.77-33.74,3.66-7.55-6.46-9.64-22.86-8.84-34.61.92-13.54,7.76-26.63,11.65-40,2.8-9.67,8.06-20.18-6.83-25.43-13.89-4.9-15,6.44-19.89,14.32-15.67,25.43-29.38,52.73-48.75,75-20.31,23.39-36.06,21-57.41-1.13-3.52,2.22-6.93,5.78-10.91,6.61-12.77,2.68-28.68,9.71-37.74,4.75-7.44-4.07-10.78-23.43-9.06-35,5-33.76,23.22-60.75,48.81-83.75,20.34-18.29,43.19-3.56,64.22-8.58,1.78,7.6,6.82,16.29,4.73,22.6-6.45,19.43-16.4,37.67-23.44,57-3.7,10.15-4.16,21.49-6.09,32.3l6.75,3.37c7.86-6.91,17.74-12.51,23.22-21,20.28-31.27,41.06-62.44,43.76-101.71.48-6.93,8.54-13.34,13.09-20,4.55,5.37,8.87,11,13.71,16s9.31,12,15.27,13.82c20.46,6.39,23.84,19.7,18.11,37.78-4.89,15.4-10.59,30.54-15.13,46-2.34,8-2.92,16.5-5,29.18,24.69-8.12,34.45-23.91,43.57-41.59,10-19.39,20.34-39.08,33.74-56.11,14.12-17.93,32.94-29.93,59.88-16,11.45-24.91,22.36-48.69,33.3-72.45,3.38-7.33,5.61-15.67,10.66-21.6,3.85-4.52,11.32-6,17.17-8.78,2,6.42,7,13.91,5.29,19.07-6.1,18-14.41,35.31-22.17,52.74-15.52,34.89-31.77,69.47-46.55,104.66-4.44,10.56-5,22.74-7.37,34.18Q2532.64,1342.84,2536.88,1345.12Zm-261.17-94.59c-29,12-56.79,67.4-46.28,92.34C2258.45,1327.6,2283.78,1277,2275.71,1250.53Zm241.93-3.56c-30.47,16.79-55.36,67.5-46.83,93.09C2498.78,1327.43,2524.86,1277,2517.64,1247Z"/><path d="M1759.9,1346.65l48.33-54.53c-.57,10.27.76,15.65-1.33,18.74-8.13,12.09-16.25,24.52-26.38,34.86-23.82,24.3-37.15,23.8-59.65,0-39.54,24.79-42.61,24.88-63.25,1.92-46.4,22.72-48.06,22.5-64.25-8.7-16.31,7.53-32.16,16.37-49,22.25-19.32,6.74-36.1,1.21-46.14-18.64-9.66,6.56-17,12.79-25.32,17-20.48,10.23-37.22.46-38.14-22.43a65.69,65.69,0,0,1,4-25.88c9.31-23.91,19.3-47.61,30.49-70.67,2.41-5,11-7,16.71-10.32,2.39,6.72,8.33,14.62,6.55,20-6.24,18.72-15.84,36.3-22.76,54.84-4.38,11.7-6.27,24.34-10.53,41.67,28.36-9.41,37.85-28.07,48.11-46.39,9.61-17.19,18.35-35.47,31.14-50,8.44-9.62,22.85-15.2,35.64-19.22,5.46-1.72,17.1,3.42,19.67,8.56,3.14,6.31-.28,15.89-.86,24.05l-6.62.07L1576,1246c-29.23,21.45-42.8,50.35-45.81,84.21-1.25,14.13,10,22.26,21.55,13.58,20-15.06,38.37-32.71,55.29-51.22,12.19-13.34,20.62-30.06,31.25-44.9,19-26.47,47.45-14.6,72.26-16.19,1.76-.12,8,15.09,6,21.12-6.68,20.13-16.86,39.06-24.3,59-3.58,9.58-4,20.34-6.66,34.92,25.87-9.18,36.67-25.07,44.78-43.08,22.3-49.54,44.12-99.29,66.21-148.92,2.69-6,4.82-12.86,9.21-17.38,3.3-3.41,10.94-6.29,14.56-4.68,3.82,1.69,7.58,9.26,7,13.75-.92,7.76-4.85,15.27-8.09,22.64-19.19,43.69-38.94,87.14-57.63,131.05-5.49,12.91-8.12,27-12.06,40.63Zm-132.77-4.28c28.32-9.94,56.56-64.38,47.55-91.67C1647.39,1262.24,1621.44,1312.28,1627.13,1342.37Z"/><path d="M2157.57,1385.09c-24.24-31.47-10-60.12-5.87-91.85-22.4,0-43.3-1-64,.68-5.22.41-11.56,8.33-14.35,14.23-15.63,33-35.5,64.67-34.82,103.25,0,2.5-2.23,5-3.42,7.54-18-8.13-23.44-26.62-14.68-58.76,5.89-21.59,15.31-42.23,23.59-64.5l-28.83-7.41c0-1.8.11-3.61.16-5.41,4.29-1.6,8.84-5,12.83-4.49,22.93,3.23,32.92-9.71,40-28.77,8.12-22,19.35-43,26.14-65.31,10.13-33.35-6.34-58-40.65-64.66-35.6-6.92-64,7.33-85.85,33.48-36.85,44.05-52.46,92.86-26.18,148.71,1.73,3.68-.33,9.14-.63,13.77-4.84-.66-11.93.46-14.12-2.3-8.91-11.27-20.25-22.73-23.59-35.92-13.33-52.6.8-98.94,39.76-136.6,40.24-38.9,88.38-51.52,142.08-35.25,32.39,9.82,48.92,37,41.65,70.34-5.39,24.75-17,48.18-26.06,72.09-3.08,8.11-7,15.92-12.4,28.19,25.38,0,47.51.35,69.61-.38,3.21-.11,7.55-4.75,9.17-8.3,16.44-36,33.26-71.88,48.06-108.56,5-12.38,4.53-27,6.56-40.52l6.3-3.1c4.23,7.56,12.64,15.53,11.93,22.59-2.45,24.35-5.14,49.42-13.25,72.26-10.27,28.88-27.32,55.28-38.85,83.81-9.5,23.53-15.15,48.62-22.69,73C2163.74,1371.43,2161.51,1375.7,2157.57,1385.09Z"/><path d="M1331,1326.41c-53.84,46.92-58,47.86-83,21.51-15.25,8.7-30.75,25.39-49.06,9.77-17.52-15-6-34-1.27-51.25,2.69-9.91,7.4-19.49,8.51-29.52.61-5.55-4.34-11.71-6.78-17.6-6.35,2.78-14.92,3.89-18.55,8.71-6.49,8.61-9.53,19.75-15,29.29-3.11,5.48-8.06,9.9-12.19,14.8l-5.89-3.47c2.2-6.34,4.54-12.64,6.56-19,7.22-22.78,13.78-45.78,21.81-68.26,2.37-6.66,8.75-11.89,13.29-17.77,4.28,4.78,8.54,9.59,12.86,14.32,4.64,5.08,8.49,12.91,14.17,14.64,22.75,6.89,25.38,21.71,19.1,41.24-5.84,18.16-12.09,36.19-17.56,54.46-1.3,4.34-.2,9.39-.2,17.06,21.87-6.64,30.7-21.17,39.74-37.48,12.26-22.14,25.35-44.59,42.32-63,7.92-8.6,26.7-12.36,38.75-9.81,5.93,1.26,7.8,21.88,11.38,33.77.61,2,.61,4.23,1.8,13.28,8-16.18,13.48-27.07,18.69-38.11,5.06-10.72,10.38-19.64,25-13.34,4.2,1.8,10,.76,14.92-.14,25.42-4.7,36.69,3.79,34.63,29.33-3.34,41.34-24.62,73-57.46,97.16-5,3.69-13.24,7.59-18.22,6-22.53-7.32-27.4,8.29-33.84,23.25-7.25,16.84-14.86,33.55-22.7,50.13-2.79,5.91-5.5,13-10.41,16.47-5.83,4.12-14,4.93-21.14,7.17.19-6.76-1.58-14.36.89-20.14,13.57-31.7,28.24-62.94,42.38-94.4C1326.49,1341,1327.69,1336.13,1331,1326.41Zm-2.21-74.89c-28.49,15.43-55.11,70.11-46.36,93C1313.27,1328.63,1337,1282.3,1328.75,1251.52Zm86.7-2.22c-28.55,12.61-57.75,71.55-47.56,93.39C1396.15,1326.79,1419.43,1282.11,1415.45,1249.3Z"/><path d="M1025.6,1311.76c-21.19,5.29-29.28-7.13-36.49-18.12-50.19-76.55,4-188.17,95.07-192.23,30.8-1.37,62.52,5.85,93,12.81,30.92,7.06,60.95,26.65,90.17-6.83,9.28,20.9-1.63,32.6-13,37.09-14.81,5.86-32.31,4.59-48.48,7.43-9.08,1.59-21,2.58-26,8.55-12.62,14.78-24.54,31.19-32.26,48.9-16.69,38.3-29,78.5-46.2,116.56-9.39,20.85-23.77,39.89-38.34,57.76-5.31,6.52-17.66,7.3-27.58,11-1.19-6.72-2.16-8.79-1.58-9.41,45.11-47.75,55.89-111.86,80.29-169.38,17-40,22.86-50,55.3-73.77-27.71-27.89-74.69-36.2-108.81-17.65s-50.43,49.48-57.89,86.5C995.47,1247.21,1006.19,1279.68,1025.6,1311.76Z"/><path d="M3387.3,104.52c4.58-5.25,8.87-10.77,13.77-15.69,23.81-23.9,47.38-48,71.81-71.3,21.51-20.48,49-22.89,72.72-7.89A54.85,54.85,0,0,1,3569.09,69c-6.69,26.1-27,41.15-57.55,41.43-40.79.39-81.58.1-122.38.1Z"/><path d="M1518.39,1199l-18.8,20.9c-4.44-4.64-13.19-10.18-12.44-13.72,1.57-7.37,8.15-13.68,12.67-20.43Z"/><path d="M2937.51,1199.94l-22.26,20c-3.53-4.81-10.78-10.67-9.79-14.22,2.07-7.36,8.51-13.5,13.15-20.14Z"/></svg>