<svg id="Layer_1" data-name="Layer 1" xmlns="http://www.w3.org/2000/svg" viewBox="0 0 1930.56 1930.39"><defs><style>.cls-1{fill:#fff;}</style></defs><path class="cls-1" d="M877.87,888.54c0,4.55-1.74,5.6-5.77,5.42H833.66c-9.45,0-19,.18-28.49-.17a13.62,13.62,0,0,1-8.4-3.33c-16.25-15.37-20.27-38.8-10-59.25,2.8-5.42,2.09-8.39-2.28-12.59-22.37-21.85-44.4-43.88-66.59-66.07-5.6-5.6-5.6-5.77.16-11.37l4.73-4.71c8.39-8.57,6.3-8.57,15.21.34,15.72,15.39,31.46,31,47,46.67,6.13,6.13,12.6,12.07,18.37,18.71,3.32,3.67,5.94,3.84,10.12,1.58,21-11.54,44.94-7.7,60.84,10a15,15,0,0,1,3.33,7.86C877.87,844,877.71,866.34,877.87,888.54Z"/><path class="cls-1" d="M936.09,876.49c-12.59,4.89-25,9.79-38.12,14.85V838.55C911.1,851.66,923.86,864.24,936.09,876.49Z"/><path class="cls-1" d="M952.35,643.64V863.36l-.19.19c-7.68-7.35-14.85-14.16-21.65-21-9.28-9.08-18.19-18.36-27.46-27.44-4.2-4-5.6-8.57-5.23-14.33,1.21-22.21,15.71-39.17,35.66-45.28,4.52-1.4,5.76-3.68,5.76-8-.18-32.5,0-65-.36-97.54,0-5.06,1.58-6.82,6.48-6.29C947.64,643.82,949.9,643.64,952.35,643.64Z"/><path class="cls-1" d="M1322.59,739.44c0,29.7-21.67,53.83-48.25,53.83-26.75,0-48.42-24.13-48.42-53.83,0-29.89,21.67-54,48.42-54C1300.92,685.42,1322.59,709.55,1322.59,739.44Z"/><path class="cls-1" d="M1434.64,930.14a575.69,575.69,0,0,1-5.07,70.1c-13,98.94-49.64,204.88-112.06,272.36-26.73,29-49.11,49.82-69.21,65.55,0,.17-.18.17-.18.35-124.3,108.2-295.77,88.28-295.77,88.28a15.6,15.6,0,0,0-2.8-.18q-18.36-.8-36.71-3.16-1.29-5.75-2.62-11.53c-2.27-9.26-4.37-18.7-6.46-28.13-1.58-7.17-6.31-16.44-19.59-19.76-6.11-1.57-12.41-3.33-18.53-5.08-6.82-1.74-13.8-3.66-20.62-5.42a26.32,26.32,0,0,0-22.9,5.42c-6.47,6.12-13,12.25-19.23,18-4.55,4.55-9.45,9.09-14.16,13.46-27.45-12.06-50.69-24.65-71.15-38.63-5.06-3.49-10.31-7.34-15.56-11-2.78-1.93-5.77-4.19-8.55-6.12,4.18-13.46,8.37-27.79,12.92-43.35,2.45-8.39-1.21-17.31-5.94-22-8.74-9.43-18.35-19.22-29.54-30.23a23.86,23.86,0,0,0-9.79-5.77l-5.25-2.44-14.68,3.49c-8.39,2.09-16.44,4-24.29,5.94-2.28.53-4.55,1-6.65,1.75-2.63.53-5.06,1.22-7.69,1.75-.88-1.39-2.09-3-3.16-4.36-9.07-12.77-17.65-24.84-24.81-37.6-7.17-12.41-13.28-25.16-19.76-38.63-2.26-5.06-4.89-10.31-7.34-15.56,5.6-5.06,11.19-10.48,16.61-15.56,5.25-4.71,10.31-9.6,15.39-14.33s10.31-12.76,6.63-24.82c-3.13-10.84-6.82-23.78-9.79-36.89-3.49-15-15.72-18.53-19.57-19.75-14.33-4.2-28.49-8.57-42.65-12.76-.88-7.69-1.57-15.55-1.92-23.25a448.87,448.87,0,0,1,.17-66.76,22.27,22.27,0,0,1,.35-3.34c.17-3.66.52-7,.88-10.48.35-2.28.52-4.54.69-6.82,7.34-1.74,14.87-3.5,22-5.25,6.65-1.57,13.12-3.14,19.77-4.71,13.11-3,17.82-12.23,19.4-19,2.79-10.85,5.94-22.73,10-36.2,3.66-12-1.4-20.45-6.13-25.33-12.4-12.59-22.71-23.26-31.81-33.4.88-1.92,1.93-4,2.81-6.11,5.93-12.94,11.53-25.18,18.35-36.72,7.87-13.45,17-26.73,25.52-39.5,3-4.54,5.94-8.91,8.91-13.29,12.24,3.85,25.7,7.87,41.78,12.41a26,26,0,0,0,23.78-5.76c9.61-9.09,19.4-19,29.37-29.55,5.41-5.77,8-14.85,6.29-22.37-2.09-9.1-4.2-18.18-6.29-27.09-1.57-6.12-3-12.59-4.38-18.88.53-.36,1.24-.88,1.75-1.22,7.69-6,14.86-11.54,22.56-15.91,15.37-8.92,31.64-17.66,47.19-25.88,6.64-3.49,13.11-7,19.76-10.49l1-.52.88-.17,2.61-1.05a19.33,19.33,0,0,1,1.93,2.09l.35.19c10,11,19.41,21,28.49,30.24a23.94,23.94,0,0,0,22.38,6.46c13.28-3.49,27.44-7.17,41.78-11.54,10.65-3.32,14.86-14.16,15.9-17.48,5.06-16.08,9.45-30.6,13.28-43.88,13-1.22,25.89-2.09,38.82-2.43v54.71c0,13.45,34.44,18.17,34.44,18.17,60.65,7.7,68.7-11.18,90.89-19.4,24.83-9.08,23.07-6.11,23.07-6.11a136.91,136.91,0,0,1-43.69,41.94c-38.29,25.7-89,27.45-101.74,27.45h-3c-7,0-13.81,0-20.81-.18-4.54-.17-6.11,1.4-6.11,6.12.17,18.7,0,37.59.17,56.29,0,15.91,0,31.81-.17,47.89,0,2.11-1.4,5.42-3,5.94a53,53,0,0,0-25.7,17.67c-6.28,7.86-11.36,16.6-17.13,25.16-3.16-6.63-6.29-14-9.79-20.79-3.68-7.17-3.68-13.47,1-20.1,7.52-10.67,8.57-23.08,4.89-35-4.89-16.25-15.2-29.71-26.21-42.3-1.06-1.22-4.37-1.76-6.12-1.05-12.43,5.42-24.47,11.36-36.9,16.79-3.49,1.57-4.53,3.48-3.49,7,3.68,12.57,7,25.34,11.19,37.75,5.59,16.25,18.18,24.82,34.62,27.62,7.69,1.22,12.23,4.71,15,11.53,2.09,5.08,4.54,9.79,6.82,14.7.87,1.74,1.38,3.66,2.44,6.46a44.77,44.77,0,0,1-4.55-1.75c-18.7-7.68-37.06-8.22-55.76.17-1.4.88-4.54,0-5.94-1.39-6.11-5.6-12.07-11.54-18-17.48-19-19.24-38.27-38.29-57.32-57.51-2.64-2.62-4-2.8-6.66,0-10.31,10.66-20.62,21-31.29,31.29-2.44,2.44-2.44,3.84,0,6.29,6.3,6.11,12.41,12.4,18.54,18.7,18.7,18.53,37.41,37.06,55.75,55.77,1.58,1.57,3,5.07,2.29,6.82-8.05,19.75-8.05,39.15,1.73,58.38.36.52.19,1.4.36,2.63-7.7-2.81-14.5-6-21.86-7.7-8-1.75-11.88-6.65-13.63-14-3.5-16.42-13.64-27.61-29.18-32.5-12.07-3.85-24.83-5.25-37.24-8.05-5.43-1.23-8,1.05-9.61,5.94-4,11.71-8.22,23.42-12.77,34.78-1.57,3.85-.87,6.13,2.27,8,10,5.77,19.58,12.42,29.89,17.3,17.67,8.4,34.61,7.17,50.7-5.06,3-2.28,8.38-3,12.23-2.1,8,2.1,15.92,5.59,23.78,8.56-.17.71-.17,1.4-.35,1.4a14,14,0,0,1-3.14,1.75c-14.87,7-26.92,16.61-34.1,31.11-1,2.11-1.92,4.37-2.79,6.65-1.58,4-3.85,4.72-7.7,4.72-34.07-.18-68.33,0-102.42-.18-5.25,0-7.36,1.23-7.17,7q.52,19.39,0,38.8c-.19,6.12,1.57,7.88,7.69,7.88,33.72-.19,67.47,0,101.2-.19,4.55-.17,6.82,1.59,8.92,5.42.18.17.18.53.35.71,4,7.34,8.22,15.2,14.33,20.62,7.88,7.34,17.67,12.59,26.93,19-6.47,3-13.82,6-20.8,9.44-6.3,3-11.55,2.63-17.49-1-11-6.63-22.9-9.26-35.66-5.41-16.25,5.06-29.72,15-42.3,26.05-2.62,2.26-2.45,4.19-1,7.34,5.6,11.36,10.84,23.07,15.91,34.78,1.57,3.85,4,5.42,8.22,4.37,9.27-2.27,18.7-4.2,27.8-7,21-6.65,35.13-19.59,37.58-42.85.34-2.79,3.14-6.11,5.76-7.68,7.35-4.37,15.2-7.86,22.9-11.54a11.93,11.93,0,0,1,3.67-.17c-.87,2.09-1.57,3.49-2.09,4.89-6.82,15.38-8.74,31.82-2.28,47.2,4.37,10,1.57,15.21-5.41,21-.36.34-.71.69-1.23,1.22-22.55,22.38-45.1,44.92-67.66,67.3-2.09,2.09-2.43,3.68-.17,5.77,10.85,10.67,21.5,21.33,32.52,31.81.88.88,4.2,1.05,5.06.17,7.34-6.63,14.35-13.45,21.16-20.27,18.35-18.53,36.54-37.23,55.07-55.59,1.22-1.23,4.71-1.57,6.47-.87,11.18,4.72,22.54,7,34.42,4.89,8.22-1.4,16.09-3.85,24.83-6.11-2.79,7.68-5.94,15.2-8.39,22.9-2.1,7-6.47,10.83-13.28,12-15.21,2.8-25.18,12.25-31.48,25.7-5.94,13.29-6.81,27.44-8.74,41.43-.69,5.07,1.24,7.34,5.61,8.74,11.71,4.19,23.25,8.39,34.78,12.76,3.49,1.4,6.12,1,8.22-2.27,4.89-8.21,10.31-16.09,14.86-24.47,10.13-19.23,11.7-38.28-2.63-56.47-1.74-2.09-3.32-5.94-2.62-8.22,2.79-10.13,6.28-19.92,9.79-30.41,1.22,1.23,1.92,1.4,2.1,1.92,7.69,19.41,20.62,33.74,40.38,41.43,1.74.71,3.32,4.2,3.49,6.47q.28,51.14,0,102.26c0,5.77,1,8.22,7.53,8,6.28-.17,12.57-.34,18.87-.34v92.29c11.88.7,23.25,1.22,34.44,1.22a476,476,0,0,0,51.22-2.26,446.35,446.35,0,0,0,86.17-16.79,46.93,46.93,0,0,0,5.41-1.74,23.84,23.84,0,0,0,2.81-.88c34.27-11.88,168-68.87,243.16-254,0,0,19-48.23,29.7-127.43,2.81-21.15,5.08-44.74,6.13-70.1.87-24.47.87-50.87-.71-78.66-9.6-163.61-40.55-259.06-162.74-313.59-47.37-14.7-94.21-14.16-117.3-13.13-37.4,1.59-135.47,14.87-135.47,14.87L998,511.48c42.81.71,150.15-9.43,150.15-9.43,119.91,1.57,157.5,39.15,157.5,39.15,102.44,75.18,119,206.62,119,206.62s6.3,38.45,10,157.51C1434.81,913.36,1435,921.75,1434.64,930.14Z"/><path class="cls-1" d="M877.87,1048.32c-.34,11.19-.16,22.38-.16,33.55s.35,22.21,0,33.4a12.75,12.75,0,0,1-3.33,7.69c-14.16,16.26-39.86,19.41-59.25,10-5.25-2.45-8.22-1.92-11.9,1.92-22.36,22.73-45.09,45.28-67.28,67.83-3.51,3.49-5.61,4.89-9.27.17-2.8-3.85-6.65-6.82-10.14-10-2.63-2.45-2.63-4.37,0-7,18.88-18.53,37.58-37.24,56.28-55.77,4.54-4.54,8.91-9.08,13.64-13.45,3.15-3.14,4-6.13,1.75-10.5-8.57-17.48-9.26-34.78,1.74-51.74,5.08-7.86,11-12.93,21.68-12.41,20.1.88,40.21.36,60.3,0C877,1042,878.06,1043.78,877.87,1048.32Z"/><path class="cls-1" d="M936.27,1060.55c-12.41,11.89-25.35,24.12-37.94,36V1045C911.1,1050.24,923.69,1055.48,936.27,1060.55Z"/><path class="cls-1" d="M952.35,1075.24v217.63c-2.62,0-5.25,0-7.87.17-4,.18-5.42-1-5.42-5.42,0-5.42.18-11,.18-16.42v-20.47c0-4.19-.18-8.56-.18-12.74.18-8.57,0-17.13,0-25.89,0-7.68,0-15.37.18-23.24.18-4-1.24-5.94-5.07-7.34-11.88-4.2-22.19-10.66-29.38-21.5-6.28-9.28-7.15-20.1-6.63-31,0-2.09,2.27-4.54,4-6.29,15-14.85,30.24-29.54,44.92-44.74C949.19,1075.93,950.77,1075.07,952.35,1075.24Z"/><path class="cls-1" d="M1929.87,930.14C1911.51,413.24,1486.55,0,965.29,0,443.84,0,19.06,413.24.69,930.14.17,941.85,0,953.56,0,965.29s.17,23.42.69,35c18.37,516.73,443.15,930.15,964.6,930.15,521.26,0,946.22-413.42,964.58-930.15.52-11.53.69-23.24.69-35S1930.39,941.85,1929.87,930.14Zm-25.87,70.1c-18.36,502.4-431.6,904.28-938.71,904.28S44.93,1502.64,26.58,1000.24c-.54-11.53-.7-23.24-.7-35s.16-23.44.7-35.15C44.93,427.57,458.17,25.87,965.29,25.87S1885.64,427.57,1904,930.14c.52,11.71.69,23.42.69,35.15S1904.52,988.71,1904,1000.24Z"/><path class="cls-1" d="M848.69,969.66c-8.57,7.68-16.6,14.68-24.3,22-3,2.79-5.94,5.76-8.74,8.56-5.41,5.42-10.84,10.85-16.08,16.27a16.89,16.89,0,0,1-13.11,5.58c-18.7-.35-33-7.69-42-21.85a57.88,57.88,0,0,1-6.29-12.76c-1.74-5.06-4.19-6.82-9.79-6.82-31.12.36-62.24.19-93.35.19-9.78,0-9.78,0-9.78-9.62a77.9,77.9,0,0,0,0-8.91c-.69-5.25,1.22-7,6.65-7,30.75.35,61.69.18,92.63.35,10.67,0,10.5-.17,14.68-10.14a58.18,58.18,0,0,1,9.1-15.39c8.57-10.82,20.81-16.59,37.06-17.13,6.29-.17,9.43,3.33,13.11,6.82,3.5,3.49,7,7,10.48,10.31C821.76,942.73,834.52,955.5,848.69,969.66Z"/><path class="cls-1" d="M1306.74,337.73l-2.61-10.59L1294,329.62,1280.34,274l-14.08,3.45L1255.87,337l3.07,12.5,26.24-6.43,6,24.22,11.39-2.78-5.94-24.24Zm-38.9-1.7,4.67-44.71,10.08,41.09Zm-42.77-48.46-9.06,2.22a18.21,18.21,0,0,1-3.11,4.9,27.86,27.86,0,0,1-4.34,4,48.74,48.74,0,0,1-4.68,3.16c-1.54.94-2.91,1.7-4.11,2.32l2.22,9.05c.08,0,.87-.38,2.35-1.06l5.11-2.32c1.92-.86,3.63-1.67,5.15-2.44a16.16,16.16,0,0,0,2.35-1.29L1235.29,381l12-2.92Zm-21.65,74-9.56-39a38.75,38.75,0,0,0-5.75-13.32,20.13,20.13,0,0,0-9.55-7.54q-5.73-2.16-13.55-.23c-5.21,1.28-9.2,3.43-12,6.49a20.06,20.06,0,0,0-5,11.12,39.07,39.07,0,0,0,1.07,14.47l9.56,39a37.84,37.84,0,0,0,5.77,13.15,21.12,21.12,0,0,0,9.7,7.68c3.88,1.49,8.38,1.62,13.51.35s9.07-3.42,11.8-6.5a20.89,20.89,0,0,0,5-11.22A38,38,0,0,0,1203.42,361.54Zm-12.37,18.3c-1,2-3,3.35-5.83,4a8.62,8.62,0,0,1-7-.88,13.59,13.59,0,0,1-4.67-5.55,39.15,39.15,0,0,1-2.8-7.77l-9.6-39.2a42.13,42.13,0,0,1-1.24-8.41,12.69,12.69,0,0,1,1.5-6.93c1.09-1.92,3.1-3.25,6-4s5.28-.46,7.11.75a12.88,12.88,0,0,1,4.47,5.47,42.75,42.75,0,0,1,2.8,8l9.62,39.19a39,39,0,0,1,1.12,8.19A14.21,14.21,0,0,1,1191.05,379.84Zm-41.18,11.41-28.6,7,13-36.8c1.12-3.13,2.12-6.13,3-9a40.3,40.3,0,0,0,1.63-9,34.3,34.3,0,0,0-1.09-10.51q-2.68-11-9.56-15.82t-17.83-2.2q-8,2-12.1,6.39a18.8,18.8,0,0,0-4.8,10.83,41.16,41.16,0,0,0,1.26,14.55l.76,3.13,12-2.93-.75-3a37.59,37.59,0,0,1-1.09-8.38,12.8,12.8,0,0,1,1.73-6.93,9.24,9.24,0,0,1,6-4q5-1.23,7.9,1.86t4.43,9.33a26.81,26.81,0,0,1,.78,9.22,39.49,39.49,0,0,1-1.77,8.19c-.9,2.66-1.86,5.55-2.92,8.65l-14.2,41.48,2.08,8.48,42.65-10.45Z"/><path class="cls-1" d="M1456.84,1000.24c-4.89,44.57-11.19,67.13-11.19,67.13s-17.3,106.46-85.13,202.77c-23.6,33.75-46.5,58.74-66.25,77.27-19.76,18.35-36.35,30.24-47.54,37.23a329.21,329.21,0,0,1-35.32,22.73,1.3,1.3,0,0,1-.71.34,355.64,355.64,0,0,1-40.37,19.76c-94.92,39.51-183.54,34.09-183.54,34.09H969.48a500.45,500.45,0,0,1-68.35-4.72c-7.53-1-17.13-5.42-20.63-19.93-1.4-5.76-2.63-11.53-4-17.13-1.74-7.7-3.49-15.56-5.4-23.6-4.91-1.23-9.8-2.63-14.51-3.84-4.9-1.4-10.14-2.8-15.21-4-4.89,4.54-9.8,9.26-14.7,13.8-6.46,6.13-13.28,12.41-19.91,18.7a24.47,24.47,0,0,1-25,4c-32.5-13.62-59.78-28.13-83.55-44.57-5.59-3.66-11-7.69-16.26-11.36-4.89-3.49-9.61-7-14.51-10.31C658,1352,654.65,1342,658.32,1331c4.2-13.29,8.57-27.09,12.94-42.31-6.3-6.64-13.11-13.62-20.64-21.15l-1.39.35c-8.21,2.1-16.26,4-24.29,6-2.1.52-4,1-6.13,1.57-5.06,1.21-10.48,2.63-16.07,3.49-7.88,1.4-18.88-1.57-24.48-9.79-2.27-3.14-4.54-6.46-6.82-9.6-9.27-13-18.7-26.23-26.92-40.57-7.69-13.45-14.33-27.44-20.79-40.89-3.16-6.82-6.65-14-10-20.81-5.59-11.19-3.5-22.55,5.77-30.76,7-6.47,14.16-13.12,21-19.58,3.66-3.32,7.15-6.65,10.83-10.14-2.45-8.74-5.25-18.36-7.51-28.32-13.82-4-27.46-8.22-41.08-12.24l-1.23-.35c-13.45-4-19.93-8.74-21.5-24.64,0-1.06-.17-2.11-.17-3.51-1.06-9.08-1.75-18.34-2.28-27.44H91.08c18.18,466.91,402.58,840,874.21,840,471.45,0,855.84-373,874-839.95ZM224.26,1061.3a36,36,0,0,1,11.61-16.56c5.52-4.54,12.62-7.48,21.21-8.82q13.46-2.1,23.45,1.86A36.05,36.05,0,0,1,296.61,1050a42.43,42.43,0,0,1,7.8,19,42.93,42.93,0,0,1-1.56,20.91,36,36,0,0,1-11.78,16.42q-8.42,6.84-21.6,8.9-12.92,2-22.9-2a36.26,36.26,0,0,1-16.08-12.09,43.08,43.08,0,0,1-7.86-19.43A42.65,42.65,0,0,1,224.26,1061.3Zm11.44,254.34q-14-9-23.59-31.88-9.72-23.09-6.07-40.41t18-29.83q14.41-12.52,37-22l80.64-33.82q23.17-9.71,42.2-11.2t33.78,8.12q14.74,9.6,24.42,32.7,9.48,22.58,6.64,38.69a47.66,47.66,0,0,1-15.25,27.5q-12.43,11.4-31.47,19.39L382.71,1281l-18.43-43.94,22.38-9.37a136.47,136.47,0,0,0,12.42-6,21.24,21.24,0,0,0,8.55-7.86q2.75-4.69-.3-12c-2-4.68-4.79-7.58-8.53-8.68a22.28,22.28,0,0,0-12.12.07,103.16,103.16,0,0,0-13.49,4.62L268,1242a81.31,81.31,0,0,0-13.2,6.87,21.29,21.29,0,0,0-8,8.68c-1.54,3.32-1.39,7.14.44,11.49,2,4.67,4.68,7.47,8.2,8.35a22.5,22.5,0,0,0,11.93-.58,116,116,0,0,0,13.31-4.68l23.46-9.85,18.43,43.94-19.33,8.1q-19.05,8-36.26,9.16A50,50,0,0,1,235.7,1315.64Zm77.71,137.67-28.06-39.84,198.29-139.68,28.05,39.85Zm171.35,130q-16.41,8.34-33.62,3.62t-38.38-24l-41.7-37.9,163.12-179.49,41.3,37.54q21.35,19.39,27.9,36.08a44.74,44.74,0,0,1,0,33.58q-6.55,16.92-24.65,36.86l-59.23,65.15Q501.16,1574.93,484.76,1583.28Zm188.16,25.36-33.9-18-34,64,45,23.86-17,32-88-46.68L658.7,1449.57,746.22,1496l-17.12,32.27-44.49-23.6-28.2,53.17,33.9,18Zm212.1-9.21a144.9,144.9,0,0,1-8.26,25.42,51.94,51.94,0,0,1-12.46,17.82c-5.1,4.65-11.65,8-19.57,10l2.38,121.17-49-11.59,1.46-111.36L786,1647.71l-25,105.77-47.42-11.22,55.83-236,59.1,14q21.69,5.13,36.36,14.13A47.1,47.1,0,0,1,885.21,1559Q890.88,1574.67,885,1599.43Zm740.71-527.79a42.9,42.9,0,0,1,7.92-19.41,36.08,36.08,0,0,1,16.24-12q10.14-3.9,23.3-1.8,12.91,2.05,21.2,8.89a36.34,36.34,0,0,1,11.57,16.46,45.21,45.21,0,0,1-6.37,39.91,35.76,35.76,0,0,1-16.12,12.17q-10,3.95-22.9,1.88-13.42-2.14-21.73-9a36.15,36.15,0,0,1-11.55-16.58A42.62,42.62,0,0,1,1625.73,1071.64Zm-543.29,701.45-42.38,2.9-28.7-144.82-7.69,147.29-42.9,2.92-43.11-240.17,41.28-2.79,22.64,140.1,7-141.83,32.32-2.21,26.92,138.64,3.75-141,40.74-2.78Zm211.74-68.62q-10.12,14.17-33.45,23.25-23.1,9-40,5.25t-29.26-18.19q-12.35-14.47-21.32-37.66l-32.62-84q-9.1-23.43-9.65-42.18t9.47-32.75q10.05-14,33.14-23,23.33-9.06,40.34-5.54t29.21,17.72q12.23,14.22,21.33,37.66l32.6,84q9,23.18,9.66,42.18T1294.18,1704.47Zm182-105.24-85.25-71.66-11,8.44,66,86.36L1407.19,1652l-147.27-192.71,48.22-36.86q17.71-13.56,34-19.19a47.23,47.23,0,0,1,31.94-.12q15.71,5.55,31.16,25.76a144.93,144.93,0,0,1,14.45,22.49,52.22,52.22,0,0,1,5.9,20.94c.36,6.88-1.2,14-4.66,21.46l95.29,74.93Zm155.19-165.49-104.83-38.92,4.56,9.88,78,58.65-29.25,38.94L1386,1356.61l29.26-39,79.25,59.54-57-89.13,28.61-38.09,63.08,98.49,132,45.68Zm71.28-132.85q-12.73,9.73-31.09,9.85t-43.57-9.43l9.51-41.13q14.49,5.68,24.24,7.2c6.49,1,11.55.75,15.23-.78a14,14,0,0,0,7.74-7.85q2.92-7.05-1.47-11.36a31.49,31.49,0,0,0-10.18-6.71q-13.85-5.68-25.88-3.6a109.62,109.62,0,0,0-26,8.43l-24.15,10.66a113.6,113.6,0,0,1-32.53,9.4q-17,2.28-37.19-6-28.49-11.74-37.26-33.32t2.12-48c4.51-10.9,10.13-18.82,16.93-23.78a44,44,0,0,1,22.14-8.55,75.67,75.67,0,0,1,23.68,1.53,154.75,154.75,0,0,1,21.78,6.46L1566,1194.78q-10.05-3.84-17.78-6c-5.12-1.43-9.4-1.76-12.85-1s-5.94,3-7.54,6.91q-2.6,6.28,2,11.58a27.9,27.9,0,0,0,10.42,7.68q12.48,5.13,22.58,3a120.51,120.51,0,0,0,22.34-7.44l23.28-10.14a134,134,0,0,1,37.52-10.87q19.58-2.68,42.84,6.91a67.29,67.29,0,0,1,25.94,18.34,54.58,54.58,0,0,1,12.72,26.89q2.55,15-4.18,31.39Q1715.43,1291.13,1702.66,1300.89Z"/><path class="cls-1" d="M1839.31,930.14c-18.18-467.08-402.57-839.94-874-839.94-471.63,0-856,372.86-874.21,839.94H477.93c.17-1.22.34-4.19.69-7.34.17-1.39.36-3,.52-4.36,0-.88.19-1.58.19-2.28.34-4.2.86-8.57,1.21-12.94.88-11.53,8-19.93,19.58-22.54,9.45-2.1,18.89-4.38,28-6.64l15.2-3.68c2.27-8.57,4.72-17.65,7.7-27.62-13.3-13.62-24.3-25.17-34.27-36.18-6.82-7.52-6.64-19.23-3-26.92,1.75-3.68,3.49-7.51,5.25-11.36,5.94-13.11,12.23-26.75,19.92-39.69,8.4-14.33,17.66-28.14,26.75-41.43,4.19-6.28,8.39-12.41,12.41-18.7,6.82-10.31,17.48-14,29.37-10.14,12.06,4,25.34,8,41.42,12.59q10.23-9.7,20.45-20.46c-1.57-7.34-3.3-14.51-4.89-21.67-2.09-8.74-4.37-17.83-6.29-26.92-2.1-9.61,3.32-18.71,9.09-23.08,2.45-1.92,4.73-3.66,7.16-5.42,8.22-6.29,16.62-12.93,26.22-18.34,15.92-9.27,32.34-18,48.44-26.4,6.46-3.49,13.1-7.17,19.57-10.66,2.27-1.05,4.19-1.76,5.59-2.28l.52-.17c20.1-7.52,27.44-5.77,42.14,10l.17.35c8.22,8.91,15.9,17.13,23.24,24.83,9.1-2.45,18.71-4.9,28.15-7.7,5.42-17.31,9.79-31.81,13.82-45.8,3-10.48,10.48-16.78,21.32-18,16.08-1.76,32.16-2.79,48.07-3.15l-.52-4.89s-12.42-193.51,25-274.27l64.15,27.44,5.6,2.79s-42.66,52.28-45.09,139.51l40.72,3.66s20.46-62.4,91.94-93,121.85-29.7,121.85-29.7,61.36.69,105.23,39.15c0,0,.88,43.88-42.13,91.59s-97.89,56.46-97.89,56.46-99.81,40.56-180.4-42.29l-44.93.69-1.75,83v4.73s105.24-8.57,145.44-10.14c40.39-1.57,139.32,0,200.69,47.72,61.18,47.71,95.09,146.48,95.09,146.48s23.95,52.62,27.62,191.94c.7,26.93.52,51.4-.36,73.24ZM386.82,884.27l-44.9-175.78-7.29,15.71V884.27H265.94V486.55h68.69V649.08l52.19-162.53H454L396.43,666.27l60.23,218ZM554.05,459.4l-19.58-26-16.22,26H480.49l34.4-51.78L482.18,365h45.87l17.32,22.7L560.76,365h35l-31.89,46.55,36.65,47.86Zm166.84-79.24h-55v-141h54.72v21.25H692.77v35H714V317H692.77v42.13h28.12Zm72.48-15.4a31.18,31.18,0,0,1-11,12.79,30.09,30.09,0,0,1-16.91,4.7q-11.45,0-19.09-4.7T734.74,363q-3.91-9.84-4.37-25.51l23-4a73.31,73.31,0,0,0,1.43,14.63q1.28,5.56,3.61,8a7.51,7.51,0,0,0,5.63,2.43c2.82,0,4.63-1.11,5.5-3.3a19.25,19.25,0,0,0,1.27-7q0-8.7-3.61-14.71a62.88,62.88,0,0,0-9.78-12.1l-10.52-10.62a66.45,66.45,0,0,1-11.65-15.4q-4.72-8.64-4.73-21.35,0-17.91,9.17-27.42t25-9.49q9.78,0,15.72,3.83a25.07,25.07,0,0,1,9,10,45.22,45.22,0,0,1,4.21,13.05,95.72,95.72,0,0,1,1.28,13.15l-23.15,3.3q-.16-6.27-.68-10.87a16.46,16.46,0,0,0-2.19-7.16,5.69,5.69,0,0,0-5.11-2.52,5.75,5.75,0,0,0-5.49,3.66,17.17,17.17,0,0,0-1.72,7.31c0,5.24,1.07,9.49,3.23,12.81a68.76,68.76,0,0,0,8.49,10.35l10.08,10.28a77,77,0,0,1,13.46,17.76q5.49,9.92,5.48,24.55A40.92,40.92,0,0,1,793.37,364.76Zm73.24-102.49H848.4V380.16H821.34V262.27H803V239.12h63.62Zm31.72,117.89H875.18V353.35h23.15Zm643.39,117q20.52-16.2,55.83-16.21,34.54,0,53.92,14.49t27.44,40.51q8.05,26,8.06,59.91v34.37H1619.8V590.41c0-7.86-.3-15.39-1-22.6s-2.48-13.17-5.54-17.91-8.32-7.12-15.75-7.12c-7.16,0-12.45,2.45-15.92,7.36s-5.62,11.05-6.51,18.4a190.74,190.74,0,0,0-1.36,23.34V779a159.42,159.42,0,0,0,1.73,24.31c1.16,7.36,3.48,13.27,6.91,17.68s8.51,6.63,15.15,6.63q10.76,0,15.35-7.12t5.77-18.41A229.92,229.92,0,0,0,1619.8,779V737.22H1687V771.6q0,33.87-7.87,60.63t-27.25,42.22q-19.36,15.46-54.3,15.48-35.29,0-55.83-16.46t-29-46.14q-8.43-29.72-8.44-70V614q0-41.24,8.44-71T1541.72,497.11Zm-88.93-63.68-16.22,26H1398.8l34.41-51.78L1400.5,365h45.87l17.32,22.7,15.39-22.7h35l-31.87,46.55,36.65,47.86h-46.44Z"/><path class="cls-1" d="M874.73,1021.57H822c7.34-7.34,14.68-14.51,21.67-21.33,5.41-5.42,10.66-10.66,15.91-15.73,2.09,5.25,4.37,10.5,6.46,15.73C869,1007.24,871.76,1014.4,874.73,1021.57Z"/><path class="cls-1" d="M875.44,913.55c-2.28,5.58-4.55,11.17-6.83,16.59-3.14,7.52-6.11,14.86-9.08,21.85-7-7-14.16-14.33-21.69-21.85-5.41-5.42-10.83-11-16.42-16.59Z"/><path class="cls-1" d="M558.48,1435.2a81.45,81.45,0,0,1-10.58,13.86l-71.1,78.22a108.32,108.32,0,0,1-13,12.46c-3.83,3-7.76,4.3-11.8,3.87s-8.78-3.15-14.27-8.15l-5.65-5.12,113-124.3,5.44,4.93c5.37,4.89,8.6,9.16,9.67,12.85S560.67,1431.28,558.48,1435.2Z"/><path class="cls-1" d="M840,1593.69a65,65,0,0,1-6.49,17.38,21.39,21.39,0,0,1-10.5,9.51c-4.34,1.75-9.85,1.83-16.57.23l-13.24-3.13,15.43-65.26,15.36,3.63q13.51,3.21,16.57,12.84T840,1593.69Z"/><path class="cls-1" d="M1255.84,1684.32c-1.18,3.48-4.15,6.11-8.88,8s-8.67,1.87-11.8.08a21.4,21.4,0,0,1-7.94-8.48,87.15,87.15,0,0,1-5.77-12.21L1179.2,1562.8a81.43,81.43,0,0,1-3.94-13.09,21.83,21.83,0,0,1,.48-11.6c1.18-3.44,4-6,8.37-7.74,4.75-1.83,8.71-1.87,11.93-.13a21.77,21.77,0,0,1,8.16,8.23,83.14,83.14,0,0,1,5.94,12.31l42.27,108.87a83.72,83.72,0,0,1,3.86,13A21.82,21.82,0,0,1,1255.84,1684.32Z"/><path class="cls-1" d="M1382.3,1490.27q-2.08,6.68-10.31,13l-10.81,8.28-40.72-53.3,12.53-9.59q11-8.43,20.42-4.67t18.83,16.14a64.46,64.46,0,0,1,9.34,16A21.36,21.36,0,0,1,1382.3,1490.27Z"/></svg>