<svg id="Layer_1" data-name="Layer 1" xmlns="http://www.w3.org/2000/svg" viewBox="0 0 1462.27 1665.87"><defs><style>.cls-1{fill:#a62b2a;}</style></defs><path class="cls-1" d="M0,0H1462.27V1665.87H0ZM1397.27,1599.87V71.72H66.73V1599.87Z"/><path class="cls-1" d="M880.48,235.12Q630.92,509.76,382.33,783.36l548.85,732.88c-2.58.12-4.17.26-5.76.26-21.33,0-42.67-.16-64,0-4,0-6.36-1.32-8.64-4.41q-36.28-49.3-72.77-98.46-47.65-64.48-95.26-129C658.2,1248.78,631.49,1213,605,1177.13q-51.69-69.89-103.22-139.89-46-62.25-92.26-124.39-30-40.54-59.94-81.2c-2.06-2.79-4-5.69-6.46-9.3-2.71,3.09-5,5.81-7.39,8.43q-61,66.47-122,132.85a15,15,0,0,0-4.39,11.06q.17,104.47,0,209,0,125,0,249.92,0,38.75.12,77.48c0,1.62-.15,3.25-.24,5.17H150.1V235.07h59.13V895.84c4.28,1.49,6.73.51,9.3-2.44,30-34.57,60-69.24,90.44-103.42,41.36-46.36,83.19-92.31,124.8-138.46Q483.12,596.77,532.4,542q63.52-70.58,127-141.15,51-56.59,102.09-113.13,22.08-24.51,44-49.19a10.2,10.2,0,0,1,8.53-3.93c20.67.21,41.33.12,62,.15C877.1,234.74,878.21,234.92,880.48,235.12Z"/><path class="cls-1" d="M1168.94,464.7l-42.69,35.56c-5-6.2-9.72-12.35-14.71-18.29-19.68-23.44-44.93-38.38-73.82-47.38-55.55-17.32-110-12.35-163,9.93A207.85,207.85,0,0,0,792,507.38c-23,28.81-38.12,61.54-46.38,97.51-11.74,51.15-10.51,101.93,5.14,152,21.63,69.14,65.44,119,133.33,145.27,53,20.5,107.61,23.4,161.77,3.18,38.35-14.32,70.38-37.49,93.48-71.94.46-.69,1-1.36,1.61-2.27l43.7,33.31c-9.1,10.34-17.52,20.62-26.69,30.19-40.57,42.33-91.29,63.78-148.68,70.13-61,6.76-119.72-2.47-174.72-30.51a254.49,254.49,0,0,1-95.12-82.85C705.84,802.84,688.5,748.89,685.74,690c-1.93-41.15,2-81.52,15.08-120.77,10.87-32.7,26.64-62.79,48.16-89.77,29.55-37,66.63-63.88,110.42-81.68S948.69,374.17,995.56,377c36,2.19,70.46,10.55,102.65,27.06C1126.41,418.54,1149.18,439.48,1168.94,464.7Z"/><path class="cls-1" d="M813.4,1055.87c7.86,10.6,15.66,20.73,23,31.17,5.94,8.41,12.07,16.8,16.81,25.88,7.7,14.72,5.8,27.42-4.19,37.22-13.95,13.69-26,16.14-41.95,8.58a15.49,15.49,0,0,0-1.91-.54c2.14,14.65-6.61,23.25-16.61,31.23-4.94,3.94-10,7.85-14.48,12.24-3.48,3.37-6.25,7.47-9.74,11.74-2.15-2.81-5.13-6.06-7.2-9.82-.63-1.13.77-4.13,2.07-5.45,5-5.09,10.31-9.91,15.61-14.71,4.19-3.8,8.82-7.14,12.76-11.17,7.22-7.39,8-15.16,2.56-24.07-3.31-5.37-7.19-10.4-10.91-15.51-5.46-7.53-11-15-16.82-22.89L714,1145.46l-7.63-10.55ZM812,1073.12c-13.6,10-26.92,19.87-40.46,29.87,2,2.79,3.83,5.36,5.74,7.82,8.14,10.5,15.91,21.31,24.61,31.32,5.69,6.56,13.69,9.78,22.54,7.59,16-4,26.74-18,16.47-36.31-4.38-7.78-10-14.87-15.25-22.15C821.27,1085.22,816.67,1079.36,812,1073.12Z"/><path class="cls-1" d="M561.33,937.15l106.57-78.8c4.47,5.95,8.76,11.41,12.8,17.06,7.93,11.1,16.34,21.92,23.42,33.55,10.35,17,10.1,34.46-1.06,51.31-13.5,20.38-31.95,34.3-55.53,40.72-20.61,5.61-38.12-.89-51.45-17-12-14.47-22.76-29.94-34.05-45A9.39,9.39,0,0,1,561.33,937.15Zm15.87,4.36c9.51,12.09,18.11,24.19,27.93,35.2,11.34,12.71,25.84,16.42,42.26,10.91a89.94,89.94,0,0,0,41-28.35c13.19-15.86,13.89-32.41,2.74-49.71-3.88-6-8.19-11.74-12.38-17.54-4-5.48-8-10.88-12.09-16.4Z"/><path class="cls-1" d="M983.45,1321.72c27.38.23,44.46,13.84,55.68,35.62,10.08,19.57,8.45,39-3.42,57.38a89,89,0,0,1-48.92,37.5c-25.76,8.22-49.28.69-65.79-20.63-18.62-24-18.49-52.63.92-76.09C938.29,1335.73,958.8,1323.19,983.45,1321.72Zm-64.24,71.94c-.34,9,2,16.36,5.76,23.39,10.85,20.26,29.28,29.51,51.69,24.47,22-5,38.73-18,50.46-37.11a41.55,41.55,0,0,0,5.31-31.73c-4.65-20.56-24.06-44-55.43-37.22-21.1,4.53-37.56,16.61-49.63,34.41C922.37,1377.24,919.06,1385.44,919.21,1393.66Z"/><path class="cls-1" d="M702.27,1110.82l-8.92,6.88-54-72.94L746.67,965.5l52.8,71.47-9.1,6.64-45-60.74-38.19,27.85c13.53,18.37,26.89,36.53,40.63,55.2l-9,6.66-40.68-54.93-41.84,30.8Z"/><path class="cls-1" d="M950,1305.76a101.88,101.88,0,0,1-6.37-8.64,4.68,4.68,0,0,1,.41-4.19c12.94-17.17,10.34-31.85.93-46.24-11.46-17.56-27.09-24.54-46-20.14-22.26,5.17-39.67,18-52.2,36.81-11.64,17.47-10.38,33.89,2.27,50.94,10.52,14.17,27,19.21,46,14.09,9.26-2.49,9.39-2.42,15.49,8.47-10.13,4.07-20.24,7.16-31.27,6.52-30.6-1.77-60.17-37.48-51.52-70.15,3.36-12.67,10.63-22.88,19.93-31.73,13.29-12.64,27.87-23.35,46.15-27.59,17.88-4.15,34-.68,47.77,12,11.89,11,21.25,23.4,23.38,40.07C967,1281.76,961.15,1294.54,950,1305.76Z"/><path class="cls-1" d="M590.73,819.51,583,808.8c.92-1.3,1.73-2.54,2.63-3.71,9.66-12.55,10.51-25.69,3.18-39.69-12.16-23.26-32-31.72-56.8-23-20.31,7.13-36.56,20-47.05,39-9.16,16.58-6.18,32.6,5.31,47s26.41,18.27,43.86,14.07c3-.73,6-1.87,9.46-3,2.5,3.28,5.08,6.68,8.13,10.67-11,4.75-21.74,7.83-33.25,6.41-43.63-5.39-65.48-54.92-39.7-90.41a103.79,103.79,0,0,1,46.6-35.71c25.78-10.2,49.14-3.54,66.16,18.65a79.11,79.11,0,0,1,12.07,21.58C610.05,789.21,604.6,805.3,590.73,819.51Z"/><path class="cls-1" d="M540.32,910.05l-8-10.54,107.34-79.08,7.62,10.42Z"/><path class="cls-1" d="M985.11,1512.63l-8.4-11.24,13.53-10.13,8.21,11.4Z"/></svg>