<svg id="Layer_1" data-name="Layer 1" xmlns="http://www.w3.org/2000/svg" viewBox="0 0 6472.06 1920.05"><defs><style>.cls-1{fill:#fff;}</style></defs><path class="cls-1" d="M768,0q69.88,161.2,139.73,322.41,88,203.89,175.72,407.93c2.76,6.39,6,12.56,10.82,22.5,24.28-73.5,47.31-143,70.22-212.54,54.2-164.5,108.64-328.91,162.06-493.66,5.48-16.91,13-21.74,30.2-21.33,50.81,1.22,101.67.44,156.1.44L1112.21,1185.94l-9.35.39c-112-264-223.94-528-338.36-797.81L418.12,1185.37l-6.19-.07c-3.32-7.28-7.22-14.36-9.88-21.87Q205.86,607.35,9.79,51.24C7.23,44,3.29,37.2,0,30.2V25.89c56-.05,112.09.7,168.09-.6,18.14-.42,25.7,5.32,31.46,22.62Q313.27,389.22,428.53,730c2.15,6.37,4.82,12.56,8.83,22.94,12.95-30.18,24-55.84,35-81.53Q615.89,335.73,759.39,0Z"/><path class="cls-1" d="M6472.06,901.77c-3.34,16.07-6.24,32.24-10.09,48.18-19.86,82.32-67.95,143-141.79,183.69C6191.75,1204.35,5949,1214,5796,1087c-47.55-39.49-85.6-86.29-115.68-143.14L5831,868.47c4.77,7.33,9.07,13.7,13.14,20.22,73.14,117.17,222.57,166.56,351.44,116.13,108.78-42.56,132.71-173.4,43.45-249.39-29.08-24.75-64.38-43.14-98.87-60.34-59.14-29.49-121.66-52.52-179.38-84.37C5914,584.93,5867,555.4,5829.25,518.29c-87-85.4-102.46-192.76-67.92-305.39,34.85-113.61,121-172.79,234.11-195.22C6059,5.08,6122.91,8,6186,22.15c98.86,22.2,171.63,79.67,224.36,168.64L6274.9,279.68c-4.92-6.82-9.43-12.94-13.8-19.15-55.67-79.18-158.79-112.58-250.78-81.19-95.69,32.64-122,153.52-47,221.34,20.47,18.49,45.2,33.44,70.13,45.6C6102.57,480,6174,509,6242.14,544.45a770.62,770.62,0,0,1,126,82c58.51,46.91,89.41,111.24,99.43,185.52.94,7,3,13.82,4.52,20.72Z"/><path class="cls-1" d="M2260.91,0q99.95,231.51,199.88,463,147.64,342.43,295.09,685c2.51,5.83,4.53,11.86,7.62,20-7.63.61-13.63,1.51-19.63,1.52-49.6.11-99.22-.71-148.79.49-16.67.41-23.34-5.89-29.4-20.6q-149.32-362.76-299.81-725.05c-2.93-7.08-6.14-14-10.86-24.83-27.62,65.53-53.66,126.93-79.38,188.47q-117.18,280.43-233.73,561.11c-6.59,16-14.37,21.31-31.48,20.91-51.68-1.22-103.41-.44-159.76-.44L2252.28,0Z"/><path class="cls-1" d="M4854.05,1920.05c-15.29-3.37-30.7-6.25-45.84-10.19-112.2-29.23-186.11-133.23-177.14-248.92,9.41-121.29,96.78-212,215.33-223.59,113.54-11.08,215.66,50.49,253.55,152.87,38.72,104.64,3.51,222.23-85.12,284.18-31.8,22.22-67.1,35.49-105.37,41.26-7,1.06-13.93,2.9-20.9,4.39Zm-146.41-242.79c0,99.71,69.91,173.19,164.86,173.39,95.16.19,165.07-72.62,165.65-172.53.59-100.73-69.73-174.61-165.87-174.27C4777,1504.18,4707.61,1577.28,4707.64,1677.26Z"/><path class="cls-1" d="M4237,1920.05q-17.73-3.87-35.48-7.73c-116.56-25.1-192.41-130-183.69-254,8.42-119.66,100.08-213.34,217.24-221.24,74.47-5,141.42,11.94,193.34,69.81,5.23,5.83,9.87,12.17,16.51,20.43l-56.76,40.45c-37.5-50.53-88.81-68.38-149.43-63-40.59,3.57-74.34,20.94-101.22,51.36-60.59,68.55-56,186.48,7.54,250.39,50.8,51.11,172.86,73.79,254.44-23.47l55.84,38.48c-34.18,47.41-77.75,77.32-133.24,89.65-15.32,3.4-30.83,5.94-46.25,8.88Z"/><path class="cls-1" d="M1324.62,1920.05c-17.44-3.91-35.11-7-52.26-11.85-111.41-31.61-180.5-139.45-166.87-259.8,13.26-117.11,104.88-205.31,219.78-211.59,90.43-5,160.12,25.29,205.56,91.21-18.2,12.93-36.5,25.91-54.73,38.85-72.77-91.74-198.7-70.61-248.95-14.77-61.78,68.64-60.49,188.08,4.2,253.91,52.14,53,174.33,73.08,254.57-23.12l56.27,38.71c-40.35,55.29-92.61,85.66-158,94-7,.89-13.81,2.91-20.71,4.41Z"/><path class="cls-1" d="M4660.35,1009.49h568.49v158.86H4480.49V27.23h725.28V184.82H4660.72V512.65h482V669.83H4660.35Z"/><path class="cls-1" d="M3485.89,792.36c23.25-56.45,44.29-107.48,65.28-158.53q120.9-294.09,241.47-588.32c6-14.75,13.26-20.54,29.69-20.19,52.4,1.15,104.85.43,161.26.43Q3735,609.43,3488.55,1188l-9,.34L2969.13,25.75h42.66c42.42,0,84.86.84,127.24-.42,16.48-.5,23.47,5.45,29.71,20.22q152.06,360.51,305.32,720.52C3477.11,773.24,3480.45,780.29,3485.89,792.36Z"/><path class="cls-1" d="M2072.58,1910.56V1442c78.9,3.46,157.51-10,233.57,17.07,103,36.62,160.11,139.6,142.68,256.61-15.8,106.08-85.64,178.29-192.29,191.17-53.93,6.51-109,3.65-163.54,4.88C2086.71,1911.82,2080.4,1911,2072.58,1910.56Zm73.86-63.33c31.79-1.44,61.29-.93,90.3-4.44,77.34-9.36,124.22-54.92,134.68-131.29,3.08-22.51,2.78-46.08,0-68.67-5.79-47.14-26.75-86.23-69.42-110.7-48.63-27.9-101.57-24.42-155.57-22.36Z"/><path class="cls-1" d="M3544.93,1911.68c-27.42,0-50.23.94-72.86-.64-6-.42-13.12-7.59-16.78-13.49q-44.29-71.47-87.19-143.8c-6.11-10.28-12.59-15.75-25.38-15.08-21.45,1.11-43,.3-67.61.3v171.25h-74.55V1445.76c2-1.3,3.19-2.7,4.34-2.69,61,.59,122.46-2.89,183,2.93,101.23,9.73,156.6,96.1,128.44,192.62-11,37.68-28.86,57-83.14,88.77ZM3275,1677c41.05-2.72,80-2.33,117.8-8.68,34.2-5.74,50-30.85,52.71-69.53,2.77-39.33-11.28-68.55-41.15-80.41-42-16.68-85.72-7.71-129.36-9.81Z"/><path class="cls-1" d="M2975.45,1845.11v65.06h-306.9V1443.84c6.11-.56,12.25-1.61,18.41-1.62,86.28-.11,172.57.3,258.85-.41,16.07-.13,21,4.54,20.93,20.69-.19,46.09.5,46.09-44.78,46.09H2743.37v133.17h196.8v65.38H2742.64v138Z"/><path class="cls-1" d="M1757.55,1443.28h70.94V1910h-70.94Z"/><path class="cls-1" d="M5319.65,1915.84c-27.55.12-49-21.61-48.53-49.23.42-26.94,21-47.14,48.09-47.26,28.06-.12,48.78,20.86,48.38,49C5367.21,1895.22,5346.51,1915.73,5319.65,1915.84Z"/></svg>