<svg id="Layer_1" data-name="Layer 1" xmlns="http://www.w3.org/2000/svg" viewBox="0 0 7925.48 1765.89"><defs><style>.cls-1{fill:#a62b2a;}</style></defs><path d="M1244.8,928.1V1528l223.5,15v222.88H723.53v-218q114.3-11.14,228.45-22.35V218.67c-81-7.83-154.72-14.92-228.45-22.06V.5h744.29V203.35l-224.1,12.15V701.6Z"/><path class="cls-1" d="M2033.58,1308.31c-27.08,39.23-57,76-94.12,106.33-26.75,21.9-55.18,40.91-89.28,49.68-20.44,5.26-41.1,6.18-61.48.91-61.89-16.06-123.86-15.49-186.15-2.75-75.5,15.44-142.4-4.15-200.77-52.69-118.06-98.14-193.06-222.49-223.63-373.23-11.86-58.42-17.21-117.43-13.72-177,3-51.88,9.66-103.42,31.28-151.22,38-84.09,103.75-133.85,194.48-149.12,72.75-12.25,143.42-1.88,211.64,25.44a137,137,0,0,0,50.09,10.23c5.6.07,8.36-1.65,10.33-7.23,13.88-39.25,27.67-78.55,47.83-115.25,19.4-35.28,43.38-66.88,73.11-94.08,12.48-11.41,27-14.49,42.88-9.49,9.62,3,17,9.19,18.65,19.9,1.78,11.2-3.17,19.6-12,26a36.43,36.43,0,0,1-7.22,4.13c-36.61,15.07-63.72,41.27-85.38,73.58-19.75,29.49-34.54,61.6-47.79,94.43a24.27,24.27,0,0,0-.73,2.85l1.19,2.58c16.31-4.9,33-8.87,48.87-14.83,61.39-23,124.63-31.51,189.76-25,59.44,5.92,106.2,35,142.65,81.31,42.47,54,68.88,115.46,78.33,183.17C2177.39,996.08,2136.15,1159.75,2033.58,1308.31Z"/><path class="cls-1" d="M1725.78,432.31c-9.51,11.26-19.81,20.53-33.71,24.38-31.54,8.72-62.51,4.21-93.1-5.25-35.1-10.84-66.56-28.84-96.47-49.78-41.62-29.14-79.74-62.1-109-104-10.34-14.77-18.2-31.34-26.58-47.41-3.85-7.4-2.75-9.43,5.31-9.4,17.1,0,34.34,0,51.29,2,35.52,4.21,71.17,8.35,106.27,15.05,56.8,10.84,110.3,31.15,157.69,64.87,23.53,16.73,40.83,39.28,46.82,68.42,1.71,8.33.27,17.29.27,28.1Z"/><path d="M2563.81,1542.57v215.89H1841.2V1540.58l217.42-10.5V1041.35h-304a32.33,32.33,0,0,1-32.33-32.33V843.41a28.55,28.55,0,0,1,28.55-28.56h307.83l1.72-113.25V217c-72.12-4.46-144.45-8.92-221.94-13.73V0h724.17V204.1c-66.47,3.47-131.86,6.89-206.56,10.75V1527C2421.94,1532,2490,1537.06,2563.81,1542.57Z"/><path d="M2477.16,345.56H2707.6v68.16l-69.38,4.07V581.11h252.84V418.31l-68.72-4.61V345.4h224.21V414l-64,3.62V858.4l64.34,5.24v72.52H2823.2V863l67.32-3.53V657.19h-252V858.73l69.2,5.06v74.87H2477.16V865.44l70.73-7.52V418.86l-70.73-7.4Z"/><path d="M4624,764.4c51.94-131,102.43-255,149.73-380.13,12.36-32.72,29-44.09,63.37-42,50.76,3.06,101.85.79,155.57.79v71l-66.75,3.4V859.06l66.65,3.91v73.81H4764.78V863.43l66.72-4.32V439.81l-6-2-205,502.67-14.27,1.09Q4506.33,687.3,4406.37,433l-5.56.62V860.73h79.09v75.66H4251.33v-73l67.42-4.36V418.13l-67.58-4.41V343.49c66.45,0,131.81-1,197.05,1.29,8.09.28,18.51,17,22.87,28.08C4518,491.77,4563.82,611.08,4610,730.27,4613.49,739.28,4617.32,748.17,4624,764.4Z"/><path d="M5033.05,931.5v-68l67.09-4.46V418.24l-66.69-4.66V349.21c102.2,0,203-4.66,303.16,1.74,60.31,3.86,103.07,44,114.59,106.65,13,70.94-7.66,128.18-80.89,161.76,9.28,5.12,14.84,8.64,20.76,11.39,71.39,33.13,103.21,86.75,94.81,160-8.93,78-51.95,132.91-131,138.79C5248.81,937.44,5141.71,931.5,5033.05,931.5Zm156.38-64c48-3.66,92-3.45,134.47-11.19,47.72-8.68,74.08-44.6,75.25-90.53,1.14-44.49-21.47-80.52-68.47-91.47-45.1-10.5-92.42-11.41-141.25-16.81Zm-1.68-452.78c0,51.32-.14,97.16.1,143,.06,10.58,1.43,21.14,2.47,35.4,18.91,0,35.63.72,52.27-.19,18.12-1,36.41-2.23,54.2-5.6,47.33-9,71.4-35.31,72.72-77.47,1.44-45.57-23.64-80.87-69.75-88.65C5264.56,415.31,5228.11,416.8,5187.75,414.77Z"/><path d="M6086,936.57v-73l67.34-4.67V418.18l-67.05-4.59V349.24c109,0,216.25-6.74,322.21,2.19,80.35,6.78,118.93,59.16,123.77,134.5q7.19,111.66-102.59,154c-3.24,1.25-6.06,3.62-12.34,7.47,31.26,67,62,134.12,94.44,200.39,3.46,7,17,11.12,26.53,12.72,12.82,2.14,26.26.53,42.2.53V938.6c-35,0-69,1.82-102.53-1.17-9.35-.83-20.62-14.3-25.61-24.59-35-72.32-70.5-144.53-101.85-218.46-14-33-31.53-48.94-67.62-42.45-11.68,2.11-24.07.33-39.15.33V859.09l63.94,3.79v73.69ZM6244,409.18V590.57c49.36-4.67,95.65-5.65,140.45-14.31,41.36-8,58.49-35.59,58-76.79-.5-43.5-19.17-72.21-60.68-79C6336.86,413.05,6290.8,412.7,6244,409.18Z"/><path d="M5958.5,517.43V419.05H5702.83V594.88h224v71.79H5702.06V858.28h255.19V749.71h70.83V936.79h-482V863.58l66-4.62V418.24l-66.84-4.64V345.45h483.31v172Z"/><path d="M7105.85,725.12H7000.22V652.7h196.7c20.73,87.25-24.27,193.2-104.79,247.93C6958,991.79,6754,957.1,6663.71,827.78c-95.08-136.17-63.26-344.44,67.32-440.52,110.12-81,258.26-72.95,369.45,23.37,1.49-22.75,2.78-42.52,4.24-64.89h67V532c-41,4.93-72.93,9.1-98.38-37.19-40.23-73.19-123.09-98-214.33-76.62-81.89,19.17-144.65,88.19-154.21,175-3.83,34.8-4.55,71.38,1.73,105.6,26.78,146.17,197.35,221.44,325.74,145.35C7075.88,818.26,7100.63,780,7105.85,725.12Z"/><path d="M3694.73,641.34c-.1,142.74-78.21,257.94-200.5,295.66C3363.39,977.36,3227,933.7,3153,828.07c-99.65-142.1-73.51-421.43,161.35-485.2C3518.17,287.51,3694.87,426.86,3694.73,641.34Zm-503.49,5.38c.58,8.75,1,23.39,2.61,37.89,11.56,102.69,87.88,177.79,188.66,186,96.45,7.84,186.35-52.72,208.29-151.65,10.94-49.35,10.88-104.79.67-154.36-15.48-75.09-65.74-127-142.65-145.6C3306.54,384.6,3191,484.85,3191.24,646.72Z"/><path d="M3746.06,936.69V863.58l67.34-4.69V418.18l-67.31-4.66V346.57h222.38V414l-64.59,3.47V858h210.06V661.64h70.91V936.69Z"/><path d="M2477.16,1224c1.12-2.25,2.76-4.38,3.29-6.76,19.4-87.3,90.21-139.53,175-129,88.14,11,143.91,78.08,140.88,169.28-2.19,65.86-28.22,118.67-89.92,146-58.69,26-117.23,21.39-169.76-18.52-31.38-23.85-49.18-56.67-56.08-95.44-.65-3.67-2.25-7.18-3.4-10.77Zm49.55,31.5c.32,4.74.5,13.24,1.52,21.63,6.67,54.9,48,94.77,102,98.56,51.67,3.62,99.63-29.38,111-82.13a199.45,199.45,0,0,0,.29-80.78c-8.6-40.85-35.55-69.18-77.77-79C2588.13,1116.25,2527.09,1169.13,2526.71,1255.51Z"/><path d="M4086.28,1370.56v-237.2l-35.36-1.9v-35.93c3.74-.65,8-2,12.27-2,42.43-.1,84.88-.34,127.31.28a176.14,176.14,0,0,1,38.69,4.72c38.42,9.33,58,33.25,60.21,71.81s-16,67-51.73,81c-2.89,1.13-5.73,2.39-10.15,4.25,16.91,36.29,33.08,71.7,50.15,106.68,1.95,4,8.62,7,13.56,7.92,7.44,1.32,15.29.34,24.18.34V1412c-18.64,0-37.29.79-55.78-.57-4.5-.33-10-7-12.46-12-18.73-38.74-37.8-77.36-54.63-116.92-7.7-18.11-17.16-27.69-37.5-23.85-6.2,1.17-12.8.18-20.53.18v110.63l34.87,2.25v38.83H3935.16V1372l36.35-3c-7.58-22.36-14.12-43.35-22.18-63.73-1.39-3.52-9.24-6.22-14.17-6.33-27.4-.6-54.85-.81-82.24.16-5.49.19-13.75,4.89-15.65,9.58-7.82,19.19-13.67,39.19-20.76,60.43l34.62,2.77v38.91H3618.58v-39.19l36.63-2.23v-108H3519.55v108l36.42,2.21V1411H3435.53v-39.45l35.11-1.7V1133.29l-34.86-1.83V1095.1h120.66v36.11l-37,2.18v87.27h135.33v-87l-36.77-2.49v-36.54h120.17v36.64l-34.37,2v237c21.3,0,42.55.35,63.77-.37,3.31-.11,8.21-4.47,9.42-7.9,26.68-75.48,52.93-151.11,79.89-228.48l-39.29-2.25v-36.62h157.06v36.45l-37.49,2.53c9.64,27.93,18.76,54.26,27.82,80.61,16.1,46.84,32.51,93.57,48,140.61,3.88,11.76,9.45,16.76,22.19,15.91C4051.87,1369.73,4068.66,1370.56,4086.28,1370.56Zm47.53-144.27c28.13-3.1,54.13-4,79.17-9.34,21.07-4.51,28.8-19,28.2-41-.59-21.68-9.59-36.75-29.83-40.32-25.17-4.43-51-4.82-77.54-7Zm-200.53,32.52c-13-38.72-25.22-75.26-39.09-116.64l-39.6,116.64Z"/><path d="M4360.57,1133.27l-36.74-1.66v-36.29c3.62-.57,7.87-1.82,12.13-1.83,44.36-.14,88.73.18,133.09-.12,121.66-.81,168.85,84.72,156.91,185-10.23,85.88-63.49,132.21-150,133.44-50.18.71-100.38.13-152.06.13v-40.21l36.64-2.32Zm48,237.81c30.87-1.39,60.89-.28,90.08-4.66,40.24-6,64.85-32.6,73.1-71.72a228.71,228.71,0,0,0,3.93-63.91c-2.84-37.31-16.6-70.35-52.81-87.62-36.76-17.54-75.9-9.72-114.3-9.79Z"/><path d="M5224.1,1384.41c-75.18,48.61-144,42.71-180-14.25-34.45-54.42-13.63-116.83,53.42-157.57-4.19-12.42-9.15-25-12.62-37.91-7.82-29.12,1.49-56.74,23.87-73.38,23.4-17.39,62.92-18.85,89.1-3,25.6,15.51,32.46,39.6,29.41,67.48-2.21,20.22-13.81,35-30.49,45.59-10.89,6.91-22.7,12.39-35.1,19l63.88,85.81c8-22.92,15.69-41.74,20.88-61.22,2.93-11,7.44-15.08,18.61-14.52,15.5.79,31.07.2,47.9.2v40.72c-32.52-9.81-39.47,13.1-46.77,36-1.76,5.52-5,10.6-7.72,15.79-10.76,20.36.72,39.91,23.84,40.34,9.68.18,19.36,0,30.46,0,.58,7,1.24,12.64,1.47,18.26.24,5.82.05,11.67.05,20.41C5281.53,1407.06,5243.25,1429.53,5224.1,1384.41Zm-24.8-33.23c-20.9-28.17-41.07-55.34-61.22-82.52-18.6-25.07-31.88-25.46-50.34.9a75.56,75.56,0,0,0-12.6,34c-3.1,29,13.84,56.09,39.71,68C5142.36,1384.13,5173.73,1376.86,5199.3,1351.18Zm-82.1-194.34c8.53,13.25,14.37,33.58,26.22,38.08,18,6.83,45.32-22.25,45-41.84-.34-18.51-13.21-30.67-32.91-31.09C5134.83,1121.56,5121.82,1133.88,5117.2,1156.84Z"/><path d="M3001.29,1255.7c16.73,35.93,31.39,71.51,50.11,104.81,4.79,8.5,22.42,9.79,37.19,15.57V1412c-18.37,0-37.07.8-55.61-.58-4.45-.34-9.82-7.23-12.28-12.32-19-39.31-38.33-78.5-55.49-118.62-7.25-17-16.46-24.71-34.78-21.82-6.86,1.08-14,.18-22.3.18v110.23l35.08,2.87v38.71H2824.12V1371.8l35.66-2.16v-236l-35.39-2.5V1095.6c2.54-.7,4.93-1.95,7.32-1.94,50.24.21,100.57-1.23,150.69,1.35,59.42,3,90,44.23,78.49,101.12C3055.3,1223.78,3039.53,1240,3001.29,1255.7Zm-92.78-126.9v96.66c25.68-2.13,49.81-2.43,73.27-6.55,23.19-4.08,33.34-19.05,33.17-41.58-.19-24.08-10.59-39.15-34.18-42.88S2933.27,1130.58,2908.51,1128.8Z"/><path d="M3370.8,1284.57l35.2,20.73c-9.1,62-70.89,104.88-121.86,111.11-83.15,10.15-149.91-26.29-176.61-97.5-28.67-76.47-4.57-162.34,57.53-204.93,59.17-40.58,137-34.77,192.62,16.15v-35h39.09v99.16c-23.34,3.93-40.62,3.46-54.9-21.74-21.56-38.06-66.07-50.42-113.86-38.75-42.41,10.36-75.5,47.52-80.34,93.38-2,19.24-2.09,39.44,1.41,58.38,8.65,46.83,41.76,80.08,83.76,87.74,50.77,9.26,89.28-10.38,117.89-51.42C3358.38,1310.88,3363.57,1298.18,3370.8,1284.57Z"/><path d="M4823.38,1104.92c2.86-23.88,23.26-7.23,37.78-11.63v90.13h-34.63c-7.13-39.65-45.4-64.76-82.44-54.81-19.24,5.17-30.44,17.45-32.49,37-2,18.67,5.14,34.3,22.61,41.73,25.75,10.94,52.58,19.3,78.59,29.65,50.22,20,72.37,61.89,60.33,112.74-14,59.31-85.58,87.79-143.65,57.1-6.3-3.33-12.22-7.37-19.93-12.06l-4.16,16.82h-36.84V1303.7h38.58c-2.89,22.56,3.51,42.63,22.23,54.61,13.7,8.77,30.1,16,46,18,26.45,3.24,46.82-12.26,52.31-34.33,6.57-26.47-3.48-51-27.93-62.45-17-8-35.42-13-53.21-19.42-9.2-3.29-18.67-6-27.57-9.95-40.52-18.06-59.26-53.5-50.75-95.15,8.08-39.49,42.44-68.9,84.76-66.85C4776.16,1089.3,4798.92,1098.81,4823.38,1104.92Z"/><path d="M5791.14,1418.7H5749c-22-82.09-44.05-164.37-67.59-252.18-21.57,87.68-41.69,169.46-62,252h-42.45q-25.14-92.57-50.3-185.19c-6.51-24-14.33-47.67-19-72-3.34-17.25-10.27-25.53-28.21-22.51-3,.51-6.33-.45-10.78-.84V1101.4h115.25v36.66l-38.29,1.75c17.73,69,35.05,136.35,52.37,203.72l4.31.78c16.44-67.52,32.87-135,49.73-204.31l-38.57-2.06V1101h142v37l-38.31,1.81,52.86,205.61,3.51.46c16.49-68,33-136,50.11-206.48h-37.9v-38.06h234.29v36.48l-34.86,2v236.61l34.92,2.59v39H5900.62v-39l35.94-2.38V1139.11c-23.23,0-45.9-.92-68.37.78-4.44.33-10.21,10.18-11.82,16.54-20.22,79.82-39.78,159.8-59.52,239.73C5795.13,1403.13,5793.32,1410.08,5791.14,1418.7Z"/><path d="M6040.54,1418.26v-39.48l36.88-1.87V1140.14l-36.85-2.36V1100c31.77,0,62.91-.74,93.94.7,5.48.25,12,8.78,15.55,14.91,40.94,70,81.38,140.18,122,210.3,3.09,5.33,6.73,10.32,12.59,19.23V1139.89l-36.54-1.76v-36.72h123.21v37.28H6326.2v280.64c-16.19,0-30.62,1.46-44.5-.68-5.9-.91-12.17-8.46-15.69-14.5-44.47-76.21-88.45-152.7-132.61-229.09-3.14-5.43-6.73-10.6-12.67-19.9v221.52l36,2v39.62Z"/><path d="M6937.55,1419.36c-18.62,0-36.8,1-54.76-.63-5-.44-11.12-7.58-13.79-13.08-18.78-38.8-37.75-77.56-54.6-117.22-7.46-17.57-16.72-26.45-36.16-22.89-6.26,1.15-12.91.18-21.06.18v111l34.17,2v39.52H6673.1v-39.12l35.56-2.52V1140.14l-35.93-2.46v-34.56c58.37,0,115.85-3.61,172.63,1.18,43.09,3.63,63.71,31.61,66.38,72,2.64,40-15.8,67.75-54.83,82.75-1.75.67-3.28,1.9-6.77,4,16.73,35.93,33.17,71.94,50.56,107.49,1.86,3.81,9.07,6.08,14.15,6.94,6.88,1.17,14.1.29,22.7.29Zm-181.38-186.25c28.15-3.12,54.06-4.37,79.25-9.3,19.55-3.83,28.48-19,28.24-39.29-.26-22.27-8.25-37.71-28.19-41.58-25.67-5-52.17-5.61-79.3-8.21Z"/><path d="M6466.54,1140.58V1235h120.77v38.53H6466.8v102.79h136.81V1318h37.94v99.69H6383.21v-38.56l35.41-2.51V1140.16l-35.84-2.48v-36.59h258.35v92.3h-36.21v-52.81Z"/><path d="M7075.84,1377.54h40.07v40.78H6989.49v-39.48l40.33-2.1c0-34.42.15-68.16-.24-101.89,0-3.46-3.16-7-5.27-10.28-24.92-38.36-49.6-76.88-75.26-114.74-3.62-5.34-11.79-8.83-18.5-10.47-7.31-1.78-15.38-.4-24.86-.4v-37.44H7029.9v36.11l-32.51,2.74,59,93.27c20.73-31.63,40.08-61.17,61.14-93.32l-37.9-2.56v-36.5H7202v34.59c-.47.42-1.57,2.11-2.33,2-31.59-6-46.44,13.63-59.92,37.54-10.88,19.32-22,39.26-36.87,55.4C7062.8,1274.29,7078.21,1326,7075.84,1377.54Z"/></svg>