<svg id="Layer_1" data-name="Layer 1" xmlns="http://www.w3.org/2000/svg" viewBox="0 0 4584.9 1983.63"><defs><style>.cls-1{fill:#a62b2a;}</style></defs><path class="cls-1" d="M4175.49,904.78c-10.22-17.26-23.43-32.3-35.14-48.44-15.82-21.83-38.57-36.63-59-53-22.67-18.16-49.29-32.41-80.79-30.85-14,.7-28.23-.84-42,1.18-22,3.22-45.5-.54-65.41,14-4.31,3.14-12.48,3.55-17.07-1.32-10.48-11.13-25.2-16.42-35.82-27.22-26.25-26.68-58.25-41.25-95.33-45.27-17.15-1.86-34.69-.94-50.37,4.58-35.9,12.63-65.92,35-89.71,64.79-7.91,9.92-14.06,8.5-19.71-.68-9.37-15.22-23.3-24.06-38.66-32.31-20.1-10.79-42.89-12.28-63.52-21.18-30.55-13.17-29.92-.79-29.94-37.78-.06-98.62-1.58-197.28.6-295.85,1.28-58.23-10.86-117.52,10.56-174.75,3.14-8.38-1.75-14.14-12.3-13.47-42.22,2.66-83.29,12.15-124.56,20.45-11.37,2.29-15.6,8.61-8.94,19.56,5.32,8.76,8.57,18.13,8.54,28.53-.06,22.14.06,44.28-.12,66.41,0,4.25,1.7,10.55-3.87,11.69-5.38,1.11-6.38-5.26-8.48-9.07q-22.91-41.44-45.78-82.92c-4.75-8.6-10.47-12.77-21.84-10.9-15.21,2.51-30.95.35-46.31,4.75-9,2.6-15.39-1.47-19.05-11.94s-4.71-22.05-10.46-31.08c-17.34-27.17-37.55-48.81-71.72-59-33.89-10.08-65.27-9.1-98.22-1.77-10.84,2.42-21.55,4-30.05,12.34-2.57,2.52-7.23,3.37-11.1,4-16.17,2.69-32.35,3.55-43.65,19.1-12.58,17.31-38.12,24-41.19,49.46-.1.78-1.22,1.73-2.07,2.09-24.48,10.27-33.57,34.8-46.3,54.38-13,20.05-32,36.78-38.68,60.91-.48,1.72-2.39,3.29-4,4.42-6.38,4.49-12.89,3.65-13.52-4.34-1.34-17.05-16.22-25.77-22.58-39.78-4.59-10.13-14.68-17.23-26.78-20.14-19.14-4.6-34-15.32-42.34-33.58-4.57-10-11.09-11.43-20.51-6.94-27.52,13.15-56.15,24-81.9,40.76-10.84,7.05-17.24,17.71-25.27,27.28-18.88,22.55-24.82,51-34.11,77-17.87,50-12.18,99.25,22.67,142.22,6.11,7.54,6.29,15.07.92,22-6.18,8-12.94,2.39-18.33-1.8-13.08-10.14-26.11-20.41-38.36-31.52-7-6.37-10.12-14.76-5.18-24.53,9.68-19.13,10.87-39.29,6.84-60.07-2.17-11.19-7.16-21.28-8.8-33-4.71-33.69,1.3-68.18-9.8-101.46-6.49-19.44-4.64-20-20.94-6.76-.59.48-1.85.15-3.23.23-7-14.39,6.68-22.55,10.63-33.41,2.51-6.88,10.66-15.09,3.72-19.94-8-5.62-8.05,8.5-14.57,11.48-5.7-4.51-5.3-11.67-3.4-16.33,6.07-14.9-9.15-28.78-1-43.58,1.47-2.67-2.13-5.21-5.54-5.55s-5.89-1.59-6-5.38c-.28-16.09-11.84-26.76-21.46-36.39-6.88-6.87-13.28-20.09-26.44-17-10.41,2.4-12.73-1.67-13-10.28-.87-25.49-10-48.6-20.57-71.33-3.68-7.92-9.28-12.46-17.87-9.14-7.79,3-7.87,9.93-7.69,17.66.59,25.33,11.48,50.33,2.59,76-.83,2.39-.67,5.36,1.61,6.93,13.43,9.29,4.4,18.15-1.35,25.65-6.85,8.92-13.91,16.25-2.9,27,5.65,5.53-1,9.56-4.29,12.06-4.57,3.47-5.5-2.31-7-5-7-12.61-8.49-27.15-3-39.32,6.34-14.15,6.46-27.89,6.73-42.45a145,145,0,0,0-3-32.89c-5.16-24.29-8.23-49.23-23.39-70.56-7.94-11.17-14.3-8.71-21.7-1-20.79,21.74-41.06,44-62.24,65.33-14.27,14.37-26.44,31.58-32.13,49.41-7.27,22.74-16,45.35-21.19,68.83-1.12,5-2.06,10.08,1.74,14.28,3,3.34,7.59,4.15,11,1.8,5.31-3.64,9.16-4.84,13.83,1a13,13,0,0,1,2.46,12.67c-2.13,6.86-8.92,5.24-12.8,3.83-13-4.73-13.26,12.23-22.91,12.39,4.82,14.27-6.46,28-4,40.3,6,30.54,13.82,61.18,29,88.91,5.41,9.92,15.87,16.08,22.6,25.5,20.81,29.14,49.95,48.18,82.7,60.58,19.2,7.27,37.83,15.46,55.43,25.51,29.11,16.63,58.73,29.09,93.28,28.44,13.64-.26,27.07,6.47,41.25,6.54,2.8,0,5.93,2.41,5.65,5.88-.33,4.11-4,3.8-7,3.67-4-.18-8.18-.18-12-1.25-36.36-10.22-70.28-.08-103.76,12.56-38.07,14.37-75.83,29.54-113.92,43.88-12.3,4.64-13.76,12.57-8.21,22.51,7.2,12.89,8.42,26.43,8,40.78-1.84,56.74.88,113.48-2.51,170.34-1.69,28.43-.6,54-23.51,75.59-5.26,5-13.48,13.14-14,23.55-.56,10.93-8,14.44-17.62,14-7.72-.35-14.89,2-22.32,3.1-21.4,3.26-40.46,14.19-61.64,18.22-4.87.93-9.3,2-12.23-2.09-3.73-5.22.16-9.28,3.65-13.12,2.93-3.23,7.16-3.35,10.63-5.11,15.45-7.79,32.73-4.43,48.76-8.63,9.83-2.58,14-7.56,13.77-18-.56-27.15.06-54.33-.28-81.5-.17-13.4-5.55-16.58-17-10.14-4.68,2.64-8.21,6.11-12.75.36-6.34-8-12.35-4.28-17.81,1a81.93,81.93,0,0,1-22.16,15.43c-6.22,2.92-9.74,1.52-9.58-5.89.44-21.1,1.06-42.2,1.22-63.31.06-7.71,3.46-12,10.54-14.49,30.12-10.44,58.85-26.33,92.63-21.87,9.58,1.26,15.29-4.11,15.32-14.17.09-26.66.15-53.32,0-80,0-5-1.58-13.14-6.35-11.94-14,3.55-27.87-4.26-41.18.18-15.63,5.22-30.66,12.19-46,18.24-49.54,19.49-99,39.11-148.73,58.2-11.9,4.58-15.23,11.24-8,21.65,6.25,9,5.75,19.09,5.78,29q.3,131.34.28,262.66c0,19,2.55,38.65-15.35,52.54-1.64,1.27-1.27,4.88-2.68,6.77-11.07,14.88-10.79,34.46-21.31,49.74-10.72,15.59-21.92,32.53-23.85,51-4.95,47.37-6.8,95.08-9.36,142.68-.8,14.92,4,17.88,18.46,12.46,36-13.51,73.8-10.84,111.13-13.26,17.91-1.16,34,10.37,51.72,5.67,9.08-2.41,17.71-2.06,26.76-.19,19.86,4.1,40.39,1.82,59.23-2.37,17.55-3.9,35.37-10.11,52.77-16.07a307.57,307.57,0,0,0,103.2-59.31c10.24-8.88,24.43-15.1,30.85-25.48,11.06-17.87,30.18-28.7,38.43-48.32,7.15-17,18.71-31.43,25.52-49,10.4-26.89,28.51-48.58,59-55.39,5-1.1,6.53-1.65,6.9-8.15.46-8.2,3.6-19.52,14.61-19.87,12.8-.41,23.79-5.67,35.49-9,30.21-8.68,61.45-7.91,92.32-10.65,62.48-5.53,123.33,2.16,182.7,22.18,3.86,1.3,8,2.13,9.08,6.82,1.25,5.5-2.53,8.67-6.46,10.81-34.13,18.66-40.52,52.93-47.93,86.18-2.08,9.32-3.4,18.62-7.56,27.36-22.14,46.5-38,94.54-34.77,147,.63,10.17-3.46,16-13.06,19-35.74,11.1-71.75,21.4-106.55,35.38-15.91,6.39-33.7,11.4-45.44,23.06-20.7,20.59-43.92,39.87-56.28,67.51-15.58,34.81-32.79,69.24-33.54,108.61-.46,23.76,7.14,46.55,13.92,68.45,6.18,19.92,7.3,40.7,14.79,60.35,7.06,18.5,5.78,38.66,17.22,57.57,14.19,23.45,35.64,40.54,48.82,64.54,6.07,11,10.94,23.41,19.83,32.9,19.19,20.48,41.93,36.1,66.55,49.54,29.53,16.12,60,30.18,90.7,43.81,15.69,7,17.8,4.36,21.53-12.9,5-23.33,10.55-45.33,29.59-63.84,17.74-17.25,38.27-33.59,47.53-58.66,4.29-11.6,5.09-25,14-34.42,7.38-7.77,8.46-16.52,8.21-26.33a55,55,0,0,1,1.81-13.32c5.34-23.5,14.8-45.68,19.42-69.67,4.43-23.05,6.51-45.72,5.36-68.73-1.1-22.11,7.15-44.71-7-66.46-6.93-10.69,1.65-20.07,13.43-16.14,22.66,7.58,45,8.19,68.69,5.23,17.71-2.22,35.93.62,53.93-3.39,9.81-2.19,18.89-7.1,28.59-8.21,44.85-5.14,80.45-27.27,112.3-57.66,9.55-9.12,4.51-12.67-3.77-15.59-29.18-10.28-44.67-34.41-61.55-57.92-9.65-13.45-12.07-29.7-22.4-43.2-16.83-22-13.82-37.21,4.1-55,2-2,3.33-5.07,4.27-7.88,11.76-35,13.52-68.91-7.52-101.91-3.58-5.61-13.9-15-1.2-23.82,3.25-2.26.27-6.87-2.05-9.35a204.14,204.14,0,0,0-82-54c-8.24-2.92-15.05-1.43-18.32,9.3-5.53,18.15-4.55,38-14.65,54.92-10.22,17.16-9.87,37.17-14,55.93-3,13.79-6.93,16.33-20.75,12.53-15.94-4.38-29.56-13.77-45.47-18.57-19.55-5.91-20.37-14.41-8.64-31.82,18.26-27.08,37-54.18,32.53-89.69-.56-4.44.15-10.86,7.07-7.37,21.08,10.63,37-9.49,56.42-8.78,2.94.11,6.24-3.06,9-5.2,11.66-9.07,24.75-14.3,39.17-17.78s30.73-3.62,42.09-14.44c11.8-11.25,25-9.39,38.17-6.65,29,6,55,20.84,82.88,30.21,14.59,4.91,27.13,16.88,45.11,11.87,4.17-1.17,15.2,2.54,12,14.14-2.74,10,1.86,16.61,12.39,18.19,17,2.56,33.41,7.1,48.38,15.49,7.61,4.27,10-1.6,15.89-6.89-6.18,12.22,1.23,13.51,8.25,16.47,16.62,7,17.21,13.24,9.49,29.26-13.42,27.84-27.22,56.1-17.43,88.74.7,2.31.23,5,.41,7.45,1.87,26.43-5.78,54.06,10.32,78.75,2,3.11,2,7.63,2.73,11.52,5.31,28.19,17,52.94,40,71,7.75,6.09,14.23,14.74,25.11,15.9,12.88,1.37,24.41,6.72,35,13.39,13.39,8.45,28.54,9.23,43.16,12.16,7.6,1.52,13.93-2.33,9.59-10.87-7.84-15.42-1.84-29.63,2.49-43.67,9.38-30.44,20.16-60.44,29.89-90.78,3.33-10.37,10.4-13.79,18.83-6.73,8.81,7.37,16.54,16,24.9,23.94,33.73,32,67.58,63.87,101.23,96,5.42,5.17,9.44,11.9,15.13,16.68,14.58,12.23,16.18,32.44,29.37,45.68,7.93,8,19,11,26.06,20.17,17.19,22.21,39.07,40.28,55.54,63.33,15.51,21.71,37.64,39.57,36.82,69.86-.07,2.27,2.11,4.52,2.71,6.92,6.16,24.27,26.25,37.81,42.06,54.62,5.09,5.41,7.68,1.93,9.34-3.25,3.55-11.1,9.93-20.75,15.61-30.77,8-14.09,5.76-48-4.89-60-28.81-32.32-52.17-68.51-76-104.4-4-6-7.37-14-15.24-16-14-3.43-23.31-13.43-33.63-22.11-37.48-31.51-66.55-71.13-101.43-105.17-15.3-14.92-32.43-28.87-32.67-53.27,0-2.39-2.81-5.81-5.18-6.91-8.06-3.77-7.91-10.33-8.09-17.7-.55-23,5.49-45.76,1.21-69-1.64-8.83,1-18,6.66-25.72a26.36,26.36,0,0,0,5.28-15.43c.5-22.45,23.71-29.44,32.22-46.58.85-1.7,6.6-1.27,10.09-1.3,20.75-.2,37.73,10.25,54,21,9.81,6.44,7.64,16.58,1.21,25.18-3.88,5.2-8.5,9.84-12.66,14.84-22,26.52-24.65,59.65-29.62,91.5a89.86,89.86,0,0,0,3.77,41.61c16.63,51.1,54,82.14,99.18,106.44,51.37,27.68,102.62,24.25,152.85-2,11.46-6,22.3-6.09,31.28-1.23,11.66,6.33,13.89-.26,15.3-7.76,2-10.85,7-17.33,18.25-18.75,6.39-.8,8.21-4.91,6.56-10.92-4.29-15.55.5-29.41,7.9-42.88,20.35-37.06,32.36-76.92,24.86-118.75-10.44-58.18-47.57-98.06-98.66-125.24-13.49-7.18-27-15.45-43.46-15.79-6.63-.14-15.95.57-18.37-7.17-2.16-6.92,7.07-8.62,11.09-12.68,4.91-5,10.63-9.15,16.26-13.32,5.84-4.34,12.33-3.77,18.7-1.22,43.33,17.35,86.07,14.19,128.33-3.74,10.17-4.32,20.06-8.89,31.19-10.89A71.83,71.83,0,0,0,4094.3,1001c26.14-28.43,53-56.25,79.56-84.27C4177.35,913,4178.46,909.81,4175.49,904.78ZM2218.25,396.64c-4.81.22-8.94-1.38-9.55-6.85-.53-4.78,3.06-5.38,6.73-5.45,4.51.26,9.33.55,10.35,6.05C2226.85,396.2,2222.14,396.46,2218.25,396.64Zm-31.85,712.83c-2.31,5.71-7,9.23-13,11.73-25.66,10.74-50.36,24.56-76.85,32.34-32.2,9.45-59.47,30.58-93.31,35.86-12.9,2-16.56-3.17-18.41-13.15-.81-4.38-.27-9-.27-13.55q0-106.36,0-212.72h-.11q0-107.1,0-214.22c0-10,.74-15,13.41-21,30-14.33,64.08-20.71,90-43.41a10.46,10.46,0,0,1,6.7-2.63c24,1.43,44-10.37,63.82-20.7,12-6.25,16.22-.2,19,7.71,3.85,11,12.25,22.41,1.38,34.55-4.21,4.7,6.5,8.56,1.62,14.84-5.56,7.15-10.9,12.45-21,11.69-15.65-1.18-31.3-2-40.37,15.69-1.63,3.18-9.35,5.46-13.61,4.67-18.19-3.37-29.71,10.08-44.07,16.12-6.28,2.65-5.44,9-2.35,12.71,5.55,6.61,4.16,12.68,1.77,19.6-7.25,20.94-.79,42.4-2.11,63.58-.12,1.92,1.15,4,.9,5.83-.81,6.09-6.42,14.16,1.37,17.4,7.41,3.08,16.33,2.14,24.82-1.43,12-5,22.56-12.41,34.1-18.06,12.91-6.33,15.73-4.46,15.87,10.07.13,14.08-.24,28.17.09,42.24.18,7.63-2.86,9.79-10.41,11.08-13.63,2.32-27.07,5.11-40.91,6.71-17.17,2-27.21,16.42-27.24,33.93-.06,35.7.11,71.4-.09,107.11-.06,12.08,9.49,23.76.62,36.49-2.12,3,2.68,5.76,6.84,4.68,13.38-3.5,26.79-6.13,38.87-14.19,14-9.36,31.14-12.26,46.92-18,9.33-3.37,19.17-4.92,22.92-16.75,1.86-5.84,7.56-5,9.88.54C2190.27,1073.94,2193.68,1091.53,2186.4,1109.47Zm34.17-34.56c-.62,2.21-1.89,5.35-5,4.13a10.32,10.32,0,0,1-5-5c-3.33-7.55,5.57-31.5,12.87-35.08,1.11-.54,3.89-.23,4,.14.81,3.35,1.19,6.8,1.69,10.22C2228.94,1058.81,2223,1066.31,2220.57,1074.91Zm.16-98.09c-5.3,3.06-6,9-6.42,14.53-.63,8.06-6,9.23-12.65,9.52-8.32.36-8.13-5-8.63-10.84-1.87-21.5,14.21-33.72,25-48.62,1.74-2.4,5.79-2.75,8.33-.78,5.23,4,2.2,10.22,3,13.88C2230,964.4,2229.14,972,2220.73,976.82Zm979.13-692.46c13.35-2.07,25.6-8.47,39.46-9.23,10.2-.56,16.69,3.31,19.95,12.1,10.28,27.72,27,51.95,41.06,77.66q28.62,52.46,57.28,104.88c1.9,3.45,4.59,6.46,6.91,9.67l3.58-1.05q0-13.35,0-26.7-.1-95.07-.22-190.14c0-16.78,3.63-20.22,21-22.14,10.88-1.2,21.7-3.21,32.46-5.29,8.86-1.7,13.75,1,13.75,10.5,0,8-.07,16.1-.07,24.14q0,199.2,0,398.4c0,7.51.45,15-2.24,22.35-1.77,4.85,1,13.3-6.11,13.61-6.43.27-13.35-3.58-17.18-10-4.88-8.16-10.37-16.14-13.88-24.89-5-12.46-14.82-21.73-22.1-32.23-12.42-17.91-15-41.3-29.71-56-15.6-15.58-16.87-40.19-36.83-51.95-3.4-2-4.66-6.44-5-10.61-1.93-27.47-24.22-45-33.83-68.73-2.55-6.29-9.81-3.92-15-3.26-6.48.83-5.12,6.54-5.12,10.81-.08,87.52,0,175.05-.29,262.57,0,5.95,6.49,13.06,1.16,16.95-7.45,5.44-16.23,10.16-25.92,11.21-8.84,1-17.42.19-26.13,5-7.61,4.2-14.4-1-13.07-10.25,6.36-44,2.4-88.27,2.74-132.39.75-96.07.23-192.15.2-288.22,0-5,1.38-11.06-.86-14.88C3175.65,288.87,3186.67,286.4,3199.86,284.36Zm-69.59,145c2.29-3.72,6.16-7.86,11.1-6,5.15,1.95,3.9,7.63,3.92,12,.11,25.61.05,51.22.05,76.83h-.25c0,25.11.23,50.23-.08,75.33-.2,15.72-5.16,19.52-20.65,16.61-11.78-2.22-22.66-1.66-33.14,5.4-9.42,6.35-21.36,5.79-31.93,7.18-20.59,2.72-37.93,13.2-56.89,19.61-8.22,2.78-12.55,2.55-14.68-7.6-3.88-18.46,1.33-27.91,19.46-33.15,12.19-3.52,24-5,36.93-3.47,18.75,2.32,22.8-2.5,22.88-21.27.11-24.09,1.67-48.25.37-72.25-1-17.87,6.8-28.57,21.47-35.68C3105.32,454.85,3120.34,445.44,3130.27,429.33ZM3036,717.22c-3.35,1.32-7.13,3.11-9.75,0-3-3.61.56-6.37,2.88-8.9,10.11-11,20.24-21.9,31.79-34.38C3062.41,700.51,3057.42,708.74,3036,717.22ZM2999.07,341.7c18.28-6.21,37.48-9.69,54.93-18.52,5.66-2.86,12.32-4.29,18.69-5.12,15.95-2.08,17.4.05,15.49,16.27-1,8.44-.24,17.08-.69,25.61-.62,11.55-7.82,17.63-18.58,17.6-25.7-.07-49.08,9.13-72.94,16.59-.47.15-.9.66-1.34.66-30.51-.06-24.85,22-24.83,40.56,0,5.53,0,11.06,0,20.46-1.62,20.56,3.15,45.05-.81,69.46-1.41,8.73,4.05,10,11,9.92,18.19-.25,33.4-9.47,49.29-16.41,17.36-7.6,19.26-6.77,19.15,11.28-.23,39.92-.09,40.89-40,46.85-11,1.64-20.59,7.32-31.64,7.37-6.48,0-6.89,4.61-6.89,9.37q0,80,.12,159.91c0,8.16,2.95,12.4,12.14,9.62,7.14-2.15,14.44-3.38,21.6-5.95,23.15-8.31,46.74-15.38,70.14-23a17.83,17.83,0,0,0,5.36-2.52c4.7-3.61,9.54-10.32,15.34-7.18,6.83,3.71,5.9,12.53,4.92,19.34-1.56,10.77,7.43,21,.09,32.17s-19.48,9.39-29.42,12.53c-33.39,10.56-66.58,21.8-100.18,31.78-19.15,5.68-39,11-57.24,19.37-10.57,4.85-12.61-.25-11.26-7.26,2.14-11.09,1.35-22,1.36-33q.2-197.62,0-395.25c0-2.52-.67-5.28.13-7.5,2.91-8.07-13.13-16.07-1.62-22.41,7.14-3.94,14.71-8.42,22.81-10.8C2949.09,356.15,2974.47,350.07,2999.07,341.7Zm-104.78-64.23c2.9-31.7,19.22-60.31,40-86.79,3.88-5,7.6-1.74,7.87,3.1.49,8.51.52,18.7-7.26,23.17-10.41,6-10.19,14.18-11,24-.68,8.31,5.13,22.33-12.63,21.51-.88,0-2.31,3-2.77,4.79a97.59,97.59,0,0,0-2.55,13.11c-.73,6.53,1.82,16.84-6.64,16.88C2893.46,297.23,2894.22,286.71,2894.29,277.47Zm-89.62,306.4c4.73-21.73,14.63-32.74,37.21-34.27,7.73-.53,16.84-13.21,22.68-1.8,3.66,7.16.68,17.72.68,26.75h.17c0,6.54.28,13.09-.06,19.61-.57,11.26-11,19.74-22.21,18.62-3-.3-4.67-1.61-4.83-4.51-.7-13.16-8.08-10.62-16.8-8C2807.52,604.59,2801.51,598.36,2804.67,583.87Zm-255.74,175.6c-3.62-18.17-.72-35.93.73-53.7,3.23-39.66,9.8-78.63,24.45-116.14,5.07-13,7.69-26.75,13.62-40,8.83-19.65,25.82-32.85,35.16-51.34,10.83-21.47,30.07-35.23,48.62-46.64,32.89-20.23,68.54-37,109.74-31,8.24,1.2,12.94,5.17,13.24,13.5.6,16.51-.1,33,2.5,49.52,2.1,13.34-3.32,15.71-16.91,12.57-24.86-5.74-48.43-6.27-71,10.91-8.52,6.5-16.62,17.78-30.35,16.5-2.68-.25-4.05,2.14-5.19,4.64q-21.15,46.21-42.53,92.31c-3,6.37-1,12.66-.23,19.05,3,24-5.34,48.69,4.88,72.64,2.08,4.87-5.47,11.95-5.06,19.6.62,11.78,5.05,23.59.41,35.51-.64,1.65-.45,4.93.65,5.77,21.33,16.36,23.52,44.52,39.75,63.95,1.59,1.91,2.93,4.38,5,5.47,28.83,15.36,63.61-5.14,63.59-37.35,0-38.23.06-76.46-.09-114.68,0-8.8.37-17.12-4.66-25.88-6.43-11.23,5.12-23.89,22.56-26.33,7.91-1.11,14.88.61,21.06-9.36,4.46-7.18,18.92-3.81,28.57-2.15,8.36,1.44,4.73,10,4.8,15.34.35,28.17.16,56.34.16,84.5h-.06c0,24.65,0,49.3,0,73.94.06,26.4-10.21,47.44-27,68.22-11.47,14.17-26.47,23.68-39.29,34.79-11,9.56-27,18.42-45.32,20.9-18.87,2.55-37.43,2.18-56.13,3.06-4,.19-8.93.79-11.81-1.18-23.11-15.76-53.38-23-64.72-53-3.15-8.32-7.09-16.75-8-25.42-2.09-19.22-10-36.9-13.09-55.82C2545.11,780.91,2551,770,2548.93,759.47Zm216.13-148.06c-6.77,1.66-13.19,4.7-19.87,6.79-14.5,4.57-29.26-2-34.53-15.55-2.34-6,.13-10.52,6.63-10.18,24.56,1.26,37.5-15,50.46-31.92,8.56-11.17,10.33-10.61,15.52,2.81,2.17,5.59,5.4,10.86,3.92,19C2787.73,596.45,2781.42,607.39,2765.06,611.41Zm-124.85,61.91c1.2-4.16-1-11.77,7.16-9.7,7.11,1.8,15.85,5.59,15.87,13.59,0,7.65-9.42,8-15.35,8.73C2638.09,687.08,2640.8,678.91,2640.21,673.32ZM2651,763.45c4.89-3.42,7.36,3,10.54,5.81,9.76,8.49,18.69,17.54,32.84,19.68,11.58,1.75,8.15,13,9.35,20.73,1.37,9-1,16.23-10,19.35-8.7,3-14.93-2.48-19.23-8.58-9.5-13.5-18.88-27.25-24.59-42.92C2648.15,772.88,2646.62,766.49,2651,763.45Zm45-107.82c2,2.85,4.4,5.47,5.92,8.54,1.8,3.63,3.13,8.39.18,11.37-3.9,3.93-7.16-1-10.27-2.82-12.42-7.46-24.6-15.31-37-22.74-6.14-3.67-9.63-8.56-9.32-15.69-.31-11.66,2.58-20.09,16.88-18.35,9.6,1.16,17.25-4.28,24.92-8.8,5.41-3.19,10.26-3.91,15.1.42,5.28,4.75,10.34,9.92,10.54,17.5.13,5.14-4.34,5.73-8.38,6.8C2690.76,635.49,2687.84,643.88,2696,655.63Zm-178.81-81c7,3.27,13.58,7.8,12,16.39-1,5.44-1,17.17-8.35,14.23-8.7-3.48-5.09-16.67-8.48-25.18C2511.12,577.08,2513.05,574.37,2517.19,574.65Zm-7.66-4.69c.57.14.85,1.41,1.29,2.21l-1.7,1.94c-.58-.66-1.45-1.23-1.7-2C2506.86,570.34,2508,569.58,2509.53,570Zm-65.61,442.8c-7.77-.3-10.4-2.87-13.53-10.13-12.22-28.4-22.47-57.84-31.62-86.92-6.37-20.25-15.89-39.1-21.86-59.31-2.61-8.84-8.08-15.42-18.75-12.66-9.43,2.44-17.52,5.31-17.38,18.47.64,57.33.31,114.67.42,172,.05,25.84.27,26.29-24.56,32.39-13.52,3.33-27.35,3.9-37.57,16.1-4.37,5.21-10.36,2-10.51-5.94-.14-7.54,0-15.08,0-22.63V856.48q0-104.11-.07-208.22c0-5.48.47-10.92-1.48-16.38-5.93-16.63-3.1-21.42,13.1-30,29.69-15.67,62-24.6,92.8-37.11,20.92-8.48,41.57-16,63.86-16.93,23.83-1,53.91,25.7,62.2,48.13,10.2,27.64,5.69,55.64,4.2,83-1.17,21.65-4.15,46.41-18.53,63.2-11.8,13.78-13.62,32.8-28.69,44.11-8.37,6.28-6.44,20.39-17.53,26.62-3,1.67-.1,9.69,4.16,14.44,13.47,15,15.94,35.55,25,52.9,7.3,14,4.6,31.6,16.83,44.68,4.48,4.78,7,13.44,8.43,21.7a42.8,42.8,0,0,0,19.32,29.17c3.72,2.37,10,6.28,3.95,9.78C2493.64,998.51,2471.91,1013.82,2443.92,1012.76Zm405,87.94c-7.92,23.27-19.05,45.12-31.51,66.24-3.72,6.3-12,6.21-17.78,5.83-11.84-.76-23.66-3.55-35.23-6.54-10.83-2.8-7.66-12.48-8.22-18.22-.35-21.36,8.21-37.65,18.91-53,4.55-6.52,10.95-9.68,19.49-8.65,15.83,1.91,31.4,6.38,47.67,4.35C2849.74,1089.78,2850.75,1095.45,2849,1100.7Zm.92-86.51c-2.45,8.74-7.05,13.65-17.74,10.31-65-20.32-131.77-25.42-199.47-22.5-34.58,1.5-69.12,2.58-102.94,11.08-4.41,1.11-10.86,3.75-13.16-2.63-2-5.59,3.55-7.32,7.82-9,10.78-4.14,10.17-13.07,7.91-21.48-5.13-19.11-.21-36.54,8.23-53.18,4.1-8.09,4.8-16.18,4.88-24.76,0-3.78-1.6-8.76,3.47-10.42,4.37-1.42,5.34,3.56,7.8,5.73,30.88,27.25,65.5,47,107.76,47,28.52,0,55.64-8.94,80-23.74,28.82-17.54,57.8-37.24,69.84-69.84,6.25-16.93,21.86-22.59,29.17-36.58,1.88-3.6,7.34-2.85,11.21-1.38a8.44,8.44,0,0,1,5.66,9.62c-1,5.36-3.28,10.48-5,15.71-3.35,10.38-7.06,20.91,11,19.3,1.69-.16,4.84.91,5.09,1.94,4,16.72,15.19,8.72,23.75,6.49,21.52-5.63,22.14-5.5,25.44,17,.72,5,1.51,9.93,1.94,12.79.8,12.56-6.92,18.32-12.94,24.7C2883.64,947.88,2860.3,976.87,2849.88,1014.19Zm155.62-31.86c-26.91,8.2-50.39,23.95-76.24,34.49-5,2-9.42,5.62-13.64,9-4.53,3.69-9.23,6-14.57,5-32.16-2-34.31-2.86-22.29-32.18,12.51-30.53,32.1-57.51,55.67-81.09,1.61-1.61,4.81-3.17,6.72-2.67,20.51,5.4,44.66,3.21,58.52,23.43,6.78,9.89,5.11,23.77,12.89,34.25C3015.34,976.4,3010.09,980.94,3005.5,982.33Zm427.11,104.59c-23.09.25-46.31-2.6-69.19,2.81-3.37.8-8,.55-9.91,2.68-12.41,13.61-23.5,7.82-35.71-.59-25.61-17.67-55.06-28.83-80.7-46.66-4.4-3.07-7.41-5.5-9.16-10.72-5.34-15.87-21.22-22.67-36.92-15.67-6.6,2.94-11.74.76-17.1-2-30.14-15.58-60.19-31.33-90.35-46.87-7.85-4-12.86-11.13-19.18-16.81-3.69-3.31-4.26-8-2.74-12.55,1.82-5.4,6.68-5.33,11.29-5.34,6,0,12.08,0,20.64,0,13.06,4.26,26.5-5.65,41.32-6.67,5.17-.36,8.41-4,7.46-9.34-1.08-6.07-5.4-7.3-11.35-6.62-20.69,2.39-40.77,6-62.32.48-23.68-6-46.35-14.84-69.8-21.24-2.91-.79-6.11-1.35-8.51-3-4.12-2.81-14.49,1.7-12.45-6.09,1.86-7.1,12.28-9.85,19.12-6.88,7.47,3.24,13.11,5.74,20.66.57,6-4.08,8.66,2.77,12.13,5.79,6.76,5.88,12.71,14,23,5.69,1-.79,3.4-1.14,4.25-.5,10.16,7.63,23.07,4.11,32.83,7.21,17.74,5.63,34.74,2.11,51.85,4.26,7.67,1,15,.84,23,3.49,10.26,3.42,19.18-7.21,28.29-13.07,29.58-19,37.44-53,56.61-79,14.09-19.11,15.66-43.76,32-61.12,1.77-1.88,2.54-6,1.9-8.65-4.64-19.4,9.81-26.5,22.27-34.27,12.71-7.93,13.68-15.6.16-22.86-10.87-5.85-18.58-15.31-28.86-21.6-6.6-4-6.58-10.77-6.56-17.4.08-32.69.11-65.38.34-98.07,0-3.73-1.93-9.21,2.89-10.65,5.76-1.71,7.1,4.61,9.14,8.07,28.51,48.35,56.49,97,85.31,145.18,7.65,12.79,12.93,28.45,32.51,30.15,8,.69,7.48,9.45,4.12,16-5.43,10.52-10.06,21.69-17,31.19-10.94,15.07-11.12,34-20.09,49.67-5.62,9.79-3.58,20.74-2.89,31.08,1.31,19.5.92,39.83,6.59,58.17,14.31,46.33,44.81,77.14,94.69,84.36,19.26,2.79,38.89,6.31,58.08-1.11,6.69-2.59,11.12.84,13.69,6,7.41,14.8,14.5,29.78,21.06,45,4.46,10.32.27,16.5-10.89,14.13-37.35-8-67.41,6.68-95.31,29C3446.85,1087.25,3439.69,1086.84,3432.61,1086.92Zm134.9,40.33c-17.12,25.09-23.41,54-25.13,83.52a401,401,0,0,1-4,40.33c-1.91,11.89-6.87,13.13-16.24,6.47-21.88-15.55-34.38-35-31.71-63.2,1.79-18.79-4.63-37.77-.86-50.44,2.41-19.73-6.24-30-10.79-41.46-3.14-7.92-2.23-13.64,4.36-18.41,20.76-15,41.09-22,61.8-5.44,4.68,3.74,10.1,6.54,15.14,9.85C3576,1098.91,3578.07,1111.78,3567.51,1127.25Zm38.2-79.08c-4.5,6.26-9.66,1.45-14.31-1.63-12.51-8.3-15-23.39-23.38-34.54-5.88-7.8-10.42-16.9-14.86-25.93-5.9-12,.08-19,6-26.73,5.4-7,13.14-6.71,18.29-.58,13.45,16,26,32.81,38.66,49.45,1.76,2.3,2.46,5.4,3.53,7.87C3616.53,1027.86,3612.45,1038.78,3605.71,1048.17Zm53.74-222.86C3671.07,814,3673,794,3690,788.22c28.48-9.67,31.32-20.15,49.83,13.37,7,12.75,12.79,23.52,9.77,38.77-2.73,13.82-7.23,17.38-21.26,12.51-9.29-3.23-17-11.2-28-9.54-5.06-.06-10-.08-14,4-7.16,7.36-12.75,7.35-23,1.49C3649.47,840.83,3649.71,834.79,3659.45,825.31Zm-17.8,272.29c-13.24-1.14-16.25-8.09-12.52-20.74,11-37.33,14.76-39,46.24-17.79,18.57,12.5,39.1,20.27,60.9,25,14.38,3.13,15.9,7.56,6.62,18.62-7.48,8.91-15.85,16.57-27.39,19.63-8,.65-13.46-4.77-19.6-7.71C3678.57,1106.29,3661.05,1099.27,3641.65,1097.6Zm205.83,44.86c14.52,18.19,22.44,34.86,22,57-.5,24.17-13.89,42.77-26.74,61.37-8.15,11.78-18.57,19.1-35,18.42-12.8-.53-21.7,11.72-30.94,19.49-8.38,7.06-16,10.94-26.84,10.19-9.52-.66-19.12-.18-28.68,0-14.7.22-22.41-5.56-28.12-20.64-6.49-17.1-13.85-33-10.79-48.13,0-10.12-.13-16.67,0-23.2.43-18.57,6-23.75,24.55-27.24,18.35-3.46,34.67-9.13,43.79-29.25,4.52-10,12.17-18.1,14.37-30.16,2.59-14.22,23.75-18.35,37.68-17.9C3826.05,1113.14,3834.42,1126.12,3847.48,1142.46Z"/><path class="cls-1" d="M993.56,1530.21c-13.74,1.38-25.84-4.19-38.7-6.36-2.76-.46-6.52,4.14-9.61,6.67a160.45,160.45,0,0,1-33,20.68c-25.36,12.07-52.71,17.38-79.81,21.35-30.85,4.52-62.89,3.2-92.1-8.6-59.6-24.08-104.79-66.64-139.94-119.45-46.44-69.76-65-148-65.48-230.94-1.07-20.26,1.22-40.3,3.78-60.22,5.78-45,14.85-88.94,40-128,35.84-55.64,84.82-86.84,152.72-83.88,35.1,1.53,49.2,16.69,50.65,51.62.85,20.65-5.74,38.64-15.73,55.73-11.51,19.72-31.29,27.52-52.16,28.27-17.86.64-27.08-13.89-33.43-29.57-3.9-9.63-40.59-18.13-48.65-11.83a15.07,15.07,0,0,0-3.13,3.25c-8,11.77-14.28,24.12-14.66,38.85-1.13,43.49,44,95.43,89.62,104.22,35.89,6.92,70.07,2.81,102.44-13.57,35.46-18,62.14-44.62,80-80.74,17.51-35.41,19.16-73,16.34-110.56C898.25,917.56,867.54,872.65,810,850c-44.32-17.46-90.19-23.67-137.51-19.27-67.19,6.23-125.56,33.76-172.81,80.52-63.23,62.57-93.5,141.09-99.56,229.44-4.66,68-3.1,135.56,14.49,201.7,28.29,106.4,82.05,196.48,172.29,262.67,28,20.51,56.4,40.27,88.64,53.16,59.23,23.68,120.78,30.2,183.52,18.6,42.88-7.93,81.36-25.6,110.09-60.1,18.32-22,27.49-47.54,28.16-76.13C997.36,1536.51,997.21,1529.84,993.56,1530.21ZM955,1602.85c-24.24,26.85-53.32,43.24-89.33,50.92-44.86,9.56-88.41,7.7-133.41,1-48.46-7.22-87.56-32.11-123.67-60.46-25.46-20-52-41.14-69.53-70.39-5.08-8.47-14.88-14.41-23.23-20.53-7.73-5.66-13.16-12.52-14.69-21.77-2.37-14.38-15.2-23.16-19.11-36.28-7.37-24.74-21.3-47.14-25.94-72.68-1.35-7.46-.68-15-7.52-20.17-4.62-3.47-4.54-8.38-4.86-13.52-2.47-39.46-7.56-78.93-7-118.34.42-31.41-2.79-63.19,3.41-94.47,10.67-53.91,28.45-105.36,58.57-151.44C510,957.26,526.79,943.23,541.45,928c10.28-10.7,20.66-21.24,30.41-32.46,4.14-4.76,12.35-9.89,17.71-9,19.91,3.37,33.16-11.73,50.35-16C682.73,860,724.6,850.2,769.31,859.86c19,4.11,36.69,11,55,16.42,15.44,4.58,23.35,18.35,32.7,29.22,18.16,21.1,26.22,47.33,27.85,74.9,1.5,25.54,2,51.77-6.23,76.05-11,32.57-25.26,63.61-60.75,78.75-8.47,3.62-16.55,10.46-25.16,15.06-31.62,16.9-65.14,19.36-98.16,6.56-26.94-10.45-42.44-50.42-33.8-78.67,2-6.42,5.53-6.66,10-3.41,4.05,2.93,7.43,6.76,11.36,9.87,22.13,17.51,45.69,28.81,75.11,19.76,35.7-11,53.56-37.73,63.05-71.12,10.13-35.64-1.27-65.41-28-90.24-16.59-15.39-37.73-18.34-58.31-20.23-23.13-2.12-47.71-4-69.11,6.42-26.57,12.92-52.34,26.74-74.68,48.16-24.2,23.22-37.7,51.07-50.62,80.17-5.4,12.15-9.27,25-13.52,37.63-11.35,33.75-9.57,68.76-9.6,106.45-1.6,21.13.76,45.1-1.94,69.28-1.6,14.31,4,29.91,8.37,44.31,9.68,31.64,19.05,63.55,31.74,94,6.67,16,14.25,32.77,27.37,45.58,12.93,12.62,18.48,30.29,30.93,43.65,29.9,32.12,62.66,58.77,103.73,76.52,19.14,8.27,39.15,16.08,58.37,20.88a198.72,198.72,0,0,0,74.7,4.18c19-2.66,38.62-1.79,57-8.38,10.77-3.86,21.4-8.2,31.75-13.05,8.89-4.17,20.45-9.74,26.14-1.67C970.72,1585.6,961.93,1595.12,955,1602.85Z"/><path class="cls-1" d="M1552.24,860.54c-4.65.21-9,.2-12.77-3-4.76-4-10.13-3.6-15.69-1.83-29.16,9.3-58.39,18.4-87.5,27.87-15,4.89-17,9.52-8.53,22.92,5.15,8.12,6.93,16.27,6.83,25.58-.28,27.15,0,54.31-.22,81.46,0,4.81,1.23,10.07-2.48,14.14-2.75.22-3.52-1.71-4.67-3.28-17.22-23.53-28.13-50.74-43.82-75.16-8.89-13.83-12.78-34.13-37-28.88-2.31.5-5.54-2.05-8-3.69-4.8-3.15-9.6-2-14.5-.68-23.16,6.53-46.19,13.56-69.53,19.38-12.28,3.06-14.34,9.49-9.73,19.83,4.06,9.12,8.44,17.71,8.42,28.45q-.51,193.86-.27,387.72c0,17,.48,33.82-10.67,48.94-6.12,8.3-.92,16.14,9.41,15,7-.78,9.62.91,9.54,7.29-.15,13.46,8.18,11.38,16.44,9.06q47.81-13.42,95.53-27.07c15.23-4.34,18.66-10.08,11-23.67-7.33-12.93-8.67-26.1-8.6-40.38.26-54.31-.11-108.62-.12-162.93,0-4.3-1.51-9,1.74-13,5.11.06,6.53,4.08,8.56,7.4,32.57,53,65.49,105.79,97.44,159.17,8.37,14,27.19,13.12,34.54,27.44.33.64,3.28.79,4.28.11,7.18-5,15.89-4.33,23.74-6.77,10.53-3.28,14.26-9.08,14.23-20.9-.41-142.81-.13-285.63.07-428.45,0-14.5,1.35-28.61,7.51-42.38C1574,865.48,1569,859.78,1552.24,860.54ZM1540,900.73c-3.39,12.48-2.17,25-2.18,37.47-.13,133.29,0,266.58-.17,399.88,0,6.23,4.37,15.32-5.06,18.24-8.6,2.67-12.61-5.47-16-11.16-18.66-31.79-41.3-60.92-60.84-92.16-11.35-18.14-19.88-40.21-42.83-48.83a4.79,4.79,0,0,1-2.66-3.41c.1-25.6-18.51-39.93-33.58-56.48-2.19-2.41-2.9-6.15-6.06-13.22-3.92,20.68-9.3,36.5-9,54.21q1.63,84.48,0,169c-.27,15.28,9.07,28.29,6.61,43.77-1.86,11.71-14.08,26-25.73,24.57-11.4-1.45-20,5.26-30,7.36-21.41,4.47-25.49,3-28.75-18.84a51.21,51.21,0,0,1-.08-7.54c0-110.65-.59-221.32.56-332,.25-23.93-1.73-47.79-.69-71.71.4-9.23.67-18.1-4.66-27.38-6.55-11.39-.38-19.55,12.75-20.14,17.26-.78,32.53-7.42,47.69-14.93,13.42-6.64,31.92,2.39,34.34,17.14,1,6.07,4,9.94,7.58,14.09,13.74,15.73,22.81,34,29.1,53.79,2.84,8.93,10.52,14.77,14.09,24,4.4,11.35,10.32,22.3,13.4,34.27,3.94,15.33,10.83,29,22.47,39.82,4.7,4.38,4.5,11.06,8.48,15.75,6.59-3.06,7.79-8.16,7.77-14.6-.2-56.83,0-113.67-.33-170.51-.06-10.44-.91-21.16-3.47-31.23-2.05-8,.74-11.37,7.19-13.5,16.48-5.43,33.06-10.54,49.57-15.91C1539.82,887.23,1542,893.46,1540,900.73Z"/><path class="cls-1" d="M1924.2,738.56c.44-8.1-3.22-11.95-11-8.1-8.3,4.13-15.44,6.15-23.19-1.39-2.63-2.56-7.77-1.29-11.64.18-26.25,10-52.41,20.25-78.77,30-8.53,3.15-11.79,7.71-10.11,17,2.71,15,1.08,30.1-2,45C1780.86,853,1775,885,1766.84,916.46c-4.69,18.07-3.59,37.83-15.18,57.55-7.13-31.38-13.53-59.07-19.67-86.81-4.87-22-11-43.8-5.09-66.71,4-15.45.19-18.88-16-15-3.48.84-6.91,2-10.31.47-13.13-5.91-25.57-2.05-38,2.41-21.25,7.64-42.44,15.46-63.76,22.91-14.82,5.17-16.08,8.5-8.32,22.77,5.27,9.68,9.93,19.44,13,30.33,5.92,21.25,9.93,42.88,15.08,64.26,10.93,45.37,22.23,90.64,33.17,136,15.53,64.44,30.82,128.94,46.35,193.38,2,8.25,3.34,17.53,16.23,14.3,4.45-1.12,7.88,2.61,8.54,6.82,1.71,10.85,8.4,9.65,15.62,6.92,18.79-7.12,37.47-14.52,56.25-21.66,5.33-2,7.41-5.68,8.52-11.19,10.41-51.57,20.61-103.19,31.87-154.58q18-82.22,37.82-164c16.72-69,25.13-140.06,49.78-207.19A31,31,0,0,0,1924.2,738.56Zm-30.8,36.6c-4.36,8.43-5.35,17-5.33,26.18,0,19.39-10.25,36.35-13.2,55.25-5.32,34.12-13.13,67.9-20.67,101.56-6.25,27.86-11.2,56-16.89,83.93-5.42,26.58-15.48,52.26-16.2,80-.4,15.51-12.54,28.46-13,44.31-.75,23.05-11.77,44-11.51,67.67.3,26.23-17.29,42-43.23,44.53-20.71,2.07-25.6-2.32-28.34-28.73-2.38-22.92-13.55-43.61-15.87-66.42-2.26-22.24-10.45-43.07-14.77-64.83-4.52-22.75-12.38-45-14.83-68-2.11-19.6-18.75-34.52-14.42-58.07-4.34-16.48-8.61-35.79-14.57-54.57-7.78-24.55-11.74-49.85-16.54-75-1.12-5.87-1.14-13.47,6.54-14.9,19.55-3.64,38.64-9.8,58.63-11.07,9.17-.58,13.29,4.82,13.07,12.8-.43,16.28,2.09,31.2,11.11,45.44,3.26,5.17,1.81,13.77,1.35,20.73-1.08,16.37,4.11,31,11.24,45.23,5,9.91,8.28,20.13,7,31.48-1,9.13.14,17.83,6.11,25.39s6.63,16.51,6,25.67c-.53,7.28,2.06,14.45,9.17,14.69,5.91.2,8.38-6.45,9.29-13.22,3.55-26.43,13.42-51.28,20.52-76.82.53-1.92,2.37-3.78,2.22-5.54-2.14-25.37,12-46.32,17.9-69.43,3.85-15.1,1.72-32.28,7.41-47.17,7.6-19.89,2.48-41.76,11.52-61.17,1.42-3.05.8-6.78,5.15-8.13,15.19-4.7,30.14-10.25,45.51-14.22C1893.46,760.21,1898,766.2,1893.4,775.16Z"/><path class="cls-1" d="M3797.77,670.85c13.64,1.75,24.72,11.21,40.11,8.88,17.15-2.61,35.11.54,52.71.26,50.86-.79,101.49,3.09,152.11,7.06,11.4.9,15.29-3.33,15-14.49-.56-25.65-.07-51.32-.43-77-.2-14.62-4.93-16.26-18.68-15-18.45,1.75-35.58,9-53.73,10.7-14,1.33-28.2-.52-42.25.17-12.93.63-17-5.73-16.88-17.26.16-18.11,0-36.22,0-54.33h.16c0-19.12.11-38.24,0-57.36-.09-10.95,4.72-15.87,15.83-14.07a187.09,187.09,0,0,1,38.93,10.9c16.37,6.47,23.75,1.4,23.83-16,.11-24.14-.3-48.3.28-72.44.33-14-5.44-19-19.15-17.59-15.51,1.62-30.41,6.62-46.16,7-9.88.25-13.72-3.12-13.55-12.92.38-21.62.12-43.26.29-64.89.14-17.89,2.48-18.55,19.84-20.58,29.73-3.48,54.26,12.08,81,19.62,14.21,4,18.76,1.7,18.85-13,.16-24.65-.21-49.3.1-74,.14-10.42-4-15-14.51-17-15.54-3-31.09-1.87-46.61-2.81-59.72-3.62-119.47-5.35-179.27-2.12-12.66.68-17.57,7.77-10.74,17.76,9.08,13.29,8.28,27.43,8.3,41.76q.2,189.4.12,378.83c0,15.11.39,30-9,43.5C3790.53,659.89,3789.74,669.81,3797.77,670.85Zm58-480.18c38.25.66,76.59-.91,114.76,1,16.32.81,32.72,4.83,49.32,5.45,7.09.26,7.58,5.14,7.55,10.54-.05,11.57-.21,23.15,0,34.71s-6.89,15.4-15.55,11.58c-28.59-12.6-58.51-6.69-87.89-8.32-8.66-.48-13.31,2.81-14.53,11.31-.85,5.93-2.92,11.88-2.69,17.75,1.2,30.44-3.85,60.82-.41,91.32,1.06,9.39,2.45,12.61,13.72,14,17.89,2.23,34.92-1.32,52.3-1.95,10-.36,13.8,3.37,12.92,13.09-.45,5-.09,10-.1,15.08-.06,32.24,0,32-32.06,25.82-10.49-2-20.58-7.26-32.13-2.29-8.5,3.66-12.14,7.79-11.89,17.59.73,29.16-.43,58.37.46,87.53.55,18.19-3.38,35.92-3.22,54,.12,13.39,5.82,19.71,19.08,18.83,22.67-1.5,45.06,3.32,67.64,2.88,11-.22,21.93-1.66,32.85-3s14.28,3.54,13.57,13.85c-.68,10-.39,20.13-.12,30.18.32,12.26-5.53,16.94-17.55,16.9-18.1-.07-36.13-2.17-54-3.87-36-3.42-71.92-1.66-107.85-2.72-17-.5-20.43-3.62-20.41-20.9q.13-107.93,0-215.85h.06c0-73,.36-145.92-.33-218.87C3839.21,193.14,3843.78,190.47,3855.73,190.67Z"/><path class="cls-1" d="M3547.08,655.52c61.49,41.61,129,46.74,198.39,22.11,11.91-4.22,27-9.16,27.68-26.32,1.11-28.6.48-57.26,4-85.76,1.09-8.68-3.55-14.37-12.4-12.34-18,4.12-37.22,3.51-52.58,17.56-8.65,7.9-20.83,11.74-32.19,16-11.81,4.46-22.13,3.37-32.92-3.24-20.49-12.55-29.2-33.52-35.7-54.07-16.12-51-9.83-103.37-3.21-155.17a176.24,176.24,0,0,1,27.13-74.42c14.62-22.34,41.51-45.5,69.58-21.19,13.89,12,27.6,23.06,45.78,27.84,5.83,1.54,10.93,5.11,17,1,5.72-3.89,4.23-9.14,4-14.8-1.46-29.05-3-58.12-3.25-87.19-.14-13.56-5.2-20.6-18-25.7-17-6.79-34.3-6.51-51.8-6.86-4.54,0-9.06,0-13.59,0-77.47-.31-133.6,34.55-170.8,102C3495,309.87,3484.59,347,3478.1,386c-10.91,65.53-9.89,129.88,13.1,192.89C3502.46,609.71,3520.36,637.44,3547.08,655.52Zm-32.39-272.73c4.89-32.32,14.84-64,32.58-93.19,11.86-19.54,23.32-39.85,37.84-56.81,22.53-26.34,53.87-39.52,89-41.56,8.53-.49,17.12-.07,25.68-.07v.06c9.56,0,19.15-.42,28.69.09,16.9.88,26.43,11.08,26.61,28q.24,21.88,0,43.77c-.05,4.59-1.24,9.41-5.65,11.61-5.28,2.64-6.48-3.08-9.14-5.62-23.49-22.44-67.05-32.23-91.31-14.92-11.49,8.2-23.8,20-31.81,33.41-13,21.83-19.07,46-26.1,70.38-11.53,40-11.33,80.1-10.23,120.42.59,21.57,1,44.48,11.78,64,11.3,20.39,22.19,43.51,41.75,55.64a71.7,71.7,0,0,0,66.12,5.28c13.34-5.61,27.32-9.36,39.76-17.52,8.21-5.39,15.51-3.51,15.17,9.12-.42,15.59.18,31.21-.41,46.78-.57,15.13-12.93,23.77-27.35,27.19-19.62,4.65-39.36,4.57-59,6.8-43,4.87-95.39-16.11-118.71-56.35-2.64-4.56-7.24-5.68-9.61-10.61-16.42-34.24-30.36-69.91-32-107.56A616.66,616.66,0,0,1,3514.69,382.79Z"/><path class="cls-1" d="M1064.26,977.82c-71.27-3.57-121,37-155.2,96.58-32.8,57.21-44.76,119.83-42.77,185.37.24,20.56.18,41.07,3.53,61.51,10.15,62,30.43,116.93,84.84,156.3,54.71,39.59,109.56,38.11,163.65,4.3,48.34-30.2,74.77-77,91.86-128.65,28.41-85.85,32-173.19,4.74-260.4C1189.54,1011.79,1140.53,981.63,1064.26,977.82Zm152.6,235.11h.13c0,12.07-.39,24.17.08,36.22,1.06,27-.36,52.95-13.32,78.19-6.37,12.4-8,28.53-12.79,41.65-5.54,15.32-8.77,36.2-29.63,42.79-6,1.89-9.22,7.9-12.08,12.91-18,31.47-46.55,49.87-79.86,59-28.33,7.75-58.94,6.52-84.33-9.54-20.56-13-38.18-30.09-47.54-55.44-6.82-18.46-11.19-37.92-20.41-55.74-7.9-15.24-7.57-33.09-8.22-49.94-1.08-28.14-2.46-56.55.2-84.47a378.73,378.73,0,0,1,20-91.1c8.91-25.08,25.13-45.07,37.39-67.54,17.06-31.25,45.45-44.44,73.72-56.09,24.33-10,52.81-11.44,79.58-4,9,2.47,18.39,7.11,24.94,13.49,12.92,12.57,29.21,19.51,39,38.57,8.84,17.14,9.81,39.49,27.45,52.89,5.6,4.26,5.79,14.44,5.7,22.74C1216.69,1162.61,1216.86,1187.77,1216.86,1212.93Z"/><path class="cls-1" d="M3469,1599.36c3.07,1,6,.85,7.82-2.36s.09-5.83-1.69-8.26c-5-6.84-12-9-20-7.45-15,3-23.23,13-26.63,27.31-6.1,25.58-10.29,51.55-14.19,81.15-9.5-24.7-10-47.45-14.89-69.24-1.12-4.93,1.77-13.15-6-13.26-8.71-.13-6.3,8.64-7.37,14-4.16,20.92-8.09,41.88-12.11,62.83l-4.67-.48q-4.59-32-9.2-64c-.71-4.92-.25-11-5.51-13.28-11.23-4.88-22.06-1-31.48,4.86-9.19,5.7-16.06,13.93-14,26.24.94,5.67,3.87,9.21,10.07,9,7-.27,8-4.73,7.25-10.44-.83-6.44,1.47-11.45,8.26-11.91,8.2-.57,7.36,6.36,8.17,11.69,5.24,34.24,12.85,68.1,15.9,102.68.55,6.23,3.59,10.25,10.35,10.8,7.39.61,11.38-2.87,12.56-9.93,1.07-6.44,1.88-12.93,3.13-19.34,1.5-7.65,1.83-15.9,9.68-22.34,6.06,11.72,5.16,24.12,8.9,35.28,2.35,7,1.57,16.54,12,16.16,11-.41,10.41-10.24,11.71-18.08q9.47-57.18,19.09-114.35C3448.23,1603.89,3452.88,1593.93,3469,1599.36Z"/><path class="cls-1" d="M3012.75,1737.6c-12,1.56-23.87,2.79-35.56-2.26-32-13.82-42.6-40.34-43.64-66.29-.23-24.75,3.11-37.34,12.25-50.51,7.63-11,18.07-16.48,31.2-11.61,10.32,3.84,12.22,12.84,8.89,22.5s-10.77,11-19.57,7.94c-3.06-1.08-5.29-8-9.26-1.55-2.66,4.35-1.26,8.36,2.09,12.31,10.36,12.23,33,8.53,40.44-6.83,7.92-16.33,4.11-38.45-8-46.6-16-10.76-42.66-6.52-56.54,8-24.45,25.61-25.11,57.16-18.14,87.78,9.11,40,42.3,69.58,83.85,64.36,6.27-.78,11.79-2.56,16.14-7.14,2.29-2.41,6.37-4.62,4.11-8.67C3019.32,1736,3015.69,1737.22,3012.75,1737.6Z"/><path class="cls-1" d="M3085.22,1628.26c-5.82,1.91-8,5.92-7,11.55,2.45,14,.35,28,.42,42,0,11,0,22,0,33,0,3.85-1.58,7.86,3.7,10.1,12.84,5.45,35.45-1.27,42.7-13.94,12-21,10.65-43.66,3.27-65.31C3122.88,1629.77,3102,1622.76,3085.22,1628.26Zm23.23,78.16c-1.35,2.83-2.79,5.49-6.42,5.18-4.59-.39-5.37-3.83-5.39-7.55,0-9,0-18,0-27,0-8-.08-16,0-24,0-4-.19-8.47,5.1-9.47,5.61-1.07,8.92,3,10,7.19C3116.42,1669.57,3117,1688.31,3108.45,1706.42Z"/><path class="cls-1" d="M3491.61,1628.53c-13.08-.26-25,10.38-29.77,25.51-5.38,16.94-4.08,33.86,2.16,50,8.36,21.67,32.59,27,48.85,11.61,10.82-10.25,12.38-23.49,12.68-37.24.24-9.06-.29-18-4-26.51C3515.85,1638.56,3507.14,1628.85,3491.61,1628.53Zm12.16,70c-1.63,5.31-5.67,10-11.72,10.19-6.42.18-9.05-5.08-11.22-10.4-2.89-7.1-3.41-14.49-3.42-22.66-.82-8,1.13-16.25,4.32-24.14,2-4.87,5.89-8.42,11.51-8,4.75.4,8.12,3.51,9.89,8.07C3509.16,1667.18,3508.56,1682.93,3503.77,1698.52Z"/><path class="cls-1" d="M3592.25,1632.58c-9.64-7.8-22.08-4-33.34-3.56-4.63.21-3.49,5-3.48,8.51.09,25.54,0,51.08.05,76.62,0,5-.67,10.53,6.9,10.77s11.15-3.13,10.9-10.79c-.2-5.93,0-11.86,0-17.8l4.44-.66q3.87,11.73,7.75,23.45c1.77,5.39,5.83,6.68,10.72,5.47,5.07-1.26,6.2-5.62,4.23-9.48-9.24-18-9-35,1-53.19C3607.38,1651.05,3601.12,1639.76,3592.25,1632.58ZM3578,1668.79c-7-.23-6.67-6.46-5.76-11.26.79-4.22-1.91-11.46,5.81-11.41s7.25,6.62,7.37,12.15S3584.27,1669,3578,1668.79Z"/><path class="cls-1" d="M3674.62,1680.81c-5.33-13.47-7.34-25.74,3.93-37.65,2.9-3.06,8.75-9.89,1.35-13.66-5.43-2.77-13.26-3-15.51,6.28a21.38,21.38,0,0,1-10.86,14.58c-.93-4.28-2.14-8-2.46-11.8-.45-5.34-.76-10.09-8-10-7.76.06-9,5-9,11.07q.11,37.73.25,75.44c0,5.65,1.3,10,8.26,9.87,6.65-.16,8.3-4,8.27-9.94-.06-9.94,0-19.93,3.4-31,7.84,4,8.38,10.22,10,15.9,1.83,6.24,4,12.39,6.25,18.49,2.07,5.56,6.65,8.06,12,6.25,7.18-2.41,3.91-7.59,2.27-12.39C3681.24,1701.82,3678.67,1691,3674.62,1680.81Z"/><path class="cls-1" d="M3733.3,1659.38c-3.35-3.31-6.67-6.75-5.07-11.69,1.76-5.46,6.5-5.53,11.23-4.41,4.37,1,8.25,1,9.22-4.44.88-4.93-.67-8.87-5.72-10.92-10.49-4.25-20.14-1.08-28.44,4.84-7.66,5.45-8.71,14-6.21,23,3.19,11.65,10.91,20,18.83,28.51,4.83,5.21,11.42,10.59,8.25,19.55-3.32,9.36-11,6.74-17.78,6.39-3.84-.19-7.07.74-8,5-.82,3.9.66,7.15,4.16,8.81a67.24,67.24,0,0,0,9,3.14c23.22.16,34.32-14.34,30.33-35C3750.46,1678.63,3742.69,1668.63,3733.3,1659.38Z"/><path class="cls-1" d="M3194.35,1710.47c-5.36.55-13.21,1.67-13.41-5.5-.25-9.25-6.13-21,8.91-26.65,8-3,7.7-11.87-.7-14.06-9.44-2.45-9-7.86-8.36-14.41.85-8.35,7.33-6.58,12.66-6.33s8.87-1.7,9.15-7.39c.32-6.22-4.13-7.36-8.94-7.53-6.52-.23-13.07.23-19.55-.3-8.27-.69-11.84,1.83-11.28,10.86.76,12.48.19,25,.2,37.57,0,6.52,0,13,0,19.55.14,30.46.15,30.46,31.28,29,4.9-.22,10.7.9,11-6.72C3205.58,1710.67,3200.77,1709.82,3194.35,1710.47Z"/><path class="cls-1" d="M3259.68,1629.43l-9.19-.78c-11.68-3.36-17.13.45-15.49,13.07.7,5.36.68,10.82,1,16.25q0,26.28,0,52.57l-.64,1.08.66,1.07c0,2.06,0,4.13,0,6.2-1.26,4.84.44,6.88,5.46,5.77l6-.08c7.6.51,5.59-5.26,6-9.33.63-5.57-1.26-11.6,3.52-19.16,2.41,8.33,4,14.36,5.9,20.3,2.33,7.33,7.42,11.27,14.9,8.38,8.63-3.33,4.56-9.08,1.86-14.74-6.31-13.25-11-25.25,0-40.25C3291.64,1653.42,3278.91,1630.57,3259.68,1629.43Zm-6,28.08c.18-5.55-.38-11.15,7.65-11.09l4.83,10.06c-1.78,3.3-3.73,6.57-3,10.6a1,1,0,0,0-.92,1.34,6.26,6.26,0,0,1-.86,2.51,6.36,6.36,0,0,0,.86-2.51C3255.31,1668,3253.5,1663.77,3253.7,1657.51Zm5.5,16.48-.16.23Zm-.55.76,0,.06Zm-.92,1.54a5.29,5.29,0,0,0-.52,1.62A5.29,5.29,0,0,1,3257.73,1676.29Z"/><path class="cls-1" d="M3038.61,1627.7c-7.28,0-9.31,3.27-9.23,10.22.31,26.12.21,52.24,0,78.36-.05,6.2,1.86,9.37,8.51,9.4s10.29-2.23,10.13-9.6c-.3-13-.09-26.12-.09-39.18h.19c0-13.06-.29-26.13.11-39.18C3048.43,1630.56,3045.62,1627.73,3038.61,1627.7Z"/><path class="cls-1" d="M2407.55,627.65c-19-4.71-38.6-2.39-57.22,4.88-10.53,4.11-15.67,10.82-15.2,22.89.82,21.06.23,42.18.23,63.28h.07c0,22.6.23,45.21-.13,67.81-.13,8.34,2.53,13.28,11.22,10.65,40.18-12.21,80.77-38.51,79.42-91.86-.43-17.06-.9-34.21.3-51.21C2427.29,639.3,2419.05,630.5,2407.55,627.65Zm-19.64,67.19c-8.61,7.34-19.91,5.35-28.6,2s-5.06-14-5.5-21.17c.65-11.2-2.89-23.85,13.56-26.23,7.6-1.1,15.9-6.24,21.5,3.38C2395.22,663.78,2395,688.8,2387.91,694.84Z"/><path class="cls-1" d="M1102.49,1084.18c-2.14-3.23-3.15-7.39-6.63-9.6-19.85-12.63-46-9.37-64.8,5.29-9.72,7.56-9.86,18.74-15.48,27.07-17.44,25.83-15.56,56.18-21.15,84.27-6.52,32.78,3.12,67.37-6.54,100.9-3.69,12.83,4.75,25.93,9.23,38.14,6.86,18.7,10.26,38.48,12.71,57.45,1.49,11.46,4.62,17.56,12.12,24,10.94,9.35,24.71,9.24,37.74,11.42,4.9.82,9.31-2.15,13.89-3.58,10.54-3.29,8.39-17.19,13.86-18.62,18.2-4.75,16.72-22.83,25-33.68,18.88-24.85,15.08-57.21,19.76-86.59,2-12.74.34-26.07.34-39.13C1132.42,1187.18,1134.64,1132.47,1102.49,1084.18Zm-23.76,265.71a139.44,139.44,0,0,1-24.07,41.19c-9.51,11.39-22.16,9.07-29.18-4-9.8-18.22-16.94-37.78-19.37-58.06-4.17-34.79-10-69.82-4.72-105,4.94-33,6.18-66.7,19.92-98.15,6.6-15.09,15-28.18,27.7-38.33,13.89-11.08,23-7.69,29.37,9.1a292.33,292.33,0,0,1,18.08,120.21C1098.06,1264.92,1094.13,1308.14,1078.73,1349.89Z"/></svg>