<svg id="Layer_1" data-name="Layer 1" xmlns="http://www.w3.org/2000/svg" viewBox="0 0 6296.86 1983.63"><defs><style>.cls-1{fill:#a62b2a;}</style></defs><path class="cls-1" d="M2004.34,1806.28c50.84-72.78,102.23-145.18,152.38-218.42,66.62-97.29,132.26-195.26,198.41-292.87,4.15-6.13,7.92-14.09,13.92-17.15,41.73-21.26,84-41.45,132.19-65l53.08,512.94,7.14.86q17.51-68.93,35-137.86c39.14-153.48,74.47-308.27,142.71-452.43a610.8,610.8,0,0,1,59.25-98.93c25.84-35.29,53.72-40.92,95.87-27,52.55,17.31,87.24,58.4,80.72,113.55-6.31,53.38-19,108-40.25,157.2-45.77,106.15-99.05,209.06-148.66,313.58-10.09,21.25-18,43.58-26.1,65.71-20.08,54.84-28.13,65.84-83.84,106.79,44.81-119.87,87.92-232.58,128.92-346,17.38-48.11,33.18-97.21,43.95-147.11,4.6-21.32.19-49.11-10.67-67.84-8.92-15.36-32.94-23-51.73-30.25-2.24-.86-17.93,21.41-20.19,34.22-11.37,64.26-21.59,128.78-29.89,193.5-13.9,108.55-58.93,207.61-90.64,310.8-24.41,79.46-65.45,141.2-138.61,182.94-35.95,20.51-67.33,49-103.08,75.6-39.81-117-78.58-230.38-66.31-354.9,5.62-56.94,1-114.88,1-180.45-18,26.51-33.21,46.64-46,68.23-81.74,138.38-162.57,277.29-244.94,415.28-7,11.7-21.79,22.24-35,26-36.82,10.45-74.73,17-117.21,26.24,0-19.89-.88-36.52.14-53,7.39-119.82,18.53-239.53,21.57-359.44,1.87-73.59-7-147.65-14.56-221.13-1.54-15.06-15.65-33.41-29.2-41.83-47.88-29.77-98-55.89-149.31-84.51,35.63-63.4,71.78-128.87,109.65-193.31,3.86-6.57,19.37-11.71,27.39-9.6,111.47,29.33,183.76,105.59,236.42,203.27,5.61,10.39,1.9,27.11-.55,40.33q-50.8,274.63-102.54,549.09Z"/><path class="cls-1" d="M4068.83,264.84c-27.37,70.35-53.25,141.32-82.45,210.9-47.19,112.46-94.19,225.12-146,335.49-27.89,59.44-69.07,111-129.34,143.41-46.21,24.89-94.69,33.29-145.85,20.53-25.88-6.46-51.7-13.81-76.73-23-77.26-28.33-134.26-71.36-134.59-165.42-.15-44.33-13.67-88.7-22-132.89-3.7-19.57-.45-34,16.34-47.58,34.86-28.16,67.73-58.77,103.26-90,14.13,52.28,26.05,102.07,41.16,150.87,19.83,64.07,49.71,123,98,171.08,61,60.71,124.44,61,173.73-9.69,35-50.12,62.53-107.72,82.08-165.79,55.25-164.16,104.67-330.28,156.39-495.64.32-1,1-2.07.92-3.06-4.68-62.79,34.54-92,85-114.69C4119,35.82,4147,17.71,4179,0c27.72,43.41,59.63,84.43,81,130.36,11.75,25.26,6.49,58.74,7.6,88.56,3.2,85.67,5.73,171.36,14.29,258.76,2.71-7.74,5.68-15.39,8.09-23.22,32.39-105.34,64.26-210.84,97.56-315.89,4.19-13.22,13.29-27.49,24.31-35.51,45-32.78,91.66-63.32,138.76-95.41,22.82,16.6,34.07,35.58,24.83,65.27-6,19.19-8.45,40.09-8.8,60.28-1.46,82.38-49.52,142.25-96.7,208.47l-41.22-148.23-6.11-.82c-2.92,9.07-7.07,17.94-8.58,27.24-24.65,152.06-48.75,304.22-73.68,456.24-2.83,17.27-5.11,38.09-15.76,50-52.68,59.1-108.08,115.76-162.53,173.29q-5.91-3.37-11.84-6.73-37.29-313.11-74.6-626.22Z"/><path class="cls-1" d="M840.77,480.74C822.45,316.62,858.86,168.58,963.82,38.89,986,11.51,1010.17,3.08,1045.14,11c45.92,10.38,88.41,26,124,57,49.64,43.35,77.48,96.65,69.69,164.37-4.12,35.77-9.72,71.36-15.53,113.42-24.7-27.2-44.46-50.55-65.89-72.25C1105.63,221.14,1048.79,177,974.3,160.48c-19.67-4.36-27.88.9-31.75,19.26-14.56,69.09-12.92,136.4,22.55,199.6,28.66,51.08,72.93,79.82,138.64,87.25-19.63,42.55-35.7,82.89-57.27,120-5.11,8.8-30.86,13.12-43.39,8.77-47.88-16.61-94.24-37.6-145.6-58.78-30.55,49.26-56.74,108.12-42.61,176.18,10,48.38,45.58,77.22,90.58,92,132.37,43.52,257.49,41.29,364.36-63.62,7.62-7.48,16.37-13.82,24.77-20.46,1.27-1,3.53-.76,10.58-2.06-23,71.47-44.67,140.67-68.09,209.26-3.38,9.89-13.74,19.85-23.41,24.76-153.52,77.92-308.16,79.29-456.47-8.57-99.52-59-120.84-190.51-57.38-305.55,17.4-31.54,40.05-60.92,64.18-87.79C787.38,524.74,815.76,503.2,840.77,480.74Z"/><path class="cls-1" d="M1736.93,787.56c3.38-90.64,7.76-170.51,8.85-250.42.75-55.09-6.3-109.24-51.64-159.13-7,30.76-17.11,56.47-18,82.5-2.45,68.52-1.75,137.2-.56,205.79.48,27.48-6,43.13-36.84,47.73-32.39,4.82-63.77,16.44-98.09,25.77-2.48-118.47,8.1-237.8-39.13-352.85-43.21,51.19-25.68,107.59-26.77,160.93-1.12,54.35-.25,108.74-.25,164.89l-155.78,22.47c2.64-56.24,6.33-110.44,7.46-164.7,1.7-81.44,2-162.92,1.94-244.39,0-17.62,4.21-26,23.11-30.76,38.15-9.67,75.24-23.49,117.29-37.07v76.12l7,2c15.5-21.1,29.72-43.38,47.19-62.7,6.48-7.15,21.77-12.17,31.07-9.93,44.59,10.71,85,29.44,108.47,77.59,17.85-24.13,32.32-46.26,49.64-65.89,7.3-8.28,20.64-16,31.15-15.92,79.77.82,137.25,54.36,138.63,134.29,1.48,85.59-3,171.29-5.24,256.93-.16,5.91-2.18,13.6-6.23,17.29C1827.85,706.69,1785,744.65,1736.93,787.56Z"/><path class="cls-1" d="M2655,301.89l157.92-32.28c-3.36,76-6.78,153.67-10.61,240.54,45.56-76.58,64.92-152.07,75-233.25l147.2,14.81c-13.86,155.77-26,308.47-41.56,460.82-9.12,89.17-64,157.33-115.39,226-4.22,5.65-17.91,8.64-25.52,6.61-44.24-11.82-88.39-24.27-131.76-38.92-46.65-15.75-67.19-53.73-75.59-99.21a50.88,50.88,0,0,1,4.22-30.16c12.52-24.79,27.27-48.46,42.9-75.62,45.71,52,108.91,55.36,167.73,68.77V536.84l-8.91-2.92L2729.53,720.24c-51.21-3.69-60.79-12.34-63.06-67.2-4.4-106-7.74-212-11.4-318C2654.67,323.47,2655,311.85,2655,301.89Z"/><path class="cls-1" d="M4586.05,1809.37c-2.41-49.74-5.43-94.47-6.51-139.25-1.09-45-.24-90-6.77-138.49L4461.3,1718.81c-54.32-6.84-60.38-12.11-62.86-66.36-5.37-117.57-9.86-235.18-14.66-351.76l160.7-33c-3.24,76.22-6.56,154.2-9.87,232.18,43.88-68.54,66-143.38,74-224.84l147.55,14.45c-8.38,95.79-16.51,189.28-24.76,282.77-5.08,57.61-9.8,115.27-15.66,172.82-9.25,90.85-63.79,159.59-114.6,229.84-3.93,5.44-14.89,9.53-21.77,8.54-61.87-8.89-122-23.44-173.39-61.91-35.17-26.33-48.26-84.26-27.19-122.12,10.88-19.56,22.64-38.63,35.28-60.06C4459.64,1791.43,4522.29,1794.29,4586.05,1809.37Z"/><path class="cls-1" d="M2195.9,722.75l-86.72-49.53c-18.27,108.24-35.78,212-54.07,320.37l-116.77-12.52c11.19-226.78,34.16-452.36-12.16-679.47l151.26-36.14c3.69,27.69,7.26,54.46,10.82,81.22l9.91,6.55,97.56-97.35c66.77,15.58,109.44,63,118.4,139C2328.74,518.82,2284.24,643.57,2195.9,722.75Zm-59.15-350.9c-19,31.66-40.14,54.44-46.48,80.78-6.74,28.06-.37,59.56,2.19,89.39.77,9,5.64,21.7,12.57,25.44,18.14,9.83,38.46,15.65,63.57,25.23C2173.05,515.75,2174.91,446.72,2136.75,371.85Z"/><path class="cls-1" d="M4970.56,605.13c77.63,29,151.06,57.28,225.85,9.27q1.1-5.49,2.2-11c-19.29-4.94-38.32-12.12-57.91-14.34-36.07-4.08-73.13-1.72-108.58-8.42-58.81-11.11-86-43.46-94.34-102.46-12.6-88.94,33.44-175.42,114.91-215.13a38.49,38.49,0,0,1,18.39-3.82c69.39,4.37,138.74,9.22,209.42,14-8.7,42.58-17.21,84.22-25.43,124.47L5065.37,362c13.61,43.69,40.33,61.81,73,68.67,30.13,6.33,61.64,7.38,92.61,8.1,72.42,1.69,101.46,33.62,93.2,105.52-13.8,120.09-72,174.88-206,184.56-50.08,3.62-97.65-6-143.21-28.39-22.68-11.15-29.61-23.94-19.54-47.34C4961.69,638.65,4965.09,622.92,4970.56,605.13Z"/><path class="cls-1" d="M3463.63,1764.76c18.59-142.36,46.33-272.94-8.18-405.48-23.66,23.22-42.62,43.14-41.75,78.7,2.17,88.73.72,177.55.72,267.72L3271,1732.14c0-41.05.21-81.48,0-121.91-.53-89-.45-178-2.56-266.9-.53-22.29,7.16-32.37,27.11-39.82,38.8-14.49,76.66-31.47,118.93-49.09V1325c25.26-17.74,46.12-31.92,66.47-46.78,36.72-26.81,90.81-21.91,117.67,15.83,14.2,19.94,26.8,46.43,26.86,70,.17,69.43-11.8,139.14-8.48,208.23,2.92,60.76-22.33,97.31-69.53,127.65C3520,1717.52,3495.55,1739.78,3463.63,1764.76Z"/><path class="cls-1" d="M3829.85,1546.83c39.92,69.83,83.32,73.18,153.19,15.48,1.11,109.74-109.45,192.32-212.57,158.27-43.52-14.37-68.58-49.63-71.65-91-6.5-87.37-6.05-175.34-5.69-263.06,0-11.93,14.81-24.85,24.69-35.53,74.53-80.56,74.68-80.42,183.76-64.85,82.24,11.74,115.59,56.57,102.66,138.06-1,6.35-2.21,12.66-3.52,19-5.53,26.4-2.55,61.37-18.54,77.34-30.76,30.75-73.73,46.73-119.88,46.34C3852.7,1546.76,3843.09,1546.83,3829.85,1546.83Zm-6.49-177.27c-3.52,41.67-6.87,81.35-10.56,125l74.63-4.41C3898.88,1429.26,3876,1371.66,3823.36,1369.56Z"/><path class="cls-1" d="M4719.17,551.66c40.52,66.84,77.93,69.51,153.14,12.45-4.62,112.63-103.64,188.07-207.92,159.66-47-12.8-72.82-48.39-76.4-89.87-7.63-88.27-6.46-177.37-6.44-266.14,0-11,14-22.86,23.11-32.88,74.34-81.75,74.45-81.65,182.91-66.93,86.81,11.78,118.21,54.69,104.08,142.06-1.37,8.45-2.23,17-3,25.52-6.35,68-26.23,91.4-94.52,106.67C4770.33,547.51,4745.59,548.46,4719.17,551.66ZM4776,493.29c11.49-64.05-11.84-121-64-121.31-3.42,39.87-6.88,80.11-10.42,121.31Z"/><path class="cls-1" d="M4063.51,1262l133,15.19c2,32.4,3.81,62.66,5.66,92.93l6.34,1c5.91-22,11.26-44.11,17.83-65.88,10.71-35.46,32.86-53.26,66.66-54.82,54.71-2.52,65.26,9.09,55,62.55-8.85,46.06-18.73,91.91-29.28,143.38l-67.17-48.24c-38.88,43.38-48.63,91.84-37.75,144.53,1.68,8.13,14.93,15.66,24.41,19.93,11.42,5.15,24.54,6.51,43.31,11.06-13.88,43.63-27.37,86.82-41.73,129.72-1.15,3.43-8.17,6.57-12.7,6.94-88.86,7.26-153.93-19.07-162.16-123.45-5.45-69.19-1.31-139.14-1.41-208.75C4063.46,1347.52,4063.51,1307,4063.51,1262Z"/><path class="cls-1" d="M5409.15,392.49h-39.6c28.73-55.86,59.14-109.63,42.51-178l132.44-19.17v74.74H5633c-4.21,31.11-6.75,58.51-12.36,85.26-1.38,6.61-12.08,14.35-19.68,15.95-18.6,3.91-37.89,4.53-56.35,6.42-27.82,106.7-7.32,177.15,67.59,226.49-11.84,23-23.77,46.44-36,69.76-11.84,22.57-24,45-35.69,66.88-92.26-25.61-141.2-88.56-140-181.26.54-40.65,5.86-81.22,8.43-121.87C5409.93,423.08,5409.15,408.38,5409.15,392.49Z"/><path class="cls-1" d="M2592.91,604.65c-23.48,45-47.1,90.19-70.45,134.9-78.75-11.29-140.85-83.28-141.86-167.17-.51-42.69,5.49-85.44,7.91-128.2.94-16.78.15-33.66.15-51.29h-39.84c31.79-56.82,58.39-112.64,44.71-179.23L2524.37,195v74.85h88.7c-1,10-1.4,15.15-2,20.32-9,78.69-9,78.69-85.11,87.84C2495.21,470.09,2519.54,554.73,2592.91,604.65Z"/><path class="cls-1" d="M3044.48,1735.36V1411.22h-62c-5.46-56.12,2.55-66.1,48.79-83.88,50.75-19.51,100-43,156.72-67.67v448.05Z"/><path class="cls-1" d="M3025.92,1112.4c.68-42.74,22-80.15,54.23-90.68,28.68-9.36,55-3,76.17,19.45,26.68,28.32,30.79,63.09,24.44,99-8.37,47.38-45.73,76.73-87.51,71.6C3053.92,1207,3025.09,1164.4,3025.92,1112.4Z"/></svg>