<svg id="Layer_1" data-name="Layer 1" xmlns="http://www.w3.org/2000/svg" viewBox="0 0 5116.12 1974.63"><defs><style>.cls-1{fill:#fff;}</style></defs><path class="cls-1" d="M201.42,436.48c14.15,67.56,26.8,127.93,40,191l453.71-82.15C716.56,675,737.51,799.1,756.76,923.46c1.63,10.54-6,24.34-12.93,34.09Q676,1053.33,606.08,1147.67c-7.08,9.56-17.83,20.5-28.53,22.68-139,28.31-278.36,55.15-421.64,83.14-16.52-72.36-32.74-143.44-48.47-212.37,60.41-5.84,119.33-8.44,177.14-17.83,89.63-14.54,178.5-33.72,272.4-51.84-11.61-64.6-22.77-126.7-35-194.79L78,865.58C69.11,828.42,60,791.82,51.58,755.05,37.4,692.75,28.73,628.64,8.44,568.43c-21.9-65,2.23-110.06,33.32-166,70.73-127.14,170.15-191.15,314.89-200.7,90.25-6,179.33-29.69,274.56-46.43l37.55,222.57C509.17,363.66,359.22,408.12,201.42,436.48Z"/><path class="cls-1" d="M759.68,134.61l265.83-37.46c-14.29,267.38,55.4,522.75,74.08,789.87l257.82-29.69c-42.65-262.23-34.64-527.73-110.62-785.8L1513.89,45C1489,279.56,1533.58,506.59,1551,734.84c5.29,69.47,2.9,127.45-53.55,176.2-27.43,23.68-50.43,54-70.13,84.74-31.32,48.87-73.32,72.18-130.82,69.61-11.1-.49-23-.47-33.37,2.88-98.46,31.83-171.91-7.47-251.37-66.06C931.29,942.91,887,881,877.86,778.78,863.47,618.33,833.46,459.13,806.33,300,797.07,245.67,776.57,193.23,759.68,134.61Z"/><path class="cls-1" d="M4523,1177.65l-228-40.42c78.6-322.35,135-644.36,160.66-980.28l660.49,126.8c-16.21,79.36-30.78,150.69-43.33,212.1L4655.06,388.61c-13.49,72.26-25,134.08-38.35,205.33l250.8,24.91c-16.06,77.44-32.77,158-48.64,234.5l-241.93-75.19C4558.3,916.23,4541,1044.67,4523,1177.65Z"/><path class="cls-1" d="M3560.1,1042.28c57.13-327.18,87.91-652.62,94.46-989.23l667.2,81.63c-12,80-22.84,151.93-32.14,213.77L3867.36,271c-8.3,72.73-15.29,134.09-23.35,204.74h251.28c-11.61,87-22.46,168.23-33,247.14l-245.66-58c-9.5,139.29-18.23,267.3-27.38,401.43Z"/><path class="cls-1" d="M1899.46,214.05l-240.31,40.5c-5.59-67.49-11.56-139.56-18.1-218.58,63.63-4.85,124.87-10.92,186.26-13.93C1985.46,14.3,2143.72,9,2301.81.25c37.9-2.08,51.41,8.33,49.68,47-2.69,60.23-.71,120.66-.71,176.52l-241.13-18.55c20.44,269,2.43,532.48,50.63,794.72l-242.87,10.87C1947.66,744.43,1898.78,484.88,1899.46,214.05Z"/><path class="cls-1" d="M3067.1,790.17c-3.55,66.73-7.44,139.64-11.18,209.82H2476.25c42.19-170.65,26.56-336.67,25.8-501.68-.77-165.56,17.22-332.76-29.74-496.42h271.74c-50.33,263.88-21.42,526.84-39.33,788.28Z"/><path class="cls-1" d="M3239.19,22.63l255.62,18.21c-57.25,326.28-79.42,653.72-82.57,988l-232.65-14.67C3224.94,684.57,3248.43,356.91,3239.19,22.63Z"/><path class="cls-1" d="M4148.69,1974.63l-103.53-21.84c-3.13-49.85-4.53-94.39-9-138.62-6.15-60.27-7.16-60.16-82-65.48-8.65,57.89-17.43,116.63-27,180.89l-101.1-19c27.19-152.92,53.9-303.12,82-461,72.11,13.94,152.62,23.36,229.08,46.28,59,17.69,97.52,141.65,68.13,196.06-6.16,11.41-19.64,21.52-32,26.42-41.62,16.44-51.11,45.42-44.29,87.24C4137.51,1858.74,4141.64,1912.62,4148.69,1974.63Zm-41.57-296.46c6.92-33.26,12.6-60.53,18.92-91l-136.73-25.81c-5.36,35-9.54,62.3-13.88,90.62Z"/><path class="cls-1" d="M2353,1797.52V1329.88c68.4,0,145.95-3.14,223.07,1.33,38.59,2.24,104.39,94.55,104,134.24q-1.07,103-2.61,206c-.6,38.8-75.92,124.46-113.91,125.53C2495.12,1798.91,2426.66,1797.52,2353,1797.52Zm226.9-370.44H2461.17V1699.9h118.69Z"/><path class="cls-1" d="M3355.79,1546.69c-4.77,42.79-8.76,78.52-12.88,115.35l-112.2-20.78c-2.6,33.43-4.78,61.26-7.41,95l188.22,14.32c-3.12,29.14-6.44,60.09-10.35,96.57-50.66-4.56-97.87-8.66-145.06-13.12-47.47-4.48-94.92-9.32-139-13.66,12.44-155,24.65-307.08,37.49-467l300,29.36-11,100L3249,1454.44c-3.39,33.71-6,60.1-9.27,92.25Z"/><path class="cls-1" d="M1107.69,1558.82l-196.38,30.29c20.05,94.66,39,184.11,58.86,277.9l186-44.3c5.38,29.23,11.25,61.09,17.94,97.43-60.86,12.44-117.95,26.24-175.79,35.08-31.64,4.83-122.48-67-130-99q-25.8-109.66-49.5-219.83c-2.25-10.37-4-24.73,1.17-32.2,37.17-53.21,61.83-120.06,145.32-121.13,39.18-.51,78.2-13.64,123.27-22.19C1095.21,1495,1101.43,1526.8,1107.69,1558.82Z"/><path class="cls-1" d="M1817.7,1831.34l-96.82,10.44-50.47-465.66,104.12-10.6C1789,1521.27,1803,1673,1817.7,1831.34Z"/></svg>