<svg id="Layer_1" data-name="Layer 1" xmlns="http://www.w3.org/2000/svg" viewBox="0 0 2621.17 1938.87"><defs><style>.cls-1{fill:#fff;}</style></defs><path class="cls-1" d="M1535,543.92c0-123.56-.34-247.13.1-370.7.38-108,65.33-172.12,173.52-172.36q61.77-.13,123.53,0c102.59.24,172.64,60.79,173.8,162.29q4.35,378.71.13,757.49c-1,100.09-72.07,164.87-171.68,166.37-44.75.68-89.54,1-134.27-.12-96.91-2.46-164.24-70.17-164.91-166.9C1534.32,794.64,1535,669.28,1535,543.92Zm161.16-.46c0,96.66-.24,193.33.1,290,.19,54.62,31.56,92.88,74.62,92.42s75.37-38.16,75.57-93q1-290,0-580c-.21-56-31.07-90.73-76.46-90.69-46.73,0-73.54,32.67-73.74,91.22C1695.88,350.12,1696.12,446.79,1696.12,543.46Z"/><path class="cls-1" d="M158.12,624.53v459.18H1.52V1.78c112.56,0,225.12-5,337,1.78C412.16,8,466.82,81.7,468.69,164.44c2.23,98.53,2.75,197.2-.14,295.69-2.93,99.38-73,163.41-173.74,164.34C251.94,624.86,209.06,624.53,158.12,624.53ZM308.66,461.06c0-77.54,2.12-149-.8-220.21-1.75-42.79-23.54-74.71-71.22-78.41-43.08-3.35-73,22.75-75.72,59.84-5.86,79.12-1.79,159-1.79,238.78Z"/><path class="cls-1" d="M1155.24,1087.75c-79.63-158.88-154-307-227.78-455.35-4.51-9.08-5.4-20.73-5.41-31.18-.31-197.14-.23-394.27-.23-595.85h160.69v503.9c0,127.21,0,127.21,73,254.32,38.34-74.59,80.57-141.56,76.9-231-6.39-155.7-1.77-311.86-1.77-467.83V4h153.45c1.49,14.89,4.32,30.12,4.35,45.36q.46,266.21-.09,532.43c-.05,17.66.28,37.5-7.14,52.61C1308.9,781.83,1234.93,928.51,1155.24,1087.75Z"/><path class="cls-1" d="M1352.33,1252.56h104.06c1,20.58,2.64,39.49,2.67,58.39.22,148.72-.11,297.44.31,446.16.09,32.85-9.15,74.5,44.48,73.44,54.1-1.07,41.65-44,41.79-75.77.75-164.73.35-329.47.35-499.44h103.66c1.11,16.56,3,32.15,3,47.75q.33,255.33,0,510.66c-.16,86.45-37.65,125.37-123.82,122.64-39.38-1.25-78.47-17.71-117.63-17.5-42.64.22-85.08,16.11-127.85,17.51-86.85,2.84-124.44-35.7-124.62-121.84q-.55-255.33,0-510.67c0-15.68,1.8-31.37,3-50.25h103.75v59.58q0,228.45-.11,456.9c0,30.32.15,59.87,41.55,60.79,44.46,1,45.57-29.74,45.48-62.47-.39-150.51-.16-301-.16-451.53Z"/><path class="cls-1" d="M2619,5.39V159.78H2468.07v924.09H2308.33V164.1H2152.61V5.39Z"/><path class="cls-1" d="M614.23,3H766.86V1083H614.23Z"/><path class="cls-1" d="M277.3,1590.26c8.29,29.76,18.4,51,19.4,72.6,2.48,53.67,1.71,107.55.58,161.3-1.54,73.31-41.24,112.54-113.15,113-60.46.43-120.92.09-184.13.09V1252.43c70.24,0,138-4.07,205,1.32,51.41,4.13,86.27,40.21,90.45,91.44,5.38,65.9,3.23,132.6.75,198.82C295.55,1562,282,1579.43,277.3,1590.26Zm-86.75-51.16c0-48.86,3.83-93.55-1.94-137-2.21-16.66-26.31-30.42-40.43-45.5-14.69,14.38-40,27.38-42.05,43.38-5.8,45-2,91.21-2,139.08Zm-.06,290.69c0-50.46,3.91-95.23-2-138.66-2.22-16.26-25.53-37.28-42.59-41.09-10.59-2.38-38,22.3-39.63,36.87-5.21,46.76-1.93,94.48-1.93,142.88Z"/><path class="cls-1" d="M684.53,1934.73H579.77V1651H492v283.07H387.88V1256.92c72.14,0,144.66-3.68,216.57,1.32,46.49,3.23,73.68,41.47,77.35,84.21,5.81,67.6,3.82,136.09,1.27,204-.67,17.74-15.63,34.94-20.93,46,8.35,23.11,21,42.39,21.43,62C685.73,1745.61,684.53,1836.89,684.53,1934.73Zm-107-395.82c0-48.1,3.84-94.39-2.07-139.41-2.08-15.9-26.37-36.52-43.55-40-10.58-2.13-37.08,23-38.7,37.82-5.13,46.78-1.89,94.48-1.89,141.57Z"/><path class="cls-1" d="M2127,1934c0-165,.6-326-.48-486.92-.24-34.66,15.86-86.54-40.19-88.48-61.28-2.12-45.51,52.13-45.75,88.48-1,161-.45,322-.45,486.62h-106.8v-50.22q0-250,.07-500.09c.12-92.76,40.47-133.13,134.49-132.89,30.11.08,60.85,1.73,90.16,8,45.45,9.72,73.57,43.69,74.17,87.26,2.67,195,1.16,390,1.16,588.24Z"/><path class="cls-1" d="M2620.81,1450.14H2516.42c-1-18.6,3.22-37.25-3.83-49.35-10.05-17.24-26.7-37.76-43.71-41.22-10.79-2.19-39.18,23.8-39.5,37.61q-4.58,198.79.17,397.7c.3,12.38,28,33.67,42.71,33.41,14-.24,37.35-21.81,39.52-36.52,5.67-38.6,5.21-79,.49-117.78-1.77-14.56-22.09-26.86-39.72-46.66v-85.81c28.2,0,54.48-1,80.66.22,44.54,2.06,68.79,23.33,67.93,71-1.28,71.65.6,143.35-.61,215-1.18,69.63-41.61,106.65-110.63,109.94-160.06,7.65-195.18-17.45-190.24-187.71,3.6-123.53.47-247.26.79-370.9.23-86.1,41.49-127.43,127.79-128.9,17.91-.31,35.85-.61,53.73.08,77,3,117.91,44.79,118.8,121.15C2621.06,1396.2,2620.81,1421,2620.81,1450.14Z"/><path class="cls-1" d="M775.73,1250.4c90.67,0,179.75-.91,268.75,1.36,9.27.23,23.68,18.26,25.87,29.89,4.16,22.11,1.2,45.55,1.2,74.73-49.18,0-93.45.71-137.69-.22-37.73-.78-56.64,15.45-56,54.12.67,41,.15,82,.15,131.14,45.27,0,87.76,3.31,129.51-.84,52.08-5.18,72.72,13.87,64.29,65.38-1.72,10.49-1.29,21.34-2.18,38.43H881.35v188.16H1069v100.87H775.73Z"/><path class="cls-1" d="M1843.33,1257.51v676.43H1739.78V1335.4C1739.78,1239.7,1742.47,1237.6,1843.33,1257.51Z"/></svg>