<svg id="Layer_1" data-name="Layer 1" xmlns="http://www.w3.org/2000/svg" viewBox="0 0 2234.12 2239.47"><defs><style>.cls-1{fill:#fff;}</style></defs><path d="M1123.74,737.29c55.41-31.13,111.17-32.44,166.06-19.87,122,27.94,211.47,96.48,253.18,218.27,37.27,108.84,17.58,214.35-23.48,317.34-28.61,71.75-66.61,138.29-120.74,194.55-8.77,9.11-3.51,41.83,6.09,56.94,6.79,10.69,14.21,23.48,14.36,35.42.45,35.61,12.25,67.62,34,93.28,13,15.27,36.78,21,55,32.26,13.51,8.37,26.17,18.26,38.37,28.47,3.46,2.89,4,9.28,7.54,18.39-39.49-5-74.5-11-109.74-13-14.66-.81-29.81,7.13-47.23,11.75-29.23-25.91-66.16-5.91-101.68-3.25-.76-2.46-1.53-4.91-2.29-7.37,14.12-4.7,28.32-9.16,42.33-14.15,19-6.79,39-12,56.59-21.53,21.66-11.76,28.51-33.59,19.51-56.59-6.37-16.27-13.55-33.16-24.38-46.5-13.15-16.17-19.5-33-20.75-53.3-1-16.67-15.48-24.42-30.81-17.38-51.87,23.85-106.4,23.88-161.75,19.86-27.35-2-55.33-4.79-82.22-1.2-49.56,6.62-95.23-2.39-139.58-23.37-19.48-9.22-27.44-4.87-28,16.06-.48,18.51-6,32.71-20.41,46.11-13,12.11-22,29.25-30.63,45.29-9.21,17-7.83,19.33,10,51.6-7.2-1.2-13.21-3-19.19-2.92-4.59.07-9.14,2.58-13.7,4,2.65,4.43,4.53,11.9,8.09,12.81,24.7,6.3,28.47,24.39,27.77,49.18-32.42,0-64.92.5-97.4-.21-16.28-.37-31.42-2.18-47.44-10.84-18.94-10.24-42.74-11.48-69.93-17.92,31.62-8.11,57.74-15.44,84.15-21.46,65.65-15,95.85-63.24,115.59-121.59,5.4-16,9.95-32.21,15.73-48,8.84-24.12,5.69-41.89-15.46-61-83.16-75.2-135-169.26-153.11-280-25.45-155.29,19.57-284,150.56-377.15,33-23.45,69.77-41,110.67-44,20.4-1.47,41.56,3.57,62,7.65,12.82,2.57,24.9,8.84,39.32,14.19,3.75-25,7.14-47.64,11-73.39-11.2,4-19.65,6.68-27.79,10.07-70.06,29.19-127.7,3.43-170-42.12-11.48-12.36-20.73-27-33.08-38.31-19.76-18.08-41.26-34.25-60.9-50.3,67.54-43.75,170-36.36,231.72,34.19,18.39,21,36,42.64,55.06,65.21,14.13-31.58,4.72-87.14-22.71-135.42,12.48-6.31,26.38-19.32,36.8-17,11.05,2.5,24.7,18.55,26.84,30.53a467.78,467.78,0,0,1,6.72,94.2C1133.43,661.55,1127.8,697.13,1123.74,737.29Z"/><path class="cls-1" d="M1016.85,1982.6c-4.84-14.57-34.52-27.33-48.55-20.92-1.09.5-2.46,1-3,1.91-10.62,17.38-25.5,33.66-30.51,52.56-5.64,21.27-15.87,39.45-25.12,58.51-6,12.3-12.94,24.1-20.8,38.6,25.6,0,47.09.34,68.56-.09,22-.44,41.49-8.39,58.2-22.58a19.57,19.57,0,0,0,6.11-10.88c2-12.38,1.63-25.32,5-37.27,2.94-10.57,3.84-20-.1-30.24C1022.84,2002.52,1020.13,1992.46,1016.85,1982.6Zm-23.39,15.33c-8.15,1-14.94-1.07-17.89-12.69,7.34.69,13.63.72,19.58,2.17,2.09.52,3.31,4.56,4.92,7C997.87,1995.63,995.77,1997.66,993.46,1997.93Z"/><path class="cls-1" d="M495.64,442.72c16-5.46,26.79-21.36,45.17-22.8,2.31-.18,4.29-4.67,6.76-7.56-19.14-8.48-37.5-14.83-53.93-24.47a74,74,0,0,0-40.46-10.6l-3.91,3c11.7,20.09,23.16,40.32,35.42,60.07C486.1,442.64,492.5,443.79,495.64,442.72Z"/><path class="cls-1" d="M141.71,844.29c-7.16.85-15.09,8.57-19.57,15.27-5.16,7.71-8,17.48-9.92,26.75-8.31,41.12-7.43,82.3,1.19,123.32,3.71,17.59,13.29,24.21,31.15,22.19,10.37-1.17,20.79-2.66,31.19-2.68,8.35,0,11.83-3.31,12.09-11.21q1.31-39,2.69-78.08l4.35-.75c-7.24-26.08-13.11-52.67-22.34-78C168.22,849.2,154.32,842.8,141.71,844.29Z"/><path class="cls-1" d="M1483.86,307.69c4.29-2,8.3-6.36,10.57-10.62a290.21,290.21,0,0,0,14.8-32.46c4.17-11,8.53-22.18,10.13-33.66,1.18-8.41-2.13-17.41-3.14-26.18-2.27-19.55-33.62-40.48-52.19-34.49-2.43.78-4.27,3.3-6.46,4.92-21.6,16-31.08,40.16-43,62.87-9.06,17.28-19.7,33.72-29.42,50.67-3.88,6.78-7.15,13.91-12.22,23.87,17.58.82,31.87-.29,45.34,2.52C1441.34,319.94,1463,317.46,1483.86,307.69Zm12.52-98.25c-14.25,3.57-22.38-.67-24.49-13.15C1480.59,200.24,1491.49,198.18,1496.38,209.44Z"/><path class="cls-1" d="M1538,1871.22c-4.44-10.25-5.77-19.19-10.94-23.2-3.41-2.64-12.36,1.66-18.75,3.16-1.86.44-3.44,2-5.18,3-14.28,8.09-15.82,13.42-12.6,29.63,2.64,13.24,3.25,26.9,4.62,40.38.53,5.17-.41,10.79,1.31,15.47,2.33,6.33,6.65,13.86,15,8.56,11.44-7.26,22.64-15.33,32.37-24.69,5.16-5,10-13.57,9.61-20.2-.63-10.21-5.91-20.13-9.41-30.75Z"/><path class="cls-1" d="M2233.85,1119.47C2247.36,511.67,1726,13.41,1146.8.29,513.93-14.07,2.29,515.27,0,1113.41-2.32,1728,514.14,2237.09,1113.18,2239.46,1724.2,2241.92,2247.91,1725.2,2233.85,1119.47Zm-341.19-611a10.19,10.19,0,0,0,5.69-1.47c17.06-10.74,34-8.32,48.08,3.95,19.91,17.34,37.94,36.82,57,55.12,19.35,18.56,36.19,38.83,43.75,65.11,5.74,19.92,12.74,40.13.45,60.32-2,3.26-4,6.51-8.58,14-11.29-13.44-22.31-22.92-28.5-34.89-7.23-14-8.54-31-15.45-45.21-14.35-29.5-31.37-58.08-67.68-63.95-20.38-3.29-39.85,1.87-55.09,17.35-32.55,33.07-34.67,83.73-6.47,121.14,15.13,20.08,32.44,35.28,56.28,45.24,14.73,6.15,26.4,20.17,38.5,31.65,3,2.88,4.3,10.17,2.92,14.29-.87,2.63-8.17,4.61-12.45,4.37-51.92-2.91-89.9-22.26-112.48-73.91-14-32-20.47-64.78-21.75-99.17-.44-11.95-2.11-23.87-2.25-35.81-.27-21.58,4.89-40.11,23.11-55.21C1854.29,517.73,1870.52,507.12,1892.66,508.46Zm-60.92-64.23c5-3.45,8.93-7.21,9.75-6.62a44.13,44.13,0,0,1,9.82,10.52c.32.45-4.56,6-5.36,5.58C1841.67,451.7,1837.92,448.56,1831.74,444.23Zm-229-79.4c12.46-18.89,29-35.22,44.42-52,9.79-10.62,22.94-18,21.85-36-.58-9.68,10.34-16.2,20.23-13.52,27.19,7.36,48,22.39,56.47,50.72,3.31,11,.8,16.7-10.48,17.71-30,2.67-54.18,18.63-79,33-16.61,9.6-26.67,25.62-32.3,43.22-2.17,6.78.55,17.47,5,23.57a104.61,104.61,0,0,0,50.17,38.13c5.52,2,11.79,1.85,15.53,2.38,31.49-3.79,58.52-13.63,82.35-30.25,17.14-11.94,32.32-26.71,48.3-40.32,5.18-4.41,10.48-8.77,15.06-13.77,6.66-7.29,11.09-2.4,16,2,6.43,5.71,1,8.89-2.38,12.72-9.22,10.52-17.33,22.26-27.68,31.5-34,30.4-72.92,52.12-118.7,58.63a67.56,67.56,0,0,1-32-3.25c-29.42-11-54.69-28.73-73.47-54.38C1585.06,411.59,1588.26,386.81,1602.76,364.83Zm-260.71-38.48c1.41-13.08,3.35-26.55,8-38.73,8.3-21.7,18.79-42.56,28.37-63.77.17-.37.5-.71.53-1.08,1.42-22.49,15.42-39.47,25-58.46,2.61-5.16,2.54-12.8,1.1-18.66-4.76-19.3-1.22-24.17,18.8-23.16,2.82.14,5.63.32,8.45.48,51.25,3.34,94.89,22.43,127.91,62.7,3.57,4.36,5.16,10.75,6.5,16.48,5.07,21.63,8.21,43.61.38,65.07-2.6,7.11-9.56,12.53-13.94,19.12-7.64,11.48-14.59,23.42-22.24,34.89-13.86,20.81-36.75,25.78-58.55,32s-42.07-2.31-62.48-8.08c-9.94-2.81-19.49-7-29.43-9.81-2.17-.62-6.09,1.23-7.74,3.19-5.29,6.24-10.49,8.3-18.88,5.26C1344.85,340.58,1341.23,334,1342.05,326.35ZM1032.89,95.9c7.71-5.22,17-9.74,26.07-11,17.14-2.28,34.65-2,50.1,8.11,12.25,8,14.24,17.91,7.16,31-3,5.61-4.94,11.82-7.36,17.76l3.31,3.16c11.88-5.23,23.92-10.16,35.63-15.76,41.23-19.7,84.86-32,129.22-42a268.07,268.07,0,0,1,35.41-5.92c4.78-.42,9.9,2.88,14.86,4.49.1,1.41.19,2.83.29,4.25-3.93,1.72-7.7,4.12-11.81,5.07-21.53,5-43.73,7.87-64.59,14.82A587.93,587.93,0,0,0,1135,163c20.92,13,40,23.42,57.45,36.1,15.14,11,28.68,24.27,42.46,37,15.52,14.41,30.53,29.38,45.73,44.14,4,3.94,7.94,8,11.91,12.05l-2.44,4.32c-4.81-1.3-10.57-1.33-14.27-4.1-24.12-18-48.53-35.79-71.38-55.35-17.88-15.3-36.41-28.35-59.1-35.25-9.94-3-19.52-7.26-29.3-10.83-6.72-2.46-10.81-.44-11.84,7.05-4.39,32.2-11.4,64.15-7.34,97.05,1,8.24.16,16.71.16,27.88-5.77-2.41-10.29-3.38-13.68-5.88-17.54-12.94-20.16-31.7-18.76-51.53.93-13.06-2.64-24.75-6.14-37.22-4.41-15.73-10-31.42-14-47.31-5.82-23.19.29-49.61-16.77-70.34C1025.81,108.58,1029.21,98.39,1032.89,95.9Zm247.18,231.42-7.6,8.95L1263.53,326c2.11-1.8,4.79-5.46,6.21-5C1273.48,322.16,1276.67,325.09,1280.07,327.32ZM689.26,200.68c16.62-15.32,36.1-27.59,54.62-40.82,13.73-9.8,26.88-21,41.92-28.17A138.27,138.27,0,0,1,831.94,119c20.1-1.79,41.29-3.25,59,10.79,6,4.76,13.21,8.63.7,15.09-7.81,4-13.5,13.47-21.46,15.66-15.14,4.16-31.36,4.21-46.91,7.15-35.36,6.69-68.19,19.62-83,55.3-14.19,34.25,8.74,81,45.08,92.08,43,13.13,77.11-.15,110.77-23.25a9.8,9.8,0,0,0,2.76-2.33c12.64-19,26.14-37.24,46.71-48.67,6.43-3.57,12.56-8.15,19.45-10.27,7.15-2.19,10.47,2.7,9.38,9.73-3.3,21.37-11.59,40.58-24,58.42-18.87,27.18-46.14,38.87-77.26,44-18.09,3-36.28,5.37-51.44,7.58-31.27-3.89-59.26-6-86.65-11.28-17.93-3.46-33.23-13.68-41.72-31.49-6.88-14.44-16.77-28.09-14.26-45.17,1.59-10.83,0-21-.93-31.62C677.41,220.84,682.1,207.28,689.26,200.68ZM393.5,352.86c11.57-27.62,37.93-38,67.72-27,5.87,2.18,12.67,1.87,19,2.74,25.66,3.51,49.81,10.56,71.21,26.22,11,8,23.37,14.21,35.61,20.26,3.14,1.55,8.72.52,12.13-1.3,10.6-5.66,20.49-12.66,31.08-18.38,5.9-3.18,12.62-4.84,19-7.19l2.58,3.89c-7.32,9.07-14.29,18.47-22.06,27.13-11.21,12.49-10.39,14.68,4.74,21.53,17.51,7.93,34.29,17.47,51.42,26.23,4.28,2.19,9.38,3.27,13,6.23,5.09,4.22,9.21,9.62,13.58,14.67,2.07,2.4,3.73,5.14,6.29,8.73-1.82,2.7-3.76,8.07-10.29.06-2.37-2.91-8.16-3-12.34-4.49-15.76-5.7-32.44-9.71-47-17.6-20.56-11.15-42.46-9.78-64.1-10.6-5.8-.22-13.39,4.59-17.44,9.38-8.63,10.23-16,21.68-22.86,33.19-3.45,5.74-3.87,13.29-7.29,19.05-12.47,21.07-6.76,29.31,9.65,47.81,17.94,20.22,20.74,39.77,5.5,61.51a15.82,15.82,0,0,0-2.73,8.44c-.09,9.89-3.16,11.81-12.12,8.93-14.14-4.54-25-12.14-29.67-27.69l-13.38,4.73c.12-11.66,1.4-12.73,14.89-11.14-3-10.49-5-20.35-8.73-29.5A22,22,0,0,0,490.29,538c-26.7-11.69-26.8-11.45-32.81-38.25l-10,1.32c-2.14-11.17-2.09-11.25,12.65-18.95-17.44-16.59-17.7-43.46-38.51-58-9.4-6.55-10.23-17-9.11-27.31,1.26-11.55-.7-20.2-13.29-24.58C389.55,368.88,389,363.55,393.5,352.86ZM391.27,608c.4-.3,3.46,2.93,7,6-4.66,3.33-7.79,5.81-11.26,7.66-.33.18-4.38-4.66-3.94-5.31A35.68,35.68,0,0,1,391.27,608ZM157.38,658.51c4.92-20.3,14.84-37,32.4-49,15.1-10.37,26.34-5.65,28.9,12.38.6,4.17,2.07,8.95,4.79,11.95,11.49,12.73,23.7,24.83,35.48,37.3,7.64,8.09,14.32,17.2,22.62,24.5,18.05,15.88,36.63,31.17,55.46,46.12,9.62,7.63,20.24,14,31.12,21.42,9.86-22.31,19-44,29-65.29,5.61-12,13.29-23,18.66-35.05a83.11,83.11,0,0,0,6.39-25.3C424,619,432.92,607,450.46,605.78c7-.51,16.81,2.78,20.79,7.89s5.35,15.89,2.88,22.25c-4.86,12.53-14.1,23.3-19.81,35.6-6.87,14.8-15.72,30.13-16.94,45.76-1.95,25.1-17.55,42.72-27.16,63.58-2.5,5.43-5.82,10.47-8.55,15.79-5.73,11.16-12.77,12.89-23.07,5.8-29-19.91-57.94-39.5-90.51-53.61C267.6,740,249,726.72,228.78,717.18c-13.59-6.4-28.39-10.68-43.06-14.25C165.7,698.05,152.57,678.34,157.38,658.51Zm105.87,89.13c-1.58,3.59-4.54,6.58-6.94,9.81-1.57-1.87-4.78-4.19-4.41-5.5,1.08-3.8,3.59-7.2,6.88-13.19C261.28,743.5,263.85,746.26,263.25,747.64ZM68.6,1031.26,64.08,1033c-1.82-4.45-4.57-8.82-5-13.4-.16-1.8,4.88-4.08,9.51-7.65Zm248.16,82.8c-9.17,4.44-15.52-.25-22.75-4.4-5.84-3.35-12.5-7.87-18.6-7.57-10.24.49-16.54-2.86-22.27-10.79-2.64-3.66-7.65-7.49-11.86-7.83-27.38-2.23-54.33-5.82-81.1,7.8-21.15,10.76-45.27,3.41-67.27-1-6.48-1.29-13.82-15.94-14.56-25-2-24.27-1-48.81-.39-73.22,1-38.71,6.3-76.93,16.79-114.22,4-14.16,8.44-28.72,15.76-41.3,10-17.25,35.64-20.18,53.74-11.61,23.43,11.09,24.73,33.61,31.6,53.53,1.71,5,2.54,10.22,3.78,15.34l3.5-.45c10.86-28.73,35.5-42.55,61.49-51.68,24.61-8.63,46.84,6.31,58.88,29.46,2.2,4.22,5.12,8.05,7.81,12,5.45,8,8.32,15.78-1.53,22.81-1.18.84-2.59,2.32-2.68,3.59-1.37,19-13.57,33.39-25,45.72-9.47,10.18-25.85,14.15-39.6,19.84-1.5.62-8.61-5.83-8.4-8.65,1.11-15,2.7-30.23,6.27-44.85,1.63-6.66,8.39-10.57,13.79-1.18,3.51,6.1,7.13,4.3,11.81,1.17,11.56-7.72,23.45-15,35.52-22.57-9.8-34.5-37.09-49.47-70.41-27.8-22.35,14.54-32.84,34.4-34.2,59.86-1.26,23.66-3.42,47.47-1.89,71,1.94,30,4.72,31.06,36.31,30.59.35-1.31.68-2.79,1.14-4.23,1.88-5.84,3.8-11.66,5.7-17.5,5.4,2.11,10.67,4.66,16.23,6.17,3.57,1,9.06,2.12,11.13.29,21.5-19,36.57-42.06,42.45-70.59,2.67-12.93,5.72-25.78,8.6-38.69,9.74,3.78,14.87,15.65,11.07,25.77-8.8,23.49-18.21,46.76-26.22,70.51-2.42,7.18-2.42,15.89-1.1,23.47,3,17.36,8,34.38,11.32,51.69C334.81,1096.33,328.76,1108.27,316.76,1114.06Zm239.45,788.07c-12.19,9-25.76,13.86-40.88,15.56-46.45,5.22-81.13-13.57-112.3-47.37-34.9-37.83-51.53-82.75-60.63-131.21-4.23-22.54-6.68-47.87,11.85-66.11,17.14-16.88,36.7-31.75,63.51-30.12,4.05.24,8.75-1.47,12.32-3.63,13.5-8.18,26.93-7.57,39.62.65,26.52,17.18,53.37,34,78.66,52.88,20.63,15.39,35.1,36.37,40.5,62.17,4.31,20.56-.19,25.77-20.27,23.1a29.69,29.69,0,0,1-17.23-9.45c-8.46-10-14.91-21.69-22.65-32.35-16.57-22.82-38.16-40.7-65.67-45.65-25.5-4.6-48.54,6-67.1,25.21-12.91,13.37-16.26,28.94-13.73,46.46-.24,37.31,20.15,61.65,47.33,84.78,23.37,19.88,50,18.86,76.54,23.45,13.54,2.35,26.79,6.66,39.95,10.79,4,1.25,7.35,4.74,10.87,7.38C563.24,1893.43,562,1897.87,556.21,1902.13Zm222.62,161.29,21,8.43C786.72,2079.92,783,2078.42,778.83,2063.42Zm47.56-158.35c-3.75-.61-7.69-.66-11.19-1.92q-17-6.12-33.63-13c-17.57-7.3-21.05-6.06-30.15,10.69q-28.89,53.16-58,106.18c-8.48,15.38-7.21,17.29,7.84,25.58,17.5,9.64,33.82,21.39,50.86,31.89,9,5.57,18.52,10.44,29.92,16.8-10.39,8.13-19,6-27.64,3.31-21.81-6.68-43.65-13.28-65.41-20.1-7.89-2.47-13.66-2.66-16.78,7.27-2.33,7.39-10.66,8.5-14.69,3.51-12.34-15.29-30.71-13.44-46.56-18.44-22.88-7.21-35.62-23.79-43-45.12-3.42-9.92,4.72-15,12.37-15,20,.08,40.35-.55,58.76,9.77a83.85,83.85,0,0,0,12,5.58c7.72,2.84,11.29-.68,14.37-8q16.89-40.26,35.22-79.9c8.57-18.42,18.33-36.28,28.27-55.79-19-8.6-35.53-15-51-23.48-8.79-4.81-16.2-12.49-23.3-19.78-1.86-1.9-1.72-8.65.16-10.57,2.56-2.62,8.08-4.42,11.59-3.55,5.63,1.39,11,4.76,15.86,8.15,15.47,10.72,30.6,21.92,46,32.76,7.57,5.32,10.89,1.58,14.21-5.86,3.45-7.73,8.68-20.11,13.82-20.47,9.76-.67,24.25,3.07,28.77,10.11,4,6.28-2.6,19.52-4.9,29.61-.34,1.46-2.77,2.45-4.79,4.12,14.89,15.6,37.94,17.69,53.09,31.42Q827.42,1903,826.39,1905.07Zm246.79,151.42c-3,12.19-3.48,25-5.47,37.46-.55,3.42-1.72,7.33-4,9.8-24.29,26.91-51.91,47-90.93,42.84a21.51,21.51,0,0,0-2.41,0c-.09.51-.19,1-.29,1.55-22.91-3.9-45.8-8-68.78-11.48-3.08-.48-8.26.73-9.62,2.93-6.42,10.38-15.41,7-23.72,5-9.41-2.33-15.27-8.51-15.53-18.92-.55-21.74,9-40.13,17.94-59.18,9.25-19.72,15.32-40.9,23.44-61.18a224.35,224.35,0,0,1,15.61-32.19c6.28-10.44,7.86-20.47,4.28-32.16-3-9.94,1.69-17.71,10.69-19.08,41.27-6.3,80.28.2,115,23.94,22,15.1,29.81,39.66,37.53,64C1082.18,2026.26,1077,2041,1073.18,2056.49Zm32-179.43c-398.57-8.52-739.5-348.39-732.22-751.2-10.33-406.14,343.14-761.9,765-754.53,394.46,6.9,738,346.4,737.3,754.32C1874.53,1526.55,1536,1886.25,1105.13,1877.06ZM1391,2137.37c-17.76,4.91-35.6,10.46-53.8,12.69-31.34,3.83-63,5.59-94.47,7.75-10.88.75-21.86.12-32.79.12.21-1,.42-2,.62-3-3.74-4.64-6.84-10.05-11.35-13.75-8.4-6.88-17.52-12.12-17.46-25.5,0-5.56-4.52-12.12-8.76-16.52-12.47-13-12.15-29.55-12.39-45.09-.31-20.45,3.08-40.93,3.77-61.43.19-5.6-1.93-13.3-5.87-16.67-14.55-12.46-12-33.85,6.85-40.36,10.3-3.56,21.92-3.82,33-4.47,15.87-.94,31.95.36,47.67-1.49,36.72-4.32,73.24-10.28,109.93-14.8,7.77-1,16,.93,23.87,2.57,2.82.59,5,4.29,7.45,6.57a101.63,101.63,0,0,1-7.54,6.86,7.28,7.28,0,0,1-4.63,1.15c-24.75-2-45.19,10.29-65.56,21.1-22.26,11.8-46.23,15.56-70.34,19.78-13.44,2.35-27,4.24-40.19,7.64-4.29,1.1-10.14,5.88-10.76,9.71-2.39,14.85-3,30-4,42.9,27.29-3.54,52.79-8.13,78.48-9.84,25-1.65,50.23-.36,75.35-.36.49,1.23,1,2.45,1.48,3.67-7.14,3.09-14,7.26-21.47,9.06-23.76,5.73-47.72,10.67-71.63,15.75-16.45,3.49-32.92,6.92-49.48,9.84-3.21.57-6.86-1.33-13.75-2.84,2.12,9.59,2.79,18.15,5.89,25.7,13.39,32.64,41.4,46.33,73.54,48.34,28.19,1.76,56.79-2.66,85.18-4.83,13.6-1,27.09-3.58,40.69-4.54,3-.22,6.35,3.3,9.53,5.1C1395.76,2131.32,1394,2136.55,1391,2137.37Zm386-150.92c-19.82,13.41-42.59,15.22-55.18,16.07-48.84-1.82-87.36-2.55-125.77-5-16.73-1.08-33.23-5.73-49.83-8.8-1.57-.29-3.07-1-4.65-1.26-30.31-5.74-38.31,1.74-32.84,31.72,3.59,19.7,7.62,39.35,12.69,58.71,1.33,5.09,6.47,10.23,11.21,13.15,7.33,4.51,9,10.18,2.59,16.19-15,14.19-42.82,8.12-48.18-11.9-5.86-21.88-9-44.5-13.07-66.84q-7.05-38.48-13.73-77c-2.93-17-5-34.06-8.51-50.89a105.18,105.18,0,0,0-8.93-24.57c-4.46-9.07-2.82-14.24,5-21.47,17.78-16.43,38.58-27.13,60.12-36.87,39.74-18,70.52-7.55,91.66,22.28,10.61,15,23.27,33.56,14.92,54.75-4,10.17-11.07,19.33-17.71,28.22-5.26,7-5.63,12.16,2.34,16.75,5.55,3.2,10.77,7.5,16.74,9.37,22.18,7,45.16,11.69,66.83,19.92,29.91,11.36,60,9,90.49,6,3.26-.31,6.81,2.5,10.23,3.87C1781.4,1981.4,1779.74,1984.66,1777.09,1986.45Zm-237.69,24.09-12.32,5.49-2.7-5.9L1536,2004Zm348.53-126.92c-5.82,8.19-12.55,10.11-22.83,5.6-16.1-7.08-29.53-17.3-38.35-31.74-10.21-16.73-28.35-21.67-42.16-32.86-3-2.47-6.09-5.45-9.66-6.62-6.45-2.12-13.24-3.92-20-4.21-5.45-.24-11,2.17-16.54,3-8.37,1.25-14.61-.6-14-11,.5-8.41-4-9.24-11.4-9.24-27.25,0-54.5-1-81.75-1.5-8.91-.17-16.74-2.85-17.44-12.68-.52-7.29-.68-17,3.44-21.82,15.88-18.6,35.69-31.43,61.66-29.76,4.85.31,10.79,2,14.08,5.19,20.92,20.47,48,23.22,74.68,26.34,8.6,1,14.25-6.48,11.64-14.16-4.72-13.87-.92-29.88-13.88-42.24-6.11-5.82-6-18.6-7.78-28.39a316.15,316.15,0,0,1-4.67-35.85,369,369,0,0,1-.09-37c.32-8.9,4.78-17.66-1.79-26.55-1.45-2,2.11-7.64,3.54-12.16,20.62,8.88,19.73,24.76,20.49,41.12,1.34,28.72,9.36,54.94,32.77,74.62,11.68,9.83,14.67,25.33,11.67,38.57-3.57,15.81,1.14,28.5,6.82,41.65,8.72,20.19,16.89,40.78,27.61,59.9,8.07,14.37,19,27.41,30.13,39.69C1890.9,1868.91,1893.89,1875.23,1887.93,1883.62Zm285.61-772.41-6.21,1.68c-24.13-63.82-57.81-121.59-104.86-174.33-6.56,16.07-13.57,28.83-16.95,42.48-6.26,25.29-20.67,45.82-34.61,66.87-11.22,16.95-22.05,34.16-33,51.31-1.94,3-2.83,7-5.26,9.43s-6.32,3.88-9.57,5.75c-.68-3.6-3-7.93-1.79-10.69,8.6-19.4,17.71-38.59,27.08-57.64,15.66-31.81,37.14-61.31,37.45-99,.07-7.86,2.48-15.71,3.7-23.57.92-5.93-1.25-9.46-7.72-9.12-34.33,1.83-69,.74-101.86,13.74-1.87.74-3.68,2.07-5.58,2.2-4.67.33-9.37.11-16,.11.69-4,.49-8.39,2.18-11.8,9.69-19.53,26.78-26.88,47.46-30.13,11.41-1.79,22.36-7.26,33.18-11.86,15.94-6.79,30.17-16.79,46.11-24.08,21-9.6,45.73-11.11,63.62-28.55,7-6.78,16.11-1,22.26,5.39,14.75,15.35,20.08,57.1,9.46,75.44-6.25,10.79-16.8,9-26.76,7.33-6.13-1-12.14-2.71-21.9-5,3.71,7,5.41,10.81,7.59,14.29,19.24,30.56,40,60.26,57.4,91.86,14,25.48,24.23,53.07,35.21,80.1C2176.25,1098.44,2173.88,1105.23,2173.54,1111.21Z"/></svg>