<svg id="Layer_1" data-name="Layer 1" xmlns="http://www.w3.org/2000/svg" viewBox="0 0 2238.56 2238.56"><defs><style>.cls-1{fill:#fff;}</style></defs><path class="cls-1" d="M983.78,1134.46c-6,55.8-12,111.61-18.16,169.25h43.5c-7.06-58.8-13.69-114-20.32-169.28Z"/><path class="cls-1" d="M1028.64,1670h-14.56v117.38h14.56c8.21,0,13.14-4.23,13.14-16v-85.45C1041.78,1674.18,1036.85,1670,1028.64,1670Z"/><path class="cls-1" d="M675.46,684.17v212c49.19,5.73,63.73-.35,71.86-45.12a413.56,413.56,0,0,0,3.83-118.39C745.38,681.16,731.14,674.52,675.46,684.17Z"/><path class="cls-1" d="M683,649.36c24.27,11,56.63-4.62,59.69-32,4-35.66,6.1-72.31,2.47-107.86-4.75-46.52-19.6-55-71.24-49.68,0,59.47-.23,117,.38,174.54C674.33,639.57,678.59,647.37,683,649.36Z"/><path class="cls-1" d="M734,1176.56a372.92,372.92,0,0,0-.74-86c-5.87-48.26-21.35-57.58-70.3-47.72v182.89C718.57,1234.32,728.07,1228.89,734,1176.56Z"/><path class="cls-1" d="M663.46,1262v214.22c48,6,64-.92,71.83-44.93,6.81-38.52,7.44-79.32,3.27-118.3C733.06,1261.59,718.17,1253.88,663.46,1262Z"/><path class="cls-1" d="M1228,1037.47v219.28c40,7.79,57,.64,61.88-35.74A761.81,761.81,0,0,0,1296,1082.6C1294,1040.82,1272.89,1029.46,1228,1037.47Z"/><path class="cls-1" d="M1380.55,1670h-12.44v50.48h10.09c9.63,0,15.5-4.23,15.5-17.38v-16.19C1393.7,1675.12,1389.71,1670,1380.55,1670Z"/><path class="cls-1" d="M1119.28,108.07c-558.46,0-1011.21,452.75-1011.21,1011.21S560.82,2130.49,1119.28,2130.49s1011.21-452.75,1011.21-1011.21S1677.74,108.07,1119.28,108.07ZM917.74,429.23,949,427.75V891.09c28.33,0,53-.08,77.62,0,31.34.14,31.34.2,28,34.95h-137ZM711.93,1700H687.51V1682.4c0-11.74-5.16-16.2-13.38-16.2s-13.38,4.46-13.38,16.2v88.73c0,11.74,5.16,16,13.38,16s13.38-4.23,13.38-16v-23.47h24.42v21.83c0,26.29-13.15,41.31-38.5,41.31s-38.5-15-38.5-41.31V1684c0-26.29,13.14-41.31,38.5-41.31s38.5,15,38.5,41.31Zm45.69-224.9c-5.73,13.6-24.85,27.33-39.78,30-26.79,4.84-55.09,1.36-84.5,1.36v-497c27.1,0,53-1.52,78.63.44,24.26,1.86,37.24,19.82,44.51,41.09,19.89,58.18,20.48,116.46.56,175.11-2.95,8.71-1.39,20.78,2.24,29.59C789.53,1329.29,788.05,1402.92,757.62,1475.11Zm11.64-579.17c-6,14-27,26.89-43,30-25.83,5-53.31,1.34-81.76,1.34V428.58c27.12,0,51.29-1.19,75.29.32,26.57,1.67,41.44,19.61,49.31,43.12,19.18,57.28,20.46,114.62.69,172.43-3.23,9.42-1.6,22.45,2.24,32C801.52,750.2,799.93,824,769.26,895.94Zm94.33,914.86H837.77V1646.48h25.82Zm204-40.61c0,26.29-12.67,40.61-38.5,40.61H988.26V1646.48h40.84c25.83,0,38.5,14.32,38.5,40.61Zm7-265.81c-27.37,9.72-37-.41-40.21-25.69-5.67-45.1-14.09-89.85-21.54-135.92H964.54c-7.71,46.4-15.54,92.87-23.11,139.39-4.51,27.79-6.71,29.21-39,20.45,8.62-64,17.19-128.33,26-192.65,12.85-94,26.15-188,38.48-282.07,1.8-13.74,6.78-22.73,20.31-18.47,8.08,2.54,18.85,11.5,20,18.87,23.22,150.78,45.26,301.75,67.32,452.71C1075.53,1488.2,1074.61,1495.69,1074.61,1504.38ZM1209.54,431.69c.45,8.88,1.44,19.64,1.45,30.4q.16,193,.14,385.93c0,36.22,7.92,44.36,37.5,45.15,24.14.64,33.92-10.75,33.89-33.59-.07-55.93.06-111.86.07-167.79,0-78.31.57-156.62-.33-234.91-.26-23,5.7-34.28,32.89-25.51.8,4.53,2,8.11,2,11.68.13,143.56.52,287.12-.07,430.67-.16,38.2-17.29,53.45-55.5,54-75.1,1.12-85.3-9-85.3-84.4,0-128.64.32-257.29-.3-385.93C1175.86,435.12,1180.29,422.09,1209.54,431.69ZM1240.39,1670h-44.6v45.78h35.45v23.48h-35.45v48.12h44.6v23.47H1170V1646.48h70.42Zm62.68-189.22c-10.19-53.88-22.57-107.38-35.1-160.79-4.52-19.24-13.15-36.17-41.52-25.85v210.75c-19,4.5-31.2,5.87-31.11-18.11.56-154.68.36-309.35.51-464,0-3.52,1.13-7.05,2.19-13.23,29.11,0,58-2.68,86,1.27,11.82,1.66,27.39,15.29,31.46,26.92,25.06,71.5,26,144-.33,215.72-4,10.91-13.34,19.87-17.65,26.07,17.62,78.07,34.07,151,50.47,223.67C1319.58,1513.5,1307.93,1506.48,1303.07,1480.73Zm93.21,330.07c-1.41-4.22-2.35-6.8-2.35-20.18v-25.83c0-15.25-5.16-20.89-16.9-20.89h-8.92v66.9h-25.82V1646.48h39c26.76,0,38.26,12.44,38.26,37.8v12.91c0,16.9-5.4,27.93-16.9,33.33,12.91,5.4,17.13,17.84,17.13,35v25.35c0,8,.24,13.85,2.82,20Zm47.47-909.44c-.11-148.07.44-296.15-.62-444.23-.17-24,7.79-30.23,30.35-29.13,34.18,1.68,68.5.44,104.74.44V463h-98.67V651.76h91v38.06H1480V892.11h102.84c.74,12.21,1.33,21.92,2.05,33.69H1445.58C1444.93,917.45,1443.75,909.41,1443.75,901.36Zm50.89,277.73v325.33c-17.59,4.48-33,9.17-32.93-17.24q.4-233.64.71-467.26c0-1.75,1-3.51,2.12-7.09,20.11-8,31.92-6,37.4,20.61,16.92,82,36.4,163.54,55,245.24,2,8.68,4.39,17.25,12,25.23v-293.7h31.17v493.28c-23.51,12-28.94-2.82-33-21q-31.06-139-62.52-277.92C1502.63,1195.86,1500.31,1187.19,1494.64,1179.09Zm77.95,577.26v54.45h-25.82v-54.45l-32.63-109.87h27l19.72,74.89,19.71-74.89h24.65Z"/><path class="cls-1" d="M1119.28,0C501.1,0,0,501.1,0,1119.28S501.1,2238.56,1119.28,2238.56s1119.28-501.1,1119.28-1119.28S1737.46,0,1119.28,0Zm0,2160.77c-575.2,0-1041.49-466.29-1041.49-1041.49S544.08,77.79,1119.28,77.79,2160.77,544.08,2160.77,1119.28,1694.48,2160.77,1119.28,2160.77Z"/></svg>