<svg id="Layer_1" data-name="Layer 1" xmlns="http://www.w3.org/2000/svg" viewBox="0 0 2495.18 2495.1"><defs><style>.cls-1{fill:#fff;}</style></defs><path class="cls-1" d="M2495.18,1248.54c-.33,690.21-558.09,1247-1248.74,1246.58C556.78,2494.7-.64,1935.91,0,1245.63.64,555.61,560.48-1,1253,0,1939.07,1,2495.51,560.22,2495.18,1248.54ZM172.31,1275.89c8.36,106.27,10.68,239.35,80.56,358.26,150.78,392,553.69,715.15,1076.75,679.15,104.33-7.18,205.3-30.3,302.9-68a1067.18,1067.18,0,0,0,272.24-154.36c82.55-64.31,152.15-140.67,215.4-224s104.49-179,148.51-271.62c47.43-99.74,59.57-212.54,59.12-323.58-.55-133.47-9.08-266.49-74.78-387.9C2083.47,418.06,1610,120.48,1113.88,190,667,252.64,381.6,517.8,222.94,929.52,183.64,1031.5,172.66,1140.76,172.31,1275.89Z"/><path class="cls-1" d="M1870.94,1108.35c-4.15-18.33-14.2-34.81-29.31-39.25-27.19-8-39.93-29.1-56-47.74-26.4-30.6-55.45-52.32-99.67-51.17-42.67,1.1-84.1-36.68-94.76-78.67-1.47-5.81-1.36-10.34,1.31-16.07,19.09-40.84,9.55-68.94-32.31-88.15C1450.09,736.77,1338.56,725.14,1230,829c-8.22,7.87-13,10.4-19.47-1.68-12.61-23.61-33.93-31-59.48-29.29-52.47,3.6-98.85,24.92-142.8,51.4-15.67,9.44-20.41,6.82-27.61-8.62-18.62-40-48.54-67.5-94.55-70.36-28.31-1.76-56.6-1.28-84.64-7.38-17.9-3.89-25.11,12.49-32.94,23.73-5.91,8.47-17.94,18-3.95,31.12,7,6.57,3.29,16.81,1.74,25.63-8.72,49.52-22.49,98.89-24.23,148.66-1.28,36.81-14.83,63.07-36.8,88.56-3.71,4.3-7.13,8.85-10.63,13.32-35,44.82-69.91,89.66-92,142.81-7.52,18.14-12.87,36.47-11.71,56.63,3.35,57.88,16.35,113.77,33.29,168.94,3.45,11.24,8.53,21.6,19.41,26.83,15.72,7.57,23.84,20.84,31.52,35.56,121.06,231.86,310.22,355.64,590.57,360.71C1656.62,1885.6,1960.8,1505.21,1870.94,1108.35ZM1470.53,810.73C1526.1,815.56,1563,848.65,1579,902c17,56.66,5.39,108.21-36.53,150.52-27.38,27.64-63.39,34.41-107.3,33.4-54.65,3.31-98.74-23.65-127.44-76.06-26.3-48-21.75-96.13,7.3-140.85C1352,812.17,1410.66,805.52,1470.53,810.73ZM1202.72,937c.14-2.38.47-6.64,1.37-6.82,25.35-5.18,17.22-28.93,24-44,20.61-45.83,57.22-69.88,104.68-84.39-.3,4.93.18,7-.55,7.62-80.14,66.13-91.93,163.53-29.38,245.55,9.29,12.18,17.1,24.48,23.38,38.93,12.83,29.52,41.24,42.61,70,52.28,9.47,3.18,22.88,16.91,29.48,4.47,5.38-10.14-12.88-13.43-20.61-19.51-12.32-9.72-25.87-17.87-44.68-30.59,33.22,5.6,59,12.18,85.61,13,25.38.82,50.26-1.38,74.33-10,62.72-22.59,86.4-55.35,88.1-121.86.12-4.69.54-9.37.84-14.36,23.09,8.19,31.93,24.11,31.12,57.78-.71,29.78-16,56-22.42,84.39-.45,2-3.07,5.45-3.73,5.24-15.65-5-37.12,7.45-43.71,2.62-22.93-16.78-27.19,6.63-38.44,13.08-7.9,4.52-8.47,9.47,2.75,14.29,59.48,25.57,72.65,79.34,84.25,140.57-36.9-28.28-69.62-52.89-113.73-65.34,8,15.44,22.7,17.25,28.32,30.63-18.3.88-33.36-6-48.21-13-26.55-12.63-49.66-30.65-73.32-47.77-27-19.54-54.28-37.68-87.76-45.85-26.87-6.57-42.52-28.78-55.19-52-15.12-27.72-28.8-56-49.29-80.72C1202.59,990.26,1201.18,963.44,1202.72,937ZM782.93,829.76c4.69-10,1.08-26.33,11.75-29.34,13.63-3.84,24.88,9,36.49,16,8.07,4.88,15.85,10.24,25.92,16.8-12.24,7.43-24.1,7-32.61,18.87,31.93-8,49,17.28,76.7,27.08-52.76,19.84-88,58.89-135.93,92.35C772.68,920.65,762.35,873.52,782.93,829.76ZM633.21,1213.41c22.9-36.74,52-67.87,85-98.39,2.35,12.87-6.58,22.57,1,36.72L844.5,1013c6,11.25-.9,17.89-2.88,25-6,21.62-7.63,43.3-1.7,64.93,6.87,25,12.65,26.11,36,17.39,48.18-18,93.16-18.95,141.51,9.44,83.31,48.92,175.45,75.8,272.28,83.63,16.12,1.3,35.91,2.66,31.19-24.25,74.72,25.67,130.74,74,169.19,142.43,8.74,15.56,17.33,30.78,29.21,44.06,3.35,3.5,12.85,5.43,7.8,11.19-4,4.6-9.37-2.42-13-6.53-90.21-60.91-191.44-90.12-298-104.94-67.63-9.41-133.2-28.59-199.19-45.55-37.12-9.54-73.78-12.14-109.08,6.48-9.68,5.11-18.79,3.43-28.14,0-35.9-13.38-55.78-40.56-64.88-76.48-3-11.72-4.08-23.92-6.76-40.28-39.69,26.75-65.7,59.48-68.38,106.19-1.2,20.85-5.64,24.18-24.83,16-23.23-9.93-48.84-11.77-74-13.52C628.75,1227.31,627,1223.46,633.21,1213.41Zm940.76,339c8.79-3.93,14.84,4.34,22.37,4.1l5.23-5.4C1457,1453.31,1302.81,1378,1128.49,1349.9c-33.41-5.39-65.48-18-100.4-18,60.17,28.22,114.22,68.62,179.48,85.91,17.24,4.57,34.38,9.61,51.75,13.63,51.27,11.89,97,32.89,138.69,66.76,56.58,46,118.88,84.18,192.45,111.75-138.84,39.84-264.9,104.4-405.19,122.7-37.18,4.85-74.35,4.76-111.74,2.16-74.4-5.19-126.63-45.73-167.2-104.22-21.73-31.34-12.4-50.92,25.34-58.45,43.26-8.62,79.52,5.5,111.21,35.61,7.49-39.63,18.44-48.08,59.45-49,41.76-.92,82.26,7.84,122.91,15.37,21.84,4,43.28,4.86,64.69-4.51-52.6-5.93-103.5-23.1-157-20.25-.35-2.8-1.18-4.61-.63-5.82,4.49-10,16.1-20.74,8.26-30.52-5.79-7.22-17.1,3.78-26.41,5.1-24.32,3.45-48.62,1.81-72.94,1.33-22.73-.44-45.44-1.37-67.88,3.65-5.93,1.32-13.22,6.72-17.52-.82-3.64-6.36-3-14.72,1.44-20.94,4.13-5.8,9.24-11.65,15.27-15.19,9-5.27,19.31-8.24,28.82-12.73,11.25-5.31,32,2.49,30-22-.27-3.46,10.49-3.63,12.4-12.58-63.43,6.76-125.71,2.06-187.32-11-31.1-6.58-61.22-16.23-88-34.16-27.35-18.31-45-42.28-42.15-76.9,1-12-2.52-18-14.94-19.57-17-2.21-33.89-4-50.94-1.78-32,4.13-46.18,25.85-51.19,58-15.84-30.24-7-54,8.25-76.61,6.82-10.12,17.55-14,29.2-15.43a98.15,98.15,0,0,1,45.59,4.79c19.29,6.9,36.45,21.35,58.79,1.51,16.07-14.26,36.53-23.2,42.42-49.9,19,61.5,63.94,57.19,111.6,50.61,89-12.28,176.33,2.13,263.39,19.31,36.59,7.23,73.33,13.87,110.19,19.57,50,7.73,93.94,30.23,137,54.85,62.08,35.51,121.67,75,177.16,120.11,50.45,41,102.32,70,170.83,36.13C1728.86,1582.67,1648.15,1595.91,1574,1552.45Zm160.36-70.78c-72.34-.7-135.25-25.81-187.31-78.28,53.33,16.46,105.25,47.37,165.64,16.11-8.83-11.74-23-12.9-30.72-26.94,16.47,1.87,31,3.36,45.45,5.24,5.17.67,9.89,4.12,10.36,9,3,31.33,27.47,31.54,49.78,34.94,4.53.7,9.14.89,15.87,1.52C1788,1473.08,1762.7,1481.94,1734.33,1481.67Z"/><path class="cls-1" d="M1249.84,2304.12c-433,.67-825-266.37-984.07-669.08-9.44-23.88-4.68-30.61,18.52-37.84,82.07-25.61,163.64-52.91,244.77-81.34,20-7,26.49-3.26,35.09,15.93C684,1799.21,889.33,1955.48,1181,1986.13c322.72,33.91,626.94-152.53,752-452.11,9-21.62,17.33-24.65,38.6-17.21,82.7,28.91,165.95,56.29,249.41,82.94,17.9,5.71,20.47,12.16,13.33,29-161,378.94-443.32,602.7-850.91,666.55C1339.19,2302.19,1294.53,2303.81,1249.84,2304.12Zm-29.43-79.23v.84c8.91,0,17.86.47,26.73-.12,10.87-.72,13.78.93,9.41-16.06-12.64-49.11-6.66-100.22.92-150.37.18-1.18,2.42-2,3.61-3.1,8.93-8.29,4.51-13.54-4.82-14.06-21.84-1.21-43.77-1.06-65.66-1.13-6.08,0-14.33,4.83-8.41,9.39,19.64,15.12,9.23,34.72,9.56,51.89.63,33.17,8,71.28-5.51,98.41-18.64,37.57,8.25,21.07,19.62,24.11C1210.4,2225.9,1215.54,2224.89,1220.41,2224.89ZM988.67,2006.25c-7.23.28-18.84-.57-7.65,13.7,6.22,7.93,3.48,15.32,1.89,23-7.42,35.65-15.23,71.21-22.7,106.85-1.84,8.78-2.8,17.27-12.89,21.58-8.64,3.7-8.57,11.1.15,13.34,24.24,6.22,48.83,11.24,73.51,15.44,6.75,1.14,11.49-6.36,5.36-11-14.46-10.86-7-23.18-4.65-35.21,5.51-27.77,11.4-55.47,17.24-83.18,12-57,12-57-45.58-63.66C992.54,2007,991.75,2006.82,988.67,2006.25Zm495.48,7.41c-14.81,2.72-28.28,6.56-41.92,7.35-18.18,1-20.77,9.26-17.52,25.39,7.82,38.9,14.43,78.06,20.81,117.23,1.71,10.44,7.39,22.62-6.58,30.34a6.31,6.31,0,0,0-2.06,8.61c3,5.61,8.21,4.54,12.83,3.8,16.79-2.7,33.68-5.1,50.22-8.94,12.2-2.82,39.64-.65,10.37-23.16-2.65-2-3.27-7.29-4-11.2-6.64-37.48-13.24-75-19.47-112.53-1.28-7.69-3.48-15.48,3.54-22.77C1500.73,2017.05,1492.48,2014.72,1484.15,2013.66Zm-677.88-64.4c-1.69,4-3.88,10.09-6.68,15.85q-22.8,46.94-45.87,93.73c-4.52,9.17-7,19.22-20.55,21.21-10.41,1.53-7.64,9.61-.78,13.2q31.15,16.3,63.29,30.7c6.36,2.84,16.49-.14,10.11-8.39-10.58-13.7-1.42-22.94,3.32-33,13-27.83,27.21-55.13,40.66-82.78,21.51-44.26,21.46-44.41-24.45-65.1C813.13,1929.14,795.35,1916.64,806.27,1949.26Zm857.52,184.62c-1.91-4.54-4-9.79-6.32-15q-23-52.35-46-104.7c-19.49-44.47-19.6-44.74-63.31-24.14-11.84,5.58-38,10.49-4,24.93,4.64,2,6.77,10.66,9.37,16.54q21.64,49,42.83,98.13c3,7.06,8,13.44,2.65,22.65-7.1,12.21,1.08,14.68,10.68,11.11,15.94-5.91,31.35-13.29,47-20.13C1660.43,2141.65,1664,2139.64,1663.79,2133.88Zm-584.66-11.18c35.52-14.4,47.2-29.24,44.86-53.77-2.16-22.73-21.73-39.65-51-44.69-9.4-1.62-18.88-1.4-13.45,10.91,13.29,30.14,8.93,55.09-16.61,76.29-1.93,1.6-3.38,7.26-2.25,8.51,15.57,17.19,4.9,35.33,2.46,53.12-2.16,15.81,1.41,29.33,16.24,37.43,15.14,8.28,31.4,10.76,45.9-.06,6.63-5,27.7-14.21,0-21.48-8.85-2.33-4-9.86-2.55-14.11C1110.66,2151.93,1103.84,2135.13,1079.13,2122.7Zm330.72-23.4c-11.61-20.77-20.57-36.88-29.62-52.93-3.53-6.25-6.15-13.62-15.91-11.89-17.55,3.11-35.18,5.78-52.71,9-3.79.7-8.1,2.45-8.75,7.14-.69,5,3.19,7.64,7.12,8.29,12.52,2.05,16.18,12.36,21.14,21.51,20.47,37.76,40.76,75.61,61.41,113.27,3.69,6.75,5.2,15.65,14.45,18.2,14.83-35.83,20.9-126.43,8.1-134.74Zm-535.8-23c29.19-.41,52-22.8,55-52.85,2.3-23.12-17.73-52-40.59-57.56-13.39-3.23-12.32,3.93-9.65,13.72,4.7,17.23-16,63.16-31.76,70.7-5.7,2.73-14.12,2.32-13,11.07,1,7.67,9.54,7.53,15.17,10C857.46,2075.06,866.14,2077,874.05,2076.3Zm460.25,37.81c3.63,21.45,6.73,38.64,9.4,55.89,1.83,11.83,5,23.74-1.57,35.37-2.86,5.07-12,8.75-6.3,16.09,4.71,6.06,12.06,1.71,18.21,1.06a170.31,170.31,0,0,0,19-3.12c4.57-1,10.14-1.75,10.81-7.81.52-4.71-3.38-7.07-7.07-8.61-14.14-5.91-16.14-18.34-18.42-31.45C1355.08,2152.33,1354.16,2131.82,1334.3,2114.11Zm390.71-9.75c-4.19-9.65-8.54-20-13.18-30.23-2.26-5-4-11.93-10.78-11.19-7.78.85-6,8.1-5.94,13.48.13,9.06-3.32,17.12-5.87,25.58-3.07,10.19-24,15.26-13.58,26.13,9.55,9.95,22.44-5.17,34.06-8.42,3.83-1.07,7.43-3,11-4.81C1724.83,2112.89,1726.45,2109.58,1725,2104.36Zm-54.29-117.66c-3.44-8-8.43-17.35-11.51-27.29-4.38-14.18-12.29-14.34-23.5-8.36-7.8,4.17-16.09,7.42-24.11,11.18-3.67,1.72-7.57,3.66-6.58,8.7,1,5.36,4.46,9,10.15,8,17.52-3.07,31.45,3.4,43.91,15.06a11,11,0,0,0,8.59,2.41C1671,1995.61,1671.59,1991.86,1670.72,1986.7Zm-.56,85.54c8.23.2,11.07-3.65,8.81-9.1-7.44-17.88-15.38-35.57-23.69-53.07-2.17-4.56-9-8.09-10.9-1.87-3.84,12.7-9,27.44-5.75,39.22C1642.34,2061.06,1663.45,2059.78,1670.16,2072.24Z"/><path class="cls-1" d="M2247,904c.39,8.81-5.35,10.25-10.79,12.06Q2100,961.45,1963.75,1007c-15.8,5.32-15.59-7.33-18.6-15.36-24.43-65-55.79-126.41-98.27-181.35-177.07-229-411.26-334.32-697.57-295.51C864,553.43,666.85,717.17,556.78,983.41c-9.51,23-16.67,26.21-39.53,18.11-82.6-29.23-166-56.2-249.46-82.91-16.41-5.25-18.78-11.05-13.07-27.09C406.4,465,824,179.4,1276.75,193.24c434,13.27,811.73,283.55,962.62,688.92C2242.2,889.75,2244.72,897.45,2247,904ZM1827.58,715c6.31-.17,10.36-3.07,9.11-8.81-3.75-17.23,7.32-29.41,14-42.81,16.75-33.35,34.39-66.24,51.56-99.37,19.2-37,18.36-36.22-11.94-63.88-16.07-14.66-24.6-10-33.13,6.25-15.09,28.72-30.55,57.25-45.52,86-4.41,8.47-8.08,13.69-17.64,5-6.41-5.84-14.4-18.52-23.46-6-8.91,12.34,7.37,15.84,13.23,20.69,17.25,14.24,6.59,29.69-3.79,32.79-36.32,10.84-9.76,20.66-.75,29.62,11.48,11.42,24.32,21.48,36.7,32C1819.67,709.6,1823.75,712.22,1827.58,715ZM634.76,480.14c-1.83.63-3.68.76-4.83,1.73C608.82,499.61,587.38,517,567,535.56c-5.84,5.32-3.26,14.75,5.45,13,15.32-3.15,20.06,7.92,27,16,26,30.11,51.64,60.51,77.24,91,6.06,7.21,12.52,13.26,9.47,25.54-3.25,13.08,6.21,13.31,14.4,7.06,13.53-10.34,25.71-22.49,39.52-32.41,12.46-9,11.87-15.89,2.15-27-31.55-36-62.12-72.91-93-109.53-6.66-7.9-15.19-15-7.49-27.53C645.35,485.83,642,480.83,634.76,480.14ZM1043.7,492c17-3.17,32.79-7,48.83-8.84,15-1.68,18.57-7.8,15.56-22.48-8.59-42-15.66-84.36-23.53-126.53-10.64-57-10.73-57.05-68.39-45.09-7.64,1.59-18,.79-20.31,10.26-2.05,8.35,8.07,8.42,12.77,12.14,5.89,4.65,5.28,11.63,6.43,17.73,7.86,41.35,15.4,82.76,22.88,124.19,1.4,7.76,3.83,15.33-2.88,22.83C1021.88,491,1034.06,491.18,1043.7,492Zm391.59-3c6.67-1.73,19.83-3.13,11.42-11.1-15.88-15-8.23-29.35-5.38-44.53,6.46-34.29,13.62-68.45,19.69-102.8,9.29-52.55,15.51-39.61-36.31-52.39-16.32-4-23,.46-25.82,17.35-7.53,44.8-16.51,89.36-25.5,133.89-2.27,11.22-1.26,25.36-17.89,28.12-4.26.71-7.67,4.54-5.52,8.83a14.92,14.92,0,0,0,9,7C1384.33,478.89,1409.82,483.84,1435.29,489Zm429.61,247c-4.67-1.9-9-2.13-11.61,1.62-3.12,4.57-.94,9.23,1.91,13.45,9.54,14.12,19.82,27.81,28.33,42.53,7.24,12.54,13.89,12.06,24.88,4.38,35.25-24.62,71.12-48.36,106.84-72.3,49.15-33,49.22-32.93,13.94-82-4.1-5.71-6.86-14.61-15.59-13.42-9.15,1.25-5.12,10.29-6.73,16-2,7-8.35,9.64-13.61,13.2q-52.38,35.52-105,70.72C1881.17,734.86,1874.29,742.48,1864.9,735.93ZM865.63,559.4c13.29.66,25.69-2.93,37.71-8.08,4.95-2.12,12.3-3,10.54-10.68-1-4.26-4.67-10.75-7.84-11.2-21.22-3-25.22-21.09-32.53-35.84-15.12-30.51-29.56-61.35-44-92.17-3.63-7.75-10.16-15.4-3.3-24.78,3.17-4.33,3.95-9.07-.6-13s-9.25-.85-13.52,1.15C793.71,373.43,775.34,382,757.18,391c-6.22,3.09-15.44,4.66-15.14,13.66s9.59,6.42,15,8.93c7.28,3.34,9,11.13,12.15,17.57,15.53,32.11,30.75,64.37,46.27,96.49C825.59,548.53,841.78,560.12,865.63,559.4ZM602.9,809.72c1.47-8.72-3.46-11-7.26-13.68q-72.48-51.39-145.08-102.65c-5.5-3.9-10.79-7.86-16.32.09-11.57,16.66-23.76,32.92-34.74,49.95-5.67,8.79-4,18,8.59,13.57,11.91-4.14,18.48,1.8,26.25,7.26q48.78,34.32,97.4,68.87c9,6.39,19.87,11,18.47,25.82-.67,7.1,6.95,10.72,11.6,5.06C576.69,845.9,590.22,826.67,602.9,809.72ZM555.32,691.05c0-4.54-.37-9.32.06-14,1.92-21-6.89-36.41-25-46.12-18.85-10.09-36.5-5-52,7.68-8,6.59-15,14.79-21.38,23.08-3.94,5.1-12.64,10.14-5.43,18.5,5.42,6.28,11,2.1,17.35.09,17.1-5.41,55.78,19.74,54.63,37-1.18,17.63,2.76,19.75,18.63,14.7s58.93,23.34,61.35,39c1.11,7.16-6.18,17.93,6,19.94,11,1.8,13-10.48,17.52-17.23a106.69,106.69,0,0,0,13.54-28.32c5.88-19.66.37-37-15.07-50.53-16-14.07-33.91-18.23-54.06-9.06C566.59,688,562.55,693,555.32,691.05Zm980.57-228.13c.21,32.79,10.33,55.82,31.55,73.61,4,3.37,8.11,9.51,14.46,4.49,4-3.14,5.84-8.23,3.26-13.12-6.33-12-.32-22.08,4.56-32.24Q1615,443,1640.64,390.49c3.53-7.29,6.16-15.75,14.31-18.94,7.69-3,17.4-4.93,14.56-15.24-2.15-7.81-12.18-6.75-19.06-7.75-23.84-3.44-45.46,3.53-63.77,18.26C1554.58,392.65,1538.87,427.34,1535.89,462.92ZM1728.16,440c-1-30.26-9.58-54.8-32.82-72.4-3.55-2.68-7.55-7.7-12.54-3.6-3.64,3-6.8,7.95-4.09,12.92,5.88,10.78,2.28,20.16-2.51,30-17.06,35-33.76,70.22-50.79,105.26-4.22,8.69-7.78,18.43-17.56,22.49-6.92,2.87-15.72,5-13.31,14,2.21,8.25,12.08,6.88,19,7.92,24.69,3.7,47-3.06,65.85-18.81C1710.36,511.88,1725.25,477.67,1728.16,440ZM1975,853.56c41.63-3.94,78.8-26.68,101.71-70.38,11.12-21.19,11.2-43.78,1-65.77-2.23-4.77-4-11.69-11.62-9.9-4.88,1.15-9.07,4.73-8.75,10.28.87,14.91-9.9,21.25-20,28.07q-44.34,30.06-88.85,59.84c-8.82,5.93-17.71,12.43-29.07,6.7-6.42-3.24-11.49-1.14-14.66,4-4,6.44,2.09,10.53,5.73,14.36C1925.93,847.09,1945.59,853.27,1975,853.56Zm-1019-363c.27-12.48-3.78-23.79-9.09-34.84-12.6-26.22-25-52.53-37.55-78.78-4.2-8.81-7.63-17.53-6.72-27.83.74-8.32,14.09-16.2,4.41-23.61-10-7.66-19.05,4.33-28.52,7.49a78.51,78.51,0,0,0-17.34,8.6c-9.62,6.2-10.85,13.62,1.9,15.74,18.92,3.14,26.62,16.18,33.56,31.38q14.1,30.87,29.18,61.3c11.49,23.22,22,46.08-1.34,68.62-5.53,5.35-1.72,11.17,1.9,15,5.88,6.28,10.12,0,13.82-3.78C950.75,519,956.42,506,955.92,490.57Zm882.43,22.13c-33.1,22.18-63.58,42.65-94.12,63-8,5.37-15.94,10.77-25.62,13.4-8.73,2.38-22.11-9-25.53,4.18-2.85,11,11.58,16,18.71,23.22a72,72,0,0,0,15.08,12.13c7,4,15.5,1.74,12.32-6.75-8.39-22.35,8.32-28.27,21.17-37.1,18.67-12.83,37.4-25.58,56.38-37.93C1828,539.58,1836,530.51,1838.35,512.7ZM761.42,547.87c-8.89,2.48-9.63,7.31-7.32,13.54,7.17,19.28,13.1,38.46.75,58.15-2.34,3.74.4,7.69,3.37,10.74,3.39,3.48,6.53,2.67,10.71.74,32.82-15.18,37.4-33.22,14.82-59.7-4.73-5.54-9.18-11.33-14.1-16.69C767.06,551.84,763.72,549.73,761.42,547.87Zm422.06-93c-2.49-12.68-4.93-25.36-7.48-38-1.1-5.5-1.77-12.17-9.39-11.67-5.75.38-7,5.9-8,10.73-3.89,18.35-12.93,33-30.24,41.51-5,2.44-7.86,5.86-6.37,11.4,2,7.26,7.58,7.22,13.57,6.07,12.7-2.42,25.36-5.1,38.13-7C1181.76,466.64,1185.25,463,1183.48,454.87Zm-28.35-140.41c.11-44.18-7-50.22-49.33-41.73-2.39.48-4.83.63-7.23,1-6,1-11.27,2.87-10.65,10.47.57,7,5.11,9.3,11.58,9.74,17.68,1.19,30,10.9,39.32,25.27,2.67,4.13,5.29,8.75,11.18,7.24C1156.4,324.83,1155.19,319.25,1155.13,314.46Zm341.67-22.09c-19-2.78-22.18,6.66-16.88,16.64,7.55,14.22,10.28,28.6,10.25,44.16,0,5,1.34,10.25,7.13,11.23,7,1.18,10.23-4,11.55-9.78,2.5-11,3.21-22.6,6.82-33.22C1523.27,299,1513.16,291.84,1496.8,292.37Zm-154.55,28.27c-1.34,6-.93,12.24,5.35,14.45,8.28,2.91,11.1-4,13.64-10.13,4.06-9.74,7.93-19.63,16-26.88,6.53-5.85,16.87-10.75,13.3-20.94-3.9-11.14-16.71-7.16-25.51-10.06-9.58-3.16-13.12,2-14.6,10.6C1348,292,1345,306.32,1342.25,320.64ZM1144.38,395c-2.92-15.37-6.14-31.91-9.18-48.49-1.16-6.28-1.1-14.45-8.74-15.39-10.93-1.34-8.57,8.74-10.69,15.14a51.75,51.75,0,0,1-7.83,14.65c-7.38,9.72-6.43,18,3.94,24.08a45.23,45.23,0,0,1,16.57,17c2.44,4.2,5.39,8.63,11.22,6.58S1144.4,400.91,1144.38,395Z"/><path class="cls-1" d="M193.6,1246.44c-.75-101.37,14.62-200.37,42.25-297.76,4.9-17.27,11.28-21,28.92-15q159.81,55,320.46,107.6c14,4.62,19.2,8.44,14.48,24.93q-55.61,194.46,4.64,388c4.46,14.27,1.51,19.27-12.5,23.87-107.09,35.11-214.08,70.54-320.59,107.34-18.85,6.51-23.4.33-28.41-15.57C209.68,1464.56,192.76,1356.88,193.6,1246.44Zm170-115.3c0,52.11,0,52.12,35.09,48.89,5.31-.49,12.35,1.35,13.32-6.72,1.08-9.08-5.34-10.34-12.46-10.52s-14.86.61-15.91-10.12,5.06-12.27,13.75-15.24c10.9-3.72,10.15-12.62-.67-16-7.79-2.45-13.91-3.61-12.84-13.35,1.05-9.59,8.65-7.78,14.73-8.28s11.28-1.65,11.24-9.44c-.05-8.14-5.8-7.94-11.59-8.72-31.26-4.24-34.64-1.4-34.66,30.1Q363.6,1121.44,363.61,1131.14Zm19.92,172.23c10-.1,19.63-1.44,25.4-11,6-10,5.92-20.73-.62-29.87-6-8.45-14.36-15.25-21.45-23-3.74-4.08-9-8.8-4.26-14.58s8.13.56,11.82,3c5.31,3.5,11.51,4.23,15.08-1.21s.07-11-4-15.28c-10.73-11.26-23.43-11.58-34.93-2.8-13.33,10.17-12.27,24.4-3.77,36.88,6.28,9.21,15.62,16.3,23.22,24.67,3.3,3.63,5.93,8.45,1.12,12.74-5.28,4.71-8.76.86-11.25-3.69-4.15-7.59-10.88-8.13-16.16-3.44-7.45,6.61-.94,13.25,2.95,19S376.91,1302.41,383.53,1303.37Zm-6.9,76.36c0,10.82-.13,19.73.06,28.64.09,4,0,8.3,1.52,11.77,1.86,4.2,6.63,4,10.7,3.57,9.89-1,6.78-8.89,8-14.8,4.86-23.54-12.7-51.44,14-71,2.86-2.1.95-9.3-3-10.22-14.2-3.29-28.87-3.8-42.92.28-5.52,1.6-4.78,11.23-2.07,12.23C385.47,1348.53,373.14,1367.6,376.63,1379.73Z"/><path class="cls-1" d="M2304.89,1249.34A1077.32,1077.32,0,0,1,2255,1570.21c-5.11,16.26-10.51,21.48-28.83,15.16-105.72-36.5-211.88-71.76-318.15-106.61-14.26-4.67-16.69-9.9-12.3-24q60.78-194.23,4.49-390.1c-4.18-14.49-.55-19.15,13.24-23.69Q2074,988.21,2233.81,933.4c18.6-6.42,23.4-.35,28.15,15.94A1076.55,1076.55,0,0,1,2304.89,1249.34Zm-121.25-48.14-1.4,0c0-9.64.76-19.37-.18-28.92-1.39-14-9.72-21.75-24.1-21.77-14.18,0-23.67,6.92-24.29,21.29a593.12,593.12,0,0,0,.42,60.23c.79,13.5,10.58,19.16,23.41,19.31s22-5.66,24-18.86C2183.1,1222.16,2183,1211.62,2183.64,1201.2Zm-25.27,155.34c-8.17-4.4-8-19.58-20.44-14.2-5.66,2.45-4.42,8-3.77,12.67,1.56,11.35,9.05,17,19.65,18,5.36.51,11.67-.18,16.34-2.63,16.64-8.73,17.36-54.89,1.91-65.29-5.73-3.86-17.7,2.07-17.48-8.07.22-10.54,11.37-5.13,17.61-6.93,3.48-1,6.3-2.77,6.32-6.14,0-2.8-1.35-7.64-3-8.09-11.8-3.1-26.9-6.46-35,.83-11.21,10.1-5.53,27.56-4.38,41.38,1.11,13.27,10.74,6.84,18.1,3.54,6.27-2.81,9.13,1.35,9.17,6.92C2163.48,1337.14,2166.25,1346.21,2158.37,1356.54Zm-76.65-188.62c6.87,11.56,1.55,20.23-2.9,28.37-5.81,10.62-13,20.47-19.11,30.94-8.63,14.86-7.83,24.91,13.15,23.59,4.83-.3,9.71.1,14.55-.1,6.24-.25,14.41,1.37,15.47-7.5,1.36-11.33-8.09-9.57-15-10.39-3.14-.37-6.52-.6-6.81-5.92,7.05-13.53,17.91-26.06,22-41.9,2.79-10.68,2.25-21.18-7-28.92-7.39-6.19-16.13-7.28-25.11-3.75s-14.43,10.28-15.25,20.06c-.42,5,.36,9.44,6.78,10.79C2074.12,1185.62,2072.61,1172.58,2081.72,1167.92Zm8.52,155.93c0-10.48.43-21-.16-31.43-.38-6.64,3.82-16.32-5.73-18.73-8.29-2.09-15.47,4.77-21,10.09-8.44,8.07.2,11,5.63,15.92,3.17,2.89,2.66,10.42,2.79,15.9.35,13.69,0,27.4.19,41.11.1,7-1.46,16,9.76,15.48,9.26-.39,8.38-8.14,8.46-14.49C2090.31,1346.42,2090.2,1335.13,2090.24,1323.85Z"/><path class="cls-1" d="M712.58,877.25c.27-1.6.17-3.39.87-4.76,6-11.72,14.89-26.71,27.22-23,12.57,3.75,6.68,21.09,6,32.66-.63,11-2.26,22.17-9.41,32.32-14.14-9.18-13.94-27.2-25.12-37.44Z"/><path class="cls-1" d="M713.67,1030c-7.45-14.38-30.46-19.2-9.09-38.69,6.11-5.56.34-20.44,6.38-29.78,4-6.23,8.73-12.57,17.3-8.78,8.21,3.64,4.82,10.16,2.89,16.48C725.55,987.61,720.46,1006.19,713.67,1030Z"/><path class="cls-1" d="M695.91,912.75,689.56,930C687.09,921.14,691.39,916.26,695.91,912.75Z"/><path class="cls-1" d="M700,889.67l6.36-6.92-.35-.37-6.09,6.85Z"/><path class="cls-1" d="M699.92,889.23l-.16,6.45c.14-1.15.34-2.3.42-3.45a14,14,0,0,0-.12-2.47A2.81,2.81,0,0,1,699.92,889.23Z"/><path class="cls-1" d="M706.36,882.75c2.06-1.83,4.12-3.67,6.2-5.5,0,0-.41-.26-.4-.26-2,1.79-4.09,3.58-6.15,5.38Z"/><path class="cls-1" d="M1601.57,1551.15l8.43,5.64c-.79.94-1.57,1.89-2.32,2.87l-11.34-3.11Z"/><path class="cls-1" d="M1610,1556.79c1.72,1.62,6.22,2.37,4,5.31-1.71,2.3-5.14.92-6.37-2.44C1608.43,1558.68,1609.21,1557.73,1610,1556.79Z"/><path class="cls-1" d="M1377,959c2.13-18.93,10.34-19.06,22.84-9.23,19.56,15.39,45.9,14.76,66.79,27.19,3.83,2.28,5.76.74,7.64-2.21,12.17-19.13,34.65-12.37,51.61-19.79,7.82-3.42,15.49,6,19.29,15,15.45,36.42-1.07,80.86-38.4,95.7-48.1,19.13-96.33,16.55-139.56-12.84C1316,1018,1309.72,966,1319.43,909.66c7.58-43.94,36.93-66.51,77-78.45a54.78,54.78,0,0,1,14.32-2.46c8.78-.16,20.06-2.61,24.63,6.07,4.39,8.32-7.26,13-10.79,20.56,10.73,6.54,15.8-2,21.21-8,17.48-19.64,70.7-11.22,81.83,13,2.11,4.6,4.6,9.39-.47,13-10.2,7.35-5,17.05-3,28.35-21-7.62-39-17.07-59.12-19.42-28.36-3.3-53.51,3.17-78.9,17.56C1355.72,917.15,1351.86,928.1,1377,959Z"/><path class="cls-1" d="M2165.34,1200.22c-4.87,11.62,5,30.75-7.21,30.92-13.15.19-6.11-18.62-6.18-28.65-.08-11.18-6-32.23,5.44-31.84C2172.31,1171.14,2158.1,1191.43,2165.34,1200.22Z"/></svg>