<svg id="Layer_1" data-name="Layer 1" xmlns="http://www.w3.org/2000/svg" viewBox="0 0 1734.49 2231.47"><defs><style>.cls-1{fill:#a62b2a;}</style></defs><path class="cls-1" d="M816.82,452c4.83-21.3,9-40.6,13.6-59.8,11.52-48.35,35.59-90.44,65.32-129.6,6.07-8,13.37-8.93,21.7-2.28,24.87,19.86,49.95,39.44,75,59.11,8.93,7,10.9,15.86,4.15,24.79-11.33,15-23.5,29.34-35.57,43.75C917.4,440,898.14,502.11,887.05,567.5c-3.91,23-9.5,25.6-29.89,14.14-47.38-26.63-98.08-45.11-150.93-57-29-6.5-58.77-10-88.33-13.78-48.75-6.26-85.89,16.56-119.1,48.92-47.23,46-79.47,101.07-98.84,163.81-17.15,55.51-36.92,110.46-49.85,167-13.65,59.64-20.62,120.81-30.43,181.32-2.35,14.47-3.94,29.09-6.68,43.48-15.39,81-9.53,162.09-.74,243,4.74,43.65,9.82,87.66,20.08,130.22C352.26,1571.22,406,1621.74,488,1645c91.82,26,176.41,10.25,256.1-38.61,47.79-29.29,93.31-62.42,142-90.11,55.9-31.79,117-48.39,182-46.76,15.62.39,31.35,3,46.65,6.26,5.37,1.16,9.62,7.52,14.38,11.51-4.45,4.31-8.15,10.59-13.47,12.6-25.88,9.8-55.34,13.7-77.69,28.51-48.3,32-93.86,68.36-139,104.85-56.27,45.49-110.88,93-166.4,139.46-57.13,47.77-123.59,62.56-196.78,58.41-96.47-5.47-178.35-45.25-255.29-100.08-66-47-115.71-107.82-145.93-181.62-19.87-48.51-30.79-101.26-40.88-153.05-13.72-70.41-24.63-141.5-33.2-212.72-4.74-39.37-1.91-79.62-3.09-119.46C55.14,988.06,68,913.51,82.35,839.43,102,738,129.34,638.37,166.27,541.77a615.06,615.06,0,0,1,46.62-95.84C252.67,379.55,311.82,344,390.3,342c58.9-1.53,117.51.05,175.67,10.48,82.51,14.81,158.48,46.65,230.73,88.25C802.89,444.28,809.16,447.69,816.82,452Z"/><path class="cls-1" d="M1677.35,1079.81c.28,105.41-23.66,205.92-54.75,305.57-33.28,106.65-79.55,207.33-134.72,304-21.29,37.32-44.13,74.52-79.83,100.23-59.08,42.55-124.34,50.43-192.84,28.06-64.75-21.14-128.86-44.2-193.3-66.28-55.1-18.87-109.55-12.48-163.56,4.92-12,3.86-23.45,9.33-35.54,12.66-4.72,1.3-10.5-1.26-15.8-2.06,1-5.23.35-11.93,3.37-15.45,33.67-39.18,69.13-76.86,118.82-95.63,42.71-16.15,87.35-16.75,131.89-8.72,35,6.32,69.48,17.21,104.72,20.78,50.9,5.16,100.67-.94,142.63-35.15,28.91-23.58,40.64-57.19,49.33-91.14,14.15-55.32,29.81-110.85,36.63-167.29,7.32-60.53,14-121.64,5.48-183.51-11.45-82.57-17-165.94-28-248.58-15.14-113.81-67.24-205.56-169.83-263.12-46.72-26.21-94.49-21.54-138.92,6.41C997.29,727,958.07,788,939,862.6c-.65,2.54-.6,5.56-2,7.55-3.33,4.68-7.34,8.88-11.07,13.27C922.13,879,916.49,875.11,915,870c-7.19-24.08-10.82-49.51-20.41-72.5s-22.94-44.62-37.8-64.51c-14-18.76-31.56-35.06-48.68-51.26-10.73-10.14-10.16-18.25-.3-27.68,12.52-12,25-24,37.3-36.17,7.59-7.52,15-8.42,23.51-1.33,11.29,9.4,23.18,18.06,34.38,27.55,8.22,7,12.34,4.92,15.79-4.64q14.91-41.38,30.69-82.46c10.67-28,28.15-51.14,49.73-71.76,61.42-58.69,134.18-94.9,217.76-107.88,60.61-9.4,115.54,6.92,163,45.86,29.59,24.26,59,48.82,87.06,74.84,48.72,45.22,83.25,101.27,113,159.77,24.38,47.95,47,97.21,65.14,147.76,10.78,30,11.86,63.68,16.46,95.82,3.33,23.3,5.75,46.76,7.74,70.21C1672.4,1007.66,1674.72,1043.75,1677.35,1079.81Z"/><path class="cls-1" d="M754.68,150.67c3.2,4.91,6.08,10.06,9.65,14.68,14.42,18.68,30.37,36.32,43.32,55.94,22,33.27,33.61,69.36,25,110.23-10.66,50.46-45,72.38-94.1,59-30.16-8.21-54.86-25.14-71.71-50.74-30.23-45.92-58.49-93.13-87.35-139.95-22.69-36.83-53.07-64.44-93.57-80.68-20.71-8.31-22.28-15.41-6.73-31.94C495.68,69.68,512.85,52.68,530.29,36c17-16.24,38.87-22.62,61.11-26.92C646.51-1.58,702.1-4.37,756.87,9c11.36,2.78,23.28,16.58,28.61,28.21,14.56,31.81,26.41,64.94,38,98,7.27,20.7,12.86,42.07,17.67,63.48,1.33,5.93-2.86,13.1-4.51,19.7-5.79-3.15-12.74-5.16-17.13-9.67-14.25-14.64-27.23-30.49-41.36-45.25-5.86-6.12-13.37-10.65-20.14-15.91Z"/><path class="cls-1" d="M1320.68,2106.58c3.83-4.82,9.45-11.8,15-18.87,12.54-16.07,24.6-32.55,37.84-48,2.81-3.27,10.78-5.33,14.79-3.8,17.31,6.57,26.88,33.4,19.54,50.56-7.26,17-17.91,29.34-37.73,31-5.72.47-12.46.23-16.76,3.18-4.92,3.37-7.65,9.94-11.32,15.12,4.51,3.15,8.77,8.56,13.58,9.09,25.9,2.85,49.85-4.9,72.45-16.73,3.82-2,7.88-7.88,8-12,1-50.77,1.63-101.55,1.6-152.33,0-25.64-2-51.29-2.28-76.94-.12-12.13,10.88-19.7,26.93-21.07,12.6-1.07,15.78,7,18.71,16.82,3.68,12.29,2.13,22.4-4.73,33.92-7,11.78-12.42,26-13.58,39.54-3.77,44.31-5.33,88.81-7.56,133.24-.17,3.45,1,7,2.14,13.9,5-4.52,8.42-7,11.19-10.11,7.72-8.56,14.54-18.05,23-25.78a52.9,52.9,0,0,1,20.21-11.22c13.4-3.9,27.16-2.9,34.48,10.91,7.57,14.29-5,21.75-13.37,30a37.84,37.84,0,0,1-7.72,5.39c-22.51,13.15-22.9,15.64-7.65,36.33,22.31,30.29,53.77,47.48,87.34,61.76,2.65,1.13,5.21,2.45,8.39,3.95-20.07,9.22-35.54.51-51.49-8.58-32.19-18.33-66.43-33.46-93.18-62.72,8.83,19,12.1,36.58-8.66,48-5,2.75-13.92,3.7-18.4,1-15.92-9.45-12.06-24.38-3.6-42.64-7.73,4.11-11.16,5.1-13.43,7.28-18.5,17.76-41.29,24.23-66,25.21-31,1.21-33.67-1-43.71-34.27-4.94,3.66-9.59,6.47-13.5,10.1-22.92,21.32-50.91,25.64-80.53,24-14.45-.81-23.69-7.67-23.55-23.66,0-3.44-1.19-6.88-2.28-12.73-10.5,7.69-19.38,14.47-28.55,20.83-10.43,7.23-21.65,12.41-33,2.43s-7.41-21.91-2.24-33.18c4.35-9.48,10.38-18.23,14.27-27.87,1.61-4,1-12.57-1.09-13.57-4.28-2-11.54-2.06-15.37.45-6.36,4.17-11.44,10.63-16.26,16.76-37,47-78.93,88.48-139.37,101.59-25.76,5.58-55.08,6.75-80.26.21-38.15-9.93-46.56-45.79-52.57-80.46-4.9-28.31,10.41-51.92,18.43-76.77,13.19-40.88,36.59-77,62.38-111.22,6-8,16.72-12.25,24.25-19.31,13.31-12.49,25-26.86,38.92-38.53,21.44-17.94,31.32-14.67,43.56,10.52,5.91,12.16,14.16,23.18,20,35.37,3.06,6.39,4.26,14.14,4.48,21.33.44,14.71-8.79,22.31-22.25,17.45s-23.89-1.42-35.51,4.86c-7.33,4-16.5,4.51-24.86,6.52-2,.47-4.77-.08-5.92,1.09-24,24.38-60.24,36.22-74.63,70.29-15.59,36.93-29.29,74.19-9,114.52,10,19.84,25.22,28.16,46.59,28.38,36,.37,68.29-12.42,97.93-30.43,24.42-14.84,46.49-33.7,68.82-51.75,9.78-7.91,16.6-17.85,14.72-32.76-.6-4.79,7.93-13.15,14-15.65,5.56-2.28,14-.1,20.23,2.36,8.82,3.45,16.37,10.33,25.27,13.31,15.12,5.05,19.2,12.65,12,27q-8.32,16.62-16.59,33.25l6.48,4.76c7.13-6,15.49-11,21.16-18.16,20.46-25.85,39.93-52.47,60-78.67,6.56-8.58,14.26-8.14,21.45-.89,10.12,10.19,20.08,21.09,16.3,37-4.22,17.83-11.16,34.22-31.83,38.87a174.1,174.1,0,0,1-20,3.81c-10,1-15.65,6-15.57,16.08.09,11.3,9.07,9.35,16.08,9.95,28.5,2.46,53.48-8.67,77.66-21.43C1318.33,2121.94,1318.43,2113.69,1320.68,2106.58Z"/><path class="cls-1" d="M418.74,2142.81C440.55,2107.69,477,2091,509.11,2069c2.6-1.77,5.69-3.23,7.54-5.63,7.37-9.53,16-14.67,29.93-7.18.46-7.1,1.12-12,1-17q-.89-59.74-2-119.49c-.1-5.19-1.39-10.35-1.4-15.53,0-4.17,1.07-8.34,1.67-12.52,4.39.83,9.59.41,13,2.67A69.93,69.93,0,0,1,579.44,1991c-16.89,26.16-18.71,56.46-20,86.32-1.12,26.71-1.16,53.58.34,80.26.81,14.41,6.24,28.5,8.85,42.87,2.15,11.87,5.25,28-9.61,30.67-17.85,3.18-15.87-15.71-16.42-26.07-.9-17.1,2.37-34.4,3.22-51.64.26-5.27-.19-14-2.94-15.24-4.86-2.15-12.49-1.36-17.62,1-17.06,8-32.94,18.71-50.35,25.7-18.27,7.32-37.65,9.7-57.5-5.47-1.24,10.83-2.29,20-3.39,29.68-15.7-9.57-15.7-9.57-33.59-74.08-14.83,9.86-30.75,17-42.05,28.61-30.64,31.53-67.4,52.39-109.27,61.82-21.82,4.91-46.55,4.38-68.49-.44-35.21-7.74-48.73-37.29-54.33-69.88-3.24-18.87-4.3-37.38,5-56.57,11.76-24.23,16.62-51.85,28.73-75.86,12.38-24.55,27.74-48.41,45.82-69,19.33-22,42.59-40.93,65.57-59.4,19.08-15.34,29.1-11.33,38.69,11.2,2.42,5.68,7.56,10.21,10,15.9,5.64,13.3,12.16,26.61,15,40.6,3.21,15.69-7.35,22-23,20-10.85-1.38-22.5,2.38-33.62,4.68-5,1-9.53,6-14.26,6-28.85-.2-42.86,24.35-63.2,37.82-21.6,14.3-32.29,36.79-39.08,62.3-7.64,28.68-11.34,55.9.67,84.16,9.35,22,26.15,30.3,48.55,30.23,35.22-.11,67.66-11.53,96.26-30.39,30-19.78,57.86-43,85.41-66.21,9.61-8.09,17.55-9.55,28.33-5.32,26.85,10.53,26.87,10.4,20.85,39.25C420.8,2130.57,419.84,2136.71,418.74,2142.81Zm38.18,3c13.54,7.34,52.62-8.2,66.4-26.4C507.18,2110.52,473.57,2123.88,456.92,2145.84Z"/><path class="cls-1" d="M398.07,273.09c13.15-41.18,26.84-84.35,40.85-127.42,1.24-3.8,4.19-7.25,6.94-10.33,15.22-17,19.3-17.58,38.24-5.41,39.35,25.25,72.61,56.49,95.47,97.8,2.5,4.52,5.22,9.41,5.8,14.37.66,5.68.89,13.11-2.21,17-2.06,2.55-11.07,1.82-15.61-.32-45.49-21.46-86.56-11-125.5,16.36-6,4.21-11.24,9.59-17.53,13.21-5.39,3.11-13.29,7.66-17.3,5.75C403,292,402.07,283.11,398.07,273.09Z"/><path class="cls-1" d="M768.73,982.64c24.07,3.5,42.06,21,55.62,43.74,20.09,33.73,30.35,71,37.94,109.2.82,4.11,1.11,8.4,2.51,12.31,2.78,7.79,5.69,16.72-3.93,20.17-5.38,1.93-14.62-.18-19.23-4-31.53-25.91-62.92-52.07-93.1-79.52-20.86-19-28.1-43.38-20.88-71.53C732.28,995.07,746.46,983,768.73,982.64Z"/><path class="cls-1" d="M702.27,2121.08c-20.55,35.7-78.9,59.87-113.35,49.67-12.53-3.71-15.45-12.74-15.39-24.13.06-12.7,0-25.39,0-38.21,5-6.27,10.94-13.58,16.73-21,12.54-16,24.51-32.52,37.9-47.79,3-3.36,14.37-5,15.88-3,8.07,10.88,19,22.82,19.92,35,1.23,17-6.79,34.25-25,41.64-8.54,3.45-18.9,2.54-27.22,6.3-5.9,2.67-9.77,9.84-14.54,15,4.69,3.44,9.07,9.27,14.12,9.91,26.49,3.38,50.35-5.93,73.59-17.44C689.55,2124.85,694.78,2123.66,702.27,2121.08Z"/><path class="cls-1" d="M685.84,2114.53c2.59-5.82,5.84-11.45,7.62-17.51,2.37-8.06,2.4-17,5.7-24.53,2.6-6,7.75-12.86,13.38-14.94,6.23-2.3,14.85-1.07,21.46,1.31,9.41,3.41,17.55,10.29,26.94,13.83,13.69,5.15,17.72,13.13,11.1,26.72-5.48,11.24-11.26,22.34-18.57,36.8,25.51-3.61,31.63-22.4,43.09-34.83l4.64,2.81c-6.05,10.6-10.78,22.31-18.52,31.5-7.61,9-17.82,16.17-27.71,22.94-9.08,6.2-19.61,8.73-29.15.62-9.33-7.92-9.49-18.46-5-28.78,5-11.45,11.51-22.24,16.51-33.69,1.56-3.57,1.57-11.48.25-12-4.78-1.8-12-3.53-15.42-1.18-7.15,4.86-12.55,12.32-18.58,18.79-4.61,5-9.08,10-13.62,15.07Z"/><path class="cls-1" d="M380.84,2035.91c-.34-12.14,7.75-18.71,23.53-19.09,13.11-.31,26.84,14.39,23.55,30.78-1.92,9.57-11.87,19.77-20.92,25C399.05,2077.15,381.3,2051.61,380.84,2035.91Z"/></svg>