<svg id="Layer_1" data-name="Layer 1" xmlns="http://www.w3.org/2000/svg" viewBox="0 0 6882.09 2226"><defs><style>.cls-1{fill:#f4b23e;}</style></defs><path class="cls-1" d="M1211,270.19c128.43,4.24,231,15.15,328.49,55.5,275.17,113.84,371.44,421.14,210.26,672.68-124.41,194.16-309.41,301.11-525.59,360.65-183.54,50.55-368.11,97.39-552.23,145.88-5,1.3-10.48,4.74-14.75,3.57-19-5.25-37.65-11.81-56.43-17.9,10.8-15.27,18.2-36.7,32.94-44.82,100.5-55.38,103.9-63.33,73.69-174.14C653.18,1073,600.35,874,547,675.09c-1-3.71-1.93-7.43-3-11.13-28.48-101.18-50.68-113.12-151.17-82.24-10.77,3.31-23.24,7.46-33.33,4.92-11.08-2.8-25.86-11.16-28.74-20.32-2.61-8.28,6-24.54,14.39-30.91,18.21-13.76,38.74-25.11,59.65-34.52C606,410.35,812,333.48,1029.45,292.14,1097.05,279.29,1166.35,275.4,1211,270.19Zm300,610.83c-11.75-59.91-18.79-121.22-36.07-179.49-80.69-272.1-332.17-397.16-590.71-296.3-55.62,21.7-69.19,39.83-56.38,95.07,23.65,101.94,50.67,203.12,77.62,304.27,35.52,133.29,70.63,266.74,109.16,399.19,27.14,93.24,78.51,121,170.8,99.6C1375.4,1259.38,1501.8,1092.52,1510.94,881Zm-787,549.81c17.1-4,23.08-4.47,28.31-6.72,56.74-24.41,78.58-77.52,58.94-151.88Q726.58,951.91,639.36,632.28c-6.9-25.24-19.46-50.34-34.87-71.52-26.24-36.1-80.12-45.57-119.29-23.15,60.4,9.26,73.93,57.42,86.39,102.69Q661.54,967.2,748,1295C759.59,1339,774.87,1385.44,723.94,1430.83Zm627.82-175.89c209.37-107.28,318.74-369.45,207-638.75-94.51-227.73-348.32-307.17-482.83-274.9,240.63,17.14,377.92,155.62,442.09,372.16C1581.42,927.47,1535.34,1113.22,1351.76,1254.94Z"/><path class="cls-1" d="M2785.18,0C2940,3.2,3119,47.81,3266.35,178.09c240.12,212.35,234.45,556.29-12,766.28-175.79,149.76-384.87,194.46-609.54,181-137.36-8.24-267.41-42.66-383.73-120-280.27-186.47-314.69-550.74-74.17-787.53C2333,74,2520.12,1.36,2785.18,0ZM3098.3,637.2c-1.59-179.55-53.3-330.84-151.67-443.73C2776.21-2.12,2505.68,39.36,2408,279.09c-66,162-52.87,325.93,11.93,485.72,46,113.35,118.08,206.48,230.76,261.32,156.17,76,326.16,14.2,399.27-142.91C3086.34,805.06,3099.9,722.69,3098.3,637.2Zm-692.48-528c-178.06,67.26-382.7,305.6-329.46,570,50.9,252.78,327,393.8,482.16,399.87-64.06-32.83-136.27-65.25-203.79-105.52-94.06-56.11-163.91-136.34-196.2-242.29-62.23-204.19-11.32-381.12,139.15-530C2329.69,169.58,2366.34,142.58,2405.82,109.22Zm573.44,922.48c139.23-61.79,244.31-290.24,223.25-479.88-25.86-232.93-176-442.41-345.83-477.45,170.64,102.51,252.19,259.93,275.73,450.41C3155.91,715,3137.09,894.21,2979.26,1031.7Z"/><path class="cls-1" d="M5883.24,301.72c122.3,3.72,252.15,47.48,374.38,115.87,40,22.4,51.11,49.87,39.75,93.67-13.16,50.74-27.21,101.39-44.46,150.83-4.93,14.13-25.25,35.43-33.36,33.35-18.26-4.69-40-18.64-48-34.88-10.84-21.9-10.56-49.45-14.34-74.68-17.57-117.43-87.95-186.49-207.08-194-42.16-2.67-88.44,1.29-127.28,16.46-83.28,32.51-101,136-33,194.53,57.89,49.84,124.69,89.17,185.61,135.68,57.72,44.08,119.3,85.58,168,138.51,134.95,146.63,65.39,349.9-48.6,443.57-91.22,75-198.71,97.84-313.16,90.07-149.39-10.15-287.41-60.25-417.62-131.68-102.18-56.07-107-72-73.57-184.24,10.6-35.55,20.8-71.24,32.75-106.33,8.07-23.7,19.48-46.64,50.95-42,28.28,4.14,41.05,23.47,44.06,50.49,2.13,19.06,4.71,38.09,6.16,57.2,8.87,116.67,68.69,195.54,177.26,237.07,73.37,28.06,149.06,38.89,225.54,14.94,111.36-34.87,145.89-151.76,65.73-236.61-49.64-52.54-110.41-94.64-166.74-140.75s-117-87.75-169.53-137.88C5416,656.56,5443.44,459.46,5613.29,362.32,5680.53,323.86,5772.88,301.53,5883.24,301.72Zm10.53,34.7c-95.56-7.49-186.12,6.91-267.51,59.42C5483,488.29,5465.4,660.6,5589.83,777.73c48.18,45.35,103.64,82.89,154.65,125.34,63.66,53,133.45,100.95,187.43,162.62,81.56,93.17,37.76,229.59-80.92,267.82-39.67,12.78-83.54,12.53-125.49,18.24,39.46,7.81,80,12.94,119.63,9.16,82.74-7.88,150.36-43.77,183.37-124.69,31.73-77.78,8.92-147.57-47.41-203.89C5932.53,983.78,5878,941,5824.45,897.69c-62.55-50.63-129.12-96.51-189.71-149.31-51.43-44.82-78.52-103.42-66.59-174.68,19.6-117.13,98.52-177.32,204.24-209.77C5811.94,351.78,5853.26,345.42,5893.77,336.42Zm210.16,60.28-7.72,6.15c75.09,53,97.44,130,102.72,216.45,9.12-17,13.81-33.58,18.1-50.23,25.95-100.77,20.3-112.57-74.83-155.94C6129.57,407.37,6116.69,402.17,6103.93,396.7Zm-698.31,834.9c-17.65-62.62-36.07-127.93-52.46-186.08C5306.8,1158.94,5299.24,1179.06,5405.62,1231.6Z"/><path class="cls-1" d="M4463.31,1136.11c-214.48-7.65-399.38-29.38-562.4-135.52-134-87.23-231.19-203-257.53-365.27-30.9-190.39,47.66-336.9,195.12-450.52C3973.74,80.61,4131.21,35.9,4299,23.75c148.7-10.78,293.28,13.88,435.09,56.82,69.56,21.07,81.65,38.22,85.63,112.27,1.79,33.22,5.3,66.44,5,99.63-.4,39.95-31.78,56.6-65.75,35.52-11.64-7.22-21.67-17.93-30.43-28.68a535.46,535.46,0,0,1-35.74-49.88c-50.28-78.63-113.65-139.49-211.54-149.3-121.67-12.19-235.65,8.72-330,92.56-137.76,122.39-177.19,282.51-167,458.75C3990,753.55,4024,847.06,4090.91,925.71c151.44,178,416.15,177.88,569.28.87,17.57-20.32,32.32-44.09,53-60.33,14-11,38.53-19.08,53.92-14.29,11.08,3.45,19.15,29.9,20.8,46.84,2.05,21.14-2.77,43.25-6.54,64.6-19.37,109.59-39.7,132.76-149.73,153C4567.78,1128.15,4502.38,1131.73,4463.31,1136.11Zm-232-1069.25C4038.48,93.52,3868.86,164,3753.12,329.5c-62.79,89.78-85.73,190.57-68.1,299.31,38.39,236.79,252,395.49,455.82,437.82-17.52-9.11-28.83-14-39.08-20.47-64.54-41.1-133.79-76.61-192.33-125-189.1-156.43-220.3-415-78.26-609.71,75-102.83,176.76-169,295.36-210.86C4161.12,88.34,4196.38,78,4231.34,66.86Zm482,863.53c-45,69.49-110.77,111.17-192.71,142.86C4652.91,1086,4708.05,1044.35,4713.36,930.39Zm-82-819.23c37.3,45.07,76.24,92.13,114.72,138.61C4759,155.91,4728.29,119.62,4631.31,111.16Z"/><path class="cls-1" d="M2847.39,1990.2c-10.13-.76-21,.52-30.17-2.93-7.16-2.72-16.41-11-16.78-17.33-.35-5.87,8.68-14.3,15.52-18.23,21.09-12.12,51.92-17.42,62.39-35.16,11.37-19.27,5.39-49.55,4.76-75-2.56-103.55-6.16-207.07-9-310.6-1.91-69.79-5.87-73.55-74.41-79.38-10.22-.87-19.63-11.31-29.42-17.33,8.91-7.68,16.87-20.35,26.88-22.25,65.18-12.36,130.54-24.48,196.33-32.73,118.68-14.88,237.61-18.54,352.87,20.67,39.48,13.43,79.25,30.86,113.3,54.51,130.16,90.4,150.44,254.44,47.24,375.07-79.2,92.56-185.16,134-303.27,145.63-59.66,5.89-120,5.63-180,6.69-58.69,1-117.4.23-176.1.23C2847.46,1984.79,2847.43,1987.5,2847.39,1990.2ZM3051.13,1668l4.93.08c3.07,67.63,5.48,135.31,9.44,202.89,2.79,47.68,25.52,69.61,73,70.32,51.23.77,98.91-12.44,139.39-45,92.22-74.24,111.64-174.44,92.26-283.5-23.36-131.45-130.56-210.07-259.62-197.2-50.06,5-59.15,14.67-59.34,64.76C3051,1542.87,3051.13,1605.43,3051.13,1668Zm-145.76,279.07c24.15-7.5,36.45-30.38,35.61-59.26q-5.7-197.22-13.8-394.37c-1.22-29.66-18.47-48.62-41.09-53.91C2904.72,1607.45,2905.19,1776.32,2905.37,1947.05Zm358.11-522.53c93.47,59,131.63,140.73,137.15,239.13,5.48,97.54-25.6,181.09-102.74,245.49,100.65-52.65,149.45-155.7,136.23-278.62C3425.12,1546.82,3361.39,1449.24,3263.48,1424.52Z"/><path class="cls-1" d="M5159.69,1871c48.75,22.83,62.6,62.42,75.31,103.21,14.45,46.41,29.9,92.51,45.21,138.64,11,33.1,22,65.82,59.9,79.62,6.18,2.25,8.3,15.66,12.3,23.92-8.82,3.08-18.48,10.22-26.35,8.62-60-12.28-120.31-24.18-179.05-41.24-14-4.06-27.07-25.55-32.69-41.75-26.42-76.1-48.47-153.74-75.79-229.49-7.58-21-25.22-40.79-43.15-54.94-16.73-13.2-33.76-6.18-39.19,18-12.08,53.65-25,107.12-37.2,160.74-7.8,34.17,9.93,51.69,39.46,64.56,11.63,5.07,19.3,19.22,28.77,29.24-13.41,2.6-27.79,9.7-40.08,7.07q-136.83-29.28-272.76-62.67c-11.88-2.94-21-17.21-31.35-26.23,12.18-4.32,24.87-13.37,36.44-12.12,42.2,4.57,60.85-16.5,69.57-54.18q44.11-190.63,89.5-381c8.15-34.39-3.83-55.87-36.95-69.3-11.76-4.77-19.61-19.22-29.25-29.25,13.53-3.35,28.23-12,40.42-9.24,129.79,28.91,259.85,57.13,388.31,91.25,41.73,11.08,85.19,32,117.11,60.41,80.7,71.92,50.08,186.2-54.67,214C5233.19,1866.88,5200.65,1866.51,5159.69,1871Zm-121.81-48.12c14.5,0,19.61.16,24.71,0,70.57-2.51,112.27-41,115.75-106.71,3.34-63.06-41.39-115-106.41-123.35-27.75-3.57-47.72,6-55.15,34.6q-19.26,74-37.76,148.11c-7.09,28.49,4.38,44.17,33.86,46.1C5024.33,1822.38,5035.81,1822.8,5037.88,1822.91Zm-296,230c36,.12,52.51-21.19,59.39-49.66q47.23-195.43,91.87-391.5c6.84-30-2.77-55-34.59-69.08C4866.9,1592,4775.23,1993.81,4741.91,2052.9Zm301.32-203.54-5.27,6.8c13.46,35.44,28.09,70.48,40.11,106.4,18.63,55.65,35.25,112,53.21,167.85,5.85,18.18,12.09,37.61,44.08,24.94-28.11-84.26-54.09-168.18-84.89-250.29C5082.42,1883.61,5059.38,1867.77,5043.23,1849.36Zm59-12.57c70.73-3.24,119-38.37,129.12-87.77,10.8-52.81-14.8-102.89-65.18-127.54C5223.72,1726.69,5206,1792.56,5102.22,1836.79Z"/><path class="cls-1" d="M4410.44,1488.15c-1.32,20.69-.92,38.87-4.29,56.32-1.62,8.43-9.16,20.13-16.18,21.92-7.78,2-18.75-4.46-26.89-9.54-4.83-3-6.83-10.5-10.19-15.92-43.72-70.67-114.51-101.9-196.84-84.09-10.62,2.3-25,16.21-26.57,26.43-7.52,49.28-12.29,99.07-15.34,148.84-.56,9.13,10.32,26.22,17.74,27.32,32.68,4.85,67.22,11.2,98.71,5,19.83-3.92,34.75-30,53.21-44.45,11.73-9.18,25.9-15.23,39-22.68,3.78,13.57,11.42,27.37,10.65,40.67-2.59,44.6-6.94,89.19-13.34,133.39-2.06,14.2-12.58,27.17-19.23,40.7-11.64-10.15-30-18.28-33.79-30.81-18.42-61.44-65.35-72.78-119.6-75.27-27.86-1.28-43.2,8.75-44.95,38.61-2.63,44.7-8.81,89.21-10.79,133.92-2.45,55.58,17.87,80.48,72.14,90.78,75.47,14.32,139.37-3.93,186.06-68.75,6.62-9.2,14.27-18.71,23.61-24.7,20.74-13.32,41.32-1.86,36.8,22.13-7.3,38.8-17.36,77.51-31.42,114.29-3.53,9.24-27.19,16.51-40.75,15.28-103.12-9.39-206-21.66-309-31.9-53.41-5.3-107.07-8.19-160.59-12.44-12.66-1-25.87-1.29-37.59-5.41-7-2.46-15.46-11.45-16-18.07-.42-5.26,10.45-16.56,16-16.34,82.68,3.32,80-56.95,85.14-112q15.51-166.23,31.72-332.4c3.76-37.9-5.33-64.68-47.63-73.76-12.29-2.64-22.15-16.62-33.13-25.41,14-5.44,28.51-16.52,42-15.46,156.78,12.23,313.33,27.54,470.15,39.2C4436.61,1427.79,4404.89,1466.39,4410.44,1488.15Zm-504.14,464.9c38.3-7.91,54.73-28.33,58.24-59.19q11.7-102.57,21.78-205.34c6.27-64.73,12.07-129.52,16.7-194.38,2-27.8-4.81-52.58-37.25-63.5C3977.9,1508.26,3933.52,1912.09,3906.3,1953.05Zm382-288-59.36,30,8.63-7.22,43.9,46.3C4283.13,1717.14,4285.55,1692.63,4288.28,1665.09Zm-2,320.84c-.16-.48.19,2.89,1.18,3.09,57.74,11.72,61.13,9,71.89-58.9Zm30.47-528.42,53.86,54.89C4383.42,1459.16,4383,1458.74,4316.78,1457.51Z"/><path class="cls-1" d="M1489.35,2226c-93.84-4.18-193.81-37.13-260.92-133.7-69.91-100.61-54.29-233.41,34.22-332.19,112.06-125,255.84-177.28,419.6-185.39,31.77-1.58,50.93,11,61,40.53,4.51,13.28,13.12,25.42,16.11,38.91,2.68,12.16.23,25.47,0,38.27-13.25-.89-27,.08-39.57-3.29-9.38-2.51-17.21-10.72-25.79-16.28-128.82-83.5-280.52-24.88-321.73,124.29-32.55,117.85,18.09,264,115,331.82,116.29,81.4,268,33.8,319.67-98.91,8.54-21.92,25.68-40.48,38.85-60.59,10.85,22.58,24,44.38,32,67.91,13.2,38.44-4.16,66-35.72,88.32C1766.12,2179.54,1612.45,2226.37,1489.35,2226Zm63.51-22.61c-139.49-16.22-258.14-53.56-298.93-194.74-39.8-137.72,30.55-239.67,130.35-326.71-135.38,63.31-210.32,227.65-165.19,350.53C1265.31,2158.35,1427.53,2230.18,1552.86,2203.39Zm284-174.68L1770.45,2134C1845,2096.73,1854.9,2080.21,1836.89,2028.71Zm-210.66-419.86L1712,1656.5C1699.75,1606.56,1693.18,1602.75,1626.23,1608.85Z"/><path class="cls-1" d="M2239.54,1978.43q-26.2-168.63-52.38-337.24c-2.15-13.9-3.62-27.9-5.89-41.78-10.08-61.39-13.78-64.27-74.64-74.85-10.69-1.86-20.06-11.34-30-17.3,10.21-7.7,19.57-20.37,30.77-22.29q139.74-24,280.17-43.85c12.18-1.7,26,8.4,39.08,13-10,9.61-18.54,24.69-30.29,27.85-39.58,10.66-49.72,35.89-43.89,72.5,19.9,125,39.21,250,59.8,374.9,9,54.58,13.27,56.25,68,63.3,11.42,1.47,21.64,12.23,32.41,18.7-10.32,7.66-19.82,20.31-31.11,22.18q-139.78,23.23-280.24,42.31c-11.57,1.57-24.56-7.28-36.89-11.3,8.83-9.07,16.06-21.92,26.8-26.46C2218.63,2026.54,2244.54,2016.2,2239.54,1978.43Zm24.1,48.66c28.13-11.77,32.71-37.49,29.12-65.13-7.43-57-16.6-113.86-25.22-170.75-10.52-69.49-20.61-139-32-208.4-8.07-49-24.67-65.33-51.28-64.88C2219.1,1684.13,2243.88,1853.56,2263.64,2027.09Z"/><path class="cls-1" d="M5164.76,123.13c88,7.72,152.16,31.38,186.31,103.4,32.82,69.21,21.63,135.19-24.3,194.09-61,78.19-146.4,116.76-240.19,139.66-6.08,1.48-13.81,2.9-18.89.45-11.65-5.62-22.14-13.65-33.1-20.7,7.21-10.53,12.13-24.7,22.05-30.95,35.48-22.39,74.79-39.21,108.3-64,17.41-12.89,36.9-39.54,34.64-57.33-1.9-15-32.19-31.3-52.85-38.11-95.94-31.64-126.45-129.9-55.06-191.8C5114.29,138.21,5147.59,130.93,5164.76,123.13Zm-9.32,199c-22.95-80.19-20.64-91.32,32.41-165.27-46.83-6.33-81.18,16-93.26,60.74C5081.31,266.68,5099.81,300.08,5155.44,322.12Z"/><path class="cls-1" d="M6452.85,714.44c-50.24.25-94.23-39.42-95.83-86.42-1.64-48,42.88-90.52,95.12-90.94,55.91-.44,99.56,39.21,99.66,90.54C6551.89,674.46,6506.63,714.17,6452.85,714.44Zm0-11.79c47,.79,85.21-34.93,85-79.46-.19-40-37.81-76.49-79.93-77.47-42.69-1-83.76,36.63-84.35,77.26C6372.87,668.48,6406.1,701.87,6452.81,702.65Z"/><path class="cls-1" d="M6473.53,681.47l-27.11-58.13c-6.81,14.14-11.88,24.68-17,35.36-24-15.29-23.94-15.91,8.87-86.14,15,4.23,31.86,6.3,45.64,13.94,7.57,4.19,14.49,18.29,13.49,27-1.21,10.48-14.07,19.3-16.45,30-2.28,10.29,2.4,22.13,4,33.29Z"/></svg>