<svg id="Layer_1" data-name="Layer 1" xmlns="http://www.w3.org/2000/svg" viewBox="0 0 1960.17 1865.5"><defs><style>.cls-1{fill:#a62b2a;}</style></defs><path class="cls-1" d="M48.07,963V902.27c1-5.15,2.15-10.26,2.84-15.45,7-52.71,10.08-106.3,21.65-158,42-187.56,132-349.51,274.93-478.37C600.18,22.58,894.57-49.48,1223.92,33c197.33,49.41,358.64,159.18,486,317.71Q1857.83,534.77,1899,767.94c4.51,25.56,8.75,51.18,13.11,76.77V1020.6c-4.25,25.09-8.31,50.23-12.78,75.29q-51.52,288.63-258.59,496.2-188.34,188.81-449.19,249c-146.89,33.73-293.81,32.79-439.64-4.9-223.28-57.71-401.58-182-534.47-370.24C128.27,1339.71,75,1199,57,1045.19,53.79,1017.83,51,990.42,48.07,963ZM996.85,793c-.33-2.91-1-7.39-1.3-11.89-1.32-17.51-2.28-35-3.87-52.53-1.41-15.57-14.51-15.12-25.08-16.35-12.61-1.48-11,8.56-10.93,16.39.16,25.57.36,51.13.79,76.69C956.88,830,957,830,980,833.74c-6.46,3.88-13.53,5.34-20.39,7.48-4.53,1.41-8.75,3.8-13.1,5.75,3.41,4.25,6,10.54,10.39,12.42,20.72,8.77,38.28,1.32,54-12.75,19.09-17,29.16-14.4,34,11.05,10.27,53.68,8.69,107.14-10.16,158.94-8,21.94-18.94,42.6-48.43,39.08-.75-.09-1.66,1.17-2.75,2,.38,4,.62,8.2,1.21,12.33.7,5,1,13.87,2.69,14.15,7.35,1.26,17.65,3.07,22.33-.81,29.46-24.42,47.68-56.78,57.36-93.33,4.72-17.85,6.77-36.82,7.15-55.34.76-37.07,7.67-75.86-23-108.1,24-18.19,47.27-36.72,71.51-53.92,17-12.07,30.9-25.88,37.57-46.09,1.12-3.38,2.55-7.8,5.22-9.32,16.2-9.26,6-15.61-2.83-19.57a43.32,43.32,0,0,0-23-3c-33.38,5-63.9,17.82-88.72,40.74C1031.86,753.18,1015,773.55,996.85,793ZM794.67,183.64c11.11,58.16,22,115.61,33.07,173,4.72,24.46,6.78,25.38,30.93,14.26-5.84-32.23-11.76-64.9-17.67-97.57a719,719,0,0,1,41.5,79.16c5.37,11.91,12,16.3,24.59,12.41,14.1-4.34,7.85-14.68,6.43-22.42-9.8-53.42-20.4-106.7-30.34-160.1-2-10.67-4.08-17.8-18.08-15.05-13.76,2.71-11.8,10-9.85,19.75,5.37,26.84,10,53.83,14.92,80.76-15.6-23.46-27.59-48.13-39.73-72.74C819.88,173.71,819.8,173.75,794.67,183.64Zm847.5,609.82-1.11-3.14c3.4-2.15,6.69-4.5,10.22-6.42,23.33-12.73,46.54-25.71,70.15-37.91,12-6.22,7.88-15.55,4.29-23-1.7-3.52-10.36-6.44-14.92-5.42-53.41,12-106.66,24.61-159.9,37.3-24.89,5.94-24.89,6.25-13.52,31.8l93.07-21.1a18.43,18.43,0,0,1-8.9,9.35c-23.27,12.83-46.39,26-70,38.15-11.08,5.72-8.79,14.06-4.89,21.37,2.06,3.88,9.64,8.06,13.63,7.17,57.58-12.77,115-26.51,172.44-39.69,10.28-2.36,10.62-8.47,8.67-16.71-1.9-8-4.43-14.46-14.85-11.15-4.54,1.45-9.3,2.17-14,3.24ZM921,1580.08c.52-52.57-7.64-63-42.63-71.23-5.15-1.21-10.56-1.36-15.71-2.59-11.28-2.7-14.38,2.23-16,13q-11.19,75-24.19,149.7c-6.23,35.66-6.6,35.88,29.44,38.84,27.84,2.29,43.57-6.42,50.18-33.32C911,1637.94,916.94,1600.64,921,1580.08ZM414.37,843c10.43-28.65,10.43-28.66-15.69-34.85q-28.14-6.67-56.31-13.25c0-1.6.07-3.2.11-4.8,5.83-.47,11.67-1.5,17.48-1.3,15.38.55,30.75,1.73,46.13,2.47,23.71,1.14,27.33-3,24.59-31.67-26.58,0-53.57.59-80.5-.4-7-.26-14.84-4.16-20.41-8.7-19.75-16.08-42.3-22.81-66.86-19.08-30.44,4.63-34.81,30.21-40.26,54.54-2.3,10.24.89,14.24,10.92,16.39C273,810.8,312.34,820,351.71,828.89Zm944.38,777.83c-17.3-23.57-34.2-46.09-50.4-69.1a25.2,25.2,0,0,1-4.25-15.64c2.83-29-8.34-52.72-30-69.92-8.23-6.53-22.93-7.85-34.2-6.72-11.1,1.11-22,7.56-32.08,13.32-3.15,1.81-5.88,10.17-4.35,13.48,25,54,50.75,107.67,76.2,161.47,3.64,7.68,8.15,10.75,16.1,5.58,5.09-3.32,10.47-6.19,15.88-9.36-11.86-25.79-22.87-49.74-33.89-73.69l5.17-2.81c11.73,16.1,23.54,32.15,35.18,48.32C1334.2,1638.19,1334.15,1638.23,1358.75,1620.83Zm86.31-1289a43.47,43.47,0,0,0-26.68-38c-15.64-6.38-33.51-2.54-45.45,13.53q-38.46,51.78-74.24,105.54c-11.42,17.22-8.92,34,2.93,47.14,18.54,20.58,45.89,18.56,64-6,23-31.24,45.16-63.07,67-95.11C1438.09,350.84,1441,340.94,1445.06,331.86ZM284.55,1017.25c-11.79,2-21.88,3-31.57,5.45-26,6.7-38.82,24.94-34.18,47.56,4.54,22.16,24.3,34.19,50.38,30.34,13.15-1.94,26.25-4.24,39.32-6.68,29.26-5.48,58.8-9.88,87.61-17.18,20.32-5.15,30.85-21.35,24.75-38.1-4.91-13.47-9.19-26.41-9.43-40.68,0-.71-1.43-1.4-3.05-2.88-21.79,4-44.2,8.27-66.71,12-29.24,4.9-29.49,4.76-24.2,32.51.87,4.55,4.15,11.67,7.16,12.13,5.77.89,16.56-.68,17.57-3.76,6.38-19.43,24.24-11.16,36.25-16.06,3.44-1.4,9.57,3.82,14.47,6-3.59,3.71-6.56,9.41-10.88,10.74-10.61,3.27-21.83,4.57-32.82,6.57-27.75,5-55.43,10.53-83.32,14.62-5.3.78-11.42-4-17.17-6.27,4.39-3.7,8.32-8.32,13.31-10.83,4.57-2.3,10.27-3,15.52-3.22,12.09-.55,14.31-6.85,11.13-17.09C287.29,1028,286.2,1023.36,284.55,1017.25Zm239,465.51c-7.3,8-13,15.74-20.31,21.47-3.5,2.73-10,1.55-15.22,2.14.24-4.8-1.45-11.2,1-14.15q38.9-46.58,79.23-92c2.57-2.9,9.22-2.18,14-3.14.09,5.22,2.08,11.51-.13,15.43-4.56,8.1-11.36,14.93-18.14,23.41l21.63,18.24c8.64-10.92,17.74-20.07,24-30.87,13.83-23.81,2.39-50.77-24.16-58.2-17.69-5-31.27,4-42.22,16.31q-38.14,43-75,87.23c-5.6,6.73-9.7,15.25-12.56,23.61-4.84,14.1.44,26.27,10.95,36,10.95,10.14,24.06,14.25,38.32,8.66,17.51-6.87,28.4-21,38.77-36.72Zm590.86-1187c18.93.54,37.46-.38,49.1-17.3,15.16-22.06,21.94-46.36,12.79-72.52-8.74-25-31.52-29.15-53.78-33.6-9.06-1.81-13.39.47-15.35,10.27-7,34.92-14.88,69.65-22.45,104.46-5.62,25.8-11.26,51.6-16.81,77,27.16,11.86,29.41,10.67,35-16C1106.55,331,1110.43,314,1114.44,295.77ZM976.69,1064.12c-8.7,5.24-15.13,9.45-21.87,13.07-8.81,4.72-18.64,9.3-23.54-4.23-17.54-48.5-43.59-92.11-73.95-133.53-11-15-16.12-31.91-9.41-51.11,7.21-20.63,17.53-38.58,35.71-51.48,14.71-10.44,30-15.71,47.51-7.33a4.23,4.23,0,0,0,3.14.16c4-1.83,7.92-3.9,11.87-5.89-2.89-3.95-5.18-10.5-8.79-11.33a72.35,72.35,0,0,0-25.05-.8c-34.42,4.46-53.85,29.4-73.2,54.51-17.4,22.57-18,47.07-8.66,72.49,3.44,9.41,8.93,18.07,13.57,27,13,25,25.56,50.11,39,74.8,10.63,19.49,21.37,39,33.89,57.32,8.1,11.84,19.53,19.16,35.69,10.86C970.17,1099.64,978.21,1087.8,976.69,1064.12Zm86.58,651c18.66-2.56,34.85-5.4,51.17-6.84,14.14-1.24,18.91-7.38,14.11-20.8-1.39-3.9-2.62-7.86-3.89-11.71-12.14,0-27.52,4.44-33.65-1.19-6.84-6.28-5.29-21.72-7.39-33.17a13.45,13.45,0,0,0-.31-1.56c-3.36-10.34.63-15.23,11.25-15.07,12,.18,14.56-6.23,11.85-16.56-1.44-5.52-2.7-11.08-4.05-16.66-3.81,0-6.57-.57-9,.1-13.26,3.65-18.39-2.46-19.4-14.94-.86-10.5-2.57-20.93-4.11-33,9.86-1.74,18.61-3.42,27.4-4.81,12.47-2,7-10.9,6.66-17.48s.81-15.53-10.12-14c-19.29,2.64-38.48,6.06-59.37,9.42C1044.11,1583.35,1053.51,1647.94,1063.27,1715.07ZM573.33,314.94c8.42-5.93,15-11.19,22.23-15.53,11.68-7.06,3.17-13.4-.42-19.69-3.74-6.57-7.42-13.57-17.07-6.63-11.23,8.07-22.5,16.27-34.6,22.85-12.43,6.75-11.37,13.26-4.3,23.73,29.77,44.08,58.66,88.76,88.18,133,15.88,23.82,11.45,21,33,7.33,6.3-4,12.5-8.1,18.72-12.19,20.2-13.32,20.24-13.35,5.91-32.16-1.51-2-3.76-3.4-5.94-5.33l-30,19.06-28-42.06c6.72-7.64,17-14.16,16.92-20.58-.07-7.89-8.75-15.71-13.83-23.76l-23.6,13ZM369.23,461.29c-9,12.6-17.46,26-27.46,38.25-9.11,11.12-8.63,17.88,4,26.29,33.62,22.39,66.32,46.15,99.4,69.34,16.39,11.49,32.83,22.91,50.7,35.38,13.41-19.14,25.79-36.81,39.22-56-8.75-5.57-18.3-15.81-23.22-13.93-10.35,4-18.28,14.26-28.91,23.43l-38.28-26.84,12.71-21.6c-20-20.79-20.29-20.79-42.9.38L376,508.5C396.06,472.17,396.06,472.17,369.23,461.29ZM1531.4,1494.09c-56.87-43.45-84.51-105-116.14-163.58-23.87,14.75-24.37,16.43-12.68,36.68,6.44,11.15,12.89,22.29,20.1,34.74-3.62-.38-4.83-.15-5.57-.63-9.8-6.38-19.54-12.85-29.28-19.32-20-13.32-23.14-12.62-37.91,10.46,57.12,34.25,115.9,66.81,155.7,124.82Zm19.35-481.5c-9.69,28.41-9.73,28.67,16.57,33.28,39.8,7,79.67,13.59,119.52,20.28,22.77,3.83,22.76,3.75,21.28,27.27-.06.9.86,1.85,2,4.13l27.29,4.8c4.76-28.91,9.27-56.3,13.73-83.43-25-6.51-24.66-6.33-34.5,13.88-1.48,3-8.53,5.5-12.5,4.9-29.43-4.49-58.72-10-88.1-14.85C1594.18,1019.21,1572.26,1016,1550.75,1012.59ZM1447.69,595.7c11.57,27.46,13,27.95,34.27,13.46,24.61-16.75,49.3-33.41,73.86-50.23,24-16.44,47.87-33,71.48-49.34-12.53-27.15-13.72-27.61-35.46-12.78-25.47,17.38-50.77,35-76.2,52.48C1492.92,564.88,1470.14,580.37,1447.69,595.7ZM661.23,1649.81c2.52-4,4.2-6.08,5.31-8.44,24.86-52.91,49.3-106,74.74-158.64,5.36-11.09,3.14-15.69-7.23-20.68-10.15-4.88-15.49-4.41-20.66,6.89q-36.17,79-73.95,157.23c-4.4,9.16-2.51,13.76,6.25,17.1C650.57,1645.13,655.33,1647.31,661.23,1649.81ZM407.17,1324.37c18.11.44,33.9-14.38,34.56-32.42.68-18.47-15.2-34.92-33.73-35-18.15,0-33.32,15-33.58,33.32A33.68,33.68,0,0,0,407.17,1324.37Zm1196.27-56.85c.26-18.68-13.91-33.76-32.22-34.3s-34.81,15.73-34.65,34.13c.17,18,15.62,33.43,33.57,33.49C1588.3,1300.89,1603.18,1286,1603.44,1267.52Z"/><path class="cls-1" d="M1141.86,723c-23.32,39.37-60,59.85-95.06,82.26l-3.44-3c6.81-7.65,13.44-15.46,20.47-22.91,7.47-7.93,15.31-15.5,21.44-25-31.46,8.77-50.41,34.25-74.74,56C1028.22,771.74,1091,715.48,1141.86,723Z"/><path class="cls-1" d="M979.4,735.6v67.67l-4.66.06V735.46Z"/><path class="cls-1" d="M881.75,1538.56c3,7.31,9.39,15,8.52,21.86-4.31,33.65-10.21,67.12-16.3,100.52-1.74,9.52-6.24,18.27-21.26,15,7.27-45.39,14.44-90.13,21.6-134.87Z"/><path class="cls-1" d="M257.1,775.93c6.92-19.29,20.42-15.48,31.68-13.43,11.87,2.16,24.16,6.15,24,25.77Z"/><path class="cls-1" d="M1264.4,1542.9l-24.31-51c17-6.39,23.7,3.78,28.72,14.22C1274.36,1517.67,1280.82,1530.33,1264.4,1542.9Z"/><path class="cls-1" d="M1415.22,327.5c-4,7.26-5.74,11.14-8.13,14.55-21,30.06-41.77,60.28-63.54,89.77-3.5,4.75-11.55,6.15-17.5,9.09.88-6.21-.2-13.74,2.94-18.43,20.41-30.45,41.67-60.32,62.82-90.26,2.41-3.41,5.53-7.88,9-8.56C1404.73,322.88,1409.41,325.77,1415.22,327.5Z"/><path class="cls-1" d="M1121.43,263.52c3.77-17.58,6.86-33.58,11-49.28.5-1.87,9-4.17,10.3-2.87,11.5,12,5.09,25.64,1.83,38.65C1142,260.29,1136,266.52,1121.43,263.52Z"/></svg>