<svg id="Layer_1" data-name="Layer 1" xmlns="http://www.w3.org/2000/svg" viewBox="0 0 3691.93 1865.7"><defs><style>.cls-1{fill:#282425;}.cls-2{fill:#c5a8a9;}</style></defs><path class="cls-1" d="M2753.58,628.51c55.28,0,110.79-3.11,165.76,1,46,3.4,67,65.46,36.83,103.45-8.92,11.23-7.07,14.62,1.9,23.73,36.09,36.65,17.47,107.23-32.26,115.56-57,9.56-115.06,2.31-174.07,1.68,12-11.34,9.91-24.39,9.9-37q-.06-88.3,0-176.59C2761.68,649.67,2763.13,638.77,2753.58,628.51ZM2856.8,831.24c0-.24,0-.49,0-.73,13.82,0,27.66.53,41.45-.13,19.06-.92,27.38-12.57,27.23-30.63-.16-18.3-9.34-29.16-28.17-29.83s-37.54.84-56.07-1.08c-23.22-2.42-33.32,3-31,29.45,2.82,32.77.66,33,34.39,33Zm2.12-106.84v-.6c12.24,0,24.49.42,36.7-.11,17.21-.75,24.25-10.62,23.87-27.39-.36-16.18-8.56-24.1-24.2-24.42-20.4-.4-41,1.2-61.18-.79s-23,6.37-24,24.5c-1.27,23.59,5.37,33.14,29.26,29C2845.69,723.46,2852.39,724.4,2858.92,724.4Z"/><path class="cls-1" d="M2552.8,876.86c-25.2-.26-50.4-.49-75.61-.85-1.45,0-2.88-1.15-4.31-1.78,13.51-45.63,5-92.23,6.28-138.39-1.72-35.06,8-71-7.39-106.74,3.52-5.16,10.7-2.08,16.68-2.09,45.79-.11,91.58,0,137.37.49,24.91.29,45.12,10.5,54.89,34.13,10.17,24.6,11,50.12-7,71.86-7.69,9.28-9,12.91.81,21.89,23.47,21.44,23.3,49.33,14.16,77.09-8.88,27-29.79,40.45-57.48,42.17C2605.11,876.27,2578.93,876.19,2552.8,876.86ZM2577,831.23c8.17,0,16.34.13,24.51,0,31.42-.57,42.23-8.78,41.88-31.63-.33-21.91-10.7-29.75-40.72-30.33-13.88-.27-27.77-.06-41.66-.06-31.6,0-29.5.19-32.23,32.7-2.2,26.22,7.6,33.21,31.08,29.49C2565.41,830.49,2571.25,831.24,2577,831.23Zm-.25-159.43v-.3c-9,0-18.07,1-26.85-.22-18.07-2.61-23,5.57-20.59,21.85a73.27,73.27,0,0,1,.06,17.07c-.94,10.35,2.88,14.69,13.73,14.35,23.59-.74,47.23-.14,70.82-.93,17.06-.58,24.46-10.84,24-27.42-.48-15.85-8.91-23.9-24.47-24.33C2601.16,671.54,2588.94,671.8,2576.72,671.8Z"/><path class="cls-1" d="M1016.6,875.84c-29.74,0-53.17.06-76.6-.05-4.4,0-7.19-1.27-6.66-7.15,3.49-38.21-26.09-61.81-43.3-90-5.8-9.51-30.16-5.26-44.55-1.44-12.56,3.33-6,18.54-5.56,28,1,22.64-7,46.58,9.32,69.1-23.58,2.68-45.68,2.48-72.68-.18,15.4-12.45,13.72-26.24,13.7-39.73-.07-57.22-.24-114.44.14-171.66.08-11.74-.58-22.59-12.13-31.41,13.26-7.28,25.46-4.19,37-4.27,38.42-.25,76.87-.63,115.25.74,38.59,1.37,60.19,19.38,66.8,52.63q12.65,63.5-38.12,88.7c-6,3-15.09,2-9.44,14.2C958.62,802.52,996.72,859.44,1016.6,875.84ZM888.43,731.46v-.34c11.45,0,22.92.48,34.34-.11,19.14-1,27.45-12,27.09-30.66-.34-17.62-8.7-27.8-26.68-28.38-17.16-.56-34.35-.42-51.52-.45-32.22-.06-30.91.06-32.66,32.13-1.17,21.53,4,32.1,27.38,28C873.52,730.4,881.07,731.46,888.43,731.46Z"/><path class="cls-1" d="M1134.63,878.24a74.76,74.76,0,0,0-33.7-.15c-5.18-3-10.33-2.25-15.47.13-5.81-2.66-11.79-2.6-17.85-1.08-3.61-16.27,11.43-31.09,3.7-47.69-.08-3.22-.17-6.44-.25-9.67.45-32.56,2.23-65.18,1-97.68-1.18-30.76,7.44-62.5-9.33-95.89,63,5,124.88-9.3,185,12.72l34.38,38.55q5,14.64,10.06,29.28c.06,6.92-.93,14.07,4.31,19.87-1,25.27-.33,50.7-7,75.44l-22,42c-.23,1.6-.45,3.2-.68,4.8l-.25-.84c-16.23,11.39-32.64,22.44-52.51,26.66l-21,1.39-24.82,1.42-16.78-.29C1145.64,875.13,1140.09,875.85,1134.63,878.24Zm-12.31-113.19c-.2,16.25.32,32.56-.83,48.75-1,14.46,5.19,19.06,18.53,17.4,6.43-.8,12.93-1,19.4-1.45,29.2,3.43,58.21,3.84,73.16-27.6,13.05-27.43,18.12-56.64,6.46-86.49-3.54-23.67-17.3-37.57-40.55-42.39-19.59-.59-39.23-.58-58.76-2-13.73-1-18.88,3.36-18.19,17.72C1122.75,714.32,1122.16,739.7,1122.32,765.05Z"/><path class="cls-1" d="M3443.23,713.93v64.6c-29.21-18.6-60.95-7-91.33-9.48-6.7-.55-6.39,5.38-7.16,10.28-7.34,47.16-3.26,52,44.32,52,22.89,0,45.78-.07,68.68,0,12,0,24.43,1.85,33.46-15.7,3.88,27.07,2.55,48.53,1.5,73.57-11.78-12.52-24.36-13.69-38.1-13.54-55.52.59-111,.24-167.08.24,11.88-35.58,11.1-224-2.57-249.1h69q50.26,0,100.55,0c11.81,0,24.48,2.61,31.91-13.27,5,24.38,3.78,45.78,2.62,73.13-11-15.16-22.9-15.71-35.74-15.41-30.23.7-60.51.83-90.73,0-13.45-.39-18.12,3.18-18.14,17.45-.06,36.91-.84,36.91,35.31,36.91C3426.86,725.59,3426.86,725.59,3443.23,713.93Z"/><path class="cls-1" d="M265.4,874.81H198.86c12.42-27.67,11.47-224.46-.73-244.14,2.59-4.19,6.81-3.81,10.84-3.81,16.36,0,35.55-5.31,48.37,1.44,16.39,8.62-2.67,25.31-2,39.67,2.77,56.63,1.09,56.71,58.71,56.7,58.5,0,58.44,0,58.45-58.17,0-12.89,1.57-26-13.42-37.2,26.34-4,48.53-2.64,71.42-1.32-12.65,25.73-12,224.33,1.15,246.2H363.76c16.29-31.4,5.92-64.12,8.51-95.72.81-9.9-7.32-9-13.72-9-29.45-.09-58.9-.15-88.34.09-5.18,0-13.5-1.7-13.06,6.68C258.85,808,249.41,840.8,265.4,874.81Z"/><path class="cls-1" d="M734.52,874.54H653.43c20.26-19.86,5.06-36.39-2-52.78-5.31-12.36-90.47-11.46-97.72,0-12.05,19-13.38,35.11-3,52.32h-73c28.34-37.7,39.15-81.58,56.09-122.46,42.78-103.27,42-103.57,31.67-123.2H644c-15.57,16.27-5.27,31.15.9,46C667.12,728,689.8,781.3,712,834.84,717.58,848.4,722.56,862.08,734.52,874.54ZM602.89,696.59c-11.16,28.93-20.41,52.93-30,77.86H633.3Z"/><path class="cls-1" d="M2737.86,1166.54c30.08,47.88,58.64,93.39,87.32,138.83,1.7,2.69,4.76,4.51,6.61,7.14,4.42,6.26,21.33.86,16.52,12.5-4.46,10.8-19,6.21-28.5,4.63-14.58-2.43-23.45-14.1-31-26q-38.58-61.14-76.77-122.52c-5.75-9.29-10.82-20-23.95-15.71-12.16,4-5.94,15.54-6.09,23.43-.72,36-.37,72-.27,107.94,0,8.85-1.51,18.94,12.08,19.66,5.71.3,9.39,2.92,8.16,9.17-1.08,5.52-6,4.52-9.79,4.55q-23.31.22-46.62,0c-3.83,0-8.65.9-10.15-4.39-1.35-4.77.93-8.23,5.67-8.75,15.05-1.65,12.08-13.21,12.1-22.37q.32-121.44,0-242.87c0-7.83,1.82-16.51-7.21-21.86-4.84-2.87-15.21-2.36-11.22-12.13,2.62-6.41,10.18-3.51,15.54-3.53,27.81-.15,55.62-.16,83.42.28,20,.31,39,5.08,55,17.87,23.52,18.78,35.52,43.51,30.51,73.23-4.77,28.36-25.07,44.94-51.43,54C2759.42,1162.48,2750.46,1163.69,2737.86,1166.54Zm-27.57-19.48c16.08.68,29.15.6,41.83-3.17,22.77-6.78,36.88-25.59,37-48.92.15-50.46-53.53-84.22-99.4-62.84-9,4.2-7.78,11.56-7.86,18.6-.24,22,1.47,44.18-.52,66C2679,1142.19,2686,1154.48,2710.29,1147.06Z"/><path class="cls-1" d="M3041.82,628h63.9c-12.36,12.75-12.37,25.79-12.27,39.19.37,48.22.58,96.44-.12,144.65-.2,13.85,1.81,20.59,18.24,19.87,31.81-1.39,63.73-.57,95.61-.29,10.09.08,19.42-.5,26.07-17.22,5.95,28.38,3.26,50.19,2.82,79.59C3224.54,873.23,3210.36,876,3197,876c-53.59-.05-107.18,0-157.51,0C3047.5,792.39,3044.25,711.88,3041.82,628Z"/><path class="cls-1" d="M1066,1021.38c17.67,13.58,30.74,28.91,20.64,53.29-1.41,3.41.49,8.93-4.63,9.88-5.63,1-8.83-3-10.57-7.91-3-8.34-5-17.2-14.22-21.37-30.84-42.87-94-47.87-136.15-10.76-61.37,54.1-69.41,162.52-16.71,225.26,36.08,43,103.36,59.37,148.46,36,9.75-5.06,21.92-9,14-25-1.36-2.75,3.33-8.5,5.23-12.87,21.52,3.36,26.31,13.18,14.19,29.67-3.28,4.44-7.49,8.2-11.26,12.28-66.88,40.19-142.28,30.27-194.05-25.53-53.75-57.94-59.2-146.27-13.13-212.69,42.5-61.28,116.34-82.62,186.76-54C1058.28,1019.05,1062.2,1020.11,1066,1021.38Z"/><path class="cls-1" d="M1911.3,785.61q-.32-49.07-.62-98.13c.48-19,7.86-38.82-7.43-54.82,4.46-7.87,10.77-5.55,15.92-5.55,44.92,0,89.87-.61,134.76.73,38,1.13,58.73,19,66.28,53.27,8.6,39.1-4.13,70.91-36.89,86.76-11.56,5.59-15.22,9.61-7.28,20.94,19,27.09,29.46,60,57.64,82.45-9.14,9.25-20.73,2.66-29.85,6.29-5.48-2.76-10.45-.4-15.46,1.54-6.25-.87-12.48-2-18.76-2.54-9.19-.79-15.85,1.38-11-14.46,4.15-13.44-8.58-27.33-20-37.53l-4.68-9.58c.79-3.08-.27-5.32-3.1-6.73-10.21-10.38-6.07-34.84-30.6-31.17-5.67-.38-11.4-.39-17-1.21-16.63-2.43-23.7,3.48-22,21.17,2.49,25.93-7.18,53.19,8.92,77.58l-48,2.71c-4.68-4.47-20.31,3.13-15.36-10.6C1916.54,839.77,1910.44,812.64,1911.3,785.61Zm102.28-55.56c9.75.38,19.49,1.17,29.23,1.06,19.85-.23,30.19-10.37,29.92-30.46-.26-18.91-10.22-28.43-29-28.74-8.13-.13-16.25.22-24.38.35-14.53-.24-29.06-.43-43.58-.71-7.3-.15-11.18,2.29-13.32,10.34-10.11,38.07-1.46,50.23,36.69,49.51C2004,731.31,2008.78,730.52,2013.58,730.05Z"/><path class="cls-1" d="M1434.42,776.09c-26.28-2.72-50.82-9.23-68.32-31.17,0-4-.84-7.49-5.34-8.75-1.23-7.16-2.66-14.3-3.66-21.5-6.84-49.31,28-92,76.44-92.9a208.56,208.56,0,0,1,74.1,12c2.81,3.53,6.32,5,10.8,3.68a5.37,5.37,0,0,0,3.59,1.33c5.26,6.79,11.72,10.29,20.59,8s9,3.36,8.3,9.52c-8.22,17.29-16.44,34.58-25,52.69-24.41-34-64.44-48.91-98.91-37.73-13,4.2-24.06,9.81-22.27,27.09,1.81,17.5,14.4,15.51,26.48,18,23,4.86,47,3.52,69.36,11.82,34.19,12.67,50.92,34.87,51.47,69.34.56,35.35-18.38,63-51.92,74.93-8.41,3-17.32,4.6-26,6.85l-10.72,1.21c-39.84,5.33-73.05-17.3-109.55-26.08-5.48-1.32-3.49-6.59-2.44-10.23,3.15-11,6-22.08,10.28-32.59,3.22-7.84,3.15-20.34,13.28-21.38,10.52-1.08,5.07,11.47,9,17.21,17.08,24.93,84.88,35.41,108.22,16,8-6.64,13-14.84,11.13-25.64-1.89-11-11.29-13.38-20-15.25-11.09-2.37-22.35-5.08-33.9-2.69C1445.18,775.51,1439.93,775.28,1434.42,776.09Z"/><path class="cls-1" d="M2339.87,627c-18.68,14.72-14.32,25.75-9.39,37.4q37.17,88,73.66,176.2c4.69,11.36,10.85,21.46,25.45,33.25-31.88,4.11-57.59,2.89-84.69,1.51,17.46-32.86.45-61.39-33.85-61.42h-36.76c-34.79,0-51.55,28.27-34.9,58.8-21.21,5.47-52.2,5.18-72.82-1.34,15.39-11.21,20-27.78,26.29-43.49,20.72-51.48,42-102.76,62.31-154.38,4.73-12,14.69-23.49,3.08-38.51-5.9-7.64,4.46-7.84,9.42-7.9C2288.83,626.85,2310,627,2339.87,627ZM2293,697.1c-6.47,16.17-10.9,27.12-15.24,38.1-17.58,44.48-17,44.81,30.18,40.81,12-1,13.87-5.17,10-15.07C2310.24,741.43,2302.66,721.88,2293,697.1Z"/><path class="cls-1" d="M1632.38,839.2c-32.79-54.34-37.15-109.6-5.33-166,42.9-54.51,110.92-67,172.09-31.94,13.62,7.81,25.11,20.65,43.46,17.61-1,17-15.16,26.63-17.15,41.36-10.25,16.84-17.22,13-22.17-3.52-38-34.4-82.61-38.29-118.91-10.37-43.76,28.65-37.65,127.22,20.44,141.09,7.36,6.07,16,7.05,25,6.08,22.41,3.12,42.17-2.85,59.48-17.28,17.43.17,12.6-24.16,28.39-25.79,8.81,17.06,17.62,34.13,25.22,48.87-40.83,17-76.21,46.18-122.19,42.53l-28.9-5-30.6-13.8Z"/><path class="cls-1" d="M1856.25,1295.29l-33.78,20.31-43.85,12.69-58.53,3.6c-13.81-.47-27.62-.92-41.43-1.43-4.77-.18-10.55.55-11.53-6-.7-4.75,3-7.22,7.34-8,8.24-1.46,10.23-7.43,10.13-14.38-.67-48,3-96-1.84-143.94,4.77-37.91.94-76,2-114,.13-4.81-.86-9.34-4.55-13.3-4.44-4.78-18-2.63-13.63-12.9,3.47-8.17,15.06-1.71,22.34-5.11,13.95,2.12,27.88,2.86,41.75-.57,7.36,2.93,14.75,2,22.14.15l16.46,1.81,32.7,8.52c23.53,9.18,43.59,23.88,63,39.68,34.24,40.77,55.57,86.13,50.15,141-4.75,6.29-4.7,13.65-4.66,21l-15.18,31.18Zm-78.35,9.91a102.3,102.3,0,0,0,49.77-21.2c8.59-3.24,15.13-9,20.46-16.38,37.85-41.53,45.6-102.06,19-148.29.27-7.6-3.25-13.11-9.43-17.15-9-22.7-25.77-37.86-46.9-48.88-7.76-7.38-16.74-12.4-27.42-14.13-13.87-6.93-28.41-10.45-44-8.57-3.52-1.84-7.09-2.62-10.81-.55-12.54-1.43-15.28,6.17-15.16,16.44q.57,48.75,1.12,97.5c-3.45,45.38,0,90.74.61,136.11.5,38.47,4.94,42.15,42.32,32.46C1764.45,1310.75,1771.1,1307.68,1777.9,1305.2Z"/><path class="cls-1" d="M2190.82,1331.33c-6.62-2.77-16.92,3.18-20.23-4.56-4.94-11.54,9-8,12.73-12.68,2.7-3.38,3.88-8.89,3.84-13.43-.63-74.94,2.51-149.92-2-224.83.26-17.93,12.39-39-13.46-50-3.1-1.32-5.15-4.85-2.9-7.83,1.64-2.18,5.14-3.79,8-4.1,9.57-1.05,19.22-1.41,28.84-2,5.2,2.28,10.43,3.35,15.74.33,14.59,2,29.17,3.05,43.65-.85,11.53,1.51,23,4.6,34.69.8,8.08.49,16.15,1.37,24.23,1.41,47.86.2,55.2,8.54,50.14,63.87-17.73-25-30.26-58.94-70.13-46l-9.44.08c-19.58-.27-39.18-.09-58.73-1-11.59-.54-16.84,3.51-15.24,15.28-9.81,6.75-2.83,16.11-3.77,24.24-1.67,15-2,30.07.53,45.06l-.15,23.55c-1.42,3.33-.74,5.49,3.24,5.81,7.25,3.38,14.65,4,22.23,1.18,15.26,3.09,30.6,1.51,46,1.54,16.36,0,29.7-1.06,29.48-22.11-.06-5.78,3.24-9.2,9.25-8.37,6.58.92,6.33,6.33,6.34,11.22q.06,28.11,0,56.22c0,5-.06,10.21-6.75,10.78-3.21.28-7.53-.37-7.58-4.32-.39-36.4-28.14-25.27-47.8-27.27-8.79-.89-17.85.75-26.79,1.24l-13.76.28c-15.31-4.21-15.5,5.36-15.42,16.23.24,36.69,1,73.42-.26,110.06-.73,20.63,7.31,26.59,26.08,22l12.47-.08,12.23-.56a70.12,70.12,0,0,0,36.82-.11c20.83,3.17,41.29,5.07,54.95-16.15l14.34-20.78c2.32.69,6.59,1.17,6.69,2.08,1.8,17.42-5,33.37-12,48.23-4.65,9.84-17.63,3.93-26.85,4.66-12.09,1-24.28.77-36.43,1.07l-33.62-.18-15.42.19-13.92,0Z"/><path class="cls-1" d="M1400.41,1331.17l-25.44.88-18.9-1c-10.73-2.16-13.4-6.91-4.92-15.26,10.75,2,13.24-3.84,12.28-13a12,12,0,0,0,.07-11.94l.09-18.67q.12-7.85.22-15.7,0-4.27,0-8.55c1.87-13.69,2.27-27.39-.17-41.07l.06-23.09a188.91,188.91,0,0,0-.12-50.22q.75-42.67,1.51-85.34c.17-9.7-2.1-17.76-12.78-20.89-4.11-1.21-7.56-3.43-5.87-8.65s6.26-4.4,10.08-4.39c17.89.07,35.79.38,53.68.6.92,2.42,1.85,4.84,2.77,7.25-16.93,6.17-20.85,18.76-20.27,35.75,1.37,40.32,1.25,80.69,1.73,121-1.32,40.77-2.6,81.54.69,122.29-5.22,17.12,12.22,13.23,18.38,19.81l-3.57,9.66Z"/><path class="cls-2" d="M1260.69,1572.68a17.15,17.15,0,0,1,6.44-.74l.44,0,64.08,4.47c13.91,2.31,26.58-3.49,39.8-5.94,5.21-4.18,20.5-4.47,9.49-15.78-38.53-39.36-44.72-91.69-58.38-141-4.13-14.84-16.81-25.16-17-44.72-22.07,22.76-27.18,44.48-16.07,69.39a273,273,0,0,1,20,65.06c1.13,6.49,5.11,13.37-2.41,17.1-8.8,4.33-14.2-3.09-17.3-9.43-8-16.07-21.22-29-26.73-46.44a48.44,48.44,0,0,0-16.26-24,10.7,10.7,0,0,0-8.9-1.13c-3.29,1.28-4,5.46-1.82,8.26,8,9.92,1.58,22.35,6,32.77,3.54,8.5,6.83,16.86-1.67,24.52-6.78-8.2-20.35-5.94-25.6-16.31-9.83-19.56-12-40.25-15.19-61.87-4.27-28.63-3.54-60.3-20.61-86.53l.2.19v0l0,0,0,0a.34.34,0,0,1,0-.1l-.07,0c-15-30.91-22.54-64.51-33.48-96.84-2.85-8.45-3-17.35-11.16-23.09-1.91-1.38-4.86-4.18-4.47-5.51,10.12-34.64-26-64.27-10.42-99.56,5.6-12.77,2.56-25.25-5.85-36.36-2.55-3.39-4.76-8.06-.14-10.56,6.58-3.54,8.3,2.65,9.53,7.12,3.39,12.14,6.34,24.42,11.25,43.83,10.22-25.3,2.76-45.7,8.75-64.86,6.68-21.18,10.71-42.85-1.18-67.67-8.94-18.67,6-43.73,11.55-65.6,3.73-14.89,13.22-28,14.64-43.78l-16.8-.3c-1,15.93-8.85,29.39-15.34,43.44-11.64,25.46-18.08,51.5-12.77,80,3,16.22-4.87,31.4-9.73,47.67-20.64-41.92-4.92-80.49,7.57-118.63,5.6-17,10.51-33.95,13.56-51.54a74.94,74.94,0,0,0-33.71-.15c-6,19.07-11.89,38.18-19.9,63.93-3.74-26.14,3.63-44.82,4.42-63.78-5.8-2.66-11.79-2.61-17.84-1.08q-.81,72.08-1.62,144.22c17.69,13.56,30.76,28.9,20.64,53.27-1.38,3.44.49,8.94-4.62,9.88-5.6,1.08-8.84-3-10.56-7.87-3-8.35-5-17.25-14.21-21.37-19,11.79-12.72,32-10,46.14,10.56,55.18,19.11,110.56,24.81,166.44,21.53,3.34,26.29,13.17,14.21,29.63-3.3,4.47-7.52,8.2-11.31,12.28,8.51,16.81,22.26,31.5,16.47,53.32-2.71,10.22,3.68,22.36,6.43,30.76,9.34,28.6,25.16,55.23,44.13,79.51,10.07,12.87,9.09,34.05,29.53,39.26,3.74-4.91,7.42-9.78,14.84-19.46-2.31,25-.39,43.74,13.37,59,13.37,7.13,29.34,12.43,22.8,33.17.69.69,1.38,1.33,2.06,2,5.85-1.27,11.16-2,12.88,6.15,2,9.63,8.5,15.08,17.84,17.44,7.42-6.44,14.79-12.92,22.21-19.36C1280.3,1578.13,1263.79,1582.41,1260.69,1572.68ZM1179,1340.38h0l0,0Z"/><path class="cls-2" d="M1027.34,972.63c2.35-29,13.45-56.37,14.84-85.66C1032.8,914.67,1024.19,942.78,1027.34,972.63Z"/><path class="cls-2" d="M1287.37,1635.1a5.47,5.47,0,0,0-1.52-1.42,8.41,8.41,0,0,0,1.23,1.81Z"/><path class="cls-2" d="M1288.26,1622.22c1.93-7.22,10.11-16.48-.11-21.12-10.57-4.79-14.61,6.82-19.13,14-1.55,2.47-1.3,6.09-1.87,9.18.52,6.49,6,8.2,10.46,11,2.75-.22,5.46-3.3,8.24-1.57C1283.85,1629.61,1287.25,1626,1288.26,1622.22Z"/><path class="cls-2" d="M1065.9,829.44c-13.53,10-16.83,24.25-17.38,39.59,6.84-12.7,16.82-24.07,17.72-39.26Z"/><path class="cls-2" d="M1071.31,829.45c-.08-3.22-.17-6.44-.25-9.67-3.83,2.1-5.36,5.41-5.16,9.66l.33.33Z"/><path class="cls-2" d="M1217.63,1590.3c.78.73,1.56,1.47,2.32,2.22q2.31-2.61,4.61-5.24c-.68-.66-1.36-1.3-2-1.94C1220.9,1587,1219.27,1588.65,1217.63,1590.3Z"/><path class="cls-2" d="M1215.47,1595.05l4.48-2.53c-.76-.75-1.54-1.49-2.32-2.22Z"/><path class="cls-2" d="M1140,831.2c6.43-.8,12.93-1,19.4-1.45,18.79-34.54,36-70.1,64.34-98.4,5.16-5.16,10.19-10.46,15.28-15.69-3.54-23.67-17.3-37.57-40.55-42.39-19.34,35.61-40,70.12-76.17,91.77-.2,16.26.32,32.57-.83,48.76C1120.47,828.26,1126.68,832.86,1140,831.2Z"/><path class="cls-2" d="M1264.44,892.32c25.63-56.07,56-107,101.66-147.4,0-4-.84-7.49-5.34-8.74-23.3,7.21-35.92,26.29-49.43,44.41-6.17,8.28-9.89,19.11-21.88,21.48l-22,42c-.23,1.6-.45,3.2-.68,4.79l-.25-.83C1270.76,862.49,1251,875.83,1264.44,892.32Z"/><path class="cls-2" d="M1340.46,681.62c-20,5.06-31,21.48-48.31,25.14.06,6.92-.93,14.07,4.31,19.87C1316.88,718.65,1334.93,708.4,1340.46,681.62Z"/><path class="cls-2" d="M1201.21,904.48c10.44.81,9.53-17.29,12.77-27.37a8.17,8.17,0,0,0,0-2.37l-21,1.39C1196.33,885.89,1187.44,903.4,1201.21,904.48Z"/><path class="cls-2" d="M1348.29,1606.9c-.58,12.54-17.7,27.52-4.5,35.24,11.58,6.78,26.66-5.9,37.73-15.61-16-10.65-16.83-28.16-20.17-44.54C1347.52,1585.19,1348.7,1597.89,1348.29,1606.9Z"/><path class="cls-2" d="M1434.29,1141.77c-4.62,3-9.21,12-8.06,17,9,38.56-8.44,33.57-31.75,20.2-1.32,40.77-2.6,81.54.69,122.29,3.26-29.8,29.6-50.3,30.75-81.94,14.19,6.64,14.58,18.33,12.92,28.09-1.89,11.08,1.2,20.08,5.3,29.34,3.67,8.25,2.44,23.38,14.64,21.44,9.36-1.49,8.81-15.61,10.37-25,.4-2.35-.37-4.88-.27-7.32.87-21.23,4.61-40,20.69-57.29,14.4-15.5,20.08-40.11,12.3-59.63-16.94-42.43-9.71-84.53-5.5-127,.64-6.49,2.16-11.59-5.06-13.32-8.39-2-11.68,3.65-12.49,11-.36,3.22.45,6.61-.15,9.76C1471,1069.57,1476.46,1114.84,1434.29,1141.77Z"/><path class="cls-2" d="M1214.17,1375.47c3.29,19.91,17.18,34.37,33.12,46.4,3.82,2.89,8.4,9,12.14,5.2,4-4.09,8.15-14.8,6.06-17.17-20.14-22.81-10.25-49.67-12.12-75-2.49-33.84-14.87-41.29-45.93-24.54,8.18-66.93-2.71-130.34-13-194-14,22.85-11.15,49.13-21.17,72.95,3.54-32.47-6.06-64.37-.72-96.92-22.42,29.54-23,62-13.52,95.74,3.77,13.41,14.39,25.87,11.82,39.87-4.49,24.43-4.82,47.83,3,71.6,4.31,13.06,7.31,26.73,5.31,40.82C1196.58,1346.34,1210.66,1354.15,1214.17,1375.47Z"/><path class="cls-2" d="M1391.81,1382c17.7,10.46,12.68,18.88,9,30.76-8.58,28.11-3.68,56.29-1,84.48,27.64-3.88,55.14-1.29,82.63,1.92-10.9-47.81-9.87-98.41-29.38-143.89-9-21-3.1-43.24-12.81-63.19-2.65-5.45-4-10.79-11-11-7.73-.25-8.77,5.26-9.79,11.33-1.62,9.63-3.94,19.14-6,28.7l-3.57,9.66c-7.42,14.08,3.42,30.71-9.57,44.67v-44.2l-25.44.88C1374.34,1351.12,1380.66,1375.37,1391.81,1382Z"/><path class="cls-2" d="M1906.76,762.81c-2.32-19.95-15.26-30.56-33-34.4-11-2.39-22.63,1.22-31.13,9.93-4.59,4.7-3.64,10-.37,15.57,15.92,27.28,20.69,57.91,23.7,88.44,2.38,24.2,13.71,44.86,21.35,67,2.7,7.8,8.61,14.14,18,14.22,11.47.1,12-10.08,13.77-17.24,2.31-9.34,2.16-19.29,3.06-29-4.68-4.47-20.31,3.13-15.36-10.6,9.73-27,3.63-54.08,4.49-81.12C1903.21,779.34,1907.66,770.5,1906.76,762.81Z"/><path class="cls-2" d="M1356.07,1331c-10.73-2.16-13.4-6.91-4.92-15.26-4-19.57-6.79-39.26-4.52-59.28.67-5.82-4.64-14.24,3.74-16.63,3.45-1,8.93,5.19,13.49,8.1,1.87-13.69,2.27-27.39-.17-41.07-12,2-11.55,13.54-16.33,28.38-3-25.37-1.42-44.68-13.88-66.21-10.81,40.13-24.85,74.92-20.91,112.31,5.7,54.16,17.2,107.17,42.18,156.37,3.54,7,4.69,18.5,15.32,14.53,10.25-3.82,3.33-13.62,2.77-21.32C1370.36,1397.08,1351.2,1366.05,1356.07,1331Z"/><path class="cls-2" d="M1232.19,1119.49c-6,21.92-7.52,44.75-11,67-2.71,17.28,5.34,36.43,9.6,54.52,1.37,5.82,3.2,15.5,10.64,14.59,22.65-2.77,18,14.86,15.47,23.63-7.32,25.77,5.24,45.31,15.86,65.87,2.18,4.22,5.26,9.47,11,7.29s4.41-8.46,3-12.7c-5.79-17.5-5.35-35.47-4-53.31,2.51-33.73,6.16-67.37,8.8-101.09.44-5.65,4.49-14.33-5-16.33-7.35-1.54-11.81,4.66-14.83,10.59a197.74,197.74,0,0,0-8.59,20.16,124,124,0,0,0-5.77,18.39c-1.19,5.77-.69,12.09-10.46,13.21,4.14-36.89,2.44-73.32,1.68-109.76-.13-6-.74-13-7.09-14C1234.05,1106.42,1233.63,1114.21,1232.19,1119.49Z"/><path class="cls-2" d="M1864.89,1062.5c-7.51-57.07,20.73-119.49-29-170.34-1.92,21.67-19.74,39.66-17.7,64.13,2,24-4.73,45.83-16.21,66.53C1825.47,1032,1845.53,1046.7,1864.89,1062.5Z"/><path class="cls-2" d="M1737.46,961.67c7.18,11.47.56,32.35,20.53,34.55,13,1.43,25.24-6,28.87-18.47,5.17-17.81,8.85-36.64,6.65-55.36-3.1-26.39-18.6-32.08-41-18.77-17.81,10.58-10.59,27.29-13.42,38.68C1738.18,950.7,1735.09,957.89,1737.46,961.67Z"/><path class="cls-2" d="M1520.65,1032.25c-3.26,17.49-6.86,35.32-6.53,52.94.32,16.76,5.42,33.45,8.6,50.13.8,4.18,3.12,8,7.69,8.32,3.58.28,5.87-2.63,6-6.18,1.6-34.16,20-64.88,19.77-97.21,2.38-13.86-.57-25-13.13-26.53C1531.68,1012.3,1522.79,1020.75,1520.65,1032.25Z"/><path class="cls-2" d="M1684.37,686.32c38.69,14.32,78,21.95,118.91,10.37C1765.25,662.29,1720.67,658.4,1684.37,686.32Z"/><path class="cls-2" d="M1633.55,920.83c8.34-1.11,11.37-7.08,12-15.66,1.16-15.35,4.15-30.44,15.68-42.13l-28.86-23.84c-20.52,19.77-20.53,44.27-15,69.41C1619,915.58,1625,922,1633.55,920.83Z"/><path class="cls-2" d="M1413,1022.15c15.68,11.79,26.43,8.18,33.56-10,5.28-13.43,12.67-26.11,17-39.79,2-6.3,9-15.48-2.28-21.31-11.6-6-16.54,2.91-21,10.33-10.48,17.56-20.13,35.62-30.11,53.48C1411.17,1017.32,1412.1,1019.74,1413,1022.15Z"/><path class="cls-2" d="M1730.64,1012.34c.6-15.23,1.09-30.21-5.42-44.87-3.36-7.6-5.14-17.83-14.13-17.49-10,.39-13.54,11.47-15.17,19.78-2.8,14.26-.9,29.34-7,43.15C1702.84,1015,1716.77,1015.77,1730.64,1012.34Z"/><path class="cls-2" d="M1546,901.57c-5.09,9.16-3.42,19.06-4,32.73.82,5.79,1.41,15.64,3.79,25,1.78,7.06,0,18.64,12.19,17.7,12.06-.92,9-11.1,9.19-19,.43-16.25-.22-32.68,2.14-48.66,1.21-8.15.73-12.63-7-14.88C1555.24,892.45,1549.72,894.83,1546,901.57Z"/><path class="cls-2" d="M1571.25,860.87c9.78-17.59,19.15-35.39,28.57-53.17,1.93-3.63,3.46-7.91-.49-11-3.64-2.8-8.44-1.47-11.16,1.2-16.49,16.22-35.78,30.72-37.41,55.26-2.84,7.6-1.35,12.9,4.82,15.46C1563.24,871.85,1568,866.68,1571.25,860.87Z"/><path class="cls-2" d="M1809.75,738.44c-9-1.66-14.78,5.46-14.66,12.69.36,22-10.25,42.88-5.77,65.08,17.43.17,12.6-24.16,28.39-25.79.06-12.15,0-24.29.23-36.43C1818.06,747.16,1817.62,739.91,1809.75,738.44Z"/><path class="cls-2" d="M1413.32,1164.64c12.72-29.3,5.67-59.71,13.64-87.7C1395.78,1098.64,1391.61,1128,1413.32,1164.64Z"/><path class="cls-2" d="M1401,917.33c-27.58-1.52-17.75,20.82-22.3,34.13-2,6-1.38,11.29,5.66,13.24,5.33,1.47,29.31-26.85,29.88-34.71C1414.94,920.32,1409.69,917.81,1401,917.33Z"/><path class="cls-2" d="M1283.82,1105.23c-9.71,4.92-12.27,13.85-10.68,23.94,1.31,8.34,1.55,20,13.72,18.88,11.36-1.09,15.58-11.39,14.34-21.64C1300.06,1117,1296.57,1107.48,1283.82,1105.23Z"/><path class="cls-2" d="M1692.74,888.57c4,10.87,5.37,28.82,18.11,27.77,16.41-1.36,5.25-19.75,9.42-29.77.58-1.41.33-3.16.47-4.75l-28.9-5C1692.08,880.77,1691.44,885,1692.74,888.57Z"/><path class="cls-2" d="M1729.84,833.49c1.16-4.62,2.72-9.18,3.39-13.87,1-7.28,1.4-15.42-6.7-18.62-9.35-3.69-15.22,3.58-19.08,10.36-2.52,4.41-1.87,10.64-2.64,16C1712.17,833.48,1720.77,834.46,1729.84,833.49Z"/><path class="cls-2" d="M1461.16,915.66c8.2-7.48,16.43-15.29,16.46-27.51,0-2.94-2.29-5.89-3.52-8.84l-10.72,1.21c-.76,3.1-1.36,6.24-2.29,9.27-2.48,8-11,14.7-5.81,24.35C1456,915.42,1460.29,916.45,1461.16,915.66Z"/><path class="cls-2" d="M1363.63,1133.57c-12.85,16.77-6.12,33.49.12,50.22A188.91,188.91,0,0,0,1363.63,1133.57Z"/><path class="cls-2" d="M1434.08,805.86c6.73-8.41,14.49-14.72,15.33-26-4.23-4.33-9.48-4.56-15-3.75C1437.25,785.42,1424.89,793.64,1434.08,805.86Z"/><path class="cls-2" d="M1752.78,1012.49l16.46,1.81C1764.3,1008.74,1759.25,1004.15,1752.78,1012.49Z"/><path class="cls-2" d="M1846.62,1492.68l.41-.35v-.22Z"/><path class="cls-2" d="M1896.77,1402c-10.33-14-21.35-13.52-29.8,1.65s-13.25,31.17-10.24,48.77c18.3,18.7,2.81,28.91-9.7,39.87.14,1.75.28,3.51.41,5.27,7,6.55,9.36,16.35,8.8,24.15-1.68,23.34-2.38,46.23,5.51,68.65,4.55.75,10.19-.49,11.43,6.27,21.44-7.25,29.2-24.36,28.4-44.62-.63-15.82,1.08-31.77,5.67-45.63,10.51-31.69-5.36-61.1-3.67-91.69C1903.81,1410.62,1899.65,1405.92,1896.77,1402Z"/><path class="cls-2" d="M1790.45,1384.46c3.09,7.33,7,15.8,17.23,14.09,9.63-1.6,12.81-10.49,13.48-18.25,1.85-21.49,8.36-43,1.31-64.7l-43.85,12.69C1775.85,1348.42,1782.9,1366.57,1790.45,1384.46Z"/><path class="cls-2" d="M1895.2,1255.7l-39,39.59c12.28,2.58,13.84,12.36,14.71,22.33.78,8.91.65,18,5.09,26.13,3,5.43,3.36,14.4,11.24,14.21,8.89-.22,12.94-10,12-15.9C1895,1313.33,1902.29,1284.16,1895.2,1255.7Z"/><path class="cls-2" d="M2042.81,731.11c19.85-.23,30.19-10.38,29.92-30.46-.26-18.91-10.22-28.43-29-28.74-8.13-.13-16.26.22-24.38.35-9.74,18.48,3.1,39.22-5.8,57.79C2023.33,730.43,2033.07,731.22,2042.81,731.11Z"/><path class="cls-2" d="M2033.94,815c.79-3.08-.27-5.32-3.1-6.73Q2029.24,813.07,2033.94,815Z"/><path class="cls-2" d="M1507.64,633.74c2.81,3.53,6.32,5,10.8,3.68C1516,632.83,1512.07,632.51,1507.64,633.74Z"/><path class="cls-2" d="M2307.93,776c12-1,13.87-5.17,10-15.07-7.67-19.51-15.25-39.06-24.92-63.84-6.47,16.17-10.9,27.12-15.24,38.1C2260.17,779.68,2260.73,780,2307.93,776Z"/><path class="cls-2" d="M1830,1225.57c1.1-10.61,6.07-26.51-11.82-31.88-14.29-4.28-23.77,1.76-30.18,14-6.92,13.16-10.71,7-16-1.53-16-25.55-24.77-54.23-36.36-81.66-12.88-30.49-2.95-63-7-94.4-12.54-1.43-15.28,6.17-15.16,16.44q.57,48.75,1.12,97.5c8.54,20.79,22.91,39,25.38,62.59,1.21,11.6,12.35,17,22.61,20.11,14,4.24,18.69,12,13.06,25.63-7.42,18,6.18,35,2.31,52.88a102.3,102.3,0,0,0,49.77-21.2C1827.86,1264.5,1828,1245.1,1830,1225.57Z"/><path class="cls-2" d="M1835.1,1182c11,28,12.32,56.53,13,85.59,37.85-41.53,45.6-102.06,19-148.29C1841.55,1127,1824.94,1156.17,1835.1,1182Z"/><path class="cls-2" d="M1783.39,1039.17c-13.87-6.93-28.41-10.45-44-8.57-3.16,32.07,3.73,62.59,14.51,92.46,2.72,7.52,5.41,18.1,15.46,15.13,9.86-2.9,19.18-10.93,17-23.3C1781.87,1089.7,1792.25,1064.07,1783.39,1039.17Z"/><path class="cls-2" d="M1857.71,1102.18c-9-22.7-25.77-37.86-46.9-48.88-9.64,17.22-1.78,50,14.66,59.13C1839.48,1120.24,1852,1121.27,1857.71,1102.18Z"/><path class="cls-2" d="M2241.42,1313.05c-11.27-48.88-2.05-99.2-10.4-148.28-15.31-4.21-15.5,5.36-15.42,16.23.24,36.69,1,73.42-.26,110.06C2214.61,1311.69,2222.65,1317.65,2241.42,1313.05Z"/><path class="cls-2" d="M2257.47,1269.85c-15.9,13.37-.29,29-3.58,43.12l12.23-.56C2261.68,1298.59,2271,1281.87,2257.47,1269.85Z"/><path class="cls-2" d="M2216.79,1070c-1.67,15-2,30.07.53,45.06C2228.53,1099.86,2222.83,1084.91,2216.79,1070Z"/><path class="cls-2" d="M2220.41,1144.38l-3.24-5.81C2215.75,1141.9,2216.43,1144.06,2220.41,1144.38Z"/><path class="cls-2" d="M1363.81,1256.5c-5.57,5.16-4.54,10.41-.22,15.7Q1363.71,1264.36,1363.81,1256.5Z"/><path class="cls-2" d="M1363.5,1290.87c-4.13,4-3.63,7.94-.07,11.94A12,12,0,0,0,1363.5,1290.87Z"/><path class="cls-2" d="M1424.28,337.26l0,.05a23.51,23.51,0,0,0-4.18,15.38Z"/><path class="cls-2" d="M2691.4,312.1c-7-14-6.54-26.1-4.47-40,1-6.78,4.32-16.42-4.57-19.46-7.23-2.51-14.5,3.54-18,9.92-8.75,16-23.14,25.06-38.82,31.5-31.5,12.88-75.23-10.07-95.43-48.79l-4.77-10.22c-1.91-1.53-3.78-3-5.7-4.62l-13.8-8.11c-27.23-12.24-42.17-35.38-57.65-59.66-7.91-12.28-14.34-30.07-33.9-33-6.64-1-6.44-6.54-3.39-13.42,9.53-21.37.73-37-21.62-42.35-33.91-8-69.68-8.16-101.77-24.08-4.57-2.26-14-.49-10.76-9.19,7.46-20-6.49-19.26-18.73-21.72-65.7-13.17-131.4,6.44-197.1-.1-35-3.54-72.82,13.27-104.52-15-7.81-7-17.1-3-25.5.54-19.41,8.21-40.2,21.87-58.48,22.07-42.26.44-70.51,20.54-96.61,48.55-8.94,9.53-17.24,15.48-31.64,8.65-6.83-3.25-22.65-2.21-18.13,10.66,5.7,16.31-3.69,25.21-10.32,35.33-12.58,19.07-26.54,37.3-40.74,55.19-4.62,5.79-.69,17.54-8.7,18.13-25.89,2-22.11,26.53-32.53,40.1-2,2.55-3.78,8.2,2.26,9.63,5.6,1.32,2.7-9.49,9.63-7.57,1.33,14.05,3,28.89-10.51,38-14.3,9.68-21.82,23.53-28.8,38.27a12.8,12.8,0,0,0-4.52-.93c-30.51-4-63.39-2.41-82-34.89-4.38-7.71-12.19-5.55-19.76-5-20.49,1.57-27.91,20.2-41.72,30.37-8-1-14.2,2.26-19.75,7.52-11.45,1.37-12.83,10.27-14.2,19.11L1420.15,353c-1.67,18.68,13.56,19,24.52,19.81,62.46,4.66,117.89,26.92,167.91,63.88,3.79,2.8,8.9,3.73,13.37,5.55l.14-.14,8.91,5.64q1.35-1.75,2.67-3.51c-3.26-1.29-6.52-2.58-9.75-3.9,3.58-3.57,6.44-5.92,9.23-6.89a7.87,7.87,0,0,1,2.75-.49c2.17,0,4.38.94,6.93,2.8.69.54,1.48,1.18,2.26,1.87.35.34.79.74,1.18,1.13a9.53,9.53,0,0,1,1.23,1.23c2.16,2.16,4.52,4.81,7.27,8.06-7.91,3.34-14-3-21-3.49-.88,1.13-1.82,2.31-2.7,3.49,28.25,20.54,56.66,40.78,84.57,61.77,5.45,4.08,15.18,8.25,12.68,16.07-2.8,8.55-13.12,5.35-19.37,3.83-28.4-6.88-58.47-6.29-85.6-18.68-9.23-4.22-18.67-5.89-28.55-4.27-29.78,4.77-59.65,8.65-89.82,8.6-52,0-99.51,21-143,43.54-38,19.65-69.14,53.26-111,68.84-5.06,1.87-7.61,5.9-7.17,11.5q17.17,19.31,34.4,38.58c18.52-9.78,36.51-18.28,42.89-42.46,3.3-12.58,14.06-22.36,34.06-19.07,19.16,3.15,40-5.55,60.24-6.34,40.79-1.52,81.72-2.55,121.92,7.33,5.11,1.27,12.58,3.93,14.69-3.49s-5.8-8.55-10.61-10.81c-27.42-12.88-57.35-17.4-93-25,62.11-14.84,116.85-13.36,171.3,7.77-.69-21.67-23.83-17.84-29.93-32.68,21.08-8.3,38-2.41,53.37,11.84,8.3,7.62,14.69,18.33,27.17,19.9,13.81,1.72,6.39,9.93,5.36,16-1.82,11-8.31,7.42-14.4,4.23-8-4.18-15.68-8.8-23.78-12.68-6.93-3.29-14.5-5.31-19.17,3.44-7.81,14.79-21.08,16.22-35.28,14.64-4.72-.54-10.17-4.22-12.87,1.48-2.41,5,1.86,9.43,5.79,12.33,7.18,5.31,14.79,10.08,24.18,16.37-28.89,9.78-55.33-7.47-82-1.53,5.25,6.78,11.74,10.27,20.59,8s8.94,3.39,8.3,9.54q38,8.48,76.12,16.9c42.9-54.5,111-67,172.09-31.94,13.66,7.81,25.11,20.64,43.48,17.59-1,17-15.18,26.64-17.15,41.38,27.52-10.32,55.68-16.12,85.21-12.73.49-19,7.87-38.82-7.42-54.84,4.47-7.86,10.76-5.5,15.92-5.5,44.92,0,89.88-.64,134.75.69,38,1.13,58.77,19,66.28,53.31,8.6,39.07-4.12,70.91-36.85,86.73-11.6,5.61-15.23,9.63-7.32,20.94,19,27.07,29.48,60,57.64,82.45-9.14,9.24-20.74,2.66-29.83,6.29-.15,88.9,29.48,174.06,33,262.51.69,17.49-4.52,33.66-8.3,50.12s4.72,27.32,17.59,29.68c13.56,2.46,14.5-11.64,16.07-22.46,9-60.68-6-119.7-12.38-179.31-.64-6.29-4.57-12.33,2.16-20,7.17,13.71,7.42,27.92,10.12,41.58,2.85,14.69,3.34,31.94,23.15,36.21.24-17.93,12.38-39-13.47-50-3.09-1.33-5.16-4.87-2.9-7.86,1.62-2.17,5.11-3.79,8-4.08,9.59-1,19.22-1.43,28.85-2,2.21-9.43-10.37-24.86-1.08-26.48,16.66-2.9,6.48,20.19,16.8,26.78,14.6,2,29.19,3,43.69-.84,5.5-7.42-11.55-22.65,3.83-22.8,11.16-.15,33.56-.78,30.81,23.59,8.11.49,16.17,1.37,24.28,1.42,47.86.2,55.18,8.55,50.12,63.89-17.74-25-30.27-59-70.12-46,5.45,26.83,9,53.71,2.06,80.74-13.12-26-7-54-11.5-80.64-19.6-.3-39.21-.1-58.72-1-11.6-.54-16.85,3.54-15.28,15.28,17.93,31,22.41,64.86,22.11,99.85,15.23,3.1,30.62,1.53,45.95,1.53,16.36,0,29.73-1,29.48-22.07,0-5.8,3.24-9.24,9.29-8.4,6.53.93,6.29,6.34,6.34,11.25v56.22c0,5,0,10.17-6.78,10.76-3.2.29-7.52-.39-7.57-4.33-.39-36.41-28.11-25.25-47.77-27.27-8.79-.88-17.88.74-26.83,1.23.25,9,.3,18,.84,26.93.59,10.37-1.57,23.59,16.61,17.84,5.8-1.82,11.5,1.82,11,6.39-2,15.62,11.4,26.24,11.74,41.17.3,14-1.37,29.34,16.12,37.25,6.44,3,2.51,11.89,1.92,18.23,20.83,3.2,41.27,5.06,54.93-16.11-12-17.94.69-29.78,9.19-44.13,8.75,7.86,2.95,16.31,5.16,23.34,2.31.69,6.59,1.13,6.69,2.06,1.81,17.4-5,33.37-12,48.26-4.67,9.83-17.65,3.88-26.88,4.62-12.09,1-24.28.78-36.42,1.08-13.17,19.9-6.43,45.45-18.28,69.33-13.76-23.73-6.68-48.4-15.33-69.53-5.16.1-10.27.15-15.43.2-3.63,41.91,11.84,83.78.25,125.75-1.28,4.57-.89,9.78-9.88,13.31,4.52-47.51,5.21-93.56-4.27-139l-49.88-.15c1.13,16.36-1.48,32.38-2.8,48.6-2.07,24.62-10.76,49.14-3,74.74,2.85,9.53,3,23.29-1.92,31.2-19.9,31.85-10.81,69.59-26.14,109.83-2.31-23.49-4.22-40.39-5.55-57.29-1.82-22.22,1-44.48,6.39-65.66,10.07-39.8.49-79.5,2.06-119.26,1.33-34.25,3.44-70-11.55-104.22-11.89,2.4-13.41,15.13-21.08,26.29-9.33-21.72-3-43.2-7.71-63.49-13.22-56.86-23.34-114.5-33.57-172-2.5-14.06-.44-29-.44-43.34,0-29.09-12.53-56.46-8.11-86.14,1.77-11.9,9.34-20.4,11-31.5-6.24-.84-12.48-2-18.72-2.51-9.19-.79-15.87,1.38-11-14.5,4.13-13.41-8.6-27.32-20-37.49-7.81,21.67-25.4,41.08-14.89,67.08,1.92,4.71,9.78,12.82-1.47,15.48-7.18,1.72-16.41-3.2-16.76-10.62-1.42-30.76-25.94-61.52.44-92.68,7.47-8.79-5.25-17.39-5.7-26.78-5.7-.34-11.4-.39-17-1.18-16.66-2.45-23.73,3.49-22,21.18,2.5,25.9-7.18,53.17,8.94,77.55,5.55,12.33,9.34,26,2,37.54-12.68,19.75-3.69,40.44-6.44,59.31-5.41,36.71,20.39,77.54-15.18,109.88-5.61-11.4-4-26.93-2.66-37.64,2.7-20.64-8.55-37.55-7.76-57.11.59-14.59-30.32-33.51-44.82-29.82-11.1,2.8-10.46,13.26-8.94,20,9,38.92,11,78.67,16.17,118.08,3.68,28.26,17,34,42.8,24.18-2,31.59-2.8,62.65-30.27,84.52-4.77,6.29-4.72,13.66-4.67,21,12.82,49.93,18.67,100.93,19.11,152.19.35,40.44,4.08,80.78-2.55,121.62-3.1,18.77,4.81,39.36,8.94,59.31v0l.2.83.15.64c.24,1.13.44,2.31.63,3.44,0-.1.15-.15.2-.24l3.29,13.12c-.83,11.89,6.59,19.11,16.46,19.41,11.16.34,11.41-10.52,13.13-19.36,2.55-13,6.58-25.75,10-38.63l-4.67-21.92v-.34c-1.57-43.09-6-85.9-5.06-129.24a777.28,777.28,0,0,1,12.38-123.63c2.22-11.85,5-24.77,2-35.63a30.39,30.39,0,0,0-1.23-3.59c-.29-.63-.59-1.27-.88-1.86-.54-1.08-1.09-2.12-1.53-3.2a87.2,87.2,0,0,1-6-17c-8-32.33,2.31-64.37,5.75-97.44a27.23,27.23,0,0,1,9.53,11,44.59,44.59,0,0,1,3.1,9.14c.29,1.13.54,2.26.78,3.39,1,5.07,2.17,10.13,3.3,15.19,2.3,10,4.71,20,7,30,7.13,30.81,13,61.82,10.13,94-2.56,28.5,3.48,56.56.83,85.21-2.41,25.6-5.8,51.2-11.55,75.67-6.34,26.88,7.72,53.71-4.17,79.46.09,7.08.19,14.1.29,21.13v0a55.13,55.13,0,0,1,2.7,8.6c4.52,18.48.2,37.2-8.55,51.74-5.65,9.34-7,16.17-5.25,22.21a20,20,0,0,0,.83,2.22c1.77,4,5,7.81,9.34,11.84-1.62,1.92-3.29,3.88-5,5.8-3.29.39-4.17,2.6-4.17,5.45a5.77,5.77,0,0,0-.64,4.33h0s0,.14,0,.24,0,0,0,.1c.24,0,.49.05.74.05,3,0,4.61-1.48,4.42-4.77h.15c.29,3.69-1.48,5.21-4.92,5l.15,5.31c.78,20.3-11,37.4-14.6,56.56-.78,4.42-3.88,7.57-8.69,6.29-6.74-1.72-5.61-7.22-4.08-11.84,4.13-12.88,4.81-25.65.69-38.58-4.67-1.52-8.9-.49-12.88,2C1948,1680,1938,1697,1929.78,1714.6c-2.7,5.84-7.13,13.46-13.91,11.45-9.48-2.81-5.89-12.88-4.17-18.78,5.11-17.64,4.22-35.33,3.63-53.17-7.47-3-14.94-6-22.41-9.09-11.64,4.28-11.59,14.94-11.25,24.08,1,22.85-10.61,43.54-10.12,66.34.15,7.85-5.77,12.79-14.31,12.86-7.1-29.42-6.4-59,.71-88.1,2.54-10.41,1.48-18.59-3.25-27.25-2,3.37-31.13,20.16-36.9,21.66-2.18.57-4,2.32-6.07,3.53,10.08,3.86,10.71,12.51,10.86,21.4,7.37-3.83,13.89-5.83,14.1,6.34.19,11.29,2.44,23,.25,33.77-3.69,18.11,4.61,25.39,20.19,28.66h-.08c-7.07,12.33-6.78,11.64-19.9,6-8.06-3.44-3.59,10.56-12,9.58-15.92-27.37,1.43-56.26-2.26-84.32-28.65,10.51-23.63,29.24-15.53,52.23,12.19,34.3,8.41,41.43-16.61,48.75q-3.32-62.07-6.58-123.68c-.2-3.64-.34-7.23-.54-10.82-7.77-20.63-4.37-42.7-5.75-64.12v-.49l.74-41.48c1.62,2.36,4.57,4.52,9.38,6.44,18.33,5.31,7,20.69,10.17,31.1,2.66,8.75-1.62,23.15,12.88,21.53,11.69-1.33,8.35-15.33,6.78-22.31-6.39-28.4,7.52-56.12,1.28-84.37-.94-4.28.19-11.45,3.14-13.71,19.17-15,6.44-26.34-3.93-37.2-11.1-11.65-19.61-8.11-20.64,7.27-1.42,22-14.94,41-14.15,63.24a13.71,13.71,0,0,1-.39,3.1l-4.52-2.46c-6.54-2.46-6.54-8.75-8.16-14.05-8.89-28.6-7.13-57.94-6.54-87.23.3-14.49,3.25-29.33-3.14-43.39-2.31-5.11-3.88-11.25-11.11-11.3-6.88-.1-10.27,5.41-12,10.62-4.71,14.54-12.28,29.53-11.94,44.17,1.23,48.9-1.37,98.18,9.44,146.54l-5.75,3.58c-9.24-1.62-18.13,8.41-28.16.74,6.73-15.58,10.57-30.51,10.27-48.6-.29-17.44-2.7-36.16,2.61-54.35,4.86-16.7,8.59-36.11-13.86-44.66-20.84-8-37.1,1.18-44.77,25.06-3.93,12.18-4,25.55-7.76,37.83-11.3,36.86,1.86,70.18,13.56,103.84,1.72,4.91,7,6.43,9.73,3.88,11.65-10.81,27.71-3.64,40.25-11,8.1-4.72,15.33-3.44,19,4.72l4,41.23c5.06,39.36,8.06,79,21.28,117,4.72,13.56,4.87,28.65,7.22,43,1.13,7.13-1.86,10.62-8.94,11.45-11.06,1.23-16.27-7.22-16-14.54.54-18.08-7.91-34.69-7.32-52.29,1-31.89-4.82-63.19-6.34-94.84l-14-17.83c-.93-4.87-5.5-8.36-8.4-5.61-10.66,10.32-20,16.42-33.51,3.44-5.46-5.25-7.52,2.41-8.85,6.79-3.73,12.13-7.27,24.32-11,36.85-10.76-3.54-3.68-19.36-16.31-19.46-9.73-7.27-9.83,18.67-19.07,6.34a24.82,24.82,0,0,1-2.94-5.16,24.54,24.54,0,0,0,2.85,4.87c9.23,12.33,9.33-13.62,19.06-6.34,21.82-18.73,21.77-23.74-.44-35.58-8.94-27.42-2.31-56.81-10.22-84.42-2-7-1.52-16-11.6-15.78-10.32.2-11.1,8.65-13.61,17-7.91,26,2.6,51.64.39,77.54-1.42,16.85-3.63,26.48-24.76,20.39-23-6.68-30.72,4.62-35.78,28.55-7.81,37.3,8.75,69.63,14.35,104.57-20.83-18.52-30.27-42.26-32.43-69.14-.69-8.2-.34-16.31-5.7-23.24-9.63.49-20.25,9.68-28.5-2.36-7.57-11-.69-20.69,5.89-28.16,7.42-8.45-3.39-29.53,18.87-27.17,7.33.19,14.75-.3,22,.74,30.71,4.22,40.79-3.84,42.21-36,1.92-45-8.45-88.65-16.31-132.49-3.69-20.34-4.53-40.14,1.27-60.58,32.68,14.84,32.19,47.76,40.45,74.49,10.66-1.82,9.68-9.14,11.94-13.76,8.45-17.1,1.67-41.47,30.07-49.14,11.84-3.24,8.8-24.32,13.81-41.62,8.5,13,14.3,23.15,21.52,32.19,6.64,8.4,17.74,17,26.59,13.12,11.1-4.92,21.13-15.53,18.57-31.4-1-6.39-.34-13-.44-19.56-13.81-.49-27.62-.93-41.43-1.42-4.76-.2-10.56.54-11.54-6-.69-4.72,3-7.22,7.32-8,8.25-1.47,10.27-7.42,10.17-14.4-.69-48,3-96-1.87-143.93-9.53-.44-9.43,12.88-19.56,13.47-4.27-37.94-8.2-75.63-12.87-113.22-2.65-21.72-4.72-42.75-.44-65.11,4.22-21.62-14.11-39-21.08-58.73-1.92-5.45-8.11-8.4-14.4-5.25-5.75,2.85-9,8.5-7.37,14.3,9.78,34.69,2.85,70.17,5.5,105.2,3.25,42.9,15.53,84.23,18.58,127.18,2,27.91,17.88,33.66,39.6,15-4.37,21.72-10.12,41-8.25,61.22.39,3.93-.2,13.12-8.5,12.14-5.06-.59-7-6.19-7.77-11.3a81.54,81.54,0,0,0-2.7-11.89c-5.31-16.91-12.14-27.47-26-4.18-22.21-32.19-18.57-68.3-20.88-102.9-1.47-22-.25-44.18-.44-66.24-.1-8.25-1-16.66-8.75-21.67-3.24-2.06-7.57-3.78-11.2-3.44-5.41.49-4.38,5.75-4.62,9.68q-5.09,86.91-10.08,173.71c-.49,9.09-2.06,17.59-7.17,27.42-2-19.26-5.16-36.12-14.89-50.81-6.68-10-14.94-14.94-21.28-.2-16.11,37.5-36.36,72.34-40.39,115.68-5.8,62.8,13,122.21,15.38,183.49,0,0,0,0-.1,0-4,.64-7.71.39-10.66-2.9-27.47-3.2-55-5.8-82.65-1.92-4.82,6.68-4.82,6.68,10.12,8.8-2.7,21.18-.2,41.82,6.29,62-5.11,5.6-14.35-.34-20.54,8.5,30.22-5.3,10.81,13.12,12.48,21.92-2.85-1.87-5.31,1.47-7.91,2.31a.63.63,0,0,0,.1.29c-7.13,4.82-4.77,12-5,18.68.35,11-16.51,23.19,3.64,33.17-2.9,1.67-5.6,4.17-6.54,3.63-19.65-10.86-39.45-7.27-60-2.85-8.1,1.72-13.26-5.16-12.08-14.3.83-6.83,6.34-15.28-3.54-18.92-9.24-3.39-17.3.1-22.51,9.34-1.37,2.46-4.52,3.93-6.93,5.75-.09,2.31-.19,4.67-.29,7,14.84,26.63,35.33,48.55,59.8,66.14,17.69,12.68,33,26.54,42,46.54,3.24,7.17,7.22,13.56,15.77,13.07,12.78-.69,20.93,7.76,30.66,13.51,46.54,27.47,88.46,62.46,146.49,68.35,84.47,8.65,168.4,22.56,253.71,11.45,20-2.6,40.15-7.52,60.15-6.93,38.52,1.09,76.55-.24,114.79-5.75,23-3.29,45-17.93,68.79-10.61,16.61,5.06,30.57,1.23,43.39-7.08,33-21.37,56.51-54.25,93.47-72.13s71.05-42.21,104.56-66.24c10.57-7.62,30.52-19,30.18-22.8a34.51,34.51,0,0,1,.64-11.06l47.17-37.3a43.59,43.59,0,0,0,11.11-17.49l27.51-43.34a8.21,8.21,0,0,0,2.07-3.25l.1-.09v0l0,0c.83-2.56.29-5.8-2.56-10.22l-.88.64.78-.84a.38.38,0,0,1,.1.2l.05,0c2.06-14.4,15.87-16.17,25.16-20.64,35.72-17.1,65.85-58.38,60.54-95.82-3.1-21.77,5.85-37.2,11.45-55.58,8.94-29.48,30.71-55.48,29.48-87.13-1.72-42.8,15.78-82.8,13.76-125.55-2.4-52,8.9-103.73,2.75-156.16-5.15-44-16.21-86.49-27.22-129.09q-37.82-.37-75.62-.84c-1.48-.05-2.9-1.18-4.33-1.77,13.51-45.65,5-92.28,6.29-138.43-34.05-21.81-55-57.88-87.76-81.13-2.12-1.47-3.79-7.81-3.05-8.35,18.33-13.81-.83-17.15-7-21-20.73-12.83-41.42-27-64.12-35.28-48.55-17.74-91.45-46.2-137.3-69-22.46-11.15-44.42-18.28-68.65-20.73l-9.29-.45L2075.58,499l-10.22-.5c-42-5.84-82.56-3.68-118.18,22.61-13.76,10.12-30.77,4.52-43.69,4.72-23.78.44-49.93,5.45-73.07-20.59-21.28-24-50.76-46.1-85.6-54.2-7.72-1.77-12.73-6.64-15.43-14-7.27-1.87-18,3.1-19.66-9.83-28.35-2.6-45.89-27.57-72.28-34.94-7.32-2.06-20.15-6.63-19.22-15.08,1.23-11.21,13.86-13.86,24.38-15.58,3.93,2.56,6.58,7.76,12.53,6a49.21,49.21,0,0,1,5.06,2.21,57.46,57.46,0,0,1,8.84,5.55c1.38,1.08,2.66,2.16,3.94,3.34.63.59,1.22,1.18,1.81,1.77,9,8.89,15.48,20.1,22.66,30.76.93,1.43,1.86,2.8,2.9,4.18a100.13,100.13,0,0,0,9.28,11.5.3.3,0,0,1-.05-.2h.05l.2.2h-.2l.1.1c8,.34,16.12.54,19.71,9.73v0c0,.05,0,.05,0,.1,3.83,1,7.66,2,11.54,2.8,8.21,1.87,16.51,3.39,24.82,4.77q7.37,1.18,14.74,2.21c15.23,2.21,30.57,4,45.85,6.24,2.31.35,4.67.69,7,1.08,2.8.44,5.6.89,8.4,1.38,4.08.69,8.11,1.42,12.19,2.26,2.85.54,5.65,1.13,8.5,1.77a280.56,280.56,0,0,1,31.5,8.89c33.8,11.84,63.93-10,88.84-33.22,6.29-5.84,11.89-11.4,17.74-4,15.68,19.81,38.82,16.66,58.62,18,16.22,1.08,31.35,5.31,47,7.47,2.11.05,4.23.05,6.34.1,8.5,3,24.81,0,24.81,0,3.79-5.11,8.85-9.39,13.62-13.91l20.88-10.61c2.46,0,5.06-.59,7.37,0,34.6,7.81,38.82,5.8,55.33-26.78,5.7-11.31,45.41-23.44,57.64-18.58,33.27,13.27,66.69,26.09,103.39,25.75,20.79-.2,39.76-3.54,45.51-27.86,2.26-9.44,9-12.78,16.41-10,26.24,9.73,55.33,8.11,80.64,22.76,15.72,9.13,36.07,10.61,51.3-.79,22.56-17,47.91-27.42,72.58-40.05C2677.74,348.51,2705.35,340,2691.4,312.1Zm-1238,283.39c-23.59,10.91-45.85,7.81-67.52,8.35-.1,0-.15.15-.25.2-.34.49-.63,1-1,1.52.21-.51.44-1,.68-1.49l.16-.23h.39C1405.41,588.12,1426.2,581.48,1453.42,595.49Zm89.63,936.9a.18.18,0,0,1,.15-.05l6,5.75c.25-1,1-2.41.84-3.1l.05,0c.44.59-.5,2.21-.79,3.34l-6.29-6a3,3,0,0,0-.59.34c0-.1,0-.2-.1-.3a5.21,5.21,0,0,1,.59-.34l-.1.1Zm69.14,183.88c30.76,20.73,27.27,62.06,60.24,82C1637.94,1796.36,1630.76,1786.09,1612.19,1716.27Zm400.49-98a0,0,0,0,0,0,0,10.76,10.76,0,0,1,3.73-1.37c2.21,2,4.38,3.93,6.49,5.94v.15c-2.11-1.92-4.23-3.88-6.39-5.8a11,11,0,0,0-5,2.26A13.39,13.39,0,0,0,2012.68,1618.28Zm-17.89,17a.61.61,0,0,0,0-.29c8.41-.79,10.42-9.34,15.29-14.5a12.68,12.68,0,0,0,1.42-1C2005.55,1624.33,2004,1634.45,1994.79,1635.28Zm45.7-11.69c-9.63,12.28-15.67,28.84-34.1,36.21v-.34c18.33-7.37,24.37-23.88,34-36.17,2.36-3,3.15-8.25,2.61-13.31C2043.64,1615.14,2042.9,1620.54,2040.49,1623.59Zm-2.55-76.32c-6.49-11.15-2-21.22-.1-31.2C2045.85,1526,2053.86,1536.17,2037.94,1547.27Zm6.48-39.21c-14.3-21.52-4.67-40-2.85-58.08a40.35,40.35,0,0,1,.35-6.49,40.35,40.35,0,0,1-.35,6.49C2042,1467.77,2052.19,1485.56,2044.42,1508.06Zm36.76,92.83a.63.63,0,0,1,.1.29,6.42,6.42,0,0,0,.1.93A8.88,8.88,0,0,1,2081.18,1600.89Zm4.08-375.58c-11.84,7.62-15.19,18.87-20.25,28.9-1.91,3.73-4.13,7.37-8.94,7.17-5.21-.3-6.24-4.42-6.59-8.6-3-37.69-14.64-77.35-6.53-112.43,8-34.6-7-62.75-7.13-94.15-.14-37.89-8-75.68-11.84-113.57-.69-6.63-3.29-17.44,6.54-18.28,9.43-.73,11.64,9.88,13.51,17.65,2.8,11.84,6.19,23.78,6.78,35.77,2,41.72,28,80.79,13.51,124.22,17.74,29.54,10.42,66.88,30.37,95.88,13.12,19.06-1.08,38.13,2.51,59C2082.8,1241.72,2090.52,1231.94,2085.26,1225.31Zm41,394.74c-4,8-19.16,15.38-4,27.47,3.34,2.65-3.15,5.6-6.44,6.58-6.44,1.82-13.17,3.3-16.75-4.76a11.23,11.23,0,0,1-.84-7.13c5.41-16.7,18.13-30.81,17.69-49.63,2.8-12.68-1.38-26.63,6.63-38.62,2.41,12.72,9.83,24.52,4.53,37.69C2137.05,1601.48,2131.3,1610.12,2126.29,1620.05Zm258-237.93c5.51-77.1,12.29-154,1.23-230.86C2415.38,1174.94,2420.59,1335.48,2384.27,1382.12Zm-23.14-756.36c6.53-2.8,9.53,2.45,13.12,6.24,2.16,1.57,4.27,3.19,6.44,4.76-4.13,4.18-6.2.15-8.65-2.16-4.28-1.08-9.54.15-12-4.86C2359.56,628.75,2360.29,626.1,2361.13,625.76ZM2193,828.21c20.69-51.45,42-102.75,62.31-154.35,4.72-12,14.69-23.48,3-38.52-5.9-7.67,4.47-7.86,9.43-7.91,21.18-.3,42.36-.1,72.19-.1-18.67,14.69-14.3,25.75-9.39,37.39q37.16,87.94,73.66,176.17c4.72,11.4,10.86,21.47,25.46,33.27-31.89,4.13-57.59,2.9-84.67,1.52,17.45-32.87.44-61.37-33.86-61.42H2274.4c-34.79,0-51.55,28.25-34.89,58.82-21.23,5.45-52.24,5.16-72.83-1.38C2182.06,860.5,2186.63,843.94,2193,828.21ZM2097.4,505.27h0v.14h0Zm-.1-.3h0v.15h0Zm-134.06,51.16c6.24-2.61,6.39,7.42,6.39,12.72,0,9.88-5.89,13.81-15.23,15-20.54,2.7-31.55-12.92-50-25.26C1927,553.28,1945.16,563.74,1963.24,556.13Zm-219.45-3.54c5.55,2,17.24,3.93,12.72,13.81-2.85,6.19-11.5,2.6-17.74.73-17.49-5.3-32.82,5.41-53.21,6.19-7.42-2.35-16.52-9-24.82-16.75-4.23-3.88-1.28-9.83,2-9C1689.63,553.86,1717.5,543.05,1743.79,552.59ZM1657,265.32c7.22-23.1,13.26-43.25,25.5-66.34C1684.57,227.87,1675.73,250.23,1657,265.32Zm858.47-10.18.34-.34c.05.25.05.44.1.69l-.49-.3-.1-.19S2515.38,255.05,2515.43,255.14Zm-135.58-36.31c1.28-6.44,3.24-12.58,1.18-19.07.88-6.38,10.47-9,8.26-16.75a9,9,0,0,1-1.53-.84c.1-.15.15-.34.25-.49a4.19,4.19,0,0,0,.83.1,7.14,7.14,0,0,1,.45,1.23c6.53,2.9,7.61-7.18,13.07-6.93,13.22,13.56,9.78,32.14,12.33,48.16,1.87,11.74-12.38,4.81-19.16,5.4C2388.55,230.23,2377,233,2379.85,218.83Zm-84.22-105c-.35-6.78,6.29-7.08,10.86-6,12.28,2.9,27.42,1.82,32.92,16.71,6.39,17.44,18.48,26,36.31,27.71,0,.89-.09,1.77-.19,2.61-.59,9.63-2,17.2-16.81,17.3-12.33.05-17.49,15.82-28.3,21.42-40-33.51-86.69-32.68-133.86-24.27-19.51,3.49-42.95-.54-56.56,20.59-.54.88-3.15.83-4.72.63-15.33-1.86-38.13,8.51-43.49-9.63-3.39-11.45,20.64-13.26,32.49-18.47,40.24-17.74,81.42-33.07,125.89-37.3,7.37-.74,14.55-2.51,21.48,1.13C2285.7,133.67,2296.76,136.37,2295.63,113.87Zm15.28,102.31c-1.67,2.16-3.34,4.32-5,6.48-38.86-8.89-73-33.41-115-31.69,36.41-12.58,66.68,3.09,97.34,17.15C2295.58,211.46,2302.21,216.82,2310.91,216.18ZM2218.28,84.92c18.87,7.28,36,19.36,60.69,19.07-12.68,11.84-25.8,11.65-37.84,13.37-43.05,6.09-85.11,14.89-123.44,36.9-7.76,4.47-16,8.7-25.36,8a21,21,0,0,1-2.94-.34c-.59-.15-3.3-.3-1.87-.64,5.55-17.45,28-30.91,12.53-53.27,32.43-9.63,66.73-12.78,97.74-27.37C2206.19,76.72,2211.74,82.37,2218.28,84.92ZM1940.1,195.39a6.12,6.12,0,0,1-3.49,1.57c-5.6.2-11.25,0-16.76.69-5.35.64-11.35,5.55-15.62-.05s2.16-10.17,3.83-15.23c6-18.18,12.19-36.32,18.28-54.45,9-2.85,18-5.7,27-8.5,6.09-22,24.52-25.36,48.25-31.11-22.85,24.23-34.64,49.88-54,70.52C1939.12,167.92,1923.69,179.47,1940.1,195.39Zm20.64,88.94,3,2.51c-2.46,2.7-3.2.49-4.08-1.38-21-7.86-44-12.77-52.48-37.93l9.09-1.77C1934.35,254.8,1948.94,268,1960.74,284.33Zm79.51-101.42-47.87-1.62c29.39-25.95,64.18-42.8,104.08-63.93C2084.42,151,2063.54,168,2040.25,182.91ZM1941.72,72.79c29.24-25.95,58.18-24.38,90.42-24.23,45.6.2,90.91-8.4,136.61-4.52,7.52.64,19.36-3.88,21.13,6.39,1.86,10.61-4.28,20.64-16.32,24.22-25.75,7.72-51.1,18.73-77.39,22.07-36.71,4.67-64.82,25.85-96.12,41.13-.84.93-2.31,2.7-2.41,2.7-2.8-2.21-.59-3,1.18-3.93v-.05c2.65-25,15.53-44.52,32.88-61.57,2.75-2.75,7.56-3.93,5.6-9-1.57-4.18-6.29-7.13-9.68-5.21-35.14,19.56-82.21,14.54-108.21,52.53-1.13,1.67-.64,4.47-.88,6.78l-1.08.59c-1.23,2.85-3.44,3.19-6.1,2.31-6,5.35-16.56,4.62-19.65,14V137s0,0,.09,0l-.34.54c0-.05,0-.1,0-.19a.42.42,0,0,0-.29.24,2.31,2.31,0,0,0,0,3c-1,23.59-11.3,40.49-25.79,54.35-3.25,3.14-6.74,6.09-10.37,9-2.41,1.92-4.87,3.78-7.42,5.6-3.79,2.75-7.72,5.41-11.7,8.06v0c-5.94-21.23,7.67-35.33,19.9-48.45,7.52-8.16,9.05-15.58,7.33-25.16C1890.62,121.68,1915.38,96.13,1941.72,72.79ZM1730.67,193c-5.46-4.47-3.25-20.29,4.22-29.48,7.72-9.49,16.37-18.38,22.75-28.65,6.69-10.81,9.73-14.4,20-2,9.54,11.5,20,3.54,28.36-6.24,14-16.61,16.8-38.38,27.12-56.61,6.24-11,57.45-40,68.5-35.62s23.59,12.33,28.45,22.16c4.33,8.75-10.56,11.79-17.69,16.46-47.42,31.11-85.7,71.11-116.26,118.67-2.85,4.48-4,11.06-12.92,11.45a83.72,83.72,0,0,1,14.25-35.43c3.58-5.3,7.66-11.59,1.22-17.59-7-6.53-14.2-2.55-19.9,1.92-16.7,13.22-19.26,34.2-27.27,52.14-5.75,12.92-6,28.6-19.41,38.13-3.29-6.64-.79-12,.44-17.55C1734.89,214.31,1745,204.83,1730.67,193Zm.68,102.21c25.61,28.5,50.47,49.54,69.68,82.61C1746.24,338.34,1737.59,350.92,1731.35,295.24Zm80.49,57.84c-22.65-7.32-24.86-28-29.87-46.63,0-.1,4.08-1.28,6.29-1.92,0,0,.24-.3.24-.3-1-6.28-5.7-9.53-10.61-12.62s-18.72-.89-9.93-12.39c4.67-6.14,13.57-11.89,23.2-3,11,10.13,23.09,19.07,34.74,28.51C1822.11,321.09,1810.52,335.24,1811.84,353.08Zm14.35-137.59c-11.89,7.91-20.73,21.37-37.44,20.44l-2.51,2.21c.64-.93,1.28-1.82,2-2.7,8.7-21,28.16-32.68,42.41-48.9C1829.14,196.18,1827.67,205.86,1826.19,215.49Zm32.73,156.75c-26.39-.09-38.08-15.33-26.14-38.08,7.12-13.66,11.64-29.38,23.78-40.24,17,23.48,42.26,37.15,64.92,53.85,5.55,4.13,14.1,6,14.1,15.33C1910.57,370.77,1884.82,372.29,1858.92,372.24Zm90.17,14.89c-7.86,2.61-8.35-5-9.53-10.32,9.92-3.73,19.46-8.69,30.47-8.6C1970.42,382.56,1958.33,384.09,1949.09,387.13Zm11.4-30.95c-3-10.47-13.27-13.62-20.44-19.56-23.78-19.51-50.37-35.78-68.21-61.82a29.87,29.87,0,0,1,14.4-15c44.08,22.12,78.87,58.68,123.83,79.46C1995.43,350.38,1977.15,350.82,1960.49,356.18ZM2060.74,320c-7.91-8.35-12.88-6.83-20.59-4.37a590.39,590.39,0,0,1-94.55-79.22c9.73-1.13,19.41-2.31,29.14-3.49,12.39,26.69,39.51,34.7,62.41,46.64,32.73,17.15,67.47,30.51,101.33,45.45C2098.08,352.39,2092.09,352.88,2060.74,320Zm81.91,112.53c0-.05,0-.05,0-.1a.83.83,0,0,0,.1.34Zm-.09-127.08c-53-22.5-108.41-40-152.83-79.7,4.52-2.11,9-4.23,13.51-6.34l142.46,80.24C2144.67,301.63,2143.59,303.55,2142.56,305.46Zm34.59-10.27c-36.86-33.85-91.45-37.25-126.49-74.89,62.56,17.84,121.08,45.36,179.46,73.42ZM2221,326.45c-.24-9.68-12.43-8.8-14.79-16.66h32.92C2239.61,324.68,2228.21,323,2221,326.45Zm39-41.67c-17.49-3.2-35.87-4.18-45.75-23.1-1.42-2.75-7.08-5.16-10.42-4.72-39,4.92-64.62-24.62-102.26-35.48,44.47-21,79.81-4.32,113.07,12.49a537.11,537.11,0,0,0,62,26.43C2271.06,268.51,2265.55,276.67,2260,284.78Zm18.92,48.89c10.32-27.13,33.12-20.25,53.61-19.71C2317,326.94,2300,335.68,2278.92,333.67Zm26.48-34.89c1.13-9.39,7.47-14.25,12.78-19.75,18.82,6.34,40.79,5.6,54.35,23.88C2350.22,303.84,2328.11,302,2305.4,298.78Zm97.2,30.07c-6.14-15.67-28-1.81-33.81-18,10.57-5.6,24.38,5.75,33.67-6.49,12.58,1.72,25.06,3.64,35.92,10.91C2430.86,331.41,2413.22,320.79,2402.6,328.85Zm124.67,19.61c-1.28,6.59-8.06,5.16-12,4.13-22.7-5.8-50.37-3.44-59-33.81v0q31,10.17,62,20.3C2523,340.6,2528.35,342.71,2527.27,348.46Zm-35.48-53.27-14.1-3.49L2458,286.84c-12.14-10.66-30.56-5-42.55-16.81-10.37-10.17-26.93-11.35-40.59-28.3,37.74,5.26,69.43,16.61,102.41,18.57l28.69,6.59,24.13,5.55Z"/></svg>