<svg id="Layer_1" data-name="Layer 1" xmlns="http://www.w3.org/2000/svg" viewBox="0 0 3691.93 1865.7"><defs><style>.cls-1{fill:#a62b2a;}</style></defs><path class="cls-1" d="M2753.58,628.5c55.28,0,110.79-3.1,165.76,1,46,3.4,67,65.46,36.83,103.46-8.92,11.22-7.07,14.61,1.9,23.72,36.09,36.65,17.47,107.24-32.26,115.57-57,9.55-115.06,2.3-174.07,1.67,12-11.34,9.91-24.38,9.9-37q-.06-88.29,0-176.58C2761.68,649.66,2763.13,638.76,2753.58,628.5ZM2856.8,831.24c0-.25,0-.5,0-.74,13.82,0,27.66.53,41.45-.13,19.06-.92,27.38-12.57,27.23-30.63-.16-18.3-9.34-29.16-28.17-29.82s-37.54.84-56.07-1.09c-23.22-2.41-33.32,3.06-31,29.46,2.82,32.76.66,33,34.39,33Zm2.12-106.85v-.6c12.24,0,24.49.43,36.7-.1,17.21-.75,24.25-10.63,23.87-27.4-.36-16.18-8.56-24.1-24.2-24.41-20.4-.41-41,1.2-61.18-.8s-23,6.37-24,24.51c-1.27,23.58,5.37,33.14,29.26,29C2845.69,723.45,2852.39,724.39,2858.92,724.39Z"/><path class="cls-1" d="M2674.52,755.39c-9.83-9-8.5-12.63-.84-21.92,18-21.72,17.2-47.22,7-71.84-9.78-23.64-30-33.86-54.89-34.15q-68.7-.75-137.34-.5c-6,0-13.17-3-16.71,2.12,15.33,35.67,5.65,71.69,7.37,106.73v.24c-1.23,46,7.22,92.63-6.24,138.14,0,0,.1,0,.15,0,13.36-45.51,4.86-92,6.19-138v-.1c1.82,1.82,26.39,27,49.33,75.29a65.77,65.77,0,0,1,.2-9.59c2.7-32.53.59-32.67,32.19-32.67,13.9,0,27.81-.25,41.67,0,30,.59,40.39,8.41,40.73,30.32.35,22.85-10.46,31.06-41.86,31.65-8.21.15-16.37,0-24.52,0-5.75,0-11.55-.74-17.15.15-10.42,1.67-18.14,1.23-23.29-2.12a410.17,410.17,0,0,1,16.26,47.62c26.14-.69,52.33-.59,78.38-2.21,27.71-1.72,48.6-15.18,57.49-42.16C2697.81,804.67,2698,776.81,2674.52,755.39Zm-60.64-31.8c-23.59.79-47.22.2-70.81.94-10.86.34-14.69-4-13.76-14.35a70.47,70.47,0,0,0,0-17c-2.36-16.27,2.56-24.47,20.59-21.87,8.8,1.28,17.89.25,26.88.25v.29c12.19,0,24.42-.29,36.66.05,15.53.44,24,8.5,24.47,24.32C2638.35,712.78,2630.93,723.05,2613.88,723.59Z"/><path class="cls-1" d="M1016.6,875.84c-29.74,0-53.17,0-76.6-.05-4.4,0-7.19-1.28-6.66-7.15,3.49-38.21-26.09-61.81-43.3-90-5.8-9.51-30.16-5.26-44.55-1.44-12.56,3.34-6,18.54-5.56,28,1,22.65-7,46.58,9.32,69.1-23.58,2.68-45.68,2.49-72.68-.18,15.4-12.45,13.72-26.23,13.7-39.73-.07-57.22-.24-114.44.14-171.65.08-11.75-.58-22.59-12.13-31.42,13.26-7.28,25.46-4.19,37-4.27,38.42-.25,76.87-.63,115.25.74,38.59,1.38,60.19,19.39,66.8,52.63q12.65,63.5-38.12,88.7c-6,3-15.09,2-9.44,14.21C958.62,802.51,996.72,859.43,1016.6,875.84ZM888.43,731.45v-.34c11.45,0,22.92.48,34.34-.11,19.14-1,27.45-12,27.09-30.66-.34-17.61-8.7-27.8-26.68-28.38-17.16-.56-34.35-.42-51.52-.45-32.22,0-30.91.06-32.66,32.13-1.17,21.54,4,32.1,27.38,28C873.52,730.4,881.07,731.45,888.43,731.45Z"/><path class="cls-1" d="M1282.09,677.45,1247.8,639v.2q17.16,19.32,34.39,38.58A.93.93,0,0,0,1282.09,677.45Zm.1.35c-19.41,22.06,10,28.94,10,28.94Zm-43.14,37.83c11.64,29.88,6.58,59.07-6.49,86.54-14.94,31.4-43.93,31-73.12,27.57l-24.81,48.5c5.45-2.41,10.95-3.1,16.7-1l16.81.3c8.3-.49,16.56-.94,24.82-1.43,7-.44,14-.93,21-1.37,19.85-4.23,36.26-15.28,52.53-26.69l.24.84c.2-1.57.45-3.19.69-4.77q11-21.07,22-42.06c6.68-24.77,6-50.17,7-75.43C1296.44,726.64,1264.21,736.12,1239.05,715.63Zm-40.54-42.36c-19.36,35.58-40,70.13-76.17,91.75-.24,16.26.3,32.58-.83,48.79-1,14.45,5.16,19,18.52,17.4,6.44-.84,12.93-1,19.41-1.47,18.77-34.55,36-70.08,64.33-98.38,5.16-5.16,10.17-10.47,15.28-15.73C1235.51,692,1221.75,678.09,1198.51,673.27Zm0,0c-19.36,35.58-40,70.13-76.17,91.75-.24,16.26.3,32.58-.83,48.79-1,14.45,5.16,19,18.52,17.4,6.44-.84,12.93-1,19.41-1.47,18.77-34.55,36-70.08,64.33-98.38,5.16-5.16,10.17-10.47,15.28-15.73C1235.51,692,1221.75,678.09,1198.51,673.27Z"/><path class="cls-1" d="M3443.23,713.93v64.6c-29.21-18.61-60.95-7-91.33-9.49-6.7-.54-6.39,5.39-7.16,10.28-7.34,47.17-3.26,52,44.32,52,22.89,0,45.78-.06,68.68,0,12,0,24.43,1.85,33.46-15.7,3.88,27.06,2.55,48.53,1.5,73.56-11.78-12.52-24.36-13.68-38.1-13.54-55.52.59-111,.24-167.08.24,11.88-35.58,11.1-224-2.57-249.09h169.54c11.81,0,24.48,2.61,31.91-13.27,5,24.37,3.78,45.77,2.62,73.13-11-15.16-22.9-15.72-35.74-15.42-30.23.7-60.51.83-90.73,0-13.45-.39-18.12,3.17-18.14,17.44-.06,36.92-.84,36.91,35.31,36.91C3426.86,725.58,3426.86,725.58,3443.23,713.93Z"/><path class="cls-1" d="M265.4,874.81H198.86c12.42-27.68,11.47-224.46-.73-244.15,2.59-4.18,6.81-3.81,10.84-3.81,16.36,0,35.55-5.3,48.37,1.44,16.39,8.63-2.67,25.31-2,39.68,2.77,56.62,1.09,56.7,58.71,56.7,58.5,0,58.44,0,58.45-58.18,0-12.89,1.57-26-13.42-37.2,26.34-4,48.53-2.64,71.42-1.32-12.65,25.73-12,224.33,1.15,246.2H363.76c16.29-31.4,5.92-64.11,8.51-95.71.81-9.91-7.32-9-13.72-9-29.45-.09-58.9-.14-88.34.09-5.18,0-13.5-1.7-13.06,6.68C258.85,808,249.41,840.79,265.4,874.81Z"/><path class="cls-1" d="M734.52,874.53H653.43c20.26-19.85,5.06-36.39-2-52.78-5.31-12.35-90.47-11.45-97.72,0-12.05,19-13.38,35.1-3,52.31h-73c28.34-37.7,39.15-81.58,56.09-122.46,42.78-103.26,42-103.57,31.67-123.2H644c-15.57,16.27-5.27,31.15.9,46C667.12,728,689.8,781.29,712,834.83,717.58,848.39,722.56,862.07,734.52,874.53ZM602.89,696.59c-11.16,28.92-20.41,52.92-30,77.85H633.3Z"/><path class="cls-1" d="M2737.86,1166.54c30.08,47.87,58.64,93.39,87.32,138.82,1.7,2.69,4.76,4.51,6.61,7.14,4.42,6.27,21.33.86,16.52,12.5-4.46,10.81-19,6.22-28.5,4.63-14.58-2.42-23.45-14.1-31-26q-38.58-61.14-76.77-122.52c-5.75-9.29-10.82-20-23.95-15.7-12.16,3.95-5.94,15.53-6.09,23.43-.72,36-.37,72-.27,107.93,0,8.85-1.51,18.94,12.08,19.66,5.71.31,9.39,2.92,8.16,9.17-1.08,5.52-6,4.52-9.79,4.56q-23.31.21-46.62,0c-3.83,0-8.65.9-10.15-4.39-1.35-4.76.93-8.22,5.67-8.74,15.05-1.66,12.08-13.22,12.1-22.38q.32-121.44,0-242.87c0-7.83,1.82-16.51-7.21-21.86-4.84-2.87-15.21-2.35-11.22-12.13,2.62-6.4,10.18-3.5,15.54-3.53,27.81-.15,55.62-.16,83.42.28,20,.32,39,5.09,55,17.87,23.52,18.78,35.52,43.51,30.51,73.23-4.77,28.37-25.07,44.94-51.43,54C2759.42,1162.48,2750.46,1163.68,2737.86,1166.54Zm-27.57-19.49c16.08.68,29.15.6,41.83-3.17,22.77-6.77,36.88-25.58,37-48.91.15-50.47-53.53-84.23-99.4-62.84-9,4.19-7.78,11.55-7.86,18.59-.24,22,1.47,44.19-.52,66C2679,1142.19,2686,1154.47,2710.29,1147.05Z"/><path class="cls-1" d="M3041.82,628h63.9c-12.36,12.75-12.37,25.79-12.27,39.2.37,48.21.58,96.43-.12,144.64-.2,13.85,1.81,20.6,18.24,19.88,31.81-1.4,63.73-.57,95.61-.3,10.09.08,19.42-.5,26.07-17.22,5.95,28.38,3.26,50.19,2.82,79.59C3224.54,873.22,3210.36,876,3197,876c-53.59-.05-107.18,0-157.51,0C3047.5,792.39,3044.25,711.87,3041.82,628Z"/><path class="cls-1" d="M1074.92,1309.78c1.92-2.06,3.88-4,5.85-6-1.92,2-3.93,3.93-5.8,6Z"/><path class="cls-1" d="M1092.66,1283.54a10,10,0,0,0-.15-3.24A8.75,8.75,0,0,1,1092.66,1283.54Z"/><path class="cls-1" d="M2072.7,700.65c.3,20.09-10,30.22-29.87,30.46-9.78.1-19.51-.69-29.24-1.08-4.82.49-9.63,1.28-14.4,1.38-38.18.68-46.83-11.45-36.71-49.54,2.17-8,6-10.46,13.32-10.31,14.55.29,29,.44,43.59.68,8.11-.15,16.26-.49,24.37-.34C2062.48,672.19,2072.46,681.73,2072.7,700.65Z"/><path class="cls-1" d="M1434.42,776.08c-26.28-2.72-50.82-9.23-68.32-31.17,0-4-.84-7.48-5.34-8.74-1.23-7.17-2.66-14.31-3.66-21.51-6.84-49.31,28-91.95,76.44-92.9a208.56,208.56,0,0,1,74.1,12c2.81,3.53,6.32,5,10.8,3.68a5.43,5.43,0,0,0,3.59,1.34c5.26,6.79,11.72,10.28,20.59,8s9,3.37,8.3,9.52c-8.22,17.29-16.44,34.58-25,52.69-24.41-34-64.44-48.91-98.91-37.73-13,4.2-24.06,9.81-22.27,27.09,1.81,17.5,14.4,15.51,26.48,18.06,23,4.85,47,3.51,69.36,11.82,34.19,12.66,50.92,34.86,51.47,69.33.56,35.35-18.38,63-51.92,74.93-8.41,3-17.32,4.61-26,6.85l-10.72,1.22c-39.84,5.33-73.05-17.31-109.55-26.08-5.48-1.32-3.49-6.6-2.44-10.24,3.15-11,6-22.08,10.28-32.58,3.22-7.85,3.15-20.34,13.28-21.39,10.52-1.08,5.07,11.47,9,17.22,17.08,24.92,84.88,35.4,108.22,16,8-6.63,13-14.84,11.13-25.63-1.89-11-11.29-13.39-20-15.25-11.09-2.38-22.35-5.08-33.9-2.7C1445.18,775.51,1439.93,775.28,1434.42,776.08Z"/><path class="cls-1" d="M2407.05,847.13c4.38,8.9,10.62,17.3,22.31,26.78a.45.45,0,0,1,.25,0C2417.86,864.38,2411.57,856,2407.05,847.13Zm-21.13-50.32c6.14,14.7,12.19,29.39,18.28,44.08a14.76,14.76,0,0,0,.84,1.82c-.3-.69-.59-1.43-.89-2.11Q2395.09,818.7,2385.92,796.81Zm-57-136.21c.49,1.37,1,2.75,1.62,4.12q27.87,66,55.38,132.09-27.49-66.25-55.43-132.38C2330,663.15,2329.41,661.87,2328.92,660.6Zm16,214.79h.25c5.5-10.42,7.46-20.45,6.53-29.19C2352.51,854.94,2350.44,865,2344.89,875.39Zm-5-248.36c-29.88,0-51.06-.19-72.19.1-4,0-11.55.2-11.15,4.28,0-3.84,7.27-3.93,11.2-4,21.08-.3,42.16-.1,71.79-.1C2339.63,627.23,2339.78,627.13,2339.88,627Zm-147,200.89c-6.34,15.72-10.91,32.28-26.29,43.49.1.05.25.05.35.09,15.18-11.2,19.75-27.66,26-43.29,20.69-51.45,42-102.75,62.31-154.35,2.55-6.53,6.63-12.87,7.91-19.75-1.42,6.73-5.45,13-8,19.41C2234.82,725.17,2213.59,776.42,2192.85,827.92Zm46.49,44.81h0a66.43,66.43,0,0,1-2.9-6A47,47,0,0,0,2239.34,872.73Z"/><path class="cls-1" d="M1825.33,700.35a.19.19,0,0,1,0,.1c-10.13,16.56-17.1,12.68-22-3.79C1813.35,689.34,1824,699.07,1825.33,700.35Z"/><path class="cls-1" d="M1842.58,658.83a.59.59,0,0,1,0,.29c-18.28,3-29.73-9.78-43.34-17.59C1738.06,606.44,1670,619,1627.11,673.47l57.24,12.83c-43.73,28.64-37.64,127.22,20.45,141.13l-13,49.43c-10.17-4.62-20.39-9.24-30.56-13.81,0,0,5.75-8.15,0-23.88s-28.9,0-28.9,0c-32.72-54.2-37.15-109.43-5.45-165.75,0-.1.1-.15.15-.24,42.89-54.5,110.9-67,172.08-31.95C1812.76,649.05,1824.25,661.87,1842.58,658.83Z"/><path class="cls-1" d="M1842.93,839.27c-40.84,17.05-76.22,46.19-122.21,42.55l9.14-48.35c22.4,3.14,42.16-2.85,59.46-17.25,0,0,8.64,26.34,19,17.59s9.39-43.39,9.39-43.39C1826.51,807.48,1835.31,824.53,1842.93,839.27Z"/><path class="cls-1" d="M1685,1248.5c-.29,17.89-.64,35.73-.39,53.62.1,7-1.87,12.92-10.12,14.39-4.13.69-7.62,3-7.37,7.13,0-4,3.43-6.14,7.42-6.83,8.25-1.48,10.27-7.42,10.17-14.4C1684.4,1284.43,1684.75,1266.44,1685,1248.5Zm45.65-236.16-2.06,17.69c3.73-2.06,7.27-1.28,10.81.59.44-5.6,13.37-18.13,13.37-18.13C1745.38,1014.35,1738,1015.29,1730.64,1012.34Zm71.3,10.47c-10.9-2.85-21.81-5.66-32.72-8.51,8.89,6.34,14.15,24.87,14.15,24.87,10.71,1.72,19.66,6.73,27.42,14.1A60.68,60.68,0,0,0,1801.94,1022.81Z"/><path class="cls-1" d="M1778.6,1328.31c-19.51,1.18-39,2.36-58.47,3.58-17.74-103.73-10.22-142.65-10.22-142.65,1.72-42.9-27.08-30.76-27.08-30.76a.61.61,0,0,1,0-.29c4.77-37.94.93-76,2-114,.09-4.81-.89-9.34-4.57-13.32-4.43-4.76-18-2.6-13.62-12.92,3.44-8.16,15-1.67,22.31-5.11,0,0,8.65,96.61,25.65,131.1-3.44,45.41,0,90.72.64,136.12.5,38.48,4.92,42.16,42.31,32.43,7-1.77,13.61-4.86,20.45-7.32Z"/><path class="cls-1" d="M1856.24,1295.29q-16.87,10.17-33.75,20.29c-2.71-12.53,5.15-31.6,5.15-31.6,8.6-3.24,15.19-9,20.5-16.36C1848.82,1287.28,1856.24,1295.29,1856.24,1295.29Z"/><path class="cls-1" d="M1915.06,1203.49c-4.76,6.29-4.71,13.66-4.66,21-5.07,10.37-10.13,20.79-15.19,31.16,0,0-7.32-8.89-7.32-26.29a47.4,47.4,0,0,1,.59-6.54c3.29-25.45,19-92-21.33-103.53.25-7.62-3.24-13.12-9.43-17.15,0,0,8.5-20.69,7.17-39.66C1899.14,1103.25,1920.47,1148.6,1915.06,1203.49Z"/><path class="cls-1" d="M1363.81,1256.51c0-2.85,0-5.7,0-8.55C1384.26,1254.11,1363.81,1256.51,1363.81,1256.51Z"/><path class="cls-1" d="M1363.57,1272.19c17.69,6,0,18.67,0,18.67C1363.52,1284.62,1363.57,1278.43,1363.57,1272.19Z"/><path class="cls-1" d="M1363.67,1206.88c0-7.71,0-15.38.09-23.09,0,0,12.58-11.94,22.17,6.58S1363.67,1206.88,1363.67,1206.88Z"/><path class="cls-1" d="M1346.52,1018.68c1.62-5.06,6.24-4.38,10.07-4.38,17.89.05,35.77.35,53.66.59.93,2.41,1.87,4.82,2.75,7.28-16.9,6.14-20.83,18.72-20.24,35.72,1.37,40.3,1.23,80.69,1.72,121-15.87-39.26-30.86-45.35-30.86-45.35q.74-42.69,1.52-85.36c.2-9.68-2.11-17.74-12.78-20.88C1348.24,1026.1,1344.8,1023.89,1346.52,1018.68Z"/><path class="cls-1" d="M1413.54,1321c-1.18,3.24-2.36,6.43-3.53,9.68l-9.59.44L1375,1332l-18.92-1c-10.71-2.16-13.37-6.93-4.91-15.23,10.76,2,13.26-3.88,12.28-13,16.27,10.67,31.75-1.57,31.75-1.57C1390,1318.33,1407.4,1314.45,1413.54,1321Z"/><path class="cls-1" d="M1380.91,1554.74c-38.52-39.36-44.71-91.69-58.37-141-4.13-14.84-16.81-25.16-17-44.72-22.06,22.76-27.17,44.48-16.07,69.39a273.47,273.47,0,0,1,20,65.06c1.13,6.49,5.11,13.37-2.41,17.1-8.8,4.33-14.2-3.09-17.3-9.43-8-16.07-21.23-29-26.73-46.44a48.46,48.46,0,0,0-16.27-24c-2.11-1.62-6.38-2.11-8.89-1.13-3.29,1.28-4,5.45-1.82,8.26,8,9.92,1.57,22.35,6,32.77,3.53,8.5,6.83,16.86-1.67,24.52-6.79-8.2-20.35-5.94-25.61-16.31-9.82-19.56-12-40.25-15.18-61.87-4.23-28.65-3.54-60.29-20.59-86.53l.2.19v-.14h0c-15-31-22.56-64.53-33.52-96.86-2.85-8.45-3-17.35-11.15-23.09-1.92-1.38-4.87-4.18-4.47-5.51,10.12-34.64-26-64.27-10.42-99.56,5.6-12.77,2.55-25.25-5.85-36.36-2.55-3.39-4.76-8.06-.15-10.56,6.59-3.54,8.31,2.65,9.54,7.12,3.39,12.14,6.34,24.42,11.25,43.83,10.22-25.3,2.75-45.7,8.75-64.86,6.68-21.18,10.71-42.85-1.18-67.67-9-18.67,6-43.73,11.55-65.6,3.73-14.89,13.21-28,14.64-43.78l-16.81-.3c-1,15.93-8.84,29.39-15.33,43.44-11.64,25.46-18.08,51.5-12.77,80,3,16.22-4.87,31.4-9.73,47.67-20.64-41.92-4.92-80.49,7.56-118.63,5.61-17,10.52-33.95,13.57-51.54a74.94,74.94,0,0,0-33.71-.15c-6,19.07-11.9,38.18-19.91,63.93-3.73-26.14,3.64-44.82,4.43-63.78a24.12,24.12,0,0,0-11.94-2.07,35.47,35.47,0,0,0-5.9,1q-.81,72.08-1.62,144.22l2.55,2c1.58,1.27,3.15,2.6,4.67,3.93.94.83,1.82,1.67,2.7,2.5.59.54,1.13,1.08,1.67,1.67.69.69,1.38,1.43,2,2.12s1.28,1.47,1.87,2.21a34.18,34.18,0,0,1,3.24,4.52,19.13,19.13,0,0,1,1.28,2.11,2,2,0,0,1,.24.49c.4.74.74,1.43,1.09,2.22a20.1,20.1,0,0,1,.93,2.3,16.41,16.41,0,0,1,.69,2.12,34.54,34.54,0,0,1-.05,18.72,47.71,47.71,0,0,1-2.21,6.39,2.66,2.66,0,0,0-.2.69,1.51,1.51,0,0,0-.15.68c-.29,1.33-.29,2.8-.49,4.13a7,7,0,0,1-.54,2.07,4.74,4.74,0,0,1-.54.83,4.26,4.26,0,0,1-2.7,1.48h0a7.56,7.56,0,0,1-7.23-2.22,9.79,9.79,0,0,1-1.86-2.55c-.3-.49-.54-1-.79-1.48s-.44-1.08-.64-1.62c-3-8.35-5-17.24-14.2-21.37-19,11.79-12.73,32-10,46.14,10.56,55.18,19.11,110.56,24.81,166.44a50.19,50.19,0,0,1,8.55,2c.84.25,1.62.54,2.36.84a19.67,19.67,0,0,1,2.11.93s.1.05.15.05c.59.34,1.18.64,1.67,1a15.18,15.18,0,0,1,3,2.36,10.11,10.11,0,0,1,1.28,1.62,9,9,0,0,1,1.42,3.69,10,10,0,0,1,.15,3.24,23.66,23.66,0,0,1-3.59,9.68c-.83,1.38-1.77,2.8-2.85,4.28-.83,1.13-1.72,2.21-2.6,3.24s-1.87,2.06-2.85,3c-2,2-3.93,3.93-5.85,6,8.5,16.81,22.26,31.5,16.46,53.32-2.7,10.22,3.69,22.36,6.44,30.76,9.34,28.6,25.16,55.23,44.13,79.51,10.07,12.87,9.09,34.05,29.53,39.26,3.74-4.91,7.42-9.78,14.84-19.46-2.31,25-.39,43.74,13.37,59,13.36,7.12,29.33,12.43,22.8,33.17h0c.64.69,1.32,1.33,2,2,5.85-1.27,11.16-2,12.88,6.15,2,9.63,8.5,15.08,17.83,17.44,7.42-6.44,14.8-12.92,22.22-19.36,2.8-13.37-13.71-9.09-16.81-18.82a17.15,17.15,0,0,1,6.44-.74l.44,0,64.08,4.47c13.9,2.31,26.58-3.49,39.8-5.94C1376.64,1566.34,1391.92,1566.05,1380.91,1554.74Zm-202-214.39,0,.05v-.05Z"/><path class="cls-1" d="M1027.34,972.62c2.35-29,13.45-56.37,14.84-85.66C1032.8,914.66,1024.19,942.77,1027.34,972.62Z"/><path class="cls-1" d="M1287.37,1635.09a5.63,5.63,0,0,0-1.52-1.42,8.18,8.18,0,0,0,1.23,1.81Z"/><path class="cls-1" d="M1288.26,1622.21c1.93-7.22,10.11-16.48-.11-21.12-10.57-4.79-14.61,6.82-19.13,14-1.55,2.48-1.3,6.09-1.87,9.18.52,6.49,6,8.21,10.46,11,2.75-.21,5.46-3.3,8.24-1.57C1283.85,1629.6,1287.25,1626,1288.26,1622.21Z"/><path class="cls-1" d="M1065.9,829.43c-13.53,10-16.83,24.25-17.38,39.59,6.84-12.7,16.82-24.07,17.72-39.26Z"/><path class="cls-1" d="M1071.33,829.44c-1.72.1-3.39.2-5.11.34l-.34-.34c-.2-4.27,1.38-7.57,5.16-9.68C1071.14,823,1071.24,826.25,1071.33,829.44Z"/><path class="cls-1" d="M1217.63,1590.29c.78.73,1.56,1.48,2.32,2.23,1.54-1.75,3.08-3.49,4.61-5.25l-2-1.94Q1220.09,1587.82,1217.63,1590.29Z"/><path class="cls-1" d="M1215.47,1595l4.48-2.52c-.76-.75-1.54-1.5-2.32-2.22Z"/><path class="cls-1" d="M1239.05,715.63c-5.11,5.26-10.12,10.57-15.28,15.73-28.36,28.3-45.56,63.83-64.33,98.38-6.48.49-13,.63-19.41,1.47-13.36,1.62-19.56-3-18.52-17.4,1.13-16.21.59-32.53.83-48.79,36.17-21.62,56.81-56.17,76.17-91.75C1221.75,678.09,1235.51,692,1239.05,715.63Z"/><path class="cls-1" d="M1264.44,892.32c25.63-56.08,56-107,101.66-147.41,0-4-.84-7.48-5.34-8.74-23.3,7.21-35.92,26.29-49.43,44.41-6.17,8.28-9.89,19.11-21.88,21.48l-22,42.05c-.23,1.6-.45,3.2-.68,4.8l-.25-.84C1270.76,862.48,1251,875.82,1264.44,892.32Z"/><path class="cls-1" d="M1340.47,681.63c-5.55,26.78-23.58,37-44,45-5.21-5.8-4.22-13-4.27-19.9C1309.51,703.1,1320.47,686.69,1340.47,681.63Z"/><path class="cls-1" d="M1201.21,904.47c10.44.82,9.53-17.28,12.77-27.36a8.24,8.24,0,0,0,0-2.38l-21,1.39C1196.33,885.88,1187.44,903.4,1201.21,904.47Z"/><path class="cls-1" d="M1348.29,1606.89c-.58,12.54-17.7,27.52-4.5,35.25,11.58,6.77,26.66-5.91,37.73-15.61-16-10.66-16.83-28.17-20.17-44.55C1347.52,1585.19,1348.7,1597.89,1348.29,1606.89Z"/><path class="cls-1" d="M1489.56,1208.6c-16.07,17.3-19.8,36.07-20.68,57.3-.1,2.41.68,5,.29,7.27-1.57,9.39-1,23.49-10.42,25-12.18,2-11-13.17-14.59-21.43-4.13-9.24-7.23-18.23-5.31-29.34,1.67-9.77,1.28-21.47-12.92-28.1-1,28.2-22.12,47.56-29,72.58a58.7,58.7,0,0,0-1.81,9.38c-3.3-40.74-2-81.52-.69-122.31,23.29,13.37,40.73,18.38,31.74-20.19-1.13-4.92,3.44-14,8.06-17,42.16-26.93,36.71-72.18,44.37-112.38.64-3.14-.19-6.54.15-9.78.84-7.32,4.13-13,12.48-11,7.23,1.72,5.75,6.83,5.11,13.32-4.22,42.46-11.45,84.57,5.46,127C1509.66,1168.46,1504,1193.07,1489.56,1208.6Z"/><path class="cls-1" d="M1214.17,1375.46c3.29,19.91,17.18,34.37,33.12,46.4,3.82,2.89,8.4,9,12.14,5.21,4-4.1,8.15-14.8,6.06-17.17-20.14-22.81-10.25-49.68-12.12-75-2.49-33.83-14.87-41.29-45.93-24.53,8.18-66.94-2.71-130.35-13-194-14,22.85-11.15,49.13-21.17,72.94,3.54-32.46-6.06-64.36-.72-96.91-22.42,29.53-23,62-13.52,95.73,3.77,13.41,14.39,25.87,11.82,39.87-4.49,24.43-4.82,47.83,3,71.61,4.31,13,7.31,26.73,5.31,40.81C1196.58,1346.34,1210.66,1354.14,1214.17,1375.46Z"/><path class="cls-1" d="M1391.81,1382c17.7,10.45,12.68,18.87,9,30.75-8.58,28.11-3.68,56.29-1,84.49,27.64-3.89,55.14-1.3,82.63,1.91-10.9-47.81-9.87-98.41-29.38-143.89-9-20.94-3.1-43.24-12.81-63.19-2.65-5.44-4-10.78-11-11-7.73-.26-8.77,5.26-9.79,11.33-1.62,9.63-3.94,19.14-6,28.7l-3.57,9.66c-7.42,14.08,3.42,30.7-9.57,44.67v-44.21L1375,1332C1374.34,1351.11,1380.66,1375.36,1391.81,1382Z"/><path class="cls-1" d="M1906.76,762.81c-2.32-20-15.26-30.56-33-34.41-11-2.38-22.63,1.22-31.13,9.93-4.59,4.71-3.64,10-.37,15.58,15.92,27.27,20.69,57.9,23.7,88.43,2.38,24.21,13.71,44.86,21.35,67,2.7,7.8,8.61,14.14,18,14.22,11.47.11,12-10.07,13.77-17.24,2.31-9.34,2.16-19.28,3.06-29-4.68-4.48-20.31,3.13-15.36-10.6,9.73-27,3.63-54.09,4.49-81.12C1903.21,779.34,1907.66,770.49,1906.76,762.81Z"/><path class="cls-1" d="M1370.05,1452.24c-10.61,4-11.74-7.52-15.33-14.5-25-49.24-36.46-102.21-42.16-156.41-3.93-37.35,10.12-72.14,20.93-112.28,12.44,21.52,10.86,40.83,13.86,66.19,4.77-14.84,4.38-26.29,16.32-28.36l.19,41.08c-4.57-2.94-10-9.09-13.51-8.1-8.35,2.35-3,10.81-3.73,16.61-2.27,20,.49,39.7,4.52,59.31-8.46,8.3-5.8,13.07,4.91,15.23-4.86,35,14.3,66,16.81,100C1373.4,1438.63,1380.33,1448.45,1370.05,1452.24Z"/><path class="cls-1" d="M1232.19,1119.49c-6,21.91-7.52,44.75-11,67-2.71,17.28,5.34,36.43,9.6,54.52,1.37,5.82,3.2,15.51,10.64,14.6,22.65-2.78,18,14.85,15.47,23.62-7.32,25.77,5.24,45.31,15.86,65.88,2.18,4.22,5.26,9.47,11,7.28s4.41-8.46,3-12.69c-5.79-17.51-5.35-35.47-4-53.31,2.51-33.73,6.16-67.38,8.8-101.1.44-5.65,4.49-14.33-5-16.33-7.35-1.53-11.81,4.67-14.83,10.59a197,197,0,0,0-8.59,20.17,123.6,123.6,0,0,0-5.77,18.39c-1.19,5.76-.69,12.09-10.46,13.21,4.14-36.9,2.44-73.33,1.68-109.77-.13-6-.74-13-7.09-14C1234.05,1106.41,1233.63,1114.2,1232.19,1119.49Z"/><path class="cls-1" d="M1864.89,1062.51c-19.36-15.82-39.41-30.52-63-39.7,11.45-20.69,18.19-42.56,16.22-66.54-2.06-24.47,15.77-42.46,17.69-64.13C1885.63,943,1857.37,1005.41,1864.89,1062.51Z"/><path class="cls-1" d="M1737.46,961.67c7.18,11.47.56,32.34,20.53,34.54,13,1.43,25.24-6,28.87-18.47,5.17-17.8,8.85-36.63,6.65-55.36-3.1-26.39-18.6-32.08-41-18.77-17.81,10.58-10.59,27.29-13.42,38.68C1738.18,950.69,1735.09,957.89,1737.46,961.67Z"/><path class="cls-1" d="M1520.65,1032.25c-3.26,17.48-6.86,35.32-6.53,52.93.32,16.76,5.42,33.45,8.6,50.14.8,4.17,3.12,8,7.69,8.32,3.58.28,5.87-2.64,6-6.18,1.6-34.17,20-64.88,19.77-97.21,2.38-13.86-.57-25-13.13-26.53C1531.68,1012.3,1522.79,1020.74,1520.65,1032.25Z"/><path class="cls-1" d="M1803.27,696.66c-40.93,11.6-80.19,4-118.92-10.36C1720.67,658.38,1765.24,662.27,1803.27,696.66Z"/><path class="cls-1" d="M1661.26,863.05c-11.55,11.65-14.55,26.78-15.68,42.12-.69,8.59-3.68,14.54-12,15.67-8.6,1.13-14.59-5.26-16.12-12.24-5.55-25.15-5.55-49.63,14.94-69.43Z"/><path class="cls-1" d="M1413,1022.15c15.68,11.78,26.43,8.17,33.56-10,5.28-13.43,12.67-26.1,17-39.78,2-6.31,9-15.49-2.28-21.32-11.6-6-16.54,2.91-21,10.33-10.48,17.57-20.13,35.63-30.11,53.49C1411.17,1017.31,1412.1,1019.73,1413,1022.15Z"/><path class="cls-1" d="M1730.64,1012.34c-13.85,3.44-27.81,2.7-41.77.54,6.15-13.81,4.23-28.85,7-43.15,1.67-8.3,5.16-19.36,15.18-19.75,9-.34,10.77,9.88,14.16,17.49C1731.72,982.12,1731.23,997.11,1730.64,1012.34Z"/><path class="cls-1" d="M1546,901.56c-5.09,9.16-3.42,19.07-4,32.73.82,5.8,1.41,15.64,3.79,25,1.78,7.06,0,18.64,12.19,17.71,12.06-.93,9-11.11,9.19-19,.43-16.25-.22-32.68,2.14-48.66,1.21-8.15.73-12.62-7-14.88C1555.24,892.45,1549.72,894.82,1546,901.56Z"/><path class="cls-1" d="M1571.25,860.86c9.78-17.58,19.15-35.39,28.57-53.17,1.93-3.63,3.46-7.91-.49-11-3.64-2.8-8.44-1.47-11.16,1.2-16.49,16.22-35.78,30.72-37.41,55.27-2.84,7.59-1.35,12.89,4.82,15.45C1563.24,871.84,1568,866.67,1571.25,860.86Z"/><path class="cls-1" d="M1817.92,754c-.2,12.19-.15,24.33-.2,36.46a12.54,12.54,0,0,0-4.52,1.33,5.75,5.75,0,0,0-.94.54,9,9,0,0,0-.88.59,17.81,17.81,0,0,0-4.13,5c-.29.5-.59,1-.83,1.48-.45.78-.84,1.67-1.28,2.5v0l-15.82,14.35c-4.48-22.21,6.14-43.09,5.79-65.11-.14-7.22,5.7-14.35,14.65-12.68C1817.62,739.91,1818.06,747.13,1817.92,754Z"/><path class="cls-1" d="M1413.32,1164.63c12.72-29.3,5.67-59.71,13.64-87.7C1395.78,1098.63,1391.61,1128,1413.32,1164.63Z"/><path class="cls-1" d="M1401,917.33c-27.58-1.53-17.75,20.81-22.3,34.13-2,6-1.38,11.29,5.66,13.23,5.33,1.48,29.31-26.85,29.88-34.71C1414.94,920.31,1409.69,917.81,1401,917.33Z"/><path class="cls-1" d="M1283.82,1105.22c-9.71,4.93-12.27,13.85-10.68,23.94,1.31,8.34,1.55,20,13.72,18.88,11.36-1.09,15.58-11.38,14.34-21.64C1300.06,1117,1296.57,1107.48,1283.82,1105.22Z"/><path class="cls-1" d="M1720.27,886.54c-4.17,10,7,28.45-9.43,29.78-12.73,1.08-14.1-16.9-18.08-27.76-1.33-3.54-.69-7.82-.94-11.7l28.9,5C1720.62,883.4,1720.86,885.17,1720.27,886.54Z"/><path class="cls-1" d="M1733.25,819.61c-.69,4.67-2.26,9.24-3.39,13.86-9.09,1-17.69,0-25.06-6,.78-5.46.14-11.65,2.65-16.07,3.88-6.78,9.73-14.06,19.06-10.37C1734.62,804.18,1734.28,812.34,1733.25,819.61Z"/><path class="cls-1" d="M1461.16,915.65c8.2-7.48,16.43-15.29,16.46-27.51,0-2.94-2.29-5.89-3.52-8.84l-10.72,1.21c-.76,3.1-1.36,6.24-2.29,9.28-2.48,8-11,14.7-5.81,24.34C1456,915.41,1460.29,916.45,1461.16,915.65Z"/><path class="cls-1" d="M1363.76,1183.79c-6.24-16.71-13-33.47-.14-50.22Z"/><path class="cls-1" d="M1434.08,805.85c6.73-8.41,14.49-14.71,15.33-26-4.23-4.32-9.48-4.55-15-3.75C1437.25,785.41,1424.89,793.63,1434.08,805.85Z"/><path class="cls-1" d="M1769.22,1014.3c-5.46-.63-11-1.22-16.46-1.81C1759.24,1004.13,1764.3,1008.75,1769.22,1014.3Z"/><path class="cls-1" d="M1846.62,1492.67l.41-.35v-.21Z"/><path class="cls-1" d="M1896.77,1402c-10.33-14-21.35-13.52-29.8,1.65s-13.25,31.17-10.24,48.78c18.3,18.69,2.81,28.9-9.7,39.86.14,1.76.28,3.52.41,5.27,7,6.55,9.36,16.35,8.8,24.16-1.68,23.33-2.38,46.22,5.51,68.64,4.55.75,10.19-.49,11.43,6.27,21.44-7.24,29.2-24.35,28.4-44.62-.63-15.82,1.08-31.77,5.67-45.62,10.51-31.7-5.36-61.11-3.67-91.7C1903.81,1410.61,1899.65,1405.91,1896.77,1402Z"/><path class="cls-1" d="M1821.16,1380.3c-.69,7.76-3.83,16.66-13.47,18.23-10.27,1.72-14.15-6.73-17.24-14.06-7.57-17.88-14.6-36.06-11.85-56.16l43.89-12.73C1829.51,1337.3,1823,1358.82,1821.16,1380.3Z"/><path class="cls-1" d="M1887.3,1357.94c-7.91.2-8.3-8.75-11.25-14.2-4.43-8.16-4.33-17.2-5.06-26.14-.89-10-2.46-19.76-14.75-22.31q19.47-19.83,39-39.61c7.08,28.45-.24,57.64,4.13,86.39C1900.22,1348,1896.19,1357.74,1887.3,1357.94Z"/><path class="cls-1" d="M2033.94,815c.79-3.08-.27-5.31-3.1-6.73C2029.77,811.46,2030.81,813.69,2033.94,815Z"/><path class="cls-1" d="M1507.64,633.73c2.81,3.53,6.32,5,10.8,3.68C1516,632.82,1512.07,632.51,1507.64,633.73Z"/><path class="cls-1" d="M2307.94,776c-47.23,4-47.77,3.63-30.18-40.84,4.33-11,8.75-21.92,15.24-38.08,9.68,24.76,17.25,44.32,24.91,63.83C2321.79,770.82,2319.93,775,2307.94,776Z"/><path class="cls-1" d="M1882.14,1192.09v.2a12.14,12.14,0,0,1-.2,1.42c-.09,1.18-.24,2.36-.44,3.49-.1.74-.19,1.48-.34,2.17-.15,1.13-.35,2.21-.54,3.29-.49,2.75-1.08,5.45-1.82,8.15-.3,1.18-.59,2.36-.93,3.54-.4,1.43-.84,2.9-1.38,4.38-.34,1.18-.69,2.26-1.13,3.39-.49,1.47-1,2.9-1.62,4.32-.64,1.67-1.33,3.29-2,5s-1.67,3.69-2.6,5.51-1.82,3.63-2.85,5.4c-.84,1.53-1.72,3-2.66,4.57-.34.64-.73,1.23-1.13,1.87-.88,1.38-1.76,2.75-2.7,4.08s-1.77,2.6-2.75,3.88c-.54.79-1.13,1.57-1.77,2.36-2.21,3-4.62,5.8-7.12,8.55-.74-29.09-2.07-57.64-13-85.6-10.17-25.85,6.44-55,32-62.7Z"/><path class="cls-1" d="M1786.37,1114.89c2.16,12.39-7.13,20.4-17,23.3-10.07,2.94-12.72-7.62-15.47-15.14-10.77-29.88-17.65-60.39-14.5-92.43l44,8.55C1792.26,1064.08,1781.9,1089.68,1786.37,1114.89Z"/><path class="cls-1" d="M1857.72,1102.17c-5.75,19.11-18.23,18.08-32.24,10.27-16.46-9.19-24.32-41.92-14.69-59.17Z"/><path class="cls-1" d="M2241.42,1313c-11.27-48.88-2.05-99.19-10.4-148.28-15.31-4.21-15.5,5.37-15.42,16.24.24,36.69,1,73.41-.26,110C2214.61,1311.68,2222.65,1317.64,2241.42,1313Z"/><path class="cls-1" d="M2257.47,1269.85c-15.9,13.36-.29,29-3.58,43.11l12.23-.56C2261.68,1298.58,2271,1281.86,2257.47,1269.85Z"/><path class="cls-1" d="M2216.79,1070c-1.67,15-2,30.07.53,45.06C2228.53,1099.86,2222.83,1084.9,2216.79,1070Z"/><path class="cls-1" d="M2220.41,1144.37l-3.24-5.8C2215.75,1141.9,2216.43,1144.05,2220.41,1144.37Z"/><path class="cls-1" d="M1363.81,1256.51l-.24,15.68C1359.24,1266.88,1358.26,1261.67,1363.81,1256.51Z"/><path class="cls-1" d="M1363.52,1290.86l-.1,11.94C1359.88,1298.82,1359.34,1294.84,1363.52,1290.86Z"/><path class="cls-1" d="M2142.68,432.44c0,.05,0,.05,0,.1l.15.24A.83.83,0,0,1,2142.68,432.44Zm246.14-250.66a4.19,4.19,0,0,1-.83-.1c-.1.15-.15.34-.25.49a9.38,9.38,0,0,0,1.52.84A6.32,6.32,0,0,0,2388.82,181.78Zm126.93,73-.34.34c0-.09-.1-.14-.15-.14l.1.19.49.3C2515.8,255.24,2515.8,255.05,2515.75,254.8ZM2097.27,505v.15h.05V505Zm.1.3v.14h.05v-.14Zm142,367.46c-21.08,5.46-51.84,5.21-72.43-1.23-.1,0-.15.15-.25.2,20.59,6.54,51.6,6.83,72.83,1.38A1.06,1.06,0,0,1,2239.34,872.73ZM2258.26,635a9.89,9.89,0,0,1-1.67-3,7.83,7.83,0,0,0,1.72,3.34,28.16,28.16,0,0,1,4.22,7.42A26,26,0,0,0,2258.26,635Zm59.65,125.9c-7.66-19.51-15.23-39.07-24.91-63.83-6.49,16.16-10.91,27.12-15.24,38.08-17.59,44.47-17.05,44.82,30.18,40.84C2319.93,775,2321.79,770.82,2317.91,760.94ZM2311,814h-36.75c-27.42,0-43.64,17.54-41.08,39.9-2.31-22.21,13.85-39.6,41.17-39.6h36.76c19,0,32.73,8.79,38.18,22.21C2344,822.86,2330.2,814,2311,814Zm28.5-186.63c-8.25,6.53-11.89,12.43-12.87,17.93,1.13-5.45,4.86-11.35,13.27-17.93Zm89.83,246.58c-31.69,4.08-57.25,2.85-84.22,1.48l-.15.29c27.07,1.38,52.77,2.61,84.67-1.52C2429.56,874.06,2429.46,874,2429.36,873.91Zm-348.11,727.27a.62.62,0,0,0-.09-.29,8.9,8.9,0,0,0,.19,1.22A6.42,6.42,0,0,1,2081.25,1601.18Zm-39.7-151.2a40.34,40.34,0,0,0,.34-6.49A41.53,41.53,0,0,0,2041.55,1450Zm1.43,160c.54,5.06-.25,10.32-2.61,13.31-9.63,12.29-15.67,28.8-34,36.17v.34c18.42-7.37,24.47-23.93,34.1-36.21C2042.88,1620.54,2043.61,1615.14,2043,1610Zm-33,10.51c-4.86,5.16-6.88,13.71-15.28,14.5a.61.61,0,0,1,0,.29c9.19-.83,10.76-11,16.66-15.82A12.77,12.77,0,0,1,2010,1620.49Zm6.44-3.63a10.82,10.82,0,0,0-3.74,1.37s0,0,0,0a13.39,13.39,0,0,1-1.13,1.13,11,11,0,0,1,5-2.26c2.16,1.92,4.27,3.88,6.39,5.8v-.15C2020.81,1620.79,2018.65,1618.82,2016.44,1616.86ZM1550.1,1535l0,0c.2.69-.59,2.11-.83,3.1l-6-5.75a.17.17,0,0,0-.14.05l6.29,6C1549.61,1537.25,1550.55,1535.63,1550.1,1535Zm-7.27-2.85.1-.1a4.46,4.46,0,0,0-.59.34c.05.1.05.2.1.3a2.72,2.72,0,0,1,.59-.34ZM1385.48,603.84a1.72,1.72,0,0,0-.14.25c-.25.49-.44.93-.69,1.47.34-.49.64-1,1-1.52.1,0,.15-.15.25-.2Zm932.43,157.1c-7.66-19.51-15.23-39.07-24.91-63.83-6.49,16.16-10.91,27.12-15.24,38.08-17.59,44.47-17.05,44.82,30.18,40.84C2319.93,775,2321.79,770.82,2317.91,760.94Zm0,0c-7.66-19.51-15.23-39.07-24.91-63.83-6.49,16.16-10.91,27.12-15.24,38.08-17.59,44.47-17.05,44.82,30.18,40.84C2319.93,775,2321.79,770.82,2317.91,760.94Zm0,0c-7.66-19.51-15.23-39.07-24.91-63.83-6.49,16.16-10.91,27.12-15.24,38.08-17.59,44.47-17.05,44.82,30.18,40.84C2319.93,775,2321.79,770.82,2317.91,760.94Zm0,0c-7.66-19.51-15.23-39.07-24.91-63.83-6.49,16.16-10.91,27.12-15.24,38.08-17.59,44.47-17.05,44.82,30.18,40.84C2319.93,775,2321.79,770.82,2317.91,760.94Zm0,0c-7.66-19.51-15.23-39.07-24.91-63.83-6.49,16.16-10.91,27.12-15.24,38.08-17.59,44.47-17.05,44.82,30.18,40.84C2319.93,775,2321.79,770.82,2317.91,760.94Zm0,0c-7.66-19.51-15.23-39.07-24.91-63.83-6.49,16.16-10.91,27.12-15.24,38.08-17.59,44.47-17.05,44.82,30.18,40.84C2319.93,775,2321.79,770.82,2317.91,760.94Zm0,0c-7.66-19.51-15.23-39.07-24.91-63.83-6.49,16.16-10.91,27.12-15.24,38.08-17.59,44.47-17.05,44.82,30.18,40.84C2319.93,775,2321.79,770.82,2317.91,760.94Zm0,0c-7.66-19.51-15.23-39.07-24.91-63.83-6.49,16.16-10.91,27.12-15.24,38.08-17.59,44.47-17.05,44.82,30.18,40.84C2319.93,775,2321.79,770.82,2317.91,760.94Zm0,0c-7.66-19.51-15.23-39.07-24.91-63.83-6.49,16.16-10.91,27.12-15.24,38.08-17.59,44.47-17.05,44.82,30.18,40.84C2319.93,775,2321.79,770.82,2317.91,760.94Zm0,0c-7.66-19.51-15.23-39.07-24.91-63.83-6.49,16.16-10.91,27.12-15.24,38.08-17.59,44.47-17.05,44.82,30.18,40.84C2319.93,775,2321.79,770.82,2317.91,760.94Zm0,0c-7.66-19.51-15.23-39.07-24.91-63.83-6.49,16.16-10.91,27.12-15.24,38.08-17.59,44.47-17.05,44.82,30.18,40.84C2319.93,775,2321.79,770.82,2317.91,760.94Zm0,0c-7.66-19.51-15.23-39.07-24.91-63.83-6.49,16.16-10.91,27.12-15.24,38.08-17.59,44.47-17.05,44.82,30.18,40.84C2319.93,775,2321.79,770.82,2317.91,760.94Zm0,0c-7.66-19.51-15.23-39.07-24.91-63.83-6.49,16.16-10.91,27.12-15.24,38.08-17.59,44.47-17.05,44.82,30.18,40.84C2319.93,775,2321.79,770.82,2317.91,760.94Zm0,0c-7.66-19.51-15.23-39.07-24.91-63.83-6.49,16.16-10.91,27.12-15.24,38.08-17.59,44.47-17.05,44.82,30.18,40.84C2319.93,775,2321.79,770.82,2317.91,760.94Zm0,0c-7.66-19.51-15.23-39.07-24.91-63.83-6.49,16.16-10.91,27.12-15.24,38.08-17.59,44.47-17.05,44.82,30.18,40.84C2319.93,775,2321.79,770.82,2317.91,760.94Zm0,0c-7.66-19.51-15.23-39.07-24.91-63.83-6.49,16.16-10.91,27.12-15.24,38.08-17.59,44.47-17.05,44.82,30.18,40.84C2319.93,775,2321.79,770.82,2317.91,760.94Zm0,0c-7.66-19.51-15.23-39.07-24.91-63.83-6.49,16.16-10.91,27.12-15.24,38.08-17.59,44.47-17.05,44.82,30.18,40.84C2319.93,775,2321.79,770.82,2317.91,760.94Zm0,0c-7.66-19.51-15.23-39.07-24.91-63.83-6.49,16.16-10.91,27.12-15.24,38.08-17.59,44.47-17.05,44.82,30.18,40.84C2319.93,775,2321.79,770.82,2317.91,760.94Zm0,0c-7.66-19.51-15.23-39.07-24.91-63.83-6.49,16.16-10.91,27.12-15.24,38.08-17.59,44.47-17.05,44.82,30.18,40.84C2319.93,775,2321.79,770.82,2317.91,760.94Zm0,0c-7.66-19.51-15.23-39.07-24.91-63.83-6.49,16.16-10.91,27.12-15.24,38.08-17.59,44.47-17.05,44.82,30.18,40.84C2319.93,775,2321.79,770.82,2317.91,760.94Zm0,0c-7.66-19.51-15.23-39.07-24.91-63.83-6.49,16.16-10.91,27.12-15.24,38.08-17.59,44.47-17.05,44.82,30.18,40.84C2319.93,775,2321.79,770.82,2317.91,760.94Zm0,0c-7.66-19.51-15.23-39.07-24.91-63.83-6.49,16.16-10.91,27.12-15.24,38.08-17.59,44.47-17.05,44.82,30.18,40.84C2319.93,775,2321.79,770.82,2317.91,760.94Zm0,0c-7.66-19.51-15.23-39.07-24.91-63.83-6.49,16.16-10.91,27.12-15.24,38.08-17.59,44.47-17.05,44.82,30.18,40.84C2319.93,775,2321.79,770.82,2317.91,760.94Zm0,0c-7.66-19.51-15.23-39.07-24.91-63.83-6.49,16.16-10.91,27.12-15.24,38.08-17.59,44.47-17.05,44.82,30.18,40.84C2319.93,775,2321.79,770.82,2317.91,760.94Zm0,0c-7.66-19.51-15.23-39.07-24.91-63.83-6.49,16.16-10.91,27.12-15.24,38.08-17.59,44.47-17.05,44.82,30.18,40.84C2319.93,775,2321.79,770.82,2317.91,760.94Zm0,0c-7.66-19.51-15.23-39.07-24.91-63.83-6.49,16.16-10.91,27.12-15.24,38.08-17.59,44.47-17.05,44.82,30.18,40.84C2319.93,775,2321.79,770.82,2317.91,760.94Zm0,0c-7.66-19.51-15.23-39.07-24.91-63.83-6.49,16.16-10.91,27.12-15.24,38.08-17.59,44.47-17.05,44.82,30.18,40.84C2319.93,775,2321.79,770.82,2317.91,760.94Zm0,0c-7.66-19.51-15.23-39.07-24.91-63.83-6.49,16.16-10.91,27.12-15.24,38.08-17.59,44.47-17.05,44.82,30.18,40.84C2319.93,775,2321.79,770.82,2317.91,760.94Zm0,0c-7.66-19.51-15.23-39.07-24.91-63.83-6.49,16.16-10.91,27.12-15.24,38.08-17.59,44.47-17.05,44.82,30.18,40.84C2319.93,775,2321.79,770.82,2317.91,760.94Zm0,0c-7.66-19.51-15.23-39.07-24.91-63.83-6.49,16.16-10.91,27.12-15.24,38.08-17.59,44.47-17.05,44.82,30.18,40.84C2319.93,775,2321.79,770.82,2317.91,760.94Zm0,0c-7.66-19.51-15.23-39.07-24.91-63.83-6.49,16.16-10.91,27.12-15.24,38.08-17.59,44.47-17.05,44.82,30.18,40.84C2319.93,775,2321.79,770.82,2317.91,760.94Zm0,0c-7.66-19.51-15.23-39.07-24.91-63.83-6.49,16.16-10.91,27.12-15.24,38.08-17.59,44.47-17.05,44.82,30.18,40.84C2319.93,775,2321.79,770.82,2317.91,760.94Zm0,0c-7.66-19.51-15.23-39.07-24.91-63.83-6.49,16.16-10.91,27.12-15.24,38.08-17.59,44.47-17.05,44.82,30.18,40.84C2319.93,775,2321.79,770.82,2317.91,760.94Zm0,0c-7.66-19.51-15.23-39.07-24.91-63.83-6.49,16.16-10.91,27.12-15.24,38.08-17.59,44.47-17.05,44.82,30.18,40.84C2319.93,775,2321.79,770.82,2317.91,760.94Zm0,0c-7.66-19.51-15.23-39.07-24.91-63.83-6.49,16.16-10.91,27.12-15.24,38.08-17.59,44.47-17.05,44.82,30.18,40.84C2319.93,775,2321.79,770.82,2317.91,760.94Zm0,0c-7.66-19.51-15.23-39.07-24.91-63.83-6.49,16.16-10.91,27.12-15.24,38.08-17.59,44.47-17.05,44.82,30.18,40.84C2319.93,775,2321.79,770.82,2317.91,760.94Zm0,0c-7.66-19.51-15.23-39.07-24.91-63.83-6.49,16.16-10.91,27.12-15.24,38.08-17.59,44.47-17.05,44.82,30.18,40.84C2319.93,775,2321.79,770.82,2317.91,760.94Zm0,0c-7.66-19.51-15.23-39.07-24.91-63.83-6.49,16.16-10.91,27.12-15.24,38.08-17.59,44.47-17.05,44.82,30.18,40.84C2319.93,775,2321.79,770.82,2317.91,760.94ZM2691.37,312.1c-7-14-6.53-26.1-4.47-40,1-6.79,4.33-16.42-4.57-19.46-7.22-2.51-14.49,3.54-18,9.92-8.75,16-23.15,25.06-38.82,31.5C2594,307,2550.29,284,2530.1,245.32l-4.77-10.22c-1.92-1.53-3.78-3-5.7-4.62l-13.81-8.11c-27.22-12.24-42.16-35.38-57.64-59.66-7.91-12.28-14.35-30.07-33.9-33-6.64-1-6.44-6.54-3.4-13.42,9.54-21.37.74-37-21.62-42.35-33.9-8-69.68-8.16-101.77-24.08-4.57-2.26-14-.49-10.76-9.19,7.47-20-6.48-19.26-18.72-21.72-65.7-13.17-131.4,6.44-197.1-.1-35-3.54-72.82,13.27-104.52-15-7.81-7-17.1-3-25.5.54-19.41,8.21-40.2,21.87-58.48,22.07C1830.15,26.89,1801.9,47,1775.8,75c-8.94,9.53-17.25,15.48-31.64,8.65-6.83-3.25-22.66-2.22-18.14,10.66,5.7,16.31-3.68,25.21-10.32,35.33-12.58,19.07-26.53,37.3-40.73,55.19-4.62,5.79-.69,17.54-8.7,18.13-25.9,2-22.11,26.53-32.53,40.1-2,2.55-3.78,8.2,2.26,9.63,5.6,1.32,2.7-9.49,9.63-7.57,1.33,14.05,3,28.89-10.52,38-14.29,9.69-21.81,23.54-28.79,38.28a12.85,12.85,0,0,0-4.52-.93c-30.52-4-63.39-2.41-82-34.89-4.37-7.71-12.18-5.55-19.75-5-20.49,1.57-27.91,20.2-41.72,30.37-8-1-14.2,2.26-19.75,7.52-11.45,1.37-12.83,10.27-14.21,19.11L1420.13,353c-1.67,18.67,13.56,19,24.52,19.8,62.46,4.67,117.89,26.93,167.91,63.89,3.78,2.8,8.89,3.73,13.37,5.55l.14-.15c3,1.87,6,3.74,9,5.65l2.65-3.53c-3.24-1.28-6.54-2.56-9.73-3.89,3.59-3.58,6.44-5.94,9.19-6.88a7.83,7.83,0,0,1,2.75-.49c2.16,0,4.37.94,6.93,2.8.69.54,1.47,1.18,2.26,1.87.34.34.79.74,1.18,1.13a9.53,9.53,0,0,1,1.23,1.23c2.16,2.16,4.52,4.81,7.27,8.06-7.91,3.34-14-3-21-3.49-.89,1.13-1.82,2.31-2.7,3.49,28.25,20.54,56.65,40.78,84.57,61.77,5.45,4.08,15.18,8.25,12.67,16.06-2.8,8.56-13.12,5.36-19.36,3.84-28.4-6.88-58.47-6.29-85.6-18.68-9.24-4.22-18.67-5.89-28.55-4.27-29.78,4.77-59.66,8.65-89.83,8.6-52,0-99.5,21-143,43.54-38,19.65-69.14,53.26-111,68.84-5,1.87-7.57,5.8-7.17,11.3v.2q17.16,19.32,34.39,38.58c18.53-9.78,36.51-18.28,42.9-42.46,3.29-12.58,14.06-22.36,34.06-19.07,19.16,3.15,40-5.55,60.24-6.34,40.79-1.52,81.72-2.55,121.92,7.33,5.11,1.27,12.58,3.93,14.69-3.49s-5.8-8.55-10.61-10.81c-27.42-12.88-57.35-17.4-93-25,62.12-14.84,116.86-13.36,171.31,7.77-.69-21.67-23.84-17.84-29.93-32.68,21.08-8.31,38-2.41,53.37,11.84,8.3,7.62,14.69,18.33,27.17,19.9,13.81,1.72,6.39,9.93,5.36,16-1.82,11-8.31,7.42-14.4,4.23-8-4.18-15.68-8.8-23.79-12.68-6.92-3.29-14.49-5.31-19.16,3.44-7.81,14.79-21.08,16.22-35.28,14.64-4.72-.54-10.17-4.22-12.88,1.48-2.41,5,1.87,9.43,5.8,12.33,7.18,5.31,14.79,10.08,24.18,16.37-28.85,9.78-55.19-7.37-81.82-1.58,0,0-.15.05-.2.05,5.26,6.78,11.75,10.27,20.59,8,4.92-1.27,7.13-.09,8,2.26a3.26,3.26,0,0,1,.3,1,7.78,7.78,0,0,1,.14,1.08,15.94,15.94,0,0,1,0,3.09,15.61,15.61,0,0,1-.14,2.12c25.3,5.65,50.61,11.2,75.92,16.85l.2.05c42.89-54.49,111-67,172.08-31.94,13.61,7.81,25.06,20.59,43.34,17.59h.15c-1,17-15.18,26.64-17.15,41.38,27.52-10.32,55.63-16.12,85.16-12.73h0c.15-6,1-12.14,1.52-18.18.15-1.18.25-2.36.35-3.54a67.4,67.4,0,0,0,.24-8.84,9.89,9.89,0,0,0,0-1.72,26.71,26.71,0,0,0-.34-3.44c-.1-.84-.25-1.63-.39-2.41s-.35-1.57-.54-2.36c-.1-.34-.15-.64-.25-.93,0-.05,0-.1,0-.15a5,5,0,0,0-.15-.49.72.72,0,0,1-.14-.4,33.55,33.55,0,0,0-7.62-12.38s0-.1.1-.15c4.47-7.66,10.71-5.35,15.82-5.35,44.91,0,89.88-.64,134.74.69,38,1.13,58.77,19,66.29,53.31.1.54.25,1,.35,1.57.24,1.28.49,2.51.68,3.79a2.39,2.39,0,0,1,.1.64c.25,1.37.49,2.8.64,4.17.1.74.2,1.48.25,2.17.19,1.57.29,3.14.39,4.66,1.92,31.21-11.45,56.27-39.26,69.73-7.87,3.79-12.09,6.88-11.5,12,0,.25.1.54.15.84a10.77,10.77,0,0,0,.34,1.13,23.11,23.11,0,0,0,3.69,7c19,27,29.43,59.9,57.44,82.31.05.05.15.09.2.14-9.14,9.24-20.74,2.66-29.83,6.29-.15,88.9,29.48,174.06,33,262.51.69,17.49-4.52,33.66-8.3,50.12s4.71,27.32,17.59,29.68c13.56,2.46,14.5-11.65,16.07-22.46,9-60.68-6-119.7-12.39-179.31-.63-6.29-4.57-12.33,2.17-20,7.17,13.71,7.42,27.92,10.12,41.58,2.85,14.64,3.34,31.89,23.05,36.21h.09c.15-10,4-20.93,2.8-30.61-.09-.54-.14-1.08-.24-1.67s-.2-1.08-.34-1.62a21.89,21.89,0,0,0-.74-2.46s-.05,0-.05-.1c-.25-.59-.49-1.23-.79-1.82-2.36-4.57-6.63-8.55-14.1-11.74a6.36,6.36,0,0,1-3.29-3.1,3,3,0,0,1-.45-1.28,4.12,4.12,0,0,1,.84-3.48c1.62-2.17,5.11-3.79,8-4.08,9.58-1,19.21-1.43,28.85-2,0-.1.05-.19.05-.29,1.91-9.44-10.32-24.57-1.14-26.19,16.52-2.9,6.64,19.8,16.57,26.58a.73.73,0,0,0,.24.2c14.6,2,29.19,3,43.69-.84.05-.1.09-.15.14-.24,5-7.47-11.54-22.41,3.69-22.56,11.1-.15,33.36-.79,30.86,23.29a.63.63,0,0,0,0,.3c8.11.49,16.17,1.37,24.27,1.42,26.74.1,40.84,2.75,47.18,14.75a20.55,20.55,0,0,1,1.18,2.5c.34.89.64,1.77.93,2.75a26.84,26.84,0,0,1,.74,3c.15.74.34,1.52.44,2.31s.25,1.62.35,2.46c1.17,8.94.68,20.68-.69,36.11-17.74-25-30.27-59-70.13-46,5.46,26.83,9,53.71,2.07,80.74-13.12-26-7-54-11.5-80.64-19.61-.3-39.21-.1-58.72-1-10.86-.49-16.17,3-15.53,13.22.05.59.15,1.18.2,1.76,0,.1,0,.2,0,.3,17.88,30.86,22.35,64.67,22.11,99.56v.29c15.23,3.1,30.61,1.53,45.94,1.53,16.37,0,29.73-1,29.49-22.07,0-5.8,3.24-9.24,9.29-8.4a6.69,6.69,0,0,1,5.11,3c.09.24.24.44.34.68s.2.54.29.84.15.64.25,1v.15a4.29,4.29,0,0,1,.1.83,2.31,2.31,0,0,1,.1.84c.14,1.28.1,2.6.14,3.93v56.22c0,5,0,10.17-6.78,10.76-2.9.24-6.78-.3-7.47-3.39a5.45,5.45,0,0,1-.09-.94,45,45,0,0,0-.25-4.61c-.1-1.28-.25-2.51-.44-3.64a4.87,4.87,0,0,1-.1-.79c-.1-.39-.15-.73-.25-1.13s-.19-.93-.29-1.37c-.15-.64-.35-1.23-.54-1.82-.1-.35-.2-.64-.3-.94-.24-.68-.54-1.37-.83-2s-.64-1.23-1-1.82-.64-1-.94-1.42v0c-9-12-28.16-6.19-42.85-7.67-8.79-.88-17.89.74-26.83,1.23.25,9,.3,18,.84,26.93.59,10.37-1.58,23.59,16.61,17.84,5.79-1.82,11.49,1.82,10.95,6.39-2,15.62,11.4,26.24,11.75,41.17.29,14-1.38,29.34,16.12,37.25,6.34,2.9,2.6,11.65,2,17.94a.59.59,0,0,0-.05.29c20.84,3.2,41.28,5.06,54.94-16.11-.05,0-.1-.15-.15-.2-11.74-17.84.89-29.63,9.34-43.93,8.65,7.76,3.1,16.07,5.11,23a.63.63,0,0,0,0,.3c2.16.64,6.14,1.08,6.58,1.92.1,0,.1.09.1.14,1.82,17.4-5,33.37-12,48.26-4.67,9.83-17.64,3.88-26.88,4.62-12.08,1-24.27.78-36.41,1.08-13.17,19.9-6.44,45.45-18.28,69.33-13.76-23.73-6.68-48.4-15.33-69.53-5.16.1-10.27.15-15.43.2-3.64,41.91,11.84,83.78.25,125.75-1.28,4.57-.89,9.78-9.88,13.31,4.52-47.51,5.21-93.56-4.28-139l-49.87-.15c1.13,16.36-1.48,32.38-2.81,48.6-2.06,24.62-10.76,49.14-3,74.74,2.85,9.53,3,23.29-1.92,31.2-19.9,31.85-10.81,69.59-26.14,109.83-2.31-23.49-4.23-40.39-5.55-57.29-1.82-22.22,1-44.48,6.38-65.66,10.08-39.8.5-79.5,2.07-119.26,1.32-34.25,3.44-70-11.55-104.22-11.89,2.4-13.42,15.13-21.08,26.29-9.34-21.72-3-43.2-7.72-63.49-13.21-56.86-23.34-114.5-33.56-172-2.5-14.06-.44-29-.44-43.34,0-29.09-12.53-56.46-8.11-86.14,1.77-11.9,9.34-20.4,11-31.5-6.24-.84-12.48-2-18.72-2.51s-11.4.34-12.44-4.23c0-.24-.09-.49-.14-.78-.2-2.07.24-5.06,1.62-9.49a14.71,14.71,0,0,0,.69-4.32,5.91,5.91,0,0,0,0-1.33,15.79,15.79,0,0,0-.15-2.16,11.23,11.23,0,0,0-.3-1.87c-.14-.63-.29-1.27-.49-1.91s-.39-1.28-.64-1.92-.44-1.08-.68-1.67c-3.79-8.16-11.4-16-18.53-22.31-7.81,21.67-25.41,41.08-14.89,67.08,1.92,4.71,9.78,12.82-1.47,15.48-7.18,1.72-16.42-3.2-16.76-10.62-1.43-30.76-25.95-61.52.44-92.68,7.47-8.79-5.26-17.39-5.7-26.78-5.7-.34-11.4-.39-17-1.18-15.87-2.36-23,3-22.21,18.68l.15,2.21a.73.73,0,0,1,0,.29c.15,1.57.25,3.1.3,4.67.64,13-1.28,26.29-.88,39.36,0,.59,0,1.18,0,1.77s0,1.18.1,1.72c.1,1.47.25,3,.4,4.42a.78.78,0,0,1,0,.3l.3,2.21c.15.74.25,1.47.39,2.21a2.84,2.84,0,0,0,.1.64c.15.64.25,1.33.44,2s.3,1.37.49,2.06a57.91,57.91,0,0,0,7,15.92c0,.1.15.2.2.29,5.55,12.34,9.33,26.05,2,37.55-12.67,19.75-3.68,40.44-6.43,59.31-5.41,36.71,20.39,77.54-15.19,109.88-5.6-11.4-4-26.93-2.65-37.64,2.7-20.64-8.55-37.55-7.77-57.11.59-14.59-30.31-33.51-44.81-29.82-11.11,2.8-10.47,13.26-8.94,20,9,38.92,11,78.67,16.16,118.08,3.69,28.26,17,34,42.8,24.18-2,31.59-2.8,62.65-30.27,84.52-4.76,6.29-4.71,13.66-4.66,21,12.82,49.93,18.67,100.93,19.11,152.19.34,40.44,4.08,80.78-2.55,121.62-3.1,18.77,4.81,39.36,8.94,59.31v0l.2.83.14.64c.25,1.13.44,2.31.64,3.44,0-.1.15-.15.2-.24l3.29,13.12c-.84,11.89,6.59,19.11,16.46,19.41,11.16.34,11.4-10.52,13.12-19.37,2.56-13,6.59-25.74,10-38.62l-4.67-21.92v-.34c-1.57-43.09-6-85.9-5.06-129.24a776.12,776.12,0,0,1,12.38-123.63c2.21-11.85,5-24.77,2-35.63a32.32,32.32,0,0,0-1.23-3.59c-.3-.63-.59-1.27-.89-1.86-.54-1.08-1.08-2.12-1.52-3.2a87.2,87.2,0,0,1-6-17c-8-32.33,2.31-64.37,5.75-97.44a27.38,27.38,0,0,1,9.53,11,44.55,44.55,0,0,1,3.09,9.14c.3,1.13.54,2.26.79,3.39,1,5.07,2.16,10.13,3.29,15.19,2.31,10,4.72,20,7,30,7.13,30.81,13,61.82,10.12,94-2.55,28.5,3.49,56.56.84,85.21-2.41,25.6-5.8,51.2-11.55,75.67-6.34,26.88,7.72,53.71-4.18,79.46.1,7.08.2,14.1.3,21.13v0a56.22,56.22,0,0,1,2.7,8.6c4.52,18.48.2,37.2-8.55,51.74-5.65,9.34-7,16.17-5.26,22.21a20.09,20.09,0,0,0,.84,2.22c1.77,4,5,7.81,9.34,11.84-1.63,1.92-3.3,3.88-5,5.8-3.29.39-4.17,2.6-4.17,5.45a5.77,5.77,0,0,0-.64,4.33h0s0,.14,0,.24,0,0,0,.1c.24,0,.49.05.73.05,3,0,4.62-1.48,4.43-4.77h.14c.3,3.69-1.47,5.21-4.91,5l.15,5.31c.78,20.3-11,37.4-14.6,56.56-.78,4.42-3.88,7.57-8.7,6.29-6.73-1.72-5.6-7.22-4.07-11.84,4.12-12.88,4.81-25.65.68-38.58-4.67-1.52-8.89-.49-12.87,2C1948,1680,1938,1697,1929.76,1714.6c-2.71,5.84-7.13,13.46-13.91,11.45-9.48-2.81-5.9-12.88-4.18-18.78,5.11-17.64,4.23-35.33,3.64-53.17-7.47-3-14.94-6-22.41-9.09-11.64,4.28-11.59,14.94-11.25,24.08,1,22.85-10.61,43.54-10.12,66.34.14,7.86-5.75,12.78-14.3,12.88-7.08-29.44-6.39-59.07.73-88.11,2.51-10.42,1.48-18.63-3.24-27.27-2,3.39-31.15,20.14-36.9,21.67-2.21.59-4.08,2.31-6.1,3.53,10.08,3.84,10.72,12.49,10.86,21.38,7.37-3.83,13.91-5.8,14.11,6.34.19,11.3,2.45,23,.24,33.81-3.68,18,4.57,25.3,20.1,28.65-7.08,12.33-6.78,11.64-19.9,6-8.06-3.44-3.59,10.56-12,9.58-15.92-27.37,1.42-56.26-2.26-84.32-28.65,10.51-23.64,29.24-15.53,52.23,12.19,34.3,8.4,41.43-16.61,48.75q-3.32-62.07-6.58-123.68c-.2-3.64-.35-7.23-.54-10.82-7.77-20.63-4.38-42.7-5.75-64.12v-.49l.73-41.48c1.63,2.36,4.57,4.52,9.39,6.44,18.33,5.31,7,20.69,10.17,31.1,2.66,8.75-1.62,23.15,12.88,21.53,11.69-1.33,8.35-15.33,6.78-22.31-6.39-28.4,7.52-56.12,1.28-84.37-.94-4.28.19-11.45,3.14-13.71,19.16-15,6.44-26.34-3.93-37.2-11.11-11.65-19.61-8.11-20.64,7.27-1.42,22-14.94,41-14.15,63.24a13.18,13.18,0,0,1-.4,3.1l-4.52-2.46c-6.53-2.46-6.53-8.75-8.15-14.05-8.9-28.6-7.13-57.94-6.54-87.23.3-14.49,3.24-29.33-3.14-43.39-2.31-5.11-3.89-11.25-11.11-11.3-6.88-.1-10.27,5.41-12,10.62-4.72,14.54-12.28,29.53-11.94,44.17,1.23,48.9-1.38,98.18,9.43,146.54l-5.74,3.58c-9.24-1.62-18.14,8.41-28.16.74,6.73-15.58,10.56-30.51,10.27-48.6-.3-17.44-2.7-36.16,2.6-54.35,4.87-16.7,8.6-36.11-13.85-44.66-20.84-8-37.11,1.17-44.77,25.06-3.93,12.18-4,25.55-7.77,37.83-11.3,36.86,1.87,70.18,13.57,103.84,1.72,4.91,7,6.43,9.73,3.88,11.64-10.81,27.71-3.64,40.24-11,8.11-4.72,15.33-3.44,19,4.72l4,41.23c5.06,39.36,8.06,79,21.28,117,4.71,13.56,4.86,28.65,7.22,43,1.13,7.13-1.87,10.62-8.94,11.45-11.06,1.23-16.27-7.22-16-14.54.54-18.08-7.91-34.69-7.32-52.29,1-31.89-4.82-63.19-6.34-94.84l-14-17.83c-.93-4.87-5.5-8.36-8.4-5.61-10.66,10.32-20,16.42-33.51,3.44-5.46-5.25-7.52,2.41-8.85,6.79-3.73,12.13-7.27,24.32-11,36.85-10.76-3.54-3.68-19.36-16.31-19.46-9.73-7.27-9.83,18.67-19.07,6.34a24.87,24.87,0,0,1-3-5.16,25,25,0,0,0,2.85,4.87c9.24,12.33,9.34-13.62,19.07-6.34,21.82-18.73,21.77-23.74-.44-35.58-8.95-27.42-2.31-56.81-10.22-84.42-2-7-1.53-16-11.6-15.78-10.32.2-11.11,8.65-13.61,17-7.91,26,2.6,51.64.39,77.54-1.42,16.85-3.64,26.48-24.77,20.39-23-6.68-30.71,4.62-35.77,28.55-7.81,37.3,8.75,69.63,14.35,104.57-20.84-18.53-30.27-42.26-32.43-69.14-.69-8.21-.35-16.31-5.7-23.24-9.64.49-20.25,9.68-28.5-2.36-7.57-11-.69-20.69,5.89-28.16,7.42-8.45-3.39-29.53,18.87-27.17,7.32.19,14.74-.3,22,.73,30.71,4.23,40.78-3.83,42.21-36,1.91-45-8.45-88.65-16.32-132.49-3.68-20.34-4.52-40.14,1.28-60.58,32.68,14.84,32.19,47.76,40.44,74.49,10.67-1.82,9.68-9.14,11.94-13.76,8.46-17.1,1.67-41.47,30.08-49.14,11.84-3.24,8.79-24.32,13.81-41.62,8.5,13,14.3,23.15,21.52,32.19,6.63,8.4,17.74,17,26.58,13.12,11.11-4.92,21.13-15.53,18.58-31.4-1-6.39-.35-13-.44-19.56-13.81-.49-27.62-.93-41.43-1.43-4-.19-8.65.3-10.61-3.29a2.44,2.44,0,0,1-.45-.88,3.58,3.58,0,0,1-.29-1,4.3,4.3,0,0,1-.2-.84,8.6,8.6,0,0,1-.09-1.13c0-4,3.43-6.14,7.42-6.83,8.25-1.48,10.27-7.42,10.17-14.4-.3-18,0-36,.29-53.91.1-4.37.15-8.74.2-13.12.1-8.45.15-16.85,0-25.25,0-2.46,0-5,0-7.42-.1-5-.25-9.93-.39-14.84-.1-2.46-.2-5-.35-7.42s-.24-4.92-.44-7.42-.34-5-.54-7.42-.39-4.77-.64-7.13c-9.53-.44-9.44,12.88-19.56,13.46-4.27-37.93-8.2-75.62-12.87-113.21-2.66-21.72-4.72-42.75-.44-65.11,4.22-21.62-14.11-39-21.09-58.73-1.91-5.45-8.1-8.4-14.39-5.25-5.75,2.85-9,8.5-7.37,14.3,9.77,34.69,2.85,70.17,5.5,105.2,3.24,42.9,15.53,84.23,18.57,127.18,2,27.91,17.89,33.66,39.61,15-4.37,21.71-10.12,41-8.25,61.22.39,3.93-.2,13.12-8.51,12.14-5.06-.59-7-6.19-7.76-11.3a81.54,81.54,0,0,0-2.7-11.89c-5.31-16.91-12.14-27.47-26-4.18-22.21-32.19-18.57-68.3-20.88-102.9-1.48-22-.25-44.18-.44-66.24-.1-8.25-1-16.66-8.75-21.67-3.24-2.06-7.57-3.78-11.21-3.44-5.4.49-4.37,5.75-4.61,9.68q-5.1,86.91-10.08,173.71c-.49,9.09-2.06,17.59-7.17,27.42-2-19.26-5.16-36.12-14.89-50.81-6.68-10-14.94-14.94-21.28-.2-16.12,37.5-36.36,72.34-40.39,115.68-5.8,62.8,13,122.21,15.38,183.49,0,0,0,0-.1,0-4,.64-7.71.39-10.66-2.9-27.47-3.2-54.94-5.8-82.61-1.92h-.05c-4.81,6.68-4.81,6.68,10.13,8.8-2.71,21.18-.2,41.82,6.29,62-5.11,5.6-14.35-.34-20.54,8.5,30.22-5.3,10.81,13.12,12.48,21.92-2.85-1.87-5.31,1.47-7.91,2.31a.62.62,0,0,0,.09.29c-7.12,4.82-4.76,12-5,18.68.35,11-16.51,23.19,3.64,33.17-2.9,1.67-5.6,4.17-6.54,3.63-19.65-10.86-39.46-7.27-60-2.85-8.11,1.72-13.27-5.16-12.09-14.3.84-6.83,6.34-15.28-3.53-18.92-9.24-3.39-17.3.1-22.51,9.34-1.38,2.46-4.52,3.93-6.93,5.75-.1,2.31-.2,4.67-.29,7,14.84,26.63,35.33,48.55,59.8,66.14,17.69,12.68,33,26.54,42,46.54,3.25,7.17,7.23,13.56,15.78,13.07,12.77-.69,20.93,7.76,30.66,13.51,46.54,27.47,88.45,62.46,146.49,68.35,84.47,8.65,168.4,22.56,253.71,11.45,20-2.6,40.14-7.52,60.14-6.93,38.53,1.09,76.56-.24,114.79-5.75,23-3.29,45-17.93,68.8-10.61,16.61,5.06,30.56,1.23,43.39-7.08,33-21.37,56.51-54.25,93.46-72.13s71.06-42.21,104.57-66.24c10.57-7.62,30.52-19,30.17-22.8a35.09,35.09,0,0,1,.64-11.06l47.18-37.3a43.45,43.45,0,0,0,11.1-17.49l27.52-43.34a8.19,8.19,0,0,0,2.06-3.25l.1-.09v0l-.05,0c.84-2.56.3-5.8-2.55-10.22l-.89.64.79-.84a.38.38,0,0,1,.1.2l.05,0c2.06-14.4,15.87-16.17,25.16-20.64,35.72-17.1,65.84-58.38,60.54-95.82-3.1-21.77,5.85-37.2,11.45-55.58,8.94-29.48,30.71-55.48,29.48-87.13-1.72-42.8,15.77-82.8,13.76-125.55-2.41-52,8.89-103.73,2.75-156.16-5.16-44-16.21-86.49-27.22-129.09q-37.82-.37-75.63-.84c-1.47-.05-2.9-1.18-4.32-1.77.05-.1.05-.2.1-.29.39-1.28.73-2.61,1.08-3.89s.69-2.6,1-3.93.64-2.6.88-3.88.59-2.6.84-3.93c.39-2.11.74-4.23,1.08-6.34.05-.34.1-.64.15-1,.44-2.8.83-5.6,1.13-8.41.2-1.81.39-3.63.49-5.45.15-1.62.3-3.19.39-4.82l.3-5.45c.05-1.38.05-2.75.1-4.13.05-1.57.05-3.19.09-4.81v-1.08c0-.2.05-.35.05-.54a10.46,10.46,0,0,1,0-1.28c0-1.33.05-2.66.05-3.93s0-2.26-.05-3.39v-.74a4.74,4.74,0,0,1,0-.84v-2.36c0-1,0-2-.05-3v-.79c0-.83,0-1.67,0-2.46s-.05-1.62-.05-2.45l0,0,0-.05c-.2-5.36-.4-10.76-.59-16.12-.1-2.7-.2-5.4-.3-8.06-.15-4.08-.24-8.11-.34-12.18,0-2-.1-3.89-.1-5.75v-2.07a.94.94,0,0,1,0-.32c0-2.16,0-4.32,0-6.48,0,0,0,0,0,0v-1.57c0-2.16,0-4.28.1-6.44v-.15s0,0-.1,0c-34-21.81-54.94-57.83-87.67-81.08-2.11-1.47-3.78-7.81-3-8.35,18.33-13.81-.84-17.15-7-21-20.74-12.83-41.42-27-64.13-35.28-48.55-17.74-91.45-46.2-137.29-69-22.46-11.15-44.43-18.28-68.65-20.73l-9.29-.45L2075.55,499l-10.22-.5c-42-5.84-82.55-3.68-118.18,22.61-13.76,10.12-30.76,4.52-43.68,4.72-23.79.44-49.93,5.45-73.07-20.59-21.28-24-50.77-46.1-85.6-54.2-7.72-1.77-12.73-6.64-15.43-14-7.28-1.87-18,3.1-19.66-9.83-28.35-2.6-45.9-27.57-72.29-34.94-7.32-2.06-20.14-6.63-19.21-15.08,1.23-11.21,13.86-13.86,24.37-15.58,3.94,2.56,6.59,7.76,12.53,6a50.36,50.36,0,0,1,5.07,2.21,57.46,57.46,0,0,1,8.84,5.55c1.38,1.08,2.65,2.16,3.93,3.34.64.59,1.23,1.18,1.82,1.77,9,8.89,15.48,20.1,22.65,30.76.94,1.43,1.87,2.8,2.9,4.18a100.21,100.21,0,0,0,9.29,11.5.3.3,0,0,1,0-.2h0l.2.2h-.2l.1.1c8,.34,16.12.54,19.7,9.73v0c0,.05,0,.05,0,.1,3.84,1,7.67,2,11.55,2.8,8.21,1.87,16.51,3.39,24.82,4.77q7.37,1.18,14.74,2.21c15.23,2.21,30.56,4,45.85,6.24,2.31.35,4.66.69,7,1.08,2.8.44,5.61.89,8.41,1.38,4.07.69,8.1,1.42,12.18,2.26,2.85.54,5.65,1.13,8.5,1.77a280,280,0,0,1,31.5,8.89c33.81,11.85,63.93-10,88.85-33.22,6.29-5.84,11.89-11.4,17.74-4,15.67,19.81,38.82,16.66,58.62,18,16.22,1.08,31.35,5.31,47,7.47,2.11.05,4.22.05,6.34.1,8.5,3,24.81,0,24.81,0,3.79-5.11,8.85-9.39,13.61-13.91l20.89-10.61c2.45,0,5.06-.59,7.37,0,34.59,7.81,38.82,5.8,55.33-26.79,5.7-11.3,45.41-23.43,57.64-18.57,33.27,13.27,66.68,26.09,103.39,25.75,20.79-.2,39.76-3.54,45.5-27.86,2.27-9.44,9-12.78,16.42-10,26.24,9.73,55.33,8.11,80.64,22.75,15.72,9.14,36.06,10.62,51.3-.78,22.55-17,47.91-27.42,72.58-40.05C2677.71,348.51,2705.33,340,2691.37,312.1Zm-1238,283.39c-23.59,10.91-45.85,7.81-67.52,8.35C1405.39,588.12,1426.17,581.48,1453.4,595.49Zm158.77,1120.78c30.76,20.73,27.27,62.06,60.24,82C1637.92,1796.36,1630.74,1786.09,1612.17,1716.27Zm425.74-169c-6.48-11.15-2-21.22-.09-31.2C2045.83,1526,2053.83,1536.17,2037.91,1547.27Zm6.49-39.21c-14.3-21.52-4.67-40-2.85-58.08C2042,1467.77,2052.16,1485.56,2044.4,1508.06Zm40.84-282.75c-11.85,7.62-15.19,18.87-20.25,28.89-1.92,3.74-4.13,7.38-8.94,7.18-5.21-.3-6.24-4.42-6.59-8.6-3-37.69-14.64-77.35-6.53-112.43,8-34.6-7-62.75-7.13-94.15-.15-37.89-8-75.68-11.84-113.57-.69-6.63-3.29-17.44,6.53-18.28,9.44-.73,11.65,9.88,13.52,17.65,2.8,11.84,6.19,23.78,6.78,35.77,2,41.72,28,80.79,13.51,124.22,17.74,29.54,10.42,66.88,30.37,95.88,13.12,19.06-1.08,38.13,2.51,59C2082.78,1241.72,2090.49,1231.94,2085.24,1225.31Zm41,394.74c-4,8-19.17,15.38-4,27.47,3.34,2.65-3.15,5.6-6.44,6.58-6.44,1.82-13.17,3.3-16.76-4.76a11.29,11.29,0,0,1-.83-7.13c5.4-16.7,18.13-30.81,17.69-49.63,2.8-12.68-1.38-26.63,6.63-38.62,2.41,12.72,9.83,24.52,4.52,37.69C2137,1601.48,2131.28,1610.12,2126.27,1620.05Zm258-237.93c5.5-77.1,12.29-154,1.23-230.86C2415.36,1174.94,2420.57,1335.48,2384.25,1382.12ZM2267.74,627.43c21.08-.3,42.16-.1,71.79-.1-8.25,6.53-11.89,12.43-12.87,17.93-.1.5-.2,1-.25,1.53s0,.78-.09,1.18a10.87,10.87,0,0,0-.05,1.28c0,.63.05,1.27.09,1.91s.15,1.23.25,1.82.25,1.18.39,1.82.35,1.28.54,1.91.4,1.28.64,1.92.44,1.28.74,2c.49,1.37,1,2.75,1.62,4.12q27.87,66,55.38,132.09c6.14,14.7,12.19,29.39,18.28,44.08a14.76,14.76,0,0,0,.84,1.82,15.89,15.89,0,0,0,.93,2.11c.3.69.64,1.38,1,2.07a.38.38,0,0,0,.1.24c4.38,8.9,10.62,17.3,22.31,26.78-31.69,4.08-57.25,2.85-84.22,1.48a62.68,62.68,0,0,0,5.11-12.88c.19-.83.39-1.72.59-2.55s.29-1.53.44-2.31.24-1.62.34-2.41.1-1.57.15-2.31a31.79,31.79,0,0,0,.05-4.87c-.05-.63-.1-1.27-.15-1.86a30.62,30.62,0,0,0-.54-3.74c-.15-.83-.39-1.67-.59-2.45a2.94,2.94,0,0,1-.2-.59,23.25,23.25,0,0,0-1-2.95C2344,822.86,2330.2,814,2311,814h-36.75c-27.42,0-43.64,17.54-41.08,39.9.09.74.19,1.43.29,2.17s.25,1.42.39,2.16.3,1.37.49,2.06a13.49,13.49,0,0,0,.45,1.52,12.81,12.81,0,0,0,.59,1.92c.34,1,.68,2,1.08,3a47,47,0,0,0,2.85,6c-21.08,5.46-51.84,5.21-72.43-1.23,15.18-11.2,19.75-27.66,26-43.29,20.69-51.45,42-102.75,62.31-154.35,2.55-6.53,6.63-12.87,7.91-19.75a.18.18,0,0,0,0-.15,19.56,19.56,0,0,0,.39-3,13.57,13.57,0,0,0,0-2.85,2.52,2.52,0,0,0-.05-.64v-.3a9.31,9.31,0,0,0-.19-1.23,7.19,7.19,0,0,0-.3-1.42c-.15-.59-.34-1.18-.54-1.77a26,26,0,0,0-4.27-7.72,9.89,9.89,0,0,1-1.67-3,2.39,2.39,0,0,1-.05-.59C2256.54,627.57,2263.81,627.48,2267.74,627.43Zm-304.52-71.3c6.24-2.61,6.39,7.42,6.39,12.72.05,9.88-5.9,13.81-15.23,15-20.54,2.7-31.55-12.92-50-25.26C1927,553.28,1945.14,563.74,1963.22,556.13Zm-219.46-3.54c5.56,2,17.25,3.93,12.73,13.81-2.85,6.19-11.5,2.6-17.74.73-17.49-5.3-32.82,5.41-53.22,6.19-7.42-2.35-16.51-9-24.81-16.75-4.23-3.88-1.28-9.83,2-9C1689.61,553.86,1717.47,543.05,1743.76,552.59Zm-86.83-287.27c7.23-23.1,13.27-43.25,25.51-66.34C1684.55,227.87,1675.7,250.23,1656.93,265.32Zm722.9-46.49c1.28-6.44,3.24-12.58,1.18-19.07.88-6.38,10.46-9,8.25-16.75,6.54,2.9,7.62-7.18,13.07-6.93,13.22,13.56,9.78,32.14,12.34,48.16,1.87,11.74-12.38,4.81-19.17,5.4C2388.53,230.23,2377,233,2379.83,218.83Zm-84.23-105c-.34-6.78,6.29-7.08,10.86-6,12.29,2.9,27.42,1.82,32.93,16.71,6.38,17.44,18.47,26,36.31,27.71,0,.89-.1,1.77-.2,2.61-.59,9.63-2,17.2-16.8,17.3-12.34.05-17.5,15.82-28.31,21.42-40-33.51-86.68-32.68-133.85-24.27-19.51,3.48-42.95-.54-56.56,20.59-.54.88-3.15.83-4.72.63-15.33-1.86-38.13,8.51-43.49-9.63-3.39-11.45,20.64-13.26,32.48-18.47,40.25-17.74,81.43-33.07,125.9-37.3,7.37-.74,14.54-2.51,21.47,1.13C2285.68,133.67,2296.73,136.37,2295.6,113.87Zm15.29,102.31c-1.68,2.16-3.35,4.32-5,6.48-38.87-8.89-73-33.41-115-31.69,36.42-12.58,66.69,3.09,97.35,17.15C2295.55,211.46,2302.19,216.82,2310.89,216.18ZM2218.26,84.92c18.87,7.28,36,19.37,60.68,19.07-12.67,11.84-25.79,11.65-37.83,13.37-43.05,6.09-85.11,14.89-123.44,36.9-7.77,4.47-16,8.7-25.36,8a21.33,21.33,0,0,1-2.95-.34c-.59-.15-3.29-.3-1.86-.64,5.55-17.45,28-30.91,12.53-53.27,32.43-9.63,66.73-12.78,97.74-27.37C2206.17,76.72,2211.72,82.37,2218.26,84.92ZM1940.08,195.39a6.18,6.18,0,0,1-3.49,1.57c-5.6.2-11.26,0-16.76.69s-11.35,5.55-15.63-.05,2.17-10.17,3.84-15.23c6-18.18,12.18-36.32,18.28-54.45,9-2.85,18-5.7,27-8.5,6.1-22,24.52-25.36,48.26-31.11-22.85,24.23-34.64,49.88-54,70.52C1939.09,167.92,1923.66,179.47,1940.08,195.39Zm20.64,88.94,2.94,2.51c-2.45,2.7-3.19.49-4.08-1.38-21-7.86-44-12.77-52.48-37.93l9.09-1.77C1934.33,254.8,1948.92,268,1960.72,284.33Zm79.5-101.42-47.86-1.62c29.39-25.95,64.18-42.8,104.08-63.93C2084.4,151,2063.52,168,2040.22,182.91ZM1941.7,72.79c29.24-25.95,58.18-24.38,90.42-24.23,45.6.2,90.9-8.4,136.6-4.52,7.52.64,19.36-3.88,21.13,6.39,1.87,10.61-4.27,20.64-16.31,24.22-25.75,7.72-51.11,18.73-77.4,22.07-36.7,4.67-64.81,25.84-96.11,41.13-.84.93-2.31,2.7-2.41,2.7-2.8-2.21-.59-3,1.18-3.93v-.05c2.65-25,15.53-44.52,32.87-61.57,2.75-2.75,7.57-3.93,5.6-9-1.57-4.18-6.28-7.13-9.68-5.21-35.13,19.55-82.21,14.54-108.2,52.53-1.13,1.67-.64,4.47-.89,6.78l-1.08.59c-1.23,2.85-3.44,3.19-6.09,2.31-6,5.35-16.56,4.62-19.66,14V137s0,0,.1,0l-.34.54c0-.05,0-.1,0-.19a.5.5,0,0,0-.3.24,2.32,2.32,0,0,0,0,3c-1,23.59-11.3,40.49-25.8,54.35-3.24,3.14-6.73,6.09-10.37,9-2.4,1.92-4.86,3.78-7.42,5.6-3.78,2.75-7.71,5.41-11.69,8.06v0c-6-21.23,7.67-35.33,19.9-48.45,7.52-8.16,9-15.58,7.32-25.16C1890.59,121.68,1915.36,96.13,1941.7,72.79ZM1730.64,193c-5.45-4.47-3.24-20.29,4.23-29.48,7.71-9.49,16.36-18.38,22.75-28.65,6.68-10.81,9.73-14.4,20-2,9.53,11.5,20,3.54,28.35-6.24,14.06-16.61,16.81-38.38,27.13-56.61,6.24-11,57.44-40,68.5-35.62s23.59,12.33,28.45,22.16c4.33,8.75-10.56,11.79-17.69,16.46-47.42,31.11-85.7,71.11-116.26,118.67-2.85,4.48-4,11.06-12.93,11.45a84,84,0,0,1,14.25-35.43c3.59-5.3,7.67-11.59,1.23-17.59-7-6.53-14.2-2.55-19.9,1.92-16.71,13.22-19.26,34.2-27.27,52.14-5.75,12.92-6,28.59-19.41,38.13-3.29-6.64-.79-12,.44-17.55C1734.87,214.31,1745,204.82,1730.64,193Zm.69,102.21c25.6,28.5,50.47,49.54,69.68,82.61C1746.22,338.34,1737.57,350.92,1731.33,295.24Zm80.49,57.84c-22.65-7.32-24.86-28-29.88-46.63,0-.1,4.08-1.28,6.29-1.92,0,0,.25-.29.25-.29-1-6.29-5.7-9.54-10.61-12.63s-18.73-.89-9.93-12.39c4.67-6.14,13.56-11.89,23.19-3,11,10.12,23.1,19.06,34.75,28.5C1822.09,321.09,1810.49,335.24,1811.82,353.08Zm14.35-137.59c-11.89,7.91-20.74,21.37-37.44,20.44l-2.51,2.21c.64-.93,1.28-1.82,2-2.7,8.69-21,28.15-32.68,42.4-48.89Zm32.73,156.75c-26.39-.09-38.09-15.33-26.14-38.08,7.12-13.66,11.64-29.38,23.78-40.24,17,23.48,42.26,37.15,64.91,53.85,5.56,4.13,14.11,6,14.11,15.33C1910.54,370.77,1884.79,372.29,1858.9,372.24Zm90.17,14.89c-7.86,2.61-8.35-5-9.53-10.32,9.92-3.73,19.46-8.69,30.46-8.6C1970.4,382.56,1958.31,384.09,1949.07,387.13Zm11.4-30.95c-3-10.47-13.27-13.62-20.44-19.56-23.79-19.51-50.37-35.78-68.21-61.82a29.87,29.87,0,0,1,14.4-15c44.08,22.12,78.87,58.68,123.83,79.46C1995.41,350.38,1977.13,350.82,1960.47,356.18ZM2060.71,320c-7.91-8.36-12.87-6.83-20.59-4.38a589.73,589.73,0,0,1-94.54-79.21c9.73-1.13,19.41-2.31,29.14-3.49,12.38,26.69,39.51,34.7,62.41,46.64,32.72,17.15,67.47,30.51,101.32,45.45C2098.06,352.39,2092.07,352.88,2060.71,320Zm81.82-14.55c-53-22.5-108.4-40-152.82-79.7,4.52-2.11,9-4.23,13.51-6.34l142.46,80.24C2144.65,301.63,2143.56,303.55,2142.53,305.46Zm34.6-10.27c-36.86-33.85-91.45-37.25-126.49-74.89,62.56,17.84,121.08,45.36,179.46,73.42ZM2221,326.45c-.25-9.68-12.43-8.8-14.79-16.66h32.92C2239.58,324.68,2228.18,323,2221,326.45Zm39-41.67c-17.5-3.2-35.88-4.18-45.75-23.1-1.43-2.75-7.08-5.16-10.42-4.72-39,4.92-64.62-24.62-102.26-35.48,44.47-21,79.8-4.32,113.07,12.49a535.36,535.36,0,0,0,62,26.43C2271,268.51,2265.53,276.67,2260,284.78Zm18.92,48.89c10.31-27.13,33.12-20.25,53.61-19.71C2317,326.94,2299.93,335.68,2278.9,333.67Zm26.48-34.89c1.13-9.39,7.47-14.25,12.78-19.75,18.82,6.34,40.78,5.6,54.35,23.88C2350.2,303.84,2328.08,302,2305.38,298.78Zm97.2,30.07c-6.14-15.67-28-1.81-33.81-18,10.57-5.6,24.38,5.75,33.66-6.49,12.58,1.72,25.06,3.64,35.92,10.91C2430.84,331.41,2413.19,320.79,2402.58,328.85Zm124.67,19.61c-1.28,6.58-8.06,5.16-12,4.13-22.7-5.8-50.37-3.44-59-33.81v0q31,10.17,62,20.3C2523,340.6,2528.33,342.71,2527.25,348.46Zm-35.48-53.27-14.1-3.49L2458,286.84c-12.14-10.66-30.57-5-42.56-16.81-10.36-10.17-26.92-11.35-40.58-28.3,37.73,5.26,69.43,16.61,102.4,18.57l28.7,6.59,24.13,5.55ZM2307.94,776c12-1,13.85-5.21,10-15.09-7.66-19.51-15.23-39.07-24.91-63.83-6.49,16.16-10.91,27.12-15.24,38.08C2260.17,779.66,2260.71,780,2307.94,776Zm10-15.09c-7.66-19.51-15.23-39.07-24.91-63.83-6.49,16.16-10.91,27.12-15.24,38.08-17.59,44.47-17.05,44.82,30.18,40.84C2319.93,775,2321.79,770.82,2317.91,760.94Zm0,0c-7.66-19.51-15.23-39.07-24.91-63.83-6.49,16.16-10.91,27.12-15.24,38.08-17.59,44.47-17.05,44.82,30.18,40.84C2319.93,775,2321.79,770.82,2317.91,760.94Zm0,0c-7.66-19.51-15.23-39.07-24.91-63.83-6.49,16.16-10.91,27.12-15.24,38.08-17.59,44.47-17.05,44.82,30.18,40.84C2319.93,775,2321.79,770.82,2317.91,760.94Zm0,0c-7.66-19.51-15.23-39.07-24.91-63.83-6.49,16.16-10.91,27.12-15.24,38.08-17.59,44.47-17.05,44.82,30.18,40.84C2319.93,775,2321.79,770.82,2317.91,760.94Zm0,0c-7.66-19.51-15.23-39.07-24.91-63.83-6.49,16.16-10.91,27.12-15.24,38.08-17.59,44.47-17.05,44.82,30.18,40.84C2319.93,775,2321.79,770.82,2317.91,760.94Zm0,0c-7.66-19.51-15.23-39.07-24.91-63.83-6.49,16.16-10.91,27.12-15.24,38.08-17.59,44.47-17.05,44.82,30.18,40.84C2319.93,775,2321.79,770.82,2317.91,760.94Zm0,0c-7.66-19.51-15.23-39.07-24.91-63.83-6.49,16.16-10.91,27.12-15.24,38.08-17.59,44.47-17.05,44.82,30.18,40.84C2319.93,775,2321.79,770.82,2317.91,760.94Zm0,0c-7.66-19.51-15.23-39.07-24.91-63.83-6.49,16.16-10.91,27.12-15.24,38.08-17.59,44.47-17.05,44.82,30.18,40.84C2319.93,775,2321.79,770.82,2317.91,760.94Zm0,0c-7.66-19.51-15.23-39.07-24.91-63.83-6.49,16.16-10.91,27.12-15.24,38.08-17.59,44.47-17.05,44.82,30.18,40.84C2319.93,775,2321.79,770.82,2317.91,760.94Zm0,0c-7.66-19.51-15.23-39.07-24.91-63.83-6.49,16.16-10.91,27.12-15.24,38.08-17.59,44.47-17.05,44.82,30.18,40.84C2319.93,775,2321.79,770.82,2317.91,760.94Zm0,0c-7.66-19.51-15.23-39.07-24.91-63.83-6.49,16.16-10.91,27.12-15.24,38.08-17.59,44.47-17.05,44.82,30.18,40.84C2319.93,775,2321.79,770.82,2317.91,760.94Zm0,0c-7.66-19.51-15.23-39.07-24.91-63.83-6.49,16.16-10.91,27.12-15.24,38.08-17.59,44.47-17.05,44.82,30.18,40.84C2319.93,775,2321.79,770.82,2317.91,760.94Zm0,0c-7.66-19.51-15.23-39.07-24.91-63.83-6.49,16.16-10.91,27.12-15.24,38.08-17.59,44.47-17.05,44.82,30.18,40.84C2319.93,775,2321.79,770.82,2317.91,760.94Zm0,0c-7.66-19.51-15.23-39.07-24.91-63.83-6.49,16.16-10.91,27.12-15.24,38.08-17.59,44.47-17.05,44.82,30.18,40.84C2319.93,775,2321.79,770.82,2317.91,760.94Zm0,0c-7.66-19.51-15.23-39.07-24.91-63.83-6.49,16.16-10.91,27.12-15.24,38.08-17.59,44.47-17.05,44.82,30.18,40.84C2319.93,775,2321.79,770.82,2317.91,760.94Zm0,0c-7.66-19.51-15.23-39.07-24.91-63.83-6.49,16.16-10.91,27.12-15.24,38.08-17.59,44.47-17.05,44.82,30.18,40.84C2319.93,775,2321.79,770.82,2317.91,760.94Zm0,0c-7.66-19.51-15.23-39.07-24.91-63.83-6.49,16.16-10.91,27.12-15.24,38.08-17.59,44.47-17.05,44.82,30.18,40.84C2319.93,775,2321.79,770.82,2317.91,760.94Zm0,0c-7.66-19.51-15.23-39.07-24.91-63.83-6.49,16.16-10.91,27.12-15.24,38.08-17.59,44.47-17.05,44.82,30.18,40.84C2319.93,775,2321.79,770.82,2317.91,760.94Zm0,0c-7.66-19.51-15.23-39.07-24.91-63.83-6.49,16.16-10.91,27.12-15.24,38.08-17.59,44.47-17.05,44.82,30.18,40.84C2319.93,775,2321.79,770.82,2317.91,760.94Zm0,0c-7.66-19.51-15.23-39.07-24.91-63.83-6.49,16.16-10.91,27.12-15.24,38.08-17.59,44.47-17.05,44.82,30.18,40.84C2319.93,775,2321.79,770.82,2317.91,760.94Zm0,0c-7.66-19.51-15.23-39.07-24.91-63.83-6.49,16.16-10.91,27.12-15.24,38.08-17.59,44.47-17.05,44.82,30.18,40.84C2319.93,775,2321.79,770.82,2317.91,760.94Zm0,0c-7.66-19.51-15.23-39.07-24.91-63.83-6.49,16.16-10.91,27.12-15.24,38.08-17.59,44.47-17.05,44.82,30.18,40.84C2319.93,775,2321.79,770.82,2317.91,760.94Zm0,0c-7.66-19.51-15.23-39.07-24.91-63.83-6.49,16.16-10.91,27.12-15.24,38.08-17.59,44.47-17.05,44.82,30.18,40.84C2319.93,775,2321.79,770.82,2317.91,760.94Zm0,0c-7.66-19.51-15.23-39.07-24.91-63.83-6.49,16.16-10.91,27.12-15.24,38.08-17.59,44.47-17.05,44.82,30.18,40.84C2319.93,775,2321.79,770.82,2317.91,760.94Zm0,0c-7.66-19.51-15.23-39.07-24.91-63.83-6.49,16.16-10.91,27.12-15.24,38.08-17.59,44.47-17.05,44.82,30.18,40.84C2319.93,775,2321.79,770.82,2317.91,760.94Zm0,0c-7.66-19.51-15.23-39.07-24.91-63.83-6.49,16.16-10.91,27.12-15.24,38.08-17.59,44.47-17.05,44.82,30.18,40.84C2319.93,775,2321.79,770.82,2317.91,760.94Zm0,0c-7.66-19.51-15.23-39.07-24.91-63.83-6.49,16.16-10.91,27.12-15.24,38.08-17.59,44.47-17.05,44.82,30.18,40.84C2319.93,775,2321.79,770.82,2317.91,760.94Zm0,0c-7.66-19.51-15.23-39.07-24.91-63.83-6.49,16.16-10.91,27.12-15.24,38.08-17.59,44.47-17.05,44.82,30.18,40.84C2319.93,775,2321.79,770.82,2317.91,760.94Zm0,0c-7.66-19.51-15.23-39.07-24.91-63.83-6.49,16.16-10.91,27.12-15.24,38.08-17.59,44.47-17.05,44.82,30.18,40.84C2319.93,775,2321.79,770.82,2317.91,760.94Zm0,0c-7.66-19.51-15.23-39.07-24.91-63.83-6.49,16.16-10.91,27.12-15.24,38.08-17.59,44.47-17.05,44.82,30.18,40.84C2319.93,775,2321.79,770.82,2317.91,760.94Zm0,0c-7.66-19.51-15.23-39.07-24.91-63.83-6.49,16.16-10.91,27.12-15.24,38.08-17.59,44.47-17.05,44.82,30.18,40.84C2319.93,775,2321.79,770.82,2317.91,760.94Zm0,0c-7.66-19.51-15.23-39.07-24.91-63.83-6.49,16.16-10.91,27.12-15.24,38.08-17.59,44.47-17.05,44.82,30.18,40.84C2319.93,775,2321.79,770.82,2317.91,760.94Zm0,0c-7.66-19.51-15.23-39.07-24.91-63.83-6.49,16.16-10.91,27.12-15.24,38.08-17.59,44.47-17.05,44.82,30.18,40.84C2319.93,775,2321.79,770.82,2317.91,760.94Zm0,0c-7.66-19.51-15.23-39.07-24.91-63.83-6.49,16.16-10.91,27.12-15.24,38.08-17.59,44.47-17.05,44.82,30.18,40.84C2319.93,775,2321.79,770.82,2317.91,760.94Zm0,0c-7.66-19.51-15.23-39.07-24.91-63.83-6.49,16.16-10.91,27.12-15.24,38.08-17.59,44.47-17.05,44.82,30.18,40.84C2319.93,775,2321.79,770.82,2317.91,760.94Zm0,0c-7.66-19.51-15.23-39.07-24.91-63.83-6.49,16.16-10.91,27.12-15.24,38.08-17.59,44.47-17.05,44.82,30.18,40.84C2319.93,775,2321.79,770.82,2317.91,760.94Z"/><path class="cls-1" d="M1408.38,1232.88l-11.4,59-1.81,9.38c-3.3-40.74-2-81.52-.69-122.31Z"/><path class="cls-1" d="M1830,1225.56c-2,19.55-2.16,38.92-2.36,58.42a101.9,101.9,0,0,1-49.72,21.23c3.83-17.84-9.73-34.94-2.31-52.87,5.6-13.66.88-21.43-13.08-25.65-10.27-3.1-21.42-8.5-22.6-20.1-2.46-23.64-16.85-41.82-25.41-62.61a.81.81,0,0,1,0-.19c.94-3.88,17.25-72.83,14-113.76,4.08,31.35-5.85,63.93,7,94.4,11.59,27.42,20.39,56.11,36.36,81.67,5.36,8.5,9.14,14.69,16.07,1.52,6.39-12.19,15.87-18.23,30.17-14C1836.1,1199.07,1831.13,1214.94,1830,1225.56Z"/><path class="cls-1" d="M1074.92,1309.78c-66.88,40.2-142.21,30.27-194-25.5-53.76-57.94-59.22-146.29-13.12-212.73,42.5-61.27,116.31-82.6,186.73-54,3.73,1.47,7.61,2.55,11.45,3.83,2.7,21.82-8.75,33.91-8.75,33.91-30.81-42.9-94.05-47.91-136.12-10.76-61.37,54.1-69.43,162.5-16.75,225.25,36.12,43,103.39,59.36,148.5,35.92,9.73-5.06,21.91-9,14-25-1.37-2.7,3.34-8.5,5.21-12.82C1069.81,1281.48,1074.92,1309.78,1074.92,1309.78Z"/><path class="cls-1" d="M1247.8,639v.2l0,0c-1.43,1.47-24.23,25.11-49.24,34-19.61-.58-39.26-.58-58.77-2-13.71-1-18.87,3.34-18.18,17.74,1.17,25.26.58,50.66.78,76-34.59,25-50.32,52.92-51.25,54.64l0,.1c.49-32.53,2.26-65.16,1-97.69-1.18-30.76,7.47-62.51-9.29-95.87,63,5,124.87-9.29,185,12.73Z"/><path class="cls-1" d="M1825.53,700.5l-.24,0a.19.19,0,0,0,0-.1A1.48,1.48,0,0,1,1825.53,700.5Z"/><line class="cls-1" x1="1627.11" y1="673.47" x2="1626.91" y2="673.42"/><path class="cls-1" d="M2479.14,736.07l.1.1v.1Z"/><path class="cls-1" d="M2552.9,877.16l-.15-.3h.05C2552.85,877,2552.85,877.06,2552.9,877.16Z"/></svg>