<svg id="Layer_1" data-name="Layer 1" xmlns="http://www.w3.org/2000/svg" viewBox="0 0 1931.4 1865.42"><defs><style>.cls-1{fill:#71983e;}.cls-2{fill:#67471c;}</style></defs><path d="M1593.71,1019.07c21.57-4.14,41.39-1.14,51,23.16.76,1.93,4.86,4.34,6.37,3.75,2.55-.93,4.86-3.79,6.27-6.37,4.9-8.86,7.55-19.68,14.27-26.64,20.19-20.78,24.57-43.15,18.85-71.75-19.78-98.66-54.59-189.6-129.71-259.76-78.64-73.4-171.2-113.72-280.54-106.28-37,2.52-73.61,10.2-110.45,15.1-23.43,3.1-47,5.34-73.33,8.3,34.73-27.74,67.78-51.35,97.56-78.5,82.56-75.37,124.57-168.48,101.45-280.3C1279,160.24,1251.65,83,1227.81,0c-2.73,27.05-4.24,48.73-7.17,70.2-11,79.53-43.63,151-81.57,220.72C1111,342.68,1084.59,395.4,1058,448c-6,11.89-9.82,24.91-14.64,37.42-5.51-106.58-26.12-209.66-49.93-312.07-66.72,6.23-96.6,52.38-110,97.86-.9,3,1.65,9,4.41,10.83,51.34,33.49,79.84,84,103.62,138.08,7.51,17.09,14.61,34.39,21.88,51.59-8.06-66.31-48.76-120.86-66-185.95,17.92,3.44,24-4.83,27.7-19.27,1.62-6.34,10.07-10.92,18.06-19C1027,341,1024.28,435,1027.8,528.28v0c.89,24.6,2.27,49.17,4.86,73.67-9.31.76-17.79,2.07-26.23,2.07-79.6.17-156.86-13.06-233.09-36.15-111.41-33.74-219.58-24.74-317.93,40.15-101.49,67-162.9,163.72-192.74,280.85-6.51,25.61-10.82,51.8-16.13,77.71,1.28.38,2.59.76,3.9,1.17,13.16-16.61,26.29-33.22,42.31-53.41,1-9.34,2.69-24.3,4.34-39.46,5.24,1.17,8.65,2,13.07,3-1.18-8.24-2.14-14.85-2.93-20.13,6.85-4,17.23-9.44,17.23-10-7.07-14.85,5.68-23.05,11.61-32.18,8.34-12.86,19.95-23.57,30.39-35.46-.31-.93-1.27-3.55-2.2-6.17,14.85,15.54,12.09-9.34,19.74-7.72,1-9.44,2-18.88,3-29.15,4.93,6.65,8.2,11.13,12.68,17.16,11.48-18.23,21.2-33.67,32.12-51.07,2.52,3.68,5.31,7.85,8.41,12.37,2.69-3.31,5.38-6.65,8.17-10.06-5.93-4.38-10.79-8-15.65-11.62l2.28-3.3,22.74,11.06V675c-3.69,7.21-5.62,11-8,15.62-3.34-2.87-5.78-4.93-6.34-5.42,7.62-19,22.09-14.81,36.84-9.54.49-2,1-4,1.52-6L462.09,657c13.37-7.55,17.34-6.44,34.36,13.34,1.65-8.55,2.86-14.82,3.38-17.65,10.37-7.06,19.6-11.57,26.46-18.43,9.44-9.44,16.16-8.1,20.61-1,7.58-3.28,13.51-7.38,19.85-8.2,8.17-1,16.68.62,25,1.13-.93-5.79-1.69-10.71-2.66-16.95,4.79,3.24,8.14,5.48,10.14,6.82,5.3-6.86,10-12.82,14.37-18.54,3.89,9.34,6.34,15.23,8.82,21.13l8.3-6.34c24.78,7.68,49.49,15.06,55.59,45.48,1.48-9.13,3.06-18.09-.66-22.95-10.3-13.4-11.13-26.57-4-42.87,4.69,6,10.44,10.69,12.58,16.72,1.89,5.3-.24,12.06-.62,18.19,2.86.45,5.72.86,8.58,1.28,2-7,3.89-14,5.55-19.89l55.79,15.06c-1.28,5.72-3.45,15.55-5.62,25.37l4.89.82c1.38-5.23,2.76-10.47,4.17-15.68l4.93-1.65c4.41,9.44,8.82,18.88,13.51,29,7-1.8,14.06-3.62,21.33-5.52l-14.06-12.75c8.75-3.82,15.37-6.68,19.4-8.44L857.32,668l5.62-9.92c4.82,8.2,8.92,17.67,15.44,25.05,2.27,2.55,10.47-.17,16.68-.48-.69-5.62-1.18-9.58-2.07-16.89,3.31,4,5.1,5.24,5.34,6.69,2.86,16.54,8.82,29.39,29.29,26.77,1.41-.17,4.45,2.41,4.48,3.79.07,2.14-1.34,4.79-2.93,6.41-2.24,2.24-5.24,3.72-7.89,5.55,1.27,1.62,2.55,3.24,3.82,4.89,10.62-8.85,21.27-17.68,33.64-27.91,2.13,5.75,4,11.37,6.34,16.75,1.93,4.44,3.89,9.06,6.86,12.78,4.48,5.62,9.85,10.51,14.92,15.79,15.06-16.65,15.13-16.72,35.77-18,2.2-4.2,4.44-8.41,6.68-12.61,4.34,2.52,8.69,5,13,7.55,3.93,2.27,7.86,4.62,16,9.4-3.79-11-5.82-17-7.89-23.08l2.28-1.24c5.51,6.75,11,13.5,17.75,21.71,17-15.3,52.62-4.48,54.79-41.32l-19.71-8.82,10.47-8c10.27,7.82,18.44,14.06,26.16,19.92-1,7.34-1.86,14.27-2.76,21.23.83,0,1.65,0,2.45,0,4.1-8,8.2-15.89,12.71-24.6q-1.9-1-9.3-4.93c11.85-7.93,22.16-14.85,32.46-21.78-2-1.21-3.93-2.45-5.89-3.65,2.55-6.72,5.06-13.44,7.37-19.58,15.3,12.1,27.67,21.85,41,32.36-.42-4.89-.8-9.68-1.21-14.51,7.89-5.37,15.78-10.71,23.54-16,4.75,9.17,7.16,13.86,9.61,18.58,4.76-2.72,9.51-5.45,13.79-7.86L1276,657.85c3.75-12.13,7.17-23.12,9.92-32,16.06,4.89,30.29,9.2,45.59,13.85.49-6.41.83-11,1.52-20.19,6.17,10.54,9.89,16.92,13.65,23.29,6-5.23,11.95-10.47,20.57-18-2.59,27.08,23.36,17.36,35.29,34.11-1.31-10.13-1.93-15.06-3.24-25.05,7.85,5,12.89,7.89,17.5,11.34,4.07,3,7.69,6.68,11.51,10,.38-.31.8-.65,1.18-1,4.13,5.75,8.27,11.54,14.47,20.22V651.51l43.49,37.56c-2.69,4.59-4.83,8.21-7,11.82,1.07,1.11,2.13,2.24,3.2,3.35q9.36-8.07,18.65-16.13c1.3.9,2.58,1.76,3.85,2.65-1.79,4.38-3.79,8.65-5.3,13.13-1.35,3.86-2.14,7.93-3.17,11.89,1.51.9,3,1.83,4.55,2.76,4.51-8.24,9-16.51,13.5-24.74,2,1.89,3.93,3.82,5.9,5.72,2.27,4.58,4.51,9.16,8.23,16.71,3-7.75,4.76-12.23,6.52-16.71,1.48.38,3,.79,4.44,1.2-1.24,5.76-2.51,11.55-3.75,17.2,8.44,9.65,17.09,19.5,26.22,30l8.75-3.28c.76,1.11,1.52,2.18,2.28,3.28L1549.94,769c5.52,3.44,11.89,7.44,17,10.61,5-3,8.89-5.34,12.82-7.68,1.34,8.51-3.86,15.92-2.1,20.92,4.58,13.19,11.13,12.64,15.74-2.52,4.11,4.58,7.72,8.61,12.1,13.47-4.41,3-7.41,5-11,7.52,6,3.34,12.2,5.58,16.64,9.71,4.17,3.9,6.41,9.83,9.51,14.82-4.55,2.07-9.09,4.14-13.4,6.07.27,17.71,29.46-1.86,26.84,23.36-7.75-2.55-14.51-4.75-21.29-7-1,1-2,2-3.07,3,5.44,5.14,10.1,12.86,16.51,14.86,15.12,4.68,22.91,11.54,16.47,28.08-.38.93,1.24,2.66,2.44,5.07,3.9-2.9,7-5.27,13.41-10-6,22.88-11,42-16.4,62.86.86.24,6.3,1.65,11.75,3.1,1.1,1.31,2.2,2.65,3.31,4-7.31,4.51-14.65,9-22,13.51,1.21,1.69,2.42,3.38,3.62,5.1,5.86-1.31,11.69-3.31,17.58-3.62,3.13-.21,6.41,2.48,9.61,3.86-4.37,8.37-8.23,17.13-13.64,24.81-.8,1.14-8.86-2.69-13.48-4.44-5.72-2.14-11.23-6.07-17.09-6.59-54.83-5-102,31.64-105.79,86.85-2.28,33.87.34,68.95,6.75,102.38,9,46.76,66.61,65.68,105,37.39,2.48-1.83,5.75-2.52,9.75-4.17v60.82c-13.41-4.62-25.12-8.75-36.87-12.68-58.59-19.54-128.16,2.65-163.83,52.28-20.06,27.84-14.54,53.72,17.92,63.82,29.6,9.23,61.13,14.13,92.15,16.68s57.92-10.86,80-33.16c12.2-12.3,15.13-29.7,7.1-44-6.61-11.82-20.5-15.3-32.67-8.23,29.12,22.47,27.78,39.52-6.68,56.89-43.9,22.09-88,17.27-129.78-6.06-20.23-11.27-22.06-28.33-6.34-45.66,9.51-10.51,20.16-20.68,32.08-28.16,38.36-24,78.57-25.19,119.58-6.3,15.27,7,30.74,13.54,48.8,21.46-2-14.74-4.83-25.63-4.86-36.52-.28-65.89.31-131.81,0-197.7,0-9.24-3.41-18.44-5.24-27.68l-7.82.52c-1.07,7.27-3,14.51-3.1,21.81-.76,36.64-.24,73.34-1.86,109.93-1.14,25.82-17,40.29-42.87,42.7-21.3,2-40.35-10.41-46.42-32.87-11.61-42.91-10.61-86.6.48-129.09C1553.11,1040.81,1569.59,1023.72,1593.71,1019.07ZM917.14,257.21c-12.51-23.15,21.54-58.92,62-63.65C974.07,226,955.4,244.84,917.14,257.21ZM1033.83,663.5C985,659,936.27,663.26,896.12,631c.14-2,.24-4,.38-6h21.06c4.41-6.37,11.51-15.71,22.85,1.45.93,1.41,12.88-4.48,21.36-7.62,1,2.07,3.17,6.65,6.58,13.86,7-12.2,11.93-19.34,23.57-7.48,4.21,4.24,14.65,3.1,22.23,3,6.07-.07,12.1-2.28,22.19-4.35C1035.48,637.69,1034.72,649.58,1033.83,663.5Zm55.79-245.25c8-18.61,14.65-37.8,23-59.58l13.1-1.52c7.2-42.32,33.29-75.5,55-110.93,21.09-34.43,36.94-70.68,38.77-112.72,16.4,4.41,22,16.09,19.33,28.95C1233.18,190,1225,217,1217.71,244.88c-4.93-2.73-7.89-4.38-10.89-6-.55.93-1.38,1.75-1.45,2.65-3.55,39.56-22.53,72.64-43.83,104.79-25.78,38.95-51.52,77.89-76.26,115.34C1078.94,451.05,1079.94,440.75,1089.62,418.25Zm5.41,75.64c37.18-1.21,43-4.83,50.66-34.29-9.34,4-16.37,6.17-22.61,9.82-6.68,3.93-12.61,9.2-22,11.89,1.86-6.79,2.55-14.23,5.79-20.3,11.23-21.12,22.19-42.56,35.52-62.34,8.89-13.23,21.51-23.95,40-22.46,2.51.2,5.48-1.35,7.79-2.83,16.33-10.48,33.35-20.16,48.52-32.12,10.61-8.34,18.64-19.95,27.81-30.08l-2.42-.83q-42,27-84.11,54c-1.69-1.48-3.35-2.93-5-4.41q40.21-94.33,80.5-188.64c1.31.11,2.62.18,3.89.24q9,43.38,18,86.81c.82,3.9,1.31,7.93,2.38,11.75,10.2,37.91,5.65,72.89-16.3,106.52-10,15.27-14.34,34.22-22.2,53.86-4.3,3.24-13.47,7.58-18.54,14.75-5.2,7.41-6.41,17.61-9.71,27.67-7-3-11.51-4.89-17.13-7.3-6.69,39.21-35.77,55.62-68.89,68.44-4.93,1.93-9.85,8.13-11.51,13.4-5.82,18.33-18,28.22-40.52,29.5C1072.63,546.72,1108.5,526,1095,493.89Zm4.76,148.39c-8.65,14.13-31,26.84-36.4,19.78-10.85-14.24,1.28-26.37,7.24-39,15.2,16,16.75,15.88,67.27-2.38C1137.62,634.56,1118.29,645.48,1099.79,642.28Zm118.78,4.65c-5-2.93-10-5.89-15.23-9,6.17-7,11-12.44,15.85-17.95,1.55.28,3.14.52,4.69.76C1222.09,629.46,1220.36,638.21,1218.57,646.93Zm-195.63,72.26h-.31c-.11.21-.21.42-.31.62Z"/><path d="M964.74,1777.35c-42.66,22.58-83.47,48.66-127.58,66.61-89.37,36.37-177.4,24.16-261.85-18.93-85.51-43.64-149.94-109.52-200.07-190.7-60.41-97.82-105.71-201.42-124.44-315.53-2.43-14.82-2.79-30-4.1-45l4.77-.6c4.85,24.83,9.26,49.75,14.62,74.46,22.69,104.57,61.81,202.2,123.52,290.18,2.3,3.28,4.64,6.55,7.16,9.66,15.94,19.63,23.91,19.72,34.11-2.09,12.21-26.12,33-41.61,58-53.31,66.38-31,135.3-34.34,203.92-12.4,54.37,17.38,106.51,41.63,160.12,61.53,15.19,5.64,32,7.66,48.22,9.61,22.44,2.68,36.59-10.1,46.37-28.66,18.6-35.32,11.25-73.34-18.86-101.17-8.94-8.27-17-17.5-25.46-26.28l3.61-5.16c7.69,3.5,15.19,7.54,23.11,10.4,18.11,6.56,36.18,13.49,54.76,18.43,12.67,3.37,20.83-2.29,20.47-17-.38-15.37-.09-30.76-.09-47,14.5-2.47,26-4.67,25.57,14.82-.08,3.42,3.39,9.26,6.25,10,12.23,3.19,13.77,11.54,14.05,22.18.72,27.5,6.2,36.17,34,43.54a424.9,424.9,0,0,0,72.54,12.39c57,4.86,114,9.85,171.17,11.3,81.89,2.08,159.23-19.68,224.45-68.21,65.66-48.86,115-112.85,134.28-195.51.72-3.08,2.73-5.87,4.14-8.79l4.85,1.44c-8.69,32.31-15.56,65.24-26.37,96.83-56.34,164.63-154.41,299.69-296.11,400.43-98.91,70.31-207.49,75.22-318.26,28.54C1023.15,1809.73,992.57,1791.59,964.74,1777.35Zm-512.46-91.09c-16.28,2.64-18.95,7.25-7.11,20.58,20.81,23.42,40,50.19,65.41,67.22,61.65,41.25,129.85,69.62,203.94,80.31,39.56,5.71,79.29,1.49,115.39-16.06,40.91-19.89,84.84-35.19,118.15-68.51a23.08,23.08,0,0,1,12-6.27c4.42-.66,10.41-.22,13.69,2.34,72.3,56.3,154,84.53,245.59,78.55,47-3.06,91.83-16.27,132.41-42.34,56.46-36.28,104.51-81.89,147.86-132.37,26.6-31,49.93-64.78,75.92-98.87l-10.85-2.28,22.13-33.86c-26.26-21.26-36.19,3.91-49.21,19.86l-2.28-4.34c1.34-3.78,2.68-7.55,5-14.12l-20.81,8.31c2.55,6.83,4.43,11.88,7.87,21.07-20.68-15.48-12.1,13-25.45,10.35,1.67-6.47,3.34-13,5.67-22l-19.8,5.54,4.11,3.15L1477.89,1591c-5.83-6.4-10.69-12.89-16.87-17.68-1.41-1.08-7.51,3.55-11.23,5.89-4.11,2.59-7.64,6.35-12,8.18-8,3.34-16.38,5.62-26,8.81-5.65-11.12-10.93-8-19.62.91-4.41,4.54-15.63,2.48-23.78,3.4l-.32,5.38-9.37-10.85c-13.12,21.4-26.19,1.82-38.16,1.54l-14.53,13L1291.37,1587c-4.94,9.91-7.85,15.75-12.95,26,0-7.37,1-11-.18-12.09a69.82,69.82,0,0,0-15.49-10.56c-1.62-.77-6.62,2-7.73,4.33-6.42,13.31-11.55,15.25-25.29,8.12l18.11-8.76-18.46-8.29-11.66,21.7c-3.79-7.32-5.87-11.34-8.91-17.19l-14.26,20.27-7.62-10.37-13.81,4.73-4.23-11.59-14,7.76V1583.7l-4.46-2.33c-3.57,5.12-7.15,10.23-10.94,15.65l-11.75-6.34c-.29,4.32-.49,7.43-.83,12.48-5.51-9.71-9.85-17.38-15.52-27.36l-23.58,30.09c6.28-28.59-21.41-12.82-27.65-25.4l-23.31,23c-2.76-4.27-6.63-10.22-12.57-19.39l-57.62,66.79L978,1664.44c-.59,1.29-1.19,2.57-1.78,3.85l-20.67-5c-1.88,3.55-4,7.53-6.09,11.49s-4.36,8.11-7.24,13.45c-11.22-17.4-35.11-13.33-51.15,5.78-3.32-4.72-5.87-12.5-10.15-13.61-11.09-2.87-23-2.7-34.49-4-2.6-.29-5.75-.93-7.53-2.6-11.27-10.61-22.23-21.56-30.32-29.47L770,1642.23c-5.58,4.08,13.78,22.3-9,28.28,3.53-18.18,9.63-35-13.15-40.76-8.16-2.06-31.19-2.63-39.62.66-3.72-19.06-36.55-30.15-60.73-20.07-4.59-7.23-6.72-24.58-19.52-6.1-.6.87-5.56.43-6.24-.73-7.47-12.67-19.71-3.81-29.37-6.31-3.68-1-8.94,4.24-14.55,7.19-3.42-1.17-9.58-5.14-15.63-5-10.14.29-21.55,7.06-30,4.1-11.54-4-10.2,10.17-17.85,8.4,6.18,15.18-6.07,8.52-11.36,9.28-17.49,2.5-23,12.82-12.17,33.28L465,1638.34c5.56,12.89,5.81,22.26-6.78,29.56C454.27,1670.2,454.31,1679.42,452.28,1686.26Z"/><path d="M126.89,1248.83H80.05c19.57-43,8.35-87.6,9.23-130.9,1.88-92.84.72-185.74.39-278.61,0-10.62-2.78-21.22-4.44-33H115.3c-1.29,12.2-3.4,23.11-3.44,34-.29,78-.17,155.94-.12,233.91,0,5.38.47,10.75,4.58,17.31l70.15-101.28L176.88,986c3.39-12.9,22.19-18.35,41-11.22-11.62,16.46-23.16,32.47-34.35,48.73-13.65,19.82-26.52,40.19-40.71,59.61-6.88,9.43-6.41,17-.21,26.16q44.65,65.94,88.7,132.31c.77,1.15.1,3.26.1,7.88l-39.58-2.42c-.05-2.14-.09-4.28-.14-6.42L205,1235.8c-14.62-22.16-29-44-43.4-65.74-9.82-14.79-19.35-29.8-29.89-44.07-2.89-3.9-9-5.45-13.56-8.09-2.17,4.67-6.14,9.3-6.22,14-.53,30.95-.58,61.92.18,92.86.12,4.69,5.19,9.28,8,13.87C121.84,1241.36,123.69,1244,126.89,1248.83Z"/><path d="M806.13,815.78h30.3v197.45c7.55-4.8,11.73-7.11,15.52-9.93,28-20.84,63.58-10.86,69.65,23.52,7.1,40.27,8.2,81.69,10.28,122.7.8,15.82-2.37,31.94-4.6,47.8-5.73,40.69-31.27,56.82-70.93,45.25-3.27-1-6.47-2.18-9.6-3.25-8.38,18.76-23.48,7.82-32.88,9.4,1.38-13.89,3.8-27.15,3.83-40.41q.45-175.43,0-350.84c0-10.31,5.27-23.32-10.31-29C805.88,828,806.59,821.31,806.13,815.78ZM836.81,1128c0,21.76-.36,43.52.23,65.25.16,5.86,1.66,13,5.23,17.22,11.19,13.37,25.64,22,43.75,17.18,17.84-4.73,25-19.2,26.5-36.22,2.21-25.61,5.11-51.34,4.56-77s-2.7-51.53-8.33-76.37c-5.55-24.41-28.67-32.34-47.78-18.5-14.25,10.32-24.08,24.36-24.17,43.14C836.69,1084.5,836.77,1106.25,836.81,1128Z"/><path d="M1851.35,1249.64c-7.33,0-17.49.25-27.61-.2-2.06-.09-5.16-2.51-5.65-4.4-.4-1.54,2.48-3.86,3.77-5.91,2.52-4,7-8.08,7.09-12.16.51-46.42.85-92.85.18-139.26-.47-33.18-12.65-54.8-33.75-59.72-28-6.51-43.86,12.68-57.36,31.93-6.7,9.55-10.78,22.79-11.22,34.55-1.39,37.19-.79,74.48-.37,111.73.16,14-5.25,30.16,11.81,41.53H1709c0-123.62.08-248.36-.13-373.09,0-10.24,5-23.39-11.43-27.4-.77-.18-.35-5.29-.54-9.37h33.58c.21,1.38,1.54,4.24.66,5.35-14.11,17.73-7.52,38.43-7.92,57.8-.89,43-.35,86-.26,128.93,0,4.84.83,9.69,1.74,19.58,8.21-9.44,13-15.83,18.63-21.26,34.14-32.73,80.19-22.22,95,22.35a161.55,161.55,0,0,1,8.1,45.27c1.15,36.64,0,73.35.59,110C1847.18,1219.44,1849.6,1232.94,1851.35,1249.64Z"/><path d="M1398.94,986.43l-17.85,11.36c0,12.49-.21,27.77,0,43,.74,45.25,1.07,90.52,2.91,135.72.47,11.62,5,23.39,9.34,34.46,5.08,13,14.49,22.1,29.76,21.89,15.06-.2,25.57-8.85,29.74-22,5.46-17.24,10.67-35.33,11.2-53.2,1.49-50.41.88-100.9.17-151.34-.11-7.78-5.15-15.49-8.38-24.53h43.5q1.41,2.06,2.84,4.09l-16.38,12.25c0,55.71-1.53,113.62.87,171.38.8,19.08,11.76,37.74,18,56.6,1.94,5.85,3.82,11.72,6.61,20.27-26.09-5.11-25.43-26.84-36.38-43.2-3.31,6.94-5.79,12.12-8.25,17.31-8.16,17.26-20.42,28.31-40.66,29.48-21,1.21-37-7.64-44.25-26-7.46-18.77-13.69-39.25-14.46-59.22-2-51.52-.59-103.17-.72-154.77a49.75,49.75,0,0,0-2-14.9c-1.09-3.41-4.23-6.16-6.45-9.2,4.38-1.56,8.68-4.07,13.17-4.49,7.91-.74,15.93-.2,23.91-.2Z"/><path d="M748,1321.39v43.93c-21.5,2.52-21.5,2.52-25.53-38.41-17.39-.5-17.39-.5-17.87,35.82-20.66,1-22.19-.46-22.19-20.54,0-22.33-.1-44.67,0-67,.07-19.64,3.69-21.86,23.23-13.8v41.68l18.27-3.74v-41.06c21.19-4.4,22.59-3.17,22.12,16.5-.24,10,0,20.1,0,30.15l5.5.73c2.3-9.2,3.2-19.1,7.31-27.39,3.88-7.81,9.91-17.43,17.21-20,13.53-4.83,28-4.13,38.41,10,15.47,20.91,16.65,64.89,1.52,86.4-12.66,18-44.22,14.11-55.72-7.49-4.27-8-6.11-17.33-9.07-26Zm46.61-50.15c-2.62,4.86-4.27,9.66-7.32,13.29-12.63,15-16.17,43.93-5.49,58.82,2,2.76,11.89,4,13.81,1.93C806.64,1333.4,805.93,1286.22,794.65,1271.24Z"/><path d="M1086.52,1124.19c-3,24.9-4.33,50.12-9.23,74.63-7.43,37.15-28.19,52.51-63.65,51-25.63-1.08-42.59-14.91-48.75-38.45a283.33,283.33,0,0,1-9.55-67.41c-.38-31.81.66-64,5.64-95.39,5.68-35.74,25.9-51,58.13-51,30.75,0,50.93,17.43,58.43,51.48a315.16,315.16,0,0,1,5.4,37.26c1.23,12.49,1.44,25.09,2.1,37.64Zm-16.09,1.77c-3.3-24.67-4.74-48.14-9.89-70.77-5.92-26-21-37.81-42.09-38s-38,13.2-43.62,38.88c-10.16,46.35-9,93.17.95,139.4,4.89,22.83,21.84,35.73,42.21,36.25,19.24.49,36.23-11.39,41.66-34.17C1065.3,1173.89,1067.08,1149.31,1070.43,1126Z"/><path d="M1213.59,1118.8c2.73-23.69,3.7-47.83,8.64-71.13,7.48-35.24,25.71-49.76,57.33-50.13,30.57-.35,51.22,15.06,58.67,49,11.24,51.32,11.74,103.37-.1,154.74-8,34.82-27.66,49.27-60.58,48.58-29.51-.62-48.78-16.77-55.12-50.74C1217.53,1172.92,1216.43,1146,1213.59,1118.8Zm118.74,7.49c-3.87-26.36-5.9-51.46-11.61-75.7-5.15-21.84-21.58-33.28-40.51-33.29-20.51,0-36.58,11.15-42.26,33.48-12.61,49.58-11.74,99.64,1,149.08,5.12,19.93,21.44,31.23,40.09,31.86s35-9.55,40.43-30.7C1325.78,1176.42,1328.27,1150.81,1332.33,1126.29Z"/><path d="M411.27,1249H380.1c18-38.74,6.88-78.76,8.71-117.75,1.91-40.57-.09-81.31.7-122,.28-14.45-3.51-19.08-18.58-17.14-7.52,1-15.93-4.94-23.93-7.74q.88-3.28,1.78-6.58h40.46V911.16c0-19.48.56-39-.25-58.41-.52-12.36-3.1-24.62-5-38.47h24.46V976.43l20.44,1.92c6.95,18.62-9.83,11.25-17.66,15.18Z"/><path d="M687,1116.86c0,30.91-1.37,60.06.52,89,1.11,17,15.59,27.83,31.52,28.88,18.56,1.23,26.32-5.72,26.65-24.3.2-11.46.23-22.93-.19-34.38a23.56,23.56,0,0,0-3.18-11c-2-3.22-5.56-5.46-8.44-8.14,4.4-1.51,8.72-3.92,13.23-4.33,7.83-.71,15.78-.2,23.57-.2.63,3.52,1.71,6.16,1.1,6.64-17.35,13.56-10.07,32.62-10.3,49.42-.23,17.2-1.89,32.16-20.52,39-21.14,7.75-46.54,2.59-57.57-14.07-6-9.07-10.88-20.82-11.06-31.45-1-60.17-.62-120.36-.41-180.55.06-18.61,9.52-32.72,23.22-36.31,14.9-3.91,31.91,3.5,40.07,19.59,15.79,31.16,17.61,64.94,14.29,98.85-.48,4.93-9.9,12-15.9,12.78C719.57,1118.15,705.12,1116.86,687,1116.86Zm-1.3-16.18c13.82,0,25.35,1.31,36.32-.6,4.89-.85,12.66-8.57,12.28-12.52-2.26-23.57-5.14-47.31-11-70.16-1.53-5.93-15-12.77-22.18-12-5.74.61-14.16,11.89-14.69,18.93C684.58,1048.69,685.69,1073.27,685.69,1100.68Z"/><path d="M263.17,1165.68c0,12-.57,24.07.13,36,1.15,19.44,16.25,33.41,34.65,33,18.18-.37,24.33-6.59,24.54-25,.12-10.88.91-21.85-.32-32.58-.54-4.76-5.28-9.07-8.24-13.5-1.42-2.12-3.12-4.05-4.7-6.07,2.55-1.7,4.95-4.49,7.69-4.87a73.14,73.14,0,0,1,17.12-.2c4.74.46,9.37,2.11,14,3.24-2.6,3.58-5.75,6.89-7.62,10.82a28.42,28.42,0,0,0-2.38,11.13c-.31,10.29-.43,20.61-.05,30.9.65,17.1-2,32-20.82,38.73-19.47,7-44.74,3.29-55.31-11.3-6.67-9.22-12.79-21.35-13-32.3-1.2-61.22-.77-122.47-.36-183.7.13-18.77,10.24-32.35,24.17-35.35,14.83-3.2,31.73,4.84,39.54,21.08,14.51,30.16,16.68,62.61,14.37,95.42-.8,11.36-7.18,16.32-19.55,16.14-14.32-.2-35.12-2.67-41.35,5.17-7.23,9.11-1.68,28.35-1.68,43.19Zm-.84-65c12.92,0,23.66,0,34.39,0,9.86,0,15.55-4.84,14.24-14.73-3-22.92-6-45.9-10.76-68.5-2.22-10.67-12.4-17-22.39-12.52-6.7,3-14.26,12.36-14.78,19.37C261.23,1048.65,262.33,1073.27,262.33,1100.63Z"/><path d="M518.84,977l20.79,1.1c4.94,20.33-13.52,10.09-19.47,15.69-5.16,20-2.68,229.88,3.47,254.67H493.77c12-83.26,2.84-166.88,5.17-250.1.05-1.55-1.13-3.13-1.83-4.93-12.57-5.32-31.24,7.66-39.85-15.18h42.06v-93.2c0-11.46.7-23-.2-34.37-.92-11.75-3.39-23.39-5.42-36.58h25.14Z"/><path d="M617.55,1248.66h-30c-.45-1.55-1.69-4.05-1.2-4.45,13.18-10.85,9.8-25.76,9.81-39.72q.11-157.08-.19-314.16c0-8.15-3.33-16.3-5.35-25.59h27Z"/><path d="M1132.58,1248.74h-25.74c0-48.23,0-96.07,0-143.91,0-16.61.86-33.28-.19-49.83-1.22-19.48,7.29-40.41-12.87-59.22h27.86l-3.41,45.45,4.17,1.85c3.86-5,7.83-10,11.55-15.18,12.4-17.15,27.35-28.72,50.3-27.1,5.26.38,10.92-4.69,18.65-8.31v47c-2.21-1.08-4.82-1.5-5.79-3-12.66-19.3-26.08-21.67-42.46-4.94-21.55,22-38.16,46-36,80,2.23,35.39.49,71,.52,106.55,0,9.75-3.09,21.18,12.18,23.12C1131.93,1241.38,1132,1245.36,1132.58,1248.74Z"/><path d="M565.74,1333.18v34.27l-20.35-1.91V1263.87c12.1-2.53,22.46-7.09,32.24-6.06s20.63,5.79,27.38,12.55c4.38,4.39,5.06,16.45,2.36,23-4,9.66-12.43,17.48-20,27.43,9.73,8.56,19.91,17.49,30.87,27.12l-14,20.38Zm2.5-24.31c8.67-12,15.48-21.45,22.28-30.89l-4.38-3C572.65,1279.81,560.83,1285.82,568.24,1308.87Z"/><path d="M856.59,1260.88c-3.55,32.35-4.8,62,6.65,95.65,18.66-34.34,8.61-67.4,12.33-99.28,14.66-2.09,23.2,1.83,21.89,18.51-1.83,23.27-2.5,46.66-5,69.85-1.08,10.08-4.56,22.16-18.09,20.67-14.16-1.55-33.12-1.33-36-19.49a431.78,431.78,0,0,1-5-79.76C834,1247,847.27,1260.45,856.59,1260.88Z"/><path d="M415.68,1310.21c0-8,0-16,0-24-.09-26.16,1.51-28,26.35-30,14.2-1.13,31.74,13.22,33.83,28.36,4.25,30.7-6.64,56.52-28.3,77.39-4.31,4.16-15.25,5-21.36,2.65-4.9-1.85-9.29-10.52-10.05-16.64C414.6,1335.53,415.68,1322.8,415.68,1310.21Zm44.81-32.32-7.71-5.75c-5.37,4.19-14.8,7.9-15.35,12.64-1.91,16.5-.74,33.35-.74,50.07l7.57,1.23Z"/><path d="M902.15,1333.17c18.12-6.73,27.22-.35,31.74,16.86,8-10.78,9.25-19.94-2.51-28.24-6.51-4.59-13.88-8.36-19.33-14-11.74-12.11-9.7-26.08-2.28-39.53,5-9.07,11.88-15.48,23.71-11.4,14.54,5,28.22,10.52,27.22,29.77-.32,6.17-.05,12.38-.05,18.41-20.44,1.5-20.56,1.35-25.4-30-12.75,13.17-11.27,24.92,3,36.18,8.58,6.78,17.89,14.27,22.82,23.59,6.24,11.8,2.18,23.94-10.73,30.29-11.83,5.82-34.42-1.07-39.61-11.45C907.68,1347.58,905.44,1341.13,902.15,1333.17Z"/><path d="M537.89,1270.73C506,1286.21,506,1286.21,507.63,1304c11.29-1.59,21.61-.75,23.93,13.36-7.45,8.92-28.51,3.79-23.78,25.68,13.43-9.26,24.31-8,34.05,7.38-12.6,6.15-24.74,15-38.06,17.44-7.62,1.42-20.17-3.29-19.75-18.17.75-26.84.11-53.72.13-80.58,0-8.79,1.94-14.77,13.23-11,4.46,1.5,10.11,1,14.85-.2C527,1254.3,528,1254.48,537.89,1270.73Z"/><path d="M337.79,1348c12.9-1.27,16-34.46,37.21-10.5-5.23,13.17-11.57,28-28.37,28.45s-28.59-11-33.66-27.17c-7.1-22.62-7.16-45.68,5.24-66.23,4.49-7.45,15.78-15.68,23.46-15.21,12.72.77,25,8.34,27.4,24,.25,1.68.13,3.43.26,5.14,1.72,22.09-.74,23.77-22.58,14.86v-24.63C329,1292.57,325.33,1324.92,337.79,1348Z"/><path d="M972.3,1260c12.51-1.83,23.48-5.17,34.13-4.36,6.35.49,12.19,7.51,20.08,12.83-14.79,11.83-43,6.59-34.65,31.6l31.57,14.35c-13.54,7.47-22.53,11.93-30.82,17.44-1.53,1-.22,6.3-.22,11.1,13.93-7.3,26.33-10,35.42,10.38-18.58-1.28-28.67,22.1-48.6,10.86-3.73-2.11-8.16-7.17-8.22-10.93-.52-30.31-.11-60.64.17-91C971.17,1260.83,972.63,1259.38,972.3,1260Z"/><path d="M382.23,1255.79l21.95,3.27v108.22c-16.46,1.11-23.66-2.81-22.47-20.71C383.63,1317.6,382.23,1288.41,382.23,1255.79Z"/><path d="M1022.3,719.83c1.12-.23,2.3-.82,3.33-.62,5.32,1,11.11,1.32,15.65,3.83,1.77,1,.7,7.09.92,10.87-4.11.18-8.53,1.44-12.25.33-7.28-2.18-11.8-6.75-7-15.06Z"/><path d="M1197.27,660.23q-5.16,7.2-10.32,14.38l-16.89-5.43-1.23-3.37,26.57-8.56C1196,658.24,1196.65,659.23,1197.27,660.23Z"/><path class="cls-1" d="M1264,310.34l-84.14,54-5-4.41q40.26-94.3,80.5-188.62l3.93.21q9,43.41,17.94,86.81c.81,3.92,1.32,7.92,2.36,11.78,10.22,37.9,5.67,72.86-16.27,106.49-10,15.29-14.35,34.22-22.22,53.88-4.29,3.25-13.45,7.56-18.51,14.76-5.21,7.39-6.42,17.59-9.73,27.66l-17.14-7.3c-6.69,39.2-35.76,55.6-68.87,68.44-4.93,1.91-9.85,8.13-11.52,13.39-5.82,18.33-18,28.23-40.51,29.49-2.23-30.22,33.66-50.89,20.17-83,37.18-1.24,43-4.83,50.67-34.32-9.33,4-16.38,6.19-22.6,9.83-6.71,3.93-12.63,9.19-22.07,11.89,1.86-6.8,2.55-14.22,5.78-20.29,11.24-21.13,22.2-42.57,35.54-62.36,8.91-13.2,21.52-23.94,40-22.45,2.52.2,5.49-1.36,7.79-2.84,16.33-10.48,33.34-20.14,48.53-32.11,10.59-8.35,18.63-19.95,27.81-30.09Z"/><path class="cls-1" d="M1217.72,244.87l-10.91-6c-.53.94-1.36,1.76-1.44,2.65-3.54,39.57-22.52,72.66-43.81,104.81-25.79,38.92-51.52,77.87-76.3,115.33-6.32-10.58-5.31-20.88,4.36-43.39,8-18.61,14.65-37.79,23-59.56l13.09-1.54c7.19-42.31,33.26-75.51,55-110.92,21.1-34.41,37-70.69,38.78-112.7,16.43,4.39,22,16.08,19.34,28.91C1233.18,190,1225,217,1217.72,244.87Z"/><path class="cls-2" d="M979.11,193.56c-5.05,32.46-23.7,51.29-62,63.67C904.63,234.05,938.7,198.27,979.11,193.56Z"/><path class="cls-1" d="M452.28,1686.26c2-6.84,2-16.06,6-18.36,12.59-7.3,12.34-16.67,6.78-29.56l25.77,16.14C480,1634,485.47,1623.7,503,1621.2c5.29-.76,17.54,5.9,11.36-9.28,7.65,1.77,6.31-12.45,17.85-8.4,8.41,3,19.82-3.81,30-4.1,6-.17,12.21,3.8,15.63,5,5.61-3,10.87-8.14,14.55-7.19,9.66,2.5,21.9-6.36,29.37,6.31.68,1.16,5.64,1.6,6.24.73,12.8-18.48,14.93-1.13,19.52,6.1,24.18-10.08,57,1,60.73,20.07,8.43-3.29,31.46-2.72,39.62-.66,22.78,5.76,16.68,22.58,13.15,40.76,22.8-6,3.44-24.2,9-28.28l38.61,2.13c8.09,7.91,19,18.86,30.32,29.47,1.78,1.67,4.93,2.31,7.53,2.6,11.53,1.31,23.4,1.14,34.49,4,4.28,1.11,6.83,8.89,10.15,13.61,16-19.11,39.93-23.18,51.15-5.78,2.88-5.34,5.07-9.39,7.24-13.45s4.21-7.94,6.09-11.49l20.67,5c.59-1.28,1.19-2.56,1.78-3.85l-11.31-13.52,57.62-66.79c5.94,9.17,9.81,15.12,12.57,19.39l23.31-23c6.24,12.58,33.93-3.19,27.65,25.4l23.58-30.09c5.67,10,10,17.65,15.52,27.36.34-5.05.54-8.16.83-12.48l11.75,6.34c3.79-5.42,7.37-10.53,10.94-15.65l4.46,2.33V1601l14-7.76,4.23,11.59,13.81-4.73,7.62,10.37,14.26-20.27c3,5.85,5.12,9.87,8.91,17.19l11.66-21.7,18.46,8.29-18.11,8.76c13.74,7.13,18.87,5.19,25.29-8.12,1.11-2.29,6.11-5.1,7.73-4.33a69.82,69.82,0,0,1,15.49,10.56c1.22,1.05.18,4.72.18,12.09,5.1-10.25,8-16.09,12.95-26l14.61,22.59,14.53-13c12,.28,25,19.86,38.16-1.54l9.37,10.85.32-5.38c8.15-.92,19.37,1.14,23.78-3.4,8.69-8.94,14-12,19.62-.91,9.63-3.19,18-5.47,26-8.81,4.38-1.83,7.91-5.59,12-8.18,3.72-2.34,9.82-7,11.23-5.89,6.18,4.79,11,11.28,16.87,17.68l14.08-28.49-4.11-3.15,19.8-5.54c-2.33,9-4,15.54-5.67,22,13.35,2.66,4.77-25.83,25.45-10.35-3.44-9.19-5.32-14.24-7.87-21.07l20.81-8.31c-2.35,6.57-3.69,10.34-5,14.12l2.28,4.34c13-16,22.95-41.12,49.21-19.86l-22.13,33.86,10.85,2.28c-26,34.09-49.32,67.89-75.92,98.87-43.35,50.48-91.4,96.09-147.86,132.37-40.58,26.07-85.39,39.28-132.41,42.34-91.63,6-173.29-22.25-245.59-78.55-3.28-2.56-9.27-3-13.69-2.34a23.08,23.08,0,0,0-12,6.27c-33.31,33.32-77.24,48.62-118.15,68.51-36.1,17.55-75.83,21.77-115.39,16.06-74.09-10.69-142.29-39.06-203.94-80.31-25.44-17-44.6-43.8-65.41-67.22C433.33,1693.51,436,1688.9,452.28,1686.26Z"/><path class="cls-2" d="M1027.8,528.28l-14.48-56.58c-8.06-66.31-48.76-120.86-66-185.95,17.92,3.44,24-4.83,27.7-19.27,1.62-6.34,10.07-10.92,18.06-19C1027,341,1024.28,435,1027.8,528.28Z"/></svg>