<svg id="Layer_1" data-name="Layer 1" xmlns="http://www.w3.org/2000/svg" viewBox="0 0 1508.52 1864.21"><defs><style>.cls-1{fill:#fff;}</style></defs><path class="cls-1" d="M1206.92,1407.44c11.2-3,22.59-5.41,33.55-9.12,9.24-3.12,14.07-.52,15.87,8.73-3.31,23.93-8.19,47.46-16.89,70.11-6.77,17.58-5.27,36.68-9.6,54.73-1.72,7.13,2.54,10.31,8.41,12.07,39.49,11.85,77.58,27.62,116.26,41.71,12.12,4.42,5.77,11.42.37,15.15-7.92,5.48-17.19,9.1-26.05,13.16-61.08,28-122,56.33-183.38,83.71-30.93,13.81-63.75,23.73-93.7,39.29-35.77,18.6-75.19,30.08-108.6,52.52-39.63,26.63-86.06,39.68-125.29,66.06-16,10.73-28.66,11-45.08,3.52-28.79-13-56.65-28.08-85.61-40.57-40.23-17.35-78.47-38.42-115.69-61-28.54-17.35-59.15-30.5-87.63-47.91a917.22,917.22,0,0,0-99.11-52.81,262.87,262.87,0,0,1-40.09-22.46c-5.37-3.67-11.15-6.73-16.59-10.29-5-3.29-15.62.06-15-9,.47-6.82,9.94-7.09,15.28-10.43,25.68-16,53-28.92,80.49-41.51,12-5.52,16.27-12.71,13.57-26.16-4.66-23.29,2.19-47.74-4.78-70.72-5.9-19.48-4.6-40.42-13.25-59.16.64-5.14,3.44-5.61,7.78-4,4.68,1.7,9.56,2.86,14.35,4.26,29.68,17.87,58.85,36.66,89.14,53.4,50,27.62,99.21,56.43,148.44,85.33,43.24,25.37,87.53,49,135.88,63.8,8.78,2.68,16.84,1.6,25.2-2.18,55-24.8,106.45-56.45,161-82.15C1061.74,1489.88,1135,1449.82,1206.92,1407.44ZM800.13,1840.65c11.8,2.61,25.89-5.81,40-14,40.75-23.67,79.8-50,125.17-65.57,34.93-12,68.22-28.73,102.16-43.55,27.14-11.85,53.77-25,81.35-35.67,19.72-7.65,35.32-21.81,54.79-30,36.6-15.41,71.52-34.71,108.63-49.15,4.15-1.61,10.47-1.78,9.93-7.74-.49-5.42-6.56-6.15-10.94-7a196.45,196.45,0,0,1-59.87-21.63c-12.28-6.82-30.2-1.58-37.66-18.83-6.68-15.43,1.27-29.24,3.43-43.54,3.07-20.38,3.42-41.53,15.4-60,3.87-6,5.09-13.91,6.46-21.15,1.55-8.21-1.22-11.44-9.83-7-15.2,7.89-28.29,19.66-45.1,24.57-13,3.8-25.59,8.78-36,17.44-6.44,5.34-12.21,11.92-19.86,15.13-20.87,8.77-39.9,20.92-59.44,32-22.23,12.6-44.4,24.69-68.2,34.38-32.92,13.4-65.89,26.95-97,44.48-24.58,13.83-49.2,27.9-77.35,33.92-6.2,1.32-12.88,3.39-17.77,7.15-11.44,8.83-21.88,6.9-32-1.1a64.74,64.74,0,0,0-19.5-10.48c-26.3-9-52.46-18.21-76.83-31.92-30.63-17.23-58.87-37.75-87.27-58.44-46.61-34-97.51-61.35-149.19-87-4.17-2.07-8.37-6.29-12.46-2.41s-2.25,9.66-.8,14.55c7.87,26.43,12.17,53.27,10.1,81-.27,3.59-.46,7.29,1.77,10.76,7,10.87,4.26,23.2-7.46,28.46-27.94,12.55-53.71,29-80.61,43.39-11.72,6.27-7.66,10.16.28,14.54,31.65,17.45,63.15,35.19,95.19,51.89q53.06,27.66,107,53.58c53.28,25.48,103.12,57.4,156.15,83.2C738.38,1827.34,764.59,1840.16,800.13,1840.65Z"/><path class="cls-1" d="M474.2,1406.62c-23.47-21-50.3-37.62-75.21-56.75-20.54-15.78-40-32.86-62.12-46.78-11.38-7.16-15.76-22.75-27.33-31.09q-3-9.48-6.08-18.94c.29-2.34-.09-4.41-2.34-5.72l-.81-2.76q-3.18-8.7-6.35-17.38-3.61-13.48-7.22-27c.13-2.37.11-4.67-2.47-5.91l.29-.19a161.27,161.27,0,0,1-6.82-38.67c-.68-13-3.55-26-5.45-38.93-.3-23.23-9.22-45.36-7.84-68.93,1.75-29.91.81-59.91,2-89.89.88-21.44-3.77-43.15-2.61-64.9,3.21-19.6,1.34-39.43,2.31-58.89,1.34-26.65-4.81-52.86-1.38-79.24,1.89-14.52-4.84-28.35-2.86-42.82,7.52,0,12.52,3.23,13.66,11,2.5,16.95,4.67,33.8,5.29,51.09,1.31,37.15-3.1,74.21-.34,111.29.59,7.85,2.89,15.86,1.94,23.49-4,32.49-2.42,65.08-1,97.46,2,45.87,5.47,91.72,8.85,137.54,6,81.58,45.57,139.09,113,180.84,20.41,12.63,43.41,20.37,62.76,35.15,32.52,24.84,70.2,41.45,104.29,64,28.57,18.93,56,40,87.18,54.81a223.33,223.33,0,0,1,37,22.16c25.69,19,50.06,39.7,77.53,56.39,15.58,9.46,30.22,10.56,45.61,2.12,19.09-10.47,38.38-20.75,56.54-32.7,39.85-26.24,79.75-52.51,118.34-80.56,50.62-36.8,101-73.84,154.67-106.22,18.18-11,38-20.07,53.5-35,19.12-18.4,40.47-34.08,60.54-51.29s41.58-34.57,50.8-59.84a498.69,498.69,0,0,0,19.09-63.75c7.7-35,14.81-69.89,14.67-105.95-.21-49.71-3.16-99.32-4.72-149-1.43-45.3,1.87-90.88,4.43-136.31,1.77-31.47-1.43-63.2-1.34-94.81,0-11.84-.86-24.15,4-35.61,10.5,2.87,10.44,11.85,10.64,19.86.71,28.14.89,56.31,5.26,84.2,3.19,20.35-6,40.29-1.64,60.62-1.4,21.74,8.14,42.91,4.29,64.55-3.47,19.51-.11,38.55,1,57.78.24,4,1.76,8,2.7,12,.77,44.84-7.89,89.33-4.26,134.38.92,11.5.4,24.06-3.82,35.61-4.94,27.87-8.15,56.22-15.42,83.48-5.16,19.38-15.19,37.37-27.85,53.86-29.43,38.29-66.86,67.75-102.62,99.5-39,34.61-84.59,59.56-124.28,92.73-18.67,10.48-35,24.23-52.2,36.78-64.39,47-133.93,85.55-203.58,123.92-7.73,4.26-15.44,8.6-23.47,12.22-10.52,4.76-21,5.43-31.94-.2-22.26-11.47-42.64-26.25-64.51-38-57.69-31-110.11-70.54-168.23-100.82C524,1428.05,498.52,1418.73,474.2,1406.62Z"/><path class="cls-1" d="M279.5,490.3c3.52,1.09,7,3,10.57,3.15,43.94,1.69,86.32,12,129.11,21,18,3.77,37.79-.11,56.69-1.55,53.82-4.13,104.46,6.08,152.26,31.3,14.51,7.65,27.21,17.75,40.74,26.72,3.78,2.51,6.31,6.09,5.89,10.44-.46,4.77-5.52,4.42-8.8,5.32-11.46,3.18-22.45,8.22-35.1,6.45-4.57-.64-9.87,2.24-14.55,4.21C546.48,626.88,512.83,682,504.5,755.24c-1.06,9.37,4.86,22.77-8.83,26.5-12.56,3.41-26.05,1.53-36.86-7a106.79,106.79,0,0,0-27.76-15.59c-18.48-7.18-37.49-5.37-56-2.66a153,153,0,0,1-45.74-.52c-9.73-1.49-17.28-6.76-23.84-15.15-11.82-15.15-23.94-30.69-43.29-37.47-14.87-5.37-28.62-12.47-39.81-24-3.78-3.9-8.27-7.34-13.8-8.8-10.6-6.52-14.85-19-24.8-26.17-9.31-23.06-26.92-40.56-41-60.37-5.07-7.12-14.86-8.26-23.13-6-29.87,8.15-55.24-1.45-73.68-23.55-12.59-15.1-23.47-32.89-29.5-52.54C11.39,485.56,6.88,469,1,453c-2.79-7.58,1.39-13.59,1.39-20.37l-.23-.19c4.26-2.18,8.86-3.92,11.11-8.67,8.7-1.11,16.72-5.63,25.74-5,2.25,1.45,4.35,3.75,6.8,4.2A111.15,111.15,0,0,1,89.8,441a14.48,14.48,0,0,0,10.53,2.22c20.22,7.71,39.87,18.14,60.79,22.51,32.71,6.82,63.77,21,97.73,22a38.46,38.46,0,0,0,5.51-.64Zm-43,98.39c-7.71-4.65-15.14-10.53-27.34-6.87,9.47,9,18,10.13,27.55,6.61,18.49,7.48,36.64,19.28,56.73,3.1-16.1-8.77-35.6-8.52-49.91-16.57C237,579.4,254.08,589.73,236.48,588.69Zm246.34-18.5c24.62,4.56,45.79-1.23,66.74,2,5.51.85,6.1-2.44,4.43-6.9-5.92-15.83-28.32-27.37-45.3-23.47-2.2.51-2.58,1.29-3.06,3.38C502.64,558.42,496.2,566.14,482.82,570.19Zm-93.28-9.49c-8.72-16.12-11.58-16.55-25.18-15.23-7.79.76-16.41-2.4-21.27-8.92-6.84,14.72-18.82,1.57-27.09,5.78,5.23,5.74,13.49,6.62,19,13,4.68,5.36,13.76,6.91,20.94,10,6.44,2.81,6.31,2.57,13-3.6,1.38-1.27,4.41-.94,6.69-1C380.13,560.6,384.58,560.7,389.54,560.7Zm51.22,49.66c5.8,8.19,16.49,6.36,20.94,12,10.61,13.5,25,8.88,38.1,10.37,5.91.67,7.6-2.47,5.49-7.7-1.89-4.67-41.61-23.42-42.8-20.58C457.51,616.33,448.44,607.76,440.76,610.36Zm6,98.87c6.76,2,13.7,4.13,20.31,7.55,5.25,2.71,11.55,7.23,16.39,1.43,4.44-5.32-7.3-6.21-5.11-12.94,10.41,3.25,19.05-5.06,29.42-5,3,0,3.69-3.16,4.2-6.12.76-4.42-1.5-5.9-5-6.57-2.42-.45-6.8-3.57-7.05-.57-1.19,14.51-10.54,5.86-16,5.7-11.22-.35-22.16-4.87-35.85-3,8.67,6.71,21.14,4.09,24.85,15.21Zm-90.15-58.49c7.47,26.32,23.56,31.35,47.08,19.13-8.14-11.46-20.2-18.4-31-29.72-.47,7,7,10.64,2.17,15.8ZM239,518.49c3.26,4,9.32,2.3,8.68,6.4-2.17,13.76,9.93,16.13,17,22.41,2.27,2,4.93,6.56,8.89,1.53,3.29-4.18,6-7.72,1.36-13.24C266.06,525,255.1,519.55,239,518.49Zm-77.1,2.23-18.63-13.46C145.77,516,149.54,523,161.89,520.72Z"/><path class="cls-1" d="M264.45,459.84c-4.13-8.48,2.9-17.45-1.15-25.91a10.67,10.67,0,0,1-.57-2.7c1.69-37.64-6.5-74.72-6.48-112.26a89.93,89.93,0,0,1,7.53-35c6.83-16.12,26.57-24.55,43.26-18.11s33.7,7.53,51.3,4.89c17.36-2.6,34.15,1.85,50.85,5.77,5.45,1.28,10.73,3,16.41,2.44,2.18.63,4.47,2.06,6.53,1.78,24.41-3.25,48.72-.91,73.16-.45,42.67.8,84.89,8.61,127.61,6.52,33.62-1.65,67.59,8.15,100.92-3.06,25.86,3.09,52,1.85,77.8,4.1,20.15,1.75,39.8,1.7,59.63-1.17,21.59-3.13,43.13-6.44,65.09-5.16,16.2.94,32.57,3.26,48.6,1.86,35.12-3.06,70.07-7.67,105.45-7.81,24.45-.11,48.94,4,73.37-.31,6,.22,12,1.53,17.67-1.53l7.65-.78,52.75-.63c16.14,0,32.21.92,48.38-1.49,22.66-3.38,45.92,12.95,44.17,40.25-1.44,22.55-7.65,44.54-6.68,67.26l-13,1.54c-4-7-1.8-14.51-1.6-21.84.27-10.22,1.23-20.46.83-30.65-.91-23.1-3.71-23-25.61-27.19-53.76-10.28-107.45.14-161.15-1.8-23.47-.85-46.38,10.07-70.34,7.88-49.21-4.49-98.59-3.81-147.75-1.82-64.18,2.6-128.51-1.67-192.39,3.14-38.86,2.92-77.84,2.14-116.58,6.42-27.91,3.08-55.09-6.08-83.21-5.12-60.47,2.06-120.47-7.55-180.79-10.22-14.85-.66-29.77-.16-44.65.24-9.45.26-15,4.76-16.84,14.93a116,116,0,0,0-.63,37.41c6.35,46.15,7.44,92.53,5.49,139L264.36,487Z"/><path class="cls-1" d="M800.13,1840.65c-35.54-.49-61.75-13.31-87.36-25.77-53-25.8-102.87-57.72-156.15-83.2q-54-25.82-107-53.58c-32-16.7-63.54-34.44-95.19-51.89-7.94-4.38-12-8.27-.28-14.54,26.9-14.4,52.67-30.84,80.61-43.39,11.72-5.26,14.48-17.59,7.46-28.46-2.23-3.47-2-7.17-1.77-10.76,2.07-27.68-2.23-54.52-10.1-81-1.45-4.89-3.21-10.74.8-14.55s8.29.34,12.46,2.41c51.68,25.68,102.58,53.06,149.19,87,28.4,20.69,56.64,41.21,87.27,58.44,24.37,13.71,50.53,23,76.83,31.92a64.74,64.74,0,0,1,19.5,10.48c10.12,8,20.56,9.93,32,1.1,4.89-3.76,11.57-5.83,17.77-7.15,28.15-6,52.77-20.09,77.35-33.92,31.16-17.53,64.13-31.08,97-44.48,23.8-9.69,46-21.78,68.2-34.38,19.54-11.07,38.57-23.22,59.44-32,7.65-3.21,13.42-9.79,19.86-15.13,10.45-8.66,23-13.64,36-17.44,16.81-4.91,29.9-16.68,45.1-24.57,8.61-4.47,11.38-1.24,9.83,7-1.37,7.24-2.59,15.2-6.46,21.15-12,18.43-12.33,39.58-15.4,60-2.16,14.3-10.11,28.11-3.43,43.54,7.46,17.25,25.38,12,37.66,18.83a196.45,196.45,0,0,0,59.87,21.63c4.38.81,10.45,1.54,10.94,7,.54,6-5.78,6.13-9.93,7.74-37.11,14.44-72,33.74-108.63,49.15-19.47,8.2-35.07,22.36-54.79,30-27.58,10.7-54.21,23.82-81.35,35.67-33.94,14.82-67.23,31.6-102.16,43.55-45.37,15.52-84.42,41.9-125.17,65.57C826,1834.84,811.93,1843.26,800.13,1840.65Zm95.27-186.33c0-7.23,4-15.43-2.57-21.59-9.48-8.84-36.49-5.31-45.41,4.46-14.74,16.15-22.69,36-31.23,55.53-11.14,25.53,3.77,60.26,30.89,67.52,16.15,4.32,31.47,10.49,47.17,15.8,7.44,2.52,15.26,3.48,21.41-1.3,15.46-12,27.57-27.22,37.79-43.87,1.42-2.32,2.57-5.39.09-7.69s-5.23-.56-7.3,1.28c-4.5,4-9.07,8-13.17,12.36-16.88,18.07-28.49,21.52-50.78,11.06-31.25-14.66-49.54-39.63-29.56-76.05,3.12-5.69,6.39-11.33,10-16.73,10.14-15.21,10.65-15.18,24.58-4.11C889.32,1652.59,891,1655.37,895.4,1654.32Zm-436.81-50.56c5.69-2.49,9.48-4.18,13.3-5.82,5.64-2.42,10.9-1.8,15.59,2.26,5,4.32.66,8.62-.37,12.72-3.06,12.12-9.28,23.14-11.57,35.67-1.68,9.15-6.78,13.09-15,4.18-6.23-6.75-13-13.42-24-9.12,1.58,7.47,6.38,12.67,11,17.69,16.1,17.3,35.71,14,45.59-7.59,2.7-5.9,4.61-12.17,7.33-18.07,16.86-36.5,16.9-36.48,57-28.89,1.05-14.12-7.27-17.52-18.86-17.69-4.6-.07-10.36.78-12.69-3.83-2.65-5.28,2.25-9.44,5.09-13.38,9-12.51,19.77-21.53,36.81-17,5.36,1.41,11.07,1.67,16.26,3.47,10.63,3.7,18.91,1.37,25.47-8-24.57-7-47.94-22.68-74.43-5.21.33-14.88-9.71-29.33-23.24-32.34-14.83-3.29-20.91,10.58-30.66,17.42,5.67,1.28,11,.27,15.67,1.49,8.72,2.26,19.51,3.68,19.55,16,.08,23.33-12.7,36.85-35.57,38C469.61,1586.26,461.39,1589.92,458.59,1603.76ZM693.4,1747.58c-19-1.14-12.59-11.66-8-21.08,4.25-8.76,10-16.89,13.53-25.9,8.69-21.93.71-32.28-22.77-29.55-9.58,1.12-15.92-.73-19.84-10.29-3.24-7.87-10-13.3-16.89-18.11-1.59-1.11-4.55-1.26-6.49-.63-2.75.89-2.28,3.51-1.36,5.82,7.84,19.66-5.32,34.52-11.85,50.82-1.21,3-3.39,7-8.39,3.26-3.3-2.51-6.32-11-11.54-2.75-3.91,6.16-4.2,12.83,2.09,18.81,23.7,22.5,23.61,22.6,36.15-8.23a13.42,13.42,0,0,0,.93-2.62c3.31-19.37,16-26.35,34.27-26.11,3.56,0,7.95-2.3,10.43,1.16,2.61,3.64-.92,7-2.78,10-7.23,11.91-13.65,24.32-20.7,36.27-8.34,14.13,2.18,22.59,8.24,30.76,4.88,6.58,12.19-2.12,18.1-4.87C688.82,1753.29,692.09,1752.89,693.4,1747.58Zm367.54-88.52c-1.9-19.87-10.56-35.53-22.75-45.78-20.8-17.49-48.54-24.55-70.87-40.51-3-2.12-6.42-1.13-8.81,1.54-2.19,2.45-1,5.15.31,7.7,4.74,8.9,11,15.28,21.47,18,23.28,6,24,9.18,7.7,25.53-4.16,4.18-9.9,7.65-5.84,15.09,11.47,21,24.05,40.82,48.25,49.41,2.73,1,6.21,2.55,7.81.46C1046.4,1679.83,1054,1668.72,1060.94,1659.06Zm121.21-118.3c7.41,3.61,10.15-3,13.37-8.8,2.15-3.88,3.92-9.67,0-11.32-8.38-3.54-17.65-6.42-26.62-6.62-6.24-.14-6,8.55-7.65,13.49-3.87,11.29-8.4,19.83-22.24,11.78-3.37-2-6.29-1-8.44,2.17a15.86,15.86,0,0,0-1.91,14.65c1.35,4,4.65,3.64,8.12,2.7,6.93-1.89,12.86.42,14,7.47,1.91,11.73,7.91,22.91,5.29,35.29-.49,2.29-1.47,5.38,1.25,6,10.28,2.24,20.32,8.24,31.13,4.8,9.69-3.09,9.42-12.88,11.26-20.83.57-2.46,1.65-6.07-1.58-7.3-1.65-.63-4.38.79-6.32,1.84-16.36,8.91-16.33,9-22.08-9.6-1.51-4.88-3.52-9.65-4.57-14.62C1162.77,1550.44,1170.56,1540.11,1182.15,1540.76ZM745.46,1749.84c3,0,4.82.09,6.67,0,18.45-1,30.29-20.53,22.8-37.76-1.56-3.57-4.13-6.62-8.56-5.57-13.54,3.22-27,6.65-40.49,10.14-2.21.57-4.93,2.23-4.1,4.68,4.83,14.27-5.65,24.07-10.21,35.47-5.63,14.07-.94,25.14,13.35,30.44,5.93,2.2,10.16-.58,14-3.63,5.67-4.48-.74-7-2.67-9.78-4.45-6.49-3.84-13.19-1.52-20C736.86,1747.69,742.05,1749.55,745.46,1749.84ZM1105,1618.63c1.57-3.75,2.9-7,4.26-10.2,11-26.12,9.58-31-13.71-46.43a11.68,11.68,0,0,1-1.15-.79c-5.67-5-9.68-2.75-13.66,2.58-11.81,15.81-12.26,28.1-1.58,45a147.8,147.8,0,0,1,10.18,18.21c4.84,10.79,15.31,14.39,24.22,20,3.13,2,6.78,1.72,6.93-3.14.27-9.06,4.23-17,6.55-25.51.84-3.07,1.66-7.16-1.07-9.21-3.13-2.34-5.71,1-8.42,2.78C1114,1614.26,1111.81,1619.16,1105,1618.63Zm-191.83,35.94c22.64,2.26,25.69,18.59,32.53,31.89,7.17,14,11.51,29.82,25.34,40.9,2.51-5.38,4.36-9.54,6.38-13.6s4.17-7.9,8.95-16.9c-12.17,9.72-13.37,2.72-16-3-5.24-11.3-10.52-22.63-16.58-33.5C944.56,1643.77,935.91,1642,913.21,1654.57ZM563.33,1677c.32,4.64.31,6.5.6,8.33,1.18,7.51,3.1,17,11.4,16.78,8.65-.27,6.64-10.49,7.24-16.79,1.21-12.89,3.22-24.88,10.23-36.62,9.23-15.47,1.68-28.64-15.69-31.43-6.87-1.1-12.19.65-8.43,8.63,5.5,11.69,2.19,22.47-1,33.6C565.76,1666.16,564.33,1672.92,563.33,1677ZM929,1634.18c4,1,8,.53,7.55-5.56-.5-6.37-.93-14.61-9.58-14.06-6.12.4-17.31-1.16-17.72,5.53C908.61,1630.45,919.25,1632.75,929,1634.18Zm-326.86-48.54c-6.81-.38-13.65-.87-13.72,6.77-.09,10,9,12.26,16.38,13.83,6.1,1.29,8.45-3.71,8.93-9.55C614.53,1586.94,609.21,1584.71,602.14,1585.64Z"/><path class="cls-1" d="M1327.7,378.37c16.64-12.19,35.45-18.37,55.85-19.84,25.22-1.83,46.79-16.54,71.82-19.73,14-1.78,27.74-1.25,41.57-1.31,11.26-.05,12.42,14.11,11.18,17-6.15,14.27-6.29,29.73-9.55,44.26-4.64,20.69-18.5,30.94-33.27,41.79-17.14,12.59-28.71,27.69-24.64,50.52-2.33,6.36-4.62,12.73-2.85,19.69-1.87,1.32-4.49,2.23-5.48,4-11,20.06-28.92,26.32-50.47,27.21-12.83.54-16.63,9.33-14.59,21.16-10.15,7.92-8.82,22.81-18.76,30.85-15.72,6.82-32.08,11.3-48.84,15-25.8,5.64-36,27.37-46.21,48.28-5.44,11.19-6.85,25-14.07,34.56-24.11,32-56.81,49.66-96.94,39-38.86-10.32-64.46,17.53-81.57,43.58-5.91,9-11.7,17.79-19.67,25.05-16.2,14.76-36.82,15.3-54.44,1.62-8.87-6.88-15.51-18.12-29.54-15.32-19.53,3.89-37.72,10.36-50.63,26.63-13.41,16.9-28.47,31.38-49.05,39.61-9.43,3.77-13,14.06-17.87,22.06-7.7,12.56-12.44,26.87-22.27,38.26-4.62,5.34-3.39,12.21-4.13,18.47-12.22.19-14.18-3.72-11.84-16.25,3.23-17.34-2.63-34.77-10.66-52.42-7.47,13.2-10.87,27.08-16.25,40.11-1.95,4.73,0,14.56-11.13,10-2-.81-1.7,5.41-6.79,4.6,3.77-24.13-14.82-39.12-24.83-57.7-5.11-9.48-10-18.46-12.27-29.16-7-32.35-42-47.15-70.38-30.1-6.45,3.89-12,8.82-13.29,17l-5.05-.65c7.75-26,21.65-36.25,50.77-38.32,7.33-.53,17.21,5,20.91-7.68.49-1.68,7.71-1.4,11.82-2,4.91-.73,9.83-1.43,17.05-2.47-8.12-7.32-16.26-9.74-24.05-12.88-2.71-1.09-7.23-1-6.85-5.5.34-4,4.27-4.29,7.34-5.17,4.38-1.27,9.1-1.83,12.87-6.46-12.16-7.37-25.35,1.86-39.94-3.91,15.64-9.32,31.33-13.28,50-19.25l-48.84-10.63c15.65-11.59,34.24-13.42,49.8-24.47-13.6-6.66-28.4,1.23-42.23-9.18l68.68-36.19c-31.94-9.75-60.38.09-89,3.89-1.73-2.85-5.9-4.18-5.33-8.48l-.17.19,3.11-2.62.07-.05c2.38-.38,4.76-.77,4.87-3.95,0,0-.49.13-.48.14,1.51.26,3.26.72,1.56-1.8,2.16-3.94,6.94-7.39,4.6-12.4-2-4.38-7.16-2.5-9.87-1.25-17.72,8.22-38.3,7.87-55.16,18.38-40.55,25.28-69,59.46-80.1,107.05-5.18,22.29-3.47,44.21-.07,66.34a32.89,32.89,0,0,1,.18,11c-.65,3.34-.67,8-5.59,8.6-5.31.59-5.29-4.39-6.59-7.5-9-21.41-7.59-43.47-4.53-65.85,6-43.94,22.83-82.38,58.23-110.19,19.1-15,40-26,65-32.23,37.07-9.22,73-9.72,110.17-5,9.16,1.17,19.22-2.11,28.48-4.71,35.21-9.87,68.94-23.79,103.09-36.77,50.74-19.3,102.32-36.44,150.74-61.21,35.14-18,74.91-22.42,110.18-38.69,54.81-25.28,112.6-43.25,166.69-70.05,2.42-1.2,4.38-3.33,6.56-5ZM1166.37,633l4.93-.46c-.29-.59-.53-1.63-.89-1.68a3.4,3.4,0,0,0-4,2.31l-.17.31Zm-157.64-20.58c-9,3.83-18.69,6.37-29.31,15.35,10.63-1.85,17.63-3.19,24.67-4.25,5.81-.87,7.53-4.15,6.27-9.54l2.93-2.62c23.61-8.14,51.91-3.12,73.55-25.22-9.72-.1-16.15-1.12-23.1,2-4.49,2-11.46,6.61-16.46.62s4.85-7.7,4.81-12.61c0-1.38.09-2.75.14-4.13.57-.56,1.73-1.49,1.64-1.63-1-1.57-2.11-.75-3.17.08-18.27,7.79-32.26,19.87-39.12,39.08ZM857.88,592.22c-22.16,7.72-39.6,17.53-56.59,27.41,5,8.5,18.05.69,19.25,11.78,1,9-10.78,11.67-13.61,21.2,6.1,0,11.11.14,16.11-.06,2.77-.1,6-.39,4-4.74-3.68-8.33,2.44-10.12,8.09-12.91,9.76-4.8,19.22-10.23,31.92-17.08-12.73-2-20.16.11-27.17,4.18-3.17,1.84-6.54,4.9-9.27-.24-2.35-4.44,1.13-6.62,4.17-8.82C842.22,607.57,850.85,603.63,857.88,592.22Zm355.26-127.79-76.94,44.32c4.82,2,9.16,1.85,10.65,6.84,1.72,5.74,7.56,5.13,8.32.57,1.81-10.91,10.47-10.29,17.44-12.5,10.3-3.26,21.58-2.92,30.35-7C1192.69,481.24,1212.6,477.08,1213.14,464.43ZM950.82,690.56c2.52,2.21,3.45,3.21,4.55,4,3.33,2.26,8,3.4,7.61,8.78-.49,6.2-5.61,4.81-9.45,5.65-4.15.91-7.74,2.78-9.61,8,5.72.74,11.18,2,16.66,2,11.14.09,14.71,3.92,7,14.62,10.53-.32,20.25,2.36,30.8-1.61-6.63-6.78-18-8.91-13.76-21.11.75-2.12-2.42-3.43-4.46-4.61-16.38-9.42-16.34-11.48-.09-21.74,1.44-.91,5-.63,3.1-5-3.42.71-7.11,1.06-10.5,2.27C965.76,684.33,959,687.28,950.82,690.56Zm-2.1-54.13c-17.41-12.13-17-14.91,2.19-24.16,1.67-.8,3.46-1.4,5.05-2.34,3.33-2,9-2.79,5.9-8.73-2.79-5.34-6.62-1.57-9.36.08a196.12,196.12,0,0,0-41.26,33.55c-1.28,1.35-2.11,3,.27,5.47C922.82,636,935.56,643,948.72,636.43Zm-82.08,54.93-42,20.44c11.4,4.82,17.58-.6,24.41-.66,9.74-.08,14.08,5,9.4,13-4.15,7-.2,7.15,4.41,7s9.21.11,14.19-3.2c-19.76-16.25,11.53-11.75,8.18-23.08-4.19,1-8.47,1.89-12.71,2.93-5.23,1.27-10.44,1.84-13.16-4.07C856.22,696.81,866.24,699.33,866.64,691.36Zm72.86-122.5c7,.92,12.88.93,18.37-1.38,6.71-2.82,12.68,4.17,18.83,1.21,3.15-1.52,8.84.25,9.25-5.61.46-6.58-13.53-18.5-19.26-15.63C956.74,552.43,945.65,556.5,939.5,568.86ZM1214,566c9.17-2.66,11.26,8.56,15.72,7.65,14.33-2.92,28-8.71,37.88-20.53,1.48-1.77,3.28-3.64,1.1-5.86-2-2-4.34-1.23-6.28.22-4.81,3.63-9.6,7.3-14.23,11.15-3.63,3-7.18,6-12.36,5-6.3-1.21-5-7.48-6.38-13.13C1223.32,555.35,1218.41,558.58,1214,566ZM773.88,762.56c1.65,3.27,5.14,6.9,4.49,9.49-2.71,10.74,5.84,11.91,11.7,15.71,3.74,2.44,6.31,3.26,8.61-1.82,2-4.5.91-7.17-3.46-8.33-3.77-1-7.14-2-7.79-6.46,3.53-3.79,10.22,1.71,13.06-4.38C790.77,760.87,790.77,760.87,773.88,762.56Zm307.71-150.74c43.28,13.11,43.28,13.11,55.17,1.9a38.21,38.21,0,0,0-23.09,2.58c-3.3,1.42-8.21,3.12-9.54-1.76C1099,595.53,1091,610.54,1081.59,611.82Zm-258,64.83c-17.42-.07-18.13.43-17.65,12.66.11,2.91-2.05,3.81-3.45,5.51-1.8,2.2-7.41,4.29-3.77,7.22,6.5,5.23,11.84-2.08,17.7-3.92,2.58-.81,6.59-2.79,3-5.34C809.61,685.76,818.45,682.51,823.63,676.65Zm386.09-27.25c-17.61,1.61-35,4.44-53.24,17.19C1177.38,662.41,1194.13,658.05,1209.72,649.4ZM1079,673.06c13.34-7.83,29.66-2.7,43.37-10.31C1103.79,656.41,1100.67,657.07,1079,673.06Zm284-272.5c15.25-5.09,31.48-7.75,44.73-17.88C1390.58,382.93,1376.58,391.15,1363,400.56Zm18.08,18.71c-14.18-2.25-24.83,2.4-33.15,17.23ZM1172.81,632.36c8.17-4.17,14.51-3.73,18.44-8.85C1181.06,614.16,1178.1,622.35,1172.81,632.36Z"/><path class="cls-1" d="M458.35,835.72c0,.9.39,2.12-.05,2.63-17.4,20-19.18,44.63-20.61,69.31-2.22,38.1.18,76.09,3.69,114,6,64.65,13.45,129.09,12.77,194.29-.38,36.64,4.18,73.43,26.4,105.19,3.6,5.14,6.81,11,7.55,17.68-22.25,2-41.46-13.52-47.87-37.54-10.77-40.34-12.9-81.58-14.22-123-.89-28.33-3-56.63-5-84.91-1.37-19.27-7.94-23.93-27.4-20.72-29,4.78-34.25,11.17-30.46,41.24,1.74,13.81,2.11,27.71,4.15,41.54,2.9,19.68-5.61,37.55-15.58,53.85-5.69,9.31-16.89,8-26.53,7.15-4.36-.35-5.24-3.72-2.79-7.09,23.28-31.87,12.33-66.58,9.37-101C327.15,1054.61,321.49,1001,320.7,947c-.57-39.07-1.93-78.09-10.72-116.46-2.32-10.12-4.72-19.78-13.2-26.81-2.36-2-5.32-4.63-3.11-8.32,2.6-4.33,6.21-2.06,9.84-1.17,23.59,5.77,31.82,24.11,36.1,44.94a304.21,304.21,0,0,1,5.62,77.7c-1.75,32.64,5.19,64.8,6.34,97.35.82,22.82,4.87,25.66,27.48,28.61,28.94,3.78,36.37-2.67,33.55-30.56-4.92-48.62-9-97.2.3-145.76C417.87,840.59,433.19,830.32,458.35,835.72Z"/><path class="cls-1" d="M965.48,1212.05c-2.13,36-15.21,69.07-14.66,104.41.17,10.93-3.28,22.12-9.26,31.81-5.32,8.61-10.44,8.32-14.68-1.11-5.53-12.27-4.83-25.58-5.48-38.41-3.24-63.24-13.92-125.67-19.75-188.61-1.13-12.22-3.74-23.93-13.65-32.56-3.28-2.85-3.37-5.65-.88-9.63,3.79-6.07,6.06-.59,8.81.51,17.23,6.91,23.1,22.24,26.84,38.3,6,25.76,11,51.75,16.5,78.26,4.64-3.13,4.5-8.7,6.52-13s3.18-8.73,4.87-13.06c3.21-8.23,7.08-18.64,16-18.9,9.07-.26,11.54,10.93,14.44,18.56,10,26.33,19.56,52.83,31.52,79q0-64.29,0-128.58c0-61.22-4.5-122.41-2.06-183.64.74-18.48,3-37,7.79-55,5.06-18.8,18-31.06,34.57-39.9,4.06-2.16,8.74-4.7,12.63.1s-1.39,7.2-3.34,10.56c-8.83,15.29-16.35,30.93-19,48.85-8.51,58.35-1,116.81-1.92,175.21s-2.55,117-4.73,175.57c-1.16,31.12-4.19,62.08-5.19,93.18-.09,2.82.68,6-2.76,7-5.31,1.44-9.18-1.82-11.63-5.8-8.27-13.45-16.29-27-20.77-42.41-7.79-26.77-15.89-53.46-24.09-80.11C971.1,1219.31,971.35,1215.06,965.48,1212.05Z"/><path class="cls-1" d="M778.47,993.49l7.59,2.44c20.92,6,23.79,4.87,26.2-10a148.81,148.81,0,0,1,47.7,8.55c18.41,6.55,26.13,22.92,22.46,41.93a177.65,177.65,0,0,1-31,72c-8.08,11-18.75,20.37-29,29.58-5.88,5.25-13.76,4.65-21.26,2.47-9.72-2.82-18.79-5-29.67-1.73-12.51,3.69-20.36-8.36-29.39-15-4.42-3.25-7.36-8.88-12.06-11.3-43.49-22.44-52-82.9-20.82-127.59,8-11.5,20.14-14,33.14-14.11,4.9,0,7.62,2.43,9,7,1.51,5,4,9.38,8.53,12.33C766,991.51,771.92,994.21,778.47,993.49Z"/><path class="cls-1" d="M747,1499.23c13.17-18.54,17.53-37.65,18.2-58.09,1.81-55.82,1.88-111.59-3-167.28-1.44-16.66-.94-33.37-2.7-50.1-2-18.65-6.48-35.51-18.87-49.86-2.29-2.66-6.15-5.49-2.6-9.49,3.7-4.16,8.26-3.61,12.6-.7,16.75,11.25,29.63,25.51,33.88,45.85,5,24.13,8.54,48.35,8,73.23-.47,21.93,3.25,24.38,25.43,26.2,11.4.93,16.36-2.2,17.68-14.76,2.43-23.29,0-46.49,1-69.71,1-22.31,9.9-41.3,22.37-59,2.06-3,5-6.67,8.93-5.63,5.29,1.42,2.31,6.32,2.13,9.55-2.34,43.07-9.31,86-7.58,129.12,2,49.61-1.08,99.44,5.64,148.84,1.6,11.76,6.46,22.58,16.41,29.45,8.73,6,2,8.14-1.93,10.15-9.2,4.76-28-2.44-33.66-12.9-8.2-15.06-10.33-31.87-11.18-48.51-1.12-22.24.35-44.62-.88-66.85-1.19-21.45-5.11-23.69-21.78-25.15-12.31-1.07-20.79,10.7-22.36,26.89-2.32,24-2.26,48.24-3.35,72.37-.36,7.88-.88,15.78-1.79,23.62C784.11,1486.78,780.55,1490.63,747,1499.23Z"/><path class="cls-1" d="M624.36,1217.89c-.22,33.59.26,62.79,2.3,92.06,2,28.37,14.29,52.68,24.68,77.93,2.82,6.85,9,9.1,16,8.76,9.62-.48,20.16-3,23.79-11.72,10.28-24.58,17.19-50,7.5-77-3.86-10.76-8.61-15.2-19.1-8-4.3,3-9.68,6.92-13.74,2.65-4.25-4.48-2.78-11.54-.54-17.22,3.75-9.53,23-19.55,33.82-18.15,12,1.54,18.52,10.42,20.56,26.06,4.56,35,3.09,69.36-7.44,103.4-6.08,19.67-19,34.36-34.31,35.25-23.51,1.35-44.76-11.54-53-30.74-18.28-42.63-25.19-87.51-25.58-133.32-.5-59.06-1.45-118.18,6.27-177,2.3-17.52,9-32,21.09-44.23,18.1-18.22,42.25-12.5,50.39,11.75,5.07,15.12,8.37,30.4,1.29,45.81-1.71,3.72-3.78,7.68-6.75,10.32-3.56,3.15-7.23,9.13-12.72,6.36-5.71-2.88-.73-8.31-.43-12.56.63-9.23,3.47-18.38,1.17-27.71-1.25-5.06-3-10.9-8.95-11-4.86-.1-10.07,2.29-12.06,7.92-4.18,11.8-9.3,23.33-10.46,36C624.86,1149.7,622.24,1185.87,624.36,1217.89Z"/><path class="cls-1" d="M1202.13,1131.77c-15.66-3.42-28.08-15.8-38-31.47-2.92-4.63-4.72-9.69-8.71-14-6.25-6.73-12-6.2-19.92-3.7-8.46,2.68-8.39,8.37-8.64,15.08-1.52,42.31-4.5,84.43-18,125-3,8.88-6.7,17.37-13.13,24.34-3.07,3.33-7.54,4.84-11.4,2.71-3.14-1.74-1.91-6.06-.95-9,14.64-45.34,14.92-92.4,15.27-139.17.44-57.14-1.55-114.3-2.21-171.46-.11-9.71,1-19.46,1.89-29.16.3-3.27,2-6.64,5.56-7.27,4.43-.77,7.18,2.4,8.15,6.12,9.46,36.14,30.28,67.71,41.43,103.12,8.81,28,20.37,54.79,32.83,81.27,6.46,13.71,18.18,21.88,30.27,29.94,4.28,2.86,12.56,3.54,11.34,10.43-1.41,8-9.7,5-15.24,6.16C1210.43,1131.16,1208.08,1131.19,1202.13,1131.77Zm-78.72-140.45c-6.64,12.73-3.59,24.4-.84,35.91.71,3,1.25,8.83,6.22,7.4,4.38-1.26,7.88-5.36,6-10.88C1131.18,1012.89,1127.23,1002.13,1123.41,991.32Z"/><path class="cls-1" d="M1251.17,905.19c0-11.82.28-21.8-.05-31.76C1250,839,1254,804.7,1259.38,771c4-25.05,16.77-47.76,36.88-65,3.88-3.33,8.53-8,13.28-3.84,4.06,3.55-2.21,6.87-3.34,10.48-7.45,23.9-13.14,48.26-19.49,72.45-10.57,40.26-9.83,81.11-7.84,121.78,1.76,36.06,7.34,71.95,11.75,107.86,4.87,39.77-5.4,75.23-29,107.2-1.65,2.24-3.48,5.24-6.53,4-5-2-2.66-6.42-1.76-9.6a473.36,473.36,0,0,0,14.51-69.49c4.25-33.56.2-65.65-16.15-95.79-3.38-6.21-7.15-11-13.34-15.18-11.94-8-22.16-18.19-29.18-31.27-6.8-12.69-14.33-25-21.61-37.4-13-22.26-17.61-24.43-42.75-21-3.91.53-9.08,3.76-11.45-1-2.67-5.33,3.06-7.88,6.41-10.65,18.35-15.19,42.29-9.68,60.23,7.48a99.05,99.05,0,0,1,22.29,31.77C1228.6,888.12,1235,894.87,1251.17,905.19Z"/><path class="cls-1" d="M782.74,496.27c-1.78-32.31-2.76-64.11,3.38-96,4.57-23.74,14-44,32.5-59.83,2.82-2.42,5.34-5.38,9.38-5.52,3.1-.12,6.7-1.41,8.8,2.23,1.61,2.79.46,5.32-1.16,7.75C804.52,391.54,806,444.16,807.76,496.8c.22,7,1.27,13.92,1.16,20.87-.13,7.19,1.77,16.69-6.87,19.47-10.24,3.29-21.72,3-29.37-6.42-9.9-12.21-20.11-24.4-26-39.33-10.53-26.8-29.59-48.15-45.49-71.52-1.47-2.16-3-5.58-6.26-3.67-1.45.85-2.15,4-2.21,6.1-.51,16.73-.44,33.48-1.23,50.19-.89,18.66-8.44,33.11-27.36,39.58-3.23,1.1-6.8,2.24-9.23-.14-3.39-3.3,1-5.69,2.36-8.18,13.79-24.58,15.5-51.21,13.51-78.47-1.86-25.45-3.7-50.89-5.81-76.32-.32-3.83-1.4-7.73,2.32-10.09,4.5-2.85,6.48,1.95,9.14,4,10.41,8.07,18.2,18.46,25.66,29.2C730.2,412.47,754.4,455.35,782.74,496.27Z"/><path class="cls-1" d="M513.48,1148.54c.59-24.13-1.21-56.51,1.3-89.1,2.09-27.12-.69-54.8-3.28-82a139.79,139.79,0,0,1,5.63-54.95c1.68-5.51,4.21-10.52,9.2-13.49,5.39-3.2,11.27-9.56,17.47-5.37,6.42,4.34-1.2,9.64-2.18,14.58a194.14,194.14,0,0,0-4.14,42.92c1.11,42.72,2.75,85.43,3.42,128.16.63,40.42.28,80.85.4,121.28.11,36.13,7.31,70.9,20.07,104.64,1.81,4.79,7.5,10.31,1.64,15s-11.41.28-16.27-3.45c-14.46-11.07-20.45-27.28-25.36-43.76-7.25-24.28-8.31-49.35-8-74.55C513.69,1191.26,513.48,1174.06,513.48,1148.54Z"/><path class="cls-1" d="M965.64,426.65c-5.57,0-11.15.25-16.7-.1-3.54-.22-7.4,4.88-10.05.78-2.9-4.49,2.18-7.37,4.58-10.54,4.81-6.38,11-9.88,19.26-8.68,14.75,2.16,29.62-2.64,44.42,1.07,5.07,1.27,9.17,2.68,8.73,8.6-1.69,22.83-5,44.85-21.53,63-20.23,22.22-63.87,19-84.57-7.32-32.67-41.51-27.6-90.09,4.63-130.59,12.64-15.89,52-18.93,69.37-8.07,8.69,5.43,11,14.56,14.12,23.25.89,2.5-.33,4.56-2.25,6.06-2.4,1.89-4.06.15-6-1.29a122.39,122.39,0,0,0-11.51-7.8c-16.65-9.84-24.46-8.31-39.2,4.61-35.49,31.11-29.8,63.85-11.1,96,7.69,13.2,21.28,16.69,35.07,15.59,12.11-1,14.66-12.63,18.33-22.09.17-.43.33-.87.49-1.3C989.9,425,989.9,425,965.64,426.65Z"/><path class="cls-1" d="M373.73,441.79c-.47,8.82-.55,17.68-1.51,26.44-1,9.45-5.43,17.22-15.46,19.16-5.16,1-11.73,4.69-15.8.52s3-7.76,4.09-12a14.19,14.19,0,0,0,.92-4.05c-1.91-39.8,3.25-80-7-119.32-3-11.46-8.29-21.59-17.56-29.47-2.32-2-8.18-3.06-4.79-8.14,2.4-3.59,6.7-2.89,10.28-1.86a39.6,39.6,0,0,1,22.86,17.27c5.44,8.56,11.16,17,13.06,27.47.95,5.26,4.22,10.26,7.07,15,6.79,11.26,11.29,11.76,19.68,1.39,11.73-14.5,23.65-28.73,39.79-38.52,7.43-4.5,15-9.81,24.51-4.39,5.87,3.35,6.95,7.25-.15,9-27.29,6.75-33.89,34.38-51.88,50.41-2.06,1.84-2.11,3.67.48,5.56,21.59,15.76,27.36,42.58,43.36,62.31,5,6.19,9.25,12.76,17.69,14.72,2.71.63,6,1.91,5.3,5.26-.63,2.87-4,3.24-6.86,3.7-18.78,3-31.52-3.75-43.37-23-7.51-12.2-11-26.67-21.59-37.18-5.84-5.79-11.37-16-19.38-13.12s-3.31,14.14-4.26,21.69c-.46,3.66-.08,7.43-.08,11.15Z"/><path class="cls-1" d="M630.79,816.22l5.05.65c-2.37,32.35-3.88,64.67,2.1,96.87,1.77,9.53-2.49,11.3-11.14,8.21a158,158,0,0,1-71.3-51.14c-9.2-11.51-19.5-22.44-25.29-36.38-1.35-3.24-4.83-6.72-1.31-10.11,3.93-3.78,8.32-1,11.13,1.72,13.54,13.09,33.64,9.68,48.31,19.69,2.87,2,4.61-.28,5-2.43C597.08,822.08,615.47,821.3,630.79,816.22Z"/><path class="cls-1" d="M1178.51,348.24c-11.52-.33-18.42-5.59-23.72-14.11-2.39-3.84-3.77-10.46-11-8.11-5.84,1.89-11.13,4.35-13.41,10.94-4.18,12.06-1.77,22.17,9.19,29,16.43,10.18,22.24,25,21.68,43.61-.29,9.66-3.67,17.18-11.7,22.32-10.38,6.62-22.25,9.26-34.15,10.92-6.82.95-12.66-2.68-16.15-8.88-2.33-4.15-4.71-8-9.54-9.56-3.92-1.24-9-1.68-8.08-7.47.74-4.56,5.55-4.21,8.94-5.35,9.49-3.22,18.62-4.73,27.71,2,5.23,3.86,11.5,4.7,15.62-2.19,3.7-6.17,3.78-12.49-1.79-17.72-5.41-5.08-11.29-9.64-16.79-14.62-15.29-13.85-18.35-29.71-9.26-47.28,11.17-21.6,26.49-30.15,47.16-25.53,9.94,2.22,17.77,8.31,21.17,18,1.75,5,3.17,9.52,7.84,12.4,2.93,1.8,5.62,4.47,4.54,7.84C1185.39,348.7,1180.91,348.1,1178.51,348.24Z"/><path class="cls-1" d="M852,980c-8.67-.56-15.68-.49-22.51-1.57-13.35-2.1-16.08-6.54-9.52-18.53,11.8-21.56,30.65-35,54.74-38.68,13.11-2,26.77-.94,40.07-3.32,6.86-1.22,9.91.85,6.36,8.28-10.39,21.76-24,41-46.23,51.58C867.89,981,858.57,979.43,852,980Zm24.11-36.59c-12.23,2.64-22.06,9.31-30.62,18.08,12.43-2.34,23.23-7.36,30.49-18.22l.81-.78C876.55,942.75,876.33,943.06,876.1,943.36Z"/><path class="cls-1" d="M530.31,401.2c-1-17.8.33-37.46,10.78-55.64,5.49-9.56,13.89-13.1,24-14.13,2.32-.24,4.85-.3,6.27,1.89,1.52,2.37,0,4.49-1.54,6.21-14.93,16.34-14.3,37-13.65,56.6,1,30.42-2,61.45,9.38,90.88,1,2.52,1.66,5.65-1,7.73-3,2.39-6.19.79-9.18-.47-6.05-2.54-8.7-8.07-11.58-13.39C530.74,456.63,529.89,430.22,530.31,401.2Z"/><path class="cls-1" d="M605,738.7c1.81,31.22-14.07,52.79-30.93,74-4.17,5.25-6.65,2.64-9.63-.7-7.48-8.42-9.83-19-10.74-29.54-2.89-33.52-.71-65.66,27.26-90.25,6.48-5.69,10.24-5.84,12.82,2.09C598.67,709.52,609.24,723.35,605,738.7ZM569.6,801c27.75-19.92,30.52-47.13,26.15-76.28-.77-5.12-3.54-14.52-10-12.4-8,2.62-2.14,10.19-.2,15.42,4.22,11.36.74,25.06-8.54,25-17.18-.1-13.84,10.35-14,20.32C562.9,782.6,565.48,791.33,569.6,801Z"/><path class="cls-1" d="M778.47,993.49c-6.55.72-12.48-2-18.63-3.38a230.69,230.69,0,0,0,1.69-50.65c-.27-3.18-1.56-7-.28-9.4,1.79-3.34,2.83-8.74,7.85-8.76,4.84,0,7.66,4.15,8.06,8.29,1.9,19.89-2.68,40.29,4.57,59.85C782,990.27,779.62,992.12,778.47,993.49Z"/><path class="cls-1" d="M812.26,985.94c-2.41,14.86-5.28,15.95-26.2,10,11.69-6,8.24-17,9.2-26.77.77-7.75,2.84-15.38,4.6-23,1.15-5,2.64-11,9.59-8.84,5.57,1.7,7.7,6.89,5.26,12.37-4.74,10.68.33,22.72-5,33.28C809.51,983.42,811.37,984.93,812.26,985.94Z"/><path class="cls-1" d="M736.36,259.86c-25.7,8.45-51.11,2.59-76.48-1.8-18.14-3.13-29.82-14-34.68-31.68-2.53-9.21-7.49-16.72-13.65-23.69l-.29.1c-1-1-1.92-1.93-2.87-2.9l.24-.11L580,147.33c-4.64-18.28-12.38-35.58-15.73-54.34-4.61-25.76,7.3-38.08,32.31-32l.1-.12c1.24,2.25,3.35,2.78,5.68,2.9l-.14-.09a5.14,5.14,0,0,0,5.72,2.88l-.26,0c.35,9.29,8.33,8.87,14.19,11.14l-.1-.07c1,2.79,3.13,3.26,5.71,2.87l-.11-.07c4.85,6.42,11.89,10,18.68,13.58,12.71,6.77,23.77,17.85,39.94,16.08,2.21.38,4.33.46,5.68-1.82,6.54-.09,6.83-8.13,12.25-9.63,6.82-.87,4.7-6,4.75-10l-.13.14c9-9.48,18.08-18.79,26.75-28.52,4-4.48,7.23-9.69,6.83-16.22,6.14-11.34,14-21.52,21.24-32.12,6.76-9.9,14.51-14.54,26.3-10.48,5.54,0,9.65,3,13.57,6.45,7.93,7.89,9.87,19.42,16.89,27.86-2.11,14.33,6.07,24.3,15.65,32.53,3.4,2.92,6.12,6.53,9.7,9.2,10.82,18.71,18.54,22.07,38.5,15.33,16.37-5.53,30.75-14.56,44.8-24.81,10.81-7.88,23.79-13.34,36.51-17.9,9.92-3.56,18.16,7.44,15.78,20.75A98.08,98.08,0,0,0,979.9,86q-5.65,27.83-11.33,55.65c-2.7,4.4-5.87,8.64-5.07,14.28q-.6,3.92-1.19,7.83C959,168,959.8,173,959.77,177.83c-7.68,8-4.57,19.06-7.89,28.3-4.81,7.9-7.81,16.73-11.74,25-5.91,12.47-15.19,17.44-27.47,20.69-30.21,8-61.54,9.08-92.15,11-19.42,1.23-40.24-3.67-60.59-3.7C752.07,259.14,744.22,259.61,736.36,259.86Z"/><path class="cls-1" d="M1015.53,1616.32c3.94,1.08,4.35,4.14,5.45,6.45,4.58,9.59,9,19.54,16.48,27,9.28,9.31,1.57,14.27-3.52,20.17-3.84,4.45-5.43-.21-7.1-2.35-7.91-10.19-15.67-20.5-23.4-30.83-1.77-2.37-5.49-4.76-2-8.13C1006,1624.22,1011,1620.25,1015.53,1616.32Z"/><path class="cls-1" d="M753.44,1726.05c-1,5.45.8,12.23-7.77,12.6-4.93.22-6.51-2.3-6.16-6.93.47-6.26,3.14-10.83,9.55-11.94C754.64,1718.82,752.67,1723.62,753.44,1726.05Z"/><path class="cls-1" d="M1090.72,1603.82c-6.91-7.54-9.55-14.5-4.8-22.56,1.21-2,1.28-6.26,5.09-5,3,1,6,3.45,5.13,7.29C1094.76,1589.85,1092.84,1596,1090.72,1603.82Z"/></svg>