<svg id="Layer_1" data-name="Layer 1" xmlns="http://www.w3.org/2000/svg" viewBox="0 0 2000.97 1854.51"><defs><style>.cls-1{fill:#fff;}</style></defs><path class="cls-1" d="M1121.24,1023.12c-4.33,106.4,8.85,226.09-14.06,343.18-24.21,123.77-94.7,168.18-211.59,137.45-68.54-18-101.09-75.14-112.16-144.21-8.82-55-7.17-110.37-7.36-165.68-.42-125.77-.84-251.53-.6-377.29.08-43.89,4.59-87.5,17.84-129.61,25.26-80.26,79-108.58,163.13-104,75.33,4.14,124.74,34.32,148.66,104.64A298.44,298.44,0,0,1,1121.39,786C1120.89,861,1121.24,936,1121.24,1023.12Zm-114,18.79c0-94.48.14-189-.17-283.42,0-12.55-.42-25.66-4-37.5-8.11-27-28.22-49.63-53.65-52.37-31.75-3.43-46.33,25.28-54.85,52.94-4.7,15.26-7.76,30.85-7.74,47.36q.34,271.29-.7,542.59c-.11,24,7.22,45.56,17.33,65.81,17.5,35,48.65,40.12,78.66,16.06,20-16,25.37-36.81,25.26-61.14C1007,1235.46,1007.2,1138.69,1007.21,1041.91Z"/><path class="cls-1" d="M1728.49,600.6H1865.6c-50.42,92.08-75.47,190.8-109.23,286.32-6.07,17.19-9.93,35.19-16.52,52.15-16.44,42.38-26.88,79.34,26.05,108.65,28.73,15.91,33.27,53.12,34.74,86.54,3.88,88.58,2.72,177.39,12.94,265.7,3.89,33.61,12.68,65,40.07,98.13H1736.73c-12.93,0-17.29-9.2-21.15-19.33-7.48-19.65-10.42-39.87-10.48-60.9-.21-84.13-1.4-168.23-7.9-252.19-3.78-48.92-20.55-67.26-67.83-76.3-16.86-3.22-22-1.45-21.94,16.58.5,106.09-.28,212.19.33,318.28.07,13.44,2.73,28.59,9.33,40,17.28,29.74,7.81,37-23,34.74-26.39-1.94-53-.56-79.55-.48-18,0-30.83-2.92-19.8-25.77,9.25-19.17,9.15-40.08,9.11-61q-.64-363.29-1-726.57c0-12.67.92-25.64-1.43-37.93-7.88-41.39-8.37-41.3,34.58-43.39,26.35-1.28,61-14.47,76.68,1.28,14.73,14.81-3.81,48.69-4.12,74.25-1.21,101.47-1.14,203-1.41,304.45,0,6.64-.9,14.7,9,15.57,11.29,1,8.32-8.78,10-14.5Q1673,822.23,1719.6,659.54C1725,640.77,1731.49,622.31,1728.49,600.6Z"/><path class="cls-1" d="M972.32,176.33c-18.39,22.49-43.72,23.95-69.13,12.56-12.42-5.62-24.64-14.16-2.57-25,21.45-10.62,27.7-28.95,17.7-49.08-10.82-21.65-31.51-30-55.52-25-47.48,9.64-79.55,40.46-103.7,80-50,82-87.6,169.91-121.47,259.45-15.13,40-31.72,79.19-51.43,117-7.36,14.16-81.07,25.13-90.93,13.81-4.3-4.93-1.25-10.62.21-16.17,22-84.4,27.07-170.54,24.16-257.23-1.25-38.38,6.87-75.66,9.44-113.55l8.53-7.5c-5.69-5.21-8.88-1.67-11.59,3.47-37.06,25.61-53.79,65-68.92,104.81-24.16,63.51-47.61,127.16-83.78,185.39-28.66,46.16-61.42,85.37-103,110.43-.07,0-.07.07-.14.07-52.06,35-132.36,36-132.36,36h-.07c-26.79-.9-52.27-5-73.37-24C33.84,554.33,27,526,44.11,492.56c16.53-32.42,41.58-42,83.51-32.49,7.63,1.74,16.44-.2,21.24,8.68-.56,1.8-.7,4.44-2.09,5.69-13.46,12.36-38.1,19.3-25.89,45.19,11,23.18,29.08,37,56.36,39.56,70.25,6.73,128.76-36.37,154.92-116,20.55-62.26,44-123.34,72.95-182.27,29.85-60.8,72.67-111.54,129-160.82-56.16-12.08-100.93-35.89-150-50.6C334.59,34.67,286.35,27.45,235.82,31.2c-109,8.12-179.14,93-166.44,200.73,9.23,79.05,104.67,131.25,176.16,96,8.05-4,16-9.58,21.8-16.38,16.72-19.51,24.91-42.62,15.75-67.4-8.54-22.83-31.23-19.78-52.27-21.17,5.84-22.56,23.88-28,41.58-29.08,7.84-.49-1.67,2.57-2.43,4.1-4,8.19.42,8.46,6.8,10.68,66.5,23.74,75,81.84,19.37,129-46.71,39.56-147.56,40.81-213,2.63C24.26,306-9.88,232,2.54,165.92,22.6,59.65,159.75-14.89,266.22,2.53c102.52,16.8,194,66.77,296.17,80.38,26.24,3.47,52.48,3,80.8,4.09C589.88,205.2,600.5,329.24,598,451.88c14.51-65.45,36.44-128.54,60.46-191C685,191.74,723.91,132.05,787.83,91.1c37.49-23.95,129.31-31.38,172.76,4.58C984.89,115.87,991.69,152.73,972.32,176.33Z"/><path class="cls-1" d="M1467.47,1336c-1.4,31.83-2.58,63.67-4.28,95.48-1,19-16.55,27.55-29.69,35.85-94.62,59.79-266,31.37-276.35-137.83q-11.4-186.6-5.92-373.31c2.31-74.86-7.28-150.31,5.77-224.5,24.46-139,174.15-192.17,287-119.17,15.8,10.21,22.47,23.4,20.78,43.48-2.38,28.12-.6,56.59-.6,94.18-19.48-28-37.85-45.33-57.38-61.67-44-36.81-99.67-26.35-127,24.77-12.22,22.87-17.5,47.79-18.06,73.13-3.64,162.66-3.15,325.34.26,488,.5,23.83,5.76,48.19,12.68,71.14,23.17,76.8,88.48,82.48,149,33.15,14.6-11.9,24.55-29.52,36.63-44.51Z"/><path class="cls-1" d="M450.13,702.4c-48.42-12.63-98.36-6.21-147.2-12-17.58-2.08-16.75,5.79-17,16.2-1.68,80.68,1.22,161.26,4.85,241.86.8,17.8,11.64,17,23.15,17.17,40,.49,80.22,4.22,122.55-7.45V1076c-44.22-24.58-95.38-8.14-148-20,2.62,143.13-19.58,292.06,26.75,442.12-43.17,0-90.6.69-138-.39-15.89-.37-14.2-12.51-8.62-22.69,14.55-26.51,14-55.18,14-84.11-.35-235.18-.13-470.35-1.07-705.52-.1-24.54,4.23-38.62,32.16-40.74,16.71-1.26,35.56-6.24,48.79-15.92,53-38.74,112.76-19.91,169.84-23.91,16.82-1.18,18.26,8.68,18,21.65-.51,25.33-.26,50.67-.32,76Z"/><path class="cls-1" d="M477.94,601.8c43.45,0,82.53.19,121.61-.1,15.73-.12,21,6.72,15.89,21.36-9,25.71-6.94,52.38-6.93,78.8,0,222.65.58,445.29-.18,667.93-.09,25.71,5.29,37.44,33.6,36.68,33.45-.9,67.24,1.59,99.48-8.33,18.76-5.78,21.13,1.16,22.35,17,6.44,83.77,6.73,83.62-76.94,83.33-61.13-.21-122.28-.56-183.4.25-20.92.28-30.69-2.06-19.64-26.42,13-28.59,15.28-59.69,15.19-91.29q-.95-354.72-.28-709.45C498.75,646.45,492.69,624.24,477.94,601.8Z"/><path class="cls-1" d="M450,702.52l1.76,1.55-1.63-1.67Z"/><path class="cls-1" d="M851.45,480.77c-2.17-4.38-.59-7.79,2.93-10.51.28-.22,2.23.84,2.49,1.61,1.6,4.82-.57,7.69-5.19,9.06Z"/><path class="cls-1" d="M526,169.08c2.7-5.09,5.85-8.62,11.59-3.43q-4.29,3.75-8.54,7.49A38.41,38.41,0,0,1,526,169.08Z"/><path class="cls-1" d="M1908,414.68c-13,22.07-30.34,40.95-54.35,51.57-9,4-20.13,13.88-28.53,6.25-7.42-6.67-3.12-19.37.35-29.5,16.24-48.17,37.76-94.05,62.47-138.33,36.23-65.18,73.29-129.87,113-200.11-18.26,0-33.46,2.78-47.06-.62-22.91-5.83-35.89,2.49-47.69,21.17C1869.3,183.27,1833,241.71,1803.85,305c-13.26-47.89-53.1-47.4-90.93-50.6h-.83C1677,258.86,1648.78,290,1648.78,290c-24.64,27.56-46.5,57.2-62.81,90.44-24.57,50-64.62,82.88-114.18,106.06-18.88,8.88-35.88,6.94-51.36-6s-21.52-32.69-17.91-50c4-18.81,25.48-9.79,39.22-12.71,57.19-12.21,107.65-34.56,137.63-88.7,17.22-31.1,4.65-61.29-29.77-69.13-14.3-3.26-28.95-5.21-44.42-2.22-73.58,13.88-123.41,58.92-160.62,120.49-22.62,37.48-44.35,73.64-84,98.56-23.11,14.51-37.69,9.37-55.46-.83-18.46-10.55-37-24.57-33.94-47.89,2.92-21.8,26.93-17.7,42.06-22.91,43.59-14.92,83-35.33,108.42-75.31,15.13-23.8,10-56.29-11.31-62.95-33.74-10.69-67.26-17.21-101,6.8-36.24,25.82-60.67,59.14-79.34,98.63,30.89-89.68,68.09-175.54,135.14-244.81,14.16-14.57,32.69-21.51,52-25.95,23.81-5.56,43.45.76,55.53,23.32,12,22.28.2,38.52-17,49.9-20.27,13.4-6.73,18.67,3.68,26.38,25.12,18.46,38.31-8.4,55.32-16,35.67-15.89,38.93-52.26,9.16-78-24.78-21.59-55.11-28.81-86.83-28.46-99.12,1.11-163.67,58.51-214.75,135.56-34.64,52.19-53.8,111.88-77.12,169.56-11.66,29-25.05,57.2-49.55,78-14.86,12.63-34.15,28.39-51,17.7-17.35-11-8-35-.49-51.16,20.34-43.86,42.48-87,65.25-129.65,9.51-17.84,14.09-25.89-13.81-28.53-39-3.82-60.39,11.52-70.53,50.6-11.45-55.53-55.24-78-103.55-53C740.36,310,693.3,378.8,678.72,468.26c-8,49.08,9.44,77.67,48.45,91.83,27.35,10,63.65-6.31,89.05-39.14,10.9-14.09,17.7-31.86,35.19-40.19-2.15-4.38-.55-7.78,3-10.48.28-.21,2.22.83,2.5,1.59,1.59,4.79-.63,7.71-5.21,9-.76,18.6,4.3,35.46,12.15,52.26,8.61,18.33,21.86,23.67,41.3,23.67,23.94,0,42.2-27.76,74-3.05,19.16,15,63.79,12.42,73.79-33,1.94-8.61,8-16.59,13.19-24.23,45.25-67.67,85.16-139.58,150.4-191.5,9.86-7.77,22-19.36,33.46-9.57,12.84,11,4.93,26.16-4.31,37-23.24,27.21-46.43,55.11-82.73,65.59-14,4-22.7,12.15-24.78,25.55-5.13,33.38-5.41,66.9,10.06,98.07s38.11,36.09,73.09,29.43c44.42-8.47,70.31-39.63,98.7-73.92,5.35,38.8,19.85,67.53,54.84,72.74,47.68,7.15,94.39.69,133.82-32,13-10.76,26.79-20.54,42.13-32.2,5.9,16.86,9.58,31.3,15.82,44.56,12.91,27.2,57.2,44.56,79.55,29.7,30.4-20.26,59.41-42.75,77.8-76,5.7-10.27,8.61-23.67,22.22-28.73.27,3,1.31,5.34.62,7.14-12.08,30.2-18,60.39,7.29,86.83,27.48,28.74,51.85,8.13,76.28-6.66,55.18-33.45,86.69-85.3,115.64-140.83C1926,394.34,1916.43,400.66,1908,414.68Zm-487.32-34.15c22.07-40.81,46.85-79.54,94.88-93.7,15.61-4.58,31.93-4.37,28.25,19.92-4.17,27.14-88.78,92.66-116.47,90.72C1413.28,396.7,1417.1,387.2,1420.71,380.53ZM902.08,339.3C887.3,390,858.91,442.31,807,479.79c-10.55,7.63-21.38,7.91-32.34,1.66-15.41-8.74-17.77-24.08-16-39.14C764.37,396,788,358,818.17,323.89A147.82,147.82,0,0,1,849.4,297.1c11.38-7.29,25.47-16,38.59-8.05C901.8,297.45,903.4,313.69,902.08,339.3Zm779.67,139.24c-24.08,11.1-39.21,1.32-41.5-25.75-2.22-25.27,7.63-47.13,17.77-69,2.08-4.37,4.16-8.74,6.31-13.05l.21-.27,30.33-45c11.8-11,22.28-23.6,37.07-31.1,27.69-14,41.29-6.94,43.45,23.6C1778.93,368.25,1726.66,457.78,1681.75,478.54Z"/><path class="cls-1" d="M797.23,1818.3q0,14.91-16.84,25.56t-40.7,10.65q-23.62,0-40.58-10.65t-17-25.56V1638.81q0-14.89,17-25.55t40.58-10.66q23.85,0,40.7,10.66t16.84,25.55v40H758.87v-55.62c0-3.92-1.87-7.28-5.61-10a24.21,24.21,0,0,0-27.14,0c-3.74,2.77-5.61,6.13-5.61,10V1833.9q0,5.88,5.61,10a24.26,24.26,0,0,0,27.14,0q5.61-4.17,5.61-10v-55.62h38.36Z"/><path class="cls-1" d="M881.9,1852.78H819.68v-6.41h11.93V1610.75H819.68v-6.41H881.9v6.41H870v235.62H881.9Z"/><path class="cls-1" d="M1021.77,1816.57q0,14.91-16.85,25.56t-40.69,10.65h-66.9v-6.41h11.93V1610.75H897.33v-6.41h66.9q23.85,0,40.69,10.65t16.85,25.56Zm-38.37,15.6V1625c0-3.92-1.86-7.27-5.61-10a22.08,22.08,0,0,0-13.56-4.16H947.62v235.62h16.61a22.08,22.08,0,0,0,13.56-4.16C981.54,1839.44,983.4,1836.09,983.4,1832.17Z"/><path class="cls-1" d="M1163.27,1852.78H1043.52v-6.41h11.93V1610.75h-11.93v-6.41h119.75v74.5h-38.36v-68.09H1093.8v107.59h45.38v6.41H1093.8v121.62h31.11v-68.09h38.36Z"/><path class="cls-1" d="M1318.81,1852.78h-16.6q-33.69,0-33.69-26V1739q0-5.88-5.61-10a22.09,22.09,0,0,0-13.57-4.16h-16.6v121.62h11.93v6.41h-62.22v-6.41h11.93V1610.75h-11.93v-6.41h66.89q23.87,0,40.7,10.65t16.84,25.56v48q0,23.22-33.44,32.92,33.43,10.39,33.44,33.09v82.29q0,9.54,11,9.53h.93Zm-50.29-148.65V1625q0-5.88-5.61-10a22.09,22.09,0,0,0-13.57-4.16h-16.6v107.59h16.6a22.16,22.16,0,0,0,13.57-4.16Q1268.52,1710,1268.52,1704.13Z"/><circle class="cls-1" cx="1486.58" cy="1664.54" r="70.12"/><circle class="cls-1" cx="1682.08" cy="1633.57" r="48.93"/><circle class="cls-1" cx="1836.32" cy="1602.6" r="28.85"/><circle class="cls-1" cx="514.39" cy="1664.54" r="70.12"/><circle class="cls-1" cx="318.88" cy="1633.57" r="48.93"/><circle class="cls-1" cx="164.65" cy="1602.6" r="28.85"/></svg>