<svg id="Layer_1" data-name="Layer 1" xmlns="http://www.w3.org/2000/svg" viewBox="0 0 2054.34 1823.55"><defs><style>.cls-1{fill:#7d812c;}.cls-2{fill:#d6c46e;}</style></defs><circle class="cls-1" cx="1027.17" cy="911.77" r="911.77"/><circle class="cls-2" cx="1011.89" cy="889.87" r="688.59"/><path d="M574.69,1028.51c2.69-4.63,6.08-9,7.93-13.94,8.14-21.7,16-43.49,23.58-65.41,2.58-7.52,5-15.43,5.49-23.28,3.89-58.63,26-107.76,75.68-141.26,25.67-17.3,55-26.64,86-29.69a17.11,17.11,0,0,1,8.89,1.75C724.84,768.87,676,792.85,647.8,847.74c-10.13,19.73-12.87,40.81-14.28,63,2.42-2.25,4.89-4.44,7.25-6.74,17.88-17.42,37.52-32.56,60.42-42.62,10.79-4.74,15.82-12.43,18.66-23.09,1.91-7.18,5.13-14,7.76-21l3.92,1.06c-2.2,10-4.39,19.93-6.65,30.17l42-6.67.63,3.59c-12.33,4-25,7.1-36.82,12.26A25.65,25.65,0,0,0,718.31,871c-5.89,16-10.29,32.57-15,49-1.21,4.26-1.34,8.82-2.35,16l56.94-39.52,2.05,2c-.74,1.4-1.14,3.24-2.28,4.12-16.76,13.06-33.26,26.52-50.58,38.8-14.09,10-14.8,25.86-19.35,39.86-6.46,19.89-11,40.4-17.13,60.42-1,3.09-5.84,5-9,7.39-.22.17-.75-.12-1.13-.09-7.87.58-17.91,4.37-23,.9-5.53-3.76-6.41-14.31-9.41-21.86a38.11,38.11,0,0,0-3-4.81c-3.55,5.19-5.8,12-10.06,13.66-3.88,1.53-10-2.48-15.18-4.09-1.78,4.91-2.3,13-6.45,15.9s-11.85-.47-17.88.13c-3.27.33-6.12,3.63-9.45,4.77-4.32,1.49-9.41,3.75-13.23,2.59-2.34-.72-4.16-7.27-4-11.11.28-7.2,2.16-14.33,3.38-21.49l-2.9-.86c-3.67,10.13-6.85,20.47-11.17,30.32-3.68,8.37-12.51,8.93-17.07,1.18-1.65-2.81-.71-7.15-1-11.74-11.1-1-9.5-11.13-12.25-18.92-9.28-26.35-19.23-52.46-28.73-78.73-20.69-57.26-41.52-114.47-61.76-171.89a526.17,526.17,0,0,1-18.61-66.66c4.62,10,9.77,19.72,13.69,30,3.1,8.09,7.71,12.15,16.17,15.64,37.7,15.57,68.07,40.51,91.67,74.22s35.36,71.13,40,111.4a15.24,15.24,0,0,0,3.73,8.81c2-12.86,4.06-25.71,5.94-38.58,10.68-73,21.64-145.89,31.75-218.93,2.59-18.67,2.72-37.7,3.48-56.59.73-18.25,1.88-36.22,14.53-53.28,2.53,4.11,5.34,6.73,5.76,9.68,2.79,19.79,2.85,38.7-8.78,57-5.61,8.82-6.72,21.06-8,32q-16.14,135.91-31.44,271.91c-2.89,25.73-4.55,51.6-6.77,77.4ZM424,752l-4,4.28,107.67,271.49,3.6-.86c14.89-42.39,18.71-85.59,9.19-130-9.38-43.75-32.82-79.26-65.21-108.67C459.89,774.26,441.19,764,424,752ZM646.84,973.42c15.9-6.71,29.74-14.21,35.21-26.5,10.89-24.48,17.77-50.75,26.65-77.32-3.27.28-4.48.07-5.4.5-23.71,11.08-41.79,29.33-59.61,47.69-14.33,14.77-15.17,32.57-8.78,54.15,8.4-12.73,15.51-23.53,22.62-34.32l3.82,2.09Zm26.86.91-2.88-2C661,980.17,651.19,988,641.55,996c-1.27,1.06-2.49,3.67-2.06,5,3.56,11.47,7.51,22.81,11.34,34.19l4.28-.23Q664.41,1004.66,673.7,974.33Zm-70,27.28,4.52,2.52c3-4.19,7.78-8.11,8.41-12.62.76-5.4-2.05-11.3-3.31-17l-4,.53Q606.45,988.34,603.66,1001.61Z"/><path d="M1074.18,1182.44c12.87,5.78,26,11.15,38.58,17.41,34.14,16.93,68.75,32.62,106.7,38.82,27.77,4.53,55.2,1.22,78.27-15,27.47-19.27,43-50.28,18.08-77.82-11.54-12.75-34-13.77-45-2.41-14,14.48-13.65,32.92,1.93,45.78,4.63,3.82,11.42,5,17.22,7.42-15.38,3-25.37-1.4-33.5-14.93-7.24-12-5.87-27.82,3.42-39.2,11.55-14.16,27.66-18.75,46-13.09,16.86,5.2,29.37,21,31.56,38.19,4.19,32.71-18.87,58.47-46.79,72.19-38.49,18.91-77.07,13.18-115.2-1.62-21.17-8.21-42.07-17.12-64.26-24.55,2.6,2.38,4.95,5.13,7.83,7.09,31.38,21.4,62.3,43.53,94.42,63.75,40.41,25.45,82.34,48.48,129.39,59.34,60.17,13.88,116.55,6.12,162.87-37.77,37.78-35.8,51.2-87.36,18-134.7-18.42-26.22-52.26-40.43-87-26.43-41.71,16.82-50.34,57.64-34.47,92.29,8.28,18.08,45.46,35.17,66.42,27.79,5.77-2,11.66-3.74,17.5-5.59l1.37,3.14c-7.63,3.19-15,7.85-22.93,9.3-29.41,5.34-62.21-9.76-74.26-40.71-11.11-28.51-2.22-63.9,21.73-83.26,44.89-36.28,107.16-16.31,132,36.16,17,36,11,70.19-8.2,103.41-18.44,31.82-46.76,51.89-80.26,64-28.75,10.36-59.2,11.52-89.7,8.2-35.56-3.87-69.22-13.76-100-32.19-32.17-19.28-64.24-38.77-95.78-59.07-33.55-21.6-65.76-45.35-99.78-66.17-38.31-23.44-76.9-46.9-117.29-66.38C866.23,1094,775.87,1065,677.47,1071.19c-36.31,2.27-71.16,10.9-105.76,21.27-2.09.63-4.24,1-6.37,1.57l-1.1-2.7c8.39-3.67,16.57-8,25.21-10.89,52.73-17.82,106.78-19.72,162-16.08,44.44,2.93,86.65,13.38,127.67,29,52.87,20.14,104.62,43.24,157.66,62.9,34.42,12.75,69.74,25.54,107.8,17.23,22.51-4.91,42.79-14,56.49-33.88,9.83-14.23,11.06-29.71,5.47-45.56-6-17.12-26.42-25.14-43.33-17.81a29.49,29.49,0,0,0-13.56,41.36c3.32,5.87,11.65,9.19,18.16,12.85,3,1.66,7,1.32,12.5,2.19-17,8.12-34.75-.8-40.62-18.38-6.56-19.62,6.69-49.32,32.85-49.34,34.6,0,57.06,31.37,44.61,64.52-11.72,31.22-36.72,45.73-66.61,54.22C1125.07,1190.89,1099.92,1186.32,1074.18,1182.44Z"/><path d="M1070.94,365c-6.24,5.33-12.8,10.33-18.62,16.08-4.7,4.65-9,7.71-14.83,2.27s-5.22-10.78,0-16.18c21.36-21.92,45.37-40.26,74.11-51.18,9.09-3.45,20-5.92,29.33-4.26,31,5.54,43.28,34.87,25.52,61-9.91,14.61-23,27.11-34.69,40.47-2.19,2.48-4.9,4.49-8.38,7.63,8.78,2.25,16.28,3.64,23.43,6.08,27.52,9.39,40.85,32.14,37.92,61.29-5.27,52.32-51.25,84.17-96.65,87.71-6.75.53-13.31-.5-13.77,9.64-.1,2.32-6.5,6.76-8.84,6.1a36.35,36.35,0,0,1-15.73-9c-2.37-2.44-1.72-8.12-1.88-12.36-1.87-51.51,2.33-102.43,14.57-152.62,4.09-16.74,7.58-33.63,11.34-50.45Zm.11,166.29,1.49.16c0,3.88,0,7.76,0,11.64.25,14.41.68,14.81,15.36,14.5,43.47-.92,80.86-51.12,69.43-93.23-4.3-15.84-19.34-28.86-35.14-26.4-13.43,2.09-26.23,8.56-39.09,13.65-1.73.68-2.79,4.52-3.11,7C1076.89,482.85,1074,507.08,1071.05,531.3Zm14.65-115.15,3.46,2.52c25.64-16.66,50.54-34.05,60.94-65.53a17.08,17.08,0,0,0,.55-4.59c.37-10.39-4.85-17.62-14.83-16.3-11.6,1.54-22.84,6.1-34,9.92-1.6.55-2.67,4.24-3,6.62-1.32,9.43-1.62,19-3.49,28.36C1092.63,390.26,1088.94,403.16,1085.7,416.15Z"/><path d="M1345.64,434.71c-2.12,5.23-3.62,10.84-6.5,15.62-5.34,8.85-10.34,18.37-17.55,25.52-12.6,12.47-26,7.59-29.63-9.76-4.17-19.86,1.35-38.54,7.61-57a189.27,189.27,0,0,1,11.06-26.78c3-5.79,8.65-9.56,15.6-5.62s6,10.19,3.4,16.36c-5.38,12.87-11.65,25.43-16,38.64-2,6-.13,13.23,0,19.91,5.06-4,12.21-6.94,14.79-12.16C1339,418,1348.22,395.85,1358,374c1.88-4.24,3-9.18,5.9-12.5s7.66-4.94,11.6-7.31c2.47,4.24,7.37,8.72,7,12.68-1.46,14.63-4.8,29.05-7.14,43.6-1.18,7.39-1.73,14.87-2.57,22.31l4.94,1.65c4.95-10.8,10.07-21.53,14.75-32.45,1.67-3.88,1.8-8.43,3.54-12.26.91-2,3.82-4.43,5.72-4.34s4.68,2.86,5.16,4.9a28.48,28.48,0,0,1,.17,11.45c-4.22,22.2-13.59,42.17-29.19,58.47-7,7.26-8.23,15-8.79,24.13-1.19,19.31-1.19,39.08-5.68,57.7-3.5,14.51-11.31,28.87-20.39,40.9-10.16,13.45-28.34,15.15-41,7.51-10.22-6.18-15.4-22.86-11.4-37.65a123.34,123.34,0,0,1,36.34-59.92C1344.13,477.13,1350.12,458,1345.64,434.71Zm.18,67.24-7-2.67c-9.42,17.75-19.73,35.11-27.65,53.5-2,4.68,1.74,16.11,6,18.33,8.37,4.35,15.21-3.75,17-11C1339,541,1342.07,521.36,1345.82,502Z"/><path d="M921.35,770.87c-4.91,3.57-9.38,8.38-14.87,10.32-4.14,1.47-9.58-.72-14.44-1.28.94-4,.55-9.39,3-11.95,18.75-19.41,40.19-35.23,66-44,18.18-6.2,34.91-1.2,43.74,11.85,8.58,12.69,7,31-4.73,45.36-9.44,11.58-19.58,22.59-29.85,34.37,5.12,1.41,11.51,2.21,17,4.84,34.72,16.54,42.66,58.12,18.81,89.56-18.76,24.73-42.54,37.39-73.35,38-2.7.06-5.69,3.45-7.9,5.87-2.64,2.89-5,9.33-6.74,9.08-4.46-.64-10-3.14-12.34-6.72-2.93-4.54-4-10.84-4.27-16.45-2.23-45,5.65-88.89,15.48-132.53,2.61-11.6,4.67-23.33,7-35Zm2.19,121.52c0,8.23.28,18.68-.09,29.11-.32,8.66,3.18,11.94,11.81,11,43.81-5,66-40.65,58.52-81.09C990.6,834,970,824.79,953.24,831.51c-5.35,2.15-10.41,6.06-15.87,6.66-7.16.79-9.37,4.54-10,10.39C926.05,862.4,925,876.26,923.54,892.39Zm11.91-81.6c17.49-3.35,47.82-32.91,53-49.65,3.61-11.63.38-19.87-8.45-21.57-10.88-2.1-29.9,7-31.4,14.79-2.12,10.95-4.51,21.85-7,32.72C939.89,794.49,937.79,801.81,935.45,810.79Z"/><path d="M679.28,525.59c-9.75,3.1-14.12,14.31-22.22,5.4-7.42-8.17-1.71-15.15,3-21.75,4.46-6.29,9.91-11.9,14.06-18.36,2.12-3.3,3-7.77,3.3-11.8.87-11.46,5.89-15.27,16.57-12.7a17.71,17.71,0,0,0,10.35-.88c8.92-3.75,17.59-8.14,26.27-12.44,21.85-10.84,65.94,2.3,67.09,37.55.88,26.72-6.48,49.06-22.44,70.14-18.85,24.89-43.75,39.8-72.25,50.47-3.87,1.45-8.26,7.43-8.53,11.56-1.57,24.76-2,49.58-2.78,74.39-.14,4.26,1.52,9.36-.28,12.6-2.41,4.34-7.35,10-11.29,10s-10.87-5.46-11.58-9.42c-2-11-1.78-22.38-1.7-33.62.11-14.76,1-29.5,1.41-44.26.23-8.7,2.29-17.68-7.28-24.12-1.71-1.15-.48-11.82,2.16-13.37,8.38-4.91,10-11.77,10.76-20.3C675.21,559,677.27,543.45,679.28,525.59Zm20,51.95c-2.74,9.4,1.66,13.39,9.68,8.41a301.93,301.93,0,0,0,37.29-26.87c19.71-16.94,29.06-39.9,32.37-65.06,2.29-17.38-10.08-27.84-27.52-24.78C733.29,472.37,718.81,482,705.91,494c-2.44,2.27-3.66,6.8-3.83,10.36C700.91,528.74,700.18,553.15,699.3,577.54Z"/><path d="M928.59,1279.09c-9.79,4.18-16.37,2.67-21.27-4.06s-8-15.11-1.24-21.22c6.42-5.84,15.23-12.19,23.19-12.46,12.42-.44,22.71,7.27,27.49,19.87,8,21.08-.85,48.68-18,63.17-20.18,17-42.48,23.26-68.2,18.36-1.76-.34-3.63,0-8.5,0,12.38,10.22,22.09,19.48,33,27,35.51,24.52,73.44,42.46,118.28,37.35,37.4-4.26,66.55-21.84,85.27-55.23,16.89-30.13,11.3-67.35-14.17-89.2-22.6-19.39-57.78-16.49-71.62,6.7-7.28,12.19-8.84,24.75-2.25,37.65s17.59,19.27,31.7,20.48c4.94.42,10,.07,14.79.07-15.41,13.15-40.41,2.44-50.84-12-16.49-22.88-8.28-54.66,17.61-68.57,32.59-17.51,76.41,1.2,89,38,14,41-.66,82.62-37.75,110.9-29.42,22.42-63,26.36-97.44,21.27-19.48-2.89-38.54-10.92-56.86-18.79-35.75-15.37-61.56-44-89.12-70.15-28.44-26.95-59.47-50.49-96.87-62.81-43.87-14.45-89.25-21.3-135.39-13-31.42,5.61-62.46,13.28-94.25,20.16,7.79-3.93,15.4-9,23.76-11.78,40.66-13.55,82.15-24.41,125.39-21,47.07,3.75,93.48,11.77,133.52,39.52,15.17,10.52,29.1,22.86,43.54,34.45,42.88,34.39,97.49,27.69,118.77-21.13,6.87-15.77,1.53-32.82-12.2-40.55-8.67-4.89-16.66-3.44-23.59,2.87C905.46,1262.85,911.33,1274.21,928.59,1279.09Z"/><path d="M1601.24,694c4.37-10.94,8.47-22,13.28-32.73,1.46-3.26,4.92-5.62,7.46-8.39,1.37,3.65,4.25,7.48,3.86,10.93a89.63,89.63,0,0,1-25.6,53.65c-5.79,5.88-7.71,11.76-7.72,19.55,0,22.16.56,44.82-9.88,65-4.93,9.52-12.7,18.94-21.58,24.77-16.76,11-34.48,0-36.11-20-1.88-22.87,11.29-38.85,23.88-55.1,6.14-7.93,15.16-14.07,19.66-22.7,4.86-9.33,6-20.61,8.69-31l-3.89-1.24c-1.66,3.25-3.15,6.62-5,9.74-4.2,6.93-7.52,14.92-13.29,20.2-4.52,4.13-13.72,8.18-18,6.18-5.19-2.4-9.79-11-10.48-17.33-2.36-21.88,4.63-42.21,14.59-61.37,3.08-5.93,8.21-14.18,15.76-9.3,3.29,2.12,3,12.56,1.57,18.54-2.07,8.56-7.28,16.31-10,24.76-2.07,6.35-2.39,13.26-3.48,19.92l3.85,2.27c3.08-3.14,7.32-5.74,9-9.5,10.06-21.76,19.54-43.79,29.18-65.74,2.39-5.42,2.81-13.58,11.72-11.18,8.44,2.26,7.9,9.86,6.81,16.43-2.54,15.31-5.7,30.52-8.48,45.79-.39,2.14,0,4.41,0,6.61Zm-30.09,58.74-4.75-1.92c-7.28,13.71-14.72,27.35-21.73,41.2-1.31,2.59-2,6.41-1.12,9,1.39,3.92,3.75,8.79,7,10.29,2.14,1,8.22-2.45,9.89-5.41C1569.84,789.34,1570.76,771,1571.15,752.75Z"/><path d="M1125.72,819.44c-28.29,28.34-31.18,29.39-50,17-5.11,14.27-10.41,27.77-14.7,41.58-2.4,7.73-2.54,16.16-4.89,23.91-.84,2.76-5.22,6.21-7.89,6.13-2.49-.07-6.72-4.25-7-6.92-2.69-29.22-1.59-58.22,8.48-86.19a18.64,18.64,0,0,1,7-8.75c2-1.32,6.53-1.13,8.48.32s2.81,5.51,2.26,8c-1.23,5.53-3.66,10.79-3.62,17.32,5.71-8.77,11.35-17.58,17.16-26.27,3.22-4.82,6-10.31,10.37-13.84,3.13-2.54,8.49-2.34,12.85-3.37,0,4.17,1.11,8.7-.17,12.41-1.73,5-5.54,9.28-7.88,14.14-.79,1.65.18,4.14.35,6.25,2.1-.22,4.72.28,6.2-.8,3.42-2.48,6.26-5.74,9.37-8.65,2.54-2.37,5.32-6.87,7.66-6.66,13.86,1.22,14.37-10.78,19.91-18.18,5.69-7.6,11.86-15.58,19.58-20.77,11.89-8,22.46-1.06,22.16,13.38-.43,20.43-10,36.07-25.51,48.81-3.36,2.75-5,7.65-7.37,11.57,4.7,1,9.71,3.47,14,2.58,5.2-1.07,11.24-3.89,14.38-7.93,7.56-9.72,13.44-20.74,20.46-30.91,2.17-3.14,5.85-5.23,8.84-7.8,1.22,4,4.49,8.83,3.3,11.92-3.73,9.66-8,19.5-14.2,27.69a93.12,93.12,0,0,1-22.63,21.34c-22.07,14.57-44.88,2.3-47-24.55C1125.48,828.85,1125.72,825.46,1125.72,819.44Zm39.42-36.5c-11.67,3.3-18.92,16.73-16.2,30C1159.78,808.11,1167,794.78,1165.14,782.94Z"/><path d="M1269.72,801.12c-5.41,9.49-8.8,18-14.48,24.54-4,4.65-12,10-16.72,8.87-5.54-1.38-10.41-8.92-13.64-14.84-2.19-4-2.3-10.13-1.17-14.79,4.16-17.26,8.52-34.56,14.47-51.25,1.42-4,10.25-8.9,14-7.77,7.88,2.39,3.07,9,1.36,14.47-4.22,13.6-7.79,27.41-11.29,41.21-.58,2.26.53,4.94.86,7.43l3.81,1.35c5.94-11.65,12.28-23.12,17.66-35,3-6.64,4.22-14.09,6.69-21,1.4-3.95,2.84-8.69,5.85-11a17.49,17.49,0,0,1,12.38-3.13c1.66.26,3.53,6.85,3.25,10.4-1,13.11-3,26.14-4.31,39.23-.27,2.82,1,5.79,1.51,8.69l3.41,1.37c3.09-5.54,8.1-10.81,8.91-16.67,2.21-16,2.76-32.24,3.72-48.4.21-3.43-1.91-7.5-.69-10.26,1.82-4.12,5.08-9,8.86-10.34,2.38-.82,9.4,3.93,9.87,6.89,1.64,10.56,3.13,21.71,1.43,32.1-2.48,15.19-7.41,30-12,44.82-3.54,11.51-9.17,22.12-23,23.29C1277.74,822.33,1274.78,811.06,1269.72,801.12Z"/><path d="M801.47,610.24c1.48-27.91,11.42-52.08,29.41-72.35,5.25-5.92,16-11.66,22.74-10.22,6.53,1.41,13.27,11.26,16.1,18.84,9.38,25.07,2.44,49.82-5.26,74-2.87,9-6.94,18.38-13,25.46-15,17.63-36.71,13.19-44.33-8.67C804.15,628.64,803.3,619.26,801.47,610.24Zm21.69-1.71c1.29,6,1.85,12.67,4.42,18.47,1.07,2.42,7,4.84,9.7,4,8.49-2.82,18.94-24.16,13.86-30.49-7.44-9.26-3.09-16.24,0-24.36,1.38-3.59,3.08-7.5,2.84-11.15-.27-4.2-2.53-8.27-3.92-12.39-3.5,1.79-7.88,2.79-10.37,5.51C826.87,572.17,826.72,590.47,823.16,608.53Z"/><path d="M1275.08,435.67c-3.15,14.29-5.28,32.65-11.59,49.43-4,10.54-13,20.12-21.9,27.63-11.69,9.88-29.16,3.44-33.45-11.46-9.77-33.91-5.47-66.08,15.3-94.95,4.74-6.6,12.36-11.8,19.68-15.7,11-5.89,23.48.51,27,13.65C1272.55,413.15,1273.1,422.53,1275.08,435.67Zm-52.65,33.23c.72,5.75.75,11.7,2.33,17.21,2.3,8,10.82,9.81,14.24,4.64,5.63-8.52,12.49-21.16,9.83-29-3.45-10.21-2-17.36,1.08-26a45.66,45.66,0,0,0,2.9-14.68c0-3-2.59-6-4-8.92-2.72,1.62-6.26,2.63-8,5C1229.23,432.35,1222.85,449.52,1222.43,468.9Z"/><path d="M1470,706.57c-5.18,18.89-10.39,37.76-15.49,56.67-.81,3-.29,6.7-1.92,9-2.18,3.09-5.94,7.19-8.84,7s-7.45-5.06-7.57-8a477.32,477.32,0,0,1,.13-49.9c.65-9.94,3.53-19.84,6.29-29.5,1.34-4.68,3.89-9.72,7.44-12.83,2.86-2.52,8-2.41,12.19-3.46.43,3.51,1.46,7.08,1.14,10.52-.33,3.64-1.93,7.17-3.61,12.9,10.18-13.62,18.58-25.57,27.89-36.75,2.2-2.64,7.5-2.69,11.37-3.93.27,3.82,1.63,8,.59,11.39-2.14,7.07-5.57,13.75-8.46,20.59l3.5,2.75c5.8-5,11.34-10.33,17.51-14.79,3-2.18,7.2-2.72,10.86-4-.12,3.73,1.2,8.49-.61,11-5.84,8-12.14,16-19.56,22.59-9.15,8.07-19.45,9.55-28.78-1.49Z"/><path d="M1335,760.29c1.15-25.14,12.38-45.39,31.57-61,4-3.23,12.71-5.07,16.57-2.86,4.46,2.55,8.32,10.29,8.31,15.78,0,21-13,35.64-27.19,49.4-2.78,2.7-3.84,7.17-5.7,10.82,4.57,1,10.61,4.27,13.42,2.49a125.67,125.67,0,0,0,24.39-20.2c4.28-4.59,5.36-12,9-17.39,2.87-4.2,7.5-7.19,11.35-10.72.71,5.52,3.91,12.48,1.69,16.31-9.15,15.84-15.6,33.88-33.14,43.73-11.2,6.29-22.07,12.26-34.8,5.26C1338.2,785.16,1334.63,773.64,1335,760.29Zm18.68-14.75,2.73,2c11.61-5,19.67-20.78,13.3-33Z"/><path d="M432.29,1006.47c1.69,8.15,3.17,16.35,5.14,24.43,1.39,5.69,2.79,10.89-5.33,12.38s-11.44-2.06-12-9.87c-.63-8.88-2.41-17.72-2.58-26.6-.21-10.39-2.75-19-12.22-24.63-1.36-.8-1.92-2.94-3.72-5.86l13,1.86V951.31l3-.9c1.46,4.18,3.83,8.29,4.22,12.57,1.8,19.79,10.64,32.79,30.11,40.48,14.89,5.88,27.82,16.64,41.93,24.68,5.37,3.06,8,5.55,3.95,11.56-3.59,5.28-7.44,6.33-12.57,2.46q-20.85-15.69-41.73-31.35c-2.82-2.11-5.79-4-8.69-6Z"/><path d="M944.15,397.48c-2.51,16.84-4.4,33.82-7.93,50.44-.94,4.44-6.89,7.81-10.54,11.67-2.9-4.92-8.32-9.86-8.26-14.74.2-17.79,2.17-35.56,3.62-53.33.6-7.4,2.6-14.84,11.77-14.2,8.73.6,10.7,7.69,10.51,15.38,0,1.55,0,3.1,0,4.65Z"/><path d="M756.85,932.15c-6.59,24.51-13.3,49-19.73,73.55-2.06,7.84-3.43,15.85-5.08,23.79s-7.66,9-13.22,6.41c-2.35-1.08-4.24-7.93-3.13-11,10.17-27.94,21-55.64,31.79-83.34,1.47-3.78,4-7.14,6.1-10.69Z"/><path d="M802.72,745.46c21.27.5,31,15.94,41.92,28.55,4.56,5.27-1.4,9.52-6.22,7.91a372.49,372.49,0,0,1-42.48-17c-3.28-1.57-7-9.45-5.71-11.75C792.31,749.43,798.35,747.91,802.72,745.46Z"/><path d="M352.19,742.47c1-2.73,2-5.46,3-8.2,6.75-18.85,13.27-37.78,20.4-56.49,1.48-3.87,5.19-6.89,7.87-10.31,1.95,4.2,6.17,8.82,5.48,12.51-4.67,24.78-16.31,46.06-33.81,63.95Z"/><path class="cls-2" d="M424,752c17.19,12,35.89,22.27,51.27,36.23,32.39,29.41,55.83,64.92,65.21,108.67,9.52,44.42,5.7,87.62-9.19,130l-3.6.86L420,756.27Z"/><path class="cls-2" d="M646.84,973.42l14.51-33.71-3.82-2.09c-7.11,10.79-14.22,21.59-22.62,34.32-6.39-21.58-5.55-39.38,8.78-54.15,17.82-18.36,35.9-36.61,59.61-47.69.92-.43,2.13-.22,5.4-.5-8.88,26.57-15.76,52.84-26.65,77.32C676.58,959.21,662.74,966.71,646.84,973.42Z"/><path class="cls-2" d="M673.7,974.33q-9.29,30.33-18.59,60.66l-4.28.23c-3.83-11.38-7.78-22.72-11.34-34.19-.43-1.38.79-4,2.06-5,9.64-8,19.48-15.81,29.27-23.67Z"/><path class="cls-2" d="M603.66,1001.61q2.79-13.27,5.6-26.55l4-.53c1.26,5.68,4.07,11.58,3.31,17-.63,4.51-5.44,8.43-8.41,12.62Z"/><path class="cls-2" d="M1071.05,531.3c3-24.22,5.84-48.45,9-72.65.32-2.51,1.38-6.35,3.11-7,12.86-5.09,25.66-11.56,39.09-13.65,15.8-2.46,30.84,10.56,35.14,26.4,11.43,42.11-26,92.31-69.43,93.23-14.68.31-15.11-.09-15.36-14.5-.06-3.88,0-7.76,0-11.64Z"/><path class="cls-2" d="M1085.7,416.15c3.24-13,6.93-25.89,9.57-39,1.87-9.31,2.17-18.93,3.49-28.36.34-2.38,1.41-6.07,3-6.62,11.21-3.82,22.45-8.38,34-9.92,10-1.32,15.2,5.91,14.83,16.3a17.08,17.08,0,0,1-.55,4.59c-10.4,31.48-35.3,48.87-60.94,65.53Z"/><path class="cls-2" d="M1345.82,502c-3.75,19.41-6.78,39-11.61,58.14-1.83,7.27-8.67,15.37-17,11-4.28-2.22-8-13.65-6-18.33,7.92-18.39,18.23-35.75,27.65-53.5Z"/><path class="cls-2" d="M923.54,892.39c1.41-16.13,2.51-30,3.88-43.83.58-5.85,2.79-9.6,10-10.39,5.46-.6,10.52-4.51,15.87-6.66,16.72-6.72,37.36,2.53,40.54,19.85,7.43,40.44-14.71,76.06-58.52,81.09-8.63,1-12.13-2.29-11.81-11C923.82,911.07,923.54,900.62,923.54,892.39Z"/><path class="cls-2" d="M935.45,810.79c2.34-9,4.44-16.3,6.15-23.71,2.5-10.87,4.89-21.77,7-32.72,1.5-7.75,20.52-16.89,31.4-14.79,8.83,1.7,12.06,9.94,8.45,21.57C983.27,777.88,952.94,807.44,935.45,810.79Z"/><path class="cls-2" d="M699.3,577.54c.88-24.39,1.61-48.8,2.78-73.18.17-3.56,1.39-8.09,3.83-10.36,12.9-12,27.38-21.63,45.21-24.76,17.44-3.06,29.81,7.4,27.52,24.78-3.31,25.16-12.66,48.12-32.37,65.06A301.93,301.93,0,0,1,709,586C701,590.93,696.56,586.94,699.3,577.54Z"/><path class="cls-2" d="M1571.15,752.75c-.39,18.29-1.31,36.59-10.66,53.15-1.67,3-7.75,6.39-9.89,5.41-3.3-1.5-5.66-6.37-7-10.29-.91-2.58-.19-6.4,1.12-9,7-13.85,14.45-27.49,21.73-41.2Z"/><path class="cls-2" d="M1165.14,782.94c1.83,11.84-5.36,25.17-16.2,30C1146.22,799.67,1153.47,786.24,1165.14,782.94Z"/><path class="cls-2" d="M823.16,608.53c3.56-18.06,3.71-36.36,16.56-50.45,2.49-2.72,6.87-3.72,10.37-5.51,1.39,4.12,3.65,8.19,3.92,12.39.24,3.65-1.46,7.56-2.84,11.15-3.12,8.12-7.47,15.1,0,24.36,5.08,6.33-5.37,27.67-13.86,30.49-2.65.88-8.63-1.54-9.7-4C825,621.2,824.45,614.5,823.16,608.53Z"/><path class="cls-2" d="M1222.43,468.9c.42-19.38,6.8-36.55,18.32-51.8,1.78-2.35,5.32-3.36,8-5,1.43,3,4,6,4,8.92a45.66,45.66,0,0,1-2.9,14.68c-3.07,8.66-4.53,15.81-1.08,26,2.66,7.85-4.2,20.49-9.83,29-3.42,5.17-11.94,3.37-14.24-4.64C1223.18,480.6,1223.15,474.65,1222.43,468.9Z"/><path class="cls-2" d="M1353.72,745.54l16-31c6.37,12.21-1.69,28-13.3,33Z"/><path d="M726.08,1648.23c-8.51,6.09-16.81,12.31-23.81,20.29-4.8,5.5-9.7,11.44-18.81,13.38,2.19-8.49,8.67-12.31,12.31-18.05,1.42-2.24,3.87-4.59,1.7-7.22-2.45-3-5-.42-7.09,1-4.1,2.92-8.55,5.65-11.82,9.35-3.75,4.25-7.08,3.73-10.53,1.89l13.45-15.32,0,0c4.69-4.06,9.4-8.13,13.67-12.63,4.52-4.74,4.1-8.4-2.82-11.19-8.47-3.43-14.2,1.42-20.19,5.38-13,8.6-25.81,17.46-37.45,28.16.24-7.25,4-12,7.88-16.71,1.4-1.7,3.64-3.62,1.52-6-2-2.15-4.24-.54-6.36.35-6.93,2.84-12,9.32-21.27,8.76q15.12-14.27,30.24-28.58c1.54-2,2.05-4,1.21-5.73l0,0a4.31,4.31,0,0,0-2.1-2.49c-3.36-2-6,.61-8,3s-3.4,5.15-5.06,7.76c-9.51,11.17-22.85,18.86-29.56,32.62-2.1,4.31-7.39,8.67-2.43,13.38,4.69,4.45,8.26-1.07,12-3.38,3-1.84,6-4.87,7.27,1.75,2.43,12.19,6.32,13.31,16.25,5.06l34-28.33c3.82-3.1,7.69-6.11,13.73-7-.42,6.9-5.64,8.58-9.21,11.56l-18,24.36-.07.12a47,47,0,0,0-3.75,5.32c-2,3.31-4.46,7.18-1.08,10.63,3.94,4,7,0,9.86-2.36,2.13-1.7,4.13-3.54,6.18-5.31,3.71-.47,5,1,3.92,4.68-1.14,4.2-2.29,8.93,2.94,11,4.92,2,9-.86,12.49-4.15,8.72-8.23,17-17,26.16-24.71,8.42-7,14.94-16.88,26.6-19.58C735.84,1643.38,731,1644.74,726.08,1648.23Z"/><path d="M1266.62,172.7c3.48,2.32,5.63-1.16,7.46-3.58,5.67-7.51,13-13.18,20.06-19.27,14.52-12.49,30.33-22.86,47-32.09,2.95-1.64,6.78-4,3.95-8.12-2.31-3.33-5.64-.82-8.38.46-1.75.81-3.32,2-5.06,2.86-13.63,6.56-27.21,13.22-41,19.49-3.37,1.54-8.46,3.65-10.67-.27-2.74-4.86,2.67-7.49,5.86-9.85,6.9-5.1,14.75-8.54,22.75-11.61a67.64,67.64,0,0,0,8.53-2.39c2.54-1.06,4.37-3.31,3.59-6.24a4,4,0,0,0-2.36-3c-1.26-1.1-2.9-1.14-4.87.25a164.8,164.8,0,0,0-33.87,18c-6.7,4.61-13.32,11.33-10.19,20.34s11.69,4.68,18.3,4.46c.45,0,.93,1,1.91,2-8.05,5.88-17.5,10.2-22.42,19.51C1265.67,166.67,1262.41,169.9,1266.62,172.7Z"/><path d="M926.15,1696.16c3.75-3.47,3.31-10.56-1.26-14.92-7.58-7.25-16.06-2.79-24.22-1-5.57,1.21-7.56,4.61-6,10.35,1.3,4.73-2.24,8-4.57,11.45-5.81,8.71-12,17.25-17.42,26.15-8.18,13.36-6.9,15.72,8.89,18.21,1.54.26,3.07.47,4,.61,11.24.37,25.78-7.65,27.16-17.11C914.63,1717.31,916,1705.61,926.15,1696.16Zm-39.52,44.72c-4.61-.19-8-2.78-6.5-7.34a45.29,45.29,0,0,1,13-20.15c2.54-2.24,5.78-1.86,8.74-.42,3.52,1.7,4.94,4.71,4.85,8.51C906.8,1730.15,895.4,1741.21,886.63,1740.88Zm33.46-49.31c-1.12,6.93-6.9,8.49-12.59,9.63-2.24.44-4.2-1.26-3.22-3.38,2.31-4.87,5.62-9,10.91-10.37C918.25,1687.63,920.51,1688.91,920.09,1691.57Z"/><path d="M1079,1735.21c-8.3-11.75-8.25-11.63,4.22-18,10.49-5.34,20.89-11,21.38-23.17-.16-10.35-3.82-15.81-12.94-16.55-10.14-.82-19.56,5.36-20.79,14.43-.68,5-.26,10.47-3.69,14.38-8.53,9.77-9.35,22.76-14.66,33.85-1.21,2.52-2.75,6.81.79,8.3,4.36,1.84,4.43-3.15,5.67-5.59,6.13-12.2,6.06-12.22,14.57-1.5,1,1.22,1.81,2.55,2.84,3.69,1.68,1.84,3.73,3.05,6,1.19,1.77-1.42,1.46-3.52.46-5.29C1081.74,1739,1080.34,1737.13,1079,1735.21Zm11.94-48.09c4.1,0,6.36,2.12,6.62,6.25.26,5.8-9.65,15.66-16.09,16.11-3.52.25-4.66-1.31-4.5-4.76C1077.36,1696.84,1085,1687.05,1091,1687.12Z"/><path d="M1390.1,1594.71c-6.06,3-15.74,6.29-13.36,13.77,3.66,11.45-.28,21.36-1.49,31.87a48.43,48.43,0,0,0,4.2,27.16,11.53,11.53,0,0,0,11.14,7c5.18-.09,9.28-2.82,10.61-7.62,4.12-14.88,10.4-29.28,10.44-47.21.21-6.18-.72-14.18-6.06-21C1401.45,1593.38,1395.93,1591.84,1390.1,1594.71Zm5.13,66.65c-6.27,5.29-9.42,1.12-10.47-4.36-3.31-17.14-.18-33.78,7.11-49.29,3.59-7.62,7.74-3.28,10.4,2l-.28,18.68c.07,1.63.16,3.28.23,4.94,0,.72.07,1.42.12,2.14C1401.66,1644.53,1400.8,1653.59,1395.23,1661.36Z"/><path d="M872.74,1676c-5.46-1.26-10.77-.21-16,1.38,0,18.11-16.55,23.75-26,34.73h0c-1.28,3.64-2.56,7.28-3.89,10.91-2.08,5.6-4,11.26,1.28,16.14s11.35,2.72,16.39.25c18.86-9.28,31.43-24.85,39.26-43.85C887.5,1686.35,881.85,1678.05,872.74,1676Zm2.61,19.7c-7.9,16.18-18.47,30.31-35.09,38.3-6.92,3.34-7.46-2.33-7.32-5.54.7-6.3,2.73-10.12,5.69-13.18,8.56-8.85,17.35-17.5,26.14-26.13,2.19-2.17,4.8-4.48,8.13-2.63C876.63,1688.54,876.86,1692.57,875.35,1695.65Z"/><path d="M740.25,1649.26a1.6,1.6,0,0,0-.21,0l.07.09s.14-.14.14-.12Z"/><path d="M847.51,1677.23c-16-13.87-29.6-11-37.93,7.88a21,21,0,0,1-5.2,7.56c-8.13,7-11.33,17.32-17.83,25.41-1.82,2.24-4,6-.65,8.2,3.59,2.38,5.83-1.35,6.94-4,4.5-10.63,12.71-13.43,23.41-12.66,3.26.26,6.69-1.45,10-2.24C837.21,1700,847.79,1692.46,847.51,1677.23Zm-33,18.12c-.12-6.2,11.45-17.56,17.81-17.35,4.38.17,7.39,1.92,7.25,6.88-.19,6.25-12.15,15.25-19.77,14.9C816.76,1699.87,814.62,1698.92,814.55,1695.35Z"/><path d="M693.6,185.62v-.12a.37.37,0,0,1-.14-.09l.07.1-.07-.1a1.84,1.84,0,0,0-.05.25,1.2,1.2,0,0,1,.2,0Z"/><path d="M671.09,210.64c8.73-6.43,20.1-12.14,22.32-25-4.72.43-8.64,2.75-12.62,5.11-2.81,1.67-5.13,5.83-9,3.63-3.69-2.08-2.3-6.26-2.21-9.6.44-17.83.53-35.69,3.66-53.34.53-3,1.54-7.06-2.63-7.69s-4.43,3.56-4.94,6.55q-1.82,10.89-3.35,21.84c-2.24,16.2-2.22,32.49-1.09,48.76C661.61,206.8,664.53,215.46,671.09,210.64Z"/><path d="M1382.61,224.1c7.84.93,15.9,1.54,21.69-7-3.93-1.95-6.78-.1-9.68.26-3.47.44-7.25,1.26-9.2-2.7s.67-6.7,3.2-9.08c1.93-1.82,4.29-4.2,6.62-4.39,7-.57,9.79-4.9,11.5-10.75a7.08,7.08,0,0,1,3.18-1.29l-3.18,1.29c9.93.52,19-2.6,27.6-7.07,4.39-2.28,10.14-4.54,8-10.81-2.22-6.65-8.43-5.89-13.74-4.39a184.09,184.09,0,0,0-36.25,14.62h0a116.68,116.68,0,0,0-26.18,16.91c-2,1.72-4.45,3.81-3,6.85,1.33,2.72,4,1.64,6.16,1,4.51-1.36,5.57.93,5.19,4.77C1373.94,218.51,1375.86,223.3,1382.61,224.1Z"/><path d="M1359.3,1638c.69,3.59,3,5.12,5.58,2.16,5.28-6.09,4.7-13.69,3.88-21.05-.55-4.91-3.88-7.56-8.68-7.82-7.37-.41-11,4.65-14.1,10.28-8.38,15.12-10.31,31.52-9.49,48.41.34,6.89-.36,15,8,17.71s15.09-.91,19.84-8.19c5.85-5.33,5.84-11.46,3-20.6L1359.9,1677h0c-10.1,5-14.06,3.28-15.6-7.61-1.79-12.58.57-24.8,5.39-36.39,2.06-5,2.54-14.35,9.13-12.67,6.76,1.72.76,9.23.66,14.19A17.56,17.56,0,0,0,1359.3,1638Z"/><path d="M1179.63,134.56a8.39,8.39,0,0,1,8.41,2.49c6.57,6.37,13.09,3.52,18.66-1.31,5.25-4.55,9.76-10,14.4-15.21,2-2.25,4.76-5.28,1.73-8-3.23-3-5.38.74-7.67,2.67-4.37,3.67-5.67,10.73-12.31,12.65-2.15-6,7.47-9.22,2.64-13.11-4.43-3.58-9.14,1.82-13.49,4-1.33.68-2.75,1.2-4.13,1.78l-1.09-1.67c1.08-1,2.19-2,3.25-3,2.14-2.06,6-4.16,3.32-7.38s-5.81,0-8,1.93a140.57,140.57,0,0,0-11.73,11.3c-2.38,2.57-4.38,5.74-2.83,9.51C1172.45,135.25,1176,135.39,1179.63,134.56Z"/><path d="M856.46,117.5c1.1,2,2.37,3.92,3.6,6-.63,1.23-.9,2.49-1.68,3.14-1.36,1.14-2.81.61-4.18-.45-2-1.55-2.59-7.36-6.52-3.41-3.1,3.1-1.36,7.37,1.08,10.61,3.36,4.47,7.89,6.46,13.23,4.08,5-2.2,9.76-7.2,7.26-11.66-5.63-10-.93-15,6.07-20.94,4.27-3.62,6.33-9.5,1.41-14.35-4.71-4.64-10-2.66-14.7.82C852.13,98.61,850.44,106.59,856.46,117.5Z"/><path d="M1465.27,1628c-1-6.87-2.25-13.71-2.82-20.61-1-12.31-1.48-24.66-2.38-37-.26-3.46-.94-7.47-5.57-7.43-3.73,0-4.94,3.39-5.59,6.47-2,9.43-4.68,18.76-4.58,28.54h0c-1,3,.82,7.06-3.77,9.57-3.61-7.92-2.75-16-2.56-23.95.06-2.72-.18-5.8-3.85-6.07-2.79-.21-4.14,2.09-4.63,4.38-4.8,22.64-11.26,45.15-6.5,68.68.52,2.54.59,6.23,4.07,6.1,3.68-.13,3-3.86,3.26-6.41.66-7.45-1.53-15.18,1.4-22.89,11.07,7.69,14.85,6,16.33-7,.74-6.51.59-13.12.84-19.69,5.09,1.57,3.79,6.07,4.43,9.68,1.13,6.45,1.93,13,3.49,19.33.85,3.45,1.69,8.83,6.92,7.32C1468.43,1635.7,1465.73,1631.26,1465.27,1628Z"/><path d="M909.67,112.91c-.38,5.1,2.28,12,7.76,10.77,10.16-2.34,22.66,3.35,30.45-7.88,0,0,0,0-.06-.07a.23.23,0,0,0,.07.07c3.81-5.13,6.54-4.57,8.53,1.47.71,2.16,1.85,4.68,4.76,4s2.72-3.5,2.64-5.72a35.31,35.31,0,0,1,6.25-21.91c1.3-1.87,2.69-4.05,1.28-6.42s-3.82-1.67-6.18-1.51c-12.57.88-18.36,8.39-20.1,20h0c-3.44,2.21-3.17,10-8,8.25-5.69-2.12-1.45-8.07-1.15-12.33.19-2.69,1.1-5.32,1.31-8,.28-3.56-.12-7.18-3.71-9s-6.9-.54-9.77,1.56C914.84,92.86,910.39,102.13,909.67,112.91Zm18.83-21.2c2.64,4.67-.88,8.21-2.19,11.87-1.21,3.4-1.54,10.37-6.9,7.88-4.29-2-.61-7.58,1.1-11.14S923.09,92.11,928.5,91.71Z"/><path d="M1070.79,123.05c3.45,2,6-.84,7.63-3.35a71.34,71.34,0,0,0,6.18-12.36c5.23-13.53,16.23-22.21,24.1-33.51l2.86,1.86q-1.5,6-3,12h0a113.3,113.3,0,0,0-6,27.1c-.33,3.85-1.56,8.39,3.06,10.11,5.41,2,7.47-2.72,9.34-6.47,7.79-15.64,17.77-29.82,28.27-43.69,4.67-6.15,9.07-12.51,13.56-18.79,1.37-1.91,2.92-4.25.93-6.24-2.71-2.72-5-.33-6.83,1.66a102.16,102.16,0,0,0-6.4,8.22c-7.76,10.6-15.37,21.32-23.29,31.79-1.8,2.37-3.83,8.45-7.82,1.51,3.67-9.31,7.64-18.53,9.17-28.52q2.22-4,4.45-7.93c1.34-2.39,2.59-5,.19-7.26s-5-.92-7.14.79a52,52,0,0,0-4.72,4.89h0c-5.69,6.29-11.26,12.69-17.09,18.85-11.54,12.22-18.9,27.22-27.65,41.29C1068.92,117.71,1067.11,120.88,1070.79,123.05Z"/><path d="M743,179c.94-.57,2.53-1,2.7-1.73a10.68,10.68,0,0,0,.06-5.58c-2.76-7.87-3.41-15.77-1.3-23.43,0-3.44,1-6.79-2.48-8.64-2.93-1.56-5,.58-7.35,1.91-8.47,4.9-16.23,25.42-11.31,33.48C727.7,182.27,738.28,167.49,743,179Z"/><path d="M831.93,142c2.21-.16,2.76-2.54,2.87-4.47,1.47-24.32,9.27-46.94,18.38-69.23,1.25-3,3.76-7.25-1-8.94-4.26-1.5-5.88,2.93-7.15,6-7.94,19.35-16.17,38.64-16.52,57.77,0,6.19-.14,10.07,0,13.93C828.64,139.25,828.69,142.2,831.93,142Z"/><path d="M1299.3,169.51c-2.78,8.16.86,13.17,9.46,12,12.29-1.63,21.29-9,27.46-19.21,3.94-6.51-.14-12.33-7.76-12.71C1318.37,149.13,1302.61,159.88,1299.3,169.51Zm15.5,3.17c-1.49,1.33-3.52,1.89-5.15.19s-1.1-3.73.18-5.2c4.22-4.83,8.61-9.56,19.49-8.58C1323,165.06,1319,169,1314.8,172.68Z"/><path d="M1358.57,185.8c6.76,3.65,12.2,1.15,11.58-7.76.89-2,1.91-4.78-.14-5.34-8-2.18-15-11.1-24.44-3.81-5.5,4.23-11.12,8.31-16.59,12.58-2.38,1.86-5.75,4.14-3.18,7.46s5.79.78,8.18-1C1341.79,181.9,1349.36,180.84,1358.57,185.8Z"/><path d="M1313.59,1628.85c-4.72-1.38-5,3.62-6.08,6.69-3.63,10.56-7.12,21.17-10.66,31.77h0c-2.57,2.54-3.66,8.19-8.42,6.34-4.4-1.72-2.61-6.69-2.42-10.39.28-5.55,3.33-10.21,5.59-15.11,1.5-3.22,6.2-6.85,1.64-9.93-3.71-2.52-6.21,2.24-7.74,5-4.15,7.48-8.79,5.78-13.92,1.49-16.21-2.08-30.61,5.24-45.6,9.16-9.84,2.54-17.3,8.65-15.46,20.75-6.41,13.75-10.12,28.35-12.73,43.18-1,5.85-.53,13.33,8.25,11.07,6.91-1.77,13.25-6.2,19.47-10,4.27-2.61,2.43-5.82-.51-8.5a76.73,76.73,0,0,1-7.42,3.35c-2.77.93-5.54,4.27-8.48,1.84s-.35-5.73.07-8.69c1.4-9.77,7.83-14.5,16.67-17.21,2.77-.86,6.52-2,5.69-6.1-.75-3.66-4.18-2.8-6.79-2.5-3.75.44-7-.12-9-3.66,3.12-9.18,8.6-15.78,17.76-18.21a25.56,25.56,0,0,1,3.27-.7c6.18,2.15,8.32,6.48,7,12.78q-3.52,17-7,34.06c-.3,3.08-.65,6.13-.86,9.21-.21,2.73-.58,6.06,2.89,6.62s4.11-2.57,4.81-5.29c3.31-13.13,3.33-13.13,14.82-5.5,1,.65,1.89,1.32,2.89,1.93,2,1.21,4.39,2.42,6.3.35s.35-4.34-1.33-6c-2.78-2.7-5.78-5.13-8.51-7.85s-7.16-6.44-4.22-9.61a61.93,61.93,0,0,1,17.58-12.8c4.68-2.35,4.73,3.57,6.32,6.23,2.42,4.05,5.68,6.34,10.51,5.15,3.45-.82,6.18-.7,7.2,3.36l0,0v0a20.09,20.09,0,0,0-.43,4.59c.51,3.77-2.1,10,4,10.13,4.56.13,4.4-5.78,4.55-9.38.79-20.23,5.16-39.67,12-58.65C1316.33,1634.71,1318.18,1630.2,1313.59,1628.85Zm-47.4,39.71c-3,3.48-6.69,7.7-11.35,6-5.36-2-1.14-7.39-1.84-11.19a22.2,22.2,0,0,1,1.4-4.73,13.25,13.25,0,0,1,11.72-8.75,18,18,0,0,1,2.57-.11C1272.91,1656.7,1271,1662.92,1266.19,1668.56Z"/><path d="M1143.27,106.21c-7.18,6.36-12.08,13-2.51,21.33h0c13.43,3.07,21.74-.1,26.37-10.23-5-2.24-9.78,4.54-15.46.63,5.13-4,9.92-7.16,14-11,2.92-2.75,4.24-6.73,1.68-10.56-2.67-4-6.52-3.39-10.39-1.93C1151,96.67,1146.16,100.31,1143.27,106.21Z"/><path d="M713.77,177.44c1-5.62.79-11.57.44-17.3-.3-4.71-1.68-9.7-7.44-10.38-5.08-.58-7.18,3.66-9.28,7.44-5,8.93-3.68,18.74-3.89,28.3C705.07,193.85,711.2,191.56,713.77,177.44Zm-11.43.35c-2.1-5.65-1.72-11,2.52-16.63,1.1,1.89,2.12,2.85,2.08,3.73-.21,4.78,2.72,10-1.82,14.11C704.79,179.3,702.6,178.48,702.34,177.79Z"/><path d="M790,1661c-2.23-2.89-5.06-1.07-7.25.45a116.19,116.19,0,0,0-20.35,17.3c-7.41,8.18-14.94,16.27-22.43,24.4-1.33-8.25,3.1-12.89,6.09-18.23,1.28-2.26,3.66-4.84.58-7.18-2.7-2.07-5.13,0-7.25,1.66l-21,15.55c1-5.85,5.9-9.82,9.61-14.39,5.59-6.87,11.75-13.31,17.06-20.39,4.48-6,2.89-10.05-4.92-10.75a96.56,96.56,0,0,1-17.09,27.16,100,100,0,0,0-18.23,28c-.93,2.24-1.44,4.55.59,6.43,2.49,2.31,5.13,1.31,7.32-.48l.49-.4a40.35,40.35,0,0,0,3.94-3.31l9.58-8a25.26,25.26,0,0,0,.6,7.86c.75,3.24-.76,7.13,2.8,9.3,4.31,2.65,7.35-.52,10.21-3.08,16.46-14.71,29.14-33.31,47.58-46C789.84,1665.58,791.84,1663.34,790,1661Z"/><path d="M740.11,1649.4h.09a.61.61,0,0,0,0-.12A.87.87,0,0,0,740.11,1649.4Z"/><path d="M1197.74,1666.33c-3.18-1.89-4.74,1.23-6.36,3.32-12.37,16-13.74,35.54-17.63,54.27-8.79-4.28-3.47-11.86-4.12-18-.27-2.55,1.24-5.87-1.75-7.22-4.06-1.83-5,2.43-6.58,4.63-3.94,5.34-5.64,11.58-6.58,18.06h0c-5.63-5-3.92-11-2.44-17.11,1.64-6.7,3.74-13.39,4.41-20.21,1-10.68-5.07-16-15.45-14-6.4,1.23-12.66,3.13-19,4.72,0,0,0,.06,0,.08-3.81.79-5.09,2.72-5.5,5-3.21,5.34-2.13,12.39-3.73,18.36h0c-6.37,10.89-12,22.14-13.56,34.83-.57,4.49-3.13,10.23,4.33,12.06l20.84-6.89c1.85-.61,3.95-1.23,3.59-3.67s-2.52-2.8-4.48-2.61a23.22,23.22,0,0,0-6.75,1.43c-7.88,3.35-8.49-1.36-8.27-7.17h0c4-8.64,7.31-17.86,19.27-18.43,2.37-.11,6-1.6,5.51-4.78-.65-4.39-4.64-2.66-7.47-2.68-1.91,0-3.82.13-5.73.2h0c.6-3.08,1.19-6.15,1.79-9.23h0l4.84-9.62h0c18.54-6.88,21-4.8,19.38,14.36-1.12,13.07-6.46,25.55-5.11,38.9.37,3.77-.14,8.34,4.85,9.37,4.19.86,6.47-2.43,7.62-5.73,3-8.77,6.68-6.49,10.78-.95,11,2.1,12.8.33,14.08-13.62,7.17-16.58,9.65-35,19.33-50.57C1199.26,1671.18,1200.85,1668.18,1197.74,1666.33Z"/><path d="M754.28,204.37c7.53,2.23,11.33-4.05,12.78-10.29,2.44-10.47,3.91-21.17,5.78-31.77l.12.09h0a53.37,53.37,0,0,0,12.26-18.1c1.53-3.88,3.26-9.71-1.53-11.32-6.79-2.29-7.52-8.28-10.84-12.68v0c-4.71-1.93-8,.28-11.24,3.48-12.21,12.24-13,30.14-1.93,43.45.91,1.07.93,2.87,1.38,4.34h0c-5.48,4.43-10.39,9.53-12.4,16.32C746.73,194.34,746.19,202,754.28,204.37Zm17.46-39.91a8.16,8.16,0,0,1,1.09-2.14C772.46,163,772.1,163.74,771.74,164.46Zm-12.91-19.83c.86-4.26.09-10.39,6.06-10.81,3.85-.28,3,4.71,2.8,7.57-.35,4,.47,9.56-5.08,10.26C758.15,152.21,759.16,147.67,758.83,144.63Z"/><path d="M993,115.94a15.27,15.27,0,0,1,3.45,0c5.59,3.59,6.22-.32,5.62-4.19-1.59-10.31,2.58-18.75,7.22-27.42,5.27-9.84,9.82-20.1,14.67-30.19.86-1.82,1.56-3.94-.47-5.2-2.26-1.37-3.52.65-4.59,2.26-5.13,7.72-10.52,15.3-13.29,24.32a27.38,27.38,0,0,1-10.17,5.27c-8.74,2.75-14.19,9.16-17.67,17.23-2.63,6.15-4.15,12.86.54,18.65S988.09,117.08,993,115.94Zm-7-18.26a16.64,16.64,0,0,1,6.43-8,14.89,14.89,0,0,1,4-1.7h0c.28,5.2-1.89,9.63-4.41,13.94-1.77,1.21-2.84,4.43-4.69,5a2.22,2.22,0,0,1-2-.3C981.38,104.4,984.69,100.62,986,97.68Z"/><path d="M1047.87,1682.2c-17.56,1.38-35.16,2.33-44.37,21.47-1.7,3.57-6.06,5.85-9.18,8.72h0c-5.58,3.61-8.71,10.75-16.35,11.44v0h0c1.35-12.34,10.75-19.21,18.42-27.28,2-2.12,6-4.27,3.12-7.46-2.61-3-5.85-.12-8,1.89-6,5.43-10.24,12.73-18.07,16.08,0-3.1,0-6.2,0-9.3.28-9.35-4.2-15.15-13.45-15.45-8-.28-15.79,1.14-16,12.19-.09,4.13-3.45,7-6.44,9.35-10.91,8.46-14.19,20.84-17.69,33.17-1.37,4.8-1.19,9.42,2.8,12.85,4.47,3.89,9.25,2.59,14.08.23,11.91-5.83,20.58-14.94,27.11-26.3,2-5.38,4.45-10.44,9.4-13.84a37.54,37.54,0,0,1-.42,6.24c-.72,5.69-1.94,11.38.39,17.09l6.9-.21h0c2.46,1.7,3,4,2.22,6.79a41,41,0,0,0-2.92,5c-1.43,3.39-5.29,7.66-1.36,10.4,5.17,3.6,6.5-3,9.31-5.57h0l9.18-21.07,0,0a66.46,66.46,0,0,1,15.2-21.42c3.1-3,5.39-10.26,10-7.39,4.78,3-2.23,7.74-2.3,12.07-1.29,2.52-2.59,5-3.87,7.53-5.9,8.37-9.07,18-12.27,27.56-2,6.5,1.33,8.35,7.07,8.56,9.63.35,18.58-1.17,25.76-8.28a2.48,2.48,0,0,1-.58-1.24c.18.42.39.82.58,1.24,7.76-8,12.66-16.6,6.71-27.88-2.12-6.18,2.31-8.84,6.09-12.38C1058.64,1697.84,1058.12,1690.34,1047.87,1682.2Zm-82.35,21.42c-6.06,13.9-12.59,29.12-28.39,37.52-2.45,1.28-5.15,2.28-7.65.44-3-2.19-2.7-5.5-1.68-8.46,5.67-16.28,18.42-27.21,29.94-39a3.82,3.82,0,0,1,5.27-.42C965.8,1695.84,965.85,1698.94,965.52,1703.62Zm73.32,21.29c.59,5.36-1.82,10-4.22,14.59l-1.14,2.19c-7,1.36-14.36,7.63-20.63-1.44a22.57,22.57,0,0,0,2.21-2.64,24.71,24.71,0,0,0,4.62-12.63,32.72,32.72,0,0,0,.14-3.45c.77-.28,1.54-.54,2.33-.77,5.08-1.54,10.14-2.1,15.08.7q.52.29,1,.63A15.46,15.46,0,0,1,1038.84,1724.91Zm7.44-26.34c-1,3.7-3.94,7.11-7.53,7.2a6.33,6.33,0,0,1-1.86-.26c-6.44-1.89-.61-6.25-.56-9.51.79-1.42,1.56-2.84,2.35-4.27,3.47-.09,6.83.24,7.72,2.92A7,7,0,0,1,1046.28,1698.57Z"/><path d="M887.29,127.54c4.9,2.18,6.47-2.43,8.91-5.1,4.61-4.77,6.62-6.84,5.78-8.59a6.33,6.33,0,0,0-1-3.73,4,4,0,0,0-3,.7c-.94-.5-2-1-3.31-1.69-.89-.45-.54-3.36-.76-5.13h0l8.74-14.17h0c5.12-3.28,7.87-8.27,9.74-13.87,2.8-6.8,5.8-13.52,8.32-20.44,1.22-3.34,1.26-7.14-2.33-9.37-4-2.54-7.34-.54-10.35,2.35-7.25,6.93-11.07,15.76-14.24,25a34.1,34.1,0,0,0-4.29,16.57h0c-4.51,8.66-5.49,18.16-6.35,27.64C882.77,121.58,883.16,125.71,887.29,127.54Zm23.17-70.1c2.47,6.81-1.87,11.19-2.71,16.14-7.25-3.13-5,6.38-9.37,7.06C901.16,72.69,902.28,63.85,910.46,57.44Z"/><path d="M1016.33,116.71c-6.94,2.69-8.47,10.05-11.38,16a2.65,2.65,0,0,0,3.15,3.5c6.69-2.39,9.61-8.09,11.29-13.83C1019.47,119.24,1018.77,115.77,1016.33,116.71Z"/><path d="M760.65,1716.39a4.22,4.22,0,0,0-4.66,4.13c-.22,2.22,1.19,3.53,3.37,4,2.74-.07,4.42-1.54,4.66-4.17A3.4,3.4,0,0,0,760.65,1716.39Z"/><path d="M1322.84,1691.89a3.38,3.38,0,0,0-4,3.15c-.4,2.51.33,4.67,3.31,4.65,2.14,0,3.16-1.72,3.58-3.72C1325.86,1693.84,1325.1,1692.17,1322.84,1691.89Z"/><path d="M990.56,96.63a19.11,19.11,0,0,0,1.28-2.56A7.89,7.89,0,0,0,990.56,96.63Z"/></svg>