<svg id="Layer_1" data-name="Layer 1" xmlns="http://www.w3.org/2000/svg" viewBox="0 0 4794.88 1822.56"><defs><style>.cls-1{fill:#ca2433;}.cls-2{fill:#ca2232;}.cls-3{fill:#2c2a29;}</style></defs><path class="cls-1" d="M1374.94,279.68c11.12-12.21,20.78-25.74,33.61-36.4,16-13.28,22.54-12.77,39.06-.78,15.69,11.38,20.87,24.81,17,44-4.71,23.49-14.13,44.7-25.38,65.42l-1.11,3,3.23-.81c15.75-9.78,29.17-22.37,42.52-35.05,4.89-4.65,7.57-10.32,9.17-17,5.75-23.82,12.67-47.37,17.79-71.32,2.26-10.58,6.46-10.27,14.35-6.73,23.83,10.67,27.89,17.27,24.31,41.25,5.6-.1,6.46-5.4,9-8.49,9.73-11.92,19.8-23.41,32.06-32.86,10-7.72,19.16-7.4,29.94-.33,19.23,12.63,26.43,28.32,20.64,51.34-5.18,20.62-13.15,39.78-22.84,58.45l-2,3.31c-.53.83-1.67,2.18-1.49,2.39,1.43,1.63,2.58.23,3.73-.64a4.15,4.15,0,0,0,1.85-1.62c16.81-9.84,30.31-23.63,44.25-36.92,4.34-4.15,3.85-9.36,4.25-14.62C1676,190.5,1706.61,105,1770.07,32.71,1781.34,19.87,1795.15,10,1808.85,0h10.54a10.19,10.19,0,0,0,1.77,1.87c32.23,19.94,35,26.54,20.76,61.88-23.46,58.25-58.06,110-97.57,158.3-12.64,15.45-19.87,30.83-21.09,50.43-.93,14.91-1.59,29.79-1.06,44.67.41,11.41,4.18,13.11,14.16,7.19,11-6.51,20.49-15,30.2-23.22,3.68-3.11,4.49-7.08,5.26-11.55,8.43-48.6,36.53-80.43,83.25-95.46,21.83-7,46.4,5.64,54.88,26.78,4.46,11.12-.61,19.82-7.28,27.62-18.58,21.76-43.28,35.4-67.52,49.53-5.33,3.1-8.71,6.07-8.47,13.07.31,9.47,4,13.69,13.6,13.16,15.78-.88,29.72-6.75,43-14.9,19.34-11.91,34.48-28.43,49.1-45.34,5.19-6,8.07-5.11,13.5-.9,6.6,5.13,3.3,8.27-.57,12.49-29.55,32.28-60.93,61.52-104.38,74.91-26,8-45.85.54-61.59-19.53-6.28-8-9.25-6.82-15.31-.46-8.76,9.21-19.1,16.72-30,23.39-9.94,6.08-19.81,6.19-29.87.64-14.87-8.2-27.19-19.15-36.18-34.45-17.17,15.43-34.11,30.71-53.65,42.57-20,12.12-36.79,11.09-54.82-2.75-5.42-4.16-9.25-8.1-2.38-14.67,25.68-24.56,33.77-57.63,42.81-90.15.86-3.11,2.75-7.4-1.29-9.3-3.33-1.57-5.23,2.4-7.25,4.45-19.93,20.32-33,45.18-45.91,70.09-25.32,48.79-36.27,102.08-48.23,155-3.1,11.33-6.39,22.62-9.2,34-1.08,4.4-1.79,8.44-6.85,10.11-16.79,5.53-33.53,11.22-52.46,17.57,5.29-22.05,10-41.79,14.77-61.53,14.2-41.75,24.55-84.57,37.86-130.43-16.67,12.61-29.89,23.71-44.29,33.24-18.36,12.15-35.32,9.49-52.58-1.58-8.06-5.18-11-9.29-2.46-18,24.51-25.13,32.89-58.11,41.27-90.86.65-2.57,1.16-5.81-2.06-6.68-3.38-.91-5.44,2.35-7.4,4.48-17.39,18.83-29.87,40.89-42.09,63.21-26,47.49-37,99.84-49.91,151.59-2.75,11-6.3,22-7.76,33.19-1.89,14.57-7.79,24.38-23.24,26.44-9.1,2.75-18.38,5-27.27,8.37-9.36,3.52-12,1.44-9.4-8.38,3.71-13.77,6.82-27.71,10.18-41.58,1.55-4.51,2.93-9.08,4.69-13.51,7.84-19.69,12.07-36.89-11.89-50.89-13.35-7.8-18.54-24.94-23-41.49-15.61,17-30.08,33.81-47.82,47.37-45.11,34.5-75.17,29.78-110.39-14.93-24.81-31.49-25.24-66.13-17.7-102.25,18.11-86.71,55-164,117.77-227.59a178.23,178.23,0,0,1,46.55-33.91c38.6-19.56,65.42-14.5,95.86,16.36,17.48,17.73,22.67,37,15.08,61a290.23,290.23,0,0,1-33.59,70.91c-4.86,7.48-5.31,12.58,2.58,16.82,10.85,5.83,9,13,4.87,22.65-16,37.49-29.63,75.82-37.09,116-4,21.85-2.46,42.73,13.35,60.95,5.25-3.51,4.78-9.33,6.08-13.93,15.4-54.28,30.73-108.58,43.7-163.51,3.23-13.68,4.58-14.15,17.31-7.6,2.73,1.4,5.39,2.94,8,4.55C1376.79,256.82,1377,257.25,1373,278c-.2,1.6-.76,4.53-.53,4.6C1374.91,283.25,1374.34,280.91,1374.94,279.68Zm-269.34,113c.21,4.44.13,8.85.67,13.19,2.24,17.94,12.17,22.34,27,11.78a123,123,0,0,0,13.92-12c37.17-35.86,63.31-79.18,84.45-125.77,10.73-23.66,10.91-24.36-8.94-40.14-9.7-7.71-9.67-12.32-.92-20.73,23.45-22.53,44.84-46.9,58.93-76.71,7.37-15.59,12.74-31.74,11.82-49.31-1-19.82-9.53-25-27.08-16.44C1250.65,83.74,1238.7,94.7,1228,107c-41.2,47.18-68.67,102.25-91.35,160C1120.72,307.47,1108.6,349,1105.6,392.64Zm638-211.7c32.46-46.52,61.51-94.73,74.31-151C1777.74,72.67,1759.86,126.41,1743.57,180.94Zm86.5,97.68c16.9-14.56,31.39-26.33,38.14-44.64,1.75-4.73,4.1-11-1.32-14.28-5.62-3.44-9.81,1.83-12.94,5.76C1842.44,240,1835.56,256.69,1830.07,278.62Z"/><path class="cls-1" d="M418,518.33c-33.23,28.72-43.47,27.88-71.6-6-3.3-4-6.48-8-9.71-12.06V479.25c13.34-40.22,29.12-79.38,49.4-116.71,21.8-40.15,45.7-79,75-114,15.46-18.42,15.68-40.31,20.09-61.3a410,410,0,0,0,8.52-81.52c22.07,6.87,38.65,19.91,53.25,36,4.16,4.59,2.78,9.82,3,14.95l.21,3.32,1.78-1.48c20.62-12.25,40.28-26.27,64.12-32.27,38.71-9.73,79.95,23.12,78.95,63.51-1.07,43.44-18,80.69-45.4,113.7-21.26,25.63-46.92,45.91-75.81,62.22-4.87,2.75-8.73,4.44-4.72,11.67,18.71,33.73,38.11,67,61.15,98,5.24,8.06,10.07,16.42,15.83,24.07,4.86,6.45,5,9.92-3.42,13C623.88,518,609.2,523.82,595,530.57c-9.42,4.49-12.45,1-16.14-7.37-7-15.93-10.59-33.34-20.78-47.86,1.19-4.16-.88-7.68-2.21-11.36C542.14,426.14,530,387.8,519.15,349c-2.69-9.63-2.8-15.94,8.58-19.74,9-3,17.31-8.39,25.55-13.35,43-25.87,78.83-58.39,98-106.21,5.92-14.78,9.39-30.17,8.79-46.14s-7.35-20.72-22.1-15.82a115.55,115.55,0,0,0-21.29,10c-30.62,17.88-55.58,42.54-80.24,67.54-3.32,3.36-4,7.55-5.13,11.81-6.53,25-12.83,50-20,74.81A967.3,967.3,0,0,1,447.45,475.4ZM439,349.23a446.39,446.39,0,0,0-51.74,86.2c-6.18,13.54-11.72,27.4-13.5,42.33-.47,4-3.07,9.7,1.95,11.73s7.53-3.45,9.74-7C411.2,441.37,425.2,395.45,439,349.23Z"/><path class="cls-2" d="M4458.16,1822.22c-16.08-2.59-32.27-1.22-48.37-.92-9.64.18-12.64-2.13-12.48-12.27.64-41.21.09-82.44.38-123.65.09-12-5-20.1-15.46-25.1-10.24-4.87-13.11-3.09-13.14,8.34q-.12,61.17,0,122.34c0,30.08,0,30.08-29.8,30.08-29,0-29,0-29-29.55,0-99.1.13-198.19-.21-297.29,0-9.87,1.91-13.67,12.77-13.39,30.68.77,61.39,0,92.08.34,24.29.24,35.51,7.46,40.64,25.1l.08,124c.15,10.89-9.49,15.46-15.46,22.22,7.11,7.21,13.94,13.49,16,23q.12,63.72.31,127.44c0,4.71-1.27,9.68,1.7,14.07Zm-89.09-253.91c0,7.42,0,14.84,0,22.26,0,3-.33,5.84,3.71,7.28,11.81,4.19,23.74-3.15,24.27-15.62.36-8.28.24-16.59,0-24.88-.31-12.32-4.85-15.29-18.6-15.86-13.33-.55-8.76,8.63-9.37,15C4368.76,1560.42,4369.06,1564.38,4369.07,1568.31Z"/><path class="cls-1" d="M4458.16,1630l-2.56.21-.08-124,2.64,0Z"/><path class="cls-3" d="M1443.47,475.58c-4.74,19.74-9.48,39.48-14.77,61.53,18.93-6.35,35.67-12,52.46-17.57,5.06-1.67,5.77-5.71,6.85-10.11,2.81-11.41,6.1-22.7,9.2-34,13.45.59,30.07-5.48,39.46,2.45,8.64,7.29,9.93,23.47,14,35.87,24.89,75.17,49.66,150.38,75.43,228.49,8.71-26.61,16.68-50.56,24.4-74.59,19.55-60.78,39.13-121.56,58.31-182.46,2.39-7.58,5.86-10.07,13.78-10,46.51.38,93,.54,139.55-.08,10.57-.15,12.74,3.05,12.73,13.06q-.45,298.82-.22,597.64c0,102.24-.19,204.48.27,306.71,0,11.11-2.9,13.68-13.73,13.52-45.19-.65-90.41-.82-135.59.08-12.42.25-14.07-3.91-14-14.82.39-107.94.24-215.88.24-323.83v-13.79l-2.23-.34L1628.08,1285l-3.35.45-84.21-232.41-2.48.42v14.93c0,107.94-.16,215.89.25,323.83,0,10.79-2.49,13.94-13.6,13.77-45.63-.68-91.27-.49-136.91-.09-8.46.07-11-2-11-10.81q.35-454.8,0-909.62c0-7.91,1.74-10.73,10.1-10.41C1405.73,475.79,1424.61,475.47,1443.47,475.58Z"/><path class="cls-3" d="M2280.57,875.47c11,3.51,20.22,6.08,28.62,10.89,28.93,16.56,44.88,40.71,44.85,74.8q-.2,171.14-.05,342.27c0,53.83-27.23,86.84-80.33,97.45a159.29,159.29,0,0,1-31.36,3.13c-93-.07-186.07-.23-279.11.22-10.5,0-12.8-2.88-12.79-13q.42-451.53,0-903.08c0-10.19,2.41-13.17,12.91-13.12,91.72.42,183.44,0,275.16.36,33.66.13,65.15,7.49,90.6,31.92,16.46,15.79,24.69,35.14,24.78,57.5q.49,117.16,0,234.33c-.19,33.2-24.66,62.52-58.71,72.57C2291,872.94,2286.68,873.9,2280.57,875.47Zm-167.51,222.69c0,34.19-.22,68.38.12,102.56.12,12.08-5.39,28,2.34,35.23s23.39,2,35.57,2c28,.12,39.86-11.71,40-39.9.18-34.62,0-69.25,0-103.87,0-32.43.27-64.87-.09-97.29-.28-26.3-12.94-38.63-38.83-38.83-9.21-.08-18.46.57-27.6-.18s-11.9,2-11.79,11.41C2113.36,1012.26,2113.07,1055.21,2113.06,1098.16Zm0-382c0,13.14-.34,26.29.1,39.42.43,12.93-5.77,31.15,2.55,37.37,8.8,6.58,26,2.55,39.49,2.08,21.9-.76,35-13.51,35.61-35.72.78-28.45.69-56.94.17-85.4-.38-20.57-12.67-32.36-34.35-33.77-11.34-.74-22.79.18-34.15-.43-7.38-.4-9.76,1.83-9.59,9.43C2113.38,671.5,2113.07,693.84,2113.06,716.19Z"/><path class="cls-3" d="M418,518.33q14.7-21.47,29.41-42.92l110.62-.07c10.19,14.52,13.81,31.93,20.78,47.86,3.69,8.41,6.72,11.86,16.14,7.37,14.21-6.75,28.89-12.61,43.67-18.06,8.43-3.11,8.28-6.58,3.42-13-5.76-7.65-10.59-16-15.83-24.07,38.5,1,77.37-4.25,115.45,3.89,38.91,8.32,68.81,28.31,78.11,70.05,1.88,8.44,1.82,17.42,1.84,26.15.14,69.75-1.54,139.56.6,209.24,1.65,53.59-32.77,82.45-72.37,90.49,8.9,3.54,16.85,5.94,24.1,9.71,30,15.57,47.64,39.51,47.68,74.22.15,116.69.45,233.39-.1,350.08-.26,55-38.2,90.91-98.9,94.1-28.87,1.52-57.89.59-86.84.61-67.56.06-135.13-.26-202.69.29-11.57.09-15.09-2.33-15.08-14.68q.61-428.38.3-856.77C418.35,528,418.15,523.15,418,518.33Zm163.17,579.2c0,43.45.19,86.89-.17,130.33-.07,7.81,1.52,11,10,10.39,10.48-.79,21.06,0,31.59-.22,22.25-.41,35.41-10.91,35.71-33.37.94-70.61.35-141.24.32-211.87a31.9,31.9,0,0,0-.55-5.23c-3-18.1-14.76-28.73-33.09-29.38-10.08-.36-20.25.64-30.26-.3-10.63-1-14.09,1.87-13.88,13.28C581.68,1013.27,581.21,1055.4,581.21,1097.53Zm0-380.34c0,23.2.13,46.39-.09,69.59-.06,5.64.54,9,7.6,8.62,11.79-.6,23.65.29,35.43-.4,20.49-1.2,32.3-12.15,34-32.84,2.48-29.66,1.84-59.47.41-89.15-1-20.71-12.71-31.3-33.7-32.77-10.45-.73-21,.32-31.48-.53-9.38-.76-12.93,1.46-12.48,11.85C581.86,673.4,581.21,695.31,581.21,717.19Z"/><path class="cls-3" d="M1264.32,498.56c-3.36,13.87-6.47,27.81-10.18,41.58-2.64,9.82,0,11.9,9.4,8.38,8.89-3.33,18.17-5.62,27.27-8.37,7.16,19.11,9.91,38.81,9.9,59.24q-.29,343.47-.18,686.94c0,37-11.69,69.68-38.1,96.32-14.23,14.36-31.48,21.44-51.91,21.39-71.07-.18-142.14-.06-213.21-.07-54.44,0-87.2-27.29-96.52-80.7a211.44,211.44,0,0,1-3.2-36.63q.15-346.09,0-692.2c0-22.66,3.78-44.49,13.71-65,17.08-35.26,45-54,84.49-54.12,71.5-.23,143-.11,214.52,0C1231.6,475.32,1249.52,483.4,1264.32,498.56ZM1058.74,942.2v117.16c0,48.27-.07,96.54,0,144.81,0,23.94,9.4,34.33,32.93,37.74,9,1.3,17.58-.2,25.91-2.81,10.92-3.42,17.61-11.42,19.51-22.67a127.32,127.32,0,0,0,1.47-20.94q.11-252.76,0-505.52a136.76,136.76,0,0,0-1.44-22.27c-2.35-14-9.59-24.07-24.12-28.07-32.35-8.91-54.18,7.1-54.24,40.59Q1058.56,811.21,1058.74,942.2Z"/><path class="cls-3" d="M3312.15,940q0,225.75.28,451.51c0,11.47-2.47,14.74-14.33,14.53-44.75-.79-89.52-.71-134.27,0-11.61.17-15.32-2.31-15.28-14.78.5-139.53.13-279.07.64-418.61,0-12.47-3.61-15.45-15.27-14.78a365.62,365.62,0,0,1-50-.08c-12.41-1-13.91,3.73-13.88,14.57.36,139.1.05,278.2.55,417.29,0,12.93-2.53,16.83-16.17,16.5-43.42-1-86.88-.8-130.32-.1-11.72.19-15.23-2.5-15.2-14.84q.61-336.34.3-672.67c0-76.79.19-153.58-.23-230.37-.06-10.16,2.39-13.2,12.87-13.06q67.14.92,134.28,0c11.13-.16,14.56,2.07,14.49,14.06-.58,97.84-.16,195.7-.58,293.55,0,10.28,2.48,13.35,12.84,12.83,18-.9,36-.88,54,0,10,.48,12.31-2.46,12.27-12.3-.4-97.85-.06-195.7-.49-293.55,0-11,1.81-14.89,14-14.65q67.77,1.31,135.59,0c12.1-.21,14.2,3.64,14.17,14.79Q3311.85,714.91,3312.15,940Z"/><path class="cls-3" d="M2591,1087.34c0,38.18-.08,76.35,0,114.53.09,30.26,7.89,38,38.45,37.87a127.43,127.43,0,0,0,19.55-1.93c10.26-1.63,16.45-8,18.33-18.07a114.34,114.34,0,0,0,2.12-20.87c.15-71.08-.2-142.16.28-213.25.13-20.26-7.57-33.22-26-42.67-61.92-31.73-123.13-64.83-184.74-97.16-19.4-10.19-29.07-25.82-29.07-47.6q0-104,0-208a148.11,148.11,0,0,1,4.16-35.17c13.21-54.17,45.83-79.7,101.64-79.7H2725.3c53,0,83.26,22.05,100.16,73.08a155.79,155.79,0,0,1,7.81,49.11c.05,38.62-.22,77.23.2,115.84.09,8.3-1.71,11.09-10.62,11q-71.74-.72-143.5,0c-8.47.08-10.07-2.63-10-10.39.14-14.43,1.64-29-1.12-43.33-4-20.94-17.14-31.18-39.15-30.74-21.69.43-35.26,11.57-37.45,32.7a222.73,222.73,0,0,0-.19,39.42c1,13,10,20.49,21.05,26.46,62.05,33.36,123.78,67.33,185.95,100.47,23.67,12.61,35.19,30.58,35.07,57.94-.54,127.24-.29,254.49-.2,381.74,0,31.87-6.69,61.66-25.15,88.2-17.18,24.72-39.77,37.79-70.91,37.4-66.7-.85-133.45-1.83-200.09.15-75.75,2.25-104.47-43.77-106.42-103.59-1.94-59.17-.73-118.45-.81-177.68-.07-52.21.19-104.43-.22-156.64-.07-8.7,2.38-10.87,10.89-10.79,46.51.41,93,.52,139.54-.06,9.87-.12,11.14,3.35,11,11.94C2590.76,1007.48,2591,1047.42,2591,1087.34Z"/><path class="cls-3" d="M3388.52,939.66q0-225.06-.26-450.13c0-11.21,2.19-14.54,14.13-14.52q138.17.21,276.34-1.31c11.25-.12,13.49,3,13.35,13.69-.64,46.05-.73,92.13,0,138.18.2,12.15-2,16.33-15.29,16-38.58-1-77.21-.18-115.82-.52-8.28-.08-11.3,1.84-11.19,10.89.5,44.31.61,88.63-.06,132.93-.16,10.64,3.77,12,12.87,11.94,39.49-.43,79,.07,118.46-.38,8.55-.1,11,2.14,10.93,10.83q-.65,70.41,0,140.82c.09,8.88-2.65,10.73-11,10.64-39.92-.42-79.85.13-119.77-.42-9.44-.13-11.49,2.69-11.46,11.74q.54,129,0,258c-.06,10.36,3.29,12.19,12.71,12.07,39.48-.51,79,0,118.46-.4,8.22-.08,11.17,1.58,11.08,10.6q-.72,72.38,0,144.77c.07,8.65-2.32,10.93-10.93,10.9-93.89-.31-187.79-.44-281.68.11-11.88.07-11-5.83-10.94-13.61Q3388.58,1166,3388.52,939.66Z"/><path class="cls-3" d="M4148.68,940.07q0-225.77-.27-451.54c0-11.34,3.44-13.65,14-13.51q67.14.87,134.3,0c11-.16,13.76,2.84,13.74,13.76-.32,244.89-.1,489.77-.6,734.66,0,14.28,4.21,17,17.37,16.73,37.28-.88,74.61,0,111.91-.52,9.37-.13,12.85,1.61,12.71,12q-.91,71.08,0,142.18c.12,10.23-3.16,12.17-12.69,12.13q-139.58-.54-279.14,0c-10.5,0-12.88-2.84-12.86-13q.51-226.46.23-452.9Z"/><path class="cls-3" d="M3768.61,940.41q0-225.72-.24-451.44c0-10.81,2.66-14.05,13.67-13.89,44.31.62,88.64.85,132.94-.11,13.41-.29,15.42,4.21,15.4,16.27q-.6,248.1-.27,496.2c0,79.85.19,159.7-.23,239.55-.06,10.29,2.58,13.27,13,13.1,39.48-.65,79,0,118.46-.45,8-.08,10.35,1.93,10.28,10.16q-.61,73,0,146.09c.07,8.5-2.87,10-10.61,10q-141.51-.37-283,.11c-11,0-10.39-5.32-10.39-12.84q.16-226.36.08-452.75Z"/><path class="cls-1" d="M878.13,375.81c-10.16,10.62-20,21.54-30.57,31.77a165.06,165.06,0,0,1-33.49,25.32c-17.39,9.88-32.29,4.15-38.71-15-.69-2-1.17-4.16-2-7.35-21.65,17.72-44.57,31-70.68,40.07-33.69,11.65-75.54-16.09-68.38-60.4,7.09-43.92,40-84.21,82.89-96.44,22.34-6.38,43.22,2.52,54.44,23,4.73,8.59,4.1,16.83-.86,24.88-5.36,8.69-12.75,15.56-20.59,22A314.9,314.9,0,0,1,697.34,398c-8.21,4.33-8.63,10-6.91,17.31,2,8.42,8.38,9.64,15.37,8.34,34.84-6.47,63.3-22.63,79.47-55.51,16.9-34.4,41-61.9,74.15-81.33,11.1-6.5,22-11.37,34.73-1.45,9.74-34.93,20.82-68.06,35.24-100,13.56-30,29-59,49.65-84.85,7.13-8.94,14.94-17.22,24.38-23.83,15.09-10.56,22.48-11,35.93-2,17.52,11.66,21.58,20.33,17.65,38.17-6.1,27.77-19.28,52.49-33.66,76.61-18,30.15-36.22,60.52-59.73,86.41-20.82,22.93-27,49.19-28.81,78-.62,9.62-.23,19.3-.57,28.93-.42,12.13,5.34,12.23,13.77,7.32,18.88-11,33-27.32,47.81-42.83,2.11-2.21,4-5.94,6.35-6.31,4.73-.74,7.38,4,10.48,6.87,3.27,3.06.34,5.52-1.6,7.8-18,21-35.84,42.2-58.81,58.06-12.77,8.81-25.83,20.34-42.91,11.62-18.75-9.57-32.1-23.39-27.43-47.48Zm79.48-133.62,2.77,1.9c11.5-19,23.46-37.81,34.4-57.17,12.27-21.72,23.81-43.88,30.1-68.31,1.74-6.75,4.92-17.23.07-19.46-7.05-3.25-10.73,6.8-14.11,12.36C986,152.21,971.72,197.17,957.61,242.19Zm-67.8,60.06c-25.14,22.63-45.89,45.17-59.47,73.56-1.86,3.89-4.13,8.9-.16,12.11,3.49,2.82,7.35-1,10.45-3,12.9-8.37,23.63-19.23,33.93-30.53,4.07-4.46,8.67-8.41,9.52-15.13C885.5,328.09,887.5,317,889.81,302.25ZM694,377.25c17.51-14.43,32.14-26.58,38.08-46,1.26-4.11,2.73-9.14-1.63-12-4.55-3-8.43.5-11.32,3.79C706.29,337.72,699.11,355,694,377.25Z"/><path class="cls-1" d="M3412.51,1652.16c14.88,11,18.81,24.66,18.45,41.28-.84,38.58-.52,77.18-.08,115.77.1,8.9-2,12.62-11.54,12a309.63,309.63,0,0,0-36.81,0c-9.18.52-11.93-2.49-11.82-11.76.48-41.22-.06-82.45.37-123.66.13-12.09-4.77-20.14-15-25.38-10.47-5.35-14-3.17-14,8.64-.06,45.17-.48,90.35.27,135.5.21,12.61-2,18.62-16.11,16.7-13.77-1.86-32.43,5.71-40.35-3-6.88-7.53-2.19-25.83-2.2-39.36-.08-95.16.09-190.32-.25-285.48,0-9.43,1.69-12.92,12-12.67,30.68.75,61.39.22,92.09.28,25.75.06,45.21,9.16,43.48,43.86-1.49,30.18-.75,60.51-.12,90.75C3431.19,1630.92,3427.4,1643.34,3412.51,1652.16Zm-70.5-82.74v21.07c0,3.61.06,6.5,5,7.53,14.31,3,23.22-3.57,23.45-18.09.12-7.46.17-14.93,0-22.38-.31-12.6-4.59-15.36-18.53-16.06-13-.65-9.64,7.91-9.9,14.76C3341.87,1560.64,3342,1565,3342,1569.42Z"/><path class="cls-2" d="M3468.37,1651.06c0-52.63.29-105.26-.25-157.87-.11-10.2,3.1-12.52,12.64-12.32,26.74.59,53.5.1,80.26.24,37.24.19,54.86,17.77,54.86,54.48q0,117.75,0,235.5c0,28.37-17.19,47.4-45.75,48.54-31.52,1.25-63.1.84-94.65,1.4-8.69.15-7.07-5.76-7.08-10.78Q3468.35,1730.65,3468.37,1651.06Zm87.89,0c0-28.92,0-57.85,0-86.78,0-4.35,0-8.85-1-13-2.73-11.52-12.15-11-21-10.68-10.28.38-5.43,8.53-5.45,12.86-.35,64.42-.25,128.85-.24,193.27,0,14,3.25,16.48,17,13.45,9.42-2.08,10.75-9.12,10.75-17Q3556.27,1697.06,3556.26,1651Z"/><path class="cls-2" d="M3974,1649.72c0-52.18.3-104.36-.25-156.53-.11-10.18,3.08-12.53,12.63-12.32,26.74.59,53.49.1,80.24.23,37.21.19,54.89,17.84,54.89,54.52q0,116.42,0,232.83c0,32.35-18.44,51-51.07,51.54-29.36.45-58.73.37-88.07,1.1-9,.22-8.42-4.9-8.41-10.89Q3974.07,1730,3974,1649.72Zm60.17.86q0,48,0,96c0,13.57,6.66,18,19.35,12.87,7.53-3,8.34-9.51,8.35-16.28q.06-92,0-184a34.72,34.72,0,0,0-1-7.78c-2.71-11.71-12.07-11-20.9-10.79-10.35.27-5.45,8.45-5.51,12.78C4034,1585.74,4034.17,1618.16,4034.17,1650.58Z"/><path class="cls-2" d="M2909.22,1649.74c0-51.79.33-103.58-.27-155.36-.13-11.16,3.16-14.45,14-13.52a242.45,242.45,0,0,0,34.2.06c8.59-.49,11.24,2.26,11.09,11-.53,31.15.6,62.35-.56,93.46-.54,14.33,7.41,12,16.22,12.78,10.68,1,13.11-3,12.89-13.1-.66-30.27.34-60.58-.53-90.83-.33-11.43,3.35-14.24,14-13.4a280.8,280.8,0,0,0,35.53.08c8.47-.41,11.23,2.23,11.14,11.08-.44,47.4-.21,94.8-.21,142.19,0,58.37-.19,116.74.2,175.1.06,9.09-2.31,12.45-11.68,11.91a326,326,0,0,0-38.16,0c-9.07.54-10.76-3-10.7-11.27.36-46.52-.33-93,.51-139.55.23-12.32-4.85-12.93-14.51-12.93s-14.87.9-14.66,13.14c.79,46.07,0,92.16.56,138.23.12,9.94-2.57,13.16-12.46,12.38a198.34,198.34,0,0,0-32.88,0c-10.85,1-14.11-2.37-14-13.53C2909.54,1755.07,2909.22,1702.4,2909.22,1649.74Z"/><path class="cls-1" d="M3234.8,1635.07c3.68,69.94,6.12,121.59,9.35,173.19.67,10.67-2.48,13.71-12.79,13a325.71,325.71,0,0,0-36.84-.06c-8.23.37-10.63-3-10.71-10.75-.15-14-1.58-28-1.61-42,0-12-8.38-8.34-14.72-9s-10.55.11-10.55,8.65c0,14.43-1.92,28.86-2.16,43.3-.13,7.51-2.78,10-10.09,9.76-12.71-.42-25.5-.83-38.15.11-10.47.78-12.08-3.2-11.54-12.68,4.28-73.92,8-147.87,12-221.81,1.68-31.94,3.72-63.87,4.8-95.84.29-8.46,3.25-10.13,10.9-10,31.14.36,62.31.57,93.45-.09,9.94-.21,11.53,4.2,11.9,12.38C3230.4,1546.6,3233.09,1600,3234.8,1635.07ZM3168,1557.94q-3.48,66-7,132c-.31,5.83-1.73,10.86,7.63,11,8.86.11,10.13-3.47,9.64-10.84-1.73-26.57-3-53.17-4.68-79.74C3172.53,1592.78,3173.74,1575,3168,1557.94Z"/><path class="cls-1" d="M4160.12,1651.32c0-52.61.23-105.21-.22-157.81-.07-9.47,1.86-12.9,12.14-12.72,29.34.51,58.71,0,88.05-.65,8.1-.18,11.86,1.39,11.31,10.6a323.86,323.86,0,0,0,0,40.74c.63,9.47-3.45,11-11.38,10.57-10.06-.5-20.18.23-30.24-.23-7.21-.33-10.27,1.87-9.95,9.55.51,12.7.44,25.43,0,38.13-.23,6.75,1.82,9.34,8.84,9,10.93-.52,21.93.24,32.87-.27,7.08-.33,10.15,1.34,9.8,9.21-.63,14-.43,28.06-.06,42.08.17,6.23-1.79,8.59-8.18,8.37-11.38-.39-22.8.21-34.18-.21-6.88-.25-9.15,2.23-9.08,9.08.29,28,.34,56.11,0,84.16-.1,7.36,2.94,8.81,9.37,8.59,10.95-.38,21.93.2,32.88-.21,6.51-.25,9.51,1.26,9.26,8.6-.52,14.89-.64,29.83,0,44.7.4,9-4.62,8.52-10.69,8.5-29.81-.12-59.63-.46-89.43.17-9.79.21-11.36-3.5-11.31-12.15C4160.29,1756.53,4160.12,1703.92,4160.12,1651.32Z"/><path class="cls-2" d="M3709.8,1651q0-62.48,0-124.94c.06-31.67,13.27-45,44.38-45,23.68,0,47.36.34,71-.18,8.71-.19,12.67,1.61,12.07,11.37-.83,13.54-.53,27.18-.08,40.76.23,6.94-2.22,9.18-9,9-14-.39-28-.11-42.08-.08-11.58,0-17.67,4.81-17.61,17.42q.44,91.41,0,182.81c0,12.53,6.23,17.31,17.85,17.26,13.59-.06,27.19.29,40.77-.13,7-.22,10.42,1.22,10.1,9.23-.57,14.45-.42,28.94-.05,43.39.17,6.33-2,8.27-8.27,8.2-28.94-.29-57.88.28-86.81-.4-20.34-.47-32-14.69-32.22-38.51C3709.58,1737.82,3709.81,1694.42,3709.8,1651Z"/><path class="cls-1" d="M3935.56,1651.87c0,51.75-.27,103.5.23,155.25.1,10.47-2,15.2-13.52,14.16a197.93,197.93,0,0,0-34.17,0c-10.17.84-12.24-2.83-12.19-12.49.4-78.93.23-157.88.23-236.82,0-26.75.42-53.51-.24-80.25-.22-9.07,2.9-11.19,11.18-10.8a345.39,345.39,0,0,0,36.83,0c9.24-.55,11.92,2.56,11.85,11.79C3935.35,1545.74,3935.56,1598.8,3935.56,1651.87Z"/></svg>