<svg id="Layer_1" data-name="Layer 1" xmlns="http://www.w3.org/2000/svg" viewBox="0 0 3541.34 1822.61"><defs><style>.cls-1{fill:#fff;}</style></defs><path class="cls-1" d="M3246.23,1822.61c-14.38-16.78-10.74-28.49,11.56-32.45,53-9.43,106.21-17.87,159.33-26.75,17.65-2.94,35.28-6,56.48-9.62-25.72-12-48.25-22.13-70.37-33.06-32.77-16.18-65.31-32.83-97.82-49.53-18.2-9.35-19.53-20.67-5.16-35q58.53-58.21,116.67-116.81c5.72-5.76,10.49-12.45,17.89-21.33-7.53.64-12,.74-16.34,1.43q-94.36,14.93-188.7,30c-3.11.49-6.28,1.44-9.34,1.19-8.25-.67-15.84-3-17-12.89-1.09-9.42,5.07-13.62,13.06-15.23,13.09-2.63,26.29-4.73,39.46-7q107.52-18.25,215-36.54c7.4-1.27,14.43-.76,16.41,7,1.57,6.12.24,13.15-.71,19.64-.34,2.3-3.29,4.26-5.16,6.29-32,34.67-63.84,69.48-96.07,103.93-14.76,15.77-30.3,30.81-45.46,46.21-2.37,2.41-4.6,4.95-8,8.59,5.27,2.83,9.25,5.09,13.33,7.14,59.7,30,119.5,59.87,179,90.32,6.58,3.37,11.39,10.19,17,15.41v7.08c-4,9-11.14,11.91-20.76,12.19-15.28.45-30.69,1.05-45.75,3.42-46.9,7.4-93.67,15.64-140.48,23.6q-37,6.3-73.95,12.73Z"/><path class="cls-1" d="M0,1690.4c2.32-19.8,4.29-39.65,7.06-59.39,4.2-30,8.56-59.87,28.38-85,24.32-30.79,67.05-38.74,100.22-17.47,17.1,11,29.19,26.1,36.65,45,1.7,4.3,3.47,8.57,5.79,14.28l60.67-30.61c15.09-7.61,30-15.64,45.35-22.64,10.52-4.8,18.66-1.75,21.57,6.85,3.51,10.38-1.85,16.29-10.69,20.48-22.38,10.62-44.83,21.09-67,32.18-13.34,6.68-26.34,14.12-39.1,21.87-3.11,1.89-6.63,6.32-6.64,9.6-.13,31.45.57,62.9.75,94.35.05,9.07,4.09,12,12.92,12,22.4.22,44.88.41,67.14,2.54,8.55.83,17,6.2,24.63,11,2.39,1.5,3.14,8.26,2,11.74-.71,2.15-6.35,3.45-9.9,3.76-83.22,7.31-165.43-7.19-248.1-11.84-15.15-.85-27-7.64-31.72-23.32Zm154.12,37.11c1.87-45.58,6.81-89.61-2.36-133-2.74-13-11.39-26.1-20.7-36-18.85-20-50.49-18.28-69.53,1.54a90.48,90.48,0,0,0-25.36,54.51c-2.34,21.88-5.51,43.67-7.59,65.57a183.69,183.69,0,0,0,0,31.64c.23,3.06,4.41,8.16,7.07,8.35C74.31,1723,113.07,1725.08,154.12,1727.51Z"/><path class="cls-1" d="M1971.35,0c8.9,5.2,11.26,12.77,9.72,22.82-10.74,69.95-21.15,139.94-31.73,209.91-4.31,28.54-4.65,23.25,19.39,26.59,36.94,5.14,74.18,8.25,111.33,11.77,9.29.88,19.65,2.57,19.05,12.87-.56,9.7-10.63,12.09-20.18,11.16-47.33-4.62-94.7-8.82-142-13.86-17.66-1.89-20.27-5.58-17.62-24.44,10.6-75.16,21.63-150.26,32.66-225.36,1.73-11.82,1.73-24.72,14.64-31.46Z"/><path class="cls-1" d="M1062.31,1806.42c-62.11-4.62-128.77-9.47-195.4-14.63-9.77-.75-19.45-2.83-29.12-4.57-16.42-3-23-19.31-13-33,3.41-4.65,8.3-8.32,12.88-12,36.33-29.21,79.43-46.27,121.09-65.41,108.57-49.87,217.84-98.25,326.92-147,9.64-4.31,19.92-7.26,30-10.56,6.92-2.26,11.48-.19,15.11,6.86q54.77,106.43,110.27,212.48c4.71,9-.16,13-6.71,15.23-19.71,6.56-39.4,13.74-59.67,18a1719.77,1719.77,0,0,1-275.9,34.6C1088.15,1806.82,1077.52,1806.42,1062.31,1806.42Z"/><path class="cls-1" d="M1655.9,1775.2c-17.27-1-34.53-2.37-51.81-2.81-43.58-1.1-79-19.35-107.44-51.41-77-87-138.52-183.32-171.76-295.41-11-37.11-17.19-75.92-22.33-114.39-2.37-17.75,2.67-36.61,5.33-54.82.55-3.74,6.35-10.08,8.27-9.58,5.23,1.36,11.42,4.68,14.1,9.11a196.7,196.7,0,0,1,17.09,34.88c12.32,34.11,33.33,61.94,58.62,87.38,31.87,32,63.51,64.37,93.89,97.82,20.05,22.09,38.51,45.76,56.21,69.82a264.05,264.05,0,0,0,69.9,66c22.11,14.31,44.27,28.56,66.83,42.14,36.12,21.72,46.57,48.84,33.34,88.77-2.22,6.72-5.45,13.28-6.49,20.18-2,13.19-9.31,15.92-21.36,14.49-14-1.67-28.24-1.75-42.37-2.51Z"/><path class="cls-1" d="M1272.06,1341.82c9.69,44.17,19.11,87.11,28.52,130,.26,1.15.41,2.33.67,3.48,3.7,16.64,3.48,16.07-12.86,22.28-50.67,19.27-102.69,35.84-151.37,59.29-74.66,36-147,76.72-220.28,115.58-34,18-67,38-106.51,42.73-28.32,3.41-35.26-3.54-26.53-30.76a59,59,0,0,1,9-17.7c42.4-55.19,84.58-110.57,127.87-165.06,25.06-31.54,61-48.64,95.23-68.22,67.06-38.39,141.42-56.16,214.24-78.45C1243.59,1350.91,1257,1346.56,1272.06,1341.82Z"/><path class="cls-1" d="M1821.68,1640.84a178.08,178.08,0,0,1-107.88-38c-28.77-22.57-58.58-43.84-86.84-67a110.8,110.8,0,0,1-25.85-31.53c-17.52-31.62-33.77-64-49.72-96.43-11.5-23.4-12.79-48.24-7.79-73.74,1.62-8.28,6-11.26,13-8.77,8,2.83,16.31,6.19,22.75,11.45,14.91,12.17,29.06,25.31,43,38.62,29.23,27.93,62.38,50.37,97.4,70.16,20.23,11.42,41.92,16.61,65.47,16.77,29.45.19,58.89,2.64,88.33,4.27,38.4,2.12,75.05-5.41,110.74-19.11,17.24-6.62,34.56-13.24,52.29-18.28,22.21-6.32,29.75-.23,31.46,22.54,1.59,21.17-3.69,40.48-14.88,58.39-18.43,29.48-44.25,50.61-74.25,67.52a345.67,345.67,0,0,0-40.13,26.66C1906.69,1628.83,1870.84,1641.57,1821.68,1640.84Z"/><path class="cls-1" d="M2257.31,1534.08c24.13,11.93,45.72,24.19,68.5,33.58,77.75,32,156,63,233.92,94.52q85.82,34.71,171.45,69.88a54.23,54.23,0,0,1,14.21,8.22c13.64,11.46,11,26-6,31.07-11.23,3.35-23.05,4.79-34.64,6.9-41.41,7.51-82.76,15.32-124.26,22.29-38.78,6.5-77.78,5.2-116.29-1.64-57.67-10.24-115-22.18-172.62-33-27.13-5.09-43.06-21-45.57-48.09-2.86-30.81-3.74-61.8-5.47-92.7-.13-2.34.5-4.95-.31-7C2227.94,1587.29,2245.29,1562.82,2257.31,1534.08Z"/><path class="cls-1" d="M1923.33,1112.18c-12.44,1-23.88,2.39-35.35,2.85-13.61.54-27.48,2-40.82.06-23.72-3.35-47.14-8.79-70.65-13.55-23.29-4.73-46.09-6-66.56,8.59-21.48-23.32-23.5-56.75-2.73-78.34,30.3-31.49,66.15-51.85,111.77-39.43,14.34,3.91,28,12.48,40.32,21.17,20.89,14.67,40.51,31.15,60.7,46.83,3,2.35,6.23,4.47,10.63,7.61,4.41-18.38,8.49-35.4,12.88-53.73,27.6,8.14,52.43,19.76,65.72,45,15.1,28.72,30.62,58.21,39.12,89.23,20.69,75.56-3.67,139.7-60.27,191.47-23.41,21.41-49.69,39.83-75.69,58.16a48.13,48.13,0,0,1-40.64,7.17c-14.58-3.88-20.91-13.63-17.7-28.39,8.28-38.09,18.66-75.5,35.86-110.8,21-43.22,35.06-88.36,34.17-137.12C1924,1124.34,1923.67,1119.69,1923.33,1112.18Z"/><path class="cls-1" d="M1779.92,1751.72c0-20.52,3.11-25.2,20.81-32.1,33.26-13,67.68-23.67,99.47-39.6,30.37-15.21,58.52-35.1,86.7-54.32,43.82-29.86,85.83-62.5,130.65-90.73,21.48-13.53,47.4-20.32,71.78-28.82,11.42-4,18.66,1.2,22.29,13.11,6.21,20.38,1.63,39.34-7.19,58.17-6.91,14.77-13.28,30-17.71,45.67-8.34,29.48-26.15,52.37-46.85,73.77-7.61,7.87-14.09,16.85-21.69,24.75-12.48,13-24,27.41-38.47,37.8-41.15,29.65-85.36,51-138.62,47.09-21.69-1.6-44.48,5.37-65.4,1.34-28.19-5.42-55.3-17.07-82.4-27.3C1780.1,1775.56,1779.48,1762.7,1779.92,1751.72Z"/><path class="cls-1" d="M2383.8,1227c2.47,34.54-8.11,67.57-35.91,95.87-29.72,30.26-57.15,62.79-85.36,94.53-11.42,12.85-25.6,15.92-41.72,13.42-13.12-2-20-10.23-17-23.22,2.76-12.17,7.26-24.08,12.21-35.58,12.74-29.65,24.59-59.35,30.22-91.53,15.19-87,0-167.75-44.33-244.1-20.88-36-38.27-74-57.22-111.07-.89-1.75-2.26-3.66-2.16-5.43.41-7.48-1.35-17.6,2.74-21.64s15.35-4.37,21.36-1.66c52.21,23.51,95,57.2,121.79,109.9,13.63,26.85,31.57,51.6,48.54,76.63C2365.7,1125.51,2382.7,1171.61,2383.8,1227Z"/><path class="cls-1" d="M2327.5,1429.42c60.07,6,118.72,14.24,175.39,33.35a158.67,158.67,0,0,1,56.6,33c54.77,49.57,110,98.67,164.86,148.12,12,10.84,14.43,19.4,9.34,28.7-6,11-17,15.13-31.79,9.65-86.93-32.16-173.6-65-260.54-97.12-49.3-18.23-99-35.52-148.43-53.3-11.81-4.24-24.09-7.68-35.17-13.39-16.58-8.55-17.83-19.92-4.36-32.55,17.76-16.66,35.62-33.28,54.26-48.94C2312.76,1432.62,2320.8,1431.82,2327.5,1429.42Z"/><path class="cls-1" d="M1876.14,728c37.46,2.3,70.87,15.81,104.28,30,48.66,20.72,90.24,52.4,132.09,83.68,11.16,8.34,18.86,19.14,15,34.48-3.17,12.69-10.58,19-23.61,18.37a93.47,93.47,0,0,1-23.07-4.17c-25.85-8.09-51.88-15.81-77.18-25.42-49.79-18.92-101.27-20.2-153.38-17.26-25.5,1.43-51.1,1.63-76.49,4.09-12.19,1.18-25.21,4.16-35.71,10.11-17.77,10.1-35.92,15.34-56.13,14.49-10.2-.42-20.42-.54-30.64-.83-13.52-.39-26-9.06-29.72-21-4.2-13.48,3.93-21.76,13.37-28.73,47.63-35.21,100-60.42,157.58-75,12.46-3.16,24.27-8.86,36.7-12.22C1844.72,734.4,1860.5,731.45,1876.14,728Z"/><path class="cls-1" d="M2113.53,1375c-17.64-25.07-22.2-52.48-23.51-80.56-1.36-29.05.17-58.35-3-87.17-2.59-23.54-7.62-47.53-16.09-69.58a923.47,923.47,0,0,0-87.85-172c-5.53-8.52-11-17.45-14.33-26.95-5.59-16,3.49-27,20.37-24.49a94.39,94.39,0,0,1,30,10c52.52,28,93.11,69.34,126.29,118,22.51,33,42,68.31,45.64,108.72,2.29,25.53-.83,51.74-3.35,77.46-2.38,24.21-6.64,48.28-11,72.24C2170.16,1337.06,2147.8,1360.48,2113.53,1375Z"/><path class="cls-1" d="M1361.9,1267c-14.11-28.43-25.42-57-22.21-87.74,6-57.42,12.07-115.07,23.07-171.65,14.43-74.19,60.26-122.74,133.37-144.39,12.43-3.68,24.81-7.69,37.43-10.6,24.61-5.68,38.27,8.14,31.16,32.12-7.63,25.72-18.07,50.18-35.62,71.21-25.16,30.15-43.21,64.15-57.2,101-12.5,33-29.7,64.12-44.15,96.38-9.79,21.87-18.55,44.21-27.5,66.45C1392.58,1238.89,1381.69,1255.22,1361.9,1267Z"/><path class="cls-1" d="M1454.66,1271.58c-.54-62,6-121.36,30.67-176.9,9.62-21.63,24.68-40.87,37.49-61,5.27-8.29,11.07-16.24,16.77-24.24,33.45-46.93,98.69-65.49,152.34-43.38,12.9,5.32,17.42,15,10.6,27.4a75.4,75.4,0,0,1-18.44,22.43c-26.78,21.25-54.42,41.43-81.57,62.21a48,48,0,0,0-10.45,10.9c-26.58,39.24-43.77,81.55-50.45,129.24s-18.88,94.76-29.08,142c-1.37,6.36-4.6,12.58-8.08,18.16-5.52,8.82-13.3,15.05-24.54,12.3s-17.2-11.06-18.5-22c-2-16.78-3.31-33.64-4.46-50.5C1455.86,1302.06,1455.35,1286,1454.66,1271.58Z"/><path class="cls-1" d="M1637.67,1071.73c27.36,5.36,35.65,15.25,38.54,39.92,2.83,24.16,6.31,48.29,11,72.14,1.83,9.27,6.81,18.38,12.06,26.45,33.43,51.37,67.49,102.34,101,153.69,6.4,9.81,12.56,20.24,16.08,31.27,2,6.38,1,16.67-3.13,21.21-3.38,3.74-14.23,4-20.1,1.63-25.48-10.22-50.63-21.38-75.4-33.25-94.42-45.21-126.75-160.71-104.34-239C1620.47,1121,1629.41,1096.72,1637.67,1071.73Z"/><path class="cls-1" d="M3240.27,1227.19c-19.18,30.21-37.39,58.67-55.35,87.28-4.66,7.43-9.08,14.56-19.42,9.49-8.4-4.11-10.06-12.85-4.06-23.42,17.09-30.09,34.24-60.15,51.83-89.94,5.19-8.78,5.63-16.18.19-25.11-13.67-22.47-26.55-45.42-40.62-69.68-17.71,10-34.74,19.4-51.66,29.07-7.51,4.29-14.7,9.12-22.18,13.47-7.86,4.56-15.38,4.29-20.56-3.89-5.32-8.38-3.48-16.1,5.07-21.19,32.76-19.51,65.28-39.46,98.62-57.93,38.5-21.33,77.8-41.2,116.68-61.85,16.83-8.94,25-7.48,33.62,9.39,20.39,39.83,41.46,79.43,59.28,120.42,12.72,29.27,8.13,59.27-3.9,89.35-13.07,32.69-80.46,51.42-110.88,24.32C3265.52,1246.82,3253.23,1237.67,3240.27,1227.19ZM3311,1044.61c-35.7,18.31-69.88,35.93-104.15,53.34-6.17,3.14-7.8,6.6-4.08,12.92,15.31,26,28.76,53.34,46,78a181.05,181.05,0,0,0,43,42.92c29.54,20.92,69.18,5.26,76.65-30.08,3.11-14.71,1.89-31.52-1.82-46.26C3356.34,1114.93,3333,1080.54,3311,1044.61Z"/><path class="cls-1" d="M245.92,1325.7c-51.76-2.65-100.13-15.06-128.41-63.12C85,1207.43,80,1150.68,115.42,1093.13c29.59-48.1,73.43-73,126.7-83.93,10.08-2.07,21.76-2.31,31.46.65,62.1,18.93,109.68,52.87,119.88,122.73,9.72,66.52-6.24,124-61,166.72C307.31,1318.87,277.72,1326.29,245.92,1325.7Zm-8.12-25.79c53.63-.07,92.91-21.62,111.57-58.16,23.2-45.43,24.74-92.07,3.7-138.62-24.92-55.14-93.4-81.39-149-57.94-30.31,12.79-51.78,35.35-67.84,63.22-26.28,45.62-19.83,91.13,4.45,134.72C163.29,1283.67,203,1295.55,237.8,1299.91Z"/><path class="cls-1" d="M650.74,528.92c37.23-29.57,71.62-57,106.11-84.24,12.33-9.74,24.55-19.69,37.56-28.45,3.54-2.38,9.77-.74,14.76-1-.11,6.18.72,12.59-.7,18.46-.77,3.18-5.22,5.62-8.27,8.09Q745.65,486,691.05,530.12c-7.26,5.9-14,12.44-22.44,20l62.56,79.38c11.71-9.07,22.14-17.21,32.63-25.27q55.66-42.76,111.4-85.46c6.11-4.67,13.57-9.38,20-2.53,6.94,7.35,3.11,15.64-3,22.06-4.29,4.54-9.49,8.24-14.45,12.09q-62.92,48.82-125.92,97.57c-2.8,2.17-5.58,4.37-8.52,6.34-13.57,9.08-21.24,8.48-31.55-4.19-28.54-35.07-57-70.2-84.83-105.85q-30.82-39.51-59.8-80.44c-10.13-14.21-8.92-23,4.92-33.43,49-36.85,98.48-73.16,148-109.37,5.26-3.85,12.26-10.23,18.28-1.39,5.57,8.17,2.7,15.66-5,21.48Q679.15,381.9,625,422.83c-8.77,6.65-17.39,13.55-25.53,20.95-2.19,2-4.29,7.6-3.14,9.25C613.79,478,631.76,502.64,650.74,528.92Z"/><path class="cls-1" d="M326.8,766.32c4.58-14.79,8.44-29.85,13.93-44.28,4.6-12.08,10.6-23.7,16.85-35,16.64-30.25,43.85-45.15,77.08-46.26,13.19-.45,26.93,7,39.91,12.17,7.74,3.07,12.16,11.56,7.16,18.24-3.4,4.55-12.36,5.54-19.08,6.75-2.94.53-6.45-2.45-9.76-3.68-25.44-9.44-49.8-5-65.74,16.73-12.6,17.11-22.73,36.74-30.31,56.64-8,21-.48,41.18,13.82,58,14,16.43,29.18,18.69,45.14,4.19,17.67-16,33.06-34.6,49.41-52.09,8.58-9.19,16.79-18.75,25.69-27.62,35.33-35.25,76.29-33.63,109.56,4.43,19.25,22,25.51,48.21,22.84,76.83C618.59,861.83,571.91,913.62,523,922.29c-21.82,3.87-43.08.71-63.58-7.57-7.78-3.14-12.69-8.25-10.28-17.25,2.59-9.67,9.87-11.32,18.54-9.74a55.79,55.79,0,0,1,10.28,2.55c54.29,21.27,124.56-31.88,119.89-101.45-1.79-26.73-34.12-56-60.76-54.36a32.46,32.46,0,0,0-19.57,8.86c-25.24,25.84-49.52,52.61-74.35,78.87A117,117,0,0,1,426.4,837c-28.24,20.17-50.45,17.51-73.52-8.37-10.55-11.82-23.18-45.35-23.14-61.38Z"/><path class="cls-1" d="M3199.44,706.14c-.69,2.46-1.52,8-3.75,12.9-25.5,56.19-50.89,112.43-77,168.32-10.8,23.1-23.25,45.43-35.1,68-4,7.63-9.23,13.34-18.71,7.53-8.67-5.3-11.51-11.63-5.71-21.54,7.55-12.87,13.56-26.62,20.59-39.8,3.2-6,2.76-10.63-1.77-15.94-30.89-36.21-61.4-72.74-92.5-108.77-2.59-3-9.13-5-12.94-4.06-11.37,2.92-22.27,7.65-33.42,11.49-4.41,1.52-9.6,4.49-13.38,3.34-5.68-1.75-12.7-5.53-14.84-10.36-1.55-3.5,2.54-13,6.44-14.82,20.28-9.29,40.82-18.57,62.15-24.88,64.06-19,128.54-36.53,192.83-54.72C3188.91,678.17,3199.46,685.93,3199.44,706.14Zm-38.56,18.61-2.66-2.77L3011.1,763.55l84.25,99.62Z"/><path class="cls-1" d="M1443.62,199.6c-62,15.9-122,31.35-182.12,46.6-7.22,1.83-8.18,5.89-6.46,12.22,8.58,31.44,17,62.92,25.5,94.38,1.44,5.3,4.24,10.63,4.07,15.86-.18,5.44-3.21,10.79-5,16.18-6-2.52-14.76-3.37-17.56-7.89-5.89-9.51-9.51-20.7-12.57-31.62q-29.23-104.38-57.72-209c-2.18-7.94-4.59-16.17-4.49-24.23.06-4.64,4.92-13,7.65-13,5.5,0,11.3,4.07,16.37,7.39,1.76,1.15,1.76,5,2.54,7.65,10.61,35.72,21.22,71.45,32.41,109.11l190-47.69c-5.58-21.53-10.75-41.12-15.73-60.75-4-15.61-7.63-31.29-11.5-46.91-2.14-8.6-1.37-16.17,8.59-18.74,10.32-2.67,15.43,3.7,17.83,12.56,7.1,26.16,13.75,52.44,20.9,78.59q21.92,80.15,44.19,160.21c2.18,7.92,4,15.82-6,19.91-8.61,3.51-16.36-.29-19.62-11.25-8.18-27.49-15.49-55.24-23.24-82.85C1449.25,217.7,1446.51,209.16,1443.62,199.6Z"/><path class="cls-1" d="M2778.74,406.3l-57.82,77.44c4.18,3.48,7.69,6.45,11.25,9.37q53.31,43.76,106.59,87.52c7.49,6.17,10.47,14.11,4.93,22.86-3.84,6.08-15,4.89-23.19-1.91q-53.2-44-106.36-88c-3.3-2.71-7-4.93-11.58-8.12-4.5,5.86-8.87,11.25-12.91,16.87-15.37,21.41-30.54,43-46,64.32-8.7,12-18.31,16-25.24,10.91-7.78-5.68-8.63-17.46-.49-28.67q46.74-64.45,94.26-128.35c15.48-20.79,31.42-41.28,47.91-61.27,12.58-15.23,17.54-15.28,33.36-3.1q61.23,47.16,122.3,94.53c4.95,3.84,10.36,7.71,13.73,12.78,2.72,4.11,5.2,13.1,3.4,14.57-4.78,3.92-12,6.69-18.13,6.55-4.68-.11-9.43-5.12-13.83-8.38q-56.82-42.18-113.55-84.51C2785,409.92,2782.22,408.47,2778.74,406.3Z"/><path class="cls-1" d="M1812.37,868.28c28.49-1.63,55.36,5.5,82,14.29,14,4.61,25.38,12.35,31.45,26.37,12.57,29-3.57,54.93-35.11,53.87-22.67-.76-45.25-4.69-67.82-7.55-34.27-4.34-68.46-9.35-102.77-13.25-10.24-1.16-13.81-5.41-14.46-15.28-1.76-26.7,11.52-45.56,37.7-51.76a126.07,126.07,0,0,1,18.55-3.22C1778.69,870.36,1795.54,869.41,1812.37,868.28Z"/><path class="cls-1" d="M2379.47,361.67c-12.7-2.75-23.58-4.59-34.16-7.48-39-10.64-78.06-21.14-116.78-32.73-17.54-5.25-20.61-12-15.12-29.32,15.08-47.5,30.85-94.79,46.05-142.26,8.27-25.79,16.37-51.66,23.76-77.72,4.62-16.32,8.11-20.9,17.55-18.45,10.53,2.74,13.35,10.31,8.43,26.12-7,22.49-14.51,44.83-22,67.16-15.38,45.79-31,91.52-46.34,137.31-4.52,13.45-3.33,16.59,10.66,20.34,39.45,10.58,79.08,20.48,118.63,30.67,4.17,1.08,9.55,1.17,12.11,3.87,3.68,3.87,7,9.67,7.09,14.72C2389.4,356.62,2382.44,359.48,2379.47,361.67Z"/><path class="cls-1" d="M1711.09,273.29c.1,1.57.27,3.14.29,4.71.1,8-2.7,14-11.35,15.31-8.94,1.37-13-3.94-14.58-11.77-3.62-18.51-7.62-37-10.41-55.6-9.29-62.17-18.1-124.41-27.14-186.61-1.28-8.84,1.78-14.71,10.93-16.29,9.93-1.73,14.7,3.64,16.15,12.72q7.77,48.84,15.37,97.72,8.93,57.63,17.68,115.27c1.25,8.15,2.41,16.31,3.61,24.46Z"/><path class="cls-1" d="M1839.14,1287.76c-19.58-9.58-29.88-26-27.85-42.58,1.69-13.84,11.8-18.64,23.59-11.21,12.71,8,17.19,21.56,11.8,37.1C1844.78,1276.54,1841.92,1281.68,1839.14,1287.76Z"/><path class="cls-1" d="M1763.47,1187.44c1.36-11.08,5.84-19.21,15.58-19.62,5-.21,12,6.18,14.93,11.37a52.69,52.69,0,0,1,6.37,23.4c.16,4.6-4.06,12.37-7.76,13.38-5.27,1.43-14.29-.07-17.38-3.85C1769.61,1205.27,1767.2,1195.81,1763.47,1187.44Z"/><path class="cls-1" d="M1864.27,1201.79c-13.33-1.09-23.18-5.74-28.37-18s2.48-19.69,9.34-27.48C1864.58,1162,1866.11,1162.85,1864.27,1201.79Z"/></svg>