<svg id="Layer_1" data-name="Layer 1" xmlns="http://www.w3.org/2000/svg" viewBox="0 0 4634.78 1818.96"><defs><style>.cls-1{fill:#a62b2a;}</style></defs><path class="cls-1" d="M1273.4,565.46c28.13-41.85,37.19-89.32,39.83-138.66.88-16-4-31.11-4.89-46.75-3.83-67.76-37-122.61-78.24-173.09-23.66-28.94-51.29-54.39-81-77.52-22.66-17.69-46.17-34.24-71.17-48.08-25.49-14.1-50.52-29.31-78.42-39.25C978,34.43,957.74,23.35,935.35,16.89c-7.73-2.26-16.06-3.4-23.89-5.93A616.28,616.28,0,0,0,845.8,2.52C795-1.46,743.94-.2,701,2.67,640.17,6.8,595.76,14.21,592.09,14.86a1.52,1.52,0,0,1-.27,0c-2.1.46-4.16.92-6.23,1.41C531.32,29.5,481,51.93,432.48,78.57c-26.14,14.38-53.93,28.52-74,50-31.8,34.16-68.61,64.36-93.79,104.07-15,23.7-30.77,47.32-40.94,74C218,322,205.61,333.92,201.18,350.4c-.69,2.56-1.19,5.16-1.65,7.79h0a2.32,2.32,0,0,1-.07.46c-1,5.85-1.65,11.77-3.25,17.43C184.17,449,198,505.23,198.69,508a.25.25,0,0,1,0,.11c5.24,14.1,9.17,28.74,16.17,42.31,11,21.17,23.27,41.32,38.14,59.55,16.51,20.25,33.56,40.28,53.62,57.44,28.32,24.27,54.7,51.06,84.51,73.27,49.68,37,99.22,74.11,145.81,115,32.94,29,59.66,63.79,91.23,94,18.8,18,37.87,35.58,55.42,54.92,38.14,42.12,75.44,84.62,102.2,135.38,15.44,29.31,27,58.89,24.19,93.18-1.76,21.86-9.21,40.66-23,56.83-16,18.77-34.86,34.21-58.21,44-32.79,13.76-66.46,12.88-100.48,7.64-29.08-4.43-53.12-20.25-75.29-37.83-19.23-15.29-24.62-39.45-29.93-62.34-1.72-7.34-2.18-15.06-4.78-22.24-2.14-6-7-8.72-12.34-4.63-19.76,15-36.23,32.64-37,59.24-1.72,58.75,33,98,74.61,131.9,15.74,12.84,36.54,19.22,56.6,24.58,44.76,11.92,89.63,9.32,134.08-1.42,16.05-3.86,33.29-7.34,46.86-15.9,30.23-19.15,59.81-39.79,82.09-68.91,16.28-21.25,31.38-43.95,36.24-70,5.31-28.36,6.11-57.87-4.82-86.07-6.92-17.89-14.29-35.13-23.73-52.25-26.87-48.61-62.76-89.78-99.07-130.75-21-23.7-45.1-44.6-67.84-66.73-27-26.3-55.77-50.72-82.67-77.13-35.36-34.7-76.9-63.25-111.91-98.95-25.53-26-52-51.29-76.17-78.55-19.38-21.86-36.58-45.71-53.7-69.44a581.4,581.4,0,0,1-66.12-118.71c-16.25-39.33-19-78.55-9.6-118.68,9.25-39.59,31.73-73.76,52.67-107.78,12.5-20.33,31.84-36.61,48.73-54.15,15.14-15.71,32.56-28.4,51.87-39,22.09-12.19,42.46-27.55,64.82-39.25,39.59-20.75,83.2-30,126.54-38.95,28.25-5.84,57.18-8.17,86.07-9.28,65.74-2.49,129,9.17,190.95,30.92,28.71,10.09,57.45,20.18,84.16,34.28,42.39,22.32,80.46,50,112.49,87,33.48,38.71,54.38,81.75,66.31,131,16.47,68,7,129.29-38.34,184.06-25,30.24-56,52.86-89.39,72.7-22.94,13.64-47.59,22.82-72.51,31.76-4.39,1.57-9.55,3.9-9.28,9.52.3,6,5.08,8.83,10.7,9.67,8.94,1.33,18,1.87,26.83,3.74,28.39,6,56.6,1.34,83.47-5.65,41.28-10.71,80-28.17,115-53.74C1237.59,607.12,1257.85,588.62,1273.4,565.46Z"/><path class="cls-1" d="M4439.64,1804.14a67.47,67.47,0,0,0-14.18-9.44c-23.32-11.43-46.14-24.39-72-29-15.21-2.68-28.4-10.71-43.31-13.69a150.24,150.24,0,0,1-49.57-19.72c-18.72-11.58-36.65-24-57.17-32.75a35.94,35.94,0,0,0-4.7-1.46h-.08l-.08,0-10-5.93-6.12-3.59c-1.72-11.62-9.28-19.8-22.24-20.22-4.13-.11-8.26-.23-12.38-.27l-16.9-10L4083,1629.78c-14.21-9.41-29.08-17.7-44-26h0c-27.63-15.4-55.34-30.85-79.11-53.09-23.16-21.63-51.94-37.84-78.93-55.27-31-20.1-60.38-42.5-91-63.06-60.84-40.78-118.1-86.68-179.56-126.62-3.21-2.1-5-4.24-4.73-7.91.34-4.28,3.47-5.43,7-5.58,21.75-1,40.55-12,60.69-18.23,37-11.47,69.83-32,99.18-56.72,29.55-24.92,52.1-55.73,65.51-92.76,9.41-26,11.85-52.86,10.13-79.85a226.2,226.2,0,0,0-12.11-59.5c-7-20.45-17.36-37.77-30.58-53.7-29.51-35.55-67.88-57.75-111.14-73.35-56.53-20.37-114.55-31.68-174.4-32.33-88.75-1-177.54-.5-266.32-.65-7.15,0-15.59-1.45-16.59,8.6-.92,8.94,2,16.39,11.85,20.22,17.28,6.72,35.05,12,53.28,14.25,11.27,1.42,14.06,5.85,14.06,16.28q-.29,266.82-.19,533.67c0,20.64-11.16,32.79-31.91,36.88-12.08,2.37-23.93,5.81-36,8.07-6.92,1.3-13.19,5.58-12.69,11.2.68,7.56,9.21,4.43,14.25,4.47q85.08.23,170.2-.19c8.18,0,21.44,4.05,22.93-4.74,2-11.16-12.69-10.28-20.41-13.11-22.28-8.14-27.75-14.6-27.79-38.53-.15-48.15,0-96.35,0-144.51,0-130.67.16-261.35-.26-392,0-12.54,3.63-16.78,16.24-16.28,46.51,1.79,93.22-4,139.58,6,48.77,10.51,97.54,18.65,138.66,51.14,22.52,17.81,39.56,38.64,47.32,65,12,41,10.28,82.06-5.2,123-9.71,25.65-21.63,47.74-41.08,68.11-32.42,33.94-70.75,56.38-113.71,72.47-36.92,13.83-75,23.62-114.28,27.55-9.74,1-8.44,4.74-4.16,10.78,2,2.91,4.74,4.44,7.53,6.31q51.2,34.68,102.2,69.56c32.06,21.9,63.4,45,96.35,65.47,41.43,25.76,80.3,55.27,122.46,80,27.29,16,52.66,35.35,79.34,52.51,36.54,23.47,73.42,46.4,110.27,69.41,28.62,17.92,56.37,37.38,87.29,51.48l.12.08,1.11.53,16.43,8.22c0,.84,0,1.68,0,2.52.46,30.31.8,60.58.8,90.85,0,10.93,5.47,18.62,14.83,19.72,25.07,2.87,50.37,1.72,75.6.39,1.87-.12,3.59-2.87,5.39-4.4.11-5,.19-10,.3-14.94-3.17-7.72-9-9.56-17-9.1-11.42.69-22.89.08-34.36.15-6.91.08-12.42-1.33-12.65-9.82-.23-9.17,5.47-11.08,13.07-11,11,.12,21.94.08,32.95,0,12.19-.07,19.45-3.55,22.63-12,.15-.42.3-.84.42-1.3l16.51,8.26.23.11,0,0a750.77,750.77,0,0,0,73.26,26.49c29.93,9.21,60.32,16.74,90.89,23.16,23.05,4.85,46.67,6.92,70,10.2a9,9,0,0,0,8.72-3.74C4445.06,1808.84,4442.31,1806.39,4439.64,1804.14ZM4145,1730.56a16.32,16.32,0,0,1-1.68.73c-.19.15-.34.34-.53.46-6.84,6-15.48,3.86-21.83,1.41-7.33-2.86-8.6-8.67-5.46-14.67a25,25,0,0,1,2-3.18l22.47,11.24,6.5,3.25C4146,1730.07,4145.53,1730.33,4145,1730.56Z"/><path class="cls-1" d="M2599.74,1049.81c-44.28-1.86-83.54,15.55-122.56,33.36-15.38,7-16.8,6.21-16.93-10.25-.33-43.34,3.69-86.54,4.62-129.78,3.07-142-.12-284.07,5.27-426.06,2-51.42,1.83-102.91,3.05-154.36,1-40.47-2-81,2.6-121.41,1.35-11.93-4.75-14.55-15.21-14.48-44.85.29-89.71.13-134.57.14-44.37,0-88.75-.05-133.13.1-4.45,0-11.11-1.67-12.28,4.12-1.11,5.47,4.32,8.89,9,11.49,7.79,4.34,16.35,4.73,25,5,24.72.89,49.59-2.11,74.14,3,31.89,6.58,55.79,22.67,68.67,54,8,19.37,6.93,39.18,6.33,59-1.6,52.78-4.2,105.53-5.95,158.3-1.91,57.59-4,115.18-4.77,172.79-1,79.06-2.69,158.08-5.64,237.12-3.33,89.48-1.72,179.07-5.54,268.63-3.77,88.07-2.05,176.38-2.59,264.59-.09,14.81,7.7,23.33,20.72,23.78,16.24.57,30-9.44,30.9-22.74,1.94-27.52,3.11-55.11,5.84-82.55,2.08-20.93,2.32-41.83,2.41-62.78,0-6.11,2.84-10,8-12.36,5.3-2.39,5.79,3.28,8.37,5.56,24.4,21.56,50.91,39.45,82,50.39,17.12,6,34.55,9.29,52.22,12.79,20.17,4,40.33,7.33,60.43,4.46,25.22-3.6,50.4-8.39,74.33-18.09,32.25-13.08,60.94-29.7,84.5-57.11,39.08-45.47,30.27-117.25,8.4-155.92C2739.13,1083,2676.1,1053,2599.74,1049.81Zm-145-628.15c-.84,120.54-5.11,241-7.73,361.51-2.26,103.65-5.11,207.31-7.52,311-.12,5.34-.42,10.7-3.88,14.94-4.74,5.8-9.66,14.57-17.56,12.2-5.66-1.7-2.73-11-2.83-16.91-.31-18.11-.11-36.23-.11-54.34,1.82-80,6-159.89,7.3-239.9,1.17-72.85,2.09-145.78,5.47-218.55,3.85-82.85,3.15-165.74,6.18-248.53,1.05-28.89,3.62-57.86,4.14-86.86.12-7.16,2.85-12.25,10.7-12.31s10.74,4.82,10.54,12.17q-2.19,79.23-4.31,158.48C2455.11,416.9,2454.79,419.28,2454.78,421.66Zm263.75,784.26c-1.51,54.23-25.07,84.27-56.59,110.74-22.07,18.54-47.6,26.84-75.07,30.73-17.88,2.53-35.31-3.24-51.4-9.34-50.37-19.07-82.17-63.6-78.07-117.78,4-53.17,27.55-96,79.93-116.21,26.08-10.07,53.33-12.36,82.21-6.81,33.08,6.37,57.87,23.78,76.76,48.84C2711.39,1166.1,2721.14,1190,2718.53,1205.92Z"/><path class="cls-1" d="M2250.17,802.71c-7.64-12.13-28.39-16.23-40.82-8.13-21.3,13.9-39.1,31.64-55.27,51.14-15.4,18.56-30.49,37.39-46.51,55.4-23.93,26.94-45,56.14-68.79,83.25-20.49,23.39-38.49,49-57,74.06-6.49,8.8-12,8.32-18,.67-7.3-9.28-14-19-21.22-28.38-29.29-38.4-59.94-75.84-87.53-115.42-18.73-26.86-42.69-49.32-60.43-76.81a162.28,162.28,0,0,0-19.4-24.6c-19.08-19.79-39.85-36.91-68.08-37-44.41,2.93-88.31,37.85-74,89.2,1.27,4.56,1.53,9.41,3,13.91,6.93,22,12.28,35.24,36,34.9,10.86-.16,15.07-3.21,11-14.43-5.09-13.87-9.61-28.27-8.66-43.07,1.89-29.31,14.18-39.51,43.7-35.75,31.53,4,42.43,30.27,53.4,53.55,5.37,11.41,8.47,24.73,14,36.76,13.89,30.06,26.81,60.59,44.83,88.55,12.5,19.4,26.26,37.18,43.79,53,17.27,15.61,33.88,31,54.78,41.61,8.31,4.21,6.26,12.84,3.29,19.1-15.2,32-29.72,64.37-47.14,95.11-14.91,26.29-30,52.52-47.37,77.59-27.18,39.16-50,81.34-75.43,121.79-31.44,50-63,99.88-98.9,146.69-32.72,42.72-66.14,85.15-104.3,123.38-6.59,6.6-14.87,11.48-21.95,17.63-25.1,21.79-52.49,40.87-80.55,58-26.49,16.2-49.39,36.41-74.11,54.52-2.7,2-5.69,5-3.18,8.32,2.78,3.68,6.11.06,8.85-1.23,25.69-12.09,51.84-23.34,76.81-36.77,38.19-20.54,76.87-40.5,109.9-69.36,19.24-16.82,41.54-30,60.59-46.74,28.34-24.87,57.58-48.79,82.44-77.83,27.44-32,52.85-65.55,77.61-99.47,26.43-36.18,49.09-75.08,74.68-111.9,22.61-32.52,39.7-68.49,64-99.89,17.48-22.6,26.13-50.22,41.91-73.85a439.39,439.39,0,0,0,25.25-42.77c9.19-17.87,17.23-21,33.83-9.69,15.39,10.5,32.23,18.17,48.66,26.65,2.83,1.46,6.46,5.91,10,1.55,2.54-3.13,1.37-7.38.43-11.06-1.13-4.36-4.8-6.92-7.71-10-14.91-16-31.43-30.35-48.33-44.17-6.37-5.2-6.78-9.31-4-17,4.17-11.48,15-17.07,20.43-27,37.31-68.42,79.69-133.59,129.46-193.51,16.9-20.36,33.53-42.84,61.16-51.8C2254.46,818.49,2255,810.31,2250.17,802.71Z"/><path class="cls-1" d="M1603.64,1351.9c11.36-.05,17.14-4,23.09-14.34q19.08-33.22,36.85-67.11c10.54-20.16,23.13-38.89,36.39-57.32,4.78-6.64,6.88-15.93-4.6-17.48-15.87-2.14-33.24.09-42.89,13.41-12.6,17.39-29,30.23-45.29,42.64-23.63,18-49.22,33.64-78.63,42-33.88,9.64-68.38,3.08-91.88,5.43-36.35,0-62.12-.27-87.88.13-11.13.17-15.62-4.36-15-15.37,1.27-20.9,2.41-41.82,3-62.75,1.58-53.82,1.82-107.7,4.45-161.47,3.77-77,7.76-154,14.52-230.69,3.3-37.38,3.61-75,9.65-112.28,4.31-26.66,6.88-53.64,12.17-80.22.84-4.21,2.89-10.34-3.3-12.41-6.64-2.23-10.69,1.68-12.87,7.94a17.91,17.91,0,0,1-5.32,8c-14.84,13-29.35,26.47-43.65,40.1-25.77,24.57-54.07,46-82.44,67.39-2.87,2.17-8.23,2.33-7,7.41,1.29,5.45,6.56,4.69,10.71,4.72,14.31.08,28.63-.09,42.94-.12,17.57,0,20,2.38,19.77,19.69-.59,40.44-3.42,80.89-4.16,121.21q-2.79,152.16-7.33,304.28c-.76,26.2-.23,52.44-.73,78.66-.33,17.11-5.8,22.47-22.49,22.18-17.61-.31-35.27,1.49-52.86-1.25-5.68-.88-12.39-.78-14.47,6s4,9.71,8.53,13.22c15.6,12,35.33,10.12,52.78,15.9,10.46,3.46,24.54-4.08,32,7.15,6.78,10.23,2.71,23.31,2.4,34.93-.48,18.18-.5,34.66,21.42,40.79,3.35.94,4.3,8.41,10,4.46,4.14-2.84,3.83-7.45,3.6-11.71-1-18.06.78-36.16-2.18-54.21-2.19-13.34,5.82-20.64,19.34-19.57,35.61,2.81,71.3,3.81,107,5C1500.78,1348,1552.12,1352.12,1603.64,1351.9Z"/><path class="cls-1" d="M4034.16,1417.54c61.24,54.55,131.74,75.26,212,45.43,32-11.89,58.24-31.44,77.13-60,25.86-39.11,30.41-83.18,27.7-128.37-1.57-26-5.46-53.07-16.23-76-23.26-49.61-67.38-76.4-119.57-86.42-68.59-13.18-129,5.83-178.95,55.76-34.75,34.7-48.6,77-47.68,128.58C3986,1352.34,4007.9,1394.16,4034.16,1417.54Zm77.66-224.41a134.11,134.11,0,0,1,97.12-8.23c27.27,7.86,52.34,18.24,70.61,41.68,21.95,28.16,23.82,60,19.4,93.15-6.67,49.94-38.69,80-82.83,97.23-30.64,11.93-62.89,11.48-93.75-3.08-16.07-7.58-35.28-12.09-46.61-25.16-21.12-24.35-32.62-53.85-29.66-87.79C4042.73,1250.09,4068,1214.33,4111.82,1193.13Z"/><path class="cls-1" d="M3138.15,925c-1.32-22,.71-44.06-6.56-66.08-10.75-32.53-27.15-62.11-55.27-80.08-45.13-28.84-94.48-44.63-150-31.36-38.86,9.29-74.54,24.48-101.71,53.16-30.76,32.46-51.79,70.69-49.26,118.09,1.08,20.37.64,40.55,5.82,60.8,8.93,34.91,29.51,61.27,54.94,85.3,14.66,13.85,32.44,20.67,50.75,27,23.8,8.19,48,16.51,73.11,17.26,36.92,1.1,70.76-12.33,103-29.34a122.9,122.9,0,0,0,40.08-33.32C3130.58,1010.7,3142.3,970.12,3138.15,925Zm-61.49,70.49c-5.22,10.33-15,13.39-21.87,20.66-33,34.7-74.25,46.75-121.71,40.09-21.6-3-42.11-11.76-55.69-25.94-24.34-25.41-46.1-54.59-41.08-94,.11-.94,0-1.91,0-6.37-2.49-15.95,2.42-34.41,9.5-52,17.21-42.72,52.89-63.33,95.53-69.1,48.75-6.59,93.25,6.15,128.09,43.94,13.13,14.24,19.71,31.65,22.08,49.87C3095.71,934.7,3091.68,965.77,3076.66,995.48Z"/><path class="cls-1" d="M665,1526.79c-26.92,1.92-51.8,6.9-74.08,27.89-28,26.36-10.35,66.73,13.63,79.83,40.57,22.16,82.27,21.62,122.42-.13,25.08-13.59,45.62-47.48,16.33-78.11C721.27,1533.27,694.61,1528.72,665,1526.79Z"/><path class="cls-1" d="M4165.41,1028.79c25.67-3.27,52.44-3.49,74.72-23.41,29-26,20.5-62.28-3-78.92a111,111,0,0,0-31.54-15.71c-44.32-13.92-85.31-5.07-114.51,23.8a43.82,43.82,0,0,0-5.84,54.88C4104,1017.79,4132.33,1026.88,4165.41,1028.79Z"/><path class="cls-1" d="M2507.38,1713.5h-.07c0-28.58-.23-57.17.12-85.75.14-11.19-4.74-15.4-15.57-15s-22.16-1.3-20.92,15.28c.42,5.69.12,11.43,0,17.15-.25,17.18-3.14,20.1-19.81,20.23-8.09.07-16.22-.29-24.27.38-17.06,1.41-21.83,6.44-21.94,23.35q-.33,47.88,0,95.76c.11,18.5,9.75,28.21,28.2,28.5,19.54.3,39.1-.22,58.64.32,11.61.32,16.1-4,15.82-15.91C2506.93,1769.73,2507.38,1741.61,2507.38,1713.5Zm-51.16,69.77c-11.23.46-18.6-2.28-17.95-15.52.49-10,.09-19.94.09-29.91h-.09c0-9,.4-18.07-.09-27.06-.68-12.43,3.66-18.42,17.17-17.79,16.91.78,19.87,2.59,20,18.26.17,18.51-.45,37,.14,55.55C2476,1781.13,2467.28,1782.82,2456.22,1783.27Z"/><path class="cls-1" d="M3686,1666.05c-8.54.35-19-3.06-18.81,12.12.4,28.09-.55,56.21,0,84.3.23,10.91-1.82,17.33-14.23,17.65s-16.93-4.77-16.7-17c.54-27.64-.48-55.31.47-82.92.47-13.62-6.51-14.91-16.8-14.22-9.2.62-19.46-2.28-19.08,13.6.84,34.78.16,69.58.3,104.37.07,18.19,11.06,29.27,29.17,29.5,18.6.24,37.22-.36,55.8.3,12.7.45,16.78-5,16.37-17.09-.65-19-.17-38.12-.17-57.18,0-20-.55-40,.19-60C3703,1666.45,3695.31,1665.67,3686,1666.05Z"/><path class="cls-1" d="M2985.94,1691c-.66-15.43-9.82-24.34-25.73-24.77-21-.57-42,0-63-.3-9.82-.11-13.59,4.36-13.42,14,.34,19.55.1,39.1.11,58.65s.62,39.12-.21,58.63c-.59,13.93,5.88,16.73,18.22,16.68s18.86-2.84,18.55-16.65c-.61-27.16,0-54.35-.33-81.52-.11-9.83,1.43-16.32,13.77-16.55,12.56-.24,16,5.43,15.21,16.49a127.47,127.47,0,0,0,0,17.15c.88,13.79,11.45,11.34,20.24,11.7s16.69-.07,16.6-12C2985.85,1718.67,2986.54,1704.83,2985.94,1691Z"/><path class="cls-1" d="M3920.23,1723.44c-9.51-.44-19.07.22-28.59-.07-8.56-.27-15-3.43-14.31-13.63.65-9.26,6-13.55,15-13.55,10.48,0,21-.09,31.45.24,11.33.36,11.37-6.87,11.61-15.19.25-8.72-1.93-13.46-11.78-13.25-19.54.41-39.09.3-58.63.07-14.1-.17-19.5,8.52-20.36,20.51-.92,12.8-.67,25.71-.32,38.56.44,16.08,9,24.13,25.1,24.54,10.47.27,20.95.26,31.4.91,9.13.57,10.16,7.29,9.48,14.48-.6,6.3.48,14.46-10.4,11.93l-8.8.12c-9.65,3.82-19.77,2.09-29.55,1.61-13.65-.67-13,8.61-13,17,0,7.79,1,14.81,12.78,14,17.56-1.21,35.26-.18,52.88-.54,17.9-.36,27-9.7,27.31-27.5.2-12.86.34-25.73,0-38.58C3941.21,1731.5,3933.9,1724.07,3920.23,1723.44Z"/><path class="cls-1" d="M2248.66,1665.05c-9.07.7-22.08-4.34-22.2,12-.3,40.92,0,81.85-.13,122.77,0,18.52,13.67,12.67,23.55,13.57,11.36,1,13.31-5.83,13.15-15.25-.31-19.5-.09-39-.09-58.52h.09c0-20-.16-40,.07-60C2263.23,1669.61,2258.91,1664.26,2248.66,1665.05Z"/><path class="cls-1" d="M2243.76,1613c-9.07,2.4-16.07,8.31-16.63,18.81-.46,8.69,9.72,19.23,18,17.92,9.85-1.55,15.9-7.63,16.54-16.8C2261.48,1622.6,2251.18,1611,2243.76,1613Z"/><path class="cls-1" d="M3192.18,1668.42c-40.91.93-38.88,4.21-38.27-36.8.17-11.31-4.1-14.85-15.11-14.85-12,0-12.72,6.71-12.65,15.71.22,26.21.08,52.42.1,78.63q0,41.46,0,82.92c0,9.66,2.07,16.49,14.13,16.74,12.78.27,13.48-7.14,13.4-16.64-.23-26.69.09-53.38-.24-80.06-.11-9.24,2.5-16.1,12.11-18.22,19.56-4.33,27.94,2.54,28,22.69.06,25.73,0,51.47,0,77.2,0,9.68,3.79,14.78,14.51,15,11.27.19,13.59-5.29,13.49-15-.3-32.4-1-64.84.2-97.2C3222.58,1678.32,3212.56,1668,3192.18,1668.42Z"/><path class="cls-1" d="M2028.2,1669.8c9.62-.19,21.73-1.56,22.53,11.25,1.05,16.76,12.05,13.13,21.26,12.9,12.37-.31,8.34-10.09,8.6-17.14a112.38,112.38,0,0,0,.19-12.84c-1.27-16.78-7.47-23-24.37-23.52-15.25-.45-30.53-.37-45.78,0-19.15.46-25.93,6.72-26.62,25.92-.69,19.51-.15,39.06-.15,58.6h.5c0,20.48-.71,41,.21,61.44.8,17.49,8.89,24.46,26.44,24.84q22.15.48,44.35,0c17.91-.39,24.5-7.38,24.84-25.61.1-5.24.3-10.5,0-15.72-.42-6.5,2.94-15.54-9.17-15.14-9.65.33-20.85-2.91-19.94,13.93.73,13.57-10.31,12-19.43,12.38-9.43.39-16.09-2-16.08-13,0-28.11-.07-56.23,0-84.34C2015.6,1675.52,2019,1670,2028.2,1669.8Z"/><path class="cls-1" d="M3463.3,1691.66c-.33-15.16-7.62-22.74-22.89-23.33-14.76-.58-29.56-.44-44.34-.18-20.7.35-27.6,7-27.83,27.62-.32,30-.25,60,0,90.06.11,16.15,8.12,24.65,24.4,25.31,15.23.63,30.52.56,45.76,0,15.78-.53,24.53-9.47,24.92-25.19s.09-31.45.1-47.17S3463.64,1707.37,3463.3,1691.66Zm-32.76,46.56h-.1c0,9-.07,18.09,0,27.14.09,9.42-4.08,13.52-13.89,13.66-9.42.14-14.83-3-14.91-12.63-.16-19,0-38.1.12-57.14.07-8.9,4.68-12.32,13.67-12.21s14.92,2.69,15.06,12.61C3430.65,1719.17,3430.54,1728.69,3430.54,1738.22Z"/><path class="cls-1" d="M2723,1668.23c-21-.39-41.94.18-62.9-.29-9.74-.21-13.81,3.13-13.51,13.21.53,18.08.15,36.18.14,54.28s-.19,36.19,0,54.28c.19,14.43,6.36,21.1,20.71,21.43,20.48.46,41-.21,61.46.28,11,.27,12.6-6.25,12.5-14.63s-1.82-15.16-12.62-14.85c-12.86.37-25.73.17-38.6.15-6.24,0-11.68-1.59-12.09-9.07-.43-8,4.46-11,11.71-11,12.38-.07,24.78.2,37.16-.07,14.1-.31,19.87-5.84,20.24-20.07.41-16.17.2-32.37,0-48.56C2747,1676.5,2739.56,1668.54,2723,1668.23Zm-25.7,65.72c-14.09,2.09-19.06-3.65-19.08-17.38,0-13.19,3.8-19.16,17.77-18.58,18,.75,18.28,1.1,19.2,19.35C2715.87,1731.51,2710.14,1736.5,2697.27,1734Z"/></svg>