<svg id="Layer_1" data-name="Layer 1" xmlns="http://www.w3.org/2000/svg" viewBox="0 0 1623.47 1784.39"><defs><style>.cls-1{fill:#a62b2a;}</style></defs><path class="cls-1" d="M725.62,250.11c-5.68-6.08-13.44-15.92-13.44-15.92a200.26,200.26,0,0,1,1.48,20.54v78.63H693.1v-144h2.95l78.62,84.49c5.44,5.87,13.21,15.93,13.21,15.93s-1.48-12.58-1.48-20.55v-78.4H807v144h-2.74Z"/><path class="cls-1" d="M831,289.34c0-26.24,21-45.94,47.59-45.94,26.84,0,47.4,19.7,47.4,45.94s-20.56,45.88-47.4,45.88c-26.62,0-47.59-19.7-47.59-45.88m73.18,0c0-16.18-9.86-27.48-25.59-27.48s-25.78,11.3-25.78,27.48S862.91,317,878.63,317s25.59-11.52,25.59-27.65"/><path class="cls-1" d="M940.88,320.14a14.37,14.37,0,0,1,28.74,0,14.37,14.37,0,1,1-28.74,0"/><path class="cls-1" d="M600.1,918.28a265.32,265.32,0,0,0,117-220.54c0-147-119.57-266.53-266.52-266.53H445v90.71h5.67c96.94,0,175.81,78.86,175.81,175.82A173.79,173.79,0,0,1,591,803.48a177.43,177.43,0,0,1-88.6,62.27A51.75,51.75,0,0,1,458,822.88l-.79-4.76H445V1021h12.29l.79-4.76a51.44,51.44,0,0,1,50.48-43.34,175.92,175.92,0,0,1,117.92,166c0,97-78.87,175.83-175.81,175.83H445v90.71h5.67c147,0,266.52-119.57,266.52-266.54,0-88.88-43.57-170.68-117-220.55"/><path class="cls-1" d="M1149.81,540.19c-211.3,0-383.21,171.92-383.21,383.23s171.91,383.24,383.21,383.24c10,0,20.13-.42,30.22-1.21l-161.45,161.44a51.69,51.69,0,0,1-66.34,5.09l-3.93-2.8-8.69,8.68,132.22,132.21,8.68-8.71-2.81-3.88a51.52,51.52,0,0,1,5.45-66.77,6.21,6.21,0,0,0,.73-.86l318.27-318.27A383.28,383.28,0,0,0,1533,923.42c0-211.31-171.91-383.23-383.23-383.23m0,90.69c161.32,0,292.55,131.22,292.55,292.53a290.37,290.37,0,0,1-82.54,203.44l-19.91,18.71a292.25,292.25,0,0,1-190.1,70.38c-161.29,0-292.51-131.22-292.51-292.53s131.22-292.53,292.51-292.53"/><path class="cls-1" d="M1077.73,1007.6c-5.26-15,7.38-29.28,17.19-30.58,15.41-2,26.54,12.41,29.45,15.55a57.5,57.5,0,0,0,1-6s9.87-3.15,11.64-4.4a63.06,63.06,0,0,0-2.27,12.54c14.67-15.9,25.27-15.24,31.47-14.31,13.82,2.14,35.35,22.88,42.39,25.21-2.52,2.9-5.28,5.77-5.67,6.9-2.47-1.51-17.14-12.91-18.66-14.43-4.75,17.44,11,27.33,16,29.46,1.5,4.53,1.89,5.77,2.75,7s3.25,6.53-.35,3a60.94,60.94,0,0,0-8.94-6.9c-2.62-1.88-20.17-10.15-16.39-36.85-27-17.69-38.63,10.27-39.52,12.89s-.49,4,.88,4.42,3.77.11,1.51,2.62a18.39,18.39,0,0,0-3.51,4.89c-.38.88-1,2.12-2.39,0s-3.89-5.26-10.14-6.14c-6.4-29.32-32.23-32.72-37.5-22.19-2.54,5.06-2.26,6.78-3.88,9.28s-3.13,4-5.14,8"/><path class="cls-1" d="M1145.3,1008.57c-2-12.42,22.22-20.76,25.32-.52-15.11-9.77-22-1.36-23.06-.43a3.68,3.68,0,0,1-2.26,1"/><path class="cls-1" d="M1235.81,1014.54c-8.79.76-23.2,12.41-23.41,25.86-17.1-11.58-8.15-30.73,5.27-38.14a5.34,5.34,0,0,0,.23,3.55c6.36-6.21,17.19-8.4,19.91-9-1.16,2.39-1.48,3.07-1.48,4.12,1.88,0,9.93,1.81,19.05.55-1.7,1.87-7.16,11.63-6.3,19.33,3.19-.49,9.59-2.55,11.83-4.13a5.72,5.72,0,0,1,.21,4.21c5-1.49,10.31.59,12.89,1.52a67.13,67.13,0,0,0,13.55,3.48c-3.67,2.83-13.2,13.92-15.47,17.94,3.52,2.37,14.5,10.36,16,13.27-2.84.27-3.59.66-4.9.66,2.26,2.43,13.83,16.18,15.88,17.6-2.82.93-4.6,1.38-4.6,2.13s-.21,11.37,12.32,23.53a76,76,0,0,0-23.51,0c.73.93,1.22,2.16,2.62,3-3.4,1.58-26,3.38-30.17.59.84,2.15,1.68,4.19,2.06,5.17-2.24-.1-9.13-1.52-11.12-2.67a84.42,84.42,0,0,0,1.44,12.9c-2.18-1.15-11.84-9-14.57-9.9a26.85,26.85,0,0,1-.48,3.77c-1.8-.84-18-8.93-19.1-11.57-1.1,2.07-6.78,13.36-7.15,16.36-1.79-3.75-5.53-12.6-7.43-14.17-1.12,1-2.06,2.14-2.92,1.67s-10.79-19.58-5.13-37.42c1.84-1.42,14.68-8.94,12.68-21.9,2.43.76,5.2,2.81,2.8,10.44s-6.21,18.61-3.09,27.06c.29-3.84,2.09-18.62,12.62-29.24,1.49,10.06,12.3,31.58,22.66,41.08-.39-1.67-17.6-27.44-15.08-44.56,27.27-11.56,58,30.37,63,36.39-.21-2.06-14.6-33.3-54.57-45.89a41,41,0,0,1,10.63-3.38c2.82-.37,18.91-3.66,22-7.72a165.74,165.74,0,0,1-22.38,4.13c-5.08.49-22.86,4.44-25,6.51.19-4.12,2-17.28,18.13-27.16"/><path class="cls-1" d="M1069.71,1023.05c6.28-12.09,1.75-40.52-28-41.13a27.8,27.8,0,0,1,2.56,7c-1.86-.45-16.07-5.06-22.48-1.77.69,1.67.6,2.07,1.25,3-3.57.57-17.58,4.63-19.76,5.84,1.51,1.4,14.66,8.47,17.51,14.94-3.28.77-18.52,3.57-21,6.79,1.31,1.58,2.81,2.6,3.67,4.11-4.23,1.9-16,11.11-17.77,15.14,1.88,1,4.5,1.91,3.47,3.8-2.82,3.36-10.25,18.87-16.55,22.44,6.77,1.51,13.15,3.5,15.51,4.24s8.73,2.53,10,2.53c-1,2.06-2.07,4.62-2.91,5.1,10.26,4.78,31.49.06,33.08-.59-2.07,3.37-7.41,9.85-10.77,12.31a74.21,74.21,0,0,0,8.89,1.11c1.8,3.32,1,13.58-.93,17.14,2.15.18,13.44-5.46,14.21-6.78a14.75,14.75,0,0,1,1.48,5.62c6.39-2.62,19.47-16.14,19.94-18.32a61.2,61.2,0,0,0,6,1.72c1.41.26,8,5.16,7.54,11.07,2-1.78,7.31-10.9,7.79-13.61,2,1.11,5.37,3.36,5.92,3.56s2.62.48,1.9-1.26-1.26-8.08.28-10.78c-6.25-1.34-13.56-10-15.44-13.93-.64,2.9-.45,14-.36,16.08-1.31-1.88-7.41-13.72-8.73-16.17-2.47-.38-4.78-.47-6-1.13-2,3-10.9,19.4-18.43,21.93,4.22-4.41,14.42-23.13,13.71-25.2s-9.48-9.68,2.19-23.33c.28-.66.78-1-2.54-.46s-14.75,1.4-50.67,14c13-9.9,46-20,57.26-20.78,3.36,0,1.19-1,1.11-1.9-4.39-16.83-25.4-22.66-29.71-25.67,3.09-.17,22,4.53,36.79,23.29"/><path class="cls-1" d="M1139.68,1115.57c16.44,5.32,28.73-6.63,30.49-19.24,4.35.71,9.66-2,11.33-3.76,8.64,3.85,9.29,32.83-15.92,26.64,4.51,35-31,29.51-33,7.85,1.88-1.66,5.17-4.12,7.09-11.49"/><path class="cls-1" d="M1137.16,1084.42c8,4.36,31.88-2.65,28.62-25.89,5.92,7.43,15.79,10.54,19.09,10.45,1.78,2.42,2.54,24.84-14.73,25-.21-4.68-4.36-7-4.36-7,4.61,28.86-25.88,31.4-31.41,19.73.74,4.24.94,6.1,3,7.33-3.76,19.93-40.82,20.33-29.69-12.22,3.67.68,21.1,9.25,29.47-17.36"/><path class="cls-1" d="M1194.46,1063.15c-8.73,6.25-25.48,2.76-30.78-15.75,11.33-2.28,16-14.62,15.61-17,23.22,2.18,25.21,25.6,15.17,32.76"/><path class="cls-1" d="M1116.84,1011.63c-5.74,2.51-14.77,6.39-17.3,19.3-4.62-.38-9-.75-11-2.27a30.15,30.15,0,0,0,1.12,4.51c-2.74,1.39-17.31,6.79-15.05,25.34-16.28,9.52-37-22.7,7.53-32.72-13.8-23.19,22.58-41.25,34.72-14.16"/><path class="cls-1" d="M1097.92,1032.85c.17,5.57-1.82,14.05,8.72,26.9-7.66,3.9-10.29,12.74-11,13.69-14.3-.27-30.12-32.94,2.25-40.59"/><path class="cls-1" d="M1122.77,1015.26c23,1.47,17.9,47.28-5.8,44.14-23.21-3.07-18.06-45.63,5.8-44.14"/><path class="cls-1" d="M1125.45,1062.86c15.61,21.34,1.24,40-11.57,37.16-15.89-2.93-23.06-26.72-4.25-38.76,6.63,4.26,15.82,1.6,15.82,1.6"/><path class="cls-1" d="M1137.9,1081.33c-.49-4.39-.81-12.61-8.82-20.07,10.19-8.21,12.21-15.92,13.42-22.35,1.53,2.13,6.72,7.92,18.14,8.67,8.46,18.42-4.22,37.41-22.74,33.75"/><path class="cls-1" d="M1137.56,1021.57c12.28-24.08,39.11-11.28,39.62,3.14.35,9.89-13.75,35.1-35.48,9.22-.69-5.67-4.14-12.36-4.14-12.36"/><path class="cls-1" d="M1352.69,876.13c-1.08-6.45-4.8-15.36-10.9-23.32-7.31-9.53-15.64-13.61-18.52-19-22.5-38,18.32-35.64,14.49-14.12-.23,1.07-.89,3-2.46,3s-3.33-1.76-.14-3c-2.16-2.71-4.89,1.37-2.66,2.93,10.51,7.47,10.34-20.87-5.48-21.37-9.83-.33-22.67,10.18-3.67,35.77-31.94-3.32-30.23,33.53-10,33.56,15.25,0,17.29-19.46,7.14-21.63-13.19-2.81-13.74,14.45-3.37,11.19,3.29-1,1.51-3.27,1.3-3-7.53,6-8.83-7.44-.08-6.22,11.42,1.6,4.74,18.79-5.61,17.11-20.68-3.37-7.65-37.51,11.9-28.21,43.43,31.9,20.21,81.52,18,86,1.43-4.26-1.58-17.6-2.82-21.27,7.34-24.83-21.21-32.55-22.25-21.35-.19,1.72.46,2.17,1.2,1.87,4.6-10.53,24.26.44,19.94,16.93-8.27-16.36-24.27-11.37-25.93-3.09-1.86,9,11.92,23.13,25.93,8.37,9.42,25.84-15.89,49.17-27.63,49.26,1-20.3-15.75-28.45-23.87-23-9.63,6.37-11,26,16.14,30.28-11,29.41-41.56,39.22-44.94,39.84,0,0-3.94,6.41-5.24,10,47.74-14.94,55.9-46.25,57.25-49.74,8.45-.75,24.86-12,35.81-34.12,11.84-24.35,7.56-47.12,6.48-53.6m-36.09,21c2.67-7.06,17.57-5.78,20.71,5.78-6.48,13-25.62,7.26-20.71-5.78m-11.29,58.48c-15.89,1.31-25.48-13.85-16.46-20.43,6.42-4.66,18.81,4.8,16.46,20.43"/><path class="cls-1" d="M989.68,953.1c24-3.25,30.59-16.2,26.12-24-5.29-9.17-25.93-12.19-33.93,15.11-28.65-14.54-28.62-38.68-18.79-50.44,4.65,18.48,20.41,16.66,24.13,7.42,3.14-7.76-4.86-20.93-21.19-13.59,4.85-23.85,25.06-15.21,23.65-7.68-.17.93-.76,1.5.35,1.5a4.47,4.47,0,0,0,1.31-2.71c.9-9.48-25-18.62-28.3,11.49-5.11,4.82-7.67,12.31-9.27,16-7.44-37.14,9.49-66.85,30-81.69,2-1,11.91-3.74,15.92,5.06a12,12,0,0,1,.89,2.8,11.28,11.28,0,0,1-1.07,6.88,10.41,10.41,0,0,1-4,4.45,4.07,4.07,0,0,1-4.31.2,4.47,4.47,0,0,1-1.51-2,3.29,3.29,0,0,1-.31-1.52.87.87,0,0,1,.7-.93c.56,0,1.36.5,1.33,1.06-.09.83,0,1,1,.2,2.06-3.55-2.9-4.66-4.29-2.21a4.81,4.81,0,0,0,3.5,7.44c12.24,2.11,19.35-29.3-7.35-23.78,6.94-7.69,9.9-28-4-29.82-15.28-2.22-27.18,20.1-11.6,21.92,8.62,1,7.67-13.29.76-7.49-.61.91.08.86.7.66,4.43-2.91,4,6.43-1.8,5.08-14.27-3.27,5.39-24.62,16.08-16.3,4.16,3.25,8.09,18.78-7.66,31.48-34.77,28-45.37,96.74,4.3,123.27,1.61,17.9,24.67,32.33,26.93,34.1a49.42,49.42,0,0,0,9.46-3.18C1000,973.05,990.92,958,989.68,953.1m-22.87-62.23c5.21-6.84,21.83-1.15,18.08,9.23-3.88,10.85-19.07,3.09-18.08-9.23m45.68,38.43c4.46,5.27-2.86,21.82-23.61,16.81-1-19.16,17.46-24,23.61-16.81"/><path class="cls-1" d="M1293.47,927.23c7.3,1.17,15.49,5.85,18.34,10.69a41.26,41.26,0,0,0-3.3-7.7c-.85-1.55-3-6.68-7.52-19-5.68-15.43-10.81-34.09-12.74-40.21-27.08-100.81-91.27-120.36-146.32-119.74-2.25,0-4.24-.87-6.9-2.62s-17.54-9.52-23.31-11.15c-8.64-2.44-18.18-10.41-20-16.43-1.28-4.46-2.45-2.54-3.38.5-2,6.5,1.16,22.33,4,27.44-8.78-1.37-14.45-6.52-17.18-11.76-2.39-4-3.15-1.38-3.15,1-.1,18.56,16.17,33.22,17.69,38-1,3.14-18.56,20.81-25.65,25.72-3.19,2-3.58,8.28-3.19,10.9.94,4.88,0,7.88-3.21,10.72-.75.94-12.17,17.13-23.32,33.84s-22.09,34-23.3,35.93c-3.4,4.69-2.84,12.19,1.68,14.08,2.62,1.51,3.58,3.75,5.45,7.53s2.83,9.78,7.14,15.43c6.58,5.25,16.74.55,19.56-.39,3-1.51,9.6-2.37,9.6-2.37,7.42,2.13,13.07-1.93,17.49-8.09,2.64-3.67,4.81-6.47,6.78-9.08,1.5-2.44,19.38-7.52,30.66-11.29,31.4,7.15,54.14-16.74,59.23-32.72,1.87,22.57,17.63,59.22,20.91,66.81-7.8-7.17-18.32-31-22.77-46.35-13.15,6.52-29.36,40.33-29.36,40.33-8.66,2.56-22.65-.52-22.65-.52-23.85-5.26-44.15,0-68.73,18.14-3.53,2.59-28.11,21-32.33,29.49,3.79,3.48,20.55,4.43,23.06,4.34a35.86,35.86,0,0,0-.41-3.79c21.07-2.12,35.91,17.47,35.91,17.47,8.65-25,35.1-25.72,48.46-10,2.42-1.48,18.65-9.18,23.52-9.59-.85,2.42-2.31,5.8-2.31,9.67,15.79-12.52,31.38-10.11,52.89,5.91,3.24,2.42,13.29,11.91,17.89,12.43,7.29-5.78,26.34-10.22,30.24-10.55-1.26,2.45-.83,2.34-2.09,5.18,18.44,5.69,48.22-9.38,54.47-28.13-23-10-22.56-35.4-7.71-40.14-6.53-21.79-3.69-29.81-3.69-29.81,2.53,9.16,7.17,26.77,9.46,29.9m-23.59-16.7C1255.27,882.79,1189.51,802.06,1160,804c-19.45,3.64-36.91,23.59-51.6,61,0,0-13.14,13.25-29.55,4.36,0,0,6.41,17.92-5.45,14,0,0-15.87-5.21-17.92,6.43,0,0-1.5,15.3-12.87,15.1,0,0-6.09-2.89,1.54-15.32,0,0-10-4.16-16.1,6.15,0,0-6,4.39-12.74,2.27a13.41,13.41,0,0,1,1.12-5.32c2.2-5.69,9.33-15.63,13.36-21.89,6.43-10,13.28-19.67,14.56-21.54,5.1-7.43,22.85-26,24.26-27.83s4.33-3.45,2.09-9.32a10.87,10.87,0,0,1,3.19-12.21,112.28,112.28,0,0,1,11.09-7.33c2.17-1,6.87-5.17,9.4-8.75s7.53-11.76,8.28-12.78,2.54-4.24,7.53-2.55,18.11,5.92,18.7,4.72c.27-1.19-6.18-3.77-13-9.05-7.47-5.77-15.45-14.55-19.2-23.5,4.7,2.45,7.24,3.67,13.27,4.79s21.53,2.83,27.44,17.7c27.08-7.81,44.76,29,49.54,43.62,1.41-1.5.19-6-.56-10s-4-20.8-6.29-25.68c19.73,5.61,39.38,40.35,43.15,62.42,3.11.94,2.91-21,2.73-25.77,8.94,11.38,18.32,42.24,18.78,53.05,2.74.18,1.44-37.52.12-41.57,9.51,12.69,14.85,62.72,15.25,65.64,2.17,1,4.49-20.87,5.06-25.11,6.85,11.76,7.44,43.52,4.63,50.85"/><path class="cls-1" d="M1110.32,811.45a17.64,17.64,0,0,1-18.15,10.17c-2.27-.25-2.57-.31-3.2,0s-1.63.63-2.07-.81a19.85,19.85,0,0,1,.85-10.22c4-8.76,12.63-6.71,15.32-4.76a63.58,63.58,0,0,1,7.25,5.62"/><path class="cls-1" d="M387.62,1771.32a51.5,51.5,0,0,1-43.33-51,9.61,9.61,0,0,0-.12-1.51V818.3H332.71L90.43,1060.62l64.14,64.13,98.89-98.9v695.71a51.71,51.71,0,0,1-43.28,49.76l-4.78.77v12.3h187v-12.3Z"/><path class="cls-1" d="M576.14,95.27,557,35.51l-18.9,59.76h-3.93L516,28.73c-1-3.34-2.1-5.69-3.23-7a9.32,9.32,0,0,0-4.64-2.9.61.61,0,0,1-.55-.65.49.49,0,0,1,.55-.55h21.3a.48.48,0,0,1,.55.55.6.6,0,0,1-.55.65,9.87,9.87,0,0,0-2.4.71,2.15,2.15,0,0,0-1.2,2,11.7,11.7,0,0,0,.27,3.22c.25,1.36.78,3.37,1.58,6.07l12.24,45.45,18-58.67h3.93l19.23,58.56,11.79-45.23A40.69,40.69,0,0,0,594,26.11a14.8,14.8,0,0,0,.17-3.27A3.73,3.73,0,0,0,592.8,20a6.45,6.45,0,0,0-3.33-1.2c-.36,0-.55-.21-.55-.65s.15-.55.44-.55h17.7c.29,0,.44.18.44.55a.61.61,0,0,1-.55.65,10,10,0,0,0-5.57,2.84c-1.38,1.46-2.55,4-3.5,7.76l-18,65.88Z"/><path class="cls-1" d="M631.31,56A45,45,0,0,1,634.09,40a38.4,38.4,0,0,1,7.82-12.67A34.63,34.63,0,0,1,654,19a39.89,39.89,0,0,1,15.57-3,38.79,38.79,0,0,1,13.76,2.51,33.6,33.6,0,0,1,11.75,7.49,36.46,36.46,0,0,1,8.13,12.45,45.63,45.63,0,0,1,3.07,17.43,44.44,44.44,0,0,1-2.79,16,37.7,37.7,0,0,1-7.81,12.61,35.57,35.57,0,0,1-12.07,8.31,39.37,39.37,0,0,1-15.57,3,38.72,38.72,0,0,1-13.71-2.46,33.37,33.37,0,0,1-11.75-7.43,36,36,0,0,1-8.19-12.45A45.83,45.83,0,0,1,631.31,56M693.8,60.1a64,64,0,0,0-2.07-16.88A41.77,41.77,0,0,0,686,30.41a26.49,26.49,0,0,0-8.67-8.12,21.79,21.79,0,0,0-10.9-2.85q-10.58,0-16.73,7.89T643.54,52a63.23,63.23,0,0,0,2.08,16.82,41.49,41.49,0,0,0,5.72,12.77,25.81,25.81,0,0,0,8.72,8,22.48,22.48,0,0,0,11.07,2.79q10.57,0,16.62-7.94t6-24.38M658.41,11.47a6.57,6.57,0,0,1-4.21-1.42,5.11,5.11,0,0,1-1.81-4.26,5.5,5.5,0,0,1,1.7-4.21A6.38,6.38,0,0,1,658.62,0a6.78,6.78,0,0,1,4.21,1.36,5.22,5.22,0,0,1,1.8,4.43,5.49,5.49,0,0,1-1.69,4,6.12,6.12,0,0,1-4.53,1.69m20.53,0a6.55,6.55,0,0,1-4.2-1.42,5.08,5.08,0,0,1-1.8-4.26,5.49,5.49,0,0,1,1.69-4.21A6.23,6.23,0,0,1,679.05,0a6.94,6.94,0,0,1,4.32,1.36,5.22,5.22,0,0,1,1.8,4.43,5.45,5.45,0,0,1-1.69,4,6.13,6.13,0,0,1-4.54,1.69"/><path class="cls-1" d="M734.66,94.06a.47.47,0,0,1-.54-.54.61.61,0,0,1,.54-.66,27.08,27.08,0,0,0,3.06-.93,4.85,4.85,0,0,0,2.08-1.42A6.16,6.16,0,0,0,740.94,88a17.66,17.66,0,0,0,.39-4.1V27.75a17.66,17.66,0,0,0-.39-4.1,6.22,6.22,0,0,0-1.14-2.51,4.85,4.85,0,0,0-2.08-1.42,27.08,27.08,0,0,0-3.06-.93.6.6,0,0,1-.54-.65.49.49,0,0,1,.54-.56H759a.49.49,0,0,1,.55.56.6.6,0,0,1-.55.65,22.83,22.83,0,0,0-3.11.93,4.83,4.83,0,0,0-2,1.42,6.09,6.09,0,0,0-1.14,2.51,17.66,17.66,0,0,0-.39,4.1V81.83a16.88,16.88,0,0,0,.49,4.48A4.92,4.92,0,0,0,754.71,89a8.46,8.46,0,0,0,3.88,1.31,53.3,53.3,0,0,0,6.66.33h6a16.91,16.91,0,0,0,5.35-.77,15.73,15.73,0,0,0,4.21-2.13,16,16,0,0,0,3.39-3.28c1-1.27,1.95-2.63,2.89-4.09a.71.71,0,0,1,.66-.44c.58,0,.76.26.54.77l-4.25,13.32Z"/><path class="cls-1" d="M816.27,94.06a.47.47,0,0,1-.54-.54.6.6,0,0,1,.54-.66,18.29,18.29,0,0,0,3.05-.82,4.59,4.59,0,0,0,2.09-1.47A6.94,6.94,0,0,0,822.55,88a18.3,18.3,0,0,0,.38-4.1V27.75a18.3,18.3,0,0,0-.38-4.1,6.36,6.36,0,0,0-1.14-2.51,4.83,4.83,0,0,0-2.09-1.42,27.5,27.5,0,0,0-3.05-.93.6.6,0,0,1-.54-.65c0-.37.17-.56.54-.56h46.1c1,0,1.5.56,1.64,1.65l.55,10.05a.68.68,0,0,1-.77.76c-.29,0-.51-.18-.65-.54a13,13,0,0,0-3.83-6.23c-1.74-1.53-4.55-2.3-8.41-2.3h-6.33c-1.67,0-3.16,0-4.42.06s-2.39.09-3.34.17-2,.14-2.83.21V54.08h20.21a9.29,9.29,0,0,0,3.49-.49,3.74,3.74,0,0,0,1.75-1.8c.14-.37.36-.55.65-.55s.66.25.66.76v9.29c0,.51-.23.76-.66.76s-.51-.18-.65-.54a5.94,5.94,0,0,0-2.51-3.22,11.73,11.73,0,0,0-5.46-.94H834V83.9a17.66,17.66,0,0,0,.39,4.1,6,6,0,0,0,1.15,2.51,4.8,4.8,0,0,0,2,1.42,23,23,0,0,0,3.12.93.62.62,0,0,1,.55.66c0,.37-.18.54-.55.54Z"/><path class="cls-1" d="M892.86,94.06a.48.48,0,0,1-.55-.54.61.61,0,0,1,.55-.66,18.29,18.29,0,0,0,3-.82A4.56,4.56,0,0,0,898,90.57,6.63,6.63,0,0,0,899.13,88a17.66,17.66,0,0,0,.39-4.1V27.75a17.66,17.66,0,0,0-.39-4.1A6.09,6.09,0,0,0,898,21.14a4.79,4.79,0,0,0-2.08-1.42,27.5,27.5,0,0,0-3-.93.61.61,0,0,1-.55-.65.49.49,0,0,1,.55-.56H939c.95,0,1.49.56,1.64,1.65l.55,10.05a.68.68,0,0,1-.77.76c-.29,0-.51-.18-.65-.54a13.1,13.1,0,0,0-3.83-6.23q-2.62-2.3-8.41-2.3h-6.34c-1.66,0-3.15,0-4.41.06s-2.4.09-3.34.17-2,.14-2.84.21V54.08h20.21a9.35,9.35,0,0,0,3.5-.49,3.74,3.74,0,0,0,1.75-1.8c.14-.37.36-.55.65-.55s.65.25.65.76v9.29c0,.51-.22.76-.65.76s-.51-.18-.65-.54a5.94,5.94,0,0,0-2.51-3.22,11.75,11.75,0,0,0-5.47-.94H910.56V83.9A17.66,17.66,0,0,0,911,88a6,6,0,0,0,1.14,2.51,4.83,4.83,0,0,0,2,1.42,22.83,22.83,0,0,0,3.11.93.61.61,0,0,1,.55.66c0,.37-.18.54-.55.54Z"/><path class="cls-1" d="M969.44,94.06a.48.48,0,0,1-.55-.54.61.61,0,0,1,.55-.66A18.16,18.16,0,0,0,972.5,92a4.59,4.59,0,0,0,2.07-1.47A6.64,6.64,0,0,0,975.72,88a18.3,18.3,0,0,0,.38-4.1V27.75a18.3,18.3,0,0,0-.38-4.1,6.1,6.1,0,0,0-1.15-2.51,4.82,4.82,0,0,0-2.07-1.42,27.08,27.08,0,0,0-3.06-.93.61.61,0,0,1-.55-.65.49.49,0,0,1,.55-.56H1016c.94,0,1.49.56,1.63,1.65l.65,10.05a.68.68,0,0,1-.77.76c-.28,0-.5-.18-.65-.54a14.23,14.23,0,0,0-3.76-6.13c-1.72-1.6-4.46-2.4-8.25-2.4h-7.1c-1.67,0-3.15,0-4.42.06s-2.39.09-3.34.17-2,.14-2.84.21V53.86h20.1a9.29,9.29,0,0,0,3.56-.49,3.75,3.75,0,0,0,1.69-1.81c.14-.36.36-.54.65-.54.44,0,.66.26.66.77v9.39c0,.51-.22.76-.66.76-.29,0-.51-.18-.65-.54a6.25,6.25,0,0,0-2.51-3.28,11.27,11.27,0,0,0-5.46-1H987.15V81.5a17.45,17.45,0,0,0,.49,4.53,5.06,5.06,0,0,0,1.91,2.85,9.13,9.13,0,0,0,3.94,1.42,46,46,0,0,0,6.56.38h5.57q6,0,9.5-2.9a31.11,31.11,0,0,0,6.34-7.37.69.69,0,0,1,.65-.44c.59,0,.76.26.55.77l-4.26,13.32Z"/><path class="cls-1" d="M1112.78,94.72q-8.74,0-14.15-4.15A35.9,35.9,0,0,1,1089.18,79l-10.6-18.8H1069v23.6a17.67,17.67,0,0,0,.38,4.1,6.2,6.2,0,0,0,1.2,2.57,5.16,5.16,0,0,0,2.07,1.47,22.58,22.58,0,0,0,3.12.93.61.61,0,0,1,.55.66c0,.37-.18.54-.55.54h-24.25c-.37,0-.55-.17-.55-.54a.6.6,0,0,1,.55-.66,27.5,27.5,0,0,0,3-.93,4.76,4.76,0,0,0,2.07-1.42,6,6,0,0,0,1.15-2.51,17.73,17.73,0,0,0,.38-4.1V27.75a17.85,17.85,0,0,0-.38-4.1,6,6,0,0,0-1.15-2.51,4.85,4.85,0,0,0-2.07-1.42c-.87-.32-1.89-.63-3-.93a.6.6,0,0,1-.55-.65.48.48,0,0,1,.55-.55h25.13a51.41,51.41,0,0,1,11.85,1.26,26.47,26.47,0,0,1,9.07,3.88,17.66,17.66,0,0,1,5.78,6.61,20.34,20.34,0,0,1,2,9.34,17.32,17.32,0,0,1-1.26,6.66,19.07,19.07,0,0,1-3.38,5.47,25.42,25.42,0,0,1-5.09,4.31,34.86,34.86,0,0,1-6.33,3.22L1098,73.53a97,97,0,0,0,9.66,14.26q4.21,4.86,7.71,5.73a.62.62,0,0,1,.55.66.61.61,0,0,1-.66.54Zm-35.07-37.48q7.65.12,11.74-4.17t4.1-12.2q0-9.57-5.19-14.73T1074.65,21q-1.2,0-2.13.06c-.62,0-1.22.09-1.8.16s-1.24.15-1.75.22V57.24Z"/></svg>