<svg id="Layer_1" data-name="Layer 1" xmlns="http://www.w3.org/2000/svg" viewBox="0 0 5148.16 1305.99"><path d="M1095.1.28C914.58-4.63,756.32,56,625.81,180.68c-134,128-202,287.52-202.18,472.74-.16,168.83,57.65,318.08,172.88,442.05,128.94,138.72,290,208,479.45,210.5,173.76,1.31,349.64-67.86,481.07-210.44,115.07-124.85,173.19-274.19,172.9-443.37-.3-175.2-62.42-328.45-185-454.25C1422.25,71.93,1271,5.06,1095.1.28ZM1534,1055.57c-121.38,136.49-275,204.33-449.68,208C904,1261.12,756.39,1198.79,637,1075.12,524.11,958.18,465.77,815.55,466.32,653.27c.6-179,68.94-331.74,202-452.44C787.92,92.3,930.64,38.65,1092,43.12c164.5,4.57,305.89,67,421.38,185.41,115.26,118.19,173.28,261.3,173.74,425.06C1687.51,805.76,1635.54,941.4,1534,1055.57Z"/><path d="M3720.72,572.3c27.51,25.39,55.76,50,83.61,75,24,21.58,47.73,43.52,71.88,65,29.63,26.28,59.68,52.08,89.35,78.32,22.5,19.9,44.65,40.2,67.09,60.18a11.48,11.48,0,0,0,6.78,2.89c17.49.23,35,.13,52.76.13V452.31h-73.07c-.17,2.31-.36,3.79-.36,5.26,0,80.53-.33,161.06.19,241.58.13,19.16,3,38.3,4.8,59.81-8.16-9.09-14.26-17-21.43-23.68q-43.53-40.8-87.62-81c-13.67-12.52-27.6-24.75-41.5-37-37.49-33.07-75.13-66-112.52-99.17-23.59-20.94-46.8-42.29-70.25-63.38-1.56-1.4-3.68-3.06-5.56-3.08-19.67-.23-39.35-.14-58.89-.14V853.06h70.23V543.83C3704.87,554,3711.89,564.15,3720.72,572.3Z"/><path d="M3371.47,607.65c.18,50.9.7,101.8,1,149.77-6.66-7.36-14.94-17.84-24.56-26.9-27.3-25.73-55.09-50.95-82.81-76.24-13.69-12.49-27.59-24.74-41.49-37-37.49-33.07-75.12-66-112.5-99.15-23.58-20.94-46.8-42.28-70.24-63.37-1.56-1.4-3.67-3.09-5.54-3.11-19.68-.23-39.35-.14-58.58-.14v401.6h69.87V543.78c8.56,10.09,15.59,20.12,24.32,28.33,21.6,20.32,44,39.79,66.05,59.64,23.16,20.85,46.11,41.94,69.45,62.57,35.78,31.62,71.92,62.82,107.7,94.43,23.07,20.39,45.74,41.22,68.66,61.77,1.56,1.4,3.68,3.05,5.56,3.07,18.17.23,36.34.14,54.4.14V452h-71.37C3371.43,504.44,3371.29,556.05,3371.47,607.65Z"/><path d="M2504.54,675.84h196.57V613.15H2504.69V511.87h326.78v-59.6H2428V853.12h407.72V792.45H2504.54Z"/><path d="M2246.59,460.52c-12.61-4.43-26.16-8.6-39.32-8.67-114.56-.67-229.13-.39-343.7-.39h-10.7V853.24h78V698.69h13.33c82,0,164,.21,246-.2a191.38,191.38,0,0,0,40.55-4.58c34.72-7.79,49.12-27.84,50.26-56.93,1.61-41.13,1.46-82.4,0-123.53C2280.11,490.14,2271.09,469.12,2246.59,460.52Zm-43.9,138.14c0,24.51-9.92,36.59-34.67,36.82-78.58.73-157.16.27-236.51.27V512.14c65.3,0,129.67-.33,194,.21a362.7,362.7,0,0,1,57.32,4.67c14.07,2.38,19.73,12.13,19.8,26.6C2202.76,562,2202.69,580.31,2202.69,598.66Z"/><path d="M4406.07,673.94a23.62,23.62,0,0,1,5.73,14.46c.41,50.92.26,101.85.26,152.78V853.3h76.41c0-55.17-.18-109.08.28-163,.05-5.68,2.69-12.3,6.26-16.79,8.3-10.45,17.93-19.84,27-29.69,25.12-27.37,50.11-54.85,75.37-82.09,31.62-34.1,63.47-68,95.18-102,1.85-2,3.39-4.29,6.5-8.26-31.3,0-60.34-.11-89.38.18-2.47,0-5.48,2.14-7.29,4.15-11.46,12.6-22.72,25.38-33.91,38.22q-36.81,42.27-73.48,84.64c-13.06,15-26.18,30-39.84,45.68-14.54-16.23-29-32.7-43.78-48.77-22-23.79-44.33-47.19-66.3-71-11.55-12.51-22.77-25.34-33.84-38.29-8.55-10-17.57-16.32-32.26-15.28-22.36,1.6-44.91.39-67.38.46-2.74,0-5.47.51-9.63.93,10.11,11.38,19,21.68,28.2,31.7q40.73,44.32,81.69,88.47C4343.23,606.39,4374.9,639.93,4406.07,673.94Z"/><path d="M4708.56,953.12c-9.78.79-19.26,5.25-28.71,8,.27-1.57.78-4.66,1.42-8.48-10.86,0-21.33-.5-31.7.32-2.87.23-7.09,3.94-7.85,6.81-3,11.3-4.37,23-7.27,34.38-4.69,18.39-3.55,39.26-22.29,51.87-11.41,7.69-23,13.81-36.89,8-11.74-4.87-7.42-15.26-7.87-24.29,4.39-1.09,8.3-1.89,12.12-3,18.72-5.61,34.25-15,41.79-34.38,9.51-24.38-.16-43.31-26.55-42.18-25,1.07-40.78,14.7-52.45,34.85-9.21,15.89-13.37,33.22-13.47,51.63,0,7.68-11.06,18.12-17.38,17-10-1.74-8.1-9.73-6.89-15.69,4.52-22.21,10.08-44.22,14.88-66.38,4.85-22.38,9.25-44.86,14.21-69.06-10.33,1.68-19.23,4-28.21,4.37-9.15.41-12.35,3.64-13.34,13-1.29,12.22-5.35,24.14-8.37,36.83-17.93-9-33.88-6.72-48.82,3.4-25.89,17.54-33.29,44.76-36,73.49-1,10.43-6.73,15.11-14.28,19-2.33,1.21-7.17.65-9-1.07-2.28-2.13-4.17-6.61-3.59-9.56,3.76-19,8.4-37.82,12.42-56.77,2.22-10.49,3.82-21.12,5.87-32.65-11.62,0-21-.6-30.22.34-3.12.31-7.73,4-8.45,7-4.37,17.76-8.79,35.62-11.3,53.7-3,21.24-15.62,33.51-34,41.1-17.28,7.13-30.7-1.47-28.71-19.86,1.75-16.15,6.4-32.23,11.8-47.64,3.15-9,6.94-19.89,22.11-21.38,0,5.93.72,11.48-.18,16.76-1.23,7.23.56,10.3,8.32,10.6,8.3.33,11.37-5,13.26-11,3.59-11.42-.52-22.24-8.93-27.44-18.86-11.67-49.25-.89-61.9,14.79-18.87,23.39-25.6,51-23.16,80.84,1,12.47,10.25,24.68,21.79,27.69,12.68,3.31,25.73,3.81,37.65-1.78,12.28-5.76,23.7-13.34,35.37-20,6.91,17.37,17.95,27.59,30.15,24,13.56-3.94,26.32-10.68,39.52-16.24,3.53,10.5,14.93,14.63,26.51,16.23,15.89,2.19,27.41-8.11,39.15-18.47,5.21,16.15,17.87,19.08,30.54,16.14,11.68-2.71,22.37-9.71,33.69-14.9,13.42,24.93,45.4,23.53,87.74-6.29-1.37,7.34-2.66,14.21-4.06,21.72,11.13,0,21.26.49,31.28-.3,3-.24,7.66-3.66,8.27-6.37,5.8-25.71,11.25-51.51,16-77.43,2-11,8.09-16.69,19.11-19.76,1.29,3.27,1.79,6.82,3.79,9,2.7,3,6.32,6.36,9.95,6.92,10.46,1.6,18.25-5.73,19-16.54C4725.3,962,4719,952.28,4708.56,953.12Zm-115.21,15.23c1.61-1.33,5.24-2.08,6.73-1.16,1.71,1,2.52,4.2,2.94,6.57,2.18,12.52-10,33.82-31.86,39.86C4574.45,995.49,4579.52,979.79,4593.35,968.35Zm-128.13,72.55c-1.32,4.73-7.75,9-12.79,11.52-8.22,4.18-16.58-4.45-15.4-17.55,1.93-21.32,7.31-42,21.13-59,3-3.67,9.86-5.08,15.12-5.56,2.31-.21,5.08,4.52,6.79,6.18C4474.91,999.63,4470.89,1020.5,4465.22,1040.9Z"/><path d="M4071.05,985.5c3.54-6.39,4.43-16,2.32-23.11-1.32-4.41-10.37-9.4-15.63-9.07-8.27.53-16.28,5.32-24.39,8.33-.89.33-1.72.82-2.79,1.34.5-3.42,1-6.53,1.42-9.79h-37.91c-4.58,21.92-8.35,43.61-13.86,64.85-2.95,11.32-8.34,22.16-13.94,32.51-1.38,2.56-9.71,4.54-11.58,3-3-2.57-5.24-8.69-4.47-12.67,5.64-29.11,12.11-58.06,18.55-88.16-11.74,0-22.55-1.59-32.57.53-7.32,1.54-13.69,1.42-20.28-.7-11.38-3.65-21.75-.29-31.2,5.15-25.42,14.63-34.68,39.12-39.13,66.39-1.23,7.53-1.83,15.89-5.67,22-2.56,4.08-10.35,4.86-15.8,7.12-1.31-5.25-4.39-10.77-3.62-15.69,2.94-18.77,7.5-37.28,10.72-56,2.79-16.24-8.51-29.39-25-28.55-10.05.51-20,3.46-29.2,5.17,3.38-16.8,7.13-35.47,11-54.68-10.14.88-18,.78-25.48,2.44-6.77,1.5-14.12,1.69-16.06,12.3-6.24,34.18-13.95,68.09-21.13,102.1-4,19.13-8.11,38.24-12.37,58.28,11.31,0,21.4-.36,31.45.13,6.6.31,8.12-3.45,9.1-8.57,3.77-19.78,6.83-39.75,11.73-59.26,2.61-10.38,7.92-20.24,13.17-29.71,1.34-2.42,7.36-3.82,10.63-3.07,2.19.5,4.14,5.49,4.7,8.73.6,3.49-.19,7.37-1,10.94-3.17,14.28-7.51,28.36-9.57,42.78-1.48,10.34-2.18,21.24,6.31,30.35,13.9,14.92,43.58,12.15,57.63-9.5,19.21,25.9,34.46,25.93,66.41.92,14.77,27,34.78,18.52,55.32,8.51v7.75c10.11,0,20.26.57,30.27-.36,3-.27,7.39-4.34,8.07-7.36,5.87-26.06,10.63-52.38,16.72-78.38,1.29-5.48,5.92-10.9,10.4-14.69,4.79-4,10.08-4.62,11.7,4.44.57,3.19,4.75,8.21,7.13,8.13C4059.41,990.1,4068.91,989.37,4071.05,985.5ZM3924,983.25c-3.07,17.65-7,35.17-11.17,52.59a17.67,17.67,0,0,1-6.62,9.86c-4.71,3.12-11,6.88-15.69,5.94-3-.6-4.62-9.11-6.5-14.2-.61-1.65-.09-3.71-.09-5.58,1.91-21.57,5.88-42.5,22.91-57.84,3-2.69,9.63-4.22,13-2.7C3922.5,972.56,3924.62,979.42,3924,983.25Z"/><path d="M4152,956.82c-19.36-10.37-44.06-5.27-59,11.89-21.46,24.59-29.89,53.6-24.49,85.68,3,17.68,18.89,29.32,37.66,25,10.24-2.35,19.51-8.9,30-14,8.57,14.18,23.32,18.38,37.28,12.31,11.52-5,16.87-13.84,14.8-25.42-11.88,2.63-18.37-1.14-16.46-9.95,6.39-29.65,13.18-59.2,19.6-88.84,3.52-16.3,6.6-32.71,10.2-50.61l-38.75,5.37C4159.19,924.7,4155.64,940.6,4152,956.82Zm-5.54,26.29c-3.07,17.64-7,35.15-11.13,52.59-.8,3.38-3,7.33-5.74,9.14-5.07,3.31-11.05,5.21-16.65,7.7-2.19-5.35-4.43-10.67-6.51-16.06-.38-1,0-2.22,0-3.35,2.15-21.8,5.28-43.39,22.8-59,3-2.7,9.57-4.29,13-2.82C4144.89,972.47,4147.12,979.32,4146.47,983.11Z"/><path d="M4358.12,921.34c0,13.23,7,20.12,20.38,20.09,13.6,0,20.11-6.64,20.07-20.38s-6.63-20.11-20.37-20.07S4358.08,907.61,4358.12,921.34Z"/><path d="M4690,856V812.78c-16.82,2.17-11.62,19.87-19.24,27.18-8.41-7.67-1.85-25.44-19.28-26.9-3.32,24-1.84,37.65,5.48,41V831.4c3.6,5.39,4.89,11.06,7.25,16.23,1.14,2.51,4.33,5.72,6.51,5.65s5.11-3.41,6.26-6c2.3-5.17,3.62-10.77,5.59-16.95C4686.66,838.29,4680,848,4690,856Z"/><path d="M4632.74,853.36c1.13-10.94,1.92-21.92,2.75-32.87,1.5-.16,2.77,0,3.7-.46,2.23-1.11,4.3-2.52,6.44-3.82-2.05-1-4.07-2.67-6.15-2.75-8.3-.32-16.62-.13-24.93-.13l-.69,4,11.63,4.56v31.52C4628.74,853.39,4632.72,853.58,4632.74,853.36Z"/><path d="M1019.46,599.56C1028,561.73,1037.3,524,1044.68,486c1.93-9.95,6.26-10.85,13.34-9.57,32.83,5.9,65.59,12.18,98.39,18.28,38.6,7.18,77.46,13,116.36,3.7,23.78-5.67,45.43-16,60.67-36.89,28.17-38.57,29.09-81.73,23.45-126.53-13.41,3.93-26,7.7-38.63,11.3a498.72,498.72,0,0,1-123.88,19.44c-36.9,1-73.89-.57-110.8-2.13-18-.77-35.81-4.33-53.75-6.24-17.58-1.87-35.22-3.25-53.24-4.88-1.21,4-2.55,7.39-3.25,10.9-6.93,34.86-13.49,69.79-20.68,104.59-10.88,52.71-22.4,105.29-33.23,158-9.5,46.3-17.82,92.85-28.13,139-2,9,2.36,11.78,7,14.48,4,2.33,10.71,3.75,14.59,2,14.37-6.5,27.89-14.89,42.08-21.84,33.83-16.59,69.19-27.35,107.41-24.78,24.5,1.64,46.4,10.22,64.85,26.88,29.89,27,40.35,63.07,43.31,100.83,3.78,48.19.16,96.09-19.73,141.4-9.89,22.53-22.68,43.36-40.76,59.8-19,17.22-41.57,28.79-67.56,32-28.18,3.45-55,0-76.17-20.91-26.88-26.54-28.8-59.25-18.48-93.05,10.9-35.68,38.39-54.44,72.5-64.86,7.25-2.22,14.87-3.22,22.22-4.77-6.12-30.32-23-49.15-51.37-54.43-16-3-33-2.72-49.29-1.34-49.6,4.21-84.88,30.26-107,74.3-18,35.66-19.8,73.55-14.5,112.36,5.77,42.29,26.45,75.25,62.2,98.15,34.36,22,73.43,29.78,113.25,31.35,28.06,1.11,56.48-1,84.44-4.28a292.24,292.24,0,0,0,143.28-57.29c43.25-32.37,73.1-74.12,92.3-124.12,15.46-40.26,19.9-82,19.62-124.9-.31-46.93-9.18-91.27-32-132.43-17.67-31.86-42.93-56.3-75.84-71.79-48.67-22.91-99.68-24-151-11.4-24.33,6-47.85,15.27-71.85,23.1a22.2,22.2,0,0,1,.06-5.57C1009.63,642.34,1014.6,621,1019.46,599.56Z"/><path d="M922.47,328.88c28.2,15.22,58.54,16.81,84.92-5.12,16-13.29,30.38-28.8,43.94-44.64,7.73-9,12.36-20.73,18.37-31.23,6.7-11.7,13.87-14.94,26.57-9.94,10,3.94,19.35,9.57,31.5,15.72-9-13-15.9-24.27-24.06-34.52-14.72-18.47-27.59-39.69-45.85-53.79-43.75-33.81-94.75-39.1-147.81-27.22-38.84,8.7-72.75,28.47-106.76,48.11-12.88,7.44-25.34,18.49-42.92,12.09,6.64,8.4,13.07,16.59,20.64,23.55,20.73,19.08,40.84,39.09,63.25,56C869.05,296.64,895.16,314.14,922.47,328.88Z"/><path d="M1118.61,211.47c8.13,28.41,16.18,56.85,24.57,85.18,5.31,17.93,5.55,17.86,22.93,12.36,1.39-.44,2.77-1.29,4.17-1.31,8.34-.14,10.24-4.78,9.86-12.3-1.71-34.1-4-68.2-4.13-102.32-.06-13-2.55-20.47-15.8-23.64-14-3.33-27.59-8-43.09-12.6,0,18-.07,32.58.06,47.13A29.07,29.07,0,0,0,1118.61,211.47Z"/></svg>