<svg id="Layer_1" data-name="Layer 1" xmlns="http://www.w3.org/2000/svg" viewBox="0 0 1252.65 1436.28"><defs><style>.cls-1{fill:#fff;}</style></defs><path class="cls-1" d="M574,553.86c-10.41-2.17-22.42-5-34.55-7.14-23.92-4.29-47.64-9.06-71-16.26-21.51-6.64-42.76-13.6-62-25.2C381.89,490.5,361,471.8,348.73,445.15c-8.74-19-8.41-39.41-7.82-59.79,1.12-38.79,19.73-68.9,47.78-93.6,13-11.46,28.06-20.63,42.19-30.82a4.52,4.52,0,0,1,1.88-1c11.64-1.22,10.52-9.43,10.54-17.88.08-30.88-.42-61.83,1.5-92.63,1.05-16.88,6.09-33.59,10.07-50.2,4.9-20.43,13.28-39.57,23.63-57.84,1.53-2.69,3.53-5.11,5.17-7.74,2.78-4.47,1.39-7.25-3.66-8.26-9.42-1.89-15.47,4.1-18.53,15.17-2.69,9.69-7,19.07-11.74,28-1.47,2.76-6.66,5-10.16,5-21.52.09-41.88,6.14-62.48,11.09-8.09,1.94-16.35,3.26-24.31,5.61C323.14,99,293.27,107.12,264.1,117.3c-21.5,7.51-42.42,17-62.88,27.07-27.17,13.35-54.33,27-80.23,42.58-30.27,18.22-60.46,37-85,63.1C24.27,262.52,14.6,276.38,7.87,292.13,6,296.46,5.28,301.26,4,305.85l-2.57-.12c-.51-2-1.7-4.15-1.42-6.06,1.3-8.69,2.74-17.37,4.65-25.94a252.34,252.34,0,0,1,6.76-25.46c7.29-21.73,19.12-40.94,32.64-59.4s28.24-35.7,45.39-50.71c25-21.88,50.18-43.63,80.57-58.21,14.13-6.78,27.69-14.77,41.87-21.46,11.6-5.47,23.7-9.92,35.64-14.63,14.11-5.57,28.22-11.12,42.47-16.31a179.17,179.17,0,0,1,19.16-5.31c11.78-2.84,23.57-5.64,35.42-8.16,15.13-3.21,30.33-6.12,45.5-9.15,4-.8,7.92-2,11.93-2.32,37.49-2.88,75-3.7,112.55-.81,7.37.57,14.65,9.56,12.64,16.7-4.89,17.39-10.86,34.49-15.34,52-3.59,14-5.67,28.44-8.34,42.7-.75,4-1.28,8-1.8,12-1.4,10.86-3.42,21.7-4,32.6-1.19,23.67-1.62,47.37-2.36,71.06-.05,1.62,0,3.24,0,4.54,1,.55,1.47,1.06,1.78,1,10.16-2.92,20.3-5.91,30.45-8.88a37.78,37.78,0,0,1,6.23-1.67q31.62-3.42,63.27-6.64c41.89-4.22,83.74-.36,125.58,1,9.44.29,18.76,3.42,28.23,4.41,9,1,9.5-.09,8.82-9.17-1.86-25-2.79-50.12-5.64-75-3-26.26-6.89-52.43-15.66-77.67-4.91-14.13-8.32-28.78-12.11-43.28-1.61-6.16,5-14.91,12.1-15.15C764.76,1.42,791.06,1,817.36.69a236.51,236.51,0,0,1,25.08,1.48c7.59.74,15.12,2.06,22.68,3.18,6.37.94,12.75,1.85,19.09,3,4.89.9,9.73,2.11,14.57,3.29,2.08.51,4.06,1.77,6.14,1.91,15.86,1,30.53,6.44,45.38,11.51,14.56,5,29.63,8.47,44.16,13.52,11.21,3.89,22,9,32.85,13.92,15.82,7.13,32,13.68,47.16,22.05a593.5,593.5,0,0,1,51.63,32.14c26.31,18.27,48.08,41.72,69.73,65.05,15.15,16.33,28.42,34.39,37.18,55.05a490.26,490.26,0,0,1,17.32,48.29c2.25,7.39,1.87,15.62,2.32,23.49.08,1.46-1.58,3-2.44,4.52-1.27-1.21-3.49-2.3-3.67-3.66-3.48-25.7-22.39-40.93-39-57.7-24.64-25-54.3-43-84.45-60.19-23.65-13.47-47.63-26.44-72-38.45-17.06-8.38-35-15.13-52.75-21.95-20.23-7.76-40.51-15.56-61.21-21.9-18.64-5.7-37.87-9.53-56.87-14-13.45-3.2-26.91-6.45-40.48-9.09a147.61,147.61,0,0,0-22-2.2c-10.87-.47-19.21-7.45-21.74-18.17a200.64,200.64,0,0,0-6.46-21.9c-2.79-7.71-10.55-11-18.14-7.86-1.33.56-2.74,4.37-2.09,5.7,5.86,12,12.56,23.53,18.23,35.58a193.65,193.65,0,0,1,9.09,24.67c2.75,8.8,5.23,17.72,7.1,26.73a225.81,225.81,0,0,1,4.43,28.86c1.55,20.76,2.24,41.59,3.57,62.37.76,12,.9,12.43-5.53,22.14,1.79.71,3.39,1.5,5.08,2,19.88,5.86,39.79,11.61,59.65,17.52,8.41,2.5,16.74,5.3,25.09,8,4.82,1.57,7.15,4.05,4.77,9.65-6.62,15.58-13.08,31.24-19.15,47-5.37,14-10.11,28.15-15.18,42.23-.56,1.56-1,3.59-2.22,4.41-2.57,1.78-5.91,4.43-8.31,3.89s-5-4.46-5.32-7.18c-2.47-17.84-11.24-32.82-21.07-47.2-5-7.28-11.16-13.75-17-20.4-2.23-2.54-5-4.56-8.32-7.48-1.84,6.73-3.13,11.91-4.67,17-7.34,24.2-22.95,43.82-35.76,65.05-10,16.52-18.62,33.85-27.65,50.92q-11.21,21.16-21.85,42.6a10.83,10.83,0,0,0-.94,7.3c.3,1,4.09,1,6.32,1.28s4.79,0,7.14.38c11.36,1.64,22.87,2.65,34,5.27,22.23,5.24,44.41,10.83,66.3,17.32a187.3,187.3,0,0,1,53.34,25.65c20.78,14.35,34.82,33.17,43.84,56.87,6,15.75,4.22,31.55,5.11,47.38a110.61,110.61,0,0,1-1,23.65,130.1,130.1,0,0,1-6.85,26.19,178,178,0,0,1-60.91,79.87c-21.25,15.79-43.69,29.27-68.12,39.09-14.94,6-30.65,10.26-46.24,14.42-11.45,3.06-23.28,4.65-34.93,7-8.06,1.62-8.75,3-5.46,10.72,5.77,13.6,11.89,27,17.37,40.76,7.23,18.12,14,36.42,20.94,54.67,3.78,10,7.26,20.11,11.14,30.06,2.23,5.71,6.1,8.91,12.88,7.21,11-2.75,21,1,30.11,6.5,8.36,5,7.08,17.93-1.37,22.48-6.91,3.71-13.87,5.81-21.89,5.48-9.27-.39-12,4.63-12.57,14-1.28,22.63-3.65,45.19-5.72,67.77-.44,4.74-2,9.42-2.11,14.14-.15,11.13-1.33,21.73-6.79,31.9-2.44,4.53-1.75,10.65-3.08,15.91-1.15,4.56-3.37,8.23-9.31,8.23-1.8,0-4.5,2.7-5.21,4.72a162.93,162.93,0,0,0-4.83,18c-2.13,9.48-2,9.51-10.38,13.33,1.26,4.11,3.21,5.44,7,2.4,7.66-6.11,11.49-14.29,13.42-23.68.86-4.19,2.3-8.27,3.47-12.4l3.66.42c.07,5.6,1.35,11.54-.11,16.71-1.84,6.5-5.82,12.42-9.07,18.49-3.79,7.09-10.78,8.38-17.78,8.82s-13.59-7.25-14.1-17.25c-.8-15.45-2.21-30.83,3.5-46.14,4.18-11.21,5.12-23.58,8.43-35.17,7.62-26.72,9.67-54.3,13.42-81.63,1.7-12.31,3.84-24.68-2.09-36.63-.8-1.62-.75-3.75-.79-5.65-.31-16.35-4.48-31.87-9.73-47.22-6.86-20-13.17-40.28-20.32-60.22-4.66-13-10.16-25.7-15.87-38.27-.86-1.9-5-2.32-7.57-3.43-.33,2.19-1.56,4.74-.85,6.52,9.73,24.36,19.84,48.58,29.62,72.93q6.78,16.89,12.63,34.15c1.16,3.43.78,7.38-.53,12.06-1.26-1-3.14-1.76-3.67-3.06-4.61-11.16-8.91-22.45-13.41-33.65-4.7-11.68-9.66-23.26-14.27-35-5.48-13.93-11.08-27.82-15.9-42-2.95-8.67-5.59-9.71-14.63-9.16-16.78,1-33.66.35-50.49.67-1.86,0-4.62,1.44-5.39,3-4.31,8.76-8.31,17.69-12.08,26.7-3,7.25-5.42,14.76-8.34,22.05-7.42,18.51-14.86,37-22.53,55.42-2.42,5.8-5.6,11.28-8.65,17.35-5.1-3.66-3.41-7.91-1.84-12.06,5.71-15.1,11.38-30.2,17.21-45.25q6.47-16.66,13.31-33.19c5.29-12.75,10.81-25.4,16.17-38.13,3.39-8,7.12-16,9.88-24.26,3.15-9.4,5.3-19.12,8.07-28.65,1.18-4.09,3.35-7.94,4.18-12.08,2.64-13.16,5.68-26.33,7-39.65,1.38-13.9.94-28,1.31-42,0-1.68.53-3.44.15-5a54.23,54.23,0,0,0-2.62-6.92,69.18,69.18,0,0,0-4.79,5.22c-1.43,1.9-2.46,4.1-3.75,6.11-5.1,8-4.62,9.27,2.72,15,2,1.56,3.5,5.12,3.49,7.76,0,7.39-.82,14.78-1.52,22.16a42.31,42.31,0,0,1-1.69,8.39q-4.8,15.62-9.9,31.14c-1.32,4-3.06,8-4.48,12-1,2.69-2.7,5.59-2.36,8.17,2.15,16.31-8.55,28.17-14,41.81-7,17.45-14.57,34.66-21.51,52.14-5.7,14.34-11.42,28.72-16,43.43-3.54,11.24-5.85,22.94-7.87,34.57-3.12,18.06-5.39,36.26-8.29,54.35a35.44,35.44,0,0,0,2.24,20.66c3.78,9,4.11,19.49,5.72,29.37,2.4,14.77,4.26,29.65,7.08,44.34a129.77,129.77,0,0,0,7.07,23.84c7.48,18.58,4.68,37.84,3.77,56.81-.21,4.41-5.84,11-10.14,12.14-5.19,1.35-13.77-.1-17.11-3.77-9.75-10.72-15.63-23.77-13.71-39.13a30.41,30.41,0,0,0-.59-8.48c-1.37-8.41-1.16-8.75,7.88-9.5.11-7.72,4.62-14.86,1.17-23.46-1.34-3.34,2.5-8.77,4-13.26,1.54,3.9,3.56,7.67,4.52,11.7,3.57,15,6.79,30.13,10.16,45.21.9,4,1.86,8,2.79,12.05l2.37.31c1-2.32,2.82-4.63,2.86-7,.1-6.43.33-13.08-1.07-19.28-2.56-11.33-6.45-22.36-9.45-33.6-4.6-17.3-10.28-34.43-9.19-52.75a36.59,36.59,0,0,0-.65-7.13c-.08-.6-.72-1.11-3-1.8-.43,5.88-1,11.75-1.24,17.64-.1,2.36.86,4.79.66,7.13-.16,2-1.3,3.82-2,5.72-1.6-.77-3.21-1.52-4.79-2.33-1-.53-2-1.15-4.29-2.5,0,10.35.21,19.67-.06,29-.29,9.53-1.05,19-1.6,28.55l-1.87.26c-.73-1-1.94-2-2.11-3.07-2.29-14.82-4.45-29.65-6.63-44.49-.76-5.18-.9-10.55-2.38-15.52-5.36-18-4.31-36.51-4.49-54.91-.09-9.09-3.58-13.73-12.81-13-8.83.65-15.81-2.48-22.71-7.09-7.5-5-8.49-13.39-1.49-19.2,8.89-7.38,19.45-10.11,30.91-8.37,9.3,1.42,9.92.71,13.11-8.34,4.11-11.68,9-23.08,13.74-34.54,5.33-13,11-25.87,16.16-38.93,6.76-17.08,13.22-34.27,19.75-51.44.81-2.14,1.29-4.41,1.76-6a230.24,230.24,0,0,1-60.67-1.93c-9.4-1.62-18.9-2.66-28.35-4-2.61-.36-5.25-.56-7.82-1.08-18.23-3.72-36.6-6.87-54.62-11.43-17.22-4.35-34.15-9.91-51.05-15.43-13.57-4.42-26.88-9.61-40.33-14.38-6.36-2.26-8.28-7-5.71-13,3.63-8.48,7.05-17.06,10.19-25.73,6.07-16.76,11.93-33.6,17.76-50.44,4.28-12.35,8.26-24.8,12.67-37.1.76-2.12,3-3.72,4.57-5.56,2,2.09,5,3.86,5.81,6.34,2.55,7.9,3.27,16.5,6.5,24.06,13.81,32.35,34.24,59.2,64,79.19C440.62,757.66,459.19,769.92,480,778c15.66,6.07,32.22,9.81,48.4,14.51,7.1,2.06,14.44,3.45,21.31,6.08,4.26,1.63,6.34.92,7.62-3.09,4.12-12.88,8.24-25.76,12.27-38.67,3.32-10.67,8-21.19,9.48-32.13,3.62-26.15,10.85-52.23,4.78-79a46.13,46.13,0,0,1-.91-4.94c-1.67-13.52-4.65-16.08-18.55-15.73-10.9.27-21.66.82-28.37-10.67-3.35-5.73-4.24-11.36-1.3-17,3.09-5.93,7.5-10.76,15.37-9,5.75,1.28,11.44,2.89,17.24,3.85,3.08.51,6.61.62,9.38-.5,1-.38.45-5,.22-7.67C576.07,574.34,575.07,564.71,574,553.86Zm205-236.68c7.63-3.67,9.89-8.42,11.43-14.22s4.46-11.41,6.28-17.25c.64-2.07.75-5.69-.48-6.73-5.79-4.89-11.74-9.85-18.36-13.44-9.29-5-19.2-8.92-28.89-13.19-13.12-5.79-26.43-10.73-41-11.37-4.22-.18-8.36-1.93-12.58-2.75-5.38-1-10.79-2.65-16.2-2.66-33.86-.1-67.61-2.76-101.43,4.9-19.21,4.35-37.74,9.44-55.63,17.37-5.81,2.58-11.5,5.83-17.6,7.26-5.89,1.38-7.1,2.42-4.71,8.38,3.19,7.95,6.23,16,9.23,24,5,13.33,9.63,26.81,15,40,6.61,16.35,13.64,32.55,20.75,48.69,7.19,16.31,14.76,32.45,22,48.73,1,2.31.74,5.24,1.89,7.45,1.35,2.57,3.29,6.23,5.53,6.69,14.24,2.9,28.6,5.26,43,7.4,17.22,2.55,34.48,4.87,51.77,6.81,2.2.24,5.9-1.81,6.91-3.8,5.29-10.4,10-21.08,14.79-31.75,9.36-21.08,19-42.07,27.77-63.37,6.91-16.71,12.87-33.81,19.14-50.77q8.92-24.07,17.59-48.25c2-5.48,4.64-6.23,9.38-2.78,4.24,3.07,8.56,6.27,13.31,8.36,5.19,2.27,7.83,5.82,7.24,11.06-1,9.16-2.72,18.26-4.2,27.38C780.57,311.33,780,313.29,779.05,317.18ZM626.77,691.57l-3.61.52c-.3,4.64-.71,9.27-.87,13.91-.21,6,.74,12.14-.51,17.86-2.72,12.45-6.33,24.72-9.91,37-3.45,11.79-7.42,23.42-10.89,35.2-.53,1.8.15,4.16.91,6,.18.45,2.86,0,4.38-.23,3.25-.43,6.48-1.2,9.75-1.42,16.41-1.08,33-1,49.22-3.31,13.78-2,27.23-6.39,40.76-10,27.93-7.44,52.74-20.85,74.88-39.38,20.85-17.46,33.85-39.88,38.53-66.24,4.79-27-2-52.25-20.66-72.59a81.15,81.15,0,0,0-29.16-20.08C750.87,581.47,731,577,711.65,571.36c-2-.59-4.31-.33-6.39-.82-6.89-1.61-13.93-2.88-20.54-5.28-4.44-1.61-6.42-.83-6.92,3.57-.62,5.46-1.14,10.95-1.31,16.43-.07,2.4.19,6.39,1.43,6.91,2.47,1,5.8.48,8.64-.07,6.45-1.24,12.87-4.14,19.21-3.9,4.1.15,9.94,3.72,11.71,7.36,6.52,13.4-1.75,30.59-17.64,29.18a101.14,101.14,0,0,0-16.5.34c-7.34.55-12.45,5.79-12.92,12-1.69,22.13-4.48,44.25.47,66.34,2,8.82,3.31,17.79,5.58,26.53,3.36,12.89,7.47,25.58,10.93,38.44,3.83,14.25,6.17,19.84-10.11,22.24-1.59.23-3,1.41-4.6,2-4.71,1.62-14.37-5.62-12.63-10,2.24-5.62.71-10.24-1.14-15.14s-4.21-9.62-5.68-14.62c-3.06-10.44-6-20.93-8.39-31.54-2.11-9.47-3.53-19.11-4.89-28.73-.7-5,.94-8.93,6.8-9.92,4-.68,6.09-3.11,4-7.2a94.36,94.36,0,0,0-7.41-13c-1.44-2-4.31-3-6.53-4.45-.72,2.6-2.08,5.22-2,7.8.11,4.5,2.38,9.24,1.5,13.4-4.87,22.89,2.91,44.48,6,66.54.16,1.15.94,2.19,1.29,3.33,3.83,12.22,7.68,24.44,11.35,36.71.33,1.12-.2,3.45-.91,3.72-1.29.51-3.57.47-4.45-.38a12,12,0,0,1-2.89-5.42c-2.58-9.82-3.87-20.13-7.64-29.46-6.27-15.56-6.34-32-9.13-48.06C629.08,701.24,627.83,696.42,626.77,691.57ZM61.59,182.33l2.09,1.8c1.81-1.39,3.68-2.71,5.42-4.19,13.28-11.29,26.34-22.86,39.84-33.89,23.76-19.43,49.61-35.8,76.79-49.92,18.79-9.76,38.08-18.56,57.27-27.5a162.15,162.15,0,0,1,19.31-7.21c9.23-2.94,18.58-5.57,27.92-8.15,12.39-3.43,24.72-7.17,37.27-9.9,13.7-3,27.62-5,41.46-7.39,18.8-3.25,37.63-6.38,56.42-9.72,5.16-.92,9,0,12.61,4.35,1.56,1.87,6.64,2.59,9.12,1.52,6.08-2.63,9.63-12.05,7.59-17.78-2.55-7.13-8.49-6.74-14.37-6-16.1,2-32.22,3.79-48.27,6.09-11.29,1.62-22.5,3.85-33.71,6-2.57.48-5,1.71-7.52,2.35-4.61,1.16-9.25,2.18-13.9,3.18-3.25.71-6.59,1.05-9.78,2-10.68,3.06-21.31,6.32-32,9.47-9,2.68-18.38,4.59-27.06,8.13-16.49,6.74-33,13.66-48.77,21.88-23.89,12.45-47.64,25.33-70.57,39.46-16.2,10-31.42,21.74-46.18,33.81C89.9,151,78.36,162.87,66.53,174.31,64.34,176.42,63.21,179.63,61.59,182.33ZM1190,184.56l2.24-2c-2-3-3.59-6.45-6.14-8.9-13.45-12.89-26.25-26.7-41-38A747.6,747.6,0,0,0,1083,93.44c-16-9.84-33.1-17.75-49.85-26.25-9.29-4.72-18.72-9.23-28.34-13.21-13.56-5.61-27.19-11.18-41.12-15.73C953.56,35,942.92,33.38,932.55,31c-1.38-.32-2.62-1.18-4-1.55-4.76-1.27-9.53-2.51-14.33-3.61-2.77-.65-5.64-.9-8.42-1.52-15.06-3.36-30.1-6.79-45.16-10.14-1.38-.3-2.88,0-4.3-.22-9-1.15-18-2.39-27-3.52-6.87-.86-13.78-2.3-20.63-2.12-3.13.08-7.07,2.77-9,5.45-3.59,4.86-1.41,11.57,4.55,17.18,3.87,3.65,7.21,4.1,11.69-.13a17.16,17.16,0,0,1,11.78-4.3c10.2.85,20.27,3.23,30.43,4.77,14.83,2.25,29.7,4.28,44.54,6.48,1.63.24,3.16,1.13,4.78,1.52,13.18,3.21,26.37,6.34,39.55,9.56,10.6,2.6,21.41,4.6,31.71,8.11a367.26,367.26,0,0,1,39,15.63c25.63,12.2,51.59,24,76.13,38.12a436,436,0,0,1,90.13,69.5C1185.68,181.91,1188,183.11,1190,184.56ZM457.47,310.14c-1.84,2.95-3.56,4.56-3.87,6.39-2.3,13.78-5.23,27.55-6.06,41.44-.46,7.57,1.54,15.89,4.59,22.94a83.31,83.31,0,0,0,35,39.73c10.66,6.17,22.09,11,33.27,16.26,1.26.59,4.18.43,4.44-.19a6.83,6.83,0,0,0,0-5.18c-2.83-5.53-6.2-10.77-9.11-16.25-7.58-14.28-14.65-28.85-22.62-42.9-8.59-15.16-18.08-29.81-26.95-44.82C463.15,322.41,460.8,316.85,457.47,310.14Zm12.45,7.1,3.07-1a42.21,42.21,0,0,0-.05-6.75c-1.82-11.06-4.5-22-5.57-33.15A279.48,279.48,0,0,1,466,237.61c.71-16.8-1.77-34,4.87-50.31.47-1.16-1.63-4.78-2.91-5-6.89-1.16-7.6-5.31-6.66-11,2.06-12.47,3.8-25,5.86-37.46.92-5.61,2.35-11.12,3.44-16.7.86-4.4,2.31-8.88,2-13.22-.16-2.13-3.71-4-5.72-6-1.85,2.11-5,4-5.33,6.34-3.25,23.12-6.72,46.25-8.74,69.5-2,23.55-3.37,47.23.75,70.81,3.07,17.56,5.29,35.27,8.74,52.74C463.63,304.15,467.3,310.59,469.92,317.24Zm262.22,770.49,3,.23c.23,5.5,2.35,11.91.24,16.26-3.09,6.35-2.5,11.29.64,16.59,1.19,2,3.39,3.4,5.12,5.07,1.06-2.54,2.69-5,3.07-7.64.75-5.2.8-10.51,1.19-15.77.12-1.63,1.16-3.68.51-4.8-4.59-7.85-2.93-16.17-2.64-24.49.1-3-1.43-6-2.21-9-2.41,1.67-4.79,3.38-7.25,5-.51.33-1.26.29-3.56.74,1.82-6.9,4.05-12.85,4.82-19,.79-6.35.17-12.89.17-19.34l-2.46-.12a15.87,15.87,0,0,0-1,2.33c-5.19,19.7-4.65,40.42-12.34,59.87-5.54,14-7.63,29.43-11,44.28a49.82,49.82,0,0,0-1.31,12.8c.1,2.45,2,4.83,3,7.24,1.58-1.87,4.05-3.51,4.61-5.65,3.48-13.32,6.79-26.71,9.63-40.18C726.2,1103.66,726,1094.64,732.14,1087.73Zm52-861.2c4.39,1.31,7.05,2.14,9.73,2.88,7.69,2.12,8.22,1.68,8.15-6.24-.11-11.49-.43-23-.21-34.45.56-28.62-3.51-56.66-10.35-84.33-.56-2.28-3.55-4-5.41-5.91-1.43,3.4-3.45,6.69-4.06,10.22-.34,1.94,2.28,4.21,2.59,6.47q4.1,29.38,7.68,58.84c.25,2.05-.75,5.82-2,6.24-7.78,2.58-5.74,8.18-4.83,13.52,1,5.66,1.45,11.47,3.16,16.9C790.41,216.39,791,221.35,784.18,226.53ZM612.06,558c1.91,8.87,3.81,17.44,5.55,26,.56,2.8.64,5.69,1,8.53,1.29,9.62,2.54,19.24,4,28.84.6,4,1.6,8,2.42,11.94l2.38-.09a70.72,70.72,0,0,0,2-7.86c1.85-13.22,3.28-26.5,5.43-39.67.95-5.82,3.3-11.4,4.95-17.11,1.78-6.12,0-10.54-4.39-10.59C627.35,558,619.32,558,612.06,558ZM739.45,383.36l-2.25-1.66c-1.93,1.7-4.12,3.2-5.74,5.16-2.82,3.4-5.35,7-7.86,10.66a27.3,27.3,0,0,0-3.13,5.57c-4.68,12.15-8.19,24.89-14.09,36.4-7.25,14.15-16.44,27.3-24.82,40.87-1.13,1.82-2.66,3.44-3.53,5.37-.51,1.11-.54,3.49.05,3.83a5.41,5.41,0,0,0,4.41.3,13,13,0,0,0,4.92-4.06c6.41-9.14,13.09-18.14,18.76-27.73,12.92-21.86,18.05-47.42,32.2-68.76C739.39,387.77,739.12,385.36,739.45,383.36ZM510.29,381c.75,3.11.85,5.4,1.82,7.23,3.65,6.85,7.91,13.39,11.33,20.34,3.56,7.23,7.28,14.57,9.37,22.28,2.83,10.41,8.89,14.53,19.2,11.72-3.33-3.8-7.72-7.32-10.15-11.89A123,123,0,0,1,532.09,407c-3-10.4-11.56-16.43-17.21-24.69C514.4,381.59,512.8,381.66,510.29,381ZM701.71,596.63c-9.41,1.93-17.3,2.47-24.24,5.31-6,2.45-11.06,7.3-16.12,11.59-1.39,1.17-1.27,4.13-1.84,6.27,2.15,0,4.54.65,6.38-.09,2.59-1.05,4.72-3.18,7.11-4.75,10.37-6.83,20.84-12.94,33.69-5.75,1.06.6,3.87.19,4.26-.57.75-1.46,1.11-4.38.25-5.15A89.08,89.08,0,0,0,701.71,596.63ZM557,605.85c3.29.4,5.45.12,7,.94,7.13,3.67,14,7.84,21.17,11.43,2.24,1.12,5.1,1,7.68,1.41-.4-2.82-.45-5.76-1.36-8.41-.45-1.31-2.54-2-3.79-3.11-8.81-7.64-19.87-9-30.67-10.09-4.13-.4-8.78,2.47-12.82,4.57-1.09.57-.81,3.78-1.16,5.78,2,.23,4.05,1,5.84.58A58.46,58.46,0,0,0,557,605.85ZM508.92,978.31c-.24-10.57-5-14.83-10.51-10.93-4.2,3-6.82,2.16-10.76-.24-2.25-1.36-6-.24-9.11-.23.08,2.89-.66,6.15.42,8.61,2.93,6.73,20.18,11.91,26.48,8C507.47,982.21,508.38,979.15,508.92,978.31Zm244.51,8c6.87-2.91,13.77-5.06,19.71-8.76,2.06-1.28,3.38-7.36,2.12-9.6-2.42-4.25-6.79-2.27-10.74-.44-2.43,1.12-5.54,1.06-8.34,1s-7.51-1.64-7.9-.84c-1.78,3.63-3.34,8-2.93,11.83C745.59,981.72,749.83,983.46,753.43,986.32Zm-215.75,192c-.95-1-1.65-2.47-2.51-2.57-8.29-1-7-7.37-7.9-13a81.57,81.57,0,0,0-4.83-17c-.83-2.06-4-3.18-6.09-4.73-.4,2.71-1.63,5.62-1,8.09,1.18,4.81,4.71,9.32,4.86,14,.26,8.44,6.34,12.37,11,17.47.81.88,3,.92,4.42.65C536.4,1181.17,536.9,1179.55,537.68,1178.37Zm125.83-696c-8.39,7.47-23.33,53.5-21.21,61.36Zm39.88,10.31c-7.13,8-13.65,26.72-11.84,32.24Zm-98.83,65.27c0-1.11,0-2.22,0-3.33H584.08L584,557Zm77.1-4.22,2.7.66q1.8-8.76,3.62-17.53l-2.07-.44c-.52,2.91-.89,5.86-1.59,8.72S682.56,550.86,681.66,553.72Z"/><path class="cls-1" d="M749.9,1175.35c3.32,0,6.65-.12,10,0,4,.17,7.33,1.7,6.35,6.46s-4.56,5.82-8.81,4.69a71.08,71.08,0,0,1-11.3-3.79c-1.23-.57-2.69-3.58-2.23-4.28,1.21-1.85,3.42-3,5.23-4.51C749.37,1174.42,749.64,1174.88,749.9,1175.35Z"/><path class="cls-1" d="M327.58,1282.14c7.79-3.47,11.75-8.39,11.75-14.68v-14c0-5.22-2.16-12.29-12.41-16.43-7.31-2.93-16.06-4.43-25.95-4.43H258.06V1339.5h45.73c9.59,0,18-1.74,25-5.28,7.55-3.77,11.57-9.89,11.57-17.62V1297C340.41,1290.23,336.09,1285.26,327.58,1282.14Zm-29.66-8.93V1251.7c1.92.24,3.47.84,3.47,2.1V1271C301.39,1272.31,299.84,1272.91,297.92,1273.21Zm3.47,19.42v25.59c0,1.26-1.55,1.92-3.47,2.16v-29.85C299.84,1290.77,301.39,1291.37,301.39,1292.63Z"/><polygon class="cls-1" points="667.87 1232.58 698.07 1232.58 679.79 1339.5 639.7 1339.5 631.67 1297.31 624.06 1339.5 588.82 1339.5 571.14 1232.58 603.8 1232.58 609.13 1266.02 616.51 1232.58 654.8 1232.58 660.62 1266.38 667.87 1232.58"/><polygon class="cls-1" points="849.94 1232.58 880.2 1232.58 880.2 1339.5 845.26 1339.5 830.64 1299.58 830.64 1339.5 800.43 1339.5 800.43 1232.58 838.49 1232.58 849.94 1264.4 849.94 1232.58"/><path class="cls-1" d="M994.61,1274.23v-21.69c0-13.85-13.43-20.92-39.92-20.92-27.8,0-42,7.61-42,22.66v65.92c0,7.13,3.84,12.64,11,15.88a56.34,56.34,0,0,0,22.83,4.38,50.29,50.29,0,0,0,23.26-5.7l3.83,4.74h20.92v-56H953.38l-.18-32a24.43,24.43,0,0,1,4.19,0v22.71ZM957.39,1305v15.16a24.43,24.43,0,0,1-4.19,0V1305Z"/><polygon class="cls-1" points="521.58 1320.56 549.92 1320.56 549.92 1339.5 485.92 1339.5 485.92 1232.58 549.5 1232.58 549.5 1251.52 521.58 1251.52 521.58 1272.85 546.81 1272.85 546.81 1291.07 521.58 1291.07 521.58 1320.56"/><rect class="cls-1" x="721.62" y="1232.58" width="43.03" height="106.91"/><path class="cls-1" d="M608.24,1419.44l-.48,2h1Z"/><polygon class="cls-1" points="445.7 1357.65 482.2 1357.65 482.2 1369.34 470.94 1369.34 470.94 1422.2 456.97 1422.2 456.97 1369.34 445.7 1369.34 445.7 1357.65"/><polygon class="cls-1" points="431.14 1357.65 442.89 1357.65 442.89 1422.2 429.11 1422.2 429.64 1386.18 423.89 1398.35 419.34 1398.35 413.64 1386.18 414.12 1422.2 400.4 1422.2 400.4 1357.65 412.14 1357.65 421.62 1376.83 431.14 1357.65"/><path class="cls-1" d="M496.65,1410.63a6.52,6.52,0,0,1,0,10.37,8.52,8.52,0,0,1-5.64,2,8.78,8.78,0,0,1-5.69-2,6.57,6.57,0,0,1-2.58-5.15,6.51,6.51,0,0,1,2.64-5.22A9.2,9.2,0,0,1,496.65,1410.63Z"/><path class="cls-1" d="M548.13,1358.44c-6.83,0-12.17,3.23-15.88,9.7-3.54,6.12-5.28,13.91-5.28,23.32,0,9.94,1.86,18,5.63,23.79,3.9,6.17,9.18,9.29,15.53,9.29,6.17,0,11.38-3.06,15.4-9.17,3.84-5.82,5.81-13.85,5.81-23.91,0-9.41-1.86-17.26-5.45-23.38C560.05,1361.67,554.72,1358.44,548.13,1358.44Zm.12,54.41c-.78,0-3.06,0-5-4.67-1.56-3.78-2.33-9.41-2.33-16.72,0-7,.77-12.59,2.27-16.54,1.86-4.8,4.08-4.8,4.8-4.8s3,0,5,4.73c1.56,3.78,2.34,9.41,2.34,16.61s-.78,12.7-2.34,16.6C551.06,1412.85,548.91,1412.85,548.25,1412.85Z"/><path class="cls-1" d="M607.7,1408.6c-2.28-8.39-5-14.21-8.15-17.5a16,16,0,0,0,5.87-13c0-5.63-1.86-10.25-5.51-13.72s-8.75-5.16-15.41-5.16h-9.82v64.55h13.6v-26.43a4.53,4.53,0,0,1,1.32,1.32c.84,1.14,2.4,4.43,4.73,13.06l3.18,12h9.77l.48-2.28.48-2,1-4.79Zm-15.88-30.27c0,4.68-1.62,6.17-3.54,6.65V1371.2C590.26,1371.8,591.82,1373.54,591.82,1378.33Z"/><path class="cls-1" d="M611.05,1421.48l-.54-2.1v-.06l-1.25-4.67-1,4.79-.48,2-.48,2.28h4.37Z"/><path class="cls-1" d="M610.51,1419.38l-.47,2.1h1Z"/><path class="cls-1" d="M634.67,1358.85H621.6l-12.34,55.8,1.25,4.67v.06l.54,2.1.6,2.28h9l2.82-13.31h9.41l2.58,13.31h13.42Zm-4.26,39.92h-4.73l2.39-12Z"/><path class="cls-1" d="M611.05,1421.48l-.54-2.1v-.06l-1.25-4.67-1,4.79-.48,2-.48,2.28h4.37Z"/><path class="cls-1" d="M677.88,1389c4.55-3.36,6.83-7.61,6.83-12.71,0-4.73-2-8.81-6.11-12.16-3.9-3.3-8.87-4.92-14.75-4.92H650.79v64.55h10.85c7.67,0,13.72-1.8,18-5.34a17.65,17.65,0,0,0,6.66-14.26C686.33,1397.45,683.51,1392.42,677.88,1389Zm-13.49-4.44V1371a8.08,8.08,0,0,1,4.8,1.74,5.85,5.85,0,0,1,1.91,4.85,6.59,6.59,0,0,1-2,5.16A7.85,7.85,0,0,1,664.39,1384.56Zm0,27.45v-15.64a9,9,0,0,1,6.12,2.22,7.88,7.88,0,0,1,2.21,5.87,6.8,6.8,0,0,1-2.21,5.51A9.36,9.36,0,0,1,664.39,1412Z"/><path class="cls-1" d="M747.46,1367c-3.66-6.47-8.69-9.76-15-9.76-6.47,0-11.56,3.29-15.1,9.82-3.29,6.06-5,13.85-5,23.26,0,10,1.8,17.92,5.27,23.73,3.71,6.17,8.69,9.35,14.8,9.35,5.88,0,10.79-3.12,14.63-9.23,3.65-5.81,5.45-13.85,5.45-23.85C752.55,1380.91,750.87,1373.06,747.46,1367Zm-14.93,44.71c-.66,0-2.69,0-4.49-4.67-1.44-3.78-2.22-9.41-2.22-16.72,0-7.07.72-12.65,2.16-16.6,1.74-4.8,3.71-4.8,4.37-4.8s2.7,0,4.56,4.74c1.44,3.77,2.22,9.41,2.22,16.66s-.78,12.7-2.22,16.6C735.71,1410.09,734.21,1411.71,732.53,1411.71Z"/><path class="cls-1" d="M706.58,1413.15a11.11,11.11,0,0,1,2.28,7.19c0,6.89-4,11.93-11.75,14.92l-2.63,1-.6-4.49.54-.72a11.59,11.59,0,0,0,2.39-7.19,6.52,6.52,0,0,1-4.25-6.41,7.17,7.17,0,0,1,2.28-5.34A8.21,8.21,0,0,1,706.58,1413.15Z"/><polygon class="cls-1" points="778.62 1358.02 791.63 1358.02 791.63 1422.56 778.62 1422.56 778.62 1396.13 770.35 1396.13 770.35 1422.56 757.34 1422.56 757.34 1358.02 770.35 1358.02 770.35 1384.44 778.62 1384.44 778.62 1358.02"/><path class="cls-1" d="M851.37,1367c-3.65-6.47-8.68-9.76-15-9.76-6.53,0-11.56,3.29-15.1,9.82-3.3,6.06-5,13.85-5,23.26,0,10,1.73,17.92,5.27,23.73,3.71,6.17,8.69,9.35,14.8,9.35,5.88,0,10.79-3.12,14.63-9.23,3.65-5.81,5.45-13.85,5.45-23.85C856.47,1380.91,854.73,1373.06,851.37,1367Zm-14.92,44.71c-.66,0-2.75,0-4.49-4.67-1.5-3.78-2.22-9.41-2.22-16.72,0-7.07.72-12.65,2.16-16.6,1.74-4.8,3.71-4.8,4.37-4.8s2.7,0,4.56,4.74c1.44,3.77,2.22,9.41,2.22,16.66s-.78,12.7-2.22,16.6C839.63,1410.09,838.13,1411.71,836.45,1411.71Z"/><rect class="cls-1" x="798.64" y="1358.02" width="13.06" height="64.55"/><path class="cls-1" d="M455.11,1298.14c0-7.79-4.25-13.48-12.64-16.84,8.33-3.53,12.53-8.81,12.53-15.76v-12.1c0-5.16-2.1-12.17-12.29-16.36-7.31-3-15.94-4.5-25.71-4.5H372.77V1339.5h39.38v-48.31c2.45.3,4.43.9,4.43,2,0,.36-.12,4.61-.36,12.83l-.18,6.29c0,1.74,0,3.35.12,4.85h-.06v22.36h38.54V1313c-.06-1.14-.06-2.34-.06-3.66l.06-1.26Zm-38.65-27.68c0,1.37-2.16,2-4.31,2.21v-21c2.09.24,4.31.84,4.31,2.16Z"/></svg>