<svg id="Layer_1" data-name="Layer 1" xmlns="http://www.w3.org/2000/svg" viewBox="0 0 3271.36 1434.24"><path d="M857.65,861.12c-3.56-18.56-11-35.9-17.86-53.41a77.09,77.09,0,0,0-19.48-29c-13.48-12.57-28.09-23.1-45.19-30.1-4.44-1.82-8.79-3.87-13.09-6-6.28-3.15-6.74-6.14-1.73-10.82,13.17-12.28,26.44-24.45,39.52-36.82a39.68,39.68,0,0,0,7.12-8.77c6.3-10.92,12.3-22,18.31-33.09,4.12-7.58,7.79-15.36,9.17-24,1.29-8.1,2.1-16.31,4-24.27,2.45-10.51.79-20.78-1.1-30.93C831.55,543.17,815,519.06,790.57,500c-14.35-11.21-30.5-18.54-48.7-20.21-15.52-1.43-31.14-1.74-46.71-2.69-5.37-.33-11-.23-16-1.83-10.95-3.51-22-3.63-33.32-3.83-14.73,1.46-29.48,2.71-44.17,4.48a157.58,157.58,0,0,0-24.16,4.43c-26.63,7.56-47.67,22.57-59.71,48.11C511.4,542,506.2,556.15,500.39,570c-3.33,7.89-3.37,15.91-1.52,24.12,1.37,6,2.55,12.14,3.74,18.22,3,15.4,7.67,30.21,15.27,44,12.23,22.23,30,39.21,50.26,54,8,5.89,16.16,11.94,23.07,19.06a66.11,66.11,0,0,0,20.38,14.39c6.55,3,13.13,5.95,19.53,9.24,11.24,5.77,15.64,13.33,13.37,27.83A173.42,173.42,0,0,0,643,819.17c1.22,18.39,2,36.69-.68,55.06-1,6.64-.15,13.55-.2,20.33-.06,7.18,0,14.36-.35,21.53-.44,9.18-1.36,18.34-1.81,27.52-.34,7.19-.07,14.41-.44,21.59-.43,8.44-4.45,12.26-11.54,12.69-6.58.4-13.16,1-19.72,1.56a102,102,0,0,0-13.09,1.62c-4.77,1.1-9.48,3.37-10.94,8.4-3.48,12.09,3.62,22.24,15.79,22.76a190.19,190.19,0,0,1,38,5.07,36.55,36.55,0,0,0,18.92-.36c11.19-3.08,22.47-3.1,33.94-1.8,16.8,1.91,33.55,1.9,49.84-3.78a21.16,21.16,0,0,1,7.08-1,76.19,76.19,0,0,0,27.12-4.5c13.72-5,27.23-10.55,40.77-16a22.61,22.61,0,0,0,5.49-3.62c18.14-14.77,31.2-33.1,38.6-55.36,3-9.17,5.53-18.58,4.32-28.26C862.41,888.71,860.29,874.86,857.65,861.12Zm-205-248.39c-1.6,12-1.7,24.32-2,36.5-.31,11.6-.07,23.21,0,34.81,0,11.26-4,21.12-10.65,30-3.42,4.53-5.76,5.16-10.85,2.37A165.24,165.24,0,0,1,614.45,707c-16.09-11.2-32.41-22.14-46.65-35.73a147.13,147.13,0,0,1-24.55-30.19c-5.58-9.19-8.25-19.2-10.19-29.81-3-16.64.34-32.69,2.47-48.83,1.6-12.07,7.4-22.77,15.32-32.1A34,34,0,0,1,565,520.5c25.23-9.53,51-13.14,77.79-7.75,11.23,2.27,12.72,3.88,12.76,15.55,0,9.81,0,19.61,0,29.41A352.92,352.92,0,0,1,652.69,612.73Zm73.77,25.83c.66-14.57,2.12-29.1,2.89-43.66.59-11.17.35-22.39,1.08-33.54.71-10.74,2.08-21.44,3.4-32.13a32.92,32.92,0,0,1,2.42-8c1.87-4.67,5.06-6.62,10-5.45,6.6,1.58,13.1,3.62,19.57,5.69a12.67,12.67,0,0,1,4.46,2.93c5.83,5.47,11.82,10.81,17.22,16.69a80.43,80.43,0,0,1,10.66,14.33,143.09,143.09,0,0,1,14,36.25c.43,1.73.58,3.53.78,4.79A144,144,0,0,1,802.06,638a154.22,154.22,0,0,1-39.35,53.81c-9.21,8.23-19.5,15.26-29.34,22.79-1.9,1.46-3.9,3.12-6.47,1.34-2.33-1.61-3.15-3.86-3-6.73C724.76,685.66,725.39,662.1,726.46,638.56ZM833.66,921a169.48,169.48,0,0,1-9.25,23.37c-6.13,12.64-16.49,21-29.43,26-18.56,7.28-37.59,12.54-57.73,13.38-4.58-.25-9.2-.19-13.73-.82-7.91-1.1-12.78-6.31-14.09-14.16-1.37-8.22-.06-16.34.63-24.51,1.22-14.53,3.19-29.1,3.08-43.64-.27-34.07,2-68,4.78-101.86.45-5.58.52-11.19,1-16.77a40,40,0,0,1,1.84-9.35c1.25-3.6,3.9-5.22,7.57-4.33,24.84,6,49.13,13.33,69.12,30.39a78.89,78.89,0,0,1,20.59,27.73c11.37,24.94,16.45,51.36,17.72,78.55A47.33,47.33,0,0,1,833.66,921Z"/><path d="M1922.47,970.47c-8.4-.15-16.82-.28-25.2.17-10.76.59-20.73-.73-28.91-8.61-3.31-3.2-6.93-6.06-10.27-9.22-13.14-12.42-24.18-26.66-35.47-40.69a557.38,557.38,0,0,1-62-94.81c-3.92-7.62-7.18-15.62-10.35-23.6-1.58-4-.61-5.79,3.06-8a32.66,32.66,0,0,1,6-2.65c5.3-1.83,10.67-3.44,16-5.3,11.4-4,22.22-9.25,31.62-16.91,9.6-7.84,19.09-15.86,28.25-24.21,11.45-10.43,21.66-21.82,27.41-36.67,11.21-29,17-59.12,20.85-89.76-1.34-8.47-2.29-17-4.11-25.41a179.3,179.3,0,0,0-23.34-58.2c-10.81-17.11-24.39-30.7-45-35.3-.77-.17-1.52-.5-2.28-.75-22.19-7.45-44.92-11.61-68.4-11-14.2.34-28.4,1.07-42.6,1.17-25.46.18-50.15,4.75-74.37,12.22a34.65,34.65,0,0,0-7.67,3.33c-5.89,3.57-8.14,9.51-6.18,15.38a13.4,13.4,0,0,0,14.46,9.28c4-.39,7.88-1.37,11.86-1.83,5.35-.63,10.72-1.21,16.1-1.44,5.11-.21,8.57,2.44,10.95,7a46.87,46.87,0,0,1,5,19.62c.95,17.77,1.9,35.55,2.31,53.34.34,15.23,1.22,30.32,4.66,45.25a75.16,75.16,0,0,1,.61,32.19c-3.32,16-4.41,32.07-4.37,48.31,0,10.8.05,21.61,0,32.41a41,41,0,0,1-.7,7.74c-.93,4.74-3.67,8-8.66,8.75-3.74.58-7.51,1.08-11.29,1.38-5.81.45-11.6,1-16.86,3.79-10,5.38-11.3,17.69-2.5,24.92,4.71,3.86,10,5.64,16.21,4a69.9,69.9,0,0,1,13-2.17c6.55-.41,10.26,3.37,10,9.72-.65,14.78-1.43,29.56-2.06,44.34q-1.77,41.35-3.42,82.7c-.29,7-.32,14-1,21-.72,7.66-4,10.83-11.72,12.13-3,.49-6,.69-8.94,1.09a23.36,23.36,0,0,0-13.34,6.31,12.31,12.31,0,0,0-.47,17.73,16,16,0,0,0,11.69,5.34c3.4.11,6.81.23,10.2,0,12.28-.85,24.38-.07,36.26,3.32a25.88,25.88,0,0,0,5.31.91q25.76,1.74,51.51,3.37a11.14,11.14,0,0,0,3.59.07c2.2-.65,4.69-1.18,6.39-2.58,5.69-4.69,7.33-11.32,7.32-18.31,0-7.51-4.33-12.56-11.74-13.68a50.24,50.24,0,0,0-10.76-.06c-11.49.75-15.07-2.78-13.86-14.31.87-8.36,2.36-16.66,3-25,1.09-14.34,2-28.71,2.47-43.09.37-12.17-.12-24.36-.06-36.55,0-4.59.49-9.18.78-13.77a10.5,10.5,0,0,1,.5-3.54c.51-1.15,1.46-2.76,2.39-2.9s2.26,1.15,3.31,1.95c.44.33.63,1,.94,1.51,5.39,8.67,10.59,17.46,16.22,26,9.37,14.18,18.65,28.45,28.66,42.19,13.31,18.27,27.29,36,40.93,54.09a34.44,34.44,0,0,1,3.73,6.11c1.21,2.57.47,4.74-2.28,5.87a47.91,47.91,0,0,1-5.11,1.72c-4,1.15-8.18,2-12.15,3.38A14.45,14.45,0,0,0,1798.54,997c.87,6.59,6.28,11.12,14,11.43,3.79.16,7.6,0,11.39-.23,16.78-.87,33.56-1.81,50.34-2.73l0,.92c10.4,0,20.8,0,31.21,0,5.2,0,10.4.32,15.6.2,7.23-.16,13.38-2.34,16.36-9.79a34.67,34.67,0,0,1,2.44-4.13c2.95-5.23,2.57-9.77-1.19-14.4A20.61,20.61,0,0,0,1922.47,970.47Zm-185.91-219a108.77,108.77,0,0,1-.82-15.53c0-5.2.58-10.38.9-15.57l.52,0c-.7-12.57-1.5-25.13-2.06-37.7-.21-4.78,0-9.59.25-14.38.93-19.37,2.38-38.72,2.8-58.11.49-23.19.08-46.41.13-69.62,0-4.59.11-9.21.56-13.78.73-7.4,3.16-9.65,10.38-10.65,16.58-2.29,32.75-.22,48.58,4.79a39.26,39.26,0,0,1,9.6,4.76,14.06,14.06,0,0,1,6.7,12.59c0,12.39.62,24.78.85,37.16a52.3,52.3,0,0,1-.68,8.37c-4.43,31.31-6.77,62.82-8.86,94.34-.69,10.36-.12,20.8-.16,31.2,0,2.6-.31,5.2-.25,7.79.15,7-3.2,12.28-8.12,16.7-15.07,13.56-32.84,21.15-52.92,23.42C1739.35,757.7,1737.23,756.27,1736.56,751.45Z"/><path d="M1317.12,1004.33c8.37.34,16.83.33,25.07,1.63,7.68,1.21,15.23,3.07,23.08,3.46,14.58.73,29.15,1.76,43.72,2.81a11.17,11.17,0,0,0,9.58-3.81c4.43-4.7,5.92-10.3,5.92-16.49,0-8.12-3.66-12.84-11.65-14.26a44.23,44.23,0,0,0-10.73-.15c-11.6.82-15.44-3.16-14-14.73,1.51-12.3,3.2-24.59,4.39-36.93.82-8.54,1.21-17.16,1.26-25.75.09-13.78-.41-27.57-.36-41.36a165.28,165.28,0,0,1,1.34-17.33c.13-1.15,1.23-2.84,2.17-3.08s2.53.81,3.37,1.71c1.07,1.14,1.61,2.75,2.5,4.08,14.79,22.35,29.14,45,44.54,66.92,12.87,18.31,27,35.76,40.52,53.62a24.45,24.45,0,0,1,3.14,5.07c1.47,3.46.66,5.18-2.79,6.57a38.8,38.8,0,0,1-4,1.24c-4.42,1.27-8.94,2.28-13.25,3.84-6.31,2.28-10.57,9.1-9.77,15,.9,6.67,6.29,11.59,13.64,12,4.38.22,8.8-.07,13.19-.29,16.38-.83,32.76-1.73,46.82-2.48,17.35.4,32.35.8,47.35,1.06,8.36.15,15.44-2.14,18.84-10.78a20.61,20.61,0,0,1,1.52-2.59c3.47-6.1,2.67-11.94-2.36-16.85a20.78,20.78,0,0,0-14.66-6c-8.6-.12-17.21-.15-25.79.26-10.54.5-20.32-.84-28.33-8.57-3.45-3.33-7.22-6.33-10.7-9.63-13.86-13.12-25.47-28.19-37.28-43.08-24.57-31-46-64-63.45-99.49-2.2-4.49-4.4-9-6.14-13.68-2.57-6.89-1.53-9.27,5.42-12,6-2.33,12.11-4.15,18.19-6.14,10.55-3.43,20.7-7.93,29.32-14.85,12.31-9.88,24.37-20.15,35.83-31a104,104,0,0,0,17-20.79,113.24,113.24,0,0,0,13-32.15c2.89-11.64,5.93-23.26,8.32-35,2.15-10.57,3.88-21.25,5.12-32,1.21-10.32-2.11-20.21-4.42-30.12-5.12-22-13.52-42.69-26.62-61.27-8-11.3-17.3-21.17-30.6-26.08-25.49-9.41-51.61-15.95-79.07-15.35-15.2.33-30.4,1-45.6,1.17-25.44.29-50.11,5-74.33,12.39a28.79,28.79,0,0,0-7.55,3.6c-5.56,3.72-7.58,9.54-5.59,15.08a13.31,13.31,0,0,0,14.56,9.09c4.17-.46,8.29-1.38,12.46-1.88,5-.6,9.93-1.12,14.91-1.39,5.64-.32,9.83,2.33,11.65,7.62,1.93,5.62,4.2,11.4,4.59,17.23,1.35,20.34,1.93,40.73,2.86,61.09.56,12.19,1.1,24.33,3.89,36.32a89.5,89.5,0,0,1,.82,37.52,177.43,177.43,0,0,0-3.31,26.75c-.61,17-.36,34-.53,51a42.56,42.56,0,0,1-.56,7.75c-1,5.18-3.92,8.72-9.43,9.49-3.56.49-7.13,1-10.71,1.22-6,.39-12,1-17.38,4-7.08,4-9.63,11.18-7,18.39,2.29,6.25,12.85,12.73,19.62,10.61a66.3,66.3,0,0,1,14.17-2.44c6.32-.55,10.54,3.19,10.31,8.8-.44,11.19-1,22.37-1.56,33.55-1.07,23-2.18,45.93-3.18,68.89-.66,15.18-1.06,30.37-1.74,45.55-.36,8.2-3.81,11.9-11.91,13.18-2.56.4-5.17.5-7.76.76a23.8,23.8,0,0,0-14,6.17c-5.84,5.3-6,12.9-.38,18.5a15.79,15.79,0,0,0,11.25,4.93C1308.32,1004.57,1312.73,1004.15,1317.12,1004.33Zm81.45-315.54c0-12.17.41-24.35.8-36.52.52-15.77,1.5-31.54,1.71-47.31.3-22.19.05-44.38.1-66.57a117,117,0,0,1,.66-12.56c.7-6.32,3.28-8.76,9.42-9.65,16.75-2.44,33.12-.44,49.18,4.46a38.66,38.66,0,0,1,9.61,4.77,14.81,14.81,0,0,1,7.22,13.59c-.18,7.38.4,14.77.57,22.16a189.15,189.15,0,0,1-2.48,35.22c-1.84,11.2-2,22.67-3.26,34-2.83,26.66-4.86,53.38-3.71,80.19.54,12.59-4.89,21.37-14.57,28.39a97.43,97.43,0,0,1-46.39,18.21c-5.33.64-7.49-.78-8.23-6.13a100.83,100.83,0,0,1-.82-14.34c0-5.19.46-10.37.72-15.56h.5C1399.23,710.34,1398.59,699.57,1398.57,688.79Z"/><path d="M1255.84,984.52c-1.78-6.51-5.89-9.38-12.68-9.38-6.2,0-12.41.16-18.61,0-5.39-.15-10.79-.56-16.16-1.1-7.44-.74-12-5.08-14-12.12-1-3.45-1.67-7-2.46-10.51-8-35.53-14.69-71.3-18.9-107.5-1.79-15.36-2.12-30.71.52-46a13,13,0,0,0,.11-4.77c-2.61-12-2.2-24.26-3.23-36.4q-2.19-25.68-5.82-51.24c-2.41-17.23-5.39-34.38-8.53-51.49-3.22-17.5-7.81-34.82-8.53-52.66-.62-15.11-3.43-29.77-6.72-44.41-2.55-11.31-5.26-22.6-7.74-33.93-1.59-7.29,0-10,7.3-11.67a84.53,84.53,0,0,1,13.68-1.56c6.58-.36,13.2-.26,19.78-.62,7.15-.4,11.67-4.57,12.92-11.31a34,34,0,0,0-.28-13.56c-1.5-6.51-7.76-9.38-14.27-8.48-10.08,1.4-20.24,2.95-30.38,3.12-25.21.45-50.43.15-75.64.15v-.87c-9.41,0-18.82-.13-28.22,0a13.87,13.87,0,0,0-13.36,14.14,15.27,15.27,0,0,0,13.48,15.19c6.93,1,13.93,1.53,20.87,2.45,4.58.61,5.42,1.93,4.37,6.46a75.72,75.72,0,0,1-2.31,8.07c-15.13,43.17-25.43,87.56-33.71,132.46-3.64,19.69-7.82,39.21-15,58-2.4,6.3-3.49,13.12-5,19.75-3.42,15.42-6.58,30.91-10.08,46.31-3.28,14.43-7.18,28.72-10.23,43.2-4.53,21.52-8.38,43.19-12.86,64.73-3.65,17.62-7.6,35.16-9.77,53.08a110.4,110.4,0,0,1-8.64,31.75c-2.59,5.78-6.57,9.34-13.11,9.89-5,.42-10,1-14.88,1.91-7.05,1.22-12.2,9.28-10.43,16.22,1.54,6,5.53,9.44,11.72,10.5,10,1.73,20.36,2.12,29.83,6.45a6.78,6.78,0,0,0,2.34.47c13.18,1,26.36,2.16,39.23-2.33a26.93,26.93,0,0,1,5.89-1c11.14-1.23,22.31-2.19,33.41-3.71,4.28-.58,8.47-2.21,12.55-3.73a7.84,7.84,0,0,0,4-3.41c2.9-5.67,4.11-11.7,2.23-18-1.68-5.63-4.53-7.91-10.43-8.11-3-.11-6,.39-9,.36-7.23-.09-10.19-3.08-10.14-10.29a42.68,42.68,0,0,1,.75-6.54c1-6.12,2.06-12.23,3.06-18.34,5.65-34.34,11.18-68.7,17-103a89.19,89.19,0,0,1,5.25-17.16c.85-2.19,3-4.68,5.08-5.43,6.18-2.2,12.55-4.3,19-5.13,8.5-1.09,17.17-1,25.76-1.29,9.6-.36,19.28,0,28.77-1.17,9.82-1.26,16.5,4.73,18,13.43a59.65,59.65,0,0,1,.65,6c1.19,19,1.26,38,5.54,56.65.93,4.09,1.46,8.27,2.18,12.41q4.5,26,9,52c1,5.89,2.18,11.77,3.1,17.68.65,4.15-1.36,6.58-5.16,8.37-4.93,2.33-10.14,2-15.26,2.68-5,.63-10,1-14.78,2.31-6.16,1.7-9.63,7.42-9.32,13.83.29,5.91,4.47,10.7,10.81,11.94a46.33,46.33,0,0,0,9,.75c6.6,0,13.2-.26,19.8-.41,25.4-.6,50.79-1.24,76.19-1.74a11.56,11.56,0,0,0,10-5.59C1256.86,996,1257.43,990.36,1255.84,984.52ZM1145.05,768.86c-.28,3.84-2.55,6.18-6.41,6.88-1,.18-1.94.55-2.92.68-17.06,2.24-34.11,4.46-49.46,6.46-5.38-.44-9-.6-12.55-1.06-5.9-.77-8.91-4-9.07-10a44.63,44.63,0,0,1,.85-10.71c13.2-59.37,27.82-118.4,43.4-177.19a24.12,24.12,0,0,1,2.33-6.13c1.81-3,4.58-3.08,5.8.2a124.85,124.85,0,0,1,5.61,18.89c1.15,5.64,1.31,11.51,1.64,17.3,1.28,22.27,5.81,43.95,10.69,65.65,3.42,15.2,5.5,30.7,7.94,46.11,1.28,8.09,2.46,16.24,2.94,24.41C1146.21,756.5,1145.51,762.71,1145.05,768.86Z"/><path d="M2181.2,1012c8.74-.69,17.39-2.57,26.06-4a7.89,7.89,0,0,0,5.92-4.6c4.26-8.36,6.76-16.68,4.7-26.49-3.69-17.61-6.2-35.42-5.7-53.57a36.88,36.88,0,0,0-3-14.51c-3.21-7.83-12-9.35-18.37-3.91a15.18,15.18,0,0,0-5.71,10.22c-.64,6.34-1.47,12.76-1.18,19.1.43,9.77,1.79,19.51,2.66,29.27.68,7.55-2,11.16-9.39,12.87a47,47,0,0,1-19.65.1,181.9,181.9,0,0,0-20.75-3c-9-.63-18-.47-27-.77a72.89,72.89,0,0,1-9.56-.87c-9.15-1.56-14.44-7.62-14.89-16.84-.09-1.8,0-3.6,0-5.4-.24-17.6-.54-35.19-.72-52.79-.09-9.79.12-19.54,2-29.25a146.77,146.77,0,0,0,2.35-21.44c.48-11.18.29-22.39.58-33.59a83.61,83.61,0,0,1,1.21-11.9c1-5.71,4.6-9.24,10.18-10.54a85.21,85.21,0,0,1,10.06-1.58c13.78-1.49,27.37-3.7,40.09-9.61,7.93-3.69,12.62-10.08,15.72-18,2.9-7.44-5.17-18.09-12.83-16.85-3.54.58-7.2.52-10.72,1.21-12,2.35-23.9,5-35.87,7.35a47.36,47.36,0,0,1-10.11,1.1c-6.36-.14-10.86-4.26-12-10.51a25.54,25.54,0,0,1-.55-4.76c0-9.6,0-19.2,0-28.8,0-18.59.12-37.19-.06-55.78-.09-9.79-1-19.57-1-29.36.05-16.39.55-32.77.88-49.16.25-12.2.43-24.39.83-36.58.26-7.8,2.75-10.69,10.23-12.68a142,142,0,0,1,38.61-4.79c15.4.21,30.78,1.09,46.17,1.82,7.09.33,10.57,5.06,8.5,11.83a117,117,0,0,1-5.73,14.49c-3.29,7.14-1.67,13.16,3.41,18.69,3.5,3.81,7.73,6.28,12.8,4.39,4.9-1.84,8.54-5.82,8.92-11.15A76.6,76.6,0,0,1,2225,518.42a24.67,24.67,0,0,0,5.21-15.08c.12-7.51-4.3-12.61-11.75-13.22a52.18,52.18,0,0,0-9.6,0c-21,2.16-42,0-63,1.31-22.79,1.48-45.5,2.15-68.31,1.47-5.78-.17-11.63,1-17.37.56-19.74-1.59-39.43-3.77-59.16-5.44-8.76-.74-17.57-1.14-26.36-1-7.23.08-13.35,6.5-14.31,13.87-.86,6.63,2.45,12.16,9.84,14.47,6.64,2.08,13.58,3.21,20.41,4.64,4.1.86,8.29,1.34,12.37,2.28a8.93,8.93,0,0,1,7,6.69c1.22,4.63,2.9,9.25,3.33,14,1,10.55,1.62,21.14,1.8,31.73.61,35.79,1,71.58,1.4,107.36q.35,29.4.46,58.8c0,7-.21,14-.48,21-.28,7.28-2.82,10.41-9.75,12.46-2.11.63-4.18,1.43-6.33,1.86-5.56,1.1-9.12,4.53-11.8,9.32a13.37,13.37,0,0,0,10.1,20.06c2.39.28,4.76.64,7.14,1,12.16,1.8,15,4.82,15.9,16.93.13,1.79.17,3.6.13,5.39-.12,4.8-.48,9.6-.42,14.39.3,23.39.16,46.8,2.93,70.09a36.64,36.64,0,0,1,.07,7.18q-.9,11.36-2,22.7c-.8,8-1.68,15.91-2.59,23.86a14.26,14.26,0,0,1-8.14,11.84,20.54,20.54,0,0,1-8.64,1.81c-14.2,0-28.4-.46-42.6-.44-8,0-13.53,5.56-14.54,13.94-.7,5.75,4.74,12.34,11.37,14.2a187.92,187.92,0,0,0,37.76,6.57c17.54,1.22,35,3.17,52.57,4.53,6.78.53,13.5.19,20-2.78a27.73,27.73,0,0,1,10.44-2.35c25.59-.81,51.19-1.36,80.67-2.1C2163.61,1012.18,2172.45,1012.72,2181.2,1012Z"/><path d="M574.44,66.81a19.14,19.14,0,0,0,7.06,2.74c2.93.46,6,.11,9,.12,10.49,0,12.18,1.33,15.19,11.48a17.12,17.12,0,0,1,.46,1.74c3.06,15.3,6.54,30.53,9.08,45.91,4.43,26.84,8.06,53.81,12.5,80.64,2,12,5.39,23.8,7.62,35.79,3.88,20.84,7.42,41.75,11,62.65,3.44,20.31,6.81,40.63,10,61,1.48,9.45.65,19.15,3.43,28.53,1.37,4.64-.91,8.07-5.35,10.21-2,.94-4.15,1.47-6.18,2.31a41.15,41.15,0,0,0-7.07,3.22,8.66,8.66,0,0,0-4,9.36c.76,3.88,3.25,6.54,7.28,7,9.14,1,18.31,2.33,27.46,2.35a134.13,134.13,0,0,1,23.27,1.76,57.81,57.81,0,0,0,13.72.7c6.07-.39,10.35-4.4,10.76-10.2a15.93,15.93,0,0,0-2.23-8.42c-3.31-5.89-3.78-11.77-2.76-18.43,3.73-24.19,10.16-47.73,16.26-71.35a20,20,0,0,1,1.82-3.54c4.33,1.86,4.28,5.12,4.63,8.29.61,5.36,1.11,10.75,2.19,16,1.36,6.66,3.28,13.2,4.91,19.81,4.28,17.37,7.47,34.82,4.44,52.83-.8,4.76,2.83,9.49,7.92,10.24a60.78,60.78,0,0,0,11.37.37c8.43-.35,16.8-.41,25.06,1.75a22.12,22.12,0,0,0,6.54.66c12-.55,24-1.23,36-1.9a15.18,15.18,0,0,0,3.54-.61c4.43-1.34,8.7-6.36,8.92-10.36.25-4.44-2.45-8.2-7.73-10.25a59.85,59.85,0,0,0-7.51-2c-2.53-.61-5.12-1-7.61-1.73-5.8-1.75-7.52-4-7.23-10a92.49,92.49,0,0,1,1.62-14.29c5.84-28.41,12-56.75,17.79-85.16,4.55-22.13,9.1-44.27,13.18-66.5,4.16-22.62,7.49-45.4,11.65-68,5.71-30.93,14.73-61,23.12-91.31,2.62-9.45,7-12.63,16.93-12.8,2,0,4-.07,6,0a22.32,22.32,0,0,0,12-3.32,12.22,12.22,0,0,0-5.06-22.8c-1.79-.16-3.6-.1-5.4-.12-18.81-.27-37.61-.7-56.42-.74-8.79,0-17.59.65-26.37,1.14a16.15,16.15,0,0,0-11.25,5c-5.07,5.39-3.32,12.87,3.66,15.49a18.79,18.79,0,0,0,4.66,1.14c6.75.73,13.51,1.46,20.28,1.95,4.38.31,8.83-.08,13.19.38,6.45.69,7.64,2.17,6.78,8.55s-2,12.63-3.44,18.86c-5.86,25.74-12,51.42-17.79,77.18C840,174.25,837,188.54,834.4,202.9c-2.14,11.79-3.07,23.81-5.35,35.57-4.54,23.37-9.69,46.61-14.5,69.92-3.68,17.83-7.21,35.68-10.87,53.51-.42,2.07-.45,5-3.23,5.12-3.11.1-3.42-3-4-5.24-5.15-21.57-12.15-42.68-15-64.83-3.28-25.16-7.69-50.17-11.29-75.3a202.5,202.5,0,0,1-1.47-22.73c-.26-9.34-.53-9.83-10.08-9.18a128.64,128.64,0,0,0-13.1,1.59c-7.81,1.33-8.26,1.92-9.72,9.78a444.05,444.05,0,0,1-12.27,49.48,70.25,70.25,0,0,0-3.3,20,147.44,147.44,0,0,1-5.14,37.92c-4.17,15.45-7.87,31-11.83,46.53-.61,2.41-.73,5.24-4.69,6.34-1-2.32-2.33-4.54-2.79-6.92-2.86-14.93-6.3-29.8-8.08-44.87-4.54-38.57-10.13-76.94-17.73-115a229.66,229.66,0,0,1-3.9-29.09c-.73-10.39-1.08-20.76-3.86-30.88a28.49,28.49,0,0,1-.51-4.16c-1.43-11.7-2.94-23.39-4.27-35.1-.84-7.34-1.63-14.7-2-22.07-.32-5.94,1.27-7.29,7.43-7.4,9.41-.18,18.81-.23,28.21-.45,2.79-.06,5.73,0,8.31-.87A21.69,21.69,0,0,0,707.6,60c4.08-4,4.59-9.27,2.6-14.49-1.81-4.74-5.86-6.33-10.66-6.12-3.59.15-7.17.54-10.76.76-5,.3-9.95.73-14.92.75-14.4,0-28.81-.56-43.19,0-17.13.62-33.65,4.64-49.63,10.9a14.18,14.18,0,0,0-8.3,8.14C571.6,62.63,572,65.24,574.44,66.81Z"/><path d="M2467.59,1011.41c8.61,1.45,15.84-3.18,17.39-11.92a83,83,0,0,0,.68-9c.49-7.38.75-14.78,1.52-22.12,1.09-10.34,3-20.6,3.72-31a68.61,68.61,0,0,0-1.35-17.24,12.37,12.37,0,0,0-9.37-10c-4.59-1.17-8.22,1.33-10.94,4.75a13.56,13.56,0,0,0-2.47,6c-2.23,13.2-4.48,26.41-6.31,39.67-1.21,8.75-5.08,13.31-13.6,14-16.75,1.39-33.52,2.59-50.28,3.82a17.23,17.23,0,0,1-4.18-.2c-4.68-.79-5.32-1.85-6.08-6.65s-2-9.33-3.14-14c-1.17-4.85-2.87-9.62-3.54-14.53-1-7.32-1.38-14.72-1.87-22.1-.59-8.77-.8-17.57-1.56-26.33-1-11.14-2.66-22.22-3.44-33.37-1.13-16.14-.53-32.41-4-48.35a38.64,38.64,0,0,1-.39-4.18c-1.73-17.16-1.48-34.36-.57-51.54.88-16.55.49-33.21,3.77-49.59a40,40,0,0,0,.55-6.57q1-35.07,2-70.14a53.49,53.49,0,0,1,.28-7.18c3-18,3.32-36.22,2.91-54.45.65-16.38,1.16-32.76,2-49.12.49-9.25,4.1-12.15,13.13-11,9.32,1.2,18.62,2.65,27.9,4.17a10.62,10.62,0,0,0,8-1.51c9.35-6.12,8.69-22.43-1.18-27.72-9.58-5.13-20.12-6.87-30.67-7.62-15.95-1.13-32-1.5-47.95-2a154.15,154.15,0,0,0-52.58,7.94,106.21,106.21,0,0,0-17.09,7.24c-5.63,3-8.53,11.77-6.14,16.61s8.66,9.86,15.88,7.6c5.68-1.78,11.73-2.5,17.67-3.25,8.55-1.08,12.72,2.84,12.9,11.46.14,6.79.19,13.6.64,20.38a140.36,140.36,0,0,1-2.31,37,148.89,148.89,0,0,0-2.68,28q-.29,31.49-.74,63c-.3,22.84-2.61,45.49-5.68,68.11-2.34,17.27-3,34.65.21,52a25.93,25.93,0,0,1-.22,8.91,274.62,274.62,0,0,0-4,48.38c.19,27.39,1.06,54.77,1.25,82.16.07,10.18-.8,20.38-1.56,30.55-.57,7.57-3.62,10.57-11,11.82-5.32.89-10.64,1.86-16,2.65-5.86.86-9.2,4.72-11.24,9.72-3,7.28.48,14.24,8,16.37a80,80,0,0,0,12.29,2.68c22.83,2.79,45.67,5.59,68.55,8a156.78,156.78,0,0,0,24.51.73c10.57-.57,21.07-2.27,31.62-3.25A219.88,219.88,0,0,1,2467.59,1011.41Z"/><path d="M2553.74,412c-1.13-2.76-2.9-4.71-6-5.23s-6.28-1.28-9.44-1.81a6.83,6.83,0,0,1-6-5.9,32.19,32.19,0,0,1-.66-5.35c-.88-27.19-1.63-54.38-2.6-81.56-.46-13-.38-26.09-2.26-38.89-2-13.34-2.45-26.68-2.85-40-.63-21-.7-42-1-63,0-2.39-.49-5.42,2.46-6s3.68,2.44,4.54,4.6c6.43,16,13.05,31.84,19.13,47.93,4.16,11,7.59,22.34,11.26,33.55,2.8,8.55,5.4,17.17,8.24,25.71s6.47,16.85,8.72,25.54c8.27,31.95,16.14,64,24.08,96,1.78,7.19.88,8.83-5.91,12.3-4.68,2.39-9,5.2-12.24,9.46s-4,9.09-1.38,14,7.18,7.1,13.08,6.17a69.32,69.32,0,0,1,19.14-.12c4.75.56,9.57.55,14.36.81,7,.38,14,.43,20.91,1.27,4.48.54,8.68.61,13-.8,3.41-1.12,7-1.6,10.48-2.64a52.12,52.12,0,0,0,8.92-3.46c6.2-3.24,8.17-11.66,4.5-17.62a11.48,11.48,0,0,0-10-5.7c-5.59-.15-11.19.19-16.78,0-5.81-.15-7.8-2-9-7.66a21.7,21.7,0,0,1-.51-4.16c-.13-13.8-.8-27.62-.21-41.38,1.62-37.35,3.72-74.67,4.4-112.06.62-33.39,1.62-66.79,3.28-100.14,1.21-24.18,2.66-48.32,1.44-72.53a32.6,32.6,0,0,1,.56-6,7.89,7.89,0,0,1,6.31-7.14c2.53-.63,5.08-1.16,7.57-1.9,8.4-2.49,10.82-11.78,4.77-18-3.12-3.22-7-4.38-11.36-4.68-21.36-1.47-42.71-3-64.06-4.48A15.84,15.84,0,0,0,2590.17,36c-4.23,4.15-4.11,10,.51,13.65,1.92,1.53,4.58,2.32,7,3,5.21,1.38,10.6,2.14,15.75,3.71,5.58,1.71,6.22,3,6.33,8.67.08,4.2.18,8.41.17,12.61-.05,18.38,1.43,36.77-.66,55.16-1,8.53-1.22,17.16-1.51,25.75-.43,12.79-.51,25.6-.91,38.39-.41,13-1.17,26-1.53,39-.33,12.19-.15,24.4-.58,36.59-.2,6-1.9,11.92-1.81,17.87.21,13.78,1.26,27.56,1.65,41.35.24,8.58-.06,17.17-.23,25.76a18.2,18.2,0,0,1-1,3.93l-1.68.28c-.59-1.77-1.31-3.49-1.74-5.29-3.8-16-6.86-32.13-11.46-47.86-6.89-23.59-14.35-47.06-22.49-70.25-9.41-26.8-19.86-53.22-29.78-79.83-5.94-15.93-12.09-31.8-17.48-47.91a111.44,111.44,0,0,1-5.34-40.86c.31-6.29,2.19-8.35,8.25-10.2a53.36,53.36,0,0,0,6.28-2c4.15-1.85,6.9-7.83,6.05-12.68-.8-4.59-4.53-7.88-9.62-8.23-3.18-.22-6.39-.25-9.59-.18-16,.34-32,.66-48,1.17-6,.19-12,.62-18,1.39-5.56.72-9.34,4.58-9.74,9.12-.42,4.84,2.88,9.29,8.51,10.89a36.68,36.68,0,0,0,7.7,1c8.53.53,11.41,2.79,13,11.18q2.4,12.36,4.22,24.85a40.81,40.81,0,0,1,.25,10.12,211,211,0,0,0,.68,50.29,501.26,501.26,0,0,1,4.38,85c-.29,8-1.51,16-1.53,23.94,0,16.2.37,32.39.74,48.58.45,20.2,1.12,40.39,1.54,60.58.17,8,.19,16-.24,24-.4,7.34-1.69,8.4-8.82,9.72-3.34.63-6.7,1.21-10,1.89a21.93,21.93,0,0,0-4.62,1.27c-3.31,1.48-5.57,3.92-5.73,7.75s2.12,6.09,5.26,7.27a35.87,35.87,0,0,0,9.83,2.44c7,.54,14,.71,21,.73,15.81,0,31.62.07,47.43-.26C2552.19,429.09,2557.31,420.72,2553.74,412Z"/><path d="M1193.73,58.92a31.75,31.75,0,0,0,7.09,1c9.3.54,12.1,2.71,13.82,11.77,1.67,8.84,3.12,17.73,4.42,26.64a33.85,33.85,0,0,1-.12,8.35,219.22,219.22,0,0,0,.81,50.88c4.26,34.23,6.24,68.5,3,103a204.16,204.16,0,0,0-.66,21.57c.14,10.79.73,21.58,1,32.37.58,20.39,1.18,40.78,1.6,61.18.16,7.79.14,15.61-.31,23.39-.38,6.7-1.69,7.8-8.14,9-3.93.76-7.93,1.25-11.79,2.26a16.33,16.33,0,0,0-6.36,3.05c-4.25,3.65-3.8,9.15.92,12.09a22.58,22.58,0,0,0,7.21,2.77,52.15,52.15,0,0,0,10.13,1.07q30.62.15,61.23,0a21.06,21.06,0,0,0,5.91-.85c4.87-1.44,7.59-6.26,7.24-12.36-.33-5.48-2.78-8.36-8.14-9.52-1.76-.38-3.53-.72-5.29-1.08-7.64-1.53-8.8-2.8-9.57-10.56-.13-1.39-.17-2.79-.21-4.19-.26-10.2-.46-20.4-.78-30.59-.64-20.79-1.14-41.58-2.09-62.36-.48-10.36-1.81-20.68-2.78-31-.22-2.39-.73-4.76-.79-7.15q-1.14-44.69-2.16-89.36c0-2.37-.37-5.44,2.54-6.07,3.09-.67,3.63,2.51,4.48,4.63,6.44,15.95,13,31.87,19.16,47.91,3.4,8.76,6.39,17.68,9.31,26.61,3.48,10.64,6.59,21.4,10.06,32,3,9.32,7,18.38,9.42,27.83,8.07,31.18,15.68,62.47,23.39,93.74,2,8,1.3,9.18-6.28,13.14-4.83,2.53-9.33,5.47-12.38,10.16-2.9,4.45-3.26,9.09-.39,13.55s6.71,6.92,12.16,5.82c7.39-1.49,14.73-.83,22.11,0,3.57.42,7.19.36,10.78.57,8,.46,15.93,1,23.9,1.38a40.29,40.29,0,0,0,8.85-.45,121,121,0,0,0,12.82-3.14,52.16,52.16,0,0,0,8.92-3.47,12.58,12.58,0,0,0,6.3-13.15,11.83,11.83,0,0,0-9.95-9.81,81.75,81.75,0,0,0-10.74-.46c-3.2-.05-6.41.19-9.6.05a6.74,6.74,0,0,1-6.56-5.23,22,22,0,0,1-1.08-5.27c-.36-10.59-1.17-21.21-.75-31.77,1.3-32.76,3.19-65.49,4.63-98.24.48-11,.15-22,.46-33,.74-26,1.53-52,2.51-77.94.51-13.39,1.81-26.75,2.14-40.13.33-14-.1-28-.13-42,0-3.19.14-6.39.39-9.57.33-4.3,2.63-7,6.9-8,2.34-.53,4.65-1.23,7-1.72,4.84-1,6.82-4.72,8-8.85s-.83-7.6-4-9.93a24.51,24.51,0,0,0-8-3.62,48.16,48.16,0,0,0-8.94-1q-28.74-2-57.48-3.85a16.51,16.51,0,0,0-5.32.62c-6.33,1.74-10.3,6.18-10.15,11.08.17,5.11,4.06,8.44,11,9.86,5.48,1.11,10.92,2.43,16.32,3.88,3.77,1,5.34,3.67,5.33,7.64,0,26.38,1.92,52.79-1.56,79.11a66.21,66.21,0,0,0-.41,7.19c-.37,15.19-.64,30.39-1.08,45.58-.45,15.59-1.26,31.17-1.55,46.76-.27,14.6.44,29.22-2.3,43.68a15.39,15.39,0,0,0-.16,3.59c.63,14.38,1.47,28.75,1.87,43.14.22,7.77-.24,15.57-.54,23.35a17.42,17.42,0,0,1-1.22,4.22l-1.35.09c-.73-2.15-1.62-4.25-2.15-6.45-4-16.73-7.63-33.55-12-50.18-2.48-9.45-6.21-18.58-9.28-27.88-7.52-22.79-14.43-45.8-22.63-68.34-10.11-27.82-21.27-55.25-32-82.85-5-12.94-8.61-26.24-9.67-40.12-.41-5.36-.45-10.77-.39-16.16s3-8.43,8.17-9.65a36.68,36.68,0,0,0,6.29-1.95c4.11-1.81,6.94-7.94,6.08-12.66a10.23,10.23,0,0,0-9.66-8.24c-3.38-.23-6.79-.22-10.18-.15-15.6.33-31.2.64-46.8,1.13-6.19.19-12.4.59-18.54,1.36-5.69.71-9.3,4.45-9.68,9.11C1184.89,53,1188.06,57.26,1193.73,58.92Z"/><path d="M2744.74,839.11c-3.83-34.26-2.28-28.4-16.38-59-4.61-10-9.15-20.07-14.75-29.49-12.37-20.8-30.2-36.66-49-51.46A141.25,141.25,0,0,0,2625,677.05c-10.78-3.89-21-8.88-30-16.08-2.74-2.2-5.66-4.83-7.1-7.92-7.48-16-9.25-32.62-3-49.52,1.94-5.24,4.75-10.16,6.69-15.4,6.64-17.92,17.12-33.38,29.81-47.49,6-6.63,12.17-12.75,21.63-14,1.55-.2,3-1.18,4.53-1.55a14.07,14.07,0,0,1,4.71-.55c8.75,1,17.52,1.88,26.21,3.25,10.6,1.68,18.37,7.46,23.09,17.2,1.48,3.06,3,6.13,4.59,9.11a32.06,32.06,0,0,0,11.66,11.84,13.62,13.62,0,0,0,16.25-.67,21,21,0,0,0,8.86-15.11c.91-9.93,1.37-19.92,1.63-29.9a24.61,24.61,0,0,0-1.84-9.35c-2.57-6.56-9.63-8.76-15.69-5.26a20.65,20.65,0,0,0-3.08,1.86c-5.34,4.51-10.7,3.42-16,.1a63,63,0,0,1-5.34-3.87,51,51,0,0,0-21.08-9.71c-18.41-3.93-36.49-1.87-54.73,1.88-15.62,3.21-27.71,11.28-37.29,23.37a139.91,139.91,0,0,0-13.55,20.48,230,230,0,0,0-24.82,73c-2.85,17.74-3.23,35.49,1.86,52.94a183.42,183.42,0,0,0,7.34,20.3c7.48,17.62,17,34,30.88,47.48s29.58,24.46,45.9,34.66c13.77,8.61,27.72,17.16,38.23,29.74,12.3,14.73,23.83,30.1,35.56,45.29a15.72,15.72,0,0,1,2.44,6c1.26,5.46,2.38,11,3.3,16.47a23.68,23.68,0,0,1,.13,7.13c-1.45,10.3-3,20.58-4.72,30.84a34.29,34.29,0,0,1-1.92,6.9c-2.69,6.9-6.05,13.58-8.22,20.63-4.3,14-12.52,25.22-22.61,35.52-6.62,6.76-14.16,9.11-22.86,5.94-8.06-2.93-16.29-6-23.54-10.42-18.32-11.24-32.6-25.66-34.83-48.74-.79-8.13-3.12-16.1-4.23-24.21a72.5,72.5,0,0,1-.21-14.36c.26-4.22,1.44-5.13,5.68-5.4,3.79-.24,7.62,0,11.4-.34,1.87-.17,4.11-.66,5.44-1.85,6-5.38,6.19-18.44.37-24.06-5.47-5.28-11-10.48-16.76-15.46a73.09,73.09,0,0,0-9.32-6.53c-4-2.52-8.35-2.42-12.68-.63-8.79,3.62-13.62,10.41-14.78,19.59-1.07,8.52-1.47,17.13-2.32,27.74,1,8.58,1.39,19.26,3.59,29.57,3.91,18.37,8.88,36.52,13.45,54.76,2.95,11.73,8.47,22.22,17.55,30.18,8.54,7.49,17.93,14,27.13,20.75,1.83,1.33,4.42,1.88,6.74,2.23,5.74.87,11.54,1.3,17.28,2.13,23.46,3.38,43.35-4.68,60.94-19.37,11.79-9.85,19.3-22.79,24.76-37,6-15.57,9.58-31.74,13.27-47.95,4.42-19.44,5.5-38.74.39-58.18A41.8,41.8,0,0,1,2744.74,839.11Z"/><path d="M2918.7,40.26c-5.39-.07-10.79.55-16.19.6-12.6.12-25.28-.77-37.79.32a393.33,393.33,0,0,1-47.93,1.19c-5.59-.18-11.23.7-16.78.28-15.17-1.16-30.29-2.83-45.44-4.13A142.41,142.41,0,0,0,2737.8,38a11.91,11.91,0,0,0-11.18,10.69c-.54,5,2.26,9,8.23,11a104.32,104.32,0,0,0,11.64,2.79c3.13.63,6.31,1.06,9.49,1.44,5.07.61,7.91,3.55,8.85,8.39.79,4.11,1.84,8.25,2,12.41.73,23.38,1.43,46.78,1.72,70.17.35,28,.29,56,.4,84,0,2,0,4-.09,6-.29,4.7-2.51,7.86-7.28,9.07a47.88,47.88,0,0,0-8,2.56c-4.45,2-7.87,8.25-7,12.22,1.1,5.2,4.68,8.17,10.55,8.77,13.45,1.36,16.32,4.39,15.91,17.89a476,476,0,0,0,1.82,63.52,25.55,25.55,0,0,1,0,4.79q-1.38,15.24-2.86,30.47a39.78,39.78,0,0,1-.66,4.76c-1.45,6.61-5.44,10-12.22,10.14-3,.08-6-.2-9-.22-8-.07-16-.34-24,0-5.6.19-9.62,4.57-10.14,10.06a10.39,10.39,0,0,0,7.83,10.71,223.58,223.58,0,0,0,24.12,4.66c10.52,1.25,21.14,1.75,31.73,2.35,10.78.61,21.6,1.68,32.16-1.89a14.08,14.08,0,0,1,4.17-.38c20-.41,40-.63,60-1.26,10-.32,20-1,29.88-2.23s14.36-6.83,14.88-16.93a30.21,30.21,0,0,0-.63-7.15c-2.63-13.78-4.48-27.62-4.38-41.71a24.48,24.48,0,0,0-2.15-9.84c-2.86-6.44-10-7.43-14.64-2.1a13.92,13.92,0,0,0-3.26,6.88,92.38,92.38,0,0,0-.92,16.1c.26,6.58,1.33,13.13,2,19.7.55,5.69-1.46,9.08-7.09,9.92a67.62,67.62,0,0,1-14.85.07c-6.37-.47-12.69-1.68-19.05-2.16-7.18-.53-14.42-.26-21.58-.95-9.78-.94-13.4-5.19-13.55-14.82-.18-12.2-.46-24.4-.5-36.6,0-7.4-.61-15,.66-22.15,2.63-14.89,3.15-29.81,3.09-44.83a73,73,0,0,1,.63-9.56c.64-4.94,3.7-7.91,8.45-9a85,85,0,0,1,8.9-1.24c9.59-1.07,19-2.9,27.84-6.94a21.77,21.77,0,0,0,11.13-11.28c3.76-8.39-1.36-15.78-10.52-14.65-8.52,1.05-16.94,3-25.4,4.49-4.33.8-8.62,1.91-13,2.38-6.86.75-11.07-2.9-11.7-9.79-.21-2.38-.14-4.79-.14-7.19q0-34.22,0-68.41h-.76c0-4-.06-8,0-12q.34-22.18.77-44.39c.12-6.4.14-12.81.53-19.19.43-6.93,2-8.82,8.69-10.24,5.66-1.21,11.42-2.64,17.15-2.71,14.59-.19,29.19.22,43.78.62,7.54.21,9.9,3.77,7.57,11-1,3-2.46,5.9-3.73,8.84-2.13,4.92-1.33,9.31,2.18,13.35,2.53,2.9,5.45,5,9.4,4,3.79-1,5.82-4,7.07-7.56a13.13,13.13,0,0,0,.42-3A56.06,56.06,0,0,1,2924,63.61a29.71,29.71,0,0,0,4.89-10.78C2930.63,45.13,2926.62,40.35,2918.7,40.26Z"/><path d="M954,429.7c8.19,1.82,16.43,3.54,24.75,4.57,9.12,1.12,18.34,1.48,27.53,2,11.77.71,23.58,2,35.16-1.71a14.74,14.74,0,0,1,4.17-.36c20-.41,40-.77,60-1.2,11.4-.24,22.85-.21,34-3.15,2.18-.57,4.89-1.67,6-3.4,3.53-5.65,5.83-11.76,4.34-18.78a187.48,187.48,0,0,1-4.52-41.07,32,32,0,0,0-2.71-12.15,7.76,7.76,0,0,0-11.58-3.57,15.23,15.23,0,0,0-5.33,6.85,31,31,0,0,0-1.6,11.2c.38,9,1.36,17.93,2,26.9.44,5.92-1.38,8.75-7.21,9.79-4.07.72-8.5,1.23-12.47.4-12.06-2.53-24.21-2.91-36.43-3a53.74,53.74,0,0,1-9-.79c-6.87-1.22-10-4.62-10.93-11.61a60.21,60.21,0,0,1-.3-6.59c-.13-8-.34-16-.33-24,0-10-.86-20.16.62-29.95a295,295,0,0,0,3.13-46.62,61.72,61.72,0,0,1,.2-7.2c.74-6.54,3.59-9.68,10-11,2.54-.51,5.16-.66,7.75-.92a93.64,93.64,0,0,0,27.31-6.64,22.57,22.57,0,0,0,11.42-11c2-3.83,2.27-7.61-.36-11.32a9.25,9.25,0,0,0-9.92-4c-8.46,1.55-16.92,3.07-25.38,4.62-4.33.8-8.62,1.9-13,2.38-6.5.71-10.35-2.23-11.51-8.6a50.46,50.46,0,0,1-.7-8.94c-.06-23,0-46,0-69h-.59q.59-32.08,1.19-64.17c.08-3.8,0-7.62.42-11.39.62-5.83,2.24-7.76,8-8.95,6.25-1.3,12.6-2.88,18.92-3,14.39-.22,28.79.3,43.18.73,6.9.21,9.34,3.76,7.27,10.33a74.61,74.61,0,0,1-4,9.38c-2.45,5.21-1.19,9.56,2.38,13.81,4.55,5.41,11.86,6.11,16-3.05a10.79,10.79,0,0,0,.69-3.51c.84-10.9,5.07-20.39,11.36-29.26a30.23,30.23,0,0,0,4.68-11.48c1.17-6.09-2.65-10.54-8.9-11-3.57-.28-7.19.07-10.79.15-10,.22-20,.49-30,.63-5,.07-10.07-.62-15,0a290.49,290.49,0,0,1-46.72,1.3c-6-.25-12,.67-18,.23-15.16-1.14-30.28-2.83-45.43-4.12A134.24,134.24,0,0,0,967,38a11.63,11.63,0,0,0-10.86,10.28c-.66,5.18,2,9.37,7.79,11.25a126.48,126.48,0,0,0,13.41,3.07c3.33.68,6.71,1.1,10,1.76s5.49,2.55,6.17,5.82c1.06,5.07,2.53,10.15,2.76,15.27.77,17.18,1.32,34.37,1.5,51.57.36,33.6.42,67.21.59,100.81,0,2.4,0,4.81-.21,7.19-.49,5.39-2.17,7.35-7.33,8.93a61.73,61.73,0,0,0-7.44,2.31c-7.44,3.31-9.5,11.67-4.69,17.9,1.77,2.29,4,2.94,6.75,3.24,15.32,1.72,16.6,3.27,16.67,18.75.06,12.4.26,24.8.38,37.19.14,14.56,2.91,29.05.56,43.67-1.11,6.9-1.31,13.94-2.24,20.88-1,7.25-5.28,10.94-12.55,11.14-2.79.08-5.6-.17-8.4-.2-7.8-.08-15.61-.31-23.41-.14-6.22.13-10.27,4-11,9.76C944.76,423.61,948,428.38,954,429.7Z"/><path d="M1689.32,60.81c4.4.18,8.8.56,13.16,1.12,2.12.28,4.77.56,6.13,1.91,5.54,5.44,11.68,10.6,14.37,18.2,5.6,15.84,11.08,31.73,16.3,47.7,6.16,18.87,9.71,38.38,13.71,57.78,4.8,23.32,10,46.56,14.92,69.84a88.1,88.1,0,0,1,.23,36.37c-6.9,33.56-17,66.26-27.58,98.8-1.92,5.9-6,9.27-12.39,9.61a73.32,73.32,0,0,0-10.15,1,11.26,11.26,0,0,0-9.17,10.48c-.15,4.63,3.19,8.95,8.24,10.58a16.46,16.46,0,0,0,2.92.67c9.13,1.08,18.23,2.52,27.39,3.09,14.78.92,29.61,1.51,44.36-.55a36.28,36.28,0,0,0,9.81-2.61c5.4-2.43,7-7.4,7-12.92-.07-4.66-3.08-7.74-8.6-9.46-1.92-.59-3.83-1.18-5.73-1.79-2.72-.86-3.86-2.7-3.36-5.5,1.7-9.44,2.77-19,5.26-28.27,4.76-17.56,10.48-34.86,15.54-52.35,6.89-23.83,13.43-47.76,20.3-71.6,5.69-19.81,12.11-39.41,17.31-59.34a459,459,0,0,1,13.94-44q10.14-27.28,19.89-54.7c2.34-6.59,4.14-13.36,6.19-20.05,1.29-4.22,4.09-6.54,8.4-7.65a32.69,32.69,0,0,0,9.39-3.83c7.76-5,7.31-16.45-.76-20.54a14.4,14.4,0,0,0-6.94-1.27A138.52,138.52,0,0,0,1884.44,33c-19.18,3-38.33,6.13-57.49,9.22a11.69,11.69,0,0,0-1.76.36c-5.84,1.8-10.19,7.82-9.45,13.05.89,6.28,5,9.55,12.27,9.75,2,.06,4-.09,6,.09,6.15.54,8.51,4.13,6.49,9.88a75.51,75.51,0,0,1-3,7.22c-12.34,26.12-21.57,53.38-30.23,80.88-5.59,17.75-11.47,35.4-17.28,53.08-.7,2.12-.76,4.84-4.48,5.74-.66-1.83-1.45-3.57-1.91-5.39q-5.19-20.34-10.26-40.72c-2.59-10.47-5.88-20.86-7.43-31.49a203.32,203.32,0,0,0-13.57-49c-3.45-8.3-6.35-16.85-9.14-25.41-2.11-6.45-.58-8.77,5.84-10.37a30.92,30.92,0,0,0,4-1.15c4.42-1.77,8-6.79,7.9-11.12-.06-5.13-3-7.81-7.57-9.57a42.42,42.42,0,0,0-19.49-2.33c-13.14,1.24-26.26,2.73-39.39,4.11a14.82,14.82,0,0,0-11.81,7.28C1678.72,53.84,1682.66,60.52,1689.32,60.81Z"/><path d="M1461.65,101a10.8,10.8,0,0,0,9.9-7.39,64.55,64.55,0,0,0,2.55-8.63c1.6-8.2,7.14-12.16,14.68-14,5.26-1.25,10.53-2.81,15.87-3.2a88.67,88.67,0,0,1,17.91.61c5.72.74,8.66,4.32,9.49,10.11a44.12,44.12,0,0,1,.14,6c0,8.8-.18,17.6.12,26.39.34,9.77,2.06,19.44,1.27,29.32-3,37.94-2.27,75.93-1.17,113.94.68,23.6.44,47.24-3,70.68a228.81,228.81,0,0,0-2.53,41.84c.37,10.19-.15,20.4-.14,30.6a10,10,0,0,1-4.13,8.23,19.33,19.33,0,0,1-10.3,4.45,82.34,82.34,0,0,0-13,2.09c-7.08,1.93-9.4,8.28-5.74,14.65,1.9,3.3,4.63,5.55,8.5,6,3.17.38,6.37.58,9.57.74q16.17.84,32.35,1.58a13.42,13.42,0,0,0,4.75-.24c8-2.63,16.19-2.12,24.38-2.5a108.32,108.32,0,0,0,18.37-2.48c5.81-1.28,8.55-4.88,8.92-9.93a11.49,11.49,0,0,0-7.42-11.28,38.58,38.58,0,0,0-8.72-1.95c-5.65-.89-6.87-2.27-6.77-7.77.34-19,.61-38,1-57,.11-5.79.13-11.61.63-17.38,1.4-15.94,3.07-31.86,4.55-47.79,1.27-13.73,2.54-27.46,3.57-41.21a97.29,97.29,0,0,0,0-15c-1.65-20.94-3.63-41.85-5.24-62.79-.56-7.16-.66-14.39-.52-21.57.2-10.6.71-21.18,1.26-31.77.48-9.37.78-18.79,1.93-28.09.85-6.9,3.58-8.93,10.44-9.19,11.18-.41,22.27-.59,33.15,3.4,7,2.57,11.88,6,13.08,13.85a45.79,45.79,0,0,0,3.5,11.43,9.44,9.44,0,0,0,9.62,5.89c3.67-.19,7.21-3.44,8.41-7.58a17.66,17.66,0,0,0,.63-4.14c.22-5.6.62-11.2.46-16.79-.33-11.24-9.24-22.56-20.05-25.83a114,114,0,0,0-35.5-5.26c-19,.37-38,.87-57,1.32v.47c-21.42,0-42.83,0-64.25,0a52.88,52.88,0,0,0-10.12,1c-10.73,2.18-21.89,11.25-23.12,24.51-.35,3.77-1.25,7.49-1.86,11.24a24.23,24.23,0,0,0,1.43,13.55C1455,97.87,1457.1,100.94,1461.65,101Z"/><path d="M475.5,75.32c.95-5.6,3.38-7.69,8.86-8.1,12.63-.93,25.13-.73,37.16,4.22,5.2,2.14,8.83,5.12,10,10.9a79.16,79.16,0,0,0,3.41,12.11c1.86,5,6.25,7.76,10.59,7.18a10.28,10.28,0,0,0,8.31-9.1c.62-7,.61-14,.86-20.93.31-8.77-12.07-22.48-20.31-24.6a156.88,156.88,0,0,0-44.55-4.91Q454.7,43.2,419.6,43.78c-14.21.24-28.42.07-42.63,0a36.08,36.08,0,0,0-16.82,3.76c-7.27,3.72-12.53,9.3-14.72,17.29a94.07,94.07,0,0,0-2.71,13.52c-.67,5.52-1.47,11.14,1.47,16.41,1.94,3.48,4.16,6.44,8.73,6.12a10.84,10.84,0,0,0,9.56-7.85,96.64,96.64,0,0,0,2.86-9.78c1.18-5.75,5-9.29,10.07-11,9.32-3,18.84-5.48,28.8-5a63,63,0,0,1,8.36.83c6.48,1.19,9.77,4.91,10.2,11.46.17,2.59-.13,5.2,0,7.79.39,11.58.84,23.15,1.26,34.73.17,4.78.55,9.57.4,14.33-.59,18.59-1.84,37.16-1.94,55.74-.15,28.8.57,57.59.67,86.38a364.44,364.44,0,0,1-3.82,53.81,132,132,0,0,0-1.51,17.29c-.22,15-.27,30,0,45,.1,6.23-2.67,10.31-7.78,13a23.85,23.85,0,0,1-6.79,2.11c-4.32.82-8.78,1-13,2.12-7.26,1.91-9.69,8.75-5.66,15.1,2,3.19,4.76,5.4,8.68,5.72,3.38.28,6.78.49,10.17.66q15.57.79,31.14,1.52a13.68,13.68,0,0,0,4.75-.15c8.16-2.72,16.59-2.1,25-2.55a124.93,124.93,0,0,0,18.91-2.75c4.79-1,7.39-4.6,7.89-9.47.48-4.7-1.75-8.27-5.66-10.45a25.85,25.85,0,0,0-8.44-2.76c-8.39-1.33-8.77-1.61-8.58-10.27q.47-21.29,1-42.57c.28-12,.15-24,1-36,1.42-20.54,3.42-41,5.22-61.55.42-4.77,1.17-9.51,1.53-14.28.47-6.16,1.33-12.39.92-18.51-1.07-16.36-2.94-32.66-4.1-49-.9-12.75-1.55-25.54-1.65-38.32-.08-9.17.92-18.36,1.34-25.79,0-6.76-.23-11.78.06-16.76A167.93,167.93,0,0,1,475.5,75.32Z"/><path d="M1972.06,294.51a125.67,125.67,0,0,1,3.36,13.37c5.93,31.42,21.68,57.87,42,81.83,9.16,10.81,19.39,20.75,29.46,30.77a104.09,104.09,0,0,0,15.59,13c7.8,5.2,16.25,9.42,24.27,14.3,16.53,10.05,34.77,16.24,52.48,23.65a19.25,19.25,0,0,0,3.46,1c12.51,2.69,25,5.4,37.53,8a38,38,0,0,0,7.16.62c6.6.08,13.2,0,19.81,0v0c5.4,0,10.8.1,16.2,0a78.67,78.67,0,0,0,12.49-.91c10.6-2,21.15-4.29,31.66-6.72a106.81,106.81,0,0,0,13.75-4.19A386.11,386.11,0,0,0,2354,432.49a33.45,33.45,0,0,0,5.77-4.28c19.17-19.26,39.2-37.64,54-60.92,10.85-17.08,19.76-34.71,24.09-54.54,1.37-6.25,3.17-12.4,4.46-18.66a191.66,191.66,0,0,0,3.56-20.65c1.12-11.94,1.79-23.92,2.3-35.9a107.94,107.94,0,0,0-.61-17.34c-.87-7.13-2.69-14.14-3.69-21.26-1.1-7.75-2.33-15.41-5.61-22.62a16.64,16.64,0,0,1-1.27-5.22c-1.25-12.49-8.18-22.87-12.89-34-3.86-9.14-9.34-17.62-14.2-26.34-8.16-14.63-19.49-26.79-30.69-39a6.93,6.93,0,0,0-.93-.75c-8-6.33-15.79-13-24.08-18.9-8.93-6.38-18-12.81-27.64-17.93-15-7.95-30.52-15-46-22A70.42,70.42,0,0,0,2264.63,7c-10.41-2-21.07-2.76-31.41-5-9.34-2-18.69-1.8-28.07-2a128.27,128.27,0,0,0-18,.81c-8.92,1.1-17.78,2.76-26.66,4.25-8.27,1.39-16.69,2.12-24.46,5.73-4.71,2.19-9.51,4.22-14.28,6.29-25.45,11-49.43,24.38-71.06,42-12,9.78-23.6,19.74-32.74,32.32-4.11,5.66-8.63,11.06-12.23,17-4.45,7.33-8.23,15.07-12.11,22.73-2.88,5.68-5.06,11.74-8.28,17.21-7.46,12.69-8.33,27.44-13.38,40.87a16.67,16.67,0,0,0-.49,2.95c-1.61,9.46-3.28,18.9-4.82,28.37a41.15,41.15,0,0,0-.63,7.75c.27,10.79.28,21.62,1.19,32.36C1968.19,272,1968.69,283.49,1972.06,294.51Zm9.3-75c3.64-16.19,6.53-32.55,10.26-48.71a77.78,77.78,0,0,1,6.52-17.3q9.18-18.18,19.26-35.91c6.64-11.71,15.29-22,24.35-31.89,12.12-13.29,26.59-23.41,41.7-33,13.9-8.84,28.84-15.55,43.13-23.55a33,33,0,0,1,6.21-2.13c1.9-.6,4-.77,5.7-1.75,6.79-4,14.29-4.84,21.88-5.75,8.54-1,17-2.6,25.55-3.67,7.13-.88,14.32-1.37,23-2.18C2219,15,2230.52,16.41,2242,17.91c4.76.62,9.49,1.54,14.27,2,6.64.61,13,1.9,19,5.15,1.88,1,4.16,1.33,6.24,2a50,50,0,0,1,6.75,2.38c8.43,4.14,16.89,8.24,25.14,12.74,5.78,3.15,11.08,7.19,16.85,10.36,24.9,13.68,44.8,32.84,60.78,56,7,10.17,12.75,21.22,18.87,32,2.86,5,5.15,10.39,7.89,15.5,4,7.55,5.4,15.88,7.13,24.08,2.81,13.3,5.21,26.69,8.21,39.94,2,8.75,1.83,17.45,1.12,26.24-.45,5.58-1,11.15-1.4,16.73-.42,6.58-.91,13.06-2.57,19.55-2.37,9.26-3.69,18.79-5.62,28.17a47.86,47.86,0,0,1-2.83,9.75,374.39,374.39,0,0,1-26.23,49.88c-6.93,10.86-16.07,19.89-25.36,28.73-7.1,6.75-13.82,14-21.54,20-7.54,5.82-16,10.47-24.31,15.27-5.86,3.4-12.35,5.76-18.08,9.34-12.77,8-26.85,12.67-41.27,15.87-16,3.54-32.28,5.79-48.51,8a68.52,68.52,0,0,1-18.54,0c-15.65-2.12-31.33-4.32-46.76-7.59s-30.39-8.49-44.1-16.83c-7.49-4.56-15.51-8.27-23.34-12.26a91.81,91.81,0,0,1-23.83-17c-8.18-8.22-16.79-16-25.12-24.08-12.85-12.43-21.55-27.74-29.71-43.38-4.35-8.33-8.26-16.89-12.32-25.36a20,20,0,0,1-1.71-4.48c-2.17-10.35-3.75-20.85-6.48-31-3.41-12.73-2.65-25.8-4.28-38.66A78.76,78.76,0,0,1,1981.36,219.53Z"/><path d="M2305.71,1080.57c-7.4-.17-14.81,0-22.22-.06a3.86,3.86,0,0,0-4.24,3.39c-.47,2.35-1,4.7-1.34,7.07q-5.46,36.49-10.86,73c-2.31,15.63-4.58,31.27-6.94,46.89-.26,1.76,0,3.92-2.59,5.42-.67-3.25-1.36-6-1.77-8.68q-5.57-37.09-11.05-74.2c-2.33-15.63-4.61-31.26-7-46.88-.86-5.55-1.45-6-6.94-6-5.8-.06-11.61,0-17.42,0-6.32,0-6.74.3-7.72,6.53q-3,19.26-5.89,38.55-6.33,42.73-12.64,85.48a21,21,0,0,1-1.44,3.94l-1.37-.16c-.52-2.47-1.16-4.93-1.54-7.42q-4.46-29.67-8.84-59.35-4.57-30.57-9.2-61.12c-.88-5.8-1.56-6.4-7.25-6.45-6.2-.06-12.41-.09-18.61,0-4.9.09-5.67,1-4.95,5.79,3.36,22.15,6.55,44.33,10.24,66.42,4.21,25.25,8.87,50.43,13.36,75.64q2.89,16.25,5.92,32.47c.91,4.88,1.56,5.59,6.12,5.64q15.91.16,31.83,0c4,0,4.64-.82,5.53-4.87.26-1.17.41-2.36.61-3.55q6-37,12-74c.31-1.92.75-3.82,1.13-5.72l1.69-.26c.63,2.43,1.46,4.82,1.87,7.29q6.21,37.59,12.33,75.2c.9,5.5,1.34,5.92,7,6,8.6.07,17.21,0,25.82,0,11.21,0,9.83.39,11.59-9.83q13.23-76.87,26.14-153.81c1-5.72,1.88-11.45,2.58-17.2C2310.1,1081.74,2309.29,1080.65,2305.71,1080.57Z"/><path d="M2508.8,1085.31c-.31-3.69-1.08-4.64-4.77-4.75q-9.29-.27-18.6,0c-4,.09-4.69,1-4.95,5.15-.08,1.4,0,2.8,0,4.2q0,40.5.06,81c0,2.31-.27,4.62-.42,6.93l-1.6.27a25.47,25.47,0,0,1-1.6-3.64q-8.46-31.57-16.83-63.17c-2.05-7.74-4-15.49-6.08-23.22-2-7.52-2.11-7.55-9.71-7.56h-13.21c-9.6,0-9.6,0-9.6,9.53v167.4c0,1.4-.06,2.8,0,4.2.28,4,1,4.78,5.17,4.87,5.8.12,11.6.07,17.41,0s6.48-.58,6.52-6.57c.05-9.4,0-18.8,0-28.2,0-17.8-.07-35.6,0-53.4,0-2.14-.77-4.64,1.9-7.09.88,2.4,1.69,4.16,2.19,6,3.36,12.56,6.65,25.13,10,37.69q6.13,23.21,12.31,46.38c1.16,4.34,1.94,5.07,6.12,5.15q10.2.19,20.41,0c4.39-.1,5.14-1,5.35-5.37,0-1,0-2,0-3V1089.5C2508.84,1088.1,2508.91,1086.7,2508.8,1085.31Z"/><path d="M1239.16,1116.73q-1.38-33.59-35.07-36.08c-.2,0-.4-.05-.6-.05-15.4,0-30.8-.13-46.19-.08-4.36,0-5.13,1-5.38,5.34-.07,1.19,0,2.4,0,3.6q0,42,0,83.93,0,43.17,0,86.34c0,6.08.62,6.76,6.33,6.77,13.4,0,26.8.12,40.19-.15a66.72,66.72,0,0,0,14.84-1.87c14.21-3.57,22.81-12.68,25.09-27.29a83.22,83.22,0,0,0,.85-12.53q.1-51,0-101.93C1239.24,1120.73,1239.24,1118.73,1239.16,1116.73Zm-30.52,111.08c-.55,7.74-4.34,11.5-12.19,12-2.59.17-5.2.13-7.8.08-5.64-.09-6.11-.49-6.13-6.28,0-18.19,0-36.39,0-54.58v-5.4q0-29.1,0-58.19c0-1.59,0-3.2.1-4.79.16-2.37,1.5-3.7,3.87-3.68a109.69,109.69,0,0,1,12.57.4c5.38.67,8.5,4,9.33,9.46a50.5,50.5,0,0,1,.36,7.18q0,49.49,0,99C1208.75,1224.61,1208.76,1226.21,1208.64,1227.81Z"/><path d="M1641.13,1237.49a65.32,65.32,0,0,0,.84-10.73q.09-53.37,0-106.74a63.85,63.85,0,0,0-1.28-13.09c-2.75-12.89-10.57-21.37-23.46-24.52a73.77,73.77,0,0,0-15.42-1.83c-9.79-.29-19.6-.09-29.4-.09-4.2,0-8.4-.12-12.6,0-4,.13-4.8,1-5.09,5-.1,1.39,0,2.8,0,4.19v84q0,42.58,0,85.15c0,7.38.32,7.68,7.87,7.68,12.4,0,24.8.14,37.19-.14a76.29,76.29,0,0,0,16-1.83C1630,1261.12,1638.7,1252.08,1641.13,1237.49Zm-29.5-14.42c0,13.33-3.47,16.77-16.62,16.86-9.71.06-9.71.06-9.71-9.9v-57q0-28.8,0-57.6c0-1.4,0-2.8,0-4.2.06-2.6,1.29-4.23,4-4.22a119.81,119.81,0,0,1,12.58.4c5.18.57,8.25,3.86,9.2,8.91a38.9,38.9,0,0,1,.5,7.16Q1611.67,1173.27,1611.63,1223.07Z"/><path d="M1893.35,1266.42c3-.2,3.76-1.5,2.87-4.42-.23-.76-.66-1.45-1-2.2q-14.6-37.12-29.18-74.26c-2-5.19-2.07-5.31,2.94-7.69,11.81-5.6,18.13-14.94,18.46-27.9.31-11.79.53-23.62-.2-35.38-1.27-20.7-12.2-31.56-32.78-33.74-1-.11-2-.24-3-.25-14.41,0-28.82-.12-43.23-.06-4.31,0-5,.94-5.3,5.4-.07,1.2,0,2.4,0,3.6v84q0,42,0,84c0,1.8,0,3.6.11,5.39.14,2.07,1.33,3.47,3.41,3.5q11.7.12,23.4,0c2.39,0,3.55-1.57,3.62-3.92,0-1,0-2,0-3q0-33.6,0-67.2a17,17,0,0,1,.1-4.17,4.19,4.19,0,0,1,2-2.41c.41-.2,1.66.81,2.19,1.53a10.09,10.09,0,0,1,1.1,2.77q7.6,22.76,15.22,45.51c2.78,8.35,5.47,16.73,8.29,25.06,1.87,5.52,2.46,5.91,8.11,6,4.2,0,8.4,0,12.6,0C1886.55,1266.51,1890,1266.64,1893.35,1266.42Zm-36.33-118c-.4,6.15-3.85,9.87-9.85,11.13a13.4,13.4,0,0,1-1.78.26c-13.87.84-11.76,0-11.84-10.58,0-5.19,0-10.38,0-15.57,0-7-.07-14,0-21,.07-5,.76-5.62,5.48-5.75a52,52,0,0,1,7.17.21c6.88.76,10.42,4.33,10.79,11.32.31,5.77.14,11.57.14,17.36C1857.16,1140,1857.29,1144.24,1857,1148.42Z"/><path d="M1086.86,1185.61c-1.92-4.87-1.76-5.59,2.49-7.56,13.36-6.17,19.24-16.79,19.13-31.18-.06-9,.09-18-.06-27a67.84,67.84,0,0,0-1.05-11.93c-2.71-13.67-10.8-22.58-24.49-25.75a72.49,72.49,0,0,0-14.86-1.62c-11.81-.23-23.62-.08-35.42-.08-9,0-9,0-9,9v168.61c0,1,0,2,0,3,.23,4.41.95,5.26,5.35,5.37,5.8.14,11.6,0,17.41,0,7.65,0,7.86-.22,7.86-7.64q0-33,0-66a12.2,12.2,0,0,1,.07-3.58,19.32,19.32,0,0,1,2.11-3.7c.92.91,2.23,1.66,2.67,2.77,1.42,3.51,2.52,7.16,3.73,10.76q10.25,30.73,20.5,61.47c1.83,5.46,2.44,5.9,8.11,5.93,6.81,0,13.61,0,20.41,0,1.73,0,3.46-.33,6.57-.65-1.49-3.88-2.52-6.63-3.59-9.35Q1100.83,1221.05,1086.86,1185.61Zm-8.88-39.9c-.16,9.63-4.26,13.75-13.89,14.25s-9.84.16-9.85-9.22v-17.36c0-6.59,0-13.18,0-19.76.06-6,.7-6.6,6.44-6.69,13.92-.21,17.26,3.1,17.31,17.22C1078,1131.34,1078.1,1138.53,1078,1145.71Z"/><path d="M848.58,1085.44c-.31-4-1-4.81-5.19-4.91-6-.14-12-.07-18,0-6.71,0-7.2.48-7.21,7.11q0,30.3,0,60.61c0,2.2.08,4.4,0,6.6-.22,4.4-.88,5-5.45,5.19-3.4.1-6.81,0-10.21,0-10.61,0-10.73,1.25-10.69-10.86q.09-30.6,0-61.21c0-6.93-.53-7.42-7.55-7.46-4.81,0-9.61,0-14.41,0-8.5,0-8.58.09-8.58,8.83v168.62c0,1.4,0,2.8,0,4.2.05,2.62,1.35,4.2,4,4.22q11.1.09,22.21,0c3,0,4.32-1.69,4.28-4.6,0-1.4,0-2.8,0-4.2q0-30.9,0-61.81c0-1.6,0-3.2.06-4.8.08-2.34,1.22-3.84,3.65-3.86,6.4-.06,12.8-.06,19.2,0,2.09,0,3.28,1.35,3.38,3.46.08,1.6.06,3.2.06,4.8v62.41c0,1.6,0,3.2.07,4.8.11,2.39,1.45,3.72,3.81,3.73q11.4.08,22.81,0c2.37,0,3.63-1.45,3.71-3.83.05-1.4,0-2.8,0-4.2V1089C848.6,1087.84,848.67,1086.64,848.58,1085.44Z"/><path d="M982.39,1228q-7.46-44.65-15.1-89.28c-3-17.34-6.12-34.64-9.25-52-1-5.66-1.75-6.19-7.52-6.24-4.8,0-9.6,0-14.4,0-4.6,0-9.2,0-13.8,0-6.88,0-7.24.39-8.46,7.23-2.9,16.34-5.72,32.69-8.75,49q-11.49,61.92-20.5,124.24c-.64,4.45,0,5.32,4.64,5.42,6.2.14,12.4.08,18.6,0s6.73-.57,7.69-6.63c1.44-9.08,2.76-18.19,4.29-27.25.88-5.23,1.24-5.43,6.68-5.48,6-.06,12,0,18,0,6.51,0,7.07.52,8,7,1.37,9.1,2.6,18.21,4,27.29.69,4.38,1.45,5,5.89,5.1,6.4.12,12.81.1,19.21,0,5.57-.07,6.36-1,5.57-6.42C985.71,1249.29,984.16,1238.61,982.39,1228Zm-40.11-27.55c-4,.18-8,.13-12,0-4.87-.11-5.68-1-5-5.76,1-7.52,2.18-15,3.31-22.55,1.7-11.27,3.39-22.54,5.15-33.79.32-2.07.94-4.08,1.42-6.12l1.7.14a38.86,38.86,0,0,1,1.2,4.44q4.15,27.89,8.23,55.78a27.07,27.07,0,0,1,.37,3C946.78,1199.28,946,1200.25,942.28,1200.41Z"/><path d="M1433.93,1205.61c-7.2-.16-14.4,0-21.6,0-2.7,0-4.1,1.32-4.13,4,0,3.4,0,6.8-.07,10.2-.11,4.59.15,9.25-.57,13.75-1.08,6.82-5.86,9.85-13.7,9.52-7.33-.31-11.32-3.81-12.09-10.73a54.4,54.4,0,0,1-.18-6q0-52.49,0-105a46.74,46.74,0,0,1,.45-7.77,10,10,0,0,1,7-8.24c10.55-3.69,18.54,1.69,19,12.8.06,1.4,0,2.8.05,4.2,0,5-.11,10,.07,15,.13,3.87.84,4.6,4.66,4.68,7,.14,14,.15,21,0,3.7-.09,4.43-1,4.59-4.81a119.88,119.88,0,0,0,0-12c-.4-7.16-.45-14.42-1.76-21.44a27.54,27.54,0,0,0-17.52-21.36,64.12,64.12,0,0,0-48.59-.08,27.56,27.56,0,0,0-17.2,19.54,72.55,72.55,0,0,0-2.17,16.53c-.26,18.39-.1,36.79-.1,55.18,0,14.79,0,29.59,0,44.38,0,6.4-.14,12.82.35,19.18,1.23,15.72,10.44,26.74,25.33,30.56a70.88,70.88,0,0,0,36.21-.13c9.07-2.41,16.8-7.11,20.73-15.89a54.12,54.12,0,0,0,4.4-16.65c.76-8.13.38-16.38.3-24.57C1438.41,1206.6,1437.56,1205.69,1433.93,1205.61Z"/><path d="M2589.92,1107c6.6-.1,13.21,0,19.81,0,6,0,12,.1,18-.06,3.74-.1,4.66-1,4.78-4.66.19-5.59.18-11.2,0-16.79-.11-3.94-1.06-4.67-5.18-4.93-.8,0-1.6,0-2.4,0h-63.62c-1,0-2,0-3,0-2.9,0-4.51,1.35-4.59,4.31-.05,1.6-.06,3.2-.06,4.8q0,42,0,84,0,42.89,0,85.78c0,6.76.39,7.14,7.16,7.15q32.1,0,64.22,0c1,0,2,0,3,0,2.86-.07,4.5-1.39,4.5-4.4,0-6,0-12,0-18,0-2.71-1.37-4-4-4.11-1.4,0-2.8,0-4.2,0-11.2,0-22.41,0-33.61,0-6,0-6.41-.47-6.43-6.56q-.08-19.8,0-39.59c0-6.38.43-6.75,6.84-6.78,9.6,0,19.21.06,28.81,0,4.89,0,5.55-.72,5.66-5.57s.08-10,0-15c-.08-5.88-.57-6.35-6.68-6.37-9.61,0-19.21,0-28.81,0-5,0-5.76-.66-5.8-5.43q-.15-21,0-42C2584.34,1107.73,2585.1,1107,2589.92,1107Z"/><path d="M1763.9,1260c0-4,0-8,0-12,0-8.09,0-8.12-7.89-8.13-11.2,0-22.4,0-33.6,0-6.53,0-6.89-.32-6.91-6.68q-.07-19.79,0-39.58c0-6.34.39-6.66,6.94-6.68,9.8,0,19.61.07,29.41,0,4.18,0,4.91-.8,5-4.94.16-5.19.1-10.39,0-15.59-.07-5.89-.56-6.37-6.65-6.39-9.4,0-18.8,0-28.2,0-6,0-6.52-.57-6.56-6.51-.06-11,0-22,0-33,0-3,0-6,0-9,0-2.85,1.21-4.57,4.27-4.58l4.2,0c11.4,0,22.8.07,34.2,0,4.75,0,5.56-.92,5.69-5.65.12-4.4.06-8.8,0-13.2,0-7.11-.45-7.56-7.41-7.57-14.4,0-28.8,0-43.2,0-7.6,0-15.21-.08-22.81,0-4.44.07-5.24.93-5.51,5.22-.09,1.39,0,2.8,0,4.2v83.36q0,42.29,0,84.56c0,1.4,0,2.8,0,4.2,0,2.92,1.52,4.42,4.46,4.44,2.4,0,4.8,0,7.2,0q30.3,0,60.61,0C1763.25,1266.49,1763.82,1265.87,1763.9,1260Z"/><path d="M1510.49,1257.67V1089.61q0-2.4-.06-4.8c-.08-3-1.69-4.32-4.59-4.32-7,0-14-.1-21,.06-3.77.08-4.53,1-4.85,4.63-.12,1.39,0,2.8,0,4.2v105q0,32.7,0,65.42c0,6,.59,6.59,6.44,6.67,5,.06,10,0,15,0C1510.49,1266.52,1510.49,1266.53,1510.49,1257.67Z"/><path d="M2377.12,1089.41c0-1.6,0-3.2,0-4.8-.06-2.66-1.43-4.07-4.11-4.07-7.4,0-14.81,0-22.21,0a3.57,3.57,0,0,0-3.88,3.69c-.11,1.6-.09,3.2-.09,4.8v84.6q0,17.7,0,35.4,0,25.2,0,50.4c0,6.71.35,7,7.2,7.07,6,0,12,.1,18,0,4.27-.09,4.86-.78,5.12-4.87.08-1.19,0-2.4,0-3.6Q2377.13,1173.71,2377.12,1089.41Z"/><path d="M2065.82,1166.65q-22.64-21.5-45.39-42.86c-3.58-3.36-4.44-3.33-7.84.25q-21.49,22.65-42.87,45.38c-3.3,3.51-3.22,4.31.44,7.83,5.06,4.85,10.2,9.6,15.29,14.41q14.61,13.81,29.24,27.61c1.28,1.21,2.71,2.24,4.48,3.69a49.64,49.64,0,0,0,4.22-3.52q21.27-22.43,42.47-44.93C2069.34,1170.81,2069.36,1170,2065.82,1166.65Z"/><path d="M1295,1337.7c-.67-12.79-6.84-18.75-19.77-19.3-5.19-.22-10.4-.1-15.6-.07-6.7,0-7.19.5-7.2,7.18q0,30.6,0,61.21c0,8.2-.06,16.4,0,24.6,0,5.88.65,6.44,6.65,6.5,5.6,0,11.21.15,16.81,0,11.69-.43,18.07-6.5,19-18.16.35-4.17.1-8.39.18-12.59.13-6.66.38-13.34-4.51-17.6,1.69-5.17,3.79-9.36,4.3-13.74A106.85,106.85,0,0,0,1295,1337.7Zm-16.63,58.6c0,2.66-1.13,4.61-3.73,5.5-3.25,1.12-5.58-.24-5.85-3.68-.23-3,0-6,0-9h0c0-2.79,0-5.57,0-8.36,0-2.44.73-4.39,3.58-4.55,2.62-.16,4.76.76,5.69,3.37a11,11,0,0,1,.42,3.54C1278.41,1387.54,1278.38,1391.92,1278.36,1396.3Zm-.11-41.2c-.23,3.3-2.28,5-5.45,5.15-2.38.12-3.92-.86-4-3.33-.11-3.18,0-6.36,0-9.55h-.06c0-2.78,0-5.57,0-8.35,0-2.46.85-4.27,3.64-4.54s5.24,1.16,5.77,3.93a28,28,0,0,1,.27,5.35C1278.39,1347.54,1278.52,1351.33,1278.25,1355.1Z"/><path d="M1704.35,1318.4c-5.39-.21-10.79-.11-16.19-.06-5.92.07-6.44.57-6.46,6.6,0,14.38,0,28.77,0,43.15,0,14.58,0,29.17,0,43.75,0,5.23.7,5.88,5.86,6,5.6.09,11.2.12,16.79,0,12.76-.32,19.76-7,19.94-19.75q.43-30,0-59.92C1724.08,1325.18,1717.43,1318.91,1704.35,1318.4Zm3.28,74.86a28.49,28.49,0,0,1-.1,3.58c-.46,3.57-2.78,5.6-6,5.24-3.65-.41-3.56-3.21-3.56-5.84,0-9.38,0-18.76,0-28.14h0c0-9.57-.1-19.16,0-28.73.07-4.3,3.32-6.31,6.78-4.27a7.23,7.23,0,0,1,2.56,3.71,12.67,12.67,0,0,1,.26,4.15Q1707.65,1368.12,1707.63,1393.26Z"/><path d="M1857.74,1368.14v-15c0-5,.07-10,0-15-.25-14.21-7.52-21.29-21.73-21.22a34.79,34.79,0,0,0-4.77.43c-9.11,1.29-14.73,6.93-16,16.07a38.55,38.55,0,0,0-.26,5.38q0,29.37,0,58.76a35.79,35.79,0,0,0,.49,6.55c1.55,8.46,6.58,13.62,15.11,14.8,15.37,2.13,27.49-3,27.16-22.61C1857.61,1386.93,1857.74,1377.54,1857.74,1368.14Zm-16.72.59c0,8.79,0,17.58,0,26.38a22.09,22.09,0,0,1-.38,4.75,4.16,4.16,0,0,1-4.31,3.46,4.21,4.21,0,0,1-4.44-3.3,22.67,22.67,0,0,1-.57-5.33q0-26.39,0-52.76a30.74,30.74,0,0,1,.23-4.18c.37-2.64,1.71-4.5,4.59-4.67,2.56-.16,4.39,1.78,4.8,5.08a34.39,34.39,0,0,1,.1,4.19Q1841,1355.54,1841,1368.73Z"/><path d="M1598.55,1331.49c-1.42-7.78-6.41-12.19-13.94-13.83a33,33,0,0,0-7.15-.69c-13.45.06-20.76,7.32-20.88,20.79-.09,10,0,20,0,30,0,1.79,0,3.59,0,5.39,0,9-.16,18,.07,27,.3,11.69,7.08,18.63,18.69,19.16a39.22,39.22,0,0,0,10.69-1,15.62,15.62,0,0,0,12.27-12.58,51.82,51.82,0,0,0,1-10.71q.13-27.59,0-55.16A47.59,47.59,0,0,0,1598.55,1331.49Zm-15.91,63.61a22.23,22.23,0,0,1-.38,4.76,4.48,4.48,0,0,1-8.69.13,22.09,22.09,0,0,1-.6-5.32q-.06-26.37,0-52.73a24.46,24.46,0,0,1,.56-5.34,4.21,4.21,0,0,1,4.28-3.51c2.64-.06,4,1.56,4.55,3.91a23.67,23.67,0,0,1,.3,4.77q0,13.49,0,27C1582.66,1377.52,1582.68,1386.31,1582.64,1395.1Z"/><path d="M1479.23,1326.87c-3.19-6.56-9.61-8-16.18-8.41-5.59-.32-11.2-.16-16.8-.12-6.26,0-6.71.54-6.71,6.93q0,21.29,0,42.57h0q0,21.59,0,43.17c0,6.24.51,6.76,6.87,6.81,5.4,0,10.8.12,16.2,0,12.27-.36,19.23-6.62,19.48-18.88.43-20.38.26-40.77,0-61.15A26.71,26.71,0,0,0,1479.23,1326.87Zm-13.61,68.21a15.82,15.82,0,0,1-.16,2.39,4.79,4.79,0,0,1-.52,1.71,5.48,5.48,0,0,1-6.08,2.83c-2.52-.4-2.94-2.41-2.95-4.53q0-9.29,0-18.58v-11.39c0-8.79,0-17.58,0-26.37,0-5.15.9-6.52,4-6.68,3.69-.18,5.71,1.94,5.73,6.68C1465.67,1359.12,1465.63,1377.1,1465.62,1395.08Z"/><path d="M1915.21,1318.36c-2.6,0-5.2,0-7.8,0-3,0-4.38,1.54-4.43,4.44,0,1.6,0,3.2,0,4.8,0,9.19.08,18.39,0,27.59-.06,4.56-2.29,6.15-6.51,5.15-3.17-.76-3.13-3.21-3.13-5.65,0-9.8,0-19.59,0-29.39,0-6.27-.68-6.87-6.83-7h-1.8c-7.17,0-7.56.39-7.57,7.36q0,21,0,42,0,20.08,0,40.18c0,10.29.07,10.37,10.32,10,5.05-.19,5.78-.85,5.86-6.09.11-6.2,0-12.4,0-18.6,0-4.19,0-8.39,0-12.59,0-3,1.59-4.33,4.48-4.46,3.73-.17,5.09,1.08,5.15,5.52.11,8.4,0,16.8,0,25.19,0,11.75-1.24,11.2,12.29,11l.6,0a3.6,3.6,0,0,0,3.75-3.81c.08-1.39.09-2.79.09-4.19q0-41.68,0-83.37,0-1.8,0-3.6C1919.58,1319.91,1918.2,1318.34,1915.21,1318.36Z"/><path d="M2020.44,1338.61c-.1-15-8.12-22.47-23-21.61-1.19.07-2.39.21-3.58.38-8.85,1.3-14.41,6.78-15.71,15.62a48,48,0,0,0-.33,6.57q0,28.48,0,57a53.91,53.91,0,0,0,.16,5.39c1,10.29,7,16.45,17.36,17.3,15.42,1.28,25.4-4.87,25.17-22.46-.12-9.59,0-19.18,0-28.77C2020.46,1358.2,2020.51,1348.4,2020.44,1338.61Zm-16.71,30q0,12.89,0,25.78c0,1.4,0,2.8-.09,4.19-.23,2.73-1.65,4.62-4.45,4.75s-4.43-1.62-4.88-4.31a29.25,29.25,0,0,1-.3-4.77q0-26.09,0-52.16a24.5,24.5,0,0,1,.49-5.35,4.35,4.35,0,0,1,4.81-3.63,4.29,4.29,0,0,1,4.09,3.76,24.32,24.32,0,0,1,.32,4.76C2003.75,1350.6,2003.73,1359.6,2003.73,1368.59Z"/><path d="M1651.3,1378c-1.22-3.37-1.31-6,2.12-8.28a14,14,0,0,0,6.34-11.72c.17-8.15.37-16.38-.44-24.47-.85-8.42-6-13.52-14.38-14.47-7.31-.82-14.75-.53-22.14-.65-2.69,0-4,1.54-4,4.16,0,1.6,0,3.2,0,4.8v80.92c0,9.77.1,9.87,10.17,9.55,5.14-.17,5.87-.78,5.92-6,.09-8.19,0-16.38,0-24.57,0-2.12.22-4.23.33-6.34l1.78-.29c.66,1.81,1.45,3.57,1.94,5.42,2.07,7.72,3.84,15.52,6.1,23.18,2.6,8.79,1,8.6,11.25,8.58,8.9,0,9.07-.21,6.08-8.76C1658.64,1398.71,1655,1388.33,1651.3,1378Zm-7.84-24.24a8.85,8.85,0,0,1-2.26,5.22c-2.19,2.2-6.41,1.46-6.34-2.54.05-3,0-6,0-9h0c0-2.79,0-5.57,0-8.36,0-2.15.54-4,3-4.5a4.82,4.82,0,0,1,5.39,3.66,8.88,8.88,0,0,1,.32,2.35C1643.58,1345,1643.78,1349.41,1643.46,1353.76Z"/><path d="M1356.55,1407.54c-3.38-9.62-6.79-19.23-10.14-28.86-1.91-5.48-1.93-5.56,2.27-9.17,3.36-2.88,5.69-6.46,5.79-10.81.18-8.56.43-17.18-.45-25.67-.83-8.13-6-13-14.2-13.94-7.32-.83-14.77-.55-22.16-.69-2.69-.05-4,1.48-4.07,4.12,0,1.6,0,3.2,0,4.8q0,40.2,0,80.41c0,10.42,0,10.45,10.22,10.1,5.08-.17,5.82-.81,5.88-6,.08-8.2,0-16.4,0-24.6,0-2.09.26-4.19.41-6.28l1.75-.14c.6,1.63,1.31,3.23,1.76,4.9,1.87,6.95,3.67,13.92,5.47,20.9,3.07,12,3.77,12.45,15.82,11.24,3.67-.37,4.39-1.38,3.43-5.15C1357.83,1410.92,1357.15,1409.24,1356.55,1407.54Zm-18.17-53.75c0,2.78-1,5.1-3.86,6.09-2.5.85-4.47-.21-4.69-2.88-.27-3.16-.06-6.36-.06-9.55h-.08c0-2.78,0-5.57,0-8.36,0-2.15.56-4,3-4.48a4.82,4.82,0,0,1,5.37,3.68,8.5,8.5,0,0,1,.31,2.36C1338.41,1345,1338.43,1349.41,1338.38,1353.79Z"/><path d="M1409.75,1328.7c-1.71-11.08,0-10.38-12.09-10.37h-3.6c-7.28,0-7.34,0-8.41,7-4.14,27.25-8.33,54.49-12.3,81.76-1.51,10.45-3.72,11,10,10.68,4.4-.1,5-.69,5.81-5.17.69-3.94,1.1-7.92,1.77-11.85.65-3.75,3.62-3.72,6.5-3.71,4.51,0,5.66.59,6.38,3.81.52,2.33.62,4.75,1,7.11,1.58,9.7-.11,10,11.4,9.83,5.92-.08,6.6-.79,5.73-6.75C1418,1383.61,1414,1356.14,1409.75,1328.7ZM1397,1381.15c-1.2-.33-3-1.92-2.93-2.88a64.78,64.78,0,0,1,3.3-19,62,62,0,0,1,3.33,19.17A2.76,2.76,0,0,1,1397,1381.15Z"/><path d="M1534.54,1318.34q-12.58-.09-25.18,0c-6.15,0-6.71.63-6.72,7,0,14.18,0,28.36,0,42.54q0,19.77,0,39.55c0,10.79,0,10.79,10.52,10.41,5.07-.19,5.75-.79,5.8-6.08.08-9.38,0-18.77,0-28.16,0-7.12.35-7.43,7.43-7.49h1.8c10.64.07,10.32.83,10.12-11.31,0-3-1.6-4.34-4.49-4.36-3.39,0-6.79,0-10.19,0-2.82,0-4.62-1.1-4.62-4.18q0-8.68,0-17.38c0-3,1.57-4.37,4.47-4.4s5.59,0,8.39,0c9.51,0,9.72-.2,9.46-9.71C1541.17,1319,1540.6,1318.38,1534.54,1318.34Z"/><path d="M1949.23,1318.33c-6.75.08-7.1.4-7.12,7.19q0,21,0,42v39.59c0,11.12-1.22,10.83,11.36,10.73.4,0,.8,0,1.2,0,2.64-.11,4-1.46,4.11-4.13,0-1.6,0-3.2,0-4.8q0-40.49,0-81C1958.84,1318.21,1958.84,1318.21,1949.23,1318.33Z"/><path d="M1754.31,1399.69c-10.49,0-10.16-.69-10.1,10.09a18.17,18.17,0,0,0,.12,4.18c.31,1.25.89,3,1.85,3.43,3.45,1.61,3,4.26,2.51,7.1a37.53,37.53,0,0,0-.83,5.31,4.81,4.81,0,0,0,.91,3.25c2.22,2.32,9.36,1,10.35-2,2.25-7,5.11-13.84,5-21.44C1764,1399.69,1764.15,1399.69,1754.31,1399.69Z"/><path d="M2000.71,247.22c1.21,12.11,1.17,24.38,4.83,36.17a86.78,86.78,0,0,1,2.83,11c4.36,25.65,17.13,47.23,33.08,67,7.88,9.79,16.93,18.66,25.75,27.65,4.6,4.69,9.43,9.39,14.89,13a329.25,329.25,0,0,0,58.65,30,155.07,155.07,0,0,0,33,8.64c10.61,1.69,21.46,1.86,32.2,2.7l0-.7c4,0,8-.13,12,0,18.11.69,35.39-3.6,52.21-9.49A273.49,273.49,0,0,0,2319,410.36c5.84-3.46,12.17-6.54,17-11.1,17.78-16.67,35.59-33.32,48.79-54.24,8.41-13.31,15.82-26.95,19.26-42.36,3.39-15.18,8.22-30.05,8.81-45.84.57-15.15,2.63-30.25-1-45.31-1.09-4.45-1.07-9.17-2.13-13.62-2.59-10.87-5.52-21.65-8.33-32.46a8.84,8.84,0,0,0-.73-1.64c-4.3-9-8.41-18.11-13-27a152.41,152.41,0,0,0-11.49-19.63C2366.45,103.74,2356,90.87,2342,81.4c-2.31-1.57-4.42-3.44-6.61-5.18-8.95-7.11-18.26-13.71-28.57-18.72-10.78-5.25-21.8-10-32.49-15.48-8.56-4.36-17.61-6.42-27-7.53-2-.24-3.92-.85-5.91-1.06-11.11-1.18-22-3.91-33.3-4-12.14-.1-23.83,2.47-35.69,4.09-11.7,1.6-23.1,3.93-34,9-20,9.29-39.85,18.56-57.51,32.07-15,11.49-29.3,23.56-40.28,39.11-2,2.78-4.17,5.43-5.72,8.42-6.18,11.85-11.93,23.93-18.23,35.71-6.13,11.47-7.61,24.32-11.57,36.43a32.24,32.24,0,0,0-.74,5.34c-.64,4.35-.85,8.83-2,13-2.42,8.46-2,17-1.79,25.6C2000.53,241.23,2000.41,244.25,2000.71,247.22Zm9-35.22c2.18-10,4.13-20,6.08-30a85.7,85.7,0,0,1,10.06-27.45c6.79-11.53,12.54-23.74,20-34.79A153.61,153.61,0,0,1,2100.31,70c11.94-6.49,23.69-13.36,35.84-19.42,6.58-3.27,13.82-5.21,20.78-7.68a13.65,13.65,0,0,1,3.55-.58c4.61-.37,5.82.59,5.94,5.18.22,8,.27,16,.37,24q.47,36.9.94,73.8c0,2.06-.68,5.36,2.16,5.41,3.38.05,2.48-3.44,2.52-5.63.37-18.4.65-36.8.94-55.19.23-14.2.42-28.4.66-42.6.1-6.26.59-6.53,6.63-7.7,18.34-3.53,36.62-3.08,54.92.31,5.3,1,10.69,1.56,16,2.29,4.54.63,5.08,1,5.27,5.57.32,8,.49,16,.67,24,.16,7,.23,14,.38,21,0,1.39-.25,3.11.44,4.11,3.66,5.25,2.21,11.16,2.67,16.84.24,2.89,1.31,5.71,1.91,8.58a40.34,40.34,0,0,1,1.07,6.4c.23,5.16-.48,10.38,2.53,15.14.76,1.2.46,3.11.52,4.7.17,4.59.2,9.2.43,13.79a42.46,42.46,0,0,0,1.23,5.67c1.6-1.82,2.73-2.59,3.08-3.62a13.58,13.58,0,0,0,.27-4.15q.29-40.51.57-81c.06-8.4.14-16.8.35-25.19.11-4.55,1.54-5.35,5.58-3.38a515.35,515.35,0,0,1,50.54,28.77c5.36,3.4,8,7.18,8,14,.23,29.39,1.11,58.78,1.78,88.17a61.09,61.09,0,0,0,.47,7.78c.14.95,1.25,1.76,1.92,2.63.84-.91,2.31-1.78,2.39-2.75.38-4.58.41-9.19.5-13.79.45-23,.85-46,1.33-69,.07-3.31.45-6.62.77-11.13,2.23,1.42,3.69,2,4.62,3,9.63,10.72,19.12,21.52,25.61,34.62,4.25,8.59,9,16.92,13.82,25.23a60.17,60.17,0,0,1,6.8,17.86c3.23,15.47,6.71,30.89,9.5,46.44,1,5.63.66,11.57.37,17.34a299.49,299.49,0,0,1-5.27,45.2c-2.44,11.94-5.35,23.79-11.47,34.58-4.54,8-8.68,16.22-13,24.34-7.67,14.39-19.29,25.42-31,36.41a15.18,15.18,0,0,1-2.76,1.49,30.93,30.93,0,0,1-.88-4.71c-.34-17.6-.59-35.2-.92-52.8q-.3-16.19-.78-32.38a27.63,27.63,0,0,0-1.08-4.95c-3.82,1-3.34,3.42-3.4,5.49-.24,8.8-.49,17.59-.63,26.39-.36,21.4-.93,42.8-.83,64.2,0,7.12-2.48,11.89-8.45,15.17-6.83,3.76-13.71,7.44-20.56,11.15-3.17,1.71-6.43,3.27-9.49,5.14-15.79,9.67-33.14,14.87-51.22,18-3,.52-5.93.94-8.9,1.35-4.93.69-5.77.09-5.86-4.77-.11-6.2,0-12.41-.09-18.61,0-2.28-.49-4.55-.77-6.92-7.75,1.9-8.74,3.06-8.83,9.64-.07,5.8-.12,11.6-.25,17.4-.12,5.42-.78,6.23-6.3,6.41s-10.88.51-16.19-.22c-22.2-3.05-44.53-5.65-65.41-14.6-1.84-.79-3.73-1.5-5.48-2.44-11.28-6-22.48-12.24-33.82-18.16-4.43-2.31-6.15-5.41-6.15-10.5,0-33.21-.26-66.41-.51-99.62q-.4-55.2-.93-110.41c-.15-15.2-.43-30.39-.75-45.59,0-2,.72-5.15-2.55-5-2.58.14-2.09,3-2.11,4.91q-.22,18.3-.33,36.6-.34,50.1-.67,100.21-.43,54.61-1,109.21c0,1.89-.32,3.78-.49,5.67l-1.88.59c-5.62-5.36-13.06-9-12.69-19.13.39-10.77-.41-21.58-.94-32.37-.12-2.45-1.29-4.85-1.94-7.28a32.05,32.05,0,0,1-1.34-5.7c-.28-3.78-.2-7.59-.36-11.39-.05-1.38.14-3.2-.63-4.06-3.82-4.26-2.81-9.36-2.86-14.27,0-3.61.15-7.13-2.4-10.24-.88-1.09-.92-3-1-4.58-.19-4.8-.11-9.6-.32-14.39a47.6,47.6,0,0,0-1-5.91c-3.47.07-3.53,2-3.59,3.81q-.23,7.2-.32,14.4-.39,34.8-.76,69.6c0,2.31-.33,4.62-.59,8.13-1.94-1.54-3.21-2.11-3.81-3.09-9-14.67-17.3-29.79-23.73-45.78a89.9,89.9,0,0,1-4.87-19.14c-1.9-11.82-3.25-23.74-4.71-35.62-.48-4-.52-8-.93-11.95C2006.36,229.67,2007.78,220.84,2009.71,212Z"/><path d="M2211.77,404.18c13.41,0,24.38-10.44,24.3-23s-10.83-22.72-23.91-22.76c-13.28,0-24.49,10.55-24.36,23S2198.9,404.21,2211.77,404.18Zm.71-32.52c5.27.2,9.71,4.6,9.62,9.54a10.13,10.13,0,1,1-20.22-1.09C2202.1,375.43,2207.09,371.45,2212.48,371.66Z"/><path d="M2229.71,358.73c-1-81.91-1.27-163.63-3.57-245.36a81.81,81.81,0,0,0-1.4,11.2c-.33,9-.48,18-.6,27q-.61,46.76-1.15,93.51c-.17,13.18-.45,26.37-.61,39.55q-.4,33.27-.68,66.55C2221.66,356.43,2222.87,357.5,2229.71,358.73Z"/></svg>