<svg id="Layer_1" data-name="Layer 1" xmlns="http://www.w3.org/2000/svg" viewBox="0 0 3340.7 1916.25"><defs><style>.cls-1{fill:#fff;}</style></defs><path class="cls-1" d="M1692.69,229.89c23.32,22.88,47.17,45.34,69.82,68.95,9.08,9.46,18.36,15.17,31.36,13.06,19.85-3.24,25.87,4.15,26.33,24.7.51,23-12.34,18.91-26.52,20.73-27.77,3.58-46.71-7.33-65.11-27.39-28.6-31.18-60.23-59.58-94.1-92.59,0,18,1.16,33.76-.29,49.3-1.77,18.84,2.39,29.14,24.11,25.48,21.38-3.62,17.54,12.23,18.75,25,1.53,16.2-5.07,20.54-20.54,20-31.66-1.06-63.42-1.35-95,.1-17,.77-20.45-5.81-19.28-20.78,1-13-2.55-28.24,18.9-24.45,23,4.05,26.74-7.25,26.43-27.51-1.06-69.9-.9-139.84,0-209.75.23-18.22-1.74-30.4-24-26.2-17.67,3.33-21.31-5-21.62-21.54-.35-18.64,5.32-23.61,23.89-23.8,68.75-.71,68.74-1.46,68.74,66.94V223.33l81.49-65.61c-7.34-12.63-20.35-3.26-26.66-10.27-7.35-8.16-4.4-19-3-28.1,1.92-12.77,13.75-8,21.51-8.07q106.31-.59,212.6-.17c12.87,0,28.29-5.55,28.62,19,.31,23.45-8.49,29.62-34.34,22L1968,293.26c17.77-46.73,32.91-86.39,47.88-126.11,2.84-7.57.86-13.36-8.37-12.15-26.77,3.53-19.64-15.77-20-29.52-.6-20.79,15.6-13.78,25.89-14.12,25.1-.83,50.31.71,75.37-.64,18.28-1,18.56,9,18.32,22.28-.23,12.55,1.33,25.38-17.63,21.72-19.18-3.7-23.63,9.54-28.79,23.24-20,53-40.81,105.75-60.25,159-5.95,16.29-13.24,24.1-32.5,23.7-18.06-.38-24.53-8.59-30-23-20.17-52.94-41.71-105.36-61.14-158.56-6.51-17.81-14.75-24.86-34.83-24.93C1771.28,153.92,1757.22,160,1692.69,229.89Z"/><path class="cls-1" d="M639.28,170c43.68,25.64,61.92,59.82,54.45,101.81-7.91,44.51-37.15,73.16-86.55,81-55.24,8.76-111.12,2-166.66,4.26-18.48.74-14.23-11.67-14.46-21.75-.28-11.9-2.49-26.41,16.9-23.15,24.46,4.1,25.28-9.67,25.09-28.18q-1.08-104.73.06-209.48c.21-18-1.48-30.21-23.83-25.94-17.79,3.4-18.76-7.43-18.58-21.06.19-14.33,0-25.08,20.16-24.2C494.85,5.45,544,4.91,593,6.68c39,1.41,66.11,21.61,78.46,58.37C684,102.51,676.48,136,645.2,162.4,642.81,164.43,641.25,167.44,639.28,170ZM520.46,251.44c0,65.18,0,65.18,61.69,59.33,36.81-3.49,56.65-21.75,58.5-53.85,1.89-32.71-17.86-54.35-55.18-60.46C521.76,186,520.47,187.12,520.46,251.44ZM519.41,97.91c10.08,17.22-20.89,55.44,30.33,53.08,52-2.39,74.41-16.18,74.28-52.41-.13-34-23.28-47.06-72.85-50.74C504.15,44.36,525.35,77.4,519.41,97.91Z"/><path class="cls-1" d="M2747,195.94c-15.15,47.28-30.73,94.42-45.18,141.91-4.66,15.3-10.77,23-28.89,22.67s-26.48-4.95-31.93-23.39c-16-54.32-34.61-107.91-52.59-161.65-2.85-8.52-2.28-21.92-16.47-20.42-28,3-18.33-17.41-18.9-30.27-.94-21.2,16.11-12.47,26-13.39,14.09-1.32,28.66-2,42.52.18,12.95,2.06,33.6-12.59,35.92,17.74,2,26-13,26.84-32.91,26.56,15.24,46.76,29.63,90.89,47.2,144.77,15.77-50.07,28.6-90.56,41.21-131.11,1.71-5.5,6.53-14.76-4.39-14.22-28.58,1.39-17.19-19.53-17.55-31.64-.64-21.13,17-11.53,26.77-12.19a435.47,435.47,0,0,1,62.25,0c9.85.74,27.54-9.12,27.82,10.9.17,11.57,12.51,33.25-16,32.75-8.3-.15-7.12,6.23-5.46,11.46,13.33,42,26.8,84,42.94,134.43l46-143.59c-14.5-5.42-36.72,4.09-33.67-24.32,1.78-16.53,4.76-23.35,22.28-22.38a661.2,661.2,0,0,0,68.83,0c15.45-.76,22.09,3.83,20.5,20-1.24,12.6,3.34,27.88-18.78,24.05-16.87-2.93-18.93,10.26-22.64,21.82-17,52.9-34.43,105.66-51.12,158.65-4.88,15.51-9.58,26.45-30.36,25.42-18.46-.91-26.14-6.09-31.33-24.22-13.48-47.06-29.86-93.29-45.09-139.85Z"/><path class="cls-1" d="M350.17,1289.47q-24.84,88.14-49.72,176.24c-3.53,12.41-5.78,23.61-24.76,23.08-18.09-.51-21.38-10-25.11-23.22-17.74-63-35.89-125.8-53.78-188.71-3.62-12.75-5.77-25.93-24.66-22.89-15.75,2.54-13.13-9.61-14-19.19-1.17-12.94,6.41-13.83,16.21-13.69,20.76.32,41.55-.29,62.31.26,9.71.25,22.49-5,23.44,13.58.87,17-6.77,20.89-21.34,19.59-2.75-.25-5.72,2-9.94,3.55,15.28,52.34,30.38,104.08,45.49,155.83l6.38-.54q20.24-71.44,40.48-142.88c2.81-9.89,2.74-17.64-11-16.24-17.86,1.82-15.1-10.89-15.3-21.6-.26-14.15,10.24-11.35,18.4-11.4,28.43-.2,56.85,0,85.28-.12,9.26,0,17.87-.18,16.93,13.09-.68,9.55,2,21.23-13.7,19.93-19.35-1.61-14.84,10.25-11.87,20.79,13,46.15,26.26,92.23,45.19,139.76,14.64-50.42,29.59-100.76,43.68-151.34,2.8-10.06-6.56-9.47-12.64-8.95-14.2,1.21-15.36-6.9-15.88-18.19-.69-15,8.2-15.21,18.83-15.08,19.67.22,39.36.29,59,0,10.67-.18,19.6-.06,18.78,14.85-.59,10.81-.93,20.36-15.57,18.22-17.84-2.6-18.13,11.07-21.31,22.35-17.79,63-35.92,125.84-53.28,188.93-3.77,13.67-7.11,23.39-25.05,23.07-17.08-.3-21.58-7.89-25.56-22.59-15.92-58.75-33.37-117.09-50.26-175.58Z"/><path class="cls-1" d="M795.64,1690.48l-88.86,225.77-87.63-224.54-6.78.77c0,55.68.11,111.35-.1,167,0,10.73,6,13,14.63,12,17.18-1.85,15.91,9.5,15.89,20.84,0,16.68-12.42,11.77-21,12.06-17.47.61-35,.37-52.47.11-9.17-.14-20.48,3.37-20.54-12.92,0-12.19.2-22.33,16.68-20,12.54,1.77,14-5.57,14-15.74q-.42-82,0-163.92c.05-11-.74-19.85-15.27-18.09s-14.91-7.77-15.36-18.54c-.64-15.24,9.14-14.73,19.37-14.46,2.19,0,4.38,0,6.56,0,63.84-1.2,63.84-1.2,86.71,58.43q18.75,48.87,37.5,97.72c2,5.09,4.06,10.13,6.19,15.41,11.84-1.19,10.69-12.13,13.55-19.09,12.44-30.23,24-60.83,35.81-91.3,25-64.37,25-64.43,94.15-61.08,8.93.44,20.87-3.94,21.27,12.39.29,12,.11,22.46-16.48,20.58s-16.46,9-16.41,20.8c.22,52.45.32,104.91-.15,157.36-.12,12.81,1.83,21.68,17.44,19.57,14-1.87,15.45,6.13,15.87,17.67.54,14.56-7.2,15.64-18.34,15.41-21.85-.43-43.72-.16-65.58-.12-9.13,0-17.78.15-16.85-13.23.67-9.68-2-20.87,13.72-19.7,10.58.78,18.53.48,18.33-14.55-.76-55.14-.3-110.3-.3-165.45Z"/><path class="cls-1" d="M1891.55,1693c0,53.23.35,106.47-.25,159.69-.16,13.43,2.68,20.52,17.82,19.18,16.13-1.43,12.15,11.11,12.8,20.28,1,13.81-8.87,12.38-17.46,12.43-18.58.12-37.17.26-55.74-.06-9.07-.15-20.65,3.67-20.72-12.7,0-12,0-22.49,16.58-20.2,12.46,1.72,14.07-5.44,14-15.69q-.43-81.93,0-163.88c.06-11-.59-20-15.17-18.18s-15-7.58-15.45-18.43c-.62-15.17,9-14.86,19.3-14.58,2.19.07,4.37,0,6.56,0,64.11-1.21,64.12-1.22,86.83,58.24q21.6,56.5,43.26,113.24c12.19-1.09,11-12.06,13.81-19,12.45-30.21,24-60.79,35.83-91.24,26.12-67.09,26.1-66.86,97.44-61.51,11.12.83,18.9,1.44,18.37,15.79-.43,11.79-3,19.09-16.56,17.52-16.34-1.89-16.66,8.69-16.6,20.64.25,52.44.33,104.89-.13,157.33-.11,12.67,1.48,21.75,17.26,19.75,13.57-1.73,15.78,5.59,16.07,17.57.35,14.54-7.15,15.72-18.34,15.49-20.75-.44-41.53.1-62.28-.23-9.08-.14-20.33,3.29-20.31-13.09,0-12.6,1.19-22,17.08-19.77,11.28,1.57,15.07-3.12,15-14.46-.43-55.15-.19-110.29-5.71-166.68L1986,1916.1l-87.73-224.56Z"/><path class="cls-1" d="M2906.05,1331.22c21.55-31.73,51.39-35.6,86.06-30.39,22.4,3.37,45.77.08,68.69.47,6.56.11,17.41-4.17,17.44,7.92,0,8.37,7,22-7.34,24.2-13.38,2.06-9.65,8.06-6.87,15.16,10.15,25.9,20.44,51.73,33.59,85,13.12-34.23,23.08-61.21,33.89-87.85,3.58-8.8,1.49-12-7.39-11.54-16.57.84-11.72-11.33-12.63-20.23-1.41-13.77,8.18-12.76,16.93-12.79q27.85-.09,55.7,0c8.8,0,18.25-.87,17,12.81-.81,9.16,3.29,21.7-13.07,20-19.27-2-19.81,13.91-24.23,25.08-24.42,61.74-48.15,123.74-72.35,185.57-7.25,18.54-49.82,31.55-64.82,20.2-6.35-4.81-4.28-11.77-4.47-18.07-.28-8.88,5.82-9.48,12.82-10.9,31.19-6.34,49.18-41.46,37.07-72.16-13.18-33.43-29.64-65.85-39.66-100.18-11.79-40.4-40.6-29.38-67.57-28.33-28.28,1.1-49.07,11-52.14,42.42-1.48,15.14-1.61,30.4-2.68,45.59-1.23,17.51-1.62,33.6,24.14,28.95,14.24-2.56,15.26,6.8,15.47,18,.23,11.61-4.43,15.19-15.44,15-27.29-.47-54.61-.59-81.9,0-12.73.3-16.72-4.26-16.8-17-.08-13.59,5.76-18,17.57-16,21.75,3.72,22-9.2,21.25-24.9-.86-18.52,0-37.11-.24-55.67-.23-19.13,7.88-44.34-28-37.87-8.32,1.5-10.92-5.35-10.13-12.79.65-6.11-3.09-16.08,4.06-17.36,14.8-2.63,30.35-.77,45.35-2.64C2910.81,1297.72,2896.85,1320.57,2906.05,1331.22Z"/><path class="cls-1" d="M2431.12,246.59c-28.43,0-56.87.67-85.26-.24-16.72-.54-17.6,6.28-13.5,19.73,17.59,57.66,91.44,74.94,143.5,33.64,7.11-5.64,10.55-19,23-14.8,11.25,3.77,26.35,7.13,31.27,15.59s-8.71,17.91-16.32,25c-44,40.93-117,49.87-171.29,21.47-49.67-26-72.53-71.79-65.54-131.28,7.55-64.31,66-112.19,133.43-109.37,65.76,2.74,120.79,57.8,123.32,121.7.58,14.56-2.93,19.24-17.39,18.81C2488,246,2459.54,246.59,2431.12,246.59Zm-100-34.18c45.9,0,89.44-.86,132.92.36,21.37.6,21.21-8,13.71-22.84-15.08-29.76-46.94-46.87-81.21-43.65C2362.7,149.44,2342.31,169.19,2331.07,212.41Z"/><path class="cls-1" d="M1209.28,235.54c-.68,74.57-54.33,127.93-128.56,127.88-75.28-.05-129.68-55.53-128.67-131.23,1-73.42,56.06-126.53,130.6-125.92C1156.81,106.89,1210,161.15,1209.28,235.54Zm-205.76-2.33c-.43,48.48,31.75,83.76,76.71,84.13,44.61.36,78.65-35.42,78.71-82.76.06-45.69-32.67-81.19-75.81-82.22C1037.3,151.27,1003.94,185.14,1003.52,233.21Z"/><path class="cls-1" d="M1504.38,237.26c-1.31,74.1-55.77,126.88-130.17,126.16-74.86-.73-128.73-57.13-127-133,1.69-73,57.7-125.6,132.33-124.22C1453.45,107.61,1505.7,162.46,1504.38,237.26Zm-205.63-3.85c-.36,48.42,31.92,83.66,76.89,83.93,44.59.27,78.65-35.69,78.57-82.95-.07-45.76-32.82-81-76.07-82C1332.21,151.42,1299.11,185.2,1298.75,233.41Z"/><path class="cls-1" d="M1769.81,1402.67c4.48-10.65,10.88-19.32,11.41-28.33,1.91-32.61,23.93-29.72,46.08-28.68,10,.47,17.07,2.06,16,14.48-.75,8.63,1.13,17.1-12,18.85-32.25,4.3-29.19,36.22-38.23,56.22-5.16,11.43,14,18.13,28.33,16.79,12.9-1.2,23-.79,22.39,17.9-.57,18.08-11.75,15.32-22.09,14.85-18.58-.83-38.43,6-52.58-15.65-7.71-11.82-16.91,2.82-24.54,6.77-63.43,32.92-136.17.07-143.4-65-3.75-33.77,8.2-60.48,37.41-77.3,16.51-9.51,18.4-16.81,9.85-34.7-15.56-32.56-.82-63.29,32.23-77.07,32.37-13.49,70.78-.34,84.27,28.87,12.57,27.22,4.38,54.25-27.35,70.74-22.08,11.46-19.26,20.18-5.85,35.16C1744.52,1370.9,1752.52,1389.39,1769.81,1402.67Zm-73.56,53.39c18.11-1,35-3.75,42.9-17.47,7.68-13.33-8.76-21.72-15-31.75-10.3-16.64-23.22-31.64-33.76-48.13-7.82-12.24-15-12.44-26.3-4.44-21.5,15.26-29.14,35.84-21.78,60C1650.46,1440.86,1670.69,1454.45,1696.25,1456.06Zm37.6-185c-2.68-16.46-12.92-23.88-29.28-22.42-16.6,1.49-26.37,11.26-23.61,27.83,1.94,11.68,4.47,30.3,19.34,28.29C1716.22,1302.64,1733,1292.94,1733.85,1271.1Z"/><path class="cls-1" d="M2218.3,1263.59c0,5.46,1,11.17-.23,16.32-2.25,9.1,8,23.51-9.29,26.43-13.29,2.24-23.15-.86-32.7-14.17-26.63-37.11-71.43-49.7-109.86-34.64-38,14.88-61.38,59.77-56.45,108.28,4.31,42.36,35.35,78.36,73.86,85.65,41.79,7.9,77.56-11.33,100.73-55.21,5.3-10,7-20.54,22.54-10.92,12.18,7.55,20.46,11.77,13.13,29.49-19.16,46.39-71.64,77.38-130.63,73.89-58.62-3.46-106.6-40.12-118.64-95.16-12-54.89-6.69-108.09,39.67-146.75,45.5-37.94,97.62-38.25,150.9-16.66,10,4,20.65,18.47,26-5.82,1.47-6.67,15.89-3.4,24.23-2.43,9.61,1.12,6.28,9.69,6.6,15.51C2218.65,1246.1,2218.29,1254.86,2218.3,1263.59Z"/><path class="cls-1" d="M2534.21,1318.69c0-15.7-.64-29.6.18-43.42s-1.12-23.83-18.65-21.12c-14.23,2.21-15.17-6.6-15.83-17.77-.86-14.51,6.94-14.76,18-15.44,53.51-3.3,53.49-3.6,53.5,49.13,0,53.39.19,106.77-.13,160.15-.07,12.85-.95,24.88,17.83,21.75,16.55-2.76,16.12,7.75,16.56,19.65.61,16.52-11.24,15.28-19.51,12.78-17.84-5.37-43.77,17-54.2-15.94-1.83-5.77-8.74,1.92-12.95,4.11-46.6,24.23-91.73,17.47-120.53-18.19-27-33.38-24.86-94.61,4.37-127.29,32.22-36,74.36-40.43,120.43-12.7C2525.77,1315.91,2528.8,1316.6,2534.21,1318.69Zm-.05,75.11c.75-38.26-22.54-64.54-57.55-64.93-31.08-.35-57.44,27.84-58.35,62.42-1,35.75,22.32,62.86,55.16,64.29C2508,1457.08,2533.44,1431.21,2534.16,1393.8Z"/><path class="cls-1" d="M815.45,154.56c22.85-33.19,51.09-49.41,89-48.7,15.22.29,22.77,4,20.41,20.3-1.8,12.38,6.5,27.25-18.16,29.36-67.45,5.77-79.29,19.74-82.73,87.09-.66,13.06,1.54,26.41-.27,39.25-3.47,24.56,5.42,34.27,30.12,30.24,16.57-2.7,25.86,1.4,25.78,22-.08,19.36-6.73,23.68-24.51,23.08-36-1.2-72.12-1.29-108.12.06-16.81.63-20.55-5.6-19.49-20.67.94-13.32-1.6-28.22,19.25-24.52,25.29,4.48,31.42-6.26,29.91-30.18-2.12-33.72-1.57-67.72-.14-101.51.82-19.4-3.92-29.24-25-25.68-17.47,3-24.28-2.92-24.48-22.38-.23-21.87,11-22.44,26.53-21.32a91.33,91.33,0,0,0,16.37,0C799.82,107.73,825.78,108.79,815.45,154.56Z"/><path class="cls-1" d="M1385.49,1433.63c11.11-29.11,19.83-50,27-71.46,3.59-10.82,22.46-26.82-8.7-30.19-9-1-4-15.2-3.87-23.19.17-9.59,9-7.45,14.9-7.54,19.66-.32,39.33.18,59-.25,10.67-.23,16.56,2.87,15.31,14.77-.86,8.25,2.29,19.67-11.63,18-18.87-2.27-20.82,12.1-25.38,23.76-24.22,61.85-48.09,123.83-72.26,185.7-7.55,19.33-47.14,32.93-64.18,22.43-7-4.28-5.32-11.2-5.68-17.55-.46-8.17,3.92-10.46,11.49-12.3,34.86-8.49,51-40.58,37.79-74s-26.89-66.67-40.35-100c-6-14.8-8.75-31.48-32.32-28.46-13.7,1.76-8.44-12-9.38-19.68-1.28-10.38,4.93-12.79,14-12.65,19.66.31,39.35.64,59,0,26.56-.92,17.77,26.62,14.62,27.85-28,10.92-8.94,26.78-5,39.39C1365.83,1387.7,1374.58,1406.36,1385.49,1433.63Z"/><path class="cls-1" d="M817.84,1415.8c0-16.4.21-32.79-.09-49.18-.31-16.76-.59-36.76-23.76-34.54-21.8,2.08-48,5.52-51.21,34.9-2.49,22.67.27,45.87-.78,68.77-.6,13.21,4,17.89,16.66,16.26,14.17-1.83,15.1,6.69,15.57,18,.62,15.12-8.23,15-18.74,15-21.86-.2-43.73-.3-65.58,0-10,.15-17.06-1.36-16.46-13.89.48-10-1.25-21.12,14.27-19.08,17.58,2.32,19.45-7.44,18.84-21.5-.85-19.63.22-39.34-.35-59-.52-17.59,8.95-41.87-25.34-38.45-8.88.89-7.18-9.17-7.15-15.25s-1.35-17,6.55-15.47c20.76,4.14,46.67-16.83,62.36,11.88,5.93,10.85,10.39.32,14.93-1.12,12.39-3.92,24.07-10.92,36.66-13.23,35.39-6.49,57.61,11,59.29,46.95,1.32,28.35.47,56.81.2,85.22-.1,11.43-1.24,22.55,16.07,19.94,13.66-2,15.6,5.87,16,17.6.53,14.67-7.49,14.76-18.34,15.49-49.62,3.35-49.61,3.63-49.6-46.38Q817.86,1427.27,817.84,1415.8Z"/><path class="cls-1" d="M2648.13,1833.76c0-16.39.21-32.79-.07-49.17-.27-15.85-1.76-34.51-22.36-32.73-21.72,1.88-48.57,4.62-52.48,33.5-3.19,23.61-.17,48-.85,72-.33,11.6,4.13,15.8,15.17,14.29,16.2-2.21,16.85,7.7,16.84,20,0,16.45-11.56,12.66-20.51,12.83-20.76.38-41.54-.29-62.29.27-11.56.31-18.5-1.63-18.1-15.76.33-11.91,2.8-19.16,16.34-17.36,16.09,2.14,17.22-7.6,16.95-20q-.8-36,0-72.11c.35-15.13,1.35-29.18-21-26-10.65,1.51-12.73-6-11.9-14.58.66-6.92-2.23-20,8.32-17.1,20.22,5.51,47.22-19.43,61.4,13.67,3.36,7.84,9,0,12.78-2,12.69-6.52,25.34-12.77,39.72-14.65,33.94-4.42,55.69,12.07,57.5,46.09,1.5,28.34.73,56.81.3,85.21-.19,12.89-.87,24.25,17.84,21.61,15.4-2.17,13.47,9.2,14.08,19.17.81,13.07-7.13,13.81-16.59,13.62-6.55-.13-13.27-.94-19.64.15-25.94,4.42-35.22-6.23-31.79-31.76C2649.56,1860.18,2648.13,1846.87,2648.13,1833.76Z"/><path class="cls-1" d="M2461,1812c0,14.17.48,28.36-.15,42.51-.51,11.43,1.3,19.26,15.5,17.2,16.47-2.4,16.45,8.3,16.44,20.22,0,16.5-11.83,12.13-20.66,12.61-47.08,2.52-47.08,2.43-47.08-45.1,0-25.07.2-50.15-.1-75.22-.19-15.81-1.87-34.22-22.53-32.43-21.81,1.88-48.42,4.76-52.28,33.58-3.17,23.56-.2,47.89-.85,71.86-.3,11.36,3.75,16,15,14.43,15.91-2.26,17,7.12,17.08,19.67.09,16.31-11,13.05-20.16,13.18-20.71.31-41.44-.13-62.15.2-10.77.17-19.19-.16-18.54-15.08.48-11.24,1.36-19.84,15.51-17.93,18.76,2.53,17.87-9.67,17.64-22.34-.39-21.8-.09-43.61-.14-65.41,0-15.69,5.27-32.3-22.73-31.36-17.72.59-10.6-18.08-7.5-27.74,2.64-8.21,63.85-5.72,65.13,2.81,2.57,17.16,9,8.9,16.44,5.53,70.49-31.77,96.15-15,96.15,62.46Q2461,1803.86,2461,1812Z"/><path class="cls-1" d="M2726,1490.28c-57.14,2.19-102.83-35.57-106.49-88-3.79-54.21,32.36-99.5,84.68-106.08,51.05-6.42,97,30.46,107.59,83.18,4.21,21-2.95,23.94-20.85,23.48-35.94-.91-72,.52-107.88-.48-26.59-.74-23.55,11.6-14.05,27.72,17.49,29.69,60.25,38,92.25,17.83,5.45-3.43,9.84-8.49,14.92-12.54,12.9-10.32,24.82-.55,31.66,6.48,7,7.23-4.61,14.67-10.39,20.34C2781.17,1478.19,2752.08,1489.29,2726,1490.28Zm-8.44-113.41c5.43,0,11.2,1.21,16.22-.23,13.29-3.82,36.11,10.07,38.62-7.64,2.5-17.55-16.35-32.78-34.15-39.17-24.11-8.66-47.48-5.18-64.69,16.24-5.87,7.3-14,16.32-9.25,26,4.48,9.08,15.69,4.12,23.95,4.68C2698,1377.37,2707.78,1376.87,2717.55,1376.87Z"/><path class="cls-1" d="M1016.88,1402.66c-17.43,0-34.92.85-52.3-.15-25.91-1.49-24.25,10.71-14.59,27.35,17.21,29.63,60.06,38.16,92.15,18.14,6.37-4,11.23-10.39,17.65-14.25,11.79-7.09,21.47,1.9,29.35,7.78,5.92,4.41-1.6,11.2-5.55,16-25.06,30.21-82.43,41.53-123.93,24.5-40.95-16.8-63-54-58.84-99,3.94-42.3,35.39-76.83,77.88-85.51,55.23-11.27,110,31.17,115.53,88.07,1.34,13.84-2.66,17.47-15.23,17.2C1058.3,1402.28,1037.59,1402.61,1016.88,1402.66Zm-16.28-25.82c14.12,0,28.25-.37,42.35.11,12.69.44,14.86-3.7,10-15.4-14.44-34.38-62-47.2-90.29-23.44-10.22,8.58-21.28,20.28-17.46,32.81,3.63,11.91,19.19,4.56,29.4,5.74C983.13,1377.66,991.91,1376.87,1000.6,1376.84Z"/><path class="cls-1" d="M1125.51,1757.08c28.8-40.39,79.81-53.46,119.81-32.77,18.3,9.46,27.17,24.9,27.84,44.86.74,21.81-.2,43.67.67,65.47.69,17-9.55,39.76,24.76,39.21,10.61-.17,11,24.5,1.91,28-17.71,6.75-47.63,10.65-55.41-.44-11.29-16.1-15-8.55-24.59-3.83-32.93,16.3-63.32,12.6-84.3-9.78-17.85-19-19.61-41-8.85-63.48,12.76-26.7,43.93-37.26,78.92-32.79,9.35,1.19,24.86,23.1,30.47-1.36,4.87-21.25-4.53-38.77-29.08-42.82-13.28-2.2-28.21-2.8-37.13,7.46C1155.8,1771.75,1142,1764.62,1125.51,1757.08Zm64.83,122.53c18.81-3.42,44.18-5,46.22-30,2.33-28.53-25.09-28.66-44.57-30.73-19.22-2-34.83,7.11-36,28.67S1168.53,1878.33,1190.34,1879.61Z"/><path class="cls-1" d="M1649.06,1800c3.27-20.72,3.72-38.17-15.09-48.13-17.85-9.45-38.25-9.69-52,4.42-15.2,15.61-27.31,6.14-41.41,2.61,18-36.2,53.85-50.85,98.42-40.7,36.92,8.41,47.66,24,47.92,69.59.11,19.66.58,39.33-.15,59-.56,15.28-1.24,28.55,20.93,25.29,11.07-1.63,11.35,7.54,10.79,15.5-.42,6,2.6,15.39-6.35,16-18.44,1.23-50.42,5.84-53.2-.81-11.14-26.67-22-5.7-30-2.36-45.34,19.09-91.67-3.28-94.25-46.77-2.12-35.92,28.22-65.1,67.58-63.06C1617.21,1791.29,1631.92,1796.39,1649.06,1800Zm-44.1,79.49c18.21-3.9,43.89-5.35,44.88-30.8,1.08-27.7-25.68-28.29-45.5-29.79-19.47-1.48-34.59,8.06-35,29.66S1582.87,1878.83,1605,1879.49Z"/><path class="cls-1" d="M2208.14,213.81c0,22.91.39,45.82-.15,68.72-.4,17.22-2.06,32.66,24.2,30,20.61-2.11,11.61,16.09,13.49,26.17,2.59,14-3.37,19-17.8,18.48-27.24-1-54.54-.42-81.82-.23-12.22.08-25,2.05-22.8-17.27,1.47-13-5.08-30.93,19.2-27.65,14.82,2,18.29-5,18-18.67-.71-40.34-.48-80.71-.12-121.06.1-11.72-2.64-19.53-16.24-17.43-22.34,3.44-20.48-11-21.16-26-.84-18.66,10.26-17.54,23-17.94,62.13-1.93,62.13-2.14,62.13,60.38Q2208.15,192.53,2208.14,213.81Z"/><path class="cls-1" d="M1501.59,1759.74c-3.13,7.59,8.22,22.93-7.34,28.79-18,6.75-25.78-5.35-34.8-19.71-11.27-18-30.75-23.63-52-17.89-26.84,7.27-39.31,27.16-41.37,53-2.3,28.89,5.26,55.45,34.14,68.36,24.16,10.79,48.33,6.35,65-14.92,10.36-13.19,19.19-16.74,31.9-6.2,15.33,12.71-.08,20.85-6.27,28.24-28.81,34.37-84.78,41.19-122.07,16-38.82-26.28-53.79-82.09-33.66-125.45,20.36-43.85,65.92-63.74,111.73-48.87,7,2.26,13.22,9.92,21.09,5.79C1506.54,1706.53,1503,1733.07,1501.59,1759.74Z"/><path class="cls-1" d="M1188.39,1332c14-23.4,33.39-33.16,58.11-33.47,10.33-.13,20.06-1.56,19.54,13.81-.36,10.92,2.15,22.27-14.62,22.85-19.64.67-40.42.7-50.91,21.8-13.71,27.59-9.4,57.54-8.32,86.65.5,13.36,13.56,8.36,20.83,7.92,15.21-.94,17.93,6,18,19.34.08,15.61-9.63,14-19.49,14-25,0-50.1,0-75.15-.05-9.59,0-19.64,2-19.51-13.94.11-13.41,2.82-21.46,17.83-18.93,18.07,3.06,22-5.58,21-21.76-1.21-19.52-.06-39.18-.34-58.78-.27-18.94,8.19-44.36-27.78-37.73-8.28,1.52-11-5.11-10.21-12.61.62-6.12-3.06-16.43,3.76-17.38,18.09-2.5,36.91-4,54.9-1.69C1190.77,1304,1177.79,1321.07,1188.39,1332Z"/><path class="cls-1" d="M1069.11,1757.21c0,24-1.86,48.23.66,72,1.72,16.13-16.18,44.43,22.48,44.08,7.29-.06,3.44,13.26,4.17,20.47,1.24,12-7.47,10.88-15.12,10.89-20.75,0-41.5.22-62.24-.08-9.14-.13-20.23,3.11-20.21-13.21,0-12.76,1.59-21.86,17.26-19.64,17.34,2.47,15.91-9.14,15.88-20.37-.14-51.31-.27-102.62.08-153.92.1-14.1.61-26.44-19.71-23.76-12.42,1.64-13-7.69-13.42-17.19-.55-11.27,3.86-16.11,15-15.53,6.53.33,13.24.87,19.63-.17,27.75-4.53,39.53,4.33,36.13,34.64C1066.71,1702.35,1069.1,1729.91,1069.11,1757.21Z"/><path class="cls-1" d="M629.59,1376.39c0,18.54.28,37.08-.09,55.61-.23,11.65-.66,21.49,16.32,20.25,17.17-1.27,9.78,13,11,21.24,1.7,11.45-6.45,11.48-14.49,11.44-20.72-.1-41.46-.44-62.17.13-10.67.29-17-2.29-15.17-14.36,1.14-7.64-1-13.48,10.16-19.71,37.75-21,9.63-58.15,16.35-87.44,2.23-9.73,10.85-30.57-15.44-29.66-17.27.61-9.65-13.33-10.89-21.49-1.74-11.55,6.61-11.43,14.62-11.31,8.72.13,17.56.91,26.15-.16,18.18-2.28,25.73,4,24,23.15C628.33,1341.38,629.58,1358.94,629.59,1376.39Z"/><path class="cls-1" d="M936.2,1904.64c-7.63,0-15.31.48-22.9-.12-8.56-.68-21,4.76-20.42-12.23.37-10.93-2.28-22.8,15.52-20.75,14.05,1.63,11.93-9.06,12-17.44.12-27.27-.05-54.53.1-81.8,0-10.18,1.14-20.33-14.44-18.58-16.4,1.85-12.12-10.53-13.1-19.59-1.44-13.19,6.78-12.7,16.18-13.49,48.5-4,48.48-4.27,48.49,44.11,0,25.09-.56,50.19.22,75.25.44,14.16-8.3,33.92,20.69,32.84,11.32-.42,5.22,14.06,6.3,21.79,1.32,9.43-5.71,10-12.59,10Q954.21,1904.61,936.2,1904.64Z"/><path class="cls-1" d="M2236.81,1796.07c0,18.54.27,37.09-.08,55.62-.23,11.62-.73,21.59,16.26,20.3,17.31-1.3,9.82,13,11.06,21.19,1.72,11.36-6.34,11.55-14.46,11.5-19.64-.13-39.28.27-58.91-.19-7.66-.18-19.29,4.18-18.32-10.76.61-9.57-5.35-23.92,13.78-22,16.28,1.6,13.36-10.11,13.42-19.42q.27-36,.05-72c-.08-13.42,4.41-27.55-19.48-27.76-15.11-.13-10-23.19-6.72-25.81,15.31-12.34,34.94-4.43,52.81-5.46,13.8-.8,10.31,11.2,10.46,19.19C2237,1759,2236.8,1777.52,2236.81,1796.07Z"/><path class="cls-1" d="M2322.09,1378.1c0,16.36,0,32.72,0,49.08,0,12.55-4.06,26.88,18,25.3,14.34-1,8.06,12.1,9.3,19.5,1.68,10-3.57,13.2-13.07,13-20.72-.38-41.45-.17-62.18-.07-9,0-18.21.88-16.65-12.76,1-8.75-4.24-21.78,12.48-20.1,14.9,1.5,15.18-7.28,15-18.09q-.51-40.89,0-81.8c.11-10.63.25-19.83-14.86-18.24-16.64,1.74-11.67-11.1-12.67-19.93-1.53-13.48,7.43-12.35,16.5-13.07,48.12-3.85,48.11-4,48.11,44.43Z"/><path class="cls-1" d="M2184.86,55.36c-16.78-1.7-27.21-10.39-28.17-26.31-1.06-17.67,8.52-28.93,26.83-29,16.11-.1,26.75,9.24,27.74,25.35C2212.37,43.32,2200.91,52.16,2184.86,55.36Z"/><path class="cls-1" d="M2774.72,1903.57c-20.3,5.14-26.14-2.2-25.84-21.16.27-17.07,2.55-25,22.59-24.58,18.77.39,27.46,2.93,26,24.66C2796.33,1900.47,2793.44,1910.53,2774.72,1903.57Z"/><path class="cls-1" d="M937.34,1636.75c13,1.66,22.19,8.67,22,22.54-.16,12.16-8.45,20.51-20.5,20.64-13.37.14-22.39-7.48-22.15-22C916.91,1645.07,925,1638.89,937.34,1636.75Z"/><path class="cls-1" d="M2324,1241.62c-3.36,12.17-10.81,19.87-23.07,18.49-13.46-1.51-21.37-10.09-19.44-24.47,1.7-12.63,10.46-19.36,22.48-18C2317.22,1219.08,2324.49,1227.9,2324,1241.62Z"/><path class="cls-1" d="M631.63,1239.85c-2.13,12.25-9.14,20.52-21.32,20.33-13.43-.21-22.2-8-21.61-22.55.53-12.85,8.83-20.12,20.79-20.17C623.24,1217.41,630.54,1226.3,631.63,1239.85Z"/><path class="cls-1" d="M2239,1658.51c-2.4,13.61-9.58,21.78-21.73,21.4-13.28-.42-22.18-8-21.35-22.77.72-12.89,8.94-20,20.95-20C2230.79,1637.24,2237.45,1646.62,2239,1658.51Z"/><path class="cls-1" d="M3327.9,999.9c-25.86-26.32-49-55.07-77.54-79.08-34.58-29.14-67-60.88-108.62-99.12,42.11,9.42,39.53-12.3,41.4-34.44,3-36-23-32.72-46.69-35.43,11.48-26.69,31.43-43,50.33-60.5,44.1-40.74,91.88-77.62,131.22-123.36,14.22-16.53,17.55-35.05,1.87-52.34-15.42-17-34.15-15.07-48.85-.21C3203,584.24,3123.43,641,3061.16,716.12c-11,13.33-16.91,34.21-41.66,36.16-27.79,2.19-55.19,5.9-86.89,2.61,21.39-25,40-47.33,59.15-69.15,41.74-47.56,89.48-89.48,129.4-138.89,12.71-15.74,9.64-34.46,16.26-51.16,3.6-9.06-7.33-18.37-19-23-18.3-7.2-32.35-.92-44.29,11.42-18.19,18.79-34.69,39.22-52.88,58-62.76,64.79-128.83,126.58-181.66,200.28-8.16,11.39-17.6,14.31-30.53,14.3q-275.47-.33-551,.13c-17.79,0-23.21-2.17-21.06-23.52,3.12-31.05,14.1-68.36-9.93-92.94-34.57-35.36-75.31-62.47-130.49-60.66-106.71,3.51-193.7,47-265.95,123-12.87,13.54-20.16,22.37-42.19,10.49-53.82-29-109.44-55.06-174.19-48.18-70.27,7.47-127.53,43-150,110.86-4.68,27.83-22.15,33.8-47.77,30.49-16.79-2.17-34.15,0-51.26.29-1.24-3.28-2.68-3.67-4.39-.29-29.73-4.68-59.62-1.9-89.46-1.56-29.8-8.42-59.83-4.79-89.87-1.84l-13.45-2.74c-3.15-.8-6.27-2.2-9.43-2.32-187-7.47-374.36-2.86-561-21.82-102.18-10.39-205.42-4.82-307.77-16.75-48.72-5.67-98.08-5.76-147.14-8.63-5.76-.33-14.52,2.52-15.14-7.11-.38-5.75-.58-11.62,5.23-17.29,38.66-37.83,77.19-75.84,114.46-115,21.71-22.84,42.79-46.75,60.77-72.54,12.39-17.77,15.43-39.39-6.54-55.09-20.34-14.55-36.49-6.15-51.53,10C178.68,570.17,106.56,646,35.89,723.06c-46.23,50.44-47.48,90-5.58,142.77,42.86,54,95.26,99.17,142.37,149.27,26.89,28.6,54.15,56.88,82.19,84.35,11.95,11.7,26.72,19.58,44.63,12.07,14.48-6.07,21.55-17.26,23.46-32.74,2.11-17.07-8.11-29.39-16.57-41.34-46.65-66-115.26-110.9-167.15-172.12-8.13-9.59-22.73-16.83-17.52-29.59,4.5-11,19.75-4.69,30.11-4.29C334,838.57,516.1,847.05,698.29,853.15c231.38,7.74,462.79,14.84,694.24,19.14,42.82.79,66,11.74,87.94,51.12,53.39,95.71,146,150.28,237.23,204.82,28,16.74,55.28,15.86,79.41-3.43,33.25-26.59,73.07-41,108.35-63.79,99.11-64,198-128.07,273.21-221.24,10.9-13.49,24.37-12.15,38.43-12.5q101.49-2.52,203-5.17l408.7.55c18.34,26.76,37,52.81,60.28,76.14,62,62.13,121.4,126.79,182.83,189.47,15.5,15.81,36.16,27.81,57.87,11.44,20.44-15.42,19.57-37,8.2-58.34-2.51-4.72-6.49-8.69-9.93-12.89A1850.6,1850.6,0,0,0,2968.19,857.1c-9.59-9.07-28.56-14.68-22.06-34.86,30.66,2.09,61.62-1.9,92.07,4.42,2.26,4.76,3.34,10.79,6.93,14.1C3123,912.4,3200.56,984.51,3280,1054.49c15.62,13.77,38,10.51,52.63-7.62C3345.82,1030.52,3341.87,1014.13,3327.9,999.9Z"/></svg>