<svg id="Layer_1" data-name="Layer 1" xmlns="http://www.w3.org/2000/svg" viewBox="0 0 1909.2 1916.25"><defs><style>.cls-1{fill:#fff;}</style></defs><path class="cls-1" d="M662.05,1458.49a.39.39,0,0,1,.1.08h0Z"/><path class="cls-1" d="M1908.07,932.89c-8.74-22.6-12-46.61-23.23-69-18.59-37.09-33.9-75.22-61.66-107.55-20.5-23.87-36.16-51.91-58.37-74.76-4.73-4.87-8.52-10.86-9.35-17.81-1.26-10.57-3.7-19.68-16.45-21.4-1.68-.22-3.06-2.49-4.65-3.74-13.61-10.71-20.44-28.54-37.53-35.66-2.94-1.22-2-4.69-2.89-7.14-2.76-7.73,3.18-14.07,2.69-21.71-1-15.67-7.81-30.44-8.14-45.67-.51-23.33-2-46.72-.41-70.16.89-13.37,2.85-27.23-1.23-40.43-3-9.65-3.36-19.55-3.24-29.21.49-42.37,5.14-84.57,3.57-127.14-.39-10.77,3.35-22.43,2.26-34.44-.56-6.24.7-10.43-6.39-13-5.17-1.85-4.31-6.88-3.69-11.41,1.56-11.49,2.05-23.23.05-34.5-2.21-12.43,2.67-20.94,11.19-28.44,2.72-2.4,6-4.13,10.81-7.33-22-3.17-19.87-19.61-21.06-33.8a382.52,382.52,0,0,1-.07-63c1-12.75.7-13-12.34-12.85-11.18.11-22.36.8-33.55,1.11-3.2.1-7,1.63-9-2.5-2.67-5.36-8.57-7.74-11.75-12.48-3-4.5-6.16-3.78-9.22-.93-15.92,14.8-35.89,13.47-53.77,9.19-16-3.83-30.69-.63-45.84.2-9,.5-15.87-.14-21-8.29-2.22-3.53-4.31-7.71-9-9.06-4.51,14.74-17.57,25-33.5,23.1-17.42-2.13-35.5,1.54-52.32-5.67a4.63,4.63,0,0,0-4.81.52c-15.24,11.4-32.78,5.21-49.34,6.48a10.15,10.15,0,0,1-7.65-2.27c-4.48-3.93-9.84-3.83-15.35-4-29.88-1.1-59.7,2.73-89.61.63a340.25,340.25,0,0,0-38.59-.35c-13.12.58-26.07,3-37.42-6.94-3.24-2.84-9-1.93-12.55.9-9.12,7.31-19.18,7.34-30,5.81a151.94,151.94,0,0,0-22.36-1.43c-60,.46-120,5-179.9-2.51C892,13,883.38,14.69,874.83,21c-9.19,6.82-22.56,6.63-30.4-.5-10.06-9.14-16.94-9.62-26.39-1-2.22,2-6.34,2.46-9.66,2.75-11.76,1-23.59,2.67-35.32,2.28q-79.84-2.67-159.65-6.43c-41-2-82-.23-123-.19-23.75,0-47.59.86-71.28-.39-22.94-1.2-46.22.05-68.73-6.46-5.59-1.61-11.19-1.63-16.71,1.61C320.84,20.26,306.44,24.78,292,21c-9.9-2.59-20.15,1.74-29.48-3.83-12.83-7.66-37.47,5.45-38.7,20.25C221.07,71,220.92,104.59,225.57,138c4.85,34.86.48,69.83,1.83,104.76,1.95,50.56.59,101.2-1.87,151.72-1.08,22,5.28,43.05,4.46,64.87-.35,9.5-1.76,17-10.15,22.75-5.54,3.77-5.68,9,.93,12.3s7.89,8.64,9.07,15.57c1.45,8.57-3.8,15.6-3,23.67,1.49,14.52,2.88,29.06,4.34,43.58A20.08,20.08,0,0,1,229,588.87c-7.52,15-19.6,26.62-29.56,39.66-25.6,33.51-46.93,69.79-70.81,104.4-15.39,22.31-24.49,48.41-41.94,69.66-6.7,8.16-12.53,14.87-24.23,12.09-5.7-1.35-7.3.88-5.05,6.72,6,15.45,2.51,30.53-5.48,43.82C38.79,887,25.13,908.41,15.17,931.86,12,939.38,9.36,947,0,950.65c14.75,11.54,31.34,15.31,47.4,20,23.87,7,24.12,6.91,25,30.53,0,.45.92.87,1.41,1.3,14.7-15.56,23.08-16.23,44.92-9,31.2,10.3,59.94,27.1,92.21,34.4,3.84.87,6.51,3.43,9,6.31,15.47,17.95,11.77,39.43,10.57,60.19-.42,7.4-2.19,14.7-1.13,22.21,4.9,34.86.62,69.87,1.29,104.8.45,23.54,0,47.15-3.16,70.91-2.93,22.36-3,44.91-11.53,66.3-1.38,3.45-2.29,7-6.21,6.55-16.42-1.74-32.39,4-48.62,2.91-43.8-3.06-87.58,1.17-131.37-.29-13.77-.46-14.67,1.63-8.6,14.33.44.92.82,1.86,1.3,2.76,13.13,24.51,26.18,49.06,39.45,73.49,7.26,13.37,13.54,27.16,22.55,39.75,6.45,9,11.17,22.11,4.2,32.29-8.51,12.42-1.41,17.67,6.38,24.28,3.09,2.63,5.85,5.65,8.87,8.38,6.8,6.15,8.32,13.24,5.57,22.1-3.91,12.62-6.44,25.67-10.48,38.24-2.69,8.39-1,14.34,6.24,19,18.35.73,24.45,9.78,17.11,26.05-2.68,5.93-2.71,11.13-.82,17.47,3.69,12.37,4.38,25.37,3.7,38.24-.76,14.54-.65,29.42-3.92,43.45-3.6,15.5-8.9,31.64-20.75,42.8-7.14,6.72-18.55,4.62-28,1.69-9-2.78-16.11-9-21.83-16.13-7.09-8.79-3.59-19.18.13-27.82,8.67-20.13,18.6-39.73,28.44-59.34,6.74-13.45,8.5-28.38,13.48-42.34.29-.83-1.12-2.28-1.74-3.44-10.11,9.07-15.07,22.2-24.94,31.48C49.78,1709.75,37.8,1727,41.56,1751c.2,1.28-.42,2.67-.58,4-2.8,23.27-5.45,46.55-8.46,69.79-.9,6.91.65,9.07,8.07,7.76,16.44-2.88,33.13-3.27,49.78-2.44,6.09.3,12,1.09,18.14-.39,17.27-4.14,30.48,7.41,28.47,25.35-1.4,12.5,6.07,21.07,11.39,30.7,1.74,3.14,5.19,3,8.25,2.55,18.61-2.89,37.23-1.53,55.67.89,15.4,2,32.09,2.74,45.47,9.48,14.6,7.35,26.12,8.59,39.71.26,6.22-3.82,15.28-3.81,18.6,2.25,7.58,13.82,16.05,7.1,26.35,5a548.54,548.54,0,0,1,70.63-9.23c37.13-2.66,73.93,3.59,110.93,4.41,7.92.17,15.76,3.31,20.84,9.51,6.45,7.88,9.8,6.58,14.41-1.67,5.25-9.43,10.21-9.56,17.19-1.63,2.11,2.38,3.59,5.07,7.35,2.81,7.42-4.47,15.65-3.24,23.76-3.68,10.88-.59,21.71,2.12,32.53,0,32.8-6.26,65.68-3.69,98.49-.45,24,2.37,47.82,7.48,72,2.44,17.45-3.65,35-1.06,52.41-.85,16.58.21,33.24.4,49.86.82,2.75.07,5.45.12,7.5-2.22,3.4-3.88,7.74-3.9,12.2-2.64,23.49,6.65,47.75,5.3,71.72,6.78,14.5.9,29.15,3.6,43.6.33,16.37-3.71,32.21-5.73,48.51,1.31,5.61,2.42,12.91.25,17.93-4.69,4.84-4.77,8.85-3.76,14.31-.28,6.19,3.94,14.17,12.89,19.18-2.11,1-3,5.31-3.86,8.62-4.87,8-2.45,16.35-2.23,24.28-.94a576.91,576.91,0,0,0,66.85,6.79c47.82,2.15,95.61,3.25,143.34-2.35,13.54-1.59,27.74-5.69,40.73-2.28,17.73,4.65,34.94,2,52.44,2.07,36.73.22,73.27-3.28,109.91-4.6,10.45-.37,21.09,2.56,31.4,1.57,8-.78,14.87.88,22.3,2.81,7.73,2,16.35,6.36,23.74,3.09,11.47-5.06,23.14-5.07,34.93-5.31,26.16-.52,52.14-3.17,78.1-6.15,2.06-.24,5.48,1.15,5.76-2.43,1.51-19.81,12.22-38.26,8.53-58.82-2.44-13.55,9.75-30,21.24-29.13,24.39,1.9,48.9-1.27,73.29,1.48,4,.45,6-1.49,5-5.39-4.55-17.7-2.54-37.57-18-51.7-4.4-4-6.35-10.29-8.47-16.08-6.44-17.59-9.93-35.9-14-54.11-4.89-22.05-4.88-45.46-17.44-65.47-2.26-3.59-.41-7.05,1.45-9.49,7.12-9.34,8.53-20.74,11-31.4,8.38-35.62,15.22-71.6,23.47-107.25,3.73-16.1,3.57-33.81,13.32-47.7,7.56-10.75,9.07-22.35,10.93-34.34.31-2,0-4.11.54-6,2.24-8.76.38-11.23-8-8-33.85,13.1-70,11.87-105,15.26a261.58,261.58,0,0,1-95.8-9c-9.07-2.55-12.32-7-11.71-15.83.76-10.82.66-21.71,1.87-32.47,3.27-29.08,2.26-58.33,4.12-87.44,1.13-17.64,3-35.22,1.94-52.92-.21-3.61.32-7.67,3-9.37,9.43-6,6-13.72,3.55-21.24a75.75,75.75,0,0,1-3.63-20c-.93-21-1.85-42.08-2.6-63.13-.42-11.88-.58-23.78-.67-35.67,0-7.69,3.65-14.53,11.16-14.75,15-.42,24.79-9.81,35.75-17.54,5.29-3.74,10.71-7.72,17.3-8.16,14.93-1,27.78-8,41.32-13.17,30.53-11.6,57.13-31.11,87.4-43.19,4.85-1.93,9.44-6.48,14.1,1.23,2.58,4.27,7.57,1.64,11.12-.1C1910.11,939.9,1909.32,936.11,1908.07,932.89ZM316,420.2c4.28.92,7.18-.82,8.87-4.81.52-1.23,1.12-3.26,1.95-3.41,14-2.46,10.3-13.56,11-22.34.5-6.5,1.52-12.74,4.26-18.72a42.57,42.57,0,0,0,4-19.78c-2.38-56.1,3.56-111.89,6.23-167.8,1.09-22.84.07-45.53-13-65.76-4.11-6.39-12.6-9.61-13.3-19.42,8.94-2.19,17.81.61,26.47,1.88a335,335,0,0,0,76.15,2.2c13.44-1.08,27,.25,40.43-2.78,8.57-1.94,11.77,1.75,8.71,10.54-4.24,12.19-1.76,25.55-5.76,38.89-4.8-3.46-5.79-7.34-6.52-10.7-2.87-13.31-12-18.92-24.32-20.07a321.69,321.69,0,0,0-35.37-1.62c-6.85.13-11.85,4.14-13.43,11.7-3.38,16.21-1.7,32.52-.83,48.71.47,8.63,13.79,13.1,22,8.47,8.58-4.84,13.82-11.77,14-22a48.31,48.31,0,0,1,3-16.32c7.94,3.64,9.34,10.95,9.26,17.79a95,95,0,0,0,14.63,52.83c1.79,2.86,3.11,5.88,7,6.79s5.54,3.21,3.12,7.33-1.89,12.32-6.35,12.54c-5.31.26-9.77-6-12.23-11.05-7.07-14.6-19.72-18.47-34.29-19.59-9.37-.72-14.84,3.08-16.16,12.61-4.61,33.38-6.47,66.91-3.71,100.51,1,11.62-3.94,24.41,3.3,34.72,8.73,12.44-1,15.94-8.27,20.85-11.78,8-23.64,15.55-32.16,27.6-4.65,6.6-11.87,11.28-19.88,13.66-10.4,3.09-15.73,14.18-27.14,16.54-.59-2.85-1-5.74-1.81-8.53C303.4,422.55,305.76,418,316,420.2Zm167.7-98.87c10.37-12.72,10.6-28.53,11.91-43.47,2.18-24.81,9.29-48.54,13.53-72.86,2.07-11.86,5.36-23.37,5.64-35.8.26-11.67,9.22-21.54,14.39-32.12A152.15,152.15,0,0,0,540,106.63a129.27,129.27,0,0,1,4.16-12.47c1.36-3.78,3.17-4,7.58-3.23,15.74,2.95,22.78,13.33,27.2,27.3,1.67,5.31,3.54,11,9,14.37,3.67,2.3,3.21,6.54,3.36,10.19,1.48,37.05,13.95,71.62,24,106.74a7,7,0,0,0,.58,1.94c3.87,5.72,3.6,15.46,13.42,15.4,4.17,0,12.75-16.54,11.15-22.56-3.18-11.95-.69-22.3,4.34-33.31,4.37-9.57,4.06-20.71,2.73-31.16a189.18,189.18,0,0,1-.85-37.6c.81-11.35-2.11-22.22-3.44-33.29-5.58-5.46-12.73-5.68-19.87-6.11a35.57,35.57,0,0,1-8.92-1.48c-1.71-.57-3.91-2-2.94-4.55.76-2,2.9-1.59,4.38-1.28,11.93,2.52,24.37.83,36.18,4.3,9-3.37,18.72-1.28,27.85-3.75,2-.54,4.5-.34,4.76,2.34.35,3.62,1.2,7.92-2.44,10.32-7.69,5.08-6.71,12.36-7.76,20.34-3.15,24.19-1.54,48.76-6.41,72.7-2.41,11.84,4.2,26.41,14.65,30.49,7.42,2.9,13.43.07,16.15-7.3,6-16.39,11.78-32.83,12.76-50.68,3.79,21.92,15.06,42.08,13.18,65.14-.39,4.88-1.42,7.36-5.84,9.06-10.12,3.88-20.23,7.83-30.12,12.26-4.44,2-9.46,3.64-10.9,9.68-.8,3.34-4.7,4.68-7.52,4-25.17-6.19-46.31,6.72-68.61,14.06-4.82,1.59-9.38,3.73-14.73,3.25-6.58-.59-10.53-2.78-7.52-10.16,7.47-18.3-1.18-36.19-1.8-54.25-.37-11.06-11.4-11.89-22.19-9.48-25.22,5.65-25.71,25.67-28.67,44.14-1.89,11.77-4.78,24.09,2.38,35.74,2.3,3.75-.45,6.85-4.51,8.63a303.56,303.56,0,0,0-35.32,18c-1.61,1-3.45,2.57-5.48.64A2.48,2.48,0,0,1,483.74,321.33ZM751.79,117c-5-6.8-3-10.86,3.58-14.59,7.08-4,14-8.38,20.85-12.71,4.11-2.59,7.94-2.87,12.37-.41,4.71,2.63,9.93,4.34,14.78,6.75,15.87,7.92,16.29,8.73,15.87,27.18-.67,6.68,3.32,15.63-9.13,18.28-6.19,1.31-7.71,0-8.87-5.31-3.28-14.95-4.92-16.18-19.16-16-5.7.08-9.64,2.46-11.63,8-7.64,21.25-13,42.59-6.42,65.34,3,10.37,21.45,20.56,31.06,15.87,6.24-3,5.64-9.38,5.87-15.17.14-3.58-2.4-9.17,4.61-8.82,6,.3,3.74,5.41,3.78,8.62.11,7.84-.62,15.41,8.41,20,3.74,1.88,2.06,6.32-1.75,7.71-14.3,5.2-28.52,10.8-43.18,14.76-10.52,2.85-20.57-4.76-24.32-16.81-5.62-18.09-9.63-36.67-16.47-54.4-.8-2.05-.88-3.57,1-5.37,6.92-6.75,9.42-16.73,17.32-23C757.38,131.32,756.76,123.74,751.79,117Zm125.56-14.58c3.08-4.34,4.89-7.38,11.79-4,8,3.83,17.34.29,26.06-.49a27.82,27.82,0,0,1,29.13,20c5,18.3,5.23,36.61,1.64,55.2-1.59,8.23-7.25,13.68-11.69,19.93-11.84,16.66-11.38,20.33,4.92,31.6-17.64-.51-35.31-1.06-52.5-3.11-11.1-1.33-22.29-3.75-33.66-4.36-2.17-.12-5.77-.33-4.9-3.57,1.07-4,3.68-.59,5.59-.15,5.9,1.34,8.13-1.41,8.21-7,.06-3.81.2-8.33-2.33-10.7-11.8-11.08-9.59-27.71-16.66-40.84-3.67-6.79,3.43-16.28,9-21C862.52,124.83,869.53,113.43,877.35,102.46ZM1011,111.3c3.7-.3,5.28,2,6.17,5.4,2,7.54,5,14.87,6.26,22.5,2,11.91,12.33,18.48,17.41,28.5,2.5,4.93,11.45,7.6,18.36,5,6.57-2.47,5-9.11,4.6-14.27-1.41-17.36,1.14-35.59-11.27-50.65-3.49-4.23-1.77-7.54,3.9-8.29,1.68-.22,3.32-.73,5-.91,19.41-2.12,19.41-2.11,21,17.25.62,7.58,9.57,12.67,21.2,12,8.33-.44,13.57-6.16,13.13-14.36-.66-12.28,2.57-15.2,14.38-13.91,18.14,2,36.09,5.75,54.41,5.76,7.43,0,8.22,3.38,6.29,9.53-2.82,9-5.15,18.08-7.74,27.31-4.48-1.64-7.72-3.63-7.13-8.75.9-7.84-4.2-11.41-10.52-12.65-9.87-1.94-20.69-7.51-28.69,4.14-5.84,8.49-5.22,18-3.48,27.4.76,4.13,4.11,6.17,8.56,3.6,1.76-1,3.53-2,5.31-3,11.16-6.17,11.38-6.17,11.67,6,.12,4.74,2.87,8.23,4.13,12.37.7,2.32,3.14,5-.14,7.17-2.5,1.68-4.6,2.46-8,.4-15.85-9.45-17.5-8.34-20.85,10-2,11.13,1.87,20.74,6.69,30.09,2.71,5.26,7.16,6.93,10.69.81,8.89-15.37,26.81-10.45,39.24-17.87,3.22-1.92,3.51,1.68,3.47,4.09-.13,9.17-.56,18.35-.34,27.51.14,6.17-3.86,5.41-7.47,5.09-17.58-1.53-35.17-3-52.71-5-7.57-.83-14.88-.54-22.08,1.87-2.62.88-5.33,2.06-7.63-.12-2.49-2.36-1-5.56.2-7.57,13.35-21.83,11.13-44.53,4.83-67.78-2-7.41-.63-15.56-4.79-22.67-2.59-4.43-5.64-8-11.11-7.34s-6.11,5.25-7.51,9.58c-6.18,19.21-3.93,39-4.56,58.6-.32,9.81-1,19.62,3.52,28.94-7.24,2.45-13.47-.11-19.79-.66-2.59-.22-3.55-1.53-3.43-4,.36-7.61-4.11-11.71-10.39-14.73a15,15,0,0,1-8.1-8.73c-1.83-5.38-5.38-9.29-10-12.45s-7.13-7.8-9.46-12.89c-2.42-5.31-4.82-11.73-12.91-10.72-7.71,1-7.93,7.2-9.12,12.82-3.13,14.72,4.26,28.65,3.23,43.23-.19,2.64,2.83,6.22-2.45,7-19.39,3-38.77,5.65-60.94-2,13.72-4.19,17.47-19.89,32.48-18.53,2,.17,3.14-1.19,3.4-3.07,3.06-22.29,11.09-44.15,5.07-67.2-2.65-10.13-6.22-19.26-19.49-23.88,8.73-4.06,15.65-3.92,22.37-3.25C994.22,109.09,1002.37,112,1011,111.3Zm314.06-3.51c6.52,5.55,16.23,3.91,24.27,6.53,3.89,1.28,6.56,2.19,4,7.47-2.92,6-4.71,12.66-6.75,19.1-5.34,16.8-15.42,28.74-32.31,35.44-13.2,5.23-13.82,11.16-2.74,19.83,10.87,8.5,20.79,17.33,26.85,30.23,3.79,8,10.62,13.88,18.82,18a25,25,0,0,1,13.86,17.73c2.43,10.54,5.9,20.84,9.09,31.2,2,6.44-.05,8-6.19,5.81-12.1-4.32-23.94-9.38-37-10.38-6.14-.46-9.69-4.18-9.15-11,2.1-26.87-15.09-44.88-30.32-63.32-4.89-5.92-13.13-9.39-20.31-13-9.59-4.87-19,2-16.9,13.5,2.23,12.36.31,25.19,4.77,37.17,1.15,3.07,2.23,7-2.53,6.63-15.45-1.19-31.17-2.06-43.63-13.31-2.62-2.36-4.15-5-.45-7.28,6.86-4.23,8.17-11.39,7.74-17.85-1.58-24.29,4.3-47.95,5.09-72a79.15,79.15,0,0,0-4.78-31c-2.79-7.46-1.92-11.87,8-12.11,22.71-.53,45.39-2.15,69-3.38C1310.85,100.76,1318.06,101.84,1325.05,107.79Zm96.15.46c-15,22.3-28.08,45.93-46.54,66.33,5.16-15.21-5.76-30.09,0-45.16.77-2-.09-3.82-1.18-5.7-5.21-9,0-18.8,10.31-19.51,10.82-.74,21.65-1.35,32.49-1.65C1419.58,102.46,1425.52,101.83,1421.2,108.25Zm62.76-7c7.34,1.31,14.9,1.38,22.25,2.65,14.21,2.47,28.35,1.63,43.9-.81-2.46,5.27-4.07,8.6-5.57,12-1.23,2.75-1.11,5.33,1.54,7.23,12.53,9,7.19,22.24,8,34,.15,2.12-.74,4.17-3.64,3.33-8.09-2.34-16.2-.3-24.27,0-4.88.18-7.62-1.33-8.71-6.14-1.35-5.94-2.8-11.88-4.5-17.73a21,21,0,0,0-24.32-15c-4.6.91-8.81,3.32-13.83,2.75-3-.34-5.47,2.24-5.89,4.83-3,18.37-10.9,36.83,2.53,54.78,4.06,5.43,7.83,8.75,14.68,8.85,8.9.13,17.57,1.11,23.89,8.9,3.11,3.82,4.83,1.82,5.63-2.27,1.6-8.19,6-5.33,10.19-2.26,18,13.18,31.49,30.55,45.31,47.75,6.79,8.45,6.38,17.61,5.86,26.89-.88,15.65,1.23,31.36-4.34,46.92-5.43,15.18-17.34,21.3-30.33,26.88-5.21,2.23-10.88,2.81-16,6.06-5.79,3.67-11.52-1.37-16.84-3.42-7.23-2.79-13.52-5-18.46,3.33a4.82,4.82,0,0,1-3.07,2.13c-5.18.77-26.84-14-28.31-19.45-.91-3.43-3.65-4.69-6-6.53-10.29-8.1-22.9-9.76-35.08-12.62-3.63-.86-7.51-1.26-10.76-2.9s-5.06-5-1.3-8.12c13.76-11.38,20.52-23.31,22.83-40.81.53-4,1.34-8,1.66-12.1.41-5.07,2.86-6.57,7.48-4.9,7.4,2.66,13.93,3.47,12.57,15.88-2,18.56,11.62,32.53,21.33,47.12,4.27,6.43,8.7,13,18.55,10.89,4.11-.88,5.3,2.67,6.08,6.44,1,4.67,2.79,9.39,8.54,10.2s7.54-4.1,9.91-7.51c6.37-9.16,12.55-18.48,18.29-28.05,5.07-8.45,0-37.73-5.39-45.82-15.6-23.24-38.3-32.87-64.71-36.89-13.83-2.11-26.49-8.26-39.31-13.61-.62-.26-1.46-.1-2-.45-5-3.38-10.53-33.17-6.81-37.83a273.53,273.53,0,0,0,28.18-43.59C1452.48,105.64,1465,97.88,1484,101.26ZM219.08,1404.69c3.41-1.3,5.95-.84,8.41,1.17a7.46,7.46,0,0,1,1.28,10.16c-4.68,6.88-7.92,12.87-5.77,22.25,1.19,5.22-6.63,8.15-13.73,7.66-6.27-3.33-13.22.44-20.23.37-4.34,0-8.16-.49-9.38-5.59-1.12-4.7-2.74-10.51,2.78-12.59C196.39,1422.86,205.24,1410,219.08,1404.69ZM58.77,1421.47a5.25,5.25,0,0,1,.09-2.15A5.24,5.24,0,0,0,58.77,1421.47Zm68.4,27.23c1.33,4.45-1.14,8.66-1.7,13a139.85,139.85,0,0,0-.56,35.24c1.26,10.42-3.91,20.46-6.81,30.42-1.72,5.93-7.74,6.48-12.07,1.36-3.26-3.84-6.42-8.13-8.21-12.76-5.24-13.54-10.15-27.23-14.47-41.09-3.53-11.3-6.26-22.58-14.93-31.67-5.08-5.33-7.69-12.7-8.76-20.27h0c14-2.46,28.3-1,42.34-3.22-6.75-.79-14.58,1.88-19.88-.69-8.41-4.07-15.4-3.35-23.14-.25-5.12-15.45,3.24-26.27,19-27.43,30.42-2.23,60.78-4.94,91.33-4.28,3.58.07,7.16-1.84,10.8-2.3s6.85.89,8.37,4.44-1.38,5.25-3.62,7.43c-12.46,12.09-28.41,18.06-43.62,25.39C126.81,1429,122.61,1433.53,127.17,1448.7Zm17.62,321.11a11.42,11.42,0,0,1,.63-1.33A11.42,11.42,0,0,0,144.79,1769.81Zm1733,6.33c3.55,9.5-3.92,15.64-13.81,14.67-16.31-1.6-32.62-7.75-49.29-1-5.1,2.07-8.46-2.11-9.75-6.51-1.87-6.41-2.83-13.07-4.18-19.63,5.28-.83,10.69-1.41,15.75.44,14.85,5.42,29.84,4.55,45,1.92,4.12-.71,6.89-2.57,7.77-6.79C1874,1763.93,1875.67,1770.34,1877.83,1776.14Zm-31.73-77.63.81,1.77c5.52,12.92,11,25.85,16.55,38.76,2.53,5.87,5,11.73,4.28,18.34h0c-8.11-2.34-16.07.36-23.87,1.47-14.35,2.05-28.55-.91-42.79.24-.49.92-1.76,1.8-1.84,2.75.08-.95,1.35-1.83,1.84-2.76-1.77-33.31-4-66.65-.42-100,1.39-12.89-2.82-25.4-2.35-38.28.23-6.28,1.58-11.74,7.14-14.24,6-2.72,11.11,1.2,15.19,5.45,4.51,4.7,8.73,10.48,9.32,16.63C1832.28,1652.71,1839.84,1675.44,1846.1,1698.51ZM1709,1408.2c1.47-6.58,7.4-7.56,13-6.74,17.15,2.5,34.42,3.44,51.66,5,19.38,1.72,38.54,1.37,57.66-2.55,4.23-.86,8.77-.12,13.17-.24,3.4-.09,7.17,0,9.06-3.4,3.89-7.11,9.27-8.53,16.12-4.72s9,10,7.67,17.28a53.82,53.82,0,0,1-4.59,14.49c-8.92,17.4-11.5,36.88-18.18,54.84-9.33,25.07-12,52-22.82,76.47-.9,2-.14,4.71-.46,7-1.46,10.38-4.17,19.31-15.81,23.66-13.15,4.92-15.51,3.45-15-9.7,1.62-25.09,3.08-47,8-68.61,2.06-9.11-1.5-18.16-1.62-27.34-.14-10.05.81-19.65,4.93-28.78,3.27-7.23,1.25-11.38-6.4-13.42-13.75-3.65-27.64-6.93-41.05-11.59-13.24-4.6-26.78-6.62-40.55-8.09a18.88,18.88,0,0,1-6.77-2C1712.45,1417.35,1707.66,1414.12,1709,1408.2Zm66.86,125a4.84,4.84,0,0,1,1.87,2.28,4.79,4.79,0,0,0-1.87-2.28Zm-91.51-105.41c5-4.77,11.85-1.59,17.21.9,11.31,5.25,24.35,4.45,35.48,11,2.44,1.43,8.78-2.21,13.38-.49,4.23,1.58,10.78,1.84,10.89,7.34.11,6-4.85,10.13-10.41,12.51a23.12,23.12,0,0,1-15.05.78c-8.45-2.36-16.87-1.18-25.9-1.81-3.45,0-7.67-.68-11.56.14-8.87,1.88-12.89-4-15.32-10.17C1680.48,1441.51,1678.51,1433.37,1684.33,1427.81Zm67.08,49c18.06,1.26,25.86,11,21,28.33-1.64,5.94-3.76,11.38,1.78,16.7,2.88,2.76,1.82,7,1.49,10.76h0c-5.39,10.2-16.42,4.67-25.53,9.37,6.65,1.24,12.16,2.58,16.69,6,6.75,5,10.48,2.26,12.82-4.64,6.16,18.39,3.9,37.42,4.54,56.26.38,11.07,4,21.77,4.75,33,1.49,22.67-1.43,44.37-10.88,65.09h0c-1.21-3.06-3.62-8.49-6.27-5.12-5.43,6.91-9.8,2.53-15,1.28-2.42-.59-6.52-2.4-7.48,1.75-1.25,5.43-.81,5.33-5.74,6.14-19.25,3.17-38.49.24-57.73.16.2-7.54,2.66-15,.61-22.67-.86-3.2,2.09-4.66,4.74-5.61,3.81-1.36,7.67-2.62,11.5-3.92-.07-.24-.15-.48-.22-.72.07.24.15.48.22.72,2.82,1.08,6.07,1.6,8.35,3.37,3.71,2.88,5.65-.12,4.28-2-2.8-3.79-7.94-3.89-12.62-3.52-15-3.37-15-3.37-14.23-18.68.17-3.37.43-6.74.38-10.1-.21-13.22-14.79-31.11-27.64-34.21a9.35,9.35,0,0,0-7.76,1.24c-4.38,3.13-8.94,4.12-14.69,1.42,1.2,4.62,2.42,7.79,2.75,11,.27,2.73.76,6.55-4.21,5.58-1,16.41,4.19,32.86-.27,49.26-2.19,8.07,1.81,10.49,9.12,10,2.35-.15,5.06-.58,7,.34,3.44,1.6,6.71,4.28,2.8,8.45s-9.54,4.06-14.36,3.46c-7.19-.89,2.55-3.67-.15-5.6-.81-.58-1.37-1.51-2.17-2.1-2.32-1.68-4.63-5.05-7.53-1-3.51,4.85-6.74,10.59-.3,15,6.67,4.52,8.52,10.65,7.64,17.54-1.53,12,3.41,23.34,2.23,35.21-.37,3.74,1.56,7.24,3.68,10.37,9,13.31,22.69,17.67,37.19,15.11,11.94-2.12,19.43-12.44,25.5-22.78a5.89,5.89,0,0,0-1-7.51c-2.13-2.09-3.4.81-5,1.53-3.22,1.5-6.48,2.65-9.62.45-3.52-2.47-3.74-6.17-2.73-10.07,2.22-8.59,2-17.34,1.8-26.09,19,6.65,38,5.93,56.43-1.49,8.32-3.34,15.82-8.75,23.68-13.22.37.38.75.76,1.13,1.13-3.84,7.06,1.68,4.8,4.86,4.89a.49.49,0,0,1,0-.12s0,.09,0,.13c.4,6.41.55,12.88,1.27,19.28.62,5.65,4,11.44-6.53,12.07-4.42.26-8,7.41-.92,9.88,12,4.16,11.44,12.94,10.67,22.24-1.49,18-2.12,35.86,4.26,53.24,1.5,4.05.14,7.93-1.53,11.8-2,4.67-4.24,9.75-2.3,14.74,3.29,8.45-.83,11.93-8,14-8,2.27-15.82,4.23-22.53,10.31-4.56,4.13-12,3.64-18.47,4.5-22.93,3-45.65,5.42-68.71-.06-8-1.9-16.89.19-25.35-.2-8.66-.39-13.55-6.91-14.07-17.59-.43-8.78,4.32-14.08,13.3-15.14a66,66,0,0,0,7.89-1.77c1.44-.35,2.57-1.3,2.21-2.81-.2-.82-1.38-2-2.11-2-15.05,0-29.55-10.16-45-2.5-.52.26-.85.91-1.25,1.36.09.35.08.85.24.91,10.38,4,19.45,14.86,17.61,21.91-2,7.69-13,14.43-23.14,18.77-11.59,5-22.08,4.25-33.32,1.15-4.26-1.17-8.54-1.77-12.94-.15-6,2.21-12,1-18-.16-11.59-2.19-23.24-4.12-34.87-6.07a7.39,7.39,0,0,0-4,.26c-26.34,11.75-53.63,6-80.79,4.9-35.22-1.36-70.42,0-105.64,2.1a949.29,949.29,0,0,1-119.15-.11,582.82,582.82,0,0,0-101.64,2.1c-36.7,3.94-73.24,1.31-109.85-1-30.91-1.91-61.62,2.11-92.42,3.6-36,1.74-71.9-2.54-107.86-3.23-22.06-.42-44.08-1.17-66-3.76-8.85-1-18.37-12.45-17.88-21.21.13-2.33.12-4.68,3.09-5.73,7.12-2.52,11.36-8.9,17.55-13H640.22c-.09.73-.19,1.45-.29,2.18,6.74,3.33,13.83,6.11,20.16,10.1,9.65,6.1,8.75,14.61-1.32,20.29-5,2.82-10.52,2.58-15.78,3.31-19.33,2.7-38.48,6.82-58.36,3.64-9.85-1.57-11.2-9.64-15.7-15.45-2.68-3.48-2.19-9.79-8.94-9.54-6.21.24-7.15,5.35-9.18,9.53-5.3,10.92-13.21,14.26-25.56,11.35-8.29-2-16.6-2-25.24-1.34-28,2.24-55.43,8.77-83.75,9.29s-56.2-3.23-84.15-6.64c-16.5-2-33-4.32-49.66-3.64-10.06.41-19.61-.66-28.36-6L220,1872.08c-2,.33-4,.67-6,.93-13.1,1.7-39-15.06-46.64-25.49-9.5-13-6.88-29.28-14.75-42.23-4.81-9.86-8.32-20-6.74-31.24,27,7.51,54.38,4.55,81.71,3.33h12.89c11.06,6.57,22.9,0,34.34,1.76,2.47.37,7.23,4.36,9.43-1.39,5.25.75,11.82,3.55,14.84-2.31,2.79-5.4-3.15-9.32-6.75-12.31-4.74-3.94-4.57-7.59-4.5-13.43.11-10.56-1-20.81.47-31.71,1.25-9.08-2.35-19.13-.36-29,.52-2.58-1.61-5.7-2.52-8.57,10.8-2.78,2.57-8.56,2.64-13.46.1-7.82-.24-15.57-.79-23.34-.86-12.13-2.59-24,9.36-33.1,5.33-4,2.33-10.78-3.82-10.89-19.5-.34-39.23-2.59-58.37,3.55-1.95.63-2.58,1.6-2.33,3.66.7,5.79-.66,11.82,2.15,17.34,2,3.92,1.52,7.67.11,11.76-1.94,5.65-4.36,11.22-1.11,17.62,1.22,2.41.35,8.56-4.88,4.48-8-6.3-10.88-2.51-15.22,4.45-3.55,5.68-3.78,9,.47,14.1a27.73,27.73,0,0,1,6.35,20.24c5.93-1.86,10.75-5.35,17.55-5.31-1,11.86-1.89,23.54-5.68,34.78-1.1,3.25-1.79,6.11-.76,9.74,3.3,11.71,2.09,22.58-7.94,31-2.36-.27-4.7-.61-7.06-.81-23.44-1.92-47-7.37-70.18,1.46-2.08-15.58.29-31.14.27-46.72,0-.34-.11-.78.06-1,7.48-9.8-.22-20.51,1.86-30.87,2.32-11.6,5.16-23.29,6.18-35,.95-10.93-1.94-22,5.43-32.14,2.51-3.47-1.66-9.06-4.3-11.81-10.67-11.17-8.5-24.94-8.51-38,0-22,.8-44.07,8.38-65.27,1.48-4.14,1.26-8.56-3.3-12.7-6-5.47-2.39-13.25.77-18.57s6.73-12.35,15.69-10a33.46,33.46,0,0,0,11,1.11c23.45-1.91,46.28,2.69,69.33,5.67,24.66,3.2,49.23-.05,73.6-4.06,29-4.77,57.93-5.91,86.77,1,9.46,2.28,18.73,1.71,28.17-.61,19.12-4.7,38.8-2.9,57.68-.38,14.41,1.92,20.77,17.34,9.11,30-5.45,5.93-2.46,7.22,2.6,8.43,10,2.39,20.23,1.87,30.37.86,1.76-.17,4.21-1.59,4.82-3.07,1-2.27-1.74-3.31-3.37-4.36s-3.76-1.67-5.39-2.84c-5.66-4.06-11.46-9-9-16.51,2.24-6.85,7.68-12,15.77-12.55,17.23-1.28,34.45-2.7,51.7-3.71,11.52-.68,23.62,11.72,21.93,23.17-1.11,7.51,3.17,10.44,8.36,11.49a19.09,19.09,0,0,1,14,10.79c5.35,11.38,15.6,15.71,26,19.5,8.12,3,14.63,5.93,15.15,16,.42,8,5.34,9.73,13.2,9.87,37.16.66,72.2-10.46,108-17.64,24.32-4.88,45.58-16.79,68.36-25.14,14.32-5.25,26.31-13.71,37.6-23.6,7.34-6.43,17.33-9,23.91-16.83,2.44-2.9,7.11-1.46,10.79-1.16,22.24,1.84,44.46,4.89,66.73,5.37,28.86.62,57.67,3.28,86.57,2.06,3.78-.16,7.79.14,10.78-2.25,7.47-6,13.6-3.5,20.89,1.08,20.11,12.61,39.28,27.22,65,27.53,22.3.26,43.77-3.7,65-9.47,12.14-3.29,23.75-7.94,32.12-18.17,3-3.63,7-3.21,11.19-2.88A1026.23,1026.23,0,0,0,1407,1477.2c20.56-.58,40.42,4.59,60.7,3.06,11.52-.86,22.74-2.19,34,2.35,6.4,2.57,13.32-.87,20-1.56,28.32-2.9,56.68-5.6,85.19-5.63a38.37,38.37,0,0,1,10.94,2c12.59,3.83,15.37,9.17,11.69,22.06-.84,2.92-2.74,6.64,1.71,7.43,4.75.85,10.46,3.44,14.46-.87,2.81-3-1.21-4.27-3.39-5.7-2.59-1.7-7.16-1.9-6-6.76.88-3.83,3.12-6.37,7.07-7.92a39,39,0,0,0,12.81-8c3.66-3.46,8.69-5.78,14-4.8C1697.15,1477.84,1724.39,1474.94,1751.41,1476.83Zm-66.94,262.83c-.24,2.36-1.88,3-4,3.82-9.07,3.37-18.3,6.42-26.55,11.84,1.55-13.21,16.18-23.14,27.91-19.2C1683.84,1736.77,1684.67,1737.74,1684.47,1739.66ZM278.18,1711.05c3-.76,6.12-2.43,6.36,1.67,0,3.24-.27,5.5-2.44,6.26a72.37,72.37,0,0,0-27.54,16.76c-2.75,2.72-5.87.72-7.71-1.9-2.31-3.3,1.42-3.24,2.86-4.71C257.81,1720.85,266.72,1714,278.18,1711.05Zm-7.54-105.55a93.35,93.35,0,0,1,17.38,2c-10,7.18-22.36,10.28-31.14,20.22C249.85,1611.3,254.13,1604.91,270.64,1605.5ZM701,875.9c1.27,4.18,4.77,4.29,8.12,4.8,5,.76,10,1.48,15,2.28,17.5,2.78,20.21,20,10.18,31.66a37,37,0,0,1-19.92,12.13c-24.69,6.31-46.43,19.06-69,30-2.74,1.33-5.81,3.89-8.32,3.47C621.9,957.68,613.29,969,602.75,976s-20.4,14.93-30.75,22.18c-6.12,4.29-12,10-20.54,3.77-2.7-1.95-8.06-1-7.12,3.72,3.85,19.41-13.26,27.81-20.89,41.1-3.34,5.82-9,10.35-12.12,16.26-13.35,25.6-28.69,50.09-25.19,81.67,2.22,20.11,1.7,40.62,4.88,60.77l-.16-.1,1.75,1.74.6,6.26-.6,11.84c-1.41,18.46,8.13,32.34,18.12,46.61,7.5,10.72,10.9,24,18.34,35,5.72,8.47,8.41,18.06,11.37,27.8,3.23,10.65,13.85,17.21,18.7,27.53,6.5,13.84,12.79,27.56,12.89,43.27,0,2.63.31,6,1.87,7.75,6.19,7.14,4.7,15.43,4.25,23.54-.17,3,1.88,7.44-2.73,8.74a11.17,11.17,0,0,1-10.53-2c-5.51-4.43-11.43-8.33-18.2-13.19-.49,11.53-7.49,13.62-16.88,13.74-30.45.39-61.24-1.24-91.25,2.76-26.75,3.56-40.94-10.17-52.11-29-9.22-15.53-18.78-31.49-22.71-49.66-2-9.24-4.79-18.54-5-27.87-.23-10.08-3-19.21-5.54-28.67-2.64-9.93-2.35-18.94,7.74-26,10.51-7.37,9.29-14.71-2.3-19.41-6.64-2.7-10.15-6.77-11.05-14.19-1.4-11.45-4.52-22.79,3.55-33.19,1.59-2,.59-4.59.2-6.92-10.13-13.28-8.29-28.69-6.76-43.6.6-5.88-.06-13,5.38-17.8,2.48-19.09,8.64-37.24,14.42-55.47,1.49-4.73,5-7.57,10.5-5.53,3.64-4.31,7.69-6.63,12.37-1.61,3.71,4,9.63,2,13.43,5.41l19.19,4.45c6-16.6,9-34.41,20.06-48.95q2.06-4.71,4.09-9.43l1.12-2.53c7.1-21,21.34-36.47,38.47-49.8,8.76-6.81,16.36-13.64,18.61-26.33,3-16.68,13-23.2,30.48-24.22,3.33-.19,3.81-2.35,4.7-4.36,1.67-3.76,3.22-7.77,6.8-10,11.25-6.86,17.86-18.15,26.72-27.28,21.37-22,46.71-38.76,73.27-53.77,6.74-3.81,14.41-6.37,18.58-13.57,3.5-6,8.59-8.77,15.29-7.21,6.51,1.51,9.84,7,12.18,12.61,1.65,3.92,3.12,8.94,2.08,12.77C689,857.78,698,865.89,701,875.9Zm93.13-56.29c5.78,8.2,3.16,21.19-5.86,26.47s-19.06,5.94-27-4.38c-2.27-3-4.23-6.51-2.7-10.39,3-7.62.2-13-4.43-19.35-7.6-10.42-11.65-22.94-14.1-35.56-2.05-10.55,2.42-15.13,13.13-15.73,17.88-1,31.58,12.05,31.36,30.63C783.2,801.75,787.93,810.78,794.14,819.61Zm44.68-65.88c8.83-4.06,17.63-8.13,27.3-9.85,4.5-3.49,9.94-3.86,15.27-4.64,14.68-3.39,29.41-3,44.17-.59,16.17-4.66,31.75-11.69,49.3-10.43,10.13.73,16.34,7.26,23,13.3,1.27,1.14,2.29,4.18,1.67,5.54-3.9,8.52-1.36,17.41-2.07,26.09-.35,4.37-1,8.34-7.81,7.62a30.06,30.06,0,0,0-.14-18.15c-.79.64-2,1.13-2.3,1.94-4.2,12-6.66,12.65-16.42,4.24-8-6.86-16.39-10.63-26.89-5-2.48,1.32-5.94,1.15-8.94,1.09-15.37-.31-27.65,8-40.88,14-17.14,7.75-32.81,21.1-53.73,16-4-1-5.87.38-6.74,3.83-1,3.92-1.78,7.9-2.43,11.9-1.57,9.55-7.59,15-16.46,14.67-6.42-.23-17.73-9.75-17.63-16,.22-14-.83-27.73-5.61-41-1.36-3.79-.14-8.75,2.66-10.2,5.77-3,12.55-2.21,18.67,0,3.46,1.24,7.17,3,9.58,5.63,5.06,5.5,8.53,2.55,12.28-1.19C833.17,758.18,834.74,755.61,838.82,753.73Zm305.37,47.83c8.94-1.46,3.84-7.66,3.78-12-.13-8.59,6.44-14.47,14.66-11.67,30.13,10.27,61.52,18.75,88.07,36.28,26,17.16,53.9,30.63,80,47.26,11,7,20.25,15.86,24.77,28.53,2,5.62,4.89,11.25,1,17.46-1.64,2.62-.11,5.3,2.2,7.14,3.13,2.47,4-.75,5.37-2.35,4.61-5.18,9.28-5.3,15.18-1.5a74,74,0,0,1,25.19,27.39c4.77,8.76,11.41,16,18.28,22.83,29.91,29.58,51.59,65.16,74.31,100,5.54,7.16,6.11,16.29,9.43,24.34,2.41,5.83,5.64,7.1,11,5.36,2.25-.74,4.76-1.2,6.64-2.51,15.62-10.83,28.29-2.14,41,6,4.32,2.79,6,7.47,6.8,12.13,4.49,26.55,4.21,53.28,2.51,80.05-.16,2.52-.81,5.42-2.94,6.16-8.85,3.08-8.59,14.6-17.08,17.89-.89.34-2.51,1.74-1,3.12a5.85,5.85,0,0,0,3.49,1.4c16,.14,20.1,4.32,17.43,19.42-5.18,29.25-13.2,58-18.6,87.06a287.68,287.68,0,0,1-21.27,68.29c-7.07,15.37-13.59,32.08-29,42-3.76,2.41-1.54,7.74-6.52,9.51-7.59,2.7-13.92,10.4-22-1.19-2.26-3.23-14.14-1.14-21.08.62-13.25,3.37-26.36,3.8-40,3.6-22.29-.34-44.59,2.71-66.92-.24-8.38-1.1-16.86-1.38-25.31-1.92-5.35-.34-7.21-4.29-9.24-8.32-2.18-4.32.38-6.74,2.89-9.74,14.43-17.18,25.86-36.36,36.43-56,7.92-14.76,14.07-30,26.44-42.69,10.29-10.56,15.53-26,23-39.36,3.15-5.6,6-11.41,9.49-16.78,3.89-6,10.56-8,16.07-4.52,11.53,7.25,11.78-.91,13.69-8.14-1-.36-1.69-.87-2.2-.75-12.25,3.12-12.11,3.12-13.39-9.74-.42-4.23-.4-8.43,1.91-11.83,11.7-17.19,18-37.46,31.18-53.8,2.41-5.27,5.62-10.33,7.11-15.85,6.76-25.06-3.14-44.62-21.48-60.86-4.19-3.71-6.91-8.23-10-12.65-7.14-10.21-14.72-19.08-29.47-17.19-8.2,1-16.34-10.79-14.71-20.25.42-2.39,1.74-4.58-.38-6.46-10.73-9.53-10.44-22.49-10.59-35-.18-15-2.85-17.79-17-23.51-8.06-3.26-14.88-9.75-22-15.09-15.09-11.28-29.94-22.9-45.09-34.11-8.65-6.39-19.33-8.64-29.39-10.16-22.44-3.38-42.7-12.8-63.52-20.57-21.92-8.19-43.85-16.32-66.85-20.59-7.7-1.42-16,.86-24.11,1.09-9.09.26-18.23,1.41-27-3.05-3.43-1.75-6.5-1.28-8.21,4.06-2.78,8.72-10.88,11.51-18.31,7.58-8.91-4.73-11.6-12.11-6.12-19.75,5.37-7.47,5-11.82-1.54-19.64-11.21-13.39-21-28.36-34.11-39.74-9.33-8.11-10.75-16.36-8.43-26.53,1.09-4.74,4.37-9,6.65-13.45,1.43-4.14,2.59-8.39,4.35-12.37,1.42-3.21,4.19-6.45,7.88-4.79,13.67,6.14,28.17,2,42.12,4.1,15.09,1.91,30.31,3.12,45.22,6,9.7,1.87,17.21,8,19.38,18.6.95,4.67-1,8.41-4.77,11.68C1135,806.14,1139.59,802.31,1144.19,801.56Zm468.36,383.66c.27,6.86-5.34,9.77-11,11.58-2.3.74-11.25-12-10.61-15.48,1-5.45,4.09-9.26,10.54-9.56C1608.68,1173,1612.28,1178.31,1612.55,1185.22Zm-43.49,166.87c-6.48-.41-9.35-5.32-9.73-10.91-.46-6.63,3.25-10.65,10.16-11.1,5.5.68,11.14,1.2,12.19,8.12C1582.41,1343.06,1574.07,1352.4,1569.06,1352.09Zm.64,26.83c.93,3.93-8.34,12.29-13,12.07-6.15-.28-9.06-4.86-9.26-9.91-.22-5.91,3.21-10.15,10.82-10.34C1562.54,1371.87,1568.24,1372.67,1569.7,1378.92Zm-27,51.86h0v.07c-3.86,2.46-7.25,10.14-12.15,1.18-1.71-3.13.13-6,1.76-8.28s5.05-1.85,7.45-1.19C1544.22,1423.76,1543.33,1427.47,1542.75,1430.78Zm63.93-287.57c.51,4.93,1.09,10-6,11.52s-7.47-4-9-8.19c-2.18-6.18-6.36-12.47,0-18.66,2.34-2.29,5.21-3.47,8.26-1.8C1606.75,1129.79,1606.34,1136.56,1606.68,1143.21Zm-18.19-44.1c-8.77.42-11.41-6.17-11.84-12.29-.51-7.1,5.49-9.26,10.93-9.18,8.63-.49,11.2,4,11.37,10.64C1599.12,1095.36,1595.57,1098.77,1588.49,1099.11Zm-.7,147.68c2.28-7.35,8.68-11.76,15.48-9.46s6.08,10,4.06,15.9c-5.6,16.39-8.57,33.33-11.39,50.33-.65,3.94-1.17,8.1-5.12,10.57-3.6,2.25-6.58,6.94-11.45,4.86-5.11-2.19-3.27-7.53-3.84-13.25C1578.42,1286.83,1581.67,1266.5,1587.79,1246.79ZM1220,1446.43c6.28,3.8,9,10.75,11.17,17.58,1.32,4.27.75,8-4.25,9.91-3.16,1.17-6.19,3.87-9.27,3.87-25.35,0-51.08.71-71.37-18.55-8.12-7.71-12.81-17.28-11.92-28.83a8.14,8.14,0,0,0-1.51-5.64c-9.33-13.51-9.38-25.57,1.21-38.24,5.16-6.16,4.49-13.3,5.55-20,.89-5.66-3.37-2.85-6-2-10.61,3.23-21,5.26-30.18-3.8-5.81-5.74-7.5-12.58-3.64-19.42s9.53-12.52,19-10c8.16,2.18,16.87,1.66,24.81,5.21,4.26,1.9,6.12-.64,6.82-4.74,2.14-12.67,7-24.94,5.84-38.1-1.09-12.43,4.46-23.12,8.87-34.06,9.7-24,14-49.27,17.08-74.83,1.33-11.12,3.18-22.31,8.35-32.31,4.27-8.28,3.71-17,4.54-25.64.52-5.54-3.37-5.85-7.21-6.24-14.48-1.49-28.94-3.31-43.46-4.35-23.41-1.68-33.08,6-37.87,28.83-.69,3.29.81,8.61-3.89,9.25-5.27.73-5.43-4.7-7.15-8.3-5.14-10.74-2.72-20.33,3.41-29.7,3.49-5.34,8.39-9.89,9.92-16.37.88-3.75,4.09-3,6.47-3.72,21.71-6.35,43.64-5.23,65.6-1.66,13.48,2.19,22-2,28.22-14.6,3.3-6.76,8-5.78,13.58-3.69,13.41,5,21.12,16.61,30.86,25.86,1.68,1.6,2.59,4,5,4.83,26.14,8.57,49.94,22.43,74.74,33.94,23,10.67,47.55,15.5,71.27,23.31,11.72,3.86,24.51,4.39,36.73-.38,3.4-1.32,7.36-3.36,9.82,1.22,2.3,4.28,3.91,9-.9,12.87-3.31,2.67-5.79,6.09-10.77,7-5.15.94-12.17,3.35-13.29,8.16-2.93,12.62-13.23,20.23-18.62,31.1a594,594,0,0,1-32.4,56.74c-16.47,25.64-24.16,55.2-40.77,80.26-16.11,24.3-30.72,49.37-44.92,74.81-6.45,11.56-17.4,20.63-26.41,30.75-2.69,3-5.39,2.86-8.84.37-5.62-4.06-10.81-8.22-13.23-15-13.67-5.65-24.29-16.67-38.6-21.45-5.7-1.9-11.38-4.11-17.15-6-2.36-.76-4-.22-4.11,2.59A225.14,225.14,0,0,1,1220,1446.43Zm-192-42.89c-6.66.48-11.69,7.13-19.69,6.53-8.47-.63-11.72-7.19-16.78-11.76-1.5-1.36,0-3.11,1.12-4.41,10.93-12.45,20.27-26.32,33.14-37,8.07-6.71,9.4-6.22,12.06,3.85,1.48,5.56,3.78,11,3.22,17-.61,4.7-1,9.44-1.87,14.08C1038,1398,1036.34,1402.93,1028,1403.54Zm-1.64-72.5c-5.7.9-9.61,5.94-13,10.69-15,20.89-29.67,42-49.32,59.1-36.48,31.86-73.51,63-117.13,84.73-26.12,13-54.36,20.43-82.4,28.37-14.73,4.17-29.08,5.92-44.07,4-9.92-1.28-19.49-.87-28.66,4.07a18.1,18.1,0,0,1-14.89,1c-18-6.72-18-19.8-6.63-30.46-2.22-5.83-3.24-11.64-.67-17.72,2.05-4.86.42-9-3.24-12.56l-4.14-3.71c-7.53-3.74-10.36-11.52-15.16-17.61l.25-.36a35.43,35.43,0,0,1,5.13-45.58c16.87-16.06,35.08-30.49,53.69-44.64,16.48-12.52,34.46-22.41,51.31-34.15,24.35-17,53.08-24.57,81.19-33.07,19.31-5.85,38.69-11.51,58-17.3,15-4.48,30.4-6.7,45.8-8.92,18.42-2.65,35.86-9.12,53.91-13.19l.6-5.72c-2.22-13.81,6.77-24.4,11-36.22,3.9-10.86,7.58-22.5,21.7-26.61,6.5-1.9,8.86-11.59,15.73-15.12l.23.48c.26-1.93,1.45-2.46,3.21-2.16l-.4-.17c.5-2.57,1.72-4.4,4.61-4.53l0-.31c.49-2.73,2.44-4.12,4.77-5.16,4.62-5.23,5.29-11.82,6.32-18.29.05-5-.79-10.28.38-15,1.65-6.71,5.76-10.7,13.07-5.52,3.53.72,5,3,5.06,6.48.43,15.27.55,30.27-12.12,42-1.72,1.59-8.16,4.8-2.25,9.4,6.06-.34,12.17-1.32,18.17-.86,10.41.79,19.33-2.44,27.09-8.83,3.69-3,6.24-3.1,9.43.25,2.32,2.43,5.15,4.38,7.48,6.81,6.25,6.53,6.91,13.35,1.11,20.74-3,3.82-8,6.19-8.75,11.67.22,3.54,1.94,6.43,4,9.11,15.27,19.49,14.55,27.42-3.8,44.37-2.7,2.5-4.93,5.5-7.38,8.26-.46,4.52,3.52,7.47,4.12,11.62l-.57.07c1.58-.07,2.42.92,3.06,2.17,2.78,1,4.07,3.37,5.19,5.86,7.61,11,7,18.09-2,24.42l-.33.67-.73,0c-1.92,2.56-3.47,5.57-7.21,5.91-.88.85-1.79,1.39-2.83.23-13.94,10.17-29.93,14.73-46.76,16.74C1053.85,1328.07,1040,1328.89,1026.32,1331Zm-468.08-48.78c-7.81,1.26-11.49-2-14-8.33-18-45.08-31.13-91-27.42-140.42,2.27-30.16,14.79-54.28,36.27-75.72,15.08-15,31.52-28.73,45.69-44.77,9.93-11.23,23.2-18.49,36.34-25.51,27.16-14.52,52.59-32.43,82.31-41.93,7.08-2.26,14.17-4.35,21-7.6,15.74-7.55,31,1,29.86,18.56-1,15.51,1,30.17,3.35,45.19,1.22,7.81-3.68,15.37-2.33,23.92.75,4.76-7,5.44-10.79,7.95-8.73,5.76-16.63,12.9-28,14.46s-18.44-1.68-24.36-11.37c-9.65-15.76-13.16-32.88-14-50.89-.31-6.6-6.41-10.35-8.64-16.56l-3.27,14.16a49.15,49.15,0,0,0-22.07,7,307.57,307.57,0,0,0-52.88,39.72c-6.08,5.74-14.24,11.92-14.21,22.22,0,11.1-1,22.22.62,33.29-3.15,5.39-4.35,11.26-4.54,17.45-.2,6.5-1.06,12.81-6.19,17.66-4.34,4.1-1.65,10.18-4.49,15.14-7.4,12.94-19.65,19.17-32.21,24.78-11.17,5-12.69,7.35-8.45,20.12,5.22-1,8.58-4.56,12-8-3.42,3.48-6.78,7-12,8-.34,22.74,5.83,44,15,64.52,5.21,11.72,11.39,22.55,22,30.46,3.24,2.41,5.07,1.65,8-.15,6.31-3.92,12.81-7.65,20.62-7.7,1,.16,2.54.79,2.87.4,7.34-8.75,19.26-6.44,28-11.66,9.2-5.52,17.12-.33,25.38,2.47,0-1.69.23-3.45.22-5.13,0,1.68-.23,3.45-.22,5.13,3,1.77,2.47,4.94,3,7.7,3.54,17.61,9.11,34.81,8.7,53.21-.09,3.68,5,10.61,9.7,1.33,5.09.74,3.09,5.63,4.87,8.31,4,1.05,7.74,2.53,10,6.33l-27.48,20.29c-7.85,5.75-14.78,12.74-24,16.65-4.7,2-7.8,6.18-10.52,10.71-5,8.28-13,9.76-22.47,7.69-27.74-6.09-32.72-29-36.4-51-1.71-10.2-8.06-19.19-6.5-30.36.82-5.88,1.89-12,2.64-17.86C570.4,1281.73,564.15,1281.32,558.24,1282.26Zm426.08-84.84c3.95,7.78,2.56,15.81,1.07,23.81-.58,3.11-2,5.89-5.46,6.63-5.19,1.1-8.16,4.34-9.69,9.27-.94,3-2.39,5.81-6.36,5.13-5.29-.92-1.8-4.79-2.32-7.28-2.5-11.83-4.89-23.68-7.32-35.53,0-6.52-3.46-14.45,6.88-16.83.77-.18,1.55-1.41,1.87-2.31,3-8.3,5.89-16.63,10.91-24,4.92-7.17,10.19-14.11,14.71-22.08A140.82,140.82,0,0,0,956.92,1151c-1.76-8.22,0-15.35,2.19-21.55,2.63-7.31,7.75-13.52,17.66-11.8,15.68,2.72,31.54,2.26,47.38,2,6.49-.09,6.33,7.5,10.78,10.43,3.37,2.22-1.23,4.7-3,7-7.31,9.26-18.14,16.2-24.06,25.22C1000.16,1174,982.64,1179.67,984.32,1197.42ZM612.26,1137.8c-.61-6.8,2.66-13.1,10.23-15.6,2.21-.74,5.15-1.17,6.35-2.78,10.22-13.76,26.47-18,40.32-26a56,56,0,0,1,16.9-6.85c13.06-2.6,14.09-1.85,17.92,10.57,1.88,6.11,4.42,12,6.53,18,5,14.18,8,28.57,5.32,43.74-.88,5,.19,9.67,1.89,14.75,2.46,7.37-5.87,10.57-9.29,15.74-1.68-.29-3.42-.87-4.63,1-11.87,6.77-20.5,19.53-35.53,20.3-7.74.4-15.14,1.75-22.7,3-7,1.21-12.62-3.5-15.65-10.11A200.28,200.28,0,0,1,612.26,1137.8Zm374.47-73c1-.54,2.78-1,3.31-1.59-.53.64-2.26,1-3.31,1.59l-.14.13Zm-48.44,38.9c-10.61,10.53-25.06,9.12-37.89,12.12-15.08,3.53-30.63,5.07-45.51,9.68-8.4,2.6-15.86,1.28-23.63-5.34,8.67-4.78,16.77-6.13,24.58-7.64,26.29-5.09,52.48-10.53,78.26-17.85,2.92-.83,7.35-3.45,9.11,0C945.07,1098.36,941,1101,938.29,1103.65Zm-232.72,94.07c-.17.22-.36.45-.56.67C705.21,1198.17,705.4,1197.94,705.57,1197.72Zm-1.23,1.37c-.31.3-.65.6-1,.9C703.69,1199.69,704,1199.39,704.34,1199.09Zm58.3,51.07h-.07v0c-5.4-14.57-2.69-31.07-12.21-45-5.43-8-.41-20,8.64-25.52,17.24-10.6,33.63-22.49,53.33-29,12.12-4,22.52-4.58,33.27,2.55,7.3,4.84,10.09,12.94,4.76,20.1-6,8.08-6,16.1-3,24.85,3.56,10.34,2.58,21.93,8.42,32.7,4-3.7,1.93-9.45,6-11.87,2.32-6.37.86-12.51-.63-18.59,1.5,6.08,2.95,12.22.63,18.59a87,87,0,0,0,8.86,39.5l-29.07,8c-19.06,9.66-39.66,15.13-59.75,22-4.26,1.46-6.5-.3-7.74-4s-2.3-7.69-3.43-11.54c-3.22-7.4.08-17.11-8.07-22.77-.86,13.93-1.87,27.85-2.52,41.79C760.77,1278,761.78,1264.09,762.64,1250.16Zm358.25-223.74c-1.45,7.7-13.25,13.5-20.06,9.89-1.43-.76-1.93-1.63-1.65-3.5,1.4-4.16,5.12-6.61,9.11-8.31,3.55-1.52,7.16-4.21,11.4-2.42C1121.54,1022.86,1121.23,1024.66,1120.89,1026.42ZM1070,1071.35c.57-9.73-1.42-19.85,5.83-28.15,2.46-2.81,4.85-6.86,7.69-.31.12.28.52.43.76.67,7.44,7.52,15.26,11.67,24.56,2.79,7.65-1.55,11.64-6.45,14.62-13.57,5.62-13.41,15.53-14.61,25.92-3.9,1.42,1.46,2.64,3.45,4.38,4.22,15.41,6.82,12.74,20.25,8.86,31.15-2.37,6.66-12.51,9.32-20.36,11.08-9.09,2-18.16-1.11-27.23-.95-5.41.09-10.93-.87-15.59,5.34-5.37,7.15-12.82,2.77-19.1-.94C1073.12,1081.53,1069.48,1080,1070,1071.35Zm28.72-137.54c-7.12,1-15-1.81-20.88,5.17-3.1,3.7-5.32-6.18-9.12-1.19-3.56,0-6.44,1-8.22,4.49-3.23,6.29-9,9-15,6-7.6-3.92-15.76-8.76-15.48-19.26.31-11.8,8.41-19.06,20.15-16.73,16.77,3.32,33.54.74,50.29,1.47,27.52,1.19,54.22,5.49,80.18,14.47,8.79,3,10.39,8.81,6,19.28C1158.52,935.07,1129.38,929.46,1098.7,933.81ZM957.65,950.46a11.47,11.47,0,0,1,3.48-1.33A11.47,11.47,0,0,0,957.65,950.46Zm-1.32,1c.1-.1.24-.18.36-.28C956.57,951.29,956.43,951.37,956.33,951.47Zm-1.3,8.31h0c-3.81.23-6.52-2.95-10.6-3C948.5,956.84,951.22,960,955,959.78Zm214.54,236.91c2.21,5.52.66,12.06-4,17-2.45,8.55-5.55,16.68-4.45,26.19,1.23,10.52-6.83,19.86-6.06,30.86.18,2.57-3.69,4-6.43,3.88-3.44-.15-6.51-1.45-8.18-5-3.49-7.45-5-15.12-.12-22.26,7.47-10.93,4.19-25.06,11.61-36.12,2.64-3.93-.59-9.11-2.85-13.32-5.84-2.48-7-7.68-5.23-12.55,3-8.57,4.83-17.76,10-25.39,3.29-4.82,4.73-9.63,3.32-15.28-9.35,1-17-3.36-24.54-8-5.14-3.17-4.41-6.37.83-8.73,9-4.08,17-1.88,24.31,4.26.33.07.67.12,1,.22,16.86,5.52,18.16,10.19,13.82,27.29C1169.66,1171.49,1164.32,1183.57,1169.57,1196.69ZM1103,1424.93s0,0,0,0S1103,1425,1103,1424.93Zm-51.07,3.17c7.3-7.58,17.62-9.08,26.58-2.93,7.16,4.91,14.48,8.57,23.49,6.84l1.87-.22c5.76,5.77,3.94,9.13-2.79,12.91-13.89,7.83-28.85,4.53-43.4,5.36-5.3.31-5.87-5.13-7-8.7C1049.37,1437,1047.79,1432.37,1051.9,1428.1Zm140.61-476.92c-2-13.21,4.11-17.65,17-13.62,32.69,10.18,64.65,22.23,95.24,37.89,8.79,4.5,17.72,10.22,28.53,9.42,2-.16,4.29,0,5.5,1.92,9.15,14.38,23.38,25.74,26.12,43.93.35,2.32,1.19,4.7.92,7-1.25,10.43-8.42,10.45-16.34,8.89-1.24-.15-2.74,0-4-.16,1.26.15,2.76,0,4,.16.48-7.12-1.54-13.45-3.78-20.33-4.81-14.73-16.42-22.58-27.2-31.14-7.38-5.87-14.84-13.5-26-11.57-9.62-3.81-13.7,3.25-14.9,9.85-2.31,12.68-12.47,20.18-19.31,29.07-4.22,5.49-17.39,5.85-26.78,4.58a82.58,82.58,0,0,0-15.11-.63c-12.31.58-21.39-6.1-24.36-17.79a44.85,44.85,0,0,1-1.18-18.16C1192.89,977.41,1194.54,964.65,1192.51,951.18Zm186.86,125.87c14.3,6.23,28.75,12.38,41,22.12,10.9,8.68,17.82,21.19,25.83,32.35,5.06,7-1.57,12.88-8.45,16.34a110.28,110.28,0,0,1-45.41-3.58c-12.06.44-20.67-8.68-31.82-11.4-12.3-3-22.21-14.19-36.54-11.35a1.47,1.47,0,0,1-.94-.32c-18.63-11.93-40-20.28-52.46-40.24-2.86-4.6-5.86-6.71-11.64-5-9.16,2.79-15.83-2.08-17.4-11.89-1.23-7.73,4.76-16.43,12.89-16.37a150.83,150.83,0,0,1,31.24,3.26C1317.32,1058.05,1349.34,1064,1379.37,1077.05Zm-365.26-231.9c5.2,5.78,9.95,12,14.77,18.06,1.93,2.44,2.32,5.08,1.92,8.48-2,16.92-12.91,27.53-25.42,36.93-3.56,2.67-8.47,1.36-12.81,1.38-1.3.29-3.68.43-3.75.91-1.81,12.57-12.45,9.72-20.25,11.77l-8.5,1.36c-7.52,4.86-16.55,5.32-24.82,7-7.32,1.49-13.1,4.51-16,10.09-5.44,10.63-17.78,4.52-24.34,11.57-.93,1-3.11-.32-4.19-1.9-6.1-8.88-13.18-17.24-18.19-26.7-9.46-17.85-22.81-32.52-36.29-47.11-4.48-4.84-11.95-5.18-16.74-10.89-6.6-7.85-3.72-13.38,1.58-19.38,1.53-1.74,4.37-2.81,5.06-4.74,7.32-20.3,25.32-22.66,42.48-23.5,19.35-.94,35.61-6.55,49.29-20.25,5-5,10.42-9.78,17.93-10.83a26.89,26.89,0,0,1,31.84,6.65C983,811.25,998.74,828,1014.11,845.15Zm-264.82-.44c2.56,1.95,7.64,2.36,5.55,8-1.94,5.23-5.52,9.88-10.59,9.58-7.57-.43-16.62.51-20.93-8.66-8.13-2.73-12.94-10.55-15.08-16.68-8-22.78-11.11-46.46-6.12-70.78,1.78-8.72,5.35-10.88,13.1-7.49,11.47,1.4,16.27,6.27,16.35,17.56.12,16.93,1.5,33.66,5.89,50.07C739.44,833.74,743.07,840,749.29,844.71Zm-421,334.69c1,6,1.37,12.06,2,18.1,2,22.87-2.73,46.09,3.41,68.73,2.25,8.32-4.26,15.2-4.73,23.4-.23,4.13-6.35,1.25-9.63.53-4.08-.9-7-3.73-5-8.15,2.71-6,1.63-11.91,1.34-17.94-.73-15.17-1.25-30.3.7-45.49,1.29-10,1.6-20.25-.88-30.3a17.66,17.66,0,0,1,.54-10c1.51-4.46,5.81-4.58,9.21-4.92C329.67,1172.9,328,1177.28,328.32,1179.4Zm-1.78,167.83c-.88-5.76,3.77-9.15,9.64-8.83,6.81.36,4.58,6,5.42,10-2,4.67,1.85,13-6.8,13.22C325.17,1361.87,327.36,1352.61,326.54,1347.23Zm-3.75-22.92c-2.79,0-5.32-4.93-5.29-10.22,0-7.33,4.35-11.13,11-12,3.77-.49,6.18,2,6.29,6.16C335,1316.8,329.39,1324.4,322.79,1324.31Zm13.65,55.59c-1.35-3.44-1.81-7.4,1.7-9,3-1.37,4,2.85,5.29,4.85,8.29,12.43,15.05,25.62,18.95,40.13a18.38,18.38,0,0,0,8,11.26,31.53,31.53,0,0,1,7.52,6.62c1.58,2,3.81,4.53,2.32,7.32s-4.31.56-7.61,1.3c-3.3,1.24-5.72-1.45-8.23-4.45a93.81,93.81,0,0,1-14.67-24.15C345.07,1402.58,340.87,1391.19,336.44,1379.9Zm9.77-301.63c-6.73,21.91-13,43.92-18.34,66.22-.76,3.21-3,7.31-6.68,6.23-3.45-1-1.63-6-3.49-10.21,7.11-13.37,8.06-29.51,13.57-44.34,2.44-6.58,6.69-12.5,6.86-19.92.08-3.15,2.28-5.1,5.38-4.47C347,1072.5,347.06,1075.49,346.21,1078.27ZM1881.34,895.09a73.29,73.29,0,0,0-1,20.17c.22,3.31-.92,5.56-4,6-10.18,1.43-17.59,8-25.9,13.08a160.15,160.15,0,0,1-37.09,16.29c-8.58,2.64-17.54,5.51-24.89,10.43-19,12.71-40.92,17.93-61.82,25.58a307,307,0,0,0-31.71,13.48c-20.47,10.19-42.35,16.33-63.49,24.49-18.49,7.13-37.86,12-57,17.45-10.48,3-17.09,11.27-23.56,18.32-22.21,24.17-48.29,10-53.08-12.4-3.5-16.36-13.74-26-21-38.49-7.39-12.82-14.35-26.09-26.45-35.79-6.07-4.87-10.45-12-8.64-20.6,1.76-8.42-5-15.38-3.41-23.88.47-2.54-3.68-3.63-6.44-3.65-13.48-.08-22.88-8.28-31.36-17a254.34,254.34,0,0,1-27-31.8c-12.23-17.47-26.25-32.86-47.41-39.94-6.46-2.16-12-6.25-16.69-11.34-6.53-7-13.55-13-23.89-14.15-5.58-.6-9.88-5.14-13-9.37-8.1-11.1-19.78-14.44-31.85-19.39-20.38-8.37-42-12.16-62.51-20.27-20.28-8-42.18-15.33-65.37-11.88-11.43,1.71-20.91-1.45-25-13.81-1.26-3.8-4.19-4.79-8.06-4.46-10.16.85-20.33,1.39-30.5,2.15-6,.45-9.95,3.76-12.25,9.28-3.17,7.57-6.61,6.12-12,1.4-7.55-6.58-12.06-14.76-14.86-23.79s-8.7-9.84-15.66-6.83c-6.09,2.65-11.88,4.66-18.53,3-1.25-.33-3-.46-4,.18-14.39,9.41-22.55-.79-30.41-10.07a120.91,120.91,0,0,1-18.26-28.1c-2.43-5.39-.52-7.29,4.18-11C947,652.82,968,667.05,988,663.81a18.91,18.91,0,0,1,3,.13c.26,0,.53-.28,2.13-1.2-11.38-8.06-10.87-19.06-8.7-30.93,1.15-6.24.29-12.87.16-19.32,0-2.53,1.66-5.9-1.47-7.32-2.68-1.21-5.22.91-7.32,2.57-10,7.94-22.64,11.35-30.85,23.15-8.6,12.37-28.61,7.5-34.61-6.23a50,50,0,0,1-3.9-22.84c.56-12.52,2.84-25,1.65-37.59-.19-2-.15-4.42.83-6,6.94-11.14,6.69-20.07-4.44-29.31-5.95-4.93.38-10.75,5.46-13.46a31.44,31.44,0,0,1,26.65-1.65c5.52,2.09,10.92,3.48,17.47,1.37-7.69-15.2-15.38-30.29-17.28-47.46-.3-2.77-3.13-4.33-4.89-1.07-4.81,8.91-10.19,15.47-21.65,10-9.36-4.46-15.26-14.81-14.38-26.9,1.24-17.26,4.39-34.33,4.29-51.76-.05-8.95,9.62-14.61,18.59-11.14,9.3,3.61,17.27,9.26,21.92,18.69,4.17,8.44,16.77,15.25,25.86,14.62,5.72-.39,9.19-1.81,6.81-8.67-5.64-16.26-5.78-33.38-7.12-50.27-.64-7.95-4.82-9.76-10.7-6.25s-11.38,3.65-17.54,2.88a67.91,67.91,0,0,0-29.18,2.69c-19.29,6.09-39.68,3.2-59.26,7.05-2.65.52-6.2-.15-7.43,2.32-1.74,3.52,2.85,3.78,4.3,5.76,5.24,7.17,9.24,14.47,9.86,23.94,1.6,24.33,3.75,48.66,6.68,72.86,2.36,19.54,5.43,38.8,1.22,58.56-1.83,8.58,4.33,16.71,3.73,25.88-1.09,16.6-1.16,33.61,4.44,49.37,4.06,11.42.42,23.62,5.84,34.57,1.4,2.83,2.64,6.57-.56,9.46a4.21,4.21,0,0,1-4.7.83c-4-1.73-6.21-5.71-5.24-9,2.54-8.72-1.77-14.07-7.36-19.28-.34,10.15,3.11,20.67-3.75,30.2-1.76,2.43.1,4.93,3.45,5.83,3.52,1,6.91,2.42,10.35,3.67,17.23,4.9,30.22,15.94,41.88,28.91,2.86,3.73,4.63,8.47,9,10.86,8.58,4.7,6.53,8.67-1.25,10.6-5.48,1.36-9.06,5.46-14.16,7.45-7,2.72-13.9.82-20.45,2.42-9.4,2.29-18.48,6-27.57,9.42-12.49,4.71-19.87,0-20-13.41,0-4.7-.3-9.49,1.43-14.1.89-2.37.56-4.91-2.1-6.07-3.64-1.6-4.58,1.56-6,3.79-2.1,3.37-1.89,7.16-1.85,10.88s.39,7.46.41,11.19c0,5.71,1.17,12.15-5.52,15.09-7.26,3.2-13.66-.75-18.77-4.87-9.56-7.69-11.15-8.22-19.11,2.31-3.59,4.75-9,5.87-13.38,8.75-2.63,1.7-6.76,1.08-8.31-3.19-9.74-1.85-10.13-8.24-7.92-16.05.8-2.81,2.87-6.53,0-8.43-3.47-2.27-6,1.7-8.77,3.43a5.76,5.76,0,0,0-2.2,2.09c-10.38,21.46-31.74,22.93-51,28.08-4.72,1.25-13.71,1.76-13.3,4.07,1.3,7.35-1.83,15.57,3.78,22.25,6.94,8.27,5.63,16.32-4.08,21.64-8.57,4.69-17.82,8.12-26.66,12.33-8.63,4.12-16.81,9-23,16.54-5.81,7.08-15.69,6.12-22.32,11.52a.93.93,0,0,1-.9,0c-11-12.1-15.54,1.7-21.22,6.18-7.16,5.64-16.57,9.9-18.81,20.42-.2.94-2,2-3.22,2.17-14.34,1.75-20,13.84-28.17,23.12-6.48,7.4-12.15,17.2-20.44,20.94-12.71,5.73-20.16,17.5-32.43,23.41-5.7,2.75-10.12,9-14,14.54-23.23,32.77-44.05,66.89-56.29,105.53-2.71,8.55-8.7,7.3-14.64,4.91-28.05-11.29-57.7-17.36-86.4-26.59-23.2-7.46-47.17-12.52-70.42-19.85-11.94-3.78-23.76-8-36-10.54-19.05-4-37.72-9.72-54.1-20-23.78-14.86-49.62-22.8-76.73-27.76-14.87-2.72-22.88-13.43-29.85-25.3-2.17-3.7-2.34-8.22.31-11.61,7.38-9.43,8.68-21.12,12.54-31.84,9.77-27.06,19.37-54.19,35-78.63,5.58-8.75,10.64-17.54,21.53-21.89a25.55,25.55,0,0,0,14.13-15.4c7.11-21.24,19.58-40.22,25.82-61.82,1.44-5,3.78-9.6,7.73-13,19.17-16.3,32.18-37.5,46.41-57.76,8.07-11.48,14.32-25,29.91-28.84a7.17,7.17,0,0,0,3.24-2.41c25.33-29.23,58.19-50.69,83-80.46,2.72-3.27,7-5.31,10.64-7.71,9.95-6.49,20-12.87,30-19.29,7.71-5,15.16-10.6,25.27-8.5a5.3,5.3,0,0,0,5.49-1.95c10.43-13.8,29.1-17.6,38.92-32.13a1.93,1.93,0,0,1,.75-.67c27.83-11.95,49.91-35.75,81.36-40.09,14.85-2.05,27.58-7.87,40.06-16,14.51-9.48,31-15.78,47.7-20,28.14-7.13,53.43-21.76,81.33-29.37,11.32-3.09,23.51-3.68,33.48-11.13a9.49,9.49,0,0,1,6.79-1.74c20,4.45,38.89-4.15,58.46-4.24,4.13,0,8.58-.6,11.79,2.1,7,5.86,11.23,3.58,14.75-3.74,3-6.16,8.42-9.36,14.52-12.08,42.35-18.82,86.6-20,131.81-15.72,27.35,2.58,54.9,3,82.36,4.52,31.33,1.74,61.43,10.59,92.13,16,14.72,2.58,28.34,6.13,39.75,16.14,2.06,1.81,4.29,1.1,6.52-.37,10-6.69,20.91-6.54,32.14-3.78a53.29,53.29,0,0,0,11.09,1.54c41.51,1.09,77.68,19.81,114.92,34.89,10.54,4.26,21.34,7.86,30.53,15.36,14.32,11.69,32.54,16.4,49,24.06,16,7.48,30.38,16.81,44.25,27.27,14.11,10.62,29.56,19.06,44.5,28.33,14,8.72,27.48,18.3,41,27.87,28,19.83,46.55,49.19,73.91,69.67,12.27,9.17,21,23,31.87,34.15,14.1,14.45,31.84,25.46,41.26,44.31.46.92,2.29,1.39,3.57,1.63,19.36,3.72,29.09,20.13,42.1,32.13,5.89,5.42,3.61,12.5.13,17.66-3.58,5.32-1.62,6.6,2.72,8.77,12.62,6.32,26.57,10.57,34.89,23.54a94.88,94.88,0,0,1,7.8,14.21,84.24,84.24,0,0,0,16.89,25.16c11.69,12.38,21.16,26.63,29,41.6,3.52,6.72,12.14,11.17,9.86,21.37-.86,3.85,7,3.05,9.48,7.52,4.24,7.47,6.3,15.73,10.2,23.24,2,3.86,3.11,8.55,8.66,8.85,2,.11,2.89,1.09,3.18,3.08.59,4-2.17,11.44,7,7.46C1879.74,886.09,1882.2,890.93,1881.34,895.09Z"/><path class="cls-1" d="M350,1150.3l-.08.07h0Z"/><path class="cls-1" d="M1839.18,1697.7c-4,.8-8.86.16-11.65,4.17-.68,1,.55,2.29,1.91,3a15,15,0,0,0,14,.24c1.55-.78,2.3-3.17,3.42-4.82l-.82-1.78C1843.77,1698.19,1841.34,1697.27,1839.18,1697.7Z"/><path class="cls-1" d="M1529,815c4.09-7.3,7-13.26-.49-19.65s-13.42-1.38-18.52,3.46a106.52,106.52,0,0,1-24.1,16.88,39,39,0,0,0-11.86,9.41c-8.48,10-14,11.09-22.27,4.65-7.83-6.12-8.47-14.68-1.86-24,18.82-26.67,38.67-52.52,61.44-76,8.26-8.49,16-19.23,27.84-21.46,15.4-2.88,21.07-13.51,27.44-25.28,5.32-9.82,13.9-16.6,25.37-18.61,3.46-.61,7.51-3.18,10.21,1.13,2.25,3.6-.2,7-1.15,10.56-4.17,15.74-11.64,30.82-10.81,49.73,3.14-2.3,4.61-3.11,5.76-4.26,18-18,31.84-39.88,52.43-55.4,2.7-2,1-3.82,0-6.08-3.24-7.89-12.16-9.18-17.1-15.14-1.34-1.61-4.71-.48-6.49,1.33-6.92,7-11,2.42-15.21-3.32-3-4.09-6.86-7.56-9.8-11.68-3.76-5.26-8.65-5.73-14.39-4.85-29.22,4.48-52.43,19.51-71.09,41.62-9.26,11-19.42,20.88-29.83,30.61-3.43,3.2-7,7.18-12.09,6.83-5.24-.37-6,2.49-7.21,6.35a181.17,181.17,0,0,1-20,43.31c-11.14,17.93-29.38,30.85-36.43,51.69-.5,1.47-2.17,2.57-3.35,3.78-1.93,2-3.71,1.46-4.85-.74-4.66-8.91-13-16.67-12-27.49,1.73-18.73,2.15-38,12.49-54.77,5.36-8.7,8.93-18.29,13.65-27.27,17.24-32.82,26.25-69.05,43-102.05,6.53-12.82,16-23.88,20.87-37.69,2.44-7,8.15-11.23,15.21-14,8.82-3.49,8.94-7.38,3.38-15.35-9.23-13.24-23.2-22.6-29.91-38-2.75-6.3-14.53-7.63-22.22-4.58-9.07,3.61-2.83,9.19-1.54,13.31,8.36,26.73,1.31,48.59-21.51,64.12-16.25,11.06-29.36,25.17-43.07,38.79-6.73,6.69-11.88,15.38-19.47,20.72-11.57,8.14-17.51,19.27-22.84,31.55-7.25,16.68-17.3,31.38-31.72,43C1295.2,708,1286,716.6,1276.67,725c-3.22,2.87-6.11,5.92-.63,9.54a8.35,8.35,0,0,1,3.85,6.87c.08,3.94,1.74,5.53,5.61,5,7.25-1,13.32,1.3,18.47,6.48,2.32,2.34,5.28,3.16,8.38,1.51,3.73-2,3.59-5.22,2.7-8.81-1.59-6.44.12-12.73.84-19.14,1.08-9.57,4.36-16.07,14.94-17,2.63-.23,4.84-2,6.21-4.71,5.3-10.46,11.46-13.46,22.63-11.31,6.69,1.29,15.65,13,16.35,20.52,1.75,18.84-8.81,34.39-13.43,51.51-.78,2.89-2.62,5.56-6.48,5.46-2.52-.07-5,.72-5.58,3.43-.65,3.4,2.83,3.53,4.72,4.22,26.18,9.58,42.5,29.43,55.41,52.85,3.2,5.8,7.58,12.32,13,13.76,9.93,2.62,16.21,9.44,23.75,15,4.34,3.17,9.26,9,12.13-1.45.54-2,2.35-1.93,4.05-2.29C1490.56,850.75,1514.54,840.78,1529,815ZM1386.23,677.6c-1.85.65-2.26,2.52-2.14,4.22.47,6.84-2.67,9.2-8,7.62-8.86.35-20.91-8.51-22.43-15.56a6.63,6.63,0,0,1,2-6.47c15.21-15.1,26.25-33.49,39.52-50.12,3.81-4.76,7.62-9.87,13.94-11.23,3.51-.76,7.84-5.45,10.79-.28,2.65,4.65,2.09,12.13-2,14-16,7.3-16,21.47-18.43,35.48C1398,663.87,1396.85,673.84,1386.23,677.6Z"/><path class="cls-1" d="M712.53,669.26c-1.84-6.15-3.45-12.68-8.56-17.07-8.46-7.25-12.54-16.74-14.55-27.25-1.43-7.46-4.56-14.12-7.69-20.91-4-8.77-12.08-15-16-23.28-10.35-22.13-24.48-42.11-34.86-64.21-7.47-15.9-15.37-31.75-25.57-46.21-6.24-8.86-11.75-17.64-4.22-28.56,1.42-2.06,3.65-5.85-.11-6.69-5.31-1.17-10.34-4-16.68-1.32-15.19,6.51-30.73,12.29-46.41,17.54-8.45,2.83-6.93,11.51-11,16.85-1.15,1.5,6.33,6,11.67,7.13,15.78,3.49,39.89,24.49,36.11,44a40.41,40.41,0,0,0,3.66,25.85c4.92,9.79,7.51,20.32,9.58,31,.79,4.11,2.85,8.69-3.23,11.18-5.59,2.3-11.48,4.77-15.65-1.31-10.57-15.4-23.58-28.91-34.16-44.21-5.51-8-8.75-17.44-14.84-25.37-4.87-6.34-13.06-8.33-17.24-15.42-4.3-7.3-9.42-13.67.62-20.59,4.61-3.19,2.83-7.71-1.4-9.49s-6.57,2.68-8.9,5.4c-6.88,8-14.88,14.66-25.91,13.83-12.84-1-19.65,7.68-27.1,15.22-3.25,3.28-3.35,6.59,3.22,8.18,22.82,5.52,30.56,19.5,27.67,45.15-1.07,9.56-1.21,16.88,9.94,19.46A10.6,10.6,0,0,1,487.3,583c7.14,10.74,14.83,21.27,17.26,34.32,1.16,6.2,3.33,12.24,7.38,16.56,26.29,28.15,35.66,65,51.14,98.7,3.86,8.4,5.58,19.23-4.17,27-3.12,2.5-3.18,6-.74,9.09,2.81,3.54,5.61.64,8-.75,12.31-7,24.34-14.63,41.23-18.7-18.73-7.09-25.3-21.83-32.39-34.74-10.9-19.84-18.43-41.5-28.32-61.94-6-12.42-6.11-27.35-16.48-37.89-1.66-1.69-1.38-4.63-.09-6.77,2-3.21,5.39-2.91,8.25-2.16,10.59,2.76,18.32,8.2,23.31,19,5.84,12.64,10.31,26.72,22.18,35.63a82,82,0,0,1,22.57,25.86,158,158,0,0,0,11.36,16.83c1.88,2.52,3.64,6.68,7.72,5.17,3.11-1.15,3.35-5.22,3.41-8,.35-18,.7-35.88-2.18-53.76-2.64-16.36-7.14-32.4-8.38-49-.27-3.59.29-5.84,3.41-7.4,2.85-1.42,5.31-.64,7.35,1.55,4.6,4.94,11.26,9.09,12.26,15.89,2.22,15.06,8.92,27.91,16.76,40.5,5,8,8.81,16.92,14.53,24.36,9.46,12.31,18.56,24,6.4,39.56-.75,1-.66,2.6-.91,3.93-.78,4.18,1.24,5.21,4.48,3.28,12.6-7.56,27-10.91,40.15-17.13,5.1-2.4,4.7-4.85,1.58-8.26C718,686.76,715.16,678.09,712.53,669.26Z"/><path class="cls-1" d="M1136.94,641c1.56-22.73,7.79-44.83,9.18-67.7.55-9.08-.83-15.38-8.43-19.56-5.87-3.22-10-7.9-14.19-12.86-3.19-3.82-6.25-8.24-4.14-12.77a12.9,12.9,0,0,1,13.29-7.72c5.77.57,9.79-1.75,12.5-6.66,11.85-21.44,28.43-41.18,24.37-68.36-.38-2.56.38-5.48,1.27-8,4.55-12.87-.92-23.93-8.39-32.88-11.12-13.3-27.09-21.12-41.08-31.13-10.73-7.68-24-6.91-36.15-8.83-15.36-2.43-31-2.78-46.58-4.12-3.34-.29-5.64.63-5,4.3,1,5.9,1.19,12.36,7.4,15.9,8.49,4.83,8.62,12.74,8.33,21.18-.95,27.37-11.36,53.36-10.47,81.18.92,28.92-4.36,57.42-11.58,85.44-1.26,4.87-2.3,10.87-5.65,13.87-4.81,4.32-4.24,8.38-3.52,13.45,2.89,20.28,3.27,40.36-6.53,59.2-1.42,2.72-4.23,5.19-2.13,8.16,2.32,3.29,6.3,2.25,9.38,1.18a94.65,94.65,0,0,1,30.95-5.21c10.17,0,13.52-3.83,12.2-14.16a39.58,39.58,0,0,0-2.5-9.82c-6.91-17.14-5.34-34.34,5.5-48.24,9-11.48,8.24-20.11,1.84-31.61-5.22-9.39-1.21-14.33,9.49-16.77,14.54-3.31,28,9.1,36.71,22.31,4.88,7.44,2.41,14.23-5.29,17.5-5,2.11-5.22,4.55-3.89,8.46a29.58,29.58,0,0,1,.8,16.12c-2.34,10.44-1.87,20.9-1.86,31.42a163.55,163.55,0,0,1-4.07,34.23c-3.35,15.63-3.62,15.5,12.49,18.2,12.57,2.1,25.11,4.4,37.54,6.59.9-3-.3-4.76-1.31-6.51A79,79,0,0,1,1136.94,641Zm-28.53-128.35c-5.78,8.67-21.26,11.38-29.67,5.43-2.17-1.53-2.44-4.08-2.69-6.38-.86-7.75-1.48-15.52-2-20.78.4-30.27,7.6-56.79,14.66-83.27,2.78-10.46,13-10.67,21.83-4.82,26.54,17.54,15.66,44.25,18.32,67.64.2,1.8-1,5.28-1.94,5.46-10.51,1.91-8.28,10.7-9.76,17.4C1115.64,500.37,1112.36,506.68,1108.41,512.61Z"/><path class="cls-1" d="M520,774.89c1.68-15.74-1-30.27-11.71-42.66A123.88,123.88,0,0,1,487,697.69c-4.39-10.71-10.66-20.38-16.81-30.18-9.48-15.13-18.81-30.15-25.95-46.93-8.92-20.93-18.87-42.92-42.48-52.92-5.47-2.32-6.15-7.41-7.32-12.5-.75-3.26.24-8.25-4.17-9.29-3.93-.93-6.62,2.65-9.55,5-19.38,15.41-34.35,36.52-58.77,45.4h0l-1.79,2.86c1.77,1.08,2.93.55,3.57-1.35,14.13-5.62,27-2.91,38.62,6.29,5.59,4.4,10.32,10.24,16.47,13.47s8.89,7.54,10.14,14c1.78,9.18,2.79,19.12,15.22,20.94,3.06.45,4.61,3.78,6.32,6.33q17.61,26.21,35.27,52.36a47.44,47.44,0,0,0,11.14,11.5c8.86,6.61,20,13.11,24.16,22.37,5.87,13.1,15.65,23.34,21.44,36.24,4.82,10.72,4.39,13.78-6.59,17.56-4.11,1.42-7.57-.51-10.64-2.06-7.31-3.72-15.1-5.91-22.8-8.46-18.26-6-30.4-22.15-48-29.35-1.14-.47-1.95-1.85-2.8-2.9-10.84-13.34-22.69-25.78-30.79-41.37-5.07-9.75-11.44-19.37-21.59-25.29-2.5-1.46-4.51-4.35-3.34-6.84,4.36-9.32-4.12-17.38-2.1-26.4.42-1.87-1.15-4.06-3.14-4.62s-2.7,1.5-3.74,2.83c-8.95,11.34-22.94,10.85-28.86-2.33-5.65-12.59-10.78-26-7.7-41.18-21.23,22-40.29,45.55-62.71,66.71,4.38,2.62,7.82,1.68,11,1.57,15.21-.54,29.46,5,41,12.84,23.45,16,43.93,36.18,64.92,55.21,16.86,15.29,30.18,34.81,47.26,50.39,17.51,16,35.2,31.75,54.13,46.06,5.23,3.95,10.76,3.73,16-.17,9.25-6.86,18.88-13.3,27.5-20.88,7.4-6.51,14.19-14.51,11.25-25.51C518.81,789.54,519.16,782.32,520,774.89Z"/><path class="cls-1" d="M819.66,519.75c-3.81-11.51-6.13-12.79-16.41-6.48-7.11,4.37-11.68,1.85-15.34-3.77-3.09-4.74-8.13-10.23.65-14.88a5.94,5.94,0,0,0,3.06-6.1c-2.53-13.9,5-25.55,7.66-38.27,2.14-10.36,15.87-24.86-6.08-31.32-1.56-.46-2.66-3-3.66-4.77-5.7-10-12.21-19.69-16.61-30.25-2.72-6.53-5.2-6.56-11.17-5.28-20.48,4.38-41,9.38-62.27,4.87-3.19-.67-7.27-.83-10,.58-12.93,6.69-25.57,14-38.25,21.15-2.33,1.32-5.64,4-2.54,6.16,8.08,5.54,11.44,15.51,19.56,20.5,18.31,11.25,21.4,29.21,22.68,48.26,1,14.16,2.78,28.06,7.81,41.6,5.64,15.22,11.08,30.8,10.25,47.39-.76,15.5,3.82,29.16,10.81,42.73,9.4,18.24,18.46,36.28,20.84,57.76,1.34,12.14,6.3,26.11,18.74,34.49,4.34,2.93,6.05,2.46,10-.52,11.76-9,22.75-19.44,37.61-23.55,3.49-.7,6-4.63,10.15-3.12.49-6.53,4.84-6.48,9.68-5.6,3.06-.7,5.77.32,8.61,1.36,2.43.89,6,1.55,6-2.34,0-2.66.73-7-4.23-7.41-2-.16-3.9-.51-5.84-.77-10.71-3.11-21-25.64-16.12-35.07,1.6-3.12,4.51-4.1,7.21-5.24,10-4.2,19.43-10.26,31.44-8.34-1.13-2-2-3.15-3.16-3.43-14-3.44-15.84-5.35-10.85-18.28,8.12-21.1.17-38.46-11-55.22C825.25,531.19,821.71,525.93,819.66,519.75Zm-78.45-10.67A69.62,69.62,0,0,1,728.57,467c.12-5.87-.81-11.12-4.27-16.27-4.85-7.21-3.31-17.63,2.33-22.41,8.41-7.13,18.89-7,26.74-.86,10.22,8,19.29,16.2,18.4,34.23-2,13.22-5.44,29.87-11.61,45.66C755.78,518.6,748,518.84,741.21,509.08Zm67.2,72.5c-2.29,10.92-3.58,22-5.59,33a41.2,41.2,0,0,1-9.27,20.1c-4.28,4.92-4.12,11.3-5.53,17.19-1.08,4.51-1.39,9.39-5.41,12.86-5.33,4.62-9.18,6.36-14.86-.74-8.61-10.77-11.42-21.86-13-35.78-2.91-25-1.61-50.82-9.68-75.08-2.28-6.87-.1-10,5.05-13.16,6.42-3.94,12.91-7.46,20.72-7.28C796.73,533.81,813.76,556.13,808.41,581.58Z"/><path class="cls-1" d="M817.19,677l-.09,0s0,.07,0,.1Z"/><path class="cls-1" d="M1756.29,818.25a140.43,140.43,0,0,0-11.92,15.21c-8.39,12.93-17.43,16.56-32.13,15.19-14.44-1.35-25.55-9.7-37.9-15.44-4.41-2.06-6.55-6.89-6.66-12-.12-5.29,5.07-4.68,8-6.43,5.94-3.53,12.47-4.63,19.43-5.09,15.09-1,30.89,2.42,44.43-8.92,5.53-4.62,7.77-7.34,1.7-12-15.46-11.92-24.34-27.74-29.35-46.34-1.17-4.37-1.33-11.15-8-11.52-6-.33-8.07,5.52-11.06,9.43-2.82,3.7-3.36,8.17-2.3,12.65.73,3.12.17,5.76-.83,8.81-6.28,19.22-18.26,32-38.61,36.26-2.58.53-4.91,2.27-7.32,3.53-28.14,14.73-58,26.48-81.83,48.64-8.24,7.64-20.45,8.77-30.37,13.94-17.47,9.11-34.8,18.47-55.6,17-3.5-.25-7.18,1.68-10.74,2.7-7.29,2.09-5.52,4.73-.75,8.25a105.23,105.23,0,0,1,26.76,29c4.16,6.64,10,12.21,16,19.25,1.69-4.54,3-7.27,3.74-10.15,2.52-9.88,7.26-17,18.52-18.5a21.46,21.46,0,0,0,13-7.41c9.94-11.2,21.68-19.18,37-21.61,7.08-1.12,13.77-3.68,15.17-12.63.82-5.25,6.13-7.42,10.09-6.84,11.42,1.68,14.13-4.68,16.88-13.81,2.8-9.29,12.13-7.16,19.14-6.82,6.41.31,10.3,5.32,10.75,11.61.8,11.29-10.81,26.6-22.06,29.67-12.56,3.42-24.07,5.11-32.65,19.11-8,13.13-23.75,21.78-39.37,27.62s-26,17.19-31.26,33.16c-1.33,4.05-1.95,8.32.26,11.88,7.42,11.93,8.84,25.44,11,38.8.52,3.27,1.05,6.54,4.42,9.54,5.87-8.32,9.27-17.28,12.06-26.57,4.67-15.51,15-22.61,30.52-22.86,6.33-.11,8.21,5.46,12.84,7.09,1.8.63,3.84,2.35,5.35-.09,1-1.66,2-3.82,1.82-5.65-.3-3.19-2.87-1.64-4.73-1.52-4.82.31-9.52-1-10.24-6.12s3.93-7.21,8-9.21,9.48-1,12.39-5.89c7-11.73,18.33-19.9,29.12-26.38,23-13.81,32.07-34.61,36.85-58.81.73-3.67,1.42-6,5.27-7.56,17.28-6.82,24.26-8.61,35.22,6.16a10.17,10.17,0,0,0,9.57,4.53,369.37,369.37,0,0,1,55.61.51c-11.66-16.59-16.64-34.13-18-53C1763,812.69,1758.5,815.7,1756.29,818.25Z"/><path class="cls-1" d="M1288.88,634c-3.94-5-1.3-8.08,2.88-10.7,3.34-2.09,5.29-5.22,6.83-8.66,8-17.74,14.62-36.09,25.55-52.41,1.64-2.46,1.92-5.78,3.16-8.55,10.56-23.51,20.58-47.37,34.79-69,11.63-17.66,20.12-19.32,39.32-10.24,3.06,1.44,6.1,2.93,9.22,4.23,1.95.81,4.2,3.52,6,.29,1.2-2.13-1-3.47-2.29-5.07-9.56-12.15-26.22-13.89-36.55-24.93-.6-.65-2.59-.17-3.9,0-26.55,4.29-46.81-8.31-63.64-26.2-6.77-7.2-14-8.64-22.27-10.4,8,6.69,12.82,14.13,12.14,24.67-.19,2.86,1.38,5.91,2.44,8.76,4.1,11.07,4,22.67,1.08,33.52-7,26.37-17.09,51.83-23,78.52-4.7,21.08-15,39.73-24.43,58.91-10.94,22.18-21.56,44.49-33.39,66.21-3.26,6-8.71,11.35-14.65,11.28-5.09-.05-8.92-6.73-11.48-12-6.77-14-4.91-28.2-1.65-42.74,3-13.23,9.55-21.78,23.85-21,12.64.67,13.38-9.16,16.53-17,3.4-8.42-4.58-10.36-8.8-13.85-12.68-10.47-13.22-10.7-26.21.3-18.73,15.85-35.48,33.09-36.43,60.07-.37,10.46.64,19.83,6.82,28.94,5.65,8.33,10.53,18,9.31,28.43-.6,5.24-.09,5.85,4.84,6.18,15.89,1.05,31.8,2.3,47.59,4.35,11.23,1.45,19.48-2.19,27-10.34,17.9-19.33,20.12-45.47,30.36-68.1C1290.34,636.71,1289.62,635,1288.88,634Z"/><path class="cls-1" d="M451.25,872.56a123.74,123.74,0,0,1-31.59-25.46c-5.83-6.67-13.5-11.31-20.8-16.28a6.72,6.72,0,0,0-6.78-.47c-1.6.72-1.6,3-.95,3.42,5.38,3.5,1.11,8.31,2,12.23,4.46,19.53,2.77,40,9.34,59.2,1.94,5.68,2.5,12,2.87,18,.75,12.23-4.39,16.08-16,12.35-3.87-1.25-7.44-3-9.68-6.87-5.88-10.28-16.21-17.51-24.88-23.52C335.93,892.11,316.53,877,291,878.36c-1.18.06-2.46-1.05-3.65-1.69-6-3.2-12-6.3-17.85-9.65-20.87-11.93-40.47-26.26-63.83-33.43-5.53-1.7-9.34-5.44-12-10.38-7.45-13.72-20.87-23.55-24.54-42.15-14,23.19-23.16,45.37-33.2,67.11-1.74,3.77-6.88,7.62-2.08,12.62,4.31,4.47,9,6.1,15.53,4.06,8.41-2.63,17.91-4.77,25.54,1C192,878.86,211,887,231.71,891.8c7.94,1.86,15.12,5.68,22.21,9.88,30.05,17.81,59.6,36.5,91,52a118.68,118.68,0,0,1,29.44,19.92c4.49,4.24,7.53,8.6,6,15.15-1.38,5.85,1.64,9.63,7.23,13.08,2.91-7.22,5.36-13.87,8.23-20.33,15.06-33.89,26.16-70.17,57.58-94.15C460.46,881.92,458.7,876.89,451.25,872.56Z"/><path class="cls-1" d="M321.74,819a4.77,4.77,0,0,0,3.39-1.38c14.95-15.2,13.52-25.21-5-35.41a34.66,34.66,0,0,0-4.27-1.61c0,1.83-.53,3.49.08,4.33,7,9.57,9.53,19.63,4.28,30.9A2.18,2.18,0,0,0,321.74,819Z"/><path class="cls-1" d="M304.88,772.76c-8.74-7.1-16.93-10.52-25.12-13.88-1.94-.79-3.92-.12-5.18,2-4.68,7.87-9.55,15.62-14.08,23.56-.82,1.44-1.48,4.18,2.05,4.07C270.82,773,279.07,769.72,304.88,772.76Z"/><path class="cls-1" d="M1192.68,536.25c3,2.46,4.2-.76,4.79-2.88,2.46-8.85,5.81-17.51,4.48-27.05-4.39,7.58-8.9,15.09-13.12,22.75C1186.66,533,1190.65,534.6,1192.68,536.25Z"/><path class="cls-1" d="M1240.5,373.71c3.4,2,5.9-.21,7.4-3,2.15-4-1.76-4.67-3.92-5.27-6.38-1.76-12.55-4.75-20.76-4.23C1228.1,368.5,1234.87,370.33,1240.5,373.71Z"/><path class="cls-1" d="M1571.56,1799.49c-8.89,4.31-17.53-1.87-26.75-.43s-19,4.14-28.07,2.51c-19-3.44-38.1-.52-57.1-2-5.93-.44-14.11-5.36-19,3.29-4.79-5.36-11.34-4.7-17.15-3.79-15.51,2.43-30.76-1.34-46.15-1.07-2.44,0-5.73-.44-6.2,1.94a4.53,4.53,0,0,0,4.66,5.19c2,0,4.64.54,3.91,3.31-.82,3.15-4,2.72-5.88,1.61a85.43,85.43,0,0,1-13.38-9.14c-4.1-3.59-9-5.08-13-2.51-5.42,3.42-11,3.18-16.57,3.07-14.88-.31-29.66-1.45-44.64-.49-24.74,1.59-49.77-8.69-74.43,1.5-.44.18-1.24-.37-1.82-.69-16.54-9.31-33.45,2.64-50.16-.77-2.72-.56-5.87,1.46-8.86,1.61-26.41,1.26-52.82-2.5-79.25-.16a13.61,13.61,0,0,1-4.89-.92c-11.11-3.42-23.89-2.93-33.61-1.15a83.82,83.82,0,0,1-27.46,0,124.25,124.25,0,0,0-56.66,4c-2.89.89-5.1,1.82-7.33-2.32-3.68-6.84-10.19-7.26-16.63-3.69-5.34,3-11.3,4.24-16.7,2.8s-10.5-.85-15.76-1.17c-10.49-.66-21.34,1.63-31.14-.32s-18.9.82-28.17-1c-1.72-.35-3.57,0-3.71,2.24-.08,1.24.08,2.89.83,3.7,1.47,1.57,6.85.55,4,4.76-2.12,3.1-5.72.89-8.24-.69-3.72-2.35-7.56-4.75-10.62-7.84-4.06-4.1-8.71-4.35-13-2.17-7.78,3.92-16,3.67-23.92,2.73-11.27-1.36-22.32-1.11-33.6-.55-26.19,1.32-52.6-3.21-78.47-1.44-26.41,1.8-53.33-1.1-79.39,5.83-3.79,1-8.77,3.42-11.36-.74-6.89-11.07-18.51,1.16-25.9-5.92-8.09,8.18-18.53,3.05-26.11,1.56-17.65-3.46-33.92-.81-50.54,3.44-2.41.61-5.49,3.46-7.18-.06-4.94-10.3-11.87-7.11-19.46-3.89-3.32,1.41-7.57,2.42-10.93,1.63-13.59-3.18-27.57-2.84-40.92-1.57-13.18,1.27-28.26-2.38-41.52,12.13,2.45-11.14-.32-14.5-8.34-12.61-3.25.76-6.65.91-10,1.43-13.34,2.12-26.85,2.85-40.05.47-8.72-1.57-17-3-25.72-.64a10.09,10.09,0,0,1-7.91-.71c-2.58-1.46-6.37-5.2-6.89.9-.38,4.51-3.63,11.58,4.58,13.2a88.67,88.67,0,0,0,16.14,1.24c19.8.22,39.64,1,59.39.07,15.24-.75,30.28,1.39,45.54.93,18.55-.57,37-3.94,55.84-1.67,16.28,2,33.28,2.92,49.35.39,21.39-3.37,42.64-1,63.5.09,29,1.57,57.83-.28,86.66-.22,24.6,0,49.31.92,73.9,1,44.79.08,89.65-2.26,134.51.86,22.71,1.57,45.58-3.33,68.6-1.49,16.39,1.3,33.24,2.48,49.36.13,22.94-3.34,45.58-.11,68.27,0,43.06.25,86.16,1.3,129.17,0,21.81-.68,43.41,2.48,65.21.79,10.32-.8,21,2.46,30.5-4.26a2.35,2.35,0,0,1,3.39,1.25c1.9,4.57,5.68,2.64,8.81,2.61,38.06-.34,76.21-1.73,114.16-.94,32.73.68,65.45-1.26,98.16.46,16.24.85,32.57.3,48.85.5,17.24.21,34.69,1.69,51.67.52,22.95-1.58,45.87-1.31,68.73-1.53,21.89-.22,43.84,2.35,65.81.84,6.74-.47,8.94-3.15,6.87-10.62-2.49-9-7.66-1.9-11.26-2.79-14.46-3.58-29.54-3.44-44.16-2.76-15.5.71-31.38,4.55-46.49,1.93C1603.24,1798.34,1586.79,1814.68,1571.56,1799.49Z"/><path class="cls-1" d="M1609.52,1565.9c-13.79.61-27.68-1.33-41.56.2-3.6.4-7.93,2.75-10.84.33-7.21-6-15.54-4.57-23.35-4-40.3,3.09-80.46,6.3-121,3.23-22.49-1.69-45.21,4.36-68,.9-5.21-.79-12.73,3-14.92,1.76-8.07-4.54-11.07-2.81-15,4.81-1.32,2.57-9.83,4.5-12.11-.51-4.15-9.11-3.85-9.89-12.67-6.3-2.7,1.09-4.93,1.51-7.74.53-7.16-2.51-14.53.27-22.13-.68-15-1.85-30.64,4.51-45.63-2.83a5.39,5.39,0,0,0-4.76.32c-5.1,4.31-11.37,3.8-16.56,2.4-14-3.79-28.7-2.12-42.38-2.24-19.28-.17-38.91-.38-58.35.67-4.72.26-9.56,2.19-14.07,1.52-17.43-2.61-34.44-2.86-51.17,3.92-4.31,1.75-9.69,1.82-13.81-1.11-8.75-6.21-17.44-2.84-26.18-.55-2.74.72-4.87,3.41-8.31.74-5.64-4.37-12.65-4.21-19.44-4.76-18.87-1.54-37.29,3.47-56.48,1.92-34.38-2.76-69.06,3.41-103.54-.24-6.3-.66-11.91,5-17,1.63-6.19-4.11-8.71-3.34-10.91,3.47-1.49,4.61-6.14,3.28-9.71,3.48-1.72.1-3.42-.34-4-2.37-2.56-9.2-3.14-8.84-12.68-6.79-7.6,1.65-16.33,3.34-23.37,1.17-13.89-4.3-28.34-3.56-41.31-1.76-24.59,3.42-48.82-.09-73.18,1-14.86.63-29.78-.78-44.74.68-12.58,1.23-25.61,8.8-38-1.15-.85-.68-2.76-.54-4-.17a56.16,56.16,0,0,1-34.45-.19c-8.45-2.61-17.92.34-27,1.12-19,1.63-38.3,1-57.44.33-8.87-.33-17-1.6-24,6-2.06,2.22-8.33,5.69-9.41-.91-1.61-9.86-8.56-8.16-13.76-6.8-5.73,1.49-11.5.82-17,2.12-10.45,2.48-20.33-2-30.74-1.43-16.22.85-30.89,7.37-46.49,10.2-10,1.82-16.62-3-14.13-12-4.42,4.26-9.34,2.38-13.91,3-6.52.84-12.88,4.46-12.57,11,.32,6.77,7.19.83,10.81,2.49,1.45.66,3.35.32,5,.46,20.26,1.7,40.58.14,60.89.85,15.95.56,32.25-.67,48.39-.76,33.7-.21,67.39,2.21,101.11.72,15.51-.69,31.18-2.73,46.51-1.3,29.61,2.77,59.1-.08,88.62.36,25.62.39,51.24-1.07,76.87.42,8.4.48,16.74,1.63,25.34.91,16.72-1.4,33.71-3,50.27-1.39,10.72,1.06,21.13-1.53,31.84.38,7.13,1.27,14.89,3.12,22,2.14,32.69-4.51,65.43,1,98.21-1.54,15.9-1.25,32.33,1.15,48.54-.35,31.75-2.93,63.46,3.25,95.4-.24,13.86-1.52,28.14-2.76,42.5-2.08,24.75,1.18,49.72,4.42,74.4-1.37a5.91,5.91,0,0,1,3-.11c16.68,5.54,34,2.92,50.88,2.78,18.49-.17,37.11-1.49,55.47,0,18.11,1.5,36.16-1.13,54.17,1.12,19.49,2.45,39.09-1.43,58.56.56,28.84,2.94,57.49-2.67,86.41-1.32,14.42.68,29.47-.22,44.15-.64,16.54-.48,31.92-3.1,46.94-9.38,1.75-.73,3.63-2.83,5-.11a3.18,3.18,0,0,1-1.44,4.36c-2,1-3.31,2.3-2.75,4.75a190.08,190.08,0,0,0,38.67,1.65c14.82-.78,29.74.51,44.55-.29,28-1.51,56,4.05,84-.42,3.73-.59,8.48,2.34,8.46-4.66,0-5.26.19-11.75-7-10.86-11.07,1.37-22.18-2-32.84,0C1658.3,1569.33,1633.91,1564.84,1609.52,1565.9Z"/><path class="cls-1" d="M458.74,1721.26c-7.38-.93-12.65,2.87-19.5,6.53,6,4.94,12.43,5.23,18.18,4,11-2.28,14.37,3.27,13.56,12.32-.67,7.48,5.82,15.4-1,22.33-2.71,2.74-4.39,5.72-2.23,8.88a8.2,8.2,0,0,0,9.08,3.19c17.4-5.12,35.75,4.59,53.05-3.53,2.54-1.2,7.7,2.09,8.77-2,1.19-4.59-.83-9.27-5.3-12.25-2.12-1.41-5.94-1.7-5.54-5.15.92-8-2.07-15.1-3.7-22.65-4.44-20.56-6.87-41.56-13-61.76-3.75-12.36-7.39-24.67-5.88-37.79.42-3.65-1-6.57-3-9.39-3.9-5.45-5.93-11.4-4.66-18.19.92-4.94-.23-6.45-5.89-5.43-11.94,2.15-23.68,5.56-36,5.64-5.63,0-7.31,4.23-8.55,10.19-2.87,13.68,6.33,24.4,6.92,37.45.91,20,5.83,39.93,9.18,59.86C463.82,1717.58,464.33,1722,458.74,1721.26Zm36.16-65.93c4-1.27,6.31,1.44,6.66,4.16.47,3.71-3.34,2.18-5.26,2.28-4.64.27-9.39.54-14.34-2.68C486.67,1657.73,490.82,1656.64,494.9,1655.33Z"/><path class="cls-1" d="M308.88,1694.48c8.53-1.42,10.25,2.65,7.72,9.68-2.39,6.63,1.17,8.68,6.63,9.47,2.7.39,5.45.43,11.3.85-6.58,2.33-9.56,4.27-9,8.92.33,2.71-1,4.86-4.06,4.52-5.32-.6-5.21,3.43-5.54,6.53a144.08,144.08,0,0,0-.83,17.25c.15,7.89.35,7.84-6.53,11.57a3.64,3.64,0,0,0-1.44,2.48c-.38,2.93-3.5,5.39-1.71,8.63,2.06,3.71,5.68,3.17,9.05,2.86,18.7-1.72,37.19-7.62,56.22-2.33,3.71,1,5.93-1.73,6.23-5.05.32-3.62-2.38-3.25-4.89-2.59-2.89.75-3.5-1.13-3.55-3.37-.51-23.05-2.3-46.18-1.05-69.14.91-16.84.12-33.65.67-50.45.41-12.28-4.88-24.87,9-33.45,2.84-1.76,2.71-6.35,1-9.46-1.82-3.26-4.95-.92-7.38-.5a73.32,73.32,0,0,1-23,.81c-7.92-1.07-16-1.38-24-2.71-7.43-1.23-15.13-.19-21.18,3.74,4.63,5.17,9,9.86,13.14,14.78,1.88,2.25,4.12,4.63,2.43,8.15-7.15,14.89-2.1,28.81,3.7,42.55,1.83,4.34,2.12,8-1.31,11.78-1.91-3.25-1.6-7.15-5.7-9.45-1.36,7.35-7.52,6.82-12.75,7.9-3.85.8-7.31,1.73-7.12,6.85s2.81,8.2,7.86,9A19.19,19.19,0,0,0,308.88,1694.48Zm16.62-42.89c1.51-1.7,2.95-.64,4,.72,3.66,4.58,1.14,7.84-3,11.47C324.19,1659.53,321.83,1655.7,325.5,1651.59Z"/><path class="cls-1" d="M1184.59,1759.22c-.55,2.27-.36,5.18-3.69,5.11-4-.1-7.06,1-6.33,5.58.64,4,3.42,6.18,7.69,6.7a48.09,48.09,0,0,0,13.06-.47c13.18-1.91,26.38-2.6,39.38,2.11,3.93,1.42,8.77,4.18,12.38-1.91,3.18-5.35,4-10.11-.74-14.66-2.74-2.65-5.42-5-4.7-9.42,1.57-9.66-1.36-18.8-3.59-28-1.52-6.3-1-12.19.48-18.74,3.43-15.39,3.39-31.32-1.29-46.51-4.4-14.32.89-39.65,11.79-47.07,3.2-2.18,1.87-3.4,1.09-5.59-3.45-9.66-11.33-4.81-17.69-6-17.62-3.24-33.68,4.21-50.51,6.14-6.76.77-7.51,4.41-2.54,9.44,4.17,4.21,9.41,7.89,8.47,15.29-2.64,20.85-2,41.8-1.74,62.76.13,8.8,2.83,13.65,11.62,13.86-4.49,6.9-9,13.67-9.29,22.18A143.28,143.28,0,0,1,1184.59,1759.22Zm47.44-43a5.31,5.31,0,0,1,1.06,3.52c0,2.67-2.1,2.9-4.13,3.33-7.49,1.61-14.36-3-23.4-1.33C1210.11,1716.27,1228.66,1713.11,1232,1716.27Z"/><path class="cls-1" d="M777,1601.59c-8.41,4.06-16.56,5.45-25.44,1.88-2.36-1-4.51,1.15-6.37,2.55-5.1,3.86-9.08,9.23-15.55,11.2-3.21,1-2.36,3.61-2.3,5.91.49,18,3.56,36.14-3.43,53.78-.53,1.33-2.24,10.16,5.53,6.57,10.88-5,22.33-9,31.71-16.94,2-1.68,4.73-2.61,7.27-3.43,1.77-.57,4.4-1.32,5.08,1.34a5.11,5.11,0,0,1-1.76,4.38c-8.6,5.46-16.84,12.48-26.29,15.27-6.59,2-10.61,6.67-16.48,9-9.45,3.78-1.06,11-2.05,16.61-.52,3-.41,6.06-.65,9.09-.84,10.81-3,22.07,2.83,31.89,4.76,8.06,2.39,11.7-5.21,14.89-2.93,1.23-8.18,2-6,7.5,1.7,4.24,5.19,6.25,9.76,5.7,6.42-.78,12.82-1.21,19.23-.26,8.93,1.52,17.56-.41,26.2-2.19,4.57-.94,5.87-2.48,6.78-8.3,2.58-16.6-5.12-32.57-1.34-48.86,2.27-9.77-2.63-19.85-1.28-28.34,3-19-2.25-37.77,1.22-56.54,1.7-9.16-1.88-18.86,2.19-28.07C781.83,1603.66,780.83,1599.75,777,1601.59Z"/><path class="cls-1" d="M1325,1602.2c-2.32-2.45-4.34,0-6.33.85-5.41,2.42-11.16,4.12-16.73,1.79-6.57-2.73-10.51.54-15.51,3.91-10.22,6.9-18.52,14-12.57,27.92.32.75-.67,2-.56,2.94,1.57,13.65-2,26.82-3.9,40.13-.59,4-.18,6.66,4.32,4.33,10.64-5.49,22.15-9.36,31.62-17.09,2.27-1.86,5.38-2.75,8.18-3.89,1.6-.65,3.73-.87,4.64.74,1.13,2,0,4.2-1.75,5.3-8.42,5.29-16.42,12.44-25.64,14.84-7.09,1.85-11.53,6.57-17.45,9.37-9,4.24-.13,11.92-1.52,18-.76,3.26-.7,6.72-1,10.09-.81,9.83-2.27,20,3,28.88,4.88,8.19,3,12.36-5.56,15.34-2.67.93-7.28,1.9-5.58,6.89,1.49,4.35,4.75,7.16,9.28,6.13,8.52-1.94,16.88.09,26.29.13,7,.93,14.44-1.6,22-3.3,2.34-.52,5.55-1,4.45-4.12-2.08-5.86-.13-11.62.51-17.06,1-8.56-4.4-15.68-3.8-23.46,1-12.54,6.75-24.89-.11-37.52-.89-1.63.11-4.75,1-6.83,3.11-7,2.42-13.66-.08-20.58-1-2.79-2.22-6.42-1.26-8.83,4.89-12.29,1.28-24.91,2.18-37.32.29-4-.69-8.12,1.65-11.9C1325.91,1606.15,1326.59,1604,1325,1602.2Z"/><path class="cls-1" d="M1637.2,1623.78l.17,0a1.34,1.34,0,0,1,0-.2Z"/><path class="cls-1" d="M1616.45,1708.64c2.55-15.61,6.64-31.48-.43-47.11-1.39-3.07-.13-6,.55-8.92,2.69-11.86,3.33-23.8,1.63-39.61-8.52,16.21-21.13,14.46-33.26,14.26-4.42-.08-8.85.15-13.25-.11s-5.94,1.22-5.54,5.86c2.41,27.64-2.76,55.14-1.79,82.78.15,4.43.63,8.37,3,12.45,6.37,11,2.37,27.16-8,34.31-4.48,3.1-8.5,6.91-6,12.52,2.43,5.37,8.06,3.88,12.73,3.25,11.68-1.59,23.13-4.18,35.22-1.55,6.42,1.39,13.54.1,20.26-.66,5.9-.66,7.48-5,4.8-9.67C1616,1748.33,1613.09,1729.23,1616.45,1708.64Z"/><path class="cls-1" d="M552.13,1774.6c1.89,5.91,7.71,4.53,12.21,3.8,12.35-2,24.49-4.07,37.17-1.48,6.13,1.25,12.88.25,19.23-.63,6.17-.85,8.17-5,4.55-10.28-10.26-14.8-15-33-11-48.55,7.6-29.7-1.93-59.15,3.54-88.33.72-3.87.1-8,.1-12l-2.13-1.62c-7,12.2-18.1,12.22-29.53,11.66-5.41-.27-10.85.14-16.27,0-4-.13-5,1-4.8,5.27,1.43,27.64-1.43,55.15-2.86,82.71-.24,4.5-.44,8.68,3.43,13,7.59,8.5,3.29,27.81-7,34.2C553.91,1765.33,550.36,1769.09,552.13,1774.6Z"/><path class="cls-1" d="M1338.21,1760.78c-6.85,1-5.25,6.79-4.45,11.37.72,4.13,3.54,5.16,7.57,4.58,16.51-2.4,30.5-10.72,39.75-23.51,22.05-30.48,25.09-64.7,14.78-100.43a1.52,1.52,0,0,1-1.35-.89h0l-1.49-1.65a2.57,2.57,0,0,0,0,.77,2.57,2.57,0,0,1,0-.77c-3.6-8.68-6.51-17.71-12.3-25.31-2.19-2.87-3.87-6.59-8.55-5.86-6.59,2.68-.61-4.35-3.78-4.82-9.14-1.36-15.37-8.08-22.75-12.72-4.24-2.66-6.78,1.4-9.3,4-1.61,1.65-3.29,3.52-1,6.11,15.79,18,10,40.47,12.38,61.23-8.08,7.62-1.34,16.49-2,24.74-.11,1.23-.14,2.88,1.54,3.22,2,.41,3-.58,3.08-2.74.19-3.1.62-7.13,5.11-4.57,3.76,2.14,1.67,4.59,0,8.12-3.31,6.86-10.5,11.86-10.29,20.41.23,9.16.06,18.34.81,27.45C1346.4,1755.79,1345.7,1759.73,1338.21,1760.78Zm55-109.2a1.21,1.21,0,0,1-.13-.35A1.21,1.21,0,0,0,1393.2,1651.58Z"/><path class="cls-1" d="M836,1625.54c-.86-1.79-2.09-3.9-3.73-4.75-10.73-5.53-21.12-11.51-30.68-19-3.5-2.73-6.29-.08-8.76,2.48-1.84,1.92-5.25,4.49-2.63,6.62,9.26,7.47,7.29,19.07,11.47,28.32,4.9,10.88-4.35,22.86,2.65,33.57-10.7,6.85-2.16,16.35-3.31,24.51-.23,1.59-.09,3.56,2.35,3.58,1.76,0,1.95-1.22,2.08-2.71.26-3.1.74-7.16,5.11-4.84,3.4,1.8,2.42,4.34.3,8.16-3.79,6.86-11,12.24-10.44,21.38.49,8.13-.19,16.37.73,24.44.9,7.89-.3,13.05-9.43,14-4.54.47-6.47,4.06-4.49,8.15,1.74,3.57,2.56,8.62,9.06,7.45,19-3.41,33.64-13.61,44-29.34,11.81-18,17.55-38,15.19-61.17C861.1,1663.19,845.55,1645.29,836,1625.54Z"/><path class="cls-1" d="M1038.41,1700.81c2.71,1.83,2.47-1.39,3.62-2.73a54.37,54.37,0,0,1,31.06-18.5c3.21-.65,5.44.33,6,3.65.7,4-2.56,2.83-4.62,3.47-7.86,2.46-14.18,8.21-21.67,11.06-8.31,3.18-6.81,12.31-12,16.51-9.24,7.39-1.82,13.34.65,19.87,2.66,7,6.44,4.93,10.72,1.6.71-.55,3.38-.09,3.66.55,2.89,6.61,10.13,5.78,15.87,8.94-5.17,4.08-10.48,2.06-15.32,2.73-2.33.32-5.79-1.67-6.54,2.58-.58,3.28.77,5.42,3.44,7.69,12.31,10.43,26,17.22,42.31,18.59,3.53.3,6-.41,6.86-4.17.54-2.43.64-4.6-2.24-5.91-9.69-4.43-12.53-14.14-10.74-22.27,3.21-14.64-.89-28.7-.86-43,0-13.14-5.52-26.18,1.68-39.22,1.8-3.25-.06-7.27-.47-11-1.32-11.81-2.63-23.71,8-32.73,4-3.44,4-8.28,3.57-13.16-.3-3.15-1-5.66-4.86-3.58-4.6,2.48-9.11,3.68-14.54,2.49-3.46-.76-8,2.24-6.91,5.45,2.06,5.8-2,5.43-4.69,6.44-11.44,4.33-18.15,15.08-23.44,23.85-3.58,5.92-4.32,15.59-9.92,21.67-7.68,8.34,1.8,20.37-6.9,28.1C1037.13,1690.36,1034.52,1698.18,1038.41,1700.81Zm36.41,42.51c-.15.42-1.08.55-1.69.83l-1.23-1.29c.49-.37.94-.95,1.48-1C1074.46,1741.61,1075.23,1742.18,1074.82,1743.32Z"/><path class="cls-1" d="M664.39,1695.89c-6-.43-3.48-3.81-3-8.94-3.73,3.21-5.59,5.13-7.76,6.61-5.9,4-10.59,2.4-13.44-3.68-1-2.19-3.69-4.17-6-5-2.85-1-3.92,2.1-5,4.07-2.7,5.13-4.14,10.11,2.6,13.61,4,2.07,5.48,5.91,6,10.11,1.24,11,1.35,22.07,2.44,33.1,2,19.94,8.65,30.18,28.54,34.15,14,2.8,35.48-10.7,38.13-24.24.64-3.27,1.47-7.26-4.81-5.46-13.1,3.76-15.68.9-12.79-13.35C694.21,1712.25,685.17,1697.39,664.39,1695.89Zm15.71,47.3c-7.37-.08-11.6,7.53-19.25,7.29-3.72-.12-6.08,3.73-8.29,8.63a22.91,22.91,0,0,1,28.09-22.94c1.83.43,3.27.9,3.19,3C683.76,1741.5,682.26,1743.21,680.1,1743.19Z"/><path class="cls-1" d="M635.72,1674c-1.89,6.33,1.15,9.66,8,9.08,6.06-.51,12.13-1.07,18.2-1.13,8.78-.07,21.78-8.59,24.57-16.52,8.31-23.66.1-45.48-21.67-58.63-4.63-2.79-9.27-3.58-13.21-.47-4.49,3.55-8.82,2.66-13.68.81-.3,6.83,7.12,12.8-.15,18.51-.3.35-.62.7-.95,1C635.33,1642.41,640.42,1658.25,635.72,1674Z"/><path class="cls-1" d="M867.79,1681.93c1.69.08,3.48,0,5.34,0C871.26,1681.87,869.47,1681.89,867.79,1681.93Z"/><path class="cls-1" d="M952.46,1664.19c-3.72.36-6.29-1.79-9.1-3.58-7.57-4.81-15.55-2-20.91,5.25-2.69,3.63-1.31,10.32-8.5,11-14.76,1.45-29.33,4.53-40.82,5,10.74.17,24.35,2,36.67,10.3,5,3.4,10.29,2.81,14.37-2.41,4.67-6,14.48-1.92,15-1,5.64,9.8,14.39,7,20.3,3.63,6.67-3.86,15.36,1.46,21.27-6.07-3.84-1.52-7.33-4.34-9.88-3.65-9.07,2.43-9,2.88-7.33-6.87C965,1667.1,961.41,1663.33,952.46,1664.19Z"/><path class="cls-1" d="M1153.49,1604.9c-4.07-1.93-3.69,2.9-5.78,4.11-4.61,2.68-9.08,4.54-14.17,1-3.07-2.11-6.16-4.64-9.62-5.61-6.41-1.79-10.39,3.55-14.11,7.21-2.12,2.09,1.73,4.37,4,5.83,12.48,8.17,22.52,18.25,26.09,33.4,1.08,4.62,2.1,9.28,3.6,13.77,1.55,4.65,5.33,8.62,9.92,7.83,5.22-.89,6.33-5.48,5.38-11.16-2.45-14.69.83-29.8-2.94-42.37.41-3.14.62-4.14.66-5.15C1156.63,1610.45,1157.4,1606.76,1153.49,1604.9Z"/><path class="cls-1" d="M1538.84,1729.68c-1.41-6-3.47-8.69-8.82-2.47-3.41,4-5.29,8.53-7.78,12.9-4.54,7.94-5.81,19.11-19,19.32-2.19,0-5.43,2.62-8.41,3.82-4.41,1.77-4.44,7.5-3.86,11.52.52,3.59,4.58,1.62,6.83,1.14a62.8,62.8,0,0,1,31.14,1.25c6.09,1.77,9.15-.34,9.66-6.44.81-9.71-1.52-19.7,2.74-28.5C1540.47,1737.63,1539.77,1733.62,1538.84,1729.68Z"/><path class="cls-1" d="M435.55,1653.39c-2.53,13-5.71,25.89-8.35,38.87-2,10-6.81,19.26-7.41,29.69-.2,3.5-2.35,7-4.05,10.29-3,5.71-6.16,11.3-9.45,16.82-1.77,3-2,5.29,1.94,5.87,6,.87,20.37-10.19,21.13-16.61,3.13-26.57,9.52-52.45,15.94-78.35,1.75-7.08-.91-14.22-2.51-21.47C439.92,1643.4,436.65,1647.71,435.55,1653.39Z"/><path class="cls-1" d="M1512.78,1657.34c-.29-2.3-.09-5.43-2.86-6-4.1-.78-3.25,3.41-4.36,5.53-5,9.38-2,22.43-13.83,28.82-2.39,1.29-3.13,6.1-1.39,8.42,6.31,8.43,9.17,18.81,16.08,26.91,5.13,6,8.18,3.34,11.52-1.44,2-2.8.94-5.89,1.35-10.77C1517.28,1692.92,1515.06,1675.12,1512.78,1657.34Z"/><path class="cls-1" d="M577.63,1620.62c13.2,3.52,23-4.22,33.5-9.3,3.79-1.83,7.06-4.85,4.31-9.7s-7.06-5.06-11.32-2.35c-4.47,2.85-9.54,3.17-14.37,4.59-10.66,3.12-20.88-1.09-31.31-.93-2.17,0-5-.75-6.06,2.26-1,2.79,1.23,4.11,2.53,6C560.5,1619.6,567.55,1624.09,577.63,1620.62Z"/><path class="cls-1" d="M392.52,1771.09c.51,3.49,1.34,8.51,4.77,7.92,12.92-2.23,25.59,3,38.29.48,4.53-.9,6-5.19,6.55-9.41.55-4-2.16-5.1-5.37-6-5.32-1.53-9.05-5.33-12.58-11.27-2.38,7.77-7,9.52-13.39,9.65-4.62.1-9.21,2-13.79,3.16C394.21,1766.31,392,1767.38,392.52,1771.09Z"/><path class="cls-1" d="M1108.79,1778.09c2.68,3.83,7,4,9.35.84,5.11-6.63,13.12-8.2,19.27-12.72,10.34-7.61,20.25-16.08,20.74-30.53-.57-2.62,1.46-6.24-1.59-7.46-3.71-1.48-5.23,2.54-6.77,4.81-10.17,15-20.9,29.1-39.12,35.2C1105.15,1770.09,1106.15,1774.3,1108.79,1778.09Z"/><path class="cls-1" d="M193.71,1585.76c-4.22,0-3.34,5.17-3.92,8.15-3.24,16.67-3.14,16.7,14.35,17.19,2.62.07,5.25,0,8.05,0-2.34-5.89-7.09-10.66-7.78-17.84C204,1589.14,198.33,1585.71,193.71,1585.76Z"/><path class="cls-1" d="M815.28,1850.45c-14.67,3.49-29.55,1.16-45.79,2.22,5.16,3.54,9.89,4.54,14,6.1,10.89,4.12,22.4,1.38,33.53-.48,2.2-.37,6.59-2.12,5.33-6.08C821.33,1849,817.52,1849.92,815.28,1850.45Z"/><path class="cls-1" d="M233.13,1800.5c-1.48-3-7-3.06-7.06.19-.14,5.28-5.73,8.08-4.55,13.31,3.5.52,7.26-1.88,10.54,1,5.64.31,13.7,5.64,16.13-2.17C252.18,1800,236.44,1807.32,233.13,1800.5Z"/><path class="cls-1" d="M1046.54,1523.74c5-.73,9.93-.67,14.83,1.3,3.07,1.24,6.24.78,6.56-3.54.23-3.21,1.11-7-3.87-7.79-4.27-.71-8.51-1.6-12.76-2.41-3.29-.18-6,1.23-8.5,3-2.94,2-5.11,5-3.92,8.47C1040.41,1527.19,1043.84,1524.13,1046.54,1523.74Z"/><path class="cls-1" d="M199.15,1706.15c-1.76-1.56-4.58-3.9-5.86-1.35-4.75,9.46-12,6.6-19,4.49-5.87-1.78-11.51-3.84-17.49-.72-.43.86-3.25.71-1.46,2.29,1.43,1.28,3-.07,4-1.57,4.51,4.38,9.92,8.91,16.09,6.48,11.66-4.59,23.6-1.38,35.5-3.48C205.47,1713,202.54,1709.16,199.15,1706.15Z"/><path class="cls-1" d="M1553.5,1610.46c2.44,2.13,7.44,1.13,7.23,6.66-.15,3.83,3.64,3.41,6.11,3.66,16.12,1.63,31.62.28,45.53-9.29,3.69-2.54,6.87-5.18,4.52-9.78-2.43-4.78-6.83-5.28-11.29-2.76-3.59,2-7.52,2.89-11.26,4.33-13.85,5.36-27.41-1.69-41.09-.29-10.4-7.91-16.43-8.12-27.78-.94-3.62.29-7.44,0-10.84,1-9.1,2.81-16.65-7.25-25.78-2.72-6.14-2.25-12.47-1.06-18.63-.51-3.25.29-8.43-2.86-9.76,3.47-15-5.06-29.14-.53-43.25,4.14-2.33,5,2.15,7,4.4,10,3.71,4.94,9.47,9,7.18,16.54l-.48,3a1.05,1.05,0,0,1-.38,1.3c1.6,19.83-1.24,39.74,1.21,59.56a85.64,85.64,0,0,1,.25,16.25c-.58,8.34-1.31,16.33.51,24.91a29.29,29.29,0,0,1-5,22.39c-2.87,3.78-7.87,5.63-4.56,11.1s8.62,6.22,14.23,3.68c6.47-2.93,12-3.55,18.76.9,7.62,5,16.89,2.09,24.39-1.43,5.78-2.7,2.53-9.9,2.55-15,.08-22.46-5-45.28,4.45-67,3.12-7.18.22-13.12-2.25-19.38-1.12-2.83-3-5.71-5.75-2.85-5.27,5.56-13.08,6.11-18.77,11.18-9.31,8.3-13.12,7.13-17.69-2.91,9.22-2,17-7.43,25.67-10.91,14.91-6,16.44-11.19,14.88-27.14-.43-4.35-1.55-9,.65-13,4.18-7.56,3.19-14.9.27-22.39l6.94.47c1.56,5.1-.29,13.78,7.69,13.13,7.24-.58,9.84,4,14.42,6.92,7.39,4.76,6.75,13.59,11.35,19.56,2.19,2.85,2.68,8.84,8.53,6.46,5.29-2.15,8.71-5.44,7.9-12.39-1.22-10.37-2.21-20.88-.3-31.34C1543.34,1609.15,1548.24,1611.76,1553.5,1610.46Z"/><path class="cls-1" d="M596.73,1550.71c2.78-1.52,8.4,2.23,8.15-4.21-.2-5.07-2.7-11.41-7.84-11.34s-8.86,7.16-9.53,11.43C586.54,1552.82,593.58,1548.57,596.73,1550.71Z"/><path class="cls-1" d="M1549.23,1842.46c-4.86-.24-11.68-1.42-12.59,4.85-.79,5.45,5.65,3.88,9.11,4.54,5.82,1.33,10-.86,10.31-6.57C1556.35,1840.58,1551.66,1842.58,1549.23,1842.46Z"/><path class="cls-1" d="M715.6,1608.25c-1,1.64,2,5.07,3.92,5.15,7.39.31,10.51-5.21,14.39-12.19C725.54,1601.31,719.22,1602.16,715.6,1608.25Z"/><path class="cls-1" d="M1272.88,1601.21c-4.58,1.69-10.85,1.53-12.32,7.3-.59,2.31,2.63,6.07,6,5.15,5-1.38,8.36-5.43,10.93-9.72C1277,1600.91,1274.86,1600.49,1272.88,1601.21Z"/><path class="cls-1" d="M1637.2,1623.78l.18-.17-.12-.12C1637.24,1623.58,1637.23,1623.68,1637.2,1623.78Z"/><path class="cls-1" d="M1636.43,1610.94c1.56-3.14,1.1-6-1.56-8.17-2.39-1.94-3.57.47-4.7,1.92-2.26,2.94-5,6-1.5,9.78,2.8,3.06,5.72,6,8.59,9C1638.09,1619.24,1634.3,1615.25,1636.43,1610.94Z"/><path class="cls-1" d="M632.82,1602.14c-2.09-.83-3.19,2-4.62,3.23-2.87,2.53-3.6,5.56-.94,8.7s5.55,6.21,8.34,9.31c0-4.51,0-9,.16-13.52C635.88,1606.78,636.1,1603.45,632.82,1602.14Z"/><path class="cls-1" d="M1441.14,1831.16c-2.77,1.15-6.49,1.84-5.13,5.9,1.66,5,5.74,2.32,8.39,1.31,3.59-1.37,5.75-5.34,9.74-6.78C1449.59,1829.92,1445.37,1829.42,1441.14,1831.16Z"/><path class="cls-1" d="M654.62,1601.11c3.45.57,7.26.25,6.83-4.66-.31-3.53-3.65-5-6.6-4.65-3.82.45-6.42,3.26-7.89,7.06C648.47,1603,652.06,1600.69,654.62,1601.11Z"/><path class="cls-1" d="M199.5,1517.66c-2,0-4.36.25-4.08,3.1.25,2.67,2.67,2.61,4.62,2.77,6,.51,11.38-1.21,19.38-4.35C211.12,1516.64,205.25,1517.67,199.5,1517.66Z"/><path class="cls-1" d="M1523.32,1555.86l-14.45-6.67C1513.44,1561.87,1515.08,1562.49,1523.32,1555.86Z"/><path class="cls-1" d="M172.87,1584.49c-6.54,1.74-11.17-.87-15.34,2.19-1,.7-.48,3,.91,3.29C163,1590.89,167.66,1591.63,172.87,1584.49Z"/><path class="cls-1" d="M784.27,1684.82c4.78-1.34,9.46,2.36,12.05-3,1.12-2.31-1.79-2.89-3.61-3.7C786.9,1675.55,786.2,1679.7,784.27,1684.82Z"/><path class="cls-1" d="M1723.57,1836.42a7.83,7.83,0,0,0,3.4-7.83c3.74-2.66,7.18-6.67,12.14-1.67,2.15,2.18,4.91,4.13,7.66.62,1.91-2.44,2-5.13-.55-7.16-2.71-2.17-6-5.9-9.32-2.83-3.09,2.81-7.06,3.85-10,6.63C1716.39,1825.63,1717.78,1830.32,1723.57,1836.42Z"/><path class="cls-1" d="M358.76,1508.49c.66,0,1.33-.06,2-.1A11.2,11.2,0,0,0,358.76,1508.49Z"/><path class="cls-1" d="M376.9,1512.4c11.06,4.22,22.06.16,33.15-.28-10.65-5.38-22.62,1.41-33.25-3.71-5.33-1.65-10.65-.41-16.05,0C366.43,1508.57,371.13,1512.92,376.9,1512.4Z"/><path class="cls-1" d="M637.81,1625.63c-.28-1.08-.63-2.08-2-1.89q.49,1.47,1,2.94C637.19,1626.33,637.51,1626,637.81,1625.63Z"/><path class="cls-1" d="M635.84,1623.74l-.06-.16h0l-.18-.2c0,.13,0,.26,0,.39Z"/><path class="cls-1" d="M1390.45,1619.58l0,0c.14-.3.29-.59.43-.88Z"/><path class="cls-1" d="M1335.6,930.54l47.65,32.12C1376.29,939.18,1359.25,930.46,1335.6,930.54Z"/><path class="cls-1" d="M1234.35,844.54c5.26,1,10.32,3,15.58,4,2.62.49,6.71,4.45,8-.81.93-3.89-.86-9-5.46-9.52-9.37-1.1-18.47-4.8-28.29-3.69C1225.31,840.7,1228.79,843.47,1234.35,844.54Z"/><path class="cls-1" d="M514.26,1405.3c12-1.52,19.43,5.46,26.85,12.92.4-.3.78-.61,1.15-.93-.71-10.38-3.63-19.56-11.74-26.94-5.9-5.36-10.85-12.15-15.18.94-.43,1.32-1,2.42-2.77,2.11-3-.52-5.72-.47-4.42,3.93C509.18,1400.8,509.46,1405.9,514.26,1405.3Z"/><path class="cls-1" d="M472.32,1284c-3.11-.09-4.33,2.84-5.68,5.16s-3.17,5.2,0,7.12c6.82,4.07,11,10.79,18.25,15.33-2.79-7.48-5.52-15-8.41-22.45C475.7,1287,475.11,1284,472.32,1284Z"/><path class="cls-1" d="M543.12,1420.24c1.21-.73.24-2.16-.86-3-.37.32-.75.63-1.14.92C541.56,1419.17,541.55,1421.19,543.12,1420.24Z"/><path class="cls-1" d="M368.43,1221.84l.06-.06-.78-.46Z"/><path class="cls-1" d="M678.58,903.68c-3.2-3.88-6.56-7.6-8.61-12.29-.7-1.59-2.08-2.74-4-2.18-2.22.65-1.48,2.63-1.61,4.42,1.62,6,2.86,12.21,2.4,18.66-.12,1.78.23,3.62,2.3,3.73,4.63.27,8.49-1.69,11.64-5C684.16,907.48,680.26,905.71,678.58,903.68Z"/><path class="cls-1" d="M381.17,1129.75l.86.88c.09-.26.19-.52.29-.78l-.52-.69Z"/><path class="cls-1" d="M1329.36,1233.9c3.63-6.66,6.81-13.29,6.15-21.13-11.69-9.74-26.94-10.14-40.34-15.38-1.87-.73-3.79-1.33-5.68-2l-.93.19-.82-.49-4.29-1.78-.59.34-.61-.29c-6.83-1.76-13.79-3.14-20.45-5.38-7.69-2.58-8.76.74-8.26,7.34.4,5.41,4.44,6.67,8,7.76,8.67,2.64,17.63,4.34,26.35,6.84,11.24,3.2,23.09,5.77,27.3,19.1,9.12,7.66,1.83,16.17-1.39,21.54-8.61,14.33-15.59,29.74-26.83,42.58-8.83,10.09-9.93,24.21-16.09,35.84-11.1,20.92-23.74,40.69-42.25,56a15.68,15.68,0,0,0-6,10.12c-.93,5.51,0,11.41-3.25,16.46v6.93c.82,4.48-8,11.1,2.55,13.31,11.54,2.43,23.23,4.11,34.86,6.12,10-11.52,21.37-22.21,23.6-38.49,2.61-.41,1.12-2.57,1.56-3.91a4,4,0,0,0-1.68,3.85c-7.69,4.58-8.73,13.86-14.08,20.18-3,3.56-5,7.67-10.71,6.22-16.55-8.92-19.22-22-7.08-41.86,14.44-23.55,30.4-46.15,43.33-70.66,2.2-4.18,5.66-9.73,11.88-6.55,5.78,2.95,12.75,5.83,11.79,14.5-.32,2.95.3,6.16-1.71,8.81-1,3.44-1.93,6.89-.7,10.48,7.81-7,12.09-16.44,17.45-25.08,2.58-4.14,5.51-8.91,3.26-14.46-5.1,4.43-10,10.22-17.59,4.8-10.76-7.67-14.78-18.43-10-28C1313.6,1263,1321.43,1248.42,1329.36,1233.9Z"/><path class="cls-1" d="M1236.27,1134.12c9.23,7.22,18.57,12,29.53,14.36,21.21,4.62,41.63,11.57,61.7,19.74,4.88,2,10.52,4.45,10.53,9.67,0,6.17,3.69,8.72,7.45,10.87a113,113,0,0,1,34.14,29.41c1.72,2.25,4.16,3.17,5.84.58,3.29-5.11,6-10.59,8.93-15.85-.7-4-3.76-5.56-6.6-7.2-3.17-1.84-7.18-2.76-7.66-7.32-.5-4.85-3.9-6.72-7.9-8.25-13.44-5.13-26.84-10.54-39.94-16.3-19.24-8.48-37.6-19-55.78-29.8-18.6-11-40.58-15.8-57-30.92-2.2-2-5.1-5.59-8.66-1.88s.1,6.47,1.48,9.78C1217,1122.36,1227.3,1127.11,1236.27,1134.12Z"/><path class="cls-1" d="M1189.46,1340.33c3.73-11.15,4.6-22.58,6.53-34,4-23.91,9.75-47.53,14.42-71.34.73-3.71,3.65-8.6-2.11-11.43-9.58,31.07-18.34,62.46-30.87,92.49-5.4,12.93-6.7,25.92-6.82,39.43C1182,1356.73,1186.24,1349.94,1189.46,1340.33Z"/><path class="cls-1" d="M981.07,1269.29c-14.94,4.46-29.79,9.24-44.79,13.53-8.06,2.3-15,5.89-19.62,13.12h0l-3.39.3c-1.17-13.17-7.59-4.17-12.84-3.5-19.14,2.46-36.57,10.38-54.59,16.34-2.61.86-4.45,3.07-6.84.11-1.71,2.84-10.39-1-6.71,7l-2,.93a32.47,32.47,0,0,0-11.14-6.26,97.81,97.81,0,0,0-10.3,3.84c-15.53,7.08-32.09,12.23-46.79,20.67-10.48,6-24.32,7-31.27,18.84-3,10.33,2.52,9,8.89,6.54a11.64,11.64,0,0,1,.15,3c-4.42,20-2.13,41.92-16.51,59.32a11.37,11.37,0,0,0-1.5,10.7c.56,1.59,2.13,1.16,3.48.74,4-1.24,5.6-4.22,6.76-8.09,2.52-8.41,5.26-16.78,8.47-25,5.68-14.46,9.9-29.58,18.39-42.81,2.4-3.73,5.82-7.5,10.83-5.09,4.43,2.13,3.45,7,3.07,10.92-.22,2.3-1.76,4.45-2.14,6.76-2.22,13.53-11.08,25.2-11.61,39.75,10.41-.77,16.19-8.86,24.15-12.81,1.58-.78,2.42-3,.37-4-9-4.44-4.77-11.45-3.49-17.66,3.1-15,10.21-28.55,16.71-42.28-19.56,1.48-34.7,12.5-50.37,22.37,15.67-9.87,30.81-20.89,50.37-22.37l20.67-6.86c4.26,2,5.13,6.52,6.83,10.7,4.33-3.65,8.09-6.94,12-10.08,3.38-2.73,6.9-4.09,11-1,3.56,2.68,4.84,5.27,3.81,10.23-1.83,8.82-3,18,1.9,29.47,7.28-21.69,18.22-39.17,23.39-59.07,6.4.59,12.82,2,19.15-.42-6,12.07,4,24.4-.82,36.83a199.82,199.82,0,0,0,24.86-46.74c8.39.53,15.37-4.13,23-6.28-1.63,4.4-4.3,8.71-4.69,13.22-1.42,16.35-5.51,32-14.78,45.37-7.6,11-11.3,25.14-24.36,32-1.26,4.08-3.33,9.43,4.43,5.51,8.46-4.27,16.34-9.28,18.73-19.85,1.72-7.56,5.71-14.37,9.88-21,5.67-18.52,16.11-34.71,25.51-51.37,1.84-3.25,4.82-5.74,2.57-9.87a24,24,0,0,0-13.47,3,24,24,0,0,1,13.47-3c7.8-1.42,13.8-8.11,22.69-7,3.59.43,7.69-3.71,7-7.12C988.85,1266.79,984.2,1268.36,981.07,1269.29Z"/><path class="cls-1" d="M705.61,1394c1.82,8-.23,15.79-3.15,23.53-2,5.33-3.6,11.32.31,17.53,4.33-22.8,11.67-44.54,20.06-66C711.83,1374.32,702.38,1379.83,705.61,1394Z"/><path class="cls-1" d="M812,1364.9c-3.23-.86-2.94,3-4.08,4.73-3.43,5.34-6,11.33-12.13,14.41-1.89,1-3.45,2.25-2.63,4.72s2.56,2.66,4.81,2.33c7.94-1.17,17.33-11.79,17.24-19.86C815.7,1368.49,814.71,1365.62,812,1364.9Z"/><path class="cls-1" d="M1022.55,1198.52c-8,12.7-13,27.24-22.09,39.49.85,3.33-1.16,5.76-2.64,8.35a6.3,6.3,0,0,1,0,1.89c1.62,2.71-.21,5.19-.33,7.75s-4.45,6.21-.34,7.89,8-2.88,8.32-5.66c.89-8.49,6.48-15.14,8.42-22.32,4.25-15.72,15.12-26.88,22.07-40.53,3.61-7.07,6.35-14.49,5.69-22.7C1029.78,1177.15,1028.19,1189.58,1022.55,1198.52Z"/><path class="cls-1" d="M1083,1192.56c12.2-3,25.2-4.12,36-11.54,3.11-2.5,5.59-5.63,3-9.44s-5.17-1.42-8.32.47A95.71,95.71,0,0,1,1069,1185.9C1069.66,1196.35,1078.17,1193.78,1083,1192.56Z"/><path class="cls-1" d="M1081.48,1202.28c.64-1.87,1.76-3.94.17-5.63-2.16-2.29-4.38-.09-6.34.67-3.36,1.32-6.52,3.14-10.21,5,3.49,4.06,7.46,3.52,10.93,4.36S1080.6,1204.9,1081.48,1202.28Z"/><path class="cls-1" d="M1096.52,1220.08c-3.12-.18-3.44,2.62-3.8,4.87-.39,2.49.08,4.89,3.15,5.13s4.93-1.51,5.29-4.67C1101.23,1222.22,1099.52,1220.26,1096.52,1220.08Z"/><path class="cls-1" d="M949.24,809c-9.67,9.52-21.63,15.85-31.81,24.53-2.77,2.37-7.47,5.77-2.63,9.89,3.79,3.23,8.19,7.88,14,2.27,8.09-7.79,18.12-10.09,30.7-9.25,2.73-.2,7.14-.3,11.47-.92,1.83-.26,5-.82,4.74-3-1.07-9.89-10.23-13.62-16.19-19.69C957.06,810.27,952.92,805.33,949.24,809Z"/><path class="cls-1" d="M1428.31,1637l.48-3A2.13,2.13,0,0,0,1428.31,1637Z"/><path class="cls-1" d="M564.27,190.31c8.66-5.47,14.3-25.88,10.71-35.56-2.29-6.17-7.22-6.54-12.13-7.21s-9.81.47-12.09,5.4c-2.82,6.1-5.55,12.37-5.22,19.37.27,5.09.49,10.36,4.51,14.08S558.25,194.11,564.27,190.31Z"/><path class="cls-1" d="M1263.86,159.93a11.16,11.16,0,0,1-.25,3c-4,10.45,5,12.79,10.77,16.51,6.63,4.32,10.72-1.39,14.26-5.71,6-7.32,11.78-14.87,17.06-22.72,6.78-10.07,3.8-20.34-6.61-26.4-7.18-4.17-15.38-5-23-7.54-6.62-2.2-16.07,5.71-13.34,11C1268.34,139.08,1261.7,149.48,1263.86,159.93Z"/><path class="cls-1" d="M901.05,194.07h1c6.64-.41,14.2-1.34,16.37-8.08,4.78-14.9,10.48-29.9,3.43-46.13-3.57-8.22-11.21-11.37-16.68-17.12-4.76-5-8.64-4.14-12.64.38-7.44,8.41-12.91,18.17-18.1,28C867.87,163.57,886.85,193.81,901.05,194.07Z"/></svg>