<svg id="Layer_1" data-name="Layer 1" xmlns="http://www.w3.org/2000/svg" viewBox="0 0 4544.9 1484.65"><defs><style>.cls-1{fill:#fff;}</style></defs><path class="cls-1" d="M588.69,745.37l8.58-4.31c-4.13-8.23-8.7-17.32-13.34-26.55-17.14,7.78-36.81,14.78-47.8-6.51-41.11-79.65-80-160.44-119.54-240.9-4.63-9.42-7.45-18.35-8.17-26.66,3.41-9.64,10.91-18,23.25-24.76l-7.07-11.49a65.82,65.82,0,0,1,9.07-5.92L418.6,373.79,235,466l6,13.38-8,4c3.42,7.58,7.36,16.31,11.68,25.91,19.79-6.88,40.2-9.72,53.55,9.93C318,548.34,335.44,579,354,610.07L224.36,675.21c-14.45-34.48-28.27-66.1-41-98.14-3.12-7.89-5-14.81-5.72-21.05,3.5-8.9,11.08-16.47,23.11-24.06l-6.53-11.43a96.49,96.49,0,0,1,8.53-6c-5.1-8.94-10.22-17.89-16-27.94-61,30.65-120,60.25-178.9,90.06-2.47,1.25-4,4.47-5.91,6.77L7.05,593.5l-1.13.58c-2.48,1.25-4,4.47-5.92,6.77l13.32,26.5c27.58-12.7,46.34-8.93,61.05,18.48Q135.6,759.92,193.31,875.89c4.5,9,7.4,16.38,8.64,22.66-4,7.45-12.38,13.93-25.67,21.92,2.33,4,4.65,8,6.87,11.79-2.67,1.81-5.61,3.67-8.87,5.62l14.48,24.82,176.3-88.59c-2-4.55-3.9-9-5.83-13.48l7.83-3.93c-4-9.17-7.81-18.06-11.66-27-26.35,11.42-41.44,11.07-50.51-5.46-17.8-32.42-33.84-65.82-50.9-100.17L379.67,661c15.13,33.8,30.08,65.59,43.66,97.94,4.42,10.53,7.4,18.51,8.7,25.05-3.71,6.53-11.29,12.47-23.47,20.82l6.5,11.39c-2.54,1.89-5.36,3.87-8.5,6l13.81,24.18,174.9-87.88C593.18,754.29,591,749.9,588.69,745.37Z"/><path class="cls-1" d="M614.65,687.56c65.06,43.4,131.06,39.89,194.88,7,61.92-32,99.22-82.29,104.69-153.75A232.84,232.84,0,0,0,916.94,504c-.36-130.88-96.24-212.29-217.1-185.33-9.83,2.2-19.7,4.26-29.55,6.38l-51,25.63c-4.43,4-8.6,8.42-13.33,12-47.84,36.39-73.27,86.84-76.63,138.2C518.07,569.42,546.75,642.27,614.65,687.56Zm42.27-303.7c32.11-14,61.24-3.81,84.92,22.51,19.61,21.79,36.13,46.57,55.5,72,9.89,35.57,20.78,71.48,29.49,107.84A78.69,78.69,0,0,1,828.56,608c-8,44.64-46.11,63.06-86.69,41.88-29.93-15.63-50.56-41.88-69-70.13-26.53-40.78-45.64-84.39-50.37-133a122.58,122.58,0,0,1-.54-16C626.59,408.62,638.66,391.84,656.92,383.86Z"/><path class="cls-1" d="M1253.36,198.72c29.56,1,40.91,7.89,47,38.84,14.09,72,25.94,144.46,37.7,216.9a85.36,85.36,0,0,1,1.09,12,29.87,29.87,0,0,1-2.32,5.72c-4.65,8.56-17,11.89-27.11,18.27,1,4.14,2.1,9.21,3.29,14.4-1.8.94-3.57,1.93-5.29,3l5.06,22.16,167.44-27.36c-.52-5.19-1.09-10.84-1.69-16.81l3.69-.6c-.81-8-1.72-17-2.69-26.7-16.81,3.67-34.65,4.09-39.33-15.79-7.31-31.08-11.48-63-16.43-95.39l122.89-20.08c3.83,32,7.94,62.14,10.79,92.35.38,4.07.79,8.47.93,12.83a20.87,20.87,0,0,1-1.26,2.85c-4.84,8.8-16.65,12.79-26.87,19.91.93,4,2.08,9,3.24,14.06-1.76,1.06-3.52,2.16-5.23,3.35,1.38,6,3.27,14.23,4.91,21.39l166.34-27.18c-.88-5.41-1.79-11-2.72-16.64l4.72-.77-4.24-25.93c-16.85,2.16-34.32,2.13-38-18.76-13.44-76.59-25-153.52-36.94-230.37a106,106,0,0,1-1.28-14c3.77-13.08,13.16-22.48,30.87-26q-2.37-8.93-4.21-15.81a57.93,57.93,0,0,1,6.21-1.6c-2.68-10-4.84-18.18-6.47-24.32L1473,121.14c.87,5.32,1.79,10.93,2.72,16.64l-4.72.77c1.27,7.74,2.63,16.1,4,24.46l3.61-5.36c12.27,8.95,31.09,15.19,35.56,27.38,10.39,28.34,16.44,58.49,23.5,89.19l-126.47,20.66c-3.14-32.16-6.52-62.28-8.89-92.46-.21-2.67-.34-5.2-.37-7.6,3.76-12.44,13.07-19.37,30.06-24.52-1.12-5.24-2.24-10.49-3.33-15.64q2.52-.91,5.32-1.77c-1.76-8.3-3.54-16.66-5.22-24.51l-176,28.76,1.79,16.8-3.78.61C1251.58,182,1252.48,190.44,1253.36,198.72Z"/><path class="cls-1" d="M1097.68,582.22c67.23-6.78,132.55-31,196.85-46.94q-2.25-8-4.47-15.78c2.16-.56,4.32-1.1,6.47-1.64-13.36-47.15-25.68-90.61-38.11-134.5l-31.79,9a91.57,91.57,0,0,1,7,14.85l-9,2.56c10.33,17.59,13.25,35,12.4,52.29-1.35,7.82-3.22,15.61-5.28,23.39-1.52,5.76-6,11.68-10.67,15.34-50.16,39-110.35,31.09-150.86-19.61-34.41-43.08-49-93.46-48.36-147.59,0-3.47.19-7,.43-10.53a140.68,140.68,0,0,1,11.25-37.46c27.42-57.5,105.62-64,143.21-12.56,11.91,16.3,18.15,36.9,27.38,56.37l26.09-7.39q-2.22-7.81-4.42-15.59l6.42-1.82-39.81-140.46c-26.61,7.54-53.55,14.39-80,22.85-34.58,11.08-70.72,19.55-102.7,36.06-57.64,29.76-97.63,75.34-102.13,143.39a184.64,184.64,0,0,0-2.41,28.23C904,505.27,989.74,593.09,1097.68,582.22Z"/><path class="cls-1" d="M1889.68,353c49.44,72.87,120.19,97.42,201.4,90.47,85.72-7.34,150.33-49.69,185.54-134.79,11.21-27.08,17.58-53.74,19.54-79.26C2313.07,118.87,2248.31,26,2131.2,6c-11.27-1.92-22.51-4-33.76-6l-64.61,4.84c-6.39,2.28-12.66,5.07-19.19,6.79C1918,36.83,1859,112.86,1852.93,197.68,1844.87,248.28,1855.89,303.19,1889.68,353Zm102.46-227.45c13-43.28,39.81-69.37,73.68-70,39.77-.75,65.8,22.45,79.19,59.9,11.08,30.95,17.62,63.69,26.87,98.33-4.18,35.58-8.05,71.66-13.78,107.38-2.23,13.92-9.23,27.78-16.78,39.7-27.67,43.71-76.12,46.68-109.67,7-24.57-29.07-34.86-65.16-41.83-102.36-6.32-33.78-9.17-67.47-6.33-100.92A271.14,271.14,0,0,1,1992.14,125.55Z"/><path class="cls-1" d="M2345.8,300.39q-2.85,24.51-6,49c-4.19,32.71-12.7,36.7-43.82,34.62-1.05,9-2.09,17.89-3,25.32h0c-.73,6.22-1.43,12.18-2,17.41L2475,448.3c1.63-8.2,3.27-16.5,5.14-25.93l-1.43-.09c1.08-5.49,2.2-11.16,3.42-17.32-19-1.09-37.95-7-37.71-25.79.13-10.27.84-20.54,1.86-30.8,2.18-17.14,4.85-34.29,6.86-51.46l43.65,5.12c17.75,47,35.61,93.12,52.55,139.61,5.86,16.09,15.86,21.28,32.57,21,20.77-.38,41.71,1.37,62.37,3.89,17.52,2.14,34.76,6.68,53.26,10.39,1.28-10.89,2.27-19.32,3.26-27.78h-.05c.74-6.27,1.39-11.84,2.05-17.41-33.92-1.19-56.18-32.12-95.24-143.35,14.24-9.6,28.25-17.95,40-28.78,19.92-18.39,29.76-41.2,29.8-63.66,7.29-31.72-5.36-65.24-37.24-86.87-16.29-11-35.67-21.22-54.74-23.88-84.44-11.78-169.29-20.67-255.58-30.79-1.22,7.43-2.58,15.71-4.05,24.72l.82.2c-.88,5.38-1.82,11.13-2.82,17.21,21.57,5.14,40.77,14.26,38.57,38.74C2357.31,190.34,2352,245.42,2345.8,300.39Zm184.4-52.87c-8,8.41-23.1,10.06-34.95,14.8-27.89-7-36.2-11.51-35.83-29,4.66-28.08,10.36-56,15.07-84.06,4.87-29.11,19.89-32,47.43-25.12,22.6,5.65,33.33,24,36.41,46a125.1,125.1,0,0,1,1.16,22C2555.46,212.6,2545.62,231.31,2530.2,247.52Z"/><path class="cls-1" d="M2788.82,465.93c62.4,21.23,130.26,26.21,194,38.18,7.89-42,16.17-86.05,24.61-131l-1.23-.23q1.61-8.56,3.23-17.18L2978,349.78c-3,36.4-11.72,56.59-36.57,82.84-4.64,4.9-11.3,9.47-17.7,10.79-57.76,12-107.44-15.13-123.79-71.53-7.71-26.59-10.46-52.46-8.66-77.48,6-37.73,22.48-73.41,48.19-106.53,22.14-28.52,53.58-39,89.27-30.26,38.87,9.48,64.22,32.21,65.48,75,.52,17.65-2,35.4-3.17,54.08l27.83,5.22c8.86-47.18,17.54-93.37,26.76-142.45l-1.23-.24q1.61-8.53,3.22-17.18c-27.06-5.08-54.38-11-82-15.21-36.14-5.57-72.51-14.13-108.74-13.79-68.71.66-127.67,25.61-161.57,90.86a195.29,195.29,0,0,0-21.87,77.05C2660.08,354.22,2703.59,436.94,2788.82,465.93Z"/><path class="cls-1" d="M4472.6,612.91c-69.67-45.85-144.29-84-217.91-126.21L4241.33,510c2,1.4,3.79,2.84,5.51,4.31l-7.51,13.1c11.68,8.33,19,18,20.95,28.19a39.48,39.48,0,0,1-1.76,3.67c-39.27,71.81-78.7,143.58-120.06,214.2-9.32,15.92-16.72,23.1-26.08,23.76-29.73-18.3-44.62-76.81-41.11-159,11.76-2.76,24-4.85,35.7-8.66,44-14.34,68.1-46.73,68-81.84,6.47-27.52-2.64-58.56-29.71-84.81-19.55-19-44.12-34.12-68.75-46.27C4013.41,385.56,3949,357.08,3883.77,327l-12.19,26.38c1.64.95,3.2,1.93,4.7,2.92l-6.7,14.49c14.18,8.22,23.23,18.22,25.54,29.14l0,.07c-31.05,71.23-62.26,142.43-95.57,212.61-10.5,22.13-19.27,27.56-36.06,22.89-2.8-8.53-3.16-18.3-3.65-27.55-4.65-89.37-7.85-178.82-12-268.22-1.87-39.91-2.33-39.89-41.49-49.49-2.79-.69-5.59-1.33-8.34-2.14-35.39-10.5-70.77-21-107.7-32l-8.56,23.79c1.38.41,2.66.76,3.87,1.09-1.75,4.89-3.69,10.29-5.86,16.33,5.64,1.67,9.77,2.41,13.49,4.08,12.9,5.81,20.45,13.6,22.59,22.64a53.71,53.71,0,0,1-7.52,12.28c-33.45,42-66.54,84.31-100,126.3-18.74,23.51-37.48,47.07-57.16,69.8-9.12,10.53-19.62,19.42-33,15.19.13-.67.26-1.35.38-2-3.1-.76-6.22-1.57-9.23-2.51l-.77-.54a2.76,2.76,0,0,1-.08.27c-11.12-3.58-20.52-9.08-21.78-20.89,13.74-75,28-150,44.59-224.47,7.28-32.74,16.34-36.94,49.09-39,.51-6.07,1-12.2,1.47-17.38l.52,0c.75-8.77,1.5-17.67,2-23.66l-183.26-34.42-6.06,25c.7.18,1.39.37,2.08.57-1.21,5-2.56,10.58-4.08,16.84,19.72,5.16,34.46,15.15,33.57,34.95s-2.88,39.32-5.12,59.23q-.75,6.44-1.48,12.94-1,8.66-2,17.42l-136.74-25.68c6.77-26.2,13.05-51.14,20.11-75.82,7.33-25.64,20.77-34.13,47.63-31.27,1.22-9,2.43-18.07,3.45-25.56l-.35-.06c.84-6.18,1.64-12.14,2.34-17.35l-184.82-34.72-6,24.75,2.07.67c-1.29,5.3-2.68,11-4.07,16.74,23.71,7.45,34.53,17.13,34.43,37.17q-18.16,112.1-40.12,223.58c-5.21,26.59-15.53,30.91-45.86,26.84-1.16,9-2.31,18.07-3.26,25.47l.22,0c-.79,6.22-1.55,12.19-2.21,17.37L3181,545.14q3.18-12.45,6.35-24.87c-.78-.2-1.54-.41-2.29-.62q2.14-8.4,4.28-16.79C3167.51,497,3156.55,490,3155.49,478c5.28-32.66,12.15-65.18,18.46-98.77L3306.25,404c-6,25.62-11.48,50-17.84,74.18-9.11,34.58-13.78,37.7-46.76,35.28-1.18,8.85-2.36,17.74-3.28,24.66l.31.06c-.84,6.3-1.64,12.34-2.31,17.35l162.36,30.5-.81,2.7,135.93,40.4c3-10.09,5.51-18.52,8-26.95l-3.87,2.33c2.09-7.06,4-13.4,5.86-19.74l-5.82,3.5c-7.13-8.08-19.87-17.49-24.23-24.91,5.93-17.51,15.55-34.4,26.78-48.85,3.8-4.89,24.65,3,37.52,5.8,9.08,2,17.9,5.18,26.84,7.84,53.35,15.85,55.24,16.57,52.59,67-3.69,11.78-13.25,14.59-26.24,14.31-6.19-.14-12.33-2.43-20-4.07-1.83,9-3.62,17.8-5.13,25.24l1.45.43c-1.23,6.06-2.4,11.85-3.44,17l177.33,52.71,2.36-7.92,118.55,54.8,13.12-23.78q-3.32-1-6.36-2.27l8.36-15.14c-14.44-4.4-25.3-12.2-28.16-22.65,10.63-29.3,25.75-57,38.95-85.59L3970,617.51c0,21.69-.26,42.37.23,63q.77,32.07,2.79,64.09c2.54,40.68,2.87,40.21,41.66,54.19,16.72,6,32.87,13.87,48.79,21.86,3,1.5,6,3.08,8.9,4.71l-3.13,5.45L4087,841c38.09,21.78,75.93,44,114.37,65.17,28.78,15.85,56.86,34.32,87.83,44.61,94.83,31.52,190.76-16,237.52-114.45a166.9,166.9,0,0,0,15.88-61.41C4552.88,713.83,4528.6,649.76,4472.6,612.91ZM4324.21,883.54c-37.29,18.05-71.28,11.37-96.72-18.25-3.87-4.49-6.65-8.94-7.93-13.65a44.53,44.53,0,0,1,2.18-4.1c9.22-15.47,16.8-31.92,25.5-47.72s17.88-31.33,26.85-47l-2.53-1.6c25.47-39,51.17-77.78,76.26-117,8-12.43,17.72-16.41,30.85-15.57,39.32,2.53,67.19,33.36,68.43,76.58.09,3.13,0,6.33-.13,9.59C4435.38,772.25,4379.22,856.91,4324.21,883.54ZM3959.59,526.46c12.51-21.89,23.49-41.91,35.24-61.47,12.91-21.47,28.33-24.54,49.58-10.76,14.82,9.62,23.23,25.52,23.49,44.09-7.11,31.72-25.42,55.92-52.65,73.69-17.71,11.56-58.12.5-68.13-18.33C3951.24,543.78,3956,534.25,3959.59,526.46ZM3654,488.91l-84-25,67.3-93.94,4.84,1.41C3646.07,410,3650,448.67,3654,488.91Z"/><path class="cls-1" d="M1212.67,1133.78c-14.07-51.34-26.59-103.1-39.55-154.74-4.65-18.54.52-32.48,20.61-38.44q-3.51-9.66-5.84-16.05l-127.74,33.38c1,4.83,2.21,10.4,3.52,16.51,13.32-1.8,26.45-1.16,31.92,11.87,9.17,21.85,16.24,44.59,24.48,67.76l-96.87,25.32c-4-21.85-8-42-11.3-62.17-3.06-18.88,2.6-27.8,21.14-34.48-1.89-5.81-3.78-11.64-5.9-18.18-42.43,11.09-83.48,21.8-124.49,32.63-1.73.46-3.12,2.18-4.67,3.31q2.22,8.52,4.45,17c19-4.33,30.17,0,35.36,17.72q21.62,73.8,40.75,148.32c5.46,21.25,1,26.83-20.84,34.21,1.95,5.8,3.87,11.56,5.42,16.18l122.67-32.06c-1.14-5.82-2.24-11.47-3.35-17.13-18.07,3.72-27.42,1.81-30.68-8.9-7.2-23.68-12.82-47.85-19.37-72.91l93.4-24.41c4.53,21.52,9.23,41.86,13,62.36,4.28,23.23,2.19,26.48-19.62,35.21,1.85,5.7,3.7,11.43,5.1,15.74l121.7-31.81c-1.39-5.29-2.91-11.14-4.47-17.07C1229.7,1145.62,1216.43,1147.51,1212.67,1133.78Z"/><path class="cls-1" d="M1763.57,943.4c5.44-5.56,11.29-10.8,16.27-16.78,34.43-41.36,17.64-91.2-35.25-100.72-19.32-3.47-40-2.39-59.72,0-46.5,5.53-92.75,13.07-140.29,20,.63,7,1.14,12.66,1.77,19.55,19-.79,30.06,5.17,32.48,19.33q12.95,75.85,24.23,152c1.15,7.75.71,17.5-3.17,23.71-3.64,5.81-12.84,8.15-20.44,12.5.91,4.39,2.06,9.95,3.08,14.86l124.9-18.13c-.39-5.53-.81-11.58-1.26-18-13.51,2.57-26.41,1.82-29.52-11.19-5.19-21.63-7-44.07-10.16-66.12,6.14-.89,12.85-.63,18.49-3,10.11-4.16,14.47.27,19.62,8.29,13.18,20.54,27.09,40.65,41.38,60.44,17.1,23.69,17.39,23.45,46.37,16.46a97.79,97.79,0,0,1,13-2.55c17.38-1.8,34.79-3.37,53.07-5.11-1-6.87-1.87-12.87-2.74-18.88C1829.63,1033.9,1782,988.69,1763.57,943.4Zm-53-3.07c-5.5,11.39-35.94,18.74-46.07,11.13-2.26-1.69-3.15-5.8-3.75-9-1.44-7.69-2.35-15.47-3.26-21.77-1-17.14-2.16-32.74-2.69-48.37-.56-16.87,7.51-24.66,24.87-24.25,16.58.39,27.53,9.55,33.72,24.12C1723.15,895.2,1721.31,918.13,1710.57,940.33Z"/><path class="cls-1" d="M2044.9,792.86a165,165,0,0,0-27.85-.29c-60.27,5.54-120.5,11.46-181.56,17.33.69,7.23,1.24,12.92,1.79,18.61,20.13.7,32.19,7,33.84,20.46,6.36,51.88,12.7,103.79,17.12,155.85,2,23.11-3.54,27-28.81,31.27l2.8,18.9c54.27-5.22,106.7-9,158.68-15.85,23.95-3.18,48.58-9.77,70.17-19.71,58.78-27,86.69-83.43,73.71-142.09C2154.28,829.83,2109.21,798,2044.9,792.86Zm14.49,199.06c-8.2,11.23-21.88,21.61-35.59,27-31.6,12.3-52.46.44-56.15-29.23-2.3-18.43-3.65-37-5.43-55.46l-3,.21c-.75-30.3-1.23-60.6-2.4-90.87-.39-10.26,4.63-16.28,14.31-21.06,27.26-13.45,59.25-7.68,79.08,14.74C2082,873.18,2087.93,952.84,2059.39,991.92Z"/><path class="cls-1" d="M1518.8,1061.28c-16.46-25.56-32.13-51.59-47.8-77.59-21.25-35.27-42-70.81-63.51-105.94-2.43-4-8.79-9.17-12.48-8.56-37.69,6.25-75.21,13.59-114.09,20.87.87,7.33,1.63,13.63,1.92,16.06l42.37,10.29c-6.3,27.69-11.78,51.79-17.25,75.88-8.79,38.75-17.27,77.55-26.53,116.21-3.13,13.09-6.82,27-27,26.92l4.69,18.63,105.52-19.76-3.46-18.51c-13,3.41-28.33,5.25-31.69-7.48-3.91-14.8-3.35-32.06,1-46.91,1.56-5.34,19.74-7,30.46-9.88,6.34-1.71,12.93-2.52,19.41-3.73,42.54-8,42-7.74,59.77,29.74,6.5,13.73-.15,20-11.82,25.23-4.15,1.84-8.89,2.44-14.13,3.81,2,6.74,3.66,12.5,5.13,17.51L1559,1097.92c-1.17-6.23-2.28-12.14-3.38-18C1537.53,1082.46,1530.56,1079.53,1518.8,1061.28Zm-187.55-29.11c5.46-32,10.74-63.06,16-94.08l4.06-1.38L1407.1,1018Z"/><path class="cls-1" d="M3606.63,983.26c-16.8-11.65-36.89-19.8-56.55-26.37-46.43-15.51-93.5-29.1-141.32-43.78-2.2,7.19-4,13-5.8,18.9,16.45,6.83,25,17.23,21.46,29.84-14.66,51.73-29.5,103.44-45.81,154.67-6,19-13.53,20.73-33.74,14.79l-5.2,16.94,126,38.66,6.82-17.35c-14.83-2.49-25.71-10.07-23.25-22.58,4.31-21.82,12.49-42.85,19-64.14,6.25,1.92,12.49,5.12,18.84,5.5,11.42.69,13.57,6.69,14.94,16.16,3.44,23.88,7.73,47.69,12.53,71.38,6.13,30.27,6.5,30.17,37.22,36.72a129.76,129.76,0,0,1,16.34,4.24c16.27,5.74,32.41,11.81,49.47,18.08l5.64-18.38c-26.43-8-44.56-50.87-50.5-118.51,8.5-3,16.32-5.09,23.63-8.3C3646.9,1067.56,3652.61,1015.17,3606.63,983.26Zm-80.59,87.3c-10.83,8.67-42.68,2.92-49.69-9.13-1.44-2.48-.55-6.63.25-9.75,2-7.57,4.48-15,6.33-21,6.54-16,12.19-30.57,18.47-44.92,6.81-15.58,17.71-19.09,34-11.13,15.57,7.61,22,20.69,21.61,36.58C3556.36,1035.64,3545.15,1055.26,3526,1070.56Z"/><path class="cls-1" d="M2998.81,835.12a152.24,152.24,0,0,0-26.27-5.73c-58.09-6.32-116.21-12.25-175.14-18.39-.75,7.18-1.34,12.86-1.92,18.55,18.84,4.69,29.05,13.21,28,26.64-4.22,52.63-8.5,105.27-14.55,157.7-2.51,21.69-8.85,24.56-32.11,23.66-.6,5.74-1.19,11.43-1.63,15.6,27.13,2.83,52.35,5,77.44,8.2,25.69,3.27,51.17,9.62,76.87,10.78,22.85,1,46.78-.25,68.65-5.69,60.86-15.13,98.27-64.88,97.51-125C3095,892.74,3058.68,852.71,2998.81,835.12Zm-26,199.8c-20.94,20.27-47.77,24-75.07,11.28-8.28-3.87-12.12-8.77-11.19-17.24,2.65-24.31,5.11-48.63,7.64-73l-3.89-.49c5.25-29.86,9.91-59.84,16.28-89.48,1.25-5.81,8-12.68,14.14-15,27.95-10.62,58.63,1.4,73.78,27.53C3018.72,920.35,3007.47,1001.34,2972.8,1034.92Z"/><path class="cls-1" d="M3320.72,1070c-4.45,10.36-6.72,21.19-13.12,29.48-18.33,23.73-78.89,21.52-99-2.92-1.83-2.23-3.11-5.82-2.54-8.27,5.85-25.07,12.15-50,18.93-77.5,12.07,4.75,28.65,7,35.88,15.25,7.91,9,7.2,23.52,10.41,36.24l15.71,3.88c7.61-30.85,15-60.6,22.46-91l-19.77-4.88c-10.75,32-23.5,36.77-61.35,23.2,3.27-13.21,5.72-25.7,9.52-37.78,3.38-10.71,7.32-21.42,12.92-31.22,2.39-4.19,9.18-8.09,14.72-8.65,35.48-3.64,64.11,15,70.2,46.15,1.81,9.24-.59,18.83-1.09,28.7l22.54,5.56c6.83-27.68,13.44-54.42,19.67-79.67l-238.35-58.86-4.23,17.16c19.05,6.25,29.52,16.67,26.65,29.66-11.46,52-23,104-36.43,155.56-5.3,20.37-13,22.3-36.55,17.15-1.47,6-2.94,11.88-4.22,17.1l237.72,58.7c6.44-26.1,12.83-52,19.29-78.12Z"/><path class="cls-1" d="M2439.63,820.67c34.63-31.58,94.9-18.73,110.64,23.24,5,13.3,4.68,28.17,6.89,43l21.38.89c1.42-33.89,2.8-67,4.22-100.76-21.79-.91-43.68-2.35-65.57-2.62-28.66-.35-57.85-2.75-85.88,1-53.15,7.16-95.9,30.08-114.49,78.42-28.44,74,17.57,151.58,103.87,166.24,50.39,8.55,103.11,5.49,154.52,7.64,1.25-29.93,2.56-61.11,3.88-92.63L2553,944c6.25,24.66-5.2,43.77-18.74,62.09-2.54,3.44-7.29,6.35-11.72,7.72-47.1,14.51-90.5-3.87-108.54-46-15.54-36.29-14.24-73,.13-108.69C2419.73,845.26,2428.27,831,2439.63,820.67Z"/><path class="cls-1" d="M2627.38,811.79c21.15,6.14,28,12.67,26.56,33.75-3.45,49.69-8.32,99.29-13.75,148.81-2.53,23-8.05,26.5-31.66,26.16-.23,5.7-.45,11.42-.66,16.89L2734,1050.46c1-5.92,1.91-11.61,2.85-17.3-22.9-3.45-27.84-8.32-25.42-30.82,5.39-50,11.61-100,18.25-149.9,2.56-19.3,11.41-25.77,32-26.26.22-6.09.44-12.2.6-16.8l-132.2-13.68C2629.24,800.64,2628.3,806.26,2627.38,811.79Z"/><path class="cls-1" d="M3923.38,897.51C3110.67,565.63,2280.82,601.19,2280.82,601.19,1391.19,570.68,596.42,893.5,596.42,893.5c3.63,145.2-92.51,160-92.51,160l155.8,370.21c112.35-25.7,149.08,60.89,149.08,60.89,718.67-267.41,1466-245.34,1466-245.34,631.22-21.45,1435.3,245.34,1435.3,245.34,53.25-95.58,174.23-60.89,174.23-60.89L4039,1057.62C3903.29,999.63,3923.38,897.51,3923.38,897.51ZM3850,1355.42s-114.26-33.22-147.66,53.43c0,0-828.68-273.14-1404.49-236.72,0,0-640-34.08-1438.38,237.83,0,0-60-68.78-160.61-54.54L596.42,1076.3s76.17-59.6,75.31-144.4c0,0,684.64-272.72,1624.37-270.74s1562.69,268,1562.69,268-38,83.45,90.6,165.17Z"/></svg>