<svg id="Layer_1" data-name="Layer 1" xmlns="http://www.w3.org/2000/svg" viewBox="0 0 2800.51 1478.97"><defs><style>.cls-1{fill:#dcd264;}.cls-2{fill:#d33f41;}.cls-3{fill:#dda756;}.cls-4{fill:#a99926;}.cls-5{fill:#da393b;}</style></defs><path class="cls-1" d="M1257.83,375.41c34.51,12.19,65.62,30.29,94.58,52.62,25.15,19.4,50.82,38.15,80.63,50.27,11.57,4.7,13.44,11.51,7.22,22.46-10.24,18-26.47,30.39-42,43.23-19.12,15.78-40,29.12-60.39,43.22-11.08,7.67-11.19,7.48-.73,15,.81.58,1.33,1.57,3.05,3.66a77.75,77.75,0,0,0-38.5,25.24c-21.83,26-41.57,53.22-34.33,90.36,1.82,9.32,7.82,15.37,16.5,18.91,5.91,2.41,8.88,1.7,8.45-5.92-.82-14.62-1-29.13,4-43.47,8.14-23,20-43.22,40-57.65,11.41-8.25,25-13.59,38-5.52,14.94,9.22,17.83,25.25,16.48,41.6-2.23,27-13.18,50.75-31.34,70.46-13.85,15-30.36,26.24-53.55,18.62,0,7.05,2.46,12.28,5.1,17.41,26,50.58,57.73,97.24,96,139.32,4.43,4.87,6.46,7.07-1.75,10.49-16.22,6.78-28.62,19.74-43.26,29.2-15.35,9.91-30.75,19-49.92,19.72-22.25.84-40.57-8.4-58.2-20.27-32.67-22-57-52.18-81.2-82.51-29.14-36.57-57.59-73.72-83.65-112.54-35.25-52.48-67.44-106.82-90.2-166.07C982,549.36,970.64,504.2,972.6,456.51c2-48.92,19.51-91,54.91-125,30.19-29,65.2-50.26,105.91-61.1,28.23-7.51,56.83-6,85.25-1.09,29.07,5,56.27,16.17,83.53,27,8.12,3.22,16.24,6.45,24.27,9.88,9.5,4.05,16.22,1.09,22.89-6.56,18.07-20.73,33.62-43.7,55.44-61.14,35.51-28.38,75.58-38.36,120.6-34.19,34.64,3.22,66.43,12.65,94.51,33.32,32.11,23.63,52.2,55.89,65.47,92.83,14.15,39.41,20.26,80.15,21.61,122,1.78,54.94-3.4,109.48-7.17,164.11-1.33,19.37-2.76,19.63-22.32,16.46-37.84-6.12-75.75-5.05-113.68-.05a672.41,672.41,0,0,0-76,14.83c-2.38.6-5.27,1.87-7,0-2.75-3,.92-5.13,2.3-7a552.17,552.17,0,0,0,46.15-74.86c19-37.53,36-75.93,38.17-118.84,1.9-37.19-16.79-64.56-43.53-87.64-27.62-23.84-62.26-30-96.16-38.44-19.73-4.9-35.08-.19-49.38,13.95-13.38,13.24-30.64,18.35-49.3,15.14-22-3.76-43-11.17-64.19-18.06.06-5.89,7-6,8.76-10-2.06-4.53-14.07-6.3-3-13.52.39-.25,0-2.92-.83-3.64-13.34-12.09-29.37-21.71-46.52-23.22-57-5-108,12.18-154.42,45.61-24.87,17.89-39.43,41.89-47.11,69.93-7.35,26.83-10,54.75-8.91,82.8a62.41,62.41,0,0,1-.81,12.51c-1.83,11.12-.82,22.11-.14,33.28,1,16.31,9.11,30.75,10.48,46.79,1.46,17.21,11.62,31.26,18.57,46.05,6.79,14.47,14,29.07,22,43.16,10.33,18.25,19.22,37.32,28.66,56.06,2.65,5.27,8.19,7.81,10.69,13.8,4,9.5,10,18.27,15.87,26.8,17.57,25.33,35.58,50.34,53.21,75.63,2.11,3,3.65,5.92,6.68,8.61,6.6,5.87,11.93,13.31,17.16,20.55s6,19.87,20.28,15.5c1-.3,2.82,1.79,4.06,3,4.75,4.59,9.15,9.6,14.21,13.82,3.92,3.26,7.55,10.75,14.1,2.88,1.28-1.54,3.51-1.44,4.21.64,1.43,4.33,4,3.69,7.4,2.68,5.58-1.64,10.44-1.48,14.93,3.91,3.55,4.24,8.68,2.81,10.35-2.67,1.92-6.29,1.35-6.42,6.65-2.05,1.72,1.42,2.82,4.29,7.12,2.47l-13.3-18.81c9.13,2.16,10.16-.42,6.34-6.62-1.67-2.71-5.23-8.3-2-9,10.27-2.36,4.82-10,8.87-17.46l19.26,19.24c-5-9.82-15.32-17.28-15.85-30.21,4.83.88,6.47,4.17,8.78,6.66,7.31,7.85,14.61,15.71,22,23.47,1.33,1.39,3,3.59,5.13,1.22,1.31-1.46.58-3.46-.67-4.75-6.13-6.27-7-15-10.91-22.37s-2.4-9.9,6.85-6.35c-2.12-3.66-4.15-5.84-4.7-8.35-3-13.46-10.29-23.91-20.66-32.76-7.49-6.39-13.16-14.65-19.5-22.09-9.16-10.73-20.28-20.09-26.19-33.59-2-4.6-6.39-8.2-9.85-12.11-2.87-3.25-6.92-4.26-10.44-2.15-3.79,2.28-.87,6.1.39,8.39a262.33,262.33,0,0,0,14.11,22.83c10.89,15.73,20.86,32,30.23,48.69,1.14,2,3,4.67.11,6.39-2.16,1.26-3.72-1.22-5.16-2.63-6.79-6.61-13.11-13.64-15.76-23-1.45-5.13-4.26-9-9-10.77-8.64-3.25-13.21-10.26-16.41-18-3.49-8.39-6.94-16.87-12-24.31-8.28-12.19-13-26.62-26.07-36-5.4-3.87-13.73-7.72-14.8-16.57,5.74-1,3.22-4.83,2.83-8.09-3.62-30.38,1.61-58.22,23.26-81.42,9.35-10,21.14-16.37,34.7-22.41-7.25-2.55-12.67-6.74-19.08-5.12-16.44,4.15-31.52,10.55-42.31,24.89-4.35,5.78-6.65,13.18-13.09,17.37-1.29-3.4,1.07-6,1.89-8.93,2-7.14,3.55-15.07-.4-21.33-7.73-12.23-10.26-26.28-15.83-39.21-1.36-3.17-1.14-6.8-7.36-6.09-5.68.65-4.75-5.68-3.94-9.66.54-2.65,3-4.49,5.55-2.45,7.55,6.11,16.93,9.42,20,21.31,2.2,8.6,4.88,19.19,13.92,25.16,2.4-2.83.66-4.83-.06-6.5-10.87-25.09-21-50.46-29.87-76.33-4.3-12.61-8.77-24.88-2.49-39.17a144.1,144.1,0,0,0,9.92-34.71c4-24.69,15.4-33.47,40.63-31.7C1223.23,379.21,1240.38,375.63,1257.83,375.41Zm48.05,217.26c-14.35-11-30.51-12.87-45.74-5.77A70.94,70.94,0,0,0,1244.33,597c-26.66,22.4-42,49.89-38.49,85.81.87,8.83,2.35,17.62,10.78,22.69,8.08,4.86,16.47,9.22,24.82,13.6,2.37,1.24,5.14,3.81,7.67,1.95,2.87-2.11.09-5.14-.42-7.71-8.81-44.6,5-80.86,39.77-109.75C1293.84,599.08,1301.7,598.87,1305.88,592.67Zm43.44,41.7c12,3.53,14.78,12.49,14.39,21.63-1.27,29.88-13.69,54.79-35.71,75.08-2.77,2.55-9.61,4.61-7,8.7,3.14,5,8.81.4,13.2-1,1.89-.62,3.52-2.22,5.11-3.56,18.18-15.42,29-35.3,34.85-58.09,3-11.63,3.91-23.48,0-35.05C1370.56,631.26,1359.87,627.7,1349.32,634.37Zm-2.73,245.23c-1.22-.7-2-1.47-2.74-1.49-1.44-.05-2.57.84-2,2.38.22.57,1.64,1,2.45.94S1345.61,880.44,1346.59,879.6Z"/><path class="cls-2" d="M2555.93,1055.36c22.08,28.61,29.7,57,13.32,89.21-14.28,28.06-31.48,52.2-63.06,63.89-22.9,8.48-44.61,20.27-69.21,23.58-30.35,4.09-56.42-2.46-73.46-30.59-3.8-6.28-8-12.32-11.81-18.59-6.34-10.42-6.34-10.51-14.29-.61-9.65,12-19.55,23.81-30.86,34.31-18.66,17.32-41.22,26.35-66.19,28.77-23.07,2.23-45.94.44-68.8-4.54-34.82-7.59-48.71-35.52-49.3-64.13-.16-8,.6-16.08.52-24.12,0-2.08.94-5.48-2.34-6.15-3.07-.62-3.77,2.35-4.95,4.48-20.05,36-39.1,72.62-60.56,107.76-17.58,28.79-43.86,48.89-75.56,60.58-19.47,7.19-29.33.25-31.93-20-6.08-47.51,1.53-93.37,16.85-138.28,6.91-20.24,10.74-41.25,15.53-62,1.24-5.36,1.82-11.12-3.51-14.14s-9,2.08-12.68,5c-6.6,5.32-10.85,12.74-16.26,19.12-21.94,25.83-38.1,56-60.67,81.27-22.81,25.58-48.43,46.72-84.73,49.17-15,1-16.15.1-20.66-14.48-4.34-14.07-4.47-28.8-6.67-45.31-6.56,10.41-12.12,19.34-17.79,28.19a116.76,116.76,0,0,1-51.64,44.63c-29.22,13-52.7,3.09-63.19-27.28-6.38-18.47-7.48-37.65-6.08-57,1.1-15.2,2.36-30.39,3.62-46.41-6.15,1.4-9.42,4.75-11.4,8.62-12.06,23.59-30.8,41.46-50.35,58.47-5.78,5-6.31,9.7-5.06,16.39,8.56,45.57,13.5,91.42,7.54,137.75-6.33,49.19-25,91.75-68.17,119.91-35.56,23.17-74.69,21.24-108.35-4.74-7.19-5.54-14.52-11.13-20.71-17.7-22.51-23.94-25.2-62.4-7.89-97.06,11.74-23.52,31.13-40.3,50-57.39,25.14-22.76,51-44.8,76.8-66.76,7.3-6.21,10-13,10-22.62-.32-72.48-1.4-145,1.3-217.42,2.27-60.82,6.39-121.58,9.71-182.36a38.57,38.57,0,0,1,.7-6.26c9.48-43.23,16.17-41.51,54.86-53.09,5.88-1.76,8.39,2.08,10,6.62,4.14,11.4,5.71,23.49,3.6,35.18-7.3,40.43-7,81.53-11.69,122.18-5.76,50-12.92,99.92-16.16,150.22a585.89,585.89,0,0,0,2.08,102.75c1,9.13,4.88,8.55,10.77,4.75,15.19-9.79,28.1-21.83,37.27-37.62,7.38-12.7,14.65-25.47,22.53-37.84,10.39-16.3,26.13-22.79,44.87-21.66,15.48,1,22.38,8.15,21.76,23.7-.89,22-3.07,44-4.75,66-1.29,16.76-2.66,33.51-1.1,50.33,1.36,14.62,7.7,18.44,21,12,16.71-8.08,25.82-23.13,33.75-38.86,11.62-23.06,15.47-48.41,21-73.28,4.46-20,6.7-40.74,18.22-58.75,7-10.86,16-18.34,28.17-22.15,15.69-4.92,23.75.19,24.88,16.58,1,15,.38,30.08-.88,45.11-2.72,32.41-8.65,64.57-7.23,97.29.63,14.51,4.18,16.72,17.34,9.72,15.27-8.12,26.41-20.69,35.25-35.17,6.4-10.49,12.74-21,21.41-29.7,6.86-6.88,9.58-16.24,15.41-23.62a656.5,656.5,0,0,1,75.91-81.08,70.92,70.92,0,0,1,32.22-16.91c7.18-1.6,11.36-.26,13.06,8.47,5.48,28.17,2.45,55.77-3.87,83.22-8.47,36.83-20.54,72.64-31.11,108.88a137.51,137.51,0,0,0-5.8,40.37c.06,4.35-1.32,10.47,3.46,12.25,5.26,2,8.69-3.46,11.62-7.17,13.16-16.69,27.48-32.42,38.24-51,12.93-22.32,27.41-43.54,42.69-64.49,21.54-29.56,44.47-58.34,63.37-89.89a84.13,84.13,0,0,1,35.87-33c29.69-14.35,72.09.32,85.56,29.64,5,10.85,3.36,19.54-5.59,27.35s-20.14,11-31.88,11.7c-7.44.46-12.32-4.13-16.66-9.41-4.66-5.66-8.39-12.12-14.3-16.69-15-11.56-29-8.79-38.7,7.44-6.91,11.53-8.13,24.43-9.24,37.32-.57,6.61,0,13.33-.58,19.93-3.32,36.52,16.95,58.53,46.53,73.71s58.38,11,85-8.11a140.25,140.25,0,0,0,20.29-18.14c9.91-10.58,15.76-22.11,16.44-38,1.92-45.16,24.92-80.72,57.31-110.56,19.91-18.35,41-35,69-39.72,25.92-4.33,33.39-.57,46.61,22,9.33,15.91,10.29,31.4,1.9,47.84-17.65,34.58-41.25,63-78.09,78.56-10.63,4.48-20.77,10.14-31.42,14.57-6.53,2.71-7.88,6.55-6.34,13,3.27,13.78,8.46,26.67,16.6,38.23,5.79,8.24,13.34,12.53,24.14,11.41,27.69-2.89,48.14-18.06,65.36-38.2,24.53-28.69,39.71-62.29,49.2-98.61C2553.71,1063.05,2554.61,1060.05,2555.93,1055.36Zm-1042.69,190-2.59-1.22c-7.09,6.06-14.26,12-21.24,18.2-22.73,20.13-46.25,39.55-63.21,65.24-7.84,11.87-14.39,25.19-11.25,39.35,7.08,31.94,25.9,55.29,56.88,67.31,12.18,4.72,23.63-.49,30.38-11.71,6.44-10.72,9.12-22.61,10.55-34.79C1518.35,1340.3,1510.85,1292.86,1513.24,1245.39ZM2391.38,1125c19-12.28,36.69-22,51.58-35.77,5.45-5,8.67-11.74,10.54-18.94,4.68-18-2.21-30.25-19.78-35.33-18-5.22-30.85,2.59-38,22.9C2388.18,1079,2392.29,1100.71,2391.38,1125Z"/><path class="cls-3" d="M1257.83,375.41c-17.45.22-34.6,3.8-52.31,2.55-25.23-1.77-36.58,7-40.63,31.7a144.1,144.1,0,0,1-9.92,34.71c-6.28,14.29-1.81,26.56,2.49,39.17,8.83,25.87,19,51.24,29.87,76.33.72,1.67,2.46,3.67.06,6.5-9-6-11.72-16.56-13.92-25.16-3-11.89-12.42-15.2-20-21.31-2.52-2-5-.2-5.55,2.45-.81,4-1.74,10.31,3.94,9.66,6.22-.71,6,2.92,7.36,6.09,5.57,12.93,8.1,27,15.83,39.21,4,6.26,2.39,14.19.4,21.33-.82,3-3.18,5.53-1.9,8.92-.86,3.73-1.84,7.43-2.56,11.18-4.55,23.74-5.29,46.53,16.26,63.61,1.07,8.85,9.4,12.7,14.8,16.57,13.1,9.39,17.79,23.82,26.07,36,5,7.44,8.5,15.92,12,24.31,3.2,7.71,7.77,14.72,16.41,18,4.79,1.8,7.6,5.64,9,10.77,2.65,9.35,9,16.38,15.76,23,1.44,1.41,3,3.89,5.16,2.63,2.92-1.72,1-4.36-.11-6.39-9.37-16.67-19.34-33-30.23-48.69a262.33,262.33,0,0,1-14.11-22.83c-1.26-2.29-4.18-6.11-.39-8.39,3.52-2.11,7.57-1.1,10.44,2.15,3.46,3.91,7.84,7.51,9.85,12.11,5.91,13.5,17,22.86,26.19,33.59,6.34,7.44,12,15.7,19.5,22.09,10.37,8.85,17.7,19.3,20.66,32.76.55,2.51,2.58,4.69,4.7,8.35-9.25-3.55-10.64-.86-6.85,6.35s4.78,16.1,10.91,22.37c1.25,1.29,2,3.29.67,4.75-2.1,2.37-3.8.17-5.13-1.22-7.4-7.76-14.7-15.62-22-23.47-2.31-2.49-3.95-5.78-8.78-6.66.53,12.93,10.85,20.39,15.85,30.21l-19.26-19.24c-4.05,7.41,1.4,15.1-8.87,17.46-3.2.73.36,6.32,2,9,3.82,6.2,2.79,8.78-6.34,6.62l13.3,18.81c-4.3,1.82-5.4-1.05-7.12-2.47-5.3-4.37-4.73-4.24-6.65,2.05-1.67,5.48-6.8,6.91-10.35,2.67-4.49-5.39-9.35-5.55-14.93-3.91-3.42,1-6,1.65-7.4-2.68-.7-2.08-2.93-2.18-4.21-.64-6.55,7.87-10.18.38-14.1-2.88-5.06-4.22-9.46-9.23-14.21-13.82-1.24-1.2-3.09-3.29-4.06-3-14.24,4.37-15-8.22-20.28-15.5s-10.56-14.68-17.16-20.55c-3-2.69-4.57-5.59-6.68-8.61-17.63-25.29-35.64-50.3-53.21-75.63-5.91-8.53-11.91-17.3-15.87-26.8-2.5-6-8-8.53-10.69-13.8-9.44-18.74-18.33-37.81-28.66-56.06-8-14.09-15.2-28.69-22-43.16-7-14.79-17.11-28.84-18.57-46.05-1.37-16-9.48-30.48-10.48-46.79-.68-11.17-1.69-22.16.14-33.28a62.41,62.41,0,0,0,.81-12.51c-1.12-28.05,1.56-56,8.91-82.8,7.68-28,22.24-52,47.11-69.93,46.46-33.43,97.43-50.63,154.42-45.61,17.15,1.51,33.18,11.13,46.52,23.22.79.72,1.22,3.39.83,3.64-11.05,7.22,1,9,3,13.52-1.78,4-8.7,4.1-8.76,10-21.87-5.86-43.61-12.15-66.44-13.69-8.82-.6-17.32.08-28.59,1.88,24.42,21.64,52.28,34.07,78.43,49.09.37,2.92,1,5.19,4.19,1.88C1255.19,371.44,1257.13,372.65,1257.83,375.41Zm-100.1,228.33c-1.93-3,0-10.17-7.47-9.25-3.9.49-8.93,1.9-8.67,7.19.3,5.84,5,9.45,10.06,10.31C1155.83,612.69,1158.39,609.2,1157.73,603.74Zm-31.65,45c6.53-.16,10.67-.55,10.27-6-.42-5.61-5-7.52-9.57-7.78-4-.23-6.18,3.12-6.43,6.89C1120,647.49,1123.78,648.78,1126.08,648.7Zm-24.86-185c5,0,8-1.35,8.15-5.82.17-5-2.89-6.85-7.35-6.57-3.8.23-8.63.66-8.58,5.49S1097.58,463.61,1101.22,463.7Zm-15,41.5c-.75-4.36-3.24-7.05-7.48-7.5-4.08-.43-6.47,1.61-6.91,5.9-.48,4.77,2,7.35,6.25,8C1082.65,512.21,1084.83,509,1086.23,505.2Zm78.26,229.6c3.63,0,7.5-.47,7.57-5,.07-5.28-4.27-5.37-8.19-5.38-3.63,0-7.51.46-7.57,5C1156.23,734.68,1160.57,734.76,1164.49,734.8Zm-76.4-121.91c2.16-.22,6.25,1,6.37-3.8.13-5.21-4.51-7.09-8.27-8-4.49-1.11-5.82,2.61-5.94,6.55C1080.09,612.74,1083.51,613.06,1088.09,612.89Zm-34-50.43c3.42,0,6.72-1,6.71-4.86,0-4.3-3-7.29-7.31-7.11-3.45.15-7,1.76-6.65,6.37S1050.16,562.49,1054.06,562.46Zm53.3-152.75c.17-3.66-2.21-4.81-5.87-4.64-4.08.19-6.5,2.09-6.42,6.32s2.62,6.19,6.69,5.92C1106.12,417,1107.41,414.08,1107.36,409.71Zm15.25,265.89c4.44-2.23,4.34-7.14,5.46-11.13.56-2-1.6-5.05-3.17-4.16-3.76,2.13-7.81,5-9.75,8.58C1114.28,670.52,1118.62,674.19,1122.61,675.6Zm-4.8-178c-.16-4.3-2.43-6.53-6.59-6.24-3.76.26-7.13,2.33-6.93,6.24.21,4.07,4.48,5,7.75,5.6C1115.9,503.85,1117.5,501.11,1117.81,497.6Zm105.07,273c-.36-5.27-5.24-4.69-8.53-5.76-2.53-.83-5.56.79-5,3.6.65,3.61,2.49,7.75,7,7.86C1219.3,776.36,1222.43,774.77,1222.88,770.58ZM1091.44,558.66c-2.83.87-6.69,1.35-6.77,5.83-.1,6,5.35,4.26,8.42,5.18,4.51,1.35,3.61-2.69,3.78-5.17C1097.11,561,1096.2,558.31,1091.44,558.66Zm-44.26-63.29c-2,.24-4.81.27-4.29,3.87.48,3.38,3.13,4.36,6.17,4.38,2.45,0,5.45.17,5.34-3.31C1054.26,496.27,1051.08,495.45,1047.18,495.37Z"/><path class="cls-2" d="M1142.86,1081.49c10.5-12.31,19.79-23.48,29.39-34.37s19.59-21.32,35.32-22.42c17.55-1.23,27.06,7,28.25,24.54,1,14.39-1,28.63-2.9,42.86-3.29,24.16-2.54,48.22,3.36,71.92a78.44,78.44,0,0,0,7.23,18.47c9.39,17.13,22,22.71,43.24,18.86,7.07-1.28,9.37-.35,8,7.3-4.25,24.63-15.28,45.16-36.76,58.51-25.7,16-61.82,3.47-75.08-25.35-10.43-22.69-10.07-46.91-9.26-71.12.62-18.25,4.7-36,7.83-53.89,1.09-6.2,2.41-12.44,2.55-18.68.12-5.59,3.4-13.07-2.83-16.35-6.06-3.19-12,1.43-17.14,5.16-12.83,9.26-20.54,21-22,37.43-2.8,30.64-6,61.28-11.09,91.67a46.41,46.41,0,0,1-5.06,14.82c-3.69,6.75-9.47,9.56-16.67,7.7-34.3-8.84-46.4-22.21-48.22-55.26-1.63-29.46,6.53-57.55,11.44-86.1,2.38-13.82,4.24-27.69,3.6-41.74-.1-2.23,1.13-5.45-1.63-6.59-3.07-1.26-5.23,1.48-7,3.44-10.4,11.4-15,25.89-20.76,39.74a226.36,226.36,0,0,1-26.68,47.32c-15.64,21.32-38.73,23.91-59.44,7.62-5.65-4.45-6.89-3.12-9.91,2.61-11.93,22.6-25.19,44.36-43.4,62.72-23,23.25-49.92,24.33-78.57,13.7-26.87-10-39.6-30.77-42.66-58.43-.36-3.29,1.42-8-2.48-9.47-4.18-1.53-6.75,2.92-9.4,5.48-15.6,15.07-33.86,20.42-55,15.32-5.73-1.39-9.08.14-11.46,5.8s-5.83,11.14-9.13,16.49c-8.65,14-21.28,22-37.66,23.58-19.3,1.81-38.41-.17-57.42-3.58-24.06-4.32-39.09-18.74-47.24-41.28-1.15-3.21-1-7.05-5.29-10.63a165.94,165.94,0,0,0-16.32,39c-5.3,19.61-10.82,39.06-21.79,56.51-18.21,29-44.09,44-78.5,44a382.61,382.61,0,0,1-123.61-20.44c-8-2.71-14.22-3.37-22,2.51-15.93,12-39.34,10.9-54.68-2.23-9.66-8.27-9.8-21.26-11.16-32.93-2.09-18,3.95-34.86,11-50.76s9.08-32.16,9.89-48.88c1.55-32.16,3.08-64.34,3.84-96.53,1.16-49.5,8.54-98.15,18-146.64,5.26-27.09,8-54.62,13.59-81.72,6.77-32.72,23.85-56.07,55.24-68.62a192.65,192.65,0,0,0,24.46-12c6-3.48,11.69-4.78,17.64-.77,5.75,3.86,6.07,10.13,5.5,16-1.22,12.65-5.3,24.68-10.32,36.23a560.71,560.71,0,0,0-46.18,200.09c-2.62,57.61-10.08,115-15.38,172.51-.39,4.18-.78,8.36-1,12.55-1,21.69-1.08,21.81,19.56,30.2,27.62,11.22,56.09,20,85.5,24.62,24,3.8,48-.69,69.79-10.06,15.45-6.63,25.47-21.59,32.81-36.92,10.1-21.1,18.12-43.2,30.61-63.17a21.93,21.93,0,0,0,2.95-7.72c6-34.88,26.54-60.28,53.67-81,6.48-4.94,14.07-11,23.73-4.65,3,1.93,5.84-1.4,8.47-3,25.92-15.35,48.12-11.33,66,13,17.14,23.26,23.91,49.74,19.93,78.32-1.34,9.56,2.63,13.68,10.15,16.59,23.47,9.08,52.62-5.19,59.71-29.19,7.6-25.71,18.54-49.76,35.48-70.78,7.13-8.85,14.2-18,27.87-13.46,2.39.79,4-.66,5.23-2.5,15.86-23.27,44.41-19.58,63.83-4.35,23,18,37.13,40.69,37.65,70.52.28,16.12,11.52,24.14,23.14,31.14,8.71,5.24,21,1.23,27-7.38,4.21-6,8.68-12.11,11.32-18.85,13.28-34,34.78-63.81,49-97.29,4-9.46,11.19-13.87,22-11.44,7.83,1.77,15.61,3.61,23.36,5.83,18.06,5.18,24.9,17.77,25,35.34C1142.91,1047.05,1142.86,1063.11,1142.86,1081.49Zm-180.38,44.18c-2.76,9-2,16.11,11.12,18.15-3-5.64-2.22-10.13,2.11-14.07,2.09-1.9-.15-3.17-2.22-4.3-3.86-2.09-7.35-.4-11,.21,1.6-13.28-8-22-13.69-32.25,8.18-3.71,9.82-11.35,2.66-16.59-4-2.94-4.25-5.23-3.73-9.06.85-6.24-.78-9.8-8.31-9.55-6.17.21-10.81-3-8.24-10.24.89-2.48,2.68-4.41-.52-5.83-2.41-1.07-4.75-.47-5.91,2.51-2.11,5.37-7.17,7.41-11.41,10.94-3.1-7,2.48-9.37,5-13.16,2-2.93,6.46-7.1,1.74-9.71-7.66-4.25-14.53-10.52-24.52-10.25-6.85.18-13.4,3.34-19.75,1.09.89,9.25,2.75,18,2.3,26.72-.57,11.06,1.51,19.8,12.07,25.18,4.5,2.3,7.06,6.62,9.47,10.89,1.54,2.73,2.68,5.84,6.67,5.7,5.72-.19,5.57,3.74,5.72,7.81.33,8.9-1,17.73,3.56,26.47,3.27,6.21-4.2,15.72-11.23,16.25-2.23.18-4.24.49-4.68,3.13-.69,4.09,2.26,5.39,5.21,6.72,2.32,1,6.76-.28,6.47,3.66-.32,4.42-5.86,5.32-8.11,4.65-9.16-2.71-8.38,4.48-9.7,9-2,6.89-.06,15.87-10.82,17.4-1.85.26-2.79,3-1.32,4.16,5.6,4.52-1.43,5.64-2.51,8.88,7.61,1.71,11.95,8.87,21.19,11.34-3.13-5.7-.46-10.5-3.09-14.93-1.8-3,1.15-4.17,2.86-3.33,11.87,5.87,15.25-.73,16.92-10.77.22-1.29,2.46-2.25,3.78-3.34,4.53-3.76,9.35-7.4,5.52-14.37-1.25-2.27.57-3,1.93-4,9.46-7.28,13.26-16.71,10.36-28.43-.71-2.85-.35-4.92,2.36-6,2.31-.92,5.21-1.45,6.38,1.43,2.47,6,5.07,2.78,7.58.34C957,1126,959.61,1125.56,962.48,1125.67Zm-290-88.28c-3.78.48-8.07,2.35-11.25,1.18-13.3-4.92-18.64,5.54-25.84,12.43-2.33,2.23-1.94,7.3-6.67,7-6.47-.38-1.56-7-4.52-9.6-4.9,1.55-6.53,5.77-8.46,9.24-3.06,5.54-4.74,9.95-11.41,2.57-4.71-5.21-10.41-1.19-12.83,5.2-2,5.36.93,13.56-4.88,15.82-8.07,3.14-3.62,6.82-2.37,10.8h0c-5.28,1.16-15.54-4-11.42,9.07a2.37,2.37,0,0,1-1.76,3.24c-11.58,2.66-12.1,11.83-13.24,21.24-1.4,11.61-8,23.53,3.86,33.61a4.75,4.75,0,0,1,1.16,3.81c-1.69,9.86,7.5,17,6.14,26.92,4.76-8.9.26-19,4.73-28.74,3,7.17,11.48,10.8,8,19.07a52.84,52.84,0,0,0-4.69,19.76c5.15,1.48,8.15-3.18,12.57-4-3.08,11.82-.57,14.92,12.15,15.87,2.76.21,5.49.79,8.23,1.18,3.5.5,6.53-.56,7.47-4,1.09-4.06-.8-5.42-5.17-5.12s-4.75-3.3-3.85-6.56c1-3.63-.1-6.63-3.16-7.91-3.65-1.53-4.43,2.37-5.82,4.58-1.22,1.93-2.73,3.75-4.94,2.33-2.43-1.56-.4-3.7.3-5.52,2-5.19,5.7-10.52,3.76-16-4.88-13.75-4.34-28.18-5.18-42.22-.4-6.8-3.46-14.72.63-21.31,6.49-10.47,14.3-20.16,17.52-32.37.77-2.93,2.88-3.54,5.56-3.65,10.53-.45,21.42-1.94,25.61,11.64.87,2.8,3,4.18,6,5.2,21.1,7.2,29.9,23.79,24.49,45.47a9.07,9.07,0,0,0,0,4.08c2.16,9.33,1.78,18.52-.13,27.93-1.24,6.08,1,11.79,7.17,14.67,3,1.41,8.87-1.53,8.63,4.7-.26,6.7-8.12,2.07-10.76,6-.16.23-2.75-1.56-4.31-1.81-8-1.25-15.81-.47-20.15,7.35-3,5.42-5.41,10.18-12.81,9.79-2.48-.14-3.92,2.65-3.92,5.41,0,1.83.94,4.53,2.45,3.79,6.64-3.24,15.24,2.38,21-5.4,3.31-4.46,7.55-4.15,11.54-1.12a4.14,4.14,0,0,0,2.92.47c6.71-1.25,19.56-20.12,19-27.19-.26-3.16-1.81-9.38,1.94-8.89,8.47,1.11,10.67-5.6,15-9.38s7.13-5.88,9.06,1.7c.92,3.56,4,4.15,7.46,4.38,9.36.63,17.88-.53,25.29-7.21,3.17-2.85,8.13-5,5.05-9.68-2.52-3.8-10.65-4.46-12-2.69-6.76,8.71-14.72,1.86-24.37,4.7,10.28-10.89,1.25-13-4-16-7.23-4-9.39-9.48-4.92-16,5.46-7.93,3.51-17,2.09-24.94-1-5.61-3.07-10.7-2.28-16.83,1.08-8.23-3.46-11.72-12-10.64-2,.25-4.16,1.06-5.58-1.47.16-3.12,6.09-2.39,4.75-5.75-3.37-8.52-9.61-15.46-12.9-24.38-1.64-4.47-9.78-1.15-15.44,2.28.65-3.49,1.07-5.78,1.5-8.07.15-.3.3-.61.46-.91Zm-333,242.24c-2.79,8.76,1.7,9.57,8.55,12.7,16.88,7.73,35.65-3.69,51.57,7.08,2.06,1.4,3.46-1.71,5.25-2.49,6.14-2.69,15.19-5.32,18.46-.7,8.61,12.17,16.77,4.48,25.15,1.75,2.85-.92,5.11-3.57,8.51-3.51,20,.35,20,.34,18.45-19-.43-5.3-.56-9.1,6.44-4.46,4.32,2.86,7.06-3,10.91-3.75-.33-1.25-.31-2.81-1.07-3.7-2.78-3.29-6.28-4.84-10-1.63-4.14,3.59-6,2.38-6.89-2.49-.45-2.55-2.28-3.2-4.56-3.42-3-.29-7.37,0-6.65-4.43.53-3.31,4.57-3.82,7.77-3.94,8.22-.31,14.55,3.18,20.27,9.05,6.24,6.39,16.24,5.92,18.44-.42s-5.08-15.36,5.75-19.1c-.84-1.47-2.49-3-2.37-4.41.45-5.31-5.28-13.27,5.56-14.55,2.81-.34,5.83,0,6.14-4a5.4,5.4,0,0,0-2.45-5.41c-3.54-2.2-5.83.21-8.18,2.38-7.63,7.05-11.65,16.16-14.23,25.89-.85,3.23-1.26,7.61-5.06,5.87-6.64-3-12.82,1.24-19.51-.44-4.13-1-10.73-.8-14.5,3.68-5.47,6.51-10.93,6.86-18.4,2.85-3.27-1.76-11.48-6.48-11,5,.13,2.83-3.9,3.59-6.66,3.94-2.59.33-5.69-.46-6-3.06-1.1-9.07-7.68-7.09-13.34-7.29-4.84-.16-9.93,1-14.35-1.85-6.53-4.23-12.71-4.53-19.28.19-3.45,2.48-7.5,3.2-8.58-2.73-.56-3.06-2.78-3.62-5-4.61-8.87-3.94-17.62-8.15-26.56-11.92-4.89-2.06-9.64-5.77-15.48-1.23-2.54,2-6.22-.44-7-2.73-2.95-8.49-10.67-12.62-16-18.88-5.76-6.78-5.68-23.6,1.65-26.37,10.91-4.13,9.89-11.76,9.52-20a50.61,50.61,0,0,1,2-16.54c1.63-5.66,2.34-11.1.71-17.35-4.07-15.61,2-31.12,2.84-46.71.35-6.32,3.61-11.76-1-18.07-3.81-5.23-4.41-12.19,1.33-16,6.21-4.11,6.37-9.94,6.5-15.37.44-18.13,3.38-36,5.14-54,1.19-12.1-3.61-24,.87-36.14,1.42-3.82,4.36-8.92.85-14-4.66-6.69-2.87-12.4,3.49-17.13,3.61-2.69,5.45-5.73,3.44-10.79-2.94-7.41-2.59-14.87,4.41-20.18,4.14-3.14,5.94-7,5.08-11.8-2.71-15.23,15.41-26,8.94-42-.14-.34.6-1.34,1.14-1.6,13-6.45,7.81-18.92,7.82-28.38,0-7.22,1.12-8.42,7.24-8.23,7,.21,7.87-3.51,4.72-8.68a63.61,63.61,0,0,0-7.67-9.88c-1.9-2.06-5.73-2.5-4.88,1.06,1.44,6-12.94,7.87-3.51,15.14a2.79,2.79,0,0,1-.86,1.68c-10.34,6-9.79,12.59-1.48,20.21,1.91,1.74,2.37,5.67-1,7.09s-5.08-1.08-6-4.11a77,77,0,0,0-2.45-7.95c-4.53-10.92-4.63-11,.55-22.34.9-2,2.24-3.78.41-5.66-1.66-1.71-3.91-1.35-5.89-.58A29.32,29.32,0,0,0,332,772c-7.43,5-9.51,17.42-22.19,15.33-2.38-.39-2.54,3.5-3,5.94-1.09,5.44-2.2,10.89-8.39,13.41-3.94,1.6-4.81,4.09-2.11,8.24,2.37,3.62,6.74,9.49-3.51,9-2.15-.1-2.7,2-2.63,3.79.33,9.44-9.38,18-2.45,28.09.44.64.14,2.21-.35,3-6.22,10.15-6.95,22.17-10.72,33.13-3.07,8.92-5.84,18.48-4.69,29.38,1.24,11.66-.68,24,0,36.17.16,2.7-1.91,6-3.74,8.94-2.7,4.38-9.41,11.44-5.85,14.59,5.13,4.55,4.84,9.79,6.13,14.64,1.54,5.82,2.82,13.32-7.83,12.5-2.36-.19-5,2.21-3.54,3.75,6.69,7.2-.42,13.49-.67,20.15-1,27.08-3.64,54.12-2.11,81.28.18,3.13.68,6.57-.31,9.39-6.59,18.79-4.36,37.75-2,56.8.41,3.36,1.71,8.91-1.19,9.85-11.57,3.72-8.19,14.2-10.93,21.77-1.38,3.83.86,8.47-1.54,12.29-10,16-8.5,33.06-4.88,50.36.81,3.88,3.05,4.48,6.82,4.51,6.2,0,12.35.57,15,8.35,1.6,4.69,5.71,5.36,10.3,2.58,5.55-3.36,9.36-7.29,7.34-14.36-2.13-7.47,0-10.11,8.23-9.12,7.21.87,13.75.91,13.15,10.68C308.71,1279.49,322.81,1285.29,339.53,1279.63Zm491-151a251.18,251.18,0,0,0,4.63,53.88c1.79,9.42,3.08,20.83,15.08,22.75,11.61,1.86,17.64-7.84,22.44-16.09,13.57-23.3,23.08-48.56,33.33-73.43,1.2-2.92,2.08-5.41-.58-8.57q-19.89-23.69-39.13-47.9c-2.23-2.79-3.63-2.87-5.38-.12C846.59,1081.47,825.19,1100.82,830.49,1128.61Zm-209.34-48.53c-22.61,35.89-25.72,72-7.28,109.49,5.33,10.84,15.79,16.75,23.12,12.14,21.17-13.31,34.22-30.13,31.38-57.69-2.41-23.46-11.63-40.46-32.52-51.18A36.67,36.67,0,0,1,621.15,1080.08Zm202.93,40.59c0-6.64-.05-13.27,0-19.9,0-2.15,2.76-4.81-1-6.14a5.52,5.52,0,0,0-7.11,2.85c-1.64,3-2.58,6.48-4.31,9.47-2.74,4.73-5.62,3.29-8.22-.34-.5,1.29-1.06,2.56-1.48,3.87-2.63,8.19-3.91,17.15-8.15,24.39-5.61,9.6-.76,16.47,3.62,23.45,1.77,2.82,3.12,4.22.53,6.79-5.41,5.36-3.53,11.08-1.63,17.4,3.1,10.37,18.72,12.15,17.14,25.58,0,.31,3.66,1.13,5.64,1.61,9.75,2.36,19.43,4.28,28.19,10.17,5.75,3.86,12.32,7.49,20.32,6.74,9.59-.89,6.51-9.86,8.81-14.59,1.4-2.87-6.35-1.79-10.14-1.42-1,.1-2,.74-3,.92-22.39,3.94-37-5.38-37-26.12C826.25,1163.75,822.93,1142.3,824.08,1120.67Zm22.6-80.15c-3.91-1.54-6.57-.18-8,2.28-4.46,7.48-9.23,14.91-12.47,22.94-1.89,4.69-2,9.54-8.63,9.65-3.77.06-5.56,3.79-3.49,5.63,4.22,3.75,12.69,8.18,15.15,5,4.41-5.65,13.18-10.17,13.92-14.38,1.82-10.37,9.75-13.39,15.56-19,2.8-2.69,4.58-5.82,3.8-9-.83-3.45-4.75-1.75-7.33-2C852,1041.45,848.85,1041.72,846.68,1040.52Zm-307.57,124c-1.71,5.65-6.51,10.14-2.18,16C542.36,1176.45,544.12,1171.77,539.11,1164.48Zm439.69-25.9c2.33,4.59,3.44,7.63,8.27,6.85C986.37,1141.43,984.46,1139.52,978.8,1138.58Zm14.69-2.47c-.31-2.86-1-3.83-2.07-3.34a5.22,5.22,0,0,0-2.78,2.51c-.51,1.56.71,2.48,2.29,2A11.08,11.08,0,0,0,993.49,1136.11ZM584,1077.38c-1.12-.79-1.8-1.66-2.52-1.68s-2.18.55-2.34,1.13c-.47,1.67.86,2.33,2.25,2.21C582.1,1079,582.79,1078.15,584,1077.38Zm425.55,64.09c-2.21-1.72-3.61-3.36-5.76-2a1.78,1.78,0,0,0-.27,1.69C1005.07,1142.67,1006.92,1142.86,1009.51,1141.47Zm-723.95,138c-.93-.89-1.49-1.85-2.17-2s-2.23.25-2.51.82c-.7,1.49.3,2.48,1.8,2.47C283.48,1280.76,284.28,1280.06,285.56,1279.44Zm480.57-119.27c.41-1.56-.29-2.32-1.35-2.21a3.37,3.37,0,0,0-2.29,1.38c-.79,1.27.38,1.78,1.34,1.73A7.13,7.13,0,0,0,766.13,1160.17Zm227.3-12.69c-.25.58-.84,1.3-.67,1.71a1.76,1.76,0,0,0,1.63.72,1.79,1.79,0,0,0,.71-1.62C994.92,1147.86,994,1147.73,993.43,1147.48Z"/><path class="cls-4" d="M1353.36,155.92c-.78,36.12-6.22,71.57-14.45,106.7-1.44,6.16-3.14,8.43-9.66,5.76C1271.67,244.76,1214.72,220,1163,184.62c-19-13-32.94-30-43.1-50.36-19.8-39.69-31.87-81.91-41-125.09-1-5-2.3-9.85,6.15-9.09,57.41,5.19,115.09,8.77,170.37,27,31.84,10.48,59.54,27.48,79.83,55,15.13,20.49,17.94,44.22,18.06,68.66Z"/><path class="cls-2" d="M2105.68,790.53A206.75,206.75,0,0,1,2095,842c-13.56,39.51-62.68,41.2-88,18.91-11.67-10.25-16.94-23-15-38.28,2.48-19.22,9.68-36.41,23.61-50.32a41.66,41.66,0,0,1,18.79-10.87,152.18,152.18,0,0,0,20.61-7.63C2085.2,740.44,2105.82,753.72,2105.68,790.53Z"/><path class="cls-4" d="M1368.55,244.56c-2.47-47.67,2.77-92.21,19.21-134.84,12-31.1,24.08-35,54-20A196.07,196.07,0,0,1,1470.53,107c9.79,7.21,10.49,10.57,3.64,20.85-8,12-19,21.29-29.35,31.19-24.43,23.39-50.66,45.11-69.13,74.06C1373.65,236.27,1371.68,239.51,1368.55,244.56Z"/><path class="cls-1" d="M1252.51,371.14c-3.16,3.31-3.82,1-4.19-1.88C1250.05,369.16,1251.57,369.51,1252.51,371.14Z"/><path class="cls-3" d="M1346.59,879.6c-1,.84-1.58,1.76-2.27,1.83s-2.23-.37-2.45-.94c-.59-1.54.54-2.43,2-2.38C1344.62,878.13,1345.37,878.9,1346.59,879.6Z"/><path class="cls-1" d="M1157.73,603.74c.66,5.46-1.9,9-6.08,8.25-5.11-.86-9.76-4.47-10.06-10.31-.26-5.29,4.77-6.7,8.67-7.19C1157.7,593.57,1155.8,600.73,1157.73,603.74Z"/><path class="cls-1" d="M1126.08,648.7c-2.3.08-6.12-1.21-5.73-6.9.25-3.77,2.46-7.12,6.43-6.89,4.58.26,9.15,2.17,9.57,7.78C1136.75,648.15,1132.61,648.54,1126.08,648.7Z"/><path class="cls-1" d="M1101.22,463.7c-3.64-.09-7.73-2.13-7.78-6.9s4.78-5.26,8.58-5.49c4.46-.28,7.52,1.59,7.35,6.57C1109.21,462.35,1106.22,463.67,1101.22,463.7Z"/><path class="cls-1" d="M1086.23,505.2c-1.4,3.81-3.58,7-8.14,6.36-4.23-.61-6.73-3.19-6.25-8,.44-4.29,2.83-6.33,6.91-5.9C1083,498.15,1085.48,500.84,1086.23,505.2Z"/><path class="cls-1" d="M1164.48,734.8c-3.91,0-8.25-.12-8.18-5.39.06-4.52,3.94-5,7.57-5,3.92,0,8.26.1,8.19,5.38C1172,734.33,1168.12,734.78,1164.48,734.8Z"/><path class="cls-1" d="M1088.09,612.89c-4.58.17-8-.15-7.84-5.27.12-3.94,1.45-7.66,5.94-6.55,3.76.93,8.4,2.81,8.27,8C1094.34,613.84,1090.25,612.67,1088.09,612.89Z"/><path class="cls-1" d="M1054.05,562.46c-3.89,0-7-1.14-7.24-5.6s3.2-6.22,6.65-6.37c4.34-.18,7.29,2.81,7.31,7.11C1060.78,561.48,1057.48,562.44,1054.05,562.46Z"/><path class="cls-1" d="M1107.36,409.71c.05,4.37-1.24,7.32-5.6,7.6-4.07.27-6.6-1.67-6.69-5.92s2.34-6.13,6.42-6.32C1105.15,404.9,1107.53,406.05,1107.36,409.71Z"/><path class="cls-1" d="M1122.61,675.6c-4-1.41-8.33-5.08-7.46-6.71,1.94-3.62,6-6.45,9.75-8.58,1.57-.89,3.73,2.18,3.17,4.16C1127,668.46,1127.05,673.37,1122.61,675.6Z"/><path class="cls-1" d="M1117.81,497.6c-.31,3.51-1.91,6.25-5.77,5.6-3.27-.56-7.54-1.53-7.75-5.6-.2-3.91,3.17-6,6.93-6.24C1115.38,491.07,1117.65,493.3,1117.81,497.6Z"/><path class="cls-1" d="M1222.88,770.58c-.45,4.19-3.58,5.78-6.62,5.7-4.47-.11-6.31-4.25-7-7.86-.51-2.81,2.52-4.43,5-3.6C1217.64,765.89,1222.52,765.31,1222.88,770.58Z"/><path class="cls-1" d="M1091.44,558.66c4.76-.35,5.67,2.37,5.43,5.84-.17,2.48.73,6.52-3.78,5.17-3.07-.92-8.52.8-8.42-5.18C1084.75,560,1088.61,559.53,1091.44,558.66Z"/><path class="cls-1" d="M1047.18,495.37c3.9.08,7.08.9,7.22,4.94.11,3.48-2.89,3.32-5.34,3.31-3,0-5.69-1-6.17-4.38C1042.37,495.64,1045.21,495.61,1047.18,495.37Z"/><path class="cls-5" d="M339.53,1279.63c-16.72,5.66-30.82-.14-45.13-3.2.6-9.77-5.94-9.81-13.15-10.68-8.21-1-10.36,1.65-8.23,9.12,2,7.07-1.79,11-7.34,14.36-4.59,2.78-8.7,2.11-10.3-2.58-2.67-7.78-8.82-8.3-15-8.35-3.77,0-6-.63-6.82-4.51-3.62-17.3-5.15-34.37,4.88-50.36,2.4-3.82.16-8.46,1.54-12.29,2.74-7.57-.64-18.05,10.93-21.77,2.9-.94,1.6-6.49,1.19-9.85-2.39-19-4.62-38,2-56.8,1-2.82.49-6.26.31-9.39-1.53-27.16,1.11-54.2,2.11-81.28.25-6.66,7.36-12.95.67-20.15-1.43-1.54,1.18-3.94,3.54-3.75,10.65.82,9.37-6.68,7.83-12.5-1.29-4.85-1-10.09-6.13-14.64-3.56-3.15,3.15-10.21,5.85-14.59,1.83-3,3.9-6.24,3.74-8.94-.68-12.14,1.24-24.51,0-36.17-1.15-10.9,1.62-20.46,4.69-29.38,3.77-11,4.5-23,10.72-33.13.49-.8.79-2.37.35-3-6.93-10.07,2.78-18.65,2.45-28.09-.07-1.84.48-3.89,2.63-3.79,10.25.51,5.88-5.36,3.51-9-2.7-4.15-1.83-6.64,2.11-8.24,6.19-2.52,7.3-8,8.39-13.41.49-2.44.65-6.33,3-5.94C322.53,789.43,324.61,777,332,772a29.32,29.32,0,0,1,5.55-2.9c2-.77,4.23-1.13,5.89.58,1.83,1.88.49,3.69-.41,5.66-5.18,11.31-5.08,11.42-.55,22.34a77,77,0,0,1,2.45,7.95c.89,3,2.71,5.49,6,4.11s2.93-5.35,1-7.09c-8.31-7.62-8.86-14.16,1.48-20.21a2.79,2.79,0,0,0,.86-1.68c-9.43-7.27,4.95-9.09,3.51-15.14-.85-3.56,3-3.12,4.88-1.06a63.61,63.61,0,0,1,7.67,9.88c3.15,5.17,2.24,8.89-4.72,8.68-6.12-.19-7.23,1-7.24,8.23,0,9.46,5.14,21.93-7.82,28.38-.54.26-1.28,1.26-1.14,1.6,6.47,16-11.65,26.76-8.94,42,.86,4.81-.94,8.66-5.08,11.8-7,5.31-7.35,12.77-4.41,20.18,2,5.06.17,8.1-3.44,10.79-6.36,4.73-8.15,10.44-3.49,17.13,3.51,5,.57,10.14-.85,14-4.48,12.1.32,24-.87,36.14-1.76,17.95-4.7,35.87-5.14,54-.13,5.43-.29,11.26-6.5,15.37-5.74,3.8-5.14,10.76-1.33,16,4.58,6.31,1.32,11.75,1,18.07-.85,15.59-6.91,31.1-2.84,46.71,1.63,6.25.92,11.69-.71,17.35a50.61,50.61,0,0,0-2,16.54c.37,8.27,1.39,15.9-9.52,20-7.33,2.77-7.41,19.59-1.65,26.37,5.33,6.26,13.05,10.39,16,18.88.8,2.29,4.48,4.7,7,2.73,5.84-4.54,10.59-.83,15.48,1.23,8.94,3.77,17.69,8,26.56,11.92,2.24,1,4.46,1.55,5,4.61,1.08,5.93,5.13,5.21,8.58,2.73,6.57-4.72,12.75-4.42,19.28-.19,4.42,2.85,9.51,1.69,14.35,1.85,5.66.2,12.24-1.78,13.34,7.29.31,2.6,3.41,3.39,6,3.06,2.76-.35,6.79-1.11,6.66-3.94-.51-11.45,7.7-6.73,11-5,7.47,4,12.93,3.66,18.4-2.85,3.77-4.48,10.37-4.71,14.5-3.68,6.69,1.68,12.87-2.61,19.51.44,3.8,1.74,4.21-2.64,5.06-5.87,2.58-9.73,6.6-18.84,14.23-25.89,2.35-2.17,4.64-4.58,8.18-2.38a5.4,5.4,0,0,1,2.45,5.41c-.31,4-3.33,3.69-6.14,4-10.84,1.28-5.11,9.24-5.56,14.55-.12,1.39,1.53,2.94,2.37,4.41-10.83,3.74-3.57,12.83-5.75,19.1s-12.2,6.81-18.44.42c-5.72-5.87-12-9.36-20.27-9.05-3.2.12-7.24.63-7.77,3.94-.72,4.45,3.62,4.14,6.65,4.43,2.28.22,4.11.87,4.56,3.42.85,4.87,2.75,6.08,6.89,2.49,3.7-3.21,7.2-1.66,10,1.63.76.89.74,2.45,1.07,3.7-3.85.79-6.59,6.61-10.91,3.75-7-4.64-6.87-.84-6.44,4.46,1.58,19.38,1.56,19.39-18.45,19-3.4-.06-5.66,2.59-8.51,3.51-8.38,2.73-16.54,10.42-25.15-1.75-3.27-4.62-12.32-2-18.46.7-1.79.78-3.19,3.89-5.25,2.49-15.92-10.77-34.69.65-51.57-7.08C341.23,1289.2,336.74,1288.39,339.53,1279.63Zm-80.91-138.4c2.53-4.12,2.84-8.14.85-12.06-.18-.35-2.34-.36-2.74.15C253.1,1133.81,257,1137.38,258.62,1141.23ZM320.78,902.5c4-2.19,5.23-4.83,4.28-8.16a2.25,2.25,0,0,0-3.46-1.14C318.36,895.52,319.45,898.58,320.78,902.5Zm-1.55,26.76c-.16-2.25-1.05-4.1-3.48-4.38-1.73-.19-2.28,1.36-2.34,2.75-.09,2.18.35,4.25,3.17,4.27C318.21,931.92,318.89,930.71,319.23,929.26Zm-40,170.06c-.22-1.5-1-2.59-2.59-2.61s-2.71.57-2.83,2.27c-.16,2.1.92,3.19,3,3.1C278.45,1102,279,1100.77,279.22,1099.32Zm-20.09,73c-.92.85-1.92,1.34-2.06,2a2.85,2.85,0,0,0,.72,2.51c1.43.8,2.48-.07,2.5-1.61C260.31,1174.47,259.66,1173.64,259.13,1172.37Zm1.54,15.84c-.57-1.11-.83-2.43-1.44-2.62-1.57-.5-2.43.69-2.31,2.11a2.66,2.66,0,0,0,1.55,2C259,1189.78,259.82,1188.8,260.67,1188.21ZM310.32,999c-.58-.25-1.29-.83-1.7-.67s-.55,1.07-.8,1.65c.58.26,1.29.84,1.7.67S310.07,999.61,310.32,999Zm-46.7,85.19c.58.25,1.29.83,1.7.66s.55-1.07.8-1.65c-.58-.25-1.29-.83-1.7-.67S263.87,1083.63,263.62,1084.22Zm-3.72,78.7c-.58-.25-1.29-.83-1.71-.67s-.54,1.07-.8,1.65c.58.25,1.29.84,1.7.67S259.64,1163.5,259.9,1162.92Z"/><path class="cls-5" d="M584.28,1092.05c-1.25-4-5.7-7.66,2.37-10.8,5.81-2.26,2.84-10.46,4.88-15.82,2.42-6.39,8.12-10.41,12.83-5.2,6.67,7.38,8.35,3,11.41-2.57,1.93-3.47,3.56-7.69,8.46-9.24,3,2.59-2,9.22,4.52,9.6,4.73.28,4.34-4.79,6.67-7,7.2-6.89,12.54-17.35,25.84-12.43,3.18,1.17,7.47-.7,11.25-1.18l0,0c-.43,2.29-.85,4.58-1.5,8.07,5.66-3.43,13.8-6.75,15.44-2.28,3.29,8.92,9.53,15.86,12.9,24.38,1.34,3.36-4.59,2.63-4.75,5.75,1.42,2.53,3.61,1.72,5.58,1.47,8.5-1.08,13,2.41,12,10.64-.79,6.13,1.28,11.22,2.28,16.83,1.42,7.94,3.37,17-2.09,24.94-4.47,6.49-2.31,11.94,4.92,16,5.27,2.94,14.3,5.09,4,16,9.65-2.84,17.61,4,24.37-4.7,1.38-1.77,9.51-1.11,12,2.69,3.08,4.66-1.88,6.83-5.05,9.68-7.41,6.68-15.93,7.84-25.29,7.21-3.46-.23-6.54-.82-7.46-4.38-1.93-7.58-4.7-5.49-9.06-1.7s-6.55,10.49-15,9.38c-3.75-.49-2.2,5.73-1.94,8.89.57,7.07-12.28,25.94-19,27.19A4.14,4.14,0,0,1,672,1213c-4-3-8.23-3.34-11.54,1.12-5.77,7.78-14.37,2.16-21,5.4-1.51.74-2.44-2-2.45-3.79,0-2.76,1.44-5.55,3.92-5.41,7.4.39,9.8-4.37,12.81-9.79,4.34-7.82,12.11-8.6,20.15-7.35,1.56.25,4.15,2,4.31,1.81,2.64-4,10.5.67,10.76-6,.24-6.23-5.59-3.29-8.63-4.7-6.17-2.88-8.41-8.59-7.17-14.67,1.91-9.41,2.29-18.6.13-27.93a9.07,9.07,0,0,1,0-4.08c5.41-21.68-3.39-38.27-24.49-45.47-3-1-5.14-2.4-6-5.2-4.19-13.58-15.08-12.09-25.61-11.64-2.68.11-4.79.72-5.56,3.65-3.22,12.21-11,21.9-17.52,32.37-4.09,6.59-1,14.51-.63,21.31.84,14,.3,28.47,5.18,42.22,1.94,5.46-1.78,10.79-3.76,16-.7,1.82-2.73,4-.3,5.52,2.21,1.42,3.72-.4,4.94-2.33,1.39-2.21,2.17-6.11,5.82-4.58,3.06,1.28,4.15,4.28,3.16,7.91-.9,3.26-.48,6.85,3.85,6.56s6.26,1.06,5.17,5.12c-.94,3.49-4,4.55-7.47,4-2.74-.39-5.47-1-8.23-1.18-12.72-.95-15.23-4-12.15-15.87-4.42.87-7.42,5.53-12.57,4a52.84,52.84,0,0,1,4.69-19.76c3.5-8.27-5-11.9-8-19.07-4.47,9.79,0,19.84-4.73,28.74,1.36-9.94-7.83-17.06-6.14-26.92a4.75,4.75,0,0,0-1.16-3.81c-11.83-10.08-5.26-22-3.86-33.61,1.14-9.41,1.66-18.58,13.24-21.24a2.37,2.37,0,0,0,1.76-3.24c-4.12-13,6.14-7.91,11.42-9.07.79,9.69-3.52,19-2.06,28.76.32,2.13.56,4.3,3.36,4.21a2.66,2.66,0,0,0,2.61-2.69c.36-8.57.47-17.13,1.92-25.66C590.62,1093.75,587.35,1092.24,584.28,1092.05Z"/><path class="cls-5" d="M962.48,1125.67c-2.87-.11-5.49.31-7.72,2.47-2.51,2.44-5.11,5.68-7.58-.34-1.17-2.88-4.07-2.35-6.38-1.43-2.71,1.09-3.07,3.16-2.36,6,2.9,11.72-.9,21.15-10.36,28.43-1.36,1-3.18,1.72-1.93,4,3.83,7-1,10.61-5.52,14.37-1.32,1.09-3.56,2-3.78,3.34-1.67,10-5.05,16.64-16.92,10.77-1.71-.84-4.66.29-2.86,3.33,2.63,4.43,0,9.23,3.09,14.93-9.24-2.47-13.58-9.63-21.19-11.34,1.08-3.24,8.11-4.36,2.51-8.88-1.47-1.18-.53-3.9,1.32-4.16,10.76-1.53,8.82-10.51,10.82-17.4,1.32-4.54.54-11.73,9.7-9,2.25.67,7.79-.23,8.11-4.65.29-3.94-4.15-2.62-6.47-3.66-3-1.33-5.9-2.63-5.21-6.72.44-2.64,2.45-3,4.68-3.13,7-.53,14.5-10,11.23-16.25-4.6-8.74-3.23-17.57-3.56-26.47-.15-4.07,0-8-5.72-7.81-4,.14-5.13-3-6.67-5.7-2.41-4.27-5-8.59-9.47-10.89-10.56-5.38-12.64-14.12-12.07-25.18.45-8.68-1.41-17.47-2.3-26.72,6.35,2.25,12.9-.91,19.75-1.09,10-.27,16.86,6,24.52,10.25,4.72,2.61.24,6.78-1.74,9.71-2.57,3.79-8.15,6.14-5,13.16,4.24-3.53,9.3-5.57,11.41-10.94,1.16-3,3.5-3.58,5.91-2.51,3.2,1.42,1.41,3.35.52,5.83-2.57,7.21,2.07,10.45,8.24,10.24,7.53-.25,9.16,3.31,8.31,9.55-.52,3.83-.28,6.12,3.73,9.06,7.16,5.24,5.52,12.88-2.66,16.59,5.73,10.26,15.29,19,13.69,32.25Z"/><path class="cls-5" d="M824.08,1120.67c-1.15,21.63,2.17,43.08,2.22,64.73,0,20.74,14.65,30.06,37,26.12,1-.18,2-.82,3-.92,3.79-.37,11.54-1.45,10.14,1.42-2.3,4.73.78,13.7-8.81,14.59-8,.75-14.57-2.88-20.32-6.74-8.76-5.89-18.44-7.81-28.19-10.17-2-.48-5.68-1.3-5.64-1.61,1.58-13.43-14-15.21-17.14-25.58-1.9-6.32-3.78-12,1.63-17.4,2.59-2.57,1.24-4-.53-6.79-4.38-7-9.23-13.85-3.62-23.45,4.24-7.24,5.52-16.2,8.15-24.39.42-1.31,1-2.58,1.48-3.87,2.6,3.63,5.48,5.07,8.22.34,1.73-3,2.67-6.42,4.31-9.47a5.52,5.52,0,0,1,7.11-2.85c3.75,1.33,1,4,1,6.14C824,1107.4,824.08,1114,824.08,1120.67Zm-14,29.59-1.79.06V1181l1.79-.07Z"/><path class="cls-5" d="M846.68,1040.52c2.17,1.2,5.34.93,8.48,1.16,2.58.2,6.5-1.5,7.33,2,.78,3.23-1,6.36-3.8,9-5.81,5.59-13.74,8.61-15.56,19-.74,4.21-9.51,8.73-13.92,14.38-2.46,3.16-10.93-1.27-15.15-5-2.07-1.84-.28-5.57,3.49-5.63,6.65-.11,6.74-5,8.63-9.65,3.24-8,8-15.46,12.47-22.94C840.11,1040.34,842.77,1039,846.68,1040.52Zm-8.71,17.2a10.34,10.34,0,0,0,3,.54c1.57-.24,4.25-.79,2.09-2.86C841.6,1054,839.36,1055.63,838,1057.72Z"/><path class="cls-5" d="M962.5,1125.66c3.64-.61,7.13-2.3,11-.21,2.07,1.13,4.31,2.4,2.22,4.3-4.33,3.94-5.06,8.43-2.11,14.07-13.16-2-13.88-9.19-11.12-18.15Z"/><path class="cls-5" d="M539.11,1164.48c5,7.29,3.25,12-2.18,16C532.6,1174.62,537.4,1170.13,539.11,1164.48Z"/><path class="cls-5" d="M978.8,1138.58c5.66.94,7.57,2.85,8.27,6.85C982.24,1146.21,981.13,1143.17,978.8,1138.58Z"/><path class="cls-5" d="M993.49,1136.11a11.08,11.08,0,0,1-2.56,1.21c-1.58.44-2.8-.48-2.29-2a5.22,5.22,0,0,1,2.78-2.51C992.52,1132.28,993.18,1133.25,993.49,1136.11Z"/><path class="cls-5" d="M584,1077.38c-1.17.77-1.86,1.59-2.61,1.66-1.39.12-2.72-.54-2.25-2.21.16-.58,1.54-1.16,2.34-1.13S582.84,1076.59,584,1077.38Z"/><path class="cls-5" d="M1009.51,1141.47c-2.59,1.39-4.44,1.2-6-.29a1.78,1.78,0,0,1,.27-1.69C1005.9,1138.11,1007.3,1139.75,1009.51,1141.47Z"/><path class="cls-5" d="M285.56,1279.44c-1.28.62-2.08,1.32-2.88,1.33-1.5,0-2.5-1-1.8-2.47.28-.57,1.7-1,2.51-.82S284.63,1278.55,285.56,1279.44Z"/><path class="cls-5" d="M766.13,1160.17a7.13,7.13,0,0,1-2.3.9c-1,0-2.13-.46-1.34-1.73a3.37,3.37,0,0,1,2.29-1.38C765.84,1157.85,766.54,1158.61,766.13,1160.17Z"/><path class="cls-5" d="M993.43,1147.48c.59.25,1.49.38,1.67.81a1.79,1.79,0,0,1-.71,1.62,1.76,1.76,0,0,1-1.63-.72C992.59,1148.78,993.18,1148.06,993.43,1147.48Z"/><path class="cls-5" d="M672.51,1037.39l.51-.86c-.16.3-.31.61-.46.91Z"/><path class="cls-2" d="M258.62,1141.23c-1.65-3.85-5.52-7.42-1.89-11.91.4-.51,2.56-.5,2.74-.15C261.46,1133.09,261.15,1137.11,258.62,1141.23Z"/><path class="cls-2" d="M320.78,902.5c-1.33-3.92-2.42-7,.82-9.3a2.25,2.25,0,0,1,3.46,1.14C326,897.67,324.78,900.31,320.78,902.5Z"/><path class="cls-2" d="M319.22,929.27c-.33,1.44-1,2.65-2.64,2.63-2.82,0-3.26-2.09-3.17-4.27.06-1.39.61-2.94,2.34-2.75C318.18,925.16,319.07,927,319.22,929.27Z"/><path class="cls-2" d="M279.22,1099.33c-.21,1.44-.77,2.68-2.43,2.75-2.07.09-3.15-1-3-3.1.12-1.7,1.4-2.3,2.83-2.27S279,1097.82,279.22,1099.33Z"/><path class="cls-2" d="M259.13,1172.37c.53,1.27,1.18,2.1,1.16,2.91,0,1.54-1.07,2.41-2.5,1.61a2.85,2.85,0,0,1-.72-2.51C257.21,1173.71,258.21,1173.22,259.13,1172.37Z"/><path class="cls-2" d="M260.67,1188.21c-.85.59-1.66,1.57-2.2,1.44a2.66,2.66,0,0,1-1.55-2c-.12-1.42.74-2.61,2.31-2.11C259.84,1185.78,260.1,1187.1,260.67,1188.21Z"/><path class="cls-2" d="M310.32,999c-.25.58-.38,1.48-.8,1.65s-1.12-.41-1.7-.67c.25-.58.38-1.48.8-1.65S309.74,998.78,310.32,999Z"/><path class="cls-2" d="M263.61,1084.21c.26-.58.39-1.48.81-1.65s1.12.42,1.7.67c-.25.58-.38,1.49-.8,1.65S264.2,1084.47,263.61,1084.21Z"/><path class="cls-2" d="M259.9,1162.92c-.26.58-.39,1.48-.81,1.65s-1.12-.42-1.7-.67c.26-.58.38-1.48.8-1.65S259.32,1162.67,259.9,1162.92Z"/><path class="cls-2" d="M584.28,1092.05c3.07.19,6.34,1.7,5.84,4.62-1.45,8.53-1.56,17.09-1.92,25.66a2.66,2.66,0,0,1-2.61,2.69c-2.8.09-3-2.08-3.36-4.21-1.46-9.74,2.85-19.07,2.06-28.76Z"/><path class="cls-2" d="M810.13,1150.26V1181l-1.79.07v-30.7Z"/><path class="cls-2" d="M838,1057.72c1.39-2.09,3.63-3.75,5.13-2.32,2.16,2.07-.52,2.62-2.09,2.86A10.34,10.34,0,0,1,838,1057.72Z"/></svg>