<svg id="Layer_1" data-name="Layer 1" xmlns="http://www.w3.org/2000/svg" viewBox="0 0 1569.1 1476.38"><defs><style>.cls-1{fill:#fff;}</style></defs><path class="cls-1" d="M800.36,170.09c0,52.27.13,104.54-.16,156.8,0,7,2.06,11.14,7.93,15,21.86,14.5,44,28.5,59.86,50.52,14.66,20.37,20.6,43.19,22.79,67.44,2,22.55,0,45.19.52,67.72,2,77.81.56,155.63,1.62,233.43.13,9.87-3.26,14-12.22,17a424.12,424.12,0,0,0-92.07,42.59c-6.48,4-11.7,4.39-18.91,0-32.06-19.46-63.51-40.23-100-51.25-12.91-3.9-25.78-8.08-39.33-8.37-9.47-.19-11.88-4.07-11.83-13.33.38-79.31.64-158.63,0-237.94-.18-21.87-.32-43.59,2.44-65.31,4.86-38.28,25.51-67.51,57.14-86.5,24.42-14.66,32-31.52,31.48-59.59-1.91-95.36-.52-190.78-.85-286.17,0-9.91,3.07-12.38,12.48-12.11q33.4,1,66.87,0c9.49-.28,12.66,2.29,12.58,12.16-.45,52.63-.21,105.26-.21,157.89Z"/><path class="cls-1" d="M418.58,848c8.26-2.67,13.78-9.37,20.18-14.52,24-19.33,51.14-33.73,79.14-45.22C538,780,560.47,776.1,582.66,774.07c6.83-.63,9.76,1.28,9.73,9.7q-.52,123.32.34,246.63c0,8.3-3.45,9.11-9.66,9-45.35-.45-90.08,5.61-134.61,13.27a543.35,543.35,0,0,0-68.74,16.45c-6.26,1.95-7,.22-6.92-4.82q.1-15.88.14-31.78c.1-138.46.78-276.93,0-415.38-.27-46.32,20.66-78.52,58.6-101.41,9.95-6,14-12.63,14-24.42-.48-79.65-.12-159.31-.44-239,0-8.78,1.58-11.34,11.22-11.6,18.9-.53,37.85,2,56.74-.84,5-.75,6.67,2.94,6.55,7.78-.21,9.12,0,18.26,0,27.39,0,73.09.27,146.17-.12,219.25,0,9.63,3.37,15.2,11.09,20.16,22.64,14.55,43.26,30.85,53.38,57.49,6.52,17.17,7.51,35,8,52.66,1.13,41.62.39,83.3.57,125,0,6.23-.82,9.57-8.66,10.18-61.49,4.78-112,33.38-156.74,73.86-4,3.61-9.4,5.88-11.58,11.36-10.89,8.29-20.08,18.09-26.72,30.16-2.71.14-3.47,2.33-4.47,4.26-.09.27-.19.53-.29.79,0-.31.09-.62.14-.92,2.94.08,4.51-1.26,4.45-4.29C400.73,868.42,409.63,858.2,418.58,848Z"/><path class="cls-1" d="M1072.72,764.91c-14.1-5.12-26.38-6.85-38.48-7.88-35-3-70-1.73-104.17,6.91-10.07,2.54-11.18-1.35-11.15-9.3q.3-86.62.36-173.26c0-18.69,1.2-37,7.77-54.88,9.44-25.75,27.67-43.92,50.35-57.12,16-9.33,21.47-19.82,21.16-39-1.37-84.39-.37-168.82-.48-253.24,0-6.27,1.68-8.39,8-8.32,20.83.27,41.67.34,62.5-.09,6.42-.13,8.42,2.09,8.3,8.14-.25,12.79-.13,25.58-.12,38.37q.18,115.7.23,231.39c0,7,2.29,11.21,8.25,15.06,17.76,11.48,35.4,23.19,48.4,40.53,13.62,18.18,19.68,38.85,20.52,61.15,3.76,100.46.63,201,1.83,301.45.09,7.46-2.35,11.79-8.86,15.76-45,27.49-93.87,39-146.28,35.78-25.92-1.62-50.95-7.92-75.58-16-4.28-1.42-6-3.76-6-7.82.11-36.91.34-73.82.31-110.73,0-5.24,3.71-5.82,7-6.69,43.61-11.5,87.62-18,132.71-9.83a37.72,37.72,0,0,0,6.56.38C1067.27,765.68,1068.66,765.38,1072.72,764.91Z"/><path class="cls-1" d="M619.06,908.09q0-60.27,0-120.54c0-11.36,1.67-12.45,12.85-10.31,42.05,8,78,29.53,114,51.15,45.3,27.23,90.54,54.67,140,74.08,6.92,2.72,6.73,7.8,6.73,13.27q.06,53.7,0,107.39c0,20.46-.43,40.93.36,61.36.39,10-3.21,12-11.93,9.87-30.39-7.47-60.09-17.21-89.8-26.94a551.26,551.26,0,0,0-109.58-23.64c-18.1-2-36.18-4.68-54.4-4.14-8.35.25-8.76-3.86-8.75-9.94q.11-60.8,0-121.61Z"/><path class="cls-1" d="M1155.77,881.91c0,30,0,58.79,0,87.54,0,40.57,0,81.14.23,121.71,0,7.2-1.36,10.73-9.69,12.44-51.48,10.52-103.38,11.83-155.48,8-21.65-1.61-43.12-5.65-64.72-8.18-5.22-.61-6.77-2.74-6.75-7.62q.21-86.09.2-172.15c0-7.77,3.91-6.72,9.3-5.25,26.77,7.33,53.91,12.33,81.83,11.71,49.72-1.11,95.5-14.49,136.23-43.65,1.49-1.06,3-2,4.58-3A36.65,36.65,0,0,1,1155.77,881.91Z"/><path class="cls-1" d="M1568.41,1285.16c1.65,8.81,0,15.4-1.52,22.06-1.32,5.57-5.9,5.32-9.52,5-24.57-2.07-49.25,1-73.89-2.28-6.17-.83-13.81,1.25-20.82,1.79-14.48,1.1-25.43-5-34.09-16-9.69-12.34-19.27-24.76-28.93-37.11-3.71-4.74-24.34-9-29.26-6.12-2.32,1.37-1.93,3.78-1.9,5.88.18,12.42.64,24.83.66,37.24,0,11.54,9,12,18.17,12.37l-1.44,2.61h-47c10.47-2.61,11.25-10.42,11.29-18.62.18-35,.09-70.11.58-105.15.15-10.65-7.33-11.65-15.19-13,1.87-4,4.75-2.55,6.85-2.57,17.17-.13,34.34-.2,51.5,0,16.36.17,30.74,5,37.66,21.17,6.55,15.32,1.71,29.31-8.21,41.77-3.61,4.52-11.27,9.22-10.71,12.86.86,5.66,7,10.61,11.21,15.64,8.39,10.11,17.15,19.91,25.39,30.13s19.83,14.9,31.86,16.59c4.84.68,14.15-.65,14.8-10.15.45-6.56,1.07-13.11,1.1-19.67.14-27.4.11-54.79.06-82.19,0-10.94,2.91-23.74-16.8-23.2l2.35-3h46.13c7.67,0,15.35.21,23,0,13.2-.42,13.31-.53,11.6,12.67-.44,3.41.56,7.34-2.66,10.34-4.8-2.81-1.62-10.81-8.91-12.43-10.9-2.42-21.79-1.75-32.71-1.77-4,0-3.18,3.27-3.18,5.62-.06,13.88.11,27.76-.07,41.64,0,4.23,1.43,6,5.65,5.69,13.29-.91,27,2.3,40.6-5.38-1.13,9.56-2.13,18-3.3,27.85-6.14-11.11-31.21-18.86-40.78-14-3.06,1.57-2,4.35-2.07,6.69-.11,13.88,0,27.76-.09,41.65,0,5.52,1.29,10.8,7.3,12,11.11,2.18,22.3,2.47,33.47-.55C1564.18,1299.12,1563.54,1291.53,1568.41,1285.16Zm-200-74.93c0,8.38-.06,16.76,0,25.14,0,2.84-.19,5.85,2.87,7.69,7,4.23,30,2.11,35.6-3.35,8.86-8.64,11.61-29.59,5.69-43.32-5-11.67-16.8-18.29-30.93-18.33-9.57,0-15.1,2.48-13.45,13.61C1369.17,1197.73,1368.44,1204,1368.46,1210.23Z"/><path class="cls-1" d="M987.56,1310.45c11-2,11.1-10.46,11.15-18.5.22-35.06-.09-70.13.52-105.18.19-11.34-7.9-11.13-14.89-14.47h48.45c-21.88,5.58-14.11,21.19-14.56,33.06-.91,24.23-.29,24.24,24,24.25,16.44,0,32.88-.2,49.31.2,6.26.15,8.25-1.92,7.91-8.06-.48-8.75.18-17.55-.28-26.29-.88-16.82-1.06-16.81-16.53-23.42h46.7c-15.55,4.36-11.38,17.17-11.47,27.91-.21,27-.52,54.08.15,81.09.29,11.86-4.69,28,16.23,29.7h-46.66c12.4-3.89,10.83-14.38,11.17-23.56.5-13.86.34-27.74.63-41.61.09-4.16-.28-6.71-5.69-6.64-23.37.27-46.76.19-70.13,0-4.3,0-5.7,1.42-5.62,5.65.29,16.43.64,32.87.34,49.3-.22,11.94,7.81,13.83,16.74,16.55Z"/><path class="cls-1" d="M669.74,1310.94h-47c13-4.88,11.47-16,11.55-26q.39-43.85.18-87.69c0-10.87,3.37-24.29-14.77-25.22h45.15c-14.36,2.7-11.47,13.67-11.52,23,0,8.77.59,17.58-.07,26.3-.55,7.2,2.39,8.46,8.76,8.36q31.77-.49,63.57,0c6,.09,8.61-1.21,8.18-7.83-.56-8.73,0-17.53-.13-26.29-.18-10.22,3-22.72-14.2-23.36H767.7c-19.65,4.45-14.91,17.87-15,28.85-.3,27-.11,54.07.19,81.11.13,12.12-3.15,26.7,16.36,28.54h-46.9c13.82-4.55,11.15-16.3,11.37-26.6.27-12.78-.1-25.57.22-38.35.14-5.21-1.46-6.88-6.77-6.81-22.29.27-44.59.33-66.87,0-6.11-.09-7.19,2.21-7,7.63.36,13.14,0,26.31.17,39.46C653.7,1304.42,653.82,1304.42,669.74,1310.94Z"/><path class="cls-1" d="M127,1282.51c0-33.38-.29-63.59.15-93.78.17-12-8.11-13.51-16.53-16.63h45.21c-20.54,4.22-15.4,17.77-15.57,28.68-.51,33.94-.49,67.89-.89,101.83,0,3.31,2.13,8.29-2.19,9.69-3.59,1.16-6.29-3-8.92-5.42-34.4-31.69-65.81-66.3-98.08-100.07-1.24-1.3-2.24-2.84-4-5.15-3.23,8.33-1.52,15.56-1.43,22.59.25,19.34.45,38.69,1.55,58,.67,11.75-4.1,27.82,20.14,25.43l-3.22,3H0c16.07-3,13.32-15.71,13.41-26.24.29-33.6,0-67.21.23-100.81,0-4.82-2.88-12.14,1.89-14,5.32-2.11,9,4.9,12.63,8.64q45.23,46.85,90.09,94C120.92,1275.09,123.29,1278.18,127,1282.51Z"/><path class="cls-1" d="M248.8,1313.87c-44.12.12-75-29.51-75.17-72.23-.21-41.59,32.65-73.22,76.2-73.34,46.09-.14,76.58,27.71,76.7,70C326.67,1282,294,1313.75,248.8,1313.87Zm56.79-72.76c.61-9.46-1.7-20.85-6.57-31.61-9.66-21.3-26.49-33-49.72-33.36-21.56-.29-40,8-48.6,29-10.49,25.68-9.1,51.65,6.3,75.35,17.95,27.61,56.66,33.64,80.36,12.81C302.22,1280.19,305.67,1262.39,305.59,1241.11Z"/><path class="cls-1" d="M1235,1313.9c-44.74.16-76.27-30-76.06-72.74.21-41.64,33.56-72.86,78-73,44.63-.15,74.93,28.42,75,70.71C1312,1281.88,1279.32,1313.74,1235,1313.9Zm56-73.76c.37-5.3-.66-14-3.18-22.44-7.58-25.45-28.92-41.92-54-41.77-24.59.15-43.92,13.63-50.4,36.12-5.51,19.12-4.82,38.35,2.77,56.85,13.89,33.85,53.72,47.31,82.36,27.75C1287.12,1284,1291,1264.51,1291,1240.14Z"/><path class="cls-1" d="M400.19,1310.59h-50.7c19.86-5.24,15.31-19.14,15.55-30.3.62-28.84.3-57.69.2-86.53-.06-16-.21-16-14.47-20.1.19-.64.38-1.83.58-1.83,21.51-.13,43-1,64.5.09,13.75.69,25.5,7.36,30.6,21.25,5.54,15,.84,28.38-8.17,41-3.59,5-12.39,7.69-10.73,14.46,1.34,5.44,7.31,9.75,11.24,14.55,5.09,6.21,10.08,12.49,15.3,18.58,10.88,12.71,21.24,26.24,42,26.47-13.88,7.08-36.58,3.68-46.68-6-12.94-12.47-22.82-27.48-33.7-41.65-5-6.48-23.61-11.36-30.52-8-2.62,1.28-2.2,3.54-2.16,5.59.26,12.77,1,25.53.87,38.29C383.72,1308.26,393.9,1306.18,400.19,1310.59Zm-17.3-100H383c0,8-.06,16,0,24,0,2.83-.36,5.85,2.45,8,6.76,5.06,31.35,2.45,37.16-4,8.62-9.57,10.36-30.06,3.69-43.39-6.33-12.63-17.7-17.75-33.65-16.77-7.49.47-10.44,2.71-9.87,10.32C383.32,1196,382.89,1203.34,382.89,1210.63Z"/><path class="cls-1" d="M892.7,837.18c0,13.48-.19,27,.09,40.45.14,6.45-1.82,8.93-8.08,5.9-27.52-13.32-54.54-27.57-80.85-43.16-5.68-3.37-3.91-5.55.47-8.35a547.9,547.9,0,0,1,79.92-42.13c6.49-2.77,8.47-.86,8.37,5.74-.2,13.85-.06,27.7-.06,41.55Z"/><path class="cls-1" d="M945.87,1195.82c-12.53-17.82-20.71-22-38.72-18.51-17,3.34-23.15,19.23-12.72,33.11,5.36,7.12,13,11.75,20.18,16.67,9.37,6.37,18.65,12.83,26,21.56,10.29,12.15,13.2,25.86,7.56,40.8-5.43,14.37-17,21.73-31.57,23.73a106.21,106.21,0,0,1-32.74-.75c-9.36-1.62-14.57-5.23-12.84-15.69.93-5.6-.69-11.61,2.46-17.78,4.43,4.06,2.57,9.48,4.92,13.33,7.06,11.54,18.32,13.56,30.44,13.19,12.63-.38,21.59-6.26,24.75-16.31,3.61-11.48-.41-20.91-9.22-28.28-8.39-7-17.25-13.47-25.89-20.2-6.06-4.72-11.81-9.76-16.43-16-16.07-21.71-5.66-49.47,20.71-55.33,12-2.68,23.9-1.12,35.86.66,6.27.94,8.44,3.41,7.37,9.89C945.19,1185.08,945.87,1190.51,945.87,1195.82Z"/><path class="cls-1" d="M561.78,1310.88H514c11.67-2.75,11.49-11.93,11.57-20.46.3-35.07.2-70.15.61-105.23.06-5.06-2.34-5.24-5.82-5.1-9.83.4-19.65,1-29.49,1.27-8.24.21-11.88,6-15.83,12.42-2.38-8.21.72-15.48,2.47-22.78.82-3.42,4-2,6.51-1.78,34.59,3.74,69.25,2.17,103.88.89,5.68-.21,8.33.13,7.75,6.39s-.74,12.27-1.8,19.23c-9.35-23.06-29.55-12.19-45-15.6-4.41-1-4.4,2.26-4.39,5.38.07,34,0,68,.21,102,.07,11.43.56,23.06,19.65,19.62Z"/><path class="cls-1" d="M622.25,1452.35c7.31-27.61,14-52.77,20.64-77.94.37-1.4.37-2.92.86-4.27,1.07-3,1.62-6.9,6.34-5.48s2,5,1.44,7.24c-2.52,10.63-5.59,21.12-8.34,31.7-6.06,23.24-12.06,46.5-18.86,72.78L594,1418.57l-30,57.17c-2.4-8.32-4.31-14.63-6-21-7.22-26.34-14.6-52.63-21.32-79.1-.8-3.18-6.3-8.52.15-10.81,6.82-2.41,6.88,4.1,8.08,8.58q9.46,35.31,19.11,70.57c.56,2.07,1.3,4.09,2.82,8.79l27.15-53.54Z"/><path class="cls-1" d="M890.91,1417.45c0-15.32.2-30.65-.11-46-.11-5.43,1-7.59,7.09-7.44,17.5.45,35,0,52.53.23,13.8.23,20.41,5.66,22.59,17.54,1.93,10.48-2.78,19.34-14.54,23.71-6.18,2.3-5.49,5.11-4,9.66,5.29,15.86,10.5,31.76,15.52,47.7.85,2.69,4.3,6.47-.1,8.34s-5.92-1.93-7.18-5.77c-5.45-16.58-11.51-33-16.67-49.64-2-6.33-5-8.49-11.47-8.09a264.51,264.51,0,0,1-28.44.08c-5.77-.25-7.41,1.63-7.27,7.35.39,16,.24,32.11.12,48.16,0,3.22,1.83,8-4.19,8.11-6.53.08-3.71-5.17-3.77-8C890.76,1448.1,890.91,1432.77,890.91,1417.45Zm34.22-17.94v-.44c8.37,0,16.77.54,25.08-.16,7.64-.65,14.64-3.71,14.77-13,.14-9.6-6.22-13.38-14.89-13.68-11.62-.41-23.26-.51-34.89-.59-15.7-.11-15,0-15.92,15.13-.61,10.24,1.8,14.86,12.78,12.82C916.28,1398.86,920.77,1399.51,925.13,1399.51Z"/><path class="cls-1" d="M798.79,1417.18c0-15,.44-30-.19-44.91-.3-7.15,2.2-8.33,8.63-8.21,20.81.4,41.63,0,62.44.29,2.83,0,7.93-2.86,8.14,3.61.21,6.29-4.69,4.34-7.84,4.36-17.9.15-35.8.42-53.68-.09-7.13-.21-9.19,1.77-9.09,9,.28,18.8-.09,18.81,18.83,18.81,15,0,30,0,44.92,0,3,0,7-1.13,6.93,4.3,0,5.82-4.39,3.72-7.07,3.75-18.26.17-36.53.5-54.77-.11-7.56-.25-9.07,2.37-8.79,9.21.51,12.4.67,24.86,0,37.24-.47,8,2.44,9.59,9.81,9.36,17.88-.53,35.79-.23,53.68-.11,2.9,0,7.15-1.53,7.12,4s-4.41,3.73-7.17,3.75c-21.55.15-43.1-.12-64.64.23-5.85.1-7.47-1.68-7.34-7.38C799,1448.6,798.78,1432.89,798.79,1417.18Z"/><path class="cls-1" d="M774.66,1400.66c0-10.79-.06-19.83,0-28.87,0-2.3-1-5.32,3.26-5.43,4-.1,4.84,1.82,4.83,5.35,0,31.39,0,62.78,0,94.16,0,2.47.19,5.33-3.52,5.62-4.49.36-4.37-2.78-4.37-5.78,0-16,0-32.11,0-48.17,0-3.54.69-7.06-3.67-9.32-20.25-10.52-40.36-21.32-62.28-33v63.49c0,9.12.06,18.25,0,27.37,0,2.33.78,5.34-3.34,5.44-3.74.09-4-2.3-4-5,0-31.75-.38-63.51.08-95.26.16-10.65,7.29-5.27,11.47-3.11,18.77,9.68,37.32,19.78,56,29.71C770.3,1398.56,771.57,1399.14,774.66,1400.66Z"/><path class="cls-1" d="M982,1365.7c5.79-2.9,8.17.23,10.78,3.53,6.79,8.57,14.23,16.66,20.52,25.57,4.56,6.46,7,4.91,11-.33,6.54-8.75,13.77-17,20.49-25.58,3-3.82,6.12-5.93,11.69-3.17-9.37,11.77-18.29,23.53-27.85,34.75-4.81,5.65-6.65,11.43-6.36,18.81.54,14.21.32,28.45,0,42.67-.07,3.32,2.61,9.45-3.65,9.2-6-.23-3.17-6.29-3.24-9.66-.33-15.31-.31-30.64-.05-46a19.67,19.67,0,0,0-4.83-13.89C1000.75,1389.94,991.53,1377.82,982,1365.7Z"/><path class="cls-1" d="M683.35,1418c0,15,.1,29.94-.09,44.91,0,3.14,2.24,8.08-3.63,8.5-6.21.45-4.3-4.69-4.31-7.84q-.23-45.46-.1-90.92c0-3-1.42-7.27,3.76-7.47,6.17-.24,4.24,4.8,4.28,7.91C683.46,1388.07,683.35,1403,683.35,1418Z"/><path class="cls-1" d="M388.57,875c.06,3-1.51,4.37-4.45,4.29l.15.13c1-1.93,1.76-4.12,4.47-4.26Z"/><path class="cls-1" d="M384.12,879.32c-.05.3-.09.61-.14.92.1-.26.2-.52.29-.79Z"/></svg>