<svg id="Layer_1" data-name="Layer 1" xmlns="http://www.w3.org/2000/svg" viewBox="0 0 1945.09 1476.38"><defs><style>.cls-1{fill:#ea704b;}.cls-2{fill:#233d55;}.cls-3{fill:#f6f0bc;}</style></defs><path class="cls-1" d="M1772.45,701.45c-10.63-80.52-29.78-158.85-60.68-234.08-59-143.56-151.55-259.59-283.17-343.07-120.23-76.27-252.95-113-394.09-122-13.45-.87-26.9-1.51-40.35-2.26H952a42.5,42.5,0,0,1-4.74.65C872.18,2.8,798.42,13.57,726.34,34.88c-136.47,40.36-254,111.52-350,217C287.14,350,229.09,464.86,195.45,592.56c-19.07,72.4-29,146.14-32,220.88-1.93,48.86-.94,97.56,6.9,146q30.83,190.5,174.94,318.75c75,66.65,162.33,111.49,257,142.78,105.83,35,214.92,50.81,326,54.37,6.44.21,12.88.69,19.33,1.05h51.88a40.42,40.42,0,0,1,4.21-.65c31.83-1.57,63.71-2.48,95.48-4.79,71.81-5.22,142.72-16.39,212.37-34.87,83.06-22,161.89-53.86,233.44-102.19,91.91-62.07,159.39-143.8,198.85-247.93,27.4-72.31,38.31-147.52,38.55-224.49A1192.51,1192.51,0,0,0,1772.45,701.45Zm-34.86,190.81c-3.21,75.63-18.54,148.5-51.69,217.07-36.2,74.86-89.62,134.89-157.46,182.44-64.43,45.16-135.75,75.47-211.06,97-63.72,18.21-128.76,29.41-194.66,36-48.43,4.84-97,6.94-142.81,7.29-95.52,0-187.34-8.22-277.83-29-92.13-21.2-179.61-53.93-259.18-105.84-75.11-49-136.2-111.23-178.36-191-31.84-60.24-50.68-124.53-55.14-192.32C199.26,759.6,221,610.14,286.26,469.23c96.15-207.6,256.79-339.77,477.48-398.8C851.5,47,941.07,40.61,1031.61,46.24c91.86,5.71,180.81,24.31,266,59.59,83.54,34.6,157.87,83.18,221.82,147.24,68.44,68.56,119,148.81,154.62,238.64,28,70.71,45.61,144.07,55.18,219.42C1736.89,771.28,1740.15,831.67,1737.59,892.26Z"/><path class="cls-2" d="M1737.59,892.26c-3.21,75.63-18.54,148.5-51.69,217.07-36.2,74.86-89.62,134.89-157.46,182.44-64.43,45.16-135.75,75.47-211.06,97-63.72,18.21-128.76,29.41-194.66,36-48.43,4.84-97,6.94-142.81,7.29-95.52,0-187.34-8.22-277.83-29-92.13-21.2-179.61-53.93-259.18-105.84-75.11-49-136.2-111.23-178.36-191-31.84-60.24-50.68-124.53-55.14-192.32C199.26,759.6,221,610.14,286.26,469.23c96.15-207.6,256.79-339.77,477.48-398.8C851.5,47,941.07,40.61,1031.61,46.24c91.86,5.71,180.81,24.31,266,59.59,83.54,34.6,157.87,83.18,221.82,147.24,68.44,68.56,119,148.81,154.62,238.64,28,70.71,45.61,144.07,55.18,219.42C1736.89,771.28,1740.15,831.67,1737.59,892.26Z"/><path class="cls-3" d="M1300.88,373.08a16.78,16.78,0,0,0,3.65-2.5c22.68-24.39,45.39-48.76,67.84-73.37,4.33-4.74,7.89-10.28,11.32-15.75,2.57-4.1,5.25-5.08,9.27-2.32,7.26,5,14.62,9.88,21.81,15,4,2.82,3.88,5.53.43,8.8-20.34,19.34-40.86,38.49-60.86,58.17-21,20.71-41.68,41.85-62.27,63a176.56,176.56,0,0,0-14.33,17.53c-2.53,3.37-5,4.43-8.58,1.93-8.59-5.93-17.23-11.8-25.84-17.71-2.82-1.93-3.65-4.45-1.74-7.43,15.91-24.86,25.41-52.82,38.14-79.22,2.11-4.38,4-8.88,6-13.28,1.33-2.83,2.27-6.06-1.15-7.39-1.85-.72-5.4.23-6.9,1.72-13.21,13-26.34,26.13-39.07,39.61-10.74,11.37-21,23.23-31.29,35-2.34,2.66-4.68,3.14-7.53,1.21-8.79-6-17.69-11.8-26.18-18.16-1.51-1.12-2.59-5.38-1.68-6.8,15.86-24.92,25.44-52.83,37.89-79.35,10.93-23.3,21.34-46.86,31.58-70.47,4-9.22,7.07-18.85,10.27-28.39,2.09-6.21,4.38-7.32,9.73-3.73,7.18,4.81,14.28,9.73,21.41,14.62,2.93,2,4.39,4.65,1.87,7.72-11.79,14.42-18.49,31.65-26.63,48.07-9.45,19-18.59,38.2-27.85,57.31-.62,1.3-1.73,2.7-1.6,3.94.2,1.9.79,4.58,2.12,5.32s4.35.21,5.63-.91c4.33-3.78,8.22-8.06,12.25-12.18,18-18.39,36.17-36.66,54-55.24a220.36,220.36,0,0,0,16.85-20.34c3-4,5.68-4.94,9.84-1.94,5.69,4.11,11.55,8,17.36,11.93,3,2,3.82,4.37,2.08,7.81-9.14,18.13-18.43,36.19-27.15,54.53s-16.7,36.7-24.95,55.09C1294.63,369.34,1296.17,372.84,1300.88,373.08Z"/><path class="cls-3" d="M375.83,527.06l83,9.65c12.16,1.41,24.3,3,36.49,4.1,2.4.21,5-1.57,7.47-2.43-.88-2.34-1.15-5.24-2.72-6.94q-39-42.33-78.33-84.29c-4.32-4.58-5.18-8.29-1.83-13.66,3.21-5.18,5.58-10.89,8.38-16.33,1.83-3.53,4.36-4.35,8-2.26,15.58,9,30.94,18.32,46.88,26.59,32.92,17.07,66.1,33.67,99.32,50.14,8.18,4.06,16.92,7,25.5,10.25,4.86,1.82,6,3.77,3.74,8.5-3.37,7-6.9,13.86-10.45,20.74-1.77,3.45-4.18,4.52-7.92,2.38-16.86-9.63-33.71-19.26-50.74-28.56-10-5.44-20.24-10.24-30.35-15.39-2.88-1.47-6.26-3-7.93.58-.85,1.83.25,5.63,1.8,7.35,20.5,22.73,41.29,45.21,61.81,67.93,1.75,1.94,2.06,5.19,3,7.83-2.73.7-5.55,2.24-8.18,2-30.27-3.1-60.51-6.47-90.76-9.77-3.15-.35-6.41-.66-7.51,3.3-1,3.63,1.62,5.08,4.33,6.44,20.91,10.51,41.74,21.19,62.75,31.49,6.27,3.07,13,5.2,19.62,7.55,4.69,1.68,6,3.76,4,8-3.43,7.14-7.1,14.16-10.71,21.21-1.82,3.55-4.34,4.36-8,2.29-16.24-9.25-32.3-18.85-48.89-27.44-33.09-17.14-66.43-33.8-99.8-50.39-7.38-3.67-15.25-6.37-23-9.24-4.9-1.81-6-3.79-3.75-8.47,3.09-6.3,6.09-12.68,9.64-18.72C372,529.28,374.75,528,375.83,527.06Z"/><path class="cls-3" d="M465.16,908.12q27-1.12,53.92-2.28a39.89,39.89,0,0,0,4.78-.84c5.14-.85,7,.6,7,6q.18,10.8,0,21.61c-.09,5.59-1.87,6.66-7.47,5.91-8-1.08-16.09-2.38-24.14-2.41q-71.31-.35-142.62,0c-8.23,0-16.47,1.49-24.67,2.53-4.85.62-6.89-.6-7-5.45-.17-7.2.05-14.41-.08-21.61-.07-4.16,2.77-5.41,5.86-6.72q45.7-19.44,91.4-38.94c1.49-.64,3.26-1,4.41-2,1.95-1.73,4.91-3.87,5-5.9.08-3.83-3.57-4.17-6.85-4.13-27.36.3-54.72.49-82.08.89-3.75.05-7.49,1-11.22,1.59-4.11.7-6.33-1-6.4-5.1-.13-7.74-.11-15.49,0-23.23.05-4.44,2.49-5.74,6.78-5.33,10.73,1,21.49,2.34,32.24,2.41q66.18.4,132.36,0c9.13,0,18.27-1.31,27.38-2.3,5.22-.56,7.05.59,7.14,5.91.13,7.38,0,14.77,0,22.15,0,4.31-2.17,5.55-6.28,6.27-9.86,1.74-20.07,3.06-29.27,6.73C469,874.41,443,886,416.9,897.3c-2,.85-4.22,2.46-5,4.3-1.43,3.21,1.67,5.79,6.81,5.81,15.49.07,31,0,46.47,0Z"/><path class="cls-3" d="M697.12,405.48c-.21,18.56-8.2,32.28-20.32,43.85-5,4.83-10.88,8.85-16.26,13.35-7,5.87-14,11.75-20.89,17.83-3.77,3.35-5.94,3.37-8.92-.22-10.68-12.85-21.08-26-32.29-38.35q-40.61-44.83-81.9-89c-4.63-5-10.1-9.2-15.28-13.64-3.78-3.25-4.15-5.52-.54-8.87,9.77-9.06,19.3-18.42,29.62-26.81,15.67-12.74,33.45-19.84,54.11-16,27.36,5.06,45.91,34.69,38.6,61.26-1.86,6.77.35,8.92,7.48,7.26,30.54-7.11,59.49,11.13,65.68,41.46C696.81,400.54,696.91,403.62,697.12,405.48Zm-97.71-9.74c1.15,1.32,2.07,2.43,3,3.48q18.76,20.44,37.53,40.89c2.53,2.77,5.37,3.1,8,.71,4.79-4.29,9.93-8.39,13.82-13.43,6.7-8.68,6.8-18.26,1.12-27.71C648.18,375.1,618,373.05,599.41,395.74Zm-35.06-80.36c-7.47.25-15.26,4.3-21.91,10.86-2.56,2.52-2.28,5.1,0,7.61Q560,352.94,577.54,372c2.37,2.57,4.79,2.65,7.6.54,10.28-7.73,15.18-22.16,11.33-33.71C592.13,325.79,578.77,315.37,564.35,315.38Z"/><path class="cls-3" d="M911.13,1131.73c9.67.89,19.52.87,29,2.82,30.86,6.36,49.37,26.74,57.93,55.83,11.08,37.64,8.06,75-8,110.78-13.72,30.59-37.69,42.21-72.35,37.69-11.39-1.49-22.88-2.23-34.34-3.12-3.72-.29-6.24-1.82-5.52-5.59,5.83-30.62,4.35-61.72,6.09-92.59,1.54-27.32,2.31-54.69,3.18-82,.18-5.72-.64-11.48-1.12-17.22-.45-5.4.72-6.81,6.19-6.85,6.3,0,12.6,0,18.89,0Zm8.13,26.07c-.2,2.9-.44,5.38-.55,7.88q-1.63,38.57-3.25,77.13-1.29,31.29-2.52,62.58c-.13,3.3-.4,6.83,3.88,7.8,14,3.18,26.82,2.18,36.37-10.76a72.47,72.47,0,0,0,10.55-21c6.83-21.72,8-44.2,6.34-66.79-1-12.65-4-24.91-10.8-35.86C950.24,1164.27,937.37,1156.88,919.26,1157.8Z"/><path class="cls-3" d="M1231.25,1082.89c24,.46,41.68,9.82,51.4,31.42s7.35,42.09-8.05,60.59c-4.87,5.85-4.3,6.57,1.52,11.33,9.32,7.6,18.23,15.74,26.89,24.09,12.29,11.85,24.18,24.12,36.28,36.17,3.13,3.11,2.76,6.72-1.42,8.57-7.4,3.28-14.88,6.45-22.51,9.14a8.74,8.74,0,0,1-7-1c-5.28-4-10.8-8-14.89-13-7-8.67-12.45-18.57-19.48-27.2a165.09,165.09,0,0,0-20-20c-2.82-2.45-7.37-5.16-11.33-1.77-4.15,3.55-.41,7.4,1,10.78q10.8,26.21,22.08,52.23c1.63,3.77,4.1,7.18,6.26,10.71s1.82,6.55-2.32,8.29q-12,5-24,9.86c-3.43,1.39-6.28.6-7.11-3.25-5.08-23.82-16.36-45.33-25.23-67.72-11.35-28.62-23.18-57-35.16-85.41-3.7-8.76-8.43-17.08-12.93-25.48-1.89-3.53-1.92-6.52,1.95-8,18.28-7,35.5-17,55.33-19.54C1225.63,1083.23,1228.87,1083.09,1231.25,1082.89ZM1203.58,1115l25.12,61c14.21-5.16,26.2-11.94,28.06-27.72,1.67-14.2-3.52-26.55-15.48-34.72C1228.91,1105.11,1216.28,1108.71,1203.58,1115Z"/><path class="cls-3" d="M870.13,136.91c22.55,0,38.28,3.8,51,15.61,24.81,23,21.9,64.63-5.75,85.24-7.36,5.48-6.9,5.5-1.3,12.81,7,9.11,13.3,18.76,19.42,28.48,9.2,14.6,18,29.47,27,44.2,2.24,3.67,1.34,7-2.88,7.8-8.3,1.57-16.68,2.9-25.08,3.74a8.49,8.49,0,0,1-6.48-2.93c-4.57-6.16-9.29-12.4-12.57-19.28-4.33-9.06-7-18.88-11-28.12a109.92,109.92,0,0,0-10.19-18.94c-2.55-3.69-6.56-6.67-10.47-9.06s-7.75.41-7,4.73c4.15,24.1,8.37,48.18,13.08,72.17,1.32,6.73,1.06,8.26-5.94,9.33-7.65,1.17-15.31,2.3-23,3.49-3.83.59-6.18-.45-6.66-4.81C850,320.11,848,298.8,845,277.64c-5-35.11-10.53-70.14-16.13-105.15-1.19-7.42-3.47-14.69-5.57-21.94-1.14-4-.21-6.65,3.82-7.28C843.25,140.75,859.46,138.47,870.13,136.91ZM869.56,228c15.46.4,28.88-7.27,33.8-18.85,5.1-12,1.85-29.81-7.08-38.84-8.57-8.66-24.07-11.43-36.46-6.26Q864.65,195.78,869.56,228Z"/><path class="cls-3" d="M471.48,775.4l-71.12-7.55c-16.64-1.77-33.27-3.74-49.95-5.21-6.59-.59-13.29-.24-19.93,0-5.33.19-7.19-1.2-6.73-6.34.75-8.43,1.71-16.84,2.68-25.24.42-3.69,2.56-5.74,6.3-4.72,30.45,8.26,62,8.71,93,12.57,17.81,2.22,35.84,3,53.8,3.61,5.73.2,11.9-1.37,17.28-3.56,14.73-6,16.48-23,3.58-32.3-9-6.53-19.58-9.25-30.31-10.59q-47.15-5.89-94.41-10.82C363.18,684,350.55,684,338,683.63c-4.17-.13-6-2-5.63-6,.85-8.6,1.74-17.19,2.74-25.77.43-3.63,2.51-5.8,6.3-4.66,23.15,7,47.27,7.11,71,10.26,24.26,3.22,48.65,5.6,72.73,9.79,9.85,1.71,19.67,6.13,28.39,11.23,18.15,10.61,24.19,27.71,22,48-2.2,20.74-11.83,36.49-32.4,42.89C492.1,772.82,480.31,773.79,471.48,775.4Z"/><path class="cls-3" d="M1412.85,743.1q-.57-8.07-1.16-16.16c-.23-3.29.74-6,4.43-6.14,21.24-.85,40.74-8.77,60.65-14.87q55.51-17,110.85-34.61c6.15-2,12-4.74,18-7.24,5-2.11,7.57-.82,8.06,4.64.78,8.6,1.22,17.24,1.9,25.86.37,4.75-1.55,6.58-6.44,7.08-8.56.86-17.22,1.9-25.5,4.13-35.11,9.46-70.1,19.38-105.14,29.13-1.21.34-2.71.37-3.56,1.13-1.47,1.32-3.85,3.63-3.48,4.58.77,1.93,2.92,4.26,4.85,4.63,7.94,1.52,16,2.39,24.05,3.46,28.55,3.84,57.08,7.89,85.67,11.37,9.06,1.1,18.31.92,27.46.78,4.61-.07,6.76,1.49,7,6,.55,8.8,1.27,17.6,1.66,26.42.21,4.76-2.22,6.58-6.88,5.36-47.49-12.45-96.36-17.14-144.52-25.87-13.08-2.37-26.38-3.56-39.6-5.14a39.77,39.77,0,0,0-7.55.19c-8.55.64-9.09.2-9.73-8.52-.2-2.7-.31-5.4-.49-8.09s-.4-5.39-.61-8.09Z"/><path class="cls-3" d="M1427.42,491.29c-1.31-1.47-3.14-3-4.31-4.9-6.1-10-11.86-20.12-18.08-30-3.18-5.06-5.13-5.14-10.13-1.57-14.35,10.25-28.63,20.62-43.05,30.77-4,2.82-4.81,5.55-2.26,9.92,8.92,15.29,18.62,30,31.31,42.46,3.83,3.77,3.39,6.64-1.35,9.39-4.51,2.62-9.17,5-13.69,7.59-3.1,1.79-5.91,1.7-8.22-1.08-6.41-7.74-13.29-15.17-18.9-23.46-6.54-9.67-11.72-20.24-17.91-30.16a208.44,208.44,0,0,0-12.39-17c-3-3.91-2.78-6.42.94-8.88,19.19-12.68,38.55-25.13,57.42-38.28q36.77-25.62,72.84-52.24c8.67-6.37,16.62-13.72,24.75-20.79,3.6-3.13,6.16-3.33,8.95.54q24.79,34.37,49.45,68.86c2.29,3.18,2,5.86-.78,8.59-4,3.91-7.72,8.06-11.7,12s-6.52,3-9.34-1.43c-9.38-14.89-19-29.63-28.53-44.43-2.5-3.87-5.45-4.11-9.09-1.47q-17.71,12.81-35.56,25.47c-3.9,2.76-4.56,5.7-1.45,9.45,8.36,10.1,16.55,20.35,25.08,30.3,4,4.65,3.95,7.36-1.39,10-6.12,3-12.32,5.94-18.5,8.86C1430.57,490.29,1429.52,490.55,1427.42,491.29Z"/><path class="cls-3" d="M824.86,353.54c-1.06,1.21-2.27,3.64-4.22,4.65-11.92,6.22-23.86,12.46-36.09,18.05-13.87,6.34-28.08,11.94-42.09,18-3.51,1.52-6.18,1-7.35-2.63-10.89-34.15-29.3-64.9-43.92-97.36-8.51-18.87-17.65-37.46-26.89-56-3.36-6.73-7.79-12.94-11.88-19.28-2.67-4.14-2.38-6.5,2.06-8.64C680,198.1,705.48,186,731,173.76c3.54-1.7,6.12-1,8.34,2.21,3.16,4.61,6.58,9,9.73,13.63s1.87,7-3,9c-16.31,6.61-32.52,13.48-48.77,20.27-4.2,1.75-5,4.58-3,8.68,6.44,13.28,12.74,26.63,19.08,40,1.83,3.84,4.57,4.91,8.34,2.81,11.47-6.38,23-12.59,34.32-19.27,6.12-3.62,8.34-3.09,10.32,3.89,1.72,6.06,3.31,12.16,5.09,18.2,1.34,4.54-.1,6.76-4.75,8.34-11,3.74-21.95,8-32.75,12.39-5.58,2.28-5.95,4.14-3.29,9.71,7.51,15.76,15.19,31.45,22.51,47.3,2.29,5,5,6.13,10.19,4.22,16.43-6.1,32.38-13.07,46.79-23.22,4.29-3,7-2.22,8.78,2.5,2,5.41,3.7,10.91,5.51,16.38A25.81,25.81,0,0,1,824.86,353.54Z"/><path class="cls-3" d="M1619.64,888.61c0,13.69-.12,27.37.07,41,.07,4.86-1.74,7.31-6.64,7.92-5.17.65-10.26,1.92-15.42,2.69-5.63.83-7.23-1-6.89-6.47,1.07-17,2.06-34.07,2.78-51.12.3-6.9-1.3-8.22-8.17-8.23q-20.52,0-41,0c-6.64,0-8.07,1.22-7.74,7.93.64,12.91,1.53,25.82,2.58,38.71.46,5.77-1.28,7.84-6.89,6.88-6.74-1.15-13.45-2.49-20.2-3.61-4.57-.76-5.56-3.2-5.08-7.66,1.29-11.78,2-23.61,3-35.42.38-4.82-2-6.89-6.72-6.87q-27,.12-54,0c-4.4,0-6.58,1.8-7,6.26-1.83,17.25-2.47,34.46.32,51.68,1.24,7.63-.31,9.21-7.81,8.28-4.47-.56-8.93-1.18-13.42-1.51-4-.3-6-2.21-6.8-6.22-3-14.51-1.67-29-.66-43.57,1-14.31,1.41-28.67,1.88-43,.14-4.17,1.86-6,6-5.6,57.14,5.22,114.4,1.33,171.6,2.14,6.24.09,12.52-1.24,18.74-2.19,5.7-.87,7.61.47,7.64,6.36C1619.69,860.89,1619.64,874.75,1619.64,888.61Z"/><path class="cls-3" d="M1132.79,1212.94c0,3.24,0,6.48,0,9.72-.11,6-1.23,6.7-7.47,7.17q-17.19,1.31-34.31,3.36c-5.53.67-6.57,2.61-5.56,8.18q4.69,25.76,9.4,51.51c1.26,6.84,2.38,7.66,9.47,7,17.26-1.53,34.3-4.11,50.67-10.14,4.77-1.76,7.29,0,7.7,5s.4,9.73,1,14.54c.64,5.07-1.44,8-6.2,9.06-12.28,2.61-24.53,5.45-36.91,7.47-15.76,2.56-31.64,4.38-47.46,6.57-3.75.52-6-.81-6.27-4.7-3.83-49.86-16.58-98.23-24.72-147.36-2.31-14-6.63-27.57-10.19-41.29-1.25-4.84,1-6.59,5.26-7.36q38.5-7,77-14.07c1.41-.26,2.85-.45,4.23-.83,4.89-1.33,7.85.28,9.37,5.27,1.46,4.81,3.57,9.42,5.23,14.18,1.9,5.46.16,7.53-5.4,8.19-17.47,2.1-34.91,4.47-52.35,6.84-4.09.56-5.87,2.91-5,7.24,2.73,14.32,5.44,28.64,7.88,43,.86,5.11,3.4,6.89,8.21,5.7,12.55-3.13,25.14-6.12,37.6-9.58,6.63-1.85,8.59-.8,8.66,6.15,0,3.06,0,6.12,0,9.18Z"/><path class="cls-3" d="M992.69,870.84q3.9,61.7,7.79,123.4c.6,9.67-.8,11.08-10.36,11.08-11.88,0-23.76,0-35.65,0-7.44,0-9.32-1.9-8.86-9.39q3.92-63.85,7.95-127.72,3.91-62,7.9-123.93c.51-7.94,2-9.19,9.95-9.21h4.32c6.59.07,8.42,1.68,8.83,8.08q3.75,58.46,7.44,116.93Z"/><path class="cls-3" d="M772.69,1108c-3.44,8.26-6.82,16.78-10.62,25.12-.74,1.62-3.13,3.49-4.7,3.44s-3.73-2-4.64-3.67c-5.94-10.94-14.36-18.37-27.07-20.06a29.76,29.76,0,0,0-20.68,4.61c-6.67,4.45-13.54,9.23-18.64,15.3a142.65,142.65,0,0,0-33.89,84.16,60.14,60.14,0,0,0,2.15,19.17c4.79,17.89,20.33,27.25,38.52,23.82,2.82-.53,5.56-1.47,8.36-2.14,4.68-1.13,7.73,1.72,6.12,6.22a183,183,0,0,1-8.61,20.37c-.84,1.66-4,2.88-6.22,3-38.46,2.61-70.69-25-72.32-63.54-1.94-45.91,14.26-85.59,46.76-117.87,18.11-18,40.43-26.51,66.2-19.29,8.14,2.28,15.66,7,23.22,11.11C762,1100.63,766.91,1104.26,772.69,1108Z"/><path class="cls-3" d="M1089.4,136.4c3.3.85,5.4,1.37,7.48,1.94q45.34,12.19,90.68,24.42c7.54,2,7.84,2.53,6.72,10.05-.69,4.63-1.32,9.26-2.11,13.87-1,5.94-3.29,6.82-9.09,4.62-8.89-3.38-17.94-6.39-26.95-9.46-4.17-1.41-6.92-.07-8.11,4.41-12.85,48.33-25.81,96.64-38.56,145-1.36,5.17-1.59,10.65-2.23,16-.58,4.8-2.54,6.42-7.17,5.24-8.2-2.08-16.35-4.34-24.5-6.56-3.81-1-5.71-3.42-3.87-7.24,10.83-22.42,14.93-46.91,21.65-70.57,8.27-29.07,15.81-58.35,23.67-87.53,2.13-7.88,1.62-9.12-6.29-10.9-8.77-2-17.62-3.54-26.48-5-6.1-1-7.37-2.81-5.13-8.7,1.91-5.05,3.72-10.15,6-15C1086.07,139,1088.2,137.64,1089.4,136.4Z"/><path class="cls-3" d="M1581.45,555.44c-1.25,1.08-2.67,3.35-4.43,3.67-34.83,6.13-66.88,21.11-100.33,31.57-18.55,5.81-36.82,12.52-55.22,18.81-7,2.38-7.45,3.19-5.87,10.11,3.87,16.91,9.07,33.34,17.34,48.69,2.73,5.08,1.51,7.64-4.13,8.92-4.57,1-9.26,1.57-13.75,2.86-5,1.44-8.15-.32-9.76-4.89-4.6-13-9.22-26.08-13.47-39.23-4.48-13.85-8.46-27.84-12.81-41.73-1.15-3.69-.24-6.28,3.46-7,35.29-7.14,68.17-21.83,102.28-32.67,19.38-6.16,38.58-12.93,57.72-19.82,7.25-2.61,14.15-6.23,21.12-9.58,4.79-2.3,7.08-1.72,8.8,3.07,2.79,7.8,5.4,15.66,8.07,23.5C1580.75,552.54,1580.93,553.42,1581.45,555.44Z"/><path class="cls-3" d="M794.79,1320.89c-8.48-2-17.82-4-26.94-6.76-1.4-.42-3.1-4.77-2.44-6.42,12.05-30.12,16.36-62.23,24.25-93.4,6.53-25.8,12.12-51.84,17.89-77.84,1.16-5.23,1.37-10.69,1.81-16.06.43-5.2,2.22-6.85,7.28-5.75,8.09,1.77,16.13,3.74,24.18,5.66,3.73.89,6.1,3,4.31,7-9.57,21-12.66,43.84-18.08,66-8.2,33.55-15.85,67.24-23.43,100.94-1.57,7-2,14.23-2.65,21.38C800.64,1319.11,799.2,1320.94,794.79,1320.89Z"/><path class="cls-3" d="M894.9,726.8a43.7,43.7,0,1,1-43.64-43.51A43.38,43.38,0,0,1,894.9,726.8Z"/><path class="cls-3" d="M737.1,846.47a43.64,43.64,0,1,1,44.08-43C781,827.63,761.6,846.56,737.1,846.47Z"/><path class="cls-3" d="M1113.88,555.35A43.73,43.73,0,1,1,1070,598.71,43.4,43.4,0,0,1,1113.88,555.35Z"/><path class="cls-3" d="M1207.43,846.47a43.64,43.64,0,0,1-.08-87.28,43.64,43.64,0,1,1,.08,87.28Z"/><path class="cls-3" d="M787.7,599a43.68,43.68,0,1,1,87.36.21A43.68,43.68,0,0,1,787.7,599Z"/><path class="cls-3" d="M1093.66,683.29a43.66,43.66,0,1,1-43.5,43.66A43.52,43.52,0,0,1,1093.66,683.29Z"/><path class="cls-3" d="M861.74,901.63a43.64,43.64,0,1,1,44-43.08C905.5,882.83,886.19,901.73,861.74,901.63Z"/><path class="cls-3" d="M1082.76,901.63a43.64,43.64,0,1,1,43.9-43.25A43.23,43.23,0,0,1,1082.76,901.63Z"/><path class="cls-3" d="M972.94,546.06a43.73,43.73,0,1,1,43.82-43.41A43.45,43.45,0,0,1,972.94,546.06Z"/><path class="cls-3" d="M762,684.16a43.62,43.62,0,0,1-43.37,43.89c-24,.28-44.11-19.78-44-44a43.67,43.67,0,0,1,87.34.07Z"/><path class="cls-3" d="M1183,684.05a43.72,43.72,0,0,1,87.43.15c0,24.2-20.12,44.25-44.1,43.85A43.75,43.75,0,0,1,1183,684.05Z"/><path class="cls-3" d="M972.79,682.4c-24.54-.25-43.55-19.68-43.37-44.35a43.45,43.45,0,0,1,44.2-43c24.45.32,43.47,20,43.14,44.6A43.59,43.59,0,0,1,972.79,682.4Z"/><path class="cls-3" d="M510.41,1088.32c-1.36,2-2.26,4-3.69,5.49q-16.71,16.92-33.6,33.64c-4.17,4.14-7.28,4.09-11.59-.17q-16.69-16.54-33.23-33.24c-4.1-4.14-4.07-7.47.05-11.64q16.54-16.68,33.24-33.23c4.16-4.13,7.53-4.22,11.66-.15q16.9,16.71,33.59,33.65C508.27,1084.12,509.08,1086.18,510.41,1088.32Z"/><path class="cls-3" d="M1520.57,1088.08c-1.47,2.3-2.39,4.47-3.93,6q-16.48,16.74-33.21,33.26c-4.26,4.21-7.34,4.18-11.59,0q-16.68-16.56-33.24-33.24c-4.44-4.47-4.44-7.41.07-11.95q16.35-16.5,32.86-32.85c4.43-4.38,7.68-4.37,12,0q16.5,16.37,32.84,32.88C1518,1083.71,1519,1085.8,1520.57,1088.08Z"/></svg>