<svg id="Layer_1" data-name="Layer 1" xmlns="http://www.w3.org/2000/svg" viewBox="0 0 1580.15 1475.37"><defs><style>.cls-1{fill:#a26a29;}.cls-2{fill:#c0b860;}</style></defs><path class="cls-1" d="M804.34,0c332.1-.13,602.22,270.08,602,602.16-.26,331.78-270.09,601.69-601.6,601.77-332,.09-602-270.15-601.86-602.36C203,269.66,472.47.13,804.34,0ZM229.19,600.93c-.44,317.49,256.27,575.89,573,576.75,318.55.86,577.42-256.63,577.95-574.87.52-318-256.94-576.09-575.13-576.47C487.22,26,229.64,283,229.19,600.93Z"/><path class="cls-1" d="M254.77,1227.67c-9.38-3.36-18.2-7.5-28.24-8.34-34.07-2.84-58.17,13.2-76.1,40.3-7.56,11.42-5.7,23.42,3.86,33.38,10.6,11,24.15,17.58,37.76,24,21.84,10.24,42.84,21.88,61.74,37a98.9,98.9,0,0,1,17.75,18c12.53,16.82,13.41,37.1,1.39,54.16-24.56,34.85-75.55,58.52-120.58,45.75-6.34-1.8-12.48-4-18-7.77-15.34-10.46-18.41-27-7.83-42.34a46.58,46.58,0,0,1,14.34-13.3c26.92-16.35,56.08-22.17,87.22-17.88,3.48.48,7.46.52,10.55,4-32.46-2.64-62.17,4.48-89.59,21.11-2.93,1.78-6.15,3.4-8.46,5.83-14.3,15-15.55,29.38,5.91,37.58,38.72,14.81,72.42,3.71,102.5-21.78,8.88-7.53,17.25-15.8,20.67-28.22,3.25-11.82.54-21.51-6.05-30.81-7.71-10.88-18.1-18.91-29-26.29-16.89-11.39-35-20.52-53.52-29-12-5.48-23.34-12-32.55-21.7C133,1285,131.42,1265.36,145.6,1248c19.34-23.72,42.84-40.26,75.41-38.25C234.84,1210.57,246.7,1215.54,254.77,1227.67Z"/><path class="cls-1" d="M947.11,1236.88c1-.66,1.88-1.64,3-1.93,51.81-14.29,95.3-10.47,130,32.5,31.6,39.1,30,92.19-1.7,132.59-29.67,37.78-69.58,52.79-111.54,40.63-48.64-14.1-69.46-56-54.35-103.4,9.07-28.47,27-50.56,54.45-63.82s54.69-3.64,65.51,22.81a5.15,5.15,0,0,1,0,1.6,13.67,13.67,0,0,1-1.38-1.54c-16.32-25.71-39.73-26.34-64.41-11.86-25.08,14.7-41.41,36.87-47.15,65.79-8.52,43,16.9,77,61.34,82.91,55,7.25,109-38.56,111.14-94.29,2.19-57.51-43.19-104.84-101.54-106.15C975.87,1232.39,961.46,1233.25,947.11,1236.88Z"/><path class="cls-1" d="M590.4,1318.7c-17.88-9.53-34.9-2.42-51.95,1.77-4.81,1.18-6.7,4.9-7.19,9.8-2.31,22.67-5,45.31-7.17,68-.61,6.38-1.65,12.83,1.38,19.29,1.62,3.45,1.86,8.88-3.64,9.84-4.87.85-7.41-3.17-7.68-7.55-.42-6.52,0-13.1-.07-19.65,0-2.4,1.34-5.5-.94-7-2.51-1.66-4.5,1.26-6.5,2.46-14.12,8.46-29,14.81-45.71,15.13-9.91.19-20.38,1-24.93-11.49-1.56-4.32-4.85-.78-6.94.3-13.54,6.93-27.6,11.65-43,11.31-19.07-.42-25.56-10.33-17.75-27.68,5.09-11.31,13.43-20.21,22.52-28.44a6.09,6.09,0,0,1,.76-.54c8.5-5.86,19.5-6.48,24.35-1.37,5,5.26,3.14,16.84-4.66,24.45-8.58,8.37-18.24,15.18-30.7,16.6-1.74.19-4.23-.17-4.13,2.5.08,2,2.05,3.15,3.93,3.38a46.3,46.3,0,0,0,10.22.57c7.45-.77,14.85-2,22.25-3.11,13-2,25.13-4,29.84-20,2.57-8.7,10.62-15.31,17.71-21.48,8.61-7.49,21.28-8.56,26.5-2.73,5,5.57,2.62,17.38-5.71,25.12s-17.47,14.16-29.2,15.69c-1.71.22-4.22-.34-4.48,2.19-.3,2.82,2.24,3.64,4.33,3.87a61.57,61.57,0,0,0,11.19.35c15.95-1.19,31.3-5.67,46.93-8.67,3.94-.75,4.83-3.16,5.23-6.54,2-17.37,4-34.74,6.31-52.07.8-6.17-1.79-6.79-6.94-5.67-6.69,1.45-13.51,2.4-20.31,3.35-2.55.36-5.44-.06-6.21-2.93-.94-3.49,2.52-4,4.6-4.68,6.82-2.23,13.65-4.82,20.69-5.86,8.39-1.25,11-5.47,10.06-13.31-.54-4.64-.47-9.35-.62-14-.13-4.07-.66-9.19,4.65-9.67,5-.44,5,4.74,5.47,8.29a116.79,116.79,0,0,1,.8,15c0,5.48,2.19,7.08,7.51,6,9.16-1.79,18.13-4.52,27.68-4.36C578.93,1305.32,585.88,1309.77,590.4,1318.7Zm-139,65.38c12.38-3.15,19.74-9.32,25.89-17.24,1.3-1.68,3-3.49,1.66-5.8-1.69-2.86-4.44-1.83-6.61-.92C462.27,1364.3,456.72,1372.54,451.36,1384.08Zm-70.9-.2c12.07-2.47,19.28-8.77,25.58-16.45,1.53-1.86,3.73-4.08,1.88-6.53-2.08-2.74-5.22-1.51-7.67-.31C391,1365.18,385.68,1373.19,380.46,1383.88Z"/><path class="cls-1" d="M758.12,1422.51c-2.72,5.91-7.06,9.45-13.81,9.29-7.11-.17-10.26-5.33-12.85-10.78-5.69-12-7.49-25-9.29-38.06-.54-3.89-1.13-7.77-3.79-11.86-2.7,9.42-5.32,18.86-8.13,28.25-2,6.58-4.12,13.1-6.33,19.6-.94,2.77-2.52,5.17-5.94,5-3.82-.15-6.35-3.18-6-6.07,2.12-15.88-6.3-18.64-19.54-17.44-4.23.38-8.43-3-10.64-6.88-3.9-6.83-6.58-4.83-10.48.11-6,7.56-13.22,13.41-23.89,12.08-6.88-.87-10.56-4.44-10.82-11.68-.68-18.7,12.59-31.61,31.31-29.37,5.26.63,6.38-1.7,7.85-5.46,1.16-3,3.29-5.84,7.05-4.58s3.47,4.61,3.14,7.88c-.44,4.33-1.15,8.74-.8,13,.92,11.26,11.56,18.78,22.72,16.9,5-.83,4.47-4.38,4.83-7.69,1.65-15.2,3.16-30.42,5-45.6.38-3.14,0-8.09,4.78-7.71s3.71,5.17,3.53,8.36c-.66,12.11-1.65,24.2-2.7,38.88,5.51-7.87,5.78-15.14,9-21.13,2-3.76,3.12-8.94,8.68-8.47,5.18.45,6.7,5.1,7.93,9.35a70.13,70.13,0,0,1,2.66,19.43c.05,12.71,3.5,24.71,7.93,36.41s7.52,12.9,18.59,8.42ZM649.8,1376.57c.73-2.85-1-3.1-3.08-3.34-8.58-1-19.23,7.71-19.94,16.33-.48,5.76,2.31,7.32,7.41,5.89S649.41,1381.72,649.8,1376.57Z"/><path class="cls-1" d="M1375.71,1354c6.55-3,11.91-7.7,18.81-8.81,4.65-.74,9.36-1.27,13.82.73,3.22,1.44,4.72,4.1,3.77,7.64-.86,3.19-3.58,3.05-6.1,2.89-22.59-1.39-32,7-32.5,29.47-.18,7.43-1.14,14.88,1,22.31,1.09,3.72.33,8.28-4.3,9-4,.6-5.2-3.52-6.49-6.8-1.89-4.83,1.22-12.54-3.54-14.34-3.86-1.46-9.71,2.9-14.82,4-11,2.45-21.35,2.12-28.19-8.74-3.4-5.39-5.26-1.61-7.45.91-6,6.92-12.1,13.64-22.37,13.6-9.93,0-14.28-4.63-13.63-14.56,1.17-18.08,13.78-29.11,31.18-26.68,4.27.6,6.34,0,7.49-4.22.93-3.42,3-6.94,7.14-5.85,4.89,1.3,3.71,5.56,3.23,9.35a71.11,71.11,0,0,0-.53,11.2c.28,9.07,5.33,14.45,13.91,16.4a51.35,51.35,0,0,0,11.16,1c15.67.12,15.52-1.24,15.17-16.8-.22-10,4.1-20,6.46-30,.28-1.21,1.22-2.52,2.6-2a4.51,4.51,0,0,1,2.28,2.59C1374.63,1348.65,1375,1351.08,1375.71,1354Zm-68.77,22.11c.46-2.15-.88-2.52-2.57-2.87-8.61-1.8-21.12,8.8-20.76,17.62.16,4.07,2.32,5.47,6.15,5C1295.46,1395.11,1306.93,1382,1306.94,1376.15Z"/><path class="cls-1" d="M1453,1421.26c-7.06-2-11-5.74-13.22-10.46s-4.93-5.36-9.58-3.93c-7.31,2.25-15.17,3.86-20.9-3-6.25-7.47-5.67-16.39-2.39-24.89,3.69-9.56,11.12-15.55,21.39-15.5,7.17,0,8.11-3.09,8.54-8.86,2-26.48,3.82-53,9.26-79.07,1-4.6,1.08-12.71,6.24-12,6.62,1,2.45,8.28,2.06,12.69-2.81,32-8.62,63.81-8.61,96.1,0,3.49-2.24,8.49,1.76,10.1,3.06,1.23,5.31-3.53,8-5.53a7.31,7.31,0,0,1,4.37-1.36C1450.83,1389.84,1441.9,1403.88,1453,1421.26Zm-17.58-39.09c-1.87-3,3.28-9.67-3.86-10.86-6.18-1-10.47,3.15-13.39,8.42a24.24,24.24,0,0,0-1.89,4.27c-1.65,5.11-4,10.94,2.42,14,5.73,2.75,11-.67,15.27-4.45C1437.23,1390.65,1435.49,1386.55,1435.37,1382.17Z"/><path class="cls-1" d="M805.51,1377.79c-9.87,13.48-15.29,27.52-4,44.86-8.9-3.05-12.67-7.26-15.26-12.15-2.18-4.11-4.33-4.86-8.8-3.81-16.55,3.9-23.66.25-25.59-12.35-2.42-15.77,7.67-30.47,22.43-30.78,7.25-.15,8.74-2.6,9.18-9,1.76-25.52,3.9-51,8.68-76.2,1-5.49,1.16-15.54,6.62-14.69,7.48,1.16,2.46,10,2,15.2-2.55,29.82-7.79,59.39-8.43,89.41C792,1383.34,791.85,1383.34,805.51,1377.79Zm-23.31,5.44c-.48-12.31-.49-12.34-5.42-12.13-7.67.31-15.64,10.47-15.38,19.8.14,5.15,2.48,8.26,8.13,7.9C778.31,1398.25,782.59,1393,782.2,1383.23Z"/><path class="cls-1" d="M354.4,1328.75c9,13.1,9.67,25.75,7.63,38.81a90.57,90.57,0,0,1-12.93,33.92c-6.13,9.89-16.12,12.29-25.49,5.59-4.08-2.92-6.09-2.73-8.92,1.22-3.74,5.22-8.44,9.92-15.64,7.58-6.66-2.16-7.78-8.57-8.64-14.44a122.77,122.77,0,0,1,1-41c.65-3.4.92-8.63,5.91-8,4.65.56,3.17,5.38,3.15,8.57-.07,12.18-.43,24.35-.53,36.53,0,2.37-.74,5.58,2,6.69,3.36,1.36,4.85-2,6.52-4,5.2-6.23,7.22-13.76,8-21.64.37-3.87,1.57-7.09,6-6.71,4.16.37,4,4.21,4.15,7.25.15,2.8-.34,5.63-.18,8.42.31,5.24-.17,11.76,6.27,13.21,7.05,1.6,9.41-4.91,11.69-9.91a75.16,75.16,0,0,0,4.78-14.16C352.63,1361.53,355.86,1346.39,354.4,1328.75Z"/><path class="cls-1" d="M1227.46,1386.07c2.89-7.31,4.68-12.19,6.76-16.93a13,13,0,0,1,12.58-8.22c6,0,8.37,4.84,10.08,9.68,3.06,8.64,3.62,17.68,3.75,26.77,0,3-.37,6-3.8,6.62-4.36.85-5.18-2.87-5.77-5.78-1.1-5.49-1.59-11.1-2.49-16.63-.47-2.89.88-7.54-2.66-8.06-4.12-.6-4.73,4.36-5.66,7.35-2.13,6.84-3.81,13.83-5.33,20.83-1.05,4.88-2.35,9.52-8.32,9.55-5.44,0-7.28-4.52-8.24-8.81-1.14-5.14-2.16-10.49-2-15.71.6-17.79,1.88-35.54,5-53.1a57.27,57.27,0,0,1,2.54-10c1.13-3,1.73-7.68,6.38-6.45,4.15,1.09,2.41,5.2,2.09,8.07-1.55,14-3.46,27.88-4.87,41.86C1227,1372.5,1227.46,1378,1227.46,1386.07Z"/><path class="cls-1" d="M613.9,1422.27c-9.55,4-14.84.84-18.32-6.15a57,57,0,0,1-5.7-26.3c.53-42,6.65-83.33,14.31-124.49.43-2.35.31-5.64,3.66-5.59,3.6,0,4.39,3.45,4.35,6.17a112.7,112.7,0,0,1-1.38,13.93c-4.66,33.07-9.39,66.13-11,99.54a90.61,90.61,0,0,0,2.41,26C603.79,1411.88,606.22,1417.8,613.9,1422.27Z"/><path class="cls-1" d="M1120.63,1354.39c7.86-4.91,14.91-9.69,23.74-9.72,3.44,0,6.93-.18,9.92,2,2.55,1.83,3.6,4.4,2.46,7.37s-3.76,2.76-6.35,2.49c-20.64-2.18-31.53,7.22-32.05,27.9-.2,8-1.35,16.13,1,24.16,1,3.4.25,7.45-3.73,8.52-4.38,1.18-6-2.69-6.79-6a40.83,40.83,0,0,1-1.49-12c1.07-16.19-.62-32.69,5.2-48.37.91-2.46-.09-6.68,3.36-6.82,3.67-.15,2.86,4,3.6,6.55Z"/><path class="cls-1" d="M1207.5,1396.43c-10.21,10.53-22,16.91-37.26,14.2-11.47-2-18-9.05-17.12-20.65,1.22-16.22,8.33-29.38,23.35-36.82,6.84-3.39,14.06-2.83,19.79,3.17,1.52,1.59,2.44,4,1.07,6-1.48,2.23-3.16.24-4.85-.25-10.44-3-17.87,0-23.12,10.36-3.7,7.31-10.06,15.57-5.12,23.52,5.41,8.7,15.78,5.47,24.24,4.65C1194.89,1400,1201.17,1397.89,1207.5,1396.43Z"/><path class="cls-1" d="M758.07,1422.75c0-.09,0-.18,0-.25Z"/><path class="cls-2" d="M229.19,600.93C229.64,283,487.22,26,805,26.34c318.19.38,575.65,258.44,575.13,576.47-.53,318.24-259.4,575.73-577.95,574.87C485.46,1176.82,228.75,918.42,229.19,600.93ZM909.85,640,908,638.08l-1.86-1.9c-9.23-9.26-21.16-15-31.41-23.49,1.12-.59,1.64-1.11,2.12-1.07a27.68,27.68,0,0,1,4.62.68C909.35,619.11,934,632,955,651.71c3.87,3.64,7.33,7.74,11.41,11.12,6.55,5.42,11,3.67,12.08-4.7,1.06-8.12,0-16.24-.81-24.32-5.36-52.34-38.8-97.16-100.5-101.38C841.49,530,806.7,534.1,772,541.16c-2.21.45-5.18.21-6.11,3.66,10.46,8.44,10.23,19.29,5.92,30.53-4.23,11.06-14.15,12-24.12,12.31a104.69,104.69,0,0,1-27.84-3.38c-5.26-1.28-5.94-3.94-2.64-7.95,6.19-7.53,13.68-13.66,21.25-19.74,3.59-2.89,8.31-4.61,10.48-9.58-53.38,17-106.54,33.82-163.57,26.06,10.49-2.36,21.19-3.44,31.8-5.05,44.06-6.68,86.24-20.59,128.79-33.23,40.06-11.89,80.93-19.09,123-16.65,32.94,1.9,63.53,10.15,87.81,34.45,3.73,3.74,8.15,6.82,12.41,10,2.43,1.79,5.5,5.23,8.14,3.11,3.6-2.9-.16-6.36-1.87-8.93-17.54-26.32-36.34-51.63-59.65-73.25-7.36-6.84-7.5-6.74-10.94,3-7.2,20.3-19.17,26-39.55,18.71C852.2,500.48,840.69,493,829.45,485c-6.59-4.69-4.5-7.69,1.45-10.45a174.92,174.92,0,0,1,40.15-12.61c2.78-.55,6.37.29,8.38-4.2-15.84-8.77-32.7-13.84-50.38-16.46-18-2.67-36.14-2.6-54.22-3.68-38.47-2.28-77.06-5.12-112.72-21.08-20.25-9.06-40.28-10.27-61.26-6-11.93,2.44-23.74,5.5-35.62,8.17-2.21.5-4.47,2.7-7.78-.71,8.4-3.45,16.2-7,24.27-9.91,30.34-10.73,60.69-14,91.45-.89,8.83,3.75,18.52,5.7,28,7.74,38.33,8.28,77.31,10.82,116.37,12.46,1.54.07,3.88,1,4.45-2.26-12.18-4.74-24.5-9.16-36.5-14.3s-23.22-12.21-34.36-19.17c-5.76-3.59-5.9,1.77-7.18,5-6.41,15.92-14,20.15-30.7,16.42-16.05-3.59-30.54-11-44.51-19.38-7.77-4.68-7.78-7.12.1-11.45,12.71-7,26.51-11,40.58-14.19,10.35-2.36,11.1-4.29,4.28-12.62-11.19-13.67-25.23-24.18-39.38-34.49-8.43-6.14-17.08-12-26.83-18.78,6.62-.54,10.82,1.7,15,3.58,21,9.53,40.22,22,56,38.66,35.93,37.78,79,63.81,127.74,81.21a220.08,220.08,0,0,1,63,34.63c37.26,29.46,64.71,66.6,85.29,109.12,1.48,3.06,1.86,7.27,7.52,9,8.34-40.35,29.24-76.35,36.65-117.24-5.52,0-7.08,3.28-9.6,4.91-18.11,11.7-36.16,6.39-44.39-13.29-4.38-10.47-6.4-21.57-7.63-32.77-.58-5.32-4.15-12.22,1.18-15.7,4.61-3,9.93,2,14.47,4.44a166.08,166.08,0,0,1,45.1,34.87c-3.59-21.31-13.54-36.88-23.17-52.38Q959.33,302.26,859.84,269c51.55,2.48,90,31.51,127.45,63.08.1-.9.38-1.57.19-2.06-.93-2.32-2-4.59-3-6.86-21.7-47-33.87-95.77-28.28-148.17,2.67-25,.06-49.94-5.7-74.49-.58-2.45-2.69-5.09.35-8.36,7.4,5.6,11,13.36,13.52,21.77,6.33,21.35,6.61,43.27,4.48,65.09-2.77,28.44.32,56.07,7.69,83.51,15.86,59.06,46.93,110.82,77.59,162.78,1.85,3.15,4.14,7.16,8.54,6.07s4.45-5.66,4.71-9.34c1.32-18.14-1.53-36.2-1.28-54.33.07-5.26-2.39-5.33-6.59-3.53-6.43,2.75-12.85,2.33-18.6-2.08-14.24-10.91-22.56-36-18.07-53.46,1.45-5.68,4.33-7.21,9.5-4.57,5.94,3,10.81,7.39,15.26,12.26,8.22,9,14.93,18.91,18.36,31.1,3.21-18.59,5.74-36.74,10.79-54.41,7-24.47,15-42.27,22.72-50-2.77,8.77-7.25,16.67-9.64,25.47-11.79,43.39-13.09,87.65-10.95,132.13a153.35,153.35,0,0,1-7.18,54.51c-6.87,21.53-16.4,41.86-27.64,61.44a121,121,0,0,0-8,15.86c-31.87,81.4-21,157.87,29.08,228.42a164.06,164.06,0,0,1,28.37,67.43c7.24,40.19,8.12,80.76,6.72,121.45-1.21,34.92-6.3,69.76-1.47,104.79,1.91,13.86,2,14.33,13.08,6.36,179.35-128.6,263.25-303,240.38-522.74C1320.5,233.78,1040.55,15.77,736.43,53.53c-275.27,34.17-484,268.4-483.85,545.86.06,166.66,61.81,308.76,188.46,417.15,166.05,142.1,355.26,172.87,561.49,101.31,9.21-3.2,12.55-8.15,12.45-17.78-.19-17.77-3-35.46-.66-53.34,3.25-24.47,5.65-49.05,8.42-73.57,6-53.47-1.81-105-24.63-153.53-25.9-55-68-90.68-130.11-97.92C810,715,759,726.09,721.89,777c-20.34,27.93-46.35,50.77-77.81,66.37-3.85,1.92-7.68,5.29-13.92,3.31,5.9-4.57,11.14-8.31,16-12.48,23.89-20.42,44.06-44.26,63.16-69.05,3-3.9,9.81-7.26,8.49-11.48-1.61-5.15-8.82-1.58-13.4-2.82a5.75,5.75,0,0,0-.94-.11c-5.12-.52-7-2.67-3.4-7.22,9.5-12,19.17-23.93,31.49-33.27,3.7-2.8,7.83-6.08,12.8-3.75,5.16,2.42,4.75,7.78,4.54,12.37-.39,8.26,2.37,9.16,9.12,5.14a148.47,148.47,0,0,1,54.33-19.65c9.26-1.4,18.65-1.85,28-2.81,2.14-.23,4.8-.35,5.57-2.7s-1.64-3.8-3.24-5.19c-1.89-1.63-3.86-3.18-5.89-4.63-68.2-48.72-140.77-50.59-216.34-20.18-1.36.54-3,1.16-2.57,3.83,1.43.56,3.09,1.27,4.8,1.87,18.3,6.37,22,19.44,9.67,34.6-4.52,5.57-10.49,8.8-17.24,10.71a63.22,63.22,0,0,1-28.8,1.4c-6.51-1.18-16.06.75-18.39-6.21s4.77-13.07,9.47-18.33c5.63-6.3,12.17-11.78,18.31-17.61-23.24,5.91-46.07,12-69.46,15.83-30.91,5-60.14,4.28-69.83-2.54,3.37,0,5.84.05,8.31,0A306.32,306.32,0,0,0,575,668.79c25.47-10.55,51.72-18.58,78.34-25.63,62.08-16.46,122-10.29,180.11,16.33,16.75,7.69,33.53,15.37,49.94,23.75,16.94,8.66,34.87,9.31,53,7.47,12.51-1.27,15.7-8.56,8.63-18.87-8.55-12.47-19.66-22.54-32.42-30.73Z"/><path class="cls-1" d="M912.62,641.1c12.75,8.2,23.86,18.27,32.41,30.74,7.07,10.31,3.88,17.6-8.63,18.87-18.13,1.84-36.06,1.19-53-7.47-16.41-8.38-33.19-16.06-49.94-23.75-58.09-26.62-118-32.79-180.11-16.33-26.62,7.05-52.87,15.08-78.34,25.63a306.32,306.32,0,0,1-110.29,23.62c-2.47.06-4.94,0-8.31,0,9.69,6.82,38.92,7.56,69.83,2.54,23.39-3.81,46.22-9.92,69.46-15.83-6.14,5.83-12.68,11.31-18.31,17.61-4.7,5.26-11.75,11.51-9.47,18.33s11.88,5,18.39,6.21a63.22,63.22,0,0,0,28.8-1.4c6.75-1.91,12.72-5.14,17.24-10.71,12.28-15.16,8.63-28.23-9.67-34.6-1.71-.6-3.37-1.31-4.8-1.87-.46-2.67,1.21-3.29,2.57-3.83,75.57-30.41,148.14-28.54,216.34,20.18,2,1.45,4,3,5.89,4.63,1.6,1.39,4.06,2.69,3.24,5.19s-3.43,2.47-5.57,2.7c-9.33,1-18.72,1.41-28,2.81A148.47,148.47,0,0,0,758,724c-6.75,4-9.51,3.12-9.12-5.14.21-4.59.62-9.95-4.54-12.37-5-2.33-9.1,1-12.8,3.75-12.32,9.34-22,21.24-31.49,33.27-3.59,4.55-1.72,6.7,3.4,7.22a5.75,5.75,0,0,1,.94.11c4.58,1.24,11.79-2.33,13.4,2.82,1.32,4.22-5.48,7.58-8.49,11.48-19.1,24.79-39.27,48.63-63.16,69.05-4.88,4.17-10.12,7.91-16,12.48,6.24,2,10.07-1.39,13.92-3.31,31.46-15.6,57.47-38.44,77.81-66.37C759,726.09,810,715,868,721.71c62.16,7.24,104.21,42.88,130.11,97.92,22.82,48.5,30.68,100.06,24.63,153.53-2.77,24.52-5.17,49.1-8.42,73.57-2.38,17.88.47,35.57.66,53.34.1,9.63-3.24,14.58-12.45,17.78C796.3,1189.41,607.09,1158.64,441,1016.54,314.39,908.15,252.64,766.05,252.58,599.39,252.47,321.93,461.16,87.7,736.43,53.53c304.12-37.76,584.07,180.25,615.76,484.58,22.87,219.71-61,394.14-240.38,522.74-11.11,8-11.17,7.5-13.08-6.36-4.83-35,.26-69.87,1.47-104.79,1.4-40.69.52-81.26-6.72-121.45a164.06,164.06,0,0,0-28.37-67.43c-50.12-70.55-60.95-147-29.08-228.42a121,121,0,0,1,8-15.86c11.24-19.58,20.77-39.91,27.64-61.44a153.35,153.35,0,0,0,7.18-54.51c-2.14-44.48-.84-88.74,10.95-132.13,2.39-8.8,6.87-16.7,9.64-25.47-7.67,7.69-15.73,25.49-22.72,50-5,17.67-7.58,35.82-10.79,54.41-3.43-12.19-10.14-22.11-18.36-31.1-4.45-4.87-9.32-9.24-15.26-12.26-5.17-2.64-8-1.11-9.5,4.57-4.49,17.5,3.83,42.55,18.07,53.46,5.75,4.41,12.17,4.83,18.6,2.08,4.2-1.8,6.66-1.73,6.59,3.53-.25,18.13,2.6,36.19,1.28,54.33-.26,3.68-.32,8.25-4.71,9.34s-6.69-2.92-8.54-6.07c-30.66-52-61.73-103.72-77.59-162.78-7.37-27.44-10.46-55.07-7.69-83.51,2.13-21.82,1.85-43.74-4.48-65.09-2.49-8.41-6.12-16.17-13.52-21.77-3,3.27-.93,5.91-.35,8.36,5.76,24.55,8.37,49.49,5.7,74.49-5.59,52.4,6.58,101.13,28.28,148.17,1,2.27,2.07,4.54,3,6.86.19.49-.09,1.16-.19,2.06-37.41-31.57-75.9-60.6-127.45-63.08q99.4,33.44,154.75,122.23c9.63,15.5,19.58,31.07,23.17,52.38a166.08,166.08,0,0,0-45.1-34.87c-4.54-2.41-9.86-7.46-14.47-4.44-5.33,3.48-1.76,10.38-1.18,15.7,1.23,11.2,3.25,22.3,7.63,32.77,8.23,19.68,26.28,25,44.39,13.29,2.52-1.63,4.08-4.87,9.6-4.91C1031.22,502,1010.32,538,1002,578.34c-5.66-1.77-6-6-7.52-9-20.58-42.52-48-79.66-85.29-109.12a220.08,220.08,0,0,0-63-34.63c-48.69-17.4-91.81-43.43-127.74-81.21-15.81-16.63-35.05-29.13-56-38.66-4.15-1.88-8.35-4.12-15-3.58,9.75,6.8,18.4,12.64,26.83,18.78,14.15,10.31,28.19,20.82,39.38,34.49,6.82,8.33,6.07,10.26-4.28,12.62-14.07,3.21-27.87,7.21-40.58,14.19-7.88,4.33-7.87,6.77-.1,11.45,14,8.42,28.46,15.79,44.51,19.38,16.7,3.73,24.29-.5,30.7-16.42,1.28-3.19,1.42-8.55,7.18-5,11.14,7,22.28,14,34.36,19.17s24.32,9.56,36.5,14.3c-.57,3.26-2.91,2.33-4.45,2.26-39.06-1.64-78-4.18-116.37-12.46-9.45-2-19.14-4-28-7.74-30.76-13.07-61.11-9.84-91.45.89-8.07,2.86-15.87,6.46-24.27,9.91,3.31,3.41,5.57,1.21,7.78.71,11.88-2.67,23.69-5.73,35.62-8.17,21-4.29,41-3.08,61.26,6,35.66,16,74.25,18.8,112.72,21.08,18.08,1.08,36.25,1,54.22,3.68,17.68,2.62,34.54,7.69,50.38,16.46-2,4.49-5.6,3.65-8.38,4.2a174.92,174.92,0,0,0-40.15,12.61c-5.95,2.76-8,5.76-1.45,10.45,11.24,8,22.75,15.52,35.81,20.21,20.38,7.33,32.35,1.59,39.55-18.71,3.44-9.7,3.58-9.8,10.94-3,23.31,21.62,42.11,46.93,59.65,73.25,1.71,2.57,5.47,6,1.87,8.93-2.64,2.12-5.71-1.32-8.14-3.11-4.26-3.16-8.68-6.24-12.41-10-24.28-24.3-54.87-32.55-87.81-34.45-42-2.44-82.9,4.76-123,16.65C703.4,547.43,661.22,561.34,617.16,568c-10.61,1.61-21.31,2.69-31.8,5.05,57,7.76,110.19-9.08,163.57-26.06-2.17,5-6.89,6.69-10.48,9.58-7.57,6.08-15.06,12.21-21.25,19.74-3.3,4-2.62,6.67,2.64,7.95a104.69,104.69,0,0,0,27.84,3.38c10-.29,19.89-1.25,24.12-12.31,4.31-11.24,4.54-22.09-5.92-30.53.93-3.45,3.9-3.21,6.11-3.66,34.71-7.06,69.5-11.18,105.17-8.73,61.7,4.22,95.14,49,100.5,101.38.83,8.08,1.87,16.2.81,24.32-1.1,8.37-5.53,10.12-12.08,4.7-4.08-3.38-7.54-7.48-11.41-11.12-21-19.72-45.63-32.6-73.52-39.41a27.68,27.68,0,0,0-4.62-.68c-.48,0-1,.48-2.12,1.07,10.25,8.47,22.18,14.23,31.41,23.49l.11-.08a119.44,119.44,0,0,0-47.13,2.46c-6.55,1.64-7.5,4.55-2.51,9.43,6,5.88,12.08,11.67,19.28,16.08,7.57,4.63,15.58,9.12,24.3,3.52,9.09-5.84,13.54-14.35,11.25-25.52ZM511.2,505.68C510.91,518.88,513,521,522,518.81c31.92-7.83,53.19-27.46,63.52-58.66,2.83-8.56-1.79-21.75-8.92-26.91-8.3-6-16.18-2.86-23.38,2.06C527.16,453.11,516.27,479.66,511.2,505.68ZM538,643.74c11.18,0,21.84-2.49,31.25-8.44,9.65-6.09,12.85-16,12-26.8C580.32,598,572,594,563.05,592.28c-26.53-5-49.15,3.65-68.88,21.19-5,4.41-5.15,8.77.27,13.23C507.12,637.15,521.23,643.79,538,643.74ZM679.11,873.86c-.25-7.51-2-16.79-12.1-20.26-12-4.09-24.72-2.55-33.22,6.54-15.42,16.48-22.59,37.12-23.14,59.82-.13,5.2,2.44,7.47,7.72,6.25,16.89-3.9,33-9.46,46.45-21C673.73,897.5,679.07,887.93,679.11,873.86Zm77.15-378.6c14.14.43,24.67-5.35,31.89-17.6,9.3-15.79,3.25-27.17-15.24-27.39A188.73,188.73,0,0,0,712,459.33a69.68,69.68,0,0,0-17,7.85c-4.41,2.91-4.44,5.75.31,8.27C714.48,485.65,734.19,494.16,756.26,495.26Zm-61.56,5.89c-14.69-.07-29.3,1.26-43.88,2.78-2.66.28-6.17-.2-7.47,2.8s1.52,5.18,3.27,7.21a103.34,103.34,0,0,0,21.49,19.35c24.14,15.81,50.42,12.9,70.52-7.87,9.87-10.2,7.94-17.57-5.79-21.34C720.34,500.64,707.49,501.17,694.7,501.15ZM973.85,372.74c-.22-24.35-21.34-46.86-46.59-49.51a92.2,92.2,0,0,0-38.72,4.49c-2.32.75-5.55,1-6.15,3.66-.75,3.28,2.67,4.61,4.74,6.27,16.08,12.85,32.59,25.12,50.43,35.46,7.55,4.37,15.2,8.74,24,10.18S973.93,381.36,973.85,372.74ZM860.74,578.35c14-.12,28.2.86,41.8-3.66,10.11-3.36,11.9-9.59,5.56-17.74-15-19.26-41.35-25.89-63.34-15.9-12.78,5.82-23.12,14.79-31.91,25.54-5.06,6.18-4.16,8.27,3.95,9.1C831.4,577.18,846,578.45,860.74,578.35ZM1118,246.15c-.06,24.3,15.1,36.37,35,26.5,16.89-8.4,25.85-23.64,28.78-42.24.73-4.61-1.46-7.66-5.71-9.53-9.93-4.36-20.22-6.34-31-4.22C1130.79,219.47,1118,233.56,1118,246.15ZM726.23,983.65a186.94,186.94,0,0,0,2.42,32.56c1,6.41,3.91,7.92,9.49,4.06,6.68-4.61,13.23-9.33,19-15.07,20.11-20,20.74-37.89-3.41-60.72-11.06-10.46-22-6.39-25.16,8.49C726.44,963.05,726.07,973.35,726.23,983.65ZM482.81,550.23a151.35,151.35,0,0,0-54.69,17.57c-3.36,1.88-6.09,4.64-1.2,7.61C444.31,586,462,596.27,482.76,598.15c13.85,1.25,24-10.06,24.49-25.92C507.65,558.88,499.05,550.41,482.81,550.23Zm127.69,11a74.86,74.86,0,0,0,8.24-1.19c9.83-2.28,19.79-14.57,20.72-25.28.8-9.13-4.76-17.14-16.55-21.13-18.12-6.13-35-2.1-50.69,8.27-3.08,2-4.46,4.77-3.41,8.82C573.07,547.1,591.28,561.21,610.5,561.21ZM460,459.72c20-3.48,41.53-5.66,61-15.63,12.52-6.41,14-19.22,3.86-29.07-8.48-8.23-21.59-9.41-33.75-1.94-15.63,9.6-27.6,23.1-37.73,38.25-1.34,2-3.14,4.35-1.48,6.85S456.44,459.62,460,459.72ZM543.3,932c12.92-.34,25.77-2.18,35.12-13.17,7.22-8.48,8.94-19.2,4.53-25.87-4.85-7.31-20.93-12.65-29.58-8.94a78.5,78.5,0,0,0-38.64,35.15c-2.79,5.06-1.72,8.14,4.09,9.52A138.2,138.2,0,0,0,543.3,932Zm86.34-301.85C644.41,630,656,623.54,664.83,612c4.91-6.39,4.85-19.66.08-26.53-5.31-7.63-12.93-8-20.91-6-17.94,4.56-29.44,16.86-37.39,32.72-4.65,9.29-2.79,12.41,7.4,15.49A49.84,49.84,0,0,0,629.64,630.15ZM901.77,390.86c-7.85,0-9.34,1.12-10.55,6.45-4.68,20.47,7.51,43.69,27.11,51,9.47,3.52,18,.2,24.89-6.2s5.06-14.32,1.34-21.56C935.2,402.31,918.68,394.62,901.77,390.86ZM747.52,227.28c-11.45-.1-21.52,1.49-30.72,6.83-4.17,2.43-6.53,5.2-4.18,10.64,8.11,18.79,31.9,30.32,51.46,24.57,7.48-2.2,15.57-12.17,16.12-20.13.61-8.9-5.21-13.48-12-17.29A37.45,37.45,0,0,0,747.52,227.28Zm77.57,97.81a35.81,35.81,0,0,0,19.54-5.54c8.11-4.92,13.51-19.34,10.57-28.91-3.09-10-11.45-12.88-20.57-13-16.61-.16-30,7.19-40.57,19.74-3,3.54-3.2,7.28,0,11C802.2,318,812,324.72,825.09,325.09Zm-190,159.14a41.14,41.14,0,0,0,30.07-12.91c6.81-7.09,6.69-16.06,3.85-24.55s-10.56-10-18.42-9.5c-20,1.38-34,12.4-44.35,28.74-2.87,4.53-1.65,8.16,3.08,10.84C617.36,481.4,625.83,484.15,635.12,484.23Zm147.53-141c-5.57.49-11.16.75-16.68,1.54-4.39.64-6.31,3.12-2.88,7,12,13.57,24.41,26.68,41.06,34.66,8.53,4.08,15.67,1.8,21.34-5.68,9.17-12.08,4.91-27-9.71-32.51C805.17,344.28,793.92,343.75,782.65,343.26Zm-62.94-22.79c17.32.21,22.89-8.13,15.61-23.85-6.11-13.21-15.63-24-25.2-34.8-3.71-4.16-6.47-2.71-8.52,1.55-3.11,6.46-6.69,12.8-9,19.56C684.81,306.35,694.94,320.17,719.71,320.47Zm403.44-2c0-1.83.79-4.42-1.19-5.84-2.62-1.87-4.68.54-6.57,1.94-8.34,6.13-15.82,13.16-21.19,22.1-10.9,18.15-9.65,36.23,1.2,53.83,5.4,8.75,11,8.19,15.48-1.17a57.39,57.39,0,0,0,3.41-9.66C1119.69,359.73,1121.14,339.21,1123.15,318.47ZM566,820c-11.22,0-21.1.89-30.37,5.11-4.11,1.87-7,4-3.12,9.08,11.55,15.25,41.59,25.37,60.2,19.8,7.16-2.14,12-7,12.87-14.46.83-7-4.64-10.44-10-13.19A58,58,0,0,0,566,820Zm471.42-603.13c2.08,20.41,3.55,41,10.1,60.76,1.46,4.38,3,9.64,8.48,10.21,5.62.59,7.71-4.53,10-8.58,13.58-24.43,7.61-49.42-16.51-68.67-3-2.42-6.24-7.11-10.26-5.06S1038.05,212.94,1037.37,216.89ZM536.1,268.16c-.63,0-1.25,0-1.87,0-7.08.44-16.59-1.39-19.88,5-3.5,6.76,4.66,12.62,8.67,18.2,6.66,9.26,15,16.85,26.56,19.49,11.13,2.54,23.61-2.95,26.22-11.15,3-9.26-4.7-23.21-15-27.13A66.44,66.44,0,0,0,536.1,268.16ZM829.2,625.53c0-6.39-2-12.22-5-17.75-7.79-14.18-16.65-16.71-30.71-8.59-8.4,4.85-15.62,11.22-22.44,18.07-4.17,4.19-3.85,7.5,1.45,10.12,13.2,6.51,26.95,11.44,41.69,12.63C824.13,640.82,829.09,635.62,829.2,625.53ZM646,812.12c15.9.47,23.53-5.72,24.73-18.68a33.54,33.54,0,0,0-3.06-17.31c-4.81-10.47-10.73-12.73-21-7.51-13.3,6.77-23.4,17.48-33.53,28.09-4.28,4.48-2,7.17,2.63,9A105.55,105.55,0,0,0,646,812.12ZM469.19,910c6.61.2,13.07-.41,19.12-3.35,9.88-4.81,16-16.17,13.08-24.26s-17.55-15.13-26.94-12.12c-14.38,4.62-25.75,13.57-34.17,26.19-3,4.56-1.92,7.42,3.27,9C451.92,908.05,460.38,910.05,469.19,910ZM962.88,485c.12,17.08,6.14,31.06,18.22,42.26,5.91,5.48,13.11,6.26,20,2.59,6.69-3.55,6.23-10.22,4.89-16.6-3.14-15.08-12.13-26.57-23.18-36.58-4.3-3.89-9.47-9.73-15.24-7.25C961.55,472,963.86,479.88,962.88,485Zm-327-180.08A132.31,132.31,0,0,0,593,316.67c-4.63,2.17-5.29,5-.84,8.25,9.59,7.08,19.64,13.39,31.1,17,15,4.68,25.92-1.81,29.5-17.2C655.47,312.86,649.27,305,635.9,304.91Zm94.19,563c0,6.85-.12,13.7,0,20.55.12,4.87,2.49,6.37,6.5,3.16,19.54-15.68,33.5-41.4,15.48-68.93-2.51-3.82-5.05-8.7-10.65-7.58-5,1-6,6-7,10.17C730.8,839.29,730.48,853.64,730.09,868ZM609.38,225.11a118.56,118.56,0,0,0-39.54,10.83c-2.77,1.28-8.15,3.44-3.52,7.1,12.72,10.06,26,19.88,43.27,20,10.35,0,20.08-13,19.4-24.69C628.45,229.15,622.63,224.82,609.38,225.11ZM560.54,390.64v-.43c3.11,0,6.23.18,9.32,0,13-.92,26.18-1.44,38.54-6.19,9.1-3.5,10.29-9,3.53-15.31-7-6.57-15.37-10.36-25.21-10.6-15.68-.39-27.11,7.76-37.25,18.41-3.37,3.53-9.56,7.32-8,11.71,1.83,5.09,8.78,1.81,13.46,2.41A43.4,43.4,0,0,0,560.54,390.64ZM482.07,648.29c-5.9.36-11.83.5-17.7,1.16-4.76.54-11.72-1.39-13.52,3.51s4.6,8.15,8,11.46c18.17,17.5,38.7,19.33,56.15,5.08,4-3.27,9.42-6.59,7.91-12.69s-7.8-6.51-13-7.33A125.46,125.46,0,0,0,482.07,648.29Zm.14,201.05c11.84.21,19.82-8.42,20.15-20.24.28-10-6.27-16.83-17.11-16.59C470,812.86,456,818.19,442.57,825c-3.61,1.82-5.79,4.66-1.07,7.56C454.53,840.56,468,847.62,482.21,849.34Zm334.11,39.45c0-2.79.2-5.61,0-8.38-.65-7.4-3.73-13.08-11.39-15.38-7.94-2.39-15.54-2.27-21.7,4-5.5,5.61-5.08,12.48-2.42,19.19A113.94,113.94,0,0,0,802.5,922.8c3.83,4.24,6.78,3.87,8.43-1.93C813.9,910.37,816.3,899.77,816.32,888.79ZM481,746.94q27.69-.91,46-21.54c4.87-5.47,6-11.87,2.2-18-3.64-5.87-9.84-4.5-15.25-2.89-17.22,5.11-29.61,16.64-39.75,30.88-1.89,2.66-4.71,5.84-2.65,9.31S477.82,746.45,481,746.94ZM816.4,788c.32-11.35-7.82-20.05-18.69-21.86-9-1.49-16,3.14-16.31,12.28-.59,15.24,3.77,29.62,10.06,43.39,1.73,3.77,4.56,4.31,7.21.92C807.19,811.79,814.69,800.35,816.4,788Zm-89.21-97.6c13.93,0,24.89-8.75,24.45-18.36-.35-7.85-11.84-16.91-21.29-15.82a53.15,53.15,0,0,0-32.68,16.34c-3.95,4.07-3,6.93,1.68,9.37C708.55,686.67,718.15,690,727.19,690.36ZM957.3,624.81C956.92,602,935,583.16,912.22,585.4c-4.75.46-6.47,2.36-3.6,6.52,9.91,14.34,20.07,28.52,33.27,40.1,3.18,2.79,6.88,6.4,11.57,4S957,628.55,957.3,624.81Z"/><path class="cls-1" d="M906.13,636.18l1.86,1.9.12-.07c-.62-.64-1.24-1.28-1.87-1.91Z"/><path class="cls-1" d="M908,638.08l1.86,1.91.15-.11L908.11,638Z"/><path class="cls-1" d="M909.85,640c.92.37,1.84.75,2.77,1.11l-1.19,1c-.48-.73-1-1.46-1.43-2.19Z"/><path class="cls-2" d="M511.2,505.68c5.07-26,16-52.57,42-70.38,7.2-4.92,15.08-8.07,23.38-2.06,7.13,5.16,11.75,18.35,8.92,26.91C575.17,491.35,553.9,511,522,518.81,513,521,510.91,518.88,511.2,505.68Z"/><path class="cls-2" d="M538,643.75c-16.75,0-30.86-6.6-43.54-17-5.42-4.46-5.23-8.82-.27-13.23,19.73-17.54,42.35-26.15,68.88-21.19,9,1.68,17.27,5.75,18.14,16.22.9,10.75-2.3,20.71-12,26.8C559.83,641.25,549.17,643.75,538,643.75Z"/><path class="cls-2" d="M679.11,873.86c0,14.07-5.38,23.64-14.29,31.33-13.4,11.56-29.56,17.12-46.45,21-5.28,1.22-7.85-1.05-7.72-6.25.55-22.7,7.72-43.34,23.14-59.82,8.5-9.09,21.24-10.63,33.22-6.54C677.14,857.07,678.86,866.35,679.11,873.86Z"/><path class="cls-2" d="M756.26,495.26c-22.07-1.1-41.78-9.61-60.93-19.81-4.75-2.52-4.72-5.36-.31-8.27a69.68,69.68,0,0,1,17-7.85,188.73,188.73,0,0,1,60.93-9.06c18.49.22,24.54,11.6,15.24,27.39C780.93,489.91,770.4,495.69,756.26,495.26Z"/><path class="cls-2" d="M694.7,501.15c12.79,0,25.64-.51,38.14,2.93,13.73,3.77,15.66,11.14,5.79,21.34-20.1,20.77-46.38,23.68-70.52,7.87a103.34,103.34,0,0,1-21.49-19.35c-1.75-2-4.61-4.13-3.27-7.21s4.81-2.52,7.47-2.8C665.4,502.41,680,501.08,694.7,501.15Z"/><path class="cls-2" d="M973.85,372.74c.08,8.62-3.66,12-12.32,10.55s-16.42-5.81-24-10.18c-17.84-10.34-34.35-22.61-50.43-35.46-2.07-1.66-5.49-3-4.74-6.27.6-2.64,3.83-2.91,6.15-3.66a92.2,92.2,0,0,1,38.72-4.49C952.51,325.88,973.63,348.39,973.85,372.74Z"/><path class="cls-2" d="M860.74,578.35c-14.71.1-29.34-1.17-43.94-2.66-8.11-.83-9-2.92-3.95-9.1,8.79-10.75,19.13-19.72,31.91-25.54,22-10,48.33-3.36,63.34,15.9,6.34,8.15,4.55,14.38-5.56,17.74C888.94,579.21,874.77,578.23,860.74,578.35Z"/><path class="cls-2" d="M1118,246.15c0-12.59,12.8-26.68,27.08-29.49,10.73-2.12,21-.14,31,4.22,4.25,1.87,6.44,4.92,5.71,9.53-2.93,18.6-11.89,33.84-28.78,42.24C1133.09,282.52,1117.93,270.45,1118,246.15Z"/><path class="cls-2" d="M726.23,983.65c-.16-10.3.21-20.6,2.33-30.68,3.12-14.88,14.1-19,25.16-8.49,24.15,22.83,23.52,40.69,3.41,60.72-5.76,5.74-12.31,10.46-19,15.07-5.58,3.86-8.47,2.35-9.49-4.06A186.94,186.94,0,0,1,726.23,983.65Z"/><path class="cls-2" d="M482.81,550.23c16.24.18,24.84,8.65,24.44,22-.47,15.86-10.64,27.17-24.49,25.92-20.79-1.88-38.45-12.2-55.84-22.74-4.89-3-2.16-5.73,1.2-7.61A151.35,151.35,0,0,1,482.81,550.23Z"/><path class="cls-2" d="M610.5,561.21c-19.22,0-37.43-14.11-41.69-30.51-1-4.05.33-6.78,3.41-8.82,15.64-10.37,32.57-14.4,50.69-8.27,11.79,4,17.35,12,16.55,21.13-.93,10.71-10.89,23-20.72,25.28A74.86,74.86,0,0,1,610.5,561.21Z"/><path class="cls-2" d="M460,459.72c-3.6-.1-6.46.92-8.09-1.54s.14-4.85,1.48-6.85c10.13-15.15,22.1-28.65,37.73-38.25,12.16-7.47,25.27-6.29,33.75,1.94,10.14,9.85,8.66,22.66-3.86,29.07C501.57,454.06,480,456.24,460,459.72Z"/><path class="cls-2" d="M543.3,932a138.2,138.2,0,0,1-24.48-3.31c-5.81-1.38-6.88-4.46-4.09-9.52A78.5,78.5,0,0,1,553.37,884C562,880.31,578.1,885.65,583,893c4.41,6.67,2.69,17.39-4.53,25.87C569.07,929.82,556.22,931.66,543.3,932Z"/><path class="cls-2" d="M629.64,630.15A49.84,49.84,0,0,1,614,627.74c-10.19-3.08-12-6.2-7.4-15.49,7.95-15.86,19.45-28.16,37.39-32.72,8-2,15.6-1.67,20.91,6,4.77,6.87,4.83,20.14-.08,26.53C656,623.54,644.41,630,629.64,630.15Z"/><path class="cls-2" d="M901.77,390.86c16.91,3.76,33.43,11.45,42.79,29.65,3.72,7.24,5.5,15.22-1.34,21.56s-15.42,9.72-24.89,6.2c-19.6-7.27-31.79-30.49-27.11-51C892.43,392,893.92,390.84,901.77,390.86Z"/><path class="cls-2" d="M747.52,227.28a37.45,37.45,0,0,1,20.66,4.62c6.81,3.81,12.63,8.39,12,17.29-.55,8-8.64,17.93-16.12,20.13-19.56,5.75-43.35-5.78-51.46-24.57-2.35-5.44,0-8.21,4.18-10.64C726,228.77,736.07,227.18,747.52,227.28Z"/><path class="cls-2" d="M825.09,325.09c-13.14-.37-22.89-7-31.08-16.68-3.15-3.71-2.93-7.45,0-11,10.6-12.55,24-19.9,40.57-19.74,9.12.08,17.48,2.92,20.57,13,2.94,9.57-2.46,24-10.57,28.91A35.81,35.81,0,0,1,825.09,325.09Z"/><path class="cls-2" d="M635.1,484.22c-9.27-.07-17.74-2.82-25.75-7.37-4.73-2.68-6-6.31-3.08-10.84,10.36-16.34,24.34-27.36,44.35-28.74,7.86-.55,15.59,1,18.42,9.5s3,17.46-3.85,24.55A41.1,41.1,0,0,1,635.1,484.22Z"/><path class="cls-2" d="M782.65,343.26c11.27.49,22.52,1,33.13,5,14.62,5.51,18.88,20.43,9.71,32.51-5.67,7.48-12.81,9.76-21.34,5.68-16.65-8-29.09-21.09-41.06-34.66-3.43-3.89-1.51-6.37,2.88-7C771.49,344,777.08,343.75,782.65,343.26Z"/><path class="cls-2" d="M719.71,320.47c-24.77-.3-34.9-14.12-27.06-37.54,2.26-6.76,5.84-13.1,9-19.56,2-4.26,4.81-5.71,8.52-1.55,9.57,10.76,19.09,21.59,25.2,34.8C742.6,312.34,737,320.68,719.71,320.47Z"/><path class="cls-2" d="M1123.15,318.47c-2,20.74-3.46,41.26-8.86,61.2a57.39,57.39,0,0,1-3.41,9.66c-4.44,9.36-10.08,9.92-15.48,1.17-10.85-17.6-12.1-35.68-1.2-53.83,5.37-8.94,12.85-16,21.19-22.1,1.89-1.4,3.95-3.81,6.57-1.94C1123.94,314.05,1123.11,316.64,1123.15,318.47Z"/><path class="cls-2" d="M566,820a58,58,0,0,1,29.55,6.34c5.39,2.75,10.86,6.16,10,13.19-.88,7.41-5.71,12.32-12.87,14.46-18.61,5.57-48.65-4.55-60.2-19.8-3.87-5.13-1-7.21,3.12-9.08C544.85,820.91,554.73,820,566,820Z"/><path class="cls-2" d="M1037.37,216.89c.68-3.95-2.37-9.22,1.77-11.34s7.23,2.64,10.26,5.06c24.12,19.25,30.09,44.24,16.51,68.67-2.25,4.05-4.34,9.17-10,8.58-5.44-.57-7-5.83-8.48-10.21C1040.92,257.91,1039.45,237.3,1037.37,216.89Z"/><path class="cls-2" d="M536.09,268.17a66.25,66.25,0,0,1,24.73,4.38c10.28,3.92,17.93,17.87,15,27.13-2.61,8.2-15.09,13.69-26.22,11.15C538,308.19,529.68,300.6,523,291.34c-4-5.58-12.17-11.44-8.67-18.2,3.29-6.36,12.8-4.53,19.88-5C534.85,268.13,535.47,268.16,536.09,268.17Z"/><path class="cls-2" d="M829.2,625.53c-.11,10.09-5.07,15.29-15.05,14.48-14.74-1.19-28.49-6.12-41.69-12.63-5.3-2.62-5.62-5.93-1.45-10.12,6.82-6.85,14-13.22,22.44-18.07,14.06-8.12,22.92-5.59,30.71,8.59C827.2,613.31,829.2,619.14,829.2,625.53Z"/><path class="cls-2" d="M646,812.12a105.55,105.55,0,0,1-30.21-6.44c-4.62-1.8-6.91-4.49-2.63-9,10.13-10.61,20.23-21.32,33.53-28.09,10.25-5.22,16.17-3,21,7.51a33.54,33.54,0,0,1,3.06,17.31C669.56,806.4,661.93,812.59,646,812.12Z"/><path class="cls-2" d="M469.19,910c-8.81,0-17.27-2-25.64-4.53-5.19-1.59-6.31-4.45-3.27-9,8.42-12.62,19.79-21.57,34.17-26.19,9.39-3,24,4,26.94,12.12s-3.2,19.45-13.08,24.26C482.26,909.62,475.8,910.23,469.19,910Z"/><path class="cls-2" d="M962.88,485c1-5.11-1.33-13,4.68-15.58,5.77-2.48,10.94,3.36,15.24,7.25,11.05,10,20,21.5,23.18,36.58,1.34,6.38,1.8,13-4.89,16.6-6.88,3.67-14.08,2.89-20-2.59C969,516.05,963,502.07,962.88,485Z"/><path class="cls-2" d="M635.9,304.91c13.37.12,19.57,7.95,16.82,19.77-3.58,15.39-14.49,21.88-29.5,17.2-11.46-3.57-21.51-9.88-31.1-17-4.45-3.29-3.79-6.08.84-8.25A132.31,132.31,0,0,1,635.9,304.91Z"/><path class="cls-2" d="M730.09,868c.39-14.31.71-28.66,4.33-42.63,1.08-4.16,2.05-9.18,7-10.17,5.6-1.12,8.14,3.76,10.65,7.58,18,27.53,4.06,53.25-15.48,68.93-4,3.21-6.38,1.71-6.5-3.16C730,881.65,730.09,874.8,730.09,868Z"/><path class="cls-2" d="M609.38,225.11c13.25-.29,19.07,4,19.61,13.2.68,11.69-9,24.73-19.4,24.69-17.25-.08-30.55-9.9-43.27-20-4.63-3.66.75-5.82,3.52-7.1A118.56,118.56,0,0,1,609.38,225.11Z"/><path class="cls-2" d="M560.54,390.64a43.4,43.4,0,0,1-5.59,0c-4.68-.6-11.63,2.68-13.46-2.41-1.58-4.39,4.61-8.18,8-11.71,10.14-10.65,21.57-18.8,37.25-18.41,9.84.24,18.17,4,25.21,10.6,6.76,6.31,5.57,11.81-3.53,15.31-12.36,4.75-25.51,5.27-38.54,6.19-3.09.22-6.21,0-9.32,0Z"/><path class="cls-2" d="M482.07,648.28a126.07,126.07,0,0,1,27.93,1.2c5.15.82,11.42,1.21,13,7.33s-3.89,9.42-7.91,12.69c-17.45,14.25-38,12.42-56.15-5.08-3.44-3.31-9.83-6.56-8-11.46s8.76-3,13.52-3.51C470.24,648.79,476.17,648.65,482.07,648.28Z"/><path class="cls-2" d="M482.21,849.34c-14.19-1.72-27.68-8.78-40.71-16.83-4.72-2.9-2.54-5.74,1.07-7.56,13.45-6.76,27.44-12.09,42.68-12.44,10.84-.24,17.39,6.56,17.11,16.59C502,840.92,494.05,849.55,482.21,849.34Z"/><path class="cls-2" d="M816.32,888.79c0,11-2.42,21.58-5.39,32.08-1.65,5.8-4.6,6.17-8.43,1.93a113.94,113.94,0,0,1-21.73-34.58c-2.66-6.71-3.08-13.58,2.42-19.19,6.16-6.27,13.76-6.39,21.7-4,7.66,2.3,10.74,8,11.39,15.38C816.52,883.18,816.32,886,816.32,888.79Z"/><path class="cls-2" d="M481,746.94c-3.22-.49-7.36,1.19-9.43-2.28s.76-6.65,2.65-9.31c10.14-14.24,22.53-25.77,39.75-30.88,5.41-1.61,11.61-3,15.25,2.89,3.84,6.17,2.67,12.57-2.2,18Q508.7,746,481,746.94Z"/><path class="cls-2" d="M816.4,788c-1.71,12.39-9.21,23.83-17.73,34.73-2.65,3.39-5.48,2.85-7.21-.92-6.29-13.77-10.65-28.15-10.06-43.39.36-9.14,7.34-13.77,16.31-12.28C808.58,767.91,816.72,776.61,816.4,788Z"/><path class="cls-2" d="M910,639.88c.47.73,1,1.46,1.43,2.19,2.29,11.17-2.16,19.68-11.25,25.52-8.72,5.6-16.73,1.11-24.3-3.52-7.2-4.41-13.27-10.2-19.28-16.08-5-4.88-4-7.79,2.51-9.43a119.44,119.44,0,0,1,47.13-2.46c.63.63,1.25,1.27,1.87,1.91Z"/><path class="cls-2" d="M727.19,690.36c-9-.34-18.64-3.69-27.84-8.47-4.7-2.44-5.63-5.3-1.68-9.37a53.15,53.15,0,0,1,32.68-16.34c9.45-1.09,20.94,8,21.29,15.82C752.08,681.61,741.12,690.34,727.19,690.36Z"/><path class="cls-2" d="M957.3,624.81c-.26,3.74.79,8.82-3.84,11.2s-8.39-1.2-11.57-4c-13.2-11.58-23.36-25.76-33.27-40.1-2.87-4.16-1.15-6.06,3.6-6.52C935,583.16,956.92,602,957.3,624.81Z"/></svg>