<svg id="Layer_1" data-name="Layer 1" xmlns="http://www.w3.org/2000/svg" viewBox="0 0 2021.21 1474.84"><defs><style>.cls-1{fill:#fff;}</style></defs><path class="cls-1" d="M1704,1373.21c29.34-37.23,5.12-87.76-42.81-93.62-20.28-2.47-41.12-1.12-61.68-1-17,.06-25.91,8.79-25.85,26.14,0,23.37,0,46.8,0,70.18h.34c0,25.23-.51,50.52.22,75.76.28,11,5.35,20.89,18.42,20.22,11.38-.62,15.15-9.8,16.22-19.77.85-7.44.62-14.93,1.07-22.42.62-10.14-.73-21.52,13.07-24.56s23.83,1.64,30.13,14.31c5.07,10,10.2,20,15.21,30,6.87,13.58,13.92,30.64,32.67,21.07,18-9.13,7.89-24.9.79-36.28C1688.53,1412.13,1686.34,1395.51,1704,1373.21Zm-67.26-4.28c-19.37,2.08-26.53-9.3-26.53-30.19,0-21.58,11.27-27.6,30.08-26.48,19,1.13,37.63,5.75,37.18,28.73C1676.93,1363.35,1659.24,1369,1636.71,1368.93Z"/><path class="cls-1" d="M1382.12,1455.78c-.17,11.33-9.13,16.56-19.1,16.85-27.15.78-54.3.95-81.45.22-16-.45-23-11.38-23.2-26.42-.34-23.43-.12-46.86-.12-70.29h-.11c0-22.48.28-45-.11-67.48-.28-19.66,8.67-29.91,28.5-30,24.39-.12,48.72-.34,73.11.11,10.48.22,22.31,1.8,22.53,15.6s-11,15.77-21.91,16.17c-14,.45-28.11.5-42.13.73-14.65.28-22.53,6.93-22.76,22.3s7.49,22.25,22.08,22.87c12.17.57,24.39.79,36.5,1.86,8,.73,15,4.68,15.66,13.46.73,10.26-6.42,15.55-15.54,16.56-12.06,1.36-24.34,1.47-36.5,1.86-16.85.51-22.7,9.92-22.14,25.69.51,15.32,8.17,21.74,23.09,21.68s30,0,45,1.07C1373.5,1439.34,1382.28,1444.35,1382.12,1455.78Z"/><path class="cls-1" d="M1519.38,758.46c-37.51-.68-39,1.58-39.14,40.1-.17,51.6-.06,103.19-.06,154.79h-.11c0,52.55.28,105.1-.06,157.6-.22,35.54-7.32,42.75-43.37,42.81-97.28.22-90.18,8.45-90.18-88.83,0-89.16.17-178.27-.11-267.38-.06-36.95-2.2-39.65-37.46-39.15-83.31,1.18-80.15-.11-79.59-80.83.28-41,4.85-46,44.84-46.07q139.32-.35,278.65,0c36.44.11,44.61,8.56,45.23,44.78C1599.48,759.47,1598.13,759.81,1519.38,758.46Z"/><path class="cls-1" d="M2020.64,1071.24c1.35,83.48,1.35,83.2-82.92,82.8-73.16-.34-146.33.28-219.5-.06-38.59-.16-43.77-5.63-43.94-44.38-.22-72.27,0-144.48,0-216.75,0-73.17-.17-146.33.17-219.56.17-35.54,5.85-41.51,40.66-41.68q130.88-.51,261.75-.06c34.36.17,42.59,9,43.71,43.71,2.6,82.35,2,82.92-80.71,83-35.66.06-71.31.68-107,.23-25.17-.34-25.34,16.22-25.4,34.13-.06,17.69,2.31,31.66,25.4,31.21,36.62-.74,73.17.22,109.78-.12,26.7-.22,39,12.11,40.45,39,4.67,88.77,5.07,88.77-84.21,88.77-20.67,0-41.29.74-61.91.12-32-1-29.06,21.06-29.68,42.24s4.56,33.63,29.52,33c46-1.24,91.92-.56,137.88-.17C2011,1027,2020,1036.15,2020.64,1071.24Z"/><path class="cls-1" d="M1989,244.81c-7.83-115-98.4-219.16-215.45-238.77-65.17-10.92-131.13-3.43-196.69-4.73-35.88-.73-43,6.93-43.15,42.7-.39,73.17-.11,146.39-.11,219.62,0,75,.17,150.11-.11,225.19-.06,20.45,6.42,37.57,28.78,37.29,77.56-.9,155.52,9.46,232.69-8.45C1889.4,495.64,1999,392.16,1989,244.81ZM1803.84,372.9c-26.93,22.64-59,26.87-81.85,27.37-53.4.4-55.25-1.23-55.37-43.25q-.25-92.77,0-185.6c.11-42.25,2.36-44.1,47.82-43.32,64.77,1.13,111.86,31.38,130.51,83.87C1866.13,271.68,1850,334.15,1803.84,372.9Z"/><path class="cls-1" d="M1350.8,527.41c-62,0-123.86.11-185.77-.12-37-.17-47.09-9.46-47.37-46.3-.51-72.27-.11-144.48-.11-216.74s-.28-144.48.06-216.69c.16-37.74,9-46.08,46.63-46.47,15.94-.17,31.89-.34,47.83.11,32.5.9,42.07,10.7,42.24,45.74.45,92.88.23,185.76.23,278.65,0,15.94.62,31.88,0,47.82-.79,19.43,8.56,26.92,27.09,26.81,38.47-.23,76.94.62,115.41.11,26.65-.34,38.92,10.59,39.83,38.36C1439.8,527.46,1440.47,527.41,1350.8,527.41Z"/><path class="cls-1" d="M978,489.44c-.05,24.28-12.62,38.47-38.69,37.91-17.8-.39-35.66.28-53.46-.11-33.34-.79-43.82-10.54-44.1-44.16-.62-73.17-.17-146.34-.17-219.51h-.12c0-70.35-.16-140.7.06-211.06C841.6,8.64,849,1.26,891.68,1c15.94-.06,31.94.39,47.88.06C965.69.52,978,15,978.08,39.16Q978.68,264.33,978,489.44Z"/><path class="cls-1" d="M742.53,49.36q-31,109.76-63,219.17c-21.86,74.74-45,149.09-66.19,224.07-7,24.84-20.16,35.26-46.07,35-88.1-.67-73.74,5.18-99-70.86C445,386.42,423.21,315.56,400.51,245c-2.48-7.77-3-16.78-12-22.75-9.8,4.56-9.18,15.2-11.83,23.32C350,327.61,323.06,409.68,297.6,492.14c-7.83,25.46-21,36.22-48.44,35.72C171.71,526.5,179.31,532,158.75,462,119,326.94,77.92,192.32,37.71,57.41,26.44,19.62,32.53,11.56,71.17,10.83c19.71-.34,39.42.73,59.14-.17,25-1.12,37.63,10.7,43.43,34.42q25,102.48,51.82,204.58c3,11.38,2,24.61,14.08,35C251.52,271.4,254,254.61,259,239.24c20.9-64.22,42.08-128.43,61.79-193,7.83-25.46,22.25-36,49.12-35.83,98.34.9,78.18-4.67,102.29,72.1q28.63,91.25,57.73,182.5c2.76,8.67,6.7,17,12.45,31.49,14.25-22.82,16.5-42.59,21.46-61.29,16.67-63.53,33.52-127.07,49-190.89C618.61,20,631.67,9.37,656.4,10.61c19.66,1,39.43-.45,59.09.56C743.65,12.63,750.3,21.87,742.53,49.36Z"/><path class="cls-1" d="M195.08,1161.59c-63.19,6.31-122.79-9.91-174-50.64-18.58-14.81-22.13-30.53-10-51.31,41-70.35,36.27-77.28,105.89-37.18A109.93,109.93,0,0,0,176.38,1037c14.76-.56,28.34-4.45,34.19-19.94,5.64-14.92,0-27.71-10.13-38.64-20.51-22.25-49.18-30.58-75.54-42.35C97.13,923.61,72.07,907.89,50,886.94,4.92,844.07-12,792.08,8.87,733.39c22.7-63.7,70.52-100,138.79-107.3,9.35-1,18.75-1,28.1-1.46,54.64-2.88,100.38,19.82,143.64,49.73,9.69,6.7,16.16,15.6,17,27.83,1.35,18.3-34.08,77.67-50.19,85.11-11,5.07-19.83.73-29-4.68-22.58-13.46-44.95-27.71-71.25-32.84-18.48-3.6-37.46-3.21-45.06,17.75-7,19.37,5.74,33,21.29,41.17,30.64,16.22,63.2,28.95,93.39,46,50.58,28.5,87,69,92.43,129.73C356.41,1077.49,294.5,1151.62,195.08,1161.59Z"/><path class="cls-1" d="M677.19,758c-26.82-.84-36.79,9.07-36.17,35.82,1.36,52.5.4,105.05.4,157.61h-.11c0,54.41-.62,108.82.28,163.18.5,27.26-10.54,40.33-38.08,39.48-17.8-.56-35.65.4-53.45-.11-33.86-1-41.29-7.94-41.46-42.08-.51-84.43-.23-168.87-.28-253.3-.06-24.33-.45-48.78-.17-73.11.28-18.82-8.06-27.6-27.09-27.15-18.76.45-37.52.17-56.27-.28-21.46-.45-33.12-11.55-33.63-33.12-.45-19.72-.28-39.38-.11-59.09.22-23.21,12.67-34.19,35.37-34.19q149.13,0,298.31,0c23.32,0,34.36,11.77,34.69,34.64C760.89,762.74,763.59,760.6,677.19,758Z"/><path class="cls-1" d="M1244.12,1097.49Q1157.76,898.68,1071.3,700c-32-73.51-22.41-60.44-96.71-62.47-22.92-.67-36.84,7.78-45.57,29-17.18,41.62-35.82,82.63-53.68,124q-69.78,161.46-139.41,323c-12.67,29.57-6.13,39,26.7,40.16,17.8.62,35.83-1.19,53.46.56,32.5,3.21,54.86-6.08,61.51-41.23,1.91-10,8.16-19,10.92-28.9,6.76-24.33,21.07-35,47.26-33.29,30.81,2,61.91.23,92.88.51,57.35.56,49.35-6.93,72.55,49.17,22.2,53.63,22,53.68,79.31,53.8,2.82,0,5.64,0,8.45-.06,5.63,0,11.27.06,16.9,0C1263.66,1153.93,1266.7,1149.53,1244.12,1097.49Zm-226.72-163a336.63,336.63,0,0,1-53.23-.12c-13.46-1.18-12.5-12.11-9-21.51,9.74-26,20.11-51.82,32.56-83.71,20.39,31.27,28.27,59.2,38.58,86.13C1029.62,924.11,1028.89,933.69,1017.4,934.54Z"/><path class="cls-1" d="M992.9,1279.93c-21.29-2.59-43.09-1.29-64.66-1.12-17.58.11-25.07,10.25-25,27.09.11,22.53,0,45.06,0,67.59,0,0-.22,18.76-.17,28.16.28,71.2-11.6,75.88,80.83,70.92,47.54-2.53,89-50.24,89.28-97C1073.45,1330.46,1036.55,1285.23,992.9,1279.93Zm34.64,122.79c-11.38,25.35-43.43,40.28-70.86,33.91-11.27-2.64-15.6-9.69-15.94-19.94-.45-15-.79-45-.79-45,0-5.64-.56-11.32.11-16.9,1.75-14.14-6.25-33,10.93-40.5,18.93-8.28,39.09-3.27,56.44,7.72C1031.82,1337.33,1040.49,1374.05,1027.54,1402.72Z"/><path class="cls-1" d="M703.66,1376.14c-.06,24.27.39,48.55-.28,72.77-.28,10.76-4.28,21.52-17.41,21.24-12.28-.34-18.13-10.2-18.25-21.13q-.93-72.82-.22-145.6c.11-12.11,5.63-22.7,19.83-22.19,13.34.45,16,11.38,16.22,22.13C703.94,1327.64,703.66,1351.86,703.66,1376.14Z"/><path class="cls-1" d="M478.69,1433.42c8.34,21.35-14.7,27.71-29.18,33.86-64.83,27.43-138.62-23.38-137.66-93.9-.06-42.53,22.87-70.3,58.75-88.49,32.73-16.62,65.23-14.76,95.87,6.31,8.78,6,18.19,12.78,12.28,25-6.54,13.35-18,11.43-29,5.69-26.07-13.69-51.82-17.18-76.26,2.82-25.18,20.67-30.36,55.2-13.3,83.92,16.23,27.49,46.19,36.61,78.41,24.5C452.1,1428,469.51,1409.88,478.69,1433.42Z"/></svg>