<svg id="Layer_1" data-name="Layer 1" xmlns="http://www.w3.org/2000/svg" viewBox="0 0 2403.05 1474.84"><defs><style>.cls-1{fill:#2a2d3c;}</style></defs><path class="cls-1" d="M1272.34,852c-.17-1.56-1.43-1.86-2.59-2-3-.26-5.15-1.86-7.12-3.87-3.64-3.69-8.2-5.8-12.92-7.68a16.52,16.52,0,0,1-4-2c-4.1-3.19-8.93-4.17-13.84-5.14a10.13,10.13,0,0,1-4.28-2.2,9.26,9.26,0,0,0-5.11-2.23,7.52,7.52,0,0,1-3.8-2,55.21,55.21,0,0,1-3.68-4.35,10.92,10.92,0,0,1-2.91-6.94c-.14-2.66-.91-5.28-1.24-7.94a13.21,13.21,0,0,1,0-4.61,7.79,7.79,0,0,0-.28-5c-1.38-3.53-2.89-7-2.72-11a17.6,17.6,0,0,0-2.63-9.62c-1.59-2.68-3.47-3.49-6.09-2.47-5.19,2-10,4.59-14,8.65-4.4,4.56-8.68,9.2-10.49,15.54-.82,2.86,0,4.87,2.75,6.07,1.68.72,3.41,1.32,5.12,2a2.6,2.6,0,0,1,.89.41c2.85,2.56,5.64,5.2,8.55,7.7a15.41,15.41,0,0,0,4,2.64c3.86,1.65,6.55,4.57,8.86,7.89a21.43,21.43,0,0,1,2.69,5,4.68,4.68,0,0,1-1.71,5.45c-2.07,1.3-5.72,1.57-7.14.28a12.1,12.1,0,0,1-1.53-2.64,23.71,23.71,0,0,0-2.57-3.78,2.39,2.39,0,0,0-2.29-.3c-.47.29-.57,1.47-.52,2.24.13,1.9.53,3.78.66,5.68.23,3.32-2.07,5.16-5.32,4.19a8.84,8.84,0,0,1-6.48-6.78,13.93,13.93,0,0,0-.91-3.23,6.4,6.4,0,0,0-2-2.32,2.32,2.32,0,0,0-2.14-.15,2.47,2.47,0,0,0-.81,2.18c1.11,2.33.7,4.54.19,6.9a14.08,14.08,0,0,0,.16,4.13,4.28,4.28,0,0,1-2.12,4.18c-1.43.93-2.77.35-4.07-.42a5,5,0,0,0-1.61-.74c-4.78-.73-8.48-3.64-12.5-6a8.23,8.23,0,0,0-4.31-.91,15.17,15.17,0,0,1-6.14-1.26c-4.29-1.6-7.12-4.9-10.56-7.47-1-.71-1.41-2.15-2-3.3-1.72-3.29-4.92-4.87-7.82-6.77-3.1-2-5.3-4.45-5.73-8.47a70.23,70.23,0,0,0-2.33-10.2,34.78,34.78,0,0,1,.09-18.77,58.14,58.14,0,0,0,2-14.77c.19-5.49,1.27-10.94,1.69-16.43a83,83,0,0,0-.23-8.48c0-2.17,0-4.34-.07-6.5,0-1.25-.19-2.5-.17-3.75,0-2.41.26-4.82.18-7.22a52.21,52.21,0,0,0-.73-8.58,56.85,56.85,0,0,0-2.69-8.89c-1-2.63-2.36-5.12-3.46-7.71a31.86,31.86,0,0,1-.88-3.22c-.49-1.69-1-3.36-1.54-5-.41-1.39-.83-2.77-1.16-4.17a12.15,12.15,0,0,0-3.17-5.48c-1.59-1.77-2.34-4.44-3.06-6.83-.84-2.8-1.19-5.74-1.89-8.59a3.12,3.12,0,0,0-1.36-1.59c-3-1.88-4-4.65-4.13-8a25.39,25.39,0,0,0-1-5c-.19-.76-.71-1.45-.87-2.21-1.57-7.62-5.36-14.79-4.81-22.85.16-2.23.76-4.45.74-6.67,0-5-.37-10-.52-15a15.46,15.46,0,0,1,.39-3.08c.3-1.68.79-3.33.94-5,.62-6.75,1.14-13.51,1.7-20.27a13,13,0,0,0,.19-2.76c-1-6.39.77-12.26,3.2-18.05a9.3,9.3,0,0,0,.44-3.88,12.43,12.43,0,0,1,3.2-9.27,12.52,12.52,0,0,0,1.75-3.66c.32-.79.4-1.7.79-2.44a12.13,12.13,0,0,0,1.23-7.48,6.36,6.36,0,0,1,1.61-5.08,39,39,0,0,0,3.62-5.87,2.76,2.76,0,0,0,.36-1.9c-.89-3.16.39-6,1.22-8.88.44-1.54,1.73-2.85,2.13-4.39.7-2.73,1-5.57,1.49-8.36a7,7,0,0,1,.48-2.49c1.47-2.28,1.42-4.76,1.2-7.27-.43-4.94,1.33-9.16,4.09-13.1a7.77,7.77,0,0,0,1-2.11c.84-2.55,1.7-5.1,2.36-7.7a16.35,16.35,0,0,0,.73-5.16,34.51,34.51,0,0,1,2.19-13.92c.11-.31.31-.59.4-.9,1.29-4.41,2.5-8.84,3.89-13.21a30.1,30.1,0,0,1,2.6-6.09,19.94,19.94,0,0,0,2.79-9.59c.11-3.78,1.82-7,3.18-10.27.76-1.86,2.07-3.49,2.94-5.31a19.31,19.31,0,0,0,1.73-4.82c.69-4,2.51-7.5,4.32-11.1,1.55-3.09,3.36-6.25,3-10.07-.22-2.67,1.16-4.94,2.81-7a8.82,8.82,0,0,0,1.72-2.61c1.18-3.9,2.2-7.84,3.28-11.77a12.68,12.68,0,0,1,1-3.18c2.45-4.13,4.86-8.3,7.62-12.22s5.44-7.73,7.11-12.23c.39-1.06,1.57-1.8,2.12-2.82,1.75-3.29,4.14-6.39,5.49-9.66,1.66-4.06,4.13-8.08,4-12.86a7.85,7.85,0,0,1,2.82-6.5,7.68,7.68,0,0,0,2.66-4.88,18.73,18.73,0,0,1,2.3-4.94c2-3.69,4.19-7.28,6.05-11,2-4.1,3.94-8.28,5.57-12.55.76-2,.7-4.27,1.1-6.41a10.4,10.4,0,0,1,.87-2.59c1.74-3.75,3.63-7.44,5.28-11.23,1.57-3.59,2.86-7.31,4.38-10.93.76-1.81,1.84-3.49,2.64-5.3.53-1.19.75-2.51,1.22-3.74a11.75,11.75,0,0,1,1.51-3.15c2.71-3.38,5.66-6.59,8.32-10,2.85-3.66,5.47-7.49,8.2-11.24,1.78-2.45,3.54-4.91,5.37-7.31,2.2-2.88,4.33-5.82,6.73-8.52,1.7-1.9,3.83-3.4,5.7-5.14q6.36-5.93,12.66-11.91a4.35,4.35,0,0,0,1.18-1.8c1.3-4.4,2.49-8.84,3.79-13.25.51-1.74.8-3.77,1.9-5.07,2.19-2.59,3-5.64,3.92-8.71a17,17,0,0,1,2.93-6.35c1.67-2.08,2.83-4.55,4.35-6.75a16.54,16.54,0,0,1,2.71-2.84c3.85-3.46,8.18-1.07,9.42,3,1,3.25,1.9,6.42,3.91,9.21.47.65.38,1.7.82,2.4s1.21,1.78,2,1.89a2.77,2.77,0,0,0,2.34-1.26c1.81-5.33,6.25-8.76,9.4-13.09,2.5-3.45,4.84-3.38,7.48-.62,3.71,3.87,4.4,8.52,4.45,13.5,0,3.49-.45,7.08.23,10.44.87,4.33,2.88,8.31,6.89,10.88,2,1.27,3.78,2.86,5.81,4.06,1.61,1,3.56,1.38,5.16,2.35,4.14,2.51,8.23,5.11,12.22,7.85,4.7,3.22,9.42,6.46,13.88,10,3.37,2.68,6.32,5.89,9.52,8.8,2.81,2.55,4.26,5.86,5.79,9.22a8.06,8.06,0,0,0,7.32,4.95,15.81,15.81,0,0,1,7.94,2.61c3.44,2.13,7.1,3.91,10.59,6q3.92,2.31,7.6,5c.65.47.92,1.52,1.29,2.34,1.17,2.54,2.22,5.15,3.48,7.65a5.51,5.51,0,0,1,0,5.49c-2.63,4.46-5.29,8.93-8.31,13.13-1.82,2.54-4.38,4.54-6.55,6.84a10.59,10.59,0,0,0-1.83,2.49c-1,2-2.22,3.55-4.68,4.11a6.63,6.63,0,0,0-3.34,2.53c-1.78,2.38-4.07,3.12-6.89,3.08-8.17-.13-16.35-.37-24.52-.17a27.68,27.68,0,0,0-9,2,12.3,12.3,0,0,0-4.58,3.82c-2.86,3.51-5.4,7.27-8.18,10.85-1.74,2.23-3,4.43-2,7.43.31,1-.15,2.18-.23,3.28a37,37,0,0,0-.39,6.19c.31,3.34,1.14,6.63,1.54,10a33.12,33.12,0,0,0,5.37,13.88,8.85,8.85,0,0,1,1.12,2.51c.79,3.05,1.66,6.11,2.19,9.21.7,4.08,2.92,7.27,5.31,10.45a63.54,63.54,0,0,1,5.07,7.49,10.67,10.67,0,0,1,1,4.75,20.47,20.47,0,0,0,4.47,12.95,5.87,5.87,0,0,1,1.54,3.87c-.61,4.52.56,8.7,1.65,12.95.85,3.36,1.38,6.81,2.31,10.14.35,1.26,1.54,2.26,2.18,3.47A41.52,41.52,0,0,0,1388,404c1.36,1.31,1.69,3.64,2.67,5.42a10.17,10.17,0,0,0,2.08,2.28c.62.59,1.34,1.06,2,1.6,2.45,2,4.77,4,7.8,5.27,4,1.69,5.5,5.56,6.15,9.56a14.86,14.86,0,0,0,4.79,8.81,19.68,19.68,0,0,1,5.55,9.64c.44,1.72,1.63,3.24,2.43,4.87a9.5,9.5,0,0,1,1.15,2.9c.24,2.22.68,4.27,2.3,5.95a4.25,4.25,0,0,1,.83,2c1.17,5.12,2.45,10.23,3.41,15.4.82,4.39,1.11,8.88,1.91,13.28.35,1.93,1.43,3.73,2.14,5.6a5.48,5.48,0,0,1,.63,2.22,19.54,19.54,0,0,0,2.36,10.29c1.43,2.91,1.26,5.42-1.06,7.77a3.48,3.48,0,0,0-.45,4.52q3.11,5.7,6,11.49c2.35,4.7,4.6,9.44,6.91,14.16q3.93,8.06,7.88,16.08c1.7,3.46,3.55,6.87,5.09,10.4a20.41,20.41,0,0,1,1.41,5.72,5.15,5.15,0,0,1-1,2.82c-.54.88-1.5,1.52-2,2.41a1.65,1.65,0,0,0,1.87,2.67,7.32,7.32,0,0,0,2.38-1.3c1.18-.8,2.18-.64,2.78.62,2.84,5.91,6.86,11.21,8.8,17.59.5,1.64,1.92,3,2.7,4.56,1.18,2.4,2.11,4.91,3.27,7.32s2.37,4.49,3.51,6.76a14.5,14.5,0,0,1,1.28,3.18c.35,1.4.34,2.88.68,4.28a5.84,5.84,0,0,1-4.72,7.54l-2.52.51c-2.27.47-3.24-.07-4.24-2.15-1.68-3.49-3.45-6.93-5.13-10.41-.4-.82-.58-1.75-.93-2.59-1.09-2.66-2.06-5.38-3.37-7.93-1.44-2.79-3.22-5.41-4.81-8.13a2.12,2.12,0,0,1-.36-1.31c.67-4.23-2-7.13-3.89-10.41s-3.45-6.78-5-10.24c-1.66-3.63-3.19-7.32-4.77-11-1.75-4-3.42-8.12-5.26-12.12-1.7-3.7-3.61-7.3-5.36-11-2-4.26-4-8.57-6-12.85a10.18,10.18,0,0,0-1.23-2.22c-1.52-1.82-2.16-1.66-3.33.41a2.49,2.49,0,0,1-1.74,1.24,2.38,2.38,0,0,1-1.72-1.32c-1.58-4.31-3-8.67-4.52-13a14.48,14.48,0,0,0-1.51-3.38,3.87,3.87,0,0,0-5.69-1.07c-1.27.81-2.48,1.74-3.67,2.67-1.59,1.27-2.85,1.11-4-.49a27,27,0,0,0-2.69-3.4,12.7,12.7,0,0,1-3.86-6.31,3.85,3.85,0,0,0-1.16-1.53c-3.2-3.26-6.43-6.51-9.65-9.77-.37-.38-.7-.78-1.09-1.14a11.28,11.28,0,0,1-3.56-6c-.67-3.31-2.16-6.05-5.83-7a11.24,11.24,0,0,1-3.24-1.86c-3.37-2.39-7.12-3.63-11.12-4.71s-7.37-4.23-10.38-7.31a2.67,2.67,0,0,1-.77-1.36c-.75-5.19-2.7-10.29-1.82-15.59a15.85,15.85,0,0,1,4.12-9c2.93-2.95,4.15-6.47,2.57-10.64a12.12,12.12,0,0,1,.39-10.1c1.43-3,1.59-6.58,2.29-9.91a8.71,8.71,0,0,1,.15-1.57c1.48-3.56,1-7.24.13-10.71a83.75,83.75,0,0,0-4.25-11.19,1.23,1.23,0,0,0-2.33-.08,6.33,6.33,0,0,0-.63,3.69,7.91,7.91,0,0,1-.84,5.9,7.74,7.74,0,0,0-.77,5.91c.92,4.75,1.75,9.53-1,14a4.08,4.08,0,0,0-.32,1.14c-.77,3.12-1.66,6.16-.52,9.48,1.26,3.67-1.46,6.28-3,9.18-1.37,2.54-2.59,5.18-3.7,7.84a4.65,4.65,0,0,0-.14,2.9c1.39,4.42.61,8.91.6,13.37,0,4.18-4.52,6.32-8,4.78a20.47,20.47,0,0,1-3.81-2.43c-1.32-1-2.54-2.09-3.81-3.14-1.66-1.35-2.79-2.92-2.64-5.23.08-1.24-.2-2.5-.24-3.75-.08-2.71-.62-5.21-2.77-7.13-.54-.47-1.29-1.13-1.29-1.7,0-3.17-2.35-5.18-3.59-7.72a7,7,0,0,0-2.86-2.8,6.39,6.39,0,0,1-3.32-4.79c-.57-2.81-1.67-5.52-2.52-8.28a45.24,45.24,0,0,1-1.32-4.54c-1.11-5.35-2.26-10.57-5.19-15.41a37.82,37.82,0,0,1-4.95-15.51c-.16-1.5-.6-3-.9-4.45-.49-2.35-1-4.7-1.45-7.07a11.63,11.63,0,0,1,1.27-7.45,5.51,5.51,0,0,0-.28-6,3.4,3.4,0,0,0-2.6-1.21,2.7,2.7,0,0,0-1.47,2.19c.33,3.39-1.2,5.83-3.17,8.4a7.84,7.84,0,0,0-1.32,7.43c1.35,4.31,2.86,8.6,3,13.26a12.81,12.81,0,0,0,2,6.12c3.24,5.15,4.25,11,6,16.64a7.44,7.44,0,0,0,2.22,3.8c2.09,1.49,2.67,3.48,3,5.74a45.13,45.13,0,0,0,4.82,13.9c2,4.08,4.75,7.88,5.71,12.49a5.65,5.65,0,0,0,1.56,2.7,6.1,6.1,0,0,1,1.87,4.81c-.18,4.62,2.56,7.61,5.9,10.14,2.41,1.82,5,3.42,7.57,5a34.06,34.06,0,0,0,5.89,3.15,20.45,20.45,0,0,1,8,5.61,14.12,14.12,0,0,0,2.5,1.86,24.09,24.09,0,0,1,3.43,2.29c2,1.9,3.82,3.81,6.83,3.92.61,0,1.28.67,1.77,1.17a29,29,0,0,0,11.25,7.42,13.09,13.09,0,0,1,4,2.83,6.2,6.2,0,0,0,5.07,1.74c3.08-.39,4.74,1.42,6.27,3.61a13.29,13.29,0,0,0,1.62,2.2,3.54,3.54,0,0,1,.72,4.35,3.08,3.08,0,0,1-3.59,1.81,22.11,22.11,0,0,1-2.83-.8c-1.52-.41-3-.77-4.55-1.22a29.1,29.1,0,0,1-4-1.36c-1.29-.59-2.61-1.16-3.52.24s.22,2.24,1.1,3.22c2.32,2.57,4.66,5.14,6.71,7.92a3.37,3.37,0,0,1-.35,4.84c-2,1.86-3.49,2.21-5.47.84-2.75-1.89-5.34-4-8-6-.58-.44-1.07-1.11-1.72-1.3-1-.3-2.43-.74-3-.27a3.17,3.17,0,0,0-.63,3,32,32,0,0,0,3.3,5.32c1.82,2.56,1.65,6-.44,7.9a3,3,0,0,1-3.45.58c-1.2-.48-2.61-.49-3.75-1.06a26.29,26.29,0,0,1-5.44-3.36c-3.81-3.33-8.34-5.19-12.91-7a4,4,0,0,0-1.55-.26c-4.42,0-8.86-.25-13.25.1-5,.41-8.67-1.84-11.21-5.67a16.46,16.46,0,0,0-10.25-7.42,6.33,6.33,0,0,1-3.11-2.14c-1.73-2.13-3.15-4.52-4.82-6.71a20.09,20.09,0,0,0-2.93-2.9c-3.13-2.68-6.08-5.58-9.8-7.51-2.26-1.16-4.4-2.56-6.55-3.92a8.58,8.58,0,0,1-2.59-2.08c-2.61-3.8-6.6-4.79-10.74-5.55-1.29-.24-2.55-.61-3.85-.76a5.83,5.83,0,0,0-2.86.16c-2.3,1-2.39,2.8-.24,4,2.89,1.67,5.93,3.1,8.8,4.82,1.67,1,3,2.48,4.69,3.54,3,1.94,6,3.8,7.61,7.21.28.59,1.23.9,1.92,1.24,2.85,1.44,5.77,2.76,8.56,4.3a6.75,6.75,0,0,1,2.12,2.28c2.47,3.71,5.2,7,9.52,8.83a10.24,10.24,0,0,1,5.55,6.13,36.25,36.25,0,0,0,4.08,8.28,21.23,21.23,0,0,1,3.47,9.54c.42,2.87.94,5.73,1.19,8.61.27,3.21.29,6.44.37,9.66a4.18,4.18,0,0,1-.37,1.52c-1.06,2.73-2.28,5.42-3.15,8.21a8.48,8.48,0,0,0,0,4c.59,2.9,1.2,5.61-1.19,8.16a4.83,4.83,0,0,0-.93,3.7c.68,3.32-.67,6.12-1.9,8.92a9.29,9.29,0,0,0-.76,6.5,5.22,5.22,0,0,1,.12,2.54,10.71,10.71,0,0,0,1,7.47,13.51,13.51,0,0,1,1,7.68c-.48,3.66-.82,7.37.85,11.07.86,1.9.68,4.4.51,6.6-.3,3.83-.07,7.46,1.79,10.94,1.68,3.15,1.21,6.68.69,9.93-1,6.42-.49,12.67.45,19,1.06,7.09,1.55,14.27,1.92,21.44.25,4.84-.14,9.71-.22,14.56a6.46,6.46,0,0,0,.17,2.16c1.77,5.17,1.66,10.47,1.46,15.84a15.27,15.27,0,0,0,1.5,6,5.13,5.13,0,0,1-.15,4.44,39.85,39.85,0,0,0-2.18,8.1,24.63,24.63,0,0,0,0,4.93c0,2.1-1,4-2.79,4.38-3.48.85-4.68,3.8-6.77,6-2.42,2.54-3.09,5.86-3.84,9a11.61,11.61,0,0,1-4.56,6.64,36.27,36.27,0,0,0-6.7,7.7c-3,4.23-5.18,9.21-9.79,12.24-1,.69-1.72,2-2.59,3-1.06,1.2-2.09,2.45-3.25,3.56a2.72,2.72,0,0,0-.78,3.54,10.42,10.42,0,0,0,6.33,5.25c2.58.83,4.93,2.37,7.48,3.36a47.3,47.3,0,0,0,7.83,2.44,11.12,11.12,0,0,1,4.95,2.13c2.25,1.76,5,2.91,7.21,4.69a34.32,34.32,0,0,1,5.83,6c.51.66.07,2.49-.51,3.43-.83,1.36-2.42,1.42-3.93,1a30.19,30.19,0,0,0-4.91-1.37c-3.37-.32-4.44,1.2-3.45,4.42.54,1.75.9,3.68-.84,4.89s-3.51.6-5.18-.48a19.89,19.89,0,0,0-2.48-1.14,26.63,26.63,0,0,0-3.18-1.45,19.62,19.62,0,0,0-3.1-.44c0,.9,0,1.79-.09,2.68-.08,1.25-.13,2.5-.32,3.73a10.58,10.58,0,0,1-.69,2Zm-65-98a32.86,32.86,0,0,0,1.49,4.39,1.9,1.9,0,0,0,3.67-.29,26.19,26.19,0,0,0,1.23-6,16,16,0,0,1,3.61-9c1.7-2.24,3.63-4.59,4.36-7.19,1.3-4.6,1.8-9.43,2.56-14.17.3-1.9-.58-3.4-2-3.6-1.78-.25-2.57,1-2.89,2.38-.55,2.36-.8,4.78-1.24,7.16a15.9,15.9,0,0,1-1.16,4.69c-1.36,2.45-3.18,4.63-4.74,7A32.6,32.6,0,0,0,1207.37,754Zm9.43,27.36c.33,1.9.64,4.45,1.27,6.93a19,19,0,0,0,2,5,2.87,2.87,0,0,0,2.47,1,2.82,2.82,0,0,0,1.91-1.84,61.69,61.69,0,0,0,0-10.35c-.22-2.09-.51-4,.47-5.94.88-1.69,1.9-3.3,2.9-4.91,1.64-2.63,3.38-5.2,2.93-8.56-.2-1.52-.7-2.7-2.38-2.91a2.74,2.74,0,0,0-3.24,2.22,9.07,9.07,0,0,0-.39,2.52,6.76,6.76,0,0,1-3.17,6.2C1218,773.07,1217,776.67,1216.8,781.37Zm27.07-136a31,31,0,0,0,.23-5.51,34.56,34.56,0,0,0-1.71-7,2.77,2.77,0,0,0-2.35-1.16c-.65.07-1.36,1.09-1.7,1.85A7.68,7.68,0,0,0,1238,636c-.21,2.84-.59,5.59-2.22,8.08-1,1.54-.7,3.14.25,4.81a48,48,0,0,1,2.72,6.28c.78,1.95,1.38,4,2.24,5.88.62,1.37,1.78,2.28,3.36,1.55a2.46,2.46,0,0,0,1.14-3.54C1243.4,654.67,1243.8,650,1243.87,645.34ZM1293,146.77a33.74,33.74,0,0,0-.06-4.93c-.16-1-.78-2.65-1.46-2.81a4.18,4.18,0,0,0-3.19,1.18c-3.47,3.27-4.49,7.77-5.64,12.15a11.87,11.87,0,0,0-.46,3.91,4.85,4.85,0,0,0,1.23,2.74c1.54,1.59,3.6,2.7,5.7,1.52,2.54-1.42,4.71-3.43,4.45-6.46C1293.33,151.64,1293.16,149.21,1293,146.77Zm-2.63,558h.13a17.42,17.42,0,0,1,0,3.54c-1.18,5.52-2.54,11-3.65,16.52-.19,1,.22,2.69.88,3a3.46,3.46,0,0,0,3.28-.45,15.91,15.91,0,0,0,2.55-5.17c1.09-3.57,1.89-7.23,2.81-10.85,1-3.9,1.73-7.81-.85-11.4-.52-.73-1.74-1.57-2.44-1.42a3.73,3.73,0,0,0-2.25,2.12A16,16,0,0,0,1290.35,704.75Zm-51.54-5.39c-.37-5.06-.6-8.92-1-12.76a2.48,2.48,0,0,0-2.33-2.52,2.5,2.5,0,0,0-2.85,1.93,13.53,13.53,0,0,0-.5,5c.73,4.55-.15,8.9-1.19,13.24-.58,2.44,0,4.08,2,4.64,2.37.67,4.24-.32,4.76-2.77C1238.26,703.52,1238.58,700.84,1238.81,699.36ZM1124,569.68c-.22-1.63-1.29-2.3-2.71-1.55a4.84,4.84,0,0,0-2.57,4.39,16.85,16.85,0,0,1-2.62,7.77c-2.14,3.75-3.8,7.67-3.38,12.16.11,1.2,0,2.57,1.56,2.8s2-1.09,2.46-2.29c.85-2,1.87-3.83,2.88-5.72.64-1.21,1.78-2.29,2-3.56C1122.58,579,1123.23,574.35,1124,569.68Zm1,100.4c.36,2,.65,4.37,1.28,6.63a3.49,3.49,0,0,0,2,1.85,2.2,2.2,0,0,0,2-.76c1.13-2,2.31-4.08,1.56-6.69a14.14,14.14,0,0,1,.37-9.49,21,21,0,0,0,1.2-4,2.57,2.57,0,0,0-1.65-3,2.76,2.76,0,0,0-3.55.86,10.69,10.69,0,0,0-1.91,3.85C1125.74,662.76,1125.48,666.25,1125,670.08Zm147.88-56.46c.11,5.23.59,9.19,3.06,12.61.87,1.2,2.15,1.88,3.4,1.15a3.55,3.55,0,0,0,1.31-2.68q0-8.16-.45-16.31c0-.93-.75-2.4-1.44-2.59a4,4,0,0,0-3.07.93A8.15,8.15,0,0,0,1272.91,613.62Zm-46.55-196.9-.28-.07c0-1.57,0-3.16,0-4.73,0-1.32-.42-2.54-1.89-2.9a2.34,2.34,0,0,0-2.92,1.75,98.7,98.7,0,0,0-2.7,9.65,24.38,24.38,0,0,0-.44,6.66,3.81,3.81,0,0,0,1.9,2.65c.66.34,2.07-.15,2.77-.74a6,6,0,0,0,2-3C1225.52,423,1225.87,419.82,1226.36,416.72ZM1115.25,634.25l.31.09c0,.4,0,.79,0,1.19,0,1.34.33,2.53,1.79,2.94a2.5,2.5,0,0,0,3.08-1.53,13.73,13.73,0,0,0,1.45-3.83c.77-4.73,1.38-9.48,2-14.23a7.59,7.59,0,0,0,0-2.56,2.44,2.44,0,0,0-1.11-1.64,2.06,2.06,0,0,0-1.83.67,10.25,10.25,0,0,0-1.45,3.17c-.67,2.47-1.1,5-1.76,7.48C1117,628.77,1116.09,631.5,1115.25,634.25ZM1216.34,388c.12-2.56-1.95-4.25-4-3.42a6.32,6.32,0,0,0-2.73,2.11c-2.25,3.21-2.77,6.91-2.46,10.73a3.5,3.5,0,0,0,4,3.48c2-.13,4.12-2.17,3.71-4.09a10.46,10.46,0,0,1,1.13-7A7.05,7.05,0,0,0,1216.34,388Zm-18.86-14.2a7.34,7.34,0,0,0,.71,2.42c.63.87,1.72,2.19,2.39,2.07A4,4,0,0,0,1203,376a22.77,22.77,0,0,0,1.6-6.45c.22-3.07.44-5.94,2.54-8.46a2.56,2.56,0,0,0-.89-3.76c-1.41-.61-2.74.17-3.46,1.95a9.07,9.07,0,0,1-1.19,2.24C1198.72,365.1,1198,369.4,1197.48,373.83Zm30.9,236.26c.47.89.84,2.64,1.91,3.38,1.57,1.09,2.86-.57,4.09-1.5,4-3,3.76-7.68,4.65-11.88a2.86,2.86,0,0,0-1.33-2.32,3.06,3.06,0,0,0-2.71.29C1231.39,601,1229.31,604.81,1228.38,610.09Zm-85-167.58c-.25-.39-.45-1.08-.88-1.27a1.77,1.77,0,0,0-1.62.19,17.1,17.1,0,0,0-2.36,3.06c-2.12,3.49-1.84,7.91-4.36,11.27a6.2,6.2,0,0,0-1.33,2.83,3.44,3.44,0,0,0,.94,2.66,2.59,2.59,0,0,0,2.52-.44,55.88,55.88,0,0,0,4.58-9.48c.78-2.38.44-5.11,2-7.32A5.66,5.66,0,0,0,1143.43,442.51Zm60.61,83.7a3.86,3.86,0,0,0-3.39,2.95c-1.06,3.31-2.08,6.65-3,10a6.2,6.2,0,0,0,.14,3.28,2.55,2.55,0,0,0,1.77,1.51,3.21,3.21,0,0,0,2.3-1.05,6.15,6.15,0,0,0,.8-2.37c.71-2.51,1.38-5,2.12-7.54.42-1.38,1.08-2.7,1.4-4.1A2,2,0,0,0,1204,526.21Zm-53.27,92.56c-.47-.71-.81-1.79-1.45-2a2.91,2.91,0,0,0-2.42.64c-3.43,3.18-5.14,7.39-6.49,11.73a2.73,2.73,0,0,0,.82,2.48,3.42,3.42,0,0,0,2.84-.36,10.72,10.72,0,0,0,2.47-2.79C1148.55,625.6,1150.5,622.69,1150.77,618.77Zm-11.43,134.05c-.8-1.1-1.3-2.43-2.15-2.72a3.18,3.18,0,0,0-2.75,1.14c-2.26,3.29-4.37,6.69-6.31,10.17-.42.75.08,2,.15,3,1.1-.17,2.41,0,3.23-.59a16.35,16.35,0,0,0,4.32-4A57.4,57.4,0,0,0,1139.34,752.82Zm-19.69-207.67a11,11,0,0,0,1.81,2.62,2.14,2.14,0,0,0,2.1-.19,14,14,0,0,0,2.43-3.76c1.28-3.08,2.31-6.26,3.54-9.36.49-1.23,1.11-2.47-.38-3.26a2.27,2.27,0,0,0-3.3,1.17c-1.27,2.37-2.6,4.7-3.79,7.11C1121.2,541.23,1120.52,543.07,1119.65,545.15Zm171.53,121.4-.62-.07c.26-3.17.54-6.33.76-9.51a3.21,3.21,0,0,0-.28-1.9c-.53-.72-1.33-1.63-2.09-1.69a3.17,3.17,0,0,0-2.34,1.29,5.42,5.42,0,0,0-1.07,3.12c.17,3.72.52,7.44,1,11.13.07.54,1.23,1.32,1.86,1.31a3.23,3.23,0,0,0,2.21-1.24A6.53,6.53,0,0,0,1291.18,666.55Zm-94.44-170.74-.42.08c.57,2.74,1,5.52,1.77,8.21a2.71,2.71,0,0,0,3.47,1.86c1.71-.37,2-1.69,1.87-3.19-.11-.91-.35-1.8-.54-2.7-.54-2.63-1.13-5.26-1.62-7.9-.23-1.27-.6-2.35-2.14-2.32a2.33,2.33,0,0,0-2.37,2.41C1196.66,493.43,1196.74,494.62,1196.74,495.81Zm114.57-245c-1.29-2.83-2.46-5.73-4-8.46a3,3,0,0,0-2.71-.88c-.62.16-1.27,1.46-1.34,2.31a24.72,24.72,0,0,0,.2,5.7,11.65,11.65,0,0,0,1.5,3.73c.71,1.27,1.83,2.22,3.42,1.58S1310.76,252.8,1311.31,250.84Zm-62.28-40a12.78,12.78,0,0,0-1.56-2.7c-.24-.25-1.58,0-1.89.41-2.38,3.13-4.69,6.31-6.83,9.59a2.67,2.67,0,0,0,.2,2.62,3.53,3.53,0,0,0,2.88.25C1244.81,220,1248.63,214.27,1249,210.89Zm68.75,68.36c-.51-2.63-.77-4.73-1.36-6.74-.21-.74-1.15-1.72-1.8-1.75a3,3,0,0,0-2.35,1.3,13.52,13.52,0,0,0-.42,11.1c.73,1.91,2.67,2.27,3.89.62A20.37,20.37,0,0,0,1317.78,279.25Zm-30.5-37.42c1,1.25,1.61,2.47,2.59,3.08,1.24.78,2.48.1,3.52-.9,2.26-2.19,2.2-5.15,2.5-7.9a4,4,0,0,0-1.5-3.24c-.64-.39-2.64.29-3.13,1.07A79.44,79.44,0,0,0,1287.28,241.83Zm2.31-25.06c-.72-1.17-1.09-2.5-1.71-2.62a5.33,5.33,0,0,0-3.64.45,10.69,10.69,0,0,0-5.14,7.34c-.15.95.06,2.55.64,2.87a3.91,3.91,0,0,0,3.2-.17,10.32,10.32,0,0,0,3.07-2.72C1287.28,220.33,1288.35,218.58,1289.59,216.77ZM1193.9,433.88c0,1.45,0,3.18,2.18,3.63,1.73.35,3.13-.47,3.62-2.77a45.5,45.5,0,0,0,.58-7.58c.06-1.47-.39-2.83-2-3.22s-2.66.76-3.32,2.15a5.48,5.48,0,0,0-.49,1.69C1194.25,429.73,1194.09,431.69,1193.9,433.88Zm30.39,79.38c-.74-1.72-1.56-3.93-2.64-6-.61-1.18-1.9-2.32-3.21-1.5-1.06.67-2.37,2.28-2.23,3.28a26,26,0,0,0,2.38,7.38,3.5,3.5,0,0,0,3,1.55c.93-.2,1.65-1.63,2.34-2.61C1224.2,515,1224.12,514.35,1224.29,513.26Zm167.47-33.57c-.39-1.11-.76-2.21-1.15-3.31s-.66-2-1.11-2.94a13.31,13.31,0,0,0-1.81-3.16c-1.4-1.6-3.11-1.76-4.33-.69s-1.17,3.15,0,4.83a46.59,46.59,0,0,1,3.43,6.13c.63,1.37,1.35,2.3,2.92,2S1391.56,481.13,1391.76,479.69Zm-201.27-71.87c0-2.68-2.16-4.38-4.26-2.84a24.92,24.92,0,0,0-5.46,6.26c-.38.56.45,2.38,1.2,3.15a3.81,3.81,0,0,0,3,.84C1186.88,414.86,1190.46,409.8,1190.49,407.82Zm45.61,105.3c-2.36,0-3.72,1.12-3.33,2.89a51.07,51.07,0,0,0,2.87,8.74c.3.73,2.11,1.56,2.69,1.27.91-.46,2-1.92,1.9-2.8a41.26,41.26,0,0,0-2.09-8.16C1237.81,514.13,1236.56,513.53,1236.1,513.12Zm86.18-258.62c0,3.78,4,8.09,7,7.81a5.94,5.94,0,0,0,3.34-2c.37-.4,0-2-.48-2.58a34,34,0,0,0-5.22-4.74,4,4,0,0,0-3.25-.33C1322.9,252.92,1322.5,254.18,1322.28,254.5Zm-94.23,558.69c-.33-2-.52-3.51-.82-5-.53-2.58-1-5.19-1.73-7.71-.56-1.9-2.39-2.38-3.17-.89s-1.4,3.22-1.09,4.62a58.68,58.68,0,0,0,3.24,9.28,2.54,2.54,0,0,0,2.11,1.2C1227.21,814.62,1227.71,813.57,1228.05,813.19Zm-41.72-293.13c-.49-.61-1-1.77-1.86-2.22-1.26-.65-2.37,0-3,1.34-.4.75-.93,1.42-1.39,2.14-1.71,2.64-2.38,5.41-.78,8.33a2.09,2.09,0,0,0,3.76.27C1184.18,526.87,1185.13,523.74,1186.33,520.06Zm76.22-295c-.68-.91-1-1.73-1.5-1.91a2.49,2.49,0,0,0-2.16.22,85.23,85.23,0,0,0-6.14,7.14c-1,1.29-.5,2.77.72,3.88a2.18,2.18,0,0,0,3.47-.19C1258.94,231.28,1260.67,228.17,1262.55,225.06Zm20.52-26.14c-.32-.44-.71-1.58-1.36-1.75-1-.26-2.6-.31-3.3.29a27,27,0,0,0-4.47,5.18,4.3,4.3,0,0,0-.17,3c.39,1.57,2.43,2.58,3.38,1.6a88.74,88.74,0,0,0,5.73-6.92C1283.05,200.12,1283,199.7,1283.07,198.92Zm-58.35,340.85c-.53-.66-1-1.78-1.93-2.29a2.44,2.44,0,0,0-3.3.94c-2.14,3-2.08,6.42-1.35,9.81a2.58,2.58,0,0,0,2,1.48,3,3,0,0,0,2.27-1.47C1223.31,545.65,1223.88,543,1224.72,539.77Zm146.59-67.39c-.81-3.2-1.33-5.92-2.22-8.51-.63-1.83-2.69-1.83-3.87-.19-1.85,2.59-1.4,7,1.25,9.95.67.74,2.19,1.48,2.92,1.2C1370.31,474.47,1370.82,473.06,1371.31,472.38Zm-233,130.06c.71.82,1.17,1.87,1.88,2.09,1.36.42,2.39-.43,2.9-1.75.69-1.78,1.28-3.59,2-5.35.51-1.28,1.2-2.49,1.77-3.74a2.7,2.7,0,0,0-1.34-3.81c-1.33-.53-2.3.24-2.88,2.13a36.45,36.45,0,0,1-1.33,3.47C1140.42,597.71,1139.44,599.92,1138.35,602.44Zm.9-111.3a4.1,4.1,0,0,0-.15-1.55c-.4-.75-.95-1.86-1.56-1.95a3.24,3.24,0,0,0-2.51,1,15.67,15.67,0,0,0-2.48,4.23,10.13,10.13,0,0,0-.61,4.22,2.8,2.8,0,0,0,1.69,2,3.24,3.24,0,0,0,2.75-.86C1138,496.25,1139.51,494,1139.25,491.14Zm121.6,135.1.31,0a31.41,31.41,0,0,0-1.19-5.69,3.33,3.33,0,0,0-2.71-1.54c-.58,0-1.53,1.57-1.55,2.46-.06,2.87.2,5.76.4,8.63a2.07,2.07,0,0,0,2.17,2.1,2.27,2.27,0,0,0,2.54-2A32,32,0,0,0,1260.85,626.24Zm78.06-292.72c-.09-.69-.26-1.86-.4-3s-.26-2.35-.4-3.52c-.15-1.33-.28-2.86-2-2.86s-2.43,1.43-2.46,3a37.47,37.47,0,0,0,.21,6.09,7.85,7.85,0,0,0,1.52,3.32c.42.56,1.59,1.16,2.07.94.67-.3,1.08-1.3,1.46-2.08C1339.06,335,1338.91,334.47,1338.91,333.52Zm-114.84-13.61c2,0,5.18-2.39,5.29-4.36a6.74,6.74,0,0,0-1.21-3.71,2.5,2.5,0,0,0-2.41-.09,20.75,20.75,0,0,0-4.07,4.67C1220.6,318.3,1221.91,320,1224.07,319.91Zm107.38-33.68.29-.07c-.6-2.55-1.08-5.14-1.85-7.63-.21-.64-1.32-1-2-1.5-.44.73-1.25,1.45-1.26,2.19a58.48,58.48,0,0,0,.45,8.26,3.08,3.08,0,0,0,2,1.92c1.21.34,2.13-.46,2.34-1.79A12.63,12.63,0,0,0,1331.45,286.23ZM1153,646.85a9.3,9.3,0,0,0-.41-2.34,2.44,2.44,0,0,0-1.42-1.4,2,2,0,0,0-1.72.89,85.44,85.44,0,0,0-2.52,8.26,2.25,2.25,0,0,0,1,1.9,2.48,2.48,0,0,0,2.1-.47C1152.19,652,1152.8,649.59,1153,646.85Zm120-82.49a7.88,7.88,0,0,0-1.72,1.43,6.28,6.28,0,0,0,1.37,7.71,2.43,2.43,0,0,0,4-1.14c.53-1.33-.55-6.18-1.66-7.06A10.89,10.89,0,0,0,1273,564.36ZM1133.31,724.22a6.94,6.94,0,0,0-1.38-1.69c-.31-.24-1.29,0-1.72.36-2.13,1.74-3.1,7-1.64,9.31a2.87,2.87,0,0,0,2.16,1.27,2.64,2.64,0,0,0,1.71-1.77C1132.88,729.46,1133,727.16,1133.31,724.22Zm109.24-476.38c-.3-1.8-1.61-2.45-3.24-1.63s-4.51,6.16-4.2,7.92a2.55,2.55,0,0,0,1.2,1.78c.68.22,2,0,2.28-.45C1240,253,1241.25,250.4,1242.55,247.84Zm60.75,22c0-2.34-1.89-3.39-3.13-2.26-2,1.86-3.89,4-4,7a2.9,2.9,0,0,0,1.24,2.19,2.35,2.35,0,0,0,2.26-.35C1301.11,274.1,1302.32,271.65,1303.3,269.83Zm55.82-72.73c0-1.61-1.57-3-3.5-3-2.27-.06-4.61,1.56-4.61,3.18s2.58,4.22,4.15,4.22S1359.09,198.92,1359.12,197.1Zm-176.75,190c-.53-.69-.92-1.74-1.49-1.85-.74-.14-2.13.25-2.37.79a42.92,42.92,0,0,0-2.48,7.32c-.14.58.87,1.82,1.6,2.09a2.51,2.51,0,0,0,2.14-1.14C1180.77,392,1181.48,389.65,1182.37,387.09Zm103.76,365.48c.48.86.81,2.15,1.62,2.62.53.31,2.16-.34,2.58-1a18.26,18.26,0,0,0,2.11-5.05,2.59,2.59,0,0,0-2-3.18,3.3,3.3,0,0,0-2.79,1.39C1286.89,748.79,1286.69,750.55,1286.13,752.57Zm35-609.92a2.08,2.08,0,0,0-.08-1,26.6,26.6,0,0,0-1.45-2.53c-.74.63-1.81,1.12-2.16,1.92a49.91,49.91,0,0,0-2.15,6.35c-.42,1.45.36,2.13,1.84,1.76C1319.91,148.44,1321.38,146.28,1321.14,142.65Zm2.48,190.27a60.59,60.59,0,0,0-2.24-5.74c-.86-1.71-2.34-1.58-3.24.11-1.27,2.4-.43,4.67.77,6.7a3.53,3.53,0,0,0,2.83,1.53C1322.44,335.43,1323,333.91,1323.62,332.92Zm-59.31,202.92a33.85,33.85,0,0,0-2.75-4.93c-.85-1-2.24-1-3.35,0a2.55,2.55,0,0,0-.72,3.5,11.74,11.74,0,0,0,1.55,2.71c.72.67,2,1.41,2.76,1.22S1263.31,536.9,1264.31,535.84Zm-.23,21.12a14.3,14.3,0,0,0-1-3.72,3.14,3.14,0,0,0-2.33-1.29c-.7,0-2,.86-2,1.36a16.31,16.31,0,0,0,.61,5.89c.7,1.9,2.72,1.8,3.8,0A15.13,15.13,0,0,0,1264.08,557ZM1130,786.23c.14.21.35.93.77,1.08a2.26,2.26,0,0,0,1.82-.19,12.05,12.05,0,0,0,2.74-2.54,8.35,8.35,0,0,0,1.68-3.4c.25-1.48-1.06-2.25-2.48-1.75S1130,784.3,1130,786.23Zm6.72-98.15c0,2.22.56,3.49,2.31,3.79s2.28-.87,2.68-2.22c.16-.56.61-1.15.52-1.66-.18-1-.39-2.45-1-2.78a3.59,3.59,0,0,0-3.13.37C1137.22,686.2,1137,687.55,1136.69,688.08Zm211.66-427.15c-.2-1.73-2.1-2.39-3.46-3.33a3,3,0,0,0-2.9.21,3,3,0,0,0-.06,2.94,8.5,8.5,0,0,0,3.38,2.52C1346.89,264,1348.34,262.87,1348.35,260.93Zm-122.8-21c0,1.35,1,2.28,2.19,1.79a7.61,7.61,0,0,0,4.58-4.63c.4-1.29-.18-2.21-1.65-2.28C1228.92,234.74,1225.49,238.2,1225.55,239.93Zm54.12,22.12c.24.4.57,1.59,1.15,1.73a3.2,3.2,0,0,0,2.54-.79,9.39,9.39,0,0,0,2.07-3.08c.32-.71.48-2.08.1-2.39a3,3,0,0,0-2.63-.43C1281.14,257.94,1280,259.5,1279.67,262.05Zm-20-15.35c.67.93,1,1.72,1.4,1.84a2.68,2.68,0,0,0,2.16-.29,20.09,20.09,0,0,0,3.16-3.95,2.33,2.33,0,0,0-.18-2.25c-.58-.44-2-.63-2.44-.23A53.63,53.63,0,0,0,1259.7,246.7Zm14.75,7.58c-.33-2.17-1.43-3.29-2.55-2.33a16.48,16.48,0,0,0-3.39,4.41c-.27.48.33,1.92.93,2.28a2.51,2.51,0,0,0,2.41-.34A28.23,28.23,0,0,0,1274.45,254.28Zm-73.63,79.86c.26.3.68,1.28,1.3,1.42a2.71,2.71,0,0,0,2.35-.68,18.62,18.62,0,0,0,1.91-4.9c.29-1.28-.67-1.74-1.87-1.41S1200.83,332.26,1200.82,334.14Zm-22.47,27.17c-.38-.26-1-1.05-1.78-1.17-1.19-.2-3.5,2.73-3.4,4.09a2,2,0,0,0,2.18,2C1176.93,366.19,1178.36,364.14,1178.35,361.31Z"/><path class="cls-1" d="M1079,235.17c-6.14.63-11.21.53-16.24-1.08-1.8-.58-3.92-.32-5.88-.19-5.59.36-11.16,1.1-16.75,1.25a42.54,42.54,0,0,0-19.18,5.53,28.23,28.23,0,0,1-4.28,1.41c-2.23.76-4.45,1.58-6.68,2.33-3.68,1.23-7.36,2.47-11.06,3.62-3.2,1-6.44,1.85-9.63,2.85a29.52,29.52,0,0,0-2.83,1.38c-5.55,2.41-11.14,4.71-16.65,7.22a44.82,44.82,0,0,0-10.58,6.75c-8,6.79-16.06,13.41-24.15,20-3.21,2.62-6.54,5.1-9.84,7.61a6.84,6.84,0,0,0-2.93,4c-.4,1.82-1.94,2.33-3.5,1.38-.73-.44-1.8-.8-2-1.44a5.3,5.3,0,0,1,.05-3.08c.28-.93,1.26-1.64,1.55-2.56,1.43-4.7,2.7-9.46,4.11-14.17A38.56,38.56,0,0,1,924.7,272c1.77-3.57,3.75-7,5.71-10.51,1.84-3.24,3.66-6.51,5.7-9.63a77.57,77.57,0,0,1,5.18-6.69c4.15-5,8.38-10,12.52-15,1.51-1.82,2.92-3.74,4.24-5.7s.58-3.7-1.66-3.89a13.42,13.42,0,0,0-5.57.82c-4.48,1.71-8.85,3.72-13.27,5.6-2.84,1.2-5.7,2.37-8.53,3.6-2.56,1.12-5.1.3-7.56-.23-1.45-.31-1.34-1.78-.38-2.67,2.94-2.72,4.31-6.4,6.24-9.74,2.59-4.47,5.41-8.81,7.77-13.4,3.23-6.25,8.17-11.07,12.78-16.18,6.1-6.77,13.13-12.51,20.35-18,3.08-2.34,6.41-4.36,9.66-6.48,2.39-1.56,6,.15,6.62,3.09.12.58,0,1.39.32,1.7a4.54,4.54,0,0,0,2.51,1.39c.54,0,1.44-1.08,1.6-1.81a15.56,15.56,0,0,0-.09-3.33,41.09,41.09,0,0,1,.13-4.3,4.67,4.67,0,0,1,3.37-4.19c5.86-2.15,11.67-4.42,17.52-6.6,4.26-1.57,8.51-3.2,12.84-4.55,4.14-1.3,8.38-2.23,12.56-3.39,3.62-1,7.17-2.27,10.81-3.11,7.33-1.69,13.78-5.54,20.62-8.38,6.45-2.68,12.7-6,17.9-11,3.07-2.94,6.76-5.23,10-8,3.39-2.92,6.65-6,9.83-9.17s6.26-6.55,9.35-9.87c3.32-3.57,6.45-7.31,9.92-10.72,5.13-5,10.44-9.85,15.75-14.68a92.74,92.74,0,0,1,8.6-7.26c3.79-2.7,7.83-5.07,11.83-7.45a30.32,30.32,0,0,1,5.7-2.7c3.28-1.11,6.64-2,10-2.88a3,3,0,0,1,3.59,1.82,10.24,10.24,0,0,1,1,3.39c.61,5.36,1.11,10.74,1.67,16.11.71,7,1.19,13.93,2.25,20.83a189.1,189.1,0,0,0,4.18,20.29c.86,3.21,2.91,6.13,4.61,9.08,2.54,4.41,5,8.91,7.94,13a54.73,54.73,0,0,0,15.43,15.12c3.83,2.39,7.83,4.51,11.81,6.65,3.21,1.72,3.68,3.76,2,7-2.08,3.93-3.8,8.06-5.75,12.07-.74,1.53-1.67,3-2.49,4.46-5.64,10.37-13.79,18.61-22.74,26-4.58,3.78-10,6.57-15.07,9.7-3.64,2.23-7.46,4.18-11.07,6.46-4.89,3.08-10.46,4.21-15.85,5.9-11.82,3.72-24.11,4-36.3,5.15-6.08.57-12,2.2-18.1,3.12s-12.27,1.62-18.43,2.29A40.48,40.48,0,0,1,1079,235.17Zm70.18-106.6h.13c0-4.08.16-8.17-.08-12.24a9.69,9.69,0,0,0-1.78-4.48,2.67,2.67,0,0,0-4.41-.35,8.42,8.42,0,0,0-2.2,3.82,88.25,88.25,0,0,1-4.07,16.23c-1.07,2.8-1.64,5.78-2.48,8.68a4.16,4.16,0,0,1-4.21,3.22c-1.31,0-2.63-.11-3.95-.08-4.15.1-8.31.14-12.44.47a3.44,3.44,0,0,0-2.6,1.85c-.25.94.4,2.32,1,3.24a6.5,6.5,0,0,0,2.43,1.61q6,3,12,6a2.59,2.59,0,0,1,1.5,3.28c-.9,3.22-1.9,6.42-2.89,9.61-.5,1.62-1.05,3.23-1.59,4.83-.85,2.48-1.65,5-2.6,7.43-1.39,3.59-3,7.11-4.34,10.71a3.16,3.16,0,0,0,1.4,4c1.35.88,2.61.19,3.58-.73,2.34-2.22,4.71-4.44,6.83-6.86a61.16,61.16,0,0,0,8.36-13c1.4-2.81,3.17-5.43,4.8-8.12a2.2,2.2,0,0,1,3.05-1c1.55.72,3,1.86,4.62,2.2,5,1.06,10,2,15.12,2.66,1.93.27,3-1.45,3.89-2.92s.13-2.55-.77-3.61a12.09,12.09,0,0,0-1.58-1.76c-5.47-4.29-11-8.58-16.49-12.8-2-1.55-2.33-2.38-1.46-4.86a15.67,15.67,0,0,0,1.19-4.35C1149.32,137,1149.21,132.79,1149.21,128.57Zm14.26-62.69a7,7,0,0,0-1.89-1.68c-1.81-.79-3.46-.06-5,1.06-3.51,2.64-7.08,5.2-10.52,7.93a26.55,26.55,0,0,0-4.93,4.77,34.45,34.45,0,0,0-3.65,6.73,2.88,2.88,0,0,0,.41,2.69,2.8,2.8,0,0,0,2.72-.18c3.94-3.36,7.68-7,11.58-10.35,2.31-2,4.82-3.79,7.19-5.73C1161,69.81,1163.1,68.9,1163.47,65.88ZM1067,227c3-.74,5.87-1.28,8.64-2.24a2.33,2.33,0,0,0,.39-4.15c-4.17-2.47-8.94-2.44-13.54-2.94-2.08-.22-4.25.33-6.38.5-1.33.1-2.56.4-2.85,1.92a2.55,2.55,0,0,0,1.91,3c2.1.77,4.2,1.54,6.33,2.24C1063.24,226,1065.07,226.45,1067,227Zm126.41-80.07c1.27-1,2.64-1.47,3-2.39a4,4,0,0,0-.78-3.12c-1.55-2.09-3.44-3.93-5.07-6-1.34-1.68-2.39-3.59-3.76-5.24s-3.15-1.88-4.46-.7a3.51,3.51,0,0,0-.14,4.66c.63.9,1.09,1.93,1.71,2.84a60.72,60.72,0,0,0,4.59,6.35C1189.72,144.73,1191.52,145.62,1193.36,146.93Zm18,18.34h.59c1.92-.12,3.51-.86,4.11-2.8s-.47-3-1.91-4.12c-1.71-1.31-3.13-3-4.81-4.34a14.89,14.89,0,0,0-3.92-2.45,3.34,3.34,0,0,0-4,1.45c-.89,1.29-.23,2.43.61,3.58a24.22,24.22,0,0,1,2.67,4.34A7,7,0,0,0,1211.39,165.27ZM1040.62,149.7l-.14-.51c-4.45,1.06-8.92,2-13.34,3.23-1.87.5-3.27,2.57-3,3.75s1.86,1.69,4.31,1.08l1-.24c3.26-.72,6.51-1.45,9.78-2.14,1.28-.27,2.72-.17,3.84-.74a3.53,3.53,0,0,0,1.61-2.5c0-.53-1.14-1.34-1.92-1.73A6,6,0,0,0,1040.62,149.7Zm51,66.91-.15-.51a50.84,50.84,0,0,0-5.61,2.09c-2.19,1.1-2.2,3.27,0,4.38a10.76,10.76,0,0,0,10.26.26,2.44,2.44,0,0,0,.91-4A5.31,5.31,0,0,0,1091.61,216.61Zm-95.15,5.83c-1.27.08-3-.23-3.46,1.79-.44,1.79.72,3.17,2.81,3.49,2.75.4,4.6-.6,4.69-2.55S999.55,222.44,996.46,222.44Zm110.61-.63a2.93,2.93,0,0,0,3-2.57,2.76,2.76,0,0,0-2.78-2.51c-1.72-.07-3.5,1.16-3.55,2.44S1105.29,221.78,1107.07,221.81Zm-53.69-69.36c2.08,0,4.13-1.63,4.11-3s-1.09-1.78-2.32-1.75c-2.35,0-4,1.15-3.92,2.76A1.94,1.94,0,0,0,1053.38,152.45Zm-67.33,78.49c-2.66,0-4,.92-3.86,2.23a2.2,2.2,0,0,0,2.41,2.09c1.54.05,3.35-1.47,3-2.71C987.34,231.77,986.34,231.23,986.05,230.94Z"/><path class="cls-1" d="M1169.27,0c.63,0,.73-.06.75,0,2.45,3,5.34,5.83,7.22,9.19a131.23,131.23,0,0,1,6.49,14.57,11.18,11.18,0,0,1,.32,4c0,3.55,0,7.09,0,10.63a60.57,60.57,0,0,0,.52,6.3,12.26,12.26,0,0,0,.94,3.6,2.7,2.7,0,0,0,1.84,1.44,2.43,2.43,0,0,0,1.93-1.3,56.59,56.59,0,0,0,1.37-6.33c.19-1.09,0-2.52,1.51-2.6s2,1.36,2,2.63c.31,5.5,2.85,10,6,14.36,2.53,3.5,4.63,7.32,6.87,11,2.84,4.71,5.61,9.47,8.46,14.18,1,1.57.79,2.86-.68,3.92-1.92,1.38-3.85,2.73-5.77,4.11-1.12.81-2,1.94-1,3.15s2.39.57,3.47-.34a54.2,54.2,0,0,1,4.38-3.67c2.24-1.51,3-1,4.06,1.44,1.33,3.15,3,6.17,4.42,9.26,1.28,2.73,2.55,5.46,3.73,8.23,2.31,5.42,4.4,10.94,6.9,16.27,1.38,3,3.45,5.59,5.16,8.39,3.09,5,6.28,10,9.15,15.21,1.75,3.14,2.94,6.58,4.45,9.86a13.3,13.3,0,0,0,1.86,3,1.9,1.9,0,0,1-.2,3.07c-1.46,1.23-3,2.37-4.45,3.6a43.88,43.88,0,0,0-4.5,4.1c-1.18,1.32-2.17,1.53-3.14.06-2-3-3.81-6-5.66-9-1.1-1.79-2.18-3.6-3.14-5.47a27,27,0,0,1-1.46-3.75c-1-2.85-1.61-5.85-2.89-8.54a28.17,28.17,0,0,1-2-18.3c.69-3.34.93-6.48-.92-9.55-1.16-1.93-2.47-2.07-3.73-.2-1.48,2.19-1.29,4.61-1,7.07a8,8,0,0,1-.37,2.17c-.62-.47-1.53-.81-1.83-1.44-1.62-3.36-3-6.83-4.63-10.19s-3.54-6.88-5.24-10.36c-1-2-1.66-4.14-2.66-6.12-1.76-3.45-3.65-6.82-5.49-10.22a9.36,9.36,0,0,1-.94-1.72c-1.23-4.44-3.75-8.2-6-12.1-1.57-2.66-3-5.43-4.36-8.19-2.35-4.62-4.72-9.23-7-13.9-1.17-2.47-2-5.12-3.1-7.6-1.34-2.93-2.87-5.77-4.3-8.65-.44-.88-.78-1.81-1.24-2.67-.91-1.72-1.94-3.38-2.82-5.12-.62-1.25-1.47-2.57-1.51-3.88-.09-2.82.28-5.66.45-8.48a10.17,10.17,0,0,0,0-2.75c-.63-2.87-1.47-5.7-2.09-8.57A22.83,22.83,0,0,1,1169.27,0Z"/><path class="cls-1" d="M250,1118.9q16.41-41.7,32.82-83.39c6.17-15.74,12.35-31.48,18.29-47.3,2.14-5.72,3.71-10.78,11.71-10.85,7.83-.06,9.87,4.47,12.15,10.35q24,62,48.37,123.91l2.78,7.1c5.05-2.1,4.42-6.38,5.28-9.67,10.19-39.2,20.56-78.36,30.13-117.71,2.16-8.9,6.32-11.58,14.85-11.4,36.41.8,35.67-5,24.92,32.71-18.87,66.21-37.51,132.49-56.36,198.71-1.62,5.69-1.4,12.5-11,12.72-9.19.2-10-6.13-12.29-11.75-17.5-43.92-34.84-87.91-52.44-131.79-1.81-4.5-2.54-9.74-7.75-14.25-11.77,29.84-23.29,59-34.76,88.14-7.88,20-15.83,40.06-23.47,60.2-2.12,5.57-4.29,9.38-11.42,9.36-7.49,0-9-4.42-10.6-10q-31-109.68-62.22-219.29c-2.79-9.83-1.17-14.78,10.86-14.79,30.63,0,30.67-.52,38.39,28.73q14.53,55,29,110.09Z"/><path class="cls-1" d="M908.8,1223.86c-68.77.07-123.36-54.27-123.46-122.92-.1-67.75,55.67-123.34,123.73-123.33,70,0,125.73,55.15,125.59,124.19C1034.52,1170.15,979.22,1223.79,908.8,1223.86Zm.35-45.35c44.18.19,79.8-34.4,80-77.67.18-41.43-35.88-77.32-77.88-77.5-44.18-.2-80.5,34.68-80.5,77.31C830.76,1143.44,865.88,1178.33,909.15,1178.51Z"/><path class="cls-1" d="M619.28,1223.79c-69.29-.08-123.77-53.79-124.09-122.31-.32-69,55.43-123.92,125.79-123.86,67.74,0,123.76,56.14,123.49,123.64C744.18,1170.29,689.44,1223.88,619.28,1223.79Zm.1-45.37c43.48.23,79-34,79.56-76.64.54-41.46-35.44-78.19-76.86-78.45-45.17-.28-81.32,34.21-81.29,77.57C540.81,1144,575.45,1178.18,619.38,1178.42Z"/><path class="cls-1" d="M1655.9,1223.88c-70-.06-124.63-54.21-124.45-123.26.17-67.44,55.67-123,122.74-123,70.53.06,126.75,54.91,126.33,123.27C1780.1,1170.49,1725.94,1223.93,1655.9,1223.88Zm-.4-45.3c43.47.16,79-34,79.6-76.66.62-43.07-35.81-78.66-80.49-78.64-41.77,0-77.23,35.44-77.67,77.58C1576.51,1143.29,1612,1178.42,1655.5,1178.58Z"/><path class="cls-1" d="M1093.08,1101.07q0-53.89,0-107.8c0-6-.62-13.13,8-12.91,35,.92,70.26-3.8,105,2.61,56.24,10.39,97.7,62.83,96.8,119.7-.92,57.82-41.76,106.9-100.33,116.71-33.78,5.65-68.33,1.46-102.53,1.67-8.64,0-6.85-7.16-6.87-12.18C1093,1172.94,1093.08,1137,1093.08,1101.07Zm44.8-.38v35.48c0,11.83,0,23.66,0,35.49,0,4.08-1.18,8.69,5.87,8.35,16-.77,32.09,1.11,48.06-1.68,33.09-5.77,57.23-31.08,61.63-64.85,4.89-37.51-11.48-69.41-42.52-84-20-9.42-41.32-6.63-62.29-7.66-9.33-.47-11.24,3.05-11,11.68C1138.29,1055.89,1137.88,1078.29,1137.88,1100.69Z"/><path class="cls-1" d="M1837.94,1101.41c0-36,.41-71.94-.25-107.9-.2-10.9,3.75-13.88,13.87-13.74,30.47.43,61-.07,91.42.31,35.15.44,64.49,23.18,72.92,55.85,8.36,32.41-5.91,65.62-37.29,82.3-10.18,5.41-9.8,9.34-4.91,18,13.14,23.14,25.45,46.75,38,70.22,6.41,12,4.54,13.41-8.71,15.27-25.9,3.63-42.48-3.75-51-30.63-5.92-18.67-17.79-35.39-26.09-53.4-3.81-8.26-8.82-10.71-17.62-10.51-25,.55-25,.16-25.14,25.61-.06,19-.39,38.08-.06,57.12.16,8.72-3,11.64-11.84,11.79-33.52.58-33.51.86-33.49-32.65q0-43.8,0-87.59Zm80.88-79.87c-11.4,0-19.44.14-27.48,0-4.9-.12-8.1.76-8,6.8.24,18.61.17,37.23.11,55.85,0,3.47,1,6,4.81,5.86,20.25-.7,40.74,2.71,60.71-2.22,14.66-3.61,24.73-19.54,23.58-35a32.37,32.37,0,0,0-27.94-29.9C1935,1021.6,1925.18,1021.83,1918.82,1021.54Z"/><path class="cls-1" d="M2081.65,1100.13c0-35.54.39-71.09-.25-106.61-.2-10.85,3.67-13.84,13.85-13.75q63.47.54,126.95,0c9.9-.08,13.31,3.34,13,13.27-1,31.79,5,28.67-28,28.73-23.28.05-46.56.44-69.82-.27-8.75-.26-11,2.55-10.61,10.72.57,12.24.48,24.54,0,36.79-.27,7.24,2.18,9.34,9.47,9.19,23.69-.48,47.4.13,71.09-.36,8.41-.17,11.13,3.08,11,11-.59,37.25,4.19,29.55-28.46,30.4-17.76.46-35.56.55-53.31-.16-8.14-.32-10.08,2.35-9.76,9.94.54,13.09.68,26.26-.09,39.33-.55,9.19,1.74,12.32,11.66,12.06,28.33-.75,56.7,0,85-.34,8.63-.1,11.72,2.53,11.77,11.58.17,29.8.53,29.81-28.74,29.82-37.24,0-74.48-.35-111.71.24-10.68.17-13.53-3.28-13.36-13.66C2082,1172.06,2081.66,1136.09,2081.65,1100.13Z"/><path class="cls-1" d="M1359.6,1101.1c0-35.09.26-70.19-.18-105.28-.14-11.51,2.87-16.42,15.71-16,30.09.9,30.11.23,30.11,30.53,0,51.16.42,102.33-.3,153.48-.18,12.63,2.15,17.53,16,16.69,22.33-1.35,44.81-.06,67.21-.54,8.17-.17,11,2.81,11.51,10.71,2.13,30.77,2.32,30.76-28,30.76-32.56,0-65.14-.41-97.69.28-10.94.23-14.81-2.73-14.62-14C1360,1172.14,1359.62,1136.62,1359.6,1101.1Z"/><path class="cls-1" d="M1101.58,1384.93c0-25.78.28-51.57-.15-77.34-.14-8.29,2.47-10.89,10.81-10.58,16.46.62,33,0,49.45.11,48.33.33,84.25,32.83,89.48,80.8,4.6,42.16-25.35,83.61-69.42,92.82-24.42,5.11-49.71,1.26-74.61,1.71-6.76.12-5.55-4.83-5.55-8.9Q1101.55,1424.24,1101.58,1384.93Zm25.73-.47q0,15.18,0,30.38c0,35.45,0,35.45,35.48,33.78,28-1.32,52.4-20.62,58.19-46.1,6.88-30.26-4.56-61.15-31.91-73.34-17-7.59-34.19-7.37-51.84-7.72-7.58-.14-10.36,1.84-10.1,9.84C1127.7,1349,1127.31,1366.73,1127.31,1384.46Z"/><path class="cls-1" d="M1576.86,1385.78c0-25.38.31-50.77-.16-76.14-.17-9,2-13.05,11.91-12.74,20.29.64,40.62-.08,60.92.22,27.65.42,47.48,15.54,54.32,40.85,6.18,22.87-3.23,45.25-26.31,58.9-7.92,4.69-7.85,8.06-3.65,15.2,9.41,16,17.82,32.61,26.71,48.94,4.17,7.68,3,11-6.72,11.83-13,1.17-21-2.28-26.25-15.13-6-14.82-14.86-28.47-21.4-43.1-3.66-8.19-8.23-11.1-17.31-10.84-26.21.73-26.23.29-26.25,26.63,0,11-.29,22,.07,33s-7.24,9.08-13.85,9.13-12.44.88-12.19-9.33c.62-25.79.2-51.6.2-77.41Zm26.33-33.38c0,7.58-.08,15.16,0,22.73,0,3.18-.78,7.83,4.17,7.57,16.33-.84,32.92,2.44,49-2,14.48-4,23.5-17.14,22.32-31.13s-12.22-25.48-27.06-27.28c-5.82-.71-11.77-.52-17.66-.51C1603.18,1321.77,1603.18,1321.8,1603.19,1352.4Z"/><path class="cls-1" d="M1357.45,1384.85c0-24.95.41-49.9-.21-74.83-.24-9.72,2.36-13.52,12.6-13.32,28.75.55,57.52.74,86.26,0,11-.3,11,5.43,11.28,13.25.34,8.89-3.12,11.6-11.9,11.38-20.7-.54-41.44.23-62.15-.23-7.47-.16-10.72,1.34-10.17,9.59a302,302,0,0,1,.1,33c-.32,7.37,2.59,9.26,9.56,9.09,17.33-.44,34.69.25,52-.31,10.31-.33,10.15,5.61,10.3,13,.16,7.86-2.11,11.64-10.74,11.38-16.48-.49-33,.49-49.46-.45-10-.56-12.41,3.06-11.73,12.16a185.33,185.33,0,0,1,0,27.88c-.74,9.54,1.8,13.4,12.33,12.94,20.26-.89,40.6.21,60.88-.46,9.88-.32,10.72,4.5,11,12.36.31,8.64-2.15,11.77-11.3,11.59-28.74-.57-57.51-.68-86.25,0-10.47.25-12.83-3.59-12.63-13.14.52-24.94.17-49.89.17-74.83Z"/><path class="cls-1" d="M788.54,1474.84c-40.13.06-74.68-24.59-86.69-61.84-12.1-37.54,1.87-79.08,34.36-102.19,31.07-22.1,75.28-21.84,105.51,1.06,4.56,3.46,14.28,6.53,5.94,15.23-5.59,5.82-9.12,15-21,5.93-27-20.43-62.54-16.4-83.72,7.53-21.94,24.78-22.3,62.63-.83,87.11s55.27,28.32,83.69,9.5c9.06-6,21.61-1.92,24.83,8.08,1.54,4.76-2.16,6.76-4.9,9.3C831.68,1467.46,811,1474.8,788.54,1474.84Z"/><path class="cls-1" d="M984.47,1301.52q-.26,73.39-.5,146.79c-.06,24.07,0,24.07-24.06,24.41l-2.64-2.7c.06-53.57.25-107.13,0-160.69,0-7.85.86-13.39,10.37-12.7C973.42,1297.74,980,1296.08,984.47,1301.52Z"/><path class="cls-1" d="M984.47,1301.52c-4.49-5.44-11.05-3.78-16.8-4.89C975.2,1291.64,981.75,1290,984.47,1301.52Z"/><path class="cls-1" d="M957.27,1470l2.64,2.7c-.46.55-.91,1.11-1.36,1.67Z"/></svg>