<svg id="Layer_1" data-name="Layer 1" xmlns="http://www.w3.org/2000/svg" viewBox="0 0 3920.04 1433.76"><defs><style>.cls-1{fill:none;}</style></defs><path d="M2095.67,876.46c-15.69,25.47-31.81,50.7-47.07,76.41-10.58,18-20.24,36.42-29.65,55-8.06,16-17.48,30.83-31.93,41.72a150,150,0,0,1-17.29,11.07c-4.06,2.34-23-2.58-25.41-6.71-1.35-2.46-2-6.27-1-8.86,4.12-12.42,5.48-24.73,5.54-38.08.12-32.36,3-64.72,4.8-97.08q2.22-38.29,4.8-76.54c.8-11.69,2.34-23.37,2.83-35.13.12-3.44-1.85-7.26-3.63-10.39-1.42-2.46-4.43-3.94-6.28-6.22-4.18-5.35-3.13-10.09,2.89-13,5.42-2.52,8.37-6.34,9-12.36,1.17-10,2.52-19.94,3.87-29.91.8-5.72-1.16-9.16-6.82-11.19-7.39-2.71-7.88-7.82-2.16-13.35A68.45,68.45,0,0,0,1968,691c1.47-2.15,2.46-6.22,1.41-8.12-6.83-12.18-3.14-25-3.38-37.59,0-1.42.67-3,.43-4.31-.68-4.49-4.55-6.09-6.34-2.58a242.32,242.32,0,0,0-13.47,32.3c-.5,1.29,4.18,4.36,6.4,6.64l6.21,6.4c-2.46,2-4.74,5.23-7.45,5.66-6.58,1.17-9.59,5.48-12,10.77-5.42,11.69-9,23.81-9.29,36.85a111.75,111.75,0,0,1-20,62.2c-1.54,2.21-1.23,7.2.25,9.72,2.46,4.37,2.64,7.75.55,12.3-7.57,16.49-15.32,32.92-21.78,49.84a249.4,249.4,0,0,0-12.42,42c-1.91,9.84.06,20.48-.62,30.63-.31,4.43-1.78,10.22-4.92,12.68-11.08,8.92-9,20.67-7.75,31.87.8,7.38-1.36,11.5-7.45,15-8.06,4.61-15.75,10-23.62,14.89-5.48,3.44-10.4,2.83-15.51-1.3-2.33-1.9-5.78-2.52-8.79-3.5-1.42-.43-3,.06-4.37-.31-15.94-4.8-31.93-9.41-47.68-14.7-9.78-3.27-10.83-6.83-7.82-16.92,6.22-21.17,13.48-42.08,17.78-63.68,3.69-18.21,13.17-34.15,17.41-52.11,4.56-19.26,11.08-38,16.74-57q3.23-10.89,6.52-21.78c6.09-19.63,12.24-39.19,18.27-58.82,5.29-17.35,10.65-34.63,15.57-52.05s9.23-34.88,14.21-52.17c3.75-12.92,8.06-25.65,12.24-38.45,5.11-15.63,10.58-31.13,15.57-46.76,6.27-19.68,12.61-39.43,18.27-59.37,4.62-16.36,7.81-33.22,12.68-49.52,3.63-12.18,9-23.81,13.47-35.75,2-5.23,3.75-10.52,5.41-15.93,4.74-15.44,9.29-30.95,13.91-46.45,2.15-7.2,5.47-8.55,12.79-5.91,8.49,3,17.11,6.09,25.91,8,2.52.55,7-2.15,8.61-4.61,5.78-8.86,12-8.93,18.39-.13a84.89,84.89,0,0,0,12.62,14c5,4.49,10,3.57,14.58-1.85,8.36-10,10-10,20.18-1.41a105.87,105.87,0,0,1,12.36,11.56c4.62,5.36,8.12,11,8.62,18.89.49,7.63,4.73,14.89,5.72,22.52a99.86,99.86,0,0,1-.31,24.18c-2.77,22.82-6.21,45.59-9.35,68.41,6.34,12.37-4.55,20.18-7.45,30.15-3.93,13.72-4.36,28.48-6.09,42.88-.74,6-2.15,12.43-1,18.27,1.84,10.22,4.43,20.55,8.55,30,5,11.44,5.41,14.64-2.58,24.36a94.69,94.69,0,0,0-6.16,9.29c5.29,2.21,11,3,13.48,6.15,1.72,2.34.37,8.62-1.66,11.94-4.5,7.44-10.34.24-16.62-.31-.06,10.64-3.38,20.92,3.94,30.52,1.85,2.33,3,6.58,2.22,9.35-2.71,9.53-6.4,18.82-9.79,28.24-1.72,4.79-4.18,9.47-5.29,14.45-.61,2.53.25,6.53,2,8.12,1.23,1.11,6.34.31,7.63-1.29,7.82-9.72,15.57-19.62,22.09-30.27,2.15-3.44,1.41-9.35.37-13.78-1-4.8-2.4-9.47,3.26-11.07,13.9-3.82,19-15.51,24.79-26.52,6.71-12.8,13.05-25.78,19.44-38.76,19.81-40,40.36-79.73,59.13-120.21,12.92-27.94,23.44-57,35.07-85.64,4.06-10,7.63-11.88,18.15-9.73q12.27,2.6,24.54,4.8c6.22,1.11,9.36,4.93,7.32,11.88-3,10.4-7.44,20.42-10.89,30.7-2.83,8.3-5.1,16.79-7.62,25.16q-4.71,15.78-9.36,31.56C2239,533,2234,550.57,2228.62,568.11c-5.48,18-11.32,35.93-17,53.89-5.85,18.4-11.26,37-17.72,55.19-2.89,8.24-7.82,15.75-11.88,23.56-5.66,10.83-11.56,21.59-16.79,32.61-1.05,2.21-.56,6.21.86,8.18,5,7,3.44,12.86-1.42,18.7s-10.27,11.32-14.82,17.41c-8.43,11.2-16.62,22.52-24.37,34.21-1.29,1.91-.92,6.27.43,8.37,6.46,10.27,4.13,16.18-7.56,17.29-6.83.67-9.29,5.78-10.09,11Z"/><path d="M2377.26,446c-2.59,9.35-7.14,18.15-9.78,27.44-6.9,23.75-12.93,47.68-19.69,71.49-4.18,14.58-9.11,29-13.6,43.5-2.21,7.26-3.57,14.76-6.27,21.78-2.53,6.4-7.26,8.06-14.4,5.78-5.29-1.66-11.32-.86-17-1.23-.12.92-.31,1.85-.43,2.71,5.29,1.23,10.52,2.58,15.81,3.57,9.47,1.84,11.94,6.7,9,15.87-4.49,14-8.12,28.24-12.36,42.27-3.51,11.5-7.75,22.76-10.95,34.26-1.05,3.88.06,8.37.24,12.55.12,3.7,1.35,7.88.12,11.14-10.89,29.65-21.41,59.49-33.65,88.66-10.89,26-15,52.9-17.1,80.53-1.29,16.79-8.06,31.07-21.54,42-7.13,5.78-6.52,8.61,1.23,14.09,1.61,1.17,3.82,2,4.56,3.63,1.23,2.71,2.46,6,2,8.8-.31,1.47-4,3.07-6.28,3.38-4.74.68-7.32,2.52-8.67,7.38-4.74,17.23-9.91,34.33-14.95,51.43-5.6,18.71-11.32,37.41-16.92,56.11-2.16,7.26-18.46,16.37-27.32,15.2l-48.6-6.46c-13.54-1.85-22.83-9-22.27-19,.37-6.58,2.77-13.54,5.84-19.44,11.08-21.53,14.15-45.34,19.75-68.29,3.08-12.37,2.77-25.6,4-38.39.12-1.17.31-3,1.05-3.32,11.31-5,7.32-16.68,10.76-25,4.62-11.45,7.88-23.51,11.57-35.32.68-2.21,1.72-5.9.8-6.71l2-20.67c13.29-24.3,18.82-51.25,25.71-77.7,4.43-16.8,10-33.28,14.95-49.9,4.8-16.18,9.23-32.48,14.09-48.66,5.35-17.78,11-35.5,16.49-53.22,2.65-8.67,4.55-17.53,7.81-26,3-7.75,6.89-8.12,14.46-5,5.48,2.27,11.69,2.76,17.6,4.12.24-1.42.55-2.83.86-4.19-4.86-1.1-9.66-2.83-14.58-3.26-10.21-.73-15.38-7.44-12.31-17.16,3.57-11.14,7.63-22.15,10.95-33.41,4.86-16.67,9.11-33.59,14-50.32,2.89-10.09,6.52-19.94,9.6-29.91,2.77-9,5.29-18.14,7.81-27.31.55-2.09.25-4.49,1.05-6.52,5.47-14.64,5-18.58,21.78-12.86,18.08,6.21,36.54,11.32,55.06,16.06,3.51.92,8.43-1.17,11.93-3.2,4.37-2.59,8.86-4.8,12.74-1.23C2376.4,438.11,2378.12,443.09,2377.26,446Z"/><path d="M3113.63,1159.47c-3.39,13.16-7.69,27.13-.86,41,1,2-.56,5.6-1.6,8.19-4.12,10.58-9.11,20.91-12.74,31.68-5,15.13-9,30.58-13.66,45.77-2.95,9.6-6.21,19.08-9.47,28.61-1.54,4.68-.12,8.24,3.81,10.77s8.43,4.3,11.88,7.32c2,1.78,3.14,5.29,3.2,8.12.06,1.23-3.39,3.81-5.17,3.75-16.37-1-31.19,5-45.34,11.38-22.4,10-41.9,6-60.66-7.75-4.5-3.32-8.43-3.32-13.54-.74-2.77,1.42-7.81.87-10.46-.92-1.84-1.17-2.46-6.34-1.54-9,6.65-20.74,12.68-41.78,21.23-61.71,8.43-19.75,14.58-40.11,21.16-60.42,1-3,4.25-5.22,6-8,1.42-2.28,3.94-6,3.14-7.39-4.86-8.06-.74-15.38,1.29-22.58,9.23-32.54,18.89-64.9,28.43-97.33,2.33-8,5.53-15.81,7.07-23.93,1.66-8.55,1.6-17.41,2.83-26.08.43-3.08,2.22-6.1,3.69-8.93s4.31-5,5.11-7.93c3.75-13.84,6.83-27.87,10.52-41.78,1.11-4.36,3.75-8.3,5-12.61,5.36-18.27,10.28-36.73,15.81-54.94,10.34-33.9,21.29-67.67,31.51-101.64,7.13-23.87,13.53-48,20.24-72,4.49-16,8.79-32.05,13.47-48.05,3.08-10.7,7.44-12.24,17.23-6.64a5.68,5.68,0,0,0,1.29.68c10.64,3.26,21.22,6.89,32,9.41,2.83.67,6.77-1.79,9.66-3.57,3.26-2,5.72-5.54,9-7.32a8.58,8.58,0,0,1,7.45.49c1.35.86,1.78,4.37,1.41,6.46-1.84,10.71-1,12.18,9.54,14.4,3.32.74,6.77,1.1,10.09,2,7.75,2,9.72,8.43,3.51,13.48-6.4,5.23-8.68,9.41-2.9,17,1.91,2.4.86,10.21-1.6,12.37-12.92,11.25-14.7,27.25-19.93,41.83-.55,1.6-1.41,3.63-.86,5,3.81,9.23-.43,15.75-6.52,22.09-1.66,1.6-2.4,4.25-3.2,6.52-6.58,19-12.86,38-19.63,56.85l-9,24.55-.12.25a14.05,14.05,0,0,0-1.24,3.32c-2.15,8.49-3.62,17.22-5.47,25.78-.37,1.66-.68,3.93-1.78,4.67-7.57,4.92-7.76,13.29-10,20.61-8.74,28.85-17.47,57.71-25.78,86.69C3135.72,1079.18,3124.09,1119.17,3113.63,1159.47Z"/><path d="M3483.57,768.55c-10,16.55-21.1,32.42-38.15,42.26-19.19,11.08-32.11,28.74-47.8,43.5-1.23,1.17-.86,6.46.62,7.88,5.78,5.53,3.5,10.09-.68,14.64-4.68,5.17-9,4.8-13.54-.68-1-1.17-5.72-1-7.07.31q-12.55,12.36-24.3,25.47c-14.71,16.37-29.16,32.92-43.62,49.47a6.67,6.67,0,0,0-1.6,4.55c.73,12.43-.74,24.11-9.72,34-1.42,1.6-1.48,6.71-.07,8.24,6.46,6.89,6.22,12.86.44,20.18-1.85,2.34-1.3,7.57-.25,10.95,4.49,15.2,8.12,30.46,6.46,46.33s-3.63,31.75-6.15,47.43c-2,12.49-1.6,24.61,2.58,36.37,6.65,18.82,6.4,37.59,4.06,57.27-2.64,21.84-1.66,44.12-2.15,66.2-.19,7.88-1,15.87.12,23.57a260.26,260.26,0,0,0,7.51,32.66c1.29,4.43,2.4,7.26-3.69,7-6.4-.25-6,4.8-6.46,8.61s1.6,6.28,6.09,6.52a11.5,11.5,0,0,1,6.46,2.71c4.92,4.61,6,16.61,2.52,23.13-9.91-2.09-9.72-2.09-9.72,8.31,0,7.81-.62,15.56-.92,21.59l-11.63,8.55c-5.72,4.25-11.26,8-19.14,8.19-18.76.43-35.56-5.29-51.61-14.28-1.11-.61-2.65-.43-4-.49-11.32-.86-20.92-5.41-28.18-14.09-1.66-2-2.22-5.41-2.22-8.18,1.17-60.91,2.71-121.88,3.63-182.79.25-15.44-1.53-30.88-1.78-46.38-.18-12.43.74-24.92.8-37.41.12-11,0-22-.55-33-.13-2.15-2.65-4.18-4.06-6.27-2.4,1.6-5.85,2.7-7.08,5-11.32,21.6-28,37.53-50.26,49.22.73-3.2,1.23-6,2-8.67q17.82-65.72,35.57-131.42c3.56-13.47,6.7-27.07,10.21-40.6a53.84,53.84,0,0,1,21.1-31c8.31-6.21,14.77-15,21.29-23.26l17.35-20.24c13.1-14,26.27-27.93,38.45-42.69,29.22-35.44,58-71.19,86.81-107,3.44-4.31,6.46-5.42,11.87-3.45,8.68,3.14,17.91,4.8,26.7,7.51,3.7,1.17,6.89,4.06,10.59,5s8.67,2,11.69.37c10.15-5.41,23.37-5,31.31,3.32,4.86,5,9,6.4,15.5,3.88,2.9-1.17,6.83-.68,10,.24C3484.68,758.83,3486.77,763.32,3483.57,768.55Z"/><path d="M2525.87,788c1.74-10.76,3.07-21.18,5.16-31.45,4.15-20.43,7.74-41.23,26.3-54.86a21.45,21.45,0,0,0,5.28-6.08c3.07-5,1.54-8.27-4.21-9.79-11.16-3-12.63-4.69-11.17-16.46q9.45-76.05,19.26-152a30.85,30.85,0,0,1,1.9-7.09c5.32-13.89,17.69-18.47,27.79-8,9.22,9.57,20.89,9.71,31.5,14a45.48,45.48,0,0,0,5,1.36l11.17,3.11c.87-3.4.9-7.41,2.83-10s6.1-6.05,8.81-5.67c3.29.46,7.79,4.06,8.6,7.13s-1.41,9.1-4,10.33c-6.13,3-8.25,6.18-5.81,12.58,3,7.93,6.18,15.85,8.44,24a29.34,29.34,0,0,1,.66,13.76c-1.27,5.67-4.13,11-6.6,16.35s-.91,8.88,3.79,11.81c3.73,2.33,8,4.37,10.64,7.67,1.84,2.31,1.28,6.53,1.8,9.89-3.21.42-6.42,1.18-9.62,1.12-1.47,0-2.8-2.07-4.39-2.5-2.63-.72-6.8-2.16-7.84-1a12.66,12.66,0,0,0-2.91,9.06c.2,1.75,3.83,3.86,6.25,4.47,4.71,1.18,9.1,2.81,8.46,8.27-.6,5.08-1.07,11.26-8.77,11.49-4.83.15-8.15,1.6-8.91,7.51-2.64,20.62-5.65,41.19-8.9,61.72-1.36,8.63-4.06,17.06-5.32,25.7-.35,2.47,1.48,6.37,3.56,7.87,7.36,5.29,15.27,9.81,22.95,14.65,1.65,1,3.89,1.88,4.67,3.42,1.11,2.17,2,5.21,1.27,7.28-.48,1.38-3.94,2.31-6.09,2.38-4.7.13-10.28-2.11-13.91-.25-4.39,2.24-8.25,7.2-10.38,11.87-7.28,16-7.34,24.66,2.08,34.53,8.85,9.28,8.46,12.54-.83,21.18-3.91,3.64-8.54,7.86-5.62,13.08,2.31,4.16,7.28,7.28,11.71,9.68,3.06,1.66,6.74,1.66,6,6.57-.66,4.37-1.75,6.8-7.15,4.57-8.45-3.49-10-2.08-8.28,7,1.05,5.67-2.54,8.43-6.57,10.16-7.9,3.38-8,8.56-7.66,16.52.54,12.43-1.74,25.07-3.77,37.47-.72,4.4-.59,6.73,3.45,8.91,8.66,4.67,8.35,11.58,0,17.14-5.62,3.73-9.81,8.37-11.22,15.86-3.65,19.25-4.08,38.46-3,57.94,1.26,22,1.38,44.14,2,66.21.19,6.38-1.83,10.47-9.16,10-5.55-.34-7.3,2.19-7.36,8-.21,20.12-1.21,40.23,4.46,59.92.47,1.63.17,4.74-.86,5.35-7.68,4.58-9.38,12.07-9.78,21-11.76-3.17-22.6-6-33.35-9-21.45-6.17-42.85-12.48-64.26-18.79-9.27-2.74-10.09-5.28-7.29-14.56,2.86-9.51,5.22-18.93,5.19-29.37,0-7.76,2.18-14.94-1.68-22.81-2.4-4.88-2.61-11.44-1.9-17,.48-3.83,3.61-7.94,6.67-10.67a20,20,0,0,0,7.06-13.73c1.93-17.83,4.48-35.58,6.4-53.41.31-2.9-1.4-6-2.18-9l-2.71,0c-2.67,3.43-5.66,6.66-7.91,10.34-2.55,4.17-5.67,4.53-10,3.34-22.23-6.19-44.43-12.51-66.82-18-4.48-1.11-9.89.64-14.62,2-1.64.46-3.32,3.63-3.4,5.63,0,1.12,3,2.67,4.91,3.49,3.55,1.53,7.49,2.28,10.81,4.16,1.48.83,3.06,4.45,2.45,5.34-1.1,1.61-4.16,3.35-5.79,2.88-10.42-3-17.44,2.09-22.61,9.82-7.34,11-15.4,21.86-20.25,34-7.72,19.28-18.81,35.69-32.13,51.46-7.22,8.54-17.41,11.09-25.27,17.78-1.56,1.33-6.41-.77-9.55-1.85-2.63-.91-4.84-3.2-7.49-3.9-9.92-2.61-20-4.54-29.89-7.35-2.94-.84-5.14-4-8-5.6a22.62,22.62,0,0,0-8.24-2.92c-3.1-.32-6.35,1-9.47.73-9.78-.78-13.18-7.69-9.26-16.42,8.92-19.92,16.89-40.29,26.09-60.08,11.78-25.34,21.64-52.2,37.31-75,23.06-33.53,37.27-71.09,55.69-106.69,14.75-28.5,27.93-57.82,41.83-86.77,16.23-33.79,32.55-67.53,48.69-101.36,16.68-35,33.1-70.07,49.8-105q21.24-44.5,42.89-88.79c4.14-8.48,9-9.64,17.39-4.94,13,7.28,16.38,14.22,14.63,28.73-5.87,48.78-11.6,97.58-17.49,146.36a62.17,62.17,0,0,1-2.91,12.87c-2.39,6.83-4.29,13.22-1.15,20.65,1.27,3,0,7.92-1.62,11.18-9.77,19.22-19.91,38.25-30.1,57.26-9.37,17.49-19,34.87-28.45,52.3-2.34,4.31-1.42,7.49,3.27,9.45,3.4,1.42,7.35,2.33,9.9,4.71s4.64,6.21,4.4,9.21c-.17,2.14-4.33,4.49-7.16,5.73a17.78,17.78,0,0,1-9.33,1.63c-10.36-1.58-14.88,3.44-18.19,12.63a265.51,265.51,0,0,1-15.11,33.45c-3.8,7.21-1.87,12.42,3.59,16.8,5.25,4.22,9.21,8.11,4.89,15.36-.52.86,1.68,4.82,3,5.06,7.31,1.29,14.75,1.83,22.13,2.71a10.28,10.28,0,0,1,4,1.1c5.65,3.34,11.07,7.06,16.81,10.22,6.19,3.41,8.9,8.48,7.74,15.24-2.08,12-4.74,23.92-6.68,35.95-.36,2.28,1.54,4.92,2.39,7.39,1.73-1.87,4.38-3.48,5-5.67a143.94,143.94,0,0,0,5.1-22.16c3.53-27.93,7.22-55.86,9.7-83.89,2.19-24.81,2.8-49.76,4.27-74.63.24-4.13,1.78-8.22,1.73-12.32,0-1.43-3.3-4.22-4.61-4-4.32.86-9.48,3.6-11.6-1.75-1.47-3.72-.92-9.32.92-13,2.67-5.31,8-3.16,12.43-1.45A19.77,19.77,0,0,0,2525.87,788Z"/><path d="M1430.25,851.72c-1.88-8.06-3.82-16.1-5.61-24.18-2.86-12.87-7.63-25.73-7.87-38.67-.27-13.73,4.13-27.5,5.88-41.33,1.57-12.37,9-21.5,15.71-31.13,2.86-4.12,6.52-6.19,11.93-5.48,20.17,2.64,40.39,5,60.58,7.43,4.14.51,8.26,1.22,12.39,1.84,6.35.93,10,5.09,7.7,10.8-9,23,1.94,42.64,9.4,62.94,1.52,4.13,4,7.93,5.44,12.08,2.36,6.59,5.41,11.36,13.75,10,4.43-.74,6.55,2.21,6.83,6.69.45,7,2.8,8.36,9.8,7.7,5-.47,10.46-.82,15.12.66,14.63,4.64,26.45-.39,38.57-8.1,18.83-12,28-29.75,27.68-50.67-.28-17.62-4.55-35.41-8.89-52.66-3.56-14.11-10.1-27.45-14.62-41.37-.75-2.32,1.41-6.41,3.41-8.62,3.57-4,4.4-7-.51-10.13-22.57-14.58-39.21-34.67-53.67-57-14.34-22.11-26.11-45.53-36.25-69.78-4.53-10.83-8.71-21.84-12.34-33-1.85-5.66-2.16-11.82-3.12-17.77-.19-1.2.1-2.56-.32-3.65-8.41-21.68-3.51-42.77,2.57-63.88,5.87-20.41,10.9-41.07,17.32-61.3,6.12-19.3,11.61-39.19,20.88-57,11.86-22.77,33.08-35.9,56.84-45.44,23.15-9.28,47-11.4,71.4-10.36,7.29.31,14.56,1.87,21.75,3.32s8.39,6.83,5.94,14.29c-7.92,24.09-15.36,48.35-22.49,72.69-1.86,6.36-3.83,11-11.1,12.85-18.53,4.63-32.5,16.54-43,31.61-4.29,6.12-5.16,15.19-6,23.08-2.08,20.91,3.36,40.89,8.86,60.84,2.57,9.31,3.37,19.15,6.28,28.34,3,9.51,6.66,19.1,11.73,27.65,12.5,21.08,25.78,41.72,39.22,62.23,2.84,4.34,7.35,7.85,11.71,10.83,4.09,2.79,6,5.58,5.91,10.77a15.24,15.24,0,0,0,4,10.06c7.7,7.66,13.17,15.43,14.07,27.2.83,10.77,6.09,21.11,8.48,31.85,3.49,15.7,8.67,31.65,8.24,47.36-.26,9.78-.45,16,7.05,22.92,2.86,2.64,2,10.93.72,16.08-2.78,10.78-4.83,20.75,2.06,31,3.73,5.58-.43,10.49-5.12,13.66-5.26,3.55-6.79,7-3,12.73,3.34,5,.33,9.11-2.88,13.23-10.4,13.33-20.27,27.08-30.86,40.24-9.43,11.72-18.63,23.85-33,30.34-2.39,1.08-4.38,3-6.5,4.56-12.6-8.77-23.36-3.19-25.52,12.2-.59,4.19-3.83,9.36-7.4,11.56-15.66,9.64-32,18.27-47.89,27.45-6.19,3.56-12,3.65-18-.24-2-1.28-4.52-2.6-6.75-2.53-12.59.45-20.92-7.28-29.2-14.88-5.25-4.81-6.2-10.57-2.74-17.35,2.73-5.38,4.25-11.39,6.3-17.12l-2.92-1.32c-2.47,4.25-4.82,8.58-7.45,12.72-2.35,3.69-4.61,7.59-7.63,10.68-8.64,8.83-15.4,8.92-24.8,1.29a52.19,52.19,0,0,0-9.89-6.35c-1.72-.85-4.79-1.19-6-.22s-1.27,3.89-1.45,6c-.1,1.15,1,2.48.78,3.53a59.25,59.25,0,0,1-2.52,7l-7.17-3.62a26.66,26.66,0,0,1-3.62,3.14,31.69,31.69,0,0,1-5,2.25c-.74-2.19-2.36-4.5-2.06-6.54.83-5.8,2.74-11.44,3.62-17.23.37-2.37,0-5.81-1.43-7.33-6.3-6.5-13.45-12.19-19.75-18.7-8.83-9.14-17.1-18.83-25.8-28.11-2.11-2.24-2.7-7.63-8-4.82Zm150.86,33.72-5.69,3.18c2,1.81,3.63,4.64,5.91,5.27,13.9,3.87,28,7,41.89,10.87,5.39,1.49,10.3,5.06,15.72,5.93,3.25.53,8.17-1.37,10.34-3.89,3.08-3.57.58-7.47-3.41-9.54-3-1.56-6.15-3.33-9.42-3.84C1618.6,890.64,1600.69,888.22,1581.11,885.44ZM1562.92,864l-1,.1c0,3.66-.49,7.41.17,11a11.23,11.23,0,0,0,4,6.14c1,.76,4.64.06,5-.86a11,11,0,0,0,.3-6.8c-3.08-11-1.92-15.11,6.83-22.33,1.12-.93,3.07-1.85,3.13-2.87.13-1.92-.73-5.58-1.37-5.62a96,96,0,0,0-16.61.21c-1,.1-2.27,3.48-2.2,5.3C1561.5,853.52,1562.33,858.77,1562.92,864Z"/><path d="M2954.22,602.8c-14.27-2.09-28.79-5-43.06-4.3-31.69,1.66-59.93,14.58-83.43,35.07-27.5,23.87-46,54.51-57.65,89.08-1.72,5.11-3.81,10.09-5.16,15.32-3,11.32-5.23,22.89-8.37,34.21-8.31,30.27-17,60.41-25.35,90.62l-.55,1.85L2723,891.78c-2.4,10.46-5.48,20.79-8.37,31.13-4.68,16.49-9.66,32.85-14.09,49.4-4.86,18.21-9.1,36.61-13.9,54.88a14.54,14.54,0,0,1-4.74,7.14c-3.69,2.89-3.57,6.15-3.81,10.27-.5,8.19-.31,17.6-4.31,24.06-3.63,5.9-5.48,11.13-5.54,17.41,0,7.5-1.78,13.66-7.56,14.89-1.42,6.4-1.79,11.5-3.63,16-3.76,9.17,0,28,7.38,34.89,1.54,1.47,2.58,3.5,4.06,5.6-4.74,1.41-9.35,1.47-11.69,3.75-4.68,4.61-1.85,16.61,3.57,20.49a11.37,11.37,0,0,1,3.69,5.72,67.69,67.69,0,0,1,2.46,13c.19,2.65-1,5.35-1.23,8.12-.55,5.54-1.42,11.2-1,16.74.13,1.47,4.8,4.18,6.53,3.63,4.92-1.54,6.76.86,8.48,4.43q7.2,14.94,14.28,29.9c.74,1.47,1.29,3.5,2.52,4.3,6.71,4,13.41,8.19,20.55,11.32,2.89,1.29,7.26.87,10.34-.37,4.12-1.72,7-1.35,9.78,1.85a22.64,22.64,0,0,0,3.63,3.69c4.67,3.88,17.16,6.09,18.7,2.89,8-16.12,17.23-31.93,22.64-48.91,5.6-17.41,1.11-35.93-.31-54-.12-1.79-1.53-3.57-2.64-5.11-17.91-24.67-17.35-51.25-7.63-78.44,4.61-12.86,8-26.33,17.72-36.73,2.64-2.83,5.23-5.85,7.87-8.74.74.13,1.54.31,2.28.43.55-13.47-10.4-25.65-3.82-40.36,2.83-6.33-.24-15.07,1.23-22.33.68-3.63,5.42-6.58,8.62-9.47,1-.93,3-.8,5.41-1.3-5.47-6.46-2.27-11.13,1.85-15.38,14.46-14.64,17.9-32.17,13.72-51.68-1.05-4.86,1.1-7.63,4.67-10.52,4.06-3.38,9.48-7.2,10.4-11.69,1.85-8.18,1.11-17,.86-25.53-.18-7,1.85-8.74,8.06-5.35,6,3.26,9.85,1,12.8-4.06s3-9.29-2.83-12.37c-4.12-2.15-4.86-5.29-3.14-9.9,1-2.59,1.05-6.59-.31-8.86-3.69-6.28-1.66-10.58,3.08-14.83,10.4-9.29,10.21-9.29,2.52-21.66-1.78-2.89-2.52-6.52-3.69-9.84l2-.92c1.78,1.17,3.44,3,5.35,3.38,3.14.62,8.18,1.72,9.35.19a22.2,22.2,0,0,0,4.31-12.37c.06-1.78-4.43-5-7.2-5.41-6.83-1.05-6.15-4.5-3.69-8.74,5.78-9.66,11.81-19.26,17.72-28.86,6.34-10.39,15-16.85,27.5-18.76,14.34-2.15,24.55-9.72,28.48-24.92,5.91-22.76,12.74-45.28,19.2-67.92C2963.51,608.9,2961.42,603.85,2954.22,602.8Zm-261.1,571.37a57.49,57.49,0,0,1-14.89-3.2c-2.34-.92-3.81-4.18-5.23-6.7-.19-.31,2.58-2.28,2.4-2.1,7.87,1,13.66,1.42,19.19,2.83,1.48.43,2.71,4.06,3,6.34C2697.67,1172.14,2694.53,1174.36,2693.12,1174.17Z"/><path d="M908.76,608.51c-22.1,0-44.22.26-66.31-.28-3.25-.08-8.12-3.26-9.24-6.17-2.13-5.5-2-13.41,4.13-15.62,17.25-6.19,19.57-20,19.86-35,.49-25.8.47-51.61.45-77.41,0-28.49-.26-57-.43-85.46-.09-16.44-3.9-31-18.75-40.93-6.18-4.16-5.11-9.31,1.3-13.2,10.5-6.36,20.56-13.54,31.47-19.09a178.2,178.2,0,0,1,30.68-11.93c11.22-3.27,22.85-5.21,34.37-7.35,6.85-1.28,10.32,1.8,10,8.85-.74,17.37-1.84,34.72-2.62,52.09-.08,1.72,1,3.5,1.5,5.25,1.77-.56,3.88-.68,5.26-1.75q42.87-33,85.56-66.21c3.85-3,7.14-2.94,11.45-.82,26.91,13.23,46.66,33.46,61.75,59.26,17,29,23.38,60.3,25.37,93.38,2.05,34.05-5.73,65.68-18.67,96.65s-33.81,56.27-54.28,82c-7.34,9.23-15.63,17.74-22.53,27.27-13.6,18.78-21.7,39.4-18.33,63.26.52,3.69,2.05,8.38-3.39,9.87-4.87,1.33-7.73-1.55-9.75-5.78-7.28-15.26-16.2-29.84-18.26-47.14-2.89-24.3-1.51-48,8.69-70.7,12.06-26.8,25-53.24,36.17-80.41a154.3,154.3,0,0,0,8.23-91.05c-5-24-19.18-43.51-44.08-51.18-14.37-4.43-28.51-.06-41.86,6.66-9.34,4.7-15.39,10.49-11.34,21.86a4.7,4.7,0,0,1,.08,1.46c-.15,31.66-.49,63.32-.38,95,.05,14.41.86,28.81,1.59,43.2.33,6.53.7,13.16,2.12,19.5,1.9,8.45,6,15.26,15.48,17.91,7,2,7.95,8.1,7.14,14.38-.85,6.64-4.87,9.87-11.58,9.86q-25.44,0-50.88,0Z"/><path d="M813.18,438.74c5,34.13-5.52,64.83-21.57,93.83-15.31,27.68-31.92,54.64-48,81.91-.37.63-.92,1.15-1.3,1.78-11.42,19.16-28.15,27.2-50.3,24.32a21.64,21.64,0,0,0-18.86,6.16c-5.36,5.19-11.86,5.85-19.19,3.53-16.14-5.12-29.13-15.11-41.72-25.78C581,597.93,558.4,564.56,540.92,528c-12.16-25.43-20.06-52.5-22-81.14-1.08-15.54-2.25-30.95,1.55-46.13,8.1-32.35,18.2-64.38,42.83-88.08,11.52-11.09,27.59-17.48,41.66-25.89,2.29-1.37,5.09-1.92,7.34-3.35,4.87-3.1,9.77-3.37,14.58-.38,9.13,5.67,17.89,4.34,27.36.4,4.79-2,11.43-3.19,16-1.45,14.77,5.65,30.15,4.82,44.22,1.63,25.92-5.89,43.82,5.09,58.42,23.39,17.68,22.16,28.49,48.08,34.17,75.79,3.77,18.4,5.93,37.12,8.81,55.7Zm-54.62,22.39c-1.3-7.67-2.47-18.67-5.12-29.31-5.62-22.54-17.33-40.07-41.61-45.92-7.94-1.91-13.73.93-14.46,9a27.72,27.72,0,0,0,4.18,16.3c5.4,8.48,6.23,11.3.73,18.92s-10.95,9.64-19,6.44c-26.12-10.33-49-45.8-39.69-72.64a134.06,134.06,0,0,0,5.05-17.59c.49-2.51-.14-6.06-1.71-7.89-1.22-1.42-5.19-2-7.09-1.1a52.23,52.23,0,0,0-27.08,28.06c-8.87,22.34-11.63,46.11-10.24,70.13a208.8,208.8,0,0,0,3.94,32.06c4,18.58,12.66,35.44,21.08,52.39a150.25,150.25,0,0,0,27.83,38.71c9.62,9.76,20.16,19.11,34.53,21.29,19.6,3,33.17-7.24,43.31-22.24C752.15,529.65,757.2,497.57,758.56,461.13Z"/><path d="M365.55,425.84c0-56.79.33-113.57-.2-170.35-.17-18.54-7.27-34.75-24.18-44.54-5.12-3-11.57-3.57-17.24-5.69-2.41-.9-6.22-3-6.16-4.46a10,10,0,0,1,4.39-7.1c10.22-5.82,20.64-11.32,31.25-16.37,8.36-4,17.1-7.16,25.68-10.66,2.49-1,5.36-1.44,7.5-2.92,13.89-9.59,29.59-10.68,45.73-10.51,19.16.2,38.34-.08,57.51.09,2.15,0,5.37,1,6.11,2.54s-.27,5.25-1.75,6.32c-17.12,12.43-21,31-22,50-1.16,23.78-.22,47.66-.34,71.5-.16,30.45-.74,60.9-.66,91.35.12,50.13.79,100.26.82,150.39,0,9.26-2.07,18.52-3,27.79-2.62,26.2-5.55,52.44-17.25,76.45-12.93,26.56-31.31,48-57.53,63.19-25,14.47-51.68,18-79.48,16.21-14-.91-26.55-7.14-36.69-17.15a29.5,29.5,0,0,1-8.92-21.14c-.27-11.67.25-22.29,8.88-32.07C289.22,626,304,623.19,317,633.77c4.76,3.86,8.82,8.62,13.76,12.2,13.37,9.69,25.37,4.86,29.31-11.18,5.08-20.72,5.53-41.78,5.46-62.95-.16-48.67,0-97.34,0-146Z"/><path d="M1417.43,547.45c1.54-.58,3.33-1.7,5.2-1.87a54.11,54.11,0,0,1,8,.38c-.54,3.21-1.05,6.41-1.65,9.6-.08.39-.79.6-1,1-2.62,4.22-13.35,1.18-10.73,6.65,5.19,10.8,3,25.86,16.82,32.1.89.4,2.24.61,2.58,1.3,1.28,2.65,3.33,5.64,2.92,8.15-.27,1.64-4.26,3.76-6.6,3.79-9.75.14-19.5-.47-29.25-.72-4.39-.12-7.39,1.31-8.5,6.25-.68,3-3.1,8.24-4.34,8.13-4.12-.38-10.41-1.68-11.67-4.5-5.23-11.71-14.94-9-24-9.15a24.38,24.38,0,0,0-2.92.4c-14.1,1.47-18.48-1.1-23.91-14-4.65-11.05-5.08-11-14.61-3.47-21.51,17.07-45.9,24.06-73.47,23.06-30.56-1.11-53.87-14.74-70.71-38.88-19.77-28.34-22.84-59.36-9.65-91.67,11.75-28.78,32.2-49.07,60.73-60.82,14-5.76,28.39-11.33,43.16-14.17s30.19-2.4,45.34-2.94c11.4-.4,12.77-1.72,12-12.85a106.28,106.28,0,0,1,.32-17.66c1.48-14.22-.74-28-5.08-41.37-5.36-16.52-26.54-20.37-38.76-6.35-9.45,10.86-17.13,23.27-25.42,35.12-6.52,9.3-13.66,17.56-23.55,23.89-12.59,8.07-24.34,7.69-36.38.33-15.68-9.59-24.87-23.65-31-41.12-5.73-16.24-1.65-32.69-4.75-48.76-.4-2.06,1.27-6.1,2.81-6.59,2.88-.91,7.52-1.17,9.42.53,18.65,16.8,40.08,14.45,61.84,9.55,18.17-4.1,36-10.06,54.37-12.78,21.92-3.24,44.23-3.06,64.45,8.37a220.49,220.49,0,0,1,28.69,18.83c18,14.28,24.89,34.55,28.63,56.4,5.22,30.55.93,61.26,2.1,91.87.58,15.13,1,30.27,1.44,45.41a69,69,0,0,1-.57,7.29c-.19,2.44-1.06,5.08-.41,7.27C1411.67,531.26,1414.52,538.93,1417.43,547.45ZM1290.2,562.13c6.38-1.48,13-2.26,19.08-4.6,12-4.64,12.55-6.07,12.39-19.08q-.08-6.26-.1-12.53-.21-43.42-.41-86.87c0-5.85-3-8.37-9.14-7-4,.93-7.94,2.59-12,3.61-19.39,4.88-33.66,17.7-42.33,34.16-10.21,19.37-15.27,40.57-6.33,63.14C1258.37,550.62,1270.78,560.92,1290.2,562.13Z"/><path d="M1488.51,1004.09l6.56-6.89c2.92,10.87,11,12.75,20.23,13.57,2.18.19,4.73,3.07,6,5.34,2.61,4.66,4.86,7.56,10.88,4.34,5.15-2.76,10.38-1.8,14.57,3,4.71,5.4,9.14,7.9,16,1.57,4-3.66,10.51-4.7,16.09-6.22.91-.24,4,3.18,4.06,5,.33,8.5-6.41,12.78-11.82,17.62-3.39,3-5,6-2.53,10.24s5.38,3.76,8.43-.07a67.45,67.45,0,0,1,11.25-10.69c1.51-1.19,4.74-1.92,6.24-1.12,9.25,5,18.63,9.86,27.08,16,3.49,2.54,5.88,3.82,9.66,2.11,4.86-2.22,8.1-.7,12.34,2.77,6,4.85,13.26,8.29,20.4,11.36,7.63,3.28,11.07,9.43,13.19,16.55,1.23,4.11-5.6,9.67-12.24,10.07-3.89.24-7.83-.5-11.75-.57-3.59-.07-7.22.53-10.77.18-3.17-.31-7.6-.56-9-2.57-1.65-2.35-1-6.61-.69-10,.34-3.58,1.48-7.09,2.27-10.63-3.58,1.53-7.26,2.89-10.7,4.7-1.43.75-2.5,2.35-3.47,3.76-3.34,4.85-7,5.26-11.85,1.85-2.09-1.47-5.28-1.55-8-1.76-.38,0-1.83,3.3-1.32,4.35,1.39,2.82,3,6.33,5.55,7.61,6.95,3.54,14.69,5.54,21.52,9.26,2.75,1.49,5.69,6,5.42,8.91-.46,5-5.54,4.78-9.48,3.94-5.79-1.24-12.28-1.75-16.94-4.86-3.48-2.32-4.53-8.27-7.33-13.94-3.2,2.7-6.78,5-9.47,8.16-3.28,3.78-6.67,4.27-11.11,2.73-10.52-3.64-21-7.54-31.73-10.38-8-2.12-16.33-2.65-24.48-4.1-2-.36-4.49-1-5.83-2.44-10.57-11.17-12.53-11.51-26.19-3.31-1.81-1.37-3.55-3.22-5.68-4.22-6.73-3.16-8.09-7.15-3.11-13.13,2.56-3.08,3.73-7.3-.65-9.3-1.54-.71-5.77,2.17-7.37,4.42-2.68,3.76-5.19,5-9.87,4-2-.42-6.15,1.79-6.88,3.71-2.14,5.73-5.16,5.15-8.88,2.32-2.12-1.61-3.57-4.17-5.76-5.62s-5.47-3.59-7.71-3.08c-13.28,3.08-24-4.59-35.64-8-1.55-.45-2.49-3.37-3.48-5.26-5.38-10.29-8.28-10.58-14.75-1.37-11.64-2.6-13.43-7.7-5.79-16.51.32-.37.68-.7,1-1.08,13.29-15.62,12.94-23.41-1.71-37.92-3.53-3.49-5.29-.94-7.51,1.83a48.67,48.67,0,0,1-9,9.22c-1.7,1.23-5.84,1.55-7.07.39-2-1.89-3-5.26-3.44-8.15-.37-2.68.61-5.55,1.19-9.69-3.33,1.16-5.53,1.49-7.23,2.59-10.55,6.84-14.4.54-18.08-8-1.25-2.9-2-6.12-3.78-8.64-.92-1.31-3.53-1.43-5.38-2.09.23,2,.14,4.12.82,5.94.46,1.24,2.42,1.88,3,3.11,1.19,2.58,2.93,5.51,2.62,8.08-.87,7.09,1.35,10.73,8.4,11.64,1.21.15,2.47,0,3.68.15,7.2.88,8.93,4.56,4.85,10.52-1.32,1.95-3,3.66-3.63,7.12,4.09-1.49,8.08-3.49,12.3-4.29,2.54-.48,6.86,0,7.9,1.64,3,4.74,10.26,8.29,6.16,15.83-6.14,11.28-12.51,13.16-24.14,8.44-7.9-3.22-16.09-6.33-24.44-7.68-17.89-2.89-32-13.12-47-21.92-6.33-3.73-12.61-7.57-19.17-10.85-10.63-5.29-14.08-11.85-10.92-23,2.4-8.49,5.62-16.76,7.69-25.32.62-2.56-1.42-5.75-2.24-8.66-2.38,1.86-5.6,3.26-7,5.69-2.11,3.76-2.29,8.64-4.56,12.24-1.37,2.18-5.13,3.71-7.86,3.78-1.19,0-3.14-4.21-3.64-6.73-2.14-10.76-3.45-21.69-5.88-32.38-1.82-8,2.19-13.57,5.69-19.79,4.48-8,10.26-15.65,8.33-25.77-.17-.89,0-2.54.43-2.74,6.79-2.92,6.42-8.18,4.83-13.93a1.85,1.85,0,0,1,.2-1.43c10.43-12.43,4.3-28.69,9.84-42.45,2.91-7.21,5.69-13.53,11.52-19.06,11.89-11.28,23.11-23.29,34.2-35.37,4.54-4.93,2.75-7.41-7.64-10.9.74-2.67,1-5.68,2.36-8,2.89-5,4.54-9.63,1.74-15.26-.71-1.42-.11-3.9.65-5.55,2.45-5.34,5.25-10.52,7.93-15.75,3.93-7.65,6.87-8.5,15.6-4.22-.69,1.49-1.09,3.24-2.12,4.46-4.57,5.43-3.19,9.85,1,15,2.66,3.29,3.28,8.16,5.2,12.14,1.59,3.3,3.06,8,5.79,9.11,4.49,1.83,11.22,3.29,14.66,1.14s4.88-8.81,5.46-13.7c.19-1.59-4.8-4.67-7.86-5.6-6.38-1.94-6.62-6.52-4.93-11,2.14-5.69,4.46-12.07,8.69-16,4.8-4.47,4.37-8.69,3.51-13.76-1.8-10.67-1.22-11.37,9.32-11.83,1.93-.09,3.82-1,5.74-1.06,2.73-.06,6.42-.65,8,.82s2,5.42,1.37,7.92c-2.27,9.3-2.53,9.41,7.35,11.06,4.41.74,5.51,3.09,4,6.71-5.46,13.49-7.67,28.35-17.77,39.94-2.11,2.42-1.35,7.3-2,11-.46,2.49-1.12,4.94-1.68,7.41-2.51-.59-5.17-.83-7.47-1.87-2.75-1.25-5.18-3.2-8.17-5.11-3,6-2,10.3,2.2,13.94s4.38,7.61,2.09,12.54c-1.26,2.71-1.35,6.1-1.43,9.19-.17,6.88.57,13.82-.18,20.61a32.94,32.94,0,0,1-4.58,12.94c-9.8,16.35-20.23,32.32-30,48.69-3.8,6.35-.61,14,6.36,16.74,6.18,2.38,8.51,6.22,6.32,12.61-2.37,6.94-4.45,14-7,20.85-2.92,7.71-1.27,13.81,6.46,16.86a302.37,302.37,0,0,0,32.07,10.46c2.74.74,6.3-1.54,8.92-2.27,6.48,5.11,12.76,10.8,19.81,15.28,2.88,1.83,7.58,1.9,11.19,1.26,18.06-3.18,31.34,5,43.06,17.25.65.69,1.49,1.74,1.4,2.53-1.14,10.45,7.45,11.71,14,14.95.87.44,1.8.78,2.7,1.19,13.74,6.23,13.74,6.23,21.23-7.62,3.69-6.81,9.28-7,13.51-.42C1483.87,996.77,1486,1000.14,1488.51,1004.09Zm73.63,55.56-1.65,1.33c-.74-1.78-1.13-3.86-2.31-5.28s-3.39-3.53-5-3.4-4.14,2.48-4.33,4.09c-.65,5.46-3.47,7.94-8.54,9.49-2,.62-4.39,3.78-4.45,5.84,0,1.59,3,4.08,5.12,4.78,5.56,1.81,11.63,2.19,17,4.38,5.91,2.42,10.33-.26,12.8-4.05,2-3.09,2.39-8.72.94-12.13C1570.62,1062.12,1565.49,1061.27,1562.14,1059.65Zm-273.2-228.6c.75-.74,3.3-2.12,3.91-4.09,1.32-4.28-7-15.23-11.27-16.46-3-.84-5.54-3-8.49-4a36.15,36.15,0,0,0-9.31-1.56c-.69,0-1.49,2.08-2.25,3.2,2.68,1.13,5.33,3.12,8,3.19,4.8.13,6.75,1.7,6.13,6.55C1274.54,826.85,1277.87,830.6,1288.94,831.05Zm-1.66-26.91c4.55-2.63,10.43-4.32,10.6-6.46.44-5.42-4.76-7.19-9.6-7.54-4.3-.31-8.48,1.35-7.88,6.15C1280.73,798.89,1284.45,801.07,1287.28,804.14Zm229,244.12c1.11,6.55,2.25,11.45,8.38,11,2-.15,5.14-3.08,5.24-4.88.29-5.43-2.76-9.55-8.44-9.89C1519.66,1044.33,1517.64,1047.23,1516.33,1048.26ZM1244,908.26c-4-3.37-7-6.82-7.73-6.39-3.43,2-6.24,5-9.28,7.73,1.91,1.85,4.24,5.52,5.62,5.19C1236,914,1239,911.34,1244,908.26Zm354.59,161c5.55-1.6,12.14,1,13.62-6.49.21-1.1-3.32-4.22-5.12-4.22C1601.23,1058.57,1597.75,1061.63,1598.63,1069.28ZM1328,973.45c4.44,3.22,7.15,5.57,10.27,7.13.65.33,2.76-2.23,4.2-3.46-2.34-2.73-4.46-5.72-7.19-8C1334.73,968.71,1331.84,971.12,1328,973.45Zm-72.37.53,3-.74c1.89-4,4.34-8.32-.49-11.94-1.17-.88-4.15.63-6.3,1Q1253.73,968.16,1255.63,974Zm164.95,68.7c-3.89-2.78-6.51-5.77-7.72-5.28-2.14.86-3.79,3.7-4.81,6.07-.27.62,2.74,3.81,3.91,3.63C1414.35,1046.75,1416.52,1044.9,1420.58,1042.68Z"/><path d="M1487.13,118c11.43-2.39,18-10.31,24.83-17.52,1.47-1.55.76-5.18,1-7.85-2.34.78-5.35.89-6.87,2.46-5.26,5.42-9.27,12.23-18.61,11.46-1.06-.09-2.55,5.11-4.67,9.61a57,57,0,0,1-7.06,1.35,56.42,56.42,0,0,1-7.68-.2c.36-2.78.32-5.69,1.19-8.29.67-2,2.79-3.44,3.69-5.4,1.08-2.32,2.53-5.13,2.09-7.38-1.57-7.89.92-12.42,8.91-12.07,8.69.38,11.47-3,10.68-11.2-.48-5.06,1.84-8.53,7.78-8.26,1.27.06,2.59-.86,4.7-1.63a44.07,44.07,0,0,0-3.12-5.26c-3-3.74-2.35-6.92.44-10.58,2.16-2.83,4.51-6.25,4.84-9.6.83-8.33,5.84-14,11.16-19.34,1.61-1.63,5.57-2.38,7.83-1.63,5,1.63,8.39.28,12-2.91A109.58,109.58,0,0,1,1553.28,4C1560-.29,1563.87.5,1569,6.56c3.5,4.15,6.4,4.9,9.52-.59,4.39-7.71,8.4-7.81,13.88-1.11A168.16,168.16,0,0,0,1605.84,20c.93.89,4.83-.11,6.47-1.38,4.12-3.2,7.46-9.57,11.61-10,5.47-.59,11.42,3.27,17.16,5.22s11.56,3.83,17.27,5.95c6.8,2.53,13.34,6,20.32,7.74,8,2,16.29,2.6,24.47,3.7,2.14.29,4.47-.26,6.49.33,11.28,3.3,22.59,6.55,33.68,10.42a83.53,83.53,0,0,1,17.9,8.45c5.4,3.5,2.21,8.29-.33,12.17-1.3,2-4,3.16-5.09,5.21-.87,1.56-.32,3.92-.41,5.92,2.18-.18,5.25.49,6.36-.69a119.5,119.5,0,0,0,11.9-14.74c2.5-3.66,5-5.58,9-2.76,3.45,2.47,3.74,5.52.59,8.68-3.85,3.88-2,6.92,1.38,9.93,7.79,7,16,10.22,25.77,3.71,5.47-3.63,9.83-3.67,15.45,1.7,5.25,5,13.37,7,19.8,10.94,3.17,2,6.78,5.18,7.48,8.42.41,1.89-4.16,5.6-7.17,7.3-4.56,2.57-5.67,5.42-3.84,10.23,2.32,6.13,4.13,12.46,6.34,19.27,7.45-.07,10.53-4.42,7-12.18-4.59-10.24-1.75-16.45,8.91-19.49a2.73,2.73,0,0,1,.7-.23l13.52-.36c-1.11,3.81-2.46,7.57-3.24,11.46-.44,2.19-.84,5.58.35,6.64,1.62,1.43,5.25,2.25,7.16,1.41,4.73-2.11,8.62-2.44,13,.86,1.25.95,4.35.55,6-.33,9.29-4.93,16.91-1.06,19.36,9.44.81,3.49,3.3,6.77,5.68,9.59.61.73,3.7-.63,5.64-1-.51-1.64-.7-3.51-1.63-4.86s-2.93-1.95-3.91-3.29c-1.34-1.84-3-4.1-2.9-6.1.07-1.17,3.41-3.22,5.05-3,2.31.28,5.92,1.89,6.37,3.6,3.8,14.63,19.12,19.2,26.25,30.79a.87.87,0,0,0,.6.4c13.44.56,14.71,12.91,20.46,21,2.11,2.94,5.1,5.27,7.06,8.29,1.31,2,2.41,5,1.89,7.13-.34,1.33-3.86,1.9-6,2.74-4.76,1.88-9.53,3.72-14.59,5.69.25.3-.37-.15-.3-.41,2.64-10,2.52-9.77-6.91-14.46-2-1-3.18-4.65-3.59-7.26-.3-1.92,1.77-4.1,1.87-6.21.08-1.65-1.23-3.36-1.92-5-1.43.73-3.57,1.09-4.17,2.25-3.2,6.13-6.94,6.36-12.51,2.75-1.71-1.11-6.34-.28-7.85,1.34a20.45,20.45,0,0,1-21.75,5.15,22.66,22.66,0,0,0-11.06-1c-5.43.84-9.15-.26-11.17-5.62-1.81-4.82-3.54-9.68-5.66-14.36a24.89,24.89,0,0,0-5-7.88c-1.51-1.44-5-2.67-6.42-1.86-1.8,1.05-3.11,4.16-3.3,6.49-.67,8-4.52,13.23-11.61,14.78-6.73,1.46-18.06-4.92-20.26-11.52-1.65-5-4.33-6.88-9.41-4.09-7.35,4-9.92,3.54-14.23-3.72-3.63-6.12-6.64-9.57-13.15-2.73-3.39,3.56-8.43.75-8.75-4.3a12.92,12.92,0,0,1,.44-3.64c.88-3.77,3.09-8.68-2.18-9.83-2.25-.49-5.61,4-8.42,6.27s-5.34,5.87-8.61,6.9c-5.4,1.72-8.72-.86-9.06-7.14a46.16,46.16,0,0,0-2.71-13.53c-2.44-6.5-6.9-7.06-11.77-2.09-8.8,9-9.74,8.91-18.29-.44a19,19,0,0,0-4.41-3.86,79.47,79.47,0,0,0-7.81-3.51c-.86,2.6-2.1,5.14-2.49,7.81-.84,5.81-4.12,8.06-9.06,5a34.86,34.86,0,0,1-8.94-8.58c-3.53-4.65-7.29-5.72-12.79-3.64-5.7,2.17-11.77,3.36-17.65,5.1-4.66,1.39-7.09-.15-8.9-4.79-3-7.61-4.91-7.68-11.81-4.24-2.64,1.32-6.58,1.15-9.61.4-11.33-2.8-22.47-6.4-33.81-9.14-6.17-1.49-9-5-6.4-11.23,3-7.33,4.86-15.18,12.18-20.5,2.75-2,3.53-8.25,3.12-12.36-.19-2-5.19-3.49-8.64-5.59-1.89,15.2-1.92,15.17-12.09,25.77a30.73,30.73,0,0,0-5.47,6.89c-2.67,5.26-6,8.44-12.52,8.32-2.43,0-5.29,2.33-7.31,4.28a70.85,70.85,0,0,0-8.47,10c-1.33,1.87-2.85,4.6-2.42,6.54,1.95,8.92-3.94,12.14-10.37,12.89-14,1.65-17.38,11-19.64,22.62-1.81,9.34-4.68,18.32-13.55,24.42-7.21,5-5.42,19,1.79,24.55,1.84,1.42,3.56,5.25,2.91,7.12-.87,2.46-3.89,4.8-6.51,5.72-1.14.4-4.33-2.51-5.28-4.53-4.82-10.18-12.91-17-21.94-23.16a18.17,18.17,0,0,1-6.73-8.06c-2.29-6.34.6-10.4,7.36-10,7.08.37,12.29-2.55,17.31-6.73,3.13-2.61,6.22-5.23,3.68-9.88-2.29-4.16-5.56-5.22-10.47-4.69a31.35,31.35,0,0,1-14.06-1.86c-5.66-2.18-6.76-11.56-1.68-13.79C1486.6,127.34,1488.11,123.78,1487.13,118Zm314.46-6.19c0,.73-.64,3,.15,4.58,1.17,2.36,3.06,5.55,5.14,6,3.27.67,7-.65,10.48-1.12-.47-2.7-.29-5.76-1.55-8-3.21-5.68-2-9.72,3.29-13,5-3.11,5.88-7.75,3.81-12.78-.49-1.2-4.47-2.41-4.78-2C1811.91,93.35,1800,97.65,1801.59,111.81ZM1535.92,78.52c-.55-7.19-2.36-12.25-.9-16,2.38-6.16,8.34-2.56,13-2.44,1.37,0,3.67-1.15,3.92-2.18s-.9-3.17-2-4.13c-6-5.19-10.94-5.26-20.54,3.05-3.86,3.34-5.33,10.44-5.8,16C1523.42,74.25,1531.08,76.37,1535.92,78.52ZM1680.6,54c-1.21,1.09-3.19,2-3.4,3.28-.34,2-.2,4.74,1,6.06a165.83,165.83,0,0,0,14.1,13.83c1.12,1,4.08,1.24,5.19.44s1.51-4,.74-5c-4.16-5.69-8.72-11.09-13.31-16.44C1684.05,55.15,1682.37,54.85,1680.6,54ZM1540.28,79.19c-.33,3.35-1.51,6.92-.74,10,.7,2.84,3.16,6.69,5.5,7.23,2.14.48,6.32-2.29,7.55-4.68C1556.25,84.63,1551.79,80.28,1540.28,79.19Zm105.17-6.76,8.89-9.13c-2.06-1.57-4.48-4.74-6.09-4.37-2.94.68-5.78,3.14-7.79,5.57C1640,65.08,1642.9,68.48,1645.45,72.43Zm-124,61.84c-4.4-1.73-6.61-3.28-8.76-3.2-1.48.05-2.89,2.35-4.34,3.64,2.06,1.28,4,3.18,6.21,3.6C1516,138.57,1517.78,136.56,1521.5,134.27Zm78-79.38.67-4.44c-3.38-.23-6.76-.52-10.14-.56-.21,0-.43,2-.65,3.08Z"/><path d="M3111.86,530.37c.24-4.21.21-5.91.46-7.56,1-6.61-1.62-11.59-7.11-15s-10-.66-14.12,2.7c-7.34,6-14.47,8.6-24,3.81-6.63-3.32-14.83-3.37-21.87-6.06a69.12,69.12,0,0,1-17.06-9.74c-4.2-3.23-3.25-10.42,1.61-13.38,5.83-3.54,11.94-7.53,18.42-8.8,6-1.19,13,.06,19,1.88,4.81,1.45,9,3.93,13.86.82a3,3,0,0,1,2.07-.62c10,3.37,14.89-2.38,19.43-10,2.2-3.69,6-4.18,10.39-2.05,2.21,1.08,5.49.15,8.25-.15,8.6-.93,17.17-2.27,25.78-2.76,1.63-.09,3.59,2.91,5.13,4.71,2.06,2.41,3.64,5.26,5.82,7.54,9.66,10.14,15.66,10.43,26.65,1.55,9.09-7.34,9-7,18.15.89,4.71,4.1,8.72,7.52,9.47,14.61.64,6,7.08,6.74,12.37,6.86,2.14.06,4.32-1.22,6.46-1.15,2,.06,3.88,1.11,5.82,1.72-.78,1.82-1.18,4-2.41,5.39-2.85,3.35-6.22,6.25-9.14,9.55-3.43,3.88-5.39,8.13-2.81,13.45,2.73,5.62,5.91,10.18,13.21,9.66,2.09-.15,4.34.65,6.39,1.39,8.64,3.1,12.71,1.77,16.24-6.89,2.15-5.28,5.44-6.84,10.78-8.16,12.34-3,24.28-7.68,36.52-11.19,3.54-1,9.87-1.8,10.9-.17,2.73,4.34.1,8.58-4.29,11.68-6.89,4.87-7.12,8.36-.33,13.66,4,3.1,8.86,5.22,13.63,7,1.38.51,4.37-1.25,5.59-2.79,2.25-2.84,3.39-6.56,5.62-9.43,8.09-10.38,5.87-20.46-5.79-26.75-2.06-1.12-3.26-3.84-4.85-5.82,2.59,0,5.25-.43,7.76,0a39.52,39.52,0,0,1,9,2.85c2.51,1.12,5.71,2.32,6.91,4.43,3.46,6.12,7.81,6.59,12.67,2.68,4-3.21,7.14-3.19,11.14-.27,1.58,1.15,4.6,1.84,6.25,1.12,12.23-5.37,23.12,1.22,34.21,3.91,20.93,5.08,41.65,11.11,62.31,17.24,6.23,1.85,12.06,5.17,17.9,8.17,5.43,2.79,10.42,6.53,16,8.81,1.84.74,5.1-1.63,7.55-2.88,1.54-.79,3-3.22,4.11-3,1.51.31,3.64,2.38,3.75,3.82.5,6.68,4.56,6.46,9.69,6.56,3.77.06,7.54,2.21,11.23,3.64,1.56.61,2.81,2.32,4.36,2.58,9.58,1.63,19.17,3.8,28.83,4.23,12.4.55,21.35,6.41,28.74,15.47,1.32,1.62,1.29,4.34,1.88,6.55-2.25.6-4.86,2.23-6.69,1.61-6.46-2.22-9.54-.93-11.78,6.12-2.45,7.71-18.06,8.77-23.44,2.88-2-2.19-5.95-2.72-9.11-3.71s-6.65-1-9.51-2.47c-4.39-2.22-7.72-2.13-9.44,2.78-3.3,9.43-11.69,11.83-19.69,14.85-1.82.68-4,.69-5.57,1.68-1.25.8-2.84,3-2.51,3.92.52,1.49,2.46,2.56,3.94,3.61.5.36,1.43.15,2.17.18,12.44.58,16.14,3.48,19.84,15.57,2,6.53-.3,10.88-7.17,11.48-4.24.38-8.74-.75-13-1.84-7.11-1.85-14-4.41-21.14-6.28-6.38-1.68-8.67-6.21-10.56-12-1.06-3.24-3.78-7.17-6.66-8.16-2-.68-6,2.67-8.24,5.06-4.88,5.3-18.72,5.17-25.5-1.91-5-5.28-9.21-8.3-16.11-3.61-1.26.85-3.83.15-5.67-.31-11.37-2.86-22.7-5.91-34.07-8.78-4.59-1.16-6.66-3.51-5.65-8.51.43-2.13-.43-4.52-.7-6.79-2.08.92-4.52,1.41-6.18,2.83-6.5,5.55-10,5.42-15.14-1.22-3.74-4.83-7.15-9.93-11.12-14.57-1.39-1.61-3.91-2.59-6.08-3-.75-.14-3,2.41-2.82,3.5a14.88,14.88,0,0,0,2.85,6.26c.77,1.07,2.94,1.16,3.67,2.24,1,1.39,1.08,3.33,1.57,5-1.57.14-3.64,1-4.62.32-9.85-6.94-22.09-5.25-32.73-9.25-4.33-1.63-9-2.48-13.4-3.82-8.45-2.52-16.85-5.2-25.3-7.71-15-4.45-30-9-45.14-13.16-11.55-3.19-23.36-5.52-34.83-9-8-2.4-15.73-5.92-18.46-15.19-1.25-4.23-4.19-5-7.15-2-8,8.29-16.88,8.44-26,2.61a18,18,0,0,1-6.77-8.53c-1.8-5.08-4-6.06-8.7-3.75S3118.18,527.81,3111.86,530.37Zm380,69.48c1-1.68,1.67-4.61,3.41-5.46s4.44.29,6.51,1.13c1.51.61,2.48,2.55,4,3.15a6.07,6.07,0,0,0,4.63-.12c.76-.41,1-2.67.72-3.92-1.23-5.42-2.22-11-4.34-16.06-1.17-2.8-4.06-5.94-6.79-6.69-1.95-.54-5.23,2.3-7.38,4.22a109.68,109.68,0,0,0-11.18,11.43c-1.4,1.67-2.7,4.71-2.13,6.52a98.79,98.79,0,0,0,7,16.65c1.09,2.07,3.91,3.24,5.94,4.82.86-2.42,2.44-4.86,2.41-7.28S3493,603.16,3491.83,599.85ZM3178.05,494.7c-.72,2.39-2.54,5.28-2.11,7.79.5,2.92,2.6,5.84,4.69,8.14,1.82,2,5.72,4.93,6.74,4.3,3.93-2.43,7.11-6.09,10.41-9.44.27-.27-.36-2.19-1-2.48C3191.2,500.39,3185.49,498,3178.05,494.7ZM3462.33,591c.62-6.14-2.69-8.13-8-7.28-4.1.65-11.8-2.22-10.92,4.26.62,4.5,7.07,9.87,12.06,11.67C3460.64,601.54,3462.06,595.62,3462.33,591Zm-51.46-14.6-5.59-7c-2.84,3.28-6,6.38-8.22,10-.34.55,3.37,3.61,5.2,5.52Z"/><path d="M3040.87,874.68c-2-.44-5-.7-7.64-1.79-7.58-3.07-14.9-4.65-22.61-.07-1.59.94-4.82.25-6.76-.74-5.45-2.8-10.59-6.2-15.91-9.28-4.8-2.78-9.6-5.59-14.53-8.14-4.25-2.2-6.24-5-5-10.07q2.76-11.75,4.68-23.69c2.5-15.47,5.64-30.91,6.82-46.49,1.26-16.66,0-33.45-7.26-49-3.85-8.25-11.38-12.65-19.51-15.93-10.06-4.06-10.58-6.81-7-16.74,4-11.25,6.45-23.09,9.79-34.61,4-13.87,8.1-27.71,12.45-41.47,2.17-6.86,7.61-9.12,13.87-5.45,19.24,11.27,38.15,23.11,57.43,34.32,9.95,5.78,20.26,11,30.69,15.87,6.75,3.15,8.9,6.29,7.14,13.78-4.57,19.48,8.22,49.23,25.41,59.08,6.34,3.64,6.72,10,.08,13.81-5.84,3.36-6.66,6.84-3.76,12.57,2.69,5.33,1.5,10.07-4.25,13-5.53,2.8-6.4,6.31-3.27,12,1.34,2.44,1,8.36-.73,9.52-12.77,8.6-11.57,23.09-15.75,35.21-4.46,12.95-8.07,26.21-12.77,39.07-.72,2-5.22,2.94-8.15,3.6C3050.24,873.91,3046,874.08,3040.87,874.68Z"/><path d="M1751.78,413.35c-2.64-10.92-5.59-27.88-11.21-43.91-2.06-5.9-10-10.34-16-14.09-8-4.94-14.77-21.13-11.9-30,5.74-17.7,11-35.54,16.51-53.32a71.52,71.52,0,0,1,2.11-7c4.68-10.88,10.15-13.44,21.58-10.5,28.91,7.45,55.27,20,78.73,38.63a89.78,89.78,0,0,0,13.61,8.74c4.3,2.28,4.79,5.28,4.27,9.74a32.36,32.36,0,0,0,1.27,11.73c4.07,15.09,10.47,29.87,12.18,45.19,1.87,16.62-.12,33.74-1.21,50.59-.65,9.9-3.58,19.27-11.71,26.21-6.35,5.43-12.46,7.41-21.43,5.51-12.61-2.65-25.86-2.15-38.8-3.35a155.29,155.29,0,0,1-20.36-3.17C1755.23,441.06,1750.68,434.44,1751.78,413.35Z"/><path d="M3571.45,677.69c4.15-7.4,8.13-13.56,11-20.21.8-1.86-1.73-5.14-2.73-7.77-1.94,1.28-4.82,2.12-5.63,3.91-1.69,3.71-2.69,8-7.84,6.78-2.44-.58-5.4-2.67-6.41-4.87-2.16-4.7,1.87-6.93,5.18-9.17a11,11,0,0,0,1.8-1.92c-2.72-3.15-7.2-6-7.25-9-.06-3.42,3.77-6.91,7.33-12.64-5.43.67-8.71,1.18-12,1.45s-9,1.49-9.64.19a17.51,17.51,0,0,1-1.38-11.59c.68-2.81,3.82-5.69,6.6-7.2,5-2.72,18.84.72,22.83,4.92,3.57,3.76,3.2,5.81-3.66,15.45,5.56,3,10.69,6.8,16.44,8.6,4.17,1.3,6.77,2.19,8,6.86,1.66,6.16,4.72,6.48,9.59,2.45,2.25-1.85,5.26-4,7.91-4,10,.09,17.68-7,17.41-17-.19-7.37,3.26-10,9.39-5.86,3.61,2.44,6.52,7.23,7.78,11.53,2.26,7.7,3,15.83,4.46,23.76,1,5.23-.69,8.15-6.09,9.8a60.65,60.65,0,0,0-15.71,7.25c-2.42,1.61-3.37,5.56-4.73,8.58-.79,1.75-.61,4.05-1.64,5.58-4,5.89-7,11.71-3.46,19,.6,1.23,0,3.59-.88,4.92-4.57,7.1-1.51,13.14,2.36,19.08,1.47,2.26,3.31,4.28,4.8,6.53,6.28,9.51,6.19,16.48-.67,25.62-5.59,7.44-10.48,14.68-6.37,24.84.89,2.2-1.52,5.76-2.47,8.68-1.45,4.45-3.27,8.81-4.34,13.35-1.66,7-2.08,14.35-4.36,21.1-3.35,9.9-7.84,19.41-11.91,29.06-1.92,4.58-4.72,6-9.95,4.27-2.47-.84-6.93.45-8.83,2.39a35.68,35.68,0,0,1-23.28,11.13c-7.56.69-9.63,5.24-5.34,11.54,1,1.41,2.82,2.62,3,4.08.26,2.2.12,5.22-1.2,6.62s-4.64,1.85-6.37,1.09a85.07,85.07,0,0,1-12.57-7.38c-1-.67-2.15-2.58-1.87-3.52,1.82-6.16,0-14.08,8.81-17.07,1.89-.64,2.78-5.14,3.51-8,.87-3.48.85-7.17,1.63-10.68,1.8-8.14,9.25-15.42,2.92-24.84-1.14-1.7.37-5.68,1.44-8.29,1.76-4.28,1.31-6.8-3.5-8.46-1.79-.61-3.64-3.09-4.12-5a139.83,139.83,0,0,1-3.11-18.07,21.41,21.41,0,0,1,1-9.24c3.49-9.68,7.42-19.2,11.18-28.78,1.21-3.06,2.87-6.89-2.31-7.17-8.73-.47-7.88-6-6.49-11.42,4.42-17.14,9.27-34.17,13.83-51.27,2.52-9.45,5.49-10.45,13-4.1C3568.33,675.12,3570.17,676.63,3571.45,677.69Zm27,130.74c-3.11-3.75-5.09-6.12-7.06-8.49-2.54,3.32-5.6,6.42-7.26,10.13-.44,1,4.23,5.91,5.17,5.54C3592.35,814.41,3594.72,811.58,3598.47,808.43Zm-24.58,17.7c-3.87-2.82-6.21-5-8.95-6.2-.62-.28-2.64,2.51-4,3.89,2.26,2.21,4.34,4.68,6.91,6.41C3568.4,830.61,3570.74,828.33,3573.89,826.13Z"/><path d="M2975.62,1162.63c-3,11.33-5.46,21.52-8.45,31.56-.5,1.69-2.94,3.22-4.83,4-8.32,3.48-11.35,8.9-11.72,18.06a123.37,123.37,0,0,1-3.47,25.11c-1.31,5.12-5.8,7.61-11.91,8-3.68.24-9,3.16-10.33,6.25-3.84,9.27-6.32,19.15-8.76,28.94a64,64,0,0,0-1.71,15.32c0,5.86-3.13,8.18-8.17,8-4.17-.11-10.16.11-12-2.34-3.34-4.35.59-8.67,3.77-12.82,2.2-2.87,2.58-7.59,2.47-11.45,0-1-5-2.24-7.84-2.58-6.48-.8-5.22-5.59-3.92-8.81s4.5-5.53,7-8.1c4.3-4.38,3.75-7.81-2-9.73-4.78-1.59-10.21-4.43-8-9.33,2.32-5.25,8.09-9,12.36-13.36,1.74,1.73,3.44,3.51,5.23,5.19,2.07,2,4,4.84,6.42,5.33,1.44.3,5.34-3.39,5.16-4.93-.29-2.54-2.64-5.22-4.79-7.08-7.69-6.64-15.72-12.89-23.5-19.43-2-1.72-3.41-4.31-5.55-5.85-3.7-2.65-5.82-5-2.19-9.44,3.45-4.21,7.25-6.1,12-2.87,2.6,1.76,4.54,4.47,6.94,6.56,2,1.76,4.06,4,6.46,4.66s5.4-.42,8.13-.74c-1.1-2.24-1.62-5.2-3.38-6.59-5.92-4.65-9.43-9.57-6.85-17.68.65-2-1.55-5.46-3.24-7.64-5.33-6.91-5.11-9,1.35-14.29,1.44-1.19,2.69-4.4,2.1-6-1.94-5.13-.44-7.64,4.44-9.65,2.22-.92,3.69-3.68,5.5-5.61-2.62-.83-5.36-2.63-7.83-2.31-7.06.92-13.94,3-20.65-1.54-5.32-3.59-5.31-6.14-1.58-11.15a52.13,52.13,0,0,0,7.26-14.75c2.58-7.91,4.23-16.12,6.36-24.18,1.42-5.39,5.05-6.86,10.17-5.39,8.84,2.53,17.68,5,26.51,7.59,5.88,1.72,7.4,6.72,3.73,12.09-5.87,8.61-2.87,16.29,6.69,20.45,9.27,4,16.7,10.64,18.91,21.21,1.47,7,6.89,5.12,11.12,5,.77,0,1.79-4.86,1.93-7.51.38-6.92.33-13.86.47-21.4-5.32,1.14-13.23,4.54-17.81-2.9-3.12-5.09-3.9-11.6-5.75-17.54,5.55-1.31,9.27-2.36,13.06-3.06,6.85-1.27,11.45-3.86,9.93-12.23-.34-1.92,2-4.66,3.65-6.43.63-.66,4.06-.1,4.41.7.89,2,1.66,4.88.88,6.73-1.93,4.57-1.78,8.3,1.26,12.35,1.18,1.55.61,4.31,1.39,6.3s2.27,5.35,3.43,5.34c2.15,0,5.37-1.53,6.21-3.32,2.09-4.51,4.82-7.15,9.91-7.38,7.71-.36,12.17,6,9.19,13.23-1.67,4-2.43,8.72-5,12.11-3.29,4.4-7.92,7.81-11.52,11.2-2.15-1.18-2.58-1.39-3-1.65-2.67-1.64-5.33-3.3-8-5-.52,3.19-1.1,6.36-1.55,9.56s.23,8.35-1.28,9.06c-6.56,3.08-10,8.78-14.55,13.67-2.69,2.87-6.72.49-9-3.25-1.11-1.81-3.08-4.08-4.8-4.21-1.4-.1-4,2.53-4.27,4.26-.41,2.23.11,6,1.6,7,4.45,2.77,9.5,4.65,14.46,6.49C2970,1163.16,2972.13,1162.63,2975.62,1162.63Z"/><path d="M2856.85,1194.33c0,6.61.66,13.3-.13,19.81-1.73,14.24,0,16.8,14.11,17.11.3,6.58.07,12.33-8.06,14.75-6.77,2-8.68,1.33-9.95-5.92-1.36-7.78-5.64-9.67-12-4.76-3.12,2.4-5.53,4.13-9.81,2.5-1.85-.7-4.69,1.2-7.08,1.92.56,1.75.65,4.54,1.76,5a14.08,14.08,0,0,0,7.26.62c2.32-.3,5.14-2.79,6.67-2.06a79.47,79.47,0,0,1,15.32,9.54c.93.74-.3,5-1.37,7.29-2.4,5.09-5.43,9.88-7.93,14.93a4.35,4.35,0,0,0,.32,4,4,4,0,0,0,3.89.44c4.58-3,8.92-4.65,14-.8.76.58,2.9-.65,6.55-1.6-3.25-1.92-4.8-3.64-6.17-3.51-5.26.51-6.27-2.35-6.35-6.62s.51-7.93,5.79-8.57c4.67-.56,6.51-3.37,7.09-7.94.27-2.1,2.46-4,3.77-5.93,1.31,2.13,4.22,4.92,3.66,6.28-4.57,11.12.5,21.83.73,32.69.15,6.72-1.61,10.82-9.62,11.85-7.17.92-14.35,3.74-20.87,7-3.19,1.61-4.89,6.18-7.77,10.08.52-.14,0,.21-.38.08-19.24-6.28-38.44-12.67-57.7-18.87-3.82-1.23-5.86-3.18-5.39-7.35.43-3.87.2-7.89,1.19-11.6,4.85-18.22,10.54-36.23,14.84-54.57,2.13-9.1,10.31-11.29,15.52-16.79.46-.49,3.57,1.24,5.25,2.27,4.76,2.94,9.41,6.06,14.13,9.07.61.39,1.58.92,2,.69,5.89-2.91,11.13-.22,16.8,1.12,4.67,1.1,5.82-3,5.73-7.28-.12-5,.18-10,.29-15Z"/><path d="M669.46,209c3-2.67,6.18-5.14,8.93-8,6.3-6.64,13.26-11.64,23-11.41,10.09.23,16.08,8.25,12.13,17.54A102,102,0,0,1,702,227.61c-8.23,11.14-15.11,22.28-12.58,37.09.53,3.08-.7,6.93-2.27,9.8-3,5.46-9.5,5.69-12.31.21a58,58,0,0,1-5-15.9c-1.06-5.75-.95-11.71-1.53-17.57s-4.1-7.72-10-8.27c-11.39-1-22.91-2.36-33.92-5.3-10.66-2.86-16.19-11-16.94-22.46-.62-9.53-2.11-19-3.55-28.49-1-6.48.92-10.71,6.31-15.05,7.11-5.69,14.46-10.67,23.23-7.84A62.57,62.57,0,0,1,654.69,166c5.78,5,10.25,11.9,14.07,18.65,1.59,2.8.21,7.42-.21,11.17s-1.36,7.72-2.06,11.58Zm-30.86,2.44c5.51.81,12.33,2,11.52-6.31a116.15,116.15,0,0,0-6.44-27c-1.32-3.72-5.45-7-9.07-9.17-2.25-1.36-6.72-1.45-8.78,0s-2.77,5.38-2.68,8.2c.22,6.82,1.41,13.61,1.94,20.43C626.08,210.1,626.44,210.56,638.6,211.47Z"/><path d="M1664,1114.59c7.41-3.34,12.72-6.88,18.45-7.8,2.54-.41,5.94,4.45,8.1,6.23-4.85,6.69-8.66,11.92-12.44,17.17-2.92,4.06-5.55,5.19-11,2.73-5.68-2.57-12.71-2.1-19.11-3.22a96.59,96.59,0,0,1-9.34-2.59c1.12-3.28,1.47-7.2,3.52-9.74C1647.81,1110.41,1656.15,1110.13,1664,1114.59Z"/><path d="M1351.45,646c7-6.79,13-13.26,19.84-18.71,2-1.61,6.36-.33,9.64-.38-.23,2.63.4,5.8-.85,7.77A137.79,137.79,0,0,1,1367,652.13c-1.26,1.42-5.26,1.67-7.29.8C1356.9,651.76,1354.83,649,1351.45,646Z"/><path d="M2922.23,472.06c-6.13-.1-18.06-9.13-19.37-13.75-1.09-3.87.22-6.87,4.52-5.93a140.09,140.09,0,0,1,21.7,6.31c4.84,1.91,4.74,8.54.13,11.13C2926.73,471.2,2923.71,471.61,2922.23,472.06Z"/><path d="M2886.72,1148.81c.18,8.73-6.28,17.84-10.93,17.21-7.22-1-5.64-7.55-6.22-12.17-.74-5.78,3.95-10.92,9.62-10C2882.36,1144.3,2885.09,1147.66,2886.72,1148.81Z"/><path d="M1920.55,896.58c.24,8-4.46,13.66-9.32,13.71-5,.06-9.27-5-9.49-11.13-.2-6,3.15-8.32,8.64-8.5C1916.22,890.47,1920.66,892,1920.55,896.58Z"/><path d="M3536.13,825.5c3.95,2.06,4.62,5.65,2.74,10.12-.57,1.34-1.11,2.71-1.59,4.09-3.93,11.31-3.92,11.31-14.61,6.22-6-2.85-6.25-4.94-.92-9.28C3526.18,833.05,3530.77,829.64,3536.13,825.5Z"/><path d="M1295.29,698.34c-4.17-.23-6.88-6.94-3.41-10.27,4.63-4.44,10.31-7.83,15.73-11.4.84-.55,3.47,0,3.84.69.78,1.57,1.51,4.43.7,5.32-4.91,5.34-10.26,10.29-15.5,15.34C1296.36,698.3,1295.75,698.25,1295.29,698.34Z"/><path d="M3272.71,774.77c-.15,6-5.09,11.48-9.52,11.41s-9.24-5.6-8.55-10.23c.81-5.46,4.13-8.89,10-8.8C3270,767.24,3272.22,770.74,3272.71,774.77Z"/><path d="M2866.81,442.17c.59.52,3.66,1.89,4,3.76,1,5.5-5.3,11.85-11.41,12-4.84.1-8-2.57-8.43-7.39C2850.54,446.09,2857,442.31,2866.81,442.17Z"/><path d="M2865.7,1180.82c4.3-5,6.74-10.34,10.47-11.47a7.91,7.91,0,0,1,9.86,7.3c.24,4.23-7.26,9.93-12.52,9.38C2871.43,1185.81,2869.57,1183.5,2865.7,1180.82Z"/><path d="M1891.17,389.69c-1.37,1-3.48,3.47-6,4-4.24.83-12.28-7.93-11.3-12.4.4-1.83,3.35-4.16,5.35-4.39C1884.46,376.29,1891.3,383,1891.17,389.69Z"/><path d="M2708.69,399.43c8.7-.12,14.77,4.18,13.91,9.06-.38,2.14-4.36,5.72-4.87,5.44a163.88,163.88,0,0,1-13.81-9.47C2705.85,402.44,2707.77,400.41,2708.69,399.43Z"/><path d="M1343.06,656.89a40.12,40.12,0,0,1,3.32-3.14c4.28,3.82,8.33,7.91,12.41,12-2.1,2-3.94,5.27-6.35,5.78C1348.11,672.4,1343.2,665.07,1343.06,656.89Z"/><path d="M1317.55,696.65c1.73-5.71-5.86-13.32,4.33-15.57,3.56-.79,9.18-.65,9.46,6.11C1331.7,695.62,1331.11,696.19,1317.55,696.65Z"/><path d="M2650,391.07c.25-8.24,4.41-10.57,8.84-9.76,2.85.53,5.08,4.48,7.58,6.9-2.9,2.77-5.45,7-8.82,7.8C2655.3,396.56,2651.85,392.37,2650,391.07Z"/><path d="M3603.06,631c-.95-1.12-3.8-3-4.33-5.42-.9-4.08,6.74-9.11,13.29-8.65,2,.14,5.29,2.12,5.54,3.66C3618.21,624.58,3609.81,631.12,3603.06,631Z"/><path d="M1430.06,851.52c-.13,1.2-.34,2.39-.37,3.58-.1,4.62-1.65,8.65-6.67,9-2.3.15-6.73-2.08-6.81-3.43-.22-3.8.42-8.36,2.56-11.27,1-1.31,6.31.54,9.64,1.09.65.1,1.21.79,1.82,1.22Z"/><path d="M1698.76,502c-7.12-.8-12.34-2-12.2-8.3,0-1.92,4.21-5.08,6.71-5.32,5.07-.48,10.45,1.27,10.44,7.56C1703.71,498.17,1700.06,500.45,1698.76,502Z"/><path d="M1791.87,679.07c-.15,7-5,13.27-9.11,12.17-2.35-.63-5.06-3.67-5.7-6.13-1-4,6.48-10.27,11-9.42C1789.82,676,1791.16,678.4,1791.87,679.07Z"/><path d="M2095.14,571.37c-1,6.21-3.25,8.45-7.8,8.34-4.28-.09-8-1.24-8.11-6.38-.1-5,2.88-8.38,7.6-7.71C2089.81,566,2092.38,569.35,2095.14,571.37Z"/><path d="M3031.81,625.2c-3.73-4.64-6.94-6.93-7.5-9.74-.85-4.29,2-7.64,6.7-7.68,4.18,0,8.45,1.65,7.69,6.6C3038.22,617.47,3035.15,620.16,3031.81,625.2Z"/><path d="M2502.92,925.21c-.55,7.42-3.47,11-8.93,10.64-2.2-.17-4.17-3.47-6.24-5.34,3.25-2.92,6.26-6.23,9.92-8.47C2498.58,921.48,2501.61,924.38,2502.92,925.21Z"/><path d="M2107.42,464.62c-4.7,3.16-7.48,6.45-9.53,6-2.72-.53-4.88-3.94-7.28-6.12,2.28-2.28,4.4-6.11,6.9-6.38S2102.69,461.34,2107.42,464.62Z"/><path d="M3320.64,1415.24c-3.4-4-7.46-6.84-7.11-8.92.44-2.59,4.48-6.3,7-6.33,2.31,0,5.9,3.88,6.59,6.64C3327.58,1408.41,3323.81,1411.25,3320.64,1415.24Z"/><path d="M2076.11,603.43c4-3.26,6.88-7,8.48-6.55,2.81.83,6.49,4.09,6.74,6.63.22,2.24-3.58,6.63-5.92,6.86S2080.37,606.82,2076.11,603.43Z"/><path d="M3590,622.25c-3.15-4.31-6.12-6.84-6.79-9.88-.38-1.71,2.95-6,4.74-6.1,5.63-.24,7,4.7,7.23,9.16C3595.29,617,3592.88,618.62,3590,622.25Z"/><path d="M1814.82,254.4c2.85,4,5.82,6.38,5.85,8.78,0,1.94-4.49,5.91-5.29,5.51a17.59,17.59,0,0,1-7.15-6.8C1807.81,261.16,1811.52,258.06,1814.82,254.4Z"/><path d="M2362.3,566.55c-3.61,3.11-6.12,6.71-7.74,6.34-2.6-.59-4.62-3.79-6.88-5.88,2.16-2.2,4-5.46,6.6-6.22C2355.84,560.33,2358.55,563.72,2362.3,566.55Z"/><path d="M1333,671.86c-1.92.28-4.16,1.34-5.68.7-3.49-1.47-6.62-3.78-9.9-5.75,1.32-1.36,3.09-4.12,3.89-3.86,4.3,1.39,8.36,3.52,12.51,5.4C1333.51,669.52,1333.23,670.69,1333,671.86Z"/><line class="cls-1" x1="2731.2" y1="862.8" x2="2730.65" y2="864.65"/></svg>