<svg id="Layer_1" data-name="Layer 1" xmlns="http://www.w3.org/2000/svg" viewBox="0 0 1528.29 1432.74"><defs><style>.cls-1{fill:#a62b2a;}</style></defs><path class="cls-1" d="M1104.43,1164.9c-6.2,0-12.41-.11-18.61.07-2.41.07-3-.65-3-3,.11-13.86.06-27.73.06-41.6q0-68.41-.07-136.84c0-2.73.64-3.46,3.37-3.35,5.71.24,11.43.16,17.14,0,1.4,0,3.75,1.4,3.83-2,.08-3.69-2.5-2.26-4-2.27-15.08-.1-30.17,0-45.25-.12-2.46,0-3.43.74-4.3,3q-26.84,69.56-53.88,139c-.43,1.12-.35,2.65-1.84,3.27q-6.08-15.36-12.09-30.62-22.07-55.92-44.11-111.84c-.66-1.67-1.19-2.84-3.46-2.82-16.18.12-32.36.08-48.54.05-1.53,0-2.42.1-2.4,2.07s.59,2.44,2.48,2.41c6.08-.12,12.17.16,18.24-.13,3.17-.16,3.68.89,3.67,3.81q-.12,78.64-.07,157.28c0,4.48.08,9-.83,13.44-1.18,5.8-4,8.49-9.73,9.59a56,56,0,0,1-11.26.58c-1.8,0-2.51.32-2.49,2.35s.81,2.1,2.37,2.1q26.1-.08,52.19,0c1.77,0,2.48-.28,2.52-2.33,0-2.37-1.26-2.09-2.74-2.09-3.65,0-7.3.11-11-.05-9.21-.4-13.24-3.93-14.09-12.31-.33-3.26-.57-6.55-.58-9.83q0-72.43,0-144.87c0-.81-.48-2,1-2.46.37.9.73,1.75,1.08,2.61q32.75,82,65.53,164c.46,1.15.17,3,2.39,2.93,1.94-.08,1.77-1.67,2.2-2.8q22.94-59.39,45.84-118.81,10-25.86,19.86-51.75l.59.16v61.66q0,54.19.06,108.38c0,2.5-.51,3.28-3.14,3.2-6.68-.21-13.37,0-20.06-.11-1.83,0-2.53.38-2.52,2.36s.86,2.09,2.42,2.09q36.68-.06,73.34,0c1.79,0,2.49-.33,2.53-2.35C1107.24,1164.6,1105.9,1164.9,1104.43,1164.9Z"/><path class="cls-1" d="M487.19,1164.87c-7.66.09-15.32,0-23,.08-2,0-2.64-.41-2.63-2.55q.12-43.79,0-87.58c0-2,.49-2.72,2.6-2.68,7.17.13,14.37-.28,21.52.16,9.24.57,18,2.9,24.21,10.51,5.26,6.45,6.47,14.41,7.43,22.35,1.55,13,2.58,26,5.2,38.86,2.39,11.72,7.43,21.54,20.13,25,8.08,2.23,16.34,2.09,24.58,1.38a59.33,59.33,0,0,0,12-2.49c1.89-.57,1.53-1.11,1-2.48-.85-2.27-2-1.23-3.41-.74-12.18,4.35-20,.64-22.18-11-1.46-7.73-2.08-15.62-3-23.44-1.06-8.88-1.67-17.83-3.69-26.58-3.58-15.53-12.37-26.19-28.19-30.36a162,162,0,0,0-21.87-3.83c1.37-.3,2.72-.68,4.11-.88,11.06-1.56,21.76-4.41,31.66-9.64s17.75-12.52,21.16-23.73c1.6-5.24,1.43-10.55,1.16-15.86-.77-15.39-7.38-27.33-21.11-34.93-11.44-6.34-24-8.29-36.76-8.47-29.8-.41-59.61-.14-89.41-.16-1.49,0-2.76-.23-2.83,2.1-.07,2.52,1.26,2.35,2.93,2.34,7.18,0,14.36.05,21.53-.06,2.17,0,3.12.25,3.11,2.85q-.12,89.6,0,179.19c0,2.4-.79,2.73-2.88,2.7-7.29-.11-14.59,0-21.89,0-1.47,0-2.85-.29-2.83,2.09,0,2.08.86,2.34,2.61,2.33q39.4-.06,78.82,0c1.58,0,2.37-.17,2.39-2.1S489,1164.85,487.19,1164.87ZM464.68,980.19c11.37.3,22.8-.7,34,2.24,17.14,4.49,25.68,16.29,27.49,33.55.9,8.54.68,17-1.77,25.17-4.26,14.2-14.81,21.4-28.68,24.45-10.5,2.32-21.18,2.13-31.86,2.17-2.59,0-2.24-1.49-2.24-3.06v-40.83c0-13.49.06-27-.06-40.47C461.54,981,462.05,980.12,464.68,980.19Z"/><path class="cls-1" d="M260.24,986.92C247.09,979,232.42,976.3,217.49,976c-27.72-.53-55.46-.17-83.19-.2-1.61,0-2.66,0-2.67,2.22s1.07,2.24,2.67,2.23c7.3,0,14.6.07,21.89-.07,2.17,0,2.86.4,2.86,2.74q-.12,89.6,0,179.17c0,2.61-.95,2.87-3.1,2.84-7.17-.11-14.35,0-21.53,0-1.45,0-2.79-.32-2.82,2.07s1.25,2.34,2.94,2.34q38.85,0,77.72,0c1.45,0,2.8.33,2.79-2.09s-1.27-2.33-2.95-2.32c-7.54,0-15.08-.05-22.62.06-2,0-2.67-.49-2.67-2.6.07-27.73.05-55.46.05-83.5,23,7.2,41.27,4.1,55.63-.13,12.82-3.78,24-10.29,31.86-21.53,6.85-9.79,8.73-20.83,8-32.47C281.28,1008.46,274.47,995.51,260.24,986.92Zm-10.69,64.77c-5.38,14.88-19.47,25.17-35.29,26.5a48.76,48.76,0,0,1-23.72-3.41c-2.64-1.12-3.81-2.49-3.76-5.62.21-14.21.09-28.43.09-42.64s.11-28.44-.09-42.65c-.05-3.18.92-3.75,3.84-3.69,10,.22,20.13-.48,30,1.85,18.33,4.3,28,16.53,30.92,34.52C253.49,1028.35,253.72,1040.16,249.55,1051.69Z"/><path class="cls-1" d="M814.34,1414.71c-12.09-9.75-18.11-22.51-18.14-38q-.06-27.18,0-54.35c0-26.27,0-52.54.07-78.8,0-2.67-.59-3.66-3.41-3.5a118.07,118.07,0,0,1-12.76,0c-2.59-.12-3.24.71-3.23,3.27.1,23.35.06,46.7,0,70,0,1.27.33,2.63-.58,3.91-1.71-.55-2.78-1.84-3.95-3-7.27-7.43-15.79-12.69-26.34-13.42-20.88-1.44-39.13,9.49-48.64,28.24-7.39,14.55-9.76,29.94-8.34,46,1.18,13.26,5,25.76,13.1,36.56,11.61,15.54,27.08,22.84,46.57,20.48,13.53-1.64,24-8.75,32.25-19.31,3-3.87,3-3.9,5.71.36a75.22,75.22,0,0,0,13.69,16.5c1.8,1.57,2.88,1.49,4.46-.18,3.16-3.36,6.35-6.73,9.82-9.76C817,1417.56,816.6,1416.53,814.34,1414.71Zm-51.52-10.11c-13.09,12.83-32.57,11.14-43.68-3.43-15-19.71-14-53.29,2.32-71.92,11.14-12.75,32.36-12.29,43.11.79,8.68,10.56,11.93,22.86,12.23,37.62C776.36,1380.58,773.49,1394.14,762.82,1404.6Z"/><path class="cls-1" d="M1394,1164.89c-5.84,0-11.68-.12-17.51.08-2.26.08-3.07-.8-3.73-2.73q-32.37-93.88-64.81-187.74c-.49-1.42-.35-3.11-2.71-3.08s-2,2-2.37,3.06q-26.49,79.33-52.87,158.72c-2.63,7.85-4.91,15.83-8.36,23.41-2.64,5.78-6.86,8.46-13.11,8.29-2.43-.07-4.86.08-7.29,0-1.7-.07-2.56.17-2.6,2.28-.05,2.35,1.21,2.14,2.72,2.14q25.71,0,51.44,0c1.67,0,3,.19,2.91-2.32,0-2.36-1.28-2.09-2.76-2.09-4.5,0-9,.16-13.5-.07-9.36-.47-11.81-3.82-9.42-12.87,3.91-14.78,9.36-29.07,13.8-43.67.66-2.15,2-1.71,3.37-1.71,17.76,0,35.52,0,53.27-.06,1.82,0,2.77.39,3.39,2.26,6.24,18.59,12.58,37.14,19,56.13-8.47,0-16.49,0-24.52,0-1.58,0-2.66,0-2.66,2.21s1.09,2.21,2.67,2.21q37.75,0,75.53,0c1.53,0,2.75.15,2.74-2.17S1395.68,1164.87,1394,1164.89ZM1266.16,1102q13.39-41.4,26.7-82.56l.75,0q14,41.19,28.07,82.58Z"/><path class="cls-1" d="M891,1300.63c-21.41-.34-35.13,7.88-44.28,23.39-12.69,21.49-13.86,44.58-7.81,68.3,3.27,12.8,9.46,24,20.37,31.86,10.46,7.55,22.38,9.6,35,7.86,13.86-1.91,25.16-8.43,34.18-19.07,1.48-1.74,1.68-2.76-.43-4.29-3.74-2.7-7.2-5.77-10.71-8.77-1.36-1.17-2.28-1.2-3.55.22a55.8,55.8,0,0,1-8.35,7.6c-9.76,7.27-22.89,8.19-32.46,1.64s-13.54-16.79-15.94-27.7c-.41-1.89,1-1.86,2.27-1.89,4.25-.1,8.51-.1,12.76-.29,27.67-1.22,47.28-14.91,60.16-39a4.77,4.77,0,0,0,.53-3.78C926.93,1314.6,912.37,1300.57,891,1300.63Zm20.26,39.45c-9.06,12.52-20.93,20.31-36.54,21.9a66.91,66.91,0,0,1-9.86.52c-9.72,0-9.84,0-8.14-9,1.84-9.74,4.87-19,12-26.37,13.32-13.76,36.84-8.43,43,9.68A3.17,3.17,0,0,1,911.28,1340.08Z"/><path class="cls-1" d="M715.69,1165c-6.44-.21-12.89,0-19.34-.09-1.55,0-2.79-.13-2.77,2.15,0,2.11.94,2.29,2.65,2.28q36.49-.06,73,0c1.62,0,2.68,0,2.68-2.23s-1.15-2.2-2.73-2.19c-6.68,0-13.38-.07-20.06.07-2.09,0-2.66-.58-2.59-2.63.14-4.62,0-9.24,0-13.86q0-82.29-.07-164.57c0-3,.7-3.85,3.74-3.73,6.31.27,12.64.06,19,.1,1.58,0,2.75.08,2.7-2.19s-1-2.27-2.7-2.27q-36.5.06-73,0c-1.71,0-2.6.17-2.61,2.32,0,2.34,1.25,2.14,2.77,2.13,6.44,0,12.89.13,19.33-.08,2.63-.08,3.14.7,3.13,3.22-.09,29.68-.06,59.35-.06,89s0,59.6.07,89.4C718.85,1164.39,718.25,1165.06,715.69,1165Z"/><path class="cls-1" d="M601.86,1408.93a102.28,102.28,0,0,1-9.42-8.6c-2.38-2.5-3.64-2.66-5.88.43-11.29,15.6-40.18,19.29-52.21-4.77a65.72,65.72,0,0,1-6.57-35.31c.8-9.86,3.25-19.41,9.07-27.72,6.67-9.53,15.6-14.12,27.45-12.82,9.49,1,17.13,5.15,22.77,12.78,1.68,2.28,2.73,2.31,4.69.32a80.19,80.19,0,0,1,9.29-8.18c2.58-1.92,2.28-3.37.45-5.55-7.67-9.11-16.91-15.61-28.83-17.8-19.68-3.6-36.71.8-49.63,16.86-11.14,13.85-15.15,30.13-15.36,47.56a82.34,82.34,0,0,0,8.37,37.68c18.9,38.38,66.71,35.65,86,8.89C603.19,1411.14,603.61,1410.35,601.86,1408.93Z"/><path class="cls-1" d="M1020.8,1300.59a30.68,30.68,0,0,0-11.54,3.09c-9.31,4.4-16.63,11.28-23.19,19-3,3.51-3,3.58-5-.3a67.18,67.18,0,0,0-15.14-19c-1.58-1.4-2.56-1.64-4.13.07-2.88,3.12-6,6-9,9-3.34,3.33-3.41,3.45.15,6.52,12,10.36,17.6,23.39,17.15,39.25-.29,10.21-.06,20.43-.06,30.64h0c0,12.53.08,25-.06,37.57,0,2.75.75,3.6,3.48,3.43,3.76-.23,7.54,0,11.31-.05,5.17,0,5,1,5-5.13,0-20.91.35-41.84-.15-62.74-.2-8.33,2.44-15.24,6.9-21.71,6.15-8.9,13.88-15.64,25.4-16.19,1.93-.1,2.16-1,2.15-2.53,0-6.08-.09-12.16,0-18.24C1024,1301,1022.9,1300.48,1020.8,1300.59Z"/><path class="cls-1" d="M649.32,1303.45a70.36,70.36,0,0,1-10.57,0c-3.58-.29-4.77.74-4.75,4.57.18,27.48.1,55,.09,82.42,0,11.92,0,23.83-.05,35.74,0,2.69.6,4,3.65,3.77a122.16,122.16,0,0,1,13.12,0c2.67.12,3.16-.87,3.15-3.36-.11-19.93-.06-39.87-.06-59.8h0c0-19.58-.13-39.15.11-58.72C654.06,1304.14,652.82,1303.21,649.32,1303.45Z"/><path class="cls-1" d="M644.21,1253.94a12.94,12.94,0,0,0-13.06,13.16,12.68,12.68,0,0,0,12.72,13,12.88,12.88,0,0,0,12.93-12.53C656.88,1260.09,651.24,1254,644.21,1253.94Z"/><path class="cls-1" d="M837.11,829c-2.46-1.89-5.38-2.57-8.11-1.07-2.38,1.31-4.4,3.08-4.36,6.53s1.43,5.59,4.41,7l2.15.24,1.49,0h2.19l1.41-.32C839.94,839.31,840.49,831.64,837.11,829Z"/><path class="cls-1" d="M645.9,341.8c-3.18-.78-5.52.95-7.36,3.42-.36.48-.66,1-1,1.5,0,1,0,1.93-.07,2.89.23.56.46,1.12.68,1.68,1.43,3.5,4.51,4.52,7.68,4,2.52-.38,5-1.87,5.1-5.18S648.69,342.48,645.9,341.8Z"/><path class="cls-1" d="M632.75,716.75c.39.59.82,1.17,1.17,1.79,1.66,3,4.4,3.68,7.4,3.09a7.6,7.6,0,0,0,5.82-5.33c.88-3-1.58-4.47-3.93-5.67a16.53,16.53,0,0,1-1.46-1.07c-1.78-1.26-3.61-1.4-5.23.17a11.59,11.59,0,0,1-3,1.94A14.39,14.39,0,0,0,632.75,716.75Z"/><path class="cls-1" d="M1100,112.55c-.59,3.57,1.62,7.42,4.79,8.49,2.21.74,6.57-1.85,8.41-5l-.08-1.43a15.06,15.06,0,0,1-3.18-5.8h0l-.6-.78-.82-.8-.78-.65c-.24-.06-.47-.13-.7-.21l-.34.09-.35-.07-1.45.31C1102.65,108.11,1100.51,109.66,1100,112.55Z"/><path class="cls-1" d="M851.66,842.23l2.91,0,2.91.11,2.2,0,1-.32c2.32-5,.47-9.42-1.92-10.4-5-2-8.09-.88-10.3,3.82-1.33,2.84,1,4.48,1.75,6.62Z"/><path class="cls-1" d="M644.4,176.89c-3-.43-6.1-.61-7.92,2.7v3.6c1.87,4.73,5.6,6.69,10.38,5,2.19-.75,4.18-2.81,3.73-5.09C650,180,647.93,177.39,644.4,176.89Z"/><path class="cls-1" d="M636.17,748.9c3.69.25,7.34-1.93,8-4.93.75-3.33-1.42-5.53-3.67-7.34-2.62-2.1-4.89-.52-7.1,1.24-1.26,1-1.2,2.59-2.08,3.72l-.21,2.16C631.6,746.65,633,748.69,636.17,748.9Z"/><path class="cls-1" d="M733.47,687.42c3.13,2,5.6-.19,7.88-2.21l0-8.4c-3.7-3.81-7.26-.9-10.8.31-.92.32-1.18,1.35-1.39,2.37C728.35,683.39,730.78,685.68,733.47,687.42Z"/><path class="cls-1" d="M1079.39,401.09l2.19-1.1c1.51-2,3.05-4,4.52-6.1.39-.54,1.13-1,.94-1.83-.38-1.78-4.44-5.41-5.88-5.25-3.81.42-7.16,3.42-7.51,6.52C1073.16,397.74,1076.15,399.48,1079.39,401.09Z"/><path class="cls-1" d="M637.84,387.57c1.18-.08,2,.77,3,1.16a6.57,6.57,0,0,0,7.51-2.9c1.38-2.63,1.71-5.4-.73-7.65-2-1.84-4.38-3.18-7.23-2.1s-2.83,3.57-2.71,6.07a27.28,27.28,0,0,1-.21,3.25C637.6,386.12,637.72,386.84,637.84,387.57Z"/><path class="cls-1" d="M579.35,830.56c-2.35-1.79-6.14-.66-8,2-1.5,2.17-1,4.73-.46,7s2.87,1.14,4.43,1.27c2,.18,4.1.16,6.14.23a1.13,1.13,0,0,0,.68-.22,8.37,8.37,0,0,1,.64-1.67C585.17,835.42,583,833.32,579.35,830.56Z"/><path class="cls-1" d="M1016.48,36.79a7.36,7.36,0,0,0,5.89-5.75,2.22,2.22,0,0,0-1.46-2.89c-1.76-.75-3.45-1.67-5.17-2.52a.84.84,0,0,1-.58-.16c-2.42,0-4.93-.24-6.22,2.55-.93,2-1.23,4.09.19,5.81A8.6,8.6,0,0,0,1016.48,36.79Z"/><path class="cls-1" d="M790.77,14.36A6.28,6.28,0,0,0,797,11c1.28-2.31.48-4.17-1.16-6.2-2.42-3-5.63-1.39-8.42-2.09L786.12,3C783.94,9.33,785.75,13.94,790.77,14.36Z"/><path class="cls-1" d="M1120.84,158.13a6.69,6.69,0,0,0,9.46-.73c-1.1-3.67-1.23-7.73-4.23-10.65-2,.89-4.54.86-6.2,2.48C1117,152.05,1117.4,155.13,1120.84,158.13Z"/><path class="cls-1" d="M685.91,15.47c2.33,1.1,4.79,1.22,7-.79,3-2.69,2.55-6.89-1.13-10.23l-2.15-.28a5,5,0,0,1-1.07.15c-2.6-.19-4.73.83-5.29,3.34C682.63,10.6,682.53,13.88,685.91,15.47Z"/><path class="cls-1" d="M1135.09,269.32a5.85,5.85,0,0,0-7.39-.43,5.67,5.67,0,0,0-2,7.13c.93,2.29,2.74,4.45,6,4.34,4.47-.17,4.55-3.92,5.92-6.67l.09-1.42A22.52,22.52,0,0,0,1135.09,269.32Z"/><path class="cls-1" d="M560.81,13.8c3.08-.32,6.05-5.3,5.24-8.49-.48-1.87-2.1-2.87-2.89-4.47L559.69.7A8.89,8.89,0,0,1,557.58,2c-3.44,1-3.15,3.86-2.94,6.38C554.82,10.54,559.11,14,560.81,13.8Z"/><path class="cls-1" d="M966.52,476.66c2.05-.71,4.07-1.52,6.1-2.29.1-.46.19-.92.29-1.38-1.14-8.14-3.58-7.9-9-6.57-2.88.69-4.35,4.28-3.4,7.8C961.14,476.73,963.48,477.7,966.52,476.66Z"/><path class="cls-1" d="M636.92,161.33c0,.48,0,.95,0,1.43a21.61,21.61,0,0,1,2.73,2.84c1.68,2.21,5.61,2.21,7.79.26,2.54-2.27,2.78-5.15.84-7.68C645.05,154,638.89,154.44,636.92,161.33Z"/><path class="cls-1" d="M637.47,454.74v2.89c.51,4,2.51,5.45,5.47,3.87,4.89-2.61,5.68-7.32,2.16-11.69-1.7-2.11-3.88-1.89-6-1.53-2.31.4-1.17,2.54-1.44,3.94C637.55,453.05,637.54,453.9,637.47,454.74Z"/><path class="cls-1" d="M635.68,134.44a12.21,12.21,0,0,1,.19,4.43c-.25,2.16-.85,4.38.46,6.44,2.87.84,5.67,1.33,8-1.28,2-2.19,1.74-4.61.79-7.12C643.77,133.37,640.06,132.39,635.68,134.44Z"/><path class="cls-1" d="M741,484.67c-.07-1.2-.07-2.41-.24-3.6-.36-2.53-3.07-4.23-5.23-3.35-3.85,1.59-6,6.06-4.47,9.39,1.65,3.64,5.06,4.47,9.47,2.32l.36-1.14a.86.86,0,0,1,0-.7C740.92,486.62,741,485.65,741,484.67Z"/><path class="cls-1" d="M1111.62,344.61c-3.94-.27-7.23,1.88-7.44,5.17-.32,5.08.24,8.4,5.82,8.56v0l.71-.88a.82.82,0,0,1,.19-.57l.55-.8,0,0c1-2.18,2-4.36,3-6.55C1115.72,346.61,1114.7,344.82,1111.62,344.61Z"/><path class="cls-1" d="M947.56,483a15.59,15.59,0,0,0,3.17-.67l.07.07.84-.53,2.9-.85c0-5.74-2.76-8.43-8.08-8-2.42.17-3.59,1.9-4.47,3.64-1.06,2.11-.22,4.26,1,6.16C944.36,484.9,946,483,947.56,483Z"/><path class="cls-1" d="M1002.56,461.21l9-4.83.27-.91c-1.59-2.81-2.78-6.19-7-5.77-2.85.28-4.72,1.9-6,4.56-1.58,3.29,1,4.85,2.4,6.93Z"/><path class="cls-1" d="M529.05,20.87c3.21.4,6.43.74,9.66,1,1.32.1,1.9-.79,1.89-2.1,0-4.27-3-6-6.31-7.57-2.83-1.31-3.84,1-5.4,2.37a13.94,13.94,0,0,1-1.19.82L527.58,19C527.81,19.82,528.1,20.76,529.05,20.87Z"/><path class="cls-1" d="M802.36,487.71c1-2.28.17-4.51-.71-6.61a4.51,4.51,0,0,0-4.29-2.82c-4,.17-7,3.78-7.4,8.35a.62.62,0,0,1,.38.22l1.49.63,1.42.19c2.27.21,4.53.44,6.8.61C800.87,488.34,802,488.61,802.36,487.71Z"/><path class="cls-1" d="M636.73,70.82c-1.8-.11-3.61.08-5.42.14,0,1.61,0,3.21,0,4.82a2.37,2.37,0,0,1,1.38,2.69c-.19,2.69,1.44,3.27,3.64,3.29,3.32,0,5.83-1.67,6-4.06C642.45,74.51,639.72,71,636.73,70.82Z"/><path class="cls-1" d="M751.66,839.36l3.65,0,1.13-.21c-.06-1.42,1.25-2.69.59-4.13-1.11-2.49-2.69-4.66-5.55-5.18-1.77-.33-3.7-.32-4.7,1.72-1.21,2.44-3.53,4.81-.7,7.63Z"/><path class="cls-1" d="M770.56,12.73a5,5,0,0,0,6.06.67c2.21-1.24,2.67-3.6,1.67-6.07-.51-1.23-.93-2.49-1.4-3.74-2-.93-4.12-.64-6.21-.47C766.91,7.53,766.93,9.5,770.56,12.73Z"/><path class="cls-1" d="M637.38,259.37c4.45,1.79,6.13,1.25,9.06-2.73,2.24-3-.54-4.74-1.93-6.45-2.06-2.55-4.76-1.06-7.21-.19A38.15,38.15,0,0,0,637.38,259.37Z"/><path class="cls-1" d="M638.39,656.17c3.66,0,5.36-2.75,6.45-5.55s-1.7-3.93-3.4-5.32-3.92-.33-5.84-.8c-.15,3.75-.29,7.5-.44,11.25A22.5,22.5,0,0,0,638.39,656.17Z"/><path class="cls-1" d="M985.94,468.87c2.4-1.13,4.88-2.08,7.32-3.11a.75.75,0,0,1,.49-.21c.8-3.06-1.83-4-3.52-5.29-2-1.52-4.13-3.16-6.74-.7-2.4,2.25-2.24,4.9-1.47,7.62C982.57,469.14,983.88,469.86,985.94,468.87Z"/><path class="cls-1" d="M599.74,831.49c-3.46.63-6.5,4.25-6.88,8.22l-.08.17,6.34.33,7.14-.18C606.45,836.22,602.46,831,599.74,831.49Z"/><path class="cls-1" d="M742.05,708.5a.84.84,0,0,1,.17-.5c0-.24,0-.48.08-.72-.08-3.9-.15-7.8-.23-11.7-3.33-1.87-4.78,1-6.53,2.74-2.27,2.28-1.27,5.56-.2,7.32S739,709.61,742.05,708.5Z"/><path class="cls-1" d="M661.33,831.32c-2.92,2-1.28,4.39-.19,6.65l2.18.29a29.08,29.08,0,0,1,7.34-.11,1.27,1.27,0,0,1,.61-.28c0-2.88-.37-5.92-2.39-7.91C666.17,827.3,663.58,829.8,661.33,831.32Z"/><path class="cls-1" d="M642.19,320.28c-1.25-1-2.81-.32-4.22-.52l-.55,1.35a4.88,4.88,0,0,1,0,3l.18,7.29c4.88.56,7.24-.83,8.64-5.59C647.25,322.48,644.06,321.73,642.19,320.28Z"/><path class="cls-1" d="M956.6,16.8c3.75-.1,6.15-3.07,5.82-7.21l-5-1a1.51,1.51,0,0,1-1.58-.5l-2-.21c-1.82,0-3.29,0-3,2.7C951.19,13.85,953.76,16.87,956.6,16.8Z"/><path class="cls-1" d="M860,8.77a6.11,6.11,0,0,0,5.22-7.09.5.5,0,0,1-.4-.15l-7.29-.12-1.47,0-.71,0-2.75.17C853,6.42,855.87,9.24,860,8.77Z"/><path class="cls-1" d="M569.46,821.83c3-.64,4-3.82,2.65-8l-11.51,1.58A7.12,7.12,0,0,0,569.46,821.83Z"/><path class="cls-1" d="M1127.51,171.64c-.6,4.83.92,6.83,8,7.12a54,54,0,0,0-2.88-12.35C1130,167.2,1127.89,168.53,1127.51,171.64Z"/><path class="cls-1" d="M642.27,530.37c2.22-2,2.79-4.72.72-7.39-1.46-1.91-2.8-4.22-5.81-2.36q0,6,0,12C639.34,533,641,531.52,642.27,530.37Z"/><path class="cls-1" d="M742.94,732.1c0-.24.07-.49.11-.73,0-1.46,0-2.92,0-4.38L743,720.4a1.39,1.39,0,0,1-.14-.6c-2.48.41-5.43-.12-6.47,3.2-1.56,5,1,9.08,6.55,9.13Z"/><path class="cls-1" d="M1020.11,451.74c2.93-2.56,6.45-4.22,9.65-6.36l.57-.84c-2.72-2.11-5.59-3.16-9-1.57-3.94,1.85-3.64,5.22-3.22,8.66Z"/><path class="cls-1" d="M643.76,207.45c1.24-2.14-.16-3.91-1.43-5.14s-2.9-3.13-5.25-1.56l0,10.12,2.15.12C641.8,211.14,642.74,209.21,643.76,207.45Z"/><path class="cls-1" d="M927.38,10.94c2,1.57,4.49.86,6.15-1.77,1.39-2.19.77-3.79-1.6-4.75l-2.16-.22a15.53,15.53,0,0,0-2.17.12c-1.19.23-2.71-1.59-3.52.28-.67,1.56.18,3.1,1.17,4.37A13.31,13.31,0,0,0,927.38,10.94Z"/><path class="cls-1" d="M849.23,493.28c.09-3.45-2.1-6.33-5.13-6.76-2.76-.4-6.36,2.78-6.89,6.08l3.48.18c2.47,0,5-.48,7.37.47Z"/><path class="cls-1" d="M1102,97.8c-.66-3.5-3.66-5.58-5.2-8.55-1.09-.38-1.2-2.55-2.62-1.87-1.15.56-1.42,2.19-1.61,3.44a6.05,6.05,0,0,0,1.83,4.88C1096.46,98.1,1099.2,98.06,1102,97.8Z"/><path class="cls-1" d="M752.86,9.37c2.39.87,4.61-.9,6.71-2,1-.51.74-1.72.57-2.68-.2-1.12-1.11-1.11-2-1.12l-9.45-.07a1.55,1.55,0,0,1-.66.18C748.13,6.85,750.42,8.49,752.86,9.37Z"/><path class="cls-1" d="M643,502.74c-.15-3.68-.93-4.24-5.92-4.16q0,5.42,0,10.83C641.71,509.13,643.2,507.45,643,502.74Z"/><path class="cls-1" d="M733.83,9.37c3.13.24,5.47-1.71,6.84-5.7l-1.44-.15-9.47.13-2,.15A6.47,6.47,0,0,0,733.83,9.37Z"/><path class="cls-1" d="M735,512.28c-.24,3.66,2.61,5,5.68,5.81V506A6.61,6.61,0,0,0,735,512.28Z"/><path class="cls-1" d="M822.8,486.85c-3.68-2.4-6.79-1.54-10.5,2.89l2.84.9c1.74-.12,3.49-.39,5.12.53l1.46.12c1-.36,2.58.63,3-1.25C825,488.4,824,487.6,822.8,486.85Z"/><path class="cls-1" d="M735,561.2c.76,2.62,3.66,2.64,5.69,3.69V553.33a8.89,8.89,0,0,0-2,.77C736.19,555.8,734,557.88,735,561.2Z"/><path class="cls-1" d="M1139.25,207.11c-2.7.65-4.69,2.35-5,5a6,6,0,0,0,2.66,5.21c.61.47,1.36,1.1,2.29.76,1.09-.39.71-1.4.73-2.16.06-2.4,0-4.8,0-7.2C1139.74,208.2,1139.49,207.65,1139.25,207.11Z"/><path class="cls-1" d="M882.81,6c3.62.19,5-2.14,6.69-4.47H876.57C877.23,5,879.52,5.81,882.81,6Z"/><path class="cls-1" d="M637.09,556.13c4.82-1.61,6.1-7.23,2.62-11.15-2-2.23-2.45-1-2.76,1C637,549.36,637,552.75,637.09,556.13Z"/><path class="cls-1" d="M891.74,488.48c-2.82.52-6.38.92-7.12,4.88l12.82-.77C896.22,490.24,894.37,488,891.74,488.48Z"/><path class="cls-1" d="M637.54,838.71l1.7.2c2.53-.08,5.07-.12,7.61-.27.85-.06,2.12.47,2.34-1,.16-1.07-.62-1.79-1.39-2.4C644.3,832.44,640.47,833.73,637.54,838.71Z"/><path class="cls-1" d="M640.55,620.17c.38-2.77-1.16-4.49-3.49-5.66-2,3.43-.95,7.26-1.4,10.89C638.75,625,640.15,623,640.55,620.17Z"/><path class="cls-1" d="M735.88,535.6a5.85,5.85,0,0,0,4.76,6.57l0-11.46C737.52,530.81,736.08,533.37,735.88,535.6Z"/><path class="cls-1" d="M623.47,834.63c-3.4-.49-4.84,2.07-6,4.71a1.34,1.34,0,0,1,.62.14l8.77-.07,1.2-.18C628.22,836,625.9,835,623.47,834.63Z"/><path class="cls-1" d="M627,57.59l0,0c2.69-.65,3.74-2.6,2.22-4.78-1.76-2.52-3.7-5.06-7.24-5.25l-.06,1a4.64,4.64,0,0,1,1.85,2.56l1.16,2.08.66,1.37,0,.06A3.25,3.25,0,0,1,627,57.59Z"/><path class="cls-1" d="M839.5,820.52c3.86,2.45,6.06,1.92,8.25-2.16-3.79-.22-7.52-1.29-11.36-.77A14,14,0,0,0,839.5,820.52Z"/><path class="cls-1" d="M610.81,802.86l-10,4.37C604.51,810.56,611.33,809.15,610.81,802.86Z"/><path class="cls-1" d="M710.1,838.42l7.24.1.25,0,.26,0c.16-4.26-3.08-3.54-5.5-3.5-2,0-5.07-.49-4.14,3.42Z"/><path class="cls-1" d="M771.8,479.21c-2.23-1.3-4,.53-4.51,2.27s1.72,1.42,2.88,1.73c1.61.44,3.25.78,4.89,1.17l1.41.26C776.41,481.57,773.88,480.42,771.8,479.21Z"/><path class="cls-1" d="M745.1,765.67c-3.68,4.87-2.77,8.42,2.68,9.92.07-2.69-1.56-5.08-1.22-7.74C746.15,767.07,746.07,766.07,745.1,765.67Z"/><path class="cls-1" d="M913.68,490.66l1.86-.38c-.38-2.28-2.12-4.19-4-3.64-2.06.61-5.17,1.21-5.2,4.61l5-.28A2.7,2.7,0,0,1,913.68,490.66Z"/><path class="cls-1" d="M537.24,818.31c2,3.82,7.26,4.68,9.79,1.54a2.64,2.64,0,0,0,.39-1.72c-.06-.89-.89-.64-1.4-.61-2.74.18-5.48.43-8.22.66A.85.85,0,0,1,537.24,818.31Z"/><path class="cls-1" d="M866.17,489.82c-2,.31-4.21.76-4.25,3.57l10.79,0C871.24,490.87,869.11,489.35,866.17,489.82Z"/><path class="cls-1" d="M636.66,116c-1.14-.94-1,.34-1.28.8,0,.71,0,1.43,0,2.15s0,1.48,0,2.23l.21,4.36a4.46,4.46,0,0,0,3.71-4.11C639.63,118.93,638.35,117.41,636.66,116Z"/><path class="cls-1" d="M983.67,15.32c-1.64-1.47-3.94-1.18-5.74-2.21-1.14.34-2.21-1.06-3.39-.16C977.06,17,979,17.54,983.67,15.32Z"/><path class="cls-1" d="M740.66,586.75q0-4.29,0-8.56C736.84,581,736.84,583.92,740.66,586.75Z"/><path class="cls-1" d="M634,683.64v7.59l.15.77C637,688.57,637.08,686.44,634,683.64Z"/><path class="cls-1" d="M639.76,402.44a3,3,0,0,0-2.51-3.66l-.06.19.3,1-.18,4.39C639.87,406,639.55,403.44,639.76,402.44Z"/><path class="cls-1" d="M770.18,840h5.28C773.65,837.55,771.74,837.55,770.18,840Z"/><path class="cls-1" d="M543.27.18,542.18,0h-5.91C539.18,3.7,541.21,1.48,543.27.18Z"/><path class="cls-1" d="M740.71,615.33c0-2.17,0-4.33,0-6.5C739.25,611,736.88,613.19,740.71,615.33Z"/><path class="cls-1" d="M1070.76,410.91c-2.64,0-3,2.41-4.24,3.89C1068.75,414.4,1069.86,412.78,1070.76,410.91Z"/><path class="cls-1" d="M637.29,295.24c-.07.61-.13,1.22-.19,1.84l0,2.18.06,2.05c0,.62,0,1.24.05,1.85,0,1.11.08,2.22.11,3.32,2.81.16,3.85-3.18,3.6-3.87C640,300.09,640.9,296.44,637.29,295.24Z"/><path class="cls-1" d="M741.09,639.16a3.12,3.12,0,0,0-.23-.49c-.05-1.95-.11-3.89-.16-5.84-1.76-.56-3.25.71-5,.74-2.72,0-3.48,2.31-4.35,4.29a4.44,4.44,0,0,0,1.77,5.43c2.24,1.32,4.52,3.43,7.6,2.68l.12-6.59a.79.79,0,0,1-.09-.35.79.79,0,0,0,.09.35C741,639.3,741.11,639.21,741.09,639.16Z"/><path class="cls-1" d="M820.31,120.52l-2.28,0c-4-.75-7.88,1.37-11.87.32a4.74,4.74,0,0,0-.42.89l-1.7,0c-.14-.35-.24-.35-.3,0l-2.47,1a58.32,58.32,0,0,0-12.42,3.47l-2.17.11c1.52-3.38.67-7.12-1.93-8.5s-6.92.08-8.55,3.19c-1.42,2.7-.26,5.07,4,8.09l-11.47,7.11a6.42,6.42,0,0,0-8.65-.63c-2.39,1.75-2.45,4.35-.18,8.16l-6.79,7.34a3,3,0,0,0-2.29-2.87c-3-.9-7.41,1-8.31,3.54-1.37,3.83,0,6.44,4.24,8.06l-6,11.76c.54-3.29-1-5.57-3.63-7.23s-5.16-2.13-7.45.43c-2.65,3-2.8,6.51-.54,9.23,2.56,3.07,4.25,3.28,7.66,1.39,1.38-.76,2.21-2.3,3.88-2.57a31.24,31.24,0,0,0-2,7.49,52.54,52.54,0,0,0-1.77,9.39c-1.09,0-2.18,0-3.27.13-2.68.26-4.62,1.59-5.18,4.29a5.56,5.56,0,0,0,3,6.37,34.86,34.86,0,0,0,4,1.65q.09,8,.16,16.08c.4.12.8.21,1.19.29-.39-.08-.79-.17-1.19-.29l-.21,1.41c-4.18,2.71-4,7.56.42,10.42q.93,9,1.88,18c-1.7-.41-3.17-2.65-4.86-1.64-2.23,1.34-4.22,3.26-4.5,6.25-.25,2.68,1.18,4.39,3.23,5.63,2.86,1.74,5.28.32,7.59-1.37,2.25,8.82,3.65,17.84,6.56,26.53,4.94,14.8,10.85,29.15,19.08,42.43A152.59,152.59,0,0,0,795.46,362l1.23,1.06,5.6,5.65c-.91,3.21.68,5.57,2.88,7.47,1.55,1.34,3.4,2.83,5.64.93,4.52,1.83,8.84,4.28,13.83,4.75.48,1.64,1.93,2.47,3.17,3.23A6.13,6.13,0,0,0,837,381.3a104.11,104.11,0,0,0,30.09-11.09c5.23-1.95,10-5.13,15.88-5.27l0,.05c3.09-1.85,5.89.29,8.82.64l2.12,1.58a12.52,12.52,0,0,0-1.14,2.25,6.73,6.73,0,0,0,2.06,6.89c2.27,2.24,5,2.06,7.76,1,2.17-.81,2.68-2.56,2.42-4.67,1.61-.67,2.77.8,4.22.87,0-1.17,1.92-2.32,0-3.5-.95-.83-1.63-1.6-1.65-2.24a.88.88,0,0,1,.28-.67.88.88,0,0,0-.28.67c0,.64.7,1.41,1.65,2.24,1.89,1.18,0,2.33,0,3.5a29.23,29.23,0,0,0,8.8,2l3.67.18c2.19,0,4.39.53,6.56-.17,9.15-.58,16.94-4.36,23.89-10.14,3-2.47,6-4.83,9-7.24,3.1,3.8,5.76,4.46,9.65,2.13,3.13-1.86,2.6-4.85,1.77-7.64-.35-1.19-1.42-2.16-2.16-3.23.79-.94,1.58-1.87,2.36-2.81h0c.76-.78,1.51-1.57,2.26-2.35h0c1.14.64,2.3,1.25,3.4,1.95.91.57,1.85,1.65,2.89.92,2.25-1.61,5.37-2.57,5.7-5.93.28-2.94-.68-5.41-3.5-6.85l3.19-5.18h0l2.94-3.23c4,4.93,11.41,3.34,12.78-1.53,1.13-4-1.05-7.15-6.21-8.36,0-1.83,1.68-2.81,2.14-4.41a1.36,1.36,0,0,0,.83-1.41,8.49,8.49,0,0,0,2.17-3.66l1.41-1.84c.17.31.49.64.47.95a4.59,4.59,0,0,0,3.64,5.1c3,.88,6,1,8.25-1.66,2-2.39,1.54-4.87.12-7.42-2-3.56-4.2-4-9.56-1.73a8,8,0,0,1,.78-2.57,124.55,124.55,0,0,0,11-24.29c3.31-6.44,3.73-13.8,6.49-20.41.56-1.33,1.42-2.59,1.08-4.13-1.33-6.12-.22-12.23.2-18.32.15-2.12,1.3-4.44.53-6.39-1.33-3.43-.86-6.89-1.13-10.35s-.79-7.19-1.2-10.78h0c.22-1,1-1.23,1.8-1.6,2.45-1.17,4.65-2.83,3.53-5.81s-3-5.3-6.78-4.68c-1.49-1.45-.21-3.85-1.81-5.26l.07-1.46a.83.83,0,0,0-.66-1,.49.49,0,0,0-.1-.5c-.23-.73-.47-1.47-.71-2.2l.24-.16c4.17,1.39,7,.21,8.84-3.61,1.3-2.8-.53-6.88-4.1-8.63-4-2-5.08,1.74-6.94,3.83a9.77,9.77,0,0,0-.9,1.5A109.48,109.48,0,0,0,997,146.88c-6.59-6.92-13.29-13.75-22.66-17a1.51,1.51,0,0,0-1.49-.71l-1.63-.85c.64-.76,1.57-.41,2.35-.61a7.29,7.29,0,0,0,5.06-8.38c-.57-2.37-4.89-4.9-7.36-4.31-4.24,1-6.26,3.9-5.63,7.71.22,1.32,1.7,2.09,1.37,3.55,1-.19,1.84,0,2.2,1.12-.68-.47-1.81,0-2.22-1.06l-1.44.09a4.17,4.17,0,0,0-2.92-.89c-2.76-1.77-6.56-1.1-8.94-4a3.56,3.56,0,0,0-3.3-.68c-2.5,1.15-5,.48-7.42.43l-2.06-.24c-.17-.37-.38-.29-.61-.06l-.62-.54c.25-3.08-2.6-6.83-5.52-7.23-4.16-.57-7.15,1.89-7.83,6.46l-2.33.43-1.58.09c-.3.93-1.26.87-2,1.2.71-.33,1.67-.27,2-1.2l-4.62.26c.1-.83.17-1.67.32-2.5.73-3.91-2.35-5.31-4.84-6.7-2.2-1.22-4.38-.16-6.2,1.55-3.36,3.14-3.08,6.15,1.06,10.52a4.22,4.22,0,0,0,1-.1,4.22,4.22,0,0,1-1,.1c-7.77,3.27-15.55,6.52-23.3,9.82-1.79.76-3.07.24-3.06-1.6,0-3.43-.14-7,2.5-9.8a6.44,6.44,0,0,0,9.26-1c2.41-2.83,2-6-1-8.49a11.44,11.44,0,0,0-3.68-2.16c.11-3.86,3.37-6.83,3.1-10.81l2.32-3.26h0c.81.87,1.58,1.78,2.44,2.61a7.19,7.19,0,0,0,7,1.78,6,6,0,0,0,4.51-5.18c.25-2.22-1.6-4-3.52-5.5-2.57-2-4.83-1.23-7.28-.2l-2.73,4.17h0l2.73-4.17c.18-1.55,1.6-2.71,1.34-4.39l6.68-8.62a10.63,10.63,0,0,0,3-5.14,2.53,2.53,0,0,0,.81-2.29,7.91,7.91,0,0,0,.21-6.94c1.42-3-1.25-3.72-2.9-4.74-2.54-1.56-4.56-.42-6.14,1.8l-2.72,0c-3.58-.35-7.14-.58-9.68,2.75a12.22,12.22,0,0,0-4.44,7.16l.06.06c-.62-.12-.66.33-.71.78a1.5,1.5,0,0,0-.77,1.4c-.6.27-1.57.34-.78,1.42a161.32,161.32,0,0,0-6.71,17c-4.42,2.28-5.29,5.22-2.7,9.06q-.67,3.16-1.36,6.35c-.92,1-.84,2.29-.93,3.52-.06.27-.11.54-.16.81h0l-.56.53a11.11,11.11,0,0,0-2.66-1.06c-2.1-.27-4.24,0-5.42,2-.84,1.4-2.9,2.61-1.61,4.72,1.63,2.67,2.73,6,6.68,6.14,0,4.71-2,7.57-7,7.77-.47,0-.94.11-1.42.16a2.26,2.26,0,0,1-1.88.72,2.26,2.26,0,0,0,1.88-.72c-3-3.82-6.53-4.6-9.34-2a4.84,4.84,0,0,1-1.91-.77C838.27,122.45,829.9,119,820.31,120.52Zm20.2,244h0c-.09.21-.29.45-.24.59C840.22,365,840.42,364.7,840.51,364.5ZM757.45,153.21a1.29,1.29,0,0,1,.57.65,1.29,1.29,0,0,0-.57-.65Zm46.47-15.45c-.15-.06-.32-.19-.46-.23.14,0,.31.17.46.23Zm108.54,26.9a35.8,35.8,0,0,1-2.41,8.34h0a35.8,35.8,0,0,0,2.41-8.34,24.05,24.05,0,0,0,.28-3.27A24.05,24.05,0,0,1,912.46,164.66Zm39.91-26h0a7.88,7.88,0,0,0-2-.83A7.88,7.88,0,0,1,952.37,138.69Zm5.46-.55a9.4,9.4,0,0,1,.73,1.65A9.4,9.4,0,0,0,957.83,138.14Zm9,15.55a1.75,1.75,0,0,1-.58-1.11c-.24-.25-.48-.5-.73-.74a1.57,1.57,0,0,1-1.06-.39,1.57,1.57,0,0,0,1.06.39c.25.24.49.49.73.74A1.75,1.75,0,0,0,966.8,153.69Zm45.58,56c0-.57.49-.74,1-.78h0C1012.87,208.92,1012.43,209.09,1012.38,209.66ZM1016.3,267l-.61-.27.61.27ZM767,212.42h0a5,5,0,0,1,.27.51A5,5,0,0,0,767,212.42Zm-.15-29.17-.12,0h0l.12,0h0Zm-.33,25.58c0-.13.06-.26.1-.39C766.57,208.57,766.54,208.7,766.51,208.83ZM768.2,210a3.22,3.22,0,0,0-.19-.91,5.34,5.34,0,0,1-.18-.62,5.34,5.34,0,0,0,.18.62A3.22,3.22,0,0,1,768.2,210Zm0,0a.87.87,0,0,1-.15.47A.87.87,0,0,0,768.2,210Zm52.71-51.33a1.66,1.66,0,0,1,0,.22A1.66,1.66,0,0,0,820.91,158.69Zm89.19,15.7c0,1.4-.08,2.81-.1,4.21C910,177.2,910.11,175.79,910.1,174.39Zm67,140.65a8.42,8.42,0,0,0,0,.87A8.42,8.42,0,0,1,977.11,315Zm0,1.12a6,6,0,0,0,.13.74A6,6,0,0,1,977.16,316.16ZM975,295.85a.55.55,0,0,0-.32.07.55.55,0,0,1,.32-.07.5.5,0,0,1,.25.13A.5.5,0,0,0,975,295.85Zm-38,18.8c-2.88-3.19-5-6.93-7.14-10.59,2.18,3.66,4.26,7.4,7.14,10.59.12,1.17.23,2.34.35,3.5C937.24,317,937.13,315.82,937,314.65ZM922.56,285a2.39,2.39,0,0,1,1.46,1.73c5.2,1.34,9.53,4.33,14,7.15.63.4,1.26.8,1.9,1.19a3.45,3.45,0,0,1,.85-.41,3.45,3.45,0,0,0-.85.41c-.64-.39-1.27-.79-1.9-1.19-4.42-2.82-8.75-5.81-14-7.15A2.39,2.39,0,0,0,922.56,285Zm50,9-.61-.26.61.26Zm-17.87-33.58a5.31,5.31,0,0,1,2.71-1.13A5.33,5.33,0,0,0,954.64,260.37ZM942.7,267.3a4.79,4.79,0,0,1-.78-.4A4.79,4.79,0,0,0,942.7,267.3Zm-1.49-1a4.39,4.39,0,0,1-.63-.77A4.39,4.39,0,0,0,941.21,266.33Zm10.09-2.5-.9.87ZM938.05,244c.08-.2.17-.4.26-.6h0C938.22,243.57,938.13,243.77,938.05,244Zm7.3,23.87a10.72,10.72,0,0,1-2.23-.39,10.72,10.72,0,0,0,2.23.39l.46,0h0Zm.47,0a6.53,6.53,0,0,0,1.19-.46,6.53,6.53,0,0,1-1.19.46Zm8.77-55.5a11.22,11.22,0,0,0,1.18.06,11.22,11.22,0,0,1-1.18-.06v0Zm0,1.53,0,2.09a6.89,6.89,0,0,1,1.32.18,6.89,6.89,0,0,0-1.32-.18C954.62,215.3,954.62,214.6,954.61,213.91Zm-23.87,80.43.27-.61h0Zm.88-.35,0,0,0,0Zm9.49.53a2.3,2.3,0,0,1,1.08.1A2.3,2.3,0,0,0,941.11,294.52Zm4.34-155.1h0Zm-66,142.29c.27.39.52.79.75,1.19C880,282.5,879.74,282.1,879.47,281.71Zm-2.41-52.48a1.63,1.63,0,0,1-1,1.14,1,1,0,0,1-.68-.19,1,1,0,0,0,.68.19A1.63,1.63,0,0,0,877.06,229.23Zm-1.83.75a.94.94,0,0,1-.11-.43A.94.94,0,0,0,875.23,230Zm25.37,32a2.7,2.7,0,0,1,1,.93,2.7,2.7,0,0,0-1-.93c.34-1.87-1.16-2.86-2-4.18C899.44,259.09,900.94,260.08,900.6,262Zm-.45-90.86,1.07-.22Zm-5.44.46a12.76,12.76,0,0,1-6,3.9,12.76,12.76,0,0,0,6-3.9,9.8,9.8,0,0,0,4.75-.3A9.8,9.8,0,0,1,894.71,171.55Zm-8.33,4.57c.51-.13,1-.27,1.53-.43C887.4,175.85,886.89,176,886.38,176.12Zm-2.27.56,1.36-.33ZM824,238.05h0l-1.52-.09h0c0-.4,0-.79,0-1.18,0,.39,0,.78,0,1.18l1.52.09c0-.74,0-1.47.07-2.21a18,18,0,0,0,3.61-5.17,18,18,0,0,1-3.61,5.17C824,236.58,824,237.31,824,238.05Zm10.69-19.47s0,0,0,0S834.65,218.59,834.67,218.58Zm-9.19,4.87c.49-2.2,1-4.39,1.48-6.6-.46,2.21-1,4.4-1.47,6.6Zm-17.61,17.42a2.77,2.77,0,0,0,2.29-1.59,2.77,2.77,0,0,1-2.29,1.59c-1.44,1.83-2.43,3.94-3.71,5.88C805.44,244.81,806.43,242.7,807.87,240.87Zm22.62-18.32-.72-1,.72,1,.72.09Zm3.91-3.67a2.43,2.43,0,0,0-.25,1.52l.74.42-.74-.42A2.43,2.43,0,0,1,834.4,218.88Zm.41-.38a1.59,1.59,0,0,1,.63-.24A1.59,1.59,0,0,0,834.81,218.5Zm-5.64-9.78c.55-2.66.77-5.44,2-7.89-1.23,2.45-1.45,5.23-2,7.89Zm-1.33-49.64a8.2,8.2,0,0,1,1-.23A8.2,8.2,0,0,0,827.84,159.08ZM810,169.28a8.09,8.09,0,0,0-1,.36,8.09,8.09,0,0,1,1-.36c.26-3.71,2.7-5.44,5.31-7C812.69,163.84,810.25,165.57,810,169.28ZM792.47,222.7a10.12,10.12,0,0,1-1.56-8.2,15.21,15.21,0,0,1,1-2.82h0a15.21,15.21,0,0,0-1,2.82,10.12,10.12,0,0,0,1.56,8.2c0,.31,0,.62,0,.93C792.48,223.32,792.48,223,792.47,222.7Zm0,1.38Zm4.28,31.37c3.5-1.59,6.29-4.12,9-6.7-2.74,2.58-5.53,5.11-9,6.7Zm21.9-2.26h0c-.19,3.55.09,7.21-.47,10.67C818.78,260.4,818.5,256.74,818.69,253.19Zm78.2,70.15h0a3.28,3.28,0,0,0-.24,1,1.42,1.42,0,0,0,.08.48,1.42,1.42,0,0,1-.08-.48A3.28,3.28,0,0,1,896.89,323.34Zm49-23.36-2.2-1.48,2.2,1.48Zm28.43,25.56c-.35-.83-.64-1.5-.85-2.06.21.56.5,1.23.85,2.06Zm2.84-10.5c0-.48,0-1,0-1.44C977.13,314.08,977.11,314.56,977.11,315Zm17.64-122.36,0,0,0,0a1.28,1.28,0,0,1,1.32.87A1.28,1.28,0,0,0,994.75,192.68Zm-42.39-49.56h0c0-1.48,0-3,0-4.43C952.37,140.17,952.37,141.64,952.36,143.12ZM870,230.39l-.06.27h0Zm.21-.65a1.42,1.42,0,0,0-.13.33A1.42,1.42,0,0,1,870.16,229.74ZM832.7,155.55c0,2.61-1.69,2.93-3.37,3.22,1.68-.29,3.33-.61,3.37-3.22,1.44-1.59,3.46-2.56,4.93-4.12C836.16,153,834.14,154,832.7,155.55Zm-7.43,2.39a22.35,22.35,0,0,0-4.28,1.9h0a21.75,21.75,0,0,1,4.28-1.9c1.48-.5,3-.91,4.48-1.37C828.26,157,826.75,157.44,825.27,157.94Zm-6.49-5.4h0c.36,1.22.92,2.38,1.39,3.57C819.7,154.92,819.14,153.76,818.78,152.54Zm-19.64,46.05c0-1.45-.06-2.9,0-4.35,0,1.45,0,2.9,0,4.35Zm-32.2,14.18a1.08,1.08,0,0,0,0,.35l0,3.66,0-3.66A1.08,1.08,0,0,1,766.94,212.77Zm5.56,12.6c.12-.6.23-1.21.29-1.82-.06.61-.17,1.22-.29,1.82a11.76,11.76,0,0,0-.39,4.61,14.55,14.55,0,0,0,.66,1.65,14,14,0,0,1-.66-1.66A11.72,11.72,0,0,1,772.5,225.37Zm1.8,9.07c-.14-.23-.28-.46-.41-.69C774,234,774.16,234.21,774.3,234.44Zm.94,1.51-.48-.75ZM908.8,360.28c-.09.23-.16.46-.23.68C908.64,360.74,908.71,360.51,908.8,360.28Zm.43-5.48h0c.4-.94-.31-1.86-.29-3C908.92,352.94,909.63,353.86,909.23,354.8Zm-.27-3.34a2.61,2.61,0,0,1,.2-.68A2.61,2.61,0,0,0,909,351.46Zm63-12.58a10.3,10.3,0,0,1-1.47,0A10.3,10.3,0,0,0,972,338.88Zm8.84-15.73c-.23-.32-.46-.63-.72-.93C980.36,322.52,980.59,322.83,980.82,323.15Zm5.43-17.77a4.17,4.17,0,0,1-2.47,1.19,12.24,12.24,0,0,1,.27,2.52,1.39,1.39,0,0,1-.3.79,1.22,1.22,0,0,1-.5.33,1.22,1.22,0,0,0,.5-.33,1.39,1.39,0,0,0,.3-.79,12.24,12.24,0,0,0-.27-2.52,4.17,4.17,0,0,0,2.47-1.19,8.52,8.52,0,0,1,1.39-.95A8.52,8.52,0,0,0,986.25,305.38Zm1.67,9.6a6.12,6.12,0,0,0-.5-.78A6.12,6.12,0,0,1,987.92,315Zm2-21.36h0c.21.09.46.29.6.24C990.33,293.91,990.08,293.71,989.87,293.62ZM976.38,148.13a9.71,9.71,0,0,1,1-.21,9.71,9.71,0,0,0-1,.21,3.77,3.77,0,0,0-.77.29A3.77,3.77,0,0,1,976.38,148.13Zm-1.06.45a1.34,1.34,0,0,0-.39.4A1.34,1.34,0,0,1,975.32,148.58Zm-.51.68c-.18.63.19,1.46,1,2.53a5.29,5.29,0,0,1,1.39.16,5.29,5.29,0,0,0-1.39-.16C975,150.72,974.63,149.89,974.81,149.26Zm-5.54-20.33c.33.06.66.1,1,.13C969.93,129,969.6,129,969.27,128.93Zm-.84,20.7,0,.6,0-.6Zm-9.48-8c0-.32-.09-.62-.15-.93.06.31.12.61.15.93h0Zm-19.72-13.86a2,2,0,0,1-1.64-1,2,2,0,0,0,1.64,1Zm-4.4,9.48h0c-.06,1,.61,1.23,1.26,1.5-.65-.27-1.32-.51-1.26-1.5l-6.55-4.9Zm-171.12,5.3a3.91,3.91,0,0,0,1.07-2.39h0A3.91,3.91,0,0,1,763.71,142.52Zm-5.12,75.2c-1.83.13-3.66.21-5.49.28C754.93,217.93,756.76,217.85,758.59,217.72Zm8,.24c.2,1.24.12,2.61,1.6,3.29.53,2.16,1.07,4.33,1.6,6.5-.53-2.17-1.07-4.34-1.6-6.5C766.74,220.57,766.82,219.2,766.62,218Zm4.47,14.63c1.78,4,3.7,7.85,7.51,10.51,2.76,3.24,5.64,6.29,9.21,8.2a16.13,16.13,0,0,0,2.24,1,16.13,16.13,0,0,1-2.24-1c-3.57-1.91-6.45-5-9.21-8.2C774.79,240.44,772.86,236.56,771.09,232.59Zm17.84,94.25a7.79,7.79,0,0,1,0-1.28c-1.37-1.43-2.79-2.79-4.18-4.19-.7-.7-1.38-1.42-2.05-2.16.67.74,1.35,1.46,2.05,2.16,1.39,1.4,2.81,2.76,4.18,4.19a7.79,7.79,0,0,0,0,1.28,2.19,2.19,0,0,0,.19.58A2.19,2.19,0,0,1,788.93,326.84Zm8.72,35.2c.54-.2.6-.46.1-.8l-.7-.71.58-.74c0-.19,0-.39,0-.58l-.06-.82c-2.22-2.09-2.07-4.7-1.56-7.06-.51,2.36-.66,5,1.56,7.06l.06.82c0,.19,0,.39,0,.58l-.58.74.7.71C798.25,361.58,798.19,361.84,797.65,362Zm.68-2.92h0c.26-.07.69-.16.88-.23C799,359,798.59,359.05,798.33,359.12Zm84.17,5.66.37-.24c0,.13.07.25.1.37Zm12.85,1c0,.28,0,.57,0,.85,0-.28,0-.57,0-.85a4.16,4.16,0,0,1-1.94-3.16A4.16,4.16,0,0,0,895.35,365.73Zm-.07,1.44a10.69,10.69,0,0,0,2.81,1.74,10.69,10.69,0,0,1-2.81-1.74Zm13.08-5A3.23,3.23,0,0,0,910,365c0,.46,0,.92,0,1.38V365A3.23,3.23,0,0,1,908.36,362.19Zm72-25c-2.45.4-5,1.25-7.43,1.56,2.46-.31,5-1.16,7.43-1.56Zm4.83-9.45a8.32,8.32,0,0,1-3.64-3.5,8.32,8.32,0,0,0,3.64,3.5,2.47,2.47,0,0,0,.75,1A2.47,2.47,0,0,1,985.23,327.78Zm3.68-10.27a18.72,18.72,0,0,1-.65,1.83,18.72,18.72,0,0,0,.65-1.83c-.1-.36-.21-.7-.32-1,.11.33.22.67.32,1a6.57,6.57,0,0,0,2.62-4.49A6.57,6.57,0,0,1,988.91,317.51Zm-.76-2.09c.1.2.19.41.27.62C988.34,315.83,988.25,315.62,988.15,315.42ZM1021.72,203c-.72-.32-1.38-1-2.22-.78h0C1020.34,202,1021,202.67,1021.72,203Zm-37.21-46.8c3.8,1.81,7.61,3.59,11.39,5.44-3.78-1.85-7.59-3.63-11.39-5.44l-2.2-.72Zm-11.69-27h0l-1.53-.06ZM911,122.52a9.63,9.63,0,0,1-1.4.62A9.63,9.63,0,0,0,911,122.52ZM892.67,67.61a3.87,3.87,0,0,0,.46.68A3.87,3.87,0,0,1,892.67,67.61Zm.77,1,.12.11Zm2.65.63h0c1.22,1.67.85,3.14.38,4.76l-.24.82.24-.82C896.94,72.4,897.31,70.93,896.09,69.26ZM898,66.58c.74.9,1.32,2.08,2.59,2.07h0C899.29,68.66,898.71,67.48,898,66.58Zm2.57,2.77a7.09,7.09,0,0,0,2.29,4.8A7.09,7.09,0,0,1,900.54,69.35Zm2.71,5.22c.29.29.59.56.89.84C903.84,75.13,903.54,74.86,903.25,74.57ZM854.4,130.16l-.47-.24Z"/><path class="cls-1" d="M1093.89,370.29c.09-3.3-3.06-5.93-7.17-6-5.41-.06-8.75,2.7-8.81,7.28-.05,3.63,3.23,6.45,7.58,6.51C1090.33,378.17,1093.76,375,1093.89,370.29Z"/><path class="cls-1" d="M836.2,113.68a6.84,6.84,0,0,0,7.15,6.71c4.58,0,7.64-2.81,7.57-6.9-.07-3.43-4.62-7.68-8.22-7.66C838,105.86,836.15,108.09,836.2,113.68Z"/><path class="cls-1" d="M925.37,387.68c.26-4.33-2.86-8-6.87-8.16-3.22-.11-7.53,3.6-7.58,6.51a7.93,7.93,0,0,0,7.57,8.15A6.74,6.74,0,0,0,925.37,387.68Z"/><path class="cls-1" d="M900.05,389.09c-3.81,0-7.66,3.67-7.47,7.29.16,3.2,4.23,7,7.44,6.49,3.61,0,7.15-3,7.08-5.86C907,392.57,903.87,389.07,900.05,389.09Z"/><path class="cls-1" d="M773.61,458.15c.36-5.5-3.21-6.67-8.89-7.71-3.16-.58-4.86,1.88-4.89,6.08,0,4.72,2.81,7.78,7.16,7.71A6.49,6.49,0,0,0,773.61,458.15Z"/><path class="cls-1" d="M1066.23,393.35c0-3.37-3.69-7.92-6.56-8-3.68-.1-6.64,3.19-6.7,7.44-.06,4.54,2.94,7.92,7.08,8C1062.64,400.82,1066.19,396.56,1066.23,393.35Z"/><path class="cls-1" d="M825.33,452.46c4.57,0,5.71-1.24,5.75-6.2,0-4.4-2.91-7.67-6.86-7.63a7.33,7.33,0,0,0-6.88,7C817.3,449.53,820.71,452.46,825.33,452.46Z"/><path class="cls-1" d="M1026.56,336.46c-2.59.06-8.48,5-8.45,7.07,0,3.1,4.74,7.72,7.62,7.49,3.26-.27,7.65-4.82,7.5-7.77C1033.09,340.54,1029,336.41,1026.56,336.46Z"/><path class="cls-1" d="M877.12,397.33c.07-3-4.1-6.15-8-6.14s-6.48,2.14-6.49,5.56c0,4.28,2.6,7.63,6,7.68C873.35,404.49,877,401.44,877.12,397.33Z"/><path class="cls-1" d="M1069.14,373.1c-.47-6.26-1.78-8.13-6-8.13-3.57,0-7.77,3.94-7.79,7.28,0,3.13,4.68,7.32,8,7.16C1066.29,379.27,1069.36,376.11,1069.14,373.1Z"/><path class="cls-1" d="M1031.94,365.91c0-3.41-3.73-7.58-6.6-7.48-3.52.13-7.32,3.86-7.32,7.16-.81,3.82,3.93,6.94,8.68,7.33C1028.79,373.09,1032,368.63,1031.94,365.91Z"/><path class="cls-1" d="M1050.68,417.46c3.07-.07,7.35-3.39,7.42-5.75.14-4.72-2.19-7.28-6.6-7.28-4.66,0-8,2.68-8,6.36C1043.59,414.17,1047.21,417.55,1050.68,417.46Z"/><path class="cls-1" d="M999.09,340.19c-.06,3.52,3.86,7.19,7.69,7.19s6.27-2.32,6.3-6.27c0-4.33-3-7.54-7.05-7.51C1002.9,333.63,999.14,337.2,999.09,340.19Z"/><path class="cls-1" d="M903.31,478.05c3.09-.05,6.87-4.13,6.84-7.37,0-2.71-3.2-7-5.24-7.14-3-.14-9.25,4-9.14,6C896,473.68,899.94,478.11,903.31,478.05Z"/><path class="cls-1" d="M876.49,370.76c-2.94-.1-5.76,3-6,6.6s4,8,7.5,8c2.56,0,6.44-3.63,6.45-6C884.49,375.68,880.06,370.89,876.49,370.76Z"/><path class="cls-1" d="M880,27.08c3.65.09,6.78-3.34,6.81-7.46s-3-7.84-6.07-7.85c-2.88,0-6.4,3.86-6.46,7.09C874.19,23.78,876.43,27,880,27.08Z"/><path class="cls-1" d="M1064.66,343.06c-3.61.06-6.56,3.58-6.46,7.69.08,2.85,3.83,6.14,7,6.09,3.86-.07,7-2.68,6.95-5.73C1072,346.57,1068.66,343,1064.66,343.06Z"/><path class="cls-1" d="M988.16,371.63c0-3-4-7.39-6.76-7.37-4.21.05-7.13,2.69-7.12,6.47,0,4,2.86,7.33,6.35,7.36S988.17,374.54,988.16,371.63Z"/><path class="cls-1" d="M1087.7,343c-4.08,0-7,2.86-6.94,6.75,0,3.39,3.42,6.89,6.7,6.92,3,0,7.6-3.82,7.64-6.32C1095.13,347.49,1090.63,343,1087.7,343Z"/><path class="cls-1" d="M1051.64,371.18c.09-3.64-2.57-6.88-5.62-6.87-4,0-8.37,3.46-8.29,6.61.08,3,4.8,7,8.22,6.95S1051.54,375.13,1051.64,371.18Z"/><path class="cls-1" d="M648.34,29.93c3,.1,6.17-3.22,6.29-6.61.08-2.47-3.17-6.94-5.19-7.13-4.24-.41-8.62,2.74-8.79,6.32C640.46,26.48,643.89,29.79,648.34,29.93Z"/><path class="cls-1" d="M981,452.45a7.42,7.42,0,0,0,7-6.69,6.37,6.37,0,0,0-6-6.25c-4.11,0-8.34,3.34-8.31,6.63C973.78,450,976.64,452.43,981,452.45Z"/><path class="cls-1" d="M1045.28,293.43c4.44,0,7.72-2.84,7.7-6.58,0-4.22-2.68-6.65-7.21-6.61-4.27,0-6.56,2.11-6.55,5.91C1039.23,289.56,1042.47,293.45,1045.28,293.43Z"/><path class="cls-1" d="M1021.93,278c-3.15-.14-6.37,3.64-6.67,6.9-.27,2.83,4.19,6.94,7.19,7,3.46,0,6.74-3.49,6.7-7.2S1025.81,278.21,1021.93,278Z"/><path class="cls-1" d="M1054.75,220.43c-3.78-.06-7.41,3-7.5,6.36s4.26,7.62,7.55,7.47c2.23-.1,6.26-4.42,6.34-6.81C1061.25,223.9,1058.14,220.47,1054.75,220.43Z"/><path class="cls-1" d="M754,386c0,2.68,4.24,7.2,6.95,7.38s6.71-3.6,6.8-6.52c.11-3.55-3.37-7.3-6.77-7.31C756.75,379.52,754,382.08,754,386Z"/><path class="cls-1" d="M974.32,389.1c-2.78-.06-6.71,3.71-6.62,6.34.14,3.91,3.72,7.49,7.44,7.43,2.5,0,6.94-4.13,7-6.45S977,389.16,974.32,389.1Z"/><path class="cls-1" d="M1062.34,77.4c3.69-.06,6.14-2.51,6.09-6.1s-4.08-7.8-7.67-7.81c-2.37,0-6.15,4.39-6.17,7.16C1054.57,73.79,1058.77,77.45,1062.34,77.4Z"/><path class="cls-1" d="M1021.81,425.71c0-3.46-3.42-6.69-7.22-6.74-3.34-.05-6.63,4-6.55,8.15.05,2.16,4,5.64,6.41,5.62C1018.1,432.72,1021.76,429.22,1021.81,425.71Z"/><path class="cls-1" d="M1039.37,397.77c4.54,0,7.21-2.17,7.19-5.82,0-4.16-3.31-8.76-6.24-8.7s-6.24,4.15-6.23,8C1034.1,396.11,1035.46,397.78,1039.37,397.77Z"/><path class="cls-1" d="M882.31,50.53c.09,2.89,3.28,6.34,5.91,6.39,4.69.09,8.45-3,8.57-7,.08-2.89-4.22-5.83-8.94-6.1C885.91,43.7,882.24,48.14,882.31,50.53Z"/><path class="cls-1" d="M814.3,433.67c-.07-2.22-4.66-6-7.27-6-3.93,0-7.2,2.82-7.14,6.13a7.62,7.62,0,0,0,7.36,7.06C810.42,440.77,814.4,436.7,814.3,433.67Z"/><path class="cls-1" d="M945.32,390.54c2.37.1,4.94-2.62,5-5.24,0-6.27-1.89-8.71-6.9-8.75-3.85,0-5.67,1.95-5.7,6.19C937.65,387.39,940.54,390.33,945.32,390.54Z"/><path class="cls-1" d="M1019.45,396.26c3.18-.19,6.66-3.77,6.68-6.85s-3.76-6.32-7.16-6.25c-4.63.1-7.2,2.64-7.19,7.09C1011.79,392.74,1016.52,396.45,1019.45,396.26Z"/><path class="cls-1" d="M1039.22,303.73c0-3.2-3.15-5.61-7.82-5.9-2.28-.14-6.7,3.87-6.76,6.13-.08,3,3.7,6.81,6.77,6.85C1035.28,310.85,1039.18,307.32,1039.22,303.73Z"/><path class="cls-1" d="M1037.74,410.82a6.26,6.26,0,0,0-6.67-6.38c-4.22,0-6.49,2.11-6.48,5.94,0,4.37,2.3,7.14,5.87,7.09C1035,417.4,1037.79,414.81,1037.74,410.82Z"/><path class="cls-1" d="M655.77,727.78a7.52,7.52,0,0,0-6.88,7c0,2.47,4,6.48,6.47,6.5,3.26,0,7.12-4,7.1-7.42A6.44,6.44,0,0,0,655.77,727.78Z"/><path class="cls-1" d="M756,445c0-3.23-3.63-6.34-7.33-6.33-4.52,0-6.57,2.09-6.55,6.65s1.26,5.8,6.56,5.81C752.33,451.11,756.06,448,756,445Z"/><path class="cls-1" d="M731.18,384.83c0,3.26,3.49,6.23,7.49,6.37,2.32.08,5.61-3.15,5.7-5.59.14-4.28-2.73-8.05-6.17-8.1A7.28,7.28,0,0,0,731.18,384.83Z"/><path class="cls-1" d="M868.92,419.34c.15-3.64-2.72-6.94-6-7-3.8-.77-7.55,2.85-8,7.05-.29,2.78,3.25,6.07,6.43,6.16C864.26,425.67,868.81,421.94,868.92,419.34Z"/><path class="cls-1" d="M881,442.83c2.19-.16,5.79-5,5.73-7.73a6.79,6.79,0,0,0-6.56-6.41c-3,.06-7,3.65-7,6.29S878.49,443,881,442.83Z"/><path class="cls-1" d="M925.76,486.66c3.86,0,7.58-3.33,7.49-6.75-.08-3.23-3.86-7-7.08-7-2.9,0-6.45,4.07-6.48,7.45C919.66,483.14,923.06,486.64,925.76,486.66Z"/><path class="cls-1" d="M1061.31,335.05c3.49,0,7.06-3.81,7-7.47-.06-3.31-2.33-5.74-5.39-5.77-4.11,0-8.41,3.53-8.38,6.95C1054.58,332,1057.85,335.05,1061.31,335.05Z"/><path class="cls-1" d="M708.68,730.69c0-4.2-3.35-8.21-6.88-8.2-2.67,0-6.69,4.15-6.8,7s4.28,6.22,8.11,6.22S708.67,734.08,708.68,730.69Z"/><path class="cls-1" d="M1040,331.51c3.8.08,7.31-3,7.31-6.42s-3.58-6.8-7.41-6.85c-4.16-.05-5.78,1.7-5.81,6.31C1034.05,327.92,1037.05,331.45,1040,331.51Z"/><path class="cls-1" d="M853.41,100c3.91,0,6.29-2.36,6.29-6.17,0-3.19-4.3-7-7.63-6.84s-6.24,3.08-6.17,5.94A7.53,7.53,0,0,0,853.41,100Z"/><path class="cls-1" d="M766,358.4c-2.44.06-6,4.75-6.14,8.07-.11,3,3,5.82,6.51,5.86,2.41,0,7-3.61,7.13-5.61C773.67,363.47,769,358.33,766,358.4Z"/><path class="cls-1" d="M1107.72,335.44c2.91.1,6.5-3.72,6.61-7,.1-3.09-3.1-6.58-6-6.57-3.16,0-7.53,3.44-7.56,6C1100.68,331.05,1104.59,335.33,1107.72,335.44Z"/><path class="cls-1" d="M892.11,459.85c3.48,0,7-3.26,6.94-6.4-.13-3.68-3.89-6.89-7.93-6.76-2.72.09-5.82,3.74-5.81,6.83C885.33,457.1,888.26,459.83,892.11,459.85Z"/><path class="cls-1" d="M1003.74,57.69c2.46,0,6.81-4.45,6.9-7.09.08-2.06-3.9-6.72-5.78-6.79-4.81-.2-7.38,2.13-7.37,6.66S999.81,57.68,1003.74,57.69Z"/><path class="cls-1" d="M906.22,423.9c0-3.41-2.31-7.67-4.2-7.63-4.91.09-8,3.1-8,7.84,0,3.69,2.26,6.54,5.24,6.49C903.52,430.53,906.18,428,906.22,423.9Z"/><path class="cls-1" d="M837.79,407.13c0,2.59,4.56,6.85,7.3,6.76,3-.09,5.87-3.59,5.84-7.11s-3.25-7-6.22-6.86C841.51,400,837.83,403.86,837.79,407.13Z"/><path class="cls-1" d="M679.93,781.77c4-.11,7.2-2.65,7.17-5.6,0-2.16-6.3-8.12-8.55-8.12s-5.09,4.05-5,7.11C673.74,780,675.58,781.89,679.93,781.77Z"/><path class="cls-1" d="M1061.88,306.7c.11-3.55-2.72-7.32-5.57-7.43-4-.16-7.27,2.54-7.44,6.21-.21,4.32,1.94,6.78,6.05,6.91C1058.77,312.52,1061.78,310.05,1061.88,306.7Z"/><path class="cls-1" d="M703.52,775.89c3.94,0,7.19-3,7.29-6.58.08-3-3.33-6.31-6.55-6.38-2.71,0-7.2,3.42-7.27,5.61C696.87,772.62,699.8,775.92,703.52,775.89Z"/><path class="cls-1" d="M679.42,632.53c0-3.42-3.81-7.55-6.89-7.41-3.36.14-6.23,2.75-6.31,5.73-.09,4,2.59,7.75,5.56,7.74C676.64,638.57,679.4,636.38,679.42,632.53Z"/><path class="cls-1" d="M958.19,43.8c-3.85,0-7.31,3.5-7.12,7.13.17,3.07,3.27,5.46,6.95,5.34,4.67-.16,7-2.37,6.77-6.52A6.63,6.63,0,0,0,958.19,43.8Z"/><path class="cls-1" d="M691.35,170a6.18,6.18,0,0,0-6.15,6.62,7,7,0,0,0,6.72,6.72c3.4,0,6.64-3.19,6.55-6.38C698.38,173.28,694.89,169.87,691.35,170Z"/><path class="cls-1" d="M708.17,147.65c-2.78-.15-6.76,3.77-6.88,6.8-.14,3.25,3.73,6.73,7.36,6.88,3.45.15,5.09-3,5.84-6.54C714.6,150.51,712.25,147.86,708.17,147.65Z"/><path class="cls-1" d="M645.25,54.77c2.69,0,5.56-3,5.64-6,.08-3.33-3.75-7.09-7.31-7.17-3.08-.06-6.32,2.47-6.48,5.08C636.85,50.48,641.08,54.68,645.25,54.77Z"/><path class="cls-1" d="M685.43,617.24c2.92.06,5.61-3,5.59-6.3,0-4-2.14-5.8-6.84-5.77-5.53,0-7,1.18-7,5.38C677.27,613.75,681.45,617.16,685.43,617.24Z"/><path class="cls-1" d="M849.38,395.65c4.46-.45,8.26-2.7,7.41-6.09,0-4-3.3-7.79-6.58-7.7-2.7.09-6.42,4.34-6.48,7.41S846.66,395.92,849.38,395.65Z"/><path class="cls-1" d="M683.11,812.83c0-3.93-2.65-7.5-5.73-7.58-2.74-.08-7.13,4.33-7.3,7.31-.13,2.39,4.36,7,6.81,7A6.54,6.54,0,0,0,683.11,812.83Z"/><path class="cls-1" d="M679.65,669.08c2.48.09,5.52-3.29,5.53-6.17,0-4.2-2.61-8-5.62-8.14-2.77-.11-6.67,3.69-6.67,6.51C672.89,665,676.33,669,679.65,669.08Z"/><path class="cls-1" d="M674.8,753.1c-.12-3.8-3.54-7.62-6.93-7.76-3-.13-6.82,3.95-6.75,7.28.06,3.1,3.34,5.75,7.11,5.75S674.9,756,674.8,753.1Z"/><path class="cls-1" d="M666.73,42.53c-2.44-.08-6.25,4.1-6.31,6.91a6.94,6.94,0,0,0,6.88,6.75,6.54,6.54,0,0,0,6.31-6.43C673.61,46.63,669.8,42.62,666.73,42.53Z"/><path class="cls-1" d="M1017,144.48c-3.31-.16-8.14,3.57-8.34,6.45-.17,2.58,4.39,6.69,7.46,6.72,2.23,0,6.82-4.67,6.9-7.05C1023.15,148.07,1019.75,144.62,1017,144.48Z"/><path class="cls-1" d="M702.72,826.85c2.81-.22,7-4.38,7.12-7.06.12-3-4-6.5-7.55-6.45-2.92,0-6.19,3.9-6.14,7.24C696.2,823.06,700.35,827,702.72,826.85Z"/><path class="cls-1" d="M690.78,596.39c4.16,0,7.62-2.41,7.67-5.42,0-3.2-3.94-7.81-6.66-7.69-4,.17-6.62,2.68-6.61,6.45C685.18,594.62,686.63,596.36,690.78,596.39Z"/><path class="cls-1" d="M1077.16,328.5c0,4.33,2.22,6.56,6.38,6.54s7.49-2.72,7.53-6.17c0-3-3.35-6.3-6.37-6.24C1080.86,322.71,1077.14,325.61,1077.16,328.5Z"/><path class="cls-1" d="M857.41,30.63a6.4,6.4,0,0,0,5.91-6.13c0-3.6-3.56-6.85-7.47-6.85-3.14,0-6.17,2.77-6,5.5C850,26.94,853.82,30.68,857.41,30.63Z"/><path class="cls-1" d="M743.72,333.63c-3.05-.06-5.9,3.25-6,6.92,0,3.09,3.2,6.49,6.39,6.7,2.76.18,6.5-4.25,6.78-7.46C751.25,336.29,747.18,334.56,743.72,333.63Z"/><path class="cls-1" d="M768.15,426.07c.08-3-3.61-6.21-7.17-6.29-2.82-.06-6.78,3.32-6.85,5.86-.08,3.08,3.64,7.1,6.61,7.15C763.93,432.84,768.08,429.08,768.15,426.07Z"/><path class="cls-1" d="M665.83,681.8c3.76,0,6.28-2.21,6.27-5.45,0-2.27-4.56-7.07-6.68-7-5,.12-7.1,2-7.07,6.15C658.37,679.31,661.34,681.82,665.83,681.8Z"/><path class="cls-1" d="M673.56,700.72c3.86,0,8.12-3.43,8-6.46s-4.43-6.47-8.12-6.68c-2.31-.13-5.71,4.51-5.69,7.77S670,700.71,673.56,700.72Z"/><path class="cls-1" d="M656.1,559.8c3.29,0,7.28-4.09,7.17-7.41-.11-2.91-3.36-6.28-6.23-6.43a6.68,6.68,0,0,0-6.84,6.47C650.17,556.08,653.11,559.76,656.1,559.8Z"/><path class="cls-1" d="M967,126.35a.13.13,0,0,1,0-.06h-.05l0,0Z"/><path class="cls-1" d="M649.5,769.74c-.12,2.88,3.42,6.63,6.36,6.75s7.83-4,8.07-6.77c.13-1.56-5.82-7-7.74-7.05S649.59,767.55,649.5,769.74Z"/><path class="cls-1" d="M1064,97.9a6.35,6.35,0,0,0-6.57,6.51c0,3.46,2.75,7.25,5.25,7.25,3.55,0,7.23-3.63,7.26-7.16C1069.94,100.81,1067.34,97.91,1064,97.9Z"/><path class="cls-1" d="M878.78,411.18c-.21,3.3,3.11,7,6.34,7,4.23.06,6.65-2.17,6.7-6.16.06-4.27-2.46-7-6.43-7C883.08,405.12,878.92,409,878.78,411.18Z"/><path class="cls-1" d="M785.32,437.43c0-3-2.9-6.12-5.78-6.08-3.6,0-8,3.48-8,6.17.06,3.21,4,7.11,7.18,7C781.66,444.47,785.28,440.54,785.32,437.43Z"/><path class="cls-1" d="M626.17,35.76c4.05,0,5.77-2,5.82-6.72,0-3.49-2.45-6.43-5.51-6.5-3.7-.09-7.39,3.22-7.29,6.53S623,35.75,626.17,35.76Z"/><path class="cls-1" d="M792.64,422.54c3.91,0,5.8-2,5.79-6.09,0-4.51-1.59-6.08-6.13-6.1-3.75,0-7.09,2.55-7,5.34C785.54,419.89,788.31,422.49,792.64,422.54Z"/><path class="cls-1" d="M1036.73,245.82c2.08,0,6.07-4.53,6.08-6.86a7.36,7.36,0,0,0-6.63-6.85c-2.62-.06-6.9,4.16-6.91,6.83S1033.86,245.88,1036.73,245.82Z"/><path class="cls-1" d="M1056.11,138.74c-2.76-.2-5.87,3.37-5.91,6.8s2.29,6.22,5.49,6.32c4.29.12,7.5-2.73,7.54-6.72C1063.26,141.94,1060,139,1056.11,138.74Z"/><path class="cls-1" d="M679.83,38.67c4.47.22,5.22-2,5.93-6.53.45-2.9-2.8-6.51-5.54-6.57-3.6-.09-7.08,2.36-7.31,5.12A7.46,7.46,0,0,0,679.83,38.67Z"/><path class="cls-1" d="M1078.61,109.55c-.07,3.59,2.5,5.83,6.68,5.81,4.37,0,6.67-2.15,6.5-6.3s-2.27-5.78-7-6.21C1081.58,102.55,1078.69,105.89,1078.61,109.55Z"/><path class="cls-1" d="M969.56,37.31c3.17,0,7.07-4.07,6.89-7.12-.14-2.33-3.53-5.35-6-5.37-4,0-7.81,2.85-7.86,5.93C962.5,34.47,965.58,37.36,969.56,37.31Z"/><path class="cls-1" d="M660,452.41c2.49.2,6.07-3,6.24-5.52.25-3.71-3.32-7.8-7-8-1.91-.1-6.65,4.75-6.76,6.92S657.19,452.18,660,452.41Z"/><path class="cls-1" d="M903,19.73c3.66,0,7-3,6.93-6.32a6.71,6.71,0,0,0-6.86-6.76c-2.57,0-6,3.62-6.16,6.56S900.24,19.75,903,19.73Z"/><path class="cls-1" d="M725.43,776.64c3.34-.07,7.22-3.51,7.23-6.41,0-3.09-3.32-6.1-6.78-6.12-3.77,0-6.9,2.62-7,5.86A6.76,6.76,0,0,0,725.43,776.64Z"/><path class="cls-1" d="M1099.73,284.57c.2-2.54-4-5.74-7-5.65-2.79.09-6.13,3.44-6,6.08.13,4,2.78,6.95,6.26,6.92C1097.55,291.91,1099.41,288.5,1099.73,284.57Z"/><path class="cls-1" d="M705.58,395.08c-3.15.26-7.2,4.4-7.11,7.26.08,2.68,4.18,6.47,6.91,6.39s6.62-4.27,6.68-7C712.1,399.56,707.54,394.91,705.58,395.08Z"/><path class="cls-1" d="M993.89,348.93c-2.23,0-6.2,4.8-6.3,7.61-.09,2.6,4.21,6.23,7.34,6.19,2.17,0,5.91-3.63,6-5.76C1001,354.06,996.53,348.93,993.89,348.93Z"/><path class="cls-1" d="M1010.79,322.63c0,3,2.77,5.13,6.67,5.12,3.41,0,7.27-3.58,7.17-6.62-.1-2.84-3.71-6-6.77-5.89C1014.37,315.34,1010.74,319.13,1010.79,322.63Z"/><path class="cls-1" d="M644.56,795.6c3.21,0,6.34-2.93,6.35-6,0-2.7-4.42-7.17-7-7.1-2.31.06-6.68,3.86-6.73,5.85C637.08,791.44,641.26,795.55,644.56,795.6Z"/><path class="cls-1" d="M742.67,99.19c-3.69-.19-7.68,3.1-7.8,6.44-.09,2.38,4.21,6.82,6.55,6.78a6.79,6.79,0,0,0,6.61-6.72C748.13,102.38,745.62,99.34,742.67,99.19Z"/><path class="cls-1" d="M764.87,337.19c-3.45,0-6.35,3.22-6.35,7,0,3.13,2.82,5.55,6.38,5.47s7.76-4.09,7.59-7C772.34,340.15,768.19,337.17,764.87,337.19Z"/><path class="cls-1" d="M861.71,435c-.11-1.65-5.75-5.6-8.16-5.71-1.65-.08-5.61,4.81-5.58,6.89.06,3.07,3.76,6.82,6.72,6.78S861.92,438.09,861.71,435Z"/><path class="cls-1" d="M876.13,46.66c2.42,0,6.14-4.29,6.19-7.06.06-3.31-2.75-6.52-5.79-6.62s-7.25,3.6-7.37,6.33C869.05,41.89,873.62,46.71,876.13,46.66Z"/><path class="cls-1" d="M1064,188.45c-.13,3.39,3.14,6.35,7.11,6.45,3,.08,6.42-2.75,6.64-5.52.21-2.56-4.08-6.83-6.86-6.85C1067.24,182.52,1064.14,185.18,1064,188.45Z"/><path class="cls-1" d="M641.49,819.37c0-4-2.71-7.11-6.13-7.12a6.45,6.45,0,0,0-6.34,6.8,6.62,6.62,0,0,0,6.42,6.43A5.8,5.8,0,0,0,641.49,819.37Z"/><path class="cls-1" d="M1046.24,341.56c-2.35,0-6.75,4.81-6.93,7.55-.14,2.06,4.88,5.65,7.9,5.65,3.41,0,5.74-2.22,5.75-5.46C1053,345.67,1049.39,341.54,1046.24,341.56Z"/><path class="cls-1" d="M993.46,120.86c2.06.15,5.62-4,5.64-6.54,0-3.86-2.74-6.93-6.29-6.93-3,0-6.83,3.77-6.86,6.79C985.93,116.84,990.19,120.64,993.46,120.86Z"/><path class="cls-1" d="M691,445.19c.12-2.38-4.23-6.53-6.89-6.56-4.31-.05-6.86,2.18-6.88,6,0,3.57,2.53,6.58,5.62,6.64C685.72,451.35,690.87,447.49,691,445.19Z"/><path class="cls-1" d="M832.68,395.8c0-2.93-4-7.43-6.63-7.46q-6.59-.06-6.53,5.82a6.42,6.42,0,0,0,6.76,6.64C830.78,400.82,832.66,399.35,832.68,395.8Z"/><path class="cls-1" d="M668,476.72c3,0,7.45-4,7.53-6.68.08-2.37-4.6-6.52-7.35-6.52s-6.22,3.33-6.19,5.92C662,473.11,664.94,476.69,668,476.72Z"/><path class="cls-1" d="M727.27,702.76c0-3.73-3.2-7.39-6.47-7.45-2.41,0-6.79,4.71-6.89,7.46-.07,2.24,3.62,5.91,6,6C722.83,708.84,727.28,705.21,727.27,702.76Z"/><path class="cls-1" d="M977,425.38c-.07-2.95-3.75-6.38-6.84-6.37-4.2,0-6.23,1.68-6.23,5.19s2.78,7.77,5.17,7.75C972.8,431.9,977.1,428.33,977,425.38Z"/><path class="cls-1" d="M742.21,748.84a6.41,6.41,0,0,0-6.56-6.37c-3.27.14-6.54,3.43-6.48,6.51s3.83,6.58,6.74,6.46A6.7,6.7,0,0,0,742.21,748.84Z"/><path class="cls-1" d="M692.43,650.89c2.8.05,5.88-2.64,6-5.21.12-4.08-2.48-7.71-5.55-7.75-3.68,0-7.38,3.06-7.63,6.41C685,647,689.28,650.83,692.43,650.89Z"/><path class="cls-1" d="M879.74,481c4.25,0,6.72-1.86,6.81-5.22.1-4-2.76-7.2-6.52-7.2-2.33,0-7.12,4.82-7.16,7.22S876.64,481,879.74,481Z"/><path class="cls-1" d="M965.53,72.31c0,3.36,3,6,6.88,5.92,3.47,0,6.16-2.53,6.18-5.7,0-3.65-2.42-7-5-6.84C968.8,65.93,965.54,68.61,965.53,72.31Z"/><path class="cls-1" d="M917,73.12c-4.41,0-7.81,2.79-7.73,6.36.07,3.24,2.49,5.16,6.54,5.2,3.74,0,7.31-2.61,7.29-5.41A6.4,6.4,0,0,0,917,73.12Z"/><path class="cls-1" d="M1075.79,246.31c0-3.49-3.61-7.07-7.13-7a6.27,6.27,0,0,0-6.14,6.21c0,3.4,2.69,6.42,5.57,6.33C1073.28,251.66,1075.78,249.88,1075.79,246.31Z"/><path class="cls-1" d="M658,410.32c2.86-.08,6-3.53,6.07-6.63,0-2.5-3.1-6.54-5.13-6.61-3.69-.13-7.9,2.93-8.05,5.85C650.75,406.32,654.69,410.42,658,410.32Z"/><path class="cls-1" d="M676.72,541.55c3.47-.19,7.11-3.95,7-7.22-.11-3.1-2.66-5.76-5.47-5.69-3.08.07-8.3,4.46-8.32,7C669.9,538.41,673.7,541.72,676.72,541.55Z"/><path class="cls-1" d="M1002.61,95.57c0,4.55,2,6.66,6.1,6.61s5.74-1.68,5.74-6c0-4.63-2.14-7.32-5.75-7.23S1002.6,91.61,1002.61,95.57Z"/><path class="cls-1" d="M831.46,480.3c3.27-.07,7-3.34,7-6.17,0-2.51-4.09-6.3-6.87-6.32-3.42,0-6.77,2.92-6.88,6C824.65,476.73,828.43,480.36,831.46,480.3Z"/><path class="cls-1" d="M817.35,466.8c0-3.42-2.38-5.56-6.11-5.56s-7.62,3.16-7.69,6.22,3.05,5.52,6.67,5.52C814.91,473,817.38,470.84,817.35,466.8Z"/><path class="cls-1" d="M1037.62,76.56c3.64-.08,6.73-3,6.71-6.32,0-3.1-3.68-7.28-6.38-7.29-3.51,0-6,2.74-6,6.62S1034.56,76.63,1037.62,76.56Z"/><path class="cls-1" d="M1083.37,269.22c4,0,7-2.65,7-6.16,0-3-3.17-6.08-6.38-6.14-4.1-.09-6.84,2.42-6.83,6.26A6.1,6.1,0,0,0,1083.37,269.22Z"/><path class="cls-1" d="M1078.94,314.61c3.84.07,6.3-2.13,6.3-5.63,0-4.24-2.41-6.91-6.21-6.9-3.6,0-6.94,3.17-6.9,6.52C1072.17,311,1076.19,314.56,1078.94,314.61Z"/><path class="cls-1" d="M875,455a6.82,6.82,0,0,0-6.47-6.9c-4-.08-6.55,2.18-6.65,5.83-.09,3.26,2.8,6.53,5.82,6.6C871.41,460.65,875,457.93,875,455Z"/><path class="cls-1" d="M700.81,36.51a7.57,7.57,0,0,0,7-7c.08-1.83-5-6.09-7.26-6.08a6.24,6.24,0,0,0-5.91,6C694.62,33.36,697.37,36.52,700.81,36.51Z"/><path class="cls-1" d="M1099.47,312.35c3.49-.08,6.94-3.57,6.94-7,0-2.85-3.75-6.11-7-6.09-3,0-6.17,3.46-6.16,6.73C1093.24,308.88,1096.71,312.42,1099.47,312.35Z"/><path class="cls-1" d="M815.34,60.67c-.09,4,2.8,7.2,6.46,7.21s5.74-2.09,5.78-5.89c0-4-3.19-7.76-6.82-7.89C818.93,54,815.4,58.31,815.34,60.67Z"/><path class="cls-1" d="M1006.3,366.4c-2.61.05-6.24,4.29-6.41,7.48-.13,2.19,3.31,5.68,5.62,5.71,4,.06,7.3-2.75,7.36-6.25A6.66,6.66,0,0,0,1006.3,366.4Z"/><path class="cls-1" d="M689.15,48.25c-2.63.07-5.48,3.66-5.37,6.75.07,2.14,4,6.31,6,6.29,3.9,0,7.2-2.75,7.17-5.91C696.9,51.83,692.88,48.15,689.15,48.25Z"/><path class="cls-1" d="M982.94,44.54c-3.53,0-7,3.13-7.09,6.43a6,6,0,0,0,5.38,5.84c4.59.11,8.4-3,8.39-6.73C989.61,47.71,985.78,44.53,982.94,44.54Z"/><path class="cls-1" d="M658.81,656.2c3.92,0,7.33-2.84,7.29-6.12,0-2.34-4.86-6.33-7.63-6.32-2.93,0-6,3.08-6.05,6A6.68,6.68,0,0,0,658.81,656.2Z"/><path class="cls-1" d="M672.11,365.76a6.64,6.64,0,0,0,6.56,6.42c2.94,0,6.56-3.49,6.51-6.22,0-3.25-3.3-6.71-6.34-6.77C676.13,359.14,672.09,363.09,672.11,365.76Z"/><path class="cls-1" d="M650.7,582.38c3.46-.08,7.6-3.84,7.61-6.91s-3.48-6.17-7.2-6.15c-3.05,0-6,3.18-6,6.47C645,578.47,648.43,582.44,650.7,582.38Z"/><path class="cls-1" d="M983.1,87.58c-3.79,0-6.61,2.17-6.64,5.25,0,3.44,3.58,7.24,6.86,7.2,3.12,0,6.27-3.41,6.31-6.75S987,87.64,983.1,87.58Z"/><path class="cls-1" d="M813.79,17.61c3.15,0,5.76-2.12,5.74-4.69,0-3.6-4.6-7.69-8.65-7.71-2.09,0-5,3.41-5.18,6.06C805.52,14.14,809.93,17.6,813.79,17.61Z"/><path class="cls-1" d="M658.3,630.07c.36-3.72-2.37-7.18-5.8-7.36s-6,2.34-6.28,6.46c-.24,3,3.1,7.06,6,7.18C654.78,636.47,658,633.15,658.3,630.07Z"/><path class="cls-1" d="M669.2,714.5q.06-6.45-6-6.39c-3.76,0-6.54,2.75-6.4,6.26.12,3.22,3.44,6.66,6.48,6.7S669.17,718,669.2,714.5Z"/><path class="cls-1" d="M996.12,67.15c-5,0-7.87,2.24-8,6.29s1.83,6.15,6.11,6.25c3.2.08,6.89-2.81,7-5.5C1001.33,71.83,998,67.16,996.12,67.15Z"/><path class="cls-1" d="M698.55,700.33c2.77,2.14,5.53.64,7.94-1,2.75-1.86.86-4.19.09-6.16-1-2.6-2.36-5.08-5.63-5.68-3.19.48-4.09,2.74-5.22,5.54C694.2,696.82,696.31,698.6,698.55,700.33Z"/><path class="cls-1" d="M831.77,47.44c3.71-.21,7.47-3.44,7.5-6.44,0-2.4-4.94-6.7-7.72-6.71-2.37,0-5.35,3.34-5.32,6C826.3,45.15,828.22,47.64,831.77,47.44Z"/><path class="cls-1" d="M621.63,820.45c.09-2.71-3.14-6.64-5.45-6.63-2.79,0-6.77,3.72-6.87,6.41-.13,3.64,3.05,7.33,6.43,7.47C618.38,827.8,621.52,823.93,621.63,820.45Z"/><path class="cls-1" d="M1036,98c-2.52,0-6.28,4.14-6.24,6.92.06,3.27,3.36,6.81,6.28,6.75,3.32-.07,6.18-3.31,6.13-7C1042.14,102.1,1038.39,98,1036,98Z"/><path class="cls-1" d="M648.9,118.26c0,2.83,3.5,6.25,6.41,6.29,2.28,0,7-4.28,7.07-6.51s-4.61-6.38-7.33-6.37C651.49,111.68,648.89,114.47,648.9,118.26Z"/><path class="cls-1" d="M956.19,97.12c0,2.8,3.47,6.61,5.9,6.48,3.88-.19,7.21-3.64,7.09-7.32-.07-2.43-4.09-5.75-7-5.77S956.18,93.82,956.19,97.12Z"/><path class="cls-1" d="M736,421.21c-2.7-.24-5.54,2.89-5.52,5.56,0,4.46,2.3,6.83,6.52,6.8,3.92,0,5.93-2.24,5.91-6.5C743.44,422.64,740.06,421.57,736,421.21Z"/><path class="cls-1" d="M1044.68,170.62a6.18,6.18,0,0,0-6.24,6.52c0,2.79,3.32,6.15,6,6.13,4,0,6.51-2.64,6.51-6.85S1049.31,170.58,1044.68,170.62Z"/><path class="cls-1" d="M855.22,55.27c3.78.12,6.53-2.09,6.53-5.26,0-3.7-3.46-7.55-6.77-7.52-3,0-6.05,3.24-6,6.18C849.08,51.79,852.27,55.17,855.22,55.27Z"/><path class="cls-1" d="M711.88,782.63c-2.74-.15-7.27,3.47-7.45,6-.21,2.85,4,7.52,6.93,7.71,2.36.15,5.77-2.67,6-4.93C717.55,788.52,714,782.75,711.88,782.63Z"/><path class="cls-1" d="M727.56,809.87c.07-2.3-5.37-7.66-7.67-7.57-1.77.07-5.35,4.53-5.39,6.72-.07,3.56,2.27,6.23,5.5,6.28C724.49,815.38,727.46,813.24,727.56,809.87Z"/><path class="cls-1" d="M707.84,180c0,3.54,2,6,4.78,6,3.69,0,7.58-4,7.62-7.82,0-2.31-4-5.84-6.58-5.79C710.69,172.49,707.83,176.22,707.84,180Z"/><path class="cls-1" d="M658.36,163.59c-.28,3,3.3,7.07,6.35,7.23,4.6.23,7.28-1.54,7.42-4.89.18-4.51-1.36-5.93-6.73-6.22C661.2,159.48,658.6,160.91,658.36,163.59Z"/><path class="cls-1" d="M701.22,521.12c-4.69-.5-6.8,2.19-7.05,4.83s4.44,6.78,7.74,6.84c2.67.06,6.62-3.36,6.5-5.62C708.25,524.28,704.51,521.14,701.22,521.12Z"/><path class="cls-1" d="M865.55,475c0-3.66-2.2-5.67-6.32-5.65a6.68,6.68,0,0,0-6.83,6.44c0,2.74,3.44,5.77,6.4,5.72A6.57,6.57,0,0,0,865.55,475Z"/><path class="cls-1" d="M720.86,751.74c0-2.73-4.3-8.35-6.43-8.41-2.74-.09-5.94,4.17-6,7.95s1.91,5.76,5.77,5.73C717.84,757,720.87,754.59,720.86,751.74Z"/><path class="cls-1" d="M724.65,89c0,2.83,3.14,5.82,6.1,5.85,4.26,0,6.26-2,6.29-6.52s-1.47-5.8-6.29-5.81C727.1,82.47,724.63,85.09,724.65,89Z"/><path class="cls-1" d="M651.06,367c.08,2.39,4.46,5.9,7.42,5.94a6,6,0,0,0,6.1-5.45c.11-2.89-4.64-7.61-7.74-7.68C654.72,359.8,651,364.45,651.06,367Z"/><path class="cls-1" d="M721.88,205.26c-2,0-6,4-6,5.88.1,3.46,3.79,6.8,7.68,7,2.61.1,5.55-3.13,5.56-6.09C729.14,208.64,725.59,205.35,721.88,205.26Z"/><path class="cls-1" d="M689.72,756.22c3.39,0,7.24-3,7.14-5.67-.1-2.46-4.62-7.4-6.87-7.51s-6.1,3.8-6.18,6.55C683.7,753.37,686.22,756.2,689.72,756.22Z"/><path class="cls-1" d="M649.6,484.63c2.6-.07,6.31-4.08,6.37-6.89.06-2.6-3.85-6.36-6.5-6.25s-6.56,3.91-6.57,6.47C642.88,481.17,646.43,484.7,649.6,484.63Z"/><path class="cls-1" d="M688.34,340.89c-4.46.13-6.73,2.05-6.79,5.73,0,4.14,2.29,6.48,6.5,6.48,3.41,0,6.66-2.81,6.68-5.78C694.75,344.91,690.69,340.83,688.34,340.89Z"/><path class="cls-1" d="M685.91,384.19c-.09,3.2,3.48,7,6.59,7.05,2.8,0,6-3.25,5.94-6.15,0-3.69-3.12-7-6.46-7A6.41,6.41,0,0,0,685.91,384.19Z"/><path class="cls-1" d="M696.71,103.83c-4,0-7.55,2.45-7.58,5.26s3.71,6.21,6.87,6.26,7.29-3.14,7.27-5.76C703.25,106.47,700.27,103.86,696.71,103.83Z"/><path class="cls-1" d="M701.6,71.55c-2.9.08-5.55,3.17-5.46,6.39.08,2.8,3.56,6.61,6.11,6.71,3,.11,6.45-3.65,6.44-7S705.42,71.45,701.6,71.55Z"/><path class="cls-1" d="M648.83,68.72c.36,3.89,2.5,6.53,5.79,6.48,3.76-.06,6.55-2.38,6.47-5.38-.1-3.7-3.52-8-6.35-7.57S648.48,64.83,648.83,68.72Z"/><path class="cls-1" d="M676.59,64.94c-2.86,0-6.56,3.65-6.66,6.66-.08,2.23,4.14,6.51,6.42,6.53,3,0,6.54-3.15,6.69-6.07C683.2,69,679.59,65,676.59,64.94Z"/><path class="cls-1" d="M1123.81,252.73c0-3-3.43-6.76-6.23-6.76-3.06,0-6.16,3.32-6.07,6.51s3.69,6.54,7,6.52C1122,259,1123.82,256.79,1123.81,252.73Z"/><path class="cls-1" d="M1079.9,92.6c1.8.05,6.08-4.53,6.07-6.51,0-3.28-3.5-7-6.5-7-3.68,0-6.42,2.53-6.45,5.87C1073,87.83,1077.22,92.51,1079.9,92.6Z"/><path class="cls-1" d="M721.89,62c-3.12-.18-6.73,3.11-6.76,6.14,0,3.4,3.52,7,6.94,7.07s5.46-2.2,5.48-5.78C727.56,66.24,724.44,62.14,721.89,62Z"/><path class="cls-1" d="M692.28,804.37c3.78,0,6.15-2.31,6.17-6,0-3-3-6.44-5.63-6.43-3.5,0-7.76,3.6-7.6,6.39C685.4,801.59,688.67,804.37,692.28,804.37Z"/><path class="cls-1" d="M1080.65,291.12c.09-2.77-3.14-5.76-6.26-5.79-3.57,0-7.3,3.17-7.22,6.23.08,3.48,2.34,5.51,6.15,5.52S1080.55,294.2,1080.65,291.12Z"/><path class="cls-1" d="M721.94,731.46c4.48,0,6.22-1.56,6.18-5.57,0-4.54-2.16-6.18-8-6.2-2.33,0-5,2.83-4.93,5.28C715.24,729.3,717.49,731.45,721.94,731.46Z"/><path class="cls-1" d="M937.75,101.18c0,3.9,2.63,6.82,6,6.74,3.18-.08,5.71-3.22,5.71-7.09s-1.85-6.1-5-6C940.21,94.89,937.72,97.28,937.75,101.18Z"/><path class="cls-1" d="M834.73,66.89c.08,3.29,3.48,6.26,7.11,6.21,2.51,0,6-3.12,6.1-5.42.13-2.66-5.12-7.84-7.85-7.74C837.68,60,834.66,63.94,834.73,66.89Z"/><path class="cls-1" d="M1043.59,213.66c.09-2.94-3.29-7.52-5.64-7.63-2.92-.13-8,3.95-8.12,6.54-.12,2.4,3.85,5.72,6.86,5.74C1040.8,218.35,1043.49,216.53,1043.59,213.66Z"/><path class="cls-1" d="M698.38,307.24c-2.57-.05-5.89,3.58-5.82,6.35s4.05,6.6,7.1,6.66a5.46,5.46,0,0,0,5.34-5.52C705.05,310.35,702.37,307.32,698.38,307.24Z"/><path class="cls-1" d="M1047.59,94.7c2.76.08,7-3.57,7-6.06,0-3.88-3.21-7.65-6.45-7.53-3,.11-5.93,3.88-5.93,7.54C1042.17,90.91,1045.5,94.63,1047.59,94.7Z"/><path class="cls-1" d="M999.11,390.62c0-3.05-3.66-8-6-8.1-2.12-.1-6.82,3.41-6.49,6.66s3.15,6.42,6.16,6.5C997,395.78,999.1,394.09,999.11,390.62Z"/><path class="cls-1" d="M828.78,82.47c-4.19.08-5.67,1.47-5.64,5.31a6.65,6.65,0,0,0,7.06,7c3.33,0,4.81-2,4.75-6.21C834.87,83.26,834,82.38,828.78,82.47Z"/><path class="cls-1" d="M655.63,821.9c3.09-.07,6.56-2.76,6.62-5.12.08-3.41-4.24-8-7.34-7.81-1.89.13-5.95,4.9-6,7C648.88,818.64,652.66,822,655.63,821.9Z"/><path class="cls-1" d="M707.07,548.93c0-4.51-1.77-6.67-5.59-6.69-4.07,0-6.82,2.16-6.78,5.36.06,3.79,3,7.1,6.27,7.11C705,554.73,707,552.81,707.07,548.93Z"/><path class="cls-1" d="M803.05,829.24c-.23,2.22,3.86,5.61,6.38,5.52s6.31-4.23,6.27-7c0-3.17-3.05-5.84-6.6-5.87C805.52,821.52,803.56,824.38,803.05,829.24Z"/><path class="cls-1" d="M637.66,669.83c0,2.77,3.23,5.85,6.29,6,3.24.13,6.94-3.34,6.94-6.5,0-2.87-2.42-6-4.58-5.92C641.17,663.53,637.68,666.14,637.66,669.83Z"/><path class="cls-1" d="M734.64,455.44c-3-.07-6.3,2.6-6.35,5.22A7.13,7.13,0,0,0,735,467.8c3.21.06,6.29-2.69,6.29-5.62A6.65,6.65,0,0,0,734.64,455.44Z"/><path class="cls-1" d="M716.65,376.56c-2.54-.06-6.39,3.88-6.55,6.7-.13,2.31,3.88,5.84,6.65,5.84,4.31,0,6.34-1.63,6.41-5.13C723.23,380.24,720.07,376.64,716.65,376.56Z"/><path class="cls-1" d="M797.31,97.85c-4.32,0-7,2.27-7,6s2.11,5.68,5.81,5.68,7.27-2.48,7.2-5.08C803.24,100.45,800.89,97.88,797.31,97.85Z"/><path class="cls-1" d="M648.35,274.64a6.12,6.12,0,0,0-6.15,6.57c.1,4.24,2.49,6.42,7,6.41,3.79,0,4.72-1.11,4.69-5.6C653.91,278.27,651.21,274.7,648.35,274.64Z"/><path class="cls-1" d="M960.39,454c2.92,0,6.37-3.17,6.41-5.83a6.67,6.67,0,0,0-6.3-6.66c-3.15,0-7,3.39-7.1,6.15S957.47,454,960.39,454Z"/><path class="cls-1" d="M746.13,817.47c3.3-.11,7-3.46,6.86-6.28-.13-3.44-3.66-6.26-7.68-6.13a5,5,0,0,0-5.09,5.31C740.27,814.37,742.94,817.57,746.13,817.47Z"/><path class="cls-1" d="M708,622.81c-.11-2.83-3.59-5.84-6.74-5.85-2.5,0-6.46,3.5-6.5,5.74-.05,2.77,4,7.11,6.62,7C704.53,629.57,708.08,625.88,708,622.81Z"/><path class="cls-1" d="M853.83,76.14c0,4.59.82,5.54,5,5.61,3.94.07,8-3.32,8.09-6.77.07-2.11-4.25-5-7.49-5C855.31,70,853.85,71.59,853.83,76.14Z"/><path class="cls-1" d="M703.46,327.9c-2.21.06-5,3.52-5,6.24,0,3.61,3,7.45,5.85,7.41,3,0,5.79-3.42,5.77-7S706.83,327.8,703.46,327.9Z"/><path class="cls-1" d="M715.93,40.9c-2.3.05-5.75,4.14-5.89,7-.08,1.8,4.11,6,6.1,6.14,3,.16,7.11-4.12,7.1-7.31C723.23,44.05,719.18,40.82,715.93,40.9Z"/><path class="cls-1" d="M918.08,441.2c0-3.92-2.1-6.19-5.86-6.21-3.56,0-7.1,2.69-7.2,5.51-.11,3,3.48,6.13,7.12,6.15C916.26,446.66,918,445,918.08,441.2Z"/><path class="cls-1" d="M1097.62,209.43a6.79,6.79,0,0,0-6.84-6.47c-3.79,0-5.54,1.79-5.57,5.75,0,4.74,1.86,6.7,6.34,6.57C1094.84,215.19,1097.66,212.47,1097.62,209.43Z"/><path class="cls-1" d="M722.62,536.51c-3.28.09-8.63,4.07-8.69,6.47-.07,2.63,4.64,6.44,8.09,6.54,1.89.05,5.41-3.81,5.5-6C727.61,541.42,724.12,536.46,722.62,536.51Z"/><path class="cls-1" d="M671.6,381.66c-2.31,0-5.35,3.58-5.37,6.28a6.28,6.28,0,0,0,6.46,6.25c3.28.08,6.73-3.38,6.68-6.71C679.34,385.1,674.7,381.62,671.6,381.66Z"/><path class="cls-1" d="M679.08,583.52c-.14-3.22-3.75-7.49-6.25-7.41-4.2.15-6.57,2.63-6.61,6.92a5.71,5.71,0,0,0,5.42,6C674.37,589,679.16,585.52,679.08,583.52Z"/><path class="cls-1" d="M811.63,416.57c-.13,2.12,3.71,5.34,6.34,5.32,3.61,0,7-3,7.09-6.21s-3.08-6-6.79-6.09C816.1,409.54,811.78,414.08,811.63,416.57Z"/><path class="cls-1" d="M716.11,686.13c2.78.06,5.54-2.16,5.56-4.49,0-3.5-3.58-7.84-6.53-7.83-3.8,0-6.38,2.44-6.44,6.06C708.65,683.2,712,686,716.11,686.13Z"/><path class="cls-1" d="M1019.55,49.5c0,2.09,3.63,5.68,5.83,5.77,2.89.13,6.55-4,6.6-7.37,0-2.84-3.1-6.09-6-6.16C1023.41,41.68,1019.55,46.3,1019.55,49.5Z"/><path class="cls-1" d="M723.25,231.72c0-2.69-3.29-5.5-6.39-5.49-2.94,0-6.55,3.51-6.69,6.49-.13,2.66,3.81,6,7,6C720.77,238.65,723.28,235.78,723.25,231.72Z"/><path class="cls-1" d="M722.91,435.23c-2.44.08-6.23,4.42-6.27,7.18,0,2.93,3.34,5.79,6.77,5.76s5.74-2.38,5.72-6C729.11,439.05,725.61,435.15,722.91,435.23Z"/><path class="cls-1" d="M703.56,569.3a5.79,5.79,0,0,0-6.09-5.85c-4,0-6.48,2.41-6.46,6.17,0,4.14,1.6,5.55,6.2,5.57S703.67,573.36,703.56,569.3Z"/><path class="cls-1" d="M756.39,84.05a6.38,6.38,0,0,0-6.22,6.07c0,2.68,3.46,6.24,6,6.2s7.59-4,7.61-5.93C763.8,87.32,760,84.06,756.39,84.05Z"/><path class="cls-1" d="M922.63,465.71c2.65-.09,6.43-4.44,6.4-7.39,0-2.52-4-5-7.66-5.12s-4.87,2.68-5.5,6.11C916,462.26,919.7,465.8,922.63,465.71Z"/><path class="cls-1" d="M873.1,69.22c2.59-.13,6.14-3.38,6.2-5.79.08-3.55-3.78-7.18-7.69-7.23-2.91,0-4.19,1.85-4.59,5.28C866.58,65.24,870.54,69.34,873.1,69.22Z"/><path class="cls-1" d="M742.63,792.72c0-3.51-3.92-7-7.81-7-2.47.06-4.37,2.9-4.35,6.51s2.4,6.54,5.27,6.55C739,798.85,742.6,795.64,742.63,792.72Z"/><path class="cls-1" d="M1049.43,190.36c-4-.09-7.06,2-7.19,5.07a6.65,6.65,0,0,0,6.44,6.75c4.18,0,6.63-2.33,6.66-6.38C1055.36,192.57,1053,190.44,1049.43,190.36Z"/><path class="cls-1" d="M690.89,472.75c2.12,0,6-3.86,6-6,0-2.7-3.66-6.19-6.5-6.19-3,0-7.16,3.12-7.24,5.49C683,469.19,687.16,472.75,690.89,472.75Z"/><path class="cls-1" d="M1064.89,130c0,3.48,2.76,6.53,5.91,6.49,4,0,7.26-3.06,7.12-6.64-.1-2.64-3.38-5.69-6.11-5.67C1068.5,124.21,1064.91,127.22,1064.89,130Z"/><path class="cls-1" d="M646,92c-3.28,0-6.23,2.8-6.12,5.87s3.73,6.45,6.77,6.4c3.26,0,6.36-3.4,6.37-6.89C653,94.7,649.48,92,646,92Z"/><path class="cls-1" d="M796.59,459.09a5.47,5.47,0,0,0,5.38-5.58c0-4-3-7.43-6.31-7.38-2.84,0-5.91,3.35-5.93,6.37A6.91,6.91,0,0,0,796.59,459.09Z"/><path class="cls-1" d="M653.15,423.07c.14-3.7-2.08-5.56-6.7-5.62-4.14-.05-7.1,2-7.15,5,0,2.55,4.05,6.3,7,6.42C649.4,429,653,425.91,653.15,423.07Z"/><path class="cls-1" d="M735.79,291.2c-2.4.11-6,4.34-6.07,7.21-.1,3.21,2,5.24,5.47,5.25,4.46,0,7.63-2.87,7.48-6.79C742.57,294.38,738.57,291.09,735.79,291.2Z"/><path class="cls-1" d="M722.8,597.58c0,2.88,3.4,6.07,6.53,6,2.58,0,5.88-3.7,6-6.74.14-2.33-3.71-6.49-6-6.44C726.51,590.49,722.86,594.43,722.8,597.58Z"/><path class="cls-1" d="M698.33,437.21c3.65,0,6.34-2.4,6.43-5.77.08-3-3.08-5.85-6.46-5.85s-6.49,2.85-6.48,5.83C691.83,434.72,694.62,437.2,698.33,437.21Z"/><path class="cls-1" d="M666.31,20.41c3.63,0,5.8-2.36,5.81-6.26,0-4.4-1.45-6.12-5.21-6.14-4.28,0-6.46,2-6.5,5.87C660.38,18.08,662.5,20.43,666.31,20.41Z"/><path class="cls-1" d="M755,114.28c.16,2.58,4.2,6.79,6.54,6.83s6.28-4.56,6.19-7.19-3.73-6.35-6.07-6.27C759,107.73,754.83,111.92,755,114.28Z"/><path class="cls-1" d="M1034.4,272.9c2.58.36,6.12-3.29,6.27-6s-3.47-6.21-6.49-6.19c-4.59,0-5.7,1.43-6.06,6C1027.77,271,1030.69,272.38,1034.4,272.9Z"/><path class="cls-1" d="M759.52,473.33c0-2.64-4.18-6.77-7-6.9-2.61-.13-5.89,3-6,5.68-.1,3.35,3,6.72,6.17,6.74C756.33,478.87,759.49,476.32,759.52,473.33Z"/><path class="cls-1" d="M919.46,421.7c2.17-.11,6-4.45,5.92-6.65-.13-2.67-4.19-6-7.32-5.95a6.4,6.4,0,0,0-5.86,6.2C912.25,418.2,916.4,421.86,919.46,421.7Z"/><path class="cls-1" d="M664.85,611.45c2.3.07,5.09-2.5,5.1-4.71,0-3.48-4.06-8.23-7.06-8.22-2.78,0-6.19,3.45-6.12,6.17C656.83,607.21,661.8,611.37,664.85,611.45Z"/><path class="cls-1" d="M690.35,683.82c3.72,0,6.54-2.56,6.54-6.05,0-3.28-2.27-5.38-5.81-5.39-3.81,0-7.17,2.59-7.31,5.63C683.65,680.84,687,683.78,690.35,683.82Z"/><path class="cls-1" d="M949.78,432a7.14,7.14,0,0,0,6.33-6.81c-.07-2.31-3.61-5.5-6-5.44-3,.07-7.2,4.28-7.19,7.14C942.9,429.57,946.48,432.23,949.78,432Z"/><path class="cls-1" d="M666,799c2.37-.19,6.07-4.24,6.08-6.65,0-2.83-3.78-6.86-6.54-7-2.17-.08-5.83,4.06-5.9,6.67C659.59,794.84,663.59,799.19,666,799Z"/><path class="cls-1" d="M1026.9,79.49a6.84,6.84,0,0,0-6.65,6.41c0,3.09,3.75,6.89,6.73,6.82s5-2.59,5-6.22C1032,82.25,1030,79.48,1026.9,79.49Z"/><path class="cls-1" d="M665.73,101.39c3.38.14,6.35-2.22,6.39-5.08,0-3.44-3.47-7.62-6.54-7.78s-5.94,3.1-5.9,6.59C659.71,97.81,663.05,101.27,665.73,101.39Z"/><path class="cls-1" d="M682.76,259.8c-3.15-.2-6.27,3.09-6.31,6.66a6,6,0,0,0,5.71,5.82,6.89,6.89,0,0,0,6.75-6.54C688.89,263,685.76,260,682.76,259.8Z"/><path class="cls-1" d="M728.36,362.27c-.05-3.51-2.61-6.54-5.67-6.72s-6.78,3.05-6.79,5.8c0,4.1,2.36,6.54,6.39,6.54C725.93,367.9,728.42,365.6,728.36,362.27Z"/><path class="cls-1" d="M1083.71,178.06c0,3.61,2.26,6.62,4.89,6.61,3.21,0,6.89-3.58,6.84-6.63a6.47,6.47,0,0,0-6.64-6.49C1085.94,171.7,1083.68,174.58,1083.71,178.06Z"/><path class="cls-1" d="M793.08,365.92c.14-2.78-3.18-6.08-6.08-6.06-3.11,0-6.63,3.12-6.65,5.86a6.29,6.29,0,0,0,6.54,6.48C790.32,372.25,792.89,369.63,793.08,365.92Z"/><path class="cls-1" d="M1047.4,56.73c5.67-.58,7.82-2.33,7.17-6.08,0-3.92-2.2-6.17-6.14-6.16s-5.6,2-5.62,6.33C1042.78,55,1044.24,57.05,1047.4,56.73Z"/><path class="cls-1" d="M1117.8,174.55c.14-2.36-3.71-6-6.37-6-4.17,0-6.62,2.21-6.56,5.92,0,3.18,3.48,6.5,6.68,6.46C1113.27,180.94,1117.69,176.41,1117.8,174.55Z"/><path class="cls-1" d="M994.8,135.54c.09,3.28,2.55,5.34,6.37,5.34,4.07,0,6.59-2.54,6.43-6.47-.09-2.14-4.76-6-7.17-5.95C997.64,128.54,994.72,132.21,994.8,135.54Z"/><path class="cls-1" d="M1102.75,249.07c0-4.13-2.19-6.27-6.61-6.32-2.76,0-5,2.74-5,6.24,0,4.08,1.93,6.29,5.65,6.37C1100.12,255.43,1102.71,252.71,1102.75,249.07Z"/><path class="cls-1" d="M786.19,35.63c4.3-.21,7.06-2.62,7.07-6.16s-3-6.15-7.12-6c-3,.1-5.36,2.94-5.31,6.53C780.88,33.16,783.35,35.77,786.19,35.63Z"/><path class="cls-1" d="M726.75,268.59a5.58,5.58,0,0,0-5.75,6q.07,6.21,6.67,6.33c3.53.07,5.05-1.68,5.05-5.82S730.5,268.56,726.75,268.59Z"/><path class="cls-1" d="M1062.7,265.69c-3,0-6.59,3.87-6.69,7.07-.08,3,2.78,5.34,6.44,5.36s6.08-2.19,6.09-5.61C1068.54,268.49,1066.13,265.67,1062.7,265.69Z"/><path class="cls-1" d="M1102.05,147.47c-4.19-.13-7.18,2.32-7.17,5.88a6.1,6.1,0,0,0,6.32,6.39c2.91,0,6-2.65,5.88-5.17C1107,150.16,1105.12,147.57,1102.05,147.47Z"/><path class="cls-1" d="M691.83,486.56c.11,3.1,4,6.06,7.94,6,2.14,0,4.87-3.62,4.84-6.35a6.09,6.09,0,0,0-6-5.84C694.88,480.53,691.72,483.41,691.83,486.56Z"/><path class="cls-1" d="M744.35,406.14c-.1,2.32,4.32,6,7.24,6.05,2.74,0,6-3.34,6-6.18s-2.39-5.9-4.52-5.9C748.86,400.1,744.49,403.14,744.35,406.14Z"/><path class="cls-1" d="M788.92,73c-4.25,0-6.43,1.72-6.41,5.06,0,4.24,2.25,6.56,6,6.72,3.47.14,7-4,7-6.9C795.43,75.38,792.14,73,788.92,73Z"/><path class="cls-1" d="M713.8,605.3c0-3.62-3.41-7.31-6.72-7.33-2.42,0-5.92,3.94-5.77,6.53.17,3.16,3.6,6.28,7.05,6.41C711.09,611,713.82,608.2,713.8,605.3Z"/><path class="cls-1" d="M1065.46,161.33a5.79,5.79,0,0,0-5.79,6c-.05,3.38,2.5,7,4.95,7,2.63,0,7.37-3.77,7.42-6C1072.1,165.64,1068.13,161.35,1065.46,161.33Z"/><path class="cls-1" d="M692.67,830.12c0-2.34-3.36-5.44-5.88-5.41-5,.07-7.39,1.84-7.39,5.41a6.27,6.27,0,0,0,6.39,6.34C688.8,836.57,692.64,833,692.67,830.12Z"/><path class="cls-1" d="M704.94,125.48c-4.6,0-6.52,1.6-6.5,5.27s2.26,5.74,6.23,5.74c3.32,0,7.41-3.32,7.47-6C712.18,128.39,707.9,125.44,704.94,125.48Z"/><path class="cls-1" d="M669.4,280.26c-3.24,0-7.2,3.27-7.21,6,0,3,3.26,5.72,6.93,5.75s6.44-2.25,6.52-5.22C675.68,285,671.15,280.26,669.4,280.26Z"/><path class="cls-1" d="M993.73,34.33c3.12,0,5.3-2.46,5.38-6,.1-4.3-1.78-6.33-5.89-6.38-3.82,0-6,2.16-6,6A6.4,6.4,0,0,0,993.73,34.33Z"/><path class="cls-1" d="M690.6,283.93c-3.33,0-7.46,3.26-7.51,6-.06,3.15,3.16,6.8,6.16,7,2,.12,6.06-3.52,6.1-5.4C695.43,287.52,693.19,284,690.6,283.93Z"/><path class="cls-1" d="M712.21,455.72a5.58,5.58,0,0,0-5.72-5.38c-4.76,0-7.37,1.63-7.29,4.58.08,3.3,3.45,6.94,6.45,7C709.06,462,712.33,458.87,712.21,455.72Z"/><path class="cls-1" d="M692.56,222.29c-.07,4.13,1.94,6.15,6.14,6.19s6.08-1.5,6.06-4.89c0-3.64-2.49-6.79-5.36-6.85C694.86,216.64,692.63,218.46,692.56,222.29Z"/><path class="cls-1" d="M904.1,30c-2.39.07-6.47,4.59-6.48,7.18,0,2.25,3.68,5.25,6.49,5.29,3.22,0,7.06-3.18,7.15-6C911.32,34.54,906.18,29.9,904.1,30Z"/><path class="cls-1" d="M710.07,661.72c0-3.89-2.65-7.08-5.72-6.94a6.38,6.38,0,0,0-5.9,6c-.71,4.17,3,6.8,6.17,6.85C707.59,667.66,710.08,664.84,710.07,661.72Z"/><path class="cls-1" d="M738.93,41.58c-3.57-.08-6.79,2.68-6.9,6.07-.11,3.65,3.45,6.29,6.7,6.39,2.73.08,5.59-3.16,5.65-6.27C744.46,44.06,742.34,41.65,738.93,41.58Z"/><path class="cls-1" d="M813.67,106.55c-.13,3.1,2.65,6.57,5.34,6.66,3.8.12,7.08-2,7.15-4.65a7.6,7.6,0,0,0-7-7.8C817,100.61,813.78,104,813.67,106.55Z"/><path class="cls-1" d="M677.23,329.38A5.81,5.81,0,0,0,683,335c3.73-.05,5.88-2.3,5.88-6.16,0-3.23-3-7.09-5.47-7C680.75,322,677.21,326.28,677.23,329.38Z"/><path class="cls-1" d="M748.1,32.16c4.25,0,5.82-1.46,5.83-5.43,0-4.27-2.12-6.82-5.81-7-2.83-.11-6,3.46-6,6.8C742.15,30.33,744.09,32.16,748.1,32.16Z"/><path class="cls-1" d="M945.2,72.31c-.05,3,3.17,7,5.71,7,3.67,0,6.46-2.56,6.47-5.9,0-3.65-3-7-6.37-7C948.33,66.38,945.24,69.54,945.2,72.31Z"/><path class="cls-1" d="M966.8,375.7c.05-4.13-2.69-6.87-6.9-6.9-2.45,0-4.6,2.48-4.62,5.38,0,4.37,2.78,7.53,6.6,7.42C964.3,381.53,966.77,378.57,966.8,375.7Z"/><path class="cls-1" d="M809.31,396.74c0-2.85-2.95-6.65-5.32-6.76-4.16-.2-7.83,2.53-7.83,5.82,0,3.59,2.36,5.65,6.51,5.68C806.53,401.51,809.27,399.56,809.31,396.74Z"/><path class="cls-1" d="M943.84,462.68c3,.06,6.38-3,6.35-5.8-.05-3.37-3.21-6.62-6.36-6.56-3.73.07-6.14,2.43-6.14,6A6.8,6.8,0,0,0,943.84,462.68Z"/><path class="cls-1" d="M943.87,33.67c2.85-.05,6.31-3.3,6.33-5.94,0-3-3.07-5.82-6.4-5.83-4.67,0-6.11,1.27-6.13,5.5S939.83,33.74,943.87,33.67Z"/><path class="cls-1" d="M1005.57,400.13a6.77,6.77,0,0,0-6.44,6.44c0,3.31,2.86,5.7,6.93,5.78,3.29.06,5.49-2,5.45-5.15S1008.21,400.13,1005.57,400.13Z"/><path class="cls-1" d="M732.22,833.43c2.55.11,4.77-2.53,4.81-5.71,0-4.23-2.13-7.1-5.54-7.32-2.7-.17-6.1,3.43-6.13,6.48C725.33,830.33,728.42,833.28,732.22,833.43Z"/><path class="cls-1" d="M723.26,403.9c0,3.89,2.77,7.1,6.14,7s5.47-2.59,5.48-6.21c0-4.74-1.35-6.08-6.26-6.18C725.26,398.45,723.28,400.43,723.26,403.9Z"/><path class="cls-1" d="M667.19,340.4c-2.2-.1-5.94,4.36-5.9,7s3.37,5.66,6.39,5.67c4.19,0,5.93-1.6,6-5.52C673.64,344.78,669.82,340.53,667.19,340.4Z"/><path class="cls-1" d="M529,838.8c3.5-.13,5.32-1.95,5.3-5.28,0-3.9-4-8.15-7.31-7.88-1.56.12-4.46,4.57-4.48,6.86A6.42,6.42,0,0,0,529,838.8Z"/><path class="cls-1" d="M662.45,529.73c.11-3.81-2.53-7.13-5.68-7.17-4,0-6.58,1.9-6.55,5.05,0,4,2.51,6.63,6.35,6.69C660.74,534.37,662.36,533.11,662.45,529.73Z"/><path class="cls-1" d="M1057.39,255.32c.18-4.17-2.28-7-6.3-7.13-2.52-.11-6,3.41-6,6.14s2.92,6.13,5.49,6.12C1054.28,260.44,1057.26,258.2,1057.39,255.32Z"/><path class="cls-1" d="M552,840.12c3.77,0,7.07-2.93,7.06-6.29s-2.31-5-6.73-5.2c-3-.13-6.49,3-6.48,5.71C545.81,837.67,548.4,840.11,552,840.12Z"/><path class="cls-1" d="M681.56,91.84c0,4.66,1.43,6.12,6,6.1s5.92-1.89,5.76-7.65c-.08-2.6-2.34-4.13-6.11-4.14C683.22,86.14,681.56,87.8,681.56,91.84Z"/><path class="cls-1" d="M701.69,370.06c3,0,6.23-3,6.23-5.82,0-3.73-2.49-6.6-5.73-6.61-4.24,0-6.81,2.26-6.68,5.89C695.62,366.85,698.63,370,701.69,370.06Z"/><path class="cls-1" d="M721.68,421.11c0-3.21-3.35-7.11-6.27-7.21-3.22-.11-5.84,3.17-5.82,7.3,0,2.53,2.88,5.47,5.38,5.5C718.77,426.75,721.63,424.37,721.68,421.11Z"/><path class="cls-1" d="M678.63,565.79c3.61,0,5.84-1.45,5.9-4,.08-3.78-2.74-7.71-5.63-7.81-3.79-.14-6.78,2.35-6.81,5.66C671.4,564,674.73,565.81,678.63,565.79Z"/><path class="cls-1" d="M1015.45,60.57c-3.07-.07-6.72,3-6.87,5.79s3.5,6.66,6,6.63c3.26,0,6.8-3.41,6.86-6.54C1021.48,63.88,1018.17,60.62,1015.45,60.57Z"/><path class="cls-1" d="M787.38,831.32a6.62,6.62,0,0,0,5.88-6.19c0-3.23-2.8-5.54-6.68-5.53-4.28,0-6.22,1.84-6.11,5.76C780.54,827.83,784.68,831.41,787.38,831.32Z"/><path class="cls-1" d="M1118.5,205.18c-2.56-.12-6.24,3.45-6.28,6.11,0,2.46,3.51,6.12,6,6.22,4.35.18,6.22-1.59,6.35-6C1124.69,208.83,1121.31,205.32,1118.5,205.18Z"/><path class="cls-1" d="M707.11,98.53c0,3.46,3.56,7.43,6.51,7.3,2.44-.1,5.22-3.48,5.3-6.45.11-4-2-6.69-5.28-6.68C710.11,92.7,707.09,95.4,707.11,98.53Z"/><path class="cls-1" d="M658.88,494.13c-4.33,0-6.44,1.89-6.49,5.89,0,4.43,1.5,5.85,6.4,5.85,3.84,0,5.27-1.52,5.29-5.63C664.1,495.9,662.62,494.16,658.88,494.13Z"/><path class="cls-1" d="M649.75,307.06a5.92,5.92,0,0,0,5.65,6.21c3.69,0,7.06-3.18,7-6.63,0-3-2.6-5.21-6.06-5.26C653.09,301.34,649.91,304.06,649.75,307.06Z"/><path class="cls-1" d="M650.9,599.87c-.11-2.89-3-6.4-5.34-6.48a6.89,6.89,0,0,0-7,7.12c.1,2.5,3.83,5.78,6.59,5.79C647.75,606.31,651,602.68,650.9,599.87Z"/><path class="cls-1" d="M583.7,818.4c0,4.16,1.88,6.31,5.6,6.3s6.07-2.29,6.11-5.6c.05-3.8-1.9-6.52-4.72-6.6C586.53,812.38,583.73,814.75,583.7,818.4Z"/><path class="cls-1" d="M783.59,99.43c0-2.51-4.23-6.62-6.79-6.6s-6.15,3.65-6.17,6.49c0,2.53,3.29,5.69,6,5.8C779.93,105.24,783.59,102.23,783.59,99.43Z"/><path class="cls-1" d="M926.28,79.92c0,3.46,2.54,5.6,6.47,5.5,3.43-.08,5.73-2.58,5.68-6.15,0-3-2.75-6-5.39-6.11C930,73.09,926.26,76.82,926.28,79.92Z"/><path class="cls-1" d="M661.87,194.72c3.75,0,6.72-2.64,6.68-6a6.06,6.06,0,0,0-6-6.33c-3.77,0-5.71,1.89-5.77,5.77S658.83,194.69,661.87,194.72Z"/><path class="cls-1" d="M677.23,518.18c4.33,0,7.22-2.58,7.18-6.41,0-2-4.85-5.74-7.35-5.74-2.17,0-5,3.2-5,5.7C672.07,516.71,673.24,518.19,677.23,518.18Z"/><path class="cls-1" d="M716,647.48c3,.1,6.46-3.31,6.46-6.29,0-2.59-2.53-6.55-4.22-6.62-3.72-.16-8.14,3.14-8.21,6.12C710,643.39,713.49,647.39,716,647.48Z"/><path class="cls-1" d="M937.91,44.54c-4.08,0-5.35,1.42-5.32,5.85s1.48,6.34,5,6.38c3.27,0,6.5-3,6.45-6.07C944,46.48,942,44.51,937.91,44.54Z"/><path class="cls-1" d="M807.51,78.65c-2.1,0-5.58,4.12-5.55,6.54,0,3,2.74,5.24,6.23,5.29,2.41,0,7.27-3.46,7.45-5.37C815.85,82.79,810.62,78.63,807.51,78.65Z"/><path class="cls-1" d="M997.94,441.43c2.84-.29,6.15-2,5.53-5.78,0-3.93-2.05-6.5-5.14-6.42a6.75,6.75,0,0,0-6.56,7C991.8,439.83,994,441.83,997.94,441.43Z"/><path class="cls-1" d="M1019,112.53c-3,0-6.56,3.28-6.57,6.14,0,2.63,3.67,6.64,6.2,6.77,2.7.14,6-3.5,6-6.67C1024.64,116.3,1021.29,112.56,1019,112.53Z"/><path class="cls-1" d="M845.62,461.88c2.89-.12,5.33-3.34,5.1-6.74-.15-2.29-4.05-7-5.7-6.85-2.66.19-6,4.73-5.78,7.89A6.7,6.7,0,0,0,845.62,461.88Z"/><path class="cls-1" d="M925.45,35.07c3,0,7.45-4.28,6.82-7.17-.49-2.22-1.72-4.77-4.5-5-5.44-.54-7.46,1.12-7.52,5.65S921.7,35.1,925.45,35.07Z"/><path class="cls-1" d="M733.41,659.45c0-3.18-3.24-6.21-6.63-6.21-3.08,0-5.84,3.15-5.79,6.59,0,2.95,2.67,5.11,6.23,5.14C731.68,665,733.43,663.45,733.41,659.45Z"/><path class="cls-1" d="M725.55,625.55c3,0,6.4-2.66,6.3-4.88-.15-3.65-3.89-7.63-7.1-7.56-2.38.06-5.92,4.39-5.77,7.08C719.09,622.28,723.17,625.6,725.55,625.55Z"/><path class="cls-1" d="M788.93,387.64c0-3.61-2.27-6-5.76-6-3,0-6.63,3.11-6.69,5.87-.07,3.16,2.94,5.91,6.45,5.9C786.59,393.41,789,391.15,788.93,387.64Z"/><path class="cls-1" d="M693.31,711.55c0-3.52-1.91-7-3.92-7-4.4-.18-7.67,2-7.78,5.22-.14,3.93,2.48,7.12,5.82,7.1C691.05,716.8,693.31,714.77,693.31,711.55Z"/><path class="cls-1" d="M660.37,320.42c-1.77,1.65-3.71,3.29-4.09,5.8a6.65,6.65,0,0,0,2,6.2,5,5,0,0,0,5.77.73c2.18-1,3.86-2.53,3.78-5.38.05-1.43-5-7.65-6.44-7.72A1.52,1.52,0,0,0,660.37,320.42Z"/><path class="cls-1" d="M837.16,431.39c3.23,0,5.7-2.26,5.72-5.17s-3-7.2-5.08-7.14c-3.07.08-6.9,2.89-6.9,5.05C830.91,429.24,832.8,431.43,837.16,431.39Z"/><path class="cls-1" d="M834.76,25.66a6,6,0,0,0,6-6.23c0-3-3-5.58-6.33-5.57s-6.09,2.33-6.18,5.28A6.26,6.26,0,0,0,834.76,25.66Z"/><path class="cls-1" d="M783.09,475.18c3.94-.05,5.65-1.81,5.63-5.76,0-4.12-1.83-5.93-5.91-5.93s-5.64,1.73-5.62,6.12C777.21,473.18,779.38,475.23,783.09,475.18Z"/><path class="cls-1" d="M682.28,129.24c-2.37,0-5,3.21-5,6,0,4,2.09,6.43,5.67,6.37,3.28-.07,6.7-2.15,6-5.55C688.92,132.77,685.44,129.21,682.28,129.24Z"/><path class="cls-1" d="M1077.18,228.42c0,2.69,2.82,5.81,5.37,5.89,2.89.1,7.59-3.9,7.73-6.56.11-2.28-3.38-5.08-6.4-5.12C1079.78,222.56,1077.2,224.79,1077.18,228.42Z"/><path class="cls-1" d="M1130.6,242.33a5.67,5.67,0,0,0,5.72-5.72c.13-3.72-2.08-6.36-5.35-6.41-2.81,0-7,3.67-7.14,6.25S1127.36,242.22,1130.6,242.33Z"/><path class="cls-1" d="M740.69,130.41a5.76,5.76,0,0,0,5.79,6.08c3.11,0,6.4-2.56,6.47-5.12.11-4.06-2.17-6.66-5.85-6.67C743.24,124.69,740.65,127,740.69,130.41Z"/><path class="cls-1" d="M1126.75,186.07c-2.67.06-5.78,3.35-5.7,6,.12,3.74,2.5,5.82,6.67,5.8s5.72-1.55,5.71-5.57C1133.42,189.43,1129.77,186,1126.75,186.07Z"/><path class="cls-1" d="M717.65,468.61c-3.76,0-6.11,2.22-6.11,5.88,0,3,3.79,6.55,6.92,6.52,2.67,0,4.74-2.66,4.79-6.1C723.3,470.73,721.45,468.65,717.65,468.61Z"/><path class="cls-1" d="M1066,216.62c1.46.13,5.92-3.73,6.06-5.24.28-3-3-7.34-5.61-7.42a6.68,6.68,0,0,0-6.74,6.64C1059.62,213.18,1062.94,216.36,1066,216.62Z"/><path class="cls-1" d="M1094.05,127.06c-3.4,0-6.53,2.45-6.64,5.21-.09,2.37,3.88,6.35,6.41,6.42,3.15.1,6.46-3.28,6.43-6.54S1097.81,127.06,1094.05,127.06Z"/><path class="cls-1" d="M988.78,421.14c2.57.1,5.16-2.59,5.21-5.41.09-4.42-1.83-6.94-5.33-7s-6.44,2.32-6.42,5.35C982.27,417.41,985.62,421,988.78,421.14Z"/><path class="cls-1" d="M699.93,512.38c3.15.12,6.43-2.66,6.48-5.49s-3.59-6-6.81-6.15c-3-.18-5,1.49-5.63,6.18C693.87,510.06,696.26,512.25,699.93,512.38Z"/><path class="cls-1" d="M745,65c-2.36-.12-4.95,2.79-5,5.67-.13,4.23,1.91,6.62,5.73,6.71,2.73.06,6.39-2.59,6.43-4.66C752.2,69.74,748,65.16,745,65Z"/><path class="cls-1" d="M744.51,368.63a5.67,5.67,0,0,0,5.73-5.31,6.23,6.23,0,0,0-12.43-.84C737.55,365.8,740.51,368.52,744.51,368.63Z"/><path class="cls-1" d="M726.78,35.05c3.33-.11,6-3.09,5.94-6.77,0-3.86-1.49-5.48-5-5.51-4.28,0-6,1.62-6,5.82S723.59,35.15,726.78,35.05Z"/><path class="cls-1" d="M672.35,431.39c4.19.33,4.87-1.06,5.57-5.38.53-3.26-2.83-6.59-6.44-6.88-2.5-.2-5.2,2.76-5.27,5.8C666.12,428.87,668.41,431.27,672.35,431.39Z"/><path class="cls-1" d="M723.55,332.84a5.72,5.72,0,0,0-5.49,5.89c0,4.15,2.22,6.56,6.93,6.52,1.68-.19,4.32-.88,4.46-4C729.66,336.41,727,332.89,723.55,332.84Z"/><path class="cls-1" d="M795.43,57.14c-.09,3.23,1.94,5,5.68,5,4.61,0,6.76-2.11,6.75-6.54,0-3.37-2.06-4.62-7.35-4.48C797.87,51.16,795.52,54,795.43,57.14Z"/><path class="cls-1" d="M1077.76,145.43c-2.32,0-5.58,4-5.63,7,0,2.26,3.64,5.25,6.47,5.25a6,6,0,0,0,5.81-6.13C1084.38,148.89,1080.63,145.45,1077.76,145.43Z"/><path class="cls-1" d="M729.47,136.5c-4.12,0-6.2,1.58-6.23,4.77a7.31,7.31,0,0,0,7,6.91c3.37,0,4.7-1.64,4.7-5.82C734.9,138,733.58,136.51,729.47,136.5Z"/><path class="cls-1" d="M1047.23,129c2,.14,6.34-4.09,6.31-6.2,0-2.48-4.19-6.53-6.88-6.69-2.21-.13-5.17,3-5.25,5.53C1041.32,124.64,1044.59,128.79,1047.23,129Z"/><path class="cls-1" d="M666.23,241.47c0,4.18,2.3,6.68,6.2,6.71,3,0,4.79-2,4.81-5.42,0-4-2.51-6.88-6.15-6.87S666.23,237.38,666.23,241.47Z"/><path class="cls-1" d="M778.71,407.42c.09-2.62-.17-5.71-3.17-5.92-5.16-.38-7.87,2.3-7.85,6.54,0,4.06,1.73,5.87,5.55,5.84C776.68,413.85,778.72,411.45,778.71,407.42Z"/><path class="cls-1" d="M760.55,820.27c-.07,3.4,2.11,5.27,6.11,5.26,3.36,0,6.79-2.35,6.76-4.59s-4.5-7.13-6.45-7.12C764.28,813.84,760.61,817.53,760.55,820.27Z"/><path class="cls-1" d="M639.31,768.7c0-3.86-3.32-7.61-6.68-7.51-2.63.08-4.36,3.64-4.29,8.85,0,2,3,4.23,5.78,4.3C637.08,774.41,639.29,772,639.31,768.7Z"/><path class="cls-1" d="M651.06,212.53c.19,2.68,3.72,5.6,6.76,5.59s6.39-3.56,6.23-6.39a5.91,5.91,0,0,0-6-5.17C654.73,206.64,650.87,209.93,651.06,212.53Z"/><path class="cls-1" d="M663.76,133.59c-3.77.11-7,2.63-7,5.53,0,3.57,3.12,6.93,6.49,6.88,3.21-.05,5.39-2.21,5.23-5.21C668.27,136.94,666,133.52,663.76,133.59Z"/><path class="cls-1" d="M692.63,410.23c0-3.16-3.14-6-6.75-6-4.48,0-6.51,1.49-6.52,4.85,0,3.51,2.38,5.55,6.49,5.57S692.61,413,692.63,410.23Z"/><path class="cls-1" d="M682,492.16c-.06-3.48-3.4-7.63-6-7.5-2.91.14-6.08,3.14-6,5.68.1,3,3.9,7.32,6.37,7.24C678.15,497.52,682,493.84,682,492.16Z"/><path class="cls-1" d="M1115.91,274.79c0-3.89-1.65-5.61-5.37-5.58-4,0-7.58,2.44-7.65,5.14-.06,2.41,4.29,6,7.23,5.94C1113.53,280.24,1115.91,278,1115.91,274.79Z"/><path class="cls-1" d="M579.93,22c4.5,0,5.33-.74,5.34-4.82,0-3.84-2.56-6.91-5.76-6.88s-5.89,3-6,6.53C573.49,20,575.91,22,579.93,22Z"/><path class="cls-1" d="M692.14,238.74c-2.57,0-4.86,2.85-4.88,6,0,4.15,2.09,6.4,6,6.41,3.74,0,5.15-1.53,5.2-5.64S696.06,238.66,692.14,238.74Z"/><path class="cls-1" d="M1113.54,231.07c.12-2.82-3.56-6.33-6.7-6.4-2.74-.07-6.31,3.41-6.22,6.06.1,2.89,3,5.16,6.64,5.16C1111.07,235.9,1113.42,234.09,1113.54,231.07Z"/><path class="cls-1" d="M678,196.74c0,2.8,3.9,6.3,6.89,6.23,2.28-.06,5.32-3,5.27-5.07-.1-3.71-3.21-7.44-6.21-7.46C681.39,190.43,678,194,678,196.74Z"/><path class="cls-1" d="M1038.09,151.84c-3.86,0-6.24,2.3-6.17,5.88a5.88,5.88,0,0,0,5.75,5.79c3.7-.08,5.95-2.28,5.91-5.78C1043.53,153.55,1041.91,151.82,1038.09,151.84Z"/><path class="cls-1" d="M679.28,736.31c2.9-.07,4.51-2.15,4.51-5.82,0-3.27-2.2-6.25-4.69-6.39s-7,3.49-7,5.57C672.18,733.72,675.08,736.41,679.28,736.31Z"/><path class="cls-1" d="M671.31,307c-.06,4.59,2.13,7.71,5.36,7.63,2.76-.06,5.57-2.65,5.59-5.16,0-4.31-2.33-7.66-5.45-7.72A5.2,5.2,0,0,0,671.31,307Z"/><path class="cls-1" d="M670.69,218.45c-.11,2.68,3.76,6.32,6.76,6.36a5.54,5.54,0,0,0,5.64-5.35c0-2.74-3.44-6.7-5.86-6.69C674.59,212.79,670.78,216.09,670.69,218.45Z"/><path class="cls-1" d="M723.93,113.09c-3-.12-6.41,2.74-6.57,5.55-.18,3.34,2.79,6.85,5.76,6.79,2.65-.05,5.91-3.76,6-6.83A5.47,5.47,0,0,0,723.93,113.09Z"/><path class="cls-1" d="M918.87,98.07c-.06,2.25,3.69,6.14,5.88,6.11,2.47,0,6.21-3.11,6.21-5.1,0-4.1-2.09-7-5.08-7.1C922,91.91,919,94.57,918.87,98.07Z"/><path class="cls-1" d="M1106.06,201.36c2.58.24,5.53-3.09,5.4-5.65-.22-4.35-2-6-6.24-5.85-3.76.14-5.36,1.72-5.25,5.21C1099.71,199.39,1101.8,201,1106.06,201.36Z"/><path class="cls-1" d="M720.88,491.82c-3.11,0-6.35,2.67-6.36,5.18,0,3.3,3.4,7.47,6,7.36,2.35-.1,5.48-3.37,5.55-5.79C726.22,494.38,724.21,491.78,720.88,491.82Z"/><path class="cls-1" d="M1041.55,426.26c-2.27-1.76-4.54-.37-6.28,1-2,1.56-3.91,3.8-3.09,6.47.88,2.87,3.71,2.79,6.36,2.95s4.07-1.1,5.77-2.43a2.78,2.78,0,0,1,.12-.71C1046.13,430.08,1043.86,428.05,1041.55,426.26Z"/><polygon class="cls-1" points="1044.32 434.26 1044.31 434.26 1044.31 434.27 1044.32 434.26"/><path class="cls-1" d="M651.8,700.58c3.25-.1,6.41-3.34,6.32-6.5-.06-2.27-3.47-5.16-6.07-5.14-3.86,0-6.29,2.11-6.24,5.33C645.87,697.79,648.61,700.69,651.8,700.58Z"/><path class="cls-1" d="M812.45,40.11c3,0,4.85-2.07,4.9-5.47,0-3.89-1.72-6-5-6.1s-6.72,2.79-6.66,5.75S809.12,40.06,812.45,40.11Z"/><path class="cls-1" d="M1029.17,142.19c3.9,0,7.42-3.23,7.17-6.56-.23-3.13-2.82-5.22-6.23-5a5.78,5.78,0,0,0-5.51,6.15C1024.76,139.84,1026.75,142.19,1029.17,142.19Z"/><path class="cls-1" d="M685.21,151.84c-3.33,0-5.79,2.11-5.82,5a6.79,6.79,0,0,0,6.44,6.74,4.88,4.88,0,0,0,5.18-5.2C691,154.37,688.72,151.82,685.21,151.84Z"/><path class="cls-1" d="M645.82,233.59c0,3,2.9,6.33,5.67,6.41s6.54-3.2,6.72-5.94c.16-2.49-3.38-5.57-6.47-5.61S645.85,230.8,645.82,233.59Z"/><path class="cls-1" d="M712.94,15.31c2.8-.06,5.1-2.9,5.13-6.35,0-4.51-.09-4.62-5.88-4.65-2.18.55-6.27-1.77-5.87,3.82C706.61,12.05,709.39,15.38,712.94,15.31Z"/><path class="cls-1" d="M718.13,294.77c0-4-1.76-5.7-5.78-5.75-3.58,0-6,2.51-6,6.2.06,3.15,2.35,5.21,5.69,5.1C716,300.19,718.16,298.25,718.13,294.77Z"/><path class="cls-1" d="M703.14,266.42a6.19,6.19,0,0,0-6.21,5.63c-.11,2.39,3.32,6,5.75,6a5.67,5.67,0,0,0,6-5.4C708.63,268.14,707.1,266.41,703.14,266.42Z"/><path class="cls-1" d="M721.9,513.82a4.94,4.94,0,0,0-5.12,4.95c-.14,2.81,3,6.7,5.35,6.75,4.06.08,6.22-1.55,6.25-4.73C728.43,516.34,726.06,513.79,721.9,513.82Z"/><path class="cls-1" d="M769.45,34.21c2.57.29,6.16-3,6.16-5.37,0-3.41-3.23-6.15-7.14-6.05-2.89.06-4.54,2.15-4.52,5.74C763.37,31.89,765.75,33.78,769.45,34.21Z"/><path class="cls-1" d="M705.27,194.23c-2.08-.27-6.45,3.89-6.64,6.32-.15,1.95,3.57,5.15,6.17,5.3a6.32,6.32,0,0,0,6.67-5.74C711.56,198.68,707.13,194.47,705.27,194.23Z"/><path class="cls-1" d="M619.54,795.9c-.12,3.8,2.44,6.37,6.32,6.33,3.62,0,5.37-1.74,5.39-5.27,0-3.74-2.12-5.75-6.16-5.78C621.65,791.15,619.64,792.86,619.54,795.9Z"/><path class="cls-1" d="M922.61,59.82c2.51.08,7-4.21,7.11-6.76,0-1.59-4-5.26-5.87-5.33-2.75-.11-6.63,3.38-6.91,6.22C916.78,55.52,920.88,59.75,922.61,59.82Z"/><path class="cls-1" d="M1110,134.06c-.07,4.49,1.69,6.62,5.59,6.77,3.07.12,5.32-2.51,5.41-6.34a5.39,5.39,0,0,0-5.55-5.37C1111.58,129.08,1110.06,130.46,1110,134.06Z"/><path class="cls-1" d="M712.77,248.22c-2.59,0-4.3,2.13-4.31,5.45,0,4,2.37,7,5.65,6.94,2.62,0,5.42-2.38,5.49-4.65C719.7,252.76,715.73,248.27,712.77,248.22Z"/><path class="cls-1" d="M753.91,49.14c-.06,3.33,3,6.17,6.61,6.25,3.08.07,5.13-2.2,5.11-5.66a6.46,6.46,0,0,0-6-5.93C757.06,43.77,754,46.68,753.91,49.14Z"/><path class="cls-1" d="M662.64,256.42c-4.59.73-6.22,2.26-5.92,6.54.17,2.48,3.55,5.8,5.93,5.62,2-.15,5.16-3.41,5.12-5.34C667.7,259.61,665.13,256,662.64,256.42Z"/><path class="cls-1" d="M938.44,434.82c.13-2.89-2.66-6.07-5.46-6.22s-5.45,2.68-5.46,6c0,3.6,2.31,6.24,5.57,6.3C936,440.92,938.28,438.38,938.44,434.82Z"/><path class="cls-1" d="M1125.43,295.62c.16-3.17-2.56-5.67-6.32-5.79-2.56-.09-5.46,2.7-5.51,5.3a6.42,6.42,0,0,0,5.21,6.11C1121.66,301.53,1125.28,298.45,1125.43,295.62Z"/><path class="cls-1" d="M725.39,565c0-3.33-2.27-6.55-4.69-6.64-2.82-.11-6.84,3.46-6.76,6,.08,2.29,4.26,6.28,6.67,6.36S725.4,567.93,725.39,565Z"/><path class="cls-1" d="M600.72,19.62c2.28.39,6.13-3.33,6.13-5.55,0-3.58-1.89-6-4.76-6-3.83-.1-6.7,2.36-6.69,5.73C595,17.54,597.28,19,600.72,19.62Z"/><path class="cls-1" d="M770.78,64.23c-2.44-.23-5.2,2.52-5.3,5.29-.15,4,2.06,6.86,5.26,6.86,2.91,0,5.61-2.39,5.7-5C776.55,68.46,773.37,64.47,770.78,64.23Z"/><path class="cls-1" d="M933.64,397.07c-3.13-.05-6,2.93-6,6.29a5.29,5.29,0,0,0,5.46,5.39,6.28,6.28,0,0,0,6-6.33C939.19,400.39,935.82,397.1,933.64,397.07Z"/><path class="cls-1" d="M675.74,108.29c-2.17,0-5.81,3.41-5.83,5.54,0,2.92,3.12,5.94,6.17,5.9,3.68-.06,5.55-1.81,5.51-5.16C681.56,112.41,677.76,108.32,675.74,108.29Z"/><path class="cls-1" d="M629.23,13.23c2.75,1.61,4.83.08,6.6-1.25,2-1.54,1.57-4.23,1-6.44s-2.74-2-4.55-2c-2.06,0-4.12,0-6.17,0l0,0C624.56,9.56,625.12,10.82,629.23,13.23Z"/><path class="cls-1" d="M713.4,589.81c3.73,0,4.71-1.16,4.71-5.5,0-4-2.05-6.32-5.51-6.27-2.74.05-4.74,2.65-4.74,6.17S709.79,589.84,713.4,589.81Z"/><path class="cls-1" d="M722.59,310.83c-3.56,0-6.68,2.32-6.67,4.91,0,1.78,3.43,6,4.86,6,4,0,6.79-2.64,6.77-6.36C727.52,311.91,726.33,310.81,722.59,310.83Z"/><path class="cls-1" d="M961.35,403.18c-.58-2.2-1.41-4.94-5-4.7-3.94.25-6.7,2.19-6.83,5.39-.09,2.28,3.3,5.47,5.78,5.45C958.77,409.28,962.15,406.21,961.35,403.18Z"/><path class="cls-1" d="M782.5,46.72c-3.11-.1-6.68,2.34-6.82,4.66-.16,2.65,3.21,6.3,5.86,6.37A6.1,6.1,0,0,0,787.37,52,5.55,5.55,0,0,0,782.5,46.72Z"/><path class="cls-1" d="M743.83,311.61c-3.64-.05-5.37,1.45-5.41,4.67,0,4,1.8,6.23,5.27,6.35,2.82.1,5.76-1.86,5.7-3.8C749.26,314.08,747.39,311.66,743.83,311.61Z"/><path class="cls-1" d="M1128.44,312.07c-2.2-1.17-4.41-2.82-7-1.27-2.21,1.29-4,3.44-3.17,5.86s1.8,5.51,5.78,5.21c1.16.33,2-.2,2.45-1.63.66-2.18,1.4-4.35,2.11-6.51C1128.76,313.14,1129,312.39,1128.44,312.07Z"/><path class="cls-1" d="M600.13,29.48a3.29,3.29,0,0,0-1.94,2.86c.08.89,1.5.91,2.37,1.25,2.57,1,5.14,2,7.69,3.12.89.37,1.65.74,1.73-.68.15-2.65-4.12-7.32-7-7.43A13.76,13.76,0,0,0,600.13,29.48Z"/></svg>