<svg id="Layer_1" data-name="Layer 1" xmlns="http://www.w3.org/2000/svg" viewBox="0 0 1461.4 1432.74"><defs><style>.cls-1{fill:#a62b2a;}</style></defs><path class="cls-1" d="M1122.89,1148.35c9.68-9.69,7.77-19.61,2.13-29.84-5-9-12.7-16-20.32-22.6-6.35-5.54-5.62-8.74.17-14.33,16.39-15.83,18-37.61,4.13-54.61-3.24-4-2.24-6.81-1.26-10.5,6.38-23.84-10.66-46.52-35.2-46.38-6.93,0-12.6-1.44-18.41-5.54-15.84-11.16-34.31-9-48,4.45-6.55,6.43-10.5,14.49-15,22.29-2.76,4.79-5.22,12.3-12.15,10.45-7.75-2.08-17.45-3.39-19-14.49-1.52-10.81-6.65-20.27-13.69-28.08-6.16-6.83-4-10.39,2.39-14.13,11.91-6.93,19.55-17.68,21.52-30.71,1.45-9.67,6.38-15.44,13-21,8.69-7.26,18.08-13.82,26-21.86,8.36-8.53,21.23-8.63,29.15-18.47,8.73-10.83,10.57-20.34,2.09-32.86-8-11.86-18.7-14.07-31.48-10.29C998.36,813,993.7,822.77,984.49,827c-12.8,5.79-25.48,11.92-37.82,18.61-5.59,3-10.75,4-16.64,2.1-10.88-3.44-21.61-3.08-32,1.76-3.67,1.71-6.14,1.92-8.65-2.06-12.74-20.21-29.83-36.05-50-48.7-4.29-2.69-5.6-6.5-6.15-12.44,30.07,9.09,56.73,2.84,82.43-10.73,4.42-2.34,9.48-4.56,14.33-4.77,10.85-.47,17.14-6.72,22.22-15,2.85-4.66,5.19-9.63,7.76-14.46,1.42-1.93.59-6.55,4.48-5.48,21.09,5.8,34-7.53,45.1-21.09,7.12-8.74,12.45-7.19,19-2.45,14,10.12,25.21,22.82,31.76,39.14,5.91,5.26,5.58,14,11.44,20.76,1.17-8.09-4.43-13.36-4.69-19.84-9.9-19.95-20-39.74-40.64-51.16-2.89-1.61-7-2.11-5.73-7.18,1.28-5.24,5.3-3.62,8.52-3.55,22.12.49,42.88,6.55,63.07,15.27,6.77,2.92,12.8,8,20.58,8.9.61-4.73-2.71-5-4.87-6.4-23.71-15.16-50.1-22.62-77.55-27.11-2.66-.44-7,1.79-7.52-3-.56-5.3,4.79-4.7,7.5-5.49,24.23-7.1,47-2.7,68.42,9.93h0l3.21,2.66c1.32-2,.68-3.46-1.35-4.48-20.56-17.16-44.48-21.67-70.08-17.11-7.77,1.39-11.33.22-14-7.06-4.14-11.12-10.75-20-24.06-20.93-5-.35-7.24-4.35-9.42-8a204.35,204.35,0,0,1-23.9-59.32c-2-8.87-1.14-15.73,3.23-24,11-20.76,10.34-44.08-5-60.31-12.77-13.48-18.11-29-25.59-44.27A135.56,135.56,0,0,0,909.49,407C887,382.73,859.4,366.18,829,354.07c-7.17-2.86-10.12-5.68-8.5-14.28,5-26.68,3.7-53.78,2.36-80.7-.54-11-.91-21.89,1.59-32.53,6.9-29.46,27.9-46.76,53.11-60.31a83.79,83.79,0,0,0,13.64-8.84c2.88-2.37,6.47-5.67,4.56-10-2-4.54-6.68-3.09-10.3-2.39-20.64,4-42,7.22-60.14,17.74-16.86,9.78-24.27,7.67-32.67-13.9a96.3,96.3,0,0,1-3.61-11.09c-9.18-36.54.52-55.73,35.09-70.68a202.26,202.26,0,0,1,34.41-10.89c16.69-3.91,33.32-8.2,47.54-18.36,3.26-2.33,8.15-5.11,5.89-10.23-1.92-4.34-6.85-3.17-10.39-2.4-17.77,3.83-35.72,1.67-53.58,2.28-41.14,1.39-78.73,11.78-106.26,45.3-4.82,5.87-11.37,6.16-18,6.44-9,.37-18-.55-26.68,2.7-3.68,1.38-7.71,2.55-7.94,7.4s4.37,5.1,7.3,6.28c21.38,8.59,35.89,24.06,46.46,44.18,16,30.47,27.44,62.48,36.06,95.79,7.25,28.05,10,55.87,4.21,84.43-4,19.48-3.94,19.68-23.22,20.47a138.13,138.13,0,0,0-15.12,1.88c-4.89.73-7.21-.36-9-5.94a343.2,343.2,0,0,0-21.71-52.77c-14.79-28.58-13.61-56.82.91-85.1,5.56-10.83,13-20.34,19.72-30.37,4.82-7.21,7.61-16,1.43-22.8-6.93-7.6-15.08-2.51-22.06,2.18-13.11,8.83-23.69,20.39-33.56,32.51-4.16,5.12-6.27,5.59-9.93-.22-10.3-16.36-24-29.83-38.07-42.85-4.36-4-4.68-7-1.85-11.92,8.13-14.18,19.08-25.68,32.17-35.24,15.5-11.32,30.9-22.76,41.34-39.32,3.58-5.68,7-12.35,1-18.18-5.31-5.16-11.68-2.56-17.28.55-10.86,6-21.15,13-32.24,18.77-23.15,12.1-45.8,25.35-64.76,43.77-3.87,3.76-6.11,4.63-11.31,1.12-35.35-23.85-69.84-48.76-101.86-77-9.36-8.26-19.29-15.78-31.87-19-6.27-1.59-9.2-.3-10.71,6.44-4.74,21.25-4.35,41.93,5.74,61.62,9.45,18.44,18.67,36.58,16.22,58.57-.89,7.93,3.28,15.92,7.34,23.14,3.71,6.59,7.51,13.13,11.45,20-4.88,1.83-7.77-1-10.7-2.39q-39.65-18.54-79.06-37.56c-50-24.2-102.29-37.44-158.19-34.5-16,.84-19.89,4.71-17.56,18.72,4.69,28.26,12.68,55.49,28.06,79.88,17.37,27.58,35.34,54.79,72,59.45,6,.76,10.18,5.16,14,9.87C354.5,301,392.89,327.13,435.7,347.52c49.24,23.46,101.85,35.64,154.76,46.74,14.57,3.06,27.46,8.35,38.42,18.38,2.28,2.08,5.28,3.47,1.49,7.12-17.63,17-36.48,31.6-61.56,36.18-5.37,1-13.75-2.28-15.71,4.17-2.11,7,5.76,11.11,10,16a11.74,11.74,0,0,0,3.56,3c6.83,3.27,5,5.7,0,9.52-15.61,11.94-27.13,27-31.33,46.58-2.75,12.81-1.78,25.26,7.93,35.51h0c-2.26,35,6.52,67.44,23.39,97.9-6.56,6.21-15.31,1.49-22.89,5C518,685.51,507.69,708.18,500.4,733A30.41,30.41,0,0,1,489,749.72Q419.53,803.24,400,888.9c-6.89,30.45-8.66,60.89-2.3,91.62,1.52,7.32,1.1,12.29-8.16,15.45-14.69,5-28.67,12.27-42.69,19.1-35.42,17.26-63.56,43.79-90.32,72-10.21,10.75-22,20.06-30.33,32.58-5.9,8.84-7.2,18.26.9,25.58,9.45,8.54,6.58,16.39,1.48,24.94-2.6,4.36-5.87,8.31-8.43,12.69-8.68,14.88-3.59,31,12,38.76,19.49,9.63,21.62,14.7,14.58,34.8-5.62,16,2,30.41,18.55,33.64,11.4,2.23,22.92,4.7,34.65,4.06,9-.49,13.88,4.6,16.89,11.84,2.45,5.92,1.21,12.28.37,18.51-1.93,14.34,5.11,26,18.11,32.07,14.62,6.85,29.15.5,43.56,0,18.21-.67,34.89,4.61,42.33,20.62,11.12,23.89,37,35.09,67.09,25.23,26.61-8.72,50.9-5.94,73.1,13.47C581.1,1433,604.21,1438,629,1426.59c30.82-14.23,61.49-15.33,92.56-.74,27.39,12.87,51.61,6.15,73.5-13,7.49-6.55,16.24-10.35,25.76-13.26,17.94-5.49,35,.15,51.86,4,25.2,5.66,45.15-2.2,57.46-24.9,8.69-16,25.18-24,42.85-22.15a254,254,0,0,0,37.52.91c14.62-.68,24-11.43,24.35-26.37.15-6.26-.46-12.54-.22-18.78.44-11.21,7.32-17.3,18.51-18.19,11.59-.91,23.29-1.88,34.63-4.3,16.84-3.6,23.75-17.69,17.78-34-6.84-18.7-3.77-26,14.26-34.25,10.52-4.83,16-12.54,16.08-24.75.1-10-5.4-16.68-10.19-24.24S1114.28,1157,1122.89,1148.35Zm-93.41-304.13-16-22.21C1025.55,824.68,1029.89,830.59,1029.48,844.22Zm-16-22.29-1.54-1C1013.3,820,1013.57,820.66,1013.44,821.93Zm-57.31,87.13c-1.93,8.46-5.64,15.86-15.6,22.08,2.62-9.69,5.6-16.43,5.19-24-.14-2.66-2.71-8.15,3.73-7.2C954,900.64,957.33,903.76,956.13,909.06Zm-50.92-45.68c7.61-2.71,15.91-3.66,22.95-.34,7.28,3.44,12.44,1.32,18.49-1.84,9.73-5.08,19.72-9.67,29.6-14.47l1.82,3.49c-13,8.4-25.13,19.15-39.3,24.4-10.06,3.73-22.66-2.65-34.37-1.89-.95.06-2.52-2.78-3-4.51C900.43,865.17,903,864.16,905.21,863.38Zm49.17-130.23c-4.2,20.56-17.39,31.17-38.85,30.27-3.65-.15-10,2.06-9.63-4.82.27-5.57-2.72-13,5.65-16,5.46-2,10.85-4.12,16.29-6.19,3.15,4.81-2,7.87-.79,11.72,3.62,2.25,5.17-.56,6.17-2.82,2.16-5,3.39-10.35,5.82-15.15,1.91-3.77,5.05-7.19,10.17-4.68C952.27,727,955.39,728.22,954.38,733.15Zm34.69-91.36c0-.32.38-.67.58-1,11.41,2.7,24.24,26.7,19.41,36.18-1.11,2.18-3,2.1-4.87,2.32-3.33.38-6.57,1.65-6.78,5.24s2.54,5.34,6.09,5.78c5.31.66,2.37,3.79,1.43,5.83-5.76,12.39-14.48,22.3-26.51,28.77-10.43,5.61-17-3.36-23.53-8.45-5.8-4.5,1.89-11.23.4-17.12-.09-.34,1.63-1.36,2.64-1.7C985.35,688.51,990.74,667.13,989.07,641.79ZM531.56,173.66c7.9-4.25,15.9-8.34,24.05-12.1,5.63-2.59,9.93-6.14,11.85-12.17,10.89-34.13,35.1-56.14,65-73.92C652.78,63.38,674.84,54.83,695,42c-5.16,11.65-13.85,19.73-23.22,27.08C658,80,642.62,89,631.55,103.07c-13.57,17.19-25.77,35.47-19.64,58.72,5.19,19.66,16.47,36.34,32.24,49.34,12.75,10.51,22.8,8.57,33.09-4.22,11.92-14.82,22.23-31.21,38.93-41.57,1-2.14,3.55-5.29,4.45-4.38,2.92,3-1,4.24-2.72,5.93-2.4,4-4.75,8.05-7.21,12-22.52,36.42-26.41,73.6-5.22,112.14,15.71,28.57,27.78,58.57,34.25,90.67,2.88,14.26,3,14.11-10.71,13.17a56.94,56.94,0,0,0-12.84.65c-15.06,2.42-15.15,2.53-15.23-12.08-.14-26.92-8.15-51.73-21.48-74.62A372.76,372.76,0,0,0,584,200.26a81.57,81.57,0,0,0-50-17.55c-2.78,0-7.15,1.82-8.07-2.24C525.23,177.17,528.91,175.09,531.56,173.66Zm28.91,542.16c3.95-1.45,8.34-2.15,12.61-6.66-21,3.72-38.25,13.42-59.31,22.49,9-20.26,17.69-36.84,36.22-45.44,13-6,26-2.38,36,8.75,5.47,6.11,11.21,12,16.92,17.89.66.68,1.9.79,4.18.66-44.29-50.15-56.62-108.84-46.78-174.45-11.44,8.88-9.59,22.67-17,31.67-5.12-38.27,17.67-61.06,45.06-81.34,3.84-2.84,10.43-4.38,8.22-11.08-2-6.06-7.83-3.45-12.25-3.78-6.54-.51-11.86-3.36-16.74-9,26.52-5.29,46.81-20,64.51-38.74,4.13-4.36,6.46-4.47,9.51.77,5.8,10,11.93,19.77,18.6,29.17-3.82-33.16-22.5-55.58-52.87-66.65-33.34-12.16-68.06-20.52-101.5-32.44-56.88-20.28-109.6-47.95-151.54-92.89-3.46-3.71-7.16-7.36-9.89-11.59-8.38-13-20.42-20.25-35.27-23-12.95-2.42-22.53-9.44-31-19.27-21.88-25.28-37.53-53.57-45.47-86.23-2-8.33.23-9.78,7.93-10.12,41.78-1.86,82.28,5.22,120.13,22,58.57,25.93,118.35,49.43,174.4,80.77,40.25,22.52,77.15,49,102.67,88.9,18.33,28.66,23,61.05,28.11,93.48,2.16,13.7,3.14,27.69,10.57,42.65,2.66-15.8-.37-29-1.63-42.21-1.9-19.81-1.18-21.58,19.13-30.81-1.21,17.84-1.46,35-7.45,54,18.74-19.64,38.76-26.73,63.26-18.44-1.5-14.93-2.86-30.07-7.32-44.52-2.72-8.82.93-10.12,8.13-10.5,27.2-1.42,52.93,4.83,77.37,15.92,39.67,18,76.56,39.76,96.92,81,12.32,24.94,16.31,52.15,19.7,79.24,3.81,30.47,10.86,59.87,24.08,88.79-9.93-.25-18.46-4.12-27.63-4.38-19.58-.54-35.08,7.07-46.93,22a24.75,24.75,0,0,1-14.21,9.08c-11.4,3-23.55,5.06-30.58,16.34a1,1,0,0,0,0-.17,2.46,2.46,0,0,0-2.81,2.3c1.3-.22,3,.11,2.87-1.9,1.08,0,2.3.38,3.18,0,28.42-12.86,48.64-.9,65.27,21.61,6.15,8.34,13.19,14.84,23.51,18.24,9.38,3.09,4.74,10.36,1.56,15.1C926.25,737.67,885,747,859,732.2c-2.46-1.4-4.75-2.58-7.61-2.26,8.91,12.73,22.42,16.19,36.58,16.64,8.23.27,11.89,1.92,9.1,10.53-3,9.15,2.33,12.84,13.68,15.14-21.4,9.1-40.25,10.17-59.23,6.29-15.55-3.18-29.38-9.54-36.87-25.48-3.62-7.7-9.79-14.12-16.51-19.54-4.45-3.59-2.93-5.61,1.22-7.25,13-5.13,25.64-11.52,40-12.36,5.92-2.27,12.12-2.31,18.32-2.3,3.82,0,8.7.94,8.36-4.92-.32-5.54-5.27-4.74-9-4.49-8.07.54-16.12,1.44-24.18,2.19-15,6.28-30.5,11.31-44.3,20.16-3,1.93-6,.14-9-.34-14.08-2.2-27.65-1.36-39.68,7.42,8.87-1.11,17.64-2.82,26.59-1.9,2.55.26,6.15-.61,7.16,2.53s-2.29,4.71-4.3,6.22C758,747,748.43,757.2,739,767.6c-1.17,1.28-1.73,3.1-2.51,4.73C747,767,753.6,757.26,762.43,750c21.45-17.52,28.23-16.37,41.85,8.35a252.38,252.38,0,0,1,17.48,39.66c2.17,6.29,5.83,10.46,11.43,14,39.1,24.76,62.83,60.12,71.73,105.5,2.81,14.34,1.87,15.32-12.39,12.33-19-4-38.19-2.41-57.34-2.26-4.11,0-8.73,1.71-11.7-3-14-22.45-35-38.9-51.06-59.63-10.32-13.36-19.73-27.23-25.32-43.37-.57-1.65-1.14-3.9-4.87-3.86,1.66,15,8.2,27.88,15.3,40.45,9.66,17.11,23,31.54,34.78,47.15,15,20,29.73,40.32,34.28,65.92a77.73,77.73,0,0,1,0,25.69c10.52-11.46,11.86-25,9.13-39.52-2.92-15.52-2.92-15.62,13.4-15.65,12.9,0,25.74.05,38.64,1.73,54.16,7.08,78.45,46.17,60.74,97.87-3.92,11.43-9.38,22.12-13.25,33.67,9.75-10.29,15.73-22.94,20.54-36,2.63-7.13,6-11.57,13.24-14.75,17.71-7.83,29.67-22.29,40.91-37.65,13.1-17.91,24.32-20.95,42.37-13-3.07,5.49-9.62,8-11.89,14h0c-.22.86-.45,1.71-.68,2.56l2.42-1h0c5.76-2.37,11.33-5.43,17.3-7,17.22-4.49,36.7,9.45,37.1,26.06.15,6.41-1.24,11.23-8.9,12.64-6.86,1.27-13.45,3.92-18.11,9.71.37.4.74.81,1.1,1.22,2.58-.89,5.15-1.77,7.72-2.68,8-2.81,16.32-5.16,23.07,1.86,7.15,7.45,7.67,17,4.68,26.37-2.71,8.5-8.79,14.48-16.36,19.25-24.19,15.23-51.45,22.58-78.44,30.36a507.78,507.78,0,0,0-104.82,43.41c-17.63,9.69-35.73,17.39-56.87,15-9.41-1.09-17-7.25-26.33-7.63,1.4-2.65-.47-3.65-2.39-4.62-.31-6.67,5.74-8.76,9.27-12.56,8.6-9.25,18.28-17.55,24.73-28.8-15.45,11.74-29.69,24.88-45.8,35.66-11.71,7.85-23.53,15.49-36.75,20.51-3.35,1.27-4.64,2.31-5.11,6.23-2,16.43-2.28,16.56-18.12,11.26-15.36-5.14-30.27,0-45.22,1.86-18.11,2.29-35.91.31-53.77-1.78-5-.59-7.11-2.69-3.46-7.68,1.9-2.6,5.35-4.8,3.81-10-20,13.68-40.21,25.68-64,30.65-38.07,8-74.58,2.23-110.35-11.24-3.47-1.31-8.21-2.5-7.15-7.76,1-4.8,5.35-4.75,9.3-5.36,27.68-4.31,54.39-11.22,76.63-29.62,6.8-5.62,7-6.06,10.31-18.23-15.37,23-29.19,12.16-42.88,4C445.73,1084.94,407.45,1016.78,408,928.49,408.51,833.83,471.45,748.24,560.47,715.82ZM405.63,1016c20.5,57.84,54.94,101.56,104.09,134.38-36.32,3.57-67-7.77-89.86-36.21S391.31,1053.62,405.63,1016ZM248.42,1212a26.18,26.18,0,0,1-5.65-1.27c-3.1-1.3-7.79-1.41-8.45-5.23-.75-4.29,4-5.26,6.86-6.82,6.8-3.74,13.87-7,20.81-10.5,5.25-2.64,7.14-1.06,6.32,4.69C266.77,1203.72,258.85,1211.91,248.42,1212Zm76.63,30.21c-.61,4.91-1.33,10.31-1.92,15.71-1.64,15-9.83,22.33-24.72,21.73-8.93-.36-17.84-1.27-26.75-2-1.92-.14-4.5,0-4.72-2.29-.14-1.51,1.25-3.63,2.58-4.74q23.7-19.86,47.64-39.44c1.69-1.38,4.18-3.57,6.2-1.69C327,1233,324.22,1237.66,325.05,1242.25ZM407,1288.5c.32,4.27.08,8.57.08,12.86,0,37.82-3.47,41.38-41.16,42.32-4.28.11-8.58.2-12.84.57-3.77.32-8.5,2.76-10.6-1.56-1.8-3.71,2.91-5.83,5.17-8.23q24.06-25.53,48.39-50.82c2.34-2.44,4.58-6.79,8.26-5.5C408.93,1279.78,406.71,1284.87,407,1288.5ZM507.5,1384c-12.93,2.73-26,4.8-39,7-5.46.9-9.3-1.3-6.12-7,14.07-25.39,28.61-50.53,44.55-78.5A364.49,364.49,0,0,1,521.28,1366C522.55,1374.12,516.84,1382,507.5,1384Zm142.74,20.16a320,320,0,0,1-35.15,12.95c-8.85,2.79-11.47-2.88-10.51-10.31,2.55-19.73,5.44-39.42,8.41-59.1,1.19-8,1.09-16.19,5.29-25.75,11.33,18.24,22,35.31,32.53,52.41,2.06,3.32,4.1,6.67,5.84,10.15C661,1393.07,658.53,1400.39,650.24,1404.13Zm126.64-.07a147.82,147.82,0,0,1-15.12,8.86c-5.46,2.68-10.93,1.78-11.22-5.14-1.17-28.2-3.76-56.4-1.85-87.86,13.43,14.51,24.81,27,36.38,39.28C812.13,1387.92,797.87,1390.4,776.88,1404.06Zm141.45-39.27c-4.34,6.93-9,13.67-14,20.15-6,7.79-10.46,7.21-14-2-9.89-25.78-19.44-51.69-29.12-77.54l1.74-2.17c17.38,12.35,35.18,24.16,52,37.28C922.65,1346.55,923.88,1355.91,918.33,1364.79Zm94.85-24.72c-3.19,4.1-5.4,2.17-7.09-.59-12.65-20.66-25.11-41.43-37.63-62.17l2-2c13.18,7,27.07,13,39.36,21.39C1022.67,1305.5,1023.33,1327.05,1013.18,1340.07Zm-59.26-90.2c-67.14,25.14-137,37.19-208.33,42.21-63.87,4.5-127.54,3.22-190.93-5-73.61-9.57-145.44-26.06-211.07-62.72-22.67-12.66-43.51-27.79-59.24-49-22.5-30.34-23.59-61.77-1.33-92.12,27.46-37.43,67.65-56.51,112.24-75.59-12.43,33.61-14.89,64.41-.35,94.55,14.4,29.84,38.42,48.49,70.32,57.72-19.54,19.48-16.92,34.1,7.66,45.12,29.9,13.41,60.49,23.24,94.11,19.1a121,121,0,0,0,50.25-18.23c4.29-2.7,8.2-3.76,13.16-2.81a217.2,217.2,0,0,0,107.72-6.27c6.27-2,11-1.53,16.16,2.74,10.64,8.81,21.66,5.33,23.1-9.08,1.08-10.81,6.89-14.79,14.43-18.76,10.14-5.34,16.67-16.33,28.85-18.41-1.23,2.63.32,3.85,2.53,4.73l0-.06c13.95,17.36,42.71,22.67,70.16,12.7,20.62-7.5,40.05-17.64,59.57-27.53,27-13.68,55-24.24,84.7-30.41,11.79-2.45,23.7-5.3,34.62-10.76,5.81-2.9,7.9-1.15,9.67,4.8,10,33.45-3,59.68-25.82,82.6C1027.34,1218.31,991.49,1235.8,953.92,1249.87ZM1084.85,1275c-9.38-8.06-33.91-40.31-37.54-49C1080,1226,1093.28,1238.15,1084.85,1275Zm31.93-70.67c-4.24,2.59-6.93-2.18-9.26-5-6.33-7.72-12.35-15.7-20.37-26,14.58,3.37,25.75,6.33,31.17,18.34C1120.18,1195.79,1121.52,1201.48,1116.78,1204.35Z"/><path class="cls-1" d="M736.32,772.68a3.78,3.78,0,0,0,.17-.35l-.35.19Z"/><path class="cls-1" d="M985.75,425.91c-2.31,2.22-1.4,7,1.76,9.51,5.71,4.5,5.86,10.54,5.71,16.95-.19,8.61.66,17.29-.21,25.81-1.33,13,6.76,11.95,15.46,12.39,9.86.5,14.79-2.09,13.68-12.95-.76-7.36,0-14.86-.2-22.29-.25-8-.2-14.24,11.26-14.34,11.09-.09,12.12,5.22,11.74,13.76s-.15,17.21,0,25.82c.06,4.45.67,8.45,6.24,9.77,17.12,4.07,23-.29,23.06-17.31,0-1.95-.16-3.92,0-5.86,1.13-11.93-4.17-25.15,7.63-35,2.53-2.12,1.56-6.38-1.16-8.4-7.13-5.28-6.66-12.66-6.52-20.14.12-5.87-.52-11.8.15-17.59,1.18-10.21-2.43-13.87-13-13.37-16.42.78-16.46.13-16.47,17.15,0,5.86-.2,11.74,0,17.6s-2.1,8.24-8.18,8.54c-13.45.67-14.64-.16-14.71-14,0-4.69-.43-9.43.08-14.07,1.23-11.21-1.64-18-14.64-14.57-12.38-3.32-14.42,3-14.57,13.75C992.69,400.23,997.59,414.55,985.75,425.91Z"/><path class="cls-1" d="M1274,490.3c12.07-.43,24.13,1,36.21-1.2,20.35-3.67,32.47-15.48,37.55-35.29,2.87-11.19,2.33-22.52,1.71-33.77-1.64-29.49-19.51-46.47-49-47.12-2.35-.05-4.69,0-7,0-26.59,0-26.56,0-26.62,26.07,0,9.18,1.93,18.79-7.34,25.63a6.21,6.21,0,0,0-.11,9.48c11,8.24,6.5,19.84,7.51,29.67,0,6.85,0,13.09,0,19.34C1266.84,487.94,1269.19,490.46,1274,490.3Zm21.21-34.81c-.43-8.58-.14-17.21-.14-25.81,0-9,.37-18-.11-27-.41-7.75,3.06-8.79,9.1-6.32,2.84,1.16,5.84,2.48,8,4.52,12.49,11.57,12.18,49.85-.35,61.13-3.91,3.53-8.66,6.46-13.79,4.72C1292.5,464.9,1295.37,459.34,1295.18,455.49Z"/><path class="cls-1" d="M1155.64,507.2c-11.2-2.38-22.59-1-33.86-1.66-9.13-.57-13.16,2.71-12.06,12.06a68.33,68.33,0,0,1,0,11.71c-.58,9.74,3,20.4-6.91,28.11a5.71,5.71,0,0,0,0,8.54c10.31,8,6,19.21,6.92,28.3,0,6,.43,11.16-.09,16.18-1,9.45,3.2,12.61,12.24,11.93,8.16-.61,16.42.13,24.59-.46,24.38-1.74,39.12-13.91,44.11-37.81,3.29-15.74,3.3-31.86-1.65-47.48C1183.8,520.23,1172.27,510.74,1155.64,507.2Zm3.87,80.65a17.27,17.27,0,0,1-7.5,8.68c-9.4,5.51-14,3-14-7.9,0-8.58,0-17.15,0-25.72,0-9,.4-17.94-.11-26.88-.51-8.74,4-8.81,10.1-6.72,5.38,1.85,9.64,5.34,11.67,10.75C1165.61,556,1165.86,572,1159.51,587.85Z"/><path class="cls-1" d="M1196,372.93c-15.39,0-14.78,0-15.61,15.49-.66,12.31,4.71,25.78-6.6,36.58-2.52,2.41-1.76,7.75,1.8,10.58,5,4,5.13,9.18,5,14.79-.17,10.16.2,20.33-.11,30.49-.35,11.53,7.8,9.43,14.59,9.47,6.5,0,14,1.65,13.42-9.25-.49-9.69-.11-19.42-.11-29.14,8.37,6.32,12.29,14.91,15.16,23.37,4.37,12.9,12.53,16.08,25,15.28,10.41-.68,11.09-4.85,7-12.69-4.54-8.64-8.66-17.52-13.53-26-3.94-6.81-3.33-11.74,2.56-17.43,11.79-11.39,12.33-25.72,7.18-40.19-4.88-13.69-16.39-19.47-30-20.91C1213.28,372.51,1204.62,373,1196,372.93ZM1227.25,412c-.1,10-5.82,16.78-14,16.67-4.81-.06-4.81-.06-4.81-18.44,2.67-4.19-5-13.37,5.28-15C1221.5,393.89,1227.36,402.06,1227.25,412Z"/><path class="cls-1" d="M1352.12,611.86c-4.68-9-9-18.26-13.93-27.12-4-7.16-3.64-12.36,2.81-18.41,11-10.3,10.62-24,7-37.23-3.51-13-13.63-19.4-26.42-22.07-9.69-2-19.49-1.31-29.25-1.35-15.43-.05-14.82.06-15.64,15.74-.64,12.31,4.76,25.84-6.64,36.57-2.37,2.24-1.45,7,1.72,9.5,5.43,4.26,5.23,10,5.15,16-.13,9.79.15,19.58-.08,29.36-.27,11.49,7.95,9.25,14.73,9.46s13.77.93,13.25-9.6c-.47-9.6-.1-19.23-.1-28.84l3.06-.64c3.94,8,8.84,15.7,11.61,24.09,4.45,13.52,13.59,16.52,26.32,15.11C1353.22,621.54,1355.83,619,1352.12,611.86Zm-31-58.09c-2.75,5.51-7.84,8.13-13.56,7-5.41-1.1-2.45-6.46-3.09-9.93a33.56,33.56,0,0,1-.06-5.85,53.13,53.13,0,0,1,.06-7c.48-3.47-2.07-8.52,3.65-9.6a11.41,11.41,0,0,1,11.5,4.43C1324.58,539.34,1324.75,546.56,1321.15,553.77Z"/><path class="cls-1" d="M874,318.76c-7.61.56-14.6-2.07-21.68-4.32-4.34-1.38-10.73-6.41-12.18,1.68-1.28,7.21-8.62,17.11,4.15,22.08a70.11,70.11,0,0,0,27.89,4.92c34,.76,53.3-19.89,44.56-49.82-4.56-15.62-12.42-31.42-31.56-36.33-9.8-2.52-17.88-14.25-15-21.05,4.82-11.4,14.34-8,23.11-6.09.77.17,1.52.37,2.29.55,4.72,1.08,10.86,6.49,12.48-3.16,1.31-7.8,7.08-17.17-6.23-21.09-10.79-3.18-21.74-3.21-32.58-1.89-12.4,1.52-21.92,8.36-27.15,19.87-12.94,28.52,7.82,44.11,23.45,62.18,3.41,3.94,6.13,4.57,10.28,5.31,8.34,1.48,11.64,7.82,11.57,15.35C887.28,315.1,881.39,318.2,874,318.76Z"/><path class="cls-1" d="M1112,475.68c1.65-8.15,6.45-9.62,13.5-9.4s15.27-1,15.83,9.14c.76,13.78,8.48,15.74,20.31,15.26,10.08-.42,13.35-3,10.6-13.26-7.89-29.42-15.09-59-22.69-88.53-4.43-17.18-4.54-17.15-24.49-17.15-11.07-3.29-15.28,4.37-18.15,16-3.1,12.57-3.31,26.7-15.21,35.77a6.22,6.22,0,0,0-1.33,8.59c5.2,6.45,1.9,12.66.39,18.93q-3.69,15.38-7.86,30.64c-1.28,4.68-.15,7.42,4.79,8.63C1101.91,493.76,1109.18,489.83,1112,475.68Zm8.31-38.5c1.9-7,3.17-14.13,5.43-24.52,6.25,9.73,6.19,17.63,7.74,25,1.25,6-2.88,6-7.06,6C1121.94,443.76,1118.72,443.21,1120.35,437.18Z"/><path class="cls-1" d="M1174.44,276.21c-.41,12,5.83,17.52,11.36,25.43,7,10.05,3.18,17.07-9.29,17.69-7.93.4-9.24,2.7-8.81,10.61.71,12.85,7.41,14.76,15.47,13.25,21.33.1,28.71-5.41,34.84-23.6,3.37-10,2.92-22,14.55-27.92a4.84,4.84,0,0,0,.76-8.07c-5.18-4.36-3-8.9-1.64-13.79,2.58-9,5.09-18,7.27-27.11,1.06-4.41,5.29-9.93-2.45-12.65-9.19-3.22-22.23.57-23.66,7-2,9.13-3.48,18.4-5.45,27.55-.43,2-.35,5.16-3.46,5.33-2.93.16-3.6-2.72-4.34-4.74-3.47-9.51-6.59-19.16-10.11-28.65-2.3-6.19-20-10.88-27.66-6.57-8,4.52-1.21,10.34.5,15C1166.19,255.61,1174.8,266,1174.44,276.21Z"/><path class="cls-1" d="M1253.27,598.78c-3.53,0-7.1-.38-10.56.07-10.43,1.39-11.18-4.73-11.28-12.82-.1-8.35,1.29-14,11.41-12.84,3.47.39,7,0,10.56,0,3.22,0,4.91-1.61,5.43-4.87,1.85-11.62-3.64-18.71-15.43-18.38-8.1.23-12.15-1.45-12.06-10.87.08-9.76,5.07-11,12.66-10.47,3.12.21,6.31-.32,9.38.1,9.22,1.28,12-2.28,12.13-11.68.1-10.11-4.26-11.86-12.74-11.46-10.16.48-20.35.11-30.53.12-18.47,0-18.15,0-18.59,18.21-.29,12,3.85,25.14-7.58,35-2.08,1.79-1.65,5.79.68,7.49,8.91,6.46,7,15.75,7,24.55,0,31.34,0,31.34,31.32,31.34h23.49c3.77.09,6.78-.62,8.1-5C1270.38,605,1266,598.84,1253.27,598.78Z"/><path class="cls-1" d="M1301.51,298.64c7.8,1.91,14.18,6.71,12.62,15.51s-9.42,7.54-16.05,6.63a43.31,43.31,0,0,1-6.77-1.85c-14.1-4.42-14.74-3.83-16.5,10.28-.74,5.89,1.62,8.91,6.74,10.45,7.51,2.25,15.13,4,21.43,3.54,24.07.41,36.86-9.32,39-28.42,1.86-16.43-15.79-44.51-29.87-46.84-6.12-1-9.71-4.38-9.12-9.95.67-6.25,6.07-7.51,11.63-6.71a27.4,27.4,0,0,1,7.88,2.1c7.26,3.48,10.33,1.09,12.14-6.52,2.45-10.32-.85-15.79-11.3-16.79-6.58-.63-13.06-1.9-19.82-.85-17.41,2.71-27.4,13.29-28.15,30.53C1274.78,273.87,1289.79,295.76,1301.51,298.64Z"/><path class="cls-1" d="M1043.05,529.62c3.44.89,6.92,2.58,9.76-.67,6.66-7.62,2.47-20.58-7.41-23.38-26.13-7.4-47.77,4.5-55.7,30.68-2.12,7-2.61,14.45-9.15,19.67-3.85,3.07-3.53,7.94.2,11.33,5.1,4.62,6,10.56,7,16.83,4.06,25,19.15,39.5,43.5,40.25,5.14,0,11.89-1.72,18.6-4,10.61-3.6,7.11-11.5,5.7-18.49-1.68-8.29-7.07-4.56-11.86-3.33-14.21,3.65-22.63-1.1-26.35-15.46a79.7,79.7,0,0,1-.17-38.34C1020.72,529.7,1028.07,525.76,1043.05,529.62Z"/><path class="cls-1" d="M1034.7,301c1.52,10.33.64,21.08.16,31.62s6.23,10,13.18,9.71c6.75-.25,15,2.1,14.47-9.55-.36-7.81.32-15.66-.18-23.45s2.43-10.47,10.12-10.22c5.16.17,13.83,2.78,13-6.5-.62-7.18,1.56-19.11-12.86-17-8.67,1.29-10.48-3.26-10.38-11,.1-7.42,1.18-12.32,10.19-11.31,4.25.48,8.59.06,12.89.07,3,0,5.14-.82,6.43-3.89,4.77-11.27-.63-19.59-12.92-19.62h-15.24c-6.26,0-12.53.28-18.76-.08-6.85-.39-10.62,2-9.84,9.27C1037.19,259.73,1031.64,280.26,1034.7,301Z"/><path class="cls-1" d="M1094.78,291.77c4.59,4.13,3.1,9.39,3.19,14.29.18,9.39.13,18.78,0,28.17,0,3.88.83,6.73,5.1,8,15,4.42,22-.55,22-15.86,0-5.09.46-10.22-.1-15.25-1-9.43,2.86-12.76,12.08-11.94,5.05.45,12.59,1.69,11.16-7.09-1.08-6.61,2.08-17.61-11-16.35-9.14.89-12.33-2.66-12.36-12,0-9.77,4.82-11,12.5-10.37,3.49.3,7,0,10.55.07,5.88.18,7.7-2.34,6-8-2.94-9.95-6.67-18.47-19.8-15.63-3,.65-6.24.1-9.37.1-4.3,0-8.66.45-12.89-.09-10.46-1.34-14.11,2.07-14.29,13.38-.22,14.36,5,29.52-3.88,43.26C1093,287.59,1093.66,290.75,1094.78,291.77Z"/><path class="cls-1" d="M925.61,253.4c4.73.6,11.83-1.84,12.18,5.41.39,8.17,3.55,17.1-2.79,24.66-2.33,2.79-2.72,6,0,8.37,4.24,3.76,3.21,8.49,3.26,13.06.1,9,.7,18-.14,26.94-1,11.08,5.62,10.59,13.14,10.6,7.91,0,14.28.54,14.47-11,.23-14.07-4.31-28.83,4-42.28.71-1.16-.11-4.08-1.18-5.4-5.4-6.61-2.57-14.29-3.11-21.48-.47-6.4,2.89-9.68,9.28-8.74,11.09,1.62,12.69-4.06,12.82-13.6.15-11.46-6.89-10.06-14-10-7.43,0-14.85,0-22.27,0-8.21,0-16.52.83-24.6-.19-13.19-1.66-13.5,7-14.13,15.85C911.79,256.63,920.18,252.71,925.61,253.4Z"/><path class="cls-1" d="M1082.59,505.45c-15,.7-14.54.14-15.26,15.79-.56,12.27,4.56,25.76-7.25,36.21-2.85,2.53-1.73,7.82,1.72,10.51,5.74,4.48,5.94,10.36,5.77,16.77-.25,9.36.32,18.76-.16,28.11-.61,11.93,7.83,9.18,14.39,9.37,7,.2,14.47,1.71,14-9.83-.61-16-.15-32-.15-48,0-15.23-.61-30.49.21-45.68C1096.46,508.19,1092.83,505,1082.59,505.45Z"/><path class="cls-1" d="M994.73,301.16c1.69,9.88.83,20.33.16,30.46-.8,12,7,10.73,14.57,10.77,7.37.05,14.14.8,13.6-10.41-.74-15.22-.18-30.5-.19-45.76,0-15.65-.28-31.31.1-47,.28-11.82-8-9.11-14.64-9.32s-14.47-1.53-13.25,9.23C997.43,259.84,991.19,280.36,994.73,301.16Z"/><path class="cls-1" d="M1254.55,273.58c6.25,1.48,8.45-2.06,10.12-6.85,3.07-8.79,6.25-17.55,9.16-26.4,1.37-4.15,2.51-8.47-3.56-10.31-14.18-4.31-21.42.63-21.88,15.08-.06,2,0,3.89,0,4.1-.34,6.43-.16,10-.81,13.36C1246.4,268.65,1248.3,272.09,1254.55,273.58Z"/><path class="cls-1" d="M1117.39,719c.55.3,2.56-.7,2.53-.94a4.87,4.87,0,0,0-4.23-4.36c-.65-.12-1.52.89-2.81,1.71A31.72,31.72,0,0,0,1117.39,719Z"/><path class="cls-1" d="M1147.32,741.93l-2.27-2.15C1144,742.45,1145.42,742.45,1147.32,741.93Z"/><path class="cls-1" d="M1147.69,741.83l-.37.1.11.11.14-.12-.14.12.27.05c0-.09,0-.17,0-.26Z"/><path class="cls-1" d="M1145,739.66s0,.06,0,.09l0,0c0-.09.06-.18.1-.27A1,1,0,0,1,1145,739.66Z"/><path class="cls-1" d="M1142.82,737.23l-2.3-2.38c-.78-.79-1.55-1.58-2.32-2.38l-2.39-2.31c-.75-3.18-3.58-4.3-5.89-5.93a17.14,17.14,0,0,0-9.33-6.21c.44,5.84,4.18,6.77,7.6,8h0l6.14,5.72h0l2.37,2.37h0l2.35,2.26h0l2.36,2.23c1.06.92,1.87,3,3.59,1A2.13,2.13,0,0,0,1142.82,737.23Z"/><path class="cls-1" d="M1147.7,742.09c.07.91.13,1.82.2,2.72l1.75-.5A2.18,2.18,0,0,0,1147.7,742.09Z"/><path class="cls-1" d="M1149.75,744.39l.11-.14-.21.06s0,.06,0,.09c-1.75,1.38,0,2.34.62,3.45l1.43-.94-2-2.41Z"/><path class="cls-1" d="M737.69,485c-11.41,1.5-9.52,22-26.45,16.06,11.89,20.77,25.53,39.56,45.33,53,10.52,7.16,22.18,13.28,35,10.52,13-2.81,11,2.71,7.88,10.47h0c-.45.4-1.31,1.12-1.28,1.15.88,1.15,1.53.64,2.07-.37l-.23-.23.23.23c11-5.73,15-20,7.08-28.09-2.3-2.36-1.78-3.45-1.22-5.59,2.09-8,4.1-16.12,6.54-25.74l16.68,22.16c-9.5-29.88-27.67-52.09-56.72-64-21.61-8.88-42.82-6.78-63.21,5.8l27.54,1.72Zm46.88,8.57c9.27,5.73,14,19.94,11.18,33.32-.16.76-.37,1.51-.56,2.27-5.28,22-10.11,24.45-30.72,15.72-7.26-3.08-13.41-7.73-19.57-13.48,8.5-3.21,14.94-8.06,14.82-17.65-.1-8.86-5.47-14.16-13.94-17.45C760.47,485.5,770.65,485,784.57,493.58Zm-39.42,8.63c4.22.35,6,3.15,5.66,7.08-.26,3.67-2.87,5.42-6.24,5.37-4-.07-6.38-2.2-6.25-6.5C738.77,504.09,741,501.87,745.15,502.21Z"/><path class="cls-1" d="M571.55,254.74c-47.39-29.3-98.65-50.72-149-73.94-44.91-20.69-87.86-47-139.33-49.07-10.67-.73-21.31-1-31.82.15l.21,3.91h31.08c17.33.89,33.8,5.63,50.14,11.1,25.78,8.63,48.35,23.76,72.52,35.66,52.6,25.88,105.57,51.07,155.18,82.57,43.11,27.38,74.45,63.5,86.07,114.3,1.8-11.08,1.3-22.5-2.88-33.52C629.25,307.94,606.68,276.45,571.55,254.74Z"/><path class="cls-1" d="M825.52,690.14a407.85,407.85,0,0,0-118.35,35.49c-17.45,8.25-34.25,17.77-48.2,31.82,52.51-34.84,110.75-52.33,172.72-58.83,15.18-4,30.81-3.5,46.28-4.56,4.13-.28,10.22.69,10.26-4.89,0-6.3-6-5.9-10.73-5.44-15.09,1.46-30.17,3-45.25,4.5A49.33,49.33,0,0,1,825.52,690.14Z"/><path class="cls-1" d="M669.61,698.64c52.77-20.23,107.42-26,163.44-21.33,10.46,0,20.7,1.84,31,3.73,3.74.69,7.41-.09,7.71-4.59.25-3.74-2.91-5-6.23-5.4-8.74-1.2-17.47-2.46-26.21-3.7-37.67-1.48-75.07.91-111.9,9.2-24.62,5.55-49,12.26-70.83,25.57C661.48,703.26,665.41,700.25,669.61,698.64Z"/><path class="cls-1" d="M656.54,702.12a2.27,2.27,0,0,1-.25-.06l.13.13Z"/><path class="cls-1" d="M469.61,824.17c9.73-.32,18.83-3.09,26.78-15.34-15.43,5.23-27.82,5.75-40.49,2.25-5-1.38-7.27,3.82-8.29,8.12-2.24,9.42,2.06,16.58,8.83,22.53-13.42,14.8-16.11,37.78-4.52,56.72-2.37-19.86,5.18-33.86,13-47.74,3.1-5.51,4-10-.77-15.73S460,824.49,469.61,824.17Z"/><path class="cls-1" d="M657.65,757.49c-6.18,3.71-10.07,5.51-10.66,10.42C651.3,766.51,654.4,764,657.65,757.49Z"/><path class="cls-1" d="M647,767.94v0h0v0Z"/><path class="cls-1" d="M731.62,779.55c1.74-1,2.66-2.38,2.22-4.42A3.86,3.86,0,0,0,731.62,779.55Z"/><path class="cls-1" d="M1066,1032.34c1.69,1.63,3.16.8,4.6-.4-.36-.41-.73-.82-1.1-1.22Z"/><path class="cls-1" d="M615.31,723.52a2.57,2.57,0,0,0,.22-.94c0-.14-.47-.21-.72-.32a2.54,2.54,0,0,0-.16.91C614.69,723.33,615.08,723.41,615.31,723.52Z"/><path class="cls-1" d="M644.54,708.7a10.52,10.52,0,0,0,1.8-.58c-.25-.27-.53-.77-.71-.73a11.52,11.52,0,0,0-1.84.65C644,708.28,644.33,708.73,644.54,708.7Z"/><path class="cls-1" d="M656.29,702.06l-.08.21.21-.08Z"/><path class="cls-1" d="M655.66,703.74l.55-1.47-1.67.64Z"/><path class="cls-1" d="M640,774.74l2-2A1.77,1.77,0,0,0,640,774.74Z"/><path class="cls-1" d="M640,774.74l-.15.15.16.17C640,775,640,774.85,640,774.74Z"/><path class="cls-1" d="M610.16,718.29c.24,0,.52-.37.78-.58l-.66-.75-.79.62C609.71,717.84,609.92,718.27,610.16,718.29Z"/><path class="cls-1" d="M933.14,1079.05l-.63-.86c-.27.24-.72.45-.75.71s.37.57.58.85Z"/><path class="cls-1" d="M736.32,772.68l-.18-.16c0,.12,0,.22,0,.33Z"/><path class="cls-1" d="M736.16,772.85l-2,2C735.54,775,736.23,774.27,736.16,772.85Z"/><path class="cls-1" d="M733.92,775l-.13-.15c0,.08,0,.16.05.25l.11-.07.16-.17h-.32Z"/><path class="cls-1" d="M647,767.94c-1.6-.05-2.45.63-2.29,2.28A2.23,2.23,0,0,0,647,767.94Z"/><path class="cls-1" d="M650.43,706.31c.28,0,.58-.39.87-.61-.27-.25-.52-.69-.8-.71s-.58.39-.87.62C649.89,705.86,650.15,706.3,650.43,706.31Z"/><path class="cls-1" d="M635.36,779.43l2-2C636,777.45,635.5,778.25,635.36,779.43Z"/><path class="cls-1" d="M635.36,779.43l-.17.17.13.15C635.33,779.64,635.35,779.54,635.36,779.43Z"/><path class="cls-1" d="M635.19,779.6c-.06.12-.11.24-.16.36l.29-.21Z"/><path class="cls-1" d="M634.71,780.51A2.14,2.14,0,0,0,635,780l-1,.69C634.28,780.61,634.59,780.64,634.71,780.51Z"/><path class="cls-1" d="M731,780.38a1.6,1.6,0,0,0,.3-.42l-.86.51C730.65,780.44,730.91,780.49,731,780.38Z"/><path class="cls-1" d="M731.32,780l.33-.19-.07-.09.07.09a1.92,1.92,0,0,0,0-.22l-.09.06Z"/><path class="cls-1" d="M644.57,770.33c-1.63-.12-2.38.6-2.22,2.22A2.23,2.23,0,0,0,644.57,770.33Z"/><path class="cls-1" d="M642.35,772.55l-.15,0,.13.12-.13-.12-.15.14h.31A.92.92,0,0,1,642.35,772.55Z"/><path class="cls-1" d="M644.66,770.31l0,0s0-.07,0-.11h-.09s0,.07,0,.1h.11Z"/><path class="cls-1" d="M637.66,777.11l-.17.17.14.12-.14-.12-.15.15a1.61,1.61,0,0,1,.31,0C637.65,777.31,637.66,777.21,637.66,777.11Z"/><path class="cls-1" d="M639.87,774.89l-.18.18H640Z"/><path class="cls-1" d="M637.66,777.11l2-2A1.86,1.86,0,0,0,637.66,777.11Z"/><path class="cls-1" d="M859.79,1235.32c-1.55-3.22-4.4-2.51-7.13-2.14-4.3.57-3.35,3.38-2.68,6.1,1,1.39,2.68,2.79.76,4.49-.21.18-2-1.45-3.1-2.23-4.55-1.33-7-5.87-13.52-5-8.86,1.16-1.71,8.3-5.67,11-5.62-3.63-10.42-12-18.51-3.38,7.59,5.64,14.87,10.87,21.94,16.37,4.13,3.22,8.5,2.07,12.17.26,4.65-2.29-2.76-5.51-.48-8.4a6,6,0,0,1,6.69,1.4c4.41,4.38,10.38,6,14.81,2.35,4.93-4.05-1.54-8.71-2.2-13.27C862.5,1240.25,861,1237.77,859.79,1235.32Z"/><path class="cls-1" d="M926.77,1235.09c-6.53-5.51-13.27-10.82-20.25-15.76a5.27,5.27,0,0,0-7.3,1.33c-1.5,2.12,1.38,3.24,1.94,4.95l1.36,2-2.78-.59c-6.92-.65-13.83-6.76-21.26.44,6.66,5.44,13.06,11.07,19.9,16.11,4.49,3.31,10.33,8.31,9.71-3.75-.18-3.66,3.51-1.87,5.25-1.36,3.77,1.1,7.43,2.38,11.43,1.78C928.43,1239.72,930,1237.84,926.77,1235.09Zm-22.4.86-.84.68.84-.68.79.75Z"/><path class="cls-1" d="M444.79,1219s0,0,0,.06l.11-.11Z"/><path class="cls-1" d="M426.8,1219.68l-2.29.94c.23-.84.47-1.68.7-2.52.23-3.15,3.46-6.69-1.6-9.08-3.15-1.49-5.87-1.57-8.77.48-7.87,5.57-15.83,11-24,16.71,9.08,8.21,13.53-3.15,20.43-3.29,1.53,3.91-4.76,8.46.22,11.75,5.48,3.63,9.39-1.15,13.59-3.76,6.53-4,12.1-9.67,19.7-11.93C438.48,1210.37,432.71,1216.89,426.8,1219.68Z"/><path class="cls-1" d="M795.16,1251.05c-1.56-3.78-3.31-7-8.44-6-6.44,1.18-1.73,6.35-3.47,9.15-2.71-1.44-5.63-2.6-8.09-4.38-4.23-3-9.45-4.22-13-1.21s1.41,6.68,2.58,10.05a41.36,41.36,0,0,0,3,6.29c2,3.6,3,8.09,9.11,6.84,8-1.63-.41-7.31,3.22-10.33a36.65,36.65,0,0,1,4.82,2.4c4.9,3.36,10.94,7.92,15.74,3.45,4.12-3.84-2.78-8.54-3.91-13.16C796.52,1253,795.61,1252.12,795.16,1251.05Z"/><path class="cls-1" d="M937.87,1207.72c8.82,5.25,16.91,10.42,25.35,14.94,4.2,2.25,9,3.06,11.8-2.67l-3.09-2.47c1.71-1.37,3.33-.67,4.94.23,4.28.18,9,1.84,12.15-4.74-10.42.24-17-5.34-22.44-12.64C956.7,1199.87,946.74,1199.12,937.87,1207.72Z"/><path class="cls-1" d="M966.58,1200.37h.07l-.18-.15Z"/><path class="cls-1" d="M651,1252.34c-2.63-.69-5.57-1.14-7.8,1-1.92,1.83-.09,5.51-4.36,7.83-3.5-6.79-8.61-13-15.6-9.64s-3.48,12.78-5.82,19.2c-1,2.79.93,3.88,3.68,4.55,7.83,1.92,6.21-6.12,9.37-9.3,1.33.91,2.54,1.32,3.06,2.17,3,4.91,6.55,9.47,13,7.47s4.24-8.3,5.33-12.93c.36-1.52.65-3.06,1-4.59C653.34,1255.8,654.26,1253.19,651,1252.34Z"/><path class="cls-1" d="M465.67,1223.85c-6.6-2.89-13.64-4-20.73-4.8-1,11-14.23,11.41-17.73,20.75,13.85,5.81,27.49,8.88,40.42-2C474.14,1232.4,473.78,1227.41,465.67,1223.85Zm-8.19,10.65c-4.06,3.41-8.4,6.29-14.49,4.49,1.42-5.62,6.15-7.27,9.43-10.24,2-1.84,4.47-3.62,6.69-.27C460.72,1230.89,459.25,1233,457.48,1234.5Z"/><path class="cls-1" d="M444.84,1219h.1s0-.08,0-.12Z"/><path class="cls-1" d="M522.19,1243.14c-.59-8.77-9.37-7.63-15.49-8.78a19.32,19.32,0,0,0-12.38,2.27c-5.83,3.07-13,6.34-11.63,14.16,1.48,8.41,9.84,7,16.68,8.38a91.58,91.58,0,0,0,9.64-1.92C516.08,1255.1,522.73,1251,522.19,1243.14Zm-11.64-.32c-.83,6.6-6.23,9.13-11.27,11.17-3.18.16-5.61-.85-4.95-3.72,1.31-5.72,5.27-9.28,11.11-10.24C507.59,1239.67,511,1239.65,510.55,1242.82Z"/><path class="cls-1" d="M716.07,1251.89c-12.71-2.26-23.62,2.47-24.18,10.37a11.11,11.11,0,0,0,6.75,11.35c3.47,1.61,7.39,2.27,11,3.32,7.57-1.67,17.2.23,19.15-10.08C730.51,1257.73,724.26,1253.35,716.07,1251.89Zm-5.48,19.31c-4.89-.4-6.22-4.21-6.7-8.09-.51-4.16,1.8-6.56,6.09-6.48,5.69.09,6.42,4.48,7.24,7.73C717.25,1269.84,714.74,1271.55,710.59,1271.2Z"/><path class="cls-1" d="M399.67,1209.51c1.95-2.31,7.79-3.45,4.42-7.78a9.39,9.39,0,0,0-10.59-3.12c-11.69,4.1-23.42,8.11-36.18,12.52,4.94,5,8.8,3.11,12.53,2.75,2.7-.27,5.29-.53,7,2.56,5.27,9.38,6,9.45,13.63,2.16A124.73,124.73,0,0,0,399.67,1209.51Z"/><path class="cls-1" d="M953,1224.34c-3.37.74-7.35,3.25-9.93,2.21-8.08-3.27,3-4.13,1.24-6.51a8.18,8.18,0,0,0-5-2.56c-3.28-.5-6.45,3.17-9.89.55-1.45-4.69,6.64-2.69,4.92-8-8.34-2-14.72,2.42-21.91,6.28,25.25,20.89,28.59,21.63,46.45,10.72C957.46,1224.94,955.53,1223.78,953,1224.34Z"/><path class="cls-1" d="M966.65,1200.37l-.14-.16h0Z"/><path class="cls-1" d="M989.24,1187c-3.8-4.67-10.41-3-10,.21,1.56,10.92-5,5.31-8.53,5s-6.47.37-7.69,3.58c-.33.88,2.12,2.82,3.44,4.33,14.4-3,27.1,9,42.35,4.67C999.41,1201.57,994.76,1193.82,989.24,1187Z"/><path class="cls-1" d="M670.9,1264.38c.2-7.21,6.05-8.11,12.13-6.78,1.66.36,3.22.3,3.49-1.74.33-2.59-1.65-3.31-3.63-3.55-8-.94-15.74-.65-21.75,5.61a9.55,9.55,0,0,0-1.34,12c4.19,6.79,11.35,7.56,18.57,7.4,3-.06,6.37.4,9-4-1.65-.78-2.59-1.61-3.54-1.63C678.1,1271.54,670.66,1273.28,670.9,1264.38Z"/><path class="cls-1" d="M548.9,1242.25c-14.67-6.94-19.87,4.14-25.83,13.61-1.3,2.07-4.68,4.66-1.67,6.86,2.64,1.94,6.77,2.54,9.68-.5,2.07-2.17,2.92-6,6.84-5.48,10.47,1.35,8.25-2.9,3.24-7.75,2.55-2.49,4.93-1.64,7.18-1.39,2.53.29,6.09,2.3,6.59-1.86S551.07,1243.27,548.9,1242.25Z"/><path class="cls-1" d="M359,1197.26c5.28-3,10.9-5.45,16.75-8.31-7.68-5.08-27.25,1.55-39.82,13,4.68,2.33,9.08,4.92,13.78,6.7,2.55,1,7.12-.87,5.16-3.38C349.47,1198.29,356.38,1198.78,359,1197.26Z"/><path class="cls-1" d="M583,1266.44c-4.62-.62-2.82-3.19-2.22-5.85,1-4.35,4.93-7.79,4.05-13.31-17.65-2-13.26,14.65-21.67,22.3,7.62,1.18,12.91,2.11,18.23,2.78,2.17.27,5.24,1.34,6.26-1.26C589.23,1267.06,585.64,1266.79,583,1266.44Z"/><path class="cls-1" d="M744.1,1252.41c-1.45-4.05-6.42-3.42-9-1.18-3.76,3.25-.63,7.36.88,10.64,2.06,4.46,0,12.21,7.75,12.45,6.31.19,12.67-1.26,19-2l2.35-3.24C750.1,1271.2,747.45,1261.8,744.1,1252.41Z"/><path class="cls-1" d="M867,1228.9c-2.92.83-5.7,2.24-2.51,5.48a220.53,220.53,0,0,0,17.09,16c3.39,2.79,7.2,1.93,9.77-1.66C891.75,1244.71,870.7,1227.86,867,1228.9Z"/><path class="cls-1" d="M607.21,1249.79c-10.51,2.4-8,12.58-10.68,19.48-2,5.27,3.51,4.43,5.7,4,10.87-2.06,6.53-13.35,11.37-18.85C613.66,1249.17,609.9,1249.17,607.21,1249.79Z"/></svg>