<svg id="Layer_1" data-name="Layer 1" xmlns="http://www.w3.org/2000/svg" viewBox="0 0 2541.19 2376.95"><defs><style>.cls-1{fill:#a62b2a;}</style></defs><path class="cls-1" d="M1325.29.41c14.3,1.62,28.56,3.66,42.89,4.79,120.66,9.47,237.18,37,348.62,83.85,132.88,55.87,253.37,131.81,358.39,231.12,189.16,178.89,309,395.94,356.65,652.17,24.66,132.53,25.36,265.54,5.1,398.75-1.59,10.44-1.09,21.27-3.33,31.54-5.11,23.46-11.26,46.71-17.11,70-7.23,28.8-13.06,58.07-22.33,86.21-9.13,27.71-21.7,54.29-32.92,81.3-47.53,114.4-111.05,219.12-191.79,313.08q-262.6,305.58-656.36,392.15c-4.1.9-7.81,3.59-11.91,4.45-6.78,1.42-13.73,2.06-20.61,3-12.4,1.65-24.81,3.13-37.19,4.92-241.51,34.93-472.54.56-692.91-104.64-25.19-12-50.91-22.93-76-35.25-6.94-3.42-12.29-10.07-18.41-15.18-1.49-1.25-3-2.89-4.78-3.29-19.58-4.47-34-15.92-47.82-30.33-11.48-12-27.34-19.64-40.92-29.68a1187.95,1187.95,0,0,1-391.17-500.07c-51.56-124.3-80.53-253.7-87.86-388a1169.27,1169.27,0,0,1,5.12-193c28.23-254.5,128.72-476.65,299.38-667.11C470.24,299.48,565.59,223.9,671.43,161c85.85-51,177.45-87.64,273-115.6,60.24-17.63,121.64-29.13,183.74-37.13,22.9-2.95,46.1-3.52,69.15-5.38,4.17-.33,8.26-1.6,12.39-2.45Zm64.82,121.77V109.69l36.91,6,11.33-14.79h-52.53c1.52,7.37,3,14.32,4.38,21.27q1.63,5.05,3.26,10.13l-4.53,2.79-3-9.5-5.6,8.64c-6.55-11.13-14.45-15.05-27.48-10.88-7,2.22-15.37,2-23-6.2-9.5-10.2-12.5-20.08-8.47-33.3l-4.93.06q-1.7,16-3.4,32.05c-16.38,2.93-27.53-4.48-33.8-19.79-2.36-5.79-3.61-12-5.6-18-1.35-4.05-2.62-8.28-4.85-11.86-1.38-2.21-4.43-4.68-6.81-4.76-13-.46-26.25-2-38.77.41-8.85,1.68-17.56,8-24.35,14.31-2,1.87,2.74,11,4.44,16.75a10.32,10.32,0,0,0,1.07,2.09c4.23,7.59,1.32,12.28-6.51,13.53-10.78,1.71-21.7,2.51-32.94,3.74-.28,3.36-.59,7-.68,8h-15.53c-7.71,4.64-13.14,7.92-18.59,11.18a57.37,57.37,0,0,0-5.7,3.33c-4.55,3.53-9,7.25-13.43,10.89-3.38,1.9-6.16,9.49-7,9.28-13.66-3.38-12.28,18.06-25.18,14.9-.78,13.06-13.14,16.63-20,24.72-2.56,3-2.83,8-5.49,10.89-3.6,3.86-8.49,6.52-13.65,10.29-1.3-2.67-2.9-6-5-10.35-5.72,22.5-6.12,23.43-20.16,35.33-6.78,5.75-13.86,11.14-20.93,16.54-12.47,9.54-26,17.91-37.26,28.75-9.55,9.23-15.81,21-28.95,27.57-10.62,5.34-18.08,16.68-27.64,24.51-5.57,4.56-12.51,7.45-20.72,12.16,1.53,7.09-3.33,10.49-13.24,6.74-.74,1.88-1.47,2.95-1.55,4.07-.49,7.57,1.13,17.67-11.81,8.67-.83-.58-4,2.27-7.17,4.14l10.46,5.21c-5.32,4.95-9.91,11.1-16,14.38s-13.62,3.53-21,5.23c5.13,9.72-2.13,11.79-12.66,12.68l7,5.14c-9.46,8.46-18.35,17-27.9,24.7-4,3.21-9.24,5.27-14.25,6.6-1.7.46-4.42-2.92-6.68-4.54,1.9-1.54,3.61-3.49,5.76-4.5,2.48-1.17,5.36-1.53,8.06-2.23-4.59-4-14.8.41-11.23-7.77l15.8-5.88c-5.43-14.3,4.42-8.84,12.24-9.2-.79-3.64-2.24-8.13-4.67-8.75-6.1-1.56-6.57-.9-4.71-13.51.3-2,4.65-5,6.92-4.85,9.34.69,18.57,3.06,27.89,3.38,2.72.09,7.44-4.22,8-7.14,1-5.31-.67-11.09-.6-16.66,0-1.67,2.15-3.31,3.31-5,1.14,1.73,3.15,3.4,3.26,5.19.4,6.33.16,12.71.16,19.07l4.17.38c2.08-13.8,4.33-27.59,6-41.43.19-1.52-2.66-4.77-4.31-4.92-5.76-.52-11.75-.81-17.4.21-14.62,2.65-21.44-3-18.72-16.6.42-2.1,2.55-3.87,3.89-5.79,1.16,2.36,2.86,4.62,3.35,7.11.59,2.95.14,6.1.14,8.5l19.19-1.07-12.71-10.11,2.14-3.08c7.13,1.21,14.23,2.94,21.4,3.3,2,.1,5-3.5,6.06-6s.46-5.87.58-8.86c1.5.16,4.25.11,4.31.49.46,2.78,0,5.72.56,8.44.46,2.17,2,4.1,3.06,6.13,1.32-1.88,4.08-4.11,3.72-5.58-1.78-7.27.56-9.51,7.73-8.23,2.1.37,4.48-.8,6.72-1.26a69.74,69.74,0,0,1-6.1-4.38c-2.51-2.21-6.28-4.42-6.78-7.13-.68-3.64.84-7.93,2.28-11.61.56-1.45,3.44-2,6.48-3.61V297.6l4.58.34c.91-5.17,1.81-10.35,2.84-16.22L888.8,281c1.76-6.65,3.11-12.52,4.92-18.24.77-2.42,2.49-4.55,3.78-6.81.39,2.48.71,5,1.2,7.45s.63,5.06,1.95,6.85c.54.72,4.7.11,5.58-1.09,1.14-1.53.81-4.28.76-6.5a18,18,0,0,0-1.13-4.22c4.95-1,7.11,1.45,11.49,14.53.5-17.11,10.13-15.87,19.35-15.12a14.4,14.4,0,0,1,5.44,1.81c6.64,3.58,9.34,1.31,7.32-5.53-3-10,1-9.74,8.91-7.81,5.82,1.41,12.27.27,18.44.27l2.43-4.28c-22.69-.33-10.59-13.26-11.76-21.39l3-1,4,15.42,3.49-.6c.14-2.55-.58-5.66.63-7.52,1.76-2.73,4.7-6.13,7.5-6.49,7.16-.91,14.52-.3,22.86-.3-5.66-16.26,4.92-11.5,13.32-11.45-1.72-2.72-4.09-3.74-5.81-5.43a41.08,41.08,0,0,1-6.5-8.08c-1.3-2.19-1.64-4.95-2.41-7.45-1,2.69-2.13,5.37-3.1,8.1-.49,1.35-.76,2.77-1.12,4.17l-3.33.48c-.87-4.61-1.87-9.21-2.57-13.85-.88-5.82,1.07-8.14,7.24-6,1.93.69,4.58.15,6.58-.65.65-.26.86-4.25.2-4.61-2-1.08-4.66-.76-6.63-1.83-2.4-1.29-4.35-3.43-6.49-5.2l2.37-2.88,10.57,2.3c-1-12.47,5.08-16.85,14.49-14.72,2.94-4.82,4.9-11.42,7.56-11.72,7-.79,14.35,1.15,22.26,2.08,0-2.51.73-5.05-.17-5.92-1.34-1.31-4-1.1-5.77-2.16s-2.73-2.82-4.07-4.28c1.13-.83,2.64-2.63,3.32-2.36,15.53,6.22,9.24-6.79,10.78-12.85,15.62-1.5-1.22,14.73,11.07,15.73,1-4.59,2.19-9.63,3.34-14.67l3.54-.75,3.88,15c2-1.87,4.78-3.15,5-4.73q2.28-18.85,3.63-37.81c.3-4.36-.62-8.8-1.1-14.69l-51.44,9.22c1.05,13,2,24.91,3,37.47-21.4.48-40.21-1.48-53.69-19.58-1.88-2.52-8.38-3.47-12-2.5-19.7,5.23-39.75,9.86-58.63,17.35-52.47,20.82-104.41,43-156.62,64.49-7.88,3.25-13.39,6.87-7.77,16.33.66,1.13.09,3,.09,5.67-13.16-3.39-11.81,4-9.86,12.29,1.17,5,1.4,10.21,2,14.64l-12.56-1.09-1.42,3.07c-3.65-4.12-7.12-8.42-11-12.33-7.49-7.59-14.3-9.61-25.15-3.09C624.9,257.7,560.48,305.41,501.56,360.36A1132.19,1132.19,0,0,0,340.91,546.18c-39,56.52-73.07,115.39-101,177.84-15.55,34.83-29,70.68-41.88,106.6-8.93,24.84-15.3,50.6-22.81,76l2.23,2.79c10.07-9.44,27.4,8.29,35.13-12.78l3.07,6.32c3.93-2.69,6.84-5.82,10.36-6.78s7.61.26,11.46.52c.28-1.65.56-3.31.85-5l-8.79-1.56c-2.14-.39-4.46-.43-6.32-1.37-.73-.37-.92-3.88-.48-4.09,2.19-1,4.73-1.25,7-2,2.85-1,8.14-2.9,8-3.3-3.25-12.67,5.11-10,11.71-8.77,2.55-13.77,5-26.92,7.23-39.15,19.53-1.68,34.42-7.19,42.55-24.49.69-1.48,3.71-1.83,5.6-2.81,2.69-1.39,5.8-2.38,7.91-4.4,10-9.56,19.06-20.47,35.08-18.74,3,.33,6.13,0,10.24,0,0-7.75,1.36-14.32,11.19-12.26,1.06.22,3.9-2.33,3.9-3.6,0-9.81,7-9.66,13.56-9.66,3.22-13.89,3.92-14.29,14.35-7.4,1.77-5.69,3.44-11,5.34-17.12,14.67,7.22,11.74-6.92,16.05-13.41,13,6.76,12.94-3.63,14.33-10.46l16.06-3.88c-.51-3.78-.87-6.46-1.29-9.6,18.56,3.62,25.6-13.5,42.79-17l-13.28-5.35c9.2-2.87,18.08-4.09,25.22-8.29,7.8-4.58,13-14.65,21.09-17.41,12.32-4.22,18.73-14.75,28.65-21.3,6.85-4.52,12.17-7.09,20.9-3.6-24.32,21.73-50.34,40.23-62.93,65-10.33,2.91-19.25,3-24.37,7.39C480.6,701,474,711.68,465.93,720.94c-11.45,13.21-24.69,24.4-40.43,32.16-13.54,6.68-23.88,16.24-30.78,29.71-1.72,3.38-3.87,7.26-6.91,9.12-9,5.51-19.1,9.41-27.8,15.34-6.74,4.6-12,11.31-18,17.07l2.83,3.11c-10.09-.35-17,2.39-14.46,11.46-30.09,23.92-57.78,47.65-78.87,79.31l-5.46-8.42-23.2,19.47,1.65,2.55H212c4.39,12.36-3.19,15-14.47,15.54l4.53,5.13-9.85,19.32a7.65,7.65,0,0,1-2.5.35c-17-1.5-30.23,8.31-33.08,25a1130.76,1130.76,0,0,0,24.55,489c.16.6.89,1,1.33,1.52l10.28-6.8c-.84,5.18-.54,8-1.75,9.91-5.27,8.21-4.56,16.18-1.37,25,8.12,22.47,14.87,45.45,23.32,67.78,59.88,158.32,151.34,295.9,272.74,413.69,10.62,10.3,21.76,20.07,33.1,30.49,2.31-3.42,4-5.59,5.33-7.92,24.11-40.94,48.48-81.74,72-123,5-8.66,10.18-12.44,20.23-11.55,19.67,1.73,39.44,2.43,61.78,3.71-12.44-25.33-25.29-51-37.73-77-6.52-13.59-4.55-26.21,7-34.74,13.8-10.16,20.62-23.67,22.38-39.79,4.26-39,9.62-78,11.08-117.16,1.29-34.81,3.08-68.72,19.51-100.37,6.86-13.23,12.48-27.1,18.42-40.78,1.6-3.7,2.28-7.81,3.38-11.7-33.62-10-66.36-10.93-99.41-8.06-14.16,1.23-28.33,2.89-42.52,3.16-19.72.37-40.23-3.95-59,.09-38.61,8.3-76.36,20.7-114.33,31.88-3,.89-4.59,5.87-7.46,8.15-1.79,1.41-6.52,2.4-6.94,1.73-5.39-8.72-11-.06-16.24.08-1.5,0-3,6.53-4.2,10.16-1.81,5.51-3.35,11.11-5,16.66L363,1530.2c.57-6.6,1.14-13.2,1.78-20.67-5.47,2-9.53,3.53-13.56,5.1-4.19,1.63-8.35,3.35-12.33,5,1.28,3,2.12,4.94,2.91,6.8-4.08.55-7.39,1.59-10.58,1.3-6.64-.6-14.51,0-19.46-3.45s-.81-28,2.94-32.12c4.12-4.49,8.28-9.57,10.39-15.17,5.16-13.68,13.64-23.5,27.25-29.16a92,92,0,0,0,39.38-30.56c15.79-21.12,26.38-27.26,56.84-12.79a48.65,48.65,0,0,0,33.08,3.54c9.18-2.08,18.41-4,27.43-6.63,46.2-13.5,92.78-24,141.45-20.57,3.18.23,6.41-.39,12.16-.8-4.77-2.77-7-4.31-9.38-5.37a50,50,0,0,0-7.79-2.55c-12.77-3.26-12.76-4-8.11-16.79,14.23-39.11,38.7-70.31,70.31-97.1a137.93,137.93,0,0,0,30.6-37.93c19.57-35.34,36.94-71.89,55.7-107.69,1.75-3.33,1-6.89,5.17-10.8,13.5-12.58,24.19-28.17,36.14-42.82-15.87-9.16-22.12-22.85-26-37.76-1.78-6.79-2.2-13.69-13.21-10.36L807,998.11,805,996.27l-8.52,5.89-2-1.77,8.64-12.34c-9.4,6.36-24.85,3.52-28,20.43l-3.95-7.39c-17.82,8.86-35,19.45-53.64,26.17C695,1035.42,671,1039.83,648,1046.92c-7.08,2.17-13.47,7.33-19.5,12-10.51,8.14-19.83,18-30.92,25.18-9.47,6.13-20.27,6.84-30.55-1-7.27-5.58-15.62-9.76-23.48-14.57l-2.39,2.77,16.19,19.34c-5.38,1.11-11.13.88-11.95,2.79-1.28,3,.84,7.37,1.42,11.18.68,4.43,1.25,8.87,2.11,15l42,2.53,1.45,3.05L577.47,1134l12.2,14.85-2.1,3-35.38-1.67c.31,5.27.52,8.9.71,12.12H536.58l-16.83-25.1-13.18-4.13-8.17,22.36-5.8-8-3.54,4.6-22.09-5-2.44-8-23.3-5.81,21.31-6.2-5.08-7.52,20-6.15-.47-2.43H464.29c.79-6.63,1.42-12,2.18-18.42-5.58-7.86-12.94-10.28-22-1.49-1.65,1.61-5.13,2.14-7.65,1.9-8-.77-15.9-2.15-23-3.17,4.42-22.64,23.57-19.83,39.29-22.91l-4.57-9,45.88-4.19c-1.9-3.15-4-4.68-5.93-4.55q-20.18,1.35-40.31,3.43a8,8,0,0,0-5.48,3.6c-6.92,13.6-20,11.58-31.68,12.41-4.42.32-9-2.15-13.57-3.34-.14-1.7-.27-3.4-.41-5.1,16.31-8.13,32.66-16.16,48.85-24.51,2.22-1.15,3.62-3.89,6.27-6.89l67.67,5.1,16.43,11.58c1.25-2.21,2.57-4.55,4.47-7.89,1.51,3.43,2.44,5.52,3.77,8.52,4.5-4.89,9.3-8.33,11.65-13,7.32-14.56,21.25-17.4,34.79-21,7.17-1.93,14.81-2.32,21.75-4.79,36-12.81,70-29.43,101.18-52.13,12.11-8.82,27.47-13,40.61-20.62,19.26-11.15,40.54-20.73,56-36,18.68-18.4,32.06-42.14,48-63.37,6.74-9,14.16-17.45,21.29-26.14,2.53-3.09,5.12-6.14,7.68-9.22l-4,.31c-2.79-5.17-7.57-10.2-7.92-15.54-.67-10,1.65-20.09,1.89-30.17.13-5.23.2-12-2.74-15.48-8.75-10.38-11-21.63-7.8-34.11,3-11.75,6.11-23.61,10.68-34.81,13.44-33,50.76-49.83,83.49-39,4.12,1.36,9.75.52,14-1.14,19.56-7.68,38.07-18.13,60-18.74,10.59-.29,12,4.14,8,11.93-3.61,6.9-9.54,12.7-12.49,19.8s-7.16,17.76-4.09,22c6.67,9.16,17.85,14.94,26.7,22.66,2.61,2.28,5.87,7.5,4.92,9.58-6.94,15.15,2.93,26.65,7.4,40.14,16.46-20.72,32.58-41.1,45.48-63.33,12.51-21.56,19.76-46.25,32.77-67.43,29.55-48.12,51.09-98.73,56.29-155.32.94-10.27,6.25-17.95,10.06-26.68,4.41-10.07,13.32-3.68,19.71-6.22.43,5,1,9.95,1.25,14.93a47.64,47.64,0,0,1-.64,6.5c8.21-.87,15.69-2.17,23.17-2.16,2.44,0,4.86,3.46,7.3,5.34-6.86,7.88,5,6.92,5.62,11.87l-16.08,20.86c15,.58,16.43,3.88,9.13,17.22-6.17,11.3-11.7,22.95-17.77,34.31-2.76,5.16-6.33,9.88-9.2,15-3.58,6.39-7.85,12.64-10,19.51-12.3,38.77-23.84,77.78-36.18,116.54a87.47,87.47,0,0,1-11.65,23.9c-11.53,16.25-24.14,31.72-36.32,47.51-20.58,26.71-41.53,53.14-61.65,80.19-14.47,19.46-24.9,39.94-12.12,65.14,4.55,9,8.15,19.21,8.93,29.13,1.4,18.05,5.1,38-.61,54.11-12.63,35.76-30.77,69.56-46.11,104.39-8.69,19.73-18.79,39.34-23.78,60.08-7.49,31.16-10.69,63.33-16.36,95C981,1268.34,973.44,1298.92,969,1330c-5.51,38.46-8.41,77.28-13.08,115.87-2.49,20.55-6.27,22.72-26.67,19-1.15-.21-2.25-.73-3.4-1-20-4.06-39.92-8.42-60-11.79-2.93-.49-8.49,3.08-9.68,6-3.59,9-5.64,18.59-8.15,27.46-8.58-.65-16-1.69-23.33-1.54-2.88.06-7,2-8.37,4.42-11.74,19.78-23.54,39.22-29.07,62.31C774,1606,758.88,1660.86,744.84,1716c-3.84,15.08-7.56,30.31-9.61,45.7-3.78,28.39-6.22,57-9.35,85.44-1.82,16.67-6,33.39,8.37,47.64,3.74,3.69,4.9,10.7,5.63,16.4.37,2.85-2.89,8.87-4.49,8.86-13,0-11.79,8.74-11.79,17.11,0,73.52.32,147-.32,220.56-.09,11.47,3.45,17.26,13.4,22.52q248,131.09,528.34,132.08c97.83.45,194.19-12.47,289-37.2,21.84-5.69,43.46-11.65,56.31-32,8.47-13.4,19.93-22.58,32.53-31.55,11.77-8.38,21.75-19.24,32.7-28.8,10.17-8.88,21-17.09,30.75-26.35,7-6.65,12.76-14.67,19.36-21.8,1.41-1.52,4.07-1.86,6.15-2.75s5.35-1.32,5.71-2.62c1.72-6.32,4.71-9.51,11.72-11,2.72-.6,4.42-8.92,5.08-13.92.2-1.48-4.77-3.61-7.32-5.5-1.68-1.24-3.27-2.59-4.91-3.89,12.32.73,14.79-6.6,15.53-17h23.25l-.07-4.93c-7,0-14.92,2.19-20.69-.43-14.18-6.46-11.19,3.15-11,11.46l-17.27-2.73-2-3.61c10.21,3.06,15.07.81,13.88-8.63-.12-.92,4.83-3.9,6.82-3.43,6.9,1.66,8.75-1,9.4-7.39.62-6.18,2.74-12.21,4.2-18.3l2.92.42c-.61,6.22-1.69,12.44-1.63,18.65,0,2.69,2.4,7.64,3.7,7.64,6.76,0,15.51,4.16,18.53-6.9.55-2,3.57-3.4,5.58-4.9,4.63-3.47,9.35-6.84,14.13-10.32l3.17,8.85,3.38-.67c2.54-17,5.08-34,7.39-49.47l16.27-4.17c-3.44-9.1-6.12-16.2-8.65-22.87l34-2.23-4.4-11.14,26.48,2.62c.56,5,1,9.29,1.85,16.42l8.86-12.1c1.51,4.35,3.2,11,3.87,10.9,8.55-1.3,17-3.56,25.91-5.7,0,.46.93,4.47-.64,6.18-6.2,6.77-13.14,12.87-19.94,19.08a3.83,3.83,0,0,1-3.39.49c-11.47-4.89-17.44.71-21.77,10.66-1,2.25-3.76,4.33-6.18,5.22-10.29,3.79-20.76,7.09-31.28,10.61l8.89,7c-15.7-.93-15.74,10.92-15.86,19-.16,10.53-4.45,12.56-13.39,12.22-3.53-.14-8.17.87-10.52,3.17-6.09,6-11.23,12.91-16.67,19.53-7.66,9.33-15.31,18.57-26.63,14.12-10,16.71-19.24,32-29.38,48.95v-9.64l-130.48,114.6,1.8,2.5a1106.72,1106.72,0,0,0,211.7-92.73c67.55-38.32,130.77-82.9,188.6-134.71,56.27-50.41,108.56-104.7,153.92-165.4,46.32-62,87-127.34,119.59-196.94l-27.06-4.24.25-1.69,26.79-3.75-5.86-8.51c6.83-4.85,17.71-1,20.44-12.92,2.08-9,7.38-17.21,10.72-26,8.67-22.71,17.1-45.51,25.51-68.33,1.12-3.06,1.56-6.37,2.31-9.57l-3.3-1.92q-2.76,4.13-5.5,8.26c-1.59,2.42-4,7.17-4.57,7-8.91-3.44-9.52,1.63-10.38,8.44-.66,5.13-3.47,10-5.58,15.66-1.88-4.27-3.31-7.54-6.12-14l-8.56,25.85-4.06-11.89-3.14.53-6.45,25-2.76.27-1.89-11.06-2.53-1.08-10.74,24.87c-.71-10.89-1.27-19.37-1.85-28.17a19.84,19.84,0,0,1-3.93.27,43.34,43.34,0,0,1-7.15-1.73c-.33-.11,0-3.1.06-3.11,2.45-.16,5.21.63,7.33-.22a26.69,26.69,0,0,0,8.78-5.75c1.27-1.28,1-4.13,1.39-6.27l2.3.19,2.11,9.91,3.13,0c2-8.19,4.08-16.38,6.23-25h26c1.39-8.53,2.61-16,3.82-23.49l2-1.28,5.43,16.84,3.67.06c1-9.66,2-19.31,3.24-30.7,14.23,7.4,16.15-1.21,17.17-12.08,2.53,3.32,3.66,4.82,5.22,6.86,1.31-5,2.47-9.49,3.62-13.94l-8.26-2.08c11.39-1.1,12.1-9.73,14.07-17.49,15.4-60.61,26.42-121.93,32-184.28,10.21-114.35,4.24-227.77-20.55-339.8q-83.89-379.08-382-628.49c-36.61-30.7-76.23-57.8-113.88-86.12-14.26,23.12-27.8,43.32-39.46,64.54-10,18.22-25.43,30.91-40.06,44.6-12.3,11.51-26.7,10-42.16,7.67,4.48-10.07,8.43-18.95,12.37-27.83l-3.92-2.3c-3.56,15.09-16.78,16.38-27.51,18.83-7.58,1.73-19.85,5.85-22.45-9.09-.12-.73-2.57-1.4-4-1.51-10.23-.8-20.46-1.44-30.19-2.1l19.26-26.82c4.57-.57,9.39-.45,13.63-2,2.8-1,6.72-4.31,6.78-6.68.44-15.87,6.75-27.3,22.47-33.4a17.9,17.9,0,0,0-8.43.64c-20.82,5.56-19.1,30.35-34.5,40.56-.1.07.18.72.28,1.09l-19.07-4.36-7.31-11.6c-2.14,7.61-3.09,15-4.44,15.05-5.33.3-10.79-1.7-18.07-3.24,3-1.87,3.78-2.71,4.25-2.57,7.65,2.3,13.41.84,13.22-8.3-.16-7.62-3.83-11.3-12.66-9.83-2.84.47-7.69-4.42-9.71-7.95-1.61-2.82-.33-7.3-.33-9.27l-25.42-8.81c.27-1.43.53-2.86.8-4.29-6.88,2.11-15.61,2.45-20,7-2.73,2.83,1.11,12,2,18.29-31.5-2.3-40.61-10.21-50-43-.61-2.16-3.07-3.79-4.67-5.67-.6,6,1,10.31,1.89,14.8,2,9.8-6.89,27.35-15.42,27.28-14.06-.11-18.88,7.06-19.6,15.4l-18.69,12.87a21.26,21.26,0,0,0-6.34-.83c-9.76.85-19.48,2.39-29.25,3-2.06.13-5.52-2.12-6.23-4.05-3.93-10.59-13.88-20.21-3-34.32-25.21,3.87-24-16.18-33.56-30.83l-35.77,82.9c-17.63-4.43-16.19,13.74-23.39,22.46-1.37-3.59-2.52-6.62-4.11-10.81l-5.91,10.6c-8.73-23.31-10.5-45.8-1.25-69-17,15.7-36.35,28.61-43.44,53.64,6.58,0,10.87.15,15.14,0,12.81-.55,21.64,6.33,25.36,17.3,6.35,18.66,4.86,37.45-8.4,53-7.49,8.8-17.19,15.72-25,22.66-3.63-1.74-6.62-4.49-8.54-3.88-11.61,3.69-22.2-.06-31.55-5.47-6.66-3.86-14.19-6.67-18.53-15.44-8.28-16.76-11.65-33.11-5.22-52-11.37,4.09-21,10-31.32,13.78-28.58,10.43-57.76,19.25-86.15,30.12-16.4,6.27-31.86,15.08-47.53,23.14s-32,13.21-50.9,11.42c6.92-5.61,12.49-11.15,19-15.12a75.65,75.65,0,0,1,20.38-8.62c6.75-1.71,14-1.41,21-2-.17-.78-.33-1.57-.5-2.35l-40.81-11.33,31.2-13.66c-7.54-2.55-12.16-4.15-16.79-5.68-13.26-4.38-27.19-7.81-37.52-17.74-2.79-2.69-4.52-11.08-2.59-13.36,11.65-13.77,25.46-24.88,45.1-23.77,8.85.5,17.64,1.91,26.79,2.94a63.39,63.39,0,0,0-3.12-5.56c-6.76-9.71-4.52-24.43,4.81-31.14,5.49-3.94,23.16-.72,28.39,5.09,9,10,18.09,20.08,27.24,30,6.32,6.88,16,6.91,23,.29q5.1-4.85,10.26-9.65c3.09-2.88,3.66-40,.45-42.7-1.45-1.2-4-1.23-5.23-2.54-9.26-9.61-18.32-19.41-28.47-30.25,18.07-8,33.44-13.4,50.46-10.83,7.07,1.06,14.1,3.84,21.08,3.61,7.28-.24,14.48-3.15,22.79-5.15-2.35,6.13-4,10.33-5.94,15.49,18,3,29.35,12.58,35.23,28.72.55,1.51,3,2.28,4.6,3.45,5.9,4.43,12.57,8.16,17.47,13.5,6,6.57,14.63,4.31,16.06.35,3.34-9.27,7-21.81,3.31-29.56-9-18.79-6.27-33.25,13.24-39.35,11.57-3.62,12.75-13,17.49-22l-38.11,5.17c-.7-16.14,6.6-24,19.37-27.84,4.13-1.23,8.14-2.9,12.31-4,24.32-6.09,48-8.11,69.12,9.71,4.22,3.56,9.47,5.91,16.52,10.21-2.35-8.87-2.72-15.54-5.75-20.62C1411.12,132.74,1403.77,123,1390.11,122.18ZM658.5,2101.24V1971.56c-21.78,36.4-42.77,71.47-65.27,109.09ZM1163.17,330l9.61-6.28c-.41,3.59-1.28,5.71-.72,7.35,1.36,4,3.58,11.24,5.09,11.15,7.87-.49,15.63-2.85,23.43-4.56-.32-1.49-.64-3-1-4.46l-8,1.79q-9.75-27.27-36.84-16.31c-2.47,1-4.17,4.08-5.93,6.42-.31.41,1.1,2.87,1.35,2.81,2.72-.65,5.36-1.6,8-2.47l3.27-1C1162,326.15,1162.45,327.58,1163.17,330Zm-51.93-14.44c-10.79,21-1.11,38.6,9.37,44,5.37,2.8,13.39.49,20.22.49.17-1.24.34-2.48.5-3.71-13.24,2.63-13.91-7.83-17.51-15.34C1120.06,333.14,1116.11,325.37,1111.24,315.52Zm181.43-33.76c-22.26-2-35.73,5-47,23.76C1257.11,310.7,1279.08,299.84,1292.67,281.76ZM1227,268.36q1.18,3.17,2.39,6.31c17.93-15.79,36.36.05,55.69-3.44-5.08-9.35-8.5-17.5-21.16-14-8,2.25-17,1-25.18,2.91C1234.38,261.19,1230.84,265.53,1227,268.36ZM193.43,934.28c-1.08-6.55-1.81-11-2.61-15.89l-16.37-2.83c-8.86,22.89-9,30.57.33,35.35,1.1-5.45,2.12-10.54,3.2-15.88Zm861.05-767.65c-26-4.63-26-4.63-29.91.46,3.27,1.87,9.21,3.62,9.31,5.65.37,7.4-1.22,14.9-2.06,22.36,6.2-5.68,10.07-14.32,20.15-15.58-5-1.69-8.85-2.4-12.54-3.55-.4-.12-.17-4.05,0-4.08,3.37-.45,6.85-.26,10.18-.86C1051,170.79,1052,169,1054.48,166.63Zm708,97.32c-4.45,10.24-9.76,19.79,1.11,26.41,4,2.45,9.11,3.17,13.72,4.68.31-1.12.63-2.25.94-3.38Q1770.33,277.8,1762.43,264ZM1380.71,94.25c5.26-8.67,10.08-16.64,15.64-25.8l-14.88-2.28C1373.43,90,1373.43,90,1380.71,94.25ZM657.19,2132.91c1-16.62,1-16.62-26.71-17.72Zm358.2-1937.34c2.38.28,5.39,1.5,7.46.58,1.39-.61,1.59-4.22,2-6.54a40.62,40.62,0,0,0,.94-7.74,38.6,38.6,0,0,0-1-6.41c-1.78,1.83-4.25,3.36-5.2,5.54C1018,184.88,1017.18,189.15,1015.39,195.57Zm311.29,37.17-5.14-.83q-2,11.63-3.92,23.26l5.41.88Q1324.86,244.4,1326.68,232.74ZM812,399.76l1.14-3.06c-6.45-1.63-12.86-3.52-19.4-4.62-1-.18-3.27,3-3.78,4.94-.25,1,2.18,3.76,3.4,3.76C799.54,400.79,805.75,400.17,812,399.76Z"/><path class="cls-1" d="M1370.36,1446.78,1359,1450c5,13.25,12.38,26.77,15.29,41.19,9.13,45.21,1.63,88.11-23.15,127.33-9,14.2-18.08,28.7-29.47,40.88-7.55,8.08-18.66,13.9-29.26,17.76-10,3.66-19.91,3.38-29.67,12-11.75,10.4-29.26,13.56-46.52,8-33.56-10.88-62.21-29.61-86-55.09-36.94-39.55-49.86-87.34-42.14-140.3,4.6-31.46,22-55.48,49.56-71.8,12.06-7.16,25.11-8.54,38.7-5.9,1.92.37,3.76,1.14,5.64,1.7,11.24,3.38,11.24,3.37,37.75-3.84-1.74-22.29-12.65-32.35-33.89-25.59-30.51,9.71-60.36,22-89.52,35.26-20.27,9.23-38.84,22.18-58.35,33.13-6.93,3.9-14.41,6.83-21.43,10.1,0-14.76-.94-28.28.26-41.61s28.7-37.5,41.82-37.7c23.07-.34,41.31-14.54,62.27-20.71,9.94-2.92,20.8-3,31.29-3.67,3.71-.22,7.84,1.14,11.28,2.82,13.79,6.71,27,14.34,43.62,11.66,2.84-.46,7.34,4.78,9.92,8.24,6.23,8.36,10.26,19.2,18.1,25.22,5.79,4.44,16.2,3.78,24.55,3.75,18.66-.07,37.34-2.07,55.95-1.44,9,.3,17.92,4.73,26.84,7.39.47.14.82,1.27.9,2,1.26,11.71,9.93,11.28,18.37,11.27h7C1369.23,1443.59,1369.8,1445.18,1370.36,1446.78Zm-130.41,48-.12-3.86c-13.68,5-13.22-7.41-17.91-13.46l-3.67,1.23,4.5,24.69Zm-48,115.27c9.85-8.53,10.8-12.23,5.44-19.49l-7.21,8.82c.39-6.93.62-11.06,1-17C1180.55,1595.58,1180.9,1600.62,1192,1610.07Zm81.63-69.17-2.4,3.19,6.37,15,17-9.47Zm56.45-61.66-1.62-3.76L1303,1490.64l9,8Zm-117.74,72.89c7.81,3.82,14.32,7.3,21.26.23.27-.28-.28-1.38-.47-2.2h-8.69c-.6-1-1.2-2-1.81-2.94l9.12-3.32C1216.3,1531.86,1217.5,1545.93,1212.31,1552.13Zm49.51-53.72,15.38,5c-1-6.31,15.36-7.67,6.41-16.12Zm-124.51-6.68-3.33,1.79c0,4.29-1.69,10.72.39,12.37,3.13,2.47,8.91,1.57,13.56,2.1.67-1.24,1.35-2.48,2-3.73Zm81.35,74.39c-.38-2.58-.69-4.71-1-6.85l-18.22,6.07c14.08,7.92,18.79,7.77,27.23.07.33-.3-.09-1.41-.24-3.14Zm-57-15.94-3.41,2.19c.61,3.25.82,9.15,1.89,9.31,5.87.89,11,11.23,18.07,1.66Zm-37-57.37-3.11-1.1c-13.91,15.26-14.08,17-2.11,21.9Zm79.54-42-4.84,1.54c5.36,7-2.88,18.1,6.53,23.83l4.75-1.34Q1207.46,1462.78,1204.24,1450.76ZM1279,1629.43l-2-2-15,10.53,9.31,8.82,10-7.47c-.28-.59-.57-1.18-.86-1.77l-9,1Zm-57-25.24c-.69,1-1.38,2.07-2.08,3.1l17.94,13.77c-2.28-7.08-3.74-11.6-5.43-16.87Zm-77.65-73.79h-20.87C1129.71,1542.81,1133.44,1543,1144.33,1530.4Z"/><path class="cls-1" d="M2145.6,1123H2067c3.64-5.44,6.1-9.13,8.38-12.55-8.35-18.26-17.26-36.09-24.66-54.53-4.36-10.86-11.16-12.91-23-9.68,0,10.57.2,21.79-.06,33-.19,8.19-1.9,16.44-1.19,24.51.5,5.69,3.92,11.13,6.67,18.33H1962.6c12.34-26.2,4.27-53.77,6.65-80.64,2-23.08-.72-46.56-.8-69.86-.07-20,.86-40,1-60.06.13-21.78.36-43.58-.62-65.31-.26-5.55-5-10.9-8.3-17.77,7.22-.35,14-1,20.81-1,29.9.27,59.89-.52,89.68,1.58,20.57,1.44,41.12,5.9,53.67,26.13,12.2,19.68,16.48,41.13,16.11,63.74-.33,19.86-.32,39.83-2.39,59.54-2.19,20.8-11.07,39.31-27.3,53.08-5,4.24-7.21,6.66-3.88,13.23C2120.06,1070.1,2132.28,1095.74,2145.6,1123ZM2027.05,989.2c8,0,15.31.61,22.54-.12,17.91-1.82,27.47-8.57,30.07-25.9,3-19.84,5.82-40.51-1.28-60-2.32-6.38-8.83-13-15.08-15.76-7.91-3.5-17.5-3.36-26.4-4.44-7.69-.92-10.07,2.93-10,10.47C2027.24,924.54,2027.05,955.67,2027.05,989.2Zm-14.61,92.59c-11.28-8.83-4-20.58.77-32.25l-2.87-.47-6.53,8c-7.67-4.73-16.65-4-20,3.72-3.15,7.24-4.67,17.32,3.35,24.09l.92-3.14Zm-9.41-41.88,8.26-2.14a94.92,94.92,0,0,0-7.43-7c-1.48-1.15-3.59-1.49-5.42-2.15-8.46-3-12.44-11.75-9.55-20.27a44,44,0,0,0,2.5-11.31c.11-1.78-1.93-3.68-3-5.53-1.58,1.73-4.4,3.36-4.53,5.19-1,13-5.81,26.52,4.66,38.17.87,1,1.42,3.86,1.07,4.07-8.26,4.84,1.5,7.93,2,12.74Zm79,7.24,19-30.38-24.92-2.34C2078.22,1026.16,2080,1035.76,2082,1047.15Zm-54.79-13.51,14.32-6.73-15.08-8.21-11.26-12.24-4.63,3.94Zm-13.59-186.23c.84-2.36,1.68-4.71,2.51-7.07-1,3.45-3.75,9.06-2.63,10,6,5,13,8.85,19.57,13.09l4.77-5.92Zm-27.42,44.86c5.18,1.32,10.34,2.8,15.6,3.61.34,0,3-6.16,2-7.65C1998.85,881.11,1993,883.59,1986.21,892.27Zm17.32,14.56-2.46,2.35c3.17,5.72,6.33,11.45,10.82,19.58,2.1-4.47,5.14-8.56,4.31-9.6C2012.59,914.57,2007.86,910.86,2003.53,906.83Z"/><path class="cls-1" d="M1924.12,894.27c-14.45-16-29.9-10.58-44.71-10.43s-29.68-.47-44.48-1.34c-9.29-.55-13,.69-11.69,12.16,2,16.57.5,33.55.5,52.31,25.25-2.21,51.28,2.88,77.49-8.86v69.55c-1.14.08-3.13.86-4,.19-20.93-15.62-44.85-3.82-67.12-7-1.91-.27-6.61,5.43-6.73,8.49-.74,17.91-.71,35.86-.31,53.78,0,2,4,5.46,6.26,5.54,14.68.52,29.38.5,44.07.27,16.44-.26,33.53,3.58,51-10,0,15.24.06,27.57,0,39.9,0,2.74-.76,5.47-.83,8.2-.51,18-.47,17.08-18.12,16.72-36.8-.75-73.62-.39-110.44-.47-12.36,0-24.73,0-38.57,0,14.77-23.82,7.39-48.09,8-71.21,1.46-52.12.59-104.31.59-156.47,0-16.09.33-32.22-.65-48.26-.35-5.64-4.16-11.07-7.52-19.39,18.37,0,35.63,0,52.88,0,22.58,0,45.16,0,67.74.15,13.27.07,26.56,0,39.79.83,2.44.16,6.5,4.63,6.58,7.22C1924.39,854.26,1924.12,872.46,1924.12,894.27ZM1814.92,853c-7.71,4.49-14.11,7.64-19.65,11.91-1.18.92-.24,6.82,1.52,8.89,6.86,8.07,15,5.32,22.54,2.12C1818.09,869.45,1817,863.56,1814.92,853Zm-11.53,116.35c.06-.76,1.69-6.68.38-7.43a50.05,50.05,0,0,0-17.08-5.85c-2-.31-4.65,3.67-7,5.69,3.09,2.53,5.83,6.11,9.38,7.31C1792.8,970.3,1797.32,969.31,1803.39,969.31Zm5.45-76-24.36,3.6c0,1.52.09,3,.13,4.55l24.23,4.11Zm-26.06,202,20.3-7.53-18.9-9.31C1783.68,1084.35,1783.25,1089.61,1782.78,1095.24Zm71.29-224.16,6.13-.32c.48-4.28,2.46-9.27.89-12.59-1-2.14-7.21-1.83-11.08-2.62Q1852,863.32,1854.07,871.08Z"/><path class="cls-1" d="M1129.16,828.51c19.32,0,37.79,0,56.25,0,2.35,0,4.71.39,7,.23,14.49-1,14-1.08,11.07,12.66-1,4.57.61,9.92,1.83,14.7,5.88,23,12.05,45.95,18.08,68.92,6.46,24.62,12.75,49.27,19.36,73.84,9,33.55,18,67.11,27.64,100.5,2.25,7.84,6.85,15,11,23.92h-76.16c15.91-17,3.87-31.17.43-45.6-1.6-6.7-4.09-15.16-9.07-18.52s-13.58-1.74-20.59-1.61c-6.64.12-13.26,1.6-19.9,1.61s-13.19-1.06-20.89-1.76c-4.29,14.93-9.4,29.9-12.61,45.27-1.21,5.85,2,12.6,3.38,20.33h-69.75c6-20.83,12.18-41.12,17.7-61.58,8.14-30.19,15.51-60.6,23.8-90.75,8.89-32.36,18.53-64.52,27.73-96.8,2.78-9.76,5.83-19.53,7.41-29.51C1133.63,840.05,1130.88,835.19,1129.16,828.51Zm40.44,106.08c-1.56,1.58-4,2.9-4.54,4.78-4.13,14.26-7.94,28.62-11.73,43-1.72,6.53-3.2,13.13-5.16,21.26,9.74,0,17.51,0,25.27,0,13.35-.05,15.15-2.25,11.52-15.23-5-18.06-10.41-36-15.64-54L1190,943c-2.55-8.45,2.7-20.82-13.59-16.53a14.89,14.89,0,0,0-.4-3.33c-1.1-3-1.93-6.25-3.83-8.64-.67-.84-5.88.22-6,1A28.35,28.35,0,0,0,1166,926C1166.6,929,1168.37,931.74,1169.6,934.59Zm-13.72-48c-6,6.81-10.35,16-21.58,13.21l8,37.34,14.44-7.26-11.33-6.74c.85-6.26,1.65-12.12,2.37-17.38,3.6-.62,9-1.89,14.47-2.34,2.44-.2,5.88.44,7.4,2.07,10,10.8,14.16,1.54,17.22-1.9l-16-37.71c-1.16.31-6.53.12-8,2.4-5.86,9.39-10.72,8.73-17.19-3.68l-8,22.37h17.82Zm-44.58,197.32c.88-3.45,1.31-7.11,2.79-10.29s4.55-5.7,5.68-8.94c.32-.91-4.49-5.25-5.7-4.78a172.69,172.69,0,0,0-26.32,12.28c-1.36.81.79,7.52,1.51,13C1097.36,1081.09,1103.44,1071.62,1111.3,1083.93Zm-4.17-50.09-3.07,1c0,7.25-5.21,16.83,5.5,20,3.65,1.06,12-5.23,14.16-10,2.74-6-2.18-10.6-9.54-11,.83,2,2.1,3.65,2.06,5.26-.08,2.62-1,5.21-1.59,7.81-1.46-2.15-3.06-4.23-4.36-6.47S1108.17,1036,1107.13,1033.84Zm19.9-90.09-3.21.12c-2.09,9.8-4.19,19.59-6.85,32.06,5.59-4.21,13.77-7.27,14.82-11.92C1133.15,957.92,1128.88,950.56,1127,943.75Zm80.06,73.18c6.34,4.38,14.16,6.9,15.17,11.07,2.21,9.1,5,10.22,12.11,5.4C1224.2,1015.67,1218.34,1011.43,1207.09,1016.93Zm24.5,71.77,7,3.33c2.67-4.72,5.53-9.35,7.63-14.31.16-.38-5-3-7.7-4.62Zm-4.94-105-5.17-5.1c-3.25,2.78-7.18,5.13-9.34,8.59-.68,1.09,3.35,5.13,5.22,7.83Zm-31.51-42.94c-2.94,4.31-6.39,7.6-5.78,8.78,2,3.8,5.36,6.94,8.57,9.94.23.21,5.27-3.51,5-4.18C1201.17,950.89,1198.57,946.85,1195.14,940.72Z"/><path class="cls-1" d="M2113.79,1806.74c1.1-3.43,2.13-6.63,3.54-11l-14.17-4.75,10.52-8c-10-5.4-9.62-13.91-7.83-23.34,1.49-7.8,1.65-15.86,2.39-23.8l-4.88-1.12-5.1,10.15c-4.88-2.79-9.85-5.33-14.45-8.44-1.57-1.06-2.17-3.54-3.22-5.37,1.83-.78,4.38-2.77,5.38-2.17,14.34,8.65,10.67-3.49,11.88-10.57,18.44-1.27,11.62-18.38,16.46-28.25,1.47.46,2.6.47,2.85,1,1.81,3.45,3.44,7,5.13,10.5,2.1-4.8,4.49-9.49,6.16-14.43.77-2.28.13-5,.13-7.27l25.54-2,1.72-3.28L2137,1662.65c3.67-21.79-12.8-36.35-19.16-54-.84-2.33-7.61-2.52-13.66-4.29,1.42,21.13,2.67,39.71,4,59.85-3.22.28-8.87,1-14.53,1.21-9.68.26-19.37.14-29.06.17s-10.7-1.95-6-11.12c1.15-2.21,1.15-5.17,1.14-7.79q-.14-79.74-.4-159.46c0-9.76.55-19.55-.14-29.26-.35-4.9-2.9-9.65-5.12-16.51,16.48,0,32.31,0,48.14,0,10.2,0,20.4.24,30.6,0,29.63-.57,54,20.08,55.71,49.2a529.67,529.67,0,0,1-.36,63.25c-1.14,18.24-8.16,34.36-26.36,45l22.22,43.07,18.21-2.43c.45-3.08.92-6.39,1.37-9.49,14.93-3,14.93-3,17-14.46l29.49,1.76c-.5,6-.92,11.11-1.35,16.2l-1.71.09q-2-6.2-4-12.39l-4.49-.77c-2.15,8.84-4.3,17.69-7.1,29.26-1.69-7-2.72-11.22-3.75-15.46l-3.85-.71c-2.07,7.32-2.69,15.56-6.6,21.71-4.09,6.42-11.35,10.83-16.43,17.09-13.93,3.46-13.93,3.46-15.26-3.16,11,1.82,11,1.82,14.91-18-7.85-1.42-7.85-1.42-7.05,12.59-27.85-.6-14.6,22.39-20.21,35.37-14.55,4.8-14.55,4.8-15.5,14h-28.32c.41,8.82,1.09,16.4.83,24,0,1.31-3.91,3.25-6.2,3.55-3,.41-6.28-.49-11.54-1,6.82,14.94,21.11,4.44,30.81,12-17.52,2.38-17.52,2.38-14.64,22.14l7.16-12.89c3,.86,6,2.14,9.2,2.54,2.94.37,6-.21,9-.37C2154.71,1776,2126.14,1806.9,2113.79,1806.74Zm-7.92-322v76.59c20.25,7.76,38.07-3.76,38.31-25.27.05-4.7.37-9.41.69-14.11C2146.84,1493.56,2136.46,1483,2105.87,1484.79Zm-20.59,42.74c-6.27,3.28-11.16,20.47-6.63,24.73,1.15,1.08,6.47.28,7-.89C2088.78,1543.89,2093.92,1536.09,2085.28,1527.53Zm-10.78,40.41,22.21,10.55-5.64-17Zm46,203.56v-22.2C2110.47,1763.17,2111.33,1769.85,2120.48,1771.5Zm-11.94-316.12c-1.27,6.75-2,10.61-2.72,14.47h15.91C2116.36,1464,2113.87,1461.23,2108.54,1455.38Zm61.94,237.41c-.76-7-1.37-12.48-2-18l-3.11-.13-6.67,18.12Zm-17.75-5-4,.23c2.17,6.6-10,14.11,4,21.6Z"/><path class="cls-1" d="M1320.83,825.83c15.11,1,27.49,2.39,39.89,2.58,25.81.42,51.64.38,77.46.07,3.81-.05,7.6-2.59,11.32-5.49,4.29,4.37,8.76,8.1,11.17,2.09l29.51,2.7v61.93c-34.9-12.63-68.38-3.08-102.31-7.26v62.92c25.92-1.39,51.94,5.56,78-7.64v70.46c-22.92-14.58-46.81-5.36-69.76-7.34-7.11-.62-8.81,2.33-8.62,9.85.59,22.94-.93,45.93-.29,68.86.41,14.39,3.23,28.7,5.26,45.5l-71.07-2.13-2.42-3.73c12.62-7.11,9.75-17.39,9.65-28.09-.36-42.53.82-85.07,1.09-127.61q.39-57.84-.09-115.69c0-3.16-2.63-6.29-3.93-9.47C1324.09,834.31,1322.55,830.24,1320.83,825.83Zm45.78,108.44-9.93,7.72c2.33,5.94,4.47,11.36,6.75,17.14C1376,949.5,1376.28,947,1366.61,934.27ZM1365,1071c1-.78,2-1.56,3-2.35-.18-3.58.56-7.54-.72-10.69-3.66-9-10.24-10.53-14-1.28C1352.14,1059.39,1360.83,1066.12,1365,1071Z"/><path class="cls-1" d="M1694.78,1663c1.82-11.49,4.62-21.1,4.64-30.72.09-42.33-.63-84.65-1-127-.14-14.89.24-29.8-.52-44.66-.3-5.73-3.12-11.33-5.48-19.32,7.64,0,14.83-.17,22,0,31.46.91,63,1,94.36,3.23,21.84,1.58,33.69,17.55,39.87,36.77,3.39,10.54,4.27,22.24,4.34,33.43.18,31,.14,62-1.32,92.91-1.5,31.64-24.39,54.26-56.08,55.46-32,1.21-64,.71-96,.85A15.9,15.9,0,0,1,1694.78,1663Zm48.66-41.58c9.85,0,18.72.28,27.57,0,29.57-1.11,36-15.52,36.4-34.79.48-26.13-.07-52.3-1-78.42-.29-8.19-2.8-17.45-12.59-19.12-16.59-2.84-33.43-4.22-50.4-6.24Zm-38.34-150.8q2.58,2.65,5.15,5.33c2.16.33,4.57.16,6.4,1.1,2.37,1.21,4.27,3.31,7.31,5.79-1.44-7.74-2.53-13.68-4.06-21.92Z"/><path class="cls-1" d="M1870.45,1404.62H1803c13.21-13.73,3.67-25.23,1.64-37-.59-3.43-2.42-6.66-2.81-10.09-.83-7.38-5-10-11.94-9.94-16,.12-31.92,0-49.46,0-.94,18.35-16.63,34.67-5.51,56.49h-62.26c4.52-14.78,9.49-30.06,13.84-45.52Q1703,1300,1719,1241.27c7.19-26.41,14.17-52.88,20.63-79.47.93-3.83-1.58-8.49-2.72-13.82h62.35c4.86,22,8.92,42.24,13.89,62.31,6,24.25,12.79,48.31,19.25,72.45,9.48,35.49,18.8,71,28.67,106.43C1862.44,1394.09,1866.5,1398.27,1870.45,1404.62Zm-91.36-171.73c-2-4.22-3.14-7.64-5.22-10.34-.53-.68-5.79.75-5.87,1.53-.32,3.13.53,6.38.93,9.58.28,2.18,1.22,4.57.67,6.52-3.09,10.83-6.77,21.5-9.81,32.36-2.45,8.75-4.28,17.68-6.59,27.37h34.18c-5.09-20.5-9.87-39.77-14.65-59l3.27-.75,13,8.53C1787.48,1239.73,1791.65,1230.13,1779.09,1232.89Zm-37.91-20.55c2,9.08,4.42,19.66,6.76,30.09l12.41-6.37-9.82-6,2.53-15.69c4.79,0,13.65-2.73,17.74.54,10,8,13.58,1.52,16.55-1.7-4.31-10.66-8.34-18.94-11-27.63-2.18-7.27-5.41-7.9-10.59-3.57-2.26,1.89-3.89,4.53-8.44,10l-3.93-11.63-3.56,1.46-6.51,17.73L1757,1198l1.56,2.53C1753.13,1204.2,1747.73,1207.88,1741.18,1212.34Zm-22.72,154.44,1.86,3,9.07-20.92c-6.11,1.75-10.58,2.88-15,4.34a40.81,40.81,0,0,0-7,3.32c-2.89,1.65-7,3-8,5.48-.88,2.06,1.92,5.68,2.21,6.39Zm110.34-41.07c-3-3.71-6.71-6.78-8.4-10.72-4-9.33-6.33-10-13.3-2.47C1819.91,1329.13,1819.91,1329.13,1828.8,1325.71Zm-104.67,11.78-2.89-.35q-1.93-5.25-3.85-10.51l-4.52,1.4,5.6,17.52c4.46-2.51,10.64-4,12.77-7.86,1.5-2.66,3.68-12.29-7.11-11.57Zm7.53-89.47c-2,9-3.77,17.44-5.52,25.56C1741.65,1271.6,1743.8,1264.26,1731.66,1248Z"/><path class="cls-1" d="M1526.2,891c0-10.21,0-19.42,0-28.63,0-7.71.79-15.51-.1-23.11-1.32-11.28,5-12.15,13.49-11.85,12.07.41,24.19.83,36.23.12,4.93-.29,9.69-3.52,15.68-5.88,3.43,10.51,12.86,6.41,22.21,5.9,17.19-.92,34.48-.27,51.73-.1,15.58.15,31.16.81,46.74.65,5.7-.06,9.07.67,9,7.3-.16,17.61,0,35.23,0,51.06l-68.23-4.58c0,17.12,0,32.68,0,48.24.06,58,0,116,.44,174,.05,5.57,3.64,11.11,6,17.92h-71.6c12-19.13,6.52-39.75,6.76-59.52.72-57.28.14-114.59,0-171.89a67.54,67.54,0,0,0-.94-7.51c-8.85,1.68-19.66-4.53-23.33,9.4C1556.2,871.87,1541.45,886.45,1526.2,891Zm116.09-1c-.48-10.13-3.32-18.37-.44-23.21,3.21-5.41,11.05-7.46,19-2.87,3.1,1.8,9-1.28,13.66-2.13l1-4.07-25.43-17.36c-5.37,18.13-20.41,21.89-32.87,29.23-4.61,2.71-8.48,7.57-11.09,12.32-1.13,2,1.76,6.32,2.82,9.58,2.79-1.75,6.15-3,8.21-5.41a8.48,8.48,0,0,0,1.9-4.86Zm-34,90.18c2.2,6.82,7.25,9.34,14.29,4.19l11.19,19.86,4.41-1.36c-.46-6.14,1.45-15.17-1.83-17.85-8.23-6.72-13.14-13.61-12.89-24.3,0-1.23-2.9-2.53-4.11-3.52C1615.78,964.57,1612.55,971.27,1608.31,980.09Zm3.41-131.6c4.12,9.89,8.84,16.57,17.35,10.37,3.94-2.87,7.86-13.18,6.09-15.24C1625.15,831.92,1621.31,849.42,1611.72,848.49Zm13.7,189.49c8-2.91,10.23-9.9,9.5-18.07-.29-3.21-2.39-6.27-3.66-9.39-2,2.78-5.13,5.39-5.58,8.4C1624.79,1024.88,1625.42,1031.08,1625.42,1038Zm-22.17-178.69-4-1.77-7.07,9.93,11.08,7.86,2.74-2.18Z"/><path class="cls-1" d="M1476.93,1495.92l26.09-4.63c-25.07-13.62-47.77-3.84-48.23,22.5q-.7,41.16-.13,82.35c.15,12,11.1,23.17,22.93,25,17.23,2.62,31.39-3.6,36.81-16.18,5.15-12,5-14.26-2.84-31.73,13.07,0,25.36,1.08,37.36-.28,13.67-1.55,16,4.51,14.38,15.95-1.82,12.74-2,25.8-4.72,38.31-3.81,17.33-15.7,29.88-32.18,34.29-31.41,8.4-63.36,11.1-93.29-6.35-13.37-7.79-20.95-20.08-22.37-35.39-1.38-14.82-2.13-29.76-2.11-44.65q0-41,1.42-82.06c.81-23,13-38.65,33.75-48.12,3.54-1.62,6.78-6.06,10-5.89,28.67,1.47,59.17-7.06,84.8,12.36a54.79,54.79,0,0,1,17.26,22.57c4.33,11.1,5.56,23.53,7.13,35.52.86,6.58-1.59,11.55-10.33,9.89-2.41-.46-5.44,2.38-8.19,3.71,2.11,2.48,4,5.27,6.44,7.29,1.06.87,3.41.15,5.92,1.25-10.94.76-14.1,7.25-12.82,18.66l-18.88-5.49c.27-6.14.5-11.31.9-20.23l9.77,17c2.58-3.35,3.4-3.92,3.41-4.49.09-5.86,2.32-14.71-.51-16.86-4-3-11.76-1-17.89-1.36a80.64,80.64,0,0,1-8.68-1.52c5.37-9.76,5.68-18.17-3.25-25.28C1502.72,1506.84,1494.26,1507.57,1476.93,1495.92Z"/><path class="cls-1" d="M1639.31,1147.73v53.16c-29.75-12.64-58.67-1.58-87.82-5,0,17.51,0,34.6,0,51.69,20.14,4.66,52.72,2.84,67.39-4.35v60.56c-22.31-12.2-44.72-3.74-68.42-6,3,36.51-4.45,71.6,5.16,106.16h-62.91c12.76-21.78,6.68-43.51,7.1-64.35.63-32.13-1-64.3-1.24-96.45-.07-7.24,1.4-14.48,2.2-22.15h-17.36c-.12-1.3-.23-2.6-.34-3.9l15.6-2.72,1.56-2.75-13.77-6.76c15.44.84,10.48-12.38,12.68-20.62.37-1.41-6.18-4.66-9-6.66,12.38-4.46,13-7.65,3.28-29.84Zm-110,111.9,3.3,1.56c1.9-4.46,6.54-11.35,5.18-12.89-3.65-4.08-9.88-5.86-15.09-8.56l-1.59,2.5Q1525.22,1250.94,1529.31,1259.63Zm1.85,99.26,4.41-3.44q-4.24-6.69-8.47-13.4l-6.61,5.09Z"/><path class="cls-1" d="M1999.53,1579.93c-16.6-14.29-34.42-5.83-51-7.53-2.17-.22-6.86,5-7,7.91-.77,13.15-.34,26.37-.34,41.34,25.1-2.42,49.91,4.78,75.44-5.27v47.22H1892.81c1.32-10.49,3.45-19.68,3.49-28.89q.39-84.64-.15-169.31c0-7-2.25-14-3.74-22.62h123.78v46.87c-24.51-10.23-49.51-3.68-74.6-6v47c18.83-3.84,38.09,3.31,57.94-7.55Zm-65.15-119.33-16.13,10.84c.34,1.61.68,3.22,1,4.83l17.21,2.85Z"/><path class="cls-1" d="M2083.07,1148.21h63.11c-9.64,22.89-4.91,46.07-5.31,68.82-.69,38.66-1,77.33-1.17,116,0,7.33,1.17,14.66,2,23.76,28.18-2.78,56.88,4.16,86.44-5.62,0,15.39.49,31.2-.48,46.92-.16,2.62-6.57,6.76-10.25,6.94-17.43.86-34.91.71-52.37.7-26,0-52-.17-77.95-.33a14.18,14.18,0,0,1-3.43-1c10.5-21.84,5.58-44.82,6-67.2.68-37.92.19-75.85.13-113.78,0-19.53.2-39.08-.57-58.59C2089,1159.65,2085.5,1154.57,2083.07,1148.21Zm45.69,35.47c-3.71-2.93-5.84-5.24-8.47-6.53-4-2-8.34-3.2-12.53-4.75-.07,5.84-1.27,12,.17,17.42,1.05,4,5.56,7.11,9.32,11.56Zm-17,196.46c12.09-4.08,14.32-13.79,19.08-21,.39-.6-1.59-3.33-3-4.43-5.1-4.05-10.41-7.83-16.54-12.38l-5.92,9,12.24,9.3C2115.82,1366.48,2114.2,1371.86,2111.72,1380.14Zm71.26,6.6c0-1.37,0-2.74,0-4.11-3.28-1.64-6.94-5.07-9.72-4.47-3.39.73-6,4.86-9,7.52,2.59,2.11,5.24,6,7.74,5.91C2175.69,1391.45,2179.31,1388.5,2183,1386.74Z"/><path class="cls-1" d="M1961.92,1355.61c29-.3,57.41,3.9,87.26-3.08v52.07H1905.86c9.85-32.75,3.67-65.51,4.52-97.81,1.22-46.2,1-92.44.73-138.65,0-6.37-3.5-12.72-5.7-20.22h61.18c-10.35,40.35-2.93,81.24-4.46,121.72C1961.05,1298.14,1961.92,1326.72,1961.92,1355.61Zm-30-8.69c13.78-6.11,14.32-8.42,5.89-18.9-1.38-1.7-1.33-7.24-.84-7.39,15-4.52,8.54-15.36,7.48-24.56C1931,1297.32,1924,1324.29,1931.92,1346.92Zm66.31,26.38c2.15,10.36,6.67,18.24,13.76,16.49,6.52-1.6,11.47-9.58,17.11-14.75q-.93-2.08-1.84-4.17l-15.24-2c1.27,4.22,1.87,6.21,2.61,8.71Zm-71-161.1-2,4.68c4.52,14,15.28,2.45,22,7.26l1-3.8Z"/><path class="cls-1" d="M1186.11,1244.23v-35.64l-8.66-.78c-.13-.76-.25-1.52-.38-2.28l9.78-3.43c-3.14-12.42,5-26.83-5.72-39.34l6.12-2.09-4.91-9.57h39.42v55.58l16.34,3-.08,3.41-10.56,3.5.12,2h35.35v-66.87h36.46c-.38,22.06-1.23,44-1,65.94.2,18.65,1.88,37.27,2.43,55.92.15,4.91-2,9.85-2.07,14.8-.06,2.6,2,5.25,3.09,7.87,2-1.49,4.08-2.92,6-4.49s3.6-3.11,6.7-3.86c-.67,10.53,1.1,21.49-9.86,28.26-1.41.88-2.28,2.62-3.49,3.87-3.81,3.93-2.51,19.47-14.58,4.91-3.49-4.21-16.36-.65-22.45-.65,0-22.46.26-43.7-.31-64.93-.07-2.83-4.19-7.75-6.71-7.94-11.63-.85-23.35-.37-34.46-.37v72.33h-37.54v-70.64l-12.35-.68-.69-2.94Zm20.35,44.19c-4.48,3.93-8.37,6.43-10.62,10-.54.86,4.31,5.14,6.68,7.85a147.18,147.18,0,0,0,9.56-11.2C1212.38,1294.63,1209.4,1291.83,1206.46,1288.42Zm70.87-50.12c.84-1,1.68-2,2.51-2.93-2.72-2.81-5.72-8.17-8.11-7.91-5.22.57-10.13,4-15.17,6.24l1,2.7Z"/><path class="cls-1" d="M1365.27,1182.5v38.18l45.61-3.17v35.92c-13.1-.6-25.39-1.64-37.65-1.37-2.8.06-7.63,4.4-7.89,7.11-.95,10-.37,20.21-.37,31.17h58.52V1323h-94.55V1149.9h45.9c12.54,0,25.09.39,37.61-.13,8.62-.35,12.35,2.67,11.65,11.49-.49,6.24.32,12.58-.21,18.81-.66,7.79-3.25,8.67-9.62,4.24a10.05,10.05,0,0,0-5.31-1.74C1394.89,1182.44,1380.83,1182.5,1365.27,1182.5Zm-17.37-12.84-.45,6.95,13.33,1.93-.3-9.91Z"/><path class="cls-1" d="M1655.15,1664.05h-55.59c8.92-28.47,3.58-56.85,4.06-84.92.65-38,.31-75.91.24-113.86,0-4.63-1.12-9.24-1.38-13.88s0-9,0-11h49.13c-1,20.86-2.5,39.34-2.58,57.83q-.35,74.44.52,148.88C1649.55,1652.08,1652.74,1657.07,1655.15,1664.05Z"/><path class="cls-1" d="M1123.71,1138.42l-10-7.58.16-3.47c5.69.59,14.72-.7,16.33,2.18,3,5.39,1.74,13.18,2.32,21l10.18-3.74c5.39,8,7.81,2.19,10.79-5.92l-13.16-4.24,0-2.91h18.92l-3.31,10.65c4.29-.64,7.68-1.47,11.1-1.52,2,0,5.07.6,5.8,1.94s-.25,5.85-1,6c-15,2.6-8.75,15-10.85,23.33-.92,3.63-.8,7.52-1,9.84h-37.54v140.29h-36.75V1184h-38.19c0-7.76-.54-16.7.34-25.51.25-2.51,4.48-6.42,7.09-6.58,12-.75,24.2.65,36.09-.78,10.81-1.3,21.3-5.24,31.93-8C1123.18,1141.52,1123.45,1140,1123.71,1138.42Z"/><path class="cls-1" d="M2075.49,1839.36l-7.92-4.38-5.28,12c-12.6-4.16-12.6-4.16-15.28,11.78-2-4-3-5.86-3.77-7.77-1-2.58-1.78-5.25-2.65-7.88-1.78,2.23-4,4.26-5.17,6.76-.74,1.53,0,3.78.14,6.56-20-1.22-15.14,14.9-17.73,26l-3.76-.11c-.21-3.42-.43-6.83-.89-14.29-4.3,7.13-8,11.6-9.63,16.74-.72,2.33,2.86,6,5.25,10.48l-16.59.79-6.27,14c-2.14-5.08-4.29-10.16-7.42-17.6l-6.87,16.59c-3.53-7.61.5-22.74-16.63-15.59l.78-3.82c2-1.13,4.52-3.65,6.06-3.17,9.14,2.86,10.67-.76,8.71-8.75-.23-.92,2.12-2.48,3.56-4,2.16,5.94,2.73,13.69,6.09,15.19,4.72,2.1,11.52-.43,17.42-1v-3.66l-12.47-3.09c.28-5.85.57-11.89.9-18.59,8-1.14,17.52-1,14.43-14.11l11.93,1.75c1.63-4.42,3.2-8.7,4.66-12.7l15.28-2.33-.06-3.14-14.67-6.55,1-3.82c5.2.24,11-.92,15.48,1,11.75,5,14-.53,12.81-10.94l13.87-2.31c.29-.94.59-1.89.89-2.84l-15.76-7.06c10.37-1.44,22.2,2.73,18.22-11.65,21.19-5.19,23.89-5,31.93,2.58-3,.94-5.27,1.86-7.66,2.37a73,73,0,0,1-7.41.81c.63,6.7,1.23,13,1.82,19.24l3,.93c1.52-4.21,3-8.43,4.77-13.2l16.53.84c1.14,9.19,2.22,17.62-10.3,20.36-3.07.68-5.49,4.29-8.11,6.47-.73-2.66-1.77-6.5-2.82-10.35l-3.6-.87c-.89,3.32-1.67,6.69-2.7,10C2078.34,1831.22,2076.82,1835.44,2075.49,1839.36Z"/><path class="cls-1" d="M1948.13,1863.15c-11.72-6.83-11,5.79-16.32,14v-19.26l11.66-1q1.48-6.18,3-12.34l2.83,2c3.52-4.23,6.94-8.54,10.6-12.64a24.11,24.11,0,0,1,5.16-4c4.26-2.7,8.61-5.24,12.93-7.84l-1.42-2.81,12.84-5.7-1.38-3.32-9.14-1.35c.13-1.3.25-2.61.38-3.92l56.87,4.36c0,1.58-.08,3.15-.13,4.72-5.86-.35-11.82-.18-17.57-1.19-6.87-1.2-11.19-1-8.39,7.85.58,1.85.2,5.7-.6,6-2.11.69-4.78-.59-7.07-.17-2.86.52-7.74,1.61-8,3-1.13,7.32-1,14.83-1.4,22.93-5.25,0-10.18.83-14.52-.38-1.93-.54-2.75-5.2-4-8-.75-1.75-1.31-3.59-2-5.39-1.77,1.12-4.93,2.08-5.07,3.38-.9,7.86-4.89,10.33-12.62,10.58C1952.61,1852.72,1950.58,1859.12,1948.13,1863.15Zm40-36.39-4-.47c-.86,2-1.82,4-2.56,6.13-.9,2.57-2.35,5.25-2.2,7.8.15,2.31,1.9,4.69,3.45,6.64.42.52,3.84-.28,3.88-.67C1987.37,1839.73,1987.71,1833.24,1988.12,1826.76Z"/><path class="cls-1" d="M625.8,578.59l-4.41,13.49,13.27,5.34c-2,2.51-3.34,4.85-5.25,6.6-3.24,3-7.26,5.18-10.15,8.42-3.58,4-7.21,6.2-9.23-.18-4.32-13.61-10.65-10.63-18.52-3.44-2.07,1.88-5.06,2.75-8.83,4.72-.29-4.31-.2-7-.77-9.51-.27-1.18-1.81-2.08-2.78-3.1-1,1.16-2.19,2.24-3.11,3.49-1,1.42-1.89,3-2.82,4.5a28.91,28.91,0,0,0-2.87-3.93,96.56,96.56,0,0,0-7.25-6.62c-2.08-1.71-4.4-3.14-6.61-4.69,2.56-1.6,5-4.37,7.71-4.55,4.59-.32,9.36,1.76,13.94,1.38,5.28-.43,12.9-.73,15.19-4.06C602,573.89,613.17,580,625.8,578.59Z"/><path class="cls-1" d="M325.16,1547.73h10.92V1537c6.34,0,12.09-.07,17.83.14.45,0,1.44,2.61,1.13,2.89-1.53,1.43-3.43,3.53-5.16,3.48-6.77-.17-10.89.94-11.14,9.41-.07,2.17-7.74,4.11-13.29,6.82.33,6.24-.51,13.34-12,9.37-5.49-1.89-13.57-.44-6-10.11,1.37-1.76-.77-6.26-1.42-10.32,14.81,0-1.89,14,10.44,15,10.24-3.8,1.49-14.51,3.89-21.91a64.38,64.38,0,0,1,3.23-7l3.48,1.59C326.49,1539.82,325.9,1543.3,325.16,1547.73Z"/><path class="cls-1" d="M1417.49,803.54c16.44,6.31,16-6.21,22.54-11.76v16.09l5,1.14,5.78-15c3.3,0,8-.45,12.61.2,2,.29,3.65,2.85,5.46,4.38-2.05,1-4.6,3.38-6.08,2.83-7.23-2.69-10.78-2.4-8.43,6.84.32,1.26-4.59,5.63-5.71,5.18-10.6-4.29-11.48,2.53-11.34,9.57C1431.48,817.26,1426,811.86,1417.49,803.54Z"/><path class="cls-1" d="M665.28,662.89c-1.83-3.65-2.19-4-2.14-4.32.85-5.67,1.29-16.1,2.7-16.23,9.56-.91,19.34.21,29,1.1,1.32.12,3.34,2.52,3.39,3.93,0,1.24-2,3.26-3.52,3.68-2.57.72-5.41.45-9.13.66.08,1.82.84,3.92.11,5.15-1.68,2.83-4.08,5.24-6.19,7.82-1.4-2.85-2.92-5.64-4.16-8.56-.9-2.13-1.42-4.41-2.12-6.62-1.43,2.17-2.91,4.32-4.27,6.54C667.93,657.75,667.06,659.55,665.28,662.89Z"/><path class="cls-1" d="M2098.7,1763.78c-5.84.37-11.49,2.23-16,.72-11.23-3.74-15.51-.72-12.43,12.68l-3.42-1.06c-.78-2.53-2.78-5.46-2.11-7.51,2.34-7.08.1-8.73-6.65-7.42-1.85.35-4.11-.68-5.94-1.57-.34-.17,0-3.54.82-3.92,1.43-.7,3.43-.1,5.15-.34,7.9-1.07,21.28,10.3,21.24-9.26,0-.65,2.4-1.67,3.75-1.8.77-.08,2.53,1.6,2.4,2-4.4,12.14,5.05,11.77,12.1,13.67C2098,1760,2098,1761.3,2098.7,1763.78Z"/><path class="cls-1" d="M735,480.8c-1.55-3.32-3.11-6.64-5.45-11.61-1.89,7.13-3.32,12.51-4.76,17.89l-15.69-5.14,12.72-9.62-11-4.9-1.16-2.31c5.54-.41,11.09-1.12,16.63-1.08,2.06,0,4,2.23,6.18,2.68,3.68.76,7.49.91,11.24,1.32q-2.67,6.64-5.36,13.28Z"/><path class="cls-1" d="M1534.55,1070.37l10.4-70.73,3.52.44c-2.41,23.71-2.75,47.68-9.12,70.89Z"/><path class="cls-1" d="M2049.27,1788a59.24,59.24,0,0,0-.07-7.18,75.32,75.32,0,0,0-1.67-7.63l-3.36-1-6.28,13.45h-15.76l-.93-2.93,13.26-5.07c.53-2.3,1.36-5.9,2.18-9.43C2057.11,1768.22,2057.11,1768.22,2049.27,1788Z"/><path class="cls-1" d="M661.35,617.81c-14.06.92-26.11,6-36.79-4.48C634.56,606.43,648.86,607.84,661.35,617.81Z"/><path class="cls-1" d="M2044,1740.34c-1,5.53-2,11.06-3.11,17.51-11.58-3.32-16.46.86-11.45,15.18l-19.21-4c10.36-.65,15.33-5.35,13.85-17C2038.1,1758.45,2037.09,1744.7,2044,1740.34Z"/><path class="cls-1" d="M1402.77,751.2l-13.53,2.95c-1.38,8.08-2.81,16.43-4.24,24.78l-4.42-.9,2.57-31.41,17.34,1.86Z"/><path class="cls-1" d="M1279,422.57c-1.36,3.81-2.44,6.83-3.51,9.86l-4.36-.23c.26-5.53-1.17-14.82,1.11-15.85,5.38-2.41,12.53-.88,19-1-.73,2.39-.83,6.21-2.31,6.85C1286.31,423.38,1282.87,422.57,1279,422.57Z"/><path class="cls-1" d="M1623.45,783.82c-2.22.76-4.49,1.42-6.66,2.32-2.64,1.1-7.09,1.94-7.51,3.67-3.45,14.44-12.12,6.87-19.83,3.6l12.7-3c1.67-5.52-.33-15.77,11.24-8,1.78,1.2,6-1.16,9-1.88C1622.77,781.66,1623.11,782.74,1623.45,783.82Z"/><path class="cls-1" d="M607.78,552.33l-3.25,20.34-16.82-1.19-.24-4.37,12.59-3.35,4-12.4Z"/><path class="cls-1" d="M1194,745.48c-6.8,7.68-21.94,6.84-34.11-5.45Z"/><path class="cls-1" d="M1499.57,1511.17c-12.23,7.28-25.93,5.09-27-4.68Z"/><path class="cls-1" d="M1942.19,1889c.46-5.34.92-10.68,1.41-16.41l17.75,2.11.22,2.47-10,1.57c-1.75,3.66-3.62,7.54-5.49,11.42Z"/><path class="cls-1" d="M1145.44,1277.66c-9-21.82,6.73-16.69,17.38-17.3-2.08,2.17-5.44,6.53-6.06,6.17C1146.44,1260.58,1147.37,1269.74,1145.44,1277.66Z"/><path class="cls-1" d="M1775.36,1788l26,1.36c-.37,2.36-.8,6-1,6-8.52-.57-17-1.46-25.52-2.32Z"/><path class="cls-1" d="M1255.23,779.3c10.74.24,21,0,11.84-17.54,5.2,2.62,9,3.79,8.89,4.6-.5,5.28-.13,12.65-3.32,15.16-3.71,2.91-10.78,1.54-16.39,2Z"/><path class="cls-1" d="M1786.43,1802c-1.11,6.83-2.12,13-3.32,20.32C1773.46,1812.73,1774.77,1805.25,1786.43,1802Z"/><path class="cls-1" d="M1639.25,756.88l-13.68,4.55c.1,2.36.24,5.48.38,8.6l-3.44.72c-.62-5.85-1.25-11.7-1.86-17.43l17.39.87C1638.44,755.09,1638.85,756,1639.25,756.88Z"/><path class="cls-1" d="M1668.35,575.53c-6.73,16.28,9.12,11.89,16.35,16.76C1662.27,596.57,1660.76,595,1668.35,575.53Z"/><path class="cls-1" d="M799.84,375.24c6.74,0,13.48-.1,20.2.21.44,0,1.52,4.25,1,4.66-1.66,1.21-4.17,2.32-6.06,2-4.8-.91-9.44-2.65-14.15-4.06C800.47,377.08,800.15,376.16,799.84,375.24Z"/><path class="cls-1" d="M789.77,345.65c6.78-.53,10.62-.84,14.47-1.13.39,0,1-.13,1.13.06,1.18,1.61,2.28,3.28,3.39,4.94-1.77,1.11-3.86,3.48-5.25,3.13-5.18-1.34-10.13-3.57-15.16-5.47Z"/><path class="cls-1" d="M839.4,290.23c.66,3.94,1.86,7.67,1.26,8-6.47,3.42,7.59,14.28-5.4,14.63-1,0-3.12-2.67-3-4a99.31,99.31,0,0,1,2.44-14.38C834.94,293.42,836.63,292.67,839.4,290.23Z"/><path class="cls-1" d="M820.47,359.53c-.93,10.46-7,11-23.46,1.09Z"/><path class="cls-1" d="M1155.57,887c1.69-1.22,3.81-2.13,5-3.73a87.89,87.89,0,0,0,5.18-9L1169,876l-8.7,18.53-3.45-1.28c-.32-2.21-.63-4.42-.94-6.65Z"/></svg>