<svg id="Layer_1" data-name="Layer 1" xmlns="http://www.w3.org/2000/svg" viewBox="0 0 7713.94 2357.97"><defs><style>.cls-1{fill:#060606;}.cls-2{fill:#9f042f;}</style></defs><path class="cls-1" d="M6190.55,2314.27c-94.43,0-188.87-.66-283.28.45-24.57.29-36.41-4.26-34.15-32.47a698.12,698.12,0,0,0,.08-103.38c-1.78-25.77,8-31,31.61-30.3,51.82,1.63,103.73.19,155.59.68,16.46.16,27.49-1.14,27.54-22.8.05-21.37-10.39-23.25-27.12-23.07-51.86.57-103.77-.78-155.59.69-22.83.64-33.87-3.25-32.09-29.76,2.49-37,1.5-74.27.3-111.38-.62-19.14,6.05-27.19,25.11-24.93a60.15,60.15,0,0,0,12,0c32.63-2.73,77.21,14.89,94.72-7.16,16.4-20.65,5.46-63.2,5.84-96.13.43-38.46-.59-77,.39-115.4.44-17.09-4.95-24.52-22.58-22.56-9.19,1-18.6.32-27.9.13-22.49-.47-49.26,6.23-66.26-3.68-17.82-10.4-5.6-38.88-6.65-59.3-.94-18.37-11.91-17.31-24.18-17.3-86.45,0-172.9.54-259.34-.46-17.38-.21-24.9,6.76-33.39,20.67-57.06,93.49-133.4,93.68-190.64,1.36-19.67-31.73-97.33-31.73-117.4,0-57.53,91-134.46,92.86-188,1.65-14.5-24.69-31.54-23.22-52.26-23.22H3738.1q-618.42,0-1236.88-.61c-28.22-.06-45.55,4-56.52,33.64-10.43,28.23-28,57.39-64.85,55.86-35.94-1.5-49.82-31.76-63.59-59-19.45-38.44-72.09-43.13-98.78-8-69.53,91.42-166.46,91.32-235.54-.25-13-17.16-82.24-31.85-96.74-19.18-10.89,9.51-7.25,24.63-8.94,37.44-21.2,160.71-66.42,313.38-153.33,451.8-47.08,75-104.36,141-180.3,188.26-132.61,82.56-266,82.08-397.14-2.74-113.42-73.35-188.3-179.74-237.59-302.08-147.14-365.17-143.16-728.5,26.34-1086.45,36-76,86.47-142.92,149.56-199.47,167.36-150,374.28-146.14,535.66,10.79,126.24,122.76,191.74,277.73,232.17,445.08,10.56,43.7,15.73,88.67,24.64,132.81,3,15-6.83,41.06,18.89,40.73,27.2-.35,58.76,15.34,81.75-13.27,2.49-3.1,4.46-6.6,6.87-9.76,68.33-89.46,163.76-89.08,232.69.9,29.35,38.32,79.19,33.19,101.17-9.86,14-27.51,29.62-57.53,65.25-56.72,35.29.8,52.7,30.41,63.25,59,9.6,26,23.7,31.58,49.83,31.56q1264.82-1.07,2529.63.17c26.39,0,39.19-8.7,52.69-30.45,50.83-81.89,127.85-81.29,180.1-.56,28.47,44,99,43.76,127.39-.39,51.5-80.09,130.95-80.78,179.9,1.51,15,25.29,31.24,29.56,56.82,29.52,377.71-.58,755.43-.07,1133.14-.79,53-.1,97.24,15.38,128.11,59,32.5,45.88,37.95,95.38,10.43,145.93-26.26,48.23-67.57,74.46-122.58,75.28-79.79,1.19-159.63,1.66-239.38-.35-28.68-.73-39.28,8.44-34,35.56,7.75,39.88-10,47.87-47.26,46.37-76.25-3.08-76.34-.92-76.34,75,0,45.11,1.61,90.29-.58,135.28-1.24,25.53,7.64,32,31.57,30.35,27.79-2,55.86.3,83.75-.7,17.49-.63,23.13,6.16,22.75,23.17-.89,39.78-1.37,79.63.17,119.37.8,20.73-8.14,23.87-25.9,23.57-53.18-.9-106.4.07-159.59-.58-17.94-.22-30,.62-29.47,24.6.51,23.25,13.88,21.18,28.84,21.14,53.2-.12,106.43.94,159.59-.49,21.4-.57,27.42,6.51,26.49,27.11-1.55,34.42-2.14,69.08.14,103.42,1.81,27.2-5.82,36.38-34.58,35.83C6382.09,2313.14,6286.31,2314.27,6190.55,2314.27ZM1799.94,1625.81c5.86-125.92,5.39-251.57-12.55-376.47,1.46,62.05,6.33,124,8.72,186,2.45,63.36,2.47,126.82,3.55,190.23-21.79,46.8-7.59,97-13.22,145.39C1793.3,1722.81,1807.67,1675.39,1799.94,1625.81ZM1482.4,1257.64a993.21,993.21,0,0,0-226.73,2c-59.16,7.36-119.52,13.36-169.21,50.92-54.38,41.07-50.14,92.8,9.48,125.41a266.37,266.37,0,0,0,51.15,21.43c104.88,31.36,212.16,30.69,319.62,20.16,50-4.91,99.75-13.42,146.37-34.57,28.42-12.9,46.55-29.49,44.35-64.78-1.89-30.16,1.6-61,5.63-91.08,2.92-21.8-1-30.75-25.39-30C1585.94,1258.77,1534.15,1257.64,1482.4,1257.64ZM4357.56,1392H1948c-12,0-24-.19-35.87.66-9.22.66-21,1.79-21.75,13-.77,11.82,11,13.5,20.14,14.18,14.56,1.08,29.21,1.28,43.81,1.28q2403.63.06,4807.25,0c10.64,0,21.32.54,31.91-.18,12.9-.88,32.61,1.26,33.24-14,.67-16.17-18.82-14.22-31.6-14.89-11.93-.63-23.92-.17-35.89-.17Zm-3118.1,662.93c62.61,8.87,125.07,4.73,187.28-.76,48.9-4.32,97.61-12.78,142.63-33.83,22-10.27,43.24-23.84,41.27-52.75-1.79-26.41-22.28-37.75-43.56-46.71-46.15-19.44-95.2-22.78-144.48-24.9-102.65-4.41-204.3,11.58-306.56,15.46-32,1.22-77.52-20-93.66,11.89-14.32,28.27-.79,69.78,6.22,105.19,4.27,21.56,14.64,27.27,35.44,26.83C1122.46,2054.13,1181,2054.93,1239.46,2054.93Zm435.64-934.52c3.37-61.49,4.08-116.38-4.67-171.55-15.85-100-72.84-162.41-170-187.51-34.49-8.91-70.62-11.35-105.87-17.43-24.2-4.18-29.82,6.27-27.6,28.58,7.27,73.07,39.79,133.68,89.6,186.06,61.77,65,136.34,112.76,218.52,161.85Zm-654.54-93.28c0,19.85,1.37,39.82-.32,59.52-2.63,30.58,11.85,31,35.94,25.52q73.38-16.87,116.93-76.7c57.73-79.22,73.64-171.15,79.67-266,1-16.08-4.64-19.81-20.63-18.26-106.25,10.35-182,77.27-204.85,181.12-6.93,31.41-6,63.18-6.76,94.8Zm567.09,681.19c-31.23-18.48-48.56-23.91-85.65-28-138.36-15.21-275.31.88-411.87,20.13-58.52,8.25-56.6,10.83-63.62,70-2.89,24.32,3.54,29.14,26.1,27.75,99.2-6.12,198.86-8,297.16-23.15,80.56-12.36,163.47-19,237.86-66.73Zm-358.14-558.06c91.67-15.45,173.64-8.58,262.86-12.74-63.72-46.75-114.83-94-162.2-152.41C1308.4,1046.27,1278.46,1096.62,1229.51,1150.26ZM1586.58,2148c-71.13,11.31-142.87,22.36-215.48,24.13s-145.53.39-218.3.39C1300.73,2218.69,1446.52,2228.47,1586.58,2148Zm-538.27-603.21c-14.23,38.31-4.81,52.51,33.72,40.87,16-4.83,32.84-6.68,52.85-10.57Zm609.32,63.81c-2.9-58.86-2.9-58.86-71.47-34.58Zm19.26,245.61c-1.84-23.6-3.2-41-4.89-62.66l-43.88,29.89Z"/><path class="cls-2" d="M2736.11,1166.45c0-366.09.5-732.18-.82-1098.26-.13-34.21,6.87-45.36,43-43.76,73,3.22,146.36,3.66,219.35.42,186.91-8.3,304.2,105,313.35,302.65,6.05,130.71-37.49,239.89-152.48,312.3-23.6,14.86-11.07,28.36-4.27,43q116.51,250.46,233.22,500.82c6,12.84,15.88,24.64,13.85,42.85-58.39,0-116.67-1.21-174.86.58-24.43.75-27.59-16.31-34.53-31.19-72.19-154.92-143.64-310.18-216.91-464.59-8.54-18-8.71-53.06-39-46.37s-13.55,37.89-13.76,57q-2.39,224.79-.28,449.63c.23,27.43-6.64,36.12-35.13,35.61-99.7-1.76-199.47-1.55-299.18-.06-24.12.36-34.85-7-41.13-30-24.41-89.43-51.41-178.17-75.41-267.71-6.28-23.41-15.77-31.49-40.5-30.93-77.09,1.76-154.26,1.51-231.36.16-22.85-.4-32.32,7.24-38.51,29-25.32,89.15-53.27,177.56-78.92,266.62-6.8,23.59-16.91,33.33-43.63,33-94.72-1-94.39.34-67.32-89.94Q2135.16,589.43,2298.12,41.12C2308.12,7.25,2324,.75,2355.9,0,2388.41-.7,2397,12.76,2405,40.76q154.24,542.64,311,1084.53c4.25,14.78,10.1,29.1,15.21,43.63Zm185.26-802.94c0,62.34.76,124.69-.42,187-.4,20.94,6.68,26.8,27.23,27.36,67.43,1.84,120.16-31.81,147.78-99.73,30.17-74.19,29.6-150.36,7.31-226.15-25.69-87.4-63.31-112.06-154.06-109.63-23.54.63-28.71,8.58-28.3,30.17,1.22,63.64.43,127.32.46,191Zm-602.11,37.4c-37.71,126.19-72.33,242.6-107.39,358.86-5.55,18.38-2.12,26.64,19.09,26.34,58.36-.83,116.74-.64,175.1,0,18.47.2,23-5.94,17.85-23.67-34.13-116.57-67.62-233.31-104.65-361.53Z"/><path class="cls-2" d="M5071.4,1226.5c-47.87,0-95.9-2.34-143.57.78-33,2.15-38.87-10.12-38.77-40,1-314.37.59-628.74.58-943.11,0-61,1.93-122.12-.78-183-1.4-31.25,9.6-37.17,38.25-36.44,77.08,1.92,154.24.31,231.37.71,200.09,1,347.64,90.87,422.6,275,100.44,246.76,89.46,494-44.34,727.1-76.85,133.88-199.7,201.72-357.62,199C5143.22,1226,5107.31,1226.52,5071.4,1226.5Zm3.23-600.3c0,147.24-.23,294.49.41,441.74.05,12.08-9.14,29,15.08,33.86,102.88,20.7,195.45-15.8,253.64-103.23,13.88-20.85,27.05-43,35.81-66.3,75.65-201.47,79.84-404.62,2.85-606-52.18-136.41-126-180.37-271.47-180.18-30.84,0-37.3,9.4-37,38.37C5075.39,331.69,5074.61,479,5074.63,626.2Z"/><path class="cls-2" d="M4690.07,769V730.84c0-222.79.54-445.59-.65-668.38-.16-28.82,5.66-38.66,36.72-37.94,79.76,1.86,79.8.16,79.8,81.66q0,547.05-.66,1094.09c0,14.31,13.16,41.09-12.58,42-26.81.91-59.55,17.85-80.44-20.89-71.7-133-145.85-264.68-219-396.89q-104-187.86-208-375.69c-5.41-9.74-8.2-21.87-23.9-30.12v40.56c0,242.69-.49,485.38.69,728.06.15,30.21-6.05,41-38.84,40.08-80.59-2.25-80.64-.44-80.64-81.18,0-359.39.55-718.79-.88-1078.17-.14-35,8.83-41.44,43.27-44.39,58.5-5,88.23,17,115.88,67.93C4421.46,314,4547.23,533.77,4671.19,754.5c3.14,5.6,6.79,10.92,10.2,16.37Z"/><path class="cls-2" d="M3371.24,462.54c-.06-133.92.63-267.85-.64-401.76-.25-26.69,5.17-38.17,34.52-36a703.73,703.73,0,0,0,107.58,0c35.19-2.83,46.82,6.69,46.52,44.58-1.93,242.63-.78,485.29-1.11,727.94-.1,76.45,10.82,150.65,43.3,220.41,21.15,45.44,50.7,84.52,98.63,104.83,63.85,27.06,132.86,1.21,177.69-67.12,52.24-79.64,65-169.71,65.12-262.37.32-240,1.39-480-1-720-.43-42.09,12.11-50.3,50.66-48.54,68.44,3.13,68.54.86,68.54,69.28q0,350.06-.13,700.11c-.12,77.24-9.22,153.36-34.56,226.87C3974.91,1170,3868.94,1249.87,3719,1252.6c-139.78,2.54-247.39-75-304.64-218.72-31.41-78.83-42.43-161.1-42.84-245.13C3370.9,680,3371.3,571.27,3371.24,462.54Z"/><path class="cls-2" d="M5693,624.34c0-186.93.49-373.86-.54-560.79-.15-27.25,3.32-39.39,35.8-39,164.79,1.86,329.62,1.64,494.42.18,29.15-.25,35.06,9.2,34.57,36-1.24,67.65,0,67.68-66.31,67.68-93,0-186.1.87-279.11-.59-26-.41-33.85,6.92-33.52,33.21q2.1,165,.05,330.1c-.29,25.83,7.36,34.1,33.65,33.61,82.37-1.53,164.81.14,247.2-.93,24.13-.32,34.69,4.12,34.28,32.14-1.06,72,.57,72-70.24,72-71.77,0-143.56.77-215.31-.45-22.38-.38-29.63,6.23-29.48,29q1.36,208.8-.12,417.6c-.2,24.15,9.22,28,30.27,27.86,105-.83,210,.4,315-.92,26-.33,33.66,7,33.69,33.35.11,92.07,1.2,92.06-89.5,92.06-144.88,0-289.77-1.11-434.62.83-33.94.45-41.2-9.93-40.93-42.18C5693.77,998.21,5693,811.27,5693,624.34Z"/><path class="cls-2" d="M6306.62,626.09c0-188.19.76-376.37-.76-564.55-.25-30.57,8.55-39,38-36.78,34.35,2.59,69.4,3.73,103.5-.19,40.8-4.68,46.71,12,46.55,48.51-1.44,326,0,652-1.85,978-.24,41.57,10.4,52.84,51.86,51.55,100.87-3.16,201.92-.32,302.88-1.54,24.48-.3,31.33,7.12,31.66,31.44,1.25,93.93,2.15,93.92-91.74,93.92-144.82,0-289.65-1.07-434.45.78-34.83.45-47.12-6.3-46.65-44.57C6307.87,997.17,6306.61,811.62,6306.62,626.09Z"/><path class="cls-1" d="M3372.27,2003.2c18.21-22.31,23.94-45.56,27.31-69,2.61-18.23,13.23-21.56,27.87-19.39,20.4,3,11.11,16.83,8.61,27.37-2.73,11.55-4.08,24.43-10.28,34-26.09,40.23-30.8,76.2,28.29,107.45-34.41,4-55.61,8.52-71.43-13.59-10-14-19.36-7.49-29.91-.12-21.27,14.85-45.7,21.16-71.31,22-43,1.35-80-20.51-93.92-54.37-14.75-36-4.95-80.51,29.3-107.12,19.71-15.32,21.76-24.9,9.53-46.81-20.52-36.75-10.41-77,19.21-100.17,30.84-24.09,81.32-21.16,105.37,6.12,25.38,28.81,23,79.31-13.79,101.27-45.61,27.26-27.61,46.73-2,71.58C3347.33,1974.3,3358.19,1987.65,3372.27,2003.2Zm-83.64,57.42c20.22-2.42,44.77-6.23,54.18-25.43,7.14-14.57-15.76-24.6-24.76-36.94a269.07,269.07,0,0,0-31.58-35.62c-9.1-8.68-14.75-27-28.52-23.66-17,4.16-27.22,20.68-32.82,37.43-14.38,43,17,85.1,63.5,84.22ZM3329.46,1839c-.45-27-11.53-43.09-35.11-42.66-27.2.49-39.44,19.07-38.38,45,.85,20.9,5.64,51.08,26.59,49.34C3307,1888.65,3328.61,1866.33,3329.46,1839Z"/><path class="cls-1" d="M3628.8,1885.36c63.09-40.87,112.93-38.36,147.12,3.16,36.55,44.4,33.45,131.6-6.15,172.92-37.7,39.34-87.6,39.69-145.15-1.05.09,19.29-7.44,30.39-27.53,26.18-21.79-4.57-10.69-21.25-10.76-32.08-.55-89.91-.07-179.83.39-269.74.07-13.63-4.83-29.68,19.32-30.56,25.77-.94,22.84,15.19,22.79,31.19C3628.72,1817,3628.8,1848.52,3628.8,1885.36Zm.16,90.9c-.42,18.57-1.12,37.22,10.27,53.49,17.22,24.59,41.4,33.42,69.51,25.48,40.11-11.33,49.73-44,50.34-80.58s-9-69.25-47.39-83.09c-28.33-10.22-52.17.64-69.79,24C3628.34,1933.45,3628.08,1954.92,3629,1976.26Z"/><path class="cls-1" d="M5112.86,2058.65c-52.59,33.56-92,35.62-127.65,6.68-37.32-30.33-49.95-90.82-29.77-142.52,17.12-43.84,53.4-68.53,97.82-67.34a83.24,83.24,0,0,1,38.08,10c12.06,6.49,22.95,29.17,36.38-2,3.52-8.16,29.81-10,29.19,17.74-1.45,65,.78,130-1.72,194.91-3.4,88.13-95.17,138.5-173.94,97.51-11.13-5.79-14.64-11.52-11-24.68,6.06-21.65,17.42-8.82,27.11-5.94C5077,2166.7,5119.64,2135.58,5112.86,2058.65Zm2.51-85.54c.11-60.12-27.33-91.91-70.59-84.51-34,5.83-57,40.16-56.67,84.58.37,42.82,22.52,75,56.85,79.76,27.64,3.82,49-7.44,62.18-32.4,8.32-15.7,9.18-32.82,8.23-47.43Z"/><path class="cls-1" d="M4307.54,2039.24c18.58-58,34.11-105.47,48.91-153.21,4-13,5.9-24.83,24.24-25.85,20.85-1.16,22.9,12.06,27.26,26.6,13.56,45.28,28.12,90.27,50.3,137.66,13-45.52,25.8-91.13,39.3-136.52,3.48-11.69,2.41-27.57,22.22-27.5,15,.06,27.66,0,20.75,21-20.67,62.81-41.84,125.47-61.2,188.68-4.75,15.5-13.41,16.35-26.2,16.9-15.47.66-20.34-7.88-24.23-20.54-14.54-47.43-29.81-94.64-47.73-151.17-18,54.6-33,100-48.12,145.44-4.52,13.58-7.12,26.76-27.86,26.75s-22.94-12.74-27.14-26.83c-17-57-34.61-113.85-51.23-171-2.72-9.36-15.66-23.61,4.27-28.31,15.48-3.65,30.17-3.35,35.3,19.58C4277.59,1930.94,4292,1980.25,4307.54,2039.24Z"/><path class="cls-1" d="M5520.34,1976.05c-.35-71.65,42.84-119.34,109-120.41,67.3-1.09,111.6,45.53,111.15,117-.44,70.37-45.45,118.72-111.22,119.45C5565.69,2092.77,5520.67,2044.84,5520.34,1976.05Zm177.62-4c-.33-50.5-29.05-85.64-69.25-84.73s-66.68,35.63-66.46,87.17c.23,49.55,30.18,87.19,68.49,86C5668.77,2059.42,5698.27,2020.59,5698,1972.05Z"/><path class="cls-1" d="M2171.05,1981.62c-13.27,0-26.55-.44-39.79.13-11.35.49-27-7.06-32.92,4.81-6.55,13.18.61,28.43,9.11,40.59,25.81,36.94,63.52,31.81,100.94,27.87,10.8-1.14,25.28-15.28,29.8,8.72,4.22,22.36-14.51,19.73-24.8,21.79-49.72,10-99.57,12.19-134.9-32.77-32.48-41.33-32.1-88.35-12.3-135.24,19.52-46.23,63.46-69.37,112.93-61.37,41.4,6.7,68.71,41.31,74,91.18,2.54,23.94-.7,38.8-30.41,34.72C2205.8,1979.73,2188.29,1981.63,2171.05,1981.62Zm-17.7-30.49c6.65,0,13.63,1.32,19.87-.27,12.82-3.28,33.27,10.23,37.58-9.15,4.54-20.41-6.89-40-26.07-49.61-21.35-10.75-44.06-9.89-63.54,6.26-13.73,11.38-26.51,27.19-21.81,44.19,5.06,18.26,25.14,4.9,38.08,8.35C2142.46,1952.23,2148,1951.12,2153.35,1951.13Z"/><path class="cls-1" d="M4107.35,1981.43c-13.28,0-26.58-.42-39.84.13-11.51.47-27.65-6.47-33.36,4.24-7,13.06,1.62,28.62,9.68,40.62,25.17,37.45,63,32.34,100.63,29,10-.9,25.6-17.93,30.39,7.5,4,21.46-13.38,20.62-24.56,22.77-48.3,9.27-96.92,12.26-132.49-30-35.19-41.85-34.94-90-14.61-138.4,19.51-46.38,63.58-69.27,113.16-61,41,6.84,69.24,42.64,74.34,91.58,2.6,24.88-3.47,37.66-31.58,34.22-17-2.08-34.49-.38-51.76-.38Zm-74.59-30.31c33.87,0,65.42-.78,96.91.28,19.32.65,23-7.7,17.95-23.87-8.42-26.93-25.28-43.14-55.08-41.49-39.08,2.16-53.5,27.53-59.78,65.08Z"/><path class="cls-1" d="M2690.65,2000.87c0,21.21-1.47,42.54.34,63.59,2.65,30.89-25.61,28-30.79,18.56-14.33-26.29-24.73-7.36-36.19-1.85-43.87,21.09-90.43,9.14-106.49-27.91-17.56-40.53,4.31-83.71,51.89-99.91,14.89-5.07,31.29-5.59,46.47-10,10.76-3.15,30.23,9.13,30.89-12.79.53-18-8.45-34.14-27.09-40.08-20.78-6.63-41.9-4.87-62.35,3.3-9.91,4-20.32,9.15-25.6-6.34-5.08-14.87,6.12-17.85,15.84-22.2,79.07-35.37,141.57,5,142.14,91.91.1,14.58,0,29.16,0,43.74Zm-61.43-28.36c-45-.48-74.29,18.25-74.89,48.07-.51,25.53,13.33,39.17,38.28,40.18,32.53,1.31,56.49-25.48,56.63-61.76.05-14.31,3.51-31.33-20-26.49Z"/><path class="cls-1" d="M4742.36,1888.18c31.31-29.92,65.51-43.77,105.63-24.75,39.51,18.73,46.06,54.71,45.66,93.64-.33,31.74.68,63.52-.41,95.23-.5,14.54,9.87,35.91-21.44,35-28.38-.79-18.71-20-19.2-33.32-1.09-30.39-.1-60.84-.43-91.27-.54-49-19.23-74.66-53.08-73.48-34.58,1.2-56.71,30.8-57.05,76.85-.24,33.07-.39,66.15.11,99.22.21,13.7-1.73,21.93-19,21.91s-22.79-5.65-22.55-22.85c.81-56.87-.4-113.77.57-170.64.19-11-10.33-27.28,10.19-33C4733.87,1854.58,4736.87,1872.3,4742.36,1888.18Z"/><path class="cls-1" d="M5430.26,1855.07c11.77.71,19.21-.67,24.85,1.89,12,5.45,36-2.78,30.15,24.78-5.75,27-22.12,9-33.79,7.71-32.31-3.47-61.9,1.34-81.43,29.69-22.18,32.2-23.27,67.52-4.89,101.51,16.36,30.27,44.88,39.26,78,35.95,5.28-.53,10.54-1.44,15.83-1.76,9.62-.58,21.75-14.08,26.47,8,4.57,21.36-10.34,21.45-22.4,24-48.05,10.37-94,7.33-127-34.11-31.69-39.87-33.33-86-13.39-131.36C5343.77,1873.42,5385,1855.73,5430.26,1855.07Z"/><path class="cls-1" d="M1969.18,1855.14c9,.79,18.71,0,27.26,2.84,11,3.67,28.2,2.07,23.77,23.45-4.81,23.15-18.53,11.43-30.22,9.3-33.5-6.09-64.53-1.54-85.16,28.07-22.22,31.91-23.13,67.48-5.31,101.35,19.94,37.91,55.45,40.21,93.06,35,9.63-1.35,22.83-14.31,27.27,7.52,4,19.86-9.62,21.68-22.67,24.44-48.1,10.17-94.19,7-126.71-34.28-32.22-40.88-34.61-87.71-12-134.43C1880.57,1872.76,1920.25,1855.82,1969.18,1855.14Z"/><path class="cls-1" d="M2954.22,2092.11c-8.51-1.73-24.25-4.13-39.49-8.32-10.22-2.81-20.2-6.83-13.94-22.14,5.14-12.54,10.75-17.08,23.36-9.29,4.32,2.67,10,3.15,15.2,4.39,24.4,5.89,50.63,8.89,61.53-19,11.86-30.29-12.91-41.42-35.86-51-27.14-11.31-55.36-22.22-60.57-56.32-4.5-29.49,7.61-51.92,34.21-65.36,29.1-14.7,59-13.13,88.29-.31,9.35,4.09,6.65,13.27,4.39,20.86-2.92,9.84-9.5,10.27-18.53,7.68-25.6-7.36-56.63-18.47-66.81,16.84-9.89,34.34,25.61,37.49,46.79,47.6,42.23,20.15,57.13,42.37,50.17,79.07C3036.46,2071,3006.08,2091.6,2954.22,2092.11Z"/><path class="cls-1" d="M2795,1896.88c16.33-21,29.44-36.19,50.22-40,9.62-1.76,23.22-5.93,24.38,10.52.82,11.5,7.16,26.48-15.68,28.25-42.08,3.27-53.67,32.83-54,69.53-.3,33-.8,66.11.23,99.13.53,17.13-5.34,22.68-22.64,22.92-19.32.27-20.86-9.1-20.74-24.43.43-56.83-.48-113.67-.08-170.5.09-12.22-10.53-30,15.47-32C2799.33,1858.16,2792.1,1878,2795,1896.88Z"/><path class="cls-1" d="M2347.74,1922.61v138.8c0,13.05,2.77,25.66-18.76,26-22.16.33-22.28-10.95-22.21-27.07.42-92.54.25-185.07.16-277.61,0-14.9-2-28.77,21.17-28.65,24.48.13,19.44,16.17,19.53,29.75C2347.92,1830.07,2347.74,1876.34,2347.74,1922.61Z"/><path class="cls-1" d="M2418.46,1920.61c0-47.61.44-95.23-.24-142.83-.24-16.22,3.67-24.07,22.06-23.62,17.14.42,19.18,9,19.14,22.58-.23,96.54-.36,193.09.11,289.63.08,15-4.39,20.27-20.14,20.88-19.24.74-21.39-8.25-21.17-23.81C2418.84,2015.84,2418.46,1968.22,2418.46,1920.61Z"/><path class="cls-1" d="M3896.17,1890.68c13.19-14.44,23.76-27.4,39.45-31.65,10.8-2.92,27.35-13,31.14,8.57,2.43,13.83,4.21,27-19.46,28.86-37.74,3-49,32.67-50.62,65.22-1.71,34.36-.75,68.87-.36,103.31.16,13.37-.89,22.55-18.67,22.22-16.3-.29-23.65-3.61-23.33-21.93,1-56.94-.36-113.93.75-170.88.22-11.63-12.08-30.13,13.53-34C3891.22,1857,3888.75,1875.71,3896.17,1890.68Z"/><path class="cls-1" d="M4630.46,1975.57c0,29.16-.44,58.33.22,87.47.34,15.12-1.32,24.28-20.83,24.36s-21-8.71-20.89-24.06q.87-89.45,0-178.91c-.14-15,.55-24.74,20.43-24.58,19.08.16,21.66,8.64,21.25,24.29C4629.82,1914.6,4630.38,1945.09,4630.46,1975.57Z"/><path class="cls-1" d="M5828.88,2061.69c-.46,16.94-9,28.32-25.79,29.39-19.19,1.22-30.1-11.44-30-29.13.11-17.5,11.07-30.48,30-29.57C5819.82,2033.18,5828.08,2045.07,5828.88,2061.69Z"/><path class="cls-1" d="M4636.89,1791.55c-2.42,20.23-12.8,28.17-30.08,26.87-16.14-1.21-24.14-12-23.21-26.61,1.08-16.92,12-25.81,29.7-24.45C4629.77,1768.64,4635.15,1779.69,4636.89,1791.55Z"/></svg>