<svg id="Layer_1" data-name="Layer 1" xmlns="http://www.w3.org/2000/svg" viewBox="0 0 4427.55 2348.08"><defs><style>.cls-1{fill:#363030;}</style></defs><path class="cls-1" d="M3813.52,744.84c167.89,108.5,338.28,213.35,494.09,341.38-1.35-4.75-1.64-10.22-4.27-14.11-7.26-10.72-16.18-20.33-23.26-31.16-81.88-125.33-208-199.75-330.14-274.86C3791.28,668.55,3641.8,561.31,3505.67,434c-134.28-125.62-301.53-163.6-479.25-155.27-112.47,5.27-214.86,55-318.6,95-70.72,27.27-147.31,43.38-206,95-24.8,21.82-38,15.55-59.76-3.31-101.85-88.24-216.34-153.95-342.85-203-96.43-37.4-196-54.74-295.83-74.17-148.47-28.91-294.76-28.47-434.94,39.18C1134.58,340.24,917,482.55,687.86,604.38c-166,88.23-311.28,213.86-480.3,300.4-58.05,29.72-92,77.16-87.17,148.08,2.24,32.81,9.67,44.06,43.16,33.78,28.08-8.62,62.35-28.58,85.73-14,51.28,32,68.27-6.83,91.81-33.89,148.38-170.56,321.64-311.19,513.8-429.27C864.5,603.57,876,596,884.57,607s-3,20.43-9.63,28.56c-33,40.14-66.7,79.64-99.41,120-12.56,15.49-31.39,29.49-22.08,63.95,56.65-52.89,107.5-101,159.08-148.4,93.46-85.81,168.93-190.84,291.52-245,82.67-36.5,157.27-91.74,244.13-120.42C1578,262.9,1714.49,239.24,1837.5,308c143,79.92,300.8,125,442.31,206.1,10.55,6,22.27,14.79,37.71-2.56-67.95-70.45-161.23-103.88-237.39-162,52.09,9.88,96.84,35.89,141.39,61.17,168.83,95.79,310.77,227.66,461.3,347.8,184.15,147,387.41,254.17,618.77,302.11,61.42,12.73,125.46,22.19,190.63,9.58-67.39-16.39-133.11-35.82-198.77-55.79-216.23-65.76-397-178.57-526.83-368C2698.49,547,2741.58,460,2822,420.77c147.85-72.18,306.78-94.79,467.29-27.26,67,28.17,112.57,82,166.75,126.42,71.45,58.56,161.37,93,220.1,169.93,26.86,35.19,60.89,65,92.47,96.47,50.65,50.43,113.5,79.3,184.5,96L3804.48,755.2Q3809,750,3813.52,744.84Z"/><path class="cls-1" d="M2085.67,986.22c3.81,24.5,23.67,36.14,48.85,37.7,62.9,3.88,125.74,8.82,188.68,12,15.3.76,38.63,9.32,43.6-11.67,5.16-21.78-20-22.35-34-28.67a227,227,0,0,0-42.26-13.87c-71.41-16.41-118.95-57.14-154.42-123.33A905,905,0,0,0,1932.2,602.88c-27.81-24.21-52.12-58.68-109.11-57.22C1957.56,673.7,2058,808.58,2085.67,986.22Z"/><path class="cls-1" d="M2650.41,133c8,20.55-15.29,20.92-34.22,45.39,67.07-36.11,65.91,38.79,103.29,41.17,12.19-15.33-.11-26.41-2-38.39-13.06-81.66-11.77-84,68.66-104.21C2838.49,63.8,2891,51.24,2947,37.55,2854,6.78,2760.77,9.3,2669.06.69c-18.24-1.72-35.74-.83-53.32,9.71-84.13,50.43-147.68,123-213.69,194.46,68.34-33,136-65.43,210.17-80.81C2625.93,121.2,2642.69,113.23,2650.41,133Z"/><path class="cls-1" d="M917.15,1447.06v-2.9q67.35-7.28,102.48-31.82t35.12-62.31q0-54.63-63-79.89t-204-25.28H587.69V1669.6H834.8q115.29,0,179.51-32t64.19-88.9Q1078.5,1463.62,917.15,1447.06ZM670.07,1287.57H791.18q93,0,135.66,15.83T969.48,1355q0,38.92-38.27,55.34t-125.48,16.41H670.07Zm276.88,320q-43.35,19.9-129.11,19.9H670.07V1468.56h141q90.6,0,134.92,18.59t44.34,58.11Q990.32,1587.68,947,1607.57Z"/><path class="cls-1" d="M1774.84,1364.84q0-60.13-64.42-90t-199.31-29.93H1310V1669.6h85.25V1493h152.92l177.5,176.64h100.78l-199.06-190.88Q1774.85,1449.1,1774.84,1364.84Zm-130.36,64.93q-42.12,20.79-132.37,20.78H1395.29V1288.14h110.8q94.77,0,137.63,18.59t42.88,60.73Q1686.6,1409,1644.48,1429.77Z"/><path class="cls-1" d="M2488.5,1290.46q-74.34-58.1-206.7-58.1-136.11,0-210.06,57.09t-73.94,160.81q0,104.6,73.74,162T2281,1669.6q132.75,0,207.32-58.4t74.58-160.37Q2562.87,1348.59,2488.5,1290.46Zm-53.35,291.4q-52.09,44.46-154.18,44.45-101.26,0-154.39-44.59t-53.16-130.89q0-85.11,53.16-129.71t155.22-44.6q101.67,0,153.56,44.31t51.89,130Q2487.25,1537.41,2435.15,1581.86Z"/><path class="cls-1" d="M3084.92,1534.5l75.28,135.1H3233l-237.84-426.49H2936L2696.94,1669.6h71.15l74.45-135.1Zm-146.42-176q17-33.42,26.07-61.31,14.44,36.33,28.12,61.31l70.31,131.6H2867.36Z"/><path class="cls-1" d="M3851.56,1299.76q-82.8-54.9-232.16-54.9H3423.17V1669.6h177.4q161.64,0,247.71-55.64t86.06-160.8Q3934.34,1354.69,3851.56,1299.76Zm-63.07,283.7q-67,43.43-200.18,43.44h-90.66V1287.57h108.18q124,0,186.81,42.12t62.86,125.22Q3855.5,1540,3788.49,1583.46Z"/><path class="cls-1" d="M816.76,2026.87h-2.5l-145.14-277.5H588.88v336.41h49.21v-214q0-48.78-4.39-84.21h2.51l155.48,298.21h42.93L991.35,1788h2.51q-4.38,43.71-4.38,81v216.76h53.28V1749.37H963.15Z"/><path class="cls-1" d="M1510.75,1790.1q-55.47-46-154.23-46-101.55,0-156.72,45.22t-55.17,127.37q0,82.83,55,128.27t156.27,45.45q99,0,154.68-46.25t55.64-127Q1566.23,1836.13,1510.75,1790.1Zm-39.81,230.79q-38.87,35.2-115,35.2-75.56,0-115.2-35.31t-39.66-103.67q0-67.41,39.66-102.74t115.81-35.32q75.87,0,114.58,35.1t38.71,103Q1509.81,1985.69,1470.94,2020.89Z"/><path class="cls-1" d="M2014.47,1967.05V1749.37H1961.2v219.06q0,42.33-31.35,65t-89.34,22.66q-60.81,0-92.16-22.54T1717,1968.89V1749.37h-53.29v216.76q0,58,45.29,91.12t128.06,33.13q82.74,0,130.08-32.9T2014.47,1967.05Z"/><path class="cls-1" d="M2182.49,1803.45l250.45,282.33h60.82V1749.37h-49.84v193.06q-.63,14.49,1.56,48.2t2.83,39.93h-2.51L2196,1749.37h-60.18v336.41H2185V1894.57q0-41.41-5-91.12Z"/><polygon class="cls-1" points="2707.53 2085.78 2760.83 2085.78 2760.83 1784.12 2905.95 1784.12 2905.95 1749.37 2562.4 1749.37 2562.4 1784.12 2707.53 1784.12 2707.53 2085.78"/><path class="cls-1" d="M3263,2085.78h55.17L3137.9,1748h-44.82L2911.9,2085.78h53.92l56.42-107h183.68Zm-221.92-142.2L3095,1839.34a354,354,0,0,0,19.75-48.55,456.39,456.39,0,0,0,21.32,48.55l53.28,104.24Z"/><rect class="cls-1" x="3381.14" y="1749.37" width="53.3" height="336.41"/><path class="cls-1" d="M3868.26,1942.43q-.63,14.49,1.56,48.2t2.83,39.93h-2.51l-249.83-281.19h-60.18v336.41h49.22V1894.57q0-41.41-5-91.12h2.51l250.45,282.33h60.81V1749.37h-49.84Z"/><path class="cls-1" d="M690.63,2273a291.43,291.43,0,0,0-17.37,43.8,290.84,290.84,0,0,0-17-43l-62.08-128.28H560.92l96.82,198.25h31l97.39-198.25H752.35Z"/><rect class="cls-1" x="1044.24" y="2145.51" width="26.76" height="198.25"/><path class="cls-1" d="M1535.06,2259.28q-.39,8.55,1,28.41t1.72,23.53h-1.53l-152-165.71h-36.62v198.25h30V2231.08a522.6,522.6,0,0,0-3-53.7H1376l152.4,166.38h37V2145.51h-30.33Z"/><polygon class="cls-1" points="1848.74 2343.76 2029.51 2343.76 2029.51 2323.15 1886.45 2323.15 1886.45 2250.2 2020.86 2250.2 2020.86 2229.86 1886.45 2229.86 1886.45 2165.99 2029.51 2165.99 2029.51 2145.51 1848.74 2145.51 1848.74 2343.76"/><polygon class="cls-1" points="2397.26 2248.95 2324.82 2149.83 2290.01 2149.83 2381.17 2272.28 2381.17 2348.08 2413.37 2348.08 2413.37 2271.19 2504.72 2149.83 2470.27 2149.83 2397.26 2248.95"/><path class="cls-1" d="M2809.47,2144.7l-112.53,199.06h33.49l35-63.05h114.08l35.44,63.05h34.26L2837.31,2144.7ZM2777.15,2260l33.49-61.43a204.28,204.28,0,0,0,12.27-28.61,260.68,260.68,0,0,0,13.23,28.61l33.09,61.43Z"/><path class="cls-1" d="M3399.07,2201.52q0-28.08-27.94-42t-86.44-14h-87.21v198.25h37v-82.45h66.32l77,82.45h43.71l-86.33-89.09Q3399.07,2240.84,3399.07,2201.52Zm-114,40h-50.66v-75.8h48.05q41.1,0,59.7,8.67t18.59,28.34q0,19.41-18.27,29.09T3285.12,2241.52Z"/><path class="cls-1" d="M3873.65,2169.24Q3836,2143.62,3768,2143.62h-89.27v198.24h80.7q73.54,0,112.69-26t39.16-75.06Q3911.31,2194.86,3873.65,2169.24ZM3845,2301.66q-30.51,20.28-91.07,20.27h-41.25V2163.55h49.22q56.38,0,85,19.66t28.6,58.44Q3875.44,2281.38,3845,2301.66Z"/></svg>