<svg id="Layer_1" data-name="Layer 1" xmlns="http://www.w3.org/2000/svg" viewBox="0 0 2341.1 2347.73"><defs><style>.cls-1{fill:#a62b2a;}</style></defs><path class="cls-1" d="M1171.07,0q196.46,1.76,369.09,95.65c94.06,51,175.41,117.39,247.81,195.68,72.17,78,132.08,164.62,181.7,258.32,65.56,123.81,110.81,255,140.15,391.89,19.37,90.44,29.19,182.09,34.65,274.15,4.25,71.62,1.22,143.35-5.2,214.89-9.63,107.42-29.05,212.86-66.06,314.36-43.26,118.67-104.71,226.58-192,319.11-63.31,67.06-134.94,122.55-216,166.47-82.05,44.44-169,74.22-260,93.56-53.85,11.44-108.17,16.69-162.92,21-72.31,5.65-144,1.58-215.76-6.32a983.84,983.84,0,0,1-280.52-73.84q-137.57-58.83-246.86-161c-92-85.68-160.26-187.79-209.42-303-34.24-80.21-57.34-163.6-72.66-249.5-19.29-108.23-24.95-217.28-21.2-326.73,2.93-85.79,13.51-171,29.64-255.44C246.56,858.4,278.86,751,323.89,647.54,373.46,533.7,436.42,427.83,516.35,332.45c57.52-68.64,121.55-130.5,195-181.82,77.19-53.9,160.22-96,251.6-121.06C1031.19,10.9,1100.13-.81,1171.07,0ZM232.68,1290.4c.78,19.48.32,38.93,1,58.43,3.74,99.2,16.36,197,41.79,293.09,23.37,88.39,56.24,172.67,102.79,251.56Q483.52,2071.76,660.39,2179a801.13,801.13,0,0,0,98.6,50.44c123.69,53.47,253.52,77.1,387.38,80.9,58.93,1.67,117.6-2.92,176.17-10.48,94.29-12.17,185.08-36.66,271.49-75.79,131.64-59.62,240.74-147.9,325.43-265.22,109.41-151.56,160.54-324.39,180.72-507.69,7.94-72.07,9-144.56,6.74-217.2a1608.43,1608.43,0,0,0-42.05-319c-26.81-114.17-65.36-224.3-118.74-328.87-64.3-126-146.59-238.58-251.48-334.14-73.76-67.21-156.17-121.26-248.41-159.14C1344.77,51.13,1239,32.42,1128.91,39.09c-98.44,6-192.08,30.56-280.15,74C712.58,180.3,602.15,278.67,511.17,399.56c-36.25,48.17-68,99-97.26,151.84a1319.78,1319.78,0,0,0-89.2,197.42c-41.46,116.47-69.21,236.17-82,359.26C236.36,1168.71,232.45,1229.44,232.68,1290.4Z"/><path class="cls-1" d="M1597.42,582.93c3.41-27.59,3.88-54.94-.93-82.17-1.25-7.08-2.22-14.2,3.42-19.79,4.85-4.81,11.11-7.29,17.89-5,7.62,2.55,12.63,8.1,13.9,16.23a181.4,181.4,0,0,1,1.4,47.81c-.33,3-1.11,6-1,8.94.2,4.2-1.48,10,4.55,11.18,5.7,1.12,7.14-3.8,8.67-8.26a294.61,294.61,0,0,0,12.79-53.33c.43-3,.37-6.11,1.38-8.86,3.66-10,11.18-15.65,21.7-15.22,11,.46,13.39,9.49,14.11,18.18,1.6,19.3-4.75,37.56-8.52,56.13-1.1,5.39-2.11,10.88-4.06,16-1.56,4.1-2.5,7.68,2,9.8,4,1.86,6.23-1.09,8.38-4.17,7.42-10.67,15.24-21.06,22.51-31.82,8-11.91,18.88-13.95,31.48-9.36,13.81,5,14.56,16.71,12.76,28.58-1.59,10.46-5.84,19.1-15.45,26a192.54,192.54,0,0,0-54.6,61c-17.53,30.42-15.39,62.53-8.49,94.82,11.72,54.79,17.12,110.77,29.43,165.32,11.8,52.27-36.84,106-91.39,108.9-44,2.38-86.61-4.72-129.16-14-9.29-2-18.76-3.27-27.93-5.72-9-2.4-11.5,1.34-9.44,9.07,24.2,90.81,3.45,178.6-17.57,266.4-2.67,11.18-4.89,22.48-6.83,33.81-.72,4.23-2,9.71,2.62,12.36s8.8-1.79,11.65-4.25c16.35-14,33.17-27.43,51.32-39,28.77-18.41,58.75-34.19,92.58-41.36,47.28-10,79.4,8.56,93.17,54.5,13.42,44.81,15.91,91.37,21.54,137.45,7.87,64.44,17.38,128.68,25.1,193.14,6.41,53.57,11.22,107.33,16.78,161a245.11,245.11,0,0,0,9.56,48.31c1.46,4.63,3.1,10.25,9.17,10.62,5.78.36,8.65-4.46,11.21-8.76,9.1-15.27,10.89-32.87,14.79-49.65,9.84-42.36,15.22-85.7,27.4-127.57,5-17.33,11.09-34.25,21.94-49,7-9.48,15.83-16.15,28-13.66,11.62,2.37,16.18,12,19.44,22.61,3.66,11.86,1.69,23.87,2.09,35.81.13,4-.22,9,4.63,9.62,3.69.51,5.59-3.23,6.13-7.12,1.13-8.07,8.41-11,13.86-14.85,11.22-8,21.49-4.48,25.58,8.9,2.46,8,2.8,16.71,4.22,25.07.61,3.58-1.53,8.45,4.23,9.81,4.69,1.12,7.64-2.22,10.25-4.9,4.5-4.61,7.56-11,14.26-12.8,13.31-3.56,29.6,2.6,32.18,18a115.34,115.34,0,0,1-6,60.33c-20,53.2-35.8,108.32-67.11,156.67-31.79,49.11-69.06,92.93-120.64,122.53-8.2,4.71-17,8.46-25.68,12.23-21.63,9.36-40.89,6.84-59.88-8.54-38.81-31.43-67.47-70.92-92.64-113.15-52.76-88.54-91.46-183.24-120.2-282-3.48-12-5.59-9.3-12.37-3.14-11.77,10.69-21.72,23.07-32.86,34.34-34,34.35-76.31,45.44-122.26,47.41-9.08.39-16.41,2.74-23.32,8-22.19,17-44.15,34.32-61.86,56.28-3.66,4.54-8.78,6.12-14.31,7.2-58.16,11.41-109.94-.69-150.67-45-16.89-18.37-34.79-25.46-59.12-23.56-21.87,1.7-44-.32-66-.35-31,0-55.69-13.43-77-34.95-16.18-16.34-29.91-34.64-44.33-54.51-4.75,7.31-4.08,14.15-4.28,20.79q-1.6,52.51-3.23,105c-1,33.16-12.39,63.15-25.81,93.12-22.23,49.68-45.17,99.2-73.93,145.16-16.86,27-37.57,52.88-63.35,73.05-18.13,14.19-38.07,20-61.76,13.91-42.47-10.93-79.91-31.75-113.82-58.23-14.11-11-22-29.42-31.72-45.17-41.27-66.62-73.44-137.42-98.18-211.67-5.62-16.87,12.43-41.69,30.52-42.72,5.57-.31,9.58,1.44,12.19,6.66a81.5,81.5,0,0,0,7.14,11.43c2,2.8,4.83,6.14,8.49,5s3.6-5.67,3.92-9c.77-7.94.13-16.11,1.71-23.86,1.44-7.11,3.38-15.25,12.57-16.88,8.28-1.47,14.22,2.79,19.57,8.67,3.05,3.34,4.67,11.09,10.45,8.15,4.71-2.4,1-9,1-13.73,0-8-.17-16,.59-24,1.13-11.85,8.44-19.53,19.68-21.4,11-1.83,19.25,3.84,24.53,14,22.11,42.55,37.14,88,54.58,132.46,8.75,22.33,18,44.44,27.11,66.64.94,2.31,1.77,4.85,3.36,6.67,4,4.59,5.71,12.87,14.2,11.21s8.11-9.62,8.6-15.71q3.06-37.38,5-74.84c5.61-102.34,11.32-204.68,16.47-307q4-78.67,12.44-156.94c.72-6.53,2.79-11,7.94-15.1,27.09-21.51,57.51-31.87,92.15-27.76,45.76,5.43,89.27,17.52,127.57,44.54,3.43,2.42,7.17,8.1,11.36,4.94,3.95-3,2.47-9.28,1.32-14.08-6.2-25.75-13.25-51.31-18.78-77.2-9.36-43.88-21.83-87.45-16.62-133.2,3.06-26.83,9.12-53.09,14.93-79.41.92-4.19,4.89-9.41,1-12.66-4.57-3.81-9.39,1.36-13.42,3.44-44.11,22.67-90.75,34-140.37,31-42.63-2.56-83-10.89-106.67-52.2-12.72-22.18-18.73-45.15-13-71.6,11.49-52.77,19.82-106.13,21.81-160.28,1.18-32.28-11.91-59.41-30.39-84.41C588,654.13,572.17,634.73,557,614.9c-6.09-7.94-11.9-16.22-15-25.83-2.94-9.21,0-16.31,8.57-21.63,7.35-4.56,12.54-6.3,21-.07,12.41,9.13,21.3,20.9,31,32.22,2.8,3.27,4.28,8,10.29,9,3.58-9.15.71-17.19-3.2-25.31-6.91-14.36-15.86-28-17.42-44.39-.83-8.8-3-18.66,10.08-21.31,14.83-3,22.68.75,26.45,14.08,5.71,20.19,10.88,40.54,16.45,60.77,1.36,4.94,1.26,13.12,8.13,12,7.51-1.25,6.07-9.19,5.12-15.05-2.53-15.76-3.84-31.68-7.88-47.26-2.32-9-4.29-19.07,5.49-26,14.74-10.44,30.53-3.26,32.51,15.24,1.72,16.14.57,32.59,4.7,49.43,6.71-8.78,9.28-18,9.58-33.58.15-8-.1-16,2.62-23.77,3.21-9.1,7.56-16.51,19.18-14.84s17.88,7.46,17.75,19.85c-.21,20.28-6.16,39.46-10.52,58.95-18.9,84.42-11.66,167.89,9.93,250.63,5.36,20.54,8.25,22.16,29.66,20.75,49.46-3.24,97.13-13.51,139.84-40.21,21.36-13.35,34-31,36.32-58.15,5.25-60.27,15.93-119.9,27.73-179.3,4.38-22.08,14.31-39.85,30.17-55.52a502.75,502.75,0,0,1,113.7-84.2c25-13.6,48.08-14,73.83-.41,55.47,29.36,107.94,62.78,154.58,104.88,6.55,5.91,10.11,14.08,10.42,23.86a1577.87,1577.87,0,0,0,17.86,194.87c3.58,22.94,13.66,36.93,36.09,43.87,47.64,14.75,96.56,20.9,146,24.72,7.67.59,11.15-2.23,11.77-9.65,1.48-17.93,4.18-35.84,4.46-53.78.72-47,1.44-94.11-1.43-141.13-.48-7.95-4.11-14.49-8-20.73-10-15.83-13.85-32.87-13.24-51.43.54-16,.31-32-2.55-47.87-.53-2.89.16-6,0-9-.43-10.32,4.72-16.09,14.66-17.35s15.08,5.44,16.68,13.72c2.55,13.21,3.59,26.7,5.34,40.06C1587.76,552.06,1587.75,568.54,1597.42,582.93Zm-14.58,129.44H1584c0,9.51-.09,19,0,28.54a755.54,755.54,0,0,1-3.31,76.41c-2,22.4-6.48,26.36-29.24,24.95-12-.74-23.9-1.76-35.78-3.24-40.7-5.06-81.28-10.65-119.53-26.85-14.43-6.12-23.16-15.58-26.39-31.56-12.32-60.94-18.35-122.58-19.67-184.55-.52-24.13-6.77-42.31-26-58.23-43.48-35.92-91.07-64.8-141-90.43-17.59-9-33.83-9.71-51.35-1.08-49.5,24.37-92.37,57.42-129.93,97.63-8.88,9.51-12.89,21.16-15.49,33.45-13.35,63.12-24,126.73-30,191-2.29,24.6-15.15,41-33.44,53.94C878.11,854.07,826.43,865,773,868.2c-29.29,1.73-35-2.74-41.91-31-19.91-82-27.55-164.56-9.38-248,4.15-19,9.67-37.77,11.34-57.3.58-6.72-.83-12.16-8.54-13.3-7.54-1.11-9.21,4.22-10.11,10-.77,4.9-2.15,9.87-1.9,14.75.61,11.69-2.4,22.79-4.46,34.06-1.37,7.48-4.22,13.85-13,13.6-9.62-.27-12.31-7.55-13-15.51-1.1-13.44-1.63-26.92-2.56-40.37-.51-7.38-1.4-14.4-12-12.69-10.17,1.63-9.4,8-8,15.62,3.34,17.65,7,35.29,9,53.11,1.24,10.81,5.38,26-9.74,29.22-14.06,3-18.61-11-21.86-21.84-6-20-11.42-40.26-16-60.65-2.16-9.6-7.48-13.26-15.71-10.65-8.42,2.68-3.32,10.06-2.37,15.12,3.09,16.44,13.55,29.93,19.08,45.37,3.7,10.33,7.35,22.92-4.49,29.83-12.36,7.21-17.17-5.63-23.1-12.92-7.88-9.7-14.91-20.15-25.64-27.06-4.92-3.17-10.15-4.27-15.33-.19-5.65,4.45-2,9.4,0,13.5a94.8,94.8,0,0,0,10.26,16.45c16.54,22,33.7,43.47,49.88,65.69,19,26,30.87,54.47,29.44,87.69-2.34,54.63-11,108.36-22.33,161.68-8.82,41.37,18.74,90.28,59.41,102,35.58,10.23,71.76,11.69,108.37,5.4,31.41-5.4,60.47-17,88.43-31.73,5.66-3,11.43-5,16.8-.65,4.91,4,4,9.7,2.37,15.2-.85,2.87-1.25,5.86-2.07,8.73-17.42,61.24-21.8,122.62-4.74,184.92,9.88,36.08,17.77,72.71,26.22,109.17,1.63,7,4.51,14.95-3.84,20.39-7.55,4.91-13.28.36-19-3.79-37.77-27.55-80.77-40.67-126.56-46.68-29.76-3.91-56.22,3.9-81,19.83-8.13,5.23-11.9,11.71-12.78,21.8-6.09,69.71-11.64,139.43-14.61,209.38-3.12,73.36-7.24,146.68-11.3,220-2,35.42-4.85,70.78-7.23,106.17-.62,9.32-4.38,16.64-13.61,19.39-10,3-17.55-1.47-23-9.85-2.69-4.17-5.61-8.33-7.44-12.89-13.21-32.84-26.19-65.78-39.22-98.7-13.19-33.35-23.58-68-43-98.52-3.28-5.17-6.94-12.38-14.79-10.4-8.41,2.11-10.75,9.49-11.5,17.49-1.15,12.15,1.66,23.89,3.18,35.78.79,6.13.74,12.34-6.72,14.81-7,2.3-11-1.47-15-6.71-5.46-7.19-8.69-21.3-19.14-17.78-10.13,3.41-6.95,17.08-7.29,26.82-.3,8.61-.39,18.18-9.78,21.64-10.5,3.86-16.23-4.89-22.05-11.69a24,24,0,0,1-3.89-6.36c-2.35-5.74-6.1-5.28-10.79-3.15-13.24,6-19.14,18.74-14.63,32.44A965.72,965.72,0,0,0,487.61,1978.2c27.92,43.07,72.95,61.79,119.2,78.17,29.85,10.56,53.79,2.11,74.28-20,19.72-21.24,38.53-43.26,53.56-68.21,26.31-43.71,46.75-90.37,69.33-136,19.73-39.86,25.57-81.47,26.32-124.76.46-26,1.07-52,2.09-78,.3-7.74-.36-17.2,9.2-20.29,9.73-3.15,14,5,18.82,11.38,8.42,11.17,16.67,22.53,25.82,33.09,21.59,24.94,46.39,42.89,81.83,43.69,27.52.61,55.05,1.13,82.53.52,16-.36,27.16,4.8,38,16.27,29.48,31.28,63,55.28,108.78,55.64,25,.2,48.63-.72,66.7-22,14.27-16.83,32.16-29.92,49.68-43.28,8.24-6.3,16.84-9.06,27.45-9.63,43.28-2.32,84.29-10.9,115.33-45.31,11.7-13,24.68-24.81,37.55-36.65,13.09-12,19.47-9.64,24.47,7.85,28.29,98.84,67.41,193.22,119.73,281.74,24.92,42.16,53,82.16,93,112.49,14.59,11.08,28.67,12.95,44.74,6.67a197.39,197.39,0,0,0,24.55-11c51.57-28.82,88.61-72.14,120.2-120.93,30.71-47.46,46.27-101.42,65.84-153.6,6.64-17.72,10.37-36.7,6.18-55.94-2.76-12.66-16-16.34-25.08-7.16-2.76,2.81-4.65,6.46-7,9.67-4.26,5.8-8.91,11.48-17.19,9-7.78-2.3-10.3-8.87-11.23-16.23-1.18-9.4-1.73-18.93-3.74-28.15-1.94-8.87-7.9-10.47-13.81-3.56-4.78,5.59-7.87,12.62-11.88,18.9-4.34,6.79-8.68,14.88-18.63,10.67-8.8-3.72-9.57-11.62-8-20.34a110.71,110.71,0,0,0,.44-35.87c-1.27-8.55-3.88-18-13.18-20.06s-15.94,5-20.26,12.58a184.62,184.62,0,0,0-12.87,26.88c-12.22,33-17.48,67.61-24.39,101.88-6.3,31.26-9.52,63.37-23.73,92.59-4.38,9-10.73,16.06-22,14.85-10.91-1.18-14.21-9.89-17-18.63-7.25-23-9.36-47-11.88-70.79-5.62-53.16-10.11-106.45-16.24-159.54-8-69.47-21.09-138.28-27.12-208-3.05-35.27-8.17-70.34-18.71-104.51-12.59-40.82-42.09-51.24-78-43.79-56.54,11.73-102.66,43-144.46,81.38-4.86,4.46-9.42,9.32-17,7.15-8.27-2.38-9.74-9.83-10.72-16.52-.84-5.77-.07-12,1.18-17.81,6.86-31.74,14.79-63.26,21-95.11,12.16-62.12,19.67-124.46,4.08-187.26-6.26-25.2,0-31.74,24.92-26.58,47.46,9.81,94.61,20.89,143.78,18.83,49.82-2.09,98.83-43.78,86.56-102-11.12-52.82-16.59-106.66-28.7-159.32-10.86-47.22-6-91.38,27.36-129.43,12.88-14.7,26.29-28.76,42.22-40.3,9.31-6.75,9.06-17.15,8.62-27.24-.28-6.35-5.21-8.05-10.28-9-10.16-1.94-15.35,4.53-20.17,12-9.22,14.27-18.77,28.31-28.06,42.53-3.34,5.11-7.63,8.27-13.76,6.31-5.41-1.73-7.47-6.26-7.28-11.8.16-4.5-.26-9.11.64-13.45,4.12-19.85,9-39.55,12.81-59.44,1.9-9.82,7.27-25.69-3.43-27.95-15.43-3.27-12.91,14.32-14.47,24.14a224.6,224.6,0,0,1-18.52,61.33c-2.57,5.41-6.55,9.25-12.59,8.61s-9.25-5.63-10.67-11.26c-2.09-8.32-2.11-16.82-1.31-25.34a207.29,207.29,0,0,0-.53-46.38c-.81-6.19-3.69-12.51-11.23-10.95-6.6,1.35-6.7,6.9-5.37,13.21,4.74,22.63,4.75,45.67,4,68.66-.32,10.46,3.19,25.37-11.67,26.87-14.43,1.46-14.76-13.52-17.38-23.81-5.59-21.9-4.81-44.66-8.63-66.82-.94-5.49-1.3-12.31-9-10.89-6.78,1.26-4.75,8-4.31,12.58a561.39,561.39,0,0,1,3,64.42c-.19,9.85,3.4,18.35,7.87,27,5.68,10.93,13.26,21.15,13.09,34.56C1582.6,658.32,1582.84,685.35,1582.84,712.37Z"/><path class="cls-1" d="M319.2,1575.17c-4.54-32.46-7.18-62.45-13.29-91.73-5.67-27.2-7.37-54.94-13.78-82-6.73-28.35-2.83-35.75,24.19-49q114-55.9,239.35-35.15c25.41,4.23,49.07,13.65,70.1,29,5.6,4.09,9,8.49,8.67,16.12-1.74,42-2.87,84-4.48,126-2.48,64.5-5.27,129-7.74,193.48-1.78,46.42-3.26,92.85-5,143.14-6.93-15.26-12.82-27.21-17.87-39.49-20.51-49.9-40.59-100-61.28-149.78-3.58-8.64-3.57-15.44,1.33-23.76,21.52-36.61,37.88-75.74,54.57-114.7,6.11-14.26,8.08-28.72,4.49-43.95-6.74-28.54-20.72-53.2-42-73.05-30.11-28.14-67.6-15.86-93.18,3.18-2.12,1.58-3.87,3.69-3,6.32,1,3,4.12,1.83,6.41,2.16,9.1,1.3,17.93-.91,26.84-2,35.89-4.51,76.06,28.14,81.31,64,4.55,31.08.38,59.16-17.19,85.85-14.77,22.44-27.58,46.21-40.51,69.8-7.24,13.19-21.23,15.83-32.2,23.2-4.85,3.25-5.87-.95-7.34-4-17.86-37.22-31.82-75.54-33.12-117.43-.1-3.48-.67-7.2,1.89-10.06,14.33-16,28.19-32.65,46.46-44.38,8.82-5.66,20,2.56,20.57,15.51.55,13.46-.61,27-1.19,40.48-.31,7.21-1,14.41.35,22,18.95-24.23,40.31-47.5,32.21-81.79-6.35-26.84-21.69-33.62-47-23.36-17.63,7.15-31,19.81-45.11,31.77C409,1498.83,365.22,1536,319.2,1575.17Z"/><path class="cls-1" d="M1898.43,1341.41c-30.94-13.89-64.32-20.85-97.35-1.72-34.67,20.08-47.65,52.58-45.6,91.56a173.09,173.09,0,0,0,23.43,78.32c12.53,21.74,27.46,41.75,43.58,60.9,4.47,5.31,7.7,9.14.76,16-29.24,28.86-41.65,65-44,105.38-1.36,23-3.59,45.9-5.47,68.84-.62,7.67-3.23,14.29-10.43,19.14-4.62-44.82-8.93-89-13.76-133.08-11-100.47-27.25-200.22-41.47-300.25-2.33-16.39.89-26.41,14.37-36.66,54.74-41.66,116.11-51.25,182-40.33,54.44,9,104.2,30.41,151.06,59.1,5.53,3.38,7.14,7.35,6.55,13.57-4.57,47.78-7.91,95.68-15.55,143.12-.79,4.91-2.38,9.69-3.59,14.53-2.92,11.7-9.36,11.47-17.21,4.81-21.21-18-42.27-36.22-63.44-54.28-23.23-19.81-47.58-38.16-72-56.48-15.06-11.3-32.9-14.81-50.1-19.21s-30,6.11-33.88,23.62c-7.09,32.07,13.42,80.86,41.6,98.68,2,1.26,4.86,2.68,6.78,2.13,3.48-1,2.72-4.87,2.88-7.73.42-7.56-4.46-13.09-7.82-19.12-6.08-10.9-13.59-21-17.82-32.93-3.63-10.19-2.94-19.45,4.84-27.86s17-10.5,27.26-6.9c28.1,9.82,46,21.56,44.17,56.91-1.81,34.1-4.69,67.8-12.1,101.15-2.27,10.22-3.08,14.16-15.49,7.29-53.59-29.64-79.78-77.71-94.56-134.16-1.24-4.76-1-9.93-1.26-14.92-2.42-58.76,36.53-76.61,83.18-70.29C1880.52,1352.22,1891.46,1356,1898.43,1341.41Z"/><path class="cls-1" d="M465.38,992.82c-4.08-.37-11.05-.93-18-1.68-2.46-.26-5.55-.83-5-4.08.35-2.16,1.94-5.2,3.73-5.89,42.06-16.26,54.37-53.23,61.93-91.92,16.39-83.82-29.26-139.35-92.64-169.38-10.27-4.86-12.3-8.67-8.52-19.45,10.91-31.09,19.27-63.1,30.62-94,18.18-49.51,44.08-95.07,75.71-137.29,20.57-27.46,20.7-27.36,50.19-10.07,25.67,15,25.85,15.19,8.2,37.11C558,513,552.48,534.37,541.58,552c-11.86,19.15-11.19,36.17-7.3,55.48C537.58,623.85,546,637,559,647.38c34.37,27.43,49.34,64.26,51.86,107.13,2.93,49.88-8.56,98.47-12.52,147.68-2.75,34.2-19.66,53.06-47.14,67.86C525.16,984.05,498.06,993,465.38,992.82Z"/><path class="cls-1" d="M1875.64,953.27c-50.51,8.25-94.43-6.87-135.69-32.85-4.33-2.73-7.92-5.58-9.11-11.14-15-70.34-31.88-140.34-36.58-212.46-1.92-29.4,11-52.15,30.44-72.72,18.23-19.26,36.44-38.48,56.66-55.67,4.45-3.78,5-8.27,4.3-13.47-1.9-14.36-3.43-28.77-5.7-43.06-1.41-8.88,0-12.06,10.49-14.16,21.24-4.24,32.89,3.59,43,21.6,27.72,49.29,54,99,66.77,154.73,1.6,7,2.21,10.23-6.22,12.73-58.58,17.42-94.33,55-98.57,117.62-4.4,65,17.24,116.8,78.93,146.63C1874.75,951.23,1874.88,951.9,1875.64,953.27Z"/><path class="cls-1" d="M1830.39,1047.26c-80.6-.62-151.3,9.92-218.75,38.52a47.06,47.06,0,0,1-16,3.3c-19,.84-23.28-3.09-25.16-21.77,0-.5-.11-1-.14-1.5-.56-11.48-5.31-25.29-.56-33.81,5.36-9.64,19.5.22,30-1.21,39.79-5.41,77.29-14.71,101.27-51.16a15.62,15.62,0,0,1,1.74-2.36c9.43-9.6,17.38-22.1,28.74-27.95,12.11-6.24,23.68,6.61,35.78,10.16,72.24,21.21,142.46,13.46,211.26-13.82,10.34-4.11,14-3.33,17.84,7.42,12.71,35.32,24.68,70.69,28.55,108.35,1.06,10.34-.62,12.92-11.68,10.19C1950.68,1056.18,1887.26,1046.53,1830.39,1047.26Z"/><path class="cls-1" d="M302.57,1069c1.17-21.94,1.44-44,8.41-65.22,3.62-11.06,7.49-15.47,21-11.26,41,12.76,82.3,26.07,126.08,23.32,34.09-2.15,67.19-8.8,96.55-28.17,7.62-5,17-6.34,24.95-12,6.49-4.62,15.13-1.89,20.79,5.87,10.61,14.53,21.62,28.76,32.59,43,9.23,12,21.67,18.52,36.19,22.43,24.72,6.66,49.92,10.26,75.24,13.06,8,.88,11.24,3.58,10.85,11.94-.37,7.93,1.2,15.93,1.49,23.92.56,15.48-10,24.59-23.81,17.92-83.7-40.42-172.57-32.4-260.79-28.31-52.43,2.44-104.31,11.23-156,20.59-11.65,2.11-18.11,1.13-15.27-13.19C302.41,1085.19,302.06,1077,302.57,1069Z"/><path class="cls-1" d="M288.19,1334.07c-1-38.71-.27-74,4.95-109.19,1.18-8,3.62-10.51,12.49-8.55,80.31,17.81,162,18.21,243.48,15.24,40.85-1.48,81-12.52,115.93-36.38,3.17-2.16,5.46-5.61,10.41-2.8,30.78,17.48,65.07,17.31,98.93,19.28,42.36,2.48,42.37,2.53,55.51,44,1.3,4.1,4.14,7.93,2.21,13.72a483.91,483.91,0,0,0-84.3-9.35c-41.55-1-75.85,10.94-98.64,47.44-5.81,9.31-12.09,10-21.1,5.15-17.63-9.39-34.91-20.15-54.87-23.68-20.67-3.65-41.64-5.63-62.47-8.42-17.59-2.36-34.93-5.29-53-4.54C396.48,1278.59,339.21,1292.15,288.19,1334.07Z"/><path class="cls-1" d="M2052,1299.07c-35-14.82-68.47-31.59-103.79-44.1-86.35-30.58-167.85-25-243.23,30.31-6.16,4.52-9.26,4.08-12.19-2.7-3.36-7.79-7.07-15.43-10.56-23.16-20.53-45.42-56.51-57.8-101.48-49.44-26.42,4.92-50.1,16.64-72.31,31.55-3.15,2.11-5.69,5.72-10.91,5.17,1.35-18.79,12.35-34.67,15.56-52.8,1-5.9,6.91-4.9,11.21-4.7,36.24,1.61,70.27-8.19,103.75-20.3,8.47-3.06,15.39-3.47,24,.5,63.36,29.36,130.75,35.48,199.33,31.87,56.93-3,113.23-11.91,169.33-21.82,7.82-1.38,11.23-.93,12,8.74,2.67,32.94,10.29,65,21.29,96.15C2055.87,1289.85,2052.31,1293.55,2052,1299.07Z"/><path class="cls-1" d="M551.28,410.92l78.47-95c11.78-14.25,24.22-28,35.14-42.91,7.52-10.27,17.48-15,29-16.33,21.35-2.38,42.93-2.85,64.25-5.41,11.19-1.35,12.46,3,11.55,12.25-1.38,13.91-1.48,27.94-2.73,41.86-.65,7.22,1.19,10.73,8.88,12.19,15.7,3,31.12,7.41,46.78,10.55,8.53,1.72,11.73,5.09,9.67,14.21-4.5,20-8.22,40.12-12,60.26a22.74,22.74,0,0,1-8.13,13.78c-7.56,6.51-14.12,14.28-22.05,20.26-8.77,6.62-13.36,19-27.06,19.1-19.13.09-32.65-11-45.26-22.88-9.55-9-17.24-19.92-25.71-30-5.64-6.73-12-8.77-21.14-6.87a933.13,933.13,0,0,1-102.18,15.54C563.48,412,558.11,413.57,551.28,410.92Zm235.18-55.54-58.2,13.33,47.45,42.46C779.45,391.76,782.71,374.83,786.46,355.38Zm-75.17-1.71c3.81-14.6,7.3-27.05,10.25-39.64,1.55-6.62.27-12.94-8.41-11.73-14.56,2-29,5.14-44.52,8Z"/><path class="cls-1" d="M1216.59,1826.89c0-9.43-3.27-21,1.06-27.58,3.32-5,16.31-3.41,24.92-5.17,20-4.07,34.72-17.09,49.48-29.77,6.88-5.91,10.65-8.52,15.4,2.59,9.29,21.72,25.14,36,49.77,39.68,44.56,6.74,75.85,32.88,99.46,69.9,4.49,7,5,11.29-3.82,14.51-68.73,25.17-138.89,44-212.26,49.43-13.84,1-19.19-2.88-19.36-17.74-.36-32-2.81-63.9-4.4-95.84Z"/><path class="cls-1" d="M864.09,1662.51c13.62,15.13,27.81,29.52,44.68,41,7.59,5.18,15.11,8.68,24.43,10.17a552.1,552.1,0,0,0,83.55,6.57c22.5.13,44.76,4.67,65,15.73,8,4.41,9.4,7.72,4.09,18.2-12.64,24.93-31.22,31.77-57.64,33.65-47.13,3.36-78,33-99.28,73-6,11.23-11.39,14.12-24.39,9.65-31.41-10.79-36.38-8-55.55,20-4,5.82-5.94,16.9-17.49,10.13-10.07-5.89-20.45-11.21-13.6-26.48,7.77-17.3,12.73-36,21.83-52.54,16.64-30.17,19.65-62.54,20-95.73.21-20.76,0-41.53,0-62.3Z"/><path class="cls-1" d="M1187.64,1871.73c0,19-.61,38.06.24,57,.48,10.73-3,14.06-13.5,13.08-40.85-3.81-81.51-8.66-121.2-19.58-34.18-9.41-67.08-22.42-99.84-35.79-5.13-2.09-8.62-2.48-5-10.42,12.13-26.3,31.6-43.16,59.25-50.64,10.59-2.87,21.41-6,32.27-6.61,29.37-1.69,47.19-18.59,58.43-43.43,5.11-11.31,10.37-11.56,20.07-6.42,19.41,10.3,39.2,19.89,59,29.32,6.71,3.19,9.56,7.23,9.36,14.91-.53,19.5-.18,39-.18,58.54Z"/><path class="cls-1" d="M1555.46,1893.71c-14.88-29.44-39.11-31.44-66-25.4-4.17.94-7.72,2.44-10.06-2.58-6.37-13.64-18.17-23.33-25.95-36.16-9.5-15.66-24.89-25.47-41.81-32.77-18.81-8.12-37.46-16.49-56.89-23.24-16.44-5.72-23.21-22.41-33.48-34.91-3.08-3.74,2-6.53,4.45-8,11.11-6.64,22.44-10.55,36.31-10.74,27-.37,52.51-8.82,75.79-22.83,20.36-12.25,39.32-26.44,56.44-45.11,10.91,33,20.24,64.42,31.65,95a811.06,811.06,0,0,0,55.64,119c2.27,4,5.26,10.61-3,11.31C1567.94,1878.24,1561.6,1884.43,1555.46,1893.71Z"/><path class="cls-1" d="M655.39,2089.7c37.8-8.5,71.72-19.78,104-35.94,9.1-4.56,15.65-10.1,19.46-19.4,10.19-24.86,24.26-48,31.43-74.23,2-7.38,6.53-10.11,14.63-5.74,20.21,10.92,41.36,20.2,61.16,31.78,17.36,10.15,21.43,30.55,31.07,46.56,2.38,4-3.07,7-5.88,9.33-4.91,4.17-10.08,8.37-15.82,11.18-22.24,10.88-24.78,29.31-20.9,50.86,2.12,11.74,3.14,23.67,5.13,35.44,1.25,7.35-.72,11.18-8.58,12.48-8.72,1.44-17.19,4.34-25.86,6.21-24.56,5.28-47.71,7.22-72.67-4.19C733,2136,692.17,2121,655.39,2089.7Zm185.42-103.65c-7.41,7.33-9.24,15.9-12.71,23.45-12.81,27.84-12.64,27.92,18.2,28.59,13.31.3,17.38-4.3,12.41-16.86C854,2009.3,847.12,1998.23,840.81,1986.05Zm-14.87,132.6c-3.61-14.47-10.16-26.65-17.15-38.56-1.74-3-4-7.55-9.21-3.07-4.38,3.81-20.44,38.37-17.76,40.17,8.8,5.9,19,1.75,28.65,2.46C815.29,2120,820.21,2119.07,825.94,2118.65Z"/><path class="cls-1" d="M1574.42,352.64c28.06,31.44,53.5,60,81,90.82-28.39,2.79-53.87,5.3-79.35,7.78-2.48.24-5.21-.36-7.46.45-23.34,8.42-37.22-5.43-50.62-21a17.78,17.78,0,0,1-4.72-13.59c.53-9,2-18.33.27-26.95-9.15-45.43,17.75-73.79,46.61-101.47a17.26,17.26,0,0,1,10.49-5.24c28.83-2.82,57.5-7.39,86.56-7.93,9.21-.17,16,2.76,22.3,9.68,39.69,43.95,73.59,92.11,104.9,142.24,6.13,9.82,2.76,11.05-7,11.52-28.4,1.39-56.92-.94-85.26,3-6.23.86-14.06.08-14.88-8.71-3.34-36-15.81-70-23.23-105.12-4.79-22.67-5.36-22.65-28-21-11,.82-21.88,2.2-32.83,3.15-8.74.76-13.32,7.74-19.77,12.12-27.49,18.68-33.1,44.88-29.57,75.55,1,8.68,2.61,14.58,12.27,15.28,9.38.68,13.55-3.59,14.09-13C1571.07,385.79,1572.72,371.41,1574.42,352.64Z"/><path class="cls-1" d="M490.51,865.93C488.85,892.35,480,916,460.42,936.39c-13.08,13.66-26.35,25.26-44.94,29.62-6.8,1.59-8,7.29-9.09,12.43-1.83,8.25-6.28,8.83-13.21,6.5-18.44-6.23-36.88-12.55-55.58-18-9.49-2.74-11.67-8.48-9.72-16.81,3-12.64,6.42-25.15,9.62-37.73,1.91-7.51,4.61-9.56,12.2-4.48,15,10,31.25,17.43,50,18.33,19.34.92,34.38-6.3,44.61-22.27,15.88-24.79,22.46-52.08,18.95-81.47-.58-4.88-1.74-10.14-4.23-14.26-4.36-7.19-6.79-20.4-17.37-16.93-9,3-2,13.91-1.17,21,2.53,21.42,3.65,42.33-1.09,64-6.44,29.43-37.85,35.51-59,20.11-9.72-7.08-17.06-16.72-24.18-26.38-3.8-5.15-3.71-10.64-2.11-16.7,9.17-34.81,19.41-69.18,35.09-101.81,3.9-8.12,7.64-9.81,15.64-7.57,26.72,7.47,47.81,22.84,62.72,45.89C482.24,812.59,489.64,837.91,490.51,865.93Z"/><path class="cls-1" d="M1869.49,758.66c-20.65,9.19-29,24.13-30.66,42.72-2.63,29.44,8.65,54.75,25.65,77.94,6.19,8.44,13.72,10.19,23.66,5.93,21.13-9.07,42.78-16.93,63.84-26.14,8.57-3.74,12.42-2.81,14.73,6.69,2.7,11.15,5.6,22.55,10.61,32.76,7.16,14.59-.89,23.62-10.73,30-22.87,14.87-45.8,17.87-73.26,6.3-86-36.23-86.18-125.9-54.38-180.3,12.18-20.83,32.28-28.49,53.8-34.83,24.41-7.2,24.2-7.58,30.56,16.59,6.6,25.13,13.2,50.27,20.18,75.3,4.33,15.54-1.5,27.29-12.69,37.24-12.58,11.17-27.62,12.47-42.18,6.49-13.54-5.55-19.7-17.26-19.28-32.57C1869.92,802,1869.49,781.11,1869.49,758.66Z"/><path class="cls-1" d="M1929.31,1083.15c-21.86,26.77-37.91,54.72-47.86,85.87-1.33,4.19-4.4,5.16-8,5.43-65,4.91-130,10.81-191.29-19.81-2.59-1.29-5.05-2.86-7.86-4.47,5.48-5.82,12.64-7.23,18.89-10,30.07-13.27,52.88-35.56,74.92-58.94,3-3.13,4.85-7.35,10.26-7.92C1828.45,1068.06,1877.88,1071.46,1929.31,1083.15Z"/><path class="cls-1" d="M645.59,1177.73c-44.05,16.18-86.42,30.71-131.81,33.25-19,1.06-38,.77-57,1.41-6.45.21-10.35-1-14-7.67-13.81-25.31-28.61-50.08-43.43-74.82-4.41-7.36-5.2-11.35,5.23-12.34,46.27-4.4,92.52-9.12,138.77-13.75,4.56-.46,9.13-1,12.09,3.6,20.44,31.77,53.33,47.34,84.53,65.15C641.25,1173.25,642.15,1174.49,645.59,1177.73Z"/><path class="cls-1" d="M1202.23,2197.14c13.17-8.2,18.35-18.79,18.25-32.12-.22-29.51.2-59-.21-88.55-.13-9.23.61-14.53,12.4-14.51,11.44,0,11.52,5.48,11.42,13.82-.31,27.51.6,55-.52,82.52-.53,13.06,2.88,22.25,14.91,28.5,6.5-10.63,11.22-21.22,10.59-34.7-1.26-27.46-.34-55-1.1-82.52-.25-8.92,3.25-12.58,11.09-10.54,6.92,1.79,19.27-6.59,19.2,10.28-.18,41,2.28,82.12.13,123-1.08,20.5-16.2,37.4-30.56,51.62-6.42,6.35-16.66,1.72-22.83-7.11-5.52-7.9-11-13-16.33,1.55-5.3,14.43-18.71,15.12-26.76,2-8.38-13.6-15.6-27.9-23.43-41.84-2.56-4.54-3.11-9.25-3-14.4,1.16-39,1.93-78,3.34-117,.2-5.65-4.44-15.41,8.43-14.75,10.6.54,15.53,3.89,15.28,16.23C1201.68,2111.5,1202.23,2154.33,1202.23,2197.14Z"/><path class="cls-1" d="M942.1,592.18c-23.56-4.14-49.53-9.54-75.76-13.09-32.69-4.43-65.57-7.6-98.43-10.74-12.06-1.15-18.29-7.87-12.19-18.33,12.66-21.72,14.2-47.88,28.93-68.55,6.61-9.27,13-18.73,19.27-28.22,5.19-7.8,12.62-4.31,19-3.38,6.85,1,12.05,5.94,17.67,10,5.23,3.81,16.19,1.77,17.1,8.91.72,5.68-5.61,12.29-8.87,18.45-6.32,11.93-12.58,23.89-19.08,35.72-3.11,5.66-2.76,9.38,4.42,10.59,2,.33,3.8,1.22,5.74,1.63,25.5,5.46,21.58,8.8,27.7-15.85,3.94-15.84,12.69-8,20.25-7.17,10.72,1.13,8.18,7.64,6.47,15.14-6.21,27.23-9.43,20.78,15,30.31,4.19,1.64,8.65,2.73,12.59,4.83,7.83,4.16,11.74,1,14.53-6.34,7.32-19.37,17.61-37,32.48-51.58,2.83-2.79,5.66-11.84,10.57-4.1,4,6.34,19,8.52,10.43,20.67-13.28,18.9-26,38.29-31,61C956.78,592.07,952.22,592.86,942.1,592.18Z"/><path class="cls-1" d="M1490.66,2162.59c2.69,12.91,5.65,26.58,8.33,40.3,1.14,5.86,2.14,11.5-3.65,16.42-10.19,8.66-16.49,7.48-19.8-5.5Q1452,2121.56,1429,2029.17c-.59-2.36-1.38-5.15-.68-7.26,2.11-6.3,38.85-17.26,44.21-13.11,23.71,18.37,47.07,37.21,71,55.35,7.74,5.88,8.15,11.7,3.36,19.12a14.19,14.19,0,0,0-.8,1.27c-17.53,34.09-17.53,34.09,10.4,61.85,8.52,8.47,16.79,17.22,25.65,25.31,7.17,6.55,4.6,10.05-2.4,14.28-10.78,6.53-19.72,9-29.7-2.52-10.45-12-22.91-22.32-34.76-33.08-3.3-3-5.82-9.63-12-5.62S1489.9,2152.46,1490.66,2162.59Zm-29.39-116.19c3.22,13.72,5.65,24.2,8.16,34.66.92,3.85,2.21,7.61,3,11.48,1.53,7,4.16,8.71,9.55,2.74,18.69-20.71,18-26.28-5.23-39.9C1472.62,2052.93,1468.41,2050.53,1461.27,2046.4Z"/><path class="cls-1" d="M1537.58,231.16q0,13.51,0,27c0,28.17-11.79,45.89-38.32,55.41-15.72,5.64-29.6,14.37-43.84,22.68-10.32,6-36.85-5.15-38.52-16.94-3.23-22.7-7.68-45.24-6.77-68.51.86-21.91,11.27-37.92,27-51.34,18.44-15.69,39.48-27.18,61.89-36.08,12.41-4.92,38,12.16,38.41,25.72C1537.9,203.13,1537.56,217.15,1537.58,231.16ZM1447,249.28c1.5,9.36,2.83,18.75,4.54,28.07,2.07,11.28,8.85,14.51,19.29,9.48,35.06-16.87,37.53-22.47,26.22-59.42-.3-.95-.43-1.95-.68-2.92-1.87-7.09-4.73-10.61-12.36-5.17-10.14,7.24-20.8,13.74-31.24,20.56C1449.32,242.1,1445.91,244.32,1447,249.28Z"/><path class="cls-1" d="M952.74,2217.05c1-12.9,1.88-26.87,3.22-40.8.72-7.55-2.5-8.66-9.46-9-22.61-1.16-34.41,11.2-42.14,30.41-3.53,8.79-8.58,15.84-20.48,10.32-7.67-3.56-8.94-6.66-4.82-14.45q28.41-53.61,55.53-107.91c10.23-20.5,19-41.7,29-62.32,2.56-5.26,2.4-15.32,10.46-14,8.32,1.4,17.4,5.06,21,14.84,8.52,22.95,17.64,45.69,25.51,68.85,4.78,14.07,16.71,29.46,11.41,42.21-4.88,11.73-24.47,11.52-37.35,17.1-8.48,3.67-12.1,8.28-12.4,17.78-.59,18.95-2.39,37.9-4.42,56.76-.49,4.56,3.62,14.54-7.4,11.89-7.6-1.83-19.82-.2-17.77-14.65A57.31,57.31,0,0,0,952.74,2217.05Zm25.78-148.65c-7.42,5.15-9.35,12.67-13,18.87-11.85,20.13-8.6,25.28,14.84,26.34,10.68.48,14-4.42,11.12-13.41C988,2089.54,983.07,2079.37,978.52,2068.4Z"/><path class="cls-1" d="M925.16,773.46c-7.95,31.77-14,36.47-45.5,36.6-39.06.17-78.11.33-117.16.92-10.5.16-17.58.35-16.57-14.47.86-12.66-2.83-25.77-5.52-38.47-1.6-7.59.74-10.67,7.71-13.19C781.48,732.79,814.16,719,848,708c25-8.08,50.87-12.34,75.59-20.94,8.93-3.11,11.08-1,10.49,8.34-2.12,33.18-1.9,33-34.66,42.06-9.09,2.52-17.7,6.76-26.67,9.78-5.72,1.92-7.16,5.46-7.26,11.22-.22,12.71,2.31,21.11,18.14,18.66C897.23,775,911.11,774.65,925.16,773.46Zm-142-1.94c.38,1,.76,2,1.15,3,8.78,1.21,17.57,2.46,26.36,3.64,25.16,3.38,25.69,2.56,23.83-22.56-.6-8-4-10.33-10.24-7.12C810.34,755.69,796.85,763.79,783.18,771.52Z"/><path class="cls-1" d="M1617,1931.07c1.2,29.94-4,58.94-8,87.88-2.52,18.22,4.41,33.2,10.59,48.88,2.92,7.41,9.66,5.74,15.49,6,39.83,1.63,78.54-6.83,117.5-13,3.4-.54,6.82-1,11.78-1.71-8,13.57-20,21.19-30.58,29.77-26.49,21.37-54.8,40.17-83.91,57.83-10.07,6.11-15.39,4.33-20.46-5.92-11.73-23.73-24.5-46.94-36.22-70.67a59.91,59.91,0,0,0-20.29-23.34c-25.83-18-51.31-36.43-78-55.43,12.53-9.38,23.32-12.88,36.11-3.25,10.36,7.8,21.53,14.59,32.69,21.25,13.76,8.22,20.55,4.6,22.26-11.78.94-8.94,1.12-18,1.27-27C1587.54,1950.37,1595.08,1940,1617,1931.07Z"/><path class="cls-1" d="M1269.27,266.21c18.16-55.32,34.24-110.93,47-167.45,1.23-5.42,2.46-7.74,8.61-6,18.71,5.31,36.73,9.33,45.47,31.26,7.88,19.78,20,38,31.26,56.23,5.83,9.43,4.23,14.14-5.93,17a13.92,13.92,0,0,0-2.66,1.36c-12.22,6.52-31.49,7.88-35.48,19.34-3.86,11.05,4.86,26.58,8.38,40.05,2.78,10.62,6.08,21.11,9.1,31.67,1.31,4.62,1.06,9.27-2.75,12.45s-8.17,1.83-12.67.14c-11.12-4.19-18.17-10.49-19.66-23.46-1.69-14.63-5.63-29-8.86-43.43-1.24-5.49-3.54-11-10.1-11.54s-11.66,2.6-14.56,8.56c-2.4,4.93-5,9.92-6.36,15.17C1296,263,1287.2,270.7,1269.27,266.21Zm90.93-104.57c-6.34-8.36-13.34-17.31-20-26.49-4.75-6.51-8-6.78-10.24,1.61-3.2,12-6.52,23.9-9.77,35.85-2.09,7.7,1.76,9.32,7.88,6.83,9.64-3.94,19-8.54,28.47-12.93C1358.18,165.73,1360.48,165.38,1360.2,161.64Z"/><path class="cls-1" d="M1151.68,2110.24c-9.5-15.12-17.57-26.54-24.12-38.77-7-13-18.46-9.14-28.91-9.43-2.42-.06-4.61,2.57-4.54,5.22.51,17.85-8.44,33.17-13.17,49.59-1.84,6.38-.07,7.71,5.82,8.25,13.9,1.26,27.9,2.09,42,6.64-6.76,12.1-20,14.73-29.77,21.77-5.22,3.75-11,7.33-17.15,9.07-21.5,6.17-22.36,24.3-25.1,41.45-.77,4.77.72,10.74,5.07,11.23,9.11,1,18.8,3.51,27.45-2.94,11.91-8.89,24.09-17.44,37.94-27.42,1,20.81-1.61,39.27-3.27,57.79-.61,6.85-5.17,6.34-9.59,6.2-29-.86-58-.73-86.85-3.78-6.73-.71-8.38-2.51-6.3-9.25,19.66-63.94,37.66-128.35,52.31-193.65,1.4-6.22,4.11-8.2,10.47-6.41a383.64,383.64,0,0,0,66.22,12.25c8.07.81,10.58,4.82,10.31,12.76C1160,2076.32,1157,2091.23,1151.68,2110.24Z"/><path class="cls-1" d="M1383.27,727.93c-7.2-14.76-6.5-26,8.77-34.22,8.23-4.42,15.44-10.74,24.33-17.06-11.47-6.86-23.71-5.91-34.9-8.36-7.35-1.62-8.62-5-8.27-11.23.33-5.84-1.4-11.37,7.67-13.27,51.26-10.72,102.39-22.07,153.52-33.4,7.19-1.59,10.71.14,13.07,7.61,10.27,32.51,3.54,55.31-23.8,76-11.45,8.68-27.28,6.93-39.17,16.61-3.8,3.09-13.89-6.35-19.64-11.43-13.63-12-25.23-11.2-39.09.17C1412.73,710.08,1397.74,718.36,1383.27,727.93Zm120.43-69.62c1-5.13-.28-9.82-6.53-7.28-7.7,3.12-21.22-5.23-22.75,9.62-.87,8.54,5.77,13.22,14.36,13.72C1499.92,675,1503.39,668.19,1503.7,658.31Z"/><path class="cls-1" d="M1399.56,2116.51c-11.66,15-21.57,28.57-32.39,41.38-9.06,10.73-10.2,22.21-6.25,34.91,2.23,7.16,4,15.65,12.7,16.84,9.92,1.36,19.7.34,26-10,6.23-10.21,13.71-19.65,20.33-29.64,5.22-7.88,10-8.69,13,1,4.08,13.36,7.26,27,10.74,40.55,1.93,7.55-1.71,11.18-8.86,12.53-26,4.9-52,9.75-77.86,15-7.27,1.47-10.88-.25-12.47-8q-16.77-81.43-34.22-162.73c-1.58-7.38.09-10.66,7.29-13.25,25.37-9.14,50.56-18.78,75.64-28.7,7.13-2.82,10.84-2,12.25,6,1.2,6.87,3.08,13.62,4.68,20.42,4.08,17.35,4.09,17.26-13.19,15.39a27,27,0,0,1-13.89-5.09c-13-10-25.39-3.14-38,1.19-4.25,1.46-4.58,4.4-4.8,8.1-.87,14.77,2.43,28.75,7.28,42.53,2,5.69,4.86,7.15,11.22,6.07C1371.27,2118.92,1383.73,2115.19,1399.56,2116.51Z"/><path class="cls-1" d="M1316.1,499.18c7.28-36.83,14.36-74.69,22.38-112.34,3.85-18.07,9.78-35.69,14.17-53.66,2-8,4.59-9.68,12.15-5.26,32.84,19.22,65.07,39.28,95.48,62.27,6.83,5.16,6.09,8.94,2.12,14.53-10.87,15.3-23,18.32-39.57,9.68-16-8.34-31.95-16.65-47.82-25.15-6.06-3.25-10.06-5-12.32,4.5-7.53,31.6-15.72,63-24.14,94.4-2.34,8.74,4.26,11.28,8.64,15.63,3.39,3.36,6.2,2.16,8.67-1.17,3.83-5.17,9.2-10.47,3.19-17-6.38-6.95-2.25-12.55,2.32-16.81,5.66-5.28,8.52,2.21,11.81,4.83,7.41,5.91,14.25,12.55,21.18,19,3.87,3.61,12.18,6.14,4.28,13.44-5,4.59-7.54,15.52-17.93,5.35-6.79-6.66-10.43,2.05-14,5.91-15.09,16.37-15.19,16.81-32.49,3.12C1327.25,514.94,1316.77,511.9,1316.1,499.18Z"/><path class="cls-1" d="M1477.24,507.94c-8.23,6.9-14.28,12.88-21.21,17.57-11,7.5-16,15.11-10.15,29.51s-10,15-17.58,18.37c-9.89,4.36-9.13-4.91-9.64-11.27-.72-9-5.26-10.68-13.21-7.16-17.3,7.65-19.28,11.19-15.18,29,2.46,10.7,4.11,21.66,7.42,32.1,4.17,13.14-4.49,14.26-13.18,15.55-9.29,1.36-16.73.76-17-12.13-.37-20.47-8.16-43.3-1.4-60.7s31.49-24,47.69-36.27a794.59,794.59,0,0,0,77.72-67.34c7.73-7.61,9.87-6,13.92,2.52a362.5,362.5,0,0,1,30.37,93.77c.35,2,1.84,4.68,1.05,5.76-8.52,11.6-22.44,7-33.7,10.63-5.69,1.81-11.58,1.9-13.39-6.94C1486.31,543.83,1481.81,527,1477.24,507.94Z"/><path class="cls-1" d="M928.59,282.09c0,8.49.21,17-.05,25.48-.43,14.61-10.39,22.59-24.88,19.85-15.69-3-31.3-6.39-47-9.43a24.48,24.48,0,0,1-15.81-10c-23.78-31.47-48-62.59-71.84-94-2.73-3.6-10.54-8.08-2.19-13.1,5.75-3.45,10.43-12.89,20-3.16,22.27,22.71,39,49.88,60.53,73.1,4,4.34,6.94,10.55,13.4,11.35,9.75,1.2,20.24,8.5,29.26-.7,9.26-9.46,10.65-30.3,4-41.7-14.65-25-28.91-50.2-44.06-74.87-4.48-7.29-4.47-11.21,3.49-14.91,7.06-3.29,13.25-9.68,19.62,1.71,17.56,31.34,36,62.18,53.66,93.48C933.23,256.81,927.25,269.83,928.59,282.09Z"/><path class="cls-1" d="M1740.69,1072.87c-10.19,15.2-22.43,25.25-35.25,34.56-52.79,38.38-110,62.59-177.19,56-10.91-1.07-13.37-3.89-11.54-14.27a232.89,232.89,0,0,0,3-35.8c.17-9,4.2-10.49,12-9.79,21.88,2,43.82,3.19,65.71,5,10.09.82,19.29.49,28.61-5.31C1665.58,1078.72,1682,1074.63,1740.69,1072.87Z"/><path class="cls-1" d="M1561.21,769.55c0,6.51.51,13.06-.12,19.51-.88,9,5.68,23.08-3.35,26.05-12.63,4.16-27.65,1.59-41.6,1-5.52-.24-4.13-5.94-4.17-9.69-.12-10.52-.23-21,.12-31.55.29-8.46-1.88-14.93-11.1-16.78s-17-2.43-22.87,8c-6.08,10.83-9.71,29.37-21.9,29.33-23.11-.07-47.14-4.77-66.9-18.92-11.17-8-5.8-34,6.87-39.54,8.67-3.8,17.21-8,25.49-12.62,7.47-4.16,11.92-1.84,15.78,5.06,4.25,7.59,1.75,12.21-5.5,15.43-.46.2-.89.45-1.33.69-6.38,3.47-15.13,5.4-15.49,14.05-.17,4.06,6.35,5.83,10.66,7.08,8.74,2.54,17.72,5.43,23.78-5,15.69-27,36.73-42.64,70.43-38.35,12.4,1.58,29.14-5.87,37.92.4,9.66,6.89,2.12,24.15,3.23,36.82C1561.42,763.52,1561.2,766.54,1561.21,769.55Z"/><path class="cls-1" d="M1446.61,1290.87c-1.41-37,10.16-69.45,18-102.35,12.85-54,10.73-108.26,6.13-162.64-1-11.75,1.77-14.29,12.24-12.49,18.22,3.13,36.45,6.21,54.74,8.8,5.41.77,6.39,3.48,6.46,8,.24,17,.39,34,1.08,51,.26,6.54-3.12,7.29-8.21,7.39-10.45.19-22.94-2.42-30.46,4.37-7.81,7-2.89,19.91-4.52,30.12A508.41,508.41,0,0,1,1473.31,1230c-2.8,7.1-5.57,14.19-4.23,21.76C1472.33,1270.14,1461.2,1280,1446.61,1290.87Z"/><path class="cls-1" d="M826.14,428.6c23.89-18.87,42.39-41,63.72-60.21,7.12-6.42,12.44-2.47,18.39,1.82,21.24,15.28,21.3,15.2,2.51,32.5-1.84,1.69-3.69,3.37-5.51,5.08-13.87,13-12.5,19.54,5,27.75,4.93,2.3,7.57-.11,10.56-2.55,9.68-7.89,19.52-15.63,28.69-24.08,5.85-5.38,10.83-6.11,17-1q35.18,29.2,70.59,58.13c4.77,3.88,4.68,6.4,0,10.18-7,5.6-14.82,10.88-20,17.95-9.85,13.34-18.28,5.38-25.3-1.33-7.38-7-8.8-16.17,1.13-23.4,4.55-3.31,6-6.27.81-10.31-1.44-1.11-1.85-3.45-3.08-4.92-19.84-23.58-24.8-24.18-45.9-2.09-27,28.27-23.12,23-52.19,8.78C871,450.38,849.48,440,826.14,428.6Z"/><path class="cls-1" d="M859.77,1036.71c-4.77,32.89-4.26,63.62-2.35,94.39a795.61,795.61,0,0,0,15.32,112.68c2.68,12.87.32,26.76,7.8,38.77,1.48,2.38.46,6-2.27,8-3.82,2.84-4.71-1.81-7-3-6.31-3.26-8.94-9.1-10.72-15.49-14.18-50.85-34.77-100-40.22-153.13-.9-8.82-6.12-8.62-12.41-8.83-29.78-1-29.78-1.06-29.73-31,0-4,.25-8-.1-12-.58-6.62,1.37-10.54,8.81-10.4C812,1057.25,834.49,1047.85,859.77,1036.71Z"/><path class="cls-1" d="M1252.8,174.41c-14.62,1-29.35,3.51-43.82,2.46-15-1.1-18.83,4.16-17.8,18.15,1.15,15.42-.31,31,.52,46.48.55,10.19-4.26,12.17-12.53,11-6.82-.94-16.64,4.36-16.41-10.05.88-55,1.18-110,1.31-165,0-8.23,3.15-10.1,10.7-9.84,28.54,1,56.54,6.07,84.66,10.32,7.25,1.1,10.49,3.83,10.21,11.46-.42,11.48-.27,23,.1,34.5.35,10.92-3.52,10.41-11.13,5.31-21.85-14.65-42.45-31.12-66.55-42.52-10-4.74-10.32-2.25-11.21,6.53-2,19.8,3.62,34.63,21.86,44.94,17.53,9.91,34,21.77,50.88,32.77C1253.32,172.09,1253.06,173.25,1252.8,174.41Z"/><path class="cls-1" d="M592.75,1108.46c20.9,1.38,41.35.69,60.93,8.81,19.34,8,39.77,13.26,60.27,18,25.43,5.84,50.6,6,75.4-2.49,6.42-2.18,9.72-3,10.83,5.56,2,15.35,5,30.58,8,45.79,1.45,7.44-1,9.6-8.42,9.38-52.82-1.61-103.39-10-150.1-37.8C627.88,1142.76,611.52,1124.85,592.75,1108.46Z"/><path class="cls-1" d="M736.22,687.52c0-1.49,0-3,0-4.49.72-31.6,5.69-36.9,36.11-32.46,36.28,5.29,72.57,5.61,109.06,4.83,12.31-.26,19.6-4.2,20.23-17.25a61.37,61.37,0,0,1,1.53-8.85c4.37-22.13,4.23-21.37,26.74-16.87,11.42,2.28,13.79,7,10.54,17.19-1.66,5.19-2.4,10.71-3.2,16.14-3.45,23.39-3.44,23.17-27.86,28.13-50.36,10.25-100.67,20.78-151,31.16C736.78,709.5,736.24,709,736.22,687.52Z"/><path class="cls-1" d="M1281,460.54c1-13,1.62-26,3.16-38.88.83-7-2.5-10.64-8.14-12.21-6.26-1.74-6.93,4.13-8.69,8-4.5,10-8.84,20.14-13.45,30.13-1.6,3.47-2,9.14-6.27,9.27-5,.15-9.07-4.46-11.63-8.38-3.61-5.51-3.89-11.92-1.56-18.68q22-63.76,43.31-127.76c2.32-6.94,5-7.73,11.93-5.13,28.82,10.77,29.19,10.46,26.71,39.61q-5.86,68.74-12.45,137.42c-.48,4.93,2.08,14.8-3.63,13.87-7.74-1.25-17.56-5.23-20-15.37-.89-3.73.22-7.94.42-11.94Zm13.26-125.35L1288.5,334c-4.28,10.32-8.49,20.67-12.84,31-4.64,11-6.84,19.18,9.67,23.06,9.33,2.19,8.94-.13,8.91-6.66C1294.15,366,1294.21,350.59,1294.21,335.19Z"/><path class="cls-1" d="M1082.31,246.33c19.78-22.38,30.23-48.35,42.87-76,8.81,18.48,11.65,36.34,16.65,53.43,3.31,11.33,10.7,25.34,6.84,33.88-4.53,10-20.86,2.12-31.82,4.53-14.59,3.23-29.45,5.37-43.87,9.19-6.22,1.65-8.88,1.67-9.93-5.23-8.58-56.32-21.89-111.66-34.71-167.1-1.41-6.11.14-10.52,7.05-9.23,8.3,1.54,21.1-6.81,22.75,10.64,4.45,47.26,14.41,93.71,21.59,140.58C1079.94,242.38,1081,243.6,1082.31,246.33Z"/><path class="cls-1" d="M1148.45,277.08c7.38.78,19.39-1.39,25.55,3.63,7.14,5.82-.8,17.09-1.52,26.05-1.92,23.9-3,47.86-5,71.76-.54,6.72,1.88,8.61,8.12,9.35a121.48,121.48,0,0,1,21.82,4.94c20.78,6.55,20,6.46,12.92,26.94-3.92,11.27-9,11.88-18.44,7.08-14.63-7.47-30.11-10.55-46.44-6-7.42,2.07-9-1.53-9.81-8.42-4.49-39.74-9.11-79.47-14.61-119.08-1.79-12.91.66-19,14.79-16.37C1139.26,277.61,1142.87,277.08,1148.45,277.08Z"/><path class="cls-1" d="M1046.82,268.55c1.25,7-3.67,8.66-8.68,9.95-21.31,5.45-42.69,10.63-63.93,16.29-9.06,2.41-12.25-1.59-14.44-9.73q-20.46-76-41.72-151.73c-2.54-9-1.28-13.9,8.59-16.43s13.47,1.82,15.69,10.45c11.93,46.46,24.17,92.85,36.19,139.29,1.51,5.83,1.7,12.36,10.26,12.08,7.62-.25,7.82-6.56,9.45-11.58,6.62-20.43,13.14-40.89,19.7-61.33,1.06-3.28,1.33-7.89,5.36-8.24,4.46-.39,4.85,4.46,5.82,7.57C1035.66,226.12,1042.93,246.9,1046.82,268.55Z"/><path class="cls-1" d="M993.5,305.5c14.36-7.05,14.36-7.05,29.72,12.92,1.6-1.13,3.3-2.16,4.8-3.43,17-14.4,16.36-14,29.5,3.73,6.46,8.7,4.09,11.88-4.25,16-7.06,3.51-14.12,7.84-18.55,14.81-2.94,4.64-5.8,9.89-1.67,15.26,4.51,5.89,9.91,2.66,14.87.54,3.64-1.56,7-3.67,12.89-6.79-4.11,11.47-8,20.84-10.79,30.54-2.32,8.14-4.58,17.23,5.42,22.37,7.19,3.7,28-3.5,31.07-10.13,2.6-5.55,0-10.43-3.85-13.3-7.85-5.78-5.51-9.2.73-14.45,18.4-15.48,17.88-15.61,25.63,7.15,4.14,12.19,3,22.51-6.83,31.27-3.43,3-7,5.74-3.91,11.26,3.94,7-1.23,9.66-6.41,12.36-5,2.62-9.38,5.52-13.87-1.31-4.85-7.38-13.8-3.83-20.71-6.16-19.2-6.51-33-14.48-24.21-37.37,2.55-6.62-2-7.25-6.67-8.41-30.3-7.52-37.12-21-25.5-50C1004.47,323.5,1004.47,323.5,993.5,305.5Z"/><path class="cls-1" d="M368.88,1697.24c-10.21-28.91-20.08-57.72-30.65-86.27-2.76-7.46-2.92-12.75,3.49-18.42,9-7.94,17.26-16.68,25.55-25.37,7.6-8,11.16-5.34,13.13,4.17a1064.75,1064.75,0,0,0,29.55,113c-10.13.44-16.33-9-25.5-6.59C374.05,1680.48,374.7,1692,368.88,1697.24Z"/><path class="cls-1" d="M1903,1172.92c7.53-14.09,13.91-25.28,19.52-36.84,2.82-5.82,7.55-5.66,12.47-6.14,27.32-2.68,54.68-5.06,81.94-8.25,10.85-1.27,14.15,1.3,14.77,13.08.83,16.06-4.31,21.93-20.17,25.47C1976.67,1168,1941.64,1171.78,1903,1172.92Z"/><path class="cls-1" d="M352.32,1164.87c10,0,20-.43,29.94.14,7.2.41,16.1-4.16,21.35,2.41,8.68,10.85,16.14,22.86,20.08,36.44,1.47,5.06-2,8.27-6.76,6.46-24.18-9.21-50.12-4.83-74.79-10.16a182.61,182.61,0,0,0-29.61-4.08c-14.65-.7-20-6-15.76-21.34,1.94-7,4.37-8.61,10.67-8.51,14.95.25,29.92.08,44.88.08Z"/><path class="cls-1" d="M2001.8,1631.66c-9.75-6.49-18.06-6.49-22.94,6.53-1.3,3.48-5.46,6.56-9.82,5.47-5.5-1.37-2.87-6.58-3.39-10.1-2.36-16.06,7.18-29.5,10.2-44.41,5.08-25,7.43-50.36,10.87-78,13.72,9,23.79,19.87,34.13,30.19,3,2.94,1.63,8.17.43,12.76C2014.62,1579.54,2008.42,1605.09,2001.8,1631.66Z"/><path class="cls-1" d="M424.53,1654.82c-12.32-36.5-19.7-71.61-27.86-106.48-1.3-5.56,18.87-27.28,24.54-27.09,5.06.17,5.14,4.54,5.06,7.64-.92,35.78,13.35,67.21,28.12,98.43,4.79,10.1,3.83,15.53-8.6,13.24C435.28,1638.63,429.27,1643.56,424.53,1654.82Z"/><path class="cls-1" d="M1943.25,1598c-8.09-6.51-11.86-15.62-22-17.26-5-.82-3.26-5.29-2.21-8.56,10.11-31.28,11.62-63.73,13.14-96.19.19-4,0-8.83,4-10.68,4.51-2.09,6.84,2.82,9.83,5.16,11.2,8.79,16.83,18.22,13.59,34.34-5.78,28.76-11.13,57.78-12.92,87.23C1946.61,1593.83,1944.79,1595.48,1943.25,1598Z"/><path class="cls-1" d="M1087.31,1960.66c-10.33-1.48-14.63,3.41-16,12-2,12.21-12.73,25.19,3.3,35.87,2.35,1.57,2,4.58.28,6.69-1.86,2.29-4,4.36-7.59,2.81-4.58-2-9.3-3.6-14-5.36-9.17-3.47-17.62-7-28.51-5.91-17.3,1.65-23.69-8.43-18.87-25,4.05-13.91,8.09-27.83,11.91-41.8,1.57-5.75,4.25-8.92,10.64-6.75,6.76,2.29,6,6.72,3.81,12-4.57,11.08-8.84,22.28-13.32,33.4-2.49,6.19-1.48,12.06,5.56,12.32,8.68.33,11.14,13.49,22,8.86,4-1.68,8-2.52,8.24-6.82.68-13.22,12.82-26.16.41-39.94-2.88-3.2,1.32-6.75,5.26-5.5C1069.67,1950.5,1079.58,1952.15,1087.31,1960.66Z"/><path class="cls-1" d="M1160.59,1985.86c-1.22,12.16-2.3,21.47-3,30.82-.37,4.61-.08,9.57-6.59,9.5-7-.08-5.89-5.5-5.63-9.82,1-16.94,2.39-33.86,3.13-50.81.15-3.53,1-5.75,4-7.09,4-1.83,6.58.19,8.51,3.63,6.17,11,12.38,14.34,19.92.82,2.25-4,7.48-5.3,12-4.26,6,1.38,4.73,6.76,4.71,11.13-.06,14.94-.37,29.9-.19,44.84.07,5.54-.24,10.75-7.11,10.5-7.56-.27-6.1-6.2-5.62-11.22.86-8.91,1.58-17.83,2.55-29C1178.27,1991.87,1170.36,1998.5,1160.59,1985.86Z"/><path class="cls-1" d="M386.42,1150.44c-27.86,0-55.73,0-83.59-.08-3.21,0-7.57.64-8-4.5-.45-5.92,1.74-11.8,7.27-13.27,21.77-5.78,44.07-10.22,66.56-8.46,11.89.92,12.23,15.39,19.71,22.23Z"/><path class="cls-1" d="M1136,2014.22c.22,7,.51,11.29-5.22,11.75-5,.4-5.08-3.74-6.09-7-2.08-6.68,1-17.34-7.94-18.77-7.65-1.21-13.67,5.92-18.1,12.93-1.34,2.12-2.32,7.87-7.3,4.87a7.59,7.59,0,0,1-3.4-9.2c6.89-19.76,16-38.57,25.3-57.26,1.48-3,4.2-4.06,7.51-3.75,4.26.41,5.88,3.11,6.45,7C1130.27,1975.56,1133.37,1996.31,1136,2014.22Z"/><path class="cls-1" d="M856.64,1938c2.36-14.78,4.58-29.59,7.14-44.33.65-3.7,1-9.16,6.38-8.49,6.16.77,3.58,6.06,3,9.63-1.24,7.87-3.29,15.62-4.29,23.51-1.13,8.92,2.18,13.91,11.91,10,2.86-1.14,6.42-3.54,8.15-1,10.71,15.56,11.76.4,15.2-4.83,3.27-5,5.42-10.65,8-16,1.59-3.3,4.28-4.12,7.44-3,3.66,1.36,3.7,4.42,2.39,7.38q-9.93,22.56-20.11,45c-1.92,4.24-5.72,5.33-10,4.62-4.48-.74-4.32-4.29-5.18-7.81-4.09-16.74-4.31-16.77-17.71-6.61-2.88,2.18-5.35,4.64-9.23,2.55C855.11,1946.16,856.61,1941.86,856.64,1938Z"/><path class="cls-1" d="M1356.79,2020.2c-8.35-6.24-8.15-14.85-10.25-22.08-2.91-10-4.52-20.41-7-30.57-1.93-7.94-4.66-15.69,6.06-19.86,9-3.53,16.68-1.67,22.4,5.8,6.47,8.47,14.61,16.19,7.91,29.19-4.09,7.92,6.46,9.37,10,14.06,2.74,3.69,9.88,6.12,5.16,11.85-5,6.11-8.4-.87-12.16-3.32-4.38-2.86-7.32-9.79-13.51-7.58C1355.38,2001.26,1361.29,2011.92,1356.79,2020.2Zm-.37-33c7.2-9.71,8.51-17.52,5.85-26.1-1.38-4.45-5-6.76-9.1-6.06-5.37.92-5,5.54-3.86,9.56C1351.2,1971.29,1353.43,1977.83,1356.42,1987.25Z"/><path class="cls-1" d="M1939.21,1106.54c4.79-6.85,8.67-12.48,12.62-18.06,2-2.85,4-5.87,8.33-4.8,19.5,4.83,39.5,3.39,59.25,4,11.14.35,10.44,7.68,10.83,13.77.56,8.67-7,4.85-10.94,4.9C1993.13,1106.7,1967,1106.54,1939.21,1106.54Z"/><path class="cls-1" d="M1301.19,1987.8c0-7.46-.16-14.93.06-22.39.17-6,4.79-8.83,9.51-10,5.16-1.32,10.33-1.2,14.22,4.54,13.08,19.31,12.31,40.45,7.94,61.66-1.55,7.55-9.91,9.79-17,9.63-6.22-.13-10.22-4-12.21-10.9C1300.64,2009.53,1301.24,1998.66,1301.19,1987.8Zm8.73-4.67c.23,3.38.12,5.9.61,8.31,1.62,7.85-.42,21.55,8.2,21.19,9.7-.4,5.14-13.53,6.06-21.29a19,19,0,0,0-.3-7.37c-2-6.73-1-18.14-9.7-17.46C1306.55,1967.15,1311.63,1977.93,1309.92,1983.13Z"/><path class="cls-1" d="M1473.45,1906.37c3.9.47,6.9.62,9.8,1.21,20.23,4.14,25.26,15,13.37,31.58-6.17,8.61-8.73,16-3.42,25.73,1.5,2.73,5.6,7.32-.44,9.74-4.63,1.86-10.36,2.91-12.92-3.18-7.67-18.26-16.57-36.26-21.75-55.24C1454.43,1902.78,1468.87,1910,1473.45,1906.37Zm16.17,17.21c.6-6.76-3.33-9.19-8.93-8.72-3.57.3-10.55-2.64-9.5,4.83.93,6.65,3.35,15.59,10.06,16.82C1489.16,1938,1486.8,1928.07,1489.62,1923.58Z"/><path class="cls-1" d="M1512,1881.78c21.09,17.49,35.3,34.91,50.85,51,2.72,2.81,5.9,5.79,1.38,10-3.87,3.64-7,2.66-10.3-.54-2.16-2.08-4.47-4-6.67-6-5.67-5.22-12.21-4.2-18.28-1.63-5.75,2.44-4.6,8.2-4.3,13.14.26,4.2,3,10.31-3.85,10.53-5.92.19-5.39-6-5.61-10.41C1514.15,1927.19,1513.16,1906.53,1512,1881.78Zm11.66,25.53c1.6,7.22-1.41,13.22,5,15.8,1.42.56,5.8-1.91,5.93-3.26C1535.12,1914.23,1530.23,1912.16,1523.62,1907.31Z"/><path class="cls-1" d="M1252.84,1997.42c0-7.45-.48-15,.17-22.34.43-5-2.46-12.42,4.13-14.49a21.87,21.87,0,0,1,22.18,5.08c11.27,10.66,9.06,38-4.85,44.65-8.78,4.2-14.24,7.78-11.79,18.24.65,2.79.28,6.29-3.83,6.69-4.61.45-6.08-2.71-6.13-6.52-.13-10.44,0-20.87,0-31.31Zm9.87-11.57c1.85,4.57-3.86,13.49,5.81,13.61,7.37.09,8-7.4,8.3-13.42s-1.69-11.36-8.42-11.51C1260.21,1974.35,1263.9,1981.46,1262.71,1985.85Z"/><path class="cls-1" d="M982.9,1920.17c6.35,1.69,9.76,4,6.84,10.75-4.33,10.06-7.6,20.58-12.14,30.53-4.11,9-3.24,14.59,7,18.17,5.39,1.89,13.9,3.59,9.4,13.23-4.33,9.25-11,6.13-17.56,3.07-4.06-1.9-8-4-12.14-5.76-7.21-3.13-9.25-7.2-5.65-15.15,7-15.41,12.66-31.4,19-47.09C978.89,1924.91,979.55,1921.2,982.9,1920.17Z"/><path class="cls-1" d="M1231.09,1973.3c-3.44-2-5.84-.19-7.37,2.58-1.74,3.16.62,5.68,2.25,8.11,5,7.39,12.23,13.34,14.14,22.65s-.38,17.44-10,20.69c-9.18,3.12-17.82,1.62-23.16-8-1.69-3.07-4.08-6.1-.56-9.32,3.08-2.84,5.29-.3,7.66,1.51,3.27,2.47,7.46,4.79,10.76,1.72,4-3.74,1.26-8.26-1.09-12.2-3.83-6.43-8.2-12.62-11.32-19.39s-2.54-14,3.85-19c5.69-4.42,12.1-4,18.06.07,2.94,2,5.91,4.85,5.05,8.43C1238.29,1975.75,1234.6,1975.34,1231.09,1973.3Z"/><path class="cls-1" d="M950.16,1975.63c-16.52,5.15-27.24-2.9-38-10.46-1.35-1-3.4-2.44-1.94-4.93,1.1-1.89,2.88-3.5,4.81-2.57,10.22,5,12.43-3.7,14.81-9.49,4.76-11.54,16.24-22.41,3.38-36.5-3.72-4.08,1.78-8.33,7-6.88,6.2,1.72,12,4.75,18,7.4,3.64,1.63,8,3.32,6.69,8.47s-5.66,2.54-8.73,2.41c-4.33-.18-6.24,2.38-7.84,5.69-2.17,4.5-4.28,9-6.58,13.47C935,1955,929,1967.55,950.16,1975.63Z"/><path class="cls-1" d="M1396,1951.88c-4.4-.26-12.58,9.2-14.68-1.53-1.85-9.47,10.09-6.76,15.33-10.33a24.87,24.87,0,0,1,9.87-3.42c5.6-.91,12-8.32,16.41-2.46,5.6,7.43-5.29,7-8.06,10.78-3.08,4.17-1.14,7.65,0,11.28,3.39,11,6.72,22,10.73,32.76,2,5.38,3.1,10.42-3.28,12.26-6.72,1.93-6.4-5.14-7.69-8.75-3.85-10.8-6.92-21.87-10.31-32.83C1403.19,1955.89,1402.73,1951.46,1396,1951.88Z"/></svg>