<svg id="Layer_1" data-name="Layer 1" xmlns="http://www.w3.org/2000/svg" viewBox="0 0 3375.81 2328.89"><defs><style>.cls-1{fill:#a62b2a;}</style></defs><path class="cls-1" d="M722.84,1421.93c-6,0-7.75-4.7-9.39-9.33-7.64-5.11-15.4-10-22.89-15.37-48.27-34.36-98.15-65-160.86-59.56-37.51,3.29-69.74,17.44-96.1,55.24,21.9,0,37.19-.41,52.46.07,92.13,2.88,172.62,34,241.56,96.26,75.34,68.09,133.56,148.81,181,237.77,10.23,19.19,23.66,34.61,45.11,30.88,50.73-8.81,100.87-2.36,151.1,1.51,20.69,1.59,28.25-7.45,29.65-25.43,6.58-84.17,38.46-159.77,77.85-233,36.61-68.09,44.13-70.71,114.46-38.08a333.72,333.72,0,0,1,70.43,44.63c5.55,4.52,10.18,10.51,18.47,9.74-9.78-31.34-25-59.93-43.68-86.8-29.92-4.2-56.62-18.09-82.19-32.17-25.79-14.2,1.19-30.12,1.51-47.16,27.71,14.85,38.18,45.75,66.24,55.83-8.55-37.21-30.3-68.44-47.54-101.48-18.68-35.79-31.1-75.25-58.85-106-.82,2.93-3.12,6.41-2.25,8.7,21.72,57.21-4.59,104.55-31.67,151.17-56.09,96.57-95.39,198.3-102.34,311.12-.8,12.9.61,28.73-13.57,43.37-10.86-91.25,12.15-172.33,44.8-251.24,18.1-43.75,41-85.43,61.81-128,27.12-55.47,18-116.86,12.68-176.43-.76-8.61-8.34-17.53,2-25.18-10.82-21.51-20.81-43.49-35.78-62.62-13.46,23.59-7.13,50.09-9.44,75-8.58,92.38-42.16,178-67.2,266-25.55,89.73-39.64,180.85-37.4,274.3a102.52,102.52,0,0,1-1.24,18.44c-.62,3.82-2.76,7.39-9.7,11.08,0-16.21-.15-32.42,0-48.62.18-16.51-.26-33.1,1.2-49.51,15.78-177.32,33.55-354.44,55-531.18.75-6.22.6-14.57,6.52-16.45,24.55-7.8,25.17-32.71,37.16-49.37,3.59-8.07-10.27-15.52-.86-23.8q.09-83.72.19-167.44h0a149.18,149.18,0,0,0,67.42,13.88l143.65,153.51c15.48,12,33.31,3.76,50,5.59,5.25.58,10.37-2.21,10.76-8.3.55-8.31-6.22-9.18-12.25-10.35-22-13.8-40.38-31.71-58.17-50.47-39.75-41.91-79.94-83.41-120-125.08-.83-24.55-17-41.29-30.65-59.1-20.05-26.13-39.63-52.75-61.33-77.48C1111.8,626.78,1085,573.3,1042,532.58c-23.88-22.61-65.87-36.24-73.69-22.86-15.73,26.88-2.41,51.5,13.41,74,35.54,50.52,71.49,100.75,107.27,151.1,9.71,62-3.39,123.2-6,184.79-2.22,52-18.44,106.84,16.56,155.88,7.12,10,6.24,23.65,3.44,36.23-10.73,48.27-20.24,96.62-25.76,146-13.64,121.9-31.71,243.36-34.19,366.28-.52,25.6-.07,51.22-.07,79.23-12.79-4.9-11.51-10.82-12-15.51-7.07-61.42-10.14-123.59-21.66-184.16-25.49-134.08-34-269.86-46.93-405.24-7.09-74.33-22-146.86-51.88-215.66-8.71-20-19.93-38.7-38.11-51.89-7.91-5.74-14.86-8-16.32,6.06-1,9.17-4.49,18.1-5.15,27.27-5.27,72.56-1.19,144.87,16.35,215.31,28.65,115,60.7,229.1,90.73,343.74,5.38,20.52,12.19,41.22,8.78,68.15-3-8.12-4.61-11.7-5.74-15.4-30.4-99.67-62.73-198.73-99.65-296.16-17.93-47.3-39-93.17-28.52-146,1.69-8.53-1.48-18.48-4-27.3-23.43-81.26-49.67-161.82-69.62-243.91-7.46-30.67-37.11-33.55-49.59-55.6-3-5.22-8.9,1.89-10.53,6.53-9.42,26.81-18.47,51.65-11.68,83.06,17.69,81.87,43.93,161.21,65.33,241.93,5.11,19.26,13.74,36.56,36.39,42.08,16.06,3.91,20.86,18.36,25.88,32.23,49.49,136.72,103.55,271.94,139.24,413.26,11.62,46,24.91,91.88,26.87,145.72-27.4-54.28-50.86-103.49-76.69-151.42-76.58-142.09-172.28-272.13-258.66-408.06-8-12.6-15.23-24.74-12.66-40.16,3.8-22.81-4.07-42.61-14.77-62-33.44-60.58-67.5-120.83-99.64-182.09-18.43-35.12-34.57-71-80.58-75.83C421.82,795.33,420.92,804,433.83,832,459.33,887.34,485.1,942.5,515,995.75c17.11,30.48,29.16,59.67,28,99.67-3,107,38.47,198,127.27,264.24,17.74,13.23,35.41,28.61,46.2,49.34,4.37,1.94,9.47,3.33,9.52,9.36C726,1419.6,724,1421.93,722.84,1421.93Zm215.53,221,3.63,4.82C936.93,1648.71,938.52,1645.22,938.37,1642.9Zm-1.36-2.68-3.78-6.07C939.39,1633.43,937,1637.52,937,1640.22Zm-7.87-20.88-1,1.79-.46-2Zm-67.65-20c-28.15-37.64-56.67-75-84.12-113.14-11.6-16.1-29.12-27.84-38.24-49,31.37,12.12,103.18,106,124.67,160.26,11.33,9.87,16.94,22.44,17.76,37.25C869.44,1626.06,864.72,1613.14,861.49,1599.37ZM883,1637.44a6,6,0,0,1-.7-1.46l2.3,2C884,1637.85,883.25,1637.82,883,1637.44Zm8.39,13.43c.57.19,1.36.22,1.66.62a6.53,6.53,0,0,1,.77,1.62Zm24.25,40.53q-1.11-2.75-2.23-5.49a30.79,30.79,0,0,1,2.83,3.35C916.49,1689.65,915.84,1690.67,915.62,1691.4Zm4.66-84.78a6.13,6.13,0,0,1-.76-1.66l2.54,2.22C921.45,1607,920.57,1607,920.28,1606.62Zm-1.75-3.67-3.94-6.14C921,1596,918.58,1600.14,918.53,1603Zm-8.06-20.85-1,1.71-.47-1.91Zm-4,90c-10.11-1.83-11-9.9-12-17.84C900.77,1658.67,904.33,1664.91,906.48,1672.1Zm-5-102.88a5.65,5.65,0,0,1-.59-1.5l2.2,2.18C902.51,1569.69,901.71,1569.63,901.45,1569.22Zm-1.28-2.72c-4.48-2.58-5.67-6.79-5.71-11.56C899.84,1557.05,899.75,1561.9,900.17,1566.5Zm-7-14.47a5.56,5.56,0,0,1,.6,1.72l-2.45-2.41C892,1551.56,892.93,1551.59,893.21,1552Zm-7.32-13.45-1,1.75-.51-1.94Zm-9-13.2-.87-7.18,4.28,5.59Zm-1.49-8.29c-3.67-.15-5.23-2.5-5.81-5.85C873.38,1511.32,874.66,1513.91,875.35,1517.09Zm-6.08-6.23c-9.88-5.24-13.27-13.7-12.18-24.41C867.1,1491.63,870,1500.34,869.27,1510.86ZM563.88,1081.44q.55,3.55,1.13,7.11c-1.45-1.78-2.89-3.57-4.33-5.35Zm73.46,132.14a350.94,350.94,0,0,1-71.85-124.26c33.32,7.19,55.17,26.42,74.79,55.5q97.77,144.95,192.34,292c9.86,15.39,20.74,30.68,24.23,49.37-7.25,0-10.41-5.36-13.48-10.69C787.31,1378.23,711.44,1296.66,637.34,1213.58Z"/><path class="cls-1" d="M2225.25,1027.23c3.87,4.2,3.16,14.08,2.25,21-12.52,96-27.9,191.78-37.63,288.1-10.66,105.6-26.16,211-23.07,317.67h0l0,.07c-11.68-14.48-14.45-31.71-13.27-49.33,1.19-17.84-2.62-34.68-6-51.88-20.77-106-35.79-212.75-42.93-320.61-2.21-33.4-3.64-67.06-12.41-99.72-23.94,34.38-40.86,72.33-56.48,110.94,14.41,36.18,24.83,73.45,27.54,113.11-6.91-21-12.67-42.5-21.28-62.78-3.75-8.81-.16-24.72-17.29-24.77-11.87,7.13-13.68,20.32-19,31.41,19.49,7.76,21.41,27.41,25.86,43.13,23.78,83.86,45.78,168.23,68.27,252.46,1,3.59.66,7.52,1.17,14.37-14.21-6.37-16.52-18.07-21.44-27.3-27.6-51.69-54.35-103.85-82.71-155.12-6.07-11-11.85-24.28-26.08-28.78-4.84,14.94,6.12,25.27,11.94,36.33,44.08,83.77,81.73,170.12,109.79,260.65,6.3,20.33,10.57,41.81,23.8,59.49.61,23-12,41.69-18,63-23.2-12.65-2.75-32.74-11.62-46.78-15.75-66.57-46.7-127.59-70-191.41-6-13.72-4.57-31.5-21.6-39.1-8.81-40.2-31.82-73.85-49.2-115.71-11,17.53-20.74,28.88-21.8,44.83q29.63,42,59.22,84h0q.8,5.61,1.6,11.23c.54,14.75,2.77,29.6,1.1,44.24,1.67-14.64-.56-29.48-1.1-44.24-33.42-19.76-43.07-57.09-63.78-86.24-21.71,20.92-28.5,40.51-3.67,66.25,23.93,24.8,43.09,54.21,64.35,81.59,12.54,43.36,29.47,84.82,53.25,123.34,7.46,12.08,17,23.51,13.67,39.37l25.56,53.4-6.46,4.68c-53.86-89.57-153.4-134.63-207.27-224.46-3.47,35.23,9.91,62.22,30.65,86.37,24.56,28.58,56,48.66,86.22,70.29,34.73,24.88,66.1,52.25,84.63,92.49,10,21.67,17.19,52.52,46.93,51.35,28.28-1.12,35.83-30.88,46.65-52.73,35.4-71.51,72.56-141.52,136.7-192.86,11.83-9.47,21.53-22.49,29.71-35.45,24.4-38.65,38.15-80,28.16-130-17.17,17.53-23.12,36.2-30.8,54.12-10.9,25.45-20.76,52-47.16,66.58,11-46.34,26.49-91,49.05-133.07,16.63-31,16.48-31.12,34.57-2.55,30.81,48.62,51.18,101.5,57.75,158.5,2.73,23.67,12.72,29.19,33.73,28.71,39.22-.91,78.51-1.22,117.7.29,22,.85,33-8.63,42.73-27.37,35.14-67.63,74.47-132,132-184.35,62.31-56.66,130.82-92.54,217.47-83.75,4.93.5,11.58,3,13.12-3.36,1-3.94-2.06-9.74-4.88-13.52-9-12-22.14-18.71-36-22.82-52.27-15.49-99-2-142.5,28.2-14.91,10.34-23.16,29.29-43,33,18.84-33.74,48.79-57.68,75.39-84.45,49.29-49.61,65.12-110.41,62.7-178-.38-10.64-2.65-16-14.07-10.32l-.21-.21c-.87-11.35,6.8-19.1,12-27.82,29.47-49.83,56.93-100.55,78.46-154.53,11.6-29.1,18.45-56.67-.34-85.95-10.29,8.24-26.28,7.25-35.27,20-48.64,68.79-79.36,146.9-115.64,222.12-.86,1.79-1.58,4.35-.95,6,11.76,31.69-10.64,51.79-25.13,74.53-15,23.51-30.76,46.53-45,70.47-63.8,107.25-135.11,210.43-178.73,328.66-1.59,4.31-3.48,10-10.7,7.22-2.93-9.34.1-18.18,1.93-27.28,25.49-126.64,62.24-250.12,104.87-371.91,8.6-24.59,12.4-52.7,43.73-62.49,8.91-2.79,11.74-14.41,14-23.25,17.27-67.92,37.88-135,49.46-204.35,3.72-22.34-1.15-43.13-8.5-63.63-2.16-6-6.08-16.75-14.64-6.44-14.14,17-35.16,27.58-40.67,52.82-11.81,54.05-26.71,107.41-40.18,161.1-15.6,62.18-8.85,128-35.34,189-20,46.12-31.07,96.1-46.68,144.19-1.92,5.91-1.65,14.81-13,16.32,1.81-9.44,3.12-18.38,5.25-27.13,18.5-76.14,37.66-152.12,55.61-228.39,15.21-64.63,25.75-129.63,4.07-195.16-2.08-6.31,1-15.9-9.39-16.9-7.25-.7-10,6.42-13.95,10.89-27.27,30.59-37.16,69.2-45.09,107.31-23.21,111.56-18.16,226-31,338.62-9,78.93-18.94,157.75-29.29,243.45-9.42-86.49-16.07-166.49-27.58-245.79-6.59-45.37-19.3-90-18.27-136.23.71-31.89,9.52-64.49,5.1-95.39-7.25-50.6-1-101.21-6.5-151.32-7.22-65.52,7.55-138.61-56.13-182.81-29.06,22.66-32.24,55.31-28.78,90.56,5,51.32,7.52,102.91,13.58,154.1,3,25.13,6.21,51.91,29.31,69.29a16.27,16.27,0,0,1,6.39,16.46c-5.05,28.9-10.17,57.9-36.58,88.7,2.43-88.47-37.55-157.48-58.68-232.63-10.45,45.73-16.84,91-23.07,136.33-2.25,16.38-3.12,33.53-17.64,44.66-21.27,16.29-29.79,40-24.15,63.21,8.56,35.3-4.59,65.09-15.19,95.77-20.61,59.62-24.61,122.75-40,183.48-3.37-54,4.61-107.06,10.62-160.28q19.08-169,37.41-338c.85-7.78,2.46-13.31,10.68-16.68,19.93-8.17,23.73-25.69,26.78-45.09,10.93-69.5,10.07-139.89,17.38-209.65,5.74-54.78,2.16-107.8-38.65-153.34-7.09,16.57-19.42,28.11-31,40.65-12,12.93-9.89,32.91-11.27,50.46-5.44,68.87-13,137.64-16.23,206.61C2203.24,949.19,2192.72,992,2225.25,1027.23ZM1985.1,1615.85c.25-1.28.46-2.55.64-3.83C1985.56,1613.3,1985.35,1614.57,1985.1,1615.85Zm655.47-64,1-1.83.56,2Zm53.67-78.07c6.36-28.64,23.94-48.3,49.33-61.71C2732.54,1436.93,2713.52,1455.43,2694.24,1473.74Zm125.85-304.56c8.25-12.92,24.27-12.55,38.82-18.32-28.51,94-105.21,150-157,224l-7.85-5.2C2736,1302.79,2777.64,1235.73,2820.09,1169.18Zm-131.87,217.6,2.22-4.59C2693.9,1386.13,2691.07,1386.46,2688.22,1386.78Zm-.39.43c.62,5.23-.47,9.59-5.88,11.78C2681.64,1394,2682.27,1389.39,2687.83,1387.21Zm-6.54,12.53c-.63,1.33-1.25,2.67-1.88,4C2676.17,1400,2679.1,1400.1,2681.29,1399.74Zm-11.51,17.9c.59-1.3,1.19-2.6,1.79-3.9C2674.75,1417.34,2671.82,1417.22,2669.78,1417.64Zm-.68.79c.09,4.87-.4,9.44-5.77,11.6C2663.14,1425.11,2664.07,1420.75,2669.1,1418.43Zm-6.43,12.82a6.08,6.08,0,0,1-.68,1.77c-.29.44-1.24.45-1.89.65Zm-8.17,14.24-1,1.72-.42-1.93Zm39.58,28.47c-10,25-29.26,43.66-45.37,64.48C2660.63,1514.78,2666.58,1487.07,2694.08,1474Zm-46-16.49-.24,1.92-1.42-1.15Zm-5.68,6.77c-2.51,17.72-6.61,27.21-16.35,34C2625.46,1486.67,2631,1477.78,2642.43,1464.24Zm-17,35.25a5.6,5.6,0,0,1-.64,1.76c-.28.44-1.22.46-1.86.66ZM2613.87,1523q.74-4,1.45-8C2621.17,1519.17,2616.46,1520.82,2613.87,1523Zm-.59,1c-.56,4.54-1.3,9-5.79,11.55C2607.68,1530.77,2607.84,1526,2613.28,1524Zm-8.16,13a4.66,4.66,0,0,1,1.49-.6l-2,2.31C2604.76,1538,2604.74,1537.19,2605.12,1536.91Zm-171.2-245.61c26,89.69,21.15,183.21,36.47,274.34-13.75-69.49-25.9-139.27-54.55-204.89C2404,1333.67,2423.17,1314,2433.92,1291.3Zm9,343.61c-19.13-76.29-33.85-153.72-69.53-225C2420.76,1477.66,2436.86,1554.87,2443,1634.91Zm-301.31,199.86c-8.82,21.38-17.65,42.76-27.63,66.94-13.43-29.71-2.7-68,21.16-86.29,1.86,6.55-.75,14.59,6.47,19.35,10-19.2,21.21-37.78,32.4-56.35C2162.86,1797,2151.7,1815.57,2141.65,1834.77Zm120.32-186c.5-.43,1-.88,1.46-1.35C2263,1647.86,2262.47,1648.31,2262,1648.74Zm1.49-1.38,0,0Zm2.76-3.16c.28-.37.55-.74.82-1.12s.7-1,1-1.53c-.33.52-.68,1-1,1.53S2266.5,1643.83,2266.22,1644.2Zm-1.64,2c.26-.29.52-.59.77-.9C2265.1,1645.59,2264.84,1645.89,2264.58,1646.18Zm7.07-214.8c6.29-11.53,10.52-24.19,17.31-40.13,15,22.26,3.63,37.69-3.49,53.45-30.1,66.64-44,136.45-41.14,209.56h0c-2.34,14.85-8.45,27.4-21.75,35.54h0l-2.19-30.92c8.76-40.4,27-79.33,18.81-122.33h0C2254.77,1503,2253.66,1464.32,2271.65,1431.38ZM2232,1536.46c-12.75,1.49-15.66,12.63-19.45,23.35C2216.3,1549.08,2219.21,1537.94,2232,1536.46ZM2212,1561.15c-.32.89-.65,1.77-1,2.64C2211.38,1562.92,2211.71,1562,2212,1561.15Z"/><path class="cls-1" d="M3078.56,2012.65c-7.24,0-14.47-.12-21.71-.12q-1360.45,0-2720.92,0c-8.27,0-16.55.13-24.81.49-7.19.31-11.2,3.88-11.51,11.53-.36,8.9,3.3,13.67,12.43,13.72q10.86.06,21.71.07H3054.67c8.28,0,16.55-.16,24.82-.15,8.91,0,13-4,12.9-13.23C3092.27,2015.21,3086.78,2012.68,3078.56,2012.65Z"/><path class="cls-1" d="M1419,1520.88c.52,2.85,0,6.69,1.7,8.41,50.92,52.2,90.5,112.55,126.25,175.59,7.64,13.46,18.24,18,33.16,17.52,32-1,64.08-1.37,96.12-1.05,51.56.51,51.44.83,56-51.36.7-8.14,3.31-16.1,4.66-24.2,7.51-44.76,38.36-79.75,51.07-122.31a176.94,176.94,0,0,0-55.41-.37c-9.47,51.33-25.15,101.3-32.51,153.17-4.76-52.21,11.69-101.3,20.64-151.45-20.86-6-41.91-3.8-63-1.35-2.52,45.15-5,90.3-7.89,141.08-14.12-49.71-16.46-95.74-23.19-141-16.4-3.37-32.82-2.93-49.26-.39l18.33,95.4c-22.61-29.48-41.59-60.18-50.75-95.87Zm177.9,114.76c.26-3.13,2-3.71,3-1.31.68,1.72.13,3.93.13,5.91-.55.38-1.17.76-1.79,1.13C1597.77,1639.46,1596.77,1637.5,1596.92,1635.64Z"/><path class="cls-1" d="M1393.19,448.5c35,78,70.66,155.84,113,230.18,13.54,23.77,30,47.19,58.6,56.67a23.82,23.82,0,0,0,3.07-1,23.82,23.82,0,0,1-3.07,1c9.47,16.42,18.86,32.89,28.31,49.32l1.6,2.79,30.47,53.23,9.59,16.74h45.94l-3.76-6.56-28.74-50.21,0,0c-15.43-28-31.08-55.83-46.59-83.77-5.91.14-10.71,2.47-15.18,5.47,4.47-3,9.27-5.33,15.18-5.47-2-18.19,1.66-37.19-8.59-54.19-48-79.58-78.7-168.14-128-247.08-7.07-11.32-12-24.09-20-34.69-12.42-16.56-33.51-18.35-50-15.77-15.21,2.37-8.68,22.8-10.84,35.27C1381.3,417.16,1386.55,433.71,1393.19,448.5Z"/><path class="cls-1" d="M2079.22,996.51c-8.49-32.76-16.91-65.54-25.49-98.29-13.1-50-36.27-94.66-70.34-135.8-10,23.67-14.93,45.28-16.35,68.26-3.44,55.66,2.92,110.73,7.7,165.94Z"/><path class="cls-1" d="M1827.83,855.67l89.2-1.15c-5.46-44.21-24-85.19-32.91-128.17-8.2-39.4-34-60.2-59.17-81.33-42,48.61-20.66,99.44-8.78,150.1C1820.86,815.12,1824,835.48,1827.83,855.67Z"/><path class="cls-1" d="M1955.12,996.49c-8.79-30.12-11.16-62.27-28.47-89.69-10.87,4.73-11.79,16.14-16,25C1878.12,999.79,1878.27,999.86,1955.12,996.49Z"/><path class="cls-1" d="M1892,1479.61c17.36-31.7,32.23-64.51,48.36-96.75,56.34-112.57,113.56-224.69,170.7-336.86,11.1-21.78,8.06-31.87-19.19-31.48-69.22,1-138.47-.2-207.69.61-21.87.26-31.69-2.56-18.27-26.61,9.42-16.9,14.78-36.07,21.95-54.23,7.08-12.45,13.8-25.13,21.34-37.3,13-21.07,4.72-25.53-16.72-25.43-150.66.73-301.32.68-452,.87h-12.54c-8.52.65-19.51-4.73-24,6.8-3.34,8.59.34,15.9,10,18.89,2.36,3,4.74,6,7.11,9.06-4.35,3.32-4.29,6.59.14,9.77a7.53,7.53,0,0,0,0,4.41c8.4,24.06,15.59,48.67,31.29,69.44-4.61,7.51,13.11,20.43-5.93,24.43l-49.46.13h-12.62c-52.61-.22-105.21-.52-157.82-.63-38.41-.09-38.41,0-21.19,36.62,6.38,11.77,13,23.4,19.08,35.32,65.85,129.56,132,259,197,388.94,10.67,21.34,23.77,29.76,48,29.54,126.06-1.1,252.13-.91,378.19-.12C1868.85,1505.17,1881.49,1498.74,1892,1479.61ZM1508.72,1315.7c-8,21.29-24.42,34.64-47,33.22-24.68-1.56-45.09-15.63-57-37.1-6.67-12.08-2.58-24.85,16.13-23.8h0c2.4,26.41,22.81,34.7,43.22,34.91,22.8.24,29.42-20.77,30.91-39.62,2.32-29.22-7.43-55.49-30.93-73.74-16.29-12.64-34.17-17.15-43.67,9.37-9.65.59-20.24.69-20.83-12-.45-9.41,5.31-17.36,13.85-22.6,25.51-15.64,62.17-7.62,81,22.29C1515.52,1239.89,1523.29,1277,1508.72,1315.7Zm245,10c-3.08,10.42-7,19.33-20.76,18.17-12.8-1.07-17.41-8.17-19.14-20-6.69-45.87-32.58-83.71-51.88-126.89-21.2,43.24-40.36,84-52.77,127.59-2.75,9.67-6.33,18.46-17.89,17.61-11-.8-19.09-5.78-20.77-18.72-6.55-50.42-28-96.88-39.54-146a150.54,150.54,0,0,1-4-27.36c-.57-12.4-1.54-28,15.45-28.55,16.52-.49,21.86,13.17,21.54,28.17-.93,42.92,17.88,80.88,29,128.53,22.43-46.52,40.75-86.29,50-129.73,2.32-10.93,2.46-23.3,19.2-22.6,17.08.7,18.75,11.94,20.3,25.3,5.38,46.53,36.69,82.37,53.73,131.57,14.68-52.59,48.67-92,46.49-144.26-.53-12.77,7.27-22.73,20.35-22.93,15.51-.23,16,12.63,16.69,24.5,1.71,28.19-12,52.12-22,76.67C1783,1253,1764.89,1287.94,1753.74,1325.67Zm64.52-56c-2.48-24.09,7.76-50.4,27.25-73.24,18.44-21.61,50.9-27.22,72.77-13.94,12.84,7.8,17.79,20,9.57,31.06-9.36,12.55-14.1-2.89-20.65-7.49-15.12-10.63-29.88-5.82-42.76,3.94-22.85,17.32-33.19,62-22,87.62,7.19,16.39,18.87,23.22,36.69,21.44,12.72-1.28,20.5-8.38,26.77-18.43,5-8,11.11-18.06,21.2-9.06,8.33,7.42,3,17.37-3.59,24.58-18.7,20.52-39.5,37-69.79,27.62C1819.7,1333.18,1818.83,1304.63,1818.26,1269.67Z"/><path class="cls-1" d="M1167.48,929.41v66.73l63.41-2.7C1230.8,952.37,1201,941,1167.48,929.41Z"/><path class="cls-1" d="M740.79,2319.2c-11.95-2.6-15.78-6.3-15.83-18q-.27-48.74.23-97.5c0-7.75,1.92-14.87,11.22-17.06,2.42-.54,5.11-1.78,4.2-5.06-.82-2.83-3.47-3.33-6.12-3.2-7.16.37-14.32,1.33-21.48,1.19-10.27-.18-20.67-2.42-30.8-1.5-.68,0-1.41.13-2.1.18v8.3a73.65,73.65,0,0,1,11.46,1.28c6.15,1,9.76,4.29,9.85,10.45.32,35.26.78,70.52-1.23,105.79-.41,7.75-2.88,13.78-11,16.51-2.47.83-4.79,2.47-3.7,5.48,1,2.78,3.88,3.1,6.39,2.6,15.88-3,31.75-1.51,47.63,0,3.65.37,8.53.46,8.9-4.42C748.78,2319.88,744,2319.88,740.79,2319.2Z"/><path class="cls-1" d="M690.73,2130.22v-11.3a483.58,483.58,0,0,1-69.65,1.31c-4.85-.32-11.61-2.86-12.29,4.53-.57,5.77,5.89,6,10.36,7,19.62,4.1,23.59,9.81,18.07,29.18-10.68,37.31-26.45,72.82-41.66,108.52-1.12,2.55-1.67,6.21-5.4,6.27s-4.4-3.6-5.4-6.15q-24.3-60.43-48.43-120.93c-3.34-8.38-2-14.78,7.52-18.07,3.84-1.3,9.37-2.42,7-8.26-1.86-4.65-7-4.4-11.18-3.72-17.75,3-35.56,2.73-53.38.87-3.91-.44-8.32-1.12-9.5,3.66s3.29,6.52,6.76,7.7c9.31,3.1,14.47,10,18.14,18.38,6.39,14.71,12.53,29.49,18.93,44.2a27.16,27.16,0,0,1-.25,23.22q-11.93,25.89-24,51.65c-1.18,2.61-2.05,6.46-5.28,6.64-4.35.19-4.59-4.34-5.71-7.32-14.84-37.62-29.8-75.25-44.26-113.05-6.09-16-5.35-16.83,10.42-24.84,3.17-1.61,6.65-3.1,5.35-7.26-1.25-3.91-5-4.1-8.58-3.35a135.18,135.18,0,0,1-58.16-.13c-3.54-.8-7.14.19-8.7,3.73-1.74,4,1.25,6.58,4.53,7.7,12.24,4.22,17.14,14.34,21.42,25.14,20.68,51.65,41.16,103.43,62.21,155,2.8,6.83,2.36,18.62,12.17,18.37,8.38-.18,8.94-11.23,11.61-18,11.36-28.06,23.4-55.88,38.55-86.3,4.72,9.69,8.26,16.33,11.24,23.16,10.36,24,20.48,48.11,30.85,72.14,1.62,3.73,3.1,8.57,8.38,8.2,4.47-.32,5.59-4.72,7.33-8a36.06,36.06,0,0,0,1.93-4.66c20.29-53.2,43.94-105,66.3-157.38C667,2137.17,674.28,2130,690.73,2130.22Z"/><path class="cls-1" d="M1198.27,2314.25c-9.32,3.55-14-2.25-18.21-8.76-10.33-15.86-20.42-31.87-30.93-47.62-2.56-3.84-1.49-5.2,2.15-6.78,15.7-6.84,22.4-19.63,21.51-35.76-1-18.21-12-30.21-30.39-35.89-11.27-3.49-22.81-3.82-34.35-2.57-15,1.61-30,1.52-44.94.94-3.64-.15-8.57-1.68-9.22,3.42s4.48,4.78,8,5.51c12.25,2.53,15.14,5.61,15.39,18.2.32,15.78.08,31.57.08,47.35h-.47c0,15.78.09,31.56,0,47.35-.07,8.38-1.75,16.08-10.69,20-2.06.9-4,2.51-3.3,5,.8,3,3.6,3.32,6.11,2.86,15.55-2.82,31.06-2.43,46.61.06,3,.48,7.06.89,7.86-3s-3.06-4.55-6.1-5.46c-13.39-4-16.32-7.73-16.74-21.86-.28-9-.22-17.95-.22-26.93,0-12.53,3.58-15.25,16-12.57,6,1.29,10,4.91,13,9.88,5.24,8.79,10.39,17.63,15.55,26.47,5.48,9.37,10.42,19.12,18.3,26.85,10.61,10.39,27.16,10.68,37.33.78,1.56-1.52,3.3-3.1,2.4-5.58C1202.14,2313.89,1200,2313.57,1198.27,2314.25Zm-64.75-68.15c-8.64,1.65-17.42,1.12-26.16.66-4.64-.25-6.61-3-6.67-7.34-.07-5.56,0-11.13,0-16.7a135.89,135.89,0,0,1,1.45-25.88c.66-4.44,2.32-7.44,7.1-8.51,12.08-2.71,26.32,2.12,33.28,12.32,7.85,11.51,9.45,24,3.8,37C1144,2242.93,1138.83,2245.1,1133.52,2246.1Z"/><path class="cls-1" d="M911.76,2177.09a153.78,153.78,0,0,1-41.11-.35c-3.56-.47-8.65-1.34-9.5,3.35-1,5.42,4.77,5.07,8,5.51,11.35,1.55,17.1,7.86,18.47,18.85,3.35,26.83,1.68,53.71.89,80.58,0,.39-.85.76-1.31,1.15-2.53-.33-3.45-2.5-4.76-4.15-26.39-33.42-54.13-65.73-82-97.93-3.24-3.74-6.28-7.77-12.13-7.71-10,.11-20,0-30,0-2.87,0-6.09.27-6.65,3.74-.67,4.2,3,4.93,6,5.77,19.28,5.48,22.61,9.24,22.4,28.87-.26,25.37-.83,50.74-2,76.08-.53,11.58-.61,24.19-15.28,28.91a3.65,3.65,0,0,0-2.49,4.47,4.19,4.19,0,0,0,4.16,3.13,35.07,35.07,0,0,0,7.46-.24,131.73,131.73,0,0,1,38.29-.23c3.44.46,7.78,1.35,8.73-2.86,1.09-4.87-4-4.46-7-5.49a31.56,31.56,0,0,0-3.64-.85c-11.61-2.5-15.09-6.56-16-18.26a466.51,466.51,0,0,1-1.34-51.94c.35-10.36,1.21-20.7,2-32.88,3.6,3.33,5.9,5.27,8,7.41,30.83,31.73,57.63,66.84,86.2,100.46,2.5,2.94,4.74,7.76,9.48,6s3.34-6.81,3.4-10.68c.54-36.82,1.14-73.65,1.41-110.47.08-10,1.39-18.62,13.05-21.62,2.41-.62,4.73-2.32,4.07-5.39C917.65,2176.71,914.71,2176.69,911.76,2177.09Z"/><path class="cls-1" d="M1052.1,2286.21c-3.09-.82-4.3,2.06-5.14,4.35-4,11-13,16-23.23,20-11.1,4.27-22.58,4.27-34.19,4-8.12-.22-12.09-4.55-12.63-12-.55-7.7-.71-15.46-.55-23.19.57-28.42-4.83-25.61,28.25-25.05a20,20,0,0,1,2.79.33c8.25,1.31,13.8,5.33,15,14.11.43,3.26.73,7.78,5.51,6.93s3.25-5.39,3-8.54c-.84-12-3.23-23.94-1-36,.63-3.37,1-7.59-3.15-8.61-4.68-1.15-5.35,3.5-6.18,6.54-2.43,8.94-8.77,12.35-17.37,12.72-5.61.24-11.25,0-16.87.24-7.29.28-10.14-3.27-9.93-10.2.2-6.49,0-13,0-19.5,0-24.88,2.06-26.92,27.56-24.71,14.55,1.26,30.68,1,32.34,21.67.16,2,1.44,4.44,4.23,4.08,3.29-.42,3.47-3.22,3.42-5.7-.14-8-.4-16.09-.69-24.13-.24-6.46-4.07-8.59-10.06-7.79-17.13,2.29-34.35.53-46.28,1.1-19.62,0-34-.06-48.39,0-3.62,0-8.5-.69-9,4.32-.47,4.82,4.49,4.22,7.58,4.93,13,3,15.68,5.9,15.72,18.84.08,32.19,0,64.37-.1,96.56,0,7.85-1.56,14.86-10,18.13-2.71,1-5.55,2.36-4.79,5.86.94,4.34,4.77,3.6,7.65,3,14.24-2.88,28.63-2.29,43-1.93,10.91.28,21.8,1.71,32.72,1.83,18.65.2,35-17.53,33.81-35.91C1055,2289.91,1054.91,2287,1052.1,2286.21Z"/><path class="cls-1" d="M1337.21,2178.39c-13.4,2.5-26.74,1.46-40.12-.11-2.91-.34-7.24-1.13-7.88,2.89-.74,4.68,3.88,4.68,7.11,5.47,13.15,3.25,16.19,8.88,9.79,20.79-6.15,11.46-13.53,22.26-20.14,33.48-3.41,5.77-6.11,5.09-9.1-.2-7.63-13.49-15.34-26.95-23-40.43-3.82-6.71-3.43-11.76,5.36-13.78,2.75-.63,5.9-1.81,5.12-5.39-.64-3-3.74-3.12-6.23-2.84-16.19,1.83-32.35,2.63-48.56.05-2.47-.39-5.51-.1-6.22,2.83-.86,3.58,2.11,4.88,4.94,5.48,9.7,2.08,15.59,8.62,20.31,16.61,5.38,9.08,10,18.73,16.28,27.11,15.41,20.44,20.47,43,18,68.07-1.49,15.06-2,17-16.9,21.07-3.26.89-7.69,1.51-6.53,6.07,1,4.1,5.26,3.34,8.74,3.14,10.29-.57,20.58-1,30.88-1.5,0,.38,0,.76,0,1.13,9.06,0,18.13.08,27.19,0,2.81,0,6.14-.3,6.26-4.05.09-3.08-2.82-3.77-5.28-4.28-1.83-.38-3.73-.37-5.59-.61-10.56-1.35-14.94-5.73-15.38-16.33-.41-9.58.12-19.21-.4-28.77-.49-9.09,2.1-16.88,7-24.45,10.35-15.85,20.28-32,30.32-48,4-6.44,8.72-12.08,16.22-14.79,2.68-1,5.72-2.26,4.85-5.76S1339.87,2177.89,1337.21,2178.39Z"/><path class="cls-1" d="M1639.65,2305.53c-3.25,0-6.54.52-9.76.24-15-1.3-45.93-22.15-42.31-29.19,9.14-17.73,6.86-39.75,21.35-55,9-9.44,4.58-13.92-5.37-15.28-9-1.21-18.23-.25-27.36-.25,0-.45,0-.9,0-1.35-5.87,0-11.76-.28-17.61.07-6.72.41-16.59-3.19-18.28,6.16-1.72,9.53,8.42,9.72,15,11.53,15.85,4.37,19.38,16,17.9,30.07-1.1,10.43-5.84,14.26-14.92,5.61-25.87-24.64-52.68-48.42-73.22-77.95-4.45-6.39-8.86-12.93-9.61-21-.88-9.32-.53-18.65,8.92-23.87,8.48-4.68,16.52-1.26,23.83,3.59,11.56,7.66,16.51,19.56,20.77,32,1.52,4.43,4.47,8.4,10.09,7,4.25-1.07,6.16-4.83,6.17-8.91,0-11.62.14-23.27-.59-34.86-.35-5.6-3.93-10.22-10.43-8.63-7.65,1.86-14-1.13-20.85-3.23-46.24-14.19-80.27,14.84-70.74,61.36,2.64,12.9-6.1,13.82-12.94,17.62-40.6,22.55-46.41,66-13,98.59,30.18,29.42,83.24,38.08,124.13,18.45,13.3-6.39,23.73-6.5,36.5.35,21,11.26,43.3,14.19,65.85,3.82,5.71-2.63,14.07-5.08,12.68-12.8C1654,2299.74,1645.47,2305.6,1639.65,2305.53Zm-100.75-7.89c-1.53,6.23-9.19,6.09-14.7,7.24-4.39.93-9,.66-11.19.79-35.38-.44-67.25-23.37-78.28-54.32a46.42,46.42,0,0,1-2.2-22.78c1.33-9,7.09-15.08,15.39-18.41,9.21-3.7,12.7,4.39,17,9.4a818.71,818.71,0,0,0,64.56,66.91C1533.15,2289.82,1540.23,2292.24,1538.9,2297.64Z"/><path class="cls-1" d="M1820.53,2118.42c-22.34,2.44-44.79,4.87-67.38,3.74-11.48,0-23-.09-34.43.05-3.6.05-7,1.22-7,5.64,0,3.54,2.53,5.07,5.65,5.8,3.31.78,6.62,1.54,9.95,2.21,11.25,2.28,16.92,9.23,16.92,20.43,0,45.87,0,91.75-.36,137.62-.06,8.7-2.59,16.62-11.79,20.71-3.8,1.68-8.69,3.85-6.77,9.08,1.8,4.91,6.69,4,11.05,3.37,17.79-2.56,35.57-1.54,53.39.1,16.51,1.52,33.2,3,49.6,0,62.3-11.32,98.18-61.31,89.75-124.37C1922,2149.59,1873.79,2112.62,1820.53,2118.42Zm51.3,175.6c-20.78,18.87-45.53,23.35-72.47,18.79-12.32-2.08-19-9.56-21-22.09-3.76-23.93-1-47.95-2.28-71.46,1-22.32-.22-44.19,1.25-66.11,1-14.52,8.92-18.34,21.4-19.23,50.42-3.59,91.59,30.7,96,80.69C1897.35,2243.84,1895.83,2272.22,1871.83,2294Z"/><path class="cls-1" d="M2879.3,2314.25c-9.33,3.56-14-2.27-18.21-8.77-10.33-15.86-20.42-31.88-30.92-47.62-2.58-3.86-1.46-5.24,2.16-6.78,7.06-3,12.82-7.51,16.6-14.38,13.52-24.54-.65-52-30-58.59-19.39-4.38-38.62,1.33-57.94.35-6.24-.28-12.49-.53-18.72-.86-3.24-.17-6.92-.4-7.43,3.64s3.17,4.57,6.29,5.3c15.68,3.64,17.32,5.26,17.35,21.2.06,30.64-.26,61.28-.53,91.91-.08,8.38-1.77,16.08-10.72,19.95-2.06.89-3.95,2.52-3.28,5,.81,3,3.62,3.31,6.13,2.85,15.55-2.82,31.06-2.43,46.61.06,3,.48,7,.88,7.84-3s-3.08-4.55-6.12-5.45c-13.37-4-16.3-7.73-16.72-21.88-.27-9-.22-17.95-.22-26.92,0-12.52,3.59-15.25,16-12.56,6,1.29,10,4.92,12.95,9.89,5.25,8.79,10.4,17.64,15.56,26.48,5.47,9.37,10.42,19.11,18.3,26.84,10.61,10.39,27.18,10.67,37.33.76,1.56-1.53,3.31-3.1,2.39-5.58C2883.16,2313.88,2881.07,2313.58,2879.3,2314.25ZM2815.05,2246c-8.94,1.84-18,1.27-27.08.71-4.76-.3-6.23-3.53-6.26-7.69-.05-5.57,0-11.14,0-16.7a135.22,135.22,0,0,1,1.52-25.89c.67-4.55,2.69-7.57,7.48-8.09,12.84-1.39,24.6.86,32.54,11.94,8.14,11.35,9.67,23.92,4.34,36.94C2825.39,2242.56,2820.37,2244.88,2815.05,2246Z"/><path class="cls-1" d="M2725.05,2286.35c-3.25-1.07-4.47,1.73-5.27,4-4.23,11.75-14,16.81-24.85,20.76-10.56,3.83-21.43,3.67-32.4,3.47-8-.15-12.58-4.16-12.86-11.74-.51-13.9-.38-27.83-.34-41.75,0-4.37,2.44-7,7-6.92,8.12.11,16.27,0,24.33.73s13.09,5.27,14.31,13.54c.48,3.26.6,7.8,5.28,7.29,4.88-.54,3.56-5.15,3.33-8.29-.94-12.62-3.29-25.18-.8-37.89.56-2.82.1-6.12-3-7.07-4.24-1.29-5.35,2.53-6.11,5.37-2,7.69-6.42,12.88-14.65,13.51-7.46.57-15,.5-22.48.43-5-.05-7.22-3.12-7.29-7.85-.08-6.5-.14-13-.14-19.5,0-27.44,3.3-30.25,31-26.59.93.12,1.85.43,2.78.47,13.72.64,24.76,4.47,26,20.64.15,2,1.23,4.47,4,4.36,3.43-.14,3.73-2.92,3.69-5.4-.13-8.35-.35-16.7-.75-25-.29-6.05-4.19-7.9-9.67-7.18-17.13,2.27-34.35.56-46.25,1.11-19.65,0-34-.05-48.42,0-3.61,0-8.61-.81-9.23,4-.69,5.47,4.88,4.57,8.15,5.33,12.17,2.86,15.05,5.91,15.08,18.43.09,32.5,0,65-.1,97.49,0,8-2.12,14.7-10.62,17.75-2.84,1-5.25,2.84-4.08,6.22s4.56,3,7.23,2.46c16.42-3.26,33-2.19,49.54-1.85,9.35.19,18.69,1.71,28,1.67,17.66-.06,34.14-19.1,32.22-36.51C2727.54,2289.64,2727.41,2287.13,2725.05,2286.35Z"/><path class="cls-1" d="M2086.42,2242.51c-12.23-6.19-24.76-11.85-36.85-18.29-8.45-4.5-11.28-12.32-9.3-21.38s7.91-15,16.9-16.74c12.25-2.35,23.46,0,32.84,9.17,7.94,7.79,11.55,17.44,14.32,27.7.75,2.81,2.11,5.63,5.67,4.79,2.93-.69,3.07-3.6,3.07-6.12,0-8-2.75-15.9-1.69-23.17,0-1.78,0-2.7,0-3.63-.07-6.74,3.75-16.85-10.37-11.17-1.66.66-4.6-1.46-6.81-2.57-10.37-5.2-21.41-6.6-32.83-5.63-26.95,2.27-45.49,26.13-39.16,50.38,3.12,11.94,11.31,19.71,21.9,25.3,13.23,7,26.82,13.36,39.75,20.85,10.93,6.32,15,16,12.53,25.61a28.48,28.48,0,0,1-25.68,21.07c-9.61.73-17.85-2.23-25.16-8.14a60.31,60.31,0,0,1-20.48-30.42c-1.09-3.67-1.64-9.47-6.85-8.22-5.76,1.38-3.31,7-2.71,11.07,1.11,7.65,2.82,15.25,3.28,22.92.49,8.19,4.37,13.17,11.75,16.17,13,5.26,26.34,7.82,40.31,6.47,29.53-2.87,49.13-29.22,42-56.38C2109.15,2257.83,2099.12,2248.94,2086.42,2242.51Z"/><path class="cls-1" d="M2262.82,2186.61c-.7-6.33-4.18-8.64-10.08-8.18-30,2.33-60,.91-90,.83-8.74,0-17.47-1.06-26.21-1.15-4.32,0-9.11.43-10,6.25-1.29,8.87-2.65,17.74-3.6,26.65-.38,3.5-1.47,8.6,3.22,9.53,5.79,1.16,6-4.64,6.52-8.22,1.62-11.73,9.07-16.9,19.88-19.13a72.93,72.93,0,0,1,14.87-1.59c13.55,0,15.38,1.63,15.47,14.74q.33,46,.47,91.94c0,15.46-1.08,16.66-16.3,21.16-3.11.92-7.83,1.3-6.87,5.93.9,4.34,5.31,3.65,8.64,3.13,15.24-2.42,30.57-1.44,45.87-1.19,4,.07,8,1.1,12.09,1.35,2.82.17,6.1-.08,6.41-3.77.26-3.09-2.57-3.83-5-4.49-1.21-.33-2.41-.68-3.63-1-15.2-3.64-17.26-5.68-17.71-21.31-.45-15.47-.1-31-.1-46.43h-.33c0-15.17-.08-30.34,0-45.51.08-11.53,2.84-14.25,14.31-14.48a84.59,84.59,0,0,1,15.86,1.11c10.69,1.81,17.71,7.05,20,17.94.59,2.82.83,7.14,5,6.66,4.93-.58,5-5.17,4.54-8.8C2265.33,2201.25,2263.64,2194,2262.82,2186.61Z"/><path class="cls-1" d="M3013.31,2178.27c-13.4,2.3-26.73,1.72-40.13,0-3.07-.4-7.93-1.55-8.39,3.23-.44,4.52,4.29,4.36,7.52,5.14,12.23,3,15.67,8.66,10,19.42-6.5,12.32-14.31,24-21.54,35.89-3.32,5.46-5.85,2.87-8-.88-7.74-13.43-15.39-26.92-23.09-40.38-4-7-3.84-12.35,5.55-14.38,2.43-.52,5.22-1.7,4.77-4.77-.54-3.74-4-3.63-6.69-3.31-16.2,1.92-32.36,2.47-48.57,0-2.45-.37-5.37.05-5.87,3.21s2,4.46,4.51,5c10.94,2.14,16.88,9.93,22,18.67,5.06,8.54,9.29,17.69,15.26,25.55,15.54,20.43,20.19,43.08,17.75,68.12-1.42,14.49-2.37,16.94-16.37,20.56-3.3.85-7.71,1.29-7.14,5.69s4.9,4.13,8.32,3.63c10.59-1.52,21.22-.89,31.84-.38,8.75,0,17.5.06,26.25,0,2.77,0,6.19.08,6.69-3.56s-2.92-4.22-5.61-4.85a39.59,39.59,0,0,0-4.65-.49c-11.21-1.37-15.5-5.67-15.93-16.79-.35-9.27.16-18.59-.37-27.85s2.11-17.48,7.25-25.31c10.05-15.31,19.65-30.9,29.33-46.44,4.34-7,9.17-13.28,17.38-16.18,2.69-.95,5.54-2.37,4.32-6C3018.71,2177.81,3015.68,2177.86,3013.31,2178.27Z"/><path class="cls-1" d="M2469.64,2292.29c-3.31-1.37-5,2-6.41,4.17-6.86,10.9-17.34,15.4-29.56,17.46-7.48,1.27-15,1.07-22.43,1-13-.17-15.78-3-16-16-.66-31.86,1.27-63.68,2.09-95.51.21-7.85,2.76-14.53,10.84-18,2.48-1.06,5.73-2.37,4.63-5.94s-4.7-3.83-7.83-3.41a173.39,173.39,0,0,1-46.69,0c-3.31-.45-7.61-.93-8.34,3.62-.67,4.14,3.56,4.47,6.36,5.41,15.92,5.34,17.3,7.18,17.3,23.85v11.13l.35,0c-1.26,28.09-2.57,56.17-3.74,84.26a15.64,15.64,0,0,1-8.12,13.72c-2.33,1.38-5.72,2.68-4.33,6.13s5.17,3,8.22,2.5c15.87-2.75,31.69-2.05,47.56,0a227.7,227.7,0,0,0,23.29,2.13c18.31.49,31.53-10.45,34.82-28.38C2472.14,2297.53,2473.34,2293.82,2469.64,2292.29Z"/><path class="cls-1" d="M2600,2292.15c-2.6-1.09-4.26.87-5.34,2.64-10.76,17.56-28.17,19.85-46.52,20.07h-4.69c-15.52-.19-17.82-2.52-18.08-17.79-.55-31.25,1.34-62.45,2.12-93.67.18-7,2.08-13.43,9-17.18,2.84-1.53,7.66-2.34,6.34-6.68-1.53-5.07-6.44-3.69-10.42-3.23a172.82,172.82,0,0,1-42-.1c-3.84-.48-9.19-2.09-10.21,3.28-.95,5,4.63,5.14,7.94,5.9,8.83,2,15.35,6.27,15.43,15.91.3,34.63-1,69.21-3.3,103.77-.39,5.81-3.1,9.85-7.94,12.83-2.32,1.43-5.74,2.7-4.48,6.1,1.35,3.63,5.13,3.28,8.15,2.6,12.07-2.71,24.28-1.81,36.42-1.28,12.76.56,25.31,3.87,38.18,3.54,16.27-.4,31.33-15.23,31.61-31.1C2602.29,2295.6,2602.5,2293.18,2600,2292.15Z"/><path class="cls-1" d="M1998.06,2319.14c-10.8-2.3-15.06-6.13-15.13-16.63q-.35-50.09.26-100.17c.07-6.54,1.77-13,9.8-15.15,2.82-.75,7-1.63,5.31-5.93-1.33-3.49-5-2.9-8.17-2.55a165.49,165.49,0,0,1-42-.59c-4.31-.62-11.08-2.56-11.92,3.42-.88,6.27,6.1,5.71,10.43,6,7.62.54,12.74,3.38,12.76,11.62.08,35.22.83,70.45-1.37,105.65-.47,7.55-3.16,13.06-10.7,15.69-2.44.85-4.85,2.41-4,5.39.85,2.83,3.71,3.28,6.24,2.82,15.56-2.84,31.09-1.91,46.74.12,3.79-.27,9.21,1,9.91-4.24C2006.92,2319.58,2001.48,2319.87,1998.06,2319.14Z"/><path class="cls-1" d="M2333.33,2319.11c-10-1-14.64-7.05-14.7-16.09q-.33-50.54.26-101.09c.07-6.15,1.69-12.36,9.25-14.57,2.75-.81,7.1-1.35,5.93-5.61s-5.21-3.32-8.68-3a169.68,169.68,0,0,1-41.09-.6c-4.54-.64-11.71-2.91-12.45,3.74-.65,5.88,6.44,5.35,10.85,5.68,7.2.54,12.25,3.27,12.29,11,.19,35.53.93,71.07-1.37,106.57-.46,7.19-3,12.44-10.15,15.09-2.63,1-5.63,2.34-4.26,5.93,1.05,2.77,4,2.92,6.45,2.45,15.56-2.88,31.09-1.78,46.66.18,3.89-.3,9.37.77,9.65-4.64C2342.21,2319.51,2336.84,2319.47,2333.33,2319.11Z"/><path class="cls-1" d="M369.9,639.32a29.63,29.63,0,0,0-1.86-8.75c-.94-2.87-2.45-5.87-6.12-5.48s-4.81,3.41-5.26,6.47c-1.09,7.44-1.71,15-2.94,22.36-8.24,49.58-45,79.83-93.77,77.21-44.53-2.39-76-26.46-98.69-62.06-18.49-29-20.71-61.1-.5-90.69,20.55-30.07,50.32-42,86.65-35.61,13,2.3,24.83,7.45,36.44,13.35,3.6,1.82,7.94,3.36,11.08-.42,4-4.81.22-8.86-3.12-11.48a493.79,493.79,0,0,1-48-42.64c-3.28-3.35-9.81-5.19-10.74,1.09C231,517.11,219.17,517,209.8,520.19c-54.1,18.54-87,67.2-83.65,124.07,1.78,30.43,13.56,57,30.38,81.68l4,4.5c7.11,6.19,13.86,12.87,21.4,18.5,39.2,29.29,81,29.62,122.75,6.19C349.33,730,370.47,690.3,369.9,639.32Z"/><path class="cls-1" d="M511.93,373c21.45-6.19,27.47-4.37,38.68,14.52,15.12,25.5,29.89,51.21,44.09,77.23,6.43,11.78,13.59,24.34,1.95,37.68a4.09,4.09,0,0,0,.52,5.86,5,5,0,0,0,6.06.29,61.71,61.71,0,0,0,8-5.51c10.61-8.83,22.48-15.61,34.85-21.56,4.09-2,10.77-3,8.44-8.87-2.49-6.2-8.07-.76-12.28-.3a18.86,18.86,0,0,0-4,1.5c-8.89,3.29-16.48,1.28-22-6.17-19.89-26.67-36.53-55.31-51.71-85.86,5.05-1.47,8.38.31,11.75,1.19,49.39,12.9,96.83,31.54,145.13,47.67,4.18,1.39,9.2,4.77,12.84-.05,3.12-4.14-.68-8.13-2.77-11.71-21.5-36.67-42.93-73.38-64.72-109.88-6.09-10.21-10.42-19.75-.3-30.07,2-2.1,3-5.19.46-7.74s-5.36-1.45-7.73.49c-12.65,10.37-26.73,18.26-41.65,24.86-3.74,1.65-9.32,3.87-7,9.09,2.52,5.65,7.89,1.83,11.33.34,12.23-5.31,21.6-2.1,29.41,7.88,19.21,24.57,33.9,51.94,48.92,79.1.17.31-.58,1.14-.9,1.74-2.72,1-4.89-.62-7.18-1.47-46-17.2-92.72-32.53-139.48-47.67-5.46-1.76-10.83-3.73-16.55-.13-9.46,6-19.12,11.58-28.66,17.41-3.09,1.89-6.79,4-4.87,8.33S508.54,373.92,511.93,373Z"/><path class="cls-1" d="M724.2,251c23.4-2.35,28.31.22,36.83,22.26,10.43,27,20.59,54.09,30.05,81.42,4.37,12.62,9.78,26.18-3.91,37.53a4.26,4.26,0,0,0-.83,5.86,4.79,4.79,0,0,0,5.77,1.65,39.83,39.83,0,0,0,7.89-3.43,151.59,151.59,0,0,1,40.9-16.66c3.89-1,8.93-1.87,8.21-6.76-.84-5.72-6.12-3.41-9.77-2.95-21.12,2.66-23,1.64-31.92-17.88-1.34-2.92-2.88-5.75-4.26-8.65-11.48-24.1-20.09-49.25-28.17-74.81,5-1.35,7.87,1.24,11,2.63,47,20.89,91,47.25,136.34,71.24,3.66,1.94,7.81,5.49,11.83,2s1-8.1-.46-11.95c-15.33-40-30.64-80.07-46.27-120-4.2-10.75-6.58-20.52,4.63-28.78,2.67-2,4.44-5.21,1.51-8.35-2.4-2.57-5.25-1.4-7.89.1a176.29,176.29,0,0,1-44.18,17.25c-4,1-9.83,2.26-8.81,7.61,1.2,6.28,7.24,3.5,10.85,2.57C856.94,199.41,865.8,204.5,872,216c14.64,27.14,24.44,56.26,35,85.08.16.45-.54,1.22-.93,2-2.69.37-4.69-1.28-6.82-2.51-42.57-24.55-86.13-47.3-129.79-69.87-5.07-2.62-10-5.68-16.28-3.12C742.46,232,731.7,236.13,721,240.46c-3.06,1.24-6.43,2.87-5.59,6.82C716.42,252.09,720.67,251.34,724.2,251Z"/><path class="cls-1" d="M502.88,575.68c39.28-32.89,43.59-88.91,9.92-128.89-32.86-39-83.09-42.32-124.62-8.19-43.12,35.45-49.41,89.58-15.16,130.5C408.49,611.47,457.19,613.94,502.88,575.68ZM385.61,456.05c18.55-19.41,42-23.48,66.6-14.82,28.87,10.17,49.25,30.24,59.65,59.08,7.89,21.89,5.9,43.1-10.54,61.39-17.6,19.57-39.46,24.11-63.85,17.07-19.25-5.55-34-17.74-46.06-33.45-5.76-7.27-11.22-14.71-15-23.33C365.94,498.18,367,475.46,385.61,456.05Z"/><path class="cls-1" d="M954.11,163.29c14.12-1,18.43,1.56,22.73,15.44,11,35.49,21.78,71.05,32.67,106.57,2.81,9.13,3.2,17.6-5.62,24.16-2.81,2.09-4.62,5-2.1,8.27,2.2,2.89,5.34,1.68,7.89.42a243.81,243.81,0,0,1,31.06-12.43c17.15-5.75,35.07-8.29,52.34-13.43,21.26-6.32,33.24-29.26,26.58-50.35-1-3.06-1.83-7-5.67-6.93-4.32.09-4.15,4.34-4.4,7.43-.9,11.17-7.07,19.07-15.27,26.18-11.55,10-25.3,14.85-39.69,18.75-9,2.43-14.93-.75-18.08-8.85-3.23-8.31-6-16.82-8.5-25.39-9.06-31.7-14-26.92,22.52-37.22,10.73-3,20-.92,25,10.64,1.37,3.2,3.47,7.2,7.93,5s2.14-6.28,1-9.45c-5-13.33-12.09-25.93-13.7-40.43-.44-4-1.38-8.74-6.29-8.57-5.61.19-4.84,5.56-4.72,9.2.31,9.52-4.12,15.85-12.72,19.16-7.39,2.85-15,5-22.63,7.34-5.92,1.82-9.79-.45-11.62-6.22-2.27-7.15-4.56-14.3-6.76-21.47-9.22-30.07-6.41-34.12,25.42-39.78,16-2.85,31.26-5.71,38.85,13.84.84,2.15,3,4.45,6,3.21,3.6-1.49,2.87-4.66,2-7.37-3-9.16-6.07-18.31-9.39-27.36-2.44-6.66-7.51-7-13.19-4.38-18.13,8.31-37.7,12.25-50.58,16.89-21.37,6.57-36.91,11.25-52.38,16.17-4.22,1.35-10.71,1.83-9.57,8S950.23,163.55,954.11,163.29Z"/><path class="cls-1" d="M1156.34,277.62a186.93,186.93,0,0,1,40.53-6.2c5.73-.28,14.94,2.2,15.35-5.48.44-8.19-8.91-4.5-13.9-5.19-11.14-1.53-16.71-5.9-17.46-15.36-2.15-27.37,8.57-41.1,35.46-45.39l6.41-1c37.76-5.93,37.76-5.93,53,26.2,6.1,12.89,5.17,16.84-6.3,26.09-2.28,1.84-5,3.64-3.34,7,1.3,2.59,4.22,2.79,6.7,2.05a236.45,236.45,0,0,1,61.7-10.06c3-.08,5.82-1.49,6-5,.17-3.78-2.86-5.05-5.78-5-16,.43-23.35-10.43-30.46-22q-38.79-63.06-77.83-126c-2.71-4.37-4.17-12.17-9.87-11.49-6.22.75-6.46,8.79-8,14q-21,71.57-41.57,143.27c-3.27,11.35-5.65,23.08-15.79,31-2.27,1.77-4.91,4-3.32,7.16C1149.73,280.06,1153.17,278.49,1156.34,277.62Zm40.26-98.4q6.66-23.19,13.51-46.33c1.83-6.18,4.84-6.84,8.47-1.25q13.14,20.22,26.17,40.53c3.44,5.34,2.12,8.71-4.37,9.76l-18.15,2.88v.07c-6,1-12.11,1.9-18.15,2.88C1196.91,188.93,1194.74,185.7,1196.6,179.22Z"/><path class="cls-1" d="M1347.26,81.7c19.65,4.53,19.57,4.52,21.87,24.6,3.08,27,4.56,54.05,9.48,80.82,5.3,28.87,19.76,44.15,48.82,49.67,16.3,3.1,32.53,1.69,48.25-2.27,32.79-8.26,49.65-29.08,50.41-61.12a358.84,358.84,0,0,0-1.25-36.36c-1.51-19.22-3.55-38.38-3.9-57.69-.11-6.49.76-12,7-15.61,3.15-1.85,8.68-3.31,6.26-8.33-2.31-4.8-7.64-3.16-11.71-2.14-12.31,3.06-24.69,5-37.44,4-4.29-.32-10.1-.76-10.67,4.57-.72,6.71,5.84,5.9,10.22,6.35,13.85,1.42,19.21,5.79,21.2,19.56,1.85,12.71,2.72,25.56,4,38.35l-.2,0c1.23,12.08,2.92,24.14,3.59,36.25,1.76,31.69-10.88,51.25-39.19,58.19-28.73,7.05-60.61,5.9-69.09-39.58-5.19-27.83-7.21-55.88-8.83-84-.61-10.64.55-19.22,12.47-22.77,2.88-.86,5.36-3.09,4.06-6.46-1.22-3.16-4.49-3.38-7.42-2.88-6.73,1.17-13.39,2.78-20.13,3.85-12.14,1.94-24.38,2.11-36.65,2-3.61,0-7.73,1-8,5.53C1340.23,80.38,1344.12,81,1347.26,81.7Z"/><path class="cls-1" d="M1583,102.5c3,.51,4.74-1.35,5.59-3.92a33.74,33.74,0,0,0,1.79-7.27c1.11-11.65,8.5-17.69,19-20.82a76.85,76.85,0,0,1,21.31-3.21c14.09-.17,16.54,1.8,17.08,15.62,1.37,34.63,2.58,69.27,3.84,103.91.77,21.06.72,21.07-19.13,28.42-3.29,1.21-7.87,2.15-6.54,6.89,1.22,4.34,5.67,4,9.19,3.27,15.68-3.21,31.58-2.8,47.42-3.14,6.1-.13,12.21.7,18.32,1.05,3.66.21,8.16.54,9.13-3.67,1.12-4.84-3.61-5.26-7.06-6.15-1-.26-2.1-.52-3.15-.74-17.49-3.58-20-5.94-21.06-24.08-1.05-17.83-1.23-35.71-1.79-53.57h-.38c-.54-17.14-1.16-34.28-1.6-51.43-.36-14.6,2.52-17.65,17.22-18.15a128.91,128.91,0,0,1,15.09.51c13.63,1.13,23.08,7.28,26,21.38.62,2.93,1.43,7,5.84,6.35s5.34-4.87,4.82-8.38c-1.52-10.23-3.33-20.43-5.58-30.52-1.28-5.75-6.34-6.35-11.25-5.76-24.77,3-49.67,3-74.54,3.52-18.74.37-37.49,0-56.24.08-5,0-12.28-.36-13.2,4.91-2.33,13.26-4.82,26.69-4,40.31A4.65,4.65,0,0,0,1583,102.5Z"/><path class="cls-1" d="M2927.8,513.77c16.38,7.34,30.47,17.92,43.45,30.16,2.26,2.13,5.56,4.4,8.31,1.67,3.29-3.28.17-6.12-2-8.88-9.78-12.22-10.1-17.42-1.59-30.6,5.42-8.4,11.16-16.59,16.84-24.81,8-11.53,12.9-11.8,22.56-1.55,4.64,4.94,6.09,10.8,5.66,17.24-.76,11.37-1.63,22.73-2.5,34.09-.92,12-2.57,24.1-.26,36.16,3.11,16.26,18,27,33.62,24.4,2.4-.4,5-.72,5.79-3.53.72-2.51-1-4.16-3-4.67-11.41-2.81-11.43-11.67-11.19-20.53.56-20.72,1.47-41.42,1.82-62.14.08-5,1.75-5.88,6.18-5,8.73,1.82,17.13,1.16,25.21-3.1,27.27-14.38,31.25-47.72,8.84-72.13-15-16.3-36.18-23.24-53.26-36.33-5.53-4.21-11.1-8.38-16.6-12.62-2.84-2.2-6-4.8-9.11-1.49s-.1,6.2,2.28,8.83c12.1,13.4,12.58,15.84,2.58,30.39-19.33,28.11-39,56-58.64,83.87-5.36,7.62-11.74,13.67-22.39,11.58-2.44-.47-5.19-.25-6.23,2.44C2922.84,510.55,2925.21,512.6,2927.8,513.77Zm84.94-60.9c3.47-5.13,7-10.2,10.55-15.3A152,152,0,0,1,3041,414.8c3.48-3.73,7.22-5.37,11.95-2.83,12.65,6.8,22,16.27,22.34,31.44.32,15.55-6.21,28-19.28,36.66-5.38,3.54-11.43,2.56-17,.22-9.38-3.93-17.32-10.23-25.27-16.43C3009.61,460.62,3010.11,456.75,3012.74,452.87Z"/><path class="cls-1" d="M2254.37,263.37c16.17.39,31.63,4.58,47.11,8.52,11.78,3,23.24,7.24,35.05,10.07,20.19,4.82,42.36-10.37,45.56-30.63.44-2.78,1.13-6-1.73-7.51-3.16-1.64-5.18,1.18-6.66,3.46-7,10.93-18.06,14.2-30.14,15.94-13.1,1.89-25.55-.93-38.07-4.14-8.75-2.23-12-7.92-10.73-16.16,1.31-8.5,3-17,5.13-25.31,7.65-30.72,1.09-29,36.85-20.22a22.47,22.47,0,0,1,3,1c8.61,3.47,13.65,9.2,12.74,19-.33,3.64-1.13,8.63,4.27,8.89s4.85-5.05,5.39-8.52c2.06-13.24,2.42-26.79,7.87-39.37,1.52-3.51,3-8-1.28-10.13-4.8-2.4-6.68,2.48-8.33,5.58-4.84,9.1-12.56,11.24-22,9.51-6.15-1.12-12.22-2.75-18.37-3.9-8-1.5-10.19-6.06-8.25-13.53,1.82-7,3.19-14.12,4.81-21.17,6.21-27,8.89-28.72,36-20,15.47,5,33,8.68,29.72,31.51-.32,2.24.47,5.18,3.59,5.48,3.67.36,4.55-2.64,5.12-5.34,1.84-8.77,3.54-17.57,5.21-26.37,1.34-7.07-2.29-10.34-9-10.95-19.15-1.74-37.4-7.9-50.5-10.23-21.27-4.84-36.86-8.46-52.49-11.91-3.93-.86-9-2.85-10.82,2.47-1.69,5.12,3.84,5.69,7,7.23,13.33,6.47,15.56,10.28,12.4,24.33-7.87,35-16,69.87-24,104.81-2,8.52-5.37,15.74-15.39,17.19-3.19.47-6.6,1.2-6.64,5.19C2246.77,263.14,2251.11,263.29,2254.37,263.37Z"/><path class="cls-1" d="M2730.24,413.59a180.93,180.93,0,0,1,35.92,16.57c4.5,2.75,10.52,8.89,14.55,3.57,5.08-6.71-4.43-8.53-8.05-11.58-6.82-5.73-10.94-11.73-6.89-20.58,10.3-22.53,29.45-29.82,51.86-19.84l7.63,3.4c32.82,14.74,33.34,15.66,28.32,49.46-.16,1-.26,2.05-.5,3.05-2.09,8.86-6,15.51-16.87,14.2-3.11-.37-6.94-.53-7.67,3.38s2.82,5.32,5.83,6.17a207,207,0,0,1,52.29,23.1c2.75,1.69,6.08,2.88,8.53,0,2.74-3.23.35-6.16-2.31-7.8-12.37-7.63-12.83-19.55-12.52-32,1.19-47.25,2.42-94.5,3.27-141.75.1-5.78,4.12-14.22-2.43-16.95-5.68-2.36-10.74,5-15.32,8.88Q2812,341,2758.45,387.5c-8.36,7.22-16.26,15.1-28.22,16.25-3,.29-6.89.52-6.82,4.72C2723.47,412.46,2727.31,412.59,2730.24,413.59Zm86.9-61.39c10.09-8.89,20.35-17.59,30.65-26.23,2-1.66,3.93-4.59,7.09-3,2.6,1.27,1.9,4.23,1.9,6.55,0,14.82-.1,29.65-.12,44.47,0,7.44-3.39,9.08-9.93,6-5.34-2.54-10.78-4.85-16.18-7.26l0,.1c-3.49-1.56-7-3.09-10.47-4.69C2807.67,362.39,2807.31,360.86,2817.14,352.2Z"/><path class="cls-1" d="M3247,568.07c-7.49-1-9.06-6.71-11.75-11.77-6.07-11.42-15.23-19.9-26.32-26.09-25.51-14.25-55.59-5.34-66.13,19.24-5.42,12.64-3.54,25,2,37.17,7.21,15.77,15.08,31.26,21.74,47.25,4.48,10.76,2.89,21.28-6.46,29.23-9.64,8.18-24.38,9.14-35.12,2.9-10.25-5.94-16.38-14.74-19-26.14a68.59,68.59,0,0,1,3.58-42.66c1.36-3.31,3.09-7.94-2-9.75-4-1.44-6.27,2.22-7.82,5.28-4.35,8.6-7.91,17.66-13.81,25.37s-5.28,15.16-.49,23.08c7.85,13,17.75,24,30.67,32.14,27.9,17.54,63.11,7.68,75.42-21,6.49-15.16,3.76-29.82-3.11-44.1-6.62-13.75-13.9-27.19-20.29-41-4.45-9.62-2-18.47,5.82-25.32s17.08-8.21,26.2-3.8c12.46,6,21,15.58,23.12,30.07,1.74,11.83-1,22.59-5.49,33.23-1.31,3.11-3.17,7,1,9.16s6.22-1.78,8.12-4.52c4.72-6.76,7.67-14.68,11.47-18.51,4.6-5.46,7.47-8.47,9.87-11.82C3250.18,572.92,3251.12,568.64,3247,568.07Z"/><path class="cls-1" d="M2051.23,241.73c48.88,20.59,109.77,9.73,140.6-25.22,3.53-4,9.42-8.93,5.2-14.17-4.91-6.07-9.89.6-14.26,3.2-6.06,3.6-11.54,8.19-17.68,11.65-43.29,24.43-89.24,15.3-118.29-24.85-30.1-41.6-31.08-87.06-8.77-131.17C2066,5.83,2144,3.4,2178.83,55a114.33,114.33,0,0,1,16.83,38.49c1.19,5.1,2.16,12.27,9.69,11.14,6.45-1,6.05-7.73,5.68-12.4a343.22,343.22,0,0,1,.07-58.59c.69-7.5-1-15.57-12-9-7.35,4.42-12.6-.23-18-3.54-15.26-9.26-31.15-16.86-49-19.64-71.68-11.16-139.55,43.7-147.37,119.09-.23,3-.45,6-.71,9C1979.59,180.08,2004.83,222.2,2051.23,241.73Z"/><path class="cls-1" d="M2425.55,304.24c17.9.94,34.88,5.64,51.6,11.78a253.06,253.06,0,0,0,26.77,8.54,36.83,36.83,0,0,0,43.55-24.6c.8-2.62,2-5.56-.89-7.56-2.5-1.73-4.81.07-6.44,1.73-16,16.42-35.52,14.43-49,11.6-29.77-6.63-31-8.24-25.31-31.52,7.75-31.77,15.89-63.45,24-95.15,2-7.95,5.51-14.86,14.47-17.3,3.46-.94,8.78-.64,8.4-5.81s-5.52-5.45-9.66-5.85a191.26,191.26,0,0,1-46.61-10.61c-4-1.47-9.48-4.49-11.78,1.23-2.08,5.17,3.92,6.66,7.35,8.31,9.11,4.38,14.95,10.69,12.65,21.16-8.2,37.32-18.1,74.21-28.92,110.86-1.93,6.53-5.75,10.76-12.23,12.86-2.86.93-6.86,1.51-6.18,5.6C2418,303.77,2422.11,304.06,2425.55,304.24Z"/><path class="cls-1" d="M2587.41,351.87c10.19,1,19.72,4.38,29,8.2,15.72,6.46,30.93,14.22,46.79,20.29,18,6.89,38.38-2.38,45.9-19.73,1.09-2.51,2.6-5.29,0-7.62-2.3-2-4.8-.49-6.58,1-17.68,14.63-36.84,10.61-56.22,4.26-1.64-.57-3.29-1.11-4.93-1.7-16.15-5.76-17.73-9.09-12.47-25.33,10.72-33.11,24-65.29,36.06-97.88,2.88-7.76,7.56-13.89,16.83-14.89,3.27-.35,8-.05,8-4.7.06-5.34-4.89-6.06-9-6.89a191.41,191.41,0,0,1-45.22-15.48c-3.87-1.88-8.94-5.5-11.87-.09-2.66,4.92,3.14,7.06,6.37,9,8.59,5.32,13.76,12.2,10.37,22.38C2628.41,259,2614.6,294.59,2600,329.89c-2.6,6.28-6.83,10.12-13.5,11.52-2.95.62-7,.76-6.79,4.88C2579.9,350.6,2584,351.54,2587.41,351.87Z"/></svg>