<svg id="Layer_1" data-name="Layer 1" xmlns="http://www.w3.org/2000/svg" viewBox="0 0 3123.97 2328.89"><defs><style>.cls-1{fill:#fff;}</style></defs><path class="cls-1" d="M596.92,1421.93c-5.95,0-7.74-4.7-9.39-9.33-7.64-5.11-15.4-10-22.88-15.37-48.28-34.36-98.16-65-160.87-59.56-37.51,3.29-69.74,17.44-96.1,55.24,21.9,0,37.2-.41,52.47.07,92.12,2.88,172.61,34,241.55,96.26,75.35,68.09,133.57,148.81,181,237.77,10.24,19.19,23.66,34.61,45.11,30.88,50.74-8.81,100.87-2.36,151.1,1.51,20.7,1.59,28.25-7.45,29.65-25.43,6.58-84.17,38.46-159.77,77.85-233,36.61-68.09,44.13-70.71,114.46-38.08a333.72,333.72,0,0,1,70.43,44.63c5.55,4.52,10.19,10.51,18.47,9.74-9.78-31.34-25-59.93-43.68-86.8-29.92-4.2-56.61-18.09-82.18-32.17-25.8-14.2,1.18-30.12,1.51-47.16,27.71,14.85,38.18,45.75,66.23,55.83-8.54-37.21-30.3-68.44-47.54-101.48-18.67-35.79-31.09-75.25-58.85-106-.82,2.93-3.12,6.41-2.25,8.7,21.72,57.21-4.59,104.55-31.66,151.17-56.09,96.57-95.4,198.3-102.35,311.12-.79,12.9.61,28.73-13.56,43.37-10.87-91.25,12.14-172.33,44.79-251.24,18.1-43.75,41-85.43,61.81-128,27.13-55.47,18-116.86,12.69-176.43-.77-8.61-8.35-17.53,2-25.18-10.82-21.51-20.8-43.49-35.78-62.62-13.46,23.59-7.12,50.09-9.43,75-8.58,92.38-42.17,178-67.21,266-25.55,89.73-39.63,180.85-37.4,274.3a101.61,101.61,0,0,1-1.24,18.44c-.61,3.82-2.76,7.39-9.7,11.08,0-16.21-.14-32.42,0-48.62.19-16.51-.25-33.1,1.21-49.51,15.77-177.32,33.54-354.44,55-531.18.76-6.22.6-14.57,6.52-16.45,24.55-7.8,25.17-32.71,37.16-49.37,3.59-8.07-10.27-15.52-.85-23.8l.18-167.44h0a149.21,149.21,0,0,0,67.42,13.88l143.65,153.51c15.49,12,33.31,3.76,50,5.59,5.24.58,10.36-2.21,10.76-8.3.54-8.31-6.22-9.18-12.26-10.35-22-13.8-40.38-31.71-58.17-50.47-39.75-41.91-79.94-83.41-120-125.08-.83-24.55-17-41.29-30.65-59.1-20-26.13-39.63-52.75-61.33-77.48-38.75-44.17-65.54-97.65-108.53-138.37-23.87-22.61-65.86-36.24-73.69-22.86-15.72,26.88-2.4,51.5,13.41,74,35.54,50.52,71.49,100.75,107.27,151.1,9.72,62-3.39,123.2-6,184.79-2.22,52-18.45,106.84,16.56,155.88,7.11,10,6.23,23.65,3.44,36.23-10.74,48.27-20.24,96.62-25.77,146-13.64,121.9-31.7,243.36-34.19,366.28-.51,25.6-.07,51.22-.07,79.23-12.78-4.9-11.5-10.82-12-15.51-7.06-61.42-10.14-123.59-21.65-184.16-25.5-134.08-34-269.86-46.94-405.24-7.09-74.33-21.95-146.86-51.88-215.66-8.71-20-19.93-38.7-38.11-51.89-7.91-5.74-14.85-8-16.32,6.06-1,9.17-4.49,18.1-5.15,27.27-5.26,72.56-1.19,144.87,16.36,215.31,28.64,115,60.69,229.1,90.72,343.74,5.38,20.52,12.19,41.22,8.79,68.15-3.05-8.12-4.61-11.7-5.74-15.4-30.41-99.67-62.74-198.73-99.66-296.16-17.92-47.3-39-93.17-28.52-146,1.69-8.53-1.47-18.48-4-27.3-23.43-81.26-49.67-161.82-69.62-243.91-7.46-30.67-37.11-33.55-49.59-55.6-2.95-5.22-8.9,1.89-10.53,6.53-9.41,26.81-18.46,51.65-11.67,83.06,17.69,81.87,43.93,161.21,65.32,241.93,5.11,19.26,13.74,36.56,36.39,42.08,16.06,3.91,20.86,18.36,25.88,32.23,49.49,136.72,103.55,271.94,139.25,413.26,11.61,46,24.9,91.88,26.86,145.72-27.4-54.28-50.85-103.49-76.69-151.42-76.57-142.09-172.28-272.13-258.65-408.06-8-12.6-15.24-24.74-12.67-40.16,3.8-22.81-4.07-42.61-14.76-62C459,949.49,424.9,889.24,392.76,828c-18.42-35.12-34.57-71-80.58-75.83C295.9,795.33,295,804,307.92,832c25.49,55.35,51.27,110.51,81.15,163.76,17.11,30.48,29.16,59.67,28,99.67-3,107,38.48,198,127.28,264.24,17.74,13.23,35.4,28.61,46.2,49.34,4.36,1.94,9.46,3.33,9.52,9.36C600.11,1419.6,598,1421.93,596.92,1421.93Zm215.54,221,3.62,4.82C811,1648.71,812.6,1645.22,812.46,1642.9Zm-1.36-2.68-3.78-6.07C813.47,1633.43,811.05,1637.52,811.1,1640.22Zm-7.88-20.88-1,1.79-.47-2Zm-67.65-20c-28.15-37.64-56.67-75-84.12-113.14-11.59-16.1-29.12-27.84-38.24-49,31.37,12.12,103.18,106,124.67,160.26,11.34,9.87,16.94,22.44,17.76,37.25C743.53,1626.06,738.8,1613.14,735.57,1599.37Zm21.49,38.07a5.6,5.6,0,0,1-.69-1.46l2.29,2C758.11,1637.85,757.34,1637.82,757.06,1637.44Zm8.39,13.43c.57.19,1.37.22,1.66.62a6.19,6.19,0,0,1,.77,1.62Zm24.25,40.53-2.22-5.49a33.21,33.21,0,0,1,2.83,3.35C790.57,1689.65,789.93,1690.67,789.7,1691.4Zm4.66-84.78a5.82,5.82,0,0,1-.75-1.66l2.54,2.22C795.53,1607,794.65,1607,794.36,1606.62Zm-1.75-3.67-3.93-6.14C795.11,1596,792.66,1600.14,792.61,1603Zm-8.06-20.85-1,1.71-.48-1.91Zm-4,90c-10.12-1.83-11-9.9-12-17.84C774.85,1658.67,778.41,1664.91,780.57,1672.1Zm-5-102.88a5.35,5.35,0,0,1-.6-1.5l2.2,2.18C776.59,1569.69,775.8,1569.63,775.54,1569.22Zm-1.29-2.72c-4.47-2.58-5.67-6.79-5.71-11.56C773.92,1557.05,773.84,1561.9,774.25,1566.5Zm-7-14.47a5.32,5.32,0,0,1,.6,1.72l-2.45-2.41C766.08,1551.56,767,1551.59,767.29,1552ZM760,1538.58l-1,1.75-.51-1.94Zm-9-13.2c-.3-2.39-.59-4.79-.88-7.18l4.28,5.59Zm-1.49-8.29c-3.68-.15-5.23-2.5-5.82-5.85C747.46,1511.32,748.75,1513.91,749.44,1517.09Zm-6.08-6.23c-9.89-5.24-13.28-13.7-12.19-24.41C741.18,1491.63,744.09,1500.34,743.36,1510.86ZM438,1081.44c.38,2.37.75,4.74,1.13,7.11l-4.33-5.35Zm73.47,132.14a350.82,350.82,0,0,1-71.86-124.26c33.32,7.19,55.17,26.42,74.79,55.5q97.77,144.95,192.34,292c9.87,15.39,20.75,30.68,24.23,49.37-7.25,0-10.41-5.36-13.48-10.69C661.39,1378.23,585.53,1296.66,511.43,1213.58Z"/><path class="cls-1" d="M2099.33,1027.23c3.88,4.2,3.16,14.08,2.25,21-12.52,96-27.9,191.78-37.62,288.1-10.67,105.6-26.17,211-23.08,317.67h0l0,.07c-11.68-14.48-14.44-31.71-13.27-49.33,1.19-17.84-2.61-34.68-6-51.88-20.77-106-35.8-212.75-42.94-320.61-2.21-33.4-3.63-67.06-12.4-99.72-24,34.38-40.87,72.33-56.49,110.94,14.42,36.18,24.84,73.45,27.55,113.11-6.92-21-12.68-42.5-21.29-62.78-3.74-8.81-.16-24.72-17.29-24.77-11.87,7.13-13.67,20.32-19,31.41,19.48,7.76,21.4,27.41,25.86,43.13,23.77,83.86,45.78,168.23,68.27,252.46,1,3.59.65,7.52,1.16,14.37-14.21-6.37-16.51-18.07-21.44-27.3-27.59-51.69-54.35-103.85-82.7-155.12-6.08-11-11.85-24.28-26.09-28.78-4.84,14.94,6.13,25.27,12,36.33,44.07,83.77,81.72,170.12,109.78,260.65,6.31,20.33,10.57,41.81,23.81,59.49.61,23-12,41.69-18,63-23.2-12.65-2.74-32.74-11.61-46.78-15.76-66.57-46.71-127.59-70-191.41-6-13.72-4.57-31.5-21.61-39.1-8.81-40.2-31.82-73.85-49.2-115.71-11,17.53-20.74,28.88-21.79,44.83l59.22,84h0q.79,5.61,1.6,11.23c.54,14.75,2.77,29.6,1.1,44.24,1.67-14.64-.56-29.48-1.1-44.24-33.42-19.76-43.07-57.09-63.78-86.24-21.7,20.92-28.5,40.51-3.67,66.25,23.93,24.8,43.1,54.21,64.35,81.59,12.54,43.36,29.47,84.82,53.26,123.34,7.45,12.08,17,23.51,13.66,39.37q12.78,26.7,25.57,53.4l-6.46,4.68c-53.87-89.57-153.41-134.63-207.27-224.46-3.48,35.23,9.9,62.22,30.65,86.37,24.55,28.58,56,48.66,86.22,70.29,34.72,24.88,66.1,52.25,84.62,92.49,10,21.67,17.19,52.52,46.93,51.35,28.28-1.12,35.84-30.88,46.65-52.73,35.4-71.51,72.56-141.52,136.7-192.86,11.83-9.47,21.53-22.49,29.71-35.45,24.4-38.65,38.15-80,28.17-130-17.18,17.53-23.13,36.2-30.81,54.12-10.9,25.45-20.76,52-47.16,66.58,11-46.34,26.49-91,49.06-133.07,16.62-31,16.47-31.12,34.57-2.55,30.8,48.62,51.18,101.5,57.75,158.5,2.73,23.67,12.72,29.19,33.72,28.71,39.22-.91,78.52-1.22,117.7.29,22,.85,33-8.63,42.73-27.37,35.14-67.63,74.47-132,132-184.35,62.31-56.66,130.82-92.54,217.47-83.75,4.93.5,11.59,3,13.13-3.36.95-3.94-2.07-9.74-4.89-13.52-9-12-22.14-18.71-36-22.82-52.28-15.49-99-2-142.51,28.2-14.91,10.34-23.16,29.29-43,33,18.85-33.74,48.79-57.68,75.39-84.45,49.29-49.61,65.12-110.41,62.7-178-.38-10.64-2.65-16-14.07-10.32l-.2-.21c-.87-11.35,6.79-19.1,11.95-27.82,29.48-49.83,56.94-100.55,78.46-154.53,11.61-29.1,18.46-56.67-.33-85.95-10.3,8.24-26.28,7.25-35.28,20-48.64,68.79-79.36,146.9-115.64,222.12-.86,1.79-1.57,4.35-.95,6,11.76,31.69-10.64,51.79-25.13,74.53-15,23.51-30.76,46.53-45,70.47-63.8,107.25-135.11,210.43-178.73,328.66-1.59,4.31-3.48,10-10.69,7.22-2.94-9.34.09-18.18,1.93-27.28,25.49-126.64,62.24-250.12,104.86-371.91,8.61-24.59,12.4-52.7,43.73-62.49,8.92-2.79,11.74-14.41,14-23.25,17.27-67.92,37.88-135,49.45-204.35,3.73-22.34-1.15-43.13-8.5-63.63-2.16-6-6.08-16.75-14.64-6.44-14.13,17-35.15,27.58-40.67,52.82-11.8,54.05-26.7,107.41-40.18,161.1-15.6,62.18-8.85,128-35.34,189-20,46.12-31.07,96.1-46.68,144.19-1.92,5.91-1.65,14.81-13,16.32,1.81-9.44,3.13-18.38,5.25-27.13,18.51-76.14,37.66-152.12,55.61-228.39,15.21-64.63,25.75-129.63,4.07-195.16-2.08-6.31,1-15.9-9.38-16.9-7.26-.7-10,6.42-14,10.89-27.26,30.59-37.16,69.2-45.08,107.31-23.22,111.56-18.17,226-31,338.62-9,78.93-18.94,157.75-29.29,243.45-9.42-86.49-16.06-166.49-27.58-245.79-6.58-45.37-19.3-90-18.27-136.23.71-31.89,9.53-64.49,5.1-95.39-7.25-50.6-1-101.21-6.5-151.32-7.22-65.52,7.55-138.61-56.13-182.81-29.06,22.66-32.24,55.31-28.78,90.56,5,51.32,7.53,102.91,13.59,154.1,3,25.13,6.2,51.91,29.3,69.29a16.25,16.25,0,0,1,6.39,16.46c-5.05,28.9-10.17,57.9-36.58,88.7,2.44-88.47-37.55-157.48-58.68-232.63-10.45,45.73-16.84,91-23.07,136.33-2.25,16.38-3.11,33.53-17.64,44.66-21.27,16.29-29.78,40-24.15,63.21,8.56,35.3-4.58,65.09-15.19,95.77-20.61,59.62-24.61,122.75-40,183.48-3.37-54,4.62-107.06,10.63-160.28q19.07-169,37.4-338c.85-7.78,2.47-13.31,10.68-16.68,19.93-8.17,23.73-25.69,26.79-45.09C2170,905,2169.09,834.56,2176.4,764.8c5.74-54.78,2.16-107.8-38.64-153.34-7.09,16.57-19.43,28.11-31,40.65-12,12.93-9.9,32.91-11.28,50.46-5.44,68.87-12.95,137.64-16.23,206.61C2077.33,949.19,2066.8,992,2099.33,1027.23Zm-240.15,588.62c.25-1.28.46-2.55.64-3.83C1859.64,1613.3,1859.43,1614.57,1859.18,1615.85Zm655.47-64,1-1.83.57,2Zm53.67-78.07c6.36-28.64,23.94-48.3,49.33-61.71C2606.63,1436.93,2587.6,1455.43,2568.32,1473.74Zm125.86-304.56c8.24-12.92,24.26-12.55,38.81-18.32-28.51,94-105.21,150-157,224l-7.85-5.2C2610.06,1302.79,2651.73,1235.73,2694.18,1169.18Zm-131.87,217.6,2.21-4.59C2568,1386.13,2565.15,1386.46,2562.31,1386.78Zm-.4.43c.62,5.23-.47,9.59-5.87,11.78C2555.72,1394,2556.36,1389.39,2561.91,1387.21Zm-6.54,12.53-1.88,4C2550.25,1400,2553.18,1400.1,2555.37,1399.74Zm-11.51,17.9,1.79-3.9C2548.83,1417.34,2545.9,1417.22,2543.86,1417.64Zm-.68.79c.1,4.87-.4,9.44-5.76,11.6C2537.23,1425.11,2538.16,1420.75,2543.18,1418.43Zm-6.43,12.82a5.81,5.81,0,0,1-.68,1.77c-.29.44-1.24.45-1.89.65Zm-8.16,14.24-1,1.72-.42-1.93Zm39.57,28.47c-9.95,25-29.25,43.66-45.37,64.48C2534.71,1514.78,2540.67,1487.07,2568.16,1474Zm-46-16.49-.23,1.92-1.43-1.15Zm-5.67,6.77c-2.52,17.72-6.62,27.21-16.35,34C2499.54,1486.67,2505.07,1477.78,2516.52,1464.24Zm-17,35.25a5.6,5.6,0,0,1-.64,1.76c-.27.44-1.22.46-1.86.66ZM2488,1523l1.44-8C2495.26,1519.17,2490.54,1520.82,2488,1523Zm-.6,1c-.56,4.54-1.3,9-5.78,11.55C2481.77,1530.77,2481.92,1526,2487.36,1524Zm-8.15,13a4.48,4.48,0,0,1,1.49-.6l-2,2.31C2478.84,1538,2478.82,1537.19,2479.21,1536.91ZM2308,1291.3c26,89.69,21.15,183.21,36.47,274.34-13.75-69.49-25.9-139.27-54.56-204.89C2278.1,1333.67,2297.26,1314,2308,1291.3Zm9,343.61c-19.13-76.29-33.84-153.72-69.52-225C2294.85,1477.66,2310.94,1554.87,2317,1634.91Zm-301.31,199.86c-8.82,21.38-17.65,42.76-27.63,66.94-13.43-29.71-2.7-68,21.17-86.29,1.85,6.55-.76,14.59,6.47,19.35,10-19.2,21.2-37.78,32.39-56.35C2036.94,1797,2025.79,1815.57,2015.73,1834.77Zm120.32-186c.5-.43,1-.88,1.46-1.35C2137,1647.86,2136.55,1648.31,2136.05,1648.74Zm1.5-1.38,0,0Zm2.75-3.16c.28-.37.56-.74.82-1.12s.7-1,1-1.53c-.33.52-.67,1-1,1.53S2140.58,1643.83,2140.3,1644.2Zm-1.64,2q.39-.43.78-.9Q2139,1645.75,2138.66,1646.18Zm7.07-214.8c6.29-11.53,10.52-24.19,17.32-40.13,15,22.26,3.62,37.69-3.5,53.45-30.1,66.64-44,136.45-41.13,209.56h0c-2.35,14.85-8.46,27.4-21.76,35.54h0q-1.1-15.46-2.18-30.92c8.75-40.4,27-79.33,18.8-122.33h0C2128.85,1503,2127.74,1464.32,2145.73,1431.38ZM2106,1536.46c-12.74,1.49-15.66,12.63-19.45,23.35C2090.38,1549.08,2093.3,1537.94,2106,1536.46Zm-19.92,24.69c-.33.89-.66,1.77-1,2.64C2085.46,1562.92,2085.79,1562,2086.12,1561.15Z"/><path class="cls-1" d="M2952.65,2012.65c-7.24,0-14.48-.12-21.72-.12q-1360.45,0-2720.92,0c-8.27,0-16.54.13-24.81.49-7.19.31-11.19,3.88-11.5,11.53-.36,8.9,3.29,13.67,12.42,13.72q10.86.06,21.72.07H2928.76c8.27,0,16.54-.16,24.82-.15,8.9,0,13-4,12.89-13.23C2966.36,2015.21,2960.87,2012.68,2952.65,2012.65Z"/><path class="cls-1" d="M1293.1,1520.88c.52,2.85,0,6.69,1.7,8.41,50.92,52.2,90.5,112.55,126.25,175.59,7.64,13.46,18.25,18,33.16,17.52,32-1,64.09-1.37,96.13-1.05,51.55.51,51.43.83,56-51.36.7-8.14,3.31-16.1,4.67-24.2,7.5-44.76,38.35-79.75,51.06-122.31a176.88,176.88,0,0,0-55.4-.37c-9.48,51.33-25.16,101.3-32.52,153.17-4.75-52.21,11.69-101.3,20.65-151.45-20.87-6-41.92-3.8-63-1.35-2.52,45.15-5,90.3-7.88,141.08-14.12-49.71-16.47-95.74-23.2-141-16.39-3.37-32.82-2.93-49.25-.39l18.33,95.4c-22.61-29.48-41.59-60.18-50.76-95.87ZM1471,1635.64c.26-3.13,2-3.71,3-1.31.68,1.72.14,3.93.14,5.91-.56.38-1.18.76-1.8,1.13C1471.85,1639.46,1470.85,1637.5,1471,1635.64Z"/><path class="cls-1" d="M1267.27,448.5c35,78,70.66,155.84,113,230.18,13.55,23.77,30,47.19,58.6,56.67a23.82,23.82,0,0,0,3.07-1,23.82,23.82,0,0,1-3.07,1c9.47,16.42,18.86,32.89,28.31,49.32l1.6,2.79,30.47,53.23,9.59,16.74h45.94l-3.76-6.56-28.74-50.21,0,0c-15.43-28-31.08-55.83-46.59-83.77-5.91.14-10.71,2.47-15.17,5.47,4.46-3,9.26-5.33,15.17-5.47-2-18.19,1.67-37.19-8.59-54.19-48-79.58-78.7-168.14-128-247.08-7.06-11.32-12-24.09-20-34.69-12.42-16.56-33.5-18.35-50-15.77-15.2,2.37-8.67,22.8-10.84,35.27C1255.38,417.16,1260.64,433.71,1267.27,448.5Z"/><path class="cls-1" d="M1953.31,996.51c-8.5-32.76-16.92-65.54-25.5-98.29-13.1-50-36.27-94.66-70.34-135.8-10,23.67-14.92,45.28-16.34,68.26-3.44,55.66,2.92,110.73,7.69,165.94Z"/><path class="cls-1" d="M1701.91,855.67l89.2-1.15c-5.46-44.21-23.95-85.19-32.9-128.17-8.21-39.4-34-60.2-59.18-81.33-42,48.61-20.65,99.44-8.77,150.1C1695,815.12,1698.08,835.48,1701.91,855.67Z"/><path class="cls-1" d="M1829.2,996.49c-8.79-30.12-11.15-62.27-28.47-89.69-10.87,4.73-11.79,16.14-16,25C1752.21,999.79,1752.36,999.86,1829.2,996.49Z"/><path class="cls-1" d="M1766.05,1479.61c17.37-31.7,32.23-64.51,48.36-96.75,56.34-112.57,113.56-224.69,170.71-336.86,11.09-21.78,8.05-31.87-19.19-31.48-69.22,1-138.47-.2-207.7.61-21.87.26-31.69-2.56-18.27-26.61,9.43-16.9,14.78-36.07,22-54.23,7.09-12.45,13.8-25.13,21.34-37.3,13.06-21.07,4.73-25.53-16.72-25.43-150.65.73-301.31.68-452,.87H1302c-8.53.65-19.51-4.73-24,6.8-3.33,8.59.34,15.9,10,18.89q3.54,4.54,7.12,9.06c-4.35,3.32-4.3,6.59.14,9.77a7.37,7.37,0,0,0,0,4.41c8.39,24.06,15.58,48.67,31.28,69.44-4.61,7.51,13.11,20.43-5.93,24.43l-49.46.13h-12.62c-52.6-.22-105.21-.52-157.82-.63-38.41-.09-38.41,0-21.18,36.62,6.37,11.77,13,23.4,19.08,35.32,65.84,129.56,132,259,197,388.94,10.67,21.34,23.78,29.76,48,29.54,126.05-1.1,252.13-.91,378.19-.12C1742.93,1505.17,1755.57,1498.74,1766.05,1479.61ZM1382.81,1315.7c-8,21.29-24.43,34.64-47,33.22-24.68-1.56-45.09-15.63-56.94-37.1-6.68-12.08-2.59-24.85,16.12-23.8h0c2.41,26.41,22.81,34.7,43.22,34.91,22.8.24,29.42-20.77,30.92-39.62,2.31-29.22-7.44-55.49-30.94-73.74-16.28-12.64-34.17-17.15-43.67,9.37-9.65.59-20.23.69-20.83-12-.44-9.41,5.31-17.36,13.85-22.6,25.52-15.64,62.17-7.62,81,22.29C1389.6,1239.89,1397.37,1277,1382.81,1315.7Zm245,10c-3.08,10.42-7,19.33-20.75,18.17-12.8-1.07-17.42-8.17-19.14-20-6.7-45.87-32.58-83.71-51.89-126.89-21.2,43.24-40.36,84-52.76,127.59-2.76,9.67-6.34,18.46-17.9,17.61-11-.8-19.08-5.78-20.76-18.72-6.55-50.42-28-96.88-39.54-146a149.69,149.69,0,0,1-4-27.36c-.57-12.4-1.54-28,15.45-28.55,16.52-.49,21.86,13.17,21.54,28.17-.92,42.92,17.88,80.88,29,128.53,22.42-46.52,40.74-86.29,50-129.73,2.32-10.93,2.47-23.3,19.2-22.6,17.08.7,18.76,11.94,20.3,25.3,5.38,46.53,36.7,82.37,53.74,131.57,14.68-52.59,48.67-92,46.49-144.26-.54-12.77,7.26-22.73,20.34-22.93,15.52-.23,16,12.63,16.69,24.5,1.71,28.19-12,52.12-22,76.67C1657.08,1253,1639,1287.94,1627.82,1325.67Zm64.52-56c-2.47-24.09,7.76-50.4,27.25-73.24,18.44-21.61,50.9-27.22,72.77-13.94,12.84,7.8,17.79,20,9.57,31.06-9.36,12.55-14.09-2.89-20.64-7.49-15.13-10.63-29.89-5.82-42.77,3.94-22.85,17.32-33.19,62-22,87.62,7.19,16.39,18.86,23.22,36.69,21.44,12.71-1.28,20.5-8.38,26.76-18.43,5-8,11.12-18.06,21.2-9.06,8.33,7.42,3,17.37-3.59,24.58-18.7,20.52-39.5,37-69.79,27.62C1693.78,1333.18,1692.91,1304.63,1692.34,1269.67Z"/><path class="cls-1" d="M1041.56,929.41v66.73l63.41-2.7C1104.88,952.37,1075.06,941,1041.56,929.41Z"/><path class="cls-1" d="M614.88,2319.2c-12-2.6-15.79-6.3-15.84-18-.18-32.49,0-65,.23-97.5.05-7.75,1.92-14.87,11.23-17.06,2.41-.54,5.1-1.78,4.19-5.06-.82-2.83-3.47-3.33-6.11-3.2-7.16.37-14.33,1.33-21.49,1.19-10.27-.18-20.66-2.42-30.79-1.5-.69,0-1.42.13-2.1.18v8.3a73.67,73.67,0,0,1,11.45,1.28c6.16,1,9.76,4.29,9.85,10.45.32,35.26.78,70.52-1.23,105.79-.41,7.75-2.87,13.78-10.95,16.51-2.46.83-4.79,2.47-3.69,5.48,1,2.78,3.87,3.1,6.39,2.6,15.87-3,31.75-1.51,47.62,0,3.65.37,8.53.46,8.9-4.42C622.86,2319.88,618.07,2319.88,614.88,2319.2Z"/><path class="cls-1" d="M564.81,2130.22v-11.3a483.58,483.58,0,0,1-69.65,1.31c-4.84-.32-11.61-2.86-12.29,4.53-.56,5.77,5.89,6,10.37,7,19.61,4.1,23.59,9.81,18.06,29.18-10.68,37.31-26.45,72.82-41.66,108.52-1.11,2.55-1.67,6.21-5.39,6.27s-4.41-3.6-5.41-6.15q-24.3-60.43-48.42-120.93c-3.35-8.38-2.05-14.78,7.51-18.07,3.85-1.3,9.38-2.42,7-8.26-1.87-4.65-7-4.4-11.18-3.72-17.75,3-35.57,2.73-53.39.87-3.91-.44-8.32-1.12-9.5,3.66s3.29,6.52,6.77,7.7c9.31,3.1,14.46,10,18.13,18.38,6.39,14.71,12.54,29.49,18.93,44.2a27.13,27.13,0,0,1-.25,23.22q-11.91,25.89-24,51.65c-1.18,2.61-2.05,6.46-5.28,6.64-4.34.19-4.59-4.34-5.71-7.32-14.84-37.62-29.8-75.25-44.26-113.05-6.09-16-5.34-16.83,10.43-24.84,3.16-1.61,6.64-3.1,5.34-7.26-1.24-3.91-5-4.1-8.57-3.35a135.22,135.22,0,0,1-58.17-.13c-3.54-.8-7.14.19-8.69,3.73-1.74,4,1.24,6.58,4.53,7.7,12.23,4.22,17.13,14.34,21.41,25.14,20.68,51.65,41.16,103.43,62.21,155,2.8,6.83,2.36,18.62,12.17,18.37,8.38-.18,8.94-11.23,11.61-18,11.36-28.06,23.4-55.88,38.55-86.3,4.72,9.69,8.26,16.33,11.24,23.16,10.37,24,20.48,48.11,30.85,72.14,1.62,3.73,3.11,8.57,8.39,8.2,4.46-.32,5.58-4.72,7.32-8a34.7,34.7,0,0,0,1.93-4.66c20.3-53.2,43.95-105,66.3-157.38C541,2137.17,548.37,2130,564.81,2130.22Z"/><path class="cls-1" d="M1072.36,2314.25c-9.33,3.55-14-2.25-18.22-8.76-10.32-15.86-20.42-31.87-30.92-47.62-2.57-3.84-1.49-5.2,2.14-6.78,15.7-6.84,22.41-19.63,21.52-35.76-1-18.21-12-30.21-30.39-35.89-11.28-3.49-22.82-3.82-34.36-2.57-15,1.61-29.94,1.52-44.94.94-3.64-.15-8.56-1.68-9.22,3.42s4.48,4.78,8,5.51c12.25,2.53,15.14,5.61,15.4,18.2.32,15.78.07,31.57.07,47.35H951c0,15.78.1,31.56,0,47.35-.07,8.38-1.75,16.08-10.69,20-2.06.9-3.95,2.51-3.3,5,.8,3,3.61,3.32,6.12,2.86,15.55-2.82,31-2.43,46.6.06,3,.48,7.06.89,7.86-3s-3.05-4.55-6.1-5.46c-13.39-4-16.31-7.73-16.74-21.86-.27-9-.22-17.95-.21-26.93,0-12.53,3.57-15.25,16-12.57,6,1.29,10,4.91,13,9.88,5.24,8.79,10.4,17.63,15.56,26.47,5.47,9.37,10.41,19.12,18.29,26.85,10.61,10.39,27.16,10.68,37.33.78,1.56-1.52,3.31-3.1,2.41-5.58C1076.22,2313.89,1074.12,2313.57,1072.36,2314.25Zm-64.75-68.15c-8.64,1.65-17.43,1.12-26.17.66-4.63-.25-6.61-3-6.67-7.34-.07-5.56,0-11.13,0-16.7a136.7,136.7,0,0,1,1.44-25.88c.66-4.44,2.32-7.44,7.11-8.51,12.07-2.71,26.32,2.12,33.28,12.32,7.85,11.51,9.44,24,3.79,37C1018.07,2242.93,1012.91,2245.1,1007.61,2246.1Z"/><path class="cls-1" d="M785.84,2177.09a153.79,153.79,0,0,1-41.11-.35c-3.55-.47-8.64-1.34-9.49,3.35-1,5.42,4.77,5.07,8,5.51,11.34,1.55,17.09,7.86,18.46,18.85,3.35,26.83,1.69,53.71.89,80.58,0,.39-.84.76-1.3,1.15-2.54-.33-3.46-2.5-4.77-4.15-26.39-33.42-54.12-65.73-82-97.93-3.24-3.74-6.27-7.77-12.12-7.71-10,.11-20,0-30,0-2.87,0-6.1.27-6.65,3.74-.68,4.2,3,4.93,5.95,5.77,19.28,5.48,22.61,9.24,22.41,28.87-.27,25.37-.83,50.74-2,76.08-.54,11.58-.62,24.19-15.29,28.91a3.66,3.66,0,0,0-2.49,4.47,4.19,4.19,0,0,0,4.17,3.13,35.09,35.09,0,0,0,7.46-.24,131.66,131.66,0,0,1,38.28-.23c3.45.46,7.79,1.35,8.73-2.86,1.09-4.87-4-4.46-7-5.49a32.22,32.22,0,0,0-3.65-.85c-11.61-2.5-15.09-6.56-16-18.26a468.94,468.94,0,0,1-1.34-51.94c.35-10.36,1.21-20.7,2-32.88,3.6,3.33,5.89,5.27,8,7.41,30.82,31.73,57.63,66.84,86.19,100.46,2.5,2.94,4.74,7.76,9.48,6s3.34-6.81,3.4-10.68c.55-36.82,1.14-73.65,1.41-110.47.08-10,1.39-18.62,13.05-21.62,2.41-.62,4.73-2.32,4.07-5.39C791.73,2176.71,788.79,2176.69,785.84,2177.09Z"/><path class="cls-1" d="M926.18,2286.21c-3.09-.82-4.3,2.06-5.14,4.35-4,11-13,16-23.23,20-11.1,4.27-22.57,4.27-34.19,4-8.12-.22-12.09-4.55-12.62-12-.56-7.7-.72-15.46-.56-23.19.58-28.42-4.83-25.61,28.26-25.05a20.4,20.4,0,0,1,2.79.33c8.24,1.31,13.79,5.33,15,14.11.44,3.26.73,7.78,5.51,6.93s3.25-5.39,3-8.54c-.84-12-3.22-23.94-1-36,.64-3.37,1.05-7.59-3.14-8.61-4.69-1.15-5.36,3.5-6.19,6.54-2.43,8.94-8.76,12.35-17.36,12.72-5.62.24-11.26,0-16.88.24-7.29.28-10.14-3.27-9.93-10.2.2-6.49,0-13,0-19.5.05-24.88,2.07-26.92,27.56-24.71,14.55,1.26,30.68,1,32.34,21.67.16,2,1.44,4.44,4.24,4.08,3.28-.42,3.46-3.22,3.42-5.7-.15-8-.4-16.09-.7-24.13-.24-6.46-4.07-8.59-10-7.79-17.13,2.29-34.36.53-46.28,1.1-19.63,0-34-.06-48.39,0-3.62,0-8.51-.69-9,4.32-.47,4.82,4.49,4.22,7.58,4.93,13,3,15.69,5.9,15.72,18.84.08,32.19-.05,64.37-.1,96.56,0,7.85-1.56,14.86-10,18.13-2.7,1-5.55,2.36-4.79,5.86.94,4.34,4.78,3.6,7.65,3,14.25-2.88,28.64-2.29,43-1.93,10.91.28,21.81,1.71,32.72,1.83,18.65.2,35.05-17.53,33.81-35.91C929,2289.91,929,2287,926.18,2286.21Z"/><path class="cls-1" d="M1211.3,2178.39c-13.41,2.5-26.74,1.46-40.13-.11-2.91-.34-7.24-1.13-7.87,2.89-.75,4.68,3.87,4.68,7.1,5.47,13.15,3.25,16.19,8.88,9.8,20.79-6.15,11.46-13.53,22.26-20.15,33.48-3.4,5.77-6.11,5.09-9.1-.2q-11.45-20.24-23-40.43c-3.82-6.71-3.44-11.76,5.35-13.78,2.75-.63,5.9-1.81,5.12-5.39-.64-3-3.74-3.12-6.22-2.84-16.19,1.83-32.36,2.63-48.56.05-2.47-.39-5.52-.1-6.22,2.83-.87,3.58,2.1,4.88,4.93,5.48,9.71,2.08,15.59,8.62,20.32,16.61,5.37,9.08,10,18.73,16.27,27.11,15.41,20.44,20.47,43,18,68.07-1.5,15.06-2,17-16.91,21.07-3.26.89-7.69,1.51-6.53,6.07,1,4.1,5.27,3.34,8.75,3.14,10.28-.57,20.58-1,30.87-1.5,0,.38,0,.76,0,1.13,9.06,0,18.13.08,27.19,0,2.82,0,6.15-.3,6.26-4.05.1-3.08-2.82-3.77-5.28-4.28-1.83-.38-3.73-.37-5.59-.61-10.56-1.35-14.94-5.73-15.38-16.33-.4-9.58.13-19.21-.39-28.77-.5-9.09,2.09-16.88,7-24.45,10.35-15.85,20.28-32,30.32-48,4-6.44,8.72-12.08,16.22-14.79,2.68-1,5.73-2.26,4.85-5.76S1214,2177.89,1211.3,2178.39Z"/><path class="cls-1" d="M1513.74,2305.53c-3.26,0-6.54.52-9.76.24-15-1.3-45.94-22.15-42.32-29.19,9.14-17.73,6.86-39.75,21.35-55,9-9.44,4.58-13.92-5.36-15.28-9-1.21-18.24-.25-27.37-.25v-1.35c-5.87,0-11.76-.28-17.61.07-6.72.41-16.6-3.19-18.28,6.16-1.73,9.53,8.42,9.72,15,11.53,15.84,4.37,19.37,16,17.89,30.07-1.1,10.43-5.84,14.26-14.92,5.61-25.87-24.64-52.68-48.42-73.22-77.95-4.44-6.39-8.85-12.93-9.61-21-.88-9.32-.52-18.65,8.92-23.87,8.48-4.68,16.52-1.26,23.83,3.59,11.56,7.66,16.52,19.56,20.77,32,1.52,4.43,4.47,8.4,10.1,7,4.25-1.07,6.15-4.83,6.17-8.91,0-11.62.13-23.27-.6-34.86-.35-5.6-3.92-10.22-10.43-8.63-7.64,1.86-14-1.13-20.84-3.23-46.25-14.19-80.27,14.84-70.75,61.36,2.65,12.9-6.09,13.82-12.93,17.62-40.61,22.55-46.42,66-13,98.59,30.17,29.42,83.23,38.08,124.12,18.45,13.31-6.39,23.74-6.5,36.5.35,21,11.26,43.31,14.19,65.85,3.82,5.72-2.63,14.08-5.08,12.68-12.8C1528.07,2299.74,1519.55,2305.6,1513.74,2305.53ZM1413,2297.64c-1.53,6.23-9.2,6.09-14.71,7.24-4.39.93-9,.66-11.19.79-35.38-.44-67.25-23.37-78.28-54.32a46.54,46.54,0,0,1-2.2-22.78c1.33-9,7.1-15.08,15.39-18.41,9.21-3.7,12.71,4.39,17,9.4a817.16,817.16,0,0,0,64.57,66.91C1407.24,2289.82,1414.31,2292.24,1413,2297.64Z"/><path class="cls-1" d="M1694.61,2118.42c-22.34,2.44-44.79,4.87-67.38,3.74-11.48,0-23-.09-34.43.05-3.6.05-6.94,1.22-7,5.64,0,3.54,2.52,5.07,5.64,5.8,3.31.78,6.63,1.54,10,2.21,11.24,2.28,16.92,9.23,16.91,20.43,0,45.87,0,91.75-.36,137.62-.06,8.7-2.59,16.62-11.79,20.71-3.79,1.68-8.68,3.85-6.77,9.08,1.8,4.91,6.69,4,11,3.37,17.79-2.56,35.57-1.54,53.39.1,16.51,1.52,33.2,3,49.6,0,62.31-11.32,98.18-61.31,89.75-124.37C1796.09,2149.59,1747.87,2112.62,1694.61,2118.42Zm51.3,175.6c-20.78,18.87-45.53,23.35-72.47,18.79-12.31-2.08-19-9.56-21-22.09-3.77-23.93-1-47.95-2.29-71.46,1-22.32-.22-44.19,1.25-66.11,1-14.52,8.92-18.34,21.4-19.23,50.42-3.59,91.59,30.7,96,80.69C1771.43,2243.84,1769.91,2272.22,1745.91,2294Z"/><path class="cls-1" d="M2753.38,2314.25c-9.33,3.56-14-2.27-18.21-8.77-10.32-15.86-20.42-31.88-30.92-47.62-2.58-3.86-1.46-5.24,2.16-6.78,7.07-3,12.82-7.51,16.61-14.38,13.51-24.54-.66-52-30-58.59-19.39-4.38-38.63,1.33-57.95.35-6.24-.28-12.48-.53-18.72-.86-3.23-.17-6.92-.4-7.43,3.64s3.18,4.57,6.29,5.3c15.68,3.64,17.32,5.26,17.35,21.2.06,30.64-.26,61.28-.53,91.91-.08,8.38-1.77,16.08-10.71,19.95-2.07.89-4,2.52-3.28,5,.81,3,3.61,3.31,6.12,2.85,15.56-2.82,31.06-2.43,46.61.06,3,.48,7.06.88,7.85-3s-3.08-4.55-6.12-5.45c-13.38-4-16.3-7.73-16.73-21.88-.27-9-.22-17.95-.21-26.92,0-12.52,3.59-15.25,16-12.56,6,1.29,10,4.92,13,9.89,5.24,8.79,10.4,17.64,15.56,26.48,5.47,9.37,10.41,19.11,18.3,26.84,10.6,10.39,27.17,10.67,37.33.76,1.56-1.53,3.3-3.1,2.38-5.58C2757.24,2313.88,2755.15,2313.58,2753.38,2314.25ZM2689.13,2246c-8.94,1.84-18,1.27-27.07.71-4.76-.3-6.23-3.53-6.27-7.69,0-5.57,0-11.14,0-16.7a136,136,0,0,1,1.52-25.89c.67-4.55,2.7-7.57,7.49-8.09,12.84-1.39,24.59.86,32.53,11.94,8.14,11.35,9.67,23.92,4.34,36.94C2699.47,2242.56,2694.45,2244.88,2689.13,2246Z"/><path class="cls-1" d="M2599.13,2286.35c-3.25-1.07-4.47,1.73-5.27,4-4.23,11.75-14,16.81-24.85,20.76-10.56,3.83-21.43,3.67-32.4,3.47-8-.15-12.57-4.16-12.86-11.74-.51-13.9-.37-27.83-.34-41.75,0-4.37,2.44-7,7-6.92,8.11.11,16.26,0,24.33.73s13.08,5.27,14.3,13.54c.48,3.26.6,7.8,5.28,7.29,4.89-.54,3.56-5.15,3.33-8.29-.93-12.62-3.28-25.18-.79-37.89.55-2.82.1-6.12-3-7.07-4.25-1.29-5.36,2.53-6.12,5.37-2,7.69-6.42,12.88-14.65,13.51-7.46.57-15,.5-22.47.43-5-.05-7.23-3.12-7.29-7.85q-.13-9.75-.15-19.5c0-27.44,3.3-30.25,31-26.59.93.12,1.84.43,2.77.47,13.72.64,24.76,4.47,26,20.64.16,2,1.24,4.47,4,4.36,3.43-.14,3.74-2.92,3.7-5.4-.14-8.35-.36-16.7-.76-25-.29-6.05-4.18-7.9-9.66-7.18-17.14,2.27-34.36.56-46.26,1.11-19.65,0-34-.05-48.42,0-3.61,0-8.61-.81-9.23,4-.69,5.47,4.88,4.57,8.15,5.33,12.18,2.86,15.05,5.91,15.09,18.43.08,32.5-.05,65-.11,97.49,0,8-2.11,14.7-10.62,17.75-2.84,1-5.25,2.84-4.08,6.22s4.57,3,7.23,2.46c16.43-3.26,33-2.19,49.54-1.85,9.36.19,18.69,1.71,28,1.67,17.65-.06,34.14-19.1,32.21-36.51C2601.62,2289.64,2601.5,2287.13,2599.13,2286.35Z"/><path class="cls-1" d="M1960.51,2242.51c-12.24-6.19-24.76-11.85-36.86-18.29-8.44-4.5-11.28-12.32-9.3-21.38s7.92-15,16.91-16.74c12.24-2.35,23.45,0,32.83,9.17,7.94,7.79,11.56,17.44,14.32,27.7.76,2.81,2.11,5.63,5.68,4.79,2.92-.69,3.07-3.6,3.06-6.12,0-8-2.75-15.9-1.68-23.17,0-1.78,0-2.7,0-3.63-.08-6.74,3.75-16.85-10.38-11.17-1.65.66-4.6-1.46-6.81-2.57-10.37-5.2-21.41-6.6-32.82-5.63-27,2.27-45.5,26.13-39.17,50.38,3.12,11.94,11.31,19.71,21.9,25.3,13.24,7,26.82,13.36,39.76,20.85,10.92,6.32,15,16,12.53,25.61a28.49,28.49,0,0,1-25.68,21.07c-9.62.73-17.85-2.23-25.17-8.14a60.31,60.31,0,0,1-20.48-30.42c-1.08-3.67-1.64-9.47-6.84-8.22-5.76,1.38-3.31,7-2.71,11.07,1.11,7.65,2.81,15.25,3.27,22.92.5,8.19,4.37,13.17,11.75,16.17,13,5.26,26.34,7.82,40.32,6.47,29.53-2.87,49.12-29.22,42-56.38C1983.24,2257.83,1973.2,2248.94,1960.51,2242.51Z"/><path class="cls-1" d="M2136.91,2186.61c-.7-6.33-4.18-8.64-10.09-8.18-30,2.33-60,.91-90,.83-8.73,0-17.46-1.06-26.2-1.15-4.33,0-9.12.43-10,6.25-1.29,8.87-2.65,17.74-3.6,26.65-.37,3.5-1.47,8.6,3.23,9.53,5.78,1.16,6-4.64,6.52-8.22,1.62-11.73,9.06-16.9,19.87-19.13a72.93,72.93,0,0,1,14.87-1.59c13.55,0,15.38,1.63,15.47,14.74q.35,46,.47,91.94c0,15.46-1.07,16.66-16.3,21.16-3.1.92-7.82,1.3-6.87,5.93.91,4.34,5.31,3.65,8.64,3.13,15.25-2.42,30.57-1.44,45.87-1.19,4,.07,8.05,1.1,12.09,1.35,2.83.17,6.1-.08,6.42-3.77.26-3.09-2.58-3.83-5-4.49-1.21-.33-2.41-.68-3.62-1-15.2-3.64-17.27-5.68-17.72-21.31-.44-15.47-.09-31-.09-46.43h-.34c0-15.17-.08-30.34,0-45.51.09-11.53,2.84-14.25,14.31-14.48a84.59,84.59,0,0,1,15.86,1.11c10.7,1.81,17.71,7.05,20,17.94.59,2.82.83,7.14,5,6.66,4.93-.58,5-5.17,4.55-8.8C2139.42,2201.25,2137.72,2194,2136.91,2186.61Z"/><path class="cls-1" d="M2887.39,2178.27c-13.4,2.3-26.73,1.72-40.13,0-3.07-.4-7.93-1.55-8.39,3.23-.44,4.52,4.3,4.36,7.53,5.14,12.23,3,15.66,8.66,10,19.42-6.49,12.32-14.3,24-21.54,35.89-3.31,5.46-5.85,2.87-8-.88-7.75-13.43-15.4-26.92-23.09-40.38-4-7-3.85-12.35,5.54-14.38,2.44-.52,5.22-1.7,4.78-4.77-.55-3.74-4-3.63-6.7-3.31-16.2,1.92-32.36,2.47-48.57,0-2.45-.37-5.36.05-5.87,3.21s2,4.46,4.52,5c10.93,2.14,16.87,9.93,22,18.67,5.05,8.54,9.28,17.69,15.26,25.55,15.53,20.43,20.18,43.08,17.74,68.12-1.41,14.49-2.37,16.94-16.37,20.56-3.3.85-7.71,1.29-7.14,5.69s4.9,4.13,8.33,3.63c10.58-1.52,21.22-.89,31.83-.38,8.75,0,17.51.06,26.25,0,2.77,0,6.19.08,6.69-3.56s-2.91-4.22-5.61-4.85a39.59,39.59,0,0,0-4.65-.49c-11.21-1.37-15.49-5.67-15.92-16.79-.36-9.27.16-18.59-.38-27.85s2.11-17.48,7.25-25.31c10.06-15.31,19.65-30.9,29.33-46.44,4.34-7,9.17-13.28,17.38-16.18,2.7-.95,5.55-2.37,4.33-6C2892.79,2177.81,2889.76,2177.86,2887.39,2178.27Z"/><path class="cls-1" d="M2343.72,2292.29c-3.31-1.37-5,2-6.41,4.17-6.86,10.9-17.34,15.4-29.56,17.46-7.48,1.27-14.95,1.07-22.42,1-13-.17-15.79-3-16-16-.66-31.86,1.26-63.68,2.09-95.51.2-7.85,2.75-14.53,10.83-18,2.48-1.06,5.74-2.37,4.63-5.94s-4.69-3.83-7.83-3.41a173.39,173.39,0,0,1-46.69,0c-3.31-.45-7.61-.93-8.34,3.62-.67,4.14,3.57,4.47,6.36,5.41,15.92,5.34,17.31,7.18,17.31,23.85v11.13l.34,0c-1.26,28.09-2.56,56.17-3.74,84.26a15.64,15.64,0,0,1-8.12,13.72c-2.33,1.38-5.72,2.68-4.32,6.13s5.16,3,8.21,2.5c15.87-2.75,31.7-2.05,47.57,0a227.44,227.44,0,0,0,23.29,2.13c18.3.49,31.52-10.45,34.81-28.38C2346.22,2297.53,2347.43,2293.82,2343.72,2292.29Z"/><path class="cls-1" d="M2474.1,2292.15c-2.59-1.09-4.25.87-5.34,2.64-10.76,17.56-28.17,19.85-46.52,20.07h-4.68c-15.52-.19-17.82-2.52-18.09-17.79-.54-31.25,1.34-62.45,2.13-93.67.18-7,2.08-13.43,9-17.18,2.84-1.53,7.66-2.34,6.35-6.68-1.54-5.07-6.45-3.69-10.42-3.23a172.9,172.9,0,0,1-42-.1c-3.84-.48-9.19-2.09-10.2,3.28-.95,5,4.62,5.14,7.94,5.9,8.83,2,15.34,6.27,15.43,15.91.3,34.63-1,69.21-3.3,103.77-.39,5.81-3.11,9.85-8,12.83-2.32,1.43-5.74,2.7-4.47,6.1,1.34,3.63,5.13,3.28,8.14,2.6,12.08-2.71,24.29-1.81,36.42-1.28,12.77.56,25.31,3.87,38.19,3.54,16.26-.4,31.33-15.23,31.61-31.1C2476.37,2295.6,2476.58,2293.18,2474.1,2292.15Z"/><path class="cls-1" d="M1872.15,2319.14c-10.81-2.3-15.06-6.13-15.13-16.63q-.36-50.09.25-100.17c.07-6.54,1.77-13,9.8-15.15,2.82-.75,7-1.63,5.31-5.93-1.33-3.49-5-2.9-8.17-2.55a165.5,165.5,0,0,1-42-.59c-4.31-.62-11.07-2.56-11.92,3.42-.88,6.27,6.1,5.71,10.44,6,7.61.54,12.74,3.38,12.76,11.62.07,35.22.82,70.45-1.37,105.65-.47,7.55-3.16,13.06-10.71,15.69-2.44.85-4.84,2.41-4,5.39.84,2.83,3.7,3.28,6.23,2.82,15.56-2.84,31.09-1.91,46.74.12,3.8-.27,9.21,1,9.91-4.24C1881,2319.58,1875.56,2319.87,1872.15,2319.14Z"/><path class="cls-1" d="M2207.41,2319.11c-10-1-14.63-7.05-14.69-16.09q-.34-50.54.26-101.09c.07-6.15,1.69-12.36,9.24-14.57,2.75-.81,7.1-1.35,5.93-5.61s-5.21-3.32-8.67-3a169.76,169.76,0,0,1-41.1-.6c-4.54-.64-11.7-2.91-12.44,3.74-.66,5.88,6.44,5.35,10.84,5.68,7.2.54,12.26,3.27,12.3,11,.18,35.53.92,71.07-1.37,106.57-.47,7.19-3.05,12.44-10.15,15.09-2.64,1-5.64,2.34-4.27,5.93,1.05,2.77,4,2.92,6.46,2.45,15.56-2.88,31.08-1.78,46.65.18,3.89-.3,9.37.77,9.65-4.64C2216.3,2319.51,2210.93,2319.47,2207.41,2319.11Z"/><path class="cls-1" d="M244,639.32a29.94,29.94,0,0,0-1.85-8.75c-.94-2.87-2.46-5.87-6.13-5.48s-4.81,3.41-5.26,6.47c-1.08,7.44-1.71,15-2.94,22.36-8.24,49.58-45,79.83-93.76,77.21-44.53-2.39-76-26.46-98.7-62.06-18.49-29-20.71-61.1-.5-90.69,20.55-30.07,50.32-42,86.65-35.61,13,2.3,24.83,7.45,36.45,13.35,3.59,1.82,7.93,3.36,11.07-.42,4-4.81.22-8.86-3.12-11.48a493.79,493.79,0,0,1-48-42.64c-3.28-3.35-9.8-5.19-10.73,1.09-2.14,14.44-13.94,14.31-23.31,17.52-54.1,18.54-87,67.2-83.65,124.07,1.79,30.43,13.57,57,30.38,81.68l4,4.5c7.12,6.19,13.87,12.87,21.4,18.5,39.2,29.29,81,29.62,122.75,6.19C223.41,730,244.55,690.3,244,639.32Z"/><path class="cls-1" d="M386,373c21.46-6.19,27.47-4.37,38.68,14.52,15.12,25.5,29.9,51.21,44.09,77.23,6.43,11.78,13.59,24.34,2,37.68a4.09,4.09,0,0,0,.53,5.86,5,5,0,0,0,6.06.29,62.41,62.41,0,0,0,8-5.51c10.6-8.83,22.47-15.61,34.85-21.56,4.08-2,10.76-3,8.43-8.87-2.49-6.2-8.07-.76-12.28-.3a18.86,18.86,0,0,0-4,1.5c-8.89,3.29-16.48,1.28-22-6.17-19.89-26.67-36.53-55.31-51.7-85.86,5-1.47,8.37.31,11.74,1.19,49.39,12.9,96.84,31.54,145.13,47.67,4.18,1.39,9.2,4.77,12.84-.05,3.12-4.14-.67-8.13-2.77-11.71C584,382.19,562.53,345.48,540.74,309c-6.09-10.21-10.42-19.75-.3-30.07,2-2.1,3-5.19.47-7.74s-5.37-1.45-7.74.49c-12.65,10.37-26.73,18.26-41.64,24.86-3.75,1.65-9.32,3.87-7,9.09,2.51,5.65,7.88,1.83,11.33.34,12.22-5.31,21.6-2.1,29.4,7.88,19.21,24.57,33.9,51.94,48.92,79.1.17.31-.57,1.14-.89,1.74-2.72,1-4.9-.62-7.19-1.47-46-17.2-92.72-32.53-139.48-47.67-5.45-1.76-10.83-3.73-16.55-.13-9.46,6-19.12,11.58-28.65,17.41-3.1,1.89-6.8,4-4.88,8.33S382.62,373.92,386,373Z"/><path class="cls-1" d="M598.28,251c23.4-2.35,28.31.22,36.83,22.26,10.43,27,20.59,54.09,30,81.42,4.38,12.62,9.79,26.18-3.91,37.53a4.27,4.27,0,0,0-.83,5.86,4.79,4.79,0,0,0,5.77,1.65,39.92,39.92,0,0,0,7.9-3.43A151.52,151.52,0,0,1,715,379.62c3.9-1,8.94-1.87,8.22-6.76-.85-5.72-6.13-3.41-9.78-2.95-21.12,2.66-23,1.64-31.92-17.88-1.34-2.92-2.88-5.75-4.26-8.65-11.48-24.1-20.09-49.25-28.17-74.81,4.95-1.35,7.87,1.24,11,2.63,47,20.89,91,47.25,136.34,71.24,3.66,1.94,7.82,5.49,11.83,2s1-8.1-.46-11.95c-15.32-40-30.63-80.07-46.26-120-4.21-10.75-6.58-20.52,4.62-28.78,2.67-2,4.44-5.21,1.51-8.35-2.39-2.57-5.25-1.4-7.89.1a176.37,176.37,0,0,1-44.17,17.25c-4,1-9.84,2.26-8.82,7.61,1.2,6.28,7.24,3.5,10.85,2.57,13.42-3.46,22.28,1.63,28.48,13.12,14.63,27.14,24.43,56.26,34.95,85.08.16.45-.54,1.22-.93,2-2.69.37-4.68-1.28-6.82-2.51-42.57-24.55-86.13-47.3-129.79-69.87-5.07-2.62-10-5.68-16.28-3.12-10.67,4.39-21.43,8.54-32.12,12.87-3.07,1.24-6.43,2.87-5.6,6.82C590.5,252.09,594.75,251.34,598.28,251Z"/><path class="cls-1" d="M377,575.68c39.28-32.89,43.59-88.91,9.91-128.89-32.86-39-83.09-42.32-124.61-8.19-43.13,35.45-49.42,89.58-15.17,130.5C282.57,611.47,331.27,613.94,377,575.68ZM259.69,456.05c18.55-19.41,42-23.48,66.6-14.82,28.88,10.17,49.25,30.24,59.65,59.08,7.9,21.89,5.9,43.1-10.54,61.39-17.6,19.57-39.46,24.11-63.85,17.07-19.25-5.55-34-17.74-46.06-33.45-5.76-7.27-11.22-14.71-15-23.33C240,498.18,241.13,475.46,259.69,456.05Z"/><path class="cls-1" d="M828.19,163.29c14.12-1,18.43,1.56,22.74,15.44,11,35.49,21.77,71.05,32.67,106.57,2.8,9.13,3.19,17.6-5.63,24.16-2.81,2.09-4.62,5-2.1,8.27,2.2,2.89,5.34,1.68,7.89.42a245,245,0,0,1,31.06-12.43c17.15-5.75,35.08-8.29,52.34-13.43,21.27-6.32,33.24-29.26,26.58-50.35-1-3.06-1.83-7-5.66-6.93-4.32.09-4.16,4.34-4.41,7.43-.89,11.17-7.07,19.07-15.27,26.18-11.54,10-25.3,14.85-39.69,18.75-9,2.43-14.93-.75-18.08-8.85-3.23-8.31-6-16.82-8.5-25.39-9.06-31.7-14-26.92,22.53-37.22,10.72-3,20-.92,25,10.64,1.37,3.2,3.47,7.2,7.94,5s2.13-6.28.95-9.45c-5-13.33-12.08-25.93-13.7-40.43-.44-4-1.38-8.74-6.29-8.57-5.6.19-4.84,5.56-4.72,9.2.31,9.52-4.12,15.85-12.72,19.16-7.38,2.85-15,5-22.62,7.34-5.93,1.82-9.8-.45-11.63-6.22-2.27-7.15-4.56-14.3-6.76-21.47-9.22-30.07-6.41-34.12,25.42-39.78,16-2.85,31.26-5.71,38.85,13.84.84,2.15,3,4.45,6,3.21,3.59-1.49,2.86-4.66,2-7.37-3-9.16-6.07-18.31-9.38-27.36-2.44-6.66-7.51-7-13.2-4.38-18.12,8.31-37.7,12.25-50.58,16.89-21.37,6.57-36.91,11.25-52.38,16.17-4.22,1.35-10.7,1.83-9.56,8S824.32,163.55,828.19,163.29Z"/><path class="cls-1" d="M1030.43,277.62a186.74,186.74,0,0,1,40.53-6.2c5.72-.28,14.93,2.2,15.34-5.48.44-8.19-8.9-4.5-13.9-5.19-11.14-1.53-16.71-5.9-17.45-15.36-2.16-27.37,8.57-41.1,35.45-45.39l6.41-1c37.76-5.93,37.76-5.93,53,26.2,6.1,12.89,5.17,16.84-6.3,26.09-2.28,1.84-5,3.64-3.33,7,1.29,2.59,4.21,2.79,6.7,2.05a236.44,236.44,0,0,1,61.69-10.06c3-.08,5.82-1.49,6-5,.17-3.78-2.86-5.05-5.78-5-16,.43-23.35-10.43-30.46-22q-38.79-63.06-77.82-126c-2.72-4.37-4.17-12.17-9.87-11.49-6.22.75-6.47,8.79-8,14q-21,71.57-41.57,143.27c-3.27,11.35-5.64,23.08-15.79,31-2.27,1.77-4.9,4-3.32,7.16C1023.81,280.06,1027.25,278.49,1030.43,277.62Zm40.26-98.4q6.66-23.19,13.5-46.33c1.84-6.18,4.84-6.84,8.47-1.25q13.15,20.22,26.17,40.53c3.44,5.34,2.12,8.71-4.36,9.76q-9.08,1.45-18.16,2.88v.07c-6,1-12.1,1.9-18.15,2.88C1071,188.93,1068.82,185.7,1070.69,179.22Z"/><path class="cls-1" d="M1221.34,81.7c19.66,4.53,19.57,4.52,21.87,24.6,3.09,27,4.56,54.05,9.48,80.82,5.3,28.87,19.76,44.15,48.82,49.67,16.3,3.1,32.54,1.69,48.25-2.27,32.79-8.26,49.65-29.08,50.41-61.12a356,356,0,0,0-1.25-36.36c-1.51-19.22-3.55-38.38-3.89-57.69-.12-6.49.75-12,7-15.61,3.15-1.85,8.67-3.31,6.25-8.33-2.3-4.8-7.63-3.16-11.7-2.14-12.32,3.06-24.7,5-37.44,4-4.3-.32-10.1-.76-10.67,4.57-.73,6.71,5.84,5.9,10.21,6.35,13.85,1.42,19.21,5.79,21.21,19.56,1.84,12.71,2.71,25.56,4,38.35l-.2,0c1.22,12.08,2.91,24.14,3.58,36.25,1.76,31.69-10.87,51.25-39.18,58.19-28.73,7.05-60.61,5.9-69.1-39.58-5.19-27.83-7.21-55.88-8.82-84-.61-10.64.54-19.22,12.46-22.77,2.88-.86,5.36-3.09,4.06-6.46-1.22-3.16-4.49-3.38-7.41-2.88-6.74,1.17-13.4,2.78-20.14,3.85-12.14,1.94-24.38,2.11-36.65,2-3.6,0-7.72,1-8,5.53C1214.31,80.38,1218.21,81,1221.34,81.7Z"/><path class="cls-1" d="M1457.05,102.5c3,.51,4.74-1.35,5.59-3.92a33.16,33.16,0,0,0,1.79-7.27c1.11-11.65,8.51-17.69,19-20.82a76.92,76.92,0,0,1,21.32-3.21c14.08-.17,16.53,1.8,17.08,15.62,1.36,34.63,2.57,69.27,3.83,103.91.77,21.06.73,21.07-19.13,28.42-3.29,1.21-7.87,2.15-6.54,6.89,1.22,4.34,5.67,4,9.19,3.27,15.68-3.21,31.58-2.8,47.43-3.14,6.09-.13,12.2.7,18.31,1.05,3.66.21,8.17.54,9.14-3.67,1.11-4.84-3.62-5.26-7.06-6.15-1-.26-2.1-.52-3.16-.74-17.49-3.58-20-5.94-21-24.08-1.06-17.83-1.23-35.71-1.8-53.57h-.38c-.54-17.14-1.16-34.28-1.59-51.43-.37-14.6,2.51-17.65,17.21-18.15a128.91,128.91,0,0,1,15.09.51c13.64,1.13,23.08,7.28,26,21.38.62,2.93,1.43,7,5.84,6.35s5.33-4.87,4.81-8.38c-1.52-10.23-3.33-20.43-5.57-30.52-1.28-5.75-6.35-6.35-11.26-5.76-24.76,3-49.67,3-74.54,3.52-18.74.37-37.49,0-56.23.08-5,0-12.28-.36-13.21,4.91-2.33,13.26-4.82,26.69-4,40.31A4.63,4.63,0,0,0,1457.05,102.5Z"/><path class="cls-1" d="M2801.88,513.77c16.38,7.34,30.47,17.92,43.46,30.16,2.26,2.13,5.55,4.4,8.3,1.67,3.3-3.28.17-6.12-2-8.88-9.77-12.22-10.1-17.42-1.58-30.6,5.42-8.4,11.15-16.59,16.83-24.81,8-11.53,12.91-11.8,22.56-1.55,4.65,4.94,6.09,10.8,5.66,17.24-.76,11.37-1.63,22.73-2.5,34.09-.92,12-2.57,24.1-.26,36.16,3.12,16.26,18,27,33.63,24.4,2.39-.4,5-.72,5.78-3.53.72-2.51-1-4.16-3-4.67-11.42-2.81-11.43-11.67-11.19-20.53.55-20.72,1.46-41.42,1.81-62.14.08-5,1.75-5.88,6.18-5,8.73,1.82,17.13,1.16,25.22-3.1,27.26-14.38,31.25-47.72,8.84-72.13-15-16.3-36.19-23.24-53.26-36.33-5.54-4.21-11.1-8.38-16.61-12.62-2.84-2.2-6-4.8-9.11-1.49s-.1,6.2,2.29,8.83c12.09,13.4,12.58,15.84,2.57,30.39-19.33,28.11-39,56-58.64,83.87-5.36,7.62-11.74,13.67-22.39,11.58-2.44-.47-5.19-.25-6.22,2.44C2796.93,510.55,2799.29,512.6,2801.88,513.77Zm84.94-60.9c3.48-5.13,7-10.2,10.56-15.3a150.7,150.7,0,0,1,17.75-22.77c3.47-3.73,7.21-5.37,11.94-2.83,12.65,6.8,22,16.27,22.34,31.44.32,15.55-6.21,28-19.28,36.66-5.38,3.54-11.43,2.56-17,.22-9.37-3.93-17.31-10.23-25.26-16.43C2883.69,460.62,2884.2,456.75,2886.82,452.87Z"/><path class="cls-1" d="M2128.46,263.37c16.16.39,31.63,4.58,47.11,8.52,11.77,3,23.24,7.24,35,10.07,20.18,4.82,42.36-10.37,45.56-30.63.43-2.78,1.13-6-1.74-7.51-3.15-1.64-5.18,1.18-6.65,3.46-7.06,10.93-18.07,14.2-30.14,15.94-13.1,1.89-25.55-.93-38.07-4.14-8.76-2.23-12-7.92-10.74-16.16,1.31-8.5,3-17,5.13-25.31,7.66-30.72,1.1-29,36.85-20.22a22.47,22.47,0,0,1,2.95,1c8.62,3.47,13.65,9.2,12.75,19-.34,3.64-1.13,8.63,4.26,8.89s4.86-5.05,5.4-8.52c2.06-13.24,2.42-26.79,7.87-39.37,1.52-3.51,3-8-1.29-10.13-4.79-2.4-6.67,2.48-8.33,5.58-4.84,9.1-12.56,11.24-22,9.51-6.15-1.12-12.21-2.75-18.37-3.9-8-1.5-10.19-6.06-8.25-13.53,1.82-7,3.19-14.12,4.81-21.17,6.21-27,8.9-28.72,36-20,15.47,5,33,8.68,29.73,31.51-.33,2.24.47,5.18,3.58,5.48,3.67.36,4.56-2.64,5.12-5.34,1.84-8.77,3.55-17.57,5.21-26.37,1.34-7.07-2.28-10.34-9-10.95-19.16-1.74-37.41-7.9-50.51-10.23-21.27-4.84-36.86-8.46-52.49-11.91-3.93-.86-9.05-2.85-10.81,2.47-1.7,5.12,3.83,5.69,7,7.23,13.34,6.47,15.56,10.28,12.4,24.33-7.87,35-16,69.87-24,104.81-1.95,8.52-5.36,15.74-15.38,17.19-3.19.47-6.6,1.2-6.65,5.19C2120.85,263.14,2125.19,263.29,2128.46,263.37Z"/><path class="cls-1" d="M2604.32,413.59a180.67,180.67,0,0,1,35.92,16.57c4.5,2.75,10.53,8.89,14.56,3.57,5.07-6.71-4.43-8.53-8.06-11.58-6.82-5.73-10.94-11.73-6.89-20.58,10.31-22.53,29.46-29.82,51.87-19.84l7.62,3.4c32.82,14.74,33.35,15.66,28.32,49.46-.15,1-.26,2.05-.5,3.05-2.09,8.86-6,15.51-16.87,14.2-3.11-.37-6.94-.53-7.67,3.38s2.82,5.32,5.83,6.17a206.83,206.83,0,0,1,52.29,23.1c2.76,1.69,6.08,2.88,8.54,0,2.73-3.23.35-6.16-2.32-7.8-12.36-7.63-12.83-19.55-12.52-32,1.19-47.25,2.43-94.5,3.27-141.75.11-5.78,4.13-14.22-2.43-16.95-5.68-2.36-10.74,5-15.32,8.88Q2686.1,341,2632.54,387.5c-8.36,7.22-16.27,15.1-28.23,16.25-3,.29-6.89.52-6.82,4.72C2597.55,412.46,2601.39,412.59,2604.32,413.59Zm86.9-61.39c10.09-8.89,20.35-17.59,30.66-26.23,2-1.66,3.93-4.59,7.08-3,2.6,1.27,1.91,4.23,1.91,6.55,0,14.82-.1,29.65-.13,44.47,0,7.44-3.39,9.08-9.93,6-5.34-2.54-10.78-4.85-16.17-7.26l0,.1c-3.49-1.56-7-3.09-10.47-4.69C2681.75,362.39,2681.39,360.86,2691.22,352.2Z"/><path class="cls-1" d="M3121.09,568.07c-7.48-1-9.05-6.71-11.75-11.77-6.07-11.42-15.23-19.9-26.31-26.09-25.52-14.25-55.6-5.34-66.13,19.24-5.42,12.64-3.55,25,2,37.17,7.21,15.77,15.09,31.26,21.74,47.25,4.48,10.76,2.9,21.28-6.46,29.23-9.63,8.18-24.38,9.14-35.12,2.9-10.25-5.94-16.38-14.74-19-26.14a68.66,68.66,0,0,1,3.58-42.66c1.36-3.31,3.09-7.94-2-9.75-4.05-1.44-6.28,2.22-7.83,5.28-4.34,8.6-7.91,17.66-13.81,25.37s-5.27,15.16-.49,23.08c7.85,13,17.75,24,30.67,32.14,27.9,17.54,63.11,7.68,75.42-21,6.49-15.16,3.77-29.82-3.1-44.1-6.62-13.75-13.91-27.19-20.3-41-4.44-9.62-2-18.47,5.83-25.32s17.07-8.21,26.19-3.8c12.46,6,21,15.58,23.12,30.07,1.74,11.83-1,22.59-5.48,33.23-1.31,3.11-3.18,7,1,9.16s6.22-1.78,8.12-4.52c4.72-6.76,7.67-14.68,11.47-18.51,4.61-5.46,7.47-8.47,9.87-11.82C3124.26,572.92,3125.2,568.64,3121.09,568.07Z"/><path class="cls-1" d="M1925.31,241.73c48.89,20.59,109.77,9.73,140.6-25.22,3.53-4,9.43-8.93,5.2-14.17-4.91-6.07-9.89.6-14.26,3.2-6.06,3.6-11.54,8.19-17.68,11.65-43.29,24.43-89.24,15.3-118.29-24.85-30.1-41.6-31.08-87.06-8.76-131.17C1940.1,5.83,2018,3.4,2052.91,55a114.55,114.55,0,0,1,16.84,38.49c1.19,5.1,2.15,12.27,9.68,11.14,6.45-1,6.05-7.73,5.69-12.4a342.2,342.2,0,0,1,.06-58.59c.7-7.5-1-15.57-12-9-7.36,4.42-12.6-.23-18.05-3.54-15.25-9.26-31.15-16.86-49-19.64-71.69-11.16-139.56,43.7-147.38,119.09-.23,3-.44,6-.7,9C1853.67,180.08,1878.91,222.2,1925.31,241.73Z"/><path class="cls-1" d="M2299.63,304.24c17.9.94,34.88,5.64,51.6,11.78a253.06,253.06,0,0,0,26.77,8.54,36.83,36.83,0,0,0,43.55-24.6c.81-2.62,2-5.56-.88-7.56-2.51-1.73-4.82.07-6.44,1.73-16,16.42-35.52,14.43-49.05,11.6-29.76-6.63-31-8.24-25.31-31.52,7.75-31.77,15.89-63.45,24-95.15,2-7.95,5.5-14.86,14.47-17.3,3.45-.94,8.77-.64,8.39-5.81s-5.52-5.45-9.66-5.85a191.26,191.26,0,0,1-46.61-10.61c-4-1.47-9.47-4.49-11.77,1.23-2.08,5.17,3.92,6.66,7.34,8.31,9.11,4.38,14.95,10.69,12.65,21.16-8.2,37.32-18.1,74.21-28.92,110.86-1.92,6.53-5.74,10.76-12.22,12.86-2.87.93-6.86,1.51-6.19,5.6C2292,303.77,2296.19,304.06,2299.63,304.24Z"/><path class="cls-1" d="M2461.5,351.87c10.19,1,19.71,4.38,29,8.2,15.73,6.46,30.93,14.22,46.79,20.29,18,6.89,38.38-2.38,45.91-19.73,1.09-2.51,2.6-5.29,0-7.62-2.3-2-4.79-.49-6.58,1-17.68,14.63-36.84,10.61-56.21,4.26-1.65-.57-3.3-1.11-4.94-1.7-16.15-5.76-17.72-9.09-12.47-25.33,10.72-33.11,24-65.29,36.07-97.88,2.88-7.76,7.55-13.89,16.83-14.89,3.26-.35,8-.05,8-4.7.06-5.34-4.89-6.06-9-6.89a191.41,191.41,0,0,1-45.22-15.48c-3.86-1.88-8.94-5.5-11.87-.09-2.66,4.92,3.15,7.06,6.37,9,8.6,5.32,13.76,12.2,10.38,22.38-12.07,36.25-25.89,71.86-40.51,107.16-2.61,6.28-6.83,10.12-13.5,11.52-3,.62-7,.76-6.79,4.88C2454,350.6,2458.09,351.54,2461.5,351.87Z"/></svg>