<svg id="Layer_1" data-name="Layer 1" xmlns="http://www.w3.org/2000/svg" viewBox="0 0 7108.81 2323.08"><path d="M1425,1601.88v416.7c-19.52-28.33-34.85-40.66-36.6-54.66-18.36-146.31-66.34-154.63-212.25-140.35,0,125.76-2.57,252.94,2.79,379.78.79,18.86,37.9,50.09,60,51.67,76.69,5.49,154.88,6.6,231.13-2.2,86.54-10,114.24-79,129.45-154,5.77-28.5,14.56-56.41,22-84.59l23.74,3.32v275H924.81c.83-8.38.73-16.11,1.73-16.26,102-14.5,109.27-84.12,107.55-167.77-4-193.33-1.07-386.78-2.15-580.18-.49-87.11,29.43-191.54-109.6-216.22h696V1556l-21.44,4.16c-7.56-22.82-18-45.13-22.18-68.54-20.9-118.42-51.48-145.11-172.57-145.94-51.65-.36-103.32.88-154.94-.3-47.56-1.09-70.48,23.76-71,67.58-1.36,118.5-.47,237-.47,360.18,60.6,4.46,125.43,29.48,165.16-26.25,30.87-43.31,41.14-101.08,60.57-152.42Z"/><path d="M3041.5,1626.92c13.23,10.9,22,17.22,29.73,24.66,37.31,36.06,49.23,84.69,10.7,116.26-25.37,20.78-83.85,27.71-112.49,12.67-46.41-24.36-54.1-85.81-17.08-120.82,43.66-41.28,101.32-74.81,158.91-92.69,51.38-16,112.13-13.94,166.59-5.74,92.55,13.94,146.81,77.27,151,175,5.94,139.68,4.53,279.66,6.38,419.51,1.28,97.58,1.34,97.39,98.31,78.16,4.74-.94,11.15,6.42,21.5,12.85-33.84,51.28-82.4,64.61-137.37,64-61.2-.72-102-30.27-118.33-86.07-50.22,26.36-96.42,59.07-147.89,75.83-101,32.9-203.89-12.66-237.07-96.32-38.77-97.75.67-194.19,104.77-242.4,57.1-26.45,118.47-43.73,177.56-66.07,45.39-17.16,101.24-27.45,98.84-91.75-2.59-69.44,27.42-153.65-50.18-198.38C3180.7,1568.38,3110.39,1583.36,3041.5,1626.92Zm252.8,254.29c-86.24,55-163.86,93.08-226.24,148.12-48.21,42.54-44.9,109.89-15.26,168.33,25.63,50.54,79.11,61.38,120.32,41.71,46.27-22.09,104.79-61.41,115.94-104C3308.05,2062.51,3294.3,1981.27,3294.3,1881.21Z"/><path d="M4697.24,1862.74H4265.9c-13.41,102.08-12.87,197.47,39.84,286,80.56,135.26,241.56,143.4,337.37,17.81,12.83-16.82,25.43-33.81,38.13-50.72l20.3,10.25c-7.25,21-10.94,44.18-22.31,62.69-104.06,169.45-369.43,176.34-492.23,13.6-104.6-138.64-99.09-403.54,11.23-538.87,82.1-100.73,227.81-138.11,350.58-90C4653.66,1614.66,4707.2,1715.4,4697.24,1862.74Zm-128.6-31.53c-14.24-62-19.69-120.29-41.28-171.92-36.28-86.74-124.43-104.93-183.88-32.35-44.34,54.12-65,127.31-102.21,204.27Z"/><path d="M2255.77,1559.61v231.23l-21.5,9.46c-10.15-19.78-23.26-38.64-29.9-59.52-23-72.51-58-140.3-139.84-148.77-41.64-4.32-99.79,14.72-127.5,44.36-37.69,40.33-24.28,98.5,19.28,137.29,34.66,30.86,75.1,55.37,113.37,82.17s78.41,51.38,115.5,79.79c99.9,76.53,131.74,169.54,91.74,261.38-34.82,79.93-151.12,138.73-256.27,121.37-54-8.93-105.62-32.53-161.59-50.55l-40,46-15.42-4.93c0-86.52-.54-173.06,1-259.56.12-6.78,15.84-19.38,22.68-18.37,8.12,1.19,18.32,13.13,20.89,22.28,7.53,26.83,9.24,55.39,17.89,81.76,10.06,30.7,21.4,62.12,38.67,89.14,36.09,56.43,95.81,72.64,154.3,55.3,34.81-10.32,73.22-44.25,88.06-77.28,24.35-54.22,9.18-111.49-41.13-150.52-46.14-35.79-96-66.76-143.15-101.38-37.59-27.63-78-53.43-109.27-87.21-97.83-105.67-52.67-258.1,85.78-298.31,92.44-26.84,175.56-3.45,255.25,52.8l44.8-65Z"/><path d="M4040.58,2113.78c28,89.5-24.47,176.24-102.74,199.51-95.42,28.37-195.88-6.23-226.65-86.4-17-44.27-23.12-94.76-24-142.64-2.88-155.26-1.08-310.61-1.08-469.94l-131.55-8.66q-.33-12.7-.65-25.43l130.22-12.69v-201l137-21.07v230.1h208.79l.81,28.51H3827.64c0,199.48-2.63,385,2.83,570.35.82,27.89,36.83,74,61.16,77.16,30.94,4.07,72.69-20.6,98.4-44.79C4014.49,2183.73,4024.3,2145.38,4040.58,2113.78Z"/><path d="M2488.42,1614.75,2356.35,1605l-.86-24.24,130.33-13.9V1366l137.35-21v221.61L2833.1,1579l-1.58,28.2h-204.7v406.45c0,48.9-1.81,97.87.4,146.66,2.08,46,12.3,89.73,68.8,99.14,52.66,8.76,83.46-21.19,105.77-63,14.5-27.17,27.36-55.21,44.34-89.76,43.95,104.56-63.73,224.39-177.92,214.79-114.7-9.63-173.73-72.32-177.75-201.8-4.41-141.89-1.67-284-2-426C2488.37,1668.56,2488.42,1643.45,2488.42,1614.75Z"/><path d="M922.3,1065c132.14,2.59,125.22-80.58,124.63-163.13-1.36-191.15-.14-382.32,0-573.48.08-147.78,0-147.78-111-213.64,2.08-3.91,4.27-11.2,6.34-11.17,177.79,2.68,356.72-5.25,533,12.42,172.57,17.27,283,125.88,328,294.08,30.72,114.91,31.46,230.59-.57,345.43C1749,948.12,1590.54,1080.2,1389.37,1090c-142.94,7-286.47,2-429.74,1.85-8,0-16-4.4-24-6.76Q929,1075,922.3,1065Zm267.2-476.6h1q0,192.29.1,384.56c.09,42.73,11.16,78,60.44,89.25,172.7,39.62,359.33-61.05,391.79-233.38,24.16-128.28,28.7-264.29,16-394.37-20.21-209.33-151-310.29-364-307.57-81.14,1-103.92,22.21-104.9,104.89-1.4,118.85-.36,237.72-.36,356.58Z"/><path d="M3988,1063.18l-62.44,41.1c-3.71-21.31-10.12-42.55-10.61-63.93-1.28-55.87-1.61-111.87,1.29-167.63.92-17.54,13.31-34.49,20.45-51.71,12,16.74,28.15,31.93,35,50.52,15.22,41.21,20.25,86.79,39.42,125.74,33.19,67.28,112.54,96.73,179.19,71.83,62.41-23.34,86.35-74.13,73.84-134.09-6.94-33.27-30.39-69-57-91.15-57.3-47.64-127-81.31-181-131.86-43.87-41-92.36-94.23-103.76-149.19C3889.7,405.49,4054.89,297.08,4217.93,362c32,12.77,61.95,30.74,93,46.4l46.5-61.24,17.77,6.17c0,70.4.63,140.81-.81,211.18-.18,8.78-11.32,17.34-17.39,26-10-7.32-24.49-12.58-29.07-22.4-9.75-20.9-13-44.7-21.34-66.37-24.29-62.89-67.37-113.74-136.36-114.52-40.27-.45-99.28,21.59-116.2,52-16.78,30.15-4.16,92.59,18.81,124.27,28.45,39.24,81.85,60.06,122.62,91.23C4252.75,698.53,4315.8,738,4363.05,791c92.39,103.65,51.61,251-78,303.32C4180.1,1136.65,4079.3,1129.56,3988,1063.18Z"/><path d="M5505.58,658.43H5075c-12.38,100.06-12.95,193.38,36.63,280.55,79.65,140,243.79,150.46,341.06,22.28,12.7-16.74,25.57-33.36,38.36-50l20,10.62c-7.73,21.18-12.05,44.44-23.71,63.21-106.58,171.47-376.84,174.07-496.34,5.53-98.37-138.74-92.31-394.37,12.5-527.65,82.58-105,229.49-144,355.17-94.33C5463.81,410.15,5517.88,512.91,5505.58,658.43Zm-452.94-33.49H5377.7c-14.27-61.24-19.93-117.72-40.77-168-37.4-90.19-128.34-107.32-189-30.37C5105.74,480.14,5086.63,551.63,5052.64,624.94Z"/><path d="M2711.82,656.17c-16.71,103.29-10.49,192.47,33.61,275.64,77.6,146.32,242.48,158.85,343.35,27.46,12.19-15.89,24.28-31.85,36.42-47.78l20.15,6c-4.64,19.41-5.09,41.18-14.58,57.87-97.8,172-353.18,190.93-486,36.94-127.25-147.47-115-444.79,23.91-580.64,86.48-84.56,228.08-108.29,339.64-56.9,95.57,44,146.73,148.09,134.44,281.45Zm300.84-28.59c-13.52-62.45-17.76-118.84-38.24-168.65-38.49-93.64-124.5-105.64-194.56-31.06-51.71,55-67.91,123.33-68.71,199.71Z"/><path d="M4841.42,1087.32H4499.48l-17.88-20.41c11.34-2.58,22.56-6.68,34-7.51,80-5.84,89.09-60.22,89-123.66q-.74-369.91.3-739.84c.11-77.62,1.4-155.47-118-158.41l11.49-17.75L4741.9,0V78.34q-.06,411.79-.1,823.6C4741.79,1026.37,4741.84,1026.37,4841.42,1087.32Z"/><path d="M3346.36,1064.36l-51.4,60.3V826.78l19.12-6.38c8,12.44,19,23.92,23.38,37.52,14.1,44.24,21.6,91,39.3,133.59,27.37,65.91,82.11,91.85,153,87.53,52.36-3.2,90.22-26.53,106.06-76.69,21.39-67.71,2.16-125.08-55.37-166.79-58.71-42.57-124.67-76.63-178-124.75-43.11-38.92-90.48-88.6-103.94-141.53-39-153.44,117.07-264.7,283.91-208.34,34.81,11.75,67.47,29.76,104.33,46.34,6.14-11.7,9.63-23.12,17-31.07,9.38-10.17,21.84-17.55,33-26.13,5.4,11.25,15.67,22.6,15.4,33.71-1.63,67.3-5.66,134.54-8.88,201.8l-18.83,9.75c-10.78-18.85-25.21-36.55-31.69-56.75-23.07-72-55.64-134-137.54-153.49-55.75-13.24-105.59-1.76-134.6,48.58s-18.31,103.08,27.69,138.26c68.62,52.47,146.57,93.49,212,149.21,46.19,39.3,96.3,89.45,113.17,144.3,44.49,144.66-95.88,272.85-266,248.42C3455.65,1106.42,3406.08,1083.22,3346.36,1064.36Z"/><path d="M2321.45,1085.94H1938.53l-2.49-11c11-5.62,21.55-14.53,33.17-16.31,55.74-8.54,73.06-45.92,73.22-94.86.47-149.2-.23-298.41-.35-447.62-.06-70.34-32-113.8-110.67-118.28q2-9.57,4-19.14l240.08-17.9c2,39.57,3.94,76,6.37,122.84,26.41-30.67,45.3-56.15,67.78-78,52.71-51.2,115-72.59,186.49-44.93,64.6,25,92,94.12,61.64,148.24-25.39,45.36-66.76,51.1-109.32,34-46.45-18.66-48.14-59.29-33.26-100.28,5.31-14.62,18.36-26.46,31.37-44.4-66.64-16.32-108.06,19.26-138.11,61.32-27.86,39-57.11,86.24-60.31,131.62-9.17,129.79-8.94,260.62-3.53,390.68,1,23.85,41,50.19,68.08,67.5,19.54,12.5,47.56,12,71.8,17.21Q2323,1076.3,2321.45,1085.94Z"/><path d="M5611.7,375.9l236.6-13.54c2.12,36.81,4.21,72.94,7.11,123.17,22.65-27.49,37.23-46.59,53.26-64.41,68.49-76.17,166.14-94.55,231.65-43,41.3,32.5,61.23,78.48,32.83,122.59-16,24.81-59.18,46.42-89.27,45.38-69.22-2.39-80-63.68-36.08-159.36-32.06,13.8-69.6,21.17-95.14,42.61-72.67,61-98.67,145.41-100.31,237.31-1.54,86.22-.79,172.48-.17,258.72.67,93.2,14.91,109.79,107.94,132.69,13.86,3.42,26.84,10.35,37.74,28h-384.3c.65-6.88.5-14.78,1.55-14.94,95.83-14.52,104.39-80.65,101.8-159.4-3.67-111.77-.71-223.73-1.3-335.61-.42-80.94,15.09-171.23-119-179.24Z"/></svg>