<svg id="Layer_1" data-name="Layer 1" xmlns="http://www.w3.org/2000/svg" viewBox="0 0 3720.73 2311.44"><defs><style>.cls-1{fill:#a62b2a;}</style></defs><path class="cls-1" d="M818.85,1515.1l.08-.08-.22.09-.27.38,0,0h0v0l0,0a1.51,1.51,0,0,1,.17-.1c.09-.12.21-.24.31-.37Z"/><path class="cls-1" d="M3497.6,1486.11c-35.11,1.26-70.18,3-105.29,3.29-7.31.06-14.66-5-22-7.72.21-1.78.43-3.57.64-5.32,30-2.3,60.77,1.82,90.53-3.07-.13-2.77-.25-5.57-.37-8.33-71.78,2.4-143.74,20.9-215.33,4.06-.06-2.09-.13-4.19-.19-6.28h108.76V1457c-3.26-.59-6.55-1.76-9.77-1.69-36.31.76-72.64,1.87-108.95,2.58-11.34.21-23.39,1.07-30.18-13.5h16.75c26.13-.12,52.26,0,78.36-.64,3.44-.09,6.76-4.15,10.14-6.37-2.8-1.53-5.66-4.51-8.39-4.42-21.4.71-42.73,2.58-64.12,3-21.86.37-43.78-.52-65.66-.8-10.61-.15-21.24.09-31.82-.37-6.18-.27-12.33-1.54-18.47-2.37.06-1.59.15-3.16.24-4.76,33.23-.83,66.65,0,99.2-8.45-87.3-3.38-174.36,9.31-261.72.89a147.06,147.06,0,0,1,38-7.26c41.93-2.06,83.91-3.29,125.84-5.13,4.22-.18,8.33-2.4,12.51-3.69-.3-1.23-.64-2.49-1-3.72-47.86,2.83-95.72,5.63-147.21,8.67,9-15,18.66-19.49,30.49-19.61,32.68-.28,65.36-.09,98-.52,4.37-.07,8.67-2.74,13-4.22-4.67-4-8.14-4.61-11.62-4.42-31.6,1.57-63.17,3.53-94.77,4.7-4.45.19-9-3.29-13.58-5.1,4.67-2.43,9.19-5.23,14.07-7.1,2.16-.8,5.05.58,7.6.49,13.49-.49,27-1.17,40.42-1.75,0-1.48-.06-2.92-.09-4.4-23.76-6-50.38,6.8-72.82-8,0-1.72,0-3.41,0-5.1h47v-7.53c-32.28,0-64.59-1.17-96.8.33-32.65,1.51-65.2,5.66-97.82,8.64-.24-1.6-.45-3.2-.67-4.79,19.24-21.31,47.67-2.89,73.19-14.27-6.24-1.14-8.94-2.15-11.59-2-13.22.53-26.43,1.69-39.68,1.79-3.32,0-6.64-3-10-4.71,2.58-3.19,4.61-8,7.93-9.22,4.51-1.66,10.11-.37,15.18-.83,4.83-.46,9.59-1.6,14.39-2.4-.22-1.5-.4-3-.62-4.48h-38.73c-.21-2.28-.43-4.52-.61-6.8,9.19-1.5,18.38-3.5,27.63-4.36,9.65-.92,19.43-.74,29.14-1,0-1.81,0-3.59,0-5.41-13.5-.61-27-1.26-40.46-1.87,0-1.54,0-3.08-.06-4.61,21.36-13.25,47.49-.37,69.5-11.35-15.52-1.78-30.8-.09-46.05-.3-5.31-.1-10.57-5-15.83-7.6,5-2.61,9.84-7,15-7.47,12.49-1.1,25.15-.36,37.75-.36,0-1.88,0-3.75-.06-5.66-10.85,0-21.73.31-32.58-.09-7.53-.28-17.74,3.44-18.75-8.86,0-1.13,11.65-3.53,18-4.73s12.6-1.57,18.9-2.31c-15.46-12.91-37.29,5.23-53.45-17,16-1.6,28-2.83,40.05-4-.31-2.34-.58-4.64-.86-6.95-10.67,1-21.37,1.82-32,3-17.09,1.82-23.18-.06-32.46-13.09H2898l-.27-4.37H2787.7c4.89,5.2,7.07,7.53,12.14,12.94-23.21,3.42-43.13,7.35-63.26,9-30.59,2.52-61.27,3.66-91.94,4.92-3.29.12-6.74-3-10.09-4.67,2.77-3.08,5.14-6.76,8.46-9,2.27-1.57,5.87-1.6,8.88-1.72,21-.86,42-1.45,62.93-2.34,5.07-.21,10.11-1.26,15.15-1.9-.09-1.66-.18-3.29-.31-5-5.69,0-11.37-.22-17.06.06-19.89.86-39.78,2.15-59.7,2.67-3.16.07-6.42-3-9.65-4.61,3.05-2.52,5.88-6.94,9.13-7.28,18.26-1.91,36.61-2.74,54.93-4.06,6.92-.49,13.78-1.29,20.66-2a28.6,28.6,0,0,0-17.73-4.3c-16.33,1.17-32.59,3.47-48.91,4-5,.15-10.09-4-15.16-6.12,4.4-3.84,8.33-10.08,13.28-11,13-2.55,26.53-2.76,39.84-3.93-10.23-2.46-20.1-.71-30-.55-9,.12-20.69,4.82-25.27-11.5,5.9,0,10.36-.09,14.79,0,42.51.92,85,2.61,127.48,2.7,125.44.31,250.89,0,376.37-.15q145.93-.14,291.93-.37c9.71,0,25.11,3.08,25.08-9.77,0-14.82-15.82-10.21-25.82-10.21q-127.53-.09-255,.25c-44,0-88-.1-132-.1-49.67,0-99.32-.06-149,.1-71.16.21-142.29.7-213.46,1-41.31.15-82.59,0-125.29,0-7.87-78.82-20.47-154.77-51.77-227.63,17,0,31.14,0,45.28,0,100.92-.24,201.84-.89,302.76-.73q295.88.36,591.73,1.32c4,0,8.64,0,11.93-1.88a18,18,0,0,0,7.87-9.62c.46-1.57-4.61-6-7.87-7.1-4.71-1.57-10-1.78-15.07-1.69-32.76.61-65.5,2.06-98.27,2.12-36.86,0-73.71-1.47-110.6-1.54-40.91-.09-81.83,1.14-122.74.93-59.36-.37-118.75-1.94-178.11-2.19-54.28-.24-108.57.46-162.82.93-50.14.43-100.27,1.26-150.41,1.56-38.86.25-77.74,0-116.6-.24-2.24,0-5.68-.8-6.48-2.31-7.57-14.6-14.66-29.42-22.66-45.65,8.3,0,13.93-.06,19.52,0,90.13.68,180.26,1.57,270.35,2,29.7.12,59.39-1.54,89.09-1.47,74.24.21,148.44,1,222.68,1.41,8.69,0,17.7.49,26-1.6,5.13-1.29,9.16-7.07,13.71-10.82-4.73-2.8-9.44-7.93-14.2-8-13.74-.25-27.51,2.37-41.28,2.4-45.56.06-91.15-.62-136.7-.86q-150.6-.75-301.19-1.33c-48.66-.18-97.32-.06-146-.58-5.63-.06-13.71-1.63-16.32-5.44-7.81-11.41-13.47-24.25-20.29-37.17,58.31,0,115.09.07,171.86,0,82.36-.12,164.67-.18,247-.89,4.39,0,11.92-5,12.57-8.67,1.6-9.28-6.43-9.71-13.43-9.68q-39.88.09-79.81.19c-103,.09-206-1.45-308.89,1.23-34.46.89-55.61-11.9-76.12-37-53.33-65.23-113.33-123.18-186.22-167.35-70.36-42.6-143.4-76.51-226-86.29q-43.35-5.16-86.72-9.8c-8.54-.92-17.24-1.78-25.79-1.17-16.32,1.17-32.52,4-48.84,5.1-76.52,5.41-148.17,29.7-218.9,56.93-49,18.91-92.74,47.31-135.07,78.39-54.29,39.9-105.71,83-148.17,135.16-15.18,18.69-29.6,27.48-53.48,26.8-69.1-2-138.24-2.42-207.37-2.79-57.88-.28-115.76.31-173.65.8-9,.06-23.91-5.14-24.44,7.59s15,11.25,24.6,11.25q159.81.09,319.59-.49c25.8-.06,51.62,0,82,0-10.39,13.68-18.57,22.19-24,32.18-4.86,9-10.91,12.39-20.47,12.24-37.35-.53-74.73-1.14-112.08-1.14-68.09,0-136.17.68-204.29.61-104.46-.09-208.91-.73-313.33-.64-7.23,0-14.45,4.12-21.67,6.33,0,2,.06,4,.06,6,6.33,2.16,12.6,5.81,19,6.12,16.85.8,33.76-.09,50.6.13,45.59.58,91.15,1.87,136.73,1.93,64.46.09,128.95-1,193.45-1,73.22,0,146.41.8,219.63,1.07,10,0,20-.83,33-1.41-5.78,12.6-11.16,22.41-14.82,32.83-4,11.37-10.63,15.12-22.9,15-79.86-.58-159.75-.31-239.61-.31-97.32,0-194.61.19-291.9-.09-131.11-.34-262.18-1.2-393.28-1.29-10.61,0-21.21,4.27-31.85,6.58.19,2.37.4,4.73.58,7.13,62.62,13.13,126.47,1.75,189.57,4.92,63.88,3.23,128,.83,192,.8,64.53-.06,129-.31,193.57-.28,64,0,128.09.4,192.12.49,63.67.13,127.36,0,191.88,0-.89,4.06-1,5.63-1.6,6.92-30.77,65.44-47.46,134.76-56.28,206.17-1.2,9.77-5.32,13.13-14.73,13.16-58.34.12-116.71.92-175.06.86-69.13-.1-138.23-1.23-207.34-1.23-86.53,0-173.06,1-259.59,1-71.69,0-143.4-1.14-215.09-1-9.89,0-19.79,4.7-29.72,7.25.09,2.62.15,5.23.24,7.84,14.17,1.66,28.35,4.74,42.55,4.8q182,.82,364.08.7c110.66-.12,221.32-.86,332-1,5.14,0,10.27,3.23,17.68,5.72,1.47-.77,8.14-5.87,9.5-4.71,10.54,9,20.44,4.83,30.89.68,1.84-.74,4.64,1.17,7,1.57,6.58,1.1,13.16,2.92,19.7,2.8,9.65-.19,19.28-2.65,28.9-2.56,8.7.06,14.11,4.92,12.57,16.45-24.19,1.72-48.2,3.44-72.21,5.13.1,1,.19,2.09.28,3.14l39.59,2.4v4.91c-18.35,13.1-40.27,5.38-60.62,10.46l42.7,2.39c-18.69,22.93-44.35,3-65,13,14.26,1.6,28.46.77,42.51,2,5.5.5,14,4.77,15.1,9,1.9,7.1-3.85,10.21-11.26,6.52-.39-.19-2,.89-2.21,1.63-5.1,16.6-17.92,8.51-28.16,8.94-7.87.34-16,.43-23.54,2.21-20.23,4.74-40.12,11-60.44,15.31-8.94,1.88-18.59.31-27.94.31-.09,1.94-.15,3.84-.22,5.78q14.53,1.61,29.08,3.26c.19,1.5.37,3,.56,4.49-21.83,15.52-50.38-1.51-72.82,12.81h62.71c-1,13.28-6.06,19.28-18.57,18.17-11.19-1-22.47-1.57-33.69-1.72-5.35-.06-10.73,1.29-16.11,2,.15,1.84.28,3.69.43,5.53,16.35,0,32.8-.92,49.06.25s32.15,4.33,48.2,6.64c-.09,2.06-.21,4.12-.31,6.15H825.9c-.12,1.81-.24,3.62-.37,5.41,5.57,1.19,11.16,3.59,16.66,3.41,28.62-.83,57.21-2.95,85.83-3.35,19.33-.28,38.76,1.26,58.07,2.76,4.79.4,9.31,3.88,14,5.94-.24,2-.49,3.9-.7,5.87-12.14.61-24.29,1.23-36.15,1.81l8.73,12.2c-4.58,2.62-9,5.75-13.84,7.6-2.55,1-6-.43-9-.65-15.25-1.14-30.53-1.84-45.68-3.47-27.11-3-54.87,8.24-81.8-4.64-5.32-2.56-14,.89-20.78,2.64-7.38,1.91-14.32,5.66-21.73,7.47a20.42,20.42,0,0,1-12.61-1.26c-1.62-.77-2.64-7.75-1.25-9.07,2.91-2.73,7.62-5,11.58-5,52.66-.25,105.32,0,157.94-.09,4.77,0,9.53-1.66,14.3-2.58-.25-1.6-.49-3.2-.74-4.8-17.25,1-34.46,2.58-51.74,2.89-38.24.68-76.48.68-114.75,1-3,0-6.67,1.26-9.07.07-3.62-1.88-6.39-5.38-9.49-8.21,3.22-2.49,6.39-7,9.74-7.13,10.14-.46,20.35,1,30.56,1.2,4.21.06,8.42-1.33,12.63-2-.21-1.36-.46-2.71-.68-4-15.49,0-31.07,1-46.44-.34-10.15-.86-20.17-4.49-30-7.62-12.82-4.15-25.21-12.08-38.15-13-32.06-2.22-64.34-1.42-96.55-1.73a52.54,52.54,0,0,0-7.54,1c.1,1.5.19,3,.28,4.55h49.92c.09,1.81.18,3.65.28,5.5-27.08,21.33-61.21,5-90.56,16.63h63.11c.09,2.06.15,4.15.21,6.21-52.19,20.07-108,1.38-161.19,12.51l125.9,4.61c.53,1.63,1.08,3.29,1.63,4.92-6,2.24-12,6.39-18,6.42q-56.58.38-113.15-1c-21.92-.52-43.77-2.55-65.69-3.47-5.47-.25-11,1.07-16.51,1.69.06,2,.16,4,.22,6q58.65,2.13,117.27,4.21c.09,1.94.18,3.91.31,5.87q-40.12,3.64-80.17,7.32c.12.65.24,1.29.37,1.94l19.85,2.42c-4.18,12.92-13.34,11.66-21.73,11.32-43.34-1.88-86.68-4.12-130-5.72-6.64-.25-13.34,2.09-20,3.23.28,2.21.55,4.42.83,6.67,17.15,0,34.31.15,51.49,0,30.74-.34,61.45-1.2,92.19-1.17,12.45,0,24.81,2,36.76,16-27,0-49.83.1-72.64,0-23.48-.12-47-.55-70.51-.67-22-.13-44,0-66,0l.09,6.45h77.8c.1,2.52.16,5.07.22,7.6L184.8,1447.13c0,1.11,0,2.21,0,3.32h55.95c.15,2.18.33,4.36.49,6.55-7,1.87-13.83,4.52-20.94,5.41-7.68.92-15.58.21-23.36.21,0,1.26,0,2.52,0,3.78,8.86,0,17.68.09,26.53,0,14.26-.18,19,4.71,17.18,18,20.44,3.1,40.92,6.24,65.14,9.92-6.64,3.32-9.44,4.74-12.23,6.15.15,1.29.34,2.62.52,3.91,24.5-2.19,49.24-2.77,73.34-7.1,16.33-2.92,30.9-2.09,45.56,5.9H391.43c.15,1.78.31,3.53.43,5.32,14.73-1.42,29.45-2.89,44.17-4.22,12.67-1.16,25.36-3,38-3.07,34.27-.18,68.55.49,102.82.62,4.52,0,9.07-1.85,13.59-1.76,5.32.13,10.61,1.42,15.92,2.22-4.67,3-9.31,5.93-14,8.76a6.48,6.48,0,0,1-3,.49q-79.68.51-159.35,1.07c-6,.07-11.93,1-17.86,1.57.12,1.54.25,3.08.4,4.61,11.65,0,23.3.25,35,0,51.18-1.13,102.36-2.76,153.54-3.26,8.21-.09,16.48,4.65,24.72,7.17q-.75,3.74-1.48,7.47H511.13c0,1.29,0,2.58.06,3.87,23.52,0,47.5-2.86,70.43.8s47.06-7.44,68.88,3.81c0,2.34-.06,4.7-.12,7H576.61c-.13,2-.22,4-.34,6,4.55,1,9.13,3,13.61,2.8,43-1.47,86-2.64,128.8-5.59,8.58-.59,16.85-8,24.9-12.79,12-7.22,23.74-15.06,35.69-22.47,9-5.6,18.14-10.88,27.2-16.32-.89-1.51-1.81-3-2.73-4.52L722.93,1534c-.5-1-1-2-1.51-3q31.44-21.77,62.89-43.5c-16.87,5.9-32.95,13.28-47.18,23.21-27.54,19.24-31.17,21.42-46.23,18,45.37-23.3,98.85-66.52,102.57-83.27-10.11,8.36-19.39,17.12-29.69,24.44-25.3,18-50.72,35.87-76.91,52.47-7,4.42-17.06,4.09-25.7,6,35.16-24.19,75.86-38.3,101.72-76.57l-31.29,12.51c-.77-1.54-1.57-3-2.34-4.58,6.55-7.5,13.06-15,19.61-22.53a138.7,138.7,0,0,0-27.63,14.63,21.48,21.48,0,0,0-7.29,8.88c-2.25,5.38-3.29,11.25-4.83,16.91q14.89-4.93,29.82-9.84c.55,1.29,1.14,2.59,1.69,3.88-28.4,15.64-53.73,37.19-90.53,44.11,14.2-10.58,25.7-19.09,37.17-27.64q-8.58,2.82-17.15,5.6c9.86-10.88,21.85-17.59,31.56-26.75s16.57-21,25.46-30.92c8.51-9.56,18.07-18.2,27.17-27.27-1.29-1.23-2.58-2.49-3.87-3.71-13.56,19.45-31,33.65-54.17,40.45,2.9-3.48,5.75-7,10.61-12.82-11.31,5.59-19.55,9.65-27.79,13.74-.52-1.14-1-2.27-1.6-3.44q7.62-9.4,15.25-18.81L691,1423c-15.25,9.77-30.46,19.52-46.08,29.51l16-1.66c.86,1.57,1.69,3.1,2.52,4.67q-20.83,13.74-41.74,27.48c-.8-1.2-1.6-2.36-2.43-3.56q9.82-10.25,19.61-20.48c-17.86,8.43-30.92,23.77-50.75,25.92-.73-1.23-1.5-2.46-2.27-3.66q13-11.12,26.16-22.19c-.8-1-1.63-2-2.43-3l-38.92,26.93c-1.17-1.47-2.33-3-3.47-4.4,5.59-7.22,11.22-14.41,16.84-21.64-.7-.7-1.41-1.44-2.12-2.18q-17.75,13.79-35.44,27.61l-5.22-5.88,18.13-9.65c-1.11-1.29-2.18-2.58-3.26-3.87-3.72,1.72-7.44,3.44-12.14,5.66,2.34-4.12,4.06-7.11,7.29-12.76-14.88,8.67-27,15.8-39.26,22.9-1-1.42-2.06-2.83-3.07-4.24q10.41-10.89,20.81-21.8c-1-1.13-2-2.24-3-3.38L490.75,1478l-2.89-3.9c4.8-5.11,9.56-10.18,14.36-15.25-.77-.83-1.57-1.63-2.34-2.46q-23.7,15.92-47.46,31.82l-1.94-3.29q8.63-7.89,17.25-15.8c-1-1.14-2-2.28-3-3.42-5.81,3.82-11.37,8.18-17.52,11.35-6.39,3.26-13.37,5.41-20.1,8l-3.57-5.13q8.26-4.62,16.54-9.26l-3.13-3.81c-9.29,5-18.57,9.9-29.08,15.53v-14.82c-7.07,5.07-12,10.17-18,12.33-4.76,1.72-10.82-.19-16.29-.5a115.32,115.32,0,0,1-78.6,3c-13-4.18-27-5.32-41.47-8-4.73-12.14,1.05-20,14.42-23.08a175.94,175.94,0,0,1,25.64-4.09c52.9-4.21,105.86-7.9,158.74-12.45,5-.43,9.62-5.81,14.41-8.88-4.15-3.69-8.14-7.6-12.54-11s-9.07-6.18-13.62-9.25c5.81-3.26,11.25-7.93,17.49-9.5,9.78-2.46,20.63-1.17,30-4.36,29.63-10,59.91-12.67,90.83-11.59,5.38.18,10.79-.46,16.17-.71-.86-1.26-1.75-2.49-2.61-3.75,3.26-5.16,5.5-11.62,10-15.28,11.4-9.25,24.1-16.9,35.78-25.79,26.47-20.07,55.05-18.56,84.75-9.62,22.74,6.89,32.55,21.55,32.25,45.56-.16,11.65,10.35,16.47,19.48,10.48,20-13.19,41.35-12,63.57-9.13a470.61,470.61,0,0,0,53.43,4.09c21.33.37,42.66-.83,64-1.54,5.47-.18,13,1,16-2.06,12.51-12.79,28-17.77,44.64-21.79,4.11-1,6.91-7.59,10.29-11.62-4.24-2.74-8.2-6.15-12.78-8.12-7.81-3.32-16.3-5-23.86-8.76-6.14-3-10.91-9-17.12-11.68-6.76-2.89-14.54-3.47-25.94-5.93,5.93-10,9.34-19.92,16.13-26.28,19.62-18.39,44.21-23.33,70.64-24.26,15.84-.55,31.6-5.44,47.19-9.28,3.07-.77,7-5.32,7.44-8.48,3.66-30.41,19.27-48,50.63-51.19,5.16-.52,11.43-5.34,14-10,1.39-2.39-4-8.7-6.48-13.21-1.08-1.94-2.34-3.79-4.43-7.11h18.72c1.78,47.74.86,95,6.09,141.56,5.19,46.36,16.54,92,24.62,134.88-6.24,4.22-11,7.72-16,10.76-6.24,3.75-12.69,7.14-19,10.64-.93-1.41-1.88-2.83-2.83-4.24,6.42-6.95,12.88-13.87,20.93-22.57-19,8.43-36.09,14.18-51.15,23.27-9.77,5.91-16.44,7-21.3,1.17-21.43,13.56-41.72,25.92-61.42,39.2-3.75,2.55-5.1,8.63-7.56,13.06,16.54-9.19,30.12-20,44.6-29.36,6.61-4.27,15-6,22.78-8.17,1.6-.43,4.15,2.55,8.27,5.32,1-.5,4.86-2.4,8.7-4.34-6.24,26.81-34.25,32.8-49.58,54.07,3.93-1.66,5.9-2,7.31-3.13,20.63-16,41-32.25,61.79-47.9,6.09-4.55,13.55-7.25,20.38-10.79,1.23,2.22,2.49,4.4,3.75,6.61l-44.91,30.62c9.13-1.54,16.32-.61,20.07-3.78a316,316,0,0,0,34.46-33.69c6-7,9.93-15,24.38-11.22-5.08,5.38-8.67,9.1-12.15,12.91-2.42,2.74-7.22,6.49-6.6,8.3,4.27,12.36-6,13.16-12.49,16.75-3.38,1.85-7.16,2.89-10.78,4.31.49,1.29.95,2.58,1.41,3.9,7,.58,14,4.86,19.24-6,3.78-7.78,10.24-14.48,16.39-20.82,3.1-3.19,8.14-4.54,12.14-6.64-.37,17.86-6.21,29.48-25.67,29.3,17.62,9.19,23.27-7.22,32.92-11.9,4.37,8.89,8.21,16.63,12.48,25.33-10.39,1.48-19.64,2.77-28.89,4.09.09,1.54.15,3,.24,4.58,6-.24,12.09-.12,18-.86,15.46-1.94,21.24,5.78,17.43,20.57-5.23,20.25-23.61,27.91-36.46,40.85a13.06,13.06,0,0,1-4.92,2.73c11.13-14.54,21.92-28.71,28.34-37.13-18.44,13.77-43.61,32.55-68.76,51.34-.68-1-1.35-2-2-3q27.9-26.79,55.76-53.61c-1.63-1.66-3.25-3.35-4.89-5-6.82,6.89-13.58,13.84-20.53,20.6-7.28,7.13-14.11,15-22.32,20.84-7.5,5.38-16.59,8.55-25,12.66-.46-.92-.92-1.84-1.38-2.73q16.45-14.85,33-29.66c-.74-.83-1.47-1.69-2.21-2.56l-67.78,48.33c-1.2-1.57-2.4-3.14-3.63-4.68q21.95-20.61,43.9-41.25c-14.36,9-26.47,19.71-39.69,28.9-20.44,14.23-41.13,28.31-62.74,40.7-10.91,6.24-24,8.63-36.18,12.75-.52-1.32-1-2.61-1.54-3.93,38.89-20.2,77.35-41,107.9-73.19-39,31.57-84,51.64-129.5,70.7,14.84-12.36,30.77-22.81,46.44-33.63,15.1-10.39,37.17-9.5,50.14-31.26-14.79,7.56-26.07,13-37.07,19-17.83,9.72-35.94,19-53.06,29.88-12.54,8-24.19,12.15-35.78,7.75,33.87-18.66,69.47-32.4,97-58.44-31.72,15.34-62.43,32.22-93.44,48.54-5.29,2.77-11.9,3.11-17.89,4.55-.62-1.81-1.24-3.6-1.85-5.41,31.63-16.08,65.69-28.34,91.11-54.13-21.36,10.3-42.29,21.24-63,32.61-28.19,15.5-57,22.72-66.86,16.36,43.13-7.93,79.09-29.33,111.21-57.92-30.33,17.56-58.31,39.9-95.69,42.3q30.39-16.32,60.78-32.71c-.5-1.16-1-2.3-1.48-3.47q-24,9.54-48,19.06l-1.94-4.8q21.43-11.89,42.94-23.76c-.71-1.29-1.44-2.58-2.15-3.87L894.45,1560c-1-1.84-2-3.72-2.92-5.59,16.78-13.49,42.79-13.71,57.92-36.37-22.29,7.26-35,28.1-59.18,21q17.57-10,35.11-20.17c-.68-1.26-1.36-2.55-2-3.84-11.22,5.44-22.41,11-33.66,16.32-11.5,5.51-23,11.1-34.64,16.24-10.92,4.82-20.63,14.69-39.26,8.82,15-7.44,26.19-13,37.44-18.54,11.93-5.84,24.19-11,35.72-17.55,10.24-5.81,19.67-13.07,29.48-19.67-21.27,8.11-40.45,19.18-60.28,29s-40.36,18.26-60.56,27.3c-.71-1.45-1.44-2.86-2.15-4.3,27.91-22.08,69.44-22.63,90.5-55.8-22.72,11.13-40.67,32.16-70,30.74q19.41-15.21,38.82-30.46c-.86-1.14-1.72-2.24-2.58-3.38-11.22,7.22-22.38,14.48-33.6,21.73C804.14,1532.8,782,1540.61,763,1542c-24.19,1.75-37.47,23.15-60.59,24,23.49,5.22,48.72-5,70.09,11.28l-109,5.72c.06,1.07.09,2.15.12,3.22h158.8c.09,1.88.18,3.79.31,5.66-51.19,11.44-104.27,5-155.91,14.51,4.57,1.57,9.34,2.83,14,2.58,34.18-1.72,68.34-4.21,102.55-5.25,6.85-.19,13.86,4.88,20.81,7.5-6.52,2.12-12.91,5.16-19.61,6-9.68,1.29-19.55,1-29.36,1.42.13,1.84.25,3.71.34,5.56,7.41,0,14.85.28,22.25-.06,34.65-1.51,69.29-3.72,104-4.4,9.43-.18,19,4.21,28.49,6.52-.37,2.64-.76,5.29-1.13,7.93H813.91c0,1.75.07,3.53.1,5.29,3.81.43,7.68,1.38,11.46,1.17,29-1.6,58.16-2.62,87.09-5.51a136.18,136.18,0,0,1,55.64,5.75c12.94,4.09,27.48,3.07,41.34,4.34,0,1.47,0,2.92,0,4.39H861.22c.06,2.12.13,4.24.19,6.39,106.17,4.28,211.92-9.31,318.06-5.62,0-1.85,0-3.69-.06-5.5H1057c0-1.26-.09-2.52-.15-3.75,15.06-1.72,30.15-3.26,45.15-5.32,2.89-.4,5.48-2.89,8.21-4.43,7.32-4.18,14.36-11.25,22-12,25.45-2.36,51.09-2.27,76.67-3.47,19.91-1,39.83-2.58,59.78-3.56,8.79-.44,17.43.36,20.08,12.38l-162.16,5.94c.13,2.15.25,4.27.37,6.42,48.45-2.67,96.9-5.23,145.31-8.11,12.11-.71,22.25-.43,31,11.12,79.18,105.22,179.27,183.86,299.31,238.51,75.37,34.34,152.92,54.07,235.89,51.74,37.29-1.08,74.67-3.36,111.89-2.09,41.47,1.41,81.77-5,121.27-15.19,29.05-7.53,59.57-16.2,84.07-32.46,25-16.57,60.56-10.91,78.14-40,.22-.37.89-.47,1.32-.77,27.7-19.12,57.89-35.48,82.63-57.85C2428.35,1682,2512,1563.51,2551.37,1417.83c20.29-75.09,36.34-151.33,29.36-230.23-1-11.47-.12-23.06-.12-33.26,14.35,0,27.36,1.69,39.71-.44,13.71-2.36,15.74,3.88,13.68,14.08-1.23,6-4.95,11.53-7.53,17.28,0,.53-.1,1.08-.16,1.62l.15-1.63q1.59-5.49,3.17-11l-4.25-1.39-18,33.35,2.34,1.3,16.39-19.06q-9.67,20-19.31,40.07l2.33,1.2q7.24-8.54,14.42-17.12c-4.83,15.58-13.31,29-17.4,43.65-4.15,14.94-4,31.11-6,49.52,12.39-13,21.33-23.55,31.48-32.77,28.68-26.13,75.18-30.12,107.8-10.27a42.9,42.9,0,0,0,14.26,5.17c7.72,1.41,12.45.15,11.37-10.42-.61-6.12,2.59-14.17,6.83-18.94,17.71-20,54.9-25.2,77.89-11.46,14.18,8.45,22.78,21.21,21.43,38.05-1.2,15-5.38,29.7-20.75,37-25.54,12.21-51.3,24-76.48,35.69,20.87,4,39.44-9.65,59.76-15.68-24.32,20.17-49.68,37.2-84.66,33.48l8,12.88c-6.33,2.67-11.34,4.76-16.29,6.82,2.83,12.42,2.83,12.42-13.16,25.12-17.49,13.92-17.45,15.86,4.95,27.88-1.44-5.66-2.89-11.34-4.58-18.08,14.18-7.34,17.06-30.61,38-30.89l3.78,3.78q-12.22,12.18-24.47,24.38c17.55-3.51,33.14-10.09,49-15.86,14.32-5.23,26.86-17.13,44.26-11.1,18.45,6.36,33.51-.28,50-10,30-17.74,63-14.76,95-4.12,5.26,1.72,12.54,11.34,11.43,15.09-1.72,5.81-9.49,10.3-15.46,14.2-2.55,1.66-7.07.93-10.54.37-11.53-1.81-19.64,2.4-25.94,12.14-2.37,3.66-7,5.81-10.67,8.64l-1.2-1.93c2.89-4.28,5.78-8.52,8.67-12.79-.71-.4-1.38-.8-2.06-1.17q-25.59,17-51.12,34c-1.26-1.79-2.55-3.57-3.81-5.35q23.51-16.37,47.06-32.8c-.49-.83-1-1.69-1.51-2.52-21.45,10.91-42.94,21.82-63.72,32.4,8.39,2.67,7.59,8.91-.52,13.89-31.11,19.06-62.59,37.6-94,56.19-2.37,1.42-5.42,1.69-12.58,3.79,14.14-16.45,34.55-20.88,38.83-40.49-20.66,18.05-41,36.21-71,43.1,11.22-19.06,38-17.22,44.48-39.26-26.53,15.19-52,29.73-77.43,44.3-.8-1.41-1.6-2.8-2.43-4.21l48.38-34.12c-1-1.42-2-2.83-2.95-4.28q-23.88,14.71-47.71,29.39c-1.26-1.6-2.52-3.2-3.78-4.76,1.85-.74,4.15-1,5.44-2.25,12.54-12.48,32.59-17.09,38.58-36.79.53-1.72,7-2.68,10.55-2.25,11.95,1.48,23.79,3.91,35.72,5.66,9.92,1.48,13.74-3.11,13.12-10.08-15.22-1.17-29.6-2.28-46.05-3.57,7.29-14.35,18.6-18.29,30.71-20.69,15.56-3.1,28-10.79,41-26-6.7,2.12-9.75,2.43-12,3.9-13.13,8.76-25.45,18.91-43.1,16.66-3.2-.43-8.58,2.71-10.21,5.72C2740,1434.68,2731,1446,2712,1444.79c3.17,2,6.34,4,9.94,6.24-6.43,10.12-13.62,12.88-24,8.73-10.12-4-15.77-.18-19.65,12,6.89-1.84,13.65-3.63,22.66-6-11.53,21-61.45,42.66-78.2,34.8l39.19-16.67q-.93-2.07-1.91-4.15c-33,10.61-66.27,20.35-96.61,37.44q1,2.49,1.91,5,20.28-8.25,40.6-16.56c-.06,3.65-1.19,5.13-2.64,6.08-14.45,9.32-29,18.35-43.25,28-2.89,1.93-6.76,7.25-6,9,5.9,12.27-3.23,17.12-10.55,22.07-11.37,7.75-23,15.28-35.35,21.31-14.11,6.88-29.29,11.77-34.09,30.7,9.93-2.67,19.52-5.71,29.3-7.71,13.46-2.71,27.08-6.4,40.67-6.52,36.64-.4,73.31,1.57,110,1.29,28.62-.21,57.24-2.33,85.83-3.75,3.59-.18,7.13-1.35,10.69-2.06-.15-1.81-.33-3.62-.49-5.47l-73.53,5.63c-.37-2-.77-4.06-1.17-6.09,16-4.46,32-8.88,52.51-14.57h-24.65c-1.76-13.49,7.12-15.19,15.09-15.4,17.79-.49,35.66.68,53.48.37,16.73-.28,33.45-1.6,50.17-2.46-.06-1-.15-2.09-.21-3.14h-159c6.52-4.3,10-6.61,13.37-8.85-26.13,3.29-51.58,1.23-78.11-11.65l26-3.9c-.06-1.2-.12-2.43-.18-3.66h-40.52c23.88-20.75,50.38-6.58,75.5-8.58,26.46-2.15,53.27-.27,79.8-2.3,40.91-3.14,60.86-3.08,78.63,5-32.34,2.52-61.33,4.73-90.31,7,47.34.4,94.52-4.71,141.49,2,.06,2,.12,4.06.15,6.09H2814.9l-.18,6.82c29.23-1.81,58.37-2.67,87.21.34,0,1.63-.07,3.23-.1,4.86L2861,1560c8.15,3.42,16,3.26,23.95,3.45,37.84.89,75.71,3.53,113.49,2.42,63.88-1.9,127.6-7.59,191.47-9.06,67.94-1.57,136-.1,204,0,22.26.06,44.51,0,66.74,0,0-2.12-.07-4.21-.13-6.33h-91c-.12-2.09-.21-4.18-.31-6.28,41.57-11.4,86,.44,127.48-12.35h-92.92c-.13-1.23-.28-2.49-.43-3.72,23.39-5.35,46.81-10.67,72.42-16.51-16.57-3.9-16.57-3.9-14.57-14.45l74.82-6.67v-6.14C3523.14,1485,3510.35,1485.65,3497.6,1486.11Zm-2797-34.92c1.47,1.9,2.92,3.81,4.39,5.68q-16.82,11.67-33.62,23.27c-1-1.41-2-2.79-3-4.21Q684.49,1463.57,700.61,1451.19Zm-23-1.69c1.73,2.33,3.45,4.67,5.17,7l-42.63,28.78c-.9-1.17-1.76-2.34-2.65-3.51Q657.56,1465.6,677.61,1449.5Zm376.13,180.68c3-14.38,25.64-29.41,46.39-32.09Q1076.94,1614.14,1053.74,1630.18Zm193.39-67c-5.87,17.15-18.42,17.83-31.42,17.31-.61-1.85-1.26-3.72-1.87-5.6Zm-64.22,48.75c3.91-13,77.86-14,98-4.64Zm1306-76.17c-25.27,49.74-55.39,96.46-91.67,138.27q-17.43,20.15-36.82,38.67c-32,30.52-69.26,55.57-104.45,82.69-8.49,6.51-17.9,12-27.33,17.06-29.54,15.95-59.73,30.74-88.84,47.4-57.17,32.7-121.54,37.47-184.19,49.06-22,4.05-44,10-69,2.36,9.07-12.23,17.34-23.39,25.64-34.55-.62-1.38-1.2-2.76-1.82-4.15-13.61,6.4-22.16,1-29.17-9.31-5.29-7.84-14-17.28-21.92-8.18-6.11,7-7,20.26-6.88,30.68.09,7.87,5.47,15.71,8.51,23.58-10.2,2.27-20.65,7.31-30.55,6.39-84.13-7.75-165.78-26.07-242.29-63.14-66.74-32.34-127.35-72.11-180.26-120.53a643.91,643.91,0,0,1-113-135.8c-47.4-76.21-82.1-158.56-98.49-248.29a742.47,742.47,0,0,1-4.79-239.8c23.21-163.68,96.74-302.44,213.42-417.56,66.46-65.54,145.34-113.77,233.35-147.21,113.15-43,229-56.75,348.22-37.17C2110.32,526.54,2224,571.24,2321.1,653c32.9,27.72,32.53,30.7-5.53,49.3-5.47,2.68-10.27,6.7-15.49,9.9-7,4.27-14.08,12.08-21.06,12-36.76-.59-58.25,32.58-91.33,39.68l-1.66.43-33.53,8.49s11.28-.34,29.78-6.89c-6.33,3.57-9.09,10.54-8.17,19.12,1.6,14.69-3.66,31.23,11.34,42.33-2.77,3-5.13,6.52-8.33,8.94s-7.44,4-11.19,5.91c2,3.32,3.6,7.07,6.15,9.89,8.64,9.53,8.11,27.18-2.68,35-15.21,11.09-26.89,21.82-21.6,44.2,1.44,6.06-11.53,15.65-18.33,23.24-.67.77-5.71-.49-6.21-1.78-1-2.52-1.38-7.17.1-8.43,21.33-18.07,14.38-42.72,16.19-65.47.53-6.92,4-13.56,5.88-20.38,1.72-6.3,4.3-12.73,4.27-19.06,0-4.27-4-8.54-6.15-12.82-3.84,2.68-8.3,4.77-11.49,8.09-9.72,10.11-17.13,19.67-6.89,35.32,6.3,9.62-2.64,20.35-15.37,22.19-17.71,2.58-17.74,2.67-11.83,20,5.47,16.17-9.41,38.7-26.26,38.8-2.67,0-6.61-4.09-7.9-7.17C2051.7,915,2044.39,909.16,2015,910c-13.62.4-16.84-6.46-13.68-16.91a87.54,87.54,0,0,1,13.31-27c9.53-12.69,12-24,1.66-37.47-7.77-10.17-4.27-16.11,9.07-17.77,27.3-3.41,30.19-6.67,35.6-34.49.7-3.66,6.64-8.39,10.6-8.85,5.11-.58,11.83,1.23,15.71,4.55,5.1,4.4,8.08,11.22,12,17-6,2.3-11.87,6.36-17.92,6.55-15.19.52-23.18,11.89-15.53,26.22,5,9.31.31,13.22-3.63,20.9-8.11,15.83-12.08,33.81-17.18,51.12-.52,1.78,2.46,5.93,4.73,7,8.86,4,33.05-12.24,35.69-21.86,4-14.51,9.56-28.59,14.85-42.73,1-2.61,3.66-6.39,5.81-6.54,17.55-1.42,17-11.5,13.59-24.69-1.29-5,.24-11.34,2.09-16.47,3.35-9.35,8.7-11.84,16.94-3.6,3.16,3.17,8.66,4,13.12,6,.4-6.11,2.65-12.91.68-18.13s-7.35-10.39-12.51-12.7c-37.17-16.57-73-37.69-115.89-36.12-17.71.65-35.51,1.63-53.15.8s-35.26-4.67-53-5.56a94.82,94.82,0,0,0-29.91,3.84c-17.37,4.89-34,7.13-50.32-3-2.12-1.32-4.89-2.58-7.2-2.34-17.92,1.91-35.87,3.69-53.64,6.52-11.53,1.81-22.68,6.76-34.18,7.68-33.2,2.65-61.42,18.2-90.34,32.22-32.56,15.77-54.81,8.51-71.93-23.46a50.38,50.38,0,0,0-5.14-7.59c-11.28-14.32-22.31-28.86-34.15-42.7-4.33-5.07-10.67-8.39-16.08-12.51-3.22,4.74-6.33,9.59-9.74,14.2-2.83,3.82-6,7.38-9,11-3.84-3.69-8.7-6.79-11.37-11.19-5-8.18-5-23.42-19.09-19.06-14.72,4.58-7.35,18.32-5.38,27.91q12,59.25,25.79,118.2c3.72,15.8-.55,27.26-11.9,38.54-16.53,16.48-31.56,34.49-47.15,51.92q-9.68,10.85-19.06,22c-2.55,3-5.9,6.21-6.79,9.84-5.26,21.42-9.84,43-14.69,64.52-.9,4-1.29,8.3-3.2,11.77-18.2,33.36-20.6,70.4-24.9,107-.77,6.51-1.11,13.55.43,19.82,2.71,11.13,2,19.4-6,29.39-5.32,6.61-3.76,19.34-3.91,29.36-.37,24.1-.52,48.26.43,72.36.37,10.3,3.69,20.47,6.58,35.22,5.75-6.3,7.84-9.46,10.73-11.52,4-2.89,8.61-4.95,12.94-7.38,0,5.07,1.5,10.85-.46,15-3.87,8.27-9.38,15.83-14.73,23.3-9.68,13.59-13.15,27.82-10.42,44.85,2.12,13.37.43,27.45-.55,41.16-1.17,16.45-.92,31.14,8.7,46.79,5.59,9.06,1.47,25.2-.8,37.68-1.57,8.76-7.81,16.6-11.07,25.21-2.33,6.12-5,13-4.27,19.21,4.43,36.15,2.31,73.5,21.55,107.07,8,14,11.49,30.55,18,45.55,6.49,15.16,12.51,16.79,25.64,7.07,8-5.93,14.82-13.4,20.87-19-9.62-14-17.67-25.76-27.17-39.59-2.89,4.85-4.52,9.77-7.93,12.63s-8.55,3.56-12.95,5.19c-1.29-4.52-5-10.29-3.38-13.4a161.94,161.94,0,0,1,19.18-29.42c9.62-11.55,16.76-22.71,12-38.94-1.07-3.63,3.63-11.38,7.69-13.62,14.72-8.09,28-16.91,33.35-34,.61-1.93,1.26-4.33,2.7-5.44,25.49-19.24,29-49.37,38.21-76.66,6.83-20.32,10.18-21.86,31.79-21.67,12,.09,24-3.48,36-3.48,5.87,0,14,2.83,17.15,7.2,8.51,11.61,18.75,11.61,31.26,10.23,9.5-1,19.37,1.45,29.11,2.15,4.46.34,10.7,2.09,13.12-.09,20-18,46.61-13,69.38-21,13-4.58,26.29-8.6,39.78-10.85,5.93-1,13.1,2.19,19,4.95,10.33,4.8,19.8,11.41,30.22,16,9.53,4.18,20.56,4.61,10.72,20.35-8.79,14.14,2.89,36.24,19.22,41,1.47.4,2.88,1.23,4.36,1.42,10.48,1.41,20.17,19.21,31.51,1.78,6.21-9.5,13.12-18.84,17.43-29.23,3.9-9.41,9.16-13.44,19.09-14.39,4.73-.46,9.07-5,13.58-7.71-4.45-.74-9-1.23-13.37-2.28-5.53-1.35-10.94-3.2-16.41-4.79,2.73-5.48,4.05-13.22,8.51-16,17.52-10.94,36.58-10.73,56.1-4.67,6.43,2,13.77.74,20.45,2.09,6.42,1.32,12.5,4.18,18.78,6.21,4.21,1.38,10.91,4.86,12.35,3.35,8.67-8.88,17.4-8.85,27.89-4,3,1.42,7.62-.52,11.49-1,.34-2,.68-4,1-6.06-25.08-8.88-49.61-20-75.37-25.88-21-4.76-40.08-8.39-54.56-26.8-8.21-10.39-21.49-16.82-33.81-26.07-6.61,12.94-13.78,25.67-19.46,39-1.69,3.93-1,11.37,1.78,14.26,8.88,9.41,10,16.72,1.08,27.36-4.19,5-3.17,14.51-4.06,22-1.14,9.34-1.82,18.72-2.71,28.1l-6,1.47c-3.32-7.13-8.55-14-9.59-21.39-3.17-22.29-4.49-44.79-7-67.17-.77-7-1.2-15-4.89-20.47-6-9-8.76-16.63-3.38-26.75,1.23-2.36-1.63-6.88-2.61-10.42-3.63,1.91-7.38,3.6-10.82,5.78-1,.68-1.66,2.8-1.57,4.21,1.17,25.79-16.81,31.24-36.73,37-17,4.92-34.06,11.72-49.18,20.85-22,13.31-43.93,1.26-65.73,2.67-2.49.18-6.64-8-8-12.88-1.63-5.75-1-12.11-1.54-20-4.85,1.81-8.82,2.58-12,4.64-17.24,11.28-34.55,22.78-54.93,27.14-5.53,1.2-14.38-1.29-18-5.38-8-9-15-8.14-24.26-3.16-25.84,14-30,12.6-45.24-11.9-3.75-6-10-10.76-12.76-17.12-3.19-7.44-4.33-15.92-5.25-24.1-.74-6.49.21-13.16.27-19.77.06-8.63,0-17.3,0-28.34-10-4.64-10.14-13.89-4.33-26,2.64-5.51.67-13,1.9-19.46,1.29-6.7,3.69-13.22,5.91-19.74,1.35-4,5.56-8.88,4.36-11.49-1.44-3.23-7.5-6.61-11-6.12-4.15.62-9.44,4.49-11.29,8.33-4.79,10.11-7.83,21-11.86,31.51-.83,2.15-2.83,3.87-6.8,9.07,1.66-16.39,3.08-28.93,4.16-41.5.36-4.37,1.35-9.53-.41-13.13-8-16.44-9.1-30.28-2.85-42.42a42.91,42.91,0,0,1,2.64-4.39,60.85,60.85,0,0,1,14.54-14.42c0-.46,0-1.08,0-1.6a4.12,4.12,0,0,0-.06-.92.73.73,0,0,0-.09-.25.2.2,0,0,0-.13-.15c-12.51-5.16-22.28-10.11-19.95-28.13,1.57-12.23-2.49-24,7.35-35.65,5.41-6.43,3.6-18.51,6.58-27.49,2.7-8.11,6.27-16.53,11.68-22.93,6.36-7.44,18.29-9.07,16.57-24.22-.55-5.07,12.63-12.82,20.65-17.43,6.89-4,15.28-5.41,23.09-7.62,3.32-.93,8-2.62,10.18-1.14,9.68,6.27,18.07,7.35,28-.25,2-1.5,11.4,2.92,14,6.86,5.31,8,8.45,17.4,12.26,26.34,6.58,15.37,15.19,18.42,28.22,7.47,10.88-9.13,20.35-20.1,29.48-31.08,7.65-9.28,16.2-10.69,28-11,37.75-1,52.54,28.65,73.13,50.87,2.65,2.86,5.54,7.75,8.33,7.75,14.3.09,16,7.81,13.65,19.3-2.06,10.36,2.37,15.59,13.16,15.22,5.38-.18,10.79,0,17.52,0-1,5.32-.92,8.58-2.31,11-4.64,8-2.85,13.38,5.66,16.85,9.65,3.93,10.51,10.91,7.5,20.07-4.92,15-4.15,33.11-25.24,37.84-14.29,3.23-17.33-.21-16-15,1-12.08-1.82-24.47-3.23-39.53-5.53,3.53-9.84,5.62-13.4,8.64-9.47,8-13.19,4.27-14.64-6.33-.61-4.37-1.22-9.87-4-12.49-3.26-3-9-3.47-13.59-5.07-1.26,3.91-2.46,7.84-3.84,11.71-1.51,4.22-3.23,8.4-4.86,12.58-4.49-1.82-10.6-2.46-12.91-5.78-1.69-2.43,1.6-8.36,2.83-12.7,1.29-4.67,4.46-13.12,4-13.34-9-3.9-18.44-6.82-27.78-9.93-.62,4.83-1.51,9.66-1.69,14.51-.13,2.83.92,5.69,2.18,12.54-13.25-14-24.78-22-41.44-13.8-2.46,1.2-9-5.19-13.28-8.58-3.59-2.85-6.61-6.45-9.86-9.71l-3.6,1.85c1.13,9.13,2.24,18.29,4,32.21-9-4.43-14.51-8.08-20.62-9.87-3.84-1.13-11.81-.58-12.33,1-3.1,9.71-4.73,19.89-6.55,30-.61,3.35,1,7.87-.74,10.14-10.35,13.74-21.39,27-32.18,40.39q-3.46-.83-6.89-1.66c0-5.47-.37-10.94.16-16.32.24-2.33,2.24-4.55,3.53-6.73,4.68-8,15.81-16.81,5.29-24.78-4.73-3.56-18.26,1.14-25.91,5.48-20,11.34-31.11,28.8-30.65,52.78.28,13.15,4.79,18,17.71,15.18,11-2.46,16,.68,18,12,1,5.78,5.72,11,9.22,16.17,2.55,3.69,6.73,6.39,8.73,10.27,13.68,26.77,26.28,54.47,62.5,56.19,2.11.09,4.14,1.66,9.46,3.87l-15.25,4c-.46,1.53-.92,3.07-1.35,4.61,5.57,2.27,12.36,7.81,16.45,6.24,10.6-4,20.53-10.45,29.72-17.31,9.69-7.22,16.7-2.49,25.43,6.52-4.86,1.29-10.12,4.45-14.51,3.56-10.24-2.09-14.17,2.55-16.33,11.19-1.07,4.46-3.1,8.76-3.72,13.28-.76,5.69-.55,11.53-.73,17.31,3.81.06,9.06,1.72,11.19-.16,4.88-4.36,8.73-10.14,12-15.92,1.14-2.09-.74-5.84-1.29-9.25,2.28-1.51,4.18-3.78,6.43-4.18,40-7.16,68.64-35.29,102.05-54.6,3.5-2,6.46-5,9.47-7.77,9.59-8.85,12.05-17.62-.37-26.32-2.43-1.72-4.15-4.39-8.48-9.09,2.64-1.33,4.82-3,7.25-3.48,14.76-3.16,17.31-12.72,16.38-26.37-.43-6.12,4.4-12.91,8-18.69.61-1,8.82.58,10.69,3.07,12.33,16.29,23.24,8,35.39-.24,5.07-3.45,13.21-2.46,18.2-6,8.14-5.71,17.76-12.23,21.48-20.72,4.64-10.69-7.75-10-14.29-12.69-4.58-1.85-9-4.15-15.31-7.1,6.36-5.84,10.63-11.16,16.11-14.54,12-7.38,24-14.23,24.9-30.5a4.07,4.07,0,0,1,1.44-2.64q21.17-17.89,42.42-35.63c2.34-1.93,5.63-3,7.38-5.28,23.18-30.25,57.3-41.65,91.45-52.29,19.64-6.12,24.59-2.64,34.73,14.91,3.6,6.18,8.64,11.49,14.91,19.73,3.05-7.71,4.58-11.65,6.18-15.64,19.64,10.23,22.29,32.09,4.27,48.41-2.82-7.41-5.37-14-7.93-20.72l-40.2,37.75c-8.09-21.27-22.88-15.74-37.44-10.11-3.57,1.38-8.7,3.75-9.44,6.61-3,11.74-10.79,13.46-16.6,12.35-8.85,12-16.88,21.49-23.12,32-3.78,6.4-5.07,14.36-7,21.71-2.36,9-7.92,12.29-17,11.46-18.5-1.72-35.56,9.07-40.79,26.41-3.44,11.52-4.88,23.67-8.33,35.22a46.9,46.9,0,0,1-9.31,16.85c-6.49,7.5-14.23,13.92-22.32,21.64-10.91-8.73-6.79-21.15-5.38-32.74,1.36-11.31,3.45-22.53,5.35-34.79-24.07,5.16-38,21.79-36.36,41.34,1,11.16,4.15,22.22,4.42,33.38.4,17.19-1.23,34.4-1.1,51.58.06,6.61,1.07,17.68,4.36,18.82,6.12,2.06,15.47.27,21.12-3.48,4.77-3.16,7.32-11.12,8.67-17.43.8-3.9-2.61-8.6-3.94-13-5.31-18,1.27-29.48,18-38,7.56-3.88,12.51-12.7,18.9-19,2.77-2.71,6.24-4.7,9.41-7,2.49,3.57,5.72,6.79,7.31,10.7,4.64,11.22,8,23,13.19,33.93,1.78,3.79,7.78,8.27,11.5,8,19.15-1.63,29.14,10.94,38.27,23.85,14.75,20.78,28.06,42.54,42.64,63.45,2.51,3.65,8.29,5.07,12.57,7.53-1.51-4.46-3-8.92-4.58-13.37-.34-1-.8-1.85-1.66-3.88,5.07-8.51,21-17.46,1.35-27.79,1.41-1.9,2.06-3.38,3.16-4.18,5.26-3.69,10.64-7.22,16-10.82l-18-20.16c-3.08,2.8-6.55,5.25-9.1,8.45-2.71,3.41-4.52,7.53-6.73,11.31-3.35-2-9.75-4.48-9.53-6,.64-4.12,4-7.81,6.27-11.71,2.36-4.12,6.11-8.09,6.73-12.48,1.41-10.08,6.49-14.73,15.49-10.45,18.69,8.88,37,3.84,55.7,1.32,8.85-1.2,18.17-1.6,26.9-.15,15.31,2.58,28.93,1.26,38.58-12,7.93-11,17.12-15.71,30.24-8.73-3.68-11.69-6-22.14-10.45-31.64-2-4.3-7.93-6.85-12.26-9.95-4.09-2.89-8.39-5.45-12.64-8.12,3.73-4,6.71-9.44,11.29-11.8,8.11-4.18,21.45-1.08,21.08-17.86l-15.09,1.72c-5.29-11,2.34-16.79,9-23.24,11.56-11.25,10.94-16.66-5.14-30.06-1.75,4-3.62,8.26-5.81,13.31-15-14-32.67-21.8-29.66-47.5,6.82,4.74,10.7,9.19,15.34,10.27,6.61,1.51,13.8.52,20.72.62-1.08-5.69-1.45-11.69-3.45-17-1.72-4.58-7.53-8.4-7.68-12.7-.46-11.65-4.77-16.57-16.78-16.54-3,0-8.92-7.34-8.43-10.51,4.61-28.68,20.84-49.46,46.54-62.62,4.31-2.21,10.7-4,14.79-2.43,22.87,8.73,45.55,18.51,59.66,40.06,3.08,4.7,4,11.8,3.63,17.64-1.23,19.25,1.57,37,5.94,56.19,5,22,8,44.76,13.12,67.26,3.29,14.39,3.72,34.71-9.84,49.19-1.87,2-1.41,8.14.25,11.12,5.69,10.12,3,15.86-8.09,17.06-12.54,1.33-16,8.18-15.4,19.86.4,7.5-1.9,15.16-2.09,22.75-.18,5.93-1.13,15.31,2,17.27,13.93,8.73,7.44,20,5.93,30.81-.24,1.9-1.13,5-2.33,5.31-18.76,5.29-18.29,26.84-31,36.37-6.73,5.07-17.24,5.65-26.25,7-3.32.46-7.19-2.71-10.91-4.28-9.65,32.16-15.46,25.46-31.6,19.34-1,5.44-2,10.57-2.25,11.86-16.23,1.42-31.29,3.23-46.38,3.78-5.87.22-12-3.87-17.68-3.35-7.84.71-16.72,2.28-22.59,6.8-3.26,2.52-3.78,15.61-1.23,17.24,6,3.84,16,7,21.79,4.52,26.59-11.5,51.83-5.84,77.78,1.51,7.83,2.21,17.61,2.73,25.11.06,23.3-8.24,23-9,30.28,17.46,23.88,3.69,48.81,7.47,73.74,11.4,12.94,2,33.35,33.79,29.08,47-4.12,12.7-3.13,22.72,8.12,31.2,3.44,2.59,7.28,7.2,7.56,11.1,1.23,18.38,15.09,26.81,28.37,32.71,14.42,6.42,15.59,15.74,13.59,28.25-1.51,9.43-6,22.19,5.62,24.93,5.29,1.26,17.86-10.42,20.32-18.35,11.31-36.4,23.7-72.89,22.62-111.8-.18-6.34-3.84-12.55-5.59-18.91-3.87-13.92-8.57-27.73-11.1-41.9-3.1-17.58-4.64-35.44-6.33-53.21a328.86,328.86,0,0,1-1.53-33.5c.49-55.76,1.56-111.53,1.62-167.29,0-8.88-4.42-17.73-6.27-26.71s-2.33-18.14-4.49-27c-2-8.33-5.25-16.41-8.33-24.5-1.22-3.23-4.73-6.05-4.91-9.22-1.48-25.88-10.73-48.72-22.84-71.53-8.18-15.43-10.21-34.09-15-51.31-7.87-28.37-24.19-51.67-43.22-73.52-15.65-18-15.83-25.92-3.94-46.82,8.36-14.66,17.89-29.08,23.39-44.82,4.56-12.91,3.82-27.66,5.69-41.56a164.17,164.17,0,0,1,4.15-22.16c3.14-11.25,7.66-22.13,10.58-33.45,3.38-13.12,10.2-16.26,20.47-6.82,8.61,7.9,15.65,17.52,23,26.71,48,60.34,87.95,125.2,119,196.27,28.9,66.22,42.21,135.63,51.62,206.08C2582.73,1270.87,2554.23,1407,2488.88,1535.72Zm-252.4-655.21c2.67.58,6,10.39,4.61,14.38-3.44,9.78-15.71,11.16-27.6,3.94C2218,888.59,2222.06,877.28,2236.48,880.51Zm-40.76-56c3.47-10.88,5.16-20,9.37-27.67,1.76-3.29,8.95-5.34,13.25-4.76,2.19.31,5.41,8.18,4.61,11.86C2220.31,816.26,2212.62,824,2195.72,824.47Zm-83.8,335.37c-1.75-11.87.4-19.46,12.23-21.95s20.51,1.69,25.27,14c16.94,44.14-24.34,102.48-77.31,96.77-.46,1.38-1,2.76-1.44,4.14-21.39-7.43-43.5-13.37-63.94-22.9-14-6.54-22.35-20.5-18.11-37,1.79-6.85,8.28-16.38,13.78-17.24,5.31-.83,12.51,7.56,18.16,12.66,9.13,8.27,16.23,21.06,26.78,25.09C2079.77,1225.8,2117.06,1194.24,2111.92,1159.84Zm-19.77-96.16c4.86-.18,10.52-2.06,14.45-.21,13,6,3.2,13.62,1.32,20.63-1.9.7-3.81,1.38-5.71,2.05C2098.86,1078.65,2095.51,1071.19,2092.15,1063.68Zm-190.55,5.69c-15.18-5.35-16.32-8.48-15.52-43.31,10.57,3.41,20.53,6.64,30.52,9.9.93,1.84,1.85,3.72,2.77,5.59C1879.07,1033.93,1909.47,1061.13,1901.6,1069.37Zm1.63-83.49c3.81,17.06,1.51,21.83-19.21,32.77,1.57-10.54,2.24-18.35,4.06-25.85.92-3.81,6.33-7.84,5.53-10.51-7.1-23.89,6.61-43.19,13.13-64a11.63,11.63,0,0,0,.37-3c-.41-26.19.09-49.8,21.08-72.33,11.65-12.51,9.41-38.67,11.56-58.89.61-5.81-5.35-12.3-10.12-22.32,8.92,2.92,14.61,4.09,19.62,6.61,8.51,4.3,13.31,2.7,15.67-6.89,3-12,9.9-17.55,22.63-12.48,16.66,6.64,17.15,10.91,13.43,26.71-3.1,13.38-5.74,21.49-22,18-2.55-.56-9.59,8.6-10.6,14-3.29,17.46-4.52,35.28-7,52.9-.68,5-2.83,9.71-4.64,14.45-.71,1.84-2.4,3.28-3.54,5-10.82,15.76-11.25,36.64-27.63,50.44-5.78,4.86-3.6,19.15-5.29,30.58C1901.73,961.63,1898.78,965.84,1903.23,985.88Zm-30-81.3c5,27.88-1.6,53.73-11.16,79.06l-5.44.21q-3-18.9-6.15-37.84l-5.16-.64c-1.66,4.46-4.43,8.82-4.74,13.34-.33,5.5,2.46,11.22,1.94,16.66-.61,6.55-3.29,12.88-5.1,19.33-7.56-4.21-16.69-7-22.13-13.12-3-3.41-2.19-13.89.92-18.38,8.88-12.82,4.92-27.82-9.35-32.28-6.08-1.91-13.21-5.84-16.29-11-9.65-16.23-21.21-32.37-14.14-53.49,1.23-3.63-1-8.45-1.84-14-10.61,3.79-18.11,14.39-29.73,5.81-1.35-1-10.57,8.64-16.14,13.34.77,1.57,1.54,3.11,2.34,4.68,4.12-1.05,8.18-2.4,12.36-3.08,3.59-.55,8.45-1.81,10.69-.09,2.52,2,3.51,6.83,3.88,10.54.92,8.92.21,18,1.72,26.78,2.4,14.29-3,21.55-17.65,21.64-3.07,0-6.11-.52-9.19-.77-29.26-2.37-29-2.34-23.73-31,.71-3.88-3.41-8.64-5.28-13-4.37,3.23-9.07,6.09-12.85,9.9-1.33,1.29.67,5.78-.62,7.26-2.89,3.31-6.91,5.68-10.45,8.42-2.09-4-7-9.9-5.78-11.68,6.7-9.93,2.89-18.79,1.38-29-1.26-8.52,4.55-18.11,7.57-28.34-18.26,1.72-22.66-3.29-17.83-20.63,3.28-11.77,7.28-23.39,11.65-34.83,1-2.67,5.19-6.27,7.19-5.87,2.64.52,5.72,4.27,6.58,7.19,2,6.89,2.74,14.14,4.49,23.83,12.48-10,22-19.55,35.66-10.58-4.86,6.8-9.26,12.94-13.65,19.09,8.7,1.69,17.3,4.12,26.09,4.86,11.35.92,21.89-9.9,24.57-23.82-.87-.53-1.7-1.48-2.59-1.54-8.85-.55-19.89,2.06-18.44-13,1.14-11.69,16.9-26.66,26.31-22.69,5.69,2.4,9.44,11.1,12.3,17.71,1.23,2.85-3,7.65-3,11.55,0,5.11.18,12.52,3.29,14.76,4,2.86,12.6,4.12,16.38,1.66,18.35-11.87,40.21-19.37,47-45,5.23-19.55,34.28-22.66,47.68-6.92,1.66,1.94,2.89,4.89,5,5.72,21,8.33,18.44,30.18,25.17,46,4.68,11-3.5,21.43-16.2,25.36-6.11,1.88-12.23,3.94-19.73,6.37.34-4.58,2-9.87.68-14.27a25.1,25.1,0,0,0-9-12.32c-2-1.42-7.07,1.47-10.76,2.43,1.44,4.45,2.74,9,4.4,13.34.7,1.84,2.27,3.35,3.41,4.92-13.5,14.78-13.5,14.78,8.64,37.74C1867.7,877.16,1870.86,891.14,1873.26,904.58Zm-221.33-20.91c2.47.07,4.92.74,8.33,1.29-1.13,4.46-1.81,8.24-3.07,11.84-1.6,4.58-4,12.88-5.5,12.79-6.06-.43-15.55-2-17.21-5.94-6.21-14.69-11.84-30.24-13.78-45.95-1.32-10.85-1.75-18.05-12.69-24.44-6.86-4-9.68-15.65-13.25-24.28-3.2-7.69-4.92-16-8.64-28.53,9.75,5.66,18.17,11.37,27.27,15.52,5.72,2.59,12.45,3.32,18.78,3.75,2.58.16,5.26-2.85,8-4.21,7.07-3.53,15.09-10.88,21.61-1.41,7.32,10.63-6,12.14-9.71,18.1-4.64,7.57-6.27,17.22-8.12,26.19-1.87,9.17-.64,19.25-3.93,27.7C1633.49,882.87,1633.15,883.3,1651.93,883.67ZM1639.15,937c-4.12,1.26-8.24,3.59-12.36,3.53-9.5-.12-19-1.38-30.59-2.4a90.58,90.58,0,0,0-2.88,9.66c-1.73,9-6.74,11.68-15.44,9.31-23.85-6.46-43.55-19.58-60.27-37.38a31.48,31.48,0,0,1-6.58-11.9c-3.23-10.45,2.85-17.3,12.78-12.75,10.36,4.7,20,12.05,28.22,20,9.56,9.28,19.55,11.37,32.52,14.17,18.76,4.09,25.64-.15,31.76-15.55.58-1.48,11.49-1.72,13,.55C1633.83,921,1636,929.29,1639.15,937ZM1969.29,971c6,.3,11.8,3.68,17.7,5.81,0,1.69,0,3.41.07,5.1-3.23,2.3-7.26,7.13-9.53,6.42-6.52-2-12.33-6.3-18.41-9.68C1962.53,976,1966,970.85,1969.29,971Zm5.84-27.45c3.57-14.82,13.52-22.44,28.93-21.34V961c-3.81,0-8.3-.58-12.54.13C1976.58,963.6,1971.59,958.43,1975.13,943.59Zm-471.24-13.32c-5.87,17.16-22,17.13-34.82,23.58C1467.16,938.64,1487.54,925.23,1503.89,930.27Zm-61.2,476.81c-22.68-4.52-34.43,10.2-47.27,24-4.16,4.46-9.63,7.72-15.71,12.48-5.54-38.64,15.27-66.52,48.93-69.19,7.1,23.45,7.1,23.45,24.44,20.23,1,1.16,2,2.3,3,3.47C1451.57,1401.3,1446.41,1407.81,1442.69,1407.08Zm22,72.76c-1.2,25.63-24.78,16.47-35.32,27.51-1.08-1.45-2.15-2.89-3.23-4.31Q1445.37,1491.43,1464.64,1479.84Zm-65.72-264.21c-1-1.41,1-5.59,2.7-7.5.71-.8,5.54.24,6.4,1.69,5.81,9.81,11,20,16.41,30,1,1.78,1.69,3.66,2.18,4.7.4,9-16.19,24-23.33,20.94-2.64-1.14-5.35-7.44-4.55-10.51C1402.15,1241.76,1407.71,1229,1398.92,1215.63Zm38.3-234.6-3-4.74c7.16-16.2,16.57-21.55,32.06-14.32C1455.36,969.1,1446.29,975.06,1437.22,981Zm39.9,441.42c-.43-5.29-2.71-10.46-2.83-15.71,0-1.72,3.84-4.4,6.33-5,1.36-.37,4.62,2.43,5.17,4.33,2.52,8.76,4.39,17.71,6.85,28.1-1.44,3.13-2.39,8.2-5.44,11-3.87,3.57-9.47,5.32-14.32,7.84,1.23-4.83,2.89-9.59,3.59-14.51A73.65,73.65,0,0,0,1477.12,1422.45Zm189-197.23c19.36,7.84,43.62-1.29,55.33-20.84,6.73-11.28,11.68-23.64,26.1-28.68,3-1.08,2.92-11,3.9-15.31,5.75,1.81,12.79,4.06,23.45,7.44-5.25,16.41-11.19,35.57-17.61,54.53-1.23,3.72-4,7.07-6.61,10.18-28,33.63-66.27,31.9-101.75,22.68-30.24-7.9-43.06-37.25-49.06-67-3.35-16.54,5.44-34.4,20.14-41.25,5.53-2.58,14.57-2.83,19.49.12,3.87,2.31,4.33,11,5.34,17.09.43,2.71-1.69,5.78-2.39,8.76C1637,1196.23,1646.59,1217.35,1666.11,1225.22ZM1662.82,1081c1.26-.83,2.52-1.63,3.78-2.43l24.68,18.14-23.73,17.83C1665.71,1101.4,1664.26,1091.2,1662.82,1081Zm716.44,53.49c-.89,3.69-7.07,8.73-10.51,8.51-4.27-.27-11.65-5.32-11.71-8.42-.16-11.77-7.26-15-16.23-19-5.44-2.46-9-9.1-13.47-13.86,5.54-3.54,11-7.1,12.88-8.27C2361.68,1093.32,2383,1118.4,2379.26,1134.45Zm3.85,84.53c-5.78,5-11.56,9.93-20.05,17.21-5.47-8.94-10.17-15.09-12.78-22-.62-1.63,7.19-9.17,8.91-8.46C2367.58,1209.11,2375.2,1214.37,2383.11,1219Zm359.77,24.07c-35.38-5.84-70.06-1.41-104.79,4.3-3.41.56-7,.1-11.93.1-.4-9.32.13-15.9,12.14-16.2,36.25-.87,72.52-2.37,108.76-3.6,4-.12,8,0,12,0,.95,2,1.9,3.9,2.86,5.87C2755.52,1236.9,2748.54,1244,2742.88,1243.05Zm30.77,152.38c-1.35-2.34-2.73-4.68-4.09-7q18.81-9.92,37.66-19.8c1,1.91,2.06,3.78,3.07,5.66Q2792,1384.88,2773.65,1395.43Zm-9.1-26.63,84.72-41C2827.78,1353,2800.73,1369.51,2764.55,1368.8Zm74-.33c-.27-1.39-.55-2.8-.8-4.21l38.12-7.47C2869.47,1376.58,2869.47,1376.58,2838.57,1368.47Zm-300.41,218.09c14.41-8.51,18.44-30.67,42.48-33.72C2569.26,1571.93,2553.43,1579.16,2538.16,1586.56Zm117.7-8.94q-15.92,8.16-31.82,16.26c-.7-1.32-1.41-2.64-2.15-4q15.41-9.17,30.8-18.38C2653.74,1573.56,2654.81,1575.59,2655.86,1577.62Zm-65.54,12.69c13.68-8.3,27.39-16.63,42.42-25.73C2633.29,1578.29,2619.09,1587.33,2590.32,1590.31Zm4.64-36.39c1.45,1.87,2.89,3.72,4.31,5.59-14,15-29.05,28.47-51.19,32.25Q2571.51,1572.8,2595,1553.92Zm453.1-125.54c-11.83,15.49-19.09,16.81-31.23,8.24-.06-1.63-.12-3.26-.18-4.86C3026.27,1430.71,3035.89,1429.67,3048.06,1428.38Zm-257.38,75.37c-.92-2-1.84-4-2.76-5.93,22.62-13.62,42.69-33.23,73.31-28.34Zm28.22-4.12,27.57-17.37c1.42,2.16,2.83,4.31,4.27,6.46l-29,15.77C2820.8,1502.86,2819.85,1501.23,2818.9,1499.63Zm10.85,17.06c-.83-2.3-1.63-4.61-2.46-6.94q16.32-5.91,32.68-11.84c.92,2.52,1.81,5,2.7,7.59Zm29.85-56.93c-.89-2-1.79-4-2.71-6l25.18-12c1,2.4,2.09,4.8,3.1,7.19Q2872.41,1454.4,2859.6,1459.76ZM3093.93,1555l-42.67-1.93c.06-2.4.12-4.8.15-7.16q21.4,1.1,42.76,2.24C3094.11,1550.41,3094,1552.69,3093.93,1555Zm232.48-11.74c3.84-4.7,6.21-7.65,8.61-10.6-.34-.71-.65-1.45-1-2.19-6.82,3.2-13.65,6.43-23.51,11.07,2.92-6.67,4.64-10.61,7-15.86-14,.34-20.53,19.7-40.63,10l15.86-8.48c-.77-1.48-1.54-3-2.31-4.49q-18.81,7.6-37.62,15.15c-.62-1.26-1.23-2.49-1.82-3.72,5.72-4.12,11.47-8.24,17.19-12.32-.71-1.6-1.42-3.17-2.12-4.74l-42.88,19.18c-.87-1-1.76-2.09-2.62-3.13l13.9-15.59c-.47-.73-.9-1.44-1.32-2.15l-37.66,20-2.31-3.9c7.53-6.67,15.1-13.31,22.63-20-.65-.86-1.29-1.75-1.91-2.61q-20.7,13.23-41.37,26.46c-.83-1.2-1.67-2.39-2.46-3.59q13.74-11.07,27.54-22.11c-.83-1.35-1.66-2.7-2.46-4-19.58,11-35.23,30.68-63.44,31.44,15.52-10,28-18.13,40.45-26.22-.71-1.32-1.45-2.64-2.19-4l-64.27,32.27c-.68-1.23-1.35-2.46-2-3.69l42.79-31.16c-.8-1.2-1.6-2.4-2.4-3.63q-29.46,17.14-58.93,34.27c-1.1-1.69-2.21-3.35-3.28-5q26.23-18.5,52.47-37c-1.23-1.84-2.43-3.69-3.66-5.53l-58.56,39.47-2.4-3.6q18.72-16.23,37.47-32.43c-1.19-1.47-2.42-2.92-3.65-4.39q-20.21,16.23-40.46,32.46l-2.52-2.34,10.61-14.57c-.68-1.08-1.35-2.18-2-3.29-27.54,26.38-58.56,46.17-95.57,55.18,21.89-17.65,52-24.5,66.06-52.32-29.14,20.13-56.47,43.83-94.77,45.71,27.27-17.06,59.67-27,76.6-57.82-28.16,24.34-58.22,44.76-96.64,48.78,28.37-14.08,55.3-29.91,75.22-55.51-29.85,21.24-57.88,45.55-98.12,45.37q35.82-19.87,71.65-39.69c-1-2-2-3.9-3-5.84-26.1,13-48.75,34.43-78.85,37.81-.7-1.23-1.41-2.49-2.15-3.75q30.1-19,60.19-38c-.83-1.51-1.66-3-2.49-4.46a242.6,242.6,0,0,1-73.68,33.42c-.93-2.1-1.85-4.15-2.77-6.24,8.67-3.82,17.27-7.75,26-11.35,9.63-4,19.37-7.65,29-11.43-.92-1.76-1.84-3.51-2.76-5.23-8.06,3-16.08,6.06-24.19,8.89-1.2.39-2.86-.47-8.4-1.45,9.44-8.33,16.85-14.91,24.29-21.49-.43-.76-.83-1.5-1.26-2.27q-20,8.48-39.9,17c-.8-1.6-1.6-3.23-2.4-4.83,7-4.18,14.05-8.15,20.87-12.54,18-11.53,35.69-21.24,58.53-22.38,24-1.17,45.37-1.35,65.66,15.12,6.33,5.17,22.1,3.69,31.05-.33,23.57-10.52,46.44-11.65,70.7-4.15a50,50,0,0,0,21,1.75c26.1-3.57,49.92.55,70.27,18.23,16.45,14.29,36.06,18,57,18.59,14.82.37,29.73.93,44.33,3.08,23.67,3.47,47,8.67,70.67,12.39,9.44,1.5,19.18,1,28.77,1.38,7.1.31,14.21.71,21.64,3.93C3395.85,1513.8,3369,1546.33,3326.41,1543.25Z"/><path class="cls-1" d="M3409.09,1031.21c12.76-6.25,24.44-10.38,34.33-17.14,22.3-15.22,23.49-38.82,1.87-54.39-10.8-7.78-24.58-14.59-37.5-15.62-37.14-3-74.52-2.79-111.81-3.61-1.81,0-3.67,2.16-7.55,4.62l17.27,5.9v139.14L3290,1093.5q.27,2.93.56,5.85c24.58.28,49.17,2.71,73.74,0,.06-1.48.11-3,.17-4.43l-18.56-4.7c0-11.47,0-22.65,0-33.82,0-12.93,6.28-20.67,18.72-24.6,17.62-5.57,32.4-.1,45.49,11,16.79,14.17,33.13,28.9,49.27,43.81,21.76,20.09,46.87,32.45,76.56,35v-12.3c-14.1-3.24-30.4-3.07-41.84-10.44-22.59-14.58-42.48-33.33-63.5-50.35C3423.41,1042.72,3416.22,1037,3409.09,1031.21Zm-39.11-7.78c-6.89,1.3-13.57,3.78-21.61,6.11V992.71c8.88-4,17.38-6.22,24-11.09,7.09-5.26,11-15.21,1.68-20.32-7.28-4-17.8-2.19-26.89-2.37-.52,0-2.31,5.79-1.38,8s4.49,4.44,7,4.54c4.91.18,9.87-1.1,14.82-1.78l1.9,4.35c-6.52,2-13.37,6.32-19.49,5.46-7.12-1-13.61-6.51-20.37-10.06,3-5.24,4.73-13.44,9.1-15.2,21-8.47,43-9.37,64.09-.32,13.6,5.83,19.11,22,16.47,41.16-2.13,15.52-12.47,22.72-26.43,25.67C3385.34,1022.3,3377.49,1022,3370,1023.43Z"/><path class="cls-1" d="M3484.61,1512.8l51.31,2.33v-9.22l-51.42,3.22Z"/><path class="cls-1" d="M1272.15,155.23c18.11,87.09,35.72,174.29,54.09,261.33,4,19,3.11,36.36-7.86,52.85-2.72,4.09-4,9.17-7.61,18l124.83-28.19,3.81-6.57c-4.84-2.76-10.6-4.62-14.28-8.48-5.12-5.36-10.87-11.67-12.56-18.51-10-40.14-19-80.51-27.69-120.94-.79-3.67,1.93-10.72,4.94-12.15,17.39-8.24,50.76-.38,63.65,14.31,19.91,22.69,38.73,46.42,59.55,68.23,37.81,39.59,82.2,60.25,138.19,43.06,6.91-2.12,14.65-3.85,11-12.43s1.56-24-14.8-24.12c-33.6-.26-56.36-17.66-74.39-44.16-21.53-31.63-33.4-70.6-71-90.79,15.27-8.13,29.17-14.5,42-22.56,29.77-18.7,51.86-42.46,53.89-80.5,2.88-53.71-20.7-90.65-70-99.79-25.2-4.68-52.42-6.19-77.54-2-59,9.81-117.22,23.78-175.71,36.35-13.82,3-27.39,7.08-41.08,10.66q-1.5,2.74-3,5.49C1259.23,105.51,1266.86,129.81,1272.15,155.23Zm91-24.81c29.47-6,58.58-14.68,88.31-18.19,16.85-2,35.26,2.23,51.77,7.44,7.8,2.46,12.79,13.84,16.74,18.47-1.85,24.07-12.81,37.78-28.6,44.46-26.64,11.28-54.65,19.35-82.14,28.59-6.76,2.27-13.83,3.59-20.62,5.76-17.8,5.69-20.25,4.92-24.37-13-4.45-19.38-7.54-39.07-11.47-58.58C1351,136.45,1354.21,132.24,1363.16,130.42Z"/><path class="cls-1" d="M2238.18,445.32c-1.95-6.62-3.7-10.52-4.19-14.57-2-16.46-8.25-34.06-4.65-49.28,15.71-66.55,34.31-132.41,51.87-198.52,3.94,3.48,5.28,6.64,5.79,9.93,13.36,87.46,26.92,174.88,39.59,262.43,1.62,11.23,6.15,16.06,16.41,18.36,19.94,4.48,39.72,9.67,59.59,14.43,5.53,1.32,11.17,2.15,13,2.5,3-24.29,3.63-46.88,8.92-68.3,15.06-61,30.3-122.14,48.81-182.18,14.39-46.68,18.46-98.24,56.17-135.47.38-.38-.25-1.79-.48-3.13-41.12-9.42-80.85-25.31-121-31.36,3,20,8,37.86,7.63,55.58-.37,18.16-4.71,36.56-9.61,54.22-13,46.79-27.19,93.24-41,139.81-.88,3-2.36,5.79-5.18,12.56-3-19-5.47-33.54-7.55-48.18Q2336.7,174,2321.24,63.8c-1.36-9.62-4.76-17.5-15.45-20.49-23.63-6.63-47.07-14-70.73-20.43-6.38-1.75-13.29-1.51-20.89-2.28,12.25,45.36,11.81,45.25-1.35,95.06-18.69,70.69-37.34,141.39-54.62,212.43-7.75,31.83-15.76,62.52-44.85,82.29-.21.14,0,.94.13,3Z"/><path class="cls-1" d="M2505.78,474c-4.7,7.49-14.71,11.67-22.33,17.29-3.74,2.76-7.66,5.29-11.49,7.93,3.84,3.62,7.16,8.16,11.62,10.68,12.41,7,25.55,12.74,38,19.78,39.56,22.45,78.25,46.53,118.5,67.64,67.62,35.47,135.11,22.41,185.83-34.49,31.21-35,55.36-74.69,74.74-117.32,32.83-72.2,17-141.27-48.24-186.89-51-35.68-105.8-66-159-98.52-4.15-2.55-9.14-3.73-18.27-7.32,6.49,32-5.33,55.75-19.31,78.55C2606.05,312.42,2556.28,393.45,2505.78,474Zm219-200c6.52-11,12.29-14.75,23.57-5.39,21.18,17.56,44.81,32.45,64.38,51.57,22.6,22.08,27.75,50.24,16.8,80.77-14.71,41-38,77.25-66.09,109.75-22.92,26.49-55.17,34.32-88.36,24.5-28.56-8.45-55.59-22.13-84.3-33.91,4.1-8.47,6.34-14.18,9.45-19.36C2641.72,412.6,2683.47,343.43,2724.78,274Z"/><path class="cls-1" d="M1013.28,598.71c119.38,14.09,251.14-89.14,229.08-229-5-32-13.69-62.35-29.77-90.9-3.28,1.14-5.27,1.57-7,2.47Q1131.79,319,1058,356.88c-25.68,13.12-25.73,13-12.93,39.49a35.08,35.08,0,0,1,1.79,4.25c3.51,10.95,8.85,12,19.37,6.63,24.5-12.61,49.89-23.48,74.92-35.05h0c-4.74,3.75-9.06,8.31-14.31,11.1-19.41,10.28-39.17,19.91-58.7,30-2.78,1.43-5,3.83-7.55,5.78l3,4.53,95.86-49.79-2-4.91-16.66,4.78h0l20.27-13.93c3.14,11.33,6.5,19.35,7.48,27.65,10,84.71-60.16,153.72-144.64,140.18-45-7.22-77.74-33.57-95.14-76.92l39.11,48.47,3.55-2.91c-11.81-17.57-24.2-34.79-35.31-52.8-18.68-30.26-20.19-63.62-4.67-94,24.4-47.69,64.49-74.21,120.19-72.38,4.89.16,9.79,0,14.68,0-.16-1.32-.32-2.63-.49-3.94-37.45-9.61-70.51,3.23-100.47,24.64-42.61,30.45-57.18,72.84-47.26,124-2.46-9.17-6.53-18.24-7.13-27.53-4.19-65.39,49.36-122.5,119-127.54,26.27-1.91,53.2-5,65,27.52.12.33.89.43,4.27,2,9.14-13,19-26.4,28.14-40.25,25.46-38.56,24.28-41.6-20.61-57.4-105.46-37.15-227.57,25.73-262.42,135.74C808.9,446.23,862.17,580.88,1013.28,598.71Z"/><path class="cls-1" d="M1815.52,370.71c3.73-18.91,11-37.1,16.41-55.7,2.68-9.24,8.56-11.4,17.38-10.79,16.85,1.16,33.75,1.76,50.64,2.29,36.61,1.16,36.57,1.1,48.21,36.35,6.68,20.23,8.88,39.95-5.35,58.3-1,1.3-.54,3.74-1,8h120.62c-3.43-6-5.94-10.16-8.23-14.44-6-11.2-13.59-21.89-17.49-33.78q-50.13-152.94-99-306.29c-5.6-17.49-12.45-35.8,8-49.38.42-.29,0-1.9-.19-5.25H1822.4c26.33,21.67,17.76,44.32,10.51,67-18.48,58-35.09,116.57-55.61,173.79-19.59,54.62-33.44,112.42-75.71,160.77h118.69C1818.28,390,1813.74,379.74,1815.52,370.71Zm68.79-167.17L1868.11,231l-2.48-1.2c6-14,12.11-28,20-46.39,10.74,26.76,19.82,49.4,29.68,74H1857.6c17.69-13.22,26.38-31.1,30.64-51.45Z"/><path class="cls-1" d="M2894.87,2007.53c-11.31-14.89-24.08-29.25-34-45.35-17.75-28.69-34.91-57.86-50.29-87.86-23-45-57.47-84.72-64.11-140.51l-84,49.48c38.59,14.67,51.33,47.71,68.16,76.27,16.72,28.38,31.18,58.1,46.63,87.23-20.87-11.68-38.87-25.1-56.68-38.77q-44.34-34.05-88.5-68.36l-10.37-10.05c-9.53-1.73-20.4-7.24-28.3-4.42-17.11,6.12-32.81,16.28-48.83,25.27-4.43,2.48-7.93,6.62-14.6,12.37,35,10.18,45.2,38.83,59.74,63.62,21.68,37,43.33,74,64.4,111.34,15.86,28.08,42.62,52,32.26,93.09L2772.6,2079l-12.15-10.75,29,9.17-83.93,48.81,3.6,5.92,89-54.27c-6.63-3.81-9.46-6.46-12.7-7.12-19.45-4-33.15-16.14-43.06-32.1-17.73-28.56-34.27-57.86-51.32-86.84-3.16-5.37-6.39-10.69-9.58-16l-5.12,3.12c26.38,42.94,45.18,90.44,81.13,127.63-8.77-7.19-20-12.78-25.84-21.86-19.23-30.1-36.64-61.37-54.45-92.36-7.18-12.5-13.57-25.45-20.32-38.19a74.21,74.21,0,0,1,22.89,11.75c46.43,34.29,93.21,68.13,138.79,103.5,12.43,9.64,22.5,14.14,35.88,4.37l-.17.18-.26.27h0l.26-.13,0-.06Z"/><path class="cls-1" d="M2587.22,2061.57c4.21-83.61-59.08-155-141.07-159.09-94.72-4.73-168.91,61.4-173.08,154.28-3.71,82.44,61.72,152,146.66,156C2516.4,2217.26,2582.37,2157.71,2587.22,2061.57Zm-77.92,53.34c-17.14,30.19-54.09,51.09-92.61,36.8-16-5.92-30.85-14.78-46.22-22.31l14.19,2c-9.63-10.86-18.58-18.69-24.75-28.31-28.77-44.88-7.51-107,43-127.81,5.26-2.17,10.13-5.31,15.17-8-68.93,18.18-94.4,77.66-63.51,142.39-2.65-2.16-6.09-3.82-7.83-6.56-19.05-30-12.45-79.19,14.75-111.74,24.39-29.18,63.54-38.78,98.7-24.21C2515.46,1990.1,2539,2062.62,2509.3,2114.91Z"/><path class="cls-1" d="M1680.06,2290.9c53.38-3.44,86.48-37.48,94-91,5.59-39.5,8.34-79.39,12.53-119.09,1.78-16.78,2.29-34,6.6-50.12,3.41-12.76,11.75-24.22,19.58-39.54l-95.41-9.3c2.58,19.9,7.65,37.95,6.68,55.66-2.39,43.42-7,86.76-11.92,130-1.9,16.57-5.43,33.48-11.56,48.9-6.22,15.65-20,24.72-37.75,24.15-16.78-.55-28.28-10.78-33.11-25.64-4.48-13.76-7.87-29-6.85-43.23,3.28-45.92,8.59-91.7,13.62-137.48,1.9-17.36,7-33.68,21-45.66,1.88-6.11,3.88-11.56-6.38-12.3-30.35-2.18-60.64-5-93.52-7.87,16.88,18,15.27,38.48,13.42,59-4.65,51.49-9.51,103-13.68,154.5-1.75,21.66.54,42.68,12,62.3C1594.63,2287.79,1637.23,2293.66,1680.06,2290.9Z"/><path class="cls-1" d="M2040.55,2281.16c27.88-17.22,46.12-41.18,46.42-74.68.31-34-18.55-56.87-47.24-73.55-24.13-14-50.89-14.07-77.08-17.67-13.21-1.81-25.44-1.92-29.63-20.11-3.8-16.49-3.85-27.69,10.65-37.39,9.15-6.11,19.72-10.13,30.41-15.46l-4.37-6.67c.81-1.38,1.61-2.77,2.41-4.15,10.18,5.58,21.84,9.53,30.2,17.12,13.9,12.61,16.33,29.36,6.17,50.79,9.5-4.31,15.07-6.34,20.13-9.25,11.08-6.37,21.76-13.44,32.86-19.76,17.06-9.73,17.34-10.24,7.74-27.82-35.62-65.27-143.28-76.12-192.15-19.38-32.76,38-28.77,84,10.5,121.44l.3.43.12,0,0,0h0l-.48-.52c24.84,5.5,49.72,10.85,74.52,16.56,15.84,3.64,32.5,5.73,47.11,12.27,19.92,8.9,24.57,31.23,12.59,47.68-13.52,18.58-43.86,26.94-69.7,19.2-24.28-7.27-34.94-21.24-36.47-49.75-4.57,2.13-8.62,3.6-12.25,5.79-12.24,7.41-24,15.67-36.56,22.48-11.33,6.15-10.26,12.58-4.24,22.2C1898.54,2298.56,1984,2316.12,2040.55,2281.16Zm-89.82-237.7c-24.47,15.48-32.51,33.32-22.14,58.8C1908.5,2083.2,1918.75,2053.7,1950.73,2043.46Z"/><path class="cls-1" d="M1468.25,2253.71a379.85,379.85,0,0,0,28.83-35.77c2.27-3.17,1-8.86,1.42-13.4-4.64.47-9.46.29-13.86,1.57-5.53,1.61-11.4,7.33-15.92,6.24-37.57-9.07-74.87-19.29-112.92-29.34.91-5.22,1.33-8.67,2.13-12,11.4-48.19,23.08-96.33,34.21-144.59,7.09-30.78,11.2-62.6,34.73-86.77.75-.77.1-2.89.1-5.5l-79.66-18.94c-1.49,18.24-.76,35.61-4.63,51.89-12.41,52.18-26.34,104-40,155.86-8.22,31.09-8.06,65.77-38.28,87.34,2.13,1.89,2.76,2.91,3.6,3.12,61.86,15.42,123.7,31,185.71,45.76C1458,2260.18,1465,2257.2,1468.25,2253.71Z"/><path class="cls-1" d="M1188.49,2175.89a396.88,396.88,0,0,0,35.07-29.58c3.2-3,4-8.54,5.88-12.92-5.12-1-12-4.71-15.06-2.66-13.05,8.67-24.87,3.32-36.32-1.73-26.2-11.56-51.9-24.23-78-36.11-11.71-5.33-9.82-12-3.32-19.68,30-74.86,54.36-152.31,101.34-220.61L1122.67,1820c-1,2.63-2.51,4.66-2.14,6.26,4.72,20.55-4.06,38-12,55.84-10,22.41-18.15,45.86-29.92,67.31-27.59,50.27-34.35,111.82-81.6,151.77.75.94,1.44,2.69,2.66,3.22,57.78,24.76,115.55,49.58,173.58,73.77C1177.37,2179.93,1184.74,2178.65,1188.49,2175.89Z"/><path class="cls-1" d="M2160.69,2281.89l99.72-18.47c-34.76-46.89-37.17-99.48-44-150.08-6.89-51-26.19-101.33-11.2-156.61l-90.75,15.07c1.68,4.64,1.93,7.4,3.41,9.08,14.83,16.95,19.59,37.79,23.28,59.08,10.92,62.9,22.6,125.69,32.19,188.79,1.9,12.53-4,26.32-6.68,39.44C2165.91,2271.8,2163.71,2275.11,2160.69,2281.89Z"/><path class="cls-1" d="M949,1095.25c4.39,3,7.3,4.76,10.21,4.77,34.31.06,68.67,1,102.91-.63,28.92-1.41,54.7-12.94,75.36-33.78,28.43-28.67,26.74-69.47-6.06-93.17-16.14-11.66-35.73-22.38-55-25.14-37.76-5.41-76.34-5.06-114.6-6.76-3.51-.15-7.12,2.1-10.69,3.24,19.33,8.5,20,9.91,19.54,28.64-.75,30.7-.95,61.42-1.45,92.13C969,1078.26,975.19,1095.8,949,1095.25ZM994,1072.92c2.11-12.53,15.65-13.36,26.43-12.3,5.89.57,11.43,4.79,17.13,7.37l-1.39,3.31c-6.4-.47-12.92-1.86-19.14-1-2.77.38-5.93,5-6.87,8.29-.4,1.4,4.32,6,6.91,6.18,6.45.44,13.64.62,19.34-1.85,4.91-2.14,11.67-8.39,11.32-12.26-.47-5.3-5.93-11.85-11-14.6-6.42-3.48-14.63-3.68-24.35-5.78,0-30.79-.27-61.81.44-92.8.07-2.93,6.14-8,9.65-8.21,31.08-1.88,57.59,8.66,77,33.25,22.82,28.9,17.46,65.32-12.62,89.52-21,16.92-45.43,22.92-72,18.63C1004.62,1089,991.9,1085.43,994,1072.92Z"/><path class="cls-1" d="M882.29,960.15c-14-8.47-30.92-15.09-47-16.39-37.13-3-74.57-2.36-111.89-2.86-3.73,0-7.5,2.25-11.25,3.46.29,1.12.58,2.24.88,3.37L730.51,950v138.49l-17.88,6.41c.34,1.18.69,2.35,1,3.53h79.85l.54-4.62-19.13-4c-.7-6.88-1.53-13-1.9-19.08-1.92-31.4,15-46.39,45.6-39.34a75.21,75.21,0,0,1,24.76,11.26c11,7.44,20.75,16.58,31.09,24.94,23.8,19.24,46.28,40.91,77.28,48.24,11.1,2.62,22.87,2.38,34.33,3.45.75-2.41,1.51-4.82,2.26-7.23-66.35,2.79-97.59-52.64-147.52-80.88,15.44-6.23,28.39-9.81,39.62-16.34C903.72,1001.28,905.15,974,882.29,960.15Zm-28,29c-2.12,16.91-12,27.81-29.22,31-15.94,2.9-32,5-50.86,7.84,0-10.09-.74-20.33.41-30.36.38-3.38,5.15-6.78,8.63-9.1,2.31-1.54,6.45-.32,8.79-1.85,6.05-3.94,12.72-7.91,16.67-13.59,1.46-2.1-2.94-11.75-6.53-13.15-7.53-2.92-16.3-3.16-24.57-3.26-1.76,0-5.23,5.47-4.9,8,.3,2.4,4.42,5.77,7.18,6.11,5.79.72,11.8-.27,19.68-.65-4.37,10.69-13.16,11.85-20.89,9.63-8.24-2.37-15.54-8-23.26-12.25,4.92-5.76,9.69-16.28,14.78-16.45,21.6-.69,43.69-.34,64.84,3.66C849.3,957.45,856.16,974.11,854.27,989.18Z"/><path class="cls-1" d="M2909.39,1093.5c0,1.42,0,2.84-.07,4.26,3.13.83,6.25,2.36,9.38,2.37,29.69.06,59.4.41,89.07-.44,22.06-.64,41.91-9,59.45-22.2,35-26.37,41-71.47,11.56-100-12.12-11.72-28-21-43.77-27.22-38.67-15.23-79.73-9.37-120-9.6-1.67,0-3.35,1.69-7.65,4l17.36,6.65v138.35Zm52.75-31.64c9.78-4.1,19.74-2.69,27.31,9.43-6.09-.91-10.67-2.8-14.56-1.85-4.1,1-7.53,4.74-11.25,7.27,3.87,3,7.38,7.46,11.73,8.57,3.93,1,9.55-.58,13-3,4.22-2.94,9.53-7.91,9.63-12.12s-5.43-11.46-9.15-11.91c-25.31-3-24-20-23.13-38.69,1.11-22.86.26-45.81.26-68.23a74.41,74.41,0,0,1,78,30c16.81,24.18,17.51,55.3,1.74,77.67-17.2,24.42-52.81,39.17-79.56,31.27-6.74-2-11.82-9.59-17.66-14.61C2953,1070.91,2956.64,1064.17,2962.14,1061.86Z"/><path class="cls-1" d="M2916.92,644.44c-3.24,2.51-6.48,5-9.56,7.7-9.68,8.45-14,18.46-8.44,32.79,11.33-1.08,22.89-1.83,34.35-3.38,15.49-2.09,26.67,1.71,32.09,18.14,3.92,11.9,9.88,23.13,14.93,34.65l4.25-.85c2.38-7.62,5.24-15.13,7.07-22.88,7.56-32,14.29-37.38,47.7-37.54h1.53c11-.28,23.51,2.62,27.56-15.47-12.48-9.69-25-20.45-38.64-29.55-6.44-4.3-9.27-6.85-7.06-15.4,4.72-18.29,7.5-37.08,11.08-55.66l-4.81-2.61-50.26,41.79-55-32.5-4.32,3.53c2.18,11.16,2.17,23.36,6.94,33.27C2938.92,626.6,2939.61,626.82,2916.92,644.44Z"/><path class="cls-1" d="M746.05,686.72c5.72,13.95,11.91,27.7,19.76,45.82,5-14.71,9.39-25.27,12.2-36.23,7-27.09,13.81-32.6,42.47-32.37,10.29.08,20.58,0,30.86,0,.31-1.38.62-2.76.92-4.13q-24.79-19.49-49.73-39c4.3-20.84,8.71-42.19,13.12-63.55l-4.3-3.12L758.68,596.3l-57-34.52c2.09,10.39,2.57,16.24,4.49,21.58,3.78,10.56,8.27,20.87,12.64,31.21,3.46,8.15,2.41,13-6.27,18.42-15.3,9.58-29.16,21.6-36.81,42.64,17.18-1.24,31.67-2.22,46.14-3.36C733.45,671.36,741.52,675.67,746.05,686.72Z"/><path class="cls-1" d="M277.87,1093.4c.23,2.19.45,4.38.68,6.57,26.55-.33,53.13,1.72,79.56-3-6.2-4.73-17.44-7.43-17.57-10.6a351.38,351.38,0,0,1,2.32-60.85c.58-4.4,11.4-9.39,18-10.21,3.2-.4,9.82,7.72,10.9,12.83,3.26,15.42,13.43,23.23,27.15,25.64,15.38,2.71,31.23,2.77,45.16,3.85,4.95,15.2,7.71,31.69,15.46,45.35,8.78,15.46,29.48,20,42.76,12.11-4.94-2-8.8-4.21-12.94-5.26-19.45-5-29.65-14.67-30.19-35-1.08-41.39-.32-82.83-.32-123.8l16.66-4.31-.84-4.07H431.26c-.12,1.53-.25,3.05-.37,4.58l18.38,3.36c0,28.48.53,56.54-.52,84.55-.17,4.7-7,12.9-11,13a139.48,139.48,0,0,1-39.16-4.1c-5.62-1.46-13.29-9.21-13.37-14.22-.11-6,6-13.12,11.05-18,4.35-4.19,11.08-5.92,20.61-10.65-29.15-9.86-52.14-2.26-76,9.2V950.57l18.44-3.79c-.16-1.43-.32-2.86-.47-4.28H278.55l-.54,4.11,17.17,4v139.29Z"/><path class="cls-1" d="M3170.56,948.91c13.8-.16,27.67-.45,41.4.65,11.61.94,19.69,6.47,21.33,19.84,1.74,14.16,20.13,25.82,34.41,22.32,3.71-.91,6.59-5.22,9.85-8-3.57-3-6.75-7-10.87-8.65-2.59-1-6.55,2-10,2.36-3.63.41-8.8,1.25-10.68-.67-2.25-2.29-3.54-8.4-2-10.92,3.53-5.85,8.77-10.77,13.73-15.63a128.62,128.62,0,0,1,10.77-8.83H3106c-.07,1.86-.15,3.71-.22,5.57l14.92,3.84v138.92l-15.25,4.53c.24,1.39.48,2.78.73,4.17h164.48l2.43-3.45c-14.41-3.66-31.19-8.84-24.38-25.35,4.7-11.38,18.52-19,28.24-28.26-13.7-5.43-35,6.84-39.21,26.48-2.52,11.81-7.33,20.69-19.59,22.3a324.08,324.08,0,0,1-44.34,2.84c-4.23,0-12-5.18-12-8.1-.36-17.81-.9-36,2.37-53.38,3.52-18.71,26.36-26.83,44.75-19.77,5.14,2,12.19-1,20.59-1.93-11-17.77-23.54-10.71-35.13-10.35-9.71.3-27.06.66-27.92-2.53-3.82-14.18-3.09-29.62-3.37-44.62C3163.07,951.18,3167.94,948.94,3170.56,948.91Z"/><path class="cls-1" d="M658.72,1040.24c-8.3-4.84-16.3-12.39-21.08-20.64-13.55-23.41-25.25-47.87-37.92-71.8-5.21-9.85-10.16-10.22-15.78.4-21.3,40.21-43.23,80.09-64.49,120.32-6.61,12.51-10.93,26.83-29.65,24.26-.56-.07-1.46,2.25-3.35,5.32h80.13l.22-3L551.48,1089c7.36-11.38,12.76-22.66,20.81-31.54,14.79-16.3,35.19-16.86,55.48-15.89,14.72.71,15.54,14.41,21.37,23.36,2.79,4.27,5.93,8.58,7.43,13.34,1,3.09.63,8.58-1.41,10.33-14.85,12.68-53.86,3.19-62.68-13.93,5.72-4.53,10.27-7.87,14.22-11.8.28-.28-3.77-7.11-5.78-7.1-5.65,0-12.37.61-16.58,3.76-3,2.23-5,10.45-3.22,13.44,4.71,7.86,10.5,17.85,18.14,20.56,13.51,4.77,29.27,8.18,43,5.88,15.7-2.64,26.15-.85,37.44,10.73,8.19,8.41,20.18,14.6,35.38,6.44-13-6.54-24.06-11.16-33.93-17.63-3.48-2.29-6.68-10-5.43-13.7C684.06,1061,680.83,1053.13,658.72,1040.24Zm-74.8-7.53c8.65-16.22,15.75-29.56,24.38-45.74,8.46,16.43,15.53,30.15,23.57,45.74Zm82.72,44c-4.95-9-9.4-17-14.87-27C670.43,1055.78,673.93,1062.4,666.64,1076.68Z"/><path class="cls-1" d="M2789.13,978.62c-5.69-5.79-8.67-9.56-12.35-12.46-41.09-32.34-107.21-33.55-149.52-2.87-43.52,31.56-43.27,85.21,1.56,115,39.66,26.39,82.32,28.4,125.79,9.91,22.88-9.73,22.86-10.23,34.45,10.11.36.63,1.82.63,5.5,1.79.25-.61,1.71-2.48,1.77-4.4.44-15.29.78-30.59.68-45.88,0-1.81-3.62-5.37-4.35-5.07-3,1.18-6.51,3-8.1,5.57-20.37,33.4-51.75,43-88.25,40.51-28-1.87-52.3-21.12-60.07-47.6-8.54-29.09-1.82-55.06,20.47-75.62s49.38-23.65,77.47-14.53c13.26,4.31,14.47,14.66,4.35,25-5.35,5.47-12,9.84-16.58,15.85-9.43,12.44-4.45,24.86,10,26.78C2724.79,990,2733.61,983,2789.13,978.62Z"/><path class="cls-1" d="M2890.84,946.54l-.57-4.29H2818.9c-.1.91-.19,1.82-.29,2.73l15.25,5.5v138.78l-16.17,5.12c.31,1.49.61,3,.92,4.48h71c.32-1.43.64-2.87.95-4.3l-14.87-5.7V950Z"/><path class="cls-1" d="M3380.52,1215.71a355.64,355.64,0,0,0,36.78-2c3.74-.4,7.13-4,10.68-6.14-3.43-2.16-6.82-6.15-10.28-6.21q-66-1.12-132-1.23-143.57-.32-287.13-.13c-6.56,0-13.12,1.94-19.67,3q0,3.6,0,7.2c6,1.32,11.95,3.58,18,3.79,30.68,1,61.38,2.15,92.08,2.19Q3234.7,1216.36,3380.52,1215.71Z"/><path class="cls-1" d="M964.19,1213.15c1.91-.47,3.76-4.45,4-7,.13-1.32-3.07-3.77-5.14-4.32a42.37,42.37,0,0,0-10.65-.86q-205.6-.2-411.2-.16c-7.12,0-14.24,2.25-21.37,3.45l0,7c6.6,1,13.19,2.89,19.79,2.93q201.75,1.23,403.51,2A87.2,87.2,0,0,0,964.19,1213.15Z"/><path class="cls-1" d="M1945.92,45.7c14.78,52.59,29.44,105.34,47.39,156.9,25.21,72.42,38.77,149.5,84.62,216.28H1963.25l-.42,2.85c2.5,1.1,5,3.12,7.49,3.16,35.28.56,70.58,1.64,105.83.81,13.44-.32,14.34-7.76,7-20.21-13.38-22.76-28.71-45.14-37.37-69.74-24.58-69.88-47-140.56-68.68-211.42-11.35-37.2-34.21-73.3-16.24-116.12-5.6,1.57-11.53,3.6-12.2,6.75C1946.54,25,1943.3,36.37,1945.92,45.7Z"/><path class="cls-1" d="M2503.43,166.67c-11.67,39.19-22.28,78.71-32.87,118.21-14.42,53.82-29.52,107.51-42,161.79-4,17.56-.64,36.83-.64,55.68-9-2.48-19.35-5.22-29.63-8.19-9.82-2.84-19.44-6.51-29.39-8.71-9.39-2.08-19-8.54-28.69-3.06-.18,1.53-.35,3.05-.53,4.58l102.75,27.85c-1.25-9.73-1.22-14.89-2.64-19.62-7-23.35-5.7-46.76.53-69.73,17-62.63,34.69-125,52.16-187.55,5.77-20.67,10.79-41.61,17.77-61.87,7.15-20.78,16.28-40.89,25.39-63.4C2517.55,127.37,2509.37,146.71,2503.43,166.67Z"/><path class="cls-1" d="M2868.82,520.65a432.14,432.14,0,0,1-36.88,47c-53.8,59.44-114.59,73.56-186.83,38.9-47.32-22.72-91.79-51.39-137.5-77.46-7.82-4.47-15.43-9.32-23.14-14l-3.72,4.45c3.78,3.31,7.17,7.26,11.4,9.83,24,14.6,47.78,29.67,72.46,43.07,32.27,17.52,64.52,35.47,98.26,49.77,26.35,11.17,54.81,15.26,84.05,7.47,23.11-6.16,43.42-15.64,62.15-31.24,36.07-30,63.72-66.2,85.95-107,3.33-6.11,4.78-13.25,7.1-19.92l-4-1.13C2888.44,487.22,2879.69,504.66,2868.82,520.65Z"/><path class="cls-1" d="M2279,247.68c2.22-7.53,3.49-15.35,5.19-23l-4.68-1.11c-1.29,2.48-3,4.83-3.79,7.46-8.9,30.93-18.79,61.63-26.08,92.94-6.24,26.77-11.72,54.14-13.12,81.47-.81,15.86,7.09,32.17,11.65,50.61l-118.37-28.46c-.49,2.23-1,4.46-1.46,6.69l129.88,32.45,3.46-5.46c-2.92-6.1-6.5-12-8.63-18.37-4.31-12.92-11-26.1-10.94-39.17,0-19.71,3.3-39.84,8.21-59C2258.63,312,2269.43,280,2279,247.68Z"/><path class="cls-1" d="M2865.88,1948.19c-25.77-46-50.89-92.29-76.15-138.54-9.06-16.59-18.06-33.22-26.42-50.17-2.75-5.57-3.42-12.17-5-18.31l-5.95,2.09c5.67,14.94,9.86,30.67,17.31,44.67,20.92,39.27,41.87,78.64,65.31,116.42,21.8,35.15,33.91,77.76,77.53,100.79l-58.2,28.91c-1.49,3.14-3,6.3-5.07,10.73,31.45-11.26,60.7-29.24,68.8-42.38C2893.55,1991.22,2878.46,1970.64,2865.88,1948.19Z"/><path class="cls-1" d="M1867.7,321c18.51,1.38,37.21.32,55.83.32l.9-4.72c-3.69-1.2-7.34-3.34-11-3.43-21.47-.54-43-1-64.42-.39-3.51.11-8,5.1-10.1,8.91-15.58,28.45-25.18,57.35-3.1,87.25.22.3-.08,1-.24,2.4-2.57.52-5.42,1.6-8.26,1.59-30.15-.14-60.31-.55-90.46-.62-5,0-10.1,1.27-17.34,2.25,3.6,3.93,4.23,5.23,4.87,5.23,37.79.39,75.59,1.05,113.37.73,10.62-.09,9.5-8.59,5.18-14.3-16.11-21.29-10.71-42.75-3.79-65.55C1843.86,324.94,1851.82,319.8,1867.7,321Z"/><path class="cls-1" d="M1005.45,1898.42c21.77-32.58,38.89-68.75,72-92.52.9-.64.88-2.56,1.28-3.89l-3.39-3.52c-9.2,9.13-19.83,17.23-27.32,27.59-22.78,31.47-44.23,63.9-66.42,95.8-10.45,15-21.42,29.65-32.15,44.46,2.58-5.48,4.58-11.34,7.84-16.38q29.63-45.7,59.77-91.09c17.21-25.86,32.35-53.68,64.5-69.12l-80.19-51.55c-4.72,34.78-8.88,44.38-28,73.17-22.63,34.11-43.74,69.25-67.25,102.73-21.69,30.89-33.22,71.59-80.91,82.44l86.26,55.11c13.37-52.71,18.57-64.67,33.83-78.89-11.59,28.82-30.49,55.4-23.33,91.8l-83.33-51.84-2.14,3.37c26.26,17.05,52.18,34.66,79,50.84,8.84,5.35,12.27-2.7,11.13-10.09-4.32-28,7.34-51.15,21.64-73.25C966.83,1954.88,986.46,1926.86,1005.45,1898.42Z"/><path class="cls-1" d="M1796.11,2054.47c-3.77,34-6.48,68.18-9.38,102.3-2.62,30.74-6.85,61.22-22.53,88.38-21,36.38-50.67,58.41-95.32,53-4.19-.5-8.54.31-12.82.52-.15,1.44-.31,2.88-.46,4.32,3.2.87,6.36,2.27,9.61,2.52,52.27,4.09,102.35-29.38,114.12-80.48,8.44-36.64,11.75-74.51,16.52-111.93,4.93-38.66,1.94-79.1,27-112.94.31-.41-.62-1.75-1.51-4C1806,2013.25,1798.48,2033,1796.11,2054.47Z"/><path class="cls-1" d="M1339.57,494.21c37.61-6.8,75.31-13.22,112.74-20.88,11.81-2.42,10-10.27,3.78-18.45-8.92-11.66-20.81-22.73-24.91-36.05-10.6-34.44-17.61-70-26.07-105.07-1.27-5.24-2.65-10.46-4-15.68-4,3.59-5,6.53-4.59,9.22,3.32,20.12,6.32,40.32,10.58,60.25,6.91,32.31,11.68,65.74,39.49,88.92,2.14,1.79,3,5.16,5.37,9.61l-116,25.51C1338.16,493.22,1339,494.32,1339.57,494.21Z"/><path class="cls-1" d="M2535.4,1932c51,45.58,71.78,101.67,53.64,169s-63.75,106-133.21,118c70.71,1.3,140.85-64.71,144.8-155.51C2603,2008.22,2564.47,1932.92,2535.4,1932Z"/><path class="cls-1" d="M1242.6,316.41c13.17,51.28,17.52,101.95,1.1,151.89-17,51.67-60.14,81.77-99.59,114.67,55.78-32.91,100.69-74.38,113-141.92C1264.86,398.1,1258.21,330.18,1242.6,316.41Z"/><path class="cls-1" d="M2367.93,296.1c-7.66-78.43-18.46-156.4-33.34-233.78l-7.54,1.08q18.09,116.58,36.19,233.16Z"/><path class="cls-1" d="M1097.14,2072.79c.88,3.45,1.72,6.95,3.08,12.62,2.37-3.69,3.63-5.16,4.37-6.85,31.32-71.84,56.61-146.56,99.4-213.43-9.16,9.44-19.14,19-24.72,30.69-20.69,43.29-39.81,87.33-59.8,131-7.16,15.65-15.09,31-22.68,46.42h0Z"/><path class="cls-1" d="M2210.8,1968.37c-14.71,19.16,23.77,252.49,41,269.09C2232.58,2151.85,2214.8,2061.28,2210.8,1968.37Z"/><path class="cls-1" d="M1637.08,2092.31c-2.49,34.56-5.4,69.1-6.78,103.7-.35,8.65,4.43,17.5,6.85,26.26,1.9-17.5-1.69-34-.8-50.32,2.07-38.2,5.56-76.36,9.93-114.37,2.76-24,3.47-49.27,22.27-68.4,1.08-1.1.14-4.17.14-7.4l-10.82,6.67c-5.74,20.38-12.4,40.56-16.84,61.21C1638.05,2063.52,1638.1,2078.06,1637.08,2092.31Z"/><path class="cls-1" d="M1657.87,1988.45c0-.1.06-.19.08-.29l-.38.42.39-.42-.48.42,0,.13Z"/><path class="cls-1" d="M1363.72,2167.46c-.82,3.23-.1,6.84-.1,10.28,4.41-2.47,6.09-5,6.77-7.81,12.75-52.5,24.75-105.2,38.33-157.49,5.87-22.61,14.93-44.39,22.54-66.55l-.63-1.14c-6,10.55-14.57,20.41-17.64,31.76C1395.8,2040,1379.9,2103.74,1363.72,2167.46Z"/><path class="cls-1" d="M2094.77,2185.5c-.64,11.09.13,22.47-2.16,33.2-10,46.91-46.88,77.49-99.57,83.87-8,1-16,2.36-24,3.56l.32,3.78c3.73.53,7.46,1.53,11.2,1.53,61.68,0,114-45.13,121.89-105.88.87-6.72-2.54-14-4-21Z"/><path class="cls-1" d="M1522.28,245.83l28.71,36,2.37-1.57c-6.4-10.63-12.79-21.25-20.23-33.59,31.94-11.14,54-31.84,68.3-60,14.63-28.76,14.29-58.55,2.13-88.91C1620.11,170.38,1588.92,217,1522.28,245.83Z"/><path class="cls-1" d="M1193,2179c-8.79,7.54-16.6,9.35-27.66,4.35-41.4-18.7-83.2-36.5-124.87-54.6-9.52-4.14-19.1-8.14-28.65-12.2.43,4.69,2.24,6.36,4.38,7.3,51.33,22.77,102.64,45.6,154.17,67.91,4.45,1.92,12.12,2.48,15.44-.06,16.14-12.31,31.3-25.9,46.81-39l-2.25-2.49C1217.83,2159.73,1204.88,2168.78,1193,2179Z"/><path class="cls-1" d="M1500.54,2225.13c-6.61,7.78-13.38,15.44-19.52,23.58-15.34,20.34-20,22.56-43.94,16.15-41.84-11.23-83.52-23.06-125.33-34.41-8.69-2.35-17.65-3.71-26.48-5.53l-1.11,4.93c11.58,2.91,23.18,5.76,34.74,8.75,41,10.6,81.83,21.56,122.92,31.63,7.94,1.95,19.92,4.13,24.5,0,14.9-13.35,27.23-29.56,40.54-44.67l-2.66-2.66C1503,2223.65,1501.41,2224.1,1500.54,2225.13Z"/><path class="cls-1" d="M2749.17,1922.07c3.72,2.75,7.57,5.32,11.36,8l2.41-3.72c-47.52-36.2-92.39-76-143.41-107.45l-2.46,3,4.62,7.75,10.37,10.05c3.73,1.4,8,2.06,11.12,4.33C2678.61,1869.88,2713.86,1896,2749.17,1922.07Z"/><path class="cls-1" d="M1892.5,2159c14,4.48,28.26,8.65,42.73,11,28.81,4.75,59.42,2.72,83.25,24.39.23.21,1.6-.85,2.9-1.58-3.2-12.84-13.53-17.39-24.57-19.44-20.51-3.81-41.29-6.12-61.88-9.55-17-2.83-35.6-2.13-47.06-18.76-2.75.54-5.57,1.08-11.81,2.26C1883.11,2152.45,1887.3,2157.3,1892.5,2159Z"/><path class="cls-1" d="M3015.15,1577.59c-53.58-3.58-107.15-1.15-160.72,1.35,0,1.55,0,3.1,0,4.66h160.47Z"/><path class="cls-1" d="M2468.32,1632H2655C2643.72,1624.5,2475.17,1628.37,2468.32,1632Z"/><path class="cls-1" d="M773.68,1282.87H662.21C679.71,1292.62,760.43,1293.32,773.68,1282.87Z"/><path class="cls-1" d="M1661.16,366.73c-17.18-5.85-33.93-9.1-48-17.05-13.77-7.76-24.83-20.31-38.68-32.12C1599.22,358.74,1631.71,377.25,1661.16,366.73Z"/><path class="cls-1" d="M757.51,1534.52c3,2.16,5.07,2.44,6.8,1.78,18.17-7,36.28-14.11,54.4-21.19L838.17,1488Z"/><path class="cls-1" d="M401.59,1391.09c.1-2,.2-3.95.29-5.92l-95.56-5.91c-.12,2.37-.23,4.74-.35,7.11C337.64,1392.61,369.89,1385.64,401.59,1391.09Z"/><path class="cls-1" d="M1655.28,422.88c-12.25.28-24.41,4.8-36.61,7.44l.84,5c16.87-2.78,33.79-5.37,50.59-8.56,2.13-.4,5.36-4,5.23-5.91-1.16-17.58-2.95-35.12-4.56-52.67l-6.1.78c1.74,11.37,2.77,22.9,5.4,34C1673.2,416.3,1670.74,422.51,1655.28,422.88Z"/><path class="cls-1" d="M2270.2,2255.13c.56,4.79.93,7.85,1.33,11.21l-92.33,18.71c1.76,2.48,2.42,3.94,2.8,3.87,30.49-5.58,61.24-10.13,91.28-17.56C2284.46,2268.59,2280.69,2260.73,2270.2,2255.13Z"/><path class="cls-1" d="M3029.84,1576.15c.07.83.14,1.67.2,2.5h109.19l-.15-2.5Z"/><path class="cls-1" d="M2535.89,1521.23l77.17-42.28C2563.57,1489.84,2537.8,1504.81,2535.89,1521.23Z"/><path class="cls-1" d="M2983.34,1621.54h96.49C3060.42,1610.14,2992.6,1611.71,2983.34,1621.54Z"/><path class="cls-1" d="M2705,1412.26c15.74-6.78,20.68-22.9,28.92-36l-3-2.27-22,27.39-7.67-8.75,2.71,4.45-24,18.76C2687.34,1414.93,2697.08,1415.68,2705,1412.26Z"/><path class="cls-1" d="M1033.69,1668.16h-103c0,1.16.07,2.33.1,3.49h103Z"/><path class="cls-1" d="M987.1,1524.54l81.64-68.91-2.51-3.69L983.4,1520Z"/><path class="cls-1" d="M2995.51,1598.07H2918l.18,6.62,77.42-3.72C2995.57,1600,2995.54,1599,2995.51,1598.07Z"/><path class="cls-1" d="M3153.88,1572.9l0,3.5H3232c0-1.17-.07-2.34-.11-3.5Z"/><path class="cls-1" d="M3324.33,1571.07c-27.34-.53-54.68-.84-82-.2l.2,5.39h81.59C3324.2,1574.53,3324.27,1572.8,3324.33,1571.07Z"/><path class="cls-1" d="M2461.86,1653.91h112.28l-.11-2.9H2461.91Z"/><path class="cls-1" d="M3020.51,1328.1l-86.31,8.77c0,1.55-.06,3.1-.1,4.65l86.89-7.34Z"/><path class="cls-1" d="M2676.56,1554l1-.06h-1.16l-.12,0c-.06.06-.16.09-.22.15.15,0,.34,0,.49-.06Z"/><path class="cls-1" d="M2795.14,1547.06l-117.59,6.87q58.95,0,117.77,0Z"/><path class="cls-1" d="M3026.55,1597.17l.15,1.11h92.73l-.12-1.11Z"/><path class="cls-1" d="M3269.89,1594.52c.17,1,.34,2,.52,3h66l-.19-3Z"/><path class="cls-1" d="M2640.75,1538.38h68.37c-.07-1-.14-2-.2-2.94h-68.16C2640.76,1536.42,2640.75,1537.4,2640.75,1538.38Z"/><path class="cls-1" d="M1219.58,1664.76h-57c.15,1.38.29,2.77.43,4.15h56.74Z"/><path class="cls-1" d="M2826.23,1182.18c-10.15-10-38.06-9.67-52.77,0Z"/><path class="cls-1" d="M679.37,1561.23l-63.13,3.07c0,.94.07,1.87.1,2.81h63.08C679.4,1565.15,679.39,1563.19,679.37,1561.23Z"/><path class="cls-1" d="M2023.07,2105.7l53.53-32.1q-1.42-2.31-2.84-4.62l-53.62,31.84C2021.11,2102.45,2022.09,2104.07,2023.07,2105.7Z"/><path class="cls-1" d="M2971,1314.29h-60.21c0,1.32.07,2.64.1,4h60.32Z"/><path class="cls-1" d="M2850.86,1429.4l-40.25,30.29C2832.49,1460.1,2849.84,1447.05,2850.86,1429.4Z"/><path class="cls-1" d="M2852.58,1277.69l-46.92,31.25C2828.52,1308.16,2851,1291.69,2852.58,1277.69Z"/><path class="cls-1" d="M2502.31,1586.52l43.84-29.34-3.25-4.8-44.65,28.36Z"/><path class="cls-1" d="M966.54,1694h58.23c0-.91-.07-1.83-.1-2.74H966.36Z"/><path class="cls-1" d="M677.17,1255.89l-.08,4.45h45.09c-.1-1.48-.19-3-.29-4.45Z"/><path class="cls-1" d="M1067.42,1426.07l-50.67,42.45,3.36,3.59C1037.58,1460.32,1055.4,1448.88,1067.42,1426.07Z"/><path class="cls-1" d="M1087.73,1483.74c-.82-1-1.64-2-2.45-3l-51.49,41.83,3.31,4Z"/><path class="cls-1" d="M3242.22,1616.4l.24,6.18,40.72-2.77c-.09-1.14-.18-2.28-.26-3.41Z"/><path class="cls-1" d="M225.21,1497.22l.15,3.21h47.17l-.21-3.21Z"/><path class="cls-1" d="M987.23,1466.23l3.18,4.34,42.72-31.17-3.24-4.39Z"/><path class="cls-1" d="M2458.06,1675.94h79.11c0-.78,0-1.57,0-2.36H2458C2458,1674.37,2458.05,1675.16,2458.06,1675.94Z"/><path class="cls-1" d="M2544.85,1496.51l44.15-28.12-2.18-3.32C2576.16,1479,2551.45,1470.65,2544.85,1496.51Z"/><path class="cls-1" d="M3013.94,1638.44l.18,5.36,30.27-1.36-.18-4Z"/><path class="cls-1" d="M1104.44,1665.8h-42.79l-.33,3.6h43.1C1104.43,1668.2,1104.43,1667,1104.44,1665.8Z"/><path class="cls-1" d="M2835.12,1270l-28,16.13,3.53,5.42L2837.8,1274Z"/><path class="cls-1" d="M2771.41,1204.55l.06-3.86h-32.83l-.06,5.47Z"/><path class="cls-1" d="M1052.25,1232.9l-48.31,2.47c0,1.06.07,2.13.1,3.19h48.14C1052.2,1236.67,1052.23,1234.78,1052.25,1232.9Z"/><path class="cls-1" d="M2178,1600.18c-.51,1,.48,2.74.76,4.09,21.56-2.43,36-13.19,38.55-30-2.92-6-3.88-12-4.53-18-1.1-10.26,1.11-22.37-3.63-30.43-10-17.08-22.88-32.71-36-47.73-21.89-25.15-22.35-24.75,5.51-40.55.34-.19.37-.93,1.72-4.75-8.13.36-14.46.74-20.81.91-21.82.58-43.64,1.64-65.45,1.37-10.54-.13-20.14-.92-27.81,8.5-2.56,3.14-7.85,5.22-12.1,5.64-22.19,2.16-43.93,13-66.91-.31-9.92-5.73-17.1,2.08-14.31,14.64,2.39,10.7-1.67,16.81-10.49,20.94-5.53,2.6-11.92,3.63-17,6.83-12.79,8.06-25.7,16.18-37.29,25.81-5.88,4.9-5.94,14,4.38,13.68,28.6-1,57.19-4.08,77.81-27.56,13.24-15.09,27.79-26.7,48.8-28.57a48.32,48.32,0,0,0,20.12-6.66c18.66-11.34,39.08-11.33,59.46-9.81,15.16,1.14,20.37,9.19,14.8,23.12-5.28,13.21-2.24,23.36,5.41,34.22,5.82,8.27,9.49,18,14.6,26.83,3.28,5.65,6.26,12.86,11.41,15.81C2183.1,1568.5,2187.63,1581.8,2178,1600.18Z"/><path class="cls-1" d="M1606.45,1540.82c-.2-5.12-.41-10.38.53-15.37.78-4.15,3.24-8,5-12l-3.3-3.14c-3.54,1.42-8.06,1.9-10.47,4.4-19.77,20.59-39.79,41-58.23,62.75-5.06,6-7.3,16.32-6.91,24.48,1,19.69-8.48,32.67-22.39,44.54-5.56,4.74-12.92,11.87-12.89,17.87.14,24.11-3.94,49.41,10.63,71.24,2.95,4.42,9.12,6.68,13.81,9.94,3.23-4.66,9.54-9.59,9.16-13.94-1.9-21.85,2.21-41.15,16.15-58.7,5.23-6.59,5.5-14.59-6.54-16.61-2.78-.47-6.76-3.8-7.06-6.2-.32-2.6,2.56-7.66,4.83-8.18,13.2-3,26.8-7.59,39.92-6.68,16.13,1.1,20.21-4,21-19.2.88-17.08,6.07-33.89,8.19-51C1608.81,1557.18,1606.78,1548.93,1606.45,1540.82Z"/><path class="cls-1" d="M2000.35,1781.56c1.89-2.1,1.24-7.78,0-11.17-6.43-17.56-6.58-18.16,11.4-22.32,13.72-3.17,17.72-10.51,12.62-23.41-1.84-4.67-3.28-9.5-6-17.35-3.94,4.52-5.46,7.81-7.79,8.55-3.41,1.09-8.75,1.89-10.84.05a20.79,20.79,0,0,1-6.43-12.48c-.22-2.16,4.8-6.26,8.07-7.12,16.14-4.27,19-7.63,10-21.79-10.87-17.1-24.66-32.34-38.28-49.78-6.89,12.77-15.5,22.41-17.2,33.14-4,25.66-5.1,51.82-6.7,77.82-.28,4.5,1.22,11.08,4.36,13.47,12.35,9.39,12.75,21.29,9.56,34.45-4.43,18.31-9.53,36.47-13.32,54.91-.92,4.44,2.19,9.72,3.45,14.62,3.63-4.05,9.56-7.65,10.45-12.22,2.68-13.88,9.46-21.86,23.74-24,5-.74,9.55-4.08,16-7C1993.26,1799.91,1991.63,1791.25,2000.35,1781.56Z"/><path class="cls-1" d="M1678.34,1481.19c9.13.61,18.54,4,26.87,8.1,22.09,10.83,41.26,28,68.63,26.58,6.37-.33,17.43,6.55,19,12.18,6.22,22,23.85,25.71,41.61,31,11.79,3.53,22.13,2.5,27.77-8.79,6.4-12.8-6.09-16.41-13.46-21.78-17.24-12.53-36.92-22.63-51.36-37.76-10.21-10.69-19.42-13.83-32.78-14.47-7.23-.34-14.23-5.81-21.32-9-7.47-3.39-14.82-9.5-22.39-9.77-31-1.12-62.15-.47-93.24-.47l-.27-1.57c-11.42,2.53-23,4.54-34.15,7.9-3.43,1-5.74,5.79-8.56,8.84,3.72,2,7.37,5.48,11.18,5.67C1623.36,1479.22,1650.91,1479.34,1678.34,1481.19Z"/><path class="cls-1" d="M2309.78,1549c-13-20.17-26.92-39.7-40.92-59.16A35.6,35.6,0,0,0,2256.2,1479c-3.52-1.73-10-2.26-12.37-.17s-3.12,9-1.49,12.29c3.11,6.22,8.24,11.49,12.84,16.89,11.54,13.57,11,31.07.53,45.71-3.43,4.81-5.3,15.11-2.49,19.19,10.19,14.78,20.53,31,34.78,41.09,23.36,16.51,27.62,31,9.58,53.53-2.9,3.61-6.39,9.69-5.21,13.1,4.84,14,11.38,27.37,17.31,41a13.41,13.41,0,0,0,2.36-4q8.65-26.54,17-53.17c1.63-5.27,5-11.48,3.54-16-8.67-27.45-.39-53.17,6-80.13C2321.19,1565.82,2319,1563.31,2309.78,1549Z"/><path class="cls-1" d="M1683.11,1547c-5.63-.54-14.32,7.11-17.91,13.23-14,24-21.12,49.26-12.58,77.72,3.56,11.87,3.36,25.44,2,37.93-.59,5.44-8,10.53-13.07,14.84-1.09.92-8.33-2.86-8.19-3.49a103,103,0,0,1,5.59-17c.9-2.2,2.86-4,7-9.47-8.35,0-13.61-1.42-17.51.27-11.54,5-20.12,35.33-10.79,43.23,6.94,5.87,19,7.43,28.81,7.46,5.19,0,15.31-8.07,14.84-11.26-4-27.44,13.71-44.58,27.3-64.06,14.26-20.43,19.62-43.78,17.49-68.36C1705,1555.17,1694.16,1548.06,1683.11,1547Z"/><path class="cls-1" d="M2094.67,1646c6.27-9,10.79-24.11,7.58-33.8-10.29-31.08-25.23-60.46-48.76-84.27-3.83-3.88-8.86-6.56-15.06-11-3.22,5-8.68,9.76-7.85,12.77,6.52,23.37-4.83,47.12.2,69.17,4.25,18.65,17.68,35.28,27.61,52.48,1.47,2.55,6.47,5.24,9,4.61C2077,1653.6,2090.1,1652.58,2094.67,1646Z"/><path class="cls-1" d="M1806.65,1805.3c-7.47.67-13.84,2.28-16-5.26-1.85-6.46-2.51-15.71.84-20.65,5.36-7.88,14.47-13.22,23.66-21.05-12.74-8.22-10.75-33.49-35.14-27.84-2.73-5.49-5-10.15-6.65-13.39-10.7,9.82-20.46,19.06-30.54,28-9.57,8.44-13.42,17-5.53,29.28,3.92,6.09,4.27,14.36,7.3,21.18,2.27,5.09,6.23,9.42,9.44,14.09,3.63-4.36,7.25-8.73,10.9-13.07s7.28-8.53,10.92-12.79l3.12,3.19c-7.6,37.24-2,56.41,19.44,63.53-2.5-22.64,20-20.77,34.09-34C1822.2,1811.67,1814.08,1804.63,1806.65,1805.3Z"/><path class="cls-1" d="M2205.3,1663.21c-5,3.44-12.09,3.7-18,5.93-5.65,2.11-11.05,4.9-16.56,7.39,3.38,5.22,5.59,12.72,10.38,15.18,10.93,5.59,12.67,12,6.72,21.92-1.28,2.13-2.53,4.94-2.21,7.21.69,5,2.38,9.87,3.67,14.8,4.93-1.88,10.79-2.69,14.5-6,3-2.61,4.37-8.13,4.66-12.48,1.34-20.39.69-41.47,27.71-50.17C2218,1653.73,2218.34,1654.24,2205.3,1663.21Z"/><path class="cls-1" d="M1629,1796c-10-2.1-12.94-7.5-12.68-15.79.3-9.65,2.06-19.25,2.71-28.91.46-6.67.09-13.41.09-20.11l-5-.79c-1.82,4.45-3.58,8.92-5.46,13.34-8.57,20.1-13.51,40.25-3,61.4,2.9,5.82,2.74,13.76,6.75,18.27,4.43,5,12,7.11,18.26,10.49,3.91-7.83,10.07-15.44,10.86-23.57C1642.06,1805.74,1634.3,1797.08,1629,1796Z"/><path class="cls-1" d="M2131,1718.48l-4.33.4c-3.49,27-7.51,54-10.2,81.1-1.05,10.58-1.92,17.16-15,20.4-15.2,3.77-23.54,17.27-28.48,31.64l3.22,3.2a56.1,56.1,0,0,0,6.21-3.73c10.21-8,16.18-23.71,33.9-18,1.37.44,5.19-2.44,5.71-4.36,4.48-16.49,10.05-32.92,12.09-49.75,1.66-13.78-1.05-28.09-1.87-42.16C2132,1731,2131.48,1724.72,2131,1718.48Z"/><path class="cls-1" d="M1860,1738.84c-8.75,3.76-17.45,8.18-25,13.86-2.8,2.11-2.27,8.66-3.26,13.19,10.24,1.85,20.83,6,30.58,4.58,4.83-.71,8.14-11.75,12.14-18.11C1871.68,1742.9,1872.7,1733.37,1860,1738.84Z"/><path class="cls-1" d="M2228.06,1608.12c-6.7-2.38-22.68,16.73-22.69,27,0,3.57,4,7.14,5.16,9.09,14.35.56,30.32-12.78,29.27-23.62C2239.35,1616,2233,1609.88,2228.06,1608.12Z"/><path class="cls-1" d="M1812.62,1709.44l4,1.32c16.44-17.89,28-61.47,17.53-69.18C1826.91,1664.42,1819.77,1686.93,1812.62,1709.44Z"/><path class="cls-1" d="M1553,1452.42c-2.84-2.22-6.85-7-8.31-6.27-9.69,4.55-18.83,10.26-28.15,15.59l12.48,11.69Z"/><path class="cls-1" d="M1519.89,1196.69l-13.63,14.48c6.66,7.1,11.67,12.46,16.68,17.82,3.75-3.57,11.31-8.75,10.6-10.44C1530.25,1210.73,1524.66,1203.88,1519.89,1196.69Z"/><path class="cls-1" d="M2102.17,1712.6c1.24,1.18,8.45-.79,9.31-2.83,4.7-11,5.07-21.64-7.52-28.39-.39-.21-1,0-3.58,0C2094.33,1692.33,2092.11,1703,2102.17,1712.6Z"/><path class="cls-1" d="M1522.8,1559.16c-.46-4.76-7-8.93-10.9-13.36-3.68,5.33-8.28,10.31-10.53,16.19-.8,2.09,4.11,6.37,8.77,13C1516.34,1567.68,1523.18,1563.07,1522.8,1559.16Z"/><path class="cls-1" d="M2011.08,1776.29c-.48,2.62,4.42,6.24,6.9,9.41l12.8-11.55-12-11.05C2016.07,1767.47,2012,1771.58,2011.08,1776.29Z"/><path class="cls-1" d="M2249.43,1077.71c.49-1-4.17-4.55-6.45-6.92-3.57,3.66-8,6.85-10.33,11.18-1.07,2,2,6.25,4.74,13.39C2243.19,1087.22,2247,1082.79,2249.43,1077.71Z"/><path class="cls-1" d="M1587.26,1104.87c2.94.28,6.37-4.49,12.21-9.12-6.89-3.41-10.82-6.49-15-6.91-1.81-.19-6.51,6.05-5.83,7.69C1580.1,1100.08,1584,1104.56,1587.26,1104.87Z"/><path class="cls-1" d="M1837.1,888.62c-2.32-9.86-5.65-19.76-6-29.74-.41-10.79,1.78-21.74,3.44-32.53.82-5.34,3-10.47,5.46-18.65-28.91,21.49-57.27,43.77-49.78,62.81,3.77-2.93,7.24-5.5,10.56-8.25,11.21-9.26,17.22-7.79,20,6,1.83,8.9,4.47,19,2.07,27.13-5.21,17.73,6.36,27,13.39,37.35l28.06-3.56c-8.4-10.55-16.08-19.71-23.12-29.34C1839,896.73,1838,892.48,1837.1,888.62Z"/><path class="cls-1" d="M1379,205.12c-2.68-20.42-5.35-40.84-8.31-63.35,42.7-9.31,82.68-27.2,126.81-18-46.6-18.16-89,3.3-133,12.34,3.94,24.06,7.67,46.77,11.39,69.47Z"/><path class="cls-1" d="M2741.25,282.84c41.92,22.09,70.29,52.91,86.88,95.34a56.21,56.21,0,0,0-2.28-21.05c-11-35.08-38.55-55.58-67.21-74.8-18.19-12.2-22.1-10.63-33.27,8.31-36.86,62.46-74,124.72-110.91,187.18-2.4,4.06-3.12,9.1-4.62,13.69l5.32,2.45Z"/></svg>