<svg id="Layer_1" data-name="Layer 1" xmlns="http://www.w3.org/2000/svg" viewBox="0 0 3168.71 2358"><defs><style>.cls-1{fill:#fff;}</style></defs><path class="cls-1" d="M3124.21,474c-123.7,0-231.54-50.75-277.53-128.46-7.93-14.27-23.79-23.79-39.65-23.79h-168.1c-3.17,0-6.34-1.58-9.52-3.17-12.68-7.93-23.78-17.44-36.47-25.37-17.45-12.69-36.48-23.79-55.51-36.48-9.51-6.34-19-11.1-28.54-17.44-19-11.11-38.07-22.21-58.68-33.31C2278.93,115.55,2091.79,53.7,1893.56,22l-71.37-9.52C1641.4-8.15,1452.68-3.4,1273.47,28.32c-23.79,4.76-47.57,9.52-69.78,14.27-11.1,3.18-23.79,4.76-34.89,7.93C1010.21,88.59,861.14,147.26,723.17,225c-52.34,28.55-101.5,61.85-149.08,95.16-3.17,1.58-6.34,3.17-9.51,3.17H363.17c-15.86,0-31.72,9.51-39.65,23.79C277.53,424.8,169.69,475.54,46,475.54a46,46,0,0,0-46,46v1314.7a46,46,0,0,0,46,46c69.78,0,136.39,17.45,190.31,47.58,17.44,9.52,31.71,20.62,46,31.72,7.93,7.93,17.44,15.86,23.79,23.79,3.17,4.76,6.34,7.93,9.51,12.69s6.34,7.92,7.93,12.68c7.93,14.28,23.79,23.79,39.65,23.79h203c3.17,0,6.35,1.59,9.52,3.17,60.26,42.82,125.28,84,191.89,118.94C1018.14,2288.22,1306.78,2358,1601.75,2358c122.12,0,244.23-11.1,363.17-34.89a273.79,273.79,0,0,0,34.89-7.93A1715.06,1715.06,0,0,0,2298,2221.62q61.85-26.17,123.7-57.1a1813.9,1813.9,0,0,0,207.75-126.87c3.18-1.58,6.35-3.17,9.52-3.17h166.52c15.86,0,31.72-9.51,39.65-23.79,3.17-4.76,4.75-9.51,7.93-12.69,3.17-4.75,6.34-7.92,9.51-12.68a167.8,167.8,0,0,1,23.79-23.79,260.59,260.59,0,0,1,46-31.72c53.92-30.13,120.53-47.58,190.31-47.58a46,46,0,0,0,46-46V521.54C3170.2,494.57,3149.59,474,3124.21,474Zm0,1376.56c-74.53,0-147.48,17.44-204.58,50.75a408.47,408.47,0,0,0-50.75,34.88,216.68,216.68,0,0,0-27,27,87,87,0,0,0-11.1,14.27,139.14,139.14,0,0,0-9.51,15.86c-3.17,4.75-7.93,7.93-14.28,7.93H2635.76c90.39-73,169.69-155.42,233.12-244.23-258.5,331.45-729.51,551.89-1268.71,551.89-570.93,0-1067.31-249-1313.13-613.74C358.41,1809.28,452,1910.78,561.4,2001.18H363.17c-6.35,0-11.1-3.18-14.28-7.93a140,140,0,0,1-9.51-15.86c-3.17-4.76-7.93-9.52-11.1-14.27a216.68,216.68,0,0,0-27-27c-14.28-12.68-31.72-25.37-50.75-34.88-58.68-33.31-130-50.75-204.58-50.75a15.89,15.89,0,0,1-15.86-15.86V521.54A15.89,15.89,0,0,1,46,505.68c133.21,0,252.16-57.1,302.9-144.32,3.18-4.76,7.93-7.93,14.28-7.93H558.23c-107.84,88.81-199.82,190.31-269.6,301.32C532.86,290,1027.66,41,1600.17,41c539.2,0,1010.21,222,1268.71,551.89-63.43-87.22-141.14-168.1-228.36-241.06h164.93c6.34,0,11.1,3.18,14.27,7.93,50.75,87.23,169.69,144.32,302.91,144.32A15.9,15.9,0,0,1,3138.49,520V1834.66h1.58A15.9,15.9,0,0,1,3124.21,1850.52Z"/><path class="cls-1" d="M670.83,715l-3.17-3.17c-7.93-6.34-14.27-11.1-23.79,0-4.75,4.76-9.51,12.69-20.61,25.38-7.93,7.93-15.86,1.58-22.21-4.76L486.87,638.89c-11.1-9.51-20.62-17.44-34.89-1.58L440.88,650c-12.69,15.86-3.17,25.38,7.93,33.31L593.12,805.41c11.11,9.52,20.62,17.45,34.89,1.59l50.75-58.68C691.45,732.46,680.35,724.53,670.83,715Z"/><path class="cls-1" d="M727.93,702.33c15.85-14.28,6.34-23.79-3.18-34.89L596.3,527.88c-9.52-9.52-19-20.62-33.31-6.35l-12.68,11.11c-15.86,14.27-6.35,23.79,3.17,34.89L680.35,707.09c9.51,9.51,19,20.61,33.3,6.34Z"/><path class="cls-1" d="M735.85,654.75c7.93,11.1,15.86,22.2,33.31,11.1l63.43-44.4C850,608.76,861.14,600.83,858,565.94a80.13,80.13,0,0,0-14.27-36.48c-14.28-19-36.48-36.47-61.85-30.13h-1.59v-1.58c9.52-19,4.76-39.65-6.34-57.1-17.45-25.37-47.58-41.23-84.06-17.44L629.6,464.44c-17.44,11.1-9.52,23.79-1.59,34.89Zm17.45-111c15.86-11.1,23.79,1.58,33.3,14.27,7.93,14.27,15.86,27,1.59,36.48-15.86,11.1-22.2,1.58-33.3-14.28C743.78,562.77,737.44,554.84,753.3,543.74ZM701,472.37c11.1-7.93,20.61,0,27,9.52s11.1,20.61-1.59,28.54c-14.27,9.52-17.45,4.76-27-9.51S686.69,481.89,701,472.37Z"/><path class="cls-1" d="M881.76,565.94c6.34,14.27,17.44,11.1,33.3,3.17l14.27-6.34c19-9.52-11.1-52.34,1.59-58.68l25.37-12.69c12.69-4.75,25.38,47.58,44.41,38.06l15.86-7.93c17.44-7.92,27-14.27,20.62-28.54-9.52-19-36.48-47.58-119-164.93-11.1-14.28-20.61-20.62-33.3-14.28L837.35,336c-12.68,6.34-14.27,19-9.51,34.88C873.83,527.88,873.83,546.91,881.76,565.94Zm3.17-190.31c6.34-3.17,25.37,33.31,44.4,61.85,1.59,1.59,1.59,3.17,3.18,4.76,1.58,4.76-1.59,6.34-11.1,9.52-9.52,4.75-12.69,6.34-14.28,1.58,0-1.58-1.58-3.17-1.58-4.76C894.44,416.87,878.59,378.8,884.93,375.63Z"/><path class="cls-1" d="M957.88,323.3c3.17,7.93,9.52,6.34,17.45,3.17,3.17-1.59,6.34-3.17,9.51-3.17,6.34-3.17,9.52-1.59,12.69,6.34l53.92,147.49c4.76,12.69,9.51,25.37,28.54,19l15.86-6.34c17.45-6.35,14.28-17.45,11.1-30.13L1053,309c-3.17-7.93-3.17-9.52,4.76-12.69,3.17-1.59,6.35-1.59,9.52-3.17,7.93-3.18,14.27-6.35,11.1-14.28l-9.52-27c-1.58-6.34-11.1-7.93-19-4.75l-88.81,31.71c-7.93,3.17-14.27,7.93-11.1,15.86Z"/><path class="cls-1" d="M1149.77,445.41c3.18,12.69,7.93,27,27,20.62l15.86-4.76c20.62-4.76,15.86-19,12.69-31.72l-50.75-182.37c-3.17-12.69-7.93-27-27-20.62l-15.86,4.76c-20.61,4.75-15.86,19-12.68,31.71Z"/><path class="cls-1" d="M1202.11,331.23q2.37,14.26,4.76,28.54c11.1,53.92,23.78,93.57,95.15,79.3,63.44-12.69,65-53.92,55.51-106.26-3.18-17.44-7.93-38.06-12.69-58.67-11.1-53.93-22.2-92-90.4-79.3-71.36,14.27-68.19,53.92-58.67,109.43A165.71,165.71,0,0,0,1202.11,331.23Zm57.09-88.81c17.45-3.17,19,6.34,20.62,15.86l20.61,106.25c3.18,9.52,6.35,23.79-11.1,27s-19-9.51-22.2-20.62l-20.62-106.25C1244.93,256.69,1243.34,245.59,1259.2,242.42Z"/><path class="cls-1" d="M1381.31,393.08c1.59,14.27,1.59,27,22.21,25.37l17.44-1.58c20.62-1.59,19-15.86,19-28.55l-7.93-87.22c0-1.59,0-3.18,1.59-3.18l3.17,3.18,53.92,95.15c6.35,9.51,7.93,15.86,39.65,12.69,20.62-1.59,19-15.86,19-28.55L1532,191.67c-1.59-14.27-1.59-27-22.21-25.38l-17.44,1.59c-20.62,1.59-19,15.86-19,28.55l6.34,79.29c0,3.17,0,3.17-1.59,3.17s-1.58-1.58-3.17-3.17l-52.33-90.4c-6.35-9.51-9.52-11.1-20.62-11.1l-17.44,1.59c-20.62,1.59-19,15.86-19,28.55Z"/><path class="cls-1" d="M1611.27,410.52a215.26,215.26,0,0,0,33.3-3.17c6.35-3.17,25.38-9.51,36.48-25.37,9.51-12.69,9.51-28.55,9.51-42.82,0-28.55-7.92-52.34-47.57-85.64-12.69-11.1-15.86-17.45-15.86-27,0-11.1,6.34-14.27,14.27-14.27,9.52,0,22.2,4.75,28.55,4.75h3.17c11.1,0,12.69-6.34,12.69-9.51v-27c0-9.52-19-14.28-47.58-15.86-27,0-71.37,4.76-73,71.36,0,28.55,14.27,42.82,46,74.54,20.62,20.62,20.62,27,20.62,34.89,0,11.1-12.69,17.45-22.21,17.45-19,0-27-4.76-36.47-6.35-9.52,0-12.69,3.17-12.69,7.93v27C1560.52,405.76,1584.31,410.52,1611.27,410.52Z"/><path class="cls-1" d="M1827,423.21l19,3.17c12.69,1.59,20.62,3.17,30.13-19,7.93-15.86,20.62-42.82,22.21-42.82,4.76,0,6.34,27,6.34,47.58,1.59,25.37,6.34,25.37,20.62,28.54l23.79,4.76c17.44,3.17,20.61-7.93,27-23.79,12.68-33.3,63.43-190.3,66.6-199.82,1.59-6.34,0-7.93-4.75-9.51l-39.65-6.35c-7.93-1.58-11.1,3.17-14.27,11.1L1942.72,363a1.59,1.59,0,0,1-3.17,0s-1.59-80.89,0-87.23c3.17-17.44,14.27-55.51,17.45-63.43,0-1.59,1.58-3.18,1.58-4.76,1.59-6.35-1.58-9.52-6.34-9.52-3.17,0-27-3.17-28.55-4.76-6.34-1.58-15.86-3.17-22.2-4.75s-7.93,1.58-9.52,7.93v4.75c0,7.93-1.58,46-1.58,65C1888.8,271,1865,347.09,1865,348.67a1.59,1.59,0,1,1-3.17,0L1866.6,198c0-9.51,0-15.86-9.52-17.44l-36.47-6.35c-7.93-1.58-9.52,0-9.52,7.93-1.58,9.52-3.17,176-1.58,210.93C1806.34,408.94,1807.92,420,1827,423.21Z"/><path class="cls-1" d="M2030,466l15.86,4.76c20.61,6.34,23.78-7.93,27-20.62l52.33-182.38c3.17-12.69,7.93-27-12.69-31.72l-15.86-4.75c-20.61-6.35-23.78,7.93-27,20.61l-52.33,182.38C2014.09,447,2009.33,461.27,2030,466Z"/><path class="cls-1" d="M2098.14,486.65,2114,493c19,7.93,23.79-4.76,28.55-17.45l31.71-82.46a3.41,3.41,0,0,1,3.18-3.17,6.93,6.93,0,0,1,1.58,4.75l6.34,109.43c0,11.1,1.59,17.44,30.14,28.55,19,7.93,23.79-4.76,28.54-17.45l69.78-177.62c4.76-12.69,9.52-25.37-9.51-33.3l-15.86-6.35c-19-7.93-23.79,4.76-28.55,17.45l-28.54,72.95c-1.59,1.59-1.59,3.17-3.18,3.17s-1.58-1.58-1.58-4.76l-6.35-104.67c-1.58-11.1-3.17-14.27-14.27-19l-17.44-6.34c-19-7.93-23.79,4.76-28.55,17.45l-69.78,176C2083.87,466,2079.11,478.72,2098.14,486.65Z"/><path class="cls-1" d="M2263.07,556.43l79.3,44.4c9.51,4.76,14.27,3.17,19-4.76l11.1-20.61c4.76-9.52,3.17-14.28-9.52-22.21-6.34-3.17-12.68-6.34-30.13-15.86-6.34-3.17-9.51-9.51-6.34-17.44l11.1-20.62c4.76-9.51,7.93-14.27,17.45-9.51,6.34,3.17,15.85,9.51,31.71,17.44,7.93,4.76,14.28,6.35,19-1.58l11.11-19c1.58-3.18,6.34-14.28-3.18-20.62-6.34-3.17-9.51-4.76-28.54-15.86-14.28-7.93-12.69-12.69-1.59-33.3,4.76-9.52,7.93-15.86,25.38-6.35,7.93,4.76,15.85,9.52,28.54,15.86,7.93,4.76,14.28,7.93,17.45,0L2469.24,401c3.17-6.35-1.59-12.69-9.52-17.45L2382,340.74c-17.45-9.51-25.38,1.59-31.72,14.28l-92,164.93C2255.14,527.88,2245.63,546.91,2263.07,556.43Z"/><path class="cls-1" d="M2539,607.17c25.37-1.58,34.89-14.27,50.75-33.3,25.37-31.72,34.89-69.78-4.76-101.5l-53.92-41.23c-15.86-12.69-25.37-1.59-33.3,9.51L2382,591.31c-7.93,11.11-17.45,22.21-6.35,30.14l19,14.27c15.86,12.69,25.38,1.59,33.31-9.52l30.13-38.06c1.58-1.58,4.76-6.34,7.93-4.75,1.58,1.58,6.34,12.68-6.35,42.81-9.51,23.79-11.1,52.34,12.69,71.37,14.27,11.1,20.62,7.93,23.79,1.59,6.34-7.93,12.69-15.86,17.44-20.62,11.11-12.69,14.28-22.2,6.35-28.55q-2.38,0-9.52-4.75c-9.51-6.35-1.58-23.79,6.35-34.89S2526.33,607.17,2539,607.17Zm-33.3-53.92c-11.11-9.51-11.11-12.68-4.76-20.61,3.17-3.18,6.34-7.93,11.1-12.69,4.76-6.34,9.51-12.69,11.1-15.86,7.93-9.52,11.1-11.1,22.2-1.59,12.69,9.52,3.17,27-6.34,38.07C2529.5,553.25,2518.4,562.77,2505.72,553.25Z"/><path class="cls-1" d="M2770.56,650l-22.2-22.2c-7.93-9.52-22.2-1.59-33.31,3.17-9.51,4.76-46,23.79-47.57,25.38s-3.17,1.58-4.76,0-1.59-3.18,0-4.76c1.59-3.17,22.2-36.48,30.13-46,7.93-11.1,15.86-23.79,9.52-31.72l-27-28.55c-1.59-1.58-6.35-7.93-12.69-1.58-7.93,6.34-31.72,57.09-39.65,71.36l-1.58,3.17c-6.35,14.28-27,57.1-39.65,68.2l-38.06,34.89c-9.52,9.51-20.62,19-6.35,33.3l11.1,12.69c14.28,15.86,23.79,6.34,33.31-1.59l22.2-20.61c22.2-20.62,25.38-22.21,52.34-31.72,17.44-6.34,33.3-12.69,41.23-15.86,15.86-4.76,68.19-25.37,76.12-31.72C2780.08,659.51,2778.49,656.34,2770.56,650Z"/><path class="cls-1" d="M942,1925.05l-20.61-12.68c-4.76-3.18-11.11,0-15.86,4.75C858,1974.22,850,1979,845.28,1988.49c-3.17,6.34,0,9.51,7.93,12.69l6.35,3.17c7.92,4.76,17.44-17.45,22.2-14.27l11.1,6.34c4.76,3.17-11.1,20.62-1.59,25.37l7.93,4.76c7.93,4.76,12.69,6.34,15.86,0,4.76-7.93,7.93-25.37,31.72-87.22C948.37,1934.57,948.37,1928.23,942,1925.05Zm-34.89,49.17a1.55,1.55,0,0,1-1.58,1.58c-1.59,1.59-1.59,1.59-6.35-1.58s-4.76-3.18-4.76-4.76a1.56,1.56,0,0,1,1.59-1.59c9.52-12.68,19-28.54,22.2-27C923,1942.5,913.48,1959.94,907.13,1974.22Z"/><path class="cls-1" d="M1049.86,2026.55c-3.17-1.58-4.76-1.58-9.51-4.76-6.35-3.17-4.76-4.75-1.59-12.68s4.76-11.11,14.27-6.35c6.35,3.17,7.93,3.17,11.11,4.76,4.75,1.59,6.34,1.59,7.93,0l4.75-12.69c1.59-3.17-1.58-6.34-4.75-7.93L1037.18,1971c-7.93-3.17-11.11,3.18-14.28,7.93L988,2058.27c-3.17,6.34-4.75,11.1,3.17,15.86l7.93,3.17c7.93,3.17,11.11-1.59,14.28-7.93l9.51-22.2c3.17-7.93,3.17-7.93,7.93-6.35,1.59,1.59,6.35,3.18,9.52,4.76,9.51,4.76,11.1,3.17,14.27-7.93v-1.58C1057.79,2031.31,1057.79,2029.72,1049.86,2026.55Z"/><path class="cls-1" d="M1119.64,2031.31a74.3,74.3,0,0,0,14.28,4.76c3.17,1.58,6.34,1.58,7.92-1.59l4.76-12.69c1.59-3.17-1.58-6.34-4.76-6.34l-38.06-14.27c-9.51-3.18-11.1,3.17-12.68,7.93L1061,2090c-1.58,3.17-4.75,11.1,4.76,15.86l38.06,14.27c4.76,1.58,6.35,0,7.93-3.17l3.17-9.52c1.59-4.76,0-6.34-6.34-9.51-3.17-1.59-6.34-1.59-14.27-4.76-3.17-1.59-4.76-3.17-4.76-7.93l3.17-9.52c1.59-4.75,3.17-6.34,7.93-4.75,3.17,1.58,7.93,3.17,15.86,6.34,3.17,1.59,6.34,1.59,7.93-1.59l3.17-9.51c0-1.59,1.59-6.35-3.17-9.52-3.17-1.58-4.76-1.58-14.27-4.76-7.93-3.17-6.35-4.75-3.18-14.27C1110.13,2031.31,1111.71,2028.14,1119.64,2031.31Z"/><path class="cls-1" d="M1197.35,2034.48c-12.69-3.17-31.72-7.93-41.23,22.2-3.17,12.69,1.58,20.62,11.1,38.06,6.34,11.11,6.34,14.28,4.76,17.45-1.59,4.76-7.93,6.34-12.69,4.76-7.93-3.17-11.1-6.35-14.27-7.93-4.76-1.59-6.35,0-6.35,1.58l-3.17,11.1c-1.58,6.35,7.93,11.11,19,14.28,4.76,1.58,11.1,3.17,14.27,3.17s12.69,0,19-6.34c6.34-4.76,7.92-11.11,9.51-17.45,3.17-12.69,3.17-23.79-9.51-44.4-4.76-6.35-4.76-9.52-3.18-14.28s4.76-4.75,7.93-4.75c4.76,1.58,9.52,4.75,11.1,4.75h1.59c4.76,1.59,6.34-1.58,6.34-3.17l3.18-11.1C1218,2042.41,1210,2037.65,1197.35,2034.48Z"/><path class="cls-1" d="M1289.33,2059.85l-42.82-11.1c-3.17-1.58-7.93,0-7.93,3.18l-3.17,12.68c-1.58,3.17,1.59,4.76,6.35,6.35,1.58,0,3.17,0,4.75,1.58,3.18,1.59,3.18,1.59,3.18,6.35l-17.45,69.78c-1.58,6.34-3.17,12.68,6.34,14.27l7.93,1.58c7.93,1.59,9.52-3.17,12.69-9.51l17.45-71.37c1.58-3.17,1.58-4.75,4.75-3.17,1.59,0,3.18,1.59,4.76,1.59,3.17,1.58,6.34,1.58,7.93-3.17l3.17-12.69C1295.68,2063,1292.5,2059.85,1289.33,2059.85Z"/><path class="cls-1" d="M1333.74,2069.37l-7.93-1.59c-9.52-1.58-11.1,4.76-11.1,11.11l-17.45,84.05c-1.58,6.34-3.17,12.69,6.35,14.27l7.93,1.59c9.51,1.58,11.1-4.76,11.1-11.1l17.44-84.06C1341.67,2077.3,1343.25,2071,1333.74,2069.37Z"/><path class="cls-1" d="M1425.72,2083.64l-6.34-1.58c-9.52-1.59-9.52,1.58-22.21,49.16-4.75,17.45-7.93,31.72-9.51,31.72-3.17,0,0-15.86,1.58-57.09,1.59-25.38,0-28.55-7.93-28.55l-6.34-1.59c-7.93-1.58-11.1-1.58-12.69,4.76,0,4.76,1.59,23.79,3.18,93.57q0,11.89,9.51,14.27l19,3.17c6.35,1.59,9.52-3.17,12.69-11.1,23.79-65,30.13-84.05,30.13-88.81S1432.06,2085.23,1425.72,2083.64Z"/><path class="cls-1" d="M1506.6,2093.16,1467,2090c-9.51-1.59-9.51,4.75-11.1,11.1l-7.93,85.64c0,3.17-1.58,12.68,7.93,12.68l41.24,3.18c4.75,0,6.34-1.59,6.34-6.35l1.59-11.1c0-4.76-1.59-6.34-7.93-7.93-3.18,0-6.35,0-15.86-1.58-3.18,0-6.35-1.59-6.35-6.35l1.59-11.1c0-4.76,0-7.93,6.34-6.34,3.17,0,7.93,1.58,15.86,1.58,3.17,0,7.93,0,7.93-4.75l1.59-9.52c0-1.59,0-7.93-4.76-7.93-3.17,0-4.76,0-14.27-1.59-7.93,0-7.93-3.17-6.35-14.27,0-4.76,0-7.93,9.52-7.93,3.17,0,9.51,1.59,14.27,1.59,3.17,0,6.34,0,7.93-3.17l1.59-12.69C1512.94,2094.74,1509.77,2093.16,1506.6,2093.16Z"/><path class="cls-1" d="M1633.47,2096.33h-41.23c-9.52,0-9.52,6.34-9.52,12.69l-1.58,85.64c0,3.17,0,12.68,9.51,12.68h41.24c4.75,0,6.34-1.58,6.34-6.34v-11.1c0-4.76-1.59-6.35-7.93-6.35h-15.86c-3.17,0-6.34-1.58-6.34-4.75v-11.1c0-4.76,0-7.93,4.76-7.93h15.85c3.18,0,7.93,0,7.93-4.76v-9.52c0-1.58,0-7.93-6.34-7.93H1616c-7.93,0-7.93-3.17-7.93-12.68,0-4.76,0-7.93,9.51-7.93h14.28c3.17,0,6.34,0,6.34-3.17v-12.69C1641.4,2097.92,1638.23,2096.33,1633.47,2096.33Z"/><path class="cls-1" d="M1735,2096.33c0-4.76-3.17-4.76-11.1-4.76h-1.59c-12.68,0-12.68,1.59-14.27,6.35v1.58c-3.17,9.52-6.34,31.72-7.93,31.72h-1.59s-6.34-19-9.51-30.13c-1.59-3.17-1.59-4.76-6.34-4.76H1670q-9.53,0-9.52,4.76c0,4.76,19,42.82,19,46,0,4.76-14.27,50.75-14.27,55.51s6.34,4.75,11.1,4.75h4.76c9.51,0,11.1,0,12.69-9.51l4.75-30.13h1.59l9.52,30.13c3.17,7.93,1.58,7.93,11.1,7.93h7.93c6.34,0,12.68-1.59,12.68-6.35,0-6.34-22.2-49.16-23.78-52.33C1719.11,2140.74,1735,2102.67,1735,2096.33Z"/><path class="cls-1" d="M1796.82,2085.23l-33.3,4.76c-9.52,1.58-7.93,7.93-7.93,14.27l11.1,85.64c0,6.34,1.58,12.69,11.1,11.1l7.93-1.59c9.51-1.58,7.93-7.93,7.93-14.27l-3.17-22.2c0-1.59,0-3.17,3.17-3.17H1800c9.52-1.59,23.79-4.76,27-15.86,1.59-4.76,3.17-17.45,1.59-25.38C1825.37,2094.74,1814.26,2082.06,1796.82,2085.23Zm-3.17,50.75c-6.35,0-7.93,0-7.93-4.76v-7.93c0-3.17-1.59-6.34-1.59-7.93,0-6.34,0-7.93,6.35-7.93,6.34-1.58,9.51,7.93,11.1,14.27C1801.58,2128.05,1801.58,2136,1793.65,2136Z"/><path class="cls-1" d="M1915.76,2161.35c-1.58-4.76-3.17-6.34-9.51-4.76-3.17,0-6.35,1.59-14.28,3.18-3.17,0-6.34,0-7.93-3.18l-1.58-11.1c-1.59-4.75-1.59-7.93,3.17-7.93,3.17,0,7.93-1.58,15.86-3.17,3.17,0,6.34-1.58,6.34-6.34l-1.58-9.52c0-1.58-1.59-6.34-6.35-6.34-3.17,0-4.75,1.59-14.27,3.17-7.93,1.59-7.93-1.58-9.52-11.1-1.58-4.76-1.58-7.93,6.35-9.52,3.17,0,7.93-1.58,14.27-1.58,3.17,0,6.35-1.59,6.35-4.76l-3.18-12.69c0-3.17-4.75-4.75-7.93-3.17l-39.64,7.93c-9.52,1.59-7.93,7.93-6.35,14.27l15.86,85.64c0,3.17,1.59,12.69,11.1,11.1l41.24-7.93c4.75-1.58,6.34-3.17,4.75-7.93Z"/><path class="cls-1" d="M2003,2128.05a7,7,0,0,1-4.76,1.58c-4.76,1.59-9.52-6.34-11.1-12.68s1.58-4.76,4.76-9.52c6.34-9.51,4.75-15.86,3.17-27-4.76-17.44-14.28-33.3-38.06-27l-30.14,7.93c-9.51,1.59-7.93,7.93-6.34,14.27l20.62,84.06c1.58,6.34,3.17,12.68,9.51,11.1l11.1-3.17c9.52-1.59,7.93-7.93,6.35-14.28l-4.76-22.2c0-1.59-1.59-3.17,0-3.17s6.34,1.58,12.69,14.27c6.34,11.1,15.86,19,30.13,15.86,7.93-1.59,7.93-4.76,7.93-7.93-1.59-4.76-1.59-7.93-3.17-12.69C2009.33,2131.22,2007.74,2126.46,2003,2128.05Zm-39.65-22.2c-6.34,1.58-7.93,1.58-7.93-4.76,0-1.59-1.59-4.76-1.59-7.93s-1.58-6.34-1.58-7.93c-1.59-4.76,0-6.34,4.76-7.93,6.34-1.59,11.1,6.34,12.68,12.69S1971.27,2104.26,1963.34,2105.85Z"/><path class="cls-1" d="M2036.29,2045.58c-1.59-6.34-3.17-12.69-12.69-9.51l-7.93,1.58c-9.51,3.17-7.93,7.93-4.75,14.28l25.37,82.46c1.59,6.35,3.17,12.69,12.69,9.52l7.93-1.59c9.51-3.17,7.93-7.93,4.76-14.27Z"/><path class="cls-1" d="M2137.79,2097.92c-1.59-4.76-4.76-4.76-11.1-3.18-3.18,1.59-6.35,3.18-14.28,4.76-3.17,1.59-6.34,0-7.93-3.17l-3.17-11.1c-1.58-4.76-3.17-6.34,1.59-7.93,3.17-1.59,7.93-3.17,15.86-4.76,3.17-1.58,6.34-3.17,4.75-7.93l-3.17-9.51c0-1.59-3.17-6.35-7.93-4.76-3.17,1.59-4.75,1.59-14.27,4.76-7.93,3.17-7.93,0-11.1-9.52-1.59-4.76-3.17-7.93,4.76-11.1a73.71,73.71,0,0,1,14.27-4.76c3.17-1.58,6.34-3.17,4.76-6.34l-4.76-12.69c-1.59-3.17-4.76-3.17-7.93-1.58l-38.06,12.68c-9.52,3.18-6.34,9.52-4.76,14.28l28.55,80.88c1.58,3.17,4.76,11.1,12.68,7.93l39.65-14.28c4.76-1.58,4.76-3.17,3.17-7.93Z"/><path class="cls-1" d="M2199.64,1983.73c-3.17-6.34-4.76-11.1-14.28-7.93l-7.92,3.17c-7.93,3.18-6.35,9.52-3.18,15.86l14.28,33.31v1.58a1.55,1.55,0,0,1-1.59-1.58l-34.89-31.72c-4.76-3.17-6.34-3.17-11.1-1.59L2133,1998c-7.93,3.17-6.34,9.51-3.17,15.85l33.3,79.3c3.17,6.34,4.76,11.1,14.28,7.93l7.92-3.17c7.93-3.18,6.35-9.52,3.18-15.86l-15.86-36.48V2044a1.55,1.55,0,0,1,1.58,1.58l36.48,33.31c3.17,3.17,6.34,4.75,19,0,7.93-3.18,6.34-9.52,3.17-15.86Z"/><path class="cls-1" d="M2304.31,2023.38c0-1.59-3.18-6.34-7.93-3.17-3.17,1.58-3.17,1.58-4.76,3.17-12.69,6.34-25.37-19-28.55-23.79s-14.27-28.55-1.58-36.47c1.58,0,1.58,0,4.76-1.59,4.75-3.17,4.75-4.76,3.17-6.34l-6.35-12.69c-1.58-3.17-4.75-3.17-7.93-1.59-20.61,9.52-38.06,31.72-17.44,71.37,22.2,42.82,49.16,39.65,69.78,30.13,3.17-1.59,4.76-4.76,3.17-7.93Z"/><path class="cls-1" d="M2375.67,1980.56c-3.17-4.76-4.76-4.76-11.1-1.59-3.17,1.59-4.76,3.18-12.69,7.93-3.17,1.59-6.34,1.59-7.93-1.58l-6.34-9.52c-3.17-4.76-3.17-6.34,0-9.51,3.17-1.59,7.93-4.76,14.27-7.93,3.18-1.59,6.35-3.17,3.18-7.93l-4.76-7.93c-1.59-1.59-3.17-6.34-7.93-3.17-3.17,1.58-4.76,3.17-12.69,7.93-6.34,4.75-7.93,1.58-12.69-6.35-3.17-4.75-4.75-6.34,3.18-11.1a146,146,0,0,0,12.68-7.93c3.17-1.58,6.35-3.17,4.76-6.34l-6.34-11.1c-1.59-3.17-4.76-1.59-9.52,0l-34.89,20.61c-7.93,4.76-4.76,9.52-1.58,15.86l44.4,74.54c1.59,3.17,6.34,11.1,14.27,6.34l34.89-20.61c4.76-3.17,4.76-4.76,1.59-7.93Z"/><path class="cls-1" d="M1284.58,1736.33c3.17-1.58,4.75-4.76,3.17-7.93l-119-334.62c-1.58-3.17-4.75-4.76-7.92-3.17s-4.76,4.75-3.18,7.93l119,334.62C1278.23,1736.33,1281.4,1737.92,1284.58,1736.33Z"/><path class="cls-1" d="M2397.87,1260.56l-.06,0c-.5,0-1,0-1.52,0Z"/><path class="cls-1" d="M2401.05,1259a4.85,4.85,0,0,0,0-6.35c-19-19-57.1-27-88.81-33.3-19-4.76-34.89-7.93-41.24-12.69-4.75-3.17-7.93-7.93-6.34-12.68,1.59-6.35,6.34-12.69,11.1-12.69,1.59-1.59,3.17-3.17,3.17-4.76-1.58-1.59-3.17-3.17-4.76-3.17-6.34,3.17-14.27,11.1-15.85,20.62-1.59,4.75,0,14.27,9.51,20.61,7.93,6.35,23.79,9.52,46,14.27,30.1,6.34,66.53,14.26,84,31.67A5.11,5.11,0,0,0,2401.05,1259Z"/><path class="cls-1" d="M2407.39,1328.76c-1.59,0-4.76,1.58-4.76,4.75-3.17,61.85-39.65,290.22-60.26,323.53s-92,46-122.12,50.75c-9.51,1.58-19,3.17-30.13,3.17-27,1.58-52.33,4.76-63.43,19q-7.14,9.51-4.76,23.79a3.41,3.41,0,0,0,3.17,3.17h1.59c1.58,0,4.75-3.17,3.17-4.76a22,22,0,0,1,3.17-17.44c9.52-11.11,33.3-14.28,57.09-15.86,9.52-1.59,20.62-1.59,30.13-3.17,31.72-4.76,106.26-19,128.46-55.51,20.62-34.89,57.09-263.26,60.27-328.28C2412.15,1330.34,2410.56,1328.76,2407.39,1328.76Z"/><path class="cls-1" d="M2287.06,1086.29c.47,0,.93-.1,1.39-.18l-1.33,0Z"/><path class="cls-1" d="M2294.79,1140l9.31-34.3a36.65,36.65,0,0,0,12.89-6.93c15.86,1.59,31.72-3.17,41.23-15.86s7.93-30.13,3.18-42.82c-6.35-12.68-7.93-14.27-7.93-14.27,12.68-15.86,9.51-41.23-11.1-53.92a33.93,33.93,0,0,0-27-33.3c1.58-27-23.79-47.58-49.17-46,1.59-34.89-41.23-44.41-69.78-36.48A42.69,42.69,0,0,0,2162.82,840a44.34,44.34,0,0,0-17.1,3.45c-6.35-11.1-23.79-19-38.07-15.86-4.75-14.27-31.71-19-44.4-17.44-7.93,1.58-19,4.76-27,12.69-17.45-20.62-52.34-19-73-1.59-15.86-9.52-44.41-14.27-65-3.17a80.3,80.3,0,0,0-25.62,20.35l0-.26h0c-15.8-142.62-54.9-271.53-56.82-280.17l-3.17-9.51c-4-7.93-33.31-14.67-78.7-19.43s-106.85-7.53-175-7.53c-134.8,0-245.81,12.68-253.74,27h-1.59l-3.17,11.1c-2.89,8.67-39.15,137.35-54,280.4h0c-7.44,1.72-15.09,4.17-23.7,6.63-58.68,15.86-136.39,39.65-217.27,69.78-103.09,38.07-282.29,107.84-296.57,138-1.58,4.75-1.58,7.93,0,9.51s1.59,4.76,4.76,6.35l371.1,275.94c6.35,4.76,12.69,7.93,20.62,11.1l144.32,402.82v1.59c-44.41,23.78-93.57,58.67-109.43,93.56-6.34,12.69-7.93,25.38-3.17,38.07,12.28,33.76,115.18,6.62,179.29-13.85h0q-.09,1.35-.09,2.73c0,53.93,101.5,93.57,242.64,93.57,70.58,0,131.24-9.91,174.26-26.56s68.39-40,68.39-67a38.92,38.92,0,0,0-.95-8.56c6.43,1.74,12.38,3.18,16.8,5.39,85.64,22.2,268,49.17,285.47-17.44l19-72.95c44.4-3.18,153.83-22.21,193.48-39.65s69.77-34.89,87.22-99.91c17.45-61.85,63.44-288.64,53.92-383.79C2450.21,1206.64,2396.29,1163.82,2294.79,1140Zm-31.72,119c12.69,4.75,28.55,9.51,41.23,14.27s22.21,7.93,28.55,9.52c10.35,10.35,8.29,85.4-6.13,175.14,0,0,0,.07,0,.11s0,0,0,0,0,.08,0,.12a.52.52,0,0,0,0,.11q-1.56,9.66-3.31,19.53c-15.86,82.47-33.31,142.73-39.65,152.25-11.1,7.93-79.3,34.89-126.87,28.54l.81-3Zm-249.4,429.4c-1.59,1.59-3.17,3.17-4.76,3.17-3.17-1.58-4.76-3.17-3.17-4.76l123.7-471c0-3.17,3.17-3.17,4.76-3.17,3.17,0,3.17,3.17,3.17,4.76Zm131.63-526.52,19-72.95c0-3.17,3.17-3.17,4.76-3.17,3.17,0,3.17,3.17,3.17,4.76l-19,73c-1.59,1.58-3.17,3.17-4.76,3.17C2145.3,1166.62,2143.71,1163.45,2145.3,1161.86Zm-900.39-125.18c-3.2-.86-6.6-1.69-10.17-2.48l7.1-29.74h0Q1243,1020.87,1244.91,1036.68Zm-160.16,247.67c1.59-1.58,6.34-1.58,7.93,0a50.65,50.65,0,0,0,31.33,11.16,51.91,51.91,0,0,0,17.83-3.23c15.86-6.34,28.55-20.62,31.72-38.06,0-3.17,3.17-4.76,6.34-4.76s4.76,3.17,4.76,6.35a62.5,62.5,0,0,1-13.88,28.35A64.44,64.44,0,0,1,1145,1301.8c-20.61,7.93-42.81,4.75-60.26-9.52C1083.16,1290.7,1083.16,1285.94,1084.75,1284.35Zm670.83-188.72c-25.37,80.88-90.39,134.8-174.44,147.49a219.46,219.46,0,0,1-34.89,3.17c-71.37,0-138-28.55-169.69-73-1.59-1.59-1.59-3.17-1.59-4.76a3.42,3.42,0,0,1,3.17-3.17c1.59,0,1.59-1.59,3.17-1.59s3.17,1.59,4.76,3.18c28.55,41.23,92,68.19,158.59,68.19,12.69,0,25.37-1.59,36.48-3.17,80.88-12.69,141.14-63.44,164.93-139.56,0-3.17,3.17-4.76,4.76-4.76h1.58a3.41,3.41,0,0,1,3.17,3.17C1755.58,1092.46,1757.17,1094,1755.58,1095.63Zm64.36,92c-2,3.62-4.38,7.42-6.93,11.36Q1816.52,1193.51,1819.94,1187.67Zm47.83-54.35c0-3.18,3.17-3.18,4.75-3.18,3.18,0,3.18,3.18,3.18,4.76l-61.85,234.72c0,3.17-3.18,3.17-4.76,3.17-3.17-1.59-3.17-3.17-3.17-4.76ZM1839.64,1094q1.92-6.33,3.67-12.87C1842.18,1085.55,1841,1089.85,1839.64,1094Zm-65-103.08c0,1.59-1.59,4.76-4.76,4.76-1.59,0-3.17,0-4.76-1.59s-1.59-3.17-1.59-4.76c3.18-68.19,0-139.55-11.1-201.4,0-1.59,0-3.18,1.59-4.76s1.58-1.59,3.17-1.59a8,8,0,0,1,4.36,1.19,4.17,4.17,0,0,1,2,3.57C1774.62,849.82,1777.79,921.18,1774.62,991Zm-533.25-85.64c-1,19.9-1.42,39.78-1.14,59.36v0h0L1224,1032c-69.82-12.91-188.35-14.12-220.14-14.12-10,0-28.56.08-51.47.59,23.91-8.06,48.63-16.76,73.67-26,3.18-1.59,4.76-1.59,7.93-3.18,59.7-21.42,144.5-54.67,207.37-84ZM1218,1300.21l45-181.36c45.44,141.2,130.54,188.22,224.64,206.73,14.27,12.69,22.2,34.89,23.79,68.2,1.58,22.2,1.58,71.36,1.58,150.66,0,74.28-3.68,141.67-9.3,188.06h0c-32.5-19.46-96.05-16.94-150.87-5.69l-144.32-404.41C1211.62,1316.07,1214.8,1308.14,1218,1300.21Zm309.25,455.15c11.1-50.75,14.27-71.36,14.27-210.92,0-80.88-1.59-130-1.59-152.25-1.58-19-3.17-42.82-14.27-63.43,11.1,1.58,58.68,1.58,69.78,0-11.1,20.61-14.27,44.4-14.27,63.43-1.59,22.21-1.59,71.37-1.59,152.25,0,139.56,4.76,160.17,14.27,210.92,11.1,73,34.89,92,55.51,104.67,1.59,0,1.59,1.59,3.17,1.59-11.1,9.51-61.85,20.61-93.57,20.61-15.86,0-36.87-2.38-55.1-6.14s-33.7-8.92-38.46-14.47c1.58,0,1.58-1.59,3.17-1.59C1489.15,1847.34,1511.36,1829.9,1527.22,1755.36Zm77.7-210.92c0-80.88,1.59-128.46,1.59-150.66,0-34.89,7.93-57.09,22.2-69.78a337.85,337.85,0,0,0,62.58-19.42L1606.45,1622C1605.47,1597.51,1604.92,1571.44,1604.92,1544.44Zm296.57-716.83c15.86-7.93,38.06-4.75,52.33,1.59-3.17,4.76-6.34,11.1-6.34,17.44v3.18a5.56,5.56,0,1,0,11.1,0v-1.59c3.17-28.55,53.92-41.23,69.78-15.86a22,22,0,0,0,0,14.27c1.59,6.35,12.69,3.18,11.1-3.17-4.76-12.68,12.69-19,22.2-20.61,6.35-1.59,30.13-1.59,34.89,9.51-3.17,1.59-4.76,3.17-7.93,6.34-4.75,4.76,3.17,14.28,7.93,7.93,12.69-14.27,49.17-1.58,38.06,19v1.59c-1.58,0-3.17-1.59-4.75-1.59a42.73,42.73,0,0,0-44.41,12.69c-3.17,4.76,3.17,9.52,6.34,6.35,15.86-19,57.1-14.28,61.85,14.27,1.59,4.76,9.52,3.17,7.93-1.59-1.58-9.51-9.51-17.44-17.44-22.2V873.6c3.17-4.75,3.17-9.51,3.17-14.27,22.2-7.93,44.41,4.76,46,30.13,0,7.93,12.69,7.93,11.1,0,0-6.34-1.58-12.68-4.76-17.44,22.21-4.76,57.1,1.58,52.34,30.13-1.59,0-3.17,1.59-4.76,1.59-6.34,3.17,0,12.68,6.35,9.51,20.61-11.1,50.74,6.35,49.16,31.72-1.59,0-3.17,0-4.76,1.59-6.34,1.58-4.76,11.1,1.59,11.1h1.58a19.52,19.52,0,0,1,6.23-1c7.31,0,14.19,4,19.15,8.94a23.55,23.55,0,0,1,4.55,10.67,28,28,0,0,1-1.38,13.11c-1.59,1.59-3.17,3.18-3.17,6.35v1.58a1.93,1.93,0,0,0,.2.79,1.42,1.42,0,0,0,1.38.8h4.76a9.74,9.74,0,0,0,3.17-.4,5.25,5.25,0,0,0,3.17-2.77,5,5,0,0,0,1.39-2.38,9.58,9.58,0,0,0,.2-2.38c6.34,4.76,7.93,11.1,7.93,17.45V1010c0,11.1-9.52,22.2-22.2,23.79a3.69,3.69,0,0,0-3,1.34,3.86,3.86,0,0,0-.55,1l.42-1.52h0a3.33,3.33,0,0,1-.08-.78,3.67,3.67,0,0,0-.36,2.36h0l-.19.7a.13.13,0,0,0,0,.06,5.2,5.2,0,0,0,.56,3.21c0,3.18,3.17,4.76,6.34,4.76a72.3,72.3,0,0,0,8.52-2.57,37,37,0,0,0,7.34-3.77v1.58c0,1.59,0,1.59,1.58,3.18v20.61a5.52,5.52,0,0,1-1.58,3.17,3.4,3.4,0,0,1-3.17,3.18,37.3,37.3,0,0,1-10.51,7.33,50.37,50.37,0,0,1-11.7,3.77c1.59-3.18,3.18-4.76,3.18-7.93a3.82,3.82,0,0,0,.42-1.72c0-2.51-2.59-4.63-5.18-4.63a16.25,16.25,0,0,0-4.08.32,3.54,3.54,0,0,0-.67.24,2.57,2.57,0,0,0-1.6,2.62A26.25,26.25,0,0,1,2303,1085a30.21,30.21,0,0,1-14.54,5.89c-.89.13-1.78.22-2.66.26-10.18.52-19.93-4.44-24.3-16.12l2-.65.22-.07,12.09-4a4.35,4.35,0,0,0,2.63-4.1,7.42,7.42,0,0,0-.52-2.6c-.06-.18-.14-.37-.22-.56s-.2-.45-.31-.67c-1.58-3.18-4.75-3.18-7.92-1.59a2.1,2.1,0,0,0-1.59.79,2.07,2.07,0,0,1-1.59.8c-1.58,1.58-4.75,1.58-6.34,1.58h-12.69c-1.58,0-1.58,0-3.17-1.58a2.07,2.07,0,0,1-1.59-.8,2.08,2.08,0,0,0-1.58-.79,2.08,2.08,0,0,1-1.59-.79,2,2,0,0,0-1.58-.8v-1.58l-1.59-1.59v-1.58a1.55,1.55,0,0,0-1.58-1.59v-3.17a12.94,12.94,0,0,1-.66-4.15v-.23a1.77,1.77,0,0,1,0-.23v-.12a20,20,0,0,1,2.23-8v-3.17a65.16,65.16,0,0,0,10.31-1c3.57-.6,7.13-1.39,10.31-2.18,2.32-1.16,3.79-3.17,3.79-4.79a2.13,2.13,0,0,0-.62-1.56,4.3,4.3,0,0,0-.08-.82h0a3.73,3.73,0,0,0-.66-1.57,1,1,0,0,0-.15-.2,7,7,0,0,0-5.44-2.16c-4.54,1.51-9.07,1.58-15,3l-.88.21h-7.93a34.61,34.61,0,0,1-12.06-2h0c-.61-.23-1.21-.48-1.81-.75a27.29,27.29,0,0,1-11.5-9.92,2.08,2.08,0,0,0-.79-1.58,2.1,2.1,0,0,1-.79-1.59,6.53,6.53,0,0,0-1-2.7l-.12-.26a4.38,4.38,0,0,1-.51-1.8,4.25,4.25,0,0,0-3.78-2.63,3.62,3.62,0,0,0-2.56,1.05,8,8,0,0,0-1.84,1.26l-.19.18a5.38,5.38,0,0,0-1.14,6.49c1.58,1.58,1.58,3.17,3.17,4.75l.28.3.07.08c1.24,1.46,1.36,2.92,2.82,4.38-.05.14-.09.27-.15.41-1.62,4.54-4.7,7.66-7.78,12.28l-3.17,3.17-1.59,1.59-3.17,3.17-.77.76-.82.82a19.44,19.44,0,0,1-5.75,3.77c-2.18,1-4.56,1.78-6.93,2.58h-3.17c-7.93,1.58-15.86-1.59-19-11.1v-1.59c.14-.14.28-.26.42-.38,1.45-1.22,2.9-1.35,4.34-2.79,3.17-1.59,3.17-6.35,1.59-7.93a5.51,5.51,0,0,0-.56-.5l-.06,0a6.79,6.79,0,0,0-7.31-1c-2.38,1.58-5.16,3.17-7.93,4.76-2.48,1.42-5,2.84-7.16,4.26l-.77.5a7.66,7.66,0,0,0-2.58.79,9.79,9.79,0,0,1-3.76.79h-11.11a1.55,1.55,0,0,1-1.58-1.58,11.5,11.5,0,0,1-4.36-4.36,13.73,13.73,0,0,1-.72-1.37,12.88,12.88,0,0,1-.86-2.37,8.79,8.79,0,0,1-.22-1,10.45,10.45,0,0,1-.19-2,4.4,4.4,0,0,0-1.52-3.34,5.27,5.27,0,0,0-3.23-1.42c-3.17,0-6.35,1.58-6.35,4.76v6.34h-1.58a58.67,58.67,0,0,1-9.72,3.77c-3.37,1-6.94,1.78-10.9,2.57h-22.2a2.08,2.08,0,0,1-1.59-.79,2.06,2.06,0,0,0-1.58-.79,1.56,1.56,0,0,1-1.59-1.59c-1.59,0-1.59-1.58-3.17-1.58a1.56,1.56,0,0,1-1.59-1.59c-1.58,0-1.58-1.59-1.58-3.17l-1.59-1.59v-1.58c0-1.59-1.59-1.59-1.59-3.17,3.18-.79,6-1.59,8.73-2.38,2.54-.73,5.08-1.46,7.93-2.18l.79-.2a4.27,4.27,0,0,0,2.63-3.79,3.67,3.67,0,0,0-1-2.56,7.87,7.87,0,0,0-.39-.7.21.21,0,0,1,0-.06c-1.69-2.65-4.6-3.86-7.5-2.41a43.94,43.94,0,0,1-14.6,4.23,100.73,100.73,0,0,1-12.36.53,37.9,37.9,0,0,1-21-10.33h0a42.35,42.35,0,0,1-5.94-7.12c1.58,0,1.58-1.58,3.17-1.58a3.18,3.18,0,0,0,.4-.23h0c2.65-1.7,2.69-5.82,1.34-7.49a.32.32,0,0,0-.08-.09.44.44,0,0,0-.09-.11c-1.58-1.59-4.75-3.17-6.34-1.59-2.38,1.59-4.76,3.18-7.34,4.76s-5.35,3.18-8.52,4.76a1.64,1.64,0,0,0-1.41.82,1.55,1.55,0,0,0-.17.76c-1.59,0-1.59,1.59-3.18,1.59s-1.58,1.59-3.17,1.59a1.55,1.55,0,0,0-1.58,1.58c-1.59,0-1.59,0-3.18,1.59h-17.44c-1.59,0-3.17,0-4.76-1.59a1.55,1.55,0,0,1-1.58-1.58c-1.59,0-3.18-1.59-4.76-1.59a1.56,1.56,0,0,1-1.59-1.59l-3.17-3.17-1.59-1.58c-1.58-1.59-1.58-1.59-3.17-3.17v-1.59a37,37,0,0,1-4.27-10.53,41.37,41.37,0,0,1-.49-16.43c0-3.17-1.58-6.34-4.75-6.34h-.41c-2.9,0-4.42.14-5.94,3.17a50.4,50.4,0,0,0-1,9.73,35.64,35.64,0,0,0,.33,4.89,24.82,24.82,0,0,0,2.3,7.58,96.88,96.88,0,0,0-10.31.8,99.23,99.23,0,0,1-10.31.79,9.62,9.62,0,0,1-2.38-.2,4.93,4.93,0,0,1-2.37-1.39,2.07,2.07,0,0,1-1.59-.8,2.1,2.1,0,0,0-1.59-.79,1.64,1.64,0,0,1-.39-.06c0-2,.11-3.93.15-5.9h0c0-.16,0-.31,0-.46s0-.28,0-.42c.07-3.58.12-7.18.13-10.78q.09-12.66-.24-25.46l-.06-1.87a1.93,1.93,0,0,0,0-.24c-.27-10.15-.72-20.35-1.34-30.54q-.68-11.15-1.58-22.28c-.22-2.74-.46-5.48-.7-8.22h2.44c3.17,0,11.1,3.17,15.86,7.93s14.27-4.76,4.76-11.1a126.33,126.33,0,0,0-14.28-6.35c-3.17-1.58-6.34-1.58-9.51-1.58C1879.28,843.47,1890.39,834,1901.49,827.61Zm-70.27-112.48.49-.12c10.2,58.85,20,127.4,23.48,194C1842,794.39,1834.71,739.55,1831.22,715.13ZM1557.35,545.32c60.26,0,111,3.18,150.66,6.35-39.65,3.17-90.4,6.34-150.66,6.34s-111-3.17-150.66-6.34C1446.33,546.91,1497.08,545.32,1557.35,545.32Zm-239.47,17.45c41.23,9.51,138,17.44,236.3,17.44,99.91,0,198.23-7.93,239.47-17.44,7.93,19,19,63.43,30.13,120.53-12.69-3.18-42.82-3.18-73-6.35-52.34-4.75-120.53-6.34-195.07-6.34-73,0-142.73,1.59-195.06,6.34-27,1.59-57.1,3.17-69.78,6.35C1302,627.79,1313.12,583.39,1317.88,562.77Zm-304.49,371.1c100.22-36.44,178.61-59.8,231-72.85h0q-1,11.13-1.75,22.29c-49.12,23.38-121.24,53.76-215,87-59.61,21.34-112,38.45-155.75,51.54-36.46,2.38-72.94,6.18-99.64,12.24C819.07,1010,902.08,974.13,1013.39,933.87Zm117.35,431.36a120.46,120.46,0,0,0,33.31-4.76c11.1-3.17,20.61-9.51,28.54-17.44l139.56,390.13c1.59,6.34,6.35,11.1,9.52,15.86,4.76,6.34,9.51,12.69,9.51,17.44,0,1.59-4.75,7.93-31.72,19-27,9.52-36.47,6.35-39.64,4.76-4.76-3.17-4.76-11.1-6.35-19,0-6.34-1.58-11.1-3.17-15.86Zm25.38,520.18c-1.59-6.35-1.59-12.69,1.58-20.62,12.69-25.37,50.75-57.09,93.57-79.3,1.59,7.93,4.76,17.45,14.27,22.21,12.69,7.93,31.72,6.34,58.68-3.17s41.24-20.62,46-33.31c3.18-9.51,0-17.44-4.75-25.37,57.22-10.27,117.15-9.68,134.59,11.82-.94,5.58-1.92,10.63-2.93,15.1h0c-6.1,6.39-18.07,16-41.56,28.56h0c-1.35.24-2.72.5-4.12.77h0c-38.88,7.41-96.86,22.62-122.33,50.27C1244.61,1880.73,1166.48,1895.77,1156.12,1885.41Zm401.23,63.43c-70.58,0-124.5-9.91-160.77-23.39s-54.91-30.53-54.91-44.8c0-22.2,60.26-44.41,125.28-55.51a86.9,86.9,0,0,1-14.27,11.1c-6.35,3.18-14.27,7.93-15.86,19-1.59,7.93,0,14.28,4.76,20.62,20.61,27,101.49,31.72,115.77,31.72a360.53,360.53,0,0,0,56.7-5.75c24.58-4.56,49.56-12.49,59.07-26,4.76-6.34,6.34-14.27,4.76-20.62-3.18-9.51-9.52-14.27-15.86-19-3.17-1.58-9.52-4.75-14.28-11.1,65,11.1,125.29,33.31,125.29,55.51C1773,1909.19,1698.49,1948.84,1557.35,1948.84Zm524.93-92c-7.93,33.3-136.39,33.3-258.5,0q-22.72-6-43.64-12.47c-25.85-20.67-70.07-33.27-104.18-40.39h0c-23.79-11.86-42.58-24-55.47-35.75-3.76-18.61-7.23-45.49-9.93-78h0l7.07-26.85c34.89,33.3,123.7,72.95,231.54,101.5s204.58,38.06,250.57,27Zm306.08-210.92c-15.86,53.92-36.48,71.36-79.3,90.39-9.92,4.54-24,9-40.24,13.14l-.56.14c-46,11.76-108.46,21.28-140,24.78-3.17,0-6.34,0-9.52,1.59h-11.1a21.67,21.67,0,0,1-4.56-2.78,11.17,11.17,0,0,1-3.37-5.15,47.73,47.73,0,0,1-4-12.84c-3.89-21.84.84-54.7,15.07-72.8a24.57,24.57,0,0,1,12.68-9.51c1.59,0,3.17-1.59,4.76-1.59H2141a159.43,159.43,0,0,0,30.13,3.17c22.43,0,46.24-4.66,66.84-10.58l.24-.07.4-.11.23-.06c28.52-8.26,50.73-18.81,54.4-22.48,7.93-7.93,30.14-85.64,42.82-160.18,22.21-118.94,22.21-206.16,0-210.92-4.76-1.59-14.27-4.76-27-7.93h-1.58l-42.82-14.27-7.93-1.59a12,12,0,0,0-1.17-.52,16.79,16.79,0,0,0-5.75-1.06h-1c-3.17,0-4.76-1.58-6.35-3.17h-1.58c-9.52-7.93-14.27-22.2-12.69-41.23a19.37,19.37,0,0,1,.75-4.6,20.13,20.13,0,0,0,.84-4.92v-3.17q.39-1,.81-2.07a.08.08,0,0,0,0,0c2.93-7.5,7.37-18.75,17.1-26.15h0c.85-.65,1.74-1.27,2.68-1.86,1.59-1.59,3.18-1.59,4.76-3.17a5.51,5.51,0,0,0,3.17-1.59h7.93c1.59,0,3.18,1.59,6.35,1.59s4.75,1.58,7.93,1.58l7.93,1.59c3.17,0,4.75,1.59,7.93,1.59,87.22,23.78,134.8,60.26,139.55,111C2451.79,1357.3,2405.8,1585.67,2388.36,1645.94Z"/><path class="cls-1" d="M2119.11,989.8c14.27,6.35,33.3,0,44.4-11.1,9.52-9.51,11.11-23.79,6.35-36.47-1.59-4.76-11.1-3.17-7.93,1.58,3.17,7.93,3.17,19-1.59,25.38-4.76,7.93-15.86,12.69-25.37,12.69H2127s-4.76-1.59-3.17,0C2119.11,980.29,2114.35,986.63,2119.11,989.8Z"/><path class="cls-1" d="M2071.53,977.12c14.27,1.58,28.55-4.76,33.31-19,1.58-4.76-6.35-7.93-7.93-1.59-3.18,9.52-12.69,14.27-23.79,12.69-7.93-1.59-17.45-6.35-15.86-14.28,0-4.75-7.93-4.75-7.93,0C2046.16,967.6,2060.43,975.53,2071.53,977.12Z"/><path class="cls-1" d="M2272.94,1010.42c-6.34,0-6.34,7.93-1.59,7.93,14.28-1.59,23.79-12.69,23.79-27,0-4.76-9.51-4.76-7.93,0C2287.21,1000.91,2282.46,1008.84,2272.94,1010.42Z"/><path class="cls-1" d="M1990.65,950.16c4.76,0,4.76-7.93,0-7.93-6.34,0-14.27,0-19-4.76s-4.76-11.1,0-17.44c3.17-4.76-4.76-7.93-7.93-4.76-6.34,7.93-6.34,17.44,0,25.37C1971.62,948.57,1981.14,950.16,1990.65,950.16Z"/><path class="cls-1" d="M1920.87,918.44c-1.58-7.93,6.35-14.27,14.27-12.69,4.76,1.59,7.93-6.34,1.59-7.93-14.27-4.75-27,7.93-25.37,22.21C1914.53,926.37,1922.46,923.2,1920.87,918.44Z"/><path class="cls-1" d="M2227,954.91c12.69-7.92,27-7.92,41.23,0,4.76,3.18,9.52-4.75,4.76-7.92-15.86-9.52-33.3-9.52-49.16,0C2217.43,950.16,2222.19,958.09,2227,954.91Z"/></svg>