<svg id="Layer_1" data-name="Layer 1" xmlns="http://www.w3.org/2000/svg" viewBox="0 0 5133.3 2314.19"><defs><style>.cls-1{fill:#fff;}</style></defs><path class="cls-1" d="M958.56,1728.65H726.72c0-33.75,2.93-62.14-.5-89.69-15.57-124.9-32.93-249.56-58.18-376.23q-112.34,234-224.66,467.93l-14.46,2.72c-38.47-76.58-77.49-152.86-115.24-229.81-37.64-76.74-74-154.14-118.19-230.6-9.12,67.35-18.6,134.65-27.26,202.06-7.38,57.46-14.76,114.94-20.43,172.58-5.34,54.27-.63,58.94,52.79,66.25,6.17.85,12.16,3,17.92,11.83H0c4-4.57,6.37-9.49,8.53-9.4,48.63,2,62.57-30.58,68.65-71.3q20.29-135.85,40.58-271.71c16.43-110.57,32.51-221.18,49.42-331.67,2.13-13.89,8.33-27.12,12.64-40.66l14.33-4,269.74,560.16L728.42,998.24l13.94,2.47c4.77,17.08,11.46,33.87,14,51.29q40.22,271.77,79.29,543.73c14.5,99.81,14.5,99.76,106.85,122.17C946,1718.75,949,1722.1,958.56,1728.65Z"/><path class="cls-1" d="M1635.19,1398.85c-.3,150.45-83.2,269-219.74,314.23-146.7,48.59-308.19,8.07-388.88-101.31-77.5-105.07-88.19-220.17-35-338,53.11-117.68,153.41-170.84,279.59-178.75a483.61,483.61,0,0,1,125.86,8.76C1549.63,1135,1635.5,1243.38,1635.19,1398.85Zm-562.68-14.44c2.25,91.07,22.62,175.49,90.44,241.37,61.6,59.84,137.27,80.37,220.52,56.54,76.06-21.77,114.72-81.15,124.45-153.73A766.52,766.52,0,0,0,1510,1343c-7.09-63.12-39.31-118.14-90.29-160.11-127.27-104.76-304.6-44.06-336.45,115.67C1077.62,1326.8,1076,1355.78,1072.51,1384.41Z"/><path class="cls-1" d="M2871.83,1558.48c0-126.44,1.27-252.44-.67-378.39-.71-46.09-13.25-54.73-60-59.08-6.53-.6-12.91-2.72-19.12-10.25H3005c-1.36,2.35-2.39,6.86-4.49,7.4-58.41,15.23-61.14,17.84-62.28,79.58-3,163.14-5.37,326.29-8.3,489.43-.26,14.33-2.77,28.62-10.26,46.21-160.36-147.19-315.2-297.56-471-462.73,0,18.74-.24,28.94,0,39.11q3.78,144,7.72,288c2.42,88.61,2.44,88.61,81.31,119.35H2311.88c9.67-5.52,14-10.26,18-10,49.5,3.81,56.72-22.64,57.42-63.36q4.24-248.19,8.33-496.38c.31-17,2.88-33.92,4.4-50.88l9.17-4.91Z"/><path class="cls-1" d="M4447.77,1724.16c67.12-25.06,67.64-25.05,69-99.18,2.85-157.35,5-314.72,7.78-472.08.3-16.77,3.14-33.5,4.81-50.25l9.15-4.11,470.61,475c0-19,.21-30,0-40.94-2.18-96-4-192.06-7-288.06-.92-29.91,3.2-64.15-10.18-88.21-11-19.76-44.49-27.37-66.58-39.58h208c-.82,2.71-1.09,6.26-2.06,6.46-60.76,12.28-61.77,10.82-63.84,85.59-4.47,161.94-5.77,324-8.71,486-.26,14.13-3,28.22-4.23,38.66l-474.58-448.14c-.91,8.61-2.72,16.89-2.51,25.12,2.72,106.43,5.4,212.86,8.76,319.27,2.12,67.29,6.7,71.94,73.12,84.84,2.82.54,5.16,3.49,13.85,9.69Z"/><path class="cls-1" d="M1636.23,1102.21H1890c-5.32,4.86-8.12,9.7-11.07,9.79-46.39,1.33-57.11,11.43-57.16,68-.1,116.8-2.71,234,5.76,350.29,9.28,127.23,128.06,189.4,240.2,133,46.06-23.16,72.84-62.68,74.73-110.58,5.21-131.66,5.37-263.53,6.24-395.33.17-27.17-17.57-41.38-45.38-43.11-9.52-.59-18.93-2.84-27.68-11.86H2294c-6.59,5.25-9.31,9.17-12.7,9.85-53.18,10.77-56.34,12.65-57.45,67.62-1.88,93.72-1.76,187.48-2.51,281.22-.06,8.1-.12,16.21-.55,24.3-11,204.83-226.1,314-404,204.87-80.4-49.34-98.66-129-101.31-213.4-3-96-1.17-192.11-2-288.17-.58-64.56-1.06-64.5-67.35-75.71-3.85-.65-7.29-3.66-10.93-5.57C1635.54,1105.7,1635.88,1104,1636.23,1102.21Z"/><path class="cls-1" d="M4131.85,1733.38h-203c0-17.93,4.11-35-.75-49.06-15.52-44.81-33.07-89.07-52.86-132.2-4.81-10.47-20.9-21.82-32.34-22.39-49.25-2.46-98.76-2.26-148-.09-10.69.47-26,10.81-30.33,20.46-17.15,37.94-32.07,77-45.39,116.44-14.14,41.87-8.52,48.83,36.36,55.55,4,.61,7.8,3.08,11.05,10.2H3456.46c5.66-5,8.66-9.84,11.47-9.74,51.71,2,74.52-30.36,91.49-71.85Q3660,1404.63,3761.87,1159c7.24-17.49,16.56-34.15,29.67-60.9,12.8,24.94,21.46,39.36,27.87,54.69q95.1,227.7,189.56,455.66c1.33,3.21,2.59,6.46,4.05,9.61,24.44,52.44,42.21,112,123.33,104.36ZM3689,1486.06h161.6c-26.51-71.24-51.54-138.53-79.94-214.84Z"/><path class="cls-1" d="M3578.45,1117.82v119.67c-17.6-72.45-76.13-65-127.93-67.88-27.84-1.55-55.84-.28-85.62-.28-1.18,8.36-3.25,16.08-3.21,23.79q1,224,2.46,448.06c.32,65.51,8,85.39,72.46,81.66,3.63-.21,7.48,3.24,10.25,10.54H3191.53c.65-2.79.66-6.38,1.66-6.67,56.8-16.62,60.55-16.51,61.78-75.74,3.1-149.3,2.51-298.67,3.39-448,.06-10.29,0-20.58,0-37.84-60.58,3.92-119.19,3.79-176.06,13.53-19.92,3.4-35.56,31.06-60,54.12l20.18-114.94Z"/><path class="cls-1" d="M4381.87,1733.38H4125.18c2.82-5,3.88-9.78,6-10.29,55.85-13.44,59.08-15.43,59.5-72.89,1.06-148,1-296,.67-444-.15-59.43-1.7-60.15-59.87-72.2-2.84-.59-5.2-3.45-13.91-9.54h243.7c-1.45,3.75-1.83,7.23-3.06,7.55-60.37,15.46-61.21,15.43-61.36,78.61q-.53,216.81.61,433.61c.41,67.7,2.59,68.91,69.44,76.67,5.24.61,10.24,3.11,15.36,4.72Z"/><path class="cls-1" d="M2806.17,427.58c-.41,152.79-79.59,273.07-210,319-139.95,49.26-294,7.92-371-103.3-73.91-106.81-83.89-223.77-33.06-343.4s146.57-173.37,267-181.29a433.91,433.91,0,0,1,120.09,9C2724.82,159.53,2806.59,269.6,2806.17,427.58ZM2697.56,473c-3.49-109.78-23-200-98.07-265.78C2485.13,107,2321.55,157.74,2283.8,306.11c-21.87,86-20.33,173.37,13.24,255.71,15.41,37.81,38.73,75.54,67.27,103.4,118.77,115.91,284.77,61.22,321-103.87C2692.52,528.37,2694.72,494.18,2697.56,473Z"/><path class="cls-1" d="M3397.54,589.46c0-128.4,1.28-256.37-.67-384.3-.72-46.85-13.43-55.71-60.47-60.09-6.61-.62-13.08-2.75-19.34-10.38h214.72c-1.26,2.26-2.27,6.86-4.38,7.42-59.05,15.69-61.75,18.27-62.9,80.8-3,165.72-5.42,331.46-8.38,497.18-.26,14.56-2.78,29.08-10.29,47C3283.46,617.36,3127.1,463.9,2971.68,298.63c0,34.53-.53,61,.1,87.44,1.94,81.08,4.32,162.16,6.54,243.24,2.47,90.46,2.48,90.46,81.91,121.27H2831c12.56-5.77,17.68-9.7,23.24-10.44,47-6.25,53.26-12.09,54.27-63.89,3.28-168.07,5.56-336.16,8.56-504.23.31-17.27,2.88-34.5,4.4-51.74l9.25-5.06Z"/><path class="cls-1" d="M3781.44,451.9c0,75.87-1,147.39.45,218.85.6,30.19,19.82,47.62,50.2,49,31.93,1.49,64,1.73,96,.17,34.49-1.68,57.31-19.57,65.66-54,2-8.16,5.73-15.9,8.66-23.83l12,2.17c-5.15,36-8.89,72.3-16.67,107.73-1.53,7-18.66,15.08-28.56,15-118.56-.61-237.11-2.64-355.66-4.5-1.55,0-3.07-2.64-4.52-4,1-2.29,1.61-5.74,2.91-6,55.68-12.85,60.67-17,61.15-78,1.17-151.74,1-303.49.64-455.23-.13-52.25-7.42-58.74-61.6-64.67-5.51-.61-10.84-2.7-16.26-4.1l.24-8.92h395.15c-3.3,33.94-7.09,72.86-11.11,114.15-6.47-3.29-11.32-4.2-11.91-6.29-15.92-56-23.17-62.35-82.56-64.45-33.07-1.17-66.22-.21-102.23-.21V410.38c64.13-6.59,129.46,13.63,195.18-24.07-4,47-7.65,90.64-11.34,134.26l-9.92,6.88c-1.39-88.28-62.65-74.06-114.58-75.46C3823.82,451.48,3804.92,451.9,3781.44,451.9Z"/><path class="cls-1" d="M2133.6,141.48V263c-17.12-71.71-74.27-66-125.74-68.7-29.27-1.51-58.67-.27-90-.27-1,9.85-2.83,18.9-2.79,27.94.77,151.72,1.18,303.44,3,455.15.82,69.33,2.09,69.24,69.51,78.58,5.11.71,9.92,3.51,13.58,11.36H1743.27c.92-3.37,1-6.94,2.1-7.23,57-15.85,61.12-15.76,62-77.07,2.36-162.08.8-324.21.8-492.61-57.63,3.33-115.77,2.39-172,12.14-21.31,3.7-38.28,32-63.58,54.89,7.73-43.61,14.61-82.41,20.51-115.71Z"/><path class="cls-1" d="M1498.6,168.09c-3-7.37-6.94-14.52-8.91-22.17-22.14-85.73-92.87-125.83-178.59-101-67,19.44-97.36,94.71-55.37,152.09,26.07,35.63,63.71,63.15,97.17,93.2,36.75,33,77.25,62.23,111.51,97.51,67.63,69.64,89.81,153.37,55.53,245-33.49,89.53-109.68,128.61-199.48,133.81-56.71,3.28-114.66-10.26-171.6-19.1-10.92-1.69-27.75-16.26-28.22-25.56-2.7-53.85-1.32-107.89-1.32-161.87l19.17-1.58c2.66,10.4,6.15,20.66,7.85,31.2,15.9,98.9,88.71,149,187,128.52,85.8-17.91,124.9-108,75.26-184.69-22.41-34.61-56.65-62.18-87.56-90.77-31.06-28.74-66.71-52.78-96.5-82.65-23.62-23.68-45.5-50.94-61.09-80.3-63.06-118.79-6.33-249,126.12-274.28,63.4-12.1,131.64-1,197.46,3.09,9.67.61,25.33,20.6,25.78,32.11,1.69,42.23-1.87,84.67-3.46,127Z"/><path class="cls-1" d="M4778.77,2256c-13.67,37.33-45.46,51.94-82.62,56.56-11.64,1.47-24.39,2.95-35.3-.19-15.34-4.25-30.68-5.54-46-5.91l-1.11-58.78V2226.2c2-.37,4.07-.56,6.1-.74,1.11,4.8,2.59,9.61,3.33,14.6,6.84,40.66,41,62.1,81.14,51,34.38-9.61,48.43-46.2,27.17-77.44-9.62-14.23-23.85-25.5-36.78-37.34-14.23-13.12-31.61-23.65-43.44-38.62-12.57-15.53-23.84-34-29-52.87-11.27-40.66,14.6-78.18,58.41-90,28.65-7.76,57.3-5.92,85.76,1.48,3.51.93,9,4.07,9,6.29.74,20,.38,40.1.38,60.25-1.85,0-3.89.19-5.92.19-1.29-3.52-3.14-7-4.06-10.73-9.43-36.59-45.66-53.78-80.4-38.07-24.41,10.91-33.09,39.74-16.08,61.92,10.9,14.23,25.87,25.32,39.36,37.33,15.34,13.68,32.17,25.88,46.58,40.67C4783.58,2183,4792.83,2217.7,4778.77,2256Z"/><path class="cls-1" d="M4521.55,2305.86c-26.43.55-44.36-10.91-58.77-26.81-6.48-7.2-12.95-14.6-19.41-22-16.08-18.85-32-38.08-48.06-57.12-8.51-10-16.45-20.51-22.73-28.46,15.34-19.22,31.24-34.75,41.59-53.41,27.72-49.91,2.77-100.74-53.42-112.2a119.93,119.93,0,0,0-22.92-2.58q-66.26-.55-132.9-.56c-2.4,0-5,1.3-11.64,3,6.65,2.4,9.06,3.88,11.46,4.25,29.57,4.07,31.79,5.91,31.79,34.75.19,73.38.37,147.12-.18,220.5v2.59c-.19,31-2.22,32.53-30.87,40.48-.74.18-.74,2-1.3,3.69h123.28c-3.69-4.43-7.76-6.09-12-5.91-17.37.37-26.61-7.58-26.61-25.14v-93.71c27.54-6.46,48-.37,63.4,25.88,9.61,16.26,21.25,31.24,33.26,46.21,5.18,6.83,10.72,13.49,15.9,20.33,18.12,23.29,41.22,35.12,71.9,34.56,16.45-.37,32.9-1.48,49.35-1.29ZM4295,2162.05c-3.7-.92-7.95-9.24-8.13-14.23-.93-18.66-.37-37.52-.37-56.18,0-17.56.74-35.12-.37-52.5-.74-13.49,5.36-17,17.55-17.74,36.05-1.85,64,18.67,70.05,55.26,2.41,15.16,2.22,31.79-1.29,46.77C4361.86,2167.78,4334.5,2170.74,4295,2162.05Z"/><path class="cls-1" d="M4117.8,2312.89c-2.22-2.77-2.77-4.06-3.51-4.43a12.75,12.75,0,0,0-5.17-.92c-20.71.73-32.73-11.1-41-27.92l-1.11-2.21c-4.44-9.25-9.06-18.67-12.94-28.1q-47.42-114.51-94.63-228.82c-3.33-8-7.58-15.52-11.27-23.1h-5.74c-4.06,8.13-8.68,16.26-12,24.58q-49.62,121.15-99.25,242.13A146.38,146.38,0,0,1,3820,2287a53.36,53.36,0,0,1-3.14,5.36c-6.84,10.71-17,15.53-29.94,14.42v7.39h95.18c-1.29-4.62-3-6.1-5-6.28-20.88-3.7-25.13-6.48-20.7-22.37.56-2,1.3-4.44,2.22-7A523.71,523.71,0,0,1,3881,2221.4c2.41-5.36,10.53-10.72,16.45-11.09,23.66-1.11,47.32.19,71-.74,11.46-.37,16.82,4.07,20.52,14.42,6.65,18.85,14.6,37,21.43,55.63.93,2.78,2,5.55,3,8.32,2.4,7.21.37,15.71.37,24.95Zm-224.2-125.12c13.5-35.49,26.43-69.5,41-108.13,14,38.26,26.62,72.08,39.93,108.13Z"/><path class="cls-1" d="M3690.74,2288.31c-.55,5.91-.93,12-1.48,18.3.55,0,1.11.19,1.48.19v7.39H3481.52c1.47-3.33,1.66-5,2.4-5.18,27.72-6.47,30.12-8.5,30.49-38.81.55-76.15.37-152.3.19-228.45,0-23.85-3.7-27-28.65-30.68-2.77-.37-5.17-1.48-7.58-5.36h126.8a19.42,19.42,0,0,0,.92,2.4c-3.88,1.11-7.39,2.77-11.27,3.14-22,2.59-26.25,6.28-26.62,28.46-.56,41.59-.74,83.37-.37,124.76.37,34.57,1.66,69.13,2.58,103.51.56,14.42,9.24,22,22.37,22.73,20.52,1.48,41.22,2.4,61.74.74,22.91-1.66,29-21.07,33.63-40.29a44.22,44.22,0,0,0,5.36,1.3C3692.59,2264.28,3691.66,2276.11,3690.74,2288.31Z"/><path class="cls-1" d="M647.46,1928.53c38,90.76,75.94,181.52,115.7,276.54,4-11.32,6.72-18.38,8.9-25.62q27.62-91.9,55.06-183.86c1.42-4.77,3-9.51,4.29-14.3,10-35.91,9.47-36.84-24.3-50.92H916c-41.66,4.19-42,40.62-51.49,67.3-33.12,93.1-64,187-95.9,280.52-4,11.82-8.78,23.4-17.74,35.83-45.36-89.52-80.51-182.45-122-276.72-38.92,94.49-69,188.7-113.16,276.89l-7.1-.73c-4-9.46-8.61-18.72-11.89-28.43-33.48-99-66.45-198.18-100.27-297.08-8.4-24.57-11.75-54.76-48.44-58H483.2c-6.57,3.74-9,6.3-11.58,6.4-16.8.64-18.43,9.93-14.56,23.27,16.84,58,33.37,116.11,50.35,174.08,6.78,23.12,14.43,46,26.17,70.18L637.89,1928Z"/><path class="cls-1" d="M1277.78,2306c33.8-14.14,34-14.13,34.78-54.66,1.39-77.87,2.41-155.75,3.76-233.62.15-8.59,1.44-17.16,2.21-25.74l4.61-2.49,236,239.64c.4-7.73,1-12.64.86-17.52-1.08-50.94-2.43-101.87-3.38-152.8-.83-45.09-.65-45.09-41-59.66h107.07c-.68,1.19-1.2,3.47-2.26,3.75-29.37,7.71-30.74,9-31.31,40.27-1.52,82.55-2.71,165.11-4.18,247.66a60.09,60.09,0,0,1-5.16,23.39c-80.63-74.49-158.49-150.58-236.85-234.16,0,9.49-.11,14.64,0,19.79q1.9,72.88,3.88,145.76c1.22,44.85,1.23,44.85,40.88,60.39Z"/><path class="cls-1" d="M2663.31,2033.65c-2.07-5.79-4.47-9.93-5-14.28-3.62-31.89-22.09-51.57-51.61-62a203.14,203.14,0,0,0-118.67-5.79c-32.34,8-55.69,28.5-71.81,57.13-35.38,62.85-27.5,160.4,18.56,215.88,47.92,57.73,109.65,69.9,176.46,54.14,22.8-5.38,38.88-20.65,47.85-42.59,2.87-7,6-14,9-21l6.89,1c-1.64,14.47-2.73,29-5,43.4-6.57,41.37-10.74,45-52.69,50.34-62.9,8-124.89,6.6-183.56-20.56-81-37.5-120.89-115.47-107.66-208.11,11.48-80.4,75.88-142.61,160.77-156,59.15-9.31,117.37-2.29,175.36,8.84,4.33.84,11.08,6.64,11,10-.68,27.67-2.65,55.31-4.49,82.95C2668.59,2028.7,2666.25,2030.17,2663.31,2033.65Z"/><path class="cls-1" d="M1766.8,2306.77c40.76.79,35.26-27.16,35.45-50.2.6-70.31.45-140.63.21-211-.12-31.66-1.18-32.33-33.24-37.06-2-.3-3.9-1.62-5.52-6.4h197c-1.78,17.42-3.74,36.7-5.76,56.47-3.19-1-5-1.15-5.18-1.74-8.32-28.83-12-31.85-42.49-33-14.77-.55-29.56-.49-44.33-.59-1.67,0-3.35.72-6.17,1.38V2135.2c32-1.21,64.75,7,97.39-10.26-1.84,22.65-3.59,44.29-5.39,66.43-3.09-.93-4.84-1-5-1.59-10.34-32.12-10.33-32.19-45.44-32.71-13.48-.21-26.95,0-41.92,0,0,37.92-.58,74.62.3,111.28.33,13.48,10.17,21.21,23.53,21.86a450.92,450.92,0,0,0,51.34-.07c15.67-1,26-10.08,30-25.54,1.14-4.37,2.71-8.62,4.09-12.92l6.55.92c-3,18.68-5.58,37.46-9.53,56-.56,2.61-7.84,5.4-12,5.42-60.17.35-120.34.24-180.52.24Z"/><path class="cls-1" d="M2797.54,2308.74c32-9.95,33.43-11.19,33.64-45.71q.68-109,.21-218c-.09-30.59-1.38-31.49-32.29-36.13-2.44-.37-4.7-1.91-6.46-7.08h197.07c-1.83,17.66-3.84,37.12-5.86,56.59l-4.91,3c-1.5-41-30.35-36.79-55.94-37.66-11.78-.41-23.59-.07-36.91-.07V2136.2c31.7-2.75,64.17,6.73,97-11.42-1.88,23.09-3.65,44.86-5.42,66.62-7.51-38.8-36.85-34.31-63.66-34.28-8.83,0-17.67,0-29.48,0,0,14.47,0,28.24,0,42,0,19.34-.25,38.68.1,58,.46,25.11,7.65,32.54,32.46,34,8.25.49,16.54.57,24.81.37,35.74-.84,38.05-2.54,51.1-36a30.35,30.35,0,0,1,2.48-4.25l5.7,1.61c-2.82,18.4-5.09,36.92-9,55.09-.64,3-8.73,6.2-13.36,6.17-59.09-.37-118.18-1.3-177.27-2.18C2800.72,2312,2799.92,2310.74,2797.54,2308.74Z"/><path class="cls-1" d="M3136,2002.76h126.68l.86,3.22c-3.72,1.1-7.37,2.76-11.17,3.2-22.05,2.54-26.4,6.34-26.63,28.51q-.81,78.12-.41,156.26c.11,23.35,1.62,46.7,2.27,70.06.47,16.74,10.64,24.52,25.8,25.47a458.16,458.16,0,0,0,56.56.42c16.23-1,26.85-10.89,31.73-26.44,1.47-4.67,3-9.32,4.5-14l6.14,1.14c-2.75,18.47-4.06,37.35-9.24,55.12-1.38,4.71-14.69,8.42-22.53,8.44-36.59.1-73.18-1.44-109.79-2-23.51-.36-47-.06-73.19-.06,3.08-3.33,4.18-5.69,5.74-6,25.37-5.63,27.91-7.57,28.4-34.8.92-50.9.81-101.82,1-152.74q.1-38.61-.44-77.24c-.39-25.57-3.3-28.52-28.93-32.21-2.62-.38-5.12-1.65-7.67-2.51Z"/><path class="cls-1" d="M1144.4,2314.19H1013.8c3.2-3,4.47-5.27,6.14-5.61,25.58-5.19,27.91-6.59,28.12-32.81.63-79,.37-158,.45-237,0-16.38-6.13-27.15-24.67-27.17-3.12,0-6.24-1.65-9-5.47H1134c-.62,1.75-.78,3.53-1.38,3.69-30.43,8.13-30.86,8.11-30.93,39.75q-.23,110.58.35,221.17c.19,32.35,1.7,33.36,34.77,37.14,2.65.3,5.2,1.53,7.8,2.33Z"/></svg>