<svg id="Layer_1" data-name="Layer 1" xmlns="http://www.w3.org/2000/svg" viewBox="0 0 5528.69 2291.05"><defs><style>.cls-1{fill:#fff;}</style></defs><path class="cls-1" d="M1674.77,1864.18h-52.38a13.42,13.42,0,0,0-15,11.69,13.67,13.67,0,0,0,0,3.26v231a13.54,13.54,0,0,0,11.83,15,13.11,13.11,0,0,0,3.13,0h13.42a13.42,13.42,0,0,0,14.86-11.8,13.67,13.67,0,0,0,0-3.26v-89h22l29.08,91.59a15.88,15.88,0,0,0,16.72,12.47h13.07A11.77,11.77,0,0,0,1744,2108l-31.91-93.48a48.49,48.49,0,0,0,28.49-48.62v-46.5C1740.58,1879.84,1714.45,1864.18,1674.77,1864.18Zm22.49,95.71c0,18.6-9.65,23.54-23.55,23.54H1651v-81.82h22.72c14.25,0,23.55,5.3,23.55,23.55Z"/><path class="cls-1" d="M1933.19,1864.21a14.11,14.11,0,0,0-2.6,0h-13.42a13.28,13.28,0,0,0-14.83,15v231a13.42,13.42,0,0,0,11.57,15,13.17,13.17,0,0,0,3.26,0h13.42a13.65,13.65,0,0,0,15.07-15.06v-98.42h49v98.42a13.54,13.54,0,0,0,11.83,15,13,13,0,0,0,3.12,0H2023a13.41,13.41,0,0,0,14.86-11.8,13.17,13.17,0,0,0,0-3.26v-231a13.3,13.3,0,0,0-14.84-15h-13.42a13.42,13.42,0,0,0-14.95,11.69,13.67,13.67,0,0,0,0,3.26v94.18h-49.44v-94.18A13.55,13.55,0,0,0,1933.19,1864.21Z"/><path class="cls-1" d="M2176.4,2128.12c39.32,0,65.46-15.66,65.46-55.22v-156c0-39.67-26.14-55.21-65.46-55.21h-3.06c-39.56,0-65.69,15.18-65.69,55.21v156.46c0,39.55,26.13,55.21,65.69,55.21Zm-25.55-61.81V1923c0-18.6,9.89-23.54,23.55-23.54s23.54,5.18,23.54,23.54v143.27c0,18.6-9.65,23.55-23.54,23.55S2150.85,2084.91,2150.85,2066.31Z"/><path class="cls-1" d="M1533.59,1864.2a13.25,13.25,0,0,0-3.27,0h-84.76a13.31,13.31,0,0,0-14.83,15v231a13.42,13.42,0,0,0,11.57,15,13.17,13.17,0,0,0,3.26,0h85.82a13.54,13.54,0,0,0,15-11.94,14.15,14.15,0,0,0,0-3.12V2102a13.43,13.43,0,0,0-11.7-14.95,13.67,13.67,0,0,0-3.26,0h-57.33v-75.34h44.74a13.19,13.19,0,0,0,14.73-11.44,13.34,13.34,0,0,0,0-3.4v-8.24a13.19,13.19,0,0,0-11.31-14.82,13.34,13.34,0,0,0-3.4,0h-44.74v-71.69h56.27a13.18,13.18,0,0,0,14.73-11.44,12.9,12.9,0,0,0,0-3.4v-8.12A13.31,13.31,0,0,0,1533.59,1864.2Z"/><path class="cls-1" d="M4658.16,2244H870.59a23.55,23.55,0,0,0,0,47.09H4658.16a23.55,23.55,0,1,0,0-47.09Z"/><path class="cls-1" d="M1145.09,1864.18a13.67,13.67,0,0,0-3.26,0h-13.54a13.3,13.3,0,0,0-14.74,11.69,13.68,13.68,0,0,0,0,3.26v231a13.41,13.41,0,0,0,11.59,15,13.56,13.56,0,0,0,3.12,0h13.54a13.5,13.5,0,0,0,15-15.06v-231A13.41,13.41,0,0,0,1145.09,1864.18Z"/><path class="cls-1" d="M1240.77,2125.14a13.65,13.65,0,0,0,3.13,0h51.8c39.67,0,65.69-15.65,65.69-55.21V1919.39c0-39.55-26-55.21-65.69-55.21h-51.8a13.32,13.32,0,0,0-14.72,15v231A13.42,13.42,0,0,0,1240.77,2125.14Zm31.38-223h21.78c14.37,0,23.55,5.29,23.55,23.54v137.15c0,18.6-9.66,23.55-23.55,23.55h-21.78Z"/><path class="cls-1" d="M1012.86,1964a13.56,13.56,0,0,0,3.12,0h13.31a13.42,13.42,0,0,0,15-11.56,13.73,13.73,0,0,0,0-3.39v-32.14c0-38.73-26.14-55.21-65.81-55.21H978c-39.56,0-65.69,16.48-65.69,55.21v156.46c0,40.61,26.13,55.21,65.69,55.21h.59c39.67,0,65.81-15,65.81-55.21v-39.21a13.3,13.3,0,0,0-15.07-14.71H1016.1a13.3,13.3,0,0,0-15.07,14.71v32.61c0,18.13-8.94,23.55-22.6,23.55s-23.55-5.53-23.55-23.55V1923c0-18.13,9-23.54,23.55-23.54s22.6,5.65,22.6,23.54v26.14A13.42,13.42,0,0,0,1012.86,1964Z"/><path class="cls-1" d="M4195.15,1902.09a13.44,13.44,0,0,0,15.05-11.58,13.67,13.67,0,0,0,0-3.26v-8.12a13.42,13.42,0,0,0-11.67-15,13.82,13.82,0,0,0-3.4,0h-84.52a13.42,13.42,0,0,0-15,11.69,13.67,13.67,0,0,0,0,3.26v231a13.54,13.54,0,0,0,11.83,15,13.11,13.11,0,0,0,3.13,0h85.46a13.41,13.41,0,0,0,14.86-11.8,13.17,13.17,0,0,0,0-3.26V2102a13.43,13.43,0,0,0-11.71-14.94,13.65,13.65,0,0,0-3.13,0h-57.56v-75.34h44.73a13.3,13.3,0,0,0,14.95-14.84v-8.24a13.31,13.31,0,0,0-14.95-14.83h-44.73v-71.69Z"/><path class="cls-1" d="M3908.84,2125.17h51.8c39.68,0,65.69-15.65,65.69-55.21V1919.39c0-39.55-26-55.21-65.69-55.21h-51.8a13.42,13.42,0,0,0-15,11.69,13.67,13.67,0,0,0,0,3.26v231a13.54,13.54,0,0,0,11.83,15A13,13,0,0,0,3908.84,2125.17Zm28.26-223.08h22c14.13,0,23.55,5.29,23.55,23.54v137.15c0,18.6-9.89,23.55-23.55,23.55h-22Z"/><path class="cls-1" d="M3703.41,2125.17h11.42a14.94,14.94,0,0,0,16-13.82,1.09,1.09,0,0,0,0-.18l7.07-44.27h47.79l7.07,44.27a14.82,14.82,0,0,0,15.59,14,3,3,0,0,0,.42,0h13.77a11.76,11.76,0,0,0,13.42-16.12l-43.67-231.33a15.07,15.07,0,0,0-16.46-13.54h-27.1a15.07,15.07,0,0,0-16.48,13.51v0l-42.38,231.33a11.76,11.76,0,0,0,13.53,16.12Zm58.51-210,18.25,116h-36.38Z"/><path class="cls-1" d="M4339.84,1864.18h-52.39a13.3,13.3,0,0,0-14.95,11.42,13,13,0,0,0,0,3.53v231a13.4,13.4,0,0,0,14.95,15.06h13.3a13.65,13.65,0,0,0,15-12.21,12.93,12.93,0,0,0,0-2.85v-89h21.66l29,91.59a16.13,16.13,0,0,0,16.84,12.47h13.07A11.77,11.77,0,0,0,4408,2108l-31.67-93.48a48.15,48.15,0,0,0,29.31-48.62v-46.5C4405.64,1879.84,4379.51,1864.18,4339.84,1864.18Zm22.48,95.71c0,18.6-9.77,23.54-23.54,23.54h-22.72v-81.82h22.72c14.12,0,23.54,5.3,23.54,23.55Z"/><path class="cls-1" d="M2342.12,1864.18a13.67,13.67,0,0,0-3.26,0h-13.54a13.3,13.3,0,0,0-14.74,11.69,13.68,13.68,0,0,0,0,3.26V2072.9c0,40.62,25.19,55.22,64.86,55.22h1.42c39.43,0,64.86-14.95,64.86-55.22V1879.13a13.41,13.41,0,0,0-11.69-15,13.67,13.67,0,0,0-3.26,0h-13.42a13.28,13.28,0,0,0-14.83,15v187.18c0,18.6-8.36,23.55-22.49,23.55s-22.25-5.06-22.25-23.55V1879.13A13.41,13.41,0,0,0,2342.12,1864.18Z"/><path class="cls-1" d="M4658.16,1697.24H870.59a23.55,23.55,0,0,0,0,47.09H4658.16a23.55,23.55,0,1,0,0-47.09Z"/><path class="cls-1" d="M4595.42,1880.9c3.29-10.13-1.42-16.72-12.36-16.72h-13.78a15.3,15.3,0,0,0-16.48,13.07l-26,108.07-26.13-108.07a15,15,0,0,0-16.25-13.07h-14.6c-10.94,0-15.65,6.59-12.47,16.72l47.09,151.27v77.94a13.42,13.42,0,0,0,11.45,15.13,13.68,13.68,0,0,0,4.09-.07h13.42a13.54,13.54,0,0,0,14.95-15.06v-77.94Z"/><path class="cls-1" d="M2804.08,1864.2a13.25,13.25,0,0,0-3.27,0h-84.76a13.29,13.29,0,0,0-14.84,11.55,12.9,12.9,0,0,0,0,3.4v231a13.42,13.42,0,0,0,11.57,15,13.17,13.17,0,0,0,3.26,0h85.82a13.54,13.54,0,0,0,15-11.94,14.15,14.15,0,0,0,0-3.12V2102a13.43,13.43,0,0,0-11.7-14.95,13.67,13.67,0,0,0-3.26,0h-57.45v-75.34h44.86A13.31,13.31,0,0,0,2804,2000a13.65,13.65,0,0,0,0-3.13v-8.24a13.3,13.3,0,0,0-11.58-14.82,13.65,13.65,0,0,0-3.13,0h-44.86v-71.69h56.39a13.18,13.18,0,0,0,14.73-11.44,12.9,12.9,0,0,0,0-3.4v-8.12A13.31,13.31,0,0,0,2804.08,1864.2Z"/><path class="cls-1" d="M2592.91,1942.58a13.19,13.19,0,0,0,11.45,14.72,13.76,13.76,0,0,0,3.27,0h12.95a13.19,13.19,0,0,0,14.71-11.45,12.78,12.78,0,0,0,0-3.27v-27.66c0-38.73-28.25-53.68-64-53.68h-.82c-35.32,0-64,15-64,53.68v34.26c0,27.19,14.6,39.2,39.91,53.68l30.14,17.19a26.36,26.36,0,0,1,17.07,27.19v20.48a22.37,22.37,0,1,1-44.73,0v-24.6a13.3,13.3,0,0,0-11.46-14.92,12.71,12.71,0,0,0-3.26,0h-12.6a13.31,13.31,0,0,0-14.83,14.95v30.61c0,40.5,24.84,54.39,64.51,54.39h.36c39.55,0,64.63-14.13,64.63-54.39v-37.67c0-28-14.95-39.56-40-53.69l-30.37-17.18a26.37,26.37,0,0,1-16.95-26.49v-17.78a22.13,22.13,0,0,1,44.14-3.22,21.63,21.63,0,0,1,0,3.22Z"/><path class="cls-1" d="M2965.87,2017.69v58.16c0,31.31,16.48,52.27,55.8,52.27h2.59c24.6,0,40.49-7.07,50.5-21.66l5.77,9.06a20.12,20.12,0,0,0,18,9.65H3108c11.77,0,15.89-7.53,9.18-18l-26.49-40.73,18.84-67a11.77,11.77,0,0,0-12.83-16.71h-8.83a16,16,0,0,0-16.95,12.71l-7.66,28.26-34.72-52.86c-15-22.72-16-26.84-16-40.74v-10a22.37,22.37,0,0,1,44.74,0v15a13.19,13.19,0,0,0,11.43,14.73,12.9,12.9,0,0,0,3.4,0h11.78a13.17,13.17,0,0,0,14.71-11.45,12.7,12.7,0,0,0,0-3.26v-20.13c0-38.73-24.13-53.68-63.57-53.68h-.82c-39.56,0-63.81,15-63.81,53.68v16a77.43,77.43,0,0,0,13.18,44.85A51.55,51.55,0,0,0,2965.87,2017.69Zm42.49-5.18a35.61,35.61,0,0,1,0-5.06l41.56,62c-4.47,15-8.36,22.84-23.54,22.84s-18.84-7.89-18.84-26Z"/><path class="cls-1" d="M3628.62,1864.2a13.17,13.17,0,0,0-3.26,0H3540.6a13.28,13.28,0,0,0-14.83,15v231a13.42,13.42,0,0,0,11.57,15,13.17,13.17,0,0,0,3.26,0h85.82a13.53,13.53,0,0,0,15-11.94,13,13,0,0,0,0-3.12V2102a13.42,13.42,0,0,0-11.69-14.95,13.67,13.67,0,0,0-3.26,0h-57.33v-75.34h44.73a13.18,13.18,0,0,0,14.73-11.44,12.9,12.9,0,0,0,0-3.4v-8.24a13.19,13.19,0,0,0-11.32-14.82,13.34,13.34,0,0,0-3.4,0h-44.73v-71.69h56.27a13.18,13.18,0,0,0,14.73-11.44,13.34,13.34,0,0,0,0-3.4v-8.12A13.31,13.31,0,0,0,3628.62,1864.2Z"/><path class="cls-1" d="M3443,1864.18a13.67,13.67,0,0,0-3.26,0H3425A16.36,16.36,0,0,0,3408,1876l-46.38,139.5L3315.39,1876a16,16,0,0,0-16.95-11.77h-13.3a13.41,13.41,0,0,0-14.95,11.69,12.7,12.7,0,0,0,0,3.26v231a13.52,13.52,0,0,0,11.82,15,13.11,13.11,0,0,0,3.13,0h10.36a13.54,13.54,0,0,0,14.95-15.06V1965.66l35.31,109.13a15.42,15.42,0,0,0,16.25,11.77,15.19,15.19,0,0,0,16.13-11.77l35.32-109.13v144.45a13.42,13.42,0,0,0,11.61,15,13.11,13.11,0,0,0,2.87.05h11.77a13.54,13.54,0,0,0,14.95-15.06v-231A13.41,13.41,0,0,0,3443,1864.18Z"/><path class="cls-1" d="M843.08,1362.34a35.91,35.91,0,0,0,23.63,45,35.39,35.39,0,0,0,10.95,1.76,36.13,36.13,0,0,0,33.9-25l161-501c6.44-13.06,79.38-155.19,193.38-155.19,31.67,0,74.17,6.6,94.77,34.26s21.31,76.64,1.89,141.27c-9.19,31.32-21.9,67.11-35.32,105-32.14,90.65-72.87,204.49-91,326.1a.22.22,0,0,0,0,.08,35.89,35.89,0,0,0,30.26,40.77,39.06,39.06,0,0,0,5.3,0,36,36,0,0,0,35.91-30.13c17-114.67,54.5-219.8,87.58-312.68,13.19-38.73,26.73-75.23,36.73-108.31,26.49-88.65,22.25-157.87-13.06-205-21.78-28.84-65.69-63.1-153-63.1-53,0-98.22,19.61-135.41,46.44l78.81-245.32c174.47,19.16,384.68,19.52,504.31-61.65a214.26,214.26,0,0,0,97.13-156.45c7.77-62-7.42-116.67-43.8-157.87C1719.86,28.14,1641.93,0,1541.51,0,1365,0,1239.31,107.37,1177.74,310.68a35.92,35.92,0,1,0,68.75,20.83c52.15-172.35,151.51-259.7,295-259.7,78.17,0,139,20.37,171.52,57.1,22.73,25.66,31.55,59.8,26.37,101.48a143.47,143.47,0,0,1-66.16,106c-75.58,51.21-215.08,70.17-403.44,54.74a2204.37,2204.37,0,0,1-334.69-55c-354-92.3-791-16-914.26,369.53-45.56,142-16.13,272,85,376,79.82,82.17,186.83,132,262.65,159.28a36.58,36.58,0,0,0,11.77,2.12h.35a36,36,0,0,0,11.77-69.81C44.16,1047.75,52.17,840.2,88.78,727.89c71.67-223.3,312.62-404.27,699.07-348.55L444.43,1448.49v0a36.08,36.08,0,0,0,68.76,21.87l346-1078.26c19,4,38.17,8.32,57.8,13.43,2.27.76,94.87,24.55,219.61,42.52l-293.43,914A2.58,2.58,0,0,1,843.08,1362.34Z"/><path class="cls-1" d="M1986.63,1251.3c25.78,37.44,69.93,56.39,131.73,56.39,194.13,0,242-150.69,259.82-208.14l-33.79-11.77-34.61-9.77c-17.66,55-50.5,157.4-191.77,157.4-37,0-60.51-8.36-72.28-25-17.9-25.78-6.72-71.34-1-86.65l95.71-302.2c1.42-4.59,34.38-111.83,167.76-111.83,55.45,0,92.53,15.89,101.72,43.79a58.86,58.86,0,0,1-20.49,61l-219.55,90.88a36,36,0,0,0,27.43,66.52l228.26-94.18,3.54-2.59a131.15,131.15,0,0,0,49.09-143.74c-9.18-28-44.27-93.24-170-93.24-151.27,0-221.09,107.48-236.51,163l-94.18,298.2C1972.62,1113,1945.89,1192.44,1986.63,1251.3Z"/><path class="cls-1" d="M5519.32,745.44c-22.48-68.17-80-107.25-157.75-107.25-150.92,0-223.68,118.08-240.51,179.65l-110.19,363.77c-5.3,14.24-31.32,92.88,9.06,151.75,25.79,37.31,69.93,56.27,131.74,56.27,193.77,0,242-150.69,261.23-208.49l-34.26-11L5344,1160.3c-17.66,55.09-50.5,157.52-191.77,157.52-37,0-60.51-8.48-72.29-25-17.89-25.78-6.71-71.46-.94-86.65l110.66-368.48c.47-1.29,37-127.61,171.88-127.61,46.74,0,76.76,19.42,89.47,57.92,15,45.32.71,101.83-21.54,122l-210.37,87.12a35.94,35.94,0,1,0,27.54,66.4l219.21-90.77,3.53-2.71C5520.5,912.25,5542.87,818.54,5519.32,745.44Z"/><path class="cls-1" d="M2483.31,1169c21,65.1,76.87,102.42,153,102.42,175.41,0,214.62-94.3,221.56-112.19L2968.45,847.5c3.18-9.18,33.56-91.59-8.59-153-25.66-37.32-69.93-56.27-131.62-56.27-135.26,0-225.79,68.63-269.23,203.9a35.93,35.93,0,1,0,68.4,22c21.3-66.16,65.1-154,200.83-154,37,0,60.52,8.36,72.29,24.84,17.19,25.78,6,71.46,0,87.7l-111.13,313-1,3.07c-.11.58-21.42,60.86-151.51,60.86-45,0-73.58-17.78-85.35-53.09-14.36-43.56,1.18-102.07,24.72-123.26l245-95.6a36,36,0,0,0-26.14-67l-254.64,99.36-3.88,2.82C2483.31,1002.08,2459.76,1096.49,2483.31,1169Z"/><path class="cls-1" d="M4023.86,1196.44c21.31,64.4,76,101.48,150.22,101.48,176.59,0,215.08-95.59,220.5-112.55L4507,846.68c4.71-12.71,32-92.41-9.07-152.22-25.66-37.32-69.81-56.27-131.62-56.27-193.77,0-242,150.69-260.29,207.43l33.91,11.77,35.08,9.77c17.66-55,50.5-157.39,191.77-157.39,37,0,60.51,8.35,72.29,24.84,17.89,25.78,6.71,71.45.94,86.76l-113.13,341.4-.71,2.47c-.24.59-21.43,60.75-151.63,60.75-44,0-70.64-16.83-82.41-52.15-16.6-50.15,4.36-113.25,27-133.74l231.8-95.94a35.92,35.92,0,1,0-27.43-66.4l-240.86,99.59-3.54,2.71C4024.92,1019.85,3999.14,1121.33,4023.86,1196.44Z"/><path class="cls-1" d="M1658.65,642.9,1638,647.14l-212.49,662.2v0a36,36,0,0,0,23.55,45.18,35.44,35.44,0,0,0,11,1.76,36.14,36.14,0,0,0,33.91-25.07l104-323.75c30-.26,61.81-1.42,93.87-4.32,20.09,7.26,80.15,34.91,84.25,108l.59,11.06c6.24,113.14,21.66,413.57,388.49,413.57l-.47.36a40.25,40.25,0,0,0,4.11,0,36,36,0,1,0-4.11-71.93c-298.55,0-310.56-233.22-316.21-345.29l-.71-11.77c-2.91-53.08-25.18-92.67-52.73-121,85.66-22,159.51-65.55,186.47-150.94,23.9-76.64,2-122.2-20.6-147.27C1881.73,600.4,1681.25,638.31,1658.65,642.9Zm249.22,93.24c5.42,6.12,22,24.48,5.42,77.58-20.91,66.66-92.61,104.64-222.6,117.23-.37.06-.76.06-1.13.12-21.2,2-43.78,3.45-68.12,4.14l72.29-225.56C1765.54,698.35,1872.32,696.82,1907.87,736.14Z"/><path class="cls-1" d="M5335.2,1468.74a478.87,478.87,0,0,1-205.43,47.09h-2c-79.7,0-141.51-23.55-183.77-69.69-73.46-80.65-68.4-203.2-65.1-238.52,8.88-94.67-32.32-159.64-71.85-199.3,105-30.69,174.7-89.44,201.46-172.82,22.61-70.29,2.36-114-18.6-138.33-74.28-86.29-266.64-58-288.3-54.51l-21.67,3.53-206,632a1.21,1.21,0,0,1-.05.18,36,36,0,0,0,68.45,22.07l87.24-267.59a805.57,805.57,0,0,0,85.68-6c21.48,12.33,102.35,67.47,92.08,173.89-4,43-9.77,191.19,83.59,293.49,56.39,61.8,136,93.12,236.62,93.12h7.89a553.39,553.39,0,0,0,231.45-53.92c1-.44,2-.92,3-1.45a36,36,0,1,0-34.63-63.18ZM4734.92,710.82c56.86-6.47,165.29-8.24,201,33.2,4.71,5.65,19.66,22.37,4.71,69.46-27.9,87.82-129.5,139.27-286.9,146.69Z"/><path class="cls-1" d="M3004.48,1211c25.66,36.73,69.69,55.45,130.44,55.45a269.07,269.07,0,0,0,145.95-46.85c0,.31-.18.61-.21.94a35.31,35.31,0,0,0,23.55,41.55,40.43,40.43,0,0,0,11.77,1.65,36.28,36.28,0,0,0,34.26-24.49L3468,880.94l15.19-47.09a275.07,275.07,0,0,0,5.94-41,269.6,269.6,0,0,1-5.94,41L3591.1,502.92c.08-.22.15-.44.22-.66A35.32,35.32,0,0,0,3568.26,458a36.37,36.37,0,0,0-45.55,22.72l-66.81,205-.11-.13.05-.13c-29-31.2-75.46-47.09-137.39-47.09-154.57,0-226.74,121-244.63,185.06l-81.11,241.34C2989.76,1073.65,2963.28,1152.18,3004.48,1211Zm56.63-121.73L3142.69,846l.82-2.47c1.65-5.65,35.91-133.73,174.94-133.73,31,0,70.87,5.06,88.41,28.6,7.95,11.52,14.69,31.5,8.47,68.3l-.7,2.1v1.53L3338.58,1042l-.06.2a37.19,37.19,0,0,0-2.64,5.56c-21.55,68-114.08,147.16-201,147.16-36,0-59.57-8.12-71.34-24.49C3046.51,1146.41,3055.81,1104,3061.11,1089.31Z"/><path class="cls-1" d="M3515.05,1076.13v1.64l-51,156.58-.12.37a36.15,36.15,0,0,0,23.66,45.31,35.37,35.37,0,0,0,11,1.64,36.13,36.13,0,0,0,34.26-25l11.75-37.38c.1.08.15.21.26.29A161.28,161.28,0,0,0,3678.1,1282a247.23,247.23,0,0,0,240.4-170.82l88.06-264.65c4.94-12.71,32.25-92.53-8.36-152-25.78-37.56-70.17-56.27-131.74-56.27a291.7,291.7,0,0,0-143.27,34.61l55.45-170v.24a36.06,36.06,0,0,0-68.52-22.49L3522,1055.76Zm350.82-365.78c36.85,0,60.4,8.6,72.17,24.84,18,26.14,6.95,71.35,1.29,86.88l-89.94,268.65a174.82,174.82,0,0,1-171.29,119.85,92.42,92.42,0,0,1-78.87-36.61,117.61,117.61,0,0,1-13.57-80.46l70.13-214.13c.05-.07.13-.12.18-.2a34,34,0,0,0,5.3-10.24C3695.05,763.8,3764,710.35,3865.87,710.35Z"/></svg>