<svg id="Layer_1" data-name="Layer 1" xmlns="http://www.w3.org/2000/svg" viewBox="0 0 2322.45 2294.11"><defs><style>.cls-1{fill:#fff;}</style></defs><path class="cls-1" d="M1142.08,2293.78C846,2285,585.54,2185,366.56,1984,177,1810,63.61,1593.44,15.17,1341.22-2.23,1250.65-1.53,1160,2.08,1068.91c3.81-96.23,20.78-191,52.54-281.07C112.74,622.9,199.77,473.65,324.45,349.3,588.16,86.3,907.71-28.46,1277.3,6c513.09,47.78,914,425.22,1017.22,890.26,30.75,138.46,36.92,278.33,14.46,419.79-55.29,348.22-237.42,611.14-530.52,801.12-111.94,72.55-235.07,120-364,149.65C1325.63,2287.18,1234.2,2296,1142.08,2293.78ZM1155.3,138.2c53.49,4.44,102.41,6,151.63,14.64,62.74,11,125.27,22.65,185.19,42.91,177.12,59.9,326.28,162.27,445.55,306.62,181.06,219.15,256.88,470.73,223.64,753C2136.15,1469,2045.19,1653.51,1899,1810.5c-132,141.73-292.91,235.91-479.62,286.83-16,4.37-23.77.37-32-13-20.41-33.12-42.38-65.27-63.76-97.77-24-36.48-39.13-44.62-59.3-32-21,13.12-19.66,30.37,5.44,68.76,25.73,39.34,52.81,77.87,76.74,118.27,15.94,26.92,35.21,32.23,64.4,24.94,101.89-25.44,198.58-63.32,289.62-115.61q192-110.3,323.92-288.19c187.32-251.26,249.84-531.48,190.83-838.2-42.9-223-155.88-407.82-319.34-563.12-48.86-46.43-103.22-86.15-160.25-121.62C1511,100,1265.32,44.93,1005.41,87.62c-429.09,70.48-724,312.65-870.91,724.22-72.4,202.79-70.67,411.13-10.22,617,44.79,152.51,122,288.69,229.6,406.9q234.75,257.79,574.51,334.61c22.16,5,37.28-.64,49.54-19.92,30-47.15,61.11-93.55,91.56-140.4,15.22-23.41,13.77-42.66-4.78-52.87-21.57-11.87-36.87-2.29-49,16.49-24.58,38-50.18,75.3-74,113.75-8.51,13.76-16.55,16.45-32.19,12.43-134.12-34.42-256.91-92.41-366.07-177.48C401,1811.25,293.16,1674.54,225.65,1504.64c-39.47-99.33-65.44-200.23-71.57-305.88C143.37,1014,176.27,838.4,267.71,674.83c27.87-49.85,54.8-99.72,90.56-144.33C563.84,274.08,832.71,147.28,1155.3,138.2ZM960.38,1372.47l-7.64-.33c-19.26-52.09-38-104.36-58-156.17A157.82,157.82,0,0,1,884,1156.41c.62-61.2.38-122.41.08-183.62-.29-57.49-21.75-105.69-66.85-141.67-29.09-23.21-59.73-44.51-90.24-65.87-27.31-19.12-48.32-10.71-56.87,22.29-8,30.89-15.37,62-22.94,93-14.71,60.15-2.8,114.35,37.14,161.83,38.25,45.47,76.59,90.89,115.7,135.61,16.59,19,29.26,39.29,37.74,63.24,23.65,66.83,48.5,133.23,73.62,199.52,5,13.33,5.3,24.87.21,38.28q-31.6,83.25-61.43,167.18c-18.53,52.39-13.7,103.38,15.12,150.86,19.3,31.8,40.52,62.5,62,92.91,18.5,26.2,40.93,25.73,59.76-.82,18.46-26,35.68-52.93,53.79-79.22,37.11-53.85,42.73-111.39,20.49-172.16-19.19-52.44-38.33-104.89-58.36-157-5.44-14.13-5.6-26.33-.21-40.74,50.59-135.3,100.37-270.9,150.68-406.3,2.91-7.83,3-17.83,12.31-22.23,6.19,2.16,7,7.85,8.79,12.54q78.24,211.73,156.57,423.41c4.27,11.46,1.54,20.51-2.15,30.49-20.32,54.85-40.91,109.61-60.76,164.63-21,58.21-14,113.34,20.36,164.85,17.71,26.55,35.39,53.13,53.57,79.37,21.38,30.88,40.58,31.41,63.53.49,19-25.6,36.32-52.48,54-79,34.81-52.28,42.25-107.94,20.22-167.22-20.06-54-39.44-108.27-60-162.06-5.13-13.4-4.6-24.8.16-38.12,21.4-59.88,46.46-118.42,64-179.75,6.12-21.34,11.49-44.81,27.4-61.49,47.78-50.08,90.69-104.31,135.69-156.73,39.56-46.09,52.27-99.75,38.35-159.14-7.68-32.8-15.55-65.57-24.29-98.09-8.68-32.29-30.18-39.82-57.93-20.31-29.74,20.9-59.56,41.81-88.07,64.33-43.5,34.36-66.54,79.91-67.89,135.63-.67,27.48-2,55.14.15,82.47,7.19,91.93-6,179.84-46.47,263.29-9.8,20.18-13.3,43.23-26.19,63.49-3-3.43-5.51-5.08-6.35-7.33Q1285.65,1144.09,1203,921c-3.78-10.15-1.86-18.33,1.71-27.86,22.61-60.38,44.51-121,66.8-181.53,19.26-52.25,15.14-102.86-13.14-150.43-19.41-32.65-41-64-62.73-95.24-18.32-26.37-41.45-26.29-59.92-.09-19.4,27.54-37.85,55.75-56.48,83.83-34.3,51.71-40.37,106.85-19.09,165,21,57.42,41.82,114.93,63.87,172,6.19,16,6,29.67,0,45.76-47.49,127-94.08,254.33-141,381.53C975.72,1333.55,967.92,1353,960.38,1372.47Zm114.39,824.86c18.44.47,22.27-13.15,29.89-22.4,5.83-7.07,7.95-21.29,19.84-18.16,12.61,3.32,7.49,16.84,6.73,25.43-2.53,28.65,17,29,36.13,29.62,19.93.7,35.4-3.6,32.76-29.49-.88-8.64-5.61-22.2,6.73-25.5,11.88-3.18,13.53,11.54,19.75,18.27a34.23,34.23,0,0,1,5.86,8.85c12.32,26.91,28.82,15.32,44.93,4.81,15.52-10.12,30.42-19.73,12.49-41.33-12.39-14.92-21-32.95-32.66-48.51-43.51-57.8-59.47-122.57-58.15-194.62,2.33-126.83,1.84-253.74,0-380.58-.57-38.37,5.66-71.73,32.24-100.14,9.78-10.46,12.6-21.86,7-36.45-20.73-53.76-40.3-108-60.48-162-2.38-6.37-3-16-11.41-16.26-10.24-.33-10.71,10.24-13.37,17.36-19.23,51.49-37.51,103.37-57.81,154.43-7.15,18-6.11,32.2,6.83,46.07,24.44,26.19,30.76,56.92,30.31,92.66-1.74,137.49-.85,275-.64,412.53.07,50.13-12.77,96.32-39.4,138.79-18.38,29.3-36.39,58.82-54.59,88.23-4.73,7.66-11.1,16.15.59,22.37C1050.73,2188,1064.14,2192.76,1074.77,2197.33ZM1293.29,977.55c-6.88,23.38,9.91,45.76,15.6,70.45,1.31,5.7,3.83,10.39,9.7,10.51s8.69-5.14,10.65-10.17,3.77-9.88,5.32-14.93C1369.39,920,1418.09,814.5,1506.92,731.9c5.13-4.77,9.42-10.63,13.35-16.49,24.92-37.18,34.24-77.57,22.29-121.33-13.33-48.82-59.28-76.27-108.59-67.06-37.55,7-87.86,57.84-93.46,100.81-8,60.94-2.31,122-3.89,183.06-.37,14.22-3.36,27-8.11,40.67C1314.6,891.49,1290.55,928.78,1293.29,977.55ZM994.21,739.09c0-26.57.64-53.16-.14-79.71-1.34-46.13-20.74-83.9-56.69-112.42-58.8-46.64-140.62-14-151.55,60.36-6.69,45.53,5.54,85.94,35.36,121,31.56,37.11,62.91,74.4,94.9,111.12A119.16,119.16,0,0,1,938.73,878q30.22,83.67,61.41,167c2,5.29,2.55,13.67,10.89,12.76,5.87-.64,6.7-7.47,8.78-12.16,18.59-42.15,25.09-85,5.23-128.53C999.17,860.3,986,801.6,994.21,739.09ZM470.93,1533.82c10.07-.91,20.73-1.36,31.22-2.91,93.75-13.86,186.55-15.23,276.8,19.84a83.64,83.64,0,0,0,15.39,4.06c14.92,2.68,25.64-2.78,32.67-16.48,13.31-26,6.14-44.7-24.92-49.9-96.05-16.07-178.7-59-253.49-119.54a218.07,218.07,0,0,0-31-20.47c-39.14-21.85-80.72-26.91-123.06-12.33-68.79,23.68-85.68,102.78-34.07,154C391,1520.39,428.41,1532.49,470.93,1533.82Zm1422.25-206.11c-38.45.54-70.27,10.28-97.67,31.71-79.62,62.29-164.24,113.91-266.82,128.33-1.74.25-3.39,1.06-5.11,1.48-19.46,4.72-29.16,16-24.32,36.71,5.59,23.92,19.32,33.61,42.44,27.93,39.56-9.7,78.84-20.59,118.25-30.93,9.39-2.46,18.57-5.14,28.69-4.14,50.27,4.92,100.83,7.62,150.82,14.51,40.47,5.57,76.11-4.16,109.11-25.34,53.52-34.34,66.9-80.4,36.17-136.17C1965,1336,1927.28,1329.44,1893.18,1327.71ZM1831.37,1052c-42.09,2.35-82.89,22.59-112.57,63q-40.12,54.58-78.33,110.56c-13.7,20.17-29.48,37.35-51,49-45.44,24.48-74.17,62.1-87.15,111.83-2,7.81-12,16.81-2.15,23.66,7.63,5.32,14.65-4.07,20.37-8.65,87.46-70.08,186.82-113.2,296.88-132.55a136.18,136.18,0,0,0,15.36-4.15c22.5-6.75,40.84-20.19,59.17-34.5,35.87-28,47.39-65.49,44.1-108.4C1933.28,1086.1,1883.79,1051.5,1831.37,1052Zm-1337.44.21c-41.51,0-71,19-89.29,53.48-17.79,33.5-9.17,64.82,11.2,95.57,31.08,46.9,78.83,61.67,129.11,76.54,57.78,17.1,120.44,20.09,171,59.91,32,25.13,67.53,45.67,101.52,68.23,4.31,2.86,8.86,7.52,14.24,4,4.13-2.71,3-7.8,1.4-12.16-14.22-39.2-25.23-81.79-64.44-103.87-47.4-26.69-79.47-66.46-108.25-110.63-15.48-23.75-32.22-46.74-49.33-69.36C581.51,1074.71,541.6,1054.57,493.93,1052.16ZM672,1603.46c-17.74,0-35.5-.52-53.22.1-38.28,1.33-70.8,15.56-95.31,45.56-38,46.43-16,111.19,42.5,125.2,36.69,8.8,71.06,1.69,100.83-20.83,31.1-23.53,60.64-49.12,90.56-74.19,14.85-12.44,21.51-28.06,14.22-47.36-7.1-18.81-21.62-27.67-41-28.27S691.52,1603.53,672,1603.46Zm981.9-.21c-18.62,0-37.25-.41-55.86.11-20.57.57-35.73,10-42.54,30-6.6,19.41,1,34.72,15.79,47,29.3,24.39,58.09,49.48,88.43,72.51,32.23,24.46,69.1,31.7,108.27,20.14,47-13.87,69.52-66.23,46.78-108.8-13.41-25.12-34.21-42-61.59-51.46C1720.68,1601.61,1687.34,1602.76,1653.9,1603.25ZM369.63,882.74c-7.68,2.29-10.67,3.79-13.75,4-14.1,1-28.42.37-42.3,2.62-15.36,2.48-20.84,15-22.93,28.94-.9,6.05-2.4,14.19,4.42,16.47,10.75,3.61,22.06,5.63,30.34-7.12,4.79-7.37,14.36-5.64,22.14-6.39q31.69-3.06,63.43-5.63c8.31-.65,15.91-1.72,18.84-11.24s-2.84-14.91-9.35-19.92c-13.58-10.47-27.19-20.89-47.38-36.38,26.55-3,44.52-5.2,62.53-6.92,7.71-.74,13.65-3.16,16.32-11,2.83-8.33-1.84-13.63-7.6-18.07-28-21.58-56.39-42.75-84.25-64.55-10.66-8.34-14.51-3.78-18.87,6.53C329.53,781.69,354,786.26,368,797.45c6.06,4.83,16.25,7.82,14.28,17.13-2.36,11.13-13.13,5.52-20.21,6.16-9.65.87-19.44.26-29.17.17-8.22-.07-16.24.27-19.11,10-3,10.15,2.1,17.16,9.95,22.37C337.72,862.59,352,871.45,369.63,882.74ZM1867.31,591.29c-3.4-33.42-30.79-55-52.68-79.85-5.18-5.87-11.45-.48-16.29,3.43-24.71,20-49.32,40.15-74.09,60.07-7.31,5.88-10.29,12.3-3.51,20.17,15,17.36,27.35,37.21,46.24,50.78,20.5,14.71,42.58,16.4,64.77,3.69C1852.9,637.46,1866.94,620.35,1867.31,591.29ZM1070.78,362.16c14.48-.84,25.16-.79,35.64-2.2,37.35-5,58.36-29.22,56.49-64.31-1.88-35.48-24.72-57.64-62.3-58.59-16.71-.42-33.48,2.75-50.24,2.91-14.76.14-17.7,7.52-16.6,20.3,2,23.77,4.79,47.63,4.51,71.41C1038,358.48,1047.24,370.22,1070.78,362.16ZM702.35,366c-17.3,0-71.6,27.31-82.18,40.46-6.1,7.57-2,13.08,1.94,19,16.77,25,33.68,49.91,50.37,75,5.58,8.37,11.5,13.45,21.61,6.28C711.4,494.41,730.37,484,746,469.94c19.71-17.81,23.19-41.2,12.09-65.66C747.29,380.54,729.2,366.7,702.35,366ZM556.79,557.53c23.26,0,44.35-.18,65.44.08,9.67.12,17.64-2.72,22.21-11.5,5.07-9.76-3.3-14.62-8.69-19.87-20.31-19.79-41.37-38.83-61.32-59-10.56-10.65-18-9.84-28.63.43-12.22,11.78-7.35,18.86,2.44,27.93,8,7.35,18.33,13.21,22.31,26.4-22.82,0-43.66.11-64.49-.06-9.34-.07-18,1.4-22.8,10.36-5.83,10.82,3.24,16.19,9.33,22.09,19.09,18.5,38.63,36.54,57.67,55.09,9.35,9.11,16.72,17.67,30.15,3.62,12.38-12.94,7.86-20.67-2.71-30.55C570.27,575.66,560.68,570.1,556.79,557.53Zm734.82-229.09c-14.38,12.23-28.9,10-41.53-2.4-11.6-11.38-11.72-25.74-2.51-38.85,10.24-14.58,24.39-16.35,40-8.85,4,1.92,7.44,5.07,11.53,6.58,10.69,3.94,16.62-4.22,22.17-10.62,7.09-8.17-1.59-12.68-6.22-17.19-19.66-19.19-56.76-22.37-81.85-7.4-23.84,14.22-35.68,44.1-28.37,71.54,6.68,25.1,33.46,48,55.91,47.73,42.11-.42,66.7-15.65,74.86-45.93,2.75-10.23,4.92-22.09-9.44-21.67-17.31.51-35.82-15.1-51.71,1.87-4.08,4.36-2.53,12,4.45,15.74C1283.19,321.33,1290,319.88,1291.61,328.44ZM847.94,289.39c-20.37,3.33-42.86,13.72-65.51,23.4-8.88,3.79-6.54,11.44-3.84,18.2,11.45,28.68,23.33,57.2,34.51,86,4.11,10.59,9.71,12.43,20.39,8.83,15.13-5.08,19.44-12.79,12.76-27.72-2.89-6.46-10.26-15.08-1.68-21.39,9.21-6.76,16.12,2.31,23,7.29,8.52,6.16,15.95,14.45,27.14,15.62,13.18,1.37,28-1.44,30.26-14.81,1.75-10.36-7.42-18.88-22.48-19.23-14.72-.35-19.2-9-13.2-25.66C899,313.16,880.1,289.55,847.94,289.39Zm1163.88,575c-1.54-18.57-10.07-39.18-16.3-60.36-2.86-9.72-9.66-11.38-18.78-8.71-30.58,8.95-61.19,17.8-91.89,26.34-11.91,3.31-15.09,10.1-12.08,21.85,3.6,14,9.09,22.5,25.84,17,7.41-2.41,17.92-10.92,23.34,0,4.69,9.42-6.81,15-12.46,21.28-8.33,9.24-18,17.66-17,31.65.73,11,3.58,23.37,15.14,25.49,11,2,20.71-6.16,21.87-18.09,1.77-18.12,11-14.88,23.75-12C1989.23,916.91,2012.06,900.47,2011.82,864.43ZM1897,757.28c7.35-1.81,14.51-4,17-11.51,2.58-7.62-4.07-13-6.52-19.49-2.58-6.78-12.12-15-1.27-20.28,10.53-5.13,11.66,7.55,15.62,13.51s7,12.34,10.08,18.7c5.51,11.21,13,12.7,23.72,6.54,9.83-5.66,11.32-12.35,6.06-21.91-10.67-19.4-21.07-39-31.46-58.51-5.18-9.73-11.89-11.58-21.79-6.25-28.07,15.12-56.36,29.84-84.7,44.45-9.6,5-12.94,11.17-7.4,21.33,10.59,19.45,20.88,39,31.18,58.66,4.9,9.34,10.84,12.69,21.38,7.18,11.36-5.93,13-13.05,6.78-23.54-4.54-7.6-8.69-15.45-12.63-23.37-2.72-5.49-6.32-11.94,2.2-15.53,6.67-2.8,8.91,3.38,11.93,7.52C1883.14,742.91,1883.92,755.7,1897,757.28ZM1489.17,301.91c-5.76-15.36-22.4-13.83-34.61-17.93-53.79-18.06-54-17.59-72,36.11-21.71,64.68-21.77,64.86,44.56,85.49,10.44,3.24,23.37,14.35,30.61-5.32,7.7-20.92-11.37-16.65-20.24-22.5-9.18-6-31.17-1.08-25.85-18.47,4.57-15,19.52-1.09,29.65.58,8.15,1.34,13.59.46,17-7.8,3.15-7.56,2.89-12.66-4.89-17.81-9.5-6.28-33.83-1.5-25.88-20,5.85-13.62,22.94,2.22,35.15,3.79,2.61.33,5.12,1.39,7.7,2C1484.71,323.66,1486.48,313.39,1489.17,301.91Zm126.52,62.9c-26.62.75-46.85,11.47-59,34.89-12.23,23.6-9.24,46.55,6.38,67.37,15.9,21.21,37.71,31.59,64.43,30.31,6.33-.3,14-2.65,12.84-10.27-1.39-8.94-1.56-20.23-13.91-23.14-6-1.41-12.39-1.64-18-3.93-12.43-5.09-20.13-14.36-20.14-28.4,0-12.81,6.8-21.95,17.78-27.41,12.41-6.19,24.32-3.54,34.32,5.65,4.48,4.11,7.41,9.86,11.56,14.38,9.13,9.93,20.17,6.53,29,1,9.29-5.8,2.69-14.55-.86-21.12C1666.2,378.46,1643.32,367.09,1615.69,364.81ZM426,656.41c-15.31-1-26.7-1-36.24,7.33-9.16,8-17.69,19.36-11.11,29.51s19.9,14.36,31.17,1.63c5.38-6.07,13-4.06,19.91-4.46,23.6-1.38,45.42,3,64.51,18,11.43,9,17.3.71,22.77-8.15,4.72-7.64,11.38-16.88-.66-22-33.76-14.48-42.15-47.86-59-75.08-4.09-6.6-4.77-21.93-15.25-16.76-9.79,4.84-18.42,17-14.24,31.1,1.72,5.8,5,11.38,8.5,16.39C449.77,653,446.09,660.79,426,656.41ZM1679,553.74c5.77.53,9-2.41,12-5.77,21.23-23.79,42.23-47.81,63.77-71.32,10.55-11.51,3.8-18.14-4.76-26.2-10-9.45-17.41-8.8-26.29,1.67-19.48,23-39.9,45.13-59.68,67.84-4.32,5-11.89,10-5,17.95C1664.83,544.5,1670.84,551.15,1679,553.74ZM997.09,364.07c-7.9-34.76-15.06-67.42-22.84-99.93-3.11-13-13.31-8.46-21.59-7-9.2,1.64-17.61,4.43-14.72,16.9q11,47.58,21.92,95.17c2.89,12.5,11.5,10.7,20.69,8.48C989.29,375.6,998.72,374.74,997.09,364.07Z"/><path class="cls-1" d="M1516.63,1097.7c-4.88-54.86-12.84-107.64-1.4-159.68,10.09-45.91,49.52-67.1,84.29-91.39,7.29-5.09,10.6-.23,12.94,6.94,18.82,57.64,23.92,112.35-24,160.79C1562.71,1040.37,1540.45,1069.81,1516.63,1097.7Z"/><path class="cls-1" d="M961.26,1547.15c16,44.72,34.41,88.77,47.45,134.35,14.94,52.26-16.93,91.15-45,130-6.88,9.53-11.31,3.2-16-2.77-39.44-50-61.91-102.14-30.43-166.09,14.94-30.36,24.1-63.56,35.87-95.47Z"/><path class="cls-1" d="M1162.47,808.81c-17.52-49.6-42.68-96.75-51.1-149.24-7.47-46.54,23-80,47.13-114.8,6.43-9.28,11.35-3.72,16.26,2.43,39.3,49.28,61,101.07,31.11,164.26-14.67,31-24.52,64.31-36.56,96.57Z"/><path class="cls-1" d="M1378.55,1547.23c16,45.66,34.54,90.64,47.43,137.18,14.24,51.44-18.78,89.18-45.49,127.66-5.39,7.77-10,3.41-14.37-2.18-38.38-49.1-62.88-100.11-32.71-163.78,15-31.61,24.86-65.64,37-98.57Z"/><path class="cls-1" d="M813.13,1098.34c-32.17-43.52-75.06-78.48-99.92-127.55-20.11-39.7-4.41-79.64,5.76-118.85,2.6-10,8.85-8.13,16.15-3.65,52.35,32.19,91.93,71.21,86.45,140-2.83,35.48-.5,71.37-.5,107.08Z"/><path class="cls-1" d="M1405,747.6c0-35-1.12-62.94.34-90.73,1.26-23.94,12.33-44.2,32.09-58.35,17.32-12.4,36-5.12,40,15.78,4.55,23.52.25,45.94-15,64.94C1445.35,700.47,1427.4,721,1405,747.6Z"/><path class="cls-1" d="M925.41,747.38c-22.86-27.75-43.12-50.65-61.34-75.07-11.41-15.31-14.22-34.14-11.69-53.25,1.46-11,5.57-20.39,16.91-25,11.71-4.78,20.64.42,28.91,7.7,15.19,13.37,25.95,30,26.87,50.22C926.42,681.71,925.41,711.57,925.41,747.38Z"/><path class="cls-1" d="M560.62,1458.64c-36,2.82-64.12,5.83-92.32,7-24.12,1-45.38-7.75-61.61-26-13.82-15.5-9.47-32.69,10.15-39.83,22.94-8.34,45.87-5.84,66.43,6.79C507.24,1421.37,530.06,1438,560.62,1458.64Z"/><path class="cls-1" d="M1779.11,1458.73c30.69-19.9,50.37-52.76,86.87-59.85,15.89-3.09,31.79-4.36,47.27,1.18,19.37,6.93,24.19,24.58,10.32,39.73-13.64,14.89-30.64,23.89-51.62,23.48-16-.31-31.94-.06-47.87-.82C1809.06,1461.73,1794.1,1460,1779.11,1458.73Z"/><path class="cls-1" d="M1731.32,1218.51c20.14-28.49,34.11-60.87,61.8-82.45,25.28-19.69,56.35-21.4,67.3-5.67,10.65,15.3-2.68,44.71-30,60.33C1800.27,1208,1765.64,1211.34,1731.32,1218.51Z"/><path class="cls-1" d="M598.65,1224.12c-40.86-19.79-93.14-12.5-123.37-57.39-7.57-11.24-14.3-23.3-4.77-36.68,9.3-13.06,22.5-11.62,36.07-8.67,22.88,5,40,18.16,53.32,36.75,13.93,19.4,27.67,38.93,41.5,58.41Z"/><path class="cls-1" d="M662.12,1672.29c-19,13.94-31.58,24.6-45.54,32.94-11.63,6.94-25.2,7.28-38.09,2.08a8,8,0,0,1-4.49-11c6.39-13.93,18.74-21.68,32.82-23.58C622.27,1670.68,638.21,1672.29,662.12,1672.29Z"/><path class="cls-1" d="M1633,1656.22c25.4,0,45.68-1.11,65.78.35,16.34,1.19,30.38,9.71,40.93,22.34,11.13,13.33,7.81,22.93-9.57,25.87-20.19,3.42-38.74-1.5-54.91-14C1662.07,1680.57,1649.42,1669.69,1633,1656.22Z"/><path class="cls-1" d="M1830,586.38c-.52,17.43-20,34.9-36.37,33.26-14.46-1.44-23.93-10.29-28.13-23.81-1.44-4.6,41.12-39.66,45.33-37.32C1822.12,564.78,1828.72,574.88,1830,586.38Z"/><path class="cls-1" d="M1092.55,266c20.91,1.6,31.44,13.21,31.44,34.19,0,19.86-14.47,34.88-33.8,31-26.9-5.34-12.27-29.75-16.78-45.25C1069.25,271.7,1077.49,264.65,1092.55,266Z"/><path class="cls-1" d="M727.77,432.28c-.85,16.88-10.56,25.87-22.89,31.61-13.54,6.31-14.93-8.14-20.94-14.38a32.34,32.34,0,0,1-5.87-8.76c-5.43-11.62-25.35-22.28-1.88-35.88,19.45-11.27,33.67-4.87,45,12C724.53,421.81,726,428,727.77,432.28Z"/><path class="cls-1" d="M855.46,336.65c-3.31,10.47-11.76,15.52-21.57,15.32S822,342,822.34,334.55c.47-9.89,9.95-11,17.51-11.72C849.11,321.93,854.2,327.34,855.46,336.65Z"/><path class="cls-1" d="M1962.53,842c10.54-1.94,11.46,6,12.9,12.79,1.72,8.12-1.43,14.89-9.76,15.86-10.16,1.19-12.85-7.43-15.06-15.25C1947.61,844.76,1956.26,844.37,1962.53,842Z"/></svg>