<svg id="Layer_1" data-name="Layer 1" xmlns="http://www.w3.org/2000/svg" viewBox="0 0 1993.79 1431.08"><defs><style>.cls-1{fill:#a62b2a;}</style></defs><path class="cls-1" d="M1637.5,1137H356.83L1009,335.71Zm-89.62-39.85c.16-.37.32-.73.49-1.1-1.89-1.14-3.73-2.35-5.66-3.4q-261.26-142.9-522.41-286c-8.63-4.73-14.81-4.49-23.35,0q-256.68,135.78-513.69,271c-11.38,6-22.71,12.1-34.06,18.15a8.84,8.84,0,0,0,5.7-.32q273.79-94.18,547.65-188.26a20.56,20.56,0,0,1,12.56,0q257,91.38,513.93,183.15ZM461.7,1063.48l.81,1.17,546.43-348.47L1533.8,1063.4l.87-1.23L1008.81,617.76ZM1543,1118.16l.25-1.38c-2-.56-3.93-1.16-5.91-1.65q-92.22-23-184.43-46-168.5-42-337-84c-3.47-.87-7.45-1.4-10.84-.61-32.68,7.58-65.28,15.45-97.9,23.28q-202.83,48.72-405.64,97.47-23.62,5.68-47.21,11.46a23.85,23.85,0,0,0,9.75.76q48.8-4,97.6-8l126.18-10.27q74.23-6.06,148.47-12.14c43.22-3.54,86.43-7.25,129.66-10.62,16.95-1.33,33.95-2.75,50.92-2.65,14.64.09,29.26,2.3,43.89,3.53q69,5.82,138,11.62,71.09,6,142.16,12.15t142.18,12Q1513,1115.72,1543,1118.16Zm-31.23-105.29,1.16-1.27L1008.8,435.83,483.5,1014.21l1.22,1.15L1009,526.28Z"/><path class="cls-1" d="M1627.11,502.54,1730.17,442,1748,471.61,1580.7,569.9c-4.82-8.71-9.71-16.81-13.71-25.33-1-2,.42-5.78,1.71-8.21q29.07-55,58.42-109.78a22.62,22.62,0,0,0,3-8.79c-2.92,1.69-5.84,3.36-8.75,5.07-29.34,17.22-58.73,34.34-87.94,51.78-4.44,2.65-7.08,2.39-9.56-2-3.78-6.67-7.63-13.3-11.48-19.93-1.91-3.28-1.17-5.33,2.21-7.31q78.42-45.9,156.7-92.05c3.17-1.86,5.49-2.15,7.53,1.3a36.67,36.67,0,0,0,2.51,3.36c8.64,11.44,11.57,21.78,3,36.24-19.86,33.4-37.31,68.24-55.74,102.5-.85,1.59-1.67,3.21-2.5,4.82Z"/><path class="cls-1" d="M1189.11,166.74a142.58,142.58,0,0,1,40.78-90c18.28-18.62,41-25.78,66.62-20,30.68,7,55.53,21.94,65.5,54.19,5.33,17.23,3.93,34.62-.56,51.79-7,26.82-18.34,51.42-39.16,70.48-20,18.28-43.5,23.68-69.49,16.42A117.14,117.14,0,0,1,1227,239.1C1201.44,224.69,1189,202.34,1189.11,166.74Zm136-32.76c.47-20.29-5.25-31.46-18.3-38.44-17.94-9.61-35-6.8-48.23,9.11-17.09,20.56-26.76,44.65-29.79,71.1-2.09,18.23,6.21,31.78,22.14,38.94,15.29,6.88,30.18,4.44,42-8.61C1312.74,184.08,1322.18,157.42,1325.12,134Z"/><path class="cls-1" d="M635.08,81.17l36.66-14,27.29,71,59.64-22.8C751.94,97.79,745.49,80.88,739,64c-1.82-4.78-3.51-9.63-5.54-14.33-1.4-3.26-.76-5.24,2.57-6.56,10.54-4.16,21.05-8.41,32.17-12.86,23.17,60.69,45.82,120,69.08,181L800.72,225.3c-10.2-26.59-20-52.12-30.05-78.29l-59.59,22.78c3.83,10.15,7.41,19.67,11,29.18,5.38,14.15,10.66,28.34,16.3,42.38,1.71,4.25,1.6,6.82-3.14,8.61-10.17,3.83-20.21,8-31,12.31C681.06,201.59,658.41,142.28,635.08,81.17Z"/><path class="cls-1" d="M295.13,671.39c-3.8,21.31-7.44,41.65-11.23,62.87l82.27,14.85c-2.23,13-4.4,25.56-6.64,38.64l-190.9-34.16c2.43-12.08,4.48-23.46,7.27-34.66.35-1.4,4.79-2.91,7-2.54,19.3,3.19,38.54,6.81,57.8,10.27,3.15.56,6.33,1,10,1.53,3.74-20.91,7.39-41.26,11.23-62.7l-73.51-13.3c-.58-12.66,2-24.59,6.05-36.22.37-1.07,3.94-1.79,5.81-1.46q81.57,14.37,163.09,29c3.67.65,7.31,1.44,11,2.15,9.18,1.79,9.57,1.83,8.35,11.45-1.2,9.38-3.3,18.64-5.16,28.83Z"/><path class="cls-1" d="M494,214.9c-10,7.24-19.44,13-27.59,20.09-19.56,17.13-23.3,39-10.87,61.75A110.68,110.68,0,0,0,494.49,338c22.73,14.19,46.43,9.57,65.48-12.22,1.67-1.92,3.15-4,5.14-6.57l-46.65-49.91,28-26.52c7.24,7.59,13.65,14.24,20,21,13.73,14.59,27.52,29.15,41,43.94,1.67,1.82,3.36,5.94,2.46,7.44-17.18,28.45-38.19,53-70.63,64.72-20.51,7.4-40.94,5.77-60.45-3.7-27.65-13.42-48-34.44-60.6-62.39C402.54,279,410.05,241,438.44,215.42c10.77-9.71,23.65-17.1,35.64-25.43,4.14-2.88,7.24-1.63,9.36,2.9C487.05,200.61,490.81,208.25,494,214.9Z"/><path class="cls-1" d="M946.54.75c23.65,0,46.17-1.94,68.22.42C1055.16,5.5,1074.67,31,1072,71.91c-2.32,35.79-23.45,57.42-59.29,60.11-9.45.71-19,.11-29.9.11v61.64H943.47C944.5,129,945.51,65.31,946.54.75Zm38.19,98.59c15.57,4.63,33.93-.36,41.63-11.42,8.15-11.7,8-32.12-.33-43.66-7.74-10.74-25.92-15.74-41.3-10.9Z"/><path class="cls-1" d="M1627.6,747.9c-2.18-13-4.26-25.47-6.47-38.64l157.28-25.34c-2.25-14.15-4.14-27.49-6.6-40.72-1-5.4.64-7.77,5.88-8.46,8.43-1.12,16.83-2.47,25.81-3.8,7.28,45.29,14.33,89.11,21.66,134.69-9.9,1.39-19.43,3-29,3.8-1.42.12-4.18-3.1-4.56-5.11-2.53-13.49-4.58-27.07-6.94-41.57Z"/><path class="cls-1" d="M1530,195.23l29.55,26-128,145.26L1402,340.58Z"/><path class="cls-1" d="M278.46,416.93l170,92.63-18.74,34.57-170-92.62Z"/><path class="cls-1" d="M945.82,1428.41V1301.53c22.3.46,44.7-2.79,66,6.44,14.18,6.13,23.25,16.93,27.35,31.64a85.92,85.92,0,0,1-.77,50.26c-7,21.74-22,35.44-44.55,38.18C978.32,1429.94,962.34,1428.41,945.82,1428.41Zm12.61-10.89c31.19,3.22,48.59-.28,61.27-18.75,12.5-18.17,13-50.92,1.53-67.89-11.05-16.4-33.17-20.68-62.8-17.23Z"/><path class="cls-1" d="M1408.13,1374.53c7.91,18.24,15.58,35.91,23.28,53.69-12.15,2.66-13.09,2.23-17.45-7.76-5.49-12.59-11.12-25.12-16.33-37.83-1.77-4.34-4.14-6-8.86-5.68-7.19.43-14.42.11-22.54.11v51.58H1353.5V1300.72c16.72.81,33.6.12,49.9,2.86,15.52,2.61,24,14.47,26.06,30.06,2,15.22-2.61,28.08-15.52,37.27-.94.67-2,1.14-3,1.74C1410.15,1373.12,1409.42,1373.66,1408.13,1374.53Zm-41.9-9.82c10.17,0,19.93.71,29.55-.17,13.74-1.26,21.1-10.43,21.25-24.7.14-13.86-7.53-24.14-20.63-25.5-9.83-1-19.85-.21-30.17-.21Z"/><path class="cls-1" d="M666.26,1402.54l8.12,8.72c-17.88,21.44-60.22,29.74-90.34,3-26.78-23.76-28.86-67.32-4.07-93.52,25.72-27.18,68.44-28.21,94.32-1.69l-8.24,8.72c-30.23-21.54-57.76-20.55-77.58,2.47-18,20.89-17.28,52.45,1.63,72C611.47,1424.37,639,1424.64,666.26,1402.54Z"/><path class="cls-1" d="M1230.34,1314.1h-54.57v42.56h43.49v11.73h-43.2v48.66h54.34v11.58h-67.26V1302h67.2Z"/><path class="cls-1" d="M798.4,1312.57H783.53V1302h42.68v10.37l-14.37.64v105l14.44,1v9.72H783.64v-9.79l14.76-.74Z"/></svg>