<svg id="Layer_1" data-name="Layer 1" xmlns="http://www.w3.org/2000/svg" viewBox="0 0 5626.3 1427.35"><defs><style>.cls-1{fill:#bd502f;}</style></defs><path class="cls-1" d="M2792,635.31c0-.78,0-1.56,0-2.34-.63-62.33,8.6-50.91-50.51-63.44-17.2-3.65-38.56-9.16-39.72-26.95-1.24-18.93,19.94-24.57,37-29.12,20.26-5.4,41.25-8.15,60.31-18.27,6.32-3.36,15.61-3.74,22.86-2.24,27.89,5.78,56,4.09,84,3.59,16.43-.29,24.5,4.95,24.29,22.65-.89,75.58,7.92,62.22-60.52,64.18-34.23,1-34.63,1.93-32,36.3,2.52,33.41,2.59,67,3.87,100.53.94,24.47,4.89,27.24,25.95,16.91,66.55-32.66,133.12-65.28,199.33-98.62,45.75-23,73.17-20.36,110.19,14.66,20.39,19.29,39,40.42,59.11,60,12.59,12.29,10.55,23.27-.89,34-20.17,19-44,28.75-72,28.85-13.54,0-20-6-22.08-18.73-2.25-13.86-4.1-27.86-7.54-41.43-8.5-33.47-32.37-47.15-63.45-33.4-60.64,26.83-120.35,55.76-180.41,83.92-4.1,1.92-10,3.33-10.26,8.43-.32,7.12,7.08,7.22,11.74,9.27Q3045.47,852,3199.85,919.72c7.14,3.13,14.49,6,21.21,9.87,13.51,7.85,21.7,18.72,13.62,34.78-7.72,15.32-19.89,17.69-35.4,11-68-29.44-136.29-58.4-204.39-87.72-41.57-17.89-82.89-36.39-124.54-54.09-21.19-9-24.7-6.62-24.34,16.48.78,50.69,2.43,101.37,3.12,152.05.19,14-2.56,28-2.5,42,.08,18.53-10.77,23.76-26.56,25.54-26.44,3-30.28-.62-33.43-27.35-7.64-64.76,3.61-129.34,1-194.06-1.3-32-2.27-33.24-31.36-19.55Q2602.7,900.9,2449.05,973c-2.83,1.33-5.62,2.76-8.53,3.88-8.73,3.36-18.84,8.73-24.64-2.78-6.23-12.33,5.39-16.27,13.34-20.26q72.21-36.23,144.74-71.79,84-41.4,168-82.66c4.72-2.33,11.89-3.51,12.13-9.67.31-7.84-8-8.34-13.21-11.23-61.36-33.86-130.74-44.62-195.72-68-11.88-4.29-16.77.26-20,11.62-7.74,27.62.13,54.36,3.87,81.17,7,50.23,3,54.61-45.56,41.5-30.16-8.14-54.2-27.09-77.48-46.89-8.55-7.27-7.58-16.2-3.43-25.59,24-54.26,48.58-108.17,82.39-157.4,10.28-15,21-19.2,37.28-11.18,17.34,8.52,40.91,8.21,45,34.68.56,3.64,7.95,6.94,12.76,9.08,62,27.59,124.24,54.76,186.2,82.5,14.52,6.49,21.74,4.8,22.22-12.88.73-27.27,2.64-54.5,4.06-81.75Z"/><path class="cls-1" d="M722.93,362.23c18.74,71.52,37.28,143.08,56.31,214.52,7.77,29.18,4.6,34.38-24.27,38.65-13.32,2-20.57-2.59-23.93-15.6q-38-147.27-76.61-294.41c-3.55-13.48,0-21.13,13.65-23.87a21.58,21.58,0,0,0,2.28-.53c59.17-18.18,59.11-18.15,89.89,35.41,12.34,21.48,25,42.79,37.45,64.11,10.18-4.23,7-11.43,7.07-16.86.5-32.77.85-65.55.51-98.32-.14-13.91,5.38-21.86,19-25.09,77-18.35,58.94-25.65,77.58,43,22.08,81.3,43.22,162.86,64.6,244.35,7.39,28.14-7.46,44.37-36.67,40.49-13.72-1.83-13.34-14-15.75-23.11-16-60.33-31.42-120.81-47.12-181.21-2.93-11.28-6.31-22.44-10.76-38.17-6.87,15-6,26.9-6.17,38.53-.4,29.65-1.25,59.31-.75,89,.31,18.22-8.15,25.75-25.1,30.39s-23.94-2.45-31.47-15.34c-21.17-36.23-43.35-71.87-65.13-107.74Z"/><path class="cls-1" d="M2592.48,244.39c-6.24,25.67-13.29,51.18-18.47,77.06-3.69,18.45-10.39,28.71-32,28.38-21.27-.33-34.4-3.83-40-27.81-17.59-75.44-26.31-152-32.86-228.92-1.78-21-2.61-42-4.63-62.94-1.79-18.48,6.27-25.28,24.25-24.89,17,.36,33-2.07,33.08,23.5.19,60.87,6.47,121.36,14.48,181.67,1,7.6,0,15.72,9.09,25.71,5.92-25.22,11.63-47.74,16.41-70.45,3.58-17,7.59-30.12,30.34-30.53s29.64,10.51,34.15,29.39c5.41,22.64,13,44.75,21.63,73.78,6.23-21.57,7.92-36.93,8-52.54.46-52.26,1.44-104.53.92-156.78C2656.7,7.76,2665.14.27,2686,0c21.14-.26,24.24,10.67,24.32,27.85.47,96-1.93,191.79-19.12,286.6-4.87,26.83-25.47,39.39-52.12,32.8-10.42-2.58-12.45-11-15-19-9-28.05-17.67-56.19-26.46-84.3Z"/><path class="cls-1" d="M4973,359.51c-.79,51.11-23.85,82.89-73.06,98.2-15.23,4.74-17,12.82-13.09,26.38,11.32,39.73,21.49,79.79,33,119.47,5.35,18.48-.07,21.35-17.89,18.27-27.73-4.78-44-16.79-48.85-46.75-5.62-34.51-17.08-68-24.61-102.27-3.76-17.08-14.61-23.11-29.69-24.06-16.43-1.05-14.63,13.64-17.35,23.11-8.4,29.21-16.74,58.5-23.36,88.14-5,22.55-18.81,17.35-33.89,14.21-16.53-3.44-24.34-9.69-19.16-28.69,25.63-94,50.81-188.14,74.85-282.57,5.5-21.6,15.56-25.71,35-19.11,36.07,12.22,74.89,15.87,108.84,34.79C4955.46,296.29,4975,321.35,4973,359.51Zm-108.15,49.15c18.23.14,33.93-4.08,42.22-22.85,8-18,13-36.32-1.15-52.87-18.44-21.53-45.37-30.71-71.27-29.89-18.83.6-12.35,26.69-19.25,40.45-1,2-1.09,4.54-1.67,6.81-12.28,48.11-6.71,55.49,44.1,58.34C4860.19,408.78,4862.54,408.66,4864.88,408.66Z"/><path class="cls-1" d="M1810.15,181.48c1.23,29.92-11.09,55.72-38.65,72.81-12.84,8-13,14.52-4,25.72,26.4,32.84,52.13,66.22,77.7,99.71,12.84,16.81,10.41,20.09-10.38,24.94-26.6,6.2-45.46-.23-60.95-24.17-19.47-30.08-43-57.51-63.44-87-9.56-13.78-20.44-14.63-34.36-10.14-16,5.17-9.71,17-8.43,27.22,4,31.73,7.63,63.53,12.52,95.12,3.27,21.05-11.77,20.48-24.49,22.36-13.13,1.95-26.94,4.93-29.61-15.45q-19.72-150.81-40.28-301.52c-1.3-9.62-.07-18.48,10.79-19.81,41.67-5.12,83-16.85,125.28-12.29C1781.57,85.41,1809.82,118.56,1810.15,181.48ZM1693,128.61c-46.5.6-49.14,3.64-43,49.38.52,3.87.77,7.77,1.27,11.64,6.32,48.44,7.22,49.05,54.62,37.35,33.66-8.3,48.91-26.78,45.34-54.93C1747.32,141.27,1729.72,128.13,1693,128.61Z"/><path class="cls-1" d="M4082.5,124.2c-13,91.84-27.33,191.42-41,291.09-3.18,23.1-18.9,18.22-33.39,17.09-16.81-1.3-22.64-10.55-20.19-27,5.29-35.47,9.4-71.13,15.05-106.55,2.59-16.25-3.16-23-19.05-24.7-21.71-2.25-43.3-5.65-64.9-8.89-15-2.24-23.08,2-25,18.84-4,35.63-10.91,71-14.62,106.61-2.71,26.05-19.11,20.54-35.44,19-17.58-1.64-21.61-10.91-19.3-27.18q20.91-147.09,40.63-294.35c2.45-18.46,10.95-24.08,28.34-20.53,15.41,3.15,31.48,2.8,26.46,27.54-6.2,30.51-8.47,61.8-13.6,92.56-2.87,17.24.93,26.74,20.14,28.36,21.73,1.83,43.31,5.5,64.9,8.76,15.29,2.32,22.7-2.38,24.39-19.19,3.19-31.79,9.59-63.25,12.87-95,2-19.47,12.08-22.72,28.61-20.33C4082.36,93.92,4084.17,95.35,4082.5,124.2Z"/><path class="cls-1" d="M1137.69,185.06c-1.4-8.52,2.84-14.3,13.32-16.3q85-16.27,169.89-33c18.87-3.71,19.18,9.68,22.27,22.1,3.47,13.95.65,22.8-14.55,25.7-35.23,6.71-70.3,14.29-105.66,20.16-19.22,3.19-25.2,12.57-20.56,30.79,2.7,10.56,5.66,21.32,6.25,32.11,1.34,24.7,15.66,27.08,35.34,22.92,27.46-5.79,55.14-10.54,82.48-16.81,19.74-4.52,21.7,8.51,24.76,22s4.49,24.58-13.89,27.75c-30.71,5.3-61.16,12.16-91.87,17.52-15,2.63-22.25,8.24-18,25a444.72,444.72,0,0,1,10.81,57.42c2.13,18.2,11.11,21.21,27.17,17.82,36.6-7.73,73.53-13.93,110.11-21.77,16.58-3.56,24.61.86,27.24,18.25,2.39,15.82,5.27,28.82-16.72,32.66-55.28,9.66-110.41,20.24-165.43,31.32-14.53,2.93-22.52-.73-25.36-15.34q-28.32-145.77-56.7-291.54C1138.16,191.6,1138.11,189.24,1137.69,185.06Z"/><path class="cls-1" d="M4361.57,144.27c51.51,10.49,108.88,22.11,166.23,33.89,17.05,3.5,13.87,15.65,11.53,27.57-2.46,12.51-5.79,22.86-22.52,19.31-36.65-7.79-73.59-14.23-110.07-22.7-16-3.72-22.34,1.09-26.41,16.41-16.74,63-17.13,62.94,45.05,76.67,19.05,4.21,38.12,8.34,57.27,12,19.39,3.75,13.85,17.32,11.75,29.22-2.14,12.15-5.23,23.07-22.33,19.5-31.32-6.56-63-11.58-94.25-18.29-14.71-3.15-21.79.44-24,16-2.89,20.05-7.31,39.92-11.83,59.69-3.32,14.55,1.42,21.64,16.36,24.36,36.07,6.59,71.86,14.73,107.94,21.27,17.51,3.17,26.36,9.51,22.48,29.62-3.83,19.81-11.85,25.41-32.09,20.88-51-11.44-102.43-21.2-153.88-30.54-20.19-3.66-27.4-11.38-22.85-33.2,19.41-93.22,37.1-186.81,55.75-280.2C4337.82,155,4337.52,140.61,4361.57,144.27Z"/><path class="cls-1" d="M2956.93,31.8c-.12-19.78,7.21-28.13,27.76-27.21,53,2.38,106,3.72,159,4.79,16.63.33,21.16,8.47,21.15,23.58,0,15.84-4.18,25.6-22.34,24.79-35.05-1.58-70.15-2-105.18-4-19.29-1.1-27,7.12-27.18,25.72-.75,74-6.17,59.66,57.46,62.31,19.47.82,38.89,2.91,58.36,3.34,16.64.37,19.06,10.61,18.3,23.54s-2.19,25.93-20,25.56c-31.2-.65-62.46-.49-93.55-2.64-15-1-22,2.26-22.29,18-.37,18.69-1.23,37.44-3.4,56-2.63,22.49,9.15,29.18,28.64,29.36,33.56.33,67.12,1.36,100.68,1,20.19-.23,30,6.27,29.36,28.46-.64,22.52-13,24.88-30.74,24.23-52.22-1.9-104.46-3.65-156.71-4.43-19.14-.29-26.52-7.91-25.51-26.94C2951.9,296.25,2957.4,105.88,2956.93,31.8Z"/><path class="cls-1" d="M2132.42,273.45c-4.78-55.9-10.42-111.74-13.9-167.73-1.26-20.33-9.76-26.88-27.87-22.53-24.16,5.8-24.06-9.48-26.26-26.25-2.55-19.44,7.59-22.35,22.83-23.35,35-2.32,70-4.69,104.83-8.5,17.57-1.91,25.72,3.39,28.33,21.36,2.55,17.49-1.79,28.38-20.39,28.1-26.82-.41-28.51,12.7-25.86,35.64,6.61,57.25,9.77,114.89,14.62,172.35,2.82,33.34,3.08,33.32,35.69,30.15,25-2.44,30.71,3.61,30.36,29.94-.17,12.26-4.52,19.08-17.27,20-45.85,3.32-91.76,6.2-137.51,10.58-21,2-22.52-10.74-23.94-25.6s2.77-24.66,19.8-24.28a31.67,31.67,0,0,0,4.66-.34c39.76-5.14,37.69-8.82,31.86-37.81-.77-3.78-.47-7.78-.66-11.67Z"/><path class="cls-1" d="M3632.78,60.54c-.25,27.79-4.9,31.79-29.42,29.41-14.73-1.43-29.52-2.31-44.28-3.52-14-1.15-19,5.63-20,19.22-6,80.08-12.69,160.11-19,240.16-2,25.74-6.46,28.39-34.9,26.78-22.43-1.27-21-14.08-19.53-30.62,7-77.64,13.11-155.38,19.44-233.08,2.23-27.46-.57-30.27-28.87-31.64-10.11-.49-20.25-1.32-30.27-2.72-28.25-4-29.52-6.67-25-34.17,2.14-13,9-17.26,20.75-16.34q96.78,7.53,193.55,15.21C3630.62,40.45,3634.68,50,3632.78,60.54Z"/><path class="cls-1" d="M3035.93,1237.42c-.33-82.68-9.21-59.74,67.14-68.68,13.6-1.6,28.1,1.17,41.74,4,27.79,5.87,46.6,22.9,51,51.35,4.54,29.25,4.69,59.32-24.5,77.48-15.89,9.89-15,18.25-5.58,31.52,12.16,17.18,23.55,35,34,53.28,5.49,9.64,20.64,19,7.65,32.07-9.67,9.74-39.48,3-47.87-10-12.71-19.65-24.58-39.86-36.86-59.79-3.68-6-7.19-12.1-11.4-17.69-4.6-6.11-11-8.77-18.63-6.33s-7.84,9.11-7.72,15.4c.37,19.5.17,39.07,1.88,58.46,1.34,15.14.43,26.18-18.49,27.88-19.36,1.73-27.3-6.58-27.22-25.29C3041.26,1348.15,3035.94,1239,3035.93,1237.42Zm39.56,5.57c.6,39.45,1.94,41.5,27.09,41.37,34-.18,52.8-14.25,52.59-39.41-.24-27.81-16.35-39.32-54.27-38.75C3075.45,1206.58,3075,1207.31,3075.49,1243Z"/><path class="cls-1" d="M2380.37,1345.36c3.48-42,4.81-96.59,4.79-151.16,0-20.12,8.35-27.12,28.37-26.89,104.88,1.2,167,84.1,134.23,179.53-13.93,40.49-44,60.78-83.74,69.81-3.79.86-7.71,1.12-11.57,1.73C2381.12,1429.64,2379.21,1428.05,2380.37,1345.36Zm126.27-46.07c-.08-44.13-20.27-73.26-56.67-83.71-14.16-4.06-20.58-.85-20.9,14.39-.9,42.74.18,85.56-4.53,128.18-1.95,17.64,7.14,21.31,22.91,18.06C2487.38,1368,2506.73,1343.29,2506.64,1299.29Z"/><path class="cls-1" d="M2782.47,1427.18c-18.71,0-37.45-.46-56.14.14-15.72.51-22.85-6-22.82-21.94q.16-104.12-.36-208.23c-.06-14.68,6.76-21,21.42-21.05,35.06-.06,70.12.67,105.13-3,14.31-1.49,29.2-.43,29.86,20.18.72,22.41-15.22,22-30.39,22.2-21.05.32-42.11.25-63.17.25-24.77,0-17.66,18.69-18.45,32.13s-1.93,27.69,18.85,27c19.48-.62,39,.09,58.48-.29,15.07-.29,20.92,7,20.71,21.53s-8.05,18.79-21,18.65c-19.49-.21-39,.22-58.49.08-12.65-.08-18.55,5.81-18.51,18.47.23,63.34-4.1,52.84,49.08,53.63,16.37.25,32.75.21,49.13.22,14.36,0,18.67,8.32,18.46,21.23-.2,12.56-6.12,18.66-18.62,18.64q-31.59,0-63.18,0Z"/><path class="cls-1" d="M4159.25,1014.8c5-20.68,9.59-42.87,15.87-64.57,4.67-16.14-.72-24.63-15.73-30.54-18.12-7.13-35.65-15.79-53.27-24.14-5.31-2.52-14-4.18-12.12-11.81,1.68-6.75,10.11-5.93,16.22-6.51,18.63-1.75,37.25-4.39,55.91-4.73,19.17-.34,26-10,26.95-27.6,1-18.66,3.37-37.26,5.28-55.87.62-6.09-.19-14.53,6.63-16.15,7.73-1.85,9.2,6.94,11.56,12.28,7.58,17.11,15.45,34.17,21.74,51.77,6.39,17.89,17,24.49,35.79,19.51,17.32-4.59,35-7.75,52.66-11,6.56-1.22,15.56-5.59,19.42,1.4,4.24,7.69-5.08,11.81-10,16.16-14.63,12.89-29.32,25.74-44.53,37.94-11.87,9.52-13.59,19.18-5.29,32.27,11.68,18.44,22.15,37.65,32.9,56.67,2.5,4.42,7.72,9.61,1.91,14.44-4.13,3.44-8.8-.44-12.75-2.74-17.55-10.19-35.89-19.27-52.3-31-17.08-12.25-28.89-9.23-41.45,6.28-13.22,16.33-28.16,31.29-42.49,46.72-2.58,2.78-5.72,6.13-10,4.64C4155.71,1025.88,4158.84,1020.52,4159.25,1014.8Z"/><path class="cls-1" d="M1310.72,844.37c17.76,3.59,36.51,6,54.39,11.33,21.87,6.49,33.9-.84,41-21.67,5.51-16.22,12.81-31.86,19.74-47.57,2.42-5.48,4.29-13.89,11.53-13,7.73.92,6.41,9.51,7.1,15.45q3.67,31.36,7,62.8c1.43,13.82,8,20.29,22.74,20.69,21,.57,42,3.2,63,5.13,5.35.49,12.47.4,13.71,6.6,1.33,6.61-5.75,8.36-10.56,10.6-19.82,9.23-39.39,19.09-59.68,27.16-14,5.56-16.73,13.64-12.8,27.3,5.81,20.25,10.45,40.84,15.1,61.39,1.27,5.58,6,13.19-1.46,16.79s-10.42-5-14.44-9.18c-14.72-15.09-29.85-29.9-43.2-46.15-10.17-12.4-19.38-12.56-31.93-4.43-18.33,11.88-37.29,22.8-56.17,33.83-4.36,2.54-9.62,7.84-14.48,2.09-3.37-4,.29-8.9,2.55-12.88,9.64-17,18.38-34.59,29.49-50.55,13.29-19.08,8.93-32.29-8.71-45.23-14.42-10.59-27.37-23.2-40.89-35-3.45-3-8.05-6.17-5.87-11.54C1300,842.73,1305.62,844.69,1310.72,844.37Z"/><path class="cls-1" d="M1842.59,1277.41c.08,16.38-.82,33,7.29,48.07,11.72,21.82,29.32,24.46,47.11,7.36,3.33-3.2,6.36-7.84,10.35-9,11.45-3.34,24.54-4.79,33.12,4.39s.19,19.32-4.92,27.61c-22,35.76-78.61,40.5-110.62,9.48a88,88,0,0,1-11.79-14.49c-35-52.68-19.65-167.26,27.8-209,37.5-33,99.85-19.22,115.08,25.61,3.19,9.38,8.49,21.59-3.35,27.13-12.1,5.65-26.16,5.31-36.07-7-25.41-31.6-45.36-28.84-60.36,9.56C1846.21,1222.75,1842.16,1249.8,1842.59,1277.41Z"/><path class="cls-1" d="M3438.93,1260c-2.83-35.88,3.21-66.68,24.6-93.08,28.68-35.4,86.75-35.82,112.51-.23,7.3,10.09,19.36,23.91,4.56,34.53-11.88,8.51-27.28,8.44-39.74-5.87-17-19.54-38.4-16.72-47.29,7.5-18.24,49.66-11,98.76,13.15,144.51,10.75,20.41,34.66,18.77,47-1.48,6.09-10,13-14.5,24.2-14.81,20-.54,25.37,6.32,19.64,25.83-14.12,48.09-80.41,62.93-119.31,26.17-27.9-26.35-35.09-61.69-39.17-97.81C3438,1276,3438.93,1266.54,3438.93,1260Z"/><path class="cls-1" d="M3827.09,1227.13c-.46,51.29-36.45,86.59-87.57,85.89-46.1-.64-80.6-42.42-80.12-97.06.44-50.83,35.11-85.79,85-85.7C3792.53,1130.35,3827.59,1171.41,3827.09,1227.13Zm-40.65-2c-.15-11-1.08-21.79-5.81-31.93-13.63-29.17-52-34.79-71.33-10.14-12.6,16.1-12.94,34.69-8.05,53.44,7.55,28.91,24.91,42,49.8,38.6C3773.3,1272,3786.61,1253.22,3786.44,1225.11Z"/><path class="cls-1" d="M2194.51,1196.8c-4.68,62.94-9.5,125.86-13.9,188.82-1,13.64-5.14,22.66-20.83,21.65-15.38-1-25.13-6.68-23.86-24.36,5.08-70.72,9.76-141.47,14.79-212.2,1.13-15.9,12.35-17.79,25.22-17.11s21.13,5.12,19.69,19.82c-.76,7.76-1.06,15.56-1.56,23.35Z"/><path class="cls-1" d="M3810.44,1335c12.32-1,26.37-5.39,28.28,14,1.78,18.17-11.83,19.43-24.46,21-28.61,3.45-57.21,7.18-85.91,9.55-10.51.86-25.31,5.76-27.3-12.6-1.85-17.11,9.73-20.45,23.53-21.89C3753.23,1342.05,3781.82,1338.39,3810.44,1335Z"/></svg>