<svg id="Layer_1" data-name="Layer 1" xmlns="http://www.w3.org/2000/svg" viewBox="0 0 1867.47 1427.35"><defs><style>.cls-1{fill:#90ba4e;}.cls-2{fill:#88303c;}</style></defs><path class="cls-1" d="M1494.81,474.84a10.29,10.29,0,0,1-3.19,0c-8.81-3-22,3.26-25.48-10.77-1.65-6.71,16.28-26.5,25-27.18,11.48-.89,23.5-3,34.12,4.7,5.15,3.73,14.19,6.35,14.08,11.89-.15,7.31-8.27,11.72-15,15.39C1515.08,473.88,1505,474.63,1494.81,474.84Z"/><path class="cls-2" d="M193.68,1385.18l5.71.65c66.23.49,132.46,1.32,198.69,1.41q629.45.83,1258.87,1.38a85.7,85.7,0,0,1,9.62.06c7.62.87,10.11-2.12,10.06-9.89-.44-67.33-.51-134.65-.69-202l-.69-2.86c-4.93-3.18-10.41-1.51-15.6-1.53q-156.44-.39-312.86-.52-568.75-.62-1137.52-1.61c-15.28,0-18.16,4.48-18,18.57.69,60.42.11,120.85.27,181.27C191.55,1375.1,189,1380.77,193.68,1385.18Zm86.11-91.1c7.7,12.77,20,14.75,33.7,11,4.48-1.23,8.43-6.72,13.08-3.94,4.86,2.91,10.19,7.13,12.29,12.07,2.59,6.12-4.61,8.8-8.74,11.25-8.83,5.26-17,13.53-26.72,9.18-20.92-.21-49.18-20.41-54.56-37.44-6.21-19.68,2.49-45.53,20.06-59.56,17.22-13.76,43.42-15.85,61.38-4.23,4.06,2.62,13.36,5.24,7.16,12.25-4.32,4.88-6.68,17.56-19.26,9s-25.75-4.15-35.44,4.94C272.28,1268.47,272.54,1282.06,279.79,1294.08Zm65.69-14.84c-.47-29.17,24.33-54.43,53.84-53.85,33.26.65,53.67,21.44,55.2,53.24,1,30.58-26.84,54.69-57.17,56.73C374.12,1336.93,345.91,1305.13,345.48,1279.24Zm128-53.61,63.16.31h0c5.81,20.14,5,22-13.91,26.41a51.91,51.91,0,0,1-26.42-.68c-5.37,14.95,3.57,14.81,14.57,15.31,7.77.35,20.87-7.22,21.59,10,.34,8.28-1.61,13.55-11.42,12.7-5.84-.52-11.78.25-17.63-.18-7.79-.57-8.46,3.76-8.44,10,0,5.85,1.31,9.07,7.95,8.82,8.55-.33,17.14.4,25.66-.16,8.81-.59,10.86,3.48,10.83,11.43s-2.25,11.67-11,11.43c-19.24-.52-38.5-.24-57.75-.28q-.37-51.17-.74-102.33Zm-5,103.79a6,6,0,0,1-1.74-2.83A6,6,0,0,0,468.52,1329.42Zm116.94-94a18,18,0,0,1,0,3.36A18,18,0,0,0,585.46,1235.47Zm-.9-3.29a9,9,0,0,1,.87,3A9,9,0,0,0,584.56,1232.18Zm-3.17,39.48c.57,9.72-3.92,20.21,3.49,29.13,10.3,8.83,20,9,28.83-2.08h0c3.41-22,1.45-44,1.2-66.1,7.63-11,17.6-6.8,27.33-4.21q-.36,38.29-.73,76.58c-14.77,23-33.67,36.1-53.42,28.52-16.79-6.45-29.28-17.58-34.35-35.6q.42-34.7.85-69.4c8.8-4.11,17.6-3.54,26.41,0C581.06,1242.86,580.55,1257.3,581.39,1271.66Zm65.28-17c-.07,2.22-.2,4.45-.35,6.68C646.47,1259.16,646.6,1256.93,646.67,1254.71Zm-1,16.7q.16-3.33.41-6.68Q645.86,1268.08,645.69,1271.41Zm-2.54-40.88a44.81,44.81,0,0,1,2.75,9.74A44.81,44.81,0,0,0,643.15,1230.53Zm19.29,6.76c0-4.32-.11-8.58,3.42-11.84,20,1.77,40.43-2.75,60.22,3.41,23.34,21.12,24.07,36.39,2,56.75-3.94,3.63-5,6-2.3,10.5,3.56,5.93,7.35,11.86,9.89,18.25,2,5.05,11.72,11.67,3.21,15.35-7.19,3.12-19.14,6.33-25.34-5.41-4-7.54-8.07-15-11.7-22.75-2.05-4.37-4.81-7.1-9.74-6.57-6.69.73-4.35,6.17-4.66,10a62.13,62.13,0,0,0,0,12.79c1.36,10.73-3.35,13.55-13.66,13.66-11.24.11-11.6-5.69-11.5-14.06C662.57,1290.64,662.45,1264,662.44,1237.29Zm4.53-15.71a2.14,2.14,0,0,1,.51-.41A2.14,2.14,0,0,0,667,1221.58Zm1.74-.76a5.71,5.71,0,0,1,1.4.13c.48.1,1,.24,1.46.39-.49-.15-1-.29-1.46-.39A5.71,5.71,0,0,0,668.71,1220.82Zm130.38,22.11c.24-6.1-2-13,5-17.19l43,.12c22.75,5.89,39.78,20,44.55,42.45,5.06,23.86-5.66,45.07-27,56.59-21,11.3-44.35,9-66.88,1.77l-.09-13.9C800.63,1289.54,798.2,1266.2,799.09,1242.93Zm-4.49,84.48h0Zm128.56-56.59c-2.5,2.87-4.75,5.9-9.13,2.73-3.64-2.63-4.35-5.41-1.88-9.39,2.82-4.55,5.17-7.91-2.59-12-6-3.16-9.41-11.74-5.06-19.53,3.06-5.49,8.46-8.52,14.8-6.6,8.85,2.68,12,9.73,12,19.62C929.86,1253.67,929.78,1263.23,923.16,1270.82ZM934.82,1316q18.34-39.88,37.44-79.41c1.94-4,2.71-10.5,8.59-10.28,4.65.18,5.75,5.77,7.53,9.5,13.24,27.82,26.1,55.84,39.66,83.51,5.43,11.08,1,13.15-8.62,11.93-6.81.43-13.51.9-15.88-7.28-1.4-4.85-4.37-4.78-8.49-3.9-14.42,3.09-31.23-6.58-43.57,9.92-3,4-14.26,3.59-19.62-.19S932.83,1320.34,934.82,1316Zm143.11-7.31c5.28-.59,10.72.3,16-.18,8.68-.78,11,3.23,10.87,11.31-.14,7.51-1.25,12.33-10.39,12-17.62-.69-35.25-.77-52.88-1.1q-.16-51.17-.34-102.33c24.74-4.51,25.19-4.14,25.18,20.66,0,16,.51,32.12-.22,48.13C1065.75,1306.44,1068.88,1309.7,1077.93,1308.69Zm-39.35,21.49a3.52,3.52,0,0,1-.45-.18A3.52,3.52,0,0,0,1038.58,1330.18Zm-1.15-.66a2,2,0,0,1-.59-.91A2,2,0,0,0,1037.43,1329.52Zm79.71-91.78c-.07-7.47,2.45-10.57,10.13-10.4,16,.37,32,.5,48,0,9-.28,10.47,4.11,10.45,11.75s-1.49,12.36-10.53,11.69c-6.9-.52-13.87-.23-20.81-.07-5.54.14-11.83-1.7-12.1,8-.26,9.47,5.38,8.61,11.36,8.53,4.27-.06,8.57.33,12.81-.07,8.57-.83,12.59,1.81,12.5,11.38-.08,9.06-3.1,12.14-12.12,12.11-7.64,0-15.78-3-23.07,2h0c-.14,5.38-4.85,11.57,2.76,15.58,9,.22,18.14,1,27.16.5s12.08,2.42,12.09,11.69c0,9.7-4.11,11.64-12.56,11.36q-22.39-.73-44.84-.07c-7.94.22-11.53-1.89-11.38-10.67C1117.49,1293.25,1117.4,1265.49,1117.14,1237.74Zm151.8,1.24c-.65-10.62,4.46-12.36,13.42-12.4s12.17,2.81,12,12c-.53,28.29-.21,56.59-.3,84.88,0,3.06,1.06,6.81-2.28,8.72-4.39,2.5-6.85-1.42-9.42-3.84q-24.42-23-48.67-46.24c-.9-1.1-1.51-2.82-3.47-1.71-.38.22-1,.59-1,.89q-.11,22.64-.11,45.27c-7.53,9-17.25,4.21-26.21,4.14h0q-.53-50.81-1-101.61c7-7.08,11.31-.83,15.81,3.43,16.19,15.3,32.3,30.68,51.42,48.87C1269.12,1264.93,1269.73,1251.92,1268.94,1239Zm47.32,45.46c-.62-15.46.12-31-.21-46.45-.16-7.41,2.33-10.63,10.09-10.45,16,.38,32,.51,48.06,0,9-.29,10.51,4.06,10.46,11.71s-1.4,12.34-10.49,11.71c-8-.56-16-.25-24,0-3.34.08-8-1.71-8.55,4.21-.52,5.25.8,10,6.27,11.49,4,1.08,8.46.65,12.71.69,19.36.21,22.17,5.45,13,24.42l-20.81-.38c-5.83-.1-11.24-1.25-11.45,8.27-.23,10.37,5.73,9.22,12.19,9.24,10.14,0,20.28.29,30.41.46,1.1,22.51,1.1,22.82-21.28,22.38-14.82-.29-34.14,6.37-43.3-2.62C1309.44,1319.29,1316.86,1299.71,1316.26,1284.44Zm45.47,11.2a22.35,22.35,0,0,0,5.19.59A22.41,22.41,0,0,1,1361.73,1295.64Zm46.48,35.56c-7.37-1-10.83-6.29-10.71-13.6.1-6.51,3.86-11.07,9.34-13.8,6.19-3.08,12.86-2.77,17.71,2.37,5.32,5.63,10.78,11.63,11,21.38-4,10.36-7.46,22-14.82,31.82-2.63,3.51-5.77,4.56-9.56,1.82-3.31-2.39-5.2-5.08-2.69-9.38,1.85-3.17,2.77-6.9,4.65-10.06C1416.88,1335.52,1416,1332.31,1408.21,1331.2ZM1517.68,1231a6.91,6.91,0,0,1,.81,2A6.91,6.91,0,0,0,1517.68,1231Zm-3.43,99.64c-3.63.67-7.44.85-10.86,2.11-10,3.69-13.91-.75-14-10.09-.12-28.61-1.1-57.27.4-85.8,1-18.37,15.78-6.72,24.43-8.4ZM1574.86,1228c25.78.11,47.09,15.64,52.66,38.09,5.91,23.8-5.54,52-28.6,61.92-19.9,8.53-41.89,4.11-63.05,2.72q.3-51.1.59-102.23C1549.26,1228.31,1562.06,1227.93,1574.86,1228Zm-39,102.73h0a298,298,0,0,1-4.74-37.93A298,298,0,0,0,1535.87,1330.72ZM1531,1266.8q-.32,6.39-.29,12.78,0-6.39.29-12.78t1-12.77Q1531.32,1260.41,1531,1266.8Z"/><path class="cls-2" d="M231.62,824.55c-.08,32-.35,64-.06,95.92.05,5.32-2.68,11.84,3.57,16,1.06,33.88,8.14,63.83,42.77,80.81,14.68,7.19,28.84,14.25,44.85,18.17,47.45,11.61,94.53-4.06,123.35-42.69,15.08-20.21,17-44.89,16.87-69.44-.91-17.27,6.65-35-2.94-51.78-10.71-9.7-15.23-9.58-22.48.6q-.29,23.67-.58,47.35c-1.05,6.22-2.42,12.4-3.09,18.66-4.44,41.56-19,58.72-58.11,68.24l-34.58.49c-3.76-4.15-9.46-4.65-14.07-8.09-19.25-14.37-24.5-35.61-31.31-56.36.29-17,2.39-34,.14-51l0-38.84c.91-15.89,2.18-31.78-.23-47.65,0-44.37-1.67-88.81.4-133.08,1.75-37.24-3.56-75.61,16.32-110.89,14-24.75,46.46-38.12,75.13-27.26,21.72,8.22,30.93,33,21.87,61.27-4.82,15.05-11.94,29.37-16.41,44.5-3.81,12.91.67,24.66,11.9,32.4,11.71,8.08,23.4,5.4,34.07-2.87,13.39-10.38,21.24-23.18,20.54-41.12-.8-20.35-2.15-40.45-7-60.34-9.89-40.89-40.85-63.17-82.56-58.82-6.88.72-13.6,5.27-19.33,5.42-48.84,1.29-75.83,31.6-97.19,70.25-13.64,24.69-14.72,52.67-20.94,79.31-2.41,18.91-1.3,37.88-.92,56.84C228.68,755.24,225.54,789.9,231.62,824.55Z"/><path class="cls-2" d="M511.57,1001.94c-10.59.62-17.46,5.68-16.69,16.75.75,10.82,9.1,12.19,17.72,10.74,35.13-5.88,70.3-1.84,105.46-.85,7.47.21,14.94.61,22.41.67,10.47.09,18.48-3.9,17.62-15.57-.76-10.17-5.85-16-18.13-14.67-16.1,1.82-26.25-6.81-28.85-22.94-1.09-6.75-.45-13.78-.59-20.69.44-42.71,3.55-85.41,0-128.12,1.16-31.13,1.39-62.25-.06-93.37,1.06-20.19,2.09-40.38,0-60.56l.06-19.66q.39-10.77.8-21.53c4-22.56,4.16-45.22,1.39-67.92-3-24.47-4.27-48.22,24-60.18,15.9-9,17.2-13.07,6.87-21.7,0,0,.06.66.06.66-9-6.8-17.73-3.4-26.48.56-28,8.5-56.81,6.92-85.44,7.21a60.6,60.6,0,0,0-22,3.85c-6.53,2.59-10.44,8-9.76,14.94.79,8,7.13,9.31,14.07,9.67,21.69,1.13,28,8.27,29,30.34.84,19-.71,38.35,6.54,56.63l.5,73.19c.14,58.69.91,117.39.19,176.08-.5,39.91,2.13,80.09-6.78,119.58C539.18,993.5,530.83,1000.8,511.57,1001.94Z"/><path class="cls-2" d="M204.73,94.18c15.45-3.4,30.8-7.75,46.23-10.55,29.23-5.29,59-9,87.91-14.93,29.4-6,59.36-6.49,88.68-14,27.52-7,56.89-7.46,85.54-9.31,27.38-1.77,53.72-10.86,81.22-10.82,51.84.06,103.28-6.11,154.91-9.39l18.58-.58A544.93,544.93,0,0,0,835.88,22l50.6-.68h80.68l50.65.66a552.73,552.73,0,0,0,68.08,2.57c18.12-.09,35.93,5.33,54.18,3.09l6.81.09,15.4.63c36.7,6,74,3.73,110.89,9.28,36.06,5.42,73.32,3.75,109,10.72,34.83,6.8,70.2,8.76,104.9,15.9,21.83,4.49,44.19,6.78,66.33,9.73,35.65,4.75,70.6,14.59,106,21.74,3.88.78,11.6,6.85,12.44-2.83.57-6.65,5-16.33-8.54-18.21-15.22-2.12-31.15-2.82-45.51-6.47-42.44-10.8-85.39-18-128.52-24.61C1420.68,33.2,1352,25,1282.82,19.32c-30.68-2.5-61.43-5.46-92.24-7.11a49.17,49.17,0,0,1-15.22-3c-14.83-2.32-29.65-.34-44.47.13l-10.08-3.37c-21.26-2.24-42.52.17-63.78.09L1047,2.8l-9.35-.28C961.66-1.62,885.7.23,809.74,1.81c-4.16.08-6.84,2.32-9.91,4.25-22.3,0-44.6-2.29-66.91,0-12.13-.65-24.19-.28-36.1,2.48l-18.43.78c-28,3.05-56.35,3-83.94,9.57L566,18.77c-2.79-.67-5.6-1.41-6.73,2.45L533.9,22c-9.52-2.52-18,7.13-25.65,4.74-14-4.39-25.88,3.56-39.29,3C452,29,434.61,33.84,417.83,38c-23.41,5.81-47.42,7.05-71.12,9.65-15.68,1.72-30,7.45-45.47,9.6C267.56,62,233.38,64,200.74,75.56c-8.74,3.1-9.72,7.53-8.6,13.76C193.4,96.33,199.27,95.38,204.73,94.18Z"/><path class="cls-2" d="M205.3,421c45-9.36,89.63-21.35,135.79-24.31,8.06-.52,14.17-6.29,22.75-5.73,26.6,1.73,51.81-8.35,78.17-10.32,18.43-1.38,37-5.7,55.32-8.28,29-4.07,58.73-3.65,87.92-7.92l73.4-6.17,3.6-.16c15.08,2.42,29.64-2.95,44.56-3,13.16.41,26.28.14,39.23-2.6l24.92-.66c20.61.39,41.18-.11,61.66-2.59l60.3-.61,67.82,0,63.47.67c19.42,2.6,39,2.86,58.5,2.51l25,.69c5.27.69,10.51,1.66,15.8,2,47.67,3.19,95.36,5.8,143,9.94,28.27,2.46,56.42,4.72,84.47,9.19,43.18,6.89,87,8.43,130.07,17.19,24.43,5,49.93,6.16,74.08,11.23,34.06,7.15,69,10.16,102.42,20.61,4.23,1.33,11.45,5.76,14.19-3.58,3-10.25-4.15-14.63-11.31-16.11-44.14-9.11-88.33-18.08-132.72-25.83-39.13-6.84-78.5-12.37-117.86-17.82-24-3.32-48.3-8.17-72.27-7.26-26,1-50.29-7.67-76.17-7.65-28.57,0-57.07-7.64-86-7.87-14.82-2.41-29.63-.4-44.44.06l-10-3.43-21.81-.57c-17.26-3-34.65-3.2-52.09-2.53-80.07-2.74-160.14-2.89-240.21.11-17.45-.85-34.85-.44-52.12,2.45l-21.76.66c-19.81-2.77-38.53,5.93-58.11,5.56l-38.15.86c-30.23.5-59.76,7.48-89.8,9.74-17.71,1.33-35.8.63-53.07,4.08-21.65,4.33-43.79,4.53-65.28,10.74-27.15,7.85-56,5-83.88,12.24-35.68,9.31-72.93,12.8-109.62,17.93-10.84,1.51-21.14,7.5-31.5,6.62-13.61-1.15-12.17,6.42-11.95,14.49C191.86,427.63,200,422.14,205.3,421Z"/><path class="cls-2" d="M1667.83,1407.49c-67.89.46-135.78.6-203.67.83-98.88-.27-197.77-.69-296.65-.75q-185.21-.12-370.41.23c-3.17-.31-6.34-.88-9.51-.89q-290.36-.3-580.71-.47c-3.7,0-7.4.64-11.1,1a1.43,1.43,0,0,0-2.12.74c-3.65,5.22-3.63,10.45,0,15.68l.85.91,1.25-.09c6.37.37,12.74,1,19.11,1.06q186.92.32,373.84.49,533.49.52,1067,1c4.28,0,8.58-.3,12.83.06,8.25.72,7.82-4.53,8-10.26C1676.79,1410.52,1675.3,1407.43,1667.83,1407.49Z"/><path class="cls-2" d="M1659.83,1133.73q-725.2-.92-1450.4-1.63a85.7,85.7,0,0,1-9.62-.06c-6.6-.77-8.61,2.53-8.14,8.41.43,5.43-2,13.19,8.51,10.36,1.59.15,3.18.45,4.78.45q729.59.52,1459.16.88c4,0,9.89,3,11.84-4,0-3.27,0-6.54,0-9.81.07-.35.28-.75.19-1a13.57,13.57,0,0,0-.83-1.83C1670.5,1131.88,1665,1133.74,1659.83,1133.73Z"/><path class="cls-2" d="M196.55,374.17c11.88-6.94,25.55-4,38.17-6.89,21.88-5,43.62-12.21,65.79-14.14,51.93-4.53,102.61-17.06,154.46-22,24.24-2.31,48.64-8.79,72.45-9.79,45.19-1.91,89.59-11.47,134.81-11.27,14,2,27.49-3.07,41.36-3.1l10-.13c18.23,2,36-3.51,54.15-3.16,16.43.46,32.84.54,49.1-2.36l66.45-.84h87.1l69.59.91c16.26,3,32.68,2.78,49.11,2.39h0l27.94.8c4.7.71,9.38,1.83,14.1,2.08,75.9,4,151.68,9.37,227,19.8,39,5.39,78.15,9.14,117.11,15,32.12,4.85,64.59,8.75,96.42,14.82,29.55,5.64,59.14,11.78,88.63,18.1,6.26,2.1,10.9,3.27,10.88-6.68q-.27-115.36.43-230.75c.07-9.31-4.21-10.79-11.47-10.59-76.39-19-154.31-29.43-232-40.67-52.68-7.61-105.58-13.62-158.84-16.92-13.45-.83-27.52.24-40.65-2.78-32.44-7.45-65.36-7.15-98.21-8.61l-24.78-.84c-7.91-.8-15.79-2-23.71-2.34-73-2.8-146-4.54-219.07-2.53-37.23,1-74.56,0-111.63,4.81l-24.73.82c-4.42-2.14-6.9,1.64-10.07,3.3L675,60.42c-20.38-1.59-40.76,2.31-60.32,5.37-16.6,2.59-34.15,4-50.12,4.93-24.16,1.38-48.24,5.15-72.2,7.27a656.2,656.2,0,0,0-73.45,10.5c-24.89,5.1-50.53,6.57-75.74,11-15.18,2.66-30.05,6.75-45.29,9.24-33.84,5.54-68.21,8.23-101.48,17.21-5.63,2.07-3.94,7-4,10.93q-.18,113.72,0,227.44C192.47,367.66,189.24,373.42,196.55,374.17Zm1214.16-96.56a13.45,13.45,0,0,1-1.52-5.4A13.45,13.45,0,0,0,1410.71,277.61Zm-1.44-9.93c-.09,1-.15,1.95-.15,2.92C1409.12,269.63,1409.18,268.65,1409.27,267.68Zm2,10.82c.1.14.17.29.27.43C1411.43,278.79,1411.36,278.64,1411.26,278.5Zm69.27-95.93c18.08-23.09,43.37-27.09,69.45-18.82,31.4,10,62.89,43.53,62.08,85.61,4,24.1-13.1,41.66-32.07,52.77a51.46,51.46,0,0,1-48.7,2.14c-23.61-11.1-42.81-25-54.49-47.9C1464.09,231.43,1462.31,205.84,1480.53,182.57ZM1325.34,139c0-6.57,3.88-9,9.28-7,8.35,3,22.37-3.95,23.68,12a151.61,151.61,0,0,1-.07,28.74c-1.34,12.15,2.49,17.91,15.27,17,4.67-.33,9.45.88,14.18,1.39h0c4.15.62,8.49.66,12.4,2,11.42,3.89,14.16-.49,13.48-11.52-.79-12.54.19-25.18.4-37.77a42.52,42.52,0,0,1,4.78-.25c27.64,1.53,27.64,1.54,27.61,29.41,0,33-.48,65.93.16,98.87.24,12.35-2.22,17.87-15.56,12.92-5.38-2-11.39-2.29-17.11-3.36-.2-10.51-.53-21-.57-31.52-.08-23.21,0-23.21-22.6-23.17-6.58-5.93-15.32-4-23-6-7-1.85-9.15,3.69-9.25,9.59-.19,10.12.14,20.26-.18,30.37-.17,5.31,1.91,14.57-7,12.4s-25.22,5.23-25.71-11C1324.29,221.06,1325.28,180,1325.34,139Zm-90-11.36c6.39-12.84,12.35-7.21,16.35,1.4,16.6,35.73,32.71,71.68,49,107.56,3.08,6.78,5.35,14.1,9.42,20.23,6.48,9.74,3.34,12.23-6.79,11.2-12.14-2.12-25.73-.18-31.54-16.19-3.42-9.43-14.92-5.45-22.36-8.91-6.43-3-14.73-1.72-22.08-3.06-8-1.45-12.59.74-15.8,8.81-3.61,9-28.51,12.41-34.8,5.49-2.76-3-1-6.06.41-8.83Q1206.21,186.42,1235.38,127.61ZM1069,105.11c-5.23-.64-10.56-1.65-15.11,1.48C1058.42,103.46,1063.75,104.47,1069,105.11Zm-18.37,4.67,34-.71c2.57.56,5.17,1.73,7.69,1.59,41.28-2.4,66.72,19.88,80.32,55.57,8.74,22.92,1.82,45.05-15.54,63.46-8.86,9.41-19.92,15.65-29.9,23.43l-27.57-1.22c-12.43-3.59-25.26-2.58-37.91-2.72-8.73-.1-12.46-3-12.33-12.05C1050,194.69,1050.24,152.23,1050.61,109.78Zm-64,126.7c0-40,.17-80,0-120,0-7.75,3.45-10.7,10.66-10.14,7.4.58,14.79,1.36,22.19,2a6.86,6.86,0,0,1,4.17,3.45,6.89,6.89,0,0,0-4.17-3.45c.41,5.81,1.15,11.62,1.17,17.43.17,38.83.19,77.67.26,116.5-9.18,8.89-20.1,3.84-30.25,3.34C985.86,245.39,986.61,240.1,986.61,236.48Zm37.81-122.16a8.82,8.82,0,0,0-.62-2.1A8.82,8.82,0,0,1,1024.42,114.32ZM778,241.87a10.88,10.88,0,0,1-.31-2.45A10.88,10.88,0,0,0,778,241.87Zm.67,1.67a6.51,6.51,0,0,1-.46-1A6.51,6.51,0,0,0,778.63,243.54Zm77.94-48.86a15.76,15.76,0,0,0,2,.72A15.76,15.76,0,0,1,856.57,194.68ZM908,111.18a8.5,8.5,0,0,1,1,3.75A8.5,8.5,0,0,0,908,111.18Zm-93.69-2.73h0c.45,6.82,1.25,13.64,1.28,20.46.11,32.34,0,32.34,32.41,30.49,22.8,1.38,22.8,1.38,22.83-20.27q0-3.19,0-6.39c0-28.85,5.12-32.49,33.77-24.16q.14,67.13.26,134.25c-9.11,11.88-20.53,3.31-29.94,1.71-7.81-1.33-3.06-11.82-4.24-18.18-2.12-11.38,4.45-23.6-3.35-34.42h0l-15.76.17c-11.82.14-24-3.43-35.24,3h0q-.57,25.49-1.13,51c-11.16,4.86-22.33,11.44-33.48,0l0-134.29C792.19,106.11,803.45,109.07,814.35,108.45ZM685,113.2c16.26-1.94,32.83.28,48.88-4l-16.76-2.17,16.76,2.17,27.42.22c.51,4.74,1,9.48,1.55,14.21,1.37,11.7-2.24,18.78-15.59,17.15-14.54-1.77-18.9,4.6-18.07,19,1.29,22.33.3,44.8.28,67.21,0,29.7-5.93,33.61-33.57,22.24h0c-.22-24.5-.56-49-.64-73.51-.1-29.51,0-29.51-28.16-29.91a10.75,10.75,0,0,1-1.58-.23,37.37,37.37,0,0,1-1.68-6.1C661.35,116.94,662.47,115.9,685,113.2ZM542.06,138.54c-.07-9.55,3.77-13.2,13.13-13.84,17.55-1.22,35-3.49,52.56-5.15,17-1.61,31.66,6.59,39.44,21.72s5.68,31.79-5.39,44.83c-5.69,6.71-17,11.2-16.44,19.89.56,8.17,8,15.86,12.49,23.76.79,1.39,1.6,2.77,2.41,4.15,12.64,21.53,12.22,22.7-12.06,27.55-5.59,1.12-10.77,1.69-14.33-5.83-6.36-13.41-14.42-26-21.78-39-2.28-4-3.47-9.89-10-7.85-5.26,1.63-6.36,6.66-6.57,11.42-.34,7.46-1,15.06,0,22.39,3.48,24.84-11.14,30.54-34.65,18.81q0-45.56,0-91.09C543.72,159.84,542.14,149.12,542.06,138.54ZM230,310.45c.29.41.63.83,1,1.25C230.6,311.28,230.26,310.86,230,310.45Zm1.95,2.39.26.34Zm38.64-64.28a6.74,6.74,0,0,1,2.23-4.14A6.74,6.74,0,0,0,270.56,248.56Zm109.71-56.67c14.3-30.57,36-51.38,70.63-55.38,38.33-4.43,70.24,25,69.59,63.46-.55,32.45-23.26,64.44-56.08,76.35-44.17,16-75.41-2.17-89.26-43.71C370.93,220,374,205.2,380.27,191.89Zm-64.4,6q0-1.87-.06-3.75Q315.85,196,315.87,197.87ZM258,183c17.86,14,35.11,28.7,54.33,40.84,8.64,7.77,7.43,0,7.43-4.89,0-18.36-.17-36.73-.28-55.09,4.24-3.07,8.1-7.11,12.81-9,14.35-5.8,21.62-.64,21.62,14.69q0,56.06-.22,112.09c0,5.05,1.86,10.84-4.4,14.21-6.94,3.72-8.9-3.36-12.41-6-20.62-15.4-40.87-31.31-61.24-47.05h0c-2.39-1.75-5.11-5.26-7.1-4.88-3.94.74-2,5.14-2,7.9-.5,20.45-.75,40.91-1.08,61.37-10.21,6.07-20.88,9.76-32.92,6.39q-.08-68.71-.16-137.43C243.58,168.08,250.76,177.36,258,183Z"/><path class="cls-2" d="M748.32,913.15c-2.46,20.1-4.82,40.21-7.39,60.29-2.46,19.3-9.2,25.61-29.26,30.8-7.44,1.92-15.63,6.25-13.57,16.22,1.9,9.21,9.47,10.08,17.72,9.08,32.23-3.93,64.71-.67,97.17-3,19.36-1.41,40.09,4,60-.37,31.27-6.91,62-14.39,84.44-41.08C976,963,979,936.84,982.58,910.34c1.91-17,1.1-33.94.11-50.92h0q-.12-35.55-.25-71.1c1.53-69.35,4.35-138.71-.07-208.06-1.17-22.55-5.85-44.52-16.56-64.27-8.79-16.19-21-31.62-38.28-38.46-38.66-15.28-79.78-15.67-120.08-10.07-23.37,3.25-46.22,6.45-69.74,4.25-7.41-.69-14.9-.68-22.36-.86-11.66-.29-16.17,7-16.87,17.14-.77,11.27,8.19,10.51,15.48,11.3,16.5,1.79,26.3,10.51,28.46,27.24.75,5.82,2.09,11.65,2.06,17.48-.2,45.92,3.6,91.7,4.76,137.55.92,36.79-.09,73.63-.24,110.44Q748.66,852.59,748.32,913.15Zm64.12-47.74c0-.61,0-1.22,0-1.82C812.44,864.19,812.45,864.8,812.44,865.41Zm0-270.74c-1-25.58-1.38-51.21.75-76.8,2.72-32.89,30.29-46.55,57.73-27.15,24.77,17.51,37.6,43.39,40.62,73.16,3.27,32.3,4.56,64.8,6.71,97.21h0q0,82.6,0,165.22c-4.21,25.43-2,51.06-2.29,76.6-.21,16.05-1.07,31.92-4.54,47.66-6.16,28-29.38,48.24-57.85,50.14a92.21,92.21,0,0,0-11.13,1.25c-16.29,3.08-25.31-3.53-25.6-20.55-.54-30.41-.06-60.84-.3-91.25-.08-10.61.4-21.36-3.17-31.65,0-6.41.73-12.9,0-19.21-1.4-11.71,4.77-24.19-3.52-35.17C810.93,734.32,815.25,664.55,812.43,594.67Z"/><path class="cls-2" d="M1329.59,486q-20.47-2.14-12.64,16.87c.89,6,6.25,6.74,10.48,8.42,36.25,14.4,39.8,21.32,40.54,60.47,1.25,67,.8,134,.49,201q0,23.85,0,47.7c-1.3,51.25,2.52,102.53-2,153.78-1.18,13.44-11.2,30.52-24,31.78-8.5.83-14,3.47-13.17,12,.82,8.68,7.48,11.88,15.92,12q55.24,1,110.49,2.27c9.22.21,17.4-1,19.49-12,2.29-12-6-15.48-15-15.78-20.21-.69-28.49-12.26-30.66-30.51L1429,836.82q-.07-21-.17-42a36.38,36.38,0,0,1-2.57-8,45.08,45.08,0,0,1-.74-5.41,45.08,45.08,0,0,0,.74,5.41,36.38,36.38,0,0,0,2.57,8q.35-38.08.7-76.19c3.37-5.79,2.54-12.41,3.69-18.65,1-5.55,3.54-11.61,9.58-11.06,13.93,1.26,28.46,1.5,41.06,8.48,32.66,18.09,37.44,51.47,40.23,83,4.4,49.8,0,100.09,4,150.07l.66,63.36c2.09,22.71,11.89,39.93,35.09,46.25,25.3,6.9,49.81,6.89,70.59-12.49,7.88-7.35,11.83-16.57,10.46-27.35-.87-6.83,3.88-17.49-5.48-19.41-10.15-2.08-9.13,9.6-11.79,15.89-3.38,8-7.88,14.2-17.32,14.16s-14.3-6.62-17.55-14.23a31.38,31.38,0,0,1-2.25-12.49c.64-44.85-3.54-89.64-1.35-134.52,1.62-33.21.54-65.76-18.31-95.46-11.25-17.74-25.39-33-37.93-49.57-10.57-14-9.42-16.15,7.82-19.53,24.81-4.86,49.92-11.53,59-38.83,17.39-52.11-5.07-107.83-62.89-127.63h0c-10.53-6.32-22.2-6.31-33.91-6.08-12.37-10.52-27.89-8.33-42.12-9.21-36.3-2.23-73.31,1.76-107.57-15.2-3.07-1.51-7.28-.72-11-1a7.51,7.51,0,0,1-1.41,1.55,7.51,7.51,0,0,0,1.41-1.55C1338.08,486.79,1333.83,486.46,1329.59,486Zm77.27,110c-5.12-9-6.69-18.39-6.92-27.92.23,9.53,1.8,18.91,6.92,27.92Zm56.5-79.17c8.63,3.77,16.72,9.75,26.87,5,8.37.26,16.92,2.37,24.85-2.26h0c9.42,10.43,21.29,18.32,27.2,32.28,8.77,20.7,7.87,40.45,1.61,61.59-4.11,13.86-8.83,26.39-18.67,37.22-17.55,19.32-61.24,26.7-82.44,11.3-12.63-9.17-16.83-25.38-23.66-39.13-4.37-8.81-5-19.34-12.26-26.79-.68-20.18-5.54-40.28-1.24-60.56C1419.28,507.47,1432.24,503.22,1463.36,516.83ZM1400,560.73c-.07,2.4-.1,4.79,0,7.18C1399.88,565.52,1399.91,563.13,1400,560.73Z"/><path class="cls-2" d="M1062.75,951.57c-1,8.45-1.88,16.9-2.85,25.34-2.14,18.57-11.58,29.85-29.68,32.9-9.59,1.61-13.2,6.14-11.79,15,1.58,9.91,7.57,12.73,17.29,10.46,13.41-3.14,26.94-6.27,40.92-4.92,30.38,2.91,60.79,1.14,91.2.93,29.88-.21,60-2.52,89.55.58,16.9,1.78,22.46-3.28,24.17-17.4,3.22-26.66,11.66-51.93,19.84-77.26,8.52-26.4,1.65-36-26-34.74-9.25.42-15.76,3.83-13.12,14.83,3.21,13.38.71,26.57-1.32,39.71-4,26.09-31.75,50.45-53.43,45.67-16.59-3.66-32.52-1.54-48.74.52l-5.2.07c-7.59-3.3-14.48-8.42-16-16.41-2.21-11.74-2.49-23.88-3.07-35.88-1.13-23.35.17-46.83-3.46-70.06l0-36.93c3.37-7.06,2.42-14.61,2.46-22q.36-63.27.68-126.53c0-8.93,1.3-18.88,10.6-21.36,12.83-3.43,27.43-4.23,38.37,4.56,10.1,8.11,4.83,19.89,2.14,30.61-4.53,18-5.65,35.95,7,51.77,3.57,4.46,8.26,7.15,14,5.53,5.31-1.5,5-6.26,4.66-10.6-2.07-27.78,6-53.93,13.71-80,4.43-15,.15-23.56-14.32-27.89l-53.62-1.1c-18.24-5.11-24.46-17.15-23.8-35.83.86-24.49-.84-49.06-1.23-73.61-.64-40.06,2.91-44.36,42.5-39.78,20.25,2.35,43.52.19,56.47,23.06,6.49,11.46,8.76,23.63,8.67,36-.06,7.93,3.64,12.59,9.27,14.5a23.33,23.33,0,0,0,22.62-3.82c5.55-4.51,3.76-10.53,2-16.23-3.34-10.67-6.49-21.41-10.21-31.94-4.19-11.86-1.83-25.56-10.26-36.19-13.24-8.08-27.62-1.08-41.32-3.11-5.16-1.07-10.31-2.28-15.51-3.18-25.51-4.43-51.47-2.25-77.19-6.32-29-4.58-58.59-5.19-87.89-7.86-4.68-.43-7.06,2-8.85,5-2.35,4.05-1.59,8.21,1.73,11.72,3.84,4.06,8.87,5.45,14.06,7,14.37,4.21,21.78,13.18,21.87,29.09.14,23.9-.41,47.89,2.92,71.69l.78,44v77.37c-2.36,38.38-1.18,76.76,0,115.15q0,45.09,0,90.19Z"/><path class="cls-2" d="M1545.65,269c21.82.2,31.57-8.08,32.12-27.25.74-26.2-19.41-44.81-49.49-45.71-15.24-.46-26.84,13.09-26.7,31.18C1501.77,251.66,1519.81,268.76,1545.65,269Z"/><path class="cls-2" d="M441.2,247.13c23.69.5,44.22-19.63,45-42.94.66-19.13-15.48-32.42-29.35-33.23-26.51-1.55-44.49,15.42-45.1,41.59C411.24,235.36,420.9,246.71,441.2,247.13Z"/><path class="cls-2" d="M589.71,180c5.45-.56,11.3.16,15.84-1.94,7-3.21,14-8,11.66-17.65-2.3-9.35-10.26-7.8-16.73-6.93-5.66.77-11,3.65-16.7.08-2.34-1.46-6.31-1.11-6.68,1.59-1,7.24-2.21,15-.69,21.9C578.11,184.91,585.39,178.32,589.71,180Z"/><path class="cls-2" d="M1083.51,168c-.81,4.11-.14,8.52-.14,12.8h0c0,9.62.06,19.24,0,28.87,0,4.49-.09,8.77,6.17,8.86,14.57.2,30.63,5.76,41.19-9.74,11-16.2,10.42-38.84-.69-53.41-7.14-9.37-31-18.38-41.56-13.1S1085.22,159.31,1083.51,168Z"/><path class="cls-2" d="M1254.15,211.73c-5.14-6.1.93-19.72-11.92-18.77-6.3.47-9.85,8.38-8.49,13.37C1236.62,216.93,1247,209,1254.15,211.73Z"/><path class="cls-2" d="M428.36,1279.52c.46-15.12-12.65-28.83-28.1-29.39-15.15-.55-28.95,12.66-29,27.78-.09,16.42,11.35,28.17,27.74,28.49S427.89,1295.35,428.36,1279.52Z"/><path class="cls-2" d="M705.52,1270c8.11,1.49,12.26-3.94,12.15-10.67s-5.1-9.63-11.46-6.7c-6.72,1.43-16.16-3.53-15.59,9.65C691.16,1274.7,700,1269,705.52,1270Z"/><path class="cls-2" d="M825.7,1304.25c-.11,2.22,2.69,2.9,4.91,2.71,8.19-.68,17.15,2.47,24-4.8,12.54-10.41,13.2-23.58,7.25-37.18-6.34-14.5-19.07-16.26-33-13.93C820.69,1268.35,826.58,1286.51,825.7,1304.25Z"/><path class="cls-2" d="M1570.41,1308.77c13.4.42,24.82-2.1,29.6-16.16,5-14.85,3.57-28.38-10.76-38a2.12,2.12,0,0,0-2.47-.95c-24.41-6-25.38-5.27-25.42,18.68,0,9.07.26,18.15-.12,27.2C1560.94,1306.38,1563.4,1308.55,1570.41,1308.77Z"/><path class="cls-2" d="M989,1293.17l-7.62-19.82c-4.4,8.27-10.41,13.79-7.28,19.6C976,1296.45,983.34,1295,989,1293.17Z"/></svg>