<svg id="Layer_1" data-name="Layer 1" xmlns="http://www.w3.org/2000/svg" viewBox="0 0 1952.77 1427.35"><defs><style>.cls-1{fill:#fff;}</style></defs><path class="cls-1" d="M479.82,1123c12.18,1.72,20.33-2.67,27.35-9.38,3.06-2.91,5.89-4.84,10.3-4.92,39.6-.7,79.2-1.79,118.8-2.36,93.77-1.37,187.4,3.53,281,7.58,88.59,3.83,176.73-3.5,265-7.06,95.15-3.84,190.31-.81,287.85-2.33l-13.38,11.89c9.48-1.33,20,2.83,26-8.72,2.47-4.81,10-4,14.51-2.46,6,2.13.52,6.84-.12,10.06-1.31,6.56-3.93,12.86-6.86,21.88,9.56-4.46,11.8-12.35,11.51-19.31-.49-12.13,4.84-13.21,15.27-13.31,101.3-.93,202.51,2.4,303.74,5,24,.61,48,.09,72,1.66-48.85,12.44-99.09,12-148.49,18.58h156.82c20.86,0,20.9,0,21,20.46q.3,112.9.47,225.82c0,9.56-1.27,19.12-1.32,28.69,0,5.62-2.68,6.64-7.42,6.53-45.2-1-90.4-2.13-135.61-2.8-27.11-.4-54.24-.07-81.56-.07,19.91-55.65,40-109.11,65.11-160.47,2.65-5.41,5-10.73,11.7-12.7,5.84-1.71,8.18-6.35,6.06-12.19s-6.22-5.69-11.69-4.12c-6.3,1.79-12.74,5-19.77,1.46-2.53-1.28-5.68.08-7.41,2.52-2.11,3-1.71,6.75.86,8.79,11.28,9,6.88,16.67,1.48,27.57s-9.83,22.56-15.52,33.54c-4.28,8.26-9.94,9.16-13.45.75-6.6-15.83-13-31.7-20.88-46.95-2.57-5,2.95-6.66,4.78-9.86,2.48-4.34,9.22-8.07,6.43-13.11-2.62-4.72-9.5-2.2-14.44-1.83a105.77,105.77,0,0,1-25.06-1.54c-5.27-.87-11.13.21-12.92,6.09-1.62,5.33,3.52,8.26,7.31,9.6,15.79,5.58,15.32,21.73,20.44,33.16,7.54,16.8,15.94,33.07,24.81,49.09,4.29,7.74,6.1,14.09,1,22.08a66.3,66.3,0,0,0-7.53,17.56c-4.58,16.1-11.35,29.79-29.65,33.94-2.31.52-5.68,3.57-5.75,5.55-.44,12.28-9.5,10.31-16.78,10.42q-93,1.5-186.07,2.63c-2.22,0-4.44-.33-7.36-.56,2-4.2,7.43-2.65,7.6-3.92-49.12,0-98.64,0-148.15,0-9.19,0-18.4.34-27.58.84-41.4,2.27-82.58,8.39-124.2,6.94-6.79-.24-13.83.69-19.74-3.54-7.28-5.23-11.39,3.51-17.54,3.54-25.21.12-50.43.35-75.65.85q-172.23,3.39-344.45,6.95c-91.21,1.85-182.42,4.7-273.64,5.29-139.7.91-279.41.26-419.11.19-3,0-6.27,1.21-9.77-2.07,6.85-5,15.65-2.78,22.77-7.22-7.56-2.47-14.63-1-21.91.1,0-26.84-.73-53.61.17-80.31,1.28-38,2.29-76,.58-114-.46-10.27.13-19.09,15.49-15.49-5.15-5.15-13.15-1.44-14.76-5.7-3.25-8.59-1.7-18.2-1.35-27.37.21-5.49,5.2-3.81,8.4-4.18,18.32-2.14,18.32-2.08,28.48-8.7-8.35.8-13.88,1.25-19.4,1.89S7.5,1165.51.08,1166.54c0-15.48.15-30.83-.08-46.18-.09-6.17,3.75-5.9,7.91-5.89,15.54,0,31.08,0,46.66-.92-13.26-4-27-3.67-40.56-5.7,21.44-4.53,43.35-4.18,65-5.81,52-3.93,103.92,1.62,155.82,3.92,88,3.89,175.88,7,263.9,3.1,1.94-.09,3.88,0,7.4,0C499.35,1118,489.85,1119.17,479.82,1123Zm757.93,99.27c.31,25.16-3.72,27.87-23.19,19.17-23.86-10.65-48.64-2.14-61.68,20.35-5,8.6-6.49,17.94-8.37,27.17-3.63,17.83-1.36,34.7,12,48.43,14.23,14.68,32.13,18.62,51.69,16.06a21.18,21.18,0,0,0,15-8.7c7.1-9.64,9.6-9.19,15.17.82,4.37,7.85,21.78,10.54,29.65,3.28,6.7-6.19,1.13-14-3.34-17.57-12-9.54-11.39-21.51-10.23-34.46.7-7.93-.07-16,.25-24,1.18-28.69-.77-57.54,4.53-86,1.16-6.24,3.36-12.27,2.71-18.84-.5-5-2.68-8-7.64-6.07-10.6,4.08-21.08,2.61-31.75.8-5.14-.87-11.39-1.38-13,5.09-1.55,6.3,3.7,8.68,8.9,10.71,7.44,2.9,16.38,6.12,16.75,15.1C1235.63,1204.45,1237.13,1215.09,1237.75,1222.3Zm107.47,63.19c.26,15,6.68,29.35,15.84,41.78,7.76,10.53,18.28,9,28.84,11,15.73,2.84,28.17-3.71,40.7-10.66,4.9-2.71,9.45-7.94,5.26-13.9s-9.23-1.67-13.7.93c-5.7,3.33-10,8.57-17.87,8.59-21.62,0-39.17-18.76-39.25-42.51,0-6.82,1.86-10.17,9-11.16a191.33,191.33,0,0,1,43-.63c8,.69,14.56-.42,18.81-7.15s3.31-14-.91-20.41c-15.22-23.2-56.46-28.31-75.22-1.93C1350.57,1252.34,1345.77,1268.78,1345.22,1285.49Zm204.06-15.15c.11-14.3-.5-25.22,12.91-28.85,6.33-1.72,11.54,1.38,17.06,3.83,7,3.12,12.47.48,15.82-6.26s3.31-13.72-3.77-17.82c-9.23-5.34-19.06-6.09-27.91,1.3a161.61,161.61,0,0,0-12,11.75c-2.68,2.75-6.37,4.38-6.36-.83,0-18-9.44-15.73-21.15-11.32-3.1,1.17-7.07.13-10.64,0s-6.29.61-6.31,5.06c0,4.25.58,9.61,5.48,8.88,17.39-2.58,14.62,10.46,15.32,19.61,1.16,15.12.27,30.4,1.47,45.51.8,10.2-3.27,16-12.19,19.22-4.31,1.57-8.76,2.95-7.47,8.84s6.29,7.67,11.07,7c15.13-2,30.15-2.67,45.39-1,7.29.8,9.3-3.76,5.85-10-2.35-4.24-5.71-8.45-11.06-8-11.23,1-14.51-7.33-12.35-14.29C1552.35,1290.54,1549.94,1278.71,1549.28,1270.34Zm-723.68,58c15.36.15,26-2.25,32.25-13.49,2.7-4.89,5.55-11.32.47-15.31-5.26-4.13-8.85,1.81-12.74,5.25-20.9,18.49-38.16,11.52-47.24-11.82a64.14,64.14,0,0,1-2.4-39.71c3.2-12.77,6.29-24.46,18.76-31.7,12.21-7.07,20.93-2,29.83,6.12,2.8,2.55,7.55,4,10.69.07,2.67-3.4,2.26-7.68-.49-11.09-6.88-8.57-15.54-13.39-27-12.63-38.5,2.56-61.53,38.52-57.55,70.34,2.53,20.18,6.43,43.8,33,50.12C811.79,1326.54,820.36,1328.45,825.6,1328.36Zm216,14.14c4-1.16,9.8,1.62,10.64-5,.71-5.58-4.14-7.16-8.19-8.88a22.5,22.5,0,0,0-4.63-1.2c-10.44-2-13.81-8-13.52-18.83.64-23.92-2-47.9,2.38-71.77,1.08-6-2.69-13.5-8.71-11.27-10.08,3.71-20.33,3.08-30.33,5.14-2.55.53-5.57,2.14-5.48,5.44a5.64,5.64,0,0,0,4.34,5.16c15,4.48,15.92,16.83,14.82,29-1.12,12.33.73,24.57,1,36.73.2,10.64-2.09,15.57-11.18,18.86-5.17,1.87-12.67,3.54-11,10.36,1.56,6.21,9.44,5.39,14.61,4.89C1011.58,1339.57,1026.68,1338.74,1041.61,1342.5Zm-48.94-139.94c16.89-2.44,28.23-15.5,39.92-28,1.66-1.77.93-3.27-1.33-4.55-13.36-7.58-41.3-2.4-51.16,9.57-3.82,4.64-5.76,9.77-2.91,15.41S985.08,1202.56,992.67,1202.56Zm-976.82-62.7c16,2.4,29.69,5.62,42.58-2.44C44.82,1135,31.16,1131.29,15.85,1139.86Zm1559.39,223.67c10.27.08,19.93,1.79,27.51-4.61,1.5-1.27-1.72-8.14-2.77-12.44C1599.48,1363.38,1582.68,1355.62,1575.24,1363.53ZM177.82,1286.25c8.55,1.07,14,1,19.12-1.66,3.06-1.63,7.53-3.64,6-7.45-1.65-4-6-2.41-9.15-.58C189.12,1279.24,184.59,1282.12,177.82,1286.25ZM1699,1142.91c-10.87,2.43-20.13.19-27.59,9.38C1681.64,1151.89,1690.67,1154.39,1699,1142.91ZM506.44,1351.78c5.36.8,8.79,1.58,12.25,1.75s8.6,0,8.46-4.17c-.2-5.54-5.41-2.29-8.41-2.46C514.72,1346.68,511,1348.1,506.44,1351.78Zm1237.64-185.16c6.91-2.15,16.09,4.73,22.26-7C1757.35,1160.14,1749.93,1160.24,1744.08,1166.62Zm-1282.62-8c-7.25-.71-15-3.6-23.66,3.52C448.14,1164.42,455.43,1165.83,461.46,1158.6Zm311.6,2.4c-21.13-4.67-21.13-4.67-26.76,2.77C756.15,1158.14,763.67,1169.08,773.06,1161ZM1156,1144.38c-18.43-4.76-18.43-4.76-24.39,1.22ZM70.45,1174.82l-21.63,2.4C58.07,1181.4,64.48,1180.84,70.45,1174.82Zm886.75,99.73c-6.47,1.71-12.67,4-17.07,9.29C946.53,1282.06,953.34,1281.11,957.2,1274.55Zm-283.74,66.22c6.26,1.81,11.36,2.34,16.47.2.43-.18.47-2.94.13-3.08-5-2-10-1.17-14.91.42C674.86,1338.4,674.71,1338.92,673.46,1340.77Zm-547,57.78c2.84,5.44,4.87,9.35,7.77,14.94C136.09,1403,136.09,1403,126.47,1398.55Z"/><path class="cls-1" d="M531.34,494c38-5.68,72.38,9,101.24,38.6a74.65,74.65,0,0,1,15.58,22.52c5.77,13.27,14,22.35,30.83,21.11,12.38-.92,24.35,4.39,35.78,9,8.88,3.55,14.4,11.28,15.93,21,1.18,7.49,3.29,15.32,2.21,22.59-2.16,14.54,4.83,17,17.12,17.71,39.21,2.2,77,10.54,110.1,32.87,51,34.42,68,85.26,64.68,143.71-4.77,83-41.43,148.37-113.88,191.33-30.23,17.92-63.48,25.78-98.86,22.74a44.54,44.54,0,0,1-9.39-1.73c-13-4.05-25.47-6.35-39.7-3.84-21.06,3.72-38.54-7-54.51-20-47-38.26-75.31-88.56-85.12-147-10-59.33-1-116.55,40.89-164.18a128.83,128.83,0,0,1,45.32-32.86,303.56,303.56,0,0,1,95.62-25.08c8.41-.76,10.27-3.66,9.37-10.84-.3-2.37-.08-4.79-.23-7.18-1.83-29.48-1.83-29.49-31.27-36.64-4.26-1-8.8-1.27-12.82-2.87-10.42-4.18-18-.16-24,7.87-7.17,9.61-14,19.49-20.55,29.53-11.67,17.88-27.22,29.08-49.19,29.52-36.64.73-73.69,5.21-108.65-10.87-30.2-13.88-53.4-36.12-73.82-61.75-2.69-3.39-2.25-5.33.51-8,19.31-18.58,36.47-39,53.46-59.73,11.92-14.55,30.8-15.85,48.4-17.29C506.7,493.3,517.16,494,531.34,494ZM833,756.7c1.32-.75,1.32-1.69.34-2.72,0,0-.67.32-.66.43.11.74.32,1.46.49,2.19,6.37,10.27,11.48,21,11.2,33.41l-.22-.09c5-3.11,11.38-6.38,8.08-13.32C848.23,768.08,845.8,757.05,833,756.7ZM419.18,573.27c48.11,1.56,95.46,4.29,140.34-4.64C514.41,568.63,466.84,557.51,419.18,573.27ZM820.77,674.2c-21.63-7.11-39.67,2.62-56.31,13.1-15.53,9.79-30.53,11.41-47.8,7.57-9.84-2.19-20.11-5.51-33.18-3,7.53,2.61,12.44,4.25,17.3,6,18.18,6.63,36.22,7.77,54.88,1C777.45,691.08,795.79,674.26,820.77,674.2ZM872,803.58c-7.56,16.55-20.47,21.63-34.11,26.83-8.85,3.37-16.2,10.65-24.22,16.18C849.29,842.85,872.29,828,872,803.58ZM844.64,688.49c-19.47-10.48-36.06,0-56.36,8.86l19,1c-.33,1.83-.47,3.32-.87,4.73-.59,2-3.44,4.87,0,5.88,4.17,1.22,9,.59,12.36-2.57,2.88-2.73.63-4-2.22-5.9-6.38-4.28-2.57-7.36,2.44-8.34C827.42,690.5,836.07,689.67,844.64,688.49ZM561.26,575c21.27,2.89,40.36,3.74,58.94,8.06,2.25.53,4.76-.16,7.14-.06,3.14.14,6.59-1.43,6.68-3.74.09-2.59-3.29-3.73-6.41-4C606.41,573.49,585.29,568.91,561.26,575Zm-80.95-49.1c24.86,4.21,43.43,25.29,69.78,24C527.17,540.53,506.61,524.61,480.31,525.92ZM573,533c18.11,7.86,30.17,25.16,48.83,32.15C608.31,550.15,593.72,536.81,573,533ZM454.45,615.32c20.39,4,38.26,3,54.7-7.45C491.65,611.37,473.75,612.2,454.45,615.32ZM609.51,708c12.88-.2,22-7.24,32.75-8.07,2.88-.22,2.5-3.56,2.25-5.91-.32-2.94-2.06-2.8-4.18-1.8C630.47,696.82,619.6,699.48,609.51,708Zm-19.35-93.54-35,15.27C569.55,630.51,581,624.38,590.16,614.44Zm110.6,228.94c-12-.66-23.57-.06-37.23,5.85C678.33,849.48,690.32,850.88,700.76,843.38Zm-156.28-337c7.45,10.06,18.66,13.64,29.57,17.74C564.54,517.58,556,509.36,544.48,506.35ZM687.35,986c-7.48.9-14.83-2.43-20.52,3.89-.48.54,0,2.95.23,3,7,.67,14.17,2.22,19.77-3.93C687.05,988.66,687,988.16,687.35,986ZM572.43,583.35c-10.47-3.5-17,2.88-23.59,9.24Zm270.72,146.4c3.09,6.49,4.69,14,13.87,19.35C854.21,739.42,851.09,732.94,843.15,729.75ZM608.34,741.87c-5.68.4-11,.42-15.48,4.11-.14.12.78,2.27,1.3,2.32C599.8,748.79,604.8,747.54,608.34,741.87Zm232.77-12.74c-.58-1-.79-1.83-1.17-1.92a3.75,3.75,0,0,0-2,.35c-1.11.43-1.11,1.08,0,1.39A17.06,17.06,0,0,0,841.11,729.13ZM541.6,593.64c.58.37,1.14,1,1.76,1s1.68-.3,1.77-.67c.32-1.32-.62-1.7-1.73-1.41A6.92,6.92,0,0,0,541.6,593.64ZM512.78,605.2c-.14.27-.47.62-.4.81.46,1.16,1.07,1.17,1.59,0,.08-.18-.17-.63-.38-.81S513.06,605.22,512.78,605.2Z"/><path class="cls-1" d="M202.3,832.71c-8.94-15.47-25.8-21.65-42.67-15.64S134,837.35,136.87,854.43c5.1,30.5,2,61.24,2.75,91.87.62,25.82,10.1,36.86,36,40.1a36,36,0,0,1,7,1.3c8.77,3,10.85,9.86,10.21,18.15-.62,8.08-6.87,8.95-12.93,9.67-29.93,3.55-60,.84-90,1.83-14.74.48-29.43-.67-44.28,1.3C36,1019.94,26,1015.27,18,1009.16c-6.33-4.8-3.4-11.65-1.18-17.61,2.9-7.8,7-14.62,16.76-14.53a35.82,35.82,0,0,1,7.09,1.05c20.65,4.4,27.75-1.92,25.89-22.62a370.31,370.31,0,0,1,2.17-82.57c1-7.06,5.56-15.67-3.6-21.55-1.77-1.13-.74-3.24.73-3.71,5.22-1.69,3.24-5.89,3.18-9-1.5-74-4.59-147.94-3.79-222,.31-27.76-5.2-34.5-33.15-37.36-9.67-1-9.57-8.85-11.94-14.23-2.19-4.95,4.1-6.9,7.81-8.78a46,46,0,0,1,25.67-4.51c48.33,4.7,96.78.42,145.16,1.91,24.25.74,47.6,3.05,70.33,11.78,9.26,3.55,19.14,5.59,28.83,7.92,41.79,10.06,71.2,44,74.94,87.08.72,8.36.39,16.8.89,25.18,2.37,39.93-19.5,65.07-51.31,84-3,1.76-6.8,2.12-10.29,2.85-5.09,1.06-10.38,1.36-15.32,2.85-28.8,8.75-35,26.76-16.53,50.09,17.09,21.62,33.46,43.92,54.1,62.51a98.39,98.39,0,0,1,16,19.36c19.13,29,43.68,52.94,69.45,75.86,6.66,5.92,14.37,6.67,22.37,6.4,8.37-.28,13.24,4.75,11.63,11.43-1.66,6.87.51,18.62-12,18.59-37.59-.07-75.24,1.63-112.68-3.74-10.23-1.46-16.74-5.44-21.56-15.56-13.21-27.75-28-54.74-42.23-82A87.67,87.67,0,0,0,248,895.68c-11.23-10.84-19.62-24.09-27.19-37.86-5-9.18-8.84-19.55-18.67-25.29ZM155.18,567.88c.72,3.86,2.65,4.53,4.6,4.84,2.37.37,5.22.2,4.49,3.76-.66,3.25-3.16,4.54-6.35,3.83-2.76-.61-5.59-1.78-6.74-4.5-5.88-13.84-9.93-3.29-13.7,1.25a18.16,18.16,0,0,0-3.87,14.72c5,26.84-.52,54.33,5.25,81.13a39,39,0,0,1,0,15.49c-4.94,24.63-3.49,49.3-1.45,74,.8,9.72,5.49,16.7,14.77,19.81,20.76,7,41.93,7.79,63.48,3.73-13.93-3.67-33,.18-32.33-25.82,13.55,13.75,29.47,16.61,50,15l-11.6,6.2a9.87,9.87,0,0,0,2.53,1c25.42-.2,62.66-37.93,62.52-63.42a9.3,9.3,0,0,1,.78-4.36c7-15.22,2.43-31.2,2.79-46.86.08-3.45-3.07-4.12-5.86-4.9s-5.59-2.83-5.18-5.78c.71-5.21,3.73-1.32,5.92-.95,3.2.55,2.61-1.64,2.56-3.66-.94-35.89-38.87-76.91-75.75-80.87C193.43,569.44,174.63,569.05,155.18,567.88Z"/><path class="cls-1" d="M1611.47,922.91c7.45-1.39,12.93-2.59,18.47-3.36,2-.28,5.27-1.62,5.81,1.82.48,3-1.21,5.63-4.64,5.75a84.85,84.85,0,0,1-13.15-.35c-5.39-.66-7.07,1.23-6.64,6.61,1.59,20.09,6.41,38.68,22.78,52.27,4.54,3.76,6.94,8.54,8,14.28,2.15,11.63-1.84,18.56-13.2,17-20-2.8-39,4.64-58,4.2-21.05-.48-42.11-1.3-63.23-1.11-7.86.06-13-6.9-15.06-13.72-2.2-7.07,5.63-8.37,9.81-11.53a10.54,10.54,0,0,1,2.2-.93c39-16.77,34.66-8.14,35-52.37,0-4.4,1.06-8.89.45-13.17-1.6-11.25,1.85-16.48,14-14,3.28.68,8.34,1.15,8.61-3.78.33-5.93-5.12-3.33-8.12-3.67a20.82,20.82,0,0,0-14,3.15c0-12.35-.73-23.37.18-34.25a80.63,80.63,0,0,0-7.36-41.81c-7.69-16.44-8.79-33.63-6.6-51.39,3.18-25.93,1.88-51.73-2.9-77.4-.41-2.16-.88-4.8,2.37-7.44,6.51,9.11,5.59,20.77,11.09,31.06,2.16-10.28,2-19.32-2-28.18-7.1-16-6.89-33.28-8.42-50.12-1.14-12.51-8.09-19-19.21-23.7,12.93-3.46,21.44,3.72,30.46,10.1,1-22.76-7.46-36.89-23.73-40.72-4-.95-7.93-1.43-11.75.33-10.7,4.93-18.42-.45-25.66-7.34-4.12-3.92-8.33-8.29-6.1-14.5,2.38-6.6,8.54-8,14.77-8,21.22-.14,42.37-1.49,63.54-2.82,23.56-1.48,47.12-3.36,70.78-2.59,8.88.29,17.54,1.54,25.78,4.85,7.54,3,11.37,8.61,10.33,16.94S1649,593.91,1642,595.4c-.39.09-.8.06-1.19.11-22.85,2.94-27.19,5.75-29.19,29.45-2.27,26.8-10.19,53-11.31,79.27-1,24.57,9,49.34,28,67.8,6.49,6.31,14.28,3.09,21.11-.86,13.81-8,24.07-19.81,33.6-32.18,11-14.25,21.46-28.9,31.76-43.65,17.39-24.9,34.73-49.72,54.69-72.78,14.45-16.69,12-25-7.7-33.48-7.92-3.4-10.34-7.73-9-15.43,1.43-8.37,5.66-14.39,14.62-14.87,9.18-.49,18.42-.25,27.62.12q27.59,1.13,55.14,2.79c7.72.46,13.94,2.8,15.07,12.16s-2.7,14.3-11.8,15.67c-1.57.24-3.08.85-4.63,1.24-16.63,4.19-29.52,12-40.22,27-22.78,31.84-48.56,61.53-72.68,92.44-11.81,15.13-22.25,31.32-34.11,46.41-6.44,8.19-5.44,14.39.59,22.1,20,25.62,43.19,48.32,65.66,71.66,33.58,34.87,67.49,69.41,101.18,104.18,11,11.31,22.62,20.76,38.26,25.78,12.78,4.1,16.44,17.77,21.44,28.87,2.44,5.42-3.58,3.54-6,4-17.57,3.39-35.15.76-52.63-.78-29.1-2.56-58-5.95-87.31-1.18-11.77,1.91-12.4-11.55-17.28-18.3-4.47-6.19,4.18-6,7-8,14.23-10,15.42-18.57,5.87-32.67a247.77,247.77,0,0,0-55-58.08,136.11,136.11,0,0,1-35.09-40.63c-10.8-18.81-26.78-32.71-44.19-45-9.14-6.47-22.92-6.56-24.59.36-2.48,10.27-10.31,19.64-8.55,30.2C1615.62,866.56,1614.93,894,1611.47,922.91Z"/><path class="cls-1" d="M1240.07,530.48c37.36-8.06,71.62,5.83,103.72,27.5,5,3.39,9.46,3.5,14.42.54,9.26-5.54,18.46-11.19,27.87-16.45,11.51-6.42,18.79-3,19.93,9.93a398.35,398.35,0,0,1,1.48,40.73c-.1,7.13-5.43,12.35-10.6,16.81-11.77,10.13-25.9,15.46-40.79,19.07-4.8,1.17-8-.18-11.08-4.49-7.71-10.73-17-20.17-26.75-29.09-15.25-14-31-25.8-53.69-25.28-14.63.33-29.35-3.21-44-5.22-22.59-3.1-41.67,5.29-58.86,18.59-44.68,34.57-69.79,79.85-75.32,136.42-3.07,31.43-9.49,62.81-2,94.18a305.43,305.43,0,0,0,43.85,100.59c17.09,25.26,42.66,40.38,74.71,44.69,22.58,3,44.41,4,66.48-1.21,14.81-3.48,27.46-10.65,37.11-22.69,2-2.45,3.5-5.2,6.89-6.37,20-6.89,39.66-14.72,60.42-19.2,6.89-1.48,10-.42,12.23,7.75,5.35,19.9,9.18,39.67,6.37,60.3-.4,2.94,1.61,6.94-2.45,8.34-3.39,1.17-6-1.64-8.38-3.63-8.61-7.12-16.78-14.81-25.73-21.47-7.1-5.29-14.55-6-21,2.1-26.9,33.58-64.65,42-104.16,39.75-47.63-2.77-94.35-12.33-135.9-38.38-2.37-1.48-5.37-2.33-7.18-4.29-35.38-38.42-75.58-74-89.42-127-12.05-46.08-14.12-92.47,1.07-139.32,12.62-38.89,35.89-71,57.85-104.22,5.13-7.76,14.83-10.61,22.05-16.24C1125.93,536.74,1180.1,527.2,1240.07,530.48Z"/><path class="cls-1" d="M1552.13,49.43c35.95-1.47,70.31-2.92,104.67-4.24a46,46,0,0,1,22.13,4.2c5,2.46,8.3,6.36,7.22,12.43-1.05,5.87-5,8.44-10.62,9.86-5.92,1.48-13.28-2.86-17.81,4-5,7.55-6.38,16.13-7,25-1,13.77,2,27.12,3.88,40.53,1.68,11.77,1.72,23.07-3,34.15a26.37,26.37,0,0,0,.82,23.11c6.85,13.72,15.42,15.19,26.3,4.69,37.17-35.89,75.91-69.89,119.11-98.5,4.19-2.77,10-5.31,8.9-11.59-1.06-6.07-6.15-9.2-11.9-10.51-7.37-1.68-14.85-3-22.29-4.33-4.85-.91-8.13-3.11-8-8.65.13-5.25,2.65-7.79,7.91-8.66,15.94-2.64,31.94-1.05,47.9-1,11.19,0,22.45,2.06,33.55,1.29,11.93-.83,14.51,7.51,18.4,15.21,1.69,3.34.07,5.74-3.11,6.19-28.87,4.07-44.34,28.24-65.26,44-27.79,20.89-53.77,44.12-78.89,68.27-8,7.68-8.19,13.65-1,22.09,29,34.25,61.61,65.08,92.72,97.33,11.39,11.8,22.65,23.73,33.93,35.64,8.88,9.39,18.37,17.85,31.33,21.19a3.38,3.38,0,0,1,1.14.34c7.32,5.33,17.67,10.83,15.94,20.19-1.78,9.66-13.4,6.24-20.54,6-21.17-.74-42.28-3-63.42-4.43a107,107,0,0,0-46.91,7.64c-6.49,2.56-12.71,2.86-17.67-2.64a13,13,0,0,1-2.35-14.63c3.19-6.76,9.71-8.24,16.35-7.14,10.13,1.67,15.77-3.88,20.45-11.38,5-7.95-2-12.38-5.55-17.78a162.55,162.55,0,0,0-39.34-41.62,113.45,113.45,0,0,1-29.8-34.16c-7.58-13.06-18.57-23-30.55-31.82-13.26-9.72-18.23-7.11-24.69,7.29-4.5,10-3.76,19.19-2.33,29.13,1.88,13.16,1,26.33-.51,39.51-1.91,16.48-1.77,32.79,6.79,47.84,3.65,6.42,7.62,11.87,16.51,11.34,4.16-.24,8.57,1.65,12.68,3.1,5.25,1.85,7,6.53,7,11.51-.06,5.34-4.45,7.12-8.83,8.3-2.31.63-4.8,1.44-7.08,1.16-25.34-3.09-50.26,6.56-75.79,2.11-8.84-1.54-18.33.46-27.5,1.07-4.57.3-8.68.06-12-3.69-4.48-5-8.11-9.74,1.89-12.52.76-.21,1.43-.71,2.18-1,20.71-7,29.29-19.85,28.12-43.19-1.85-37.1,2.56-74.52.49-111.59-2.24-40-.36-79.95-1-119.9a77.59,77.59,0,0,0-2.94-21.28c-3-9.76-9.8-18.44-20.67-16.27s-13-3-15.34-10.67C1555.57,58.1,1554,54.45,1552.13,49.43Z"/><path class="cls-1" d="M1268.22,326c-9.59,7.6-19,7.45-29.36,10.46,17.33,11.68,33.19,20.78,53.62,21.18,15.72.31,31.12.28,46.18-4.17,36.32-10.72,65-53.48,62.3-92.28-.22-3.21-3.19-7.37,1.08-9.56,3.1-1.59,6.29,1.2,8.7,2.9,15.45,10.94,27.39,15,20.17,41.3-2,7.22-.16,14.34,3,21,6,12.57,7,26.12,8.12,39.69.76,8.87-3.61,14.69-10.83,18.29-7.52,3.75-14.06,3.07-16.36-6.85-1.25-5.42-2.19-11-4.12-16.16-3.13-8.41-8.79-9.48-13.85-2.24-22.88,32.76-56,40.64-93.23,39.71-28.52-.7-56.26-3.85-83.34-14.31-24.77-9.57-40.23-29.7-58.93-46.2-39.88-35.2-50-82.54-50.69-132.41-.3-21.83,7.07-43.28,15.27-63.71a253.55,253.55,0,0,1,16.18-32.08c24.22-41.87,61.92-64,108.43-72.59,16.1-3,32.48-4.42,48.64-7.12,23.65-3.94,45.37,2,65.76,13.08,8.91,4.85,15.7,3.89,22.67-2.52a45,45,0,0,1,5.7-4.39c5.81-3.84,10.56-11.9,18.47-8.94,8.5,3.18,6.84,12.76,8.29,19.88,6.69,33.07-11.22,59.09-25.29,86.15-1,2-2.77,4.43-5.42,4-3.07-.53-2.38-3.66-2.87-5.87a27.93,27.93,0,0,1-1.09-4.67c-1.36-33.56-26.5-47.82-50.92-62.5-4.81-2.89-10.51-3.32-16.25-3.21-13.6.26-27.24.65-40.81-.07-16.7-.88-30.3,5.16-42.57,15.83-14.7,12.79-25.8,28.21-35.52,46.39l25.07-3c.67,3.77-2.2,4.57-3.9,5.84-29.73,22.37-37.86,53.3-37.37,88.8.46,33.5,10.66,63.19,27.44,91.73,11.17,19,27.06,27.15,48,28.09C1261,325.52,1263.35,325.69,1268.22,326Zm102.44-267.9c11.87.69,23.81,2.39,34.36-4.63C1393.39,54.06,1380.94,48.07,1370.66,58.08Z"/><path class="cls-1" d="M1038.55,412.43c-4.19-4.8-10-4.07-15.24-3.69-23.08,1.69-46.37,2.13-68.67,9.6-9.2,3.08-16.75.19-21.69-7.95-5.29-8.71-1.78-15.55,8.83-16.91,7.52-1,15.13-1,22.24-4.14,12.67-5.59,17.89-15.19,13.05-28.15q-12.59-33.65-27.17-66.51C944,281.5,921.56,275.63,907.7,281c-14.34,5.52-29,10.06-45.06,7.82-14.08-2-28.49-3.89-43,3.25.58-7.65,8.31-7,11-11.75-9.35-.17-14.22,4.17-15.51,13.13a110.27,110.27,0,0,1-3.12,15.21c-.83,2.84-.87,7.44-4.73,7.59-11.57.45-11.72,9.31-14.06,17.17a293.25,293.25,0,0,1-10,28.22c-4.4,10.67-.68,17.87,8.69,22.85,6.34,3.36,13.06,6,19.5,9.15s14.8,5.6,10.52,15.33c-3.61,8.2-10.89,12.14-19.69,8.94-13-4.75-26.24-6.31-40-5.71-6.06.27-11.59.86-17.24,3.73-9.86,5-20.12,5.67-29.09-2.37-7.38-6.61-6-15.29,3.52-16.67,28.49-4.13,36.76-25,42.2-48.47,1.82-7.85,3.51-15.89,7.71-22.57,15-23.89,25.45-50,33.11-76.63,18.41-64,49.56-122.72,72.78-184.66,1.39-3.71,1.95-7.72,3.08-11.54,1.63-5.51,5.09-8.81,11.14-9.21,5.83-.38,10.14,1.85,12.94,6.87,2.57,4.6,3.62,9.64,4.1,14.88.65,7.17,1.31,14.37,9.39,17.85,2.71,1.16,4,4.15,4.31,6.91,2.89,24,15.38,44.27,24.83,65.73,30.69,69.7,61.57,139.32,92.06,209.11,4.3,9.84,11.79,14.75,21.16,17.87,7.94,2.64,16,4.78,24,7.44,5.42,1.82,10,4.79,12.22,10.61a13.71,13.71,0,0,1-1.74,13.64c-3.24,4.5-8.15,2.71-12.15,1.58-11.6-3.3-23.3-2.31-35-1.77l.25.28c-1.21-4.69-4.34-3.7-7.53-2.56ZM894.7,265.63A93.59,93.59,0,0,0,922,263.24c8.49-2,11.5-6.31,7.18-14.56-15-28.57-26.34-58.67-37.45-88.91-6-16.38-19.8-17.92-31.24-4.54-3.48,4.06-6.28,9.06-6.2,14,.29,17.85-8.91,31.82-17,46.49A282.86,282.86,0,0,0,823.09,246c-6.11,15.13-1.41,21.28,15.46,20.13C857.27,264.81,875.94,262.6,894.7,265.63Z"/><path class="cls-1" d="M109.15,408.66c-4.48,2.59-1.51,7.2-4.37,10.38-4.84-16.65-8.39-32.46-4.48-50.18s4.15-36.54,5.55-54.9c.83-10.87,9.36-21.16,19.07-22,13.3-1.13,15.55,8.5,17.84,18.14a4.18,4.18,0,0,1,.23,1.18c-2.42,26.82,9.47,49,22.89,70.68,1.45,2.34,2.23,6.25,4.2,6.95,20.38,7.24,38.55,20.09,62.14,18.93,39.85-2,76.15-46.22,65.92-84.79-4.3-16.22-12.06-32-27.79-41.57-16.71-10.17-33.22-20.71-51.82-27.23a154.83,154.83,0,0,1-55.16-32.9c-3.28-3.05-7.28-14.29-15.33-4.22-1.14-1.06-2.37-2-3.41-3.21-17.71-19.76-29.66-43-28.28-69.35,1.2-23,14.44-42.52,30-59.52C179.55,48.91,219,40.54,263.73,60.19c14.83,6.52,29.22,9,45.26,6.57,14.89-2.26,20.92,5,15.59,18.76-4.19,10.81-4,20.76-.51,31.29.88,2.62,1,5.51,1.5,8.25,1.32,6.72,1.13,13.08-6.08,16.33s-13.67,1.41-18.09-4.86c-6.89-9.78-13.16-20-19.68-30-2-3-3.63-6.23-5.79-9.07-28.17-36.94-65.48-38.59-97.64-4.34-6.61,7-12.14,14.74-15.11,24.17-3.23,10.26-1.7,18.88,4.6,28.09,15.33,22.42,35,40.67,59.29,50.92,15.77,6.65,31.06,13.49,45.41,22.56,31.56,19.94,59.89,43.83,64.85,83.08,5.84,46.26-9.86,85.88-45.42,117.37-29.1,25.77-96.74,17.55-123.06-7.35-1.86-1.76-2.52-3.85-3.47-6.06-5-11.5-15.43-12.64-22.95-2.62a32,32,0,0,0-3,5.2c-3.26,6.63-6.72,12.49-15.55,12.91C114.78,421.8,112.24,415.07,109.15,408.66Zm103-188c-4.65,1-5.06,4.81-5.07,8.9,0,3.43.68,6.74,4.77,6.8,4.6.07,7.09-2.71,7.4-7.42C219.53,224.07,216.89,221.74,212.1,220.67ZM111.81,363.28c5-22.55,5-22.55-6.65-32.24,1.43,8.5,2.68,16.25,4.07,24C109.57,356.9,110.36,358.71,111.81,363.28Z"/><path class="cls-1" d="M413.84,56.21l-9.67-7.09c30.82,2.81,59.71-.65,87.28,3.44,34.86,5.18,68.08-5.06,102.24-3.43,29.95,1.42,60,2.2,89.73,5.63,9.75,1.12,18.93,6.39,19.57,18.48.72,13.56,1.08,27.15,1.28,40.73.06,3.81.47,9-4.21,10.15a13.3,13.3,0,0,1-13.24-3.73c-3.19-3.29-4.92-7.26-6.33-11.42-1.53-4.53-2.92-9.12-4.11-13.75-2.94-11.38-7.37-18.74-22-17.46C639,79.12,623.29,77,607.74,75.88,595.55,75,589.08,81,586.23,92.12c-.69,2.7-1.86,5.49-1.68,8.17,1.76,26.31-4.5,52.4-2,78.71,1.12,11.69-2.63,23.05-2.77,34.61-.42,35.2,3.41,70.25,3.69,105.48.16,19.55,12,27,31,24,3.46-.55,7.64-1.12,10.52.29,6.57,3.22,10.83,9.67,8.93,16.64-2,7.48-10,6.41-15.24,4.35-10.91-4.29-21.72-4.62-32.93-2.61-1.17.21-2.59.52-3.56.07-27.47-12.8-54.1,2.69-81.18,2.37-5.2-.06-10.46.49-15.59-.12-5.67-.69-12.73-.3-14-8.29-.89-5.77,8.65-15.42,15.24-15.82a75.89,75.89,0,0,1,8.39.22c18.47.89,27.47-6.69,29-25,2.08-25,2.25-50.1,1.89-75.28-.43-30.14-2.42-60.41,1.61-90.55,2.29-17.11,1.39-34.35.33-51.53a37.27,37.27,0,0,0-4.13-14.9c-3.2-6.21-6.78-9.41-14.09-4.94-5.21,3.19-11,2.88-17.29,1.08-16.84-4.83-33.94-1.14-50.87.37-9.32.83-11.6,8.86-12.88,16.57-1.71,10.26-3.19,20.51-8.81,29.6-2.05,3.31-3.15,8.58-7.88,7.76s-9.6-3.83-10.22-9c-2-16.62-7-33-5-49.94C397.84,65.63,399.81,56.51,413.84,56.21ZM560.7,310.78c1.51-7.22,3.31-14.47-1.45-22.4C555.26,297,557.36,304,560.7,310.78Z"/><path class="cls-1" d="M1573.16,353.82c-4.59-15.63-10.51-28.05-9.07-43.23,1.89-19.9,1.37-40.06,1.06-60.1-.13-8.94,6.31-12.08,12.5-16.85C1562.48,272.61,1580.3,312.3,1573.16,353.82Z"/><path class="cls-1" d="M1895.65,475.63c-16,8.15-29.36,12.8-44.87,10.51-15.13-2.23-30.49,1-45.93-1-8.92-1.16-15-3.39-20.18-13.85C1821.25,488.51,1857,473,1895.65,475.63Z"/><path class="cls-1" d="M876.05,503.37c-29.23,6.68-57.22,20.25-88.66,15.06C815.06,503.81,844.87,500.11,876.05,503.37Z"/><path class="cls-1" d="M1045.47,414.5c4.61,9.53-2.15,12.68-9,14.43-14.92,3.8-29.61,2.28-46.08-4.06,15.47-12,31.86-12.1,48.16-12.44l-.36-.21c1.56,3.66,4.55,3.07,7.53,2.56Z"/><path class="cls-1" d="M1137.69,770.17a89.88,89.88,0,0,0,31.53-6.71c5.28-2.18,9.14-2.58,9,5.13-.06,3.1,1.11,6.24,1.79,9.34,1.38,6.26-.58,9.08-7.22,7-5.3-1.64-10.6-3.25-15.84-5.06-10-3.43-19.86-7.41-27.57,4.23-1.54,2.31-4.34,2-6.37.55s-1.2-3.76-.22-5.36C1126.5,773.26,1129.43,765.56,1137.69,770.17Z"/><path class="cls-1" d="M697.94,1046.12c27.78.85,55.57,8.19,82-6.6,2.05,10.81-.11,14.47-10,14.94a100.56,100.56,0,0,1-21.43-1.34c-8.47-1.43-16.18-2.61-23.73,3.6-5.64,4.64-11.38,0-16.44-2.82C704.59,1051.81,701.39,1048.75,697.94,1046.12Z"/><path class="cls-1" d="M1090.92,178.44c-.75,18.1.95,33.66-1.27,49.14-.34,2.35,1.35,7.19-2.92,6.1-5.92-1.51-10.89,4.11-16.09,1.36-2.63-1.39-.16-4.36,1.2-6.08,3.63-4.59,9.09-4.27,14.86-4.8-6.33-13.18,5.09-38.75-27.17-32.93C1069.71,183.79,1081.16,186.36,1090.92,178.44Z"/><path class="cls-1" d="M1100.05,557c-37.26,4.2-50.41,34-70.07,57.08C1029.38,587.67,1076.75,546.8,1100.05,557Z"/><path class="cls-1" d="M1281.91,578c-.91,14.87-11.38,12.07-20.64,12.29-19.65.47-27.57,5.62-30.9,19.11l-13.94-13.15C1239.88,592.23,1258.22,576,1281.91,578Z"/><path class="cls-1" d="M1281,173.59c7.07-5.27,13-13.46,23.65-8.48,7,3.26,13.83,2.1,20.91.31s14-4.92,23.26-1.89C1327.32,179.94,1303.23,170.56,1281,173.59Z"/><path class="cls-1" d="M352.61,788.35c-19.44-2.67-36.06-.3-52,6.47-6.57,2.79-13.59,5.39-10.74,15.41-7.21-8.24-5.54-18.59,4.2-20.88,15.7-3.7,31.82-5.64,47.81-8C345.69,780.77,348.4,783.61,352.61,788.35Z"/><path class="cls-1" d="M1053.61,1030c-18.25,18.65-36.38-7.2-55.27.72,5.22-9.93,10.63-11.11,26.1-6.43C1033.9,1027.11,1043.35,1029.84,1053.61,1030Z"/><path class="cls-1" d="M1786.92,413.27c18.42-13.94,39.35-3.82,59.13-5.53C1827.47,418.92,1806.69,411.47,1786.92,413.27Z"/><path class="cls-1" d="M562.63,402.9c-23.12,6.68-46.78,8.45-73.14,9.78C514.77,402.91,537.85,396.44,562.63,402.9Z"/><path class="cls-1" d="M1320.84,907.89c3.66-8.41,9.63-8.91,14.75-10,11.56-2.43,24-.75,34.57-7.94,4-2.74,4.13,1.49,4.93,4,1,3.09,2.32,6.17-2.7,6.92-8.25,1.22-16.47,2.83-24.76,3.68S1330.92,904.8,1320.84,907.89Z"/><path class="cls-1" d="M937.48,68.82c7,13.82,17,26.21,20.65,41.69,1.17,4.95,4.38,9.47,2.94,16.18-8.26-10.45-16.65-19.57-18.87-32.66-1.27-7.49-4.79-14.25-8.62-20.83s3.16-2.35,4.21-4.09Z"/><path class="cls-1" d="M1949.63,1081.85c-4.88,12.26-18.93,14.65-21.19,12.08-12.49-14.24-24.43,2-36.07-1.3-1.8-.52-3.81-.31-9.19-.66C1905.71,1080,1927.11,1084.83,1949.63,1081.85Z"/><path class="cls-1" d="M1197.21,882.85c14.39-10.42,24.26-28.07,48.34-28.71C1229.7,868.38,1217.39,882,1197.21,882.85Z"/><path class="cls-1" d="M1940.14,1298.71c-4.94-16.12-12.59-30.49-.64-45.92,0,6.84-.07,13.67,0,20.51,0,3.08,1.33,6.57,4.77,3.77,3.76-3.07,6.44-5.5,7.41,1.22.48,3.37,4.15,9.55-5.82,7.94C1939.37,1285.18,1943.75,1293.9,1940.14,1298.71Z"/><path class="cls-1" d="M87.36,1030.13c-18.65,11.63-58.58,6-67-10.18C40.7,1036,64.23,1029.23,87.36,1030.13Z"/><path class="cls-1" d="M361.37,54.79c11.76-10,25.5-14.22,37.29-22.4C397.81,52.65,387.24,59.19,361.37,54.79Z"/><path class="cls-1" d="M336.64,496.24c-2,6.36-2.78,14.77-5.29,15.34-7.27,1.64-14.29,4.62-21.66,5.49s-4-3.91-2.5-6.67C313.33,499.19,324.36,498,336.64,496.24Z"/><path class="cls-1" d="M643.05,40.1c8.21-7.1,16.64-8.78,23.79-12.81s8.5,1.89,10.19,5.4c2.56,5.31-2.29,6.64-6.08,7.81C662.31,43.17,653.78,40.66,643.05,40.1Z"/><path class="cls-1" d="M1778.13,187.62c18.22-5.12,34.79-13.08,49.51-25.41C1823.9,178.82,1802.42,190.11,1778.13,187.62Z"/><path class="cls-1" d="M199.12,96.75c13-9.14,27.35-12.61,45.12-11.16C229.78,97.17,215,99.07,199.12,96.75Z"/><path class="cls-1" d="M1002.07,529.2c8.78,18.3,3.55,32.42-16.77,41.69C996,557.43,1002.71,544.65,1002.07,529.2Z"/><path class="cls-1" d="M1287.73,457.33c15.46-7.48,31.11-10.46,50-3.29C1319.57,460.05,1303.4,455.58,1287.73,457.33Z"/><path class="cls-1" d="M1715,82.85c8.75-5.61,14.47-9.78,20.66-13.06,4.49-2.38,11.32-4.48,13.63.82,2,4.74-4.31,7.72-8.72,9.41C1733.48,82.76,1726,83.39,1715,82.85Z"/><path class="cls-1" d="M964.55,1094.89c7.33-11.24,8.85-8.6,40.38-12.87C994,1094.5,979.71,1093,964.55,1094.89Z"/><path class="cls-1" d="M657.64,621.28c10.44-14.23,24.74-7.34,36.23-11.66C690.68,619.06,690.68,619.06,657.64,621.28Z"/><path class="cls-1" d="M905.16,993.37c-12.2,6.18-25.51,7.44-38.74,9.16C876.92,990,891.34,992.74,905.16,993.37Z"/><path class="cls-1" d="M202.15,832.53c-5.82,3.09,4,7.8-1.14,11l.11.07c-11.91-9.63-19.1-11.75-37.65-11.13,8.35-7.91,18.95-8.25,30.7-1.72,2.19,1.21,4,7.53,8.13,2Z"/><path class="cls-1" d="M1737.53,969c-1.92-6.37,2.85-6.35,4.24-8.61s14.88.12,3.73-8c-.21-.15.06-1.59.5-1.91a5.86,5.86,0,0,1,6.74.07c4.52,2.82,7.84,7,7.62,12.51-.12,3-3.34,2.62-5.75,2.37C1748.84,964.85,1743,964,1737.53,969Z"/><path class="cls-1" d="M211,464.53c10.62-2.46,16.2,1.29,20.3,7.39,4.65,6.93,4.56,14-2.37,22.36-.92-7-.22-12.67-3-17.73C223,471.17,218.18,468.06,211,464.53Z"/><path class="cls-1" d="M317.39,1019.72c14.55,2.29,29.3,3.64,44.45,11.34-4.09-6.41-8-2-8.43-1.31-5.63,8.77-11.13,3.91-16.94.5-6.15-3.61-12.5-6.89-18.76-10.31Z"/><path class="cls-1" d="M403.67,749.36c-8.37,12.34-9.67,12.73-33.73,12.26C378.53,749.81,390.7,753.05,403.67,749.36Z"/><path class="cls-1" d="M1104.47,689.21c6.7-7.5,14.23-8.54,22.3-7.87,2.47.21,5.06,1.3,5.53,3.81.59,3.07-1.47,5.14-4.31,6.41C1120.05,695.14,1112.8,693.39,1104.47,689.21Z"/><path class="cls-1" d="M231.24,1004.92c-10.23,13.66-21.6-2.85-33.08,5.07C202.92,1000.67,202.92,1000.67,231.24,1004.92Z"/><path class="cls-1" d="M541.92,1058.06c1.77-12.69-5.44-20.15-15.85-27,9.81-1.43,15.59,2.15,18.87,9C547.89,1046.22,548.1,1052.71,541.92,1058.06Z"/><path class="cls-1" d="M1416.54,592.17c-5.48-12.52-6.12-41.56,0-50C1411.87,560.05,1419.9,575,1416.54,592.17Z"/><path class="cls-1" d="M937.07,66.65c-12.24-7.59-15.76-18.28-9.39-35.72,2.08,14.35,8.69,24.2,9.11,36Z"/><path class="cls-1" d="M876.81,34.41c-11,2-17.95-1.24-24.13-6.55-1.49-1.28-2.63-3.42-1.59-5.38,1.22-2.33,3.49-.88,5.31-.65C864.15,22.78,868.42,29.24,876.81,34.41Z"/><path class="cls-1" d="M731.58,136c10.36-12.59,20.64-6.81,29.94-6.71C754.49,139.65,744.13,135,731.58,136Z"/><path class="cls-1" d="M1203.11,893.43c7.69-6.31,14.82-7,21.88-7.68,2.39-.22,5.9-1.44,5.85,3.45,0,3.69-2.34,5.37-5.12,5.38C1218.85,894.61,1212,893.94,1203.11,893.43Z"/><path class="cls-1" d="M1086,780c6.65-11.12,15.25-9,23.13-8.69,2.06.09,3.44,2,2.86,4.32s-2.09,4.32-4.87,4.35C1100.76,780,1094.44,780,1086,780Z"/><path class="cls-1" d="M1550.84,410.65c12.44-.74,23.86-.23,32,1.49C1574.85,421.36,1563.41,417.51,1550.84,410.65Z"/><path class="cls-1" d="M1450.71,1018.25c7.6-6.24,14.73-7,21.84-7.59,2.57-.22,5.8-.94,5.79,3.65,0,3.63-2.31,5.42-5.08,5.39C1466.29,1019.64,1459.33,1018.86,1450.71,1018.25Z"/><path class="cls-1" d="M1481.54,963.65c8.32-8.5,18.64-2.06,27.61-6.22C1505.11,966.48,1502.78,966.94,1481.54,963.65Z"/><path class="cls-1" d="M1070.77,121.49c4.65-13.16,15.71-8.28,26.11-12.74C1089.68,120.4,1080.74,120.27,1070.77,121.49Z"/><path class="cls-1" d="M1153.17,435.57c7.19-4.58,4.08-18.43,18.44-16.05C1163.51,423.32,1169.54,440.06,1153.17,435.57Z"/><path class="cls-1" d="M767,107.38c-2.15-.95-7.57,1.86-6.84-3,1.37-9.28,10.68-6,16.37-8.52,2.19-1,4.32.52,4,2.78C779.54,106.25,773.77,107.41,767,107.38Z"/><path class="cls-1" d="M1708.58,996.58c-6.12,13.15-15,11.47-25.07,11.36C1689.41,998.39,1698.27,999.72,1708.58,996.58Z"/><path class="cls-1" d="M1757.87,779.94c6-11.24,17.68-4.48,23.39-11.24a27.3,27.3,0,0,1,2,7.3c.25,3.24-1.77,4-4.43,3.94C1772.54,779.93,1766.23,779.94,1757.87,779.94Z"/><path class="cls-1" d="M705.3,169.89c-9.53,6-16.18,10.26-25.8,5.17C687,168.84,694.49,169,705.3,169.89Z"/><path class="cls-1" d="M442.47,167.7c-7.52.91-15.46,2.76-22.63-5.72C428.91,162.64,436.63,160.44,442.47,167.7Z"/><path class="cls-1" d="M1386.55,5c9.39-3.73,16.1-7.65,24.88-2.45C1403.25,4.22,1396.59,8.05,1386.55,5Z"/><path class="cls-1" d="M499.14,723.47c2.7-7.14-.84-13.18-2.86-19.6C507.06,707.9,508.08,713.74,499.14,723.47Z"/><path class="cls-1" d="M1696.16,701.67c-.54,11-7.41,14.93-13.93,23.25C1683.81,713.31,1690.27,708.88,1696.16,701.67Z"/><path class="cls-1" d="M1738.33,199.6l11.56-16.89c4.24,8.7,4.24,8.7-9.69,18.32A12.34,12.34,0,0,0,1738.33,199.6Z"/><path class="cls-1" d="M1455.54,800.08c-3.13,6.44-8.31,9.25-13.14,13.92C1440.9,803.07,1445.77,800,1455.54,800.08Z"/><path class="cls-1" d="M707.77,469.67c1.75-7.74,7.11-10.49,15.34-11.16C719.17,464.93,712.84,466.47,707.77,469.67Z"/><path class="cls-1" d="M317.71,1019.94l-.47.14s.21-.34.18-.35S317.71,1019.94,317.71,1019.94Z"/><path class="cls-1" d="M1738.56,203.89c-.71.13-1.42.27-2.13.37a6.3,6.3,0,0,1-.15-.62l2.58.4Z"/><path class="cls-1" d="M1738.86,204c-2.38-1.22-1.51-2.82-.53-4.44a12.34,12.34,0,0,1,1.87,1.43c-.57.94-1.14,1.88-1.68,2.84Z"/><path class="cls-1" d="M201,843.49l1.23-.51c-.16,0-.35-.05-.47,0a6.67,6.67,0,0,0-.65.56Z"/><path class="cls-1" d="M936.79,67l1.74-.18c-.36.67-.71,1.35-1.06,2l.32.3c-.22-.83-.46-1.66-.71-2.48Z"/><path class="cls-1" d="M844.19,789.92l.24.11Z"/><path class="cls-1" d="M1234.9,1290.35c0,5.19,0,10.39,0,15.59.08,24-20.58,37.82-44,31.46-12.93-3.51-17.61-11.2-21.2-22.56-6-19,.94-35.82,9.65-51.16,9.22-16.22,38.69-18.38,52.22-5.8,3.49,3.25,4,7.59,4,12.11-.09,6.79,0,13.58,0,20.36Z"/><path class="cls-1" d="M1395.56,1260c-2.91-.24-7.68-.58-12.44-1q-15.72-1.56-7.13-14.89c7.48-11.59,24-15.76,34.54-8.55,5.52,3.79,9.51,8.51,8.06,16-1.56,8-8.27,7.49-14,8.44C1402.28,1260.3,1399.83,1260,1395.56,1260Z"/><path class="cls-1" d="M209.51,664.83c15.45-6.4,30.62-12.68,48.88-6-7.08,5.56-15.56,7.69-16.16,18.41-.28,5.06-7.52,1.2-10.68-1.11C224.86,671.2,218.4,666.18,209.51,664.83Z"/><path class="cls-1" d="M176.1,621c14.14-6.29,26.2-4.94,37.68-6.67,2.68-.41,4.48,2.18,4.61,4.51.2,3.57-3,4.62-5.7,4.51C201.61,622.82,190.54,621.93,176.1,621Z"/></svg>