<svg id="Layer_1" data-name="Layer 1" xmlns="http://www.w3.org/2000/svg" viewBox="0 0 1576.54 1648.46"><defs><style>.cls-1{fill:none;}.cls-2{fill:#070707;}</style></defs><path class="cls-1" d="M662.4,1005c-8.19-4.75-7.3-12.48-7.23-20.1.07-12.43-.43-24.88.15-37.26.43-9-5-8.17-10.8-8.15s-11-.94-10.55,8.19c.77,14-.05,28.07.31,42.09.17,6.24-1.85,8.5-8.16,8.34-12.82-.37-25.68-.46-38.5,0-7.27.27-10-2-9.66-9.51.53-13.61-.29-27.3.29-40.91.38-8.86-4.79-8.38-10.7-8.24-5.59.12-11.92-1.13-10.48,8.07a39.12,39.12,0,0,1,0,6q-.08,21.64-.17,43.29c-18.5,12.48,7.23,24.57.43,37.31-1.66,3.14-.26,7.91-.26,11.9,0,7.23.65,14.53-.15,21.64-1.06,9.27,4.17,9.06,10.77,9.27,7.35.24,11-1.3,10.55-9.78-.65-13.18,0-26.45-.24-39.68-.09-5.73,1.06-8.86,7.86-8.64,13.61.43,27.27.36,40.88,0,5.8-.14,7.63,1.93,7.51,7.61-.31,14,.29,28.09-.26,42.09-.29,7.47,3,8.87,9.25,8.26,5.57-.55,12.5,2.17,12.05-8.12-.58-12.79,0-25.65-.2-38.47-.09-7-.17-13.61,6.68-18C664.86,1010.35,666.64,1007.46,662.4,1005Z"/><path class="cls-1" d="M674,1181.57c-4,2.41-4.65,5.49-.39,8.16,6.53,4.08,6.53,10.22,6.39,16.8-.24,11.2.34,22.42-.22,33.6-.33,7.33,2,9.69,9.45,9.69,7.78,0,10.57-2.17,10.14-10.19-.65-12,.58-24.07-.41-36-.72-8.4,7.47-11.53,8.5-17.12,1.11-6-10.33-9-8.5-18.07,1.25-6.14.24-12.77.24-19.18,0-6.79-.43-13.63.12-20.4.65-7.86-3.83-8.17-9.64-8.07-5.56.09-10.23-.24-9.87,7.85.53,12.79-.08,25.63.21,38.43C680.15,1173,679.67,1178.17,674,1181.57Z"/><path class="cls-1" d="M658.23,1379.52c-18-3.15-21.08-.65-21.08,17.2,0,6.41.48,12.87-.12,19.23-.91,9.37,2.19,13.87,11,12a32,32,0,0,0,4.7,0c3.64-.63,10,2,10.19-3.11.24-6.79-6.55-2.94-10.21-3.81-2.94-.7-6.89.7-7.62-3.83-.55-3.51-1.47-7.54.87-10.48,2.89-3.66,7.52-1.27,11.32-1.92,2.17-.37,5.3.67,5.69-2.73.43-4.12-2.82-4.12-5.66-4.24-2-.07-4-.07-6-.09-3.49,0-6.36-.56-6.48-5.06s1.83-6.7,6.38-6.6c2.39,0,4.8,0,7.21-.12,2-.1,4.4-.2,4.67-2.65C663.46,1379.88,660.59,1379.93,658.23,1379.52Z"/><path class="cls-1" d="M690.73,1398.58c-3.88-1.74-11-2.36-7.93-9.23,2.27-5.11,6.89-4.29,10.94-.82,2.58,2.19,4.63.22,6-1.64,1.54-2.16-.72-3.59-2.05-4.84-2.72-2.58-6.19-3.54-9.85-3.9-6.34.75-11.8,2.94-13.8,9.68-1.83,6.27.82,10.94,6.19,14.15,2.72,1.63,5.68,2.89,8.55,4.31,3.44,1.71,6.14,3.92,5.35,8.31a7.56,7.56,0,0,1-5.23,6.05c-3.52,1.2-6.55.16-8.21-3-1.79-3.33-4.36-5.86-7.33-3.11-3.18,3-.43,6.48,2,9.18,4.5,5.08,10.31,6.24,16.4,4.26s10-6.28,10.51-13.17C702.82,1406.12,697.93,1401.81,690.73,1398.58Z"/><path class="cls-1" d="M690.27,1062.9c-1.4,4.24-6.48,9.83-2.55,12.84,3.35,2.57,10,1.27,15.18.91,6.52-.46,6-6.89,7.56-10.91,9.18-23.25,9.2-21.56,33-23.78,23.25-2.17,38.47,3.21,42.06,28.26a7.14,7.14,0,0,0,1.28,3.35c5.42,6.5,13.15,3.88,19,2.55,5.56-1.27.48-6.79-.65-9.85-14.36-39.1-29.18-78-43.58-117.11-2.48-6.77-5.23-11.8-13.57-9.32-8.77-2.31-13,1.49-15.49,9.93-3.15,10.74-7.85,21-11.61,31.55-3.64,10.19-6.26,20.92-18.48,24.67-3.37,1.06-4.74,3.69-1.59,6.17,7.11,5.64,4.27,11.61,1.64,18.12C698.08,1041,693.86,1051.86,690.27,1062.9Z"/><path class="cls-1" d="M729.81,1379.67c-2.8-.15-5.59-.05-8.39-.05v.29c-4,0-7.95-.12-11.92,0a2.55,2.55,0,0,0-2.56,3.2c.2.89,1.45,2.26,2.19,2.24,12.07-.36,8.77,8.53,9,15,.27,7.18,0,14.36.13,21.54,0,2.34-.08,5.08,3.22,5.42,4.22.43,4.15-2.75,4.17-5.56.07-9.18,0-18.34.07-27.52,0-4-.69-8.36,5.42-8.5,2,0,4.29-.48,4.1-3.11C735,1379.35,732.07,1379.76,729.81,1379.67Z"/><path class="cls-1" d="M639.37,1204.07c-6.55.26-12.29,0-10.79,9.2.72,4.48-2.27,7.11-4.94,10.26-9.21,10.8-21.44,6.82-32.6,7-10.12.17-19.13-9.88-19.17-20.12q-.15-25.26,0-50.51c0-2.73-.12-5.81,1.06-8.15,4.77-9.54,22.72-15.66,38.69-11.63,10.45,2.62,18.62,9.2,17.08,22.26-.39,3.32.14,6.79,4.75,6.57,4.24-.19,11,2.22,12.16-1.92,2.43-8.6,4.87-19.64-1.13-26.45-9.73-11-20-23.45-38.26-19.93-6.94,1.33-14.38.24-21.58.22-3.64,0-7.23,0-10.24,2.48-12.91,10.79-26.77,21-21.49,41.32,2.39,9.1-6.36,14.23-7.88,20.93-1.2,5.47,10.12,10.75,8.05,20.29-3.52,16.18,3.64,27.27,16.38,37.65,10.14,8.26,20.38,4.62,29.46,6,5.18,0,9.18,0,13.21,0,18.71,0,35.22-16.89,34.85-35.42C646.91,1208.84,647.68,1203.71,639.37,1204.07Z"/><path class="cls-1" d="M554.57,655.25c23.34,3.64,27.2,19.35,31.41,35.08,2.89,10.82,7.37,21.25,9.78,32.14,3,13.51,13.13,8.09,20.94,9.27s10-3.13,11.49-10c5.76-26.21,12-52.3,18.43-78.37,1.78-7.25,2-15.13,7.13-22.86.94,3.16,1.59,5,2,6.84q11.13,47.38,22.19,94.8c1.32,5.66,2.62,11.35,10.52,9.54,7.52-1.71,18,5.42,21.49-8.46,3.62-14.33,9.49-28.11,13.13-42.42,2.77-10.89,7.3-19.22,18.58-22.64,6.43-2,6.31-5.4,1.32-8.85-7.2-5-7.11-11-4.46-18.55,5.52-15.87,10.36-32,15.25-48.06.82-2.79,3.26-6.14.46-8.79-5.2-4.92-24.81,1-26.84,7.9-6.36,21.92-12.6,43.87-18.93,65.79-4.53,15.57-9.13,31.08-14.72,50-1.9-7.56-2.94-11.35-3.78-15.18q-10.87-49.86-21.71-99.76c-.79-3.71-.19-8-5.54-9.47-15.15-4.26-23.13.58-26.52,16.24q-11.36,52.08-22.89,104.1l-2.48.22q-14.54-50.13-29-100.27c-6.31-21.8-6.28-21.83-28.91-20.14a14.35,14.35,0,0,0-3,1.08c5,16.36,9.46,33,15.25,49.08C569.55,635.64,572.49,646.56,554.57,655.25Z"/><path class="cls-1" d="M1018.58,573c-16.4.7-32.86.19-49.29.19-15.22,0-30.47.32-45.67-.12-8.19-.24-13.28.22-12.84,11.08.36,9.45,1.87,13.49,12.45,13,11-.46,25.39-5.23,32.28,2.14s-1,22.33,2.7,32.31c4.7,12.62-19.68,15.42-8.09,25.85,10.76,9.71,6.57,20.47,7.32,31,.77,10.77.17,21.63.17,32.45a21.53,21.53,0,0,1,0,2.41c-1.06,9.85,5.9,8.43,11.83,8.43s12.16,1.69,11.75-8.36c-.65-16,.12-32.07-.29-48.09-.19-7.27.73-13.32,7.57-17.39,5.25-3.11,5.06-6.89-.1-9.88-7-4.07-8.14-10.28-7.37-17.46a29.15,29.15,0,0,0,0-3.62c0-30.06,0-30.06,29.49-30.09,2.82,0,5.64-.16,8.43,0,11.5.74,7.16-7.93,7.76-13.35C1027.35,577.73,1027.62,572.57,1018.58,573Z"/><path class="cls-1" d="M806.75,1400.67c4.29-8.91.94-17.77-7.44-20.93s-17.88.31-20.24,7.54c-.77,2.31-1.49,4.94,1.23,6.26a3.74,3.74,0,0,0,5.11-1.85c2.74-5.88,7-8.29,12.31-3.88,5.88,4.89,2.26,10.12-1.23,14.65-6,7.83-12.31,15.46-20.26,25.44,8.36,0,13.59.38,18.74-.12,4.39-.44,12,2.65,12.34-3.18.33-6.8-7.67-2-11.5-3.93a9.92,9.92,0,0,1-1.68-1.47c.38-3.88,3.83-5.81,5.78-8.72C802.1,1407.15,805,1404.22,806.75,1400.67Z"/><path class="cls-1" d="M905.16,364.16c-7.8.27-4,8.24-4.16,12.68-.51,14.43-.49,28.88-.08,43.31.2,7.28-.74,13.47-7.32,17.71-5.66,3.66-5.23,7.51.12,11,6.14,4,7.37,9.64,7.2,16.55-.38,15.64.12,31.3-.24,46.93-.14,6.94,1.62,9.74,9.3,10.12,10.7.56,15.44-2.24,14.17-13.78-1-8.72-.2-17.63-.2-26.45V410.66c.89-.27,1.79-.51,2.7-.77q9.26,16.44,18.5,32.86c13.78,24.4,27.68,48.76,41.27,73.28,5.64,10.19,14.89,6.12,22.48,5.54,6.77-.53,3.92-7.63,4.05-11.87.36-14.43.43-28.89,0-43.32-.2-7.3.89-13.3,7.44-17.68,3.23-2.15,7.44-5.54,1.73-9.13-10-6.27-9.27-15.71-9.1-25.42.24-13.63-.56-27.29.24-40.9.58-9.81-4.63-9.66-11.73-9.83-7.59-.2-11.54.84-11.35,10.12.58,28.88.26,57.77.14,86.65,0,4.05,1.06,8.43-2,13.78-8.24-14.43-15.73-27.58-23.25-40.74-11.88-20.88-24.14-41.58-35.51-62.75C923.38,358.91,913.35,363.87,905.16,364.16Z"/><path class="cls-1" d="M764.26,386.4c11.08.55,25.53-5.06,32.35,2.43,6.62,7.3,1.23,21.56,2.1,32.72.55,6.94-1,12.65-7.26,16.45-7,4.22-4.43,8,.73,11.33,5.34,3.42,6.69,8.21,6.57,14.35-.33,16.46.39,32.94-.29,49.37-.41,10.45,6.1,9.05,12.53,9.17s11.71.61,11.28-9c-.77-16.41,0-32.89-.32-49.34-.12-6,.68-11.11,6.29-14.41,6.53-3.87,7.23-8,.27-12.16-5.47-3.28-6.89-8.12-6.56-14.29a186.92,186.92,0,0,0-.05-25.27c-.74-8.72,1.69-12.5,11.11-11.64,8.77.8,17.71-.43,26.48.32,10,.84,8.62-5.54,8.62-11.54s1.47-12-8.6-11.52c-16.43.82-32.91.22-49.36.22s-32.91-.07-49.36.07c-2.92,0-6.44-1.3-8.34,2.7C747.75,376.38,753.53,385.87,764.26,386.4Z"/><path class="cls-1" d="M568.78,447c10.1,6,9.54,15.5,9.32,25.25-.26,12.43.25,24.89-.16,37.29-.29,8.29.53,13.23,11.29,13.09,10-.12,11.81-3.67,11.69-12.58-.48-30.5-.24-61-.1-91.47,0-2.73-1.78-6.27,2.51-8.87,10.6,20,21,39.8,31.63,59.48,1.78,3.3,2.77,7.16,7.9,8,14.74,2.51,20.74,0,27.78-13.13q6.5-12.17,13-24.35,8-14.85,16-29.73c2,35,2.38,69.09,1.78,103.18-.19,10.67,6.12,8.89,12.36,9.06,6.58.14,12.67,1.13,12.17-9.27-.82-16,.07-32.09-.36-48.14-.17-6.94,1-12.53,7.2-16.43,4.79-3,5.8-6.62.31-9.92-6.84-4.1-7.68-10.22-7.49-17.49.38-16,.19-32.09,0-48.14,0-3,1.32-6.57-2.12-8.74-6.41-4-24.62.82-28.33,7.63-14.17,26-28.24,52.09-43.39,80.08-2.65-4.45-4.34-7.08-5.81-9.8-13-23.92-26.14-47.8-38.9-71.87-6.1-11.41-16.39-6.19-24.65-5.95-7.83.22-4.05,8.22-4.21,12.65-.51,13.61-.49,27.27-.08,40.91.24,8.41-.43,15.85-8.38,20.91C566.54,440.68,563.87,444.05,568.78,447Z"/><path class="cls-1" d="M828.77,573c-5,1-10.41.07-15.61.19-2.75,0-5.61-.51-8,1.57-15.28,13-33.51,23.63-28.67,49.21,1.57,8.32,3.71,14.17,9.47,20.53,13.46,15,29.19,21.15,48.9,18.09a31.51,31.51,0,0,1,7.2,0c10.22.84,17.47,7.59,20.77,15.7,3.23,7.93,1.06,16.19-6.89,23.4-9.61,8.72-20.07,6.33-30.5,6.53-17.13.36-26.26-7.88-28.11-24.72-.36-3.37-.36-6.89-4.87-6.58-6.09.41-13.1-2.84-18.07,2.41-3.13,3.3.22,26.43,3.57,29.61,14.81,14.14,28.91,30,53,21.39,24.31,9.06,37.65-8.41,52.81-21.78a9.81,9.81,0,0,0,3.63-7.22c1.06-20.48,2.56-40.31-19.22-53.44-8.14-4.91-14.84-9.8-24.77-8.89a138.12,138.12,0,0,1-22.83,0c-9.74-.72-16.41-7.59-19.61-15.44-3.06-7.44.12-14.62,7.2-20.91,10.45-9.28,22.09-5,33.22-5.59,12.09-.58,21.39,9,22.33,21.1.27,3.33-1.18,8.2,4.43,8.05,6.2-.14,13.09,2.63,18.41-1.93,3.11-2.62-.43-25-3.49-28.42C868.52,579.75,852.11,568.46,828.77,573Z"/><path class="cls-1" d="M1281.82,731.53q-46.83-283.5-93.49-567c-1.3-7.9-4.17-10.41-12.24-10.39q-382.32.3-764.67.08c-6.94,0-10.31,1-11.71,9.25-9.71,57.29-20.28,114.4-30.45,171.62q-39.52,222.5-78.78,445c-2.91,16.77-9.37,33.42-6.33,50.83Q308.36,969.53,333,1108c22,124.29,44.25,248.55,65.84,372.91,1.86,10.67,5.78,13.15,16,13.13q189.65-.51,379.31-.22,190.26,0,380.51.07c6.92,0,12,0,13.52-9q22.62-140.05,45.89-280c18.12-109.93,36.45-219.81,54.28-329.76,3.06-18.91,9.83-37.68,7.39-57C1292,789.18,1286.57,760.39,1281.82,731.53Zm-8.07,172.2q-31.11,188-61.93,376c-10.56,64.06-21.42,128.07-31.44,192.2-1.67,10.5-6.07,12.19-15.57,12.16q-185.44-.46-370.87-.22-186,0-372.06.2c-9.23,0-12.7-2-14.44-12q-42.27-241.53-85.57-482.9c-9.44-53.24-19.05-106.48-28-159.82-2.62-15.66,3.43-30.89,6.1-46.14q40-227.29,80.68-454.45c9.13-51.28,18.38-102.55,27-153.91,1.44-8.63,4.62-10.82,13.08-10.82q372.68.36,745.37,0c8.84,0,12.41,2.29,13.88,11.32q24,148.35,48.76,296.56c16.5,100,31.12,200.44,50.3,299.93C1287.85,817.24,1281,860,1273.75,903.73Z"/><path class="cls-1" d="M1300.78,522.2c-22.91-135.51-46.06-271-68.49-406.56-1.92-11.61-5.59-14.6-17.2-14.6q-417.81.58-835.59.29c-2.41,0-4.84.22-7.23,0-5.39-.53-7.59,1.49-8.48,7.15-2.48,15.83-5.85,31.51-8.72,47.27Q298.6,467.37,242.3,779c-2.94,16.36-9.25,32.65-6.21,49.61q28.83,160.88,58.15,321.68,34.33,189.83,68.47,379.7c1.61,9,4.5,12,14.33,12,140.07-.43,280.13-.29,420.22-.29s280.13,0,420.19,0c7.11,0,12.6.43,14.22-9.49,14.88-90.53,30.35-181,45.6-271.48,21.51-127.61,43.22-255.2,64.27-382.9,3.69-22.36,11.66-44.5,7.81-67.65Q1325.32,666.19,1300.78,522.2Zm21.15,351.32c-16.28,99.23-33.22,198.36-50,297.52-19.2,113.81-38.57,227.56-57.43,341.39-1.69,10.22-7.54,9.28-14.48,9.28q-198.06,0-396.13,0h-7.22c-133.66,0-267.32-.14-401,.29-11.23,0-14.79-3.42-16.69-14.09q-43.8-244.32-88.32-488.49c-11.44-63.07-23.23-126.09-34.11-189.26-3.57-20.6,4.33-40.45,7.9-60.42q38.7-216.53,78.37-432.87,18.57-102.3,36.83-204.62c1.42-8.1,4.26-11.08,13.08-11.08q404.58.39,809.14,0c9,0,11.35,3.25,12.7,11.39q30.6,183.18,61.79,366.26c17.76,105.08,35.75,210.14,53,315.32C1332.68,834.18,1325.16,853.84,1321.93,873.52Z"/><path class="cls-1" d="M1174.26,923.19c-.27-.24-.77-.21-1.16-.31q-141-37.51-282.08-75c-24.26-6.46-48.49-13-75.26-20.24,5.08-1.76,7.3-2.7,9.59-3.3q171.75-45.82,343.49-91.81c4.84-1.3,15.25.67,13.32-7.28-1.52-6.14-9.88-.41-14.65.85q-178.15,47.19-356.13,95a39.3,39.3,0,0,1-21.11.15q-146.67-39.5-293.45-78.59c-23.61-6.29-47.22-12.48-70.8-18.76-3.16-.85-6.82-2.46-7.71,2.21-.75,3.95,3.25,3.64,5.81,4.36,1.51.46,3,1.09,4.55,1.5Q539,761.24,649.37,790.55c44.47,11.83,88.94,23.78,136.54,36.5-5.39,1.83-8,2.86-10.69,3.59Q603.5,876.45,431.78,922.35c-4.82,1.3-14.58,1.06-12.92,6.36,2.49,7.85,10.36.92,15.21-.36q179-47.13,357.79-95.06a32,32,0,0,1,17.57,0q138.72,37.21,277.57,74c28.64,7.64,57.29,15.35,86,22.67,3.09.8,8.36,5.69,9.83-.91C1184.18,923.05,1177,925.55,1174.26,923.19Z"/><path class="cls-1" d="M1058.36,1009.08c0-12.43,0-24.86,0-37.3,0-11.39-18.94-31.92-30.36-32.13-19.63-.36-39.29.07-59-.2-5.64-.07-8.21,1.69-7.59,7.5a25.52,25.52,0,0,1-.05,7.2c-3.2,17.92,8.61,38.69-10.09,53.7,17.23,15.25,7.85,35.56,10.12,53.65a28.91,28.91,0,0,1,0,7.2c-.72,6.24,1.76,8.39,8.12,8.27q27.06-.59,54.13,0c6.46.12,10.89-2.51,16.12-6,15.29-10.14,21.49-23.37,18.72-41.48C1057.51,1022.83,1058.36,1015.89,1058.36,1009.08Z"/><path class="cls-1" d="M833.59,1204.14c-1.06-6.21-.17-12.79-.17-19.2,0-10.82,0-21.66,0-32.47,0-11.59-17.75-31.2-29.25-31.49-18-.41-36.08.12-54.1-.22-6.77-.12-8,3.06-7.86,8.82.27,10.82,0,21.63.1,32.47,0,7.54,1.25,15.3-7.11,20.1-4.09,2.36-2.34,5.54.7,7.56,6.26,4.14,6.67,10.14,6.48,16.84-.31,11.64.17,23.27-.19,34.88-.19,6.36,2.31,8.34,8.43,8.24,17.63-.29,35.29-.21,52.93,0,4.38,0,7.32-2.05,10.74-4.29C829.37,1235.56,836.77,1222.62,833.59,1204.14Z"/><path class="cls-1" d="M873.36,1404.26h-.19c0-6.81.07-13.63,0-20.45,0-3-2-4.14-4.77-4.09s-5.9-1-7.69,2c-2,3.42,1.4,3.59,3.18,4.81,3.23,2.27,2.08,5.81,2.15,8.85.14,8,0,16,.1,24,0,3.06-.92,7.47,3.44,7.76,4.82.29,3.59-4.34,3.71-7.26C873.53,1414.7,873.36,1409.47,873.36,1404.26Z"/><path class="cls-1" d="M916,1379.74c-3.69-.65-4.58.7-5.47,2l-26.16,38.09c9.37,4.16,20.07-3.5,26,7.42.68,1.23,3.88,0,4.65-2.17,1.42-4.17,5.66-5.9,2-13.3C912.65,1402.94,916,1390.36,916,1379.74Z"/><path class="cls-1" d="M829.25,1004.23c-3.54,2.22-5.51,5.09-.72,8,8.29,5,8,12.92,7.78,21.11-.29,11.61.46,23.29-.24,34.88-.53,8.43,3.76,8.7,10.14,8.77,6.63.1,10.41-.7,10-8.91-.67-13.62-.26-27.28-.12-40.93,0-2.9-1.2-6.32,3.26-8a21.66,21.66,0,0,1,26.47,10.74q7.67,15.64,15.37,31.27c8.36,16.79,8.39,16.79,29.2,14.77-7.66-15.71-14.5-31.49-22.91-46.35-4.94-8.75-3.9-14.87,3.35-20.7,12.19-9.85,14.6-22.81,13.22-37.6-1.22-13.35-19.8-31.78-33.15-31.78-14.45,0-28.93.48-43.33-.19C838.94,939,835.35,941,836,950.44c.87,12.36-.12,24.86.34,37.29C836.62,994.65,835.49,1000.31,829.25,1004.23Z"/><path class="cls-1" d="M833.76,1378.73c-9.18,0-13.08,6.62-15.59,14.16-2.07,6.19-1.88,12.72-.51,19,1.91,8.58,5.71,16.31,16,16.63,10.48.31,14.12-7.57,16.6-16,.87-3,.84-6.29,1.28-9.86-.61-3.2-1-6.77-2-10.19C847.27,1384.58,842.77,1378.68,833.76,1378.73Z"/><path class="cls-1" d="M1043.47,1217.08c-10.92-15-10.29-27.59,4.6-39.85,6.91-5.71,8.19-27.78,3.13-34.71-9.76-13.4-19.85-26.58-39.77-21.76-2.65.65-5.59.1-8.41.1-8,0-16,.29-24.07-.07-6.26-.27-8.55,2.24-8.38,8.4.29,11.23-.05,22.48.12,33.71.12,7.3.65,14.48-6.84,19.1-3.52,2.19-3.74,5.2,0,7.49,7,4.27,7,10.89,6.86,17.9-.24,11.23.27,22.48-.16,33.71-.29,7.22,3.08,8.55,9.41,8.64,6.7.08,9.38-2,9.14-9-.41-12-.17-24.06-.05-36.09,0-3-.94-6.62,2.21-8.84,5.83-4.12,21.37.41,24.67,7.09,6.58,13.25,13.66,26.33,19.56,39.89,4.46,10.19,13.54,8.22,19.32,6,7.14-2.77-.45-8.31-1.9-12.29C1050.48,1229.75,1047.64,1222.84,1043.47,1217.08Z"/><path class="cls-1" d="M932.43,1230.57c-14.43.5-28.88,0-43.31.19-5.28.1-7.86-2.12-6.72-7.06,2.14-9.42-5.42-20.43,4.55-28.35,1.25-1,3.9-.2,5.9-.22,8.43,0,16.89-.46,25.27.12,7.62.53,9.4-2.58,9.45-9.71.07-7.63-2.92-10.07-10-9.32a81.66,81.66,0,0,1-8.43,0c-28.09,0-27.82,0-27.08-27.9.2-6.94,2.36-9,9-8.77,14,.41,28.09-.17,42.11.24,7,.22,7.83-3.3,7.66-8.86s.34-10.53-7.78-10.19c-10.41.41-20.84.09-31.27.09s-20.86.2-31.27-.09c-5.71-.15-7.81,1.92-7.66,7.68.31,12.43-.08,24.86.17,37.29.09,6.2.12,11.91-6.17,15.64-4.07,2.41-4.22,5.8-.07,8.38,6.07,3.78,6.36,9.45,6.24,15.69-.25,11.61.16,23.27-.17,34.88-.2,6.29,1.08,9.52,8.43,9.37q30.67-.65,61.36,0c7.71.14,8.09-4,8.24-9.83C941.08,1233.58,939.78,1230.3,932.43,1230.57Z"/><path class="cls-2" d="M1228.78,471.92Q1204.32,323.66,1180,175.36c-1.47-9-5-11.32-13.88-11.32q-372.71.36-745.37,0c-8.46,0-11.64,2.19-13.08,10.82-8.63,51.36-17.88,102.63-27,153.91Q340.29,556,300,783.22c-2.67,15.25-8.72,30.48-6.1,46.14,8.92,53.34,18.53,106.58,28,159.82q42.9,241.43,85.57,482.9c1.74,10,5.21,12,14.44,12q186-.4,372.06-.2,185.44,0,370.87.22c9.5,0,13.9-1.66,15.57-12.16,10-64.13,20.88-128.14,31.44-192.2q30.93-188,61.93-376c7.23-43.73,14.1-86.49,5.33-131.88C1259.9,672.36,1245.28,572,1228.78,471.92ZM1026.7,583.51c-.6,5.42,3.74,14.09-7.76,13.35-2.79-.19-5.61,0-8.43,0-29.49,0-29.49,0-29.49,30.09a29.15,29.15,0,0,1,0,3.62c-.77,7.18.41,13.39,7.37,17.46,5.16,3,5.35,6.77.1,9.88-6.84,4.07-7.76,10.12-7.57,17.39.41,16-.36,32.09.29,48.09.41,10-5.92,8.33-11.75,8.36s-12.89,1.42-11.83-8.43a21.53,21.53,0,0,0,0-2.41c0-10.82.6-21.68-.17-32.45-.75-10.51,3.44-21.27-7.32-31-11.59-10.43,12.79-13.23,8.09-25.85-3.71-10,4-25.08-2.7-32.31s-21.29-2.6-32.28-2.14c-10.58.45-12.09-3.59-12.45-13-.44-10.86,4.65-11.32,12.84-11.08,15.2.44,30.45.12,45.67.12,16.43,0,32.89.51,49.29-.19C1027.62,572.57,1027.35,577.73,1026.7,583.51Zm-97.11-213c11.37,21.17,23.63,41.87,35.51,62.75,7.52,13.16,15,26.31,23.25,40.74,3-5.35,1.95-9.73,2-13.78.12-28.88.44-57.77-.14-86.65-.19-9.28,3.76-10.32,11.35-10.12,7.1.17,12.31,0,11.73,9.83-.8,13.61,0,27.27-.24,40.9-.17,9.71-.85,19.15,9.1,25.42,5.71,3.59,1.5,7-1.73,9.13-6.55,4.38-7.64,10.38-7.44,17.68.43,14.43.36,28.89,0,43.32-.13,4.24,2.72,11.34-4.05,11.87-7.59.58-16.84,4.65-22.48-5.54-13.59-24.52-27.49-48.88-41.27-73.28q-9.24-16.44-18.5-32.86c-.91.26-1.81.5-2.7.77v71.55c0,8.82-.77,17.73.2,26.45,1.27,11.54-3.47,14.34-14.17,13.78-7.68-.38-9.44-3.18-9.3-10.12.36-15.63-.14-31.29.24-46.93.17-6.91-1.06-12.55-7.2-16.55-5.35-3.47-5.78-7.32-.12-11,6.58-4.24,7.52-10.43,7.32-17.71-.41-14.43-.43-28.88.08-43.31.14-4.44-3.64-12.41,4.16-12.68C913.35,363.87,923.38,358.91,929.59,370.48ZM894.24,259l7.36-14.9L909,259l16.45,2.39L913.5,273l2.81,16.38-14.71-7.74-14.72,7.74L889.69,273l-11.9-11.61ZM883.05,595.85c3.06,3.42,6.6,25.8,3.49,28.42-5.32,4.56-12.21,1.79-18.41,1.93-5.61.15-4.16-4.72-4.43-8.05-.94-12.07-10.24-21.68-22.33-21.1-11.13.55-22.77-3.69-33.22,5.59-7.08,6.29-10.26,13.47-7.2,20.91,3.2,7.85,9.87,14.72,19.61,15.44a138.12,138.12,0,0,0,22.83,0c9.93-.91,16.63,4,24.77,8.89,21.78,13.13,20.28,33,19.22,53.44a9.81,9.81,0,0,1-3.63,7.22c-15.16,13.37-28.5,30.84-52.81,21.78-24.09,8.63-38.19-7.25-53-21.39-3.35-3.18-6.7-26.31-3.57-29.61,5-5.25,12-2,18.07-2.41,4.51-.31,4.51,3.21,4.87,6.58,1.85,16.84,11,25.08,28.11,24.72,10.43-.2,20.89,2.19,30.5-6.53,8-7.21,10.12-15.47,6.89-23.4-3.3-8.11-10.55-14.86-20.77-15.7a31.51,31.51,0,0,0-7.2,0c-19.71,3.06-35.44-3.13-48.9-18.09-5.76-6.36-7.9-12.21-9.47-20.53-4.84-25.58,13.39-36.2,28.67-49.21,2.41-2.08,5.27-1.52,8-1.57,5.2-.12,10.58.8,15.61-.19C852.11,568.46,868.52,579.75,883.05,595.85ZM793.46,227.32l7.35-14.91,7.36,14.91,16.45,2.39-11.9,11.6,2.81,16.38L800.81,250l-14.71,7.73,2.81-16.38L777,229.71Zm-41,139.06c1.9-4,5.42-2.67,8.34-2.7,16.45-.14,32.9-.07,49.36-.07s32.93.6,49.36-.22c10.07-.5,8.58,5.57,8.6,11.52s1.33,12.38-8.62,11.54c-8.77-.75-17.71.48-26.48-.32-9.42-.86-11.85,2.92-11.11,11.64A186.92,186.92,0,0,1,822,423c-.33,6.17,1.09,11,6.56,14.29,7,4.19,6.26,8.29-.27,12.16-5.61,3.3-6.41,8.39-6.29,14.41.29,16.45-.45,32.93.32,49.34.43,9.59-4.92,9.08-11.28,9s-12.94,1.28-12.53-9.17c.68-16.43,0-32.91.29-49.37.12-6.14-1.23-10.93-6.57-14.35-5.16-3.35-7.74-7.11-.73-11.33,6.29-3.8,7.81-9.51,7.26-16.45-.87-11.16,4.52-25.42-2.1-32.72-6.82-7.49-21.27-1.88-32.35-2.43C753.53,385.87,747.75,376.38,752.45,366.38ZM692.67,259l7.36-14.9,7.35,14.9,16.45,2.39L711.93,273l2.81,16.38L700,281.67l-14.72,7.74L688.12,273l-11.9-11.61Zm-122.9,179.6c8-5.06,8.62-12.5,8.38-20.91-.41-13.64-.43-27.3.08-40.91.16-4.43-3.62-12.43,4.21-12.65,8.26-.24,18.55-5.46,24.65,5.95C619.85,394.18,633,418.06,646,442c1.47,2.72,3.16,5.35,5.81,9.8,15.15-28,29.22-54.06,43.39-80.08,3.71-6.81,21.92-11.66,28.33-7.63,3.44,2.17,2.09,5.76,2.12,8.74.14,16.05.33,32.12,0,48.14-.19,7.27.65,13.39,7.49,17.49,5.49,3.3,4.48,6.91-.31,9.92-6.24,3.9-7.37,9.49-7.2,16.43.43,16-.46,32.14.36,48.14.5,10.4-5.59,9.41-12.17,9.27-6.24-.17-12.55,1.61-12.36-9.06.6-34.09.22-68.17-1.78-103.18q-8,14.9-16,29.73-6.54,12.18-13,24.35c-7,13.09-13,15.64-27.78,13.13-5.13-.86-6.12-4.72-7.9-8-10.6-19.68-21-39.48-31.63-59.48-4.29,2.6-2.48,6.14-2.51,8.87-.14,30.5-.38,61,.1,91.47.12,8.91-1.69,12.46-11.69,12.58-10.76.14-11.58-4.8-11.29-13.09.41-12.4-.1-24.86.16-37.29.22-9.75.78-19.22-9.32-25.25C563.87,444.05,566.54,440.68,569.77,438.63ZM553,573.37c22.63-1.69,22.6-1.66,28.91,20.14q14.46,50.16,29,100.27l2.48-.22q11.46-52,22.89-104.1c3.39-15.66,11.37-20.5,26.52-16.24,5.35,1.5,4.75,5.76,5.54,9.47q10.88,49.9,21.71,99.76c.84,3.83,1.88,7.62,3.78,15.18,5.59-19,10.19-34.47,14.72-50,6.33-21.92,12.57-43.87,18.93-65.79,2-6.91,21.64-12.82,26.84-7.9,2.8,2.65.36,6-.46,8.79-4.89,16.07-9.73,32.19-15.25,48.06-2.65,7.59-2.74,13.57,4.46,18.55,5,3.45,5.11,6.89-1.32,8.85-11.28,3.42-15.81,11.75-18.58,22.64-3.64,14.31-9.51,28.09-13.13,42.42-3.49,13.88-14,6.75-21.49,8.46-7.9,1.81-9.2-3.88-10.52-9.54q-11-47.42-22.19-94.8c-.46-1.88-1.11-3.68-2-6.84-5.11,7.73-5.35,15.61-7.13,22.86-6.41,26.07-12.67,52.16-18.43,78.37-1.52,6.89-3.61,11.2-11.49,10s-18,4.24-20.94-9.27c-2.41-10.89-6.89-21.32-9.78-32.14-4.21-15.73-8.07-31.44-31.41-35.08,17.92-8.69,15-19.61,10.65-31.72C559.43,607.41,555,590.81,550,574.45A14.35,14.35,0,0,1,553,573.37Zm59.2,676.21c-4,0-8,0-13.21,0-9.08-1.43-19.32,2.21-29.46-6-12.74-10.38-19.9-21.47-16.38-37.65,2.07-9.54-9.25-14.82-8.05-20.29,1.52-6.7,10.27-11.83,7.88-20.93-5.28-20.29,8.58-30.53,21.49-41.32,3-2.53,6.6-2.51,10.24-2.48,7.2,0,14.64,1.11,21.58-.22,18.31-3.52,28.53,9,38.26,19.93,6,6.81,3.56,17.85,1.13,26.45-1.18,4.14-7.92,1.73-12.16,1.92-4.61.22-5.14-3.25-4.75-6.57,1.54-13.06-6.63-19.64-17.08-22.26-16-4-33.92,2.09-38.69,11.63-1.18,2.34-1.06,5.42-1.06,8.15q-.15,25.26,0,50.51c0,10.24,9,20.29,19.17,20.12,11.16-.17,23.39,3.81,32.6-7,2.67-3.15,5.66-5.78,4.94-10.26-1.5-9.2,4.24-8.94,10.79-9.2,8.31-.36,7.54,4.77,7.63,10.09C647.37,1232.69,630.86,1249.53,612.15,1249.58Zm50.9,133.68c-.27,2.45-2.67,2.55-4.67,2.65-2.41.07-4.82.17-7.21.12-4.55-.1-6.53,2-6.38,6.6s3,5.06,6.48,5.06c2,0,4,0,6,.09,2.84.12,6.09.12,5.66,4.24-.39,3.4-3.52,2.36-5.69,2.73-3.8.65-8.43-1.74-11.32,1.92-2.34,2.94-1.42,7-.87,10.48.73,4.53,4.68,3.13,7.62,3.83,3.66.87,10.45-3,10.21,3.81-.19,5.08-6.55,2.48-10.19,3.11a32,32,0,0,1-4.7,0c-8.77,1.87-11.87-2.63-11-12,.6-6.36.12-12.82.12-19.23,0-17.85,3.09-20.35,21.08-17.2C660.59,1379.93,663.46,1379.88,663.05,1383.26Zm-1.25-371c-6.85,4.38-6.77,11-6.68,18,.2,12.82-.38,25.68.2,38.47.45,10.29-6.48,7.57-12.05,8.12-6.26.61-9.54-.79-9.25-8.26.55-14,0-28.07.26-42.09.12-5.68-1.71-7.75-7.51-7.61-13.61.34-27.27.41-40.88,0-6.8-.22-7.95,2.91-7.86,8.64.27,13.23-.41,26.5.24,39.68.44,8.48-3.2,10-10.55,9.78-6.6-.21-11.83,0-10.77-9.27.8-7.11.15-14.41.15-21.64,0-4-1.4-8.76.26-11.9,6.8-12.74-18.93-24.83-.43-37.31q.08-21.64.17-43.29a39.12,39.12,0,0,0,0-6c-1.44-9.2,4.89-8,10.48-8.07,5.91-.14,11.08-.62,10.7,8.24-.58,13.61.24,27.3-.29,40.91-.29,7.49,2.39,9.78,9.66,9.51,12.82-.5,25.68-.41,38.5,0,6.31.16,8.33-2.1,8.16-8.34-.36-14,.46-28.09-.31-42.09-.48-9.13,4.82-8.19,10.55-8.19s11.23-.86,10.8,8.15c-.58,12.38-.08,24.83-.15,37.26-.07,7.62-1,15.35,7.23,20.1C666.64,1007.46,664.86,1010.35,661.8,1012.31ZM680,1167.07c-.29-12.8.32-25.64-.21-38.43-.36-8.09,4.31-7.76,9.87-7.85,5.81-.1,10.29.21,9.64,8.07-.55,6.77-.12,13.61-.12,20.4,0,6.41,1,13-.24,19.18-1.83,9.06,9.61,12,8.5,18.07-1,5.59-9.22,8.72-8.5,17.12,1,11.93-.24,24,.41,36,.43,8-2.36,10.21-10.14,10.19-7.47,0-9.78-2.36-9.45-9.69.56-11.18,0-22.4.22-33.6.14-6.58.14-12.72-6.39-16.8-4.26-2.67-3.66-5.75.39-8.16C679.67,1178.17,680.15,1173,680,1167.07Zm20.79-154.91c-3.15-2.48-1.78-5.11,1.59-6.17,12.22-3.75,14.84-14.48,18.48-24.67,3.76-10.55,8.46-20.81,11.61-31.55,2.51-8.44,6.72-12.24,15.49-9.93,8.34-2.48,11.09,2.55,13.57,9.32,14.4,39.08,29.22,78,43.58,117.11,1.13,3.06,6.21,8.58.65,9.85-5.81,1.33-13.54,4-19-2.55a7.14,7.14,0,0,1-1.28-3.35c-3.59-25-18.81-30.43-42.06-28.26-23.83,2.22-23.85.53-33,23.78-1.61,4-1,10.45-7.56,10.91-5.16.36-11.83,1.66-15.18-.91-3.93-3,1.15-8.6,2.55-12.84,3.59-11,7.81-21.88,12.19-32.62C705.09,1023.77,707.93,1017.8,700.82,1012.16ZM691.69,1428c-6.09,2-11.9.82-16.4-4.26-2.41-2.7-5.16-6.19-2-9.18,3-2.75,5.54-.22,7.33,3.11,1.66,3.15,4.69,4.19,8.21,3a7.56,7.56,0,0,0,5.23-6.05c.79-4.39-1.91-6.6-5.35-8.31-2.87-1.42-5.83-2.68-8.55-4.31-5.37-3.21-8-7.88-6.19-14.15,2-6.74,7.46-8.93,13.8-9.68,3.66.36,7.13,1.32,9.85,3.9,1.33,1.25,3.59,2.68,2.05,4.84-1.32,1.86-3.37,3.83-6,1.64-4-3.47-8.67-4.29-10.94.82-3.06,6.87,4.05,7.49,7.93,9.23,7.2,3.23,12.09,7.54,11.47,16.24C701.67,1421.71,697.84,1426,691.69,1428Zm39.46-42.18c-6.11.14-5.42,4.55-5.42,8.5,0,9.18,0,18.34-.07,27.52,0,2.81.05,6-4.17,5.56-3.3-.34-3.18-3.08-3.22-5.42-.1-7.18.14-14.36-.13-21.54-.24-6.5,3.06-15.39-9-15-.74,0-2-1.35-2.19-2.24a2.55,2.55,0,0,1,2.56-3.2c4-.17,8,0,11.92,0v-.29c2.8,0,5.59-.1,8.39.05,2.26.09,5.17-.32,5.44,3C735.44,1385.33,733.13,1385.76,731.15,1385.81Zm64.66,34.86c3.83,1.88,11.83-2.87,11.5,3.93-.29,5.83-7.95,2.74-12.34,3.18-5.15.5-10.38.12-18.74.12,7.95-10,14.21-17.61,20.26-25.44,3.49-4.53,7.11-9.76,1.23-14.65-5.3-4.41-9.57-2-12.31,3.88a3.74,3.74,0,0,1-5.11,1.85c-2.72-1.32-2-4-1.23-6.26,2.36-7.23,11.81-10.74,20.24-7.54s11.73,12,7.44,20.93c-1.71,3.55-4.65,6.48-6.84,9.81-1.95,2.91-5.4,4.84-5.78,8.72A9.92,9.92,0,0,0,795.81,1420.67Zm7.74-171c-17.64-.19-35.3-.27-52.93,0-6.12.1-8.62-1.88-8.43-8.24.36-11.61-.12-23.24.19-34.88.19-6.7-.22-12.7-6.48-16.84-3-2-4.79-5.2-.7-7.56,8.36-4.8,7.13-12.56,7.11-20.1,0-10.84.17-21.65-.1-32.47-.14-5.76,1.09-8.94,7.86-8.82,18,.34,36.08-.19,54.1.22,11.5.29,29.2,19.9,29.25,31.49,0,10.81,0,21.65,0,32.47,0,6.41-.89,13,.17,19.2,3.18,18.48-4.22,31.42-19.3,41.22C810.87,1247.6,807.93,1249.7,803.55,1249.65Zm32.81-261.92c-.46-12.43.53-24.93-.34-37.29-.67-9.47,2.92-11.49,11.57-11.08,14.4.67,28.88.17,43.33.19,13.35,0,31.93,18.43,33.15,31.78,1.38,14.79-1,27.75-13.22,37.6-7.25,5.83-8.29,12-3.35,20.7,8.41,14.86,15.25,30.64,22.91,46.35-20.81,2-20.84,2-29.2-14.77q-7.73-15.62-15.37-31.27a21.66,21.66,0,0,0-26.47-10.74c-4.46,1.63-3.21,5-3.26,8-.14,13.65-.55,27.31.12,40.93.39,8.21-3.39,9-10,8.91-6.38-.07-10.67-.34-10.14-8.77.7-11.59-.05-23.27.24-34.88.19-8.19.51-16.07-7.78-21.11-4.79-2.91-2.82-5.78.72-8C835.49,1000.31,836.62,994.65,836.36,987.73Zm13.9,424.8c-2.48,8.38-6.12,16.26-16.6,16-10.29-.32-14.09-8-16-16.63-1.37-6.24-1.56-12.77.51-19,2.51-7.54,6.41-14.14,15.59-14.16,9,0,13.51,5.85,15.8,13.75,1,3.42,1.37,7,2,10.19C851.1,1406.24,851.13,1409.52,850.26,1412.53Zm19.32,14.6c-4.36-.29-3.4-4.7-3.44-7.76-.12-8,0-16-.1-24-.07-3,1.08-6.58-2.15-8.85-1.78-1.22-5.22-1.39-3.18-4.81,1.79-2.94,5-1.91,7.69-2s4.72,1.06,4.77,4.09c.07,6.82,0,13.64,0,20.45h.19c0,5.21.17,10.44-.07,15.61C873.17,1422.79,874.4,1427.42,869.58,1427.13Zm45.41-2.05c-.77,2.21-4,3.4-4.65,2.17-5.92-10.92-16.62-3.26-26-7.42l26.16-38.09c.89-1.3,1.78-2.65,5.47-2,0,10.62-3.33,23.2,1,32C920.65,1419.18,916.41,1420.91,915,1425.08Zm26-185.21c-.15,5.88-.53,10-8.24,9.83q-30.68-.59-61.36,0c-7.35.15-8.63-3.08-8.43-9.37.33-11.61-.08-23.27.17-34.88.12-6.24-.17-11.91-6.24-15.69-4.15-2.58-4-6,.07-8.38,6.29-3.73,6.26-9.44,6.17-15.64-.25-12.43.14-24.86-.17-37.29-.15-5.76,2-7.83,7.66-7.68,10.41.29,20.84.09,31.27.09s20.86.32,31.27-.09c8.12-.34,7.61,4.74,7.78,10.19s-.68,9.08-7.66,8.86c-14-.41-28.09.17-42.11-.24-6.68-.19-8.84,1.83-9,8.77-.74,27.9-1,27.87,27.08,27.9a81.66,81.66,0,0,0,8.43,0c7.06-.75,10,1.69,10,9.32-.05,7.13-1.83,10.24-9.45,9.71-8.38-.58-16.84-.12-25.27-.12-2,0-4.65-.77-5.9.22-10,7.92-2.41,18.93-4.55,28.35-1.14,4.94,1.44,7.16,6.72,7.06,14.43-.22,28.88.31,43.31-.19C939.78,1230.3,941.08,1233.58,940.94,1239.87Zm113.87,8.91c-5.78,2.27-14.86,4.24-19.32-6-5.9-13.56-13-26.64-19.56-39.89-3.3-6.68-18.84-11.21-24.67-7.09-3.15,2.22-2.19,5.79-2.21,8.84-.12,12-.36,24.07.05,36.09.24,6.92-2.44,9-9.14,9-6.33-.09-9.7-1.42-9.41-8.64.43-11.23-.08-22.48.16-33.71.15-7,.12-13.63-6.86-17.9-3.74-2.29-3.52-5.3,0-7.49,7.49-4.62,7-11.8,6.84-19.1-.17-11.23.17-22.48-.12-33.71-.17-6.16,2.12-8.67,8.38-8.4,8,.36,16,.09,24.07.07,2.82,0,5.76.55,8.41-.1,19.92-4.82,30,8.36,39.77,21.76,5.06,6.93,3.78,29-3.13,34.71-14.89,12.26-15.52,24.82-4.6,39.85,4.17,5.76,7,12.67,9.44,19.41C1054.36,1240.47,1062,1246,1054.81,1248.78Zm-15-177.79c-5.23,3.47-9.66,6.1-16.12,6q-27.06-.59-54.13,0c-6.36.12-8.84-2-8.12-8.27a28.91,28.91,0,0,0,0-7.2c-2.27-18.09,7.11-38.4-10.12-53.65,18.7-15,6.89-35.78,10.09-53.7a25.52,25.52,0,0,0,.05-7.2c-.62-5.81,1.95-7.57,7.59-7.5,19.66.27,39.32-.16,59,.2,11.42.21,30.33,20.74,30.36,32.13,0,12.44,0,24.87,0,37.3,0,6.81-.85,13.75.17,20.43C1061.3,1047.62,1055.1,1060.85,1039.81,1071Zm143-141.94c-1.47,6.6-6.74,1.71-9.83.91-28.71-7.32-57.36-15-86-22.67q-138.79-37-277.57-74a32,32,0,0,0-17.57,0Q613,881.1,434.07,928.35c-4.85,1.28-12.72,8.21-15.21.36-1.66-5.3,8.1-5.06,12.92-6.36q171.68-46,343.44-91.71c2.69-.73,5.3-1.76,10.69-3.59-47.6-12.72-92.07-24.67-136.54-36.5Q539,761.17,428.67,731.94c-1.54-.41-3-1-4.55-1.5-2.56-.72-6.56-.41-5.81-4.36.89-4.67,4.55-3.06,7.71-2.21,23.58,6.28,47.19,12.47,70.8,18.76q146.76,39.21,293.45,78.59a39.3,39.3,0,0,0,21.11-.15q178-47.73,356.13-95c4.77-1.26,13.13-7,14.65-.85,1.93,7.95-8.48,6-13.32,7.28Q997.2,778.71,825.35,824.3c-2.29.6-4.51,1.54-9.59,3.3,26.77,7.2,51,13.78,75.26,20.24q141,37.54,282.08,75c.39.1.89.07,1.16.31C1177,925.55,1184.18,923.05,1182.83,929.05Z"/><path class="cls-2" d="M1435.81,811.39c-13.27-16.6-25.32-34.16-38.06-51.2a34.45,34.45,0,0,1-6.84-15.12q-23-136.38-46-272.76-34.51-204.57-68.68-409.19c-1.86-11.15-5.66-13.87-16.62-13.85-129.66.41-259.32.22-389,.41-8.48,0-15.37-2-22.16-7.13C830.94,29.2,812.75,16.68,795.19,3.33c-5.76-4.36-9.81-4.5-15.59-.05-16.84,13-34.38,25.06-51.14,38.11-7.71,6-15.54,8.39-25.35,8.36-122.43-.29-244.88,0-367.31-.55-12.12-.05-15.59,4-17.2,14.89C315,88.25,310.33,112.27,306,136.34q-51.6,284.56-103,569.17c-3.54,19.7-9.42,37.39-22.5,53.14-14.07,16.94-25.87,35.75-39.39,53.15-5.61,7.22-6,12.19-.26,19.68,17.39,22.55,33.85,45.82,50.83,68.68a36.74,36.74,0,0,1,7.08,16.22C204.6,950,211,983.42,217.08,1017q51.06,282.22,101.86,564.48c1.85,10.36,5.87,13.13,16.21,13.1,123.22-.38,246.47-.19,369.7-.36,7.61,0,13.75,1.74,19.9,6.36,20.21,15.18,41,29.61,61.11,44.86,5.52,4.17,9,4,14.41-.12,19.44-14.89,39.53-28.86,59-43.73a33.62,33.62,0,0,1,22-7.42c63,.32,126,.17,189.06.17,63.82,0,127.66-.12,191.48.15,8.5,0,12.33-1.52,13.92-11.25,13.37-82.3,27.56-164.47,41.44-246.69,22.14-131.23,44.9-262.38,65.86-393.79,5.66-35.61,14-68.66,39.44-95.55,4.94-5.2,8.26-11.9,13-17.3C1441,823.5,1441.57,818.59,1435.81,811.39Zm-94.27,66.49c-21,127.7-42.76,255.29-64.27,382.9-15.25,90.48-30.72,181-45.6,271.48-1.62,9.92-7.11,9.49-14.22,9.49q-210.09-.11-420.19,0c-140.09,0-280.15-.14-420.22.29-9.83,0-12.72-3-14.33-12q-33.93-189.9-68.47-379.7-29.12-160.85-58.15-321.68c-3-17,3.27-33.25,6.21-49.61q56.06-311.7,112.77-623.3c2.87-15.76,6.24-31.44,8.72-47.27.89-5.66,3.09-7.68,8.48-7.15,2.39.24,4.82,0,7.23,0q417.77,0,835.59-.29c11.61,0,15.28,3,17.2,14.6,22.43,135.59,45.58,271.05,68.49,406.56q24.36,144,48.57,288C1353.2,833.38,1345.23,855.52,1341.54,877.88Z"/><path class="cls-2" d="M1276.45,498.81q-30.93-183.1-61.79-366.26c-1.35-8.14-3.74-11.41-12.7-11.39q-404.58.36-809.14,0c-8.82,0-11.66,3-13.08,11.08Q361.64,234.6,342.91,336.84q-39.26,216.44-78.37,432.87c-3.57,20-11.47,39.82-7.9,60.42,10.88,63.17,22.67,126.19,34.11,189.26q44.26,244.2,88.32,488.49c1.9,10.67,5.46,14.12,16.69,14.09,133.63-.43,267.29-.29,401-.29h7.22q198.08,0,396.13,0c6.94,0,12.79.94,14.48-9.28,18.86-113.83,38.23-227.58,57.43-341.39,16.74-99.16,33.68-198.29,50-297.52,3.23-19.68,10.75-39.34,7.47-59.39C1312.2,709,1294.21,603.89,1276.45,498.81Zm11.88,376.32c-17.83,110-36.16,219.83-54.28,329.76q-23.05,140-45.89,280c-1.47,9-6.6,9-13.52,9q-190.26-.18-380.51-.07-189.64,0-379.31.22c-10.22,0-14.14-2.46-16-13.13C377.23,1356.54,355,1232.28,333,1108q-24.54-138.47-48.83-277c-3-17.41,3.42-34.06,6.33-50.83q38.92-222.6,78.78-445c10.17-57.22,20.74-114.33,30.45-171.62,1.4-8.24,4.77-9.25,11.71-9.25q382.32.18,764.67-.08c8.07,0,10.94,2.49,12.24,10.39q46.5,283.52,93.49,567c4.75,28.86,10.22,57.65,13.9,86.65C1298.16,837.45,1291.39,856.22,1288.33,875.13Z"/><path class="cls-2" d="M981.29,1007.22c0-12.83.27-25.66-.1-38.47-.19-6.52,1.6-9.62,8.69-9.29,9.6.43,19.25-.23,28.85.2,10.44.48,19.76,10.7,19.81,21.19q.12,27.06,0,54.1c0,11-9.56,21-20.57,21.86-.4,0-.8,0-1.2,0-35.48,1.57-35.48,1.57-35.48-34Z"/><path class="cls-2" d="M856,979.46c0-19.92,0-20,20.66-19.9,7.81,0,15.61-1.48,21.55,6.77,4.3,6,8.36,12,4.63,18.39-4.18,7.17-8.43,16.16-19.81,14.37a46.73,46.73,0,0,0-7.2-.05C856,999,856,999,856,979.46Z"/><path class="cls-2" d="M761.17,1185c0-11.61.5-23.26-.17-34.84-.5-8.73,3-11.54,11.08-10.42,12.55,1.73,26.5-4.74,37.33,7.35,3.5,3.9,5.31,7.38,5.23,12.56-.25,16.82,0,33.65-.12,50.47-.06,11.2-8.77,20-20.09,20.6-33.27,1.72-33.27,1.72-33.27-31.3Q761.16,1192.2,761.17,1185Z"/><path class="cls-2" d="M747.16,967.2c6.85,18.6,12.56,34.14,18.29,49.66,1.88,5.11-1.6,5.18-4.94,5.2-8.78.06-17.57,0-26.35,0-4.47,0-6.91-1.09-4.95-6.3C734.91,1000.69,740.41,985.51,747.16,967.2Z"/><path class="cls-2" d="M1005.78,1176.27c-4.73-1.86-14.07,4-15.93-3.84a69.06,69.06,0,0,1,.31-30.86,2,2,0,0,1,.73-.93c3.42-2.79,32.49-.54,35.67,3,5.11,5.64,11.48,11.57,6.84,19.91-4.26,7.65-9.8,14.93-20.68,12.8C1010.79,1176,1008.73,1176.27,1005.78,1176.27Z"/><path class="cls-2" d="M844,1404.92a80.85,80.85,0,0,1-1.92,8.58c-1.27,3.86-3,7.64-8,7.61s-6.61-3.92-8.08-7.67c-2.28-5.78-2.12-11.9-.73-17.71,1.08-4.54,2.94-10,8.84-9.9s7.4,5.45,8.84,10C843.73,1398.43,843.59,1401.34,844,1404.92Z"/><path class="cls-2" d="M898.58,1412.81c1.71-4.37,3.57-8.45,7.93-11C909.29,1414.05,909.27,1414.08,898.58,1412.81Z"/></svg>