<svg id="Layer_1" data-name="Layer 1" xmlns="http://www.w3.org/2000/svg" viewBox="0 0 1891.18 2364.83"><defs><style>.cls-1{fill:#a62b2a;}</style></defs><polygon class="cls-1" points="76.16 459.98 91.64 460.24 98.39 460.07 98.51 460.07 131.86 460.67 138.84 460.5 138.94 460.5 174.29 460.88 181.29 461.14 191.53 461.4 201.76 461.65 369.3 466.94 382.97 467.2 389.84 467.24 419.52 468.22 425.04 468.27 431.98 468.48 453 468.56 466.05 468.86 472.88 468.86 483.01 468.48 492.98 467.93 599.71 434.04 619.96 407.94 630.68 394.25 664.54 348.13 685.76 320.33 692.62 310.31 768.59 310.78 770.1 308.97 775.17 307.87 775.97 306.17 778.92 305.3 779.65 303.94 785.86 301.1 784.28 299.15 784.52 295.98 783.23 292.62 786.99 287.65 786.99 287.53 787.14 283.32 786.07 281.69 785.23 274.4 789.86 270.64 795.54 259.41 802.8 270.03 806.65 273.85 808.88 274.61 812.04 272.95 816.2 271.78 817.16 271.01 815.75 269.7 811.2 266.79 811.16 264.37 805.88 261.43 804.65 254.34 804.65 254.34 804.65 254.34 808.69 248.74 820.83 246.96 820.22 246.3 809.94 245.45 806.45 227.11 803.4 227.73 800.08 220.1 794.88 222.85 786.04 232.86 776.98 212.87 776.39 206.2 775.72 203.8 775.02 199.88 773.05 191.02 774.48 185.47 773.95 182.56 773.84 179.58 771.84 177.35 770.93 170.19 771.22 168.34 770.88 166.16 769.96 164.35 767.09 160.54 766.21 156.86 761.08 154.42 756.82 140.28 760.65 137.02 759.86 125.68 759.86 125.68 759.86 125.68 764.3 118.92 764.48 117.05 763.91 110.26 770.15 102.31 770.58 102.16 770.75 101.99 772.63 101.5 772.66 101.39 772.61 100.97 771.13 99.88 768.4 97.52 765.38 91.92 765.63 89.41 763.84 86.27 762.84 83.95 760.62 79.95 759.4 73.5 759.7 72.02 758.94 70.27 754.45 67.69 753.66 61.86 750.47 58.07 749.23 53.67 747.84 52.22 746.38 51.11 742.57 49.96 740.48 46.74 739.54 46.37 736.83 42.68 734.11 39.09 732.74 34.07 732.58 33.55 731.3 29.26 729.5 24.14 727.79 24 724.07 18.54 722.2 14.03 721.78 9.15 721.58 8.7 718.85 6.29 714.23 6.34 710.45 6.25 698.95 6.13 681.14 6.17 672.52 6.13 632.33 6.13 609.43 6.04 582.48 5.87 548.6 5.74 475.38 5.27 442.74 4.85 374.05 4.93 372.81 4.84 371.48 4.8 364.79 4.72 277.34 3.82 268.73 3.82 263.76 3.74 262.15 3.74 227.57 3.44 216.45 3.18 208.58 3.23 172.1 3.1 168.14 3.01 133.44 3.01 126.05 3.1 118.47 2.58 99.14 1.68 90.74 1.33 77.29 0.66 65.21 0 65.06 4.65 64.8 11.01 61.73 136.05 59.94 204.63 59.9 208.28 59.9 210.5 59.85 211.71 59.68 218.99 59.09 237.15 59.08 240.62 58.91 244.13 58.87 246.37 58.58 253.21 58.53 260.55 58.15 274.55 57.93 279.4 57.89 282.18 55.84 356.94 55.5 370.53 55.33 375.51 55.33 377.68 55.07 384.7 54.69 398.82 54.48 403.04 54.52 406.18 54.31 409.98 54.3 412.24 53.92 426.64 53.45 447.73 53.07 459.7 55.37 459.64 62.46 459.9 76.16 459.98"/><polygon class="cls-1" points="44.24 1810.67 50.56 1810.91 51.87 1810.7 58.65 1810.93 65.32 1810.97 72.05 1811.23 85.83 1811.48 99.64 1812 107.12 1812.04 113.91 1812.25 126.79 1812.55 134.19 1812.81 147.87 1812.85 154.77 1813.1 161 1813.11 168.61 1813.36 175.23 1813.41 182.27 1813.66 189.87 1813.88 194.31 1813.93 196.93 1814.13 209.22 1814.18 224.24 1814.68 231.51 1814.73 238.29 1814.94 250.29 1815.45 258.88 1815.5 265.45 1815.71 271.49 1815.96 276.14 1815.97 285.36 1816.23 292.19 1816.69 299.03 1816.73 326.77 1817.04 347.16 1817.76 353.96 1817.58 361.17 1817.85 374.66 1818.31 381.48 1818.36 389.28 1818.57 403.69 1818.65 416.24 1818.91 438.44 1819 445.09 1819.25 457.58 1819.08 465.85 1819.29 480.02 1819.38 486.96 1819.59 499.7 1819.69 505.98 1820.07 506.99 1819.87 514.13 1820.15 540.67 1820.23 547.51 1820.06 549.94 1820.07 556.62 1820.32 563.51 1820.32 570.41 1820.58 575.73 1820.61 577.5 1820.8 583.63 1821.05 592.17 1821.23 592.17 1820.2 605.74 1820.28 606.64 1820.31 606.66 1820.31 606.58 1817.66 610.19 1813.26 610.98 1812.74 611 1812.62 610.54 1808.41 615.45 1804.32 617.9 1801.26 623.01 1798.03 623.56 1796.43 628.57 1792.79 633.02 1791.88 634.23 1791.17 634.79 1790.79 635.01 1790.4 632.21 1788.1 628.03 1782.95 628.03 1777.99 630.35 1773.97 631.7 1772.82 633.71 1767.18 638.21 1761.21 639.94 1758.25 639.94 1757.9 638.46 1753.68 642.37 1747.62 642.37 1746.5 642.08 1743.24 643.7 1738.22 642.96 1736.85 640.68 1736.96 636.52 1734.95 633.54 1729.56 633.68 1727.96 631.45 1726.31 630.09 1723.14 628.69 1722.67 625.44 1720.93 622.85 1718.84 618.21 1710.18 616.26 1711.43 609.79 1712.4 605.96 1709.21 603.71 1705.7 600.49 1698.01 600.49 1695.72 600.29 1695.44 595.82 1692.11 594.28 1689.75 593.24 1688.97 592.28 1688.69 589.09 1690.82 585.15 1684.61 583.17 1682.23 582.98 1679.46 581.37 1678 580.12 1676.33 579.36 1674.81 575.57 1668.54 578.97 1664.1 577.81 1662.68 577.88 1655.74 577.93 1655.4 575.94 1649.55 579.01 1645.16 578.7 1643.07 579.06 1640.91 578.53 1639.52 577.64 1634.96 579.18 1632.07 578.54 1630.42 559.47 1630.52 539.26 1631.08 511.68 1631.2 504.58 1631.16 484.7 1630.86 462.03 1629.92 441.39 1629.84 426.96 1629.37 421.08 1629.11 406.23 1629.06 392.59 1628.35 385.38 1628.35 379.64 1628.5 378.92 1628.52 378.92 1628.52 378.92 1628.52 371.39 1628.26 342.85 1627.96 335.72 1627.7 302.75 1627.57 296.02 1627.32 261.08 1626.72 254.21 1626.51 228.4 1625.95 220.5 1625.91 206.67 1625.44 179.38 1624.67 172.44 1624.63 138.04 1623.82 135.68 1623.81 131.13 1623.6 98.2 1622.8 84.08 1622.75 64.25 1622.19 56.62 1621.77 49.67 1621.51 19.37 1620.83 15.2 1781.35 14.46 1810.1 24.56 1810.16 31.56 1810.38 44.24 1810.67"/><polygon class="cls-1" points="880.06 6.47 800.44 7.79 747.92 8.09 732.72 8.01 733.02 11.39 733.94 13.46 737.5 13.75 741.8 25.99 743.33 31.1 744.16 34.14 746.5 37.27 747.77 37.76 749.61 40.6 751.44 41.15 755.18 43.98 759.09 48.06 760.41 52.8 764.13 57.21 764.63 60.85 767.57 62.54 771.16 70.79 770.6 73.57 771.1 76.17 772.82 79.33 773.8 81.59 776.92 86.94 776.66 89.65 777.14 90.53 778.14 91.4 783 94.85 783.81 102.2 781.62 110.63 776.65 111.84 775.23 113.65 775.52 117.1 775 122.66 771.09 128.62 772 141.79 769.42 143.99 770.21 146.58 775.67 149.18 777.25 155.74 779.33 158.51 781.49 162.75 782.35 168.35 782.04 170.34 782.32 172.57 784.68 175.2 784.91 181.36 785.74 185.87 784.35 191.25 784.59 192.38 785.83 197.81 786.5 201.58 787.25 204.16 787.77 210.04 789.28 213.37 800.43 207.46 807.97 210.67 809.93 215.16 815.16 214.08 819.18 235.18 825.38 235.69 834.99 246.03 827.12 257.15 822.06 257.89 822.1 260.7 822.51 260.96 823.42 261.8 830.48 262.86 828.61 270.96 836.58 275.14 830.77 280.14 830.67 281.98 830.75 282.08 831.1 282.15 834.37 283.88 838.61 285.24 841.09 286.66 847.2 285.56 848.86 286.68 851.81 285.82 856.47 284.81 861.39 289.09 862.74 291.96 864.02 293.13 867.76 295.64 869.76 294.6 869.76 292.75 872.57 292.56 872.44 291.72 878.54 284.19 877.43 283.93 873.29 275.64 876.78 267 887.9 269.52 889.98 271.5 892.75 268.37 903.03 267.08 906.94 274.52 912.22 272.85 914.87 270.56 919.88 270.74 924.84 271.21 926.69 271.72 930.69 266.53 937.74 269.76 943.97 268.81 945.67 274.75 945.78 274.69 947.92 274.01 948.17 272.72 951.19 271.06 954.31 263.35 953.2 260.03 956.18 253.42 961.05 248.03 961.91 243.76 963.93 241.6 963.97 239.91 964.61 234.63 968.84 228.69 970.21 227.46 970.61 220.44 974.54 220.09 973.03 217.32 977.42 211.41 978.38 211.18 979.61 207.45 979.81 204.47 980.72 200.73 980.81 199.77 980.05 196.96 980.78 194.03 980.13 190.96 980.56 188.61 979.4 184.64 981.1 178.89 984.78 176.63 985 176.41 984.37 173.5 987.55 167.66 988.47 166.26 987.03 165.98 985.7 161.63 985.17 160.46 982.92 160.02 979.65 153.03 980.02 146.25 983.74 140.79 983.81 140.35 983.37 139.8 983.26 137.9 977.17 135.88 976.04 129.85 974.56 126.34 974.56 121.92 974.38 118.49 973.82 116.23 973.12 112.9 970.5 107.95 971.31 101.54 970.82 97.68 966.74 94.19 967.31 91.04 961.05 83.69 953.09 75.52 953.11 70.41 953.68 64.36 955.68 60.64 956.19 59.94 952.93 58.34 953.23 53.16 947.29 45.93 956.58 37.97 956.58 37.97 956.58 37.97 962.44 38.86 963.23 36.9 962.49 33.48 959.83 19.81 958.34 16.98 955.46 14.63 954.85 13.03 950.09 11.48 950.32 6.13 928.76 5.53 880.06 6.47"/><polygon class="cls-1" points="1531.97 1054.31 1533.03 1050.75 1530.61 1048.55 1530.24 1042.63 1528.39 1042.69 1513.81 1042.64 1513.81 1042.64 1500.14 1042.39 1493.32 1042.6 1479.39 1042.6 1472.53 1042.77 1469.94 1042.77 1458.78 1042.98 1452.04 1042.94 1445.81 1043.15 1439.57 1043.15 1432.18 1043.37 1418.99 1043.54 1412.13 1043.54 1404.99 1043.5 1391.72 1043.92 1378.05 1044.09 1371.1 1044.09 1361.69 1044.52 1355 1044.69 1347.97 1044.48 1341.02 1044.69 1337.49 1044.65 1327.5 1044.86 1327.44 1044.86 1314.94 1044.86 1314.94 1042.09 1313.55 1042.04 1307.14 1042 1300.08 1042.22 1292.96 1042 1268.11 1041.7 1236.81 1042.09 1196.41 1041.53 1190.23 1041.75 1181.86 1041.53 1162.82 1041.92 1133.07 1041.83 1121.09 1041.66 1121.09 1042.37 1099.89 1042.6 1091.94 1042.77 1074.28 1042.94 1067.39 1042.94 1058.96 1042.79 1059.17 1085.08 1063.72 1087.6 1064.55 1090.17 1068.09 1091.83 1068.86 1101.27 1070.93 1103.86 1076.45 1109.61 1076.41 1115.08 1078.39 1117.67 1080.36 1122.8 1080.84 1125.57 1084.01 1127.19 1086.68 1131.77 1096.14 1122.53 1102.51 1134.6 1102.78 1138.6 1103.09 1140.02 1104.34 1144.88 1105.39 1147.94 1109.17 1150.59 1107.97 1158.26 1109.32 1159.59 1110.35 1164.57 1112.81 1166.72 1118.43 1172.57 1119.58 1181.8 1124.1 1189.27 1122.54 1195.23 1499.07 1190.58 1499.91 1187.82 1500.8 1186.95 1498.72 1182.78 1498.45 1179.53 1497.74 1176.26 1493.73 1174.56 1490.8 1170.38 1488.06 1160.78 1496.16 1159.95 1496.01 1158.25 1493.28 1154.82 1492.04 1146.88 1496.51 1141.29 1497.48 1140.79 1496.97 1139.84 1496 1137.56 1495.51 1132.62 1498.62 1127.98 1501.97 1124.49 1502.65 1120.37 1500.98 1115.78 1502.08 1110.29 1506.77 1105.6 1509.63 1106.09 1510.92 1103.99 1511.13 1100.75 1511.27 1100.19 1508.45 1100.92 1508.45 1100.92 1508.45 1100.92 1500.03 1090.86 1507.11 1086.83 1507.27 1086.4 1509.53 1079.9 1512.23 1079.67 1510.36 1078.11 1506.24 1070.76 1510.08 1063.32 1513.26 1062.57 1518.13 1061.06 1522.07 1061.23 1521.92 1059.12 1531.14 1058.87 1531.97 1054.31"/><polygon class="cls-1" points="1504.94 553.59 1510.6 556.37 1510.61 556.37 1514.83 556.37 1514.83 558.45 1515.95 559 1516.75 559.4 1523.49 563.1 1529.77 563.39 1533.37 566.94 1535.13 569.01 1536.87 569.11 1542.03 569.57 1544.02 572.74 1546.56 572.41 1550.24 576.9 1553.02 576.5 1556.83 575.83 1558.13 571.6 1566.74 569.85 1569.93 569.3 1574.55 567.55 1579.49 567.99 1582.7 562.31 1588.33 556.46 1588.33 556.46 1588.33 556.46 1599.77 557.71 1602.45 558.32 1612.55 556.71 1619.3 560.15 1623.74 558.67 1630.91 552.31 1637.4 551.38 1645.05 550.98 1649 550.11 1655.39 547.57 1667.29 541.75 1673.84 545.14 1676.82 547.32 1679.31 551.43 1681.06 554.12 1681.83 560.07 1682.88 564.89 1682.05 568.78 1681.66 572.2 1681.72 573.87 1681.85 577.21 1682.26 581.5 1682.77 581.94 1686.5 582.67 1687.87 581.58 1691.51 578.26 1699.38 574.03 1701.9 569.01 1707.66 564.02 1713.29 561.96 1714 561.78 1712.49 527 1739.56 526.79 1792.78 525.17 1793.01 545.04 1793.79 559.1 1807.03 559.1 1808.5 571.29 1809.57 586.37 1809.79 593.25 1810.45 607.08 1821.84 606.7 1823.4 621.08 1824.33 621.08 1837.41 620.87 1838.8 620.74 1838.79 620.4 1838.32 606.79 1836.66 545.58 1836.48 535.39 1836.31 529.11 1836.06 515.83 1835.8 507.73 1835.76 504.49 1835.42 496.81 1835.2 486.82 1834.57 467.5 1828.43 467.53 1820.72 467.78 1778.75 468.42 1773.21 468.63 1698.84 471.36 1675 472.09 1645.38 472.9 1610.24 473.63 1595.83 474.01 1566.48 474.65 1539.38 475.29 1503.98 476.07 1504.45 497.42 1504.84 522.39 1504.94 553.59"/><polygon class="cls-1" points="703.94 561.97 704.67 561.73 726.94 544.54 756.2 522.67 775.72 508.26 801.34 508.92 801.27 526.46 797.18 532.73 797.09 533.64 799.92 537.07 799.23 543.32 799.63 543.35 805.59 548.26 805.59 552.17 805.81 552.72 807.52 555.07 811.96 554.62 819.26 554.45 822.42 554.23 826.47 554.27 830.91 553.11 836.76 550.14 841.76 549.63 843.38 549.37 847.34 547.32 850.72 547.11 855.9 544.13 858.41 544.33 862.26 541.95 863.6 541.51 863.59 541.51 861.46 538.25 860.74 536.81 860.13 534.15 860.06 533.85 859.02 531.34 859.05 531.07 853.26 527.31 855.01 522.19 854.81 521.79 854.25 521.28 850.38 520.02 849.14 514.45 849.14 511.34 849.56 509.26 849.56 509.25 848.08 508.13 846.84 505.41 845.75 503.91 844.66 502.87 842.41 499.05 841.45 491.36 848.9 489.54 851.53 489.82 852.62 489.82 851.28 486.39 848.83 483.54 846.15 479.96 845.26 478.2 842.76 477.51 840.92 472.65 840.15 471.47 833.71 470.69 833.82 462.85 833.48 459.79 834.64 457.15 834.58 456.88 833.59 455.1 832.58 451.82 831.31 449.84 829.76 447.16 828.51 441.24 829.71 439.13 828.73 435.89 828.28 430.94 827.22 426.13 828.08 422.69 826.95 417.27 820.67 417.49 816.94 417.92 812.42 418.09 805.1 418.58 796.14 415.61 791.93 411 789.54 409.8 785.98 409.64 782.36 409.6 772.29 409.6 757.39 409.09 712.86 408.96 702.28 412.29 642.05 431.9 635.1 434.02 623.18 437.93 611.01 441.93 613.25 446.02 626.7 469.63 641.87 495.67 687.13 575.82 703.94 561.97"/><polygon class="cls-1" points="1181.99 631.5 1181.83 681.78 1182.38 716.99 1182.6 724.31 1182.6 724.66 1182.53 739.47 1185.34 739.67 1186.48 896.39 1187.03 908.54 1187.96 910.59 1188.32 937.69 1188.53 944.29 1189.51 978.68 1189.48 990.01 1201.1 990.27 1201.04 1009.32 1201.69 1030.61 1236.82 1031.09 1268.1 1030.7 1268.17 1030.7 1293.24 1031 1300.08 1031.21 1307.01 1031 1313.82 1031.05 1325.94 1031.43 1325.94 1033.86 1327.38 1033.86 1337.45 1033.65 1340.92 1033.69 1347.97 1033.48 1355.03 1033.69 1361.35 1033.52 1370.98 1033.09 1377.98 1033.09 1391.48 1032.92 1404.84 1032.5 1418.92 1032.54 1431.95 1032.37 1439.49 1032.15 1445.71 1032.15 1451.88 1031.94 1458.71 1031.98 1479.32 1031.6 1493.23 1031.6 1500.07 1031.38 1513.47 1031.63 1512.41 995.84 1511.64 960.98 1511.43 954.6 1510.66 920.56 1510.45 913.74 1509.85 892.31 1509.85 890.39 1509.63 876.8 1509.67 874.41 1509.67 864.85 1509.46 857.42 1509.08 835.42 1508.91 828.23 1508.91 821.36 1508.35 780.16 1507.97 763.22 1507.75 756.22 1507.75 749.4 1507.16 718.72 1506.39 684.98 1505.79 655.72 1505.66 617 1505.63 615.99 1503.99 567.97 1503.01 567.62 1502.76 567.63 1497.6 565.72 1492.5 563.93 1486.75 562.68 1486.6 562.83 1483.14 565.25 1480.02 566.3 1475.8 565.93 1474.76 565.58 1471.34 565.58 1464.01 568.89 1458.89 565.54 1458.64 565.46 1456.49 565.27 1453.51 564.88 1449.31 564.69 1442.18 565.32 1439.08 565.32 1433.6 561.36 1431.09 560.61 1428.18 560.85 1423.57 558.89 1423.21 558.98 1419.73 559.32 1418.09 558.93 1414.88 558.35 1412.89 557.38 1411.07 557.18 1408.12 555.98 1407.79 555.89 1407.68 555.91 1404.44 556.84 1402.16 557.59 1396.19 560.08 1389.96 561.82 1384.08 563.32 1379 562.99 1379 565.37 1379 565.37 1378.11 567.89 1377.23 570.42 1376.84 570.71 1376.84 570.72 1373.6 575.83 1369.51 577.29 1365.64 578.22 1361.35 578.93 1360.04 579.01 1358.28 580.04 1353.78 579.93 1352.2 579.17 1350.61 578.98 1349.94 578.7 1348.7 579.85 1347.89 580.66 1342.81 582.65 1339.86 581.69 1339.85 581.71 1337.66 583.31 1334.93 585.51 1330.48 585.51 1328.04 584.62 1326.83 585.76 1323.21 588.72 1319.67 589.51 1313.69 592.34 1307.14 587.93 1304.73 590.06 1300.09 593.8 1294.43 592.7 1290.22 592.15 1283.37 593.76 1277.06 589.58 1275.08 591.97 1271.64 597.37 1267.41 601.52 1262.91 601.52 1261.98 601.2 1259.28 602.84 1254.85 602.12 1253.49 602.12 1249.37 599.91 1247.6 598.4 1246.37 597.9 1245.57 597.51 1244.87 597.97 1242.08 599.51 1237.96 599.51 1237.31 599.6 1236.83 599.76 1233.84 601.19 1231.71 600.88 1228.5 602.03 1223.95 604.53 1222.48 605.43 1221.41 606.18 1219.9 607.1 1214.26 611.4 1208.27 616.17 1204.91 618.7 1198.45 613.66 1196.46 612.31 1195.16 611.36 1193.2 612.58 1188.19 610.44 1187.3 610.15 1182.35 615.02 1182.72 617.45 1183.71 619.74 1184.07 620.89 1184.17 621.63 1184.52 622.1 1185.78 626.31 1182.55 631.36 1181.99 631.5"/><polygon class="cls-1" points="1499.23 1205.33 1498.76 1201.58 1122.2 1206.23 1122.2 1206.99 1107.89 1207.77 1112.28 1190.99 1108.95 1185.49 1107.96 1177.56 1105.05 1174.53 1100.33 1170.44 1099.23 1165.1 1096.23 1162.15 1097.24 1155.65 1096.16 1154.89 1093.74 1147.83 1092.62 1143.45 1086.6 1145.4 1080.4 1142.86 1076.13 1135.52 1070.94 1132.87 1069.71 1125.73 1068.69 1123.1 1065.38 1118.77 1065.42 1113.99 1062.51 1110.93 1059.22 1106.83 1059.28 1143.66 1059.28 1143.72 1059.53 1164.77 1060.02 1206.87 1060.02 1206.87 1060.02 1206.87 1039.87 1207.46 1040.15 1234.08 1041.31 1284.23 1040.96 1397.96 1041.15 1402.9 1041.25 1402.9 1041.35 1408.21 1041.4 1409.72 1042.41 1409.72 1042.64 1584.65 1042.63 1584.65 1042.63 1584.65 1039.38 1584.56 1040.29 1650.45 1040.37 1650.45 1040.37 1655.36 1498.19 1650.28 1498.19 1648.59 1499.22 1645.78 1501.07 1643 1505.93 1639.87 1510.37 1641.98 1513.23 1639.69 1512.49 1638.43 1512.49 1633.56 1513.13 1631.45 1510.21 1630.64 1508.02 1626.16 1504.41 1627.13 1500.9 1623.73 1500.09 1623.73 1496.16 1623.1 1492.97 1618.91 1493.11 1614.22 1495.22 1610.14 1491.32 1607.57 1489.94 1605.41 1488.93 1603.39 1488.24 1599.3 1490.9 1594.87 1495.25 1593.2 1496.44 1593.43 1495.72 1591.49 1495.77 1591.33 1495.24 1591.19 1493.61 1588.3 1492.3 1589.19 1486.94 1583.15 1484.63 1583.52 1479.62 1581.02 1477.26 1572.91 1479.65 1570.91 1479.23 1570.54 1476.55 1565.7 1476.55 1563.88 1475.25 1564.06 1471.65 1563.21 1467.59 1558.58 1467.59 1552.91 1471.99 1550.37 1471.84 1550.01 1470.92 1548.16 1470.92 1544.71 1472.44 1541.65 1474.59 1539.19 1475.58 1536.16 1477.46 1534.29 1479.59 1532.76 1481.11 1532.39 1480.13 1530.74 1476.54 1529.75 1471.49 1525.68 1469.91 1523.31 1469.1 1521.46 1468.35 1518.86 1468.35 1516.03 1469.46 1513.08 1472.8 1510.23 1473.31 1509.97 1471.24 1509.16 1467.9 1507.67 1465.63 1503.14 1465.38 1503.14 1461.86 1501.38 1459.92 1498.95 1458.37 1495.08 1458.37 1491.97 1458.58 1491.38 1452.88 1487.42 1451.62 1481.97 1451.62 1477.47 1452.35 1472.64 1452.54 1470.91 1446.62 1467.06 1445.52 1463.75 1445.52 1461.02 1445.66 1460.7 1445.41 1460.07 1445.77 1457.51 1445.77 1455.58 1447.55 1451.91 1451.52 1448.95 1454.39 1448.23 1457.51 1448.57 1460.28 1448.96 1458.86 1447.66 1454.27 1444.67 1455.58 1436.78 1457.69 1435.94 1457.12 1435.24 1454.95 1432.1 1454.54 1426.76 1455.13 1424.94 1453 1420.88 1454.7 1416.59 1452.27 1413.35 1454.38 1407.05 1456.32 1405.61 1455.41 1403.32 1455.06 1398.68 1456.96 1392.13 1457.77 1389.75 1458.27 1387.77 1456.15 1383.6 1457.39 1378.67 1457.05 1373.46 1465.34 1372.65 1465.93 1372.38 1466.92 1371.33 1467.34 1366.58 1467.83 1365.42 1467.06 1362.69 1467.68 1360.12 1467.55 1359.39 1469.84 1352.77 1467.07 1350.01 1467.07 1341.39 1471.13 1338.27 1470.81 1337.57 1469.87 1331.86 1476.34 1323.58 1477.17 1323.51 1478.17 1322.47 1482.19 1322.17 1482.5 1321.7 1480.18 1309.81 1486.75 1304.21 1485.47 1301.21 1486.07 1295.93 1485.34 1295.61 1479.08 1288.27 1481.61 1283.63 1482.59 1280.12 1484.84 1276.82 1484.23 1276.64 1487.08 1267.87 1485.07 1255.72 1493.88 1257.96 1495.25 1256 1496.4 1250.45 1499.3 1248.68 1499.3 1247.67 1499.3 1247.67 1499.95 1246.41 1499.47 1245.03 1498.22 1238.26 1500.55 1236 1499.42 1232.35 1502.44 1225.27 1502.97 1224.51 1498.45 1222.29 1499.39 1215.74 1499.39 1214.98 1498.99 1213.21 1498.66 1207.12 1499.79 1205.33 1499.23 1205.33"/><polygon class="cls-1" points="1525.46 1826.75 1504.55 1826.92 1499.11 1826.88 1486.78 1827.31 1463.42 1827.26 1449.78 1827.65 1428.1 1827.61 1415.29 1827.77 1401.66 1828.2 1394.13 1828.16 1373.43 1828.33 1366.54 1828.54 1360.29 1828.54 1353.39 1828.71 1333.11 1828.67 1319.41 1829.1 1311.94 1829.27 1291.5 1829.44 1284.74 1829.44 1270.79 1829.82 1250.26 1830.21 1228.36 1830.17 1201.11 1830.08 1194.21 1830.29 1186.74 1830.25 1149.07 1830.17 1145.66 1830.4 1143.75 1830.17 1125.02 1830.34 1118.38 1830.3 1114.72 1830.52 1111.25 1830.29 1103.76 1830.25 1078.86 1830.21 1069.39 1829.95 1062.36 1830.12 1048.78 1830.12 998.99 1829.76 998.95 1831.45 989.33 1831.45 977.77 1831.19 959.85 1831.15 948.7 1831.32 938.84 1831.28 925.27 1831.02 910.46 1831.19 876.12 1831.11 869.8 1831.28 862.78 1831.06 855.21 1831.03 853.69 1831.02 842.49 1831.19 834.29 1830.98 829.53 1830.94 828.96 1830.93 799.71 1831.28 799.93 1833.66 781.06 1833.58 774.59 1833.81 772.44 1833.55 767.93 1833.75 759.47 1833.71 746.78 1833.71 746.78 1832.15 722.75 1831.88 715.54 1832.09 710.61 1832.05 695.03 1831.79 682.67 1831.74 677.04 1831.53 668.28 1831.49 668.24 1831.49 660.76 1831.66 654.72 1831.66 629.85 1831.15 612.32 1831.49 612.31 1831.49 607.04 1831.59 607.03 1831.33 605.47 1831.28 603.17 1831.26 603.17 1832.3 601.18 1832.3 601.16 1835.59 600.91 1842.36 600.91 1855.93 600.64 1865.82 600.4 1869.71 600.39 1877.03 600.14 1883.85 599.88 1901.22 605.02 1901.26 604.19 1914.2 604.15 1922.38 603.94 1927.71 603.58 1947 596.91 1946.74 596.66 1953.62 577.78 1953.57 563.96 1953.74 562.23 1953.7 562.19 1972.93 561.78 1994.35 550.89 1993.42 538.82 1992.5 531.29 1992.3 528.29 1992.67 519.97 1992.91 519.8 2002.46 519.55 2013.2 519.52 2023.72 520.6 2023.72 520.79 2097.72 520.76 2106.07 533.52 2106.28 551.06 2106.74 566.97 2106.83 590.12 2107.13 596.62 2107.34 608.58 2107.39 623.14 2107.68 642.19 2107.74 642.15 2110.4 646.02 2110.33 646.02 2110.33 646.02 2110.33 646.14 2110.33 663.36 2110.8 684.32 2110.89 689.91 2111.1 703.61 2111.18 745.48 2111.74 752.37 2111.96 766.1 2112.25 799.28 2112.34 799.47 2112.34 806.6 2112.59 820.25 2112.42 826.85 2112.42 826.43 2110.46 850.08 2110.59 857.05 2110.37 868 2110.42 874.97 2110.2 878.98 2110.46 898.26 2110.51 904.95 2110.76 916.62 2110.76 921.96 2110.59 928.96 2110.59 939.07 2110.42 946.07 2110.46 968.48 2110.5 979.54 2110.12 989.4 2110.12 997.22 2110.37 999.48 2110.16 1020.87 2110.25 1027.9 2110.02 1030.37 2110.25 1031.36 2110.25 1036.91 2110.07 1050.92 2110.12 1062.35 2109.9 1069.39 2109.95 1078.32 2109.95 1103.9 2109.82 1157.8 2109.73 1206.1 2108.8 1228.49 2108.45 1244.54 2108.45 1279.2 2107.9 1281.72 2107.92 1282.23 2106.94 1284.52 2104.16 1288.16 2100.14 1293.31 2096.26 1297.01 2095.12 1297.06 2094.99 1296.98 2093.87 1296.16 2091.03 1295.66 2088.06 1295.34 2083.28 1297.73 2078.69 1301.31 2075.97 1306.36 2074.05 1310.43 2073.17 1310.61 2071.71 1310.78 2069.51 1310.5 2066.42 1311.98 2062.26 1314.69 2059.41 1320.55 2057.79 1324.04 2060.85 1325.12 2061.41 1325.25 2060.97 1325.38 2060.44 1325.92 2058.3 1327.79 2055.83 1328.82 2054.22 1332.3 2051.32 1336.89 2050.87 1337.59 2048.53 1340.36 2044.27 1340.4 2043.83 1339.69 2041.22 1338.72 2039.27 1338.72 2032.31 1344.86 2029.48 1344.86 2025.33 1348.16 2019.74 1353.02 2016.98 1353.03 2015.11 1353.33 2010.52 1353.69 2009.45 1349.19 2007.15 1347.34 2004.05 1344.92 1999.49 1343.81 1995.84 1342.98 1992.27 1343.34 1986.85 1346.45 1981.84 1356.2 1978.67 1359.48 1979.2 1359.78 1975.73 1360.69 1970.01 1364.66 1965.76 1370.2 1961.86 1370.62 1960.86 1370.53 1959.49 1369.71 1957.24 1368.97 1949.74 1374.1 1944.34 1381.73 1941.85 1392.6 1940.21 1404.44 1940.73 1407.82 1941.08 1411.96 1940.41 1415.96 1941.06 1417.69 1942.84 1418.99 1939.91 1423.05 1937.27 1427.23 1936.15 1431.78 1936.6 1436.34 1937.63 1438.36 1937.24 1442.53 1937.87 1443.54 1938.19 1443.33 1935.61 1445.08 1932.96 1445.04 1932.76 1443.46 1928.06 1442.29 1923.39 1443.19 1919.36 1444.8 1916.6 1447.08 1914.07 1455.92 1907.44 1457.93 1905.76 1458.43 1904.89 1458.84 1904.01 1459.03 1902.31 1460.33 1898.84 1465.56 1893.69 1466.27 1892.77 1466.76 1891.33 1467.47 1889.47 1470.1 1886.09 1471.89 1885.23 1475.22 1883.15 1481.56 1882.82 1485.56 1883.69 1489.52 1887.03 1491.48 1888.92 1491.41 1888.13 1491.01 1886.23 1490.61 1884.33 1490.61 1884.33 1490.61 1884.33 1491.44 1880.32 1492.92 1875.62 1495.78 1868.53 1499.27 1865.14 1502.69 1864.38 1502.43 1861.76 1502.13 1857.47 1503.24 1854.76 1505.08 1851.27 1511.01 1842.26 1513.78 1838.2 1517.2 1835.6 1521.52 1834.21 1525.53 1836.15 1526.87 1837.35 1526.91 1837.28 1529.08 1835.19 1531.01 1834.23 1532.97 1833.14 1533.53 1832.09 1535.44 1828.1 1537.12 1826.48 1525.46 1826.75"/><polygon class="cls-1" points="1858.17 1313.89 1857.15 1279.55 1856.97 1272.65 1855.91 1236.14 1854.42 1183.21 1850.41 1183.16 1849.54 1184.33 1850.07 1191.29 1847.13 1192.1 1847.89 1196.4 1836.74 1196.99 1511.56 1205.14 1512.02 1206.56 1509.84 1210.02 1509.93 1211.7 1510.39 1213.77 1510.39 1215.15 1511.62 1215.32 1516.63 1224.15 1512.11 1230.63 1511.12 1232.95 1513.06 1239.2 1510.11 1242.06 1510.13 1242.21 1511.88 1247.23 1510.3 1250.32 1510.3 1254.86 1506.2 1257.36 1505.56 1260.43 1499.11 1269.72 1503.58 1271.1 1496.37 1283.42 1492.88 1284.55 1492.7 1284.81 1492.2 1286.61 1497.92 1289.14 1496.73 1299.57 1501.44 1310.57 1494.45 1318.61 1493.04 1318.29 1494.15 1323.99 1488.4 1332.74 1483.19 1333.12 1482.23 1334.13 1482.05 1334.14 1481.6 1334.71 1482.67 1337.02 1485.81 1340.17 1480.8 1346.69 1480.7 1346.71 1482.72 1348.73 1484.99 1354.71 1480.24 1360.15 1478.84 1360.78 1478.43 1362.48 1479.45 1366.15 1478.15 1369.26 1477.63 1375.18 1475.74 1378.02 1472.47 1381.47 1468.71 1383.22 1468.78 1384.18 1469.02 1384.67 1469.56 1387.9 1468.26 1393.1 1467.4 1395.57 1466.18 1399.82 1466.26 1400.82 1468.3 1405.97 1468.3 1410.44 1467.77 1410.83 1470.25 1413.31 1471.95 1419.63 1466.65 1423.2 1467.74 1425.3 1465.68 1428.09 1465.69 1428.3 1465.97 1428.7 1467.96 1430.91 1469.14 1432.68 1473.23 1436.64 1470.22 1441.44 1469.47 1442.46 1469.78 1442.75 1472.57 1448.18 1472.57 1449.1 1473.12 1450.81 1472.58 1454.55 1471.08 1457.29 1467.96 1459.69 1463.16 1460.48 1456.99 1459.61 1456.99 1460.68 1460.21 1462.77 1463.16 1466.57 1463.81 1469.79 1463.47 1472.13 1463.24 1474.18 1463.04 1475.53 1463.29 1475.41 1466.22 1475.41 1469.09 1476.78 1471.2 1478.89 1472.44 1481.99 1472.44 1484.72 1470.78 1490.12 1470.04 1492.12 1473.76 1491.89 1477.12 1493.58 1479.01 1496.16 1479.98 1500.04 1479.68 1500.65 1479.97 1500.76 1483.22 1504.37 1484.86 1509.68 1484.86 1511.89 1484.27 1515.45 1481.81 1517.75 1480.32 1518.67 1481.67 1519.76 1487.31 1521.32 1492.8 1530.5 1494.31 1534.26 1493.57 1535.74 1493.57 1538.12 1489.98 1540.69 1488.36 1541.45 1485.38 1542.67 1485 1542.77 1484.39 1544.72 1482.46 1546.89 1483.4 1549.13 1485.54 1549.13 1488.57 1550.08 1491.23 1553.27 1492.73 1557.02 1491.47 1560.81 1489.84 1562.43 1488.46 1564.03 1489.01 1564.52 1492.36 1566.97 1492.53 1567.97 1498.06 1570.14 1499.45 1573.62 1501.16 1574.69 1503.35 1573.85 1508.63 1576.05 1510.81 1579.82 1511.29 1585.11 1508.84 1589.36 1507.35 1590.63 1507.24 1590.89 1508.45 1594.18 1510.41 1591.39 1515.72 1590.74 1520.55 1592.16 1525.05 1597.4 1526.81 1604.27 1527.52 1613.6 1522.24 1617.03 1527.31 1618.48 1530.36 1622.82 1530.23 1628.99 1525.75 1633.38 1523.54 1635.28 1526.02 1636.5 1528.27 1638.75 1529.12 1643 1527.74 1647.6 1523.26 1649.57 1520.8 1649.54 1520.8 1649.92 1752.8 1644.45 1865 1641.81 1864.49 1624.74 1863.89 1594.86 1863.08 1565.03 1861.16 1437.79 1861.03 1431.28 1861.07 1428.4 1860.9 1424.47 1860.69 1409.49 1860.35 1396.61 1859.28 1355.34 1858.17 1313.89"/><polygon class="cls-1" points="1507.43 1612.76 1506.5 1613.84 1506.86 1614.19 1506.97 1614.09 1508.29 1613.77 1507.62 1612.56 1507.43 1612.76"/><polygon class="cls-1" points="6.41 2055.68 6.15 2067.09 49.95 2068.42 57.12 2068.67 70.4 2068.76 91.77 2069.28 98.86 2069.74 112.85 2070 118.9 2070.25 126.36 2070.29 169.33 2071.58 169.59 2065.46 189.28 2065.81 223.07 2066.98 223 2083.5 222.76 2108.53 278.27 2109.35 285.76 2109.18 292.61 2109.43 304.73 2109.43 304.32 2124.49 304.28 2133.46 314.87 2133.77 320.53 2133.81 345.9 2134.46 345.9 2137 375.85 2137.6 375.9 2125.14 427.57 2125.99 427.57 2124.5 427.69 2104.95 452.71 2105.34 460.36 2105.34 460.42 2105.34 486.42 2105.89 509.76 2105.96 509.79 2097.72 509.63 2034.72 508.49 2034.72 508.55 2013 508.81 2002.24 509.15 1982.21 527.69 1981.68 530.7 1981.28 539.52 1981.52 551.01 1982.4 551.19 1972.81 551.22 1957.09 547.73 1957.05 547.73 1942.35 564.02 1942.74 578.21 1942.57 586.05 1942.62 586.31 1935.32 592.79 1935.57 592.94 1927.32 593.15 1922.04 593.21 1913.66 593.3 1912.16 588.19 1912.12 588.84 1903.64 589.14 1883.5 589.4 1876.73 589.41 1869.18 589.66 1865.23 589.91 1855.71 589.91 1842.05 590.16 1835.28 590.16 1832.19 583.23 1832.04 576.5 1831.76 574.83 1831.58 570.11 1831.57 563.21 1831.32 556.31 1831.31 549.63 1831.06 547.58 1831.06 540.71 1831.23 513.79 1831.14 507.87 1830.91 506.74 1831.14 499.18 1830.68 486.69 1830.59 479.76 1830.38 464.15 1830.29 457.48 1830.08 444.96 1830.25 438.12 1829.99 416.09 1829.91 403.55 1829.65 389.04 1829.57 381.24 1829.36 374.36 1829.31 353.9 1828.59 347.13 1828.76 325.25 1828.03 291.62 1827.68 284.73 1827.22 275.9 1826.96 271.14 1826.96 265.04 1826.7 258.59 1826.49 249.93 1826.45 237.89 1825.93 231.23 1825.73 223.92 1825.68 208.9 1825.17 196.3 1825.11 193.66 1824.91 189.66 1824.87 181.92 1824.66 174.91 1824.4 168.32 1824.36 160.72 1824.1 154.47 1824.1 147.55 1823.85 133.91 1823.8 126.48 1823.55 113.61 1823.25 106.84 1823.04 99.3 1822.99 85.54 1822.48 71.69 1822.22 64.99 1821.97 58.35 1821.92 52.57 1821.73 51.24 1821.94 43.9 1821.67 24.29 1821.16 14.16 1821.1 12.81 1872.2 10.16 1932.32 7.39 2023.62 6.41 2055.68"/><polygon class="cls-1" points="43.29 1150.31 52.17 1150.57 56.69 1150.57 63.82 1150.82 77.69 1150.91 84.69 1151.17 98.17 1151.42 106.01 1151.49 105.8 1147.87 120.28 1148.31 125.32 1148.34 127 1148.35 140.86 1148.6 154.74 1148.69 168.44 1149.16 182.1 1149.25 189.22 1149.5 189.23 1149.5 195.89 1149.5 202.83 1149.76 206.05 1149.8 209.53 1149.8 223.16 1150.06 230.26 1150.1 236.96 1150.35 243.91 1150.4 247.91 1150.61 250.75 1150.61 264.54 1150.91 271.31 1151.12 284.08 1151.2 287.27 1151.22 291.52 1151.46 303.88 1151.53 306.04 1151.72 312.74 1151.77 319.46 1151.98 326.13 1152.02 333.08 1152.28 347.24 1152.53 353.49 1152.58 367.39 1153.04 374.11 1153.09 388.18 1153.34 395.08 1153.39 401.55 1153.64 428.11 1153.73 434.36 1153.96 435.26 1153.74 442.82 1154.02 449.61 1153.81 456.7 1154.07 470.16 1154.11 476.86 1154.37 476.95 1154.37 490.94 1154.41 497.38 1154.65 497.85 1154.67 518.92 1154.75 525.42 1154.96 552.23 1155.1 559.35 1155.35 580.89 1155.39 615.25 1155.52 621.9 1155.77 635.55 1155.6 701.01 1155.82 704.78 1159.74 709.33 1159.01 712.35 1171.26 711.47 1176.5 707.83 1180.61 706.55 1180.84 707.87 1184.99 708.28 1187.39 715.88 1188.14 712.59 1198.65 713.14 1200.65 713.69 1202.66 709.57 1206.47 711.88 1211.44 713.05 1217.65 713.05 1217.65 713.05 1217.65 712.23 1222.19 712.6 1223.35 713.22 1228.55 712.55 1231.09 713.49 1237.65 710.49 1238.56 711.6 1239.65 711.99 1245.13 711.83 1247.75 713.16 1251.35 712.36 1258.36 712.36 1260.36 712.85 1262.32 720.16 1262.23 723.27 1262.49 744.03 1262.54 756.5 1262.99 756.29 1269.58 765.82 1269.8 765.88 1267.43 766.61 1259.04 787.31 1258.66 787.35 1243.95 800.53 1243.99 800.45 1237.79 864.96 1236.67 864.98 1235.27 865.08 1201.01 877.85 1200.63 876.64 1155.45 875.75 1089.17 886.43 1089.04 886.52 1082.01 889.56 1082.01 889.48 1078.47 896.5 1078.47 896.46 1074.88 903.42 1074.83 903.51 1067.87 924.83 1067.91 924.99 1058.17 923.17 1058.22 910.69 1057.91 910.85 1051.32 903.83 1051.45 903.83 1044.35 879.27 1044.73 874.2 1044.73 867.81 1044.85 854.95 1046.69 860.99 1032.31 863.3 1028.43 864.59 1027.15 864.15 1024.63 865.47 1022.03 865.66 1019.7 867.64 1016.53 862.68 1012.64 859.57 1004.88 860.28 1003.71 857.57 1003.75 851.81 997.2 851.85 996.87 851.02 996.29 849.96 989.51 850.61 987.88 846.27 984.39 845.47 984.52 845.09 991.87 838.75 991.59 836.58 993.94 834.27 994.8 830.57 1000.87 825.83 999.73 824.88 999.64 824.79 999.78 823.24 1000.63 822.03 1004.25 815.84 1003.69 815.04 1006.96 812.31 1009.91 810.65 1015.24 808.95 1016.48 807.99 1018.34 806.12 1020.75 804.96 1021.89 804.63 1022.46 803.03 1024.89 802.34 1026.96 800.31 1029.68 799.36 1031.51 799.36 1033.03 798.69 1036.69 797.19 1039.54 795.3 1042.02 791.74 1045.98 786.06 1049.63 783.04 1046.61 781.11 1051.71 777.11 1053.67 775.01 1054.84 772.48 1057.76 766.96 1059.73 764.54 1058.94 762.46 1061.11 756.97 1060.65 753.84 1060.23 751.25 1060.23 738.22 1057.33 741.68 1045.51 744.7 1043.55 743.92 1038.84 747.49 1035.75 747.33 1033.82 748.36 1031.45 748.21 1031.18 744.38 1027.81 745.07 1024.13 743.04 1023.77 743.25 1010.1 748.81 1007.34 749.95 1005.5 751.91 1001.28 750.34 997.62 750.12 997.45 749.46 997.19 745.07 996.48 742.92 989.39 741.04 990.24 735.65 986.31 734 978.74 735.45 972.67 737.26 970.75 736.43 969.27 735.36 967.92 728.06 967.01 717.29 952.6 717.09 951.78 714.68 950.5 714.08 950.29 705.16 954.13 704.04 954.47 702.88 957.07 699.9 963.62 698.04 965.81 698.25 966.98 698.86 973.07 698.86 973.07 698.86 973.07 689.94 977.02 688.9 977.27 685.17 982.84 680.44 982.84 676.77 983.05 672.99 983.05 668.33 985.31 661.63 983.55 661.02 982.56 661.26 984.15 660.94 988.03 659.36 992.88 659.9 994.39 656.46 1001.27 651.16 999.97 644.94 1000.13 637.65 999.87 610.16 999.78 596.37 999.96 582.5 999.7 568.65 999.61 561.5 999.4 555.06 999.36 545.29 999.53 540.87 999.31 513.63 999.19 509.13 999.08 504.62 998.97 486.31 998.88 479.4 998.63 472.27 998.59 462.59 998.37 458.25 998.11 451.62 997.86 438.2 997.82 431.5 997.57 417.42 997.52 410.52 997.27 403.62 997.26 396.92 997.01 390.01 996.97 374.23 996.71 369.43 996.46 363.75 996.67 350.06 996.15 336.37 995.9 315.18 995.81 308.48 995.56 281.16 995 264.75 994.49 260.92 994.49 229.64 993.93 222.73 993.68 211.56 993.64 192.49 993.12 185.46 992.87 179.48 992.74 173.51 992.61 165.1 992.57 157.89 992.31 130.61 991.76 125.09 991.68 123.41 991.5 116.96 991.46 109.53 991.2 97.78 990.95 88.94 990.9 68.43 990.14 48.13 989.84 36.42 989.61 35.14 1045.04 34.84 1058.99 33.73 1106.64 32.44 1150.16 35.88 1150.26 36.22 1150.27 43.29 1150.31"/><polygon class="cls-1" points="1007.06 2363.21 1012.86 2363.21 1017.37 2362.83 1021.36 2361.94 1022.85 2360.74 1025.11 2358.54 1030.47 2356.78 1032.47 2357.31 1032.64 2355.22 1035.05 2353.76 1032.44 2348.83 1031.32 2341.74 1033.9 2337.87 1037.09 2335.54 1042.68 2333.54 1048.73 2338.85 1050.03 2339.51 1054.76 2341.31 1055.5 2342.04 1056.4 2339.85 1058.87 2334.63 1066.87 2333.98 1070.99 2337.29 1073.89 2331.5 1077.11 2326.59 1079.11 2321.79 1085.38 2315.31 1093.82 2315.31 1098.8 2323.21 1103.83 2315.57 1110.01 2315.57 1114.31 2316.54 1117.2 2316.89 1118.94 2316.89 1120.06 2316.68 1121.47 2316.68 1123.55 2316.51 1127 2315.84 1129.76 2316.88 1132.51 2317.92 1135.27 2313.84 1141.15 2312.71 1146.88 2312.03 1152.28 2312.03 1153.8 2312.35 1154.5 2309.91 1158.47 2306.05 1163.65 2305.54 1164.65 2305.85 1164.32 2305.23 1163.83 2299.16 1168 2294.45 1171.87 2293.8 1175.43 2294.09 1175.41 2293.83 1174.41 2284.37 1182.52 2279.69 1183.95 2280.54 1188.92 2276.21 1189 2275.88 1186.41 2271.77 1186.41 2266.85 1186.41 2266.85 1187.52 2265.14 1189.24 2262.5 1192.97 2260.72 1192.94 2260.51 1192.62 2259.54 1189.18 2255.92 1190.52 2247.26 1196.95 2244.39 1197.3 2244.42 1195.56 2239.54 1195.13 2232.47 1201.12 2227.64 1207.16 2226.66 1208.5 2226.1 1208.76 2224.85 1208.2 2222.7 1207.03 2222.32 1198.94 2219.32 1195.47 2213.73 1195.08 2207.54 1197.57 2202.19 1203.54 2199.07 1208.75 2199.58 1213.02 2202.52 1217.41 2205.89 1229.74 2212.26 1233.83 2211.86 1234.39 2211.62 1235.67 2210.22 1238.53 2207.99 1238.97 2207.27 1241.31 2199.54 1248.69 2196.84 1248.81 2196.31 1250.24 2194.31 1250.03 2194.02 1244.67 2190.43 1241.34 2186.09 1240.14 2179.62 1242.21 2175.11 1247.82 2171.43 1254.4 2172.23 1256.86 2173.61 1257.87 2172.23 1259.45 2169.33 1259.28 2169.34 1255.83 2169.67 1250.83 2166.69 1247.38 2163.24 1244.68 2160.32 1241.52 2154.07 1244.15 2146.68 1250.41 2146 1254.27 2139.42 1260.44 2137.07 1264.93 2136.2 1271.83 2136.74 1271.83 2130.93 1271.83 2130.93 1272.78 2129.14 1274.91 2118.97 1244.63 2119.45 1228.58 2119.45 1206.29 2119.79 1157.91 2120.73 1103.94 2120.82 1078.35 2120.95 1062.35 2120.9 1050.93 2121.12 1037 2121.07 1029.88 2121.25 1027.58 2121.04 1020.93 2121.25 999.78 2121.16 997.52 2121.37 995.77 2121.37 989.09 2121.12 979.64 2121.12 968.57 2121.5 939.07 2121.42 929.05 2121.59 922.05 2121.59 916.71 2121.76 904.64 2121.75 897.94 2121.5 878.45 2121.45 874.78 2121.21 868.09 2121.42 857.18 2121.38 850.16 2121.59 847.38 2121.54 840.47 2121.55 840.09 2121.54 840.52 2123.51 820.32 2123.42 806.47 2123.59 799.18 2123.34 765.91 2123.25 752.08 2122.95 745.24 2122.74 703.5 2122.18 689.58 2122.1 683.99 2121.89 663.13 2121.8 645.97 2121.33 630.97 2121.6 631.01 2118.71 623.01 2118.68 608.44 2118.39 596.34 2118.34 589.82 2118.13 566.87 2117.83 550.82 2117.74 533.28 2117.27 515.19 2116.98 486.22 2116.89 460.25 2116.34 460.25 2116.34 452.62 2116.34 438.62 2116.12 438.58 2126.17 438.59 2126.17 438.48 2151.94 438.27 2158.96 438.21 2166.37 437.76 2172.18 437.76 2179.26 437.29 2192.7 437.25 2196.27 437.25 2200.09 436.94 2229.38 437.83 2229.38 437.76 2242.43 437.5 2262.71 437.68 2266.54 437 2276.25 437.21 2285.77 436.95 2296.23 436.91 2299.7 436.91 2299.78 437.13 2302.95 436.91 2306.57 436.82 2328.47 436.51 2339.18 436.35 2340.28 436.35 2345.9 436.11 2352.33 436.32 2354.03 436.04 2361.94 461.03 2362.14 490.82 2362.35 505.77 2362.61 567.72 2363.21 636.25 2363.72 701.98 2364.36 763 2364.78 773.31 2364.83 828.26 2364.83 835.05 2364.78 868.73 2364.61 885.63 2364.74 892.05 2364.66 896.23 2364.7 902.52 2364.83 925.69 2364.61 954.15 2364.44 985.88 2364.4 992.95 2364.23 999.06 2364.23 1000.66 2363.53 1003.36 2363.16 1007.06 2363.21"/><polygon class="cls-1" points="57.18 1610.78 64.79 1611.2 84.31 1611.75 98.42 1611.8 131.57 1612.61 136.06 1612.82 138.24 1612.82 172.6 1613.63 179.63 1613.67 207.03 1614.44 220.76 1614.91 228.55 1614.95 254.5 1615.51 261.35 1615.73 296.38 1616.32 303.08 1616.58 336.03 1616.71 343.17 1616.96 371.71 1617.26 378.96 1617.51 385.31 1617.35 393.02 1617.35 406.67 1618.07 421.44 1618.12 427.38 1618.37 441.67 1618.84 462.34 1618.93 469.34 1619.18 485.09 1619.87 504.7 1620.16 511.69 1620.2 539.14 1620.08 559.35 1619.52 581.87 1619.4 582.04 1619.08 583.77 1619.35 584.05 1606.26 589.9 1606.52 590.19 1585.63 593.61 1585.41 593.88 1578.63 596.95 1578.63 596.95 1571.67 604.61 1571.49 604.86 1568.5 626.3 1568 648.32 1566.39 648.79 1570.72 656.62 1570.83 657.05 1567.86 662.65 1567.67 662.65 1565.02 666.15 1565.47 666.31 1561.12 674.95 1556.92 678.54 1557.1 686.04 1547.48 689.25 1547.36 689.27 1541.46 685.61 1541.88 685.4 1511.82 685.4 1511.77 685.4 1511.73 685.78 1495.22 687.57 1495.22 687.36 1482.49 701.12 1482.09 701.8 1475.43 708.3 1475.23 708.34 1462.62 714.86 1462.4 715.34 1448.44 721.2 1448.48 721.04 1438.65 746.97 1437.45 747.01 1420.69 763.64 1420.72 764.05 1408.02 765.69 1407.82 765.69 1407.26 765.69 1401.09 765.69 1396.26 765.71 1396.26 765.78 1380.96 765.56 1372.5 765.61 1365.41 765.73 1330.42 765.73 1318.46 765.56 1310.02 765.65 1280.79 744.94 1280.32 745.16 1273.59 743.73 1273.53 722.59 1273.47 719.77 1273.24 693.9 1273.53 701.75 1263.25 701.36 1261.7 701.4 1257.42 701.93 1252.71 700.7 1249.39 700.97 1245.17 700.93 1244.67 689.66 1237.71 701.44 1230.07 702.05 1227.77 701.81 1225.72 700.9 1222.95 701.87 1217.68 701.33 1214.84 696.22 1203.84 701.32 1199.12 701.13 1198.43 701.31 1197.87 698.88 1197.69 697.15 1187.59 696.2 1184.59 686.92 1181.57 697.54 1171.26 700.15 1170.8 696.32 1166.82 677.45 1166.78 635.6 1166.6 621.76 1166.78 614.94 1166.52 594.04 1166.48 559.06 1166.34 551.93 1166.09 525.14 1165.96 518.64 1165.75 497.54 1165.66 490.64 1165.41 476.53 1165.36 469.84 1165.11 456.39 1165.06 449.58 1164.81 442.79 1165.03 436.35 1164.79 435.45 1165.01 427.81 1164.73 401.23 1164.64 394.74 1164.38 388.05 1164.34 373.98 1164.08 367.12 1164.04 353.17 1163.57 347.11 1163.53 332.73 1163.27 325.81 1163.02 319.18 1162.97 312.46 1162.76 305.29 1162.7 303.13 1162.51 291.03 1162.45 286.8 1162.21 271.03 1162.12 264.24 1161.91 250.57 1161.61 247.49 1161.6 243.47 1161.39 236.63 1161.35 229.93 1161.1 223.02 1161.06 209.42 1160.8 202.49 1160.75 195.59 1160.5 188.92 1160.5 181.79 1160.24 168.16 1160.15 154.42 1159.69 140.72 1159.6 126.86 1159.35 120.01 1159.3 117.48 1159.23 117.7 1162.94 104.95 1162.46 98.03 1162.42 84.39 1162.16 77.36 1161.91 73.92 1161.87 70.49 1161.87 63.51 1161.82 56.39 1161.57 51.94 1161.56 43.03 1161.31 35.98 1161.27 32.12 1161.16 31.04 1197.35 28.44 1280.09 27.54 1310.28 25.83 1356.34 25.23 1371.64 23.86 1410.34 23.66 1413.6 22.71 1490.86 22.2 1511.14 21.78 1527.18 21.22 1548.54 20.84 1565.72 19.66 1609.83 50 1610.52 57.18 1610.78"/><polygon class="cls-1" points="1010.43 309.83 1004.78 309.46 999.74 303.28 998.48 304.41 999.35 304.97 991.5 308.83 991.53 309.46 991.53 312.16 990.02 317.47 986.52 318.36 986.2 322.55 985.06 325.4 984.16 326.97 984.52 328.01 985.72 330.59 987.27 336.4 985.4 339.76 984.86 340.85 984.87 340.87 985.65 343.32 981.5 349.86 978.55 350.97 976.5 353.9 974.79 357.52 971.44 361.04 966.85 364.53 964.98 370.87 955.91 371.68 953.79 371.47 950.71 371.8 946.9 369.77 944.02 367.99 942.34 368.22 935.44 367.74 932.49 367.98 929.01 367.36 926.9 369.03 926.54 370.38 925.8 375.29 923.21 381.49 919.17 383.47 914.18 386 910.88 389.44 902.53 392.54 896.08 395.82 890.66 394.75 885.02 395.3 879.4 391.3 868.21 382.25 865.65 383.8 859.86 378.06 854.11 379.14 853.04 381.09 848.73 384.47 844.19 384.96 839.59 387.2 835.02 387.33 834.09 388.61 834.69 389.6 832.16 394.56 835.68 397.56 840.31 402.59 837.87 407.08 838.51 410.08 837.18 412.49 839.37 422.9 838.52 426.29 839.2 429.6 839.58 433.78 841.59 440.44 840.13 443.03 840.16 443.17 840.77 444.22 842.64 447.14 843.76 450.76 844.92 452.83 846.21 458.19 844.98 460.98 845.32 461.02 848.6 464.3 850.78 467.63 851.11 468.5 853.63 470.39 855.53 474.14 857.52 476.8 860.82 480.6 863.58 487.69 869.29 496.48 860.63 502.3 857.78 501.68 859.15 502.73 860.31 506.21 860.67 509.81 860.25 511.91 863.7 514.96 866.91 521.39 866.44 522.75 866.75 522.96 870.7 527.38 870.33 529.9 870.57 530.47 870.8 531.46 874.17 531.96 878.96 537.24 880.69 538.7 881.71 538.37 883.56 539.16 885.36 535.2 896.13 537.99 901.96 540.32 904.91 542.71 907.7 545.08 909.78 550.3 907.49 553.32 908.96 554.1 911.91 556.51 915.15 559.64 914.97 561.46 916.19 560.58 921.78 559.08 928.07 562.77 932.83 567.47 934.4 571.16 940.93 574.51 947.35 573.07 947.99 572.29 949.37 570.81 950.12 567.62 949.16 565.92 949.16 560.41 952.64 555.23 954.66 553.74 954.66 549.53 959.23 542.48 960.11 540.94 960.03 538.73 957.39 535.38 956.22 530.83 954.05 529.05 951.08 520.81 951.06 520.48 943.53 520.39 943.67 510.35 945.83 506.93 945.86 506.45 946.25 502.72 946.23 502.62 945.09 502.62 941.02 504.39 936.66 500.65 934.7 500.65 929.93 506.38 927.05 500.7 924.18 495.03 923.3 487.96 920.16 480.53 925.7 473.42 931.04 470.48 935.21 466.28 935.56 461.88 937.04 457.09 941.34 450.56 945.62 446.4 951.3 443.38 955.88 441.2 961.89 439.15 964.98 440.02 966.51 439.6 968.59 437.37 972.09 435.78 976.78 431.51 988.6 431.51 991.62 433.79 996.09 431.51 999.19 430 1000.4 428.71 998.52 423.56 1000.52 419.72 1001.51 416.49 1002.01 409.32 1012.84 408.56 1013.56 408.67 1014.59 407.53 1017.56 403.85 1027.23 405.38 1032.4 402.69 1036.51 401.76 1041.19 401.76 1044.37 397.93 1047.94 392.9 1049.55 390.89 1048.49 387.35 1050.73 384.99 1050.26 384.48 1050.83 379.14 1051.49 376.88 1051.92 375.66 1044.47 373.03 1043.59 371.26 1042.9 370.66 1037.91 365.47 1033.88 360.78 1034.14 355.16 1032.78 352.11 1035.32 346.8 1037.42 341.43 1037.89 337.28 1037.36 335.53 1036.65 334.55 1031.22 330.33 1028.92 325.47 1028.5 323.91 1028.19 323.57 1025.81 322.51 1022.09 318.41 1019.19 317.12 1016.4 312.44 1014.09 312.08 1012.11 309.84 1010.43 309.83"/><polygon class="cls-1" points="632.82 1803.3 631 1808.57 626.92 1808.57 625.34 1809.57 623.35 1812.06 622.03 1813.15 621.69 1815.4 620.77 1819.57 619.52 1820.35 629.86 1820.15 629.98 1820.15 654.88 1820.66 660.7 1820.66 660.7 1820.66 668.22 1820.49 677.36 1820.54 682.99 1820.75 695.14 1820.79 715.43 1821.09 722.65 1820.87 722.76 1820.87 757.78 1821.28 757.78 1822.71 767.71 1822.75 772.85 1822.52 775.05 1822.78 780.97 1822.58 787.88 1822.58 787.67 1820.28 801.11 1820.28 828.93 1819.93 829.03 1791.37 829.04 1789.9 827.25 1729.5 827.12 1703.08 826.9 1700.23 826.9 1693.02 831.94 1689.66 831.98 1688.74 835.66 1685.06 837.63 1677.6 849.81 1665.7 832.14 1665.82 825.5 1665.78 791.86 1666.12 763.2 1666.03 747.56 1665.65 747.35 1660.81 732.96 1660.74 725.1 1660.96 725 1660.96 668.49 1660.53 590.18 1660.45 592.98 1663.88 588.87 1669.27 589.1 1669.69 589.55 1670.56 593.66 1674.31 593.89 1677.7 598.26 1678.97 602.43 1682.12 603.96 1684.46 608.19 1687.61 611.49 1692.12 611.49 1695.8 612.85 1699.03 613.81 1697.37 618.29 1691.25 629.32 1696.71 630.78 1701.14 634.29 1705.32 630.2 1709.27 631.54 1711.72 633.07 1712.54 638.25 1714.29 640.38 1719.24 645.16 1722.79 644.91 1725.74 649.37 1725.52 655.63 1737.12 653.23 1744.48 653.37 1746.25 653.37 1750.86 650.62 1755.13 650.94 1756.03 650.94 1761.23 647.18 1767.58 643.5 1772.45 641.08 1779.28 639.98 1780.21 640.05 1780.3 647.64 1786.53 645.64 1793.74 644.37 1796.28 642.68 1798.7 639.99 1800.55 637.02 1802.3 633.1 1803.1 632.82 1803.3"/><polygon class="cls-1" points="964.11 6.44 964.7 7.97 967.03 9.88 970.32 16.11 973.28 31.32 974.69 37.86 972.92 42.28 972.92 50.18 964.42 50.18 964.36 51.22 964.72 51.43 968.62 51.43 970.87 60.61 966.63 64.34 964.99 66.54 964.43 67.6 964.1 71.06 969.3 76.42 979.06 87.87 978.69 89.94 981.19 92.08 982.4 101.53 981.85 105.88 983.57 109.13 984.57 113.88 985.31 116.86 985.56 121.77 985.56 124.11 985.56 124.12 986.63 126.67 986.78 127.47 993.84 129.81 994.16 135.68 995.43 137.26 994.22 145.01 990.84 149.88 990.82 150.34 992.67 150.7 995.41 156.41 997.72 156.86 1000.21 164.42 999.39 169.69 996.86 173.52 996 175.1 996.88 177.74 995.27 181.77 991.64 185.33 991.15 185.63 991.85 188.03 991.34 190.81 992.06 194.22 991.41 196.84 991.94 198.81 991.6 202.54 990.72 206.15 990.49 209.57 988.14 216.68 986.74 219.48 987.04 220.04 984.65 227.4 981.08 230.01 980.94 232.59 977.1 236.06 975.19 238.74 974.93 240.9 974.93 245.94 972.08 248.99 971.23 253.25 967.77 256.96 965.51 259.48 965 260.63 966.02 263.72 961.67 274.48 963.14 277 963.56 277.52 965.35 278.3 968.85 280.15 970.2 280.79 972.29 282.36 975.84 287.94 973.83 291.03 974.24 291.38 976.25 292.61 978.5 293.43 979.53 293.89 981.32 293.7 985.21 295.17 988.52 296.62 991.36 296.02 992.25 295.22 994.93 291.5 1002.12 290.95 1006.3 293.6 1008.99 297.3 1010.23 298.79 1010.97 298.84 1010.97 298.84 1012.02 298.84 1015.79 298.48 1019.41 301.49 1019.7 301.81 1023.45 302.4 1026.81 308.47 1028.69 309.31 1032.39 313.4 1034.8 314.48 1038.42 318.49 1039.28 321.63 1040.05 323.26 1044.61 326.81 1047.4 330.61 1048.07 332.99 1049.08 336.21 1048.19 344.09 1045.33 351.37 1044.89 352.28 1045.24 353.07 1045.07 356.92 1046.15 358.18 1050.58 362.77 1052.23 364.11 1061.37 367.32 1067.17 373.77 1062.4 379.02 1061.81 380.78 1064.81 384.05 1061.29 389.83 1060.86 390.29 1061.56 392.63 1060.08 394.97 1062.65 393.12 1066.47 391.87 1070.38 390.19 1073.97 388.78 1076.91 386.46 1079.3 386.1 1080.04 385.31 1084.75 379.32 1098.3 369.38 1099.45 368.36 1100.85 365.45 1103.15 361.28 1105.49 357.95 1107.06 355.48 1109.26 352.64 1112.2 351.4 1115.13 350.16 1116.35 349.86 1115.98 309.66 1115.59 261.44 1115.21 219.92 1115.08 201.21 1114.4 128.01 1114.01 66.4 1113.76 31.32 1113.62 6.48 980.88 6.85 976.8 6.85 964.11 6.44"/><polygon class="cls-1" points="712.08 627.52 713.14 629.81 712.54 635.21 712.12 638.51 713.44 640.33 713.63 642.41 715.35 644.32 715.33 647.52 714.96 652.15 715.66 653.74 719.92 655.39 719.92 658.95 724.68 664.18 720.65 667.29 720.63 667.43 722.27 672.51 719.2 678.51 719.81 679.93 719.47 681.99 722.03 685.33 720.3 688.95 719.18 692.37 720.68 697.91 720.32 705.42 718.34 707.35 720.61 713.02 719.26 714.47 723.9 719.66 722.01 722.2 722.18 722.59 728.35 720.29 733.69 724.13 736.53 726.04 738.44 728.44 739.59 730.2 743.91 732.41 743.91 732.8 745.01 732.38 748.91 732.65 752.59 732.4 753.25 732.59 755.13 731.21 757.8 729.47 758.87 729.17 759.3 727.9 770.34 722.19 774.11 731.44 774.98 735.33 776.16 738.38 778.03 740.26 780.75 743.11 784.3 744.21 788.76 747.2 790.89 746.1 793.25 745.68 793.66 745.43 796.63 743.15 803.05 739.03 799.13 733.17 811 727.95 813.2 725.78 815.09 724.73 816.93 723.4 819.53 721.81 828.16 716.92 830.62 720.68 832.35 717.64 835.34 718.61 835.88 717.82 839.69 715.5 844.96 712.83 849.43 710.11 850.61 710.02 850.74 709.58 850.27 707.73 853.94 702.54 858.73 697.6 864.51 694.22 870.92 695.59 871.14 695.57 873.51 691.74 879.24 694.09 879.89 693.46 885.28 690.65 891.13 691.09 893.8 691.58 896.79 689.08 897.47 688.75 898.86 684.46 902.58 681.88 904.12 681.38 904.62 680.9 910.15 670.93 913.46 674.25 920.03 671.9 921.31 667.97 925.35 670 930.19 668.27 933.32 667.76 933.53 667.34 933.32 664.19 933.32 660.02 934.47 659.1 934.15 658.56 931.75 655.74 931.11 654.36 928.7 653.47 927.59 648.59 927 647.62 921.51 643.15 920.09 636.86 919.6 632.93 919.85 628.04 918.61 622.54 920.2 617.77 921.17 616.9 920.9 616.54 919.5 615.57 917.4 613.06 916.26 610.42 916.1 609.76 915.81 609.48 914.09 608.04 911.58 605.03 911.01 598.24 910.81 595.1 910.31 592.59 910.03 592.09 908.27 590.71 905.82 589.1 904.86 587.95 897.63 583.72 902.52 579.35 900.99 576.29 902.31 575.38 902.8 572.41 903.66 563.96 902.86 563.32 900.07 561.82 893.1 554.04 896.26 549.9 892.64 548.45 891.2 548.07 885.61 552 881.19 550.11 878.28 551.06 875.08 548.36 874.56 549.53 866.92 552 861.12 555.59 858.42 555.37 853.96 557.93 850.33 558.15 846.87 559.95 843.04 560.55 839.92 560.88 834.84 563.46 827.83 565.29 822.75 565.24 819.64 565.45 812.44 565.61 800.13 566.91 798.16 560.91 796.08 558.05 794.59 554.25 794.56 553.95 791.98 553.71 787.55 547.24 788.32 541.97 788.48 540.49 785.67 537.09 786.52 528.95 790.28 523.17 790.3 519.63 779.21 519.35 762.76 531.5 733.59 553.3 709.91 571.57 709.36 571.76 692.71 585.47 702.48 601.77 710.73 609.06 712.44 612.57 712.69 614.31 713.53 616.52 714.68 622.35 712.61 625.69 712.08 627.52"/><polygon class="cls-1" points="1055.17 2363.91 1054.15 2360.51 1052.63 2356.39 1051.19 2353.95 1050.57 2357.05 1046.28 2360.42 1043.9 2361.5 1043.92 2361.56 1044.16 2363.95 1048.1 2363.97 1053.65 2363.89 1055.17 2363.91"/><polygon class="cls-1" points="1533.4 2360.56 1559.01 2360.13 1646.16 2358.43 1716.03 2356.93 1733.55 2356.51 1891.18 2352.38 1887.41 2217.11 1886.04 2166.94 1885.06 2131.13 1884.38 2107.23 1882.63 2034.84 1881.52 2000.29 1881.35 1992.72 1880.07 1940.35 1878.32 1864.93 1877.05 1807.93 1868.09 1752.97 1866.15 1684.92 1865.33 1652.8 1524.59 1660.83 1525.14 1665.32 1525.48 1669.8 1523.78 1672.76 1522.95 1675.09 1522.79 1675.27 1522.94 1676.28 1522.94 1680.29 1520.58 1684.34 1522.7 1687.1 1524.21 1691.26 1526.15 1697.85 1521.66 1702.78 1520.56 1703.36 1521.36 1704.98 1518.97 1706.57 1519.5 1706.75 1521.12 1708 1522.12 1706.47 1523.47 1704.65 1525.2 1702.92 1530.17 1701.54 1532.78 1702.8 1534.58 1703.36 1537.71 1707.86 1537.71 1711.76 1536.87 1714.23 1533.82 1721.61 1534.79 1722.71 1535.31 1720.12 1539.96 1716.8 1545.88 1718.08 1548.73 1720.94 1550.43 1725.55 1547.77 1731.02 1546.05 1734.34 1544.07 1736.32 1542.09 1737.18 1546.69 1740.27 1548.32 1745.73 1547.56 1748.81 1546.81 1750.09 1547.52 1750.48 1551.97 1753.29 1556.08 1758.23 1556.07 1758.25 1558.19 1758.25 1563.23 1760.99 1564.95 1765.82 1564.88 1771.95 1564.78 1772.17 1567.25 1775.5 1571.21 1781.4 1568.1 1787.64 1570.02 1787.95 1571.06 1794.17 1574.91 1793.37 1570.5 1807.08 1568.44 1809.14 1563.23 1811.55 1561.5 1813.11 1559.05 1815.95 1556.21 1818.44 1556.56 1819.42 1556.56 1819.42 1558.87 1825.98 1555.85 1826.05 1555.19 1827.59 1554.65 1828.67 1550.98 1831.62 1547.08 1833.35 1545.37 1833.95 1544.8 1834.35 1544.51 1834.64 1543.29 1837.16 1541.27 1841.11 1535.45 1844.33 1532.31 1849.16 1528 1850.02 1524.34 1849.43 1521.11 1846.97 1520.14 1848.39 1514.42 1857.07 1513.28 1859.29 1513.4 1860.91 1513.97 1866.58 1510.63 1873.88 1504.98 1875.14 1503.2 1879.53 1502.03 1883.31 1501.84 1884.27 1502.34 1886.87 1502.62 1890.21 1502.11 1892.78 1499.97 1896.99 1495.72 1900.74 1490.5 1901.37 1486.88 1899.32 1485.59 1898.37 1483.8 1896.81 1481.99 1895.04 1480.61 1893.89 1478.63 1893.99 1477.16 1894.93 1477.07 1895.16 1476.28 1897.54 1475.34 1899.02 1473.79 1901.03 1469.81 1904.93 1469.57 1907.02 1468.07 1910.19 1466.48 1912.95 1462.65 1916.14 1454.53 1922.23 1453.61 1923.32 1454.08 1925.17 1455.69 1930.02 1456.87 1935.1 1454.61 1938.51 1454.73 1939.94 1453.95 1943.8 1452.06 1946.87 1448.11 1949.28 1443.57 1949.73 1440.04 1948.62 1438.58 1948.4 1436.16 1948.87 1429.72 1947.41 1428.19 1947.28 1427.75 1947.4 1427.2 1949.23 1427.11 1950.1 1428.33 1957.17 1424.01 1961.36 1419.26 1962.91 1415.61 1961.9 1412.67 1960.43 1411.7 1957.51 1410.57 1953.82 1410.05 1951.86 1408.16 1952.16 1403.44 1951.68 1393.15 1951.24 1384.3 1952.59 1380.43 1953.85 1380.53 1954.78 1381.41 1957.23 1381.76 1962.77 1379.1 1969.04 1371.92 1974.1 1371.03 1975.06 1370.68 1977.25 1369.87 1986.88 1366.96 1990.49 1362.22 1992.23 1357.52 1991.1 1356.33 1990.2 1354.1 1990.92 1354.07 1991.38 1354.48 1993.17 1355.12 1995.26 1356.36 1997.59 1359.39 1995.85 1362.85 1994.31 1367.28 1994.31 1372.47 1998.48 1371.77 2004.8 1369.43 2008.14 1365.02 2010.92 1364.59 2011.54 1364.21 2012.66 1364.02 2015.66 1364.02 2015.66 1364.02 2023.37 1356.15 2027.85 1355.86 2028.34 1355.86 2034.49 1350.95 2038.79 1350.49 2039.01 1351.53 2042.87 1351.06 2047.98 1347.68 2053.2 1346.78 2056.36 1346.46 2063.22 1339.44 2067.6 1335.9 2063.72 1335.82 2064.01 1334.52 2068.37 1330.98 2071.8 1325.94 2073.29 1321.62 2071.99 1321.55 2072.91 1320.86 2078.54 1316.75 2083.06 1309.5 2084.62 1306.7 2085.69 1306.53 2085.82 1306.61 2087.03 1306.93 2088.76 1307.87 2091.86 1308.21 2096.72 1306.14 2101.92 1302.71 2104.87 1298.39 2106.2 1295.61 2108.3 1292.76 2111.44 1291.46 2113.03 1289.63 2116.56 1286.82 2119.78 1285.6 2121.6 1283.77 2130.31 1286.09 2130.56 1291.22 2132.07 1293.48 2137.35 1292.75 2142.64 1289.13 2145.43 1280.22 2148.41 1275.41 2148.08 1265.56 2147.28 1263.47 2147.69 1261.79 2148.33 1261.69 2148.5 1261.79 2149.36 1260.91 2154.73 1257.37 2157.68 1257.64 2157.94 1258.36 2158.38 1258.51 2158.36 1262.56 2158.12 1266.41 2158.65 1270.72 2162.82 1270.65 2170.28 1269.62 2173.73 1266.94 2178.47 1263.22 2183.52 1257.75 2185.97 1257.83 2186.02 1261.23 2190.76 1262.44 2196.18 1259.06 2200.89 1257.36 2208.52 1254.81 2210.94 1250.5 2213.53 1248.65 2212.51 1246.88 2215.42 1243.17 2218.32 1240.95 2220.76 1236.64 2222.64 1227.58 2223.53 1218.57 2218.87 1220.05 2224.59 1218.55 2231.76 1214.85 2235.37 1210.21 2237.31 1206.65 2237.89 1207.11 2239.18 1211.28 2241.98 1211.9 2248.88 1208.56 2254.01 1202.84 2255.4 1203.69 2258 1203.91 2259.57 1205.32 2264.27 1200.35 2269.79 1198.56 2270.42 1199.01 2271.14 1200.52 2274.91 1198.83 2282.17 1196.19 2284.46 1198.62 2292.5 1187.03 2295.16 1186.5 2294.85 1186.69 2297.84 1184.46 2302.61 1177.62 2306.51 1177.41 2306.43 1178.62 2308.7 1174.77 2315.23 1168.78 2318.61 1163.87 2317.11 1162.7 2321.03 1158.42 2323.49 1153.29 2323.49 1151.11 2323.03 1147.22 2323.03 1142.71 2323.6 1141.84 2323.77 1136.78 2331.24 1130.41 2329.69 1127.48 2327.78 1126.02 2327.23 1124.74 2327.45 1121.11 2327.68 1119.99 2327.89 1116.2 2327.85 1112.15 2327.33 1109.63 2326.76 1104.88 2333.98 1096.6 2334.88 1093.59 2333.15 1090.57 2330.78 1088.65 2327.74 1088.46 2327.94 1086.87 2331.77 1083.27 2337.25 1080.08 2343.67 1077.58 2347.65 1072.66 2351.61 1072.34 2351.57 1072.34 2356.47 1069.85 2361.28 1066.45 2363.95 1095.63 2363.63 1097.53 2363.79 1097.93 2363.76 1101.69 2363.68 1132.64 2363.33 1197.24 2362.74 1248.11 2362.18 1257.92 2362.05 1301.93 2361.54 1353.81 2361.24 1356.39 2363.23 1358.63 2363.21 1409.45 2362.52 1533.4 2360.56"/><polygon class="cls-1" points="1190.68 1030.72 1190.17 1030.74 1181.89 1030.53 1162.79 1030.92 1133.16 1030.83 1110.08 1030.49 1110.08 1031.49 1099.69 1031.6 1092.97 1031.77 1074.22 1031.94 1067.48 1031.94 1058.9 1031.78 1058.9 1031.65 1053.47 1031.68 1047.9 1031.58 1047.9 1031.72 1030.78 1031.81 992.6 1032.57 991.49 1032.36 963.85 1032.92 930.41 1033.26 914.82 1033.26 914.82 1033.18 909.28 1033.26 903.82 1033.26 903.82 1033.35 879.18 1033.73 874.15 1033.73 873.57 1033.74 876.16 1031.19 875.61 1026.37 875.69 1026.21 875.72 1026.21 878.81 1024.53 881.67 1020.14 878.32 1010.39 875.15 1008.25 873.08 1005.93 871.84 1005.85 874.71 1001.13 869.57 997.33 868.66 995.84 864.49 992.64 863.38 992.66 863.49 991.61 861.51 990.22 862.54 987.65 860.24 981.51 849.35 972.76 848.27 972.93 847.46 970.07 837.79 968.41 835.12 977.03 834.03 980.04 834.13 980.37 833.02 980.32 830.95 983.81 830.27 984.55 826.86 985.83 825.16 988.62 819.1 988.07 816.96 991.52 815.05 992.57 814 992.48 806.44 995.74 805.02 1001.59 802.55 1004.27 801.22 1008.5 800.36 1009.14 798.67 1012.4 797.9 1013.4 795.97 1015.28 795.27 1016.67 793.05 1020.03 792.46 1021.8 790.99 1023.77 788.35 1028.86 788.35 1032.04 788.17 1033.07 787.87 1033.63 786.96 1034.83 786.89 1034.91 784.42 1032.43 779.91 1035.57 776.36 1035.57 773.53 1040.67 772.36 1043.75 767.97 1046.17 766.59 1047.75 762.66 1045.01 758.15 1049.71 754.93 1049.28 754.32 1049.23 755.14 1048.28 756.13 1045.32 755.77 1043.13 756.29 1042.68 758.76 1038.72 758.51 1035.68 760.64 1030.8 756.86 1024.15 756.33 1023.68 756.98 1020.18 754.4 1016.85 756.51 1015.8 759.48 1011 761.13 1007.52 767.63 1004.4 762.02 996.97 759.34 990.7 755.63 987.79 753.7 987.04 752.11 981.78 746.16 977.34 750.82 972.4 745.59 963.12 741.19 957.56 734.06 956.67 727.42 947.78 726.89 945.64 722.3 941.15 720.37 941.07 720.26 941.01 720.97 937.87 721.61 932.64 721.31 929.11 720.39 925.37 718.46 921.89 722.73 920.6 720.96 913.53 725.18 912.27 729.86 896.83 724.13 891.16 722.37 887.05 721.19 885.89 724.54 881.15 722.96 877.73 724.38 876.94 726.36 873.67 726.62 873.31 731.6 869.75 730.95 858.3 728.43 852.11 729.78 849.1 726.18 840.11 721.61 840.31 720.23 837.46 719.95 837.09 720.32 833.93 718.16 829.07 717.35 827.65 717.35 826.14 715.17 822.54 716.54 818.31 716.28 812.58 715.8 806.34 713.96 802.79 713.03 801.2 714.45 798.16 720.81 792.58 719.63 786.07 717.52 782.11 715.3 778.29 715.17 777.94 717.54 770.6 712.91 766.73 712.1 765.22 712.26 763.36 713.09 758.96 714.17 754.52 713.51 747.88 709.81 742.61 709.26 741.64 708.87 739.67 707.78 737.46 707.76 736.95 709.09 736.75 713.27 733.23 714.33 733.4 716.02 734.69 722.98 736.62 727.14 732.97 729.01 734.24 729.39 734.71 732.02 738.71 732.74 739.07 732.54 740.25 735.62 749.68 744.94 744.81 746.02 743.76 746.65 743.52 748.91 743.68 751.37 743.51 755.03 744.58 759.12 741.92 761.27 740.33 762.38 739.61 764.6 738.99 766.73 744.52 770.11 747.9 774.77 752.77 779.5 754.24 784.3 757.46 787.45 759.21 792.17 758.06 794.05 756.85 794.35 756.69 796.96 756.28 799.71 754.61 802.8 752.26 808.32 748.69 811.29 747.13 818.34 742.1 815.56 737.95 817.27 737.2 819.84 734.67 820.73 734.18 822.88 732.66 825.04 731.33 825.08 731.31 832.13 735.43 836.94 731.56 838.91 732.78 843.61 725.98 844.86 725.21 850.13 722.54 852.86 720.89 855.29 720.72 859.32 719.38 862.03 710.15 862.43 709.59 865.58 706.33 866.38 705.87 870.38 706.72 877.67 705.89 877.95 705.45 881.78 707.03 886.42 702.45 887.6 701.84 889.48 701.97 891.41 702.31 896.59 703.57 902.82 698.38 906.49 696.57 908.09 691.65 909.91 691.06 913.43 687.69 913.87 686.89 915.67 687.01 918.95 687.02 926.37 688 927.31 685.1 929.37 687.63 930.6 690.66 927.65 703.79 926.23 712.76 927.87 716.72 925.53 720.43 924.11 722.44 918.16 723.33 912.3 733.04 914.09 745.29 920.61 748.19 922.93 749.43 923.78 751.86 926.66 755.77 928.72 758 928.88 764.46 931.9 768.65 933.04 773.2 937.75 783.94 953.01 783.46 961.24 784.07 963.98 784.21 968.34 790.33 969.42 790.26 969.59 792.84 972.62 793.05 972.63 793.32 976.1 796.72 977.09 798.02 975.07 800.77 970.36 807.41 973.01 810.06 973.58 813.84 980.11 817.26 984.43 817.26 988.42 820.39 994.87 817.23 995.79 816.02 998.58 818.4 1002.97 814.09 1003.41 814.13 1006.41 816.87 1011.38 817.48 1014.74 818.25 1023 821.1 1022.5 822.41 1030.18 824.58 1032.85 828.82 1034.82 828.82 1035.59 830.04 1036.5 833.7 1037.87 834.21 1038.55 847.16 1041.43 851.17 1041.93 853.49 1043.84 855.55 1044.06 858.23 1050.6 864.94 1051.19 865.6 1051.94 869.9 1053.87 871.53 1053.54 873.37 1053.64 873.82 1051.92 874.54 1054.5 883.9 1056.45 886.94 1056.35 887.64 1055.35 891.51 1054.39 894.95 1052.08 897.4 1051.58 901.42 1047.43 907.97 1050.1 910.59 1049.95 910.79 1050.46 913.63 1046.39 922.48 1052.2 934.86 1058.73 938.17 1065.92 935.25 1066.1 936.27 1069.67 939.99 1071.54 944.17 1075.85 944.93 1075.74 945.16 1077.75 956.07 1083.98 958.26 1086.29 960.5 1088.82 960.23 1089.02 960.36 1092.86 965.32 1094.34 965.95 1089.62 969.93 1093.54 977.62 1099.35 980.49 1111.73 980.52 1112.33 1001.05 1131.08 1001.41 1141.63 1001.02 1158.06 1001.06 1159.78 1001.25 1167.11 1001.28 1183.96 1000.9 1190.06 1001.03 1190.03 1009.38 1190.68 1030.72"/><polygon class="cls-1" points="798.27 1269.46 776.82 1269.86 776.69 1275.54 776.61 1291.58 776.56 1309.99 776.73 1318.4 776.73 1330.44 776.56 1372.48 776.78 1380.92 776.71 1396.36 832.02 1396.87 833.85 1397.26 838.22 1399.03 839.24 1402.91 865.04 1402.97 872.74 1402.8 892.69 1402.85 906.61 1402.67 939.93 1402.8 951.78 1402.59 955.58 1402.63 1030.14 1402.87 1029.96 1398.04 1030.31 1284.27 1029.15 1234.27 1028.75 1196.79 1048.9 1196.19 1048.28 1143.8 1048.19 1088.33 1047.96 1042.72 1030.93 1042.81 991.67 1043.59 990.56 1043.38 964.03 1043.92 948.38 1044.09 930.46 1044.26 922.03 1044.26 921.96 1047.19 923.14 1047.22 936.18 1046.85 935.65 1078.94 914.37 1078.89 914.35 1079.82 914.36 1085.76 907.59 1085.81 907.63 1089.47 900.74 1089.47 900.83 1093.01 897.38 1093.01 897.3 1099.9 886.9 1100.03 887.63 1155.22 889.15 1211.3 876.05 1211.69 875.98 1235.39 875.75 1247.49 811.6 1248.6 811.68 1255.03 798.32 1254.98 798.27 1269.46"/><polygon class="cls-1" points="607.95 1589.63 604.45 1589.63 604.21 1595.74 601.05 1595.94 600.74 1618 594.81 1617.74 594.5 1632.14 590.78 1631.57 591.23 1632.74 589.21 1636.63 590.41 1639.78 589.84 1643.17 590.37 1646.7 589.15 1649.45 668.54 1649.53 724.99 1649.96 732.93 1649.74 757.89 1649.85 758.11 1654.91 763.41 1655.04 791.83 1655.12 825.48 1654.78 832.14 1654.82 860.83 1654.63 864.01 1651.06 903.49 1651.15 938.72 1651.07 957.08 1650.89 999.78 1650.6 1029.29 1650.49 1028.22 1573.28 1031.62 1573.36 1031.42 1420.72 1030.58 1420.72 1030.45 1413.87 955.49 1413.63 951.82 1413.59 939.95 1413.8 906.66 1413.67 892.74 1413.85 872.8 1413.8 865.1 1413.97 825.82 1413.87 825.88 1407.82 776.69 1407.36 776.6 1417.57 774.74 1417.8 774.22 1432.17 762.67 1431.69 762.67 1431.69 757.98 1431.69 757.94 1447.96 732.22 1449.15 732.39 1459.56 725.97 1459.51 725.5 1473.05 719.3 1473.25 719.26 1485.91 711.76 1486.13 711.07 1492.8 698.54 1493.17 698.75 1506.22 696.53 1506.22 696.4 1511.9 696.52 1529.56 700.3 1529.12 700.23 1557.97 691.57 1558.29 683.7 1568.38 677.22 1568.05 677.07 1568.12 676.71 1577.94 673.65 1577.54 673.65 1578.3 666.6 1578.54 666.1 1581.97 638.92 1581.57 638.54 1578.13 626.7 1579 614.98 1579.27 614.72 1582.25 607.95 1582.41 607.95 1589.63"/><polygon class="cls-1" points="1204.93 481.14 1117.43 481.87 1116.41 361.56 1116.19 361.65 1115.93 362 1114.58 364.15 1112.33 367.35 1110.59 370.57 1108.41 375.13 1105.01 378.1 1092.47 387.3 1088.21 392.68 1084.69 396.41 1081.44 396.9 1079.51 398.42 1074.48 400.39 1070.14 402.24 1067.69 403.04 1064.13 405.6 1063.27 408.25 1059.07 411.54 1054.23 413.27 1050.99 412.41 1043.7 412.76 1037.74 412.76 1036.22 413.11 1029.09 416.82 1022.04 415.7 1021.08 416.75 1017.37 420.36 1012.41 419.62 1012.05 419.64 1010.74 423.91 1010.51 424.34 1012.51 429.82 1009.62 434.96 1005.83 438.99 1001 441.36 997.2 443.29 994.5 445.89 986.96 444.05 984.92 442.51 981.03 442.51 978.21 445.08 975.13 446.48 972.43 449.37 967.98 450.61 965.18 451.51 962.2 450.67 959.75 451.5 956.22 453.23 952.17 455.37 949.87 457.61 947.09 461.84 946.43 463.97 945.85 471.18 937.73 479.35 932.99 481.96 932.81 482.2 934.03 485.1 934.59 489.65 940.73 489.65 943.02 491.62 945.89 491.62 946.69 491.49 951 490.64 955.14 493.4 956.56 498.06 957.35 502.26 956.83 507.3 956.83 509.25 961.75 512.7 962 518.66 963.37 522.47 965.99 524.61 967.47 530.39 970.89 534.73 971.23 543.7 968.54 548.34 965.66 552.78 965.66 559.33 960.69 562.96 960.38 563.43 961.84 566.02 960.64 570.91 959.43 576.15 956.2 579.62 953.6 582.94 939.45 586.11 925.83 579.13 923.55 573.77 921.32 571.56 920.46 571.06 914.84 575.11 916.91 578.63 915.1 579.89 916.13 581.95 915.56 582.46 916 582.81 919.12 585.18 920 587.29 920.54 588.1 921.27 591.11 921.77 594.1 921.98 597.48 922.25 600.52 923.42 601.52 926.03 604.14 926.72 606.89 926.87 607.24 926.98 607.37 928.65 608.53 931.04 611.75 933.1 614.7 933.1 621.03 930.13 623.66 930.9 627.09 930.64 632.53 930.97 635.23 931.38 637 935.44 640.3 937.93 644.44 938.1 645.2 939.19 645.6 941.11 649.76 943.15 652.15 943.62 652.95 944.53 653.25 945.4 652.91 950.98 655.09 952.08 656.5 959.57 657.69 958.37 655.07 962.84 651.15 964.31 647.21 965.84 642.32 969.67 639.29 970.01 638.71 974.41 635.67 978.84 633.07 979.44 621.09 988.15 621.25 990.51 621.54 992.53 619.22 995.18 617.28 1004.17 617.5 1004.17 623.57 1004.59 626.89 1004.91 634.09 1010.19 642.63 1010.73 645.87 1013.45 646.07 1017.14 648.03 1024.94 649.87 1038.58 659.67 1043.91 663.04 1050.93 667.65 1053.91 669.14 1062.46 670.85 1067.54 672.95 1069.44 674.15 1074.75 676.74 1077.67 678.7 1082.68 680.33 1084.83 682.28 1084.97 682.31 1085.45 679.75 1087.74 672.93 1090.47 669.98 1092.84 664.21 1099.51 663.12 1100.75 662.77 1105.63 661.51 1109.14 662.58 1114.66 661.15 1119.15 665.24 1121.04 666.8 1122.64 667.46 1125.48 668.32 1128.52 668.74 1131.7 665.07 1136.37 663.13 1140.81 662.06 1146.68 663.64 1146.91 663.61 1147.08 662.87 1148.53 661.42 1148.6 660.57 1148.85 653.58 1153.07 646.06 1153.98 643.58 1155.42 639.32 1155.9 637.9 1156.42 629.35 1159.21 625.37 1165.7 623.03 1172.12 622.58 1172.89 622.39 1172.07 620.61 1170.65 611 1174.53 607.28 1172.81 599.16 1182.78 597.73 1185.23 597.14 1190.8 599.73 1192.24 600.21 1194.89 598.55 1200.06 601.3 1202.89 603.39 1204.94 604.78 1207.53 602.7 1213.93 597.86 1215.51 596.89 1216.58 596.15 1218.54 594.96 1223.96 591.97 1225.21 591.52 1225.81 590.73 1230.37 588.98 1232.32 589.73 1233.03 589.44 1234.79 588.85 1237.2 588.51 1239.28 588.49 1241.36 587.04 1245.31 585.95 1249.43 587.16 1250.99 587.91 1253.35 588.86 1255.6 590.77 1256.48 591.24 1257.04 591.33 1258.13 590.67 1262.06 589.58 1263.29 590 1266.39 585.21 1270.51 580.25 1273.52 577.84 1276.52 577.84 1279.46 578.26 1283.41 580.57 1285.45 581.97 1289.53 581.02 1293.08 581.4 1297.16 582.02 1297.73 581.57 1299.03 580.42 1300.4 577.72 1306.65 574.14 1311.66 575.97 1314.06 577.91 1315.18 579.47 1316.08 579.05 1318.26 578.56 1319.68 577.39 1325.46 571.82 1330.39 573.46 1331.59 574.13 1332.27 573.62 1336.18 568.94 1342.17 570.88 1343.48 569.74 1344.87 568.09 1349.66 565.81 1353.1 568.1 1353.44 568.24 1355.35 568.47 1355.86 568.72 1356.73 568.21 1360.34 567.97 1363.59 567.41 1365.07 567.05 1364.87 565.84 1368 563.5 1368 563.5 1368 561.02 1369.47 556.13 1376.17 548.4 1382.05 552.16 1383.06 552.23 1387.19 551.18 1392.89 549.58 1398.51 547.21 1401.31 546.3 1405.39 545.12 1408.36 544.71 1411.53 545.48 1413.79 546.41 1415.98 546.64 1418.34 547.8 1420.49 548.2 1421.37 548.11 1424.51 547.34 1429.98 549.66 1432.27 549.47 1438.55 551.36 1442.56 554.26 1449.05 553.67 1454.63 553.93 1457.87 554.35 1460.72 554.61 1461.35 554.79 1462.67 554.79 1464.97 556.37 1469.03 554.58 1476.54 554.58 1478.05 555.08 1478.44 555.12 1479.55 554.34 1481.62 552.31 1485.4 549.95 1489.72 552.07 1493.94 552.99 1493.84 522.49 1493.45 497.63 1492.98 476.35 1420.28 478.5 1399.21 479.31 1322.89 480.12 1321.08 480.12 1315.88 480.2 1267.93 480.63 1204.93 481.14"/><polygon class="cls-1" points="36.68 978.61 48.32 978.84 68.77 979.14 89.26 979.91 97.92 979.95 109.84 980.21 117.26 980.46 124.32 980.54 126.01 980.72 130.77 980.76 158.2 981.32 165.41 981.57 173.65 981.61 185.78 981.87 199.83 982.34 211.78 982.64 223.04 982.68 229.99 982.94 261.01 983.49 264.93 983.49 281.45 984.01 308.85 984.56 315.51 984.82 332.54 984.9 336.48 984.9 350.42 985.16 363.75 985.66 369.5 985.45 374.65 985.71 376.57 985.71 390.15 985.97 397.25 986.01 403.93 986.27 410.82 986.27 417.73 986.52 431.83 986.57 438.53 986.82 451.93 986.87 458.83 987.13 463.13 987.38 472.43 987.59 479.71 987.64 486.63 987.89 504.83 987.98 513.79 988.19 541.29 988.32 545.47 988.53 555 988.36 561.76 988.4 568.91 988.62 582.64 988.7 596.41 988.96 610.11 988.79 637.95 988.87 644.99 989.12 647.84 989.05 649.59 987.36 650.08 985.85 650.19 984.52 648.68 974.38 657.14 962.46 662.38 969.4 665.84 969.4 668.16 973.17 670.47 972.05 676.6 972.05 679.26 971.89 682.14 967.59 686.39 966.56 686.93 966.32 686.23 962.74 690.52 957.67 692.85 952.56 696.03 945.4 701.68 943.69 709.11 940.45 710.18 935.74 710.56 932.48 710.42 930.89 710.06 929.42 707.21 924.28 708.15 913.52 709.83 913.01 709.73 911.98 710.88 905.04 716.37 903.41 717.41 899.99 714.86 897.46 713.12 893.38 710.06 890.35 709.52 884.37 711.55 880.47 711.89 879.99 708.69 873.08 716.49 868.74 717.25 867.51 718.69 865.46 720.28 864.32 720.11 861.35 712.25 861.35 716.63 851.55 716.07 851.58 712.29 846.39 710.83 843.25 708.88 840.64 709.03 835.6 708.25 833.85 706.36 830.7 706.36 829.22 703.44 824.37 704.24 820.6 705.46 816.81 705.3 813.16 705.01 809.41 704.27 807.98 700.77 802.08 703.26 796.07 705.5 791.38 708.57 788.69 707.86 787.37 705.25 782.9 703.58 778.05 704.8 774.28 704.22 773.8 701.11 767.97 701.14 763.85 701.42 761.52 702.37 756.5 703.05 753.74 702.86 751.84 700.37 748.26 698.82 745.53 698.37 743.24 696.89 740.24 696.6 733.34 698.11 727.31 704.38 726.35 709.82 721.77 709.83 721.77 709.39 720.75 709.72 720.3 704.37 714.31 707.8 710.63 705.38 704.61 709.54 700.56 709.61 699.11 707.69 692.1 709.39 686.92 707.83 684.89 708.43 681.32 706.82 677.62 709.78 672.81 710.41 671.58 709.4 668.46 709.94 664.32 708.92 663.2 708.92 662.92 707.45 662.35 704.77 656.37 704.43 655.75 703.83 653.34 704.23 648.4 703 647.04 702.76 644.34 700.66 641.46 701.87 631.64 700.37 628.38 702.48 621.16 703.05 620.23 702.92 619.57 701.97 617.08 701.8 615.85 693.92 608.88 680.77 586.94 632.32 501.14 617.16 475.13 603.65 451.39 600.38 445.41 587.64 449.59 587.82 449.35 494.99 478.83 483.48 479.48 472.98 479.86 465.86 479.86 452.81 479.56 431.71 479.48 424.77 479.26 419.23 479.22 389.55 478.24 382.84 478.2 369.02 477.94 201.45 472.65 180.96 472.13 173.96 471.88 138.91 471.5 131.89 471.67 98.43 471.07 91.69 471.24 76.04 470.98 62.14 470.9 55.31 470.64 52.72 470.71 52.51 482.05 52.38 485.33 51.87 501.98 50.16 561.75 50.07 563.01 49.78 570.71 49.22 583.41 48.41 604.89 47.05 639.9 46.96 642.83 46.58 653.46 45.68 676.61 43.46 736.02 39.96 836.71 39.37 859.33 37.44 947.62 36.68 978.61"/><polygon class="cls-1" points="1849.85 1019.72 1847.8 944.92 1845.7 873.53 1844.64 830.46 1843.96 812.52 1841.61 723.23 1841.14 710.1 1841.05 702.28 1840.54 684.11 1839.77 654.9 1839.05 631.77 1837.8 631.87 1824.38 632.08 1813.52 632 1812.01 618.04 1800.26 618.51 1799.44 607.25 1798.8 593.67 1798.58 586.83 1797.53 572.22 1797.28 570.1 1783.38 570.1 1782.02 545.29 1781.91 536.5 1739.71 537.79 1723.98 537.91 1725.38 570.24 1716.29 572.55 1713.36 573.64 1710.75 575.9 1707.64 582.07 1697.92 587.31 1694.85 590.09 1689.36 594.43 1677.81 592.17 1671.74 586.97 1670.86 577.79 1670.63 571.78 1671.24 566.74 1671.63 564.92 1670.95 561.72 1670.47 558.01 1669.95 557.21 1668.55 554.9 1668.03 554.52 1667.15 554.07 1659.65 557.72 1652.24 560.66 1646.54 561.92 1638.23 562.36 1635.75 562.72 1629.35 568.4 1618.42 572.04 1610.74 568.14 1602.06 569.52 1597.63 568.5 1592.53 567.96 1591.59 568.94 1585.58 579.57 1576.09 578.73 1572.85 579.96 1568.69 580.68 1566.73 581.08 1565.38 585.48 1554.67 587.38 1545.67 588.67 1541.93 584.11 1537.86 584.65 1535.52 580.05 1529.8 579.74 1525.08 574.18 1520.43 573.96 1515.1 571.04 1516.66 616.88 1516.79 655.59 1517.39 684.74 1518.15 718.49 1518.75 749.35 1518.75 756.13 1518.96 762.92 1519.35 779.96 1519.91 821.29 1519.91 828.17 1520.08 835.19 1520.46 857.16 1520.67 864.77 1520.63 876.82 1520.85 892.23 1521.65 920.27 1522.42 954.29 1522.64 960.68 1523.41 995.57 1523.62 1003.49 1524.48 1031.66 1528.25 1031.68 1535.05 1031.47 1556.36 1031.24 1556.36 1038.56 1562.98 1046.04 1555.01 1054.01 1548.14 1049.91 1547.32 1049.25 1544.14 1049.43 1544.41 1051.07 1542.61 1057.14 1542.13 1059.86 1542.45 1064.87 1538.28 1069.68 1533.59 1069.81 1533.71 1070.98 1535.4 1072.46 1536.27 1079.45 1531.04 1083.28 1526.92 1084.31 1526.79 1090.79 1518.61 1090.17 1518.51 1090.18 1520.46 1091.2 1523.22 1097.74 1522.04 1102.44 1521.73 1107.41 1519.5 1111.04 1518.91 1113.49 1515.84 1116.47 1517.26 1117.65 1519.25 1125.62 1512.45 1128.57 1512.24 1129.85 1509.48 1132.53 1507.28 1134.84 1510.44 1135.87 1510.31 1145.65 1505.98 1148.82 1503.66 1150 1503.69 1150.23 1506.68 1154.06 1507.35 1161.52 1505.72 1166.55 1508.32 1167.02 1508.73 1174.98 1509.39 1178.28 1509.52 1179.81 1509.89 1180.58 1511.91 1184.51 1512.4 1190.99 1509.61 1193.72 1509.46 1194.19 1834.87 1186.04 1834.54 1184.15 1838.42 1183.09 1838.27 1181.08 1844.91 1172.09 1847.32 1172.12 1850.44 1163.49 1853.94 1166.75 1851.09 1064.95 1849.85 1019.72"/><polygon class="cls-1" points="946.13 666.75 944.74 664.97 944.62 665.01 944.4 665.16 944.53 667.18 944.53 670.01 940.74 677.35 936.06 678.42 938.96 681.98 942.09 689.72 938.42 706.03 937.58 711.41 940.21 717.78 934.61 726.65 930.39 732.63 924.91 733.45 923.76 735.35 924.1 737.7 925.62 738.39 931.91 741.75 933.62 746.67 935.32 748.97 939.61 753.5 939.79 760.79 942.06 763.94 943.49 769.63 944.84 772.72 953.23 772.44 962 773.1 969.84 773.48 973.76 778.98 979.68 778.62 979.94 782.53 983.05 782.74 983.38 788.45 984.35 789.4 988.93 795.36 987.51 802.42 985.93 804.58 988.94 806.86 990.84 804.37 997.7 803.85 998.89 802.68 1008.1 803.5 1011.24 806.38 1013.55 806.69 1018.05 807.75 1021.89 809.08 1022.84 807.95 1033 806.78 1035.47 813.39 1035.94 814.78 1037.24 815.15 1038.93 817.83 1040.88 817.83 1045.65 825.37 1047.94 826.23 1053.61 837.46 1049.2 840.09 1049.37 843.37 1051.69 846.61 1052.05 848.22 1054.49 850.86 1054.7 853.39 1058.74 857.53 1061.48 860.62 1062.09 864.08 1065.81 867.24 1064.77 873.08 1066.45 880.4 1065.56 880.77 1067.92 884.44 1067.08 890.11 1065.97 894.38 1064.26 900.51 1062.56 902.32 1062.2 905.22 1061.48 906.36 1064.54 909.37 1061.61 913.44 1061.95 915.38 1060.05 919.05 1058.51 922.41 1060.08 925.75 1061.22 925.29 1070.93 916.21 1075.91 928.48 1076.37 931.07 1078.94 933.75 1079.21 934.36 1082.75 934.98 1089.73 941.44 1087.21 946.69 1087.42 947.81 1089.91 948.69 1090.24 949.01 1091.63 948.86 1096.64 952.23 1099.8 956.31 1103.34 957.81 1106.31 963.56 1105.87 968.48 1105.4 969.5 1122.42 969.55 1123.02 990.25 1130.99 990.4 1141.55 990.02 1158.94 990.1 1160.66 990.28 1167.05 990.28 1178.48 990.02 1178.51 978.73 1177.32 937.88 1176.99 913.04 1176.13 911.16 1175.48 896.57 1174.41 749.89 1171.49 749.67 1171.6 724.44 1171.39 717.24 1170.83 681.8 1170.98 633.69 1168 633.89 1167.15 634.2 1166.79 640.03 1164.33 647.3 1163.05 650.82 1161.93 652.68 1159.75 656.61 1159.57 661.38 1159.14 666.36 1157.09 668.41 1155.98 673.23 1146.13 674.89 1140.65 673.41 1139.8 673.62 1138.32 674.23 1131.31 682.31 1125.7 679.46 1123.11 679.1 1118.71 677.73 1115.34 676.35 1111.65 673.29 1108.89 674 1105.39 672.93 1101.57 673.93 1100.68 674.08 1099.89 675.99 1097.42 678.67 1096.12 682.53 1095.06 688.16 1089.53 694.46 1079.67 692.46 1077.03 690.06 1072.82 688.69 1069.25 686.3 1063.81 683.6 1062.46 682.75 1059.26 681.43 1050.31 679.64 1045.17 677.02 1037.95 672.29 1032.3 668.7 1020.29 660.07 1013.23 658.41 1010.35 656.87 1008.11 656.72 1000.72 655.18 1000.13 649.16 999.7 646.57 994.05 637.44 993.85 633.03 989.88 632.54 989.61 637.86 987.49 640.74 980.16 645.05 978.23 646.39 978.07 646.66 975.32 648.84 974.67 650.92 972.18 657.59 971.77 657.95 973.17 661.01 965.91 674.64 958.52 668.71 956.87 668.36 946.13 666.75"/><polygon class="cls-1" points="17.87 2355.1 54.21 2355.86 59.28 2355.87 86.62 2356.55 94.06 2356.68 101.18 2356.85 122.72 2357.15 128.68 2357.44 155.35 2357.7 198.12 2358.55 203.97 2358.64 210.81 2358.81 266.58 2359.75 281.27 2359.96 287.02 2359.96 288.58 2360.05 310.09 2360.26 357.47 2360.99 364 2361.03 379.17 2361.29 409.3 2361.58 425.04 2361.79 425.3 2354.52 425.08 2352.81 425.35 2345.59 425.35 2345.59 425.35 2339.5 425.57 2337.94 425.82 2328.24 425.92 2306.04 426.11 2302.99 425.9 2300.1 425.95 2296.03 426.2 2285.76 425.99 2275.99 426.67 2266.41 426.5 2262.89 426.77 2240.38 425.88 2240.38 425.95 2226.91 426.25 2200.03 426.25 2196.21 426.29 2192.41 426.76 2178.95 426.78 2171.54 427.23 2165.72 427.27 2158.69 427.49 2151.68 427.55 2136.99 386.86 2136.32 386.82 2148.78 365.92 2148.44 334.9 2147.76 334.9 2145.18 320.32 2144.81 314.63 2144.76 292.85 2144.13 293.32 2132.24 293.32 2124.26 293.43 2120.43 292.3 2120.43 285.68 2120.18 278.31 2120.35 278.21 2120.35 211.65 2119.37 212.03 2077.6 188.92 2076.81 180.13 2076.65 179.87 2082.99 167.61 2082.53 126.1 2081.29 118.54 2081.24 112.51 2080.99 111.19 2080.99 98.27 2080.72 91.16 2080.26 70.23 2079.75 56.81 2079.66 49.59 2079.41 5.94 2078.09 5.73 2090.27 4.66 2138.72 0 2354.81 11.21 2354.93 17.87 2355.1"/><polygon class="cls-1" points="1519.96 1725.33 1516.89 1725.33 1512.9 1723.73 1510.46 1718.87 1511.79 1716.44 1511.45 1716.33 1509.27 1715.81 1508.16 1714.7 1506.69 1713.97 1505.28 1710.53 1503.95 1708.77 1503.95 1703.68 1508.78 1700.23 1508.78 1698.68 1512.1 1695.37 1513.7 1694.53 1512.95 1692.46 1510.29 1688.93 1508.82 1686.41 1504.73 1686.98 1502.99 1685.27 1500.88 1684.26 1500.14 1682.07 1499.73 1681.46 1499 1679.28 1499 1675.64 1500.43 1672.65 1501.94 1671.25 1503.55 1669.64 1504.44 1669.64 1505.19 1668.88 1510.76 1669.66 1512.31 1670.75 1513.21 1669.64 1513.75 1668.12 1514.26 1667.24 1514.11 1665.68 1511.93 1663.94 1509.45 1661.16 1029.37 1666.48 1029.37 1661.49 999.84 1661.6 957.17 1661.89 938.79 1662.07 903.49 1662.15 868.93 1662.07 867.24 1663.96 865.19 1666.05 847.49 1683.34 845.54 1690.74 842.82 1693.45 842.58 1700.58 837.94 1700.46 838.12 1702.81 838.25 1729.38 838.46 1736.18 840.04 1789.85 839.93 1820.12 842.55 1820.19 853.69 1820.02 863.05 1820.07 870.64 1820.28 876.03 1820.11 910.39 1820.19 925.31 1820.02 925.39 1820.02 938.97 1820.28 948.69 1820.32 959.78 1820.15 977.96 1820.19 988.23 1820.42 988.27 1818.72 1003.94 1818.78 1048.82 1819.12 1062.29 1819.12 1062.29 1819.12 1069.41 1818.95 1079.08 1819.21 1111.8 1819.31 1114.74 1819.5 1118.08 1819.29 1126.98 1819.34 1144.37 1819.16 1145.95 1819.36 1148.88 1819.17 1195.18 1819.29 1201 1819.08 1208 1819.08 1250.21 1819.21 1270.52 1818.83 1284.67 1818.44 1291.45 1818.44 1311.77 1818.27 1326.08 1817.89 1333.05 1817.67 1353.32 1817.71 1360.22 1817.54 1366.45 1817.54 1373.28 1817.33 1394.11 1817.16 1401.52 1817.2 1415.09 1816.78 1428.02 1816.61 1435.1 1816.61 1449.69 1816.65 1463.36 1816.26 1486.7 1816.31 1498.96 1815.88 1504.55 1815.92 1525.29 1815.75 1545.04 1815.29 1545.67 1813.07 1551.21 1808.19 1553.88 1805.17 1554.87 1804.28 1554.52 1803.51 1553.06 1801.32 1554.66 1796.24 1554.9 1795.96 1553.55 1795.44 1550.42 1793 1548.66 1790.8 1547.54 1787.99 1547.54 1785.11 1548.18 1781.87 1550.02 1780.03 1548.27 1777 1549.02 1774.03 1543 1772.68 1541.03 1765.98 1541.99 1762.05 1542.75 1760.48 1541.82 1759.89 1536.48 1757.05 1535.25 1751.52 1536.25 1746.51 1532.84 1744.22 1530.8 1741.86 1529.48 1739.22 1529.48 1735.06 1529.99 1733.63 1527.82 1731.44 1521.55 1724.36 1519.96 1725.33"/><polygon class="cls-1" points="638.79 421.39 698.93 401.82 711.19 397.96 757.68 398.09 772.48 398.6 786.38 398.65 792.37 398.91 798.69 402.07 802.33 406.08 806.51 407.46 811.92 407.1 816.3 406.94 820.05 406.5 826.45 406.28 826.26 405.39 826.79 404.41 823.81 401.91 818.5 397.12 822.09 390.09 818.16 383.69 826.06 380.95 829.28 376.48 836.91 376.27 841.11 374.23 844.47 373.84 846.47 370.16 851.3 368.46 863.51 366.19 866.37 369.02 870.89 368.42 876.81 371.31 877.33 375.48 886.18 382.64 888.04 383.96 891.2 383.65 894.48 384.3 898.4 382.34 904.69 380 907.54 377.04 914.65 373.44 915.13 372.3 915.83 367.87 917.19 362.68 926.01 355.72 933.03 356.9 935.38 356.71 941.96 357.17 946.43 356.55 952.89 360.5 953.73 360.41 955.97 360.63 956.55 360.58 957.32 357.95 964.08 352.82 965.6 351.22 966.96 348.35 971.49 341.89 973.41 341.16 973.03 339.97 975.5 334.97 975.34 334.35 974.22 331.89 972.11 325.85 975.14 320.59 975.36 320.03 975.9 313.03 980.45 308.93 980.06 304.97 979.9 304.92 977.76 305.15 974.21 303.56 971.48 302.59 967.77 300.32 962.69 296 962.69 296 962.69 289.37 962.53 289.28 960.36 288.1 956.69 286.6 954.28 283.53 950.48 284.74 949.91 285.1 945.29 293.44 936.4 282.33 936.04 281.08 934.06 280.17 930.89 284.29 922.84 282.07 918.8 281.7 917.7 282.65 913.36 284.02 910.78 290.87 901.36 287.56 897.3 279.82 895.05 282.37 891.21 283.65 891.28 285.94 884.06 294.85 885.29 302.82 876.85 303.31 870.91 306.41 865.5 307.37 857.22 301.81 853.72 298.62 852.93 296.95 847.02 298.7 844.76 297.18 839.09 298.2 834.14 295.36 830.1 294.06 827.4 292.64 824.67 292.11 819.46 285.55 819.56 283.57 818.54 282.55 816.14 283.23 814.86 283.9 811.74 287.22 802.5 284.05 801.02 283.76 798.24 281 797.99 287.61 798.08 291.24 795.68 294.4 795.58 295.62 797.75 298.32 803.18 306.22 794.18 308.47 791.7 310.57 787.58 312.43 786.43 314.57 783.83 315.33 782.83 317.46 776.12 318.92 773.71 321.81 698.39 321.34 694.59 326.89 673.32 354.76 639.39 400.96 628.64 414.7 618.37 427.93 631.84 423.51 638.79 421.39"/></svg>