<svg id="Layer_1" data-name="Layer 1" xmlns="http://www.w3.org/2000/svg" viewBox="0 0 1368.66 1435.89"><defs><style>.cls-1{fill:#fff;}</style></defs><path class="cls-1" d="M1071.69,780.16c-38.46-4.75-63-26.3-77.11-61.29-1.07-2.63-2.38-5.16-3.39-7.81q-27.51-72.46-55-145Q829.79,283.08,723.48,0h-12a42.06,42.06,0,0,1-4.67,1.58c-16.09,3.43-32.16,7-48.31,10.13-6.23,1.22-9.43,4.59-11.76,10.48q-69.25,175.07-138.86,350c-1,2.45-1.73,5-2.93,8.52,22.82-6.46,44.21-13.61,67.07-8.74L636,190.71l2.12.2L729,442.82c-3.31-1-5.29-2.95-7.52-4.53-15.26-10.81-30.27-22-46-32.14-8-5.14-17.88-7.57-27-3.57-9.89,4.35-17.09,2.15-24.82-4.44-6.51-5.56-13.91-10.11-23.23-4.41-1.89,1.16-5.76.57-8-.58-21-10.82-42.72-9.64-64.8-4.36-14.62,3.49-29.17,7.74-44,9.78-31.55,4.32-61.34.08-86.05-22.55-3.2-2.93-6.35-5.92-10.15-9.46,0,2.06-.22,3,0,3.7,17,50.88,42.31,96.9,81.27,134.28,27.87,26.74,55.49,53.95,88.56,74.63,55,34.35,113.7,49.74,178.2,35.3,11.38-2.55,22.32-7,34.79-11.05-6.83-10.56-11.79-19.58-18.06-27.57-8-10.27-16.47-20.41-25.91-29.37-40-37.89-88.54-60-140.71-75.1-15-4.34-30.34-7.64-45.52-11.41a5.4,5.4,0,0,1,3.39-.75c56.37,2,108.57,17.51,155.85,48.51,34,22.32,63.14,49.78,81.13,86.84,9.38,19.33,16.45,39.85,23.77,60.12,9.55,26.43,19.25,52.86,27.1,79.81,6,20.73-.74,30.62-21.39,37.18a51.73,51.73,0,0,1-7.42,1.89c-17.38,2.84-34.8,5.48-52.15,8.47-2.35.41-6.25,2.3-6.34,3.69-.56,9.5-.29,19-.29,28.56h343.37V798.8C1087.15,783,1087.26,782.08,1071.69,780.16Z"/><path class="cls-1" d="M547.62,814.27v-16.4c0-15.16,0-15-14.69-17.67-20.67-3.81-41.44-7.25-61.86-12.11-16.85-4-23.12-14.58-19.48-31.17,3.28-15,6.85-29.95,11.77-44.42,13.59-40,28-79.76,41.88-119.7.95-2.73,1.33-7.49-.24-9-16.92-16.29-34.29-32.12-52-48.51-.86,1.89-1.71,3.58-2.4,5.32C432.88,565.2,415.76,610,397.28,654.3c-12,28.76-25,57.2-39.35,84.84-10.84,20.87-29.19,33.67-52.81,38.12a154.59,154.59,0,0,0-19,4.79c-1.85.59-4.27,3.11-4.36,4.85-.44,9-.2,18-.2,27.37Z"/><path class="cls-1" d="M416.54,1000.83c-9.23,2-17.92,6.48-27.1,9.9a11.69,11.69,0,0,1-1.08-2.85c-1-8.06-5-10.37-12.82-7.93-10.56,3.29-21.31,6-32.05,8.67-5.91,1.47-6.57,4.33-3.35,9.2a16.11,16.11,0,0,0,3.42-.26c13.33-4,14.91,2.35,16.15,12.54a49.34,49.34,0,0,1,.25,6q.17,64,.28,128c0,13.08-.2,26.16-.26,39.24,0,7.45-2.21,11.84-10.71,14.31-30.34,8.78-53.64,26.81-66.93,56.21-9.41,20.8-11,42.91-9,65.19,3.45,38.43,20.64,68.38,56.89,84.61,12.23,5.47,25.66,8.26,38.54,12.28H418.3c12.07-3,24.17-5.79,36.16-9,2.85-.77,6.81-2.32,7.73-4.55,7.15-17.33,12-35.26,12.56-54.2l-8.62-2c-2.45,6.16-4.65,12-7,17.66-7,16.89-17.32,30.89-35.5,36.81-37,12-82.92,3.54-104.11-43.49-12.63-28.06-15.43-57.5-9.1-87.56,9.19-43.67,39.69-68,84.25-67.89,34.86.09,53.15,14.18,61.86,47.64.42,1.6,1,3.15,1.47,4.43,7.48,1.14,9.78-2.11,9-8.66-1.32-11-2.87-22-3.5-33-.42-7.32-4.28-11.12-10.61-12.27-18.36-3.34-36.77-6.42-55.25-9-4.36-.62-8-.6-8-6-.06-16.39,0-32.79,0-49.62,3.6.66,6.65,1.32,9.72,1.77,44.77,6.58,94.59-15.07,103.78-68.93C512.7,1031.34,471.37,989,416.54,1000.83Zm47.95,121.43c-14.34,30.8-55.41,28-72.71,13.67-1.89-1.56-2.62-5.38-2.66-8.17-.24-16.47-.12-33-.12-49.43s.21-33-.13-49.44c-.1-5.08,1.7-7.56,6.21-9.58,29.18-13,64.07,1.7,74.18,32.52C477.06,1075.63,475.09,1099.46,464.49,1122.26Z"/><path class="cls-1" d="M757.77,1405.26a97.09,97.09,0,0,1-.52-11q0-102.39,0-204.76c0-3.55-.32-7.1-.54-11.93l-50.75,5.39c.74,3.48,1.21,5.73,1.67,7.88,14.51-1.2,19,1.23,19.44,13.09.86,24.69.56,49.42.67,74.13,0,.38-.74.77-1.34,1.36-3.74-.49-7.67-1.12-11.62-1.5-40.3-3.89-96.07,16.56-101.29,78-3.25,38.35,15.46,67.44,52.27,78.22a22.85,22.85,0,0,1,3.57,1.78h32.44l28.64-11.72c1.73,3.69,3.62,7.7,5.5,11.72h10.25c9.46-2.84,19-5.38,28.31-8.73,2.33-.85,3.74-4.27,5.58-6.51-2.47-1-5-3-7.38-2.87C761.71,1418.26,759.05,1416.33,757.77,1405.26Zm-36.48,11.47c-24.6,9.33-51.54,1-65.44-21.77-15.66-25.65-16.55-52.89-3.45-79.7,12.3-25.2,45.84-34,69.51-18.85,3.1,2,5.85,7,6,10.69.63,16.74.28,33.52.28,50.28,0,16.48-.24,33,.13,49.43C728.44,1412.41,726.15,1414.88,721.29,1416.73Z"/><path class="cls-1" d="M210.74,1144.78c-13.32-.17-18.59-8.77-22.7-19.54q-23.92-62.9-48.23-125.65c-8.65-22.46-17.37-44.89-26-67.08-7.68.23-10.86,4.2-13.38,10.41-24.61,60.5-49.75,120.77-74.17,181.34-5.08,12.6-12.08,20.94-26.3,21.38v6.83H68.05l1.45-2.25c-1.92-1.82-3.56-4.54-5.83-5.26-4-1.26-8.41-1.16-12.61-1.88-9.65-1.66-11.43-3.87-8.29-13.22Q52.4,1101.2,63.29,1073c1-2.58,5.3-5.41,8.14-5.49,18.69-.52,37.39-.31,56.09-.34,5.22,0,8,2.44,9.78,7.55,5.17,15,10.92,29.86,16.45,44.77,7.42,20,7.45,20.13-13.52,24.87-5.09,1.15-6.63,3.27-4.52,7.89h80.35l1.42-2.34C215.23,1148.1,213,1144.8,210.74,1144.78ZM69.57,1054.43l30.16-77c10.16,26.74,19.64,51.67,29.28,77Z"/><path class="cls-1" d="M850.83,1360.24c4.17-.26,8.26-2,12.38-3.07,28.25-7.6,55.95-16.67,82.42-30-5-23.2-15.39-41.51-39.81-47.65-18.68-4.69-36.89-2.41-53.59,7.27-30.76,17.82-41.68,46.35-40,80.1,1.75,36.09,20.62,58,55.6,67.5a17.1,17.1,0,0,1,3,1.49H904.9l40.52-15.77-5.09-9.69c-4,1.83-7.5,3.59-11.12,5.08-37.78,15.51-75.92-4.06-85.36-43.67C842.32,1365.43,842.34,1360.77,850.83,1360.24Zm-8.23-12.1c.49-20,3-37.52,16.62-51,12.76-12.61,34.94-10.21,45.6,5.25,5.15,7.47,7.89,16.6,12.6,26.91Z"/><path class="cls-1" d="M1003.57,929.1c8.4,1.82,16.12,7.59,23.65,12.37,3.64,2.31,6.12,6.46,10.24,11,3-5.13,5.61-8.77,7.39-12.77,4.68-10.55,3.91-15.44-6.53-19.89-9.65-4.11-20.7-7.7-30.94-7.22-38.14,1.78-65.26,25.7-73.47,63.12-2,9-2.43,18.4-3.66,28.27-6.41.63-12.92,1-19.31,2.06-1.88.32-3.42,2.69-5.12,4.12,1.5,1.64,2.77,4.32,4.55,4.73,6.35,1.46,12.87,2.14,20.53,3.29.16,3.22.43,6,.43,8.77q0,48.64,0,97.3c0,3.4-.48,6.8-.58,10.21-.19,6.14-3.08,9.48-9.41,9.72-2.55.09-5.37,0-7.53,1.1s-3.54,3.46-5.27,5.27l1.72,1.71h77.51c1.94-9.88-5.88-6.83-9.57-7.27-17.49-2.1-17.77-2.08-17.79-19.49q0-49.08,0-98.16c0-3,.41-5.95.67-9.47,16.84,0,32.73-.09,48.62,0,11.25.08,14.7,2.53,14.93,13.87.66,32.1.95,64.23.49,96.34-.2,13.94-1.17,14-15.29,16.4-4.51.76-7.85,1.85-5.31,7.75h71.1c2.75-8.1-3.33-7.28-7.37-7.93-11.17-1.82-13.18-3.34-13.3-14.71-.42-40.1-.47-80.21-.66-120.31,0-3.24,0-6.47,0-8.47l-95.82,4.21c2.23-19.09,2.63-36.23,6.57-52.51C969.61,933.79,984.68,925,1003.57,929.1Z"/><path class="cls-1" d="M870.8,1144.38c-11.83-2-13-3.09-14-15.09-.36-4.24-.43-8.52-.48-12.78-.31-24.17,0-48.37-1-72.51-1-23.66-11.1-38.18-30-42.36-10-2.22-21.27-3.43-31.07-1.19-13.44,3.07-26,9.85-39.39,15.21V997.6c-15.64,3.88-29.88,7.7-44.27,10.85-6.49,1.42-6.81,4.46-4.53,9.42,16.86-1.94,19.42-.85,19.6,11.21.5,32.69.73,65.4.32,98.09-.18,14.49-1.26,14.84-15.37,17.36-4.42.79-7.94,1.81-5.14,7.83h71c2.45-6.41-1.34-7.16-5.68-7.89-13.47-2.28-14.7-2.89-15-16.87-.67-30.42-.63-60.87-.48-91.3,0-2.93,2.19-6.45,4.39-8.68,12.61-12.77,27.82-15.91,44.68-10.45,16,5.18,21.26,18.53,21.93,33.32,1.12,24.7.9,49.47,1,74.21.07,15.44-2.89,19.78-16.52,20.12-5.22.13-7,2.72-4.55,7.35h71.58C880.19,1144.61,874.77,1145,870.8,1144.38Z"/><path class="cls-1" d="M1300.94,1136.65c-19.07-9-34.73-33.44-33.53-52.77,1.49-.47,3.1-.93,4.69-1.46,30.36-10.19,60.74-20.28,91-30.76,2.42-.84,5.76-4.52,5.55-6.55-2.18-21.39-20.19-40.49-41.29-44.62-31.39-6.15-62.11,7.08-78.66,33.87-17.87,28.93-17.31,71.87,1.83,95.92,19.83,24.92,46.75,30.68,76.65,26.33,14.9-2.18,29-7.06,41.15-17.1l-3.87-7.12C1333.56,1144,1318.61,1145,1300.94,1136.65Zm-19.77-116.06c11.07-12.9,31.86-13.26,44.12-1.07,8.32,8.27,11.9,18.85,14.15,31.72l-72.69,18.36C1266.61,1050.68,1269.48,1034.19,1281.17,1020.59Z"/><path class="cls-1" d="M675.1,1048.92c-3.09-24.66-17.87-42.68-39.17-47.94a72,72,0,0,0-45.92,3.51c-35.82,14.88-55.61,57.12-46.09,98.1,12.62,54.32,87.15,75.41,130.34,36.64-1.1-2.19-2.22-4.44-3.65-7.28-50,22.76-99.68-2.06-97-48.34C608.44,1075.13,642.94,1065.15,675.1,1048.92Zm-102.76,20.84c1.1-19.56,3-37.18,16.53-50.81,12.43-12.54,34-11.05,45.1,3.83,5.7,7.65,8.68,17.33,13.76,27.9Z"/><path class="cls-1" d="M300.1,1144.51c-14.29-2.49-14.32-2.54-15.43-17-.28-3.68-.37-7.38-.37-11.07q0-94.25,0-188.49V916.35c-15.82,1.76-30.4,3.5-45,5-6.31.63-6.53,3.65-4.32,8.29,15.5-1.21,18.74,1,19.59,16.17,1,17.57,1.19,35.2,1.2,52.8,0,42.64,0,85.28-.59,127.91-.23,15.3-1,15.4-16.17,18.15-4.74.86-7.56,2.26-4.8,7.83h71.21C308.16,1146.1,304.43,1145.26,300.1,1144.51Z"/><path class="cls-1" d="M1023.52,1297.24c-1.08-7.4-2-13.47-3.1-21.21l-47.86,12.89c1.22,3.71,1.91,5.83,2.87,8.79,2.14-.61,3.46-1,4.8-1.37,10.24-2.68,12.7-1.11,14.34,9.33a45.26,45.26,0,0,1,.53,6.79c.11,30.71.35,61.43.19,92.14-.08,14.68-1.52,16.17-16.09,18.51-5.5.89-7.62,2.67-5,8.13h76.69c3.25-9.37-4.15-7.81-8.41-8.4-17-2.35-17.88-2.79-18.07-20-.33-29-.31-58-.27-87,0-12.42,8-18.64,20.27-15.85,6.08,1.38,12,3.59,18.06,5,2.15.48,5.4.38,6.79-.92,5.08-4.73,9.58-10.08,14.58-15.51C1059.77,1269,1040.94,1278.84,1023.52,1297.24Z"/><path class="cls-1" d="M1158,1017.77c-.9-6.23-1.77-12.25-2.91-20.18l-48.39,12.91,3.58,8.56c16.49-4.35,18.61-3.53,19,13.21.8,32.09.74,64.22.38,96.33-.14,12.52-2.15,13.79-15,15.91-4.3.71-9,1-5.88,7.88h77.06c1.65-9.77-5.56-7.62-9.82-8.07-15-1.62-17-3.35-17-18.38q-.13-44.34,0-88.69c0-12.11,7.39-18.36,19.22-16,6.38,1.29,12.54,3.67,18.9,5.09,2.12.47,5.33.3,6.72-1,5.07-4.72,9.59-10,14.33-15.14C1199.09,993.84,1188.78,995.29,1158,1017.77Z"/><path class="cls-1" d="M569.88,1422.86c-11.07-2-12.69-3.61-13.28-14.85-.2-3.69-.27-7.39-.27-11.08q0-55,0-110V1276c-17.07,4.24-32.46,7.86-47.67,12.13-1.69.48-2.34,4.65-3.48,7.11l2.6,1.38,4.15-.71c10.88-1.9,12.93-.44,14.65,10.54a39.45,39.45,0,0,1,.67,5.92c.08,30.42.33,60.84,0,91.25-.15,16.16-1,17-16.75,19.68-5.61,1-6.59,3.11-4.39,7.89h71.43C580.88,1422.27,573.94,1423.61,569.88,1422.86Z"/><path class="cls-1" d="M519.93,1221.8a18.46,18.46,0,1,0,36.92.06c-.1-10.54-7.81-18.14-18.42-18.16S520,1211.32,519.93,1221.8Z"/></svg>