<svg id="Layer_1" data-name="Layer 1" xmlns="http://www.w3.org/2000/svg" viewBox="0 0 2579.97 1435.89"><defs><style>.cls-1{fill:#a62b2a;}</style></defs><path class="cls-1" d="M594.18,1252.34c-16.18,5.07-30.9,12.83-42,24.19-19.37,19.81-41.77,17.93-64.76,12.48-32-7.58-55.44-27.68-68.77-57.12-18-39.67-23.25-81.46-11.72-124.24,2.08-7.7,4.75-16.13,9.79-21.92,8.68-10,5.19-16.24-1.7-25.21-20.33-26.44-26.83-58.26-32.47-90.27-9.32-52.76-19-105.46-28.27-158.23-1.48-8.43-5.16-14-12.46-19-57.61-40-77.3-97.57-73.35-164.9,1.26-21.47,11.7-27.86,32.8-24,44.28,8.07,83.88-7,122.33-25.82,30-14.67,60.21-28.49,92.79-36.47,30.26-7.41,60.87-10.26,91.83-6.16,5.65.74,9.35-.35,13.69-3.69,21.49-16.52,46.13-22.06,72.83-19.82,5,.43,10.1.56,15.15,1,13.73,1.09,20.08-3.59,22.46-18.85,5.88-37.7,26.88-68.25,52.41-95.58,6.16-6.59,8.26-12.63,7.34-21.41q-6.36-60.39-11.53-120.91c-.65-7.48-3.16-11.14-10.2-14.42-68.2-31.8-102.86-99.78-89.82-175,2.77-16,12-24.4,27.08-22,67.59,10.64,133.17-.74,197.88-18.43,63.35-17.33,126.79-19,190.75-5.67,9.88,2.06,18.79,1.22,28.14-1.08,60.74-15,122-24.34,184.83-17.42,5,.56,10,1.36,15,2.14,25.89,4,51,17.25,78.15,1.7,9.45-5.4,23.21-3,34.42.08,55.9,15.48,113.16,14.82,170.32,15.1,41.21.2,81.78,3.68,121,17.49,91.11,32.07,126.61,115.59,116.4,184.22-10.42,70-17.56,140.52-30.78,210.11-2.89,15.21-8.17,30-12.59,45.8,43.25.9,85.17,7,124.23,24.82,18.87,8.6,37.34,12.51,58.1,11.76,35-1.25,68.17,7.44,98.91,24.39,5.69,3.14,11.27,3.6,17.42,3.4,73.95-2.4,138.59,22.91,197.33,66.11,10.32,7.6,15,16.9,14.83,29.65-.36,31.65-4.3,62.48-17.8,91.55-5.36,11.54-10.25,25.11-20.51,31.43-39.65,24.39-41.56,65.34-49.73,104.19-15.07,71.68-26.53,144.22-45.86,214.88-19.73,72.08-62,125.3-137,147-15.59,4.51-31.48,7.85-47.72,7.86-8.45,0-11,3.37-12.54,11.16-7.63,39.7-15.9,79.27-23.88,118.9-10.39,51.57-50.75,79-101.6,67.06-83.26-19.51-167.16-35.14-251.94-46.31a2429.64,2429.64,0,0,0-421.29-18.31c-156.61,6.66-311.09,28.52-463.66,64.63-50.84,12-91.3-15.76-101.64-67.27C609.29,1328.2,601.81,1290.55,594.18,1252.34ZM2033,992.92c-2.88,11-4.92,19.28-7.21,27.47-10.12,36.17-30.13,48.27-66.9,40.77-138.52-28.25-278.42-46.34-419.44-55.33a3541.84,3541.84,0,0,0-425.07-1.37c-160.37,9-319.52,27.58-477.09,58.83-32.09,6.36-65.11,10.4-94.25,27.25-38.71,22.39-53.06,62-37.69,102.9,2.56,6.82,4.54,9.64,10.82,2.82,23.29-25.33,54-37.41,86.38-44.41,254.73-55,512.24-82.51,773.05-77.58,99.29,1.88,198.25,8.27,296.84,19.81,94.5,11.05,188,27.8,280.82,49,50.24,11.46,91.19-5.94,118.76-49.29,13.46-21.16,22.11-44.34,27.06-68.8q27.51-136,54.49-272.11c4-20.43,6.68-38.86,26.9-53.47,24.14-17.44,19.36-35.55-8-48.16-29.53-13.6-61.36-16.29-93.16-18.94-3.7-.31-6.77.36-8.95,4.09-9.77,16.71-2.08,50.5,15.11,59.6,8,4.21,7.68,8.1,6.1,15.41-14.41,66.7-28.28,133.51-42.55,200.24-7.13,33.32-7.35,33.27-41,25.32-26.75-6.33-34-16-29.66-42.77,11-66.86,22.57-133.61,33.89-200.41,1.06-6.28,3.39-10.68,10.11-13.41,18.52-7.52,27.17-23.09,31.77-41.68,2.21-8.95-.54-13.68-9.3-17.32-30.89-12.85-63.51-16.25-96.3-19.16-3.14-.28-6-.08-8.25,2.55-10,11.37-8.06,52.26,5.15,61.09,10.95,7.33,9.1,15.34,7.49,24.68-12.5,72.75-25.3,145.45-37.52,218.25-7.94,47.34,11.83,77.22,57.92,89.14,4.89,1.26,9.88,2.26,14.66,3.85C2003.54,1006.92,2018.32,1007,2033,992.92ZM1475.32,264.4c-2.77,47.88-5.35,86.76-7,125.67-.42,9.48-3.42,11.64-12.59,11.3-31.35-1.17-62.74-2-94.11-1.76-42.43.29-85.16-4.55-127.18,4.16-34.36,7.12-64.78,21-77.64,57.57-6.1,17.37-4.81,18.61,12.68,17.13,110.19-9.35,220.37-6.79,330.61-.61,44.37,2.49,88.67,9.33,133.27,4.71,45-4.66,78.36-33.64,85.14-75.87q17-106.29,31.8-212.93c6.12-44.68-11-72.07-52.89-89.24C1668.42,92.67,1637.89,89,1607,87.1c-61.51-3.88-123.59.82-184.5-12-8.86-1.87-10.19,1.8-9.84,9.51,1.48,32.74,23.29,57.76,56.41,64,6.32,1.19,12.68.56,11.94,11.11C1478.35,197.57,1476.81,235.5,1475.32,264.4Zm-429,14.17c12.44-3.66,25.22-5.22,37.18-2.27,17.16,4.22,25.3-5.2,32.67-17.37,12.76-21.09,12.62-44.4,10.71-67.77-4.56-55.77-31.87-91-79.32-102.33C1013.69,80.73,980,85,946.7,92c-51.9,11-103.23,25.34-156.9,24.89-9.54-.08-9,5.56-8.77,11.92,1.47,38.39,22.59,57.63,61.66,56.09,6.31-.25,12.65-2.82,13.9,8q13.1,113,27.39,225.89c1.23,9.86-.33,14.82-11,18.63-30.35,10.78-45.74,36.8-43.81,68.81.54,8.85,2.77,11.63,12,8.48,27.5-9.43,56.28-11.68,85-14.14,46.86-4,93.87-6.77,140.25-15.1,34.78-6.25,62.84-21.93,76.56-56.83,7-17.93,6.62-36.45,5.86-55.31-1.7-42.06-23.81-68.27-61.74-83.24C1073.85,284.89,1059.88,283.05,1046.28,278.57ZM798.82,793.9c16.51-2.49,28-4.81,40.18-3.06,46.89,6.76,71.55,38.11,83.65,79.84,11.71,40.39,38.6,61.24,77.22,70.69,27.43,6.71,55.12,5.29,83,3.5,57.08-3.68,114.23-6.27,171.35-9.37,4.23-.23,8.65,1,9.92-6.06,6.22-34.12-13.55-59.47-48.35-61a147.7,147.7,0,0,0-21.25.31c-39.75,4.13-79.68,7.24-119.17,13.18-51.62,7.76-91.57-16.4-104.56-62.61-9.45-33.59-32-58.37-69.15-65.25-1.13-.21-2-1.58-4.31-3.41,15.63-1.7,30.86-4.39,42.66,3.73,16.57,11.41,26.93,2.52,38.14-7.06,7.81-6.69,13.4-15.19,17.4-24.6,24.63-57.94-8.58-128.53-69-146.44-32.89-9.76-66.15-7.32-99.28-1.61-49.08,8.45-94.79,33.77-146.49,29.3-4.37-.38-5.63,2.68-6.49,6.66-5.45,25,11.45,48.72,37,51a92.35,92.35,0,0,0,21.22-.33c8-1.17,10.42,1.75,11.53,9.41q16.17,112.62,33.11,225.13c1.35,9-.23,14.33-9.28,19.05-21,11-33.22,29-36,52.93-.82,7.15.63,11.21,9.25,11.51,52.64,1.84,103.9-5,153.66-22.66,7.08-2.51,7.84-5.82,5.09-12.47-8.19-19.73-20.87-37.32-41.71-40.82-21.45-3.6-24.75-15.86-25.85-32.64a24.52,24.52,0,0,0-.69-6C823.74,840.75,834.26,809.39,798.82,793.9ZM1706,698.69c19.23,4.46,26.66,18.25,31.78,33.93,15.82,48.5,31.17,97.16,47.49,145.49,6.08,18,10.6,35.5,5.8,54.54-2.14,8.47,0,17.27,2,25.55,3,12.1,10.19,20.92,23.48,22.7,13.06,1.75,20.93-5.7,26.65-16.08,9-16.34,11-34.5,13.13-52.61q14.2-123.57,28.29-247.16c1.24-11.07,2.77-19.9,16.75-21.71,8.09-1.05,13.44-8.56,17.71-15.64,12.32-20.49,10.33-27.31-11.86-36.24-36.28-14.6-74.56-17.35-113.13-18.38-8.24-.21-8.76,4.22-8.74,10.45.07,21.81,12.73,39.76,36.87,48.45,9.29,3.34,11.12,7.8,9.76,16.51-4.83,31-9,62-13.87,93-2.17,13.76-2.33,28-8.46,45.31-15.5-61-29.66-117.87-44.42-174.53-8.36-32.1-27.59-53.86-61.85-58.61-28-3.88-56.26-6.48-84.36-10-7.44-.93-9.57,1.86-10.15,8.87-2.14,25.74,10.91,47.27,36.46,56.65,7.55,2.78,10.18,5.62,9.57,13.83q-9.37,125.61-17.86,251.29c-.69,10.39-3.59,15.73-14.54,18.82-21.36,6-32.68,22.32-38.21,43.32-1.69,6.44-.14,9.27,6.08,11,46.14,12.5,92.72,20.68,140.85,16.16,7.71-.72,10.87-2.38,8.45-10.95-6.29-22.25-16.46-41.81-38.18-52.07-9.12-4.31-9.72-9.24-8.11-17.74,7.91-41.7,14.9-83.58,23-125.24C1720.58,736.51,1723.23,716.36,1706,698.69ZM1381.39,675c20.38.75,31.4,13.8,39.62,30.18,25.15,50.16,50,100.46,75.33,150.56,4.66,9.24,7.7,18.29,7,28.88-.8,12.7,1,25.26,6.65,37,5.31,10.92,13.38,17.52,26.15,17.19,12.61-.32,18.79-8.34,23.11-18.77,5.37-12.93,5.84-26.56,5.8-40.27q-.4-124.58-.79-249.15c-.06-15.66-3.39-31,17.89-38.9,12.38-4.59,17.61-20.5,15.3-33.9-1.89-11-15-10.39-23.76-12.49-36.83-8.8-74.21-8.52-111.72-5.34-7.19.61-7.88,3.94-7.64,9.85.85,20.68,16.63,38.29,41.05,45,5.67,1.56,12.34.9,12,10.15-1.71,47.24-3.11,94.49-4.65,142.82-6.23-3.83-6.5-9.26-8.35-13.63-21.26-50.28-42.25-100.67-63.54-150.93-14.83-35-38.37-50.42-75.31-49.41-24.29.67-48.57,1.63-72.86,2.62-18.52.76-22.64,6.33-18,24.51a44.29,44.29,0,0,0,16.4,24.89,92.1,92.1,0,0,0,34.13,15.9c6.06,1.51,8.94,4.32,9.42,11.3q8.56,125,18.08,249.87c.77,10-2.57,13.93-11.5,17.34-18.28,6.95-30,20-32,40.46-.69,7.13.62,10.94,8.91,12.29,46.38,7.58,92.59,8.14,139-.1,10.7-1.9,10.84-6.48,7.22-14.34-8.64-18.72-21.91-33.5-41.41-40.07-11.81-4-13.52-10-13.1-20.91,1.71-43.51,1.83-87.08,4-130.56C1404.84,705.45,1400,688,1381.39,675ZM673.69,852.66c4.8-4.93,11.8-5,17.68-7.56,16.78-7.16,29.27-18.12,33.69-36.36,4.93-20.31,1.39-24.29-19.36-22.59a161.57,161.57,0,0,0-16.49,2.35c-42.93,8-83.63,28.94-129.12,22.25-5.77-.85-6.23,2.16-5.56,7.33,3,23.34,22.57,43.4,45.24,47.26,8.54,1.45,19.61-5.55,25.09,3.34,4.5,7.3,4.38,17.46,6.22,26.37.72,3.46,1.11,7,1.79,10.46,3.19,16.37-1.73,27.16-16.8,34.86-12.27,6.26-25.77,8.86-39.18,11.3-26.53,4.83-40.15-4.73-45.43-31.17-11.56-58-23.31-115.91-34.75-173.9-2-10.09-3.64-19.09-15.14-23.77-5.58-2.27-13.42-8.87-2.54-15.7,33.31-20.93,68.84-33.67,109.07-29.88,14.78,1.39,23.25,6.94,22.69,23.3-.28,8,2,16,3.32,24,4.08,24.17,18.07,35.54,39.15,32,19.36-3.25,27.6-17.54,23.44-41.7-2.57-14.93-6.42-29.66-8.73-44.62-3.43-22.29-16.83-36-36.38-45-15.15-6.93-31.29-7.67-47.58-7-43.84,1.8-84,17.21-123.25,34.81-30.46,13.63-61.35,23.65-95.23,19.59-5.24-.62-7.2.47-7.51,6-1.92,34.59,27.76,63.72,61.5,58.5,10-1.55,11.74,1.53,13.23,9.68,5.17,28.33,10.9,56.56,16.41,84.83,9.29,47.61,18.28,95.28,27.94,142.82,8.15,40.09,35.86,58,75.81,49.19,37-8.19,73.85-17,110.75-25.62,25.39-5.93,40-21.79,44.84-47.48s-3.83-50.15-5.42-75.24c-.81-12.82-2.14-24.74-20.49-18.55C679.71,857.76,675.34,857.31,673.69,852.66Zm425.49-125.09c20.12-8.16,39-12.15,58.87-10.52,16.39,1.35,29.35,6.72,32.23,25.61,1,6.37,3.71,12.63,6.49,18.54,3.18,6.76,1.62,10.36-4.73,14.52-17.15,11.22-21,28.52-20,47.83.33,6.38,3.42,8.58,9,9.86,35,8.05,69.19,6.4,102.69-7.24,7.51-3,9.46-7.6,8.37-15.29-2.75-19.48-14.55-32-31.13-40.22-7.59-3.78-11-8.58-13.06-16.73Q1230.57,684,1212,614.51c-2.74-10.26-3.67-16.81,8.38-22.41,12.44-5.79,13.05-18.84,12.14-31.75-1-13.58-10.73-14.19-20.15-15.75-64.09-10.61-127-3.31-189.38,12.39-7.82,2-9.23,5.64-7.61,13,5.51,24.76,23.3,39,51.7,40.28,6.34.28,11.63-.86,10.41,9.22-5.42,44.68-9.93,89.46-15.06,134.17-.64,5.59.08,11.81-7.65,14.93-20.71,8.37-29,26.76-35.88,46.32-3.17,9-.53,13.77,7.71,18,35.69,18.31,72.08,16.54,109.1,5.16,6.33-1.94,7-6.18,6.84-11.65-.56-20.64-9.11-37.19-25.88-49-6-4.22-10.26-8.38-7.48-15.9C1114,748.32,1112.69,736.88,1099.18,727.57Zm143.11-469.08a117.53,117.53,0,0,1,50.2-9.92c27.06.59,33,4.93,41.17,30,1.57,4.8,2.9,9.71,4.84,14.36,3,7.13,1.81,11.56-5.38,16.11-16.06,10.18-20.9,26.36-20.83,44.62,0,6.4,1.77,10.47,8.5,12.11,35.31,8.56,70.09,8.3,104.4-4.95,7.72-3,9.52-7.9,8.16-15.36-3.43-18.85-14.18-32.31-30.94-40.7-7-3.53-10.28-8-12-15.71-10.57-47.88-21.49-95.68-33.08-143.32-2.37-9.74-2.32-14.81,8.3-19.43,14.4-6.26,14.52-20.32,13.45-34-1-12.88-11.11-12.49-19.77-14.24-61.08-12.37-120.76-4.25-180,12-8.53,2.34-10.07,6.08-7.94,14.17,5.31,20.07,19.68,29.29,38.58,31,10.68,1,12.16,4.83,11,14q-8.51,66.22-16.29,132.55c-1.21,10.33-3.87,18.44-13.15,25.33-13,9.65-18.5,24.75-22.35,40.34-2.13,8.61.61,13.16,8.58,16.26,34.53,13.44,69.47,10.59,104.63,3.33,6.33-1.31,6-5.87,6-10.46,0-22.51-10.25-39.67-27.88-52.93-3.84-2.89-9.81-4.56-7.69-11.35C1256.86,279.15,1255.1,267.67,1242.29,258.49Zm78.41,883.61c-143.26-.46-262.25,8.79-380.92,23.47q-107.68,13.32-214.42,32.56c-6,1.08-15.07.86-13.64,10.39s9.84,7,16,5.8c52.68-9.94,105.63-18.13,158.72-25.43,102.31-14.06,205-24.69,308.21-28.59,99.25-3.75,198.38-1.4,297.46,5.58,116.17,8.19,231.52,22.3,345.71,45.6,9.58,2,11.34,5.33,9.44,14-4.42,20.23-8.28,40.59-12.25,60.92-1.25,6.39-3.79,14.47,5.66,15.88,7.9,1.17,8.82-6.19,10-12.41q6.28-32.74,13.1-65.39c4.84-23.22,4.93-23-17.8-27.75C1664.92,1159.19,1481.65,1144.15,1320.7,1142.1Zm7.45,141.09c107.9,2,215.34,9.84,322.18,25.26,35,5.06,70,10.74,104.93,16.06,6,.91,13.18,2.75,14.16-6.25.79-7.29-5.07-8.54-11-9.48-17-2.69-33.85-6-50.82-8.66a2754.44,2754.44,0,0,0-332.2-32.06c-59.73-2.06-119.45-2.66-179.15.84-6.72.4-14.45.11-12.42,10.18,1.52,7.54,8.38,5.9,13.77,5.74C1241.1,1283.55,1284.61,1281.64,1328.15,1283.19Zm-303.62-22.58,0,.23c10.56-1.13,21.11-2.34,31.68-3.36,5.53-.53,10.27-2,10.08-8.68-.2-7-5.24-7.73-10.74-7.38-4,.26-8.08.68-12.12.83-3.19.11-4.16-2-4.39-4.84-.19-2.33.75-3.37,2.88-4.39,20.19-9.68,40.74-1.38,48.92,19.91,11.3,29.45,38.35,43,68.3,34.41,5-1.44,8.12-4,7.46-9.59-.6-5.15-4.51-6.55-8.7-6.65-4-.1-8,.92-12.08,1.16-24.17,1.4-46.8-18.91-47.9-42.67-.17-3.7,2.86-3.69,4.56-4.53,11.71-5.78,16.53-15,12.66-27.37-3.94-12.59-14.92-14.3-25.93-13.3-29.22,2.64-58.37,6-87.55,8.9-6,.61-9.71,3.17-8.85,9.58.8,6,5.68,7.43,10.25,6.1,17.41-5.08,18.86,5.52,18.84,18.18a47.78,47.78,0,0,0,1.14,9c1.22,6.31-.68,9.43-7.69,9.25-6.53-.16-13.1,1.8-11.83,10,1.11,7.22,7.64,6.78,13.43,6C1019.48,1261,1022,1260.86,1024.53,1260.61Zm684.9,3.61c-6.51-1.08-12.19-1-13.82,6.19-1,4.63,1.61,8,6.21,8.83,16.9,3,33.83,5.86,50.79,8.47,4.87.75,7.79-2.74,8.41-7,.66-4.46-1.9-7.68-6.61-8.58-5-1-9.91-2-14.91-2.64-3.7-.51-5.38-2.3-5-6,.32-2.92.23-5.4,4.6-6.21,22.86-4.2,40.93,10.14,41.49,33.41.72,29.69,23.33,50.2,53.7,49,5.2-.21,9.23-1.57,9.68-7.16s-3.18-7.85-8.34-8.79a133.05,133.05,0,0,1-17.66-4.22c-15.91-5.19-30-36.61-23-51.26.69-1.45,3.07-2.41,4.86-3,10.78-3.5,17.94-10.18,16.59-22.12-1.58-13.87-12.23-19.36-24.24-21.37-25.41-4.24-51-7.52-76.48-11.32-5.49-.82-10.46-.71-11.79,5.88-1.3,6.4,2.76,10.17,8.35,10,12.48-.4,11,6.7,9.21,14.75-1.07,4.92-1.64,10-2.28,15C1718.39,1262.31,1716.8,1267.31,1709.43,1264.22Zm-644.5,11.08c-78.19,6.92-155.42,16.4-232.21,29.17-29.38,4.89-58.58,10.83-87.9,16.11-6,1.08-11.43,2.64-10.12,10.14,1.41,8,7.92,6.06,13.33,5.67a34.48,34.48,0,0,0,4.5-.7c103.12-20.88,207.3-34.22,312-44.33,7.52-.72,20.83,4,20.44-8.86C1084.52,1268.7,1071.45,1277.77,1064.93,1275.3Zm-330.64-26.56c19.07-3.25,12.15,12.48,15.35,19.91,3.45,8,5.09,17.1-9.38,16.74-5.37-.13-9.93,3.2-8.79,9.79s6,7.17,11.57,6.15q17.16-3.13,34.33-6.14c5.2-.91,10.55-2.13,10.18-8.82-.42-7.76-6.17-8.22-12.15-7.39-3.75.51-6.87.89-7.53-4.34-.75-5.88,3.56-5,6.74-5.6,9.44-1.77,18.86-3.79,28.38-5,4.28-.52,11-4.26,12.18,3.79,1.05,7.39-6.16,4.45-9.65,5.77-5.36,2-11.56,3.2-9.57,10.86,1.9,7.26,7.94,6.41,13.66,5.46,11.46-1.91,22.95-3.69,34.42-5.63,5.77-1,11.65-2.77,10.31-10.2-1.3-7.21-7.09-8.14-13-6-7.48,2.77-9.91-.51-10.7-7.29-.58-5-1-10.21-2.74-14.88-3.4-9.18-1.56-14.06,9-14.8,6-.42,11.57-3,9.5-10.48-2-7.08-8.19-6.24-13.85-5.25q-16.42,2.89-32.83,5.9c-5.62,1-12.08,2.3-11.23,9.6.95,8.07,7.15,8.49,13.85,6.71,3.25-.86,7.14-2.55,8.17,3.06,1.13,6.15-3.43,6.39-7.38,7q-15,2.4-30,4.51c-3.59.5-8.33,4.06-10.18-2-2.13-7,3.73-7,8.06-7.74,5.53-1,7.91-4.38,7-9.69-1-6-5.66-6.62-10.47-5.87-11.48,1.79-22.9,4-34.39,5.76-5.95.89-11.56,2-10.74,9.65C723.29,1250.66,729.78,1248.94,734.29,1248.74Zm937.84,27c13.62.84,19.38-6.73,17.31-22.2-.53-3.94-1.93-6.94-5.72-7.94-4.52-1.2-8.31.62-9.48,5.19s-1.79,8.65-8.44,7.72c-15-2.1-30.12-3.52-45.15-5.46-3.44-.45-7.19-1.27-6.16-6.55.91-4.65,3.76-5.23,7.77-4.7,9.51,1.27,19,2.35,28.58,3.48,5.31.62,9.3-1.59,10-6.83s-2.67-8.26-8-9c-9-1.22-18.05-2.29-27-3.87-3.45-.61-9,0-7.32-6.66,1.33-5.38,5.35-3.3,8.55-2.92,13.05,1.53,26.06,3.41,39.13,4.74,6.15.63,11.93-.19,11.32,9.42-.38,5.9,4.73,9.29,10.52,6.59,7.84-3.65,5.76-12,7.1-18.64,1.19-5.92-1.41-10.36-7.39-11.1-29.58-3.68-59.18-7.25-88.84-10.25-7.78-.78-13.37,7.51-7.61,11,16.85,10.06,7.22,23.06,7.1,35.11,0,4.8-1.39,7.49-7.15,6.5-6.25-1.08-11.53.93-11.35,8.36.15,6.58,5.84,7.62,10.9,8.25C1617.93,1269.31,1645,1272.49,1672.13,1275.75ZM955.2,1217.17c6.25-3.32,15.09-2.68,13.4-12.13-.85-4.76-4.74-6.46-9.17-5.89q-41.31,5.34-82.59,11c-4.17.58-7.76,3-7.86,7.88s3,7.1,7.36,8.24c2.66.7,6.2-1.48,7.91,2.4,2.46,5.62-8.43,32.56-14.62,35.9-3.76,2-7.25,4.47-6.15,9.21,1.2,5.2,5.32,7.25,10.43,6.58,9-1.18,18-2.72,27-4,6-.84,13.38-.51,13-9.1-.32-7.61-6.58-7.57-12.47-7.1-2.21.18-5.46,1.3-5.76-2.42-.25-3.12.8-5.84,4.79-6.35,16-2.06,32-4.27,48-6.41,3.19-.43,6.47-.11,7.63,3.27,1.56,4.58-2.91,4.23-5.3,5.29-4.21,1.87-6.74,4.82-5.34,9.43,1.3,4.3,4.75,6.55,9.33,6.08,10.55-1.09,21.11-2.19,31.61-3.68,5-.71,8.42-3.71,7.66-9.33-.63-4.66-3.78-7.11-8.39-7s-8.73,1.07-11.86-4C968.09,1235.71,961.66,1226.75,955.2,1217.17Zm220.45-34.83c-12.63,0-25.27-.18-37.9.09-5.82.12-11.7,1.52-11.07,9.23.53,6.56,5.75,8.22,11.1,7.3,9.38-1.61,11.29,2.9,10.62,10.86a64.68,64.68,0,0,0,.41,12.12c.88,8.11,1.44,15.37-10.58,14.33-4.84-.42-7.12,3.92-6.81,8.22s3.22,7.34,8.14,7.14c27.24-1.11,54.7-.79,81.45-6.48,16.65-3.54,25-15.9,24.8-31.74-.22-16.73-9.43-27.63-26.4-32.34C1204.74,1177,1190.23,1181,1175.65,1182.34Zm356,78.07c30.3,1.16,44.65-8.89,47.63-30.05,2.6-18.56-9.21-35.35-30.31-38.69-23.43-3.71-47.27-4.79-70.94-7-5.08-.47-9.3,1.19-10.32,6.55-1,5.53,2.3,8.89,7.52,9.21,8,.49,8.54,5,7.76,11.37-.73,6-.75,12.11-1,18.18-.24,5.36-.62,10.35-8.29,9.13-5.7-.91-10.75.91-11,7.21-.33,7.39,5.52,8.27,11.51,8.78C1494.83,1256.86,1515.47,1258.9,1531.67,1260.41Zm-195.09-12a70.69,70.69,0,0,0,32.46-6.27c7.53-3.5,13.83-8.56,16.28-16.93,1.35-4.61,1.17-9.17-4.09-11.6-4.67-2.15-7.55.67-10.32,3.89-14.62,17-48.76,20.47-65.72,6.78-9.72-7.85-9.37-20.33.74-26.61,14-8.71,52.29-5.43,64.63,5.86,4,3.62,7.54,7.68,12.74,2.83s2.62-10-1.12-14.65a29.73,29.73,0,0,0-13.37-9.66c-21.67-7.54-43.63-8.3-65.42-.83-12.4,4.25-20.43,12.9-21.37,26.63-1,13.91,4.7,24.53,16.74,31.61C1310.43,1246.29,1323.18,1248.81,1336.58,1248.39Zm88.54,2.32v1.41c5.55,0,11.11-.07,16.67,0,6.14.09,13.3,1,13.21-8-.07-7.5-6.35-8.51-12.11-7.9-10.06,1.06-12.37-3.37-10.42-12.36a46.61,46.61,0,0,0,.94-13.58c-.74-8.93,1.84-13.25,11.7-11.26,6.06,1.23,11.94-.86,12.31-7.74.38-7.25-5.92-8.54-11.74-8.81-12.12-.58-24.25-.9-36.37-1.4-6.22-.25-13.43-.87-13.65,7.63-.17,7,5.86,8.74,12,8.15,9.75-.93,10.84,4.35,9.41,12.13a47.62,47.62,0,0,0-.82,12.08c.75,9.6-1.22,15.55-12.94,13.07-5.56-1.18-10.57,1.65-11,7.62-.42,6.14,4.48,8.65,10.05,8.83C1410,1250.9,1417.54,1250.71,1425.12,1250.71Z"/><path class="cls-1" d="M1511,400.91c22.66-10.45,21.22-30.71,22.68-49.63,4.07-52.43,7.88-104.89,12.24-157.3.87-10.46.88-18.43-12.12-21.2-6.68-1.42-11.68-8.38-9.93-15.15,1.84-7.12,9.55-3.31,14.46-3.15,27.81.92,55.62,2.07,83.39,3.81,30.93,1.93,46.47,17.22,46.62,48.22.2,41.53-8.5,82.43-10.94,123.82-.83,14.13-1.82,28.28-3.53,42.32-2.66,21.81-15,33.38-37.2,34.17C1581.87,408.05,1547.22,404.52,1511,400.91Z"/><path class="cls-1" d="M981.64,160.34c17.37-.18,34.49,1.54,50.15,9.52,14.76,7.52,25.16,19,25.74,36.51.55,16.6-9.5,27.32-22.7,35-31.3,18.36-66.42,19.18-101.24,21.27-7.56.46-7.82-4.48-8.3-9.68-1.48-16.1-3.33-32.18-4.34-48.31-.43-6.85-1.92-11.19-9.56-12.55-3.71-.66-7.19-3.58-10.34-6s-7-5.57-6.1-9.73c.79-3.85,5.62-3.56,9-4.44C929.4,165.25,955.24,160.89,981.64,160.34Z"/><path class="cls-1" d="M997.68,327.73c17.84.19,34.37,1.85,49.77,9.07,15.71,7.37,26.37,19.47,27.28,37.07.84,16.31-9.69,27.35-22.81,35-31.69,18.48-67.2,19.8-102.54,21.32-7.65.33-7.15-5.46-7.51-10.47-1.13-16.1-2.68-32.19-3.16-48.32-.25-8.6-1.8-14.53-11.81-15.4-3.29-.28-6.65-2.41-9.47-4.42-2.32-1.66-5.3-4.28-5.46-6.66-.34-4.69,4.55-4.34,7.7-5.18A356.27,356.27,0,0,1,997.68,327.73Z"/><path class="cls-1" d="M774.24,649.79c42.88-11.7,85.37-21.88,129.94-15a69,69,0,0,1,11.7,3.08c15.8,5.39,28.35,15,30.81,32.14,2.29,16-7.19,28-19.45,37-24.21,17.86-53,21.41-81.7,23.94-39.11,3.45-39.13,3.08-44.16-35.44-.46-3.5-1.85-7-1.77-10.43.32-12.78-3.32-22.37-17.32-25.58C779.05,658.82,776.24,656,774.24,649.79Z"/><path class="cls-1" d="M1703.16,695.78c.32.36.65.72,1,1.09-.37.31-.75.88-1.11.87s-.71-.61-1.06-.94Z"/><path class="cls-1" d="M1114.34,605.45c5.79-3.94,11.36-4.38,16.91-4.9,20.65-1.92,23.31-.12,28.4,19.66,3.53,13.69,6.23,27.65,10.58,41.07,2.63,8.11,0,11.22-7.16,12.93-2,.47-3.78,1.47-5.73,2-34.88,9-42.76,2.25-38.2-32.94C1122.4,618.07,1122.4,618.07,1114.34,605.45Z"/><path class="cls-1" d="M1286.39,209.63c-24.71-.1-24.41-1.23-23.58-23.71.57-15.4,11-31.5-1.34-46.64-1.67-2,0-3.5,1.67-4.8,13.3-10.12,37.1-2.17,40.89,13.72,3,12.77,6,25.56,9,38.34,4,17.22,2.47,19.57-15.35,22.26C1293.18,209.47,1288.59,209.47,1286.39,209.63Z"/><path class="cls-1" d="M1055.43,1215.34c-5.39-3.44-16.68,7.64-18-4.11-1.22-11.07,11.3-5.44,17.25-7,10.54-2.77,21.8-3,32.79-3.79,4.53-.33,11.43-2.38,11.83,4.9.29,5.4-5.76,6.06-10.23,6.56C1078.14,1213.12,1067.16,1214.16,1055.43,1215.34Z"/><path class="cls-1" d="M1791.78,1249.66c-17-2.76-33-5.39-48.91-7.93-3.8-.6-5.08-2.72-4.41-6.32s2.91-4.94,6.52-4.34c15.93,2.64,31.89,5.18,47.81,7.9,3.62.62,7.41,2.27,6.62,6.65C1798.6,1250.18,1794,1249.07,1791.78,1249.66Z"/><path class="cls-1" d="M941.71,1229.36c-12.38,1.6-23.39,3.11-34.44,4.37-1.79.2-5.16-.47-5.3-1.2-.44-2.35-.66-6.09.73-7.22,8.43-6.81,19.33-3.78,29-6.28C938,1217.4,939.86,1223,941.71,1229.36Z"/><path class="cls-1" d="M1192.29,1196.74c7.57,0,15.24-.78,22.68.2,9,1.2,14.48,7.22,14.85,16.48.34,8.89-5.18,14.16-13.17,16.27-14.81,3.92-30.13,3.06-45.26,4-3.93.24-5.47-1.62-5.49-5.27a25.66,25.66,0,0,0-.18-3C1162.16,1197.44,1162.16,1197.44,1192.29,1196.74Z"/><path class="cls-1" d="M1497.93,1228.47a89.59,89.59,0,0,0,.64-9c-.52-13.39,4.51-18.88,18.59-15,10.15,2.75,21.13.54,31.44,4,9.91,3.33,15.4,9.17,14.08,20.11s-8.7,16.13-18.68,16c-13.6-.11-27.22-1.5-40.76-3C1492.63,1240.38,1500.68,1231.61,1497.93,1228.47Z"/></svg>