<svg id="Layer_1" data-name="Layer 1" xmlns="http://www.w3.org/2000/svg" viewBox="0 0 817.54 1438.43"><defs><style>.cls-1{fill:#fff;}</style></defs><path class="cls-1" d="M626.14,0q-5.17,0-10.4.05H194c-4.82,0-9.64,0-14.44-.07H178V853.14l6.34.07c74.81.72,149.58.55,224.38.22,43.35-.2,86.7.31,130,.31h89V0ZM517.62,624c-.1,16.58-3.19,32.57-11.94,47A59.32,59.32,0,0,1,478,695.48c-13.92,6-28.42,9.21-43.45,11-30.53,3.74-61.17,1.69-91.78,2.37a8.79,8.79,0,0,1-7.16-2.9q-14.19-15.19-28.49-30.29a9.26,9.26,0,0,1-2.44-6.83q.12-216.89.1-433.76c0-15.87-8.06-26.39-23.54-30.56-1.5-.41-3-.79-4.49-1.18-4.29-.12-8.63.53-12.83-.82a2.55,2.55,0,0,1-1-2c0-6.76.15-13.49.08-20.24,0-2.7,1-3.88,3.76-3.81,3.64.09,7.31.07,11,.09q39.63,0,79.24,0a24.26,24.26,0,0,0,5.17-.46A213.39,213.39,0,0,1,419,171.82c12.62.72,25.38,1.88,37.15,7.52,16.76,8,28.12,21.16,35.58,37.92a102.15,102.15,0,0,1,8.63,42.65c-.14,39.51.15,79-.17,118.56-.07,10-.94,20-3.88,29.67-1.64,5.38-5.11,9.41-9.48,12.78-1,.78-2.58,1-2.87,2.49.07.26.1.55.17.58,14.42,4.41,21.11,16.11,26.61,28.65,5,11.41,6.87,23.62,6.89,36C517.71,533.79,517.83,578.9,517.62,624Z"/><path class="cls-1" d="M627.63,982.36v421l.17,0V982.36Zm56.09,437.2v-437h-.1v445.53l.1,0v-4.24a3.75,3.75,0,0,1,0-.82C683.77,1421.88,683.72,1420.72,683.72,1419.56Z"/><path class="cls-1" d="M355.86,919a4.09,4.09,0,0,0,2.12-2.91c1.2-4.47,2.35-8.95,3.52-13.42.65-2.5.58-4.66-2.59-5.31-1.9-.39-2.32-1.73-2.3-3.44,0-3.66,0-7.32,0-11,0-2.17,1.11-3.11,3.24-3.1,8.68,0,17.35,0,26,.05,2.34,0,3.51,1.22,3.45,3.63a62.72,62.72,0,0,0,0,7.51c.37,3.71-.24,6.31-4.62,7-2.39.39-3.75,2.47-4.44,4.88-2.17,7.58-4.48,15.12-6.61,22.72-2.64,9.45-5.13,19-7.74,28.41-1,3.78-2.15,4.64-6.13,4.7-5.4.07-10.8,0-16.19,0-6.13,0-6.58-.37-8.2-6.45s-3.28-12.27-4.95-18.4c-.34-1.23-.05-3.15-1.66-3.3-2.24-.22-2.5,2-2.95,3.54q-2.75,9.42-5.29,18.89c-1.49,5.54-1.59,5.69-7.49,5.71-5.59,0-11.18-.09-16.77,0-3,.07-4.51-1.16-5.28-4.08-2.91-11-6-21.89-9-32.83q-2.83-10.3-5.57-20.62c-.67-2.49-1.88-4.19-4.77-4-3.1.19-4-1.5-3.82-4.33.17-3.08.11-6.17,0-9.25-.08-2.73,1.24-3.85,3.85-3.83,3.27,0,6.55,0,9.83,0,7.9,0,15.8,0,23.71,0,5.63,0,5.63,0,5.65,5.9,0,1.73,0,3.47,0,5.2s.46,3.55-.36,5.14-2.77,1-4.18,1.43a2,2,0,0,0-1.5,2.62c1.49,5.77,3,11.54,4.58,17.29.3,1.05.9,2.29,2.37,2,1.08-.23,1.22-1.35,1.47-2.24,3.11-11.12,6.33-22.22,9.2-33.4.8-3.09,2.26-4.07,5.21-4,3.85.14,7.71,0,11.56,0,4.6.06,4.76,0,6,4.37,3,10.36,5.78,20.77,8.68,31.15C354.28,916.58,354.15,918.08,355.86,919Z"/><path class="cls-1" d="M408.38,917.44c0-5.2-.1-10.41,0-15.6.07-2.7-.49-4.29-3.62-4.65-4.35-.5-4.34-.72-4.38-4.81,0-2.7-.06-5.4,0-8.09.09-3.88.46-4.38,4.26-4.44,6.94-.12,13.87,0,20.81,0,2.69,0,5.39.06,8.09,0s4.15,1,5.35,3.43c5.55,11.41,11.89,22.42,17.15,34a21.81,21.81,0,0,0,1.62,3.06,1.94,1.94,0,0,0,1.31.82c1,.06,1.26-.77,1.27-1.54,0-5.78.1-11.56-.07-17.33-.08-2.67-2.14-4.07-4.46-4.71-2-.57-2.83-1.62-2.78-3.68.1-3.47.08-6.94,0-10.4,0-2.33.85-3.64,3.35-3.63q12.43,0,24.85,0c2.55,0,3.32,1.41,3.27,3.69a67.19,67.19,0,0,0,0,7.51c.33,3.6-.22,6.25-4.31,7.47-2.71.81-3.31,3.52-3.34,6.17,0,5-.12,10-.12,15,0,11.17.07,22.34.1,33.51,0,5.05-.41,5.52-5.64,5.56-6.74,0-13.48-.14-20.22.08a6.21,6.21,0,0,1-6.43-3.76c-5.17-10.09-10.42-20.14-15.63-30.22a11.34,11.34,0,0,0-1-2.08c-.88-1.07-.7-3.61-2.77-3-1.8.55-1,2.64-1,4.07-.07,3.08-.07,6.16.07,9.24.15,3.46,1.09,6.55,5,7.46,2.12.5,2.71,1.87,2.71,3.8,0,3.47,0,6.94,0,10.41,0,2.54-1,4-3.7,4-8.09,0-16.18,0-24.27,0-2.37,0-3.55-1.26-3.57-3.58,0-3.65,0-7.31,0-11,0-1.73.65-3,2.45-3.41,4.64-.94,5.38-4.48,5.47-8.31C408.46,927.46,408.37,922.45,408.38,917.44Z"/><path class="cls-1" d="M562.43,920.16a10.55,10.55,0,0,0,1.66,1.2c5.23,2.34,7.45,6.45,7.11,12-.23,3.86.43,7,5.18,7.35,1.82.15,2.57,1.53,2.58,3.28,0,3.66,0,7.33,0,11,0,2.62-1.26,3.92-3.89,3.89-5.58-.07-11.19.1-16.76-.26-7-.46-11.34-4.35-11.51-11.23-.11-4.62,0-9.26-.32-13.86-.35-5.55-3.37-8.07-8.62-7.83-2.54.12-4,1-4,3.77,0,2.32.09,4.64,0,6.94s.52,4.17,3.16,4.68c1.85.36,2.42,1.68,2.41,3.41,0,3.47,0,6.94,0,10.41,0,2.71-1.34,3.77-3.92,3.82-10.59.2-21.17.54-31.76.67-3.89.05-4.37-.53-4.49-4.28-.11-3.47,0-6.94,0-10.41,0-2.3.92-3.39,3.34-3.76,4.54-.69,4.48-.86,4.47-5.37q0-16.49,0-33c0-4.63.09-4.84-4.4-5.35-2.79-.31-3.59-1.54-3.48-4.11.13-3.27.07-6.55,0-9.83,0-2.44,1.21-3.51,3.54-3.53l4.05,0c14.46,0,28.92,0,43.38,0,4.82,0,9.59.28,14.07,2.55,5.33,2.7,8.76,6.65,10,12.62a32.54,32.54,0,0,1,.53,9.77,14.47,14.47,0,0,1-7.66,11.58C565.5,917.26,563.54,917.75,562.43,920.16ZM533,904.92c0,.76,0,1.53,0,2.29,0,6.38,2.43,8,8.57,5.78a14.71,14.71,0,0,0,3.08-1.52c2.72-1.81,3.68-5.91,2.25-9.24-1.54-3.58-6.69-5.85-11.28-5-4.21.82-2.15,4.17-2.61,6.5A6.29,6.29,0,0,0,533,904.92Z"/><path class="cls-1" d="M151.86,920.14a16.74,16.74,0,0,0,2,1.36c5.28,2.35,7.07,6.67,7.16,12.12.09,5.22.15,5.28,5.2,7.07,1.49.53,2.31,1.37,2.34,2.87q.09,6.08,0,12.14c0,2.44-1.44,3.27-3.78,3.22-5.4-.14-10.8,0-16.19-.22-7.57-.35-11.07-3.6-12.33-11.13-.73-4.4-.09-8.85-.3-13.27-.3-6.27-3.37-9-9.08-8.55-2.27.2-3.61,1.08-3.6,3.51q0,4.05,0,8.1c0,1.7.53,3.12,2.35,3.47,3,.58,3.42,2.59,3.32,5.15-.1,2.89-.05,5.78,0,8.67,0,2.56-1,4-3.71,4.09q-16.45.38-32.9.78c-2.18.06-3.25-.95-3.29-3-.06-2.89,0-5.79,0-8.68,0-5.28,0-5.34,5.34-6.86,2.56-.73,2.36-2.68,2.36-4.61q0-11.27,0-22.54c0-3.28,0-6.56,0-9.83,0-5.42,0-5.51-5.43-6.73-2-.45-2.3-1.71-2.29-3.36,0-3.47.09-6.94,0-10.4-.08-2.79,1.23-3.76,3.87-3.68,3.27.11,6.55,0,9.83,0,12.52,0,25,0,37.58,0,4.82,0,9.59.38,14,2.75,5.47,2.93,8.83,7.28,9.78,13.46a40.35,40.35,0,0,1,.29,8.07c-.27,5.47-3,9.42-7.58,12.22C155.21,917.3,153.17,917.65,151.86,920.14Zm-29-15.21c0,1,0,1.91,0,2.86.06,5.82,1.71,7.08,7.3,5.6,4.53-1.19,7.17-4,7.18-7.77,0-3.88-3.14-7.38-7.41-8.26-5.76-1.18-7.07-.1-7.07,5.85Z"/><path class="cls-1" d="M62,918c7.87,3.73,11.94,9.84,12.57,18.22.78,10.28-4.46,18.1-14.34,21A36.21,36.21,0,0,1,50,958.78c-15-.08-30.06,0-45.09,0-4.73,0-4.76-.06-4.84-4.86,0-3.08,0-6.16,0-9.25,0-2.17.45-3.5,3.15-3.73,5-.41,5-.62,5-5.46q0-16.49,0-33c0-4.67,0-4.92-4.64-5.16C.72,897.18-.1,896.1,0,893.48c.14-3.27.11-6.55,0-9.82-.08-2.54.61-3.95,3.53-3.89,15.79.33,31.59-.48,47.37.49a42,42,0,0,1,8.41,1.87c13.46,3.68,15.46,23.3,6.07,31.86C64.28,915,62.87,915.74,62,918ZM34.1,933.13h0c0,1.74,0,3.47,0,5.2a2.55,2.55,0,0,0,1.92,2.57c4.43,1.4,10-1.73,10.81-6.21a7.62,7.62,0,0,0-2.72-7.78c-2.33-1.74-5.35-2.8-8.18-1.63-3,1.24-1.55,4.36-1.85,6.7A8.83,8.83,0,0,0,34.1,933.13Zm0-28.78h0c0,1.54,0,3.09,0,4.63a2.43,2.43,0,0,0,1.38,2.32c2.43,1.18,7.73-.15,9.56-2.47s1.56-7.35-.72-9.59c-1.92-1.87-6.38-2.8-8.65-1.69-2.6,1.26-1.27,3.7-1.56,5.65A7.35,7.35,0,0,0,34.1,904.35Z"/><path class="cls-1" d="M259.77,924.7c-.48,11.15-6.93,24.44-22.19,31.69-23.72,11.27-52.27-.85-57.31-28.78-2.46-13.62-.06-26.35,9.08-36.82,10.67-12.22,24.89-14.55,40.18-11.65C248.8,882.8,260,899.79,259.77,924.7Zm-30.21-5.89h-.16c0-1.92.06-3.85,0-5.77a64.24,64.24,0,0,0-.55-7.48c-.87-5.37-4.55-9.09-8.84-9.24s-7.91,2.61-9.08,8.1a70.48,70.48,0,0,0,.19,30.32,13.3,13.3,0,0,0,1.44,3.76c3.31,5.68,10.07,6,13.69.51a14.68,14.68,0,0,0,2.74-7.51C229.14,927.26,229.36,923,229.56,918.81Z"/><path class="cls-1" d="M817.49,937.37c0,5.58.08,11.17,0,16.76-.08,3.83-.66,4.58-4.36,4.4s-8.14,1.66-11.19-2.59c-1-1.39-2.37,0-3.53.68-14,7.91-42.3,3.85-52.57-15.52-5.42-10.23-5.75-21.12-3.63-32.08,2.43-12.62,9-22.52,21.26-27.57a39.87,39.87,0,0,1,28.23-1.22,10.14,10.14,0,0,0,7.13.21c4-1.39,8.39-.53,12.61-.39,1.81.06,2.7,1.32,2.71,3.1,0,8.67,0,17.35,0,26,0,2.35-1.33,3.48-3.62,3.56-1,0-1.92,0-2.89,0-7.46.1-7.49.11-9.75-7.18-1.29-4.17-3.8-7.37-8.11-8.18-5.05-.95-10-.58-13.72,3.89a20.13,20.13,0,0,0-4.46,9.89,58.07,58.07,0,0,0-.11,18.42c1.44,8.22,7,13.43,14.24,13.37a9.1,9.1,0,0,0,8.38-5.17c1.7-3.12.69-5-2.88-5.72-4.87-1-4.88-1-4.95-5.75,0-1.93.11-3.87,0-5.78-.24-3.09,1.3-4.12,4.13-4.09,7.71.07,15.42.14,23.12.07,2.92,0,4.18,1,4.09,4.05C817.38,926.19,817.49,931.78,817.49,937.37Z"/><path class="cls-1" d="M725.91,937.47c0,5.4.07,10.79,0,16.18-.08,4.4-.6,5-5.1,4.92-3.68-.06-7.73,1.19-10.57-2.74-.78-1.08-2.11,0-3.05.66-10,6.92-33.44,4.4-44.95-5.9-10.83-9.68-13.48-22-12.4-35.59.79-9.84,4.17-18.68,11.17-26,6-6.29,13.58-9.47,22-10.38,6.08-.67,12.35-.82,18.17,1.86,2.06,1,3.79.65,6,0,4-1.3,8.39-.5,12.61-.42a2.69,2.69,0,0,1,2.8,3c0,8.86,0,17.72,0,26.58a2.8,2.8,0,0,1-2.85,3c-2.88.13-5.77.12-8.66.1a3,3,0,0,1-3-2.26c-.44-1.28-.83-2.56-1.24-3.85-2.08-6.54-5.14-9.27-10.73-9.56-6.78-.35-11.09,2.19-13.85,8.18a14.61,14.61,0,0,0-1,2.7c-2.16,9.13-2.9,18.29.82,27.18,3,7.16,11.79,10,17.78,6.15a8.27,8.27,0,0,0,2.83-2.81c1.77-3.16.8-5.87-2.79-6.24s-4.61-2.08-4.46-5.28a54,54,0,0,0,0-6.36c-.22-3.08,1.35-4.12,4.15-4.1q11.55.09,23.11.1c2.44,0,3.4,1.17,3.37,3.56C725.87,925.92,725.91,931.7,725.91,937.47Z"/><path class="cls-1" d="M614.89,879.81c5,0,10,0,15,0,5.84,0,5.9.12,5.93,5.73,0,1.93,0,3.86,0,5.78,0,4.59,0,4.7-4.5,5.95-2,.54-2.32,1.73-2.31,3.38,0,3.86,0,7.71,0,11.57,0,8.09,0,16.18,0,24.28,0,2.63.42,4.57,3.66,4.57,2.51,0,3.19,1.66,3.16,3.88q0,4.9,0,9.83c0,2.92-1.41,4.17-4.26,4.16q-17.05,0-34.11,0c-2.88,0-4.25-1.32-4.21-4.22.05-3.27.05-6.55,0-9.82,0-2.25.72-3.83,3.22-3.83,3.27,0,3.61-2,3.6-4.63q-.08-17.62,0-35.26c0-2.58-.74-4.06-3.56-4s-3.44-1.75-3.33-4.2c.11-2.69,0-5.39,0-8.09.07-4.68.32-5,4.83-5.08C603.71,879.74,609.3,879.81,614.89,879.81Z"/><path class="cls-1" d="M121.68.24v853.5h-20.6V851.3c0-.31,0-.72,0-1.2V10c0-2.89,0-5.79,0-8.68-.33-1,.15-1.25,1-1.18Z"/><path class="cls-1" d="M263.92,202.55c4.32-.35,8.67-1.07,12.85.82C272.47,203.26,268.13,203.89,263.92,202.55Z"/><path class="cls-1" d="M366.78,545.53V463.45c0-5.53.1-5.88,5.33-7.13,13.28-3.17,26.51-6.75,39.95-9,7.43-1.26,14.79,1.61,21.33,5.54,16.48,9.91,23,24.87,22.82,43.72-.29,38.35-.11,76.7-.12,115,0,4.82,0,9.64.11,14.45.33,12.09-5.46,20.53-16.34,24.75a84.54,84.54,0,0,1-55.52,2.35c-11.53-3.39-17.57-12.57-17.58-25.53q0-41,0-82.09Z"/><path class="cls-1" d="M366.73,326.75q0-39,0-78a46.92,46.92,0,0,1,1-9.74c2.08-10.06,7.92-17.11,17.35-20.8,14.75-5.77,29.68-5.92,44.46.07,14.1,5.71,20.76,16.36,20.71,31.5-.08,25.62,0,51.24,0,76.87q0,17,0,34.1a49.83,49.83,0,0,1-2.5,16.48c-3,8.6-9,14.65-17.17,18.58-8.9,4.27-18.33,7-27.84,9.38-9.7,2.44-19.49,4.53-29.24,6.76-1.13.26-2.26.48-3.4.71-2.17.45-3.31-.37-3.31-2.66,0-3.47,0-6.94,0-10.41Q366.74,363.17,366.73,326.75Z"/><path class="cls-1" d="M511.09,1060.91c0,3.81.57,7.67-2,11.1-3,4-6.86,6.11-11.9,5.61-5.21-.51-8.32-3.69-9.91-8.44a18.63,18.63,0,0,1,.19-12.48c2.92-8,13.46-11.38,20.73-6.81a5.37,5.37,0,0,1,2.89,4.67C511.1,1056.67,511.09,1058.79,511.09,1060.91Z"/><path class="cls-1" d="M375.51,1060.49c0,1.93.15,3.87,0,5.78a12.78,12.78,0,0,1-11.83,11.46c-6,.45-10.44-3-12.13-9.27a20.79,20.79,0,0,1-.47-8.57c1.57-11,12.2-14.45,21.15-10.21a5.25,5.25,0,0,1,3.26,5c0,1.93,0,3.85,0,5.78Z"/><path class="cls-1" d="M544,1060.72c-3.06,0-6.12,0-9.19,0-1.82,0-2.83-.72-2.64-2.79.46-5.15,6.28-9.88,12.34-9.93s11.76,4.65,12.12,10.13c.14,2-1.08,2.66-2.86,2.65H544Z"/><path class="cls-1" d="M293.13,1062c.67,0,1.24,0,1.82,0,6.2.26,7.82,2.89,5.21,8.5a12.53,12.53,0,0,1-13.79,7.06c-3.42-.67-6.08-3-6.33-5.84a8.1,8.1,0,0,1,3.72-7.93C286.64,1061.85,289.91,1061.7,293.13,1062Z"/><path class="cls-1" d="M122.84,982.48V1429a171.72,171.72,0,0,1-16.91,8c-4.27,1.64-5.64,1.11-5.91-3.35-.07-.94,0-1.93,0-2.9v-433h0V982.48Z"/><path class="cls-1" d="M709.31,989.33v442.46c0,7.82-.43,7.82-7.74,4.66-6-2.61-11.94-5.48-17.85-8.35V1423c0-1.16,0-2.32,0-3.48v-437c6.12-.07,12.25-.22,18.35-.27C709.05,982.24,709.31,982.52,709.31,989.33Z"/><path class="cls-1" d="M683.72,1423v-3.48C683.72,1420.72,683.77,1421.88,683.72,1423Z"/><path class="cls-1" d="M622.86,982.36c-148.28,0-296.53-.39-444.83.12V1404c3.23-1.16,6.46-2.34,9.6-3.79,20.36-9.46,40.91-18.55,61.39-27.79q22-9.95,44.07-20c18.36-8.37,36.62-16.88,55-25.23,15.73-7.11,31.6-13.89,47.23-21.25a12.12,12.12,0,0,1,11.39,0c6.78,3.18,13.6,6.22,20.48,9.23,15.1,6.64,30.25,13.15,45.35,19.83,17.2,7.6,34.32,15.37,51.52,23q35.57,15.74,71.19,31.36c10.75,4.75,21.54,9.48,32.41,13.92v-421Zm-360.57,96.46a2.28,2.28,0,0,1-2.54,1.86,2.1,2.1,0,0,1-2.09-2.27,28,28,0,0,1,.19-2.87c0-5.38,0-10.78.07-16.16,0-2.42-1-3.5-3.5-3.48-8.1.08-16.18.15-24.26,0-2.78,0-3.81,1-3.74,3.74.12,5.37.07,10.78.07,16.16a14.67,14.67,0,0,1-.14,3.45,1.92,1.92,0,0,1-2.22,1.4,1.85,1.85,0,0,1-1.93-1.72,17.55,17.55,0,0,1,0-2.29v-21.39h0V1033.9a19.58,19.58,0,0,1,.09-2.87,1.87,1.87,0,0,1,2-1.66,1.93,1.93,0,0,1,2,1.64,18,18,0,0,1,.14,3.45c0,4.63,0,9.24-.1,13.87-.07,2.46,1,3.47,3.38,3.47,8.3,0,16.57,0,24.85,0,2.46,0,3.4-1.2,3.33-3.59-.12-4.63-.1-9.26-.12-13.87a26.42,26.42,0,0,1,0-3.45,1.86,1.86,0,0,1,1.5-1.55,2.21,2.21,0,0,1,2.46,1.07c.7,1,.53,2.19.53,3.35q0,21.39,0,42.77A10.25,10.25,0,0,1,262.29,1078.82Zm42.21,1.61a2.24,2.24,0,0,1-3-.74c-.58-.75-.92-1.72-2.19-2-4.3,3.37-9.17,5-14.86,3.59-4.54-1.13-7.82-3.45-8.49-8.27s.77-9.19,5-12.14a17.35,17.35,0,0,1,11-2.67,10.59,10.59,0,0,0,2.87,0c2.12-.46,5.28,2.61,6.25-1.47.69-2.94-2.3-7.31-5.36-8-4.17-1-8.39-1.11-12.4.91-1.61.83-3.45,3-4.87.41-1.67-3.06,1.95-3.49,3.38-4.17,5-2.39,10.49-2.39,15.8-.87,4.82,1.38,7.23,5.38,7.26,11.22,0,5-.1,10-.1,15,0,2.1-.39,4.22.43,6.29C305.66,1078.58,305.8,1079.76,304.5,1080.43ZM335.35,1049c-9,1.57-12.42,5.62-12.44,14.83,0,4.42,0,8.86,0,13.3,0,1.8.15,3.73-2.46,3.59-2.17-.14-2-1.83-2-3.45,0-9.62,0-19.27.05-28.92,0-1.3-.34-2.94,1.37-3.4,2.15-.61,2.46,1.18,2.95,2.65a19,19,0,0,0,1.16,2.12c3.44-3.3,6.87-5.4,11.16-5.35,1.31,0,3-.07,3.09,1.81S337.06,1048.69,335.35,1049Zm43.57,31.33c-1.35.73-2.83.56-3.43-1-1-2.61-2.17-1.86-3.83-.66-7.94,5.82-18.72,3.31-23.45-6-3.06-6-1.76-17.37,2.58-22.5,4.82-5.72,12.54-7.63,20.55-5,3.76,1.19,3.86,1.19,4-2.6.07-3.47,0-7,0-10.4,0-1.23.25-2.53,1.64-2.65,1.76-.15,2.2,1.25,2.2,2.73q0,10.66,0,21.39h-.24c0,5.6.05,11.17,0,16.77,0,2.31-.24,4.6.63,6.85C379.93,1078.31,380.17,1079.61,378.92,1080.31Zm41.12-8.87a18.51,18.51,0,0,0,24.37,3.06c1.71-1.18,3.33-2.56,5.06-3.74a2.17,2.17,0,0,1,3.11.19c1,1.11.39,2.18-.43,3.07-4.1,4.32-8.85,7.4-15,7.81-12.32.85-21.71-5.28-25.85-16.91a28.79,28.79,0,0,1,10.25-33.33,19.59,19.59,0,0,1,13-3.52c6.83-.49,12.33,2.24,17.06,6.92,1.06,1.08,2.43,2.41,1.11,4s-3.38,1.08-4.51-.37c-1.81-2.31-4.42-3.18-6.73-4.65-5-3.21-9.84-2.53-14.6-.12C413.24,1040.83,409.86,1059.71,420,1071.44Zm47.57,9.21c-2.1-.07-2.19-1.69-2.15-3.35.29-9.6.46-19.2.08-28.8a8.27,8.27,0,0,1,.09-1.72,2.14,2.14,0,0,1,2.29-2.07,2.12,2.12,0,0,1,2,2.36c.05,3.65,0,7.29,0,11v5.18H470c0,4.61,0,9.22,0,13.82C470,1078.82,470.19,1080.75,467.61,1080.65Zm-.29-41.17c-1.73-.2-3.11-2.51-2.82-4.88.24-2,1.52-2.89,3.59-2.79s3.33,1.37,3.12,3.73C471,1038.1,469.4,1039.72,467.32,1039.48Zm48.08,15.41h0c0,7.31,0,14.64,0,21.95,0,4.13-1.09,4.75-4.68,2.51-1.59-1-2.46-1.3-4.46-.17-10.64,6.15-21.71.56-23.64-11.55a24.9,24.9,0,0,1,.05-9.19,17.78,17.78,0,0,1,24.86-12.93c2.75,1.2,3.33.84,3.43-2.15.14-3.64,0-7.31.07-10.95,0-1.38,0-2.94,1.84-3.09,2.07-.17,2.55,1.33,2.58,3Zm43.22,9.48c-4,0-8.08,0-12.11,0v0c-3.66,0-7.33-.07-11,0s-4.25,1.11-3,4.7a13.65,13.65,0,0,0,15.92,8.3,16.43,16.43,0,0,0,7.21-3.45c.87-.75,2.13-1.28,3.07-.17,1.11,1.3.46,2.56-.68,3.47a19.57,19.57,0,0,1-14.47,4.49,17.67,17.67,0,0,1-16-13.7c-1.93-9.46,1.31-17.88,8.74-22a15.8,15.8,0,0,1,17,.53c5.53,3.45,7.67,8.9,8.16,15.13C561.66,1063.6,560.46,1064.39,558.62,1064.37ZM590.75,1049c-.36,0-.77,0-1.13,0-7.19.67-11.56,5.16-11.7,12.27-.1,5.19,0,10.38.1,15.56,0,1.52.29,3.14-1.62,3.84-.82,1.28-1.5,1.25-2-.22a1,1,0,0,1-.56-.82c-1.13-1.28-.82-2.56,0-3.83q-.11-13.24-.19-26.49c0-.58,0-1.16,0-1.74,0-1.16,0-2.48,1.47-2.72s1.93.87,2.14,2.12c.15.72.39,1.45.58,2.1,2.25.36,3.24-1.38,4.59-2.27a14,14,0,0,1,8.15-2.36c1.21,0,2.39.33,2.48,1.81A2.36,2.36,0,0,1,590.75,1049Z"/><path class="cls-1" d="M707.28,847.27v6.47H683.62V.05h1.52c.8,0,12.33.12,17.32.36,4.1.19,4.68.72,4.8,4.7.07,2.51,0,5,0,7.53V844.38C707.26,845.34,707.21,846.31,707.28,847.27Z"/></svg>