<svg id="Layer_1" data-name="Layer 1" xmlns="http://www.w3.org/2000/svg" viewBox="0 0 3016.19 1436.52"><defs><style>.cls-1{fill:#a62b2a;}</style></defs><path class="cls-1" d="M2003.79,1038.85c-7.61,17.42-14.54,35.18-23,52.18-9.25,18.6-18.87,37.18-30.25,54.5-11.24,17.1-25.26,33.45-49.26,25.56s-24.17-29.76-24.65-50c-.33-14,1.2-28.14,2.14-47-13.71,22.07-24.07,41.35-36.94,58.78-14.52,19.64-29.37,39.92-47.86,55.38-10.08,8.43-31.07,13.91-41.56,9-10.75-5.08-21.14-25-20.36-37.65,2.16-35.32,9.64-70.39,16.22-105.33,2.18-11.61,4.19-20.61-11.34-21.65-20.53,27.88-39.92,57-62.27,83.61-16.61,19.81-35.45,38.55-56.12,54-46.53,34.76-85.22,17.56-92.9-39.45-.46-3.41-1.05-6.8-1.89-12.23-15.35,20-28.37,38.86-43.47,55.92-14.32,16.18-31,34.29-55.15,25.37-24.93-9.22-22.22-34.44-23-55.78-.45-12.37,1.1-24.81,2.12-44.09-11,16.8-18.24,28.31-26,39.41a184.31,184.31,0,0,1-16.78,20.86c-13.51,14.27-28.19,29.65-49.87,21.27-21.31-8.24-22.93-29.2-24-48.91-.41-7.86-.07-15.76-.07-26.09-16.82,21.25-30.83,41.11-47.09,58.92-16.85,18.44-37.44,36.87-64,24.55-26-12-22.9-39.51-21.44-63.22,1.12-18.13,5-36.1,8.08-56.85-26.44,35-49.23,68.95-76.11,99.3-18.43,20.8-40.53,40.19-64.61,53.77-45.24,25.5-84.39,6.74-97.09-43.7-12.55-49.79-6.27-99.62,7.45-147.82,12.95-45.5,30.71-89.64,47.39-137.32-21.63-16-43.31-41.33-79.47-27.88-17.71,6.59-24.75,20-17.56,39.71l-7.32,2.47c-2.64-5.63-7.81-11.4-7.49-16.86,1.62-27.65,29.76-50.49,58.83-43.67,22.4,5.25,43,18.2,67.07,28.92,10-13.17,22.08-30.64,35.74-46.8,24.47-29,53.12-52.12,91.71-59.68,52.66-10.32,82.78,22.92,67.31,74.28-21.65,71.86-94.29,105.66-174,77.88-10.78,29.56-24.48,58.55-31.78,89.07-11.18,46.78-18.07,94.6-26.43,142-1,5.75-.13,11.91.34,17.84,3.85,48.82,31.4,63.27,72.12,36.38a223.38,223.38,0,0,0,45.33-39.32c46.47-53.57,87.78-110.78,113.41-177.73,4.91-12.83,12.58-17.81,25.73-13.58,13.76,4.43,18.71,13.22,14.4,27.52-12,39.85-23.9,79.72-35.18,119.78a130.62,130.62,0,0,0-5,33c-.11,7.4,3.62,14.87,5.63,22.3,7.56-2.26,17.33-2.29,22.27-7.2,17.32-17.18,35.06-34.63,48.72-54.65,15.79-23.15,27.07-49.34,41-73.82,8.41-14.78,16.57-30.13,27.51-42.94,31.78-37.18,64.33-35.93,93.94,3.54,11.55-32.87,21.17-65.48,34.4-96.56a1013.46,1013.46,0,0,1,51-103.88c8.87-15.6,22.88-29.82,37.71-40.16,26.79-18.69,54.66-3.25,52.16,29.29-1.48,19.34-6.94,40.9-17.78,56.47-24.53,35.23-54.16,66.85-80.37,101-12.35,16.08-25.54,33.31-31.47,52.18-15.34,48.85-27.61,98.73-39.31,148.63-2.61,11.13,2.14,24,3.5,36,11.19-5.79,26.38-8.74,32.87-17.87,24-33.74,45-69.54,67.29-104.53,13.82-21.75,24.93-46.26,42.71-64.1,11.53-11.58,32.58-16.64,50-18.26,9.63-.91,25.9,9.16,29.36,18.09,3.91,10.08,1.09,29.5-6.42,35.87-15.74,13.34-36.72,20.36-55,30.88-7.35,4.23-17.47,9.78-19.17,16.53-5.39,21.37-9.79,43.57-10,65.5-.19,19.29,11.28,25.91,28.54,16.77,18.09-9.57,36.55-21.26,49.88-36.4,26-29.48,49.12-61.56,71.89-93.67,4.29-6,4.11-18.24,1.26-25.83-7.76-20.72-11-41.33,2.21-59.66,5.26-7.33,18-9.25,27.39-13.64,3.79,8.89,11.54,18.26,10.53,26.56-2,16.62-8.85,32.65-14.52,51.71,10.16,3.92,20.86,8.24,31.69,12.19,13.46,4.91,17.78,12.28,13.11,27.39-10.53,34-19.68,68.58-27.55,103.34-2,9,2.77,19.44,4.44,29.22,9.59-4.3,21.81-6.2,28.37-13.31,46.4-50.39,79.73-109.06,103-173.23,5.41-14.92,11-24.07,28.18-19.48,18.43,4.92,16.57,17.37,12.93,31.7-9.88,38.86-19.5,77.79-28.17,116.94-1.88,8.53.65,18,1.15,27.11l8.15,3.92c9.28-10.36,21.22-19.36,27.34-31.33,19.25-37.7,36.16-76.6,54.32-114.86,6-12.72,10.88-27.25,20.48-36.65,7.45-7.3,22.47-12.58,32.29-10.41,15,3.31,11.44,18.06,8.17,30q-18.51,67.52-36.88,135.08l6.15,4.77q56.34-59.27,112.67-118.52l2.49,1.09c-4.36,7.8-7.35,16.91-13.31,23.18-31.71,33.39-64.64,65.61-96.06,99.25-9.63,10.31-18.19,23-23.13,36.07-22.47,59.7-41.42,120.82-66,179.6-9.64,23-29.1,42.89-47.19,61.11-15.92,16-38,22-59.78,11.16-22.53-11.25-25.75-33.17-24.5-55.68,2.72-49.34,28.51-87.19,63.17-119.25,24.53-22.7,51.73-42.51,77.39-64,5.41-4.54,11.72-10.24,13.46-16.55,12.44-45,23.8-90.21,35.5-135.37ZM1020.58,903.53c26.45,20.51,43.34,24.87,68.49,19.12,41.28-9.44,69.89-34.47,86.64-72.91,11-25.29,8.34-48.78-5.5-60-14.75-11.94-40.17-10.36-62.41,4.45-7.37,4.91-15.47,9.88-20.62,16.78C1064.41,841.52,1042.58,872.77,1020.58,903.53Zm943.7,303.18-5.73-3.74c-27.23,23.94-55.42,46.9-81.42,72.12-25,24.22-42.2,53.77-47.84,88.86-4.32,26.89,3.11,50.23,17.28,56,15.41,6.29,34.81-3.54,50.51-28.4C1932.92,1334.8,1948.05,1270.51,1964.28,1206.71Zm-639.18-33.9c12.55-8.26,21.3-11,25.05-17,22.53-35.61,45.46-71.15,64.66-108.57,5.38-10.49,1-28-3.14-40.88-5.26-16.47-18.39-18.59-31.36-6.63-6.44,5.93-13.08,13.16-16,21.14-12.91,35.44-25.28,71.12-36.12,107.23C1324.64,1140,1326.25,1153.52,1325.1,1172.81Zm165.16-233.55,6.63,3.44c38.25-37,74.13-75.86,92.28-127.68a54.61,54.61,0,0,0,2.19-24.14c-.75-5.89-4.43-14.37-8.88-16s-12,3.19-16.9,6.88a37.21,37.21,0,0,0-10.94,13.91C1533,843.44,1511.66,891.38,1490.26,939.26Zm96,114.3q3.63,4.38,7.28,8.74c17.44-10.73,35.73-20.37,51.77-32.89,4.38-3.42,2-15.48,2.73-23.58-8.16.21-19.7-2.94-23.88,1.25C1610.15,1021.17,1598.72,1037.87,1586.29,1053.56Zm146.18-57.69,6.85.64c5.82-14.29,16.33-28,7.92-44l-9.37-1.21Z"/><path class="cls-1" d="M1195.75,940.68c14.94-11.15,23.22-19.85,33.32-23.36,3.14-1.09,17.28,14.51,15.82,17.85-4.41,10.09-13,19.57-22.28,25.53C1220,962.35,1209.07,950.88,1195.75,940.68Z"/><path class="cls-1" d="M2675.68,124.34c-46,17.22-50.37,17.39-78.77,2.48,3.57-10.2,7.15-20.6,10.86-31,5.12-14.3-.93-23.13-14.09-27.85-12.8-4.59-21.67-.21-26.13,12.9-3.52,10.38-7.32,20.66-11.25,31.69l-48.86-10.34c2.61-10.2,5.58-18.66,6.84-27.37,2.45-16.9,1.37-33.63-14.81-43.77-16.87-10.58-32.69-3-44.57,8.82-14.12,14-29.25,29-37.38,46.67-25.47,55.23-48.66,111.58-71.23,168.09-23.68,59.3-54.63,114.07-97.24,161.59-7.35,8.2-21,10.76-31.71,15.93-1.7-11.27-6.89-23.36-4.49-33.67,10.45-44.87,23.13-89.22,35-133.77,3.94-14.82,17.41-31.45-5.75-42-24.53-11.15-27.52,10.45-34,26-30.44-39.24-62.52-40.37-94.2-3.28-11.42,13.37-19.86,29.35-29.16,44.44C2062.09,326.7,2040.35,364,2017,400.14c-7.1,11-17.55,20.43-28.15,28.32-14,10.38-22.36,5.82-22.94-11.16a78.11,78.11,0,0,1,2.16-22.16c8.28-31.65,16.13-63.49,26.28-94.56,5.28-16.16.62-23.84-14-28.72-10.31-3.44-20.43-7.45-30.55-11.17,5.65-18.89,12.73-34.88,14.45-51.42.92-8.82-7.43-18.61-11.6-28-9.15,4.91-23.88,7.95-26.3,15.13-5.14,15.31-9.18,34.72-4,48.85,6.7,18.12,4,30.53-5.88,44.5-5.16,7.26-9,15.47-13.82,23-31.63,48.83-63.08,98-110.28,133.78-17.32,13.14-37.11,26.6-59.32,15.29-21.28-10.85-22.07-34.19-22.19-55.1-.49-84.43,26-162.2,59.09-239.64,80,28.46,154.76-8.28,174-82.88,12.22-47.39-15.75-78.13-64.32-70.5-31.41,4.93-57.71,20.45-79,43.07-19.75,21-37.09,44.2-53.55,64.08-22.23-9.94-43.37-23.27-66.37-28.71-29-6.85-57.2,16.47-58.51,44.07-.26,5.33,5.07,10.93,7.82,16.41l7-2.75c-7.46-19.92.59-32.07,17.9-39.67,23.42-10.27,53.55,1.79,79.51,30.75-14.6,39.28-30.22,77.06-42.68,115.85-1.3,4.06-2.51,8.12-3.69,12.2-38.06,57.6-61.42,124.53-120.36,165l-9.91-2.27c0-8.85-1.63-18.08.28-26.5,8.42-37,19.1-73.51,26.42-110.7,4-20.08,5.67-41.51,3.22-61.71-3-24.52-26.22-33.88-46.73-19.93-10.67,7.27-19,18.58-26.92,29.13-7.08,9.38-12.2,20.24-20,33.54,0-5.66-.38-7.24.06-8.55,5.14-15.39,11-31.7-10.79-38.6-23-7.27-24.29,11.84-29.82,26.23-22.87,59.53-54.41,114.14-97.07,161.62-7.39,8.22-21,10.87-31.7,16.09-1.74-11.25-7-23.32-4.61-33.61,10.43-44.87,23.05-89.22,35-133.74,4.17-15.56,17.83-33-7.63-42.86-23.93-9.22-25.5,12.24-32.07,26.49-31.36-39.44-63.67-40.07-95.56-1.49-11.69,14.14-19.87,31.19-29.71,46.87-24.07,38.37-47.25,77.35-72.83,114.68-8,11.64-22.48,18.81-34,28l-7.88-4.47c0-10.65-2.12-21.82.36-31.86,13.35-54.12,27-108.18,42.48-161.72,3.9-13.51,13.41-26,22.42-37.32,28.22-35.42,59-68.93,85.52-105.52,10.78-14.86,16.51-35.46,18.28-54,1.12-11.84-6.07-30.12-15.39-35.69S1200.48,3.3,1190.63,10c-14.85,10-29.34,24.65-36.91,40.67C1127.43,106.27,1099.91,162,1081,220.29c-19.26,59.36-51.23,108.72-93.54,152.27-15.21,15.65-34.4,28.1-53.44,39.13-15.29,8.86-27.73.62-27.31-16.48.52-21.26,5.18-42.45,8.36-63.62,1.86-12.42,9.24-16.58,21.69-20.71,19.71-6.55,40.92-15.9,55-30.39,21.61-22.23,7.94-53.56-23-53.2-17.65.21-38.82,7.63-51.85,19.2-17,15.13-28,37.28-40.83,56.93-23.09,35.43-44.65,71.91-68.92,106.49-7.52,10.72-21.76,16.71-32.92,24.87l-6.52-5.25c1.13-10.8,1.07-21.89,3.63-32.34,5.48-22.39,13.42-44.2,18.31-66.7,6-27.53,12.22-55.41,13.6-83.37.57-11.65-8.66-30.89-17.87-34.14-12.1-4.28-32.77-.9-42.24,7.59-16.68,14.94-28.12,35.94-40.83,55-6.24,9.37-10.41,20.12-15.52,30.24,9.86-44.07,14.92-88.46,52.12-122.07,28.25-25.53,51-58.19,71.87-90.44,10.67-16.48,15.55-38.85,16.62-58.9C829,5,803.41-9.48,778.91,6.76,762.73,17.49,746.64,32.63,738,49.62c-24.55,48.22-50.52,96.79-66.19,148.2-21.12,69.29-56.6,129.09-99.65,185.49-23.52,30.81-48.54,60.85-85.3,77.05-28.26,12.46-48.92,4.06-53.06-26-4-29-3.27-59.36.41-88.49,7.87-62.29,28-121.29,54.35-178,81.83,25.19,152-7.78,173-80.06C676.11,37.28,646.58,4.59,595,14.27c-37.79,7.09-66.37,29.23-90.57,57.47-14.39,16.8-27,35.08-37.89,49.29-23.87-10.49-45.14-23.72-68.23-29-28.86-6.6-57.09,17.47-57.82,44.89-.13,4.82,5.24,9.78,8.07,14.68l6.73-2.53c-7.83-20.28,1.48-31.8,18.59-39.11,23.37-10,55.58,3.48,77.92,30.35-16.11,46.06-33.51,89.58-46.42,134.4-13.87,48.21-20.3,98-8,147.88,12.94,52.67,53.23,71.07,100.2,43.45,23.26-13.67,44.68-32.6,62.39-53.09,27.75-32.09,51.65-67.51,78.49-103.27-2.18,10.75-4.28,19.39-5.64,28.14-3.54,22.78-8.15,45.55-9.39,68.48-.49,8.92,4.58,23.31,11.21,26.39,14.23,6.61,20.52-5.56,23.94-18.29a162.72,162.72,0,0,1,8.06-23.16c20.89-47.58,41.14-95.47,63.81-142.19,4.63-9.54,18.62-14.53,28.3-21.62,1.41,11.78,5.88,24.17,3.66,35.22-7.76,38.63-19.09,76.55-26.55,115.23-4.4,22.88-10,48.75,15.06,64.89,17,11,39.48,2.23,63.26-25,16.89-19.33,31.37-40.77,48.43-63.26.68,10.07.76,18,1.82,25.8,6.53,48.46,41.92,66.06,83.58,40.11,16.85-10.49,32.24-24.16,46-38.57,19.27-20.18,36.41-42.39,57.09-66.85-3.19,23.62-7.35,43.17-8.12,62.85-1,24.95-5.32,55.07,23.87,66.16,27.54,10.47,45.45-12.37,61-31.46,16.11-19.82,30.27-41.23,45.82-62.7,2.27,19,2.28,37,6.93,53.64,6.89,24.73,27.9,32.73,48.62,18,14.22-10.1,25.88-24.34,37.07-38.06,8.89-10.9,15.34-23.8,26.15-41.05,0,29.16-2.43,51.77.59,73.62,4.11,29.72,27.62,39.14,52.66,22.55A112.76,112.76,0,0,0,1373.28,413c20-26.6,38.47-54.28,59.35-84.07-3.8,19.13-8.32,35.52-9.75,52.18-.58,6.86,6,20.55,8.47,20.36,9.73-.74,19.88-4.56,28.32-9.77,4-2.46,4.18-10.75,6.57-16.19,18.53-42.2,36.64-84.59,56.19-126.32,4.42-9.41,14-16.42,21.13-24.53l7.5,3.74c-.65,10.63,0,21.53-2.21,31.84-5.17,24.76-13.13,49-17.17,73.9-4.49,27.65-9.09,56-7.67,83.69,1.33,26,24.16,37,47.06,24.06,16.33-9.27,32.91-22.14,43-37.58,24.5-37.42,46.42-76.54,68.72-115.39-8.86,37.77-12,76.4-7.68,115.65,7.73,69.63,57.11,93.39,115.48,55.68,7.48-4.83,15.53-9.64,21.19-16.28,27.52-32.19,55.35-64.2,81-97.88,16.94-22.25,30.33-47.19,45.83-71.76l17.31,9c-3.33,12.91-7.58,24.9-9.39,37.26-4.3,29.33-11.24,59-10.12,88.23,1.45,37.68,31.86,49.9,60.73,25.65,16.85-14.16,30.28-32.6,44.26-49.91,8.91-11,16-23.54,23.94-35.39,3.93,14.91.94,29.12,4.74,41.19,4.13,13.1,12.25,30.43,22.93,34.43s28.77-3.37,39.41-11.37c13.25-10,22.64-25.35,32.81-39.06,6.22-8.39,10.77-18,16.07-27.09,3.83,24.24,1.41,46.85,4.42,68.71,4.1,29.76,28.79,40.67,52.31,22.29,19-14.84,34.75-34.42,49.67-53.66,13.86-17.86,24.71-38.05,32.63-50.52-3.35,56.21-8.51,118.33-9.84,180.54-.39,18.22,7.28,38.22,16.27,54.66,13.18,24.1,44.55,26.42,62.36,5.43,8.75-10.31,15.87-24.26,18-37.5,8.82-54.53.08-105.25-38.38-146.29,22.44-10.21,46.74-18.27,67.67-31.62,21.62-13.8,40-32.75,60.54-50.09-2.07,10.44-5,20.41-5.88,30.56-2.48,28.83-7.36,58-5.25,86.56,2.53,34.29,28.27,43.6,55.17,22.28,10.4-8.23,20.83-17.79,27.65-28.94,29.46-48.18,57.64-97.15,86-146,1.33-2.29.17-6,.17-9.1-8.24,5.14-11.84,11.87-15.75,18.43-26.64,44.71-52.43,90-80.57,133.71-8.45,13.13-23.48,22-36.95,34.18-16.1-38.46,32.08-233.4,72.43-308.75C2660.8,150.25,2667.32,148.83,2675.68,124.34ZM1834.4,62.78c8.24-10.92,20.2-19.89,32.11-27,18.6-11,39.71-16.73,58.1-.84,18,15.55,13.54,36.55,6.1,55.71-14.87,38.32-42.11,63.62-82.17,74.81-25.29,7.06-48.26,3.59-74-16.36C1794.9,119.5,1813.6,90.35,1834.4,62.78Zm-637.23-21.7c4.84-9.9,19.23-15.14,29.22-22.52,2.19,12.54,9.85,27.52,5.54,37.15-12.6,28.17-28.47,55.23-46,80.73-12.86,18.77-30.28,34.43-45.67,51.47l-7.75-3.64C1153.84,136.42,1174.2,88.11,1197.17,41.08ZM961.56,252.15c4.57-4.46,16.83-1,25.57-1.19-1.21,8.14.52,20.06-4.18,23.74-15.58,12.22-33.48,21.46-50.49,31.84l-7.86-8.75C936.7,282.35,947.65,265.73,961.56,252.15ZM778.34,44.87C783.8,33.71,799,27.3,809.65,18.71c1.49,14.58,7.75,30.7,3.62,43.46-16.48,50.94-53.34,88-89.94,124.73L717,182.55C737.21,136.53,756.28,90,778.34,44.87ZM559.6,55.15c5.15-6.9,13.25-11.87,20.62-16.78C602.51,23.56,627.9,22,642.63,34.05c13.78,11.24,16.43,34.77,5.38,60.06C631.23,132.55,602.6,157.63,561.3,167c-23.67,5.36-45.31,1-68.71-18.74C515,117,536.8,85.7,559.6,55.15Zm655.47,357.68c-.94-8.46-3-15-2.15-21.15,6.21-46.89,19.06-91.94,44.28-132.17,6.15-9.81,19.9-14.85,30.16-22.08,6,11.22,15.63,21.93,17.27,33.75C1309.67,307.45,1252.26,399,1215.07,412.83Zm722.19-172.78q2.82-22.19,5.62-44.38l12.22,1.89q-4.51,21.91-9,43.81Zm168.2,173.15c1.09-14.78-.28-26.89,3.16-37.42,12.82-39.34,25.87-78.74,42-116.79,4.09-9.65,19.77-14.4,30.12-21.4,5.8,11.37,15.19,22.27,16.73,34.19C2202.19,308.51,2143.83,400.46,2105.46,413.2ZM2467.13,66.28c4.58-9.48,18.19-14.6,27.64-21.72,2.45,12.28,8,25,6.45,36.74-1.56,11.52-9.6,22.58-16.26,32.91-14.95,23.22-30.21,46.29-46.53,68.55-8.2,11.18-19,20.46-28.61,30.6l-7.05-3.86C2424,161.65,2444.37,113.39,2467.13,66.28Zm-85.22,359c18.7,36.45,22.49,75.11,13,114.91-1.53,6.39-3.49,14-7.94,18.05-6.55,6-16.07,13.68-23.29,12.74-6.83-.89-17.22-11.73-17.58-18.63a964.57,964.57,0,0,1,.21-97.54c.92-18.38,5.84-36.55,10.24-62.36C2368,407,2376.75,415.2,2381.91,425.25ZM2505.76,268c-27.08,59.6-76.87,95.8-147.36,110.73,12.59-46.73,23.9-89.41,35.79-131.94,1.29-4.61,5.68-8.47,9-12.4,30.5-36.31,61.24-72.43,91.56-108.9,11.46-13.78,22.79-14.39,56.43-.37C2536.15,173.73,2526.11,223.21,2505.76,268Z"/></svg>