<svg id="Layer_1" data-name="Layer 1" xmlns="http://www.w3.org/2000/svg" viewBox="0 0 1438.58 1425.94"><defs><style>.cls-1{fill:#a62b2a;}</style></defs><path class="cls-1" d="M962.91,1024.5c1,2.28,1.9,5,3.7,6.4,1.4,1.11,4.13.57,6.27.76a37.41,37.41,0,0,0,.23-5.06,10.89,10.89,0,0,0-1.21-3.2c-6.73-15.59-13.73-31.06-20.12-46.78-5.52-13.59-11.3-27.18-15.24-41.26-5.87-21-9.66-42.47-13-64-3.19-20.35-4.7-40.53-2.11-61,2.22-17.67,6-34.82,14.66-50.57,7.11-12.92,14.71-25.69,26.25-35.07,8.85-7.2,18.65-13.35,28.47-19.22,12.33-7.38,23.72-15.78,33-26.82,32.21-38.4,59-80.17,79-126.24,10.16-23.39,18-47.57,25.23-71.94a257.12,257.12,0,0,0,8.58-41.57c2.19-18,4.42-36,3.46-54.24-.38-7.33.1-14.71-.16-22.05-.69-19.27-2.37-38.54-6.49-57.32A353.94,353.94,0,0,0,1118.92,256c-12.07-31.92-29-61.06-51.65-87A339.86,339.86,0,0,0,979,97.41c-19.33-11-39.58-20-60.26-28.1-8.09-3.15-16.26-6.16-24.55-8.69-8.94-2.73-18.06-4.86-27.12-7.19-9.52-2.44-18.94-5.51-28.61-7-16.28-2.61-32.72-4.26-49.1-6.25a64.86,64.86,0,0,0-8.24-.5c-15.38.08-30.77.24-46.15.39-3.44,0-6.89,0-10.31.23-10.74.85-21.48,1.81-32.21,2.8-8.67.8-17.38,1.4-26,2.62-10.19,1.45-20.3,3.47-30.44,5.26-6.3,1.11-12.58,2.27-18.87,3.42s-12.68,1.9-18.85,3.51c-12.34,3.23-24.54,7-36.82,10.4a405.57,405.57,0,0,0-55.27,20.21c-34.61,15.36-66.36,35.12-94.45,60.67-29.73,27-53.82,58.19-70.47,94.93-6.91,15.23-12.87,30.77-16.79,47.05-2.84,11.77-6.12,23.49-8,35.42-1.89,11.75-2.31,23.73-3.37,35.61a78.06,78.06,0,0,0,.49,15c.14,1.37.08,2.75.09,4.13a760.9,760.9,0,0,0,7,92.71,34,34,0,0,1-2.83,18.77c-7.78,17.5-19,33-28.61,49.42-17.46,29.93-35,59.8-51.82,90.11-6.08,11-10.29,23-14.78,34.8-3,7.89,1.45,22.16,8.5,26.44,5.57,3.39,11.43,6.88,18.39,7.16a118.36,118.36,0,0,1,13.06.9c8.59,1.32,17.2,2.7,25.67,4.65,6.44,1.48,10.93,6,13.15,12.13a35.66,35.66,0,0,1,2,18.31c-1.12,6.33-1.92,12.74-3.52,18.94-2.37,9.24-.06,16.75,7.05,22.9a53.26,53.26,0,0,0,5.94,4.67c7.36,4.79,7.42,4.94,1.18,10.59-.51.47-1,.94-1.5,1.43-8,8.17-7.06,16.59,2.67,22.2,12.09,7,17.28,17.82,18,31.32.4,8-3.46,14.66-6.6,21.48-9.27,20.12-8.07,40.55,0,60.22,7.84,19.09,23,31,43.11,36.38,21.13,5.63,42.71,8.75,64.32,11.52,20.21,2.6,39.38,7.52,57.61,17.19,19.12,10.15,30.55,25,34.58,46,.79,4.12,2.09,8.14,3.29,12.69,5.47-2.63,3.81-7.94,6.45-10.48-1.83-4.47-2.83-8.91-5.28-12.32-2.35-3.26-2.79-5.51-.37-7.34-2.6-5.24-4.93-9.91-7.79-15.65,4.2,1.31,6.81,2.62,7.55,6.14,1.21,5.79,3.87,7.35,9.48,5.57,2.76-.88,5.56-1.63,8.83-2.57-.64-2.5,1-3.93,5.35-3.58l-7.65-9.83H557c-4.37-3.5-8.78-4.92-11.17-10.23,2.14.58,3.44.64,4.36,1.25,2.1,1.38,4,3,6,4.6,2.77,2.22,5.64,2.33,8.85,1-.33-4-5.61-5.38-3.95-10.91,2.36,2.12,4,3.81,5.91,5.28,2.29,1.82,4.66,2.8,7-.52l-6.11-4.62.74-1.53a47.83,47.83,0,0,0,5.5,1.11c2.55.25,4-1.49,3.13-3.88a61.6,61.6,0,0,0-3-6.25c3.19-.41,5.57-1,7.92-.92,2.74.12,4.79-.79,5.17-3.37.58-4,3.2-5,6.42-6.11,2.27-.77,5.72-2.18,6-3.81.89-4.54,4.08-5,7.71-5.74.41-6.47,5.54-6.83,10.21-7.48-1.14-6.4-.77-6.93,5.24-7.81,1.32-.2,2.66-.31,4.27-.49l-1.67-5,7.92-4c-1.31-3.31-2.35-6-3.39-8.58-2.53,0-4.48-.5-6.12-3.12a14.86,14.86,0,0,0-11.68-7.39c-.33,5.81,6.69,7.24,6.63,12.71-5.42.67-5.81-9.18-12-5.53l5.71,11.87-13.13-6.65c1.25,3.78,1.92,5.8,2.71,8.17-8.08-6-11.68-7.81-16.63-7.82,1.78,2,3.07,3.41,4.22,4.87,2.56,3.23,5.06,6.51,7.57,9.77-4.06-3.35-8.15-6.67-12.16-10.07-2.27-1.92-4.56-2.56-7.64-.89,2,4.63,5.36,7.81,8.64,11.05-2.16.51-3.59-.49-5.16-2.08-2.55-2.58-5.32-5.12-9.61-5.91,1,8.49,9.72,11.41,11.53,18.7-3.34-2.42-6.21-5.26-9.26-7.88-3.73-3.2-5.31-3.22-9.59-.43l8.37,10.06-.73.62L557,945.47c-6.11,5.31-12.06-1.34-18.36,0,.87,3.18,6.82,1.91,4.66,6.66l-6.77-1.6c-.16,2.28-.29,4-.41,5.65-2.32-.74-4.62-1.52-7-2.18-2-.56-4.07-1.29-5.16,1.29.31,3.59,6.79,2.42,5.44,7.76-4.49-2.2-7.63-6.84-13.22-6.17l10.35,11.75c-.58.36-.83.6-.92.55-.59-.33-1.14-.74-1.72-1.08-5.61-3.22-11.5-5.9-18.08-4.65-3.94.74-8.79.21-10.88,5.37-1,2.47-3.36,2.07-5.31,1-2.2-1.22-4.19-2.84-6.42-4-1.91-1-3.86-1.12-5.11,2,4.43,1.52,8.67,3.08,10.18,7.84-.51.31-.78.57-.86.52-2.11-1.29-4.17-2.64-6.29-3.9-2.33-1.39-4.46-3.12-7.6-1.64-4.91,2.32-5,2.17-7.64-2.77-3.89,3.74-3.89,3.74-11.73-.14-.22,1.83-.43,3.49-.75,6-6.54-.38-13.48.72-19.07-1.54-5.23-2.11-9.47-4.54-15.56-3.41-4.24.79-9-.68-13.43-1.57-6.94-1.39-14.89.34-19.89-6.23-2.53.39-5,1.58-6.87.92-8.78-3.19-17.38-6.86-26-10.41-7.81-3.21-13.25-8.94-16.94-16.39-6.11-12.36-8.64-25.47-9.06-39.24-.43-14.18,5.56-25,16-35-2.31-2.56-1.52-5.4,1-7.61-3.35-4.74-3.78-5.2-1.46-7.38,3.64-3.44,2-6.91,1.12-10.59a7.25,7.25,0,0,0-1.09,2.12,36.48,36.48,0,0,1-2.48,3.42l-5.8-16.41,11.74-.92c-1.31-2.09-2.3-3.65-3.7-5.89,2.54-1.13,4.59-2,6.57-2.93,6.36-3.14,12.72-6.26,19-9.57,1.25-.66,2.09-2.1,3.19-3.26-2.2-2.85-4.75-2.83-7.14-1.9a50.3,50.3,0,0,0-9.19,4.53,42.38,42.38,0,0,1-18,6.49c-4.56.61-8-2.8-6.14-6.42,2.8-5.53,6.37-11.1,13.13-12.15a84.56,84.56,0,0,1,17.78-.76c6.15.35,12.21,2.2,18.37,2.56,7.83.45,14.87,2.23,20.86,7.63a5.81,5.81,0,0,0,4.87.89c2.63-.87,5-2.57,8.15-4.31-2.28-5.09-2.39-11.17-6.77-15.88a40.08,40.08,0,0,1-4.69,2.35,27,27,0,0,1-4.34.8,38.28,38.28,0,0,1-.33-5,16,16,0,0,1,1-3.53c-2.94-.95-6.2-3.13-7.7-2.26-4.52,2.6-5-.76-6.51-3.19-1.05-1.74-1.09-4.44-4.42-4.79-.42,6,2.08,10.43,5.38,14.69.73.94.25,2.81.33,4.26-1.29,0-2.76.51-3.84.06-8.65-3.62-17.29-7.27-25.81-11.18-10.79-5-21.93-8.09-33.93-7.59a63.25,63.25,0,0,1-8.26-.08c-5.3-.45-6.92-2.42-6.43-7.59a28.09,28.09,0,0,1,.94-4.73c2.65-9.43,2.86-19,2.11-28.69-.81-10.36-5.34-18.22-14.05-23.82-1-.62-1.41-2-2.85-4.2,3.22-.14,5.48-.74,7.46-.22a95,95,0,0,1,11.64,4.08c5.68,2.3,11.91,1.62,13.92-1.74,2.43-4.06.23-9.47-5.74-13.07-13.89-8.36-29-11.28-44.26-5.78-11.61,4.18-22.83,4.29-34.49,2.11-9.89-1.85-16.52-12.9-13.25-22.34,1.8-5.19,3.57-10.49,6.21-15.27,15-27.13,29.85-54.3,45.42-81.08,11.53-19.84,24.14-39.06,36.1-58.65,6.11-10,9.55-20.7,8.13-32.74q-2.69-22.89-4.54-45.89c-.84-10.29-1-20.63-1.4-30.95,0-1.06.54-2.15,1-3.75a29.66,29.66,0,0,1,5.39.46q11.94,3.31,23.79,6.91c20,6,39.9,12.19,59.87,18.22q36.54,11,73.11,21.94t73,22c20.15,6.1,40.28,12.33,60.43,18.45,15.77,4.79,31.6,9.43,47.36,14.28,9.85,3,19.59,6.43,29.43,9.49,12.9,4,25.87,7.84,38.79,11.82,6.28,1.93,6.81,2.29,6.74,8.52-.14,11.75,4.69,21.34,12.18,29.85,3.18,3.62,7,6.72,10,10.42A116.52,116.52,0,0,1,769.64,579c5.05,8.36,4.71,17.21.07,25.54-2.41,4.34-6,8.07-9.25,11.88-3,3.48-6.52,6.5-9.33,10.1-3.79,4.86-3.46,10.45-.9,15.65,2.41,4.92,6.84,7.19,12.36,7.34a17.74,17.74,0,0,0,15.9-8,67,67,0,0,1,27.91-23.23c-.64-3.82-.48-7.37,4.76-8-2-3.13-1.92-5.24.48-7.78,1.88-2,2.43-5.23,3.49-7.71A66.78,66.78,0,0,1,806,572.19c-1.17-.69-3.46-1.36-4.5-2.88-1.16-1.68-1.17-4.15-1.77-6.64-6.79,2.44-9.38-5.93-15.5-5.52-.34-2.87-.62-5.28-.93-7.9l-10.75-2.13c-1.15-7.09-2.39-13.54-8.81-17.31,2.1-3,4.36-1.72,6.42-1.06,4,1.29,7.82,1.79,12.69-1.1-3.39-.66-5.93-1.25-8.49-1.62s-5-.87-4.55-5a45,45,0,0,1,6.69.07c2.16.33,4.52,2.57,6-.93-2.36-3.08-7.61,1-8.82-4.88l8.54-3.63c-.67-1.7-1.23-3.11-1.77-4.49L773.53,509c2.41-6.4,4.39-7.63,8.38-5.89,4.84,2.13,6.05,2.17,9.12-2.1,2.55-3.54,5.61-4.15,9.51-4,10.28.54,18.87,5.13,27,10.86.31.22.36.8.55,1.26l-3.58,4.13c2.09,2.69,3.31,1.2,4.9.13,2.62-1.75,3.58-.25,3.81,2.25l-4.81,2.25c3.15,3.58,3.46,7.84,6.85,11.2,2.81,2.78,4.1,8.31,3.93,12.53-.15,3.61.3,5.83,3.31,7.13,2.57,1.11,2.46,2.92,2.22,5-3.68,2-2,4.78-.31,6.71,2.49,2.93,2.63,6.23,2.78,9.64.2,4.69-1.09,9.54,1.73,14a3.53,3.53,0,0,1-.06,2.65c-3.18,9.42-7.44,18.31-13.66,26.1-2.83,3.55-7.68,6.16-9,10.08-1.61,4.77-5,8.07-6.91,12.33-3.3,7.55-9.15,12.41-15.54,17a23,23,0,0,0-3.27,3.53,4.17,4.17,0,0,0,3.24-.07c8.91-4,15.31-10.86,20.68-18.7,6.37-9.27,12.45-18.74,18.54-28.2,6.55-10.18,10.83-21.28,11.8-33.38a115,115,0,0,0-10.18-57c-5.12-11.38-13-21.14-24.9-25.52-16.9-6.23-33.88-5.23-49.55,4.61-5.86,3.68-10.91,8.36-13.89,14.92-5.85,12.85-6.91,25.6.18,38.38,1,1.87,1.74,3.93,3,6.9-5.08-1.38-6.36-4.82-8.14-7.53-6.74-10.27-11.12-21.72-9.14-33.86a57.64,57.64,0,0,1,53.12-48.56c18.55-1.3,33.21,5.83,45.41,18.74,14.63,15.49,20.91,35.1,23.37,55.54,1.64,13.56.84,27.55-.1,41.26-1.26,18.64-8.22,35.17-21.46,48.76-10.11,10.36-20,20.89-30.2,31.18-3.62,3.65-7,7.27-7.92,12.56-.14.76-1,1.39-1.52,2l-6-1c-4.62,8.31-10.76,15.18-15.29,22.84-4,6.71-11.94,6-15.61,11.78-.15.25-.88.25-1.32.2a8.31,8.31,0,0,0-7.89,3c-1.69,1.85-5.57,2.8-6.58.14-2.27-6-7.43-5.06-11.61-6.5-3,4.34-3.94,5-6.1,3.33-4.9-3.74-10.09-7.29-12.16-13.63a71.36,71.36,0,0,0-2.77-7c-1.62-3.63-3.45-2.53-5.15-.71,1.2,2.39,3.4,4.72,2.93,6.2-2.35,7.43,4.24,11.32,6,17,5.89,2.07,7,8.38,11.22,12.48,4.75-.8,9.87-2.47,14.93-2.29s10.33,2.17,15.11,3.28a38.14,38.14,0,0,1,3.67-2.82c3.59-2.19,7.7-3.74,10.8-6.46,6.1-5.35,12.16-10.79,16.71-17.72,1.85-2.83,6-4.14,5.33-8.67-.08-.53,1.67-1.28,2.52-2A14.12,14.12,0,0,0,804,687c3.1-4.31,6.07-8.71,9.21-13,1.2-1.64,3.52-2.85,4-4.6,1.16-4.6,4.94-5.63,8.34-7.42a27.77,27.77,0,0,0,6.32-3.94c2.9-2.75,5.39-5.94,8-8.87,1.63-3.09,3-6.44,5-9.27,1.87-2.58,4.35-6.28,6.84-6.52,4.61-.44,4.1-6.08,8.54-5.68-.88-2.5-1.53-4.36-1.77-5l3.44-8.4c2.44-5.9,5.75-6.77,9.31-2.21,17.15,22,38.91,38.3,63.53,50.77,18.4,9.32,37.36,17.55,56,26.32,2.33,1.1,4.51,2.55,7.62,4.34a55.07,55.07,0,0,1-5.11,4c-6.52,3.85-13,7.9-19.7,11.3-18.29,9.2-30.29,24.43-39.68,41.81C920.71,775,913.06,801.05,913.11,829c0,11.47-.39,23.08,1.2,34.38,2.68,19.06,7,37.89,10.28,56.88,3.86,22.35,12,43.22,21.17,63.79C951.74,997.41,957.16,1011,962.91,1024.5ZM604,949.19c-3.61-.76-4.87-2.77-5.75-5.14C600.86,944.55,602.83,945.78,604,949.19Zm-17.66-5.83,4.6,3.16C586.91,947.26,586.84,947.26,586.38,943.36Zm-34.57,13.7c-4,.75-4,.75-5.67-4.12Zm-15.08,60.79-.73-1c.35-.2.73-.61,1-.56s.49.57.73.89Zm1.22-61.3a8.53,8.53,0,0,1,1.6,2.44c.06.11-.69.84-.79.78a8.6,8.6,0,0,1-2.39-1.64c-.3-.35-.13-1.1-.12-1.71C536.87,956.41,537.62,956.25,538,956.55Zm-1,52c-3,2.16-4.44.27-6.79-1.77C533.26,1006.06,535.36,1005.53,537,1008.57Zm-3.83-12.28c-1.24,3.7-2.64,3.85-6.21,2.28ZM499.24,969.4a17.4,17.4,0,0,1,1.78,3.24c.06.22-1.15,1.05-1.24,1a4.7,4.7,0,0,1-1.5-1.87C498.14,971.32,498.7,970.64,499.24,969.4ZM320.16,772.75c5.29-.29,10.51-.09,16.33,2.94-3.54,2.54-6.21.61-8.81.21s-5.22-.93-7.82-1.41ZM305.1,687.83c.61,0,1.23.89,2.08,1.59-.81.69-1.4,1.49-1.71,1.39a7.36,7.36,0,0,1-2-1.37C304,688.87,304.56,687.84,305.1,687.83ZM848,557.22c-2.71,0-2.63-1.85-3-3.29C846.51,554.36,848.18,554.65,848,557.22Zm-12.19-37.06c.53.16.93.75,1.63,1.39-.61.42-1.16,1.06-1.46,1a2.2,2.2,0,0,1-1.22-1.28C834.72,521,835.6,520.09,835.85,520.16ZM791.35,46.82c14.46,2.46,29.18,3.43,43.58,6.16,15.52,3,30.82,7.12,46.18,10.91,21.22,5.23,41.16,14,61.15,22.59a345.31,345.31,0,0,1,64.64,36.35c46.76,33.54,82.67,76.05,103.74,130.13a352.26,352.26,0,0,1,18.33,67c3.85,21.85,4.48,43.81,5,65.84.19,7.28-.21,7.62-7.09,7.63q-38.6.08-77.17,0c-.69,0-1.38,0-2.07-.06-8-.26-8-.44-8.27-8.17-.9-22-1-44-5.18-65.74-3.76-19.66-8.91-39-18.33-56.77-8.61-16.23-18-32.15-30.84-45.44C973.31,205,962,192.11,947.7,182.76c-18.61-12.15-37.44-23.77-58.31-32.15-14.54-5.84-29.59-9.68-44.27-14.81-12.71-4.45-25.94-5.79-39-8.13-8.31-1.49-16.77-2.14-25.17-3.17-5.39-.66-5.86-1-6.32-6.18-1.54-17.38-2.92-34.77-4.56-52.14-.49-5.25-1.67-10.43-2.49-15.64-.17-1.08-.15-2.18-.26-3.93C775.9,46,783.51,45.49,791.35,46.82ZM432.14,140.37c27.63-22.25,58.75-38.34,91.35-51.82,26.58-11,54.07-18.91,82.09-25.23,18.8-4.23,37.82-6.93,56.86-9.79,18.38-2.75,36.86-4,55.34-5.43,11.86-.92,23.75-1.31,35.64-1.79,5.15-.21,6,.45,6.67,5.63q4.14,32.1,8,64.23c.81,6.9-.34,7.35-6.93,7.21-9.83-.2-19.68.5-29.52.56-19.73.12-39.18,3.6-58.81,5-7.95.58-15.72,3.32-23.67,4.22C633,135,617.87,140.24,602.56,145c-10.27,3.18-20.77,6-30.57,10.28-24.53,10.83-49.13,21.63-71.23,37.2-4.28,3-9.17,5.16-13.79,7.71-2.72,1.5-4.19-.31-5.77-2.1-5-5.65-9.8-11.61-15.29-16.8-11.66-11-23.72-21.66-35.6-32.47-1.13-1-2.13-2.24-3.65-3.85C428.72,143.22,430.41,141.77,432.14,140.37Zm-51,257.19c-2.32,4.72-3.18,5.1-8.05,3.65q-23.1-6.87-46.15-13.91c-6.37-2-6.76-2.53-6.89-9.23-1.08-60,14.7-115.23,46.42-166,13.48-21.59,30.11-40.49,48.95-57.51,4.13-3.73,4.26-3.71,8.72-.45,32.52,23.83,58.1,53.64,78.51,88.42,11,18.7,17.23,38.91,23.67,59.2,1.83,5.76,3.18,11.89,2.2,18.89-8-1.91-15-3.9-22.16-5.24-14.08-2.63-28.34-3.57-42.42-.58-17,3.6-31.61,12.12-44.33,23.87-14,13-24.37,28.59-32.48,45.77C385,388.76,383.23,393.24,381.1,397.56Zm239.3,73.08c-1,4.4-2.54,5-7.15,3.59-14-4.34-27.94-8.9-42-13.25-4.36-1.35-8.91-2.08-13.28-3.43-24.11-7.42-48.14-15.08-72.28-22.4-29.61-9-59.32-17.67-88.95-26.61-10.67-3.22-10.71-3.41-6.2-13.87,7.61-17.63,17.39-33.84,31-47.61,17.56-17.79,38.87-26.31,66.37-26.43,16-.51,33.14,5.15,49.47,13.43,11,5.6,22.08,11.33,31.19,20,10.81,10.25,22,20.21,30.17,32.83a201.8,201.8,0,0,1,14.52,25.63A107.93,107.93,0,0,1,623,453.05C623.2,458.88,621.71,464.86,620.4,470.64Zm223.51,11.1c-5.52-5.15-11-10.94-17.68-14.12C812,460.81,796.92,456.85,781,463c-10.46,4.06-19.12,10.86-27.61,17.87-6.78,5.6-10,13.54-13.19,21.48-3.66,9.16-3.77,9.11-13.23,6.27q-19.08-5.73-38.16-11.45c-13.38-4-26.77-8-40.11-12.2-6.12-1.91-12.13-4.18-18.21-6.23-2.87-1-3.9-2.64-3.25-5.76,3.26-15.57,2.3-31.23-1.37-46.44-2.11-8.77-6.88-16.92-10.65-25.26-5-11-12.61-20.21-20.11-29.47a177.3,177.3,0,0,0-50.77-42.61c-4.31-2.45-7.18-5.51-8.22-10.35-1.15-5.38-3-10.69-3.5-16.12-1.59-17.28-8.44-32.66-15.71-48.1-6.49-13.8-14.64-26.5-22.84-39.24-1.34-2.08-2.56-4.25-4.31-7.15,7.15-4.88,13.67-9.88,20.71-14,9.49-5.57,19.32-10.55,29.09-15.63,7.93-4.13,15.81-8.43,24-11.92,10.12-4.29,20.53-7.9,30.89-11.63,7.76-2.79,15.55-5.55,23.46-7.85,5-1.47,10.34-2,15.49-3.09,8.95-1.91,17.81-4.44,26.85-5.8,16.08-2.41,32.24-4.31,48.4-6.1,10.23-1.14,20.51-2.28,30.77-2.36,14.4-.11,28.85.22,43.19,1.38A302.88,302.88,0,0,1,818,136.55c12.32,2.49,24.58,5.51,36.63,9.08a318.5,318.5,0,0,1,32.33,11.52c9.07,3.8,17.65,8.75,26.44,13.22,4.49,2.28,9.28,4.15,13.38,7,9.95,7,19.63,14.32,29.31,21.66,4.38,3.32,9,6.53,12.62,10.59,8.08,9.06,15.89,18.39,23.27,28,14,18.23,23,38.83,29.86,60.77,5.46,17.55,6.42,35.57,8.71,53.48,2.19,17.08,1.46,34.32,1.41,51.51,0,19.16-3.31,37.84-8.06,56.31-1.73,6.71-2.5,7.11-9.66,6.65-10.07-.64-20.14-1.55-30.22-1.83-7.1-.2-14.25,1-21.31.6-15.24-.93-30.23,1.18-45.22,3-7.94,1-15.67,3.58-23.6,4.6-13.79,1.78-26.53,7-39.52,11.36C850,485.55,847.22,484.83,843.91,481.74Zm75.61,164.65c-6.43-4.53-13.1-8.92-19.44-13.75a129.43,129.43,0,0,1-24.74-24.8A14.06,14.06,0,0,1,872.23,597c.63-4.78.75-9.64,1.67-14.36a31.53,31.53,0,0,0-2.43-19.82,15.3,15.3,0,0,1-.9-5.35c-.34-5.73-.43-11.47-.86-17.19-1.21-16.35-6.85-31.25-15-45.34a26.56,26.56,0,0,1-1.18-2.85c6.21-3.84,50.56-15.43,61.34-16.57,34.37-3.65,68.72-6.09,103.84-.9a53.69,53.69,0,0,1-1.13,5.89c-7.24,22.6-17.17,44-28.25,65a551.92,551.92,0,0,1-60.64,91.79c-2,2.49-4.16,4.9-6.33,7.27A16.55,16.55,0,0,1,919.52,646.39Zm61.37,31.32Q957,666.22,933.22,654.48a64.42,64.42,0,0,1-5.89-3.78c8.7-11.06,16.95-20.92,24.52-31.28,26.39-36.11,49-74.36,65.57-116.07,7.8-19.7,14.57-39.73,18.1-60.64,1.94-11.5,2.59-23.23,3.71-34.87.64-6.66.76-7,7.37-7q40.32.09,80.62.32a56.4,56.4,0,0,1,6.08.75c-.35,5.44-.49,10.44-1,15.4-8.23,79.51-37.29,151.07-82.45,216.56a503.17,503.17,0,0,1-38,48.08c-.61.69-1.28,1.32-1.85,2-2.85,3.54-6,4.3-10.29,2.2C993.55,683.16,987.09,680.69,980.89,677.71Z"/><path class="cls-1" d="M898.31,1406.26c3,.29,5.9-.71,6.49-3.87,1.18-6.26.94-12.47-2.75-18.1-1.36.51-2,.7-2.62,1-6.08,3-9.12,1.59-9.84-4.94-.3-2.73,0-5.51-.18-8.26-.55-8.11,1.06-16.57-4.49-24.59,4.86-2.64,4.68-6.92,3.87-11.43-.2-1.08.26-2.26.31-3.41.3-7.1.84-14.2.81-21.3,0-12.25-1.67-24.43-1.59-36.7s0-24.66-.2-37a5.14,5.14,0,0,0-1.53-3.57c-3.39-2.73-2.66-5.34-.47-8.33a22.52,22.52,0,0,0,2.47-4.9c1.62-4,4-6.47,8.82-5.94a6.07,6.07,0,0,0,6.65-3.9c3.23-8.1-.78-13.84-9.55-13.61a37,37,0,0,0-5.19.84c-1.41,6.42-1.67,6.78-5,7.16-4.4.49-5.61-.5-8.63-7.33-9.2,0-18.58-.24-28,.1-4.71.16-9,4.8-8.2,8.55a18.74,18.74,0,0,0,3.58,8c.87,1,3.78.51,5.77.51,4.93,0,8,2.77,8.79,7.78.37,2.32,1.13,4.57,1.69,6.71,8.58-.89,8.58-.89,9,4.38-4.08,3.13-8.14-5.26-12.29-.18,3.88,8.53,2.78,17.38,1.21,25.74a67.09,67.09,0,0,0-.46,18.36c.73,8.76-1.11,11.32-9.8,13-8.94,1.75-17.78,1.27-26.68.4-5.91-.58-8.12-2.4-9.54-8.1a25.48,25.48,0,0,1-.59-5.45c-.22-8.23-.6-16.45-.48-24.67.16-10,1.24-19.88.49-29.89-.41-5.52,3.08-9.34,8.48-9.67,3.52-.22,5.76-1.28,6.47-4.76.75-3.68,2.75-7.75-2.29-10-2.29.52-4.52,1.63-6.6,1.39-4.15-.47-8.22-1.68-14.27-3,4.08,6-1.62,5.67-2.55,8.23-1,2.81-1.65,5.75-2.68,9.42-1.42-6.15-2.62-11.32-4-17.26-9.56,0-18.89-.2-28.2.1-3.87.12-5.58,2.78-5,6.61.34,2.26,1.26,4.42,1.58,6.68.48,3.45,2.35,5,5.66,4.26,3.76-.81,6.84.77,9.7,2.61,4,2.56,4.4,6.44,1.52,10.48-.5.71-1,1.45-1.57,2.35,2.07,2.11,6.19,3,4.33,6.87-2.12,4.47-1.38,9-.65,13.51s1.26,9-.14,13.56c-.45,1.44.07,3.17.1,4.77.2,8.86.46,17.72.55,26.58.14,13.21-2.79,26.38-.43,39.63a7.8,7.8,0,0,1-.3,3.38c-2.28,7.9-.95,15.92-.79,23.89.13,6.62.56,13.23.48,19.83,0,1.54-1.24,3.9-2.5,4.41a43.18,43.18,0,0,1-10.43,2.65c-4.8.65-5.17.68-5.18,5.08a27.22,27.22,0,0,0,.63,6.82c1.62,6.1,4.2,7.15,11,4.61-.26-1-.57-2.08-.8-3.15-.27-1.24-.49-2.5-.89-4.59,1.82.86,3.2,1.06,3.73,1.84,4.87,7.1,11.74,7.76,19.35,6.32.43-.09.92.11,1.37,0,9-1.23,18.15,1.25,27.3-1.27,3.94-1.08,5.26-2.74,6.12-6,1.57-6.08-.93-11.48-2.26-17.91a42,42,0,0,0-3.45,3.29,6.15,6.15,0,0,1-6.79,2.12c-3-.72-3.9-3.08-4.14-5.71-.37-4.09-.53-8.21-.72-12.32-.09-2.06,0-4.12-.09-6.17-.16-4.08-.46-8.16-.52-12.24,0-2.28.38-4.57.42-6.86.16-11,.25-21.92.38-32.88,0-3,1.7-5.25,4.54-4.95,6.1.64,11.71-.79,17.36-2.62a6,6,0,0,1,2.73,0c6.33,1.07,12.68,2.07,19,3.41,1.5.32,2.75,1.83,4,2.75l-5.35,11c4.37,2.49,3.52,6.22,3.32,10.29-.3,6-3.28,12.19.74,18.12.62.91,0,2.65,0,4-.08,3.87-.23,7.74-.22,11.62,0,4.79.24,9.59.23,14.38,0,5.66-2.17,9.37-8.28,10.86-5.25,1.28-6.66,4.83-5.72,10.81.6,3.82,3.62,5.84,8.69,6C868.21,1407.11,883.25,1404.82,898.31,1406.26ZM794.77,1374.9l8.53,6.76C796.36,1382.33,795.62,1381.59,794.77,1374.9Zm-6.49-138.67c5.65-3,8.93-8.34,15.54-7.18C801.75,1236.9,796,1239.82,788.28,1236.23Z"/><path class="cls-1" d="M203.07,1376.73c-.86-.38-2.95.73-3.77,1.76-1.25,1.57-1.67,3.77-2.8,5.46-5.2,7.82-10.51,15.56-15.82,23.31-.51.74-1.14,1.65-1.91,1.91-5.94,2-10.75,7.22-17.89,6-2.16-.38-4.6.25-6.79.87a32.38,32.38,0,0,1-24-2.41c-3.58-1.77-6.2-4.15-9-8.12a102.91,102.91,0,0,0,30.24,1.48c13.91-1.17,24.13-7.56,31.45-19.11.41-.64.13-1.72.15-2.16-2.52-1.9-5-3.21-6.63-5.23-.83-1-.46-3.5.13-5,.32-.82,2.63-1.73,3.36-1.34a9.77,9.77,0,0,1,3.28,3.7,17.35,17.35,0,0,1,1.2,3.94l1.48.12a47.3,47.3,0,0,0,3-6.53c2-6.72,4-13.44,5.39-20.29,1.55-7.6,2.59-15.32,3.49-23,.42-3.58-1.24-5-4.93-4.91-2.51.07-5,.64-7.51.87-5.25.48-6.92,1.64-8.2,6.59a24.8,24.8,0,0,0-.71,6.82c.43,14.37-5,26.85-12.59,38.54-2.86,4.38-6.82,7.15-12.48,7.45-4.55.24-8.33,2.93-11.4,6.14-1.8,1.88-3.46,3.18-5.9,2s-3-3.45-2.24-5.89c1.23-3.8-.14-6.63-2.73-9.31a26.51,26.51,0,0,1-2.59-4c-4.25-6.43-4-14-5.17-21.17-.91-5.59-.22-11.42-.53-17.12-.62-11.31-1.23-22.6-.76-33.93.63-14.87,1-29.76,1.79-44.62a189.24,189.24,0,0,1,2.48-23.17,65.2,65.2,0,0,1,5.27-17c4.28-8.75,16.84-9.33,22.45-1.42a4.36,4.36,0,0,1,.52,3.7c-.42.87-2.11,1.56-3.25,1.58-7.56.17-10.91,3.94-10.15,12.4a43.77,43.77,0,0,1,3.68-5.18c3.43-3.6,7.14-6.22,12.73-4.81,2.94.74,5,1.89,6.45,4.49,2.78,5.1,5.61,10.17,8.65,15.69a27.87,27.87,0,0,1,2.57-3.09c.92-.84,2.49-2.24,3-1.95,1.22.62,2.69,2.08,2.8,3.32.2,2.18-.54,4.45-1,7.11a25.92,25.92,0,0,1,2,2.27c2,2.8,1.8,3.8-1.08,5.24-5.22,2.62-5.19,2.61-3.74,8,.54,2,.92,4,1.34,6,.61,2.92,2.43,4.61,5,6.07,3.87,2.15,7.1.12,10.55-.77,5.28-1.36,5.61-1.36,5.73-6.75.26-11.22.14-22.45.13-33.67,0-.89-.08-2.12-.63-2.61-3.77-3.33-2.21-6.66,1-10.76a33.67,33.67,0,0,0-4.4.59c-1.93.6-3.71.86-4.51-1.51-.73-2.15.87-3.93,3.93-4.36a32.26,32.26,0,0,1,4.2,0c.43-5,.61-9.55,1.25-14,.75-5.21-.37-7.23-5.74-7.65a94.52,94.52,0,0,0-12.36.19c-4.13.22-5.09,1.3-5.47,5.5a51.39,51.39,0,0,1-.77,7.47c-.47,2-2.31,3.35-4.21,2a63.28,63.28,0,0,1-10.33-8.58c-5.28-5.84-12.11-9.1-19.39-9.1-13.78,0-25.66,4.78-32,18.41l.09,0c-2.85,4.27-5.9,8.42-8.47,12.85a82.72,82.72,0,0,0-7,14.07c-1.79,5.1-2.57,10.57-3.61,15.92-.94,4.87-2.54,9.76-.19,14.76a3.67,3.67,0,0,1-.31,3.26c-5,5.32-3.87,10.77-.53,16.05-1.39,2.45-3.38,4.49-3.65,6.74-.84,7-2,14.24-1.27,21.2A272.52,272.52,0,0,0,89.25,1351c2.27,10,4.09,20.43,10.39,29a35.05,35.05,0,0,1,6.72,17.76c.47,4.91,2.85,8.2,6,11.11a61.49,61.49,0,0,0,25.68,14,37.69,37.69,0,0,0,17,.62c2.91-.54,5.77-1.42,8.69-1.92,15.2-2.61,25.68-11.33,32.61-24.82,1.66-3.23,3.82-6.19,5.57-9.37a26.64,26.64,0,0,0,3-6.84A4.39,4.39,0,0,0,203.07,1376.73ZM108.75,1213c3.15-.63,4.4,1,4.36,4s-1.35,5-5.73,5C107.88,1218.65,108.32,1215.81,108.75,1213ZM96,1314.62c2.57-4.66,7.55-8.91-.43-14l2.72-.68,6.6,4.48C101.91,1308.1,103.52,1314.32,96,1314.62Zm9.46-29.07c-.45-.14-.71-.9-1.06-1.39.52-.3,1.08-.87,1.55-.81s.83.79,1.47,1.46C106.57,1285.17,105.94,1285.68,105.49,1285.55Zm.86-15.36-8.84-6.09,11.36-3.74Zm4.46-16.18-16.23-4.65,0-1.49a11.62,11.62,0,0,1,3.1-1.68c8.9-1.67,9.23-2.14,6.62-10.52,1.86-2.93,3.37-5.31,5.8-9.16l4.18,4.49C111.47,1239.31,106.83,1245.8,110.81,1254Zm7.72-9.84a7.77,7.77,0,0,1-1.07-.38c.19-.9.46-1.79.72-2.67l1.2.36C119.1,1242.37,118.82,1243.27,118.53,1244.17Z"/><path class="cls-1" d="M675.17,1377.66l5.43,1.12c1.42,3.67-1,5.59-2.82,7.48-2.37,2.49-2.69,5-1.72,8.16,2.7,8.91,8.63,14,17.4,16.81,5.12,1.62,9.38-.14,14-1.27a18,18,0,0,0,13.72-14.31c.65-3.84,1.39-7.67,2-11.51,1.4-8.73,2.62-17.44-3.4-25.17-6.5-.21-7.91.91-8.3,6.84-.1,1.59.29,3.21.21,4.8-.31,5.92-.46,11.86-1.21,17.72-.35,2.72-2,5.27-5.53,5.06-2.73-.17-5.2-2.73-5.41-6.24-.64-10.74-1.3-21.49-1.51-32.25-.29-14.39-5.14-26.34-17.18-34.85a12.53,12.53,0,0,1-1.6-1.31c-2.74-2.66-2.39-4.44.67-6.46a110.11,110.11,0,0,0,10.91-8.07c9.51-8.1,12.63-18.87,11.93-30.88-.31-5.22-1.54-10.38-2.18-15.59-.17-1.38.3-2.84.56-4.93,8.7,5.15,6.14,15.88,12.76,21.29a60.42,60.42,0,0,0-1.25-9.37c-1.46-9-4.72-16.52-15-18.32a8.61,8.61,0,0,1-2.93-1.73c-3.21-2.18-6.32-4.56-9.64-6.58-7.24-4.41-14.84-7.3-23.05-2.64-3.24,1.84-6.06,4.44-9,6.67.31,3.18,2.7,2.59,4.64,2.92,2.92.49,6,.65,8.66,1.83,5.22,2.35,5.67,4,3.78,9.93,7,5.37,8.69,12.85,7.49,21.33-.7,5-1.71,10-1.89,15-.17,4.85-1.68,8.38-6.2,10.51-4.12,1.94-8,5-12.93,3.15-3-1.13-5.72-.56-8.67.32-4.81,1.43-7.39-.92-7.09-6,.12-2,.52-4.08.44-6.11-.2-4.78-.72-9.56-.9-14.34-.23-6.2.48-12.53-.57-18.57-1.16-6.66.2-12.52,2.77-18.82-3.32-3.42-3.83-7.31.37-11.77-5-2.19-9-2-13.17-1.48a30.67,30.67,0,0,1-5.4.39c-7.32-.3-14.64-.81-22-1-1.43,0-4,.75-4.15,1.54a30.88,30.88,0,0,0-.66,9.94c.39,3,3,4.38,6.11,4.55a26.67,26.67,0,0,1,5.46.48c2.39.63,4.07,4.13,3.42,6.75-.75,3-3.12,3-5.48,2.58-1.89-.36-3.71-1.06-5.72-1.64-.16,5.86-.16,5.86,5.49,6.18,6.55.37,7.6,1.44,7.39,7.85-.1,3.12-.37,6.24-.63,10.52,2.52-1,4.41-1.23,5.59-2.28,3.58-3.18,6.93-6.63,10.27-10.07,1.29-1.33,2.27-3,5-1.55,0,1.51-.52,3.49.1,5,1.53,3.71,0,5.88-2.62,8.29s-5,5.08-8.26,7c-2.72,1.57-4.41,4.92-6.29,7.17-1.06,2.64-1.7,5.2-3,7.32a7.85,7.85,0,0,0-.87,7.75,20.58,20.58,0,0,1,1.63,7.28c0,15.6-.14,31.21-.34,46.82,0,3.64-1,7.3-.7,10.89.41,5.85,1.45,11.66,2.34,18.35-3.4,1.37-6.89,2.93-10.49,4.19-4.57,1.59-5.79,3.39-5.08,8.25.83,5.67,2,6.66,7.25,6.7,6.18,0,12.35.29,18.53.36,7.8.1,15.6.16,23.39.13,4.11,0,7.12-2.34,6.87-6a37.28,37.28,0,0,0-4.41-15.49c-6.35,6.58-6.35,6.58-12.34.46-.62-.64-1.17-1.35-1.35-1.56.5-3.92,1.24-7.26,1.31-10.6.26-13.88,1-27.79-1.91-41.53a5.73,5.73,0,0,1,.27-2c.6-3.11,1.26-6.21,1.8-9.33.77-4.52,2.94-5.82,7.22-3.9,3.58,1.6,6.88,3,11.14,2.08,1.9-.42,5,1.27,6.51,3,5.94,6.91,9.71,14.88,9.47,24.28-.17,6.87-.59,13.74-.6,20.61C674,1372.38,674.75,1375.05,675.17,1377.66Z"/><path class="cls-1" d="M431.35,1339.79c-.46-9.07.73-18.06-.22-27.31-1.05-10.21-1.64-20.47-3.33-30.66-.84-5.07-2-9.86-4.7-14.22-4.05-6.6-8.67-12.92-12.08-19.83a24.36,24.36,0,0,0-11.41-11.36c-5.56-2.81-11.35-5-17.72-4.85-.34,0-.68.49-1.13.84.28,1.61.57,3.29,1.15,6.68-2.84-1.47-4.36-2-5.5-2.91-1.94-1.62-3.89-2.46-6.27-1.2-3.79,2-7.31,1.15-10.88-1.63l-5.82,6.75c5.59,6.66,4.27,10.36-3.79,12.39a13.84,13.84,0,0,0-2.68.51c-1.56.8-3,1.84-4.71,2.93l3.16,5.66c-2.4,1.68-4.48,1.87-5.42-.6-1.11-2.9-1.5-6.08-2.17-9.15-.42-1.9-.28-4.17-1.3-5.65-1.83-2.66-1.63-4.62-.22-7.49,2.65-5.45-.06-9.19-6.23-9.46-2.29-.1-4.59-.25-6.88-.17-4.54.16-6.18,1.78-6.45,6.21a27.08,27.08,0,0,0,.06,4.13c.49,5,2,6.23,7,6.14a30,30,0,0,1,6.15.18c2.94.57,4,2.84,3.88,5.66-.14,2.62-1.54,4.34-4.19,4.66-1.58.19-3.23-.2-4.79.07a11.82,11.82,0,0,0-3.17,1.6c.6.86.79,1.47,1.11,1.54,1.77.4,3.57.69,5.36,1,4.47.72,6,2.13,6.39,6.62a110.48,110.48,0,0,1,.67,12.33c-.31,15.78-1.26,31.52-.33,47.35.83,14.14.19,28.36.27,42.55,0,5-.16,10.09.56,15,1.11,7.61-.15,9.46-7.94,9.54-.69,0-1.39-.15-2.06-.09-4.74.41-6.87,3.27-5.89,7.87,1.77,8.39,1.77,8.39,10.65,8.36a15.7,15.7,0,0,0,2.06,0c2-.3,4.42-.09,5.82-1.17s1.36-3.4,2.08-5.49c2.84,4.82,6.84,6.62,12.14,6.58,9.86-.08,19.76.88,29.56.22,6.25-.42,13.21-1.63,18.36-4.86,11.76-7.38,19.55-18.45,23.69-31.87.74-2.4,1.64-4.77,2.15-7.22C428.14,1357.26,431.82,1349,431.35,1339.79Zm-80.3-72.93c1.05.23,1.94,1.24,3.28,2.2L352,1271.7l-3-3C349.69,1268.07,350.53,1266.74,351.05,1266.86Zm-6.87,2.18c1.16,4.14.83,7.74-2.2,11.16C338.15,1274.71,338.78,1271.68,344.18,1269Zm58.39,50.07c0,2.28-.51,4.57-.39,6.84.6,11.48-.32,22.82-1.74,34.23-.83,6.64-1.81,13-4.11,19.36-3.42,9.42-9.33,14.45-19.93,13l.84,5.19c-3.1,1.24-5.31,1.52-8.1-1.11-3.38-3.16-7.11-6.41-12.7-5.36-2.61.49-3.87-1.77-2.31-4a41.45,41.45,0,0,1,7.17-8c1.83-1.49,2.72-2.85,2.72-5.09,0-13.09.07-26.17,0-39.26q-.07-12.36-.53-24.7c-.17-4.91-1.64-6.78-4.36-6.28s-4.53,3.41-3,7.23c2.19,5.36-.41,8.78-3.36,12.35-3.94,4.78-3.74,4.59-.45,9.35,1.23,1.77,1.07,4.5,1.69,7.54a6.13,6.13,0,0,0,.82.86c4,3.6,4.05,3.6,1.46,7.79-.84,1.37-1.76,2.69-2.52,4.1-1.15,2.18-1,4.11.29,6.44a70.2,70.2,0,0,1,4.15,10.67c.45,1.29.26,1.35-3,4.68a37.55,37.55,0,0,0-2.52-5.56c-.67-1-2.12-2.13-3.14-2.06s-2.1,1.56-2.46,2.66c-1.41,4.34-2.47,8.78-3.79,13.15a45.93,45.93,0,0,1-2,4.64l-1.59-.23c0-2.85-.17-5.71,0-8.54.27-3.85,1-7.67,1.21-11.52.13-2.7-.57-5.29,1.84-7.63,2-1.92.59-4.21-.67-6.27-3-4.87-2.86-4.82,1-8.71,1.34-1.34,2.14-3.22,3.34-5.1-1.91-1.24-3.16-2.07-4.71-3.09,1.22-1.43,2.27-2.59,3.23-3.81,1.72-2.18,1.67-4.8-.54-6.05-4.81-2.71-4.42-6.91-4.4-11.33,0-8,.05-16-.37-23.9-.19-3.71.95-6.41,4-8,3.72-1.93,6-6.71,11.8-5.64-1.28,4.33-.89,8.37,4.26,11.19l-5,4.42c-1.18-1.5-2.07-2.5-2.8-3.6-1.12-1.67-2.38-2.88-4.54-1.92-1.93.86-3.65,5-3,7.2.8,2.73,3,2.69,5,2a11.32,11.32,0,0,1,8.57.27c3.49,1.4,5.44-.31,5.45-3.76,0-9.33.12-18.67.11-28,0-3.9-.1-7.81-.35-11.7-.35-5.56.9-7.07,6.54-6.8,3.66.18,7.29.83,10.94,1.25,4.73.54,8.51,2.14,9,7.65a3.37,3.37,0,0,0,.83,1.87c10.77,10.9,9.87,25,10.63,38.63.18,3.17,1,6.31,1.14,9.48C402.67,1310.45,402.61,1314.78,402.57,1319.11Z"/><path class="cls-1" d="M1321,1397.24c5.9-6.73,11.35-13.83,13.77-22.74,1.8-6.61,3.76-13.17,5.64-19.76,3.39-11.88,2.22-24.12,2.78-36.23,0-.65-.43-1.31-.51-2-.32-2.69-.75-5.38-.84-8.08-.51-15-1.73-29.8-9-43.25-4.12-7.58-8.21-15.39-13.64-22-6.66-8.16-16.27-11.3-27.15-11.49v6.95c-2.09-1.09-3.58-1.6-4.72-2.53-2-1.62-4-2.16-6.36-1.06-3.63,1.71-7,1.5-10.59-1.94l-5.92,7.33c5.65,5.87,5.58,6.87-.52,10.67-1.29.8-3,.9-4.41,1.53-2,.87-3.92,1.93-6.19,3.07l3,5.89c-2.38,1.72-4.39,1.82-5.33-.65a65.66,65.66,0,0,1-2.26-9.17c-.38-1.72-.08-3.88-1-5.13-2.15-2.82-1.94-5-.3-8.07,2.66-5,0-9-5.65-9.34a78.56,78.56,0,0,0-8.26-.15c-3.79.2-5.34,1.75-5.72,5.52a23.44,23.44,0,0,0,0,4.81c.53,5,2,6.21,7,6.13a45.68,45.68,0,0,1,5.49,0c2.61.27,4.08,2,4.54,4.47.62,3.41-1.57,5.72-5.59,6.19-2.23.26-5.07-1.43-7.06,2.77,2.55.46,4.63.87,6.72,1.2,4.74.73,6.48,2.35,6.84,7,.33,4.34.45,8.7.52,13,.23,14.4-1.66,28.76-.28,43.21.67,7-.55,14.2-.39,21.29.3,14.19,1,28.37,1.48,42.55.14,4-1.48,6-5.52,6.37-1.81.18-3.68-.27-5.49-.09-4.52.43-6.48,3.63-5.2,8.11.69,2.39,1.24,4.82,1.94,7.58h16c.51-2.45.92-4.37,1.57-7.47,1.65,1.4,2.63,1.84,2.95,2.56,2,4.5,5.71,5.37,10.16,5.29,7.8-.14,15.63-.44,23.39.11C1300.28,1410.71,1312,1407.51,1321,1397.24Zm-58.76-130.31c1,.35,1.86,1.44,3.19,2.6-1.34,1-2.58,2.22-2.9,2a6.63,6.63,0,0,1-2.35-2.85C1260,1268.43,1261.72,1266.77,1262.2,1266.93Zm-7.08,2a11.44,11.44,0,0,1-2.1,11.32C1249.09,1274.82,1249.67,1271.86,1255.12,1268.89Zm24.63,127.53c-3.17-2.91-6.7-6.24-12.09-5.17-2.71.54-4.09-1.63-2.59-3.77,2-2.93,4.32-6,7.17-8,2.3-1.65,2.74-3.29,2.74-5.7,0-12.17,0-24.34,0-36.51,0-8.92-.13-17.85-.36-26.78-.12-4.93-1.46-6.79-4.17-6.56-3.07.26-5,3.33-3.36,7.57,2,5.08-.29,8.37-3.06,11.81-4.59,5.71-4.62,5.68.58,10.78-.43,5.39-.43,5.39,4.76,11l-3.89,6.76c-1.56,2.73-2.08,5.12-.15,8.27s2.86,7.13,3.86,10.84c.26,1-.82,2.35-1.24,3.45-3.75-.18-3-3.38-4.27-5-.79-1-2.16-2.11-3.19-2.05s-2.16,1.54-2.51,2.64c-1.39,4.34-2.43,8.78-3.7,13.16a5.59,5.59,0,0,1-3,3.45,70.39,70.39,0,0,1-.44-7.66c.21-4.54.74-9,1.12-13.58,0-.45-.33-1.08-.13-1.34,3.81-5,2.84-9.52-.83-14.13-.42-.52.84-2.73,1.71-3.86,1.44-1.89,3.19-3.54,5.42-5.94l-5.19-3.49c1.28-1.5,2.35-2.66,3.31-3.9,1.49-2,1.5-4.53-.41-5.51-5.9-3-4.75-8.29-4.87-13.16-.18-6.8.1-13.62-.28-20.41-.26-4.82.8-8.5,5.35-10.85,3.31-1.71,5.34-6,10.39-4.79-.16,2.09-.88,4.4-.32,6.34s2.44,3.2,4.08,5.21l-4.13,3.64c-1.32-1.49-2.36-2.62-3.35-3.79-1.37-1.62-2.94-2.17-4.82-.93s-3.42,5.65-2.11,7.38a4.71,4.71,0,0,0,4,1.53c3.41-.91,6.43-1.17,9.9.3,3,1.27,5.06-.58,5.08-3.61,0-10.72.11-21.43.08-32.14,0-3-.37-6-.5-8.93-.18-4.1,1-5.91,4.94-5.69a101,101,0,0,1,16.33,2.2c1.82.41,3.47,2.62,4.71,4.36,1.69,2.35,2.78,5.11,4.34,7.57,2.85,4.48,5.28,8.93,5.71,14.51.85,10.91,2.31,21.77,3.51,32.65a9,9,0,0,1,.06,1.37c-.78,16.7-1.78,33.39-2.25,50.09-.19,6.81-2.19,13-4.28,19.28-3.18,9.69-9.33,14.35-19.88,13.35.3,1.81.55,3.28.86,5.15C1285,1399.16,1282.72,1399.14,1279.75,1396.42Z"/><path class="cls-1" d="M562.28,1402.73c0-7,.52-14-.14-21.08-.72-7.77,1.49-15.82,2.5-23.73,1.08-8.35-2.16-11.91-10.53-11.46a17.24,17.24,0,0,1-4.12,0c-6.06-1.15-8.85.82-8.73,8.74.06,3.42.92,6.83.9,10.25,0,7.07-.48,14.14-.64,21.21-.12,5.47-1.56,7.52-7.28,7.81-8.18.4-16.39.32-24.59.2-3.77-.06-5.92-2.08-6.47-5.88-.53-3.62-.58-7.32-1-11-.36-3.47-.89-6.92-1.5-11.6.32-1,1.68-3.3,1.75-5.66.27-8.45.06-16.9.1-25.35,0-5.89,2.53-8.14,8.57-8a54,54,0,0,0,10.27-.3,9.47,9.47,0,0,0,5.62-3.36c3.46-4.87.57-14.52-5-16.46a22.66,22.66,0,0,0-9.93-1.09c-4,.5-6.3-1.37-7.61-4.4a22.72,22.72,0,0,1-1.48-8c-.31-7.77-.3-15.56-.51-23.33-.17-6.2-.67-12.38-.65-18.57,0-4.8,2.14-8,5.93-8A201.86,201.86,0,0,1,531.1,1245c4.41.49,5.46,3,4.68,7.47a18.92,18.92,0,0,0-.33,5.94c.45,3.1,1.79,6.1,2,9.2.33,4.54,0,9.14,0,13.71.06,9.35,1,10.3,10,10.78,1.14.06,2.29.19,3.44.21,6.53.13,8-1.34,8.19-8,.38-12.09-.88-24.17.21-36.26.35-3.86-.29-7.79-.23-11.69.09-6-1-7-7.21-6.87-13.52.3-27,.56-40.56.68-7.07.06-14.21-.84-21.19-.12-4.59.47-10.34-2.82-13.59,3.34a8.5,8.5,0,0,1-1.86-1.45c-1-1.59-2.11-3.58-4.2-1.92s-.6,3.84.78,4.67c5.16,3.1,9.59,8.26,16.55,6.66,2.09,2.8,4,5.68,6.21,8.23,2.91,3.29,4.09,6.55.68,10.23,1.21,1.33,2.4,2.2,3,3.37s1.21,3.16.72,4.3c-.32.75-2.61,1-4,.89-4.36-.29-8.7-.84-13.09-1.3-.7,1.76-.93,4.3-2.08,4.84-3.67,1.71-3.18,4.7-3.15,7.61a39.4,39.4,0,0,0,.5,7.54,49.5,49.5,0,0,1-.19,19.1,26.44,26.44,0,0,0-.34,5.48c.32,9.16,1,18.31,1,27.46-.05,15.08,1.21,30.17-.12,45.24-.8,9.06-1.14,9.3-10.49,9.41a5.84,5.84,0,0,0-1.54.58c-.36.86-.71,2-1.24,2.94-.65,1.21-1.62,2.26-2.14,3.51a5.88,5.88,0,0,0,4.07,8.06,23.55,23.55,0,0,0,6.17.19c11.63-.66,23.24-1.85,34.92-.66,4.08.42,8.33-.4,12.35.25,12.61,2.07,25.19,1.08,37.76.19C561.29,1408.52,562.28,1407.28,562.28,1402.73Z"/><path class="cls-1" d="M1048.38,1401.73c.43-9.56.67-19.13,1.1-28.68.2-4.56.73-9.1,1-13.65a42,42,0,0,0-.15-7.53c-.57-4.33-2-5.58-6.26-5.64-2.52,0-5,.31-7.56.28-7.83-.08-8.55.53-8.56,8.54,0,10.3.07,20.6.13,30.91,0,6.14-1.45,7.31-7.18,8.73-8.52,2.1-16.86-1.08-25.31-.06a4.89,4.89,0,0,1-5.49-4.26c-.66-4.28-1.56-8.68-1.18-12.92.34-3.73,0-6.73-3.47-9.74,4.11-3.53,3.81-7.16,2.94-11.18-.61-2.84-.32-5.92-.18-8.88.2-4.08.83-8.15.92-12.23.14-6,2.3-8.24,8.38-8.17,3.21,0,6.43.14,9.62-.13,4.74-.41,6.52-2.29,7.23-6.75,1.61-10.18-5.24-15.75-15.26-14.63-5.11.57-7.84-1.09-8.88-6a34.34,34.34,0,0,1-.5-5.47q-.85-18.48-1.64-37a39.39,39.39,0,0,1,.05-6.87c.46-3.47,2.45-6.61,6-6.63a200.06,200.06,0,0,1,24,1.37c3.92.45,4.82,3,4.29,7.24-.27,2.17-.62,4.52-.08,6.56,1.47,5.54,2.8,10.94,1.63,16.8a29.29,29.29,0,0,0,.1,8.91c.72,6.15,1.89,7.07,8.32,7.42,1.61.08,3.21.25,4.81.28,6.77.16,8-.93,8-7.9.06-16,0-32.08,0-48.13,0-6.31-.86-6.93-7.23-6.76-11.9.32-23.8.57-35.7.62-11.19,0-22.38-.25-33.57-.2a6.77,6.77,0,0,0-3.89,2,41.91,41.91,0,0,0-4.05,4.84c4.85,1.82,7.64,7.7,13.4,4.16,2.55,3.59,4.91,6.67,7,9.93.92,1.47,2.16,3.67,1.67,4.94-1.27,3.3-.61,5.57,1.71,8a4,4,0,0,1,.35,3.73c-.43.79-2.27,1.23-3.4,1.11-3.7-.41-7.36-1.19-11.05-1.7-.84-.12-2.41.07-2.53.47-1.19,3.83-6.13,5.59-5.53,10.46.41,3.4-.43,7.08.52,10.27,1.64,5.54.64,10.81,0,16.22a53.12,53.12,0,0,0-.38,8.91c.28,5.7,1.13,11.38,1.23,17.08.18,9.59.3,19.21-.19,28.78-.45,8.84,1.58,17.63-.34,26.55-1.63,7.56-1.35,8-9,8a18.73,18.73,0,0,0-2.71.43,14.68,14.68,0,0,1-1.35,3.27c-2.2,2.93-3.73,6-1.4,9.43,2.16,3.17,5.71,2.27,8.87,2.3.91,0,1.82-.18,2.74-.22,10.71-.44,21.39-1.69,32.14-.49,4.08.46,8.34-.52,12.35.17,12.13,2.07,24.24,1.2,36.37.42C1047.71,1408.58,1048.09,1408.14,1048.38,1401.73Z"/><path class="cls-1" d="M1179.34,1390.18c-1.69-.07-3.39,0-5.25,0,1-3.93,1.72-7.06,2.67-11l4-3.54-5.49-4.42c5.07-8.47,4.61-13.79-2.32-22.55,2.83-2.6,2.94-5.37,1.73-8.75a99.49,99.49,0,0,1-3.2-12.61c-2.06-9.39-4.15-18.77-6-28.2-2.2-11.23-3.9-22.56-6.33-33.73-1.5-6.89-4-13.54-5.93-20.35a11.12,11.12,0,0,1-.08-5.1c1.35-6.34-2.23-11.75-8.61-12.12a46,46,0,0,0-9.56.79c-4,.59-5.84,3.32-6.36,7.11-1,7.49-1.77,15-3.23,22.44-.71,3.62.4,5.75,3.12,7.54,1.72,1.12,3.43,2.64,5.34,3,4.78,1,6.17,4,6.37,8.19-7.48,3.25-8.36,4.53-7.62,10.83,6.48.14,7,.38,7.49,5a218.17,218.17,0,0,0,8.52,40.21,20.26,20.26,0,0,1,.61,5.45c.13,7.57-4.22,10.64-11,7.32-2.89-1.41-4.9-1.49-7.55.19-2.24,1.42-5,2.64-7.12-.15,1.8-7.59,4.63-14.71,3.89-23.8-6.22,5.21-9.76.29-14.23-2.24-.8,4.48-1.29,8.3-2.18,12-1.78,7.46-1.7,7.67,6.13,9.27.35.07.6.6,1.2,1.22l-2.65,5.68-7.17-1.15a36.25,36.25,0,0,0-1.52,4.23q-3.83,18-7.53,36.12c-1.67,8.12-1.63,8.11-10.22,8.79a28.08,28.08,0,0,0-3.56.88c.18,3.55.23,7.13.65,10.66.1.84,1.53,2.23,2.25,2.18,5.48-.44,11.52,2.42,16.28-2.67.69-.74,1.9-1,2.77-1.41,5.74,7,12.94,2.49,19.62,4.1,1.79-6.06,4.73-11.33-1.16-16.51a45.24,45.24,0,0,1-4.42,1.61,5,5,0,0,1-6.45-5.67c1.19-7.41,2.5-14.8,4.08-22.13,1.26-5.8,4.53-7.7,10.3-7.52s11.34-.13,17-.42c4.52-.23,8.52,2.1,8.25,6.16-.37,5.51,2.51,8.46,6,10.51-.58,3.36-1.73,6.24-1.43,9,.94,8.32.27,9.52-7.91,10.32-2.62.26-4.3,1.41-4.81,4-.65,3.37,1,8.4,3.06,9.35.4.18,1,.46,1.28.3,4-2.33,9.35-1,12.93-5.28,3.92-4.65,5.4-4.22,8.17,1.29,1.3,2.6,3.05,4,5.93,3.61,4.19-.56,8.38-1.25,13-1.94-.76-2.19-2-4.4-2.22-6.7C1188.25,1393.16,1185.73,1390.42,1179.34,1390.18Z"/><path class="cls-1" d="M230.4,1410.27c11.9-.37,23.8-1,35.7-1.5a10.88,10.88,0,0,0,2-.28c2.46-.55,3.44-1.94,2.69-4.51-2-6.88-4.8-13.57-4.32-21,.1-1.48-.79-3.08-1.43-4.54-1.28-2.89-1.74-5.73.08-8.53,1.56-2.42,1.16-4.72,0-7.16-1.6-3.3-2.56-7-4.54-10-4.61-7.06.19-14.27-.75-21.35-.07-.52,1.53-1.56,2.49-1.8.5-.12,1.61.85,1.92,1.55a50.79,50.79,0,0,1,1.68,5.67c.75-1.8,1.22-2.4,1.2-3-.26-6.16-.45-12.34-1-18.48a8.77,8.77,0,0,0-2.26-4.71c-4.65-5.09-4.42-6.84,2.46-10,0-6.25,0-12.87,0-19.49-.06-9-.23-17.9-.21-26.84,0-7.8,1.73-9.4,9.7-9.58,3.77-.09,4.89-1,5.2-4.78a23.43,23.43,0,0,0-.07-5.49c-.43-2.72-2-4.87-4.89-5-4.51-.15-9,.18-13.34.3-1.87,4.27-1.11,9.05-5.09,11.21-7.6-1.69-2.91-6.78-3-11-9.69-.23-19-.58-28.32-.53-1.45,0-4.08,1.76-4.12,2.78-.13,3.75-.18,7.87,1.25,11.19,1.34,3.1,4.39.32,6.68-.2a5.28,5.28,0,0,1,.67-.13c2.83-.27,5.62-.37,7.05,2.81a7.83,7.83,0,0,1-1.88,8.72c-1,.85-2,1.62-3.12,2.49.63.88.9,1.58,1.41,1.91,4.75,3.08,5.3,4.29,4.44,9.29a28.06,28.06,0,0,0-.48,6c.31,6.86,1.14,13.71,1.1,20.56,0,6.65,3.74,13.45-.64,20-.52.77.1,2.24.06,3.38-.52,14.77,3.1,29.47.71,44.27a13,13,0,0,0,.17,5.45c2,7.08.32,14-.44,21-.33,3-2.21,4.42-5.14,4.43-1.37,0-2.74-.28-4.11-.35-4.67-.24-6.84,1.65-7,6.27a27.8,27.8,0,0,0,.49,4.79C224.27,1409.87,224.73,1410.45,230.4,1410.27Zm26.22-130.68c3.67-4.86,1.34-10.18,1.21-15.3-.16-6.16-.59-12.3-.83-18.45,0-.54.54-1.11,1.17-2.34.85,1.28,1.83,2.07,1.89,2.93,1.17,15.31,2.22,30.62,3.3,45.93l-2.1.38c-1.57-3.72-3.16-7.43-4.66-11.18A2.36,2.36,0,0,1,256.62,1279.59Z"/><path class="cls-1" d="M485.78,500.53a18.58,18.58,0,0,0,3.32.91,55,55,0,0,0,17.42,0,142.9,142.9,0,0,0-16-9.14c-7.56-3.75-15-7.46-21.94-12.48-7.76-5.65-14.55-12.23-21.53-18.72-4.74-4.42-9-9-12-14.67-.13-.24-.75-.22-1.22-.34l-1.13,4.1c-1.33-.62-2.79-.81-3.23-1.59-2.06-3.62-5.35-4.21-9.1-5.08-5.9-1.37-11.54-3.91-17.28-6a9.88,9.88,0,0,0-2.57-.87c-10.71-.59-20.3-5-30.11-8.7-3.85-1.44-7.61-3.15-11.4-4.73a162.45,162.45,0,0,0,19.73,12.65c6.69,3.81,6.84,4.17,3.68,11.23a19,19,0,0,1-1.26,2.41c-3,4.8-4.36,5.32-9.58,3.32-5.77-2.21-11.47-4.64-17.24-6.86a35.71,35.71,0,0,0-5.17-1.06c1,1.37,1.31,2.14,1.82,2.35,9.53,3.92,19.09,7.78,28.64,11.66l8.25,3.34c-9.49,17.65-8.59,34.36,1.23,50.6-10,4.31-10,4.31-11.14,11.16l17.44,6.26-9.12,2c4.5,1.67,3.53,7.45,8.73,6.11.79-2.59,1-4.76,2.06-6.32.87-1.26,2.81-1.78,4.28-2.62.52,1.35,1.58,2.75,1.46,4-.36,3.79,1.4,5,4.8,4.88,1.13,0,2.26,0,3.62,0,.75-1.2,1.26-2.61,2.25-3.4s2.46-.75,3.6-1.33a3.79,3.79,0,0,0,1.88-1.84c1.58-4.87,6.51-6.58,9.48-10.16,1.27-1.52,4-1.93,6.12-2.6,3.45-1.09,7.27-1.4,10.36-3.08a152.33,152.33,0,0,0,17.68-11.15C469.76,499.62,477.19,497.41,485.78,500.53Zm-86.56,6.38c-1.16,3.29-2.51,4.35-5.54,2.89.65-.83.92-1.5,1.38-1.69A37.09,37.09,0,0,1,399.22,506.91Zm-1.78-10.21V485H398v11.74Zm17.59,24c-11.42,2.81-15.5,2.73-20.1-.53,5.29-.57,10-.8,14.51-1.64a129.66,129.66,0,0,0,13.94-3.61,107.74,107.74,0,0,0,12.9-4.66c4.36-2,8.45-4.53,12.66-6.84,3.87-2.12,6.37-6.75,11.61-6.33C448.37,510.72,432.09,516.48,415,520.69Zm-7-49.45c5.41,2.25,10,4,14.54,6.1,5.39,2.51,10.6,5.39,16,8,3.52,1.69,5.1,4.83,8,9-3.95-.45-6.5-.88-9.07-1-2.4-.11-4.81.14-7.08.22-1.45,6.11,2.07,12.36-5.53,14.69-4.53,1.39-4.41,1.78-8.58-1.92-.86,1.85-1.64,3.56-2.62,5.68-3.4-1.18-6.84-1.51-9.6,2.59-.25-.55-.51-1.1-.76-1.66,1.51-4.35,3.42-8.61,4.42-13.08a65.38,65.38,0,0,0,1.45-13.6C409.22,481.57,408.5,476.87,408,471.24ZM442.36,499c-2.12,3.42-4.66,2.34-8.47,1.88C437.1,498.67,439.09,497.31,442.36,499Zm24.25-10.48c-4.53-2.91-9-5.94-13.63-8.66-2-1.2-4.46-1.76-7.38-2.87-1.14-3.13-2.7-6.94-8-4.17-.47.24-2-.49-2.26-1.11-1.29-2.75-3.38-2.51-5.79-2.11a4.93,4.93,0,0,1-3.24-.7c-9.65-6.54-20.72-9.43-31.7-12.63-3.85-1.13-8.14-1.62-10.75-5.27,3.27-7.53,4.59-8.53,11.93-6.29,16.08,4.91,31.34,11.58,44.72,22.1,3.71,2.92,8.11,4.94,12,7.65,4.78,3.34,9.38,6.94,14,10.5a8.08,8.08,0,0,1,1.42,2.13Z"/><path class="cls-1" d="M369.1,692.54c-.9-2.07-2.51-4.26-2.36-6.29.39-5.36-1.3-8.7-7-9.27-.78-8.86-5.88-14.35-12-19.08l-1.73,1.46c1.72,2,3.47,4.07,5.16,6.15,5.72,7,7.15,14.49,2.71,22.86-4.56,8.59-9.68,16.46-20.14,19.27,5.85,4.26,15.77,1.83,26-5.77a4.7,4.7,0,0,1,1.41,0c4.3,1.51,6.38,1,8.89-1.88S370.15,695,369.1,692.54Z"/><path class="cls-1" d="M730.34,1390.28c-1.32,4.83-2.29,9.75-3.62,14.57-2.88,10.4-10.82,15.09-20.58,16.63a42.21,42.21,0,0,1-27.29-4.48c-1-.53-2.38-.29-4.58-.51,1.07,1.8,1.4,3.1,2.19,3.53,3.21,1.7,6.44,3.77,9.91,4.5,4.6,1,9.46.56,14.16,1.19,18.66,2.52,38-15.78,32-39.84A25.2,25.2,0,0,0,730.34,1390.28Z"/><path class="cls-1" d="M293.32,1395c-.74,1.11-2,2.17-2.1,3.34a45,45,0,0,0,.13,8.2c.75,8.49-1.55,11.46-9.84,12-4.56.3-9.16.41-13.73.27-6.16-.19-12.3-.79-18.45-1.06-6.37-.28-12.75-.37-19.12-.55-.23,0-.45-.08-.68-.08-2.15,0-4.49.14-4.72,2.81s2,3.48,4.18,3.39c3.2-.12,6.37-.83,9.57-1,7.27-.28,14.7-1.36,21.79-.28,10.42,1.59,20.52-.37,30.76-.76,2.36-.09,4-1.32,4-3.82.07-7.24,0-14.48,0-21.72Z"/><path class="cls-1" d="M1062.33,1380.65c1-9.07.64-18.29.79-27.44a28.76,28.76,0,0,0-.67-4.66l-2,0c-.21,2.34-.54,4.67-.61,7-.29,8.9-.5,17.8-.73,26.7,0,.91,0,1.82.07,2.74.22,8.84.61,17.67.57,26.51,0,3.54-1.32,7.52-5.2,8.08-7.56,1.1-15.24,1.31-22.89,1.74-1.31.08-2.67-.79-4-.77a13.54,13.54,0,0,0-3.54,1l.18,1.37a11.16,11.16,0,0,0,2.58.67c9.85.11,19.7.09,29.54.28,3.33.06,5.3-1.39,6-4.47.64-2.9,1.51-5.92,1.27-8.81C1062.77,1400.68,1061.23,1390.81,1062.33,1380.65Z"/><path class="cls-1" d="M666.3,1403.47c-.1,3.21.1,6.43,0,9.63-.28,6.81-1.42,8.08-8.16,8.08q-20.61,0-41.22-.43c-3.89-.07-7.76-1-11.64-1-1.08,0-2.17,1.72-3.25,2.65a16.11,16.11,0,0,0,2.88,2.51c.7.37,1.78,0,2.69,0,9.58-.06,19.17,0,28.75-.18,10.48-.18,21-.55,30.81-.82,5.87-8.45,3.11-16.14,0-24A18.69,18.69,0,0,0,666.3,1403.47Z"/><path class="cls-1" d="M209.49,1198c-2.45.31-2.57,2.32-2.39,4.19.27,2.73.83,5.42,1.08,8.14a66,66,0,0,1,.28,7.44c-.09,4.09-.49,8.18-.49,12.27q0,14.68.28,29.35c0,1.31.78,2.61,1.2,3.92l2-.35a26,26,0,0,0,.83-4.38c.24-12.55,1.36-25.09,0-37.66-.27-2.59,1-5.31,1.21-8a82.2,82.2,0,0,0,.38-11.52A3.62,3.62,0,0,0,209.49,1198Z"/><path class="cls-1" d="M789.61,1419c-.2,3.66,1.45,4.83,4.07,4.89,3.66.1,7.32,0,11,0,12.09,0,24.17-.07,36.26-.06,3.87,0,7.57-.5,10.83-3.14C831,1417.23,810.38,1420.28,789.61,1419Z"/><path class="cls-1" d="M441.29,1321.13a46.68,46.68,0,0,0-.89,5.46c-.39,7.76-.29,15.57-1.06,23.29a112,112,0,0,1-3.7,20.87c-2.33,7.82-4.07,16.08-9.82,22.5-.37.41-.23,1.27-.55,3.42,2.13-1.21,3.84-1.57,4.24-2.5,3.3-7.54,7-15,9.28-22.85s3-16.13,4.28-24.25a112.93,112.93,0,0,0,1.58-15c.07-3.63-.93-7.28-1.46-10.93Z"/><path class="cls-1" d="M1354.54,1321.53l-2.11-.37c-.3,1.82-.74,3.63-.87,5.46-.49,6.83-.83,13.67-1.33,20.5-1.21,16.6-4,32.74-13.93,46.76-.32.44-.1,1.26-.17,2.81,1.76-.93,3.68-1.29,4.14-2.31a239.63,239.63,0,0,0,9.22-22.13c1.73-5.14,2.13-10.73,3.15-16.12C1354.81,1344.66,1356,1333.15,1354.54,1321.53Z"/><path class="cls-1" d="M136.81,1244c-3.23,6.15-4.93,32.69-3.7,57.61.07,1.38.77,2.73,1.45,5,1.22-1.49,2.17-2.11,2.19-2.76q.92-29.4,1.6-58.81C138.36,1244.65,137.35,1244.3,136.81,1244Z"/><path class="cls-1" d="M419.57,1402c-5.17,8.1-14.33,11.07-21.5,16.59-1.06.82-3,.57-4.55.69-8.29.69-16.59,1.34-24.89,2l-.13,1.92a36.3,36.3,0,0,0,4.27.42c2.49,0,5-.7,7.45-.38,16.75,2.24,29.71-4.94,41-16.23,2.91-2.9,3-3.63,1.42-9.89Z"/><path class="cls-1" d="M1329.92,1402.68c-5.31,7.66-14.1,10.71-21.17,16-.8.6-2.16.54-3.27.63-5.91.51-11.82,1-17.74,1.44-2.77.21-5.55.4-8.33.6l0,2.14c1.49,0,3,0,4.46,0,2.72-.08,5.49-.61,8.14-.27,16.93,2.19,29.56-5.85,40.9-17,2-1.94,3-4.41.42-7.62A51.87,51.87,0,0,0,1329.92,1402.68Z"/><path class="cls-1" d="M573.62,1392.24c0,5.52.3,11-.1,16.53-.31,4.21-.08,9.9-5.33,10.82-7.69,1.36-15.64,1.24-23.49,1.63-1.33.07-2.72-.69-4-.56-1,.1-2,1-3.61,1.82,1.46.62,2.07,1.1,2.68,1.11,10.29.14,20.58.3,30.86.28,3.52,0,5.38-1.9,6-6.2,1.3-8.61-.24-17.08-1.09-25.58Z"/><path class="cls-1" d="M906.47,1230.94c10.64,2.08,13.48.27,13.69-8.11.17-7.19-.2-14.41-.62-21.6-.07-1.1-1.74-2.11-2.67-3.16-.93,1.1-2.64,2.18-2.68,3.32a146.87,146.87,0,0,0,.34,15.7C915,1222.94,914.35,1228,906.47,1230.94Z"/><path class="cls-1" d="M281.36,1256.61c-4.52.32-5.89,2.12-6,6.74q-.39,17.87-.55,35.73c0,1.56.72,3.12,1.11,4.68,1.8-1,2.6-1.91,2.61-2.84.09-10.3.22-20.61,0-30.92-.17-8.33-.12-8.64,8.09-10.26,5.38-1.06,6.86-3.72,4.77-10.32C289.75,1254.61,286.2,1256.26,281.36,1256.61Z"/><path class="cls-1" d="M920.11,1407.93c-1.16.92-2.78,1.6-3.41,2.8-4.5,8.49-7.59,9.94-17.48,8.58-4.12-.58-8.44-1.23-13.19,1.12,2.84,3.64,5.83,3.44,8.81,3.31,6.77-.3,13.53-.67,20.3-.81,6.12-.13,7-.85,7-7.07a16,16,0,0,0-.1-4.1A20.23,20.23,0,0,0,920.11,1407.93Z"/><path class="cls-1" d="M210.17,1329.83c-2.43-.38-2.41,2-2.62,3.85-.47,4.07-1.15,8.12-1.6,12.19-.83,7.44-1.55,14.88-2.39,23.12,4.42-.44,5-2.85,5.55-5.34.64-3.12,1.5-6.22,1.86-9.38.8-6.81,1.5-13.65,1.83-20.49C212.87,1332.44,211.27,1330,210.17,1329.83Z"/><path class="cls-1" d="M903.7,1290.25c-.3-1.27-1.46-3-1-3.69,3.13-5,1.34-10.29,1.5-15.42.16-5.3-.33-10.63-.53-15.94l-1.67-.14c-2.48,5-2.4,10.36-1.78,15.81a40.85,40.85,0,0,1,.53,5.37c-.17,6.38-.72,12.75-.62,19.11,0,3.22,1.15,6.43,2,10.78C907,1300.2,904.87,1295.19,903.7,1290.25Z"/><path class="cls-1" d="M904.29,1324.52c0-2.17-.53-4.23-4.33-3.52v5.09q0,17.75,0,35.49c0,2.06,0,4.21,3.2,4.77.44-.75.86-1.13.86-1.52C904.18,1351.4,904.28,1338,904.29,1324.52Z"/><path class="cls-1" d="M1090.13,1419.37c-1.29,0-2.59,1-3.86,1.52,1.18,3.37,3.45,2.83,5.43,2.84,10,0,20.08.11,30.12,0,3.11,0,6.22-.53,9.33-.82.1-.6.21-1.19.31-1.78-1.44-.48-2.86-1.36-4.31-1.39Q1108.64,1419.39,1090.13,1419.37Z"/><path class="cls-1" d="M650,1287.27c0,2.27-.38,5,2.71,6.87a11.4,11.4,0,0,0,1-2.77c.26-8.88.45-17.75.66-26.63.13-5.48.55-6,6-7.08a26.44,26.44,0,0,0,3.06-1.24c-9.87-2.32-13.65.07-13.63,7.6C649.75,1271.77,649.76,1279.52,650,1287.27Z"/><path class="cls-1" d="M1059.35,1298.68c-.15-9.84-.55-19.66-.91-29.49,0-.59-.58-1.16-1.3-2.49-1.06,1.94-2,2.82-2,3.73-.18,5.92-.43,11.87-.13,17.78.29,5.75.74,11.4-3.53,17.36C1058.61,1304.43,1059.42,1303.8,1059.35,1298.68Z"/><path class="cls-1" d="M1056.94,1230.41c-3.24,0-3.1,2.7-2.89,5,.46,5.23,1.08,10.45,1.44,15.69.21,3.05,0,6.13,0,9.89,4.25-1.38,3.72-3.94,3.79-6.11.2-6.62.28-13.25.45-19.87C1059.82,1232.82,1059.54,1230.45,1056.94,1230.41Z"/><path class="cls-1" d="M473.25,1244.28c-3.14-4.75-5.36-8.33-7.84-11.71-.82-1.12-2.69-2.69-3.43-2.4-1.46.58-3.51,2.35-3.46,3.56.15,3.53.55,7.35,2.09,10.44s5,.45,7.53.61A46.09,46.09,0,0,0,473.25,1244.28Z"/><path class="cls-1" d="M573.08,1300c-.24-10.6-1-21.18-1.61-31.77,0-.14-.32-.26-1.45-1.11a15,15,0,0,0-1,3.47c-.09,5.7,0,11.4-.07,17.1s1.17,11.82-3.11,17C570.56,1305.33,573.17,1303.87,573.08,1300Z"/><path class="cls-1" d="M958.83,1243.36c-3.23-4.21-6.4-8.35-10.36-13.5-.85.67-2.85,1.47-3,2.48a30.14,30.14,0,0,0,.2,10.08C946.69,1246.47,951.26,1246.71,958.83,1243.36Z"/><path class="cls-1" d="M570.37,1230.34c-2.93.25-3.08,2.67-2.81,5.19.64,5.86,1.15,11.73,1.58,17.6.18,2.34,0,4.7,0,7l2.39.32A27.75,27.75,0,0,0,573,1255c.37-6.81.51-13.63.71-20.45C573.74,1232.26,572.85,1230.14,570.37,1230.34Z"/><path class="cls-1" d="M277.45,1403.54c.37.9,1.84,1.34,3,2.11,1.06-4.45-.54-25-2.35-30.33-.93,1-1.73,1.48-1.76,2-.37,6.34-.83,12.68-.81,19A19.83,19.83,0,0,0,277.45,1403.54Z"/><path class="cls-1" d="M695.54,1323.31c7.45,7,13.42,15,17.11,24.66.31.79,1.8,1.12,3.37,2-2-14.39-13.53-21.8-19.69-33.15C692.68,1319.27,693.25,1321.16,695.54,1323.31Z"/><path class="cls-1" d="M135.8,1313c-1.32.91-2.5,2-2.51,3-.16,12.16-1,24.39,2.27,36.29A163.09,163.09,0,0,0,135.8,1313Z"/><path class="cls-1" d="M321.11,1420.41c.84,3.89,3.36,3.59,5.88,3.62,6.38.1,12.76.51,19.13.47,3.33,0,7,.49,10.11-2.57C349.6,1419.83,326.09,1418.78,321.11,1420.41Z"/><path class="cls-1" d="M1265.37,1420.76c-7.73-.67-15.46-1.29-23.19-1.81a30.93,30.93,0,0,0-6.87.15c-1.08.18-2,1.39-3,2.14,1.06.94,2.09,1.93,3.21,2.79.29.23.89,0,1.35,0,7.08.18,14.17.49,21.25.47,2.87,0,5.74-.72,8.6-1.12,0-.51,0-1,.07-1.54C1266.33,1421.5,1265.88,1420.8,1265.37,1420.76Z"/><path class="cls-1" d="M710.72,1284.7a24.33,24.33,0,0,0-.88,6.78A18.52,18.52,0,0,1,705,1304.6c-2.33,2.73-3.89,6.13-5.79,9.24,10.28-5.63,17.92-24.2,14-33.09C712.18,1282.31,711.06,1283.4,710.72,1284.7Z"/><path class="cls-1" d="M1164.85,1256.92c.3,1.13,1.88,1.92,2.87,2.87l1.43-.72c-1.42-8.44-2.78-16.89-4.34-25.31-.14-.74-1.59-1.25-3.84-2.9-.21,3.55-.74,5.6-.37,7.47Q1162.42,1247.69,1164.85,1256.92Z"/><path class="cls-1" d="M485.19,1419.86c-7.43-.62-14.87-1.3-22.32-1.59-1,0-2.86,1.78-3,2.93-.34,2.29,1.74,3.13,3.65,3,7-.5,14.05-1.17,21.07-1.86.48,0,.89-.8,1.29-1.18C485.57,1420.58,485.41,1419.88,485.19,1419.86Z"/><path class="cls-1" d="M971.18,1419.52c-7.06-.58-14.13-1.16-21.21-1.47-2.17-.1-4,1-4.11,3.65,4.48,3.42,18.86,3.09,26.49-.67C972,1420.48,971.6,1419.56,971.18,1419.52Z"/><path class="cls-1" d="M574,1386.83c.89-1.67,2.17-3,2.19-4.3.16-11.23.09-22.46.09-33.69l-1.88-.15c-.37,1.68-1.09,3.37-1.06,5,.07,5.42.6,10.84.61,16.25a69,69,0,0,1-1,10.11C572.58,1382.25,571.44,1384.41,574,1386.83Z"/><path class="cls-1" d="M1029.45,1304.94c-4.5-.09-6.16,1.26-6.47,6.24-.32,5.22-.08,10.47,0,15.71,0,.76.74,1.5,1.53,3,3.69-3.06,3.11-6.47,2.61-9.39-.85-4.93-.9-9.48,2.26-13.67C1029.72,1306.42,1029.45,1305.57,1029.45,1304.94Z"/><path class="cls-1" d="M1177.11,1310.19c.72,4.88-.25,10.49,4.58,14.52,1.59-6.86-1.81-21.38-7.35-29.39C1172.79,1300.73,1176.38,1305.19,1177.11,1310.19Z"/><path class="cls-1" d="M208.32,1278.76c1.48,5.17.53,9.87-2.55,15.79,8.43-3.79,9.92-12.64,5.24-22.84C208.42,1275,207.55,1276.05,208.32,1278.76Z"/><path class="cls-1" d="M1174.06,1289.28c.42-8.42.74-16.15-4.69-24C1167.53,1270.93,1170.35,1284.7,1174.06,1289.28Z"/><path class="cls-1" d="M766.37,1418.37c-.86,0-2.47,2-2.33,2.75.23,1.25,1.64,3.18,2.61,3.22,4.46.18,9-.19,13.44-.37.18-.66.36-1.32.53-2-1.38-1-2.65-2.54-4.16-2.83A46.12,46.12,0,0,0,766.37,1418.37Z"/><path class="cls-1" d="M543.53,1304.53c-5.43,1-6.23,1.49-6.48,6-.3,5.21-.07,10.46.06,15.68,0,.92.69,1.83,1.22,3.11,2.81-4.65,2.93-4.67,2-10.55-.59-3.75-.53-7.21,1.89-10.39C542.85,1307.54,543,1306.34,543.53,1304.53Z"/><path class="cls-1" d="M732.14,1367.87c0,4-.95,8.46,4,12v-17.73C732.32,1364.41,732.18,1364.41,732.14,1367.87Z"/><path class="cls-1" d="M456.51,462.41c1.76-1.33,3.53-2.64,5.24-4,.14-.11-.14-.74-.26-1.29l-5.33.78-2.81-6.67L448,458.93C454.69,455.15,453.1,462.07,456.51,462.41Z"/><path class="cls-1" d="M443.06,445.28c-.72-1.57-2.31-4.37-5.49-1.49L445.81,456C448.87,450.37,444.41,448.22,443.06,445.28Z"/><path class="cls-1" d="M652.76,1344.79c-2.88,3.48-3.13,11.56-.48,18.63C653.91,1356.86,654.49,1351,652.76,1344.79Z"/><path class="cls-1" d="M681.75,836.58c-.21,6.88.76,8.13,6.81,9.45C684.73,837.6,684.73,837.6,681.75,836.58Z"/><path class="cls-1" d="M637.42,930c.45-.15.88-1.59.71-2.3-.76-3.15-5-5.58-8.73-5.23-.09.42-.36.9-.24,1.27a21.42,21.42,0,0,0,1.07,2.47,34.86,34.86,0,0,0,4.17,3.54A3.93,3.93,0,0,0,637.42,930Z"/><path class="cls-1" d="M630.23,926.2l-.18-.16,0,0h0l.07.2h.14Z"/><path class="cls-1" d="M861.84,1420.78c4.48,2.42,9.55,2.53,15.11-.14C865.91,1418.58,865.24,1418.59,861.84,1420.78Z"/><path class="cls-1" d="M293.21,1231.89c-4.2,3.55-4.47,7-.57,12.18C292.82,1240.22,293,1236.36,293.21,1231.89Z"/><path class="cls-1" d="M694.41,840.85c2.25-4.52.16-7.09-7-8.16C688.54,837.22,691.74,838.69,694.41,840.85Z"/><path class="cls-1" d="M695.46,827c.95,3.23.78,7.11,5.16,8.93C701.41,831,699.73,828.25,695.46,827Z"/><path class="cls-1" d="M440.93,1301.2l-1.47.15.75,11.24,2-.11A23.38,23.38,0,0,0,440.93,1301.2Z"/><path class="cls-1" d="M767.8,1233.82c1-.24,1.64-2.06,3.28-4.29l-9.81-.52C763.06,1233.4,765.24,1234.42,767.8,1233.82Z"/><path class="cls-1" d="M278.72,1350.26c-.23-4.23-.41-7.57-.6-10.92C275.05,1344.66,275.18,1346.52,278.72,1350.26Z"/><path class="cls-1" d="M1353.93,1313.15c-.86-4.69-1.53-8.39-2.39-13.12C1349.39,1306.56,1349.86,1309.5,1353.93,1313.15Z"/><path class="cls-1" d="M920.48,1400.09c1.41-3.54,1.66-6.11-2.87-7.89C915.93,1396.2,917.19,1398.25,920.48,1400.09Z"/><path class="cls-1" d="M498.5,1422.85c3.82.62,6.76,1.36,10.72-1.39C505,1421,501.91,1418.91,498.5,1422.85Z"/><path class="cls-1" d="M683.64,853.19l-3.95-9.88C677.7,847.14,677.7,847.14,683.64,853.19Z"/><path class="cls-1" d="M1144.46,1421.71c3.13,1.79,5.6,1.36,7.59-1.59C1149.58,1420.48,1146.59,1418.76,1144.46,1421.71Z"/><path class="cls-1" d="M1185.72,1339.14c.36-2.64,1.35-5.37-2.93-7.38.25,2.51.49,5,.74,7.52Z"/><path class="cls-1" d="M986,1422.88h7.72C988.28,1420.19,988.28,1420.19,986,1422.88Z"/><path class="cls-1" d="M1120.74,1280.06v4.4l1.64,1c.93-1.23,2.7-2.53,2.61-3.69C1124.84,1279.72,1123,1279.09,1120.74,1280.06Z"/><path class="cls-1" d="M704.64,826.45l1.19-.84-4.21-6.75-1.34.78C701,822.34,701.94,824.87,704.64,826.45Z"/><path class="cls-1" d="M1127.37,1314.28c.11-.6.22-1.2.34-1.8l-4.51-1.5c-.38,1.27-.77,2.53-1.38,4.5Z"/><path class="cls-1" d="M1164.83,1421.34c2.54,2.79,4.45,2.52,6.91.62C1169.7,1420,1168,1419,1164.83,1421.34Z"/><path class="cls-1" d="M900.19,1372.62c1,3.05,1.65,5.05,2.3,7.05C903.82,1377,905.4,1374.24,900.19,1372.62Z"/><path class="cls-1" d="M137.08,1359.65c-2.74,3-2.74,3-.29,7C138.78,1364.25,138.22,1362,137.08,1359.65Z"/><path class="cls-1" d="M820.72,510.5c-1.48-1-2.39-2-3.42-2.12-.54-.07-2,1.73-1.82,2a5.35,5.35,0,0,0,2.56,2.33C818.48,512.88,819.46,511.58,820.72,510.5Z"/><path class="cls-1" d="M826.81,1236.71l4.13-2.41c-1.38-1.27-2.35-2.61-2.77-2.46a5,5,0,0,0-2.67,2.3C825.25,1234.68,826.33,1235.84,826.81,1236.71Z"/><path class="cls-1" d="M412.14,803.93,407.79,808C412.6,808.34,412.6,808.34,412.14,803.93Z"/><path class="cls-1" d="M598.16,927.68c-1.21-3.42-2.63-4.93-5.8-5.93C593.16,925.07,594.93,926.23,598.16,927.68Z"/><path class="cls-1" d="M652.43,1373.17c-2.55,2.15-2.39,4-.18,6.53C654.11,1377.32,655.19,1375.48,652.43,1373.17Z"/><path class="cls-1" d="M363.23,714.09c2.82-2.07,5.8-1.24,6.33-5.4C366.38,708.79,364.63,709.83,363.23,714.09Z"/><path class="cls-1" d="M412.07,817.37c1.07-.38,1.93-1.32,3.57-2.55-1.65-.82-2.89-1.85-3.36-1.57-.95.56-1.49,1.82-2.21,2.79C410.75,816.52,411.62,817.53,412.07,817.37Z"/><path class="cls-1" d="M512.84,1423.06l5.63.63c.06-.77.11-1.55.17-2.32C516.74,1420.1,514.85,1419.9,512.84,1423.06Z"/><path class="cls-1" d="M999.28,1422.37c1.88,1.79,3.59,2.07,5.57.06C1002,1420.54,1002,1420.54,999.28,1422.37Z"/><path class="cls-1" d="M708.32,798.92c-.2.32-.41.64-.61,1l3.23,2.27.72-1.08Z"/><path class="cls-1" d="M835.48,537.89c-1.15-1-1.86-2-2.35-1.94-.88.17-1.62,1-2.43,1.58.53.62,1,1.73,1.58,1.73C833.16,539.27,834,538.56,835.48,537.89Z"/><path class="cls-1" d="M488.86,1252.57l-.93-1.57c-.72-.36-1.5-1.1-2.13-1s-1.22,1-1.82,1.61c.77.6,1.47,1.51,2.32,1.7S488,1252.85,488.86,1252.57Z"/><path class="cls-1" d="M463.26,1255.54c-.64-.1-1.41.63-2.11,1,.5.68.88,1.66,1.55,2s1.45-.36,2.93-.81C464.45,1256.56,463.92,1255.65,463.26,1255.54Z"/><path class="cls-1" d="M1207.48,1412.09a2.68,2.68,0,0,0,1.54,1.77c.51.19,1.32-.45,2.7-1a14.35,14.35,0,0,0-2.8-2.3C1208.67,1410.44,1207.41,1411.62,1207.48,1412.09Z"/><path class="cls-1" d="M663.16,869.44c.89-.14,1.69-.86,3.06-1.65-1.05-.87-1.82-1.86-2.16-1.73a10.12,10.12,0,0,0-2.4,1.8C662.17,868.42,662.75,869.5,663.16,869.44Z"/><path class="cls-1" d="M719.51,681.76c0-.44-.09-.89-.14-1.34a7.18,7.18,0,0,0-2.32-.2,10.31,10.31,0,0,0-2.34,1.23c.16.39.33.77.49,1.16Z"/><path class="cls-1" d="M904,1240.55a8.44,8.44,0,0,0-1.64-2.14c-.35-.22-1.15.26-1.75.42a22.1,22.1,0,0,0,1.29,2.63A15.7,15.7,0,0,0,904,1240.55Z"/><path class="cls-1" d="M947.74,1256.84a21.26,21.26,0,0,0,2.39,1.61,16.61,16.61,0,0,0,1.35-1.84,8.6,8.6,0,0,0-2.46-1C948.61,1255.64,948.17,1256.42,947.74,1256.84Z"/><path class="cls-1" d="M974.84,1251.75c-1-.79-1.56-1.65-2.16-1.66s-1.34.77-2,1.2c.59.74,1.06,1.7,1.82,2.12C972.79,1253.58,973.75,1252.55,974.84,1251.75Z"/><path class="cls-1" d="M524.56,1421.69s.05,1.12.19,1.15c1.22.23,2.46.33,3.7.46,0-.81-.05-1.62-.07-2.44C527.1,1421.12,525.82,1421.37,524.56,1421.69Z"/><path class="cls-1" d="M1011.08,1422.56c1.21.4,2.45.71,3.69,1l.24-2.45c-1.24.07-2.49.11-3.72.28C1011.16,1421.44,1011,1422.55,1011.08,1422.56Z"/><path class="cls-1" d="M669.64,862.65l-1.57-1.85a8,8,0,0,0-1.68,1.59c-.12.21.7,1.37,1,1.35A7,7,0,0,0,669.64,862.65Z"/><path class="cls-1" d="M654.25,882.8a8.94,8.94,0,0,0-2.49-1.1c-.41,0-.87.68-1.31,1.06a8.23,8.23,0,0,0,1.93,1.37C652.69,884.23,653.27,883.52,654.25,882.8Z"/><path class="cls-1" d="M514.45,1289.12a13.23,13.23,0,0,0,3-.89l-3-2.21a8.55,8.55,0,0,0-1.32,2C513.13,1288.23,514,1289.13,514.45,1289.12Z"/><path class="cls-1" d="M966.71,1261.29c-.9-1.26-1.23-2.09-1.85-2.47-.34-.21-1.6.26-1.64.53a3,3,0,0,0,.45,2.29C964.06,1262,965.15,1261.51,966.71,1261.29Z"/><path class="cls-1" d="M1000.76,1289a6.9,6.9,0,0,0,1.14-2c.08-.38-.61-.92-1.36-1.93a10,10,0,0,0-1,2.69C999.55,1288.14,1000.33,1288.56,1000.76,1289Z"/><path class="cls-1" d="M1189.69,1360.93a1.77,1.77,0,0,0-1.09,1.31c0,.39.77,1,1.25,1.1s1.15-.44,2.17-.89C1190.6,1361.48,1190,1360.83,1189.69,1360.93Z"/><path class="cls-1" d="M671.73,881.21a2.91,2.91,0,0,0,1.75-1.35c.17-.36-.51-1.12-1-2.17l-2.13,2.42C670.79,880.51,671.37,881.3,671.73,881.21Z"/><path class="cls-1" d="M1350.68,1290.22a22.78,22.78,0,0,0-2-2.11c-.1-.08-1,.51-1,.63a7.65,7.65,0,0,0,1,2.22A9.41,9.41,0,0,0,1350.68,1290.22Z"/><path class="cls-1" d="M276,1327.73a7.69,7.69,0,0,0,1.13,1.81l1.35-1.27c-.47-.6-.76-1.33-1.21-1.44S275.94,1327.56,276,1327.73Z"/><path class="cls-1" d="M443.63,963.63c0,.18.79.69,1,.59a5.5,5.5,0,0,0,1.33-1.11l-1.65-1.32A7,7,0,0,0,443.63,963.63Z"/><path class="cls-1" d="M470.64,961.51a8.14,8.14,0,0,0,1.9,1.26c.21.07.75-.82,1.49-1.69a8.07,8.07,0,0,0-2.37-.92C471.33,960.15,471,961,470.64,961.51Z"/><path class="cls-1" d="M479.74,1260c-.62-.47-1.12-1.14-1.57-1.1s-.85.76-1.27,1.19l1.62,1.56C478.89,1261.17,479.25,1260.68,479.74,1260Z"/><path class="cls-1" d="M278.32,1316.38c0-.45-.57-.92-1.11-1.7-.49.89-1,1.44-1,1.9s.76.84,1.18,1.26C277.74,1317.35,278.3,1316.88,278.32,1316.38Z"/><path class="cls-1" d="M991.18,190.53c2.3,2.4,4.43,1.72,5.6-1.49.61-1.69.79-3.67,1.8-5.07.74-1,2.73-2.09,3.78-1.78,2.14.61,2.25,2.61,1.23,4.5-1.2,2.21-2.61,4.31-3.65,6.59-1.36,3,.15,5.23,2.32,7.23,2.37,2.18,4.56,1.5,6.74-.23,1.39-1.11,2.74-2.25,4.38-3.6l-4.1-5.8c2-1.49,3.79-3,5.75-4.33,1.69-1.13,3.74-1.79,5.29-3.08,3.25-2.69,4.43-6.61,2-9.75-3.9-5-8.63-9.28-13.1-13.79-.28-.29-1.27.11-1.79.17-4.64,9.91-11.15,17.64-23.41,21.7C986.73,185.18,988.77,188,991.18,190.53Zm20.5-18.3c1.25.34,2.22,1.67,4.2,3.26-2.08,1.44-3.35,3-4.7,3-1,.06-2.67-1.49-3.17-2.68C1007.32,174.18,1009.8,171.71,1011.68,172.23Z"/><path class="cls-1" d="M1088.3,335.6a33.51,33.51,0,0,1-9,2.28c-6.26.43-12.65,1.34-18.73-2-2.41,3.88-2.18,7.15-.11,10.58,4.65,0,8.54-4.39,14.47-1-4.62,2-8.17,3.43-11.7,5-2.58,1.12-4.19,2.93-3.43,5.9.71,2.77,3,3.19,5.43,3.15,9.47-.16,19-1.91,28.36,1.21,2.07-4.61,1.18-8.36-.65-10.6.3-4.78.9-8.34.63-11.83S1091.65,334.36,1088.3,335.6Z"/><path class="cls-1" d="M1016.27,215.79c3.45-3.27,5.33-8.65,12.34-10.14-3.44,4.89-6.14,8.55-8.64,12.34-2,3-1.26,5.83,1.62,7.59,2.58,1.58,4.18-.17,6.06-1.53,7.31-5.27,13.45-12.49,24.94-14.15-2.26-3.19-3.36-5.86-5.34-7.24a14.18,14.18,0,0,1-4.8-6.2c-1.56-3.25-3.08-7.27-7.75-7.65-4,8.47-13.67,16.23-24.65,18.62C1010.52,212.77,1010.88,213.26,1016.27,215.79Zm24.2-12.23.91.28a7.23,7.23,0,0,1-.34,2.51c-.35.66-1.21,1.05-1.85,1.55l-1.07-.9Z"/><path class="cls-1" d="M888.62,128.66c2.86-.31,2.92-2.4,2.62-4.59-.51-3.78.71-6.88,4.12-11v13.74c0,2.38.17,4.69,3.07,5.39,3.12.75,4.65-1,5.67-3.63a15.61,15.61,0,0,1,1.19-2.47c4.42-7.1,4.35-16.43,12.65-22.54-3.18-1.67-5.3-3.71-7.37-3.67-3.79.08-6.32-1.82-9.27-3.49-2.63-1.48-5.5-3.43-8.95-1.85-.22,10.42-3.18,19.64-10.11,27.4a3.75,3.75,0,0,0-.85,2.45C881.48,126.15,886.19,128.92,888.62,128.66ZM905,104.78a2.8,2.8,0,0,1,1,0c.15.9.21,1.82.28,2.73l-1.66,0C904.73,106.62,904.8,105.69,905,104.78Z"/><path class="cls-1" d="M1063.63,306a10.71,10.71,0,0,0-7.83,12.16c1.22,5.76,6.42,10,14.6,10.05,3-.6,8.26-1.2,13.21-2.84s8.32-7.52,7.7-11.88c-.7-4.9-5.93-10.34-10.73-10.08A81.35,81.35,0,0,0,1063.63,306Zm20.66,7.61a3.52,3.52,0,0,1-2,2.91c-5.59,1.16-11.23,2-16.89,2.78-.79.1-1.75-1.1-2.64-1.7.72-1,1.28-2.69,2.18-2.89,5.35-1.18,10.77-2,16.77-3.09C1082.43,312.06,1084.1,312.65,1084.29,313.56Z"/><path class="cls-1" d="M912.28,135.86c2.74,2.17,5.06,4,7.34,5.81,4.19,3.37,7.78,3.74,12,1.23,6.39-3.78,7.82-11.26,3.12-17-1.59-1.94-3.57-3.56-5.28-5.41-1.49-1.62-1.51-3.43.24-4.78s3.55-.78,4.71,1c.73,1.13.93,2.61,1.68,3.72a53.73,53.73,0,0,0,3.64,4.35c1.33-1.43,2.93-2.7,3.9-4.34,1.51-2.54,1-4.88-1.84-6.3-2.26-1.13-4.5-2.31-6.82-3.28-4.63-1.94-8-1.23-11.2,2.15s-3.91,7.63-1.62,12c1.06,2,2.34,4,3.51,5.92s3.44,4.17.61,5.87-4.52-1.22-6.06-3.11c-.66-.82-.65-2.15-1.1-3.19s-1.18-2.2-1.83-3.39C913.35,130.49,913.35,130.49,912.28,135.86Z"/><path class="cls-1" d="M860.76,118.76c4.44,2.73,8.69,2.3,13-2a20.45,20.45,0,0,0,4.7-7.38c1.2-3.41,1.49-7.14,2.13-10.52a38,38,0,0,0-.55-4.33c-2-7.86-10-10.92-16.33-5.93a20.2,20.2,0,0,0-5.26,7,56.64,56.64,0,0,0-3.18,9.77C853.79,110.84,855.84,115.73,860.76,118.76ZM868.1,94.3c.41-1.06,2.41-1.51,3.67-2.24.63,1.32,2,2.84,1.76,3.91-1.46,5.49-3.27,10.89-5.15,16.25-.61,1.76-2,3.53-4.08,2.3-1.07-.62-1.44-2.46-1.89-3.3C864.43,105.06,866.06,99.6,868.1,94.3Z"/><path class="cls-1" d="M825.55,102.51a12.75,12.75,0,0,0,8.39,10c3.92,1.48,9.49-.92,12.13-4.59,1.51-2.1,2-4.28-.25-6-1.92-1.5-3.87-1.06-5.4.86-.29.36-.47.86-.83,1.08-1.43.87-3.13,2.57-4.31,2.28-2.3-.58-2.53-2.91-1.95-5.13,1.22-4.64,2.28-9.34,3.74-13.91.38-1.21,2-2,3-3.06.91,1.18,2.34,2.26,2.61,3.57.41,2-.5,4.23.07,6.08.46,1.44,2.21,3.22,3.58,3.42,1.17.16,2.76-1.6,3.9-2.77.55-.56.56-1.71.72-2.61.55-3.1,2-6.47,1.22-9.21-.44-1.56-4.65-1.87-6.91-3.17-3.16-1.83-6-2.9-9.6-.82-3.29,1.93-6.1,4.18-7.21,7.9-1.29,4.36-2.29,8.82-3.42,13.24l.51.12A14.63,14.63,0,0,0,825.55,102.51Z"/><path class="cls-1" d="M962.47,165.93c5,4.08,9.49,7.94,14.25,11.42.88.65,3.25.28,4.26-.5a17.68,17.68,0,0,0,4.41-5.2c.67-1.17.37-2.9.51-4.37a16.59,16.59,0,0,0-4.33-.08c-1,.24-1.7,1.65-2.72,2a3.4,3.4,0,0,1-3-.39,3.15,3.15,0,0,1-.22-3c1.45-2.26,2.84-4.76,6.43-4,1.27.27,2.77-.57,4.51-1-.79-2.4-2.11-4.31-1.71-5.75a6.53,6.53,0,0,1,3.78-4.08c1.93-.49,2.41,1.63,1.92,3.37-.66,2.34-2.61,5.19.93,6.41,3.08,1,3.94-2.46,5.64-4.13.48-.48,1.22-1.06,1.23-1.61,0-1.65.43-4.07-.46-4.83-4.48-3.79-9.32-7.14-15.09-11.43C980.13,152,971,158.42,962.47,165.93Z"/><path class="cls-1" d="M1032.9,231.35c-1.78.56-4.59.68-5.09,1.81-.64,1.47,0,4.2,1.08,5.58a61.65,61.65,0,0,1,8.23,14.77c1.4,3.37,4.31,3.39,6.06.07,3-5.65,7.43-9.7,12.45-13.39A29.85,29.85,0,0,0,1062,234c1-1.39,1.76-4.17,1-5.34s-3.39-1.68-5.25-1.82c-1.5-.12-3.06.79-4.61,1.15q-10,2.29-20,4.53C1033.11,232.15,1033,231.75,1032.9,231.35Zm6.22,5.73c1.19,1.64,2.54,2.7,2.4,3.52a3.65,3.65,0,0,1-2.48,2.45c-.87.11-1.93-1.2-2.91-1.88C1037,240,1037.82,238.87,1039.12,237.08Z"/><path class="cls-1" d="M1061.21,251.15c-.72,1-1.82,2.41-1.54,3.26s2,1.55,3.15,1.71a21.89,21.89,0,0,0,4.68-.31l.24,1.81c-7.9,3.26-15.54,7.4-26.06,5.35,1.3,4.32,2,7.55,3.25,10.58s3.13,3.24,5.79.89c3.74-3.31,14.39-8,20.65-7.75-1.21.87-2.66,1.54-3.55,2.67s-1.08,2.59-1.59,3.92c1.21.42,2.53,1.38,3.6,1.15a46.46,46.46,0,0,0,7.1-2.5c2.93-1.14,3.56-3.36,2.57-6.13-1.16-3.22-2.52-6.38-3.67-9.61-3.2-9-4.07-9.39-12.77-5.85C1062.43,250.6,1061.55,250.68,1061.21,251.15Z"/><path class="cls-1" d="M944.39,149.06c-3.31,2.1-3.52,4.2-.26,6.06,2.48,1.42,5.33,2.22,8.48,3.47,2.55-9.68,9-20.76,13-22.73-.58,2.78-1.13,5.41-1.67,8,4.14,1.21,5.71-.94,7-3.12a24.58,24.58,0,0,0,2.77-6.84c.18-.87-1.18-2.45-2.22-3.13-4.41-2.9-8.89-5.71-13.51-8.26-1.2-.66-3.81-.91-4.35-.22-2.66,3.38-6.55,6.36-6,11.29,4.87,2.84,5.21-4,8.83-3.57C955.5,135.66,948.7,146.31,944.39,149.06Z"/><path class="cls-1" d="M1050.47,286.9c.23,5.26.36,9.67,4,14,2.51-2,4.22-4.5,6.35-4.93,7-1.42,13.71-5.38,21.29-3,2.06.64,4.07-.3,3.88-2.51-.34-3.93-.37-8.2-4.39-11.23C1072.58,286.82,1062,288.48,1050.47,286.9Z"/><path class="cls-1" d="M391,294.8c-8.15-4.3-17.63-6.18-24.37-14.16-1.39,1.94-3.12,3.28-3.26,4.77-.56,5.65-3.61,10-6.47,14.6a7,7,0,0,0-.81,1.88c-.8,2.92.3,4.32,3.34,4.31,9.09,0,16.27,4.36,23,9.87a9.47,9.47,0,0,0,3.83,1.66,39,39,0,0,0,3.64-7.66c.11-.32-2.3-2.15-3.52-2.13a16.12,16.12,0,0,1-10-3.31c.1-.55.19-1.1.28-1.65,3.81.37,7.61.84,11.43,1.1,4.14.28,6.51-1.06,7-3.84C395.71,297,393.23,296,391,294.8Z"/><path class="cls-1" d="M420.19,250.58c4.07-1.64,5.92-4.3,6.06-8.56-4.44-2.24-10.16-1.83-13.59-8,3.66,1,6,1.57,8.44,2.22,2.2.6,4.47,1.93,6.56,1.68a8.44,8.44,0,0,0,5.26-3.41c1.38-2-.29-3.72-2.12-5.06-7.8-5.69-17-9.64-22.56-19.54-5.08,7.14-9.65,13.45-14.05,19.87-.5.72-.07,2.08-.07,3.11C405.23,235.37,413.39,241.88,420.19,250.58Zm-12.75-28.94,2.54.76-.36,1.14c-.83-.27-1.67-.53-2.48-.86A7.73,7.73,0,0,1,407.44,221.64Z"/><path class="cls-1" d="M406.54,269c-2.68-2-5.13-4.24-8.75-7.27-3.54,1.95-6.4-1.43-9.68-3.2-7.6-4.11-7.57-4.17-12,3-.37.58-.83,1.1-1.21,1.67-4.24,6.34-3.88,10.45,1.7,15.7a29.85,29.85,0,0,0,6.64,4.81c11.3,5.82,18.6,6.18,24.26-8.12.17-.42.44-.81.62-1.23C409,272.16,408.56,270.51,406.54,269Zm-10.19,9.8c-.84.31-2.19-.41-3.18-.92-4.21-2.22-8.43-4.43-12.49-6.92a4.06,4.06,0,0,1-1.26-3.33c.07-.68,1.62-1.21,2.89-2.07,2.86,1.28,6.44,1.88,8.31,4,2,2.29,3.79,3.38,6.72,3.63,1.08.09,2,1.86,3,2.86C399,277,397.83,278.29,396.35,278.83Z"/><path class="cls-1" d="M432,221c4.72,2.81,9.24,1.44,12.94-2.68a76,76,0,0,0,4.87-6.61c1.41-1.94,1.3-3.66-.4-5.5-2.41-2.61-4.62-5.42-7.25-8.55-6.92,0-10.06-7.86-16.84-10-2.83,3.35-5.8,6.48-8.3,9.94-2.62,3.63-2.72,8.85.57,12.08A76.83,76.83,0,0,0,432,221Zm-9.56-20.55c.56-.8,2-1.85,2.59-1.63,3,1.05,7.32,1.79,8.29,4,1.76,3.87,4.24,5.41,7.82,6.44.62.18.95,1.34,1.19,1.71-.25,2.52-2.78,4.13-4.71,2.85-5.08-3.38-9.89-7.17-14.72-10.93A2.48,2.48,0,0,1,422.44,200.45Z"/><path class="cls-1" d="M375.75,319.3a70.43,70.43,0,0,0-14.21-4.89c-5.9-1.31-11.06,1.89-13.28,7.32a10.2,10.2,0,0,0,4.79,13,65.77,65.77,0,0,0,17.29,6.29c6.15,1.29,12-4.78,12-12.09A11,11,0,0,0,375.75,319.3Zm-4.05,13.31c-5-1.61-9.91-3.44-14.71-5.51-1.13-.48-1.7-2.24-2.53-3.41,1.37-.36,2.94-1.35,4.09-1,5,1.57,9.9,3.44,14.74,5.42,1.07.44,1.77,1.78,3.43,3.54C374.4,332.14,372.85,333,371.7,332.61Z"/><path class="cls-1" d="M366.76,344.67c-2.55,0-3.74,2-2.41,4.17.47.75,1.56,1.16,1.9,1.93.56,1.3,1.45,3.17.93,4.07s-2.81,2.08-3.92,1.75c-6.24-1.84-13.25-1.53-18.47-6.5a6.16,6.16,0,0,0-4-.8c-1.28,3.33-2.71,6.74-3.05,10.23-.21,2.11,2.26,2.06,4.26,2a35.3,35.3,0,0,1,9.37.54c6.14,1.44,12.53,2.48,17.08,7.84l1.79-.62c1.45-4.71,3-9.41,4.32-14.15C376.58,348.05,373.92,344.55,366.76,344.67Z"/><path class="cls-1" d="M415.68,252.28c-9.33-1-16.45-5.71-22.25-12.89-.74-.91-3.52-1.62-3.77-1.27-2.45,3.35-5.94,6.28-5.79,11.06.86.41,1.48,1,2.06.95,9.2-.73,14.82,6.06,21.61,10.32,1.77,1.1,3.08,2.94,4.6,4.44,1.61-1.81,3.26-3.6,4.82-5.46a8.76,8.76,0,0,0,1.43-2.33C419.54,254.28,418.6,252.59,415.68,252.28Z"/><path class="cls-1" d="M1029.17,612.49c2.53-4.17,1.77-5.63-2.91-6.32a22,22,0,0,1-2.72-.23c-2.17-.63-5-1.15-4.08-4.26.79-2.63,3.17-1.93,5.22-1.21a35.74,35.74,0,0,0,5.9,1.79,6,6,0,0,0,6.75-3.55c1.22-2.46.22-4.52-1.55-6.16s-3.8-3.06-5.91-4.73l-5.31,5c-2.17-2.15-4.07-4-5.89-5.86-2.47-2.59-5.11-4.65-9-3.51-5.49,1.6-13.52,13.51-13.35,19.8,10.17,1.57,17.46,5.68,27.69,16A78.23,78.23,0,0,0,1029.17,612.49Zm-18.39-13.85c-1.8.51-4.31-2.23-3.57-3.87.54-1.21,2.2-2.79,3.24-2.71,1.33.11,2.54,1.72,4.49,3.21C1013,596.9,1012,598.29,1010.78,598.64Z"/><path class="cls-1" d="M1057.8,478.7c8.88-.64,17.13,1.13,24.44,6.45,2.14,1.55,4.13,1.35,4.92-1.16,1.38-4.35,2.29-8.85,3.57-13.95-1.06-2-2-4.71-3.6-6.79a21.06,21.06,0,0,0-16.07-8.09c-8.89-.48-12.71,2.15-15.15,10.6-.83,2.86-1.72,5.72-2.27,8.64C1053,477.72,1054.34,479,1057.8,478.7Zm8.22-14.85a124.82,124.82,0,0,1,15.5,5c.88.35,1.43,2.6,1.34,3.91,0,.54-2.18.94-2.71,1.14-5.63-1.43-10.54-2.52-15.32-4-1.16-.36-1.9-2.09-2.82-3.19C1063.36,465.66,1065,463.6,1066,463.85Z"/><path class="cls-1" d="M998.57,639.33c8,4.74,18-1.07,17.91-11.05-.36-.92-.72-3.1-1.91-4.66a36.89,36.89,0,0,0-17.09-12.23c-4.89-1.78-10.09.93-12.86,5.63s-2.52,8.34,1.65,12.46A65.67,65.67,0,0,0,998.57,639.33Zm-4.39-19.67c4.52,2.67,8.91,5.59,13.18,8.65,1,.75,1.46,2.39,2.65,4.46-2.25.16-3.09.49-3.55.21-5-3.12-10.09-6.25-15-9.61-.86-.6-1-2.29-1.41-3.48C991.46,619.78,993.19,619.08,994.18,619.66Z"/><path class="cls-1" d="M1064.15,450.72c1.73-.51,3.58-2.11,5-1.77,7,1.63,14.8-.59,21.17,4.43,2.08,1.64,4.1.51,4.52-2.09a126.55,126.55,0,0,0,1.7-14.34,5.53,5.53,0,0,0-2.54-4.29,18.86,18.86,0,0,0-7.33-1.49,3.78,3.78,0,0,0-3,2.06c-.22.89.84,2.44,1.75,3.22,1.42,1.21,3.18,2,6.15,3.81a51.05,51.05,0,0,1-5.61,2.21c-4.44,1-4.74-4.51-7.92-5.39-7.12,4.51-7.12,4.51-11.36.21,2.61-1,4.69-1.44,6.23-2.59.94-.7,1.06-2.52,1.54-3.84-2.83-.58-5.66-1.59-8.48-1.57a5,5,0,0,0-3.7,3.14,135,135,0,0,0-1.9,15.68C1060.25,450.37,1061.92,451.39,1064.15,450.72Z"/><path class="cls-1" d="M1047.57,507.29a65.57,65.57,0,0,1,10,1.44c3.78.87,7.42,2.39,11.2,3.25,5.35,1.22,9.56-1.39,11.83-6.91,1.89-4.62.82-7.52-4.15-11a26.42,26.42,0,0,0-4.17-2.38c-6.55-2.91-13.15-5.76-20.59-9-.67,1.27-2.5,3.17-2.53,5.1-.07,4.14-2.17,7.32-3.68,10.82a27.21,27.21,0,0,0-1.49,3.84C1043.08,505.89,1044.13,507,1047.57,507.29Zm7.77-14.92c5.88,1.86,11.71,3.89,17.42,6.22,1,.41,1.32,2.5,2,3.81-1.36.6-3,2-4,1.66-5.7-1.71-11.32-3.71-16.83-5.93-1.22-.49-1.9-2.3-3.51-4.4C1052.83,493,1054.29,492,1055.34,492.37Z"/><path class="cls-1" d="M1014.15,576.79a27.38,27.38,0,0,0,5.93,3.42c1.44.48,3.25-.17,4.9-.32a17.17,17.17,0,0,0-1.44-4.14,18.77,18.77,0,0,0-3.3-3.1l1.07-1.79c5.65,3.16,11.31,6.29,16.92,9.5.54.31.79,1.11,1.21,1.65,3.29,4.18,4.51,4.11,7.2-.55a23.15,23.15,0,0,0,2.38-4.94c.84-2.86-.34-4.08-3.48-4.25-2-.12-4.14,0-5.92-.78a117.73,117.73,0,0,1-11.08-5.51,23,23,0,0,1-3.37-2.76c2.41-.58,4.27.09,6.17.23a3.32,3.32,0,0,0,2.73-1.39,3.13,3.13,0,0,0-.61-3,73.81,73.81,0,0,0-7.77-4.35c-2.56-1.3-4.4-.32-5.66,2.07q-3.67,7-7.33,14C1011.45,573.21,1011.85,575.29,1014.15,576.79Z"/><path class="cls-1" d="M1042.57,537.39a3.76,3.76,0,0,0,3.5-1.12c.47-.75-.12-2.62-.84-3.54a27.72,27.72,0,0,0-4.12-3.64c.31-.49.61-1,.92-1.46l17.7,7.92c.19.09.33.32.49.48,1.52,1.5,2.25,5,4.93,3.66,1.88-1,3-3.77,4-5.93a24.87,24.87,0,0,0,1.31-5c-5.28-1.29-9.61-1.77-13.41-3.44s-8.87-1.43-11.8-7c2.13.46,3.18.67,4.22.93,1.9.48,4.14.69,4.3-1.72.09-1.28-1.54-3-2.83-4-1.44-1-3.41-1.28-5.09-2-3.22-1.4-5.18-.32-6.49,2.81-1.94,4.65-4.24,9.16-6,13.87-.51,1.38-.24,4,.71,4.76A34.42,34.42,0,0,0,1042.57,537.39Z"/><path class="cls-1" d="M995.8,653.29c-8.41-1.81-8.41-1.81-8.82-11-2.48.63-4.44,1.64-6.27,1.43-1.53-.18-3-1.65-4.26-2.83a2.65,2.65,0,0,1,.29-2.4,14.17,14.17,0,0,1,4.31-.79c.62,0,1.34.71,1.92.61a39.62,39.62,0,0,0,4.2-1.26c-.53-1.4-.8-3-1.67-4.13s-2.49-2-3.71-3c-2.37-2-4.4-2-6.38.65-3.18,4.19-6.57,8.23-9.69,12.47-.68.94-.61,2.44-1,3.94,1.45.45,2.5.82,3.57,1.09,8.11,2.07,14.23,7.19,19,13.62,3.5,4.68,4,5.17,7.52.79a36.54,36.54,0,0,0,3.33-4.37C999.77,655.45,999,654,995.8,653.29Z"/><path class="cls-1" d="M1028.42,550.34c9.09,1,17.11,4.08,23.43,11,.74.82,3.63,1.13,4,.62,2.33-3.44,5.55-6.76,4-12-10.84,1-18.6-3.86-25.64-10.22-3.12-2.82-4.08-3-6.17.5a35.85,35.85,0,0,0-2.52,4.89C1024.14,548.44,1025.06,550,1028.42,550.34Z"/><path class="cls-1" d="M563.49,122.08a15.69,15.69,0,0,1,.77,5.28c-.32,5.24.85,6.37,5.53,4.66q9.35-3.41,18.59-7a27.3,27.3,0,0,0,4.15-2.63c-8.31-8.84-9.63-19.47-9.86-30.38a8.29,8.29,0,0,0-2.19-.55,10.25,10.25,0,0,0-2.67.56c-6.24,2-6.49,2.45-6,9.27a13.73,13.73,0,0,1-.75,3.38c-2.81-2.75-4.74-6.18-7.29-6.72-2.87-.61-6.3,1.38-10.54,2.51,2.85,4.51,5.08,7.37,6.55,10.57A81.5,81.5,0,0,1,563.49,122.08Zm16.13-7.28c.73,2.5,1.23,4.24,2,6.89C577.76,119.15,577.76,119.15,579.62,114.8Zm-9.33,6.27a7.08,7.08,0,0,1,1.19,1.34c.11.23-.21.68-.34,1a6.72,6.72,0,0,1-1.26-1.1C569.75,122.16,570.08,121.66,570.29,121.07Z"/><path class="cls-1" d="M501.48,157.71c1.77,6.86,1.34,7.21,7.73,3.52a31,31,0,0,0,3-1.63c2.77-2,2.73-3.73,0-5.95a35.91,35.91,0,0,1-4.63-3.94c-.54-.62-.57-2.68-.13-3,1-.61,2.84-1.11,3.56-.59a63.07,63.07,0,0,1,6,5.63c2,1.89,4.14,2.94,6.79,1.43,2-1.17,4.22-2.65,3.32-5.32-1-2.89-1.43-7.11-5.25-7.26-5.12-.19-6.44-3.27-7.72-7.17-2.67-8.17-7.61-10.19-15.24-6.37-3.06,1.54-6.1,3.16-9,4.93a26.63,26.63,0,0,0-3.63,3.35c1.47,1.21,2.44,2.08,3.49,2.85C496.25,143.13,499.57,150.27,501.48,157.71ZM502.94,133c1.37,0,2.76,1.3,5.28,2.67-2.27,1.86-3.58,3.73-4.75,3.65s-2.7-2-3.08-3.37C500.18,135.17,502,133,502.94,133Z"/><path class="cls-1" d="M634.2,111.54l8.58-.82c-1.07-6.16-5.93-10.6-3.42-18,2,3.47,3.36,5.76,4.7,8s2.39,4.44,3.82,6.5a4.75,4.75,0,0,0,6,1.85c2.41-1,2.29-3.16,1.91-5.27-.84-4.73-1.81-9.44-2.51-14.2a41.32,41.32,0,0,1-.58-8.8c.14-1.95,2-4.39-.34-5.48-1.75-.81-4.45-.38-6.41.34-1.43.52-2.42,2.26-3.57,3.53-6.39-3.14-9.5-2.82-13.88,1.39C634,89.93,635.32,100,634.2,111.54ZM645.66,85c-2.51-1.26-2.67-3.43-3.13-5.39C644.05,81,646.32,81.81,645.66,85Z"/><path class="cls-1" d="M536.6,141.21c3.26,2,6.68,3.19,10.31.84,3.83-2.48,6.63-5.64,6.9-10,0-5-5.94-17.6-9.61-20.61-3-2.44-6.3-3.92-10.17-2.45a11.74,11.74,0,0,0-8,9.53C524.89,125.54,530.39,137.41,536.6,141.21Zm-2-26.25c1,.42,2.53.54,2.88,1.23q4.11,8.2,7.79,16.61a3.08,3.08,0,0,1-1,2.85c-.63.39-2.59,0-2.86-.58-2.77-5.93-5.34-11.95-7.86-18C533.44,116.69,534.13,115.94,534.62,115Z"/><path class="cls-1" d="M700.53,83.09c.09,6.31,1.82,12.71-1.72,18.37,1.06,1,1.56,1.85,2.05,1.85,5.68,0,11.37,0,17-.3a3.25,3.25,0,0,0,2.26-2.19,57,57,0,0,0,0-9.51c-.06-.73-1.54-1.86-2.39-1.88a3.62,3.62,0,0,0-2.57,1.76c-.64,1.15-.48,2.75-1.12,3.91a3.44,3.44,0,0,1-2.51,1.71,3.5,3.5,0,0,1-2.27-2.12c-.75-2.23-.8-4.48,1.32-6.26,1-.84,1.79-1.92,3.92-4.25-2.41-1.81-4.55-2.9-5.85-4.62-.6-.79,0-3.35.85-4.17,1.56-1.43,2.83,0,3.69,1.55.67,1.17,1.17,2.58,2.16,3.38a4.62,4.62,0,0,0,3,.25,40.36,40.36,0,0,0,1.08-7.79c0-2.25-1.28-4.11-3.75-4.11-5,0-10.08,0-15.08.54-3.1.31-4.11,2.32-2.33,4.79C700.35,76.87,700.49,79.88,700.53,83.09Z"/><path class="cls-1" d="M601.82,121.19c8.31-2.19,15.38-3.82,22.29-6,2.62-.82,2-3,.48-4.94a125.2,125.2,0,0,1-7.45-10.44C614.72,96,612.9,91.72,610.36,88c-1.12-1.65-3.38-3.55-5.11-3.54-3.16,0-3.37,3.1-3.46,5.69,0,.23,0,.46,0,.69-.92,8.75,1.48,17.78-2.58,26.3A3,3,0,0,0,601.82,121.19Zm8.88-12.88a3.57,3.57,0,0,1,2.1,2.69c0,.94-1.25,1.92-2.51,3.64-1.08-2-2.13-3.21-2.22-4.47C608,109.55,610,108.12,610.7,108.31Z"/><path class="cls-1" d="M671.63,104.16c5.83,5,15.4.14,17.18-6.26.59-2.14.42-4.32-2.15-5-2.28-.63-3.28,1-3.84,2.95-.2.66-.2,1.49-.62,1.94-1,1.1-2.26,2.82-3.37,2.79s-2.83-1.77-3.08-3q-1.71-8.42-2.59-17c-.12-1.16,1.24-3.31,2.25-3.54s2.94,1,3.74,2.07c1.17,1.63,1.42,3.93,2.6,5.54.79,1.07,2.7,2.17,3.78,1.91s2.25-2.28,2.23-3.51c-.06-3.61-.7-7.22-1.19-11.49-4.4,0-8-.13-11.62,0-4,.19-6.8,2.33-8.6,5.92-2.89,5.78-1.41,19.42,2.77,24.32A23.24,23.24,0,0,0,671.63,104.16Z"/><path class="cls-1" d="M481,382c2.05-3.27,1.77-5.1-1.95-6.12-7-1.93-14.12-3.45-22.19-5.38-1,11.3-1.4,22.1-9.4,30.58.7,1,1.08,2.09,1.75,2.31,7.17,2.32,14.34,4.65,21.6,6.63,2.47.68,3.89-1,3.59-3.61C473.36,397.43,476.28,389.47,481,382Zm-14.44,14.35c-.56,2.17-2.06,4.11-3.8,7.35-1.49-2.51-2.63-3.66-2.85-5-.5-2.9,1.34-5.77,3.39-5.73S467.06,394.28,466.52,396.38Zm3.16-11.83c-.26.92-2.62,2.08-3.56,1.76s-2.37-2.56-2.07-3.48c.61-1.91,2.2-3.51,3.4-5.23l2.28.76C469.77,380.44,470.21,382.63,469.68,384.55Z"/><path class="cls-1" d="M521,388.33a100.42,100.42,0,0,0-11.81-3.57c-3.06-.76-4.55.47-4.24,3.44a34.89,34.89,0,0,1-8,26.55c-.22.27,0,.87,0,2.24l12.31,3.39c-.24-3.74-.87-6.07-.36-8.11.41-1.68,2-4,3.39-4.29,2.38-.44,3.33,1.89,3.35,4.16,0,1.37-.25,2.74-.25,4.11a19.87,19.87,0,0,0,.31,4.09c.55,2.5,2.32,4.58,4.74,4,2.14-.55,4.24-2.4,5.7-4.21a4.45,4.45,0,0,0-.14-6.24c-4.62-4.81-4.6-4.83-.76-9.58C530.72,397.44,529.23,391.52,521,388.33Zm-5.36,11.9c-.92-.09-2.43-2.17-2.3-3.19s2-2.89,2.9-2.79c1.36.14,2.57,1.69,5.1,3.58C518.46,399.13,517,400.36,515.61,400.23Z"/><path class="cls-1" d="M552.92,398c-.64-.26-1.24-.61-1.88-.86-4.83-1.87-8.74-1.05-11.83,2.47a9.6,9.6,0,0,0-.81,12.09c1.58,2.48,3.8,4.55,5.76,6.79,1.38,1.57,3.29,3.34.94,5.18-2,1.53-4,.23-5.34-1.54-.94-1.25-1.4-2.86-2.23-4.22-1.78-2.92-3.9-2.84-5.63.2a15,15,0,0,0-1.32,3.17c-1.13,3.78-.51,4.74,3.18,6a55,55,0,0,1,6.89,2.93,9.14,9.14,0,0,0,8.59.1,11.19,11.19,0,0,0,1.86-19.2c-1.84-1.36-3.83-2.56-5.52-4.08-1.5-1.35-2.2-3.49-.31-4.72a5.81,5.81,0,0,1,4.84.05c1.26.6,1.95,2.41,2.89,3.7l3.17,4.32C560.68,401.75,560.44,401,552.92,398Z"/><path class="cls-1" d="M449.69,378.54c.88-3,1-6.24,1.53-10.2-6.75-2-12.59-3.95-18.56-5.39a5.16,5.16,0,0,0-4.41,1.87,34.13,34.13,0,0,0-3.19,8.3c-.25.86.39,2.76.9,2.88a4.67,4.67,0,0,0,3.63-.68c1.34-1.2,2.16-3,3.2-4.49l1.54.79c-2.57,8.14-2.74,17.14-10.6,23.67a19.43,19.43,0,0,0,11.53,4.13c.92.07,3-2.24,2.81-2.81-2.58-7,2.12-12.88,2.83-19.33.11-1,1.3-1.8,2.82-3.76,0,2.54-.3,3.74.07,4.7a21.82,21.82,0,0,0,2.3,3.7C447.34,380.81,449.28,379.9,449.69,378.54Z"/><path class="cls-1" d="M586.11,407.2c-4.38-1.33-8.77-2.68-13.24-3.62-2-.44-5.37-.76-6.25.34-2,2.56-3,6-4.14,9.15-.21.61.93,2.23,1.73,2.48a3.66,3.66,0,0,0,3-1,29,29,0,0,0,3.11-4l1.41.61c-1.07,4-1.76,8.15-3.31,11.95-1.64,4-4.1,7.74-6.43,12,4.09,1.55,7.88,3.95,13,2.73-.46-4.32-1.45-8.21.67-12.23,1.93-3.66,2.72-7.91,4-11.91,1.29,1.15,1.19,2.22,1.54,3.12a29.64,29.64,0,0,0,2.07,3.67c1-.76,2.4-1.3,3-2.31a38.54,38.54,0,0,0,2.4-5.68C589.68,409.88,588.79,408,586.11,407.2Z"/><path class="cls-1" d="M498.74,387.14c2.14-3.26,1.85-4.55-1.92-6-.85-.32-1.76-.48-2.63-.76-6.91-2.15-7.18-1.92-6.24,5.45.06.45.12.9.17,1.35.09,4-4.53,16.78-7.4,20.15-1.27,1.49-2.8,3.58-.87,4.6,3.1,1.62,6.75,2.28,10.25,2.92.47.08,2.12-2.4,2-3.56C491.08,402.32,493.93,394.46,498.74,387.14Z"/><path class="cls-1" d="M936.51,520.12c2,0,4.44-.76,5.89.11,6,3.61,13.05,5.67,17,12.28,1.58,2.66,3.7,2.41,5.37-.17a44.25,44.25,0,0,0,3.56-6.65c1.2-2.81.15-4.33-2.92-4.52-1.79-.11-3.83.42-5.32-.28-1.28-.6-1.93-2.54-2.86-3.88,1.36-.54,2.78-1.62,4.07-1.49,2.7.25,5.36,1.73,8,1.59,1.92-.1,4.16-1.61,5.5-3.16,1.74-2,.79-4.43-1-6.11s-4.15-3.29-6.11-4.81a21.12,21.12,0,0,0-2.33,1.49c-3.5,3.27-4.15,3.36-7.17.56-1-.92-1.75-2.13-2.77-3-5.21-4.58-11.68-3.57-15.09,2.37-2.15,3.75-4.19,7.56-6.27,11.35C932.46,518.58,933.4,520.18,936.51,520.12Zm11.42-13.86c1.42,2.24,2.86,3.54,2.92,4.91,0,1-1.73,2.07-2.69,3.11-1.16-1.16-2.85-2.16-3.27-3.55C944.64,509.89,946.36,508.46,947.93,506.26Z"/><path class="cls-1" d="M935.11,586.61a132.35,132.35,0,0,0,7.25-13.28,4.65,4.65,0,0,0-.81-4.3,34.54,34.54,0,0,0-7.66-4.39,3.22,3.22,0,0,0-2.94,1,3.62,3.62,0,0,0,.26,3.1c.66,1.15,2.08,1.85,2.78,3,.51.82.82,2.71.45,3-1,.64-2.85,1.28-3.53.78a19.48,19.48,0,0,1-4.33-4.84c-.81-1.21-1.05-2.8-1.71-4.67-1.92.89-3.29,2-4.71,2.06a9.76,9.76,0,0,1-4.88-1.26c-.6-.32-.49-1.95-.71-3,1.43-.24,2.85-.56,4.29-.7.66-.06,1.48.51,2,.28a6.82,6.82,0,0,0,3.07-2.16c.31-.51-.56-2.15-1.32-2.77a51.42,51.42,0,0,0-4.69-2.86c-2.62-1.72-4.77-1.47-6.28,1.4-2.64,5-5.2,10-7.6,14.71,6.9,3.17,12.48,5.65,18,8.31,3.07,1.49,6,3,7.78,6.41C931.22,589.19,933.51,589.17,935.11,586.61Z"/><path class="cls-1" d="M933.39,549.76c3.51,3.55,7.57,6.54,9.55,11.54,1.31,3.3,4.07,3.13,6.11-.26,3.28-5.47,6.38-11.07,9.35-16.72,1.83-3.49.22-5.53-3.8-5.68a75.13,75.13,0,0,1-11.42-1.12c-5.18-1-10.26-2.44-16.49-4-.71.4-2.9.9-3.48,2.15s0,3.66,1,4.79C927,543.79,930.32,546.66,933.39,549.76Zm12.7-2.49a17.09,17.09,0,0,1,2.71,3.13c-.87.53-1.91,1.64-2.57,1.45-1-.29-1.81-1.47-3.07-2.63C944.51,548.29,945.84,547.08,946.09,547.27Z"/><path class="cls-1" d="M920.23,601.72c-5.43.17-6.71-.77-8.12-6-.24-.86-.59-1.68-1.24-3.49-2,.83-3.42,1.8-4.85,1.86a9.91,9.91,0,0,1-4.83-1.2c-.57-.31-.88-2.66-.52-2.89a11.41,11.41,0,0,1,4.13-1.44c.86-.17,1.88.38,2.69.15,1-.29,2.51-.89,2.69-1.64.28-1.12,0-3-.74-3.63a25.41,25.41,0,0,0-7.13-3.94c-1-.33-3.11.8-3.77,1.85-3,4.85-5.74,9.88-8.42,14.92-.46.88-.2,2.14-.29,3.53,1.61.28,2.9.55,4.2.73,8,1.09,14.7,5.18,20.45,10.26,5.17,4.56,4.86,5.13,8.11-.86.44-.8,1-1.55,1.38-2.37C926.31,602.81,925.5,601.55,920.23,601.72Z"/><path class="cls-1" d="M371.18,1293c-.51,4.63-1.14,7.64-1.12,10.66,0,5,.56,10,.68,15,.13,5.24-.14,10.49.16,15.72.06,1.07,1.87,2,2.87,3.06.82-1,2.34-1.89,2.35-2.85.13-8.7-.05-17.41-.07-26.11,0-5.37-.11-10.76.21-16.12.29-4.81.32-9.37-3.3-13.22C368.6,1283.21,368.43,1287.2,371.18,1293Z"/><path class="cls-1" d="M370,1264.91c.51,2.2,2.76,3.21,4,1.56,2.23-3,4-6.26,6.17-9.66C373.06,1255.43,368.66,1259.35,370,1264.91Z"/><path class="cls-1" d="M349.16,1346.77c-1.23.41-2.1,1.85-3.11,2.87,1,1,2,2.74,3,2.74s2.11-1.68,3.67-3.08C351.08,1348.06,349.82,1346.54,349.16,1346.77Z"/><path class="cls-1" d="M373.11,1347.5c-.47.7-1.41,1.47-1.31,2.07.15.91,1,1.69,1.95,3,.89-1.24,1.9-2.21,1.73-2.52A14.4,14.4,0,0,0,373.11,1347.5Z"/><path class="cls-1" d="M371.88,1378.58c0,.43,1.11,1.24,1.27,1.14.62-.39,1.42-1,1.48-1.64s-.8-1.16-1.74-2.37C372.34,1377.17,371.85,1377.89,371.88,1378.58Z"/><path class="cls-1" d="M1281.91,1294.67c-.38,3-1.11,6-1.05,9,.09,4.74.93,9.47,1.05,14.21.15,5.43-.28,10.88-.09,16.3,0,1.1,1.77,2.14,2.72,3.2.91-1.12,2.58-2.25,2.59-3.38,0-8.88-.38-17.76-.43-26.65,0-5.14.32-10.29.61-15.43.25-4.58.21-9-3.17-12.7C1279.35,1282.6,1279.06,1287,1281.91,1294.67Z"/><path class="cls-1" d="M1283,1267.07a2.58,2.58,0,0,0,2.33-.89c2-3,3.73-6,5.65-9.21-6.57-1.68-11.48,2.37-10.12,7.81A4,4,0,0,0,1283,1267.07Z"/><path class="cls-1" d="M1257.14,1349.84c-.06,1,1.46,2.15,2.91,4.06,1.26-2.13,2.63-3.42,2.47-4.48s-1.86-1.86-2.88-2.78C1258.74,1347.7,1257.21,1348.73,1257.14,1349.84Z"/><path class="cls-1" d="M1286.39,1350.48c0-1.08-.81-2.19-1.66-4.15-1.11,1.62-2.12,2.44-2.11,3.26s1,1.79,1.5,2.69C1284.92,1351.68,1286.36,1351.1,1286.39,1350.48Z"/><path class="cls-1" d="M1282.9,1377.7a2.89,2.89,0,0,0,1.21,2c.41.19,1.29-.63,2.57-1.34-1.18-.91-1.74-1.6-2.44-1.77C1283.89,1376.49,1282.85,1377.39,1282.9,1377.7Z"/><path class="cls-1" d="M424.53,505.54c.43-1.61.87-3.22,1.21-4.85,0,0-1.28-.63-1.72-.43C421.67,501.35,421.66,503.07,424.53,505.54Z"/><path class="cls-1" d="M881.15,359.46c9.23-12,15.44-25.72,16.85-41.22,1.16-12.83.17-25.67.72-38.49.7-16.12-4.26-31.18-8.2-46.45-1.23-11.57-7.74-19.37-17.68-24.72-1.91-.92-2.61-3.75-5.35-3.35-3.54-6.81-10.41-10.1-15.8-15a77.64,77.64,0,0,0-20.18-13.21,21.94,21.94,0,0,1-2.48,4.09,21.94,21.94,0,0,0,2.48-4.09L830,175.7a1.81,1.81,0,0,0-2.14-1,23.07,23.07,0,0,1-9.06-2.8c-13.77-7.6-28.59-10.2-44.1-9.94-2.74,0-5.63.4-8.18-.33-7.58-2.17-15.51-.42-23.08-2.45a5.57,5.57,0,0,0-5.74,1.3c-2.3-.26-4.59-.53-6.77.6a2.32,2.32,0,0,0-2.93.7c-10.65-.77-19.91,3.42-29,8.16-4.53,1.54-8.93,3.41-13.65,4.49-9.58,2.18-18,6.45-23.88,14.78a22.74,22.74,0,0,1-6.08,5.52,12.83,12.83,0,0,0-5,5.47,13.49,13.49,0,0,0-6.7,6.62l5.84.37a9.24,9.24,0,0,1-.41,5.09,9.24,9.24,0,0,0,.41-5.09l-5.84-.37a4.19,4.19,0,0,0-2.68,2.74,1.56,1.56,0,0,0-1,1.68c-1.25,1.88-3.28,3.12-4.19,5.3q-6.19,14.79-12.45,29.55c-2.93,7-4.08,14.42-6.1,21.64,1.38,7.13-1.5,13.91-1.74,20.91a9,9,0,0,1,.64,1.94c1.33,15.81,6,30.9,9.89,46.15-.2,3,.81,5.7,1.91,8.38a1.26,1.26,0,0,0,.76,1.54c2,8.69,7,16.09,10.31,24.26,1.2,3,1.36,6.76,4.46,8.9,2.59,3.73,4.95,7.59,7.9,11.13a36.72,36.72,0,0,1,6.86,11.66,86.16,86.16,0,0,0,5,11.33c0,1.56.91,2.79,1.61,4.09,0,1,.51,1.38,1.41,1.42l1.92,2.7.54-1.69c.26-1,.88-2.32,1.74-2.22-.86-.1-1.48,1.2-1.73,2.22-.19.56-.37,1.13-.55,1.69,1.38,3.94,3.47,7.28,7.56,8.92,3.17,2.39,6.74,4.42,9.43,7.27,4.29,4.55,9.5,6.31,15.41,6.83l2.59.72c3.88,2.58,8.14,2.59,12.52,1.85,11.83.74,23.7,1.16,35,5.43,2.56,1,5.25,1.63,7.9,2.39,4,1.14,8,1.81,12.17.52,2.6.81,4.93-.2,7.32-1,16.53-5.45,30.92-14.54,44-25.83A64.41,64.41,0,0,0,837,416.72c3.65-2.67,7.39-5.22,10.91-8.05,7-5.6,12.69-12.21,15.91-20.71C868.08,377.53,874.26,368.41,881.15,359.46Zm5.47-111a39.8,39.8,0,0,1,2,10.22c0,.69.08,1.37.09,2.06,0-.69,0-1.37-.09-2.06a39.8,39.8,0,0,0-2-10.22,3.59,3.59,0,0,0-.74-2.22A3.59,3.59,0,0,1,886.62,248.5Zm-5.42-18.08,4,15.33q-2-7.68-4-15.33Zm-7.63,100.2c.19-.27.37-.54.57-.8h0C873.94,330.08,873.76,330.35,873.57,330.62Zm.73-111.12c1,2.72,2.76,4.94,4.45,7.21-1.69-2.27-3.48-4.49-4.46-7.21a23.73,23.73,0,0,1-1.45-8.31A23.52,23.52,0,0,0,874.3,219.5ZM661.87,207.55a5.36,5.36,0,0,0,0-1.75A5.36,5.36,0,0,1,661.87,207.55Zm48.68,42,1.64,3.39c1.09,1.85,0,2.2-1.22,2.41,1.25-.21,2.31-.56,1.21-2.42-.54-1.12-1.08-2.25-1.63-3.38a11.11,11.11,0,0,0-1.13-5.33A11.11,11.11,0,0,1,710.55,249.53Zm-2,9.9c.83.41,1.47.93,1.44,1.87,0-.94-.61-1.46-1.46-1.87l-.33-.09A2.25,2.25,0,0,1,708.53,259.43Zm-1.33.11a1.5,1.5,0,0,1,.43-.16,1.5,1.5,0,0,0-.43.16ZM682.54,426.39l-5.25-.32,5.25.32a4.86,4.86,0,0,0,2.35,2.2A4.86,4.86,0,0,1,682.54,426.39Zm4.18-13.87h0a6.09,6.09,0,0,1,.81-2.74A6.09,6.09,0,0,0,686.72,412.52Zm6.89,20.75-.44-.06c.15,0,.3,0,.44.06a3.09,3.09,0,0,0,1,2.17A3.09,3.09,0,0,1,693.61,433.27Zm12.63,3.13-.15,1h0a24.65,24.65,0,0,1-8.15-1.08,24.65,24.65,0,0,0,8.15,1.08l.15-1,5.28-.28Zm5.61-173.85c-.44,2.22-.59,4.68-3.13,5.11,2.54-.43,2.69-2.89,3.12-5.11l-1.93-.83,1.93.83c3.35-.56,6.76,0,10.13-.72C718.6,262.58,715.19,262,711.85,262.55Zm5.35,172,4.88-.36c.13-.8.26-1.61.4-2.41-.14.8-.27,1.61-.4,2.42ZM730.79,202.9c-4,.5-6.93-1.07-9.61-3.2,2.68,2.13,5.63,3.7,9.61,3.2.48-.9.91-1.83,1.41-2.71C731.7,201.07,731.27,202,730.79,202.9Zm38.65-11.59a36.74,36.74,0,0,0-.59-7.11,36.74,36.74,0,0,1,.59,7.11ZM754,200.17a6,6,0,0,1,2.11-3.42,5.93,5.93,0,0,0-2.1,3.42c-3.56.77-7.1,1.64-10.51,1.08C746.92,201.81,750.46,200.94,754,200.17ZM739.2,437.41a2.46,2.46,0,0,0,2.55-2.18A2.46,2.46,0,0,1,739.2,437.41Zm15.06-2.75-12.41,0h0l12.41,0c1,1.61,2.42.72,3.8.38C756.68,435.38,755.3,436.27,754.26,434.66ZM764.9,198.84c-2.17.43-4.15,2.28-6.3,2.81,2.15-.53,4.13-2.38,6.29-2.81,0-2.15,1.22-3.6,2.49-5C766.11,195.24,764.92,196.69,764.9,198.84Zm50,40c0,.91,0,1.82,0,2.72C814.91,240.62,814.94,239.71,814.94,238.8Zm-40-38.37h0c3.51-1,6.94-2.38,10.57-2.85C781.85,198.05,778.42,199.42,774.91,200.43Zm10.68-29.07h0l1.57,0Zm1.84,0c3.38-.08,6.74-.1,9.9,1.35C794.17,171.22,790.81,171.24,787.43,171.32Zm16.43,22.07h0q1.47.68,2.43,1.23Q805.33,194.07,803.86,193.39Zm11.06,48.16h0c2.35-.78,4.09-1.94,5-3.71C819,239.61,817.27,240.77,814.92,241.55Zm31.69-19.26a5,5,0,0,0-3.22,1.32,5,5,0,0,1,3.22-1.32Zm15.14-4.17a10.11,10.11,0,0,1-4,1.49,10.11,10.11,0,0,0,4-1.49,5,5,0,0,1,1-2.79A5,5,0,0,0,861.75,218.12Z"/></svg>