<svg id="Layer_1" data-name="Layer 1" xmlns="http://www.w3.org/2000/svg" viewBox="0 0 3901.94 1436.52"><defs><style>.cls-1{fill:#a62b2a;}</style></defs><path class="cls-1" d="M3521,595.6c-.92-60.3-.44-120.64-.5-180.94-.06-39.33,1.85-78.68-6.17-117.68-12.75-62.1-25.5-123.39-68.89-174.09-39.75-46.45-84.88-83.44-142.88-104.51C3253.61.63,3202.1-.06,3152,0c-86.85.15-168.14,24.54-237.66,80-41.51,33.07-79.31,69.32-106.72,115.61-32.69,55.22-51.42,115.32-65.52,177.24-2.15,9.52-6.67,18.79-5.26,28.79.32-.27.65-.51,1-.78a39.83,39.83,0,0,0,4.88-4.07l.36-.36c20-21.07,22.33-21.61,48.78-11.25a305.41,305.41,0,0,1,46.27,22.54c4.58,2.75,9.37,6.28,10,11.67s-3.32,10.26-7.3,14.18c-38.58,37.89-73.57,82-104,131-.48.78-1,1.53-1.47,2.27-2.28,3.42-3.65,5.66-3.35,8.41l.24,2.1-4,4.19c-1.44,2-2.88,4.13-4.31,6.25v0c-.93,22.42,3.41,44.66,3.29,67.07,0,4.76,2.3,10.75-2.46,14-5.2,3.53-8.91-2.39-13.25-4.25-7.19-3.08-12.93-9.52-20.89-10.77-.12.32-.21.68-.3,1l-.27,1-.66.78C2680.69,666.83,2676,679,2671,691.88c-1.73,4.49-3.53,9.13-5.5,13.65l-1.23,2.84c-8.29,19-16.85,38.64-21.88,59h34.3c1.38-2.81-2.48-4.16-3.62-6.61-1.68-3.53-5-7.33-2.34-11,2.37-3.15,6.56-.27,9.91-.12a91.47,91.47,0,0,0,23.73-1.83c10.75-2.36,15.72,2.66,16.7,13.26,2,21.16,1.71,22-17.8,32.8,2.18,5.78,7.9,5.21,12.27,6.55,5.26,1.65,9.78,4.34,9.21,10-.65,6.67-6.82,4.1-10.83,4.37-5.93.42-11.94.15-17.9.15-5.41,0-10.83,0-16.37,3.35,10.66,0,21.34-.21,32,0,14.18.33,22.5,6.85,20.83,17.45-2,12.21-6.35,20.17-23.41,17.18-15.11-2.64-30.88-6.14-45.88,4.52-7.15,5.06-16-3.38-24.33-3.5-4.25,0-9.07-4.73-12.87,2.48-3,5.66-5.33,9.13,3.05,11.13,24.63,5.93,49.3,11.7,75.63,9.1-10.32-1-15.17-8.26-20.86-16,7.07-.9,13.35-2.1,19.7-2.42,18.4-.9,22.5,3,23.61,21.66a37.85,37.85,0,0,0,1.11,8.86c5.71,18.83,5.77,18.23-14.58,19.22-35,1.7-69.43-2.46-103.73-8.53-.15,2-.36,4-.54,6a127,127,0,0,0-.81,13.68c.18,10.65-4.37,14.66-7.06,16.1a11.39,11.39,0,0,1-5.33,1.26c-2.72,0-6.22-.9-10.38-3.8-2.13-1.53-4.31-3-6.47-4.49-15.92-10.9-32.38-22.15-39.05-43.19l-.18-.78c-.06-.51-.15-1-.21-1.55-28.37-5.87-56.81-11.71-85.18-17.75-4.25-.9-8.41-2.13-12.48-1.26-.06.69-.06,1.41-.09,2.1l0,.78-.27.68c-4.52,12.12-5.26,24.69-6.07,38-.15,2.55-.3,5.09-.48,7.63a30.63,30.63,0,0,0,.24,4.49c.54,5.48,1.43,14.64-8.83,17.66a18.27,18.27,0,0,1-5,.72c-7.39,0-13.83-4.67-19.21-8.56-29.06-21-42.11-49.53-38.73-84.7a9.65,9.65,0,0,0-.24-1.73,16.45,16.45,0,0,1-.3-1.68l-.06-.48.24-2.57c-3.65-2.1-7.27-4.19-11-6.08-4-2-8.32-3.56-9-8.65-.42-3.32,1.85-5.5,4.49-7,5.56-3.17,9.07.69,12.84,3.89,1.43,1.2,3,2.31,4.49,3.38l.62-.6a2.45,2.45,0,0,0,.66-2.54l-.12-.63.09-.66a22.81,22.81,0,0,1,.51-2.9c-3.59-3.65-5.83-8-4.49-13.47.84-3.41,3.71-3.32,6.68-3.23l-.6-1.62,2.21-2c5.84-5.45,7.16-13,8.56-21a89,89,0,0,1,2.49-11.25c17.71-57.2,43.21-112,67.9-165l2.67-5.71c4.64-10,9.66-19.91,14.54-29.54,2.22-4.34,4.43-8.71,6.59-13.08.33-.57.65-1.14.95-1.71a146.26,146.26,0,0,0-13.73-13.17c-10.06-8.91-24.9-17.09-27.9-28.19-5-18.64-19.06-27.41-29.86-39.95-2-2.31-4.31-4.79-2.13-7.87,4.79-6.71.27-11.56-3.41-15.93-17.57-20.92-24.42-48.75-44.27-68.2-1.64-1.59-2.45-4.34-3-6.71-5.27-22-17.89-41.48-29.18-59.64-19.63-31.58-36.27-65.34-59.91-94.4-2.1-2.57-6-5.32-3.06-8.83,1.47-1.76,5.45-2,8.26-2,3.42.12,7.22.51,10.12,2.12,31.18,17.09,59.47,11.95,86.31-9.81,9.22-7.48,9.64-11.26-.84-16.82-3.86-2-9.45-2.85-9.72-8-.27-5.45,5.44-6.38,9.19-8.53,3.26-1.89,8.79-2.13,7.72-7.48-1.17-5.81-6.83-4.64-11.11-5.12-2.45-.3-5-.15-7.45-.36-3.92-.33-8.5,0-10.05-4.7-1.26-3.83,2.09-6.35,4.25-9,3-3.8,8.67-7.48,6.4-12.51-2.84-6.25-9.79-3.23-14.81-2.63-11,1.34-10.36-3.86-7.64-11.46,2-5.39,8.83-11.17,4.46-16.23-4.87-5.65-11.91.81-18,1.56a29.7,29.7,0,0,0-7.13,2.21c-8.68,3.3-13,.39-14.33-8.85-3.32-22.15-5.81-22.9-23.91-8.14-1.92,1.58-3.66,3.41-5.66,4.84-6.53,4.73-11.73,6.23-12.84-4.69-.87-8.41-1.38-18.35-11.07-21-9.31-2.55-13,7.42-18.89,12.33a18.3,18.3,0,0,0-3,3.35c-3.74,5.09-6.38,4.64-9.91-.75-3.32-5-4.55-13.86-12.9-12.57-9,1.41-12.12,9.52-14.15,17.45-2.55,10.08-7.16,12.54-15.51,5.12-3.32-3-7.24-5.3-10.86-7.91-4.76-3.44-9.52-3-9.85,3.12-1,19.3-12.33,18.19-26,14.81-6.32-1.52-14-2-16.22,6.23-2.91,10.41-10.06,15.41-19.31,19-5.18,2-10.56,5.15-12.06,10.51-2.78,10.08-9.88,14.54-18.85,17.14-13.47,3.93-15.69,12.13-9.82,23.89,2,4,3.65,8.2,5.66,12.21,10.86,21.67,10.89,21.64-8.74,34.63a27,27,0,0,0-4.67,3.71c-4.49,4.58-11,9.21-8.35,16.22,2.48,6.73,10.2,4.46,15.92,5.09,2.48.26,5,.12,7.48.41,21.34,2.61,27.18,14.46,16.34,33.26a67.49,67.49,0,0,1-5.8,8.7c-11.05,13.59-13.53,29.33-12.93,46.33.39,10.63,4.73,17,14.93,19.28,11.17,2.48,22.33,5,33.58,7.09,8.86,1.62,12.6,5.51,7.93,14.19-11.61,21.66-17.51,45.49-26.25,68.23-10.32,26.94-22.56,53.21-31.39,80.63-9.61,29.84-15.35,60.81-19.15,92l4,.18c3.08.12,6.16.27,9.24.51,11.35.8,19.1,2.36,22.72,7.6s2.3,13-1.2,24.51c-8.92,29.27-8.68,52.64.81,73.59,2.28,5,1.32,9.46.15,13.56l-.24.78-.57.54c-.57.57-1.16,1.1-1.76,1.67,1.28,8.65,6.76,13.86,14.39,17.18l.09-.24c23.08-51.32,58-92.86,103.91-123.45,25.53-17,51.45-27,79.19-30.5,35.23-4.43,59.56,14.25,76.8,31,7.39,7.15,5.92,16.16,4.76,23.4-.18,1-.36,2.1-.48,3.14-7.36,53.43-37.08,93.77-90.83,123.34a507.12,507.12,0,0,1-81.32,35.52c-1.17.39-2.33.75-3.5,1.11-4.19,1.29-8.14,2.51-11,5.24l-1,.9c7.36,13.19,20,21.42,31.69,30,8.56,6.29,15.42,16.43,26.49,18.41a48.47,48.47,0,0,0,4.91-3.44l.83-.66,1.08-.24a74.4,74.4,0,0,0,40.79-22.81l1.11-1.22,1.65-.21c1.91-.24,3.35-1.32,5-3.74l.41-.66,4.46-3.26c1.26-.81,2.49-1.65,3.75-2.49-.24-7.06-4.7-14.09-1.23-21.31,1.43-3,2.45-9.06,5.8-5.23,6.38,7.27,13.59,6.19,20.81,5.56.86-1,1.73-2,2.57-3.05l2.36-3,3.36,1.88c9,5.09,14.6,8.5,15.38,14s-3.41,10.08-10.36,17.15c-18.16,18.55-39.29,33.76-59.73,48.45-3.42,2.46-6.83,4.88-10.24,7.36l-.54.3c2.73,3.62,6.95,5.72,10.6,8.23,15.2,10.39,30.64,20.41,46,30.53,4.58,3,11.25,5.81,10.32,11.55-1,6.14-8.29,3.68-12.84,4.34-26.57,4-43.09,23.35-62,39.42-10.59,9-9.1,20-8.11,31.39.15,1.83-1,3.86-1.77,5.69-7.15,16.19-6.46,32.95-3.74,49.92,1.11,6.85,4.76,15.77,1.86,20.29-6.41,9.91-3.65,16.61,2.06,24.48,1.65,2.28,1.74,6.59,5.36,6,4.49-.72,3.83-5.21,3.89-8.56.18-8-.21-16,.27-23.94.33-5.18-3-13.32,2.57-14.88,7-2,12.52,4.37,16.29,10.6,1.52,2.57,2.87,5.23,4.25,7.9,1.16,2.21,2.3,4.94,5.23,4.34,2.7-.57,3.38-3.39,3.92-5.87,1.71-8.29,2.82-16.28,1.38-25.05-4.52-27.32,3.26-51.24,23-70.9,4.33-4.31,9.75-8.26,16-4.88,6.7,3.62,2.51,9.64,1.37,14.67-4.28,19-8.68,37.89-13,56.83-.71,3.2-2.45,6.94,4.37,9.37,4.76-12.12,20.24-19.69,10.48-37.74-4.19-7.75-.27-19.36,8-23.67,11.16-5.78,14-9.79,2.63-17.75a5.3,5.3,0,0,1-1.34-6.83c1.07-2.15,2.66-2.51,4.61-.74,8.5,7.78,12.09.15,12.36-5.66.36-8.29,6.34-8.08,10.83-9.82,5.81-2.24,9,1.71,11.79,6.41,5.33,9,10.48,18.19,16.64,26.6,9.07,12.33,20.47,21.34,39.54,21.55-6.5-5.62-11-10-16-13.82-8.41-6.29-17.09-12.36-21.49-22.36-4.58-10.39-1.74-14.16,9.34-12.42,8.58,1.35,17.08,3.35,28.7,5.66-11.29-16.47-2.58-16.7,7.51-15,4.82.81,10.11,2.07,13.92,4.85,5,3.59,14.33,8.56.47,13.89-5,1.91-7.18,9.09-1.13,9.09,13.91,0,17.71,9.58,25.7,17.51,17.84,17.63,27.45,39.81,39.81,60.49,4.28,7.18,6.19,15.08,17.15,10.89,2.21-.87,5.45-.45,5.86,2.73.21,1.49-1.28,3.5-2.51,4.81-2.24,2.4-6.55,2.52-7.54,7,6.37,6.19,15.89,3.41,24.36,7.84a47.66,47.66,0,0,0-16.94,27.83c-6.49,30.2-13.32,60.34-18.29,90.77-2.75,16.7-10.83,32.33-9.75,49.68,1.52,25.2-7.6,45.91-26.85,62-4.85,4-10,15.23-15.62,9.42-6.82-7.06,4.64-10.44,9.43-14.57,3.2-2.76,6.1-6.11,3.89-10.27-2.88-5.44-6.83-1.52-10.18,0-25.83,12-51.92,23.17-80.27,27.72-30.7,4.93-60.09,18.25-92.32,14.12-4.82-.63-10.45,1.86-12.87,9,3.95.6,6.76,1.32,9.6,1.44a290.09,290.09,0,0,0,84.43-8.59c19.33-4.88,38.67-9.73,58.09-14.13,4.61-1,13.71-3.65,8.77,6.59-10.12,20.83-24.18,39.53-45,50-9.46,4.75-15.14,10.23-19.1,19-1.16,2.6-3.53,5.69-.53,8.14,2.84,2.31,5.65-.12,8-1.76,6.55-4.52,13.55-8.59,19.36-14,21.67-19.9,44.14-38.82,68.39-55.46,30.55-21,56.14-49.92,94-59.38,2.54-.62,5.93-2,4.22-7.18-12.93.6-24.6,5.24-35.7,11.94-3.51,2.13-8.11,3.68-11.14.48-4-4.25,1.38-5.57,3.8-7.51,4.91-3.89,1.62-7.15-1-10-10-10.92-4.88-19,4.84-25.94,5.66-4,12-7.16,17.63-11.23,11.14-8,21.16-17.15,21.7-32.14.21-5.51,3.14-14.63-3.47-15.65s-6.32,8.62-8.38,13.85c-3.2,8.14-1.86,18.26-10.63,23.89-3.26,2.12-10.17,4.55-9.84,1.16.84-8.76-7.78-13.85-6.29-22.23,5.06-28.37,5.06-57.67,15.06-85.12,4.1-11.19,10.68-21.52,14.27-32.8,8.77-27.5,2.16-54.14-6.28-80.57-7.3-22.86-6.32-22.2,16.76-28.61,54.56-15.23,110.7-26.51,158.89-59,7.66-5.17,17.11-5.62,24.24-1.7,6.64,3.65.69,11.73.48,17.86-.09,2.46-1.17,4.85-1.29,7.31a3.58,3.58,0,0,0,3.53,3.92c7.24.66,27-16,29.06-23.29,3.32-11.94.45-25.05,7.09-36.48,1.92,11,1.53,21.85,2.07,32.65.24,4.91-3.2,12.93,3.86,13.92,5.54.78,7.39-7.15,9.4-12,1.26-3.11.57-7,1.49-10.3,3.24-11.19.3-23.43,5.93-37,10.3,19.28,8.65,36.21,2.37,53.42-4.29,11.68-10.54,22.66-12.78,35-.66,3.8-2.91,8.56,1.28,11,5,2.91,7.84-2.21,11.32-4.79,6.79-4.93,6.7-14.93,14-20.35,3.74,8.41-2.45,20.17,8.71,23.05,8.59,2.21,11.13,6.22,11.55,14.3s4.94,9.1,11,4.37c4.4-3.44,7.36-7.93,10-12.9,12.12-23.1,13.14-47.61,9.67-72.75-.42-3.05-2.87-6.44,1.56-9.19,6.34,7.93,5.65,17,5.86,25.8.18,8.5.24,17,4,24.9,1.53,3.17,3.29,6.61,7.45,6.25,4.4-.38,5.3-4.49,5.6-7.81.84-9.42,1-18.88,1.71-28.31.09-1.17,1.49-2.24,2.21-3.26,4.94,1.44,2.46,9.4,9.43,9,5.95-7.6-1.68-19,6.25-27.9,3.51,10.36,1.83,19.37,2.1,28.23.3,9.54.66,19,5.89,27.38,1.8,2.87,3.57,6.85,7.67,6.17,4.4-.75,3.86-5.12,4.31-8.47,1-7.43,1.88-14.85,3.05-22.21.39-2.6.6-8,4.31-5.69,15.92,9.79,9.25-5.05,10.2-9.54,2.07-10-3.38-21.52,6-30.62,5.84,4.73,3.11,11.1,5.6,15.83,2.3,4.4,4.07,9.85,10,9.79,5.6-.06,6.68-5.54,8-9.61,3.8-12.09,5-24.33,1-36.75-2.09-6.59-5.09-13.74.18-20,7.84-9.31,4.52-18.8,1.23-28.23-2-5.59-5-10.8-4.37-17,10.14,5.47,25.17,3.92,27.41,20.74,1,7.48,5.9,15.62,14.85,13.28,8.44-2.21,9-11,7.72-18.85-.93-5.72-2.19-11.28,5.95-12.45,11-1.59,12.66-9.16,13-18.5.9-22-2.18-43.69-2.93-65.54-.57-17.06-6.58-30.77-17.93-42.92-4.82-5.17-11.43-9.12-13.76-16.49,4.84-2.78,7.57.09,10.29,1.92,15.92,10.83,29.21,24.15,37.23,42,6.14,13.59,11.49,27.56,17.84,41.06,3.74,8,9.52,14.27,19.75,12.84,10.57-1.47,17-6.92,19-17.93,1.1-6.07,1.28-11.79-.33-17.69-10.78-39.35-30.35-72.39-66.62-93.7-3.39-2-8.92-2.72-7.93-9.22,8.61-1.88,13.88,4.28,20.14,7.84,24.39,13.89,37.62,37.89,53.6,59.38,2.6,3.53,6.76,10.12,9.81,7,9.43-9.48,17.51.54,26-.15,10.21-.84,12.75,4.7,12.6,13.74-.24,16,0,31.9.42,47.86.18,6.43,3.5,11.82,9.76,13.76,6.07,1.92,10.5-2.36,13.88-6.7a75.65,75.65,0,0,0,14.82-30.65c7.75-35.46,5-70.21-6.47-104.45-1.22-3.68-4.25-8-.92-11.19,4.16-4,6.82,1.76,10.05,3.26,6.38,2.93,12.63,3.56,18.41-.72,6-4.43,6.25-10.95,5-17.62-4.64-24.7-12-48.37-26.79-69.14-4.16-5.84-6.73-11.82-4.43-19.48,8.59-28.46,8.44-28.49-14.18-45.67-1.56-1.2-3.48-2.52-4.1-4.16-2.46-6.44-8.26-14-4.4-19.55,4.13-5.86,11.76-.06,17.68,1.59,46.75,13.14,72.85,67.37,73.18,103.1a256.93,256.93,0,0,0,3.59,40.14c2.63,15.62,14.72,20.05,27.74,11.19,6.44-4.37,10.42-10.38,12.72-17.87,11.61-37.47,5.51-74-6.34-110a62.48,62.48,0,0,0-19.9-29.42c-44.33-35.53-90.3-67.7-149.71-72.28-7.93-.6-16.28-3.44-18-13.11-2.37-13.41-11.82-18.19-23.44-18.91-20.53-1.23-12-17.78-13.85-27.33-2.16-10.74,8.23-11.7,16.52-11.76,18.43-.15,36.9.06,55.33-.09,53.61-.39,94.79,22.75,125.64,65.75,4.07,5.66,7.58,11.8,13.56,15.81,11.28,7.57,19.21,3.89,20.44-9.61,1.62-18.17-5.56-33.16-17.63-46-23.61-25.08-51.29-43.88-84-55.52-16.62-5.92-33.85-9.49-50.67-15.23,10.59-3.92,21.22-3.47,31.78-1.53,77.25,14.25,133.36,57.4,170,126.15,7.4,13.89,15.63,26.58,27.24,37,8.17,7.33,12.42,16,14,27.12,3.51,24.36,1.5,48.78,2.13,73.14,1.2,47.2,16.49,92,22.89,138.36.81,5.78,4.49,12.33,11.71,11.52,7.87-.9,7.69-8.23,7.45-14.18-1.26-34.9,2-69.68,2.66-104.51,1-47.86.57-95.65-2.75-143.45-3.08-44.68-5.09-89.43-13.56-133.6-1.82-9.58-5.42-19.6-2.81-30.23,5,2,4.73,6,6.1,9,20.41,43.85,19.49,91.22,21.61,137.79,2.55,55.22,1.71,110.62,4.16,165.83a762.08,762.08,0,0,0,21.1,149.17c3.44,14,11.31,25.23,22.3,34.59,7.24,6.2,11.4,4.25,14.18-3.95,3.39-10,4.25-20.38,4.67-30.91C3528.05,673,3521.58,634.42,3521,595.6Zm-1301.51-319c-1.53,8.29-8.23,11.82-16.61,11.73-9.91.15-28.71-15.74-30.08-25.32-.78-5.44,2.3-5.86,6.25-4.82,9.55,2.52,19.22,4.67,28.49,8C2212.49,268,2221,268.34,2219.47,276.57Zm918.7-181.28c16.46-5.59,33.13-10.62,49.38-16.73,12.84-4.81,24.58-5,37.33,1,22.11,10.42,43.87,21.16,62,37.89,2.6,2.37,7.54,5.51,3.29,9.64-2.9,2.81-7-.09-9.16-2.52-39.44-43.6-87.48-33.19-135.66-21.72-17.75,4.22-35.41,8.77-53.1,13.16-.48-1.46-.95-2.9-1.43-4.33C3106.63,106.22,3122.37,100.68,3138.17,95.29Zm-67.86,116.63h0Zm-.67.79v.35h0Zm.41.37a2.91,2.91,0,0,0,.6-.06A2.31,2.31,0,0,1,3070.05,213.08Zm67.14,449.62c-11.26-26.78-34.33-41.48-58.39-57.19C3107.5,603.42,3143.2,638.49,3137.19,662.7Zm-56.54-452.54c8.74-9.73,20.26-11.91,30.62-15.14,37.62-11.77,75.93-19.43,115.76-20.57,37.17-1,70.45,12,104.06,24,18.53,6.61,30.23,22,37.65,40.28,9,22,13.44,45.1,17.39,70.27C3303.62,214.92,3203.33,178.47,3080.65,210.16Z"/><path class="cls-1" d="M1738.8,925.37c-54.55-29.87-88.43-77.33-112.75-133-5.18-11.89-3.53-16.48,9.51-21,48.13-16.69,81.67-48.67,95.18-98.91,6.37-23.69-.09-44-18.54-60.8-16.93-15.38-34-6.35-50.3-.39-43.2,15.76-77.25,44.8-108.05,77.93-13.46,14.49-26.07,29.77-39.07,44.68l-3.11-1.83c4.24-8.84,8.3-17.76,12.72-26.5,50.2-99.37,113-188.8,203.37-256.27,8.57-6.41,7.81-13.07,3.46-20.64-12.65-22-31.3-37.12-54.88-46.18-7.13-2.74-13.26-.81-19.31,4.1-19.06,15.48-35.25,33.67-49.81,53.2q-106.7,143.12-173.42,308.73c-13.46,33.16-24.94,67-20.15,104.24,3.65,28.28,23,44.08,43.92,58.31,8.46,5.75,15.83,4.92,15.56-10.19a202,202,0,0,1,28.57-106.89,473.77,473.77,0,0,1,121.38-136.57c14.72-11.17,30.27-21.32,48.91-24.68,12.36-2.23,15.92,1.8,12.78,13.88-4.79,18.35-15.42,33.43-28.43,46.7a433.53,433.53,0,0,1-84.89,67.89c-6,3.63-7.49,6.68-6.16,13.85,3.35,18.15,8.42,35.79,13.63,53.39,9.89,33.44,19.79,66.93,38.68,96.78,28,44.25,86.42,50.43,122.8,13.21C1745.84,932.8,1746.83,929.77,1738.8,925.37Z"/><path class="cls-1" d="M753.66,444.25c-34.92-9.53-70.18-7.68-105.23-1.22C497,470.93,366,622.72,375.69,785.22c3.48,58.37,27.66,104.55,82.55,130.56,25,11.85,51.91,16.67,79.43,19.4C555.51,937,570.8,932.65,586,923.9c53.19-30.71,98.57-70.79,140.2-115.48a37.83,37.83,0,0,0,4-4.46c3.06-4.56,1.26-8.48-1.9-12.14-3.52-4.07-6.93-2.61-10.38.13-2.73,2.17-5.51,4.29-8.31,6.36-45.8,33.75-92.24,66.48-146.1,86.5-31.83,11.82-51.09,4.54-68.73-24.73-14.78-24.52-16.68-51.72-16.71-75,.89-32.39,4.09-60.19,12.81-86.82,27.42-83.79,71.33-156.71,144.07-209.17,26.67-19.23,56.65-32.26,90.61-29.16,30.2,2.77,39.37,21.56,25,48.11-9.7,18-24.12,31.71-40.51,43.25-7.34,5.17-8.32,9.79-4.48,17.36,7.21,14.21,19,22.52,33.25,28.44,8.75,3.64,15.75,3,23.16-3.67,16.17-14.52,29.69-30.81,38.53-50.79C821.8,494.43,804.66,458.16,753.66,444.25Z"/><path class="cls-1" d="M2457.93,600.63c-24.54,52.71-49.95,107.21-67.48,163.83a87,87,0,0,0-2.19,10.15c-1.41,7.93-3,16.82-9.37,24,1,5.06-.5,9.55-1.82,13.59a34,34,0,0,0-1.56,5.56,11.4,11.4,0,0,1-2.15,8.44l-1.08,12.27c0,.24.09.48.12.69a13.77,13.77,0,0,1,.36,4.31c-3.08,32.23,8.38,57.28,35.07,76.59,6.5,4.7,11.5,7.9,16.38,6.49,2.57-.75,3.08-1.58,2.45-8.14a33.49,33.49,0,0,1-.27-6c.18-2.52.33-5,.48-7.55.78-13.16,1.58-26.78,6.34-39.92.63-20.59,6.92-39.84,13-58.42,1.74-5.33,3.53-10.83,5.18-16.25C2480.47,704.18,2509,640.47,2544,583.6c2.06-8.38,6.55-15.26,10.92-21.9.81-1.29,1.65-2.55,2.46-3.83,32.14-50.64,66.35-93.65,104.54-131.51,4.18-4.16,4.24-5.69,4.21-6s-.53-1.73-5.38-4.69c-17.54-10.72-37.2-19.64-60.1-27.27-6.73-2.27-10.59-1.05-15.83,5-11,12.75-22.39,27.26-34.72,44.35-19.93,27.66-36.78,57.91-53,87.21-5.15,9.25-10.32,18.53-15.56,27.72-2.07,4.16-4.28,8.56-6.5,12.93-4.85,9.54-9.84,19.42-14.42,29.27Z"/><path class="cls-1" d="M2626.46,610.72c-4.82,11.28-10,22.92-15,34.21-12.57,28.37-25.56,57.7-36.16,87.39-4.43,12.39-8.74,25.11-12.9,37.38-1.94,5.71-3.89,11.4-5.83,17.12l-8.56,39.74a9.56,9.56,0,0,1-1.62,8.41c-1.28,16.67.63,33.37,2.55,47.8,5.83,17.86,20.23,27.71,35.46,38.16,2.22,1.49,4.4,3,6.58,4.51,2.64,1.89,5.06,2.64,6.32,2,1.11-.6,2.39-3,2.3-8a130.68,130.68,0,0,1,.84-14.67c.18-2,.39-4,.54-6-1.32-27.36,3.23-51.54,13.89-73.86l2.63-10.6c3.41-15.29,7.33-32.71,16-48.51,5.21-21.31,14-41.45,22.51-60.94l1.23-2.84c1.88-4.34,3.65-8.89,5.35-13.29,4.91-12.72,10-25.86,19.31-37,7.9-28.94,24.09-53.78,38.72-74.85l.12-.3,2.22-2.39c.15-5.06,2.72-8.95,4.88-12.15.45-.69.89-1.35,1.31-2,30.8-49.68,66.26-94.33,105.35-132.7,4.55-4.49,4.73-6.29,4.67-6.71s-.72-2.09-5.69-5a296.34,296.34,0,0,0-45-21.85c-11.7-4.61-17.51-6.73-21.61-5.81s-8.89,5.93-17.39,14.85l-.35.39a47.18,47.18,0,0,1-6,5.05c-.66.48-1.32,1-1.95,1.47l-10.53,16c-8.32,12.63-16.67,25.26-24.9,38-24.84,38.28-45.58,79.79-65.66,119.92C2635.62,592.52,2631.07,601.62,2626.46,610.72Z"/><path class="cls-1" d="M1038.63,643.61c-18.83.55-28.72-9.43-38.68-22.16-16.44-21-36.82-25.84-62.33-17-37.25,12.91-68.72,34.34-95.16,62.68-40.89,43.84-70.1,93.33-65.86,156.41,4.22,62.71,68.82,97.81,113.34,81.91,14.51-5.18,29.53-9.2,43.58-15.55,81-36.6,127.82-98.15,136.34-187.3,0-11.9-1.14-23.29-4.42-34.37C1061.43,654.65,1052.4,643.21,1038.63,643.61ZM874.47,882.43c-10.52,2.54-16.41-.49-20.61-9-6.28-12.71-10.71-26.3-7.53-40.43,18.63-83,66.51-141.51,145.9-173.72,13.31-5.39,18.51,0,20.27,12.19,1.21,8.34,2.06,16.74,3.07,25.12C1015.4,784.88,956.27,862.65,874.47,882.43Z"/><path class="cls-1" d="M2237.63,884.59l9.82-7.09c20.14-14.46,41-29.42,58.6-47.44,2.33-2.39,7.84-8,7.87-9.63-.36-1.14-4.34-3.65-7.66-5.6-9.19,10.56-20.38,18.29-31.13,25.32l-3,2.21c-2.57,3.6-5.57,5.81-9.13,6.68a83.19,83.19,0,0,1-43.54,24.24c-17.24,13.32-37.29,13.23-52.95,11.64-10.38-1-18.88-7.81-24.54-19.48-6.7-13.8-6.13-28.43-5.63-41.33.27-7.1,4.49-11.53,11.38-12.12,4.13-3.33,8.92-4.79,13.2-6.11,1.1-.36,2.21-.69,3.29-1a503.18,503.18,0,0,0,79.88-34.89c51.08-28.11,79.31-66.26,86.22-116.69.15-1.11.36-2.22.54-3.35,1.17-7.25,1.61-11.89-2.16-15.54-23.46-22.8-44.92-31.63-69.43-28.52-26.34,3.32-51,12.81-75.33,29.06-44.35,29.57-78.17,69.73-100.56,119.35-1.14,4.16-2.36,8.29-3.59,12.45a268.28,268.28,0,0,0-7,27.21c-6.41,34.33,5.15,68,30.88,90.08,26,22.27,61.42,28.59,94.82,16.85,9.09-3.17,18.22-7.15,27-11C2229.52,888.06,2233.56,886.3,2237.63,884.59ZM2153.71,764l1.26-2.51c25.5-51.18,60-85,105.32-103.31,1-.42,2.06-.87,3.17-1.38,6.2-2.79,14.67-6.59,21.1-.81,7.63,6.85,3.38,16.37.6,22.69-.48,1-.93,2.09-1.32,3.05-7.33,18.49-17.66,39.2-38.61,52.82a9.58,9.58,0,0,1-1.61,1.17c-5.3,10.59-14.4,16.46-23.26,22.15-2.36,1.52-4.73,3-7,4.66-17.48,12.46-37,24.88-61.5,31.58l-5.6,1.53-.09-5.78C2146,779.13,2150.09,771.07,2153.71,764Z"/><path class="cls-1" d="M2056.45,642.05c2.84-9.27,4.25-16.1,2-19.36-1.91-2.81-7.18-4.28-18.19-5.06-3-.21-6.08-.36-9.13-.51l-4.07-.18c-6.68.24-10.57,4.79-15.09,10.06l-.6.69a580,580,0,0,1-109.71,99l-.48.33-8.23,1.89.84-8.62a281.26,281.26,0,0,1,40.73-75.39c8.59-11.35,14.27-18.83,13.23-22.45s-9.55-6.91-22.42-11.73c-2.75-1-5.33-2-7.78-2.93-14.88-5.63-24.12-9.13-30.83-9.13a13.76,13.76,0,0,0-5.65,1.11c-7.13,3.14-13.08,13.76-24.75,35.58-31.67,59.23-58.75,126.15-82.73,204.62-12.86,42-11.49,44.92,29.39,61.44,7,2.82,13,5.24,15.06,4.19s3.47-6.58,5.5-14.93c20.51-84.43,64.23-144.44,133.72-183.4,5.39-3.06,11.08-5.87,16.35-4.19,3.74,1.16,6.79,4.4,9.57,10.14,5.57,11.5,15.36,20,25.08,27.45,20.23,15.5,22.87,15.26,40.26-3.29,2.12-2.28,4.43-4.43,6.64-6.53.84-.78,1.65-1.53,2.45-2.3.84-3.06,1.26-5.72-.09-8.68C2047.44,697.51,2047.08,672.79,2056.45,642.05Z"/><path class="cls-1" d="M1332.5,826.46c-28.46,15.48-57.06,30.65-88.32,39.88-34.86,10.28-49.5.35-53.53-36.1-.66-5.93-.63-11.93-.92-18,1.21-47.34,19-88.1,50.47-122.93,22.64-25.09,48.87-45.59,82.12-55,19.08-5.37,27.52,2,26.15,21.59-.4,5.68-2.59,10.56-5.3,15.36a125.18,125.18,0,0,1-34.33,38.84c-9,6.76-7,10.78,1.22,16.3,14.88,9.95,29.42,10.62,44.75,1.41,41.82-25.14,47.31-91.4,9.16-116.44-12.6-8.27-27.34-11.3-42.51-12-60.31-2.92-111,19.42-154.6,59.45-33.6,30.81-54.19,68.23-58.68,114.5-4.71,48.6,26.29,100.18,75.77,122.37,19,8.53,38.4,13.71,59.23,5.9,37.33-14,70.34-34.92,100-61.39,4.79-4.28,8.6-8.77,3.48-15.22C1341.24,818.2,1336.85,824.1,1332.5,826.46Z"/><path class="cls-1" d="M2553.91,766.82c4.19-12.33,8.53-25.05,13-37.53,10.72-30,23.77-59.46,36.37-88,5-11.26,10.14-22.87,15-34.36-21.19-9-41.54-21-65.42-21.64-.12.33-.18.69-.27,1l-.18.75-.39.62c-34.57,56.06-62.82,118.91-91.58,203.67a741.49,741.49,0,0,0,77.63-6.59c3.41-.48,6.8-1.67,10.09-1C2550.08,778.11,2552,772.45,2553.91,766.82Zm-17.14-63.23c-.48.44-3.36-.36-3.84-1.26-3.26-6.08.3-10.06,7.88-16.67C2539.91,694,2541,699.31,2536.77,703.59Z"/><path class="cls-1" d="M689.19,1007.87c3.4,3.91,6.91,6.16,7.62,9.09,2.06,8.56,5.3,20.24-4.81,23.7-13,4.44-27.59,1.94-41.48.93-3.37-.25-5.27-3-5.4-6.22-.41-10.12-3.91-21.38,12.53-27.78H623c10.39,13.25,6.55,27.07,6.92,40.2.37,12.91,2.33,26.16-7.22,38.91,12.68-.08,23.12,3,35.7-3-18.83-4.14-14-17-13.24-27.06.84-11.33,10.82-7.61,17.65-8.2,5.44-.46,11-.12,16.43-.09,18.95.07,25.42,11.92,15.9,28.84-1.57,2.78-6.31,3.85-4.69,8.39,13.37,2.42,17.26,2.33,28.66-.64-12.72-17.87-12-64.43,1.88-77.85C710.3,1006.45,700.36,1005.29,689.19,1007.87Z"/><path class="cls-1" d="M1022.46,1079.49c-8.5-5.4-14.87-13.1-21.24-20.75-5.08-6.1-6.33-10.61,1.19-17.17,14.69-12.81,10.75-28.38-8-33.07-16.37-4.09-33.1-2.27-50.65-1.17,10.64,17.42,9.19,63.72-2.14,79.47,11,.4,21.22,1.43,35.94-1.33-10.41-6.29-12.32-13.31-12.3-21,0-4.34-1.11-9.51,4.15-11.76,5.51-2.36,9.5.68,12.88,4.8,5,6.16,10,12.45,15.22,18.41,6.14,6.94,13.49,11.82,23.3,11.47,2.48-.09,5.24-.16,6-3.23C1027.55,1080.69,1024.46,1080.77,1022.46,1079.49Zm-45.69-34.07c-12.36.9-12-7.51-11.67-15.68.29-8-2.6-18.11,10.62-18.68,11.16-.49,19.43,7.24,19.5,17.85C995.19,1041.25,987.33,1044.65,976.77,1045.42Z"/><path class="cls-1" d="M1162.12,1009.61c-21.36-6.13-43.17-2.86-66.82-2.45,11.09,19.22,9.83,64.57-1.94,80.12,24.86-1.52,48.59,4.55,71.58-5.55,17.74-7.8,27.83-22.09,26.83-39C1190.82,1026.67,1181.15,1015.08,1162.12,1009.61Zm4.3,62.19c-6.92,7.28-33.18,12.81-42.4,8.77-6.27-2.74-8.31-8.35-8.6-14.56-.32-7-.07-13.93-.07-20.89h-.19c0-2-.33-4,0-6,1.91-9.76-5.85-23.41,9.88-27.72,16.25-4.45,40.56,6.14,46.73,19.44C1177.51,1043.15,1174.91,1062.87,1166.42,1071.8Z"/><path class="cls-1" d="M1694.54,1010.61c-23.09-7.67-46.77-3.56-74.28-3.65,17.45,12.87,11,27.71,11.51,40.76s4.27,27.38-11.06,39.37c28.72-.32,54.29,4.82,78.21-7.65,15.41-8,21.81-21,20.34-38.23C1717.9,1025.36,1708.75,1015.33,1694.54,1010.61Zm2.58,59.12c-7.8,10-32.89,15.85-44.32,10.4-5.6-2.67-7.76-7.65-8-13.33-.35-7.44-.08-14.91-.08-22.37h-.29a19.61,19.61,0,0,1,0-4.47c2.11-9-5.62-21,6.53-26.7,12.34-5.81,37,1.3,45.54,11.76C1706.24,1037,1706.52,1057.73,1697.12,1069.73Z"/><path class="cls-1" d="M1994,1061.29c-6.76-7.4-9.88-13.22.83-21.51,12.4-9.61,10.25-23.64-4.07-29.48-18.15-7.39-37.16-3.88-59.5-2.75,18.11,13,10.84,28.21,11.82,41.29s3.22,27.4-13.54,37.65c13.9.77,24.11,1.8,36.84-1-7.06-7.27-11.13-13.37-10.59-21.45.29-4.35-1-9.62,4.44-11.59,4.68-1.7,9,.47,12.07,4,5.25,6,10.12,12.3,15.12,18.5,8.44,10.48,19,14.46,33.69,11.51-5.84-4.7-10.63-8.12-14.88-12.11S1998.07,1065.71,1994,1061.29Zm-26.52-15.9c-13.5,1.18-11.76-8.44-11.63-18.09,1.09-6.22-3.06-17.57,11-16.3,11.11,1,20.62,5.73,20.31,18.9C1986.89,1042.15,1977.39,1044.52,1967.52,1045.39Z"/><path class="cls-1" d="M1830.68,1081.44c-6.67-.74-13.79-.58-15-9-1.08-7.6-4.36-17.1,3.29-22.15,6-3.93,14.4-3.67,21.16,1.11,2.25,1.6,3.15,5.41,8.51,3.42-.5-8-1-16.33-1.55-24.69-6,11.85-15.11,14.81-25.71,11.22s-6.71-13.5-6-20.73c1-9.83,20.47-12.27,31.42-4.44,2.92,2.09,4.2,7.85,9.36,5,2.47-1.35,1.75-4.39,1.15-6.84-1.22-4.92-4.15-7.88-9.44-7.89-19,0-38.05,0-58.59,0,16.32,15.89,15.18,68.1-3,80.35,24.49,0,46.13.5,67.72-.25,8.36-.29,10.57-7.19,10.66-17.71C1853.83,1079.21,1843.14,1082.82,1830.68,1081.44Z"/><path class="cls-1" d="M1435.78,1072.88a42,42,0,0,1-49.87,2.11c-21.69-14.36-20.06-47.06,2.95-59.06,20-10.41,32.07-8.45,52.14,8.47,3.49-13.05,2.37-15.23-8.4-18a82.31,82.31,0,0,0-45.64,1.46c-15.27,4.81-28,13.88-31.94,30.52-3.83,16.14,2.11,29.18,15.34,39.15,18.76,14.13,40.34,10.64,61.34,9.59,3.73-.18,7.77-4.28,10.68-7.47,2.49-2.73,5.49-7.2,1.61-10.53S1438.26,1070.91,1435.78,1072.88Z"/><path class="cls-1" d="M852.17,1042.05c-3.57-9.79-8-19.3-12.33-28.77-4.09-8.84-10-7.93-14.39-.84s-7.33,15.16-10.7,22.89c-7.62,17.53-13.27,36.2-30.81,50.79,4.88.58,7.3,1.14,9.72,1.1,8.09-.13,18.34,3.51,14.77-12.4-1.49-6.65,2.1-15.59,11.27-17,8.11-1.21,17.77-4.12,24,2.93,6.12,6.89,10.36,15.76.77,25.33,11.51,1.31,21.07,2.35,33.33-.91C862.49,1073,857.75,1057.37,852.17,1042.05Zm-22.6,8.81c-4.69-.23-11.36.61-9.49-7.31,1.41-6,2.39-15.85,8.14-15.93,7.47-.1,7.5,10.05,10.12,15.5C838.71,1050.2,834.31,1051.09,829.57,1050.86Z"/><path class="cls-1" d="M2119.66,1041.09a125.43,125.43,0,0,1-15.17-9.34c-4.13-3.11-6.65-7.55-4.79-13.08,2-6,6.85-8.07,12.7-8.64a17.52,17.52,0,0,1,14.92,5.22c2.27,2.28,3.87,6.47,8.27,4.11,1-.53,1.6-2.54,1.62-3.89.08-4.52-2.41-7.43-6.59-8.86-12.47-4.23-24.66-3.72-35.81,3.54-12.23,8-13.31,20.08-2.27,29.73,6.28,5.49,14.09,9.21,21,14,7.94,5.43,16.85,11,9.56,22.55-4.44,7-21,7.58-28.71,1.44-1.9-1.52-3.21-3.76-4.84-5.63s-3.36-4.49-6.05-3c-3.14,1.78-2.47,5.29-1.36,8,4.94,12,15.91,9.71,22.05,10.3,17.15.64,30.75-.83,34.61-16.52C2142.63,1055.63,2131.59,1047.63,2119.66,1041.09Z"/><path class="cls-1" d="M1545.85,1007h-31.61c13.6,14,14.71,60.59,2.07,79.42,10.66,1.11,20.89,1.57,33.25-.61C1536.33,1072.91,1535,1023.22,1545.85,1007Z"/><path class="cls-1" d="M2404.84,1325.93c8.73,1.91,17.19-2,26.62-4.74-5-5.1-10.19-5.34-14.76-5.71-33.72-2.76-67-8.4-100.45-13.43-3.77-.56-9.39-2.76-10.39,2.13-1.31,6.4,5.79,5.38,9.48,6.62C2344.34,1320.51,2375.22,1319.45,2404.84,1325.93Z"/><path class="cls-1" d="M2661.6,830.64c-13.33-5.42-27.15-8.72-39.71-15.33q-1.36,5.52-2.74,11C2633,830.34,2646.87,833.83,2661.6,830.64Z"/><path class="cls-1" d="M2215.52,750.3c8.49-5.47,16.55-10.65,20.59-19.72l.71-1.67.51-.21c-7-9.91-8.83-21.43-9.3-33.52,6,9.75,11.16,19.81,13.61,30.94,18-12.27,27.21-31,33.85-47.7.42-1.11.93-2.25,1.47-3.42,3-6.82,4-10.23,1.61-12.36a3.2,3.2,0,0,0-2.21-.71c-2.48,0-6,1.58-9.22,3.05-1.2.54-2.36,1-3.47,1.5-43.28,17.5-76.2,49.89-100.65,99l-1.32,2.57c-2.54,5.06-5,9.88-6,15.53,20.32-6.64,37.23-17.5,52.52-28.37C2210.58,753.51,2213.09,751.86,2215.52,750.3Z"/><path class="cls-1" d="M2716.05,841.33c-1.83-8.23-11.21-8-17.11-11.75-2.1-1.34-5.45.58-5.43,3.33.07,10.49,9.84,7.32,15.47,10.71C2711.53,843.26,2716.8,844.7,2716.05,841.33Z"/></svg>