<svg id="Layer_1" data-name="Layer 1" xmlns="http://www.w3.org/2000/svg" viewBox="0 0 1771.07 1436.47"><defs><style>.cls-1{fill:#030303;}.cls-2{fill:#fdfdfd;}.cls-3{fill:#ec2129;}</style></defs><path class="cls-1" d="M1459.72,759.32c-39.25,36.7-86,59.86-135.53,78.13-4.2,1.54-7,4.53-9.67,7.73-10.63,12.65-19.42,26.65-29,40.1-4.81,6.77-4.79,6.78,2.15,11.57,6.47,4.46,6.44,4.42,12.59-.44,23.22-18.36,46.26-37,72.35-51.31,26.35-14.49,53.44-27.21,82.57-35.14,5.61-1.52,11.32-2.75,17.19-2.48,2,.1,4.62-.05,5.22,2.82s-1.1,4.08-3.27,5.36C1444.9,833,1417.06,852.47,1392,875.8c-29,26.94-53.23,57.46-70.85,93.05A21.71,21.71,0,0,1,1320,971c-.11.17-.47.19-1,.4-1.14-5.56-2.22-11.08-3.4-16.57-3.11-14.4-7.64-28.19-17.18-39.81-3.88-4.73-3.87-4.63-8.38-.75-19.51,16.81-37.59,35-53.39,55.38a70.07,70.07,0,0,0-5.51,8.49c-1.31,2.33-2.85,2.49-5,1.37q-3.58-1.87-7.26-3.59c-9.09-4.2-18.35-5-28-1.76a83.29,83.29,0,0,1-16.61,3.69c-3.7.45-5.07-1.09-4.21-4.67a29,29,0,0,1,3.89-8.44c11-17.72,23.76-34.21,36.44-50.69,57.36-74.54,94.25-158.49,115.6-249.65a680.43,680.43,0,0,0,17.88-148.23c.65-59.28-6.27-117.6-21.74-174.85-13.36-49.46-32.73-96.39-59.51-140.15q-5.5-9-11.42-17.72c-1.68-2.47-2.32-4.44.19-6.68s4.76-1.43,7.07.6a278.53,278.53,0,0,1,36.84,39.84c35.7,46.46,59.38,98.68,73.74,155.25,14.9,58.7,19.37,118.33,14.48,178.63-4.71,58-20,113.45-42.55,167-16.83,40.07-37,78.4-59.08,115.81-.62,1-1.19,2.12-1.83,3.16-.76,1.21-.8,2,1,2,8.25,0,16.5.09,24.63-1.75,1.92-.44,3-1.75,4.08-3.1,9.76-11.87,17.36-25.11,24.34-38.71,25.19-49.15,41.78-101.29,53.55-155.06a852.48,852.48,0,0,0,19.16-163.23c.46-20,.09-40-.43-60,0-1.49-1.39-3.76,1.2-4.5,2.35-.67,3.88.89,5,2.65,3.25,5.09,4.77,10.87,6.06,16.67,5.58,25,8.3,50.4,11.38,75.76,5,41,13.1,81.35,22.21,121.56a9.28,9.28,0,0,0,.65,1.53c7.79-8.13,15.26-16.29,23.12-24.06,19.54-19.33,40.09-37.49,63.27-52.46a62,62,0,0,1,12.16-6.43c3.91-1.43,4.5-1,4.47,3.14-.21,26.89-5.42,52.92-14.2,78.23a349.83,349.83,0,0,1-57.43,103.78c-1.09,1.38-1.59,2.4-.89,4.27,14.59,38.81,28.63,77.84,45,116,12.48,29.05,29.31,55.68,46.42,82.13,3.81,5.9,7.73,11.75,10.85,18.06.66,1.34,2.08,3.22.42,4.39s-3.57.06-4.91-1.49c-11.5-13.31-22.25-27.19-32.57-41.44-24.33-33.6-44.41-69.71-63.36-106.51C1476.77,792.1,1468.28,775.81,1459.72,759.32Zm-110,24.27c.82-.13.87-.82,1-1.42q15.22-23.92,30.46-47.85c13.61-21.3,26.93-42.78,41.44-63.5a6,6,0,0,0,1.07-5.86c-5.77-19.28-11.23-38.66-16.19-58.17-.34-1.33-.07-3-1.64-3.88-11.59,61.78-28.95,121.7-55.93,178.61-.26.53-.51,1.06-.76,1.59l-.77,1.29a12.33,12.33,0,0,0-2.08,4.78l-.33.43.39-.37,3-4.39Zm197.48-222.76c-2.05-.16-3.2.93-4.45,1.62a146.26,146.26,0,0,0-17.9,11.84c-24.33,18.48-45.45,40.32-65.84,62.93a7.37,7.37,0,0,0-2,7.56c5.24,21.38,11.28,42.54,17.29,63.72,1.71,6,3.38,12.08,5.25,18.78C1518.17,677.76,1538,621.55,1547.16,560.83Zm-217,267.81c1.72-.68,2.32-.9,2.9-1.14a492.05,492.05,0,0,0,66.1-33.4c19.28-11.8,37.69-24.77,53.68-40.94,2.36-2.39,2.6-4.27,1.41-7.29-5.84-15-11.45-30-17.09-45-2.86-7.61-5.62-15.25-8.72-23.7C1395,727.35,1363.31,777.75,1330.19,828.64Zm-22.71-65.48c1.33-.58,1.48-1.72,1.92-2.62,42-85,64-174.67,62.52-269.8a500.37,500.37,0,0,0-12.57-104.46,451,451,0,0,0-57.43-139c-.65-1.06-.86-2.62-3.75-3,41,81.7,56.23,168.72,58.69,258.39C1359.33,592.86,1342,679.61,1307.48,763.16Zm-3.12,80.91a195.37,195.37,0,0,1-27.73,2.24,6.4,6.4,0,0,0-5.88,3.12c-28.4,40.31-57.14,80.38-88.43,118.54-.3.36-.78.77-.25,1.32.13,0,.27.14.38.12.78-.18,1.57-.37,2.34-.57,14.24-3.8,28.31-4.84,41.53,3.33,2.79,1.73,3.78.74,5.27-1.5a263.84,263.84,0,0,1,30.53-38.27c8.5-8.66,16.77-17.54,25.64-25.8-1.19-1.69-2.93-2.25-4.39-3.19-2.84-1.82-5.76-3.53-8.06-6.07-2-2.23-2.7-4.27-.65-7.12,3.31-4.6,6.1-9.56,9.17-14.33C1290.45,865.57,1297.12,855.29,1304.36,844.07Zm124-12.64a62.64,62.64,0,0,0-13.35,4.36c-30.23,12.51-58.31,28.89-85.31,47.24a316.31,316.31,0,0,0-27.19,20.48c-1.08.92-2.6,1.52-.82,3.4,10.23,10.77,15.79,24.05,20.11,38,.53,1.7.64,3.56,1.86,5.27C1349.68,902.46,1387.12,865.37,1428.34,831.43Zm2.88-172.32c4.22-5.86,7.58-10.92,11.36-15.63,2.55-3.17,3.09-6.1,1.67-10a141.44,141.44,0,0,1-3.78-13.66c-9-34.7-16.21-69.74-20.56-105.34-.15-1.23.37-3.49-1-3.51-2,0-1.11,2.32-1.34,3.57-3.07,17.19-2.92,34.75-5.65,52a72.17,72.17,0,0,0,2.5,32.68C1420.21,618.73,1425.44,638.41,1431.22,659.11Zm16.44-8c-4.52,4.48-7.7,9.51-11.62,13.89a4.64,4.64,0,0,0-1,5.42c3.08,8,5.86,16.23,8.93,24.29,6.09,16,12.3,31.93,18.45,47.89l1.35.93c2.13-2.59,4.08-5.35,6.44-7.71a4.73,4.73,0,0,0,1.32-5.65c-5.43-16.09-10.34-32.36-15-48.69C1453.64,671.57,1450.71,661.62,1447.66,651.16ZM1531.81,877c-20.22-44.12-38.72-88.94-56.57-134.6a91.4,91.4,0,0,1-5.84,7.42c-2.27,2.35-2.09,4.33-.72,7.16,11.74,24.31,23.64,48.55,36.2,72.46C1513.36,845.55,1522,861.61,1531.81,877ZM1304.69,769.65l-.11.36-.11-.36Zm-5.28-526.2a5.36,5.36,0,0,0-1.08-.34c-.09,0-.23.34-.36.53l1,.55Zm7,522.65-.17-.26c-.08.08-.2.15-.21.23s.11.18.17.26Zm.5-1.84c-.05.09-.15.2-.13.26.14.38.33.38.48,0,0-.06,0-.2-.11-.26S1307,764.27,1306.91,764.26Z"/><path class="cls-1" d="M324.43,663.32c4.85-21.65,8.49-43.64,12.34-65.58,6.58-37.45,10-75.3,14.71-113,1.83-14.61,3.61-29.25,7.27-43.56a36.06,36.06,0,0,1,3.43-9.49c1-1.69,2.08-3.2,4.48-2.61,2.17.53,2.54,2.2,2.73,4,.58,5.82,0,11.63-.51,17.41a478.1,478.1,0,0,0,.93,97.53c6.35,55,19.52,108.17,40.9,159.24,22.47,53.66,47.64,106,79.79,154.65a9,9,0,0,0,6.34,4.42c5.19.89,10.34,2,15.52,3,1.14.21,2.49.72,3.4-.46,1-1.35-.27-2.22-.9-3.17-23.88-35.82-45.32-73.1-63.13-112.24-27.31-60-47.18-122.48-55.5-188.21-6.08-47.94-7.21-96-1.56-144,5.49-46.6,19.32-91.08,38.43-133.9,14.44-32.37,32.27-62.7,55.2-89.87a253.2,253.2,0,0,1,34.94-34.35c1.29-1,2.58-3.45,4.73-1.43a5.31,5.31,0,0,1,1.39,6.3,14.78,14.78,0,0,1-1.38,2.45c-30.85,46.39-53.16,96.73-69.57,149.82a594,594,0,0,0-26.6,155.37c-2.34,67.62,6.27,134,23,199.49,12.43,48.55,29,95.63,51.18,140.64,20.5,41.66,46.12,80,75.31,116.08,8.43,10.4,17,20.65,25.55,31,1,1.2,2.45,2.22,1.56,4.21s-2.45,1.51-4.06,1.68c-10.93,1.16-21.88-.18-32.81.49s-19.79,5.23-26.36,13.89c-2.14,2.82-3.43,2.63-5.52.22-7.44-8.57-14.41-17.54-22.23-25.79-9.31-9.82-19-19.25-28.81-28.54-2.83-2.69-4.73-2.73-7.19.27-12.28,15-21.5,31.39-25.3,50.56-.23,1.18-.16,2.81-1.35,3.13s-2-1.18-2.63-2.16q-7.05-11.85-14-23.77c-21.79-37.81-50.77-69.15-85.48-95.4-11.86-9-23.46-18.29-34.08-28.75-1.49-1.46-4-2.92-2.7-5.32s4-1.72,6.26-1.39c13.5,2,26.07,7,38.55,12.14,41.34,17,80,38.66,114.94,66.74,2.73,2.2,5.43,4.47,8,6.87,1.67,1.56,3,1.92,4.87.3A64.64,64.64,0,0,1,506,901.29c2.59-1.1,2.51-2.24.82-4.15q-10.19-11.57-20.21-23.27c-1.38-1.63-3.19-1.92-5-2.45-34.88-10.33-68.18-24.27-99.21-43.4a360.87,360.87,0,0,1-54.26-41c-3.94-3.59-4-3.51-6.12,1.43A711.7,711.7,0,0,1,219.62,956.89c-2.39,2.92-4.9,5.76-7.39,8.6a8.89,8.89,0,0,1-1.71,1.1c.22-3.82,1.66-6.8,3-9.75,6.52-14,15-26.88,22.81-40.16,17.18-29.25,30.13-60.39,41.92-92.08,7.73-20.75,15.37-41.53,21.3-62.91a6.71,6.71,0,0,0-1.41-6.94c-24.53-29.77-44.28-62.3-56.66-99a295,295,0,0,1-14.71-70.84c-.19-2.38-.94-5.79.92-6.86s4.35,1.42,6.27,2.79c17.44,12.44,33.14,26.93,48.77,41.5,13.85,12.91,27.29,26.23,39.89,40.38C323,663.08,323.23,663.67,324.43,663.32ZM461.61,835.64c.21.34.24,1.08.87.62s-.05-.8-.26-1.17l-1.05-1.44a5.35,5.35,0,0,0-.38-1.15c-17-28.66-29.79-59.36-44.22-89.26-17.25-35.75-29.82-73.24-39.93-111.57-.56-2.12-.65-4.46-2.32-6.62-5.3,23.82-11.88,46.92-18.95,69.88a7.89,7.89,0,0,0,1.68,8.39c24.63,29.79,49,59.77,72.28,90.65,10.23,13.6,19.66,27.81,31.12,40.46Zm27.75-623.46c-.95,1.37-1.91,2.73-2.87,4.1a614.11,614.11,0,0,0-33.25,55.65c-22.17,42.54-37.25,87.41-44.12,134.93A545.08,545.08,0,0,0,404,493a615.9,615.9,0,0,0,8.74,94.79c11.43,66.94,33.3,130.44,63.52,191.14,2,4,3.21,8.48,6.73,11.59l.33.56-.48.08.26-.57c-2.66-6.24-5.3-12.49-8-18.72a679.11,679.11,0,0,1-42.7-138.34,821.43,821.43,0,0,1-13.2-106.13c-2.4-38.31-1.6-76.48,3.82-114.47,9.83-68.9,31.87-133.83,64.15-195.38a12.1,12.1,0,0,0,2.2-5.31l.16-.28ZM352.15,705.33c-.5,1.42-.67,1.89-.83,2.36-7.17,21.51-14.36,43-22.67,64.13-1.35,3.42-.61,5.34,1.92,7.65A353.29,353.29,0,0,0,387.2,822c24.92,14.89,51.36,26.38,78.9,35.44,1.14.38,2.6,1.6,3.59-.13.79-1.4-.61-2.19-1.36-3-2.74-3.17-5.56-6.26-8.3-9.43-23.88-27.64-44.75-57.61-67.07-86.46C379.5,740.94,366.11,723.47,352.15,705.33ZM303.94,748.4c.53-1.76.93-3,1.26-4.23,6.05-22.57,11.11-45.38,16.41-68.13a8.35,8.35,0,0,0-2.35-8.66c-11-11.56-22.31-22.81-33.78-33.9-14.19-13.72-28.63-27.17-44.69-38.74-1.1-.8-2.18-2.56-3.8-1.61s-.71,2.7-.48,4.09a322.38,322.38,0,0,0,46,121.13A314.64,314.64,0,0,0,303.94,748.4ZM579.94,962c2.34.11,5.58.36,8.82.38,1.92,0,4.56,1.72,5.62-.38,1.15-2.27-1.71-3.6-3.06-5-21.27-22.85-42.19-46-61-70.93-3.59-4.73-7.24-7.84-13.28-8.16-3.9-.2-7.74-1.19-11.63-1.66-1.5-.18-3.43-1.39-4.51.28s.84,2.92,1.75,4.12c3.44,4.51,7.09,8.86,10.49,13.41,5.66,7.58,5.47,8.29-3.09,12.69-5.53,2.84-11.06,5.67-15.77,9.82-3.56,3.13-3.6,3.6-.16,7a575.67,575.67,0,0,1,45,48.86c1.47,1.8,2.14,1.18,3.4,0,3.81-3.59,8.42-5.73,13.4-7.28C563.42,962.74,571.19,962.12,579.94,962ZM479.67,920.38c-.89-.81-1.66-1.55-2.46-2.24A363.76,363.76,0,0,0,419.83,878c-21.48-12.23-43.18-24.06-66.6-32.29-1.35-.48-3.15-2.25-4.23-.17s1.35,2.64,2.47,3.59c6.7,5.68,13.49,11.25,20.22,16.9,32.67,27.41,59.7,59.38,78.82,97.73.51,1,.81,2.56,2.36,2.38s1.52-1.73,1.94-2.81c5.83-14.92,12.84-29.17,23.52-41.33C478.77,921.52,479.17,921,479.67,920.38ZM356.7,522.1c-2,20.91-5.24,41.59-9,62.19-5.06,27.37-11.29,54.48-17.91,81.5-.41,1.66-1.36,3.48,0,5.06,6.23,7.4,12.54,14.74,19.08,22.4.42-1,.67-1.45.81-1.94,7.16-25.34,13.59-50.87,19.68-76.5a28.93,28.93,0,0,0,.19-13.09c-1.94-9.12-3.46-18.32-5.06-27.5C361.42,556.93,359.26,539.51,356.7,522.1ZM327.31,676.44c-.59,3-1,5.12-1.41,7.23-4.53,22.76-10.84,45.08-17.09,67.42-.85,3-.46,5.08,1.75,7.19,2.82,2.7,5.4,5.66,8.16,8.43,3.73,3.75,4,3.67,5.91-1.41,7.94-20.94,14.52-42.33,21.48-63.6.51-1.57.56-2.75-.58-4.06C339.62,690.84,333.78,684,327.31,676.44Zm-21.83,87.75c-.3.28-.6.42-.67.65-.7,2.17-1.4,4.36-2,6.55-8.51,29-17.46,57.88-29.47,85.68-2.62,6.07-5.32,12.11-7.95,18.17-.44,1-1.57,2.31-.05,3.2,1.76,1,2.23-.76,3-1.8.23-.33.43-.69.63-1,7.41-12.86,15-25.61,22.18-38.62,9.76-17.74,19-35.77,26.29-54.69.55-1.43,1.76-2.95,0-4.41C312.73,773.93,309.56,768.66,305.48,764.19Z"/><path class="cls-1" d="M200,1289.29c5.6-43,11.1-84.92,16.47-126.88.72-5.67-.8-11.3-1.52-16.91-2.76-21.72-4.83-43.54-8.8-65.09a54.4,54.4,0,0,0-3.27-11.26c-1.4-3.32-3.47-5.79-7.36-6.07-.78-.06-1.93.06-2-.94-.12-3.65-.22-7.31,0-10.94.12-1.73,1.92-1.08,3-1.1,14.6-.19,29.2-.33,43.8-.5,3,0,5.95,0,8.91-.23,2.2-.16,3,.69,2.69,2.78a13.15,13.15,0,0,0,0,2.43c.26,4.11.66,8-5.51,8.06-3.09.06-4.56,3.06-5.38,5.93a40.57,40.57,0,0,0-1.09,14.88c1.94,22.5,5.09,44.86,7.89,67.26q6.24,49.89,12.66,99.77c.32,2.52.7,5,1.06,7.64,1.6-.91,1.13-2.44,1.29-3.69q8.38-63.32,16.73-126.63c2.14-16.21,5-32.35,4.7-48.79a45.83,45.83,0,0,0-1.15-10c-1-4.17-3.19-7.21-7.79-7.62-1.71-.15-2.48-.73-2.26-2.45a7.45,7.45,0,0,0,0-.82c-.21-9.07-.21-9,8.84-9.08,25.41-.21,50.82-.4,76.23-.78,3.47-.06,4.64,1,4.07,4.27a6.22,6.22,0,0,0,0,2c.69,4-.62,5.43-4.89,5.1s-7.3,2.65-9,7.86c-2.5,7.57-2.5,15.45-2.56,23.27q-.52,60.84-.88,121.69-.36,51.51-.67,103c0,4,.3,8.1.52,12.15a17.48,17.48,0,0,0,1.66,6.65c2.13,4.47,4.09,5.27,8.73,3.57,1.38-.5,2.76-1,4.82-1.8,0,3.47,0,6.61,0,9.75,0,1.64-1.2,1.92-2.33,2.36q-29,11.46-57.49,24.27c-2.46,1.1-3.13.61-2.85-1.92a10.73,10.73,0,0,0,0-2.83c-.74-4.31.72-6.78,5.07-8.45,5-1.92,7.17-6.69,8.63-11.64,2.64-9,2.5-18.2,2.6-27.36.38-35.69.51-71.39.73-107.09q.36-56,.69-111.95c0-7.83-.09-15.67-.27-23.5a25.56,25.56,0,0,0-3.93-13.46c-3.15-4.89-7.66-4.72-10.34.44-4,7.73-4.58,16.35-5.8,24.74-8.55,58.58-16.2,117.29-23.73,176Q262.4,1332.16,254,1399c-.51,4.08-3.57,4-6.44,5.6-8.6-67.94-17.14-135.45-25.69-203l-.75-.06c-.65,4.65-1.34,9.31-1.94,14q-9.87,76.41-19.7,152.83c-2.65,20.65-5.18,41.31-7.77,62a17.58,17.58,0,0,1-.3,2.42c-.69,2.64-3.23,3.45-5.22,3.74-1.28.19-1-2.42-1.15-3.8q-7.26-57.53-14.44-115.07c-4.76-38.64-9.28-77.31-14.09-115.95-4.88-39.16-9-78.43-14.61-117.5-.57-4-1.52-8-2.46-11.9a14.34,14.34,0,0,0-3.25-6c-1.06-1.22-3.47-1-3.55-2.93-.17-3.78-.11-7.58,0-11.35.07-1.6,1.57-1.16,2.57-1.17,15.95-.17,31.91-.27,47.86-.52,2,0,2.28.73,2.22,2.33a37.13,37.13,0,0,0,0,5.68c.37,3.16-.18,5.22-3.88,6-2.9.6-3.94,3.42-4.69,6.12-2.55,9.24-1.32,18.57-.38,27.82,5,49.23,11.8,98.23,17.65,147.36,1.52,12.75,3.22,25.48,4.86,38.21C199.14,1285.37,199.52,1286.93,200,1289.29Z"/><path class="cls-1" d="M745,1005.44c-8.48-4.35-17.08-8.5-25.43-13.08-49.27-27.05-90.71-63.4-125.89-107-45.15-56-76.66-119-97.18-187.77a618.32,618.32,0,0,1-25.39-158.05c-3-94.52,13.28-185.43,51.73-272,25.29-57,59.14-108.35,103.28-152.6,43-43.1,92.42-76.48,150.41-96,89.52-30.12,177-24.07,262,16.8,59,28.37,107.08,70.3,147.2,121.63,46.43,59.43,77.79,126.29,97.19,198.94a640.1,640.1,0,0,1,15.4,245.7c-13.11,97.2-45.95,186.81-104.33,266.23-42.16,57.36-94.2,103.3-158.78,134.28a28.15,28.15,0,0,0-6,3.48c1.25.06,2.5.17,3.75.17q297,0,594.05.06c2.31,0,6.21-1.2,6.14,2.44-.07,3.29-3.85,2.06-6,2.06q-302.91.07-605.83,0a25.1,25.1,0,0,0-9.41,1.79,340.08,340.08,0,0,1-251.28-.77,19.56,19.56,0,0,0-7.55-1H140.4a2.81,2.81,0,0,1-.41,0c-2.08-.29-5.49,1-5.49-2.26s3.4-2.3,5.52-2.3q270.86,0,541.71,0H745ZM477.88,531.84c-.05,20.18,2.67,53.95,8.11,87.52,10.76,66.48,31.59,129.54,64.28,188.51,34.3,61.88,78.7,115,136.93,155.85,62.59,43.86,131.78,67,208.73,65.18,46.75-1.12,91.18-12,133.52-31.63,48.26-22.38,89.67-54,125.63-93,50.76-55,86.31-118.94,110.11-189.6,20.26-60.15,30.33-122.11,31.42-185.52A629.43,629.43,0,0,0,1288,413.64c-10.28-61.09-29-119.34-57.87-174.22-33.53-63.86-77.65-118.93-136-161.91-48.66-35.81-102.63-59.1-162.71-67.24a325.19,325.19,0,0,0-130.62,8.54C730.54,38,672,76.4,622.42,129c-52.8,56-89.4,121.7-113.61,194.45C487.8,386.58,477.91,451.53,477.88,531.84Z"/><path class="cls-1" d="M523,1180.33c-1.33,2.3-2.62,4.14-2.63,6.62,0,27.31-.17,54.62-.22,81.93a24.78,24.78,0,0,0,.73,6c1.4,5.61,4.14,7.51,9.73,6.3,3.07-.65,3,.36,3.23,2.94.42,5.07-1.73,6.62-6.46,7.85-17.12,4.44-34.09,9.46-51.05,14.47-2.82.83-4,.81-3.61-2.49a10.93,10.93,0,0,0,0-3.23c-.43-2.68.7-3.85,3.29-4.38,6.12-1.23,9.32-5.48,11.07-11.17,2.13-7,1.95-14.2,2-21.32.51-43.94.78-87.87,1.22-131.81.18-18.51.8-37,.45-55.54-.07-4-.22-8.13-1.69-12-2.06-5.41-4.61-7.37-10.38-7.09-3.38.15-4.29-1.08-3.84-4.1a13.5,13.5,0,0,0,.16-3.23c-.22-2.26.88-2.67,2.88-2.67q27.18-.06,54.35-.32c2.35,0,3.18.72,2.94,3a22.82,22.82,0,0,0,0,4.05c.11,1.65-.44,2.57-2.23,2.58-5.74,0-8.27,3.68-9.75,8.62-1.82,6.06-1.6,12.33-1.69,18.51-.37,24.33-.5,48.67-.7,73,0,.62.08,1.23.22,2.92,4.4-7.9,8.23-14.94,12.23-21.89,10.84-18.86,21.8-37.65,32.61-56.52a28,28,0,0,0,4.16-13.44c.09-7-1.52-11.29-9.22-11.45-6.2-.13-2.65-4.56-3.23-7-.78-3.33,2-2.39,3.61-2.4q68.53-.37,137.08-.77c3.41,0,4.58.56,4.51,4.33-.34,18.79-.39,37.58-.37,56.37,0,2.78-.45,4-3.56,4.22s-3.07-1.75-3.32-3.77c-1-8.45-2.17-16.89-4.94-25a36.46,36.46,0,0,0-4.86-9.75c-4.71-6.51-10.83-10.49-19.06-10.65-5.4-.1-10.81,0-16.21-.19-2.43-.1-2.88.82-2.88,3,0,8.79-.15,17.57-.23,26.36-.15,17.44-.2,34.88-.51,52.31-.06,3.46,1,3.86,3.93,2.91A17.69,17.69,0,0,0,661.4,1137c4.48-8.84,5.83-18.49,7.18-28.13a64.63,64.63,0,0,0,.87-10.09c-.06-3.31,1.35-3.84,4.31-3.93,3.77-.1,2.15,2.46,2.14,3.82-.15,35.55-.49,71.11-.53,106.66,0,3.82-2,3.7-4.42,3.94-3.27.33-2.09-2.27-2.18-3.62-.71-10.83-2-21.54-5.82-31.78-2.28-6.21-5.47-11.53-13.17-12-2.35-.13-3,.51-3,2.85.12,24.06-.83,48.12-.29,72.18,0,1.35.1,2.7.23,4,.66,7.2,3.25,8.77,10.39,8.21,22.1-1.73,33.82-15.37,40.85-34.67a137.83,137.83,0,0,0,6.15-23.49c.41-2.35,4-4.24,6-3.27,1.2.58.68,1.62.6,2.48q-2.91,31.9-5.86,63.8c-.19,2-.49,3.33-3.14,3.63-51.36,5.86-101.91,16.1-152,28.49-3.61.89-3.92,0-3.83-3.27.11-3.53.76-5.8,4.37-7.47,4.92-2.28,5.32-7.12,4.62-11.92-.89-6.06-3.09-11.76-5.32-17.41q-12.66-32-25.5-64A17.74,17.74,0,0,0,523,1180.33Zm92.13-22c.56,0,1.75-53.23,1.62-79.85,0-5.22.54-10.55-1.48-15.63-2.09-5.24-4.95-7-10.55-6.91-5.76.11-9.52,3.17-12.55,7.67-16.22,24.11-30.79,49.23-45.51,74.26-1,1.69-.55,3,.05,4.53q18.48,47.34,38.51,94.06c3.45,8.06,7,16.13,12.6,23,5.42,6.7,11.52,5.8,14.88-2.16a33.22,33.22,0,0,0,2.41-13.07Q615.16,1201.31,615.13,1158.34Z"/><path class="cls-1" d="M1015.68,1083.23c0-5-.18-10-.45-15-.53-9.79-4.57-13.57-14.24-13.67-1.23,0-3.26.85-3.57-.72a17.86,17.86,0,0,1,.2-7.17c.25-1.11,2.18-.48,3.33-.48,14.34,0,28.67.11,43,.15,25.15.05,50.3.33,75.45.05,24.07-.27,40.95,10.64,51.8,31.7,7.64,14.84,11.72,30.78,13.94,47.18,4.14,30.52,4,60.91-4.24,90.88a84.19,84.19,0,0,1-8.47,20.55c-10.9,18.48-28,26.76-49.2,23.74q-60.64-8.64-121.82-11.76c-5.39-.28-3.11-3.78-3.49-6.2-.55-3.42,2-2.37,3.67-2.28,9.84.53,13.69-2.63,14.28-12.6.43-7.28.29-14.59.3-21.89,0-19.47,0-38.94,0-58.41C1016,1147.31,1015.72,1104.59,1015.68,1083.23Zm97,66.68c.34,0,1,40.28,1,60.42,0,8.65.22,17.3.62,25.93.3,6.35,3.76,9.45,10.13,9.8,8.28.46,13.81-3.73,17.73-10.56,4.22-7.37,6.4-15.47,7.83-23.73,5.16-29.93,4.72-60,1.83-90.1-1.41-14.58-4.23-28.86-10.24-42.36-4.85-10.89-12.44-17.72-25-18-3.3-.08-4,.68-4,3.86C1112.71,1093.42,1112.66,1121.66,1112.66,1149.91Zm-31.75.95c-.24,0-.52-29.74-.76-44.61-.21-13.11.38-26.23-.73-39.32-.36-4.28-1.88-8-5.48-10.36-10-6.75-23.1-.42-23.83,11.48-.62,10.13-.27,20.25-.2,30.39.26,39.75.31,79.49.5,119.24a144.62,144.62,0,0,0,.75,14.57c.83,7.76,5.26,11.8,13,12.39,1.21.09,2.41.32,3.62.5,7.5,1.09,11.93-2.3,12.68-10,.37-3.76.46-7.55.47-11.33Q1081,1187.35,1080.91,1150.86Z"/><path class="cls-1" d="M1628.28,1254.59a803.76,803.76,0,0,1-5.2,94.87c-2.3,19.72-5.18,39.37-11.26,58.39-2.26,7.1-4.94,14-9.61,20-6.41,8.15-14.54,9.33-23.16,3.45-7.11-4.86-12-11.66-16-19.07-10.25-18.83-15.68-39.33-20.24-60.07-8.81-40-12.41-80.59-12.82-121.5-.32-31.68,1.21-63.23,6.34-94.52,3.5-21.35,8-42.47,17-62.37,3.61-8,7.9-15.7,14.35-21.9,9.8-9.42,19.61-9.19,28.93.7,6,6.42,9.72,14.26,12.71,22.4,6.62,18,9.63,36.81,12.23,55.7C1626.79,1169,1628.25,1207.6,1628.28,1254.59Zm-24.34-12.93c-.11-21.89-.14-43.78-.89-65.67-.87-25.27-2.11-50.5-5.9-75.53-1.31-8.7-2.79-17.38-6.36-25.48-1.69-3.86-3.09-8.88-8.29-8.91-5,0-6.36,4.86-8.19,8.53a65.69,65.69,0,0,0-4.78,14.6c-5.72,24.32-7.54,49.13-8.74,74q-2.38,49.21-1.25,98.48c.73,33.39,2,66.73,6.76,99.84,1.84,12.85,3.93,25.65,9.12,37.69a26.39,26.39,0,0,0,4.33,7.29c4.22,4.74,7.78,4.41,10.73-1.12a36.25,36.25,0,0,0,2.59-6.36c4.33-14.18,5.92-28.84,7.21-43.5C1603.61,1317.62,1604.08,1279.65,1603.94,1241.66Z"/><path class="cls-1" d="M1356.86,1322c-5.55-2.09-10.65-4.13-15.82-6-14.14-5-28.31-9.86-42.47-14.77-2.43-.85-4.49-8.47-2.75-10.28.73-.75,1.52-.14,2.26,0,9.13,2,11.89-.06,12.58-9.57.66-9,.63-18.1.55-27.15q-.32-38.92-.69-77.86-.43-48.45-.89-96.92c-.05-4.44-.16-8.94-1.48-13.25-1.89-6.18-4.58-8.53-11-8.87-2.82-.15-3.88-1-3.46-3.75a14.3,14.3,0,0,0,0-3.64c-.25-2.24.8-2.72,2.82-2.68,19.87.32,39.74.52,59.6.87a53.61,53.61,0,0,1,8.43,1.1c11.82,2.12,20,8.9,25.09,19.66,6.12,12.86,9.3,26.5,10.54,40.58,1.84,21,2,41.86-4.13,62.31-3,10-7.38,19.23-17.17,24.54-2.53,1.37-.86,3.11-.49,4.52,5.91,22.6,12,45.15,17.9,67.75,4.59,17.5,9,35.05,13.56,52.55,1.41,5.4,3.42,10.55,8,14.21,1,.74,1.79,9.72,1.21,10.9s-1.33.58-2,.3c-11.21-4.68-22.4-9.42-33.64-14-2-.8-1.92-2.4-2.3-3.92Q1365,1263.94,1346.34,1200a16.7,16.7,0,0,0-1-3.08c-.83-1.57-2.56-1.48-3.94-1.42-1.61.07-1,1.6-1,2.57.12,23.79.21,47.58.45,71.38.08,8.09.11,16.21,1.27,24.26,1.13,7.9,4.55,14.11,12.61,16.82,1.4.46,2.26,1.15,2.15,2.89C1356.74,1316,1356.86,1318.73,1356.86,1322Zm-17.19-200.55c.15,0,.4,31.9.44,47.86,0,9.75.55,10.06,10.27,10.38,7.28.24,12.2-2.87,14.92-9.48a63.29,63.29,0,0,0,3-9.22c3.53-14.88,3.41-30,2.78-45.16-.49-12-1.49-24-5.86-35.43s-10.22-15-22.15-15.25c-2.9,0-3.51.79-3.49,3.58C1339.74,1086.27,1339.67,1103.84,1339.67,1121.42Z"/><path class="cls-1" d="M727.81,1149.93q0-34.67,0-69.34c0-4.72-.2-9.46-.57-14.16-.59-7.66-4.77-11.37-12.39-11.51-1.5,0-3.8.92-4.34-.84a14.41,14.41,0,0,1-.1-6.82c.34-1.69,2.31-.87,3.53-.87,16.9-.06,33.8,0,50.7-.07,7,0,14,0,21,1.33,23.34,4.49,37.48,19.68,46.53,40.5s11.47,42.93,10.74,65.45c-.57,17.29-3.68,34.09-10.31,50.13-9.57,23.16-26,38.9-50.53,45.23-10,2.57-20.38,2.32-30.59,3.38-12.9,1.34-25.79,2.73-38.7,4-1.38.14-4.16,1.62-3.76-1.57.3-2.45-2.63-6.49,3-7.06,10-1,14.13-5.41,14.47-15.46.44-13.1.53-26.21.62-39.32C727.19,1178.59,727.58,1149.93,727.81,1149.93Zm33-3.82v28.38c0,17.84-.17,35.69,0,53.52.08,7.5,3.19,9.73,10.71,8.62,7.82-1.16,13.76-5.28,18.18-11.71,6.25-9.11,9.21-19.5,11.25-30.15,4.57-23.93,4.69-48.08,2.84-72.28-1.15-14.89-3.87-29.43-10.22-43.13-5.68-12.25-14.77-18.91-28.59-18.68-2.74,0-3.68.58-3.67,3.52C761.44,1091.5,761,1146.11,760.8,1146.11Z"/><path class="cls-1" d="M1203.87,1160.88c-1.49-30.14-.59-60.3-1.85-90.43a25.36,25.36,0,0,0-.8-5.19c-1.81-7-4.87-9.59-12-9.54-5.72,0-2.63-4.12-3.28-6.35-.84-2.87,1.4-2.78,3.42-2.77q46.85.39,93.7.66c2.41,0,2.91.84,2.92,3,.1,23.39.31,46.78.45,70.18,0,1.31.68,3.3-1.94,3-1.85-.25-4.07.41-4.33-2.81a215.25,215.25,0,0,0-4.22-27.64,62.51,62.51,0,0,0-4.21-12.66c-4.8-10.53-12.58-16.68-24.54-16.73-3.78,0-7.58,0-11.35-.31-2.32-.17-2.65.84-2.64,2.81q.38,43.2.61,86.4c0,2.26.94,2.79,2.89,2.73,5.74-.18,9.15-3.52,11.37-8.4,3.76-8.24,4.85-17.12,5.82-26,.56-5.11.74-10.25,1.22-15.36.17-1.74-.6-4.13,3-3.79,2.9.28,3.49,1.37,3.49,4,0,13.38.19,26.77.3,40.15q.35,40.37.59,80.73c0,1.15,1.42,3.77-1.71,3.39-2.1-.26-4.41-.09-4.62-3.6-.89-14.59-2.47-29.09-7.83-42.89-2.08-5.36-5.15-9.78-10.87-11.83-2.21-.79-3.49-.8-3.4,2.23.79,26.89-.13,53.81,1.28,80.69.47,9,3.62,12.66,12.41,15.05,17.68,4.79,26.91.13,33.75-16.91,4.27-10.62,6.15-21.8,7.95-33,.21-1.36-.53-3.61,2.42-2.87,2.08.53,4,.43,3.75,3.8-1.25,17.66-2.21,35.34-3.25,53-.43,7.29-.89,14.57-1.12,21.87-.09,2.67-.75,3.14-3.33,2.28a804.54,804.54,0,0,0-97-25.86c-1.23-.24-2.94-.06-2.81-2.11.14-2.4-1-4.88.27-7.14.18-.34,1.78-.08,2.66.16,8,2.23,11.52-.4,12.41-9.51.71-7.24.51-14.58.52-21.88C1203.91,1207.93,1203.87,1184.41,1203.87,1160.88Z"/><path class="cls-1" d="M1525.35,1306.72c0,12.57,1.38,25.33-.38,37.65a74.57,74.57,0,0,1-15.89,36.82c-5.79,7.08-13.06,8.59-21.52,5.06s-14.76-9.92-20.08-17.21c-11.9-16.28-19.11-34.75-24.46-54-9.08-32.6-13.37-65.89-14.24-99.68-.93-36.43,2.39-72.38,11.73-107.66,4.72-17.84,11-35.09,21.86-50.26A45.5,45.5,0,0,1,1475,1045c7.59-4.75,15.43-4.53,22.8.58,6,4.17,10,10.12,14.36,15.84,1.32,1.75,2.51,5,4.63,4.44s2.24-4,2.68-6.33a80.63,80.63,0,0,0,1.39-14.12c0-2.29,0-4.06,3.34-3.93s2.35,2.29,2.35,3.88q.14,44.24.17,88.45c0,8.93.08,17.86-.08,26.78,0,1.37,1.51,4-1.34,4.1-2.36.12-4.33-.46-4.49-4.07a334,334,0,0,0-5.63-47.89c-2.22-11.57-5.11-22.94-10.44-33.55-1.83-3.64-3.93-7.11-7.11-9.76-4.44-3.7-8.8-3.65-13.13.19-3.7,3.29-6.17,7.48-8.3,11.89-7.66,16-10.75,33.08-12.86,50.43a565,565,0,0,0-3.86,79.73c.7,34.21,2.08,68.38,8.67,102.09,2.5,12.74,5.71,25.32,12.37,36.69a30.1,30.1,0,0,0,9.08,10.22c5.79,3.86,10.89,3.21,15.48-2s7-11.5,9.39-17.82C1518.64,1329.7,1521.52,1318.18,1525.35,1306.72Z"/><path class="cls-1" d="M469.23,1240.48c0,10.47.16,19.66-.07,28.84-.13,5-3,9.19-5,13.59-6.27,14-13.15,27.69-25.18,37.79-10,8.39-21.25,13.51-34.72,10.74-9.12-1.88-15.64-7.71-20.87-15.06-9.05-12.72-13.3-27.38-16.47-42.38-7.06-33.34-8-67-5.26-100.86A334.46,334.46,0,0,1,373.33,1107c5-17.22,11.39-33.81,22.66-48.08a58.12,58.12,0,0,1,7.18-7.7c13.74-12.12,28.32-12.85,43.15-2,4.13,3,8,6.38,12,9.69,2.81,2.36,4.58,1.4,5.9-1.54a32.93,32.93,0,0,0,2.7-12.61c.1-3.12,1.73-3.18,4.15-3.23,3,0,2.37,1.91,2.36,3.54-.28,28.52-.62,57-.8,85.57,0,2.73-1,3.34-3.43,3.63-2.91.33-3-1.29-3.2-3.3-1.5-15.25-4.06-30.27-10-44.52a57.55,57.55,0,0,0-10.31-16.86c-8.49-9.32-18.36-9.55-26.88-.23-8.15,8.91-12.23,20-15.43,31.35-4.62,16.47-6.61,33.41-7.95,50.39a531,531,0,0,0,2.34,109.65c1.39,10.87,3.48,21.62,7.91,31.74a42.42,42.42,0,0,0,3.84,7.12c5.29,7.62,11.89,9.47,20.48,6,6.23-2.54,10.83-7.07,14.77-12.31,9-11.92,14.22-25.7,19.56-39.44C465.87,1249.74,467.33,1245.6,469.23,1240.48Z"/><path class="cls-1" d="M993.71,1196.58c0,6.86,0,13.72,0,20.59a3.29,3.29,0,0,1-.23,1.58c-9.1,15.41-19.77,29-39.18,31.45-20.19,2.5-36.94-4.52-50.3-19.6-11-12.47-16.93-27.52-20.53-43.52-8.07-35.94-5.18-70.89,10.26-104.51,5.3-11.55,12.62-21.71,22.65-29.73,17.3-13.83,36.53-14.93,55.28-3.17,2.75,1.73,5.59,3.29,8.3,5.07,3.22,2.11,5.25.9,6.79-2.13a18.53,18.53,0,0,0,2-8.22c0-3.21,2.09-2.66,4.11-2.83,2.61-.22,2.37,1.37,2.38,3q.08,32.85.18,65.7c0,1.47.69,3.44-2.1,3.35-2.21-.07-4,.27-4.47-3-2-13.29-5.23-26.24-12.83-37.66a43.52,43.52,0,0,0-7.68-8.85c-10.1-8.78-22.34-8.69-32.17.35-9,8.27-13.75,18.93-16.63,30.52-6,24.28-6.62,48.92-4.42,73.7,1.14,12.79,2.82,25.51,7,37.77a60.94,60.94,0,0,0,6.75,14.24c10.5,15.93,30.6,18.17,44.4,5,6.73-6.44,11.51-14.27,16-22.32,1.3-2.34,2.52-4.72,3.77-7.09Z"/><path class="cls-1" d="M1209.53,1388l-11.3,30.78c-2.14-1.24-2.15-3-2.67-4.46-4.42-12-8.73-24.12-13.15-36.17-1.46-4-2.68-8.23-7.5-10.07h18.44c-.06.41,0,.84-.13.88-5.33,1.77-5.45,1.94-3.42,7.29,3.25,8.57,6.58,17.12,10.27,26.73,2.76-7.35,5.67-13.7,7.47-20.36,1.21-4.49-4.76-12.29-9.41-13.78,1.92-1.42,15.67-1.77,20-.5-.09.24-.13.66-.27.69-6,1.53-6.07,1.61-3.8,7.58,3.26,8.54,6.58,17.06,10.31,26.74,3.64-10.23,6.93-19.34,10.11-28.49,1.5-4.32-1.56-5.3-4.79-6.63h14.81c-6.35,2.16-6.53,8.28-8.34,13.24-4.16,11.41-8.09,22.91-12.15,34.36-.33,1-.26,2.48-1.62,2.47s-1.33-1.56-1.68-2.48c-3.09-8.06-6.06-16.18-9.15-24.25C1211.08,1390.42,1211,1388.94,1209.53,1388Z"/><path class="cls-1" d="M493.27,1417.32h-21.1c.23-.58.27-1,.43-1,6.28-2.56,6.28-2.56,6.32-9.44,0-3.11-.13-6.22,0-9.32.14-2.47-.37-3.64-3.25-3.51-5.66.24-11.35.14-17,0-1.93,0-2.61.55-2.56,2.51.12,4.18.14,8.38,0,12.56-.12,3.92,1,6.66,5.47,6.8.59,0,.94.45,1.15,1.39H441.69c.29-.59.35-1,.54-1,6.25-2.5,6.26-2.49,6.26-9.51,0-8.78,0-17.56,0-26.35,0-5.07,1.48-11.09-7.47-11.29l.95-1h20.72c-.14.53-.14.95-.27,1-6.22,1.89-6.22,1.89-6.23,8.71,0,3.24.11,6.49,0,9.73-.1,2.13.3,3.17,2.81,3.09,5.67-.19,11.35-.16,17,0,2.28,0,3.1-.62,3-3-.18-3.91-.1-7.83-.07-11.75,0-3.48-.88-6.19-5-6.42-.62,0-1.47.09-1.49-.89s.78-.92,1.44-.92h19.31c-.07.78,0,1.22-.12,1.26-6.21,2.32-6.21,2.32-6.21,9.08v28.37C486.82,1414,486.82,1414,493.27,1417.32Z"/><path class="cls-1" d="M1039,1417.33h-20.72c.11-.5.1-.91.23-1,6-2.24,6-2.24,6-8.89v-28.41c0-7.5,0-7.5-6.2-10.41.09-.93.79-1,1.46-1,8,.08,16,0,23.93.3a16.87,16.87,0,0,1,10.81,4.09c5.85,5.16,4.7,15.24-2.12,19a23.56,23.56,0,0,1-7.82,2.51c7.87,7.91,12.12,18,21.84,23.24-6.32,2.35-11.95.93-16-4.08-4.35-5.35-8.71-10.7-13-16.08-1-1.31-2.12-2.67-4-2s-.91,2.33-.95,3.55c-.11,3.64,0,7.3-.05,11s.83,6.47,5.21,6.6C1038.29,1415.85,1038.82,1416.2,1039,1417.33Zm-6.6-35.86c0,2.7.05,5.4,0,8.1,0,1.32.35,2.07,1.8,2,3.64-.19,7.34-.3,10.66-2,5.74-2.91,6.81-11.53,2.06-15.9-2.4-2.21-10.67-4.07-13-2.49-2.93,2-.91,5.23-1.42,7.87A12.2,12.2,0,0,0,1032.35,1381.47Z"/><path class="cls-1" d="M1139.45,1368.24c-7.36,3.29-7.42,3.29-7.33,11.07.05,3.61-1.54,8.29.65,10.55s6.92.73,10.51.67,8.66,1.78,10.79-.83c1.81-2.22.53-7,.61-10.6,0-1.08,0-2.16,0-3.24.12-3.57-1-6.11-5.07-6.35-.64,0-1.41,0-1.43-1.1.59-1.27,1.83-.66,2.77-.67,5.41-.06,10.82,0,16.23,0,.62,0,1.46-.21,1.6.73s-.62,1-1.29,1.07c-4.4.22-5.14,3.23-5.14,6.76,0,11-.07,21.91,0,32.86,0,4.74.18,4.74,6.39,7.54-2.31,1.2-16.28,1.47-20.62.39.07-.25.08-.67.22-.72,6.31-2.26,6.31-2.26,6.31-9.08a67.23,67.23,0,0,1,.07-8.52c.53-4.1-1.15-5-4.94-4.76-5,.35-10,.18-15,0-2.13-.06-2.87.6-2.76,2.75.16,3,0,5.94,0,8.92,0,8,0,8,7.37,11.5h-21.75c.13-.4.15-.81.29-.87,6.13-2.21,6.16-2.21,6.18-8.82,0-9.6.13-19.2,0-28.8-.13-7.59,1-7.32-6.35-10.48Z"/><path class="cls-1" d="M964.45,1301.7c.76-.41,1.09-.74,1.42-.74,8.38.07,16.8-.25,25.14.38,15.5,1.17,24.23,10.25,24.28,24.47.06,13.91-9.14,23.63-24.18,24.79-8.07.62-16.22.26-24.33.31-.72,0-1.83.4-1.88-.83s1.1-1,1.82-1.08c3.9-.41,4.62-3,4.6-6.32-.07-10.14,0-20.29,0-30.43C971.3,1304.72,971.3,1304.72,964.45,1301.7Zm14.71,24c0,6.08,0,12.16,0,18.25,0,1.64,0,3.16,2.17,3.77,7.09,2,18.85-2.4,22.42-9,4.47-8.32,4.55-17-.19-25.18-4.5-7.72-12.25-9.57-20.65-9.58-2.8,0-3.83,1.22-3.79,3.94C979.23,1313.78,979.16,1319.73,979.16,1325.68Z"/><path class="cls-1" d="M734.28,1327.08c5.41,6.65,10.59,13,15.81,19.39a8.58,8.58,0,0,0,3.3,2.26c.82.38,2.69-.1,2.24,1.57-.36,1.3-1.88.41-2.87.6-6.56,1.3-11.09-1.19-14.76-6.8-3.39-5.17-7.75-9.71-11.63-14.56-.89-1.12-1.75-2-3.36-1.61-2,.53-1.16,2.17-1.21,3.34-.13,2.56,0,5.13,0,7.7,0,8.09,0,8.09,6.65,11.44H707.77a4.79,4.79,0,0,1,0-.72c5.89-.87,6.25-5,6.17-9.78-.15-8.79,0-17.57,0-26.36,0-8.27,0-8.27-6.23-11.78.11-.22.23-.64.35-.64,8.91-.22,17.84-.77,26.7.31,8.41,1,12.69,5.77,12.67,13.07a10.46,10.46,0,0,1-6.6,10.22C738.89,1325.62,736.8,1326.19,734.28,1327.08Zm-12.52-12.58v3.25c0,7.64,0,7.62,7.59,6.43,4.41-.69,8-2.37,9.35-7.1,2.22-7.76-3.11-13.28-12.63-13.17-3.14,0-4.78,1.06-4.36,4.52A49.15,49.15,0,0,1,721.76,1314.5Z"/><path class="cls-1" d="M902.07,1367.72c4,0,8,0,12,0,1.6,0,2.13,1.53,3,2.54,8.74,10.77,17.44,21.58,26.56,32.87,0-9.87.08-19.1,0-28.33,0-4.29-3.58-5.08-6.75-5.75-.11-1,.44-1.31,1-1.32,5,0,10,0,15,0,.64,0,1.48-.17,1.62.74s-.62,1-1.3,1.09c-5,.6-5.75,4.15-5.75,8.23v40.47l-1.09.64-32.46-40.05-.86.2v10.69c0,5.14,0,10.27,0,15.41s-1,10.86,7.68,11l-1,1H902c.09-.35.09-.76.23-.81,6.88-2.7,6.88-2.7,6.88-10.5v-26C909.14,1371.66,909.14,1371.66,902.07,1367.72Z"/><path class="cls-1" d="M1072.85,1349.34c9.18,0,8.17-6.08,8.19-11.48,0-8-.1-16,0-23.94.11-5.62.61-11.25-8.41-11.58,7-3,14-1.46,17.77,3.15l22.68,28.09c.55.69,1.14,1.35,2.46,2.9-.17-10.38.46-19.62-.4-28.86-.26-2.77-1.76-4.46-4.64-4.75-.79-.07-1.67-.08-2-1.55h17.9c-.29.54-.39,1-.64,1.14-6.32,2.2-6.69,2.6-6.72,9.5-.06,12,0,24.07,0,36.11,0,1.14.7,2.82-.55,3.32-1.61.65-2.12-1.29-2.89-2.24q-14.46-17.78-28.83-35.64c-.47-.58-1-1.12-2.18-2.43.16,11.76-.47,22.5.38,33.23.24,3.1,2.33,4.37,5.17,4.76.63.08,1.42.1,1.33,1.08-.06.72-.62.76-1.16.76h-16.37Z"/><path class="cls-1" d="M961.4,1392.92c-.07-15.42,10.13-26.22,24.75-26.23s24.65,10.58,24.72,25.81c.06,15.43-10.11,26.25-24.7,26.27C971.82,1418.78,961.47,1408,961.4,1392.92Zm40.83-.54a33,33,0,0,0-2-12.25c-2.27-6.08-6.6-9.94-13.15-10.44s-11.43,2.67-14,8.41a34.31,34.31,0,0,0,.24,29.74c2.56,5.38,7.34,8.23,13.5,7.91s10.3-3.7,12.84-9.09C1001.75,1402.32,1002.26,1397.61,1002.23,1392.38Z"/><path class="cls-1" d="M499.4,1417.07c.11-.32.14-.56.2-.56,6.57-.78,6.81-5.38,6.7-10.55-.19-8.79.14-17.58-.11-26.36-.27-9.77.57-8-6.72-10.91.29-1.38,1.42-1,2.24-1,11.63,0,23.26.07,34.88-.06,2.55,0,3.36.7,3.13,3.18-.18,1.87.09,3.78.09,5.67,0,.74.32,1.75-.81,2s-1.48-.46-1.63-1.36c-.91-5.7-5.06-6.3-9.69-6.22-3.65,0-7.31.08-10.95,0-2.12-.06-2.88.79-2.85,2.86.09,4.59.12,9.19,0,13.78-.06,2.12.91,2.45,2.68,2.4,3.24-.09,6.49-.09,9.73,0,3.57.1,6-1.22,6.8-4.91.19-.88.11-2.22,1.36-2.14,1.67.11,1,1.62,1,2.56.06,4.19,0,8.38,0,12.58,0,.83.44,2.1-1,2.18-1,.06-1.17-.91-1.3-1.72-.69-4.44-3.74-5.54-7.65-5.43s-8.61-1.16-11,.71c-1.83,1.46-.62,6.81-.64,10.43,0,10.41,0,10.36,10.41,10.36,6.94,0,13.35-.88,16.45-8.37.4-1,1.14-1.68,2.21-1.21s.34,1.35.12,2.06c-.08.26-.11.53-.18.79-2.51,9.85-2.51,9.85-12.65,9.85-9.06,0-18.12,0-27.17,0C501.86,1417.63,500.48,1418.06,499.4,1417.07Z"/><path class="cls-1" d="M1249.72,1416.79c8.22-3.14,6.65-2,6.82-10.7.18-9.06,0-18.12,0-27.18,0-7.57,0-7.57-6.53-10.19.24-1.41,1.38-1,2.21-1,11.63,0,23.26.07,34.88-.06,2.62,0,3.31.89,3.15,3.28-.13,2,.06,4,.11,6.08,0,.71-.09,1.4-1,1.47a1.19,1.19,0,0,1-1.44-1c-1-6.47-5.75-6.73-10.69-6.49-4.12.2-9.36-1.83-12.07.93-2.53,2.59-.69,7.74-.78,11.75-.14,6.27,0,6.27,6.35,6.27,2,0,4.06-.07,6.08,0,3.61.15,5.93-1.34,6.81-4.94.2-.84,0-2.2,1.36-2.11s1,1.35,1,2.23c0,4.47,0,8.93,0,13.39,0,.68,0,1.5-.75,1.7-1,.27-1.37-.55-1.51-1.41-.85-5-4.37-6-8.69-5.73-3.47.21-8.06-1.49-10.09.67-1.71,1.84-.54,6.39-.63,9.73,0,1.08,0,2.17,0,3.25,0,7.83,0,7.85,8.08,7.83,2.3,0,4.59-.13,6.89-.22a12.49,12.49,0,0,0,11.4-7.14c.53-1,.92-2.77,2.4-2.22,2,.73.42,2.38.15,3.42-2.42,9.31-2.47,9.3-12.28,9.3-9.06,0-18.12,0-27.18,0C1252.58,1417.62,1251.16,1418.14,1249.72,1416.79Z"/><path class="cls-1" d="M914.23,1349.81c7.07-2.19,7.08-2.19,7.1-9.51,0-8.66.07-17.31,0-26-.05-5.29,1.83-11.69-6.89-12.14,1-1.83,2.17-1.23,3.13-1.24,11.23,0,22.45,0,33.68-.08,2.67,0,4.06.43,3.72,3.49a47.44,47.44,0,0,0,.11,6.07c0,.7,0,1.37-1,1.4a1.16,1.16,0,0,1-1.38-1.1c-.8-6.19-5.38-6.66-10.2-6.74-3.38,0-6.76,0-10.14-.07-2.05,0-3.3.54-3.23,3,.14,4.59.12,9.2,0,13.79,0,2,.62,2.61,2.56,2.51,2.83-.13,5.68-.12,8.52,0,4.23.16,7.51-.88,8.26-5.72.12-.76.25-1.78,1.41-1.52s.81,1.25.82,2c0,4.46,0,8.92,0,13.39,0,.79.11,1.77-.93,2s-1.27-.86-1.39-1.59c-.79-4.68-4-5.59-8-5.4-3,.14-6,.12-8.93,0-1.79-.08-2.31.57-2.28,2.33.1,5.14.13,10.28,0,15.42-.06,2.42.9,3.52,3.27,3.52,3.51,0,7,0,10.54,0,5.74-.06,10.18-2.31,12.78-7.66.44-.91.75-2.41,2.15-1.93s.55,1.86.33,2.78c-2.41,10.12-2.42,10.12-12.83,10.12-9.07,0-18.13,0-27.19,0C917,1350.89,915.55,1351.4,914.23,1349.81Z"/><path class="cls-1" d="M1319.86,1418.77a28.62,28.62,0,0,1-8.66-1.9c-1.83-.69-3.78-1.74-5.16,1-.59,1.18-1.71.82-1.92-.46-.75-4.53-1.37-9.08-2-13.63-.09-.58,0-1.18.64-1.24a1.63,1.63,0,0,1,1.33.56c.64,1,1.06,2.18,1.62,3.26,2.5,4.79,6,8.29,11.6,9.17,4.32.67,8.33-1.1,10-4.5a8.68,8.68,0,0,0-2.75-10.87c-4.43-3.3-9.2-6.14-13.81-9.22-3.75-2.51-6.5-5.69-6.7-10.49-.34-8.23,6-14.21,14.52-13.73a29.29,29.29,0,0,1,7.83,2c1.44.49,2.86,1,4-.65.42-.64.76-1.62,1.8-1.08.84.44.64,1.42.73,2.19q.62,5.64,1.15,11.29c.07.73.61,1.74-.45,2.11-1.29.46-1.48-.63-1.83-1.54a33.12,33.12,0,0,0-2-4.41,12.75,12.75,0,0,0-9-6.31c-4.31-.87-8,.67-9.33,3.85-1.59,3.9,0,7,3.12,9.18,4.38,3.14,9.07,5.86,13.52,8.93,4,2.73,7.47,5.87,7.84,11.18C1336.43,1412.09,1329.8,1418.64,1319.86,1418.77Z"/><path class="cls-1" d="M594.21,1417.27h-22c0-.38,0-.82.08-.86,6.19-2.45,6.19-2.45,6.19-9.2,0-10.28,0-20.56,0-30.84,0-3.64-.67-6.5-5-6.84-.67,0-1.43-.09-1.27-1.07s1-.75,1.6-.74c8,.1,16-.3,23.92.48,10.09,1,15.37,7.77,13.78,16.27-1,5.44-4.69,8.31-9.55,10a32.43,32.43,0,0,1-13.23,1.4c-2.25-.16-2.83.49-2.75,2.61.14,3.51.08,7,0,10.55-.05,4.06,1.2,6.9,5.91,6.88C592.4,1415.93,592.82,1416.42,594.21,1417.27Zm-8.13-35.37c0,2.83,0,5.65,0,8.48,0,.91-.12,1.79,1,2.34,5.19,2.45,14.46-2,15.83-7.59,2-8.09-2.09-13.4-10.84-14.2-5.79-.53-6-.32-6,5.31Z"/><path class="cls-1" d="M871.1,1375.78c.11,2,.26,4,.31,6.07,0,.73.41,1.79-.64,2.06-1.33.35-1.4-.86-1.74-1.71-.4-1-.82-2-1.3-3-5.77-11.3-20.06-12.51-27.69-2.36-5.59,7.44-6.12,22.23-1.06,30.06,6.27,9.71,18.65,11.19,28.78,3.58,1.12-.84,2.32-3.48,3.77-1.86,1.67,1.87-1.13,2.88-2.24,3.86-9.14,8-23.39,8.65-33,1.52-9.26-6.87-12.57-21.1-7.52-32.32s16.84-16.88,29.66-14.29a43.38,43.38,0,0,1,5.49,1.42c1.69.57,3.16.55,4.44-.81.54-.57,1-1.48,1.95-1s.55,1.44.56,2.22c0,2.16,0,4.32,0,6.48Z"/><path class="cls-1" d="M699.43,1309.12c0,2.15,0,4.31,0,6.47,0,.52.18,1.11-.52,1.33a1.25,1.25,0,0,1-1.61-.83c-.39-.85-.66-1.77-1-2.63-2.82-6.4-7.59-10.13-14.71-10.2s-12.45,3.56-15.37,10a30,30,0,0,0-.77,23.69c4.19,11,16.94,14.91,27.38,8.72a22,22,0,0,1,2.69-1.78c1.5-.61,2.67-3.79,4-2.05,1.6,2-1.45,3.23-2.79,4.36a26.84,26.84,0,0,1-32.07,1.33c-9-6.44-12.66-19.72-8.49-31.07,4.11-11.18,14.84-17.57,27.45-16.18a78,78,0,0,1,7.91,1.7c1.57.34,3.21.9,4.57-.5,3-3.14,2.68-.3,2.75,1.58s0,4,0,6.06Z"/><path class="cls-1" d="M819.3,1350.42c.63-1.66,1.77-1.37,2.61-1.51,2.69-.47,4.08-2,4.08-4.69,0-12.17,0-24.34.06-36.5,0-4.49-3.7-4.54-6.72-5.61.91-1.77,2.27-1.15,3.29-1.15,11.09,0,22.17.1,33.26-.12,3,0,4.15.84,4,3.77-.12,1.89,0,3.79,0,5.68,0,.68.11,1.39-.8,1.55s-1.64-.2-1.74-1.18c-.64-6.11-5.13-6.52-9.79-6.63-3.37-.09-6.76,0-10.13-.13-2.49-.08-3.81.83-3.76,3.5.07,4.46.11,8.92,0,13.38-.07,2.09.84,2.5,2.66,2.43,3.1-.12,6.22-.09,9.32-.06,3.56,0,6-1.3,6.66-5.08.15-.84.15-2.19,1.43-2.08,1.69.14,1,1.65,1,2.57.07,4.32,0,8.65,0,13,0,.79.09,1.75-1.07,1.78-.8,0-1.18-.68-1.26-1.34-.65-5.29-4.33-5.86-8.6-5.64-3.22.16-7.5-1-9.4.62-2.21,1.92-.46,6.33-.72,9.64-.07.81,0,1.62,0,2.44,0,8,0,8,6.81,11.38Z"/><path class="cls-1" d="M625.56,1417.3H610.68c5.21-2,6.37-6.9,8.2-11.1,5.29-12.13,10.42-24.32,15.63-36.48.45-1.06.48-2.71,2-2.73s1.6,1.65,2.06,2.68c5.62,12.71,11.16,25.46,16.8,38.17,1.6,3.62,2.5,7.92,7.94,8.39l-.56,1H643.67c0-.31,0-.75.09-.79,5.83-2.15,5.83-2.14,3.4-8.09-2.88-7-2.88-7-10.54-7H633c-8.57,0-10.73,1.85-12.15,10.35C620.41,1414.19,620.66,1414.46,625.56,1417.3Zm9-39.4c-2.81,6.7-5.21,12.49-7.68,18.26-.76,1.76,0,2.08,1.56,2.07,4.68,0,9.36,0,14.54,0C640.15,1391.48,637.55,1385.2,634.52,1377.9Z"/><path class="cls-1" d="M714.24,1376.18c0,1.89,0,3.78,0,5.67,0,.71.56,1.76-.55,2.07-1.39.38-1.35-1-1.73-1.74-.66-1.32-1.13-2.76-1.87-4a15.93,15.93,0,0,0-25.83-2.8c-7.19,7.83-7.9,24.52-1.41,33s18.26,9.39,27.88,2.18c1.13-.84,2.39-3.4,3.76-1.89,1.63,1.8-1.07,2.91-2.19,3.9-9,8-23.49,8.65-33,1.59-9.17-6.8-12.55-20.77-7.7-31.92,5-11.55,16.74-17.37,29.77-14.74a47.45,47.45,0,0,1,5.88,1.53,3.47,3.47,0,0,0,4-.85c2.31-2.55,2.39-.7,2.49,1.21.13,2.29.28,4.58.41,6.87Z"/><path class="cls-1" d="M751.27,1417.26c.37-1.57,1.32-1.43,2.07-1.5,3-.28,4.32-2,4.32-4.84q.06-18.23,0-36.47c0-4.23-3.28-4.9-6.6-5.18.76-2.17,2-1.52,3-1.53,11.36,0,22.71.07,34.06-.08,2.7,0,3.58.73,3.33,3.37a48.78,48.78,0,0,0,.17,5.66c0,.79.12,1.72-1,1.84s-1.43-.62-1.55-1.48c-.73-5.31-4.53-6.13-8.91-6.13-3.78,0-7.57.07-11.35,0-2.14-.06-3.29.52-3.24,2.92.1,4.59.08,9.19,0,13.78,0,1.73.55,2.42,2.33,2.34,2.7-.11,5.41-.12,8.11,0,4.2.18,7.58-.67,8.24-5.64.11-.79.46-1.67,1.54-1.41.9.22.63,1.09.63,1.7q0,6.89,0,13.78c0,.74.27,1.79-.92,1.87-.8,0-1.14-.71-1.23-1.37-.73-5.44-4.6-6-9-5.83-3.09.11-7.2-1-9,.56-2.11,1.83-.43,6.06-.69,9.24,0,.54,0,1.09,0,1.63.11,5.3-1.89,11.76,6.77,12.8Z"/><path class="cls-1" d="M813.68,1350.55H794.6c0-.49-.05-.71,0-.73,5.79-2.75,5.45-2.63,3.27-9.32-1.56-4.75-4-6.89-9-5.94a24.46,24.46,0,0,1-4.45,0c-9.76,0-9.74,0-12.49,9.37-.77,2.66-.32,4.53,2.77,5.07.7.12,1.86-.18,1.82,1s-1.14.84-1.86.85a108.44,108.44,0,0,1-13.16-.5c5.57-2.39,6.82-7.56,8.8-12.13,5.07-11.76,10-23.57,15.07-35.35.45-1.06.5-2.67,2-2.73s1.62,1.6,2.08,2.63c5.35,12.08,10.6,24.21,16,36.27C807.38,1343.36,808.29,1348.47,813.68,1350.55Zm-28.21-39.49-8.35,20.09h16.69C791.07,1324.56,788.47,1318.28,785.47,1311.06Z"/><path class="cls-1" d="M898.64,1350.58h-22.7c.13-.55.15-1,.26-1,8.19-1.8,6.72-2.38,6.91-9.71.29-10.8,0-21.61.14-32.42,0-2.48-.58-3.18-3.12-3.17-8.51,0-11.28,1.15-12.63,8.11-.16.86-.44,1.69-1.46,1.48s-.91-1.18-.87-2c0-.14,0-.27,0-.41-.05-10.53-.05-10.53,10.61-10.53,9.73,0,19.46.09,29.18-.06,2.63,0,3.61.64,3.42,3.35a65.78,65.78,0,0,0,.26,7.28c0,.9.34,2.06-1,2.22-1.12.13-1-.94-1.33-1.66-2.89-7.08-6.12-8.84-13.74-7.77-1.46.2-1.75.77-1.75,2,0,12.7,0,25.4.06,38.1,0,2.53,1.26,3.95,3.81,4.43C895.82,1349.06,897.18,1348.69,898.64,1350.58Z"/><path class="cls-1" d="M424.94,1417.32H402.5c.52-.69.69-1.19,1-1.29,6.35-2,6.39-2,6.4-8.41,0-10.81-.13-21.62.09-32.43.07-3.31-.7-4.39-4.14-4.22-7.73.36-8.66.81-11.52,8.06-.3.77-.48,1.71-1.47,1.63s-.9-1.1-.87-1.89c0-.13,0-.27,0-.4-.21-10.65-.21-10.65,10.53-10.65,9.73,0,19.46.09,29.19-.06,2.6,0,3.62.64,3.46,3.35-.15,2.55.17,5.12.25,7.69,0,.79.12,1.79-.9,2s-1.11-.86-1.42-1.58c-3.28-7.51-5-8.46-13.14-8.1-2,.08-2.51.73-2.5,2.6q.09,18.24,0,36.48c0,3.59,1.46,5.62,5.2,5.74A2,2,0,0,1,424.94,1417.32Z"/><path class="cls-1" d="M1378.28,1417.37h-22.14c.43-.65.57-1.15.83-1.23,6.39-1.88,6.41-1.87,6.42-8.46,0-10.94-.15-21.88.1-32.81.07-3.4-1.11-4-4.12-3.88-7.76.27-8.78.84-11.53,8-.29.76-.41,1.74-1.41,1.68-1.19-.07-.8-1.14-.87-1.88,0-.13,0-.27,0-.4-.46-10.68-.46-10.68,10.07-10.68,10,0,20,.07,30,0,2.23,0,3.16.53,3.1,2.84-.07,2.69.14,5.39.2,8.09,0,.78.16,1.83-.79,2.06s-1.22-.75-1.54-1.51c-3.29-7.57-4.93-8.51-13-8.16-2,.08-2.53.69-2.52,2.59.07,12.15,0,24.31,0,36.46,0,3.51,1.33,5.71,5.14,5.77A1.79,1.79,0,0,1,1378.28,1417.37Z"/><path class="cls-1" d="M1078.49,1417.31c.15-.55.17-.79.22-.79,7.19-.58,7-5.56,6.93-11-.22-10.41-.16-20.82,0-31.22,0-2.72-.78-3.39-3.4-3.37-6,0-11.21.89-12.16,8.27-.1.77-.53,1.66-1.58,1.41-.81-.18-.75-1-.76-1.67a7,7,0,0,1,0-.8c.18-3.35-.84-7.7.88-9.77s6.33-.62,9.65-.66c9.87-.1,19.74,0,29.6-.08,2.17,0,3.23.37,3.07,2.86-.18,2.69.12,5.4.16,8.1,0,.74.31,1.77-.8,2s-1.18-.84-1.48-1.55c-3.15-7.45-4.6-8.29-12.71-8.07-2.06.06-2.83.57-2.81,2.74.08,12.17.06,24.33,0,36.5,0,3.4,1.39,5.37,4.92,5.58.89,0,2-.18,2.31,1.5Z"/><path class="cls-1" d="M796.75,1368.82c3.52-1.5,20-1.46,22.67-.19-7.12,3.08-7.12,3.08-7.12,11.95v28c0,6,0,6,6.05,7.33.57.12,1,.35,1.23,1.35h-22.2a1,1,0,0,1,.8-1.28c6.08-1.51,6.18-1.57,6.2-7.72,0-10,0-20,0-30C804.38,1370.8,804.37,1370.8,796.75,1368.82Z"/><path class="cls-1" d="M1045.54,1301.21h21.89c.24,1.13-.44,1.46-1,1.46-5,0-6,2.95-5.9,7.2.13,9.59,0,19.18,0,28.77,0,8.39,0,8.39,7.08,11.26-2.23,1.26-17.92,1.52-22.1.35.06-.24.07-.66.2-.7,6.92-2.1,6.92-2.1,6.92-9.66q0-13.17,0-26.35C1052.61,1304.93,1052.61,1304.93,1045.54,1301.21Z"/><path class="cls-1" d="M721.89,1368.19h23c.13.7-.06,1.1-.72,1.23-6.11,1.25-6.33,1.51-6.34,7.63q0,14.17,0,28.37c0,8.42,0,8.42,7.13,11.72H723.12a.89.89,0,0,1,.71-1.19c6.19-1.46,6.28-1.54,6.3-8.07,0-9.18,0-18.37,0-27.56C730.14,1371.76,730.14,1371.76,721.89,1368.19Z"/><path class="cls-1" d="M335.29,861.74a8.57,8.57,0,0,1-8.67,8.73,8.66,8.66,0,0,1-.18-17.31A8.61,8.61,0,0,1,335.29,861.74Z"/><path class="cls-1" d="M1453.58,842.46a8.7,8.7,0,0,1,8.57-8.91,8.74,8.74,0,0,1,.33,17.47A8.66,8.66,0,0,1,1453.58,842.46Z"/><path class="cls-1" d="M1638.5,1420.15c.06,6.75-5,12.41-11.24,12.49s-11.44-5.54-11.52-12.27,5-12.35,11.28-12.46S1638.45,1413.34,1638.5,1420.15Zm-2.21.35c.11-5.73-3.89-10.27-9.1-10.31-5,0-9.14,4.32-9.33,9.79s4.12,10.28,9.21,10.33S1636.19,1426,1636.29,1420.5Z"/><path class="cls-1" d="M1442.65,862.43a6.65,6.65,0,1,1,6.6-6.73A6.6,6.6,0,0,1,1442.65,862.43Z"/><path class="cls-1" d="M348.56,872.87a6.85,6.85,0,0,1,6.53,6.91,6.7,6.7,0,0,1-6.8,6.61,6.87,6.87,0,0,1-6.57-6.88A7,7,0,0,1,348.56,872.87Z"/><path class="cls-1" d="M368.56,891.15c2.91.32,4.76,1.94,4.91,5.14a5,5,0,0,1-5.3,5.31c-3.08-.3-4.89-2.12-4.94-5.31A5.22,5.22,0,0,1,368.56,891.15Z"/><path class="cls-1" d="M1430.76,868.74c-.2,3.21-1.75,5.19-4.88,5.57a5.2,5.2,0,0,1-5.45-5.25c.12-3.13,1.82-5,5-5.15S1430.28,865.79,1430.76,868.74Z"/><path class="cls-1" d="M386.44,907c2.75.31,4.4,1.87,4.4,4.44a4,4,0,0,1-4.38,4.27,4,4,0,0,1-4.23-4.35C382.24,908.6,383.91,907.29,386.44,907Z"/><path class="cls-1" d="M1407.42,888.24c-2.55-.51-4.19-2-4.08-4.65a4.29,4.29,0,1,1,8.58.35C1411.8,886.54,1410.09,888,1407.42,888.24Z"/><path class="cls-1" d="M1391.27,898.59c-.11,1.87-1,3.19-2.86,3.36a3,3,0,0,1-3.49-3.07,2.92,2.92,0,0,1,2.81-3.34C1389.83,895.35,1390.93,896.6,1391.27,898.59Z"/><path class="cls-1" d="M405.65,928.42c-.43,2-1.48,3.22-3.58,3s-3.05-1.51-2.88-3.55a2.85,2.85,0,0,1,3.21-2.83C404.45,925.14,405.45,926.46,405.65,928.42Z"/><path class="cls-1" d="M1370.84,919.72a2.64,2.64,0,0,1-2.69-2.83,2.53,2.53,0,0,1,2.78-2.74,2.64,2.64,0,0,1,2.79,2.8A2.74,2.74,0,0,1,1370.84,919.72Z"/><path class="cls-1" d="M416,946.61c-1.92-.31-3-1.25-2.92-3a2.79,2.79,0,0,1,5.58.17C418.65,945.54,417.38,946.3,416,946.61Z"/><path class="cls-1" d="M1340.21,951.48a2.46,2.46,0,0,1,2.75,2.37,2.49,2.49,0,0,1-2.62,2.93,2.4,2.4,0,0,1-2.55-2.59A2.45,2.45,0,0,1,1340.21,951.48Z"/><path class="cls-1" d="M1355.32,931.51c1.73.35,2.69,1.3,2.48,3.06a2.36,2.36,0,0,1-2.72,2.29,2.49,2.49,0,0,1-2.44-3A2.57,2.57,0,0,1,1355.32,931.51Z"/><path class="cls-1" d="M438.93,975.57c-.33,1.58-1.2,2.73-2.94,2.63a2.69,2.69,0,0,1,0-5.35C437.7,972.76,438.64,973.88,438.93,975.57Z"/><path class="cls-1" d="M426.8,959.39a2.49,2.49,0,0,1,2.61,2.5,2.44,2.44,0,0,1-2.75,2.76,2.35,2.35,0,0,1-2.39-2.67C424.27,960.34,425.2,959.54,426.8,959.39Z"/><polygon class="cls-2" points="1304.69 769.65 1304.47 769.65 1304.58 770.01 1304.69 769.65"/><path class="cls-1" d="M1275.17,518.74c.08,64.14-9.16,126.89-28.88,188-22.18,68.72-55.67,131.24-104.21,185.12-44.63,49.55-97.54,86.82-161.66,107a300.8,300.8,0,0,1-96.68,14c-62-1.18-118.76-19.77-170.54-53.6-59.7-39-104.73-91.54-139.38-153.34-32.24-57.5-52.69-119.13-63.51-184.08a625.84,625.84,0,0,1-8.43-109.42c.64-63.56,10.33-125.7,30.4-186.07,22.43-67.48,55.82-128.81,103.77-181.71C676.72,99.75,724.43,64.79,781.68,44c67-24.36,134.56-25.84,202.41-3.88,65.77,21.29,119.21,60.82,164.05,112.61,40,46.2,69.33,98.69,90.42,155.89,19.53,53,30.89,107.69,35,164C1274.64,487.93,1275.26,503.31,1275.17,518.74Zm-59.4-2.62c0-3.38,0-6.76,0-10.14a548,548,0,0,0-18.84-136.59c-16.67-61.74-43.09-118.77-82.93-169.14-33.74-42.66-74.13-77.21-124.64-98.54-74.46-31.45-147.85-27.87-219.53,8.91-44.48,22.83-80.29,56-110.42,95.54C629,246.09,606.65,290.3,590.68,337.78c-20.27,60.28-29.28,122.28-28.46,185.82A563.16,563.16,0,0,0,577.1,646.51c14.29,60.3,37.82,116.58,73.69,167.35,33.8,47.83,75.42,86.91,128.81,112.21,50.68,24,103.71,31.15,158.84,20.07,47.74-9.59,89.38-31.73,126.2-63.17,50.42-43.05,85.83-96.83,111-157.65C1203.32,658.38,1215.8,588.42,1215.77,516.12Z"/><path class="cls-1" d="M1622.19,1420.33a10.37,10.37,0,0,1,0-2c.28-1.45-1-3.74.89-4.22,2.09-.54,4.59-.8,6.69.38,1.76,1,2.6,3.37,1.31,4.43-3.1,2.58-.68,4.25.34,6.24.28.55,1,1.15.36,1.69a1.42,1.42,0,0,1-2.11-.38c-.76-1.11-1.31-2.35-2.07-3.46-.62-.9-1.55-1.71-2.69-1.37s-.44,1.62-.66,2.45c-.27,1,.76,2.9-1.11,2.83s-.79-1.91-.93-3A25.84,25.84,0,0,1,1622.19,1420.33Zm4-4.58c-1.51-.22-2,.57-2,2.11s.91,1.8,2.14,1.7c1.42-.12,2.91-.43,2.77-2.21C1629,1415.79,1627.58,1415.75,1626.21,1415.75Z"/><path class="cls-3" d="M900.13,732.92c0,24.48,0,49,0,73.44,0,2.56.82,3.19,3.25,3.15,8.66-.13,17.32.06,26-.11,3.06-.06,4.12,1,3.91,4a82.94,82.94,0,0,0,0,8.92c.1,2.43-.8,3.37-3.29,3.37q-46-.07-92.11,0c-3.56,0-3.4-2.12-3.4-4.55q0-33.89,0-67.77V719.79c-1.5,1.36-1.51,2.9-1.93,4.25-8.28,26.53-18,52.43-34.11,75.41-8.4,12-18.25,22.64-31.83,28.77-22.38,10.1-43.39,5.7-62.94-7.56-17.08-11.58-28.69-28-38.83-45.64-16.47-28.63-25.94-59.62-30.94-92.1a567.81,567.81,0,0,1-4.71-131.42c3-38.76,10.52-76.58,26.57-112.29,9.84-21.87,22.9-41.39,42.33-56,21.11-15.9,45.22-21.93,71.26-21.16,21,.62,41.2,5.42,60.83,12.76,1.25.46,2.52.84,3.79,1.27.88-1.56.49-3.07.49-4.5q0-89.46,0-178.94c0-12.28-5-18.44-17.1-20.83a49.31,49.31,0,0,0-12.11-1c-2.94.15-3.64-1.05-3.65-3.79,0-9.25-.12-9.16,8.87-11,27.4-5.62,54.07-13.33,78.14-28.2,2.87-1.77,5.63-3.74,8.4-5.66,2.24-1.55,3.19-.86,3.17,1.7v2.85c0,169.74-.47,339.5.38,509.24.18,35.7,4.34,71.55,18.09,105.3,8.89,21.84,21.62,40.66,43.31,51.69,14.75,7.5,30.51,11.4,47.06,8.41,14.26-2.57,24.79-11.67,33.85-22.39,19.7-23.32,27.34-50,24.3-80.62-3.55-35.63-20.25-63.48-45.4-88-22.89-22.29-47.12-43-70.89-64.25-15-13.42-27.74-28.86-36.78-47-13.28-26.69-13.12-54.16-3.06-81.51,14.49-39.42,44.31-59.65,85.08-64.88,23.19-3,45.87-.77,67.56,8.63a117.57,117.57,0,0,1,48.95,39.53c11.2,15.4,14.19,33,13.31,51.58-.52,10.84-1.52,21.6-6.37,31.56-7.44,15.29-27.82,20.05-41.13,9.35-8.53-6.86-9.85-16.49-8.29-26.54,1.41-9.05,6-17,9.66-25.3,7.76-17.72,4.84-32.93-8.74-46.69a61.64,61.64,0,0,0-16.27-11.95c-20.34-10.16-41.69-12.65-63.41-6.05-23.59,7.16-35.53,25-41.1,48.07-5.64,23.39,3,42.38,17.58,59.71,15.34,18.22,33.79,33.08,52.23,47.92,21.59,17.37,43.81,34,63.84,53.25,28.53,27.37,47.1,60.09,49.22,100.15,1.73,32.75-4.59,64.22-22.53,92.31-21.25,33.29-52.72,50.09-91.31,54.84-43.24,5.33-73.48-14.87-96.44-49.14a155,155,0,0,1-21.21-48.43c-.25-1-.64-1.94-1-2.91ZM834.29,521.23h.12c0-41.93-.06-83.85.1-125.77,0-3.7-1.22-5-4.55-6.16-11.74-3.91-23.71-6.66-36.07-7.15-24.08-.95-45,6.32-61.47,24.55-16.07,17.81-24.07,39.53-29.59,62.34-7.63,31.47-9.57,63.57-9.66,95.8-.1,40.7,5,80.88,13.21,120.7,4.87,23.59,10.56,46.94,20.87,68.88,5,10.7,11,20.81,20.42,28.4,13.84,11.21,28.7,10.1,40.74-2.92a83.49,83.49,0,0,0,11.1-15.44c9.06-15.82,15.15-32.86,20.53-50.17,7.16-23,13.78-46.29,14.1-70.54C834.69,602.92,834.29,562.07,834.29,521.23Z"/><path class="cls-3" d="M986.89,213.47c.41,41.59-11.15,76.27-29,109.19C947,342.75,934,361.3,916.56,376.38c-.62.53-1.21,1.09-1.87,1.56-.93.67-1.74,2.16-3.08,1.24s-.23-2.21.19-3.24A306.43,306.43,0,0,0,926.35,330c6.07-26.66,6.78-53.46,3.31-80.59-3.28-25.72-7.87-51.35-7.43-77.44a75.84,75.84,0,0,1,3.31-22.36c6.21-19.24,29.06-20,39.82-10.23,7.69,7,11.88,16,14.87,25.63C985.48,182,986.72,199.48,986.89,213.47Z"/></svg>