<svg id="Layer_1" data-name="Layer 1" xmlns="http://www.w3.org/2000/svg" viewBox="0 0 1622.47 1436.47"><defs><style>.cls-1{fill:#a62b2a;}</style></defs><path class="cls-1" d="M657.85,1132c-5.37,22.4-14.42,7.33-19.54,5.75-5.34-1.64-9.68-4-15.84-3.13-8.23,1.13-17.09,1.79-21.23-8.76-.76-2-4.11-3.21-6.51-4.15-18.79-7.38-34-19.75-47.4-34.39-4.75-5.17-12.22-5.7-16.77-10.51-15.48-16.38-33.42-29.88-50.46-44.45-6.14-5.25-7.49-13.13-9.54-21.14-4.43-17.28-7.57-35.47-19.4-50-.82-1-1.87-2.55-2.86-2.59-27.92-1-31-26.87-42.67-43.57-3.21-4.57-6.41-7.95-10.77-10.53C380.6,896.1,379,890,384.29,874.08c2.73-8.21,3.07-17,8.66-24.43,3.17-4.23.59-8.31-4.52-10.28-11.55-4.47-14.93-14.6-15.64-25.32-1.28-19.35-.38-38.31-14.08-55.35-5.75-7.16,5.26-17.37,8.4-26.12,3.64-10.15,6.32-18.73,2.35-29.56-5.88-16,4.4-29.71,9.17-44,4.83-14.47,7.65-28.4-1.7-42-2.29-3.33-2.86-6.35-.73-9.81,9.77-15.88,13.08-34.42,20.22-50.86a100.73,100.73,0,0,0,8.38-36.93c.65-14.29,11.32-23.07,19-32,6-7,8.57-16,7.75-20.91-2-12,3.2-19.12,9.41-27.2,4.2-5.45,8.28-11-3.1-14.3-6.72-1.95-8.22-8.83-6.76-15.49a11.84,11.84,0,0,1,14.26-9.25c19.35,4.4,35.11-5.63,52.2-10.67,10.9-3.21,18.58-8.08,17.06-21-.1-.82.18-2.31.65-2.48,12.8-4.6,17-19.89,29.47-24.3C557,337.52,568,331,578.5,323.69a42.45,42.45,0,0,1,16.81-7.44,62.86,62.86,0,0,0,26-10.6c8.84-6,21.36.26,32-2.17,11.09-2.53,23.32.84,32.4-11.22,8.89-11.8,21.58-18.76,38.14-19.14,40.5-.93,80.94-4,121.44-5.22a71,71,0,0,1,26.19,3.87c9,3.28,18.11,7.68,28.17,2A11.34,11.34,0,0,1,912.33,275c16.39,13.2,35.91,17.11,55.89,21.38,8.79,1.89,15.6,11.82,24.09,16.74,6.55,3.79,13,11.16,22.33,2.34,5.49-5.22,9.38,3.53,10.4,6.35,7.82,21.56,28.51,32.58,40.56,50.72,5.1,7.67,10.53,14.06,12.13,23.69,1,6,.71,20.93,14.14,7.74,2.07-2,7.51-1.88,8.5.61,3.56,8.89,15.14,10.67,17.62,19.1,5.27,17.91,17.85,31.61,27.92,45.95s16.24,28.48,18.52,45.09c.55,4.06,3.72,5.69,5.91,8.35,3.49,4.23,6.15,9.25,1.66,14.34-6.34,7.17-3.76,10.86,4.36,12.94,2.28.58,4.54,1.69,4.11,4.33-2,12.5,3.66,24,4.46,35.95,1,15.28,2,30.34-3.09,46.13-5.74,17.76-5.28,37.43-10.93,55.71-3.27,10.57-16,20.45-27.23,18.95-4.7-.63-9.15-1.63-11.82,2.87-6.73,11.3-19.59,12.73-29.55,18.71-6,3.58-13,1.66-20.14,1.08-17-1.38-33.27-6.3-51.8,2-12.44,5.54-31.39,13.34-46.65-.07-3.18-2.79-5.67-1.25-9-1.16-15.08.38-30,8.16-45.18,1.57-2.15-.93-3-.14-4.39,1.07-13.07,11.22-18.19,10.09-25-5.92a44.37,44.37,0,0,0-5,4.06c-4.46,4.82-4.32,13-13.93,14.2-10.92,1.37-22.9-1-28.42-7-13.38-14.62-23.82-1.53-35.18.52-2.94.53-4.82,7.06-8.24.29-.29-.58-3.24-.69-3.42-.3-4.23,9-8.3,14.76-12.95.23-.09-.3-2.13-.5-2.33-.17-9.9,16.07-21.8,3.45-32,1.29-11.45-2.4-21.92,1.89-32.87,1.16-3.62-.25-5,2.25-6.89,5-8.32,11.82-14.06,11.78-25.16,2.39-5.63-4.77-12.95,1-19.83-1.06-17.59-5.38-34.64,3.23-52.13,4.06-10,.47-17.23-9-28-3.73-9.8,4.8-20,8.45-32.38,1.34-4.05-2.32-17.88,7.17-23.44,14.24s-10.22,7.72-16.56,4.88c-7.07-3.16-10.11-1.16-13,5.66-4.44,10.52-10.6,20.32-15,30.87-1.51,3.62-6.15,8.93-2.31,12.11,10.12,8.37,7.67,18.36,6.63,29-1,10.07-.19,19.92,7.29,28.6,6,7,5.67,16.71,3.82,25.25-1.54,7.15-1.16,11.72,6,15.21,4.81,2.34,9.11,6.82,10.08,11.94,2.32,12.25,12.88,17.76,20.08,25.74,4.85,5.38,12.35,8.35,14.07,16.52.17.79,1,2,1.54,2,23.88.42,28.28,30.48,52.31,33.62,9,1.18,21.68,8,30,16.67,2,2.1,4.46,3.3,7.13,2,6.16-3.06,11.66-.44,16.31,2.65,16.72,11.08,30.88,9.07,45.67-4.66,7.84-7.28,13.71,2.73,17.57,8.1,3.67,5.13,4,12.14,4.32,19,.92,21.66,14.68,28.52,33,16.77,8.73-5.59,18.4-2.22,25.38,0,14.76,4.67,22,5.41,33.78-5.9,2.34-2.24,4.58-1.58,7.19-1.7,15.56-.71,31.22-1.7,41.34-16.13,4.35-6.22,11.44-4.33,15.62-3.21,13.86,3.71,21.21-5,29.31-12.68,5.73-5.45,7.89-18,20.15-9.29a2.59,2.59,0,0,0,2.41-.69c7.5-12.72,24.51-13.72,32.13-27.14,5.07-8.95,13.84-15.81,21-23.53s14-15.92,15-27.27c.32-3.7,2.52-6.09,5.82-8.27,6.92-4.57,5.46-8.6-1.26-12.71-7.45-4.54-6.16-13.84-8.15-20.72-1.39-4.81,8-7.15,12.48-7,19,.82,22.09-16.58,31.46-26.5,2.67-2.83,2.43-6.88,8.28-4.59,5.44,2.13,6-3.69,7.56-7,8.79-18.37,15-21,34.51-17.15,7,1.38,15.42,2.08,18.74-7.69,1.77-5.21,7.2-5,10.91-5.29s7.33,2.41,7.39,7.61c.07,6.24,4.56,11.75,8.65,14,12.85,6.93,21.14,18.46,30.71,28.43,5.4,5.63,9.45,15.33,4.14,23.34-3.55,5.37-2.08,7.88,1.42,11,7.31,6.58,6.34,13.31-.32,19.15-5.7,5-7.07,9.65-4.85,17.26,3,10.31-3.89,18.33-11.31,23.79-8.55,6.29-13.86,14.64-19.73,22.88-4.25,6-9.56,11.46,2.23,15.32,4.23,1.38,4.63,5.26.89,8.16-3.46,2.68-7.65,7.12-11,6.72-14.66-1.74-25.66,10.68-40.52,8.92-8.65-1-14.4,11.09-15.73,15.09-2.73,8.16-3.12,20.67,7.45,27,4.67,2.78,8.32,5.08,7.06,11-1.52,7.16-7.56,5-12,5.16-9.6.35-19.09,3.89-28.83,1.1-1.16-.33-3.37-.25-3.73.4-10.07,18.16-31.37,16.1-46.68,24.83-22.46,12.81-42.84,32.3-71.29,32.65-29.61,21.35-65.34,14.32-98.15,19.85-22.32,3.77-46,8.5-69.08,1.45-14.15-4.32-30.59.07-43-8.28-16.48-11.07-34.33-10.89-52.48-11.6C662.64,1150.49,661.5,1142.8,657.85,1132Zm99-747.78c-11,2.19-31.25,5.83-51.25,10.37-8,1.82-16.68.59-24.08,5.73-11.62,8.07-24.93,11-38.92,11.2-9.86.14-18.55,3.2-23.89,11.81-3.55,5.72-9.84,9.57-14.47,10.54-14.6,3.08-25.35,9-30.19,23.84-.53,1.61-3.39,3.08-5.39,3.49-14.76,3-26.55,9-29.07,25.85-.22,1.49-3.09,3.07-5,3.74-12.58,4.3-20.53,12.62-22.8,25.85-.41,2.45-1,4-3.48,4.87-10.32,3.5-13,13.57-15.47,21.81-6.22,20.4-9.35,41.81-22.4,59.64-1.48,2,1.14,2.71,1.66,4.08,5.08,13.48,9.05,26.91-2.42,39.43-1.63,1.77-2,4.58-.45,6.16,5.67,5.8,7.48,13.57,11.31,20.25,3.47,6.06,9.67,11,17.75,9.06,11.65-2.75,23.43-1.06,35.12-1.87,3.6-.25,7.37-.34,10-3,7.89-8.12,15.53-6,24.56-1.37,14,7.17,36.15-8.57,34.78-24.07-.29-3.3-3.51-7.38,1.63-8.9a10.26,10.26,0,0,1,11.64,4.57c9.56,14.56,23.42,19.08,40,17.51,14.85-1.4,29.41-6.27,44.68-2.69,5.72,1.34,10.71,1.4,16.43,5.53,4.58,3.33,15.17-1.63,23.09-2.93,19.66-3.2,39.11-13.21,59.19-.79,3.6,2.23,10.13.88,12.44-2,4.12-5.07,9.33-3.85,14.13-5.37,23.7-7.47,49.41,1.65,72.7-8.9.36-.16.88,0,1.32,0,14.28.18,28.09-6.84,42.72-2.64,2,.57,5.59-1,7.06-2.69,7.17-8.44,18.47-10.09,26.56-16.54,14.29-11.41,31.71-21,31.89-43,.14-17.57-.05-35.18-4-52.38-2.31-10.16-7-19.78-.94-30.36,2.13-3.68-.44-10.33-4.4-8.43-13.25,6.35-11.44-5.59-15.48-10.89-8-10.52-7.44-26.69-19.66-33.61A44.3,44.3,0,0,1,948.11,432c-5.86-9.08-9.61-14.42-23.62-16-17.36-2-38-3.58-52.71-17.89-2-2-5.47-2.82-8.41-3.6C831.49,386,799,382.72,756.81,384.24Z"/><path class="cls-1" d="M429.32,279.78c-20.1-3-34.7-4.27-35.67-31.53-.16-4.53-1.33-6.85-6.54-8-14.37-3.12-16.26-7-12.34-21.34.81-3,1.28-6.22,2.8-8.82,4.33-7.37,2.39-12.72-4.84-16.23-16.16-7.84-16.52-22.5-13.28-36.24,3.16-13.39,11.11-25.15,25.8-29.64s28.12-10.57,37.32-23.66c4.26-6.07,11-7.45,17.66-6.88,7.61.64,14.61,4.18,13.31,13.15-1.19,8.27-6.39,13.52-16.09,11-3.3-.88-7.47-2.9-9.85.56-2.59,3.76.31,7.78,2.17,11.16,16.5,30.05,11.1,37.71-2.53,54.36-7.08,8.64-18.49,11.87-28,17.33-1.46.83-4.33.12-5.29,2.42-2.32,5.56-8.15,11.7-4.08,17.08,4.36,5.76,9.42-1,13.59-3.3,14.43-8.05,24.94-22,41.49-27.1,11.75-3.63,23.45-9.47,35.69-4.42,19.21,7.94,25,36.77,9.43,52.57-14.78,15-31.82,27.89-51.85,35.78C435,279.27,431.33,279.4,429.32,279.78Zm-2.7-18.84c14.27.38,43.35-22.57,50-38.62,1.79-4.34,6.79-8.59,1.89-13-4.43-3.94-9.68-6.28-16.75-5-16.85,3-30,12.79-41.38,23.88-6.36,6.2-13.07,16.17-10.43,26.36C411.85,262,420.9,259.9,426.62,260.94Zm-26.84-72.28c13.18.43,24.26-11,25.59-26.31.89-10.17-12.15-26.59-21.06-25.88-19.56,1.56-29.87,12.78-30.88,27.6C372.44,178.47,383.15,188.13,399.78,188.66Z"/><path class="cls-1" d="M921.71,132.68c-20.26-8.36-44.88-4-67-14.29-8.6-4-19.13-1-28.77,0-4.94.47-10.49.53-12.56-4.74s1.76-8.4,6.16-11.58c7.24-5.23,5.62-14.38,7.25-21.91,3.36-15.46,1.87-31.49,5.27-47.08,1.51-6.9-3-12.57-10.23-15-2.68-.92-5-2.54-4.14-5.77.61-2.45,3-3.18,5.27-3.24,7.14-.21,14.67-5,21.18,2.42,3.06,3.5,6.89,1.91,11,.49C867.88,7.44,880.55,7,890.7,17.71c5.67,6,10.83,3.2,16.87,1.42,17.23-5.07,35.55,3.74,35.35,17.6-.15,10.91-2.45,21.94-5,32.64-2.62,11-6.6,21.63-8.28,33-1.15,7.76-3.78,14.74,6,18.77a4.31,4.31,0,0,1,1.43,6.86C933.7,132.14,928.54,131.83,921.71,132.68ZM879.41,36c-.65-10.06-8.8-17.71-14.9-12.67s-14.68,7.09-18.28,15c-2,4.31-6.73,7.74-5.51,13,3.21,13.86,2,28.42.64,41.68-1.86,17.77,12.16,9.55,17.63,13.87,4.64,3.66,8.7-4.63,11-10,5.67-13.31,2.61-27.72,4.72-41.53C875.74,48.59,883.65,43.58,879.41,36Zm46.43,4.71c-1.36-7.87-3.82-14-13.68-9.06-2.47,1.24-18.12,18.12-19.25,20.65-6.26,14.05-1.13,29.82-7.42,44.24-3.65,8.37,5.64,14.09,11.21,18.67,6,4.92,6.14-5.47,10.7-6.38,10-2,3.67-10.86,6.31-16.26C921.58,76.45,920.79,57.81,925.84,40.73Z"/><path class="cls-1" d="M1333.15,258.39c-7.92,13.44,2.85,14.16,11.51,16.33,20,5,30.62,17.67,31.93,38.13,1,14.87-12.77,32.23-27.17,40.25-13,7.23-23.68,18.33-31.83,31.25a4.09,4.09,0,0,0-.09,3.65c2.44,3.51,7.38,7.35-.39,9.74-5.35,1.65-11.32,2.6-15.25-3.87-8.08-13.27-19.74-24.35-23.47-40.31-1.77-7.61-10.05-9.59-15.55-13.26-11.23-7.51-16.41-19.4-24.46-29.16-3.42-4.14-1.87-8.73.6-12.38,3.41-5.05,7.59-1,10.22,1,7.93,5.95,14.25,4.89,20.94-2q18.78-19.41,38.3-38.11c5.48-5.25,6.68-9.81.76-15.4-3.87-3.64-4.47-7.84.38-11.15,4.41-3,7.6-.29,9.86,3.36C1324,243.67,1334,247.51,1333.15,258.39Zm-59.75,68.36c3.66,5.83,7.48,10.28,10,15.93,6.38,14.24,19.85,16.54,32.71,7.09,10-7.33,19-16.51,29.85-22,13.56-6.82,18.2-22.17,8.08-33.61-9.29-10.49-21.24-4.31-31.9-5.22-8.06-.69-14.56,2-21.15,9.72C1292.71,308.44,1288.92,323.23,1273.4,326.75Z"/><path class="cls-1" d="M1209.92,272.16c-13.33.34-22.57-5-28.54-17.45-6.4-13.38-19.65-17.62-32.94-21.69s-24.93-28-19.31-40.4c6.27-13.81,13.55-27.23,24.27-38.37a39.32,39.32,0,0,0,6.52-8.3c5.91-11,10.11-21.91-4.14-30.41a6.18,6.18,0,0,1-2.53-8.16c2-4,5.62-3.48,9.27-2.52,11.67,3.06,20,10.87,27.69,19.5,6.37,7.13,1.66,13.71-2.73,18.26-14.31,14.83-22.83,33.18-32.83,50.64-7.78,13.57-.06,27.47,15.62,25.61,19.85-2.34,41.56-3.87,48.47-29.14.82-3,4.26-5.39,6.66-7.9,5.34-5.58,6.42-10.81.35-16.93-3.06-3.09-5.78-8.47-2.23-12,4-3.9,8.6-1,13,2.11a56,56,0,0,1,19.8,24.23c2.83,6.8,7.52,13.85-7.23,17.74-12.46,3.29-20.58,17.67-29.22,28.47-3,3.79-4.86,8.53-8,12.24-6.95,8.31-12.45,15.76,1.65,22.85,2.74,1.38,5.38,6.49,3.63,10.52C1216,273.72,1212.37,272.17,1209.92,272.16Z"/><path class="cls-1" d="M131.81,428c1.09-28.91,20.47-54.71,46.15-61,12.77-3.12,24.35.29,34.78,7.56,6.74,4.7,4.46,11.23,1,16.45-8,12-12.46,25.28-17.45,38.71-3.9,10.47-11.47,20.19-15.72,31.17-.88,2.28-3.79,4.09-.8,6.8,2.19,2,29.61-.28,31.54-2.46,15.1-17.05,26.23-34.7,15-58.88-2.75-5.92,4.05-10.25,9.13-12.95,5.52-2.93,6.45,2.35,8.2,5.65,17.35,32.71,2.85,66.44-25,81.9-21.26,11.81-52.55,5.7-70.11-10.94C135.51,457.7,132.06,444.07,131.81,428Zm16.55,10.49c1.1,3.83.54,14.76,9.23,16,5.45.77,11.75-7.29,14.87-14.07,1.09-2.37.65-5.65,2.13-7.58,7.93-10.39,7.55-25,17.64-34.21,3.48-3.18,6.77-7.42,3.24-11.42-3.73-4.23-8.76-6.31-15.36-2.89C159.41,395,146.78,410.49,148.36,438.5Z"/><path class="cls-1" d="M279.08,363.9c-9.82,1.92-17.33-1.66-22.09-10.21-6.56-11.77-8.36-23.61-1.47-36.39,8.11-15,20.46-27.77,24.81-44.84C282,266,284.6,257.58,278.66,254c-5.41-3.28-13.82-1.54-19.83,2.71-9.38,6.64-18.18,14.12-24.1,24.14-3.54,6-10.33,12.91,3.53,16.49,4.48,1.16,6.27,8.26,4.83,13.75-2,7.77-9.27,8.88-15.54,10.65s-8.18-3.09-10.73-7.47c-10.44-17.94,2.27-31.48,9.73-45,4.93-8.91,14.13-15.86,22.43-22.42,16.22-12.8,32.76-10.69,48,5.33,9.37,9.89,18.4,20.1,27.61,30.15,2.78,3,6,5.62,10.38,4.54,5-1.22,2.4-5.45,3.29-8.41,1.46-4.83.89-12.77,9.23-12.06,7.39.63,8,6.9,8.44,12.72,1.66,20.73-2.36,25.68-23,30.21-8.53,1.87-8.39,10.21-9.91,16.66C317.45,349.68,303,362.36,279.08,363.9Zm34.5-66c.6-9.29-7.9-12.37-13.33-16.06-5.65-3.84-8.76,3.66-11.68,7.75-6.14,8.6-12,17.41-17.9,26.18-5,7.47-4.5,23.76,1.72,27,8.52,4.47,21.05,4.49,25-2.17C305,327.81,313.12,314.06,313.58,297.89Z"/><path class="cls-1" d="M753.5,60c-7.32,3.52-18.86.83-30,5.13-8.45,3.28-18.79.49-28.3,2.3-4.79.92-7.74,1.92-10.09,6.59-2.78,5.56,2.68,6.52,3.72,9.65,5,15,19.59,16.16,30.33,17.54,13.07,1.69,25.9-6.7,33.85-17.82,5.32-7.45,9.88-7.65,16.5-3.88,8.88,5,1.35,9.82-.75,14.09-11.62,23.53-33,29.93-56.35,27.61-21.54-2.14-36.36-16.38-45-36C660,68.47,660,50.53,666,33.85c5.57-15.46,19-25.67,34.29-30.56a66.46,66.46,0,0,1,45.59,1.56c15.7,6.24,30.66,29.46,28.45,46C772.81,62,764.22,59.73,753.5,60ZM727.77,17.57c-19.86-.09-33.37,4.49-43.26,17.06-7.86,10-6.82,12.38,5.61,15.77,5,1.36,9.4.24,14.22-.23,13.71-1.31,26.95-7.4,41.09-4.25,4.12.92,8.5,1.06,10.2-3.49,1.57-4.2,1.42-9.61-2.43-12.24C744.16,24,734.74,18.18,727.77,17.57Z"/><path class="cls-1" d="M1101,92.09c10.75,14.76-7.83,28.57-5.89,44.92-12.08,3.66-14,18.93-26,22.73-2,.65-4,1.66-6,2.42-44.36,16.77-77-16.11-76.24-58.58.3-17.32,7.5-30.12,16.46-43.14,10.15-14.72,41.75-22.95,66.75-10C1090.17,60.84,1101.09,74.4,1101,92.09Zm-58.2-30.21c-4.7,1.27-17.36,2.4-17,7,1.1,13.06-15,1.41-13.63,11.45.05.35-.35.79-.6,1.15-6.3,9.07-4.37,18.12-3.84,28.73.8,16,6.27,25.27,19.15,31.61,21.32,10.5,42.85-1.46,54.28-26.82C1090.15,95,1069.65,59.11,1042.75,61.88Z"/><path class="cls-1" d="M1352.57,489.55c-.2-18,12-33.77,27.63-39.74,13.17-5,26-11,39.32-15.65,10.48-3.65,11.22-9.67,6.35-18-4.24-7.28-9.33-14.3-10.18-22.86-.35-3.44-1.6-8.87,3.49-10.29,3.8-1.05,6.55,2.46,8.5,5.38,4.18,6.26,7.67,13,12,19.13,5.53,7.76,11.58,13.9,21.57,4.95,4.81-4.31,12.14-3.29,18-7,4.55-2.88,10.39,2.88,10.85,8.38s2.33,14.23-6.16,14.8c-6.6.44-11.8,3.3-17.53,5.16-9.48,3.08-12.4,9.64-7.31,18.55a87.6,87.6,0,0,1,9.73,27.34c.71,3.73.81,8.57-4.08,10.17-4.36,1.43-6-2.86-8.18-5.34-6.12-6.86-6.49-16.34-10.74-24.17-3.62-6.69-6.89-9.67-15.44-8.18A86.43,86.43,0,0,0,1378.85,481c-3.32,3.75-7.41,7.9-4,14.08s8.43,6.37,14.73,5.56c16-2,21.51,2.62,20.89,16-.25,5.5-1.74,8.21-8,7.11-7.83-1.38-15.68-3.52-23.81-.86-1.68.55-4.66-.63-6.11-2C1362.49,511.34,1354.58,500.45,1352.57,489.55Z"/><path class="cls-1" d="M576.06,108.92c1.79,5.53,3.08,16.76,6,17.2,8.85,1.34,18.3-1.77,27.56-2.63,5.22-.48,8.65-8,15.19-3.34,2.69,1.94,9.28-2.15,8.87,4.61-.34,5.54-.86,12.22-7.57,14.35q-26.86,8.55-54,16.31c-10.2,2.9-17.34,11.54-28.43,13.31-8.21,1.31-16.3,2.53-19-5.89-2.4-7.38,3-13.18,11.33-14.77,2.58-.5,5-1.71,7.54-2.52,23.84-7.61,22.82-7.4,15.37-31.19-8.54-27.32-20.5-53.67-24.56-82.3-.52-3.72-1.39-6.2-5.52-5.23-10.5,2.47-21.91,1.38-31.22,8.69A21.08,21.08,0,0,1,486.71,40c-3.8.27-8.16-1.46-10.1-5.31-2.52-5,2-7.46,5-9.49,14.45-9.59,30.66-15.62,47.09-20.49,12.11-3.59,17.44,1.57,20.74,13.88,7.46,27.88,14.32,56,27,82.16C577.93,103.69,577.34,105.58,576.06,108.92Z"/><path class="cls-1" d="M713.13,1396.63c-3.39-18.07,11.64-25.88,22.93-33.87,8.11-5.74,10.11-9.45,7.74-18.74-1.78-7-3.74-14.45-2.71-22.16,1.36-10.25,5.88-16.79,16.5-19.61s18.52,1.8,24.32,9c5.54,6.93,7.53,15.42.51,23.65-2.68,3.15-2.93,7.49-6.61,10.85-16,14.68-15.69,15-6.19,34.77,1.11,2.31,2.32,3.65,4.72,3.66,3.19,0,5.43-1.89,4.78-4.91-2.34-10.78,7.38-15.23,12.17-21.5,5.55-7.27,14.91-2.64,21.81.26,5.55,2.33,1.76,7.35.25,11.44s-4,6.16-7.89,5.39c-3.08-.62-7.38-.75-7-6.09.26-4-2.79-5.51-6-5.61-5.16-.15-3.06,4.33-3.58,6.84-1.62,7.68-2.55,15.5-4.36,23.12-2.24,9.42-.87,17.28,7.28,23.42,2.76,2.08,4.87,5.92,8.9,3.63,3.42-2,6.91-6.33,5.76-9.25-2-5.15-.67-6,3.8-6.68s7.45-.49,8.75,5,4.22,11.56-.46,16.12c-6,5.86-13.71,12.37-21.81,10.82-5.28-1-9.37-9.12-13.59-14.38-2.49-3.1-6-6.21-8.15-2-9.22,17.92-25.44,15-39.7,12.29S713.25,1414.57,713.13,1396.63Zm34.26,23.1c9.43-.27,24.71-8.32,25.25-13.31,1.1-10.18-15.71-36.65-23.28-36.65-9.54,0-26.49,17.47-26.21,27C723.51,1409.44,734.75,1420.08,747.39,1419.73Zm27.21-94.89c-2.54-3.31.58-12.78-9-13.09-7-.24-15.81,12.78-15.49,22.41.23,7,3.39,15,10.43,14C771.22,1346.57,775.19,1337.22,774.6,1324.84Z"/><path class="cls-1" d="M311.79,1139.1c-10.31.52-19.3,9.24-29.43,14.67-13.16,7-25.05,16.42-37.93,24-4.25,2.51-10.63,4.58-13.83-2.08-2.66-5.55-1.07-16.23,1-16.31,8.91-.31,10.27-7.76,14.63-12.1,6.5-6.46,12.36-13.58,18.8-20.11,2.54-2.58,3.86-5,1.6-8s-4.3-.69-6.64.53c-12.83,6.7-26.45,11.78-37.53,21.78-5.41,4.89-14.38,6-19.18.83s-1.74-12.41,3.86-17.48c13.43-12.12,26.64-24.47,40.13-36.51,5.79-5.16,10.19-10.54,10.86-18.85.6-7.57,3.75-9.92,9.68-2.75,2.44,3,6.72,4.4,8,8.5,2.53,7.93,7.74,13.16,13.54,19.29,10.63,11.25,19.16,24.7,30.51,35.72,1.74,1.68,5.67,4.1,3.78,7.63C321.55,1141.82,317.65,1140.72,311.79,1139.1Zm-76-19.66c13.6-6.28,25.45-11.85,37.4-17.21,5-2.22,7-5.35,4-10.28-2.85-4.64-6.29-9.48-12.5-5.12C253,1095,241.8,1103.63,235.75,1119.44Zm64.26,5.4c3.07-7.39-3.8-7.08-7.55-9.35-5.08-3.08-6.93.76-9.34,4.06-4.16,5.69-8.65,11.13-12.89,16.75-1.76,2.33-5.49,4.56-3.12,7.83,2.27,3.12,5.58.31,8.51-.17,6.3-1,11.34-4.31,16.75-7.37C297.35,1133.77,302,1132,300,1124.84Z"/><path class="cls-1" d="M1191.11,1307.14c-31.28-2.48-58.22-42.4-49.3-72.69,2.88-9.81,8.93-15.83,18.44-19.09,3.81-1.31,12.62-.9,9-6.84-3.83-6.23-5.92-17.88-18.52-14.88-5.36,1.27-11.35,11.74-16.2,1.4-4.06-8.67,6.62-9.56,10.93-13.66,13.49-12.79,19.15,1.73,25.07,8.63,17.41,20.31,33.63,41.63,50.27,62.59,5.33,6.72,10.3,14.25,19.49,4.56,1.54-1.62,3.77-2.75,6-1.26a6.35,6.35,0,0,1,2.4,7.07c-2.13,8.24-7.23,15.24-15.21,17-8.15,1.74-12,6.21-15.32,12.8C1212.43,1303.79,1203.83,1308.15,1191.11,1307.14Zm17.62-35.67c.14-19.52-9.15-32-28.29-39.66-6.6-2.65-14.48-6-19.94-.55-7,7-10.42,16.18-4.92,26.45a154.21,154.21,0,0,0,16.49,25.35c8.64,10.51,18,9.15,28.86,5.21C1211,1284.64,1208.21,1276.58,1208.73,1271.47Z"/><path class="cls-1" d="M483.16,1275.37c6.7,15.26-12.49,26.8-16.4,43.47-2.07,8.84-11,18.32,1,26.89,1.79,1.27.34,3.4-.91,4.56-2.92,2.71-6.31,6.1-10.45,4.09-12.09-5.85-25.88-9.13-34.36-20.84-2.18-3-4.23-5.13-8.3-5.63-13.18-1.63-23.55-9-33.45-17.22-4.05-3.36-7.15-7.34-5.29-12.5,2.48-6.9,7.61-2,11.12-1,6.74,1.9,10.83-.27,14.41-5.9,8.27-13,16.95-25.8,25.38-38.73,2.95-4.54,5.91-9.09-.95-13.24-2.67-1.61-2.56-4.65-.53-6.94,1.88-2.11,4.31-2.88,7.15-1.31,4.7,2.6,11.06,6.52,10.77,10.67-1,14.83,6.86,10.15,14.72,8.53C470.37,1247.48,483.21,1257.68,483.16,1275.37Zm-73.33,36.47c3.13,4.35,7.39,5.75,10.55,8.73,10.09,9.47,19.93,6.66,27.62-5.26,6.71-10.4,10.05-22.73,19.57-31.59,5.09-4.74,1.65-11.74.77-17.58-.73-4.89-5.79-5.16-9.5-5.43-9.79-.73-27.7,13.12-33.36,21.52C419,1291.82,420.33,1304.94,409.83,1311.84Z"/><path class="cls-1" d="M546.09,1391.05c-31.59-1.09-48.57-28.41-36.72-59.7,8.21-21.68,20.77-37.54,45.54-39.73,14.81-1.31,25.78,5.92,33.31,17.59,8.22,12.74,7.92,26.88,2,40.61-2.11,4.9-6.84,5.06-11.47,3.22-16.44-6.52-34.4-8.54-50.13-17.19-7.36-4-10.7-.16-8.32,6.52,2.64,7.39-1.84,16.06,8.25,22.67,12.8,8.38,24.17,12.79,36.71,4.35,6.66-4.49,11.42-3.2,14.73,1.62,4.4,6.41-2.42,8.54-6.43,11.81C565.78,1389.2,557.49,1393.07,546.09,1391.05Zm10.36-86.61c-3,.78-5,1.89-7.05,1.77-8.42-.5-16.68,3.41-17.1,10.52-.32,5.46,8.37,8.79,15.24,11.62,8.19,3.38,17.37,3.41,25.07,9,7.95,5.78,9.88-1.76,10-7.63C582.78,1320,565.53,1304.41,556.45,1304.44Z"/><path class="cls-1" d="M1283.92,1227.49c-19.92,2.87-41.35-12.49-50.53-33.25-9.92-22.47-7.89-39.14,6.32-51.71,15.68-13.88,43-12.19,56.78,3.47,4.4,5,3.66,9.56-.79,14-12.5,12.39-21.58,28-35.8,38.75-7,5.33-2.47,7.78,2.56,9.59,28.78,10.35,44.79-1.91,42.84-33.14-.43-6.83,4-8.76,8.49-9.86,5.31-1.32,6.25,3.88,7.34,7.51C1329.49,1200.56,1312.85,1224.92,1283.92,1227.49Zm-44.7-50.77c-.26,3.58-.3,10,3.91,10.72a16,16,0,0,0,15-5.87c6-7.31,12.4-14.34,19-21.15,2.31-2.39,7.35-3.25,5.6-7.64-1.46-3.65-5.17-6.18-9.29-6.85C1256.54,1143.18,1239.6,1158.06,1239.22,1176.72Z"/><path class="cls-1" d="M941.48,1351.81c-.2-33.43,23.64-53.66,53.88-46,6.19,1.58,15,9.13,17.1,17.58,1.79,7.22.72,15.21-9.78,16.93s-13.75-7-13.37-13c.44-6.8-2.88-6.3-6.35-7-10.74-2.23-20.8,4-24.27,14.8-6.09,18.88,4,43.16,21.64,52.12,1.16.59,2.69,1.8,3.54,1.46,5.31-2.13,7.24-9.76,16.36-6.75,4.14,1.36,10.8-7.25,11.94-13.84,1.27-7.31,5.18-13.86,11.36-10.75,5.84,2.93,6.9,13.23,4.18,19.28-8.58,19.11-24.14,29.67-45.34,30.65-10.07.47-32.93-19.71-36.47-31.73C943.28,1366.7,941.2,1357.63,941.48,1351.81Z"/><path class="cls-1" d="M1316.47,1080.55c-.63-8.2-.83-13.41-1.46-18.58-1.67-13.85,4.08-23,17.2-26.93,3.9-1.18,21,7.6,20.94,11.32-.05,4.21.17,9.21-4.51,11.73-3.93,2.13-7.42,1.44-10.77-1.9-1.85-1.84-3.35-6.31-7.26-3.45-2.8,2-2.38,5.6-1.94,8.63,3,20.65,8.52,39.5,33.28,43.62a2.62,2.62,0,0,1,1.81,1.27c5.28,16.22,11.58,4,13.36-.72,3.32-8.79,10-12,16.05-8.35,5.72,3.46,4.74,13.49.37,17.93-11.54,11.74-19.73,25.75-29.52,38.66-3.44,4.54-9,4.1-13.16.93-5-3.75-3.74-8.5-.08-12.71,2.32-2.68,4.93-5.1,7.28-7.75,3.59-4,3.7-7.66-1.08-11.09-13.17-9.44-26.31-18.92-39.31-28.59-6.94-5.16-12.83-5.12-18,2.33-2.12,3.08-5,6.12-8.67,3.34-3.31-2.49-2.09-6.27-.14-9.62C1296.4,1081.18,1299.05,1066.5,1316.47,1080.55Z"/><path class="cls-1" d="M1077.4,1374.44c-8,.07-14.82-1-15.43-9.79-.57-8.24,6.54-6.56,11.41-7.28,16.49-2.41,19.5-9.14,8.79-26.82-5.53-9.12-9.34-18.83-14.08-28.17-3.66-7.2-7.48-10.68-15.26-5.8a24.72,24.72,0,0,1-6.08,2.56c-5,1.5-10.89,1.38-13.27-3-3.06-5.63,3.18-8,6.89-10.71,5.37-3.92,11.48-6,17.8-8.05,9.09-2.91,14.33-1.16,18.89,8.1,8.09,16.41,17.87,32,27,47.87,3.24,5.62,7.26,7.88,13.75,3.94a211.2,211.2,0,0,1,21.12-10.71c2.14-1,4.79-2.73,7.25,0,2.32,2.55.9,5-.09,7.41-2.62,6.27-6.43,12.1-12.38,15.19-16.24,8.43-32.81,16.22-49.35,24C1082.08,1374.27,1079.19,1374.14,1077.4,1374.44Z"/><path class="cls-1" d="M346.08,1278.77c-19,.19-29.16-16.47-42.95-26.89-4.05-3.07-7.51-7.21-11.79-10.4a25.6,25.6,0,0,1-9.85-16.78c-.85-5.29,1.51-9.78,6.59-11.77s6.8,2.53,8.87,5.87c1.87,3,3.37,6.34,5.72,8.9,4.52,4.93,9.26,6.16,14.54.28,9.87-11,19.93-21.82,30.32-32.32,5.24-5.3,7.25-9.65.44-15.12-6.09-4.9-12.9-12.82-7-18.79,6.15-6.23,13.29,2.81,18.52,7.11,15.87,13.08,15.61,17.58,2.26,33.86-10.24,12.49-19.57,25.71-29.63,38.35-4.79,6-2.93,9.74,2.6,13.78,6,4.41,11.59,9.49,17.22,14.42,2,1.72,4.41,3.85,3.22,6.72C353.77,1279.32,350.57,1279.81,346.08,1278.77Z"/><path class="cls-1" d="M395.05,1161.87c-.92,5.43-2.34,10.79-8.67,9.34-5.27-1.22-12.88-.85-12.38-10.24.37-7,3.73-10.15,10.4-10.84C393.88,1149.15,392.14,1157.6,395.05,1161.87Z"/><path class="cls-1" d="M1050.47,1246.26c5.57-.53,11.39,1.6,10.41,8.8-.71,5.2-4.63,11.5-11.08,11.11-6.26-.39-12.2-3.82-10.89-12C1039.82,1248.43,1042.36,1244,1050.47,1246.26Z"/></svg>