<svg id="Layer_1" data-name="Layer 1" xmlns="http://www.w3.org/2000/svg" viewBox="0 0 1425.97 1425.94"><defs><style>.cls-1{fill:#fff;}</style></defs><path class="cls-1" d="M0,737.21V701.56c4.15-28.7,14.88-55.29,26.45-81.57C38.31,593.05,44.18,565.07,43,535.56c-.49-11.85-.17-23.75,0-35.62.53-35.54,11.22-67.49,33.32-95.59,13-16.49,28.42-30.59,42.68-45.83,17.85-19.09,32.73-39.87,42.35-64.37,7.19-18.32,14.77-36.54,24.32-53.81,9.28-16.77,21-31.44,36.51-43,18.89-14.09,40.32-23,61.92-31.65,22.38-8.92,44.19-18.84,62.16-35.28,15.39-14.1,30-29.06,45.29-43.24,26.9-24.92,58.06-40.46,95.22-43.28,19.95-1.51,39.87-.59,59.79-1A181.43,181.43,0,0,0,611,30c23.73-9.5,46.67-21.25,72-26.42,2.87-.59,7.07.79,8.55-3.56h42.78c.8,2,2.41,2.52,4.42,2.93,8.34,1.72,16.71,3.37,24.67,6.51,15.66,6.19,31.43,12.15,46.94,18.69,22.12,9.34,44.9,15,69.06,14.7,16.15-.2,32.32-.22,48.46.2,25,.66,48.7,6.36,71,18.28,21.31,11.41,38.28,27.87,54.95,44.79,22.3,22.64,46.07,43.08,76.28,54.78,18.13,7,36.18,14.29,53.35,23.57,19,10.3,35.44,23.45,47.85,41.57s21.17,37.63,28.84,57.8c11,28.83,26.74,54.29,48.42,76.34,13,13.18,26.41,26,38,40.41,17.56,21.82,29.85,46,34.1,74.06,3.4,22.46,2.25,45,2.22,67.53,0,23.57,3.76,46.2,12.79,68.05,11.75,28.43,24.48,56.55,30.24,87.08v28.52c-4.41,26.14-13.7,50.68-24.17,74.88-8.49,19.62-16.19,39.57-17.93,61.17-1.51,18.72-.7,37.5-.77,56.25-.08,21.24-2.26,42.07-9.93,62.15-10.06,26.33-27.13,47.58-46.8,67.21-20,20-39.92,40.06-53.12,65.54-9.18,17.72-15.51,36.69-24,54.73-9.83,21-21.12,40.83-39.29,56-16.24,13.57-34.92,22.72-54.19,30.89-23.77,10.06-48.41,18.38-68.87,35-17,13.8-32.18,29.47-47.77,44.73-28.25,27.66-61.15,45.14-101.31,47.84-21.83,1.47-43.66.16-65.49,1.08A168.21,168.21,0,0,0,821,1393.71c-24,8.85-46.92,20.63-71.83,27.18-6.36,1.68-13.1,2-19.08,5H697.3c-30.94-6-59.53-18.79-88.4-30.74-21.39-8.85-43.65-12.52-66.71-12.15-12.12.2-24.23,0-36.35,0-34.62.17-66.6-8.25-95.14-28.51-17.16-12.18-31.1-27.82-46.26-42.16C351.18,1299.86,338,1287.28,322,1278c-21.45-12.46-45.24-19.64-67.48-30.31-23.84-11.44-45.17-25.75-60.26-48.31-13.45-20.11-22.58-42.19-31.48-64.43-8.1-20.21-18.73-38.77-33-55.34-15.5-18-33.21-33.94-48.56-52.06-21.6-25.48-34.9-54.45-37.41-88.15-1.38-18.52-.87-37-.85-55.53,0-22.55-3.48-44.28-11.61-65.44-9-23.45-20.53-46-26.63-70.5A29.69,29.69,0,0,0,0,737.21ZM524,90.26a298.26,298.26,0,0,0-42.51,2.3c-22.57,2.88-40.81,13.91-57.16,29.07-17.75,16.47-33,35.51-52.34,50.36-24.17,18.56-51.77,30.46-79.6,42.11-21.55,9-42.09,19.75-57.18,38.57-11.77,14.7-18.48,32-25.23,49.18-12.86,32.73-28.1,63.8-54.11,88.46C145.73,400,136.08,410.13,126.1,420c-17.74,17.48-29.86,37.85-33.23,62.94-2.42,18-1.46,36-1.7,54.08-.39,29.82-4.68,59-15,87.08-6.23,16.87-13.42,33.39-19.78,50.21-8.61,22.78-10.47,45.84-2.61,69.41,4.65,13.93,9.77,27.66,15.72,41.06a256.11,256.11,0,0,1,20.16,75.8c2.36,21,1.16,42.23,1.68,63.36.69,27.5,7.39,53,27.15,73.57,9.05,9.42,17.93,19,27.33,28.07,21.54,20.74,40.74,43.13,52.6,71,7.51,17.66,15,35.35,22.61,52.94a100.76,100.76,0,0,0,26.11,36c15.44,13.56,33.78,21.82,52.5,29.34,36.67,14.74,70.89,33.17,98.24,62.57,8.89,9.56,18.13,18.81,27.61,27.78,13.28,12.57,28.3,22.46,46.45,26.49a182.17,182.17,0,0,0,47.38,3.73c31.21-1.33,62.21-.72,92,10.07,19.6,7.09,38.89,15,58.29,22.67,20.41,8,41.21,12.83,63.15,7.55a243.54,243.54,0,0,0,45.41-16.21c41.53-19.29,84.79-27.52,130.57-24.17a141,141,0,0,0,52.07-5.54c21.71-6.7,37.9-21.41,52.87-37.4,23.36-24.94,48.08-48,79.49-62.57,18.9-8.76,38.12-16.86,57-25.67,24.73-11.54,43.75-29,54.8-54.44,5.67-13,11.37-26,16.67-39.23,11-27.36,25.51-52.38,46.92-73.07,10.59-10.23,20.75-20.91,31.21-31.27,17.67-17.5,30-37.75,33.38-62.87,2.41-18,1.44-36,1.68-54.07.42-32,5.4-63.17,17.15-93,6.31-16.06,13.59-31.74,18.93-48.19,4.94-15.2,7.92-30.52,5.52-46.71-3.2-21.6-11.81-41.33-20.32-61.07a262.38,262.38,0,0,1-19.72-74.46c-2.43-21.28-1.14-42.71-1.7-64.07-.71-27.25-7.68-52.35-26.89-73.05-10.67-11.5-21.56-22.78-33-33.53a214,214,0,0,1-53.53-80.45c-5-13-10.82-25.78-16.48-38.57A101.2,101.2,0,0,0,1179,240.61c-16.33-14.4-36-22.78-55.75-30.81-35.06-14.24-67.69-32.14-94-60.11-9.43-10-19.14-19.83-29.19-29.24-14.4-13.49-30.66-23.55-50.67-27a223.63,223.63,0,0,0-48.17-2.8c-29.09,1.29-57.91,0-85.59-9.92-20-7.19-39.76-15.32-59.61-23.07-20.18-7.88-40.74-12.62-62.45-7.46-14.08,3.34-27.6,8.45-40.79,14.26C611.79,82.53,569.81,95.64,524,90.26Z"/><path class="cls-1" d="M739.92,912.13c0-53.46-.2-106.93.18-160.39.07-9.51-2.17-17.3-7.69-25-11.42-15.93-10.71-12.35-.14-27.33a40.85,40.85,0,0,0,7.84-25.69c-.54-32.07-.23-64.15-.2-96.23,0-8.73,1.11-9.78,9.92-9.8q18.9,0,37.78,0c8,0,9.47,1.51,9.48,9.66q.06,49.9,0,99.8c0,9.75.66,10.41,10.6,10.41H1018c10.18,0,11.14-.76,10.27-11.13-3.4-40.9-16.58-78.77-36.24-114.53-20-36.4-46.24-67.81-77.42-95.08-9.62-8.42-17.76-17.16-17.77-30.92a33.07,33.07,0,0,1,9.5-23.86c6.32-6.51,13.83-11.57,21.55-16.28,4.94-3,8.5-2,10.32,3.82,3.94,12.59,11.46,22.82,21.1,31.61,40,36.45,72,78.84,94.77,128,37.45,81,47.12,164.4,21.43,250.93-21.51,72.41-60.62,133.57-116.08,184.55-9.58,8.81-17.19,19-21.12,31.57-1.77,5.69-5.12,7-10.26,4a110,110,0,0,1-20.66-15.11c-14.63-14-14.2-36.67,1.38-50.52,19.93-17.72,38.77-36.41,55-57.62,32.18-42,54.05-88.57,62.68-141,1-6.31,1.31-12.75,2-19.12.65-6.07-1.84-8.67-8.11-8.53-12.35.28-24.71.09-37.07.09H807.22c-9.38,0-10.14.74-10.14,10.18q0,123.32,0,246.64c0,25.53,6.81,48.72,24.09,68.22,4.34,4.9,3.59,7.95-2.64,10.87-18.94,8.89-39.14,12.88-59.78,15.09-.47.06-1,0-1.42.06-19.83,3-17.39-.21-17.4-16.91Q739.9,992.33,739.92,912.13Z"/><path class="cls-1" d="M686.51,513.67c0,54.18.15,108.35-.17,162.53,0,8,1.49,14.89,6.6,21a68.3,68.3,0,0,1,4,5.9c6.64,9.89,7.31,10.42-.22,19.76-8.45,10.49-10.75,21.73-10.41,34.91.77,29.92.27,59.87.26,89.81,0,10.73-.36,11-11.39,11.06q-17.82,0-35.64,0c-9.28,0-9.78-.48-9.8-9.57q-.08-50.26-.08-100.51c0-9.15-1-10.18-10.27-10.18l-209.57,0c-11.86,0-12.81,1.34-11.53,13.27,6.63,61.65,32,115.18,70.56,163,14.36,17.78,30.55,33.8,47.74,48.86,17.85,15.65,17.59,39-.65,54.29a150.26,150.26,0,0,1-16.77,12c-5.84,3.66-8.6,2.61-10.76-3.68-4.36-12.7-12.11-23-21.87-32-62.57-57.68-103.84-127.74-122.36-211-14.07-63.17-8.31-125.07,12.76-185.78,22.49-64.78,59.7-120,110.31-166.15,9.63-8.79,17.16-19,21.09-31.6,1.84-5.91,5.53-6.53,10.43-3.66,7.82,4.57,15.28,9.7,21.55,16.24,13.57,14.16,12.43,36-2.85,49.48-20.35,18-39.47,37.07-55.85,58.77-35,46.43-57.88,97.86-63.55,156.24-.91,9.36.5,10.92,9.91,10.92q106.2,0,212.42.12c6.86,0,9.21-2.63,9.2-9.29q-.21-122.25-.07-244.49c0-26.78-6.12-51.19-24.4-71.68-4.12-4.62-3-8.05,3.35-10.92,18.81-8.46,38.74-12.58,59.15-14.72.71-.07,1.43,0,2.14-.13,19.82-2.57,16.74.53,16.75,16.11Q686.59,433.13,686.51,513.67Z"/><path class="cls-1" d="M784.34,492.17c20,0,39.92.21,59.87,0,46.18-.56,77.52,35.5,76.18,76-.45,13.51-1.12,27.19,1.29,40.49A48.23,48.23,0,0,0,933.81,633c5.6,6,5.55,9-1.35,12.77-26.61,14.48-53.49,14.63-80.13.07-7-3.82-7.12-7.07-1.68-12.73,10.24-10.66,12.46-24.21,13.54-38.07a170.8,170.8,0,0,0,.12-17.82c-.5-18-13.41-30.65-31.53-30.68-38.73-.09-77.46-.22-116.18,0-7.17.05-9.08-2.87-9-9.3q.36-18.18,0-36.35c-.13-6.49,2.63-8.85,9-8.8C739.19,492.28,761.77,492.17,784.34,492.17Z"/><path class="cls-1" d="M640.58,934.22c-20.42,0-40.85-.35-61.27.07-40.41.84-73.67-33.78-73.2-73.71.36-30.4.05-60.8.08-91.19,0-8.79.93-9.69,9.92-9.72q17.46-.07,34.91,0c10.56,0,11,.43,11.05,10.71q.09,37,.06,74.1c0,23.89,11.51,35.54,35.15,35.55q51.3,0,102.59,0c4.67,0,9.33.34,14,.58,3.72.19,4.7,2.72,4.7,5.86q0,20.65,0,41.32c0,6.05-4.21,6.51-8.86,6.5q-34.55-.06-69.11,0Z"/><path class="cls-1" d="M818.45,906.67c0-6.41.14-12.82,0-19.23-.14-5.15,2.31-7.18,7.24-7.48,31.45-2,39.06-10.17,38.64-41.94-.23-17.11-2.4-33.6-15.51-46.61-4.33-4.3-1.07-7.68,2.86-10.33,13.42-9,28.64-11.08,44.24-10.64,12.41.35,24.51,2.61,35.35,9.4,7.82,4.9,8.23,7.39,2.23,14.15-10.6,12-12.57,26.7-13.23,41.82-.61,14.19,1.19,28.44-1.92,42.57C912,907,885.88,930.9,856.64,933.64c-10.36,1-20.86.51-31.3.65-4.64.06-7-2.15-6.92-7C818.54,920.44,818.45,913.56,818.45,906.67Z"/><path class="cls-1" d="M506.18,608.87c0-14-.06-28,0-42,.27-43.08,31.85-74.58,74.8-74.65,6.65,0,13.3.07,20,0q7.09-.07,7.1,6.88,0,20.31,0,40.61c0,4.67-2.35,7-7.12,6.76-1.18-.07-2.37,0-3.56,0-23.53.07-35.23,11.89-35.24,35.65q0,37,0,74.09c0,9.2-.94,10.12-10.28,10.14q-18.17,0-36.33-.09c-8.22-.05-9.31-1.17-9.33-9.62C506.14,640.69,506.17,624.78,506.18,608.87Z"/><path class="cls-1" d="M739.93,402.77c0-19.69.07-39.39,0-59.08,0-5.62,2.18-8.59,8-8.14,23.51,1.8,46.59,5.59,68.41,15,9.18,4,9.58,6.2,3.15,13.87-14.6,17.4-21.4,37.78-22.21,60.22-.44,12.32-.35,24.67-.09,37,.13,6.57-2.12,9.6-9,9.44-13.28-.3-26.57-.24-39.86,0-6.16.1-8.43-2.54-8.38-8.54C740,442.63,739.93,422.7,739.93,402.77Z"/><path class="cls-1" d="M686.59,1023.37q0,27.44,0,54.88c0,12-.77,12.43-12.57,11.57-21.69-1.59-42.79-5.64-62.92-14.06-10-4.17-10.42-6.53-3.63-14.72,14.67-17.72,21.1-38.48,21.88-61.14.41-11.87.45-23.76.23-35.63-.12-6.47,2.41-8.91,8.86-8.75,12.59.31,25.18.09,37.77.11,9.5,0,10.3.76,10.31,10q0,28.86,0,57.72Z"/><path class="cls-1" d="M719.47,1296.67c-109.12.9-210.92-25.92-304.76-81.65Q278.18,1133.93,201,994.82c-5.88-10.56-11.33-21.38-16.67-32.23-4.1-8.31-.52-13.42,8.85-12.82,13.27.86,26.54,1.91,39.79,3,17.44,1.4,31.54-4.72,42.6-18.25q14-17.1,28.28-33.93c6.17-7.31,11.51-6.83,15.73,1.73,21.51,43.55,48.4,83.27,83,117.54,67.85,67.18,148.54,109.48,243.15,123.79,116.59,17.63,223.69-7.49,320.32-74.92,60.93-42.53,107.35-98,140.52-164.56,6-12,10.32-12.49,18.88-2q13.1,16,26.1,32c10.76,13.34,24.55,19.82,41.75,18.6,13-.91,26.06-2,39.09-2.91,10.68-.75,14.14,4.21,9.54,13.81a580.58,580.58,0,0,1-91.23,137q-92.27,103.11-220.74,154.7A575.89,575.89,0,0,1,719.47,1296.67ZM448.93,1130.39c-.05-7.33,2.14-15-7.85-19-5.42-2.15-6.63-1.3-8.49,3.57a138.65,138.65,0,0,1-21,36.16c-8,10.1-8.19,9.7,3,16.16,4,2.31,5.91,1.64,7.19-2.68,1.9-6.41,5.11-12.22,8.68-17.84.81-1.27,1.65-2.42,3.33-2s1.88,2,1.91,3.39c.09,4,.06,8.08.15,12.12.08,3.84,1.66,5.3,5.4,3.26,3.33-1.82,6.67-3.63,10.1-5.24,1.36-.64,2.8-2.39,4.48-.93,2,1.7.56,3.39-.34,5.08-3.26,6.14-7.72,11.35-12.42,16.41-4.13,4.44.5,6.43,3.07,7,4.73,1,9.37,11.61,13.5,3.48,8-15.7,15.64-31.34,27.62-44.46,1.69-1.86,2.15-3.31,0-5.35-7.22-6.81-13.1-7.73-21.8-3-1,.56-2.07,1.15-3.11,1.71C448.83,1145.59,448.83,1145.59,448.93,1130.39Zm382.55,49a51.91,51.91,0,0,1,3.17,6.2c1.45,4.05,5.56,9.23,2.35,12.1-2.31,2.07-5.92-4-9.28-6a16.47,16.47,0,0,1-3.88-3.12c-4.83-5.4-10.32-6.2-17.21-4-4.83,1.51-5.34,2.93-3.22,7.3,6.28,13,9.07,27,10.77,41.12,1.54,12.85.82,12.66,13.52,9.72,4.83-1.12,5.16-2.88,3.18-6.75A78.53,78.53,0,0,1,824,1214.3c-.24-1.3-1.42-2.79.15-3.88s2.61.41,3.66,1.23c4.47,3.54,8.77,7.31,13.38,10.63,3,2.18,4.66,4.77,4.09,8.4-1,6.57,1.6,8.11,7.47,5.9a21.63,21.63,0,0,1,4.86-1.07c4.79-.63,5.82-2.5,3.5-7.1-6.17-12.19-8.8-25.58-10.78-38.89-2.28-15.39-1.67-15.49-16.83-11.23A9.78,9.78,0,0,0,831.48,1179.41Zm91.26-3c4.53.78,22.39,8.86,23.92,10.77a11.7,11.7,0,0,1,1.71,3.76c2.7,8.48,2.68,8.49,10.63,4.77a29.18,29.18,0,0,1,3.19-1.54c4.44-1.45,4.69-3.43,1.78-7.1-9.07-11.49-14.62-24.95-19.51-38.51-4.56-12.67-4.75-13.12-16.48-5.92-2.76,1.69-3,3-1.13,5.5,2.6,3.38,4.91,7,7.24,10.55.6.91,1.38,2.06.3,3.19s-2.21.4-3.22-.12c-4.22-2.16-8.7-4-12.52-6.68-5.85-4.16-11-3.41-17-.13-4.24,2.34-4.88,3.89-1.88,7.9,8.73,11.66,14.8,24.82,19.26,38.61,3.74,11.56,3.22,11.41,14.28,6.57,5.45-2.39,5.33-4.53,1.82-8.64C929.6,1192.9,926.24,1185.05,922.74,1176.45ZM1110,987.06c-1.77-.16-2.71,1-3.56,2.09-5.39,7.2-10.69,14.48-16.15,21.63-2.25,3-1,4.47,1.64,6.12,13.15,8.09,22.82,19.87,32.52,31.49,7.58,9.1,7.1,9.32,14.32,0,2.91-3.77,4.4-6.55-1.5-8.77-4.76-1.79-6.74-4.83-3-9.61a19.73,19.73,0,0,0,2.61-5c1.81-4.59,4.1-4,7.32-1.22,7.66,6.54,7.74,6.44,14-1.78,1.29-1.7,2.53-3.44,3.91-5.07,2.42-2.85,1.67-4.58-1.75-5.59-16.52-4.89-30.69-14.69-46-22.06C1112.87,988.53,1111.41,987.76,1110,987.06Zm-801,6.88c-17.18-.07-35,16.62-35.16,32.91-.12,13.92,12.27,26.56,26.21,26.74,16.9.23,35.28-17,35.12-33C335.05,1006.44,322.85,994,309,993.94ZM703,1193.47a91.68,91.68,0,0,1-10-.06c-5.62-.62-7.31.76-6.21,6.95a124.18,124.18,0,0,1-.7,45.92c-1.31,6.62-.35,8.7,6.77,8.47,12.79-.42,13,0,11.33-12.67-.62-4.7.73-6,5.31-6.52a30.58,30.58,0,0,0,20.34-10.51c10.26-11.68,5.25-27.11-9.9-30.69C714.33,1193,708.63,1193.93,703,1193.47Zm363-79.2c0-5.52-2.55-10-5.89-14.13-5.61-7-12-13.44-16.62-21.27-6.51-11.14-6.43-11.19-16.19-2.41a4,4,0,0,1-.55.45c-3.32,2.27-2.83,4.38.18,6.53,9.4,6.75,15.71,16.38,23.11,25,3.73,4.35,3.71,8.53-.75,12.37-4.74,4.07-8.87,3.41-12.71-1.48-7-8.94-14.93-17.22-19.85-27.67-.68-1.44-1.76-4.1-3.1-3.2a140.17,140.17,0,0,0-14.41,11.44c-1.83,1.64.37,3,1.58,3.89,9.55,7,16.06,16.71,23.53,25.58,7.09,8.41,13.76,10.42,23.22,7.08C1058.15,1132.67,1065.86,1123.41,1066,1114.27ZM516.8,1196.34c2.46-.37,4.82-.63,7.13-1.1,10.39-2.09,17.47-8.77,18.35-17.23,1-9.1-3.7-15.66-14.43-20.32-6.3-2.74-12.73-5.2-18.9-8.2-5-2.43-7.08-1.32-8.19,4.14-2.86,14-8.85,27-15.81,39.39-5.88,10.48-6.28,10.25,5.22,15,8.23,3.39,8.47,3.43,10.16-5.44,1.24-6.53,3.31-10.71,11-7.21C513,1196.1,515,1196,516.8,1196.34ZM793.09,1243c-.06-9.26,0-9.18-8.69-6.74-3.17.89-6.52,1.14-9.7,2-5.33,1.47-5.07-2.37-5.64-5.56-.6-3.39-.6-6.61,4.08-6.14,8.57.86,10.17-2.7,8.83-10.7-1-6.22-2.11-8.25-8-4.5-1.77,1.12-4.44,3.54-6.24,1.36-1.42-1.74-1.7-5-1.41-7.4.32-2.73,3.34-2.19,5.3-2.34,3.52-.27,7.08,0,10.62-.19,2.33-.12,5.94,2.61,6.32-2.53.48-6.66-2.39-11.74-6.66-11.33-10.37,1-20.73,2.23-31.1,3.29-3.66.37-4.85,1.79-3.66,5.59a131.63,131.63,0,0,1,5.66,50.42c-.34,4.18.84,5.56,5.06,5,9.62-1.3,19.27-2.5,28.94-3.34C791.79,1249.45,794.41,1247.78,793.09,1243Zm220.06-91.45c-.1-10.93-9.75-19.13-21.75-17.19-4,.64-7.88,1.58-11.84,2.23a3.84,3.84,0,0,1-4.24-1.93c-1.13-2-.24-3.69.95-5.21,2.85-3.61,7.14-4.37,11.23-5.56,2.12-.62,6,.85,5.3-3.67-.57-3.83-7.74-10.87-10-9.84-7.58,3.5-14.91,7.43-19.89,14.49-3.85,5.46-4.72,11.37-1.58,17.42s8.12,9,14.89,9.37c4.85.26,9.36-1.4,14-2.08,3.1-.45,6.4-1,7.79,2.84,1.28,3.57-.14,6.52-2.93,8.81-3.85,3.16-8.48,4-13.3,4.22-2.1.09-4.67-.32-3.62,3.31,2.24,7.74,8.12,10.76,15.41,7.67a44.65,44.65,0,0,0,8.76-4.62C1008.82,1167.17,1013,1161.06,1013.15,1151.56Zm-587.16-50c-1.67-1.55-2.49-2.37-3.38-3.11-10.28-8.58-10.25-8.53-20.82-.47-1.89,1.45-4.1,4.54-6.61,2.12-2.24-2.15.22-4.85,1.32-7.06,5.51-11.16,5.55-11.14-3.92-19.11-1.09-.92-2.12-1.91-3.22-2.81-3.73-3-5.81-2.31-6.54,2.62-1.15,7.75-2.69,15.43-3.84,23.18a29.15,29.15,0,0,1-9.66,18.39c-10.76,9.56-10.49,9.58.71,19.1,4.32,3.67,6.92,4.08,9.4-1.73,4.21-9.86,11.37-16.43,21.78-20C409.45,1109.84,417.21,1105.58,426,1101.58Zm158.48,114.81c-.07,16.66,11.76,28.38,28.58,30.38,7.93.94,9.75-2.22,11-8.58.83-4.27-.68-4.93-4.38-4.71-16.44,1-23.5-9-17.87-25.14,3.76-10.74,12.27-14.31,22.56-9.68,2.34,1,5.14,5,7.5,0,2.47-5.29.9-11-3.25-12.54C605.45,1177.52,584.57,1191.85,584.47,1216.39Zm532.68-143.29c-2.36-3.93-5.08-7.52-8.81-9.33-3.15-1.53-3.6,2.84-5.22,4.57a73.33,73.33,0,0,0-5.76,7.23c-1.86,2.58-3.6,3.4-6.21.75-6.83-6.92-13.83-13.68-20.74-20.51-3.43-3.39-4.89-11-9.3-10.3-4.18.65-7.52,6.62-11.23,10.26-.17.16-.3.37-.48.53-2.47,2.28-1.66,3.86.88,5.52a138.52,138.52,0,0,1,37.23,35.73c2.3,3.22,3.86,3.39,6.5.55,6.79-7.28,13.78-14.39,20.65-21.61A31.9,31.9,0,0,0,1117.15,1073.1Zm-778.52,32.62c3.56-1.68,7.43-4,9.39-7.68,1.83-3.45-2.53-4.42-4.39-6.2a68.4,68.4,0,0,0-7.26-5.72c-2.59-1.89-3.39-3.69-.64-6.25,7.28-6.79,14-14.22,21.74-20.47,11.45-9.27,11.61-8.81.81-19.15-3.53-3.36-5.42-3.16-8.26.81a135.11,135.11,0,0,1-34.83,34.15c-3.63,2.44-4.46,4.23-1,7.54,7,6.77,13.72,13.79,20.55,20.72C335.71,1104.49,336.62,1105.61,338.63,1105.72Zm219.72,127.56c3.65-.36,3.38-3.06,3.61-5.33,1.43-13.82,5.79-26.88,11.1-39.54,5.86-14,6.27-13.73-8.79-17.66-3.84-1-5.62-.45-6.18,3.88a141.42,141.42,0,0,1-15.3,48.47c-.92,1.75-2.09,3.82.38,4.83C548.2,1230,553.41,1231.57,558.35,1233.28Zm344.5-14-3-5.17c-6.67-11.58-10.89-24.18-14.17-37-3.77-14.72-3.29-14.72-17.58-9.39-4.06,1.51-5.33,3-2.68,7.06,7.26,11,10.48,23.75,14.54,36.09,1.17,3.56,1.38,7.43,2,11.17.38,2.27.3,5.64,3.84,4.2C891.4,1223.93,898,1223.64,902.85,1219.23Z"/><path class="cls-1" d="M133.62,791.52c-.46-3.92,1.26-5,4.12-4.92,29.21,1.36,56.72-7.6,84.7-13.79,13.57-3,26.1-8.56,38.38-14.73,5.42-2.72,7.5-1.61,8.69,4.21q3.53,17.07,8,33.92c1.4,5.32-.25,6.79-5.41,6.71a199.66,199.66,0,0,0-53.53,6.63c-5.67,1.47-6.89,3.55-4.48,8.87,3.51,7.77,6.53,15.78,9.55,23.76,1.45,3.83,3.56,4.71,7.65,3.92A172,172,0,0,0,278,829.37c5-2.61,7.23-1.67,8.43,3.73,2.57,11.58,5.25,23.13,8.22,34.61,1.31,5.08,0,6.65-5.32,6.82A310.61,310.61,0,0,0,167,903.35c-4.21,1.95-6.38,1.64-7.48-3.46-2.59-12-5.58-24-8.58-36-1.1-4.4.16-6,4.78-6,11.63-.19,23.26-.44,34.8-2.21,5.57-.85,7.37-3,4.84-8.59-3.51-7.77-6.61-15.74-9.54-23.75-1.57-4.32-3.72-5.25-8.06-3.69a265.43,265.43,0,0,0-28.05,12.09c-4.32,2.13-6.25,1.43-7.33-3.59C139.7,815.64,136.47,803.25,133.62,791.52Z"/><path class="cls-1" d="M516.22,307.59c0,2-1.61,2.72-3,3.64-10.25,6.85-20.56,13.62-30.7,20.63-4.6,3.17-6.43,1.6-8.06-3.15a184.08,184.08,0,0,0-24.77-47.8c-3.08-4.29-5.29-5.38-9.39-1.39-6.11,6-12.41,11.77-19,17.18-4,3.24-3.34,5.78-.94,9.59a175.33,175.33,0,0,0,31.58,37.41c4.3,3.86,3.88,6.17-.73,9.12-10,6.4-19.89,12.93-29.6,19.74-4.37,3.08-6.4,2.41-8.15-2.61-11.4-32.77-32.44-59.82-52.62-87.3-4.73-6.44-10.95-11.85-16.89-17.3-4.11-3.77-3.18-5.92,1-8.6q15.26-9.83,30.19-20.14c4.19-2.89,6.22-1.82,7.8,2.67a197.9,197.9,0,0,0,13.13,29.91c4.21,7.68,4.93,7.83,11.23,2.25,5.68-5,11-10.48,17-15.15,5.15-4,4.61-7.5.53-11.66-6.31-6.44-12.19-13.34-18.84-19.39-4.86-4.41-4.2-6.76,1-10,9.64-6,19.08-12.42,28.37-19,4.55-3.21,6.55-2.61,8.68,2.71,15.91,39.67,39.32,74.44,69.5,104.67C515.82,305.92,516.24,306.55,516.22,307.59Z"/><path class="cls-1" d="M1234.53,880.76c-13.31-.53-25.18-10.87-33.52-25.56-3.32-5.85-6.54-7.05-12.89-6-15.5,2.48-30.56,6.57-45.65,10.64-6.49,1.74-7.52.75-6.1-6,2.48-11.82,5.23-23.58,7.45-35.45,1.09-5.83,3.61-7,9.32-5.83,10.43,2.13,21,3.32,31.8,2.31,8.21-.76,5.45-7,6.34-11.23,1-4.92-3-5-6.31-5.48-9.91-1.45-19.89-1.18-29.85-1.12-4.12,0-6.47-.77-5.36-5.64,2.78-12.25,5.53-24.51,8-36.83.91-4.6,2.68-5.34,6.84-3.46,39.41,17.82,80.88,26.49,124,27.22,4.17.07,5.65,1.42,4.75,5.53-4.78,21.76-8.81,43.7-14.43,65.24C1273.76,869,1257.71,880.94,1234.53,880.76Zm-9-74.18c-2.5-.34-4,.53-5,3-4.54,12.08,3.93,30,16.2,34.11,7,2.33,12.12.24,15.32-6.26,3.09-6.27,3.49-13.24,5.08-19.89.58-2.45-.75-4.06-3.24-4.61Z"/><path class="cls-1" d="M208.25,475.59c19.09.93,31.27,11.87,38.24,28.43,3.35,8,7.5,10.12,15.72,9.81,14.76-.55,29.29-2.72,43.89-4.52,7-.87,7.84.08,5.51,6.79-4,11.41-8.28,22.71-12,34.19-1.7,5.23-3.75,5.84-8.69,3.49-10.24-4.87-21.31-5.93-32.63-5.58-7.71.24-6.32,6.39-7.57,10.71-1.39,4.83,2.58,5.21,5.8,6.08,9.65,2.63,19.55,3.84,29.43,5,5.18.62,5.86,2.64,4.26,7-4.15,11.34-8.27,22.7-12.1,34.15-1.71,5.1-3.94,5.63-8.26,2.69-28.5-19.43-61.36-28.35-93.75-38.25-7.63-2.33-15.83-3-23.83-3.85-5-.54-6.92-2.09-5.07-7.22,7.32-20.28,14.21-40.73,21.84-60.89C175.54,486.43,191.48,475.46,208.25,475.59Zm16.14,61.81c-.19-10.76-4-19.46-14.23-24.27-6.56-3.09-11.36-1.59-15.31,4.37s-5.28,12.64-7.6,19.08c-1.22,3.38,1.32,4.58,3.94,5.52,6.48,2.31,12.94,4.67,19.42,7,11.46,4.07,13.06,2.95,13.77-9.53C224.42,538.83,224.39,538.12,224.39,537.4Z"/><path class="cls-1" d="M1270.89,551.84c-.47,27.46-13.28,46.19-36.62,57.37-22.49,10.77-45.77,14.49-69.1,2.1-15-8-24.35-20.9-29.71-36.69s-10.25-32-15.37-48.07c-1.2-3.76-2-7.31,3.77-7.4,28.28-.46,54.12-11.18,80.64-19.08,14.22-4.23,27.25-10.9,40-18.35,3-1.75,5.9-4,7.53,1.39,5.78,19.28,13,38.13,17.67,57.74C1270.59,544.73,1270.57,548.84,1270.89,551.84Zm-79.84,32.89a89.17,89.17,0,0,0,29.47-7.68c24.34-10.89,23.87-26.75,17.24-45.33-1-3-2.75-4.13-6-3.12q-34.5,10.85-69.06,21.53c-2.34.72-3.67,1.71-3.71,4.34C1158.8,570.42,1173.42,584.91,1191.05,584.73Z"/><path class="cls-1" d="M289.19,347.47c37.42.11,74.21,35.26,74,70.79a62.42,62.42,0,0,1-11.29,35.37c-9.91,14.49-20.4,28.58-30.42,43-2.94,4.22-5,4.57-8.6.56-28.74-31.66-63-55.8-101.77-73.58-3.42-1.56-6.25-2.89-3.06-7.12,12.54-16.67,23-34.9,37.34-50.18C257.08,353.79,271.87,347.41,289.19,347.47Zm43.53,74.43c.38-5.52-2.31-11-6.15-16-6.17-8-14.15-14-22.75-19.13-20.43-12.19-35.74-8.36-48.26,11.65-2.13,3.4-1.68,5.47,1.4,7.68q28.88,20.81,57.66,41.73c2.08,1.51,4.31,2.67,6.25.26C326.82,440.69,332.93,433.28,332.72,421.9Z"/><path class="cls-1" d="M748.12,270.61c-9.52-.62-25.87-1.78-42.23-2.69-5.32-.29-6.42-2.24-4.74-7.26,11-32.74,10.56-66.87,11.61-100.75.25-8.21-1.58-16.52-2.89-24.72-.72-4.47.42-6.14,5-5.81,18.24,1.33,36.59,1.71,54.73,3.87,33.36,4,55.19,29.38,55.75,63.18.22,13.47-1.53,26.56-7.19,38.81C806.85,259.81,784.27,272.4,748.12,270.61Zm42-72a60.84,60.84,0,0,0-1.56-17c-3.46-14-21.74-25-35.82-21.55-2.78.67-3.59,2.74-3.77,5.33q-2.5,35.55-5.06,71.08c-.16,2.21-.06,4.15,2.42,5.3,11.24,5.2,30.28-.76,36.71-11.63C788.76,220.42,789.78,209.59,790.08,198.61Z"/><path class="cls-1" d="M272.69,646.43c-.32,6.64-.71,13.28-.94,19.92-.16,4.68-2.1,6.23-6.82,5.07a151,151,0,0,0-23.2-3.56c-4.89-.41-7.13,1.06-6.49,6.33,1.15,9.42,2.15,18.87,2.88,28.33.37,4.85,2.56,6.74,7.28,6.34,6.14-.51,12.31-.73,18.45-1.31,3.93-.38,5.83.83,5.51,5.05-.77,10.42-1.38,20.85-2.09,31.27-.46,6.75-4.45,4.47-8,3-31.46-13.38-64.78-19.65-98.23-25.15-8.09-1.33-16.59-.55-24.88-.1-5,.27-6.81-1.08-6.48-6.27,1.43-22.5,2.73-45,3.76-67.55.24-5.24,3.46-5.44,7.1-5.81,27.15-2.76,54.28-5.74,81.46-8.21a219.41,219.41,0,0,0,45.16-9.43c5.4-1.68,7-.22,6.58,5.06-.44,5.68-.58,11.38-.85,17.07ZM159.08,683.88c-1.13,5,.16,7.27,4.8,8.22,13.67,2.82,27.24,6.09,40.85,9.16,4.34,1,6.28-.59,5.74-5.2-.76-6.58-1.54-13.18-1.9-19.8-.27-4.83-2.45-5.9-6.93-5.33-10.82,1.37-21.66,2.8-32.53,3.32C161.84,674.6,157.56,676.5,159.08,683.88Z"/><path class="cls-1" d="M1156.22,689c-.61-13-1.1-26.09-1.87-39.11-.3-5.1.79-7.84,6.68-6.4,19.35,4.75,39,4.63,58.73,3.58,22.73-1.2,45.57-1.31,67.45-8.86,4-1.39,5.76.11,5.93,4.22q1.66,41.26,3.43,82.53c.11,2.57-.26,4.71-3.52,5.08-8,.89-16,1.8-24,2.91-5.94.83-6.43-2.17-5.15-6.71,3.65-13,4.12-26.1,2.95-39.48-.45-5.08-2.31-6.66-7.07-6.16a103.21,103.21,0,0,1-12.79.68c-5.39-.1-6.12,2.55-4.48,6.78,2.48,6.39,4.85,12.85,7.71,19.08,2.11,4.62,2,7.08-4,7.19-9,.18-18,.61-27,1.14-4.69.27-7.17-.59-6.22-6.29,1.17-7,.1-14.19-.55-21.3-.35-4-2-5.4-5.9-5.13-5.21.36-10.44.59-15.65.53-4.89-.06-6.49,1.87-6.41,6.86A134.19,134.19,0,0,0,1191,730c1.85,5.67.35,7.43-5.34,7-7.33-.61-14.69-1.09-22-1.24-4.4-.1-5.71-2.1-5.68-6.18.13-13.52,0-27,0-40.56Z"/><path class="cls-1" d="M614.58,272c.73,3.92-1.44,4.93-3.79,5.71q-38.81,12.89-77.6,25.76c-4.84,1.61-6.32-.46-6.6-5.06-2.1-34.68-15.32-66.3-27.54-98.14-2.86-7.45-7.45-14.28-11.6-21.18-2.49-4.15-1.94-6.23,2.82-7.77q38.21-12.44,76.27-25.25c4.38-1.48,6.55-.48,8,3.87,2.2,6.77,4.81,13.41,7.28,20.09,1.45,3.9.5,5.66-4,5.71-13.77.14-26.38,5.33-39.25,9.38-3.8,1.2-4.75,3.47-3.57,7q2.22,6.75,4.39,13.51c1.33,4.17,3.65,5.34,7.37,2.52,5.66-4.31,11.59-8.32,16.91-13,4.46-3.93,6.43-2.51,8,2.31,2.72,8.59,5.3,17.23,8.34,25.7,1.81,5,.08,6.93-4.78,7.55-6.63.85-12.68,3.79-19,5.74-4.34,1.33-5.68,3.71-4.1,8,9.25,24.89,1.43,21.69,26.88,13.89a79.39,79.39,0,0,0,22.83-11.43c2.54-1.81,5-2.49,6.08,1.22C610.29,256.28,612.49,264.53,614.58,272Z"/><path class="cls-1" d="M968.35,339.91c-19-.7-33.69-8.75-46.78-20.45-3.87-3.46-7.12-7.67-12-9.89-2.38-1.07-2.92-2.68-1.53-5.14,4.78-8.47,9.26-17.1,14.12-25.52,3-5.1,5.37-3.33,7.22,1.06,4.11,9.79,9.7,18.47,18.71,24.53,5.23,3.52,10.86,5.9,17.32,5.38,10.94-.89,16.37-11.14,10.94-20.66-3.92-6.86-9.67-12.31-14.44-18.51-8-10.37-12.59-21.86-10.35-35.14,3.85-22.72,24.79-35.72,48-30.17,14.87,3.54,27.56,11.17,39.45,20.48,11,8.61,11.09,8.5,4.21,21.16-2.27,4.17-4.52,8.35-6.89,12.46-3.5,6.07-5,6.13-8.73.45a93.09,93.09,0,0,0-14-17,29.4,29.4,0,0,0-15.65-7.82c-4.23-.67-8.14.34-10.68,4.12-2.37,3.51-1.86,7.29-.08,10.85,2.79,5.59,7.17,10,11.25,14.64,6.35,7.19,11.74,15,14,24.46C1018.63,315.29,995,341.73,968.35,339.91Z"/><path class="cls-1" d="M1119.83,313.74c17.58.28,36,12.61,50.59,32,2,2.65,3.49,6,6,7.85,7,5.13,4.08,8.83-.81,13.1s-9.3,8.82-13.79,13.39c-4,4.09-6.45,3.12-7.74-2.14a47.81,47.81,0,0,0-8-17.32c-10.77-14.52-27.3-18.78-43.61-11.09a63.48,63.48,0,0,0-24.83,20.81c-14.69,20.59-8.38,43.69,14.76,54.92,12,5.84,12,5.84,1.61,14.16-4.45,3.55-9,7-13.36,10.64-2.73,2.28-4.85,2.57-6.94-.78s-5.54-5.82-8.61-8.42c-37.13-31.48-35.66-81.82,3.25-111.31C1083,318.49,1096.28,313.7,1119.83,313.74Z"/><path class="cls-1" d="M868.57,295.11l-3-1c-11.48-3.71-22.91-7.62-34.47-11.07-5.59-1.67-5.82-4-2.94-8.61,18.64-29.55,26.65-63.09,35.51-96.24,2-7.49,2.09-15.5,2.83-23.3.42-4.35,2-5.84,6.48-4.34,11.67,3.93,23.38,7.74,35.18,11.25,5.51,1.63,5.22,4.21,2.65,8.27-19,30.17-27.24,64.35-36,98.27-1.76,6.81-1.71,14.09-2.47,21.16C872,292.18,871.88,294.84,868.57,295.11Z"/><path class="cls-1" d="M664.24,142.46c-1,40.72,1.88,80.95,15.92,119.64,1.81,5,.07,6.49-4.35,7-12,1.41-24,2.75-36,4.3-4.88.63-6.83-.53-6.35-6a305.89,305.89,0,0,0-15-124.62c-1.71-5.13-.48-6.81,4.64-7.35,11.32-1.19,22.6-2.82,33.9-4.14,8.24-1,8.31-.81,7.54,7.66C664.4,140.09,664.33,141.28,664.24,142.46Z"/><path class="cls-1" d="M1228,438.35c0,2.85-1.78,3.42-3.72,3.92-31.14,7.89-57,26.4-84.2,42.14-9.47,5.48-17.51,13-25.28,20.67-3.9,3.84-6.36,4-9.14-1.05q-8.55-15.58-17.66-30.86c-2.47-4.17-2.49-6.56,2.8-8.26,40.92-13.19,77.14-34.65,109.37-63,2.75-2.42,5-3.74,7.32.29,6.5,11.29,13,22.56,19.55,33.85A18,18,0,0,1,1228,438.35Z"/><path class="cls-1" d="M933,207.57c-12.9-7.55-15.59-17.95-7.82-28.34,4.31-5.76,10-7.87,16.89-6.2,6.68,1.62,11.25,5.81,13,12.67,3.19,12.27-10.49,35.78-28.68,32.64-2.74-.48-6.37-.09-6.42-4s3.37-3.05,5.89-3.32S931.06,210.2,933,207.57Z"/><path class="cls-1" d="M1111.77,1005.66c4.81,2.57,10.79,4.53,15,8.42,3.29,3-1.53,6.67-3.17,9.73-1.81,3.37-3.53.31-4.84-1-3.57-3.48-7-7.14-10.44-10.69-1.35-1.38-1.76-2.71-.34-4.28C1108.9,1006.85,1109.5,1005.4,1111.77,1005.66Z"/><path class="cls-1" d="M321.59,1018.51a14.93,14.93,0,0,1-4.48,9.38c-4.41,4.71-9.37,8.62-15.56,10.75a9.77,9.77,0,0,1-11.46-3.14c-3.11-3.65-3.45-7.79-1-11.79,4.52-7.25,10.87-12.51,19.1-14.88A10.23,10.23,0,0,1,321.59,1018.51Z"/><path class="cls-1" d="M704.23,1215.53c.45-4.59-1.7-10.34,6.28-9,3.83.63,8,.38,8.13,5.76.15,4.9-6.5,11.23-11.57,10.61C701.57,1222.2,705.59,1217.5,704.23,1215.53Z"/><path class="cls-1" d="M514.43,1182.86c-2-.32-5.06.24-5.24-3.56s5.53-13,7.59-12.29c3.87,1.36,8.64,2.21,9.39,7.36C526.78,1178.48,520.78,1182.79,514.43,1182.86Z"/></svg>