<svg id="Layer_1" data-name="Layer 1" xmlns="http://www.w3.org/2000/svg" viewBox="0 0 1738.01 1425.94"><defs><style>.cls-1{fill:#73315b;}</style></defs><path class="cls-1" d="M1379.66,1018.17v302.22a130.52,130.52,0,0,0,.76,15.54c1,8.29,5.82,13.56,12.53,17.12a130.38,130.38,0,0,0,25.79,9.85c10.12,2.88,20.19,6.19,26.66,15.69,8,11.73,8.86,32.17-6.68,41.87-6,3.74-12.8,4.83-19.74,5-16,.52-31.76-1.74-47.59-3.23-.67-.07-1.34-.15-2-.18-33.71-1.21-67.44-1.55-101.15-.71a405,405,0,0,0-41,3c-11,1.39-22.4,2.16-33.6,1-12.42-1.35-21.83-7.72-26.57-19.43-4.61-11.38-2.78-22.48,4.14-32.52,4.63-6.72,12.13-8.73,19.56-10.29,6.38-1.34,12.87-2.35,19.36-3.06,13.75-1.51,21.71-9.56,25.63-22.21,4.14-13.36,3.42-27.19,3.54-40.92,0-3-.53-6-.53-9q-.06-129.45,0-258.91c0-7.45-.55-8-8-7.56-1.18.07-2.35,0-3.53,0q-85.64,0-171.26,0c-10.19,0-11-2.53-11,11.15q.16,138.27,0,276.54c0,8-1.24,15.88-.35,24,.71,6.45,3,10.8,8.18,14,8.94,5.5,18.87,8.7,28.78,11.8,8.5,2.66,17.3,5,24.59,10,17.89,12.35,18.22,23.25,9,42.14-4.85,10-14.41,13.47-24.9,14.41-19.33,1.75-38.4-1.62-57.58-3-9-.67-18.07-.88-27.08-1.16-20.63-.65-41.3-.46-62-.07-15.4.29-30.83,1-46.17,2.34-10.82,1-21.58,2-32.45,2a49.11,49.11,0,0,1-16.78-2.9c-9.07-3.28-14.25-10.61-15.81-19.44-2.38-13.54-.69-26.06,13.31-33.93,5.46-3.07,11.81-4.61,17.82-6.67,6.65-2.29,13.57-3.64,20.13-6.3,11.44-4.64,18.28-12.41,19.34-25.11,1.51-17.92.57-35.82.56-53.75q-.23-286.35-.09-572.71c0-4.68-.16-9.42-1.94-13.87-3.49-8.65-11.4-10.54-19.24-11.56a191,191,0,0,0-28.1-1.72c-7.38.14-14.78,0-22.15-.32-3.61-.14-5.57,1.23-5.47,4.81.19,7-.83,14-.82,21.07q.26,188.64.19,377.28c0,3.93-1.37,7.59-1.65,11.42-.69,9.45,1.08,18.8,3.16,27.83,1.91,8.32,9.29,13,17,15.95,7.5,2.92,15.18,5.42,22.93,7.58,5.56,1.54,10.67,4,15.81,6.42s8.08,7.23,10.07,12.17c7.41,18.48,1.11,40.24-23.68,43.16-17.9,2.11-35.2-1.62-52.75-3.19-5.65-.51-11.43-1.09-17-1.07-19.12.07-38.23-2.15-57.35-.54a38,38,0,0,1-4.52.21c-22-.72-43.78,2-65.67,3.12-11,.58-22,2.41-33.13.94-18.38-2.43-27.79-13.75-28.63-31.37-.82-17.08,10.16-29.44,27.16-31.71,7.64-1,15.3-1.6,22.9-3.18,10.86-2.26,17.67-8.39,20.76-18.81a75.83,75.83,0,0,0,3.35-21.79Q684.6,952,684.7,806.38c0-3.79-.78-6-5.29-5.91-14.43.28-28.87.35-43.31.34q-70,0-140-.19c-3.71,0-5.45,1.12-5.44,5.23q.22,55.65.17,111.31.06,85.89,0,171.77c0,7.34-.72,14.63-.5,22,.29,9.68,5.86,14.17,13.21,17.66,13.33,6.32,27.8,9.74,41.31,15.57,11.55,5,20.38,13.3,21.46,26.36,1.57,18.76-11.09,32.12-30.08,34-11.62,1.13-23.1-.44-34.65-.8s-23.51-.92-35-2.14c-14.28-1.51-28.43-.77-42.62-1.23-25.62-.83-51.16.71-76.66,3.09-14.37,1.35-28.79,2.08-43.23.91-16.26-1.31-25.89-12.34-26.36-28.62-.52-18,9.22-26.13,23.4-31.56,10.79-4.12,22.07-6.8,32.74-11.38,8.89-3.81,14.25-9.79,15.05-19.48,1.31-15.71,2.49-31.42.52-47.18a44.31,44.31,0,0,1-.13-5.53q0-287.37,0-574.73c0-4-.24-8.06-.51-12.07-.47-6.84-5.06-11.32-11.69-13.24-14.09-4.08-28.43-4.25-42.9-4.21-53.73.12-107.46,0-161.19,0-2.34,0-4.68.35-7,.5-1.55.09-3.11,0-3.9-1.62s.1-3,1.26-4c18.38-16.46,35.34-34.4,53.62-51,12.91-11.72,24.45-25,37.38-36.67,39.23-35.5,76.05-73.44,113.91-110.34,32.92-32.08,66.56-63.43,99.85-95.14,22.72-21.65,44.54-44.22,67.39-65.71q38.71-36.37,76.6-73.56c6.08-6,12.41-11.76,18.83-17.41C593.46-.79,594.75-.29,597,2,615.19,20.08,633,38.61,652.14,55.7c2.13,1.89,4.1,4,6.16,5.94,33.31,31.91,66.83,63.61,99.88,95.8,23.56,22.94,47.7,45.27,71.11,68.37,37.15,36.65,74.6,73,111.52,109.9,8.41,8.41,17.6,16,26.58,23.85,4.87,4.23,8.7,9.31,12.82,14.17,2.2,2.61,4.32,3.14,7.15.42,18.64-17.89,37.57-35.48,56.07-53.52,25.71-25.09,51.1-50.5,76.67-75.73,7.88-7.78,15.91-15.42,23.86-23.13,2-2,3.87-2.92,6.36-.32,22.56,23.49,46.43,45.65,69.79,68.33,22.63,22,44.73,44.54,68.06,65.76,37,33.65,71.92,69.45,108.26,103.77,13.56,12.79,26.35,26.35,40,39,26.79,24.71,51.69,51.33,77.77,76.75,19.71,19.21,39,38.85,59.39,57.36,11.56,10.52,22.53,21.56,33.56,32.58,2.11,2.1,4.79,3.64,7.2,5.45,1.28,1,2.31,2.1,1.7,3.83s-2.19,2.27-4,2.21c-60.08-1.73-120.18-.36-180.26-.57-7.08,0-14.28,2-21.22,3.91-8.24,2.23-16.59,4.13-24.67,7-3.42,1.22-4.93,3.12-5,6.52-.26,8.21-1.26,16.36-1.25,24.62Q1379.76,868.07,1379.66,1018.17ZM797,779.16c-1.42-74.53,1.94-164.67-1.38-254.78-.55-14.76-.42-29.56.07-44.32.21-6.61.62-13.41,3.18-19.74,5.36-13.28,16.3-20.07,29.08-24.41,17.28-5.86,35.16-8,53.37-8.27,8.23-.14,16.3,1.41,24.43,1.49,30.36.28,60.72.12,91.08.13,1.31,0,2.84.35,3.65-1,1-1.63-.17-2.93-1.19-4-4.38-4.64-8.66-9.37-13.28-13.76-14.72-14-29.65-27.74-44.34-41.74q-28.24-26.93-56.25-54.09c-31.69-30.71-63.09-61.73-95.19-92-17.33-16.36-34.06-33.35-51.21-49.9-25.36-24.46-51-48.63-76.25-73.21-22.23-21.64-45.52-42.21-66.61-65-2.75-3-4.78-2-7.13.37q-21,21-42.25,41.77c-25,24.33-50.06,48.62-75.7,72.32-23.65,21.86-46.33,44.79-69.3,67.39-35.42,34.83-69.89,70.63-106.52,104.25-24,22-47.13,44.94-70,68.13-11.66,11.83-23.26,23.74-36,34.48-1.38,1.16-3.11,2.54-2.34,4.62.85,2.31,3.12,1.61,4.84,1.4,9.71-1.15,19.4-.23,29.11,0,36.89.83,73.8-1.33,110.68,1.13,8,.53,15.89,1.89,22.74,5.81,9,5.18,16.55,12,19.67,22.81,3.37,11.63,4,23.38,4,35.35q-.09,275.52,0,551c0,14.4,1.13,28.77,1.13,43.19,0,10.27-.07,20.5-1.81,30.55-2.66,15.37-8.76,28.74-23.52,36.67-12.39,6.66-25.64,10.61-39.17,13.92-2,.49-5.77-.62-5.26,2.88.39,2.76,3.8,1.91,6.06,2,.84,0,1.68-.11,2.52-.13,14.59-.3,29.18-.49,43.76-.94,9.87-.3,19.8-.5,29.59-1.4,17.62-1.62,35.23-1.28,52.78-.6,16.86.66,33.75,1.74,50.57,3,11.52.87,23.18-1.42,34.55,1.75,2,.57,4.17.3,4.84-2.27.62-2.36-1.09-3.31-2.87-4a35.19,35.19,0,0,0-4.74-1.69,201.28,201.28,0,0,1-33.13-11.75c-10.72-4.8-21.25-10.34-26.42-22a71,71,0,0,1-5.92-28.91q0-142.54.08-285.09c0-6-.16-12.09,0-18.13.44-16.77,7.6-25.82,23.61-29.95a52,52,0,0,1,13-1.21q92.1.06,184.19,0c16.9,0,27.76,8.42,30.84,24.93a72.83,72.83,0,0,1,1.21,12.51c.88,88.1-1.7,176.22,1.37,264.31.21,6-1.27,12-1.29,18a148.8,148.8,0,0,1-3.36,32.42c-5.71,25.45-20.88,40.1-46.7,43.88-6,.87-12,1.41-17.94,2.27-2,.29-5,.39-4.45,3.49.49,2.88,3.23,3.2,5.65,2.89a93.45,93.45,0,0,1,10.48-1.06c11-.19,22.11-1,33.07-1.91,12-1,24.07-1.42,36-1.74,33.82-.91,67.68-1,101.45,2.17,9.51.89,19,1.6,28.57,2.42,1.66.14,3.9,2.16,4.79-.32.82-2.28-1.65-3.31-3.43-4.19a14.15,14.15,0,0,0-2.88-.89c-12.91-3-24.62-8.68-35.54-16-8.24-5.55-14-13-18.41-22.07-5-10.33-5-21.22-5.47-31.91-.67-16.55.8-33.19.93-49.74C797.36,965.33,797,880,797,779.16ZM1369.48,644.3v.62q-74.55,0-149.11,0c-6.37,0-12.74-.32-19.12-.49-1.7,0-3.65-.2-4.18,1.87-.58,2.31,1.19,3.36,3,3.91a63.49,63.49,0,0,0,7.81,1.9c10.08,1.7,20.28,2.79,30.13,5.63,11.85,3.41,21.31,9.85,25.64,22,3.47,9.78,4.11,20.09,4.14,30.27.18,70.18,0,140.37,0,210.55a37.82,37.82,0,0,0,.55,6c2,12.46-.55,24.7-1.74,37a7.68,7.68,0,0,1-.74,1.86c-5,13.06-15.91,16.71-28.41,17.9-10,.94-20,.33-30,.19-40.63-.6-81.27-.17-121.9-.12-2.85,0-5.78-.4-8.54.1-10.85,2-21.78,1.31-32.61.59-16.66-1.11-26.27-10.37-28.72-27a228.9,228.9,0,0,1-2-23c-.33-7.31,1.75-14.29,1.74-21.51-.07-70.33-1.54-140.66.79-211,.56-17,7.48-31.42,23-40.58,11.37-6.73,23.73-10,36.7-11.47,2.15-.25,5.88.42,5.78-2.28-.09-2.49-3.88-1.81-6-1.88-9.23-.32-18.46-.34-27.69-.44-66.41-.7-132.84,1.25-199.23-1.44-6.59-.27-13,1.26-19.53,1.17-1.82,0-4.07.18-4.15,2.62-.08,2.26,1.93,2.91,3.81,3.28a13,13,0,0,0,2.5.17c16-.06,31.9-.09,47.85-.21a59.7,59.7,0,0,1,13,1.08c26.16,5.56,35.19,17.27,38.68,38.25,2.36,14.17,2.34,28.65,2.33,43.09-.18,143.39.08,286.78-.21,430.17-.11,56.2,1.43,112.42-.9,168.62-.85,20.46-8.42,36.79-27.33,46.46-9.87,5-20.1,9.14-31,11.33a68.21,68.21,0,0,0-8.64,2.64,2.09,2.09,0,0,0-1.49,2.36,2.14,2.14,0,0,0,2.26,1.65c3.69.09,7.38.17,11.07.08,9.56-.24,19-2.3,28.45-2.88,20.92-1.28,41.92-1.06,62.86-1.24,22.93-.2,45.93.26,68.85,2.15,14.52,1.19,29.09,1.67,43.64,2.41,3,.16,7.55,1.91,8.28-2s-4.19-4.11-7-4.84c-13.18-3.44-25.72-8.49-38.09-14.11-17.41-7.9-26.36-21.33-28.09-40.25-.86-9.4-.74-18.76-.74-28.15q0-136.5,0-273a108.85,108.85,0,0,1,1.05-16.55c1.46-9.48,5.39-17.67,14.38-22.4a36.21,36.21,0,0,1,18-3.9c12.87.34,25.83-1.58,38.61,1.36a18.58,18.58,0,0,0,4,0c47.65.14,95.29,0,142.92-1.58,13.07-.45,23.4,4.15,29.51,16.3,3.81,7.58,4.1,15.85,4.18,24.06.83,87.95-1.28,175.91,1.06,263.87.45,16.91-.14,34.2-4.77,50.91-4,14.3-11.39,26.26-24,34.11-10.49,6.52-22.8,7.43-34.83,8.66-2.17.22-4.37,0-6.45.88s-3.93,1.68-3.45,4.22,2.71,2.69,4.77,2.56c11.86-.7,23.67-2,35.52-3,7.23-.55,14.41.3,21.53-.47,16-1.75,32.16-.54,48.24-1.35,16.54-.83,33.2.12,49.79.66,13.19.42,26.42.29,39.51,2.69,5.75,1.06,11.67,1.22,17.52,1.6,1.76.12,4.15.13,4.32-2.33.16-2.25-2.13-2.14-3.68-2.56a159.22,159.22,0,0,1-32.29-12.51c-11.94-6.24-21.56-14.93-26.34-27.89-3.28-8.88-4.47-18.31-4.63-27.67-.27-15.23,1.13-30.51,1.17-45.67.46-180,.2-360,.39-540,0-15.86-3.37-31.57-.41-47.61,2.24-12.15,6.49-22.55,17.57-28.32a112.55,112.55,0,0,1,54.26-12.8c34.57.44,69.13.59,103.7.84,8.06.06,16.11,0,24.17,0,1.8,0,4,.6,4.92-1.51,1-2.32-.93-3.8-2.41-5.06-24.55-20.94-46.6-44.49-70-66.64-20.11-19-39.1-39.21-59.32-58.16-17.38-16.28-34.22-33.15-51.3-49.75l-.73-.7c-28.76-26.72-56.33-54.68-85.09-81.4-22.62-21-44.67-42.64-66.9-64.08q-34.61-33.37-69-67c-2.85-2.78-4.88-2.86-7.59-.17-4,4-8.3,7.82-12.36,11.83-17.91,17.68-36.17,35-54.37,52.38-24.16,23.07-47.88,46.6-71.78,69.93-1.54,1.51-2.83,3.37-1,5.21s3.36.17,4.73-1.13c5.85-5.53,11.75-11,17.53-16.61,17.22-16.71,33.81-34,51.38-50.43,22.32-20.83,44-42.32,66-63.58,2.52-2.44,4.5-3.37,7.56-.4,14.09,13.68,28.47,27.05,42.57,40.71,28.7,27.78,57,55.94,85.91,83.55,30.68,29.34,60.87,59.21,91.32,88.8,20,19.41,40.19,38.57,60.46,57.68,28,26.36,55.44,53.21,83.18,79.8,8.47,8.13,16.08,17.14,25.11,24.72,1.38,1.16,3,2.72,2,4.72-.9,1.78-3,1.18-4.59,1.18s-3.36-.17-5-.17Zm-25.09-20.7v0q67.5,0,135,0c1.74,0,4,.76,4.85-1.51.75-2.05-1-3.4-2.31-4.66q-13.82-13.23-27.66-26.42c-4.37-4.19-5.19-4-10,0-14.77,12.53-32.27,15.5-50.16,10.69-18.6-5-30.78-18.47-37.46-36.51-1.18-3.17-2.65-4-5.8-4q-59.92.13-119.86,0c-3,0-4.61.83-5.59,3.76a64,64,0,0,1-7.58,16.38c-11.16,16.26-24.77,29.12-45.24,32.41-7.24,1.16-7.82,1.94-6.9,9,.61,4.74-.94,6.65-5.69,6.68-10.07.06-20.14,0-30.21.05-2.69,0-4.18-1.24-4.44-3.75a57.43,57.43,0,0,1,0-6c0-3.78-1.09-6.46-5.57-6.8a27.07,27.07,0,0,1-8.33-1.83c-20.14-8.43-35.24-21.81-41.74-43.4-1.23-4.1-3.73-5.84-8.15-5.83q-60.18.13-120.37,0c-2.72,0-4.46.79-5.44,3.38-.71,1.88-1.72,3.65-2.57,5.47-8.46,18.1-23.39,28.12-42.34,31.55-15.88,2.87-31.05-.21-43.74-11.28-1.9-1.67-3.86-2-5.87-.29-4.11,3.44-8.24,6.87-12.25,10.44a10.65,10.65,0,0,0-3.57,8.51c.13,14.63-2.36,13.93,13.55,13.87,91-.39,182,.85,273-.69,2.46,0,4.81.43,6.36,2.41,3.1,4,6,8,6.81,13.25,2.71,17.59-6.3,33.32-25.86,36.48-9.1,1.47-18.17,3.08-27.35,4.17-17.91,2.12-25,9.09-26.73,25.76A191.38,191.38,0,0,0,1044,728c.41,24.64.11,49.28.7,73.93,1.09,45,.27,90,.23,135,0,4-.08,8.06,0,12.09,0,2.85,1.12,4.78,4.39,5,7.69.41,15.31,1.46,23.06,1.32,52.81-1,105.66,1.63,158.47-1.36,7.79-.44,7.94-.3,7.94-7.68q0-79.59,0-159.16c0-1.51,0-3,.11-4.53,1.36-27.34.65-54.67-.23-82-.24-7.24-3.61-12.75-11-15.28-4.8-1.65-9.74-2.39-14.69-3.33-12.74-2.44-25.9-3.32-36.55-12.47-8.59-7.38-11.84-19.36-7.46-32.11,4.15-12,9.82-15.54,23.55-15.72,6.47-.08,12.54,2,19,2C1255.75,623.53,1300.07,623.6,1344.39,623.6Zm-138.82-98c3.77-2,7-4.63,11.18-5.62,13.68-3.22,27.27-6.79,40.88-10.25,14.62-3.71,29.23-7.49,43.85-11.19,12.5-3.16,25-6.19,37.52-9.38q6.84-1.74,2.17-7.26c-2.39-2.81-5.09-5.34-7.69-8a6.81,6.81,0,0,0-7.86-1.58c-10.51,3.94-21,7.91-31.57,11.72-14.33,5.18-28.71,10.2-43.06,15.32-9.44,3.38-18.71,7.4-28.35,10-6.55,1.79-12.34,5.2-18.77,7.07-1.6.47-3.45,1.22-4.48-.74-1.16-2.2.58-3.35,2.16-4.4,8.52-5.65,17.07-11.25,25.57-16.95q35.1-23.55,70.16-47.15c3.22-2.16,3.07-4.48.47-7-2.29-2.22-4.59-4.43-6.87-6.66-4.37-4.25-6-4.2-10.57-.23-27.59,24-55.15,48-83.4,71.28-1.41,1.15-2.62,2-4.44.68-6.54-4.59-7.16-9.74-1.81-15.73.56-.63,1.11-1.27,1.62-1.93,20.84-27.56,40.9-55.72,62.76-82.51,2.06-2.53,1.94-4.9-.57-7-2-1.73-4.26-3.29-6.21-5.12-6.78-6.35-6.83-6.43-11.3,1.23-10.9,18.69-21.66,37.47-32.61,56.13-7,12-14.29,23.89-21.51,35.79-1.31,2.15-3.06,5-5.81,3.72-3.21-1.45-6.63-3.18-8.52-6.54-.26-.45,0-1.31.26-1.92,4.32-11.41,8.73-22.8,13-34.23,6.09-16.31,12-32.66,18.13-49,4.16-11.13,8.33-22.25,12.73-33.28,1.3-3.28,1-5.84-1.5-8.19-2.81-2.65-5.65-5.27-8.48-7.89-1.23-1.13-2.44-2.67-4.31-2s-1.61,2.72-2,4.31c-4.46,17.37-8.86,34.75-13.45,52.08-3.81,14.42-8,28.74-11.77,43.16-2.77,10.54-7,20.64-9.06,31.4a4.3,4.3,0,0,1-5.15,3.74c-2.71-.43-3.23-2.58-3.13-5,.12-3,.3-6,.32-9.05q.36-59.18.69-118.33c0-2.35.4-4.69.42-7,.11-12.08.29-24.17.16-36.25,0-4.17-6.22-10-9.07-9.18-5.51,1.56-11.21,9.49-10.18,15.15,2.42,13.32,1.33,26.79,1.75,40.16.79,24.82.23,49.69.2,74.53,0,16.62-.13,33.24-.13,49.86,0,2.85-.64,5.05-3.89,5.39-2.9.3-4.12-1.34-4.84-4-5-18.39-10.35-36.72-15.29-55.14-6.34-23.63-12.45-47.33-18.61-71-.69-2.67-1.93-3.32-4.31-1.83-3.61,2.27-6.2,5.61-9.24,8.48s-3.07,5.36-1.65,9q10.37,26.69,20.26,53.57c7,18.87,13.63,37.83,20.57,56.71,2.41,6.56,1.59,9.12-4.8,12.11-3.27,1.54-5.67.77-7.53-2.52-7.34-13-14.65-26-22.25-38.79-11.12-18.75-22.65-37.26-32.87-56.53-1.54-2.89-3.17-3.23-5.45-1.13q-5,4.6-9.88,9.33c-2.33,2.23-2.41,4.53-.32,7.09,22.79,28,44.1,57.06,65.74,85.91a5.39,5.39,0,0,1,1,5.62c-3.15,8.09-6.69,9-13.07,3.46-.51-.45-1.06-.83-1.56-1.28-14.8-12.89-31.07-24.21-44.56-38.44-10.07-10.64-21.52-6.49-32.87-6.26a2.13,2.13,0,0,0-2.12,1.85c-.14,1.19.84,1.68,1.74,2.18,3.66,2.05,7.4,4,10.93,6.22,21.76,13.88,41.89,30.22,64.49,42.84a9.7,9.7,0,0,1,4.29,4.14c1,2,.82,3.37-1.92,2.95a36.41,36.41,0,0,1-9.73-2.46c-13-5.9-26.54-10.14-39.94-14.85-23.7-8.32-47.7-15.79-71-25.25-2.75-1.11-5.54-1.82-8,.5-3.31,3.09-6.67,6.16-9.72,9.5-2.61,2.85-1.85,4.6,2,5.45,3.28.72,6.68,1,9.84,2.07,12.91,4.26,26.2,7.16,39.38,10.29,27.71,6.59,55.15,14.16,82.67,21.47,1.59.43,3.73.68,3.33,2.93s-2.56,2-4.15,1.77A146,146,0,0,0,1065,527c-48.86.11-97.71.43-146.57.18-8.42,0-15.51.87-20.81,8-1.54,2.06-5.16,3.43-3.74,6.42s4.74,1.21,7.28.87c4.78-.62,8.78,2.53,8.12,7s-1.46,9.22-4.4,13.22a28,28,0,0,1-35.47,8.44c-1.63-.86-3.19-1.87-5.14-1.87a4.24,4.24,0,0,0-4.51,3.26,3.74,3.74,0,0,0,2,4.67c3.3,1.65,6.53,3.64,10,4.61,22.63,6.29,46-11.12,47-34.49.15-3.61,1.75-5.25,5.33-5,2.84.22,5.69.65,8.53.63,50.69-.28,101.4.82,152.08-.6,4.11-.11,6.19,1.38,7,5.39a47.82,47.82,0,0,0,6.81,16.64,60.44,60.44,0,0,0,31.45,24.7c9.7,3.35,9.58,3.69,9.55,14.21a8,8,0,0,0,.18,2.5,6.27,6.27,0,0,0,7,4.56c3.15-.27,4.76-2.38,4.76-5.48a63.91,63.91,0,0,0-.47-8.53c-.48-3.56.81-5.11,4.39-5.82,23.59-4.64,38-19.39,45-41.83,2.37-7.57,2.12-7.64,10.23-7.53,52.5.71,105-1.26,157.51,1,3.74.16,5.32,1.49,5,5.06a25,25,0,0,0,1.56,10.84c4.52,12.14,13.6,19.59,25.42,23.24,10.41,3.21,21,2.58,30.14-4.48,2.08-1.61,5.23-3.38,2.92-6.91-2.19-3.34-4.74-2.52-7.72-.62-6.57,4.2-13.63,6.07-21.58,4.33-12.69-2.76-22.16-13.48-21.92-25.38.11-5.37,2-7.27,7.42-7.13,2.18.05,4.36.49,6.52.41,2.46-.09,3.8-1.38,2.81-4-1.55-4.1-11-10.29-15.59-10.3-53-.1-106.11-.26-159.16-.2C1217.83,527.08,1211.78,526.24,1205.57,525.57Zm-380.91-1.51a1.92,1.92,0,0,0,1.14,2.15c1.7.7,2.89-.43,4-1.44,10.24-9.4,20.39-18.9,30.7-28.22,12.8-11.58,24-24.84,37.45-35.72,1.06-.87,2.23-1.7,1.82-3.27-.49-1.9-2.17-1.86-3.67-1.87-8.88-.05-17.76-.2-26.64,0a25.34,25.34,0,0,0-8.82,1.81c-8.56,3.51-17.64,5.15-26.5,7.5-4.83,1.28-7.18,4-8.63,8.63-1.74,5.62.19,11,.09,16.42C825.37,501.11,826.43,512.19,824.66,524.06Zm118.17-67.3c-1.05-3.19-3.48-2.24-5.35-.84a95.17,95.17,0,0,0-9.54,8.17q-40.05,39-80,78.07c-6.84,6.67-13.86,13.16-20.55,20-1.6,1.63-4.54,4.51-2.67,6.3,2.27,2.16,4.72-1,6.55-2.76,18.7-17.83,37.48-35.57,56-53.63,17.75-17.35,35.21-35,53.82-51.45A4.75,4.75,0,0,0,942.83,456.76Zm174.31-120.22c0-2.52.1-5,0-7.55a2.75,2.75,0,0,0-2.51-2.73,2.7,2.7,0,0,0-2.8,1.75c-.6,1.36-1.53,3-1.22,4.25a120.69,120.69,0,0,1,2.35,14.36c.12,1,.4,2.16,1.61,2.28,1.56.15,1.85-1.26,2.11-2.35A31.14,31.14,0,0,0,1117.14,336.54Zm58.15-2.68h0c0,2.17,0,4.34,0,6.51a1.87,1.87,0,0,0,1.74,2.05,1.89,1.89,0,0,0,1.94-1.32c1.46-4.63,2.72-9.32,1.25-14.19-.39-1.3-1.33-2.44-3-2.14a2.54,2.54,0,0,0-2,2.59C1175.19,329.53,1175.29,331.7,1175.29,333.86Zm177.9,170.73c3.39,2.17,6.42,3.07,9.78,2.5a2.48,2.48,0,0,0,2.3-2.76c-.17-1.4-1.38-1.83-2.57-1.88C1359.74,502.35,1356.76,502.29,1353.19,504.59Z"/><path class="cls-1" d="M354.45,423.82c-37.33-.8-85.85-.23-134.36-.59-4.8,0-9.19,1.9-13.93,1.83-2.4,0-5,.18-6.06-2.48-1.16-2.84,1.67-3.58,3.17-5,2.56-2.41,5.19-4.75,7.66-7.25,24.45-24.69,48.89-49.41,74.23-73.19Q320.4,304.09,355,270.41c28.45-27.58,56.18-55.87,84.34-83.73,24.34-24.07,50.1-46.64,74.61-70.53,16.94-16.52,33.6-33.33,50.51-49.88,8.15-8,16.62-15.62,24.88-23.48,2.6-2.48,4.77-2.4,7.34.1q39.21,38,78.51,76,49.95,48.27,99.94,96.51,27.74,26.73,55.64,53.26,54.44,52,107.87,105c13.71,13.56,27.85,26.71,41.64,40.2,1.67,1.64,3.7,2.88,5.5,4.39,1.16,1,2.34,2.09,1.69,3.85s-2.28,2-3.79,1.75c-8-1.27-16.07-.06-24.1-.16-24.34-.3-48.69-.75-73-.41-74.54,1-149.08.1-223.62.56-4.86,0-9.73-.26-14.59-.47-1.71-.07-3.63-.36-4.32,1.6-.75,2.14.8,3.62,2.5,4.38a33.65,33.65,0,0,0,6.24,1.81c11.73,2.75,23.83,3.49,35.37,7.48,11.08,3.84,18.14,10.95,21.7,21.91,3.21,9.87,4,20.1,4,30.34Q714,608.49,714,726.1a53.63,53.63,0,0,1-5.23,23.9c-4.26,8.65-12.61,12.1-21.54,12.73-11.53.82-23.14.47-34.72.47-42.15,0-84.29-.24-126.43.15-11.22.11-22.42.54-33.65-.08-8.53-.48-16.1-3.13-22.51-8.66a24,24,0,0,1-8.63-16.54c-1-12.51-2.77-25-.36-37.57a28.28,28.28,0,0,0,.17-5.53c0-63.13-.16-126.25-.05-189.38,0-14.92.76-29.92,6.05-44.09,4.82-12.94,14.1-21.62,27.09-26.6,7.31-2.8,15-3.53,22.47-5.21,2-.45,5.28-.65,5.22-3-.08-2.93-3.58-2.24-5.65-2.81-4-1.07-8,0-12,0C458,423.8,411.81,423.82,354.45,423.82Zm143.23,43,0,0a18.24,18.24,0,0,0-5.49,11,5.19,5.19,0,0,0-.58,4c-1.37,2.68-.86,5.58-.93,8.39q-.47,17.26-.28,34.54c.66,65.45.29,130.91.28,196.37,0,2.5.11,5,.17,7.52a1.62,1.62,0,0,0,.05,2c.45,3.8,3.42,2.94,5.72,3q78.57,0,157.15,0c8.06,0,16.12.09,24.18,0,5.57-.05,6.56-1.23,6.44-7,.12-1.49.36-3,.36-4.47q.27-109.9.45-219.8c0-7.85-.6-15.7-.92-23.55.48-5.69-1.45-10.95-6.67-12.79-7-2.45-14.06-5.42-21.8-4.88a18.27,18.27,0,0,0-7-.52,112.16,112.16,0,0,0-16.15-4.7c-2.14-1.25-4.1-2.87-6.6-3.45-2.15-2.64-4.22-5.38-7.57-6.65l-2.33-5.29c-3-9.55-3.16-19,.78-28.39,2.9-7,7.49-10.46,15-10.35,10.9.17,21.81.87,32.67.92,87.62.41,175.25.3,262.87.35,1.51,0,3.29.26,3.89-1.53s-.54-3.14-2.3-3.83l-.73-.64a3.1,3.1,0,0,0-2.4-2c-4.33-4.57-8.11-9.72-13.57-13.12a3.17,3.17,0,0,0-2.6-1.86,14.5,14.5,0,0,0-5.29-4.94,4.21,4.21,0,0,0-2.84-2.88,5.21,5.21,0,0,0-3.1-3.19c-1.72-2.84-3.58-2.71-5.55-.26a2.84,2.84,0,0,0-2.39,2.16,3.27,3.27,0,0,0-2.61,1.89l-.25,0-.14.22a3,3,0,0,0-2.65,1.82,2.24,2.24,0,0,0-2.35,1.32c-5.89,1.49-11.1,4.91-17.12,6a3.48,3.48,0,0,0-3.06.28c-10.1,1.25-19.75-.76-29.22-4.05l-1.31-.61a2.84,2.84,0,0,0-2.72-1.35c-6.52-4.62-13.48-8.73-18.14-15.52a5.66,5.66,0,0,0-2.85-3.6,15.81,15.81,0,0,0-3.31-6.48c-.71-1.86-1.53-3.68-2.11-5.59-1.24-4.12-3.71-5.65-8-4.5a21.83,21.83,0,0,1-5.5.28q-25.9,0-51.79,0c-18.78,0-37.55.09-56.32-.13-8.26-.1-8.26-.39-11.12,6.88l-.26.15.05.3a2.44,2.44,0,0,0-1.4,2.58l-.6,1.48a2.91,2.91,0,0,0-1.63,2.54,3.05,3.05,0,0,0-1.4,2.48A3.25,3.25,0,0,0,663,360c-5.32,6.54-9.79,13.7-17.37,18.32a238.89,238.89,0,0,1-31.13,15.72c-3.2.57-2.46,3-2.26,5,.33,3.47.35,6.87-1,10.16l.09-.09c-9.56.12-19.12.37-28.68.34-11.11,0-11.13-.14-11.2-11.52,0-2.39-.37-4.69-3.24-4.71-4.19,0-7.81-1.85-11.62-3-20.89-6.5-34-20.68-40.14-41.41-2.08-7-3.3-7.93-10.43-7.9-38.6.14-77.21.32-115.81-.07-5.65-.06-8,1.44-9.85,6.43-7.5,20.29-23.36,30.66-43.72,34.12-16.08,2.73-31.48.1-44.21-11.44-2.17-2-4-2.47-6.34.14-8.93,9.8-18.3,19.14-29.15,26.88-1.33.95-3.09,1.93-2.52,3.94.64,2.22,2.71,2.36,4.58,2.14,8.38-1,16.76,0,25.14,0q112.55-.12,225.09-.08c16.11,0,32.23.55,48.32-.6,3.42-.24,5.68,1.42,7.68,3.91,8,10,7.68,20.93,4.07,32.33-3,6.15-8.87,8.9-14.26,12.23a11.15,11.15,0,0,0-5,1.95,4.09,4.09,0,0,0-3,.55c-11.51,2-23.16,3.47-34.27,7.4-2.11-.21-4.22-.41-6,1.06C503.36,462.92,500.1,464.14,497.68,466.86ZM450.2,321.35v0c26.86,0,53.72.08,80.58-.09,4.44,0,6.56,1.71,7.14,5.87.83,5.93,3.49,11.16,6.4,16.27,7.86,13.78,20,21.73,35,25.81,5.52,1.5,7,3.94,6.47,9.61-.2,2-.42,4-.59,6-.13,1.61.19,3.09,1.85,3.77,2.89,1.18,6,1.68,8.77.14s2-4.24,1.55-6.79a46.14,46.14,0,0,1-.33-5c-.36-4.71,1.91-7.09,6.48-7.93,23.56-4.34,36.38-19.92,42.66-41.78,1.27-4.43,2.84-6,7.39-5.95,53.72.27,107.43.83,161.15-.23,3.47-.07,4.85,1.5,4.6,4.93a30.42,30.42,0,0,0,.12,7c4,24.21,35.18,37.8,57,23,3-2.05,3.8-4,1.84-7s-4.68-2.78-6.89-.77c-4.32,4-9.57,4.64-14.95,5-14.52.94-26.3-8.65-28.29-22.92-.89-6.37,1.28-8.94,7.51-8.81,2.51,0,5,.25,7.54.25s3.4-1.07,2.35-3.53c-2.79-6.53-11.64-12.35-18.75-12.34-33.08,0-66.16-.21-99.23.14-24.65.26-49.34-1.59-73.94,1.39-2.17.27-4.38-.37-4.72-2.71-.4-2.83,2.24-2.81,4.15-3.24,8.67-1.94,17.4-3.65,26-5.85,13.13-3.36,26.14-7.23,39.27-10.57,22.89-5.83,45.84-11.42,68.76-17.12,3.43-.85,4.27-2.66,1.53-5.24-3.66-3.45-7.48-6.74-11.21-10.13-2-1.79-4.08-2.18-6.42-.73-5.48,3.39-11.79,4.83-17.71,7.07-17.06,6.47-34.58,11.71-51.61,18.25-16.4,6.31-33.13,11.6-49.75,17.25-1.87.63-4.61,2.54-5.87,0-1.4-2.87,1.55-4.4,3.64-5.68,3.28-2,6.85-3.58,10-5.71q23.87-15.89,47.58-32c12.08-8.18,24.05-16.55,36.22-24.59,3.58-2.37,3.07-4.09.34-6.53a59.82,59.82,0,0,1-7.47-7.46c-3-3.82-5.34-3.78-9-.57-27.65,24.18-55.47,48.17-83.77,71.58-1.23,1-2.43,1.79-4.08,1.29-5.27-1.57-7.95-9.67-4.6-14q10.71-14,21.48-27.91c14.79-19.11,28.76-38.84,44.15-57.5,1.53-1.86,2.07-3.94.5-6A50.63,50.63,0,0,0,689.56,168c-2-1.38-3.51-1.13-4.78,1.35-9.24,18.09-19.91,35.37-30.11,52.91-8.68,14.93-17.26,29.93-27,44.19-1.44,2.1-3.15,4.72-6,2.41s-8.49-3.18-6.52-8.68c2.47-6.92,5.12-13.76,7.52-20.71,5.13-14.86,10.88-29.51,16.52-44.19,6.61-17.18,12.19-34.74,19.5-51.66,1.05-2.44,1-4.47-.92-6.41-3.57-3.55-7-7.24-10.65-10.69-2.4-2.26-4.62-1.69-4.76,1.69-.19,4.47-1.72,8.55-2.79,12.75-4.92,19.17-9.83,38.34-15.09,57.41-5,18.07-10.4,36-15.62,54-.51,1.77-.82,3.61-1.48,5.32-.72,1.87-2.19,3.1-4.3,2.76a3.94,3.94,0,0,1-3.42-4.32c0-2.34.55-4.67.58-7,.18-18.8.23-37.6.25-56.39,0-34.91.87-69.8,1-104.71a15.09,15.09,0,0,0-.19-3.5c-1.08-4.64-7-9.12-9.87-7.62-7.41,3.82-11.69,10.77-9.66,18.67,2.68,10.47,1.73,21,2,31.5.66,28.36.24,56.74.19,85.12,0,14.27-.21,28.53-.28,42.8,0,2.73-.45,5.18-3.67,5.66s-4.6-1.78-4.89-4.47c-.49-4.76-2.7-9-3.9-13.51-4.56-17.33-9.15-34.66-14-51.92-5.4-19.35-10.85-38.7-15.42-58.28-.88-3.8-2.85-4.83-6.09-2.69-2.09,1.38-3.91,3.17-5.86,4.75-6.06,4.93-6.54,7.56-3.58,14.8,4.31,10.53,8.44,21.14,12.48,31.78,4.59,12,9,24.16,13.47,36.25q7.75,21,15.47,41.92c.8,2.18,1.21,4.41-.77,6-2.72,2.22-5.62,4.33-9.4,4.17-1.25-.05-1.9-1.15-2.51-2.23-5.11-9-10.2-18.08-15.44-27-13.28-22.74-26.71-45.39-39.87-68.2-2.06-3.57-3.87-3.79-6.54-1.25-3.17,3-6.22,6.13-9.3,9.21-2.08,2.08-1.79,4.33,0,6.29,6.91,7.59,12.3,16.35,18.58,24.43,15.84,20.39,31.33,41.06,46.9,61.67,2.6,3.45,1.5,6.54-3.28,11.27-2.37,2.34-4.46,1.7-6.62-.11-7.57-6.38-15.2-12.68-22.66-19.17-17.59-15.31-35-30.86-53.26-45.35-3.65-2.89-6.78-7.86-11.3-7.92-4.69-.07-6.94,5.69-10.46,8.67-4.41,3.73-4.29,5.13.48,8.33,26,17.51,52.18,34.82,78.08,52.49,5.56,3.8,11.91,6.25,17,10.66,1.23,1.06,2.91,2.46,1.88,4.21s-3,.88-4.55.34c-20.09-6.88-40.37-13.27-60.22-20.81-17.37-6.59-35-12.35-52.35-19.07-12.1-4.69-12.17-4.53-22.27,4-.9.76-1.79,1.53-2.71,2.25-1.19.93-2.7,1.74-2.37,3.54.39,2.07,2.34,2.14,3.92,2.56,14.76,3.83,29.45,8,44.3,11.4,24.34,5.58,48.16,13.22,72.63,18.22,4.93,1,9.84,2.07,14.74,3.21,1.8.42,3.92,1.07,3.68,3.4-.25,2.54-2.56,2.23-4.36,2.17-7.72-.24-15.43-.81-23.14-.82-47.18-.06-94.36.19-141.53-.16-8.36-.07-15.21,1.28-20.19,8.27-1.76,2.47-7,3.5-5.55,6.67,1.28,2.86,5.78.89,8.87.73,3.63-.18,6.6.77,6.75,4.91.32,8.9-2.32,16.74-10.15,21.71-10.64,6.76-21.65,7.51-32.61.55-3.44-2.19-5.28-.14-7,2.34-2.05,3,.23,4.1,2.29,5.42,14.95,9.53,36,7.08,48-5.93,6-6.5,9.48-14.5,8.78-23.35-.4-5.09,1.43-5.68,5.45-5.67C396.48,321.39,423.34,321.35,450.2,321.35Zm171-207.8H621c0,2.49,0,5,0,7.48a2.12,2.12,0,0,0,1.1,2.08c.93.44,1.56-.11,2.17-.72,2.07-2.1,3.41-13.88,1.87-16.41-.63-1-1.34-2-2.71-1.85-1.68.2-2.09,1.56-2.16,2.92C621.14,109.21,621.22,111.38,621.22,113.55Zm-58.28,1.22a25.76,25.76,0,0,0,0-2.63c-.22-2.31.7-6-2.9-5.63-3.25.28-4.06,3.56-3.5,6.63.59,3.26,1.41,6.48,2.14,9.71.22,1,.47,2,1.64,2.24s1.84-.6,2.14-1.59A18.28,18.28,0,0,0,562.94,114.77ZM378.55,284.49c-1.4.43-3.86-.41-3.85,1.95s2.36,1.86,3.94,1.82,4.12.34,4.23-1.56C383,284.05,380.23,285.05,378.55,284.49Z"/><path class="cls-1" d="M1171.8,542.35c4.19,0,8.37,0,12.56,0,4.73-.05,5.81,1.17,4.91,5.67-3.15,15.68-18.42,29.83-34,31.6-2.76.32-4.43-.74-4.32-3.43q.64-15,1.68-30c.19-2.9,2.44-3.73,5.07-3.72,4.7,0,9.39,0,14.09,0Z"/><path class="cls-1" d="M1120.75,542.31c4.19,0,8.38.17,12.56,0,3.7-.2,5.72,1.68,5.45,5-.73,8.77,2.14,17.26,1.57,26-.39,6.12-1.44,7.46-7.18,5.68-15.73-4.87-26.25-15-30.51-31.16-1-3.87,1-5.27,4.53-5.3,4.52-.05,9,0,13.58,0Z"/><path class="cls-1" d="M1171.22,527.25c-4.35,0-8.7,0-13,0-3.87,0-5.8-1.59-5.75-5.74a188.86,188.86,0,0,1,1.76-25.92c.41-2.76,1.53-3.74,4.41-2.89,13.6,4.05,23.71,12,29,25.48,2.85,7.29,1.78,9-5.83,9h-10.54Z"/><path class="cls-1" d="M1120.65,527.17c-4.36,0-8.72.05-13.07,0-3.63-.06-5.27-1.59-4.1-5.44,4.1-13.59,12.42-23.12,26.11-27.63a19.79,19.79,0,0,0,3.22-1.36c2.68-1.47,4.08-.5,4.69,2.26,2.14,9.62.9,19.36,1,29,0,2.78-2.34,3.3-4.74,3.27-4.36,0-8.71,0-13.07,0Z"/><path class="cls-1" d="M617.6,321c4.53,0,9,0,13.58,0,3.21,0,4.72,1.35,4.1,4.65-2.84,15.07-11.39,25.38-25.76,30.83-1.09.41-2.19.81-3.27,1.26-6.11,2.55-8.43.93-7.84-5.55a22.9,22.9,0,0,0-.88-8.94c-1.91-6.21-.18-12.32.74-18.38.47-3.12,3.37-3.87,6.26-3.88,4.36,0,8.72,0,13.07,0Z"/><path class="cls-1" d="M564.2,321.64c4.85-.23,9.7-.41,14.55-.7,3.33-.2,6.27,1,5.88,4.48-1.08,9.64,1.93,19,1.48,28.54-.2,4.11-2.47,6.07-6.18,4.82-11.24-3.79-20.71-9.87-26.95-20.46-2.46-4.18-3-8.84-4.65-13.21-1.19-3.2,1.86-3.77,4.31-3.84,3.85-.11,7.7,0,11.55,0Z"/><path class="cls-1" d="M598.47,291.93c-.26-5.38.36-10.72.82-16.07.32-3.75,2.36-5.16,5.81-4,14.12,4.87,24.45,13.72,29.24,28.26,1.65,5,.4,6.75-4.77,6.19a135.23,135.23,0,0,0-23.12,0c-7,.45-8.38-.93-8-7.84C598.57,296.3,598.47,294.11,598.47,291.93Z"/><path class="cls-1" d="M584.59,288.32c0,4-.13,8.06,0,12.08.18,4.23-1.51,6.25-5.87,6.15-8.38-.2-16.73-1.16-25.14-.36-3.44.32-5.43-1.54-4.22-5.41,3.36-10.78,10.26-18.7,19.81-24.41a71.77,71.77,0,0,1,9-4.47c4.26-1.8,6.36-.29,6.37,4.34C584.59,280.27,584.58,284.3,584.59,288.32Z"/></svg>