<svg id="Layer_1" data-name="Layer 1" xmlns="http://www.w3.org/2000/svg" viewBox="0 0 1149.82 1416.62"><defs><style>.cls-1{fill:#fff;}</style></defs><path class="cls-1" d="M1149.8,632.61c-.71-29.67-3.43-59.19-6.41-88.71A989.87,989.87,0,0,0,1118,398.09c-11-42.93-25.37-84.68-44.34-124.85-16.87-35.74-37.12-69.34-61.91-100.08A426,426,0,0,0,885.22,66.88C838.61,41.07,788.78,24.34,736.9,13.51A587.51,587.51,0,0,0,658,2.06C648.48,1.39,639,0,629.37,0,627.62,0,522.66,0,521,0c-13.58.14-27,1.88-40.52,3.2A651.29,651.29,0,0,0,405,15.32C360.55,25,317.69,39.4,277.19,60.3A427.05,427.05,0,0,0,190.62,119a445.25,445.25,0,0,0-76.34,87.13c-24.81,37.09-44.06,77-59.44,118.85-15.09,41.09-26.16,83.26-34.41,126.2-4.89,25.39-8.9,50.91-11.81,76.61-2.72,24.07-5.15,48.14-6.55,72.33C1.24,614.4,0,628.64,0,643c0,1.86,0,128.82,0,130.67-.07,22.1,1.71,44.13,3.55,66.1A1159.52,1159.52,0,0,0,22.42,975c9.37,46.1,22.13,91.17,39.67,134.82,18.27,45.45,41.33,88.3,71.55,127,36.92,47.29,81.58,85.52,134.49,114.1,44.38,24,91.49,40,140.65,50.61A689.83,689.83,0,0,0,480,1413c16.51,1.81,33.08,3.61,49.75,3.65,2.1,0,87.44,0,89.3,0,28.78-.87,57.3-4,85.76-8.41a613.46,613.46,0,0,0,101.29-24.27C853.74,1368,898,1345.38,938,1314.83a429.91,429.91,0,0,0,80.37-80.55c28.67-37.38,50.81-78.36,68.63-121.86,21.88-53.42,36.25-108.91,46.2-165.62q6.88-39.25,10.94-78.94c1.54-14.92,2.24-29.92,3.52-44.87,1.17-13.53,2.23-27.06,2.17-40.65C1149.8,780.69,1149.85,634.36,1149.8,632.61ZM221.36,1295.52A408.62,408.62,0,0,0,279,1333.08q15.19,8.2,30.75,15.1-15.54-6.93-30.75-15.1A408.62,408.62,0,0,1,221.36,1295.52ZM377,1166.84c.35-5.55,1.7-11,2.7-16.55.28-1.55.76-3.79,3-1.65,5.28,5.07,11.92,8.12,17.76,12.34,13.15,9.48,14.61,14,9.39,30.72a23.66,23.66,0,0,1,8.78-2.52c2.2-.08,4.51.68,4.87,3.35s-2,3.07-3.94,3.38c-8.83,1.39-16.35,5.48-23.18,11,13.48,2.67,25.47,7.94,33.83,19.5,3.9-.57,7.8-1.45,11.72-1.64,12.63-.62,17.32,2.94,20.87,15.37a84.16,84.16,0,0,1,4.53-8.37c1.34-2,3.55-3.49,6-1.76s.81,3.81-.33,5.62c-4.6,7.31-7.31,15.16-6.92,23.91,10-7.43,20.82-12.11,33.53-11.84,6.78.14,12.6,3.2,18.73,5.35h0c-.08,1.17.84,1.1,1.57,1.28-.44-.47-.34-1.59-1.37-1.33-1.52-8.49-6-16-8.15-24.26-.45-1.74-1.18-3.42-1.76-5.13-1.16-3.47,0-4.9,3.75-5.21,32.73-2.71,62.83-13.36,90.53-30.82,3.83-2.42,5.63-1.49,7.76,1.88a246.78,246.78,0,0,0,20.55,28c1.95,2.29,1.78,3.66-.33,5.77-25.29,25.36-55.94,38.63-91.5,41-3.61.24-7.24.22-10.85.31q2.82,5.9,5.65,11.78c39.44-1.17,73.84-14.8,102.62-41.92,3.85-3.63,5.94-3.59,9.55.31,7,7.57,14.54,14.66,22.09,21.69,2.71,2.52,3.24,4.47,1.43,7.88-15.74,29.79-40.6,46.89-73.31,53.18a131.77,131.77,0,0,1-39.5,1.14,7.51,7.51,0,0,1-6.34-4.23c-4.49-7.82-9.17-15.54-13.78-23.3.16,9.61.37,19.25-2.54,28.55-3.32,10.59-8.21,19.89-20.7,21.88-1.42.23-2.08,1.29-3,2.14-1.19,1.1-2.34,2.73-3.75,3-9.88,2.19-18.68,8.4-29.28,7.94-9.06-.39-16.73-4.4-23.87-9.49-11.4-8.12-20.79-18.05-25.88-31.37-7.18-18.82-1.52-34.62,15.6-45.26,6.28-3.91,13.54-4.9,20.12-7.81a28.45,28.45,0,0,1-1.43-10.44c-.51.1-1.25,0-1.5.33-7.08,8.87-16,9.72-25.93,5.94-7.41,23.18-23.48,37.56-46.12,45.19a16.94,16.94,0,0,1-4.29.58c-6.89.41-27.53-6.84-32.7-11.53a7,7,0,0,0-3.19-1.82c-9.88-2.41-16-9.17-19.29-18.26-6.49-17.89-6.55-36,1.14-53.49,11.5-26.12,36.16-27.42,57.32-14.89,2.15,1.27,3.88,3.29,6.55,3.65l6.78-8.29C381.52,1194,375.8,1186.83,377,1166.84Zm200.5-30c2.81-1.24,4.2-1.35,5.6,2a286.82,286.82,0,0,0,16.49,32.94c.94,1.62,2.54,3.11-.23,4.88-28.11,18-58.7,28.55-92.12,30.63-2.19.06-3.66-.6-4.31-3.07q-5.29-20.21-8.62-40.83c-.52-3.22.77-4.53,4-4.89A268.3,268.3,0,0,0,577.52,1136.81ZM617.74,1396a900.66,900.66,0,0,1-104-1,902.9,902.9,0,0,0,104,1q15.93-.72,31.75-2Q633.67,1395.32,617.74,1396Zm157.5-24.29c-5.66,1.62-11.35,3.12-17,4.56,5.69-1.44,11.38-2.94,17-4.56,53.34-15.18,101.63-37.82,144.13-69C876.88,1333.94,828.58,1356.57,775.24,1371.75Zm224.38-147.2c2.7-3.47,5.38-7,8-10.57q1.44-2,2.85-3.94-1.41,2-2.85,3.94C1005,1217.57,1002.32,1221.08,999.62,1224.55Zm91.83-188.32a628.5,628.5,0,0,1-41,106.74c-.8,1.61-1.79,3.11-2.69,4.66q-2.34,5-4.85,9.83,2.5-4.86,4.85-9.82c-53.3-11.72-107.11-20.41-161.21-27.31-41.15-5.25-82.43-9.26-123.8-12.32q-56.65-4.18-113.41-5.8c-26.63-.8-53.27-.93-79.91-1.36-2.58-4.23-3.33-9.09-4.43-13.78-1-4.15-2.78-5-6.9-3.79a348.79,348.79,0,0,1-63.46,13.3c-4.1.45-6.4,2-6.06,6.42-3.08,0-6.17-.23-9.23-.08q-30.92,1.49-61.83,3.11c-30,1.53-60,4.1-89.87,7q-55.67,5.46-111,13.77c-38.31,5.81-76.45,12.51-114.32,20.78a4.45,4.45,0,0,0,.22,1.05q9.78,19.15,20.9,37-11.13-17.85-20.9-37a4,4,0,0,1-.22-1.05c-11-20.42-19.9-41.81-27.91-63.55C54.65,1030.33,42,974.85,33.61,918.29c-5-33.86-8.51-67.86-10.76-102-.12-1.8,0-3.62,0-5.43,46.64,21.27,94.09,40.52,142.51,57.34a1839.77,1839.77,0,0,0,255.5,68.38c26.08,5,52.26,9.44,78.45,13.8a31.86,31.86,0,0,0,3.79.2c3.78-11.13,4.71-22.9,7.56-34.24.49-1.92.82-3.88,1.28-5.81.7-3,2.39-4.54,5.7-4.64,10.27-.3,20.58.81,30.83-.93,3.07-.52,4.83,1.11,4.67,4.37-.73,14.22-1.32,28.45-2.29,42.66-.32,4.74-5.3,2.43-7.74,4.13,9.87,2.28,20,2.94,30,4.15q23.68,2.87,47.43,5.13,21.87,2.1,43.79,3.6c22.38,1.52,44.77,3,67.16,4.11,14.29.74,28.6,1.22,42.9,1.29,32.63.15,65.28.5,97.9-.25q39.86-.92,79.68-3.71c20.39-1.43,40.78-2.89,61.12-4.82,25.9-2.46,51.77-5.43,77.52-9.2,6.61-1,13.26-1.7,19.89-2.54C1106,981.75,1099.24,1009.13,1091.45,1036.23ZM549.93,777.45c3.22.43,6.45.88,9.68,1,8.43.42,9.84,2.23,8.55,10.74-1.84,12.12-3.63,24.26-5.2,36.42-.49,3.85-2.17,5.43-6,5.19-3.06-.19-6.15,0-9.23,0v-.2c-3.8,0-7.62.23-11.4-.07-3.39-.27-5-1.87-4-5.85,3.59-14,7-28.07,10.21-42.16C543.5,778.24,545.91,776.92,549.93,777.45Zm-12.62,64.22c6.83.37,13.51.76,20.19,1.1,2.32.11,3,1,2.68,3.47q-2.61,22.05-4.87,44.14c-.25,2.48-1.26,3.5-3.72,3.55-10.31.21-20.63-.56-30.91.94-3,.44-4.88-.79-4-4.48,3.58-14.77,7-29.57,10.54-44.35C528.66,840,533.61,842.1,537.31,841.67Zm592.56-73.74c.22,19.3-1.9,38.64-3,58a11.74,11.74,0,0,1-.73,2.58,73.68,73.68,0,0,0-7.6.36c-27.07,4.06-54.36,6-81.64,7-19.32.72-38.7,1.28-58.12.77-31.88-.83-63.65-2.45-95.4-5.5-28.68-2.76-57.16-6.74-85.5-11.65q-49.53-8.58-98.19-21.35a1275.7,1275.7,0,0,1-126.92-40.29c1.18-9.47,2.09-19,3.6-28.4,2.08-13,2.27-13-10.39-15.39-7.51-1.41-7.87-1.13-9.41,6.15-2,9.67-3.43,19.5-6.62,28.91-29.59-12-58.9-24.53-87.54-38.65-6.16-3-12.51-5.71-18.77-8.56-2.52,13.68-6.69,26.7-15.78,37.6-5.85,7-13,11.53-22.64,10.11a5.88,5.88,0,0,0-4.06,1.09c-2.4,1.42-5.24,2.73-7.72,2.19-10.86-2.36-22.61,2.94-33-4.73-11.33-8.39-19-19.26-24.23-32-4.43-10.75-6.4-21.82-3.18-33.37,3.65-13.06,12.95-20,25.37-23.58l5.21-1.49h0l18.66-.28c7.82-2,15.53-4.67,23.78-4.23,6.86.2,13.24,2.35,19.52,4.86a12.82,12.82,0,0,0-.7-5.88c-3.86-14-7.66-28-11.53-41.92-.77-2.77-1.32-5.51,1.56-7.29,3.07-1.9,5.43-.29,7.64,2,6.11,6.2,12.25,12.38,18.5,18.44a115.61,115.61,0,0,0,9.07,7.76c1.57,1.23,3.52,2.12,5.56.95s1.63-3.09,1.61-4.87a19,19,0,0,0-.4-3.77c-2.1-9.37-4.28-18.71-6.37-28.08-2.12-9.54-4.28-19.07-6.17-28.66-.5-2.56-.76-5.46,2.4-7.14,3.36-1.78,5.06.58,6.91,2.52q9.76,10.2,19.44,20.5c2.3,2.45,5,3,7.89,1.54,2.7-1.38,2.66-4.09,2.23-6.71-2.55-15.34-5-30.69-7.73-46-.51-2.87-1.2-5.55,1.93-7.06,3.51-1.69,5.82.42,7.76,3.1,4.16,5.71,8.39,11.36,12.45,17.14,2,2.88,4.31,5.14,8.08,4.05s3.83-4.45,3.8-7.57c-.15-15,.31-30.07,1.1-45.09.16-3,.16-6,3.86-6.84s5.1,1.71,6.67,4.33c3.81,6.38,7.79,12.66,11.71,19a5.5,5.5,0,0,0,7.13,2.29c2.73-1,3.27-3.45,2.81-6.31-1.31-8.06.19-16.3-1.55-24.36a4.64,4.64,0,0,1,2.61-5.48,5,5,0,0,1,6.37,1.48c2,2.34,4.59,3.11,7.34,2s3.16-3.8,3.1-6.43c-.33-14.4.49-28.56,6.23-42.13,2-4.64-1.27-8.06-6.15-7.09C532.6,432,504.93,439.25,479,452a265.29,265.29,0,0,0-88.65,70.41c-22,26.77-33.81,57.06-34.28,91.73,4.14.42,8.31.67,12.42,1.28,13.14,2,17.81,7,19.43,20.6-.47,1-.93,2.09-1.39,3.13l-1,2.3h0q-1.23,2.53-2.47,5.07a28.92,28.92,0,0,1-2.95,1.56l-1,.42a25.6,25.6,0,0,1-3.22,1c-.27.07-.54.13-.82.18-.54.11-1.09.21-1.64.28a27.87,27.87,0,0,1-11-.83q.61,3.8,1.21,7.58a42.07,42.07,0,0,1-4.39-2.09c-21.28-13.17-42.39-26.58-63-40.77A1154.43,1154.43,0,0,1,158.48,502.75,1010.68,1010.68,0,0,1,56.62,392c-1-6.58,2.19-12.33,3.94-18.27,11.44-38.88,26.17-76.5,45.17-112.33a462.39,462.39,0,0,1,60.19-88.25C203.56,130,248.45,96.73,300,72.26c41.17-19.54,84.52-32.39,129.27-40.58,22.06-4,44.3-6.69,66.61-9,40-4.18,80-3.63,120-2.68,30.14.71,60.17,4.28,90,9.14,32.81,5.34,65,12.9,96.42,23.75C851,69.71,895.91,93.58,936,126.29c30.13,24.58,55.87,53.06,78,84.89,27.74,39.86,48.33,83.28,64.62,128.91,14.77,41.41,25.13,83.94,33,127.13q5.33,29.34,8.74,59c1.81,16,3.65,31.95,5.18,48,1.07,11.15,1.83,22.35,2.39,33.54,1.36,27.32,1.53,54.69,2.67,82C1131.71,715.85,1129.58,741.85,1129.87,767.93Z"/><path class="cls-1" d="M581.49,652.09a39.32,39.32,0,0,0-5.7-1.81c-6.7-1.53-7.28-1.13-8.32,5.76-1.57,10.37-3.06,20.75-4.62,31.11-2.13,14.11-2.15,14.1,12,16.42a5.18,5.18,0,0,1,.53.14c3.12.88,4.53-.87,4.8-3.55,1.47-14.56,2.81-29.14,4.19-43.71C584.62,653.88,584.2,653.16,581.49,652.09Z"/><path class="cls-1" d="M586.92,597.7c0-8.27-.7-9-8.67-11-3.3-.83-4.25.35-4.47,3.35-1,13.69-2.07,27.38-3.25,41.06-.36,4.23.6,7.11,5.42,7.51a19.52,19.52,0,0,1,4.22,1c3.67,1.17,5.44,0,5.66-4,.47-8.67,1.6-17.31,1.09-26Z"/><path class="cls-1" d="M584.76,535.55c-.48-7.49-1.41-8.67-8.66-10.94-3.68-1.15-4.7.07-4.33,3.48a350.45,350.45,0,0,1,2.09,40.59c0,5,4.15,8.48,10.06,8.12,5.13-.31,2.28-4.65,2.92-7.19a16.05,16.05,0,0,0,0-3.8l.3,0C586.36,555.71,585.4,545.64,584.76,535.55Z"/><path class="cls-1" d="M569.59,507.21c.24,4,6.8,8.42,10.81,7.68,1.68-.31,2-1.34,1.76-2.78-1.57-8.67-3.32-17.31-4.66-26-.65-4.29-3.38-6.16-6.89-7.46-4.23-1.58-5.53-.36-4.91,4.07C566.86,490.9,569.1,498.9,569.59,507.21Z"/><path class="cls-1" d="M553,396.14c-15.24-22-32.22-42.43-52.81-59.58-32.72-27.24-69.77-46-111.49-55a131.69,131.69,0,0,0-62.4,1.3c-33.53,8.91-59.16,29.67-81.14,55.59q-3.85,4.56-7.51,9.29c-1.85,2.39-2.2,5.13-.17,7.47,1.9,2.18,4.43,2.2,6.91.64,1.38-.86,2.79-1.69,4.18-2.53,12.39-7.53,24.79-15,37.16-22.6,2.25-1.38,4.51-2.83,7-1s2.15,4.52,1.37,7.37c-1.62,5.92-3.83,11.71-4.48,17.88,4.76-.54,9.46,1.91,14.25.3-.54-8.78,2.71-16.26,8.09-22.92a18.22,18.22,0,0,1,4.57-3.73c1.61-1,3.56-1.31,4.94.36,1.56,1.89.16,3.38-1.19,4.65-4.49,4.23-8.63,8.68-11.47,14.27a30.36,30.36,0,0,0-2.86,7l14.22-3.35c3.78-5.33,9.18-8.81,14.48-12.33a4.58,4.58,0,0,1,5.55.58c2,1.65,1.9,3.69,1,5.88-.91,2.34-1.75,4.7-2.61,7.06A39.67,39.67,0,0,1,360,369.18l22.63-16c2.71-1.92,5.79-4.18,8.88-1.79,3.26,2.5,1.34,5.93,0,8.92-3.59,8.32-7.25,16.61-10.79,24.95-1,2.4-1.51,5,.65,7.08,2.37,2.3,4.95,1.67,7.45.08l5.52-3.49c11.47-7.29,22.91-14.63,34.43-21.84,2.54-1.58,5.2-3.61,8.23-.38,2.79,3,.85,5.22-.68,7.72-3.59,5.88-7.15,11.77-10.62,17.72-1.63,2.81-3.68,5.9-1,9s5.9,1.68,9,.46q20.76-8.14,41.55-16.16c2.68-1,5.53-2.27,7.87.85,2.2,2.9.32,5.1-1.21,7.33-4.19,6.13-8.43,12.24-12.65,18.35-1.26,1.81-2.52,3.56-1.25,6,2,3.72,4.69,3.95,8.18,2.17,7.26-3.72,14.59-7.33,21.9-10.94,2.25-1.11,4.54-1.39,6.58.48a4.29,4.29,0,0,1,1.06,5.47c-1.71,3-2.46,5.86.33,8.35s5.95.68,8.65-.53c12.34-5.52,24.9-9.74,38.72-9.4,5.82.14,8-4.25,5-9.4C557,401.35,554.86,398.82,553,396.14Z"/><path class="cls-1" d="M958.2,238.85c-71.42-66.28-179.75-78.34-264.51-30.22-28.49,16.17-52.14,37.69-71.93,63.63-2.74-3.47-6.33-3.6-10.34-2.94-6.77,1.12-13.58,2-20.39,2.87-2.94.35-6,.28-7.16-3.33-1.06-3.34,1.25-4.88,3.6-6.48,12.58-8.57,25.09-17.25,37.7-25.78,2.73-1.85,5-3.7,4-7.42-1.06-4-4.29-3.78-7.44-3.77-9.25,0-18.51,0-27.76,0-3.09,0-5.51-1.07-6.53-3.88-1.13-3.11,1.67-4.42,3.66-5.89,1.46-1.07,3.07-1.93,4.61-2.89q22.92-14.11,45.82-28.25c2.25-1.39,5.4-2.75,4.74-5.93-.77-3.67-4.51-3.65-7.48-4.27a13,13,0,0,0-2.17-.09c-11.22-.35-22.44-.75-33.66-1-2.72-.08-5.17-.48-6-3.47-1-3.34,1.09-4.87,3.71-6.3,13.37-7.28,26.65-14.71,40-22,3.07-1.67,5.61-3.4,4.94-7.46s-4.23-3.67-6.82-4.1c-8.37-1.39-16.81-2.45-25.25-3.43-3-.34-6-.2-6.88-3.88s1.78-5.09,4.21-6.82C623.29,107,635.64,98.07,648,89.22c2.77-2,5.37-4,3.36-8-1.87-3.69-5-3-8-2.14-16.81,4.7-33.22,10.46-48.57,18.88-31.43,17.26-54.08,42.1-65.48,76.49-9.48,28.56-10.22,57.92-7.93,87.57a257.15,257.15,0,0,0,12.25,60c8.61,26.41,22.17,50.36,36.85,73.75a7.65,7.65,0,0,0,7.75,3.91,242.51,242.51,0,0,0,11,77c-.16,2.27,1.07,4,2.09,5.9,3.2.16,6.54,1.08,8.62-2.67a4.09,4.09,0,0,1,3.33-2.26,6,6,0,0,1,2.32.29c2.75.87,3.39,3,3.25,5.56l-.42,7.33q-.48,8.55-1,17.08c-.18,3-.24,6,3.34,7.14s5.66-1.05,7.39-3.93c.05-.08.1-.16.14-.24,3.59-6,7.37-11.83,11-17.78,1.58-2.6,3.22-5.13,6.78-4,3.11,1,3.58,3.62,3.66,6.55.41,15.38,1,30.76,1.38,46.15,0,.74,0,1.48.09,2.19.18,2.16.79,4.07,3.51,4.85a7.7,7.7,0,0,0,.87.2h0c2.85.42,4.68-1.38,6.33-3.69,4.22-5.89,8.56-11.69,12.81-17.56,1.85-2.55,3.65-5.34,7.41-3.89s3.26,4.8,2.75,7.87c-2.18,13.06-4.52,26.1-6.58,39.19-.14.87-.28,1.73-.41,2.6-.59,3.8-3.29,8.62,1.9,11.17,4.79,2.35,7.07-2.1,9.75-4.87l.1-.1c5.87-6.1,11.69-12.24,17.55-18.36,1.85-1.94,3.85-3.5,6.64-1.76,2.5,1.55,3,3.71,2.27,6.56-2.21,8.86-3.82,17.86-5.89,26.76-1,4.28-2.09,8.53-3.42,12.73-.44,6.72-2.68,13.1-3.88,19.67-.44,2.43-.82,4.91,1.31,6.54,2.55,2,4.89.2,6.84-1.37,2.54-2,4.75-4.47,7.24-6.57,3.14-2.64,5.17-6.66,9.54-7.81l4,1.2c0-2,0-4.11,0-6.16,0-1.07.05-2.13.1-3.2a32.3,32.3,0,0,1,.34-4.25q9.46,4,19.36,7.05c1.75,1,3.67,1.84,5.42,2.87,11.59,6.78,13.77,12.47,10.11,26.85l-2.38,2.17c-.43-1.55-.78-3.12-1.3-4.64-2.39-7-5.47-13.4-12.87-16.44l-.19.23c.06-.08.13-.15.19-.22-1.17-1.19-2.15-2.75-4.35-2.56.54,2.28,2.29,2.59,3.67,3.33h0c.92,2.12,3.78,2.83,4.13,5.63l-4.39.76c5.82-.72,9.87,1.81,10.15,7.32s-5.53,1.61-7.89,3.64c3.07,2.56,9.73-2.42,10.47,5-.84,1.86-2.7,2.47-4.24,3.47l-1.2,0c-1.27,0-2.53,0-3.77,0-.52,0-1-.07-1.55-.12l-.52-.05c-.76-.09-1.51-.2-2.25-.34-.38-.07-.77-.15-1.16-.25s-.68-.17-1-.27a19.53,19.53,0,0,1-3.76-1.5c-.29-.15-.58-.31-.87-.49a17.43,17.43,0,0,1-2.09-1.45c-.32-.25-.63-.52-.94-.8l-.46-.43c-1.77,2.49-2.19,5.35-2.28,8.3a90,90,0,0,1,14.14,5.78c7.22,3.36,15.38,2.07,22.79,4.56,6,3.29,12.15,6.38,17.27,11.06,5.7-12.55,8.84-25.88,11.81-39.25a236.85,236.85,0,0,0,49.84-2.59c105.29-16.69,186.09-107.55,189.71-214.66C1034.2,345.79,1009.47,286.44,958.2,238.85Zm-374,80.8a4.65,4.65,0,0,1,.69-5.54q10.93-11.57,22-23.05a4.46,4.46,0,0,1,3.43-1.31,267.21,267.21,0,0,0-15.13,30.52c-1.75.9-3.43,2-5.51,2C587.3,322.39,585.26,321.9,584.17,319.65Zm221,300.64q-5.94,0-11.8-.32c1.9-30.49-6.18-58.61-23.73-84.28-19-27.77-43.35-50.1-71.41-68.44-32.36-21.15-68.31-32.95-105.92-40.36l-.22-.05q-.75-7.72-.93-15.6c1,1.15,2.79,1.87,5.19,2,1.81.09,3.62.06,5.43.19,12.68.89,24.34,5.36,35.8,10.42,2.56,1.12,5,1.41,7-.79a5,5,0,0,0,.41-6.51c-1.55-2.4-2-4.69.2-6.88,2.42-2.41,4.93-1.36,7.47-.08,7.11,3.61,14.27,7.11,21.36,10.74,2.73,1.4,5.25,1.61,7.38-.84s1.46-4.94-.31-7.41c-4.23-5.89-8.34-11.86-12.54-17.78-1.83-2.57-3.81-5.15-1.19-8.26,2.43-2.88,5.25-1.48,8-.41q21.5,8.4,43,16.81c2.69,1.05,5.32,1.51,7.47-1s1.18-5-.33-7.46c-4.13-6.81-8.18-13.68-12.25-20.53-1.4-2.34-2-4.71.11-7,2.38-2.48,4.74-1.68,7.29,0,8.66,5.63,17.41,11.12,26.12,16.67,4.46-5.43,10.33-9.13,16-13l-5.52-13a77.59,77.59,0,0,1-17.83-23.7c-1.73-3.55-2.27-5.3,3.27-5.06,7.34.31,14.65-1.85,22.1-1.89,14.77-.07,19.28,3.34,22.72,17.68,1.69-2.31,3.26-4.72,5.09-6.9,1.51-1.81,3.83-2.8,5.71-1.13s.86,4-.71,5.7c-5.8,6.34-8.65,14-10,22.32a66.48,66.48,0,0,1,25.59-8.1c-1.13-2.86-2.18-5.76-3.42-8.57s-2.72-5.88.55-8.28,5.7-.21,8.2,1.78c12,9.61,24.17,19.14,36.21,28.75,2.39,1.9,4.87,2.58,7.45.81s2.42-4,1.6-6.79c-2.59-8.67-5-17.41-7.42-26.11-.81-2.85-1.76-5.72,1.27-7.88,2.8-2,5.08-.32,7.44,1.13q19.46,11.92,39,23.81c3,1.87,6.07,3.84,9.14.22,2.89-3.4.55-6.07-1.51-8.63a266.8,266.8,0,0,0-23.39-25.77c-37.64-35.95-81.62-50-132.81-37.56-41.78,10.16-78.66,30-110.82,58.54-20.62,18.33-37.41,39.89-52.87,62.58-.22.33-.42.65-.59,1a213.68,213.68,0,0,1,2.08-28.79A148.46,148.46,0,0,1,608,360.82a4.68,4.68,0,0,0,1-6c-1.1-2.06-2.86-3.38-5.31-2.94-2.13.39-4.05.27-5.42-.93a5.26,5.26,0,0,1-1.35-2c-1.28-3.17,1-5,3.11-6.81l1.08-.93c5.41-4.63,10.78-9.3,16.25-13.87,2.56-2.13,4.53-4.4,2.79-7.85s-5-2.76-8.08-2.23c-.63.11-1.25.23-1.87.37a214.09,214.09,0,0,1,194.94-125.5c118.22,0,214.07,95.84,214.07,214.06S923.37,620.29,805.15,620.29Z"/><path class="cls-1" d="M995.3,1047.86c.78-.83,1.25-1.35,1.75-1.85,9-9,6.24-22-5.69-26a33.76,33.76,0,0,0-23.4.33c-7.23,2.75-10.27,7.91-10,15.6.17,5.23,3.09,8.88,7,12.28-6.77,3.89-8.6,9.32-7.3,16.06,1.33,6.91,6.06,10.47,12.39,12.22a38.41,38.41,0,0,0,17.2.69c7.27-1.31,13.08-4.49,15-12.17C1004.08,1057.84,1002.31,1051.8,995.3,1047.86Zm-14.93,16.74c-2.94.08-4.28-1.71-4.26-4.41,0-2.23.83-5,3.28-4.72s4.3,2.45,4.63,5.2C983.88,1063.08,982.77,1064.53,980.37,1064.6Zm.5-23.57c-2.39-.94-4.15-2.35-4.16-5.09,0-2.49,1.48-3.57,3.83-3.5s3.78,1.31,3.77,3.69A4.7,4.7,0,0,1,980.87,1041Z"/><path class="cls-1" d="M952.71,1048.2c0-8.51,0-17,0-25.53,0-1.51.53-3.41-2.09-3.53-7.64-.35-15.15-.39-21.85,4.3-3.58,2.5-1.52,5.94-1.91,8.94-.37,2.78,2,2.54,3.72,2.54,3.15,0,2.72,2.22,2.72,4.17,0,7.6,0,15.21,0,22.81,0,15.7,0,15.61,15.79,15,2.85-.11,3.74-.9,3.68-3.73C952.6,1064.86,952.71,1056.53,952.71,1048.2Z"/><path class="cls-1" d="M904.17,1018.31a48.73,48.73,0,0,0-9.18.53c-8.09,1.08-13.19,5.86-15,13.65a67.5,67.5,0,0,0,0,31.19c1.57,6.55,5.54,11.34,12.44,13a39.81,39.81,0,0,0,15.61.56c8.36-1.28,13.14-6.25,15.18-14.2,1.27-5,1.37-10,1.61-15.12-.38-4.13-.47-8.32-1.21-12.38C921.56,1024,915.8,1018.93,904.17,1018.31Zm1.52,41c-.15,2.23-.9,4.36-3.73,4.55s-4-1.65-4.26-4a107.89,107.89,0,0,1-.2-21.71c.15-2.16,1.24-4.29,4-4.3,3.19,0,3.84,2.4,4.08,4.79.36,3.6.4,7.23.57,10.85h-.46C905.74,1052.75,905.9,1056,905.69,1059.27Z"/><path class="cls-1" d="M865.88,1062.46c-1,0-2.17.45-3.35-1,1.84-2.23,3.72-4.56,5.64-6.85a27.74,27.74,0,0,0,6.7-20.08c-.45-8.44-4.88-13.69-13.2-15.56-7.67-1.74-15.07-.15-22.55,1.39-4.8,1-5.89,3.32-4.84,8,2.17,9.63,2,9.62,11.63,8.17,2.76-.42,6.12-1.81,8,1.2s.69,6.25-1.17,9.14a49.83,49.83,0,0,1-7.07,8.91c-3.11,3-6.17,6.12-9.23,9.21s-1.06,6.85-1,10.3c0,1.75,1.77,1.5,3,1.5q16.83,0,33.68,0c1.5,0,2.64-.1,3.08-2.12C877.27,1065.5,875.17,1062.67,865.88,1062.46Z"/><path class="cls-1" d="M801,1062.87c-6.18-.08-9.22,2.27-9.36,7.22s2.82,7.58,8.91,7.65c6.25.07,9.22-2.21,9.34-7.2S807.08,1063,801,1062.87Z"/><path class="cls-1" d="M784.87,1019.07c-6.16.18-12.33.06-18.49.06H751.14c-7.48,0-7.48,0-7.9,7.31-.47,8.19-.47,8.34,7.83,8.32,3.4,0,4.81.77,4.66,4.53-.31,7.42-.14,14.87-.08,22.3.05,4.86-1.59,11.34.88,14.16,2.88,3.3,9.55.57,14.53,1.13,3.76.43,4.5-1.24,4.45-4.64-.18-10.87,0-21.76-.13-32.64,0-3.33.65-4.86,4.42-4.86,8.13,0,8.13-.22,8.5-8.19.06-1.27,0-2.55.19-3.8C788.92,1019.85,787.69,1019,784.87,1019.07Z"/><path class="cls-1" d="M732.46,1042.72c-2.41-1.24-5-2.08-7.42-3.34-1.62-.85-4.74-.85-4.12-3.43.66-2.8,3.57-1.47,5.59-1.58a12.6,12.6,0,0,1,1.62.11c3.68.22,8.35,3.2,10.67.72,2.13-2.28,1.22-7.26,2.07-11,.79-3.41-.49-4.62-3.66-4.86-4.7-.37-9.38-.9-13.93-1.34-2.5.21-4.87.25-7.18.64-9,1.52-14.57,6.76-15.88,14.81-1.49,9.16,1.81,15.83,10.11,20.26,1.75.94,3.71,1.49,5.43,2.48,2.33,1.36,7.16,1.48,6.12,4.79-1.13,3.59-5.36,1.35-8.17.85-11.8-2.12-12.28-1.72-11.86,10.76.06,2,.64,2.88,2.64,3.28,7.5,1.51,15,2.61,22.65,1.36,8.93-1.48,14.31-6.66,15.43-14.48C744,1053,741.11,1047.2,732.46,1042.72Z"/><path class="cls-1" d="M690.41,1062.73a84.12,84.12,0,0,0-8.7-.06c-2.92.06-2.48-2-2.43-3.76s-.7-3.91,2.23-4c1.63-.05,3.26,0,4.89,0,8.13-.11,7,1,7.49-7.14.3-5-1.28-7-6.28-6.24a42.61,42.61,0,0,1-6,0c-2.38,0-2.42-1.69-2.37-3.39s-.23-3.45,2.24-3.51c1.27,0,2.54,0,3.81,0,11.6,0,11.47,0,11.67-11.86,0-3-.94-3.67-3.67-3.64-10,.12-19.95.15-29.92,0-3-.05-4.13.9-4.06,4,.17,8.15,0,16.32,0,24.48,0,8.34.13,16.69-.06,25-.07,3.27.91,4.41,4.29,4.33,9.42-.2,18.86-.05,28.29-.09,1.23,0,3.37-.06,3.54-.58,1.27-4,2.15-8.29,1.21-12.26C696,1061.32,692.58,1062.91,690.41,1062.73Z"/><path class="cls-1" d="M420.59,663.94c-5.45-2.18-11-4-16.95-4.22-7.16-.38-13.85,1.91-20.64,3.68l-16.2.24h0l-4.52,1.29c-10.78,3.13-18.86,9.14-22,20.47-2.8,10-1.09,19.64,2.76,29,4.57,11.08,11.19,20.51,21,27.8,9,6.66,19.18,2.05,28.61,4.1,2.15.47,4.62-.67,6.7-1.9a5.13,5.13,0,0,1,3.53-.94c8.38,1.23,14.57-2.7,19.65-8.78,7.89-9.46,11.51-20.77,13.7-32.64C437.32,686.73,434.33,673.13,420.59,663.94Z"/><path class="cls-1" d="M757,669.81c-5.84-2-12.26-.94-17.94-3.59A70.8,70.8,0,0,0,728,661.68c-1.84-.21-3.67-.5-5.52-.6-16.19-.84-26.05,6.32-30.55,22a50.85,50.85,0,0,0-1.46,19.08c.89,9.31,3.25,18.14,8.91,25.94,5.49,7.55,15.09,7.19,22,12,1.23.85,3.31.6,5,.6a7.07,7.07,0,0,1,3.71.51c7.5,4.22,14.68,2.43,21.45-1.65a56.89,56.89,0,0,0,22.25-24.25c6.16-12.75,6.6-25.25-3.15-36.75C766.59,674.83,761.76,672.4,757,669.81Z"/><path class="cls-1" d="M351.65,374.44a33.11,33.11,0,0,0-17.87-13.78c-5.11-.81-10.23-1.53-15.42-1l-11.89,2.8-1.73.34c-4,1.34-7.93-.71-11.91-.25-1.47.31-2.93.7-4.42,1-18.44,3.23-28.2,16.6-25.8,35.21,1.33,10.33,6.05,19.1,11.47,27.81,10.18,16.4,25.89,17.08,42.45,15.85a10.3,10.3,0,0,0,3.78-1.47,6.33,6.33,0,0,1,3.86-1c8.72,1.05,15.08-3.22,19.62-9.88C355.48,412.91,360.4,394.59,351.65,374.44Z"/><path class="cls-1" d="M348.51,617.15c-1.82-.53-2.85,0-2.17,2.15,3.26,10.17,6.8,20.16,16.59,26.2a22,22,0,0,0,8.67.65c.43,0,.87-.13,1.3-.22l.64-.14a18.44,18.44,0,0,0,2.55-.82l.78-.33a21,21,0,0,0,2.34-1.23l2-4c-1.5-1.13-2.89-2.51-5-1.59a16.54,16.54,0,0,1-2.15,1.32,5.67,5.67,0,0,1-1.84,0,5.71,5.71,0,0,1,3.65-1.73l.08-.08s.07,0,.09-.07a7.45,7.45,0,0,0,.63-.64l.14-.18a2.4,2.4,0,0,0,.35-.73l0-.16c.19-1.36-1.69-2.23-2.6-3.31a4.16,4.16,0,0,0-1.2-1l-.42-.19a2.3,2.3,0,0,0-.34-.12,2.85,2.85,0,0,0-.39-.11,8,8,0,0,0-2.26-.18,4,4,0,0,0-.76-1.13l-.19-.18-.2-.17a3.81,3.81,0,0,0-.41-.29,5.13,5.13,0,0,0-.66-.34l-.23-.08a1.69,1.69,0,0,0-.27-.1l-.45-.13c-.33-.09-.66-.16-1-.23l-.52-.1-.5-.1a8.82,8.82,0,0,1-1.91-.59,2.52,2.52,0,0,0-.41-.17,1.58,1.58,0,0,0-.31-.09l-.21-.05a8.17,8.17,0,0,0-1.12-.18,17.62,17.62,0,0,1-1.95-.22l-.44-.1a3.49,3.49,0,0,1-1.2-.57l-.18-.14a3.45,3.45,0,0,1-.79-1c3.63-.13,6.94,1.64,10.45,1.87,3.91.24,6.17,3.77,9.46,4.44,4.07.83,2.92,5.36,5.86,6.58.37-.82.73-1.65,1.1-2.47-1.28-10.77-5-14.74-15.36-16.29-3.25-.48-6.55-.68-9.82-1C354.75,617.81,351.6,618.05,348.51,617.15Zm21.25,13.64-.56.56-.24-.27Zm-14.52-6.55c.21-.22.37-.23.5-.12a.38.38,0,0,1,.09.09.6.6,0,0,1,.09.13c.06.08.11.19.17.28l-1-.23A.51.51,0,0,1,355.24,624.24Z"/><path class="cls-1" d="M554.29,1029.37c-.33-2.7-1.4-4-4.21-3.45-18.1,3.6-36.37,6-54.68,8.24-3.2.39-4.25,1.91-4.44,4.92-.69,10.64-1.56,21.28-2.35,31.91l.29,0v1.63c-.07,13.24,0,13.44,13,11.72A360.6,360.6,0,0,0,556,1072.82c2.77-.81,5.26-1.68,4.44-5.45C557.68,1054.81,555.89,1042.11,554.29,1029.37Z"/><path class="cls-1" d="M497,1022.61c5-.56,8.64-.86,12.22-1.39,12.53-1.85,25.05-3.84,37.59-5.63,4.74-.68,6-2.87,5.61-7.75-.91-11.91-1.13-23.88-1.32-35.83-.06-3.84-.84-5.67-5.17-5.26-13.87,1.33-27.77,2.41-41.67,3.54-3,.25-4.53,1.87-5,4.75-2.24,14.12-4.49,28.24-6.05,42.47C492.69,1021.87,494.37,1023.17,497,1022.61Z"/><path class="cls-1" d="M810.66,364.31a55.76,55.76,0,0,0-21.54,6.82l-2,.49a7.76,7.76,0,0,0-.82.25c-6,1.49-12.21,2.17-18.06,4.32-4.8,3.28-9.74,6.39-13.49,11-2.38,5-4.45,10-4.42,15.64.1,13.67,6.44,24.51,15.18,34.28,6.09,6.81,13.09,12.2,22.17,14.61s16.78-3.27,25.41-3.1c1.3,0,2.68-1.35,3.92-2.21a6.06,6.06,0,0,1,3.25-1.43c8.75-.52,14.15-5.84,17.89-13.11a60.6,60.6,0,0,0,6.37-34.6C842.75,380.66,834.49,364.68,810.66,364.31Z"/><path class="cls-1" d="M371.36,630.48l0-.08h0Z"/><path class="cls-1" d="M733.67,617.6c.25.17.62.55.71.49.69-.44.12-.72-.19-1-.83-.83-1.46-2.21-3-1.24-.24.15-.31.58-.45.87l2.93.9Z"/><path class="cls-1" d="M458.18,1242.51c1.1.92,2.54,2.13,4.37,1.87l.09-2c-11.32-8.33-21.88-9.93-38.54-5.66,4.14.2,8.27.2,12.41.2C444.2,1237,451.79,1237.15,458.18,1242.51Z"/><path class="cls-1" d="M404,1194.42a4.34,4.34,0,0,0,3.43-2c-.35-6.09-2-11.7-6-16.47-1.26-1.52-1-5-1.14-4.92-4.92,1.49-5.63-4.46-9.21-5.1l-.56.57c2,3.86,6.41,5.8,8.21,9.66-.71,1.62-2.55.14-3.27,1.52,5.18.93,8.69,4,8,8-.85,5-5.59.67-8.34,3,1.92.49,3.6,1.26,5.28,1.26C403.74,1189.94,404.49,1191.6,404,1194.42Z"/><path class="cls-1" d="M387,1162.64c-.34,2.13,1.16,2.36,2.53,2.73l.49-.48C389.13,1164,388.63,1162.52,387,1162.64Z"/><path class="cls-1" d="M390,1164.89c-.16.16-.32.32-.49.47l1.05,1.13.56-.57Z"/><path class="cls-1" d="M780.48,346.09l.58.57c2.51-.66,3.15,2,4.88,2.74l.75-2.89c-7.41-7-7.41-7-15.37-9.33-5.08-1.51-15.22-2-19.84-1,1.39,1.6,3.32,1.36,5,1.32a47,47,0,0,1,16,2.42C775.8,341,779.73,341.59,780.48,346.09Z"/><path class="cls-1" d="M776.24,349.45h0l-1.26.6c.11.12.28.36.32.34.4-.2.79-.44,1.18-.67l2.23-1.07h0l1.21-1-.52-.53-1.2,1Zm0,0,.14.16Z"/><path class="cls-1" d="M779.4,347.15l.52.53,1.14-1-.58-.57Z"/></svg>