<svg id="Layer_1" data-name="Layer 1" xmlns="http://www.w3.org/2000/svg" viewBox="0 0 1482.72 1416.51"><defs><style>.cls-1{fill:#a62b2a;}</style></defs><path class="cls-1" d="M1250.68,887.16c-10.77-.17-21.57-.17-32.34-.07-6,.07-7.95-2.75-6.95-8.54,5-29.37,10.27-58.76,14.8-88.24l0-.28c.17-1,.32-1.94.46-2.9a28.74,28.74,0,0,1,.77-3.55l1.3-7H1219l-.88,4.22a20.22,20.22,0,0,1-.83,3.9c-.36,1.25-.82,2.74-1.38,4.43-16.81,51.73-52.07,82.25-105.49,92.17a362.38,362.38,0,0,1-54.85,5.85c-2.94.08-7-.55-6.93,4.13s4,4,7,4.05c5.22.21,10.44.21,15.64.11,5.89-.11,7.73,2,6.72,8.22-5.68,35.31-10.83,70.67-16.3,106-8.44,54.53-18.42,108.89-25,163.65-4.55,38,8.2,67,41.44,85.18,18,9.88,38.06,13.24,58.23,14.45,14.15.84,28.5,1.55,42.57-1.84,3.27-.79,8.74-1.56,3.84-6-14.34-12.86-16.54-30.08-17.66-47.37-2.18-33.44,2-66.55,7.24-99.54,5.83-37,12-74,18-111,5.55-33.91,11.21-67.79,16.72-101.7,1.15-7.2,4.09-10.88,12.3-10.27,10.37.77,20.85.21,31.27.08,3,0,7.14.65,7.48-3.63C1258.61,886.45,1253.92,887.2,1250.68,887.16Z"/><path class="cls-1" d="M936.31,888.37c-50.8-10.48-101-9.41-150.72,9.08-96.9,36-169.6,138.1-154.91,246.47,5.33,39.39,20.45,73.58,52.88,98.19,42.25,32.05,90.3,36.63,139.87,25,68.87-16.08,119.52-58.24,157.41-116.81,1.54-2.38,5.43-5.24,2.35-8.08-3.77-3.48-6.17,1-8.34,3.32-23.66,24.85-52.45,39.25-86.46,43.91-53.71,7.34-97.17-14-114-68.72-9.52-30.92-10.3-62.26-5.63-93.84,5.88-39.78,18.68-77,44-108.92,10.91-13.71,23.83-24.49,42.32-27.92,24-4.46,46.81,9,50.4,33.06,4.26,28.62-3.23,54.45-22.67,76.36-20.07,22.61-46.52,32-75.49,35.72-11.57,1.48-23.27,2-34.9,3,46.32,14.83,93.45,22.09,141.62,14.78,30.48-4.62,58.31-15.56,79-40.24,24.26-28.91,23.8-71.94-1.36-96.94C976.31,900.45,956.59,892.55,936.31,888.37Z"/><path class="cls-1" d="M459.07,841.41c-6.66,2.34-9.23,6.23-9.94,12.74-2.56,23.55,11.3,45.32,35.18,54.32C514.94,920,542,912.33,567,893c25.28-19.54,38.31-56.95,32.77-88.77l.17,0a63.46,63.46,0,0,0-1.58-6.47l-.17-.63a74.27,74.27,0,0,0-2.9-8.56,25.83,25.83,0,0,0-2.76-5.15.1.1,0,0,0,0,0c-1.17-2.31-2.4-4.57-3.67-6.74a160.81,160.81,0,0,0-16.48-23.09,1.35,1.35,0,0,1-.16-.19l-.28-.29c-17-16.83-39-26.54-62.46-32.69-74.37-19.48-145.89-9.82-214.31,24.13-16.43,8.16-32,18.1-44.45,32.13-13.71,13.45-25.7,28.1-33.65,45.85-22,49-12.76,100,24.36,138.54,30.69,31.84,69.17,52,106.92,73.38,34.38,19.52,70.44,36.1,101.21,61.8,43.28,36.1,55.14,82.74,31.67,129-17.49,34.47-44.8,58.19-80,72.78-54.15,22.48-110,25-166.5,10.48-33.5-8.62-62.67-25.41-84.11-53.05-39.23-50.59-46.27-106.06-21.28-164.83,16-37.68,42.14-64.17,85.31-69.29,25.66-3,52.46,10.36,60.69,31.07,13.72,34.49-6.3,74.55-42.61,85.3-18.16,5.37-18.87,6.33-17.54,25.49a44.8,44.8,0,0,0,4.37,17.08c11.42,22.69,29.87,35.35,55.18,36.91,36.7,2.28,68-9.66,87.81-41.42,25.26-40.42,13.44-94.8-24.06-124.55-32.13-25.49-68.49-36.79-109.31-36.81-72.86,0-136.79,52.15-143.93,126.54-5.34,55.78,13.84,100.84,56.18,136.43,39,32.74,85.52,45.2,135.12,47.89,66.08,3.62,128.84-9.43,186.81-41.65,55.6-30.87,99-73.32,122.18-134.22,27.22-71.44,8.77-141.84-50.57-190.29-24.13-19.71-51.4-34.26-78.94-48.38-31.19-16-63.34-30.33-91.88-51-25.28-18.37-40.9-41.67-34.65-74.74,0,0,0-.34.16-.94a54.56,54.56,0,0,1,2.15-7.29,51.09,51.09,0,0,1,5.2-10.4c13.43-23.42,34.51-36.59,59.65-43.82A90.48,90.48,0,0,1,453,724.06c20.13,7,32.51,20.65,38.61,40.27l.06.19a47.43,47.43,0,0,1,2.55,12.09,87.23,87.23,0,0,1,.29,11,4.35,4.35,0,0,1,0,.53c0,.62,0,1,0,1h0c0,.46,0,.94,0,1.42C494.88,814.69,481.58,833.52,459.07,841.41Z"/><path class="cls-1" d="M859.07,1352c-5,.28-6,3.88-7.33,7.51-4.07,11.34-8.17,22.68-13.23,36.72-5-13.35-9-23.94-12.83-34.59-1.82-5-3.28-9.71-10.28-9.7-6.7,0-7.71,4.73-9.38,9.25-4,10.83-8,21.67-12.87,35-5.48-15-10-26.94-14.24-39.05-2.36-6.81-7.68-5.53-12-4.08-5.2,1.76-1.62,6-.62,8.74,5.36,15,11.17,29.9,16.54,44.93,1.67,4.68,3.59,7.83,9.32,7.87s8.71-2.15,10.57-7.65c3.64-10.79,8-21.33,13-34.46,5.25,13.39,9.76,24.53,14,35.79,1.52,4.09,3.66,6.32,8.32,6.1,4.34-.21,8-.33,9.86-5.52,5.86-16.31,12.16-32.47,18.28-48.69C868.83,1353.05,865.24,1351.68,859.07,1352Z"/><path class="cls-1" d="M573.71,1323.85c-9.18-.11-7.31,6.32-7.47,11.6-.14,4.86-.19,9.73,0,14.59.29,6.23-1.65,6.71-7.26,4.43-14.07-5.72-26.91-1.84-35,9.6-8.67,12.21-8.38,29.22.69,40.84,8.43,10.78,22,14,35.55,8,3.34-1.48,5.39-2.14,9.13.35,6.8,4.54,11,1.79,11.11-6.42.19-12.16,0-24.32.06-36.48,0-11.81.12-23.63-.06-35.44C580.41,1330.09,582.39,1323.94,573.71,1323.85Zm-24.63,78.64c-10.15-.23-17.14-7.62-17.13-18.1,0-11.49,6.9-19.09,17.33-19.14,10.18-.06,17.05,7.76,17,19.3C566.15,1395.44,559.19,1402.72,549.08,1402.49Z"/><path class="cls-1" d="M1077.18,1397.53c-13.73-17.91-13.61-17.81.93-34.37,2.16-2.46,8.23-4.75,4.85-8.69-2.86-3.34-8.56-1.92-12.71,0-2.08,1-3.63,3.15-5.32,4.88-5.73,5.86-11.41,11.76-17.12,17.64l-2.56-.94c0-13.68,0-27.36,0-41,0-5.4.39-10.88-7.32-11.08-8-.22-7.4,5.64-7.41,10.85,0,21.53-.31,43.06.18,64.58.13,5.67-4.24,14.9,6.21,15.86s7.77-8.07,8.52-14.14c.56-4.53,3.23-8.09,7.27-9.42s5.63,3.25,7.74,5.67c4.11,4.7,7.46,10.07,11.74,14.58,3.66,3.85,9.44,5,13.23,1.73,4-3.43-1.59-6.46-3.22-9.49C1080.91,1401.74,1078.87,1399.74,1077.18,1397.53Z"/><path class="cls-1" d="M657.55,1356.38c-13.21-7.84-30.58-5.31-39.81,6-9.9,12.13-9.49,31.85.91,43.31s28.42,14.09,40.87,5.75c3.19-2.13,8.35-4.07,5.05-9.54-3-4.9-6.64-2.66-10.72-.76-9.85,4.58-21,2.15-25.48-4.82-2.62-4-2.16-6.6,3.1-6.77,5.55-.18,11.12,0,16.68,0h6.26c17.51,0,20.79-5.93,12.4-22.21C664.55,1362.93,662,1359,657.55,1356.38Zm-1.41,20.3c-3.88,4.4-9.74,1.36-14,2.24a37.74,37.74,0,0,1-5.81-.05c-3.4-.59-8.59,2.09-9.65-3-.93-4.48,3.25-7.16,6.81-9.39a11.66,11.66,0,0,1,2.82-1.25c6.57-2,12.18,0,17.12,4.39C655.55,1371.54,657.85,1374.74,656.14,1376.68Z"/><path class="cls-1" d="M911.72,1351.56c-17.84.19-30.84,13.81-30.87,32.34,0,19,13,32.46,31.67,32.6,17.24.13,31.23-14.37,31.16-32.31C943.61,1365.27,930,1351.37,911.72,1351.56Zm-.45,51.19c-9.61-.4-16.94-8.55-16.92-18.81,0-10.82,7.69-18.74,18-18.64s17.36,7.86,17.15,19.28C929.35,1395.66,921.77,1403.19,911.27,1402.75Z"/><path class="cls-1" d="M428.59,1398.9c-8.92,5.79-18.45,3.92-24.22-3.41-5.27-6.7-5.17-17.77.7-24,7-7.49,15.45-7.71,23.53-2.44,4.8,3.12,8.24,3.31,11.31-1.28,3.81-5.69-1.13-8.22-4.77-10.49-10.44-6.51-21.41-8-32.48-1.63-10.86,6.22-15.87,16-16.17,28.81.3,11.91,5.14,21.77,16.27,27.73,11.37,6.08,22.68,5.65,33.34-1.87,3.23-2.28,7.87-4.58,4.54-9.83S433.8,1395.51,428.59,1398.9Z"/><path class="cls-1" d="M1143.58,1379.45c-1.95-.73-4.11-1.08-5.88-2.1-3.82-2.21-10.93-2.72-7.86-9.6,2.62-5.86,8.18-3.66,12.83-2.11a13.1,13.1,0,0,1,3.58,2.1c3,2.24,5.51,2.43,8-.91,2.71-3.7,1.47-6.52-1.65-8.92-8-6.14-16.93-8.51-26.37-4.57-6.54,2.73-11.72,7.48-12,15.54s3.5,13.2,10.56,16.31c4.76,2.1,9.62,4,14.39,6.07,3,1.31,5.71,3.27,5.1,7-.7,4.29-4.51,5-8,5.22-5,.25-9.41-1.86-13.54-4.68-3.66-2.49-6.65-1-8.74,2.43s-.65,6.1,2.25,8c6.12,4.1,12.52,7.57,18.6,7.24,12.74.06,22.14-6.48,23.74-15.34C1160.35,1391,1155.47,1383.93,1143.58,1379.45Z"/><path class="cls-1" d="M722.89,1352.84c-4.38,1.77-7.52,3.11-12.69.81-5.78-2.57-10.72.06-10.25,8.13.41,7.26.08,14.57.08,21.85h0c0,6.94,0,13.88,0,20.81-.05,5.44-.32,10.61,7.62,10.61s6.65-5.35,6.71-10.09c.1-8.32-.06-16.65.18-25s3.76-14.22,12.81-14.66c6.17-.3,11.39-3,9.73-9C735.14,1349.62,728.06,1350.75,722.89,1352.84Z"/><path class="cls-1" d="M1002.28,1353.61a12,12,0,0,0-11.9-.92c-4.68,2-8.51,3.89-14.25.94-5.13-2.65-10-.12-9.55,7.5.42,7.25.09,14.53.09,21.8h0c0,6.92-.07,13.85,0,20.77.08,5.33-1.5,11.49,7.61,11.36,8.58-.12,6.82-5.93,6.9-10.84.15-8.65,0-17.31.16-26,.11-7.73,3.91-12.82,11.8-12.83,4.72,0,8-.46,9.82-5.27C1003.85,1357.72,1004.71,1355.28,1002.28,1353.61Z"/><path class="cls-1" d="M486.81,1360.46c.07-5.44-2.19-7.28-7.34-7.41-5.63-.15-7.16,2.59-7,7.63.19,7.59.05,15.19,0,22.79q0,12.43,0,24.86c0,4.51,1.74,7.17,6.75,7.06s7.68-1.68,7.6-7.27Q486.49,1384.29,486.81,1360.46Z"/><path class="cls-1" d="M479.46,1325.63c-4.64.28-7.64,3.17-7.42,8.2.22,5.19,4,7.09,8.36,7.31,5.35.27,6.55-4,7.64-8.05C487,1328.38,484.19,1325.34,479.46,1325.63Z"/><path class="cls-1" d="M270.38,602c51.4,55.07,116.64,76.72,190.26,77.4,26.91-.18,53.5-3,79.56-9.55C635.78,645.84,712,593,769.3,513.27c57.47-80,84.57-169.5,73.8-268-8.65-79.16-48.65-140.34-119.77-177.17C641.05,25.5,554.43,23.65,467.24,51.72c-48.79,15.71-86.84,46.19-110.55,92.59a47.5,47.5,0,0,1-14.37,17.14c-32,24-59.72,52.16-81,86.11-43.69,69.58-57.92,146.05-49.42,226.79C217,523,236.81,566,270.38,602ZM628.06,155.4c-22-27-52.67-33-85-26.65-31.87,6.22-54.51,25-63.42,57.69a37.6,37.6,0,0,0-1.11,5.09c-2,15.81-1.89,16,13.65,19.4,21.43,4.68,38.29,24.1,40.3,46.4,4.24,47.13-25.79,78.26-73.11,75.92-23.24-1.15-44.23-8.41-62.71-22.6-3.08-2.36-6.51-4-4.75-10C410,240.05,433,181.81,473.27,131.9a225.71,225.71,0,0,1,34-33.72C519.77,88.06,534,80.91,549,74.61c-6.51-4.15-6.56-4.3-44.14,7.49-14.9,4.67-29.69,9.77-44.26,15.4-14.23,5.5-28.32,11.5-42.09,18.07-14.09,6.71-27.72,14.38-44.43,23.13,14.23-24.3,31.83-41.31,52.49-54.9,46.11-30.34,96.69-45.28,152.14-40.17C626.69,48,659,74,676.47,118.37c17,43.18,18.18,88.42,13.72,133.63C680,355.13,647.85,451.45,595.71,540.91c-25.89,44.43-56,85.62-101.16,113-20.83,12.61-43.27,19.28-67.71,14.18-22.83-4.76-37.69-19.77-47.63-40.13-15.34-31.44-18.54-65.36-18.87-99.54-.67-69.15,8.17-137.22,25.58-204.16.92-3.55.39-8.49,6.67-4.72,55.58,33.29,111.35,24.61,166.47-.56,34.38-15.7,62.78-39,77.72-74.95C649.55,213.31,650.1,182.46,628.06,155.4Z"/><path class="cls-1" d="M1080.78,769.18a8.64,8.64,0,0,1,1-.46,11.05,11.05,0,0,1,1.23-.52l.11,0a31.4,31.4,0,0,1,14.05-1.84c6.51.5,8.47-2.17,9.85-7.58,4.14-16.35.92-30.9-10.08-43.61-20.52-23.7-61-28.19-90.63-9.9-26.62,16.39-35.26,41.25-33,71.11l25.41.12q13.13.1,26.22.15H1069A66.45,66.45,0,0,1,1080.78,769.18Z"/><path class="cls-1" d="M1374.63,26.19C1358.18,11.12,1338,3.85,1316.05,1.45c-39.29-4.3-76.6-.23-107.19,28.29-18.81,17.54-29.5,40.11-37.81,64-10.56,30.31-15.2,61.94-20.87,93.32-.82,4.57-.44,9.65-7.92,9.56-30.25-.31-60.52-.16-90.77-.18-2.63,0-5.45.89-6-3.55-1.59-12.7-11.61-19.29-20.32-26.6-9.83-8.27-20.16-16-28.68-25.72-17.67-20.15-23.51-43.39-15-68.84,8.66-26,25.65-44.34,53.86-49.6,22.38-4.18,37.54,11.61,32.84,33.82-3.3,15.64-15.41,25.47-32.53,24.7-6.64-.31-8.72,2.55-10.06,7.58-4.47,16.78-.58,31.71,10.84,44.51,15.17,17,34.76,21.57,56.72,19.71,33.36-2.84,60.46-26.39,65.41-57.4,5.57-34.86-8.52-62-40.86-74.38-34.68-13.28-70.17-13.11-105,.08-34.3,13.05-52,41.3-64.2,73.87-11.19,29.75-15.93,61.06-21.23,92.15-1.38,8.08-4.4,10.48-12.07,9.85-7.24-.6-14.59-.08-21.9-.18-3.44,0-6.2.27-6.24,4.78-.06,4.69,3.34,3.46,5.8,3.52,5.91.17,11.82.13,17.73.11,14.18,0,14.18,0,11.63,14.09-.06.34-.17.67-.23,1q-16.29,100.16-32.53,200.3c-9.6,59.23-19.33,118.46-28.56,177.73-2.59,16.7-7,33.34-3.34,50.63,4.28,20.56,16.74,36.39,29,52.34,11.4,14.76,20.48,30.48,23.57,49.27a14.85,14.85,0,0,1,.19,1.75l-1,13.45a.82.82,0,0,1,0,.23l-.84,11-.29,3.7-.57,7.41c-.41,1.6-1,3.44-1.64,5.55-6.1,19-19.21,29.27-37.06,29.1-19-.16-30-13.73-26.35-32.46.88-4.36,2-8.69,3-13l.33-.27s2.72-3.19,10-7.75c0,0,0,0,0,0a20.12,20.12,0,0,1,2.26-1.35,30.75,30.75,0,0,1,16.18-3.57c8.91.31,10.37-4.2,10.37-11.42a62.31,62.31,0,0,0-38.6-57.9c-60.17-25.07-118.12,17-112.86,81.95v.08a72.73,72.73,0,0,0,8.5,25.7c.25.42.48.84.71,1.25s.62,1.07,1,1.61c.66,1.09,1.37,2.15,2.13,3.24l1.16,1.6c.3.4.61.8.92,1.19l.21.3a3.47,3.47,0,0,1,.25.29c.17.19.34.4.48.58l.69.84h0c7.6,8.77,17.73,15.49,29.21,20.67,49.25,22.27,109,6.76,144.22-33l0-.06a118.39,118.39,0,0,0,12.74-17.25l5.11-6.93.15-.19c30.54-49,40.29-104.3,48.79-160.13,11.06-72.69,23.17-145.22,34.78-217.83,9.92-62,19.9-124,29.42-186.1,1-6.6,3.55-7.71,9.31-7.64,24.68.2,49.37.54,74-.17,9.4-.27,9.94,3.69,8.75,10.92q-10,60.55-19.79,121.17-18.3,113.55-36.46,227.08c-2.48,15.41-4.23,31-7.87,46.14-5.88,24.7,2.07,44.16,19.52,61.17,12,11.63,24.7,22.45,35.25,35.5,11.62,14.4,18.45,30.08,18.16,47.55a118.32,118.32,0,0,1-4.2,22.53c-.35,1.15-.73,2.3-1.12,3.45-.13,1.35-1,3.25-2.47,5.88a2.4,2.4,0,0,1-.21.38,32.16,32.16,0,0,1-2.88,4.82c-11.59,18.87-27.43,32.38-50.67,33.63-20.5,1.11-30.42-9.35-28.68-29.79.52-6.11,2.73-12.11,4.17-18.14l-43.78-.23H973.24c4,19.5,13,36.08,31.65,44.72,46.2,21.52,92.15,20.69,135.74-6.51a76.44,76.44,0,0,0,22-19.9h0a.06.06,0,0,1,0,0,.46.46,0,0,1,.08-.13.94.94,0,0,1,.09-.12c.08-.15.23-.36.4-.63s.18-.31.29-.48l.37-.58c.8-1.28,1.92-3.13,3.26-5.43a.15.15,0,0,1,0-.08c1.73-3,3.82-6.66,6-10.82h-.79c-.4.06-.79.15-1.19.21-1.36,0-2.73-.13-4.09-.21h-7.08a1.23,1.23,0,0,0-.27,0,17.24,17.24,0,0,1-3.36.11l-.77-.11a.16.16,0,0,1-.09,0h4.49c.5,0,1-.08,1.55-.1a48.73,48.73,0,0,1,5.53.1h5.28c.29-.06.58-.1.88-.15v0c1.63-3.07,3.32-6.43,5-9.91l.06-.13a1,1,0,0,0,.06-.14,151.3,151.3,0,0,0,8.56-22.2s0,0,0-.06,0,0,0-.06c1.17-3.45,2.26-6.93,3.24-10.46,11.48-41.63,16.85-84.39,23.78-126.85,11.77-72.28,23.09-144.64,34.67-216.94,9.48-59.29,19.19-118.54,28.4-177.9,1-6.14,3.32-7.18,8.62-7,11.82.25,23.65,0,35.47,0,3.15,0,6.39.31,6.74-4.3.44-5.62-3.86-4-6.43-4-14.26-.17-28.51-.25-42.77.1-6.14.17-10.55-.16-11-8.06-.35-5.61-3.94-10.33-7.78-14.46-10.4-11.19-21-22.17-31.4-33.43-14-15.22-23.43-32.53-25.14-53.65-3.17-38.9,30.69-77.73,67.1-76.54,12.11.38,20.42,6.83,23.36,18.5,7.87,31.15-11.59,52.07-37.22,49.37-5.43-.56-7.25,1.71-8.79,6.33-5.74,17.18-3,33.13,7.35,47.45,18.64,25.66,50.37,34.53,86.43,23.91,28.14-8.29,47-26.66,54-55.45C1402.46,72.12,1396.76,46.51,1374.63,26.19Z"/></svg>