<svg id="Layer_1" data-name="Layer 1" xmlns="http://www.w3.org/2000/svg" viewBox="0 0 1721.28 1416.51"><defs><style>.cls-1{fill:#a62b2a;}</style></defs><path class="cls-1" d="M688.54,246.25c29.58,43.58,44.21,93.2,57.1,143.44a928.13,928.13,0,0,1,20.29,103.56c1.21,8.79,4,12.13,13.51,11.78,25.37-.93,50.8-1,76.19-.63,7.79.1,10.21-2.43,8.77-9.64-1.52-4.91-3-9.85-4.58-14.74-10.27-31.78-3.18-51.18,26.31-66.82,23.23-12.33,47.33-23,70.91-34.67,25.87-12.82,52.81-24,74.73-43.48,14.33-12.75,16.53-23.13,8.71-35-8.73-13.28-17.67-15.09-36.16-7.34-8.54,7.5-17.83,13.89-29.3,15.53-5.61.8-11.29-.48-14.47-6.33-8.31-8.22-3.45-16.36.9-23.77,8.42-14.34,20.08-26.19,31.3-38.35,23.82-25.79,49.24-50.37,66.11-81.7,18-33.34,7-61.81-28.82-73.44-36.46-11.82-72.18-8.52-106.44,9C890,124.55,884.35,167,876.52,208.47c-3.81,20.23-5.37,41-12.75,60.38C857.9,284.26,850.18,288,836,283.74c-19.28-11-24.56-31.44-13.44-51.46,5.76-10.35,12.16-20.48,16.65-31.38,9.07-22.05,5.38-39.11-9.15-48.71-19.58-12.92-43.08-11.57-59.75,3.42-6.11,13.26-7.39,27.49-8.65,41.77-.82,9.33,1.62,23-9.72,24.65-9.56,1.39-14.74-10.61-18.62-19.63-4-6.54-8.34-12.94-12.09-19.65-18.71-33.44-37.62-66.79-60-97.92C618.09,25,541.42,22,493.79,77.88c-25.64,48.55,5.36,93.78,43,106.6a446.59,446.59,0,0,0,87.49,20.35C653,208.51,673.05,223.43,688.54,246.25Z"/><path class="cls-1" d="M1087.32,558.91c-12.16-12-24.49-23.76-36.76-35.61H874.1c4.54,6.81,6.66,13.67,6,21.07-3.52,41.32,1.38,82.47,3.6,123.59,1.48,27.4-2.39,56.08,11.81,81.83,34,34,42,75.7,35.79,121.55a17.29,17.29,0,0,1,.54,3q.3,166.36.42,332.73c0,12.53-2.75,24.51-12.88,33.74-39.7,36.17-124.86,45.52-172.84,18.73.64-14.43,1.82-28.86,1.84-43.29q.23-172.49,0-345c0-16,3.13-30.22,12.15-44C773.29,808,786,787.77,789.11,764.24c6.87-51.3,10.61-103,12.82-154.65,2-45.57,1.08-45.61-30.83-78.33a59.67,59.67,0,0,1-3.83-4.8l-6-3.31h0l-21-1.52c-5.68.21-11.36.59-17,.6-43.54,0-87.07-.07-130.6.21-4.15,0-11.34-3.76-11.62,5.38-.9,28.15-3.11,57,23.66,76.25C616.15,612.33,619,622.4,619,635.9q-.51,279.86-.19,559.71c0,20.75,1.85,41.32,7.31,61.45,10.11,37.29,33.8,64.48,64.22,86.7,0,2.11.76,3.32,3.07,3l0,.07c10.47,20.3,28.6,32.59,48,41.91,74.78,35.85,151.28,36.7,226.95,4.27,44.39-19,71.82-54.68,83.21-102.17,4.52-18.84,5.36-37.89,5.36-57.08q0-278.4-.06-556.8c0-10.7.51-20.79,10.11-27.86,29.48-21.71,24.89-53.38,24.2-83.8C1091.18,563.12,1089.07,560.63,1087.32,558.91Zm-327.15-.28-.06-.45Zm.9,8.2c-.05-.61-.1-1.23-.16-1.84C761,565.6,761,566.22,761.07,566.83Z"/><path class="cls-1" d="M158.39,718.8c10.34.07,21.85,1.86,29.08-7.14,6.93-8.64,15.14-9,24.72-9q122.88.27,245.77-.06c11.28,0,21.13.61,29,10.43,5.75,7.22,14.94,5.68,23.24,5.9,5.85.15,8.3-1.53,8.21-7.86-.32-21.77-.12-43.55-.15-65.33,0-3.54.73-7.83-4.83-7.8-8.69.06-19.25-2.94-25.08,4.6-10,13-23.11,11.43-36.43,11.39-19.7-.05-39.41.26-59.11-.07-34.66-.59-29.8,6.32-30-30.44-.12-24,9.5-33.8,33.67-34.62,16.05-.54,32.14-.1,48.22-.12q24.88,0,49.77,0c14.53,0,22.25-8.06,23.4-21.71,1-12.36.26-24.86.44-37.3.07-4.23-.94-7-5.87-6.9-12.19.25-25.58-3-32.87,11.3-3.28,6.44-9.18,5.72-14.83,5.73-21.78,0-43.56-.32-65.33.11-20,.4-39.49,3.32-53.63,19.7-5.24,6.08-8.9,4.8-13.83-.36-11.18-11.68-25.11-18.66-41.27-19-25.37-.57-50.81-2-76.1,1.25-34.5,4.42-58.18,28-60,62.69-1.83,35.16-1.15,70.45-1.47,105.69C153.06,713.71,151.78,718.75,158.39,718.8Zm88.14-130.09c13.48,0,27-.38,40.43.09,25.48.9,35.12,11.19,35.18,36.71.05,28.43.05,28.43-29.11,28.43H258.81c-17.62,0-35.25-.21-52.87.08-7.88.13-10.55-2.74-11-10.88C192.59,596.06,199.31,588.71,246.53,588.71Z"/><path class="cls-1" d="M1566.08,701.86c-1.12-38.17-12.61-74.45-37-105.12-14.65-18.41-31.91-33.68-55.84-39.12-40.2-28.51-85.58-36.28-133.85-35.6-70.43,1-140.88.24-211.32.25-25,0-24.54,0-25.07,25-.5,23.49,4.23,44.81,25,58.44,12.33,8.11,16.88,18.15,16.73,32.37-.42,43-.14,86-.14,129q0,241.62,0,483.25c0,12,.72,24.16-10.86,32.11-29.3,20.12-29,50.23-27.58,80.83.23,4.93,2.6,6.13,6.81,5.75,12.14,7.63,24.08,18.11,38.43,18.36,59,1,117.94.42,176.91.39,4.1,0,8.4.64,8.7-5.75,1.39-29,1.26-57.57-25.59-77-9.29-6.73-13-15.49-13-26.54q.35-99.29.59-198.59a4.3,4.3,0,0,1-.66-1.39c-3.41-55.54.9-47.58,41.86-48.22,37.11-.57,74.56,3.66,111.09-6.29,12.89-3.51,25.45-8.2,38.16-12.35,47.27-27,69-70.14,74.7-122C1571,827.16,1567.9,764.39,1566.08,701.86ZM1411.6,848.92c-3.65,45.52-27.44,65.87-73.23,65.87-12.91,0-25.82-.11-38.74-.17-2.47-78.71-1.25-157.44-.57-236.16-2.89-6.46-1.31-13.27-1.37-19.9-.12-13.94,7-20.82,21.09-20.78,24.82.07,49.65-.17,74.48-.28,20.19,23.92,21.41,52.26,19,81.46C1413.63,762.29,1415.06,805.7,1411.6,848.92Zm-154,51.23c1.4,7.91,4.54,11.64,11.57,13.32-7-1.68-10.17-5.41-11.57-13.32-.23-1.35-.42-2.81-.57-4.4C1257.21,897.34,1257.4,898.8,1257.63,900.15Zm12.62,13.56.27,0ZM1376.6,623.52c-.66-.32-1.34-.62-2-.9C1375.26,622.9,1375.94,623.2,1376.6,623.52Zm9.37,6a4.82,4.82,0,0,0-.43-.36A4.82,4.82,0,0,1,1386,629.55Zm-2.12-1.7c-.66-.49-1.34-1-2-1.41C1382.51,626.89,1383.19,627.36,1383.85,627.85Zm-13.37-6.71c-.92-.29-1.86-.55-2.81-.79C1368.62,620.59,1369.56,620.85,1370.48,621.14Z"/><path class="cls-1" d="M518.25,783q0-12.44,0-24.88c0-18.05-3.15-20.45-20.77-16-5.65,1.42-11.26,3.53-14.66,8.21-5.73,7.89-13.74,10.22-22.63,11.77-94.3,16.45-188.56,33.17-282.9,49.38-15.26,2.62-23.38,10.86-24,25.63-.76,19.15-.26,38.35-.26,57.54,0,3.53-.67,8,4.59,8.17,9.76.27,21.45,2.92,28-5.32,7.43-9.34,15.46-8.56,24.65-6.85q125.11,23.28,250.21,46.73c8.12,1.52,15.8,3.38,21.55,10.74,6.51,8.34,16.38,9.75,26.64,10,7.6.2,9.81-2.53,9.68-9.87-.37-21.24-.17-42.51-.1-63.76,0-4.44,0-8.49-6-8.57-9.88-.14-20.41-1.19-27.34,7.53-5.38,6.76-11.66,7.52-19.22,6.62-9.76-1.16-19.55-2.24-29.36-2.87-8.41-.55-11.73-4.48-11.51-12.94.41-16.06.1-32.14.13-48.21,0-4.65-.64-10.67,4.93-11.84,13.6-2.88,27.43-4.7,41.2-6.73,8.37-1.23,11,6.67,16,10.7s11.22,5,17.37,6c10.49,1.71,15.22-1.73,14-13.15C517.49,801.7,518.25,792.29,518.25,783ZM383.4,836c-.67,7.71-.11,15.53-.12,23.3,0,20.39-.62,20.87-21.26,17.39l-148.29-25-.19-3.11c26.76-4.74,53.5-9.56,80.28-14.18,24.46-4.21,49.05-7.72,73.4-12.47C379.9,819.43,384.51,823.35,383.4,836Z"/><path class="cls-1" d="M518.25,1281.63c0-17.51-3.57-20.18-21-16.34-6.47,1.43-11.27,5.24-15.26,10s-9,6.18-15.06,6.15c-30.05-.19-60.1-.45-90.14.11-10.6.19-13.55-4.19-13.19-13.85.45-12.42.53-24.89-.11-37.29-1.94-37.25-24-60.37-61.24-63.78a457.14,457.14,0,0,0-86.83.17c-36.63,3.64-58.59,25.75-61,62.39-1.25,19.06-.22,38.27-.22,57.42h-1.17c0,17.09-.09,34.19.07,51.28,0,3.76-1.78,9.31,4.5,9.73,10.85.72,23,2.1,30.12-7.91,6.62-9.35,14.87-9.53,24.37-9.52q120.43.15,240.89-.06c13.1,0,25.54-.68,35,11.23,3.87,4.9,10.77,5.11,17.16,5.62,9.68.77,13.94-1.68,13.37-12.53C517.57,1316.89,518.26,1299.24,518.25,1281.63Zm-228.48-.27H258.7c-16,0-32.15-.76-48.13.25-12.81.81-17-4.28-15.45-16.2.45-3.57.07-7.24.07-10.87,0-31,9.09-40.41,40.65-40.34,20.14,0,40.41-2.13,60.41,1.39,19.62,3.46,26.13,11.75,26.42,31.82C323.17,1281.36,323.17,1281.36,289.77,1281.36Z"/><path class="cls-1" d="M207.67,980c-11.91.4-23.91.9-35.76-.09-14.84-1.24-19.21,5.84-19,19.23.39,22.29.11,44.59.11,66.89q0,31.11,0,62.22c0,20.79,3.88,23.61,24.6,18.24,5.19-1.35,10.18-3.18,12.79-8,3.57-6.6,9.23-7.39,15.77-7.39q129.1.09,258.21.05c5.72,0,11.62-.37,15.26,5.39,7.29,11.53,18.89,11,30.38,11.23,6,.14,8.28-2,8.26-8-.15-48.74.08-97.48-.24-146.22-.06-9-5.34-13.86-15.17-13.51-13,.46-25.93,0-38.89.16-2.92,0-6.23-1-8.46,2.17-5.46,7.77.75,37.1,9.82,39.14,12.67,2.84,13.07,10.27,12.43,20.17a146.36,146.36,0,0,0,.05,24.86c1.29,12.06-2.59,16.6-15.35,16-22.25-1-44.58-.28-66.87-.28-44.35,0-44.35,0-44.35-44.53,0-30.54,0-30.27-30.76-28.28-8,.52-11.06,3.41-10.92,11.27.29,16.07-.33,32.16.22,48.21.35,10.06-3.27,13.69-13.48,13.51-29.55-.51-59.11-.15-88.67-.23-3,0-6.45.12-8.94-1.21-6.4-3.44-6.24-55.6.38-56.76,23-4,15.66-21.69,17.37-35.47C217.36,981.77,214.28,979.78,207.67,980Z"/><path class="cls-1" d="M1551.19,1319.76c0-30-.82-31.11-30.36-41.16-2.26-4.31-5.6-7.61-10.29-8.81a201.89,201.89,0,0,0-99.73-.52c-8.72,2.16-12.4,7.93-12.24,17.1.35,20.7.47,41.43-.1,62.13-.23,8.61,3.83,13.41,10.48,17.23,2.58,5.37,7.15,9,12.13,11.51,39.13,19.3,79.53,17.73,120.23,6.14,8-2.27,10.19-9.1,10-17.22C1550.92,1350.7,1551.19,1335.23,1551.19,1319.76Z"/><path class="cls-1" d="M738.93,85.09c5.82,6.48,10.29,6.53,17.23-.14,11.91-11.46,25.07-23.59,39.24-30,16.81-7.67,25.31-24.08,41.57-31,2.79-1.19.35-5-.89-6.56-3.1-3.95-6.48-8-12.28-8.14-.15-2.28-1.56-2.81-3.56-2.52-10.61-8.1-21.41-9.37-32.6-1.09-19.49,14.42-38.8,29.09-58.62,43C720,55,722.78,63,724.18,70.92S728.68,85.93,738.93,85.09Z"/><path class="cls-1" d="M1148.24,233.16c-3.37-9.14-8.16-17.57-18.89-18.12-12.49-.64-20.79,7.83-24.69,18.09-6.06,15.94-13.91,30.85-23.41,47.25,21.64-3.45,41.8-5.31,58.33-18.25C1148.88,254.85,1152.61,245,1148.24,233.16Z"/></svg>