<svg id="Layer_1" data-name="Layer 1" xmlns="http://www.w3.org/2000/svg" viewBox="0 0 1040.9 1359.99"><defs><style>.cls-1{fill:#fff;}</style></defs><path class="cls-1" d="M806.56,1011c23.58.4,47.18,0,70.77.14,22.66.1,45.32.36,68,.52,5,0,5.73-.72,5.75-5.63.05-21.36-.24-42.72-.51-64.07-.56-43.94.41-87.89-.64-131.84-.55-23-.1-46.05-.1-69.08h-.13v-46.3c0-8.41,0-16.83,0-25.25,0-2.32-.59-4.19-3.35-3.54-3.06.71-5.53-.37-7.92-1.9-4.33-2.78-8.51-5.79-13.14-8a14.6,14.6,0,0,1-7.22-6.91c-3.82-8.56-11.66-13.83-17-21.24-3.8-5.31-9.59-9.42-15.07-13.49-7.12-5.29-14.64-10.07-21.14-16.19-2.55-2.4-5.85-3.41-9.07-4.4s-5.31.54-5.21,4c.09,3.26.21,6.54.26,9.79.07,4.62.32,9.47-.67,13.85a20.28,20.28,0,0,0,0,10.49,12.15,12.15,0,0,1,.39,3.13c.28,10.25-.46,20.5.6,30.77.73,7-.08,14.2-.06,21.31.22,60.32.15,120.64.19,181a9.16,9.16,0,0,1-1.66,5.59c-1.13,1.61-1.86,3.62-.77,5.27,2.14,3.25,2.12,6.66,2.16,10.35.06,6.31-.36,6.73-6.78,7.07-6.06.33-11.79-1.65-17.67-1.85a158.45,158.45,0,0,0-23.19,1c-14.14,1.61-28.57,2-42.77-1a7.26,7.26,0,0,0-4.49.28c-3.19,1.42-6.55,1.57-10,1.49-9.58-.21-19.16.15-28.74-.37-6.48-.35-13-1.66-19.53-.14-3,.69-6,.37-9,.11-3.71-.3-7.78-1.58-11-.89-5.4,1.16-10.65.15-15.89.35a389.45,389.45,0,0,1-51.12-.84c-3.33-.31-6.74-1.49-10.06-.2-4.88,1.91-9.91,1.45-14.9,1.09a70.41,70.41,0,0,0-10.16-.2c-15.16,1.11-30.35.27-45.54.93-17.14.74-34.34.18-51.51.14-4,0-7.93,0-11.91-.24-12.29-.61-24.54-3-36.94-.62-3.95.76-8.1-.8-12.21-.28a147,147,0,0,1-18.52,1.13q-27,0-54-.36c-14.83-.22-29.67-.08-44.51.28-20.8.49-41.61.12-62.42.11-1.4,0-2.8,0-4.2-.14-3.09-.22-4.72-1.75-4.44-5,.18-2.09.41-4.19.43-6.29q.35-32.24.63-64.49c.31-29.68,1.28-59.36,1.06-89a26.12,26.12,0,0,1,.14-2.8,327.69,327.69,0,0,0,.78-35c-.3-15.9-.1-31.79-.27-47.68-.1-8.91,3.65-17.85-.11-26.76a1.38,1.38,0,0,1,0-.7c.73-3.84.06-7.68.07-11.53,0-17.57.93-35.12,1.14-52.68.32-27.36,0-54.72.12-82.07,0-9.66-.95-19.31-.11-29,.19-2.15-.8-4.06-3.07-4.51-2.11-.42-3.21,1.23-3.79,2.95-2.78,8.22-8.76,12.57-16.91,14.65a33.44,33.44,0,0,0-12,5.67c-8.82,6.65-16.13,14.87-23.83,22.7-1.06,1.08-1.87,2.49-3.51,2.72-4.32.6-7.43,3.22-10.36,6.13a77.12,77.12,0,0,1-20,14c-6,3-7.54,5.7-7.17,12.22.74,13.16.12,26.39-.11,39.59-.55,32.1,0,64.21-.87,96.31-.37,13.55-.05,27.12.07,40.68,0,3-.51,5.45-3.36,7.12-2.12,1.24-2.26,3,.07,4.29s2.44,3,2.11,5.32c-.48,3.56-1.18,7.31-.57,10.76,1.24,7.13.93,14.28.54,21.32-.81,14.46,0,28.9-.7,43.38-1.21,26.59-.27,53.26-1.07,79.89-.47,15.64.24,31.29-.68,47-1,16.07.17,32.19-1,48.33-1.05,14,.27,28.23-1,42.34-.48,5.3.87,6.42,6.21,6.37,12.26-.13,24.51-.23,36.77-.45,27.58-.5,55.17-.08,82.75-.17,36.11-.11,72.21-.64,108.31-.4,12.37.09,24.68-.82,37.05-.7,10.37.1,20.79-.08,31.18-.37,1.52,0,3.17-.28,4.4.75,2.22,1.85,4.41,1,6.89.71,5.11-.52,10.6-2.75,15.14,2.05,1.49,1.58,3.31.77,4.6-.68a5.63,5.63,0,0,1,4.64-2c14,.41,28-.82,42-.76C606.26,1010.7,706.41,1009.29,806.56,1011Z"/><path class="cls-1" d="M497.58,110.75c1.92,3.15,2.86,6.63,4.28,10,4,9.35,5.62,19,3.58,29.07a84.12,84.12,0,0,0-1,23c.77,10.1-.11,20-3.91,29.26-3.1,7.54-3.78,15.08-3.44,23,.09,2.05.32,4,1.75,5.54,1.6,1.77,1,3.19-.77,4.3a46.08,46.08,0,0,0-9,7.76c-6.33,6.56-12.66,13.11-20,18.59a140.53,140.53,0,0,1-13.72,9.1c-1,.6-2.47,1.77-3.44.44s.78-2,1.53-2.75c1.7-1.77,3.52-3.42,5.23-5.17,1.34-1.37,2-3,.75-4.73s-2.73-1.54-4.41-1a45.82,45.82,0,0,0-9.63,5,55.18,55.18,0,0,1-17.32,7.34c-8.1,1.74-16.06,3.69-22.62,9.43-3.09,2.71-7.32,3.42-11.49,3.79-7.87.69-15.75,2.19-22.14,7a39.16,39.16,0,0,1-17.17,7.15A32.09,32.09,0,0,0,337,306.19c-8,8.28-12.17,18.36-14.41,29.49A42.55,42.55,0,0,1,317.28,350c-7.16,11.37-17.87,17.29-31,18.73-8.84,1-16.89,3.21-23.48,9.53-4.94,4.71-10.63,7.95-17.68,8.33a19.8,19.8,0,0,0-4.73,1.29c-3.53,1.13-4,3.15-1.47,5.94a11.2,11.2,0,0,0,11.12,3.55c1.25-.25,2.72-.49,3.35,1,.54,1.32-.55,2.23-1.43,2.93-2,1.59-4.22,2.94-6.22,4.55-5.74,4.61-11.28,9.26-8.95,18,.92,3.49,1.43,4.15,4.94,3s6.8-3.15,10.71-3.11c4.67.06,9.36-.32,14,0,6,.39,10.19-1.9,12.83-7.19a11,11,0,0,1,6.08-5.45,67.72,67.72,0,0,0,11.52-5.91c6.39-4.13,12.28-8.93,18.45-13.36a109,109,0,0,0,35-41.27c5.51-11.28,15.44-15.73,27.09-17.27,4.74-.62,7.79,2.52,7.55,7.36a29.26,29.26,0,0,1-2.45,9.45c-4.47,11.05-9,22.07-10.56,34.05a37.46,37.46,0,0,0,3.14,20.85c.7,1.53,1.68,2.92,3.53,3s2.56-1.37,3.31-2.71a12.46,12.46,0,0,0,1.52-7.74,42,42,0,0,1,1.89-18.3c3.42-9.8,7.19-19.48,10.23-29.43,4.07-13.32,11.57-23.83,25.41-28.82,7.78-2.81,15.82-4.89,23.29-8.62,4.92-2.45,9.63-5.27,14.4-8,.8-.45,1.82-1.09,2.57-.24s-.28,1.68-.82,2.33a33.23,33.23,0,0,1-2.68,2.76c-10.62,10.1-20.57,20.75-27.5,33.86-4.72,8.94-10,17.4-18.58,23.34-2.85,2-5.24,4.64-7.81,7a2.78,2.78,0,0,0-.61,3.79c.74,1.23,2,2.07,3.23,1.41,5.59-2.94,12.41-4.09,15.84-10.31a44.42,44.42,0,0,1,12.24-13.76,213.92,213.92,0,0,0,18.51-16.6c4.67-4.58,9.69-8.79,14.56-13.17.7-.63,1.43-1.38,2.45-1,1.21.47,1.17,1.64,1.13,2.7a11,11,0,0,1-2,5.9c-3,4.24-3.62,8.52-.58,13a5.3,5.3,0,0,1,1,4.33c-1.75,6.64-2.15,13.62-5.41,19.88a29,29,0,0,0-2.28,6.6c-2.49,10.28-7.2,19.2-15.47,26-4.5,3.72-9,7.48-13.53,11.15-6.56,5.28-12,11.37-15.2,19.33-2,5-4.42,9.82-8.46,13.58a41.21,41.21,0,0,0-6.77,8.44c-2.19,3.51-4.92,7.22-9.15,7.66-8.77.9-14.75,6.12-20.38,11.92-6.29,6.49-11.07,14.15-15.67,21.9-6.68,11.26-14.16,21.73-26.25,28-6.21,3.22-12.3,6.73-18.24,10.46-5.64,3.54-11.71,5.71-18.23,5.17-7.43-.61-13.95,2.42-20.86,3.89-1.42.31-2.71,1.09-2.79,2.75s1.12,2.58,2.43,3.13a25.48,25.48,0,0,0,8.22,1.55c19.8,1.42,37.06-5.87,53.58-15.65,1.13-.67,2.27-1.66,3.47-.62s.34,2.38-.35,3.45a47.83,47.83,0,0,1-9.94,11.25c-8.38,6.84-16.47,13.85-19.12,25.15-.93,4-4.07,6.5-7.63,8.27a52.24,52.24,0,0,0-13.07,9.9c-1.83,1.8-2.56,3.68-.78,5.84s3.76,2.6,6.18,1c4.82-3.08,9.92-5.78,14.47-9.22s9.27-7.45,10.7-13.45a21.43,21.43,0,0,1,5.35-9.65,139.14,139.14,0,0,1,10.24-10.08c6.63-5.93,13.2-12,16.39-20.64a33.27,33.27,0,0,1,6.95-11.27c5.15-5.56,10.38-11.06,15.51-16.64,5.61-6.1,11.83-11.57,15.64-19.14a5.53,5.53,0,0,1,4.21-3.27c.53,1.74-.31,3-1,4.12a80.15,80.15,0,0,0-7.65,18,22.69,22.69,0,0,1-5.05,8.76c-7.33,8-12.32,17.57-17.34,27.07-3,5.7-4.52,12.25-10.24,16.36-1.35,1-2,3.14-2.6,4.87a6.32,6.32,0,0,0,.86,6c1,1.4,3.48,1.63,3.23,3.82s-2.76,2.31-4,3.65-2.81,2.82-4,4.39a83.26,83.26,0,0,0-7.76,11.67c-5.9,11.26-13.59,21.66-17.3,34-2.18,7.24-3.52,14.76-6,21.93-3,8.61-6.19,17-4.12,26.51,1.52,7-.81,13.74-4,20.22-2.34,4.74-4.85,9.86-3.1,15.41s2,11.31,1.65,17.25c-.67,10.67-2.13,20.88-9.06,29.54-.46.56-.73,1.28-.05,1.87s1.55.31,2.26-.16a13.94,13.94,0,0,0,5.89-7.15c2.34-6.83,4.91-13.59,7.16-20.46A32.19,32.19,0,0,0,313,720.46a13.24,13.24,0,0,1,1.4-6.75c3.64-8.73,6.89-17.43,7-27.23s3.17-19.11,11.38-25.77c2.81-2.28,5.44-4.78,8.13-7.2a8.28,8.28,0,0,0,2.88-7.2c-.22-2.56-.35-5.13-.54-7.69-.14-1.88-.57-4,.54-5.49,2.4-3.28,3.06-7.33,5.09-10.69,7.42-12.31,14.9-24.62,26.52-33.64,1.25-1,2.34-2.72,4.18-1.51s.82,2.89.49,4.48c-1.21,5.88.43,11.06,4,15.73a2.49,2.49,0,0,0,3.1.94,2.65,2.65,0,0,0,1.75-2.77c-.05-1.16-.36-2.3-.5-3.46a66.11,66.11,0,0,1,.27-19.15c1-6,2.89-11.77,4.17-17.69.4-1.82-.24-4.84,2.19-4.91s2,3,2.39,4.79c2.21,10.75,3.24,21.71,6.17,32.33a22.89,22.89,0,0,1,.44,9.38,26.77,26.77,0,0,0,2.63,16c3.75,7.55,6.06,15.59,8.11,23.8,1.7,6.79-.76,14.1,3,20.52a2.6,2.6,0,0,1,0,1.72c-.9,3.87-1.3,8-2.89,11.52-2.46,5.47-2.49,10.83-1.15,16.41a21.24,21.24,0,0,1,.28,10.08,11.43,11.43,0,0,0,1.18,8.77c1.29,2.25,2.28,4.61,1.94,7.32-.87,6.92.87,13.39,3,19.88,1.38,4.15,4.3,7.55,5.23,11.82,1.79,8.23,5.48,16.28,2.3,25a2.84,2.84,0,0,0,0,1.05,13.23,13.23,0,0,1-2,6.94,33,33,0,0,0-4.23,15.72c0,1,0,2.32,1.23,2.65s1.8-.89,2.16-1.84c3-7.83,7.15-15.25,8.21-23.77.3-2.44.56-4.87.63-7.32,0-1.26-.23-2.85,1.15-3.44s2.37.85,3.2,1.68c2.73,2.73,5.43,5.57,6.78,9.26,3.47,9.47,11.49,15.85,16.33,24.38a2.47,2.47,0,0,0,3.63,1c1.52-1.08.87-2.58-.09-3.68-2.19-2.5-3-5.43-3.35-8.66a22.53,22.53,0,0,0-4-10.34c-3.58-5.2-7-10.51-10.5-15.76-1.05-1.57-2.21-3.18-2.33-5.05-.36-5.71-3.33-10.1-6.76-14.32a16.74,16.74,0,0,1-2.9-6c-1.89-6.48-1.79-13.44-4.56-19.73a3.24,3.24,0,0,1,0-1.39c.59-10.94.95-21.89.62-32.85,0-.91-.29-1.95.68-2.56s1.82,0,2.52.61c3.41,3.08,7.57,4.46,11.89,5.69,5,1.43,8.46,4.69,11.37,9.19,4.06,6.25,10,11.2,13.38,18,.09.19.33.32.52.46a26.66,26.66,0,0,1,8.45,11.4,23.86,23.86,0,0,0,5.24,7.4c1,1,2.35,1.66,3.82.89a3,3,0,0,0,1.58-3.28c-.87-4.85-1.75-9.85-5.8-13.18a44.68,44.68,0,0,1-8.76-10.41c-.66-1-2.07-2.21-.73-3.33s2.57.2,3.32,1.1c5.29,6.37,12.49,10,19.35,14.27,5.15,3.18,6.63,6.42,4.74,12.24s-.73,10.43,2.28,15.26c2.24,3.6,3.19,7.79,1.42,11.76-3.45,7.81-1,14.84,2.11,21.89.67,1.52,1.23,3.65,3.58,3.11s3-2.57,3.07-4.62A169.88,169.88,0,0,0,513.53,755c-.84-6-2.69-11.73-1.59-18,.67-3.8-1.58-7.47-2.56-11.19-2.15-8.14-7-13.76-15.26-16a3.31,3.31,0,0,1-2-1.33c-3.24-4.89-7.12-9-13.07-10.49a3.7,3.7,0,0,1-1.43-1,4,4,0,0,1-1.21-4.15c.47-1.76,2-1.76,3.42-1.75a17.61,17.61,0,0,1,4.17.4,8.05,8.05,0,0,0,8.33-2.39c3.26-3.49,6.4-7.12,9.4-10.84,1.72-2.13.93-5.44-1.41-7.53s-4.05-.7-5.77.91a12.5,12.5,0,0,0-3.13,3.74c-1.59,3.46-4.34,4.55-8,4.35-4.46-.25-9.12-.25-12.9,2.35-5.45,3.74-11.67,1.12-17.32,2.76-.57.16-1.61-.49-2.1-1.06a8,8,0,0,0-6.83-2.85,3.53,3.53,0,0,1-2.84-1.2c-3.85-4.42-7.72-8.84-8-15.16-.18-4.11-.73-8.08-3.12-11.68-1.55-2.32-2.09-5.14-2.62-7.93-.7-3.7.24-7.57-1.1-11.12a39.59,39.59,0,0,1-2.09-16.21,23.67,23.67,0,0,0-2-10.17,104.5,104.5,0,0,1-7-24.9c-.72-5.32-1.6-10.32-4.2-15a10.23,10.23,0,0,1,.32-11.25c5.9-9.34,9.38-19.82,13.79-29.86,3-6.78,4.34-14,6.64-21,3.21-9.65,11-16.71,15.88-25.48,2.07-3.7,3.81-7.14,3.64-11.41a11.56,11.56,0,0,1,.51-4.85c1-2.6,2.95-3.27,5.27-1.78a11,11,0,0,1,2.68,2.24,17.49,17.49,0,0,0,12,6.43c2.55.32,5,1.09,7.58,1.39a19,19,0,0,1,14.09,8.87c2.73,4.25,5.38,8.19,9.51,11.27,2.31,1.73,4.4,3.49,7.3,3.71,7.49.55,12.23,4.81,16.15,10.85,6.15,9.51,9.41,20.29,14,30.49a38.71,38.71,0,0,1,3.81,14.48c.18,5.56-.12,11.26,2.81,16.39a2.79,2.79,0,0,1,.2,1.72c-1.66,9.39-2.65,18.86-3.75,28.31-.35,3-.87,5.64.12,8.54a15.63,15.63,0,0,1-1.17,13.52c-1.73,2.92-3.53,5.79-5.32,8.66a12.94,12.94,0,0,0-1.79,8.07c.15,2,.72,3.9,2.81,4.42,2.3.57,3.42-1.29,4.11-3a92.24,92.24,0,0,1,7.52-14.63,18.5,18.5,0,0,0,3-13.29c-.47-3-.23-6.24,2.77-8.17,2.7-1.75,4.09-4,3.89-7.29-.13-2.13,1.05-3.05,3.13-2.36s3.82.59,5.33-1.28c1.34-1.66,2.68-1,3.75.44a8,8,0,0,1,1.68,4.54,10,10,0,0,0,2.43,5.68c3.6,4.87,9.31,8.47,9.36,15.48,3.86,3.26,4.71,7.93,6.29,12.39,1,2.91,2.81,5.66,3.68,8.67a39.74,39.74,0,0,0,10,17.39c3.73,3.75,4.68,8.3,2.1,13.17-3.17,6-5.17,12.44-7.47,18.79-3,8.33-6,16.71-10.17,24.55-3,5.58-3.15,5.79,1,10.63,2.38,2.74,2,5.38-1.17,7.27a17.21,17.21,0,0,1-2.91,1.18c-1.12.4-2.41.76-2.42,2.18,0,1.57,1.37,2,2.59,2.45,4.34,1.57,7.24.15,9.59-4.48,2.72-5.35,3.69-11.32,6.17-16.76A36.35,36.35,0,0,0,605.88,698a13.61,13.61,0,0,1,3.79-10.45c3.27-3.54,4.38-3.55,6.12,1a61.32,61.32,0,0,1,3.93,23c-.12,9,2.39,16.8,8.1,23.64a41.56,41.56,0,0,1,8.34,16,37.65,37.65,0,0,0,1.85,5.29c2.92,6.71,7.63,11.46,15.28,11.51,6.28,0,12.58-.82,18.85-1.44,2-.21,3.57-1.36,3.07-3.8-.66-3.18-6-7.39-9.24-7.34-10.32.18-18.49-5.41-22.8-14.79-1.84-4-1.23-8.3-2.66-12.2-3.8-10.34-5.87-21.15-8.26-31.81-2.88-12.78-4.88-25.72-11.7-37.23-.58-1-1.2-2.33-.95-3.3,1.43-5.73-.65-10.12-4.38-14.34-1.61-1.84-2.26-4.58-3.18-7-.76-2-1.33-4.18-2.93-5.52-4.93-4.13-7.09-9.68-8.77-15.59a32.31,32.31,0,0,0-1.92-4.51c-4.28-9.37-12.75-15.31-19.11-23-4.26-5.13-8.67-9.79-8.39-17a7.28,7.28,0,0,0-.75-3.4c-5.25-10.24-5-22.07-9.4-32.54-.3-.7-.67-1.71.32-2.16s1.49.48,2,1.08c4.29,5.08,8.53,10.21,12.82,15.3,1.94,2.31,3.44,5.1,6.46,6.26,8.4,3.25,14.35,9.42,19.62,16.38,1.55,2.06,3.32,3.58,5.92,4a9.52,9.52,0,0,1,6.48,3.85c6.6,9.14,16.69,11.47,26.74,12.55,9.85,1.06,19.45,2.25,28.38,6.75a14.23,14.23,0,0,0,7.17,1.27c2-.07,3.71-.58,4.54-2.63s.09-3.58-1.09-5.19a16,16,0,0,0-9.56-6.08c-4.88-1.2-9.79-2.27-14.73-3.15-6.79-1.21-13.67-2-20.08-4.71-12.34-5.15-20.48-14.85-27.13-25.93-5.66-9.46-8.57-20.57-17.11-28.33-1.15-1-1.48-3,.66-3.11,5.54-.4,10-3.92,15.23-5a16.08,16.08,0,0,0,7.52-4.32c3-2.74,6.2-4.84,10.72-3.5,1.85.55,4.21.31,4.81-2.26s2.2-4.35,4-6,3.83-3.43,5.71-5.17c1.11-1,2.43-2.07,2-3.82s-2.2-1.86-3.66-2.14a13.11,13.11,0,0,0-13.68,5.05c-1.59,2-3.14,4.08-4.58,6.2A14.13,14.13,0,0,1,607.48,505a151.06,151.06,0,0,0-17.15.58,42,42,0,0,1-18.49-2.77c-18.94-7-32.76-20.21-44.93-35.59-1-1.33-2-2.53-3.71-3-3.74-.92-7.47-1.87-11.17-3-5.25-1.55-10.67-2.73-14.25-7.55a44.38,44.38,0,0,1-8.63-20.08,20,20,0,0,1,1.34-11.26c2.75-6.41,5.74-12.81,6.42-19.94a8.17,8.17,0,0,1,2.17-5.09c2.83-2.81,4.35-6.26,5.61-10a45.17,45.17,0,0,1,4.48-9.89,61.3,61.3,0,0,0,8.58-21.34,60.5,60.5,0,0,1,16.68-31.38c2.89-3,4.77-3.41,8.2-1a47,47,0,0,1,12.25,12.37c3.68,5.48,8.07,10.47,14.59,12.63A22.64,22.64,0,0,1,580.06,356c3.59,4.41,6.53,9.23,5.67,15.6-.66,4.83-3.5,8.92-3.84,13.8a32.26,32.26,0,0,1-4.11,12.91c-2,3.84-4.86,7.75-3.93,12.45s2.41,9,3.74,13.5c.38,1.25,1.16,2.52,2.68,2.36s1.71-1.69,2-2.94c.62-3,1-6,1.85-8.92a133.9,133.9,0,0,1,6.69-18.06c3.24-7.08,3.1-14.8,4.67-22.19.41-2,.52-3.7-.61-5.35-1.45-2.13-1.24-4.1.24-6.14,2.75-3.79,2.28-7.58,0-11.47a26.63,26.63,0,0,0-9.4-9.23c-.77-.47-1.83-.95-1.49-2.1s1.43-1.14,2.35-1c4.19.73,8.4.26,12.6.29a14.58,14.58,0,0,1,10.45,4.19c4.73,4.56,9.24,9.27,12,15.41,2.08,4.69,4.55,9.22,6.55,14,3.58,8.49,7.7,16.81,8.86,26.13a46.65,46.65,0,0,1-4.16,25.19c-2,4.48-5.69,7.67-8.28,11.68-1.17,1.82-1.75,3.67-.3,5.51,1.58,2,3.59,1.7,5.71.78,5.25-2.29,9.4-5.64,11.28-11.28.34-1,.79-2,2-2.12,1.48-.09,2.11,1.08,2.3,2.22.74,4.31,3,8.11,4.1,12.28,2.4,8.78,4.71,17.6,10.56,25,1.85,2.34,2.34,5.38,2.43,8.31a86.55,86.55,0,0,0,2.2,14.53c.83,4.14,2.34,8.09,5.5,11.15,2.76,2.67,4.8,2.3,6.59-1.09,1.59-3-.07-5.07-1.68-7.3-3.85-5.35-6.65-10.79-4.29-17.86,2.12-6.36,1.76-12.43-4.86-16.54-1.45-.9-2.49-2.45-3.66-3.76s-2.34-2.85-2.32-4.62c.07-5.7-2.42-10.46-5.41-14.93-3.91-5.86-4.29-12.21-3.48-18.84a32.38,32.38,0,0,0,.09-8.74q-1.52-10.22-3.06-20.44a26.46,26.46,0,0,1,1.68-13.77c3.25-8.24,10-10.18,16.83-4.83a30.18,30.18,0,0,0,13.31,5.93,16.12,16.12,0,0,1,8.84,4.69c5,5.22,10.15,10.38,13.51,16.92,3.21,6.24,7.34,11.34,14.75,12.82a4.74,4.74,0,0,1,4.17,4.58c.21,5.25.28,10.47-1.09,15.66-1.67,6.36-4.76,12.21-6.34,18.56A19.71,19.71,0,0,1,707,459.94a27.1,27.1,0,0,0-10.65,20.12,50.71,50.71,0,0,1-2.22,12.39c-2.26,7-3.53,14.06-.43,21.15a14.06,14.06,0,0,1,.19,10.57c-.78,2.32-1.21,4.76-1.89,7.11a8.83,8.83,0,0,0,.23,6.52,13.81,13.81,0,0,1,.2,12.4c-1.62,3.71.63,8.14,4.33,10,2.66,1.31,4.93.34,5.62-2.55a9.47,9.47,0,0,0,.25-3.81,20.41,20.41,0,0,1,.86-10c5-15.44,9.58-31,15.33-46.19,2.53-6.67,5.28-13.46,10.35-19.21,8.1-9.17,14.82-19.52,23.56-28.19,1.17-1.16,2.29-2.55,3.71-1,3.27,3.66,6.69,7.45,7.06,12.62a44.24,44.24,0,0,1-2,18c-1.34,3.85-2.9,7.84-3.09,11.83-.41,8.77,2.28,17.29,3.25,26a2.51,2.51,0,0,0,4.94.29c.52-1.55.82-3.17,1.42-4.69,1-2.58,2.39-2.79,3.83-.38,4.43,7.37,10.92,12,18.88,14.87,6.49,2.32,9.76,7.31,11.2,13.73.77,3.4,1,7,3.29,9.85a3.22,3.22,0,0,1,.3,2.71c-1,5.4-2.26,10.74-5.24,15.49-1.45,2.33-2.64,5.13-2.41,7.59.38,4-1.33,7.13-2.31,10.65-3.29,11.9-5.45,24.17-12.36,34.78a4.31,4.31,0,0,0-.88,2.27c.23,5.19-3.13,8.88-5.29,13.07a13.27,13.27,0,0,0-1.39,3.2c-1.55,7.8-4.4,15.23-6.21,23-3,12.58-4.3,25-1.06,37.76,1.14,4.54,2.88,9,1.92,14.09-1.87,9.91-6,18.9-10.41,27.79-2.4,4.8-5.22,9.4-7,14.48-.81,2.26-1.05,4.94,1.66,6.09,2.51,1.07,3.83-1.18,4.88-3a45.23,45.23,0,0,0,3.6-7.2c1.7-4.61,3.29-9.29,5.94-13.44,4.51-7,6.71-14.75,7.88-23,.55-3.91,1.21-7.54-.68-11.23-.69-1.36-.34-3-.26-4.49.42-8.16.79-16.29,4.78-23.74a11.56,11.56,0,0,0,.79-3.76c1.18-8.59,4.05-16.75,6.75-24.9,3.64-11,9.6-21,15.23-31.11,3.1-5.56,7.76-10,10.65-15.59,4.27-8.34,7.23-17.22,10.53-26,1.61-4.25,2.32-4.41,5.7-1.53,2.75,2.33,3.86,5.84,6.49,8.21,1.48,1.34,3,3,5.18,1.77,1.94-1.1,1.79-3.11,1.47-5a22.79,22.79,0,0,1-.21-7,12.2,12.2,0,0,0-2.37-9.25c-2.26-3.11-5.45-6-6.51-9.45-3.72-12.26-11.14-22.6-16.6-33.94-3.64-7.57-9.6-13.84-12.49-21.86-2.28-6.34-5.06-12.2-12.73-13.47a1.87,1.87,0,0,1-1.67-1.6c-.08-1,.76-1.39,1.51-1.71,2.24-.95,3.79-2.4,3.44-5.05-.59-4.43-1.3-9-3.8-12.67a28,28,0,0,1-4.73-13.08c-1.61-13.42-3.72-26.82-6.61-40-2.36-10.82-8-20.08-18.52-25.06a90.34,90.34,0,0,0-23.24-7.67,27,27,0,0,1-16.31-9.34,13.37,13.37,0,0,0-7-4.43,53.43,53.43,0,0,1-15.44-6.47c-4.83-2.86-9.64-5.77-13.75-9.65-.84-.8-1.83-1.74-1.42-3,.47-1.46,1.91-1.12,3-1.06a90.17,90.17,0,0,0,24.34-2.47,40.74,40.74,0,0,1,16.35-.4c3.45.62,6.94,1,10.43,1.32,6.63.54,12.31-1.93,17.55-5.8a9.58,9.58,0,0,1,11.19-.66c5.39,3.46,9.46,8.22,10.78,14.89a14.3,14.3,0,0,0,4.22,7.17c3.23,3.21,6.47,6.43,9.79,9.55a24.32,24.32,0,0,0,10,6.17c2.69.76,4.39,2.66,5.24,5.59,1.36,4.69,3.81,8.86,8.39,11.17s7.35,6,9.37,10.46c2.47,5.52,3,11.5,4.48,17.27s4.93,10,9.39,13.58c1.25,1,2.79,1.53,4.07.05s.63-2.84-.48-4.08a7.54,7.54,0,0,0-1.28-1.18,16.68,16.68,0,0,1-7-12.46c-.36-3.48-.73-7-1.09-10.44-.81-8.09-3.55-15.39-11.8-18.76a14,14,0,0,1-8.77-9.24c-1-3.15-2.54-6.23-5.9-7.46-3.93-1.43-6.3-4.31-8.12-7.8a20.17,20.17,0,0,0-4.81-6.42c-4.94-4-7.2-9.68-9.93-15.08-.59-1.17-1.21-2.45,0-3.53s2.37-.47,3.54.23A12.91,12.91,0,0,0,804,334.8a3.07,3.07,0,0,0,1-3.76,3,3,0,0,0-3.72-1.89,27,27,0,0,0-3.25,1.27c-2.43.92-5.09,1.24-7-.55-3.58-3.35-8.4-4.6-12.09-7.7-1.15-1-2.7-1.5-3.86-.41-3.46,3.28-7.34,2.33-11.23,1.42a21.7,21.7,0,0,0-18,3.31c-1.74,1.18-3.46,2.42-5.29,3.44-3.58,2-7.26,3.07-11.35,1.22-7.4-3.35-15.18-4.13-23.28-3.76-8.5.4-17.23,1.33-25.48-.94-6.84-1.88-12.92-.75-19.07,1.65a11,11,0,0,1-9.46-.43c-7.1-3.57-13.56-8-17.88-14.81A25.93,25.93,0,0,0,620.74,302a8.38,8.38,0,0,1-5.61-6.2,16.72,16.72,0,0,0-7.22-10c-9.09-6.07-16.33-14.32-24.91-21-1.07-.83-1.94-1.88-1.15-3.29s2-1,3.13-.66a18.87,18.87,0,0,1,2.64.95,102.44,102.44,0,0,0,22.82,6.59c4.39.82,8.74,1.45,13.22.76,8.64-1.33,16.53-5,24.64-7.91,12.18-4.41,24.29-4.06,36.35.22,6.6,2.35,13,5.38,20.3,4.65a2.4,2.4,0,0,1,1.67.38c3.58,3.3,8.47,4.47,12.17,7.55,8.84,7.36,18.66,13.23,28.61,18.92,3.55,2,7,4.17,10.89,5.54,8.52,3,17.42,4.38,26,7,9.7,2.91,19.91,4.2,28.83,9.54a12.84,12.84,0,0,0,7.85,1.43,141.94,141.94,0,0,1,18.56-.54c2.9.11,4.53-1.38,4-4.33-.7-4.08-.4-8.16-.48-12.24-.09-5.3-1.32-6.74-6.59-6.79A24,24,0,0,1,823,288.12c-7.39-5-13.27-11.79-20.51-17-2.14-1.53-1.28-3,1-3.72a41.07,41.07,0,0,1,7.46-1.91c11.19-1.19,21.58-4.86,31.66-9.65a9.9,9.9,0,0,0,5.83-7.4,3.87,3.87,0,0,0-1.55-4,3.06,3.06,0,0,0-3.92.1c-4.05,3.08-9,4.39-13.27,7.08a33.24,33.24,0,0,1-15.5,5.09c-8.3.62-16.52,1.63-24.41,4.31a24.93,24.93,0,0,1-15.81-.11c-6.26-1.91-12.41-4.17-18.62-6.2-4-1.31-8.32-3.63-12.52-2.05-3.85,1.46-6.88,1.58-10-1.08a12.71,12.71,0,0,0-3.4-1.8c-10.61-4.4-20.49-10.19-30.38-15.95-5-2.92-10.26-3.86-16.09-3.72-9.78.24-19.58,1.33-29.37.22a44.87,44.87,0,0,0-12.57.56c-3.93.66-4.92,3.32-2.58,6.58.82,1.14,1.88,2.14,2.21,3.54.39,1.71,1,3.74-.65,4.9-1.88,1.35-2.88-.81-4-1.79-8.8-7.73-17.67-15.22-30.67-13.34-1.22.18-2.72.1-3.23-1.46s.61-2.59,1.83-3.38c2.1-1.37,3.24-3.52,1.16-5.18-4.76-3.81-4.44-9.09-5.32-14.24-1.26-7.36-4-14.34-9.77-19.3-3-2.56-3.25-4.44-1.22-7.25,2.42-3.36,1.8-6.58-.4-9.72-.87-1.24-1.82-2.43-2.77-3.62-9.16-11.47-11.28-24.19-6.85-38.11a27.27,27.27,0,0,0,1.23-5.1c.51-4.33,1.32-8.5,3.63-12.33,1.4-2.34.24-4-2.13-4.91a7.51,7.51,0,0,0-4.15,0,124,124,0,0,1-39.43,1,182.39,182.39,0,0,0-37-1.35C497.3,106.11,495.84,107.91,497.58,110.75Z"/><path class="cls-1" d="M42.86,398.53c3.08,2,6.6,4.22,10.29,3.59,4-.69,7.2.38,10.71,1.9,7,3,14.28,1.28,21.48.81.42,0,.81-.44,1.22-.66a9.85,9.85,0,0,1,6.45-1c7.7,1.4,15.47,2.39,23,4.55,1.24.36,2.66.88,3.77.19,3.35-2.08,7-1.25,10.52-1.36,3-.1,3.78,1.34,3.32,3.89a21.76,21.76,0,0,0-.63,5.2c.29,5.15.53,10.29-2,15.09a3.77,3.77,0,0,0-.4,2.38,58.62,58.62,0,0,1,1.3,13.15c0,6,1,12.06,1.13,18.09.16,7.36-.12,14.73-.28,22.09,0,2.06.73,3.34,2.77,3.82,3.7.87,15.76-4,17-7.65,1.75-5.18,6-8.25,9-12.32,6.32-8.4,12.81-16.72,15.61-27.13,1.51-5.62,4.6-9.49,10.5-11,3.37-.86,6.53-2.48,9.87-3.56a15.78,15.78,0,0,0,8.38-6.05c1.55-2.23,3.5-4.42,6.24-4.84,7.24-1.1,13.5-4.15,19.51-8.19,2.44-1.64,3.57-3.07,2.79-5.92s-2.71-3.7-5.56-3.52c-6.5.41-12.94-1.2-19.47-.63-1.2.11-2.49-.57-3.7-1a217.55,217.55,0,0,0-25.33-6.81,12.69,12.69,0,0,0-6.55.7c-7,2.24-14,4.47-20.93,7-4.58,1.71-9.16,3.57-14,4.4-3.27.55-6-1.4-6-4.22.13-10.16.64-10.66,11.06-10.76.94,0,1.87-.05,2.8-.06,9.18-.17,18.19-1.07,26.48-5.53,7.27-3.9,14.27-3.55,20.92,1.53,5.39,4.12,11.57,4.87,18,3.7a103.72,103.72,0,0,0,13.59-3.36c8.19-2.68,8.48-3.32,8.48-12V241.25q0-61.89,0-123.8c0-4.44.08-8.88.08-13.33,0-2.9,1.38-4.37,4.29-4.24,3.5.15,7,.49,10.49.53,17.4.19,34.8.16,52.22.48,31.42.59,62.86.41,94.29.89,24.75.38,49.51.43,74.27.3,5.33,0,10.67.84,16-.22,2.85-.56,4.3-1.58,3.52-4.63-1.85-7.18,0-13.72,3-20.28,3.17-6.92,6.81-13.82,5.52-22-.81-5.19-2.74-10.12-3.14-15.41-.86-11.41-4.66-22.77,0-34.23.93-2.3-.74-3.45-2.82-3-5.13,1.06-10.23-.1-15.35,0-9.15.24-18.33-.29-27.51-.4-37.62-.48-75.24.64-112.87-.62-23-.77-46,.32-69-.63C253.8.15,240.38.46,227,.44c-28.75,0-57.51.64-86.25-.41-4.89-.18-5.41.39-5.43,5.32-.08,22.87-.16,45.73-.55,68.6-.58,34.54-.12,69.1-.79,103.65-.56,28.86-.07,57.75,0,86.62q0,58.57,0,117.14c0,4.92-.6,5.7-5.23,7.18a10.27,10.27,0,0,0-2.85,1.31c-8.65,6.19-18,5.76-26.95,1.63-5.16-2.38-9-1.76-13.21,1.27a32.45,32.45,0,0,1-6.6,3.19c-1.62.68-3.43,1.2-5.13.45-4.67-2-9.51-1.91-14.43-1.52a18,18,0,0,1-6.58-.81,16.73,16.73,0,0,0-8-.37C42.24,394.21,40.9,397.28,42.86,398.53Z"/><path class="cls-1" d="M588.92,60.1c-2,3.46-1.77,5.17,1.45,7.86,2,1.7,2.22,3.22.74,5.39-3.18,4.64-2.85,10.2-3.19,15.4-.19,2.89.53,6,.42,9-.14,4.1.89,5.39,5,5.33,15.19-.21,30.38.37,45.57-.31,5.11-.23,10.3-.07,14.89,2.88a4.8,4.8,0,0,0,5.64.09c4.62-3.33,10-3.39,15.16-2.94a230.68,230.68,0,0,0,26.68.24c11.1-.33,22.16.28,33.24.13,21.15-.3,42.31.23,63.46-.19q24.54-.49,49.07-.43c4,0,4.9,1,4.85,5s.13,8.16-.07,12.23c-.85,17.17-.07,34.34-.29,51.51-.14,10.74.44,21.53,0,32.22-.43,11.44.51,22.9-.79,34.31-.4,3.5,2.11,5.13,5.45,3.86.76-.29,1.45-.76,2.21-1.06,6.4-2.6,12.8-3.82,19.13.15,2.94,1.85,2.8,3.81-.28,5.41a5.91,5.91,0,0,1-3.4.58c-3.58-.38-7.26.2-10.74-1.19a4.1,4.1,0,0,0-3.09.16c-5.68,2.26-9.6,8.92-9.17,15a147.27,147.27,0,0,1-.12,25.2c-.31,3,.72,4.63,3.64,5.31,5.23,1.22,9.39,3.9,12.1,8.74a12.31,12.31,0,0,0,10.86,6.64c7.94.23,15.87.25,23.74-1.22,14.93-2.8,29.54-2.8,43.2,5.16,2.11,1.23,3.54.37,4.43-1.73a8.62,8.62,0,0,0,.81-4.45c-.69-5.13,0-10.25,0-15.38.52-39.48-.34-79,.69-118.44.7-27,.13-54,.13-81h0q0-40.86,0-81.71c0-5.43-.62-6.05-6.1-5.93-15.18.35-30.37.18-45.55.48-38.89.76-77.79-.39-116.68.8-12.82.4-25.66-.17-38.49,0-21.85.27-43.72.3-65.57-.06-6.39-.11-12.78.32-19.2-.14a148.94,148.94,0,0,0-17.14-.68c-14.13.61-28.25-.12-42.38.19-5,.11-7.4,1.41-7.83,6.25-.57,6.52-2.15,12.86-2.54,19.43-.25,4.35.39,9-1.48,13.12-1.18,2.63-.79,4.74.74,7.19C590.39,52.11,591.18,56.09,588.92,60.1Z"/><path class="cls-1" d="M941.65,324.11c-4.62-.67-9.54.09-13.82-1.95-6.53-3.11-12.43-2.8-18.47,1.28-4.9,3.3-10.28,4.19-15.93,1.37A12.11,12.11,0,0,0,889,324c-10-.78-20-1.71-29.58-5.15a22.51,22.51,0,0,0-5.85-1c-3.68-.26-5,1.63-3.47,4.94a13.07,13.07,0,0,1,1,7.51c-.21,1.62-.37,3.25-.47,4.88-.64,10.56.77,21.19-1.07,31.72a5.89,5.89,0,0,0,.49,2.73,25.34,25.34,0,0,1,1.21,9c-.34,16.68,0,33.35-.63,50-.49,12.75.13,25.57,0,38.37-.07,12.32-1,24.65-.16,37,.77,10.94-.25,21.92.6,32.91.77,10-.66,20-1.75,30a6.17,6.17,0,0,0,.32,2.73c1.81,4.93,11.39,10.69,16.35,9.31,6.87-1.92,8.91.89,11,6.44a20,20,0,0,0,6.17,8.74c4.53,3.71,9.17,7.36,14.65,9.5,4.85,1.9,6.95,5.19,6.71,10.22a16.24,16.24,0,0,0,3.08,9.84c5.88,9.05,14.37,15.94,20.38,24.87a4.06,4.06,0,0,0,1.92,1.48c5.61,1.85,10.33,5.17,14.91,8.75a1.87,1.87,0,0,0,.31.17c2.74,1.23,4.39.25,4.42-2.72,0-1.4-.34-2.8-.3-4.19.42-15.74.62-31.48.48-47.23-.1-11-.42-21.93-.22-32.9.26-14.37-.14-28.75-.14-43.11,0-12.6-.65-25.18-.33-37.76.1-4-.5-7.89-.55-11.86-.07-5.87,1.34-11.57,1.12-17.42-.3-8-2.58-16-.13-24a3,3,0,0,0-.1-1.38c-3.14-15.27-.3-30.71-1-46.07a125,125,0,0,1,.75-23.61c1.53-10.77-.65-21.82.56-32.73C949.53,327.77,949.1,325.18,941.65,324.11Z"/><path class="cls-1" d="M629,1209c1.74-.3,2.07-1.88,2-3.26-.08-11.68,3.65-22.8,5-34.28,2-16.81,5.62-33.4,7.5-50.23.71-6.29,3-12.3,3.13-18.64,0-3.3,1-5.16,4.64-4.79,2.52.26,3.65-1.15,3.69-3.56,0-1.28,0-2.57,0-3.85-.21-3.77-1.21-4.62-5-4.58-6.54.07-13.07.22-19.6.09-7.9-.16-7.7-1-7.74,8.18,0,2.52,1.3,3.81,4.05,3.53,4.26-.44,5.36.91,4.82,5.23-.92,7.18-1.71,14.38-2.58,21.57-1.27,10.43-3.45,20.75-3.61,31.31,0,1.11-.17,2.57-1.66,2.72s-1.92-1.13-2.39-2.19a17.27,17.27,0,0,1-.61-2c-5-16.82-11.85-33-17.62-49.5-.33-1-.72-2.15-2-2.19s-1.49,1.26-1.83,2.22c-2.72,7.59-5.39,15.19-8.13,22.77q-5.11,14.17-10.34,28.3c-.46,1.23-.92,3.14-2.6,2.85s-1.37-2.21-1.42-3.56c-.15-4.2.43-8.55-.47-12.58-2.94-13.29-2.57-27-5.19-40.28-.61-3.13.55-4.72,3.9-4.43,2.62.23,3.85-1.25,4.15-3.69a15.94,15.94,0,0,0-.3-5.92c-.49-2-1.6-3.06-3.78-2.7-4.53.73-9.1.18-13.65.37-2.34,0-4.68.12-7,0-9-.54-6.89.58-7.87,7.28-.38,2.64,1,4.44,3.66,4.52,3.28.09,4.32,1.8,4.77,4.79,2.42,16,5.15,32,7.59,48.1,2.83,18.56,6.49,37,8.28,55.71.11,1.17.15,2.51,1.62,2.76s2.45-.84,2.92-2c.68-1.73.92-3.63,1.6-5.36q11.55-29.36,22.35-59c.31-.85.44-2,1.54-2.14,1.42-.15,1.54,1.2,1.9,2.13,2.37,6.23,4.79,12.43,7,18.7,5.45,15.16,12,29.92,16.56,45.4C626.73,1208,627.4,1209.28,629,1209Z"/><path class="cls-1" d="M203.63,1209c3-.8,4.8-2.83,4.14-6.31a15.31,15.31,0,0,1-.09-2.8c0-4.06-.36-4.41-4.41-4-5.81.61-8.35-.87-10.55-6.39-1.6-4-3.06-8.08-4.54-12.15-2.6-7.12-4.92-14.36-7.85-21.35-1.73-4.11-1.87-5.24,2.06-7.2,6.28-3.15,9.9-8.39,11.85-14.9,2.86-9.52,2.14-19-1-28.27-3.88-11.25-12.51-17.52-23.93-19-13-1.69-26.15-.45-39.23-.9a3.27,3.27,0,0,0-3.76,3.27,36.11,36.11,0,0,0-.07,5.6c.15,2.26,1.47,3.25,3.77,3.12,5-.29,5.81.47,5.81,5.64q0,21.75,0,43.49h0q0,21.73,0,43.48c0,4.27-.54,5-4.8,4.79-3.37-.17-4.7,1.43-4.84,4.51,0,1-.08,2.1,0,3.15.11,3.47,1.36,4.54,4.75,4.53,10,0,20.06-.52,30.07.45,3.36.32,5-1.23,5.17-4.62.06-1.16,0-2.33,0-3.5-.07-3.15-1.54-4.8-4.83-4.49-.93.08-1.87.12-2.8.13-4.83.08-5.47-.58-5.42-5.38.09-10.28.19-20.56.2-30.83,0-2.16-.41-4.34,2.47-5,4.41-1,7.26,0,8.26,3,2.78,8.31,5.57,16.6,7.69,25.12,1.55,6.23,3.43,12.45,6.84,18C184.82,1210.3,192.68,1212,203.63,1209ZM177.43,1122c-1,5.86-.15,12.22-4.7,17.17-2.92,3.16-13.11,5.65-17,3.95a3,3,0,0,1-1.81-3.43c1.06-12,0-24,.36-36,.12-4.82.32-5.19,5.18-5.09,5.44.11,10.83.47,14.15,5.79,3.1,5,3.07,10.66,3.83,16.17A10.9,10.9,0,0,1,177.43,1122Z"/><path class="cls-1" d="M949.13,1102.42c-6.5-10.83-15.73-17-28.76-16.57-4.09.13-8.18,0-12.27,0v-.14H891.62c-1.41,0-3.18-.25-3.78,1.19a13.8,13.8,0,0,0-.25,8.93c.67,2.44,3.16,2,5.1,2,2.91,0,4.27,1.29,4.26,4.25q-.08,44.19-.1,88.36c0,4-.64,4.6-4.71,4.74-4.59.15-5,.7-4.95,7.06,0,4.25.78,5.1,5.14,5.13,10.51.07,21,.25,31.55,0a28.71,28.71,0,0,0,20.1-8.68c7.28-7.21,10.68-16.42,12.64-26.1,2.72-13.38,2.59-27,1.31-40.49C956.94,1121.66,954.61,1111.54,949.13,1102.42Zm-10.84,70.83a36.16,36.16,0,0,1-6.34,16.54,14.54,14.54,0,0,1-14.32,5.44c-2.77-.62-2.38-2.81-2.38-4.75q0-21.56,0-43.11c-.18-15.31.54-30.62-.22-45.91-.13-2.59,1.12-3.52,3.55-3.64,8.33-.41,13.83,4.29,17,13.2,3.54,9.93,3.52,20.19,3.95,30.41A190.08,190.08,0,0,1,938.29,1173.25Z"/><path class="cls-1" d="M733.15,1089.8a23.43,23.43,0,0,0-29.61-2.58c-6.26,4.18-10.37,10.08-13.28,16.8-6,13.84-7.85,28.49-8,43.42a112.91,112.91,0,0,0,2.89,28.52c2.09,8.93,5,17.51,11.38,24.5,8.92,9.82,21,12.94,33.18,6.14,6.88-3.83,11-10,14.12-16.91,5.68-12.31,7.1-25.55,8.09-38.86.83-11.1-1.79-21.89-3.87-32.61S741.44,1097.59,733.15,1089.8ZM730.63,1171c-.49,6.55-1.42,13.25-4.94,19.14-2.1,3.53-4.73,7-9.06,6.87s-7.52-3.2-9.18-7.16a66,66,0,0,1-5.28-23.79c-.16-5.25,0-10.51,0-15.76-.29-10.63-.25-21.27,1.44-31.78.91-5.71,2.08-11.49,5.23-16.56,1.92-3.08,4.32-5.61,8.33-5.47s6.18,2.9,7.88,6.09c3.89,7.28,5.08,15.26,5.66,23.3A307.47,307.47,0,0,1,730.63,1171Z"/><path class="cls-1" d="M286.69,1091.62c-10.58-11.64-26.71-11.69-37-.31-8.94,9.85-12.69,22.27-14.67,35.06a147.09,147.09,0,0,0-.65,38.42c1.35,12.38,4.48,24.37,12.29,34.55,8.36,10.9,21.31,13,30.58,9.27,9.86-4,15.78-11.85,19.3-21.5a105.57,105.57,0,0,0,6.47-38.47,150.89,150.89,0,0,0-1.39-20.59C299.49,1114.74,296,1101.87,286.69,1091.62Zm-2.69,63a172.69,172.69,0,0,1-3.93,29.46c-1.05,4.85-3.19,9.28-7.74,12-3.37,2.06-6.68,1.9-9.66-.72-4-3.55-6-8.28-7.25-13.32-2.68-11.21-3.19-22.64-2.94-32.72-.1-11.91.16-22.4,2.16-32.78,1.09-5.67,2.68-11.14,5.91-16,4.52-6.78,10.91-6.63,15.31.25,4.3,6.7,5.79,14.32,6.5,22C283.34,1133.33,284.45,1143.9,284,1154.57Z"/><path class="cls-1" d="M846.15,1190.8c6.55-13.54,7.62-28,7.71-45.79.34-4.93-.38-12.86-1.77-20.68-2.07-11.6-5.59-22.67-13.5-31.87-8.41-9.79-19.41-12.11-30.83-6.18-6.63,3.43-10.82,9.16-13.91,15.72-7.49,15.92-9.21,32.93-9.15,50.23,0,6.19,1.11,12.29,1.95,18.42,1.58,11.39,5.39,21.7,12.85,30.53,7.66,9.07,21.72,11.81,31.85,6A36.7,36.7,0,0,0,846.15,1190.8Zm-12.41-18.25a43.5,43.5,0,0,1-6,19.23c-5.26,8.67-13.4,6.76-17.66-.72-3.65-6.41-4.85-13.64-5.36-20.87a209.39,209.39,0,0,1-.9-21.7c.39-11.31.23-22.66,2.24-33.86,1.1-6.13,2.46-12.31,7.47-16.57s9.89-3.22,13.28,2.24c4.56,7.32,6.23,15.57,6.94,24A293.58,293.58,0,0,1,833.74,1172.55Z"/><path class="cls-1" d="M397.83,1190.23c5.8-12.43,7.6-25.66,6.93-39,.64-9.27-.47-18.21-1.47-27.14a37.26,37.26,0,0,0-1.43-6.49c-3.1-10.34-6.7-20.34-14.83-28.15-8.94-8.6-22.54-8.11-31.14-1.4-9.21,7.21-13.74,17.51-16.2,28.39-4.6,20.37-5.3,40.95-.39,61.48,2.27,9.51,6.3,18,13.45,24.91,8.74,8.47,19.27,9.18,27.82,5.6C388.78,1205,394.14,1198.15,397.83,1190.23Zm-14.28-8.66a28.13,28.13,0,0,1-3.89,9.7c-2.06,3.29-4.56,6.42-9.07,6.16-4.72-.27-7.63-3.35-9.64-7.19a40,40,0,0,1-4.27-14.73c-2-21-2.66-41.91,1.31-62.76a36.69,36.69,0,0,1,5.4-12.83c3.64-5.72,10.38-5.73,14.47-.1,3.82,5.25,5.1,11.43,6.31,17.65,1.94,9.91,2.15,19.93,2,30.65A153.35,153.35,0,0,1,383.55,1181.57Z"/><path class="cls-1" d="M497.63,1204.76c1.94-6.2-.49-9.61-6.87-9.51l-2.1,0c-4.28,0-4.76-.49-4.76-4.87q0-21.92,0-43.84h0c0-14.73.06-29.46-.05-44.18,0-3.26.95-4.81,4.39-4.59a57.43,57.43,0,0,0,10.15-.27c2.76-.33,4.47.87,4.41,4-.07,3.51,0,7,0,10.52,0,8.25-.05,8.25,7.86,8.76,3.25.22,4.68-1,4.47-4.23-.54-8.3-.17-16.59-.2-24.89,0-5.77-.24-6.08-6.1-5.82-1.16.06-2.33.07-3.5.06q-32.61,0-65.23-.08c-4.18,0-4.81.66-4.73,4.9a250.88,250.88,0,0,1-.29,25.58c-.24,3,1.37,4.49,4.45,4.36a26.2,26.2,0,0,1,2.8-.1c4.64.29,5.62-.49,5.68-5.1s.37-9.35-.28-14c-.3-2.09.11-4.07,2.7-3.85a96.26,96.26,0,0,0,11.89,0c2.33-.09,4,1.05,4.06,3.78.07,3.27.39,6.54.4,9.8q.06,24,0,48c0,9.93,0,19.86-.22,29.79-.14,5.91,0,6.33-5.79,6.25-8.36-.11-8.14-.49-8.29,7.83-.06,2.79,1.14,4.22,3.89,4.22q18.75,0,37.52,0A3.42,3.42,0,0,0,497.63,1204.76Z"/><path class="cls-1" d="M675.77,1350.41c-1.86-.42-3.09-1.54-2.87-3.39.71-5.84-.27-11.65.06-17.49.64-11.53.35-23.1-.05-34.64-.09-2.77.23-4.51,3.45-4.78,2.41-.21,3.41-2.06,3.11-4.28-.34-2.45-1.92-3.68-4.48-3.24a28.81,28.81,0,0,1-9.08,0c-3.22-.49-4.86.83-5.62,3.77q-1.44,5.59-3,11.17c-2.34,8.55-4.67,17.1-7.06,25.64-.55,2,.34,5.37-2.49,5.38-2.53,0-2.4-3.32-2.94-5.38q-4.82-18.29-9.54-36.61c-.81-3.14-2.81-4.43-5.95-4.07a36.25,36.25,0,0,1-8.39.25c-2.33-.29-4.66-.42-5.44,2.39s1,4.07,3.3,4.91,3.18,2.59,3,5a23.51,23.51,0,0,0-.21,3.13c.82,16-.05,32,.51,48,.09,2.45-.68,4-3.3,4.48-2.35.39-3.43,1.89-3.13,4.25s1.89,3.36,4.15,3.37c4,0,8,0,11.92,0,1.86,0,3.62-.38,4.12-2.48s-.16-4.15-2.28-5c-2.93-1.13-3.11-3.27-3.08-5.9.1-10,.51-20.09-.37-30.12-.17-1.93-1.5-5.17.75-5.58s2.83,3,3.28,5.08c2.92,13.36,8,26.14,10.72,39.54a12.55,12.55,0,0,0,1.09,2.94c.42.84,1,1.64,2.14,1.52s1.48-1.1,1.62-2c1.09-7.08,3.87-13.69,5.62-20.59,2-7.93,4.1-15.83,6.2-23.73.28-1.06.32-2.67,1.91-2.45s1.29,1.79,1.33,2.89a40.72,40.72,0,0,1-.17,6c-1.11,8.86.15,17.72,0,26.58-.05,3-.05,5.28-3.42,6.3-2,.59-2.52,2.3-2.15,4.25.41,2.11,1.94,2.75,3.88,2.75h6v0h5.61c2.18,0,4.48,0,4.94-2.77S678.47,1351,675.77,1350.41Z"/><path class="cls-1" d="M129.3,501a7.67,7.67,0,0,1,.3-4.16c.86-2.42,1.44-4.76-1.22-6.55-2.87-1.93-5.4-.87-7.67,1-1.7,1.41-3.08,3.22-4.75,4.66-7.75,6.7-15.72,13.13-23.45,19.85-10.8,9.38-22.74,17.52-33.89,26.58a40.7,40.7,0,0,1-24.49,9.12c-5.47.25-11,.76-16.39,1.42-4.64.56-9.28,1.47-13.31,4C2.2,558.33-.68,559.83.14,563s3.77,4.54,7.09,4.59c2.34,0,4.67,0,7,0a56.68,56.68,0,0,0,13.27-.8c7.78-1.31,15.93-1.64,22.75-6.22a60.89,60.89,0,0,1,17-8,24.8,24.8,0,0,0,8-4.19c6-4.6,12-9.32,17.93-14,6.48-5.15,12.8-10,21.46-11.79C126,520.21,132,513.62,129.3,501Z"/><path class="cls-1" d="M429.11,1351.21c-4.57.32-6.1-2.86-7.34-6.18-2.34-6.23-4.42-12.55-6.65-18.81-.63-1.77-.4-3,1.27-4.21,8.41-5.86,11.36-18.68,6.5-27.76-2.39-4.46-5.59-7.93-10.58-9.61-9.21-3.09-18.66-1.82-28.05-1.88-1.76,0-3.35.37-3.5,2.54-.13,2,.13,4,2.37,4.53,3.63.79,4.22,3.07,3.86,6.24a48.4,48.4,0,0,0,0,5.25q0,22.42.07,44.85c0,2.18-.44,4-3,4.32-2.89.39-3.44,2.42-3.24,4.88s2.09,2.71,4,2.92c5.59.62,11.18-.33,16.79.24,2.35.24,4.95-.5,5-3.64s-1.75-4.7-4.93-4.56c-2.41.11-3.35-1.16-3.31-3.45,0-2.92,0-5.84,0-8.76h.06c0-3.15,0-6.3,0-9.46,0-1.49.43-2.85,2.08-3.26a3.35,3.35,0,0,1,3.9,1.65,19.6,19.6,0,0,1,1.49,3.91c2.05,6.45,4.13,12.9,6.07,19.39,1,3.46,3.36,5.87,6.07,7.91,3.11,2.36,9.79,2.23,12.6,0a3.81,3.81,0,0,0,1.65-4.28C431.83,1352.43,430.78,1351.1,429.11,1351.21Zm-16.47-39.47c-1.43,5.14-4.86,7.29-10.22,7.1-2.72-.09-4.11-1.31-4-4.08,0-1.75,0-3.5,0-5.25s0-3.26,0-4.89h0c0-3.5,0-7,0-10.49-.05-3,1.46-4.14,4.37-4,5.37.33,8.43,2.61,10,8.14A24.71,24.71,0,0,1,412.64,1311.74Z"/><path class="cls-1" d="M882.06,1282.68a6.31,6.31,0,0,0-3.09-.27c-3.72.85-7.45-.12-11.18.23-2.09.19-4.42-.6-5.09,2.27s.62,4.47,3.37,5.16a3.38,3.38,0,0,1,2.76,3.93c-1.1,7.13.11,14.23,0,21.34,0,1.06.27,2.65-1.34,2.83-1.3.14-1.54-1.23-1.91-2.18-.62-1.63-1.24-3.28-1.71-5a198,198,0,0,0-8-21.68c-3-7.24-3.2-7.13-11.16-6.71-1,0-2.09-.16-3.14-.18-2,0-4.2,0-4.8,2.48s.63,4.09,2.93,4.85,3.16,2.56,3.13,4.88c0,1.41,0,2.81,0,4.21q0,23.85.08,47.69c0,1.73-.25,3.4-2.22,3.89-2.55.64-4.48,1.79-4,4.76.53,3.21,3.25,3.45,5.7,3.42,3.73,0,7.43-.34,11.19,0,2.14.18,4.71-.27,5.23-3.06s-.94-4.46-3.58-5.17c-2.1-.57-2.79-2.07-2.5-4,.85-5.6-.34-11.2-.09-16.79,0-4.67,0-9.34,0-14,0-2-1.59-5.26.39-5.71,2.62-.59,3,3,3.78,5,5.33,14,13,26.93,17.84,41.13.44,1.3,1.34,2.74,3.08,2.2s1.29-2,1.13-3.29c-1-7.56-.45-15.16-.63-22.73-.3-12.6,0-25.22-.08-37.83,0-2.57,1.11-3.84,3.65-4.19a3.15,3.15,0,0,0,2.87-3.42A3.87,3.87,0,0,0,882.06,1282.68Z"/><path class="cls-1" d="M260.49,1282.76c-4.27.34-8.61-.2-12.91-.36-2.25-.08-4.37.2-5,2.8s.49,4.35,3.14,5c2.35.54,3.13,2,3.1,4.34-.08,8.53,0,17.06,0,25.59h0c0,8.53,0,17.06,0,25.59,0,2.33-.36,4.13-3,4.76a3.89,3.89,0,0,0-3.19,5c.5,2.46,2.47,3.18,4.81,3.13,4.88-.1,9.77-.27,14.66-.27,11.39,0,18.8-4.91,22-15.82a72,72,0,0,0-.33-43.16C280.85,1290,274,1281.66,260.49,1282.76Zm12.83,57.58c-.93,4.87-3,9.22-8.59,10.33-3.12.61-5.13-1.12-4.87-4.21.76-8.86.09-17.74.4-26.36-.23-9,.25-17.77-.42-26.52-.2-2.76,1.79-4.06,4.78-3.17,5.07,1.5,7.62,5.5,8.53,10.24A104.32,104.32,0,0,1,273.32,1340.34Z"/><path class="cls-1" d="M578.93,1286.8c-4-4.54-9.14-6.73-15.4-5-7.6,2.17-11.44,8.12-13.64,14.87-3.45,10.6-5.1,21.58-3.6,32.8,1.12,8.35,2.23,16.72,7.85,23.59,4.17,5.1,9.43,7.53,16,6.35,8.27-1.48,12.25-7.5,15-14.66a57,57,0,0,0,3.76-22.32c-.16-3.38-.1-6.79-.54-10.13C587.17,1303.13,585.3,1294,578.93,1286.8Zm-3.12,48.87a36,36,0,0,1-3.33,11.38c-1.12,2.23-2.88,4.32-5.58,4.14s-4.19-2.2-5.26-4.61c-2.79-6.3-2.7-13-2.71-19.63v-4.21a121,121,0,0,1,1.43-23.75,14,14,0,0,1,4.22-7.9c1.87-1.75,3.69-1.78,5.55,0a8,8,0,0,1,2.47,3.36c1.73,6,3.89,12,3.81,18.46C576.31,1320.5,576.84,1328.1,575.81,1335.67Z"/><path class="cls-1" d="M349.64,1332.87a3.19,3.19,0,0,0-3.39,3.62c.09,3.14-.51,6.26-.11,9.44.48,3.89-1.18,5.37-5.14,5a18.24,18.24,0,0,0-5.57-.13c-3,.58-4.41-.81-4.39-3.81,0-3.39,0-6.78,0-10.17h0c0-3.5,0-7,0-10.52,0-2.6,1-3.75,3.86-3.57,4.66.31,9.34.2,14,.33,3,.08,4.67-1.21,4.62-4.32s-1.86-4.24-4.81-4.18c-4.56.09-9.12,0-13.67.1-2.76.06-4.11-1-4.06-3.89.09-5.72.06-11.45,0-17.18,0-2.55,1.16-3.59,3.65-3.5s4.91.15,7.36,0c2.76-.12,3.81,1.23,3.74,3.82s-.2,4.91-.1,7.35c.11,2.65,1.94,3.53,4.3,3.64s4-.86,4.07-3.3c.13-5.26.13-10.52-.05-15.78-.09-2.69-1.75-3.93-4.52-3.54-10.46,1.47-21,.32-31.43.14-2.22,0-4.05.26-4.48,2.77s.23,4.44,3.12,4.89c2.3.36,3,1.86,3,4q0,26.48,0,53c0,1.69-.39,3.13-2.36,3.25-3,.19-4.2,1.81-3.87,4.63.38,3.16,2.66,3.8,5.35,3.77,10.38-.1,20.75-1.08,31.13.06,2.28.25,4.17-.74,4.21-3.16.1-6.53,0-13.08-.22-19.61C353.87,1333.56,351.87,1332.76,349.64,1332.87Z"/><path class="cls-1" d="M730.44,1283c-3,0-6.08,0-9.11,0v-.18H710.47c-2,0-3.83.25-4.19,2.71-.3,2.12.47,3.83,2.6,4.35,3.18.78,3.76,2.86,3.74,5.76q-.18,25.56-.12,51.13c0,2.3-.86,3.45-3.14,3.76s-3.44,1.88-3.21,4.2a4,4,0,0,0,3.85,3.87,9.14,9.14,0,0,0,2.09,0,84.87,84.87,0,0,1,14,0c2.61.17,5.07.28,5.44-3.23.35-3.32-.82-4.71-4.59-4.92-2.71-.16-3.94-1.46-3.58-4a82.9,82.9,0,0,0,.37-11.89c0-3,1.4-4.24,4.28-4.22a32.64,32.64,0,0,0,5.6-.25c4.71-.79,8.93-2.56,11.94-6.56,7.35-9.73,6.85-20.08,1.7-30.32C743.93,1286.51,738,1283.11,730.44,1283Zm3.47,38a7.3,7.3,0,0,1-3.7,1.84c-5.15.61-7.47-.68-6.66-6.08,1.08-7.14-.53-14.4-.44-21.63.07-4.8,1.15-5.79,5.87-4.77,4.07.89,6.95,3,8.16,7.22.93,3.25,2.06,6.44,2.08,10.44C738.77,1312.46,738.32,1317.48,733.91,1321Z"/><path class="cls-1" d="M952.18,1282.44a65.65,65.65,0,0,1-12.22.07c-2-.15-3.66.13-4,2.36-.26,2-.31,4.33,2.14,5,3.63.91,3.19,2.73,2.06,5.46-1.57,3.76-3.4,7.44-4.27,11.47-.29,1.33-.56,3-2.35,3.06s-2.28-1.56-2.58-2.9c-1-4.37-2.91-8.38-4.51-12.51-1-2.46-.48-3.78,2.2-4.24s3.06-2.25,2.69-4.46-1.66-3.41-4.12-3.35c-4.87.11-9.75,0-14.88,0-1.79-.22-3.23.46-3.52,2.66s.14,4.57,2.68,5c2.83.44,3.89,2.23,4.82,4.45,2.37,5.59,5,11.09,7.07,16.78s5,10.92,4.25,17.44c-.68,6.09-.13,12.32-.06,18.48,0,2.49-1.38,3.06-3.53,3.34a3.84,3.84,0,0,0-2.74,6c1.21,1.92,3.09,2.25,5.21,2a67.08,67.08,0,0,1,13.29-.08c2.65.27,5.25.26,5.83-2.87s-1.2-4.82-4.23-5.31c-1.94-.3-2.88-1.37-2.65-3.39.86-7.57.2-15.17.38-22.76a14.25,14.25,0,0,1,.64-5.18q5.32-13,10.6-25.93c.62-1.53,1.5-2.64,3.26-2.75,3-.19,4.66-1.73,4.19-4.75C957.36,1282.3,954.78,1282.14,952.18,1282.44Z"/><path class="cls-1" d="M809.2,1350.76a8,8,0,0,1-3.49-5.4c-3.56-14.63-7.07-29.28-10.84-43.86-1.46-5.65-3-11.29-4.29-17-.25-1.08-.69-2.48-2.18-2.3-1.28.16-1.28,1.51-1.48,2.51-.57,3-.85,6-1.69,8.94-5.08,17.48-8.54,35.39-14.12,52.73-.61,1.89-1.28,3.44-3.2,4.28-2.22,1-3.25,2.76-2.49,5.12s2.79,2.93,5.07,2.8l6-.32c1.81.14,3.32.32,4.83.34,3.19,0,4.87-2.41,3.81-5.43a5.18,5.18,0,0,0-2.85-2.92c-1.85-.94-1.78-2.62-1.49-4.27s.45-3.58,2.43-3.85a40.19,40.19,0,0,1,8.69-.38c3,.27,3.07,3.11,3.6,5.34.36,1.58-.09,2.86-1.84,3.19-2.84.55-3.57,2.34-3,4.9s2.6,3.55,5,3.34a52.43,52.43,0,0,1,10.48.12c2.15.25,4.39,0,5.21-2.49A4.43,4.43,0,0,0,809.2,1350.76Zm-19.28-15.29c-1.55-.22-2.94-.4-4.32-.64-1.76-.3-2.33-1.5-2-3.08,1.06-4.9,2.66-9.68,3-14.72.06-.78.43-1.71,1.41-1.78s1.36.84,1.54,1.63c1.14,5.12,2.33,10.24,3.32,15.39C793.35,1334.56,791.76,1335.31,789.92,1335.47Z"/><path class="cls-1" d="M162.2,1336.35c-2.24-.07-3.58,1.08-3.67,3.32-.11,2.82-.22,5.59-1.69,8.13-3,5.19-9.32,5.5-12.53.5a19.14,19.14,0,0,1-3.27-8.77,145.11,145.11,0,0,1-.61-18.88c0-4.09-.2-8.18,0-12.26.35-5.67.26-11.46,3.83-16.46,2.86-4,8-4.37,10.81-.33a13,13,0,0,1,2.42,7.9c-.14,3.67,1,5.2,3.82,5.24s4-1.7,4-5.25c0-4.18-.7-8.36,0-12.55.27-1.53.13-3.11-1.36-4.08a4.11,4.11,0,0,0-4.93.14c-2,1.53-3.71,1.2-5.73-.09a11,11,0,0,0-13.36.57c-7.09,5.42-9.74,13.24-10.89,21.61a109.32,109.32,0,0,0-.23,27.94c.91,7.64,3,14.85,8,21a16.18,16.18,0,0,0,19.61,4.14c7.1-3.48,9-12.31,9.07-18.49A3.13,3.13,0,0,0,162.2,1336.35Z"/><path class="cls-1" d="M1039.54,326c-1.78-1.83-3.8-1.17-5.88-.58-8.59,2.43-17.1,4-25.27-1.55-1.91-1.31-4.41-1.45-6.71-1.9a37.94,37.94,0,0,1-6.82-1.56c-10.28-4.05-21.48-4.2-31.92-7.79-5-1.74-10.77-1.33-14.77,3.6-1.29,1.6-2.22,3.29-1.4,5.47s2.7,2.6,4.79,2.78c4.75.41,9.74.2,13.84,3.13,5.55,4,11.68,5,18.3,4.47,2.89-.21,6.09-1.07,8.67.35,6.66,3.64,14.23,4.51,21.1,7.44a20.34,20.34,0,0,0,10.07,1.9c1.32,0,2.5.08,3.66,0,6.17-.51,11.67-4.47,13.18-9.5C1041,330,1041.36,327.82,1039.54,326Z"/><path class="cls-1" d="M516.07,1336.41c-2-.08-3,1.22-3.28,3-.25,1.49-.13,3-.29,4.53-.44,4.13-3.73,7.83-7.37,8.39-3.11.47-6.61-2-8.25-5.87a25.45,25.45,0,0,1-2.22-8.08c-.39-5.59-.65-11.19-1-17.3.33-5.55.63-11.62,1.09-17.67a27.06,27.06,0,0,1,1.77-8.54c1.67-4,4.41-6.27,7.67-6.19,2.94.07,6,3,7.21,6.78a9.89,9.89,0,0,1,.11,4.16c-.34,3.09,1.13,5,3.85,5s4.42-1.84,4.12-4.91a90.86,90.86,0,0,1-.17-13.3c.08-1.63-.3-3.05-2-3.74s-3.32-.68-4.51.73c-1.52,1.8-2.74,1.51-4.42.18-3.25-2.57-6.79-3-10.86-1.64-7,2.31-9.81,8.12-11.83,14.22-4.59,13.87-3.58,28.11-1.56,42.26a31.22,31.22,0,0,0,6.65,15.25,16.28,16.28,0,0,0,19.27,4.65c7.54-3.44,10-13.77,9.36-19A3.22,3.22,0,0,0,516.07,1336.41Z"/><path class="cls-1" d="M213.43,1290.2c2.16-.34,2.69-2,2.67-3.91s-.95-3.39-3-3.74a22.2,22.2,0,0,0-3.83-.19c-4.29,0-8.59.18-12.88.09-1.89,0-3.31.31-3.62,2.36s-.67,4.56,2.14,5.14c3.23.67,3.57,2.72,3.55,5.42-.06,11,0,21.93,0,32.89,0,5.73-.06,11.45,0,17.17,0,2.69-.21,4.78-3.6,5.23-2.19.28-2.34,2.32-2.23,4.16s.88,3.29,2.86,3.38c5.46.23,10.93.43,16.39.39,2.08,0,3.87-1.12,4-3.6.12-2.2-.59-4-3-4.5-2.9-.6-3.13-2.51-3-5,.66-16.8.7-33.61,0-50.41C209.79,1292.22,210.51,1290.66,213.43,1290.2Z"/></svg>