<svg id="Layer_1" data-name="Layer 1" xmlns="http://www.w3.org/2000/svg" viewBox="0 0 3029.16 1319.59"><defs><style>.cls-1{fill:#a62b2a;}</style></defs><path class="cls-1" d="M2648.91,1277.31c-1-10.88-1.53-21.94-1.58-32.93-.06-12.69-2.76-25.08-3.92-37.64a285.33,285.33,0,0,0-5-35.06c-4.64-21-8.14-42.25-14.23-63-5.51-18.81-10.93-37.67-18-55.88-11.16-28.68-23.69-56.75-39.76-83.19s-33.8-51.88-54.84-74.71c-15.57-16.91-32-32.84-50.42-46.94-13-10-26.17-19.67-40-28.28-31.92-19.87-66.22-34.76-102.27-45.5a542.93,542.93,0,0,0-58.58-13.67,512.34,512.34,0,0,0-84-7.83c-14.58-.21-29.16-.29-43.76.5s-29,1.38-43.52,3c-24.16,2.7-48.17,6.19-72.05,10.72-18.31,3.47-36.45,7.68-54.57,12-13.86,3.27-27.41,7.8-41.19,11.45-18.63,4.94-37.33,9.61-56.18,13.76-19,4.2-38.27,6.81-57.53,9a281.55,281.55,0,0,1-44.08,1.19,400.22,400.22,0,0,1-64.47-7.94,425.74,425.74,0,0,1-50.57-13.79c-17.29-5.89-34.35-12.51-51.24-19.59-28.25-11.84-56-24.66-83.15-38.83-4.26-2.23-7.83-5.87-13.31-6.66.92,4.06,4.36,5.39,7,7.45,37,29.22,74.4,58,114.95,82.37,14.17,8.51,28.53,16.72,43.21,24.29,11,5.69,22.79,10,34.13,15.07,16.59,7.48,33.92,13,51.38,17.74a378.52,378.52,0,0,0,44.67,9.28c19,2.73,38,3.45,57,4.64,9.45.59,18.73-1.35,28.14-1.26a199.66,199.66,0,0,0,27.08-2c24.24-3.08,48.42-6.69,72.71-9.21,15.59-1.62,31.38-1.8,47-2.05,29.31-.48,58.66-1,88,.81,8.08.5,16.26.27,24.25,1.41,27.72,4,55.46,7.56,82.76,14.37a581.88,581.88,0,0,1,59.94,18.19c18.8,6.91,36.9,15.72,54.53,25.37a375.45,375.45,0,0,1,65,45,358.05,358.05,0,0,1,66.32,75.86c15.78,24.18,28.28,50.1,38.45,77.13a80,80,0,0,0,11.33,21.19,208.91,208.91,0,0,1,29,52.55c4.08,10.56,6.76,21.64,12.11,31.7a227.47,227.47,0,0,0,46.22,59.74,94.41,94.41,0,0,0,37.59,21.64c5.79,1.76,6.89,1,6.65-5.07C2649.65,1301.57,2650,1289.47,2648.91,1277.31Z"/><path class="cls-1" d="M1500.35,1133.68q0-68.61,0-137.21h.19q0-62.28,0-124.56c0-5.18,0-10.38.21-15.56.22-4.89-.7-6-5.75-5.91-8,.07-15.9.17-23.85.16-10.13,0-10.06,0-10,9.94.05,26.92-.1,53.85.08,80.77.23,34.37-.73,68.74.35,103.11,0,1,.27,2-.68,2.63-1.21.75-2.17-.15-3-.85a8.48,8.48,0,0,1-2-2.09c-5-8.21-11.11-15.56-16.74-23.3q-33.6-46.21-67.15-92.46c-17-23.34-34.2-46.49-50.82-70.07-4.08-5.78-8-8.65-15.34-7.91-8.49.85-8.55.21-8.14,8.51,0,1,0,2,0,2.92q0,131.37,0,262.74c0,4.21-.17,8.43-.59,12.62-.37,3.61,1.19,5.25,4.58,5.27,10.22.07,20.44,0,30.66.06,3.48,0,4.89-1.65,4.71-5.19q-.49-9.94-.51-19.92-.18-88.05-.27-176.11c0-1.56-.54-3.61,1.46-4.2s2.7,1.3,3.63,2.61q37.93,54.2,75.9,108.34c21.74,30.89,43.86,61.52,65.29,92.62,3.94,5.71,8.45,6.25,14,5.95,3.13-.17,4.66-1.86,4.29-5.16A69.22,69.22,0,0,1,1500.35,1133.68Z"/><path class="cls-1" d="M1131.69,892.81c-10.89-19.87-28.66-31-49.36-37.7a176,176,0,0,0-56-8.51c-21.54.23-43.09.44-64.64.48-4.64,0-5.21,2.46-5.2,6.21q.09,70,0,140.05h.27q0,63,0,126c0,6,.34,12-.54,18-.53,3.62,1.34,5.15,4.68,5.18q16,.12,32.11.12c3.31,0,5-1.51,4.92-5.1q-.4-17-.52-34c-.13-21.23-.05-42.47-.28-63.7-.07-6.82,1.21-8.29,8.09-7.69,21.38,1.87,42.69,2,63.83-2.5a98.65,98.65,0,0,0,28.58-10.65c19-10.79,31.82-26.82,38.13-47.81,4.58-15.23,5.47-30.93,4.56-46.67A74.19,74.19,0,0,0,1131.69,892.81Zm-41.1,76.11c-5.9,9.3-14.19,15.49-24.37,19.93-19.08,8.32-38.83,7.7-58.79,5.82-10.44-1-10.29-1.11-10.19-11.58.13-14.59,0-29.19,0-43.78h-.17c0-15.89.06-31.79,0-47.68,0-4,.95-6.4,5.54-6.79,13.75-1.16,27.41-1.61,41.18.38,10.54,1.53,20.8,3.76,30,9.19,15.6,9.25,24.34,22.58,24.39,41.38C1098.17,947.56,1097,958.79,1090.59,968.92Z"/><path class="cls-1" d="M899.75,1021.18c-8.28-15-21.38-24.92-36.23-32.82-16.44-8.75-33.82-15.51-50.22-24.42-18.44-10-28.6-24.27-27.83-45.59.82-22.81,16.44-36.2,35.51-38.25,20.56-2.21,39.79,3.68,57.75,13.62,3.44,1.9,5.94,1.17,6.94-2.19,2.68-9,6.26-17.66,9.3-26.52.77-2.22.88-4.25-1.73-5.84a66,66,0,0,0-20-8.48c-13.35-3-26.77-5.2-40.09-3.87-16.68-1.11-32.31.78-47.21,8.12-15.41,7.59-27.59,18.35-34.71,34-6.28,13.79-8.07,28.33-6.56,43.64,2.77,27.94,16,48.6,40.69,61.61,17.75,9.36,36.08,17.62,53.9,26.84,10.71,5.54,20.51,12.31,25.65,24.13,5.67,13,7.48,26.4.13,38.86-14,23.82-35.71,28.72-60,24.3-14.95-2.72-29.49-7.69-41.82-17.38-2.11-1.66-4.42-1.45-5.31,1.62-3.18,10.88-7.57,21.31-12.15,31.65-1,2.26-.84,4.08,1.4,5.43a125.78,125.78,0,0,0,30.14,13.24c13.69,3.91,27.57,3.56,41.51,3.56,25.36,0,48.31-6.58,67.09-24.56,11.19-10.72,20.13-22.67,22.92-38.5a97.82,97.82,0,0,0,1-28.48C908.41,1043,905.51,1031.59,899.75,1021.18Z"/><path class="cls-1" d="M1227.17,850.34c-8.75.2-17.51.23-26.26.26-9.89,0-9.9,0-9.9,10.06q0,133.73,0,267.45a77.06,77.06,0,0,1-.22,8.74c-.49,4.32,1.33,5.87,5.51,5.78,8.59-.19,17.19-.33,25.78-.13,11.29.27,10.06.37,10-10.18-.13-45.23,0-90.45,0-135.67h.14q0-70.51,0-141C1232.23,852,1231,850.25,1227.17,850.34Z"/><path class="cls-1" d="M2263.92,1112.39c-8.67-12.91-17.13-26-25.68-39-2.49-3.8-2-5.28,2.23-6.74a23.81,23.81,0,0,0,6-3.09c13.54-9.44,21.28-22.24,21.15-38.88-.06-9.16-.73-18.34-6.22-26.56-10.81-16.21-27.36-20.58-45-21.66a215.2,215.2,0,0,0-45.84,1.79c-2.36.36-3.55,1.29-3.47,3.69.11,3.24.29,6.48.29,9.72q0,68.1,0,136.19a40.06,40.06,0,0,1-.53,8.71c-1,4.34,1.12,5.72,4.77,5.87,4.53.18,9.08.09,13.61.18,3.41.07,4.47-1.71,4.44-4.89-.09-10,0-20.1,0-30.14h-.5q0-15.07,0-30.15c0-3.49.86-5.86,5.17-4.32,3.47,1.24,7.19.89,10.6.3,6.16-1.07,9.55,1.53,12.65,6.5,12.29,19.64,24.9,39.08,37.35,58.62,1.5,2.36,3.39,4,6.25,4,6.16.06,12.32.11,18.48,0,3,0,4-1.78,2-4.08C2274.66,1130.49,2269.78,1121.11,2263.92,1112.39Zm-30.69-64.92c-5.5,3.79-11.84,5.34-18.35,5.69-6.79.36-13.61,0-20.42,0-3.91,0-5.48-1.6-5.37-5.59.22-7.61.06-15.22.06-22.83h.1c0-7.77.05-15.54,0-23.32,0-2.82.73-5,3.91-4.93,11.41.25,22.92-.92,34,3.1,10.89,3.93,16.2,11.5,16.42,23.06C2243.77,1032.59,2242,1041.45,2233.23,1047.47Z"/><path class="cls-1" d="M1944.52,976.37c-12.94-.71-26-.11-38.93-.17-6.82,0-8.17,1.3-8.16,8.26q0,37.95,0,75.89h-.27c0,25.77.06,51.55-.07,77.33,0,3.81,1.74,5,5,4.8,16.62-.86,33.28,1.54,49.91-1.57,9.7-1.82,18.89-4.57,27.28-9.5,14.79-8.7,24-21.7,28.91-38.13,7.31-24.57,8.83-49-.44-73.37C1996.42,990.09,1970.63,977.81,1944.52,976.37Zm38.23,117.68c-5.44,12-14,20.86-27,25.71-10.23,3.82-20.48,1.75-30.69,2.6-3.3.27-4.73-2.06-4.72-5.42.06-19.12,0-38.23,0-57.34h.2c0-18.31,0-36.62,0-54.92,0-7.89.63-8.34,8.28-8.1,3.72.11,7.46-.13,11.18,0,29.44,1,43.52,15.18,48.65,40.84C1992.55,1056.71,1991,1076,1982.75,1094.05Z"/><path class="cls-1" d="M2138.05,1128.51c.49-5.53-.58-6.6-6-6.55q-32.1.24-64.21.42c-3.79,0-5.41-1.4-5.35-5.57.25-16.69.31-33.38.05-50.07-.07-4.25,1.44-5.48,5.28-5.43,14.59.18,29.18.21,43.76.39,3.48,0,5.12-1.3,5-4.89s-.15-7.44-.07-11.16-1.67-5-5.42-4.9c-14.59.34-29.18.42-43.77.54-3.33,0-4.9-1.47-4.84-5.1.2-11.5.33-23,.07-34.51-.09-4,1.44-5.27,5-5.25q11.91.09,23.83.12l40.87.17c5.38,0,6.43-1.24,6-6.66a51.54,51.54,0,0,1,0-7.76c.34-5.25-.6-6.25-5.89-6.24-14.43,0-28.86,0-43.29,0v.28q-18.49,0-37,0c-12.17,0-12.35,0-12.37,12.3q-.13,69.55-.06,139.1c0,2.75.14,5.52,0,8.26-.36,6.11-.1,6.49,5.83,6.48h81.74c2.44,0,4.87.1,7.3,0,3-.12,4.45-1.68,4-4.76A40,40,0,0,1,2138.05,1128.51Z"/><path class="cls-1" d="M507.8,75.25c4.12-2.88,9-3.45,13.59-5a362,362,0,0,1,52-14.22A340,340,0,0,1,609,51.19c10-.82,20.07-1.73,30-.61,10.88,1.23,22,1.22,32.56,5,3.29,1.17,5.17-.65,6.27-4.17,1.45-4.66-1.21-8.53-1.46-12.82-.61-10-5.6-18-13.18-24C649.68,4,634-.54,616.86.07c-3.08,0-6.18-.19-9.24,0A84.75,84.75,0,0,0,598,1.57c-28,5.63-52.68,17.83-73,38.25-9,9.08-15.4,20-20.67,31.55-.56,1.23-2.35,2.42-1.16,3.74S506.51,76.14,507.8,75.25Z"/><path class="cls-1" d="M1797.55,1112.63c-2-2.83-3.73-2.89-6.06-.09-10.68,12.76-24.78,15.79-40.39,13.21-16-2.64-26.8-12.83-32.72-27-11.92-28.6-10.67-56.81,6-83.64,6.59-10.62,16.29-16.81,28.47-18.15s24.27-1.07,35.6,4.56c3.81,1.9,6.12,1.18,6.89-3.31a22.28,22.28,0,0,1,2.58-7.3c3.16-5.57,2.38-7.87-3.66-9.5-10.86-2.93-21.78-5.7-34.12-5-9.77-1.49-20.1,1.16-29.33,5.51-21.39,10.1-34.49,28.08-39.94,50.59-6.41,26.52-5.51,52.78,6.88,78.19,10.19,20.88,26.76,32.5,48.92,35.37,21,2.72,40.94-1.7,57.57-16.31,2.47-2.17,3-4,1.12-6.56C1802.72,1119.69,1800.1,1116.19,1797.55,1112.63Z"/><path class="cls-1" d="M1855.61,976.1c-5,0-10,.06-15.07,0-3.16,0-4.22,1.49-4.22,4.51q.09,39.38,0,78.75h.25q0,35.73,0,71.46c0,11.59.09,11.59,11.77,11.65s11.75,0,11.77-11.39c.09-50.07,0-100.14.08-150.21C1860.23,977.57,1858.88,976.06,1855.61,976.1Z"/><path class="cls-1" d="M632.21,57.73a66.09,66.09,0,0,1-8.57,1.37c-22.72,1.23-44.1,6.61-62.67,20.53-1.13.85-2.88,1.45-2.31,3.25.49,1.56,2.16,2,3.62,1.94,6.77-.22,13.11,2.05,19.55,3.47,15.93,3.51,30.62,10.27,44.52,18.65,3.8,2.29,6,1.76,8.41-1.79,7.46-11,15.1-21.81,22.75-32.64,2.93-4.14,2.45-5.69-1.64-8.54C648.83,59.08,640.58,59.25,632.21,57.73Z"/><path class="cls-1" d="M505.14,822.21c6.82,4.47,6.85,4.43,11.77-2.45,6.24-8.71,6.24-8.71-1.62-15.58-.24-.22-.46-.46-.71-.67a186.39,186.39,0,0,1-36.76-43.71,182,182,0,0,1-20.47-48.11c-4.79-17.65-6.19-35.7-5.45-54a169.48,169.48,0,0,1,12-56.25c3.37-8.43,7.86-16.29,11.5-24.57a1.65,1.65,0,0,0,.94-1.63,2.46,2.46,0,0,0,1.48-2.4c18.44-27.19,41.8-48.9,71.28-63.75a28,28,0,0,0,8.52-4,2.46,2.46,0,0,0,2.19-.92c2.53-.13,4.62-1.49,6.85-2.46l2.9-.5c9.82-3.38,20.06-5.09,30.12-7.54a6.73,6.73,0,0,0,4-.24l7.4-.35c10.24.12,20.51-.86,30.73.66a3.87,3.87,0,0,0,.68,0,3.87,3.87,0,0,1-.68,0c-10.22-1.52-20.49-.53-30.73-.66-.17,1.6,0,3.33-.56,4.76-4.41,10.91-6.5,22.36-8,34C601,544,598.81,556.19,600,568.57a143.94,143.94,0,0,0,14.7,52c.69,1.36.83,3.63,3,3.1,1.95-.46,1.79-2.53,1.67-4.11-.33-4.36-.91-8.71-.44-13.09,2.25-20.78,5.79-41.31,11.85-61.36a415.68,415.68,0,0,1,18.75-50.41c4.45-1,8.28,2.22,12.63,1.89l2,.22,14.63,4.43a3.77,3.77,0,0,0,2.92.35c13.79,6.58,28.44,11.49,40.69,21.08,1.52,1.19,4,1.91,5.2-.18,1.84-3.21,6.09-5.3,5-9.93a2.87,2.87,0,0,0-1.22-1.44c-3.59-2.43-7.21-4.8-10.82-7.18l-.1-.34-.35,0a11,11,0,0,0-5.39-3.55l-.13-.34h-.37c-2.44-2.62-5.63-4.19-8.65-5.95a192.12,192.12,0,0,0-45.23-19.21,92.2,92.2,0,0,1-14-2.87,93.44,93.44,0,0,0,14,2.87c-.69-4.07,2.6-6.38,4.24-9.37,9.74-17.73,20-35.18,32-51.47a16.31,16.31,0,0,1,3.38,2.65c13.62,15.63,27.36,31.16,41,46.76,9.5,10.83,19.81,21,28,32.93.74,1.08,1.5,2.38,3,2,1.85-.46,1.71-2.21,1.63-3.62a16,16,0,0,0-.77-3.79c-3.42-11.34-5.33-23-7.51-34.64C763,443.85,759.46,432,756,420.31a375,375,0,0,0-21.8-55.53c4.63-5.16,9.12-10.46,13.91-15.46,28-29.18,57.18-56.93,90.29-80.31,13.75-9.71,27.4-19.61,42.49-27.24h0c.46,0,1,.32,1.36.13,6.91-4.15,14.63-6.44,22-9.45,4.57-1.86,9-4.67,13.68-5.46,5.71-1,9.52-4.07,13.44-8-7.59,3.29-16.17,2.67-23.55,6.67h0c-3.28-.67-6.23,1.22-9.49,1.11-9.71-.33-18.43,5-28.11,5.08-.08,0-.17.26-.25.39-.43,1.5-1.91,1.13-2.84,1.33-3,.64-6.42.21-8.07,3.85a.49.49,0,0,1-.1.15.49.49,0,0,0,.1-.15c1.65-3.64,5-3.21,8.07-3.85.93-.2,2.41.17,2.84-1.33l-4.38,0,0-.32c-.14,0-.29.06-.42.11l-.67.31-14.46,2a14.68,14.68,0,0,0-6.88.14l-.89-.34c0-.22,0-.44.07-.67h-.32c0,.23,0,.46-.05.69-4.63-2-9.61-1.79-14.46-2.41a3.71,3.71,0,0,0-2.87-.46c-1.18-1.36-3-1-4.44-1.54-7.15-2.73-14.78-4.57-19.86-11h0c2.21-1.5,4.73-1.79,7.32-2.11,6.76-.84,13.31-2.24,18.72-6.94,4-3.53,4.37-6.28.16-9.82a29.65,29.65,0,0,0-14.35-6.44c-5.19-.91-10.59-1.29-15.24-4.25l-1.62-.31h0l1.62.31,2.85-5.74a2.05,2.05,0,0,0,1.53-1.71l8.82-8.81a2.05,2.05,0,0,0,1.73-1.39,16.23,16.23,0,0,0,6-5.46,5.33,5.33,0,0,0,2.86-2.34,2.1,2.1,0,0,0,2-1.56l.92-.57a1.77,1.77,0,0,0,2-1.37c.3-.21.59-.43.88-.65a13.92,13.92,0,0,0,2.16-.93c7.81-4.85,14.94-10.81,23.55-14.38,2.52-1,2.52-4.1.06-5.77-1.87-1.26-4.12-2-5.85-3.41-4-3.29-7.93-3-12-.23-1.46,1-3.15,1.65-4.65,2.6-7.74,4.93-16.55,8.05-23.72,14l-.8.47c-3.72,1.5-7.3,3.21-10,6.29a6.92,6.92,0,0,0-3.59,2.61,2,2,0,0,0-2.07,1.37l-.86.48a1.91,1.91,0,0,0-2,1.49,2.17,2.17,0,0,0-1.83,1.3,2.27,2.27,0,0,0-2.07,1.61L781,168.5a2,2,0,0,0-2,1.5l-.88.61a30.54,30.54,0,0,0-9.7,7.16l-1,.72c-1.83,0-2.57,1.11-2.75,2.77l2,0c9,4.35,18.85,5.59,28.39,7.95a.09.09,0,0,0,.07,0,.09.09,0,0,1-.07,0c-9.54-2.36-19.4-3.6-28.39-7.95l-2,0c-6.76.23-12.9-2.77-19.09-4.56-15.18-4.41-30.31-9.12-45.3-14.3C678.39,154.87,657.69,145,637,135.13c-11.65-5.56-22.85-12.14-35.48-15.42-.3.33-.59.68-.88,1,.29-.35.58-.7.88-1a3.19,3.19,0,0,0-2.4-2.18c-13.56-3-26.42-8.35-40.37-10.15-23.16-3-45.68-.07-67.61,6.6-24.12,7.33-44.64,21.7-63.16,38.25-36.48,32.61-66.06,70.67-86.4,115.48-6.71,14.8-12,30.21-13.75,46.31-1.34,12.38-3.73,24.72-1.63,37.6,1.56,9.65,1.88,19.51,4.72,29,1.12,3.76,3.05,7.13,4.25,10.82,3.71,11.42,10.27,21.09,18.19,30a.49.49,0,0,0,.52.6,9.44,9.44,0,0,0,4.6,4.66,4.74,4.74,0,0,0,2.49,2.38c15.63,13.95,32.8,24,54.66,24.6,17.56.48,33.3-4.46,48.3-12.87l1.49-.71a34.33,34.33,0,0,0,8.83-4.38l.91-.51a35.42,35.42,0,0,0,10.36-6l1.32-.76a1.85,1.85,0,0,0,2.07-1.43l.85-.58a2,2,0,0,0,2-1.38l.88-.57a1.82,1.82,0,0,0,2-1.42,2.55,2.55,0,0,0,1.95-1.42,2.3,2.3,0,0,0,2.19-1.39,7.27,7.27,0,0,0,3.66-2.41,2.1,2.1,0,0,0,2.11-1.52l.8-.52a1.87,1.87,0,0,0,2.06-1.45l.85-.62a1.83,1.83,0,0,0,2-1.35l.92-.54a4,4,0,0,0,3.08-2.34,13.1,13.1,0,0,0,4.71-3.46,2.06,2.06,0,0,0,2-1.45l.92-.54a3.63,3.63,0,0,0,3-2.35l1.85-1.38a14.47,14.47,0,0,0,5.93-5.44A75.44,75.44,0,0,0,545.27,383a2.37,2.37,0,0,0,2-1.79,28.57,28.57,0,0,0,7.66-7c2.67-1.51,5.47-2.83,7.21-5.53.37.07.58-.08.6-.47a40.29,40.29,0,0,0,10.61-8.52l.1-.07c2.59-.68,4.24-2.64,6-4.46h0c4.26-1.94,8.51-3.91,12.78-5.83,11.83-5.3,23.93-5.67,35.75-.58,17.22,7.43,30.32,20.22,42.37,34.18-1.65,2.36-3.29,4.73-5,7.07a399.69,399.69,0,0,0-41,70.2c-1.39,3.1-2.73,6.11-5.65,8.09h0c-6.52-.35-13.06-1.08-19.55.4l-.06-.68-.37.07c0,.22.09.44.13.66-8.56.52-17.24.1-25.65,2A227.63,227.63,0,0,0,518.85,490c-24.75,12.72-45,30.9-62.06,52.28-23.92,29.86-36.7,64.51-39.89,102.61a187.36,187.36,0,0,0,16.91,95.54C449.56,774.52,473.7,801.64,505.14,822.21ZM907.85,225.79a1.33,1.33,0,0,0,0,.4A1.33,1.33,0,0,1,907.85,225.79Zm-51,11.72a3.35,3.35,0,0,0,1.46.36,3.35,3.35,0,0,1-1.46-.36l-2.1.42c-1.49.59-3,1.2-4.46,1.82,1.49-.62,3-1.23,4.46-1.82ZM827.3,250.22c-5.5,2.65-11,5.33-16.51,8l-.52.22.52-.22C816.31,255.55,821.8,252.87,827.3,250.22Zm-27.42-31.58-.1,0Zm-34,2.69c9.89-1.78,20-1.22,29.85-3.25.21,0,.43-.07.63-.09-.2,0-.42,0-.63.09-9.84,2-20,1.47-29.85,3.25a32.53,32.53,0,0,1-3.31.43A32.53,32.53,0,0,0,765.84,221.33Zm-9.79-.14a13.48,13.48,0,0,1-2.59-1,3.81,3.81,0,0,0-.85-.31,3.81,3.81,0,0,1,.85.31A13.48,13.48,0,0,0,756.05,221.19ZM588.24,136.27a2.73,2.73,0,0,0,1.29-.85,2.33,2.33,0,0,0,.46-1.48l.54-1.15a5.4,5.4,0,0,0,2.53-3.65l1.16-1.44a13.41,13.41,0,0,0,1.68-1.4,13.41,13.41,0,0,1-1.68,1.4l-1.16,1.44a5.4,5.4,0,0,1-2.53,3.65l-.54,1.15a2.33,2.33,0,0,1-.46,1.48,2.73,2.73,0,0,1-1.29.85l-1.13,1.56q-3.09,5.83-5.78,11.83,2.7-6,5.78-11.83ZM573,341.89c-1-1.83-2-3.64-3-5.44,1,1.8,2,3.61,3,5.44l.45.8Zm82.59-64.68c-18.21-9.4-37.51-12.1-57.84-10.52-18.87,1.47-35.79,8.16-52.14,17-2.41,1.29-4.87,2.55-6.71,4.69,8.69,12.91,17.67,25.64,25.75,38.92-8.08-13.28-17.06-26-25.75-38.92-7.86,2.67-13.84,8.29-20.33,13.07-19.08,14.05-36.66,29.91-54.64,45.29-7.25,6.21-15.28,11.51-22.42,17.9-1.42,1.27-3.26,2.12-4.11,4l-1.16,1a7.51,7.51,0,0,0-3.9,2.91,2,2,0,0,0-1.9,1.1,2.57,2.57,0,0,0-2.38,1.59h-.4l-.18.36c-4.59,1.88-8.57,4.92-13.43,6.41-10.26,3.16-16.95.83-22.32-8.63a63.29,63.29,0,0,1-7.86-28.68c-.06-1.42-.28-2.84-.43-4.26-.08-.66-.15-1.31-.23-2q0-6.86,0-13.71l.24-2c1.26-19.6,7.33-37.84,15.68-55.43l.6-1.2q1.14-2.33,2.3-4.64l.35-.17,0-.39a6,6,0,0,0,2.54-4.32l2.27-3.6a6.36,6.36,0,0,0,2.69-4.19,1.82,1.82,0,0,0,1.19-1.68,2.47,2.47,0,0,0,1.69-2.23,4.83,4.83,0,0,0,2.18-2.68,2.36,2.36,0,0,0,1.76-2.18l0-.06c4.44-4.83,8.69-9.86,13.38-14.42,5.84-5.7,12.06-11,18.12-16.48a2,2,0,0,0,1.6-1.3,10,10,0,0,0,5.16-3.6l6.54-4.38a2.46,2.46,0,0,0,2.37-1.39l.39,0,.19-.35c16.85-9.39,35-15.4,53.5-20.49a27.9,27.9,0,0,0,8.79-.45h27.34a16.18,16.18,0,0,0,6.89.32c3,1.46,6,3.25,9.57,2.74a179.41,179.41,0,0,1,6-19,179.41,179.41,0,0,0-6,19c22.62,9.51,46.28,15.65,70.16,20.74,13.9,3,27.87,5.84,41.83,8.37,20.65,3.75,41,9.76,62.18,10.33a18.85,18.85,0,0,1,4.18,1.1,6.94,6.94,0,0,1,2.75-1,6.94,6.94,0,0,0-2.75,1c1.53,4.61,3.11,9.2,6.51,12.87A45.48,45.48,0,0,0,768,246.05a8.57,8.57,0,0,0,5.2,3.48l1.28.62c7.07,4.65,15.19,5.74,23.31,6.82,3.09.41,6.37.18,8.93,2.51.62-.19,1.26-.35,1.89-.53-.63.18-1.27.34-1.89.53.92,2-.64,2.62-1.92,3.2-11.76,5.3-21.85,13.25-32.37,20.5-19.13,13.16-36.56,28.39-53.13,44.63-1.26,1.25-2.39,2.63-3.58,4,.24.85.27,1.75.51,2.61-.24-.86-.27-1.76-.51-2.61-2.14-.36-3.11-2-4.29-3.59C696.09,307.59,678.8,289.18,655.62,277.21ZM639.24,473.32c0-.09,0-.19,0-.3A1.55,1.55,0,0,1,639.24,473.32Zm3.26,20.5c.7,0,1.43-.25,2.14-.34h0C643.93,493.57,643.2,493.78,642.5,493.82Zm7,.1v-.28l-.52.07.52-.07Zm-8-23.48a5.57,5.57,0,0,0-3.82-.22h0l-4.33-.24c1.44.08,2.89.15,4.33.24A5.57,5.57,0,0,1,641.49,470.44Zm-77,7.87a1.14,1.14,0,0,0,.82-.43,1.16,1.16,0,0,1-.83.43,1.21,1.21,0,0,1-1.41-.68A1.22,1.22,0,0,0,564.49,478.31ZM449.34,695.68a1.5,1.5,0,0,1,.89.24A1.5,1.5,0,0,0,449.34,695.68Z"/><path class="cls-1" d="M2700,733.89a359.19,359.19,0,0,1-15.42-53.63c-2.1-9.81-4.26-19.66-4.89-29.71-.8-12.58-2.7-25-3.68-37.63-1.33-16.9-1.24-33.85-3-50.75-1.42-13.62-.33-27.51-.75-41.3-.64-20.85,0-41.69-3.09-62.48-1.91-12.77-2.86-25.7-4.56-38.54-3.22-24.24-9.62-47.64-17.79-70.52a271.72,271.72,0,0,0-26.19-53,313.88,313.88,0,0,0-54-64.1,325,325,0,0,0-47.53-36.15,318.7,318.7,0,0,0-44.58-22.68,274.39,274.39,0,0,0-31-11.28,378.16,378.16,0,0,0-42-10,457.84,457.84,0,0,0-56.87-6.25c-13.85-.58-27.64.85-41.48,2.35a379.78,379.78,0,0,0-79.67,17,369.59,369.59,0,0,0-52.68,22.42c-32.57,16.78-60.78,39.56-87.33,64.52-1.54,1.45-3.51,2.87-3.08,5.95,2.87-1,4.6-3,6.59-4.51a266.69,266.69,0,0,1,42.68-27,326.24,326.24,0,0,1,44.19-18.8c10-3.34,19.94-6.79,30.16-9.32a403,403,0,0,1,65.64-10.76,371.46,371.46,0,0,1,59.11.37c11.44.94,22.73,3.28,34.07,5.1,21.62,3.48,42.21,10.13,62.46,17.9,28.18,10.8,53.69,26.3,77.45,45,22.87,18,41.49,39.54,57.1,63.84,14.63,22.77,24.74,47.46,32,73.58S2601,446,2602.2,472.67c.25,5.68-1.16,11.28-1.3,16.82-.24,9.57-2.26,19-1.88,28.56.06,1.55.24,3.53-1.91,3.91-1.83.33-2.38-1.38-3-2.64a218.59,218.59,0,0,0-25.38-38.89c-8-9.89-15.19-20.49-23.78-29.95-21-23.18-45.41-42.48-70.85-60.54a408.09,408.09,0,0,0-56-32.92c-13.45-6.64-27.15-12.92-41.15-18.5a502.76,502.76,0,0,0-58.05-19.38c-19.55-5.14-39.29-9.52-59.35-12.71-21.94-3.49-43.92-6.57-66.05-7-29-.55-58-1-86.91,2.69-13.84,1.75-27.65,3.85-41.31,6.28a363.18,363.18,0,0,0-41.53,10.15c-19.07,5.79-37.93,12.15-56.19,20.18a432,432,0,0,0-77.14,44c-5.73,4.08-10.26,10-17.44,12l-.11.11c0-5.05,3.39-9,4.53-13.72,1.73-7.21,4.28-14.23,6.44-21.35,3.06-10.06,6.17-20.11,9.07-30.22,3.58-12.44,7-24.91,10.4-37.4,1.37-5.07,4-10,1.58-15.56-5.24-12.26-11.3-23.89-20.56-33.81-11.19-12-24.46-20.83-40.2-24.3-24-5.31-47.33-2.75-68.7,11-5.24,3.37-8,5.91-7.46,13.45,1.4,20-.31,40.08,1.49,60.14,1.51,16.81-1.73,33.62-1.24,50.49.46,15.87-1,31.7-1.48,47.55-.36,13.14-3.11,26-3.2,39.16a131.06,131.06,0,0,1-1.32,20.36c-3.36,20.61-5.65,41.37-9.17,62-2,12-4.67,23.85-7,35.76-3,15.08-7.41,29.87-10.94,44.84-1.34,5.66-4.52,10.84-4.34,16.88.41,4.3-1.79,7.77-3.64,11.34-.21.63-.41,1.26-.62,1.89.74,4.19-1.65,7.38-3.45,10.76-.15.63-.3,1.26-.44,1.89.44,3.73-1.8,9.5-4.51,12.35L1713,656.1l-1.22-.52c-43.18-20.82-84.46-45.05-125.09-70.42-11.89-7.43-23.33-15.59-35-23.38-17.33-11.61-34.18-24-51.3-35.92-24-16.64-48.22-32.87-72.94-48.42-13-8.2-26.79-15-40.1-22.57a462.56,462.56,0,0,0-52.8-25.48,621.22,621.22,0,0,0-76.3-25.7q-35.25-9.56-71.15-15.62a589.2,589.2,0,0,0-89.42-7.83c-11.52-.21-22.93,1.21-34.45,1.13-5.16,0-10.31,1-15.47,1.46-12.29,1.1-24.35,3.66-36.53,5.36-15.34,2.11-30.19,6-45,10a428,428,0,0,0-42.81,14.41c-27.89,10.8-54.27,24.56-80,39.62-5.4,3.16-10.19,7.42-16.15,9.65a32,32,0,0,1-1.06-9.56c.12-6.8-.1-13.6.11-20.39.4-13.15,2.85-26,6.29-38.66,2.76-10.13,6.68-19.85,10.51-29.6,1.46-2.21,3.06-4.36,3.48-7.1a2.91,2.91,0,0,0,1.29-2.64c.39,0,.53-.27.43-.65,2.24-1.91,3.37-4.52,4.5-7.13l.37-.18,0-.42c1.58-1,2-2.63,2.52-4.27a60.55,60.55,0,0,0,7.23-10.3,8.69,8.69,0,0,0,3.64-4.29,8.42,8.42,0,0,0,3.13-3.58,257.45,257.45,0,0,0,19.61-19.62,7.9,7.9,0,0,0,3.63-3,2.77,2.77,0,0,0,2.32-1.79l21-13.85a10.07,10.07,0,0,0,4.65-2.42,52.62,52.62,0,0,0,10.93-5.45,5.66,5.66,0,0,0,3.85-2l2-.37c1.92.56,3.43-.64,5.08-1.19,8.15-2.69,16.19-5.63,24.78-6.9,15.39-2.27,30.67-4.35,46.37-2.77,18.38,1.85,36.17,5.81,53.13,12.93a172.89,172.89,0,0,1,60,42.21c11.64,12.5,22.11,25.85,29,41.7,2.84,6.56,3,6.53,10,3.74,6.09-2.43,6.52-3.71,3.7-9.53-2.39-5-4.55-10-6.85-15a183,183,0,0,0-38.1-53.63A189.18,189.18,0,0,0,1076,251.74c-15.3-7.67-31.24-13.74-48-16.6-18.65-3.17-37.37-5.1-56.57-2.83-24.27,2.87-47.63,8.51-69.13,19.84-23.33,12.3-44.22,27.88-60.9,49-17.78,22.48-31,47-38,74.75-8.67,34-8.33,68,1.95,101.7a8.42,8.42,0,0,0,2.29-.87,7.94,7.94,0,0,1-2.3.87c-8.61,7.39-17.94,13.88-26.42,21.27-30.69,26.83-59.46,55.48-85.07,87.34a853.39,853.39,0,0,0-57.11,79.27c-15.34,24.23-29.71,49-42.7,74.64-11.4,22.52-22.73,45-32.47,68.35-5.35,12.82-10.83,25.61-16.11,38.47-12,29.71-22.44,60-32.14,90.55-5.89,18.51-11.12,37.18-16.48,55.85-7.31,25.41-13.35,51.1-19,76.87-4.91,22.44-9.49,45-12.9,67.74-2.64,17.61-6.21,35.07-8.12,52.8-1.62,15.26-4.14,30.44-6.05,45.7-1.91,15.51-.93,31.3-4.5,46.68-1.14,5,2.72,5,5.84,5.68,3.78.81,4.42-1.62,4.59-4.5,1.17-18.31,5.92-36,9.49-53.94,4.1-20.3,9.34-40.39,14.41-60.48,5.48-21.67,11.45-43.22,18.06-64.53,7-22.57,14.62-45,22.94-67.13,8.4-22.45,17.16-44.73,26.82-66.65a1067.6,1067.6,0,0,1,52.2-103.65c15.91-27.56,32.71-54.51,51.22-80.37,14.49-20.29,30-39.85,46.06-59a652.27,652.27,0,0,1,66.85-69.2A708.64,708.64,0,0,1,822,613.53,555.45,555.45,0,0,1,897.22,568a500.69,500.69,0,0,1,86.45-34.42,604.2,604.2,0,0,1,66.6-15.71c22-3.73,44.2-6.61,66.48-7.54a573.57,573.57,0,0,1,69,.85c23.74,1.87,47.32,5.35,70.78,9.29,21.15,3.53,41.85,8.85,62.38,14.74,16.32,4.66,32.31,10.59,48.26,16.39,26.67,9.7,52.44,21.47,78.37,32.88,24.6,10.83,48.83,22.44,73.06,34.09,27.52,13.19,55.12,26.18,83.16,38.23,13.36,5.73,26.51,11.94,40,17.33,19.08,7.67,38.15,15.39,57.59,22.08l4.88,1.49c.47,3.74-1.21,7.72-4.63,10.68q-1.44,4.08-2.89,8.18c.55,2.43-.9,4.44-1.87,6.28-2.65,5-3.16,11-6.79,15.59-1.56,2-.73,3.93,1.35,5.28,1,.65,2.67.4,2.86,2.14a.78.78,0,0,0,.76.45c1.84,0,3.41.56,4.09,2.52l6.22,3.68a1.07,1.07,0,0,1,1.44.7.43.43,0,0,0,.49.3,1.1,1.1,0,0,1,1.48.62,37.9,37.9,0,0,0,8.52,4.93c1.22-.25,2,.12,2.29,1.43l4.59,2.42c2.51.32,4.83,1,6.13,3.44a.75.75,0,0,0,.76.41,1.61,1.61,0,0,1,2.18,1.44.78.78,0,0,0,.76.49c3.64,1.53,5.42.17,7.32-3.3,2.92-5.3,3.72-11.52,7.54-16.36l.48-1.92c-.17-3.48,1.68-6.14,3.58-8.78,1.53-3.28,3.24-6.48,4-10a1.73,1.73,0,0,1,.7-2.61l.9-2.65c1.22-2.74.88-6.45,3.58-8.26l4.95,1.51a95,95,0,0,0,14.49,4c17.25,2.76,34.14,7.47,51.51,9.86,13.64,1.87,27.31,3.9,41,5.12,18.35,1.66,36.85,1.62,55.32,2.23a48.77,48.77,0,0,0,7.71-.61c1.22-.16,3.09-.12,3.13-1.74.08-2-2-1.87-3.29-2-19-1.26-36.57-8.49-54.67-13.31-15.14-4-29.87-9.58-44.81-14.45-19.85-6.46-39.41-13.76-58.77-21.6l-.73-.32-3.92-1.71c.53-5.91,3.93-10.85,6.24-16.15a1.54,1.54,0,0,0,1-1.6c-.54-1.1-.47-2,.74-2.63l1.11-2.27c1.53-6.32,3.07-12.63,6.73-18.16.15-.63.31-1.26.46-1.88-1.14-1.32-.4-1.77.9-2l.69-1.35c.45-4.11,1-8.17,4.16-11.3l.67-1.39a1.79,1.79,0,0,1,.79-2.56l.39-1.93c-.79-4,2-6.65,3.63-9.74.32-.8.64-1.6,1-2.4,2.7-9.17,4.7-18.61,10.11-26.75a4,4,0,0,0,1-2.94c-1-.88-.55-1.48.39-2l.57-1.9a79,79,0,0,1,7.26-19.5c.18-.64.35-1.28.52-1.91a51.47,51.47,0,0,1,7.36-19.51c.12-.61.25-1.22.38-1.83-.18-.59-.68-1.32-.5-1.75,2.67-6.19,4-13,7.74-18.68.11-.48.23-.95.34-1.43,0-7.72,4.36-14.18,6.28-21.35.42-1.54.67-3.5,2.28-4.59l.6-2.85c.15-4.38,2.25-8.05,4.27-11.75.18-.63.35-1.26.53-1.89-.69-3.5,1.42-6.45,2.51-9.36,2.5-6.66,3-14.14,7.77-19.89.16-.63.31-1.26.47-1.89-.89-.74-.65-1.35.22-1.88.13-.81.25-1.61.38-2.41,1.66-5.92,3.06-11.94,5.12-17.72.85-2.4,1.61-4.78,2.22-7.23l-.15-.19,0-.09,1.16-.16a35.74,35.74,0,0,1,4.34-3.09c13.27-6.8,27.18-12.11,41.17-17.17,15.22-5.49,30.68-10.25,46.33-14.46,13.63-3.67,27.43-6.44,41.24-9.22a380,380,0,0,1,46.68-6.26c11.6-.87,23.09-3.15,34.76-3,23.15.41,46.34-1.29,69.41,2.43,10.36,1.66,21,1.52,31.4,3,12.83,1.83,25.6,4.22,38.28,6.9,12.83,2.71,25.65,5.63,38.23,9.28,14.76,4.28,29.37,9.1,43.72,14.7,18,7,35.76,14.43,52.85,23.26a525.55,525.55,0,0,1,64.67,39.48,432.16,432.16,0,0,1,52.67,44.56c16.65,16.5,31.9,34.6,46.31,53.13,10.66,13.72,21.65,27.2,32,41.21,9.41,12.79,20.24,24.46,30.27,36.73q15.87,19.41,33.1,37.45c26,27.25,53.67,52.69,82.18,77.25,1.31,1.13,2.46,2.6,4.69,2.85C2704.57,739.87,2701.29,737.18,2700,733.89ZM944.84,266.81l-.19.16ZM810,475.08a3.79,3.79,0,0,0,1.13-1.53h0A3.49,3.49,0,0,1,810,475.08Zm13.19-10.87c-3.16,4-7.55,6.41-11.71,9.11,4.14-2.72,8.57-5.09,11.69-9.13a1.44,1.44,0,0,0,.65-.15,2.17,2.17,0,0,0,1.7-.57,2.12,2.12,0,0,1-1.68.58A2,2,0,0,1,823.15,464.21Z"/></svg>