<svg id="Layer_1" data-name="Layer 1" xmlns="http://www.w3.org/2000/svg" viewBox="0 0 2685.71 1317.33"><defs><style>.cls-1{fill:#fff;}</style></defs><path class="cls-1" d="M1992.49,59.33c.26,9.39-7.06,14.94-11.57,21.67-25.28,37.81-36.6,80.23-38.51,124.74-2.66,62.31,20.08,94.22,78,117.79,42.51,17.29,86.34,27.93,132.25,28,14.21,0,16.83,5.53,13.77,17.43-.64,2.51-1,5.09-1.45,7.64-6.83,38.37-6.83,38.37-43.54,26-64.5-21.73-132.32,11.2-157.63,77-13,33.89-16.72,69-11.9,105.09,12.76,95.54,54.75,176.06,124.23,242.52,74.17,70.94,157.71,126.18,258.1,152.72,36.2,9.57,73.56,13.42,111.3,19.64-2.09,8-8.29,9.11-13,11.44-131.88,65.79-268.12,79.9-409.15,33.54-318.72-104.76-464.76-485-283.12-775.9,53.93-86.37,127.14-151.33,218.12-196.48,10.85-5.39,21.42-12.3,34.31-12.38Zm-25.06,294.35c-18.43-.41-35,5.63-51.22,12.22-16,6.48-31.66,13.85-47.46,20.83,29.76-27.56,68.07-38.21,103.54-54.38-3.12-3-5-3.68-6.86-3.78a31.29,31.29,0,0,0-7.74.38c-71.57,14.73-132.89,46.55-176.76,107-11.58,15.94-9.81,21.68,9.07,27.36,26.29,7.92,53.91,6.08,80.74,9.51,41.79,5.34,71.32-5.24,84.51-48.46,4.35-14.24,18.94-23.59,23.61-40.28-15,.69-24.38,11.76-42,14.41L1972,372.87c-27.48.3-49,15.42-72.63,24.4C1919.11,377.9,1944.38,368,1967.43,353.68Zm-139,372.47c52.89,26.11,115.76-2.52,114.44-51-17,6-34.39,5.11-51.74,3.93-7.28-.49-14.12-.21-19.3,6.22C1859.67,700.28,1845.59,713.37,1828.38,726.15ZM1843,612.68c-19.14-4.75-36.42-13.06-52.65-23.53-6.75-4.35-13.27-3.4-20.2-.58-14.31,5.84-28.64,11.75-44.36,12.67-7.29.42-8.81,3-4.79,9.66C1744.8,650.55,1816.27,652.26,1843,612.68Zm-45.21-48.2c21,27.64,46.17,38.09,77.09,35.38,22-1.92,39-12.11,53.14-32.64-21.77-1.72-37.54-9-52.86-17.37-7-3.85-14.09-6.61-22-2.91C1836.32,554.8,1819.29,562,1797.78,564.48Zm36.51-26.16c-20.43-8.15-33.85-20.77-44.57-36.49-2.62-3.85-6.37-7.46-11.19-6.25-20,5-39-.36-58.18-6C1719.06,531.82,1790.91,573.16,1834.29,538.32Zm18.2-329.89c1,23.26,6.89,43.24,26.07,56.87,3.91,2.78,7.85,6.7,12.93,0,19-25.12,17.41-57.58-5-79.27-5.78-5.58-10.6-16.7-18.94-14.23-9.65,2.85-11.24,14.83-13.54,24.22C1852.91,200.34,1852.88,204.94,1852.49,208.43Zm-61.36,574c22.56-1.42,42.68-8.9,57.43-27.34,3.74-4.69,7.61-11.46-3.73-10.92-15.42.72-29.35-3.82-43.07-9.92-5.59-2.49-11.2-3.55-16.35,1a73.82,73.82,0,0,1-40.09,18c-9.35,1.23-8.74,6-2.85,11.3C1756.15,777,1773,780.79,1791.13,782.45Zm46.45,24.31c35.53,15.59,82.43-3.28,95.09-37.23,1.89-5.06,5.77-11.31-1.84-15.12-7.27-3.63-56.18,9.17-62.28,16.13C1858.39,782.15,1848.48,794,1837.58,806.76ZM1879.4,883c32.11.06,61.92-19.74,69.76-45.77,1.21-4,7.42-13.75-4.67-11.12-26.79,5.83-60.39-2.39-73.75,33.52-1,2.76-4.29,4.78-6.71,6.91-11.23,9.91-5,13.45,5.57,15.32C1873.41,882.5,1877.3,882.73,1879.4,883Zm-12.51-565.15c1.65-34.3-11.64-60.75-38.37-81.82-9.3-7.32-12-6.09-15.45,4.29C1800.67,277.1,1821.35,307.64,1866.89,317.81ZM1724.55,587.36c3-.37,6.86-.74,10.68-1.35,9.67-1.55,22-2.82,25.41-11.57,3.91-9.93-9.69-13.2-15.32-19.51s-12.64-11-19.3-16.08c-3.59-2.74-8.07-5.68-12.42-2.48-12.84,9.45-34.66,18.72-34.15,30.84.6,14,23,16.9,38.46,19.42C1719.82,586.94,1721.76,587.06,1724.55,587.36Zm239.5,280c20,.45,44.52-20.64,46.4-39.8.39-4,1.06-7.62-4.69-8.3-16.76-2-48.31,25.46-48.85,42.22C1956.72,867.47,1959.81,867.71,1964.05,867.4Z"/><path class="cls-1" d="M2572.56,289.71c35.43,44,61.26,86.91,78.8,134.6,48.66,132.33,48,262.63-17.19,389.92-36,70.25-87.94,126.1-153.7,169.5-9.23,6.1-18.27,8.11-29.23,6.78-131.69-16-242.93-74-338.61-164.09-1.24-1.17-1.64-3.22-3.32-6.67,23.71,3.71,44.42-1.66,64.78-10.71,12.56-5.58,25.82-2.34,37.7,3.33,30.68,14.63,60.65,11.58,92.49,2.13,74.55-22.14,125.27-72.78,168.94-133.49,78.87-109.66,106.42-233,99.38-365.9C2572.26,308.76,2572.56,302.38,2572.56,289.71Zm-68.28,472.77c20.33,28.65,43.86,49.09,82.52,45.47,14.58-1.36,12.74-5.64,7.95-14.8C2576.23,757.69,2543.84,746.43,2504.28,762.48Zm-30.5,78.35c4.77-.47,14,4.9,11.57-7.63-4.92-25.69-53.17-53.81-77.21-45-7.39,2.7-8.55,6-4,12.69C2420.89,825.4,2440.48,844.66,2473.78,840.83Zm91.09-116.6c6.82-.85,15.78-2.24,24.79-3,7.88-.66,10.08-3.22,6.44-11.05-12.31-26.47-59.67-39.37-83.16-22.24-3.5,2.55-9.32,5.54-3.16,10.15C2525.71,710,2540.88,723.92,2564.87,724.23ZM2458.63,848.47c-1.56.33-8.69-.29-11,2.76-4.24,5.55,3.08,10.08,5.2,15.17,11.31,27.12,33.59,36.73,61,39.87,12.4,1.42,13.29-2.89,10.41-12.68C2517,869.19,2489.46,849,2458.63,848.47ZM2431.3,886.6c6.53.53,13.45,2.46,11.39-9-4.23-23.52-37.52-49.31-60.44-46.5-7.53.92-9.91,3.16-7.12,11.25C2385.84,873.49,2399.29,884.44,2431.3,886.6Z"/><path class="cls-1" d="M563.66,822.08c18.56-16.85,37-34.58,51.69-56,4.16-6.09,6.71-11.68-4.13-13.63-13.65-2.45-17.88-11.7-15.85-24.35,2.22-13.77,12.69-14.32,23.65-14.27,32.41.14,64.82.42,97.21-.11,13.58-.23,21.26,5.55,22.29,18.61,1,12.87-7.42,19.31-19,20-14.64.91-25.86,8-36.18,17-25.78,22.56-51.26,45.47-77.52,68.83,3.83,5.59,9.93,5.83,14.8,8.08,58.35,26.9,91,71.6,92.14,136.59.93,51.82-.14,103.67.09,155.51.13,29.67,7.48,35.27,36.6,31.33,22.53-3,41-14.09,58.44-29,7.11,32.45-12.78,57.44-48.67,65.09-8.5,1.81-22-3.34-24.54,5.2-2.86,9.65,8.22,18.12,15.19,25.42,38.39,40.24,84.68,59.19,140.38,47.7,46.61-9.62,73.39-62.19,55.36-106.54-6.27-15.43-19.34-18.48-33.78-15.49-13.29,2.75-24.81,8.56-24.09,25.44.77,18.13,12.69,26,32.69,21.74,4.68-1,9.95-6.75,14.07-1.72,4,4.83.9,11.28-1.18,16.64-6.54,16.82-24.07,27.61-42,23-18.16-4.68-34.38-4.11-52.41,2.23-25.48,9-47.38,1.31-59.51-15.81-4.4-6.23-7.22-11.56,3.73-13.23,18.08-2.75,29.56-15.1,40.71-27.93,10.62-12.23,20.79-24.89,31.94-36.61,19.92-20.95,44.23-26.15,71.18-16.57,25.09,8.91,37.53,29.11,38.18,59.43,1.29,59.73-37.57,106.09-97.78,112.82-51.11,5.71-101.59-.84-147.5-24.93-53.64-28.14-86.1-70.76-83.93-135.18,1.57-46.61.68-93.31.16-140-.31-27.4-5-54.21-17-79.15-8.84-18.35-22.71-31.2-42.93-36.6-11.36-3-17.1-.46-16.86,12.58.29,15.52-.19,31.1-1.34,46.58a83.51,83.51,0,0,1-15.44,43.43c-10,13.87-22.17,22.38-40.81,21.24-21.95-1.35-44.05-.52-66.08-.27-13,.15-23.2-2.8-25-18-1.9-15.88,9.2-19.68,21-22.83,3.74-1,7.63-1.46,11.46-2.12,30.9-5.29,37-9.78,37.7-40.66q2.24-99.09.71-198.24c-.43-30.11-9.38-37.74-39.23-42.11-9.22-1.35-18.34-3-22-13.18-4.05-11.35,1.34-20.13,8.84-27.94,6.91-7.2,15.69-11.38,25-14.44,25.85-8.5,51.67-17.08,77.62-25.27,17.31-5.47,23.91-1.4,25.7,17.15,1.37,14.14.9,28.47.93,42.71.11,46,.07,92,.13,138C558.44,815.54,558.38,818.89,563.66,822.08Z"/><path class="cls-1" d="M2191.21,19.33c22,.16,44.06-.25,65.71,5,37.23,8.95,56.68,31.2,59.08,69.56,3.26,52-10,101.47-24.84,150.62-2.44,8.1-8.62,11-15.58,12.94C2237,268,2203.51,286.16,2180,319.68c-3.84,5.46-9.87,6-15.54,6.71-48.68,6.41-94-2.09-135.33-29.78-28.26-18.95-44.07-45.35-47.48-78.79-4.44-43.42,2.24-85.27,21-124.91,16.61-35.18,43.24-57.36,82.38-63.77C2120.14,23.37,2155.42,18.76,2191.21,19.33ZM2124.92,121c-2.7-13.3-11.14-21.77-25.05-21.06-13.47.69-21,10.36-20.25,23.56.86,14.2,10.46,22.28,24.48,21.92C2118.42,145,2122.72,134,2124.92,121Z"/><path class="cls-1" d="M557.75,464.53c0,25.64.34,52.85-.09,80.05-.46,28.84-6.11,35.91-33.26,44.48-22.24,7-44.53,13.88-66.68,21.17-13.72,4.51-26,3.77-34.16-9.49-8.67-14-3.79-26.49,7.34-36.41,8.16-7.27,17.49-13.31,26.69-19.3,14.76-9.61,22.15-22.07,21.51-40.47-1.09-31.71-.38-63.48-.57-95.22,0-8.42-.11-16.88-1-25.23-4.17-39.53-18.63-56.12-48.4-56.06-34.69.07-61.93,24.64-63.36,60.52-1.57,39.45-.24,79-.54,118.52-.08,11-.45,22.11-2.42,32.86-5.61,30.62-25.21,47.86-56.07,49.42-15.51.78-31.09-.18-46.63.11-10.62.2-17.57-3.8-19.38-14.67-1.78-10.71,3.55-19.88,13-20.75,37.72-3.48,35.25-29.51,35-56.38-.67-68.67-.14-137.34-.34-206a282.86,282.86,0,0,0-2.24-32.89c-2.05-17.13-9.06-29.35-29.22-29.4-6.1,0-12.65-2.88-18.17-5.93-7.49-4.13-6.42-12.08-5.76-19.18,1-10.66,9.37-13.61,17.82-14.82q46.14-6.62,92.44-12.14c13.73-1.64,20.43,5.24,20.36,19.22-.16,30.45.23,60.91-.11,91.35-.14,12.73,3.49,15.34,14.12,7.57,29.45-21.5,62.52-27,97.92-21.21,42.47,7,68.9,33.52,78,78.22C561.1,389.07,555.79,426.13,557.75,464.53Z"/><path class="cls-1" d="M1227.2,853.93c-24.61,0-49.24.66-73.82-.23-14.52-.52-19.09,4.11-17.94,19,6,77.66,78,115,152,78.23,3.47-1.73,6.8-3.75,10.13-5.76,8.3-5,15.91-5,22.42,3,6,7.3,7,14.41,1.22,22.88-17.47,25.67-42.16,39.57-71.94,45.37a215,215,0,0,1-85-.83c-63.11-13-101.76-58.42-111.55-130.39-14.55-106.84,65.32-191.85,169.24-180.14,60.13,6.77,109.39,66.85,104.51,127.31-1.18,14.62-7.73,22.18-23.51,21.74C1277.73,853.4,1252.46,853.91,1227.2,853.93Zm-34.73-39.76c13.59,0,27.2.07,40.79,0,5.84,0,11.29.21,12.71-8.22,3.13-18.49-11.94-49.76-28.82-57.94-19.19-9.29-45.85-3.93-60.61,12.56-10.26,11.45-15.07,25.21-17.39,40.37-1.69,11,2.71,13.71,12.52,13.4C1165.26,813.87,1178.87,814.19,1192.47,814.17Z"/><path class="cls-1" d="M1044.34,422.34c-24.62,0-49.26.68-73.84-.25-14.25-.53-17.39,5-16.54,18.25,5.07,78.25,78.93,116.35,153.22,78.58,3.45-1.76,6.69-3.94,10.07-5.86,7.73-4.38,14.93-4,20.92,3s8,14.12,2.19,22.82c-16.86,25.15-40.7,39.41-69.74,45.47A207.38,207.38,0,0,1,980,583.28c-54.24-12.75-88.43-47-102.72-100.38-22-82.3,4-154.44,72.78-193.2,43-24.28,90.08-26.13,134-1.83,40.7,22.5,57.89,61.43,60.63,106.65,1.38,22.79-4.08,27.64-26.49,27.77C1093.58,422.44,1069,422.33,1044.34,422.34Zm-34.26-39.67v-.07c14.21,0,28.43,0,42.64,0,6.46,0,10.81-1.49,11.89-9.26,2.72-19.75-12.16-49.35-29.53-57.28-19.59-8.95-45.57-3.23-60.3,13.44-8.32,9.42-13,20.66-15.87,32.79-3.28,13.87-1.15,22.46,16.32,20.6C986.72,381.68,998.46,382.67,1010.08,382.67Z"/><path class="cls-1" d="M921.66,853.93c-24.62,0-49.27.82-73.84-.28-15.57-.7-18.41,5.45-17,19.48,8.08,79.77,81.5,115.67,156,75.76,8-4.27,15.77-11.35,24.8-4.34s12.33,16,4.71,27c-17.18,25-41.3,38.72-70.33,44.58a208,208,0,0,1-86.87-.82c-55-12.26-90.2-46.15-104.85-100.48-22.21-82.35,3.44-154.19,72.14-193.4,43-24.55,90.08-26.34,134-2.31,41.5,22.69,58.67,62.29,61,108.36,1.07,21-4.65,26.23-25.92,26.37C970.9,854,946.28,853.92,921.66,853.93Zm-34.44-39.77q21.27,0,42.53,0c6.1,0,12.4-.45,11.82-8.82-1.45-21-5.16-41.75-24.15-54.4-17.08-11.36-35.92-9.94-53.22-.06-20.3,11.58-27.3,31.49-30,53.48-1,8.35,3.88,9.8,10.45,9.79Q866,814.11,887.22,814.16Z"/><path class="cls-1" d="M1349.23,422.34c-24.62,0-49.27.82-73.84-.29-15.79-.71-18.24,6-16.86,19.71,7.82,77.55,77.23,113.72,150.91,78.23a78.85,78.85,0,0,0,8.51-4.68c8.23-5.31,16.32-8.33,24.36.31,8.79,9.45,6.56,18.18-.56,27.71-17.24,23-40.55,35.76-68.15,41.32a207.36,207.36,0,0,1-88.75-1.26c-54.16-12.68-88.47-46.67-102.95-100.1-22.24-82,3.62-154.37,72.27-193.37,43-24.42,90-26.36,134-2.22,41.5,22.79,58.61,62.33,60.94,108.39,1.06,21-4.57,26.08-26,26.2C1398.47,422.44,1373.85,422.33,1349.23,422.34Zm-34.79-39.71q21.39,0,42.77,0c6.1,0,11.14-.41,12.25-8.75,2.7-20.29-13.34-51-31.39-58.38-22.33-9.15-49.62-.6-63.52,20.07-6.24,9.27-9.48,19.68-11.89,30.58-2.9,13.15,1.94,17.53,14.85,16.7C1289.77,382.05,1302.13,382.67,1314.44,382.63Z"/><path class="cls-1" d="M1360.34,976.57c-1.5-15.78-3-33.21-4.88-50.6-1.12-10.45,1.94-18,12.91-20.48,11.19-2.55,19,1.81,23.1,12.46,1.84,4.82,2.93,9.93,4.42,14.88,11.65,38.56,55.88,60.1,93.84,45.71,26.58-10.07,32.9-39.76,12-59.34-18.36-17.23-41.79-25.66-64.83-34.4-13.93-5.28-28.21-9.64-41-17.58-57.15-35.42-55.44-115,3.79-146.36,39.23-20.78,80.19-24.42,121.71-6.16,6.9,3,11.89,5.28,18.52-1.82,6.94-7.42,16.84-5.66,25.36-1.34,9.51,4.81,6,12.78,4.2,20.4-5.07,21.16-2.29,42.59-1.49,63.91.41,11-2.31,19.41-14.21,21.85-13,2.68-19.1-5.16-22.69-16-2-6.15-3.17-12.61-5.5-18.63-13.32-34.44-56.57-48.32-87.62-28.29-17.55,11.32-18.31,32.75-1.15,44.89,15.55,11,33.71,16.33,51.54,22.32,27.32,9.16,52.85,21.59,73.28,42.54,47.1,48.29,32.51,121.37-29.88,146.61-39.36,15.92-80,13.85-120.38,3.61-9-2.27-16.51-5-24.38,4-5.29,6.07-14.57,4.67-22,1.36-8.35-3.73-6.89-11.57-6.52-18.62C1358.91,993.76,1359.63,986,1360.34,976.57Z"/><path class="cls-1" d="M42.54,429.12c0-29.15-.69-58.33.28-87.45.5-15-4-21.86-19.67-20.13C10.47,323,1.78,318.46.26,304.2c-1.54-14.51,3.61-25.95,18.42-26.72,35.88-1.84,47.18-25.81,51.46-55.21,2.72-18.66,13-23.24,29.31-23.15s23.07,7,23.13,23.66c.06,16.51-7.88,38.15,4.14,48.25,11.4,9.59,32.41,2.51,49.19,2.79,26.6.46,32.49,5.5,30.75,27.2-1.11,13.94-7.45,21.22-22.27,20.72-16.17-.53-32.39.23-48.58-.14-9.94-.22-13.75,3.77-13.66,13.78.44,52.47.45,104.94.64,157.41a53.94,53.94,0,0,0,.56,5.8c5,42.29,17.84,50.22,58.16,36.5,12.61-4.3,27.58-16.75,37.27,2.07,9.57,18.61-6.45,28.73-18.8,37.54-37.81,27-79,27.21-119.93,9.52-26.59-11.49-36-36.37-36.92-63.77-1-30.41-.23-60.88-.23-91.33Z"/><path class="cls-1" d="M732,301.53c29.71-25.56,59.88-34.39,93.8-26.82,27.76,6.18,41.09,24.55,39.18,51.85a40.81,40.81,0,0,1-58.12,34.37c-9.12-4.19-13.16-11.53-15.34-21-4.1-17.79-14.76-21.45-28.25-8.58-17.08,16.3-25.48,37.16-25.63,60.95-.29,44.71.35,89.43-.84,134.1-.87,32.15-15.38,52.08-40.47,60A48.16,48.16,0,0,1,683,589.09c-17.48.35-35,.12-52.46.31-9,.1-14.79-4-17.21-12.61-2.65-9.44,1-16.41,9.09-21.35,1.1-.68,2.27-1.63,3.46-1.71,38-2.41,35.63-28.88,34.53-56-1.91-47.24-2.33-94.54-6.59-141.69-1.5-16.64-6.11-28.39-25.49-29.55-13-.78-25.37-5.59-23.88-21.8,1.4-15.14,14.78-16.17,26.36-17.76,22.46-3.09,45-5.31,67.44-8.78C715.59,275.52,730.36,275.7,732,301.53Z"/><path class="cls-1" d="M1933,46.1c-23.84,10.83-42.84,21.06-67.14,19.46-58.37-3.83-116.33.28-173,16.39-3.53,1-7.26,3.21-13.1-.46,17-19.43,27.39-41.75,28.6-67.68.33-7.17,5.45-9.94,11.73-10.63,71.63-7.94,140.9-2.9,203.75,37.23C1926.08,41.81,1928.3,43.15,1933,46.1Z"/><path class="cls-1" d="M1534.5,1231.26c0-22,.54-44-.23-66-.45-13,3.35-19.51,17.31-18.66,16.12,1,32.45-.21,48.41,1.8,42.6,5.38,69.52,36.09,70.7,78.94,1.26,45.41-22.64,76.78-65.2,85.71-19.22,4-38.67,1.88-58,2.55-10.66.37-13.09-5.4-13-14.54C1534.66,1277.83,1534.52,1254.54,1534.5,1231.26Zm27-.46c0,15.48.43,31-.14,46.41-.41,11.12,4.54,14.16,15,14.54,41.63,1.52,66.31-20.44,66.49-60.1.19-40.19-23.51-61.8-65.46-60.83-11.29.26-16.6,3.45-16,15.51C1562,1201.12,1561.45,1216,1561.45,1230.8Z"/><path class="cls-1" d="M2027.32,1230.61c0-23.3.3-46.61-.16-69.91-.19-10,3.74-14.24,13.58-13.89,14.87.52,29.86-.26,44.6,1.35,25.78,2.83,46,15,53.37,41.18,7.43,26.47,4.88,52-18.17,70.71-8.72,7.07-9.59,12.31-2.68,20.39a86.87,86.87,0,0,1,11.19,15.83c3,5.72,13.84,12.5,6.94,17.15-7.5,5-20.35,6-28.41-3.31a180.57,180.57,0,0,1-18.07-25.24c-6.84-11.46-17.33-10.2-27.44-8.51-11.61,2-6.53,12.1-7.66,19-1,6.19,2.2,13.77-3.72,18.22-4.75,3.57-11.28,2.45-17,1.3-6.91-1.39-6.28-7.37-6.31-12.42C2027.27,1278.52,2027.34,1254.57,2027.32,1230.61Zm43.89-59.52c-13.1-2.64-17.88,4-17.07,18.31.93,16.73.37,33.56.22,50.34-.07,7.51,2.15,11.67,10.67,12.72,26.26,3.21,46.57-11,48.88-35C2116.69,1188.41,2102.25,1172.09,2071.21,1171.09Z"/><path class="cls-1" d="M1627.86,182.74c18.05-18.94,28.11-41.52,29.88-67.55.58-8.68,2.69-14.27,12.35-16.58,58.22-13.93,117.06-21.77,177-19.47,1.66.06,3.27,1.16,9.55,3.53-41.47,19.79-65.9,59.09-112.92,65.28-33.86,4.45-66.19,17.65-97.46,32.12-5.77,2.67-11.5,6.62-18.16,2.14Z"/><path class="cls-1" d="M1793.94,1230.86c0-22.67.47-45.36-.22-68-.35-11.63,3.53-16.43,15.43-16.2,25.91.48,51.83.17,77.74.12,7.67,0,14.07.53,14.31,11s-4.59,13.46-14.15,13.28c-17.48-.34-35,.26-52.47-.07-9.95-.18-13.1,4-13.78,13.84-3.74,54.38-4,54.36,50.51,55.08,1.29,0,2.59,0,3.88,0,8.47.17,17.15-1,16.89,12.33-.24,12.3-8.42,11-16,11.1-13.6.23-27.21.31-40.81.17-9.27-.09-14.22,2.93-14.36,13.4-.16,11.18,4.59,14.9,15.09,14.7,18.13-.34,36.28.16,54.42-.06,9.41-.12,14.44,2.82,14.12,13.39s-6.78,10.73-14.39,10.7c-27.21-.1-54.42-.34-81.62.09-10.94.18-14.91-4.17-14.7-14.92C1794.27,1277.5,1794,1254.18,1793.94,1230.86Z"/><path class="cls-1" d="M1185.92,1317.33c-39.41-.18-70.59-22.9-81.62-59.47-11.48-38,2.52-78.67,34.19-99.25,31-20.13,75.52-18.36,101.85,4,9.36,7.94,16.71,15.36.67,24.46-6.73,3.82-10.14,1.07-15.12-2.76-27.94-21.47-61-19.85-81.89,3.53-21,23.55-20.74,64.3.66,87.31,20.89,22.46,57.33,24.78,82.4,3,10.33-9,17.26-7,24.37.79,9.87,10.78-3.18,14.56-8.11,19.2C1228.73,1311.84,1209.93,1317.44,1185.92,1317.33Z"/><path class="cls-1" d="M1596.32,274.68c5.68-9.5,10.18-20.2,11.55-31.32,3.63-29.47,21.74-44.28,47.86-54.48,32.35-12.62,64.52-25.08,99.76-30-17.62,20.43-34.4,40.77-48.35,63.28-1.57,2.52-4.78,4.45-7.64,5.66-32.29,13.61-63.67,28.93-93.19,47.91C1603.57,277.47,1600.35,278.26,1596.32,274.68Z"/><path class="cls-1" d="M1644,359.73c-19.6,62.41-26.26,123.33-19.23,187.36-14.51-16.72-29.17-33.31-43.46-50.21-5.39-6.38-2.16-13.64-.27-20.4,6.19-22.18,8.65-44.49,2.1-67-2-7-1.58-12.44,4.59-17.08C1604.11,380.05,1620.64,367.94,1644,359.73Z"/><path class="cls-1" d="M1685.81,254.2c-18.2,45.13-38.22,84.39-81.2,105.83-5.58,2.78-10.38,10.19-17,6.22-7.41-4.42,1.52-9.9,1.34-15.25-.23-6.39,2.82-13.3,1.29-19.16-6.17-23.77,6.68-34.95,25.43-45C1637.68,275.12,1659.21,262.67,1685.81,254.2Z"/><path class="cls-1" d="M1376.33,1230.68c0-22.68.18-45.37-.08-68-.11-9.89,2.29-16,14-15.72,11,.24,12.58,6.36,12.56,15.12q-.13,69,.06,138c0,9.84-2.06,16-14,15.67-11.06-.26-12.68-6.32-12.64-15.07C1376.41,1277.33,1376.33,1254,1376.33,1230.68Z"/><path class="cls-1" d="M1992.78,59.83l.52-.23s-.83-.25-.82-.26S1992.78,59.83,1992.78,59.83Z"/><path class="cls-1" d="M1628.13,182.21l.74,1.38c1-1.25.68-1.54-1-.86A4.74,4.74,0,0,1,1628.13,182.21Z"/><path class="cls-1" d="M2563.28,347.81c1-29.35,5.81-60.2-12.39-84.17C2501.05,198,2442.07,142,2366.83,105.35c-19.68-9.6-20.36-9.93-19.56,11.74,2,53.3-6.61,104.22-28.08,153.45-17.8,40.83-32.8,82.86-68,116.63,9.65,0,15.89.08,22.13,0,59.45-.91,126.56,56.47,131,115,5.13,68.14-2.7,134.72-34.67,196.58-11.76,22.77-24.35,45.1-36.57,67.63,6.76,3.53,11.52-.44,16.56-3.26,78.23-43.75,97.79-76.62,98.68-166.12.07-7.77-.1-15.56-.67-23.31-1.12-15.07-2.61-30.12-3.95-45.18,17.8,40.74,17.48,84.14,17.78,130.66,24.6-27,35.61-51.8,30.18-85.84-13-81.33-36-156.67-101.54-212.37-1-.88-1.07-2.94-3.37-9.86C2467,401.56,2497.47,477.29,2517,562.37c25.31-44,26.86-55.18,11.52-96.8-25.42-69-69.83-123.5-128.86-166.69-5.59-4.1-15.56-5.92-12.32-16.81,2.35,6.22,8.69,7.3,13.54,10.07,62.24,35.56,111.65,83.79,146.06,147,1.75,3.22,2.17,7.74,8.69,8.89,4.7-17.91,8.3-34.95.43-53.79-28.59-68.49-74.5-122.33-135.08-164.39-4.9-3.4-11.72-4.93-14.44-12.58,14,4.13,25.23,11.62,36.7,18.56C2490.85,264.6,2529.67,302.82,2563.28,347.81Z"/><path class="cls-1" d="M2076.11,466.18c-.65-4.45-1.86-9.51-6.31-11.45-5.72-2.49-7.53,3.56-10.19,6.58-5,5.69-9.39,12-14,18l-2.41-1.85,11.19-22.14c2.32-2.7,7.21-5.7,3-9.13s-6.49,1.19-8.08,4.8c-11.6,6.1-16.64,18.94-29,29,4.62-20.75,21.82-30.31,27.12-47-30.68,18.27-48.85,45.9-58.79,79.48-2.54,8.59,3.6,10.06,10.18,8.91,21.1-3.67,42-8.51,59.88-20.9C2070.2,492.46,2078.39,481.61,2076.11,466.18Zm-59,18.58c.4.64.81,1.28,1.21,1.93l.36-.63-.36.63C2017.94,486,2017.53,485.4,2017.13,484.76Zm1.93.67c-.22-.43-.36-1.06-.7-1.22.34.16.48.79.7,1.22Z"/></svg>