<svg id="Layer_1" data-name="Layer 1" xmlns="http://www.w3.org/2000/svg" viewBox="0 0 1220.61 1313.95"><defs><style>.cls-1{fill:#a62b2a;}</style></defs><path class="cls-1" d="M766.56,642c11.37-10.78,19-22.6,22.54-36.85a39.33,39.33,0,0,0,1.24-11.66c-.22-4.25-2.43-6.38-6.54-3.91-19.69,11.84-39.44,23.68-49.12,46.16a45.91,45.91,0,0,0-2.47,7.63c-2.42,10.23-8.1,15.28-18.32,15.72-20.53.88-39.77,6.69-58.44,14.84-2,.89-4.44,2.83-6.26,1.09s0-4.29,1-6.22q18.69-35.28,37.49-70.51c7.57-14.19,14.08-28.87,20.57-43.58,5.68-12.89,16.74-20.9,29.47-25.84,19.64-7.62,40.09-6,60.56-3.81,30.81,3.28,60.47,11.37,89.54,21.45,20.06,7,40.47,13.08,61.48,22.54a24.92,24.92,0,0,0-9.61,1.51c-8.65,2.79-13.92,9.5-14.28,18.2C925,599,929.56,606.47,938,610.22c9.47,4.21,15.74,2,24.24-6.44,5.18-5.12,6.1-17,2.42-23.77-.95-1.74-3.08-3.63-1.59-5.52,1.71-2.18,3.76.21,5.56.81,10.18,3.4,20.31,6.92,30.47,10.39a12.16,12.16,0,0,0,7.33.29c12.49-3.52,25-7.06,38.38-10.86-4.4-4.17-9.36-3.67-13.59-5.09-2-.68-5.31-.1-5.52-2.91-.2-2.45,2.92-2.5,4.7-3.22,18.44-7.4,34.46-18.57,49.28-31.6,2-1.77,4.35-3.92,2.66-6.87s-4.77-2.38-7.26-1.42c-16.37,6.35-33.56,6.48-50.68,6.77-15.31.26-30.6,0-45.44,4.61a39.49,39.49,0,0,0-16,9.13c-1.59,1.53-3.41,4.08-5.62,1.75s.67-4.26,2-5.71c8.12-8.89,18.3-14.83,29.52-18.69,19.83-6.81,40.65-8.88,61.27-11.79,13.73-1.94,26.45,2.81,39.34,6.28,2.64.7,3.41,3,3.73,5.22a58.06,58.06,0,0,1,.39,8q.08,209.25.13,418.51c0,1.66-.15,3.32,0,5,.4,5.41-2.1,7.1-7.39,7.09q-231.27-.15-462.55,0c-6.28,0-7.31-2.52-7.74-8-2.15-27.54-.3-54.82,3.43-82.12,2.45-17.9.38-35.94-1.25-53.78a249.06,249.06,0,0,1,1.17-55.45c2.56-19.46,8.21-37.75,14.51-56.06,2-5.92,5.28-9.44,11.52-11.55,16.4-5.54,31.89-13.71,49.09-17,8.28-1.56,16.44-3.68,25-3.89,10.5-.27,21-.93,31.47-1.38,2-.08,4.1-1,6.46,1.84-7,.85-13.75,1.54-16.57,8.93a14.2,14.2,0,0,0-.41,9.67c1.68,5.39,9.6,10.25,14.67,9,6.82-1.69,12.94-7.68,10.39-19.07,8.29,1,14.58,6,21.27,9.67,13.24,7.32,26.71,13,42.33,11.43a39.07,39.07,0,0,0,13.1-3.36c1.83-.87,4.05-1.54,4.33-4,.33-2.87-2-3.75-4-4.88a32.13,32.13,0,0,1-2.67-2c12.51-1.66,22.91-6.26,32.57-12.72a51.6,51.6,0,0,0,11.95-10.69c1.22-1.54,2.31-3,1.31-5-.88-1.77-2.64-1.92-4.28-1.91-20,.13-40.09-1.28-60.07.88a98.63,98.63,0,0,1-20.41-.24c-9-.9-18.06.36-28.53-1.55,12.58-5.84,23.7-11,34.84-16.13,1.66-.76,3.16.15,4.72.78,19.29,7.94,38.33,6,57.2-1.61,7.3-3,14.4-6.26,20.06-12,1.67-1.68,4.26-3.16,3-6.17s-3.93-3.49-6.7-3.57c-6-.18-12-.15-18-.39-1.94-.08-4.66.82-5.52-1.5-.66-1.78,1.44-3.33,2.66-4.6,10.8-11.16,17.32-24.5,20.51-39.59.61-2.92,3-6.23-.24-8.56-2.88-2.07-6.51-.94-9.54.33a109.31,109.31,0,0,0-28.51,17.12c-6.13,5.14-10,12-15.76,18.15,1-10.15,4.59-19.38,3.64-29.13-.24-2.38.44-5.23-2.41-6.53-3-1.39-4.94.59-7,2.48-13.36,12.21-24.78,25.89-32.91,42.2-3.19,6.39-5.45,13.12-5.67,20.09-.19,5.87-2.66,8.42-7.77,10.21C775.28,639.86,772,642.07,766.56,642Z"/><path class="cls-1" d="M134.54,759q0-94.23-.09-188.45c0-6.48,1-11.08,8.23-13,4.7-1.26,9-4,13.47-6.16s5.27-.36,4.14,3.58c-2.88,10.07-3.39,20.31-2.55,30.7.27,3.38.26,7,4.17,8.14,3.66,1.09,5.73-1.8,7.42-4.38,5.83-8.91,14.36-15.36,21-23.48.86-1,1.9-2.48,3.61-1.54,1.24.7,1.14,2.11,1.1,3.33-.13,3.3-.53,6.61-.46,9.9.13,5.53,3.72,7.48,8.15,4,7.62-6,14.8-12.52,22.23-18.75,1.68-1.41,3.43-4,5.59-3.16,2.38,1,1,4.06,1.37,6.2.52,3,.87,6.12,1.28,9.19.29,2.13.94,4.1,3.11,5,2.55,1.05,4.4-.41,6-2.1a78.59,78.59,0,0,0,20.14-37.72c1.78-8,4.49-9.06,11.12-4,11.75,8.95,19.34,21.28,27.15,33.34,25.69,39.65,59.52,71,98.21,97.53,26.59,18.24,54.87,33.65,82.35,50.4,15.45,9.41,31.6,17.77,45.76,29.27,17.71,14.39,29.28,32.7,35.9,54.35,1.16,3.78-.14,7.26-1.16,10.86-3,10.65-2.94,21.9-5.57,32.58-4.58,18.55-3.84,38-10.55,56.22-6.64,18-12.45,36.28-18.57,54.46-1.15,3.41-3.32,4.93-7,4.84-5.57-.13-11.15,0-16.73,0l-359.58,0c-9.21,0-10.15-.93-10.15-9.6q0-95.78,0-191.55Z"/><path class="cls-1" d="M349.45,591.23c4,6,6.46,6.3,12.31,2.65C370,588.73,377,582,384.5,574.67c2.41,8.11,2.79,15.76,6.25,22.6,3.72,7.34,3.5,7.48,11.07,3.73,14-7,23.14-17.64,25.1-33.6a13.66,13.66,0,0,1,4.74-9A62.78,62.78,0,0,0,444.9,540.6c1.2-2.31,2.48-4.57,3.6-6.63a2.09,2.09,0,0,1,2,1.95c2,7.88,5.8,9.51,13.23,5.87,14.87-7.27,22.76-19.73,26.44-35.34,1-4.2,2.63-8.23,2.61-12.68,0-3.29,2.53-3.71,5.19-4,8.33-.83,15.85,2.36,23.5,4.73,3.1,1,3.64,4.25,4.38,7.06,6.19,23.55,12.3,47.12,18.57,70.65,4.55,17.12,9.07,34.26,14,51.27,7.06,24.29,11.83,48.73,7.25,74.11-2,11.25-5.25,22-11.58,31.76-2.45,3.77-4.65,4.65-8.45,1.88-23.2-16.94-48.6-30.38-73.41-44.64-21.63-12.43-43.21-25-63.71-39.05s-40.3-29.5-56.7-48.62C350.07,596.87,348.07,595,349.45,591.23Z"/><path class="cls-1" d="M985.29,213.83c.37.9.74,1.79,1.12,2.69-.11,2.66,1.37,4.71,2.65,6.81,1.1,1.79,2.2,3.63,2,5.77-1.23,10.42-2.1,20.56-10.91,28.58-16.37,14.91-24.37,34.88-31.19,55.42-2.79,8.4-5.83,16.67-7.11,25.48-1,7.1.3,8.62,7.41,8.08,1-.08,2-.24,3.08-.26,1.29,0,2.75.26,2.93,1.69.23,1.91-1.46,2.32-2.92,2.47-5.95.61-11.91,1.5-17.87,1.59-6.48.09-12.59,2.18-19,2.67-3.34.26-5.24-.65-6-4.41-3.21-15.13-13-27-20.42-40.07-2.28-4-5.58-2.15-7.49.64-8,11.67-12.09,24.25-8.32,38.54,1.21,4.57,5.48,8.93,4,13.31s-7.43,4.47-11.35,6.56c-15.55,8.31-30.07,18-42.81,30.23a7.68,7.68,0,0,1-2,1.32c-.27.13-.74-.15-2-.45,3.28-4.4,6.36-8.55,9.46-12.68a25.22,25.22,0,0,0,.94-30c-2.63-3.94-5-8.05-7.72-11.94-3-4.31-5.75-4.26-8.47.26-4.74,7.89-7.15,16.69-8.55,25.65-.94,6-3.34,10.08-8.84,13.13-13.71,7.61-27.88,14.35-41.34,22.44a117.89,117.89,0,0,0-24.73,19.4c-1.23,1.29-2.39,3.28-4.56,2.61s-1.79-3-2.19-4.74c-1-4.42-1.95-8.88-3.14-13.25-2.67-9.83,1.15-15.17,11.53-15.47,3.48-.1,7,.72,10.49.88,15.68.74,30.41-2.1,43.22-11.87,6.63-5.06,10.15-11.66,8-20-2.39-9.32-8.7-15.71-17.27-19.85a5,5,0,0,0-4.8.42c-5.06,3.31-5.31.11-5.54-3.78-.76-12.83-8.15-20.38-21-21.67-1-.1-2.07-.1-3.09-.28-1.46-.26-3.08-.69-2.73-2.6a2.61,2.61,0,0,1,3.4-1.94c3.37.86,6.68,2,10,3.14,19,6.49,38.12,12.38,58.23,14,20.72,1.67,39.62-4,56.86-15.37,1.88-1.24,4.59-2.82,3.93-5.8s-3.45-3.39-6-3.33c-23.77.59-45.8-8-68.56-12.79-1-.21-2.28-.23-2.48-1.44-.24-1.51,1.07-2.1,2.21-2.56,12.89-5.22,25.94-8.3,39.73-3.35,10.87,3.91,21.74,7.87,32.65,11.59,7.78,2.65,16.39,4.17,25,1.85,6.42-1.73,6.68-.91,6.64,5.73-.11,18.67,8.39,26,25.19,24.32,9.2-.94,18.21-12,15.7-25.55-1.58-8.5-12.56-17.57-21.71-15.2-12.21,3.15-21.94-2.67-32.23-6.26a93,93,0,0,1-23-11.82c2.24-2.6,4.67-1.59,6.73-1.42,23.15,1.91,38.29-10,49.44-28.64,8.39-14,12.5-29.14,10.76-45.6a32.4,32.4,0,0,0-.07-13.69c.46-2.64-1.06-4.49-2.53-6.37a4,4,0,0,0-1.27-3.52c-1.07-5.09-5.86-8.45-6.39-13.79l7.19.22c1.16,1.91,2.46,3.66,5,3.8L938,167c3.28,4.2,8.16,6.08,12.58,8.63l1.77,1.49a1.82,1.82,0,0,0,1.88,1.32l2.75,1.23c4.21,4.64,9.2,9.15,2.67,15.64a.69.69,0,0,0-.61.5,25.92,25.92,0,0,0-3.27,2.7c-18.59,21.18-23.42,46.5-22,73.67.08,1.7.48,3.42,2.34,4,2.21.65,4-.31,5.44-2,4.63-5.24,9.33-10.42,14-15.63,11.26-12.54,23.81-24.3,25.61-42.54C981.37,213.39,983.33,213.49,985.29,213.83Z"/><path class="cls-1" d="M886.78,386.15c15.18-9.95,30.07-7.37,45.05-.52,7.29,3.33,14,6.57,18.35,14.34,11,19.8,31.26,25,51.13,30.28,12.14,3.24,13.57,2.21,12.45-11.84-1.71-21.38-20.31-35.76-39.84-38.75a69.37,69.37,0,0,0-27.08.79,7.33,7.33,0,0,1-3,.44c-2.93-.62-7.46-.64-7.35-4.1.09-3.12,4.38-1.71,6.83-1.88,10.3-.72,20.76-.37,30.89-2.09,10.78-1.82,18.57,4.17,27.38,7.8,13.92,5.74,27.74,11.72,41.77,17.19,5,1.95,9.1,5.72,14.6,6.54a2.31,2.31,0,0,1,2,3.22c-.78,1.8-2.39,1.13-3.77.72-4.35-1.33-8.67-2.57-13.35-1.68-8.92,1.69-14.34,8.21-14.25,17.35.08,7.39,6.46,15.27,13.42,16.58,10.07,1.9,17.11-1.72,20.5-10.49.7-1.82.83-5.09,3.28-4.39,2.92.83,1.07,3.84.84,5.93-2.61,22.86-20.9,31.22-38.42,31.43-17.32.22-34.23,2.65-48.68,13.5-7.46,5.6-14.37,11.75-19.63,19.55-.9,1.34-1.53,3.27-3.53,2.95-2.16-.34-1.81-2.46-2.11-4-.44-2.25-.67-4.62-3.48-5.25S946.61,491,945.3,493c-8,11.88-15.45,24-16.49,38.83-.28,4-2.46,5.08-5.88,3.8-9.27-3.47-18.55-6.94-27.7-10.72-5.21-2.14-1.37-4.06.69-5.24a92,92,0,0,0,30-27.26c13.76-19.55,14.21-17.59-5.56-29.58-17.45-10.59-37.32-13.92-57.33-16.17a246.14,246.14,0,0,0-45.17-1.18c-2.15.16-5,.85-6.11-1.68-.91-2.19,1.42-3.69,2.81-5.11Q823,430,831.67,421.55c2.07-2,4-2.63,6,.5,9.2,14.57,13,15.35,26.33,5.24,2.3-1.76,3.49-.3,4.72.86,7.07,6.64,15.24,6.33,23.1,2.69,9.22-4.28,15.91-11,15.8-22.33-.09-8.94-4.53-14.72-14.91-19.05C890.68,388.62,888.16,388.62,886.78,386.15Z"/><path class="cls-1" d="M705.53,466.22c-.81,32.28-8.87,61.9-21.47,90.53s-28.44,55.45-42.7,83.14c-3.53,6.86-7.38,7-11.63.41-8.66-13.33-11.61-27.94-9.84-43.69,1.79-16,4.08-31.92,7.06-47.76,1.69-9,1.27-18.05.62-27.17-1.29-18.14-2.12-36.32-1.43-54.51a79.68,79.68,0,0,1,7.21-31.12c3.17-6.81,7.93-12,13.73-16.39,3.18-2.44,6.54-2.42,9.85-.45,13.43,8,25.82,6.92,37.21-4,3.36-3.22,4.14-.25,4.69,2.28C702.42,433.82,705.4,450.27,705.53,466.22Zm-64.6-14.38c-.35,10.53,7.85,19.58,18.2,19.52,9.3-.07,19.82-6.06,20-17.68.21-12.34-6.58-20.08-18.72-20.6C649.47,432.61,641.32,440.45,640.93,451.84Z"/><path class="cls-1" d="M524.38,147.52c.31-7.09,3.44-11.39,10.51-14.17,10.1-4,20-8.76,28.82-15.38,6-4.51,7.9-10.3,6.71-17.36-1-6-2.64-6.64-7.64-2.83-10.84,8.27-21.21,17.08-30.07,27.51-1.34,1.57-2.57,3.24-5.35,3.83-.9-6.43.58-12.57,1.28-18.74q2.73-23.89,5.52-47.79c.9-7.64,1.82-8.38,8.2-4.8,11.64,6.54,24,8.25,37,6.86a9.17,9.17,0,0,1,5.86,1.2c9.58,5.44,15.81,14.06,21.55,23,6.26,9.69,11.8,19.86,14.26,31.34q.28.9.57,1.83a4.19,4.19,0,0,0,.87,4.21c.17.47.33.95.5,1.42,2.12,5.89-2.61,11.15-1.53,17-3.65,5-4.28,11.09-5.3,16.8-2.74,15.33-6.65,30.48-8,46.06a5.62,5.62,0,0,1-2.94,4.82c-3.4-6.94-6.39-13.88-11.42-19.57a12.58,12.58,0,0,0-4.82-5.56c-.78-1-1.66-1.62-2.95-.85a5.73,5.73,0,0,0-4.43-4.39c-.35-.94-.89-1.31-1.78-.57-.53-1.94-2.09-2.32-3.79-2.44-1.35-1.4-2.68-2.82-4.83-1.37-3.17-3.28-6-6.73-5.64-11.69,2.21-3.59,1.2-7.45,1-11.25,1.1-7.8.38-15.6.16-23.39,0-1.58.09-3.52-2.08-3.94-1.71-.34-2.52,1.09-3.34,2.25-2.74,3.84-6.09,7.41-8,11.62-2.93,6.41-9.69,10.16-11.35,17.28-2.7,2-5.21,4.17-6.12,7.62-3.46,3.5-7.21,6.82-7.54,12.25l-.47.1-.12.46c-4.92-3.27-2.4-8.52-3.41-12.83A70.7,70.7,0,0,0,524.38,147.52Zm61.92-17.7c0,10.15,5.71,16.05,15.41,16,8.87-.06,16.11-7.67,16-16.88,0-8.08-7.23-14.81-15.84-14.86A15.76,15.76,0,0,0,586.3,129.82Z"/><path class="cls-1" d="M257,1051.93c-8.76,5.86-9.08,6.9-6.55,17.21,7,28.63,15.35,56.92,23.4,85.27.27.95.67,1.87,1.16,3.21,2.6-1.31,3-3.66,3.71-5.62,11-29.62,21.9-59.27,33-88.86,1.23-3.3,1.38-8.71,5.45-8.85,4.46-.15,4.3,5.39,5.47,8.66,8.56,23.9,16.65,48,25.48,71.77,2.85,7.66,4.33,15.85,9.26,24.52,2.94-9.47,5.53-17.72,8.06-26q8.24-26.88,16.41-53.79c1-3.15,1.65-6.38,2.54-9.55,3.13-11.14,2.51-12.47-7.77-17.24h33.75c-15,4.59-15.06,18.77-19.2,29.81-3.4,9.1-5.57,18.72-8,28.18-2.34,9.06-7,17.79-10.09,26.86-4.95,14.4-9.81,28.84-14.73,43.25-.86,2.5-1.34,5.77-4.73,5.7s-3.64-3.54-4.5-5.94q-16.17-45.18-32.25-90.39c-.65-1.81-.4-4.73-3.12-4.72s-2.58,2.88-3.27,4.68q-16.48,43.39-32.86,86.82c-.58,1.55-1.09,3.13-1.72,4.65-.89,2.14-1.91,4.41-4.6,4.43-2.88,0-3.57-2.53-4.23-4.65-3.44-11-6.79-22.1-10.13-33.17q-12.3-40.74-24.58-81.5c-1.94-6.43-5.34-11.21-12.9-11.15-1.58,0-3.06-.38-3.07-2.21,0-1.35,1.43-1.36,2.39-1.36Q237.9,1051.9,257,1051.93Z"/><path class="cls-1" d="M587,642.92c-3.57-8.6-4.58-17.06-6.84-25.17-6.52-23.4-13.29-46.74-19.47-70.23-4.92-18.73-9.07-37.66-13.65-56.47A11.53,11.53,0,0,1,550,479.67c7.95-8.65,15.75-17.44,24.46-25.38,3.38-3.08,6.27-3,9.77-.14,5.8,4.76,10.52,10.45,15.13,16.27,2.47,3.12,2.87,6.67,2.5,10.54q-2.4,25.21-4.59,50.45c-3.07,34.72-7.38,69.35-8.43,104.25C588.72,637.85,589,640.21,587,642.92Z"/><path class="cls-1" d="M238.2,466.21c-3.55-3.59-3.68-8.2-5.41-12.1-1.3-2.9-2.54-5.88-6.26-6.05-3.51-.15-5.22,2.71-6.26,5.25a47.55,47.55,0,0,0,.47,38.37c1.89,4.33,4.55,8.33,6.7,12.56,1.2,2.36.33,4.15-2.33,4.48-2.15.27-5.12.92-4.88-2.75,1.11-17.07-10.44-25.86-22.34-34.41-5.34-3.84-11.38-6.68-16.27-11.2-2.9-2.67-5.73-5.33-7.66-8.86-4.4-8.09-5-8.12-10.26-.76-2.54-1.47-3.29-4-4-6.58-.8-2.8-2.37-5-5.36-5.34-4.53-.46-5.61-3.16-5.94-7.15-.36-4.3-1.35-8.55-2.09-12.82-.25-1.42-.75-3,.91-3.82,1.3-.68,2.32.27,3.38.91,13.79,8.35,21,7.65,31.86-3.07,1-1,1.85-2.68,3.41-2.27,2,.52,1.69,2.61,1.81,4.19a78.47,78.47,0,0,0,7,27.46c1.26,2.65,2.53,5.44,6.19,5.05,3.51-.38,5.45-2.57,6.25-5.95,1.23-5.15,4.64-9.16,7.32-13.53a120.35,120.35,0,0,0,11.23-24.75c3-8.91.26-16.65-7.07-22.61-8.17-6.64-16.53-13.1-23.76-20.77-4.4-4.69-7.75-10.08-7.86-17-.09-5.19,1.81-7.72,7.31-7.29a30.26,30.26,0,0,1,12.47,3.33c10.5,5.78,21.05,11.42,33.2,13a4.44,4.44,0,0,1,3.73,2.54l-11.27,2.93c-12.06,3.12-13.3,7.83-6.27,18.46,6.28,9.49,15.48,14.71,25.1,19.47,4.46,2.21,6.17,3.5,1.42,7.46-7.45,6.22-12.57,18.95-5.25,29.48.75,1.08,1.28,2.42.31,3.42-6.34,6.57-5,15.38-6.87,23.24C240.23,461.18,240.16,463.7,238.2,466.21Z"/><path class="cls-1" d="M832.79,454.29c24.26.06,48.27,1.84,71.11,11,3.25,1.31,6.47,2.69,9.68,4.11,1.51.67,3.22,1.43,3.3,3.33.1,2.39-2,2.86-3.74,3.48-10.28,3.7-20.89,6.49-30.79,11.31a144.84,144.84,0,0,0-26.43,16c-5.57,4.37-11.68,6.6-19,5.22-24.38-4.6-48.83-8.66-73.81-7.34-1.21.07-2.63.24-3.29-1.1-.83-1.69.62-2.66,1.56-3.67q12.68-13.59,25.4-27.14a7.34,7.34,0,0,0,1.28-1.34c7.09-13.19,19.61-13.78,32.32-13.92C824.52,454.25,828.65,454.29,832.79,454.29Z"/><path class="cls-1" d="M450.09,215.34c.13-3.55-2.42-6.07-3.52-9.14s-.65-5.71,3.47-5c9.15,1.67,17-1,19.46-9.92,2.69-9.65,1.88-19.84-5.92-27.78-3-3.07-6.15-6.16-10.31-7.8-3.51-1.39-3.61-4-2.72-7.12,1.74-6.14,3.34-12.32,4.94-18.5.31-1.2.27-2.67,1.69-3,1.89-.47,2.23,1.21,3,2.44,6.77,11,15.81,18.94,28.84,21.58,2,.41,4,.89,5.32,2.81.66,1,1.35,2.41,2.84,1.45s1.28-2.51.86-3.93c-3.17-10.73-6.6-21.21-15-29.38-7-6.76-13.86-13.58-21.6-19.48-1.83-1.39-6.15-14.33-5.35-16.06.89-1.91,2.35-1.38,3.6-.52,16.93,11.65,33.09,23.53,39.45,45,2.73,9.18,3.2,18.08,3.55,27.27,0,1.33,0,2.66,0,4-.05,1.6-.1,3.19-.16,4.79-.29,9.1-1.62,18.25,1,27.25-2.18,6-.47,11.72,1.3,17.42-1.42,9.06,2,17.59,2.92,26.39-.29,3-.93,6.17,2,8.43-.06,2.45-.08,4.89-.17,7.33-.06,1.37.56,3.1-1.1,3.83s-2.61-.84-3.66-1.69c-10-8.16-20-16.26-30.89-23.28-1.38-.89-2.62-2-4.42-1.84a9.43,9.43,0,0,0-6.76-4.42C459.32,221.81,453.21,220.26,450.09,215.34Z"/><path class="cls-1" d="M914.33,1184.54H873.89l-1-1.5c11.74-2,11-10.88,11.1-18.69.26-31.83.06-63.66.16-95.49,0-8.72-3.56-14.14-13.36-14.65l.79-1.51h39.06c0,.5,0,1.21-.13,1.23-8.95,1.62-11.15,7.67-10.95,15.82.24,10.32,0,20.66-.11,31-.06,5,2.17,7,7.17,6.94q31.3-.23,62.62,0c5.2,0,6.91-2.15,6.79-7.1-.22-9.09.15-18.19-.12-27.28-.48-16.36.18-14.61-13.17-20.56h39.62c-.31.77-.4,1.4-.58,1.43-8.75,1.44-10.88,7.22-10.83,15.21.18,30.59.06,61.18.09,91.77,0,2.06.43,4.11.47,6.17.2,8.63,3,15,13,15.06.51,0,1,.58,1.39.8-1.19,2.86-3.36,2.31-5,2.16a206.66,206.66,0,0,0-31.57-.15c-1.42.08-3.22.68-3.53-1.33-.22-1.5,1.49-1.85,2.61-2.2,4.5-1.39,5.76-4.88,6.17-9.06,1.69-17.29,1.41-34.62,1.42-52,0-4-1.75-5.56-5.59-5.56q-32.55,0-65.09,0c-4.21,0-6,1.9-5.92,6,.44,16.3-1.08,32.64,1,48.9,1.28,9.8,1.28,9.86,10.93,11.88,1,.21,1.91.59,2.87.89C914.32,1183.35,914.32,1183.94,914.33,1184.54Z"/><path class="cls-1" d="M622.64,338.21c.21-5.25-2.07-11.44,5-14.36.86-.36,1.4-2.05,1.64-3.21,4.74-22.7,20-38.33,35.86-53.62,6.53-6.3,13-12.63,19.59-18.92,1.28-1.23,2.58-3.38,4.61-2s.75,3.4.28,5.14a281.06,281.06,0,0,0-10.14,67.75c-.35,17.76,3.42,34.84,7.52,51.91a39.68,39.68,0,0,1,1.28,5.41c.25,2.71-.19,5-3.63,2.44-2.84-2.12-5.14-.47-7.27,1.17a221.68,221.68,0,0,0-21.1,19.07c-2.19,2.19-4.45,3.71-7.63,3.14a26.45,26.45,0,0,0-18.5,3.32c-3.13,1.84-4.59,1.11-4.86-2.38-.22-2.89-.4-5.77-.55-8.66-.16-3.07,1.32-5.62,4.14-6.18,13.61-2.72,21.42-13.1,28.75-23,8.39-11.38,16-23.61,18.71-38,.5-2.72,1.38-5.52-1.43-7.28s-5.16,0-7.37,1.56C654.73,330.72,641,338.8,629,349.24c-1.22,1.06-2.45,2.58-4.3,1.84-2.12-.85-1.91-3-2-4.82C622.57,343.58,622.64,340.89,622.64,338.21Z"/><path class="cls-1" d="M600.63,281.26c-3.22-13.81-6.79-27.44-16.2-38.82-2-2.4-3.74-4.62-7.06-3.69-3.54,1-3.8,4.05-3.45,7.05,1.86,16.31,6.09,31.94,13.66,46.57a36.76,36.76,0,0,1,2.5,7.6c.6,2.21,1,4.75,3.67,5.27,4.56.89,5.23,4.22,5.29,7.88.11,6.4,0,12.8,0,19.2,0,3.54-1.67,5.27-5.32,5.27s-7.43-.12-11,1.24c-1.66.64-3.62,1.73-5.14-.09-1.37-1.63-.63-3.56,0-5.3a27.52,27.52,0,0,0,0-19.36c-2-5.72-4.09-6.08-8.2-1.72-8.19,8.72-17.88,16-25.21,25.53-.74,1-1.67,2.22-3,1.77-1.73-.59-1.35-2.36-1.34-3.75.08-13-.09-26-1.83-38.93-.4-3,.7-4.69,3.48-5.63,11.92-4.06,16.55-14.25,20.42-24.85,5.33-14.62,5.79-29.88,5.19-45.21-.12-3.11-.1-6.61-3.37-8.12s-5.19,1.71-7.23,3.51c-8.09,7.15-14,16.23-21.2,24.18-1.06,1.18-1.83,3.17-3.84,2.38-1.51-.6-1.46-2.42-1.56-3.82-.37-5.54-.66-11-2.24-16.47-1-3.37.57-5.79,4.27-7,11.71-3.8,22-9.34,26.67-21.93,1.53-4.09,3.59-2.22,4.86.56,6.11,13.42,15.68,24.14,26.38,34a4.18,4.18,0,0,0,.91.83c12.4,6,13.89,16.16,11.63,28.44C601,265.51,601.16,273.45,600.63,281.26Z"/><path class="cls-1" d="M774.49,167.41a5.34,5.34,0,0,0,3.61,2c1,1.95,2.86,2.67,4.89,3.06l7.6,8.19c.87,1.17,1.7,2.35,2.59,3.47,5.22,6.58,5,6.91-.38,13.6-7,8.67-9.46,19.13-10.43,29.92s-1.51,21.83-2.26,32.74c-.09,1.2.08,2.51-1.47,3.74-2.19-1.72-1.7-4.29-1.84-6.52-.43-7-.6-14-1.11-21-.42-5.71-3.54-7.39-8.28-4.39-12.7,8.06-22.37,18.57-27.64,33.06-4.76,13.12-7.79,26.93-16.17,38.7-4.57,6.4-10.54,11-16.32,15.9-3,2.53-5.5.58-5.19-4.17.81-12.35,1.22-24.76,4.29-36.85,7.71-30.42,16.52-60.49,28.38-89.59a13.61,13.61,0,0,1,1.92-3.85c2.54-2.94,5.32-6.94,9.38-6.05,3.5.77,1.79,5.39,2.44,8.24,2.27,10,2.7,20.64,11.36,28a35.76,35.76,0,0,0,6.06,4.26c8.75,4.69,14.16,1.53,14.39-8.22.31-13.54-.5-26.83-8.49-38.53a8.83,8.83,0,0,0-2.05-4.87.61.61,0,0,0,.18-1l3.28-.29Z"/><path class="cls-1" d="M798.41,1119.59h39.75l1.11,1.36c-13.6,1.78-11.92,11.55-12,20.33-.09,9.3,0,18.6-.07,27.9-.05,10-.8,10.92-10.37,13.92-19.06,6-38.18,5.65-57.47,1.05-23.6-5.64-39.54-19.75-47.23-42.72-11.2-33.41,2.85-73.13,35.32-86,15.35-6.1,31.38-7.1,47.56-5.59,9.44.88,18.77,2.91,28.16,4.33,2.48.37,4.49.95,4.42,4-.16,7-.3,14-.51,21,0,1.2-.08,2.7-1.52,3.09-1.28.35-1.78-.8-2-1.82-2.81-14.26-13.34-19.56-26-22-13.26-2.56-26.46-3.2-39.74.84-17.91,5.44-28.06,17.9-31.73,35.4-4.7,22.42-1.54,44,13.5,62,17.79,21.31,39.6,26,64.69,20.95,4.49-.9,7.81-4.16,7.86-9.16.12-11.36.31-22.75-.25-34.09-.45-9.09-2.23-10.52-11.25-12.61a18.84,18.84,0,0,1-2.24-.82Z"/><path class="cls-1" d="M1148.73,1055c-2.26-13-11.89-14.53-21.67-15.23-7.82-.56-15.71,0-23.54-.46-5.62-.28-7.72,1.79-7.68,7.47.23,32,.17,64,.29,96.07a247.65,247.65,0,0,0,1.23,27.23c1,8.63,2.27,10,11,11a27.71,27.71,0,0,1,3.64.64,6.12,6.12,0,0,1,1.51,1c-1.66,2.76-4,2.59-6.21,2.49-12.38-.56-24.76-1-37.15,0-1.52.12-3.76.9-4.25-1.27s1.81-2.46,3.33-2.69c4.94-.77,6.62-4.06,7.55-8.52,1.28-6.14,1.23-12.33,1.25-18.51q.1-53.31,0-106.61c0-8.07-.29-8.27-8.44-8.22-7.85,0-15.71.23-23.56.07-8.9-.18-16.23,2.33-20.87,10.54-.62,1.1-1.14,3.21-2.91,2.68-2.13-.63-1.49-2.82-1.17-4.28,1.26-5.85,2.75-11.64,4.16-17.46.64-2.67,2.26-3.8,5-3.18,16.71,3.78,33.69,2.79,50.6,2.76,21.68,0,43.39,1.07,65-1.41,2.09-.24,4.21.27,4.46,2.33C1151.26,1039.28,1151.24,1047.11,1148.73,1055Z"/><path class="cls-1" d="M321.3,476.54c-2.18-2.36-4.46-4.63-6.52-7.09-4.28-5.11-9.91-8-16.07-10-6.57-2.08-10.45.63-9.6,7.46,2.34,18.81,11.41,34.25,27.36,44.18,8.56,5.33,12.08,11.49,12,20.87-.06,10.32.15,20.64.19,31,0,1.39.43,3.26-1.12,3.91-2.27.95-2.55-1.5-3.41-2.68-6.69-9.16-13.23-18.42-20-27.54-7.95-10.78-17.38-19.9-30-25-4.88-2-6.62-4.67-4.89-10,2.57-8,.06-15.93-1.68-23.75-2.64-11.94-7.64-23.08-12.35-34.29-1.58-3.76-.59-5.27,3.23-4.19,14.78,4.15,26.82-14.66,22.66-28.46-.61-2.05-2.64-4.06-.61-6.29.94-1,2.33-.72,3.49-.26,3.08,1.22,2.45,4,2.45,6.39a83.56,83.56,0,0,0,4.41,28.58c3.66,10.34,10,18.91,20.54,21.2C320.93,462.57,322.17,468.09,321.3,476.54Z"/><path class="cls-1" d="M162.12,1183.67c-5.4,2.64-10.64,1.4-15.59,1.21-9.1-.34-18.17-.05-27.25.27-1.78.06-4.43.8-4.91-1.33-.6-2.67,2.34-2.28,3.93-2.65,4.38-1,6.52-3.58,7.26-8.07,2.15-13.13,1.45-26.4,1.76-39.57.68-28.91.05-57.85.3-86.77.06-6.14-2.09-7.9-8-7.57-8.86.5-17.76.42-26.64.32-8.62-.1-15.24,3.06-19.41,10.8-.56,1-.83,2.74-2.36,2.39-1.88-.43-1.6-2.32-1.35-3.65,1.16-6.06,2.4-12.12,3.78-18.14.65-2.82,2.83-3,5.38-2.74,37.69,4.17,75.45,2.86,113.21,1.23,6.91-.3,7.71.08,7.53,6.8-.13,5-.33,9.91-.78,14.83-.11,1.2-.55,3.17-2.49,3-1.67-.15-1.43-1.84-1.52-3-.46-5.85-4.82-7.79-9.42-9.36-9.63-3.3-19.65-2-29.52-2.15-11.13-.19-11.16-.06-11.14,11q.12,56.71.25,113.42c0,2.92.75,5.69,1.14,8.53.84,6.06,4.22,8.58,10,8.63A7.22,7.22,0,0,1,162.12,1183.67Z"/><path class="cls-1" d="M515.94,317.34c-3.43-6.74-6.7-13.56-10.33-20.18-3.19-5.81-7.56-10.42-14.77-10.81-6.28-.33-10.18-3.83-13-9.09-1.06-2-2.7-3.3-5.06-2a4.16,4.16,0,0,0-2.13,5.28c4.9,15.09,8.86,30.53,17,44.41,5.71,9.74,13.65,16.55,24.8,18.93,4.58,1,5.91,3.27,5.93,7.71.05,10.43-2.35,20.47-4.08,30.62-.25,1.47-.59,3-2.22,3.41-2,.55-3.15-.89-4.07-2.2-3.68-5.23-6.94-10.77-10.88-15.79-10.31-13.14-23.61-23-37-32.63-4.33-3.11-8.52-6.45-13.45-8.76-2.59-1.22-4.42-3.81-.35-5.92,3.05-1.57,7.35-1.72,8.46-5.56a26.84,26.84,0,0,0-.13-14.71c-1.64-5.68-3-11.59-7.35-16.15-2.58-2.7-1.63-4.73,1.82-5.94,4.67-1.64,9.39-3.2,13.88-5.24,6.6-3,11.29-7.59,11.18-15.57-.06-4.24,1.72-4.66,4.83-2.14,12.05,9.71,23.79,19.74,34.05,31.38a4,4,0,0,1,1,1.53C516.39,297.48,517.63,307.18,515.94,317.34Z"/><path class="cls-1" d="M725.55,489.28c1.4-9.72,2.16-19.72,1-29.5-1.7-14.45,5.55-23.91,15.51-32.33,15.08-12.76,32.65-21.44,50.19-30.14,2.94-1.45,6-4.06,8.86-3.94,3.82.16,2.54,5.59,4.92,7.74,5.33,4.79,3.67,8.55-.44,13.53-22.72,27.51-46.14,54.35-72.85,78.14-1.69,1.51-3.31,4.58-6.11,3C724.39,494.46,725.66,491.61,725.55,489.28Z"/><path class="cls-1" d="M392.23,529.38c-12.37.37-12.3.4-7.28-9.83,4.62-9.42,6.32-19.56,6.86-29.94.11-2.05.2-4.34-2.17-5.31s-4.54.19-6,2c-6.54,8-15.56,13.44-22.46,21.09a24.53,24.53,0,0,1-4.61,4.09c-1.8,1.2-3,4.24-5.51,3.26-2.7-1.06-2.43-4.19-2.31-6.55.44-9-2.82-17.51-2.74-26.43.06-6.91,2-9.14,8.72-10.31,19.26-3.37,37.68,1,56.06,5.86,8.35,2.19,16.65,4.59,25,6.91,2,.54,4.45.74,4.86,3.15s-2.17,2.64-3.53,3.76c-10,8.26-18.74,17.8-26.89,27.88C405.25,525.11,400.86,532.23,392.23,529.38Z"/><path class="cls-1" d="M481.71,477c2.24-14.88-.69-26.68-9.48-36.86-.53-.61-1.24-1.53-1.11-2.15,1.65-8-2.27-16.21.31-23.84,3.13-9.23,3.92-18.49,3.69-28-.05-2-.74-4.52,1.76-5.39,2.33-.81,2.92,1.75,4.08,3.05,12.32,13.88,19.3,30.65,25.15,47.86,5.1,15,9.31,30.32,14,45.49,1.23,4,1.16,8-4.25,6.29-9.67-3.12-19.64-1.78-29.39-3.26C483.06,479.62,481.4,478.77,481.71,477Z"/><path class="cls-1" d="M610.33,1161.22c2.45,9,0,15.56-2.4,22-1,2.61-4.2,2.31-6.63,2.33-8.46.08-17,.48-25.39-.12-12.38-.89-24.74-.61-37.12-.64a22.42,22.42,0,0,1-6.21-1.09c12.88-3.89,10.18-14.51,10.32-23.08.48-29.31.28-58.63.18-88-.05-14.42-.21-14.42-12.8-20h40.4c0,.39-.06,1.09-.16,1.1-10.34,1.54-11.77,8.54-11.91,17.51-.49,31.18-1,62.34.84,93.49.51,8.43,4,12.38,12.53,13.17a179.61,179.61,0,0,0,18.57.31c8.23-.12,14.2-3.76,17.19-11.71C608.23,1165.29,609,1164.06,610.33,1161.22Z"/><path class="cls-1" d="M344.34,313.3c2.54,11.55,4.77,22.89,8.2,33.94,1.34,4.33,2.5,8.73,4,13,.66,1.94,1.82,4,4.42,3.47,2.94-.63,3.1-3.09,2.62-5.42-.73-3.64-1.77-7.22-2.64-10.84-.54-2.27-.63-4.55.91-6.51s3.12-2.47,3.74.56c.91,4.45,3.36,7.93,6.24,11.24,2.31,2.66,1.9,5.16-.27,7.75-6.88,8.24-13.53,16.67-20.56,24.77-4.76,5.49-10.25,5.45-15.56.51-2.85-2.64-5.74-1.61-8.46.19-1.72,1.14-3.26,2.81-5.47,2.59-2.85-.29-6.93.45-3.62-5,1.71-2.83,1.73-6.72,2.33-10.15s2.32-5.07,5.7-5.49c20.5-2.57,20.72-16.47,15.26-31.56a76,76,0,0,0-17.88-28c-3.81-3.82-2.55-5.8.85-9.42,9.44-10.05,18.61-11.64,29.17-1.92,2.51,2.31,6.11,3.41,9.08,5.27,7.28,4.57,8.51,12.55,3.21,19.41-1.51,1.95-2.74,4.12-4.11,6.18-.9,1.36-1.65,3.23-3.52,3.12-2.23-.12-1.94-2.34-2.32-3.84-1.29-5-2.4-10-3.74-15-.64-2.39,0-6.41-3.73-6.06C344,306.47,345,310.65,344.34,313.3Z"/><path class="cls-1" d="M955.12,516.05c-.7-3.57,1.5-5.69,6.77-7.27,13.9-4.15,28.38-5.28,42.3-9.15,15.26-4.24,29.4-9.9,37.06-25.29a14.88,14.88,0,0,1,4.64-4.88c1.55-1.12,3.26-3.19,5.48-1.93,1.81,1,.47,3,.43,4.57-.1,3.38,1.75,5.39,4.46,6.83s5.21.51,7.41-1.34c4.79-4,6.17-10.13,9.06-15.31,1-1.77,1.31-4.38,3.68-4.43,2.08,0,2.55,2.42,3.37,4a87.42,87.42,0,0,0,9.26,13.89c2.62,3.32,2.59,5.88-1.36,8a46.59,46.59,0,0,0-15.94,13.45c-2.24,3-5.35,4-9.11,4.34-21.35,2.13-42.78,3.87-63.61,9.48-13,3.5-25.52,8-36.44,16.31-5.67,4.29-6.19,3.88-6.77-3.38C955.64,521.88,955.45,519.82,955.12,516.05Z"/><path class="cls-1" d="M401.17,395.42c-1-4,1.26-6.79,6.29-8.3s7.58-5.29,6.36-10.48c-1.14-4.82-5.17-5.31-9.41-4.69-3.83.57-5.84-.92-6.08-4.94-.32-5.11.28-10.32-2-15.22a4.51,4.51,0,0,1,1-4.68c3.81-4.33,5.46-9.67,7.17-15,1.06-3.28,2.5-4.24,5.86-2.46a260.5,260.5,0,0,1,42.4,27.73c3.11,2.52,2.59,4.75-.19,7.07-7.84,6.54-14.65,13.93-19.18,23.2-1.14,2.35-3.15,3.66-5.42,4.84-5.86,3.05-11.63,6.26-17.41,9.46-2.33,1.28-4.61,3.47-7.39,2C400.13,402.44,401.48,399.26,401.17,395.42Z"/><path class="cls-1" d="M442.14,1054.53c12.55-1.44,24.44-1.82,37-.13-12.3,2.81-10.6,12.06-10.6,20.4q0,44,0,87.91c0,.82,0,1.65,0,2.47,1,16.64,1.12,16.65,15.56,18.9-2.76,2.19-35.36,2.88-42.89.48,12.26-2.49,11.32-11.57,11.36-19.8.17-30.74.14-61.49.12-92.24C452.76,1064.81,453.63,1056.44,442.14,1054.53Z"/><path class="cls-1" d="M311.51,206.84c2.64-4.94,2.5-10.38,2.48-15.71,0-4.71,1.2-7.81,5.69-10.55,9.82-6,19.75-11.87,28.62-19.39,5.16-4.38,6.31-3.64,9.54,2.23a184.34,184.34,0,0,0,9.89,16.43c3.07,4.43,1.57,6.54-2.77,8.18-2.1.79-4.11,1.87-6.16,2.82-6.12,2.24-10.87,6.37-15.06,11.15-2.74,3.13-5.36,3.32-8.27.42-1.46-1.93-2.88-4.09-4.9-.5l-.1-.07c-3.88,2.74-4.86,6.61-4.36,11.06-3.51,8.54-4.24,17.53-4.28,26.62,0,2.27.21,4.55,0,6.8-.21,2.79-1.46,3.74-4,1.84a43.66,43.66,0,0,0-5.68-3.67c-7.46-3.93-10.34-9.55-6.86-17.68,4.85-3.37,5.42-8.59,5.95-13.83A9.6,9.6,0,0,0,311.51,206.84Z"/><path class="cls-1" d="M635.79,1052.46h37.13c-.27,2.66-2.12,2.32-3.32,2.69-4.57,1.41-6.75,4.51-6.84,9.18-.16,9.29-.42,18.57-.41,27.86,0,23.33.25,46.66.16,70,0,5,1.7,9.7,2.29,14.6.51,4.31,4.89,4.29,8.31,5,1.32.26,3.45.1,3.3,2-.18,2.26-2.41,1.93-3.95,1.79a157,157,0,0,0-32.72,0c-1.16.14-2.71.3-3.08-1.29s1.07-2.09,2.25-2.34c5.89-1.22,7-5.46,7.26-10.64,1.67-34.46.58-68.93.64-103.4,0-7.74-2.3-13.53-12.27-13.51C635,1053.74,635.38,1053.1,635.79,1052.46Z"/><path class="cls-1" d="M1066.09,262a21.7,21.7,0,0,0,2.89,3,9.35,9.35,0,0,0,10,.56c3-1.62,2.84-4.69,2.65-7.66-.15-2.38-2.18-6,2.45-6,3.87,0,9.17-.58,9.19,5.58q.06,22-.56,43.92c-.15,4.92-5,6.32-8.42,8.21-8,4.34-16.15,8.24-24.25,12.31-12,6-23.53,12.77-33.15,22.36-1.08,1.08-2,2.72-4.29,2.34-.07-.49-.39-1.37-.19-1.51,9.71-7,14.51-18.37,23.57-25.9,1.73-1.43,2-3.47,2.53-5.49,4.11-16.64,12.1-32,16.06-48.69A18,18,0,0,1,1066.09,262Z"/><path class="cls-1" d="M693.9,162.05a7.14,7.14,0,0,0,3.56,4.87c7.07,3.5,9.77,10.41,11.87,16.84,1.84,5.65-1.24,11.67-5.28,16.16-3.55,4-7.86,7.23-11.85,10.79q-9.91,8.85-19.85,17.68c-1.07,1-2.16,2.15-3.76,1.66s-1.46-1.79-1.37-3.07c.89-12.5-2.24-24.6-4.37-36.7-1.36-7.69.2-12.69,7-16.36,2.67-1.44,5.26-3.32,6.36-6.46a1,1,0,0,0,.65-.68c2.09-.74,2.81-2.84,4.23-4.25,2.29-2.29,2.74-7.34,5.74-7.25,2.28.07,4.44,4.16,6.65,6.46Z"/><path class="cls-1" d="M391.24,219.54c5.46-1.42,8.9-5.59,12.56-9.4,1.95-2,3.78-3.86,6.83-2.2a7.63,7.63,0,0,0,4.25,3l3.52,2.41c11.18,8.47,22.9,16.14,34.85,23.46,1.18.72,2.94,1.07,3,2.82s-1.75,2.3-3.06,2.52c-18.67,3.18-30.13,15.75-40.06,30.43-1.21,1.79-2.36,4.54-5,3.85-2.89-.75-1.92-3.74-2-5.86-.67-14.17-6.1-26.78-12.73-39C391.28,227.82,388.73,224.12,391.24,219.54Z"/><path class="cls-1" d="M863.61,161.05l5.08.88c6.47,2.13,13,.4,20.19.15-1.68,3.71-3.23,6.92-4.61,10.19-6.33,14.91-3.43,26.46,9.49,36.39,3.38,2.6,2.4,4.14-.22,6.08-11.31,8.38-20.74,18.16-24.54,32.31a7.48,7.48,0,0,1-4.22,5.12c-6.82,2.7-13.71,5.21-20.57,7.79-1.34-2.72.38-4,1.37-5.4a121.32,121.32,0,0,1,26-27.13c5.51-4.18,4.67-9.35-1.34-12.65-2.3-1.26-4.34-.45-6.53.23-3,.94-5,.32-4.19-3.49,3.57-16.1-.62-31.05-6.86-45.66-1.75-4.09-.85-6.29,3.64-6.8l2.5.83A4.12,4.12,0,0,0,863.61,161.05Z"/><path class="cls-1" d="M1032.52,296.39c.23,2.19-1.13,3.4-2.75,4.45-7.84,5.05-16.77,7.89-24.92,12.31-.91.5-2,.8-2.85-.12-1.28-1.46-.09-2.7.59-3.91,3.55-6.32,6.62-12.86,8.1-20,5.28-25.41,5.75-50.31-8.39-73.54-1-1.58-1.64-3.32-2.45-5-.55-1.12-1.19-2.29-.23-3.44a2.69,2.69,0,0,1,3.43-.48c10.26,5.33,21.19,9.1,31.8,13.6,2.13.91,3.25,2.4,2.07,4.93-10.76,22.92-11.36,46.51-4.51,70.57C1032.46,296,1032.48,296.19,1032.52,296.39Z"/><path class="cls-1" d="M806.78,159.54l10.07-.9,2.13,0,3.82,1c-1.12,7-2.51,13.87-2.61,21a10.93,10.93,0,0,0,.13,6.43c-2.38,16.11,3.56,30,11.82,43.14,3.6,5.74,3.49,10.91-.52,16.53a74.22,74.22,0,0,1-15.76,16.43c-2.6,1.95-4.56,4.74-6.93,7-1,1-2.46,1.82-3.89.76-1.22-.9-.81-2.26-.23-3.38,7.35-14.32,5.23-29.8,5.42-45,.09-7.42-.9-14.89-.31-22.26.72-9.05-2.41-15.93-9.18-21.51a8.28,8.28,0,0,0-3.76-4.41,3.59,3.59,0,0,0-2.51-2.26c-.52-.53-1.05-1.06-1.57-1.57-.38-1.71-1.65-2.52-3.14-3.1a1.06,1.06,0,0,0-.74-.67l-1.25-.87a6,6,0,0,1,2.77-4,.9.9,0,0,0,1.45-.11l5-.78a2.94,2.94,0,0,0,3.42-.59l4-.4A1.66,1.66,0,0,0,806.78,159.54Z"/><path class="cls-1" d="M134.54,274.19c0-7,.27-14.05-.08-21-.26-5.2,2-7.92,6.58-9.79,6.09-2.49,12-5.46,17.94-8.27,1.1-.52,2.14-1.53,3.27-.25a2.56,2.56,0,0,1,.1,2.93c-8,16.43-2.79,32.6,1.1,48.74,2,8.08,1.38,9.34-6.42,11.36q-8.67,2.25-17.28,4.73c-3.43,1-5.07.11-5-3.71.11-8.23,0-16.47,0-24.7Z"/><path class="cls-1" d="M997.28,248.94c5.73,11.47,10.63,22.81,6.19,36.26-4,12.11-8.89,23.34-17.75,32.83-6.77,7.26-14.7,12.53-23.37,17a24.29,24.29,0,0,1-7.12,2,2.76,2.76,0,0,1-3.44-1.88c-1.31-3.61,4.25-13.73,8.18-14.59a9.19,9.19,0,0,0,6.22-4.59c12.82-20.86,22.1-43.32,30.2-66.32C996.49,249.34,997,249.17,997.28,248.94Z"/><path class="cls-1" d="M264.86,313.81a35.32,35.32,0,0,1-3.44-1.92c-10-6.88-21.24-8-32.64-6.2-11,1.73-21.92,4-32.18,8.59-1.74.79-4.34,2.48-5.38-.06-1.11-2.71,1.69-3.76,3.88-4.5,10.17-3.42,20.42-6.58,30.5-10.23,23.44-8.48,45.23-20.05,64.48-36,5.27-4.37,9-3.29,13.18,1.14,2.53,2.66,3,4.46-.86,5.78-19.17,6.5-28.47,21.32-33.69,39.66C267.85,313.07,267,313.8,264.86,313.81Z"/><path class="cls-1" d="M1003.9,563.39c-10.43-3.34-21.84-5.6-32.13-10.91-4.25-2.19-1.12-4.93,1.4-6.42a51.5,51.5,0,0,1,23.46-7.17c19.36-1.08,38.75-1.89,58.12-2.77,1.38-.06,3.1-.57,4,.86s-.52,2.33-1.44,3C1041.37,551.42,1024,559.6,1003.9,563.39Z"/><path class="cls-1" d="M269,203.09a91.49,91.49,0,0,1,6.91-34.25,72.61,72.61,0,0,1,17.94-25.58c.91-.83,1.92-1.89,3.22-1.5,1.75.52,1.37,2.25,1.58,3.65,1.33,8.79-1.14,17-3.18,25.41-3.36,14-5.27,28.3-7.62,42.5-.32,2,.36,4.06.58,6.08-.11,1.11-.23,2.22-.35,3.33l-2.09.8-8.76-6.24a57.17,57.17,0,0,1-8.69-12C268.67,204.54,268.82,203.82,269,203.09Z"/><path class="cls-1" d="M603.07,414.82c0,3.37,2.09,8-1,9.82-2.74,1.64-5.58-2.56-8.51-3.73-9-3.63-11.64-11.58-14.31-19.66-4.24-12.87-7.67-26.07-16.38-37-4.09-5.12,1.26-7.6,3.92-9.9s3.92,1.11,5.21,3.09c6.1,9.38,13.38,17.27,25.09,19.39,3.44.62,3.88,3,4,5.93C601.72,393.44,602.42,404.13,603.07,414.82Z"/><path class="cls-1" d="M636,1254.71c2-.27,4-.7,6.08-.77,4.15-.13,6.61-.55,7.07,6.12.82,11.8,5.32,23.23,8.94,34.63.3,1,.7,2.15,2,2s1.8-1.57,2.23-2.71c3.7-9.84,7.33-19.72,11.1-29.54,1.15-3,1.62-7.87,4.8-7.88,3.54,0,3.32,5.11,4.43,8,3.48,9,6.37,18.29,9.59,27.43.57,1.61.6,4.15,3.08,4,1.9-.13,2.21-2.24,2.7-3.78q4.63-14.78,9.21-29.55c.19-.59.58-1.24.47-1.78-2-9.13,3.82-6.77,8.63-5.86-6.75,10.5-8.79,22.79-13,34.25-2.36,6.38-4.28,12.92-6.56,19.34-.5,1.38-.59,3.7-2.8,3.51-1.89-.17-2.36-2.15-2.91-3.67-4-11.06-7.85-22.15-11.86-33.2-.59-1.61-.41-4.33-2.77-4.27-2.15.06-2.27,2.6-2.91,4.3q-6.18,16.52-12.37,33c-.57,1.51-.85,3.56-2.74,3.79-2.64.32-2.68-2.33-3.17-3.86-4.83-15.13-9.53-30.3-14.21-45.48C640.05,1259.67,638.88,1256.9,636,1254.71Z"/><path class="cls-1" d="M692.73,146.1c-1.33-6.07-1.79-12.08-.29-18.29,1.66-6.89-3.51-13.63-1-20.68.58-1.62-.53-4.16,2-4.66,1.82-.37,2.88,1.45,3.78,2.76,6.62,9.63,15.86,17.24,21.06,28,4.39,9.12,7.08,18,2,27.7-.54,1-.43,2.4-.62,3.6l-1.08,1.82a1,1,0,0,0-.76.54c-4.66.68-8.59-1.66-12.75-3.05q-4.62-5.3-9.22-10.6v.12c.26-2.26-1.05-3.67-2.68-4.91Z"/><path class="cls-1" d="M851.43,316.15c-6.49,4.73-12.81,5.52-19,6.45C810,326,788.57,321.54,767.61,314c-4-1.44-11.56-2.05-10.51-6.24,1-3.93,8.1-6.19,13.37-6.9,7.41-1,14.79.1,22.06,1.78C811.72,307,830.93,311.43,851.43,316.15Z"/><path class="cls-1" d="M222.39,215.38c1.76-2,3.54-3.93,5.27-5.93s3.7-3.22,6.4-1.74c1.86,3.56,3.64,7.16,6.35,10.19-.8,3.08,1,5.72,1.47,8.57.41,17.25-8,30.68-18.82,43-1.2,1.37-2.39,4.2-4.81,2.69-1.89-1.19-1.25-3.8-1-5.79a67.57,67.57,0,0,1,13.66-32,22.5,22.5,0,0,0,3.13-5.27c.79-2,.81-4.22-1.46-5.41s-4.1-.28-5.42,1.56c-6.62,9.24-12.57,18.83-15.47,30-1,3.93-2,7.87-3.28,13.13-6.1-16.89-1.46-30.56,7.4-43.31C218.07,221.85,220.6,218.87,222.39,215.38Z"/><path class="cls-1" d="M362.81,196.73c7.22-2.54,14.52-4.51,22.31-3.68,2.26.24,4.51.29,6.62,1.32,7.62,3.71,8.48,8.38,2.56,14.28-3.86,3.86-8,7.2-13.95,6.84-1.67-.11-3.75.31-4.33,1.89-1.72,4.67-6.43,5.42-9.72,8-5.36,2.88-10.2,3.27-14.1-2.49-2.91-4.28-7.23-7.85-6.58-13.81,3.2-.5,4.72-2.85,6-5.46Z"/><path class="cls-1" d="M192.3,326.66c10.63-6.6,20.94-8.67,30.94-11.65a48.78,48.78,0,0,1,23.87-.9,21.12,21.12,0,0,1,16.94,20.79c-.07,5.56-3.37,9.31-8.87,10.08-7.94,1.12-22.36-1.73-30.35-6.17,4.58-2.4,8.95-1.27,13.21-.52,3,.53,6.28,1.38,6.74-2.8.4-3.61-2.58-4.9-5.71-5.14-14-1.08-27.94-2.06-41.91-3.09C196.18,327.19,195.21,327,192.3,326.66Z"/><path class="cls-1" d="M251.09,362.24c11-.33,21.44,4.28,31.88,8.67,2.15.91,4.15,2.61,3.94,5.1-.55,6.38,3.73,9.12,8.23,11.84a35.1,35.1,0,0,1,5.21,3.3c1.33,1.18,5,1.18,3.43,4-1.12,2-4,.82-5.7,0-3.84-1.78-7.42-1.24-11.38-.4-7.74,1.64-15.09-1.32-22.29-3.5-11.37-3.43-21.69-8.93-29.59-18.17-4-4.71-3.48-6.85,2.21-8.88A37.83,37.83,0,0,1,251.09,362.24Z"/><path class="cls-1" d="M623.54,272.54a714,714,0,0,1,9.17-76.39c1.07-6,3.59-10,10.31-10,1.19,0,2.37-.67,3.58-.94s2.62-2.07,3.87-.53c1,1.26-.06,2.81-.64,4.05-4.88,10.44-10.27,20.67-12.63,32.1-2.22,10.72-2.52,21,7,28.86,2.77,2.29,2.18,4.39-.08,6.75-5.83,6.08-11.94,11.93-16.88,18.81-.61.85-1.38,1.9-2.46,1.35C622.94,275.65,623.6,273.74,623.54,272.54Z"/><path class="cls-1" d="M897.19,166.25l2.68-1.13a4.83,4.83,0,0,0,3.68-3.23l3.21.47,16.37,16.84,1.2,2.93a5.67,5.67,0,0,0,1.76,6.05l0,4.53c-3.86,2.48-3.63,8.23-9.51,9.71-11.35,2.84-16.62,2-24.49-6.93-.68-.76-1.47-1.41-2.21-2.12-.23-.93-.45-1.86-.67-2.79,0-.13.15-.28.12-.4a5.57,5.57,0,0,0-.3-.77l.45-8.38Z"/><path class="cls-1" d="M293.43,1313.07c4.58-8.68,4.29-52.23-.15-58.2,11.83-.69,23.36-1.78,34.68.84,13.51,3.12,20.62,13,20.93,26.86.39,17.57-12.83,30.57-30.7,30.89C310.2,1313.6,302.36,1311.12,293.43,1313.07Zm10.34-30.17h.09q0,9.88,0,19.77c0,2.6.61,4.75,3.26,6.11,11.31,5.8,29.15-1.46,32.94-13.51,6.84-21.72-8.85-40.48-31.43-37.77-3.69.44-4.94,2.17-4.89,5.62C303.83,1269.71,303.77,1276.3,303.77,1282.9Z"/><path class="cls-1" d="M531.76,427.75a11.21,11.21,0,0,1,2.19.94c4.58,3.12,9.59,2.67,14.28.91,5.08-1.9,8.56-.61,12,3.29,2.41,2.78,5.47,5,8.32,7.4s3.09,4.57.29,7.21c-7.51,7.06-14.85,14.28-21.87,21.86-3.78,4.08-5.38,0-6.29-2.82-2.91-9-5.68-18.08-8.11-27.24-.7-2.65-2-4.92-2.89-7.41C529,430.06,528.86,428.11,531.76,427.75Z"/><path class="cls-1" d="M294,329.73c-2,14.23,5.53,24.36,14.59,33.82,1.39,1.46,3.37,2.59,3.16,5-.18,2,.1,4.38-1.66,5.74s-3.5-.27-5.05-1.1c-9.25-5-18.06-10.81-28.17-14-4.7-1.48-9.53-2.56-14.28-3.89-1.18-.33-2.54-.87-2.74-2.22-.27-1.82,1.29-2.41,2.65-2.89,6.74-2.38,9.25-7.28,9.61-14.23s8.07-7.48,11.42-11.94a1,1,0,0,1,.52-.32c3.21-.7,5.68-5.35,8.6-3.72C296.08,321.91,293.28,326.43,294,329.73Z"/><path class="cls-1" d="M898.54,1255a69.25,69.25,0,0,1,24.17,0c11.75,2,15.9,15.7,7.56,25.18-4.17,4.75-3.37,7.77.08,12.16,10.87,13.83,12.57,15.65,21,19.32-7.83,2.47-13.94.46-18.9-6.06-3.5-4.59-7.25-9-10.69-13.64-2.46-3.33-5.55-4-9.26-3-3.91,1.12-3.1,4.44-3.05,7.2.1,5.34-1.95,11.34,4.87,15.24-5.33,1-9.91,1.69-14.56-.07C903.62,1302.76,903,1260.69,898.54,1255Zm29,17.66c.09-9.57-4.94-15.4-13.07-15.39-3.56,0-5.39,1.32-5.3,5.09.1,4.74-.06,9.49,0,14.24,0,3.48-.61,7.5,4.22,8.34s9.62.56,12.39-4.52A16.11,16.11,0,0,0,927.56,1272.69Z"/><path class="cls-1" d="M564.41,1311.84c-7.76,2.54-15.09.6-19.22-4.68-3.68-4.7-7.24-9.5-10.72-14.35-2.62-3.65-6.18-5-10.28-3.75-4.33,1.29-3.28,5.46-3.1,8.45.3,4.87-1.6,10.59,4.83,14-5.29.84-9.74,1.61-13.54.48a157.19,157.19,0,0,0-.47-57.17c6.61-1.38,14.32-.94,21.76.26,12.16,2,16,11.72,9.81,23.38-5.05,9.59-4.92,9.5,2.11,18.18C550.64,1302.87,555.41,1309.32,564.41,1311.84Zm-43.66-40.95h0a47.85,47.85,0,0,0,0,4.94c.37,3.62-1.28,8.21,4.66,9.16,6.71,1.07,11.61-1.2,13.27-7s1-11.45-2.69-16.44c-3.08-4.11-7.46-5.17-12.1-3.94-4.45,1.18-2.79,5.33-3.12,8.39A45,45,0,0,0,520.75,1270.89Z"/><path class="cls-1" d="M888.17,260c4.12-8.71,3-11.68-5.53-14.37-3.58-1.12-2.67-2.88-1.49-5.07,4.84-8.9,12-15.6,20.24-21.23a93.75,93.75,0,0,1,12.45-6.82c2.2-1.07,4.94-1.87,7.07-.23s.82,4.25.27,6.35c-4.23,16.28-12,30.14-26.84,39.17C892.63,258.81,891.08,260.38,888.17,260Z"/><path class="cls-1" d="M802.63,1313.59c-16.33.43-29.27-12.36-29.65-29.29s12.77-31.36,30.07-31.18c18.56.19,29.58,8.33,31.12,27.28C835.73,1299.77,822.41,1313.07,802.63,1313.59Zm23.66-29.43a29.8,29.8,0,0,0-2.11-12.76,22.39,22.39,0,0,0-20.6-15.17c-9.39-.2-16.54,4.14-20.09,12.63a32.78,32.78,0,0,0,.79,27.66c3.62,7.53,9.52,12.94,18.55,13.6,8.58.62,15.36-2.33,19.91-9.84C825.75,1295.3,826,1289.71,826.29,1284.16Z"/><path class="cls-1" d="M275.52,318.65c3-17.88,14.29-37.51,33.73-42.31,7.61-1.88,12.74.87,18,5.11,2.35,1.91,1.95,4-.24,5.68-3.42,2.66-6.62,6-10.5,7.59-12.71,5.21-22.5,15.13-34.82,20.87C279.68,316.51,277.73,317.54,275.52,318.65Z"/><path class="cls-1" d="M536.15,385.2a56.22,56.22,0,0,0,1.07-7.34c.14-8.09,5.87-9.24,12-10.45,5.72-1.12,7.47,2.92,10,6.46,6,8.61,8.69,18.62,12.08,28.33.49,1.4,1.57,3.32-.28,4.49-1.44.9-2.72-.48-3.92-1.17a51.23,51.23,0,0,1-17.63-17c-1.51-2.34-2.82-5.21-6.07-3.36-3,1.72-1.89,4.6-.61,7.09,3.19,6.22,8.65,10.38,13.65,15,2.13,2,5.09,3.76,1.95,7s-5.34.91-7.52-1.68a95.92,95.92,0,0,1-12.69-19A16,16,0,0,1,536.15,385.2Z"/><path class="cls-1" d="M757.79,345.09c-1,6.61-3.79,13.5-11.57,17.61-10.53,5.54-19.53-1.47-22.81-8.1-3.44-7,.23-15.28,8.78-19.66a91.22,91.22,0,0,1,12.45-5.26C750.92,327.56,758.11,335.31,757.79,345.09Z"/><path class="cls-1" d="M829.41,167.17c.48-1.56.93-3.13,1.44-4.68.82-2.49,2.15-4.4,5.13-4.45,3.17-.06,5.67,1,6.84,4.12,1.67,4.39,3.09,8.88,5.78,12.82,1.35,6.64,3.13,13.23,3.95,19.93,1,7.73.37,15.39-5.3,22.94-1.91-7.41.68-14.18-2.1-20.31a39.12,39.12,0,0,0-1-12c.09-3.42.51-6.9-2.29-9.62a.59.59,0,0,0-.52-.59c-1.57-2-3-1.83-4.42.21a7.94,7.94,0,0,0-.62,6.13,2.34,2.34,0,0,0,.22,2.89l1.11,8.6a3.86,3.86,0,0,0,.33,3.76l.45,3.55c-1.28,4.45-.26,8.91-.15,13.38,0,1.57.42,3.74-1.4,4.33-2.43.8-2.87-1.83-3.68-3.23-3.1-5.37-3-11.79-5.43-17.41q0-9.62.08-19.24C829.42,174.78,829,170.91,829.41,167.17Z"/><path class="cls-1" d="M738.22,646a47.71,47.71,0,0,1,10.23-20.41c7.84-9.34,17.49-16.82,27.82-23.32,1.66-1.05,3.76-2.68,5.62-1,1.64,1.5,0,3.41-.55,5.12-5.81,19.67-19.71,32.27-36.79,42.07-1.57.91-3.3,2-5.21,1.18C737.66,648.87,738.13,647.22,738.22,646Z"/><path class="cls-1" d="M379.64,241.35c1.54-2.24,1.34-4.69.89-7.18.77-2.22,1.69-4.43,3.88-1.13,9.46,14.22,15.35,29.59,14.44,47-.11,2.14-1.36,4.3-2.39,6.29-1.62,3.16-3.84,7-7.74,5.6s-8-3.31-8.73-8.59a137.82,137.82,0,0,1-.69-30.85C379.59,248.77,379.53,245.05,379.64,241.35Z"/><path class="cls-1" d="M1056.72,251.47c-.17,13.56-3.67,24.92-8.51,35.92-1.18,2.68-2.91,5.56-6.29,5-3.63-.63-3.36-4.24-3.74-7-1.73-12.47-2.68-24.93-.14-37.45a61.51,61.51,0,0,1,4.76-14c2.15-4.57,4.82-4.9,7.54-.69C1054.16,239.16,1057.54,245.37,1056.72,251.47Z"/><path class="cls-1" d="M989.61,348c-6.91.08-7.93-1.45-4.87-7.47,4.09-8,10.87-13.5,18.44-17.75,8.6-4.84,17.64-8.88,26.51-13.24,1.91-.94,3.91-1.63,5.66.29A4.34,4.34,0,0,1,1036,315C1027.64,332,1011.05,347.47,989.61,348Z"/><path class="cls-1" d="M876.66,518.72c-4.55-1.29-9.37-2.36-14-4-4-1.46-2.68-3.75-.3-5.95C869,502.64,877,498.75,885,495c10.21-4.86,21-8.32,31.88-11.34,1.31-.36,2.88-1.29,3.89.37.76,1.25-.25,2.3-1,3.3-10,13.79-22,24.92-38.64,30.22C879.74,518,878.35,518.27,876.66,518.72Z"/><path class="cls-1" d="M876.81,576.18c-5,14.26-11.15,28.14-24.62,37.18-2.83,1.89-14.52-1.65-15.72-4.6-.52-1.28.12-2.4.68-3.52,7.66-15.32,20.18-25.29,35.46-32.25C875.67,571.6,877.47,571.83,876.81,576.18Z"/><path class="cls-1" d="M1050.34,1255.72c-9,5-15.34,12.61-22.68,19-4,3.5-4.28,6.47-.3,10.21,5.42,5.08,10.58,10.45,15.74,15.8a60.4,60.4,0,0,0,15.88,11.54c-7.51,1.37-14.17-.08-19.54-5.58-5.78-5.91-11.36-12-17.06-18-1.1-1.15-2-3.24-3.84-2.65-2.2.73-1.62,3.16-1.52,4.9.44,7-1.89,14.49,3.64,20.72-3.94.75-7.95,1.12-11.27.22,1.35-19.27,3.19-38.19-1.13-57.25a25,25,0,0,1,11.55.25c-4,6-2.75,12.65-2.9,19.11,0,1.35-.41,3.17,1.41,3.71,1.29.39,2.36-.63,3.18-1.55,5.74-6.45,12.86-11.64,17.48-19.16C1041.2,1253.44,1043,1253.3,1050.34,1255.72Z"/><path class="cls-1" d="M455.93,479c-9.12-.81-18.12-3.07-27-5.73-3.31-1-4.37-3.27-2.46-6.73a49,49,0,0,0,6.29-24.26c0-3.29,1.14-4.2,4.55-3.54,7,1.34,11.31,5,12.27,11.81A47.34,47.34,0,0,0,459.16,473c1,1.39,2.85,3,1.58,4.91C459.74,479.43,457.7,478.78,455.93,479Z"/><path class="cls-1" d="M558.3,226.74c2.2,12.07.19,22.49-2.56,32.83-2,7.44-4.78,14.45-10.48,20-2.08,2-4.4,3.43-7.18,2.61-2.93-.86-2.72-3.87-3-6.25-.61-4.49-.87-9-1.52-13.51s2.5-7.32,4.55-10.51A146.43,146.43,0,0,1,558.3,226.74Z"/><path class="cls-1" d="M705.54,351.47c-.82-5.69,3.09-9.25,6-13.13a80.93,80.93,0,0,1,7.55-8.18c1-1,2.41-2.28,3.75-1s0,2.7-1,3.6a22.19,22.19,0,0,0-6.29,11.18c-3.11,11.82,3.74,23.73,15.69,27.56,7.07,2.27,7.08,2.72,3,9.15-3.54,5.58-8.52,8.75-14.71,10.48-2.53.71-4.62.56-5.38-2.34C710.85,376.43,707,364.2,705.54,351.47Z"/><path class="cls-1" d="M826.41,575.91c1.12,5.1-.47,9.17-1.31,13.33-1.74,8.47-4.77,16.5-7.63,24.65-3.77,10.72-13.35,12-21.64,15.31-2.83,1.15-2.17-2.19-1.83-3.75,1.52-7.11,4.47-13.72,7.65-20.2C805.12,598.18,819.06,581.8,826.41,575.91Z"/><path class="cls-1" d="M294.39,414.68c.46-2-2-7.21,1.84-9.14s7.13,2.5,9.92,4.9c14.15,12.15,14.53,25.52,9.57,40.24-.94,2.79-2.69,2.46-4.88,1.34-6.62-3.37-10.83-8.8-13.18-15.65A52.76,52.76,0,0,1,294.39,414.68Z"/><path class="cls-1" d="M235,271.7c-.83.21-1.89.12-1.88-.84a5,5,0,0,1,1.2-2.66,78.61,78.61,0,0,0,12-22.14c2-5.53,3.39-11,3.15-16.87-.06-1.33-.57-3.13,1.1-3.87,1.27-.56,2.32.59,3.24,1.33q9.42,7.5,18.76,15.1c3.59,2.92,1.79,5.31-.84,7.56a129.83,129.83,0,0,1-24.09,16.08C243.5,267.59,240.06,271.27,235,271.7Z"/><path class="cls-1" d="M623.9,372.64c-.9-5,1.2-9,4.77-12.13,10.24-9,20.52-17.9,32.39-24.74,1.16-.66,2.28-2.36,3.75-1.07,1.24,1.09.69,2.81.05,4.05-7.63,14.68-15.38,29.28-29.45,39.12-2.87,2-5.81,4.78-9.46,3.16S624.53,375.47,623.9,372.64Z"/><path class="cls-1" d="M188.93,221.23q-1.2,5-2.41,10a44.08,44.08,0,0,0-2.82,26.48c1.45,6.72.47,11.57-4.08,16.14-2.64,2.64-4.09,8.48-8,7.28-3.36-1-3.05-6.74-3.49-10.55a132.28,132.28,0,0,1-1.07-16.63C167.27,238.36,176.24,228.5,188.93,221.23Z"/><path class="cls-1" d="M143.69,1268c-6.61-10.43-18.13-13.89-30.35-10.24-8.07,2.41-13.7,11.59-13.94,22.72-.28,13.65,7.28,24.14,20.44,28.34,10.53,3.37,17.38.9,24.32-9.36-.36,3.17-.45,5.57-.93,7.89-.73,3.52-2.5,6-6.65,5.94-7.21-.06-14.46.52-21.63,0-8.18-.57-12.68-7.21-17.54-12.65-10.53-11.79-5.31-40.46,14.06-45.88,9.54-2.67,18.88-1.94,28.15.12C146.64,1256.41,143.46,1262.23,143.69,1268Z"/><path class="cls-1" d="M414.48,1312.06c4.33-9.2,3.69-51.52-.76-57.09,8.31-1.58,16.57-.62,24.77-.52,4.88.06,4.45,3.68,3.58,7.29-2.73-.29-3.4-3-5.71-3.66-8.6-2.43-12.29.17-12.33,9.11v.62c0,13.24,0,13.24,13.42,11.56,1.37-.17,3-1,3.9.68s.06,3.28-.77,4.67c-1.32,2.21-2.45-.09-3.55-.45-2.45-.77-4.9-.38-7.35-.56-4-.28-5.71,1.46-5.62,5.38.08,3.5-.09,7,0,10.51s-.31,7.43,3.72,9.09a13.2,13.2,0,0,0,12.95-1.24,31.61,31.61,0,0,0,3.23-2.91c.53,7.94-.29,9.15-7.23,9C429.4,1313.3,422.05,1312.57,414.48,1312.06Z"/><path class="cls-1" d="M768.45,252.53c-.83,8.25-.55,16.28-3.33,24.07-3.38,9.46-11.94,17-21.76,18-3.59.38-4.67-1.22-3.36-4.38,5.74-13.87,10-28.5,20-40.25,1.83-2.14,3-6,6.27-4.94S768.08,250.07,768.45,252.53Z"/><path class="cls-1" d="M183.5,389c-.59,7.57-2.88,14.41-8.68,19.72-7.18,6.58-13.2,6.54-19.2-.13-4.19-4.67-2.82-13,3.6-17.71a71.35,71.35,0,0,0,8.92-8.34c2.67-2.78,5.55-6.49,9.9-4.51S183.66,384.28,183.5,389Z"/><path class="cls-1" d="M400.62,446.45c-1,5,1.55,10.37,2.93,15.93.88,3.49-.55,4.28-3.39,3.52a126.42,126.42,0,0,0-37.92-4.38c-1.37.06-3.12.25-3.55-1.63-.31-1.39.84-2.28,1.81-3,5-3.84,9.45-8.38,16.47-9,5.76-.53,9-6.19,14.19-8.48C400.73,435.07,401.22,435.26,400.62,446.45Z"/><path class="cls-1" d="M963.94,402.53c6.29.66,10.26,5.29,15.31,7.68,3.08,1.45,6.85,5.82,9.51,1.06s-2.52-6.49-5.83-8.4Q972,396.53,961,390.25c-.86-.49-2.23-.64-2-2,.25-1.57,1.7-1.6,2.92-1.6,17.88,0,34.23,5.91,42.43,25.67,1.13,2.73,2.27,5.82.49,8.26s-5,1.07-7.5.35c-10.31-3-20.66-6-29.21-13C966.44,406.61,964.28,405.57,963.94,402.53Z"/><path class="cls-1" d="M1047.7,347.75c-2.94-.17-6.66,1.75-7.67-1.15s3-3.87,5.08-5.26c13.89-9.22,29.46-15.43,43.57-24.28,2.14-1.34,4.52-.86,4.49,1.93-.06,5.24.16,10.47-5.17,14.29C1075.75,342.05,1062.15,346.48,1047.7,347.75Z"/><path class="cls-1" d="M393.39,401.42c0,9.17-2.85,16.4-12.45,19.65-4.06,1.38-7.83,3.61-11.77,5.37-3.77,1.68-6.1,1.14-5.33-3.75A62.59,62.59,0,0,1,376,394.76c1.57-2.11,13.91-3.6,15.78-2.2C393.07,393.57,393.34,395,393.39,401.42Z"/><path class="cls-1" d="M1113.45,1302.34c2.16,3.24,3.57,6.67,7.85,7.5,6.5,1.28,12.36-1.31,14.38-6.65,1.87-4.92-.89-10.78-6.78-14.46-6.26-3.91-11.08-9.08-13.73-16.06-2.17-5.71-.69-12.49,3.35-15.86,4.56-3.82,15.64-5.07,20-2.3,2.87,1.83,2.56,4.38,1.64,7.8-2.91-3.88-6.47-6-11-5.92-3.46,0-6.54.93-8.09,4.53s-2,7.31,1.09,10.31c3.84,3.72,7.95,7.17,12,10.71,8.4,7.42,10.56,16.49,5.71,24.09-4.57,7.19-16.94,10.08-25.76,6.18C1107.66,1309.38,1114.45,1305.69,1113.45,1302.34Z"/><path class="cls-1" d="M201,433.14c-7.57-9.55-5.81-31.05.62-41.46,2.64-4.28,7.31-3.28,11.28-2.62,4.22.69,4.28,4.35,4.31,7.75C217.3,406.5,210.72,421.4,201,433.14Z"/><path class="cls-1" d="M134.42,393.32c.81-6.35,1.72-12.68,2.41-19a40.48,40.48,0,0,0-.22-11.73c-1.7-9.32,1.5-13.46,11-14.62,4-.48,8.89-.77,11.14,1.81,2.44,2.8-1.19,6.92-2.76,9.92-2.56,4.87-6.28,9.15-9.68,13.55-2.13,2.76-3,5.66-.79,8.5,2.78,3.63,2.47,7.1.83,11-.94,2.25-1.12,4.81-1.83,7.17-.57,1.9,1.1,5.6-2.13,5.33-3-.25-7.45-.6-7.46-5.68v-6.19Z"/><path class="cls-1" d="M467.49,383.87c1.45,6.07-1.48,11.44-7.08,16-2.83,2.31-4.86,5.58-7.43,8.24-3.22,3.33-6.9,6.68-11.66,3.21-3.77-2.76-4.22-12.71-1.06-15.89,5.65-5.7,12.82-9.61,18.48-15.38,2.48-2.53,4.76-4.53,2.92-8.4a2.34,2.34,0,0,1,1.37-3.53c1.79-.55,2.7.85,3.17,2.23C467.56,374.34,467.4,378.5,467.49,383.87Z"/><path class="cls-1" d="M358.4,252.28a48.55,48.55,0,0,1-.5,5.53c-2.46,11.95-6.64,13.68-16.27,6.56-4.67-3.46-10.23-6-11.09-13.16-.44-3.65.18-5.4,3.52-6.46,5.27-1.67,10.51-3.49,15.79-5.17,2.72-.86,4.8,0,6.21,2.56A19.9,19.9,0,0,1,358.4,252.28Z"/><path class="cls-1" d="M878.1,626.35c-18.11,11.85-37.29,17.13-60.19,10C837.55,623.67,857.66,624,878.1,626.35Z"/><path class="cls-1" d="M301.7,330.57c.34-6.14,1.41-12.14,4.84-17.56,2.39-3.77,5-3.84,8-.9a46.12,46.12,0,0,1,9.05,11.68c.57,1.1,1.55,2.44.46,3.38-7.13,6.15-4.3,15.54-7.59,22.92-.72,1.61-.25,3.93-2.65,4.35-2.13.37-3.35-1.22-4.56-2.65C304.15,345.69,302.18,338.46,301.7,330.57Z"/><path class="cls-1" d="M854.27,665.16c4.74,0,9.49,0,14.23,0,1,0,2.18,0,2.64,1.18s-.4,1.92-1.25,2.5C855,679,839.22,685,821.06,678.75c-2-.68-5.43-1.12-5.09-3.61.35-2.66,3.72-1.89,5.83-1.93,5.77-.11,11.68.73,14.49-6.42.77-2,3.54-1.79,5.61-1.81,4.12-.05,8.25,0,12.37,0Z"/><path class="cls-1" d="M802.46,204.18c-.05,12.95.06,25.91-.19,38.86-.18,9-3.06,17.34-7.57,25.11a12.68,12.68,0,0,1-2.3,2.86c-1.48,1.39-3.23,3.43-5.28,2.22s-.25-3.29.21-5c3.28-12,3.12-24.33,2.7-36.64,2.2-7.21,4.29-14.45,6.66-21.61C797.59,207.26,798.08,203.67,802.46,204.18Z"/><path class="cls-1" d="M133.17,200.71c4.9-2.51,10.07-.93,15.14-1.1,5.3-.18,10.65.08,15.79-1.94,1.75-.69,4.56-1.48,3.35,2.48-1.92,1.51-4.31,2.58-5,5.23-4.27,1.39-6.89,4.7-9.38,8.14a5.81,5.81,0,0,0-5,4.48c-2.76.1-4.2,1.72-4.91,4.2-.84-.64-1.39-.33-1.79.53-3,.37-5.29,3.1-8.57,2.48.86-1.18,1.44-2.36,0-3.52v-2.61C135,213,134.12,206.86,133.17,200.71Z"/><path class="cls-1" d="M1014.69,472.48c-4.2,1.53-7,2.6-9.89,3.6-2.38.84-4.26,2.06-3.12,4.95,1,2.6,3.28,3,5.68,2.37,5-1.34,9.89-2.88,14.86-4.26,1.46-.41,3.39-2,4.37.05.89,1.85-1.31,2.85-2.57,3.7-11.59,7.77-24.86,10.71-38.3,13.13-3.86.69-7.71,1.39-11.59,2a4.2,4.2,0,0,1-2.87-.45c-1-.75-.21-1.82.28-2.73C976.93,485,1002.09,471.41,1014.69,472.48Z"/><path class="cls-1" d="M165.87,573.7c1.35-13.61,4.29-25.38,15.51-33.34a10.52,10.52,0,0,1,9.31-1.67c3.47.87,4.87,3,3.38,6.46-5.33,12.49-14.95,21.6-24.5,30.71C167.56,577.77,165.93,576.3,165.87,573.7Z"/><path class="cls-1" d="M603.47,446.7c-.36,3,1.6,7.44-1.7,9-3.47,1.67-5.56-2.66-7.92-4.64-8.68-7.26-17.13-14.82-25.65-22.29a24,24,0,0,1-2.55-2.68c-1.93-2.32-2.41-4.72-.34-7.27s4.35-2.18,7.11-.82a164.87,164.87,0,0,1,25.11,15.73C601.91,437,605.58,440.41,603.47,446.7Z"/><path class="cls-1" d="M881.12,425.23c-5.44.07-9.45-4.83-8.93-10.91s8.79-15.54,14.73-16.86c4.49-1,7.5,1.73,10.09,4.68s3.79,6.46,2.37,10.26C897,418.89,887.86,425.14,881.12,425.23Z"/><path class="cls-1" d="M782.63,374.74c-.18-6.78-2-8.06-7.63-4.74a122.52,122.52,0,0,1-24.58,11.35c-1.75.57-3.88,1.64-5.22.08-1.77-2.07.88-3.19,1.86-4.5,6.53-8.68,15.28-14.87,23.92-21.19,1.81-1.33,3.87-1.79,5.79-.59,4.84,3,8.78,6.79,9.61,12.88.44,3.25-.29,5.73-3.85,6.6Z"/><path class="cls-1" d="M655.21,197c4.36,16,6.78,30.16.75,44.58-1.53,3.66-2.93,3.68-5.88,1.56-6.35-4.58-7-11.17-5.84-17.79C645.92,215.79,649.41,206.79,655.21,197Z"/><path class="cls-1" d="M829.63,694.5c-23,4.54-39.45-10.34-58.84-19.85C779.16,671.92,801.78,679.55,829.63,694.5Z"/><path class="cls-1" d="M396.52,329.52c-1.17,7.12-4.56,13.9-12.06,17.92-4.27,2.28-7.6.88-9.52-3.51-3.05-7-1.65-13.26,3.28-18.86,1.08-1.23,2.37-2.28,3.54-3.44,2.21-2.18,3.65-6.15,7.89-4S396.47,323.46,396.52,329.52Z"/><path class="cls-1" d="M420.54,281.57c4.31-.34,6.49.57,5.21,5.9-1.39,5.73-3,11.47-3.28,17.51-.18,4-2.49,5.43-6.34,3-4.28-2.77-8.66-5.4-13.06-8-1.29-.76-2.5-1.43-2.7-3.07-.46-3.93,8.16-14.26,12.2-14.62Z"/><path class="cls-1" d="M879.76,338.39c-.24-5,1.53-9,2.73-13.12.91-3.11,3.19-3.88,5.2-.6,5.08,8.24,9.89,16.65,13,25.82.95,2.79,1.67,6.82-2.64,7.6s-9.29,4.48-12.76-1.49C882,350.84,879.58,344.72,879.76,338.39Z"/><path class="cls-1" d="M201.43,210.29c1.46-6.18,2.65-12.43,4.44-18.51s5.94-6.95,10.4-2.39c.14.15.27.31.42.46,8.49,9,8.49,9,1.9,18.8a32.45,32.45,0,0,0-7.24,8c-3,4.4-4.53,4.34-7.11-.37C203.18,214.38,202.36,212.3,201.43,210.29Z"/><path class="cls-1" d="M134.1,544.47a19.32,19.32,0,0,1,4.56-9.87c3-3.71,7-6.37,10.7-9.22,2.95-2.25,6.13-2,9.12.12,1.17.83,2.09,2,3.29,2.76,7,4.38,7.12,4.87.34,9.7-7.06,5-15.05,8.35-23,11.66C134,551.77,134.73,547.3,134.1,544.47Z"/><path class="cls-1" d="M225.27,1311.72c-5.28.61-10,1.09-14,.16a329.48,329.48,0,0,0,.18-57.15c3.31-1.12,7.1-.6,11.84.57-4.06,3.62-3.83,7.88-3.8,12.14.09,11.16.07,22.32.17,33.47C219.73,1305.26,219.49,1309.83,225.27,1311.72Z"/><path class="cls-1" d="M509.55,327.66c-.17,2.73.12,4.12-1.16,4.86-1.58.92-2.66-.28-3.84-1.1-11.78-8.29-15.72-21.2-19.87-33.94-.86-2.66.69-3.94,3.39-3.41,4.27.83,8.12,1.91,10.56,6.39C503.59,309.57,506.37,319.41,509.55,327.66Z"/><path class="cls-1" d="M427.23,528.14c.4-7.65-1.12-15.78,5.38-22,4.14-4,6.1-3.4,8,2.07,4.44,12.7-.32,23.35-7,33.64-.86,1.32-1.81,3-3.82,2.53s-2.3-2.59-2.42-4C427,536.33,427.23,532.23,427.23,528.14Z"/><path class="cls-1" d="M134.5,334.16c-.75-5.58,1.29-8.55,6.5-9.76,6.19-1.45,12.23-3.48,18.38-5.11,2.81-.75,6.66-2.73,7.57,1.82.78,3.89.89,9.41-4.06,10.42-8.62,1.77-16.08,6.13-24.2,8.84C132,342.61,136.17,335.83,134.5,334.16Z"/><path class="cls-1" d="M273.92,417.4c.26,5.73-2.68,9.87-7,13-3.6,2.65-7.34,2.22-10.62-.94-4.8-4.63-6.06-11.06-2.69-15.56a46.76,46.76,0,0,1,7.15-7.66c4.39-3.73,7.51-.76,10.39,2.53A11.52,11.52,0,0,1,273.92,417.4Z"/><path class="cls-1" d="M1090.87,373.34c-7.36,3-15,4.14-21.78,7.8a7.82,7.82,0,0,1-6.62.42c-7.27-2.8-14.46-5.77-21.63-9.36C1057.62,369.12,1074.25,373.08,1090.87,373.34Z"/><path class="cls-1" d="M394.53,575.54a22.27,22.27,0,0,1,6.33-16.29c2.94-3.12,4.89-3.46,5.9,1.56,1.36,6.8.12,14,3.74,20.52,1.48,2.69-7.9,11.35-11.13,10.76-1.77-.32-2-1.91-2.48-3.22A37.47,37.47,0,0,1,394.53,575.54Z"/><path class="cls-1" d="M213,502.83a20.11,20.11,0,0,1-1,4.19c-1.84,4.22-4.87,4.62-7.13.68-6.08-10.58-13.91-19.93-20.53-30.12-.66-1-1.79-2.11-1-3.33.87-1.44,2.24-.57,3.23,0,8.76,5.41,17.63,10.68,23.77,19.32A13.1,13.1,0,0,1,213,502.83Z"/><path class="cls-1" d="M330.44,397.62c2.9,0,4.55-.06,6.19,0,3.34.13,3.93,1.78,2.23,4.42a138.26,138.26,0,0,0-10.3,18.85c-.58,1.31-1.17,2.87-2.95,2.65-1.44-.18-1.62-1.61-1.91-2.83-1.3-5.5-5.56-9-9-13-2.58-3-3.21-5,1.73-6.15C321.52,400.35,325.92,396.36,330.44,397.62Z"/><path class="cls-1" d="M229.29,541.33c.41,3.82-1.76,6.92-4.09,9.77-4.73,5.77-10.72,10.15-16.69,14.53-.82.6-1.73,1.38-2.77.66a2.5,2.5,0,0,1-.65-2.84,53.44,53.44,0,0,1,16.71-28.11c1.42-1.25,3.35-2.13,5.11-.91C229.15,536,229.4,538.54,229.29,541.33Z"/><path class="cls-1" d="M136.83,417.42c4.82,12.35,6.48,24,4.65,35.95-.74,4.84-.64,9.95-2.83,14.51-.78,1.63-1.8,3.75-4,3-1.88-.62-1.44-2.8-1.23-4.38,1.63-12.33.7-24.7.83-37.06C134.29,425.82,133.58,422,136.83,417.42Z"/><path class="cls-1" d="M248.39,480.44c-.78-5.34.85-11.64.9-18,0-1.21.12-2.68,1.6-3,1.17-.24,1.83.86,2.19,1.81,3.83,10.16,8.23,20.19,8.47,31.31.06,2.57.58,6.09-3.2,6.23-3.31.13-7,.07-9-3.94C247.26,490.46,248.65,486,248.39,480.44Z"/><path class="cls-1" d="M370.46,231.62c2.23.8,2.52,2.83,3,4.74-2.87,12.35-2.93,24.89-2.53,37.45.06,2,1,4.62-1.28,5.59-3.08,1.33-5.38-1.24-7.64-2.88-1.94-1.41-2.11-3.45-.9-5.51,5.63-9.63,6.86-19.64,2.62-30.14C361.07,234.24,366.73,233.61,370.46,231.62Z"/><path class="cls-1" d="M380,506.9c-2.3,9.87-7.4,17.64-15.53,23.24a62,62,0,0,1-8.69,4.68,3.15,3.15,0,0,1-4-.83,3.09,3.09,0,0,1-.18-3.51c5.78-10.93,15.61-18,24.85-25.53C378.5,503.29,379.88,504.69,380,506.9Z"/><path class="cls-1" d="M757.33,178.31c.36-2,.73-4,1.09-6l2.38-.52,6.56,10.28c1.87,7.53,3.81,15.05,3.43,22.9-.07,1.56.28,3.63-1.53,4.34s-2.85-1.22-4-2.28c-5.84-5.47-5.9-13.19-7.74-20.21a14.45,14.45,0,0,0-.21-7.47A.86.86,0,0,0,757.33,178.31Z"/><path class="cls-1" d="M240.46,555c.56-7.17,1.27-14.92,4-22.4,1.27-3.49,3.33-4.32,6.62-3.77,3.7.61,3.78,3,3.35,6A56.78,56.78,0,0,1,245.52,559c-.92,1.36-1,4.31-3.5,3.5-2-.67-1.21-3.22-1.54-5A17.1,17.1,0,0,1,240.46,555Z"/><path class="cls-1" d="M595.71,221.29c-9-9-17.76-17.17-22.4-28.54-.64-1.56-2.39-3.58-.32-4.93,1.48-1,3,.8,4.26,1.77A51.2,51.2,0,0,1,596,215.76a13.41,13.41,0,0,1,.6,3C596.63,219.3,596.23,219.86,595.71,221.29Z"/><path class="cls-1" d="M183.3,202.23c2.12-1.95,4.1-4,5.08-6.8s2.56-4.65,5.65-4.86c1.35-.1,2.56.32,2.84,1.72.63,3.12.77,6.71-2.15,8.38-4.64,2.64-5.5,6.7-5.87,11.28-5.53,2.69-10.36,6.47-16.78,11.17,3.21-6.13,4.38-11.26,8.5-14.93A7.21,7.21,0,0,0,183.3,202.23Z"/><path class="cls-1" d="M155.8,493.44c-5.88-3.2-11.05-4.3-16.19-5.53-3.16-.75-6-1.85-2.32-6,3.07-3.51,5.33-7.76,7.69-11.84,1.28-2.19,3.49-3,3.74-.52C149.52,477.55,153.6,484.56,155.8,493.44Z"/><path class="cls-1" d="M294.8,214.62c3-4.52,1.28-10.13,3.44-14.83,1.31-2.85,1.18-7.81,5.14-7.44,4.41.41,1.8,5.44,3,8.19l-3.57,17.22a3.47,3.47,0,0,0-1,3c-1.11,2.13-2.11,4.32-3.37,6.35-1.84,3-3,1.27-4.08-.74a7.51,7.51,0,0,0-.07-4.82Z"/><path class="cls-1" d="M320.93,499.5c-.28.76-.34,1.77-.86,2.19-1,.78-2-.05-2.73-.69-8.13-7-14.54-15.14-17.75-25.5-.47-1.52-.9-3.42.81-4.51,1.52-1,2.64.44,3.83,1.2C314.18,478.59,317.72,488.86,320.93,499.5Z"/><path class="cls-1" d="M881.07,292c-16.08,1.55-28.81-8.15-44.48-12,4.79-3.85,9-5.23,13.19-3.74A133.36,133.36,0,0,1,881.07,292Z"/><path class="cls-1" d="M600.39,358.38c-.54,2.85,1.64,6.21-1.49,8.17-3.51,2.2-6.19-.84-9-2.31-4.6-2.43-6.74-7-9.35-11.19-1.18-1.89-.31-3.21,1.4-3.95a20.79,20.79,0,0,1,15.06-.94C601.75,349.78,599.36,355,600.39,358.38Z"/><path class="cls-1" d="M172.29,500.22c-9.22-10.78-15.29-22.91-15.79-37.41C163.83,474.39,169.54,486.67,172.29,500.22Z"/><path class="cls-1" d="M427.36,402.11c2.29-.3,2.65,1.28,3.07,3a38.29,38.29,0,0,0,5.48,13c1.9,2.73,1.52,5.21-.16,8-2.4,4-4.91,3.59-7,.24-3.26-5.18-6.18-10.59-9-16C418.17,407.21,422.7,402.49,427.36,402.11Z"/><path class="cls-1" d="M386.65,539.79c-6.15,5.76-13.92,7.83-21.25,10.6-3.61,1.37-7.28,2.92-11.32,2.77-1.06,0-2.08-.12-2.54-1.27a2.45,2.45,0,0,1,.7-2.78C358.09,542.72,377.75,535.5,386.65,539.79Z"/><path class="cls-1" d="M202.56,279.9c.35,3.33-.79,5.21-3.65,6-4.95,1.41-9.87,3-14.86,4.27-2.77.73-5-.06-3.36-3.4,3.63-7.51,9.44-13.49,14.69-19.83,1.28-1.55,3.23-1.19,3.84.9C200.41,272,202.58,275.9,202.56,279.9Z"/><path class="cls-1" d="M947.5,528.37a86.19,86.19,0,0,1-.75,8.93c-.4,2.34.41,6-3.8,5.8-3.82-.17-6-2.5-6.58-6.17-.86-5.91.78-11.56,3.14-16.78,1.49-3.29,1.58-9.41,5.8-8.89,2.79.35,1.61,6.5,2.14,10A53.68,53.68,0,0,1,947.5,528.37Z"/><path class="cls-1" d="M451.27,514.18a46.24,46.24,0,0,0-4.16-13.77c-1.08-2.45-1.62-4.91,1-6.62,4.71-3.12,9.81-5.24,15.64-4.88,2,.12,3.72,1,1.93,3C459.64,498.5,456.27,506.72,451.27,514.18Z"/><path class="cls-1" d="M473.6,468.08a3,3,0,0,1-1.89,3.23c-2.17.76-3.3-1.2-4.5-2.52-5-5.5-7.1-12.36-8.93-19.31-.48-1.83-.33-3.91,1.85-4.65,2.36-.81,4.43,0,6,2A32.92,32.92,0,0,1,473.6,468.08Z"/><path class="cls-1" d="M193.86,230.3c1.37-2.58.65-6.05,3.42-8,5.38,10.93,1.72,21.09-2.69,31.16-.48,1.09-1.34,2.36-2.78,1.84s-1.23-2-1.3-3.19C190,244.57,192.69,237.55,193.86,230.3Z"/><path class="cls-1" d="M674.09,416.68a14,14,0,0,1-2-.12c-3.88-1-9.39-1.19-10-5.44-.29-2.15,5.86-2.4,9.15-2.93,4.46-.72,9-.93,13.3-2.54,1.31-.5,2.95-1.22,3.87.45.8,1.44-.22,2.8-1.08,3.94C683.87,414.7,678.76,416,674.09,416.68Z"/><path class="cls-1" d="M179.81,491.89c0-1.67-.15-2.83,1.12-3.22s2,.51,2.56,1.31q7.26,10.33,14.4,20.75a3.33,3.33,0,0,1,.26,4,3.84,3.84,0,0,1-4.45,1.31c-3-.92-6.32-2.18-7.47-5C183.62,504.62,181.77,497.89,179.81,491.89Z"/><path class="cls-1" d="M542,422.93c-6.24-.17-13.73-10.12-12.11-16.07.33-1.22.73-2.43,2-2.86,1.5-.5,2.21.71,3,1.68,3.32,4.43,6.36,9.07,10.42,12.9.76.71,1.6,1.54,1,2.63C545.39,422.9,543.65,422.93,542,422.93Z"/><path class="cls-1" d="M875.09,394c-.74,1.07-1.37,2.11-2.13,3-1.79,2.24-4.75,4.19-5.27,6.67-1.56,7.37-5.39,6.25-10.16,3.7-1.38-.75-3.61-.36-4.06-2.28-.55-2.34,1.72-3.08,3.16-4,4.63-3,9.36-5.88,14.07-8.77C872.74,391.09,874.11,391.75,875.09,394Z"/><path class="cls-1" d="M465.77,509.14c1.36,0,1.81,1,2.33,1.85a5.59,5.59,0,0,0,3.87,2.78c5.94,1.24,6.3,2,2.51,7-2.62,3.4-5.35,6.79-9,9.25-3.27,2.23-5.3,1.82-5.58-2.61-.3-4.79.76-9.39,1.9-13.94A6.39,6.39,0,0,1,465.77,509.14Z"/><path class="cls-1" d="M361.59,582.65c2.79-9.44,6.65-15.93,13.45-20.45,1.56-1,3.54-2.14,5.1-.81,1.84,1.58.24,3.51-.75,4.92A51.6,51.6,0,0,1,361.59,582.65Z"/><path class="cls-1" d="M335.6,349.19c.08,6.91-2.89,10.67-8.29,10.49-2.91-.09-4.93-.8-3.53-4.45a50.4,50.4,0,0,0,3.59-15.48c.08-1.51.54-3.59,2.64-3.6,1.66,0,2,1.83,2.63,3.08C334.21,342.37,335.55,345.59,335.6,349.19Z"/><path class="cls-1" d="M1077.42,386.25a33.66,33.66,0,0,1,11.93-3.13c1.54-.13,3.73-.43,4.23,1.51.59,2.31.91,4.91-.83,7-1.26,1.55-3.07,1.37-4.49.55C1084.83,390.24,1080.28,390.27,1077.42,386.25Z"/><path class="cls-1" d="M672.15,400.36c-1.75.33-2.9.61-3.34-.68s.57-1.8,1.32-2.52c2.49-2.41,5-4.8,7.4-7.31s4.5-2.14,6.79.19c3.82,3.88,3.45,5.36-1.7,7.46A35.29,35.29,0,0,1,672.15,400.36Z"/><path class="cls-1" d="M347.21,230.85c-2.33,3.27-5.95,4-9.42,4.69-2,.39-3.11-1.1-2.5-3.14,1.14-3.83,1.72-9.21,6-9.65C344.28,222.44,345.69,227.43,347.21,230.85Z"/><path class="cls-1" d="M361.92,562c-5,6.6-6.78,14.34-10.05,20.36a62.2,62.2,0,0,1-.94-12.42C351,562.06,352.64,560.73,361.92,562Z"/><path class="cls-1" d="M355.3,418.11c2.65,8.54-2.24,13.93-5.63,19.73a1.9,1.9,0,0,1-2.66.8,2.39,2.39,0,0,1-.72-2.14C348.72,430.39,350.38,423.87,355.3,418.11Z"/><path class="cls-1" d="M423,446.72c-.13,3.8.17,9.51-4,9.38-3.18-.1-2.45-6.11-2.34-9.72.09-2.62,1.4-5.18.2-7.86-.66-1.46-1.72-3.27.84-3.89,1.86-.45,3.12.86,3.81,2.45A22.27,22.27,0,0,1,423,446.72Z"/><path class="cls-1" d="M234.67,490.07c-.21,1.5.43,3.37-1.43,3.8s-2.29-1.44-2.88-2.65a38.41,38.41,0,0,1-4.2-17.2c0-1.37-.25-3.22,1.48-3.67,1.89-.49,2.23,1.38,2.73,2.64A86.89,86.89,0,0,1,234.67,490.07Z"/><path class="cls-1" d="M1079,348.53c3.47-2.34,6.49-3.23,8.59-5.59,1.1-1.23,2.7-2.13,4.39-1s1.37,2.86,1.24,4.5a3.24,3.24,0,0,1-3.13,3.23C1086.67,350,1083.21,350.44,1079,348.53Z"/><path class="cls-1" d="M394.62,552c.67-6.07,5.95-8.57,9-12.72.41-.57,1.49.23,1.74,1.11.54,1.91.45,3.77-1.25,5C401,547.69,397.79,549.81,394.62,552Z"/><path class="cls-1" d="M416.11,552.64A25.8,25.8,0,0,1,417,571.3C414.87,564.09,414.73,558.36,416.11,552.64Z"/><path class="cls-1" d="M782.53,374.63c-4.29,8.32-13.12,8.74-20.43,11.8,7-3.64,13.7-7.76,20.53-11.69Z"/><path class="cls-1" d="M1082.84,498.4c1-3,3.31-4.25,5.21-5.71,1.52-1.17,3.46-2.18,4.71.18s.46,4.6-2.1,5.51A12.53,12.53,0,0,1,1082.84,498.4Z"/><path class="cls-1" d="M417.24,525.2a21.08,21.08,0,0,1,.63,3.21c.06,2.19.58,4.47-.7,6.48a1.59,1.59,0,0,1-1.5,0c-1.63-2.16-1-4.62-.72-7C415.06,526.93,415.27,525.9,417.24,525.2Z"/><path class="cls-1" d="M134.76,517.86c.26-2.35.34-4.67,3.25-4.37,2.09.21,4.3,1.35,4.12,3.63-.21,2.63-2.64,4.22-5,4.45C134.44,521.82,135.13,519.18,134.76,517.86Z"/><path class="cls-1" d="M179.2,484.71c-.18.29-.37.57-.56.85-.27-.2-.71-.36-.76-.61s.31-.56.49-.84Z"/><path class="cls-1" d="M132.71,219.08v0Z"/><path class="cls-1" d="M237.48.7c12.6,0,25.2.07,37.8,0a10.53,10.53,0,0,1,8.31,3.16c12.1,12.19,26.7,19.13,44,20.32,2,.14,4.81-.45,5.39,1.93.68,2.78-2.41,3.32-4.2,4.56-4.45,3.08-9.39,5.15-14.25,7.45-3.14,1.49-4.92.71-6.52-2.18-7.84-14.17-20.48-20.33-36.12-21.06-7-.33-14-.25-21-.14-3.12.05-6.38.53-7.78,4-1.23,3,1,5,2.58,7.14C251,33.09,258.21,38.18,265.67,43c2,1.32,5.19,2.47,5.16,4.88s-3.54,2.15-5.48,3.08c-13,6.24-23.15,14.83-26.92,29.56-.76,3-1.56,8.3-7.19,3.38-2.84-2.48-5.62.23-7.15,2.67C215.73,99.86,209.58,114,209.21,130c-.18,7.62-1.31,8.37-8.25,5-11.81-5.78-16.45-20.71-10.11-31.95,4.36-7.75,8-15.83,9.69-24.65a17.21,17.21,0,0,1,7.94-11.8c12.69-8.48,19.31-20.62,18.62-36.2-.26-5.89-3.86-8.21-9.18-5.58C207.4,30,196.71,35,188.25,43.52c-1,1-1.89,2.75-3.47,2.12-2-.8-1.23-2.91-1-4.41,1.83-12,3.93-24,8-35.56,1.4-3.95,3.52-4.95,7.27-4.91,12.81.12,25.61.05,38.42.05Z"/><path class="cls-1" d="M788.93,93.69c-1.75,10.35,1.35,18.21,8,21,6.86,2.85,15.77,0,20.26-6.52,3.43-5,2.31-13.81-2.4-19-5.44-6-12.66-6-23.17-.29a157.67,157.67,0,0,1,21.07-24.22c1.78-1.63,2.73-.2,3.51,1.65C822.49,81.35,831.91,86.83,848,84.9c9.08-1.1,15.9-7.5,16.72-16.44.7-7.67.32-15.2-5-21.72-3-3.68-1.79-5.74,2.92-6.53,10-1.69,18,3.45,26.1,7.82,2.76,1.48,2.29,4.7,2.42,7.3.37,7.62.65,15.22,1.54,22.84a48.55,48.55,0,0,0,13.13,28c2.62,2.83,2.37,5.11-.74,6.21-9.55,3.36-18.39,8.29-29,12.7,4.81-10,8.09-19.36,9.46-29.3.36-2.62,1.85-5.61-.83-7.42s-4.46,1.06-6.53,2.22c-9,5.07-18.18,9.82-26.93,15.29-10.34,6.47-20.61,13.29-23.23,26.62-.6,3.06-2.68,3.57-5.43,3.84-21.54,2.18-43.19,3.85-63.59,12.09-1.7.68-3.72,1.36-5.23-.22-1-1-.11-2.38.46-3.46a317.25,317.25,0,0,1,33-50.67C787.44,93.87,788,93.91,788.93,93.69Z"/><path class="cls-1" d="M507.8,48.35c.35-3.46-.85-6.78-4.69-9.24-2.55-1.63-4.55-3.92-.71-6.76,2.59-1.91,3.1-1.59,5.23,1.27,8.91,12,4.1,24.92,3.54,37.51-.3,6.57-2.11,13.05-2.14,19.7,0,3.88-1.73,4.3-4.55,2-4.64-3.75-8.79-8-13.42-11.81-23.14-19-50-31.08-77.15-42.61C405.76,35,397.44,31.91,389.6,27.7c-2.61-1.41-3.34-2.78-1.49-5.26,3.74-5,4.51-11,5.09-17,.35-3.53,1.68-4.7,5-4.65,5.31.08,9.72.38,14.22,4.94,15.94,16.17,35.84,25.48,58,29.79,4,.78,5.79,2.83,4.45,6.34-2,5.35-1.06,10.58-.55,15.89.47,5,2.22,9.62,7.12,11.51,5.42,2.08,11.07,1.71,15.81-2.2C502.92,62.42,508.07,57.33,507.8,48.35Z"/><path class="cls-1" d="M764.56,84.91c-2.12-4.87-.31-9.48-2.37-13.44C757.4,62.25,750.87,54.89,741,50.91c-3.76-1.51-5.5-3.88-3.26-8.22a17.66,17.66,0,0,0,1.09-13.87c-1.34-4.13,0-4.81,3.77-3.68,12.53,3.71,25.15,3.4,38,1.21C794.2,24,804.91,17.64,811.76,5.49c2-3.57,4.58-4.8,8.49-4.71,6.6.16,13.21-.11,19.81-.07,1.75,0,4.3-.72,4.93,1.4s-1.84,3-3.18,4.16C822,23.44,802.36,40.74,785.22,60.66c-5,5.78-9.68,11.8-14.58,17.65C768.84,80.45,766.85,82.43,764.56,84.91Z"/><path class="cls-1" d="M336.21,46.05c3.9-4.73,8.28-7.41,12.71-9.91,2.27-1.29,14.8,4,16.06,6.39.85,1.59,0,2.73-.81,4-5.66,9-7.5,19.19-7.91,29.56-.19,4.71-2.34,6.94-6.21,8.85-13.31,6.58-26.49,13.41-39.73,20.11-4.08,2.06-7.28,4.6-7.33,9.76,0,5.56,3.15,8.88,7.67,11,5.16,2.39,9.59-1,14-2.88,7.37-3.13,14.93-6,21.66-10.49,1.45-1,3.51-2,4.87.24.94,1.57,0,2.91-1.52,3.46-16,5.91-30.77,13.79-42.2,29-1-5.46-1.6-9.24-2.4-13-1.24-5.76-3.27-6.66-8-3.07-8.8,6.61-16.56,14.21-22.23,23.84-1.55,2.63-2.89,7.48-6.2,6.54-3-.84-1.06-5.5-1.27-8.48-.31-4.29.13-8.66-2.12-12.66-2.1-3.73.55-6.27,2.61-8.78,7.14-8.67,15.78-15.62,25.11-21.77,13.63-9,27.24-18,36.56-31.89,2.17-3.24,4.65-2.18,7.58-1.32,7.27,2.13,15-.85,18.37-6.71,2.74-4.73,1-13.53-3.47-18.31C347.81,45,342.3,46.94,336.21,46.05Z"/><path class="cls-1" d="M1017,52.79c-1.3-17.23-6.61-32.39-17.15-45.54-2.17-2.71-4.32-6-8.6-4.65-4,1.27-5.07,4.69-6.12,8.51-2.93,10.74-2.86,21.66-2.62,32.59.12,5-1.64,6-5.87,3.83a77.35,77.35,0,0,0-30.27-8.15c-1.66-.12-3.52-.31-4.3-2-1-2.21,1.34-2.55,2.4-3.65A50.94,50.94,0,0,0,957.66,9C959.1,2.59,962,.36,968.71.61c14,.53,28,.24,42.07,0,5.46-.09,6.59,1.8,5.65,7.11-1.92,10.78-3.25,21.84,1.77,32.17C1020.5,44.61,1017.88,48.2,1017,52.79Z"/><path class="cls-1" d="M607,27.79a81.06,81.06,0,0,1,4.38-22.87c.61-1.75,1.38-3.71,3.8-3.31,2.15.36,2,2.35,2.25,3.93,1.05,5.45,1.47,11,3.38,16.31,3.27,9.18,8.05,17.11,15.93,23,2.8,2.1,5.75,4.06,5.31,8.37A3.8,3.8,0,0,0,644.78,57c5.25,1.77,4.15,5.13,2.63,8.89-2.95,7.26-5.73,14.58-8.61,21.87-.51,1.3-.72,3-2.67,2.91-1.42-.09-1.91-1.4-2.5-2.48C627,76.1,618.71,65,611.49,53.23,606.62,45.3,608.82,35.53,607,27.79Z"/><path class="cls-1" d="M172.25,60.78c-1.27,10.93-1.49,22.4-6.9,32.85-1,2-1.74,3.91-4.5,2.65-2.2-1-3.17-2.64-2.19-5C164.13,78,158.6,67.21,150.9,57a56.27,56.27,0,0,0-8.1-9.35c-6.78-5.76-9-12.83-7.86-21.43.81-6,.2-11.94,0-17.93-.14-3.51.27-7,5.33-7.46s5.86,2.5,6.39,6.25c2.37,16.65,10.18,30.3,22.93,41.16C173.62,51.68,171.47,56.29,172.25,60.78Z"/><path class="cls-1" d="M1093.07,84.69c0,8.86.12,17.72,0,26.58-.14,8.56-4.74,12.72-13.37,11.78-3.61-.4-7.13-1.85-10.65-3-2.24-.71-1.71-2.42-1.17-4.08,5-15.38,4.44-31.29,4.21-47.13,0-3.27.61-5.45,3.31-7.29,4.07-2.78,7.91-5.91,12-8.72,1.26-.87,2.56-2.66,4.3-1.73S1093,54,1093,55.63c0,9.69,0,19.37,0,29.06Z"/><path class="cls-1" d="M1025,190.24c-6.77.74-11.62-4-17.06-6.52-14-6.56-27.16-14.58-40.16-22.92-1.4-.9-2.82-2.08-2.91-3.8s1.64-1.54,2.79-1.69c16.57-2.09,33.12-4.31,49.71-6.15,7.79-.86,7.9.15,6.38,7.39-2.14,10.19-4.08,20.62,1,30.69Z"/><path class="cls-1" d="M448.1.8c4.74,0,9.5.3,14.21-.08,6.43-.51,12.12.37,16.95,5.22,2.83,2.85,6.4,2.8,9.41-.09,2.32-2.24,4.1-1.35,5.66.66a70.19,70.19,0,0,1,6.43,9c2.22,4-3.2,10.3-9.63,11.59-14.19,2.85-27.46-.67-40.26-6.23-9-3.93-17.94-8.34-25.49-14.9-1.29-1.12-3.68-2.12-2.82-4.24.72-1.73,2.95-.91,4.52-.92C434.08.78,441.09.81,448.1.8Z"/><path class="cls-1" d="M429.41,71.12a92.23,92.23,0,0,1,19.37,9.29c1.63,1,.92,2.2-.06,3.6-9.17,13.16-15.81,27.76-23.51,41.75-.87,1.58-1.09,4.15-3.19,4s-2.3-2.76-2.66-4.41c-3-13.68-8.19-26.27-17.49-36.95-1.22-1.4-1.74-2.94.42-4q12.91-6.59,25.84-13.11A4.44,4.44,0,0,1,429.41,71.12Z"/><path class="cls-1" d="M272.34,111.53c4.51-18.07,9.89-34.17,20.16-48.14,3.94-5.35,10.76-5.76,16.58-7.44,3.77-1.09,7.4-2.44,11.08-3.75,5.33-1.88,8.39.68,7.34,6.42-1.22,6.66-5.25,12-9,17.42-7.67,11-19.5,16.89-30.09,24.3Z"/><path class="cls-1" d="M134.54,174.08c0-1.45.09-2.9,0-4.33-.42-5.57,1.47-7.95,7.69-8.17,13.3-.49,26.33-2.78,36.8-12.22,2.23-2,4.31-1.93,6.59,0,4.27,3.59,8.39,7.16,11.16,12.25,1.86,3.42,1.29,4.53-2.18,5.67-15.29,5-30.51,10.27-45.76,15.43-.38.13-.81.16-1.2.28C135.12,186.77,135.12,186.77,134.54,174.08Z"/><path class="cls-1" d="M641.53,151.2c3-3.66,3.08-8.28,4.14-12.58h0c3.38-10.11,6.94-20.16,10.05-30.36,1.31-4.28,3.51-6,8-5.78a139.7,139.7,0,0,0,14.17-.26c3.42-.17,5.13,1,4.55,4.64a4.74,4.74,0,0,0-.15,1.22c1.74,13.57-4.74,23-15.23,30.44a3.86,3.86,0,0,0-2.47,2.69c-7.27,2.25-12.33,7.67-17.7,12.56-1.72,1.57-3.23,3-5.61,3.23Q641.4,154.1,641.53,151.2Z"/><path class="cls-1" d="M217.29,132.75A74.8,74.8,0,0,1,227,98.6c1.91-3.44,4.07-3.85,6.75-1,13.72,14.67,20.22,33.58,8.26,53.5-1.91,3.18-3.53,6.53-5.55,9.63-.81,1.24-1.27,3.59-3.37,3.05s-2.28-2.88-2.32-4.64a78.84,78.84,0,0,1,2.43-21.46c1.36-5.31,2.5-10.86,5.52-15.7,1.41-2.25,1.82-5-.87-6.54s-4.65.46-5.92,2.73c-4.6,8.22-6.79,17.21-8.17,26.44-.26,1.69.51,4.43-1.92,4.59-2.08.13-2.42-2.53-3-4.2A38.73,38.73,0,0,1,217.29,132.75Z"/><path class="cls-1" d="M691.89,34.53c-.45-8.83,5.66-14.81,8-22.17.77-2.39,4.48-1.77,6.77-.94,6.8,2.45,13.08,5.8,18.23,11.07,8.74,8.93,8,17.41-3.11,22.49a27.73,27.73,0,0,1-22.71.66C694.36,43.61,690.84,40,691.89,34.53Z"/><path class="cls-1" d="M918.13,98.3c.73-7.18,1.4-14.36,2.23-21.53.43-3.79,1.88-6.5,6.48-4.51a6.75,6.75,0,0,0,1.2.27c4.23.91,9.83-1.29,12.5,1.61s-1.88,7.42-1.69,11.49c.33,6.86,3.43,12.55,9.08,16,3.93,2.42,1.94,3.54.11,5.28A81.89,81.89,0,0,0,929,134.1c-.67,1.57-1.21,4.33-3.65,2.82-1.86-1.15,0-3,.83-4.26A80.27,80.27,0,0,0,938,103c.38-2.14.74-4.21-1.32-5.58s-4.33-.67-6.3.74-4,2.91-6.06,4.29c-1.56,1.06-3.32,2.12-5.15.93S917.75,100.11,918.13,98.3Z"/><path class="cls-1" d="M669.12,94.17c-6,.15-7.5-1.6-5.45-6,1.72-3.73,3.24-7.56,4.61-11.43a6.41,6.41,0,0,1,4.18-4.15c14.53-5.5,29.84-7.54,45-10.06,4.23-.7,4.78,2.27,2.84,5-6.64,9.16-14.69,16.63-26.47,18.35a12.28,12.28,0,0,0-6.91,3C681.56,93.45,674.2,92.54,669.12,94.17Z"/><path class="cls-1" d="M857.38,23.88c7.32-5.69,13.55-9.95,19.08-15C883.29,2.73,890.74.24,900.05.62c16.16.65,32.37.18,48.62.81-9.11,1.75-18.18,3.73-27.33,5.2-11.83,1.9-22.83,5.51-31.7,13.93-3.45,3.27-7.75,2.23-11.7,2.94A65.88,65.88,0,0,1,857.38,23.88Z"/><path class="cls-1" d="M949.13,136.13c-3.45.13-8.22,1.88-10-.79-2.13-3.25,1.84-6.59,3.74-9.65,7.27-11.74,18.43-19.06,29.77-26.17a22.09,22.09,0,0,1,2.53-1.76c2.17-.92,3.8-4.64,6.23-2.88,3,2.15.7,5.76-.52,7.86-5.28,9.11-9.46,18.75-14.26,28.08-1.53,3-4.14,4-7,4.36C956.14,135.66,952.63,135.83,949.13,136.13Z"/><path class="cls-1" d="M412.5,140.5c-1.43,6.14-2.05,13.55-4.92,20.47-1.93,4.69-4.13,4.22-7,.78a36.24,36.24,0,0,1-7.82-16c-2.92-13.91-3.61-27.8,2.46-41.25,2-4.51,4.09-4,6.37-.24C408.14,115.05,411.61,126.8,412.5,140.5Z"/><path class="cls-1" d="M313.16,159.75c-1-6.22,1.48-10.55,5.46-14.7a70.47,70.47,0,0,1,23.53-16.56c1.49-.62,3-1.9,4.61-.76s.93,3,.59,4.55c-1.48,6.62-2.52,13.43-4.84,19.77-2.44,6.7-9.2,9.63-14.64,13.59a28.56,28.56,0,0,1-4.27,2.44c-2.85,1.39-5.12,5.78-8.25,4.14-2.83-1.49-1.59-6-2.15-9.14A17.06,17.06,0,0,1,313.16,159.75Z"/><path class="cls-1" d="M1083.51,41.66c-15.94,12.43-31.7,24.88-53.21,24.85-1.77,0-4.1.82-5.08-1.22-1.12-2.29,1-3.73,2.33-5.24,1.9-2.17,3.76-4.39,5.78-6.44,5.44-5.51,11.37-9.61,19.44-11.19A87.65,87.65,0,0,1,1083.51,41.66Z"/><path class="cls-1" d="M735.14,115.63c-1.17,2.2-.43,4.27,1.9,6.46,2.15,2-.84,11.87-3.67,12.93-2.35.88-2.85-1.26-3.5-2.57-6.14-12.41-15.48-22.3-25.06-32-2.59-2.62-2.62-5.18.17-7.41,5.63-4.49,12-8,17.1-13.24,2.43-2.53,2.94.24,3,2.16.21,4.94-.16,9.87,1.36,14.74,1.66,5.32,2.54,10.92,7.58,14.46C735.24,112,735.94,113.37,735.14,115.63Z"/><path class="cls-1" d="M573.67,34.93c-10.81-5.46-20.4-8.32-30.67-8.47-3.26-.05-4.92-1.8-5.19-4.94a37.08,37.08,0,0,1-.17-4.94c.89-18.87,1-15.75,18.77-15.71a4.36,4.36,0,0,1,4.43,2.76C564.87,13.48,568.91,23.33,573.67,34.93Z"/><path class="cls-1" d="M971.24,210.4c1.71,17.76-9.81,28.81-20.56,40.17-2.29,2.42-4.71,7.56-7.47,6.14-3.67-1.87-.53-6.63,0-10.11a89.5,89.5,0,0,1,20.25-44.88l2.12-1.7c3,1.26,3.85,4.21,5.26,6.72Z"/><path class="cls-1" d="M874.93,135.7c15.88-10.91,32.82-17.48,49-25.53.91-.46,2.12-1.08,2.74,0a3.92,3.92,0,0,1-.07,2.91c-3.05,8.09-6.19,16.14-12.54,22.4a6.66,6.66,0,0,1-4.88,2.31C898.1,137.42,887,138.33,874.93,135.7Z"/><path class="cls-1" d="M842.12,76.72c-5.51.41-10-3.23-14.66-6.07-2.68-1.63-2.88-5-2.36-7.88,1.43-7.83,7.53-12.44,12.66-17.68a3.14,3.14,0,0,1,1.75-.51c5-.62,14.62,7.57,16.57,14.08,2.07,6.94-1.15,14.35-7.42,17.17A13.8,13.8,0,0,1,842.12,76.72Z"/><path class="cls-1" d="M733.34,76.48c.23-4.32.23-8.66.76-12.94.51-4.12,3.34-5.42,6.65-3.18,16.85,11.44,17.48,29,5.69,43.78-2,2.52-4.25,1.42-6.46-.3C734.41,99.47,734.65,93,733.71,87c-.53-3.41-.09-7-.09-10.48Z"/><path class="cls-1" d="M279.64,66.24c-10.95,20-14.41,42.56-22.56,63.41-1.09,2.78-.12,5.21.63,7.79a3.24,3.24,0,0,1-1.41,3.78,1.71,1.71,0,0,1-1.66-.08c-1-1-.43-2.28-.28-3.48,1.65-13,.56-25.49-7.46-36.53-1.86-2.57-1.14-4.81,1.22-6.38A146.29,146.29,0,0,0,279.64,66.24Z"/><path class="cls-1" d="M1049.15,74.33c-1.12,5.46-5.1,8.23-7.66,11.8-7.61,10.6-12.79,22-14.17,35.09-.45,4.29-6.19,7.05-9.91,5-2.74-1.52-1.2-3.52-.34-5.3,3.67-7.59,7.95-14.9,10.35-23.08a38.26,38.26,0,0,0,1.83-10.32c.09-6.58-2.34-8.51-8.87-6.87-2.19.55-4.28,1.5-6.43,2.23-1.94.67-3.91,1.29-5.9,1.94,4.08-9.11,6.19-10,15.83-8,6,1.25,11.88-.06,17.74-1.36C1043.81,74.93,1046.08,74.76,1049.15,74.33Z"/><path class="cls-1" d="M1062.85,75c-.56,14.71,2.49,28.41-5.48,40.81-2.49,3.89-13.2,8.13-17.47,6.8-2.31-.72-2.3-2.3-2.28-4.35.06-7.08,2.53-13.31,6.26-19.13C1049.17,90.93,1054.52,82.72,1062.85,75Z"/><path class="cls-1" d="M380.8,153.92c-.17,5.42-.49,11.37-2.59,17.07-.49,1.33-.5,3.07-2.14,3.5s-2.56-1.16-3.29-2.3c-4-6.23-8.19-12.36-10.59-19.44a16.83,16.83,0,0,1,0-12.1c1.46-3.52,1.78-7.15,2.14-10.84.22-2.28.93-4.69,3.24-5.59s3.9,1.34,5,2.78C378.67,134.69,381.81,143.41,380.8,153.92Z"/><path class="cls-1" d="M449.3,103.52A173.41,173.41,0,0,1,446.63,131c-.86,4.61-1.43,9.3-3.44,13.75-1.75,3.87-2.93,7.39-7.87,8.44-3.25.68-3.41,3.67-2.25,6.56.49,1.22.6,2.57-.91,3.13a2.25,2.25,0,0,1-2.9-1.65c-2.56-7-6.7-13.66-1.93-21.68,6-10.08,11.2-20.65,16.81-31C445.1,106.79,445.86,104.74,449.3,103.52Z"/><path class="cls-1" d="M570.47,56.87c-11.31-1.17-21.93-3.89-31-11.19-3.07-2.49-3.4-5.65-2.24-8.91s4-2,6.4-1.8c11.35,1,21.83,4,30.28,12.19,2.22,2.14,5.71,4.31,4.71,7.37C577.51,58.11,573.15,55.61,570.47,56.87Z"/><path class="cls-1" d="M988.92,125.13c1.49-12.15,8.74-20.58,18.1-27.55a82.22,82.22,0,0,1,7.32-4.57c1.08-.64,2.38-1.15,3.51-.36s.69,2.24.39,3.41c-3.55,13.79-10.44,25.34-22.52,33.39-1.67,1.11-3.43,1.56-5.25.62C988.39,129,988.76,127,988.92,125.13Z"/><path class="cls-1" d="M654.87.81c2.48,0,5-.05,7.43,0,8.75.21,13.52,8.55,9.12,15.91-2.54,4.24-5.09,8.48-7.58,12.75-1.1,1.9-2.18,3.55-3.6.34-4-9.19-10.35-16.81-16.62-24.48-.8-1-2.41-2.17-1.42-3.75.87-1.39,2.6-.94,4-1,2.89-.06,5.78,0,8.67,0Z"/><path class="cls-1" d="M625.56,7.17c-.18-2.33-.77-4.3,1.17-5,1.7-.66,2.35,1.3,3.32,2.24,9.54,9.25,17.34,19.88,24.48,31,1.33,2.09,1.69,4.48.3,6.41-1.65,2.3-4.21,1.39-6.18.32-9.56-5.19-17.23-12.26-20.1-23.13C627.46,14.85,625,11,625.56,7.17Z"/><path class="cls-1" d="M930.63,63.76c7.9-5.12,8.54-9.46,2-15.63,5.94-1.91,11.69-.88,17.22,0,5.86.94,11.56,3,17.31,4.57,1.3.36,3.24.31,3.17,2.27s-1.83,2.69-3.27,3.4C955.52,64.09,943.66,67.55,930.63,63.76Z"/><path class="cls-1" d="M1081.05.87c3.4.74,8.63-2.37,10.41,2.16,1.59,4.05-2.9,7-5.47,9.64-7.22,7.45-16.81,10.91-26.33,14.32-1.11.4-2.62.61-3.46-.53s.18-2.3,1-3.2A29.81,29.81,0,0,0,1063.5,12C1066.18,2.9,1071.32-1.29,1081.05.87Z"/><path class="cls-1" d="M785.56,1.24c3.5,0,7-.05,10.5,0,1.62,0,3.52,0,4.17,1.9s-.8,3-1.86,4.29c-2.61,3.1-6.11,5-9.7,6.42-11.75,4.79-23.88,5.26-36.2,2.61-1.05-.23-2.06-.69-2.11-1.89-.08-1.92,1.39-3.12,2.79-3.78,8.45-4,16.23-9.86,26.23-9.66,2.06,0,4.12,0,6.18,0Z"/><path class="cls-1" d="M1005.78,52.23c.06,4.55-.18,9.06-2.26,13.24-.53,1.08-1,2.59-2.45,2.26a3.46,3.46,0,0,1-2-2c-4.73-13.46-8.65-27-5.45-41.55.29-1.33,0-3.2,2-3.27,1.35,0,1.94,1.35,2.51,2.44C1002.82,32.38,1005.74,41.93,1005.78,52.23Z"/><path class="cls-1" d="M268.11,23.47c9.76,1.36,19.87,3.34,27.38,11.42,1.68,1.81,4.38,4.12,2.78,7-1.41,2.52-4.84,2.88-7.29,2.29-11.7-2.78-21.47-9.2-30.18-17.3-1.65-1.53-.55-2.66,1.17-3A59.43,59.43,0,0,1,268.11,23.47Z"/><path class="cls-1" d="M1030.43,171.61c.38-3.7.75-7.6,1.18-11.49.19-1.72.68-3.23,2.8-3.5,5.65-.72,14.5,8.44,13.08,13.94-1.11,4.31-1.28,9-4.64,12.61-2.32,2.5-4.85,3.76-8.22,3.08-3.64-.74-3.2-3.86-3.55-6.4S1030.65,174.51,1030.43,171.61Z"/><path class="cls-1" d="M389.31,161.44c4.65,5.15,8.26,10.36,13.36,14.11,3.48,2.55,6.67,5.94,10.93,6.72,7.3,1.34,9.77,6.62,11.8,12.56.52,1.5,1.59,3.32.07,4.6s-3.12-.24-4.34-1.2q-12.84-10.08-25.57-20.29c-1-.76-1.71-2.06-2.78-2.39C385.31,173.21,386.72,168.19,389.31,161.44Z"/><path class="cls-1" d="M142.23,152.84c-2.52-.55-6.71,1.95-7.55-2.58-.79-4.3.82-7.72,5.64-9.66,7.6-3.08,15.14-4,23-1.63,2.53.78,5.53,2.25,5.65,5.07s-3.12,3.46-5.36,4.37A62.2,62.2,0,0,1,142.23,152.84Z"/><path class="cls-1" d="M135.14,114.38a26.84,26.84,0,0,1,0-3.7c.44-2.93-1-8.41,1.48-8.26,3.83.22,8.91-.58,11.92,4.25a102.48,102.48,0,0,0,12.62,16.69c.84.88,1.73,2,1.06,3.3s-2.14.9-3.29.65c-6.13-1.29-11.85.66-17.51,2.41-3.81,1.18-5.59,0-5.94-3.63-.37-3.89-.44-7.8-.65-11.7Z"/><path class="cls-1" d="M258.44,152.23c3.14,14.76,3.91,27.7-.4,40.62-.55,1.64-1.53,3-3.54,2.89s-2.91-1.44-3.65-3c-1.95-4.09-1.45-8.53-1.45-12.82A44.59,44.59,0,0,1,258.44,152.23Z"/><path class="cls-1" d="M983,58c2.09-.4,2.27,1,2.67,2.14,1.68,4.85,3.5,9.64,5.46,14.41,2.6,6.31-4.4,5.56-7,8-2.42,2.22-4.55,1-5.73-1.9a28.87,28.87,0,0,0-7-10.79c-1-.9-2-2.24-.76-3.14C974.71,63.56,979,60.75,983,58Z"/><path class="cls-1" d="M462.48,183.25c.23,4.28-1,8-5,9.82-3.26,1.45-6.3,0-9.05-2.29-3.85-3.24-3.77-7.51-2.36-11.3,1.67-4.51,4.33-11,9.41-10C461.42,170.62,461.92,177.66,462.48,183.25Z"/><path class="cls-1" d="M1093.91,155.35c-9.82,3.67-18,9.21-27.7,3.25-1.94-1.19-4.25-2.19-4-4.95.29-2.6,2.67-2.75,4.64-3.31C1076.24,147.67,1084.61,150.07,1093.91,155.35Z"/><path class="cls-1" d="M369.48,109.55c.72-5.24,2.08-10,7.64-12.34,2.8-1.19,5.34-3,8.06-4.4,1.12-.58,2.44-.76,3.37.4a2.6,2.6,0,0,1,0,2.9c-3.45,6.89-4.66,14.34-5.5,21.89-.15,1.43-.21,3-2.33,2.87C378,120.73,369.5,112.15,369.48,109.55Z"/><path class="cls-1" d="M135.38,54.47a49.91,49.91,0,0,1,15.77,22.62c1.12,3.25.67,7-2.58,8.81-3,1.66-5.39-1.35-6.31-3.54C138.71,73.91,137.08,64.94,135.38,54.47Z"/><path class="cls-1" d="M482.42,51.42c-.09-5.79,2.25-8.55,7.32-8.39,4.75.15,8.51,2.27,9.53,7.06.83,3.9-7.1,11.52-11.35,11.5C484.26,61.58,482.52,58.36,482.42,51.42Z"/><path class="cls-1" d="M383.28,8.54c-.07,2.63-1.61,6.38-4.44,9.51-2.3,2.54-5.19,2.21-7.9.76s-2.63-3.92-1.79-6.43c.91-2.72,2-5.38,2.93-8.08C373.44.39,376.7.75,379.75,1,383.6,1.23,383.33,4.18,383.28,8.54Z"/><path class="cls-1" d="M303.71.65c7.54,0,13.59,3.71,19.85,6.73,1.47.71,2.87,2,2.09,3.94-.64,1.59-2.25,1.52-3.72,1.49-8.63-.15-15.38-5.17-22.67-8.79-.53-.26-1.15-1.62-.93-2C299.71,0,302,.9,303.71.65Z"/><path class="cls-1" d="M911.17,76.94c-.45,3.67-.79,7.37-1.38,11-.23,1.49,0,3.75-2.31,3.75-1.82,0-2.78-1.71-3.35-3.26-2.3-6.24-3.89-12.79-3.45-19.34.24-3.51-2.51-8.06,1.73-10.66,1.55-1,9,10.43,8.86,13.52-.07,1.65-.25,3.29-.38,4.93Z"/><path class="cls-1" d="M1092.91,208.21c-.72,3.94,1.73,9.32-4.8,10.36a6.71,6.71,0,0,1-7.57-3.95c-1.92-3.74-3.78-7.08.21-10.93,2.77-2.68,5.45-5.69,9.39-4.5C1094.87,200.61,1091.94,205.18,1092.91,208.21Z"/><path class="cls-1" d="M166.39,29.61c-5.68-7.26-8.51-13.84-9-21.36-.1-1.39-.56-3.13,1.09-3.83,1.86-.8,3.09.63,4,2C167.12,12.91,168.38,20.07,166.39,29.61Z"/><path class="cls-1" d="M1036.65,8.49c.11-6.83,6.91-10.34,11.74-7.5,1.66,1,1.39,2.33.79,3.75-2,4.55-3.89,9.1-5.89,13.63-.5,1.13-1.18,2.39-2.58,2.36-1.61,0-1.72-1.59-2-2.75C1037.88,14.37,1037.14,10.74,1036.65,8.49Z"/><path class="cls-1" d="M401.2,58.28c-5.34,2.84-9.59,5.12-13.85,7.37-3.12,1.64-4.15.43-3.68-2.76s-.88-7.88,3.13-9.22C391.83,52,395.89,55.55,401.2,58.28Z"/><path class="cls-1" d="M698.59,56c-6.68,2.58-13,2.38-18.75,4.68-2.3.92-3.46-.72-2.52-3.19a12.55,12.55,0,0,1,1.35-2.78c2.16-3,1.47-8.55,4.87-9.58,4.07-1.23,4.39,4.91,7.56,6.79C693.2,53.18,695.42,54.2,698.59,56Z"/><path class="cls-1" d="M342.84.69c5.51,0,9.8,0,14.08,0,2,0,3.61.86,3.8,3.2s-.16,4.62-1.86,6.29-3.5.48-5-.62C350.48,7,346.36,5.4,342.84.69Z"/><path class="cls-1" d="M366.59,73.51c-.14-9.69,3.05-16.8,7.15-24.22C376.3,55.83,373.37,66.13,366.59,73.51Z"/><path class="cls-1" d="M215.08,41.41c-2.2,4.14-3.57,8.77-7.18,12.09-3,2.8-5.28-.73-7.93-1.12-3.69-.53-3.65-2.45-1.06-4.31,4-2.88,8.25-5.46,12.46-8C212.88,39.09,214.49,38.77,215.08,41.41Z"/><path class="cls-1" d="M248.64,81.84c1.48-7.72,6-11.57,10.42-15.44,1.35-1.2,3.73-1.85,5-.23s-.78,2.91-1.85,4C258.34,74,254.77,78.19,248.64,81.84Z"/><path class="cls-1" d="M182.73,85.26a28.12,28.12,0,0,1,.28-3.75c.71-3.32,1.93-7.41,5.94-6.23s.85,4.8.39,7.32a11.67,11.67,0,0,1-1.51,4c-1,1.62-.89,5-3.33,4.48C181.78,90.5,183.16,87.28,182.73,85.26Z"/><path class="cls-1" d="M1087.46,136.17c-2.81-.21-6.47.65-6.25-2.68.26-3.92,4.48-3.27,7.31-3.54,2.33-.22,5.93-.37,5.77,2.75C1094.06,137,1089.67,135.39,1087.46,136.17Z"/><path class="cls-1" d="M242,168.38c-.3,4.92-.54,9-.79,13.17C234.06,178.1,234.13,176.17,242,168.38Z"/><path class="cls-1" d="M1088.27,168.15c1.23,0,2.36-.11,2.81,1a2,2,0,0,1-1.27,2.46c-3.32,1.53-6.67,3-10.08,4.3a2.53,2.53,0,0,1-3.26-1c-.88-1.71.51-2.64,1.64-3.47C1081.18,169.28,1084.84,168.74,1088.27,168.15Z"/><path class="cls-1" d="M1064.41,176.53c-1.2,2.73-3.64,2.72-5.77,3s-3-1.16-2.85-3.09c.14-2.4,1.63-3.2,3.79-2.69C1061.44,174.15,1063.73,174.1,1064.41,176.53Z"/></svg>