<svg id="Layer_1" data-name="Layer 1" xmlns="http://www.w3.org/2000/svg" viewBox="0 0 2410.13 1309.17"><defs><style>.cls-1{fill:#fff;}</style></defs><path class="cls-1" d="M1157.3,690.17c-8.56,16.78-18.25,27.91-18.43,39.19-.1,6.36,14.69,16.81,24.1,18.64,16.47,3.22,34.38-17.07,32.82-36-.86-10.34-5.08-21-10.06-30.28-16.12-30-33.29-59.52-50.5-90-31.68,24-47.2,61-60.54,99.63-10.77,31.2-21,62.78-34.7,92.73-12,26.42-31.89,46.91-61.82,54.56-42,10.74-75.5-12.91-76.54-56.28-.52-22.12,3.3-44.36,5.31-66.53,1.1-12.11,4.51-24.41,3.21-36.22-1.14-10.39-4.79-24.13-12.2-29-5.87-3.88-22.5.12-28.45,6.3-18.48,19.17-39.72,38.73-49.56,62.43-14.3,34.42-20.87,72.32-28.35,109.22-8.33,41-15.61,47.83-59.73,45.38V842.5c-8.63,6.81-15.21,13.54-23.11,17.91-18.23,10.1-36.23,21.8-55.87,27.91-52.43,16.33-84.48-9.92-75-63.72,10.65-60.44,26.21-120,40.55-179.78,1.39-5.78,8.41-12.83,14.18-14.46,16-4.51,32.71-6.46,53-10.12-9.91,35.48-19.82,66.6-27.1,98.33a840.75,840.75,0,0,0-14.78,87.68c-1,8.22,2.89,22.2,8.51,24.73,7.19,3.25,20.07.18,27.59-4.67,38.77-25,57.56-63.49,66.54-107.16,6.38-31.07,12.21-62.38,15.81-93.87,2.16-18.83,10.35-27.8,28.44-29.73,10-1.07,20-3.08,31.47-4.92v38.16c10.62-11,17.58-20.13,26.41-26.83,13.35-10.14,27-20.8,42.28-27.27,35.68-15.16,67.68,3.12,69.31,41.67,1.51,35.55-3.12,71.36-5,107.06-.77,14.16-2.72,28.37-2,42.45.81,16.55,13.61,22.9,26.51,12.51,9.1-7.33,17.58-17.65,21.77-28.41,11.23-28.9,20.51-58.6,29.64-88.26,14.31-46.5,33.9-89.93,70.75-123.23,26.77-24.21,57.37-38.61,94.5-29.33,9.13,2.29,17.37,8.14,25,11.85-.71,4.14-.58,5.08-1,5.4-34.9,28.53-34.87,28.52-15.45,70.06,11.68,25,23.25,50,34.79,74.85,29.05-7.18,32.58-15,39.36-41,9.66-36.9,20.32-74.51,37.61-108.2,24.06-46.86,72.49-67.51,113.23-52.16,18.15,6.84,33.56,20.95,52.43,33.2,15.45-10.74,34.76-23.09,52.86-37,19-14.62,37.81-20.66,57.93-4.48,64.7-50,90.65-51.36,125.65-5.93,3.7-4.74,7.09-9.17,10.58-13.51,17.89-22.22,40.3-35.8,69.56-35.76,30.12,0,50,17.85,47.69,47.86-2.92,38.31-10,76.28-15.08,114.43-1.67,12.72-3.39,25.54-3.51,38.33-.17,19.27,9.76,25.23,25.62,14.11,23.66-16.59,40.13-35,37.11-69.78-6.38-73.45,11.55-140.08,76.51-185.2,24.31-16.88,51.59-22.92,81-15.32,40,10.3,57.36,40.6,46.1,80.23-10.11,35.58-33,61.88-62.11,82.76-23.4,16.8-48.45,31.32-72.79,46.86,11.43,32.5,42.24,47,81,34.93,54.53-17,81.44-58.69,89.05-112.35,2.66-18.74,10.36-25.84,26-29.47,15-3.48,30-6.81,46.48-10.53.31,6.44,1.59,11.23.6,15.49-16.33,70.7-50.39,130.21-114.69,167.1-57.66,33.08-115.84,34.37-170.77-9.8-17.82,15.88-34.73,31.32-52.07,46.24a205.4,205.4,0,0,1-25.91,19.48c-33.66,20.69-67.59,3.48-65.11-35.69,2.46-38.87,11.7-77.29,17.48-116,1.69-11.3,2.9-22.93,2.18-34.27-1.14-18-13.9-24.19-27.54-12.4-9.88,8.53-18.7,20.06-23.72,32-9.37,22.32-16.32,45.74-23,69.06-9,31.62-14,35-49.47,28.45,3.43-24.44,7.11-48.89,10.15-73.41a93.31,93.31,0,0,0-.18-22.28c-2.91-24.25-19.91-31.74-37.93-15.14-10,9.24-18.89,22.09-23,35-15.48,48.83-29.81,98.1-42.63,147.7-11.29,43.65-19.08,49.72-67.21,41.53,17.72-69,35.42-137.87,53.29-207.43-34.48,4.46-68.82,40.62-74.8,71.05-6.21,31.56-14,63.46-26.37,93-33.23,79.59-132.49,97.33-181.13,17.26-16.33,9.21-29.75,18.35-35.7,39.47-13.31,47.19-55,73.59-101.62,69-28.66-2.83-50.73-24.74-54.5-54.11-3.85-30,13-59.61,39.17-68.34C1140.58,682,1152.77,681.37,1157.3,690.17Zm172.54-51.23c0,2.69-.1,5.39,0,8.08,1.12,25.44,12.54,44.32,29.26,48.45,19.3,4.78,40.27-3.82,49.72-28.84,11.2-29.68,17.91-61.57,22.35-93.09,2.37-16.82-3.2-36.6-23.16-43-19.25-6.16-33.73,5.7-45.59,19.25C1340.23,575.19,1330.63,605.54,1329.84,638.94ZM1943.65,514a286.55,286.55,0,0,0,88-66.22c6.8-7.5,10-24.91,6.08-33.94-6.19-14.21-22.55-12.88-35.42-6.47A97.19,97.19,0,0,0,1976.5,426C1953.74,449.32,1947,479.05,1943.65,514Z"/><path class="cls-1" d="M374.67,688c-6.05,47.13-12.22,87.2-15.93,127.49a265.79,265.79,0,0,0,1.9,60.5c4.22,30.12,25.47,40,49.2,21.17,14-11.11,27.33-28.06,32.11-44.9,13.42-47.27,22.72-95.74,32.77-143.92,12.13-58.15,20.26-117.32,35.61-174.57C542.4,414.19,615.55,352.1,738.61,339.44c135.83-14,272-24.05,407.94-37.48,200.53-19.81,400.5-44.11,594.32-102.39,100.41-30.19,194-75,274.77-143.48,13.88-11.78,28.13-23.78,39.24-38,12-15.37,25.81-20.21,43.94-17.26,20.65,3.35,41.3,6.81,62,9.62,14.73,2,18.84,11.5,13.28,22.72-10.36,20.93-20.27,43.15-35.38,60.46-42.8,49-100,77.33-158.83,102.23-108,45.69-221.93,68.57-337.23,84.33q-280.18,38.28-560.92,72.54c-95.23,11.71-191.07,18.54-286.34,30C680.6,396.64,604.06,458.42,571.9,571.13c-9.44,33.08-17.34,66.65-24.72,100.26C533.44,734,520.94,796.94,507.12,859.56c-3,13.72-9.28,26.74-14.25,40-32.67,87.32-145.46,102.84-191.18,21.84-10.44,14.82-18.56,32.16-31.77,43.65-17.31,15.07-37.18,31.47-58.55,36.71-43.78,10.73-79.32-16.45-89.84-60.87-8.89-37.53-1.52-74.18,6.58-110.34,19.46-87,40.59-173.58,60.49-260.46a116,116,0,0,0,2.2-34.23c-1.78-23.38-21.2-34.28-39.63-20.25C135,528,121,544.41,109.4,561.32c-9.76,14.19-15.9,31.25-21.55,47.76s-8.61,33.71-13.29,52.78C44,646.5,20.73,624.65,2.21,597.58-.06,594.26-.67,588,.8,584.2c22.83-59,54.53-111.29,117.32-134.56,19-7,41.17-9.27,61.52-8,38.23,2.44,69.75,35.43,70.54,76.4.62,32-3.63,64.75-10.53,96.11C222.54,692,202.05,769,184.41,846.72a131,131,0,0,0-.71,52.21c1.9,10,12.13,22.67,21.37,25.66,7.57,2.45,24.33-5,28.15-12.56,17-33.5,32.59-68,45-103.37,9.81-27.86,15.7-57.37,20.61-86.6,2.69-16.06,10-24.81,24.7-27.46C339.64,691.7,356,690.36,374.67,688Z"/><path class="cls-1" d="M2050.35,827.78c-.26-3.3-.72-6.54-.74-9.78-.08-14.16,0-28.31,0-39.81,48.42-22.1,95.93-41.34,141.11-65,60.13-31.5,108.72-75.2,131.36-142.39,1.57-4.65,11.56-10.56,16-9.44a607.21,607.21,0,0,1,65.32,20.77c3.69,1.38,7.5,10.11,6.62,14.52-2.34,11.71-4.67,24.85-11.58,33.93-17.47,22.94-35.27,46.48-56.86,65.27C2278.37,750.81,2135.62,814.07,2050.35,827.78Z"/><path class="cls-1" d="M513.46,1062.57v51.62c-110.74,33.61-210.06,84-264.2,195-25.66-2.18-65.35-32.77-69.63-56.55-1.54-8.55,1.66-21.42,7.64-27.23,20.68-20.09,42.1-40,65.84-56.23C321.33,1122.61,430.39,1078.93,513.46,1062.57Z"/><path class="cls-1" d="M1356.6,941.59c4.63-16,11.3-31.67,13.42-48,3.16-24.41,18.2-27.93,40.1-27-12.73,41.38-24.11,82.12-38.48,121.77-2.74,7.57-17.29,10.85-28.72,17.46-9.44-24.78-17.38-45.65-27.27-71.6-7,21.66-13.87,37.87-17.38,54.76-4.25,20.52-15.74,28-37.2,25.54-13-37.31-26.26-75.37-40.17-115.31l34.56-6.14,22.11,68.43c6.69-21.14,13.06-36.5,16.21-52.5,4-20.07,12.9-31.72,37.15-28.52l21.55,61Z"/><path class="cls-1" d="M797.73,1100.1V974.68c22.93-2.88,46.69-8.79,70.26-8.12,35.32,1,53.2,32.26,42.47,69.22-7.82,26.91-26.41,44-52.52,51.78C838.81,1093.24,818.76,1095.84,797.73,1100.1Zm32.49-37.32c36.44-3.37,54.57-22.52,47.73-47.81-4.33-16-15.76-19.86-30.9-19.1-15.85.8-17.75,10.09-17,23.06C830.83,1032.91,830.22,1047,830.22,1062.78Z"/><path class="cls-1" d="M1486.69,976c-35.55.39-58.17-26.29-53.24-62.8,5.06-37.47,38.61-67.33,76.52-68.1,34.48-.69,57.7,23.66,55,57.68C1561.75,943,1526.86,975.61,1486.69,976Zm44-68.81c.82-18.46-10-31.53-26.24-31.69-19.07-.2-36.53,17.7-37.23,38.16-.63,18.38,10.3,31.63,26.31,31.88C1512.13,945.87,1529.8,927.63,1530.71,907.23Z"/><path class="cls-1" d="M1686.36,897.05l26.42,35.06c-23.91,10.47-42.44,9.6-55.29-15-2.68-5.15-12.58-6.55-22.46-11.25v41.78l-31.41,5.93V829.76c20.32-3.79,41.16-8.19,62.19-11.43,15.25-2.35,30.72-1,39.53,13.78,9.57,16,6.57,32.62-3.53,47.64C1697.75,885.8,1692.07,890.76,1686.36,897.05Zm-50.13-15.31c28.34-.56,41.73-7.49,40.38-21.11-1.73-17.29-14.8-11.69-24.83-11.08C1626.83,851.06,1635.78,868.13,1636.23,881.74Z"/><path class="cls-1" d="M1170.58,990.65l25.39,34.08c-33.06,12.84-32.67,12.52-52.14-11.23-4.29-5.23-12.49-7.25-18.89-10.75-1.94,6.43-4.55,12.75-5.63,19.32-1,5.8-.2,11.87-.2,19.09l-31.63,5.84V923.43c20.26-3.87,40-8.09,59.8-11.29,15.89-2.56,32.62-2.31,41.79,13.22,9.75,16.52,6.77,34-4.38,49.51C1180.82,980.27,1175.82,984.85,1170.58,990.65Zm-50.31-12.81c11.32-2.91,22-3.56,30.12-8.49,5.31-3.24,6.84-12.67,10.07-19.33-5.53-2.65-11-7.2-16.62-7.47-7.69-.37-15.54,2.54-23.57,4.08Z"/><path class="cls-1" d="M984.71,1037.3l63-10.35v27.45L951.31,1072V948.08l95.45-17.91V957c-20.42,5.23-41.7,10.4-62.67,16.64-1.59.47-.93,8.52-1.59,16.1l58-9.05V1006c-13.83,2.63-28.76,6.36-43.91,8.08C981.92,1015.76,981,1023.53,984.71,1037.3Z"/><path class="cls-1" d="M1780.85,797.71v47.22c26.37-23.37,33.16-67.18,79.43-59.4C1846,804.77,1832,823.6,1817,843.79l45.18,59.65c-37.75,25.33-50-6.68-66.24-28.57-21.74,9.87-13.11,29.19-16.57,46.3l-30.89,6.07V803.37Z"/><path class="cls-1" d="M1883.75,884.32l15.46-20.73c16.77,1,30.69,2.77,44.49,2.09,4.24-.21,8.16-7.1,12.22-10.93-4.17-2.79-8-6.87-12.58-8.08-6.42-1.69-14.1.4-20-2.08-11.1-4.66-28.26-9.68-30.28-17.73-3.1-12.34.76-30,8.29-40.71,16-22.81,54.2-26.76,84.55-11.7l-13.91,23c-13.35-.79-25.82-2.37-38.17-1.75-3.69.19-7.07,6.55-10.59,10.08,4,2.71,7.71,6.63,12.15,7.85,6.41,1.78,13.41,1.31,20.08,2.34,14,2.19,29.53,3.23,33,21.06,3.56,18-2.08,33.34-17,44.78C1948.58,899.5,1913,901,1883.75,884.32Z"/><path class="cls-1" d="M690,1014.75c-11.87,12-19.36,19.54-26.32,26.58-26.8-12.17-42.64-8.92-54.08,9.81-9.6,15.74-7.34,37,4.94,46.31s27.19,4.94,48.41-15.22l22.83,12.69c-12.12,21.78-30.37,33.44-53.2,37.54-37.3,6.69-65.65-19.23-63.24-56.86,2.6-40.51,37-74.65,77.47-73.87C659.86,1002,672.78,1009.31,690,1014.75Z"/><path class="cls-1" d="M753.22,1107.57l-30.43,5.71V989.83l30.43-6.25Z"/><path class="cls-1" d="M662.81,594.09c-18.63.23-29.39-9.84-29.62-27.73C632.92,545.21,651,527.14,673,526.5c18.69-.54,32.24,10.1,32.34,25.39C705.53,574.5,686.05,593.81,662.81,594.09Z"/></svg>