<svg id="Layer_1" data-name="Layer 1" xmlns="http://www.w3.org/2000/svg" viewBox="0 0 2072.26 1811.23"><defs><style>.cls-1{fill:#ba8c48;}.cls-2{fill:#162425;}</style></defs><path class="cls-1" d="M1011.45,338.66c-.08-4.25-2.66-6.63-3.38-9.59-.59-2.39-5.65-5.82-.23-7.34,3.57-1,9.19-2.85,11.36,3.31,1.48,4.19,2.67,8.48,4.38,14,18.55-39.44,51.68-42.49,90.17-38.07-21.86,27.79-49,41.92-82.31,45.62,10.78,3.36,21.32,2,31.81-1,7.79-2.24,15.45-5.24,23.39-6.67,28.07-5.05,51,5.34,66.06,30.32,14.26,23.64,19,49.65,17.23,77-3.19,48-24.67,88.34-53.53,125.31-16.63,21.31-43.15,28.27-68.41,18.86-3.65-1.36-7-2-10.65-.72-4.35,1.52-9.21,2.14-13.19.8-10-3.39-19.8-1.21-29.35.68-28.93,5.72-49.77-7.31-67.44-28-22.62-26.43-33.58-57.69-37-91.89-2.79-27.59-2.93-55,6.47-81.65,14.21-40.29,52.69-62.61,94.78-54.79C998,336.07,1004.36,337.31,1011.45,338.66Z"/><path class="cls-1" d="M1034.53,1312.25c12.49-20.23,29.13-33,51.73-38.13,55.35-12.69,105.25,37.61,91.4,92.57-9.35,37.09-32.27,65.43-59.33,90.92-23.79,22.42-50.75,40.55-78.73,57.28-4.08,2.44-6.95,1.71-10.71-.5-30.4-17.87-59.27-37.84-84.4-62.7-24.31-24-44.54-50.83-53.06-84.93a75.32,75.32,0,0,1,70-94C993.18,1271.39,1017,1284.72,1034.53,1312.25Z"/><path class="cls-1" d="M1916.4,909.13q0-401.37,0-802.75v-.79c0-13.46,0-13.46-12.84-16.38-22.9-5.2-44.29-28.18-46.64-52-.84-8.48-4.31-9.28-11.25-9.28q-180.79.22-361.6.1H1372.22c-2.1,0-4.2,0-6.3-.11-1.94-.1-2.63-1.36-2.68-3.17-.06-2.06.39-3.68,2.87-3.76s4.73-.16,7.09-.16q239.88,0,479.76-.11c7.66,0,10.68,1.15,10.56,10-.37,26.08,24.5,51.71,51,52.75,8.1.31,9.13,3.2,9.13,10.2q-.26,285.17-.13,570.35,0,530.18.15,1060.35c0,7.47-1.42,10-9.53,10.72a55.77,55.77,0,0,0-50.65,54.1c-.21,7.16-3.92,6.46-8.49,6.46q-211.12,0-422.25,0H1330.37c-1.57,0-3.15.09-4.72-.05a2.91,2.91,0,0,1-2.87-3.09c-.07-2.06.5-3.77,2.85-3.9,3.14-.18,6.3-.14,9.45-.14l508.12,0c11.84,0,11.65-.07,14.44-11.24,6.5-26.12,22.86-42.68,49.24-48.2,7.46-1.56,9.68-4.12,9.67-11.67q-.35-182.37-.16-364.74Q1916.41,1130.9,1916.4,909.13Z"/><path class="cls-1" d="M148.67,909.12q0-408.47-.12-816.91c0-6.46.88-8.6,8.47-8.63,27-.13,51.82-26.36,51.81-54.43,0-7.5,2.45-8.46,8.91-8.45q243.81.23,487.62.12c1.58,0,3.16,0,4.73.11,1.92.17,2.66,1.49,2.67,3.24,0,2-.44,3.73-2.93,3.79s-4.73.07-7.09.07q-237.51,0-475-.11c-7.91,0-11.62.93-12.68,10.38-2.84,25.24-24.21,46.94-49.7,51.35-7.67,1.33-9.54,4.12-9.54,11.58q.24,745.21.11,1490.44v116.58c0,1.84,0,3.68,0,5.52.23,12,.23,12,11.74,15.38,26.74,7.74,43,25.2,48.05,52.59.9,4.85,3,6.86,7.77,6.74,3.67-.1,7.35,0,11,0h508.1c2.36,0,4.72,0,7.09,0,2.88,0,2.3,2,2.37,3.86s-.3,3-2.52,2.82-4.2-.13-6.3-.13q-261.54,0-523.07,0c-1.84,0-3.78-.3-5.49.18-4.25,1.2-5.75-.28-5.7-4.55.38-28.07-23-55-55.49-56.13-4-.13-4.79-2.11-4.75-5.46.07-6.57-.05-13.13-.05-19.7q0-400.17,0-800.35Z"/><path class="cls-2" d="M1022.39,922.34c-1.54-1.65-2.75-3-4-4.32Q917,816.67,815.72,715.33q-130-130-259.94-260.08c-1.79-1.8-6.34-3.19-2.3-7.29,4.2-4.26,5.48.8,7.1,2.42Q677.91,567.41,795,684.66,909.14,798.78,1023.16,913c3.63,3.64,5.5,3.56,9.1,0q229.85-230.13,460-459.95c2.31-2.31,4.24-9.07,9.06-4.82,5.69,5-1.89,7-4.07,9.14Q1312,643,1126.51,828.42c-29.52,29.52-59,59.11-88.7,88.4-4.43,4.37-4.25,6.67,0,11q147.73,147.32,295.19,294.9,83,82.93,165.87,165.91a24,24,0,0,1,4.16,4.65c1,1.73-1,2.74-2,3.74-2.89,2.71-4.16-.51-5.55-1.89q-26.28-26.05-52.39-52.28-205.15-205.18-410.21-410.46c-4-4-6-4.58-10.3-.25q-229.23,229.67-458.87,458.95c-2.49,2.48-4.82,10-9.83,4.85s2.67-7.17,5.08-9.59q228.65-229.08,457.62-457.85C1018.55,926.5,1020.41,924.43,1022.39,922.34Z"/><path class="cls-1" d="M1530.65,922.38a187.76,187.76,0,0,1,6.2-44.23c.92-3.56,1.8-6.44,6.8-4.83,36,11.59,66.93,30.18,87.06,63.3,7.66,12.59,13.41,26.15,12.93,41.49-.54,17.44-12.57,34.64-28.71,40.81-18.19,6.95-38.14,2.71-50.67-10.88C1542,983.85,1530.5,955.4,1530.65,922.38Z"/><path class="cls-1" d="M1475.19,917.05c.76,34.68-10.89,62.8-32.45,87.1-12.56,14.17-32.46,18.48-51.15,11.31a44.35,44.35,0,0,1-28.65-41.24c-.15-23.83,11.33-42.89,26.36-59.71,19.3-21.57,44-35,71.52-43.73,6.2-2,7.77.13,9,5.39C1473,890.25,1475.83,904.36,1475.19,917.05Z"/><path class="cls-1" d="M1503.55,918.72c-15.9,0-15.64,0-17.8-15.85-1.63-11.93-4.06-23.74-6.07-35.62-.56-3.33-2.49-5.43-5-7.56-21.11-17.69-25.46-44.07-10.74-67.7,3.16-5.07,3.12-8.06-1.31-11.81a145.93,145.93,0,0,1-11.16-11.09c-1.72-1.81-2.88-4.35-.66-6.18,1.69-1.4,4-.32,5.61,1.32,4.24,4.29,8.58,8.49,12.71,12.9,2.54,2.71,4.54,3.11,8,.9,18.17-11.52,36.93-12.56,55.71-1.51,4.34,2.55,7,1.75,10.07-1.72,3.46-3.92,7.3-7.52,11-11.18,1.51-1.47,3.58-3.18,5.44-1.46,2,1.87,1.12,4.54-.58,6.36-3.56,3.85-7.21,7.65-11.11,11.15-3.24,2.92-3.74,5-1,9.09,17.53,25.82,12.82,52.39-11.79,72.08-8.15,6.53-11.06,16.34-12.68,26.24a135.17,135.17,0,0,0-1.87,21.9c0,7.64-2.48,11.28-10.54,9.79A35.66,35.66,0,0,0,1503.55,918.72Z"/><path class="cls-1" d="M687.07,920.37A320.42,320.42,0,0,1,678,990.69c-1.13,4.58-2.79,6.72-7.8,6.55-9.16-.33-18.35-.19-27.53,0-4.11.08-6.14-.37-5.24-5.59a434.45,434.45,0,0,0,3.83-117.46c-.95-9.37-2.18-18.73-3.74-28-.67-4,.42-5,4.25-4.91,9.43.2,18.89.28,28.32,0,4.86-.15,6.75,1.66,7.95,6.37C684,871.09,686.75,895,687.07,920.37Z"/><path class="cls-1" d="M428.9,918.41c-.36-23.18,3-47.22,8.69-71,1.16-4.89,3.32-6.3,8-6.13,8.13.31,16.28.25,24.41,0,4.69-.14,6.7,1,5.77,6.23-8.47,47.74-8.08,95.51,0,143.25.76,4.52-.53,6.43-5.05,6.4-8.93-.05-17.85-.13-26.78,0-4.18.06-5.08-2.42-5.92-5.81C432.16,967.8,428.66,944,428.9,918.41Z"/><path class="cls-1" d="M641.65,919.09c.3,22.64-2.58,45-5,67.46-.8,7.56-3.86,11.09-12,10.22a118.37,118.37,0,0,0-20.45,0c-6.21.41-7.68-2.3-7.2-7.91,1.6-18.56,2.71-37.14,3.23-55.78C601,905,599.14,877,596.91,849c-.54-6.7,1.86-8.09,7.79-7.79,7.86.39,15.76.34,23.62,0,5-.21,6.72,1.67,7.5,6.54A469.47,469.47,0,0,1,641.65,919.09Z"/><path class="cls-1" d="M471.89,918.83a443.23,443.23,0,0,1,5.31-69.68c1-6.3,3.49-8.41,9.65-7.94s12.58.1,18.88.11c10.56,0,10.64,0,9.76,10.94-1.45,18-2.58,36.08-3,54.17-.62,27.3,1,54.51,3.37,81.68.59,6.67-1.42,9-8,8.7-7.07-.36-14.17-.3-21.24,0-6,.23-8.73-1.79-9.62-8.24C473.86,965.39,471.74,942.21,471.89,918.83Z"/><path class="cls-1" d="M555.48,918.45c0,23.07-.19,46.15.12,69.23.09,6.6-1.66,9.57-8.78,9.17a220,220,0,0,0-24.36.25c-3.39.18-3.87-1.14-4.14-3.93a756.76,756.76,0,0,1-2.62-114.65c.57-10.2,1.67-20.37,2.12-30.58.21-4.85,1.66-7,6.93-6.71a229.16,229.16,0,0,0,23.59,0c5.58-.29,7.19,1.8,7.14,7.22-.24,23.34-.1,46.68-.1,70Z"/><path class="cls-1" d="M557.65,919c0-23.06.2-46.14-.14-69.2-.09-6.39,1.56-9.07,8.33-8.61,7.57.53,15.2.28,22.8.09,3.79-.1,5.62.93,6,5.1,3.37,38.94,4.82,77.9,2.1,116.94-.64,9.15-1.36,18.29-1.8,27.45-.2,4.31-2.08,6-6.34,6-8.12-.14-16.25-.21-24.37.07-5.24.18-6.68-2-6.64-7C557.76,966.2,557.65,942.61,557.65,919Z"/><path class="cls-1" d="M640.75,1069c-5.43,10.76-12.15,15.58-24.41,15.3-40.64-.94-81.32-.72-122-.11-9.71.15-13-6.28-17.65-11.89-1.7-2-.49-3.35,2-3.49,1.31-.07,2.62-.13,3.93-.13q76.74,0,153.47.06C637.35,1068.78,638.62,1068.92,640.75,1069Z"/><path class="cls-1" d="M641.07,768.7H474.72c5-9.89,11.19-14.39,22.54-14.17q60.63,1.22,121.29,0C630.1,754.31,635.64,759.87,641.07,768.7Z"/><path class="cls-1" d="M1238.37,28.33c4.21-8.66,8-15.26,10.68-22.25,3-7.79,9.25-4.18,14.09-4.43,5.75-.3,3.46,4.83,3.52,7.66.27,12.06,0,24.13.25,36.18.1,4.61-1.2,6.48-6.11,6.62-5.27.15-6.1-2.29-6-6.65.22-6.38.06-12.78.06-21.32-6.1,7-7.65,13.75-11,19.49s-7.45,5.93-11,.32c-3.92-6.15-5.25-13.67-11.54-21,0,8.77-.17,15.86.06,23,.14,4.21-1,6.08-5.68,6.11-4.86,0-5.56-2.21-5.51-6.25.14-12.32-.09-24.64.1-37,0-2.66-1.88-7.33,3.29-7.13,4.72.18,10.72-3.24,13.89,3.49C1230.83,12.29,1234.17,19.38,1238.37,28.33Z"/><path class="cls-1" d="M813.84,26.71c2-6.32,4.13-12.39,5.88-18.56,1.26-4.45,3-7,8.49-6.92,5.29.06,6.46,2.57,7.71,6.74,1.86,6.21,2.94,12.76,6.78,19.17,4.18-6.69,5.81-13.86,7.86-20.69C852.49,0,857.1.74,861.08,1.77c5.66,1.46,1.78,5.62.92,8.25-4,12.2-8.39,24.28-12.6,36.41-1.07,3.07-2.14,5.47-6.34,5.59-4.55.13-5-2.85-6-5.76-2.8-8.43-5.55-16.88-10.17-25.72-2.68,8.46-5.21,17-8.13,25.33-.7,2-.33,5.27-3.3,5.74-3.53.57-7.08,1.3-8.74-3.86-4.25-13.22-9.14-26.24-13.44-39.45-.61-1.88-4-5.45.24-6.38,3.51-.77,8.65-2.82,10.82,2.89,2,5.14,3.61,10.39,5.42,15.59C810.53,22.5,810.41,25.07,813.84,26.71Z"/><path class="cls-1" d="M1555.51,1020.39h-14.44c-26.46,0-52.92.08-79.38,0-2.16,0-5.34,1.29-6.4-1.34-1-2.42,2.3-3.78,3.26-5.8,6.28-13.21,17.24-15,30.44-14.1,14.34,1,28.81.44,43.21.18,5.79-.1,9.84,1.28,12.75,6.84C1547.41,1010.86,1551.29,1014.82,1555.51,1020.39Z"/><path class="cls-1" d="M652.1,826.05c-18,0-18,0-23.2-17.22a228.4,228.4,0,0,0-10.16-28.05c-1.86-4.11-.91-5.95,3.69-5.6.26,0,.52,0,.79,0,22.87-.94,22.87-.94,34.41,19.14,4.58,8,8,16.49,11.48,25,2.53,6.11.37,7.27-5.2,6.83C660,825.81,656,826.05,652.1,826.05Z"/><path class="cls-1" d="M632.74,1063.32c-15.75,0-15.6.06-10.68-14,3.44-9.87,6.75-19.81,9.39-29.91,1.29-4.9,3.14-7.14,8.4-6.93,8.37.34,16.76.19,25.14.09,4.18,0,5.62,1.13,4.15,5.58-5,15.05-12.64,28.71-21.15,41.94C643.89,1066.44,637.29,1062,632.74,1063.32Z"/><path class="cls-1" d="M555.47,800.8c0,6.56-.07,13.12,0,19.67.06,3.92-1.42,5.67-5.58,5.57-8.39-.22-16.78-.14-25.18,0-3.81.06-5.18-1.58-4.79-5.24q2.13-19.93,4.18-39.88c.42-4,2.41-5.62,6.68-5.85,24.67-1.33,24.66-1.44,24.66,23.37Z"/><path class="cls-1" d="M557.58,800.44c0-6.28.17-12.56-.06-18.83-.16-4.43.91-6.84,6-6.53,6.26.37,12.56.26,18.83,0,4.05-.15,5.41,1.51,5.79,5.41,1.27,13,2.83,26,4.37,38.91.52,4.34-.22,6.94-5.59,6.68-7.83-.37-15.69-.27-23.53,0-4.47.13-6-1.69-5.87-6,.22-6.53.06-13.08.06-19.61Z"/><path class="cls-1" d="M496.51,775.16a284.18,284.18,0,0,0-15.86,47.29C480,825.26,478,826,475.36,826c-8.37,0-16.74-.06-25.11.06-4.72.07-5.32-2.42-4-6a224.48,224.48,0,0,1,21-42c1.47-2.33,3.5-2.88,6-2.87C480.56,775.19,487.87,775.16,496.51,775.16Z"/><path class="cls-1" d="M462.89,1012.57c16.75-.05,16.75-.05,21.24,15.7,2.66,9.34,5.47,18.66,9.67,27.42,3,6.33.53,6.94-5.37,7.84-14.72,2.24-23.41-3.42-29.07-17-3.71-8.9-8.42-17.42-12.13-26.4-2.65-6.4-.7-8,5.43-7.63C456.06,1012.76,459.48,1012.57,462.89,1012.57Z"/><path class="cls-1" d="M557.67,1037.53c0-1.83,0-3.67,0-5.51,0-19.46,0-19.46,19.87-19.46,15.5,0,15.54,0,14.12,15.19-.9,9.66-2.09,19.29-2.84,29-.36,4.55-2.14,6.5-6.87,6.26-6-.31-12.08-.3-18.1,0-4.93.23-6.42-1.92-6.23-6.53C557.86,1050.14,557.67,1043.83,557.67,1037.53Z"/><path class="cls-1" d="M555.45,1037.78c0,6.29-.19,12.59,0,18.86.19,4.81-1.83,6.73-6.5,6.33-2.09-.18-4.19-.07-6.29-.08-21.74,0-16,3.33-19.39-17.6-1.42-8.77-1.5-17.74-2.67-26.56-.57-4.32.07-6.38,4.94-6.23,8.12.24,16.25.17,24.37,0,4.08-.08,5.63,1.64,5.53,5.62C555.34,1024.68,555.45,1031.23,555.45,1037.78Z"/><path class="cls-1" d="M612.4,826c-5-.49-11.6,2.14-16.19-1.11-4.74-3.34-1.87-10.28-2.77-15.57-1.66-9.77-2.34-19.7-3.64-29.54-.48-3.59.93-4.69,4.25-4.62,5.5.12,11,.24,16.5,0,4.26-.2,5.1,2.88,6.33,5.7,5.35,12.25,9.09,25,12.86,37.85,1.66,5.63.35,7.84-5.6,7.37C620.5,825.77,616.81,826,612.4,826Z"/><path class="cls-1" d="M1282.75,26.24V16c0-14.67,0-14.69,15.1-14.57,4.44,0,8.9-.19,13.25,1.25,8,2.65,11.87,11.93,7,18.85-2.56,3.6-1.61,4.81,1,7.33,3.84,3.65,5.2,8.36,3.1,13.66-2,5.08-5.57,8.47-11,8.82-8.1.51-16.24.37-24.37.55-3.72.08-4.1-2.29-4.08-5.2.07-6.82,0-13.64,0-20.46Zm17.82,16.11c4.15-.71,10.62,1.17,10.33-6-.29-7.31-7.2-5-11.54-6s-5.56,1.45-5.75,5.69C1293.37,41.53,1295.53,43.19,1300.57,42.35Zm-2.7-31.65c-2.7-.72-4.12,1.36-4.18,5.77-.06,4,1.23,5.88,5.3,5.55,3.82-.32,8.58.37,9-5.13C1308.35,11.22,1303.65,11.38,1297.87,10.7Z"/><path class="cls-1" d="M613.36,1012.55h.78c17.63,0,17.64,0,12.78,16.54a299.81,299.81,0,0,1-10.25,28.71c-1.79,4.41-4.18,5.67-8.69,5.59-20.7-.37-18,1.51-15.92-17.48.93-8.57,2-17.14,2.41-25.73.3-6,2.73-8.39,8.7-7.7A93.55,93.55,0,0,0,613.36,1012.55Z"/><path class="cls-1" d="M906.16,1785c0-6.54,0-13.09,0-19.63,0-3.22.44-5.66,4.62-5.49,7.57.32,15.18.08,22.73.65,5.77.44,11.06,3.06,12.63,9,1.74,6.61,2.55,14.12-3.13,19.16-4.67,4.14-4.28,7-.41,10.72a5.65,5.65,0,0,1,1.47,1.82c1.14,2.89,6.35,6.28,3.13,8.21-3.47,2.08-9.59,3.31-13.25-2.15-2.32-3.48-4.94-6.77-7.15-10.31-1.75-2.81-4.32-2.74-6.89-2.42-3.56.43-2.42,3.43-2.58,5.57a57.19,57.19,0,0,0,0,6.28c.15,3.85-2.36,4-5.2,4s-5.91.23-5.85-4.18c.1-7.06,0-14.13,0-21.19Zm16.49-.17c7.37-.5,13.09-1.12,12.78-8.32-.29-6.73-5.76-6.55-10.93-7.06-6.93-.69-7.3,3-7.41,8.34C917,1783.58,919.39,1785.34,922.65,1784.87Z"/><path class="cls-1" d="M499,826c-17.23,0-17.45-.08-12.74-16.35,2.69-9.28,6.44-18.25,9.28-27.49,1.77-5.73,5.08-7.29,10.92-7.17,15.78.32,15.75,0,14.3,15.52-.86,9.13-1.72,18.26-2.32,27.4-.39,6-2.65,9.13-9.23,8.18C505.84,825.62,502.37,826,499,826Z"/><path class="cls-1" d="M500,1012.58c17.22,0,17.34,0,19.64,16.66,1.31,9.58,2,19.24,3.29,28.83.47,3.55-.73,4.84-4.09,4.81-5-.05-9.95-.13-14.92,0-3.63.12-5.58-1.35-7.07-4.74-5.82-13.22-9.94-27-13.73-40.86-1-3.83.19-4.74,3.52-4.73Z"/><path class="cls-1" d="M1241.82,1785.41a64.09,64.09,0,0,1,0-7.07c.67-6-2.65-13,1.89-17.91,3.3-3.55,30.23.37,34.19,3.8,6.29,5.46,7,19.08.34,24.82-4.35,3.74-3.43,6.15-.63,9.56a19.8,19.8,0,0,1,2.18,3.27c1.35,2.55,6,5.75,3.23,7.5-3.44,2.14-9.18,2.91-12.88-1.43a76.12,76.12,0,0,1-7.27-10.2c-1.79-3-4.2-3.74-7.29-3.26-4.08.63-2.3,4-2.75,6.24-.63,3.13,1.65,7.11-1.91,9.31-4.43,2.74-9.06-.31-9.13-5.76C1241.76,1798,1241.81,1791.7,1241.82,1785.41Zm11.17-8.56c-1,5.52.52,8.4,6.9,8,5.68-.41,11.06-.78,11.09-8s-5.41-6.92-10.65-7.27C1254.67,1769.18,1251.66,1770.67,1253,1776.85Z"/><path class="cls-1" d="M962.92,1784.63c0-1.58,0-3.15,0-4.72.12-22.2-1.28-19.56,5.77-19.94,26.62-1.41,37.82,4.68,39.79,21.31s-7.67,28.11-24.3,29c-21.27,1.15-21.27,1.14-21.26-20.14Zm11,.31c0,3.66-.06,7.31,0,11,0,1.75-.2,3.56,2.1,4.53,4.88,2,17-2.24,19.46-7.06,4-7.87,1-18.49-6.07-21.91-10.74-5.17-15.49-2.25-15.51,9.55Z"/><path class="cls-1" d="M1066.09,51.73c-13.42.07-13.42.07-13.41-13.75,0-10.23.18-20.47-.07-30.7-.11-4.4,1.29-6.16,5.8-5.88,6.54.41,13.19-.25,19.63.7,13.75,2,21.18,12,20.33,26.22-.83,13.76-9.25,22.43-22.84,23.37C1072.4,51.91,1069.24,51.73,1066.09,51.73Zm-2.33-24.9c0,3.66,0,7.31,0,11,0,2.14.12,4.26,3.16,4.32,6.39.11,12.88-.13,17.16-5.61s3.77-11.83,1.23-17.88c-2.18-5.2-12.47-9.26-18.54-7.24-5.83,1.94-2,7.15-2.94,10.76C1063.44,23.61,1063.77,25.27,1063.76,26.83Z"/><path class="cls-1" d="M1145.1,1760.1c2.88,0,5.78-.2,8.64,0,15.06,1.28,23.66,10.54,23.48,25.12-.18,14.75-8.78,23.84-23.7,25-22,1.78-22,1.78-22-20.13,0-7.07.44-14.18-.13-21.21s1.65-10.32,9-9.06a28.45,28.45,0,0,0,4.71,0Zm-2.57,25c0,3.66-.08,7.33,0,11,0,1.75-.08,3.55,2.26,4.45,5.56,2.14,16.59-1.85,19.38-7.24,3.75-7.21,1.47-17.22-4.88-20.92-4.73-2.76-10.35-4.15-15-2-3.88,1.77-1.12,7.11-1.73,10.81A22.3,22.3,0,0,0,1142.53,1785.05Z"/><path class="cls-1" d="M1458.05,1032c30.24,0,59.09,0,87.94,0,5,0,4.54,1.82,2.39,5-5.52,8.21-11.72,13.55-23.07,12.47a219,219,0,0,0-41.68,0C1470.18,1050.73,1464.51,1042.85,1458.05,1032Z"/><path class="cls-1" d="M919.93,52.48c-5.73.26-10.85-1.68-15.58-4.64-2.58-1.62-5.79-3.16-2.86-7.27,2.41-3.36,4.61-5.51,8.85-2.37,2.91,2.15,6.07,4.2,10,4.14,3,0,6-.55,6.61-4.14.54-3.27-1.91-4.6-4.54-5.47-3.73-1.22-7.51-2.29-11.23-3.56-6.78-2.31-10.18-6.91-9.76-14.27.43-7.65,4.77-12.14,11.66-14,7.41-2,14.55-.33,21.25,3.24,2.64,1.41,4.14,3.16,2.14,6.26-1.66,2.58-3.23,4.9-6.85,3-2.78-1.48-5.64-2.74-8.93-2.7-3,0-6-.19-6.73,3.7-.66,3.52,2.1,4.46,4.5,5.43,1.93.78,4,1.22,6,1.81,12.21,3.62,16.19,8.68,14.63,18.61C937.84,48.25,931.13,52.55,919.93,52.48Z"/><path class="cls-1" d="M788,1784.76c0-6.56.21-13.13-.07-19.67-.2-4.35,1.73-5.23,5.6-5.22s6,1.05,5.58,5.31c-.19,2.08.26,4.23,0,6.29-1.06,7.39,1.56,10.18,9.38,9.67,10.82-.71,10.56-.2,11-11.28.15-3.54-3.35-9.63,4.74-10,4.55-.19,6.64,1,6.53,6.07-.29,12.85-.26,25.71-.07,38.56.07,4.32-1.23,6.07-5.77,6s-6.09-2-5.59-6.19a5.08,5.08,0,0,0,0-.78c-.34-12.8-3.52-15.14-16.44-12.67-3.12.6-3.77,2.24-3.75,4.86,0,3.14-.25,6.31,0,9.44.37,4.31-1.74,5.28-5.57,5.28s-5.78-1-5.6-5.29c.3-6.81.08-13.64.08-20.46Z"/><path class="cls-1" d="M869.06,1760.08c4.07-.91,5.65,1.58,7,4.71,5.47,12.75,11.12,25.43,16.47,38.23.91,2.16,4.58,5.45.4,6.94-3.15,1.12-8.75,2.59-10.3-2.36-2.78-8.86-9.29-8.13-16.26-8.39-5.74-.21-9.37,1.14-11,7-1.74,6.14-6.93,4.28-11.1,3.94-3.14-.25-1.76-2.51-1.08-4.1,6.07-14.2,12.29-28.34,18.24-42.59C863,1759.53,866,1759.8,869.06,1760.08Zm-.92,14.91c-1.63,6.06-6.36,9.67-4.15,13.81,1.19,2.22,6.2,1,9.81.19C873,1784.51,871.08,1780.68,868.14,1775Z"/><path class="cls-1" d="M1002.27,26.2c0-1.31-.09-2.63,0-3.93.57-6.7-3-15.45,1.59-19.59s13-.92,19.82-1.22c3.15-.13,6.31.15,9.44-.06,3.91-.28,5.7.88,5.58,5.22-.12,4.13-1.7,5.58-5.67,5.41-4.71-.19-9.44.06-14.16-.09-3.92-.12-5.65,1.23-5.59,5.46s2.24,4.68,5.51,4.59c4.2-.11,8.4.08,12.6-.08,3.7-.13,5.13,1.41,5.09,5.12s-1.82,4.51-4.93,4.42a69.14,69.14,0,0,0-9.44.06c-3.55.39-8.84-2.46-8.89,5.08-.06,7.91,5.5,5.23,9.37,5.54a115.71,115.71,0,0,0,11.78,0c3.4-.08,5.4.79,5.29,4.85-.09,3.76-1.48,5-5.16,4.93q-13.77-.26-27.55,0c-4,.1-4.82-1.87-4.75-5.31C1002.36,39.85,1002.26,33,1002.27,26.2Z"/><path class="cls-1" d="M1191.35,1785.09c0-6.55.16-13.1-.06-19.64-.13-3.89.91-5.73,5.23-5.6,8.63.27,17.28.18,25.92.06,3.47-.05,5.23.87,5.26,4.82s-1.4,5.79-5.43,5.71c-5-.11-10,.08-14.92,0-3.74-.1-4.92,1.52-4.93,5.19,0,3.93,1.72,5,5.23,4.88,4.45-.13,8.91.11,13.35,0,3.44-.1,4.55,1.53,4.59,4.76s-1.29,4.8-4.62,4.73c-4.45-.08-8.9.1-13.35-.06-3.51-.13-5.33.9-5.22,4.84.11,3.57.49,6.2,5,6.06,5.49-.17,11,.08,16.49-.11,3.95-.14,4.79,1.81,4.79,5.3s-1.6,4.45-4.79,4.42c-9.16-.1-18.33-.2-27.49.06-4.43.13-5.21-2-5.1-5.72C1191.48,1798.18,1191.35,1791.63,1191.35,1785.09Z"/><path class="cls-1" d="M1068.48,1811.06c-11.88.15-22.27-6.82-25.64-17.22a27.55,27.55,0,0,1,9.46-30.31c8.8-6.62,22.65-6.7,31.7.14,2.07,1.58,6.72,2.85,3.22,7-2.43,2.91-4.38,6.12-9.44,2.24a15.15,15.15,0,0,0-20.7,1.7c-4.39,4.91-4.58,14-.42,19.78,4.53,6.28,12.77,7.94,20.23,2.8,5.1-3.5,7.79-1.35,10.3,2.32,3,4.4-2.1,5.21-4,6.93C1079.67,1809.74,1074.26,1811,1068.48,1811.06Z"/><path class="cls-1" d="M1533.33,987.85c-18.3,0-35.83,0-53.36,0-3.69,0-3.65-1.82-2.6-4.55,1.69-4.4,3.31-8.83,4.75-13.31.94-3,2.69-4.08,5.78-4,11.28.14,22.56.09,33.84.12,2.11,0,4.19-.16,5.07,2.54C1528.81,974.79,1531,980.91,1533.33,987.85Z"/><path class="cls-1" d="M975.06,31.47c0,4.71-.2,9.44.05,14.14s-1.27,6.42-6.22,6.46c-5.45,0-5.84-2.68-5.75-6.86.18-8.64-.21-17.3.15-25.92.25-5.72-1.51-8.29-7.54-7.72-3.13.3-6.89,1.14-6.92-4.59s3.06-5.62,7-5.58c9.69.11,19.39.07,29.08,0,2.89,0,4.49,1,4.2,4.1-.23,2.45.71,6.43-3.13,5.88C973,9.5,974.75,18.16,975,26c.06,1.83,0,3.67,0,5.5Z"/><path class="cls-1" d="M771.7,31.47c0,4.7-.19,9.42,0,14.11s-1.24,6.45-6.19,6.49c-5.36,0-5.84-2.6-5.75-6.81.19-8.62-.21-17.26.15-25.87.23-5.63-1.4-8.48-7.45-7.77-3.89.45-7.16.39-7-5.37.19-5.44,3.57-4.8,6.93-4.8,9.67,0,19.35.09,29,0,3.41,0,4.63,1.49,4.49,4.77-.13,2.86-.51,5.77-4.1,5.22C771.5,9.87,771,16.08,771.66,23.63,771.89,26.22,771.69,28.85,771.7,31.47Z"/><path class="cls-1" d="M1504,954.59c-19.82,0-19.76,0-16.22-19.74.45-2.55,1.35-3.74,3.9-3.72,3.13,0,6.25,0,9.38,0,18.19,0,18,0,20.12,18,.52,4.42-.56,5.66-4.67,5.5S1508.13,954.58,1504,954.59Z"/><path class="cls-1" d="M1136.22,27.77c0-8,.19-14.55-.07-21.08-.16-4.24,1.65-5.34,5.58-5.3s5.72.89,5.61,5.24c-.24,9.67.21,19.36-.13,29-.18,5.06,1.24,7.23,6.54,6.68,3.62-.38,7.32,0,11-.09s4.4,1.78,4.42,4.89-1.06,5-4.51,4.73c-.52,0-1.05,0-1.57,0-8.57-.36-19.42,3.43-25.07-1.52C1132.52,45.56,1137,34.55,1136.22,27.77Z"/><path class="cls-1" d="M1480.41,1063h48.23c-6.49,8.07-13.81,13.46-20.84,19.15-1.7,1.37-3.34,1.1-5-.08A129,129,0,0,1,1480.41,1063Z"/><path class="cls-1" d="M170.6,33.51a12.82,12.82,0,0,1,12.77,13.15c0,7.58-5.44,13.07-12.85,13a12.7,12.7,0,0,1-12.77-13.11A12.66,12.66,0,0,1,170.6,33.51Z"/><path class="cls-1" d="M1913,46.09a12.74,12.74,0,0,1-12.38,13.4c-6.7.28-13-5.21-13.31-11.65-.4-7.68,5.18-14.15,12.37-14.32A13,13,0,0,1,1913,46.09Z"/><path class="cls-1" d="M1899.69,1757a12.91,12.91,0,0,1,.87,25.81c-7.69.2-13-5.17-13-13.32C1887.45,1762.33,1892.5,1757.15,1899.69,1757Z"/><path class="cls-1" d="M183,1769.67c.09,7.6-5.09,13.2-12.28,13.26a12.85,12.85,0,0,1-13-12.87,12.56,12.56,0,0,1,12.58-13.1C177.88,1756.8,183,1761.88,183,1769.67Z"/><path class="cls-1" d="M1192.93,26.71c0,6.79-.15,13.59.06,20.38.11,3.89-1.64,4.9-5.19,4.89s-6-.4-6-4.95q.27-20.39,0-40.77c0-3.92,1.68-4.85,5.18-4.87s6.13.37,6,4.93c-.21,6.79-.06,13.59-.06,20.39Z"/><path class="cls-1" d="M1114.2,1785.32c0,6.56-.19,13.12.07,19.66.15,4-1.16,5.66-5.33,5.49-3.53-.15-6-.36-5.89-5,.21-13.62.17-27.26,0-40.89-.06-4.08,1.91-4.7,5.3-4.72,3.63,0,6.06.5,5.91,5-.23,6.81-.06,13.63-.06,20.44Z"/><path class="cls-1" d="M876.2,26.24c0-6.29.24-12.59-.07-18.87-.21-4.35,1.15-6,5.69-6,4.73-.05,5.6,2,5.54,6.1-.18,12.84-.14,25.69,0,38.53.06,4.2-1.09,6.07-5.73,6.09s-5.68-2-5.53-6.18C876.38,39.35,876.2,32.79,876.2,26.24Z"/></svg>