<svg id="Layer_1" data-name="Layer 1" xmlns="http://www.w3.org/2000/svg" viewBox="0 0 2703.87 2435.76"><defs><style>.cls-1{fill:#fff;}</style></defs><path class="cls-1" d="M2649.46,1741.12c-316.27,432.59-737.8,680-1278.68,694C792.35,2450.07,340,2202,0,1741.47l4.05-7.61c16.51,9.66,33.77,18.25,49.36,29.21,27.33,19.22,54.61,37.9,88.23,44.51,54.34,10.69,105.37,3.66,151.88-27.91,12.46-8.46,24.49-17.54,37.05-25.84a150.15,150.15,0,0,1,167.24.94c11.19,7.55,21.9,15.81,33.06,23.4,67.07,45.63,151.86,45.52,219.72.84,23.71-15.62,47.19-33.9,73.53-42.71,47.7-16,94.34-8.18,135.72,22.81,28.78,21.56,58.16,42,94.63,48.8,53.24,10,103.37,3.34,149.09-27.27,12.08-8.09,23.72-16.85,35.74-25,52.37-35.61,118.55-35.66,171.09-.1,12,8.15,23.4,17.37,35.78,25q105.39,64.61,211.67,1c10.66-6.41,20.5-14.17,30.66-21.39,58.55-41.65,125.58-42,183.86-.15,26.66,19.13,53,38.67,85.72,46.23,62.19,14.38,119.48,4.08,170.91-35,24.92-18.91,50.48-36,83-40.28,42.8-5.61,81.41,2.75,116.12,28.8,28.33,21.26,57.33,41.26,93.22,48.09,54.42,10.36,105.27,3,151.83-28.59,23.41-15.87,47.38-30.91,71.09-46.33Q2646.85,1737,2649.46,1741.12Z"/><path class="cls-1" d="M968.44,815.27v33c-32.32,1.81-44.37,23.35-54,51.11-53.89,155.3-109.34,310.07-163.68,465.21-4.58,13.08-10.79,17-24.41,16.71-40.35-1-40.19-.37-53.3-38.8q-43.44-127.35-87.24-254.58c-1.82-5.32-4.15-10.46-7.27-18.27-18.79,50.85-36.68,99.23-54.53,147.61-18.67,50.62-37.52,101.17-55.77,151.94-3.11,8.66-7.15,11.9-16.61,12-45.2.39-45.14.67-61.38-42-56.61-148.8-113.62-297.44-169.53-446.5-9.52-25.36-24-41.78-51.88-44.17V815.39h262.1v31.25c-1.88.85-3.19,1.79-4.61,2-35.67,5.87-45.16,18.67-33.32,52.19,31.9,90.37,65.3,180.2,99.57,274.3,3.65-8.94,5.95-14.1,7.9-19.39,17.36-47.22,35-94.35,51.63-141.81,2.49-7.09,2.35-16.42.07-23.64-10.62-33.62-23.4-66.57-33.44-100.34-6.86-23.06-18-39.46-44.15-41.43v-33h260.6v31.76c-9.52,1.39-18.8,2.07-27.73,4.19-22.22,5.28-31.43,17.82-25.9,39.86,8.58,34.15,18.91,67.89,29.43,101.51,17.18,54.95,35.09,109.66,52.73,164.46,1.09,3.39,2.46,6.7,4.78,13,10.23-29.69,19.62-56.71,28.86-83.77q27.63-81,55-162.07c3.3-9.81,6.48-19.83,8-30,3.79-24.77-4.79-37.05-29.19-43-7.52-1.83-15.28-2.62-24.08-4.08V815.27Z"/><path class="cls-1" d="M811.76,265.16c13.72-13.32,23.66-23.73,34.39-33.25,37.31-33.08,81.13-47.33,130.73-43.46,62.79,4.9,102.52,45.86,104.77,111.84,2,59.71.77,119.53.92,179.29.06,22.35,0,44.7,0,67.05,0,43.5,1.27,45,44.79,51v30.3H892.21V598.69c.66-.53,1.36-1.59,2.18-1.7,37.06-4.77,39.49-7.5,39.5-44.87q0-106,0-212.07c0-53.23-19.41-69.71-72.74-62.14-1.54.22-3.11.25-4.65.5-40.28,6.46-44.19,11-44.19,50.76V549c0,40.91,1.32,42.46,41.75,48.73V628H620v-30.2c43.23-7.31,43.57-7.73,43.57-51.81q0-222.19.28-444.4c0-12.48-2.65-20.68-15.08-24.82-6.34-2.11-11.88-6.66-18.24-8.67-13.27-4.2-12-15-9.9-24.06,1-4.27,8.75-8.64,14.15-9.89q72.8-16.86,145.91-32.32c9.45-2,19.49-1.23,31-1.82Z"/><path class="cls-1" d="M1172.84,748.34v263.78c15.09-14,28.12-28,43-39.58,42.24-32.94,90.38-43.09,142.52-32.24,46.4,9.66,77.51,46,82,97.62,2.85,32.52,2.61,65.34,2.85,98,.41,56.63.11,113.27.11,169.9,0,30.15,4,34.73,33.86,38.7,3,.4,6,.69,9.62,1.09v31H1251.7V1346.9c36.15-8.29,42.68-.26,42.11-53.13-.76-70.66-.15-141.33-.2-212,0-44-21.31-62.48-65.19-56.69q-6.18.83-12.33,1.81c-39.88,6.41-43.58,10.75-43.58,50.85v221.34c0,39.57,1.52,41.32,42,46.91v30.82H979.77v-30.29c43.54-8.21,43.54-8.21,43.54-53,0-147.56-.27-295.13.42-442.69.07-14.49-4.45-22.13-17.24-26.7-5.34-1.91-10-5.79-15.42-7.35-12.57-3.65-12-13-12.14-23.18-.13-11.88,9-9.54,15.23-11,48.06-10.92,96.13-21.81,144.35-32C1148.92,748.46,1159.93,749.13,1172.84,748.34Z"/><path class="cls-1" d="M1587.86,260.88c21.25-28.61,44.38-49.63,74.6-61.87,63.11-25.57,167.37-13.26,202.6,86.07,32.42,91.42,25.91,181.65-28.75,263.84-54,81.26-155,98.12-223.16,83.61-8.48-1.81-16.53-5.61-27.37-9.39,0,15.89,0,30.65,0,45.41.1,21.82.37,43.63.38,65.45,0,16.79,8.4,26,24.79,28.41,11.73,1.69,23.47,3.33,36.15,5.13V798.1H1393.25V768.8c1.64-.82,2.92-1.86,4.34-2.13,39.5-7.3,39.5-7.29,39.5-48.15,0-138.73-.21-277.46.35-416.19,0-13.25-3.56-21.36-15.4-26.81-7-3.23-13-8.85-20-11.93-11.15-4.85-9.72-14.42-8-22.41.93-4.16,7.57-8.66,12.48-10.08,47.33-13.67,94.75-27.11,142.39-39.67,12.21-3.22,25.29-3.11,38.92-4.63Zm143.43,169.7c0-46.4-7.18-82.12-21.81-108.79-21.62-39.43-66.93-56.05-108-40.11-10.86,4.22-16.15,9.81-16,22.7.7,68.07,0,136.16.56,204.23.14,16.49,1.49,33.37,5.27,49.36,7.26,30.74,31.25,45.09,62.36,39.27,28.53-5.32,44.26-25.53,55.7-49.79C1726.79,510.48,1730.87,470.83,1731.29,430.58Z"/><path class="cls-1" d="M568,227.3H533.52c-8.57-21.23-15.16-42.12-25.1-61.26-27.08-52.16-74.58-76.36-131.22-68.77C346,101.46,322.33,121,315.11,148.59c-8.74,33.39-.06,66,27.7,82.68,24.13,14.52,51.47,23.83,77.68,34.73,32.49,13.5,66.71,23.58,97.65,39.93,66.12,34.95,91.38,91.49,85.25,167.77-6.34,78.83-51.48,127.87-125,149.61-88.27,26.1-174.49,16.26-257.45-23.64-17.29-8.31-26.71-19-26.92-40.06-.38-38.18-4.23-76.33-6.76-116.35,13.35,0,25.26-.92,36.87.55,3.56.45,7.88,7,9.17,11.47,11,38.49,26.83,74.18,55.93,102.72,37.9,37.16,83.35,46.94,133.66,34.55,28.16-6.94,48.23-24.7,53.62-54.46,5.68-31.31-.28-60.71-28.93-78.07-23.69-14.36-50.15-24.35-75.91-35-29.17-12-60.07-20.39-88.2-34.39-68.42-34-98.44-91.63-92.48-167S236.85,95.78,308.2,72C393.16,43.66,476,54.35,555,96.44c10,5.33,13.52,12,13.27,23.38C567.48,155.09,568,190.39,568,227.3Z"/><path class="cls-1" d="M1877.24,1133.27H1623.8c-8,55.69,23.25,118.71,69.47,141.54,54.85,27.09,115.78,11.17,172.1-45.2,13,3,16.27,9.53,12.2,23.23-27.39,92.26-109.55,144.45-208.1,131.27-112.72-15.08-181.54-94-182-208-.32-72.28,19.33-136.91,74.47-186.2,61-54.49,132.65-66.19,209.51-42.92,62,18.78,102.08,76,105.72,145.36C1877.82,1105.24,1877.24,1118.16,1877.24,1133.27Zm-127.48-38.63c.86-29.21-.81-57.46-10.28-84.68-7.22-20.74-19.44-37.18-43.56-38.92s-40.35,11.41-51.35,31.32c-15.68,28.36-19.75,59.51-21.11,92.28Z"/><path class="cls-1" d="M2285.87,1133.31H2032.53c-8.48,54.21,22.54,117.52,68.18,140.81,54.62,27.87,115,12.48,173.48-44.43,13.3,2.93,16.2,9.75,11.93,23.31-32.47,103-114.41,140.51-206.54,131.14-125.73-12.79-195.19-112.18-182.1-242.24,7.9-78.47,42.54-141.8,113.59-180.58,54.28-29.64,112.07-33,170.37-13.76,61.69,20.38,100.72,75.76,104.33,144.78C2286.45,1105.2,2285.87,1118.12,2285.87,1133.31Zm-127.59-38.43c.9-32.26-.62-62.76-12.86-91.51-16.57-38.9-60.73-44.6-85.78-10.57-22.08,30-25.85,65.4-27.34,102.08Z"/><path class="cls-1" d="M2533.19,1346.45v30.16H2295.75v-29.42c.58-.49,1.26-1.59,2.08-1.7,40.48-5.48,41.66-6.81,41.66-47.52,0-149.08-.25-298.15.41-447.22.06-14.32-4.11-22.1-17.09-26.57-5.83-2-10.9-6.33-16.77-8.1-13.36-4.05-12.2-14.88-10-23.91,1-4.15,9-8.15,14.48-9.42q72-16.65,144.26-32c10.4-2.2,21.39-1.6,33.9-2.41v545.22C2488.69,1338.4,2488.69,1338.4,2533.19,1346.45Z"/><path class="cls-1" d="M1993.29,487.83h29.94c12.09,23.56,21.07,47.21,35.18,67.25,26.82,38,64.56,54.31,111.34,44.71,24.82-5.1,40.87-21.1,44.28-42.44,3.87-24.14-5.06-45-28.34-57.2-19.16-10-40.14-16.58-60.28-24.75-21.58-8.77-44-15.93-64.5-26.79-54.06-28.65-77.8-75.5-70.65-137.16,6.86-59.15,40.9-97,96.77-113.42,67.17-19.8,132.48-11.51,195,19.94,8.32,4.18,12.25,9.26,12,19.2-.71,27.94-.25,55.9-.25,84.37h-34.15c-4.87-13.36-8.65-26.86-14.55-39.37-21.1-44.75-64.42-67.88-106.08-57.39-19.7,5-33.65,16.08-37.57,36.94-4.06,21.61,2.29,40.06,21.61,50.81,18,10,37.57,17.27,56.62,25.34,23.38,9.9,47.48,18.25,70.31,29.25,52.8,25.43,77.73,68.69,75.67,126.83-2.2,62.36-31.48,107.71-91.15,128.14-76.69,26.26-152.21,19.67-225.15-16.18-11.68-5.74-16.62-13.61-16.28-26.84C1993.81,549.12,1993.29,519.14,1993.29,487.83Z"/><path class="cls-1" d="M1385.45,597.67v30.51H1149.21V597.89c4.85-.81,10.28-1.65,15.68-2.63,23.15-4.19,27.83-9.64,27.85-33.14q.08-116.88,0-233.74c0-2.6-.42-5.28.06-7.78,5.09-26.52-4.33-44.67-30-54.66-5.22-2-11.75-7-12.94-11.84-2.61-10.56-2.67-19.94,13.08-23.89,48.78-12.19,96.93-26.83,145.51-39.83,9.75-2.6,20.33-2.13,32.93-3.3V554.31c0,33.71,3.73,37.89,37.43,42.14C1380.89,596.7,1382.86,597.18,1385.45,597.67Z"/><path class="cls-1" d="M1989.94,75.47c-2.38,10.27-5.84,29.15-11.17,47.49-11.7,40.28-24.12,80.35-36.88,120.31-1.55,4.87-6.91,8.52-10.5,12.74-3.3-3.92-8.28-7.32-9.63-11.82q-23.25-77.35-45.35-155c-2.23-7.83-2.52-16.4-2.56-24.63-.18-38.42,22.26-61.43,58.9-60.91C1968.52,4.12,1991,28.79,1989.94,75.47Z"/><path class="cls-1" d="M1268.69,153.68c-45.75-.05-78.62-31.11-78.88-74.54-.27-44.14,32.92-75.36,79.74-75,45.78.33,78.41,31.68,78.12,75.05C1347.39,122.33,1314.11,153.73,1268.69,153.68Z"/><path class="cls-1" d="M2651.42,1383c-29.77,0-52-22.14-52-51.91s22.19-52,52-52c29.29,0,52.45,22.92,52.51,52S2680.68,1382.92,2651.42,1383Zm36.12-26.85c14.57-22.1,9.7-48.34-11.63-62.66-20.27-13.6-47.78-8-61.86,12.63-13.39,19.61-8.61,46.54,10.85,61.11,20.48,15.34,46,10.85,62.69-11Z"/><path class="cls-1" d="M2687.59,1356.17c-19.18,6.66-31.34-1.56-37.83-21.77l-3.64,3.53c1.05,6.4,2.1,12.79,3.2,19.55h-21.51v-56.61c7.3,0,15.74-1.27,23.59.36,8,1.66,18.48,4.24,22.14,10,3.05,4.83-2.2,14.9-3.77,22.65l-5.18,1.86,22.94,20.33Z"/></svg>