<svg id="Layer_1" data-name="Layer 1" xmlns="http://www.w3.org/2000/svg" viewBox="0 0 4469.2 2496.01"><defs><style>.cls-1{fill:#fff;}</style></defs><path class="cls-1" d="M1870.6,1478c44.28-46.3,82.23-98,124.05-146.7-23.42,15.54-46.67,31.34-70.29,46.55-22.36,14.41-46,26.68-68.89,40.18-26,15.37-49.53,9.66-72.42-4.64-32.9-20.56-43.57-48.31-34.14-86.54,14-56.59,38.16-109.32,62.49-161.92,23.22-50.19,50.74-98.38,69.81-150.51,4.58-12.52,18.61-19.42,32-16.68s22.39,14.38,21.7,28.56c-.42,8.85-3.39,17-7.52,24.83-32,60.46-64.64,120.6-95.64,181.56-17.75,34.9-33.08,71-48.9,106.88a82.35,82.35,0,0,0-6.29,25.27c-2,21.39,9.51,33,31,32.08,21.7-.89,42.09-7.16,61.47-16.5,50-24.1,96.78-53.66,142.13-85.53a31,31,0,0,0,8.37-8.12c33.94-53,77.81-97.28,123.53-139.75,47.32-43.94,96.53-85.65,152.21-118.93,13.82-8.26,28.13-15.75,42.56-22.91,38.71-19.23,78.75-20.59,119.55-7.67,8.24,2.61,14,3.13,19.29-6.24,24.35-43.3,49.6-86.1,74.4-129.15,7-12.19,6.67-13.31-7.66-14.41-28.87-2.22-51.29-13.52-61.9-42.09-6.25-16.81-4.6-31.48,9.15-45.37,39.65-40,88.15-64.14,141.83-76.86,26.93-6.39,44.46-19.08,59.53-42.17a2093.88,2093.88,0,0,1,216-277.07C3005.27,259,3111.54,164.64,3238.34,95.88c83.49-45.28,171.21-78.67,266.76-86.69,103-8.63,200.41,8.18,286,69.86,78.62,56.65,125.08,131.41,121.54,231.49-2.29,64.5-28.51,119.67-68.74,168.91-55.13,67.49-126.73,112.15-204.7,148.13-107.78,49.75-218,93.29-331.44,128.2C3185.47,793.4,3061,821.25,2934,837.41c-107.16,13.62-214.67,17.68-322.52,15.12-8.28-.19-13.48,1.54-17.86,9.27-53.33,94-106.8,187.94-149.89,287.27-29.92,69-55.65,139.29-63.79,214.75-1.16,10.82-1.51,21.75-1.74,32.64-.23,10.48,4.58,17,15.51,19.07,6.24,1.2,17.14-1.92,15,10.54-1.42,8.29-16.52,14.65-25,11.28-10.65-4.23-15.56-13.43-19.44-23.4-9-23.12-8.79-46.9-5.15-70.93,9.9-65.5,32.07-127.51,53.94-189.6,4.77-13.55,10.19-26.88,14.75-40.5,2-6,5.48-13.46-1.89-17.77-8-4.7-11.53,3.34-15.39,8.09-75.79,93.15-163.35,174.06-257.81,247.73-30.65,23.9-63.23,44.88-98.48,61.62a58.19,58.19,0,0,1-38.18,4.67c-14.44-3.08-23.77-12.28-28.23-28.57-34.64,39.2-67.15,77.63-103,113C1884,1491.43,1870.78,1488.65,1870.6,1478ZM2731,835.34c45.77-1.94,89.72-4.11,133.62-8.05a1819.49,1819.49,0,0,0,430-91.7q197.29-67.74,374.78-177.78C3728,521.24,3782.59,479.59,3826,424.94c35.36-44.49,58.68-93.95,59.48-151.74,1-73.32-33.82-128.39-91.1-170.52C3680.6,19,3554.5,2.58,3420.36,38.51c-67.93,18.2-129,52.38-188.27,89.46-131.36,82.23-241.57,188.23-341.31,305.82-102.9,121.32-191.62,252.6-273.27,388.86-5.71,9.51-4.55,12.8,6.63,12.75C2660.34,835.24,2696.54,835.34,2731,835.34Zm-352.11,189.1c-38.21.22-69.93,16.9-99.58,38.6-42.68,31.24-81.15,67.2-116.78,106.16-38.66,42.27-73.73,87.11-96.26,140.49-4.29,10.18-7.34,20.53-6.48,31.69,1.57,20.31,14.8,28.27,33.73,20.28a52,52,0,0,0,7.94-4.51C2215.36,1283,2315.32,1193,2404.2,1090.4c6-6.9,11.72-14.05,15.71-22.4,9.34-19.54,2-35.92-19-41C2393.76,1025.23,2386.22,1025.23,2378.87,1024.44Zm281.54-336.25c-16.81,3.23-29.4,8-41.92,12.92-43.34,16.92-81.51,41.48-111.74,77.28-17,20.14-10.23,40.36,15.15,45.65,11.92,2.48,24.13,3.58,36.11,5.81,8.75,1.64,14.54-.62,19.24-8.77,8.91-15.47,19-30.29,28.45-45.42C2623.47,747.31,2641.19,718.92,2660.41,688.19Z"/><path class="cls-1" d="M2934,1550.8c79.12-27.26,159.33-50.88,240.12-72.6q125.07-33.65,252.24-58.12c9.15-1.76,14.11-5.59,17-14.77,24.5-77.45,42.91-156.36,57.81-236.14.68-3.66,1.9-7.51-.55-12.21-18.18,14.51-35.7,29.34-54.09,43-81.89,60.92-165.25,119.58-258,163.31a211.43,211.43,0,0,1-26.71,10.44c-9.76,3.07-18.1-.55-24.52-8.16-6-7.13-5.79-14.88-2-23.22,21.67-48.13,47.86-93.92,72.73-140.39,9.66-18,19.37-36.06,29.69-53.72,6.21-10.64,9.26-21.44,7-33.67-3.25-17.52,3.89-28.73,20-36.34,22.08-10.42,44.23-20.59,66.94-29.52a73.71,73.71,0,0,1,15-4.37c9-1.44,14.66,2.85,18.33,11.18,3.77,8.55-2.94,10.06-7.51,13.81-26.56,21.8-46.8,49.23-66.72,76.76-28.37,39.22-54.52,79.9-77.48,122.56a86.06,86.06,0,0,0-7.59,18c-4.68,17.39,3.88,27.19,21.81,25.66,8.45-.73,15.91-4.49,23.42-8,60.43-28,115.39-64.94,169.34-103.5,19.85-14.18,39.24-29,58.66-43.78a234.4,234.4,0,0,0,42.56-42.07c16.14-20.53,49-14.71,57.42,9,1.65,4.68,2.92,9.67-.5,13.71-17.3,20.38-22.49,45.81-30.15,70.31-19.91,63.63-40.22,127.15-60.25,190.74-4.05,12.86-3.54,13.29,9.82,10.94a2159.13,2159.13,0,0,1,279.35-30.7c36-1.58,70-13.75,104.3-23.75,93.58-27.29,168.06-80.09,216.7-165.43,40-70.15,64.22-146.6,83.83-223,5.36,20.65,2.41,42.94-1.86,64.76-16.61,84.91-47.51,164.2-100.26,233.33-49,64.17-116.48,100.76-193,122.67-45.25,13-91.4,16.12-138.15,17.1-84.68,1.78-168.92,8.88-252.48,23.54-14.32,2.52-21.22,8.46-26,22.14-56.56,161-121.3,318.46-201.54,469.24-70.28,132.08-150.48,257.34-255.55,365.06-78.26,80.23-166.58,145.87-273.79,182.55-93.42,32-188.46,38.91-284.57,13.16-79.19-21.22-146.73-63.54-207.1-118-48-43.32-86.52-93.21-105.61-156.07-24.13-79.47-11.45-153.31,34.41-222,47.85-71.71,112.7-125.39,183.15-173.11,81.83-55.42,169.59-99.83,259.62-140.15,66.48-29.78,134.27-56.18,202.55-81.4,5.26-2,10.81-3.11,16.23-4.64,6.61,8.34,8.7,16.88,1.13,25.84-6-4.33-11,.64-15.75,2.56-41.61,16.79-83.38,33.23-124.46,51.25-107.9,47.31-212.75,100.4-309.22,168.69-70.53,49.92-134.72,106.23-181.86,180-60.16,94.06-60.33,197.77,6.2,281.85,107.3,135.6,249.74,192,420.93,174.11,85.84-8.95,161.14-46.07,230.19-96.33,87.26-63.51,157.91-143.25,221.1-229.91,103.73-142.27,184.59-297.34,254.84-458.27,1.23-2.83,4.43-5.84,1.71-9.6l4.28-10.17c1.21-1,3-1.86,3.55-3.19q44.31-105.33,80.1-213.85c3.4-10.21-2.63-8.48-8.66-7.14-57.76,12.8-115.65,25.09-173,39.9-3.12.8-7.49-.12-7.39,5.24-13.39.12-26.79.52-40.17.26-10.16-.2-16.55,3.47-17.7,14.14a6.28,6.28,0,0,0-6-1.47c-72.56,20.06-145.09,40.24-216.07,65.53C2954.58,1555.52,2941.52,1558.88,2934,1550.8Z"/><path class="cls-1" d="M1836.31,1554.7c-4.85-.33-6.4,4-9.09,6.6-110.91,106-231.86,198.2-368.8,268.33-95.13,48.72-194.16,86.71-299.79,105.71-85.46,15.37-171.08,18.08-255.71-3.94C751.58,1892,656.3,1794.29,614.53,1645c-30.28-108.25-24.31-217.71-2.07-326.61,24.16-118.3,67.06-230,123.93-336.2C871,730.73,1056.82,525,1291.12,362.85,1382.82,299.4,1480,245.92,1585,207.55c101.15-37,204.91-60.44,313.4-56,97.4,4,187.4,30.16,263.92,93.36,60.77,50.19,98.82,115.17,121.62,189.81,1.25,4.08,1.41,8.62,7.36,14.05,16.1-152.1,16.16-301.14-18.59-445.86,19.4,35.76,30.37,77.74,37.55,120.78,13.77,82.56,14.54,165.85,13,249.24-.07,3.42,0,6.84,0,13.55,8.61-11.36,15.15-20.7,22.41-29.45,65.44-78.8,144.92-140.58,233.06-191.85,36.86-21.44,73.45-43.43,113.42-58.81,16.74-6.45,34-11,49.72-10a938.49,938.49,0,0,0-93,49.44c-100.16,60.33-193.86,128.62-269.81,219-25.74,30.62-40.32,67-57.74,102-6.4,12.9-7.56,29-22.14,37.42-1.73,1-.94,6.49-1.19,9.91-.32,4.44-.47,9.55-5.71,10.56-6.15,1.18-8.24-4.24-9.53-8.73-4.81-16.75-9-33.67-13.75-50.45C2252.24,406,2225.59,351.67,2184.4,305c-61.9-70.09-140.73-108.27-232.11-122.38-103.58-16-204.45-1.28-303.34,29.52-161.63,50.34-304.83,134.66-435.87,240.53C1070,568.34,946.89,702.56,845.4,856.05c-85.35,129.09-154.14,266.16-192.8,417-19.48,76-30.49,153.13-27.7,231.78,2.94,82.76,21.06,161.68,64.37,233.19,53.17,87.79,133,138.3,231.39,161.74,84.46,20.12,168.9,15.13,253.12-1.52,134.07-26.52,255.32-83.79,370.59-155.3,103.41-64.14,197.7-139.81,284.9-224.51a43.75,43.75,0,0,1,4.15-3.18C1842.94,1527.74,1839.85,1541.2,1836.31,1554.7Z"/><path class="cls-1" d="M2679.73,1081.55c59.4,2.73,118.25,3,177.09,0,34.1-1.73,68.07-3.13,98.93-20.35,12.17-6.8,24.4-13.5,34.87-22.79,5.9-5.24,9.8-9.54,20.23-6.35,14.81,4.52,19.1,9.66,10.14,22.33-24.91,35.23-50,70.31-74.73,105.69-12,17.16-23,35-31.78,54-1.68,3.64-3.75,7.75-.72,11s7.34.75,11-.35c7.85-2.37,13.38-7.85,18.6-13.85,62.22-71.58,134.73-131,214.17-182.49,23.22-15.06,47.16-16.34,72.54-10.54,14.94,3.42,16.07,7.08,7.39,19.25-9.84,13.79-20.07,22.88-40.24,17.42-22.22-6-42.5,5.62-61.59,16.5-90.31,51.5-164.3,121.48-228.72,202.29a1166.45,1166.45,0,0,0-86.51,124.49,28,28,0,0,1-14.47,12.45c-16.35,6.21-32.16,13.5-46.77,23.21-2.15,1.43-4.57,3.92-6.8,1.52-1.52-1.66-1.79-4.78-2-7.29-.38-5.72,3.68-9.66,6.46-14,46.48-72.21,91.81-145.11,131.06-221.58,11.72-22.82,24.41-45.32,31.05-70.43,1.68-6.4,2.44-12.77.78-19.37-1.39-5.55-3.84-7.84-10.12-6.83-55.36,8.94-111.33,7.37-167.09,8.61-54.07,1.21-108.18,1-162.27,1-9.5,0-15.87,2.52-21.7,10.74-29.34,41.41-56,84.13-72.94,132.39a189.83,189.83,0,0,0-10.57,74.63c2.52,43,26.92,66.09,69.93,66.32,25.64.14,49.9-7.6,74-15.19a583.88,583.88,0,0,0,96.36-40.32c3.47-1.83,6.95-3.65,10.52-5.29,3.73-1.71,8-2.88,10.51,1.34,2.86,4.74-1.57,7-4.6,9.25-44.78,32.52-93,58.18-146.39,73.69-50.54,14.69-86.76-8.41-118.07-44.6-24.7-28.55-24.92-61.77-19-96.46,11.33-66.48,42.06-124.36,79.82-178.84,52.95-76.41,117.32-141.31,197.3-189.76a242.7,242.7,0,0,1,25.47-13.34c38.86-17.61,74.77-1.83,88.54,38.67,12.72,37.43,3.15,69.61-29.26,97-33.18,28.09-73.23,41.38-114.31,52.32C2690.52,1079.08,2685.11,1080.26,2679.73,1081.55Zm-97.39,1.66c21.48,1.88,40.67-1.46,59.55-5.52,58.16-12.52,110.7-36.36,152.38-80.11,13.31-14,23.77-30.32,24.92-50.49,1.14-19.81-10.07-30.16-29.84-28-13.69,1.48-25.7,7.61-37.38,14.61-48.19,28.88-89.09,66.6-128.67,105.9C2609.57,1053.22,2595.43,1066.53,2582.34,1083.21Z"/><path class="cls-1" d="M1140.07,1548.34c0,38.34-.31,76.68.22,115,.14,9.55-2,12.71-12.16,12.61-32.17-.33-32.17.12-32.17-31.36,0-49.68.25-99.37-.21-149-.09-9.26,2.52-12,11.65-11.51,15.59.92,34.26-4.42,46,2.46s16.85,25.41,24.54,39c12,21.17,23.65,42.5,35.54,63.93,4.74-2.48,2.53-6.38,2.55-9.32.17-28.76.28-57.52-.1-86.28-.1-7.34,2-9.64,9.55-9.86,34.9-1,34.89-1.24,34.9,34,0,48.37-.21,96.75.18,145.12.08,9-1.67,11.65-11.71,13.16-26.85,4-41.46-6.27-52.74-30.72-15.57-33.71-35.41-65.45-53.43-98Z"/><path class="cls-1" d="M115,1570.58c30.91,11.33,40.45,25.42,37.91,53.53-2.27,25.2-22.29,46.12-51.07,49.84-31.58,4.08-63.54,1.2-95.32,1.77-5.32.09-6.48-2.75-6.47-7.43q.14-88.23-.07-176.47c0-6.93,3.08-7.72,8.71-7.67,26.14.26,52.31-.35,78.43.46,28.88.9,47.43,12.82,52.16,33C144.6,1540.15,136.29,1557.52,115,1570.58Zm-66.6,45.48c0,6.11,0,12.21,0,18.31,0,3.21.42,6.38,4.68,6.3,12.57-.24,25.43,1.95,37.42-3.53,13.18-6,18-24.82,9-35.5-7.25-8.6-17.6-8.43-27.7-8.61C48.39,1592.61,48.39,1592.58,48.42,1616.06Zm-.2-76.47c3.2,6.9-7.62,21.56,12.43,20.54,22.34-1.13,31.07-6,30.95-21-.11-14.51-7.8-18.29-30.39-19.79C42.91,1518.15,49.6,1530.44,48.22,1539.59Z"/><path class="cls-1" d="M2592.3,1570.49c9.14,4.06,17.5,6.18,24,12.14,26.71,24.42,15.12,71.9-21.25,86.8a84.26,84.26,0,0,1-31.9,6.12c-25.31.11-50.61-.13-75.91.26-7.22.11-9.77-1.81-9.73-9.44.29-57.59.15-115.17.1-172.76,0-5-.39-9.58,7.05-9.46,27.91.45,55.85-.18,83.72,1,21,.92,40.59,7.53,47.25,30.29C2622.35,1538.43,2614.52,1557.26,2592.3,1570.49Zm-66.94,46.74c0,5.65,0,11.29,0,16.94,0,3-.23,6.55,4.23,6.45,12.92-.27,26.09,2.07,38.48-3.9,8.23-4,12.51-10.1,12.66-19.44.27-16.64-7.95-23.51-29.55-24.19C2525.35,1592.29,2525.35,1592.29,2525.36,1617.23Zm0-79c0,21.59,0,21.59,10.79,21.66,23,.14,32.54-5.73,32.87-20.32.32-14.29-8.47-18.8-31.21-20.22C2519.24,1518.23,2526.93,1531,2525.32,1538.27Z"/><path class="cls-1" d="M538.34,1675.7c-19.88,0-36.37-.22-52.86.12-5.89.13-8.37-3.52-11.27-7.37q-20.47-27.12-41.09-54.13c-3.12-4.09-5.89-8.33-12.23-8.54-7.72-.26-12,1.09-11.59,10.43.72,16.54-.06,33.14.37,49.7.18,7.17-1.72,10.37-9.46,9.94-10-.55-20.06-.46-30.08,0-6.77.29-9.15-2.06-9.13-8.94q.3-87,0-174c0-5.78,1.55-9,8.11-8.75,30.48,1,61.05-2,91.46,1.78,22.82,2.82,41.13,12.59,47.81,36.21,7.28,25.7-1.51,51.16-23.69,65.43-10.5,6.75-8,10.7-1.91,18.17C501,1627.85,518.45,1650.51,538.34,1675.7ZM409.49,1545.86c0,27.41,2.92,29.73,30.24,23.93.85-.18,1.67-.44,2.51-.68,13-3.7,19.48-13.37,18.46-27.52-.94-13.11-7.42-19.4-21.81-21.18C409.49,1516.77,409.49,1516.77,409.49,1545.86Z"/><path class="cls-1" d="M3565.66,1579.94c0-27.9.42-55.8-.23-83.69-.23-10.06,3.11-12.68,12.72-12.22,24.79,1.16,49.59.1,74.44,1.7,78.81,5.06,102.84,91.84,70.53,146-16,26.81-40,40.94-70.71,42.64-26.09,1.44-52.29.72-78.42,1.49-8.9.26-8.38-4.94-8.37-10.9C3565.71,1636.61,3565.66,1608.28,3565.66,1579.94Zm48.6.16c0,17-.1,34,.09,51,0,3.46-1.77,8.94,4.5,8.87,16.88-.19,34.18,1.46,48.52-10.81,19.9-17,26.62-52.81,14.64-79.58-9.68-21.62-33.58-32.68-61.74-29.49-7,.79-6,4.72-6,9Q3614.22,1554.59,3614.26,1580.1Z"/><path class="cls-1" d="M4468.33,1675.69c-19.77,0-35.89-.18-52,.1-5.56.1-8.58-2.56-11.64-6.7-13.48-18.2-27.19-36.23-41-54.21-2.33-3.05-4.86-6.59-8.13-8.15-9.76-4.66-16.12-.16-16.16,10.87-.07,16.57-.22,33.15.1,49.72.12,6.11-1.73,8.68-8.11,8.46-10.45-.36-21-.52-31.39,0-7.41.39-8.5-3-8.48-9.3.18-57.58.11-115.15.1-172.72,0-4.84-.84-9.94,6.8-9.7,30.92,1,61.95-1.88,92.79,1.76,22.94,2.71,40.95,13.23,47.47,36.7,7.1,25.57-1.41,49.77-23.28,64.34-10.19,6.79-9.35,10.75-2.37,19.13C4431.34,1628,4448.63,1650.71,4468.33,1675.69Zm-128.91-129.9c0,28.25.65,28.8,29,24.24.43-.07.87-.09,1.29-.17,13.78-2.66,22.28-13.16,21.72-26.84s-8.54-21.33-23.64-22.78C4339.42,1517.52,4339.42,1517.52,4339.42,1545.79Z"/><path class="cls-1" d="M1836.31,1554.7c3.54-13.5,6.63-27-2.89-39.5,3.92-4.42,3.08-9.93,2.47-14.88-1.55-12.59,2.15-19,16-16.22a19,19,0,0,0,18.71-6.09c.18,10.64,13.42,13.42,14.24,23.67-.29,15.23-.42,30.48-1,45.7-.22,6.13,2.86,7.2,8,7.15,16.58-.16,33.16-.37,49.72,0,6.82.18,8-3,7.88-8.64-.19-16.57.31-33.16-.26-49.72-.3-8.72,1.86-12.18,11.45-12.26,36.76-.29,36.75-.64,36.75,36.31,0,48-.23,96,.22,144,.08,9.16-2.41,12.53-11.66,11.6-11.62-1.16-26.7,4.76-34.1-2.31s-2-22.28-2.35-33.9c-.43-13.07-.48-26.19,0-39.25.3-7.58-2.44-9.73-9.77-9.5-15.68.5-31.41.44-47.1.06-6.86-.17-9,2.14-8.87,9,.4,21.8-.13,43.62.32,65.42.15,7.71-1.62,11.25-10.08,10.47-12.06-1.1-27.64,4.86-35.39-2.29-8-7.33-2.29-23.08-2.44-35.11C1835.84,1610.52,1836.22,1582.61,1836.31,1554.7Z"/><path class="cls-1" d="M893.5,1675.62c-14.73,0-29.06-.17-43.38.07-6.25.11-6.58-4.56-7.93-8.52-10.31-30.36-10.3-30.36-42.86-30.36-26.16,0-26.72-.16-33.67,24.47-3.06,10.87-7.42,16.53-19.53,14.55-10.5-1.71-25.1,4.68-30.62-3-3.69-5.14,4.49-19.07,7.81-28.91,16.68-49.53,33.74-98.93,50.07-148.57,2.81-8.54,6.46-12,15.58-11.29,10.4.84,20.93.46,31.38.06,6.53-.25,10.19,1.64,12.43,8.37,19.78,59.5,39.92,118.89,59.92,178.33A36.85,36.85,0,0,1,893.5,1675.62ZM804.41,1544l-2.93.06c-3.23,10.22-6.41,20.44-9.68,30.64-9.09,28.27-9.1,28.26,20.53,27.12a22.74,22.74,0,0,1,2.61,0c5.26.4,7-1.43,5.3-6.84C814.8,1578.06,809.66,1561,804.41,1544Z"/><path class="cls-1" d="M3946.73,1580c0-28.77.22-57.54-.14-86.31-.09-7.19,1.65-9.82,9.33-9.74q54.91.57,109.84,0c8.1-.08,10.3,2.56,10.38,10.49.26,26.36.58,26.36-25.64,26.35-15.25,0-30.52.32-45.76-.19-7.56-.25-10.65,1.32-10.64,9.89,0,23.92-.43,23.92,24,23.92,13.95,0,27.9.26,41.84-.09,6.73-.17,10,.95,10.11,9,.54,27.57.92,27.56-26.91,27.58-13.51,0-27,.3-40.54-.07-6.26-.17-8.51,2-8.3,8.22.36,10.44.52,20.94-.05,31.37-.4,7.3,2.82,8.75,9.21,8.67,20.49-.26,41,.18,61.46-.22,8.1-.16,11.39,1.65,11.29,10.85-.28,25.86.22,25.88-25.74,25.87-31,0-61.9-.37-92.84.1-8.47.12-11.24-2-11.07-10.79C3947.07,1636.7,3946.72,1608.36,3946.73,1580Z"/><path class="cls-1" d="M2839.14,1610.7c7.57-9,5.48-17.5-1.13-25.84.22-29.64.75-59.29.48-88.94-.08-8.75,1.83-12.08,11.44-11.93,35.75.58,71.52.44,107.28,0,8.57-.11,11.08,2.35,11,11.08-.2,25.71.22,25.73-26.09,25.75-15.26,0-30.53.24-45.78-.21-7-.2-9.9,1.55-10.14,9.28-.78,24.66-1.12,24.37,23.38,24.72,8.48.12,16.35-2,24.39-3.82,7.53,8.07,20.59,4.71,27.79,13.45,0,4.8-.48,9.68.25,14.36,1.66,10.83-3.21,13-13.09,12.61-17.82-.76-35.7,0-53.55-.32-6.65-.13-9.44,1.75-9.1,8.81.5,10.43.42,20.9,0,31.34-.24,6.43,2.51,8.25,8.46,8.16,15.67-.24,31.35-.1,47-.1,27.15,0,26.86,0,26.38,27-.13,7.36-2.19,9.78-9.61,9.72q-55.53-.48-111.05,0c-6.83,0-9.16-2.06-9-8.93C2839.07,1648.14,2839,1629.42,2839.14,1610.7Z"/><path class="cls-1" d="M1627.66,1519.67c-1.12,6.45,3.75,17.2-2.57,20.78s-11.57-7-17.8-10.52c-11-6.31-21.57-12.86-35-12.87-25.66,0-43.9,13.79-50.29,38.81a105.06,105.06,0,0,0-2,40.25c5.4,40.08,43.41,59.24,79,39.83,6.44-3.52,12-8.58,18.21-12.62,2.71-1.76,4.69-6.4,8.7-4.16,3.69,2.07,1.37,6.36,1.73,9.63.38,3.44.05,7,.05,10.45-.06,25-.06,25.06-23.31,33.7-45.08,16.76-94.93,3.92-118.83-30.59-24.94-36-21.38-101.39,7.9-133.58,24.88-27.35,57.28-30.67,91.47-26.52a100.84,100.84,0,0,1,20.28,4.85C1627.71,1494.81,1627.66,1495,1627.66,1519.67Z"/><path class="cls-1" d="M1933.52,950.55c-11.43-1.39-23-2.82-29.23-12.94s-1.13-20.47,4.77-29.3c13.46-20.12,30.65-36.78,50.38-50.65,9.57-6.74,20.19-10.23,32-4.89,12.82,5.79,20.4,17.29,16.12,28.83-12,32.35-35.92,53.6-66.78,67.61C1938.49,950.26,1935.69,950.18,1933.52,950.55Z"/><path class="cls-1" d="M3342.82,1675c-11.75.22-23.52.09-35.24.79-7,.41-8.68-4.38-11.2-8.93q-31-56-62.13-112c-1.37-2.47-1.57-6-6.92-7v43.9c0,24.43-.37,48.87.21,73.29.21,8.82-2.75,10.78-11.13,10.84-33.32.24-33.42.54-33.3-33.06.17-47.52.51-95,.77-142.56,1.15-10.68,7.54-14.35,17.7-14.15,13.38.26,26.78-.14,40.17-.26,3.47,1.68,4.41,5.26,6.06,8.23q22.58,40.44,45,81c2.73,4.89,5.6,9.71,9.3,16.1a31.66,31.66,0,0,0,1.16-3.94q.06-34.59.08-69.17c0-35.15,0-35,35-34.06,6.37.18,9.28,1.31,9.23,8.6-.38,57.44-.37,114.89-.48,172.33Z"/></svg>