<svg id="Layer_1" data-name="Layer 1" xmlns="http://www.w3.org/2000/svg" viewBox="0 0 1920.83 1654.21"><defs><style>.cls-1{fill:#244579;}.cls-2{fill:#dce8f8;}.cls-3{fill:#5783c1;}</style></defs><path class="cls-1" d="M664.63,1654.21c-75-97.11-160.11-182.63-274.71-232.37-51.61-22.4-97.48-50-131.72-96.39-25-33.92-54.1-65-82.55-96.23-14-15.32-14.06-30.36-8.05-48.62,46.69-142,64.43-288.15,60.91-437.08-2.95-124.3-28.39-244.93-62.48-363.95-12.88-45-13.08-44.68,28.11-63C339.37,251.81,464,162.36,545.4,21.68,553.9,7,565.21,1,582.2,1q233.53.51,467.08-.06c14.57,0,24.68,5.66,34,16.48,16.55,19.28,35,36.94,51.33,56.42,11.09,13.25,18.94,10.77,28.41-1,7.66-9.54,18.1-17.19,24.32-27.48,23.33-38.6,57-46.7,100.35-45.23,94.25,3.19,188.68,1.25,283,.64,18.2-.12,32.21,4.85,45.1,18.1C1659.22,63.58,1701,109.69,1740.33,158c10.7,13.14,18,25.64,12.06,45.55-55.79,187.56-48.22,375.86-3.62,564.23,14.93,63.06,11.62,66.53-53,56.41-54-8.47-108.46-9.89-170.26-7.56,32.54,21.63,53.12,48,80,68.52,54,41.22,103.58,87.57,146,141.06,7.7,9.72,5.62,21.5,5.66,32.72.32,78.27-13.64,156.19-6,234.61,2.12,21.54,3.61,43.46,9,64.25,5.77,22.16.5,34.92-20.34,45.13-57.22,28-111.55,61.85-158.9,104.06-48.76,43.46-95.82,89.72-129.22,147.26ZM208.29,1194.46c56,21.59,110.86,48,161.53,82.52,84.15,57.31,153,128.29,195.41,222.11,6.78,15,14.68,21.25,31.6,21.08,51.86-.53,103.75.86,155.63,1.37,182.7,1.79,365.41,2.87,548-4.37,10.72-.43,21.61,1.95,28.59-12q78.08-155.86,233.65-235.31c12.94-6.61,18.94-14.55,15.58-31.34-19.88-99.25-24.37-200-24.38-300.86,0-20-4.09-25.28-25.41-21.52-92.09,16.26-184.8,25.57-278.62,19-19-1.32-37.89-9.82-58.41-3.75,18.16,56,19.34,110.78,5,166-33.45,129-172.54,198.9-282.31,139.12-74.08-40.34-126-101.37-154.71-182.52-45.14-127.38-56.84-258.61-48.61-392,4.37-70.72,19.24-139.85,49.33-204.93C812,345.06,896.42,294.41,1020,301.77c94.28,5.61,156.06,57.89,177.24,149.86,13.08,56.78,5.67,112.44-10,167.4-5,17.7-2.16,24.54,17.6,20.69,112.36-21.91,225.27-18.2,338-4.13,27.78,3.47,30.31-2.68,24.67-28.1-40.3-181.3-57.25-363.14-4.6-545.3,4.31-14.93-1.28-17.64-14.54-17.72-87.73-.53-175.47-.76-263.17-2.8-34.46-.8-59,11.27-77.14,40.66-8.76,14.2-21.8,25.86-33.43,38.18-18.72,19.82-37.94,18.49-56.14-.61s-36.82-38-53.16-58.6c-9.89-12.49-20.08-16.87-35.78-16.8-134.92.62-269.86,1.51-404.75-.45-32.18-.47-52,8.93-68.23,36.34C486.33,199,383.23,279.72,258.51,335c-52.42,23.25-52.26,23.82-36,78.09,52.27,174.51,60.63,352.29,38.22,532.05A1495.45,1495.45,0,0,1,208.29,1194.46ZM1374.9,895.32c-8.94-7.8-11.59-10.28-14.41-12.54Q1247,792,1142.24,691.1c-12.6-12.08-15.85-23-8.13-39.64a224.27,224.27,0,0,0,19.52-73.4c4.38-46.44-16.35-70.92-63.45-74.1-91.56-6.19-148.16,39-164.94,133.38-17.32,97.49-7.78,195.79-4.09,293.53,2.84,75.26,16.47,149.52,48.53,219.32,27.26,59.33,84.89,74.83,135.94,34.92a117.24,117.24,0,0,0,35.67-46.58c26.94-62,33.52-124.87,8-189.34-7.26-18.33-12.56-37.47-17.92-56.48-5.43-19.21-2.07-30.26,21.35-20.6C1222,900.66,1294.84,893.56,1374.9,895.32Z"/><path class="cls-2" d="M208.29,1194.46a1495.45,1495.45,0,0,0,52.44-249.28c22.41-179.76,14-357.54-38.22-532-16.26-54.27-16.42-54.84,36-78.09C383.23,279.72,486.33,199,556.59,80.39c16.23-27.41,36-36.81,68.23-36.34,134.89,2,269.83,1.07,404.75.45,15.7-.07,25.89,4.31,35.78,16.8,16.34,20.64,35,39.51,53.16,58.6s37.42,20.43,56.14.61c11.63-12.32,24.67-24,33.43-38.18,18.14-29.39,42.68-41.46,77.14-40.66,87.7,2,175.44,2.27,263.17,2.8,13.26.08,18.85,2.79,14.54,17.72-52.65,182.16-35.7,364,4.6,545.3,5.64,25.42,3.11,31.57-24.67,28.1-112.69-14.07-225.6-17.78-338,4.13-19.76,3.85-22.63-3-17.6-20.69,15.62-55,23-110.62,10-167.4-21.18-92-83-144.25-177.24-149.86C896.42,294.41,812,345.06,760.24,457c-30.09,65.08-45,134.21-49.33,204.93-8.23,133.42,3.47,264.65,48.61,392,28.76,81.15,80.63,142.18,154.71,182.52,109.77,59.78,248.86-10.16,282.31-139.12,14.3-55.19,13.12-110-5-166,20.52-6.07,39.45,2.43,58.41,3.75,93.82,6.58,186.53-2.73,278.62-19,21.32-3.76,25.4,1.53,25.41,21.52,0,100.9,4.5,201.61,24.38,300.86,3.36,16.79-2.64,24.73-15.58,31.34q-155.37,79.37-233.65,235.31c-7,13.94-17.87,11.56-28.59,12-182.63,7.24-365.34,6.16-548,4.37-51.88-.51-103.77-1.9-155.63-1.37-16.92.17-24.82-6.1-31.6-21.08C522.79,1405.27,454,1334.29,369.82,1277,319.15,1242.48,264.27,1216.05,208.29,1194.46ZM316,752.81c-.56,133.47-18.05,264.71-53.75,393.28-6.05,21.76-2.6,30.56,19.44,38.72,141.92,52.58,256.55,137.89,323.51,278,5.71,12,13.71,16,26.6,15.94q324.06-.42,648.12-.16c9.91,0,16.47-1.21,21.58-12.64,46.21-103.37,122.7-176.77,225.4-223.27,11-5,15.65-9.49,12-23.26-20.48-77.13-24.24-156.21-23.79-235.49.12-21-3.31-27.74-26.92-23-79.74,15.86-160.27,24.8-241,6.66-20.54-4.61-18,7.17-15.36,18.42,6.37,27,6.51,54.42,4.57,81.64-4.76,67.05-25.6,127.82-79.27,171.82-77.46,63.52-164.3,59.67-250.81,25.26C800,1222.42,748.86,1132,715.34,1029.27c-28.63-87.69-35.57-178.83-40.1-270.21-.44-84,.47-167.84,23.44-249.6,37.87-134.8,121.37-233.52,277-246.54,126.78-10.61,218.77,50.64,250.76,173.79,10.83,41.69,12.13,83.77,11.28,126.3-.19,9.43-4.93,21.85,14,19.22,78-10.85,156.14-7.2,234.1,1.13,22.76,2.44,30.73,0,25.2-27.7a1131.86,1131.86,0,0,1-15.25-343.31c4.79-44.65,15.43-87.85,28-132.64-80.32,0-157.68.35-235-.39-11.56-.11-16.86,6.44-23.27,12.9-27.16,27.43-53.76,55.42-81.33,82.42-31.82,31.17-36.84,31.14-69.66,2.54-27.15-23.64-50.81-50.65-71.65-79.86-8.54-12-17.43-17.39-32.5-17.22q-192.51,2.22-385,3c-11.42.06-18.14,2.78-24.38,13.76-45.47,80-103,149.12-180.47,200.89-48.58,32.48-98,62.53-155.41,76-14.92,3.51-12.89,8.86-8.64,19.1,13,31.33,21.91,63.92,29.22,97C304.77,576.5,311,664.58,316,752.81Z"/><path class="cls-3" d="M1538.86,1219.43c-20.48-77.12-24.24-156.21-23.79-235.49.12-21-3.31-27.74-26.92-23-79.74,15.86-160.27,24.8-241,6.66-20.54-4.61-18,7.17-15.36,18.42,6.37,27,6.51,54.42,4.57,81.64-4.76,67.05-25.6,127.82-79.27,171.82-77.46,63.52-164.3,59.67-250.81,25.26C800,1222.42,748.86,1132,715.34,1029.27c-28.63-87.69-35.57-178.83-40.1-270.21-119.82,1.6-239.55-2-359.27-6.25-.56,133.47-18.05,264.72-53.75,393.28-6.05,21.76-2.6,30.56,19.44,38.72,141.92,52.58,256.55,137.89,323.51,278,5.71,12,13.71,16,26.6,15.94q324.06-.43,648.12-.16c9.91,0,16.47-1.21,21.58-12.64,46.21-103.37,122.7-176.77,225.4-223.27C1537.82,1237.73,1542.52,1233.2,1538.86,1219.43ZM1328,1031.54c-1.86-.36-4.2,0-6.24-.17h0C1323.81,1031.49,1326.15,1031.17,1328,1031.54Z"/><path class="cls-1" d="M1321.72,1031.07l-2.11-.89,1.83,1.18Z"/><path class="cls-1" d="M1495.74,212.35c4.79-44.65,15.43-87.85,28-132.64-80.32,0-157.68.35-235-.39-11.56-.11-16.86,6.44-23.27,12.9-27.16,27.43-53.76,55.42-81.33,82.42-31.82,31.17-36.84,31.14-69.66,2.54-27.15-23.64-50.81-50.65-71.65-79.86-8.54-12-17.43-17.39-32.5-17.22q-192.51,2.22-385,3c-11.42.06-18.14,2.79-24.38,13.76-45.47,80-103,149.12-180.47,200.89-48.58,32.48-98,62.53-155.41,76-14.92,3.51-12.89,8.86-8.64,19.1,13,31.33,21.91,63.92,29.22,97C304.77,576.5,311,664.58,316,752.81c119.72,4.23,239.45,7.85,359.27,6.25-.44-84,.47-167.84,23.44-249.6,37.87-134.8,121.37-233.52,277-246.54,126.78-10.61,218.77,50.64,250.76,173.79,10.82,41.69,12.13,83.77,11.28,126.3-.19,9.43-4.93,21.85,14,19.22,78-10.85,156.14-7.2,234.1,1.13,22.76,2.44,30.73,0,25.2-27.7A1131.86,1131.86,0,0,1,1495.74,212.35Z"/><polygon class="cls-3" points="571.56 201.91 623.8 234.05 679.9 209.24 665.47 268.86 706.41 314.54 645.25 319.24 614.45 372.29 591.08 315.58 531.11 302.68 577.82 262.93 571.56 201.91"/><polygon class="cls-3" points="1316.16 207.98 1357.4 253.38 1418.19 245.14 1387.75 298.4 1414.37 353.66 1354.32 341.18 1309.98 383.57 1303.3 322.59 1249.29 293.53 1305.21 268.33 1316.16 207.98"/><polygon class="cls-3" points="463.81 480.82 514.02 516.05 571.51 494.65 553.53 553.29 591.64 601.35 530.31 602.37 496.38 653.47 476.46 595.46 417.38 578.98 466.39 542.11 463.81 480.82"/><polygon class="cls-1" points="676.96 1250.6 712.17 1300.82 773.51 1300.29 736.62 1349.3 756.09 1407.47 698.08 1387.53 648.77 1424.02 649.8 1362.69 599.86 1327.07 658.51 1309.1 676.96 1250.6"/><polygon class="cls-1" points="508.35 917.39 533 973.57 593.24 985.11 547.43 1025.9 555.08 1086.76 502.12 1055.81 446.6 1081.88 459.68 1021.95 417.72 977.21 478.76 971.12 508.35 917.39"/><polygon class="cls-1" points="1188.74 1269.59 1213.39 1325.76 1273.63 1337.3 1227.83 1378.09 1235.47 1438.95 1182.52 1408 1126.99 1434.07 1140.07 1374.14 1098.12 1329.4 1159.15 1323.31 1188.74 1269.59"/><polygon class="cls-1" points="1421.86 1008.44 1416.26 1069.52 1463.41 1108.76 1403.59 1122.32 1380.84 1179.28 1349.46 1126.57 1288.26 1122.54 1328.69 1076.41 1313.61 1016.96 1369.97 1041.15 1421.86 1008.44"/></svg>