<svg id="Layer_1" data-name="Layer 1" xmlns="http://www.w3.org/2000/svg" viewBox="0 0 5192.99 2483.19"><defs><style>.cls-1{fill:#c92730;}</style></defs><path class="cls-1" d="M4605.75,1804.46l-6.43,16.28c-32.77,83.81-68.94,166.48-96.73,251.89-20.87,64.12-55.61,86.5-122.36,76.24-144.24-22.15-288.33-17.54-433.13,4.61-208,31.82-404.32,3-575.95-131.18-62.36-48.75-96-121.21-149.91-181.54-29.29,123.15-57.1,240.11-84.91,357.06H2006.05c-25.26-69.31,1.23-92.81,72.57-97,113.32-6.69,138-34.26,138.61-146.78,1.8-312.74,10.21-625.58-4.56-938.22-4.6-97.45-29.79-121.21-128.84-136.15-30-4.52-68,2.24-67.24-46.49.86-52.41,41.4-37.13,69.9-39.31,193.08-14.8,386.54-9,579.87-8.79,24.74,0,62.48-16.89,66.38,32.05,3.71,46.43-20.93,55.08-62.29,59.25C2566,886.88,2540,913.19,2540.14,1016.68c.47,318.13,4.36,636.27,7.41,954.4.63,65.47,31.39,100.46,100.57,106.89,135.75,12.62,271.81,29.09,373.32-90.15,32.12-37.73,61.2-81.33,78.84-127.16,19.71-51.24,37.25-89.18,114.36-45.87-46.63-132-67.51-247.67-62.15-366.65,5.11-113.64,18.23-226.28,57.75-333.93,107.46-292.66,330.87-424.56,643.41-356.49,186.3,40.57,369.59,57.59,557.67,35.94,58.69-6.75,94.21,6.69,98.19,77.07,4.13,73.37,22.52,145.9,33.94,218.92,4.08,26.11,22.68,54.86-25.89,66.07-40.48,9.34-62,6.73-77.71-36.48C4317.28,782,3916.27,780.3,3716.88,955c-147.8,129.48-202.38,301-204.65,486.91-2.11,173.85,45.33,336.72,158.81,477.76,189.63,235.7,554.33,234.77,737.63-6.34,19.15-25.17,41.69-49.48,53.79-77.93,31.29-73.5,75.23-81.38,133.74-38.15l.14.1,4.58,3.49Z"/><path class="cls-1" d="M4600.92,1800.76v0l-4.58-3.49C4597.86,1798.42,4599.39,1799.58,4600.92,1800.76Z"/><path class="cls-1" d="M589.21,833.75a35.37,35.37,0,0,1,33.53-35.33c345.56-18.2,692.19-42.8,1035,20.35,280.25,51.64,477.84,256.46,508.19,498.05,41.55,330.72-91,600.26-358.47,738.08-136,70.08-255.84,95.84-404.08,126-5.15,1.05-54.91,5.22-155.09,8.75a36.27,36.27,0,0,1-4-.1c-206.45-16.65-413.23-5.53-619.86-7.24A35.41,35.41,0,0,1,589.21,2147v-7.27A35.08,35.08,0,0,1,613.83,2106a34.09,34.09,0,0,1,3.69-.88c166.66-28.56,168.37-30.46,168.13-201.71,0-10.42,1.41-20.84,1.33-31.26q-3.26-433.26-7-866.51c-.76-74.21-39.24-119.21-114.5-125-24.17-1.86-45.47-5.46-62.85-19.12a35.27,35.27,0,0,1-13.43-27.76Zm517.35,760.78a36.35,36.35,0,0,0,1.17,10.49c11.6,45.11-2,103.2,1,161.4,3.18,59.82-1,120.4,5.21,180.54,9.25,88.88,44.58,131.63,133.53,137.46,141.17,9.24,272.7-20.21,381.18-120.2C1801.24,1805.15,1831,1599,1812.4,1382.75c-27.27-317.68-248.33-511.76-559.57-503.26-125,3.41-155,32-153.8,155.73C1100.84,1217.11,1114.46,1398.83,1106.56,1594.53Z"/><path class="cls-1" d="M4379.18,281.59c49.24,120,52.46,228.11,21.55,335.74-38.33,133.48-219.28,211.41-344.32,154.81-34.17-15.47-28.37-42.38-26.11-66.58,12.75-136.27,103.21-221,206.05-293.61C4285.92,377,4338.52,347.31,4379.18,281.59Z"/><path class="cls-1" d="M3994,684.66c-12.1-77.42-14.55-155.7-54.05-226.95-15.08-27.21,12.9-35.5,31.39-43.88,31.77-14.4,29.07,16.16,30.75,29.19C4012.46,523.16,4015.35,603.57,3994,684.66Z"/><line class="cls-1" x1="4596.2" y1="1797.2" x2="4596.03" y2="1797.07"/></svg>