<svg id="Layer_1" data-name="Layer 1" xmlns="http://www.w3.org/2000/svg" viewBox="0 0 7796.82 2506.21"><defs><style>.cls-1{fill:#fff;}.cls-2{fill:#a62b2a;}</style></defs><path class="cls-1" d="M9009.59,2823.17c-31.91,0-63.26.43-94.58-.12-30.2-.53-44.79-14.79-44.26-41.78.51-26.44,14.39-39.16,43.92-39.36,42.38-.28,84.77-.48,127.16-.09,38.9.35,51.76,13.45,51.76,51.66q0,927.53,0,1855c0,49.89-11.17,60.74-61.57,60.74H7569.63c-44.12,0-56.6-11.87-56.6-55q-.14-930.6-.12-1861.2c0-37.25,13.92-50.59,52.85-50.6q527.11-.18,1054.23.11c16.27,0,22.14-5,28.73-20.3,23.36-54.36,49.42-107.59,75.48-160.75,12-24.45,28.3-46.88,39.26-71.72,24.35-55.21,12.9-109.73-30.49-152-41.22-40.15-91.66-60.49-148.39-66.6-81.17-8.73-158.28,13.23-236.1,30.5-36.58,8.11-73.26,17.31-110.4,21-36.29,3.59-73.21.78-113.9.78,6.34,4.77,13.79,9,19.54,14.94,61,62.74,122.05,125.37,182.35,188.76,76.94,80.88,206.41,87.65,291.1,14.53,7.74-6.68,15.14-14.25,24-19,5.66-3,16.11-4.56,20-1.37,4,3.31,5.18,13.83,3.36,19.95-8.85,29.77-27.47,53.32-51.69,72.12-81.93,63.6-225.47,56.18-299.52-16.55a448.24,448.24,0,0,1-57.7-69c-66.86-99.38-142.66-190.15-239.82-261.67-6.16-4.53-8.68-14-12.89-21.2,8.08-1,18.57-5.82,23.89-2.45,83,52.48,169.63,33.12,255.83,13.14,103.22-23.92,206.44-47,313.42-41.64,83.79,4.2,159.9,28.25,219.57,90.75,49.49,51.84,60.82,124.53,25.9,187.4-20.8,37.44-48.35,71.08-71.92,107.05-36.67,55.93-62.26,116.59-74.78,182.51-6,31.43-19.8,42.54-51.62,42.51q-452.23-.43-904.48-.69c-47.12,0-94.24,0-142.8,0V4625.51H9009.59Z"/><path class="cls-2" d="M3261.52,261.16c55.16,10.3,110.08,23.56,166.84,14.56,9.12-1.42,17.76-5.8,26.58-8.82,0-3-.06-6-.06-8.94-80.61-46.22-172.47-62.32-259.71-93,34.44-6.09,71.61-1.12,106.3-26.22-14.27-7.4-24-14.74-34.86-17.64-58.48-15.68-116.48-35.27-176.08-44.15-121.16-18-243.2-30.07-365-44.51-39.89-4.67-79.84-9-119.79-13.61C2413.25,7.9,2303,14.47,2303,14.47c-40.65,7.4-81.85,9.76-122.16,17.16-80.67,14.74-161.4,31.55-180.1,131.75q-83.19,161.24-166.49,322.39c-4.92,9.35-11.66,16.57.71,26.28,12.66,10,18.7,4,27.1-5.33,10.36-11.48,23.38-20.47,33.5-32.07,3.79-4.27,6-15.1,3.26-19-10.95-15.57-4.85-29.36,7-36.4,14.33-8.47,21.25-15.27,25.81-33.5,7.28-29.06,25.51-55.46,38.89-83.1,1.53-3.14.76-7.34,2.24-10.6a218.2,218.2,0,0,1,10.77-20.3c6.4-11,18.59-21.84,18.65-32.79.12-41.13,35.63-53.38,59.54-83.27,2.25,11.78,4.86,17.81,4.26,23.5-1.77,16.8-5.38,33.44-7.22,50.24-1.54,14-.41,28.3-2.72,42-1.24,7.34-5.74,17.69-11.48,20.12-30.54,12.73-36.28,22-30.48,54.81,1.18,6.74,2.19,18.29-1.25,20.36-24.56,15.21-25.63,35.87-17.46,54.39-9.17,14.44-17.4,24.44-22.43,35.87-10.83,24.26-19.12,49.6-30.13,73.74-6,13.14-12.66,30.19-23.91,35.87-31.78,16.1-33.85,39.6-29.35,70.32,6.27,43,8.46,86.41-36.64,114.23-1.72-2.25-3.08-5-5.27-6.81-5.8-4.62-11.89-8.82-17.87-13.2-.65,7.4-3,15.15-1.66,22.25,5.92,31.91,12.79,63.63,19.59,95.35,15,70.61,30.78,141,44.57,211.77,2.72,13.8,5.92,23.44,19.47,28.53,11,4.15,12.91,10.42,11.13,23.8-2.55,19.41-19.18,42.73,6.81,60,2.18,1.48,1.83,8.35,1.06,12.43-3.79,20.66,5.27,33.91,23,42.5,0-.12,0-.3-.11-.42l.47.18c.06-.65,0-1.3.36-1.66,6.39-6.63,12.9-13.2,19.41-19.77,1.95,4,6.39,8.65,5.44,11.72-4,13.5-13.73,14.62-25.21,9.71.06.12,0,.3,0,.41l-.36-.17a84.87,84.87,0,0,0,3.38,10.06c14.14,30.66,25.86,32.67,49.84,9.76,7.33-7,16.57-12,25-17.93,1.72,1.89,3.49,3.79,5.21,5.68-3,41.14-44.63,56.82-57.59,84-16.28-21.9-31.31-46.11-50.37-66.65-17.46-18.94-27.93-39.53-31.25-64.33-2.19-16.1-3.43-32.32-5.92-48.36-7.63-49.12-6.27-100.91-41.6-141.93-3.79-4.38-8.29-8.17-16.11-15.8-2.07,13.55-3.19,21.43-4.55,29.18-3.91,22.49-6.51,45.4-12.73,67.23-2.19,7.58-12.72,15.93-20.65,17.47-4.38.88-14.27-10.84-16.63-18.41-12.08-38.71-22.32-78-33.44-117-5.57-19.6-18.35-30.66-38.83-34.63-30-5.74-32.2-11.13-18.53-37.58,11.31-21.84-13.14-81.27-36.28-88.07a10.07,10.07,0,0,0-4.44-.18c-25.92,4.56-36.4-12.13-45-32.14-7.28-16.87-15.15-33.5-23.38-50-7.63-15.33-17.22-20.3-29.29-3.79-9.83,13.44-20.19,11.3-28.35-.89-5.63-8.22-12.43-18.4-12.08-27.46,1.19-30.19-20.18-41.85-40.07-56.7-14.08,13.37-7.63,25.57-2.48,38.88,3.9,10.18,8.16,23,5.14,32.44-7.75,24.5-19,47.94-29.71,71.38-2.37,5.21-7.69,9.76-12.66,12.9-12.85,8.05-26.75,14.38-39.36,22.67-23.91,15.8-45.93,34.92-71,48.41-80.49,43.33-167.49,66.47-257.58,79.73-12,1.71-23,9.88-34.44,15l2,5.33h63.45c9.35,4.62,17.16,7.93,24.38,12.25,3.32,2,5.51,6,8.17,9.06-3,2.54-5.8,6.86-9.17,7.39-10.89,1.78-22.08,2-33.09,3.26-15.21,1.72-33-.59-45,6.69-16.4,10-26.69,9.17-37.88-4.5-6.87-8.35-12.25-11.13-23.67-3.67-34.87,22.85-73.63,12.13-111,8.23-5.8-.6-10.83-8.29-16.28-12.73q6-6.21,11.84-12.43c3.2-3.31,6.39-6.57,9.59-9.82-4.08-2.43-8-5.86-12.43-7-7.1-1.71-15.56.12-21.72-3-32.5-16.33-55.05,7.11-75.76,22.61-18.64,14-33.26,36.23-43.62,57.77-45.81,95-89.43,191-133.59,286.88-2.48,5.33-2.6,11.72-4.55,20.95,12.25-3.79,20.18-6.33,30.89-9.65-2.42,32.08-.59,59.31,32.73,75.17,18.35,8.76,30.13,12.78,44.69-3.43,10.3-11.48,17.81-25.39,27.58-37.41,9.94-12.19,23.26-22.13,31.37-35.33,13.32-21.9,42.08-32.44,44-63.1.6-9.47,10.19-18.34,15.63-27.52,2.49.71,4.91,1.42,7.34,2.07q7.27,24.06,14.5,48.06c14.8,20.84,19-7.75,33.91-7.75,40,101.27,76.29,204.55,98.37,314.22,6.75-7.75,8.11-16,11.25-23.61,2.72-6.63,6.33-13.5,11.42-18.35,6.33-6.1,14.32-10.66,22-15.21,11.48-6.75,22.67-15.39,35.15-18.76,28.77-7.7,59.25-9.77,87.25-19.36,48.59-16.63,95.76-37.29,143.58-56,4.74-1.89,10.3-1.48,15.1-3.2,13.61-5,27.28-10,40.42-16,12.67-5.8,24.5-13.37,37.11-19.29,27.11-12.73,54.87-24,81.62-37.47,15.56-7.87,28.53-22.37,44.69-27.58,27.46-8.82,46.81-26.27,66.4-45.75,17.7-17.52,37.23-34,58.42-47,27.34-16.81,43.32-6.81,42.73,24.09-1.66,84.87-3.73,169.74-5.44,254.62-.83,39.12-1.07,78.24-1.95,117.37-.42,16.63,6.27,23.85,23.67,23.73,22.07-.12,44.15,2.66,63.39-12.13,3.13-2.43,8.7-3.5,12.66-2.73,27.94,5.45,47-9.88,63.33-28.41,10.54-12,16.22-9.11,23.56,1.66a112.68,112.68,0,0,0,11.24,13.61c25.81,27.35,44.63,26.64,70.62-.82,5.91-6.34,15.44-13,23.31-13,16.22.12,24.92-7.57,35-18.76,22.14-24.62,42.5-52,81.62-52.91,22.73-.53,33-15.74,31-40-1.42-16.75-6-33.26-8.88-49.9-1.66-9.41-2.84-18.88-4.2-28.35l7.51-2.13c3.14,5.68,7,11.13,9.24,17.17,6.74,17.75,16,22.31,31.6,10.77,17-12.61,33.38-27,47-43.09,17.23-20.42,13.68-44.21-5.44-63.51-5.09-5.15-9.12-11.36-13.67-17.1,1.48-1.3,3-2.61,4.44-4,4.61,4.21,8.64,9.89,14,12.08s15.51,3.13,17.58.29c3.67-5.09,4.62-13.79,3.26-20.24-1-5-7.11-9.11-11.13-13.43-77.53-82.63-164.54-154.6-252.78-225.27-8.29-6.63-15.51-14.56-23.5-22.13,36.34-21.13,69.9-40.43,103.22-60.14,7.46-4.38,15.86-8.88,20.77-15.56,16.28-22.14,33.74-41.32,55.88-59.37,70.84-57.88,140.8-117.78,188.33-198.45,7.69-13.08,19-24.92,31-34.33,46.34-36.16,85.23-79.25,121.75-124.82,8.28-10.36,17.87-19.77,25.68-30.43,10.07-13.79,20.9-16.63,38.12-12.49,11.6,2.79,27.88-1.18,38-8,11-7.52,19-8.76,31.84-7.11,48.89,6.1,98,5.09,143.71-15.33,44-19.65,88-25.39,134.11-10.06,28.36,9.41,55.93,7.7,80.56-9.29,13.2-9.17,24.5-10.36,39-4.2,28.53,12.13,57.94,8.34,87.12,1.65,12.55-2.9,19.06-8.46,10.13-21.6-2.13-3.19-3.08-7.28-5.39-12.9,8.11-.42,14-1.66,19.53-.77,33.68,5.39,67,10,100.91-.18,8.41-2.54,19.12.65,28.24,3.14,32.73,9,65,19.77,98,28a93.92,93.92,0,0,0,39.18,1c14.27-2.72,18.65-12.43,5.09-23-13.32-10.36-26.57-21.43-41.49-29.24-54.86-28.89-110.5-56.41-165.72-84.64-23.67-12.07-47-24.56-70.55-36.81.77-1.78,1.6-3.55,2.37-5.33,4.91.59,10.06.41,14.73,1.89,47.12,15,93.87,31.25,141.22,45.46,55.05,16.51,110.15,34.74,168.92,29.89,8.82-.71,17.22-7.1,25.81-10.89-6.1-7.58-10.66-18.23-18.53-22.26-32.25-16.21-65.1-31.72-98.66-45-35.87-14.26-72.8-25.86-109.32-38.59.47-2.07.95-4.14,1.42-6.21C3213.69,252,3237.6,256.72,3261.52,261.16ZM1401.1,848.71c15.57-11.49,59.24,6.92,71.08,31.25C1444.78,888,1440,885.76,1401.1,848.71Zm242.72,69.89c-11.18,10.24-24.56,19.48-38.59,24.74-14.2,5.33-29.59,4.44-34.38-16.09-1.37-6-6.57-11-10.66-17.52-24.86,12.25-37.17,5.09-48-27.29,31.78,7,63,10.95,91.86,21.37,16.51,6,25.57,8.88,31-11.31C1651.4,898.24,1655.48,908,1643.82,918.6Zm211.3,256.46c1.72-2.37,12.37-2.25,14.32.3,10.42,13.43,9.47,26.69-5.68,40.13C1850.92,1202.29,1844.11,1189.92,1855.12,1175.06Zm-158.56,248.59q25.92-6.14,51.79-12.26c.77,3.32,1.54,6.63,2.31,9.89q-25.94,6.21-51.79,12.43C1698.1,1430.33,1697.33,1427,1696.56,1423.65Zm57.35,61.73c-12.07,4.91-25,7.75-39.77,12.07-3.08-2.25-9.35-4.67-9.71-7.75-.41-3.91,3-10.6,6.45-12.08a199.7,199.7,0,0,1,37.29-12.25c4-.83,9.35,4.5,14.09,7C1759.54,1476.85,1757.82,1483.78,1753.91,1485.38Zm77.36-66.83c-7.88-10.35-16.52-16.92-16.81-23.79-.18-4.79,12-15,16.93-14.08,8.82,1.71,16.39,10,24.44,15.56C1848.9,1402.52,1842,1408.79,1831.27,1418.55Zm35.45,106.54c-1.36-1.95-2.72-3.91-4.14-5.86l21.66-23.79c2.37,3.14,7,8.7,6.69,9C1883.17,1511.66,1874.89,1518.34,1866.72,1525.09Zm-11.84-51.2c-7-8-11.42-13.08-15.74-18.17,9.76-7.39,18.7-17.75,29.71-21.07,5.33-1.59,14.62,9.95,22.14,15.57C1880.1,1457.38,1869.21,1464.48,1854.88,1473.89Zm21.78-164.06c-1.3.77-2.66,1.48-4,2.25.29,6.51.65,13.08,1.24,25.45-8-8.52-13.91-12.37-16.22-17.76-26.45-61.85-75.93-106.36-117.72-156.61-17.93-21.54-36.93-42.14-54.8-63.68-4.62-5.56-6.87-13.14-10.18-19.77,2.07-1.83,4.08-3.73,6.15-5.56,6.39,3.9,13.73,6.86,18.94,12a155.68,155.68,0,0,1,20.9,25.69c36.22,55.75,87.3,97.18,134.23,142.88,22.55,22,36.75,52.49,54.33,79.37,1.84,2.9.77,7.63,1.48,16.92C1897.26,1334.51,1887,1322.2,1876.66,1309.83Zm74.58,114.76c-1.06.71-8-7.57-12.31-11.72,10.89-10.83,21.48-22,33.14-32,1.13-.94,8.64,5.45,20.13,13C1975.51,1406.72,1963.79,1416.31,1951.24,1424.59Zm39.18,47.65c-11.36-17.58-5-25.1,6.93-28.65,2.72-.83,6.86,3.08,10.35,4.85C2002,1456.38,1996.16,1464.31,1990.42,1472.24Zm40.66-123.64c-4.55,2.66-12.07.35-18.17.35.06-5.44-2-12.43.59-16.1,9-12.84,19.59-24.56,33.21-40.95C2054.28,1320.19,2050,1337.47,2031.08,1348.6Zm25.1,49.48c-2,2.48-10.3.06-15.69-.06.54-5.09-.77-11.78,2-14.92,8.94-10.18,19.35-19.11,29.18-28.53,3,2.14,6.09,4.21,9.17,6.28C2072.75,1373.4,2065.35,1386.42,2056.18,1398.08Zm-1.42-106.66q6.21-10.38,12.43-20.65c3.61,2,7.28,4,10.94,6-3.54,6.81-6.74,13.85-11.18,20.07C2066.42,1297.58,2059,1293.32,2054.76,1291.42Zm-5.74-87.06c31.66,23.61,61.67,49.12,83.92,82.45,3.55,5.26,5,14.73,2.61,20.24-1.84,4.2-12.37,8.52-16.75,6.8-4.68-1.77-6.63-10.59-9.89-16.33-6.51-11.25-11.95-23.38-19.94-33.44-14.86-18.59-31.25-35.93-47-53.8C2044.34,1208.32,2046.65,1206.31,2049,1204.36Z"/><path class="cls-2" d="M3450.76,2147.14q0-66.29,0-132.55c-.07-92.32.35-184.64-.68-276.94-.24-21.73,5.58-31.22,28.7-29.2,20.54,1.8,41.41,1.22,62.05.14,17.74-.92,24.15,6.72,22.59,23.44-.47,5.12,0,10.33,0,15.5q0,360,0,720.07c0,36.37-.07,36.38-37.2,36.38-23.66,0-47.34-.72-71,.2-15.92.62-24.45-5.26-28.55-20.88q-43.83-167-88.48-333.78-21.93-82.29-44.4-164.43c-1.08-3.95-3.9-7.42-10.88-11.09-.79,7.87-2.26,15.73-2.26,23.6q-.21,236-.08,471.92c0,34.06-.19,34.37-34.67,34.45-18.48,0-37-.36-55.44.17-14.89.42-21.94-5.86-21.62-20.91.34-16.24.09-32.5.09-48.74q0-346.74-.07-693.49c0-32.22,0-32.21,31.39-32.17,34.74,0,69.49.45,104.22-.09,14.57-.22,22,3.94,26.1,19.65,31,120,63.08,239.66,95.08,359.37,5.43,20.33,12.1,40.32,18.19,60.47Z"/><path class="cls-2" d="M6295.18,2144.54v-27.63q0-189.42,0-378.84c0-29.32.19-29.35,29.63-29.34,20,0,39.94.75,59.87,0,17-.68,23.77,5.49,23.26,23.18-1.05,36.89-.29,73.84-.3,110.76q0,316.82.27,633.62c.06,19.77-5.31,28.64-26.07,27.86-28.05-1-56.17-.68-84.25-.13-15.18.29-22.94-6.65-26.67-20.83Q6222,2297,6172.59,2110.88c-11.54-43.44-23.66-86.71-35.78-130-1.1-4-4.1-7.37-10.89-10.79-.55,8.82-1.58,17.63-1.58,26.45q0,238.16.12,476.3c0,30.39-.9,31.09-31.08,31.13-19.22,0-38.45-.57-57.65.1-17.42.62-24-7.31-23.08-24.08.67-11.77,0-23.62,0-35.44q0-352.24.06-704.51c0-31,.31-31.36,30.36-31.36,36.22,0,72.44.38,108.65.13,12.94-.09,19.44,4.38,23,18q47,180.95,95.52,361.5c5.17,19.34,11.85,38.28,17.84,57.41Z"/><path class="cls-2" d="M4635,2104.16q0-181.62,0-363.25c0-31.93.05-32,30.89-32.07,59.11-.07,118.26-1,177.34.51a254.15,254.15,0,0,1,67.2,11.28c60.65,18.63,91.17,63.83,97.54,124.31,4,38,2.82,76.7,1.11,115-2,44.81-20.94,82.57-56.25,111.08-9.51,7.68-13.5,13.35-.5,21.35,47.19,29,66.43,74.91,69.27,126.91,2.56,47,2.76,94.76-2.8,141.38-10.48,87.71-72.09,141-161,142.89-66.48,1.44-133,0-199.52.77-19.16.21-23.56-8.54-23.5-25.8C4635.22,2353.71,4635,2228.94,4635,2104.16Zm260.59,169.41H4895c0-19.18,1-38.42-.21-57.52-2.65-40.93-23.32-62.06-63.88-65.57-16.88-1.47-33.94-.72-50.92-1.12-12.65-.3-19.21,5.09-19.17,18.36q.33,101.86.28,203.74c0,13,6.54,18.65,19.38,18.29,19.19-.53,38.46.21,57.59-1.15,36.64-2.62,54.63-20.56,57.23-57.51C4896.68,2312,4895.57,2292.75,4895.57,2273.57ZM4761,1927.44q0,27.63,0,55.26c0,55.59,3.35,58.46,59.14,51,2.92-.39,5.79-1.15,8.7-1.57,28.08-4.06,46.05-20.13,51.3-47.55a335.75,335.75,0,0,0,6.11-63.48c-.17-81.74-19.55-99.82-100.73-99.38-18,.1-25.43,5.5-24.78,23.93C4761.68,1872.89,4761,1900.18,4761,1927.44Z"/><path class="cls-2" d="M5397.23,2112.26c12.18,9.94,22,16.49,30.05,24.77,32.82,33.75,43.64,75.86,44.67,121.46q2.27,99.56,4.56,199.12c.32,14.71,6,34.76-1.25,42.61-7.12,7.67-27.67,3.25-42.34,3.5-19.2.32-38.62,1.59-57.54-.77-7.83-1-18.3-8.89-21.07-16.13-4.85-12.71-6.16-27.31-6.35-41.15-.72-50.93-.32-101.87-.48-152.81,0-9.59-.34-19.21-1.16-28.75-6.15-70.91-38-89.18-109.65-85.51-15.75.8-14,11.94-14,22.31q0,131.78,0,263.55c0,39.61.07,39.55-38.75,39.45-20.69,0-41.41-.52-62.06.41-19.13.87-25.84-6.89-25.74-26.09.6-108.52.17-217.05.17-325.57,0-138.79.52-277.58-.37-416.36-.14-21.63,6.64-28.15,27.7-27.8,62.05,1,124.28-2.38,186.17.94,95.84,5.14,152.6,50.16,160,148.49,4.17,55.69,8.11,112-7.15,167.15C5452.57,2061.37,5432.34,2090.15,5397.23,2112.26ZM5222.62,1943h-.06q0,34.29,0,68.59c.08,57.46,7.24,63,65,51.31,29.64-6,52.51-21.24,54-52.72,2.22-46,3.27-92.6-1.47-138.29-3.65-35.25-22-46.86-57.63-49.41-11.76-.84-23.69.51-35.4-.59-18.14-1.69-25.31,5.27-24.74,23.77C5223.34,1878.12,5222.62,1910.59,5222.62,1943Z"/><path class="cls-2" d="M4068.84,1710.39c9.87-.66,17.07-1.54,24.27-1.56,60.58-.14,121.16-.57,181.73-.06,101.5.85,159.43,53.18,166.66,153.74,3.11,43.26,2,87.1-.84,130.44-3.27,49.55-25.78,90.16-69.58,118.13,3.12,4.25,4.59,7.9,7.3,9.7,49.61,33,63.51,82.89,64.76,138.2,1.37,61.22,1.28,122.48,2.57,183.7.29,13.9,3.13,27.81,5.65,41.56,2.46,13.41-2.45,19.65-16,19.6-30.28-.09-60.65,1.11-90.8-.92-7.35-.5-17.46-10.24-20.17-17.89-4.28-12.13-4.4-26.08-4.53-39.27-.49-49.45-.17-98.9-.39-148.35a300.46,300.46,0,0,0-1.68-33.14c-7.67-66.34-31.66-86.66-98.32-86.4-18.94.07-25.91,5.7-25.71,25.43.91,87.08.34,174.18.47,261.27.06,39.37.17,39.42-39.07,39.42-21.42,0-42.87-.49-64.26.3-16.18.6-22.61-5.85-22.22-22.08.71-29.51.16-59.05.16-88.57q0-326.59,0-653.19Zm250.27,228c-1.77-20.89-3-43.68-5.81-66.27-3.18-25.62-18.77-41.79-43.67-46.57-16.48-3.16-33.75-1.87-50.56-3.66-19.8-2.1-25.67,6.72-25.39,25.54.8,55.3.3,110.61.23,165.92-.06,57.58,0,57.63,58.23,50.87.73-.09,1.48-.08,2.2-.18,35.68-5.21,54.33-22,59.81-57.65C4317.5,1984.69,4317.48,1962.46,4319.11,1938.41Z"/><path class="cls-2" d="M7330.36,2104.93q0,184.91,0,369.82c0,27.6-1.63,29.25-28.33,29.3q-34.35.06-68.71.08c-30.43.06-31.59-1-31.58-30.76q0-140.62.1-281.24c0-29.2-.46-29.62-29.72-29.79-27.34-.16-54.68,0-82,0-27.16,0-29.35,1.81-29.39,28.49q-.22,141.72-.14,283.45c0,27.72-2.53,30-30.51,29.83-23.64-.17-47.29-.48-70.92,0-15.78.33-23.44-6.27-23.07-22.24.33-14,.29-28,.29-42.06q0-349.89-.11-699.78c0-31.15-.11-31.16,31.84-31.22,22.9,0,45.84.76,68.7-.35,18.43-.89,24.27,6.4,24.15,24.49-.64,95.22-.31,190.45-.28,285.67,0,29.61.15,29.78,29.33,29.9,28.07.1,56.21-1.13,84.21.4,21.17,1.15,28.24-6.06,28-27.47-.94-94.47-.42-189-.44-283.45,0-29,0-29.14,29.59-29.26,25.12-.1,50.28,1,75.35-.22,18.57-.87,24.05,6.31,24,24.37C7330.09,1856.9,7330.37,1980.91,7330.36,2104.93Z"/><path class="cls-2" d="M2832.63,2031.67c12.1-24.07,24.64-47.93,36.2-72.26q55.08-115.89,109.3-232.17c6.13-13.23,13.94-19,28.71-18.6,33.6.82,67.23.26,106.5.26-11.65,24.93-20.23,44.15-29.5,63-44.26,90-88.44,180.09-133.31,269.82-8,16-7.64,30.21-1.13,46.45q76.16,189.89,151.38,380.14c.81,2.05,1.35,4.21,2.1,6.29,10,27.86,8.93,29.38-21.39,29.35-25.85,0-51.74-.75-77.56.25-15.08.59-22.74-5.61-27.9-19.18q-48.77-128.23-98.39-256.14c-3.63-9.4-7.77-18.61-14.15-33.82-19,30.2-38.76,53.65-39,86.23-.4,65-.9,129.92.24,194.86.38,21.66-7.52,29-28.32,28.07-23.59-1.11-47.32-1.17-70.9,0-19.75,1-25.66-7.46-25.46-26.18.73-67.9.42-135.81.4-203.72,0-180.11.13-360.22-.55-540.33-.07-19.1,5.12-26.69,25-25.52a655.54,655.54,0,0,0,73.11,0c20.13-1.07,27.06,6,26.85,26.55-.9,90.78-.37,181.58-.23,272.37,0,7.57,1,15.14,1.57,22.71Z"/><path class="cls-2" d="M5740.67,1708.9c23.64,0,47.29.46,70.91-.17,14.22-.38,21.36,4.56,23.69,19.43q30,191.21,61,382.25c15.72,97.51,31.81,195,47.63,292.46,4.13,25.48,7.52,51.08,11.86,76.52,2.91,17.06-3.05,25.06-20.86,24.74-26.58-.48-53.21-1-79.75.13-19.34.85-26.07-8.55-28.3-25.81-4.14-32.15-9.48-64.15-13.88-96.27-2.14-15.64-9-22.53-26.15-21.89-35.4,1.34-70.91,1.08-106.34.11-15.8-.43-22.73,5.4-24.66,20.78-3.94,31.46-9.64,62.7-13.21,94.19-2.32,20.44-10.51,30.4-32.57,28.88s-44.3-.6-66.45,0c-16.25.43-23-5.48-20.14-22.52q28.82-173.39,56.83-346.92c15.8-99,30.57-198.22,46-297.31,5.78-37.12,12.46-74.11,18.12-111.25,1.95-12.78,8.75-17.61,21-17.51,25.11.21,50.23.06,75.34.06Zm-4.42,182.74-5.47-.51c-1.94,7.09-4.6,14.08-5.71,21.31q-14.06,91.85-27.61,183.76c-6.62,44.46-13,89-19.77,133.39-2.71,17.64,4.56,24.3,21.91,23.73,22.14-.73,44.34-.74,66.47,0,19.63.67,25.86-6.5,22.72-26.59-14.7-93.95-28.09-188.1-42.26-282.13C5743.85,1926.84,5739.71,1909.29,5736.25,1891.64Z"/><path class="cls-2" d="M1586.6,1708.78c22.18,0,44.45,1.26,66.51-.39,19.87-1.49,27.6,6.68,30.44,25.39,11.6,76.56,24.06,153,36.28,229.44q38.25,239.35,76.53,478.71c1.51,9.47.87,19.48,3.63,28.51,11.27,36.88-3.72,33.53-30.22,33.48-23.66-.05-47.32-.25-71,.2-13.92.26-21.83-4.25-23.77-19.46-4.39-34.41-10.77-68.56-15-103-1.94-15.74-8.84-21.44-24.38-21.17-37,.64-73.93.51-110.88-.08-14.4-.22-21.09,4.59-22.8,19.77-3.71,33-10,65.7-13.81,98.68-2.1,18.06-9.75,26.25-28.46,25.45-22.88-1-45.84-.81-68.74-.13-17,.49-22.55-7.11-20.07-23.1,7.12-45.95,13.65-92,21-137.9,14.18-88.84,28.79-177.62,43.12-266.44,18.45-114.36,37.17-228.67,54.83-343.15,3-19.34,11-26.39,30.27-25.16C1542.18,1709.86,1564.42,1708.78,1586.6,1708.78ZM1585.2,1891l-8.74-.45c-2.15,13.09-4.47,26.15-6.4,39.27-14.84,100.7-29.42,201.43-44.57,302.08-2.48,16.46,4.73,21.32,19.39,21.22,23.64-.16,47.29-.16,70.92.28,17.42.32,22.79-6,20-24.28-14.29-93.31-27.16-186.83-40.74-280.24C1592.23,1929.56,1588.51,1910.33,1585.2,1891Z"/><path class="cls-2" d="M2224.79,2042.17c0,105.57,3.14,211.26-1,316.66-3.49,89.76-72.38,150.56-162.48,151.23-27.19.2-55.1,0-81.48-5.6-65.5-14-112.65-69.32-120.36-137.26a494.58,494.58,0,0,1-3.21-55.21q-.32-286.87-.07-573.76c0-29.28,0-29.32,29.5-29.41,23.66-.07,47.39,1.16,70.93-.43,20-1.35,24.81,6.31,24.74,25.33-.64,171.31-.4,342.63-.33,514,0,28-.9,56.2,1,84.15,3,44.93,26.15,65.94,67.84,64.32,28.38-1.1,47.88-15,54.36-43.08,4.43-19.17,6.21-39.35,6.26-59.08q.69-278,.33-556c0-29,.08-29.07,29.34-29.13,20,0,40,1.22,59.84-.32,21.74-1.7,28,7.06,27.75,28-1,96-.73,192-.91,288,0,5.91,0,11.82,0,17.72Z"/><path class="cls-2" d="M6609.54,2108.52c0,64.23-.27,128.47.23,192.69.12,15.36,1.12,31.12,4.74,46,9,37.07,31.84,52.29,69.85,48.93,34.15-3,53-22.07,56-59.62,2.16-26.43,2.52-53.06,2.58-79.61.14-56.77-.46-49.37,51.11-49.88,16.26-.17,32.64-.9,48.71.92,6.33.72,17.16,7.79,17.11,11.85-.85,63.78,10.08,128.53-15.46,190.44-25.77,62.48-72.91,95.84-139.35,99.05-33.55,1.63-68.47.58-101-7-70.53-16.43-102.74-69.27-115.49-136.28-2.6-13.66-2.79-27.93-2.81-41.92-.17-145.44-1-290.89.71-436.32.35-29.51,7.77-59.89,17.21-88.11,13.52-40.46,43.36-67.59,83.36-83.33,54.48-21.43,109.84-22.69,164.52-3.39,73.66,26,101.59,85.83,108.64,157.86,2.86,29.26.19,59,.94,88.54.39,15.54-6.4,20.86-21.25,20.51-24.37-.58-48.78-.63-73.14.19-17.12.57-23.85-6.56-24-23.48-.19-28-.74-56.09-3.09-84-2.85-33.82-25.61-54.66-59.52-57.16-30.9-2.28-56.2,14.79-64.31,45.8a199.45,199.45,0,0,0-6.15,48C6609.13,1975.63,6609.52,2042.08,6609.54,2108.52Z"/><path class="cls-2" d="M3651.7,2105.07c0-122.54.52-245.08-.44-367.61-.17-21.67,4.76-29.53,28-29.22q143,1.88,285.93.06c21.84-.24,28.63,7,27.1,28-1.54,21.29-1,42.83,0,64.19.78,16.5-5.76,22-22,21.79-55.41-.66-110.84.5-166.23-.69-20.44-.44-27.24,6.44-26.88,26.6,1,56.09.81,112.2.23,168.3-.19,17.69,5.5,25.31,24.3,24.85,40.61-1,81.29.59,121.89-.49,19.75-.52,26.34,7.35,25.59,26.06-.89,22.1-.73,44.3.07,66.42.59,16.36-6.44,22.37-22.35,22.18-41.37-.5-82.76.44-124.11-.44-19.63-.42-25.66,7.86-25.44,26.5q1.07,91.9,0,183.81c-.2,18.18,6.37,24.73,24.67,24.46,54.66-.81,109.35.24,164-.5,18.79-.26,27.14,6.05,26.2,25.55-1.08,22.09-.72,44.29-.21,66.42.35,15.48-5.21,23.1-21.8,23-99-.4-198-.62-297-.1-20.76.1-21.79-11.51-21.75-27.13Q3651.91,2291.09,3651.7,2105.07Z"/><path class="cls-2" d="M1021.07,2103.57c0-122.56.47-245.12-.45-367.66-.16-21.48,6.43-27.75,27.68-27.53q138.53,1.47,277.1,0c19.78-.18,28.55,5.27,27.14,26.11a419.7,419.7,0,0,0,.19,59.76c1.59,20.91-5.41,28.8-27.22,28.26-51.69-1.29-103.45.32-155.16-.73-19.64-.4-25.64,6.71-25.39,25.75q1.29,96.33,0,192.68c-.28,19.66,7,25.74,26,25.22,38.39-1.06,76.85.18,115.26-.45,16-.25,23,5.47,22.5,21.88-.65,23.61-.22,47.25.31,70.87.34,15.14-6.36,20.91-21.43,20.69-39.15-.56-78.35.69-117.47-.5-19.85-.61-25.31,7.09-25.16,25.89.74,90.07.46,180.14.43,270.21,0,27.78-2.77,30.34-30.42,30.21-22.17-.1-44.33,0-66.5-.22-25.44-.2-27.93-2.75-27.9-30.56q.18-146.18.62-292.35c.06-25.84,0-51.68,0-77.52Z"/><path class="cls-2" d="M2312.69,2105.72c0-123.3.54-246.61-.5-369.91-.18-22.22,7.62-28.33,28.17-27.24a722.19,722.19,0,0,0,73.13,0c19.44-.94,25.41,6.38,25.36,25.72q-.81,309-.25,618c0,37.37,0,37.46,37.7,37.53,48,.09,96.08.54,144.1-.23,18.31-.3,25.44,7,24.89,24.82-.71,22.87-.66,45.79-.2,68.66.31,15.27-6.63,20.92-21.45,20.9q-144.1-.26-288.22.37c-19.51.11-23-9.78-22.94-26.47C2312.88,2353.81,2312.7,2229.77,2312.69,2105.72Z"/><path class="cls-2" d="M494,2169.65c0-43.18-2.42-86.55.84-129.49,2.23-29.35,10.35-57.61,23.64-86,16.13-34.44,19.16-75,27.85-112.93,1.23-5.37,2.38-10.76,6.47-15.59-4.59,117.07-19.92,232.38-52.69,345Z"/><path class="cls-2" d="M592.77,2226.07c-4.55-5.73-9-8.73-9.27-12.09-2.7-30.77-8.91-62-5.91-92.33,5.28-53.38,16.33-106.19,25.32-161.45C620.14,1981,612.16,2167.39,592.77,2226.07Z"/><path class="cls-2" d="M725.82,2123.9c-31.78-23.19-32.14-146.47-.26-178.9C736,2006.13,737,2063.16,725.82,2123.9Z"/><path class="cls-2" d="M1692.88,677.48c-3.61,5.24-8.38,15.55-16.35,21.76-2.53,2-14.81-5.75-20.52-11.23-15.92-15.27-24.74-38.15-50.91-42.5-4.26-.7-6.19-15.35-9.2-23.56,7-1.56,14.15-4.94,20.91-4.27,10.85,1.07,21.31,5.78,32.16,7.24C1669.91,627.74,1693,652,1692.88,677.48Z"/><path class="cls-2" d="M663.12,2209.5c-1.45-7.31-3.3-14.58-4.28-21.95-2.69-20.28-6.07-40.57-6.84-60.94-.23-6.14,7.17-12.56,11.08-18.86,6.19,5,16.22,8.91,17.93,15.12,8.26,30-4.78,57.76-7.73,86.7Z"/><path class="cls-2" d="M501.83,1776.74c-8.83-55.33,25.58-103.33,26.2-157.06l8.91,1.5-25.29,157.21Z"/><path class="cls-2" d="M1587,634.18c-10.62,20-25.77,27.38-43.83,18.41-6.5-3.23-13.56-12.31-13.92-19.06-.4-7.4,6.65-15.19,10.45-22.81,6.81,4.18,13.35,8.89,20.48,12.41C1568.32,627.16,1577,630.14,1587,634.18Z"/><path class="cls-2" d="M812.11,1395.75c-19.84-8.35-33.37-51.25-27.05-87.62C789.86,1338.37,835.27,1355.83,812.11,1395.75Z"/><path class="cls-2" d="M672.64,1496.74c6.46,10.4,17.81,20.59,17.45,30.35s-12.29,19.09-19.86,28c-.85,1-9.22-1.85-9.26-3.06-.5-16.46-.32-33,.32-49.42C661.34,1501.29,665.92,1500.12,672.64,1496.74Z"/><path class="cls-2" d="M768.37,2008c-14.81-24-15.19-44.61-1.54-61.2,3.16-3.83,9.36-6.67,14.26-6.85,2.1-.07,6.07,7.74,6.46,12.2C789.3,1972.47,783.79,1990.68,768.37,2008Z"/><path class="cls-2" d="M769.71,1410.15c33.14,13.94,35.26,21.67,12.42,43.27C777.91,1438.73,774.4,1426.5,769.71,1410.15Z"/><path class="cls-2" d="M934.82,939.78c6.32-2.58,9.82-5.45,12.73-4.95,10.91,1.88,21.64,4.86,32.43,7.43-1.41,3.07-2.43,8.52-4.3,8.83C961.82,953.36,947,957.59,934.82,939.78Z"/><path class="cls-2" d="M827.79,1286.36c1.38,8.88,2.75,17.76,4.7,30.39-23.87-9.26-27-24.74-26.41-46L828.36,1287Z"/><path class="cls-2" d="M719,1454.5c4.42,15.75,8.84,31.5,14.76,52.64C710.71,1494.24,707.58,1482.34,719,1454.5Z"/><path class="cls-2" d="M2426.2,1527.41q-4.34,9.94-15.38,20.41-17.3,16.93-37.48,16.93-26.45,0-44.94-23.64-22.11-28.2-22.1-79.23,0-47.28,21.86-76.55,19.71-26.32,46.38-26.32a56.19,56.19,0,0,1,21.62,4.83q11.53,4.83,12,4.83,4.32,0,6.24-9.13l5-.53,4.8,63.38-5.28,1.08q-4.09-25.52-14.18-40-11.54-15.85-28.59-15.85a41.88,41.88,0,0,0-18.5,4.57,43.07,43.07,0,0,0-16.1,14.5q-18.27,27.93-18.5,75.74-.24,45.12,18.5,70.37,15.62,21.49,37,21.49,24.75,0,44-31.16Z"/><path class="cls-2" d="M2547.63,1560.58h-68.48v-5.37q18.75-.81,23.31-5.91,4.32-5.37,4.33-22.83V1397.55q0-18-4.33-23.1-4.08-4.56-23.31-5.91v-5.37h68.48v5.37q-18.49,1.08-23.3,5.91-4.34,5.1-4.33,23.1v128.92q0,17.19,4.81,22.56,5,5.12,22.82,6.18Z"/><path class="cls-2" d="M2722.17,1462.28q0,38.67-13,63.92-17.54,34.38-56,34.38h-53.58v-5.37q11.29-1.61,15.14-6.18,4.56-5.91,4.56-21.48V1396.21q0-16.39-4.56-22-3.37-4.29-15.14-5.91v-5.37h51.18q34.11,0,52.86,25.25Q2722.17,1413.13,2722.17,1462.28Zm-16.58.27q0-45.13-17.3-69.84-14.65-20.67-46.37-20.68-7,0-9.13,4c-.81,1.61-1.2,4.92-1.2,9.94v151.21q0,9.94,3.6,12.63,2.64,1.61,8.89,1.61Q2705.6,1551.45,2705.59,1462.55Z"/><path class="cls-2" d="M2870,1512.24l-8.89,48.34H2747.25v-5.37q11.77-1.34,15.86-5.37,5.28-5.91,5.29-22.29V1396.21q0-17.19-5.53-22.84-3.84-3.75-15.62-5.1v-5.37h112l1.44,40.29h-4.56q-2.66-20.42-8.41-25.79-6-5.37-24.51-5.37h-32.44q-4.8,0-6.24,1.34c-1.61,1.62-2.41,4.57-2.41,8.87v69h36.77q13.69,0,18.5-5.91,3.6-4.84,5.52-21.76h4.57v66.88h-4.57q-1.92-18.27-6.24-23.1-4.33-5.1-17.78-5.1h-36.77V1537q0,9.66,6.25,12.35,6,2.15,30.76,2.15,20.18,0,29.55-8.06t17.06-31.15Z"/><path class="cls-2" d="M3017.9,1560.58h-28.83L2948,1466.84l-19,1.08v57.48q0,15.3,4.56,21.75,4.33,6.72,17.3,8.06v5.37h-56v-5.37q12-1.61,16.1-8.86,3.36-6.18,3.36-24.71v-123q0-17.19-3.84-22.83-4.1-5.91-15.62-7.52v-5.37h57.43q20.18,0,33.15,8.59,19.23,12.9,19.23,43.25,0,39.48-40.37,49.15l36.76,80.58q4.08,8.87,16.82,10.74Zm-28.59-146.38q0-27.93-19.7-37.33-11.3-5.91-26.19-4.84-8.9.54-11.06,2.15-3.36,2.68-3.36,10.74v73.6q25.71-.27,37.72-5.64Q2989.31,1442.94,2989.31,1414.2Z"/><path class="cls-2" d="M3165.53,1369.08q-7.22.54-11.05,4.56-5.3,5.64-12.74,23.91l-30.51,73.32v54.53q0,16.92,4.08,23.36,4.32,5.91,17.06,6.45v5.37h-56.23v-5.37q14.66-1.08,18.75-10.21,2.4-5.64,2.4-23.36v-50.5L3070.38,1407q-11.3-26.6-17.06-33.58-3.6-4.29-10.81-4.29v-6.18h48v6.18q-15.37,1.34-15.38,10.47c0,3.23,1.21,7.43,3.61,12.63l28.83,66.07,29.07-68.76a31.51,31.51,0,0,0,2.65-11.82q0-8.6-12.26-8.59v-6.18h38.45Z"/><path class="cls-2" d="M3284,1476.7a10.77,10.77,0,0,1-.37,3.29,18.37,18.37,0,0,0-.61,2.48c-.17.92-.33,2.2-.49,3.85s-.25,4.22-.25,7.7a77.19,77.19,0,0,0,.74,10.18,74.42,74.42,0,0,0,2.34,11,60.42,60.42,0,0,0,4.18,10.59,36.91,36.91,0,0,0,6.27,8.94c1.15,1.28,2.34,2.57,3.57,3.85a29,29,0,0,0,3.32,3l8.12,4.12c0-.18.16-.09.49.28a15,15,0,0,1,3.2-.55,6.13,6.13,0,0,0,3-1.38,8.88,8.88,0,0,0,1.73-1.93,17.34,17.34,0,0,1,2.33-2.61,34.84,34.84,0,0,0,3.45-3.85,42.4,42.4,0,0,0,3.57-5.37,22.74,22.74,0,0,0,2.46-7.69,14.58,14.58,0,0,0,.24-4.4,13.5,13.5,0,0,0-.86-3.17,30.69,30.69,0,0,0-1.35-2.89,14.16,14.16,0,0,1-1.23-3.85,7.66,7.66,0,0,1-3.08-1.79,17.79,17.79,0,0,0-2.83-2.33,5.51,5.51,0,0,0-2-.82h-.74a1.1,1.1,0,0,1-.62-.28c-.24-.18-.86-.73-1.84-1.65-1.64-.37-2.75-.64-3.32-.82a5.93,5.93,0,0,1-1.11-.42c-.17-.09-.25-.18-.25-.28s-.16-.31-.49-.68A5.82,5.82,0,0,0,3309,1498a16.67,16.67,0,0,0-2-.14,3.68,3.68,0,0,1-1.85-.55,6,6,0,0,1-2-2.2c2.14-.91,3.49-1.46,4.06-1.65s1-.91,1.36-2.2a7.59,7.59,0,0,0,.49-1.79c0-.27.57-.5,1.72-.68a9.09,9.09,0,0,1,5.78,1.37,9.91,9.91,0,0,0,6.77,1.1,52.81,52.81,0,0,0,5.54-1.37q3.81-1.1,7.87-2.48l7.75-2.61a50.32,50.32,0,0,0,5.41-2.07,7.6,7.6,0,0,0,3.32-2.33c1.07-1.19,1.76-1.61,2.1-1.24a3.59,3.59,0,0,0,1.72.55h1.6a7,7,0,0,1,1.84.27,16.32,16.32,0,0,1,3,1.38,3.33,3.33,0,0,1-1.36,2.89,8.83,8.83,0,0,1-2.95,1.37,31.4,31.4,0,0,1-3.45.69,25,25,0,0,0-2.83.55c-.33.19-.94.55-1.84,1.1s-1.89,1.11-3,1.65a19.22,19.22,0,0,1-3.57,1.38,13.65,13.65,0,0,1-3.69.55q-.5,1.38-1.35,1.38a7,7,0,0,0-2.34.54,8,8,0,0,0-1.72,1,7.88,7.88,0,0,1-2,1q1,1.65,2.46,3.85a35.84,35.84,0,0,1,2.58,4.53,17.87,17.87,0,0,1,1.48,4.41,5.27,5.27,0,0,1-.37,3.44,8.92,8.92,0,0,1,.37,2.34c.08,1.19.16,2.43.24,3.71s.13,2.47.13,3.57v2.21a12.93,12.93,0,0,1-.62,2.33c-.24.64-.53,1.43-.86,2.34a7.39,7.39,0,0,0-.49,2.47,14.75,14.75,0,0,1-.25,2.48l-4.67,12.93a14,14,0,0,0-.62,2.06,3.86,3.86,0,0,1-1.35,1.79,6.82,6.82,0,0,1-.86.82,6.24,6.24,0,0,0-.86.82c-.5.56-.7.88-.62,1s-.2.41-.86,1a25.75,25.75,0,0,1-16,6.88,81.73,81.73,0,0,1-19.93-.83v.55c-.17.37-.53.46-1.11.28a9.33,9.33,0,0,1-2-1l-2.21-1.37c-.74-.46-1.35-.87-1.85-1.24a3.87,3.87,0,0,0-2.09-.41,5.51,5.51,0,0,1-1.72,0,3,3,0,0,1-1.6-.83,9.49,9.49,0,0,1-1.72-2.88,11.62,11.62,0,0,1-3.08-4.4q-1.35-3-2.33-5.23-3.45-7.7-6-13.48t-4.43-11.14a62,62,0,0,1-2.71-11.13,118.25,118.25,0,0,1-1.11-13.48l.5-16a45.43,45.43,0,0,1,1.35-6.87,47.77,47.77,0,0,0,1.35-6.87c.33-1.48.62-2.66.86-3.58a3,3,0,0,1,2.34-1.92l5.17-3a13.48,13.48,0,0,0,2.46-2.34,18.66,18.66,0,0,1,2.21-2.34,17.41,17.41,0,0,1,5.66-4.26,15.38,15.38,0,0,1,4.55-1.1l4.31-.27a12.75,12.75,0,0,0,4.92-1.52l-2.71-3a24.07,24.07,0,0,1-4.55-4.39,35.26,35.26,0,0,1-4.3-6.06,27.23,27.23,0,0,1-3.69-14c0-3.67.08-6.78.24-9.35a30.18,30.18,0,0,1,1.23-7,31.39,31.39,0,0,1,2.71-6.18,62,62,0,0,1,4.67-6.88,9.4,9.4,0,0,1,1.73-1.93,4,4,0,0,0,1.23-1.51c.16-.45.32-.87.49-1.24s.37-.77.61-1.24a4.88,4.88,0,0,1,1.6-1.5,14.13,14.13,0,0,1,4.92-2.07,13.66,13.66,0,0,1,6.4.14,17.6,17.6,0,0,0,5.91.55,16.49,16.49,0,0,1,6.64,1.1l2,.82a4.46,4.46,0,0,1,1.35.14,6.74,6.74,0,0,1,1.35,1,12.43,12.43,0,0,1,1.6,1c.08.09.37.5.86,1.24a1.87,1.87,0,0,1,.62-.28c.08,0,.12.28.12.82l.49-.28.25.83h.49l.25.83a7.93,7.93,0,0,1,2.21,1,12,12,0,0,1,1.73,2.62,27.26,27.26,0,0,1,1.6,3.71,7.91,7.91,0,0,1,.36,2.2,8,8,0,0,1-.24,1.93,8,8,0,0,0,0,2.88,36.7,36.7,0,0,1,.24,9.35,67.78,67.78,0,0,1-1.72,8.53l-.49,2.2-.74,1.37a5.4,5.4,0,0,1,.37,1.1c-.08-.18-.29-.18-.62,0,.17.92.25,1.24.25,1s-.16,0-.49,1a2.44,2.44,0,0,1-.12.68,2.38,2.38,0,0,0-.13.7,3.24,3.24,0,0,1-2.21,1.37c-.17.37-.21.55-.12.55s0,.18-.37.55l-1.73,1.93c-.65.54-1.19,1-1.6,1.24a3.05,3.05,0,0,1-2.09.13c-.16.55-.16.74,0,.55s-.08-.09-.73.28-.95.45-.87.27-.12-.36-.61-.55c.33.55.41.82.25.82h-1a13.44,13.44,0,0,1-3.32.14,3.31,3.31,0,0,0-2.58,1,4.84,4.84,0,0,1-.87-1.65q-.36-1.11-4.05-3.31a9,9,0,0,1,1.47-1.24,8.54,8.54,0,0,0,1.48-1.23c.49-.55,1.06-1.24,1.72-2.06a24.56,24.56,0,0,1,2.09-2.34A8.08,8.08,0,0,1,3316,1420a2.33,2.33,0,0,1,2.21,0,4.06,4.06,0,0,1-.86,1.65c-.24.18-.29,1-.12,2.48h1.23c0-.56-.09-.83-.25-.83s.16.09,1,.27c-.17-1.1-.21-1.55-.13-1.37s.29-.09.62-.82a8.25,8.25,0,0,0,1.23-1.66,7.22,7.22,0,0,1,1.35-1.23l1.36-1c1.63-1.66,2.54-2.58,2.7-2.76a5,5,0,0,0,.25-2.2,59.79,59.79,0,0,0-.49-6.33,41.58,41.58,0,0,0-1.23-6.6c-.66-1.83-1.11-3.2-1.36-4.12a11.65,11.65,0,0,0-.86-2.34,12.83,12.83,0,0,0-1.11-1.79c-.41-.54-1.1-1.46-2.09-2.74l-4.92.27a28.81,28.81,0,0,0-3.2,1.79,3,3,0,0,0-1.23,1.51,6.38,6.38,0,0,0-.24,1.78,3.77,3.77,0,0,1-.74,2.07l-1.23,2.75-2,2.75-2,2.2a2.44,2.44,0,0,0-.61,1.1,7.57,7.57,0,0,0-.13,1.65,17.64,17.64,0,0,1-.73,3.85l-3.45,13.48a30.48,30.48,0,0,0,.25,8.52,27.19,27.19,0,0,0,3.44,10.18,25.48,25.48,0,0,0,11.2,4.4,51.22,51.22,0,0,1,11.68,3c0,2.19-.65,3.34-2,3.44s-2.38.13-3.2.13a26,26,0,0,0-7.26,1.11c-2.55.73-4.8,1.46-6.77,2.19l-3.2,1.38c-3.11,1.46-5.49,2.61-7.13,3.43a24.35,24.35,0,0,0-5.91,4.82c-2,2-3.32,3.49-4.06,4.4a5.48,5.48,0,0,0-1.23,2.2,10.65,10.65,0,0,0-.12,1.52A5,5,0,0,1,3284,1476.7Z"/><path class="cls-2" d="M3558.37,1462.28q0,38.67-13,63.92-17.54,34.38-56,34.38h-53.58v-5.37q11.28-1.61,15.13-6.18,4.56-5.91,4.57-21.48V1396.21q0-16.39-4.57-22-3.36-4.29-15.13-5.91v-5.37H3487q34.13,0,52.87,25.25Q3558.37,1413.13,3558.37,1462.28Zm-16.58.27q0-45.13-17.3-69.84-14.67-20.67-46.38-20.68-7,0-9.13,4-1.2,2.42-1.2,9.94v151.21q0,9.94,3.61,12.63,2.64,1.61,8.89,1.61Q3541.78,1551.45,3541.79,1462.55Z"/><path class="cls-2" d="M3647.32,1560.58h-68.48v-5.37q18.73-.81,23.3-5.91,4.34-5.37,4.33-22.83V1397.55q0-18-4.33-23.1-4.08-4.56-23.3-5.91v-5.37h68.48v5.37q-18.51,1.08-23.31,5.91-4.32,5.1-4.33,23.1v128.92q0,17.19,4.81,22.56,5,5.12,22.83,6.18Z"/><path class="cls-2" d="M3793.35,1507.67q0,20.41-11.54,35.72-13.7,17.19-37.24,17.19a45.84,45.84,0,0,1-20.9-5.37q-10.34-4.83-12.5-4.83-8.18,0-9.13,9.93h-5.29l-7.2-61h5.76q13.7,52.92,47.1,52.92,14.65,0,25-11.28,10.32-11,10.33-24.18a42.63,42.63,0,0,0-7.69-25q-8.65-12.35-34.12-31.69-23.07-17.19-27.63-22.83-11.77-13.15-11.78-32.5,0-23.64,12.74-37.33a37.16,37.16,0,0,1,28.59-12.63q8.17,0,19.7,5.11t13.22,5.1q4.56,0,5.53-3.76.72-3.22,1.2-6.45h5.28l5.29,61.24h-5.77q-3.84-22-13.69-36.26-12-17.19-29.56-17.19-10.34,0-18.74,7.52-9.86,9.4-9.85,24.17,0,19.08,20.9,37.07,19.47,15.58,39.17,31.43Q3792.15,1483.22,3793.35,1507.67Z"/><path class="cls-2" d="M3949.14,1411h-5q-3.37-24.72-11.06-31.7-6.24-6.16-25-6.17h-12.49V1525.4q0,15.84,4.81,22.56,5,6.18,18.26,7.25v5.37H3859v-5.37q14.17-1.34,18.74-8.86,3.84-6.18,3.84-24.71V1373.11h-13q-18.51,0-24.75,6.44-7.46,6.72-11.05,31.43h-5l2.16-48.08h117.26Z"/><path class="cls-2" d="M4070.1,1560.58h-68.48v-5.37q18.74-.81,23.31-5.91,4.32-5.37,4.32-22.83V1397.55q0-18-4.32-23.1-4.09-4.56-23.31-5.91v-5.37h68.48v5.37q-18.51,1.08-23.31,5.91-4.32,5.1-4.32,23.1v128.92q0,17.19,4.8,22.56,5,5.12,22.83,6.18Z"/><path class="cls-2" d="M4215.91,1510.89l-7.19,49.69h-86.63v-5.37q8.67-1.34,12.17-6.45,4-6.71,4.05-23.36V1396.21q0-17.19-4.24-23.1-3.14-3.77-12-4.84v-5.37h44.05v5.37q-9.39,0-12.71,4-4.62,5.91-4.61,23.91v141q0,9.68,3.13,12.09,3,2.15,14.38,2.15,21.38,0,28.75-5.37,10.69-7.26,17.14-35.19Z"/><path class="cls-2" d="M4329.15,1510.89l-7.19,49.69h-86.63v-5.37q8.67-1.34,12.17-6.45,4-6.71,4.05-23.36V1396.21q0-17.19-4.24-23.1-3.14-3.77-12-4.84v-5.37h44.05v5.37q-9.39,0-12.71,4-4.62,5.91-4.61,23.91v141q0,9.68,3.13,12.09,3,2.15,14.38,2.15,21.38,0,28.75-5.37,10.69-7.26,17.14-35.19Z"/><path class="cls-2" d="M4437.89,1560.58h-68.48v-5.37q18.73-.81,23.31-5.91,4.32-5.37,4.32-22.83V1397.55q0-18-4.32-23.1-4.1-4.56-23.31-5.91v-5.37h68.48v5.37q-18.51,1.08-23.31,5.91-4.32,5.1-4.32,23.1v128.92q0,17.19,4.8,22.56,5.05,5.12,22.83,6.18Z"/><path class="cls-2" d="M4612.91,1365.85q-8.41,1.89-10.1,5.91-2.64,6.45-2.64,31.43v157.39h-.48l-87.22-167.33h-1.92v118.18q0,23.64,3.84,31.69t14.66,9.4v5.38h-39.17v-5.38q10.09-1.87,12.26-16.65.72-4.29.72-24.44V1382q-3.85-8.33-4.81-10.21-4.08-5.91-8.17-5.91v-5.37h23.31l79.53,150.14V1403.19q0-23.91-4.32-31.16-3.37-4.83-14.42-6.18v-5.37h38.93Z"/><path class="cls-2" d="M4760.53,1456.91q-8.64,1.33-10.81,3.49-4.1,4.56-4.08,19.34v58q0,6.45-12.26,14.24-12.73,8.6-26.67,8.59-35.09,0-52.86-31.69-15.62-27.14-15.62-74.13,0-39.48,17.3-68.49,18.49-31.43,46.61-31.43a43,43,0,0,1,21.63,5.91q10.33,5.37,12,5.37,5.78,0,7.69-11.28h5.05l1.68,60.43h-4.56q-6-24.16-12.26-34.91-10.57-18-28.59-18-18.27,0-32.68,19.88-18.73,26.85-18.74,78.43,0,41.63,16.1,67.68,15.61,24.7,38.92,24.71a27.72,27.72,0,0,0,17.78-5.91,19.35,19.35,0,0,0,7-15v-48.88q0-17.19-4.32-22-2.89-3-14.66-4.29v-4.84h46.37Z"/><path class="cls-2" d="M4976.79,1529.16q-4.32,9.93-15.37,20.41-17.31,16.92-37.49,16.92-26.43,0-44.93-23.63-22.11-28.21-22.11-79.24,0-47.26,21.87-76.55,19.69-26.31,46.37-26.32a56,56,0,0,1,21.63,4.84q11.53,4.83,12,4.83,4.33,0,6.25-9.13l5-.54,4.8,63.39-5.29,1.07q-4.08-25.51-14.17-40-11.53-15.84-28.59-15.84a42.08,42.08,0,0,0-18.51,4.56,43.14,43.14,0,0,0-16.09,14.51q-18.27,27.93-18.51,75.74-.24,45.12,18.51,70.37,15.61,21.48,37,21.49,24.75,0,44-31.16Z"/><path class="cls-2" d="M5124.9,1458q0,46.47-17.78,75.21-16.83,27.39-43.25,27.39-26.19,0-43.25-27.39-17.79-28.74-17.78-75.21,0-48.62,19-77.35,17.3-25.79,42.05-25.79,25,0,42.05,25.79Q5124.89,1409.1,5124.9,1458Zm-16.1-.27q0-48.07-14.9-74.4-12.26-21.48-30-21.48-17.55,0-29.8,21.48-14.89,26.32-14.89,74.4,0,47.28,14.17,73.06,12.26,22,30.52,22t30.51-22Q5108.8,1505,5108.8,1457.71Z"/><path class="cls-2" d="M5273.25,1560.58h-42.53v-5.37q10.08-1.34,12.49-6.71t2.4-24.71l-.72-144.51-35.08,181.3h-2.64l-35.32-181-1.44-.53v138.86q0,19.88,1,23.63,2.64,12.36,14.17,13.7v5.37h-35.32v-5.37q7.21-1.87,9.37-7,2.9-7.53,2.89-30.35v-125.7q0-15-2.89-20.15-2.16-3.22-9.13-4v-5.1h31.48l29.55,157.39,29.32-157.39h32.44v5.1q-9.61,1.08-12,9.14-1,3.21-1,17.45v133q0,14.76,1,18,2.16,8.32,12,9.67Z"/><path class="cls-2" d="M5420.15,1416.08q0,23.91-13.45,39.48-14.91,17.19-50.22,17.19-14.91,0-21.63-.53v53.18q0,16.38,6.25,23.1,5.76,5.64,19.94,6.71v5.37h-63.19v-5.37q13.93-1.61,18.74-9.13,3.84-6.45,3.85-24.44V1396.21q0-16.12-4.33-21.22-4.56-4.85-18.26-6.72v-5.37h61.75q26.19,0,42.29,12.36Q5420.15,1389.5,5420.15,1416.08Zm-16.1.54q0-44.59-57.9-44.59c-4.65,0-7.62.54-8.89,1.61q-2.42,2.68-2.41,10.75v78.16a150.85,150.85,0,0,0,19.95,1.07q16.57,0,27.87-5.91Q5404,1446.43,5404.05,1416.62Z"/><path class="cls-2" d="M5568.5,1560.58h-45.89v-5.37c4.64-.36,7.84-1.07,9.61-2.15q5-3,5-11.28,0-6.72-3.36-19.34l-7.21-26.59h-49.5l-7.93,34.11a54.6,54.6,0,0,0-1.44,11.82q0,8.6,4.09,11.28c1.28,1.08,3.76,1.79,7.45,2.15v5.37h-33.88v-5.37c1.28-.36,2.64-.81,4.08-1.34s2.8-2.06,4.09-4.57q3.84-7.52,12.73-42.44l37.72-147.45h1.45l45.65,169.48q4.56,16.38,8.41,21.75,2.64,3.49,8.89,4.57Zm-44.45-74.67-22.59-88.09-22.1,88.09Z"/><path class="cls-2" d="M5716.12,1365.85q-8.4,1.89-10.09,5.91-2.64,6.45-2.64,31.43v157.39h-.48l-87.22-167.33h-1.92v118.18q0,23.64,3.84,31.69t14.66,9.4v5.38H5593.1v-5.38q10.09-1.87,12.26-16.65.72-4.29.72-24.44V1382q-3.85-8.33-4.81-10.21-4.08-5.91-8.17-5.91v-5.37h23.31l79.53,150.14V1403.19q0-23.91-4.32-31.16-3.37-4.83-14.42-6.18v-5.37h38.92Z"/><path class="cls-2" d="M5863.75,1369.08q-7.22.54-11.05,4.56-5.29,5.64-12.74,23.91l-30.51,73.32v54.53q0,16.92,4.08,23.36,4.32,5.91,17.06,6.45v5.37h-56.22v-5.37q14.66-1.08,18.74-10.21,2.4-5.64,2.4-23.36v-50.5L5768.6,1407q-11.3-26.6-17.06-33.58-3.6-4.29-10.81-4.29v-6.18h48.05v6.18q-15.37,1.34-15.38,10.47c0,3.23,1.21,7.43,3.61,12.63l28.83,66.07,29.08-68.76a31.48,31.48,0,0,0,2.64-11.82q0-8.6-12.26-8.59v-6.18h38.45Z"/><path class="cls-2" d="M5913.77,1551.85q0,13.71-10.58,26.86a58,58,0,0,1-16.34,14.24l-2.88-3.49q19.94-17.46,19.94-30.89,0-5.91-3.36-5.91a5.56,5.56,0,0,0-2.64,1.07,9.61,9.61,0,0,1-3.37.54q-13.7,0-13.69-14,0-16.92,12.73-16.92a17.31,17.31,0,0,1,12,4.84Q5913.76,1535.74,5913.77,1551.85Z"/><path class="cls-2" d="M6144.2,1510.89l-9.37,49.69H6021.9v-5.37q11.3-1.34,15.86-6.45,5.28-6.71,5.28-23.36V1396.21q0-17.19-5.52-23.1-4.1-3.77-15.62-4.84v-5.37h57.43v5.37q-12.26,0-16.58,4-6,5.91-6,23.91v141q0,9.68,4.08,12.09,3.86,2.15,18.75,2.15,27.87,0,37.48-5.37,13.94-7.26,22.35-35.19Z"/><path class="cls-2" d="M6291.83,1510.89l-9.37,49.69H6169.53v-5.37q11.28-1.34,15.85-6.45,5.29-6.71,5.29-23.36V1396.21q0-17.19-5.53-23.1-4.08-3.77-15.61-4.84v-5.37H6227v5.37q-12.26,0-16.58,4-6,5.91-6,23.91v141q0,9.68,4.08,12.09,3.84,2.15,18.74,2.15,27.87,0,37.49-5.37,13.92-7.26,22.34-35.19Z"/><path class="cls-2" d="M6439,1523.25q-4.32,9.93-15.38,20.41-17.3,16.92-37.48,16.92-26.43,0-44.93-23.63-22.11-28.2-22.11-79.24,0-47.26,21.87-76.55,19.7-26.31,46.37-26.32a56,56,0,0,1,21.63,4.84q11.54,4.83,12,4.83,4.32,0,6.25-9.13l5-.54,4.81,63.39-5.29,1.07q-4.08-25.52-14.17-40-11.54-15.84-28.6-15.84a42,42,0,0,0-18.5,4.56,43.17,43.17,0,0,0-16.1,14.51q-18.26,27.93-18.5,75.74-.24,45.12,18.5,70.37,15.61,21.48,37,21.49,24.74,0,44-31.16Z"/></svg>