<svg id="Layer_1" data-name="Layer 1" xmlns="http://www.w3.org/2000/svg" viewBox="0 0 7397.73 1733.64"><path d="M1797.87,512.85q0-232.29,0-464.57c0-32.17,4.19-38.08,35.35-37.84,90.62.71,181.54-1.44,271.78,5.23,124.7,9.21,209.81,90.94,229.67,214,13.13,81.37,14.7,163.24,1.5,245.07s-57.92,142.67-123.85,189.78c-21.56,15.4-23.27,18.45-10.16,42.09,49.37,89,99.27,177.63,149,266.4,3,5.38,6.7,10.45,9.07,16.09,6,14.4.31,26.14-14.91,26.41-43.15.77-86.47,1.79-129.41-1.45-11.69-.88-26-14.24-32.79-25.63Q2104.5,856.56,2028.77,723c-11.35-19.9-26.69-27.29-48.57-25.85s-26.78,5.46-26.89,28.14q-.6,123.07-.71,246.16c0,4.94.15,9.88-.06,14.81-.93,22.22-7.12,28.22-29.25,28.51-31.45.41-62.91.61-94.36,1.28-25.12.53-31.67-5.5-31.68-31.18q-.07-236,0-472Zm395-168.61-3.19-.31c-1.2-21.55-2.07-43.12-3.65-64.63-4.48-60.93-38.73-105.27-97.29-114.22-39.65-6.07-80.95-2.13-121.45-.68-5.1.18-14,12.45-14,19.17-.88,114.06-.54,228.12-.73,342.18,0,16.93,8.74,22.89,24.3,22.8,28.35-.16,56.79-1.38,85.05.28,65,3.82,111.08-43.58,120.52-100.08C2188.15,414.3,2189.52,379.1,2192.85,344.24Z"/><path d="M1237.83,810.31c-40.73,0-81.48.93-122.16-.4-19.55-.64-28.76,5.48-33.09,25.18-10.84,49.36-23.81,98.26-35.93,147.34-6.59,26.72-14.89,33.43-42.57,33.72-32.07.34-64.15,1.11-96.21.42-27.18-.58-32.67-8.86-25.54-34.91q44.17-161.48,88.45-322.92,82-298.8,164-597.59c13.43-48.93,13.38-49.6,63.44-50.94,38.22-1,76.49.28,114.74-.19,17.92-.22,26.34,8,30.8,25q76.76,292.5,154.38,584.77,47.4,178.79,95.28,357.45c1.73,6.51,5.33,14.2,3.35,19.61-2.66,7.27-9.68,18.09-15.25,18.34-40.62,1.88-81.36,2.18-122,1.5-17.12-.28-25.67-12.75-29.52-28.57q-18.17-74.58-36.42-149.14c-7-28.66-6.91-28.68-37.26-28.68Zm.08-153.35c27.11,0,54.22.22,81.32-.07,25.06-.26,29-5,23.13-28.59q-46.2-185.5-93.09-370.85c-1.54-6-7.73-10.91-11.75-16.33-3.73,5.13-9.46,9.76-10.89,15.47q-47,187.2-93.06,374.64c-4.94,20.07-.42,25.31,21.17,25.61C1182.46,657.24,1210.18,656.94,1237.91,657Z"/><path d="M4696.37,10.09c22.82,0,45.67.58,68.46-.18,18.82-.62,27.51,8.32,32.08,25.9,21.41,82.34,43.74,164.44,65.52,246.68q89.74,338.81,179.27,677.66c3,11.31,6.27,22.66,7.81,34.2,1.71,12.8-3.12,21.74-18,21.88-38.23.34-76.46,1.23-114.69,1.17-20.75,0-30.57-13.54-35-32q-17.54-72.83-34.89-145.69c-6.79-28.72-7.35-29.36-36.84-29.36-81.44,0-162.88.51-244.3-.39-18.62-.2-26.18,6.92-30.09,24.24-11,48.7-23.39,97.09-35.12,145.63-7.17,29.68-15.28,36.23-46.19,36.39-32.06.16-64.14.88-96.18.11-23.29-.56-29.56-9.28-23.58-32.06,11.57-44.12,24-88,36.06-132q88.24-321.94,176.49-643.9,23.23-84.72,46.79-169.35c6.86-24.67,11.82-28.31,37.7-28.4,21.58-.08,43.17,0,64.75,0Zm-5.22,646.82c28.34,0,56.68.42,85-.14,20.34-.4,24.74-6.09,20-25q-46.74-187.26-94.12-374.34c-1.54-6.07-7.73-11-11.75-16.39-3.66,5.23-9.25,10-10.7,15.74Q4632.51,444,4586.39,631.36c-4.74,19.22,0,25.09,19.74,25.44C4634.46,657.3,4662.81,656.93,4691.15,656.91Z"/><path d="M5187,514.1c4.2-76.08,4.48-151.62,13.47-226.11,11.15-92.45,49.39-173.85,127.74-229.35,153.15-108.49,379.59-69.89,466.46,144.71,7.54,18.6,3.9,28.07-15,35-29.4,10.76-59.08,21.59-89.55,28.28-24.51,5.37-32.24-1-43.76-24.08-56.47-113.13-190.86-106.93-256.31-35.92-24.37,26.44-36.81,58.45-40.46,93.51-14.55,139.6-19.84,279.25-1,419,11.71,87.05,64.11,143.35,148.25,152.12,63.68,6.63,110.12-25.24,143.55-76.84,24.63-38,33.5-42.6,76.86-28.7,20.53,6.59,40.85,13.91,61,21.49,18.92,7.1,22.95,15.84,17.1,34.29-40.66,128.07-179.69,216.4-312.85,203-152.56-15.34-259.14-119.93-281.82-284.21C5190.34,665.46,5191.17,589.08,5187,514.1Z"/><path d="M3763.33,512.89q0-233.16,0-466.33c0-31,3.7-35.88,34.63-35.95q223.82-.54,447.64.05c19.26,0,28.42,8.65,28.87,28.3q1.16,49.92,0,99.88c-.51,20.61-10.68,28.32-34.91,28.35q-142.49.18-285,.05c-35.11,0-40,4.37-40.16,38.9q-.43,96.23,0,192.45c.17,31.49,6.79,37.87,38.3,38,57.37.23,114.74,0,172.1.09,27.4,0,35.57,7.91,35.79,34.88.23,29,.28,58,0,87-.27,25.79-8.76,34.42-34.67,34.55-56.75.29-113.5.09-170.25.11-36.75,0-41.28,4.32-41.33,41.7q-.21,170.25-.06,340.5c0,34.16-4,38.11-38.35,38.13q-38.86,0-77.73,0c-29.25,0-34.85-5.47-34.86-34.28Q3763.3,746.06,3763.33,512.89Z"/><path d="M2719.63,591.31q0-196.14,0-392.28c0-31.79-5.92-37.81-37.88-37.95-41.94-.2-83.89.08-125.83-.11-25.39-.11-32.91-7.71-33.1-33.32-.22-28.38-.28-56.75,0-85.12.26-23.17,8.54-31.88,31-31.9q241.48-.22,483,0c20.53,0,29.64,8.85,30,29.14q.75,45.33,0,90.67c-.31,21.54-9.16,30.3-30.77,30.47-43.18.34-86.36-.1-129.53.19-30.89.2-36.49,6-36.5,37.11q-.06,350.66,0,701.32c0,26.51.73,53,1.15,79.53.44,27.78-6,35.59-33.47,36.25-32,.77-64.06-.15-96.09.07-17,.12-22.5-8.75-22.48-24.45q.18-157.26-.14-314.51,0-42.55,0-85.12Z"/><path d="M6171,590.14q0-195.17,0-390.34c0-33-5.47-38.61-38.71-38.74-41.93-.15-83.87.11-125.8-.1-23-.12-31.62-7.84-32.23-30.8q-1.17-44.37,0-88.79c.61-22.56,9.76-30.76,32.48-30.77q239.58-.15,479.17,0c23.85,0,32.06,8.46,32.21,32.38q.26,42.56,0,85.11c-.14,24.78-8.21,32.76-33.7,32.88-41.31.19-82.63-.05-123.95.08-33.61.11-39.05,5.4-39,38.37q.45,388.52.93,777c0,7.9.68,17.48-3.32,23.26-4.73,6.86-14,14.43-21.65,14.78-34.42,1.6-68.95.4-103.43.92-16.93.25-23.06-8-23.07-23.81,0-40.69-.63-81.38-.68-122.08q-.16-139.68,0-279.36Z"/><path d="M3423,513.3q0,233.06,0,466.13c0,30.94-5.81,36.9-36.6,36.7-29-.19-57.93-.81-86.89-1.43-19.53-.41-26.25-6.86-27.93-26.59-.47-5.51-.33-11.09-.33-16.64q0-459.68,0-919.35c0-7.37.08-14.85,1.27-22.1,2.06-12.56,9.48-19.5,22.83-19.46,34.53.1,69.06,0,103.59,0,15.72,0,23.84,8.33,25,23.65.48,6.13.31,12.32.31,18.48q0,230.3,0,460.58Z"/><path d="M2982.14,1592.07c0-37.58.33-75.17-.16-112.75-.22-16.54,6.36-23.42,23.19-22.62,20.29,1,40.66-.07,61,.29,47.24.84,81.52,34.54,82.88,81.4.38,12.93.52,25.9-.09,38.81-1.16,24.33-8.74,46.21-28.73,61.56-10.1,7.76-10.21,15.15-4.15,25.25,9.19,15.3,17.55,31.1,26.22,46.72,6,10.74,2,16.25-9.48,17.54-18.62,2.1-33.7-1-41.27-21.73a183.71,183.71,0,0,0-21.46-40.75c-4.16-6-13-11.36-20.28-12.23-21.33-2.56-24.48,1.21-24.72,22.88-.11,9.86-.48,19.74.07,29.57.86,15.13-4.29,22.79-21,22.71-15.94-.08-22.29-6.53-22.15-22.06C2982.38,1668.47,2982.15,1630.27,2982.14,1592.07Zm43-36.45c0,13.5-1,27.12.51,40.45.58,5.13,6.1,12.84,10.64,13.89,51.94,12,73.38-6.4,70.59-59.41-.23-4.29-.18-8.61-.62-12.87-2-19.66-13.44-33.24-32.84-36.78-10.75-2-22-1.55-33-1.91s-15.35,5.83-15.33,16.12C3025.17,1528.62,3025.14,1542.12,3025.17,1555.62Z"/><path d="M3811,1591.45c0-37.59.39-75.18-.18-112.77-.24-15.7,5.65-22.52,21.74-21.94,21.54.77,43.14-.28,64.69.31,44.3,1.22,78.44,34,80.07,78.21.79,21.39,1,43.6-4,64.13-3.49,14.45-14.8,27.87-25.11,39.54-7.43,8.41-9.57,14.47-3.86,24.08,9.13,15.35,17.42,31.19,26.23,46.73,6.44,11.36,3.18,17.36-9.68,18.6-17.83,1.71-32.61-.75-40-20.77-5.1-13.74-13.25-26.38-20.32-39.36-7.69-14.11-22.72-20.47-37.15-13.91-4.61,2.1-8.63,9.92-9.23,15.51-1.38,12.8-1,25.87-.35,38.77.83,15.9-7.33,20.08-21.57,20-14.58,0-22.29-5.43-21.27-20.69,0-.61,0-1.23,0-1.84Zm42.78-36h-.05c0,3.07,0,6.14,0,9.21.52,53.23-6.62,45.3,47.82,46,18.51.23,29.14-10,31.58-27,2.15-15,1.92-30.58,1.22-45.83-.92-20-12.49-33.34-32.1-36.93-10.76-2-22-1.49-33-1.88s-15.5,5.57-15.48,16C3853.83,1528.46,3853.8,1542,3853.8,1555.46Z"/><path d="M2349.43,1592q0-54.57,0-109.13c0-24.14,1.87-25.91,26.65-26,19.71-.06,39.44-.55,59.13.15,52.13,1.86,85,34.76,85.84,86.71.59,37,.76,74-.92,110.94-2.17,47.55-31.12,73.63-78.88,73.64-24,0-48.1-.34-72.14.12-14.18.27-20-5.76-19.83-19.92C2349.7,1669.73,2349.43,1630.89,2349.43,1592Zm42.29,1.86h-.17c0,16,0,32.07,0,48.11.09,49.41-4.13,44.86,46.82,44.64,26.52-.11,38.8-11.65,39.46-38.22.9-35.75.77-71.56.09-107.32-.47-24.56-16.25-39.58-41.16-40.91-8.61-.46-17.32.51-25.89-.26-13.69-1.24-19.23,5.06-19.18,18.09C2391.8,1543.32,2391.72,1568.61,2391.72,1593.9Z"/><path d="M4133.22,1593.05c0-19.71-.35-39.43.08-59.14.94-43.39,35.73-77.33,81.2-79.69,48.09-2.49,89.28,27.36,92.12,71.37a1053,1053,0,0,1,.16,132.94c-2.86,46-43.72,76.51-92.22,73.46-47.33-3-81-37.45-81.33-83.49C4133.09,1630,4133.21,1611.54,4133.22,1593.05Zm42.3.91c0,16.63-.17,33.27,0,49.9.35,27.72,17.22,44.75,44.9,45.62,25.45.79,44-16.69,44.56-43.72q1-52.6,0-105.24c-.57-27.53-18.05-43.94-44.4-43.64-27,.32-43.95,16.31-44.93,43.49C4175,1558.21,4175.54,1576.1,4175.52,1594Z"/><path d="M3489.78,1592.16c0-37.59.32-75.19-.12-112.79-.19-16.27,5.8-23.59,23-22.71,21.49,1.11,43.13-.53,64.63.54,47,2.33,78.92,35.81,79.6,82.61.21,14.77.23,29.61-.76,44.34-2.25,33.53-28.79,71-76.12,69.42-53-1.83-46.36-7.29-46.79,47.08-.19,24.36-2.59,27.11-21.24,27.88-15.79.66-22.49-5.94-22.32-21.73C3490,1668.59,3489.76,1630.38,3489.78,1592.16Zm43.47-38.09c0,14.18-1,28.46.52,42.48.53,5,6.37,12.62,10.9,13.54,52.23,10.62,69.4-3.84,69.38-57.06v-1.85c-.06-41.13-31.8-64.38-71.1-51.09-4.44,1.5-8.71,9.7-9.3,15.19C3532.29,1528.08,3533.22,1541.13,3533.25,1554.07Z"/><path d="M2675.05,1592.06c0-37.59.41-75.19-.2-112.77-.26-15.69,5.79-22.62,21.61-22.46q55.45.56,110.92,0c16.5-.19,20.85,8,20.78,23.09-.07,15.47-6.61,20.71-21.32,20.32-23.4-.63-46.84.19-70.25-.28-13.42-.28-18.64,5.1-18.36,18.68,1.27,61.64-8.31,53.82,50.05,53.69,15.81,0,20.87,7.17,20.83,21.1,0,13.67-4.77,22.9-20.55,21.67a27.71,27.71,0,0,0-5.54,0c-14.19,1.77-38.43,0-40.61,6.14-6.07,17-3.87,37.31-2.69,56.18.22,3.45,10.92,8.62,17,8.89,23.37,1.05,46.83,1,70.22.24,16.3-.53,21.39,6.45,21.32,22.13-.07,15.48-6.36,20.7-21.08,20.5-36.35-.49-72.73-.67-109.07.06-17.91.36-25-7.23-23-24.45a16.12,16.12,0,0,0,0-1.84Z"/><path d="M4762.52,1593c0-37.62.36-75.24-.18-112.85-.23-16.36,6.09-23.68,22.86-23.42q53.64.81,107.29,0c16.24-.26,23.67,5.59,23.5,22.59-.15,16.34-7.48,21.46-22.85,20.93-22.78-.78-45.63.27-68.43-.35-14.43-.4-20.25,5.71-19.56,19.83.55,11.07.52,22.21,0,33.29-.65,14.48,6.4,20.07,20.17,19.62,10.47-.34,21,.5,31.44-.17,14.79-1,19.63,6.48,19.7,20s-3,23.23-19.3,22.65c-11.7-.42-23.44.22-35.14-.13-11.86-.34-16.86,5.43-16.76,16.81.54,64.91-7.65,54,50.82,54.91,12.95.21,25.92.55,38.84-.1,15.1-.74,21,5.82,20.93,20.77-.07,14.17-4.13,22-20,21.8-37.61-.52-75.24-.39-112.85-.08-15,.12-20.86-6.63-20.69-21.41C4762.82,1669.51,4762.52,1631.27,4762.52,1593Z"/><path d="M1827,1593.93c0-19.09-.27-38.19.07-57.28.63-36,21.56-64.29,56.2-76.63,36.25-12.9,81.86-3.45,102.14,22.72,3.35,4.32,3.21,16-.27,20-7.71,8.77-17.54,19.18-31.42,8.13-16-12.78-33.71-17.29-53.63-10.93-20.3,6.47-29.39,17.91-29.63,39.27-.37,33.26.15,66.53-.21,99.79-.21,18.85,2.43,36.18,21.52,45.3,19.91,9.5,39,7.12,58-4.19,6.69-4,17.86-7.33,23.81-4.44,22.67,11,23.31,22.54,2.94,37.68-31.46,23.38-66.18,26.13-101.3,10.38-33.74-15.13-49.68-42.55-48.33-79.91C1827.46,1627.21,1827,1610.56,1827,1593.93Z"/><path d="M5066.5,1593.86c0-19.74-.48-39.49.13-59.21,1.1-35.54,23.2-63.6,58.38-75.25,36.28-12,81.22-2,100.42,23.71,3.16,4.22,3.38,15.19.19,18.7-7.78,8.55-17.07,20.38-31.19,9.62-14.46-11-29.83-16.94-48.23-13.06-24.68,5.21-36.38,18.46-36.67,43.46-.38,32.08.11,64.17-.19,96.25-.17,18.84,2.71,36.35,21.31,45.76,20.41,10.32,40.76,8.71,59.34-4.84,7.94-5.8,14.28-10.35,24.54-3.5,20.45,13.66,21.72,22.86,1.94,37.66-31.48,23.55-66.24,26.34-101.43,10.69-34.71-15.43-50-44-48.66-81.88C5067,1626,5066.47,1609.9,5066.5,1593.86Z"/><path d="M5433.66,1612.49c0-31.41-.45-62.84.19-94.24.3-14.48-5.53-20.49-19.67-19.43-4.9.37-9.88-.3-14.78.11-16.42,1.37-21.74-7.18-21.62-22.29.12-15.29,7.55-20.14,22.06-19.92,36.95.59,73.93.74,110.87-.07,15.47-.33,20.93,6.17,21.1,20.64.17,15.28-5.45,23.49-21.85,21.66-4.26-.47-8.66.29-12.92-.14-15.1-1.53-21.15,5.22-21,20.22.59,59.74.42,119.48,1.05,179.22.26,24.08-4.2,30.16-23.52,30.28-14,.09-20.19-5.79-20-19.94C5433.93,1676.56,5433.67,1644.53,5433.66,1612.49Z"/><path d="M4604,1567c0,30.2.8,60.43-.21,90.6a76.7,76.7,0,0,1-56.75,71.83c-33.16,9-67.6-3.24-86.16-31.22-5.26-7.93-12.83-16.65-2.4-26.13s28.18-9.88,36.18-.11c11.74,14.32,25.59,21.87,43.66,14.81,19-7.41,22.95-23.67,22.84-42.32-.34-54.25-.21-108.49-.07-162.74.05-21,4-24.6,22.6-25,18.26-.34,21,10.17,20.66,25.17-.59,28.34-.17,56.71-.17,85.06Z"/><path d="M2146.34,1594c0-37.56.34-75.13-.17-112.69-.2-15.34,3.48-24.59,21.39-24.65,17.09-.06,22.52,7.28,22.43,23.54-.47,75.13-.35,150.26-.1,225.39.05,14.45-3.4,23.38-20.47,23.59-17.74.22-23.81-6.86-23.37-24.33C2147,1667.88,2146.34,1630.91,2146.34,1594Z"/></svg>