<svg id="Layer_1" data-name="Layer 1" xmlns="http://www.w3.org/2000/svg" viewBox="0 0 2447.3 1729.08"><defs><style>.cls-1{fill:#fff;}</style></defs><path class="cls-1" d="M850.94,257.57c-18.41-9.89-36.45-14.59-54-20.18-21.67-6.91-43.67-12.79-65.64-18.73-7.46-2-10.12-5.19-3.47-10.66,15.22-12.51,23.42-30.65,36.66-44.69,3.73-3.95,7-8.41,11.06-12,15.58-13.59,15.53-13.25,23.83,5.13,8.92,19.74,27.42,29.26,44.84,39.64,4.27,2.54,7.24-.23,9.49-4.19C898.49,113.12,973.1,72,1050.6,33.13,1120-1.65,1192-6.84,1266.21,7.36c48.6,9.29,95.6,25.32,142.47,41.14,37,12.49,73.6,26.07,107.71,45.42,57.9,32.85,98.17,79.51,118.76,143.94,20.48,64.08,36.32,128.72,37.55,196.23,1.66,91.77-28.91,171.58-90.15,239.89-69.09,77.06-154.63,127.22-253.41,155.9-86.66,25.16-175,30.57-263.58,15.69-79.75-13.4-153.84-42.92-214.8-97.93-35.65-32.18-56.39-74.85-72.12-119.71-24.68-70.4-20.36-141.61-3.54-212.58,9.93-41.89,23-83,33.36-124.81,4.76-19.12,15.44-28.72,34.63-29.92C844.89,260.51,846.62,259.29,850.94,257.57Zm577.72,510.54-.24.28c4.25,3.3,5.62.93,6.14-3.12l0,.06c2.37,1.78,4.83.92,6.87-.3,38.81-23.28,74-51,101.57-87.19,19-24.92,36.29-51,43.72-82.13,15.62-13.83,13.84-33.89,18.51-51.64,22.76-86.51,23.29-172.91-.82-259.31-15.51-55.6-41.5-105.25-86.29-142.49-35.25-29.31-76.51-49.21-119.08-66-19.19-7.55-37.3-18.39-58.55-20l-5-2.6-.6-.13c-7.76-1.63-15.53-3.2-23.27-4.89-83.5-18.15-166.8-22.31-249.64,3.67-74.56,23.39-131.32,68.13-164.6,139.81-13.94,30-15.29,25.62,9.4,42.57,4.86,3.33,9,7.72,13.39,11.72,12.8,11.68,25.68,23.27,38.29,35.15,7.84,7.39,11.46,5.15,13-4.68,1.67-10.8,2.75-21.45,1.84-32.52-1.93-23.61-4.32-47.24,1.16-70.89,4.45-19.18,20.8-31.31,40.17-27.78,6.49,1.18,13.39,3.36,9.61,12.64-4.46,10.93-3.42,21.88-.87,32.93,0,24.7.64,49.43-.32,74.1-.93,23.55-10.36,42.79-32.48,54.31-19.78,10.29-41.25,16.31-61.59,25.14-14,6.09-26.17,13.8-29.09,30.63-1,5.63-5.15,9.22-10.27,11.92-14.29,7.56-28.46,6.45-42.73.18,2.14-4.44,5.42-8.67,6.24-13.34,4.48-25.57,23.71-36.3,44.78-44.7,12.34-4.92,25.41-8,38.13-12,3.14-1,7.32-.8,7.77-5.44.43-4.35-3.26-5.68-6.12-7.47-17.58-11-35.05-22.2-52.84-32.86-6.29-3.77-13.88-9.5-20-8.54-9.42,1.49-2.48,13.6-7.42,19.43a3.54,3.54,0,0,0-.56,1.37c-10.95,38.88-25.82,76.64-33,116.57l-1.44,8.68.25-.61C808.92,461.13,807.1,513.9,817.77,567,834.57,650.52,873.89,719.31,948,765.3c51,31.66,106.16,50.9,166,56.39,35.49,4.61,71,7.95,106.88,5.15,2.92.28,5.9,1.09,8.76.78,44.63-4.91,88.55-13.58,131.24-27.44,22.19-7.2,45.22-13,64.4-27.49C1426.92,771.54,1430,771.46,1428.66,768.11ZM838,224.2C820.4,209,802,199.43,786.73,185.54c-9.09-8.25-11.08,5.88-15.55,10.05-6.17,5.76.53,8.67,5,10.08C795.79,211.83,815.55,217.53,838,224.2Z"/><path class="cls-1" d="M647.87,1703.39c-54.2,52.42-123.47,14.36-138.12-41.4-1-3.81-2.71-7.47-3.49-11.31-8.8-43.75-9.42-86.8,14-126.84,23.18-39.72,66.69-54.43,108.81-36.67,10,4.22,11.63,2.09,11.48-7.62-.39-25.28.58-50.59-.33-75.84-.62-17.18,11.46-10.57,19.3-11.8,9.07-1.43,14.4.47,14.32,12.18-.48,76.85-.22,153.7-.2,230.56,0,26.82,1.27,53.57,8.62,79.5,2.43,8.57.42,10.4-7.82,12.77C654.48,1732.64,649.68,1721.07,647.87,1703.39Zm-7.48-107.27h-.08c0-19.85-.29-39.71.15-59.55.15-6.77-2.3-10.93-7.49-14.92-27.67-21.29-61.56-16-81.6,13-23.47,34-23.94,104.58-.93,139.25,13.74,20.69,34.43,29.77,54.4,23.89,20.62-6.09,35.5-27.43,35.54-51Q640.42,1621.45,640.39,1596.12Z"/><path class="cls-1" d="M1306.31,1516.78c20.47-23.7,42.1-38.33,71.94-37.23,21.33.79,35.49,10.84,43.71,29.92,10.46,24.25,11.17,50.24,11.69,75.93.87,42.16-.35,84.36.6,126.52.37,16.65-10.31,11.44-18.65,12.3-9.58,1-14.91-.23-14.93-12.85-.09-53,2.68-106.15-1.6-159.16a59,59,0,0,0-.71-7.41c-2.87-13.6-4.58-29-19.46-34.54-15.7-5.83-29,3.15-40.25,13.22-23.44,21-31,49.07-31.75,79.06-1,36.7-1.3,73.46-.24,110.14.43,14.66-8,11.74-15.82,11.36s-17.74,4.84-17.65-11.3q.9-154.82,0-309.64c-.09-16.31,10.59-10.4,18-11s15.75-3,15.35,10.7c-.92,32.23-.29,64.5-.29,96.76Z"/><path class="cls-1" d="M2371.33,1613.46c-21.33,0-42.66.32-64-.15-8.58-.19-11.79,2.58-10.17,11.15.92,4.85.65,9.92,1.5,14.79,9.16,53,45.73,73,97.52,53.24a168.83,168.83,0,0,0,26.52-13.27c6.56-3.94,9.41-3.38,13.05,3.88,11.12,22.17,11.51,22-11,31.12-21.71,8.83-44,14.67-67.69,14.45-36.43-.35-63.34-17-77.9-49.65-22.82-51.16-22.38-103.24,3.23-153.43,17.27-33.85,46.87-48.39,84.73-45.68,34.28,2.46,54.56,23.31,67.39,52.87,9.8,22.57,13.26,46.45,12.67,71.1-.19,8.09-3,9.89-10.44,9.74C2415,1613.18,2393.15,1613.46,2371.33,1613.46ZM2356,1584.07c16.36,0,32.74-.5,49.07.21,8.57.36,10.05-3,8.91-10.31-2.9-18.44-8.64-35.7-21.65-49.56-21.46-22.85-56-21-75.31,3.72-11,14.06-15.45,30.74-19.28,47.72-1.6,7,1.44,8.45,7.7,8.34C2322.3,1583.92,2339.15,1584.1,2356,1584.07Z"/><path class="cls-1" d="M866.82,1613.48c-21.34,0-42.68.31-64-.15-8.4-.18-11.87,2.15-10.06,10.9,1.09,5.32.81,10.92,1.82,16.26,9.53,50.34,42.62,69.75,91.58,54a130,130,0,0,0,32.15-15.15c6.41-4.25,9.94-4,13.1,3.75,11.12,27.27,14,20.12-12.07,31.43-21.51,9.33-44.12,14.6-67.9,14.18-30-.52-53.39-13-70.14-37.88-31.81-47.28-28.53-137.1,6.55-180.09,40-49,113.15-40.21,140,16.89,11.16,23.71,15.69,48.82,15.3,75.05-.13,8.26-2.23,11.2-10.81,11-21.83-.54-43.67-.18-65.51-.18Zm-15.62-29.37v0c16.34,0,32.68-.35,49,.15,7.57.24,11.09-1.53,9.68-9.76-3.15-18.3-8.55-35.59-21.53-49.52-22.4-24-57.64-21.78-76.83,4.91-10,13.92-14.39,30-18.25,46.5-1.86,8,1.89,7.87,7.44,7.82C817.54,1584,834.37,1584.11,851.2,1584.11Z"/><path class="cls-1" d="M948.61,1273.41c-12,12.11-23.78,21.82-39.62,24.81-40.94,7.73-74.1-14.73-81.82-55.75a112,112,0,0,1,.63-45.79c11.14-49.18,49.26-71.15,98.77-57.2,19.06,5.37,19.06,5.37,18.85-13.56-.39-36.42-22.79-53.21-58-43.05a197.88,197.88,0,0,0-29,11c-7,3.27-9.1,1.86-11.18-5.43-6.17-21.61-6.49-21.33,14.77-28.88,10.3-3.66,20.69-7,31.53-8.22,48.23-5.32,83.1,24.55,84.47,73.35,1,33.7.42,67.44.19,101.16-.14,20.41,1.1,40.65,6.91,60.27,2.37,8,1.87,11.38-7.71,12.29C958.5,1300.2,958.55,1300.81,948.61,1273.41Zm-3.25-65.28c0-10.3,0-17.24,0-24.18,0-4-.19-7.61-4-10.47-30.79-23.12-72.92-8.45-81.23,28.62a81.53,81.53,0,0,0-.52,35.48c3.11,14,9,26.42,24,31.49s27.4-.4,38.12-10.21C937.52,1244.46,951.06,1228.71,945.36,1208.13Z"/><path class="cls-1" d="M1941.34,1722.63c-1.26.57-2.13,1.26-3,1.33-26.85,2-26.81,2-30.64-24.39-.77-5.33-2.05-10.58-.48-12.77-8.57,6.5-17.44,12.64-25.62,19.58-11.13,9.44-23.12,17.31-37.39,20.52-37.2,8.35-65.16-13.61-70.34-55-3.28-26.21-1.23-52.55-1.5-78.83-.32-32.26.62-64.54-.28-96.78-.47-16.8,10.75-11,19-12.16,10.06-1.41,13.42,1.9,13.44,12.74.08,53.59-2,107.2,1.08,160.75,1,16.35.85,35.2,20.24,40.73,20,5.7,35.43-6.29,47.38-21.14,17.76-22.09,24.67-48.58,25.61-76.22,1.17-34.71,1.35-69.5.25-104.2-.48-15.21,8.56-12.45,17-12.66,8.91-.23,16.68-1.77,16.57,13-.43,55.06-1.85,110.15,1.49,165.21C1935.34,1682.66,1939.2,1702.58,1941.34,1722.63Z"/><path class="cls-1" d="M1691,1599.86c-.25,36.08-4.3,65.32-21.28,91.17-35.22,53.57-115.26,50.16-142.91-7.65-25-52.29-24.74-106.78.59-159.23,14.83-30.7,41.53-45.44,76.2-44.52,34.21.92,57.89,17.44,72.33,48.06C1687.62,1552.47,1690.79,1578.86,1691,1599.86Zm-32.85,6.57c.2-21.37-1.22-42.55-9.4-62.63-9.66-23.7-26.55-35.62-49.62-35.51-21.46.11-39.46,12.56-47.45,36.14-13.42,39.6-13.38,79.92,0,119.51,8.15,24.17,25.92,36,49,35.88,22.87-.09,39.3-12.51,48.62-36.59C1656.35,1644.93,1658.15,1625.83,1658.16,1606.43Z"/><path class="cls-1" d="M1805.35,1299.63c-28.11-.89-55.87-14.93-80.68-36-11-9.3,1.22-14.43,4-21,4.19-10,8.79-11.9,17.75-2.69,15,15.45,33.38,26.4,55.16,30.13,21,3.6,39.89-5.55,45.66-21.82,6.79-19.11.07-39.22-18.9-49.83-15-8.42-31.53-14.22-47.24-21.47-20.74-9.56-39.36-21.84-45.84-45.41-10.71-39,15.7-75.56,57.48-80.31,28.52-3.25,53.94,5.44,76.73,21.86,14.77,10.65-1.36,19-4.14,27.62-3,9.48-8.53.91-12.3-1.37-14-8.47-27.51-17.47-44.53-19.14-19.57-1.91-35.37,7-41.1,24.1-5.33,16,.67,31.29,18.41,40.73,17.43,9.27,36.22,15.93,53.88,24.8,34,17.12,48.7,46.19,40.75,79C1873,1279.42,1844.53,1300.16,1805.35,1299.63Z"/><path class="cls-1" d="M2107.9,1479.7c20.74-.34,41.35,8.82,60.53,21.8,15.8,10.69-.79,18.55-3.36,27.1-3.36,11.2-9.34,1.89-13.15-.51-13.46-8.47-26.77-16.95-43.05-18.91-19.78-2.39-36.14,6.4-42.22,22.74-5.82,15.64,0,29.7,17.3,41.52,10.75,7.36,23.08,11.32,35,16.11,12.45,5,24.55,10.56,35.38,18.6,23,17.07,31.82,42.38,24.75,71-6,24.16-28.71,44.73-54.69,48.24-39.93,5.39-72.27-11.34-101.83-35.91-8.69-7.22.11-11.61,2.7-16,9.22-15.72,9.65-15.56,23.07-3.81,14.74,12.91,31,23,50.43,27,21.21,4.43,40.77-4.36,47.31-21.2,7.39-19,.2-40.09-19.34-50.57-17.81-9.55-37.13-16.26-55.07-25.6-21-10.93-37.61-26.21-39.13-52C2030.07,1507.78,2060.29,1478.81,2107.9,1479.7Z"/><path class="cls-1" d="M33.2,1604.13c.57,22.46,2.8,42.94,12.87,61.9,19.64,37,59,44.52,90.73,17.12,2.62-2.26,5.14-4.65,7.58-7.11,15-15.14,14.42-14.6,29.52.59,7.13,7.18,4.46,11-.83,16.59-28.46,30.24-62.16,43.5-103.14,31-43.69-13.29-61.87-47.37-67.55-89-4.85-35.65-3.17-71.35,13.38-104.52,15.91-31.92,41.71-49.33,77.72-51,37.71-1.74,63.64,17.57,84.13,46.76,2.91,4.15,3.22,6.77-1.64,10.83-19.62,16.33-19.37,16.64-34-3.75-25.11-35.07-70.75-33.23-93.54,3.53C35.32,1558.26,33.63,1581.76,33.2,1604.13Z"/><path class="cls-1" d="M724.37,1123.06c-6-8.46-11.11-17-17.52-24.41-22.26-25.73-59.58-25.42-82,.2a71.94,71.94,0,0,0-15.08,27.07c-9.65,32.7-10.17,65.67.37,98.11,7.2,22.16,20.89,39.22,45,45.17,27,6.67,45.2-7.9,62.55-25.44,3.92-4,5.71-16.38,16.24-6.45,16.92,15.94,17.54,17.7,6.95,28.79-28.5,29.85-62.45,41.69-102.51,28.83-39.17-12.58-58.25-42.63-64.87-81.38-6.81-39.87-5.45-79.29,14.22-115.81,17-31.52,44.19-47,80.19-47s60.05,19.49,79.6,47.08c3.42,4.83,2.56,7.88-2.12,10.92C738.37,1113.3,731.51,1118.17,724.37,1123.06Z"/><path class="cls-1" d="M1065.69,1527.27c11.33-14.64,19.88-28,33.52-36.92,36.72-24,74.38-9.74,85.19,32.49a94.33,94.33,0,0,1,2.93,14.52c2.46,26.58,5.64,22.63-23.82,23-6,.08-7.65-2.52-7.79-8-.21-7.9-.32-15.93-1.74-23.67-3.36-18.29-16-24.53-33-16.82-14.61,6.63-24.31,18.39-32.54,31.63-13.76,22.11-19.18,46.73-19.91,72.22-.91,32.24-.71,64.51-.37,96.76.09,8.47-1,12.25-11,11.88-26.28-1-21.18,2.27-21.39-21.14-.44-47.64-.4-95.27-.57-142.91-.08-21.88-3.09-43.52-6.62-65-1.41-8.56-.37-11.19,8.9-11.28,21.45-.23,21.51-.63,24.38,20.65C1062.8,1511.55,1064.16,1518.32,1065.69,1527.27Z"/><path class="cls-1" d="M1134.27,1098.56c11.74-16.16,21.58-30.49,37-39.39,35.49-20.44,70.77-6.11,81.31,33.17a103,103,0,0,1,3.14,17.51c2.32,26.07,4,20.62-20.68,21.76-8.4.39-11.75-2.24-11-10.75.39-4.38-.43-8.88-.86-13.32-2.75-28.29-19.35-36.29-42.48-19.36-25.56,18.71-36.72,46.15-41.35,76.36-6,39-2.49,78.28-2.42,117.41,0,13.74-6.1,13.71-15.88,13.51-9.6-.19-17.37,1.49-17.36-13.63,0-62.48,3-125-2.89-187.45-.84-8.87-2.72-17.68-3.07-26.56-.16-4.08-6.85-12.86,3.57-11.82,8.94.9,22.64-9.29,26.58,8C1130.33,1074.63,1131.89,1085.43,1134.27,1098.56Z"/><path class="cls-1" d="M1388.81,1097.56c5.57-7,9.75-12.21,13.87-17.46,8.72-11.1,19.19-20.07,32.32-25.45,30.63-12.55,59.58.41,70.4,31.59,2.26,6.51,3.51,13.4,4.84,20.19,4.81,24.69-1,30.06-25.76,25.23-5.9-1.15-5.49-4.46-5.54-8.39-.08-7.43-.12-14.77-1.89-22.13-5.18-21.68-18-27.75-37.1-15.91-26.18,16.27-38.49,42-44.26,71-8,40.19-3.3,81-4.52,121.58-.17,5.61,3.58,14.2-2.66,16.14-8.14,2.54-17.89,2.27-26.37.49-5.39-1.12-2.66-8.7-2.69-13.32-.46-57,1.28-114-2.44-170.91-.94-14.36-2.31-28.63-5.51-42.66-2-8.61-.26-12.13,9.85-12.49,14.24-.51,24.18.92,23.27,18.83C1384.26,1080.88,1387,1088.06,1388.81,1097.56Z"/><path class="cls-1" d="M362.56,1605.34c0,35.72-.73,71.47.33,107.16.47,15.88-9.6,11.22-17.46,11.64-8.33.44-16.18,2-16-11.88.75-61.52.07-123,.66-184.56.12-11.61-2.89-15.7-14.75-14.76-13.31,1-26.8-.27-40.16.44-9.29.49-10.12-5-8.66-11.11s-6.34-17.64,8-17.8c26.78-.3,53.58,0,80.36-.25,8.64-.09,7.73,5.45,7.72,11Q362.54,1550.27,362.56,1605.34Z"/><path class="cls-1" d="M1632.69,1035.26c-14.31-6.5-23.54-14.69-25.46-29.07-2.58-19.44,10-36.61,28.31-38.79,20.56-2.45,37.18,10.25,40,30.9,2.73,19.87-2.5,37.16-16.92,51.58s-31.9,23.83-49.57,26.26C1601.69,1054.54,1610.54,1041.58,1632.69,1035.26Z"/><path class="cls-1" d="M345.39,1396.16c16.09,0,27.51,12,27.17,28.72-.31,15.71-12.36,28-27.13,27.79-15-.26-27.08-12.53-27.54-27.87C317.4,1408.36,329.09,1396.18,345.39,1396.16Z"/><path class="cls-1" d="M1425.29,772.69c-19.18,14.49-42.21,20.29-64.4,27.49-42.69,13.86-86.61,22.53-131.24,27.44-2.86.31-5.84-.5-8.77-.78-1.75-5-5.51-6.23-10.43-6.41-27.17-1-54.34-2.27-81.52-3.22-5.31-.19-11.09-.81-14.92,4.48C1054.15,816.2,999,797,948,765.3c-74.1-46-113.42-114.78-130.22-198.32-10.67-53.08-8.85-105.85,4.78-158.22l-.25.61,1.44-8.67c11.21,1.88,13.82-11.41,23-13.07,14.27,6.27,28.44,7.38,42.73-.18,5.12-2.7,9.29-6.29,10.27-11.92,2.92-16.83,15.06-24.54,29.09-30.63,20.34-8.83,41.81-14.85,61.59-25.14,22.12-11.52,31.55-30.76,32.48-54.31,1-24.67.28-49.4.32-74.08,22-11.44,22-29.72,16-50.21-2.21-7.43-7.82-12.53-11.33-19-9.42-17.51-8.36-20.28,10.29-27.77,35.37-14.22,71.37-25.49,109.15-32.38,53.12-9.68,105.91-12.55,159.39-4.82,11.06,1.6,22.62,4.1,33.74-.79,21.25,1.57,39.36,12.41,58.55,20,42.57,16.75,83.83,36.65,119.08,66,44.79,37.24,70.78,86.89,86.29,142.49,24.11,86.4,23.58,172.8.82,259.31-4.67,17.75-2.89,37.81-18.51,51.63-5.55,2-8.15,6.81-10.62,11.63-17.26,33.72-42.67,61.21-68.18,88.53-19.87,21.27-42,40.06-65.53,57.24-3.6,2.63-10.1,5.11-7.83,12.23l0-.06c-3.55-1.91-5.65-1-6.14,3.12l.24-.28C1425.85,768.39,1425.48,770.48,1425.29,772.69Z"/><path class="cls-1" d="M822.3,409.37l.25-.61Z"/><path class="cls-1" d="M1335.39,53.75l-.47.89s-.15-1-.14-1Z"/></svg>