<svg id="Layer_1" data-name="Layer 1" xmlns="http://www.w3.org/2000/svg" viewBox="0 0 1712.84 1712.79"><defs><style>.cls-1{fill:#fff;}</style></defs><path class="cls-1" d="M869,612a16.63,16.63,0,0,0,1.74-2.52c.52-1.31.81-2.72,1.27-4.07a4.83,4.83,0,0,1,4.78-3.57c3.73-.06,7.47-.1,11.19.12a3.84,3.84,0,0,1,3.82,4.73,21.87,21.87,0,0,1-1.65,5c-.68,1.63-1.63,3.15-2.32,4.78-.44,1-.53,2.29.59,2.83a3.18,3.18,0,0,0,2.46-.3c1.23-.68,2.25-1.74,3.45-2.48,1.68-1,3.14-.43,3.75,1.43.17.5.2,1,.34,1.56,1,3.46,2.28,3.84,5.22,1.51a16.1,16.1,0,0,1,2.45-2,3,3,0,0,1,2.42-.13,2.6,2.6,0,0,1,1,2.22,30,30,0,0,1-1.84,6.63c-2.4,5.34-5.06,10.56-7.58,15.85-1.45,3.05-2.85,6.12-4.25,9.18a8,8,0,0,0-.47,1.53c-.28,1.26-.38,2.56.78,3.41a2.63,2.63,0,0,0,3.44-.34,50,50,0,0,0,5.77-5.49c2.4-2.85,4.54-5.92,6.69-9,3-4.29,6.69-7.86,11.55-10,3.45-1.5,5.93-3.75,7-7.5a28.89,28.89,0,0,1,2-4.35A8.83,8.83,0,0,1,940,615.7c.52-.06,1.06-.09,1.59-.13a6.11,6.11,0,0,0,5.33-3.83c1.05-2.25,2.26-4.42,3.38-6.64,1.63-3.25,4-5.42,7.85-5.41,3,0,4.94-1.6,6.21-4.24,1-2.08,2.12-4.11,3.27-6.11a38.74,38.74,0,0,1,2.65-4,6.51,6.51,0,0,1,7.61-2.32c.51.15,1,.35,1.51.51,4.17,1.3,4.54,1.2,6.73-2.69,1.12-2,2-4.17,3.1-6.19,1.56-2.85,3.77-3.53,6.72-2.14.95.46,1.79,1.17,2.74,1.64,3.32,1.64,5.5.67,6.4-2.86.31-1.2.37-2.47.74-3.65a13,13,0,0,1,1.47-3.39,5.32,5.32,0,0,1,7-2.13c1.63.68,3.12,1.71,4.73,2.45,2,.91,3.45.28,4.22-1.79.57-1.5.86-3.1,1.48-4.56,1.75-4.07,4.61-5.1,8.63-3.12,1.27.62,2.37,1.57,3.63,2.21a3.33,3.33,0,0,0,4.86-1.73,30.75,30.75,0,0,0,1.05-3,32.47,32.47,0,0,1,1.28-3.5c2.24-4.47,6.21-5.84,10.69-3.68,1.11.54,2.09,1.34,3.15,2a25.22,25.22,0,0,0,3.23,1.83,2.65,2.65,0,0,0,3.56-1.42c.41-.78.62-1.66,1-2.47.82-1.77,1.58-3.58,2.56-5.26,1.89-3.2,4.78-4.14,8.19-2.63,1.45.64,2.7,1.7,4.09,2.48,1.91,1.06,3.24.85,4.77-.76,1-1,1.78-2.22,2.76-3.25a32.69,32.69,0,0,1,3.47-3.29,3.82,3.82,0,0,1,4.94-.08c1.56,1.16,2.94,2.57,4.47,3.77,1.75,1.36,3.26,1.15,4.6-.59.65-.84,1.09-1.85,1.78-2.65,3.16-3.7,9.46-4.72,13-1.9,1.33,1.05,2.15,2.75,3.16,4.18,1.16,1.65,2.37,1.95,4.07.86.9-.57,1.73-1.25,2.58-1.9,3.3-2.5,6.55-2.31,9.77.16.56.44,1.12.88,1.69,1.3,3.59,2.62,4.72,2.59,8.49-.14a23.16,23.16,0,0,1,3.1-2.06c2.17-1.08,3.73-.49,4.75,1.73.67,1.45,1.12,3,1.88,4.41,1.47,2.7,3,3.1,5.66,1.58.76-.44,1.46-1,2.23-1.45a20.57,20.57,0,0,1,2.87-1.4c6.11-2.26,10.24.45,10.58,6.91.09,1.77,0,3.56.27,5.3a2.24,2.24,0,0,0,3.33,1.52c.91-.52,1.68-1.29,2.54-1.9a28.48,28.48,0,0,1,4-2.65c3.67-1.75,6.18-.74,7.67,3a36.64,36.64,0,0,1,1.07,3.57c.3,1,.51,2.08.88,3.08,1.13,3,2.8,3.77,5.83,2.37a17.14,17.14,0,0,1,6.58-1.94c3.74-.13,6.63,1.17,8.08,4.8.79,2,1.44,4,2.06,6,.37,1.18.47,2.44.87,3.61a2.7,2.7,0,0,0,3.38,1.84c.86-.19,1.67-.58,2.52-.82a22.69,22.69,0,0,1,3.11-.75c5.57-.72,9.3,2.64,9.15,8.31a33.92,33.92,0,0,1-.66,4.2c-.58,3.86.47,5,4.21,4.57a50,50,0,0,1,5.28-.63c6.75-.07,9.7,4.18,7.35,10.58-.61,1.65-1.69,3.12-2.38,4.75-1,2.27.23,3.91,2.7,3.79,1.23-.06,2.46-.35,3.7-.45a26.27,26.27,0,0,1,4.25-.15c2.54.2,4,1.55,4.09,4,.1,1.76-.22,3.54-.28,5.31-.11,2.93,1.07,4.3,3.94,4.57a23.61,23.61,0,0,0,2.66,0c3.61-.11,5.59,2,6.34,5.28a18.36,18.36,0,0,1,.17,4.75c0,1.06-.41,2.1-.5,3.16-.28,3.25,1,4.55,4.32,4.43,1.06,0,2.13-.17,3.19-.28,4.18-.41,7.67,1.18,10.73,3.82s3.68,6,1.7,9.58c-.68,1.23-1.66,2.32-2.3,3.58a3.15,3.15,0,0,0,2.38,4.82c2.09.39,4.24.5,6.31.93,2.87.59,4.57,2.5,5.55,5.22a7.52,7.52,0,0,1-.8,6.64c-.79,1.37-1.83,2.62-2.61,4a2.51,2.51,0,0,0,1.17,3.61,41.94,41.94,0,0,0,5,1.68,15.27,15.27,0,0,1,7.88,5.21c2.13,2.65,2.53,5.53.61,8.37a50.1,50.1,0,0,1-4.48,5.21c-1.38,1.54-1.28,3.47.44,4.55a22.86,22.86,0,0,0,3.4,1.45,23.07,23.07,0,0,1,3.43,1.41c4,2.43,4.79,5.26,2.74,9.47a39.65,39.65,0,0,1-2.53,4.05c-.58.9-1.3,1.71-1.8,2.64a2.86,2.86,0,0,0,1.47,4.38,45.66,45.66,0,0,0,4.59,1.37c5.07,1.48,7.1,5.31,5.18,10.19a22.4,22.4,0,0,1-2.81,4.48c-.71,1-1.65,1.86-2.35,2.88a3.2,3.2,0,0,0,.11,4,20.94,20.94,0,0,0,1.78,2c.87.89,1.83,1.7,2.66,2.62,3.91,4.35,4.21,6.83,1.45,12-.75,1.41-1.64,2.75-2.37,4.17-1.14,2.24-.72,3.57,1.53,4.83,1.08.61,2.26,1,3.39,1.57,5.47,2.56,7,7,4,12.19a27.42,27.42,0,0,1-4.14,4.78,17.31,17.31,0,0,1-2.21,1.47q-4,3,.09,5.89c.58.4,1.24.7,1.82,1.1,6.27,4.44,7.18,11.76,2.14,17.57-.93,1.07-2.08,1.94-3.06,3-1.89,2-1.8,3.56.3,5.45.66.59,1.45,1,2.14,1.59,2.85,2.37,3.52,5.2,1.89,8.52a18.42,18.42,0,0,1-2.08,3.07c-.88,1.12-1.9,2.13-2.76,3.26-1.7,2.24-1.72,3.59,0,5.74,1.1,1.39,2.4,2.62,3.49,4,2.69,3.45,2.6,6.77-.19,10.15a4.38,4.38,0,0,1-.36.39c-4.86,4.57-4.06,5.85-1.31,10.5,3.31,5.62,2.95,7.35-1.61,12.19-.48.52-1,1-1.51,1.5a4.54,4.54,0,0,0-.81,5.42c.6,1.28,1.37,2.49,2,3.76a6.38,6.38,0,0,1-1.18,7.85c-1.1,1.15-2.36,2.14-3.54,3.22-2.41,2.2-2.51,3.88-.3,6.35.94,1.06,2.1,1.94,3,3,2,2.46,1.73,5-.62,7.07-1.07.92-2.37,1.57-3.51,2.41-3.19,2.33-3.47,3.87-1.33,7.11.68,1,1.45,2,2.08,3.1a7.57,7.57,0,0,1-.49,9c-1,1.43-2.23,2.76-3.38,4.12-.69.82-1.49,1.54-2.11,2.4a3.76,3.76,0,0,0,.09,4.91c.65.84,1.47,1.54,2.16,2.35,3.62,4.32,2.86,9.22-2,12.17-1.35.83-2.93,1.27-4.35,2-1.93,1-2.46,2.46-1.55,4.44.67,1.45,1.51,2.81,2.31,4.2a7.46,7.46,0,0,1,.06,8.09c-1,1.66-2,3.37-3.15,4.93-1.77,2.35-2.25,4.77-.94,7.47.23.48.37,1,.62,1.47,2.3,4.36,1.21,8.24-1.64,11.88-.55.7-1.15,1.36-1.67,2.07a5.34,5.34,0,0,0-.63,5.55c.4,1,.88,1.94,1.36,2.89,2.33,4.71,1.69,8.93-2,12.71q-1.48,1.53-2.9,3.12a6.55,6.55,0,0,0-1.5,6.44,46.77,46.77,0,0,1,1.12,5.2,9,9,0,0,1-3,8.65c-1.33,1.18-2.56,2.47-3.92,3.62a7.46,7.46,0,0,0-2.59,7.67,38,38,0,0,0,2,6.59c2,4.77,4.11,9.44,6.09,14.19a13.65,13.65,0,0,1,.81,3.6c0,.41-.39,1.19-.72,1.26-.59.14-1.62.1-1.87-.27a47.54,47.54,0,0,1-3.89-6.31,25.28,25.28,0,0,0-5-6.85,4.75,4.75,0,0,0-3.87-1.42,2.31,2.31,0,0,0-2.25,2.92c.59,1.85,1.43,3.63,2.15,5.44,1.65,4.13.77,6.85-3.15,8.84a64.23,64.23,0,0,1-6.44,2.53c-3.05,1.16-3.63,2.33-2.44,5.23.75,1.81,1.7,3.54,2.37,5.37,1.34,3.69.73,5.67-2.54,7.7a33.89,33.89,0,0,1-5.28,2.48c-4,1.6-4.49,2.75-2.69,6.86a15.2,15.2,0,0,1,.89,1.93,34.52,34.52,0,0,1,1.3,5.7,6.74,6.74,0,0,1-4.24,7.29c-1.45.64-3,1.07-4.5,1.63a21.14,21.14,0,0,0-2.94,1.22,3,3,0,0,0-1.47,3.65c.43,1.35,1.09,2.62,1.64,3.93a18.69,18.69,0,0,1,1.65,9.35c-.49,4.38-2.72,6.69-7.07,7.37-.7.11-1.42.08-2.12.19-3.81.62-5,2.22-4.16,5.85.19.87.55,1.7.75,2.56a6.71,6.71,0,0,1-4.55,8.4,27.14,27.14,0,0,1-3.13.65c-1.39.29-2.81.49-4.16.9-4,1.2-5.14,3-4.8,7.06.15,1.95.44,3.9.44,5.84,0,4.9-1.55,7-6.22,8.75-1,.36-2.07.54-3,1a3.79,3.79,0,0,0-2.62,4.16,19.12,19.12,0,0,0,.34,2.1c.16.88.37,1.74.48,2.62.8,6.21-1.77,9.53-7.92,10.15-1.59.17-3.21.1-4.78.33-2.78.4-4.06,1.91-3.91,4.74.09,1.76.59,3.5.78,5.26.44,4-.78,5.59-4.7,6.29-1.92.35-3.89.45-5.77.93a3.06,3.06,0,0,0-2.33,4.11c.26,1,.8,2,1.09,3a22,22,0,0,1,.91,4.14,5.36,5.36,0,0,1-3.55,5.93,31,31,0,0,1-5.64,1.4c-1.22.22-2.49.06-3.73.21-3.14.36-4.29,1.76-4.1,5,.08,1.42.43,2.81.53,4.23a24.64,24.64,0,0,1,0,4.78,7.88,7.88,0,0,1-7.87,7.25,37.1,37.1,0,0,1-5.81-.62c-3-.35-4.25.73-4.29,3.85,0,.89.15,1.77.18,2.66a37.9,37.9,0,0,1,.08,4.26c-.36,5-2,7-6.81,8.22-1.89.5-3.84.75-5.73,1.23-3.45.88-4.43,2-4.76,5.47-.1,1.06-.08,2.13-.19,3.19-.51,4.85-2.92,8.42-7.55,10-4,1.38-6.19,3.93-6.83,8a11.49,11.49,0,0,1-2.54,5.78,9.93,9.93,0,0,1-5.69,3.69c-1.4.27-2.78.63-4.15,1a9.17,9.17,0,0,0-5.62,3.77c-3.12,4.66-7.59,6.19-13,5.46a172.89,172.89,0,0,1-26.05-5.51c-11.11-3.32-21.51-8.28-31.61-13.94a65.19,65.19,0,0,0-7.28-3.27,15.54,15.54,0,0,0-10.46-.77c-5.57,1.65-10.48.25-15.29-2.49q-15.53-8.82-31.11-17.51a52.68,52.68,0,0,0-6.18-3.13,26.25,26.25,0,0,0-5.6-1.47,28.36,28.36,0,0,0-4.79-.18c-9.66.12-18.6-2.6-27-7.06a55.57,55.57,0,0,1-7.16-4.61,92.14,92.14,0,0,1-15.65-15.18,23.46,23.46,0,0,1-5.34-14.74,103.1,103.1,0,0,1,4.34-31.54c2.19-7.69,3.93-15.5,6-23.22,2.71-9.93,5.58-19.82,8.39-29.72,1.35-4.79,2.58-9.61,4.12-14.33a74.15,74.15,0,0,1,3.58-8.3,8.27,8.27,0,0,1,6.14-4.68,34.5,34.5,0,0,1,6.33-.73c6-.11,12.08-.07,18.12-.07a21.35,21.35,0,0,1,2.66.13,6.17,6.17,0,0,1,5.05,3.46,23.67,23.67,0,0,0,1.47,2.83,3,3,0,0,0,3.77,1.11,26.48,26.48,0,0,0,3.17-1.92c4.33-2.79,8.64-5.61,13-8.38a19.58,19.58,0,0,1,2.81-1.52c7.69-3.35,15,.42,16.63,8.66a18.29,18.29,0,0,1,.3,4.25c-.1,3.37-.23,6.75-.54,10.1-.33,3.59.68,6.23,4.26,7.67,5,2,7.31,6.1,7.45,11.31.17,6.48,1.86,12.64,3.58,18.79a26,26,0,0,0,2.59,5.8,2.42,2.42,0,0,0,4.06.44c.75-.75,1.38-1.62,2.06-2.44s1.32-1.69,2.07-2.44c3.61-3.59,6.6-4.18,11-1.68a108.14,108.14,0,0,1,9.31,6.19c5.82,4.11,11.8,8,18.57,10.31a43.69,43.69,0,0,0,7.73,1.84c1.94.29,3-1.34,2.17-3.13-.65-1.45-1.49-2.82-2.28-4.21-3.9-6.9-3.13-14.27,2.2-20.18a32.69,32.69,0,0,1,3.9-3.63,42.52,42.52,0,0,0,10.75-12.41,20.18,20.18,0,0,1,3-4.38c3-3,6.51-5,10.93-4.58,3,.3,6,.76,9,1.29,3.69.65,7.39,1.22,11.12.57,2.24-.39,4.87-.49,5.91-3s-1-4.26-2.48-6c-2.06-2.44-4.32-4.75-6.12-7.37a25.66,25.66,0,0,1-3.21-6.67c-.83-2.57.53-4.54,3.1-5.27a11.74,11.74,0,0,1,1.57-.29l20.07-2.74a30.44,30.44,0,0,0,3.15-.53,6.17,6.17,0,0,0,4.33-3.63c.35-.82.65-1.65,1-2.49a6,6,0,0,1,6.08-4.28c3.56,0,7.11,0,10.67,0a40.33,40.33,0,0,0,4.26-.1c2.59-.28,3.67-2.05,2.88-4.54a6.16,6.16,0,0,0-.61-1.47c-3.57-5.51-4.17-11.61-3.6-17.94.39-4.32-1.61-7.53-4.81-10.14-1-.78-2.2-1.21-3.11-2a55.05,55.05,0,0,1-5.65-5.57c-2.31-2.78-2.4-5.83-.22-8.82.73-1,1.48-2,2.22-3s1.72-2.26,2.53-3.43a7.51,7.51,0,0,0,.49-8.52c-.94-1.71-1.64-3.58-2.71-5.19a14.3,14.3,0,0,1-1.68-12.29c1.5-5.28,2.45-10.78,5.5-15.51a9.52,9.52,0,0,0,.73-1.42c1-2.38.53-3.64-1.77-4.72a44.59,44.59,0,0,1-5.26-2.52c-4.49-2.9-5.64-7.14-3.52-12a15.45,15.45,0,0,1,5.12-6c1.84-1.39,3.82-2.59,5.74-3.87.89-.59,1.84-1.1,2.66-1.77a3.17,3.17,0,0,0,.62-4.7,30.06,30.06,0,0,0-2.21-2.31c-3.06-3.22-6.16-6.4-9.15-9.69a27.05,27.05,0,0,1-2.75-3.9c-1.71-2.74-2.2-5.55-.57-8.57a7.2,7.2,0,0,0,.26-6.69,7.53,7.53,0,0,1,.26-7.12c.82-1.59.32-2.78-1.26-3.55-2.24-1.07-4.57-2-6.88-2.86-1.65-.65-3.42-1-5-1.8-3.33-1.58-4.33-4.76-2.49-8a25.74,25.74,0,0,1,2.95-3.75c.69-.81,1.57-1.46,2.21-2.3a2.34,2.34,0,0,0-1-3.57,16.33,16.33,0,0,0-3.61-.76q-6.63-.76-13.25-1.43a11.85,11.85,0,0,1-6.85-2.62c-3.4-2.92-4.17-6.87-1.38-10.38a69.16,69.16,0,0,1,7.51-7.51c1.69-1.57,3.69-2.81,5.35-4.4a13.71,13.71,0,0,0,3.22-4.16c1.42-3.24,2.48-6.65,3.6-10a6.38,6.38,0,0,0-2.73-7.9,20.22,20.22,0,0,0-4.66-2.52,46.1,46.1,0,0,0-8.73-2.32,24.81,24.81,0,0,1-12.47-5.56,38.45,38.45,0,0,0-9.55-5.76,21.39,21.39,0,0,0-14.09-.74,31.35,31.35,0,0,1-3.07.88,3.42,3.42,0,0,1-4.19-4.05,7.47,7.47,0,0,1,1.17-3.48c2.8-3.64,3.83-8,5.11-12.22.92-3.06,1.86-6.12,2.72-9.2.68-2.43.07-3.78-2.26-4.61-2.67-1-5.41-1.75-8.14-2.54-3.75-1.1-7.57-2-11.28-3.22a51,51,0,0,0-15.74-2.39c-4.64,0-9.19.22-13.65,1.82-4.1,1.46-6.39.36-8-3.74-1.88-4.79-3.65-9.65-5.09-14.59-1.28-4.38-3.56-7.67-7.79-9.53a13.8,13.8,0,0,1-2.75-1.62,6.17,6.17,0,0,1-2.54-6.08c.17-1.22.59-2.42.75-3.65.41-3-.83-4.87-3.9-5.21a45,45,0,0,0-7.43,0c-2.13.11-4.23.56-6.36.65a22.9,22.9,0,0,1-5.3-.29,8.67,8.67,0,0,1-6.87-5.3c-.4-1-.88-1.94-1.34-2.9-1.79-3.67-2.51-4.05-6.69-3.51-1.41.18-2.8.5-4.22.63a12.45,12.45,0,0,1-3.17,0,4.31,4.31,0,0,1-3.49-2.95,5.65,5.65,0,0,1-.37-1.55c-.15-5.48-3.54-8.67-7.9-11.15-1.85-1.06-3.71-2.11-5.65-3a11.81,11.81,0,0,1-6.55-6.68c-2.26-6.06-6.75-9.36-12.72-11.07a15.87,15.87,0,0,1-2.49-.93,7.92,7.92,0,0,1-4.84-5.94c-.78-4.19-1.81-8.35-2.35-12.57a10.21,10.21,0,0,0-5.66-8.44c-3.31-1.72-6.57-3.53-9.95-5.11a15.09,15.09,0,0,0-12.44-.25c-6.25,2.55-12.38,5.37-18.55,8.1-2.44,1.08-4.83,2.25-7.27,3.34a9.72,9.72,0,0,1-8.74-.22c-1.59-.8-3.26-1.43-4.82-2.27-12-6.45-25.14-8.49-38.48-9.69a10.77,10.77,0,0,0-8.78,3c-.64.62-1.33,1.18-2,1.82-4.95,5.1-9.83,10.27-14.85,15.3-2.54,2.55-3.42,5.12-1.88,8.61s1.17,3.74-1.66,6.38c-3.13,2.9-6.25,5.8-9.28,8.8a59.51,59.51,0,0,1-11,9.19,21,21,0,0,0-7.24,7.69c-1.34,2.3-2.65,4.62-4,6.9a23.62,23.62,0,0,1-7.5,8.18c-2.65,1.64-3.81,1.46-6-.78-.37-.38-.65-.86-1-1.21a3.31,3.31,0,0,0-4.79-.11c-1.09.91-2,2.08-3,3a54.1,54.1,0,0,1-5,3.89,8.12,8.12,0,0,1-8.6.5c-1.6-.79-3.25-1.46-4.79-2.34a15.22,15.22,0,0,0-8.67-2.18,15.57,15.57,0,0,1-10-3c-3.38-2.29-6.8-4.52-10.2-6.79-.89-.6-1.71-1.29-2.6-1.86-3.68-2.37-5.21-1.89-6.41,2.49-1.32,4.82-4.61,7.4-9,9a13.58,13.58,0,0,1-2.06.54c-3.92.7-6.19,2.85-7.16,6.85-1.23,5-4.63,8.28-9.58,9.87-1.35.43-2.75.77-4.05,1.32-2.21.93-2.66,3.18-.84,4.65s3.82,2.58,5.74,3.85c2.08,1.36,4.28,2.57,6.22,4.1,3.5,2.75,3.78,5.6,1.13,9.22-1.06,1.43-2.25,2.76-3.31,4.19a3.16,3.16,0,0,0,0,4c.72,1,1.56,1.94,2.31,2.93,2.49,3.36,2.56,5.14.21,8.71a30.41,30.41,0,0,1-8.63,8.62c-7.09,4.72-14.33,9.23-21.51,13.82-.6.38-1.26.66-1.87,1-3.87,2.36-4.46,3.52-2.84,7.85,1.75,4.68.34,8.37-3,11.57-2.3,2.22-4.82,4.2-7.25,6.28-.81.69-1.71,1.29-2.44,2a3.07,3.07,0,0,0-.41,3.92c.78,1.18,1.82,2.19,2.58,3.38A2.85,2.85,0,0,1,624,910.8,22.78,22.78,0,0,1,620.5,912q-11.07,2.94-22.13,5.83c-1.38.36-2.79.58-4.16.93-2.07.52-4.12,1.11-6.18,1.65-4.82,1.26-4.77,3.64-1.81,6.61a111.17,111.17,0,0,1,8.9,10.58,9.19,9.19,0,0,1,.79,11c-2.31,3.88-2,7.76-.6,11.79a55,55,0,0,1,1.71,5.61c1,4.12.12,7.76-3.15,10.64A48.79,48.79,0,0,1,589,980.7c-3,2-3.58,4.63-2.78,7.9a36.07,36.07,0,0,0,5,11.14,18.09,18.09,0,0,0,12.31,7.78c5.45,1,7.4,4,7.78,9a50.31,50.31,0,0,0,1.57,7.28c1,4.33-.4,7.83-4.1,10.12-3.46,2.14-7.16,3.91-10.76,5.83a28.55,28.55,0,0,0-3.3,1.71,4.27,4.27,0,0,0-1.52,5.64c.71,1.63,1.72,3.11,2.49,4.71,2.09,4.32,1.63,6.83-1.95,9.89a35.79,35.79,0,0,1-4.35,3.06c-3.91,2.45-7.88,4.82-11.79,7.27a31,31,0,0,0-3.89,2.8c-2,1.71-1.71,3.84.55,5.25.75.46,1.59.79,2.39,1.18l10.57,5.06c.48.23.94.51,1.4.78,4.28,2.59,4.64,3.82,2.36,8.12a55.84,55.84,0,0,1-10.19,13.6c-3.78,3.76-7.76,7.31-11.67,10.93-1.44,1.33-2.88,2.65-4.42,3.85-2.86,2.24-3.93,4.9-2.43,8.41.7,1.63,1,3.42,1.68,5.06a36.79,36.79,0,0,1,2.22,10.92c.56,6.65-.79,12.73-5,18a10.61,10.61,0,0,0-.65.85c-1.88,2.88-1.38,4.41,1.85,5.65,1.49.57,3,1.07,4.48,1.69,3.71,1.57,5.5,4.34,5.1,8.42-.17,1.76-.3,3.54-.59,5.29-.51,3.16-1.15,6.29-1.71,9.44a20.11,20.11,0,0,0-.41,3.16,3.07,3.07,0,0,0,3.28,3.37,11.64,11.64,0,0,0,2.12-.22c6.82-1.22,13.64-2.4,20.44-3.72,4-.78,8-1.83,11.93-2.71,2.63-.59,4.39.28,5.5,3a18.48,18.48,0,0,1,.37,14c-.43,1.16-1,2.28-1.34,3.47a2,2,0,0,0,2.48,2.52c6-2.18,12.16-4,17.5-7.68a10.75,10.75,0,0,0,2.56-2.69,17,17,0,0,1,9.46-6.54c5.3-1.54,10.5-3.29,15.23-6.25a3.32,3.32,0,0,1,4,.06c1.15.89,1.5,2.6.93,4.4a9.46,9.46,0,0,1-3.47,4.61c-1.68,1.3-3.44,2.54-5,4a25.5,25.5,0,0,0-3.4,4.06,9.24,9.24,0,0,0-1.12,8.64c.35,1,.67,2,1.09,3,1.39,3.17,2.46,3.59,5.84,2.23a47.1,47.1,0,0,0,4.84-2.23,15.75,15.75,0,0,1,7.72-1.67c4.83,0,8,2.48,10.27,6.43a17.5,17.5,0,0,1,2.14,8.72c0,4.81-.28,9.6-2,14.16-.52,1.34-1.2,2.75-.17,4,1.19,1.51,2.85,1.11,4.42.64,7-2.06,14-4.09,21-6.19A42.21,42.21,0,0,0,728,1236.29a32.91,32.91,0,0,1,2.7-3.3,18.79,18.79,0,0,1,10-5.8c4.53-.89,9-1.92,13.52-3a50.1,50.1,0,0,0,18.27-8.45,23.42,23.42,0,0,1,14.39-4.71c13.87-.18,27.73-.12,41.54,1.44,3.35.38,6.73.58,10.1.75,7.67.37,15.14,2,22.62,3.56,5.37,1.1,8.19,4.85,8.13,10.33a56.3,56.3,0,0,1-.72,7.42c-.7,4.74-1.37,9.5-2.32,14.2-1.72,8.57-2.33,17.25-2.94,25.94-.28,3.9-.53,7.8-.92,11.69a35.22,35.22,0,0,0,.57,10.59c.84,4.17,1.34,8.42,1.89,12.64s-1.32,6.64-4.63,8c-10.57,4.19-20.93,8.92-31.59,12.81-6,2.18-12.12,4.14-18.59,4.49a28.59,28.59,0,0,0-4.22.6c-6.26,1.31-11.78,3.88-15.8,9.12-1.94,2.53-4,5-6.05,7.44-4,4.84-8.27,9.32-13.81,12.38-3.89,2.15-8,4.08-12.36,4.76a36.47,36.47,0,0,0-12.41,4.62,53.17,53.17,0,0,1-21.65,6.92c-5.48.5-10.92,1.5-16.39,2.08-4.24.45-8.5.74-12.75.83-2.93.06-3.69-.75-4.54-3.53-2-6.69-2-6.67-9.17-7.12a21.33,21.33,0,0,1-4.73-.67,6.24,6.24,0,0,1-4.44-7c.16-1.23.54-2.44.6-3.67a2.32,2.32,0,0,0-2.76-2.47,38.94,38.94,0,0,0-4.59,1.36c-6.87,2.34-9.55.47-9.85-6.91-.06-1.42,0-2.85-.13-4.26-.26-2.36-1.42-3.47-3.78-3.68a28.48,28.48,0,0,0-3.2,0c-1.24,0-2.48.18-3.72.16-5.58-.06-7.69-2.58-6.84-8.12.13-.88.44-1.73.55-2.61.32-2.74-.81-4.07-3.54-4-2.48,0-5,.38-7.45.23a11.93,11.93,0,0,1-5-1.31,7.58,7.58,0,0,1-4-6.53c-.06-1.42-.08-2.84-.08-4.26,0-1.25.08-2.49,0-3.73-.18-3.76-1.34-4.8-5-4.44-.88.09-1.75.3-2.63.39-5.64.56-8.73-1.78-9.68-7.41-.32-1.93-.36-3.89-.56-5.84-.49-4.72-1.61-5.7-6.49-5.68a40.44,40.44,0,0,1-4.26.06,14,14,0,0,1-4.11-1,6.94,6.94,0,0,1-4.29-7.77,38.06,38.06,0,0,1,1.19-4.64c.42-1.54,1-3.06,1.24-4.63.51-3-.79-4.44-3.76-4.25-1.24.09-2.46.41-3.7.51a15.89,15.89,0,0,1-3.71,0,6.22,6.22,0,0,1-5.27-8.22c.38-1.35,1.18-2.58,1.64-3.92,1-3-.43-4.81-3.67-4.69-2.48.09-5,.44-7.45.38-4.8-.11-7.49-2.76-7.88-7.57-.1-1.24,0-2.5-.08-3.73-.23-3.11-1.25-4.15-4.2-4.38-.36,0-.71,0-1.07,0-5.26-.24-8.68-2.91-9.66-8.06a37.35,37.35,0,0,1-.18-7.41c0-1.05.39-2.1.47-3.16a3.35,3.35,0,0,0-1.9-3.52c-2.08-1-4.24-1.83-6.34-2.78a23.63,23.63,0,0,1-4.29-2.08c-3.75-2.65-4.57-5.23-3.36-9.72.55-2.06,1.29-4.07,1.7-6.16s-.64-3.45-2.72-3.85c-1.56-.3-3.19-.28-4.75-.61-6.47-1.37-8.65-4.94-6.77-11.26a40.17,40.17,0,0,1,2.28-5.38c.37-.8,1-1.49,1.37-2.28,1.44-2.88.35-4.83-2.91-5.15-1.77-.17-3.56-.07-5.32-.27-7.8-.86-10.41-5.57-7.16-12.73a50,50,0,0,0,2.43-5.89,2.86,2.86,0,0,0-2-3.77,16.47,16.47,0,0,0-3.11-.7,12.24,12.24,0,0,1-6.55-3.34c-2.66-2.38-3.27-4.83-1.69-8.12a67.1,67.1,0,0,1,3.85-6.38c.56-.89,1.29-1.7,1.76-2.63a2.56,2.56,0,0,0-1.37-3.55c-1.31-.51-2.74-.71-4.09-1.12a44.25,44.25,0,0,1-6.57-2.14c-3.18-1.51-4.11-4.31-2.8-7.58.66-1.64,1.61-3.18,2.22-4.84a3.22,3.22,0,0,0-1.73-4.45c-1.43-.71-3-1.15-4.47-1.72-7.44-2.83-10.74-7-6.78-15.79.22-.48.42-1,.65-1.46,1.42-3,1.29-5.73-3.38-6.38a12,12,0,0,1-6.11-3.08c-2.55-2.18-3.29-4.65-1.78-7.61a47.14,47.14,0,0,1,4.48-6.55c1-1.28,2.22-2.32,3.14-3.61a2.68,2.68,0,0,0-1.53-4.25,27.59,27.59,0,0,0-3.64-.73,50,50,0,0,1-6.28-1.16,17.31,17.31,0,0,1-5.17-2.59c-2.29-1.75-2.74-4-1.61-6.68a54.42,54.42,0,0,1,2.69-5.2c.43-.78,1-1.46,1.44-2.24,1.18-2.22.66-3.72-1.59-4.71s-4.55-2-6.79-3.05a13,13,0,0,1-2.68-1.72c-3.77-3.17-4.48-6.45-2.22-10.88a40.51,40.51,0,0,1,3.21-4.87c.71-1,1.59-1.92,2.26-3a2.72,2.72,0,0,0-.89-4.14c-1.51-.9-3.21-1.49-4.8-2.28a36.25,36.25,0,0,1-5.61-3c-4.28-3.15-4.66-6.23-1.47-10.42,1.07-1.41,2.31-2.69,3.52-4a30,30,0,0,1,2.3-2.21c3-2.59,2.51-4.79-.75-6.61a55.91,55.91,0,0,1-8.71-6.08c-4.4-3.74-4.77-8.07-1.31-12.69a55.45,55.45,0,0,1,4-4.23c1.88-2,1.7-3.72-.61-5.28a33.48,33.48,0,0,0-3.26-1.82,19.63,19.63,0,0,1-6.05-5.16,6.75,6.75,0,0,1-.81-8,49,49,0,0,1,3.63-5.24c.63-.85,1.46-1.56,2.08-2.42a3.21,3.21,0,0,0,0-4c-.71-1-1.62-1.89-2.39-2.86-2.08-2.65-4.32-5.2-6.17-8-3-4.57-2.3-8.18,1.92-11.66a5.27,5.27,0,0,1,.86-.63c3.72-2,3.6-4.72.27-7.51a19.41,19.41,0,0,1-5.84-8.14,9.5,9.5,0,0,1-.15-7.27,62.36,62.36,0,0,1,3.2-6.7c2.08-3.64,2.05-4.74-.68-8.05a49.71,49.71,0,0,1-3.92-5c-2.41-3.84-2.15-6.74.72-10.26,1-1.23,2.14-2.38,3.27-3.51,1.91-1.92,2-4,.76-6.31-1.36-2.5-2.81-5-3.93-7.56a24.88,24.88,0,0,1-1.7-6.11,7.3,7.3,0,0,1,3.61-7.73c1.8-1.11,3.8-1.9,5.66-2.92a2.67,2.67,0,0,0,1-4.09c-1.08-1.39-2.39-2.61-3.58-3.93a11.9,11.9,0,0,1-3.34-7.08c-.47-5.2,1.6-9.32,6-11.55,5-2.53,4.32-4.61,1-7.92a11,11,0,0,1-3.45-9.67,14,14,0,0,1,9.68-11.54c.34-.1.71-.12,1-.22,3.17-1,3.77-2.66,2-5.6-.93-1.52-2-2.93-2.85-4.5-1.73-3.38-1.48-5.52,1.18-8.2a20.42,20.42,0,0,1,4.71-3.42c5.35-3,6.14-4.1,1.61-9a17.8,17.8,0,0,1-1.89-2.58c-2.63-4.23-1.84-7.73,2.45-10.42a32.86,32.86,0,0,1,4.31-2.07c1-.42,2-.67,3-1.11,2.15-1,2.85-2.44,2.23-4.76-.36-1.36-1-2.66-1.34-4a9,9,0,0,1,6.46-11.18c.84-.26,1.73-.38,2.6-.58,4.21-1,4.79-2.11,3.43-6.44-.32-1-.7-2-.93-3a15.46,15.46,0,0,1-.41-3.16c0-3.77,1.73-6,5.41-6.83a41.74,41.74,0,0,1,4.76-.53c4.54-.44,5.39-1.55,4.79-6.23-.28-2.12-.68-4.23-.76-6.35-.28-7.82,4.07-12.31,11.94-12.4,1.24,0,2.49.19,3.73.14a2.63,2.63,0,0,0,2.61-3.26,22.38,22.38,0,0,0-1-3.57c-.46-1.35-1.13-2.63-1.47-4-1.37-5.37,1.54-10.1,7-11.15a52.73,52.73,0,0,1,6.9-.47c3.46-.21,4.53-1.33,3.88-4.71a16.59,16.59,0,0,1,.5-9.41,18.06,18.06,0,0,1,6.09-7.92,5.74,5.74,0,0,1,6.43-.77c4.73,2.13,5.86,1.53,7.12-3.3.67-2.58,1.22-5.19,1.81-7.79a11.14,11.14,0,0,1,3.45-5.88c2.18-2,4.36-2.38,6.82-.87a40,40,0,0,1,5,4c1,.8,1.73,1.8,2.71,2.55a2.59,2.59,0,0,0,4.27-1.32c.59-1.66.88-3.44,1.38-5.14.75-2.57,1.59-5.1,3.63-7,1.87-1.75,3.66-2,5.78-.57,1.61,1.09,3,2.45,4.57,3.66,1.77,1.39,3.32,3.89,5.86,2.93,2.75-1,1.81-4,1.8-6.12a12,12,0,0,1,4.69-9.69c2.77-2.34,8.37-2.84,11.28.14a30.72,30.72,0,0,0,3.56,3.19,3.19,3.19,0,0,0,4.39-.16c1-.78,1.76-1.75,2.69-2.57a53,53,0,0,1,4.87-4.14,8.21,8.21,0,0,1,10.74.69c1.06.94,2,2.06,3,3,1.83,1.61,3.36,1.55,5.14-.21.75-.75,1.35-1.65,2-2.47,5.45-6.57,11.21-6.18,15.87,1.09.57.9,1,1.88,1.65,2.74a2.54,2.54,0,0,0,3.74.67c1.13-.83,2.08-1.92,3.18-2.81a88.5,88.5,0,0,1,7.54-5.9c3.55-2.28,6.8-1.55,9.31,1.87a42.88,42.88,0,0,1,2.84,5.1,31.47,31.47,0,0,0,1.46,2.83,2.71,2.71,0,0,0,3.32.95,18.2,18.2,0,0,0,2.3-1.32c1.21-.74,2.35-1.62,3.6-2.27,3.69-1.92,6.67-.83,8.1,3a22.75,22.75,0,0,1,.82,4.15c.22,1.22.29,2.47.62,3.66a2.26,2.26,0,0,0,3,1.46,16.57,16.57,0,0,0,3.08-2c1.68-1.31,3.22-2.81,4.95-4a12.91,12.91,0,0,1,3.81-1.84,8.63,8.63,0,0,1,10.86,6c.5,1.7.63,3.5,1.11,5.21.77,2.72,2.91,3.64,5.35,2.4.79-.4,1.45-1,2.21-1.49a33.31,33.31,0,0,1,3.26-1.8c5.11-2.3,8.86-1.07,11.59,3.86a45.18,45.18,0,0,1,1.84,4.42,5,5,0,0,0,5,3.22c1.24,0,2.47-.25,3.71-.38,1.77-.18,3.53-.43,5.3-.51a9.65,9.65,0,0,1,8.69,4.29c1.44,2,2.68,4.19,4.06,6.26,2,3.06,3.41,3.85,6.66,2.44,4.33-1.87,7.22-.21,9.72,3,2,2.52,3.78,5.16,5.59,7.79s3.84,4.12,7.07,3.93c4-.24,6.76,1.83,8.82,5,1.75,2.68,3.4,5.42,5,8.17A12.64,12.64,0,0,0,810,629.2c4.26,1.33,7.32,4.26,9.71,7.94.67,1,1.38,2.06,2,3.14,3.67,6.22,9.2,10.26,15.65,13.16,3.2,1.44,5.51.61,6.92-2.65a14.45,14.45,0,0,0,1-5.15c.12-4.08,0-8.17,0-12.26,0-6.93,0-13.86.11-20.79a43.73,43.73,0,0,1,2.64-13c2-6,5-11.32,7.86-16.8,2.27-4.36,5-4,7.27.15a32.42,32.42,0,0,1,3.7,17,71.58,71.58,0,0,0,.42,9C867.41,609.84,868.24,610.65,869,612Z"/><path class="cls-1" d="M1251.71,357.66a221.56,221.56,0,0,0-37.58,2.59c-11.05,1.79-22,3.95-33,6.24-9,1.89-18.14,3.5-27.2,5.31-9.41,1.88-18.84,3.76-27.91,6.91-6.53,2.26-12.89,5-19.24,7.79a191.37,191.37,0,0,1-28.13,9.77c-9.34,2.41-18.91,3.16-28.31,5.09-9.24,1.9-18.33,4.26-27.37,6.89-11.26,3.29-22.23,7.4-33.16,11.6a325.75,325.75,0,0,0-34.39,15.71,284.34,284.34,0,0,0-35.74,22.19,187.51,187.51,0,0,0-41.11,40.73,63.13,63.13,0,0,0-8.16,14.93c-1.07,2.82-2.29,5.59-3.46,8.38a28.72,28.72,0,0,1-8.38,11.51,18.48,18.48,0,0,0-2.38,2.12,3.39,3.39,0,0,0-.44,4,6.24,6.24,0,0,0,1.21,1.74c4.61,4.3,4.46,9.6,2.5,14.8-3.47,9.16-5.85,18.64-8.74,28-.58,1.86-.84,3.83-1.46,5.68a16.68,16.68,0,0,1-2.06,4.27c-1.52,2.14-4,1.78-4.94-.72a13.29,13.29,0,0,1-.68-4.13,6.57,6.57,0,0,1,.6-2.58c1.47-3.66.82-6.79-1.62-9.93-2.2-2.83-3.1-6.35-3.74-9.89A114.15,114.15,0,0,0,832.12,548a68.91,68.91,0,0,0-3.09-7.36c-1-1.93-3.08-1.73-4.16.2a7.59,7.59,0,0,0-.57,5.68c.67,3,1.34,5.9,1.94,8.86.32,1.56.75,3.31-.93,4.35s-3.47.12-4.84-1a25.31,25.31,0,0,1-8.63-14.92c-.31-1.57-.35-3.18-.57-4.77-1-7.56-1.77-15.19-3.26-22.67a151.59,151.59,0,0,0-7.58-25.51,133.27,133.27,0,0,0-16-30c-4.91-6.73-10.48-13-15.84-19.39a79.09,79.09,0,0,1-10-14.42c-3.13-6.07-5.44-12.36-5.45-19.29,0-3.55.17-7.1.26-10.65.11-4,1.59-7.63,3.23-11.19a8.63,8.63,0,0,1,5.38-4.87,55.94,55.94,0,0,1,7.21-1.82,46.66,46.66,0,0,1,6.37-.55,66.07,66.07,0,0,0,23.72-5.59,12.74,12.74,0,0,1,11.76.58c7.94,4.29,13.56,10.79,18,18.46,2.86,5,4.53,10.41,6.31,15.81,3.44,10.46,6.87,20.92,10.21,31.41,2.74,8.63,5.31,17.32,8,26,1.9,6.1,3.88,12.18,5.8,18.28,1.44,4.57,2.85,9.15,4.27,13.73.21.68.35,1.39.62,2a3,3,0,0,0,4.79,1.3,16.83,16.83,0,0,0,3.25-3.49,111.54,111.54,0,0,0,14.84-30c3.26-10.71,5.82-21.6,8.43-32.48,2.43-10.19,5.33-20.28,10.14-29.69a73,73,0,0,1,19.18-23.28c6.46-5.29,13.11-10.35,19.58-15.63,8.4-6.85,16.66-13.86,25.06-20.72A77.68,77.68,0,0,1,993,332.1a198.1,198.1,0,0,0,24.85-10.91Q1039.69,310,1061.57,299a112.43,112.43,0,0,1,28.14-9.63c2.25-.46,4.57-.65,6.86-.89,14.73-1.53,29.46-.77,44.21-.23,9.5.36,18.74,2.22,27.9,4.23a269.4,269.4,0,0,1,37.1,11.54c7.64,2.88,15.4,5.45,23,8.41,11.08,4.32,22.45,7.91,33.18,13.13,8.69,4.23,16.53,9.73,24.34,15.28q6.09,4.32,11.92,9a23.85,23.85,0,0,1,4.78,5c2.35,3.44.76,6.5-3.38,6.47a66.87,66.87,0,0,1-11.14-.89A195,195,0,0,0,1251.71,357.66Zm18-11c.77,0,1.18.11,1.47,0,.6-.27,1.45-.58,1.59-1.06s-.46-1.35-1-1.58c-4.34-2-8.71-4-13.1-5.92-9.76-4.28-19.54-8.5-29.29-12.8-11.37-5-22.65-10.24-34.35-14.45-3.17-1.14-6.52-1.73-9.7-2.83a202.45,202.45,0,0,0-32.56-8.05c-26.18-4.43-51.74-1.65-76.73,6.75-11.62,3.91-22.69,9.23-33.55,15-5.18,2.73-10.26,5.69-15.56,8.17-10.14,4.73-20.39,9.23-30.62,13.76-10,4.42-19.22,9.79-26.47,18.31a114.65,114.65,0,0,1-23.8,21.24c-4.43,2.95-9.12,5.51-13.72,8.2a44.78,44.78,0,0,0-17.19,18.45c-2.42,4.63-3.81,9.58-5.28,14.49-3,9.86-5.53,19.85-8.23,29.79a26.85,26.85,0,0,0-.77,4.17,1.72,1.72,0,0,0,2.21,1.64,20.22,20.22,0,0,0,3.59-2.18c4.69-3.51,9.19-7.3,14-10.61a291.76,291.76,0,0,1,44.55-25,381.85,381.85,0,0,1,40.08-15.92q12.92-4.19,25.91-8.11c7.14-2.16,14.35-4.05,21.49-6.19,7-2.08,14.16-3.47,20.56-7.23a25.47,25.47,0,0,1,11.73-3.12,35.07,35.07,0,0,0,7.34-1.22c9.06-2.53,18.06-5.28,27.12-7.81q22.3-6.24,44.68-12.28,12.85-3.45,25.83-6.46c6.23-1.43,12.54-2.5,18.83-3.68,3-.56,6-1,8.94-1.46,3.15-.5,6.3-1.09,9.47-1.46,6.18-.74,12.36-1.38,18.55-2,6.93-.71,13.84-.77,20.67.9C1267.65,346.34,1268.89,346.52,1269.7,346.68ZM763.37,403.27A64.28,64.28,0,0,0,767,422.6c3.51,9.91,8.75,18.65,17.56,24.83a9.23,9.23,0,0,1,3.51,4.54,32.66,32.66,0,0,0,7.24,11.69c1.23,1.28,2.32,2.69,3.42,4.08,7.67,9.73,13.68,20.3,16.71,32.42a15.38,15.38,0,0,0,1.31,3.48c1.5,2.88,3.91,3.08,5.8.52.74-1,1.34-2.09,2-3.13,1.31-2,3-3,5.44-2.15,2.7.89,4.85-.11,6.71-2.06a51.31,51.31,0,0,1,3.75-3.77c2.16-1.83,4.38-1.2,5.52,1.43a27.53,27.53,0,0,0,1.65,3.89,2.59,2.59,0,0,0,4.41-.44,9.91,9.91,0,0,0,.69-3.09,31.6,31.6,0,0,0-1.42-12.1c-2-5.71-3.84-11.45-5.83-17.15q-5-14.32-10.12-28.62c-2.39-6.69-4.59-13.46-7.33-20-4-9.66-8.49-19.16-12.83-28.69a23,23,0,0,0-2.54-4,6.86,6.86,0,0,0-6.5-2.93,58.61,58.61,0,0,0-7.31,1.31c-1.89.44-3.71,1.24-5.59,1.73-7.39,1.92-14.8,3.79-22.2,5.69a17.72,17.72,0,0,0-2,.64,7.35,7.35,0,0,0-5.15,6.22C763.63,399,763.54,401.15,763.37,403.27Z"/><path class="cls-1" d="M872.77,149.77c-8.7-.39-16.92,1.82-24.94,4.79a30.1,30.1,0,0,1-11,1.56c-4.52-.05-8.09-5.22-5.42-9.61,1.1-1.82,2-3.75,3.2-5.53a12,12,0,0,0,2.08-8.08c-.76-7.59-.68-15.26-2.49-22.75a15.6,15.6,0,0,1,0-5.78,37.6,37.6,0,0,0-.68-14.79c-1.09-4.48-2.16-8.91-4.61-13-2.14-3.55-2.66-7.7-2.79-11.82A12.35,12.35,0,0,0,823.3,57,10.05,10.05,0,0,0,815,53a29,29,0,0,0-18.49,7.2,8.47,8.47,0,0,0-2.68,5.09c-1.09,6-1.95,11.88-.8,18a63.24,63.24,0,0,1,1.11,11.65,33.08,33.08,0,0,0,4.71,17.24,13.53,13.53,0,0,1,1.85,10.17,24.42,24.42,0,0,0-.18,6.89,12.44,12.44,0,0,0,1.33,5.09c2.47,4.31,5.06,8.59,9.24,11.56a10.88,10.88,0,0,1,4.06,4.81,6.11,6.11,0,0,1-1.21,6.91,15.35,15.35,0,0,1-8.79,4.68c-4.72.82-9.47,1.49-14.22,2.15-10.38,1.43-20.77,2.76-31.14,4.24-3.4.48-6.68.83-9.84-1a3.13,3.13,0,0,0-4.27.91,22.85,22.85,0,0,1-2.23,2.28,9.27,9.27,0,0,1-6.28,2.55,54.26,54.26,0,0,1-6.38-.21,65.88,65.88,0,0,0-17,.35,40,40,0,0,0-7.72,1.85,34.57,34.57,0,0,1-13.1,1.83,9.41,9.41,0,0,1-1.59-.15c-4.69-1-9.9-4.6-7.18-11.62a21.71,21.71,0,0,1,3-4.95,20.34,20.34,0,0,1,3-3,23.83,23.83,0,0,0,6.69-10.7,20.16,20.16,0,0,0-.31-15.08,41,41,0,0,1-3-16.64,30.93,30.93,0,0,0-2.11-12.52,16.27,16.27,0,0,1-.93-5.72,9.89,9.89,0,0,0-2.74-6.74c-1.46-1.54-2.91-3.11-4.47-4.55-2-1.82-4-3.47-4.4-6.42a15.62,15.62,0,0,1,1.48-9.83,32,32,0,0,1,7.28-9.1c4.6-3.91,9.25-7.77,14-11.5,2.22-1.75,4.71-3.17,7.09-4.71,3.76-2.43,7.73-2.75,11.6-.51,2.65,1.55,4.86,1.27,7.47-.09,4.09-2.13,8.34-4,12.57-5.78a36.9,36.9,0,0,1,28.51-.7,72.33,72.33,0,0,1,11.22,4.84c3.28,1.88,5.85,1.15,8.06-1.41a36.57,36.57,0,0,1,14.1-10.23,32.85,32.85,0,0,1,4.55-1.42c1.56-.37,3.19-.42,4.72-.84A36.83,36.83,0,0,1,830,27.76c6.83,1.59,12.57,4.62,16.8,10.34,3.07,4.14,6.18,8.25,9.43,12.24,3.83,4.68,5.73,10.18,7.06,15.92,1.72,7.43,3.51,14.86,3.71,22.55a19.06,19.06,0,0,0,.81,4.72,84.12,84.12,0,0,1,3.18,20c.26,6.94,3,12.25,8.64,16.23a53.2,53.2,0,0,1,6.52,5.47,23.51,23.51,0,0,1,3.54,4.62,4.28,4.28,0,0,1-.67,5.4,12.45,12.45,0,0,1-8.76,4.53C877.75,149.87,875.26,149.77,872.77,149.77Zm-109.9-30.26a47.35,47.35,0,0,0-.61-5.1c-1.06-4.66-2.27-9.29-3.39-13.94a10.66,10.66,0,0,1-.46-3.14c.29-3.54-.9-6.65-2.57-9.63A14.9,14.9,0,0,1,754,80.58c-.08-3-.34-6-.57-9a21.74,21.74,0,0,0-.52-3.68c-1.14-4.62-4.15-6.84-8.93-6.56a28.33,28.33,0,0,0-3.67.59c-4.7.92-8.37,3.73-12.11,6.46A8.52,8.52,0,0,0,724.56,74,15.92,15.92,0,0,1,723,78.5a13.79,13.79,0,0,0-1.36,8.78c.33,2.1.42,4.26.9,6.32a105.17,105.17,0,0,1,2.76,22.69A17.15,17.15,0,0,0,727,123.5a28,28,0,0,1,2.5,10.29c.54,7.26,4.17,13.11,8.65,18.48,2.26,2.71,4.91,5.1,7.4,7.61a2.21,2.21,0,0,0,3.32.2c3.87-3.64,7.69-7.34,11.52-11a13.13,13.13,0,0,0,3.77-13.65C762.73,130.06,761.24,124.75,762.87,119.51Z"/><path class="cls-1" d="M206.09,1357.9a27.65,27.65,0,0,0,12-1.06,29,29,0,0,0,10.44-6.2c4.14-3.9,8-8.05,12.72-11.35a10.36,10.36,0,0,0,2.57-2.67c4.24-6.33,10.15-10.94,16-15.52,5-3.93,10.3-7.56,14.48-12.5a15.86,15.86,0,0,1,3.25-2.73c10.76-7.31,20.36-16,30.23-24.46,4.47-3.8,8.85-7.72,13.55-11.21,4.53-3.37,5.64-7.46,4-12.62-.54-1.69-1.09-3.39-1.46-5.13A8.57,8.57,0,0,1,331,1242a20,20,0,0,1,10.5,1c3.11,1.3,6.25,2.55,9.29,4a14.61,14.61,0,0,0,9.8,1.41c2.43-.53,4.92-.73,7.39-1a28.59,28.59,0,0,1,10.59.67,12.27,12.27,0,0,1,8.76,7.13c1.31,3,1.12,6-1,8.54a30.6,30.6,0,0,1-5.45,5c-3.16,2.29-6.46,4.41-9.83,6.38a34,34,0,0,0-8.6,7.09,40.55,40.55,0,0,1-9.53,7.63c-1.21.75-2.41,1.5-3.65,2.2-2.87,1.65-5.14,3.77-6,7.12a14.64,14.64,0,0,1-1.15,2.4,12.09,12.09,0,0,1-8.79,7c-5.17,1.2-10.33,2.72-14.93,5.55a24.91,24.91,0,0,0-5,3.91,2.63,2.63,0,0,0,1.32,4.57c6,1,10.19,4.89,14.4,8.69a51.9,51.9,0,0,1,12.62,17,41.71,41.71,0,0,1,3.67,20.23,18.86,18.86,0,0,1-3.65,9.86,128.13,128.13,0,0,1-13.25,16c-10.34,10.51-20.57,21.14-30.88,31.69-1.86,1.9-3.78,3.76-5.8,5.5a13.23,13.23,0,0,0-4.48,8.81,84.83,84.83,0,0,1-1.08,8.45,22.9,22.9,0,0,1-2.55,6.93c-3.28,5.29-11.42,6.09-15.75,1.6a53.92,53.92,0,0,1-6-7.5,54,54,0,0,0-9.8-11.19c-4.84-4.14-8.12-9.4-10.92-15-.84-1.67-1-3.74-1.24-5.64-.42-2.83-.81-3.74-3.39-4-4.14-.35-6.72-2.74-9.18-5.71-4.3-5.2-8.79-10.24-13.14-15.4a68.56,68.56,0,0,0-10.61-9.68,66.86,66.86,0,0,1-10.56-10.51,9.23,9.23,0,0,1-2.09-7,8,8,0,0,1,7.38-7.8A73.55,73.55,0,0,1,206.09,1357.9Zm49.85,54.7c7.5-.07,12.36-2.23,16.49-6.3,10.25-10.1,20.58-20.11,30.86-30.18a19.17,19.17,0,0,0,2.41-2.83,72.68,72.68,0,0,0,8.59-16.49,16,16,0,0,0,.85-6.26c-.26-4.3-2.53-9.36-8.64-10.83a27.45,27.45,0,0,0-13.17-.44c-7.46,1.82-13.87,5.39-18.78,11.41-2.47,3-5,6-7.41,9.09a42.85,42.85,0,0,1-10.94,10c-1,.65-2,1.46-3,2.14-5.21,3.35-8.89,8.11-12.22,13.19a7.69,7.69,0,0,0-.11,9c2.71,4.23,5.08,8.55,4.8,13.84a2.65,2.65,0,0,0,2.11,2.76C251,1411.56,254.28,1412.23,255.94,1412.6Z"/><path class="cls-1" d="M1206.94,10.92c5.55,1.17,10.79-1.41,15.84-5.17a41.94,41.94,0,0,1,8.93-4.68,17.55,17.55,0,0,1,10.51-.51c4.87,1.06,8.12,6.79,6.74,11.63a22.44,22.44,0,0,1-2.4,5.31c-2.27,3.81-4.71,7.53-7.1,11.27a31.49,31.49,0,0,0-4.46,9.62c-1,4-3.44,7.38-5.52,10.88a35.87,35.87,0,0,1-2.7,4,10.1,10.1,0,0,0-2.24,7.45c.13,1.77.08,3.55.06,5.33a8.34,8.34,0,0,1-3.11,6.51c-2.42,2.08-4.83,4.19-7.16,6.38-3.11,2.92-6.07,6-7.95,9.92a20.87,20.87,0,0,0-1.09,2.42,2.3,2.3,0,0,0,2.27,3.28,2.36,2.36,0,0,0,.53,0c8.11-1.79,15.49,1,22.74,3.92a45,45,0,0,1,16.19,11,39.92,39.92,0,0,1,9,15,19.61,19.61,0,0,1,.68,8.92c-1.05,8.36-3.65,16.3-6.4,24.17-3.4,9.72-7.36,19.24-10.6,29-2,5.9-3.92,11.78-6.26,17.54a11.31,11.31,0,0,0-.18,8.33c1,2.68,2,5.33,2.76,8.07a30.67,30.67,0,0,1,.89,6.27c.37,7.47-9.22,12.2-14.46,9.58-3-1.5-6.09-2.93-9-4.64a66,66,0,0,0-14.63-6.28c-5.89-1.8-10.76-5.39-15.23-9.48-1.25-1.15-1.89-3-2.84-4.46-1.08-1.68-2.11-2-4.08-1.46-.68.21-1.32.53-2,.8a6.91,6.91,0,0,1-6.17-.38c-6.65-3.77-13.7-6.7-20.66-9.84a57,57,0,0,0-11.59-3.86,63.4,63.4,0,0,1-16.52-5.85,10.53,10.53,0,0,1-5.74-7.87,5.86,5.86,0,0,1,1.8-5.83,27.89,27.89,0,0,1,4.71-3.4,51.13,51.13,0,0,1,6.37-2.7,25.47,25.47,0,0,0,15-14.23q3.72-8.53,7.37-17.11a15.15,15.15,0,0,0,1-3c1.89-9.38,6.3-17.66,11-25.82a37.87,37.87,0,0,0,4-9.24,29,29,0,0,1,3-7.34c7-11.61,12.26-24,17.78-36.34,1.6-3.56,3.41-7,5.12-10.53a35.53,35.53,0,0,1,1.89-3.81c2.52-3.94,1.47-7.43-1.14-10.79-1.53-2-3.09-3.91-4.51-5.94-3.16-4.5-2.15-9.58,2.73-12.23C1196.38,11.24,1196.24,11.06,1206.94,10.92Zm15.84,122a36.16,36.16,0,0,0,0-5.31,30.65,30.65,0,0,0-1.71-7.19c-2-4.8-6.91-7.84-11.35-7.13a26.82,26.82,0,0,0-10.49,3.61c-7.76,5-13.19,11.74-15.44,20.83-.64,2.58-1.28,5.16-1.84,7.76a49.77,49.77,0,0,1-8,18.95c-4,5.51-5.16,12-6,18.53a7,7,0,0,0,2.36,6.22,23.79,23.79,0,0,0,2.5,2c3.76,2.71,7.44,5.47,9.23,10a2.55,2.55,0,0,0,3,1.64,49.21,49.21,0,0,0,7.28-1.5c4.46-1.51,8.36-4.07,10.77-8.21a70.37,70.37,0,0,0,3.82-8.75c.8-2,1.37-4,2.16-6,2.1-5.26,4.32-10.48,6.38-15.76,1.23-3.14,1.94-6.51,3.41-9.51C1222,146.64,1222.63,139.82,1222.78,132.87Z"/><path class="cls-1" d="M1180.47,408.13a27.46,27.46,0,0,0,0-3.17c-.25-2.11-.74-4.19-.89-6.3a3.43,3.43,0,0,1,1.92-3.54,3.7,3.7,0,0,1,4.38,1,40.9,40.9,0,0,1,2.78,3.22c.9,1.09,1.72,2.27,2.7,3.29s1.78,2,3.17,1.35,1-2.09.71-3.3-.7-2.39-1-3.6a8.34,8.34,0,0,1,2-7.44,3.65,3.65,0,0,1,5.21-.92,46.31,46.31,0,0,1,4.68,4.31,40.84,40.84,0,0,0,3.46,3.26,1.93,1.93,0,0,0,3.08-1.58c.09-1.23-.07-2.49.06-3.72.32-3.06,2.81-4.3,5.34-2.51a20.66,20.66,0,0,1,3.69,3.78c1.14,1.36,2,2.93,3.16,4.28a2.23,2.23,0,0,0,3.86-.77,26.23,26.23,0,0,0,.89-3.06,21.43,21.43,0,0,1,.7-2.56,3.15,3.15,0,0,1,5.2-1.38,25.91,25.91,0,0,1,2.94,3.07c.84.91,1.57,1.93,2.48,2.77a2.48,2.48,0,0,0,3.77-.18c1.41-1.55,2.3-3.67,4.73-4,2.15-.31,3.66,1.14,5.4,2a5.58,5.58,0,0,0,4.65.33,9,9,0,0,1,7.71.33,5.71,5.71,0,0,0,4.67,0c1-.38,2-.79,3-1.15,2.53-.91,5-.73,7,1.1,2.72,2.53,5.48,3.07,8.69,1.11,2.53-1.54,4.86-1,6.68,1.15,4.69,5.52,6.18,4.6,11.65,2.76,7.56-2.54,14.81-1.15,21.86,1.6a14,14,0,0,1,8.36,9.16,11.21,11.21,0,0,1,.51,3.14,3.79,3.79,0,0,1-3.48,4,31.75,31.75,0,0,1-4.78.08,85.16,85.16,0,0,0-23.24,2.42c-10.84,2.78-21.76,5.33-32.74,7.47-11.42,2.23-23,2.47-34.35-.52a38,38,0,0,0-17.43-.7,163.42,163.42,0,0,0-15.94,4.24c-13.07,4.05-25.44,10-38.38,14.4-8.74,3-17.54,5.72-26.48,8.05-16.77,4.38-33.85,6.27-51,7.74a312.5,312.5,0,0,0-35.39,4.7c-8,1.63-16.08,2.9-24.05,4.7-8.83,2-17.62,4.21-26.33,6.7-10.41,3-20.64,6.57-31.07,9.49a187.3,187.3,0,0,1-41.39,7.23c-6.57.32-13.14.7-19.68-.43a24.94,24.94,0,0,1-4.12-1,2.74,2.74,0,0,1-1.51-3.54,1.85,1.85,0,0,1,.18-.5c3.52-4.13,6.12-9.21,12-10.85a21,21,0,0,0,5.17-2.67c2.24-1.4,4.55-2.08,7.08-1.06,2.69,1.08,4.84.37,6.7-1.7a5.92,5.92,0,0,1,6.77-1.78c2.78.95,4.83,0,6.61-2.05a5.85,5.85,0,0,1,5.71-2.12c3.1.52,4.88-.75,6.23-3.63,2-4.24,4.69-4.64,8.52-1.79.71.52,1.34,1.17,2.09,1.63a2.28,2.28,0,0,0,3.38-1.44,25.28,25.28,0,0,0,.42-3.16,37,37,0,0,1,.56-4.21,2.94,2.94,0,0,1,3.67-2.24c1.39.28,2.72.85,4.11,1.09,2.09.36,3.29-.42,4.09-2.48.26-.66.32-1.4.59-2.05.89-2.21,2.44-3.11,4.62-2.36a15.33,15.33,0,0,1,4.15,2.29c1.54,1.17,2.85,2.66,4.32,3.95a10.28,10.28,0,0,0,2.21,1.42c1,.48,2.46-.52,2.19-1.53a44.53,44.53,0,0,0-1.65-4.43,27.65,27.65,0,0,1-1.51-3.93,2.33,2.33,0,0,1,2.65-2.58,10.58,10.58,0,0,1,3,1c2.21,1.14,4.34,2.43,6.54,3.6a32.22,32.22,0,0,0,3.86,1.8c2.18.8,3.56-.24,3.38-2.51-.1-1.23-.46-2.45-.51-3.69-.11-2.29,1.65-3.78,3.83-3a25.45,25.45,0,0,1,5,2.85c1.47,1,2.77,2.2,4.27,3.12a1.77,1.77,0,0,0,2.66-1.9c-.31-1.55-1-3-1.34-4.58a10,10,0,0,1-.33-3.63,3.14,3.14,0,0,1,4.84-2.32,24.45,24.45,0,0,1,4,3.46c1.14,1.09,2.13,2.37,3.33,3.4a1.88,1.88,0,0,0,3-1.06,26.45,26.45,0,0,0,.18-3.68A23.3,23.3,0,0,1,1055,427c.72-2.89,3.73-3.53,5.71-1.29.93,1.06,1.67,2.3,2.53,3.43a22,22,0,0,0,2.7,3.28,4.16,4.16,0,0,0,2.8,1.11c1.54-.22,1.45-1.77,1.51-3,.07-1.42,0-2.84.21-4.24a1.92,1.92,0,0,1,2.49-1.37,9.67,9.67,0,0,1,2.7,1.61c1.72,1.54,3.3,3.23,5,4.83a13.78,13.78,0,0,0,2,1.68,2,2,0,0,0,3-1.26,13.92,13.92,0,0,0,.2-3.16c-.07-1.6-.35-3.18-.43-4.78a23.13,23.13,0,0,1,.11-3.72c.19-1.64.68-3.2,2.49-3.75s3.15.28,4.27,1.52,2,2.5,2.93,3.79c.73,1,1.33,2.1,2.12,3.05s1.78,1.79,3.2,1.43c1-.25,1.43-1.44,1.24-3.21-.1-.88-.39-1.74-.44-2.62a14.06,14.06,0,0,1,.09-3.18c.29-1.61.89-3.16,2.57-3.8,1.84-.7,3,.57,4.09,1.77,1.41,1.59,2.67,3.33,4.09,4.92a42.37,42.37,0,0,0,4.11,4.15,3.07,3.07,0,0,0,2.38.56c1-.25,1-1.37.86-2.25-.32-1.57-.9-3.08-1.13-4.66A30.45,30.45,0,0,1,1118,412a6,6,0,0,1,1.31-2.83,2.46,2.46,0,0,1,3.37-.44,25.68,25.68,0,0,1,3,3c2.45,2.81,4.82,5.7,7.28,8.5.8.91,1.65,2,3.13,1.57,1-.28,1.59-1.67,1.15-3.73-.52-2.43-1.3-4.8-1.94-7.2-.83-3.15-.51-5.14,1.06-5.76,2.38-.95,4.21.42,5.63,2a47.13,47.13,0,0,1,4.3,6c.86,1.34,1.41,2.88,2.28,4.21a6.14,6.14,0,0,0,2,1.69,1.66,1.66,0,0,0,2.39-1.27,11.58,11.58,0,0,0-.2-2.63c-.48-2.44-1.2-4.84-1.52-7.3a20.94,20.94,0,0,1,0-5.81,2.61,2.61,0,0,1,4.41-1.73,18.34,18.34,0,0,1,3.52,3.94c2,3,3.6,6.13,5.54,9.11a58.45,58.45,0,0,0,4.52,5.88,2.1,2.1,0,0,0,1.89.38,1.65,1.65,0,0,0,.79-2.25,18.68,18.68,0,0,0-1.09-2.42c-1.08-2.24-2.17-4.47-3.26-6.71a17.75,17.75,0,0,1-1.84-8.25,9.69,9.69,0,0,1,.6-3.1,2.66,2.66,0,0,1,4-1.31,9.5,9.5,0,0,1,2.51,2.66c1.31,2.11,2.37,4.37,3.64,6.51C1177.23,406.25,1178,407.92,1180.47,408.13Z"/><path class="cls-1" d="M1188.37,1560.73c.37-4.08.74-7.44,1-10.8a31,31,0,0,1,6.68-17.1,26.22,26.22,0,0,0,4.23-7.95,14.38,14.38,0,0,1,2.83-5.05c4.05-4.48,8.22-8.9,13.36-12.16a65.63,65.63,0,0,1,9.36-5,15.31,15.31,0,0,1,12,.19c1.32.51,2.6,1.16,3.94,1.6,1,.34,2.28.35,2.78-.79a3.3,3.3,0,0,0-.14-2.48c-.94-1.89-2.27-3.6-3.14-5.52-2-4.36-3.91-8.76-5.64-13.22-3.22-8.31-7.49-16.09-11.68-23.91a13.59,13.59,0,0,0-7.81-6.86c-2-.67-4-1.36-6-2-3.86-1.26-5.58-4.41-4.42-8.31a11.31,11.31,0,0,1,3.6-5.81,32.43,32.43,0,0,1,4.29-3.13c7.94-4.37,13.41-11,17.27-19a15.46,15.46,0,0,1,4.51-5.84c3.75-2.85,8.34-1.34,9.69,3.2a15.75,15.75,0,0,1,.56,3.68c.25,4.79.54,9.58.59,14.37a17.32,17.32,0,0,0,1.84,8.22c2.18,4.06,4.45,8.07,6.65,12.12,1.1,2,2.65,4,3.05,6.15.91,5,3.55,9.26,5.45,13.83,2.91,7,6.09,14,8.84,21.11a39.59,39.59,0,0,0,5.22,9.83,32.16,32.16,0,0,1,5.66,11.94c1.68,6.8,4.89,12.93,8.66,18.77a22.39,22.39,0,0,1,3.34,7.79c1.36,6.86,4.5,13.07,6.84,19.57a107.51,107.51,0,0,0,9.29,19.12c2.41,4,5.42,7,9.94,8.3,2.38.71,4.73,1.52,7.13,2.16a11.94,11.94,0,0,1,7,5.39c2.24,3.52,1.53,6.95-1.92,9.23a24.27,24.27,0,0,1-5.19,2.67,62.68,62.68,0,0,0-16.35,8.8,19.6,19.6,0,0,1-5.1,2.78c-3.92,1.39-7.69,1.2-10.86-2a11.3,11.3,0,0,0-2.06-1.65,2.39,2.39,0,0,0-3,.2,22.57,22.57,0,0,0-2.56,2.7c-2.94,3.55-6,7-8.73,10.74a20,20,0,0,1-15.85,8.48c-5.32.31-10.64.63-16,.91a31.13,31.13,0,0,1-16.42-3.7,162.94,162.94,0,0,1-26.42-17.9,9.61,9.61,0,0,1-3.48-6.4c-1.16-8.7-3.92-16.92-7.3-25-1.45-3.43-2.77-6.92-4-10.44a30.32,30.32,0,0,1-1.47-6.21A43.46,43.46,0,0,1,1188.37,1560.73Zm69.87,50.31c6.32.69,12-2.47,16.89-7.11,3.52-3.3,4.81-7.3,3.18-12.08-.8-2.35-1.24-4.81-1.93-7.19-.75-2.54-1.53-5.08-2.42-7.57-1-2.83-2.54-5.53-3.19-8.44a55.36,55.36,0,0,0-4.16-12c-1.79-3.66-3.3-7.44-5-11.16a18.73,18.73,0,0,0-7-8.5c-1.8-1.13-3.54-2.36-5.38-3.42a12.58,12.58,0,0,0-10.75-1.1,32.53,32.53,0,0,0-14.81,10,23.23,23.23,0,0,0-5.34,12,45.74,45.74,0,0,0,1.12,19,30.24,30.24,0,0,1,1.4,8.89,11.66,11.66,0,0,0,1.49,6.13,46.54,46.54,0,0,0,8,10.6c2.31,2.2,4.56,4.47,7,6.58a10.37,10.37,0,0,0,4,2.53C1246.58,1609.36,1251.88,1610.94,1258.24,1611Z"/><path class="cls-1" d="M704.82,1555.93c4.07.25,8.19.2,12.2.84,6.42,1,11.68,4.09,14.81,10.1.33.63.65,1.27,1,1.87a7.41,7.41,0,0,0,1,1.21,2,2,0,0,0,3.18-.42,7.58,7.58,0,0,0,.85-2.49c.77-7,3.74-13.31,5.66-20a254,254,0,0,0,6-25.37,11.63,11.63,0,0,0-1.77-8.66c-1.16-1.79-2.41-3.52-3.59-5.29-2.3-3.48-2-5.49.87-8.46a10.16,10.16,0,0,1,6.59-3.14,20.8,20.8,0,0,1,5.29.19c9.65,1.82,18.73.14,27.41-4.18a10.63,10.63,0,0,1,6.68-1.3,9.27,9.27,0,0,1,3.83,1.62,5.41,5.41,0,0,1,1.41,7.17,28.71,28.71,0,0,1-2.38,3.53q-4.34,5.73-8.76,11.41a19.53,19.53,0,0,0-4.06,8.58c-.76,4.19-1.58,8.38-2.07,12.61a19,19,0,0,1-2.26,7.58c-1.74,2.95-2.48,6.2-3.35,9.48-2.24,8.4-4.76,16.73-7.36,25a48,48,0,0,0-2.52,12.48,27.32,27.32,0,0,1-2.56,9.7c-2.35,5.52-4.69,11-5.23,17.22a45.07,45.07,0,0,1-5.15,16.68c-2.16,4.21-3.2,9-4.71,13.55a23.62,23.62,0,0,1-.68,2.57c-2.9,6.4-3.41,13.39-5.17,20.07-1,3.84-.71,7.35,1.62,10.66,1.63,2.32,3.07,4.77,4.67,7.11a13.09,13.09,0,0,1,2.58,7.43c0,5.46-4.21,8.93-9.53,7.68a77.4,77.4,0,0,1-8.2-2.33,34.83,34.83,0,0,0-13.58-2.21,13.38,13.38,0,0,1-8.88-3c-2.53-1.87-4.3-4-4.39-7.44-.07-3-1.46-3.89-4.64-3.44-2.64.38-5.25.94-7.86,1.46-3.31.65-6.62,1.31-9.92,2a16.15,16.15,0,0,1-11.81-1.91,102.75,102.75,0,0,1-19.7-14.48,26.39,26.39,0,0,1-6.08-8.65,154.31,154.31,0,0,1-9.47-30.44,12.59,12.59,0,0,1,1.94-10.09c3.34-5.07,5.46-10.76,7.51-16.45,1.74-4.84,3.32-9.75,4.88-14.66a26.49,26.49,0,0,1,6.26-11c3.63-3.65,7.15-7.43,10.94-10.89a24.78,24.78,0,0,1,13.66-6.71,20,20,0,0,0,8.25-3.56,15.25,15.25,0,0,1,8.51-2.6c2.66,0,5.32-.3,8-.46ZM663.77,1631H664c0,1.24-.1,2.5,0,3.72.34,3.52.65,7,1.24,10.53a11.53,11.53,0,0,0,1.79,4.37A68.29,68.29,0,0,0,679.08,1663c5.11,4.42,11,5.26,17.45,4.5a9.62,9.62,0,0,0,7.4-4.63,72.44,72.44,0,0,0,7.93-16.2c1.49-4.74,2.73-9.55,5.27-13.89a10.59,10.59,0,0,0,.91-2.49c1.79-6.49,3.64-13,5.27-19.5a12.92,12.92,0,0,0,0-5.22,48.57,48.57,0,0,0-2-7.17c-1.88-5.41-5.5-9.09-11.21-10.27a55.8,55.8,0,0,0-9.46-1.22,22.76,22.76,0,0,0-15.73,5.44,48.27,48.27,0,0,0-11.89,14.85c-1.73,3.28-3.63,6.48-5.65,9.59a19.57,19.57,0,0,0-3.11,7.84C664,1626.76,663.94,1628.9,663.77,1631Z"/><path class="cls-1" d="M570.19,229.87c-3.56,0-7.11.12-10.66,0a30,30,0,0,1-7.35-1c-9.23-2.82-17.9-6.84-25.46-13a17.38,17.38,0,0,1-3-3c-3.13-4.09-6.32-8.15-9.17-12.43a33.87,33.87,0,0,1-3.64-7.66c-2.26-6.54-4.41-13.13-6.36-19.78-2.66-9.06-3.09-18,.57-27.1A197.87,197.87,0,0,1,518,119.67a25.28,25.28,0,0,1,9.72-9.61,57.2,57.2,0,0,1,15.36-5.85c5.2-1.14,10.34-2.53,15.53-3.72a25.32,25.32,0,0,1,5.27-.71,35.63,35.63,0,0,0,9.46-1.31,13.67,13.67,0,0,1,4.2-.63c6.21.2,12.42.5,18.63.85a11.7,11.7,0,0,1,6.26,2.73c2,1.48,3.95,3,6,4.43a38.51,38.51,0,0,1,7.92,7.85,81.9,81.9,0,0,0,7,8A39.31,39.31,0,0,1,631,131.9c3.22,6.13,6.39,12.28,9.36,18.53a25.43,25.43,0,0,1,2.63,13.45c-.53,5.3-.84,10.67-2,15.84a36,36,0,0,1-4.5,10.73c-3.69,6.06-7.74,11.92-11.94,17.64A41.87,41.87,0,0,1,606.64,222c-5.06,2.14-10.13,4.31-15.33,6a38.14,38.14,0,0,1-9.4,1.59c-3.89.26-7.81.06-11.72.06ZM574.4,209c5.41-.93,10.83-1.89,16.25-2.78,3.46-.56,6-2.9,9.05-4.35,4.17-2,6-5.79,8.06-9.55a12.93,12.93,0,0,0,1.07-9.77A16.56,16.56,0,0,1,609,173c1-3,.52-5.86-.59-8.8-2.61-6.85-6.67-12.91-10.14-19.29a23.16,23.16,0,0,0-7.11-7.81c-5.07-3.59-10-7.38-15.37-10.53-5.63-3.32-11.76-4.62-18.4-2.69a116.57,116.57,0,0,0-14.3,5.74,14.29,14.29,0,0,0-8.12,10,86.29,86.29,0,0,0-2.11,13.11,45.17,45.17,0,0,1-1.1,8.41,8.12,8.12,0,0,0,1.13,6.61,34,34,0,0,0,8.17,9A22.23,22.23,0,0,1,548.44,187a19.4,19.4,0,0,0,5.75,8.17c3.31,3,6.69,5.84,9.73,9.05A14.74,14.74,0,0,0,574.4,209Z"/><path class="cls-1" d="M379.54,351c4.89-.33,9.57-.73,13.95-3.24a36.1,36.1,0,0,1,9-3.23c3.87-1,8.56,1.7,9.88,5.4a6.92,6.92,0,0,1-.81,6.11,51.3,51.3,0,0,1-8.16,10.49q-6.08,6-12.37,11.73a68.66,68.66,0,0,0-10.21,11.5c-3.83,5.53-8.38,10.56-12.59,15.83a10.27,10.27,0,0,1-9.43,3.85c-4.36-.32-7.25-3-7.8-7.3a18,18,0,0,1,.91-7.88,40.74,40.74,0,0,1,1.52-4c1.41-3.17.75-5.87-1.71-8.22-.77-.73-1.52-1.5-2.25-2.27-4.36-4.67-8.77-9.29-13-14.05a45.56,45.56,0,0,0-7.76-7.25,88.78,88.78,0,0,1-17.28-15.73,51.53,51.53,0,0,0-10.83-10.17c-1.73-1.14-3-3-4.44-4.54-2.52-2.79-4.48-2.88-7.11-.15-1,1-1.79,2.21-2.79,3.21a26.73,26.73,0,0,1-3.57,3.17,6.77,6.77,0,0,1-8,.22,12.62,12.62,0,0,1-5-17c1-1.88,2.34-3.56,3.44-5.38a3.4,3.4,0,0,0-1.18-5,6.55,6.55,0,0,0-1.41-.74c-4.84-1.8-8.44-5.1-11.49-9.17-4.58-6.1-9.65-11.84-13.5-18.48a54.9,54.9,0,0,1-5.84-14.81c-3.77-15.95-2.81-14.11.48-29.31a75.12,75.12,0,0,1,4.06-12.1c4.07-10,11.55-13.79,22.19-11.61a18.07,18.07,0,0,1,10.37,6,51.92,51.92,0,0,1,4.24,5.47c4,6.2,2.36,13.62-3.8,17.63a16.89,16.89,0,0,1-8.36,3.16,12.7,12.7,0,0,0-6.51,2.14c-2.53,1.7-3.19,3.64-1.9,6.4a22.86,22.86,0,0,0,6.59,8.23c4.84,3.88,9.61,7.87,14.26,12a37.07,37.07,0,0,1,4.47,5.26c4.59,5.91,10.57,6.23,15.81.75,1.59-1.66,3-3.54,4.63-5.14,5.52-5.34,10.77-4.82,15.15,1.42,2.47,3.51,2.41,5.8-.37,9.09-1.94,2.31-4,4.55-5.95,6.83a17,17,0,0,0-1.65,2.07c-1.47,2.35-1.18,4.3.9,6.15.92.83,2,1.46,2.91,2.32a63.14,63.14,0,0,1,5.89,6.14A106.25,106.25,0,0,0,346,328.15a108,108,0,0,1,14.8,13c1.61,1.65,3.27,3.27,4.77,5a12.49,12.49,0,0,0,9.26,4.57C376.45,350.78,378,350.92,379.54,351Z"/><path class="cls-1" d="M216.52,788.06c-.77,6.52-1.4,13.06-2.36,19.55a66.68,66.68,0,0,0-.46,15.91c.56,6.35.46,12.77.77,19.15.25,5.08-2.45,8.31-6.4,10.87a5.84,5.84,0,0,1-6.07.31,14,14,0,0,1-6.75-7.26c-.73-1.61-1.25-3.32-1.94-5a8.88,8.88,0,0,0-8.15-5.88c-1.24-.08-2.48-.16-3.72-.19a68.11,68.11,0,0,1-15.83-2,38.58,38.58,0,0,0-13.18-.81,95.17,95.17,0,0,1-26.51-1.6,20.49,20.49,0,0,0-9-.23,11.7,11.7,0,0,1-6.82-.44,10.5,10.5,0,0,0-2.05-.54,3,3,0,0,0-3.67,2.31,25.56,25.56,0,0,0-.49,5.79,12,12,0,0,1-2.13,7.53C99,849.5,92.94,850.71,89,847.86c-4.32-3.14-7.3-7.23-7.84-12.76a22.38,22.38,0,0,0-.4-3.16,3.08,3.08,0,0,0-4-2.44,4.78,4.78,0,0,0-1,.33c-5.15,2.43-10.29,1.89-15.58.36s-10.64-2.81-16-3.85c-7.53-1.45-14-5.11-20.11-9.39A48.9,48.9,0,0,1,6.32,795.44c-1.71-4.09-3.45-8.18-5-12.33A21.43,21.43,0,0,1,.52,771c1.09-5.17,4.72-8.62,9.15-11.22a43.16,43.16,0,0,1,4.84-2.2,11.14,11.14,0,0,1,7.31-.58c2.75.7,5.51,1.41,8.21,2.27a12.39,12.39,0,0,1,8.08,15.25,22,22,0,0,1-4.33,7.88,45,45,0,0,0-3.86,5.08c-1.87,3.08-1,5.34,2.23,6.82,4.26,1.94,8.58,3.48,13.36,2.13q10.89.54,21.78,1.11a15.46,15.46,0,0,1,2.08.45c5.92,1.08,10.6-2.22,11.38-8.2a37.62,37.62,0,0,0,0-6.37,11.86,11.86,0,0,1,2.86-8.37,7.78,7.78,0,0,1,8.58-2.75c.85.23,1.68.57,2.51.88a6.32,6.32,0,0,1,4.33,6.11c.07,1.59-.16,3.19-.2,4.78a54.56,54.56,0,0,0,0,5.86c.35,4.23,2.4,6.12,6.56,5.83a33,33,0,0,1,9.51.79c8.9,2,18,2.23,27,2.37a11.61,11.61,0,0,0,2.13-.1c9.07-1.66,18.11-1,27,.86,5.8,1.2,10.42-.36,14.82-3.86,4.64-3.7,8.76-7.73,10.77-13.55a22.55,22.55,0,0,1,5.28-7.94c4.2-4.45,9.9-3.75,12.73,1.66a13.92,13.92,0,0,1,1.31,5.08c.22,2.29.06,4.61.06,6.92Z"/><path class="cls-1" d="M1639.16,746.12c3.55.22,7.1.48,10.64.64,2,.09,3.91,0,5.86,0a12.71,12.71,0,0,1,3.19-.08c5.19,1.32,10.53,1.22,15.79,1.86,4.45.53,8.39,2.87,12.25,5a55.44,55.44,0,0,1,20.65,20.34,14.33,14.33,0,0,1,2.21,6.48,20.65,20.65,0,0,0,2,7.67,10.3,10.3,0,0,1,1,4.09c.15,7.1.46,14.17-2.08,21.07-1.28,3.47-1.76,7.18-3.79,10.45-2.49,4-5.77,7.19-9.1,10.39-2.43,2.34-5,4.54-7.26,7a14,14,0,0,1-11.28,5c-1.59,0-3.19.1-4.79,0a5,5,0,0,1-4.82-3.58,18.22,18.22,0,0,1-1.09-5.17c-.45-12.86-2.78-25.42-5.78-37.88a24.29,24.29,0,0,1-.35-7.93,68.23,68.23,0,0,0,.3-9,18.29,18.29,0,0,0-1.35-5.65c-.9-2.27-2.74-3.15-5.15-2.87a4.74,4.74,0,0,0-1.55.36c-3.69,1.73-7.58,1.48-11.51,1.5-5.5,0-11,.3-16.5.69-5.26.38-11.11,5.4-12.73,10.79a48.72,48.72,0,0,0-1.5,6.75c-.61,4-1.08,8.11-1.51,12.17a25.55,25.55,0,0,0,2.16,12.49,62.31,62.31,0,0,1,4.29,22.92,13.39,13.39,0,0,1-.18,3.17c-.5,2.29-1.92,4-4.28,4.17A26.07,26.07,0,0,1,1605,849c-11.8-2.68-20.41-9-23.25-22.63a173.9,173.9,0,0,1-3.55-36c0-12.22,4.42-22.89,14.44-30.73a89.53,89.53,0,0,1,22.72-12.67,15.14,15.14,0,0,1,5.19-.88c6.22-.11,12.44,0,18.66,0Zm52.73,45a23.66,23.66,0,0,0-4.81-12.88,6.92,6.92,0,0,0-2.54-1.82,2.29,2.29,0,0,0-3.29,1.66,11.65,11.65,0,0,0,0,3.68c.87,4.89,1.84,9.76,2.83,14.63a9.63,9.63,0,0,0,.92,2.48,2.54,2.54,0,0,0,4.07.56,5.85,5.85,0,0,0,1.4-2.21C1691.09,795,1691.52,792.73,1691.89,791.09Z"/><path class="cls-1" d="M1269.33,240.63a80.48,80.48,0,0,1,3.42-19.4,16.6,16.6,0,0,1,3.26-6c6.22-7.54,12.61-14.94,18.56-22.68,4.45-5.8,9.93-10.63,14.58-16.22a15.17,15.17,0,0,1,3.22-2.75c12-8.06,25.3-10.9,39.6-9.17a11.28,11.28,0,0,1,3.57,1c4.78,2.33,9.6,4.62,14.24,7.22,4.86,2.73,8.35,7.12,12.34,10.9,7.23,6.87,10.53,15.38,11,25.22a101.25,101.25,0,0,0,1.22,11.1c.58,3.7.1,7-2.25,10.06-1.2,1.54-2.15,3.27-3.38,4.78a5.68,5.68,0,0,1-6.72,1.85,18,18,0,0,1-4.25-2.14,196.12,196.12,0,0,0-22.3-13.53c-3.17-1.6-6.33-3.24-9.56-4.7a34.16,34.16,0,0,1-8.36-5.62c-2.82-2.43-5.81-4.67-8.77-6.92a10.06,10.06,0,0,0-2.81-1.47,3.82,3.82,0,0,0-3.94,1,4.08,4.08,0,0,0-1,1.23c-3.8,8.57-10.69,15-15.8,22.67a18.6,18.6,0,0,0-3.4,11.49,11.91,11.91,0,0,0,2.84,7.85c4.28,4.73,8.62,9.43,13.1,14,3.2,3.25,7.42,4.85,11.7,6.09a62.2,62.2,0,0,1,20.61,10.9c3.69,2.82,4.22,5.39,1.46,9.07-7.93,10.58-21,15.67-34.47,9.66-11.59-5.17-22-12.33-32-19.95a42.6,42.6,0,0,1-11.62-13.75C1270.16,256.49,1269.24,252,1269.33,240.63Zm73.82-57.95a27,27,0,0,0-3.54,1.16,2.35,2.35,0,0,0-.73,4,16.33,16.33,0,0,0,3.4,2.51c4,2.2,8.16,4.29,12.26,6.42a9.26,9.26,0,0,0,2,.82c1.26.3,2.65.3,3.33-.93a6.41,6.41,0,0,0,.45-3,2.77,2.77,0,0,0-.62-1.45C1355.76,186.61,1350.38,183.56,1343.15,182.68Z"/><path class="cls-1" d="M1689.14,648.23c1.34,8.64-1.91,16.13-7,23.11-2.61,3.58-5,7.31-7.43,11a10.69,10.69,0,0,1-6.14,4.8c-1.87.55-3.7,1.25-5.57,1.82-4.28,1.29-6.75.25-8.59-3.86a64.72,64.72,0,0,1-2.26-6.54c-1.64-5.07-3.07-10.21-4.91-15.2-1.66-4.48-3.66-8.85-5.66-13.19-2.16-4.71-3.95-9.47-4.35-14.72a38.67,38.67,0,0,0-1.66-7.78,12.57,12.57,0,0,0-2-3.72,3.84,3.84,0,0,0-4.72-1.44,27.08,27.08,0,0,0-2.91,1.32,41.49,41.49,0,0,1-11.16,3.36,138.35,138.35,0,0,0-15,3.58c-5.22,1.54-10.27,8.24-10.47,13.6a81.13,81.13,0,0,0,1.48,20.68,24.31,24.31,0,0,0,2.89,7.39c2.1,3.49,3.93,7.15,5.93,10.7,2.57,4.56,3.26,9.75,5,14.59,1.06,3-.18,5.21-3.23,6.35a22.15,22.15,0,0,1-7.19,1.79c-11.64.19-21.28-3.62-26.92-14.59-1-2-1.86-4.22-2.76-6.35-.82-2-1.6-3.94-2.4-5.91a34.14,34.14,0,0,1-1.38-3.46c-2-7.35-4.16-14.69-5.93-22.1a35.85,35.85,0,0,1,.32-16.38,40.07,40.07,0,0,1,9.7-18.11,88,88,0,0,1,17-14.41,17.3,17.3,0,0,1,5.93-2.24c7.81-1.67,15.66-3.19,23.5-4.7,3.83-.74,7.69-1.34,11.54-2a14,14,0,0,1,2.09-.39,55.39,55.39,0,0,0,14.2-1.79,8.9,8.9,0,0,1,3.7.06c13,2,24.55,6.93,33.9,16.43,2.52,2.56,4.74,5.29,5.78,8.82a12.23,12.23,0,0,0,1,2.45C1687.92,629.61,1689.54,638.6,1689.14,648.23Zm-22.32-11.32a20.13,20.13,0,0,0-4.6-13.91,20.43,20.43,0,0,0-4.45-3.69,3,3,0,0,0-3.51-.12c-1.16.83-1.19,2.09-.88,3.36a10,10,0,0,0,.45,1.53q3.24,7.56,6.51,15.11a7.26,7.26,0,0,0,.81,1.37,2.83,2.83,0,0,0,5.07-.69A12.3,12.3,0,0,0,1666.82,636.91Z"/><path class="cls-1" d="M1343.83,1458.41c.31-7.58,1.61-15.43,5.24-22.72a20.45,20.45,0,0,1,3-4.32c2.7-3.07,5.5-6,8.32-9a21.51,21.51,0,0,1,3.59-3.16,90.4,90.4,0,0,1,19.81-10.27,25.09,25.09,0,0,1,11-1.21c2.64.27,5.25.87,7.87,1.31,3.85.65,7.68,1.43,11.55,1.88a11,11,0,0,1,7.48,3.56c1.76,2,3.63,3.92,5.2,6,1.84,2.51,1.74,4.31-.29,6.76a31.45,31.45,0,0,1-4.52,4.49,190.91,190.91,0,0,0-24.09,23.31,43,43,0,0,1-9.72,8.2,60.43,60.43,0,0,0-8.87,6.74c-3.1,2.84-3,5.36.33,8,3.55,2.82,6.16,6.32,8.76,9.94s5.57,7.36,8.54,10.89a16,16,0,0,0,19.68,4.23c3.68-1.76,7.37-3.5,11-5.3a29.08,29.08,0,0,0,12-10.27,71.2,71.2,0,0,1,16.57-17.88c3.8-2.9,6.07-4.33,10.26,1,5,6.37,7.64,13.74,6.12,21.91-1.13,6-4.36,11.16-8.58,15.68a152.24,152.24,0,0,1-18.9,17.17c-2.25,1.72-4.38,3.63-6.71,5.24-7.63,5.25-16,8.52-25.36,8.39a22.61,22.61,0,0,1-5.26-.65,90.75,90.75,0,0,1-24.59-10,22,22,0,0,1-7-6.42c-5.6-8.21-11-16.55-17.06-24.45-4.33-5.7-7-12.32-11.21-18a10.44,10.44,0,0,1-1.82-3.82C1345,1470.17,1343.77,1464.62,1343.83,1458.41Zm35.61-22.62a8.61,8.61,0,0,0-2.06.57,41.56,41.56,0,0,0-5.58,3.1,21.64,21.64,0,0,0-8,11c-.69,2,0,4,1.47,4.69,1.76.87,3.08-.07,4.24-1.26,3.71-3.82,7.42-7.65,11.09-11.52a11.83,11.83,0,0,0,1.87-2.57C1383.54,1437.82,1382.21,1435.76,1379.44,1435.79Z"/><path class="cls-1" d="M101.09,667c-.18-5.7.55-10.72,3.3-15.32,2.55-4.26,4.87-8.67,7.48-12.89a18.92,18.92,0,0,1,11.85-8.45c2.24-.57,4.5-1,6.76-1.51a17.22,17.22,0,0,1,7.39.17q12.23,2.76,24.45,5.42c6.59,1.43,13.23,2.63,19.77,4.25,5.67,1.41,11.48,2.39,16.85,4.9a10.47,10.47,0,0,0,10.19-.64,23.53,23.53,0,0,0,6.59-5.31c4.73-5.69,6.2-5.52,13.55-3.68a6.91,6.91,0,0,1,4.24,3,14.31,14.31,0,0,1,1.14,1.8c4.35,9.64,6,19.35.53,29.14a64,64,0,0,1-4.61,7.15,10,10,0,0,0-1.93,8.52c.08.35.13.7.21,1.05,2.83,11.78-1.12,22-7.31,31.7a7.62,7.62,0,0,1-.66.84c-6.08,7.07-11.92,9.78-22.26,6.22a31.62,31.62,0,0,0-5.12-1.42c-7.27-1.21-13.28-4.83-18.64-9.66a28.77,28.77,0,0,1-7.14-10.5,101.66,101.66,0,0,1-3.69-11.1A71.55,71.55,0,0,0,157.22,674a29.24,29.24,0,0,0-14-12.59c-3-1.25-5.82-2.66-9-3.07a14.18,14.18,0,0,0-3.18-.17,4.55,4.55,0,0,0-4.26,5.12,43.08,43.08,0,0,0,1,5.24,69.53,69.53,0,0,1,1.46,20.65,10.88,10.88,0,0,1-5.38,8.69,6,6,0,0,1-7.41-.15,35.76,35.76,0,0,1-11.65-13.62C102.11,678.51,100.61,672.72,101.09,667Zm104.19,15.58c-.26-5.4-1.37-9.05-8.24-9.47A49.9,49.9,0,0,1,191.3,672c-3.83-.69-7.65-1.44-11.51-2-2.63-.37-4,1.34-3.35,3.94a20,20,0,0,0,6.17,9.78c3.1,2.79,6.9,4.38,10.71,5.83A9.24,9.24,0,0,0,202,688.3C204.22,686.8,205.48,684.84,205.28,682.57Z"/><path class="cls-1" d="M385.5,1480.73c3.41.36,8.53.86,13.65,1.45a57.42,57.42,0,0,0,16.45-.5,27.42,27.42,0,0,0,15-7.62c1.89-1.86,3.71-3.82,5.46-5.83a12.92,12.92,0,0,0,2-3.1c1.19-2.66.27-5.05-2.53-6a105.35,105.35,0,0,0-10.77-3,54.36,54.36,0,0,1-16.11-6.78,9.8,9.8,0,0,1-4-4.86c-1.64-3.9-.75-7,2.88-9.11,8.82-5.15,18.14-6.87,28.18-4.09a43.29,43.29,0,0,1,11.23,4.78,27.22,27.22,0,0,1,6.56,5.35,163.36,163.36,0,0,1,9.93,13.18,19.17,19.17,0,0,1,3,15.76,32.77,32.77,0,0,0-.78,3.64,18.4,18.4,0,0,1-3.77,8.69c-6.3,8.6-12.54,17.24-18.8,25.87-2.92,4-5.74,8.12-8.77,12.06a141.25,141.25,0,0,1-9.47,11.49c-4.25,4.45-4.63,9.38-2.79,14.78a52.43,52.43,0,0,0,2.66,5.81,6.25,6.25,0,0,1-.11,6.13c-.61,1.08-1.21,2.17-1.88,3.22-2.3,3.61-5.52,5.47-9.88,4.88a101.12,101.12,0,0,1-11-1.75c-6.86-1.73-11.95-6.07-15.91-11.81a58.09,58.09,0,0,1-3.18-4.92,10,10,0,0,0-6.65-4.9,6.77,6.77,0,0,0-1.56-.36c-6.5-.22-11.16-4.23-16-7.82a38.11,38.11,0,0,1-10.66-12.47c-3.87-7.11-3.47-13.94,1.56-20.4,2-2.52,3.82-5.13,5.82-7.62a40.91,40.91,0,0,1,17.49-12.66C376.27,1480.86,380,1480.81,385.5,1480.73Zm17.17,18.59c-8.48.32-14.75,4.7-19.45,11.68a7.87,7.87,0,0,0-1,2.43c-.86,3.45-.41,7.29,4.25,9,1.15.43,2.31.87,3.49,1.24a4.85,4.85,0,0,0,6-2c1.91-2.75,4-5.39,5.83-8.19,2.12-3.24,4.13-6.56,6.08-9.9a2.53,2.53,0,0,0-1.83-4A31.83,31.83,0,0,0,402.67,1499.32Z"/><path class="cls-1" d="M939.49,557.74c-2.69-.73-3.74.71-4.84,1.73-5.89,5.4-11.71,10.88-17.55,16.34-1.94,1.82-3.84,3.69-5.82,5.47a12.1,12.1,0,0,1-2.61,1.82c-2.17,1.13-4.39.68-5.52-1.48a63.25,63.25,0,0,1-2.9-7.41c-.54-1.46-.34-3.47-2.19-4-2.08-.56-3.1,1.26-4.26,2.57A29.55,29.55,0,0,1,891,576a3.27,3.27,0,0,1-2.42.62,2.16,2.16,0,0,1-1.53-2.49,14.5,14.5,0,0,1,.59-3.66c.79-2.54,1.74-5,2.64-7.54a20.21,20.21,0,0,0,1.22-3.5,3,3,0,0,0-.63-2.35c-.75-.7-1.74-.09-2.31.59-2.29,2.72-4.49,5.5-6.75,8.24a33.92,33.92,0,0,1-3.17,3.58c-1.67,1.54-3.57.87-3.87-1.33a24.11,24.11,0,0,1,1-11c1.93-5.9,3.73-11.84,5.63-17.75.49-1.52,1.16-3,1.76-4.45,2-4.88,5.83-7.49,10.81-8.56,3.47-.74,7-1.42,10.48-2,10.17-1.62,20.35-3.16,30.53-4.72,1.93-.3,3.88-.52,5.79-.9a108.25,108.25,0,0,1,19.09-1.8c14-.26,28-1.11,42-2.18a165.39,165.39,0,0,1,33,.65c4.94.61,9.91.89,14.86,1.38a16.9,16.9,0,0,1,4.14.83,2.79,2.79,0,0,1,1.22,4.41,15.18,15.18,0,0,1-4.21,3.11c-3.64,1.84-7.41,3.43-11.1,5.18-10.75,5.1-21.52,10.17-32.23,15.36-9.26,4.49-18.44,9.17-27.69,13.69a150.36,150.36,0,0,0-22.6,14c-3.58,2.63-7.22,5.17-10.77,7.85-2.33,1.75-4.55,2.72-7.15.47-1.84-1.59-3.66-.81-5.35.39q-5.87,4.17-11.7,8.37c-4.32,3.12-8.62,6.26-12.94,9.39a14.56,14.56,0,0,1-1.33.88c-1.36.75-2.69.69-3.43-.14a2.77,2.77,0,0,1-.32-3.47,28.76,28.76,0,0,1,3.56-4.59c8.34-8.75,16.76-17.42,25.11-26.15,1.84-1.92,3.55-4,5.23-6A14.1,14.1,0,0,0,939.49,557.74Z"/><path class="cls-1" d="M1487.51,433.08c.49,1.87.92,3.76,1.5,5.6.37,1.17,1.21,2.24,1.38,3.42s.17,2.73-.49,3.53c-2.4,3-5.35,5.48-9.54,4.57-7.81-1.7-15.68-3.42-22.77-7.25-8.09-4.37-11.67-11.59-11.62-20.67a7.71,7.71,0,0,1,.67-3.1c2-4.37,4.08-8.63,8.45-11.32,5.13-3.17,10.11-6.6,15.15-9.93,4.29-2.84,8.41-6,12.92-8.44a130.85,130.85,0,0,0,13.22-8c5.24-3.67,10.5-7.3,15.63-11.11,3-2.22,5.75-4.74,8.55-7.19a4.57,4.57,0,0,0,.83-6.24,14.45,14.45,0,0,0-1.7-2.05c-.72-.79-1.48-1.53-2.22-2.29-5.73-5.86-4.4-12.79,2-17.24a7.28,7.28,0,0,1,7.08-.92,12.69,12.69,0,0,1,6,4.29c1.16,1.57,2.35,3.13,3.59,4.63a18.66,18.66,0,0,0,2.56,2.69c2.67,2.15,5,2.11,7.71,0,1.54-1.19,3.06-2.43,4.55-3.7a9.9,9.9,0,0,1,7.93-2.23c8.15.87,15.37,4.15,22.18,8.46a11.83,11.83,0,0,1,4.6,5.07c1.12,2.45.86,4.44-1.18,6.26a40.73,40.73,0,0,1-5.1,3.84c-2.08,1.35-4.32,2.45-6.44,3.75a69.53,69.53,0,0,0-6.22,4.1c-4,3.06-4.16,6.14-.66,9.87,1.58,1.67,3.43,3.08,5.1,4.67,4.28,4,4.32,8.91.14,13a17.73,17.73,0,0,1-1.6,1.41c-5.36,4.12-10.65,3.59-15-1.52-.69-.8-1.2-1.77-1.92-2.54-1.58-1.68-3.16-3.37-4.89-4.88a7.29,7.29,0,0,0-8.89-1,59.31,59.31,0,0,0-5.54,3.18c-4.54,3.11-9,6.31-13.49,9.54a23.89,23.89,0,0,0-4,3.46c-3.45,4-7.84,6.64-12.35,9.15q-3.26,1.81-6.53,3.58a20.73,20.73,0,0,0-7.49,7.42A13.93,13.93,0,0,0,1487.51,433.08Z"/><path class="cls-1" d="M1091.47,51.83h1.6c7.5.09,11.53,6.22,8.65,13.15a17.3,17.3,0,0,1-1.44,2.85c-2.35,3.58-5.56,5.43-9.94,4.7-2.46-.41-4.87-1.08-7.34-1.33a10,10,0,0,0-10.52,5.7,12.91,12.91,0,0,0-.89,2.51c-1.68,7.08-3.36,14.17-5,21.27a13.91,13.91,0,0,0-.28,3.7c.24,4.73-1,9.16-2.51,13.55-.86,2.52-1.83,5-2.62,7.55a26.74,26.74,0,0,0-1,4.68c-.86,7,2,12,8.12,15.39.94.51,1.94.91,2.82,1.5,2.85,1.88,3.48,4.13,2.14,7.36a11.79,11.79,0,0,1-4.61,5.69,74,74,0,0,1-14.23,7.21,36.79,36.79,0,0,0-4,1.54c-7.43,3.63-18.73,1.11-25.32-7.23-2.82-3.58-3.63-8.15-3.23-12.64a79.88,79.88,0,0,1,2.18-11c.92-4,2.1-7.9,3-11.89a95.54,95.54,0,0,1,5.31-17.84,12,12,0,0,0,.71-2q2.07-8.81,4.08-17.63a21.46,21.46,0,0,1,.66-3.13c2-5,2.08-10.41,2.56-15.7.42-4.64-1.11-6.42-5.91-6.9-1.59-.16-3.22-.07-4.78-.34-5.67-1-9.94-6.55-9.23-11.88a9.65,9.65,0,0,1,10.87-8.61c2.64.3,5.24,1,7.88,1.32a16.36,16.36,0,0,0,4.74-.07,4.57,4.57,0,0,0,3.86-3.92c.25-1.4.3-2.83.5-4.23A14.11,14.11,0,0,1,1056.25,24a94,94,0,0,1,13.26-5.54,22.64,22.64,0,0,1,11-1.07c4,.65,5.66,2.7,5.18,6.65a45.81,45.81,0,0,1-1.77,7.22c-1.15,3.92-2.56,7.77-3.58,11.72-1.23,4.76,1.43,8.46,6.3,9a42.32,42.32,0,0,0,4.78,0Z"/><path class="cls-1" d="M945,1637.2c-.19,2.84-.4,5.67-.57,8.51a14.11,14.11,0,0,0,1.73,7.69c2.49,4.69,4.85,9.46,7.26,14.2.41.8.78,1.6,1.19,2.39,4.48,8.55,11.7,13,21.1,14.46,5.47.82,10.88,1.38,16.41.21,4.6-1,8.72-3,12.89-4.93,2.42-1.12,4.71-2.51,7.12-3.64a19.54,19.54,0,0,1,4.5-1.57c5.06-1,8.89,2.72,7.75,7.76a26.63,26.63,0,0,1-3.06,7.32,32.32,32.32,0,0,1-12.2,11.67,75.83,75.83,0,0,1-21.67,8.71c-4.16.9-8.32,1.84-12.52,2.51a28.89,28.89,0,0,1-13.16-1.24c-5.42-1.68-10.91-3.15-16-5.66-7.17-3.49-13.47-8-17.53-15a57.4,57.4,0,0,1-4.46-10.22c-3.45-9.93-5.32-20.26-7.08-30.59a51.58,51.58,0,0,1,2.55-27.81c1.8-4.6,4.38-8.91,6.6-13.35,5.85-11.65,15.51-18.77,27.57-22.83a126.89,126.89,0,0,1,17.48-4.75,39,39,0,0,1,22,2c5.8,2.34,9.6,6.71,12.21,12.09a9.91,9.91,0,0,1-1.91,11.85c-3.21,3.3-7.09,5.34-11.93,4.74-1.23-.16-2.46-.35-3.68-.6-1.39-.28-2.76-.73-4.16-.95a42.38,42.38,0,0,1-15.57-5.14c-5.3-3.19-9.94-1.48-14.23,1.91a16.39,16.39,0,0,0-6.5,10.68c-.9,6.51-1.6,13-2.39,19.56Z"/><path class="cls-1" d="M451.28,194.11c-.53,5.29-2.48,9.23-6,12.16a34.63,34.63,0,0,1-6.82,4.11,10.37,10.37,0,0,1-7.3.51c-1-.27-2-.76-3-1-2.82-.8-4.7.79-4.06,3.59a10.21,10.21,0,0,0,1.72,3.83c12.17,16.17,23.43,33,36.68,48.38,1.63,1.88,3.36,3.67,5.11,5.43a10,10,0,0,0,8.18,3.15c.71-.05,1.42,0,2.13,0a14,14,0,0,1,9.44,3,7,7,0,0,1,1.29,10.27,26.74,26.74,0,0,1-3.94,3.56c-4.33,3.4-8.71,6.74-13.06,10.12a50.61,50.61,0,0,0-10.32,10.7c-2.13,3.05-4.32,6.08-7.43,8.3A8.38,8.38,0,0,1,441,316.85c-1.43-3-1.94-6-.59-9.26,1-2.45,1.74-5,2.72-7.51a6.61,6.61,0,0,0-.35-6.13c-1.27-2.14-2.43-4.34-3.81-6.4-2.46-3.69-5-7.33-7.61-10.93a22.11,22.11,0,0,0-3.8-4.41,34.12,34.12,0,0,1-7.46-9c-3.12-5-6.36-9.84-10.68-13.91-2.9-2.72-6.4-4.46-9.78-6.38-1.78-1-3.77-.82-5.73-.46s-4.19.79-6.3,1.06c-3.84.51-5.78-2-7.58-4.81-1.62-2.53-1.46-4.87,0-7.48,3.6-6.32,7.14-12.69,10.42-19.18,1.75-3.47,2.92-7.23,4.34-10.87.45-1.15.79-2.36,1.31-3.49a6,6,0,0,1,5-3.55,8,8,0,0,1,2.12-.09c3.76.48,5.82-1.39,7.57-4.56a51.58,51.58,0,0,1,6.47-9.09c4-4.55,9-6.75,15.23-5.5,1.91.39,3.88.5,5.81.78a8.35,8.35,0,0,1,6.23,3.66,78.72,78.72,0,0,1,5,8.16A36.57,36.57,0,0,1,451.28,194.11Z"/><path class="cls-1" d="M1583.67,466.23c0-.71,0-1.42,0-2.13.06-4,2-6.56,5.82-8a7.67,7.67,0,0,1,8.37,1.61q5,4.36,10,8.78a81.27,81.27,0,0,0,17,11.81c4.43,2.23,5.32,4.21,4.63,9-.08.52-.22,1-.34,1.56a6.07,6.07,0,0,0,2.16,6.19,56.51,56.51,0,0,1,5,4.79,55.57,55.57,0,0,1,5.42,7.2,13.29,13.29,0,0,1,1.06,11.31c-.8,2.53-1.75,5-2.63,7.53a6.55,6.55,0,0,1-3.24,4.07c-5,2.32-9.88,4.7-15.69,4.38-5.54-.3-9.18-3.33-12.13-7.51a19.58,19.58,0,0,1-2.27-4.8c-1.43-4-1.72-8,1-11.66l.3-.44c1-1.58,1.71-3.27.27-4.89s-3.21-1.28-5-.69c-1.51.52-3,1.16-4.44,1.79-5.2,2.27-10.37,4.61-15.59,6.83-13.57,5.76-26.74,12.32-39.8,19.13-.94.49-1.81,1.12-2.71,1.7a11.37,11.37,0,0,0-5.31,7.62,34.65,34.65,0,0,1-2.24,6.52,14.93,14.93,0,0,1-2.28,3.57c-3.48,4.13-8.52,4-11.62-.5a52.62,52.62,0,0,1-3.81-7c-1.8-3.66-3.46-7.39-5.22-11.07a50.75,50.75,0,0,0-9.72-13.9,28.23,28.23,0,0,1-6.1-8.66c-1.66-3.8-.29-8.36,3.21-10.18s7.07-2.36,10.77-.66a30.39,30.39,0,0,1,2.77,1.58c1.83,1.09,3.66,2.17,5.45,3.33a8.71,8.71,0,0,0,7.66.91,36.53,36.53,0,0,0,3.47-1.34c4.9-2.06,9.81-4.1,14.69-6.21a17,17,0,0,0,4.2-2.26c3.64-3,8-4.49,12.27-6.26,3.28-1.36,6.57-2.68,9.78-4.17,5.27-2.45,9.33-6.41,12.91-10.89C1583.68,471.92,1583.75,471.25,1583.67,466.23Z"/><path class="cls-1" d="M1498.57,1336.81c-.35-.06-.7-.13-1.06-.17-1.48-.18-2.89-.09-3.7,1.4a3.62,3.62,0,0,0,.42,4,24.76,24.76,0,0,0,3.22,3.5c4,3.74,8.21,7.33,12.16,11.16,11,10.64,22.85,20.26,34.71,29.9.68.56,1.44,1,2.15,1.56a10.6,10.6,0,0,0,9,2.07,29.3,29.3,0,0,1,10.06-.38,7.22,7.22,0,0,1,6.19,5.13,6.56,6.56,0,0,1-.49,6.12,35.67,35.67,0,0,1-2.93,3.78c-4.24,5-8.56,10-12.76,15a40.11,40.11,0,0,0-6.06,10,37.57,37.57,0,0,1-5.62,9.61,8.5,8.5,0,0,1-13.65-1.19c-1.56-2.49-2.54-5.07-2.08-8.06.36-2.28.59-4.59,1-6.84a9,9,0,0,0-2.26-8.4c-2.16-2.34-4.42-4.59-6.7-6.82-1.39-1.37-3-2.53-4.33-3.94-3-3.09-5.89-6.06-9.82-8-2.15-1.08-3.82-3.14-5.64-4.83-3.38-3.15-6.7-6.35-10.07-9.51-4.29-4-9.7-5.79-15.18-7.4a7.2,7.2,0,0,0-5.19.48,50,50,0,0,1-5.4,2.26,9.09,9.09,0,0,1-11.26-6.24c-.48-1.85.17-3.49.84-5.15a124,124,0,0,0,6.9-23.48,79.46,79.46,0,0,0,1.09-9c.28-3.87,2.31-6.19,5.88-7.37a2.46,2.46,0,0,1,.51-.15c4.75-.27,6.51-3.43,7.75-7.49a48.06,48.06,0,0,1,3.78-8.76c2.52-4.72,6.76-7.16,12-8,2.45-.39,4.94-.58,7.4-.92a7.29,7.29,0,0,1,6,1.65,35.23,35.23,0,0,1,8.78,9.9,15.81,15.81,0,0,1-1.83,17.9,20.63,20.63,0,0,1-8.14,5.84C1501.63,1337,1501.66,1337.07,1498.57,1336.81Z"/><path class="cls-1" d="M152.63,542c.06-7.86-.33-15.64-2.56-23.24a13,13,0,0,1-.46-3.16,6.26,6.26,0,0,1,2.65-5.52,10.93,10.93,0,0,1,1.8-1.14c3.84-1.86,5.15-4.93,5.05-9.12a45.82,45.82,0,0,1,1-10,14.67,14.67,0,0,1,9.47-11.34c2.31-.9,4.55-2,6.84-3a6.73,6.73,0,0,1,5.2-.34c5.51,2.2,10.8,4.82,14.09,10,3.14,5,4,10.27.81,15.59a43.16,43.16,0,0,1-4.38,6,10.36,10.36,0,0,1-5.91,3.39,21.61,21.61,0,0,0-3.1.77,2.81,2.81,0,0,0-1.12,4.74,15.17,15.17,0,0,0,5.23,3.56c6.66,2.14,12.46,6,18.78,8.84,7,3.09,13.88,6.35,20.86,9.43,4.22,1.87,8.51,3.56,12.79,5.28,2.15.86,4.33,1.61,6.5,2.4a11.81,11.81,0,0,0,10.28-.73,22.63,22.63,0,0,1,3.34-1.67,33.12,33.12,0,0,1,5.08-1.46c3.43-.65,6.34.27,8.42,3.23,2,2.8,1.61,5.68.26,8.59-1,2.25-2.08,4.51-3.1,6.77-1.53,3.4-3.1,6.79-4.57,10.21a47.14,47.14,0,0,0-3.4,12.29c-.46,3.34-1.08,6.66-1.75,10a10.49,10.49,0,0,1-3.88,6.21,7.59,7.59,0,0,1-9.39.3,12.26,12.26,0,0,1-5.51-8.15c-.41-2.46-1-4.88-1.38-7.33a9.06,9.06,0,0,0-4.59-6.83c-2.6-1.52-5.29-2.89-8-4.27-1.74-.88-3.59-1.55-5.29-2.5A42.73,42.73,0,0,0,211,564.94c-3.72-.83-7.12-3.1-10.64-4.79-2.88-1.38-5.67-3-8.58-4.27-5.3-2.38-11-2.76-16.69-2.8-2.29,0-4,1.21-5.68,2.6s-3.59,2.9-5.49,4.21c-2.1,1.45-4.25,1.27-6.53.12-3.77-1.9-5.56-4.75-5.19-9C152.41,548,152.47,545,152.63,542Z"/><path class="cls-1" d="M583.92,1556.92c-9,.15-16.43-5.83-17.93-13.78,0-.17,0-.35,0-.53-.22-1.44-.52-2.89-2.24-3.22a3.69,3.69,0,0,0-3.68,1.7,21.83,21.83,0,0,0-2.84,4.48c-2.32,5.61-5.68,10.63-8.51,16-3.66,6.89-7.13,13.89-10.54,20.91-3,6.22-5.8,12.55-8.78,18.8-2.05,4.3-2.41,8.47.3,12.65,2,3.12,2.33,6.68,2.11,10.26a7,7,0,0,1-9.91,6.22c-4.26-1.76-8.33-4-12.49-5.95-3.21-1.52-6.37-3.17-9.68-4.42a71.79,71.79,0,0,0-8.71-2.38c-3.28-.78-6.6-1.35-9.88-2.14a11,11,0,0,1-6.14-4,7.21,7.21,0,0,1-.5-8.89,11.32,11.32,0,0,1,8.08-5.54c3-.44,6-1,8.93-1.49a8.06,8.06,0,0,0,5.74-3.51c1.85-2.8,3.67-5.64,5.38-8.54,1.35-2.28,2.43-4.73,3.77-7a33.57,33.57,0,0,0,3.71-8.79,24.89,24.89,0,0,1,2.48-5.83c1.87-3.43,3.86-6.79,5.89-10.13,3.72-6.1,5.06-12.8,5.22-19.83a8,8,0,0,0-1.95-5.38c-1.22-1.52-2.5-3-3.64-4.59a7,7,0,0,1-.33-8.47c1.88-3,4.16-5.2,8.2-4.73,4.76.56,9.55.86,14.33,1.12a59.88,59.88,0,0,0,18-1.38,23.18,23.18,0,0,1,2.62-.47c3.36-.43,6.24.75,7.5,3.82,2,4.78,5.46,6,10.16,6a42.22,42.22,0,0,1,7.39.88,15.84,15.84,0,0,1,12,8.82c1.22,2.36,2,5,3.07,7.37a8.49,8.49,0,0,1-.44,8.63,72.51,72.51,0,0,1-6.11,8.66C591.5,1555.51,587.8,1557.55,583.92,1556.92Z"/><path class="cls-1" d="M754.69,559.64c.12,3.33,1.63,5.29,3,7.3a43,43,0,0,1,3.11,4.93,2,2,0,0,1-2,2.92,9.67,9.67,0,0,1-3.12-.51c-5.12-2-10.39-3.73-15.25-6.23-7.64-3.92-15.73-6.56-23.74-9.44-4.18-1.5-8.4-2.9-12.46-4.68-12.22-5.35-24.86-9.53-37.54-13.6-3.71-1.2-7.45-2.32-11.13-3.6a11,11,0,0,1-3.18-1.87,2.12,2.12,0,0,1,.4-3.56A22.58,22.58,0,0,1,658,530c9.51-1.27,19-2.65,28.56-3.59,12-1.19,24.06-2.26,36.12-2.91,13.13-.7,26.29-1,39.41.3a176.6,176.6,0,0,1,26.18,4.84,20.87,20.87,0,0,1,11.09,7,55.76,55.76,0,0,1,8.71,15.19,10.93,10.93,0,0,1,.53,2.06c.62,3.41-.7,4.71-4.05,4-1-.22-2.06-.56-3.1-.71a1.49,1.49,0,0,0-1.45,2.18,41.46,41.46,0,0,0,3,4.34c2.17,2.81,4.63,5.42,6.56,8.38a54.33,54.33,0,0,1,4,8.1,8.07,8.07,0,0,1,.45,3.11,2.25,2.25,0,0,1-2.88,2.27,19.66,19.66,0,0,1-4.77-2.25,34.88,34.88,0,0,1-4.42-3.83c-5.67-5.38-11.3-10.81-17-16.17a16.93,16.93,0,0,0-3.43-2.46,2.12,2.12,0,0,0-1.93.16,2,2,0,0,0-.6,1.84,34.79,34.79,0,0,0,2.79,5.08c.88,1.32,2.1,2.42,3.06,3.69a12.78,12.78,0,0,1,1.59,2.75,2.08,2.08,0,0,1-2.41,3,19.27,19.27,0,0,1-5.37-2.19c-5.52-3.56-10.9-7.33-16.36-11-1.61-1.08-3.28-2.11-5-3A9.76,9.76,0,0,0,754.69,559.64Z"/><path class="cls-1" d="M1111.16,1565.72c.73,6,1.18,12,2.25,17.94,1.2,6.63,2.9,13.17,4.49,19.72.67,2.76,1.61,5.45,2.41,8.17q4.79,16.35,9.57,32.7c.3,1,.62,2,1,3,3,8.1,3.78,9.2,11.48,13.06a14.48,14.48,0,0,1,7.92,9.45c.92,3.21,0,5.74-2.55,7.45a50.88,50.88,0,0,1-8,4.14,18.08,18.08,0,0,1-5.17,1.23c-8,.9-15.48,3.91-22.87,6.91a66.94,66.94,0,0,1-12.77,3.65c-4.4.85-8.41-1-11.64-4-2.3-2.15-2.16-6.37.29-9.27a46,46,0,0,1,5.43-5.09c1.34-1.16,2.82-2.15,4.24-3.22a8.51,8.51,0,0,0,3.45-8.44q-.84-5.79-2.15-11.5c-2.44-10.73-6.41-21.06-8-32a63.39,63.39,0,0,0-2.65-9.75c-1.11-3.5-3.23-5.68-7.28-5.92a20.4,20.4,0,0,1-7.11-2c-4.1-1.89-5.45-5.76-2.69-9.67a43.32,43.32,0,0,1,4-5c2.07-2.19,4.35-4.19,6.51-6.3a15.34,15.34,0,0,0,2.87-3.12c2.18-4,5.25-7.11,8.44-10.22a43.5,43.5,0,0,0,3.27-4.19,62.78,62.78,0,0,1,4.43-5.3,9.31,9.31,0,0,1,3.59-2.17,6,6,0,0,1,8,5.45,33.63,33.63,0,0,1-.26,4.24Z"/><path class="cls-1" d="M141.51,1088.47a29.11,29.11,0,0,1-18.74,27.39,39.16,39.16,0,0,1-14.11,2.37c-11.55,0-24.93-9.37-28-22.42a31.47,31.47,0,0,0-1-4.12c-2.83-7.35-3-15-2.15-22.62,1-9.42,7.64-19.86,19.32-23.11a29.91,29.91,0,0,1,25.88,4.1c4.35,2.87,8.39,6.13,11,10.65a46.61,46.61,0,0,1,4.43,10.2c1.39,4.76,2.18,9.7,3.15,14.57A17,17,0,0,1,141.51,1088.47Z"/><path class="cls-1" d="M1674.88,1077.8c.14,7.54-1.67,14.45-3.73,21.23-3.3,10.87-13.7,18.61-25.07,19.18a43.3,43.3,0,0,1-12.16-1.11,25.32,25.32,0,0,1-14.27-8.74c-5.32-6.52-8.66-13.74-7.78-22.5,1-9.6,2.5-19,7.43-27.52a29.89,29.89,0,0,1,9.76-10.38,25.4,25.4,0,0,1,16.72-4.08c12.17,1.2,20.21,7.88,25.5,18.43C1673.77,1067.27,1675.85,1072.37,1674.88,1077.8Z"/><path class="cls-1" d="M718.89,1099.26c.49,7.35-6.11,16.7-14.21,19.26a10.92,10.92,0,0,1-7.29-.21,27.07,27.07,0,0,1-15.08-13.44,10.12,10.12,0,0,1-.66-7.74,21.54,21.54,0,0,1,13-14.53,16,16,0,0,1,16.13,2C715.69,1088.15,719,1092.8,718.89,1099.26Z"/><path class="cls-1" d="M1078.45,1484.31c3.94-.59,7.32,1.12,10.12,4.14a65.65,65.65,0,0,1,4.42,5.3,7,7,0,0,1,1.14,6.08,52.27,52.27,0,0,1-2,7.15,17.43,17.43,0,0,1-8.73,8.94,20.54,20.54,0,0,1-14,1.39c-3.17-.78-5.67-2.47-6.71-5.49a76.06,76.06,0,0,1-3.59-13.3c-.74-5,1.65-8.94,6.27-11.29A27.53,27.53,0,0,1,1078.45,1484.31Z"/><path class="cls-1" d="M967.73,1003.22c.06,2.43-.14,4.91-1.71,7-3.13,4.18-6.48,7.28-13.82,4.82a41.11,41.11,0,0,1-12-5.76c-3.62-2.73-4.64-5.4-3.23-9.74a75.57,75.57,0,0,1,3.27-7.85c1.18-2.59,2.41-5.15,3.76-7.66,1.23-2.3,3.1-3.07,5.33-1.87,4.22,2.26,8.6,4.41,12.3,7.37C966.08,993.06,968,997.37,967.73,1003.22Z"/><path class="cls-1" d="M746.37,984.64a25.15,25.15,0,0,1-9,18.53c-2.33,2-5,2.76-7.88,1.43a32.24,32.24,0,0,1-12.08-9.27,9.16,9.16,0,0,1-1.18-10,24.87,24.87,0,0,1,7.72-10c7.2-5.58,16.44-2.58,20.71,3.21A9.44,9.44,0,0,1,746.37,984.64Z"/><path class="cls-1" d="M849.45,899a17.76,17.76,0,0,1-7.3,14.59,8.1,8.1,0,0,1-9,.85,26.17,26.17,0,0,1-12.35-12c-2.6-5.3-1.89-9.56,2.62-13.29a21.58,21.58,0,0,1,16.79-5.08,8.39,8.39,0,0,1,5.39,3.09C848.45,890.45,849.48,893.64,849.45,899Z"/><path class="cls-1" d="M860.46,1123.94c-4.62.18-8.51-1.67-10.69-6.08a12.76,12.76,0,0,1,1.49-14c3.76-5,12.31-7.5,18.33-5.74,6.66,2,9.67,8.57,6.65,14.74a22.44,22.44,0,0,1-6.62,8.19A14.13,14.13,0,0,1,860.46,1123.94Z"/><path class="cls-1" d="M656.79,964.13c.85-4.51,1.64-9.23,2.65-13.9a4.34,4.34,0,0,1,4.69-3.56,28.08,28.08,0,0,1,7.31,1.07,26.49,26.49,0,0,1,6.09,3.2c2.13,1.38,3.15,3.49,2.31,6-1.3,3.86-2.7,7.7-4.35,11.42a10.15,10.15,0,0,1-5.14,5.2C662.86,976.88,656.49,972.21,656.79,964.13Z"/><path class="cls-1" d="M839,786.72c-2-.18-3.67-.19-5.23-.48-8.08-1.5-9.57-8.61-6.79-14.17a13.27,13.27,0,0,1,15.87-6.39c5.84,1.93,9.54,10.19,7.08,15.83a7.74,7.74,0,0,1-5.58,4.53A46.6,46.6,0,0,1,839,786.72Z"/><path class="cls-1" d="M1084.73,987c.31-1.91.53-3.86,1-5.75a6,6,0,0,1,3.76-4.19c5.25-2.25,14-.36,17.75,3.89,3,3.37,3,7.08.09,10.53a17.61,17.61,0,0,1-13.67,6.15c-5.71.08-8.47-2.84-8.63-7.93,0-.89,0-1.78,0-2.66Z"/><path class="cls-1" d="M936,761.23a21.81,21.81,0,0,1,4.59,1.23,6.41,6.41,0,0,1,3,2.81,17.09,17.09,0,0,1,1.17,10.38,6.16,6.16,0,0,1-4.4,4.83c-5.48,1.81-10.35.14-13.22-4.79a49.63,49.63,0,0,1-3.51-7.13c-1.13-2.93-.08-4.85,3-5.57S932.76,761.81,936,761.23Z"/><path class="cls-1" d="M1127.54,1087.94c-.2,1.37-.24,2.26-.46,3.11a4.15,4.15,0,0,1-4.19,3.36,15.1,15.1,0,0,1-9-2.7,8.5,8.5,0,0,1-2.47-10.87c1.65-3,4.4-3.84,7.6-3.72s5.9,1.47,7.08,4.61A42.6,42.6,0,0,1,1127.54,1087.94Z"/><path class="cls-1" d="M995.13,813.64a6.24,6.24,0,0,1,2.18-4.68,9,9,0,0,1,9.53-1,5.47,5.47,0,0,1,2.16,8.13,9.81,9.81,0,0,1-6,4.14C999.1,821.13,995,817.66,995.13,813.64Z"/><path class="cls-1" d="M711.47,888.12c-2.76.11-4.22-1.29-4.05-3.56a14.62,14.62,0,0,1,4.51-9.36,3.72,3.72,0,0,1,5.29-.13c2,1.88,3.45,4.16,2.8,7a6.66,6.66,0,0,1-4.88,5.12C713.78,887.65,712.39,887.91,711.47,888.12Z"/><path class="cls-1" d="M773.73,855.91v-1.43c0-1.78.09-3.64,1.94-4.58a5.59,5.59,0,0,1,6,.51,10,10,0,0,1,2.5,2.65c2.7,4.15.56,8.63-4.38,9.34a5.14,5.14,0,0,1-5.62-3.75A14.6,14.6,0,0,1,773.73,855.91Z"/><path class="cls-1" d="M1066.37,900.82c.32,0,1,.09,1.71.22a5.32,5.32,0,0,1,4.49,3.91c.67,2.3-.25,4.14-1.86,5.68a7.14,7.14,0,0,1-8.32.61,6.42,6.42,0,0,1-2.33-7C1060.85,902,1062.87,900.79,1066.37,900.82Z"/></svg>