<svg id="Layer_1" data-name="Layer 1" xmlns="http://www.w3.org/2000/svg" viewBox="0 0 2051.37 1703.82"><defs><style>.cls-1{fill:#252223;}.cls-2{fill:#046227;}.cls-3{fill:#b4181d;}</style></defs><path class="cls-1" d="M174,852q0-421.15-.18-842.3C173.77,2,175.54,0,183.35,0q842.3.3,1684.58,0c7.61,0,9.68,1.68,9.67,9.56q-.31,842.3,0,1684.59c0,7.67-1.76,9.66-9.57,9.66q-842.28-.3-1684.58,0c-7.61,0-9.68-1.68-9.67-9.56Q174.12,1273.1,174,852ZM1025.58,25.09q-408.81,0-817.63-.18c-7.43,0-9.27,1.67-9.27,9.22q.31,570.63,0,1141.27c0,8.16,2.53,9.46,9.88,9.46q320.24-.28,640.48.08c8.65,0,11.39-3,13.33-10.67A1076.28,1076.28,0,0,0,889,1022.79c3.89-37,5.87-74.13,3.66-111.37-.37-6.26-.87-9.5-9.42-9.13-51.91,2.29-103.84,3.08-155.66-2.46-26.5-2.83-50.83-9.09-69.56-30.74a701.3,701.3,0,0,1-96-142.88c-2.17-4.29-4.11-8.73-4.24-13.69-.27-10.3,3.41-13.91,13.59-13.79,10.67.12,20,3.25,27.66,11,5.39,5.45,11.12,10.56,16.49,16,21.87,22.28,42.54,45.69,64.42,68,16.78,17.1,36.15,24.78,60,25,41.53.4,82.8-2.65,124.1-6.09,5.91-.49,5-4.07,5.07-7.64.84-28.65,1.5-57.32,2.66-86,.19-4.73-1.74-7.41-4.8-10.07-12.64-11-25.12-22.14-37.94-32.91C775,630.65,761,624.43,691.37,615c-41.88-5.7-83.8-11-125.68-16.72-12.71-1.73-19.14-10-18.46-22.93.5-9.61,4.67-13.58,14.21-13.75,43.71-.78,87.42-1.73,131.13-2.26,6.57-.08,7.73-1.41,6.5-8.08q-10.62-57.72-20.13-115.65c-4-24.06-8.12-48.1-9.78-72.49-.44-6.37,2-9.29,8.05-10.6,15.09-3.23,22.82.51,28.47,15C727.79,424.24,747.8,481.72,768.3,539c1.68,4.69,3.73,8.3,8.54,10.76q65.1,33.3,129.88,67.21c4.71,2.46,6.58,1.58,9.31-2.43q32.52-47.8,65.45-95.34a16.73,16.73,0,0,0,3.08-9.42q2.15-58.29,4.66-116.56c.18-4.08-1.27-7-3.58-10-12.08-15.75-24.19-31.49-36-47.46-23.88-32.4-48.4-64.34-69.53-98.71-5.16-8.4-4-15.44,1.57-22.58a41.29,41.29,0,0,1,14.4-11.7c5.66-2.81,10-2.12,14,3.12,10.52,13.74,21.38,27.21,32,40.88,21.57,27.77,42.24,56.26,66.23,82.1,6.84,7.36,13.21,8.65,22.38,4.14,21.15-10.38,41.52-22.13,62-33.64,31.62-17.76,62.27-37.26,95.18-52.67,9.33-4.37,16.43-2.63,21.86,4.5,6.16,8.08,6.3,18.8,0,25.85a107.39,107.39,0,0,1-10.51,9.94c-35.29,29.92-72.58,57.28-109.78,84.74-4.23,3.12-6.2,6.21-6.41,11.73-2,51.34-4.35,102.66-6.56,154a36,36,0,0,1-6.16,19c-26.52,39.91-54.28,79-82.09,118-3.34,4.68-3.25,7.89-.56,12.74,12.78,23,25.33,46.15,37.46,69.51,3,5.86,4.77,5.52,9.15,1.44Q1093.3,703.37,1152.61,649a24.11,24.11,0,0,0,7.29-12c6.8-24.88,15.58-49.1,24-73.46C1201,514,1228.52,473.4,1276.57,449c16.49-8.38,33-16.37,51.1-20.7,6.41-1.53,12.73-1.51,16.48,5.14s3.09,13.25-1.65,19.08a66,66,0,0,1-9.75,9.45c-10.79,8.76-21.77,17.29-32.64,25.95-15.33,12.22-27.78,26.33-33.7,45.76-11.53,37.84-18.58,76.57-24.8,115.51-.66,4.17.28,5.35,4.46,5.62,9.9.62,19.79,1.64,29.65,2.78,32.76,3.76,63.86,11.81,91.51,31.24,23.42,16.45,48,31.19,71.87,47,18.89,12.56,37.62,25.37,55.06,40,5.22,4.38,7.31,9.12,4.91,15.65-3.46,9.43-14.83,15-24.25,11.39a103.7,103.7,0,0,1-13.8-6.56c-27.91-15.71-55.64-31.76-83.67-47.26-15.92-8.81-32.56-15.86-51-18-41.56-4.93-83.25-5.09-125-4.4-3.69.06-6.3,1-8.59,4.17q-60,82.07-120.24,164a10.64,10.64,0,0,0-2.21,8.62q20.9,135.81,41.47,271.65c1.17,7.83,3.6,9.89,11.49,9.88q359.42-.36,718.83,0c8.76,0,11-2.05,11-11Q1852.79,605,1853,36.08c0-11,0-11-11.44-11Zm1,1433.37q-409.24,0-818.5-.15c-7.13,0-9.47,1.16-9.42,9q.57,101.78.05,203.56c0,6.92,2,8.35,8.51,8.35q818.51-.21,1637,0c6.89,0,9-1.49,9-8.72q-.45-100.93.08-201.86c.06-8.92-2.43-10.43-10.72-10.43Q1434.54,1458.62,1026.56,1458.46Zm-.89-246.94q-408.83,0-817.64-.16c-7.25,0-9.43,1.35-9.38,9.14q.56,100.08,0,200.15c0,8,2.32,9.53,9.82,9.53q817.63-.26,1635.27,0c7.2,0,9.5-1.28,9.45-9.14q-.57-99.65,0-199.29c.06-9-2.59-10.41-10.78-10.4Q1434.06,1211.66,1025.67,1211.52Z"/><path class="cls-2" d="M1563.72,574.19c.27,19.42,2.1,36.3,4.21,53.15a26.66,26.66,0,0,0,4.64,11.71c4,5.87,7.78,11.86,11.22,18,14.61,26.27,10.32,62.78-9.93,85.27-2.07,2.3-4.57,4.22-6.86,6.34-5.06,4.7-8.75,3.17-12.23-2.19-16.3-25.18-26.11-51.72-16.49-82,4.69-14.73,4.22-29.61,3.25-44.63-.73-11.27-1.52-22.53-2.43-36-10.17,14.81-18.57,28.43-32.09,37.76-13.2,9.11-25.84,19.05-40.13,29.66.06-25.16-1.21-48.53,3.12-71.77,1.46-7.81,5.7-12.54,12.68-15.71,9.88-4.48,20.43-6.74,30.74-9.79,5.63-1.68,11.45-2.87,17.27-6.59-15.88-19.53-31.57-38.84-48.19-59.27-4.43,11.53-8.46,21.91-12.42,32.31-5.83,15.3-12.52,29.86-28.46,37.57a89.77,89.77,0,0,1-19.12,6.86c-4.23,1-5.92-.76-6.18-4.51-1.32-18.77-.6-37.45,3.56-55.85,1.38-6.06,6.69-8.88,11.49-11.92,8.77-5.55,18.43-9.86,26.17-18.35-6.33-3.14-12.66-2.26-18.57-3.32-44.36-8-80.66,6.73-111.07,39-11.49,12.18-14.09,27.53-17.24,42.67-4.62,22.23-8.07,44.68-8.71,67.43-.14,4.88-2.08,6.51-6.48,6.74-6.85.35-14.68,1.26-20-2.08-6.54-4.1-1.11-12-.52-17.9a362.32,362.32,0,0,1,13.78-68.21c6-19.88,17.64-36,32.14-50.33a228.66,228.66,0,0,1,29.42-24.45c33.12-23.32,69.22-25.43,107-14.93,7.64,2.12,15.13,4.76,22.74,7a37.65,37.65,0,0,0,23.32-.43c11-3.7,22.21-6.78,33.34-10.1,8.82-2.64,16.49-.93,23.74,5,14.27,11.71,27.26,24.67,40.48,38.87-29.8,6.48-58.58,11.13-87.82-1.72q17,25.38,34.06,50.77c1.65,2.45,3.92,1.54,6.15,1.39,9-.64,18.12-.93,27.14-1.82,14.84-1.46,26.52,4,37.88,13.47,19.52,16.32,28.33,34.66,17.73,59.6-2.85,6.73-4.51,14-6.4,21.1-1.22,4.58-2.65,4.95-6.78,2.33-18.55-11.77-36.5-23.94-47.32-44.07C1572.81,585.24,1568.68,580.87,1563.72,574.19Z"/><path class="cls-2" d="M1120.44,555c6.53-12.13,13.63-24,19.48-36.44,15.36-32.73,38.57-60,60.94-87.73,5.56-6.91,6.75-13.11,5-21.5a362.37,362.37,0,0,1-7.23-58.2c-.34-8.13,1-15.67,6.21-22.4,14.39-18.65,30.78-35.44,49-53.9,0,35.87,11.69,70.37-9.1,102.59-4.24,6.59-6.77,14.28-10,21.5-.9,2-2.77,4.54-1,6.2,2.35,2.16,4.8-.48,6.72-1.76,9.68-6.43,19.41-12.81,28.74-19.72,25.22-18.72,50.6-9,76-.76,1.42.46,2.44,2.12,4.33,3.85-28.18,15.1-55.43,30.61-83.54,44.37-13.37,6.54-28.88,5.41-43.62,4.76-6-.26-9.34,1.83-12.35,6.58-20.88,33-42.08,65.93-60.77,100.25-11.75,21.57-21.11,44.43-31.69,66.63a187.17,187.17,0,0,1-16.43,28.72c-5,7-10.73,7.77-19.12,2.89-9.48-5.52-11.87-10.94-8.29-18.84,4-8.76,7.3-17.89,12-26.21,19.58-34.38,21.38-73,27-110.68.59-3.95-1.31-7.15-3-10.42-5-9.85-10-19.67-14.95-29.53a22.27,22.27,0,0,1-1.69-14.85A242.17,242.17,0,0,1,1108,380.85c1.82-4.25,3.41-5.41,6.89-1.4,16,18.49,27.22,39.58,34.72,62.73,1.16,3.58.42,7.36-1.11,10.81-1.72,3.88-2.82,8.39-5.55,11.38-15.29,16.82-17.71,37.76-19.9,58.92-1.08,10.41-2.58,20.79-3.9,31.18Z"/><path class="cls-2" d="M416.14,804.29c17.63-3.67,34-7.36,50.83-6.33,14,.85,25.43,8.11,35.1,17.45,5.9,5.69,11.93,7.69,19.69,7.11,5.84-.44,11.74-.09,18.67-.09-7.79-11.1-15.07-21.37-22.2-31.73-1.59-2.3-3.93-2-6.05-2.43a78.42,78.42,0,0,1-18.58-5.92c-19.75-9.43-31.1-24.06-29.71-46.91a298.87,298.87,0,0,1,6.42-44.55c1.05-4.9,2.33-5.44,6.46-2.73,10.43,6.85,20.59,14,30.68,21.38,14.36,10.43,21.64,24.62,20.27,41.68-1.68,20.85,7,36.36,18.71,52.54,28.12,38.76,60.93,72.2,100,100,20,14.18,41.5,21.37,65.48,23.37,21.51,1.79,43,4.08,64.58,3.64,12.45-.26,8.07,8,8.85,14.11,1,8.14-4.92,5.7-8.85,5.79-20.74.48-41.42-1.11-62.12-1.9-22.81-.89-42.85-10-62.71-19.84-5.79-2.85-11.5-4.32-17.93-3.72-5.93.55-11.9.8-17.85.86a107.44,107.44,0,0,0-41.78,8.4C547.39,945.69,523.47,939,502.87,918c-17.66-18-17.94-16.79,5.11-26.88,28.38-12.43,52.93-8.89,73.92,14.47,2.05,2.28,4.16,3.39,7.38,3.11,9-.79,18.09-1.25,27-1.83.83-3.42-1.77-4.37-3.17-5.85-16.76-17.75-33.69-35.34-50.33-53.2-3.37-3.62-6.72-5.59-11.73-5.13a90.7,90.7,0,0,1-12.77,0c-13.7-.71-27.08-.17-39.38,7.18-3.08,1.84-6.93,2.41-10.45,3.49-13.72,4.19-25.31,1.39-35.68-9.06C440.41,831.87,428.45,819.06,416.14,804.29Z"/><path class="cls-2" d="M741.14,233.68a364.61,364.61,0,0,1,17.2,32.38c6,12.56,5.41,24.37-1.41,36.43a149.08,149.08,0,0,1-22.44,30.85c-3.06,3.16-3.37,5.58-1.5,9.47,6.22,13,12,26.15,18.36,40.07,4.45-3.47,6.53-8.28,8.81-12.91,7.48-15.27,12.46-31.55,18.92-47.23a74.65,74.65,0,0,1,3.72-7.63c1.49-2.65,3-3.77,5.55-.56,14.87,18.32,14.64,53.43-1,71.21-7.28,8.32-15.13,16.14-22.73,24.18-2.23,2.36-3.62,4.44-1.93,8.17,8.44,18.6,17.53,36.8,29.83,53.21,1.13,1.49,2.07,4.1,4.25,3.67,2.82-.56,2.37-3.51,2.45-5.64.61-15.31,1.13-30.61,1.65-45.92.32-9.64,4.33-17.26,11.61-23.64A347.65,347.65,0,0,1,843,375.45c4.76,21.21,8.21,41.43,4.33,62.21-1.67,9-6.17,16.38-12.68,22.6-3.28,3.14-6.93,5.89-10.15,9.07C806.67,487,807,481.59,822.08,502.76c18,25.35,44.72,36.5,73,45.19,7.84,2.42,15.71,5,23.76,6.37,5.71,1,6.81,3.35,5.7,8.45A105.24,105.24,0,0,0,922,578.71c-.35,5.66-2.85,6.37-7.72,5.14-22.42-5.66-43-15.79-63.7-25.66-24-11.43-41.42-28.93-56.79-50.65C758.05,457,736.6,399.7,712.87,343.47c-6.66-15.79-2.65-33.23,2.45-49.29C721.8,273.73,732.11,254.85,741.14,233.68Z"/><path class="cls-2" d="M936.29,368.2c-10.19-15.43-19.8-29.72-29.09-44.21-2.21-3.44-4.89-3-8.05-2.8-14.72.93-29.46,1.45-44.15,2.67-12.09,1-22.26-2.71-31.25-10.5-5.76-5-11.6-9.89-18.22-15.52,13-8.84,26-13.8,41-10.32,14.25,3.31,28.35,7.31,44.19,11.44-11.29-13.39-21.54-25.43-31.63-37.62-2.34-2.83-4.47-2.17-7.44-1.26-10.56,3.23-21.19,6.14-32.24,7.45-8,.94-14.43-1.4-20.17-6.75-10.27-9.59-18-21.07-25-33.11-2.16-3.7-1.78-5.72,2.92-5.93,18.45-.82,36.88-1.26,55.16,2,6.16,1.11,10.46,5.47,15,9.36,40.55,35.15,74.07,75.9,103.39,121,31.52,48.53,32.47,98.49,16.76,151.22-1.65,5.54-15,8.27-19.12,4.14-2.09-2.08.35-3.59.78-5.29,8.69-34.23,12.82-68.51,1.65-103.08-5.26-16.31-6.49-17.44-23.61-18.24-13.6-.64-27.23-1.81-40.81-1.42-16.28.47-28.83-5.65-39.72-17.35-9.56-10.26-9.79-9.51,2.77-15.74,25.63-12.72,46.6-1.75,66.86,12.67C921.92,365.1,927.56,368.38,936.29,368.2Z"/><path class="cls-2" d="M1154.92,913.32c4.89-10.42,8.92-20.36,14.84-29.36s13.35-14.75,24.7-15.82c15.26-1.42,30.55-2.15,45.82-3.16,5.54-.37,7,1.95,6.79,6.84-.67,17.08-7.72,30.85-22.44,39.51s-30.83,14.13-49.05,20.2c17.34,6.23,32.91,12.16,50,12.23,4.38,0,7.82-3.22,11.26-5.63,9.75-6.82,19.44-13.74,29-20.87,7.76-5.81,16.14-7.52,25.64-5.86a114.16,114.16,0,0,1,42.46,16.43c4.34,2.78,4.42,4.82.78,8.22-13.59,12.7-28.53,22.77-48,22.48-29-.44-57.8,2.05-86.73,2.26-14.27.1-27.14-3.19-39-11.81-16.28-11.87-32.74-23.4-47.19-37.56-6.68-6.55-9.09-13.44-6.43-22.92,5.84-20.79,13.19-40.92,23.32-60,5.42-10.22,8.92-10.75,17.45-3.43,10.88,9.35,11.21,11.87,3.2,24.07-.46.71-1,1.39-1.44,2.1C1132.71,877.22,1133.48,888.1,1154.92,913.32Z"/><path class="cls-2" d="M1384.19,907.32c12.06-15.77,23-30.81,27-49.66a23,23,0,0,0-4.08-19.24c-11-15.52-25.31-27.4-41-37.92-4.56-3.07-5.08-.76-5.35,3.08-.83,11.6-1.39,23.23-2.73,34.77-3,25.85-32.59,39.91-54.56,26.4-3.46-2.12-3-4-1.82-6.77,4.34-10,11-18.48,18.35-26.39,14.24-15.3,14.61-34.85.79-50.84-6.4-7.41-14.5-12.63-22.94-17.36-11.88-6.65-24.42-11.91-36.88-17.37-2.27-1-6.73-.81-6.08-4.43.62-3.43,4.12-5.13,7.84-5.42,7.86-.62,15.2,1.36,22.33,4.36,18,7.59,36,15.07,53.92,22.9,27,11.81,54,23.62,80.1,37.25,26.6,13.86,41.26,36.57,46.61,65.28,4.85,26-9.71,43.66-36.18,45.56C1414.55,912.59,1399.74,911,1384.19,907.32Z"/><path class="cls-2" d="M722.14,780.89c-34-13.66-64.35-30.62-88-58a377.64,377.64,0,0,0-34.52-35.23c-22-19.55-32.73-44.83-40-73.34,18.57,2.39,36.59,5.17,52.9,14.35,11,6.2,12.71,17.51,14.33,28.45a144.73,144.73,0,0,1,.89,31.42c-.17,2.51-.71,4.87,1.76,6.93C645.93,709.2,662.29,723.06,680,738c0-12.25-.07-22.88,0-33.52,0-3-2.19-4.45-3.8-6.32-6.3-7.34-12.07-15-15.89-24a40.84,40.84,0,0,1,14.91-49.58c3.83-2.58,5-.14,6.75,1.85A228.48,228.48,0,0,1,704.9,656c10.38,16.31,9.84,29.07-3.71,42.95-5.63,5.77-5.64,10.56-3.72,17.17C703.85,738.09,712.66,759.15,722.14,780.89Z"/><path class="cls-2" d="M1384.79,665.09a195.88,195.88,0,0,0,45.83,21.31c7,2.16,12.83-.84,18.27-4.6,21.37-14.81,45.41-10.09,69.49-11-5.14,18.88-11.54,35.47-27.29,46.17-12.83,8.72-25.62,11.85-41,3.4-41-22.43-81.59-45.35-121.19-70.09-2.12-1.32-4.11-2.83-7.82-5.41,11.41-2.23,21.11-1.11,30.68,0,22.79,2.58,23.66,3,29.45-18.56,6.26-23.3,25.64-29,44.26-36.41,3.5-1.39,4.42.87,4.77,3.73,2.39,19.31,2.27,38.44-4.29,57-3,8.37-9.83,11.4-17.94,11.82-7.52.38-15.07.08-22.61.08C1385.16,663.41,1385,664.25,1384.79,665.09Z"/><path class="cls-3" d="M782.41,777.22a47.14,47.14,0,1,1,47.17-47.14C829.59,755.93,808.47,777,782.41,777.22Z"/><path class="cls-2" d="M1152.1,240.69c-23.47-1-18.93,1.8-18.7-18.57.06-5.34,1.28-10.67,2-16,4.37-31.19,21.42-50.6,52.46-58,13.5-3.21,27.06-5.83,40.73-8,4.3-.69,5.65.45,4.49,4.88q-7.08,27.06-15.55,53.7c-8.54,26.94-28.38,38-54.43,41.35C1158.92,240.57,1154.65,240.55,1152.1,240.69Z"/><path class="cls-2" d="M1116.72,80.05c4,24.59,8.89,47.91,4.49,71.38-4.7,25-20.16,42.89-43,53.45-16.36,7.56-26.78,1.67-30.86-15.67-3.66-15.53-2.78-31,1.2-46.3,1.7-6.53,5.79-11.63,10.42-16.3C1076.15,109.24,1095.86,95,1116.72,80.05Z"/><path class="cls-3" d="M1085.88,257.46a43.47,43.47,0,1,1-86.94.28,43.92,43.92,0,0,1,43-43.82C1066,213.51,1085.74,233.06,1085.88,257.46Z"/><path class="cls-2" d="M1002.39,173.91c-.76,4.45-1.1,9-2.36,13.31-4.85,16.57-18.94,24.36-35.64,19.83-23.16-6.3-35.71-21.06-37.25-45.45-1-15.83-2-31.63-2.45-47.48-.12-4,.54-5.89,5.11-4.3,17.91,6.25,35.45,13.19,51.4,23.76C995.73,143.21,1002.18,156.75,1002.39,173.91Z"/><path class="cls-3" d="M925,487.86a41.16,41.16,0,0,1-82.31.95c-.38-22.43,17.86-41.06,40.68-41.57C905.66,446.75,924.79,465.41,925,487.86Z"/><path class="cls-3" d="M1178.77,799.52a39.83,39.83,0,1,1,40,39.82A39.8,39.8,0,0,1,1178.77,799.52Z"/><path class="cls-3" d="M676.8,489.41a39.75,39.75,0,1,1-40.27-39.47C659.12,449.79,676.72,467,676.8,489.41Z"/><path class="cls-3" d="M795.78,959A39.37,39.37,0,0,1,836,919.6c21.67.25,39.5,18.1,39.5,39.54,0,21.8-18.21,39.92-40.11,39.92A39.66,39.66,0,0,1,795.78,959Z"/><path class="cls-2" d="M502.36,386c24.82,4.88,48.53,8.4,68.95,21.22,16.37,10.28,25.05,26,23.31,46-.92,10.56-6,15-16.53,15.65-30.12,2-59-18.22-67-47.17C508,410.48,505.57,399.14,502.36,386Z"/><path class="cls-2" d="M602.21,305.27c15.49,11.84,31.51,22.27,42.1,37.78,11.85,17.37,14.2,37.51,8.33,57.84-3.17,10.94-11.55,14.87-22.71,12.52-24.3-5.09-41-27.84-38.27-52.25,1.58-14.39,4.39-28.58,7.37-42.74C599.9,314.34,601,310.3,602.21,305.27Z"/><path class="cls-3" d="M1083.49,678.67a38.69,38.69,0,0,1-38.75,38.06c-21.15,0-38.79-18.09-38.36-39.39.42-21.07,17.91-38.2,38.83-38.05A38.72,38.72,0,0,1,1083.49,678.67Z"/><path class="cls-3" d="M1399.19,561.81a34.95,34.95,0,0,1-69.89.71c-.39-18.55,15.35-34.8,34.22-35.33C1382.61,526.66,1398.93,542.5,1399.19,561.81Z"/><path class="cls-2" d="M470.1,516.17c16.75-10.5,33.14-19.79,51.57-24.65,14.61-3.85,32.76,4.21,40.31,17.27,4.89,8.46,4.57,16.63-1.07,24.68-9.78,14-29.33,19.47-44.54,12.15C500,537.76,485.44,527.19,470.1,516.17Z"/><path class="cls-1" d="M1127.73,1502.92c14.19,0,28.38.18,42.56-.1,4.87-.1,10.65,2.43,14-4.53.75-1.55,7.29-3.27,7.28,3.42,0,9.08,0,18.16,0,27.24,0,1.85.63,4.32-2.36,4.51-2.17.13-5.12,1-6-1.74-1.4-4.18-4.51-3.58-7.56-3.58-19.86,0-39.73.17-59.59-.13-5.26-.07-6.67,1.42-6.63,6.69.11,15.14-.15,15.14,15.07,15.14,7.66,0,15.32.08,23,0,4-.06,8.57,1.47,10.56-4.36.63-1.86,3.53-1.35,5.48-1.1,3,.39,2.23,2.82,2.24,4.66.06,8.51.09,17,0,25.53,0,1.78,1.11,4.46-1.64,5-2.32.48-5.57,1.36-6.7-1.79-1.33-3.72-4.06-3.35-6.87-3.35-11.64,0-23.28.21-34.9-.1-4.87-.13-6.13,1.43-6.19,6.26-.23,19.56-.42,19.56,19.14,19.56h48.53c3.32,0,6.8.72,8.45-3.67,1-2.83,4-1.69,6-1.49,2.84.28,2.15,2.83,2.16,4.7q0,13.2,0,26.39c0,1.81,1,4.34-2,4.79-2.12.33-5.14,1.27-6.13-1.27-2-5.2-6.18-4-10-4-31.78,0-63.56,0-95.34-.1-2.53,0-6.14,1.8-7.46-1.8-1.12-3.05-.58-6,3.4-7.43,2.75-1,2-3.75,2-5.93q0-46,0-91.94c0-2.9.28-5.68-3.36-6.84-3.45-1.1-2.54-4.18-2.14-6.46.56-3.29,3.57-2.09,5.61-2.1C1094.81,1502.88,1111.27,1502.92,1127.73,1502.92Zm-43.84,61.28h-.05c0,16.74.17,33.49-.12,50.23-.07,4.11.93,5.56,5,5.55,31.5-.07,63,.07,94.52-.06,7.73,0,3.18-6.3,4.11-9.64,1.1-3.94-1.21-4.07-4.75-4-23.84.3-47.68.07-71.52.33-5.42.06-7.69-1.37-7.37-7.13a207.25,207.25,0,0,0,0-23c-.33-5.85,1.48-8,7.59-7.82,13.9.4,27.83-.22,41.71.3,5.81.22,7.22-1.54,7.18-7,0-5.22-1.49-6.84-6.84-6.46a233.81,233.81,0,0,1-23.83.11c-8.17-.26-18.77,3.53-23.85-1.47-5.47-5.4-1-16.18-1.93-24.53-.79-6.72,2.21-8,8.28-7.93,23.26.43,46.53.23,69.78.68,6,.12,3.94-4,3.58-6.16-.44-2.55,3.28-7.59-3.11-7.56-30.92.13-61.83.48-92.75.46-5.23,0-5.86,2.1-5.79,6.58C1084.05,1531.84,1083.89,1548,1083.89,1564.2Z"/><path class="cls-1" d="M791.05,1500.66c18.3-.57,34.42,5.92,49.89,14.87,2.83,1.63,5.45,5.08,9.79,1.71,2.42-1.86,4.68,1.37,6.29,3,2,2-.7,3.51-1.66,5q-6.69,10.35-13.66,20.51c-1,1.49-1.64,4.45-4,3.58-2.14-.78-5.21-1.93-4.9-5.09.36-3.54-1.79-5.25-4.15-6.78-16.38-10.67-34.07-14-52.78-7.88-17.51,5.68-26.4,20.91-24.36,40,1.75,16.33,14.94,29.1,33,31.6,14.52,2,28.28-.52,40.89-8.13,3.43-2.07,7.94-3.48,7.42-9.21-.23-2.52,2.63-3.74,4.52-4.57,2.47-1.1,3.16,1.7,4.17,3.2,4.75,7,9.41,14.15,14.06,21.26,1,1.49,3.4,2.93,1,4.94-1.62,1.37-3.6,4.34-5.59,2.79-5-3.89-8.16.32-11.31,2.25a92.33,92.33,0,0,1-62.83,13c-35.56-5-57.93-29.46-57.74-63.23.19-33,23-57.25,58.29-61.86C782,1501.07,786.52,1501,791.05,1500.66ZM839,1590.41c-17,15.08-36.83,20.26-59.07,16-18.12-3.45-30.84-16.5-34.08-34.57-3.33-18.57,3.72-34.24,19.88-44.15,19.52-12,50.73-8.66,70,8,3.42,3,5,2.31,6-.93,1-3.43,9-6,2.13-10.63-23-15.56-48-20.71-75.3-14.67-21.93,4.87-40.22,24.33-42.58,45.57-3.06,27.58,8.55,50.32,31.77,60,26.56,11,52.41,8.8,77.4-5.7C848,1601.81,848.21,1602.19,839,1590.41Z"/><path class="cls-1" d="M1303.48,1576.67c8.28,11.6,16.44,23.13,24.69,34.58,1.83,2.54,3.93,5.14,7.34,5.33,4.43.24,3.68,3.27,3.73,6,.06,3.73-2.73,2.89-4.8,2.9-12.76,0-25.54-.23-38.29.14-6.07.17-6.77-4.54-4.6-6.74,4.39-4.45.82-6.73-1-9.55-4-6.16-9.5-11.67-12.23-18.32-6.43-15.66-19.21-13.62-31.81-13.2-3.74.12-3.88,2.26-3.86,5.09q.12,14,0,28.08c0,2.79.49,4.93,3.43,6.07,3.28,1.27,2.41,4.28,2,6.61-.52,2.69-3.16,1.79-5,1.81q-16.17.12-32.34,0c-1.77,0-4.4,1-4.92-1.8-.45-2.37-1.29-5.52,1.92-6.63,4.15-1.44,3.47-4.59,3.47-7.65q0-45.11,0-90.21c0-3.51.21-6.59-4.12-8.12-2.63-.93-1.56-4-1.36-6.07.21-2.29,2.23-2.12,3.93-2.09,29.77.55,59.61-1.63,89.3,1.12,26.14,2.42,40,24.76,31.77,49.81C1327.29,1564.45,1321.15,1569.64,1303.48,1576.67Zm-10.09-3.93c2.72-2.55,5.45-1.73,7.85-2.23,13.85-2.88,22.43-10.76,24.55-22.66,4-22.27-7.79-37.54-30.5-38.2-24.1-.7-48.23-.19-72.35-.59-5.68-.09-6.28,2.15-6.24,7,.22,30.36.11,60.73.11,91.09,0,13,0,12.68,12.92,12.94,6.29.13,7.44-2.12,7.19-7.84-.48-11-.21-22.13-.08-33.19,0-2.32-1.14-6.2,2.37-6.34,10.74-.42,21.52-.25,32.27.11,1.44.05,3.12,2.35,4.13,4,8.61,13.59,19.69,25.61,25.91,40.71.63,1.52,1.47,2.4,3,2.33,6.89-.28,13.9,1.13,21.25-1Z"/><path class="cls-1" d="M968.48,1625.54c-12.19,0-24.39.06-36.59-.06-2,0-5,1.32-5.62-2-.47-2.38-1.17-5.37,2.11-6.56,3.6-1.3,3.19-4.12,3.19-7q0-45.53,0-91.07c0-3.18.32-6.14-3.69-7.52-2.79-1-1.91-3.88-1.76-6,.19-2.78,2.58-2.48,4.54-2.44,26.94.54,53.93-1.49,80.8,1.14,24.8,2.42,41.47,17.85,47,42.26a81.56,81.56,0,0,1,.92,31.28c-4.43,27.35-21.67,44.38-49.23,47-13.77,1.31-27.76.23-41.65.23Zm-31.25-61.32c0,16.46.24,32.93-.14,49.38-.11,4.91,1.13,6.47,6,6.42,19-.21,38,.4,57-.22,32.07-1,49-15.21,53.55-45.89,4.2-28.64-7.15-64.69-52-64.62-19.3,0-38.6.08-57.9-.2-5.06-.08-6.83,1.18-6.7,6.61C937.5,1531.86,937.24,1548.05,937.23,1564.22Z"/><path class="cls-1" d="M889.44,1625.54c-5.1,0-10.2.12-15.29-.06-2-.07-4.95,1.31-5.38-2.23-.26-2.14-1-5.1,1.65-6,4.54-1.6,3.72-5.06,3.72-8.37q0-44.62,0-89.26c0-3.31.83-6.84-3.74-8.32-2.94-1-1.68-3.87-1.64-5.93.06-3,2.59-2.4,4.46-2.41q16.57-.06,33.15,0c1.88,0,4.42-.56,4.66,2.26.18,2,1.22,5-1.61,6-4.42,1.59-3.74,5.06-3.74,8.41q0,44.63,0,89.26c0,3.3-.81,6.85,3.68,8.44,2.83,1,1.82,3.86,1.66,6-.22,3-2.81,2.19-4.58,2.23C900.78,1625.61,895.11,1625.54,889.44,1625.54Zm-10-6.5c5.14,0,9.44-.5,13.57.12,5.76.87,6.84-1,6.77-6.64-.36-29.78-.17-59.57-.17-89.36,0-15.19,0-15.19-15.26-14a4.83,4.83,0,0,1-.85,0c-2.92-.15-3.36.89-3.32,4,.34,27.79.38,55.59.36,83.38C880.55,1603.88,881.37,1611.25,879.45,1619Z"/><path class="cls-1" d="M1058.74,1302.4c-8.63,21.77-16.68,42.28-24.94,62.71-1.27,3.16.19,4.11,2.59,4.79,4,1.16,3,4.56,2.69,7-.47,3.29-3.63,1.91-5.61,1.93-11.07.14-22.14.11-33.21,0-1.8,0-4.54.79-4.76-2-.18-2.26-1.44-5.59,2-6.58,5.46-1.55,3.32-5,2.16-8q-17.18-44.31-34.52-88.58c-1.42-3.62-2.56-7.65-7.3-8.62-3.61-.74-2.87-3.72-2.85-6.16,0-3.48,2.72-3,4.93-3q18.74,0,37.46,0c1.88,0,4.38-.56,4.43,2.46,0,2.35,1.26,5.45-2.25,6.45s-3.26,3.19-2.25,5.87c6.67,17.71,13.3,35.43,20.55,54.76,7.87-19.49,15.1-37.48,22.41-55.43,1.06-2.6.9-4.26-2.15-5.06-3.59-1-2.5-4-2.43-6.37.12-3.52,3-2.67,5.11-2.68q19.15-.09,38.31,0c1.82,0,4.45-.87,4.79,2,.28,2.33,1.45,5.42-1.75,6.71s-4.32,2.58-2.84,6.28c7,17.52,13.6,35.17,21,54.54,7.41-19.72,14.22-37.87,21.06-56,.94-2.48,0-3.79-2.4-4.29-4.17-.89-3.14-4.2-3-6.8.23-3.57,3.28-2.43,5.28-2.45,11.92-.1,23.84-.08,35.76,0,2.08,0,4.92-.82,5,2.8,0,2.42.94,5.44-2.61,6.27-4.68,1.1-5.9,5.09-7.32,8.69q-17.18,43.88-34.1,87.85c-1.34,3.47-3.87,7.4,2.77,8.93,2.75.63,1.54,4,1.48,6-.08,3-2.75,2.29-4.55,2.3q-17.45.11-34.91,0c-1.83,0-4.42.63-4.53-2.33-.08-2.3-1.36-5.51,2.22-6.44s3.62-3,2.54-5.75C1075.13,1344.17,1067.2,1324,1058.74,1302.4Zm.11-17.06c5.46,13.92,10.79,25.56,14.6,37.68,5,16,15.53,30.26,16.08,47.79.06,1.92,1.54,2.14,3,2.14,5.39,0,11.14,1,16.06-.5,3.54-1.12,1.15-6.8,2.63-10.38,6-14.68,11.48-29.61,17.22-44.42,7-18.15,14.17-36.27,21.58-55.21-6.44,0-12.08,0-17.71,0-2,0-4-.16-4.29,2.8-1.16,13.56-8.2,25.22-12.45,37.78-4.4,13-9.75,25.69-15.2,39.85-9-23.25-17.08-45-25.93-66.45-1.91-4.63.63-11.75-4.64-13.62-5-1.79-11.22-.4-16.9-.41h-2.56c-1.89,0-3.17.26-3,2.77.5,7.46-3.92,13.48-6.44,20-7.27,18.76-15,37.34-23.47,58.31-8.7-28.07-21.4-52-26.91-78.48-.5-2.44-1.52-2.58-3.25-2.59-6.58,0-13.17,0-19.85,0,6.22,15.89,12.41,30.5,17.68,45.44,7.31,20.76,18.5,40.16,22,62.27.26,1.64,1,2.7,2.61,2.69,5.38,0,11,.84,16-.53,3.56-1,.76-6.09,2-9.22C1037.91,1337.85,1048,1312.58,1058.85,1285.34Z"/><path class="cls-1" d="M598.82,1256c14.47,0,28.95.15,43.42-.08,4.64-.08,10.38,2.35,13.11-4.47.34-.86,3.67-.87,5.56-.68,3,.29,2,3,2,4.67q.17,13.2,0,26.4c0,1.76,1.05,4.45-1.8,4.89-2.31.35-5.64,1.52-6.69-1.66-1.41-4.24-4.53-3.58-7.56-3.59-19.86,0-39.74.21-59.6-.14-5.51-.1-6.49,1.8-6.47,6.8.05,14.91-.17,14.91,14.42,14.91,7.1,0,14.21.27,21.28-.09,4.6-.24,10.48,2.6,13-4.58.3-.84,4.29-.86,6.39-.41s1.41,2.78,1.41,4.38c0,8.51.07,17,0,25.54,0,1.8,1,4.48-1.77,4.95-2.28.4-5.45,1.51-6.75-1.61-1.41-3.36-3.88-3.6-6.87-3.59-11.92.06-23.84.17-35.76-.05-4-.08-5.18,1.12-5.37,5.21-1,20.71-1.13,20.7,19.62,20.71,15.9,0,31.79,0,47.68,0,3.2,0,6.81,1.06,8.4-3.65.86-2.55,3.89-1.83,6.07-1.63,2.92.28,2.34,2.7,2.34,4.59q0,13.62,0,27.25c0,1.63.53,3.77-1.62,4.3s-5.42,1.29-6.25-.91c-2.32-6.1-7.19-4.41-11.4-4.42-31.51-.09-63,0-94.51-.14-2.48,0-6.23,1.87-7.27-2-.78-2.86-.64-6,3.51-7.43,3-1,2-4.33,2-6.76q.06-45.12,0-90.25c0-3.12.51-6.29-3.52-7.65-3.45-1.15-2.31-4.37-2-6.58.4-3.24,3.49-2.16,5.53-2.17C565.89,1256,582.35,1256,598.82,1256Zm-43.24,62c0,16.18.66,32.39-.31,48.52-.4,6.71,2,6.57,6.78,6.55,30.37-.11,60.74-.27,91.11.15,6.26.08,5.9-2.88,6.11-7.13.24-5.1-1.26-6.67-6.71-6.58-23.55.39-47.12,0-70.67.29-5.35.06-7.77-1.18-7.45-7a225.5,225.5,0,0,0,0-23.83c-.3-5.76,1.95-7.25,7.4-7.13,13.9.33,27.82-.12,41.72.23,5.32.13,7.37-1,7.45-6.87.08-6.4-3-6.58-7.8-6.42-8.79.28-17.6.08-26.39.08-22.31,0-22,0-22.47-22.68-.18-8,1.67-10.73,10.16-10.48,22.4.64,44.85-.06,67.26.44,5.94.13,5.29-3,4.54-6.11-.65-2.71,3.27-7.82-3.69-7.78q-46,.21-92,.19c-4,0-5.56.19-5.36,5.37C556,1284.45,555.56,1301.21,555.58,1318Z"/><path class="cls-1" d="M1455,1256c14.19,0,28.38.2,42.56-.1,5.14-.11,11,2.38,14.93-4.49,1.19-2.08,7.62-2.8,7.37,4.22-.31,8.78,0,17.59-.12,26.38,0,1.75,1.07,4.47-1.93,4.75-2.29.22-5.49,1.57-6.65-1.77-1.43-4.08-4.59-3.51-7.65-3.51-19.58,0-39.16.18-58.73-.13-5.43-.08-7.28,1.2-7.19,7,.21,14.72-.11,14.72,14.66,14.72,7.66,0,15.32.12,23,0,4-.09,8.53,1.63,10.72-4.14.91-2.39,4.09-1.25,6.2-1,3.11.35,1.84,3,1.86,4.74q.16,12.77,0,25.53c0,1.75,1.13,4.42-1.91,4.75-2.33.26-5.34,1.41-6.68-1.83s-4-3.42-7-3.41c-11.63,0-23.27.16-34.9-.05-4.18-.08-5.78.88-5.94,5.57-.69,20.35-.88,20.35,19.18,20.35,14.47,0,28.94.15,43.41-.09,4.93-.08,10.25,1.89,14.2-4.36,1.58-2.5,7.59-2.76,7.41,4.1-.22,8.79,0,17.59-.08,26.38,0,1.82.8,4.34-2,4.89-2.16.43-5.51,1.08-6.24-1.14-2-6-6.69-4.27-10.59-4.28-31.49-.11-63,0-94.48-.14-2.58,0-6.29,1.75-7.61-1.52s-.85-6.49,3.6-8.07c2.42-.86,1.59-4,1.59-6.14q0-45.53,0-91.07c0-3.19.21-6.06-3.75-7.48-3.26-1.16-1.91-4.43-1.58-6.69.41-2.79,3.1-1.85,4.89-1.85C1422.05,1256,1438.51,1256,1455,1256Zm-42.54,61h0c0,16.45.76,33-.37,49.32-.45,6.59,1.33,6.78,6.36,6.76,30.35-.13,60.69-.23,91,.11,5.48.07,6.72-1.55,6.69-6.57s-.91-7.28-7-7.15c-23.24.51-46.51,0-69.75.38-6.48.1-8.47-1.89-8-8.21a168,168,0,0,0,0-22.1c-.36-5.88,1.53-7.93,7.58-7.76,14.17.4,28.37-.19,42.53.29,5.95.2,6.23-2.48,6.27-7.08s-1-6.46-6.12-6.32c-14.45.39-28.92,0-43.38.24-5.08.1-7.19-1.38-6.86-6.71a142.3,142.3,0,0,0,0-18.7c-.43-5.89,1.53-7.84,7.57-7.76,22.4.32,44.81-.25,67.2.34,7.65.2,6.75-3.71,7.26-8.71.74-7.25-3.84-4.94-7.36-4.93h-6.81c-26.65,0-53.31.15-80-.12-5.51,0-7.4.47-7,7C1413,1285.17,1412.42,1301.08,1412.42,1317Z"/><path class="cls-1" d="M461.25,1327.84c-8.22,0-16.46.23-24.67-.09-4.5-.18-5.84,1.35-5.69,5.77.3,9.35,0,18.72.12,28.08,0,3.47-1.19,7.34,3.9,9,2.52.85,1.62,4,1.4,6.14-.3,3-2.9,2.11-4.69,2.12q-16.59.11-33.19,0c-1.75,0-4.45.9-4.57-2.17-.07-2.09-1.22-5.2,1.45-6.11,5-1.7,4-5.54,4-9.07q0-44.24,0-88.49c0-3.26,1-6.8-3.62-8.38-3.27-1.14-1.94-4.43-1.69-6.68.31-2.76,3-2,4.84-2q16.17-.1,32.34,0c1.78,0,4.45-1,5,1.73.45,2.29,1.65,5.62-1.43,6.74-4.53,1.65-3.7,5-3.71,8.34,0,8.22.2,16.45-.09,24.67-.15,4.17,1.32,5.3,5.33,5.25q25.09-.27,50.2,0c4.35,0,6-1.15,5.81-5.77-.37-8.21-.14-16.44-.09-24.67,0-3.12.45-6.07-3.55-7.6-3.06-1.16-2.05-4.4-1.66-6.76.46-2.81,3.05-2,4.88-2q16.15-.09,32.33,0c1.85,0,4.42-.74,4.94,2,.46,2.37,1.25,5.5-1.81,6.71-3.86,1.54-3.63,4.44-3.63,7.64q.08,45.09,0,90.19c0,3.59,0,6.55,4.12,8.21,2.59,1,1.74,4.09,1.44,6.14-.4,2.65-3,2.05-4.87,2.06-10.78,0-21.56,0-32.33,0-1.83,0-4.5.92-5-1.74-.47-2.31-1.35-5.33,1.6-6.84,2.18-1.12,3.68-2.17,3.65-5-.14-11.06-.22-22.12,0-33.18.09-4.35-2.42-4.35-5.43-4.34C478.27,1327.86,469.76,1327.83,461.25,1327.84Zm-55.83-10.62h-.28c0,17.3.05,34.6-.08,51.91,0,1.8-.62,3.6,1.83,3.68,5.38.17,10.78.15,16.16,0,2.41,0,2-1.66,2-3.56-.31-13.32-.2-26.66-.61-40-.17-5.26,1-7.59,7-7.5q29.79.5,59.6,0c5.88-.09,7.15,2.26,7,7.55-.32,10.49-.09,21-.1,31.5,0,12.21,0,12.21,11.94,12.11a21.69,21.69,0,0,1,2.55,0c4.5.51,5.59-1.4,5.56-5.88q-.34-49.38,0-98.77c0-4.3-.8-6.44-5.48-6a33.83,33.83,0,0,1-7.66,0c-5.57-.67-7.28,1.41-7,7.1.51,11,0,22.13.21,33.2.08,4.35-1.42,6-5.89,6q-31.08-.23-62.15,0c-4.06,0-5.51-1.51-5.43-5.5.17-9.08,0-18.17,0-27.25,0-14.39,0-14.28-14.79-13.56-3.43.17-4.58.52-4.48,4.66C405.68,1283.72,405.42,1300.47,405.42,1317.22Z"/><path class="cls-1" d="M1631.64,1330.08c8.36,11.73,16.49,23.25,24.76,34.68,1.82,2.51,3.95,4.94,7.46,5.1,3.81.18,3.37,2.83,3.5,5.46.2,4.15-2.66,3.6-5.14,3.61-12.76,0-25.53-.26-38.28.12-6.78.19-6.77-5.16-4.55-7.32,3.92-3.8,1.39-5.61-.38-8.2-4-5.85-9.1-11.22-11.78-17.61-6.35-15.19-18.35-16-31.94-14.73-3.94.35-4.55,1.86-4.49,5.22.16,9.07.08,18.15,0,27.23,0,2.88-.21,5.43,3.43,6.79,3,1.13,2.12,4.47,1.64,6.77-.55,2.61-3.23,1.69-5.05,1.7q-16.15.12-32.32,0c-1.78,0-4.56,1-4.93-1.74-.3-2.24-1.53-5.61,1.74-6.72,4.59-1.57,3.69-5.13,3.7-8.39q0-44.24,0-88.48c0-3.58.9-7.41-4-9.08-2.88-1-1.55-4-1.56-6,0-3,2.59-2.48,4.45-2.44,29.18.54,58.42-1.54,87.56,1.08,21.61,1.94,32.59,12.53,35,32.48,2.33,18.82-6.28,31.62-26.29,39.14C1633.55,1329,1632.9,1329.43,1631.64,1330.08Zm22.53,42.89c-10.23-14.66-19.22-28.07-28.8-41-4.18-5.66-4.24-7.32,3.44-8.46,16.87-2.5,25.63-13.23,25.6-29.6,0-17-8.43-27.84-26-30.06-26.77-3.39-53.78-.74-80.67-1.41-2.71-.07-2.85,1.14-2.82,3.67.25,30.9.3,61.8.36,92.69,0,15.25,0,15.17,15,14.27,3.3-.2,4.68-.34,4.43-4.69-.69-12.15-.42-24.36-.4-36.55,0-2.33-1-6,2.6-6.17,10.75-.36,21.53-.19,32.29,0,1.11,0,2.55,1.37,3.22,2.47,8.45,14,20.18,26,26.35,41.43,1.09,2.72,2.28,3.47,4.8,3.46C1640,1372.94,1646.45,1373,1654.17,1373Z"/><path class="cls-1" d="M1266.64,1378.94c-6.52,0-13.05.07-19.57,0-1.75,0-4.55.92-4.67-2.07-.08-2.25-1.52-5.63,2-6.55,5-1.32,3-3.92,2.07-7-3.42-10.67-9.48-15.89-21.63-14.19-9.45,1.33-19.26.64-28.87.16s-8.17,8.51-11.74,13.12c-2.45,3.17-3.36,6.46,2.18,8.35,2.34.8,1.51,4.11,1.18,6.23-.44,2.84-3.07,1.91-4.86,1.93-11.63.08-23.25.06-34.88,0-2.1,0-4.91.74-4.83-2.92,0-2.42-.83-5.32,2.87-6.09,3.88-.81,5.13-4.1,6.6-7.17q21.23-44.36,42.47-88.71c1.7-3.56,4.08-7-1.47-9.81-2.27-1.13-1.49-4.14-1-6.25.57-2.7,3.09-1.93,4.92-1.94,12.2,0,24.39-.07,36.58,0,2.07,0,5.08-1.09,5.69,2,.45,2.27,1.23,5.33-1.87,6.73-4.58,2-2.41,4.87-1.06,7.62q22.17,44.83,44.37,89.66c1.77,3.56,3.55,7,8.06,8.05,3.59.82,2.36,4,2.33,6.39,0,3-2.61,2.37-4.43,2.39C1280.25,1379,1273.44,1378.94,1266.64,1378.94ZM1279,1372c-13.21-26.55-26.36-52.57-39.1-78.79-4.06-8.37-9.85-16.3-11-25.58-.6-4.75-1.62-5.61-5.64-5.28a57.58,57.58,0,0,1-7.66,0c-7.06-.34-14.66-1.66-13.19,9.78.22,1.7-1.33,3.67-2.19,5.45-12.83,26.85-25.74,53.66-38.47,80.55-2.13,4.5-7.74,10.65-5.33,13.3,3.67,4,11.13,1,17,1.45,1.75.13,3.26-.18,3-2.78-1-9.45,5.64-16.24,8.73-24.27,1.34-3.46,4.32-3.08,7.16-3.08,11.34,0,22.8,1,34-.26,13.06-1.52,20,3.06,24.88,15.22,2,4.93-1,13.61,7.08,15,6.33,1.06,13,.08,19.5,0C1278,1372.71,1278.2,1372.47,1279,1372Z"/><path class="cls-1" d="M742.82,1349.38c-3.69,0-7.51.62-11-.12-10.8-2.24-16.23,3-19.07,12.55-1,3.18-4.56,6.56,1.62,8.67,2.62.9,1.73,4,1.5,6.1-.38,3.48-3.38,2.29-5.37,2.31q-17,.15-34.06,0c-1.93,0-5,1.18-4.9-2.7.07-2.36-1.08-5.4,2.65-6.21,4.27-.91,5.56-4.54,7.13-7.82q21.09-44,42.09-88.06c1.67-3.48,4.36-7.06-1.38-9.78-2.53-1.2-1.39-4.12-1.18-6.2.3-2.89,2.92-2.07,4.73-2.08q18.74-.09,37.46,0c1.81,0,4.53-.93,5,1.72.42,2.25,1.61,5.53-1.46,6.79-5.26,2.15-2.81,5.2-1.37,8.12q22,44.5,44.07,89c1.75,3.53,3.34,7.32,7.85,8.32,3.71.82,2.69,3.81,2.69,6.19,0,3.7-3,2.73-5,2.74-13,.08-26.11.06-39.16,0-1.86,0-4.5.62-4.77-2.13-.23-2.3-1.31-5.57,2.11-6.56,5.12-1.49,2.72-4.28,1.76-7.14-3.37-10.1-8.88-16.52-20.88-13.82C750.35,1350,746.51,1349.38,742.82,1349.38Zm64.8,23.18c-16-32.35-31.55-63.78-47-95.25-1.61-3.27-4.37-6.51-3.64-10.26,1-5.23-2-4.74-5.21-4.65-2.83.08-5.67.1-8.51,0-6.65-.23-14-1.6-12.33,9.35.25,1.68-1.32,3.67-2.17,5.45q-21.3,44.5-42.6,89c-.92,1.93-2.91,3.63-1.64,6.76,5.45,0,11.08,0,16.72,0,1.59,0,3.9.24,3.45-2.35-1.51-8.78,5.46-14.55,7.55-22,1.29-4.6,4.47-5.93,9-5.84,11.35.21,22.83,1.13,34-.21,13.32-1.6,20.09,3.66,24.55,15.71,1.79,4.84-.65,12.49,5.6,14.34,5.49,1.61,11.82.38,17.78.37C804.32,1373,805.44,1372.76,807.62,1372.56Z"/><path class="cls-1" d="M1350,1325.51c0,11.34,0,22.68,0,34,0,4.3-1.41,9,4.36,11.54,2.31,1,1.41,4.14.93,6.21s-2.69,1.64-4.32,1.64q-16.59.06-33.17,0c-1.85,0-4.41.7-4.72-2.14-.23-2.1-1.17-5.21,1.42-6.13,5-1.77,3.86-5.59,3.86-9.11,0-24.38-.19-48.76.16-73.14.09-5.75-1.61-7.37-7.11-7-7.06.43-14.17.1-21.26.1-3.32,0-6.66-.67-8.43,3.65-1.21,3-4.42,2-6.8,1.54-2.87-.57-1.69-3.16-1.71-4.93q-.13-12.75,0-25.51c0-2-1.16-5,2.23-5.46,2.07-.27,5-1.24,6.11,1.42,1.88,4.71,5.67,3.81,9.23,3.81q43.8,0,87.6,0c3.3,0,6.85.81,8.44-3.67,1-2.87,3.93-1.72,6-1.58,3.6.25,2.29,3.29,2.32,5.27.11,8.79.08,17.58,0,26.36,0,1.55.93,3.75-1.38,4.31-2.13.52-5.59,1.28-6.33-.62-2.54-6.5-7.8-4.36-12.23-4.53-6.51-.23-13,.17-19.56-.13-4.48-.21-5.85,1.37-5.75,5.84C1350.18,1300,1350,1312.75,1350,1325.51Zm-16-63.21v.08c-16.16,0-32.32.24-48.47-.16-4.45-.11-6.82-.07-6.18,5.26.52,4.25-1.39,9.15,6.45,8.53,9.57-.76,19.28.27,28.88-.33,7.33-.45,9.78,1.58,9.64,9.33-.49,27.2-.06,54.41-.32,81.62,0,4.75,1,6.92,6,6.38a29.09,29.09,0,0,1,6.79,0c5.86.75,7.59-1.26,7.49-7.45-.41-27.48-.06-55-.28-82.47,0-5.43,1.43-7.57,7.15-7.38,11,.38,22.1.14,33.16.11,7.82,0,3.62-6,4.45-9.38s-.59-4.43-4.57-4.33C1367.44,1262.53,1350.72,1262.3,1334,1262.3Z"/><path class="cls-1" d="M868.11,1378.94c-12.2,0-24.39,0-36.58,0-2.09,0-5.11,1.17-5.88-1.79-.68-2.57-1.18-5.84,2.46-7.18s2.85-4.46,2.85-7.17q0-45.1,0-90.19c0-3.11.54-6.21-3.44-7.73-3.13-1.2-2.33-4.3-2-6.68.38-2.76,2.92-2.18,4.8-2.14,26.63.55,53.31-1.4,79.91,1.14,24.82,2.38,41.78,17.4,47.58,41.62a82.46,82.46,0,0,1,1.34,30.42c-4,29.57-23,47.27-53.65,49.24-12.42.8-24.94.13-37.42.13Zm-31.34-61.18c0,16.15.22,32.31-.13,48.45-.11,5.1,1,7,6.43,6.88,18.69-.31,37.41.25,56.1-.25,32.78-.87,50.12-15.44,54.18-46.9,3.57-27.67-7.87-58.25-41.62-62.37-23.66-2.89-47.54-.68-71.31-1.11-4.62-.08-3.63,3.31-3.64,6Q836.75,1293.11,836.77,1317.76Z"/><path class="cls-3" d="M1083.89,1564.2c0-16.18.16-32.36-.1-48.54-.07-4.48.56-6.59,5.79-6.58,30.92,0,61.83-.33,92.75-.46,6.39,0,2.67,5,3.11,7.56.36,2.13,2.44,6.28-3.58,6.16-23.25-.45-46.52-.25-69.78-.68-6.07-.12-9.07,1.21-8.28,7.93,1,8.35-3.54,19.13,1.93,24.53,5.08,5,15.68,1.21,23.85,1.47a233.81,233.81,0,0,0,23.83-.11c5.35-.38,6.8,1.24,6.84,6.46,0,5.48-1.37,7.24-7.18,7-13.88-.52-27.81.1-41.71-.3-6.11-.18-7.92,2-7.59,7.82a207.25,207.25,0,0,1,0,23c-.32,5.76,2,7.19,7.37,7.13,23.84-.26,47.68,0,71.52-.33,3.54,0,5.85.08,4.75,4-.93,3.34,3.62,9.61-4.11,9.64-31.51.13-63,0-94.52.06-4.12,0-5.12-1.44-5-5.55.29-16.74.12-33.49.12-50.23Z"/><path class="cls-3" d="M839,1590.41c9.22,11.78,9,11.4-3.94,18.9-25,14.5-50.84,16.75-77.4,5.7-23.22-9.66-34.83-32.4-31.77-60,2.36-21.24,20.65-40.7,42.58-45.57,27.26-6,52.33-.89,75.3,14.67,6.82,4.61-1.1,7.2-2.13,10.63-1,3.24-2.53,3.88-6,.93-19.23-16.64-50.44-20-70-8-16.16,9.91-23.21,25.58-19.88,44.15,3.24,18.07,16,31.12,34.08,34.57C802.16,1610.67,822,1605.49,839,1590.41Z"/><path class="cls-3" d="M1293.39,1572.74l32.42,46.07c-7.35,2.16-14.36.75-21.25,1-1.57.07-2.41-.81-3-2.33-6.22-15.1-17.3-27.12-25.91-40.71-1-1.61-2.69-3.91-4.13-4-10.75-.36-21.53-.53-32.27-.11-3.51.14-2.35,4-2.37,6.34-.13,11.06-.4,22.15.08,33.19.25,5.72-.9,8-7.19,7.84-12.92-.26-12.92.11-12.92-12.94,0-30.36.11-60.73-.11-91.09,0-4.86.56-7.1,6.24-7,24.12.4,48.25-.11,72.35.59,22.71.66,34.46,15.93,30.5,38.2-2.12,11.9-10.7,19.78-24.55,22.66C1298.84,1571,1296.11,1570.19,1293.39,1572.74ZM1265,1558.82v-.07h22.1c.56,0,1.13,0,1.7,0,12.76-1.09,18.59-7.41,18.16-19.71-.36-10.27-7-16.41-20.33-17-14.7-.62-29.45-.08-44.18-.3-4.56-.06-5.87,1.83-5.76,6.09.21,8.21.26,16.44,0,24.64-.16,4.69,1.3,6.67,6.24,6.46C1250.29,1558.59,1257.66,1558.82,1265,1558.82Z"/><path class="cls-3" d="M937.24,1564.22c0-16.17.26-32.36-.14-48.52-.13-5.43,1.64-6.69,6.7-6.61,19.3.28,38.6.22,57.9.2,44.84-.07,56.19,36,52,64.62-4.51,30.68-21.48,44.86-53.55,45.89-19,.62-38,0-57,.22-4.87,0-6.11-1.51-6-6.42C937.47,1597.15,937.23,1580.68,937.24,1564.22Zm41,42.18c8.09,0,14.05.27,20-.05,20-1.08,32.59-11.95,35.46-31.18a64.74,64.74,0,0,0-1.07-26.12c-3.85-14.68-13-23.4-28-26-13.5-2.34-27.11-.65-40.65-1.34-5.9-.31-7.95,1.73-7.84,7.73.32,17.55-.12,35.11.21,52.66.15,7.81-3.54,17.69,1.85,22.88C963.22,1609.73,972.88,1605.82,978.29,1606.4Z"/><path class="cls-3" d="M879.45,1619c1.92-7.79,1.1-15.16,1.1-22.48,0-27.79,0-55.59-.36-83.38,0-3.1.4-4.14,3.32-4a4.83,4.83,0,0,0,.85,0c15.26-1.21,15.26-1.21,15.26,14,0,29.79-.19,59.58.17,89.36.07,5.67-1,7.51-6.77,6.64C888.89,1618.54,884.59,1619,879.45,1619Z"/><path class="cls-3" d="M1058.85,1285.34c-10.89,27.24-20.94,52.51-31.13,77.71-1.27,3.13,1.53,8.25-2,9.22-5,1.37-10.66.53-16,.53-1.65,0-2.35-1-2.61-2.69-3.46-22.11-14.65-41.51-22-62.27-5.27-14.94-11.46-29.55-17.68-45.44,6.68,0,13.27,0,19.85,0,1.73,0,2.75.15,3.25,2.59,5.51,26.47,18.21,50.41,26.91,78.48,8.48-21,16.2-39.55,23.47-58.31,2.52-6.51,6.94-12.53,6.44-20-.17-2.51,1.11-2.81,3-2.77h2.56c5.68,0,11.85-1.38,16.9.41,5.27,1.87,2.73,9,4.64,13.62,8.85,21.44,16.94,43.2,25.93,66.45,5.45-14.16,10.8-26.85,15.2-39.85,4.25-12.56,11.29-24.22,12.45-37.78.26-3,2.34-2.79,4.29-2.8,5.63-.06,11.27,0,17.71,0-7.41,18.94-14.54,37.06-21.58,55.21-5.74,14.81-11.17,29.74-17.22,44.42-1.48,3.58.91,9.26-2.63,10.38-4.92,1.55-10.67.49-16.06.5-1.44,0-2.92-.22-3-2.14-.55-17.53-11-31.75-16.08-47.79C1069.64,1310.9,1064.31,1299.26,1058.85,1285.34Z"/><path class="cls-3" d="M555.57,1318c0-16.75.4-33.51-.26-50.23-.2-5.18,1.39-5.38,5.36-5.37q46,0,92-.19c7,0,3,5.07,3.69,7.78.75,3.16,1.4,6.24-4.54,6.11-22.41-.5-44.86.2-67.26-.44-8.49-.25-10.34,2.46-10.16,10.48.52,22.67.16,22.68,22.47,22.68,8.79,0,17.6.2,26.39-.08,4.81-.16,7.88,0,7.8,6.42-.08,5.84-2.13,7-7.45,6.87-13.9-.35-27.82.1-41.72-.23-5.45-.12-7.7,1.37-7.4,7.13a225.5,225.5,0,0,1,0,23.83c-.32,5.86,2.1,7.1,7.45,7,23.55-.25,47.12.1,70.67-.29,5.45-.09,7,1.48,6.71,6.58-.21,4.25.15,7.21-6.11,7.13-30.37-.42-60.74-.26-91.11-.15-4.76,0-7.18.16-6.78-6.55C556.24,1350.35,555.58,1334.14,555.57,1318Z"/><path class="cls-3" d="M1412.42,1317c0-15.88.57-31.79-.27-47.63-.35-6.57,1.54-7.09,7-7,26.66.27,53.32.12,80,.12H1506c3.52,0,8.1-2.32,7.36,4.93-.51,5,.39,8.91-7.26,8.71-22.39-.59-44.8,0-67.2-.34-6-.08-8,1.87-7.57,7.76a142.3,142.3,0,0,1,0,18.7c-.33,5.33,1.78,6.81,6.86,6.71,14.46-.27,28.93.15,43.38-.24,5.16-.14,6.15,1.73,6.12,6.32s-.32,7.28-6.27,7.08c-14.16-.48-28.36.11-42.53-.29-6.05-.17-7.94,1.88-7.58,7.76a168,168,0,0,1,0,22.1c-.45,6.32,1.54,8.31,8,8.21,23.24-.39,46.51.13,69.75-.38,6.14-.13,7,2,7,7.15s-1.21,6.64-6.69,6.57c-30.34-.34-60.68-.24-91-.11-5,0-6.81-.17-6.36-6.76,1.13-16.37.37-32.87.37-49.32Z"/><path class="cls-3" d="M405.42,1317.22c0-16.75.26-33.5-.18-50.23-.1-4.14,1.05-4.49,4.48-4.66,14.8-.72,14.79-.83,14.79,13.56,0,9.08.13,18.17,0,27.25-.08,4,1.37,5.52,5.43,5.5q31.08-.18,62.15,0c4.47,0,6-1.64,5.89-6-.19-11.07.3-22.16-.21-33.2-.26-5.69,1.45-7.77,7-7.1a33.83,33.83,0,0,0,7.66,0c4.68-.48,5.51,1.66,5.48,6q-.25,49.38,0,98.77c0,4.48-1.06,6.39-5.56,5.88a21.69,21.69,0,0,0-2.55,0c-11.95.1-11.94.1-11.94-12.11,0-10.5-.22-21,.1-31.5.16-5.29-1.11-7.64-7-7.55q-29.81.47-59.6,0c-5.92-.09-7.13,2.24-7,7.5.41,13.32.3,26.66.61,40,0,1.9.42,3.51-2,3.56-5.38.11-10.78.13-16.16,0-2.45-.08-1.84-1.88-1.83-3.68.13-17.31.08-34.61.08-51.91Z"/><path class="cls-3" d="M1654.17,1373c-7.72,0-14.15,0-20.58,0-2.52,0-3.71-.74-4.8-3.46-6.17-15.41-17.9-27.39-26.35-41.43-.67-1.1-2.11-2.45-3.22-2.47-10.76-.19-21.54-.36-32.29,0-3.62.12-2.59,3.84-2.6,6.17,0,12.19-.29,24.4.4,36.55.25,4.35-1.13,4.49-4.43,4.69-15,.9-14.94,1-15-14.27-.06-30.89-.11-61.79-.36-92.69,0-2.53.11-3.74,2.82-3.67,26.89.67,53.9-2,80.67,1.41,17.53,2.22,25.93,13,26,30.06,0,16.37-8.73,27.1-25.6,29.6-7.68,1.14-7.62,2.8-3.44,8.46C1635,1344.9,1643.94,1358.31,1654.17,1373Zm-59.94-97v-.12c-7.91,0-15.83.12-23.75,0-4-.08-6.41.73-6.26,5.53.26,8.48.14,17,0,25.45,0,3.4,1,5.3,4.78,5.26,17-.2,34,.21,50.89-.57,10-.45,16-8.67,15.54-18.71s-6.52-16.28-16.64-16.72C1610.65,1275.66,1602.43,1276,1594.23,1276Z"/><path class="cls-3" d="M1279,1372c-.82.45-1,.69-1.29.69-6.51.09-13.17,1.07-19.5,0-8-1.35-5.1-10-7.08-15-4.88-12.16-11.82-16.74-24.88-15.22-11.2,1.3-22.66.27-34,.26-2.84,0-5.82-.38-7.16,3.08-3.09,8-9.72,14.82-8.73,24.27.27,2.6-1.24,2.91-3,2.78-5.82-.43-13.28,2.59-17-1.45-2.41-2.65,3.2-8.8,5.33-13.3,12.73-26.89,25.64-53.7,38.47-80.55.86-1.78,2.41-3.75,2.19-5.45-1.47-11.44,6.13-10.12,13.19-9.78a57.58,57.58,0,0,0,7.66,0c4-.33,5,.53,5.64,5.28,1.15,9.28,6.94,17.21,11,25.58C1252.66,1319.45,1265.81,1345.47,1279,1372Zm-87.56-39.74c12.2,2.25,23.81,1,35.33,1.21,11.92.21,12,0,7.2-10.84-5.91-13.26-12-26.43-18.8-41.36C1206.75,1299.41,1199.28,1315.48,1191.46,1332.28Z"/><path class="cls-3" d="M807.62,1372.56c-2.18.2-3.3.39-4.42.39-6,0-12.29,1.24-17.78-.37-6.25-1.85-3.81-9.5-5.6-14.34-4.46-12-11.23-17.31-24.55-15.71-11.19,1.34-22.67.42-34,.21-4.57-.09-7.75,1.24-9,5.84-2.09,7.47-9.06,13.24-7.55,22,.45,2.59-1.86,2.33-3.45,2.35-5.64.06-11.27,0-16.72,0-1.27-3.13.72-4.83,1.64-6.76q21.25-44.52,42.6-89c.85-1.78,2.42-3.77,2.17-5.45-1.63-11,5.68-9.58,12.33-9.35,2.84.1,5.68.08,8.51,0,3.24-.09,6.23-.58,5.21,4.65-.73,3.75,2,7,3.64,10.26C776.07,1308.78,791.63,1340.21,807.62,1372.56Zm-40.51-39.94c-7.77-16.94-15.22-33.2-23.53-51.34-7.82,17-14.78,32-21.73,47.14-1.89,4.09.93,4.18,3.66,4.19C739,1332.63,752.55,1332.62,767.11,1332.62Z"/><path class="cls-3" d="M1334,1262.3c16.72,0,33.44.23,50.15-.18,4-.1,5.43.84,4.57,4.33s3.37,9.36-4.45,9.38c-11.06,0-22.12.27-33.16-.11-5.72-.19-7.19,2-7.15,7.38.22,27.49-.13,55,.28,82.47.1,6.19-1.63,8.2-7.49,7.45a29.09,29.09,0,0,0-6.79,0c-5,.54-6-1.63-6-6.38.26-27.21-.17-54.42.32-81.62.14-7.75-2.31-9.78-9.64-9.33-9.6.6-19.31-.43-28.88.33-7.84.62-5.93-4.28-6.45-8.53-.64-5.33,1.73-5.37,6.18-5.26,16.15.4,32.31.16,48.47.16Z"/><path class="cls-3" d="M836.77,1317.76q0-24.66,0-49.31c0-2.68-1-6.07,3.64-6,23.77.43,47.65-1.78,71.31,1.11,33.75,4.12,45.19,34.7,41.62,62.37-4.06,31.46-21.4,46-54.18,46.9-18.69.5-37.41-.06-56.1.25-5.42.08-6.54-1.78-6.43-6.88C837,1350.07,836.77,1333.91,836.77,1317.76Zm19-.8c0,12.2.1,24.41-.07,36.61-.05,4.17,1,6.26,5.69,6.15,13.05-.29,26.13.28,39.15-.47,15.6-.9,26.94-10,31.07-23.68a63.94,63.94,0,0,0,1.62-28.66c-3.23-20.4-15.57-30.75-36.18-31-11.35-.14-22.72.22-34.05-.17-5.57-.2-7.52,1.55-7.34,7.19C856,1294.25,855.79,1305.61,855.79,1317Z"/><path class="cls-1" d="M1265,1558.82c-7.37,0-14.74-.23-22.09.08-4.94.21-6.4-1.77-6.24-6.46.28-8.2.23-16.43,0-24.64-.11-4.26,1.2-6.15,5.76-6.09,14.73.22,29.48-.32,44.18.3,13.3.57,20,6.71,20.33,17,.43,12.3-5.4,18.62-18.16,19.71-.57,0-1.14,0-1.7,0H1265Zm3.32-6.27v-.18c6.51,0,13,.22,19.52-.06,9.35-.39,13.41-4.1,13.49-11.7s-4-11.85-13.13-12.15c-13.57-.45-27.16-.22-40.74-.34-2.83,0-4.49.37-5,4-2.5,19.07-1.43,20.47,17.33,20.47Z"/><path class="cls-1" d="M978.29,1606.4c-5.41-.58-15.07,3.33-20-1.43-5.39-5.19-1.7-15.07-1.85-22.88-.33-17.55.11-35.11-.21-52.66-.11-6,1.94-8,7.84-7.73,13.54.69,27.15-1,40.65,1.34,15,2.61,24.12,11.33,28,26a64.74,64.74,0,0,1,1.07,26.12c-2.87,19.23-15.5,30.1-35.46,31.18C992.34,1606.67,986.38,1606.4,978.29,1606.4Zm-15.4-42.76c0,9.65.33,19.31-.13,28.94-.27,5.68.9,8.18,7.24,7.71,7.9-.59,15.89-.07,23.83-.16,23-.27,32.44-9,34.34-31.94a62.17,62.17,0,0,0-.56-12.7c-2-16.78-11.53-26-28.49-27-10.18-.6-20.43-.1-30.64-.46-4.5-.16-5.85,1.29-5.7,5.79C963.11,1543.76,962.89,1553.7,962.89,1563.64Z"/><path class="cls-1" d="M1594.23,1276c8.2,0,16.42-.29,24.6.07,10.12.44,16.16,6.78,16.64,16.72s-5.56,18.26-15.54,18.71c-16.94.78-33.92.37-50.89.57-3.81,0-4.82-1.86-4.78-5.26.1-8.48.22-17,0-25.45-.15-4.8,2.25-5.61,6.26-5.53,7.92.17,15.84,0,23.75,0Zm1,29.92v-.22c6.8,0,13.61.26,20.39-.06,9.57-.45,13.4-4,13.47-11.72s-3.83-11.66-13.17-12.17c-9-.49-18.12-.22-27.19-.23-18.67,0-18.67,0-17.9,18.88a4.71,4.71,0,0,1,0,.84c-.6,3.87,1.34,4.83,4.85,4.74C1582.21,1305.74,1588.73,1305.87,1595.25,1305.87Z"/><path class="cls-1" d="M1191.46,1332.28c7.82-16.8,15.29-32.87,23.73-51,6.8,14.93,12.89,28.1,18.8,41.36,4.83,10.84,4.72,11-7.2,10.84C1215.27,1333.29,1203.66,1334.53,1191.46,1332.28Zm37.72-5.38-14.07-30.77L1201,1326.9Z"/><path class="cls-1" d="M767.11,1332.62c-14.56,0-28.08,0-41.6,0-2.73,0-5.55-.1-3.66-4.19,6.95-15.09,13.91-30.18,21.73-47.14C751.89,1299.42,759.34,1315.68,767.11,1332.62Zm-37.62-5.91h27.94l-13.86-30.59Z"/><path class="cls-1" d="M855.79,1317c0-11.35.24-22.71-.11-34-.18-5.64,1.77-7.39,7.34-7.19,11.33.39,22.7,0,34.05.17,20.61.27,32.95,10.62,36.18,31a63.94,63.94,0,0,1-1.62,28.66c-4.13,13.68-15.47,22.78-31.07,23.68-13,.75-26.1.18-39.15.47-4.69.11-5.74-2-5.69-6.15C855.89,1341.37,855.79,1329.16,855.79,1317Zm6.62-.09c0,10.48.11,21-.06,31.45-.05,3.36.44,5.35,4.47,5.22,11.89-.38,23.82,0,35.67-.89,12.4-.91,20.17-8.34,23.38-20.17a55.73,55.73,0,0,0-.14-30.23c-3.16-11.06-10.42-17.93-22-19.77-12.4-2-24.9-.59-37.34-1-4.5-.16-4,2.76-4,5.66C862.44,1297,862.41,1307,862.41,1316.87Z"/></svg>