<svg id="Layer_1" data-name="Layer 1" xmlns="http://www.w3.org/2000/svg" viewBox="0 0 7476.5 1711.89"><defs><style>.cls-1{fill:#242021;}</style></defs><path class="cls-1" d="M1057.91,720.05q0-343.72.37-687.46c0-17.09-3.93-22.65-21.64-21.86-34.28,1.53-68.71,1.43-103,.12-16.66-.63-20.9,4.18-20.75,20.8.86,93.19,0,186.4.85,279.6.16,16.27-4.55,19.78-19.87,19.33-37.82-1.12-75.72-1-113.55-.05-14.07.34-19.78-2.52-18.89-18,1.41-24.45.48-49,.36-73.56q-.57-112.38-1.29-224.75c-3.47-5.28-8.86-3-13.38-3-37.14-.18-74.32,1-111.4-.54-17.7-.71-20.37,6-20.31,21.49.5,147.11.29,294.23.29,441.34,0,105.08.28,210.16-.27,315.24-.08,14.34,3.23,19.38,18.45,18.91,37.1-1.16,74.27-.15,111.4-.75,5.34-.08,14.9,5.81,15.9-6.5.21-104.4,1.13-208.81,0-313.19-.22-21.17,6-25.37,25.55-24.46,35,1.65,70.12,1.47,105.11.06,17.34-.71,22.07,3.87,21.91,21.63-1,100.2.2,200.42-1,300.62-.24,19.67,5.88,23.19,23.5,22.52,34.3-1.3,68.7-1,103,0,14,.39,19.94-2.57,19-18.09C1056.86,766.36,1057.91,743.18,1057.91,720.05Z"/><path class="cls-1" d="M3447.49,735.06c46.41,65.26,113.74,84.2,189.64,83.16,122.64-1.66,201.26-71.66,216.42-193.31,8.87-71.2,1.5-142.75,3.34-184,0-93.17.14-156.2-.15-219.23,0-9.75-1.95-19.5-3.19-29.22-12.44-97.64-67.91-164.12-154.91-185.17-33.71-8.15-68-8.62-102.39-5.64-88.3,7.66-151.78,58.54-178.36,142.69-8.27,26.16-13.88,53.08-14,80.41-.57,122.57-1.25,245.15.21,367.7C3404.7,643.48,3417.29,692.61,3447.49,735.06Zm100-479c.06-28,.94-56.11,11.07-82.8,11.81-31.13,33.71-45.09,70.47-45.43,37.83-.34,60.69,13.61,72.84,45.11,10.54,27.32,11.14,56.16,11.37,84.85.41,51.83.11,103.65.11,166.21-1.47,52.27,2.58,115.33-2.26,178.28a201.37,201.37,0,0,1-4.07,26.94c-9.52,44.13-32.31,63.25-75.42,63.68-44.3.45-67.9-18.64-78-63.3-5-22-6.13-44.35-6.14-66.79Q3547.36,409.39,3547.49,256Z"/><path class="cls-1" d="M6032.46,729c19.64,46,51.78,78.77,102.68,86.69,55.07,8.58,106-2,148.13-41.65,3.15-3,5.21-8.79,12.34-6.1,1.46,7.86,3,15.91,4.45,23.95-1.13,9.56.16,15.86,12.71,15.57,32.23-.72,64.49-.21,96.73-.3,4.61,0,10.57,1.32,9.71-6.78.26-7.67.75-15.34.75-23q.06-369.11,0-738.23c0-7-.49-13.93-.75-20.9.48-4-.65-7-5.2-7-40.6-.08-81.21.06-121.82-.23-9.28-.06-9.93,5.38-9.88,12.24q.57,94.46,1.09,188.91c-9.06.87-13.34-6.89-19.31-11.17-80.49-57.65-194-26-232.18,65a258.84,258.84,0,0,0-20.28,98.13q-1.3,132.38,0,264.78A260.51,260.51,0,0,0,6032.46,729Zm116.22-336.9c0-18.21,1-36.37,6.14-54,7.92-27.1,23.67-40.79,50.09-43.5,30.92-3.18,64.32,10.88,74.81,32.5,2.58,5.31,2.51,12.21,2.54,18.38.18,50.4.1,100.8.1,151.2,0,49.7-.56,99.41.33,149.1.27,15-5.18,25.47-15.9,34.46-22.61,18.95-48.55,24.84-76.6,16.79-26.94-7.74-34.07-31.35-38.65-55.17-2.5-13-2.76-26.46-2.81-39.72Q6148.37,497.11,6148.68,392.1Z"/><path class="cls-1" d="M4737.33,807.42c32.92-.64,65.9-1.21,98.78.18,17.45.73,22-4.57,21.93-21.94-.72-143.6-.46-287.2-.36-430.8,0-8.31-.86-17.41,2.09-24.78,8.35-20.89,46-37.19,76.37-34.56,24.62,2.13,40.83,16.53,48,42.93,5.54,20.49,5.92,41.49,5.91,62.54-.05,128.9.27,257.79-.4,386.68-.08,15.64,3.64,20.51,19.63,19.92,34.29-1.25,68.67-.67,103-.21,10.85.14,16.06-1.68,16-14.66-.62-142.2,0-284.4-1.08-426.59-.32-42.2-8.25-83.62-28.71-121.48-24.79-45.87-63.54-69.42-115.62-71-47.38-1.42-89.83,10.58-127,51.56V198.3c0-56-.7-112.09.48-168.11.35-16.38-4.67-19.9-19.92-19.38-33.6,1.14-67.28,1.06-100.88.13-13.35-.37-16.18,4.09-16.16,16.67q.53,381.42-.12,762.84C4719.21,805.46,4724.63,807.66,4737.33,807.42Z"/><path class="cls-1" d="M3115.75,741c18.21-33.76,26.76-70.33,27-108.76,5.35-36.76,2.63-73.75,2.38-110.61-.38-54.3,3.37-108.69-2.45-162.91.28-35.57-7.55-69.59-22.26-101.64-26-56.63-70.51-84.65-133.35-83.57-49.16.84-90.91,18-125.4,57.25-1.25-10.83-3-18.29-2.75-25.67.58-15.9-5.57-21.39-22-20.4a639.29,639.29,0,0,1-77.69,0c-17.28-1.08-21.72,3.55-21.66,21.27.73,200.24.42,400.49.5,600.73,0,39.89.5,79.77.77,119.66-1.87,11.62,7.06,7.89,12.18,7.93,36.73.27,73.48-.44,110.19.42,14.28.34,14.25-6.58,12.05-16.61l0-117.74V792a14.69,14.69,0,0,1-3,.26,14.69,14.69,0,0,0,3-.26c0-1.4,0-2.8,0-4.2.31-12.13,5.84-10.4,12.81-4.83C2953.51,843,3072.25,821.63,3115.75,741Zm-238.45-73.9c-4.3-6.74-3.09-13.43-3.12-20.16-.2-49.74-.11-99.48-.11-149.22,0-47.64,1.25-95.33-.61-142.9-.83-21.44,8.26-34.28,24.06-45.12,49.19-33.74,97.93-13.23,106.82,45.17a257.88,257.88,0,0,1,3,37.63q.41,105.09-.08,210.17a251.77,251.77,0,0,1-4.16,43.83c-5.78,31.46-21.68,48.82-46.42,52.8C2925,704.44,2892.42,690.8,2877.3,667.14Z"/><path class="cls-1" d="M2650.54,497.86c0-48.3,2.52-96.76-.56-144.86-5.4-84.37-54.4-146.93-128.24-169.45C2487,173,2451.42,170.91,2415.68,175c-92.61,10.6-158.33,69.84-169,162.16-11.92,103-9.39,207.18-1.61,310.3,6.3,83.53,54,140.72,137.5,163.43,29.4,8,59.49,8.51,89.68,6.43,91.56-6.31,157.22-63.87,174.57-153.9C2657.37,608.6,2649.62,553,2650.54,497.86Zm-135,108.61a238.48,238.48,0,0,1-3.86,41.74c-7,38.23-26.63,55.73-61.52,56.44-37.39.75-56.44-14.93-66.21-53.63-4-15.85-4.29-31.91-4.42-48-.29-35.73-.09-71.47-.09-107.21h.66c0-41.33-.41-82.68.25-124a157.92,157.92,0,0,1,5.37-37.28c8.07-30.72,28-45.94,59.11-46.74,32.87-.85,53.25,13.26,63.4,44.06,6,18.17,7.49,37,7.49,56C2515.67,460.72,2515.87,533.59,2515.5,606.47Z"/><path class="cls-1" d="M5326.3,815.44c47,5.06,90.44-6.1,127.41-37.22,5.14-4.32,8.25-10.72,16.18-1.71,33.44,38,76.49,41.08,123.23,34,22.13-3.36,29.45-12.64,26.9-34.23-1.88-15.89-.5-32.18-.3-48.28.09-7-.75-10.88-9.8-12-28.46-3.59-35.4-12-35.54-40.9-.26-55.32-.08-110.65-.09-166,0-46.92-.17-93.84.05-140.76.13-26.07-2.38-51.8-9.27-76.91-15.63-56.92-49.47-97.6-108.38-111.35-118.37-27.65-202.93,29.56-241,140.55-3.46,10.11,2,12,8.72,14.88,21.84,9.43,43.93,18.37,65.24,28.88,11.08,5.47,15.45,3.55,19.32-8,6.5-19.31,15.62-37.49,31.13-51.55,18.12-16.42,39-21.19,62.33-13.91,22.83,7.1,29.61,25.74,33,46.68,5,30.64,1.7,61.53,2.9,92.28.36,9-2.79,12.37-12,12.22-16.09-.28-32.24,0-48.3,1.16-94.21,6.72-158.28,59.37-177.1,145.61a260.61,260.61,0,0,0-4.78,75.23C5202.53,749.7,5251.35,807.38,5326.3,815.44Zm5-222.36c8.6-33.45,33.11-49.3,77.11-51.52,29.85-1.51,29.84-1.51,29.79,27.75q0,22,0,44.05c0,16.09.05,32.17,0,48.25-.11,26.52-20,46.76-50.07,51-30.48,4.34-47.1-5.43-55.33-34.57C5324.9,650.07,5324.05,621.37,5331.33,593.08Z"/><path class="cls-1" d="M5080.63,1258.83c-2.59-7.64-12.21-3.12-18.86-2.42-39.22,4.1-76.06,15.46-110.09,39-.78-11.59,3.32-18.66,7.88-25.7,3.79-5.85,3.52-12-.27-17.78-4.64-7-11.89-7.05-18.85-5.38-10.54,2.54-19,7.52-23.43,18.75-6.13,15.59-14.29,30.39-20.36,46-6.16,15.84-15.85,27-31.63,34.21-36.26,16.59-71.62,35.19-108.08,51.31-22.33,9.87-45.85,17.21-69.19,24.56-10.59,3.33-21.78,3.47-21.74-13,.05-21.37,19.25-42.7,40.36-44.59,9.94-.89,19.62-3,27.87-8.55,33.25-22.18,65.82-45.25,92.35-75.66,9.74-11.17,6.87-26.33-7.35-31.88-11.05-4.32-23.44-6.89-34.8-1.42-18.26,8.78-37.9,16.35-53.36,28.88-19.05,15.44-40.1,21.11-63,25.33-29.58,5.45-58.86,12.57-88.27,19-24.87,5.41-49.24,13.58-76.93,15,6.29-11.72,11.87-21.34,16.73-31.31,13.72-28.15,10.63-55.5-9.81-78.28-18.88-21-45.83-28.53-73.08-33.55-28-5.17-56.58-4.83-85.38-7.35,21.54-15.33,43.48-28.49,65.31-41.83,34.21-20.9,66.81-44.17,93.62-74.09,31-34.58,19.79-68.87-25.14-79.76-27.72-6.72-55.89-4.72-83.61-.4-129.47,20.18-249.08,68.84-364.94,128a83.8,83.8,0,0,0-15.47,10.72c-12,10.08-10.37,20.55.52,30.14,14.24,12.56,29.06,10.39,44.63,1.74,36.71-20.39,73.52-40.63,113.4-54.44,4.77-.84,7.39-.2,3.43,5-2.49,7.24-4,15-7.62,21.62-40.69,73.54-74.51,150.47-111.33,225.91-11.16,22.86-20.32,47.16-18.81,80,7-11.28,10.54-17.09,14.15-22.88,32.87-52.78,58.57-109.65,93.19-161.49,28.08-42,47.55-88.7,68.49-134.52,5.11-11.19,7.54-21.3-5.26-31,82.86-32.58,163.87-58,254.39-59.08-5.71,8.76-8.62,14.31-12.57,19a122.54,122.54,0,0,1-14.94,14.67c-72.36,60.66-154.17,106.47-237,150.62-7.61,4.06-21.88,4.31-20.31,14.82,1.71,11.45,14.81,15.73,26,18.24,10.61,2.39,21.18-.23,31-3.72,20.63-7.32,42.05-10.86,63.4-14.55,48.87-8.45,97.73-8.47,146.08,3.54,15.83,3.93,31.48,9,30.22,31-1.85,32.14-48.85,98.44-79.92,107.07-23,6.38-45.16,14.72-67.88,21.59-168.34,50.94-329,119-476.86,215.19-30.61,19.9-59.55,42.25-84,69.53-16.14,18.06-12.32,31.85,8.69,34.35,32.63,3.88,65.2,6.43,97-7.35,28.85-12.51,59-22.1,87.88-34.47,120.36-51.52,240.5-103.17,348.37-179.44,37.68-26.64,73.86-56.5,113.77-78.74,68.15-38,144.53-55.83,220.08-74.21,4-1,9.08-1.85,11.55,2s-.26,8-3.12,11.29c-11.65,13.5-19.09,29.4-24.39,46.1-11.16,35.14,5.23,57,42,55.47,25.44-1,49.63-8.38,72.51-19.52,38.07-18.54,76-37.32,115.63-56.8-2.73,19.11-12.88,33.81-18.14,50.21-2.82,8.81-3.71,17.14,4.33,22.73,8.6,6,17.86,2.91,25.14-3.2a61.67,61.67,0,0,0,20.22-31.35c13.07-48.49,47.9-77.18,89.45-100.37,26.39-14.74,55-24.38,82.05-37.49C5072.84,1270.59,5083.74,1268,5080.63,1258.83ZM4765,1305.42c-19,18.27-37.19,34-60.19,43.23C4719.74,1328.49,4734.45,1308,4765,1305.42Zm-901.22,355.43c-3.26.81-6.74,3.82-9.46-.93l7.06-2.11c34.61-29.78,74.87-51.11,113.66-74.36,98-58.75,202.8-103,310-141.83,8.13-2.94,16.4-7.65,31-4.46C4170.51,1528.58,4024.89,1610.14,3863.79,1660.85Z"/><path class="cls-1" d="M6779.84,475c-28.12-21-59-37.58-88.11-57-19.35-12.9-37.92-26.75-48.59-48.25-16.65-33.56-5-74.42,23.75-84.61a70.43,70.43,0,0,1,81.72,26.72,101.19,101.19,0,0,1,15.33,34.31c2.24,9.7,6.68,10.41,14.94,7.23,22.85-8.78,45.89-17.06,68.92-25.38,7-2.52,8.91-5.62,7.06-13.91C6827.48,191.49,6689.25,133.25,6582,199.54c-92.79,57.35-105.33,202-24.46,282.26,21.53,21.38,46.91,37.58,72.59,53.33,23.26,14.27,47.08,27.71,67.7,45.88,24.22,21.34,36,47.5,32.43,80.2-4.64,43-38.67,63.25-78.54,45.9a82.26,82.26,0,0,1-38.62-34.41,263.1,263.1,0,0,1-17.29-35.78c-3.05-7.71-5.91-9.23-13.62-5.69-24.14,11.09-48.59,21.54-73.06,31.92-6.91,2.93-9.11,6-6.65,14.12,25.16,83.17,77.94,141.21,177.08,140.91,104.37.62,179.3-72.66,181.49-176.79C6862.51,571.79,6835.62,516.63,6779.84,475Z"/><path class="cls-1" d="M6286.65,1217.41c-2.34-6.13-9.53-4.1-15-3.39-36.35,4.68-71.72,12.39-103.25,32.46-3.81,2.43-7.54,7.18-13.36,2,2.85-6,5.25-12.46,8.83-18.2,4.62-7.4,5.51-14.51-.24-21.21-5.95-6.93-13.72-5.42-21.36-3.11-10.09,3-16.56,9.59-20.62,19.32-7,16.78-13.92,33.65-22.15,49.84-7.07,13.94-12.61,28.65-29.82,35.65-34.3,14-67.6,30.37-101.57,45.18-9.78,4.27-23.17,16.33-29.48,8.74-7.41-8.91,5.79-21,11.46-30.82,13.21-22.92,28.08-44.9,40.8-68.08,5.44-9.91,7.27-22.46-6.32-28.88-12.26-5.79-21.91.39-28.57,10.53-12.67,19.29-24.67,39-36.95,58.56-3.23,5.15-4.89,11.48-12.91,12-32.12,2.18-57.3,20.89-84.31,35.47-18.36,9.91-36.37,21.27-60.08,25.28,10.25-32.32,25.65-58.75,41.12-85.29,5.44-9.33,16.84-18.53,6.81-31.94-10.58-14.15-24.38-11.56-38.09-7.53-23.18,6.81-43.19,19.6-61.68,34.85q-38.26,31.55-76.37,63.28c-1.4-6.46.25-10.84,1.9-15.22,18.85-49.94,46.59-95.41,71.59-142.26,27.3-51.14,54.22-102.5,82-153.4,5.41-9.92,3.79-18.56-3.2-24.23-6.79-5.52-16.53-3.26-23.24,2.75-7.77,7-16,14.14-21.42,22.82-19.36,30.76-38.53,61.71-56.14,93.48-31.12,56.18-61.09,113-91.39,169.63-2.81,5.26-6.15,8.16-12.24,9.86-19.52,5.47-38.73,12.06-58.09,18.11-5.86,1.83-11.36,4.29-17.74-.21-15.9-11.25-34.24-10.89-52.52-9-16.69,1.69-33.33,4-52.18,6.26,29.47-31.44,67.62-43.5,100.9-63.42,6.83-4.09,17.85-6.63,14.41-17.57-3.49-11.1-14.54-9.52-23.26-8.18a97,97,0,0,0-26,7.66c-29.35,13.74-55.7,32.09-79.44,54.17-9.73,9-25.44,17.12-25.62,29.38-.38,26.32-19.33,26.27-35.42,30.5-39.21,10.33-78.05,22.44-118.45,27.65-9.44,1.22-21.32,4.56-26.6-5.46-4.63-8.78.33-19,5.79-27.53a154.84,154.84,0,0,1,35.33-38.49c18.12-14.22,35.61-29.25,54-43.07,9.08-6.81,10.39-12.52,4.39-22.47-11.31-18.8-24.74-22.08-48-9.14-35.67,19.87-65.94,47.26-98.67,71.21-1.56.77-4.09,2.56-4.51,2.16-2.43-2.35-1-4.22,1.51-5.55,31.59-62.11,62.51-124.56,98.81-184.15,24-39.37,47.82-78.84,71-118.7,11.39-19.6,4.09-42.07-15.18-51.65-14.17-7-32.92-1.42-39,13.36-32,77.58-72.93,150.78-109.77,226-20.23,41.3-38.86,83.34-60.44,124-22.91,43.2-43.26,87.75-64.72,131.71-3.59,7.34-5.19,14.92,1,21.46,6.48,6.85,14.19,3.72,21.52,1.21,14-4.82,19.47-17,25.23-29.12,8.93-18.8,13.2-40.62,29.5-54.88,25.65-22.43,52.56-43.42,78.93-65,1.75-.58,4.5-2.14,5.05-1.57,2.42,2.49.71,4.77-1.44,6.67-12.35,19-20.47,39.36-23,62.07-4.07,36.46,5.62,46.49,40.89,35,49.08-16,100-26.3,147.32-47.88,39.83-18.19,82.37-24.66,125.59-27.82,1.92-.1,4.7-1,5.6-.14,2,2-.46,3-2.09,3.93-19.41,9.59-39,18.87-58.21,28.83-31.22,16.19-61.18,34.42-84.18,61.64-9.23,10.92-16.59,24.54-6.91,38.3,8.69,12.34,22.49,9.15,34.71,5.18,57.5-18.7,106.8-52.45,142.89-99,21.51-27.73,47.87-34,78.54-46.59-11.48,30.89-27.4,56-30.58,85.67-.77,7.13-3.68,14.48,3.49,19,8.14,5.17,12.38-3.23,17.49-7.18,54.16-41.91,105.68-87.26,163.05-125,7.71-5.07,14.77-12,27.08-13.79-9.12,18.66-17,34.74-24.84,50.86-7.58,15.65-13.11,32.58-.8,47.23,12.56,15,29.87,11.44,46.74,6.14,25.27-7.94,45-25.06,66.94-38.62,17.77-11,35.12-22.84,58.69-29.23-4.86,10.17-8.36,17-11.38,24a210.21,210.21,0,0,0-8.3,21.51c-5.72,18.68-.13,27.79,19,31.08,17.58,3,32.86-3,47.62-12.07,39.28-24.06,75.33-53.51,118.49-71.12l2.54-2.73c.09,1.78.17,3.55.27,5.32-5.54,14.33-11.18,28.62-16.6,43-3.63,9.65-6,20.23,5.14,25.86,9.58,4.86,18.95.87,26.47-6.85a75,75,0,0,0,19.38-34.41c7.69-31.12,28.13-52.69,51.89-71.76,22.54-18.1,48.59-30.29,74.85-41.94,16-7.07,32.12-13.68,47.84-21.24C6281.75,1227,6289.1,1223.83,6286.65,1217.41ZM5456.5,1393.76c-24.24,30.8-78.21,65.26-109.83,69.48,29.5-34.7,66.89-55.79,107.28-72.5,1.73-.21,4.54-1.14,5-.47C5460.46,1392.49,5458.26,1393.19,5456.5,1393.76Z"/><path class="cls-1" d="M4281.93,657.62c15.94,96.37,83.95,156.81,178.73,160.57,105.37,4.17,163.64-55.73,191.26-148.41,3-10.08.9-15-10.1-17.8-18.26-4.68-36-11.25-54-17.1-32.68-10.65-32.66-10.66-44.1,19.83-1.47,3.93-2.9,7.89-4.73,11.66-13.61,28.17-33.48,39.69-63.95,37.19-27.7-2.27-45.73-18.46-53.87-48-4.89-17.76-5.5-35.91-5.52-54.13q-.1-104,0-208c0-19.61.42-39.22,6.22-58.24,8.36-27.34,25.69-42,52.3-44.17,31.26-2.56,50.13,7.19,63.28,34.2,4.85,10,8,20.88,10.93,31.61,2.26,8.19,4.72,11.59,14.34,8.13,26.31-9.47,53-17.87,79.71-26.23,7.14-2.24,10.53-4.4,8.15-13.07-18.6-67.69-52.7-122.19-123.91-144.15-114.26-35.24-223.13,31.39-244.08,149-9.79,54.93-2.33,110.44-5.36,165.62C4280.24,550,4273.07,604,4281.93,657.62Z"/><path class="cls-1" d="M2179.91,720.25c-.95-15.76-4.13-20.9-22-16.7-47.1,11.07-75.9-11.14-76.39-59.21-1-103-.29-206-.72-309-.05-10.79,2.77-14.69,14-14.36,25.21.75,50.47,0,75.69.45,9.69.17,15.49-.43,15.05-13.11-1-28.7-.76-57.47.1-86.18.37-12.24-5.3-13.49-15.19-13.3-25.23.48-50.49-.4-75.7.38-11.35.36-14.06-3.78-13.89-14.36.55-34.33-.19-68.68.45-103,.21-11.57-2.69-16.19-15.17-15.61-21.68,1-43.49,1-65.16,0-12.22-.6-17,3.54-19.84,15.29-8.06,33.33-18,66.2-26.2,99.49-3,12-8,16.6-21,17.27-49.28,2.55-49.32,3.14-49.22,53,0,16.08-4.66,35,2.19,47.47,7.07,12.88,28.24,12.3,43.46,16.33,12.51,3.3,14,10,13.9,21.07-.49,51.86-.22,103.72-.22,166.45,2.13,52.11-3.93,115.27,4,178.14,8.3,66.16,39.75,107.3,94.18,120.25,45.79,10.9,90.21,5.35,133.29-14.06,11.28-5.08,13.95-11.4,12-22.6C2184.27,756.39,2181,738.36,2179.91,720.25Z"/><path class="cls-1" d="M1817.16,409.64c0-126.72-.23-253.43.32-380.15C1817.54,15,1814,10.24,1799,10.74c-34.28,1.13-68.63,1-102.92.07-13.48-.38-16.27,4.28-16.26,16.76q.5,382.25,0,764.5c0,12.09,3.46,15.54,15.26,15.32,34.3-.63,68.66-1,102.93.24,16.06.61,19.59-4.37,19.5-19.94C1816.86,661.68,1817.16,535.66,1817.16,409.64Z"/><path class="cls-1" d="M1539.8,10.78c-32.87,1.16-65.85,1.09-98.73,0-15.15-.51-18.41,4.74-18.22,19,.8,60.21.35,120.43.35,180.64,0,191.85.25,383.7-.41,575.55-.06,17.71,5.06,22.36,22.14,21.63,31.46-1.34,63.09-1.56,94.52.09,18.42,1,21.42-5.77,21.33-22.41-.68-125.33-.37-250.66-.37-376,0-126-.39-252.07.46-378.09C1561,14,1555.81,10.22,1539.8,10.78Z"/><path class="cls-1" d="M3946.36,791.86c0,11.85,3.1,15.81,15.15,15.57,34.32-.68,68.7-1.13,103,.14,16.78.63,20.53-4.81,20.41-21-.76-108.57-.53-217.15-.3-325.72a223.21,223.21,0,0,1,21.3-95.59c19.39-41.12,56.37-58.58,100.62-48.29,7.92,1.84,15.46,5.27,24.25,8.34,3.56-41.79,6.59-82.22,10.7-122.55,1.18-11.57-3.84-16.18-13.34-20-47-18.7-99.17-3.26-130.13,40.12-10.37,14.53-18.14,30.91-29.36,50.38-1.7-28.23-3.64-51.88-4.29-75.57-.28-10.06-3.61-13-13.5-12.79-29.42.6-58.88.86-88.28,0-13-.41-16.28,3.59-16.25,16.5Q3947,496.61,3946.36,791.86Z"/><path class="cls-1" d="M5679.32,792c0,12,3.33,15.65,15.29,15.42,35-.66,70.12-1,105.13.2,15.27.51,18.24-4.78,18.16-19-.59-104.41.05-208.83-.51-313.24-.19-36.25,5.74-71,18.7-104.72,1.79-4.66,7.61-9.67-.29-14.24,0,0,.57-.56.56-.57,10.05,6.6,9.83-4.8,12.39-8.19,20.11-26.63,47.07-35,79.09-32.75,12.48.89,23.22,7.49,36.41,10.21,3-40.09,5.85-78.89,8.73-117.68.11-1.42.21-2.83.31-4.25,5.87-13.36-3.62-17-13.07-20.68-51.88-20.4-106.06.57-137.87,52.71-6.83,11.19-9.81,24.9-20.82,35.54-1.38-22.41-4.27-42.67-3.43-62.79.87-21.2-7.71-26.75-26.59-21.92h-75.74l-8.36-.09-4.25.46c-5.73,2-3.45,6.94-3.46,10.61Q5679.52,494.54,5679.32,792Zm124.73,7.52a5.47,5.47,0,0,0,1.23-.24A5.59,5.59,0,0,1,5804.05,799.53Zm4.58-5.72a8.27,8.27,0,0,1-1.15,3.87,8.26,8.26,0,0,0,1.14-3.85c-.19-3.14-2.15-4.92-4.64-4.26C5806.47,788.91,5808.43,790.68,5808.63,793.81ZM5789.38,290c.44-1,1.34-2.2,1.37-3,0,.85-.94,2-1.37,3.06Zm1.37-3.08a1,1,0,0,0-.06-.34A1,1,0,0,1,5790.75,286.94Z"/><path class="cls-1" d="M1307.07,415.43c0-63-.09-126,.14-189,0-9.89.54-17.3-13.67-16.86-39.85,1.25-79.74,1.05-119.61,1.42-3.85-.45-4.43,1.77-4,4.84q-.36,288.73-.93,577.46c0,11.15,3.39,14.36,14.27,14.17,33.6-.6,67.26-1.26,100.81.2,18,.77,23.66-3.16,23.5-22.61C1306.55,661.85,1307.07,538.64,1307.07,415.43Z"/><path class="cls-1" d="M3813.65,1370.72c1.89-2.6,4.31-6.75,3.43-9-1.84-4.78-7.11-3.57-11-2.48s-7.66,3.16-11.29,5.16c-46,25.32-93,48.65-141.1,69.43a602.76,602.76,0,0,1-75,26.53c-17.7,5-24.37-2.47-19.47-20,5.46-19.5,14.24-36.8,38.77-37.53,12.14-.36,23.12-4.71,33.17-11.66,29.94-20.71,59.66-41.6,84-69.13,5.65-6.39,12.37-11.33,8.24-21.51-3.85-9.46-10.71-14.58-20.34-16a61.58,61.58,0,0,0-34.58,4.25c-40.87,17.46-76.43,42.8-102.75,77.68-18,23.82-39.23,39.44-65.35,51.65-27.75,13-52.47,32.26-82.74,40.17l-4.83,1.08c.11-1.69.23-3.38.34-5.07,9.34-32.72,28.49-60.53,44.63-89.88,9.81-17.85.89-31.52-19.68-31.88a69.06,69.06,0,0,0-30.5,6.81,234.78,234.78,0,0,0-53,33.73c-23.8,20.11-47.79,40-72.1,60.31-3.28-6.92.17-11,1.85-15.42,19.12-49.8,46.51-95.44,71.63-142.24,27.42-51.08,54-102.61,81.84-153.46,5.56-10.15,3.6-18.45-2.93-24.34-6.88-6.19-16.2-2.62-23.28,2.59-10.82,8-19.13,18.36-26.06,29.84q-83.45,138.21-156,282.46c-16.62,33-34.1,65.92-39.24,103.49-.87,6.33-.32,11.24,4.74,14.77,5.21,3.65,9.14-.34,13-3.36,10.89-8.61,21.88-17.09,32.58-25.92,49.11-40.53,98.15-81.14,153.21-113.65,1.72-3.43,4.28-4.14,7.62-2.36l-3.24,5.88c-8.79,19.69-19,38.89-26,59.18-9.33,26.9,10.12,47.16,38.18,42.11,23.49-4.24,42.35-17.51,61.83-29.89,15.75-10,29.74-23.18,48.53-28l2.1-2.76c2,1.67,1.51,3.34,0,5-4.54,38.37,13.93,56.62,52.31,51.08,11-1.59,22.36-3.4,32.69-7.35,68.77-26.31,133.82-60.06,195.79-99.75C3807.7,1378.81,3810.82,1374.63,3813.65,1370.72Zm-137.4-46.29c-23.63,24.8-47.71,49.38-81.79,66.81C3612.28,1362.35,3649.41,1331.27,3676.25,1324.43Z"/><path class="cls-1" d="M6700.1,1273.3c-23.53,6.71-47.05,13.48-70.43,20.67-6.12,1.88-11.58,4.58-17.82.34-20.94-14.23-44.19-10.4-67.16-8.09-8.84.89-17.56,4.19-27.62.93,10.4-16.16,24.78-27,41.47-33.78,16.34-6.6,31.19-15.66,46.41-24.1,7.8-4.32,22.13-6.87,16.39-19.85-4.89-11.05-17-8.74-27.7-6.47-26.9,5.7-47.78,22.46-70.32,36.45-30.9,19.16-50.27,52.57-85.55,66.56-27.93,11.07-54.41,25.75-82.15,37.33-21.23,8.86-43.3,15.84-65.27,22.76-11.76,3.71-21.16,1.43-20.57-14.21.8-21.23,18.5-40.73,39.1-43.3,9.73-1.22,19.61-2.8,28-8.29,34-22.34,66.85-46.16,93.92-76.94,9.09-10.34,6-24.94-7.17-30.8-10.3-4.59-22-7.26-32.76-2.85-65.75,27-117.06,70.52-148.56,135.1-8.61,17.65-16.27,37.41-1.65,55.45,15,18.51,36.46,14.25,56.71,12,2.74-.31,5.37-1.56,8.09-2.22,53.7-13.19,99.74-43.44,149-66.61,5.68-2.68,10.5-9.7,18.62-3.1,9.63,7.82,20.93,5.54,32.14,3.06,22.57-5,45.1-10.78,68.91-7.67-18.21,10.55-37,19.36-55.55,28.55-30.26,15-58.91,32.41-82.7,56.72-12.1,12.38-24.26,27.57-13.6,44.44,10.77,17,29.39,8.87,44.05,3.57,49.71-18,93.87-47.92,126.58-87.22,23.67-28.44,49.87-43.72,82.33-54.42,11.26-3.71,22.12-8.7,33-13.4,6.7-2.88,17.23-4.31,13.58-14.74C6718.23,1268.93,6708.39,1270.94,6700.1,1273.3Zm-310.86-45.87c-22.9,26.24-48,49.84-80.43,65C6331.23,1265.66,6354.62,1239.56,6389.24,1227.43Zm65.62,196.83c28.71-36,66.69-58,109.67-72.32C6535,1386.67,6497.94,1410.08,6454.86,1424.26Z"/><path class="cls-1" d="M3273.26,1120.12c7.95-9.92,12.76-20.85,5.72-32.76-7.26-12.3-19.18-17.88-35-18.34-12.69,3.32-29,4.59-33,22.23-3.64,16-10.88,30.15-18,44.52-55.64,112.85-113.81,224.48-163.54,340.17-17.37,40.42-35.28,80.62-48.26,122.82-4.53,14.73,3.24,21.72,14.38,25.33s20.31.2,23.2-13.42c1.42-6.74,4.45-13.26,7.53-19.5,55.65-112.78,106.75-227.8,166.6-338.48C3217.51,1207.22,3240.65,1160.77,3273.26,1120.12Z"/><path class="cls-1" d="M2986.46,1147.28c5.74-2.57,11.4-5.33,17.07-8,34-16.25,66.67-34.94,101.65-49.55,68.2-28.5,139.67-44.92,211.09-61.39,65.81-15.18,131-36.77,198.58-30.8,10.3,3.35,13.92-1.13,17-8.74,6.69-16.81,1.06-26.92-15.68-31.55-41-11.34-82.08-5.17-122.81.64-145.06,20.71-274.52,83.8-402.71,150a61.21,61.21,0,0,0-20.87,17.27c-4.46,5.86-3.72,12,.16,17.53C2973.94,1148.45,2979.73,1150.29,2986.46,1147.28Z"/><path class="cls-1" d="M1189.72,138.37c32.09,0,64.19-.39,96.27.29,11.46.24,14.07-4.23,13.85-14.68-.74-35.53-.73-71.08-1-106.62-9.36-12-21.74-4.28-32.83-5a280.14,280.14,0,0,0-57.83,0,57.73,57.73,0,0,0-25.89.13c-1.2.49-3.45,1-3.46,1.47q-.72,58.48-1.06,117C1177.71,139.37,1184.23,138.36,1189.72,138.37Z"/><path class="cls-1" d="M5991,1204.47c12.84,0,46.23-34.25,45.36-46.72-.89-12.91-9.45-17.32-20.4-11.9-18.61,9.21-29.74,25-33.53,45.49C5981.12,1198.42,5983.58,1203.77,5991,1204.47Z"/></svg>