<svg id="Layer_1" data-name="Layer 1" xmlns="http://www.w3.org/2000/svg" viewBox="0 0 1629.92 1667.17"><defs><style>.cls-1{fill:#a62b2a;}</style></defs><path class="cls-1" d="M1529.06,1622v1.82a17.2,17.2,0,0,1-2.46,8.93c-7.71,12.67-18.83,21.66-33.21,27.22,3.4-3.15,7-6.14,10.19-9.49,10.1-10.59,11-21.44.24-31.06A111.3,111.3,0,0,0,1475,1601c-36.75-16.25-76-23.64-115.37-30-113.76-18.28-228.52-25.17-343.47-30.14-154.21-6.67-308.47-8.37-462.82-7.36-85.7.57-171.47,1.09-257.13-1.23-49.93-1.35-99.8-7.58-149.52-13.24-13.13-1.49-25.75-7.39-38.53-11.93a10.6,10.6,0,0,1-6.86-7.92,23.56,23.56,0,0,1,.71-11.39,11.46,11.46,0,0,1,4.13-5.9c20.94-15.55,45.6-23,69.85-31.33,13.05-4.47,26.37-8.21,39.62-12.15a10.8,10.8,0,0,1,8.43.57c-12,3.78-24.19,7-35.91,11.45-15.36,5.84-30.41,12.49-45.44,19.16a47.62,47.62,0,0,0-11.44,7.66c-9.23,8-8.91,16.24,2.65,20.29,17.25,6.06,35.2,11.11,53.26,13.73,63.77,9.22,128.11,10.75,192.4,10.88,123.34.26,246.7-1.74,370-.15q164.67,2.1,329.24,10.37c84.85,4.39,169.55,12.83,254.15,21.32,49.09,5,97.9,13.41,145,29.28,9.3,3.15,18.29,7.41,27.2,11.66,9.42,4.5,17.15,11,22.16,20.07A15.17,15.17,0,0,1,1529.06,1622Z"/><path class="cls-1" d="M238.27,1301.37l20.56-17c8.65,4.71,11.43,12.09,11.21,21.27-.65,27.35-1.38,54.71-1.58,82.07,0,4.18,2.54,8.38,3.92,12.58,5.14-4.06,14.38-7.78,14.74-12.21,2-24.27,1.95-48.72,2.05-73.1,0-3.82-2.9-7.65-4.9-12.56,6.16-4.78,12.65-10.33,19.75-14.94,1.69-1.11,7.17.09,7.89,1.63,2.55,5.47,5.29,11.55,5.28,17.39-.05,28-1.13,56-1.37,84,0,3.47,2.71,7,4.17,10.46,3.94-3.39,11.1-6.6,11.3-10.19,1.47-26.31,1.65-52.7,1.9-79.07,0-3-2.08-5.93-3.42-9.49L350.53,1286c9.64,5.3,11.29,13.84,11.17,23-.31,24.39-1,48.78-1.19,73.17-.05,6.43,1.09,12.88,1.58,18.22-12.26,6.4-24.91,13.14-37.67,19.65-16.32,8.33-24,7.09-35.54-5.28-7.65,3-15.05,6.62-22.86,8.73-14.73,4-25.86-4.57-25.73-19.72.22-25.71,1.24-51.41,1.34-77.12C241.65,1319.05,239.68,1311.49,238.27,1301.37Z"/><path class="cls-1" d="M980.41,1333.11l21.76-11.86,6.71,9.08c8-2.37,16.52-7.69,23.51-6.16,7.24,1.58,13,9.81,21.12,16.52,6-3.36,14.35-7.68,22.34-12.61,15.16-9.36,28.51-4.81,34.23,12.06a56.56,56.56,0,0,1,1.78,7.67c3.57,18.72,2.35,21.47-13.76,30.82-4.27,2.48-8.36,5.5-12.93,7.19-6.33,2.34-7.31,7.28-5,11.75,1.71,3.31,6.74,7.22,10,7,6.23-.53,12.22-3.82,19.87-6.52,5.7,2.58,7.28,6.69.8,12.91-9.81,9.41-20.35,16.67-34.88,15.42-13.58-1.16-21.81-9.38-22-23-.21-17.11,0-34.23,0-51.66l-22.49,17.59c-1.9-6.59-2.65-12.61-5.41-17.49-1.71-3-6.86-6.2-9.8-5.67-2.62.48-5.9,5.87-6.14,9.29-1,14.78-1.36,29.64-1.27,44.47,0,4,2.4,8.07,4.2,13.63-4.11,2.57-9.88,6.87-16.29,9.79-2.28,1-7.92-.33-8.86-2.2-2.69-5.36-5.06-11.5-5.24-17.4-.52-16.8.35-33.63.19-50.44C982.72,1346.88,981.33,1340.55,980.41,1333.11Zm99.6,35.22c10.66-4.32,12.5-7.58,9.56-16.72-.64-2-3.17-3.37-4.83-5-1.58,1.75-4.27,3.36-4.51,5.28C1079.59,1357,1080,1362.24,1080,1368.33Z"/><path class="cls-1" d="M1116.82,1337c2.83-1.88,6.63-4.48,10.49-7,10.81-7,17.45-3.59,17.8,10.09.4,15.81-.21,31.65-.35,47.47,0,4.85,0,9.71,0,15,10.07-1.16,16.58-3.78,15.83-15.07-.65-9.84.52-19.79.11-29.66-.25-6.11-1.94-12.16-3.21-19.53,2.19-1.47,5.79-4.47,9.87-6.46,3.81-1.86,10.25-4.93,11.82-3.47,3.67,3.4,6.94,9.13,7.12,14,.61,16.79-.21,33.62-.4,50.44,0,2.91.27,5.83.45,9.24,7.86.59,12.24-1.68,12.27-10,.06-12.53.87-25.06.63-37.58-.09-4.82-2.19-9.6-3.79-16,2.51-1.63,7.09-4.63,11.7-7.58,8.8-5.64,14.55-3.82,17,6.5,1.43,5.94.87,12.41.91,18.64.1,15.75,0,31.5,0,46.87-12,6.83-24.19,13.79-36.41,20.64-13.08,7.33-18.54,6.13-28-6.47-6,2.93-11.91,6.3-18.2,8.86-13.24,5.39-23.29-1.36-23.21-15.58.1-18.79.77-37.58.68-56.38C1119.94,1348.79,1118.1,1343.6,1116.82,1337Z"/><path class="cls-1" d="M1393.65,1454.13l-14,6.82c7.8,7.55,14.91,5.73,20.44,2.16,13.82-8.93,12.12-23.51,12.35-38.4-5.67,2.31-10.34,4.55-15.22,6.13-15.63,5.05-25.28-2.08-25.1-18.38.2-18.14.62-36.29.6-54.43,0-4.33-1.38-8.65-2.38-14.5,2.52-1.48,6.39-3.82,10.32-6,12.13-6.82,18-3.31,18.07,11.06,0,16.82-.54,33.65-.38,50.47,0,3.85-3.23,10.78,4.39,10.68,6.25-.08,10.63-3.68,10.5-11.54-.23-12.85.88-25.72.84-38.57,0-5.37-1.56-10.74-2.67-17.8,4.34-2.54,10-6.47,16.18-9.08,2.06-.87,7.24.92,8.08,2.79,2.45,5.5,4.71,11.64,4.76,17.54.17,23.75-.49,47.5-.89,71.25-.53,32.32-17.45,51.33-49.74,55.32-6.77.84-14.3,1.73-20.44-.41-5-1.72-10.41-7.43-11.7-12.4-.87-3.36,4.17-9.89,8.18-12.57C1376.36,1447.28,1386.45,1447.88,1393.65,1454.13Z"/><path class="cls-1" d="M964.79,1361.15c12.52,8.55,9.81,20.78,9.35,32.57-.35,9.31-.07,18.65-.07,30.08-18.5,18.22-27.45,18.18-64.49-1.6V1313.52c7.73-4.54,17.6-11,28.09-16.29s23.5-.39,30.89,10.58C979.29,1323.73,978.16,1343.19,964.79,1361.15ZM935.27,1363c16.79-7,21.92-36,9.45-47.37-1.43-1.31-4.79-2.52-5.87-1.78a8.94,8.94,0,0,0-3.43,6.28C935.12,1334.16,935.27,1348.17,935.27,1363Zm14,52.51c0-12.09.38-22-.26-31.8-.16-2.43-3.22-5.81-5.64-6.59-2-.63-7,1.7-7.21,3.15-1.08,8.75-2.5,17.89-.9,26.35C935.87,1410.13,943.75,1412.26,949.23,1415.54Z"/><path class="cls-1" d="M706.66,1356.46c-6,4.4-11.07,9.17-17,12.11-7.1,3.52-12.55-.64-11.06-8.43.85-4.48,3.48-10.56,7-12.21a121.09,121.09,0,0,1,30.43-9.89c7.77-1.33,13.08,4.41,13.27,12.59.29,12.51-.6,25-.07,37.53.28,6.51,2.52,12.94,3.87,19.41l2.44-.58v-61.21c15.83-9.3,17.31-9.39,24.63-.06,2.76-1.5,5.59-3.06,8.43-4.59,12.48-6.69,23.17-.22,23,14.13-.16,13.85-.82,27.69-.87,41.53,0,4.29,1.24,8.57,2.07,13.89-1.91,1.31-4.84,3.39-7.83,5.35-9.1,6-15.1,3.11-15.7-8.37-.55-10.51.29-21.09.45-31.64.09-5.41,0-10.83,0-16.69-7.91.88-11.35,3.4-11.08,10.74.51,13.3.15,26.63.15,41.39-14,10-15.52,10.12-22.64-.82-3.89,1.93-7.92,3.86-11.88,5.93-4.49,2.34-8.65,4.65-13.37-.14-1.19-1.22-4.81-.72-7.08-.11-13.43,3.62-18.78,2.17-23.71-6.82-5.82-10.65-4-24.9,4.86-31.51,4.64-3.47,10.25-5.87,15.73-8C710.07,1366.51,711.14,1363.61,706.66,1356.46Zm-2.27,44.83,2.6-2V1385.2l-2.62-1.16c-1.69,3.31-4.4,6.53-4.71,10C699.45,1396.27,702.69,1398.85,704.39,1401.29Z"/><path class="cls-1" d="M395.58,1342.76c8-10.7,20.91-12.73,27.83-3.68,3-1.66,6-3.41,9.08-5.09,11.64-6.33,22.69.57,22.51,14.24-.19,14.49-.79,29-.9,43.47,0,3,1.29,6.06,2,9.09l2.81-.43v-54.12c6.91-4,14.65-8.93,22.84-13,7.46-3.7,15.88-2,18.95,5.1,3.75,8.66,4.35,18.77,5.61,28.35.22,1.64-2.73,4.23-4.76,5.54-5.25,3.38-11.28,5.71-16.05,9.63-2.51,2.06-5.08,7.8-4,9.66,1.62,2.7,6.47,4.08,10.16,4.66,2.16.34,4.64-2.51,7.14-2.94,3.3-.55,6.76-.13,11.77-.13-14.64,24.34-34.87,27.08-51.61,9.3-3.55,2.26-7.14,4.53-10.71,6.83-9.25,6-15.27,3.11-15.64-8.27-.41-12.5.32-25,.53-37.56.05-3.22,0-6.44,0-9.94-8.33-.76-11.51,2.28-11.1,10,.37,6.9-.37,13.84-.23,20.76.13,6.41.77,12.82,1.26,20.32-1.91,1-5,2.81-8.16,4.45-10.15,5.25-14.32,3-14.49-8.76-.24-15.48.55-31,.11-46.46-.11-3.78-3.29-7.48-5.06-11.22Zm89.31,8-3.09-.09c-.31,5.25-.62,10.49-1.06,17.87C489.42,1361.65,489.74,1358.58,484.89,1350.8Z"/><path class="cls-1" d="M592.38,1397c7.78.42,10.61-2.49,10.48-9.27-.27-14.31-.08-28.63-.08-44.78.16-.1,2.6-1.72,5.14-3.15,10.55-5.92,17.11-3.06,17.23,9.07.24,24.39,0,48.85-1.58,73.17-1,15.52-18.92,29.22-38.47,31.72-5.19.66-11,1.57-15.63-.11-4.23-1.54-9.18-6-10.14-10-.74-3.1,3.35-9,6.83-11.11,6.67-4.06,14.43-6.49,22.3.35l-10.13,5.37.89,3.71c4.85-.85,10.74-.25,14.36-2.83,9.45-6.74,8.82-17.45,8.77-28.61-4.46,1.7-8,3.22-11.66,4.42-12.56,4.13-20.15-1.1-20.2-14.18,0-13.85.44-27.71.38-41.56,0-4.37-1.08-8.73-1.79-14,1.58-1,4-2.51,6.57-4,11.67-6.74,16.59-3.85,16.7,10C592.48,1366.31,592.38,1381.38,592.38,1397Z"/><path class="cls-1" d="M1231.17,1345.27c8.82-5.12,18-10.81,27.59-15.94,11.13-6,24.07-1.53,28.2,11,3,9.16,3.4,19.29,4,29,.15,2.34-2.91,5.67-5.34,7.23-7.2,4.63-15.22,8.06-22.08,13.09-2.9,2.12-5.93,8-4.92,10.56,1.4,3.58,6.75,8.15,10.08,7.9,6.53-.49,12.83-4,21-6.88l4.67,5c-9.16,17.13-28.34,26.79-43.76,22.69-12.57-3.34-18.31-10.39-18.33-23.37,0-14.19.52-28.37.48-42.56C1232.75,1357.55,1231.81,1352.07,1231.17,1345.27Zm27.64,26.16c10.54-3.37,12.94-8.41,8.92-17.74-.74-1.73-3.17-4.09-4.46-3.88-1.67.26-4.09,2.69-4.26,4.39C1258.47,1359.64,1258.81,1365.17,1258.81,1371.43Z"/><path class="cls-1" d="M855.37,1413.41c-7.58.87-14.06,16.78-24.3,2.27-18.35,10.15-27,6.78-33.64-13.31-5.5-16.58-3-32.65,5.16-47.71,6.48-12,12.09-14.13,29-11.7-1.65-11.38-3.21-22.11-4.77-32.84l-1.9.27c.32-.55.5-1.35,1-1.62,18.45-10.43,24.3-7.33,25.67,15.74,1.07,18.06.17,36.23.09,54.35,0,6.92-.67,13.87-.19,20.75C851.79,1403.74,853.71,1407.75,855.37,1413.41Zm-36.38-9c7.89-2.54,11.84-7,11.12-15.35-.48-5.54.5-11.22-.14-16.73-.34-3-2.69-5.75-4.14-8.61-2.74,1.94-6.79,3.29-8,5.93C812.59,1381.16,812.07,1392.89,819,1404.37Z"/><path class="cls-1" d="M1296.37,1339.41c3-1.64,6.91-3.39,10.38-5.85,7.66-5.41,14.27-7.14,17.62,2.69,8.87-2.15,17.73-7,25.07-5.27,6.29,1.47,12.07,9.68,15.88,16.2,6.34,10.85,3.15,14.91-18.76,27.66-1.13-5.11-1.16-10.66-3.61-14.78-2.13-3.58-6.87-7.52-10.67-7.74-5.72-.34-7.28,4.82-7.21,10.56.18,14.17-.54,28.36-.32,42.53.06,4.45,1.94,8.87,3.39,15l-19,11.58c-8.83-5.6-11.66-13.51-11.38-23,.49-16.47,1.25-32.94,1.28-49.41C1299.09,1353.24,1297.43,1346.88,1296.37,1339.41Z"/><path class="cls-1" d="M510.16,1341.79l17.18-9.1,6.27,7.14c18.5-7.65,24.61-6.33,31.39,6.76,5.07,9.79,2.93,13.32-14.55,23.79-1.53-4.83-2.62-9.84-4.79-14.33-.86-1.76-4.31-3.42-6.32-3.16s-5.24,2.91-5.3,4.61c-.52,14.16-.53,28.34-.38,42.51,0,1.6,2,3.17,3.54,5.37-2.7,1.78-5.31,3.62-8,5.29-10.6,6.52-17.22,3.18-17.56-9.47-.37-13.51.27-27,.12-40.58C511.68,1354.58,510.76,1348.54,510.16,1341.79Z"/><path class="cls-1" d="M395.51,1342.55c-2.48,19.91-4.75,39.8.21,61-1.2.89-3.71,2.92-6.39,4.7-10.83,7.22-18,3.77-18.48-9.49s.23-26.39.15-39.58c0-6.45-.7-12.88-1.13-20.2l17.2-9.37,8.5,13.12Z"/><path class="cls-1" d="M1044.27,1607.75v37.3H1033v-61.8c14.31-4.55,16.9-3.2,20.43,10.82,2,8,4,16,6,23.94.24.93.69,1.8,2,5.15,3.2-12.72,6.55-23.2,8.34-34,1.73-10.31,8.91-7.42,15-7.68,7.53-.31,6.09,5.29,6.11,9.68.07,17.77,0,35.53,0,54h-12.88v-39.13l-2.34-.43c-2.72,10.82-5.14,21.73-8.38,32.39-.91,3-4.22,5.28-6.44,7.89-2.25-2.58-5.65-4.82-6.54-7.81-3.05-10.2-5.22-20.66-7.73-31Z"/><path class="cls-1" d="M469.41,1582.05h13.7q3.21,20.21,6.45,40.5l1.85.13c2.32-13.46,4.64-26.91,6.91-40.12,13.2-2.09,13.26-2,15.11,10.1,1.49,9.71,3.19,19.38,7,29.29,1.63-10.25,3.35-20.48,4.87-30.74s1.41-10.12,14.17-8.83c-1.15,6.68-2.22,13.3-3.44,19.9-2,10.68-5,21.26-5.88,32-1,11.68-6.9,13.35-17.17,10.77-2.47-12.81-5-26-7.54-39.1l-1.77-.06c-1.82,9.44-4.59,18.81-5.23,28.33-.78,11.72-6.74,13.45-17.27,10.79C477.36,1624.57,473.46,1603.7,469.41,1582.05Z"/><path class="cls-1" d="M808.39,1645.35H795c0-9.34.43-18.18-.22-26.94-.24-3.22-3-6.24-4.67-9.36-1.85,3.15-5,6.19-5.28,9.48-.74,8.75-.25,17.6-.25,26.87h-13.5c0-9,.4-17.87-.21-26.63-.23-3.29-2.84-6.42-4.36-9.63-1.92,3.31-5.16,6.49-5.49,9.95-.81,8.43-.27,17-.27,26.14h-12.8v-45.75c8.06-2.7,16.41,3.53,24.3-2.2,1.7-1.23,7.48,3.16,10.72,4.66,5.67-1.41,12.24-5.24,17.27-3.78,7.85,2.28,8.24,10.85,8.19,18.33C808.34,1626,808.39,1635.43,808.39,1645.35Z"/><path class="cls-1" d="M1098.16,1645.58c4.87-20.15,9.66-39.55,14.2-59,1.58-6.79,6.88-5.61,10.94-4.81,3.41.67,8.45,3.09,9.17,5.72,5.21,19,9.5,38.21,14.19,57.81-7.57.68-15.25,3.64-16.51-8.07-.15-1.37-5.91-3-9-2.92-2.58.06-7.16,2.22-7.34,3.85C1112.54,1648.94,1105.33,1645.6,1098.16,1645.58Zm25-47.37-2.09-.06c-1.54,8-3.07,16.09-4.82,25.22l11.73-.73Z"/><path class="cls-1" d="M821,1599.53c8.39-2.3,15.86,2,23.55-1.68,2.1-1,9.28,4.5,11.43,8.48,5.64,10.46,4.76,21.79-.24,32.42-4,8.54-10.14,9.73-21.75,4.47v24H821Zm26.16,20.7c-1.77-2.83-4.24-10.31-6.85-10.36-7.81-.15-6.36,7.51-6.73,12.77a20.31,20.31,0,0,0,1.58,8.6c.6,1.5,2.87,3.42,4.18,3.28a7.54,7.54,0,0,0,5.15-3.42C845.8,1628.58,846,1625.48,847.17,1620.23Z"/><path class="cls-1" d="M691.65,1645.6H678.08c0-9.79.31-19.26-.2-28.68-.14-2.69-2.65-5.25-4.08-7.87-2,2.59-5.47,5.07-5.69,7.8-.72,9.13-.27,18.34-.27,28.3H654.92v-67.53h12.49v22.79c6.16-.86,13.54-4.09,16.4-1.77,4.28,3.49,6.79,10.71,7.52,16.65C692.51,1625,691.65,1634.88,691.65,1645.6Z"/><path class="cls-1" d="M957,1645.43H943.19v-48c5.46,1.67,9.53,3.06,13.68,4.09,1.06.26,2.55-.39,3.61-1,10.9-6.43,19-2.93,19.88,9.5.79,11.43.17,23,.17,35.16h-13.3c0-9.23.3-18.68-.19-28.09-.14-2.69-2.57-5.26-4-7.88-2,2.57-5.6,5-5.82,7.74C956.52,1626.07,957,1635.29,957,1645.43Z"/><path class="cls-1" d="M579.23,1625.79H556.16c.61,7.85,2.33,11.69,10.49,8.38,3-1.23,7.2.32,11.65.66-3.42,9.67-9.91,13.44-16.64,12.21-5.61-1-13.63-5.45-14.94-10a63.28,63.28,0,0,1-.93-28.3c1.56-8.26,9-12.82,18.09-11.59,8.61,1.16,12.89,7.28,14.48,15.27C579.11,1616.21,578.9,1620.18,579.23,1625.79Z"/><path class="cls-1" d="M895,1621.23c.43-2.8.41-6.55,1.62-9.86,3-8.2,8.2-14.55,17.81-14.38,9.44.16,15.49,6,17.34,14.65a53.19,53.19,0,0,1,.35,20.35c-1.8,9.68-10.62,16-18.92,15.45-8.1-.57-15.84-8.31-17.42-17.58C895.35,1627.29,895.31,1624.65,895,1621.23Zm28.36,1.31-8.46-13.29c-2.38,4.34-6.49,8.62-6.65,13-.16,4.1,3.9,8.36,6.1,12.56Z"/><path class="cls-1" d="M721.77,1615.29c-.08-6.83-4-6.93-9.27-6.29-3.08.38-6.37-1-11.74-1.92,7.49-8.59,13.4-10.94,21.35-9.08,8.18,1.91,11.52,7.66,11.95,14.9.63,10.73.16,21.52.16,31.87-7.66.58-15.24,2.33-22.36,1.22-3.92-.62-8.54-5.45-10.26-9.48-3.07-7.16-.06-13.72,7-17.26C712.59,1617.27,717.21,1616.61,721.77,1615.29Zm2.72,12.36L720,1623.5c-2.68,2.73-5.58,5.31-7.78,8.39-.3.43,2.86,3.34,4.42,5.1Q720.57,1632.31,724.49,1627.65Z"/><path class="cls-1" d="M891.42,1644.62c-16.34,3.4-21.25.16-22.89-12.07-1.22-9.13,3.73-19.51-5.49-27.19-.76-.63,0-3.87.83-5.49,1.87-3.66,4.23-7.07,7.35-12.12h6.13c4.64,4.89,8.61,7.89,10.81,11.88,1.16,2.11.31,7.27-1.5,8.72-5.72,4.6-7.37,21.56-2.15,26.46C887.11,1637.25,888.74,1640.72,891.42,1644.62Z"/><path class="cls-1" d="M628.31,1587.54h7.93c4,4.5,7.8,7.69,10,11.75,1.25,2.3,1,7.46-.62,8.87-6.48,5.52-8,21.24-2.21,26.75,2.46,2.34,3.76,5.89,5.9,9.4-15.56,4.19-20.92.78-22.15-12.46-.49-5.2.1-10.51-.4-15.72-.25-2.57-2.45-5-2.75-7.54a31.36,31.36,0,0,1,.54-10C625.3,1595,626.87,1591.64,628.31,1587.54Z"/><path class="cls-1" d="M616.43,1606.43c-3.58.63-7.2,1.07-10.71,2a47.11,47.11,0,0,0-6.56,2.73c1.15,1.74,1.9,4.15,3.52,5.13,13.45,8.19,16.66,14.45,11.45,23.19s-17.26,9.66-29.23,1.52l4.82-7.51c2.36.94,4.41,2.44,6.41,2.38,2.55-.08,5.06-1.42,7.59-2.22-1.46-2.18-2.43-5.45-4.45-6.34-6.25-2.77-13.09-5.45-12.18-13.38A23.41,23.41,0,0,1,594.2,1600c5.83-5,12.65-3.45,21.45,2.63Z"/><path class="cls-1" d="M989.91,1655.63c1.79-8.44,3.4-16,5.08-23.91h10.06C1003.91,1649.59,1000.44,1655.82,989.91,1655.63Z"/><path class="cls-1" d="M463.79,285.28c6.87-4,13.71-7.33,19.84-11.67,6.6-4.68,10.64-1.69,13.22,3.9a33.49,33.49,0,0,1,2.72,13.3c.28,24.4-.13,48.81.41,73.2.14,6.45,2.77,12.85,4.67,21-5.44,2.88-12.95,7.42-21,10.76-2.43,1-6.81-.54-9.29-2.32-2.73-2-4.29-5.52-6.62-8.75-5.66,2.87-11.15,5.76-16.73,8.47-19.52,9.46-31.77,2.11-31.88-19.25-.12-22.1.05-44.2-.11-66.29,0-4.36-1-8.71-1.53-13.07l-2.8-.11c-.89,4.26-1.65,8.55-2.69,12.77-11.16,45.33-38.3,76.64-82.67,91.63a50.69,50.69,0,0,1-28.15.9c-17.21-4.81-34-4.48-50.77-.53-22.21,5.22-42.08,1-59.38-13.32-35-29-56.06-65.42-55.82-111.86.28-56,52.8-91.69,105.54-72.52,8.86,3.22,18.09,5.4,29.19,8.66-2.48-18.88-7.32-34.52-15.41-49.28-1.86-3.38-8.35-7.12-1.18-11.2,6-3.4,12.29-2.82,14.61,4.44,4.37,13.74,7.78,27.8,11.46,41.75.9,3.43,1.31,7,2.29,12.31,15.11-2.84,29.52-5.72,44-8.22,24.45-4.22,47.32-1.66,66.46,16.22,14.36,13.42,19.15,31.06,22,49.55.85,5.5,1.22,11.07,2,18.44,4.57-2.9,8.25-5.27,12-7.6,11.39-7.15,21.06-2.35,21.76,11.36.6,11.85.19,23.74.2,35.62,0,11.54-.41,23.11.24,34.61.18,3.23,3.45,6.29,5.3,9.43,4.2-3,11.88-5.86,12-9.09,1.07-21.05.66-42.18.32-63.28C468,292.3,465.59,289.38,463.79,285.28ZM174.4,301.66c2.61,8.15,5.51,24,12.5,37.73,16.24,31.94,40.89,42.93,76.23,38.37,10.19-1.32,20.81,1,31.23,1.15,8.1.1,16.69,1,24.22-1.23C365,363.77,391.69,302.63,370,259.25c-3.85-7.7-11.56-14.27-18.92-19.23-11.19-7.57-24.37-6.64-37.31-4.64-16.74,2.59-32.94,8.68-50.59,4.83a238.11,238.11,0,0,0-42.88-5.36c-11.54-.38-23.16,2.25-30.52,13C180.26,261.76,175.36,277.25,174.4,301.66Z"/><path class="cls-1" d="M274.37,1C253.3,13,232,24.65,211.27,37.26c-7.47,4.56-14.15,10.88-20.08,17.41-13.27,14.62-11.1,28.75,7.35,35.91a255.7,255.7,0,0,0,56,15c69.81,10,140.15,9.82,210.4,6.71,152-6.74,303.94-13.66,456.07-9.73q131,3.39,261.93,11.88c74.65,4.95,149.16,13.6,221.19,35.25,22.49,6.77,44.94,16,65,28.12,33.51,20.29,36.76,47.31,12.51,78-4.7,5.95-10.22,11.24-15.37,16.84l-1.89-1.78c1.86-2.45,3.7-4.91,5.59-7.33,15.43-19.79,14.37-40.88-3.3-58.71-16-16.09-36.1-25.31-56.88-33-45.36-16.78-92.61-25.87-140.33-32.28-193.28-25.95-387.59-24.44-581.9-20.13-89.36,2-178.64,7.13-268,9.6-59.69,1.65-119.45.26-178.76-7.69-17.87-2.4-35.4-7.35-53-11.48A53.42,53.42,0,0,1,175,104.56c-20.12-10.78-23.36-26.15-7-42a201.16,201.16,0,0,1,37.75-28.35C225,22.9,245.43,13.5,265.42,3.37A83.71,83.71,0,0,1,274.3,0Z"/><path class="cls-1" d="M1311.9,284.16c5.18-2.49,12.23-5.34,18.71-9.15,8.35-4.9,13.5-2.74,16.77,5.91.57,1.5,1.46,2.88,2.6,5.09,16.19-7.65,32.54-27.83,48.35.79,8.1-4.4,15.49-8.49,23-12.45,12.92-6.87,24.85-1.65,28.61,12.74a47.38,47.38,0,0,1,1.31,11.71c.12,22.09-.25,44.18.32,66.26.12,4.78,3.41,9.47,6,16-5.77,3.63-14.12,9.25-22.89,14.11-1.71.95-6.59-.23-7.36-1.76-2.84-5.68-6.19-11.85-6.43-17.95-.78-20.74-.32-41.53-.34-62.3V302.43c-16.24.79-20.85,5.27-20.85,19.31s-.51,28.39.29,42.52c.29,5.19,3.72,10.21,6.26,16.72-6.3,3.95-14.71,9.67-23.61,14.48-1.86,1-7.12-.47-8-2.24-2.78-5.34-5.69-11.35-5.88-17.19-.68-20.75-.22-41.53-.3-62.3,0-3.79-.52-7.57-.81-11.42-16.84,2.41-18.7,4.46-18.7,19.45,0,13.85-.35,27.71.19,41.54.25,6.16,2.33,12.26,3.88,19.86-5.19,3-12,7.63-19.46,10.79-2.54,1.07-8.6-.61-9.69-2.75-3-5.94-5.73-12.74-5.94-19.28-.7-22.06.13-44.18-.5-66.25C1317.11,299,1314.07,292.45,1311.9,284.16Z"/><path class="cls-1" d="M1013.2,395.36c1-6.71,2.84-13.29,2.88-19.89.27-36.6.4-73.21-.06-109.81-.15-11.84-2.22-23.66-3.57-37.14,14.35-8,30.89-18.21,48.26-26.69,18-8.77,43.12,3,53.58,23.73a53.44,53.44,0,0,1,2.4,5.42c6,16.14,4.8,19.17-10.6,26.44-6.52,3.07-13.09,6-20.81,9.57-1.31-6.3-1.76-12.17-3.82-17.42-2.82-7.2-6.18-14.42-10.73-20.59-1.71-2.33-7.9-3.16-11.1-2-2.51.9-5,5.83-5.05,9-.5,16.72-.23,33.47-.23,51.75,15.87-4.28,28.3,2.95,41.61,7.4,6.84,2.28,15.06.4,24.41.4.85,8.34-3.41,15.6-9.57,22-6.38,6.65-13.79,12.34-23.51,8.48-7.23-2.86-13.74-7.52-20.54-11.45-3.37-1.95-6.66-4.06-11.48-7-.39,4.08-.87,6.79-.87,9.5-.06,20.12.41,40.25-.17,60.35-.34,11.66,2.48,21.4,11.31,29.23,1.41,1.26,2.26,3.15,3.57,5-5.43,6.43-11.79,3.66-17.11,1.43C1038.49,407.47,1025.34,401,1013.2,395.36Z"/><path class="cls-1" d="M814.31,218.48c8.33-4.53,16.49-9.39,25.08-13.32,2.07-.95,6.36.28,8.23,2,9.7,9.06,13.62,20.7,13.6,33.82,0,17.37,0,34.75,0,55.22,9.79-7.55,17.55-13.36,25.12-19.42,9.71-7.77,13.78-7.82,23.29.2,13.78,11.63,16.38,24.2,6.66,39.12a107.72,107.72,0,0,1-18.13,20.67c-4.24,3.83-4.95,6.88-3.18,11.86,4.64,13,15.59,21.27,36,25.59-7.12,7.79-13.28,15.2-20.29,21.69-1.64,1.52-6.52.76-9.31-.39-20.07-8.27-31.71-24-37.3-44.39-.7-2.57,2.16-6.64,4.23-9.36,5.71-7.51,13.1-14,17.43-22.21,2.72-5.16,1.13-12.61,1.59-21.13-9.91,4.86-16.76,7.88-23.18,11.63-1.67,1-2.78,4.23-2.81,6.46-.23,16.81-.77,33.67.25,50.42.33,5.36,5.1,10.45,8.59,17.11-7.78,4.16-17,9.52-26.69,13.91-2,.9-7.24-1-8.22-3-3.09-6.27-6.73-13.16-6.86-19.87-.66-35.29-.31-70.6-.32-105.91C828.12,241.41,828.11,241.41,814.31,218.48Z"/><path class="cls-1" d="M818.08,373c-16.22,16.57-35.16,30.2-62.15,25.95-17.27-2.72-26.55-12.42-26.74-29.69-.19-18.12.37-36.27-.31-54.37-.25-6.77-3.06-13.44-5.22-22.28,15.63-6.61,33-16.22,51.66-21.21,19.81-5.32,35.48,4.92,38.41,21.19,1.16,6.44,1.18,13.13,1.26,19.71.17,14.83-.17,29.67.18,44.49C815.29,361.72,816.9,366.67,818.08,373Zm-35.17-33.62h-.09c0-8.22.51-16.48-.2-24.63-.41-4.67-1.86-9.93-4.66-13.51-2.15-2.76-7.25-4.64-10.79-4.3-1.92.18-4.64,5.79-4.73,9q-.72,25.11-.05,50.26c.12,4.3,1.54,9.44,4.26,12.52,2.25,2.53,7.66,4.06,11,3.25,2.35-.57,4.74-5.69,5-9C783.4,355.15,782.91,347.21,782.91,339.33Z"/><path class="cls-1" d="M628.9,294c8.89-4.94,19.27-12.34,30.81-16.64,10.45-3.89,22.26-6.5,33.28-5.92,17.64.91,25.56,10.64,26.07,28.5.53,18.42,0,36.86.4,55.29.1,5.33,1.59,10.65,2.78,18.05-16,16.4-35,30.12-62.35,25.61-16.68-2.76-25.92-12.38-26.12-29.17-.21-17.44.41-34.91-.28-52.33C633.18,309.62,630.55,302,628.9,294Zm58.68,45.46c0-7.9.64-15.88-.22-23.68A35.18,35.18,0,0,0,682,300.37c-1.7-2.51-7.21-4.37-10.15-3.53-2.47.71-5.13,5.71-5.23,8.88q-.79,25.17-.11,50.38c.12,4.32,1.72,9.47,4.49,12.58,2.28,2.55,7.68,4.12,11,3.32,2.44-.59,5-5.62,5.36-8.89C688.12,355.28,687.6,347.33,687.58,339.42Z"/><path class="cls-1" d="M1220,383c-9.38,4.81-17.43,10.41-26.35,12.93-4.74,1.34-11-2.65-16.14-6.55-4.92,1.73-9.77,3.71-14.78,5.14-19.11,5.45-33-3-37.39-22.47-4.15-18.52,2.3-33.57,19.31-42.13,9.31-4.68,19.47-7.66,30-11.71,0-5,.62-10.64-.29-16-.41-2.44-3.9-4.35-6-6.49-1.84,2-4.33,3.64-5.38,6-1.63,3.62-1.14,9.89-3.55,11.14a102,102,0,0,1-24.94,8.87c-5.18,1.12-11.12-8.93-8.7-16.11,2.1-6.21,5.73-12.93,10.69-17,14.57-11.9,32.42-15.83,50.8-16.13,12.77-.21,20.14,8.63,20.58,24,.37,13.16-.72,26.35-.67,39.53C1207.3,352.43,1206.39,369.17,1220,383Zm-45.85-13.94V342.64c-12.16,3.06-17.43,9.66-15.29,19.13C1160.78,370.3,1166.62,371.16,1174.14,369.09Z"/><path class="cls-1" d="M523,294c-4.09,0-6.38-.22-8.62,0-9.43,1.1-13.6-3-10-11.85,2.34-5.73,6.71-11.76,11.85-14.91,5.48-3.35,7.08-6.56,6.65-12.38-.77-10.56,3-22-8-30.67,9.93-5.24,18.74-10.28,28-14.45,2.07-.94,7.27.38,8,2,3.22,7,6.55,14.31,7.49,21.81,1.25,10,.31,20.23.31,30.7,2.74,0,4.39.15,6,0,11.82-1.31,14.93,2.1,10.76,13.26-1.88,5-4.86,10.89-9.1,13.41-6.5,3.87-8,8.26-7.78,15.17.44,17.79.13,35.59.16,53.39,0,12.56.36,13.23,10.18,21.33-7.92,5.06-15.39,10.51-23.52,14.63-2.67,1.35-7.92.41-10.54-1.49-8.21-6-11.83-14.67-11.82-24.85q0-32.13,0-64.27Z"/><path class="cls-1" d="M629.76,381.12c-10.21,5.63-18.3,10.7-27,14.47-2.65,1.15-8.89-.23-10-2.3-4.19-7.89-9.54-16.46-9.77-24.91-1-37.54-.65-75.13-.38-112.7.09-12.08-2.35-22.83-13-32.53,10.26-4.78,19.46-9.42,29-13.21,1.75-.7,5.46,1.46,7.25,3.29,9.13,9.29,11.63,21.05,11.62,33.6,0,37.24,0,74.49-.13,111.73C617.38,367.58,618.48,375.78,629.76,381.12Z"/><path class="cls-1" d="M1255.86,283.66c4.19-2.59,7.78-4.87,11.42-7.05,13-7.78,21.73-6.74,32.21,4.27a52.74,52.74,0,0,1,8.12,11.11c6.18,11.41,5.42,14.15-4.89,22l-17.66,13.46c-1.89-6.82-3.22-13-5.34-18.9-2.45-6.83-7.22-11.08-15-9.48-7.58,1.55-9.2,6.83-9,14,.42,16.8-.28,33.63.37,50.41.24,6.23,3,12.37,5,20.06-5,3-12.07,7.9-19.73,11.5-2.63,1.23-8.75.37-9.86-1.53-3.82-6.54-8.23-13.86-8.61-21.07-1.12-21.37-.14-42.83-.6-64.24-.15-7.26-2.12-14.47-3.5-23.21,3.37-1.87,8.73-4.87,14.12-7.82C1248.52,268.58,1245.23,268.61,1255.86,283.66Z"/><path class="cls-1" d="M214.53,271.06c14.72,7.08,25.18,14.09,29.86,27.12,4.11,11.46.12,22.47-8.74,24.84-10.28,2.75-24.3-5.9-24.7-17.11S213.11,283.63,214.53,271.06Z"/><path class="cls-1" d="M344,271.88c1.9,10.86,3.82,19.7,4.83,28.65.38,3.36-.79,7.23-2.26,10.4-3.95,8.58-17.11,13.73-25.2,10.31-7.06-3-10.05-13.54-6.4-23.31C319.64,285.29,329.94,278.69,344,271.88Z"/><path class="cls-1" d="M1217.58,638.69c4.78-5.12,4.93-8,.27-13.41q-67-76.9-133.22-154.4c-4.72-5.52-7.62-6.26-13.63-1.85a163.54,163.54,0,0,1-82.82,31.22c-45.51,4.18-86.77-8.84-122.84-35.37-15.1-11.09-25.21-10-40.9-2.35-70.62,34.63-144.91,27.66-205.1-27.35-4.48-4.1-7-3-10.77.27-18.34,16.08-36.86,32-55.3,47.94l-102,88.22c-2.91,2.52-5.71,4.31-2,9.12,15.22,20,26.71,42.08,35.47,65.58,27.08,72.76,19.54,140.38-30.27,201.63-2.91,3.6-6.5,7-8.36,11.06-13.66,30-23.92,61.18-29.17,93.85-4.94,22.93-6.26,46.2-5.08,69.53,2.15,42.07,13.77,81.15,40.92,114.08,44.14,53.53,103.63,78.61,170.51,87.63,58.73,7.93,111.1,28.75,154.86,69.32,4.38,4.08,6.94,4.54,12.12,1,42.32-28.72,89.06-44.11,140.31-45.58,13.72-.38,27.4,1.76,41,1.25a278.27,278.27,0,0,0,92-19.38c72.21-28.4,117.33-79.7,130.94-157,7.46-42.42,4.25-84.67-3.6-126.72-3.94-21-8.35-41.75-21.32-59.75-4.71-6.53-7.23-14.72-10.29-22.34-9.69-24-12.83-49.16-13.13-74.83,1.83-11.87,2.51-23.91,5.35-35.66C1162.43,709.5,1186.52,672.06,1217.58,638.69Zm-96.15,177.8c.71,25.37,4.68,50.45,14.56,73.83a281.14,281.14,0,0,1,18.86,67.8c5.14,33.83,6.52,67.6-.41,101.4-12.89,62.88-50.5,105.08-108.7,129.89a264.37,264.37,0,0,1-92.55,20.67c-6.83.31-13.69,0-20.54,0-51.79-2.88-99.27,10.44-142.31,39.3-4.64,3.11-7.39,2.57-11.23-.94-40.34-37.08-88.66-54.86-142.61-60.62-33-3.52-63.71-15.86-92.65-32.06-38.79-21.71-67-52.72-81.47-95.2-11.75-34.49-12.46-69.87-7.26-105.6,3.74-25.62,10.78-50.35,19.89-74.54a64.36,64.36,0,0,1,10.78-19.19c36.54-43.59,46.58-94.51,40.29-149.59-5-44.17-20-85.2-41.26-124-2.81-5.12-2.42-7.88,1.88-11.74q61.89-55.41,123.44-111.23c3-2.74,5.17-4.93,9.45-1.12,48,42.51,104.18,50.28,164.82,37.9a244.1,244.1,0,0,0,55.31-18.24c4.77-2.26,7.74-1.42,11.71,1.58C888,512.47,929,527.55,975.27,526.18a194,194,0,0,0,88.17-23.51c5.6-3,8.35-2.29,12.28,2.24q56.38,64.86,113.31,129.3c4.7,5.28,3.94,7.8-.44,12.53C1144.35,694.62,1119.57,750.37,1121.43,816.49Z"/><path class="cls-1" d="M695.77,945.7a.32.32,0,0,0,0,.09v.06a.41.41,0,0,0,.11.12A1.38,1.38,0,0,1,695.77,945.7Zm0,0a.32.32,0,0,0,0,.09v.06a.41.41,0,0,0,.11.12A1.38,1.38,0,0,1,695.77,945.7Zm0,0a.32.32,0,0,0,0,.09v.06a.41.41,0,0,0,.11.12A1.38,1.38,0,0,1,695.77,945.7Zm0,0a.32.32,0,0,0,0,.09v.06a.41.41,0,0,0,.11.12A1.38,1.38,0,0,1,695.77,945.7Zm0,0a.32.32,0,0,0,0,.09v.06a.41.41,0,0,0,.11.12A1.38,1.38,0,0,1,695.77,945.7Zm5.79,19.61a11.71,11.71,0,0,0,1.33.64A2.56,2.56,0,0,0,701.56,965.31Zm-5.79-19.61a.32.32,0,0,0,0,.09v.06a.41.41,0,0,0,.11.12A1.38,1.38,0,0,1,695.77,945.7Zm0,0a.32.32,0,0,0,0,.09v.06a.41.41,0,0,0,.11.12A1.38,1.38,0,0,1,695.77,945.7Zm0,0a.32.32,0,0,0,0,.09v.06a.41.41,0,0,0,.11.12A1.38,1.38,0,0,1,695.77,945.7Zm0,0a.32.32,0,0,0,0,.09v.06a.41.41,0,0,0,.11.12A1.38,1.38,0,0,1,695.77,945.7Zm0,0a.32.32,0,0,0,0,.09v.06a.41.41,0,0,0,.11.12A1.38,1.38,0,0,1,695.77,945.7Zm0,0a.32.32,0,0,0,0,.09v.06a.41.41,0,0,0,.11.12A1.38,1.38,0,0,1,695.77,945.7Z"/><path class="cls-1" d="M852,678.07c-2.73-9.8-7.76-13.46-17.79-13.66-6.36-.14-11.8,2.08-17,5.42a22.85,22.85,0,0,1-3.33,1.86S779,709.15,780.48,736.1v.08a63.44,63.44,0,0,0,1.53,10.9c2.29,9.29,7.66,12.24,16.43,8.18a144.45,144.45,0,0,0,15.66-9c7.68-4.81,15.42-9.38,24.19-12.15,11.92-3.74,17.29-11,18.16-23.58C857.22,699.39,854.9,688.68,852,678.07ZM816.56,697c-2.06,0-2.7-1.61-2.7-3.33s.68-3.37,2.64-3.46c2.15-.1,2.41,1.72,2.65,3.36C819,695.27,818.67,697,816.56,697Zm16-10.2c-2.75.16-3.78-1.72-3.7-4.12a3.57,3.57,0,0,1,3.46-3.74c2.72-.1,3.23,2.26,3.77,3.7C836.06,685.67,834.53,686.68,832.51,686.82Z"/><path class="cls-1" d="M849.14,1035c-.89,14.31-7.82,26.72-12.83,39.67-7,18.22-12.59,36.67-15.28,56.13-2.22,16.21,1.05,31,7.92,45.38,1.13,2.31,3.56,5.12,1.17,7.5s-5.57.63-8.52,0c-7.5-1.64-10.37-6.32-9.93-13.62s-1-13.52-8.48-17.13c-4.27-2.06-4.77-6.59-4.65-10.73.4-13.2-5.09-22.25-17.26-28-7.9-3.7-15.21-8.67-20.22-16.36-2.89-4.43-7.74-3.1-12-3.26-2.91-.1-7.06,1.48-8.35-1.43-1.17-2.67,1-4.31,3.11-5.9l15.42-9.5.3-.18a37.6,37.6,0,0,0,4.33-3.05c2.18-2.08,4.87-3.8,6.5-6.25,11.28-17,28-24.69,47.31-28.14a64.3,64.3,0,0,0,24.1-10c1.78-1.17,3.8-2.72,6-1.21S849.26,1032.87,849.14,1035Z"/><path class="cls-1" d="M988.78,914.89c-3.43-3.8-7.56-2.34-11.29-.18-4,2.36-8.09,2.53-12.63,2.28-15.89-.87-31.69-1.09-47.14,4.51-13.52,4.89-28,5.11-42.19,6.24-7.72.63-16-5.27-18.59-12.89,1.57.91,2.76,1.5,3.85,2.24,5.38,3.56,10.75,10.23,17.4,6.63,6.89-3.74,5.66-12.34,6-19.38,0-.28,0-.56,0-.83-1-17.67-7.86-33.5-15.17-49.18a13.87,13.87,0,0,0-7.64-7.25c-8.75-3.09-10.71-9.92-11.58-18-1.25-11.74-3.47-23.36-9.43-33.83-4.89-8.61-6.57-8.71-14.21-2.71-4.65,3.64-8.24,9.28-16.49,9.68,4.67-5.84,10.07-8.63,14.86-12,11.35-8.08,16-19,15.37-32.61-.36-7.42-2.36-8.79-9.21-5.42-8.61,4.22-17.4,8.24-25.56,13.23-10.21,6.19-20.41,7.36-31.36,2.77-2.27-1-4.71-1.49-7-2.36-6.06-2.24-10.34-1-13.41,5.27-2.25,4.59-4.79,9.42-10.77,11.56,16.32-16.41,18.53-34.69,8-55,7.8,6.22,7.82,14.77,8.65,23,.81,7.92,5.23,11.57,13.48,10,7.45-1.4,3.86-7.14,3.37-11.18a48.6,48.6,0,0,1,.53-16.49v-.06c0-1.55,1.25-38.31,30.59-59a35.32,35.32,0,0,1-11.26.3c-4.12-.54-8.95-1.75-10.1-6-1.25-4.66,4-6,7-7.94,9.32-6.06,9.6-10.87.63-17.58-6-4.48-12.07-4-17,3-9.72,14-21.13,25.44-36.77,33-6.69,3.23-11.76,9.76-17.64,14.65-3.8,3.15-7.7,6.2-11.7,9.07-3.27,2.31-6.93,3.26-10.91,1.78-7.11-2.67-11.6,1.05-15.06,6.51-4.42,6.91-5.78,14.69-6,22.79-.14,5.19,1.74,9.11,6.75,11.07s8.35-.95,11.48-4.24c2.36-2.51,3.54-6.24,7.27-7.46-4.6,6.61-4.77,14.67-8.2,21.56-12.08,24.27-23.94,48.64-32.86,74.34a8.13,8.13,0,0,1-2.58,4.06c-15.62,10.13-23.81,26.11-32.84,41.43-1.55,2.62-3.11,5.33-3.13,8.4-.1,21.18,5.09,40.8,18.09,57.79,5.65,7.36,12.81,8.85,21.29,5.72,7.28-2.69,8.85-1.82,10.93,6.61-3.69-.91-6.7-2.93-10.95-1.19-11.56,4.7-19.32,1.73-26.75-8.91-1.07-1.52-1.46-4-3.8-3.8-3,.2-2.42,3.23-3.07,5.11a36.68,36.68,0,0,0-1.29,5.6c-3.42,17.66-2.55,35.4-1.7,53.26.71,15.42,4.69,29.12,14.43,41.06,6.24,7.62,12.79,15,19.11,22.61,1.9,2.32,4.43,5.45.69,7.6-3.11,1.83-3.72-2.09-4.81-4.07-3.25-5.9-8-8.36-14.37-5.63-7.92,3.35-12.1,16.71-7.8,24.18,1.86,3.24,4.47,6.05,8.47,5.52,9.25-1.23,7.84,2.79,4.42,8.2-.68,1.07-1.83,2.13-.54,4.17,4.77-1.5,7.88-4.91,8.43-9.68.78-6.61,4.92-10.77,8.91-15.32,4.18-4.77,7.84-4.63,12.36-.16,6.61,6.53,13,13.38,21.54,17.68,7.88,4,15,4.75,23-.83a174.23,174.23,0,0,1,22.93-13.66v0s10.14-6.44,17.08-12l0,0c.75-.63,1.5-1.29,2.25-1.94a87.11,87.11,0,0,0,11.5-11.62,50.63,50.63,0,0,1,30.77-19c26.69-5.24,48.39-18.57,64-41.32,3.4-4.94,7.3-9.6,11.18-14.23,7.65-9.17,15.92-17.2,28.73-19,5.92-.83,11.3-4.05,16.61-7,10.63-5.9,21.84-9.21,34.23-7.49,6.06.81,10.63-1.32,10.4-8.2-.14-4.81,2.09-6.27,6.17-6.85,5.37-.73,10.06-2.61,12.71-7.87C991.65,923.42,992.34,918.87,988.78,914.89Zm-220-241.48c.16-2.61,1.27-4.89,4.36-4.51,2.49.32,3.33,2.39,3.42,4.73-.37,2.71-1.66,4.69-4.59,4.5C769.26,677.93,768.67,675.63,768.8,673.41Zm-12.51,6.77c2.79-.27,3.49,2,3.72,4.46-.55,2.61-1.1,5.72-4.53,5.7-2.67,0-3.07-2.61-3.13-4.89C752.27,682.64,753.42,680.44,756.29,680.18ZM665.12,935.44c-2.39-.1-3.13-2.36-2.91-4.24.68-6-.22-9.64-7.9-8.77-3.09.34-4.55-4.2-5.66-7.32-6.61-14.18-4.08-27.38,4.32-40-4.58,11.94-4.54,24.14-2.42,36.45,3.05,4.42,6.06,9,12.47,5.05,3-1.86,4-.06,4.28,2.42.4,4.08.63,8.17.63,12.25C667.93,933.08,667.77,935.54,665.12,935.44ZM732.53,947c-.14.31-.29.62-.44.92s-.39.7-.61,1-.44.68-.69,1-.5.65-.77,1c-.41.48-.84.94-1.3,1.39l-.25.23A34,34,0,0,1,722,957.2c-2.8,1.61-5.35,3.65-8,5.48l-5.55,1.64L702.9,966h0a28.09,28.09,0,0,1-3.31,1l-.79.15a12,12,0,0,1-3.66.11,6.92,6.92,0,0,1-1.29-.3,6.37,6.37,0,0,1-.61-.23c-.19-.09-.39-.18-.57-.28h0l-.55-.34a9.05,9.05,0,0,1-3.19-4.81c-.15-.46-.29-1-.41-1.49l-.09-.36a5.29,5.29,0,0,0-.21-.6,4.71,4.71,0,0,0-.65-1.17c-1.27-1.75-3.39-2.43-5.36-3.3l-.77-.36c-.26-.13-.51-.26-.75-.4a7.13,7.13,0,0,1-1.33-1,5.31,5.31,0,0,1-1-1.34,14.67,14.67,0,0,0,2.79-.48,7.23,7.23,0,0,0,1-.37,5.69,5.69,0,0,0,.79-.46,2.94,2.94,0,0,0,.37-.32c.11-.11.21-.22.31-.34h0c.08-.12.16-.24.23-.37a3.29,3.29,0,0,0,.17-.39s0,0,0,0a4.26,4.26,0,0,0,0-2.42,18.94,18.94,0,0,0-1.3-3.36l-.39-.83h0c-.14-.28-.27-.56-.39-.83s-.05-.43-.09-.64-.09-.41-.13-.63c-.22-.79-.44-1.58-.65-2.38s-.49-1.85-.73-2.77l-.27-1c-.15-.59-.31-1.17-.47-1.75-.31-1.17-.64-2.34-1-3.5-.18-.58-.36-1.16-.55-1.73s-.41-1.23-.63-1.84c-.09-.24-.17-.48-.24-.73-.25-.75-.46-1.53-.69-2.31l-.18-.58c-.05-.2-.12-.39-.18-.58-.13-.38-.26-.75-.41-1.12a9.51,9.51,0,0,0-.7-1.39,6.51,6.51,0,0,0-.94-1.22,6.17,6.17,0,0,0-.72-.62l-.4-.27a5.7,5.7,0,0,0-1.34-.62,9.53,9.53,0,0,0-1.46-.33h0c-.28-7-1-14.08-.69-21.07a11.38,11.38,0,0,1,5-8.94c.62-.46,1.27-.9,1.94-1.31,1-.62,2.07-1.19,3.14-1.75.7-.37,1.42-.73,2.12-1.09,1.66-.87,3.36-1.64,5.07-2.39,1-.46,2-.91,3.07-1.38.08-.46.19-.91.31-1.35a17.41,17.41,0,0,1,1.26-3.35c.15-.33.32-.66.5-1,.43-.77.9-1.51,1.4-2.23s.84-1.15,1.28-1.71c.66-.84,1.36-1.65,2.07-2.46s1.43-1.61,2.14-2.41c.87-1,1.73-2,2.54-3a10.59,10.59,0,0,1,.87-1,6.79,6.79,0,0,1,.58-.52h0a4.56,4.56,0,0,1,.59-.42,5.21,5.21,0,0,1,5.46-.07,8.82,8.82,0,0,1,.88.52,13.83,13.83,0,0,1,1.91,1.57c.07.07.14.13.2.2l.4.41c.26.28.51.57.76.86a26.76,26.76,0,0,1,1.68,2.28c.53.79,1,1.6,1.52,2.42s1,1.66,1.44,2.48,1,1.66,1.48,2.47c2,5.62,3.19,11.53,4.86,17.28.19.64.38,1.27.58,1.91s.35,1.11.54,1.66.27.79.42,1.18c.22.62.46,1.24.71,1.86a42.2,42.2,0,0,0,3.15,6.31,9.41,9.41,0,0,1,1.11,2.55c.05.19.1.39.14.59s.1.61.13.92a9.21,9.21,0,0,1-.2,3c-.06.24-.12.48-.2.71s-.22.63-.35.94h0a25.07,25.07,0,0,0-.91,2.44c-2,6.15-1.22,12,1.08,17.64a43.72,43.72,0,0,0,2.43,5v0h0c.2.59.37,1.16.52,1.72a8.52,8.52,0,0,1,.2.84c.12.54.22,1.08.29,1.6A14.63,14.63,0,0,1,732.53,947Z"/><path class="cls-1" d="M994.4,562.75l-21.32-8.26q-2.18-.91-4.34-1.78c-31.27-12.5-63.28-17.32-96.7-8.13-9,2.48-16.4,7.08-21.69,14.67h0c-.38.52-.74,1.08-1.11,1.66-10.15,16.37-8.85,32.11,3.79,46.17,0,0,0,0,.05-.05,18.82,7.42,38,13.32,58.22,15.75,30.36,3.66,59.93,2.9,87.87-11.34C1017.93,596.05,1013.91,571.88,994.4,562.75Zm-8.67,29.51a82.89,82.89,0,0,1-23.86,5.7c-17.88,1.81-35.42,7.12-53.72,4.52a103.09,103.09,0,0,1-28.95-8.71c-15-6.93-16.66-14.06-6.52-27.28a40.15,40.15,0,0,1,12.88-5.66,2.08,2.08,0,0,1-.3-.12c.11,0,.23.07.35.1l8.36-2.95c34.67-4,67.57,0,96.55,21.59a12.92,12.92,0,0,1,1.55,3.34C993.33,587.22,990.7,590.18,985.73,592.26Z"/><path class="cls-1" d="M853,607.08s0,0,.05-.05l0,.08,0,0h0Z"/><path class="cls-1" d="M885.61,560.81l0,0h0a2.08,2.08,0,0,1-.3-.12C885.37,560.73,885.49,560.78,885.61,560.81Z"/><path class="cls-1" d="M638,551c-2.31,14-2.52,26.69,6.71,38,5.77,7.06,12.94,10.55,22.2,10,6.86-.42,9.08-4,8.18-10.32-1.48-10.32-12.7-16-22.57-11.9-1.82.76-4.3,6.87-6.55.8-1.39-3.76-3-8.1,2.6-11.24,11.28-6.28,25-1.7,29.57,10.81,3.79,10.31,1.78,20.46-1.81,30.43-1.14,3.19-4.09,3.58-6.66,4-11.37,2-21.12-1.35-28.82-10-10.72-12-13.15-32.71-5.65-47A26.13,26.13,0,0,1,638,551Z"/><path class="cls-1" d="M589.55,632c-1.17-4.59-5-8.34-1.56-12.07,4.32-4.62,10.35-6.15,16.59-5.17A21.28,21.28,0,0,1,622,632.26a49.44,49.44,0,0,1-2.24,25.08c-.93,2.61-2.42,3.73-5.09,4.5A29.88,29.88,0,0,1,582.84,652c-11.59-13.82-13-36.21-2.76-49,1.34,2,.31,3.6,0,5.27-2.26,13.43-.4,25.68,10.35,35.29,4.19,3.75,8.94,6.34,14.7,6.43,4.91.07,10.88.77,12.64-5s-.69-11.32-5.65-15.19C605.89,624.92,599,625.49,589.55,632Z"/><path class="cls-1" d="M535.91,636.32c-3.31-1.72-2.17-3.9-.63-6.07,6-8.48,11.58-17.31,18.14-25.34a412.72,412.72,0,0,1,97.1-86.32c1.61-1,3.23-2.48,5-2.76,3.71-.58,6.23,2.28,7.9,4.81s-1.8,2.82-3.18,3.44C609,547,572,585.86,540.74,631.05,539.38,633,538.6,635.55,535.91,636.32Z"/><path class="cls-1" d="M838.29,652.42c.18,2.73-.31,5.2-3.54,5.44-3.71.26-8,1.29-10-3.35a27.48,27.48,0,0,1-1.72-8c-1.15-12.37-4.54-24.17-8.83-35.76A45.44,45.44,0,0,1,811.51,589c.27-2.12.39-5.14,2.81-5.41,2.87-.32,2.74,2.93,3.23,4.88.8,3.17,1,6.49,1.8,9.67,1.46,6,2,12.64,9.57,14.94,1.18.36,2.21,2.43,2.62,3.9C834.8,628.6,836.64,640.5,838.29,652.42Z"/><path class="cls-1" d="M537.68,604.46c-7.44,9.38-7.25,9.15-15.13,2.66-8.6-7.08-16.33-15.26-26.94-20.9,4.86-5.39,9.17-10.66,14-15.39,6.24-6.1,14.69-3.4,17.2,5,1.13,3.78-2,9.09,2.47,11.27a31.17,31.17,0,0,0,18.33,2.68c.46-.07,1,.28,1.84.56-1.68,5.36-5.66,7-10.64,6.67-3-.18-5.91-1.12-8.9-1.37-4.08-.35-6.48-1.4-6.07-6.43.55-6.59-3.32-10.81-9.4-12.8-3-1-6.05-.53-8,2.47s.1,5.34,2,7.16C516.9,593.9,525.43,601.63,537.68,604.46Z"/><path class="cls-1" d="M853,607.08l0,0,0,0h0Z"/><path class="cls-1" d="M853.07,607l0,.08,0,0h0S853.05,607,853.07,607Z"/><path class="cls-1" d="M565.37,535.29c.27.44,1.18,2.13,2.3,3.69,2.55,3.54,5,7.16,7.85,10.48,2.1,2.47,5,3.78,7.86,1.24,2.61-2.34,1.46-4.93-.55-7.18-3.45-3.87-6.58-8.06-11-11-2.47-1.65-3.6-3.28-.51-5.56,2.36-1.73,4-3.22,6.23.53a44.75,44.75,0,0,0,15.24,15.76c4,2.39,2.73,4.09-.36,5.58a21.92,21.92,0,0,0-9.08,7.5c-2.47,3.55-7.57,5.91-11.12-.55a42.82,42.82,0,0,0-11.58-13.65c-1.24-.94-3.27-1.53-1.76-3.62C560,537,561.13,535.32,565.37,535.29Z"/><path class="cls-1" d="M564.49,566.16a18.88,18.88,0,0,0-13-14.65c-5.22-1.78-7.64,2.45-10,6.09-4,1.09-4.71,3.92-3.7,7.48A18.8,18.8,0,0,0,550,578.4c4.18,1.46,8.86,2.27,12.6-.66S565.25,570,564.49,566.16Zm-2.94,3.69c-1.3,2.59-3.77,2.78-6.29,2.67-8.89-.4-14-5.78-13.72-14.34a1.53,1.53,0,0,1,0-.37h.23c6.72-.54,13.2-.28,18.11,5.46C561.56,565.21,562.83,567.28,561.55,569.85Z"/><path class="cls-1" d="M636.49,507.38c.93,7.91-4.3,14.34-11.73,13.64-8.26-.77-12.78-6.35-16-13.57-2.86-6.37,1.07-9.26,4.92-13.1,5.4-5.37,9.27-.7,13,1.55,4.81,2.9-.49,5.58-1.46,8.11-.8,2.11-1.36,5.49-6,5.34,2.09-3.93,6.75-8.35-.86-10.63-1.78-.53-3.7-1.39-5.4.3s-1.6,3.45-1,5.36a14.17,14.17,0,0,0,9.23,9.72c4.92,1.78,8.46-.23,11.7-3.61C634,509.35,634.55,507.56,636.49,507.38Z"/><path class="cls-1" d="M612.5,530.94l-6.79,6.11c-4.91-8.37-10-16.1-17.09-22.54-2.83-2.58-.07-7.31-.65-11.16,2.78-.68,3,3.25,5.21,2.81,4.18-.81,3.79.43,3.44,4.24-.57,6.15,5.24,9.73,8.68,14.13C607.12,526.85,609.74,528.54,612.5,530.94Z"/><path class="cls-1" d="M831.62,597.66a37.55,37.55,0,0,1-1.5,5.23c-.34.8-2.08,1.9-2.39,1.69-4.47-3-2.75-8.26-4.22-12.4-.58-1.65-.33-4.49,2.29-4.24,3.86.37,5,3.72,5.62,7C831.53,595.52,831.51,596.07,831.62,597.66Z"/><path class="cls-1" d="M695.85,946a.41.41,0,0,1-.11-.12v-.06a.32.32,0,0,1,0-.09A1.38,1.38,0,0,0,695.85,946Z"/><path class="cls-1" d="M720.32,938c2-12.45-6.21-22.64-7-34.21l2.47-.5c3.18,9.73,6.47,19.42,9.5,29.18C726.52,936.52,723.86,937.54,720.32,938Z"/><path class="cls-1" d="M704.43,944.65c2.14-3.28.43-6.36-.54-9.43q-1.12-3.57-2.26-7.13v0c-2.6-8.25-5.24-16.49-7.85-24.74-.86-2.67-1.7-5.35-2.56-8,.28-1,.22-2.49.89-3,1.67-1.37,2.24.11,2.65,1.5,4.91,16,10,31.84,14.61,47.86C710.55,945.74,708.82,948.12,704.43,944.65Z"/><path class="cls-1" d="M697,942.66c-4.82-15-9.66-30-14.73-45.71a3,3,0,0,1-.13-.39q-1.36-4.2-2.74-8.48c-3.47,5-1,8-.23,10.88,4.46,16.88,12.15,32.85,14.28,50.38.23,1.91.95,2.5,2,2.39a5.52,5.52,0,0,0,2-.74c.25-1.57.51-3.13.76-4.69Zm-1.26,3.19v-.06a.32.32,0,0,1,0-.09,1.38,1.38,0,0,0,.08.27A.41.41,0,0,1,695.74,945.85Z"/><path class="cls-1" d="M695.85,946a.41.41,0,0,1-.11-.12v-.06a.32.32,0,0,1,0-.09A1.38,1.38,0,0,0,695.85,946Z"/><path class="cls-1" d="M885.61,560.81l0,0h0a2.08,2.08,0,0,1-.3-.12C885.37,560.73,885.49,560.78,885.61,560.81Z"/><path class="cls-1" d="M885.56,560.83a2.08,2.08,0,0,1-.3-.12c.11,0,.23.07.35.1l0,0Z"/><path class="cls-1" d="M981.17,584.34c-.43,3.95-3.58,4.45-6.49,5.15-16.86,4-34.08,4.91-51.45,6-10.49-.75-21.21-.51-31.68-3a45.16,45.16,0,0,1-7.84-2.37c-6-2.62-9.91-6.78-9.35-13.88s5.42-9.88,11.31-11.29c18.33-4.43,36.8-5.34,55.36-1.45,9.64,2,19.23,4.38,28.36,8.15a44.25,44.25,0,0,1,7.92,4.23A8.66,8.66,0,0,1,981.17,584.34Z"/><path class="cls-1" d="M541.56,557.57a1,1,0,0,0,0,.24l-.26,0Z"/><path class="cls-1" d="M695.85,946a.41.41,0,0,1-.11-.12v-.06a.32.32,0,0,1,0-.09A1.38,1.38,0,0,0,695.85,946Z"/><path class="cls-1" d="M885.61,560.81l0,0h0a2.08,2.08,0,0,1-.3-.12C885.37,560.73,885.49,560.78,885.61,560.81Z"/><path class="cls-1" d="M981.17,584.34c-.43,3.95-3.58,4.45-6.49,5.15-16.86,4-34.08,4.91-51.45,6-10.49-.75-21.21-.51-31.68-3a45.16,45.16,0,0,1-7.84-2.37c-6-2.62-9.91-6.78-9.35-13.88s5.42-9.88,11.31-11.29c18.33-4.43,36.8-5.34,55.36-1.45,9.64,2,19.23,4.38,28.36,8.15a44.25,44.25,0,0,1,7.92,4.23A8.66,8.66,0,0,1,981.17,584.34Z"/></svg>