<svg id="Layer_1" data-name="Layer 1" xmlns="http://www.w3.org/2000/svg" viewBox="0 0 2491.43 2492.13"><defs><style>.cls-1{fill:#a62b2a;}</style></defs><path class="cls-1" d="M1245.56,0C1933.94-.47,2495.7,559.57,2491.4,1254c-4.26,689.56-566.75,1241.78-1252.28,1238.16C549.75,2488.47-6.74,1924.08.06,1233.39,6.75,554.3,559.32,0,1245.56,0ZM2396.5,1246.17C2396.5,612.88,1881.09,95,1250.57,94.65,612.13,94.34,95.25,608.7,94.75,1244.85,94.26,1877.4,605.48,2392,1235.66,2397.29,1879.22,2402.68,2397.54,1879.49,2396.5,1246.17Z"/><path class="cls-1" d="M114.59,1245.7c.93-629.25,514.32-1133.31,1137.23-1131.34,618.11,2,1125.4,510.49,1125,1132-.46,632.56-519.36,1137.75-1143.38,1131C621.82,2370.81,115.33,1871.82,114.59,1245.7ZM1195.7,1060.86l-3.34-3.69c-6.13,4-13.32,6.95-18.2,12.11-15.55,16.42-31.23,32.88-45.07,50.72-30.55,39.41-69.95,61.34-119.5,66.86-32.55,3.63-64.84,9.53-95,23.4q-61.71,28.37-123.46,56.66c-2.13,1-4.36,1.72-6.38,2.51-2.77-10.65-4.82-20.91-8.14-30.75-7.11-21.08-14.17-42.24-22.67-62.78-4.62-11.15-9.25-11.66-20.81-6.7,1,4,2,8,3,12.12,7.49,32,13.2,64.13,11.48,97.23-.44,8.41-3.3,13.72-11.1,18.07-86.39,48.22-162.75,109.53-234.36,177.51-29.72,28.21-17.89,38.91,6.57,54.28,5.39,3.38,8.92,3.13,13.85-.44C592.82,1477.1,664,1427.38,733.41,1375.4c87.74-65.66,183.93-112.63,290.61-137.66,52.69-12.36,104.1-11.08,153.42,15.33,42.06,22.51,85.65,42.22,123.7,71.62,6.12,4.73,12.81,8.49,20.95,3.21-11.33-21.85-26.24-39.6-48.09-51.2-19.38-10.28-38.41-21.24-57.45-32.15-4-2.26-7.29-5.61-11.92-9.25,17.89-6.22,34.23-11.15,50-17.56,19.67-8,39.82-9.22,60.55-7.38,13.89,1.23,27.79,2.83,41.7,3,34.16.44,66.78,7.89,96.19,24.77,29.24,16.77,58.29,34.52,84.91,55.08,62.55,48.31,132.52,79.09,209.44,94.94,22.49,4.63,45.21,8.19,67.92,11.65,7.78,1.19,15.27-.39,18.13-10.73-3.93-1.34-7.4-2.73-11-3.71-21.17-5.79-42.26-11.88-63.56-17.13-60.25-14.86-118.45-33.75-168.21-73.24-19.25-15.28-41.23-27.13-62-40.49-5.37-3.46-10.89-6.71-17.56-10.81a37.09,37.09,0,0,1,4.83-1.27c57.13-3.39,108-25.78,157.2-52.6,13.06-7.12,15.64-20.85,20.64-36.26-4.37,3.18-6.24,4.63-8.19,5.94-51,34.16-106.27,58.57-168.35,51.17-48.81-5.81-96.7-19.93-144.73-31.49-19.81-4.77-39.2-8.48-59.77-6.94-46.83,3.52-93.72,6.1-140.6,8.8a85.44,85.44,0,0,1-20.83-1.19c-9.9-1.91-19.56-5-28.28-7.33C1148,1134.23,1171.83,1097.54,1195.7,1060.86Zm101.23,286.89c-74-.41-123.24,49.79-118.39,117.55,5.81,81,82,159,163,166,23.87,2.06,46.71-1.14,63.19-22,1.94-2.47,6.56-3,10-4.08,10.07-3.23,21.31-4.47,30.06-9.81,23.22-14.15,39.36-35,49.78-60.15,10.78-26.07,14.58-53.53,17.39-81.36,3.69-36.49-7.25-68.26-30.23-95.87-23.42-28.16-54-40.58-90.25-33.48-16.48,3.22-32.56,9.84-48,16.82-12.12,5.49-23.66,9.78-37.08,7A51.66,51.66,0,0,0,1296.93,1347.75Zm-469-521-4,.2c-1.36,2-3,3.82-4.05,6-21.77,46-51.06,87-82.77,126.44a109.09,109.09,0,0,0-15.65,25.85c-5.6,13.4-11,27.26-13.59,41.46-7.32,40.46,6.5,77,24.11,112.35,1.27,2.54,6.71,4.48,10,4.26,20.31-1.33,36.17-11.79,49.38-26.44,22-24.42,34.81-53.46,41.86-85.33,11.92-54,6.42-108.23,2.66-162.4C835,854.91,830.68,840.91,827.91,826.79Zm463.67-107.38c-1.72,3.22-2.62,4.6-3.24,6.1-11.85,28.58-29,53.87-48.17,77.93-11.52,14.41-23,28.94-33.57,44-13.79,19.56-23.6,41-26.91,65-5.53,40.24,7.57,76.3,25.15,111.24,1.15,2.27,6.34,3.73,9.53,3.53,17.9-1.1,32.6-9.5,45-21.93,25.41-25.52,39.48-56.95,46.68-91.76,8.41-40.66,8.84-81.6,3.58-122.67C1306.56,767.09,1303.83,743.19,1291.58,719.41Zm579.48,489.29c-5.45-32.94-21.11-66.72-58-86.83-33-18-58.33-8.61-73.89,25.45-2.75,6-8.33,11.8-14.07,15.3-22.21,13.56-31.82,37.8-23.48,62.14,13.59,39.66,72.56,72.14,113.28,61.75,14.86-3.8,28.45-10.2,31.14-28.23.29-1.9,2.37-4.18,4.21-5.09C1866.06,1245.42,1871.79,1232.24,1871.06,1208.7ZM1015.5,481c-7.12-42.42-14.09-83.93-21.06-125.44a11.68,11.68,0,0,1,4.8,5.6c13.36,27.18,26.6,54.42,40,81.56,14.18,28.6,14.23,28.42,45.08,21.3,5.59-1.3,8.08-3.27,8.34-9.48,1.17-27.49,3-54.95,4.46-82.42.68-12.58,1.21-25.16,1.81-37.74l1.78-.14c9.9,40.67,19.81,81.33,30,123.2l46.69-9.56c-14.7-50.7-29.09-100.31-43.69-150.68l-63.93,13.13c-1.34,35.18-2.67,69.82-4.12,107.67-2.7-5.57-4-8.23-5.29-10.93-12.33-26.51-24.52-53.09-37.14-79.46-1.3-2.7-5.5-6.27-7.73-5.89-18.11,3.14-36.07,7.13-54.94,11C967,384.89,973.31,436.2,979.71,488.4ZM1720.77,1136c6.79-11.93,12.33-23.93,19.89-34.5a205.88,205.88,0,0,0,34.6-81.12c2.94-15,3.81-31.58.67-46.4-8.34-39.38-28-73.34-57-101.55-5.75-5.61-12.86-9.82-18.38-14-1.13,24.46-.48,48.24-3.72,71.49-4.27,30.66-11.15,61-17.73,91.27-5.89,27.12-1.5,51.92,14,74.79C1702.29,1109.6,1711.71,1123,1720.77,1136Zm241.85-219.17,135.92-77.56L2081.65,810l-88.19,50.7c19-31.94,37.24-62.4,55.16-93,1.84-3.16,3.64-8.42,2.27-11-8.14-15.72-17.23-31-26.45-47.14L1888.5,787c6,10.49,11.31,19.66,16.89,29.35l104.9-60.21c-22.54,38.32-44.47,75.48-66.18,112.77-1.74,3-3.83,7.78-2.63,10.16C1947.85,891.7,1955.21,903.86,1962.62,916.87Zm-262.94,984.44,100,120.72c16.35-13.5,31.64-25.62,46.31-38.45a132.88,132.88,0,0,0,20-21.21c24.2-33.1,20.07-74.66-9.9-105.59-25.87-26.69-61.4-28.9-95.73-4.24C1739.76,1867.34,1720.71,1884.28,1699.68,1901.31ZM605.39,537.26l-31.52,27.41,43.45,47.14-41.39,37.73-41.69-39.72L501.82,639l111,106.73L644.24,718l-47.4-50.8,44.45-39.76c13.18,15.29,27.48,31.9,40.28,46.76L716,643.69ZM1177.53,2036.4c-3.17,21.45-6.13,41.54-9.19,62.3l-57-8.34c3-21.45,5.7-41.33,8.59-62.24l-43-5.78c-7.42,52.3-14.59,102.87-21.92,154.58l42.93,5.92c3.42-23.06,6.62-44.55,9.91-66.73l56.89,8.14-9.15,66.9,43,6c7.42-52.36,14.61-103.17,21.9-154.68Zm-634-203.85c2.49-.35,8.05-.85,13.49-2,39.1-8.07,68.55-42.45,66.83-78.46-1-21.82-10.8-40.1-25.1-56.08-26.39-29.5-64.42-36.42-98.55-18.17-35.11,18.77-51.34,51.23-42.65,85.32C467.61,1802.61,503.62,1832.74,543.55,1832.55ZM719.17,2037c4-29,7.59-55.7,11.16-82,10.42-1.33,19.93-1.58,28.92-3.88,25-6.39,35.35-28.79,24.42-52-2.49-5.3-5.25-11.09-9.47-14.88-20.9-18.73-42.32-36.86-64.21-55.77l-97.94,123.42L646.16,1979l34.33-43.12c11.52,4.42,14.45,11.16,10.85,22.37-4.25,13.21-6.93,27-9.65,40.62-.61,3.09.27,8,2.39,9.86C694.81,2018,706.19,2026.64,719.17,2037Zm980,47.93-68-48.41c2.75-6,5.29-10.88,7.35-16,14.06-35-5.36-60.64-42.7-56.49-2.77.31-5.71.29-8.24,1.29-25.49,10-50.92,20.27-77.09,30.73,21.6,49,42.41,96.33,63.41,144l39.7-17.61c-7.69-17.7-14.86-34.17-21.86-50.28,8.9-7.9,15.87-8.19,24,.08,10,10.15,21.18,19.17,32.25,28.18,2.4,2,7.12,3.38,9.73,2.37C1671,2097.63,1683.94,2091.58,1699.17,2084.89ZM996.56,900.62c5.18,36.82,19.62,70.44,45.33,99,16,17.77,35.63,28.73,59.67,31.13,26.58,2.65,53.15,5.27,80.51,8-.72-23.11-8.19-44.44-25.06-62.15s-38.11-27.81-60.21-36.6C1063.59,926.77,1030.27,913.84,996.56,900.62Zm751.32-266.15c1.1-.85,1.54-1,1.63-1.28q24.48-74.33,48.73-148.7c.62-1.89-.63-5.63-2.25-6.8-13.16-9.53-26.61-18.65-40-27.94l-127.6,102L1657.63,572c7.51-6.52,14.44-12.8,21.69-18.68,1.87-1.51,5.7-3.28,7-2.43,12.17,8,24,16.61,35.89,25q-4.11,13.29-8.21,26.56c-.31,1-1.11,2.06-.94,3,.39,2.1.57,5,2,6C1725.91,619.42,1737.07,627,1747.88,634.47Zm-841-113.71c-1-1.93-1.14-2.68-1.61-3.13q-55.35-53.11-110.94-106c-1.93-1.83-7.12-2.35-9.59-1.1-11.16,5.64-21.62,12.72-32.88,18.13-7.33,3.53-7.8,7.88-6.14,14.86,8.91,37.57,17.43,75.22,26.09,112.85,2.7,11.71,5.39,23.43,8.36,36.31,9.15-5.14,16.83-9.8,24.82-13.83,5.08-2.56,6-5.66,4.27-10.9-2.77-8.54-4.8-17.32-7.32-26.68,12.73-7.26,25-14.54,37.56-21.08,2-1,6.47.48,8.46,2.29,6.91,6.28,13.24,13.22,20.18,20.3ZM1316,2194.64c34.14-.5,34.31-.48,37.69-31.06.64-5.76,2.07-8.61,8.38-9.23,11.08-1.08,22-3.63,33.1-4.57,3-.25,7.62,2.3,9.16,4.93,3.65,6.27,5.62,13.49,8.9,20,1.16,2.32,4.32,5.48,6.25,5.27,13.63-1.48,27.19-3.74,41.7-5.88-22.61-48.38-44.33-95.11-66.51-141.63-1.25-2.63-6.37-5.11-9.45-4.85-11.78,1-23.41,3.84-35.19,4.7-8.72.64-11.53,4.42-12.59,12.72-3.53,27.64-7.9,55.17-11.89,82.75C1322.33,2149.77,1319.22,2171.76,1316,2194.64Zm-46.68-1744,43.14,4.74c2.69-22.45,5.25-43.52,7.75-64.6,2.52-21.32,5-42.64,7.45-63.75,25.34-.9,36.27,6.06,37.62,23.09,1.71,21.37-6,32.73-24.72,35.41-1.16,6.75-2.36,13.75-3.92,22.8,7.75,0,13.94.26,20.1,0,26.76-1.32,46.46-19.81,50.44-47.14,3.64-25-8.77-44.14-35-53.36a88.69,88.69,0,0,0-17.17-4.32c-17.25-2.37-34.56-4.31-51.85-6.35-5-.6-10.07-1-15.78-1.55C1281.32,347.51,1275.4,398.26,1269.28,450.65ZM1982.9,1837.91c25.18-17.83,45.5-37.88,52.16-68,4.19-19-1.7-35.11-17.36-47.15-14.94-11.47-30.75-11.71-47-3-7,3.79-13.77,8.16-20.8,12-4.87,2.64-9.94,6.5-15,6.7-5.9.23-13.92-1.23-17.33-5.16-3-3.4-3-12.77-.36-16.87,5.76-8.84,14-16.08,21.46-23.77,2.27-2.35,5.21-4.05,8.38-6.46l-19.37-21.49c-17.83,16.11-34.28,32.42-40.84,55.2-2.84,9.87-3.44,21.73-.82,31.56,6.77,25.38,34.49,37.17,58.5,26,12.9-6,24.75-14.41,37.93-19.5,5.11-2,14.89.21,18.34,4.16s4.44,14.44,1.54,18.61c-6.76,9.68-16.29,17.51-25.12,25.62-3.9,3.58-8.85,6-14.06,9.47ZM994,2002.94c-20.19-15.45-41.45-26.5-66.44-29.37-44.47-5.12-84.19,24.34-92.11,68.35-7.48,41.55,18.12,76.91,63.54,87.18a116,116,0,0,0,23.81,2.57c15.11.19,17.69-2.51,20.05-18.55-28-2.83-54.3-10.14-62-41.47-6-24.36,3.27-46.48,23-61.16,28.34-21.15,51.37-4,73.27,15.66ZM534.9,807.74c-8.2,37.84-22,55.69-46,59.92-20.51,3.62-50.17-10-60.73-29.34-16.35-30,1.58-50.47,22.33-70.39l-22.06-18.7c-23.62,27.25-38.84,56.34-34.47,92.79,5.63,47,56.76,81.33,101.41,68,30.42-9.08,53.67-41.46,56.29-78.37C552.81,815.1,551.77,813.58,534.9,807.74Zm990.9-468c-18.36,49.25-36.37,97.59-54.63,146.57l89.55,33.38c4.45-7.8,8.48-14.86,12.88-22.55l-52.53-19.89c15.45-41.54,30.32-81.53,45.49-122.34Zm42,668.91c5.53,24.46,10,49.41,17,73.6,4.71,16.14,12.07,31.76,20.16,46.56,6,10.94,16.89,17.59,29.47,20,23.29,4.41,43.53-4.18,63.93-14.85C1667.71,1077.07,1612.23,1048,1567.81,1008.69ZM1366.18,960l-3-.46c-22.08,20.47-42.12,44-66.8,60.58-24.84,16.73-54.27,26.63-81.77,39.55-.22-.38.14.62.82,1.35,48,51.36,117.21,36.49,137.51-30.55C1359.84,1007.72,1361.91,983.52,1366.18,960ZM717.54,1156.47c-9.28-35.27-23-62-58.34-73.34-31.06-10-61.3-22.86-86.82-44.31-.25-.21-1.18.38-2.45.83.22,26.67,11,49.66,25.45,71.4,11,16.61,25.68,29,45.25,33C665.59,1149.12,691,1152.26,717.54,1156.47Zm1136.4,254.75c7.32,33.64,18.13,60.84,38.78,83.28,15,16.27,33.28,26,55.63,27.58,12.8.9,13.91,0,13.57-12.65-1.06-40.45-31.74-81.88-70.47-93.32C1880.23,1412.8,1868,1412.94,1853.94,1411.22Zm-16.15-684.16,115.6-105.45L1924,589.39,1808.44,694.85Zm16.08,665.76c38.82,14.41,72.48,5.42,105.25-10.9,28.08-14,45.05-35.94,47.92-69.6C1948.78,1325,1894.58,1342,1853.87,1392.82ZM1771,1529.14l3.23,2.8c14-3.81,28.22-6.77,41.79-11.66,17.14-6.19,28.37-19.32,32.48-36.84,5.12-21.79.94-42.72-10.08-62.3-3.33-5.91-7.23-5.08-12.11-2.5-15.94,8.44-26.15,22.24-32.11,38.38C1785.45,1480.69,1778.63,1505.07,1771,1529.14Zm-579.84,299.59c-2.24,22.37-4.51,45-6.84,68.32h14.36c1.34-18,2.65-35.64,3.95-53.22,5.79,14.74,9.79,29.45,13.61,44.2,1.37,5.29,2.57,9.28,9.89,9.37s9.46-3,11.22-9.08c4.27-14.81,9.19-29.44,13.84-44.14l2.56.33v54h19c-1.39-23.66-2.73-46.42-4.13-70.18-5.35,0-9.57.57-13.56-.12-9.3-1.6-13.73,2-15.88,11.17-2.71,11.61-6.87,22.87-11.09,36.51-3-11.74-5.32-20.81-7.66-29.88-5.38-20.86-5.39-20.86-27.17-18.79C1193,1827.24,1192.73,1827.59,1191.15,1828.73Zm319.13,11.81-25.69-65.12-12.54,5.5c5.62,14.41,11,28.13,17.08,43.78l-31.6-24c-14-10.63-18-10.6-33.74.52l25.43,64.3,12.59-5.32c-6.79-17.37-13.15-33.64-20.24-51.81,15.38,11.64,29.55,21.2,42.3,32.39C1493.31,1849.05,1500.91,1846.54,1510.28,1840.54Zm-152.76-24.43c-22.76,0-39.24,15.59-39.18,37.15.06,21.81,13.93,36.37,34.48,36.2,22.18-.19,38.6-15.67,38.84-36.62C1391.91,1831.36,1377.76,1816.14,1357.52,1816.11Zm-264.25-7.69c-5.33,24.07-10.24,46.26-15.3,69.1l16.36,3.49,6.54-24.75c8.28,2.5,8.28,2.5,11.84,16.59,3.87,15.27,4.65,15.86,22.12,15.66l-11.22-33.41c1.86-1.23,2.94-2,4.12-2.7,7.72-4.2,14.14-9.48,13.13-19.35-1-10.17-8.62-14.8-17.23-17.37C1114.06,1812.81,1104.19,1811,1093.27,1808.42ZM2150.94,1436.2c5.13,9,10.08,16.89,20.74,13.68s13.66-12.64,14-22.21a35.47,35.47,0,0,0-4.27-17.72c-4.65-8.41-14.4-10-22.62-5-2.25,1.35-4.34,3-6.56,4.51-2.38-3.73-4.13-7.19-6.54-10.09-5-6-11.55-8.09-18.57-4.15-11.12,6.24-13.37,17.24-13.28,28.69.07,9.52,3.47,17.8,13,22C2137.24,1450.42,2143.79,1443.78,2150.94,1436.2Zm11.45-106.79c2.47-9.72,8.32-13.48,16.5-10,3.25,1.38,7.59,6.86,7,9.42-2,8.48-10,8.35-17,8.39-20.67.12-28-7.33-32.31-32.86H2128c-5.35,30.64,23.31,58,51.38,49.6,12.8-3.84,19.5-15.38,17.68-30.5-1.55-12.85-11.22-22.54-23.17-22.94-8.48-.28-15.32,3.16-18.09,11.34C2153.75,1318,2152.91,1324.85,2162.39,1329.41Zm-35.84-118.17c-1.32,28.24,21.67,49.81,48.49,46.36,13.2-1.7,21.71-10.12,23.19-22.95,1.51-13.08-5.12-25.75-16.1-30-8-3.07-16.73-3.5-22,3.64-3.41,4.6-3.65,11.85-4.3,18-.18,1.67,3.31,3.73,5.11,5.61,1.4-1.64,2.48-3.86,4.25-4.82,4.42-2.42,9.07-5.54,13.79-5.84,2.56-.17,5.45,4.86,8.19,7.54-3.41,3.38-6.25,8.52-10.32,9.84-21.57,7-35-2.13-41.72-28ZM922.66,1792.91l-1.77-1.24q5.31-20.1,10.62-40.19c4-15.38,3.66-16-12.68-21-5,22.06-10.11,44-14.83,66.11a8.5,8.5,0,0,0,2.41,6.84c10,8.73,12.66,8.57,22.65-.13q6.69-5.83,13.4-11.64l33.34-29-12.62-7.52Zm107.72,58.78-26.21-11.19q4.17-10.11,7.06-17.08c8.93-2.83,17.67,12.91,25.78-2.26l-21.26-9.25c2.31-5.74,4.32-10.76,6.67-16.61,6.08,2.35,11.69,4.08,16.88,6.66,6.92,3.42,11.09,2.21,12.76-6.6l-41.83-16.62L984,1844.36c12,4.82,23.42,9,34.44,14C1025,1861.27,1028.21,1859.43,1030.38,1851.69ZM379.76,1414.21c-1.72-13-3.54-24.94-4.8-37-.84-8-4.93-8.78-11.73-6.54,1.11,9.19,2.19,18.06,3.37,27.83L348.51,1401c-7-6.55,1.57-21.69-14.95-21.34.81,8.6,1.47,15.7,2.19,23.41l-17.24,2.22c-1.56-9-3-17.44-4.47-26H303.6c2.15,15.09,4.18,29.4,6.37,44.75Zm-83.52-129.42c1.61,12.75,1.23,23.86,4.93,33.39,2.06,5.31,10.47,9.77,16.84,11.39,7.58,1.93,14-3,17.5-10.38,2.24-4.71,3.38-10.1,6.32-14.27,2.28-3.23,6.56-5.05,10-7.5,2.46,3.74,6.79,7.39,7,11.24.29,6.26-2.14,12.65-3.52,19.5l10.84,2.31c4.81-13,6.18-25.44.1-37.79-3.87-7.87-11-13.25-19.37-11.18-6.2,1.53-11.95,7-16.6,12-3.11,3.33-3.18,9.37-6,13.14-2.36,3.12-6.78,4.69-10.29,6.95-1.95-3.7-5.05-7.26-5.56-11.16-.59-4.59,1.05-9.47,1.82-14.91Zm13.54-64.38,59.28,3.49c.46-5.8.86-10.8,1.34-16.86l-59.12-4.16v-19.81l-10-2.51c-1.18,18.87-2.6,36.82-3,54.79-.06,2.2,5.07,4.53,9.38,8.13C308.52,1233.93,309.1,1227.77,309.78,1220.41ZM1570,1726.71c-14.46,8.88-28.45,17.89-42.87,26.16-7,4-7.76,7.86-2.16,13.79,5.81-3.27,11.47-6.47,17.85-10.08l31.31,50.61,14.53-9c-10.38-17.09-20.43-33.63-30-49.32C1560.9,1740,1579.84,1742.28,1570,1726.71ZM2172.37,1138l-53.46,7.88c.68,5.86,1.25,10.85,2,16.9,12.32-1.73,23.59-3.29,34.86-4.9,11.59-1.65,23.17-3.35,36.12-5.23-5-11.35-9.35-21.3-14-31.1-.4-.85-3.5-1.43-4.43-.79a6.54,6.54,0,0,0-2.54,4.69C2170.91,1129.23,2171.71,1133,2172.37,1138Zm-1794.3,19.9,0-4.34c-3.77-2.62-7.74-7.53-11.28-7.24s-9,5.19-9.8,8.92c-1.37,6.1,3.35,11,9.79,10C370.81,1164.63,374.31,1160.49,378.07,1157.92Z"/><path class="cls-1" d="M1816.35,1973.79,1751,1894.91c21.06-29.56,49.82-31.61,73.83-5.65,1.18,1.28,2.34,2.58,3.42,3.93C1850.41,1921.07,1857.58,1947.63,1816.35,1973.79Z"/><path class="cls-1" d="M556.83,1705c23.2,0,37.5,19.7,30.73,42.27-7.39,24.68-39.34,48.32-65.17,48.23-22.81-.07-37.27-19.27-31.06-41.26C498.44,1729.06,530.53,1704.94,556.83,1705Z"/><path class="cls-1" d="M727.19,1876.94c11.07,8,22.61,14.72,20.06,30-1.93,11.5-9.37,19.09-20.2,23.2-14.5,5.49-20.81-6.92-31.07-13.85Z"/><path class="cls-1" d="M1581.55,2049.13l-20.08-45.58c11.12-6.23,21.79-12.89,34.09-5.14,10.33,6.51,13.88,16.92,12.89,28.81C1607.1,2043.3,1592.78,2043.28,1581.55,2049.13Z"/><path class="cls-1" d="M1702.75,533l56.31-50.17c-9.58,25-18.06,47.13-27,70.44Z"/><path class="cls-1" d="M826.47,500l-31,17.52c-6.88-23.81-13.44-46.57-20.91-72.46Z"/><path class="cls-1" d="M1392.51,2126l-35.24,5.08,6.32-71.1,1.73-.44C1374.14,2081.09,1383,2102.64,1392.51,2126Z"/><path class="cls-1" d="M1334.5,1849.52c1-11.3,6.13-19.41,14.36-21.41,8.93-2.17,17.81,2.63,21.93,13.25a46.55,46.55,0,0,1,3.22,18.15c-.35,8.83-4.32,16.37-14.09,18.2s-16-3.65-20-11.58C1337.33,1861,1336.25,1855.08,1334.5,1849.52Z"/><path class="cls-1" d="M1108.46,1820.15c6.36,5,12.45,7.54,14.26,11.87,1.43,3.45-1,10.78-4.22,13.28s-9.57,1.54-16.12,2.25C1104.53,1837.87,1106.06,1831,1108.46,1820.15Z"/><path class="cls-1" d="M2133.49,1435.55c-4.24-6.39-8.18-9.78-8.62-13.57-.73-6.33,2.68-12.62,9.83-11.86,4,.42,11.19,6.72,10.67,8.22C2143.54,1423.67,2139,1428.07,2133.49,1435.55Z"/><path class="cls-1" d="M2166.52,1438.66c-4.21-5.61-9.33-9.93-8.54-11.93,1.48-3.8,6.36-6.27,9.82-9.28,2.45,3.13,6.77,6.24,6.81,9.4S2170.44,1433.28,2166.52,1438.66Z"/></svg>