<svg id="Layer_1" data-name="Layer 1" xmlns="http://www.w3.org/2000/svg" viewBox="0 0 2485.9 2492.13"><defs><style>.cls-1{fill:#a62b2a;}</style></defs><path class="cls-1" d="M35.24,1245.78C36.14,577.47,578.92,34,1244.21,35.34c667.63,1.32,1207.47,545.19,1206.45,1215.47-1,664.32-545.72,1207.39-1209.63,1206C575.81,2455.39,34.35,1911.58,35.24,1245.78Zm1207.84,1145c628.87-.53,1140.12-509.39,1141.58-1141.38C2386.12,614.9,1875,101.76,1243.45,101.45,613.07,101.15,101,614.1,101,1245.89,101,1877.84,612.7,2390.79,1243.08,2390.74Z"/><path class="cls-1" d="M1685.8,1575.69q0-142.71-.07-285.41c0-8.21-1.14-16.41-1.39-24.63-.23-7.49.7-14.52,11-13.67,63,5.19,125.94-4.33,188.86.4,51.27,3.86,85,31.77,96.24,79.21a93.64,93.64,0,0,1,2.66,24.43c-1.71,51.88-1.46,103.76-.94,155.66.14,13.75-1.87,27.2-8.23,39.46-5.76,11.1-13,20.81-26.87,23.19-6.08,1-9.3,4.19-2.07,9.34,5.35,3.81,9.8,8.95,15.33,12.42,16.49,10.34,21.58,26,22.07,44.2q3,111.8-.6,223.56c-.72,22.59-1.12,22.63-23,22.94-25.12.35-50.24.4-75.36,1-6.79.16-9.37-1.51-9.09-8.84,1.75-46.47,1.46-93,2.43-139.48.75-36,.55-72.33.19-108.5-.08-7.78-3.16-10.41-10.9-11a425.43,425.43,0,0,0-55.54-.59c-17.7.89-17.73,1-17.84,18.2-.44,65.07-.72,130.14-1.4,195.2-.16,14.8-1.85,29.58-2.56,44.38-.34,7-3.27,10.26-10.61,10.11q-43.83-.85-87.68-1.14c-8.26,0-6.5-5.62-6.46-10.22.37-47.36,1-94.72,1.22-142.08.22-52.7,0-105.4,0-158.11Zm107.64-136.14c0,26.76.78,53.55-.37,80.26-.48,11.24,4.45,13.11,13.22,13.6,21,1.17,42-1.52,62.92-1.84,6.78-.11,7-3.74,6.91-8.69-.56-55.17-1.14-110.34-1.45-165.51,0-6.79-2.3-9.54-9.18-9.65-20.16-.31-40.35-.57-60.46-1.84-9.08-.57-10.76,2.75-11.18,11A781.49,781.49,0,0,0,1793.44,1439.55Z"/><path class="cls-1" d="M1125.29,1254.87c42-.85,84.06-2.69,125.48,6.37,39.29,8.59,69.66,27.51,77.76,70.53,2.84,15.1,1.66,30.42.61,45.58-4.24,60.82-4.24,121.76-5.66,182.66-1.64,70.36-3.92,140.7-2.13,211.11a175.51,175.51,0,0,1-5.36,47.68c-8.26,32.53-32.1,49.34-62.1,59.18-25.32,8.3-51.59,10.36-78,9.22q-58.67-2.52-117.24.29c-35.65,1.75-37.15-.38-36.27-35.68,4.56-184,2.69-368,4.87-552,.13-11.12.63-22.23.46-33.34-.14-8.81,3-12,12.37-11.8C1068.47,1255.29,1096.88,1254.87,1125.29,1254.87Zm90.38,316.31c4.62-71.22,4.92-142.44,3.66-213.67-.16-8.65-2.6-11.31-11.23-11-14.79.48-29.63-.4-44.45-.54-26.08-.24-26.09-.18-28,25.21-.35,4.52-.83,9-.88,13.56q-2.34,200.08-4.75,400.17c-.09,7.14,2,9.14,9,9,22.23-.39,44.48-.52,66.7.06,8.25.22,10.15-2.45,10.12-10.34C1215.55,1712.81,1215.67,1642,1215.67,1571.18Z"/><path class="cls-1" d="M643.36,1887.62c-19.13-1-43.83-1.54-68-7.38-50-12.07-75.3-43.92-72.85-95.12,4.76-99.22.83-198.47,2.59-297.7.77-43.19-3.44-86.44.72-129.64,5.48-56.86,35-91.22,91.68-100.34,45.72-7.35,92-6.28,137.52,4.53,43.93,10.45,66.6,39.94,72.21,83.47,3.55,27.53,1.16,55.06-1.92,82.54-.89,7.93-6.46,7.57-11.5,8.11-25.08,2.68-50.18,1.17-75.27-.23-24.25-1.36-24.13-1.34-23.14-25.58.75-18.52.93-37.06,1.8-55.57.33-6.86-1.73-9.34-8.89-9.2q-32.13.63-64.26,0c-7.13-.13-9.53,2.64-9.44,9.27.15,11.51,2,23.47-.46,34.45-4.89,22.12.41,43.79,0,65.64-1.44,74.95-3.06,149.89-4.16,224.84-.5,33.77.27,67.56,0,101.33-.07,7.47,1.74,11.47,9.66,11.52,21.41.12,42.82.28,64.23.6,8.69.12,7.43-6.67,7.47-11.36.18-20.18-.33-40.35-.46-60.53-.12-19.26-.05-19.54,19.28-19.59,25.13-.07,50.25.34,75.37.61,3.51,0,7.5-.91,8.27,4.73,6.27,45.68,10.36,91.45-14,133.5-20,34.56-54.1,44.72-91.33,47C675.29,1888.29,662.07,1887.62,643.36,1887.62Z"/><path class="cls-1" d="M1379.65,1571.39q2.17-151.36,4.23-302.72c.11-8.55,1.16-13.87,12.08-13.43,74.53,3,149.1.19,223.65,1.12,10.45.13,14,2.6,14.7,13.52,1.42,21.45,1,42.78.35,64.19-.23,8-2.6,11.19-11.15,12.2-31.71,3.72-63.36.24-95,.56-36.8.37-29.68-6.65-33.1,30.81-4,43.93-3.57,88-1.23,132.08.51,9.55,4.12,11.64,12.55,11.65,34.18,0,68.37.44,102.55.84,21.81.26,21.58.39,23.08,21.63,1.38,19.39-.35,38.68-.83,58-.21,8.37-2.93,11.35-11.46,11.25-38.71-.47-77.43,0-116.13-.82-9.54-.19-11.25,2.73-11.74,11.57-3,53.52-.44,107.1-2.42,160.61-.31,8.55,3.63,9,10.18,9.34,37.49,1.69,75-.74,112.43,0,20.21.37,16.17-1.31,16.1,16.62-.1,22.64.41,45.28-1.89,67.9-.75,7.37-2.79,9.57-10.32,9.5q-112.44-1-224.9-1.2c-8.75,0-10.72-2.8-10.86-11.22C1378.78,1774,1378.2,1672.72,1379.65,1571.39Z"/><path class="cls-1" d="M1902.9,941q0-10.65,0-21.31c.1-51.07.37-102.13.16-153.19,0-10,2.25-14.9,13.68-14.26,18.06,1,36.23.89,54.32.34,8.56-.26,10,3,10,10.7-.25,62.59-.06,125.18,0,187.78,0,82.36-.19,164.72.18,247.08,0,10.09-2.64,13.88-13,13.54-19.33-.62-38.71-.61-58,0-7.65.24-8.38-4.07-9.91-9.49q-24.8-87.75-53.7-174.25c-.88-2.62-.88-5.64-5.46-8.37v85.67c0,32.13-.28,64.25.17,96.37.12,8.25-2.46,10.53-10.49,10.31-19.34-.51-38.74-.77-58,.15-10.7.51-14-2.24-13.85-13.39.63-61,.44-121.9.45-182.85,0-82.77.15-165.54-.27-248.31-.06-11.9,2.49-16.84,15.69-15.68,18,1.58,36.21,1.25,54.32,1,9-.14,12.62,3.42,15.19,11.91,16.78,55.38,34.16,110.58,51.4,165.82,1.15,3.71,2.76,7.27,4.16,10.9Z"/><path class="cls-1" d="M862.26,1573.58c0-100.86.14-201.72-.21-302.59,0-10,2.75-13.47,13-13.73,29.24-.74,58.44-.43,87.67.39,8.18.23,11.05,2.37,10.91,11.23q-3.71,236.5-6.7,473-.86,66.07-.52,132.17c0,8.12-1.76,11.23-10.34,12.06-30.85,3-61.75-.52-92.58,1.46-9,.58-5.92-6.09-5.9-10.14.21-47.35.85-94.7,1-142,.2-53.94.05-107.88.05-161.81Z"/><path class="cls-1" d="M507.41,978.14c2-35.16-1.55-83.33-.79-131.51.23-14.84.84-29.76,5.56-44,10.81-32.51,36.62-47.41,67.93-51.14,29.72-3.55,60.07-3.71,89.75,3.09,37.82,8.67,56.94,31.45,58.73,70.17a289.89,289.89,0,0,1-1.83,48.1c-.8,6.65-3.22,8.87-9.56,9.67-21.88,2.76-43.6-.44-65.39-.88-5.75-.12-5.47-3.55-5.4-7.35.31-16.05.21-32.12,1.14-48.14.46-7.93-2.34-9.84-9.71-9.52-12.34.53-24.8,1-37-.1-11.27-1.06-13.9,3.25-13.94,13.65q-.32,80.43-1.7,160.87c-.8,45.7-2.45,91.39-1.67,137.12.18,10.39,2.89,15,13.86,14.34a279.67,279.67,0,0,1,35.81,0c7.86.52,10.26-2.61,10.13-9.56-.27-14.4,0-28.83-.91-43.2-.61-10,2.81-14.36,13-14,18.51.61,37,.83,55.57.91,5.22,0,7.29,2.1,7.79,7.13,2.38,23.8,4.37,47.53-1.82,71.16-7.88,30.14-26.76,49.15-57.42,54.08-35.66,5.74-71.56,4.7-106.61-4.49-31.4-8.24-48.36-31.12-46.88-63.9C508.29,1090.79,506.11,1041,507.41,978.14Z"/><path class="cls-1" d="M1537.87,980.55c0-72,.15-144.11-.16-216.16,0-10.56,3-13.89,14.12-13.69,51.87.95,103.75,1.09,155.63,1,9.19,0,12.92,2.21,13.2,12.15.39,14-.13,28,.17,42,.2,8.87-3.48,11-11.47,11.61-25.54,1.95-51-.27-76.54-.35-8.8,0-11.86,2.22-12.69,11.3-3.31,36.18-3,72.34-1.79,108.57.27,7.9,5.07,7.1,9.76,7.2,26.34.6,52.68,1.37,79,1.34,8.37,0,11.38,2.62,11.84,11,.78,14-.41,28,0,41.93.34,11.71-5.52,13.45-14.73,13.3-25.11-.42-50.24-.19-75.33-1.21-9.35-.39-12.37,2.54-12.4,11.54q-.21,56.82-1.23,113.64c-.14,7.69,4.48,7.67,9.55,7.67,24.7,0,49.4-.06,74.1-.1,17.61,0,17.56,0,17,18-.38,13.58-.84,27.17-.79,40.75,0,7.26-2.38,10-10.07,9.89-53.12-.61-106.24-1-159.36-.86-9.58,0-10.59-4-10.57-11.76q.28-109.34.11-218.67Z"/><path class="cls-1" d="M1376.16,1210.5c-32.52,0-65.05-.2-97.57.15-7.43.08-8.29-2.21-9.56-9.51-6.66-38.05,5.35-71.16,20.81-105.27,40-88.26,79.23-176.93,115.85-266.69,5.35-13.13,5.4-13.67-8.6-13.81-32.92-.34-65.86-.55-98.79,0-9.88.17-12.62-3.18-12.43-12.58.32-16,2.65-32,.34-48.07-.86-6,4.15-6.65,8.08-6.87,7.37-.42,14.8-.12,22.19,0,56,1,112,2.27,167.94,3,9.22.12,14.2,1.82,11.4,12.37-.81,3.06-.17,6.56.11,9.84,2.57,29.7-2.53,56.86-16.87,84.15-29.57,56.29-50.91,116.44-75.44,175.08-13.95,33.35-27.07,67-41.32,100.27-4.21,9.82-1.53,11.41,7.86,12.07,32.09,2.23,64.2.92,96.29,1.55,23.11.46,20.48-3,21.26,21.54.33,10.25-.71,20.55-.87,30.83-.12,8-3.4,11.48-11.93,11.38-32.91-.36-65.83-.14-98.75-.14Z"/><path class="cls-1" d="M971.45,1010.7c0-61.33-.24-122.67.24-184,.08-9.49-2.69-12.08-11.73-11.75-16,.58-32.09-.15-48.13.2-7,.15-9.51-2.55-9.48-9.27,0-14.81-.4-29.63-.41-44.44,0-9,3.2-13.35,13.85-13.31,65,.22,130.08-.11,195.12,1.55,7.64.19,10.88,1.67,10.65,10.22-.46,16.84-3.5,33.62-1.19,50.52.88,6.44-4.16,6.32-8.11,6.31-15.63,0-31.34.46-46.87-1-10.19-.92-13.15,1.18-13.32,11.91-1.89,114.86-1.86,229.72-2.13,344.58,0,11.87,3.87,27.38-2.07,34.61-6.09,7.4-22.35,3.09-34.15,3.85-10.24.65-20.55.83-30.81.49s-15.55-4.41-15.42-16.51c.63-61.33.29-122.67.29-184Z"/><path class="cls-1" d="M775.13,982.86c0-72.86.15-145.71-.18-218.57,0-10,3.24-13.75,13.25-13.42,19.73.63,39.5.63,59.25.58,7,0,8.76,2.7,8.67,9.62q-3,218.56-5.23,437.15c-.08,8.72-3,11.68-11.17,11.68-20.58,0-41.16,0-61.73.51-8.67.19-6.39-5.86-6.36-10.2.24-36.64.86-73.27,1.07-109.91.2-35.81,0-71.63,0-107.44Z"/><path class="cls-1" d="M1161.54,983.55c0-71.6.27-143.21-.26-214.81-.1-12.63,3.66-17.29,16.38-16.64,18.06.92,36.22,1.07,54.29.39,9.75-.37,11.27,3.35,11.13,12q-1.89,110.46-3,221c-.82,70.77-1.74,141.55-1.89,212.32,0,10.85-4,13.35-13.45,13.25-19.75-.21-39.51-.17-59.24.46-6,.19-6.92-2-6.77-7,.25-8.64.15-17.29.15-25.93q0-97.53,0-195Z"/><path class="cls-1" d="M1124.2,529.29c24.62-3.67,48.42-7.63,72.34-10.52,7.28-.88,10.71-4.18,13.58-10.15,10.4-21.69,21.09-43.25,32.82-67.18,11.59,23.61,22.27,44.73,32.29,66.16,3.29,7,7.38,10.49,15.39,11.46,23.51,2.83,46.9,6.65,71.14,10.2-16.92,17.37-32.31,34.31-49,49.83-7.84,7.28-9,14.27-7.13,23.89,4.32,22.14,7.85,44.44,12.1,69-22.92-12.05-44.28-22.87-65.2-34.5-7-3.88-12.36-3.76-19.25.06-20.8,11.53-42,22.36-65,34.49,4.08-23.91,7.35-46,11.81-67.94,2.16-10.65.74-18.09-7.89-26C1155.66,563.06,1140.7,546.28,1124.2,529.29Z"/></svg>