<svg id="Layer_1" data-name="Layer 1" xmlns="http://www.w3.org/2000/svg" viewBox="0 0 2485.9 2492.13"><defs><style>.cls-1{fill:#462929;}</style></defs><path class="cls-1" d="M1242.52,2492.13C558.68,2491.89-.5,1931.66,0,1247.3.51,558.9,558.85-.94,1244,0,1928.81.94,2486.43,560.8,2485.9,1246.92S1926.9,2492.38,1242.52,2492.13ZM35.24,1245.78c-.89,665.8,540.57,1209.61,1205.79,1211,663.91,1.4,1208.63-541.67,1209.63-1206,1-670.28-538.82-1214.15-1206.45-1215.47C578.92,34,36.14,577.47,35.24,1245.78Z"/><path class="cls-1" d="M1243.08,2390.74C612.7,2390.79,101,1877.84,101,1245.89,101,614.1,613.07,101.15,1243.45,101.45c631.53.31,1142.67,513.45,1141.21,1147.91C2383.2,1881.35,1872,2390.21,1243.08,2390.74Zm442.72-815h-.59c0,52.71.17,105.41,0,158.11-.2,47.36-.85,94.72-1.22,142.08,0,4.6-1.8,10.18,6.46,10.22q43.85.24,87.68,1.14c7.34.15,10.27-3.07,10.61-10.11.71-14.8,2.4-29.58,2.56-44.38.68-65.06,1-130.13,1.4-195.2.11-17.21.14-17.31,17.84-18.2a425.43,425.43,0,0,1,55.54.59c7.74.63,10.82,3.26,10.9,11,.36,36.17.56,72.47-.19,108.5-1,46.48-.68,93-2.43,139.48-.28,7.33,2.3,9,9.09,8.84,25.12-.61,50.24-.66,75.36-1,21.9-.31,22.3-.35,23-22.94q3.59-111.76.6-223.56c-.49-18.17-5.58-33.86-22.07-44.2-5.53-3.47-10-8.61-15.33-12.42-7.23-5.15-4-8.3,2.07-9.34,13.85-2.38,21.11-12.09,26.87-23.19,6.36-12.26,8.37-25.71,8.23-39.46-.52-51.9-.77-103.78.94-155.66a93.64,93.64,0,0,0-2.66-24.43c-11.29-47.44-45-75.35-96.24-79.21-62.92-4.73-125.91,4.79-188.86-.4-10.29-.85-11.22,6.18-11,13.67.25,8.22,1.38,16.42,1.39,24.63Q1685.9,1433,1685.8,1575.69Zm-560.51-320.82c-28.41,0-56.82.42-85.21-.25-9.4-.22-12.51,3-12.37,11.8.17,11.11-.33,22.22-.46,33.34-2.18,184-.31,368.06-4.87,552.05-.88,35.3.62,37.43,36.27,35.68q58.66-2.9,117.24-.29c26.41,1.14,52.68-.92,78-9.22,30-9.84,53.84-26.65,62.1-59.18a175.51,175.51,0,0,0,5.36-47.68c-1.79-70.41.49-140.75,2.13-211.11,1.42-60.9,1.42-121.84,5.66-182.66,1-15.16,2.23-30.48-.61-45.58-8.1-43-38.47-61.94-77.76-70.53C1209.35,1252.18,1167.26,1254,1125.29,1254.87ZM643.36,1887.62c18.71,0,31.93.67,45.06-.12,37.23-2.24,71.3-12.4,91.33-47,24.36-42,20.27-87.82,14-133.5-.77-5.64-4.76-4.69-8.27-4.73-25.12-.27-50.24-.68-75.37-.61-19.33,0-19.4.33-19.28,19.59.13,20.18.64,40.35.46,60.53,0,4.69,1.22,11.48-7.47,11.36-21.41-.32-42.82-.48-64.23-.6-7.92,0-9.73-4-9.66-11.52.31-33.77-.46-67.56,0-101.33,1.1-75,2.72-149.89,4.16-224.84.42-21.85-4.88-43.52,0-65.64,2.43-11,.61-22.94.46-34.45-.09-6.63,2.31-9.4,9.44-9.27q32.12.6,64.26,0c7.16-.14,9.22,2.34,8.89,9.2-.87,18.51-1.05,37-1.8,55.57-1,24.24-1.11,24.22,23.14,25.58,25.09,1.4,50.19,2.91,75.27.23,5-.54,10.61-.18,11.5-8.11,3.08-27.48,5.47-55,1.92-82.54-5.61-43.53-28.28-73-72.21-83.47-45.49-10.81-91.8-11.88-137.52-4.53-56.67,9.12-86.2,43.48-91.68,100.34-4.16,43.2.05,86.45-.72,129.64-1.76,99.23,2.17,198.48-2.59,297.7-2.45,51.2,22.9,83.05,72.85,95.12C599.53,1886.08,624.23,1886.64,643.36,1887.62Zm736.28-316.23c-1.44,101.33-.86,202.65.85,304,.14,8.42,2.11,11.22,10.86,11.22q112.45.14,224.9,1.2c7.53.07,9.57-2.13,10.32-9.5,2.3-22.62,1.79-45.26,1.89-67.9.07-17.93,4.11-16.25-16.1-16.62-37.47-.69-74.94,1.74-112.43,0-6.55-.3-10.49-.79-10.18-9.34,2-53.51-.54-107.09,2.42-160.61.49-8.84,2.2-11.76,11.74-11.57,38.7.78,77.42.35,116.13.82,8.53.1,11.25-2.88,11.46-11.25.48-19.34,2.21-38.63.83-58-1.5-21.24-1.27-21.37-23.08-21.63-34.18-.4-68.37-.8-102.55-.84-8.43,0-12-2.1-12.55-11.65-2.34-44.08-2.78-88.15,1.23-132.08,3.42-37.46-3.7-30.44,33.1-30.81,31.67-.32,63.32,3.16,95-.56,8.55-1,10.92-4.23,11.15-12.2.62-21.41,1.07-42.74-.35-64.19-.71-10.92-4.25-13.39-14.7-13.52-74.55-.93-149.12,1.93-223.65-1.12-10.92-.44-12,4.88-12.08,13.43Q1381.94,1420,1379.64,1571.39ZM1902.9,941l-3.07.41c-1.4-3.63-3-7.19-4.16-10.9-17.24-55.24-34.62-110.44-51.4-165.82-2.57-8.49-6.22-12-15.19-11.91-18.11.3-36.32.63-54.32-1-13.2-1.16-15.75,3.78-15.69,15.68.42,82.77.29,165.54.27,248.31,0,61,.18,121.9-.45,182.85-.12,11.15,3.15,13.9,13.85,13.39,19.31-.92,38.71-.66,58-.15,8,.22,10.61-2.06,10.49-10.31-.45-32.12-.17-64.24-.17-96.37v-85.67c4.58,2.73,4.58,5.75,5.46,8.37q28.86,86.5,53.7,174.25c1.53,5.42,2.26,9.73,9.91,9.49,19.33-.6,38.71-.61,58,0,10.33.34,13-3.45,13-13.54-.37-82.36-.17-164.72-.18-247.08,0-62.6-.2-125.19,0-187.78,0-7.72-1.44-11-10-10.7-18.09.55-36.26.67-54.32-.34-11.43-.64-13.72,4.24-13.68,14.26.21,51.06-.06,102.12-.16,153.19Q1902.89,930.31,1902.9,941ZM862.26,1573.58h-3.65c0,53.93.15,107.87-.05,161.81-.17,47.35-.81,94.7-1,142,0,4-3.1,10.72,5.9,10.14,30.83-2,61.73,1.55,92.58-1.46,8.58-.83,10.38-3.94,10.34-12.06q-.32-66.09.52-132.17,3.07-236.52,6.7-473c.14-8.86-2.73-11-10.91-11.23-29.23-.82-58.43-1.13-87.67-.39-10.2.26-13,3.69-13,13.73C862.4,1371.86,862.26,1472.72,862.26,1573.58ZM507.41,978.14c-1.3,62.84.88,112.65-1.37,162.48-1.48,32.78,15.48,55.66,46.88,63.9,35.05,9.19,71,10.23,106.61,4.49,30.66-4.93,49.54-23.94,57.42-54.08,6.19-23.63,4.2-47.36,1.82-71.16-.5-5-2.57-7.11-7.79-7.13-18.53-.08-37.06-.3-55.57-.91-10.22-.33-13.64,4-13,14,.88,14.37.64,28.8.91,43.2.13,7-2.27,10.08-10.13,9.56a279.67,279.67,0,0,0-35.81,0c-11,.66-13.68-4-13.86-14.34-.78-45.73.87-91.42,1.67-137.12q1.43-80.43,1.7-160.87c0-10.4,2.67-14.71,13.94-13.65,12.24,1.14,24.7.63,37,.1,7.37-.32,10.17,1.59,9.71,9.52-.93,16-.83,32.09-1.14,48.14-.07,3.8-.35,7.23,5.4,7.35,21.79.44,43.51,3.64,65.39.88,6.34-.8,8.76-3,9.56-9.67a289.89,289.89,0,0,0,1.83-48.1c-1.79-38.72-20.91-61.5-58.73-70.17-29.68-6.8-60-6.64-89.75-3.09-31.31,3.73-57.12,18.63-67.93,51.14-4.72,14.19-5.33,29.11-5.56,44C505.86,894.81,509.39,943,507.41,978.14Zm1030.46,2.41h-2.59q0,109.34-.11,218.67c0,7.77,1,11.79,10.57,11.76,53.12-.18,106.24.25,159.36.86,7.69.09,10.1-2.63,10.07-9.89-.05-13.58.41-27.17.79-40.75.51-18,.56-18-17-18-24.7,0-49.4.12-74.1.1-5.07,0-9.69,0-9.55-7.67q1-56.82,1.23-113.64c0-9,3-11.93,12.4-11.54,25.09,1,50.22.79,75.33,1.21,9.21.15,15.07-1.59,14.73-13.3-.4-13.93.79-27.91,0-41.93-.46-8.33-3.47-11-11.84-11-26.34,0-52.68-.74-79-1.34-4.69-.1-9.49.7-9.76-7.2-1.23-36.23-1.52-72.39,1.79-108.57.83-9.08,3.89-11.32,12.69-11.3,25.51.08,51,2.3,76.54.35,8-.62,11.67-2.74,11.47-11.61-.3-14,.22-28-.17-42-.28-9.94-4-12.16-13.2-12.15-51.88.07-103.76-.07-155.63-1-11.07-.2-14.16,3.13-14.12,13.69C1538,836.44,1537.87,908.5,1537.87,980.55Zm-161.71,230v-.7c32.92,0,65.84-.22,98.75.14,8.53.1,11.81-3.35,11.93-11.38.16-10.28,1.2-20.58.87-30.83-.78-24.59,1.85-21.08-21.26-21.54-32.09-.63-64.2.68-96.29-1.55-9.39-.66-12.07-2.25-7.86-12.07,14.25-33.22,27.37-66.92,41.32-100.27,24.53-58.64,45.87-118.79,75.44-175.08,14.34-27.29,19.44-54.45,16.87-84.15-.28-3.28-.92-6.78-.11-9.84,2.8-10.55-2.18-12.25-11.4-12.37-56-.74-112-2-167.94-3-7.39-.13-14.82-.43-22.19,0-3.93.22-8.94.86-8.08,6.87,2.31,16,0,32.06-.34,48.07-.19,9.4,2.55,12.75,12.43,12.58,32.93-.54,65.87-.33,98.79,0,14,.14,14,.68,8.6,13.81-36.62,89.76-75.83,178.43-115.85,266.69-15.46,34.11-27.47,67.22-20.81,105.27,1.27,7.3,2.13,9.59,9.56,9.51C1311.11,1210.3,1343.64,1210.5,1376.16,1210.5ZM971.45,1010.7h-3.67c0,61.34.34,122.68-.29,184-.13,12.1,5.21,16.17,15.42,16.51s20.57.16,30.81-.49c11.8-.76,28.06,3.55,34.15-3.85,5.94-7.23,2-22.74,2.07-34.61.27-114.86.24-229.72,2.13-344.58.17-10.73,3.13-12.83,13.32-11.91,15.53,1.41,31.24.92,46.87,1,4,0,9,.13,8.11-6.31-2.31-16.9.73-33.68,1.19-50.52.23-8.55-3-10-10.65-10.22-65-1.66-130.08-1.33-195.12-1.55-10.65,0-13.85,4.28-13.85,13.31,0,14.81.46,29.63.41,44.44,0,6.72,2.51,9.42,9.48,9.27,16-.35,32.11.38,48.13-.2,9-.33,11.81,2.26,11.73,11.75C971.21,888,971.45,949.37,971.45,1010.7ZM775.13,982.86h-2.39c0,35.81.16,71.63,0,107.44-.21,36.64-.83,73.27-1.07,109.91,0,4.34-2.31,10.39,6.36,10.2,20.57-.47,41.15-.52,61.73-.51,8.12,0,11.09-3,11.17-11.68q2.21-218.58,5.23-437.15c.09-6.92-1.7-9.64-8.67-9.62-19.75,0-39.52,0-59.25-.58-10-.33-13.29,3.41-13.25,13.42C775.28,837.15,775.13,910,775.13,982.86Zm386.41.69h-2.66q0,97.53,0,195c0,8.64.1,17.29-.15,25.93-.15,5,.76,7.16,6.77,7,19.73-.63,39.49-.67,59.24-.46,9.45.1,13.43-2.4,13.45-13.25.15-70.77,1.07-141.55,1.89-212.32q1.28-110.47,3-221c.14-8.68-1.38-12.4-11.13-12-18.07.68-36.23.53-54.29-.39-12.72-.65-16.48,4-16.38,16.64C1161.81,840.34,1161.54,912,1161.54,983.55ZM1124.2,529.29c16.5,17,31.46,33.77,48,48.84,8.63,7.87,10,15.31,7.89,26-4.46,21.89-7.73,44-11.81,67.94,23-12.13,44.2-23,65-34.49,6.89-3.82,12.27-3.94,19.25-.06,20.92,11.63,42.28,22.45,65.2,34.5-4.25-24.56-7.78-46.86-12.1-69-1.88-9.62-.71-16.61,7.13-23.89,16.71-15.52,32.1-32.46,49-49.83-24.24-3.55-47.63-7.37-71.14-10.2-8-1-12.1-4.44-15.39-11.46-10-21.43-20.7-42.55-32.29-66.16-11.73,23.93-22.42,45.49-32.82,67.18-2.87,6-6.3,9.27-13.58,10.15C1172.62,521.66,1148.82,525.62,1124.2,529.29Z"/><path class="cls-1" d="M1793.44,1439.55a781.49,781.49,0,0,1,.41-82.71c.42-8.21,2.1-11.53,11.18-11,20.11,1.27,40.3,1.53,60.46,1.84,6.88.11,9.14,2.86,9.18,9.65.31,55.17.89,110.34,1.45,165.51.06,4.95-.13,8.58-6.91,8.69-21,.32-41.88,3-62.92,1.84-8.77-.49-13.7-2.36-13.22-13.6C1794.22,1493.1,1793.44,1466.31,1793.44,1439.55Z"/><path class="cls-1" d="M1215.67,1571.18c0,70.81-.12,141.63.17,212.44,0,7.89-1.87,10.56-10.12,10.34-22.22-.58-44.47-.45-66.7-.06-7,.12-9.12-1.88-9-9q2.58-200.09,4.75-400.17c0-4.52.53-9,.88-13.56,1.94-25.39,2-25.45,28-25.21,14.82.14,29.66,1,44.45.54,8.63-.28,11.07,2.38,11.23,11C1220.59,1428.74,1220.29,1500,1215.67,1571.18Z"/></svg>