<svg id="Layer_1" data-name="Layer 1" xmlns="http://www.w3.org/2000/svg" viewBox="0 0 10151.72 2494.49"><defs><style>.cls-1{fill:#3a5f4f;}.cls-2{fill:#b0b1b4;}</style></defs><path class="cls-1" d="M1836.44,1363.43a7.12,7.12,0,0,0,.11,1C1836.51,1364.11,1836.48,1363.77,1836.44,1363.43Z"/><path class="cls-1" d="M3265.41,1510.42c-23.24-12.2-36.79-10.85-57.61,5.06-251.22,192-682.82,175.63-919.62-34.65-121.7-108.07-164.73-242.53-131.48-402.38,7.32-35.17,22.88-44.55,58.36-43.89,310.88,5.74,621.8,9.21,932.71,13.6,113,1.6,124.88-17.09,76.95-123.9a235.79,235.79,0,0,0-13.95-27c-59.37-97-147.61-160.19-253.35-191.64-328.06-97.56-638.53-61.36-921.1,141.14-94.4,67.65-161.86,157.36-193.12,271.54v0c-.56,1.53-24.71,69.73-6.75,245.07v0c0,.34.07.68.11,1,35.75,145.91,129,246.78,254.91,319.75,248.8,144.14,513.11,166.58,788.1,94.12,148.49-39.12,277.05-114.11,389.73-217.9C3291.78,1539.72,3298.57,1527.83,3265.41,1510.42ZM2204.92,935.06c56.49-131.45,208-214.69,375.76-207.74,143.62,6,246.76,87.56,293,246.25-223,0-439-.24-655,.2C2174.83,973.87,2198.91,949.05,2204.92,935.06Z"/><path class="cls-1" d="M4860.78,1494.6c1.55,180.71,37.81,212.05,218.15,199.41a618.87,618.87,0,0,0,65.43-7.81c27.89-5,28.67,14.19,33.26,32.76,5.92,24-9.62,24.1-25.32,26.56-181.93,28.5-363.91,56.67-545.62,86.49-26.44,4.33-32.6-3.61-32.31-27.73.61-50.71-.13-101.44-1.38-152.14-.31-12.7,7.27-29.58-6.37-37.43-13.95-8-24.28,7.38-35,14-127.3,79.07-261.53,141.45-409.54,170.44-249,48.77-478.67,2.2-680.35-152.42-226.95-174-251-477.84-55.54-686.88,147.4-157.67,337.65-238.3,545.64-280.57,184.45-37.49,370.31-26.62,555.65-9.08,47.76,4.53,65.11-3.79,62.06-55.87a2128.76,2128.76,0,0,1-.3-248.4c5.73-97.79-32.54-162-124.59-195.73-26.84-9.82-51.81-24.71-77.92-36.68-11.57-5.31-21.89-11.68-18.95-25.89,2.37-11.4,13.31-13.7,23.53-15.77,149-30.11,297.92-61,447.17-90.05,39-7.59,58.16,7.88,56.55,52.59-4.36,121.61-5.33,243.36-6.26,365.06s-.21,243.45-.21,365.17C4852.46,784.67,4858.75,1258,4860.78,1494.6Zm-294.05-195.44h-1.15c0-62.52,2.59-125.16-.49-187.52-9.11-185-110-306.35-289.66-349.19a787.14,787.14,0,0,0-322.09-9.64c-186,32.85-312.51,147.88-349.69,315.69-44.78,202.11,16.64,369.84,176.37,481.63,222.68,155.87,544.32,149.64,760.5-13.49,20-15.09,27.2-30.84,26.66-55C4565.82,1420.84,4566.73,1360,4566.73,1299.16Z"/><path class="cls-1" d="M8319.88,1795l-841.22.39c-13-37.45-4.34-51.11,39.65-51.92,199.8-3.71,243.81-49.5,242.61-249-.81-135.21,9.3-270.88-5.25-405.56C7735.24,899.68,7652.22,821.12,7462.43,802c-171.09-17.2-332.86,16.41-488.11,88-21.47,9.91-30.44,21.83-30.35,45.73.78,209.71-1.54,419.45,1.4,629.11,1.7,121.27,33.3,153.12,154,172.42,33.26,5.32,67.45,10.15,100.8,8.2,40-2.35,51.83,13,44.06,49.52-185.59.73-371.19,2-556.78,2-104.54,0-209.09-2-313.64-3.07-5.87-32.37,1.2-53.27,40.58-47.81,9.88,1.37,20.24-.43,30.36-1.13,156.29-10.8,202.16-59.76,202.43-217.07.27-159-2.82-318,1.09-476.86,2.54-103.62-40.74-171-135.51-208-1.58-.61-3.37-.95-4.67-1.94-15-11.4-45.82-8-43.33-34.89,2.1-22.68,28.55-20,45-25.33,96.38-31.44,193.17-61.59,289.8-92.26,37-11.75,73.74-24.66,111.08-35.34,47-13.46,61.78.52,55,49.06-6.08,43.21-11.5,86.51-17.44,131.53,32.72-1.21,54.69-18.47,78.91-29.1,206-90.48,416.44-161.3,646.14-146.41,35.32,2.29,70.89,6.35,105.44,13.79,177.23,38.16,272.69,155.52,277.18,348.79,3.9,167.33,1.21,334.82,1.46,502.23.27,172,17.63,192,188.82,217.23,10,1.48,20.32,4.46,30.15,3.47C8316.3,1739.81,8326.94,1759.55,8319.88,1795Z"/><path class="cls-2" d="M6599.54,2485.48c61.93-45,64.13-254.33,11.92-300.61,81.51-16.52,161-16.9,239.95.26,77.05,16.75,131.69,82.53,127.57,148.75-4.87,78.25-77.73,145.51-170,150.87C6743.62,2488.54,6677.87,2485.48,6599.54,2485.48Zm96.88-165.15h.22c0,32.09-.06,64.17,0,96.26.05,22.31,8.75,39.54,30.59,47.45,44.73,16.22,130.93-4.45,159.4-41.46,35.64-46.33,42.47-98.24,17.19-152.15-26.28-56.06-103.86-89.55-180.43-69.08-54.46,14.56-16.1,65.87-26.71,98.81C6694.73,2306.28,6696.42,2313.58,6696.42,2320.33Z"/><path class="cls-2" d="M7674.17,2482.52H7552.26c54.66-47.29,55.25-261.53-1.22-295.48,72.9-21.81,142.08-20.58,209.2,1.09,60.66,19.59,72.13,90.12,19.4,126.95-34,23.76-25,40-5.94,62.83,17.26,20.69,32.75,43.28,52.34,61.44,18,16.68,40.44,28.57,68.63,47.84-49,7.6-86.16-.05-115.91-30.6-24.58-25.25-46.25-53.38-68.7-80.65-13.74-16.68-29.7-28.87-52.18-23-26.72,7-15.6,30.24-16.25,46.72C7640.4,2430.49,7631.77,2466.12,7674.17,2482.52Zm2.84-288.64c-21.78-1.67-36.09,5.29-35.82,30.07.23,21.75,1.43,43.64-.4,65.25-3.25,38.45,17.27,46.87,49.38,41.46,38.12-6.42,66.73-21.62,64-67.86C7751.68,2221.67,7723.73,2195.7,7677,2193.88Z"/><path class="cls-2" d="M2706,2173.8c72,0,144.06-2.59,215.84,1,43.42,2.14,24,38,25.16,66.14-32.3-51.72-81.13-40.38-126.66-41.17-21.43-.37-33.14,9.09-29.48,30.19,4.8,27.71-18.52,69.22,17,80.38,33.2,10.42,79.36,18.93,96.6-40.1,24.63,33.28-.19,63.66,13.14,89.46,1,1.91-4.11,9.08-7.8,10.85-7.72,3.69-13.5-2.19-15.52-8.44-6.2-19.09-20.69-28.28-38.45-26.65-24.71,2.26-60.72-18.17-65.7,30.73-7,68.68,6,95.8,53.82,98.38,49,2.65,100.19,8.5,126.85-57.37,11.48,50.46,1.09,76.5-28.32,77.41-69.26,2.14-138.63.89-207.94.42-12.82-.09-26.76,4.67-43.77-9.61,56.66-7.68,50-47.78,49.58-85.3-.49-45.65-1.8-91.39.43-136.93,1.56-31.67-3.6-56.78-40.92-66.54Z"/><path class="cls-2" d="M7129.65,2485.31c58.17-39.16,65.58-249,2.39-310.92,78.35,0,150.32-4,221.49,1.71,35.29,2.85,24.55,38.34,20.87,69.5-26-53.35-71.19-45.38-114.48-46.33-29.71-.65-40.85,12.38-36.24,39.33,4.22,24.63-17,61.59,15.59,71.59,34.44,10.58,77.44,16.26,102.59-30.85v90.89c-22.46-6.19-23.81-33.36-44.82-34.13-23.05-.84-55-13-66.73,6.73-16.92,28.58-10.3,66.07-3.53,98.63,5,24.15,30.48,21.19,50.51,23.78,51.82,6.72,95.7-7.08,130.46-55.76.41,67.4-7.39,75.82-62,75.83Q7237.69,2485.33,7129.65,2485.31Z"/><path class="cls-2" d="M2294.42,2185.54c83.72-20,154.53-18.86,223,9.3,30.3,12.46,45.56,41.62,44.62,73.81-.88,30.43-19.14,53.92-46.75,67.44-25.72,12.59-52.56,22.68-82.78,14.65,3.69-21.36,23.88-15.92,35.8-22.88,37.08-21.65,46.21-52.76,30.21-90.29-16.17-37.92-50.69-40.47-85.78-37-18.48,1.82-17.92,17.24-17.93,30.84-.05,64.1.53,128.2,0,192.29-.27,30.86,18.87,43.42,46,52.23-44.44,14.37-87.86,8.17-134.11,7.43C2361.56,2431.66,2360.62,2217.84,2294.42,2185.54Z"/><path class="cls-2" d="M6163,2255.55c-75.27-76.41-170.64-84.64-232.41-25.48-51,48.88-50.35,145.21,1.4,197.44,63.93,64.52,153.79,57.38,231.17-18.36,11.83,25.52,5.65,56.18-18.68,66.57-82.1,35.05-222.51,21.34-280.68-54.09-61.8-80.13-29.71-187.19,67.16-229.64,58.13-25.47,118.59-23.27,179.39-18.7C6157.38,2176.82,6171.67,2204.48,6163,2255.55Z"/><path class="cls-2" d="M4203,2482.44H4082c24.72-26,21-79.69-4.4-105.52-18.65-19-96-16.54-113.42,3.55-26.61,30.74-28.3,74.41-.45,101.1H3860.46c39.4-19.79,51.49-56.34,66.51-91.19,26.71-62,54.81-123.42,81.34-185.49,6.48-15.16,15.33-28.16,30.93-30.41,22.48-3.23,20,19.54,25.06,31.63,26.14,62.23,49.94,125.45,75.86,187.77,13.81,33.2,20.36,73,72.31,76.87ZM4022.3,2235.78c-17.47,40.95-30.33,71.12-44.8,105,30.76,1.22,65.94,15.05,76.12-6.88C4067,2305.16,4042.61,2274.47,4022.3,2235.78Z"/><path class="cls-2" d="M3447.51,2260.41c-72.4-81.52-172.65-89.55-235.47-29.06-47.15,45.41-46.33,143.81,1.64,194.48,59.53,62.9,163.92,55.84,235.69-15.93,9.56,36.08,1.7,59.56-29.32,69-76.88,23.39-153.77,23-224.73-18.62-106.9-62.69-105.26-195.89,2-258.32,70-40.77,145.73-36.66,221.35-23.59C3465.28,2186.43,3445.07,2221.35,3447.51,2260.41Z"/><path class="cls-2" d="M4761.13,2476.14c43.42-6.79,48.16-35,47.45-68.62-1-47.29,1.37-94.71-.94-141.91-1.06-21.49,15-54.61-14.6-62.28-30.88-8-67-12.73-96.78,11.84-9.79,8.07-14.43,23.94-31.35,22.1.22-61.59,6.06-65.66,61.39-64.14,74.3,2,148.7.91,223.06.57,58.12-.27,58.12-.66,44.11,73.58-24.82-46.85-61.88-50.7-102.83-48.05-24.12,1.57-32.42,10.85-32.15,34,.75,64.2,2.15,128.5-.5,192.61-1.43,34.75,22.95,39.32,46.32,51.31C4857,2487.78,4810.83,2486.28,4761.13,2476.14Z"/><path class="cls-2" d="M5446.08,2174c-65.73,43.49-90.7,110.83-127.45,167.2-33.38,51.19-13.91,113.95,48.12,138.28H5205c36-15.48,57.42-33,53.13-72.89-3.54-32.91-9-62.08-28.35-89.4-16.5-23.27-30.48-48.53-43.65-73.9-13.61-26.23-36.28-42.5-68-58.63,41.53-19,76.73-8.05,110.58-10.39,9.45-.66,16.68,5.75,11,16.14-30.74,56.31,29.8,80.88,43.23,121.82,5.77,17.59,22.52,2.71,25.32-6.71,12.12-40.69,76.81-62.61,43-120-3.95-6.71,5.56-11.23,12.29-11.33C5391.06,2173.7,5418.57,2174,5446.08,2174Z"/><path class="cls-2" d="M1933.37,2395.08c35.55,44.09,61.1,81.09,113.39,73.33,23.34-3.47,44-8.31,51.7-32.89,7.23-23.18.37-44.09-19.16-58.63-17.53-13-36.43-24.32-55.13-35.71-39.5-24-82.17-47.49-72.16-103.72,8.06-45.33,53.85-68.23,122.13-66.57,63.72,1.55,69,7.07,61,69.91-25.5-23.5-45.31-52.58-83.29-50.23-23.62,1.46-44.7,6-52.78,30.63-7.66,23.39-.09,44,20.9,57.26,24.25,15.31,49.67,28.76,74.4,43.32,36,21.22,60.61,50.36,54.17,94.71-6.16,42.47-36.94,61.3-75.72,71.84-25.2,6.84-50,6.67-75.24,3.48C1949,2485.7,1927.74,2458.6,1933.37,2395.08Z"/><path class="cls-2" d="M8201.65,2245.47c-24-35.89-49.43-58.57-89.21-54.62-20.09,2-37,8.59-44.24,28.06-7.7,20.64-3,39.48,13.73,55.27,20.17,19,45.81,28.32,69.43,41.21,39.1,21.33,72.69,48.29,64.69,98.17-8.19,51-47.09,73.54-94.06,77.31-86.25,6.92-131.43-10.83-119.7-80.57,16.76-6.38,19.56,8.4,25,17.5,16.16,27.23,42.11,39.36,71.18,43,28.13,3.51,55.37-3.86,67.37-32.92,11.23-27.2-.9-50.18-23.82-65.8-25-17.08-52.84-30.24-77.36-48-29.63-21.43-56.79-49.07-44.92-88.84,12.2-40.87,46-61.13,88.6-63.68a440.43,440.43,0,0,1,55.69.62C8207.23,2175.12,8215.52,2199.28,8201.65,2245.47Z"/><path class="cls-2" d="M4602.45,2418.74c-3.89,36.52-6.07,68.57-57,67.08-71.81-2.1-143.72-.53-219.32-4.51,80.45-31.46,44.62-97.55,44.18-147-.45-50.57,35.2-117.36-51.56-153.61,53-12,96.16-6.8,143.27-1-41.94,18.31-40.94,51.72-39.37,87,1.8,40.35-.39,80.87.7,121.28.74,27.18-10.85,64.67,27.17,72.48,39.8,8.18,83.87,17.34,119.45-17C4578.92,2434.81,4580.23,2417.38,4602.45,2418.74Z"/><path class="cls-2" d="M6315,2477.67c40.72-10.94,49.46-40.74,44.68-71.91-11.43-74.57,35.67-160.82-43.07-227.07,42.84-13,87,9.2,129.75-5.67-52.44,55.51-52.29,272.33,7,307C6403.23,2488.2,6360,2485.28,6315,2477.67Z"/><path class="cls-2" d="M3599.72,2177.64h134.5c-58.22,45.25-58.76,260-1.62,304.13H3604.13C3659.66,2435.72,3658.78,2221.91,3599.72,2177.64Z"/><path class="cls-1" d="M6434.72,1510.42c-23.24-12.2-36.79-10.85-57.62,5.06-251.22,192-682.81,175.63-919.62-34.65-121.7-108.07-164.73-242.53-131.48-402.38,7.32-35.17,22.89-44.55,58.36-43.89,310.88,5.74,621.8,9.21,932.71,13.6,113.05,1.6,124.88-17.09,77-123.9a239,239,0,0,0-13.95-27c-59.38-97-147.62-160.19-253.36-191.64-328.06-97.56-638.53-61.36-921.09,141.14-94.4,67.65-161.87,157.36-193.13,271.54v0c-.56,1.53-24.72,69.73-6.75,245.07v0c0,.34.07.68.1,1,35.76,145.91,129,246.78,254.91,319.75,248.8,144.14,513.11,166.58,788.1,94.12,148.49-39.12,277.06-114.11,389.73-217.9C6461.08,1539.72,6467.88,1527.83,6434.72,1510.42ZM5374.23,935.06c56.49-131.45,208-214.69,375.75-207.74,143.63,6,246.76,87.56,293,246.25-223,0-439-.24-655,.2C5344.13,973.87,5368.21,949.05,5374.23,935.06Z"/></svg>