<svg id="Layer_1" data-name="Layer 1" xmlns="http://www.w3.org/2000/svg" viewBox="0 0 2905.99 2478.29"><defs><style>.cls-1{fill:#a62b2a;}</style></defs><path class="cls-1" d="M817.65,1160.69c-77.33-238.8-33.06-468.54,52.41-698.62-40.58,6.83-80,14.05-119.55,20C651.49,497,553.12,501,455.26,471.55,333.8,435,247.9,296.51,279.81,175,302.87,87.13,412.46.63,479.87,0c109.8-1,205.89,61.8,234.7,158.89,32.1,108.2-68,223.25-187.43,215.39-88.4-5.82-146.43-68-141.37-151.55C390,153.59,464.59,101.37,531,121.14c56.53,16.84,80.93,91,45,136.65-13.86,17.6-45.33,24.84-61.47,13-17.43-12.78-21-30.57-12.34-49.75,8.85-19.5,24.12-27.92,45.57-20.41,8.38,2.94,16.45,6.8,25.61,10.64-7.61-59.88-40-83.45-95.47-71.55C424,151.28,391,206.2,406.71,258.3c20,66.56,63.4,98,133.59,96.7,64.22-1.15,129.41-45.37,150.7-102.24,24.22-64.67,7.17-123-48.47-172.59-58-51.76-124.7-79-199.77-51.83-74.6,27-131,84.77-147.95,160.32-18.59,83.07,20.52,156.39,82.31,215.05,56.47,53.6,127.35,65.56,201,68.54,99.1,4,196.17-10,292.23-33.36,18.87-4.59,29-15.9,38.37-32.41,45-79.32,91.71-157.6,157.41-222.35,20-19.77,42-36.95,67.29-49.54,30.84-15.36,59.93-33.14,82.39-59.82,10.37-12.32,24.07-16.31,38.73-16.36,115.9-.37,231.8-.25,347.7-.28,27.63,0,51.1,7.56,74.13,25.47,36.65,28.5,78.75,49.9,116,77.69,87.15,65,151.09,149.64,200.4,245.87,5.12,10,10.63,19.8,16.25,30.22,12.83-5.73,11.93-17.19,15.45-26,44.78-112.76,92.49-223.19,178.05-313.52,87.11-92,205.25-98.23,300.08-61.21,74.77,29.19,107.37,93,123.87,167.27,37.62,169.39-105.07,261.35-211.27,264.16-67.4,1.78-121.15-23.53-154.26-85s-33.07-123.5.31-183.92c40.15-72.68,102.92-95.08,181.48-70,43.73,13.95,64.47,45.09,74,87.51,9.9,44-4,80.44-35.78,109.42-42.6,38.79-120.71,16.59-138.68-37.9-8.77-26.6-.81-47.85,22-56.91s41.72-2.36,52.82,18.54c13.33,25.1,3.16,43.61-21.38,55.47-2.61,1.26-4.68,3.65-11.26,8.92,23.68,14.43,47,14.87,68.36,6.86,28.69-10.74,42-36.38,46-65.45,10.85-79.19-61.9-134-146.79-111.24-54.74,14.64-95.23,79.47-93.37,149.48,3.37,126.77,109.14,190.35,230.52,137,63.58-27.93,115.95-71,122.63-144.45,7.85-86.42-12.68-168.82-89.26-219.29C2446.17,16.74,2311.81,19,2225,100c-60.39,56.33-96.19,128.94-133.26,200.76-25.76,49.89-43.37,102.85-60.75,156-3.55,10.86-3.62,19.7,1.91,29.41,92.31,162.26,94,340.76,90.58,519.47-.92,47.85-23.23,92.86-33.93,139.49-14.78,64.41-45.34,123.44-59.61,187.76-7.91,1.54-15.55,1.59-22-4.44,7.68-20.3,15.62-40.51,23-60.92,35.36-97.84,73.84-196,74.84-301.16,1.37-143.71-.87-288.09-67.21-421.64-7.51-15.11-8.1-39.61-25.75-41.15-11.28-1-16.57,23-23.76,36.47C1903,701.24,1799.47,844.16,1612.87,901.45c-32.81,10.08-64.66,20.91-99.41,21.51-92.66,1.59-184.45-2.83-270.52-42-23.19-10.55-29.85-2.41-30.25,19.32-.16,8.26-1,16.51-1.06,24.77-.7,141.33,63.59,260.86,127.76,380.42,4,15.49-8.09,18.46-17.94,23.2-6.71-29.6-22.6-55.3-35.22-82.38-40.64-87.26-82.12-174.1-92.75-271.75-12.33-113.25,18.94-215.75,78.86-309.72,40.72-63.87,85.85-125.14,146.51-172.6,14.64-11.46,5.4-16.65-5.45-20.75-46.2-17.43-92.86-32.89-142.16-39.76-99.69-13.9-198.23,3.4-297.34,7.7-62.45,2.71-91,34-109.46,87.45-52.79,152.63-73.32,310.08-66.93,470.43a278,278,0,0,0,34.59,122.35C827.23,1133.28,826.5,1148.41,817.65,1160.69ZM2003.58,466.64c-2.51-5.57-5-11.17-7.54-16.77-73.11-164-197.79-278.06-352.11-363.45-7.72-4.27-15.45-5.37-23.8-5.39q-180.24-.48-360.49-1c-7.23,0-15.7-2.47-20.88,3.22-39.16,43.07-95,62.62-138.83,98.07C1024.65,242.18,976,325.07,929.6,408.71c-7.78,14-6.44,21.51,12.4,18.23,50.08-8.72,100.81-10.83,151.38-14.78,97.75-7.62,193.77-4.5,288.48,26.62,176.2,57.88,289.08,179.65,355.91,347.65,11.62,29.2,18,27.45,37.84,9.84,98.85-87.56,167.21-196.48,223-314.44C2000.76,477.23,2001.81,472.1,2003.58,466.64ZM1483,906.06c84.59,7.43,156.45-33.66,229.94-69.33,16.41-8,13.65-20.38,8.9-34.26a498,498,0,0,0-54.45-111.22c-47.36-72.57-101-139-177-184.19-20.88-12.41-38.56-17.2-61.4,1.4-44.07,35.89-76.3,81.31-110.75,125.08-44.68,56.79-76.53,120.05-93.46,190.65-4.67,19.47,1.06,29.34,20.23,37.84C1320.46,895.51,1399.64,906.62,1483,906.06Zm921.76-638.2c-4.93-12.83-13.2-21.33-27.8-19.37-11.6,1.56-19.25,8.57-17.34,21,1.86,12.08,3.75,26.7,21.47,23.67C2394.2,290.93,2402.3,281.53,2404.71,267.86Zm-1844-30.13c-3.55-11.63-10.71-21-23.27-21.4-13.51-.37-20.93,8.68-19.73,22.27,1.09,12.34,7.14,22.77,21.13,21.79C551.42,259.52,559,250.94,560.72,237.73Z"/><path class="cls-1" d="M2015,1358.06c-56.11,157.25-139.64,297.06-259.09,415.11-37.78,37.34-75.89,73.51-121.85,100.24-17.18,10-17.89,19.12-10.25,37.09,42.59,100.2,83,201,80.26,313.25-2.65,110.57-60,185.9-153.93,233.45-79,40-154.73,19-225.41-28.69-95-64.1-123.78-183-66.72-283.32,30.71-54,69.48-97.18,137.18-104.44,71.66-7.68,140.55,29.44,181.46,101.45,31.78,55.93,27.83,121.94-9.67,169.2-35.21,44.36-77.58,66.45-135.83,49.83-48.66-13.89-73.88-47.29-84.34-93.91-8.2-36.58,6.51-65.33,36.57-85.58s62.87-20.46,94.29-3.84c20.27,10.72,24.65,31.5,16.53,51.27-8.52,20.75-28,28.06-49.22,22.36-21.73-5.86-31.93-21.9-28-45,1-6,3.65-11.68,5.66-17.83-48.48,3-73.08,55.4-48.42,101.24,22.09,41,58.26,59.65,106,54.52,36.4-3.91,81.91-46.64,92.68-87,18.41-69-25.55-150.38-99.6-184.39-67-30.79-143.33-7-184.76,57-34.45,53.23-43.3,111.69-33.88,172.89,11,71.33,66.22,104.6,123.25,133.53,107.27,54.41,203,3.1,268.13-93.25,55.89-82.66,45.57-173.83,18.79-263.35-16.29-54.43-38.29-107.17-58-160.56-4.41-12-9-24.81-26.24-14-90.52,56.67-179.22,32.8-261.89-14.22C1188,1816.84,1082.62,1715.26,1005.47,1584c-56.33-95.86-101.94-196.48-148.8-296.81-12.8-27.4-14-58.3-29.63-84.34,5.45-10.35,13.58-12.94,24.19-8.34.5,6.07.54,12.22,1.58,18.19,10,57.16,41.81,105.37,65,157.1,63.54,141.92,131,280.61,251.07,386.89,74.46,65.94,151.05,125.2,248.52,152.56,54.18,15.21,104.09,6.88,151.73-21.88,10.88-6.57,13.74-12.9,8.71-25-41.41-100.19-77.27-202.73-128.76-298.6-38.14-71-75.55-142.45-113.3-213.71l23-1.28c2.11,18.08,12.88,32.43,20.53,48.17,45.22,93,104.55,178.62,140.89,276.29,20.18,54.24,44,107.15,67.19,160.24,16,36.6,16.39,35.8,48.89,15.56,88.94-55.4,153.32-136.2,215.94-216.82,64.37-82.87,106.66-179.13,140.42-278.6C2000.49,1352.86,2008.22,1353.11,2015,1358.06Zm-538.33,855.27c-.86-12.95-8.06-21.23-20.44-22.83-13.84-1.79-20,6.73-21.27,19.85-1.32,13.92,6,22.05,18.6,22.54C1465.51,2233.36,1474.68,2226.59,1476.68,2213.33Z"/><path class="cls-1" d="M2493.5,1354.16c-33.11,0-66.21-.09-99.31,0-9.86,0-20.26-.92-22.35-12-2-10.75,9.51-8.14,15.33-10.8,10.11-4.61,12-12.89,12.32-22.89,2.88-83.79-2.53-167.71,4.79-251.49,1.33-15.16.77-35.19-24-35.9-6.64-.19-12.9-1.82-12.77-10,.15-9.61,7.72-11.67,15.18-11.81,23.79-.46,47.68,1,71.36-.75,44.25-3.21,90.91,11.45,132-17.2,8-5.58,16-.42,17.2,6.65a537.57,537.57,0,0,1,6.76,64.46c.31,6.37-3.5,15.1-13.18,14.06-7.37-.78-10.43-7.57-10.11-13.67,1.86-36-19.87-36.66-46.86-34.12a691.57,691.57,0,0,1-83.7,2.43c-15.34-.41-19.94,4.24-19.53,19.12.81,29,1.17,58.09-.44,87-1,17.81,7.29,21.69,22,21.11,22.73-.89,45.48-2.41,68.2-2.19,15.43.14,18.22-10.58,22.46-21.16,2.16-5.4,3-13.28,11.39-12,7.45,1.16,9.11,7.87,9,14.3-.26,20.71-.78,41.41-1.44,62.11-.21,6.48-2.18,13-9.89,13.32-7.47.36-11.43-5.63-11.66-12-.8-22.49-14.4-24.11-32-21.37-8.13,1.27-16.53,1-24.8,1.12-53.6.54-54.06.48-56.91,52.72-1.57,28.88-.56,57.9-2.14,86.78-1,17.72,5.52,23.63,23,22.93,30-1.19,60.13-1.36,90.14-.33,28.28,1,50.91-6.7,64.76-33.17,3.72-7.1,8-16.91,18.19-12.33,10.72,4.8,5.24,14.72,2.18,21.71-11,25.11-18,52.5-58.06,44.35-24.54-5-51.39,1.34-77.2,2.59C2493.49,1355.26,2493.49,1354.71,2493.5,1354.16Z"/><path class="cls-1" d="M370.19,991.91q46.46,2,92.9,4c5.17.21,10.76-1.22,15.45.29,13.4,4.32,24.71-20.77,35.31-5.64,11,15.69.4,36.16,1.18,54.55.26,6.26-3.84,12.58-10.94,13-8.33.53-10.19-7-9.78-12.9,1.74-25.13-12.55-28.18-33.2-27.94-29.92.35-59.93-1.31-89.79-3.62-20.56-1.59-27.69,6.41-27.26,26.55.65,29.94-.27,60-1.67,89.87-.69,14.59,3.1,20.63,18.91,19.18,19.53-1.8,39.34-.41,58.92-1.86,11.89-.88,25.47-.81,29.54-17,2-8.1,8.35-12.11,16.6-9.67,7,2.07,8.19,8.79,8.19,15.13,0,18.63-.14,37.26-.61,55.88-.14,5.8.92,13.56-7.54,14.4-6.95.69-11-4.76-13.86-10.56-4.71-9.43-1.23-27.17-16.64-26-28.76,2.13-58.11-3.56-86.23,5.36-6.91,2.2-5.52,10.5-5.33,16.43,1.39,41.3,3.07,82.6,4.73,123.9.12,3.07,1.2,6.13,1.14,9.19-.19,10.56,25.65,18,9.43,26.08-18,9-41.82,12.45-63,3.67-9.22-3.83-7.19-12.53.26-17,14.48-8.61,13.06-22.14,12.95-35.49-.76-85.78-1.91-171.56-2.09-257.34,0-13.84-.94-24.33-16.63-28.27-5.81-1.46-12.73-5.23-10.87-12.77,1.79-7.23,9.6-6.18,15.54-7.36C320.45,991.17,345.35,993.27,370.19,991.91Z"/><path class="cls-1" d="M851.23,1194.5c-10.61-4.6-18.74-2-24.19,8.34-12.14,31.73-24.62,63.36-36.27,95.29-4.88,13.36-11.21,26.95,9.32,35.71,12.22,5.21,6.16,13.9-3.43,16.22-23.38,5.68-47.12,2.29-70.68.19a8,8,0,0,1-7.57-8.3c0-6.63,5.29-9.37,10.17-9.53,32.66-1.08,36.61-26.19,44.59-49.86,13.81-41,34-79.63,44.48-121.86,8.85-12.29,9.58-27.42,14.45-41.11,11.94-35.25,24.25-70.36,35.6-105.77,3.2-10,6.88-16,18.62-16.57,12.94-.65,14.13,7.12,17.37,16.51,33.71,97.69,68.07,195.15,102.1,292.72,4.09,11.72,6.2,24.37,21.21,27.89,6.1,1.42,12.52,4.54,9.66,12.5-2.25,6.27-8.26,9.08-14.94,9.16-21.72.26-43.43.26-65.15.56-5.56.08-11-.85-12.89-6.3-2.66-7.61,3.9-13.45,8.89-13.94,24.41-2.4,17.72-16.27,12.77-30.43-6.47-18.54-13.5-37-18.42-55.93-9.28-35.74-22.87-63.82-68.47-52.61C870.12,1199.43,860.34,1195.61,851.23,1194.5Zm28-147.25c-14.37,41.56-25.7,74.18-36.9,106.85-2.09,6.12-3.36,13.41,5.47,14.22,19.44,1.79,39,2.7,58.52,3.13,8,.17,10.5-6,8.35-12.9C904.08,1124.46,893.09,1090.47,879.28,1047.25Z"/><path class="cls-1" d="M2015,1358.06c-6.79-5-14.52-5.2-22.45-4.51-14.43-.3-28.86-1.17-43.25-.78-26.86.72-53.7,2.45-80.56,3.16-9.53.25-20.11-1.54-22.12-12.78-1.87-10.52,8.78-9.14,15-11.36,11.55-4.09,10.64-14.07,10.85-23.22q3.23-136.41,6.22-272.84c.29-12.54,2.56-25.84-17.45-24.37-7.78.57-14.87-3.38-13.21-12.84,1.54-8.79,9.56-10.36,16.93-10.28,18.6.19,37.2,1,55.8,1.65,5.37.19,10.64,1.49,12.52,7.14,2.52,7.6-2.88,12-8.62,14-13.65,4.83-15.17,15.2-14.6,27.33,4.32,91-1.52,181.9-5.52,272.77-.69,15.73,5.43,19.46,19.77,18.82,27.83-1.26,55.73-1.14,83.6-1.59,6.4,6,14,6,22,4.44,31.39-6.17,42.48-33.13,58.28-55.78,5.07-7.25,9-23.26,22-15.91,14.62,8.22,3.22,19.56-1.64,29.18-1.39,2.75-3.88,5.05-4.82,7.9C2089.65,1341.21,2063,1365.41,2015,1358.06Z"/><path class="cls-1" d="M1339.39,1305.44q5.22-134.7,10.34-269.39c.41-11,2.62-23.35-13.55-26.78-6.42-1.35-11.09-5.88-8.36-13.65,2-5.57,6.53-7.22,12.09-7.79,52.93-5.38,105.84-7.33,154.49,18.69,46.94,25.12,55.62,86.29,19,127.1-9.59,10.7-19.63,17.11-1.08,30.28,37.18,26.41,37.36,65.91,25.65,103.69-11.88,38.32-39.12,65.57-80.59,73.27-32.5,6-65.44,9.47-98.68,7.85l-23,1.29c-12-2.25-28.69-1.37-14.3-21.34C1331.3,1323.9,1343.44,1320.93,1339.39,1305.44Zm39.9-27.09c-3.2,50.48-.14,53.05,50.28,44.45a61.62,61.62,0,0,1,6.11-1.09c52.19-3.51,75.36-37.5,71.32-102.84-2.49-40.25-23.08-50-84.42-44.86-5.16.43-10.29,1.1-15.43,1.57-21.24,1.94-30.35,12.17-28.31,34.66S1379.29,1255.63,1379.29,1278.35Zm0-203.32c0,79.83,4,84.17,66.6,71.23,29.29-6,48-24.86,54.63-52.73,5.93-24.84-6-46.27-23.58-63.48-13.63-13.33-31.22-19.63-49.91-22.89-43.87-7.67-47.76-4.46-47.73,40Q1379.33,1061.09,1379.32,1075Z"/></svg>