<svg id="Layer_1" data-name="Layer 1" xmlns="http://www.w3.org/2000/svg" viewBox="0 0 2407.39 2408.07"><defs><style>.cls-1{fill:#445060;}.cls-2{fill:#faf8ee;}.cls-3{fill:#fbf7ed;}.cls-4{fill:#eb594d;}.cls-5{fill:#ec5d52;}</style></defs><path class="cls-1" d="M2407,1263.76C2390.72,1551,2287,1802.18,2093.51,2014.9c-169.05,185.86-377.4,306.59-622.38,363q-199.28,45.9-402.77,22.16C619.92,2348.43,241,2055,78.83,1633.69c-43-111.88-68.77-227.75-76.18-347.43-18.3-295.36,58.12-564,235.21-801.12C422.9,237.34,669.17,83.2,972.54,21.22,1029,9.68,1086.12,3.22,1143.63.36c12.1-.48,108.77-.48,120.88,0,69.91,3.46,139.07,12.6,207.26,28.43,244.64,56.8,452.79,177.22,621.68,362.87,193.51,212.72,297.27,464,313.58,751.2C2407.51,1155,2407.51,1251.64,2407,1263.76ZM931.26,96.65C937.72,100,943,105,948.43,109.6c3.83,3.21,7.57,2.52,11.15.78,3.95-1.92,1-5.26.43-7.77-1.78-8.36-4.08-16.61-5.89-25-.8-3.7-2.21-4.7-6.06-3.75s-4.6,2.65-3.79,6.22c1.12,4.92,3.4,9.71,2.67,16.27-6.81-5.39-12.79-9.83-18.42-14.68-3.64-3.14-7.24-1.7-10.45-.22s-1.14,4.74-.6,7.14c1.76,7.82,3.74,15.59,5.59,23.38.86,3.62.83,7.43,6.82,5.94,5.71-1.42,3.7-4.58,3-7.86-.9-4.16-1.68-8.35-2.51-12.53C930.68,97.26,931,97,931.26,96.65ZM1204,2277.88c592.88,0,1075.16-481.93,1075.56-1074.85.41-592.57-482-1075.47-1074.65-1075.79C611.61,126.92,129.19,608.67,128.58,1202.11,128,1794.84,610.84,2277.85,1204,2277.88Zm-351.64-2155-1.66.54-10.15-14.18c-1.57-2.18-2.84-4.28-6.42-3.17s-4.17,3.26-4.25,6.56c-.12,5.81,1.14,11.78-1,18.67-4-5.89-7.41-10.65-10.45-15.66-2.74-4.52-6.09-2.38-9-.93-4.43,2.21-.55,4.51.64,6.27,5.24,7.76,10.86,15.26,16.07,23,2.11,3.15,4.1,4.16,7.92,2.78,3.62-1.3,5-3.08,5-6.94,0-5-1.29-10.24,1.14-16,3.44,4.66,6.44,8.42,9.07,12.42,2.09,3.18,4.21,4,8,2.64s4.89-3.28,4.75-7c-.34-9.09-.17-18.2-.55-27.28-.1-2.35,1.89-6.76-3.31-6.3-3.87.34-7.22,1.64-6.62,7C852.16,111.16,852.12,117.06,852.39,122.93Zm554.15-39.39c-1.38-7.09-2.57-12-3.23-17-.58-4.37-3.67-4.51-6.89-5.12-3.7-.71-4.57,1.71-5.51,4.3-3.06,8.54-6.17,17.06-9.2,25.61-.93,2.63-3,5.7,1.89,6.8,3.42.77,6.18.82,7.33-3.59,1.21-4.58,3.08-9,4.94-14.28,2.88,5.8,3,11.24,4.27,16.36.51,2,.49,4.5,3.28,4.84,2.32.28,3.06-1.81,4.07-3.3,3-4.48,6-9,9-13.52a47,47,0,0,1,.68,15c-.5,4.78,2.51,5.07,5.9,5.44,4.35.48,3.88-2.57,4-5.19.23-8.8.48-17.61.56-26.41,0-2.65,1.61-6.12-3-7-3.82-.77-7.14-1.3-9.38,3.26C1413.14,74,1410.22,77.78,1406.54,83.54ZM1173.17,2339.27l2.14-.44c4.34,5.75,9,11.32,12.93,17.31,2.8,4.2,6.62,4.43,10.55,3.59,4.22-.9,2.27-4.86,2.42-7.41.46-8,.39-16.05.69-24.08.14-3.82.06-6.72-5.2-6.8-5.62-.09-4.77,3.46-5.08,6.91-.42,4.5,1.12,9.28-1.68,14.34-5-6.56-9.69-12.37-14-18.49-2.75-3.93-6.54-3.51-10.07-2.78-3.71.77-2.1,4.43-2.22,6.79-.41,8.82-.44,17.66-.73,26.48-.1,3.31,1,4.89,4.58,4.87,3.33,0,5.82-.29,5.68-4.58C1173,2349.75,1173.17,2344.51,1173.17,2339.27Zm-95-2.62c-4.8-7.85-8.91-14.34-12.79-21-2.19-3.76-5.88-3.23-9.19-3.57-2.52-.26-2.78,1.93-3,3.86-1.12,9.82-2.14,19.66-3.45,29.46-.58,4.36,2,4.64,5.16,5.15,3.77.62,4.54-1.27,4.84-4.44.49-5.15,1.33-10.27,2.32-17.72,5.27,8.55,9.46,14.94,13.22,21.58,2.34,4.14,6.22,4.09,9.75,3.82s2.72-4.07,3-6.49c1.11-8.2,1.87-16.46,3-24.67.52-3.81.78-6.54-4.44-7.19-4.93-.61-5.23,2.09-5.68,5.48C1080.29,2325.68,1080.6,2330.57,1078.15,2336.65Zm414.38-33.31c-.56.67-1.12,1.34-1.69,2-5.6-4.31-11.34-8.47-16.77-13-3.52-2.94-7-2.13-10.5-.65-4.37,1.86-1.28,5.18-.76,7.59,1.87,8.61,4.29,17.1,6.3,25.69.79,3.36,2.31,4.34,5.69,3.37,3.21-.92,5.38-1.78,4.1-5.92-1.55-5-2.54-10.25-4.3-17.61,7.62,5.82,13.74,10,19.26,14.88,3.84,3.39,7.59,2.4,11.09.7,3.82-1.85,1-5.29.47-7.81-1.83-8.35-4.22-16.58-6.11-24.92-.86-3.8-2.64-4.54-6.27-3.65s-4.76,2.48-3.59,6.22C1490.8,2294.5,1491.53,2299,1492.53,2303.34Zm33-2194.87c4.51,7,6.58,14,8.81,20.63,1.67,5,5.12,6.93,9.4,7.2,4.62.29,3.72-4.49,4.64-7.17,2.62-7.55,4.72-15.29,7.13-22.92,1-3.34,1.64-6-3-7.3-4.25-1.23-5.6.37-6.72,4.14-1.42,4.81-2.08,10-5.53,15.18-3-7.72-6-14.3-8.17-21.13-1.49-4.65-4.67-6.37-8.85-6.7-4.92-.4-4,4.18-4.92,6.83-2.72,8.09-4.94,16.34-7.61,24.45-1.33,4,.67,5,4,6,3.43,1.09,4.85.1,5.76-3.16C1521.9,119.46,1523.64,114.47,1525.55,108.47ZM967.87,2296a20.29,20.29,0,0,0-20.51,20.25c-.09,11.7,9.45,20.78,21.85,20.79a20.29,20.29,0,0,0,20.55-20.22C989.93,2305.28,980.14,2296,967.87,2296Zm525.2-2199.2c0-11.61-9.71-20.69-22-20.61a20.12,20.12,0,0,0-20.22,20.43c0,11.64,9.66,20.73,22,20.68A20.38,20.38,0,0,0,1493.07,96.76Zm-387.75-7.35c12.55-.14,21.77-9.21,21.41-21-.34-11.25-9.44-19.8-21-19.72-12.17.09-21.44,8.81-21.48,20.22C1084.22,80.49,1093.49,89.54,1105.32,89.41ZM994.63,64.66a78.15,78.15,0,0,1-9.55,1.56c-5.35.31-6.74,2.69-5.64,7.77,1.85,8.58,3.41,17.24,4.76,25.92.64,4.09,2.29,5.57,6.39,4.47s8.45-1.44,12.41-2.88a18.92,18.92,0,0,0,11.78-21.24C1013.2,71.4,1005.31,64.81,994.63,64.66ZM918,2324.22c11.37.57,16.61-7.42,11.85-16.24-.91-1.69-2.15-2.5-.34-4.53,3.74-4.18,5.12-9.37.82-13.6-5.14-5.07-12.49-5.36-19.27-6.31-1.56-.22-1.93,2.24-2.32,3.78-2.37,9.28-4.69,18.58-7.15,27.84-.68,2.56-1.16,4.74,2.23,5.56C909,2322,914.12,2323.27,918,2324.22Zm514,2.12,2.55-1.78c2.07,2.75,4,5.65,6.25,8.22,3.76,4.26,9,2.2,11.47-.18s-2.68-4-4.2-6.14a10,10,0,0,0-2.4-2.12c-3.17-2.25-4.75-4-1.19-8,4.06-4.54,2.74-10.07-1.07-14.62-3.48-4.14-22.21-4-25.62.17a4,4,0,0,0-.57,2.92c2,10.22,4.15,20.42,6.19,30.63.8,4,3.51,3.17,6.17,2.62s4.56-1.5,3.71-4.81C1432.64,2331,1432.35,2328.66,1431.93,2326.34ZM1341.19,79.76c9.76,14.91,9.76,14.91,18.62,13.14-1.48-2.61-2.82-5.16-4.33-7.62-2.34-3.81-5.19-7.07,1.38-10.28,3.63-1.77,4.4-6.46,3.64-10.71-1.25-6.93-19.6-14.72-25.37-10.71a4.21,4.21,0,0,0-1.28,2.7c-1.42,10.3-2.73,20.61-4.1,30.91-.47,3.52,2,3.82,4.44,4.23s4.93.88,5.52-2.62C1340.14,86.26,1340.54,83.72,1341.19,79.76Zm-179.57-6.29c2.08,2.87,4,5.61,6,8.24,3.31,4.27,8.63,3.44,11.49,1.44,2.53-1.77-2.18-4.46-3.47-6.85a9.73,9.73,0,0,0-2-2.46c-3-2.81-3.57-4.65.33-7.93,4.92-4.13,4.34-10,.88-15.21-2.82-4.22-20.88-6.63-24.73-3.43A3.86,3.86,0,0,0,1149,50c.24,10.38.62,20.76.89,31.14.08,3.23,1.92,4,4.72,3.87s5.48,0,5.49-4C1160.06,78.76,1159,76.3,1161.62,73.47Zm177.12,2240.12c-2.92.34-5.85,1-8.76.93-6-.18-8,2.13-7,8.21,1.45,8.42,2.28,17,3.1,25.47.34,3.54,1.33,5.56,5.36,4.9,5-.84,10.14-1.07,15-2.29s7.9-4.52,8.13-9.74-4.54-7.48-6.36-11c-1.64-3.21,1.85-9-1.62-13.23C1344.63,2314.32,1341.76,2313.76,1338.74,2313.59ZM1015,2331c2.4,5.22,3.86,8.62,5.5,11.94,2.27,4.58,7.38,4.85,10.38,3.44,3.5-1.65-.84-4.7-1.5-7.2a9.74,9.74,0,0,0-1.49-2.83c-2.28-3.29-2.83-5.46,1.76-7.89,5-2.66,6-7.94,4.35-13.35s-19.4-12.62-24.28-9.63c-.91.56-1.45,2.16-1.66,3.37-1.67,9.74-3.16,19.52-4.83,29.26-.59,3.45.8,4.82,4.11,5.31,3.58.54,5.63-.24,5.85-4.27C1013.31,2337.07,1014.08,2335,1015,2331Zm248.41-11c-4.29-.58-6.68,1.19-8,5.62-2.56,9-5.74,17.71-8.48,26.61-.68,2.21-3.42,5.42.48,6.67,2.65.85,6.08,1.21,8.48-2.29,4.74-6.9,11.24-7,17.3-.53,2.76,2.94,6.25,2.12,8.85,1.07,3.38-1.36.53-4.15-.25-6-3.69-8.84-7.69-17.54-11.4-26.37C1269.09,2321.55,1267.64,2319,1263.42,2320ZM1385,2307.1c-4.24.15-8,1.2-8.89,7.22-1.4,9.23-3.7,18.33-5.49,27.51-.4,2.05-2.63,5.22,1.06,5.85,2.85.49,6.32.43,8.4-3,4.47-7.49,9.87-8.19,17.22-2.45,3.07,2.39,6.47,1.42,9-.21,3-1.95-.24-4.18-1.2-5.95-4.62-8.44-9.48-16.75-14.27-25.09C1389.65,2308.9,1388.82,2306.35,1385,2307.1Zm-137.71-2238c-2.75-7.75-4.94-13.36-6.71-19.1-1.71-5.52-6.32-5.1-9.76-3.93-3.84,1.31-.58,4.57.16,6.7,3.19,9.06,6.7,18,10,27,1,2.61,2,4.77,5.39,4.92,3.18.14,4.83-1,6.12-3.87,4.44-9.71,9.06-19.34,13.68-29,1.51-3.17,1.35-4.86-2.85-5-3.83-.13-6.53.39-8.08,4.55C1253.31,56.8,1250.62,61.89,1247.31,69.11Zm-195.48-14c-9.18-.14-14.7,3.85-15.66,11s2.31,10.91,11.63,13c2.72.62,6.84.48,6,4.56s-4.64,3.66-7.93,2.81c-1-.27-2-.83-3-1-2.69-.54-2.91,1.79-3.58,3.38s-1.49,3.87.84,4.84c6.51,2.71,13,2.62,19.14-1.14,5.35-3.28,6.18-8.44,5-14-1.49-7-7.48-7.46-13-8.59-2.06-.43-4.65-.65-4.34-3.56a3.54,3.54,0,0,1,4.81-2.94c4.94,1.63,7.57-.63,7.29-5S1054.11,55.78,1051.83,55.06Zm245.06-6c-6.28-2.12-8.45,1.34-8.35,8.15.08,4.79-.69,9.59-1,14.39-1.12,15.41-1.12,15.43,14.27,16.53,2.76.2,6,1.49,6.59-3.28s-2.27-5.16-5.76-5.39c-2.46-.16-5.89.57-5.36-3.82s3.93-2.62,6.24-2.49c3,.15,5.17.28,5.43-3.73.24-3.64-1.18-4.88-4.52-4.74-.79,0-1.6-.12-2.4-.17-2.11-.14-3.55-.9-3.46-3.38s1.62-3,3.74-2.9c1.33.1,2.69,0,4,.22,3.17.45,4.21-1.16,4.54-4,.36-3.25-1.14-4.25-4.09-4.38S1300.88,49.47,1296.89,49.06Zm299.35,74c3.11,1.77,4.43-.59,5.39-3.81,1.24-4.21-2.26-4.14-4.52-5-5.24-2-10.54-3.81-15.81-5.7-2-.73-3.8-.53-4.48,1.78-.54,1.85-2.69,4.59.29,5.51,7.41,2.3,3.76,6.73,2.48,10.66-1.65,5.07-3.39,10.12-5.42,15.05-1.52,3.68-.18,5.26,3.21,6.52,3.6,1.33,5.27.39,6.41-3.25,2-6.36,4.49-12.55,6.67-18.85C1591.32,123.44,1592.18,121.3,1596.24,123Zm-706.95-34c-2.9,1.15-7.75.55-5.86,6.67,2.84,9.16,5.43,18.4,7.93,27.66,1,3.8,3,4.41,6.47,3.18,2.89-1,4.58-2,3.44-5.63-2.94-9.4-5.5-18.93-8.24-28.4C892.52,90.78,892.19,88.75,889.29,89.07Zm245.3,2250.75h-.1c-.25,4-.47,8-.77,11.93-.25,3.38-.48,6.22,4.47,6.42,4.33.18,5.55-1.5,5.7-5.41.36-9.29.85-18.59,1.55-27.87.29-3.95-1.42-5-5-5.27-4-.26-5.16,1.44-5.19,5.06C1135.17,2329.73,1134.81,2334.77,1134.59,2339.82Z"/><path class="cls-2" d="M1204,2277.88c-593.19,0-1076.06-483-1075.45-1075.77.61-593.44,483-1075.19,1076.36-1074.87C1797.61,127.56,2280,610.46,2279.59,1203,2279.19,1796,1796.91,2277.91,1204,2277.88Zm.4-71.27c557.23-1.4,1003.32-453.65,1003.48-1003.76.17-549.93-445.64-1004-1003.77-1004S200.16,652.74,200.26,1202.73C200.35,1753.08,646.8,2205.58,1204.43,2206.61Z"/><path class="cls-3" d="M852.39,122.93c-.27-5.87-.23-11.77-.88-17.59-.6-5.35,2.75-6.65,6.62-7,5.2-.46,3.21,4,3.31,6.3.38,9.08.21,18.19.55,27.28.14,3.77-1,5.72-4.75,7s-5.91.54-8-2.64c-2.63-4-5.63-7.76-9.07-12.42-2.43,5.74-1.11,11-1.14,16,0,3.86-1.37,5.64-5,6.94-3.82,1.38-5.81.37-7.92-2.78-5.21-7.77-10.83-15.27-16.07-23-1.19-1.76-5.07-4.06-.64-6.27,2.91-1.45,6.26-3.59,9,.93,3,5,6.49,9.77,10.45,15.66,2.19-6.89.93-12.86,1-18.67.08-3.3.6-5.44,4.25-6.56s4.85,1,6.42,3.17l10.15,14.18Z"/><path class="cls-3" d="M1406.54,83.54c3.68-5.76,6.6-9.58,8.68-13.81,2.24-4.56,5.56-4,9.38-3.26,4.56.93,3,4.4,3,7-.08,8.8-.33,17.61-.56,26.41-.07,2.62.4,5.67-4,5.19-3.39-.37-6.4-.66-5.9-5.44a47,47,0,0,0-.68-15c-3,4.51-5.94,9-9,13.52-1,1.49-1.75,3.58-4.07,3.3-2.79-.34-2.77-2.82-3.28-4.84-1.31-5.12-1.39-10.56-4.27-16.36-1.86,5.29-3.73,9.7-4.94,14.28-1.15,4.41-3.91,4.36-7.33,3.59-4.87-1.1-2.82-4.17-1.89-6.8,3-8.55,6.14-17.07,9.2-25.61.94-2.59,1.81-5,5.51-4.3,3.22.61,6.31.75,6.89,5.12C1404,71.53,1405.16,76.45,1406.54,83.54Z"/><path class="cls-3" d="M1173.17,2339.27c0,5.24-.13,10.48,0,15.71.14,4.29-2.35,4.55-5.68,4.58-3.57,0-4.68-1.56-4.58-4.87.29-8.82.32-17.66.73-26.48.12-2.36-1.49-6,2.22-6.79,3.53-.73,7.32-1.15,10.07,2.78,4.28,6.12,9,11.93,14,18.49,2.8-5.06,1.26-9.84,1.68-14.34.31-3.45-.54-7,5.08-6.91,5.26.08,5.34,3,5.2,6.8-.3,8-.23,16.07-.69,24.08-.15,2.55,1.8,6.51-2.42,7.41-3.93.84-7.75.61-10.55-3.59-4-6-8.59-11.56-12.93-17.31Z"/><path class="cls-3" d="M1078.15,2336.65c2.45-6.08,2.14-11,2.78-15.71.45-3.39.75-6.09,5.68-5.48,5.22.65,5,3.38,4.44,7.19-1.12,8.21-1.88,16.47-3,24.67-.33,2.42.59,6.21-3,6.49s-7.41.32-9.75-3.82c-3.76-6.64-8-13-13.22-21.58-1,7.45-1.83,12.57-2.32,17.72-.3,3.17-1.07,5.06-4.84,4.44-3.11-.51-5.74-.79-5.16-5.15,1.31-9.8,2.33-19.64,3.45-29.46.22-1.93.48-4.12,3-3.86,3.31.34,7-.19,9.19,3.57C1069.24,2322.31,1073.35,2328.8,1078.15,2336.65Z"/><path class="cls-3" d="M1492.53,2303.34c-1-4.37-1.73-8.84-3.08-13.11-1.17-3.74-.14-5.3,3.59-6.22s5.41-.15,6.27,3.65c1.89,8.34,4.28,16.57,6.11,24.92.55,2.52,3.35,6-.47,7.81-3.5,1.7-7.25,2.69-11.09-.7-5.52-4.87-11.64-9.06-19.26-14.88,1.76,7.36,2.75,12.57,4.3,17.61,1.28,4.14-.89,5-4.1,5.92-3.38,1-4.9,0-5.69-3.37-2-8.59-4.43-17.08-6.3-25.69-.52-2.41-3.61-5.73.76-7.59,3.47-1.48,7-2.29,10.5.65,5.43,4.53,11.17,8.69,16.77,13C1491.41,2304.68,1492,2304,1492.53,2303.34Zm.08,2-.44-.26-.06.91c.16-.06.36-.09.46-.21S1492.6,2305.51,1492.61,2305.36Z"/><path class="cls-3" d="M1525.55,108.47c-1.91,6-3.65,11-5.07,16.08-.91,3.26-2.33,4.25-5.76,3.16-3.28-1-5.28-2-4-6,2.67-8.11,4.89-16.36,7.61-24.45.89-2.65,0-7.23,4.92-6.83,4.18.33,7.36,2,8.85,6.7,2.19,6.83,5.14,13.41,8.17,21.13,3.45-5.16,4.11-10.37,5.53-15.18,1.12-3.77,2.47-5.37,6.72-4.14,4.6,1.33,4,4,3,7.3-2.41,7.63-4.51,15.37-7.13,22.92-.92,2.68,0,7.46-4.64,7.17-4.28-.27-7.73-2.19-9.4-7.2C1532.13,122.42,1530.06,115.52,1525.55,108.47Z"/><path class="cls-3" d="M930.37,97.55c.83,4.18,1.61,8.37,2.51,12.53.7,3.28,2.71,6.44-3,7.86-6,1.49-6-2.32-6.82-5.94-1.85-7.79-3.83-15.56-5.59-23.38-.54-2.4-2.69-5.61.6-7.14s6.81-2.92,10.45.22c5.63,4.85,11.61,9.29,18.42,14.68.73-6.56-1.55-11.35-2.67-16.27-.81-3.57,0-5.26,3.79-6.22s5.26,0,6.06,3.75c1.81,8.36,4.11,16.61,5.89,25,.53,2.51,3.52,5.85-.43,7.77-3.58,1.74-7.32,2.43-11.15-.78C943,105,937.72,100,931.26,96.65a9.78,9.78,0,0,0-.9-.94C929.57,96.29,929.8,96.93,930.37,97.55Z"/><path class="cls-3" d="M967.87,2296c12.27,0,22.06,9.32,21.89,20.82A20.29,20.29,0,0,1,969.21,2337c-12.4,0-21.94-9.09-21.85-20.79A20.29,20.29,0,0,1,967.87,2296Zm11.34,20.23a10.51,10.51,0,0,0-11-10.2A10.39,10.39,0,0,0,958,2316.86a10.7,10.7,0,0,0,10.92,10.34A10.89,10.89,0,0,0,979.21,2316.19Z"/><path class="cls-3" d="M1493.07,96.76a20.38,20.38,0,0,1-20.26,20.5c-12.34,0-22-9-22-20.68A20.12,20.12,0,0,1,1471,76.15C1483.36,76.07,1493.06,85.15,1493.07,96.76Zm-21-10.81a11.07,11.07,0,0,0-10.93,10.49,10.93,10.93,0,0,0,10.49,10.89,10.69,10.69,0,0,0,.44-21.38Z"/><path class="cls-3" d="M1105.32,89.41c-11.83.13-21.1-8.92-21.06-20.55,0-11.41,9.31-20.13,21.48-20.22,11.55-.08,20.65,8.47,21,19.72C1127.09,80.2,1117.87,89.27,1105.32,89.41ZM1116.08,69a10.56,10.56,0,0,0-10.56-10.66A10.67,10.67,0,0,0,1094.87,69a10.61,10.61,0,0,0,21.21,0Z"/><path class="cls-3" d="M994.63,64.66c10.68.15,18.57,6.74,20.15,15.6A18.92,18.92,0,0,1,1003,101.5c-4,1.44-8.31,1.78-12.41,2.88s-5.75-.38-6.39-4.47c-1.35-8.68-2.91-17.34-4.76-25.92-1.1-5.08.29-7.46,5.64-7.77A78.15,78.15,0,0,0,994.63,64.66Zm10.19,18.93a23.45,23.45,0,0,0-1.45-4.53c-2.18-4.23-5.88-6.68-10.5-5.31-5.32,1.58-1.53,5.77-1.49,8.78,0,2.37.87,4.71,1.12,7.1.67,6.58,4.22,5.6,8.11,3C1003.44,90.76,1004.71,87.82,1004.82,83.59Z"/><path class="cls-3" d="M918,2324.22c-3.86-.95-9-2.24-14.18-3.5-3.39-.82-2.91-3-2.23-5.56,2.46-9.26,4.78-18.56,7.15-27.84.39-1.54.76-4,2.32-3.78,6.78.95,14.13,1.24,19.27,6.31,4.3,4.23,2.92,9.42-.82,13.6-1.81,2-.57,2.84.34,4.53C934.59,2316.8,929.35,2324.79,918,2324.22Zm-5.32-11.95c-.38,3.23,2.13,3.22,4.1,3.46,2.66.31,4.91-.57,4.83-3.72s-2.57-3.7-5-4.23C912.66,2306.9,913.66,2310.46,912.66,2312.27Zm10.25-15.79a3.39,3.39,0,0,0-3.84-3.1c-2.14.31-2.39,2.54-2.46,4.37-.09,2.11,1.39,2.59,3.12,2.41C921.87,2299.93,922.93,2298.65,922.91,2296.48Z"/><path class="cls-3" d="M1431.93,2326.34c.42,2.32.71,4.68,1.29,7,.85,3.31-1.09,4.27-3.71,4.81s-5.37,1.4-6.17-2.62c-2-10.21-4.18-20.41-6.19-30.63a4,4,0,0,1,.57-2.92c3.41-4.14,22.14-4.31,25.62-.17,3.81,4.55,5.13,10.08,1.07,14.62-3.56,4-2,5.7,1.19,8a10,10,0,0,1,2.4,2.12c1.52,2.15,6.78,3.63,4.2,6.14s-7.71,4.44-11.47.18c-2.27-2.57-4.18-5.47-6.25-8.22Zm-.22-10.43c2.7-.71,4.7-2.13,4.57-4.91s-1.91-4.28-4.73-4.36-3.94,1.28-3,4C1429.22,2312.6,1428.13,2315.79,1431.71,2315.91Z"/><path class="cls-3" d="M1341.19,79.76c-.65,4-1,6.5-1.48,9-.59,3.5-3.09,3-5.52,2.62s-4.91-.71-4.44-4.23c1.37-10.3,2.68-20.61,4.1-30.91a4.21,4.21,0,0,1,1.28-2.7c5.77-4,24.12,3.78,25.37,10.71.76,4.25,0,8.94-3.64,10.71-6.57,3.21-3.72,6.47-1.38,10.28,1.51,2.46,2.85,5,4.33,7.62C1351,94.67,1351,94.67,1341.19,79.76Zm5.32-8.65a4.19,4.19,0,0,0,3.64-4.23c.15-2.91-1.87-4.45-4.33-4.77-3.78-.5-3,2.83-3.39,4.91C1342,69.34,1342.31,71.32,1346.51,71.11Z"/><path class="cls-3" d="M1161.62,73.47c-2.65,2.83-1.56,5.29-1.56,7.53,0,4-2.8,3.83-5.49,4s-4.64-.64-4.72-3.87c-.27-10.38-.65-20.76-.89-31.14a3.86,3.86,0,0,1,1.14-2.72c3.85-3.2,21.91-.79,24.73,3.43,3.46,5.19,4,11.08-.88,15.21-3.9,3.28-3.35,5.12-.33,7.93a9.73,9.73,0,0,1,2,2.46c1.29,2.39,6,5.08,3.47,6.85-2.86,2-8.18,2.83-11.49-1.44C1165.59,79.08,1163.7,76.34,1161.62,73.47Zm.32-19.41c-3-.15-2.9,2.13-2.77,4.26s-.7,5.22,3.23,4.84c2.68-.26,4.49-1.77,4.43-4.57S1164.72,54.57,1161.94,54.06Z"/><path class="cls-3" d="M1338.75,2313.6c3,.16,5.88.72,7.91,3.21,3.47,4.25,0,10,1.62,13.23,1.82,3.55,6.6,5.88,6.36,11s-3.36,8.56-8.13,9.74-10,1.45-15,2.29c-4,.66-5-1.36-5.36-4.9-.82-8.51-1.65-17-3.1-25.47-1-6.08,1-8.39,7-8.21C1332.89,2314.61,1335.82,2313.93,1338.75,2313.6Zm1,22.68c-2.93.09-4.83.89-4.28,4.19.36,2.08.26,4.46,3.5,3.71,2.26-.53,4.92-.77,5.13-3.84S1342,2336.47,1339.71,2336.28Zm.22-10.8a3.77,3.77,0,0,0-2.86-3.59c-1.72-.45-3.4-.12-3.5,1.84s-.64,4.51,2.12,5.11C1337.7,2329.27,1339.08,2327.92,1339.93,2325.48Z"/><path class="cls-3" d="M1015,2331c-.93,4-1.7,6.07-1.81,8.15-.22,4-2.27,4.81-5.85,4.27-3.31-.49-4.7-1.86-4.11-5.31,1.67-9.74,3.16-19.52,4.83-29.26.21-1.21.75-2.81,1.66-3.37,4.88-3,22.62,4.1,24.28,9.63s.67,10.69-4.35,13.35c-4.59,2.43-4,4.6-1.76,7.89a9.74,9.74,0,0,1,1.49,2.83c.66,2.5,5,5.55,1.5,7.2-3,1.41-8.11,1.14-10.38-3.44C1018.87,2339.62,1017.41,2336.22,1015,2331Zm4.52-16.55c-3.41.13-2.73,3.08-3.18,5.18-.53,2.51.32,4.25,3.19,4,2.61-.23,4.54-1.59,4.57-4.45S1022.3,2315,1019.53,2314.45Z"/><path class="cls-3" d="M1263.42,2320c4.22-1.09,5.67,1.51,7,4.74,3.71,8.83,7.71,17.53,11.4,26.37.78,1.89,3.63,4.68.25,6-2.6,1-6.09,1.87-8.85-1.07-6.06-6.48-12.56-6.37-17.3.53-2.4,3.5-5.83,3.14-8.48,2.29-3.9-1.25-1.16-4.46-.48-6.67,2.74-8.9,5.92-17.66,8.48-26.61C1256.74,2321.23,1259.13,2319.46,1263.42,2320Zm0,14.64c-.69,3.18-4.9,5.93-1.48,9.25.62.6,3.14.39,3.75-.33C1268.71,2340,1264.78,2337.67,1263.44,2334.68Z"/><path class="cls-3" d="M1385,2307.1c3.8-.75,4.63,1.8,5.81,3.84,4.79,8.34,9.65,16.65,14.27,25.09,1,1.77,4.18,4,1.2,5.95-2.51,1.63-5.91,2.6-9,.21-7.35-5.74-12.75-5-17.22,2.45-2.08,3.47-5.55,3.53-8.4,3-3.69-.63-1.46-3.8-1.06-5.85,1.79-9.18,4.09-18.28,5.49-27.51C1377,2308.3,1380.78,2307.25,1385,2307.1Zm-.19,14.59c-.09,3.29-3,6.27-.71,9.36.51.67,4.72-.09,4.93-.83C1390.05,2326.63,1387.49,2324.19,1384.83,2321.69Z"/><path class="cls-3" d="M1247.31,69.11c3.31-7.22,6-12.31,8-17.66,1.55-4.16,4.25-4.68,8.08-4.55,4.2.13,4.36,1.82,2.85,5-4.62,9.63-9.24,19.26-13.68,29-1.29,2.82-2.94,4-6.12,3.87-3.44-.15-4.42-2.31-5.39-4.92-3.33-9-6.84-18-10-27-.74-2.13-4-5.39-.16-6.7,3.44-1.17,8.05-1.59,9.76,3.93C1242.37,55.75,1244.56,61.36,1247.31,69.11Z"/><path class="cls-3" d="M1051.83,55.06c2.28.72,6.88-1.14,7.18,3.31s-2.35,6.58-7.29,5a3.54,3.54,0,0,0-4.81,2.94c-.31,2.91,2.28,3.13,4.34,3.56,5.49,1.13,11.48,1.64,13,8.59,1.19,5.57.36,10.73-5,14-6.13,3.76-12.63,3.85-19.14,1.14-2.33-1-1.57-3.12-.84-4.84s.89-3.92,3.58-3.38c1,.21,2,.77,3,1,3.29.85,7.09,1.13,7.93-2.81s-3.26-3.94-6-4.56c-9.32-2.09-12.61-5.75-11.63-13S1042.65,54.92,1051.83,55.06Z"/><path class="cls-3" d="M1296.89,49.06c4,.41,6.91.84,9.84,1s4.45,1.13,4.09,4.38c-.33,2.88-1.37,4.49-4.54,4-1.31-.19-2.67-.12-4-.22-2.12-.14-3.66.33-3.74,2.9s1.35,3.24,3.46,3.38c.8,0,1.61.2,2.4.17,3.34-.14,4.76,1.1,4.52,4.74-.26,4-2.47,3.88-5.43,3.73-2.31-.13-5.7-1.94-6.24,2.49s2.9,3.66,5.36,3.82c3.49.23,6.38.56,5.76,5.39s-3.83,3.48-6.59,3.28c-15.39-1.1-15.39-1.12-14.27-16.53.34-4.8,1.11-9.6,1-14.39C1288.44,50.4,1290.61,46.94,1296.89,49.06Z"/><path class="cls-3" d="M1596.24,123c-4.06-1.73-4.92.41-5.78,2.91-2.18,6.3-4.68,12.49-6.67,18.85-1.14,3.64-2.81,4.58-6.41,3.25-3.39-1.26-4.73-2.84-3.21-6.52,2-4.93,3.77-10,5.42-15.05,1.28-3.93,4.93-8.36-2.48-10.66-3-.92-.83-3.66-.29-5.51.68-2.31,2.45-2.51,4.48-1.78,5.27,1.89,10.57,3.71,15.81,5.7,2.26.86,5.76.79,4.52,5C1600.67,122.44,1599.35,124.8,1596.24,123Z"/><path class="cls-3" d="M889.29,89.07c2.9-.32,3.23,1.71,3.74,3.48,2.74,9.47,5.3,19,8.24,28.4,1.14,3.66-.55,4.61-3.44,5.63-3.49,1.23-5.44.62-6.47-3.18-2.5-9.26-5.09-18.5-7.93-27.66C881.54,89.62,886.39,90.22,889.29,89.07Z"/><path class="cls-3" d="M1134.59,2339.82c.22-5.05.58-10.09.64-15.14,0-3.62,1.24-5.32,5.19-5.06,3.6.23,5.31,1.32,5,5.27-.7,9.28-1.19,18.58-1.55,27.87-.15,3.91-1.37,5.59-5.7,5.41-5-.2-4.72-3-4.47-6.42.3-4,.52-7.95.77-11.93Z"/><path class="cls-4" d="M1204.43,2206.61c-557.63-1-1004.08-453.53-1004.17-1003.88-.1-550,445.82-1004,1003.88-1003.93S2208.08,652.92,2207.91,1202.85C2207.75,1753,1761.66,2205.21,1204.43,2206.61Zm-528.67-762c18,.26,35.87-.55,53.57-3.68,10.25-1.82,20.59-3.65,30.53-6.64,62.63-18.83,106.54-55.41,114.17-124.43,4.56-41.2-5.85-77.57-39.14-105-20.14-16.58-43.64-26.76-68.07-35.1-33-11.28-67.38-16.85-101.32-24.21-10.72-2.33-21.35-5.13-30.86-10.93-5.42-3.3-8.62-8-8.35-14.54.28-6.8,3.94-11.47,10-14.34,6.43-3,13.29-3.85,20.31-3.88,43.11-.22,82.85,11.58,119.79,33.45,11.83,7,18.57,5.68,26.65-5.46q24.26-33.46,48.35-67c10.32-14.32,9.36-21.63-5.67-30.78-83.6-50.92-173.46-61.08-266.26-34.38-60.06,17.28-97.1,59-103.52,123.38-4.38,44,9.62,80.59,46.46,107,23.17,16.63,49.4,26.37,76.36,34.61,31,9.46,63.07,14.32,94.37,22.45,8,2.09,16,4.48,23,9.23,11.54,7.9,10.42,22.16-2.14,28.28-7.38,3.59-15.37,4.37-23.44,4.51-52.55.89-101-12.69-145.13-41.33-11.84-7.69-18-6.79-27,3.87q-27.57,32.91-55.12,65.84c-8.47,10.15-7.41,18.64,3.11,26.61a248,248,0,0,0,31.69,20.39C553.52,1432.54,613.34,1444.07,675.76,1444.59Zm428.9-220.32q0,100.74,0,201.47c0,15.91,5.15,21.07,21.24,21.07q157.71,0,315.44,0c15.11,0,20.62-5.64,20.64-21q.06-41.73,0-83.47c0-17.85-4.92-22.74-23-22.75q-81.87,0-163.74,0c-17.81,0-21.86-4-21.86-21.52q0-137.64,0-275.3c0-14.37-5.68-20-19.88-20.06q-53.37,0-106.75,0c-17.25,0-22.08,4.76-22.08,21.73Zm363.51-3.92c.18,3.74.35,7.48.54,11.22,3.47,66.12,30.37,121,81.26,163,81,66.94,198.49,75,290.23,21.13,129-75.7,152.37-254.13,45.28-358.3-69.72-67.83-154.59-83.84-246.89-59.15C1536.89,1025.49,1467.67,1117.28,1468.17,1220.35ZM849,633.37V787.54c0,17.66,0,17.73,17.38,17.63,11.81-.06,10.48,1.57,10.48-10.87q.06-157.38,0-314.75c0-9.7.91-19.25,4.79-28.28,6.89-16.08,21.48-24.62,40.06-23.49q24,1.46,31.8,27.12a84.8,84.8,0,0,1,3.12,24.58c0,105.45.07,210.9-.23,316.35,0,8,2.27,9.59,9.82,9.54q75.87-.51,151.75,0c7.33,0,9.3-1.85,9.26-9.24-.31-60.76-.14-121.51-.25-182.27,0-4.57.86-7.84,4.79-10.92q48.69-38.09,96.93-76.73c4.93-4,7.22-3.69,11,1.54q38.7,53.73,78.11,107a23.18,23.18,0,0,1,4.8,14.74c-.14,72.26,0,144.53-.22,216.79,0,6.46,1.18,8,8,6.62q111.27-22.44,222.68-44.09c6.82-1.32,9-3.81,8.89-10.86q-.93-111.2-1.1-222.4a17.91,17.91,0,0,0-4.53-12.27q-44.22-53-88.12-106.31c-12.15-14.71-11.8-14.41-26.89-2.73-6.46,5-5.64,8.05-.89,13.65,29.48,34.65,58.56,69.63,87.84,104.45,3.16,3.77,5.31,7.42,5.29,12.82q-.33,95.53,0,191.09c0,6.21-2.11,8-7.89,9.15-55.37,10.77-110.69,21.86-166,32.88-9.27,1.85-9.29,1.88-9.32-7.66q-.22-95.54-.4-191.09c0-4.38-.57-8.23-3.31-12q-50.78-69.78-101.17-139.83c-3.9-5.45-6.28-5.69-11.54-1.48q-64.28,51.37-129.07,102.1c-4.48,3.51-6.22,7.07-6.2,12.72.2,55.94,0,111.88.26,167.81,0,6.5-1.53,8.74-8.39,8.66q-48.16-.53-96.35,0c-7.6.1-9.9-1.8-9.88-9.66.27-96.35.17-192.71.19-289.06,0-8.57-.12-17.13-2.13-25.53-5.92-24.8-18.72-44.21-44.56-50.94-26-6.78-50.27-2.66-69.13,18.22C854.6,436.09,849,455.23,849,476Q848.95,554.69,849,633.37Zm208.89,591.57q0-101.13,0-202.27c0-14.42-5.51-20-19.82-20q-54.18-.06-108.36,0c-14.8,0-20.43,5.48-20.44,20.29q0,201.46,0,402.94c0,15.49,5.47,20.87,20.74,20.89q53.38.06,106.76,0c16,0,21.11-5.16,21.11-21.2Q1057.91,1325.28,1057.89,1224.94Zm145.42,609c-63.42-.12-114.63,50.58-114.83,113.69a114.11,114.11,0,0,0,114.28,115.08c63.41.08,114.72-50.67,115-113.73A114.36,114.36,0,0,0,1203.31,1834ZM633.1,1651.82c0,15.76.18,31.53-.09,47.28-.11,6.25,2.13,8.5,8.43,8.28,11.48-.4,23,0,34.46-.15,28.08-.47,52.69-23.66,54.45-51.12,1.91-29.71-18.81-55.67-47.77-59.53-13.81-1.84-27.75-.29-41.62-.84-5.91-.24-8,2.15-7.94,8C633.25,1619.76,633.1,1635.79,633.1,1651.82Zm943.47,16.71,1.86-.82c4.28,6.61,9.66,12.77,12.64,19.93,7.2,17.3,19.81,22.73,37.36,19.67,2.57-.44,5.87.64,7.3-2.1,1.69-3.22-1.34-5.43-3-7.66-7.76-10.21-15.55-20.4-23.53-30.45-2.8-3.52-3.17-5.19,1.71-7.34,13.54-6,20.42-19.4,18.24-34-2.44-16.4-12.91-27.25-28.49-29.12-14.91-1.79-29.92-.34-44.86-.88-6.26-.23-8.25,2.19-8.18,8.47.3,27.54-.14,55.08.21,82.6.31,24.23-5.3,20,22.3,20.49,4.87.09,6.62-2,6.54-6.74C1576.45,1689.88,1576.57,1679.2,1576.57,1668.53ZM900,1593.41a33.54,33.54,0,0,0-19.64,5.52c-13.42,8.58-17.78,21.48-16.48,36.66,1.18,13.73,10.22,20.38,22.45,24q8.07,2.37,16,5.31c5.43,2,9.57,5.31,8.09,11.95-1.41,6.35-6.38,8.05-12.1,8.36-7.84.44-14.66-2.22-20.94-6.73-2.25-1.62-5.06-4.49-7.44-.66-3.37,5.43-6.22,11.2-9,17-1.16,2.35.59,3.85,2.41,5.27,15.82,12.37,47.46,13.18,63.82,1.48,13-9.27,15.12-22.71,13.48-37.17-1.41-12.42-10-18.95-21-22.88-5-1.79-10.25-3.06-15.22-5-5.16-2-11.7-3.76-10-11.25,1.62-7.11,7.83-8,14.06-7.61a21.51,21.51,0,0,1,6.93,1.67c10.47,4.48,10.44,4.54,15.77-5.77.85-1.66,1.6-3.39,2.61-5,3.22-5,1.16-7.8-3.84-9.61A86.29,86.29,0,0,0,900,1593.41Zm529.47,57.92c0,16,.18,32.07-.09,48.1-.09,5.87,1.9,8.09,7.89,7.94,12.82-.33,25.65,0,38.48-.13,19.37-.22,16.88,3.2,17.27-17.65.11-5.8-2.39-7.47-7.7-7.28-6.94.26-13.9-.09-20.84.11-4,.11-6.13-1.11-5.71-5.43a20.28,20.28,0,0,0,0-4.8c-.93-6.45,1.27-9.3,8.23-8.64,6.09.57,12.28.1,18.42.1,2.95,0,5-.82,5.73-4.21,3.55-16.12.16-20.62-15.83-20.62a54.15,54.15,0,0,0-7.21,0c-7,1-9.77-1.29-9.59-9,.17-7.08,1.68-10.48,9.3-9.28,2.87.45,5.87.1,8.81.06,18.42-.24,16,2.6,16.43-16.92.13-6-2-8.09-7.87-8-15.77.22-31.54.26-47.3,0-6.16-.11-8.62,2-8.5,8.33C1429.68,1619.79,1429.47,1635.56,1429.47,1651.33Zm295.86-25.22c-6.14-8.84-11.87-16.83-17.3-25-2.45-3.68-5.34-5.57-9.9-5.36-6.14.28-12.3-.13-18.44.13-7.17.31-8.23,2.33-4.31,8.21,5.2,7.78,9.94,16,16.12,22.94,15.3,17.14,20.23,36.49,18.92,59.41-1.41,24.58-5.44,20.32,21.51,20.9,5.22.11,7.07-2,7-7.13-.22-13.09.11-26.19-.15-39.28a19.31,19.31,0,0,1,3.94-12.58q16.15-21.94,31.86-44.23c4.14-5.84,3.13-7.91-3.93-8.23-5.86-.27-11.77.21-17.63-.16-5.43-.33-9,1.6-11.83,6.29C1736.35,1610,1731,1617.57,1725.33,1626.11Zm-716.6,36.66v24.85c0,19.83,0,19.56,20.13,19.8,7,.08,9.37-2.08,9.27-9.13-.33-23.51,0-47-.24-70.55-.07-5.66,1.76-7.2,7.29-7.2,18,0,17.91-.2,16.89-18-.27-4.69-2-6.78-6.72-6.77q-31.66.12-63.33,0c-4.76,0-6.41,1.9-6.58,6.7-.62,17.72-.78,17.94,16.71,18.07,5.39,0,6.81,1.85,6.68,7C1008.51,1639.25,1008.73,1651,1008.73,1662.77Zm191.08-11.36c0,15.78.26,31.56-.13,47.33-.16,6.77,2.29,8.85,8.85,8.65,12.56-.4,25.14,0,37.7-.15,19.59-.29,17,3.64,17.32-18.35.07-5-2.07-6.66-6.73-6.55-6.68.16-13.4-.31-20,.13-5.86.4-7.93-1.38-7.81-7.54.37-19.52.32-39,.09-58.57-.28-23.77,3.93-20.11-20.89-20.65-6.21-.13-8.58,2-8.45,8.37C1200,1619.85,1199.81,1635.63,1199.81,1651.41Zm115-.59c0,16,.22,32.1-.11,48.14-.13,6.2,1.78,8.61,8.2,8.42,12.83-.38,25.67-.11,38.51-.11,18.47,0,18.75-.41,17.13-18.72-.39-4.37-2.21-6.23-6.49-6.18-7.22.08-14.46-.3-21.66.1-5.33.3-6.86-1.61-6.79-6.82.26-19.79.1-39.58.1-59.37,0-21.71,0-21.57-21.7-20.57-5.54.25-7.38,2.29-7.29,7.77C1315,1619.26,1314.85,1635,1314.85,1650.82Zm-536,1.34v34.5c0,21,0,20.81,20.7,20.74,6.26,0,8.35-2,8.28-8.33-.27-27.81-.11-55.62-.11-83.43,0-20.44,0-20.26-20.58-20-6.1.09-8.56,1.9-8.41,8.34C779.05,1620.07,778.8,1636.12,778.8,1652.16Zm361.25-.8c0-12,.21-24.06,0-36.09-.47-22,4.76-19.08-20.18-19.57-6.54-.13-8.85,2-8.77,8.77.33,27.53-.07,55.07.2,82.6.23,23.8-4.3,19.66,21,20.28,5.9.14,8-1.88,7.89-7.87C1139.83,1683.45,1140.05,1667.4,1140.05,1651.36Z"/><path class="cls-1" d="M1492.61,2305.36c0,.15,0,.35,0,.44s-.3.15-.46.21l.06-.91Z"/><path class="cls-1" d="M930.37,97.55c-.57-.62-.8-1.26,0-1.84a9.78,9.78,0,0,1,.9.94C931,97,930.68,97.26,930.37,97.55Z"/><path class="cls-1" d="M979.21,2316.19a10.89,10.89,0,0,1-10.32,11A10.7,10.7,0,0,1,958,2316.86,10.39,10.39,0,0,1,968.23,2306,10.51,10.51,0,0,1,979.21,2316.19Z"/><path class="cls-1" d="M1472.11,86a10.69,10.69,0,0,1-.44,21.38,10.93,10.93,0,0,1-10.49-10.89A11.07,11.07,0,0,1,1472.11,86Z"/><path class="cls-1" d="M1116.08,69a10.61,10.61,0,0,1-21.21,0,10.67,10.67,0,0,1,10.65-10.63A10.56,10.56,0,0,1,1116.08,69Z"/><path class="cls-1" d="M1004.82,83.59c-.11,4.23-1.38,7.17-4.21,9-3.89,2.59-7.44,3.57-8.11-3-.25-2.39-1.09-4.73-1.12-7.1,0-3-3.83-7.2,1.49-8.78,4.62-1.37,8.32,1.08,10.5,5.31A23.45,23.45,0,0,1,1004.82,83.59Z"/><path class="cls-1" d="M912.66,2312.27c1-1.81,0-5.37,4-4.49,2.38.53,4.88,1.23,5,4.23s-2.17,4-4.83,3.72C914.79,2315.49,912.28,2315.5,912.66,2312.27Z"/><path class="cls-1" d="M922.92,2296.49a3.27,3.27,0,0,1-3.19,3.67c-1.73.18-3.21-.3-3.12-2.41.07-1.83.32-4.06,2.46-4.37A3.41,3.41,0,0,1,922.92,2296.49Z"/><path class="cls-1" d="M1431.71,2315.91c-3.58-.12-2.49-3.31-3.17-5.29-.93-2.7.15-4.07,3-4s4.6,1.67,4.73,4.36S1434.41,2315.2,1431.71,2315.91Z"/><path class="cls-1" d="M1346.51,71.11c-4.2.21-4.55-1.77-4.08-4.09.42-2.08-.39-5.41,3.39-4.91,2.46.32,4.48,1.86,4.33,4.77A4.19,4.19,0,0,1,1346.51,71.11Z"/><path class="cls-1" d="M1161.94,54.06c2.78.51,4.83,1.7,4.89,4.53s-1.75,4.31-4.43,4.57c-3.93.38-3.09-2.65-3.23-4.84S1158.93,53.91,1161.94,54.06Z"/><path class="cls-1" d="M1339.71,2336.28c2.33.19,4.56.94,4.35,4.06s-2.87,3.31-5.13,3.84c-3.24.75-3.14-1.63-3.5-3.71C1334.88,2337.17,1336.78,2336.37,1339.71,2336.28Z"/><path class="cls-1" d="M1339.93,2325.48c-.85,2.44-2.23,3.79-4.24,3.36-2.76-.6-2.21-3.24-2.12-5.11s1.78-2.29,3.5-1.84A3.77,3.77,0,0,1,1339.93,2325.48Z"/><path class="cls-1" d="M1019.53,2314.45c2.77.57,4.61,1.94,4.58,4.74s-2,4.22-4.57,4.45c-2.87.24-3.72-1.5-3.19-4C1016.8,2317.53,1016.12,2314.58,1019.53,2314.45Z"/><path class="cls-1" d="M1263.44,2334.68c1.34,3,5.27,5.36,2.27,8.92-.61.72-3.13.93-3.75.33C1258.54,2340.61,1262.75,2337.86,1263.44,2334.68Z"/><path class="cls-1" d="M1384.83,2321.69c2.66,2.5,5.22,4.94,4.22,8.53-.21.74-4.42,1.5-4.93.83C1381.78,2328,1384.74,2325,1384.83,2321.69Z"/><path class="cls-3" d="M675.76,1444.59c-62.42-.52-122.24-12-177.68-42.06a248,248,0,0,1-31.69-20.39c-10.52-8-11.58-16.46-3.11-26.61q27.5-33,55.12-65.84c8.94-10.66,15.14-11.56,27-3.87,44.15,28.64,92.58,42.22,145.13,41.33,8.07-.14,16.06-.92,23.44-4.51,12.56-6.12,13.68-20.38,2.14-28.28-6.93-4.75-14.93-7.14-23-9.23-31.3-8.13-63.39-13-94.37-22.45-27-8.24-53.19-18-76.36-34.61-36.84-26.45-50.84-63.08-46.46-107,6.42-64.35,43.46-106.1,103.52-123.38,92.8-26.7,182.66-16.54,266.26,34.38,15,9.15,16,16.46,5.67,30.78q-24.14,33.54-48.35,67c-8.08,11.14-14.82,12.46-26.65,5.46-36.94-21.87-76.68-33.67-119.79-33.45-7,0-13.88.84-20.31,3.88-6,2.87-9.71,7.54-10,14.34-.27,6.51,2.93,11.24,8.35,14.54,9.51,5.8,20.14,8.6,30.86,10.93,33.94,7.36,68.3,12.93,101.32,24.21,24.43,8.34,47.93,18.52,68.07,35.1,33.29,27.41,43.7,63.78,39.14,105-7.63,69-51.54,105.6-114.17,124.43-9.94,3-20.28,4.82-30.53,6.64C711.63,1444,693.73,1444.85,675.76,1444.59Zm-15.11-416.26c-6.15,0-12.35-.51-18.45.08-33.12,3.19-63.25,13.61-87,38.08-34.3,35.32-31.78,90.56,5.29,120,9.92,7.89,21.13,13.58,32.8,18.37,24.89,10.21,51.09,15.52,77.3,20.9,28.06,5.76,56.1,11.92,81.26,26.44,36,20.8,45.16,66,20.3,99.64-14.95,20.23-36,31.24-59.88,35.95-65.18,12.84-123.5-2.7-174.93-44.54-8.46-6.88-8.21-6.67-16,.68-4.25,4-4.77,6.18.28,10.31,52,42.56,111.29,60.48,178,52.64,31.26-3.67,59.69-14.65,81.85-38.34,29.54-31.56,31.6-82.5,4.35-112.94-11.86-13.26-27.26-21.4-43.45-28.09-27.36-11.32-56.36-16.5-85.13-22.6-25.16-5.34-49.77-12.24-72.74-24.42-43.14-22.87-42.33-76.6-15-103.84a103.65,103.65,0,0,1,55.23-29.1c54.71-10.24,104.61,2.26,149.86,33.9,10,7,10-3.78,14-6.84,5.5-4.2-.21-6.07-2.84-7.92C748.23,1040.32,706.43,1027.65,660.65,1028.33Z"/><path class="cls-3" d="M1104.66,1224.27V1024.41c0-17,4.83-21.72,22.08-21.73q53.37,0,106.75,0c14.2,0,19.87,5.69,19.88,20.06q0,137.65,0,275.3c0,17.54,4,21.52,21.86,21.52q81.87,0,163.74,0c18.08,0,23,4.9,23,22.75q0,41.73,0,83.47c0,15.37-5.53,21-20.64,21q-157.72,0-315.44,0c-16.09,0-21.24-5.16-21.24-21.07Q1104.65,1325,1104.66,1224.27Zm61.18-1.47c0,54.32.11,108.65-.14,163,0,6.53,1.5,8.62,8.34,8.58,50.58-.29,101.15-.16,151.72-.16q43.76,0,87.51,0c2.51,0,6.25,1.38,7.27-1.52a22,22,0,0,0,0-14.19c-1.12-3.22-5.24-1.61-8-1.61q-108.76-.12-217.55-.08c-11.48,0-10.08,1.14-10.09-10.46,0-102-.15-203.9.22-305.85,0-9.1-4.47-8-10.28-8.26-6.49-.34-9.31.8-9.26,8.49C1166,1114.7,1165.84,1168.75,1165.84,1222.8Z"/><path class="cls-3" d="M1468.16,1220.35c-.49-103.07,68.73-194.86,170.43-222.06,92.3-24.69,177.17-8.68,246.89,59.15,107.09,104.17,83.68,282.6-45.28,358.3-91.74,53.85-209.26,45.81-290.23-21.13-50.89-42.06-77.79-96.92-81.26-163C1468.52,1227.83,1468.35,1224.09,1468.16,1220.35Zm244.17-192.51a175.92,175.92,0,0,0-79.91,17.78c-68.5,33.09-108.64,107.63-102.78,188.24,6.55,90.05,72,166.78,166.8,174,54.49,4.13,103.14-10.13,142.78-48.6,46.6-45.22,63.4-101.4,57.16-165.26C1887,1097.93,1810.17,1027.94,1712.33,1027.84Z"/><path class="cls-3" d="M849,633.37q0-78.68,0-157.37c0-20.77,5.58-39.91,19.64-55.48,18.86-20.88,43.12-25,69.13-18.22,25.84,6.73,38.64,26.14,44.56,50.94,2,8.4,2.13,17,2.13,25.53,0,96.35.08,192.71-.19,289.06,0,7.86,2.28,9.76,9.88,9.66q48.18-.62,96.35,0c6.86.08,8.41-2.16,8.39-8.66-.24-55.93-.06-111.87-.26-167.81,0-5.65,1.72-9.21,6.2-12.72q64.76-50.78,129.07-102.1c5.26-4.21,7.64-4,11.54,1.48q50.31,70.11,101.17,139.83c2.74,3.77,3.31,7.62,3.31,12q.13,95.55.4,191.09c0,9.54.05,9.51,9.32,7.66,55.33-11,110.65-22.11,166-32.88,5.78-1.12,7.91-2.94,7.89-9.15q-.36-95.55,0-191.09c0-5.4-2.13-9-5.29-12.82-29.28-34.82-58.36-69.8-87.84-104.45-4.75-5.6-5.57-8.65.89-13.65,15.09-11.68,14.74-12,26.89,2.73q44,53.23,88.12,106.31a17.91,17.91,0,0,1,4.53,12.27q.32,111.19,1.1,222.4c.06,7.05-2.07,9.54-8.89,10.86q-111.4,21.69-222.68,44.09c-6.81,1.37-8-.16-8-6.62.19-72.26.08-144.53.22-216.79a23.18,23.18,0,0,0-4.8-14.74q-39.32-53.28-78.11-107c-3.77-5.23-6.06-5.49-11-1.54q-48.23,38.67-96.93,76.73c-3.93,3.08-4.8,6.35-4.79,10.92.11,60.76-.06,121.51.25,182.27,0,7.39-1.93,9.28-9.26,9.24q-75.87-.5-151.75,0c-7.55,0-9.84-1.56-9.82-9.54.3-105.45.18-210.9.23-316.35a84.8,84.8,0,0,0-3.12-24.58q-7.72-25.71-31.8-27.12c-18.58-1.13-33.17,7.41-40.06,23.49-3.88,9-4.79,18.58-4.79,28.28q0,157.38,0,314.75c0,12.44,1.33,10.81-10.48,10.87-17.38.1-17.38,0-17.38-17.63Z"/><path class="cls-2" d="M1057.9,1224.94q0,100.33,0,200.67c0,16-5.07,21.18-21.11,21.2q-53.38.06-106.76,0c-15.27,0-20.73-5.4-20.74-20.89q-.07-201.47,0-402.94c0-14.81,5.64-20.28,20.44-20.29q54.18,0,108.36,0c14.31,0,19.81,5.55,19.82,20Q1057.92,1123.8,1057.9,1224.94Zm-87-1.5c0,54.31.21,108.61-.21,162.91-.07,8.43,4.07,8,9.75,8s9.79.46,9.77-8q-.46-162.9,0-325.82c0-7.93-3.11-8.55-9.38-8.39-6,.16-10.25-.53-10.17,8.38C971.19,1114.83,971,1169.14,971,1223.44Z"/><path class="cls-3" d="M1203.31,1834a114.36,114.36,0,0,1,114.44,115c-.27,63.06-51.58,113.81-115,113.73a114.11,114.11,0,0,1-114.28-115.08C1088.68,1884.54,1139.89,1833.84,1203.31,1834ZM1190,1923.18l2.16-1c3.76,4.75,7.6,9.44,11.24,14.28,2.18,2.9,5.16,2.71,8,2.14,3.36-.68,2.26-3.77,2.3-6,.12-6.93,0-13.87.06-20.8,0-3-.47-5.14-4.3-5.1-4,0-4,2.56-4,5.37,0,3.83,0,7.65,0,11.48a70,70,0,0,1-13-13.94c-2.33-3.19-5.39-3.36-8.54-2.6s-2.14,3.88-2.18,6.07c-.12,7.2,0,14.41,0,21.61,0,3.17,1.51,4.14,4.45,4.11,2.74,0,3.85-1.28,3.83-3.89C1190,1931,1190,1927.1,1190,1923.18Zm14.12,57.08c0-10.16-5.69-17.41-13.64-17.26-7.75.15-13.32,7-13.5,16.72-.18,10.08,5.42,17.51,13.36,17.7S1204,1990.49,1204.09,1980.26Zm-43.15,7.13a63.27,63.27,0,0,0,5-5.79c3.8-5.59,3.67-11-1.5-15.77-4.79-4.37-13.27-4.06-17.4.68-2,2.29-4.94,5.49-2,8.13a5.11,5.11,0,0,0,8.06-1.94c1-1.94,2.57-2.79,4.59-1.65s1.87,3.1,1.43,5c-.84,3.51-3.57,5.86-5.49,8.72-2.52,3.76-7.2,6-8.82,11.57,7.26,0,13.61,0,20,0,2.55,0,4-1,4-3.75,0-2.19-.82-3.47-3.2-3.67C1164.08,1988.76,1162.32,1989.51,1160.94,1987.39Zm89.43,1.07c2.69-2.88,4.51-4.46,5.89-6.37,3.89-5.41,4.17-11-.63-15.93-4.16-4.3-12.52-4.53-16.91-.59-2.57,2.3-5.69,5.77-3.06,8.74,2.08,2.35,6.44,2.26,8.48-2a2.78,2.78,0,0,1,4-1.38,3.43,3.43,0,0,1,1.92,4.67,33.45,33.45,0,0,1-4.36,7.54c-3.25,4.05-6.87,7.8-11.22,12.67,2.89.28,4.38.53,5.87.54,5.07,0,10.14,0,15.21,0,2.6,0,4-1.07,4-3.75,0-2.15-.93-3.53-3.29-3.64C1254.74,1988.85,1253.18,1988.68,1250.37,1988.46Zm-107.23-75c2.76,1.66,4.37.42,5.46-2.27.58-1.42.63-2.7-.86-3.38-4.29-1.93-8.78-2.67-13.16-.59-4,1.88-5.84,5.31-5.79,9.75,0,4.84,3.15,7,7.22,8.43,2.39.85,6.38,1.09,5.51,4.49-1,4-4.65,2.52-7.32,1.32-3.11-1.41-4.56.17-5.41,2.72-1,2.91,1.41,3.62,3.35,4.46,7,3.06,15.61.51,18.15-5.35,2.68-6.21.34-10.22-8.31-14.29-1.58-.74-4.12-.88-3.52-3.47C1139,1913,1141.13,1913.15,1143.14,1913.5Zm114.14,8.83c0,17.71,0,17.69,13.72,16.52,2.17-.19,4.41.08,4.69-3s-1.34-4.25-4.26-4.38c-2-.09-4.9.71-5-2.42-.15-3.8,3.2-2.69,5.33-2.91,2.38-.23,3.25-1.41,3.15-3.67a2.94,2.94,0,0,0-2.84-3.16c-2.14-.34-5.66.92-5.61-2.68s3.59-2.18,5.7-2.48,3.46-1.21,3.55-3.49c.09-2.09-.58-3.32-2.94-3.93-11.2-2.86-15.47.25-15.47,11.58Zm-16.07-7.67c2.31.64,5.22,3.13,5.55-2,.25-4-1.43-5.92-5.38-6.3-6.62-.62-12.25,1.21-16.12,6.76-4,5.71-4.76,12-1.15,18.11s9.35,8.66,16.21,8.42c3.21-.12,6.47-.9,6.41-5.45-.07-5.33-3.55-3.13-6.17-3-6.23.27-9.86-2.56-9.44-9C1231.51,1916.1,1235.65,1914.27,1241.21,1914.66Zm-16.65,65.82c0-4,0-8,0-12,0-2.5-.85-4.31-3.63-4.09-3.06.25-6.8-1.56-9,1.37-1.45,1.91-.94,4.54,1.92,6s1.92,4.12,2,6.41c.11,4.8.06,9.61.06,14.41,0,2.67,1.3,3.79,3.95,3.81s4.78-.5,4.74-3.84C1224.53,1988.49,1224.56,1984.48,1224.56,1980.48Zm-54.18-58.19c0-3.74-.07-7.49,0-11.22.06-3-1.14-4.34-4.26-4.33-3.27,0-4.05,1.72-4,4.55q.09,11.61,0,23.24c0,3,1.14,4.34,4.25,4.32,3.26,0,4.09-1.71,4-4.54C1170.33,1930.3,1170.38,1926.29,1170.38,1922.29Z"/><path class="cls-3" d="M633.1,1651.82c0-16,.15-32.06-.08-48.09-.09-5.84,2-8.23,7.94-8,13.87.55,27.81-1,41.62.84,29,3.86,49.68,29.82,47.77,59.53-1.76,27.46-26.37,50.65-54.45,51.12-11.48.19-23-.25-34.46.15-6.3.22-8.54-2-8.43-8.28C633.28,1683.35,633.1,1667.58,633.1,1651.82Zm29.26-.59c0,8.55.15,17.09-.06,25.63-.11,4.16,1.45,5.42,5.57,5.59,18.59.75,31.89-11.39,32.28-29.85.4-19.23-12-31.89-30.95-32-5.07,0-7.23,1.18-7,6.64C662.65,1635.2,662.35,1643.23,662.36,1651.23Z"/><path class="cls-3" d="M1576.57,1668.53c0,10.67-.12,21.35.06,32,.08,4.74-1.67,6.83-6.54,6.74-27.6-.52-22,3.74-22.3-20.49-.35-27.52.09-55.06-.21-82.6-.07-6.28,1.92-8.7,8.18-8.47,14.94.54,30-.91,44.86.88,15.58,1.87,26.05,12.72,28.49,29.12,2.18,14.62-4.7,28-18.24,34-4.88,2.15-4.51,3.82-1.71,7.34,8,10.05,15.77,20.24,23.53,30.45,1.7,2.23,4.73,4.44,3,7.66-1.43,2.74-4.73,1.66-7.3,2.1-17.55,3.06-30.16-2.37-37.36-19.67-3-7.16-8.36-13.32-12.64-19.93Zm0-36.19v4c0,10.41,1.1,11.24,11.61,8.8A18.24,18.24,0,0,0,1592,1644a13.54,13.54,0,0,0,6.85-16.26c-2.17-6.56-10.51-11.2-18.41-9.6-7.62,1.54-2.23,7.94-3.82,11.81A6.8,6.8,0,0,0,1576.55,1632.34Z"/><path class="cls-3" d="M900,1593.41a86.29,86.29,0,0,1,29.94,5.54c5,1.81,7.06,4.56,3.84,9.61-1,1.57-1.76,3.3-2.61,5-5.33,10.31-5.3,10.25-15.77,5.77a21.51,21.51,0,0,0-6.93-1.67c-6.23-.44-12.44.5-14.06,7.61-1.71,7.49,4.83,9.24,10,11.25,5,1.93,10.19,3.2,15.22,5,11,3.93,19.54,10.46,21,22.88,1.64,14.46-.51,27.9-13.48,37.17-16.36,11.7-48,10.89-63.82-1.48-1.82-1.42-3.57-2.92-2.41-5.27,2.82-5.75,5.67-11.52,9-17,2.38-3.83,5.19-1,7.44.66,6.28,4.51,13.1,7.17,20.94,6.73,5.72-.31,10.69-2,12.1-8.36,1.48-6.64-2.66-9.93-8.09-11.95q-7.87-2.94-16-5.31c-12.23-3.62-21.27-10.27-22.45-24-1.3-15.18,3.06-28.08,16.48-36.66A33.54,33.54,0,0,1,900,1593.41Z"/><path class="cls-3" d="M1429.47,1651.33c0-15.77.21-31.54-.1-47.3-.12-6.36,2.34-8.44,8.5-8.33,15.76.28,31.53.24,47.3,0,5.84-.07,8,2.06,7.87,8-.45,19.52,2,16.68-16.43,16.92-2.94,0-5.94.39-8.81-.06-7.62-1.2-9.13,2.2-9.3,9.28-.18,7.7,2.55,10,9.59,9a54.15,54.15,0,0,1,7.21,0c16,0,19.38,4.5,15.83,20.62-.75,3.39-2.78,4.21-5.73,4.21-6.14,0-12.33.47-18.42-.1-7-.66-9.16,2.19-8.23,8.64a20.28,20.28,0,0,1,0,4.8c-.42,4.32,1.71,5.54,5.71,5.43,6.94-.2,13.9.15,20.84-.11,5.31-.19,7.81,1.48,7.7,7.28-.39,20.85,2.1,17.43-17.27,17.65-12.83.15-25.66-.2-38.48.13-6,.15-8-2.07-7.89-7.94C1429.65,1683.4,1429.47,1667.36,1429.47,1651.33Z"/><path class="cls-3" d="M1725.33,1626.11c5.65-8.54,11-16.16,15.84-24.11,2.85-4.69,6.4-6.62,11.83-6.29,5.86.37,11.77-.11,17.63.16,7.06.32,8.07,2.39,3.93,8.23q-15.76,22.23-31.86,44.23a19.31,19.31,0,0,0-3.94,12.58c.26,13.09-.07,26.19.15,39.28.09,5.15-1.76,7.24-7,7.13-27-.58-22.92,3.68-21.51-20.9,1.31-22.92-3.62-42.27-18.92-59.41-6.18-6.93-10.92-15.16-16.12-22.94-3.92-5.88-2.86-7.9,4.31-8.21,6.14-.26,12.3.15,18.44-.13,4.56-.21,7.45,1.68,9.9,5.36C1713.46,1609.28,1719.19,1617.27,1725.33,1626.11Z"/><path class="cls-3" d="M1008.73,1662.77c0-11.76-.22-23.52.1-35.27.13-5.11-1.29-6.92-6.68-7-17.49-.13-17.33-.35-16.71-18.07.17-4.8,1.82-6.73,6.58-6.7q31.66.13,63.33,0c4.75,0,6.45,2.08,6.72,6.77,1,17.8,1.15,18-16.89,18-5.53,0-7.36,1.54-7.29,7.2.28,23.52-.09,47,.24,70.55.1,7-2.28,9.21-9.27,9.13-20.13-.24-20.13,0-20.13-19.8Z"/><path class="cls-3" d="M1199.81,1651.41c0-15.78.2-31.56-.1-47.33-.13-6.33,2.24-8.5,8.45-8.37,24.82.54,20.61-3.12,20.89,20.65.23,19.52.28,39.05-.09,58.57-.12,6.16,2,7.94,7.81,7.54,6.65-.44,13.37,0,20-.13,4.66-.11,6.8,1.6,6.73,6.55-.29,22,2.27,18.06-17.32,18.35-12.56.18-25.14-.25-37.7.15-6.56.2-9-1.88-8.85-8.65C1200.07,1683,1199.81,1667.19,1199.81,1651.41Z"/><path class="cls-3" d="M1314.85,1650.82c0-15.78.18-31.56-.1-47.34-.09-5.48,1.75-7.52,7.29-7.77,21.71-1,21.7-1.14,21.7,20.57,0,19.79.16,39.58-.1,59.37-.07,5.21,1.46,7.12,6.79,6.82,7.2-.4,14.44,0,21.66-.1,4.28,0,6.1,1.81,6.49,6.18,1.62,18.31,1.34,18.72-17.13,18.72-12.84,0-25.68-.27-38.51.11-6.42.19-8.33-2.22-8.2-8.42C1315.07,1682.92,1314.85,1666.87,1314.85,1650.82Z"/><path class="cls-3" d="M778.8,1652.16c0-16,.25-32.09-.12-48.13-.15-6.44,2.31-8.25,8.41-8.34,20.58-.31,20.58-.49,20.58,20,0,27.81-.16,55.62.11,83.43.07,6.33-2,8.3-8.28,8.33-20.7.07-20.7.28-20.7-20.74Z"/><path class="cls-3" d="M1140.05,1651.36c0,16-.22,32.09.11,48.12.12,6-2,8-7.89,7.87-25.32-.62-20.79,3.52-21-20.28-.27-27.53.13-55.07-.2-82.6-.08-6.75,2.23-8.9,8.77-8.77,24.94.49,19.71-2.42,20.18,19.57C1140.26,1627.3,1140.05,1639.33,1140.05,1651.36Z"/><path class="cls-5" d="M660.65,1028.33c45.78-.68,87.58,12,125.07,38.41,2.63,1.85,8.34,3.72,2.84,7.92-4,3.06-4,13.82-14,6.84-45.25-31.64-95.15-44.14-149.86-33.9a103.65,103.65,0,0,0-55.23,29.1c-27.31,27.24-28.12,81,15,103.84,23,12.18,47.58,19.08,72.74,24.42,28.77,6.1,57.77,11.28,85.13,22.6,16.19,6.69,31.59,14.83,43.45,28.09,27.25,30.44,25.19,81.38-4.35,112.94-22.16,23.69-50.59,34.67-81.85,38.34-66.66,7.84-126-10.08-178-52.64-5-4.13-4.53-6.28-.28-10.31,7.75-7.35,7.5-7.56,16-.68,51.43,41.84,109.75,57.38,174.93,44.54,23.91-4.71,44.93-15.72,59.88-35.95,24.86-33.63,15.75-78.84-20.3-99.64-25.16-14.52-53.2-20.68-81.26-26.44-26.21-5.38-52.41-10.69-77.3-20.9-11.67-4.79-22.88-10.48-32.8-18.37-37.07-29.49-39.59-84.73-5.29-120,23.76-24.47,53.89-34.89,87-38.08C648.3,1027.82,654.5,1028.33,660.65,1028.33Z"/><path class="cls-5" d="M1165.84,1222.8c0-54,.18-108.1-.2-162.15-.05-7.69,2.77-8.83,9.26-8.49,5.81.3,10.31-.84,10.28,8.26-.37,101.95-.25,203.9-.22,305.85,0,11.6-1.39,10.46,10.09,10.46q108.78,0,217.55.08c2.75,0,6.87-1.61,8,1.61a22,22,0,0,1,0,14.19c-1,2.9-4.76,1.51-7.27,1.52q-43.76.12-87.51,0c-50.57,0-101.14-.13-151.72.16-6.84,0-8.37-2-8.34-8.58C1166,1331.45,1165.84,1277.12,1165.84,1222.8Z"/><path class="cls-5" d="M1712.33,1027.84c97.84.1,174.65,70.09,184.05,166.12,6.24,63.86-10.56,120-57.16,165.26-39.64,38.47-88.29,52.73-142.78,48.6-94.8-7.18-160.25-83.91-166.8-174-5.86-80.61,34.28-155.15,102.78-188.24A175.92,175.92,0,0,1,1712.33,1027.84Zm166.88,190.91c.34-26.18-5.1-51.06-15.28-75-46.61-109.63-192.16-135.58-271.13-46.88-49.51,55.63-57.86,121.23-31.84,189.87,38.61,101.84,163.29,138.44,249.93,74C1858.07,1325.67,1878.06,1276.45,1879.21,1218.75Z"/><path class="cls-5" d="M971,1223.44c0-54.3.24-108.61-.24-162.91-.08-8.91,4.19-8.22,10.17-8.38,6.27-.16,9.4.46,9.38,8.39q-.46,162.92,0,325.82c0,8.42-4.08,8-9.77,8s-9.82.46-9.75-8C971.16,1332.05,971,1277.75,971,1223.44Z"/><path class="cls-5" d="M1190,1923.18c0,3.92,0,7.84,0,11.76,0,2.61-1.09,3.85-3.83,3.89-2.94,0-4.48-.94-4.45-4.11.08-7.2-.07-14.41,0-21.61,0-2.19-1.11-5.27,2.18-6.07s6.21-.59,8.54,2.6a70,70,0,0,0,13,13.94c0-3.83,0-7.65,0-11.48,0-2.81,0-5.32,4-5.37,3.83,0,4.33,2.07,4.3,5.1-.07,6.93.06,13.87-.06,20.8,0,2.2,1.06,5.29-2.3,6-2.82.57-5.8.76-8-2.14-3.64-4.84-7.48-9.53-11.24-14.28Z"/><path class="cls-5" d="M1204.09,1980.26c0,10.23-5.76,17.34-13.78,17.16s-13.54-7.62-13.36-17.7c.18-9.68,5.75-16.57,13.5-16.72C1198.4,1962.85,1204.13,1970.1,1204.09,1980.26Zm-8.15.15c-.61-3.82-.21-9.14-5.28-9.26s-5.31,5.23-5.29,9.06.16,9.25,5.09,9.35S1195.32,1984.3,1195.94,1980.41Z"/><path class="cls-5" d="M1160.94,1987.39c1.38,2.12,3.14,1.37,4.58,1.5,2.38.2,3.15,1.48,3.2,3.67.06,2.8-1.4,3.76-4,3.75-6.35,0-12.7,0-20,0,1.62-5.59,6.3-7.81,8.82-11.57,1.92-2.86,4.65-5.21,5.49-8.72.44-1.86.54-3.84-1.43-5s-3.64-.29-4.59,1.65a5.11,5.11,0,0,1-8.06,1.94c-3-2.64,0-5.84,2-8.13,4.13-4.74,12.61-5,17.4-.68,5.17,4.72,5.3,10.18,1.5,15.77A63.27,63.27,0,0,1,1160.94,1987.39Z"/><path class="cls-5" d="M1250.37,1988.46c2.81.22,4.37.39,5.94.46,2.36.11,3.28,1.49,3.29,3.64,0,2.68-1.43,3.78-4,3.75-5.07,0-10.14,0-15.21,0-1.49,0-3-.26-5.87-.54,4.35-4.87,8-8.62,11.22-12.67a33.45,33.45,0,0,0,4.36-7.54,3.43,3.43,0,0,0-1.92-4.67,2.78,2.78,0,0,0-4,1.38c-2,4.31-6.4,4.4-8.48,2-2.63-3,.49-6.44,3.06-8.74,4.39-3.94,12.75-3.71,16.91.59,4.8,5,4.52,10.52.63,15.93C1254.88,1984,1253.06,1985.58,1250.37,1988.46Z"/><path class="cls-5" d="M1143.14,1913.5c-2-.35-4.14-.55-4.68,1.82-.6,2.59,1.94,2.73,3.52,3.47,8.65,4.07,11,8.08,8.31,14.29-2.54,5.86-11.11,8.41-18.15,5.35-1.94-.84-4.33-1.55-3.35-4.46.85-2.55,2.3-4.13,5.41-2.72,2.67,1.2,6.31,2.68,7.32-1.32.87-3.4-3.12-3.64-5.51-4.49-4.07-1.43-7.17-3.59-7.22-8.43,0-4.44,1.83-7.87,5.79-9.75,4.38-2.08,8.87-1.34,13.16.59,1.49.68,1.44,2,.86,3.38C1147.51,1913.92,1145.9,1915.16,1143.14,1913.5Z"/><path class="cls-5" d="M1257.28,1922.33v-4c0-11.33,4.27-14.44,15.47-11.58,2.36.61,3,1.84,2.94,3.93-.09,2.28-1.37,3.17-3.55,3.49s-5.64-1.12-5.7,2.48,3.47,2.34,5.61,2.68a2.94,2.94,0,0,1,2.84,3.16c.1,2.26-.77,3.44-3.15,3.67-2.13.22-5.48-.89-5.33,2.91.12,3.13,3.07,2.33,5,2.42,2.92.13,4.54,1.22,4.26,4.38s-2.52,2.8-4.69,3C1257.27,1940,1257.28,1940,1257.28,1922.33Z"/><path class="cls-5" d="M1241.21,1914.66c-5.56-.39-9.7,1.44-10.09,7.55-.42,6.41,3.21,9.24,9.44,9,2.62-.11,6.1-2.31,6.17,3,.06,4.55-3.2,5.33-6.41,5.45-6.86.24-12.64-2.35-16.21-8.42s-2.83-12.4,1.15-18.11c3.87-5.55,9.5-7.38,16.12-6.76,3.95.38,5.63,2.29,5.38,6.3C1246.43,1917.79,1243.52,1915.3,1241.21,1914.66Z"/><path class="cls-5" d="M1224.56,1980.48c0,4,0,8,0,12,0,3.34-2,3.85-4.74,3.84s-4-1.14-3.95-3.81c0-4.8,0-9.61-.06-14.41,0-2.29.79-5.06-2-6.41s-3.37-4-1.92-6c2.22-2.93,6-1.12,9-1.37,2.78-.22,3.65,1.59,3.63,4.09C1224.54,1972.47,1224.56,1976.48,1224.56,1980.48Z"/><path class="cls-5" d="M1170.38,1922.29c0,4-.05,8,0,12,0,2.83-.78,4.52-4,4.54-3.11,0-4.27-1.34-4.25-4.32q.11-11.62,0-23.24c0-2.83.76-4.53,4-4.55,3.12,0,4.32,1.34,4.26,4.33C1170.31,1914.8,1170.38,1918.55,1170.38,1922.29Z"/><path class="cls-4" d="M662.36,1651.23c0-8,.29-16-.11-24-.28-5.46,1.88-6.67,7-6.64,18.92.13,31.35,12.79,30.95,32-.39,18.46-13.69,30.6-32.28,29.85-4.12-.17-5.68-1.43-5.57-5.59C662.51,1668.32,662.36,1659.78,662.36,1651.23Z"/><path class="cls-5" d="M1576.55,1632.34a6.8,6.8,0,0,1,0-2.39c1.59-3.87-3.8-10.27,3.82-11.81,7.9-1.6,16.24,3,18.41,9.6A13.54,13.54,0,0,1,1592,1644a18.24,18.24,0,0,1-3.81,1.15c-10.51,2.44-11.6,1.61-11.61-8.8Z"/><path class="cls-2" d="M1879.21,1218.75c-1.15,57.7-21.14,106.92-68.32,142-86.64,64.42-211.32,27.82-249.93-74-26-68.64-17.67-134.24,31.84-189.87,79-88.7,224.52-62.75,271.13,46.88C1874.11,1167.69,1879.55,1192.57,1879.21,1218.75ZM1618,1218.3a108.69,108.69,0,0,0,8.52,43.89c25.26,61.73,106,77.58,150.08,29,26-28.61,31.63-63,22.87-99.79-14.59-61.26-81.76-91.34-134.83-60.07C1631.91,1150.58,1619.31,1181.67,1618,1218.3Z"/><path class="cls-3" d="M1195.94,1980.41c-.62,3.89-.45,9.25-5.48,9.15s-5.07-5.52-5.09-9.35.12-9.17,5.29-9.06S1195.33,1976.59,1195.94,1980.41Z"/><path class="cls-4" d="M1618,1218.3c1.27-36.63,13.87-67.72,46.64-87,53.07-31.27,120.24-1.19,134.83,60.07,8.76,36.78,3.09,71.18-22.87,99.79-44.13,48.63-124.82,32.78-150.08-29A108.69,108.69,0,0,1,1618,1218.3Z"/></svg>