<svg id="Layer_1" data-name="Layer 1" xmlns="http://www.w3.org/2000/svg" viewBox="0 0 1273.48 2491.05"><defs><style>.cls-1{fill:brown;}</style></defs><path class="cls-1" d="M1131,1843.21c-13.4,6.32-26.92,13.08-40,19.62-32.61,16.3-66.35,33.15-101.14,44.92-21.13,7.13-45.65,6.62-69.39,6.1-6.21-.13-12.57-.26-18.87-.26-2.62,0-5.23,0-7.82.07-1.41-.76-4.71-5-6.6-9.52l-.26-.6c-6.11-14.67-9.18-22-16.13-25.31-6.16-2.88-13.74-1.67-27.74,1.29l-7.14-57.13,54-6.73v-3.82q0-10.69,0-21.85c.1-26.11.19-53.1-.79-80.47-.27-7.35-13.45-14.45-19.94-15.18-29.05-3.32-32.31-6.23-38.69-34.61-.17-.76-.33-1.54-.49-2.3a71.84,71.84,0,0,0-2.39-9.09c-9.46-26.48-4.66-52.13.42-79.3,3-16.28,6.18-33.1,5.94-50.06-.1-6.94-.71-12.77-2.44-17.46a20.89,20.89,0,0,0-2.48-4.85c-4-5.72-11-8.76-23.15-8.92-13.57-.17-27.2-1-43-2-6.47-.4-13.13-.82-20.34-1.23q0-10.58.07-20.7c.07-17.82.15-34.68-.16-51.6-.27-14.61-6.08-26.12-16.36-32.4-10.5-6.41-24.28-6.28-37.82.36-3.35,1.64-8.08,1.51-13.09,1.37l-2.9-.08c0-.56.07-1.13.1-1.7.22-4.47.46-9.09.84-13.58q.65-7.54,1.25-15.09c1.27-15.58,2.58-31.67,4.54-47.36.79-6.34,2.91-12.53,4.47-17,0,0,0-.06,0-.07,3.37.86,6.59,1.78,9.72,2.68,8.62,2.45,16.75,4.78,25,5,62.35,2,125.75,3.69,187,5.3q46.92,1.23,93.81,2.49c25.77.72,51.75,1.64,79.26,2.62l34,1.19c-2.09,3.57-4,7-5.94,10.2-5.94,10.21-11.07,19-16.25,27.75-10.76,18.15-20.4,38-10.28,62.79,2.78,6.83,2.72,15.07,2.65,23.79,0,4.57-.07,9.3.33,13.9s1.06,9.08,1.69,13.47c1.2,8.26,2.32,16,1.87,23.74-.38,6.65-4.05,14.88-9.11,20.48-10.73,11.86-13,23.57-7.61,39.19,1.74,5,1.77,10.88,1.8,17.08,0,3.22,0,6.53.32,9.81.11,1.45.11,3.21.11,5.07,0,5.94,0,12.09,4.08,15,17.38,12.46,18.78,30.17,20.26,48.94a169.06,169.06,0,0,0,2.61,21.32c1.69,8,2.42,16.5,3.13,24.7.82,9.32,1.64,19,3.87,28.26,1.64,6.92,6.25,12.85,10.32,18.08a78.12,78.12,0,0,1,5.06,7C1138.91,1767.31,1142.1,1802.22,1131,1843.21Z"/><path class="cls-1" d="M876.87,1782.34c0,6.71,0,13.53,0,20.51-20.57-3.79-46.93-7.38-54.54,19-3.93,13.55-1.49,28.69,1.08,44.72,1,6.4,2.07,13,2.79,19.8l-242,70.78q-4.39-13.56-8.78-26.85c-7.66-23.25-14.88-45.23-21.61-67.79-4.21-14.15-8.09-28.71-11.84-42.77-5.16-19.33-10.48-39.32-16.81-58.68-4.79-14.67-13.14-32.16-35.34-37.22-5.28-1.19-11.61-8.17-14.71-14.21-8-15.6-22.65-25.83-38.33-26.68-.69,0-1.38,0-2.06,0-12.48,0-23.64,6.17-30.85,17.17-4.82,7.36-4,17.45-3.18,27.21a97.15,97.15,0,0,1,.51,13.88c-.22,3.21-1.38,6.55-2.62,10.1-.05.16-.11.31-.16.49l-2.3-1c-2.81-1.16-8.07-3.31-8.55-4.72-12.87-38.83-17-74.93-12.54-110.4.63-5.11.92-10.28,1.2-15.3.46-8.54.89-16.61,2.95-24.25,1.13-4.2,6.94-9.75,14.12-13.5,20.16-10.54,40.27-20.31,61.57-30.68,7.77-3.78,15.61-7.58,23.51-11.48l3.85-1.89-30.42-63.09L558,1429.86l26.9,38.18,48.31-58.25,18.89-15.67v1l4.18.19c3.7.16,7.52.66,11.56,1.18,9.27,1.21,18.86,2.47,27.4-.55,9.51-3.36,18.39-2.91,24.36,1.23,5.21,3.57,8.05,9.77,8.24,17.92.43,17.89.33,35.62.23,54.36,0,8.22-.09,16.55-.09,25v4l94.18,6.39q-2.13,11.41-4.21,22.39c-4.61,24.47-9,47.58-13,70.78-1,6-.74,12.94.92,21.27,1.37,7,3.07,13.91,4.72,20.65,2.52,10.38,5.15,21.12,6.53,31.72,3.27,25.2,18.63,37.87,44.39,36.69,5.43-.24,9.16.69,11.47,2.86,2.51,2.38,3.7,6.62,3.77,13.36C877,1743.52,876.91,1762.38,876.87,1782.34Z"/><path class="cls-1" d="M683,1189.66l-25,157.77L647.67,1325l-61.87,63.75L605,1421.9l-18.5,20c-10.82-12.53-17.45-19.42-24.83-21.81-.58-.17-1.15-.35-1.74-.48-8.76-2-19,2-38.5,10.17-19.16,8-38.3,16-58.09,24.32l-32.13,13.48,30.71,64.18L386,1569.17q-3.78-4.15-7.35-8.13c-6.82-7.59-13.27-14.74-20.16-21.53-.87-.85-1.72-1.67-2.57-2.48-9-8.72-15.5-15-13.74-30.94,1.93-17.37-10.26-40.07-23.18-52-23.19-21.41-31.69-48.53-40.71-77.27-1.18-3.76-2.36-7.52-3.57-11.27-5.48-16.92-11.57-28.42-26.47-37.2-5.21-3.07-10.4-11.55-11.11-18.17s-1.42-13.08-2.16-19.62c-3.62-32.29-7.35-65.67-6.3-98.21.5-15.59,7.25-31.69,13.75-47.26,2.48-5.91,5-12,7.24-18.07,4.88-13.38,8.7-21.92,25.09-28.63,29.79-12.2,57.95-29.33,85.19-45.9,6.9-4.21,14-8.49,21.06-12.7q3.08-1.85,6.14-3.64l4.13-2.39h0l.05,0,.26-.09a3.53,3.53,0,0,0,.52-.16c2.37-.72,4.82-1.38,7.25-2,.87-.23,1.72-.46,2.57-.67,8.25-2.17,16.78-4.42,24.46-8.51,4.83-2.58,7.45-7.66,10.77-14.09,1.35-2.62,2.87-5.56,4.71-8.63,3.2-.94,9.29-.87,16.12,15.12,2.67,6.23,5.26,12.78,7.77,19.09,8.67,21.9,17.64,44.55,32.57,62.06,20.2,23.66,34.71,49.17,50.08,76.17q3.23,5.67,6.47,11.36c3,5.24,11.84,6,20.94,6.12,27.26.26,54.3.23,82.92.2Q670.72,1189.66,683,1189.66Z"/><path class="cls-1" d="M1273.48,2323.2l-294.43,93.31q-6-19.85-12.11-39.63c-10.22-33.36-20.79-67.86-30.88-101.86-5.73-19.34-8.11-27.34-14.07-30.48a10.83,10.83,0,0,0-5.2-1.23c-3.5,0-7.52,1.31-12.7,3-3.67,1.2-8.25,2.68-13.83,4.12-5.4,1.39-10.61,3-16.63,4.89l-5.08,1.59-48.36-163.58,83.79-22L875.83,1929a61.44,61.44,0,0,1,6.75.1c72.22,6.59,130.16-6.41,182.31-40.91,14.68-9.7,32.5-14.78,51.37-20.17,7.18-2,14.58-4.15,21.89-6.56.83,4.5,1.66,8.89,2.48,13.22,2.46,13,4.79,25.36,6.65,37.72,2.33,15.43,8.21,28.3,19.66,43,9,11.6,14,31.48,12,47.28-3.43,26.34-1.31,44.89,19.32,60.67-.1,2.8-.11,5.51-.14,8.14-.06,7-.11,13.67-1.79,19.45s-6.64,12.5-12,16.2c-17,11.67-25.62,24.33-12.68,48.26,3.87,7.17,3.1,17.84,2.37,28.16-.33,4.66-.66,9.48-.61,14.06a27.68,27.68,0,0,1-.78,5.32c-.8,3.92-1.73,8.36.49,12,15.88,25.71,30.51,47.9,44.73,67.87,4,5.61,9.43,10,15.17,14.59,2.7,2.18,5.49,4.42,8.28,6.9l2.69,2.41,2.84-2.22c4.46-3.47,8.09-5,10.51-4.5,3.43.75,6.25,6.22,9,11.49C1268.3,2315.5,1270.51,2319.8,1273.48,2323.2Z"/><path class="cls-1" d="M928.07,307.63l27.5,12.2-20,65.75-91.17-23.72,36.86,56.21a46.38,46.38,0,0,1-6.72-.93c-8.58-2-15-1.32-19.77,2-6.63,4.72-8.42,13.92-9.23,21.4-3.9,36.07-8.56,71.83-13.48,109.71q-2.64,20.16-5.3,41l-154.6-35.08c.66-6.53,1.25-13.08,1.83-19.42,1.63-18.13,3.17-35.23,6.43-52.31,1.8-9.39,1.1-15.6-2.28-20.13-4-5.44-10.91-7.17-20.72-8.2-22.84-2.4-45.49-5.76-69.47-9.32-8.24-1.22-16.72-2.49-25.34-3.73C580.9,398,563.71,360.42,547.09,324c-5.28-11.55-10.74-23.5-14.85-35.37-4.24-12.22-10.44-23.48-17-35.39-2.22-4-4.49-8.16-6.72-12.39L905.92,96c.81,5,1.69,10,2.54,15,2.7,15.64,5.48,31.82,6.52,47.93,1.63,25.4,13,38.62,35.86,41.64,2.69.34,5.5,1.58,9,3.14l2.57,1.11Z"/><path class="cls-1" d="M890.86,762.12a10.53,10.53,0,0,0-.06,1.26v.14c-12.69,30.6-13.84,63.2-15,94.72-.82,23-1.67,46.71-6.93,69.78l-39.38-3.6,12.56,90.68c-4.36-.25-8.65-.47-12.92-.68-13.08-.68-25.42-1.31-37.88-2.31-17.83-1.43-31.52-.82-40.36,6.85s-11.42,21.08-12.63,40.17c-1.73,27.74-4.84,56-7.86,83.28-1.18,10.74-2.39,21.82-3.53,32.82H567.51c-2.12-4.14-4.1-8.42-6-12.58-5.09-11-10.35-22.34-18.27-31.41-22.82-26.17-22.88-56.11-22.93-87.8,0-7.19,0-14.63-.31-22-.33-7.87-2.89-15.43-5.35-22.74a111.84,111.84,0,0,1-4.15-14.13c-.9-4.46-.37-9.42.2-14.66.14-1.27.27-2.54.39-3.8,1.28-13.79,2.68-27.48,4.15-42,.47-4.63.95-9.31,1.44-14.07,24.45-2.51,24.83-20.62,25.13-35.3.07-3.41.15-6.93.48-10.25l.34-3.53-24.77-7.59L523,813.64c8,1.18,16,2.28,23.83,3.33,22.25,3,43.26,5.88,64.22,10.6,10,2.25,16.51,1.76,21-1.6,5.25-3.94,6.7-11,7.27-20.41.88-14.7,3-29.35,5.32-44.85.77-5.25,1.56-10.63,2.32-16.12l83.89,24,11.77-87q14,2.16,28,4.25c23.28,3.52,47.38,7.15,70.86,11.28,27.62,4.84,42.83,7.51,48.49,15S893.85,734.63,890.86,762.12Z"/><path class="cls-1" d="M552.44,422.72c-.75,5.25-1.52,10.62-2.05,16.09-38.5-10.2-64.46,9.91-87.48,27.75-4.06,3.14-7.9,6.11-11.75,8.88-23.9,17.2-21.65,43.51-19.46,69,.82,9.58,1.65,19.42,1.14,28.8l-35.23-2.5-.66,3.88q-1,5.64-2,11.32c-1.5,8.29-3,16.85-4.11,25.4-4.7,37.51-17.87,46.71-52.59,53.83-30.16,6.2-58,.1-87.5-6.35-12.14-2.65-24.7-5.39-37.26-7.13-27.71-3.85-49-10.34-65.16-19.83-21.16-12.44-26.31-35.06-13.43-59,7.82-14.58,13.49-28.21,3.48-47.25-3-5.77-3.1-13.48-3.18-21.66a113.22,113.22,0,0,0-.77-14.48l-.2-1.48c-1.41-10.25-3.31-24.12-22.46-24.12-.88,0-1.79,0-2.74.08a16.34,16.34,0,0,1-13.18-5.63c-5.39-5.83-8-14.86-6.76-23.54l.17-1.28c4-28.27,6-42.46,13.24-51.44s20.51-13.87,47.68-23.46c71.1-25.08,143.58-50.06,213.68-74.23q45.7-15.75,91.37-31.53c.74-.26,1.46-.57,2.17-.87a19.26,19.26,0,0,1,1.83-.73l.49-.15c16.35-4.86,25.34-7.54,30.55-5.38,5,2.07,8.71,9.32,16.09,25.38l1.13,2.45c16.5,35.89,33.56,73,45.41,110.92C556.36,395.39,554.46,408.67,552.44,422.72Z"/><path class="cls-1" d="M1123,1100.06c-.49,4.65-.69,9.45-.9,14.1-.52,11.7-1,22.73-5.48,31.5-17.47,34.25-19.56,66.39-6.58,101.14,3.37,9,3.82,19.62,4.29,30.83.16,4,.33,8.19.65,12.44l-5.72,0c-5.41,0-9.69.05-13.85,0l-148.64-3.85q-114.12-2.94-228.26-5.87c-9-.23-16.91-3.7-22.14-9.8s-7.31-14-6.19-22.72c1.63-12.69,3.48-25.21,5.44-38.47q1.05-7.08,2.12-14.33h42.69l17.91-160.34c3.08-.45,6.28-.94,9.62-1.46,10.54-1.64,22.47-3.48,34.2-4.28,11.46-.78,23.07-.6,35.35-.42,5.59.09,11.39.18,17.36.18h5L847.77,943.1c1.37-.05,2.73-.16,4.05-.24,5.53-.36,10.73-.71,15.07.53,38.41,10.89,75.89,3.23,118-24.08,23.33-15.15,47.56-12.24,73.23-9.15,10.88,1.29,22.14,2.66,33.23,2.49,2.64,2.76,7.14,15.7,9.12,21.36.46,1.34.9,2.6,1.31,3.77.8,2.25.82,6,.83,9.39,0,6,0,11.23,4.34,13.16,10.1,4.53,9.4,9.81,7,20.36-.3,1.3-.59,2.61-.85,3.94-1.15,5.75-2.42,11.62-3.65,17.3-3.42,15.77-7,32.1-8.36,48.48-.09.92-.17,1.87-.26,2.81-1.43,15.77-3.39,37.37,21.32,45.79A4.68,4.68,0,0,1,1123,1100.06Z"/><path class="cls-1" d="M964.53,2422.3l-217.1,68.75c-18.9-27.09-27.55-49.84-28.83-75.6-.87-17.27-6.74-34.25-12.4-50.69-2.21-6.36-4.47-13-6.39-19.38-27.74-93.13-55-184.31-83.8-280.86l-27.67-92.64,15.76-4.47c14.62-4.15,28.43-8.06,42.46-12.18,9.73-2.86,19.58-5.84,29.13-8.74,18.55-5.62,37.76-11.45,56.78-16.54a51.71,51.71,0,0,0,7.19-2.72c8.52-3.72,12.84-5.15,17.72,2.79,1,1.66,3.12,3.39,10.3,2.2,3.27-.55,6.4-1.49,7.09-4.62,3-13.55,11.51-15.58,25.12-17.79,5.05-.81,10.25-1.66,15-3.56,11.62-4.69,23.86-8.21,36.81-11.94,4.64-1.34,9.4-2.71,14.27-4.18l7.3,20.95c-5.28,1.28-8.9,3.47-11.17,6.72-4.23,6-2.45,13.64-.58,21.73.19.8.39,1.63.58,2.45,6.37,28.27,11.7,56.4,17.34,86.18,2,10.44,4,21,6,31.63q-7.5,2-15.09,4.1c-15.32,4.16-31.13,8.47-46.92,12.12-5.42,1.26-13.06,3.65-16.67,9.86-2.44,4.17-2.72,9.25-.86,15.49,12.14,40.95,24.19,81.15,37,123.71q6.81,22.71,13.76,45.85l1.19,4,57.5-15.35Z"/><path class="cls-1" d="M1266.17,455.63c1.5,6.67,2.68,11.93,2.21,16.68-.87,8.53-4.29,17.06-8.32,26.53A102.4,102.4,0,0,1,1253.4,511c-4.66,7.63-9.48,15.53-9.87,24.14-1.45,32.59-16.43,53.71-47.13,66.47-18.83,7.83-30.65,30.63-26.39,50.84a53.32,53.32,0,0,1,.65,11.69c0,.16,0,.31,0,.47l-.22-.06c-4.68-1.1-9.36-2.19-14-3.32-1.9-.45-3.78-.94-5.66-1.43l-1.37-.36-.94-.24-4.27-3.35-53.1-41.62c1.91-5.14,3.8-10.18,5.65-15.16,5.35-14.33,10.4-27.87,15.69-41.45,1.93-5,3.72-11.19.43-15.67-2.94-4-8.33-4.34-11.55-4.27l-23.56-19.57-.26-.2c-.33-.23-.66-.47-1-.72-8.65-6.59-10.25-14.3-5.75-27.09,1.11-3.2,2.41-6.53,3.79-10.08,6.12-15.75,12.45-32,7-43.88-4.59-9.92-18.14-14.27-32.49-18.87-4.7-1.51-9.54-3.07-14-4.82l3-10.61c3-10.71,6.09-21.53,9.13-32.34,9.62-34.2,8.45-36.36-24.76-46.44l-57.82-17.53-17.8-5.41,34.7-104.16-5.07-.76c-44.25-6.75-49-37-50.41-73-.33-8.26-1.73-16.4-3.2-25-.52-3-1-6.1-1.56-9.27L1139.81,0c-3.9,15.8,1.44,27.78,17.11,39.77,14.36,11,25.74,27.13,29,41.18,1.89,8.17-1,17.8-4.1,28-2,6.67-4.11,13.59-4.91,20.49-.39,3.3-.86,6.61-1.33,10.13-2.24,16.19-4.54,33,.39,47.53,5.65,16.72,0,29.67-6,43.37-1.51,3.49-3.08,7.09-4.44,10.72-6,16-3.57,27.6,8.25,40,5.36,5.62,10.68,11.49,15.85,17.16,8,8.84,16.32,18,25,26.5,3.75,3.69,8.18,6.49,12.47,9.18,4.59,2.92,8.93,5.66,12.12,9.23,4.55,5.14,7.85,11.47,11.36,18.16,1.64,3.12,3.33,6.35,5.16,9.45,2.74,4.66,5.56,9.3,9.14,15.17,1.41,2.34,3,4.86,4.66,7.69l-2,2.23c-5.12,5.6-12.14,13.25-18,21.75-3.85,5.55.46,16.16,3.75,20.05a35,35,0,0,0,10.81,8.05C1264.77,449.41,1265.51,452.68,1266.17,455.63Z"/><path class="cls-1" d="M1157.37,681.22c-.58.62-1.14,1.25-1.7,1.89-1.89,2.13-5.42,6.1-6.81,6.26-31-2.25-50.56,15.54-69.5,32.71-3.87,3.52-7.88,7.15-11.86,10.48-29.4,24.59-33.54,59.21-11.35,95,3.68,5.94,5.28,13.4,7,21.3.65,3,1.3,6,2.07,9,2.34,8.91,4.47,17.9,6.74,27.43.66,2.8,1.32,5.64,2,8.55a34.67,34.67,0,0,1-7.35,0c-43.78-5.59-83.49,3.52-118,27.07-19,13-39.13,15.28-63,7.22.43-3,.91-6.08,1.4-9.26,1.57-10,3.18-20.38,3.49-30.85a228.71,228.71,0,0,0-1.29-26.16c-.56-6.43-1.15-13.07-1.27-19.55-.1-5.19,1.1-10.52,2.35-16.18.34-1.45.65-2.89,1-4.34,2.29-11,4.71-22.2,7-33,4.78-22.14,9.73-45,13.88-67.71,1.47-8.08.28-14.93-3.56-20.35-4.37-6.17-11.92-10.16-22.46-11.85-33.09-5.29-66.7-11-99.2-16.42l-24.8-4.17c-4.29-.72-8.57-1.59-13.53-2.58-1.32-.27-2.69-.55-4.11-.82L755,595.62l85.34,10.69,22.18-172.85H911l-32.53-46.67,66.83,17.29,25.71-79.95,66.63,19.77-21.35,78.58,52.54,19.78c-1.26,4.38-2.47,8.74-3.68,13.06-3.59,12.81-7,24.89-10.83,37-3.5,11-3.3,18.81.61,24.53,3.44,5.05,9.43,7.9,18.28,8.71l21.7,18L1074.09,624l71,43.57Z"/><path class="cls-1" d="M524.12,890.79c-1.73,1.85-5.29,2.8-10.57,2.84-4.79,0-10.41,6.43-10.94,11-.9,7.65-2.47,15.75-4,23.58-3.85,19.82-7.83,40.31-2,57.95s5.86,35.14,5.93,52.09c0,10.38.07,21.11,1.4,31.82a19.59,19.59,0,0,1-.1,6.23c-2.22-4.55-4.46-9.1-6.68-13.65-8.09-16.48-16.45-33.51-24.15-50.48l-.49-1.08C465.54,995.7,462,988,454.67,985s-16-.3-33.56,4.95l-5,1.51,2.44,4.65c2.44,4.63,3.14,8.24,2.1,10.77a4.14,4.14,0,0,1-.2.43c-.07.14-.16.29-.24.43a2.77,2.77,0,0,1-.31.45,9.06,9.06,0,0,1-1.81,1.86,4.05,4.05,0,0,1-.57.43s0,0,0,0c-.38.26-.75.52-1.17.77-.65.38-1.36.76-2.09,1.13l-1,.48-.94.39h0v0c-.51.21-1,.42-1.54.6-1.37.52-2.79,1-4.19,1.43l-.89.3-.07,0-12.92,7.4a1.2,1.2,0,0,1-.17.11l-1,.7c-.62.42-1.24.82-1.84,1.21l-.12-.19h0q-14.55,7.55-29.08,15.14c-24.71,12.89-50.26,26.22-75.67,38.72-7.17,3.54-15.25,5.76-23.08,7.89-2.5.68-5.06,1.39-7.59,2.12q-5.55-9.51-10.91-18.58c-11.06-18.79-21.5-36.53-31.43-54.46-2.86-5.18-4.23-11.7-3.32-15.86C223.1,932.12,200.08,876.71,138,830.6c2.48-2.25,5-4.49,7.41-6.67,9.27-8.29,18.05-16.13,26.12-25.07,6.32-7,12.78-17.65,12-26.65-2.26-26.06-5.78-52.39-9.17-77.87q-1.92-14.3-3.76-28.62c-.18-1.39-.31-2.81-.44-4.49,7.37,1.06,14.71,1.95,21.86,2.83,19.9,2.44,38.7,4.74,56.8,10,41.94,12.24,83.54,7.4,123.78,2.73,8.82-1,20,1.58,27.89,6.49,17.27,10.78,34,22.76,51.73,35.45q10.14,7.28,21,14.92a37.6,37.6,0,0,1-1.08,6.16c-1.4,6.2-3.13,13.91,1.66,19.39,3,3.42,8,5.14,15.09,5.17l-5.2,49.22,22.24,3.91-4.12,48.36,23.92,6.24c0,2.08.09,4.15.19,6.19C526.15,883.48,526.41,888.37,524.12,890.79Z"/><path class="cls-1" d="M740.15,584.12,717.8,748.87l-83.55-24-11.84,86.69-121-14.68,4.53-43.55L486.62,747,488.88,723l-96.11-62.31,19.38-73.07,37.38,2.26v-4.6q0-9.72.07-19.27c.11-14.67.19-28.51-.2-42.68-.53-20,3.39-35.5,24.25-46.37,2.5-1.3,5-2.61,7.42-3.91,27.82-14.75,51.86-27.5,86.12-14.3,21.58,8.3,44.94,10.29,69.68,12.41,9.45.81,19.17,1.63,28.83,2.86l-10.33,97Z"/><path class="cls-1" d="M149.51,800.46c-6.3,5.54-13.15,10.7-20.4,16.18-2.47,1.86-5,3.76-7.59,5.75-21.25-25.72-30.75-46.59-32.58-71.21-.87-11.58-3.33-23.07-5.71-34.2-1.86-8.68-3.79-17.65-4.89-26.48L78,687.43C75.63,669,73.24,650,75.07,631.94c2.51-24.9-7.1-40.46-29.4-47.57-14.61-4.64-17.42-12.93-20-29.44-1.7-11-.27-22,1.24-33.66,2.33-18.13,4.77-36.91-5.55-55.26-1.27-2.25-2.5-4.62-3.69-6.91-3.18-6.08-6.46-12.4-11-17.85-3.81-4.64-8-11.48-6.37-17.73,1.54-5.92,8-9.53,13.09-11.51C29.75,405.68,46,399.25,63.2,392.44c5.47-2.14,11-4.34,16.67-6.59q-.59,5.17-1.12,10c-1.26,11.25-2.46,21.88-4.13,32.17-4.5,27.69,6.69,44.12,35.24,51.72,3.39.91,8.39,6.88,9.55,11.41a403,403,0,0,1,9.8,53.5c.45,4-2.67,9.68-5.16,14.28l-.72,1.33c-17.52,32.47-12.63,59.54,15.4,85.21,9.15,8.39,15.94,19.43,17.72,28.84a120.28,120.28,0,0,0,5.29,17.75c5.06,14.24,9.85,27.69.34,42.11-3.49,5.29-1.54,15.1,1.4,19.8C175.08,772.56,167.52,784.64,149.51,800.46Z"/><path class="cls-1" d="M650.38,1370.71c-7.88,11-15.6,21.76-23.3,32.52l-11.27,6-12.62-20.13,38.86-38.12Z"/></svg>