<svg id="Layer_1" data-name="Layer 1" xmlns="http://www.w3.org/2000/svg" viewBox="0 0 5128.94 2409.8"><defs><style>.cls-1{fill:#fff;}</style></defs><path class="cls-1" d="M2240,1122.06c-47.62-29.74-47.86-32.15-27.57-80.5,48.56-115.75,141.07-168.24,260.67-181.62,83.26-9.31,167-15.23,249.88-26.92,80.54-11.35,146.26-50.19,180-127.16,13.53-30.89,20.67-67,20.93-100.74.46-60.67-32.77-102.32-88.26-127.5-89-40.41-178.13-35.88-267.59-2.94-25.21,9.28-49.78,20.29-78.79,32.21,4.51-10,7-16.88,10.54-23.15,75.08-132.37,218.7-193.86,377.13-161.59,132.77,27.05,235.12,146.38,248.78,296,17,186-35.82,350.14-163.79,488.18-48.87,52.71-108.19,90.75-174.48,117.73-17.61,7.17-36.58,12.78-55.39,14.83-27.47,3-59.64,14-78.72-16.06-24.69-38.91-35.38-82.26-4.36-122.23,16.6-21.38,39.62-39.81,63.35-53.16,33.27-18.7,70.63-30,104.91-47.08,44.31-22.11,88.44-45.05,130.37-71.26,18.91-11.81,32.33-32.4,46-51.56-56.68,64-134.25,88.25-211.09,113.81-19.05,6.34-38.16,12.51-57.15,19-112.5,38.51-146.16,92.84-129.6,205.77-33.48,5.22-67.26,8.69-100.2,16-63.35,14.06-116.75-8.44-167.82-41.59-50.37-32.69-55.48-48.43-25.92-101.41,37.54-67.32,96-109.83,169.72-130.52,51.21-14.36,103.1-26.33,154.61-39.67A34,34,0,0,0,2644,907.51c-73.15,13.87-148.16,21.67-219,43.16C2338.26,977,2272.42,1033.49,2240,1122.06ZM2792.69,921l-4.51-4c-64.19,18.92-128.83,36.47-192.4,57.29-37.09,12.16-75.37,25-107.75,45.92-29,18.68-53.81,46.44-74.23,74.7-11.62,16.07-10.71,41.17-15.44,62.2l9.75,3.05c6.16-46.35,32.17-78.94,70.74-100.86a578,578,0,0,1,80.42-37.52c44-16.71,89.88-28.76,133.17-47C2727.23,960.07,2759.37,939.14,2792.69,921ZM3048.54,753.6c54.64-96,25.92-236.4-58.52-278.26C3048.17,562.5,3054.63,656.61,3048.54,753.6Zm-108,255.74-4.08-7.18c-25.57,8.1-51.69,14.83-76.59,24.63-39.92,15.7-73.65,40-94.56,78.81-13.4,24.89-16.17,50.29-2.56,79,17.65-60.3,23.6-72.89,55.74-96.88,22.26-16.62,47-29.84,70.56-44.8C2906.35,1031.9,2923.4,1020.54,2940.56,1009.34Zm-24.69-582.87c-58.44-79.77-226.6-85.12-292.95-9.43C2723.18,375.72,2818.6,376.68,2915.87,426.47Zm-36.1,422.07c49.81-9.1,81-40.31,102-83.38,20.43-41.89,21.71-88.93,2.47-116.66C2974.13,729.15,2939.73,795.36,2879.77,848.54Zm40.3-369.31,46.62,92.09C2974.45,532,2959.72,502.27,2920.07,479.23Z"/><path class="cls-1" d="M2567.7,626.18c-47.54,72.6-154.9,71.63-232.7-7.09l95.78-9.63c-38.66-8.44-78.19-20.49-110.91,2.31-42.77,29.8-33.54,80.24-36.55,123.71,2.82,2.37,4,4.29,5.41,4.42q114.63,10.47,229.28,20.63c64.5,5.65,127.35-1.1,187.43-26.54a127.34,127.34,0,0,0,31.24-18.69c-73.27,17.14-146.55,28.17-222,19.58,32.34-69.75,196.47-107.54,359.44-81.39-7.38,18.91-12.42,37.91-21.69,54.56-47.39,85.2-133.78,124.39-235.48,108.28-45.67-7.23-91.15-17.56-137.1-20.58-41.45-2.73-84.33-2.27-125,5.27-113.4,21-178,93.44-196.16,212.53-1.28,8.41-2.54,16.82-3.78,25-3.09,0-5.48.71-6.23-.1-112.37-121.51-167-263.52-141.67-429,18.33-119.68,91.12-204.19,196.71-259,73.32-38.08,151.39-64,235.93-60.92,55.94,2,105.37,19.47,142.69,62.75-33.27,19.79-64.47,38.8-96.11,57-35.91,20.72-73.51,36.76-116.14,35.83-46.54-1-82.83-22.09-114.81-58.23,65.53-35.21,133.73-38,210.49-33.85-194.55-52.16-398.88,57-402.09,282.22,69.63-26.25,100.56-75.28,93.78-148.44-.72-7.8-3.37-16.75-.57-23.18,3.2-7.34,11.51-12.45,17.6-18.53,4,7.39,12.26,15.56,11.11,22.05-3.48,19.52-12.84,38.07-15.72,57.61-2.85,19.34-.62,39.44-.62,59.68,22.44-7,39.62-22.11,51.14-48.14,26.44-59.74,93.25-84.42,151-58.21,9.11,4.13,17.12,10.68,24.42,15.34-18.11,16.77-35.14,31.6-51.11,47.49-32.7,32.57-71.85,47.54-117.9,48.28-13.78.22-28.54,5.47-40.89,12.07-13.64,7.3-24.14,20.32-37.56,28.21-61.92,36.4-60.64,98.85-26.32,149.37l-19.79,31.47c36.54-18.46,73.43-35.25,108.24-55.59,14.19-8.29,25.78-23,35-37.17,7.36-11.27,10.2-25.83,13.61-39.3,21.48-84.73,44.9-104,132.38-106.83C2456.52,569.45,2515.3,587.28,2567.7,626.18Z"/><path class="cls-1" d="M364.77,1615.22c-35.12,94.64-67.48,181.15-99.21,267.88-6.94,19-17.81,32.2-38.84,33.45-25.05,1.5-38.3-12.69-44.93-35.38q-34.11-116.76-68.59-233.41c-11.55-39.32-23.23-78.61-34.53-118-7.57-26.36-18.78-48.59-49-55.53-5.46-1.24-9.07-10.5-13.53-16.06,6.22-5,12.39-14.15,18.68-14.24,49.71-.67,99.45.07,149.16,1.38,5.46.15,15.28,6.82,15.16,10.17-.23,6.15-6.21,12.18-10.08,18.07-4.83,7.36-15.62,16.08-14.12,21.56,25.5,93.24,52.51,186.07,79.18,279l7.63.52c3-7.24,6.36-14.36,9-21.73q44.26-124.48,88.34-249c2-5.75,3-12.34,6.41-17.07,9.23-12.63,18-32.62,29.78-34.83,21.58-4,24.78,19.87,30.63,35.66,34.5,93.23,68.58,186.62,102.92,279.91,2.24,6.1,5.44,11.84,10.9,23.53,8.93-28.8,16.78-51.51,23-74.66,17.38-64.83,34.48-129.74,50.81-194.85,5.07-20.19,11.6-42.45-19.72-49.72-3.68-.85-8.79-10.7-7.48-14.24,1.93-5.2,8.93-11.84,14-12,41.82-1.54,83.7-2.36,125.54-1.66,6.11.1,14.4,8.36,17.1,14.77,1.34,3.18-7,14.67-12.24,15.67-30.76,5.85-42.27,29.4-51.33,54.21-40.38,110.56-80,221.4-119.85,332.14-3.54,9.84-7,19.73-10.68,29.51-6.51,17.23-18.23,27.4-37.53,26.65-18.62-.72-30.31-9.94-37.2-27.54-29.24-74.71-59.11-149.17-88.8-223.7C379.57,1651.29,373.66,1637.06,364.77,1615.22Z"/><path class="cls-1" d="M4743.58,1655h230.19c0-49.69,1.83-98.41-1.36-146.81-.74-11.29-18.63-21.35-28.42-32.16-5.75-6.35-11.07-13.07-16.59-19.63,7.6-4.37,15.1-12.34,22.8-12.53,46.08-1.16,92.23-1.21,138.31.14,8.35.24,16.46,8.68,24.67,13.33-5.86,6.32-10.64,16.08-17.79,18.33-21.28,6.7-29.12,21.38-29.18,41.39q-.42,159.66-.05,319.31c0,21.25,8.47,36.39,31.18,42.48,6.38,1.72,10.66,11.25,15.9,17.2-7.16,4.92-14.21,13.9-21.49,14.09-47.84,1.29-95.74,1.19-143.59.12-7-.15-13.82-7.84-20.72-12,5.31-6.7,10.27-13.72,16-20,9.82-10.78,28.11-20.59,28.85-31.74,3.22-48.38,1.38-97.08,1.38-146.84H4745.05c0,50.25-1.46,99.66,1.21,148.84.55,10,16.69,19.16,25.51,28.82,6.23,6.84,12.25,13.87,18.37,20.82-8.58,4.14-17.07,11.62-25.75,11.86q-66.54,1.82-133.13,0c-8.8-.23-17.4-7.45-26.1-11.45,6-7,10.77-17.9,18.28-20.37,21.37-7,28.56-21.9,28.61-41.76q.38-159.66,0-319.31c-.06-20-7.84-34.73-29.22-41.31-7.14-2.19-11.95-11.94-17.83-18.23,8.12-4.72,16.13-13.28,24.38-13.52,46.07-1.34,92.21-1.28,138.29-.1,7.64.19,15.07,8.25,22.59,12.67-5.52,6.54-9.89,16.81-16.77,18.9-20,6.12-29.2,19.59-29.58,38.45C4743,1560,4743.58,1606,4743.58,1655Z"/><path class="cls-1" d="M2373,1648.35c.23.1,3.18,1.52,6.23,2.64,59,21.65,85.68,54.69,87.1,107.73,1.73,64.14-26.74,115.17-84.59,133.52-39.1,12.4-81.86,16.1-123.24,17.9-63.48,2.76-127.19,1-190.78-.13-8.61-.15-17.08-7.78-25.62-12,6.08-6.9,10.93-17.39,18.49-20,19.79-6.81,28.5-20.52,28.59-39.29q.72-162.26-.1-324.5c-.1-19-9.71-32.24-29.45-38.58-7.11-2.29-11.87-11.89-17.7-18.16,8-4.77,16-13.56,24.13-13.69,74.16-1.18,148.35-1.74,222.5-.43,22.33.39,45.62,4.13,66.62,11.57,72.2,25.59,91.72,105.23,41.59,163.21C2388.77,1627.46,2381.59,1637.43,2373,1648.35ZM2244.2,1864.88c16.56,0,33.28,1.45,49.66-.27,47-4.93,77.92-42.33,77.84-92.51-.08-49.25-24.9-78.63-75.15-83.32-30.19-2.81-60.92-.61-91.36.4-17.42.57-26.42,9.35-25.57,28.57,1.23,27.83.31,55.75.31,83.64C2179.92,1877.35,2175.74,1864.56,2244.2,1864.88ZM2180,1568.23c0,18.27.45,36.56-.14,54.82-.49,14.94,4.21,23.18,20.85,21.82,20.79-1.7,41.87-1,62.45-3.93,48.49-7,69.52-32.79,69-81.72-.5-43.31-24.47-68.85-71.38-74.33a209,209,0,0,0-44.31-.11c-30.9,3-36.31,9.9-36.44,41.67C2179.88,1540.38,2179.93,1554.3,2180,1568.23Z"/><path class="cls-1" d="M2813.85,1713.26c21.38,31.62,41.08,61.27,61.31,90.54,22.13,32,46.49,61.24,87.36,70.69,5.34,1.24,13.29,9.1,12.88,13.16-.65,6.28-6.14,14.54-11.87,17.42-46.22,23.3-133.62-1.7-162-46.58-18.62-29.49-35-60.37-53.08-90.23-6.73-11.12-13.24-25-23.63-30.64-12.56-6.88-29.22-8.34-43.91-7.71-3.33.14-7.94,18.44-8.39,28.55-1.17,26.12-.79,52.34-.16,78.5.47,19.82,7.62,34.84,29.17,41.36,7.07,2.14,11.78,12.08,17.56,18.45-8.22,4.62-16.33,13-24.67,13.22q-67.83,1.93-135.74,0c-8.46-.24-16.7-8.29-25-12.73,5.6-6.46,10.13-16.74,17-18.68,21.64-6.1,30.13-21.09,30.23-40.72q.87-160.95,0-321.92c-.11-19.71-8.89-34.47-30.5-40.49-6.78-1.89-11.16-12.37-16.65-18.92,7.55-4.41,15-12.54,22.64-12.66,74.07-1.08,148.15-1.18,222.23-.86,79.3.35,130,36.56,142.56,100.76,14,71.6-20.47,132.77-91.88,163.12C2823.78,1709.19,2818.22,1711.45,2813.85,1713.26ZM2672.2,1589c0,25.22-1,50.52.74,75.62.44,6.22,10.63,17.26,15.32,16.76,29.14-3.14,59.83-4.29,86.5-14.91,43.88-17.47,54.57-57.67,53.5-101.28-.84-34.11-13.72-63.86-48.26-72.69-27-6.88-56.42-5.32-84.74-5-16,.2-23.92,11.2-23.31,28.41C2672.82,1540.22,2672.17,1564.6,2672.2,1589Z"/><path class="cls-1" d="M1665,1445.47c45.3,0,91-3.67,135.82.75,98.78,9.73,165.64,76.09,180.77,174.3,7.7,50,3.66,99.42-13,147-29.51,84.55-92.19,129.49-179.18,139.31-39.56,4.47-80,.76-120.07,1.16-38.29.38-76.6,2.15-114.86,1.37-10.3-.21-20.46-7.49-30.68-11.53,7-7,12.81-17,21.29-20.56,18.09-7.56,25.84-20.74,25.9-38.48q.55-162.12-.06-324.23c-.08-19.11-9.48-32.07-29-38.87-7.46-2.6-12.12-13.24-18-20.22,8.66-4.06,17.21-11.35,26-11.64,38.32-1.3,76.71-.56,115.07-.56ZM1662.59,1677c0,38.37-.53,76.75.1,115.1,1.43,86-14.65,74.18,77.87,72.89,65.74-.91,109.76-35.68,130.51-98,16-48.09,18.29-97.76,11.46-147.42-17-123.55-108.44-142.66-190.48-134-20.3,2.14-30.39,12.06-29.85,34.47C1663.45,1572.29,1662.6,1624.63,1662.59,1677Z"/><path class="cls-1" d="M3956.14,1753.08c0-44.93.33-89.87-.11-134.8-.3-30.52-.78-61.09-2.83-91.53-1.68-24.91-10.57-45.5-38.38-53.18-6.43-1.78-10.78-11.1-16.09-17,7.47-4.48,14.82-12.56,22.43-12.82,38.22-1.31,76.53-1.23,114.76,0,8,.25,15.86,7.29,23.79,11.21-5.52,6.51-9.87,16.72-16.75,18.88-24.76,7.78-35.35,25.28-36.56,48.79-2.2,42.66-3.4,85.4-3.85,128.13-.75,72.42-.57,144.84-.86,217.27,0,7,1.43,14.82-1.25,20.69-4.39,9.59-10,22.56-18.1,25.43-8.4,3-22.68-1.7-30.41-8-12.69-10.25-22.36-24.31-33-37q-115.56-138.92-231-277.92c-4.95-6-10.31-11.56-18.37-20.55-1,10.11-2.13,16.46-2,22.8q1.66,111.21,3.73,222.42c.58,29.79,7.4,55.42,41.73,64.23,5.3,1.36,8.5,10.9,12.68,16.65-5.87,4-11.65,11.44-17.62,11.58q-62.62,1.54-125.29,0c-5.91-.15-11.64-7.75-17.45-11.9,4.29-5.7,7.64-15.12,13-16.49,32.94-8.37,41.28-32.76,41.51-61.67.83-102.07.9-204.15,1.24-306.22.06-19-8.35-30.31-27.44-36.1-7.77-2.36-13.09-12.78-19.52-19.53,9.32-4.25,18.54-11.82,28-12.11,27.74-.85,55.62,2.55,83.36,1.65,19.55-.63,29.32,9.08,40.19,23.24,73.78,96.15,148.5,191.57,222.92,287.23Z"/><path class="cls-1" d="M3424.21,1909.06c-23.58,0-47.2.85-70.7-.51-7.21-.42-14.06-6.91-21.07-10.63,4.73-6.13,10.23-11.83,14-18.5,4.3-7.62,7.11-16.08,10.45-24.23.26-.62-.48-1.63-.72-2.47-19.91-70.67-19.91-70.67-93.72-70.67-26.21,0-52.48,1.15-78.59-.39-17.58-1-25.43,6-28.71,22.14-2.77,13.66-7.25,27-10.43,40.55-3.95,16.9-2.9,30.9,18.1,36.74,5,1.39,10.12,11,10.45,17.15.18,3.29-9.56,10-15,10.24-41,1.48-82,2.34-123,1.7-6.44-.1-12.74-8.75-19.1-13.45,4.87-6.07,8.87-16.26,14.75-17.49,24.73-5.2,36.18-22.45,45.33-43.1q79.07-178.25,158.25-356.44c3.19-7.17,4.82-16,10.06-21.09,8.62-8.38,19.45-19.43,29.65-19.74,8.61-.27,21.63,11.32,25.82,20.72,20.56,46.21,38.36,93.64,58,140.27,33.17,78.8,66.9,157.36,100.57,236,8.81,20.56,19.93,38.5,44.65,44,5.25,1.16,13.36,13,11.94,15.88-3.11,6.39-11.21,14-17.74,14.44-24.31,1.68-48.81.67-73.24.67ZM3247.54,1567l-6.86-.75-64.63,172.16H3315Z"/><path class="cls-1" d="M4215.69,1683.58c-2.67,126.56,87.46,205,202.28,176,41.57-10.52,73.41-35.19,99.55-68.34,8.19-10.4,15-26.44,32.9-14.09,18.25,12.57,11.27,27.2,1.63,40.71-56.54,79.28-137.64,104.94-229.65,97.48-131.82-10.69-215-97.33-217.69-220.54-2.94-134.08,81.2-235.07,215.71-252.27,41.53-5.31,84.71,2.35,127.14,3.92,12.85.48,26,2.3,38.5.28,19.62-3.19,30.33,2.15,31.78,23,2,29.57,5.57,59.07,6.61,88.66.28,8-6.15,16.18-9.5,24.28-8.21-4.78-16.67-9.17-24.47-14.54-2.53-1.74-3.49-5.92-4.9-9.11-22.08-49.7-59.27-76.08-114.73-75-57,1.1-104.19,22.75-127.32,75.83-16.71,38.37-23.33,81.13-34.46,121.93Z"/><path class="cls-1" d="M966.7,1110.56q-463.79,0-927.57-.19c-15.53,0-38.42,6-39.11-18.31-.73-25.17,22.47-19.14,37.85-19.15q930.18-.35,1860.37-.19c3.5,0,7,0,10.48,0,13.92-.08,30,1.74,26.75,19.13-1.44,7.7-17.77,13.69-28.3,18.21-5.9,2.53-13.78.48-20.77.48Z"/><path class="cls-1" d="M4159.83,1072.71q465,0,930.05.27c15.07,0,38.65-7.28,39.06,17.67.43,26.81-24,19.66-40,19.66q-927.42.43-1854.85,0c-16,0-40.87,7.26-40.37-19.29s25.65-18,41.29-18Q3697.44,1072.38,4159.83,1072.71Z"/><path class="cls-1" d="M4262.49,2307.47q-411.16,0-822.35-.24c-15.18,0-38.59,6.93-39.34-17.59-.83-27.27,23.88-19.75,39.71-19.75q821-.48,1642.09-.26c3.49,0,7,0,10.48,0,14.24.07,30.8-.87,30.65,19.09s-17,18.7-31,18.7Q4677.61,2307.51,4262.49,2307.47Z"/><path class="cls-1" d="M1285.94,1865.14c56.5.26,113.5-25.55,148.18-92.32,4.13-8,16.83-11.47,25.55-17,2.24,10.71,8,22.13,6.08,32-6.8,34.07-17.09,67.44-24.5,101.42-4.85,22.26-20,23.18-37.67,22.5-59.32-2.28-118.63-5.3-178-6-36.58-.43-73.2,3.69-109.82,3.87-9.53,0-19.1-7.07-28.65-10.89,6.66-7.3,12-18,20.25-21.22,19.77-7.68,26.63-22.46,26.72-40.8q.72-159.68,0-319.35c-.09-21-9-36.33-31.73-42.3-6.25-1.64-10.38-11.34-15.48-17.35,7.18-4.82,14.24-13.63,21.53-13.82,47.83-1.26,95.72-1.18,143.56-.09,6.82.16,13.46,8.2,20.18,12.59-4.64,6.29-8.22,16.66-14.09,18.18-28.3,7.32-33.1,27.56-33.06,52.1q.21,147.9.06,295.8C1225.11,1863.32,1228.67,1866.67,1285.94,1865.14Z"/><path class="cls-1" d="M845.24,2269.63q395.48,0,790.93,0c8.73,0,18.56-2.19,25.87,1.09s15.23,11.56,16.58,18.82c.86,4.62-8.83,13.48-15.56,16.56-6.58,3-15.41,1.34-23.26,1.34q-797.47,0-1594.95-.18c-15.39,0-38.45,6.18-39-18.28-.53-24.82,22.4-19.19,38-19.2Q444.54,2269.44,845.24,2269.63Z"/><path class="cls-1" d="M860.55,1675.76c0-48.81.15-97.61,0-146.41-.1-25.92-4.47-48.83-35.91-55.51-5.11-1.09-12.34-11.81-11.37-16.65,1.08-5.42,10-12.45,16.13-13,12.82-1.25,26,2.16,39,2,33.91-.38,67.82-2.61,101.69-1.93,9.41.19,18.67,7.94,28,12.22-6.4,6.78-11.6,16.9-19.42,19.7-19.92,7.1-27.21,21.24-27.26,40q-.48,160.78,0,321.56c.05,20.1,8.4,34.43,29.75,40.82,6.91,2.07,11.36,12.33,16.94,18.84-7.55,4.45-15,12.57-22.68,12.76q-70.38,1.78-140.81,0c-7.59-.2-15-8.52-22.43-13.08,4.89-6.17,8.85-16.44,14.85-17.81,29.07-6.63,33.16-28.1,33.37-51.85C860.85,1776.85,860.53,1726.3,860.55,1675.76Z"/><path class="cls-1" d="M2586.8,263.18c-43.78-90.66-125.92-106.49-214.05-109.35,24.15,6.83,48.25,13.85,72.46,20.46,44.45,12.14,78.11,37.8,99.05,79.07,4.5,8.88,7.06,18.74,10.68,28.6-40-6.43-78.17-9.81-114.87-19-94.51-23.63-154.53-83.78-179.3-178.23a92,92,0,0,1-3-25.79c.44-14.05,8.84-20,20.75-11.9,33.46,22.63,69.54,18.77,106.14,13.06,66.75-10.4,117.85,15,155.31,69.3C2567.44,169.23,2585.52,212.85,2586.8,263.18Z"/><path class="cls-1" d="M3119.24,2402.74h-96.87l-5-5.22c34.13-9.57,29.2-34.88,29.29-58,.13-35.77.19-71.54,0-107.3-.14-24.56,6.14-51.73-29.89-63.41,7.65-4.24,10.46-7.14,13.29-7.17,41.83-.47,83.71-1.8,125.49-.38,39.71,1.35,62,19.91,68.47,52.5,6.87,34.65-8.35,64.53-41.77,81.87-4.62,2.39-9.42,4.45-15.85,7.47,28.4,31.81,39,78.11,87.88,89.41-23.48,24.24-71.51,16.33-91.43-13.23-11.67-17.34-20-37.07-32.89-53.37-6.36-8.07-19.48-10.81-29.54-16-3,9-8.27,18-8.56,27.13C3090.58,2377.25,3091.1,2377.26,3119.24,2402.74Zm-27.79-166.51h.09c0,12.17-1.38,24.58.6,36.42,1,5.71,7.64,14,12.81,14.91,42.46,7.36,76.73-25.5,71.64-67.43-3.4-28-22.73-40.45-56.83-40.4-31.1.05-29.17,20.13-28.34,40.84C3091.63,2225.78,3091.45,2231,3091.45,2236.23Z"/><path class="cls-1" d="M2393,2396.91c37.37-8,30.31-34.13,30.49-57,.31-38.31-.42-76.64.28-114.94.41-23,1.66-45.56-29.56-56.13,7.51-4.15,10.85-7.59,14.23-7.63,40.93-.45,81.91-1.83,122.77-.17,62.27,2.53,102.51,40.51,108.36,99.35,7.26,73-24.71,130.89-87.09,140.1-49.67,7.33-101.28,1.48-152,1.48Zm200-120c-3.42-67.52-41.29-104.18-101.51-96.65-14,1.75-22.67,6.74-22.56,22.67.35,54.07-.19,108.16.59,162.23.09,6.28,4.84,16.11,9.9,18.12,34.75,13.83,85.08-7.5,98.87-43.23C2586,2320.12,2588.25,2298.05,2593,2276.94Z"/><path class="cls-1" d="M2719.85,2163.73c7.07-.74,14.13-2.08,21.21-2.14,48.88-.47,97.8.41,146.62-1.46,20.28-.78,29,5,29.41,25.43.33,15,3.5,30-.24,47.33-3.84-3.64-8.53-6.71-11.36-11-22.46-34-58.11-49.92-96.47-40.4-7,1.72-16.28,11.27-16.92,17.93-2.12,22.31-.8,44.93-.8,68.67,37,6.58,69.16,4.86,97.29-32.05v84.6c-12.08-9.08-22.14-20.88-34.72-25-13.48-4.37-29.68-3.48-44-.89-7.06,1.27-12.94,11.16-18.39,17.92-1.71,2.13-.77,6.85-.22,10.25,3.25,20.25-.23,48.57,11.74,58.86,19.25,16.54,82.84-3.44,100.65-24.51,8.68-10.26,16.29-21.43,24.38-32.19l8.92,3.29c-6.54,24.77-12.71,49.66-20.17,74.15-.77,2.52-9.23,3.78-14.13,3.79q-86.38.08-172.77-.6c-3,0-6.06-2-14.7-5.13,38.52-16.68,29.28-47.2,29.63-74.45q.61-48.42,0-96.85c-.26-23.61,7.24-50.64-30.21-59.63Z"/><path class="cls-1" d="M2879.15,621.72c-30.56-57.32-80.61-82.22-141.67-83.83-28.33-.74-57.19,5.29-85.27,10.93-52.05,10.46-101.81,4.9-156.24-16.3,96.74-41.48,189.59-74.39,290.61-43.3,29,8.92,57.29,26,80.72,45.57C2894.74,557.68,2896.8,590.85,2879.15,621.72Z"/><path class="cls-1" d="M2607.32,323.17c6.83-36.28,11.45-66.05,18.19-95.32,10.32-44.87,20.57-89.87,34-133.86,5.33-17.47,19-32.39,29.3-49.06l-26.13-1.84c-10.25-20.74-4-31.59,18.43-37.37,66.34-17.1,88.09,3.49,70.21,70.5-5.73,21.44-15.68,42.58-27.63,61.36-27.52,43.24-48,88.48-53.74,139.95-.8,7.05-7,15.44-13.14,19.54C2644,305.63,2629.5,311.74,2607.32,323.17Z"/><path class="cls-1" d="M2087.44,2233.25c-3.84-5.22-8.53-10-11.38-15.74-13.69-27.48-36-39.28-66.08-37.11-30.44,2.2-56.41,16-64.53,45.1a279.79,279.79,0,0,0-9.59,91.95c2.09,31.75,24,53.48,55.35,62.81,33.73,10,63.78,2.17,89.82-21.1,5.17-4.62,8.82-11.06,14.29-15.16,4.1-3.08,10-3.75,15.11-5.49.3,6.15,2.89,13.53.39,18.16-4.43,8.21-11.22,15.58-18.31,21.84-40,35.34-107.68,41.45-157.35,14.72-43.91-23.61-65.26-67.72-58.69-121.24,7-57.08,41.42-97.94,101.07-108.14,36-6.15,73.81-1.13,113.58-1.13,1.89,24.19,3.59,45.9,5.29,67.6Z"/><path class="cls-1" d="M2296.25,2402.88H2194.87c42.78-20.71,30.51-53.35,31.46-81.84,1-30.5.56-61.05.12-91.57-.34-23.41,8.46-50.63-30.06-59.77l6.56-5.34h93.78l6.13,5.7c-36.76,8.38-29.78,34.37-30,57.2q-.42,56.25,0,112.51c.13,22.84-6.38,48.49,29.16,57.72Q2299.14,2400.18,2296.25,2402.88Z"/><path class="cls-1" d="M3939,672.54c3,38.16,5.94,75.61,9,114.28h-23.46c-1.31-27.07-2.63-54.53-3.95-82l-6.36-.76c-9.33,23.19-18.29,46.53-28.23,69.46-2.52,5.82-8.12,10.31-12.3,15.42-5.23-5-12.36-9-15.35-15.12-10.31-21-19.19-42.68-35-64l-4.89,77.29h-8.51c2.64-39,5.2-77,7.9-116.92,16.48-5.78,26.2,4.2,32.62,24,7.18,22.23,17.37,43.49,29.52,73.13,12.27-30.93,21.8-55.18,31.53-79.34C3918.87,669.76,3919,669.8,3939,672.54Z"/><path class="cls-1" d="M4130.82,729.47c0,38.12-25.33,62.16-65.43,62.17-39.52,0-65.92-24.89-66-62.18,0-37,26.91-62.48,66-62.49C4104.74,667,4130.84,691.9,4130.82,729.47Zm-23.82-.84c-.15-28.91-17.9-51.74-40.69-52.35-23.72-.64-42.49,23-42.27,53.24.22,29,17.89,51.86,40.56,52.38C4088.35,782.45,4107.15,758.83,4107,728.63Z"/><path class="cls-1" d="M1331.17,724.53c12.81,6.27,22,18.38,16.71,38-5.25,19.28-20,25.64-37.69,26.37-20.7.86-41.46.2-60.46.2V669c14,0,30.59-1.67,46.62.52,12.94,1.78,30,4.76,36.43,13.59C1338.56,691.06,1332.37,707.7,1331.17,724.53Zm-57.93,29.09c-.9,15.09-2.16,28.63,19.94,27.5,18.79-1,33.28-5.23,33.37-26.84.08-19.46-13.86-23.17-30.13-24.18C1278.4,729,1270.12,735.88,1273.24,753.62Zm-12.15-53.34c14.79,11.29,23.94,22.43,28.33,20.79,10.28-3.83,23.64-12.39,26-21.56,4-15.41-9.44-24.38-24-21.78C1283,679.24,1276,688.76,1261.09,700.28Z"/><path class="cls-1" d="M561.3,787.62H534.37V669.12c14.48,0,30.86.14,47.23,0,18.23-.21,35.89,1.35,41.89,22.51,5.5,19.38-2.26,33.85-19.85,43.26-2.23,1.19-4.37,2.54-8.55,5l39,47.79c-19.91,5.83-33.5-1.5-44-19.57-6.2-10.63-15.18-19.65-22.9-29.4l-8.75,4.44C559.36,757,560.25,771,561.3,787.62Zm-4.46-58.13,9,7c11.64-7.74,26.1-13.43,33.79-24,4.18-5.77,0-22.87-6.24-29.29-5.33-5.52-27-5.48-27.5-3.91C561.25,695.51,559.44,712.61,556.84,729.49Z"/><path class="cls-1" d="M1625.23,741.78l37.54,45.31c-42.83,15.88-41.32-38.19-75.12-49.22,1,18.73,1.77,33.1,2.63,49h-27V671.16c14.57-.65,31.7-1.64,48.84-2.11,17.41-.47,34.14,2.18,40.1,21.66,5.86,19.16-1.44,34-18.9,43.85C1631.22,735.74,1629.63,737.79,1625.23,741.78Zm-38.7-11.06c34.14-.54,47.55-10.77,45.35-31.25-1.85-17.21-13.93-26.15-29-21.94C1571.34,686.34,1594.6,711.67,1586.53,730.72Z"/><path class="cls-1" d="M3754.53,787.49c-42.71,14-41.28-37.57-75.06-51.17,1.28,20.83,2.2,35.93,3.14,51.42h-26.68V669.6c11.79,0,25.52.45,39.21-.11,19.6-.8,40.41-2.75,48.79,20.2s-4.58,38.07-27.15,50.06Zm-76.06-57c34.15-.12,47.3-10.1,45.46-30.82-1.55-17.57-13.78-26.07-28.75-22.14C3663.05,686,3686.66,711.58,3678.47,730.5Z"/><path class="cls-1" d="M4198.86,787h-17V671.67c16.6-6.5,28,1.49,38.8,17,14.64,21,31.85,40.22,48,60.2l6.76-2.41c-1.42-24.84-2.84-49.68-4.3-75.36h15.62l-5.38,118.19-5.89,3.3-76.53-91Z"/><path class="cls-1" d="M3577.17,739.11,3527.55,731c2.9,19.36.87,43.27,8,46.41,23.24,10.23,45.49.27,64.41-19.22-2.3,9.8-4.59,19.6-7,30.07H3505.2V669c23.25,0,49.87-1.53,76.06,1.15,6,.62,10.6,15.68,13.74,20.72l-60-12.07c-2.44,13.76-4.87,27.52-8.36,47.27l50.5-9.53Z"/><path class="cls-1" d="M1184.32,669.85c1.31,8.66,2.14,12.88,2.52,17.15a90.82,90.82,0,0,1,.06,9.12c-12.83-6.54-24.81-14.09-37.85-18.46-4.22-1.41-14.36,4.39-16.09,9-1.65,4.39,2.55,13.7,7,17.07,8.89,6.7,19.7,10.87,29.79,15.94,17.85,9,30.89,21.11,23.79,43.14-7.28,22.58-25.1,30.31-47.17,27.91-11.07-1.2-21.79-5.69-34-9.06V752.54c8.93,9.43,15.1,21.56,23.65,23.56,11.37,2.67,29.46,1.84,36-5.34,11.85-13.07-1.91-23.28-13.63-29.94-9.8-5.57-22-7.94-30.12-15.15s-18.47-19.74-17.06-28.12c1.72-10.22,13.18-23.52,23.15-26.54C1149.23,666.52,1166.47,669.85,1184.32,669.85Z"/><path class="cls-1" d="M477,672.28c.71,8.9,1.35,16.93,2.18,27.31-28.9-26-49.76-28.84-67.21-11.13-17.73,18-19.49,58.76-3.35,77.47,18.11,21,42.63,19.06,75.55-5.95-5.06,22.75-32.26,35.93-62.68,30.38-35.88-6.55-55.62-34.65-49.4-70.31C379.32,678.57,413.18,662.42,477,672.28Z"/><path class="cls-1" d="M670,788.81l58.88-128.2c20.35,46.28,37.79,86,55.65,126.6H754.29C748.78,754.89,746,751.5,712.73,757c-8.77,1.44-15.5,15.19-23.17,23.29l5.53,7.31Zm72.95-42.39-22.18-51c-7.65,21.46-12.58,35.31-18.17,51Z"/><path class="cls-1" d="M1400.8,670.78h22.08c0,26-1.06,51.42.34,76.75,1.07,19.44,11.26,33.31,32.83,33.5,21.75.19,32.25-13.77,32.82-33.2.75-25.34-1.68-50.77-2.78-76.92h16.12c-1.4,24-3,47.61-4.13,71.24-1.62,33.26-17.55,49.82-47.93,49.35-31.29-.48-48.12-16.58-49.19-48.62C1400.16,719.12,1400.8,695.32,1400.8,670.78Z"/><path class="cls-1" d="M3390.8,755.47c9-27.35,18-54.71,27.86-84.71h19.14l-58.34,127.65-55.27-127.28h27.73c10.64,28.79,20.75,56.13,30.86,83.47Z"/><path class="cls-1" d="M837.25,669.94H920l4.22,20.64L867.3,678.73c-2.51,13.76-5,27.52-8.67,47.43l45.68-9.52V738l-38.63-3.34c-1.34,17.22-2.67,34.44-4.11,53H837.25Z"/><path class="cls-1" d="M1729.34,787.34c18.11-49.16-8.75-81.79-40-115.41h34.61c8.5,14.37,17.06,28.86,28.91,48.91l23.23-49.36h29c-45,33.53-59.18,72.24-43.32,115.86Z"/><path class="cls-1" d="M1027.89,673.93V787.1h-27V675.26l-35.8,22.59c1.25-9.24,2.38-17.68,3.9-28.89,26.87,0,53-1.59,78.67,1,7.18.73,13.09,13.86,19.58,21.3l-5.6,5.6Z"/><path class="cls-1" d="M4441.94,697l-33.58-22.59v112.2h-27v-112l-35.42,23.42c1.32-10,2.48-18.7,3.86-29,27,0,52.35-1.81,77.18,1.07,7.69.9,13.91,14.55,20.8,22.36Z"/></svg>