<svg id="Layer_1" data-name="Layer 1" xmlns="http://www.w3.org/2000/svg" viewBox="0 0 1469.11 1469.11"><defs><style>.cls-1{fill:#fff;}</style></defs><path class="cls-1" d="M1469.11,696.53v76.76a22.66,22.66,0,0,0-.45,2.82c-.87,18-2.68,36-5,53.85a718,718,0,0,1-26.94,123.43,736.2,736.2,0,0,1-542.24,499,707.48,707.48,0,0,1-98.41,14.86q-11.42.9-22.82,1.85H696.53a18.79,18.79,0,0,0-2.45-.44,682.3,682.3,0,0,1-79.4-8.58,724.08,724.08,0,0,1-198.29-62.52A738.83,738.83,0,0,1,79.73,1069.12,724.71,724.71,0,0,1,19.34,905.38,709.6,709.6,0,0,1,1.85,794Q.94,781.83,0,769.7V700.12c.15-1.18.4-2.35.45-3.53a667.08,667.08,0,0,1,7.46-74.12A736.92,736.92,0,0,1,406.44,76.55a725.41,725.41,0,0,1,173.39-60.8,704.15,704.15,0,0,1,95.31-13.9l25-1.85H769.7a24.83,24.83,0,0,0,2.81.44A692.74,692.74,0,0,1,868.2,11.51,735,735,0,0,1,1319.07,288.6q98.29,128.55,133.45,286.66A692.73,692.73,0,0,1,1467.25,673C1467.85,680.83,1468.49,688.68,1469.11,696.53ZM737.7,1426.69c377.55.26,685.24-303.56,689.51-681.29,4.37-387-307-695.85-685.45-698C360.16,45.2,48.16,353.22,47.87,736.67,47.59,1118.54,357.23,1427.12,737.7,1426.69Z"/><path class="cls-1" d="M737.5,1407.52c-372.59-1-670.27-302.31-670.2-670.59C67.38,367.92,366.57,65.61,740,66.85c373.62,1.25,672.19,307.25,667.83,678.46C1403.54,1106.73,1110,1406.5,737.5,1407.52ZM719,520.82a16.57,16.57,0,0,0,1.58,3.15,109.89,109.89,0,0,1,10.83,15.74c6.5,11.63,6.07,23.06-2.06,33.56-9.69,12.53-22,22.21-35.69,30.08-17.76,10.2-36.77,17.8-55.3,26.39-13.57,6.29-27.42,7.52-42,6.3-7.46-.63-15-1.69-22.52-.4-2.17.37-4.8.85-6.59-.76-2.59-2.31-5.47-2.13-8.43-1.79a25.82,25.82,0,0,1-7.85-.21c-12.57-2.37-25-5.38-37.3-8.83-7-2-11.06-6.64-14.63-12.3a4.9,4.9,0,0,1-.76-3.41c1.35-9.93,2.29-19.94,4.15-29.78,1.94-10.28,5.81-20.09,6.67-30.72.74-9,3.57-17.8,4.32-26.86.2-2.41,1.27-6.07-1-6.91-2.72-1-4.07,2.65-5.51,4.69-12.11,17.23-19.58,36.52-25.31,56.63-3.33,11.69-10.39,14.19-19.89,11.26-13.65-4.21-24.37-12.87-34.06-22.46-9.39-9.3-18.39-19.1-27.44-28.79-7.2-7.71-13-16.41-19.5-24.67a10.46,10.46,0,0,0-3.41-3.11c-3.29-1.66-5.78-.44-6.1,3.21a27.38,27.38,0,0,0,.29,6.06c1.26,9.26,6,17,10.67,24.84,7.24,12.22,17.74,21.91,25.57,33.66,1.85,2.76,3.77,5.75,6.36,7.71,9,6.78,17.05,14.62,25.73,21.74,23.05,18.92,46.73,36.91,73.27,50.75,8,4.19,16.08,8.51,25.25,9.9a257.69,257.69,0,0,0,62.53,2.16c17.35-1.61,34.19-5.17,49.94-13.15,28.91-14.66,57.48-29.93,84.8-47.38,8.3-5.31,16.51-11.31,18.57-22.16,2.39-12.57.52-24.27-7.19-34.72C738.86,539.32,728.55,530.48,719,520.82Zm516.8,301.56c1.34.78,1.37,2,1.67,2.94a197,197,0,0,0,31.52,62.39c11.45,15.33,24.49,29,40.92,39.2a31.53,31.53,0,0,0,20.89,4.65c7.94-.9,10.46-3.57,10.46-11.5V758.33c0-1,0-1.91,0-2.87a8.11,8.11,0,0,0-5.37-7.75,18.12,18.12,0,0,0-7-1.44c-13.13-.26-14,4.18-13.95,13.26.19,46.14.09,92.28.08,138.42,0,5-.52,5.4-5.42,4.07a54.42,54.42,0,0,1-21.36-11.39c-27-23.18-43.58-52.52-50.27-87.41-3-15.45-2.91-31.13-2.84-46.8,0-5.22-2.14-7.95-7.13-9.34a25.59,25.59,0,0,0-7.09-.84c-9.31.06-12,2.67-12,11.91V920.24c0,1.19,0,2.39,0,3.58a7.34,7.34,0,0,0,5.79,7.27c3,.89,6.17.68,9.26.53,8.06-.39,11.11-3.62,11.11-11.65q0-46.62,0-93.24C1235.12,825.35,1234.71,823.88,1235.75,822.38Zm-381.61,17V788.07c0-10.76,0-21.52,0-32.28,0-5.31-2.34-7.94-7.5-8.81a19.27,19.27,0,0,0-3.91-.48c-10.47.41-15.27,2.19-15,13.53.52,18.75.15,37.53.14,56.3,0,5.48-.19,5.72-5.6,5.69-15.42-.1-30.83-.28-46.25-.42-5.14,0-10.28.08-15.41-.11-8.34-.31-11.89-3.59-13-11.82a34.32,34.32,0,0,1-.2-4.65q0-23.31,0-46.62c0-9-1.9-11.12-10.91-11.82a23.64,23.64,0,0,0-4.28.19c-8.6.91-11.06,3.61-11.06,12.13v161c0,8.31,2.87,11.35,11.26,11.9,1.31.09,2.63.1,3.94.07,8.68-.15,11-2.53,11-11.17q0-41.6,0-83.2c0-5.19.27-5.46,5.48-5.46q29.58,0,59.17,0a38.45,38.45,0,0,1,6.76.68,9.56,9.56,0,0,1,7.87,7,31.54,31.54,0,0,1,1.21,9.56q0,36.23,0,72.44c0,5.82,2.52,8.83,8.29,9.78a41.51,41.51,0,0,0,7.14.43c7.93-.07,10.8-3,10.8-10.84Q854.15,880.24,854.14,839.35Zm197.45-.79h0c0,26.78.18,53.57-.12,80.34-.07,7,.65,11.64,11.74,12.6,11.34,1,14.7-2.24,14.7-13.63q0-76.75,0-153.51c0-7.57,2.62-10.35,10.28-10.62,5.25-.19,10.52-.24,15.77-.09a29.2,29.2,0,0,1,27.49,23.57c1.62,8.72-1.06,16.56-5.25,24-4.71,8.35-11.36,15-18.6,21.18a172,172,0,0,1-18.35,13.14c-6.29,4.06-8,8.89-5.79,16a42.75,42.75,0,0,0,6.93,12.89c10.25,13.87,22.06,26.41,33.48,39.28,6.9,7.78,13.63,15.69,22,22,9.22,6.91,19.48,7.28,30.09,5.19,5-1,5.9-4,2.87-8.08a24.41,24.41,0,0,0-1.62-1.91c-14.19-15.36-28.46-30.66-42.55-46.12-8.86-9.71-17.89-19.28-26.07-29.59-6.71-8.47-6-12.34,2.8-18.21,11.76-7.82,23.2-16.06,33-26.39,5.82-6.16,10.93-12.84,12.65-21.31,2.68-13.24-.46-22.47-13.76-28.29a58.31,58.31,0,0,0-16.65-4.06c-11.32-1.37-22.69-.53-34-.68-9.68-.13-19.37-.15-29,0-8.93.18-11.94,3.42-11.94,12.27Zm-165.44,3.52c.23,3.58.47,7.15.71,10.73,0,.71.09,1.43.19,2.14,5.1,37.76,26.78,62.25,61.21,76.58a17,17,0,0,0,14.5-.34,92.07,92.07,0,0,0,46.11-46.64c9.49-20.9,11.87-43,8.77-65.53-5-36.22-25.15-60.51-59.24-73.46a18.15,18.15,0,0,0-13.92.31c-13.82,5.64-25.18,14.56-34.62,26C893,792.21,886.6,816.15,886.15,842.08Zm-509.1-6.43c0-4.06.07-8.13,0-12.19a41.91,41.91,0,0,0-.65-5.33c-5.37-34.63-24.49-58.32-56.74-71.75-6.83-2.85-13.13-2.36-19.64.79a92.77,92.77,0,0,0-39.07,35.38c-11.92,19.2-16,40.36-15.72,62.73.57,43.83,29.21,74.41,63.53,86.84a14.63,14.63,0,0,0,11.14-.28,88.91,88.91,0,0,0,35.47-27.22C371.36,884.44,377.4,861,377.05,835.65Zm385.29-156.6c2.87.06,6.53-2.75,7.37-5.38s-1.65-3.17-2.94-4.29c-4.42-3.83-9-7.49-13.51-11.22-4.06-3.37-7-7.32-7.88-12.78-.67-4.24-1.92-8.38-1.67-12.75.09-1.51-.2-3.08-2.08-3.19-7.3-.43-14.46-1.91-21.78,1.5-18,8.37-34.77,18.55-51.19,29.52-12.14,8.11-24.55,15.76-38.52,20.45-23.46,7.88-46.9,5.79-70.3-.22-20.41-5.24-38.85-15.36-57.84-24-21.33-9.75-41.09-22.46-61.2-34.46-1.75-1.05-3.42-2.11-5.61-2.11-9.81,0-19.13-2.43-28.33-5.64-6.31-2.2-12.76-4-19.13-6.06-2.49-.8-4.51-.28-5.93,1.93s-1,4.57.78,6.56a27.17,27.17,0,0,0,6.17,4.87c8,5,16.63,8.41,25.44,11.48a201,201,0,0,1,40.7,19.34c42.76,26.72,89.52,40.24,139.84,41.62,15.4.43,30.83.25,46.22.93a104.68,104.68,0,0,0,59.33-14.59c9.61-5.67,18.3-12.6,26.94-19.6,3.16-2.56,6.35-5.12,10.32-6.34,3.11-1,5.27.08,6.11,3.14,2.21,8,7.77,13.53,13.57,18.9A8.46,8.46,0,0,0,762.34,679.05Zm-356,162.09c0,2.27-.06,4.54,0,6.81.06,1.55.32,3.09.49,4.63,4.49,39.36,26.95,64.39,62.74,78.86A15,15,0,0,0,482,931a91.37,91.37,0,0,0,30.8-22.4,95.5,95.5,0,0,0,15.54-23.56c.9-1.88,1.56-3.92.13-5.77-1.61-2.07-4-2-6.27-1.53-3.62.77-5,3.66-6.15,6.82-3.87,10.69-10,19.81-19.13,26.74-6,4.61-8.39,4.54-14.25-.3a179.57,179.57,0,0,1-47.22-58.85c-6.15-12.33-9.94-25.4-10-39.27-.15-19.63,9.1-35.06,22.66-48.24,7.41-7.2,10.22-7.12,18.54-.93,11.17,8.3,20.05,18.73,27.86,30.14,3.24,4.73,6.34,9.57,9.77,14.16,2.87,3.82,5,3.76,8,.12a58.44,58.44,0,0,0,9.87-17.37,12.17,12.17,0,0,0-.56-10.43c-10.07-17.61-24.13-30.38-44.08-35.94a18.24,18.24,0,0,0-11.91.65c-14.39,5.59-26.21,14.7-36,26.5C412.85,791.72,406.51,815.43,406.3,841.14Zm-281.18-1.36V907.2c0,5.5-.08,11,0,16.49s2.42,7.94,7.57,8c26.66.06,53.32.09,80,0,7.5,0,11.51-3.67,12.17-10.93a143,143,0,0,0-.27-25.42,25.38,25.38,0,0,0-1.55-7.34c-1.62-4-4.61-4.47-7.35-1.16s-4.38,7.1-6.09,10.93c-2.58,5.78-5,11.64-8.1,17.17-3.71,6.59-9.36,9.93-16.77,10.76a136.58,136.58,0,0,1-15.4.54c-14.42,0-18.06-3.64-18.07-18q0-31.74,0-63.48,0-44.29,0-88.58c0-6.52-2.15-8.83-8.67-9.22a52.45,52.45,0,0,0-7.52.06c-7.32.61-9.95,3.49-9.95,10.73Q125.1,798.72,125.12,839.78ZM683,484.08l.43-.37c-1.27-1.68-2.47-3.41-3.81-5q-14.6-17.46-30.09-34.15c-13.22-14.29-27.09-28-38.17-44.15-1.69-2.46-3.44-4.9-4.92-7.48-1-1.66-2.87-3.59-1.06-5.48s3.85-.15,5.63.59a72.7,72.7,0,0,1,6.71,3.39,14.35,14.35,0,0,0,7.79,1.72,101.7,101.7,0,0,0-11.34-6.68c-24.44-12.07-45.19-29-63.75-48.7C545,331.91,540,325.63,535,319.37a195.61,195.61,0,0,1-11.87-17c-4.54-7.11-8.24-14.75-12.52-22-1.24-2.12-2.6-5.65-5.53-4.59-2.63,1-2.1,4.55-1.94,7.11a97.73,97.73,0,0,0,3.58,20.79c3.57,12.4,7,24.86,15.13,35.33,19.27,24.65,40.94,47,64,68.11,8.62,7.89,18.26,14.73,25.75,23.82a54.2,54.2,0,0,0,17.08,14c16.61,8.49,30.68,20.48,45.35,31.67C677.15,479,680,481.58,683,484.08Zm-6,290.08c-.23-7.11-1-14.09-5.25-20.14-4-5.71-10.53-7.32-16.78-4.21a33.32,33.32,0,0,0-8.45,6,227.48,227.48,0,0,0-44.77,60.49c-4.37,8.62-6.65,17.87-4.74,27.76a58.13,58.13,0,0,0,12.23,25.6c4.64,5.77,9.49,11.38,14.39,16.93,11.92,13.53,23.57,27.33,36.25,40.17,8.17,8.26,19.6,6,24.47-4.46,2-4.24,1.54-7.44-1.64-10.86-10-10.76-20.12-21.42-30.07-32.23-11.16-12.12-22.42-24.16-32.19-37.5-8.85-12.09-10.75-24.19-2.38-37.52,6.31-10,12.11-20.38,21.7-27.77,8.1-6.23,13.8-5.29,19.6,3a26.8,26.8,0,0,0,5.28,5.81c5.05,3.95,9.66,2.5,11.58-3.57A24.4,24.4,0,0,0,677,774.16Zm-86.1,65.08q0-41.06,0-82.1c0-7.48-2.76-10.4-10.2-10.84a40.25,40.25,0,0,0-4.66,0c-8.13.48-11.35,3.86-11.35,11.91V868.63q0,26.16,0,52.34c0,6.55,2.68,9.63,9.21,10.5a40.67,40.67,0,0,0,6.44.2c7.86-.22,10.55-3,10.55-10.7Q590.92,880.11,590.9,839.24ZM665,407.68c1.07.52,2.09,1.13,3.2,1.54a159.83,159.83,0,0,0,37.92,8.88c10.46,1.21,18.39-2.48,24-11.51a109.4,109.4,0,0,0,8.16-14.71c2.1-4.95,4-10,6.85-14.59a45.14,45.14,0,0,0,6.43-18.47c.77-5.8.91-11.67,1.57-17.48.78-6.93,1.57-13.89-.83-20.59-6.29-17.5-9.12-35.86-13.65-53.8-2.36-9.37-3.67-19-8.47-27.64a37.15,37.15,0,0,1-3.86-10,97.68,97.68,0,0,0-4.46-14,76.76,76.76,0,0,1-3.88-14.89,161.38,161.38,0,0,0-5.85-23.62,27.57,27.57,0,0,0-3.65-7.76c-2.6-3.54-5.14-3.29-6.84.7a32.94,32.94,0,0,0-2,8c-1.58,10.42.84,20.43,3.13,30.45,2.38,10.41,7.83,19.76,10.26,30.16a182.89,182.89,0,0,0,5.5,17.8c9.63,28.06,16.53,56.59,15.06,86.6-.73,15-2.57,29.76-8.65,43.68-7.49,17.17-18.58,24.31-37.21,24.16C680,410.51,672.59,408.69,665,407.68Zm-271.4,622.9q0-26.19,0-52.37c0-2.05.16-4.31-1.8-5.54-3.62-2.28-7.6-1.77-11.4-.58-3.41,1.07-3.53,4.09-3.53,7.08,0,12.08,0,24.15,0,36.23,0,2.23-.19,4.09-3.13,4.07-13.14-.09-26.3.09-39.44-.3-6.89-.21-8.89-2.9-8.91-9.88,0-10.28.05-20.57,0-30.85-.05-5.38-1.83-7-7.17-7.15a28.57,28.57,0,0,0-3.58.13c-4.24.47-6,2.25-6,6.51q0,52.55,0,105.08c0,4.26,1.72,6,6,6.49a35.52,35.52,0,0,0,5.36,0c3.09-.16,4.81-1.9,5.18-4.92a36.15,36.15,0,0,0,.22-4.29c0-16.86.07-33.72,0-50.57,0-3.12,1.07-4.21,4.17-4.18,12.31.11,24.63,0,36.94.09,8.08.09,10.39,2.58,10.41,10.68,0,15.06,0,30.12,0,45.19,0,6.26,2.11,8.15,8.93,8.17,6.29,0,7.77-1.45,7.77-7.83Q393.63,1056.22,393.61,1030.58Zm119.93-.42v4.3q0,23.67,0,47.33c0,2.14-.26,4.5,1.9,5.84a12.4,12.4,0,0,0,11.36.92c3.62-1.38,3.11-4.71,3.11-7.67q0-47.51,0-95c0-1.43,0-2.87.06-4.3.18-3.17,1.8-5.06,5-5.57a41.15,41.15,0,0,1,13.56-.15c12.55,2.17,19.13,13.53,14.82,25.51-2.15,6-6,10.82-10.51,15.2s-9.8,8-15.09,11.49c-4.45,2.93-5.46,6.11-3.66,11.08a33.08,33.08,0,0,0,5.23,8.94c8.59,11,18.17,21.25,27.52,31.63,6.29,7,13.86,11.34,23.77,9.71,1.9-.31,4.08-.37,4.81-2.48.63-1.81-.92-3.08-2-4.3-9-9.76-18-19.46-27-29.26-6-6.54-12.13-12.89-17.42-20-3.46-4.64-2.82-7.14,1.87-10.35,3.84-2.64,7.71-5.25,11.39-8.1,6.35-4.92,12.63-10,16.26-17.41,5.28-10.74,3.16-21.44-10.9-24.7a28.07,28.07,0,0,0-3.16-.64c-14.29-1.71-28.64-.74-43-.75-6.55,0-8,1.72-8,8.19Q513.52,1004.88,513.54,1030.16Zm567,.68q0,25.1,0,50.19c0,2.49.18,5,2.68,6.18a11.92,11.92,0,0,0,11.06.23c3-1.57,2.38-4.68,2.39-7.37q0-45.88,0-91.77c0-1.56,0-3.11.09-4.66.23-3.14,1.83-5.08,5-5.55a39.77,39.77,0,0,1,13.55,0c11.62,2.28,17.78,12.76,14.16,24-1.68,5.23-4.81,9.57-8.53,13.53-4.87,5.18-10.61,9.25-16.54,13.1-4.46,2.89-5.4,5.7-3.71,10.7a31.21,31.21,0,0,0,5.24,8.92c6.22,8,13.1,15.52,19.86,23.1,4.06,4.54,8,9.15,12.84,13,5.4,4.28,11.54,4.93,18,3.94,4.2-.64,4.83-2.85,2-6.18-.46-.55-1-1.07-1.45-1.59-9.38-10.2-18.82-20.36-28.13-30.62-4.66-5.12-9.29-10.3-13.58-15.72-3.79-4.79-3.16-7.11,1.82-10.56,4.13-2.85,8.27-5.69,12.23-8.77,6.05-4.73,11.75-9.85,15.07-17,5-10.72,1.09-19.27-10.17-22.57a30.91,30.91,0,0,0-5.6-1.14c-14-1.37-27.94-.54-41.9-.51-4.6,0-6.44,2.44-6.45,7.25Q1080.53,1005.93,1080.55,1030.84Zm-466.34,0q0,26,0,52c0,4.57,1.55,6.25,6.07,6.73a27.3,27.3,0,0,0,13.67-2.13c6.81-2.86,12.66-7.16,18.13-12,12.44-11.1,20.9-25.11,28.64-39.59s12.06-29.63,11.36-46.08c-.37-8.56-4.15-13.41-12.33-16.07a32.9,32.9,0,0,0-7.36-1.47c-13.49-1.23-27-.31-40.49-.57-3.47-.07-6.95-.16-10.4.08-5.76.4-7.3,2.16-7.3,7.86Q614.18,1005.18,614.21,1030.82Zm275.92.17q0,24.93,0,49.85c0,6.1,1.78,7.74,8,7.92,5.83.16,11.06-1.73,16-4.51a76,76,0,0,0,20.57-17.11c9.41-11,16.8-23.23,23-36.22a83.68,83.68,0,0,0,8.5-39.92c-.33-7.9-4.09-13-11.61-15.43a41.22,41.22,0,0,0-12.71-1.94q-21.69,0-43.39,0c-6.65,0-8.33,1.71-8.34,8.24Q890.1,1006.43,890.13,1031ZM453.69,971.4c-6.5,0-7.64.67-9.16,5.71Q429,1028.95,413.47,1080.8a17.72,17.72,0,0,0-.93,5.63,2.76,2.76,0,0,0,2.13,2.91c6.88,2,11.4-.33,13.4-7,5.24-17.51,10.55-35,15.71-52.54.87-3,2.24-4.25,5.48-4.26,13.17-.06,13.23-.1,17,12.67,4.56,15.34,9.24,30.65,13.72,46,1.07,3.68,3.09,5.48,6.92,5.28,1.67-.09,3.35,0,5,0,2.55-.09,3.79-1.32,3.19-3.94-.5-2.21-1-4.44-1.62-6.61q-15-50.13-30-100.26C461.42,971.76,460.9,971.39,453.69,971.4Zm569.06,55.14v.4c3.47,0,6.93.1,10.39,0,1.71-.06,4.37.93,4.42-2.09,0-2.75-2-3.89-4.57-4-1.32-.05-2.63-.07-3.94-.07-10.28,0-20.56,0-30.83,0-4.23,0-4.68-.56-4.69-4.82,0-13.28,6.17-23.52,15.68-32.13,2.65-2.4,5.43-2.53,8.46-.45a69.09,69.09,0,0,1,17,17.24c2.51,3.5,4.81,7.14,7.37,10.59,2.22,3,3.86,3,6.24.05a36.67,36.67,0,0,0,5.12-9,8.6,8.6,0,0,0-.6-8.22,47.79,47.79,0,0,0-19.47-18.5c-7.48-3.89-14.41-3.57-21.61.95-20.64,13-29.52,32.12-29.71,55.83-.21,26.44,13.68,46.89,37.74,56.21a12,12,0,0,0,10.35-.37,59.61,59.61,0,0,0,11.74-7.51,55.64,55.64,0,0,0,15.41-20c.76-1.68,1.35-3.59-.78-4.7s-3.79-.15-5,1.52a18,18,0,0,0-1.68,3.54c-2.76,6.35-6.47,12-12.25,16-2.68,1.87-5.21,2-7.83-.2-14.85-12.39-26.7-27-33.27-45.39-1.51-4.23-1.11-4.79,3.37-4.82C1007.47,1026.5,1015.11,1026.54,1022.75,1026.54Zm-269.69,7c-.92,27.11,17.23,46.54,38.66,54.71a10.17,10.17,0,0,0,8.28-.14,56.16,56.16,0,0,0,18-12.79A54.85,54.85,0,0,0,828.4,1060c.66-1.47,1.23-3.1-.49-4.14a4,4,0,0,0-4.7.43c-1.29,1-1.72,2.54-2.3,4A36.62,36.62,0,0,1,809.45,1076c-3.81,2.94-5.42,2.86-9.21-.1a94.51,94.51,0,0,1-13.59-13.24c-9.67-11.28-17.67-23.47-21-38.25-3.66-16.26,2-29.34,13.77-40.27,4.05-3.77,5.82-3.67,10.4-.41a71.52,71.52,0,0,1,12.65,12.12c4.07,4.73,7.06,10.23,10.8,15.19,2.19,2.91,3.66,2.87,5.94,0a44.4,44.4,0,0,0,4.75-8c1.87-3.67,1.52-7.07-.66-10.5a50.73,50.73,0,0,0-17-16.6c-8.21-4.88-16.19-5.24-24.14.44-2.14,1.53-4.41,2.89-6.42,4.56C759.77,994.26,753.14,1011.66,753.06,1033.59ZM973.69,260.17c2.44-1.16,3.77-3.5,5.83-2.07s1.27,3.69,1,5.66c-.36,2.24-.86,4.46-1.44,6.65q-11.81,44.34-23.65,88.65c-1.86,6.91-3.27,14-6.93,20.29a295.89,295.89,0,0,0-14,27.85c-2.51,5.55-5,11.16-7.91,16.47-15.42,27.65-34.43,52.84-53.74,77.81-13.9,18-28.92,35-42.46,53.26a79.55,79.55,0,0,0-10.26,17.85c5.45-7.12,10.89-14.21,16.55-21.14,14.44-17.68,29.81-34.58,43.89-52.56,25.19-32.19,48.28-65.7,64.91-103.24,6.47-14.62,13.38-29.11,16.84-44.89.92-4.19,1.23-8.51,2.87-12.55,2.74-6.76,5.31-13.58,8.05-20.33,8.48-20.85,14.63-42.45,20.85-64,3.61-12.5,9.28-24.34,12.41-37a35,35,0,0,0,1.21-11.7,3,3,0,0,0-1.47-2.7c-1.31-.63-2.3.17-3.21,1a14.88,14.88,0,0,0-3.59,5.29c-2.95,6.27-5.87,12.56-9,18.75C985,238.16,979.48,248.86,973.69,260.17ZM737,1282.43q40,0,80,0c1.63,0,4.59.83,2.32-2.75q-20.06-31.67-40-63.37c-1.42-2.25-2.3-1.79-3.5.12-3.16,5.07-6.39,10.11-9.64,15.12-2.13,3.29-2.43,3.3-4.51,0q-10.49-16.49-20.89-33c-3.28-5.22-3.23-5.22-6.46-.16Q723.63,1215,713,1231.56c-2.11,3.28-2.4,3.25-4.51-.07-3-4.74-6-9.5-9-14.24-2.25-3.53-2.29-3.54-4.6.06q-19.65,30.64-39.26,61.3c-.63,1-2,2-1.46,3.1.66,1.4,2.37.68,3.6.69Q697.34,1282.46,737,1282.43ZM950.9,282.82c-.81-1.5-2-1.45-2.95-2-5.68-3.22-9-7.82-8.33-14.59.73-7.24,1.29-14.53,3.22-21.58,5.33-19.46,11.58-38.64,17.8-57.83,1.8-5.56,3.82-11.08,4.57-16.92.17-1.24.51-2.82-.94-3.55s-2.4.58-3.39,1.39a5.79,5.79,0,0,0-1.19,1.33q-8.07,13.08-16.09,26.18a12.91,12.91,0,0,0-.87,2.35c-3.87,10.15-7.24,20.52-11.71,30.41-6.37,14.07-8.92,28.91-10.37,44-1.21,12.53,3.7,17.13,16.14,15.18C941.65,286.5,946.53,285.44,950.9,282.82Zm-86.64,748.12q0-25.26,0-50.53c0-1.9.32-4-1.44-5.33-3.3-2.4-7-1.93-10.65-.92-3.27.92-3.64,3.68-3.64,6.61q0,50.36,0,100.71c0,5.3,2.3,7.19,8.36,7.18,5.62,0,7.34-1.65,7.35-7.18Q864.29,1056.22,864.26,1030.94ZM933,207.73c.5-1.26.74-1.78.92-2.32,5.32-15.46,11.46-30.61,17.5-45.8,2.73-6.85,6.58-13.3,7.83-20.72.3-1.78.88-3.76-.77-5-1.89-1.43-3.67,0-5.21,1A35.52,35.52,0,0,0,941,149.14c-3.71,7.79-8.16,15.14-12.51,22.54-8.37,14.2-14.28,29.67-22.88,43.74C899,226.14,890.93,230,878.42,228c-1.12-.18-2.27-.79-3.41,0,5.22,8,14.61,11,23,7.21a33.05,33.05,0,0,0,15.11-12.79c5.37-8.77,13-16,17.39-25.36.48-1,1.2-2.47,2.62-1.91s1.07,2.28.81,3.49C933.43,201.36,932.43,204,933,207.73Zm-156.12,94.7c5.55,3.2,8.66,2.73,12.25-1.24a41.68,41.68,0,0,0,10.43-20.88c4-22.67,8.48-45.29,8.13-68.49-.08-5,.68-10,1-15,.54-8.78,2.58-17.54.54-26.35-.59-2.56-.16-6.68-3.18-6.89-3.4-.24-3.6,4-4.24,6.58-2.42,9.71-4.11,19.5-4,29.62.14,13-.34,26-.46,38.95a146.83,146.83,0,0,1-9,49.79C786.11,294.35,784.2,300.4,776.85,302.43Zm54.59-67.8c5.91,3.21,11.45,2.49,16.66-2,5.71-4.89,9.16-11.34,11.7-18.21a208,208,0,0,0,13-64.67c.14-3.44.38-6.93-.57-10.33-.38-1.38-.59-3-2.29-3.31s-2.54,1.12-3.39,2.26a15,15,0,0,0-2.9,8.68c-.2,4.65-.45,9.31-.93,13.93-1,9.78-4.19,19.13-5.87,28.77-2.43,13.9-6.9,26.76-17,37.16A59.06,59.06,0,0,1,831.44,234.63ZM610.47,1319c-3.06-2.25-6.4-2.1-9.31-3.24-2.28-.89-3.7-.18-5.2,1.67-5.5,6.77-11.16,13.41-16.81,20.06-.65.76-1.18,2.1-2.47,1.69s-1-1.8-1.25-2.78c-1.62-8-3.13-15.93-4.72-23.9-.32-1.61,0-4-1.54-4.58-3.95-1.53-8.12-2.46-12.21-3.63l-1.05,1.13c5.72,1.7,4.19,5.35,3.29,8.82-1.82,7-3.57,14.13-5.52,21.15-1,3.51-1,8-7,7.63a45.09,45.09,0,0,0,12.51,3.55c-4.2-4.15-4.24-4.16-2.84-10q2.28-9.4,4.73-18.77c.27-1,0-2.5,1.58-2.95,1.06.85,1.09,2.1,1.32,3.23,1.92,9.61,3.8,19.22,5.71,28.83.22,1.12-.1,2.65,1.33,3.06s2-1,2.73-1.91c6.55-7.76,13.07-15.55,19.64-23.3.61-.72,1-2,2.83-1.49-1.91,7.51-3.78,15-5.75,22.46-.89,3.37-1.22,7.41-6.94,6.29l.36,1.15,16.27,4.23.86-.86c-5.46-1.92-4.11-5.63-3.16-9.23,1.92-7.28,3.87-14.55,5.75-21.83C604.49,1322,604.89,1318.14,610.47,1319ZM755,1331c5.29.5,5.26,4.36,5.57,8q.84,10,1.61,20c.32,4.19,2.25,8.92-4.33,10.89l.79.72,11.54-1,.25-.85c-3.15-.56-4.87-2.16-5.11-5.39-.58-7.62-1.42-15.22-2.09-22.84-.07-.81-.52-1.94.83-2.39,1.34.77,1.83,2.19,2.55,3.39,4.86,8.23,9.67,16.49,14.54,24.72.57,1,.81,2.56,2.3,2.42s1.49-1.67,1.9-2.74c3.37-8.95,6.7-17.91,10.12-26.83.52-1.37.66-3,2.15-3.89,1.09.47.9,1.41,1,2.19q.81,9.65,1.55,19.28c.16,2,.31,4.05.42,6.07.14,2.76-3.09,2.44-4.61,4.69l17.12-1.48.21-1c-4.08-.16-5-2.72-5.26-6-.59-8.1-1.34-16.18-1.93-24.28-.25-3.39-1.29-7.25,4.21-8.3-3.48-.92-6.36,0-9.27,0s-4.16,1.33-5.09,4c-2.74,7.77-5.74,15.46-8.69,23.16-.45,1.18-.59,3-2.08,3.06-1.25.08-1.62-1.57-2.21-2.57-4.31-7.31-8.58-14.64-12.89-22-.71-1.19-1.15-2.83-3-2.72C763.09,1329.47,759.07,1329.58,755,1331ZM664.15,386.18c4.41,3.46,6.22,8.84,11.61,11.83a12.85,12.85,0,0,0-.89-1.69C662.34,381.94,652,366,641.77,350a49.54,49.54,0,0,0-6.88-9.16c-1.2-1.16-2.54-2.5-4.38-1.72s-1.87,2.62-1.89,4.32a38.32,38.32,0,0,0,3.72,16.3c4.24,9.23,8.72,18.35,13.11,27.51a5.27,5.27,0,0,0,2.87,3,105.07,105.07,0,0,0,15.15,4.32c2.62.5,2.92-.64,2.1-2.82C665,390.16,663.56,388.77,664.15,386.18ZM506.07,1249l-.08.47a3.18,3.18,0,0,0,.86.47c30,5,60.1,10,90.33,13.76,11.26,1.4,22.51,2.94,33.75,4.46,1.1.15,2.6,0,2.84,1.62.43,2.76-5.27,8.21-8.2,7.82-12.07-1.63-24.12-3.41-36.27-4.49-9.95-.9-19.9-1.89-29.85-2.84a1.49,1.49,0,0,0,1.11,1c22.9,4.26,45.88,8,69,10.93a3.88,3.88,0,0,0,4.19-2c2.51-4.07,5.07-8.11,7.75-12.07,1.45-2.15.46-2.56-1.52-2.81-4.38-.56-8.74-1.27-13.12-1.85-34.59-4.51-69.1-9.58-103.85-12.81C517.37,1250.2,511.72,1249.59,506.07,1249Zm462.46.56c0-.18,0-.37,0-.56a15.49,15.49,0,0,0-1.67,0c-17.47,1.8-34.95,3.42-52.39,5.46-15.54,1.81-31,4.08-46.53,6.15-10.9,1.46-21.78,2.94-32.68,4.35-2.81.36-3.57,1.32-1.82,3.88,2.42,3.55,4.72,7.2,6.9,10.9,1.28,2.18,2.91,2.75,5.36,2.43,15.63-2.1,31.25-4.26,46.76-7.1l18.8-3.39a1.55,1.55,0,0,0-1.49-.64c-19.39,1.7-38.83,3.13-58.05,6.28-5.14.85-7.76-.74-9.9-5-1.8-3.59-1.81-3.81,2.14-4.35,35.26-4.87,70.61-9.06,105.69-15.17C955.91,1251.73,962.22,1250.66,968.53,1249.58ZM429.8,1284.06c-.46,13.58,14.64,20.94,24.25,21.12,10.92.2,21.38-11.15,21.38-22.81,0-10.77-11.89-21-24.51-21.08C439.61,1261.2,429.8,1271.79,429.8,1284.06Zm412.85,35.16c-15.18.13-24.28,8.16-24.14,21.31.15,13.5,7.69,21.74,19.87,21.71,15,0,24.43-8.55,24.34-22.07C862.64,1327.05,855.05,1319.12,842.65,1319.22Zm-435.48-85.16c4.75,3.85,1.78,7.07-.17,10.29q-6.21,10.25-12.49,20.46c-1.29,2.11-2.59,4.23-6.28,4.77,6.08,3.66,11.15,7,16.49,9.83a13.4,13.4,0,0,0,12.44.1c6.6-3.16,7.95-10.74,2.88-16-.7-.72-1.82-1.19-1.88-2.81,1.89.12,3.72.34,5.55.35,4,0,7-1.9,8.2-5.16,1.31-3.68-.09-6.69-2.91-8.88C422.41,1241.93,414.74,1238.54,407.17,1234.06Zm609.2,68.79c.08-.49.15-1,.22-1.47-5.28,3-6.54-.82-8.18-3.83q-4.63-8.49-9.11-17.08c-.5-1-1.82-2.1-.72-3.17.82-.79,2,.16,3,.56,5.85,2.41,11.68,4.89,17.54,7.27,5.42,2.21,10.88,4.34,16.34,6.45a4.48,4.48,0,0,0,5-.88c1.26-1.34-.33-2.64-1-3.82-4.14-8-8.4-15.83-12.49-23.81-1.8-3.51-5.07-7.17.06-11.15-4.09,1.83-8,3.23-11.25,6.3,4.41-1.71,6,1,7.62,4.06,2.8,5.41,5.76,10.74,8.59,16.14.47.89,1.6,1.91.75,2.89s-2,0-3-.3c-9.77-3.57-19.31-7.69-28.82-11.89-4.33-1.91-10.92.06-13.67,4.16,5-.21,5-.24,7.64,4.75,3.78,7.2,7.4,14.47,11.24,21.63,1.64,3.06,2.29,5.72-1.13,8a7,7,0,0,0,.43,1.06ZM895.57,1307l-.18,1.1c4.69-.82,5.67,2.21,6.55,5.49,1.53,5.78,3.22,11.51,4.74,17.29.27,1,1.25,2.44,0,3.26-1,.65-2-.55-2.83-1.11-8.15-5.23-16-10.89-23.78-16.66-5.58-4.13-9.63-4.22-16.86.17,7.09-.8,6.91,4.27,8,8.18,1.71,6.09,3.43,12.19,4.9,18.35.93,3.91,3.47,8.3-2.77,11l.9.68,11.51-3.18c.06-.37.11-.74.17-1.1-4.8.86-5.58-2.41-6.45-5.56-1.75-6.33-3.51-12.66-5.2-19-.26-1-1.13-2.28-.18-3,1.22-1,2.13.5,3,1.12,9.25,6.38,18.46,12.82,27.69,19.21a16.84,16.84,0,0,0,3.4,2,3.76,3.76,0,0,0,4.07-.37c1.11-1,.21-2.26-.08-3.36-2.37-8.88-4.88-17.74-7.12-26.66-.92-3.66-3.38-7.87,3-10.2l-1-.62Zm-225.9,60.47.53-.93c-4.35-.72-4.16-3.73-4.1-6.82.13-6.94.87-13.83,1.51-20.73.09-.9-.27-2.15.89-2.49s1.54.91,2,1.63c3.33,4.67,6.57,9.41,9.91,14.07,3.75,5.25,7.62,10.42,11.36,15.68,1.26,1.77,3,2.66,4.92,2.14,1.74-.47,1.08-2.44,1.2-3.78.72-8.45,1.15-16.94,2.14-25.35.48-4.07-.88-9.5,5.5-11.11l-11.69-.79-.72.86c5.32.8,4.5,4.49,4.36,7.72-.25,5.61-.63,11.22-1,16.82-.09,1.26.19,3.16-1.08,3.54-1.61.49-2.22-1.48-3-2.55-6.13-8-11.74-16.29-17.33-24.63-2.58-3.86-9.49-5.58-14.2-3.45,2.52.91,4.94,1.62,4.62,5-.78,8.44-1.34,16.91-2.07,25.35a38.74,38.74,0,0,1-1,5.63c-.55,2.28-3.25,1.42-5.25,3.3Zm-184.78-82.1,1,1.51c2.76-7.16,6.81-4,10.62-2.53,1.79.67,3.57,1.36,5.3,2.18,1.44.68,3.77.68,3.94,2.53.14,1.62-2,2.14-3.25,3-9.94,6.63-20,13-30.28,19.12-1.46.86-4.3,2.19-.79,3.76,9.15,4.1,18.45,7.85,27.7,11.71.87.36,2,.85,2.62-.15,1.34-2.24,3.16-4.31,3.38-7.12a1.67,1.67,0,0,0-2,1c-1.71,3.12-4.15,3-7,1.83-4.07-1.71-8.22-3.24-12.28-5-3.55-1.51-3.54-2-.27-4.27.87-.62,1.76-1.23,2.67-1.81q14.37-9.09,28.76-18.17c.87-.56,2.1-.93,2.13-2.2,0-1-1-1.23-1.75-1.55q-12.54-5.3-25.08-10.57c-1-.45-2.17-.64-2.77.64C486.58,1281.3,485.76,1283.34,484.89,1285.37Zm37,7.85c4.55,1.85,3.64,5,2.5,8.15-2.63,7.43-5.17,14.89-7.86,22.29-1,2.89-1.74,6.12-6.18,7.33l25.58,8.94c.92.32,2.06.62,2.61-.39,1.25-2.27,2.78-4.5,2.73-7.65-5.31,5.24-5.31,5.25-12.46,2.84-1.47-.5-2.9-1.1-4.37-1.61-1.64-.56-2.29-1.61-1.71-3.31q1.95-5.76,3.93-11.52c.55-1.61,1.59-2.39,3.3-1.68,3.87,1.63,9.49,1.31,8.57,8.34l1-.2,3.51-10.38c-3.74,2.92-3.77,3-7,2-9.14-3-8-2.06-5.11-10.37,2.63-7.58,2.74-7.57,10.34-4.61,3.31,1.29,7.16,2.24,5.56,7.3,0,0,.35.22.72.44.36-.59.77-1.15,1.07-1.76,2.64-5.41,2.63-5.4-3.14-7.35-6.79-2.29-13.56-4.63-20.35-6.91C524.35,1292.79,523.5,1292,521.92,1293.22Zm447.87,31-.09-1.08c-2.62.41-4.8.61-5.31-2.88-.86-6-.67-7.06,3.32-8.82,2.84-1.25,5.69-2.5,8.58-3.64,2.35-.92,9.11,4.38,8.91,6.89-.06.81-.65,1.22-1.18,1.71s-1.64.7-1,2.24l15.36-6.64,0-.93c-4.19.72-6.3-2.2-8.73-4.52q-11.52-11-23-22.09c-1.09-1-2-2.47-3.94-1.67s-1.91,2.52-1.89,4.21c0,.36,0,.72,0,1.07.76,9.9.49,19.83.64,29.74,0,3.61.71,7.41-2.77,10.23l.63.63Zm103.88-54.09,14-8.87c0-.42,0-.83,0-1.24-4.46,2.25-6.92-1-9.75-2.86-8.84-5.88-17.54-12-26.31-18-1.27-.87-2.52-2-4.21-.87s-1.27,2.64-1,4.19q2.85,15.66,5.71,31.32c.62,3.37,1.45,6.75-1.44,9.73l.78.67,10.59-6.77c-2.47-.85-3.88.89-5.39-.15-2.9-2-2.83-9.51.16-11.44q3.32-2.13,6.64-4.23c4.06-2.56,4.62-2.22,10.08,2.26C1076.38,1266.29,1073.76,1267.77,1073.67,1270.17Zm-424.23,95.44.54-.94c-3.17-1.38-3.58-4.3-4.27-7q-4.07-16.15-8.08-32.31c-.43-1.71-1-3.27-3-3.52-1.87-.24-2.34,1.38-3.06,2.55-5.54,9.07-11,18.16-16.57,27.24-1.64,2.7-3.06,5.65-6.9,6.4,3.09,1.68,9.13,2.55,11.33,1.77-1-1.34-3.61-1.09-3.28-3.69.6-4.84,4.46-7.91,9.18-7.15,2.12.34,4.25.62,6.38,1,4.42.7,4.95,1.68,5.95,8.24.53,3.39-1.95,3.42-4,4.86Zm297.63-65.95.89-1.13c-.56-1.78-1.18-3.55-1.64-5.35-.5-2-1.49-2.41-3.41-1.72-9.9,3.56-19.82,7-29.74,10.51-1,.36-2.38.7-1.93,2.08.71,2.23,1,4.77,3.19,6.62.3-6.45.3-6.45,6.64-8.65a4.94,4.94,0,0,0,.68-.23c2.51-1.18,3.93-.41,4.82,2.24,2.48,7.36,5.2,14.64,7.7,22,1.35,3.94,4.39,8.2-2.24,11.25l1.06.53,16.44-5.82c.14-.39.29-.77.43-1.16-6.11,1.74-6.74-2.64-8-6.1-2.78-7.63-5.32-15.35-8.13-23-1-2.75-.4-4.19,2.41-5C940.34,1295.44,944.63,1292.53,947.07,1299.66ZM786.69,277a138.38,138.38,0,0,0,4.72-22.38,7.83,7.83,0,0,0-.86-5.16c-1.26-2.09-1.74-6-5-4.94-2.76.93-2.25,4.49-1.56,7C786.3,259.92,786.85,268.42,786.69,277ZM708.63,1379.71a5.28,5.28,0,0,0,1.65-.66c4.4-3.85,6.67-9.12,9.34-14.12.31-.58,0-1.13-.69-1.39-1.53-.58-6.59,1.53-7,3.11a51.49,51.49,0,0,1-4,11.37C707.5,1378.78,707.17,1379.67,708.63,1379.71Z"/><path class="cls-1" d="M1001.69,864.38c-.05,20.77-10.12,36.08-26.45,47.81-5.24,3.77-6.85,3.55-11.78-.5-21.94-18-39.76-39.29-50.9-65.63-6.72-15.89-9.41-32.4-4.58-49.37,4-14,12.32-25.25,23.56-34.31,5-4,6.49-4,11.23.17,23.87,21,43.17,45.28,54.17,75.48A73.55,73.55,0,0,1,1001.69,864.38Z"/><path class="cls-1" d="M360.42,861.44c.13,23.26-9.81,38.44-25.68,50.26-5.95,4.43-7.52,4.18-13.23-.55-21.56-17.88-39.13-38.93-50.15-64.9-6.78-16-9.59-32.64-4.61-49.7,4.21-14.44,12.79-26,24.81-35.08,2.71-2.05,5.44-2.77,8.4-.2,26.37,22.89,47.49,49.39,57.72,83.42A60.73,60.73,0,0,1,360.42,861.44Z"/><path class="cls-1" d="M630.4,1031.39q0-22.94,0-45.88c0-7.83,1.65-9.42,9.47-9.43h12.91c7.6,0,13,3.6,16.27,10.29,3.87,7.82,3.66,16.23,3.09,24.59-1.78,26.18-13.34,47.74-31.63,66a37.9,37.9,0,0,1-5.86,4.69c-3.18,2.11-4.19,1.56-4.23-2.24-.07-7.17,0-14.34,0-21.51Z"/><path class="cls-1" d="M906,1031.83q0-22.23,0-44.44c0-8,1.7-9.71,9.63-9.77,3.58,0,7.17,0,10.75,0,10.17.09,16.7,5.09,19.16,15,2.84,11.42,1.61,22.85-1,34.07-4.73,20.38-15.4,37.37-30.74,51.48-1.91,1.75-4.22,4.51-6.6,3.56s-1.14-4.5-1.16-6.88C905.94,1060.49,906,1046.16,906,1031.83Z"/><path class="cls-1" d="M453.92,1018.9c-.72,0-1.43,0-2.15,0-3.89-.09-4.4-.7-3.33-4.51,1.22-4.35,2.58-8.66,3.9-13,.27-.87.31-2.19,1.45-2.15s1.17,1.35,1.44,2.23c1.33,4.32,2.66,8.64,3.92,13,1.2,4.14,1,4.39-3.45,4.45Z"/><path class="cls-1" d="M696.59,1279.2q-16,0-31.91,0c-1.14,0-2.62.46-3.28-.79s.56-2.21,1.17-3.17q16.13-25.21,32.32-50.4c2.16-3.36,2.32-3.37,4.44,0q16,25.29,32,50.61c2.05,3.24,1.77,3.75-2.1,3.77C718.34,1279.22,707.46,1279.2,696.59,1279.2Z"/><path class="cls-1" d="M776.92,1279.2c-10.74,0-21.48,0-32.22,0-3.64,0-3.91-.54-1.93-3.63q16.18-25.35,32.45-50.65c2.06-3.21,2.53-3.21,4.58,0q15.91,25.11,31.75,50.25c.6,1,1.82,2,1.19,3.17-.73,1.4-2.35.83-3.59.84C798.41,1279.22,787.67,1279.2,776.92,1279.2Z"/><path class="cls-1" d="M761.05,1239c-.48.91-.86,1.78-1.37,2.58q-10,15.72-20.09,31.41c-2.35,3.64-2.66,3.62-5,0-6.53-10.3-13-20.63-19.6-30.88-1.41-2.2-1.53-3.92,0-6.18,6.87-10.5,13.6-21.1,20.33-31.69,1.28-2,2.3-3,4-.31,6.83,10.95,13.75,21.85,20.62,32.78A23,23,0,0,1,761.05,1239Z"/><path class="cls-1" d="M468,1280a29.07,29.07,0,0,1-10.59,19.18c-4.12,3.39-8.73,3.46-13.37.93-4.87-2.65-7.3-6.81-6.86-12.34a30.31,30.31,0,0,1,8.54-18.84c4.05-4.26,8.77-5.13,14-3C465.37,1268.28,468.05,1272.34,468,1280Z"/><path class="cls-1" d="M826.19,1338.15c0-9.1,3.11-13.74,9.35-15.57s11.16-.17,14.66,5.21a28.44,28.44,0,0,1,4.18,21.93c-1,5.09-4.35,8.09-9.3,9.34s-9,.12-12.39-3.59C827.82,1350.12,826.69,1343.44,826.19,1338.15Z"/><path class="cls-1" d="M406.4,1276.81a11.62,11.62,0,0,1-6.33-2.69c-1.21-.93-1.05-2-.36-3.16q3.63-6,7.26-11.94c.68-1.11,1.45-1.71,2.94-1.12,4,1.59,6.84,5.79,6.22,9.5C415.33,1272.12,410.65,1276.73,406.4,1276.81Z"/><path class="cls-1" d="M424.85,1250.73a8.64,8.64,0,0,1-5.55,7.11c-3.32,1.38-6-.54-8.51-2.3-1.2-.83-.5-1.93,0-2.84,1.36-2.23,2.73-4.46,4.16-6.64,2.39-3.63,3.13-3.74,6.74-1.13C424,1246.56,424.86,1248,424.85,1250.73Z"/><path class="cls-1" d="M964.85,1293.74c.32.25.73.49,1.07.81,2.82,2.72,5.62,5.45,8.45,8.16,1.51,1.46,1.43,2.61-.57,3.47-2.4,1-4.78,2.08-7.21,3-1.46.56-2.62.31-2.67-1.6-.09-4.15-.18-8.3-.24-12.45C963.67,1294.47,963.68,1293.68,964.85,1293.74Z"/><path class="cls-1" d="M1050.55,1251.23c-.33-2.62.36-3.12,1.88-2.09,3.35,2.29,6.66,4.65,10,7,1.6,1.12,1.64,2.21,0,3.3-.2.13-.38.29-.58.41-10.22,6.33-8.29,6.61-10.45-4.11C1051,1254,1050.72,1252.19,1050.55,1251.23Z"/><path class="cls-1" d="M632.37,1347.5c-10.89-.42-11.23-1-5.81-9.81,1.21-2,2.06-5.71,4-5.41,2.51.39,1.77,4.16,2.49,6.44.61,1.93.94,4,1.45,5.91S634.69,1348,632.37,1347.5Z"/></svg>