<svg id="Layer_1" data-name="Layer 1" xmlns="http://www.w3.org/2000/svg" viewBox="0 0 1655.73 1436.41"><defs><style>.cls-1{fill:#f5ae40;}.cls-2{fill:#070909;}.cls-3{fill:#0b0b0b;}.cls-4{fill:#666;}.cls-5{fill:#979799;}</style></defs><path class="cls-1" d="M827.86,0c-396.65,0-718.2,321.55-718.2,718.2s321.55,718.21,718.2,718.21,718.21-321.56,718.21-718.21S1224.52,0,827.86,0Zm638.45,996.8c-32.11,72-74.89,137-129.25,194.12-55.18,58-118.08,105.81-189.47,142.34a708.36,708.36,0,0,1-178.34,62.52c-57.91,12.12-116.47,15.91-175.55,13.15-95.23-4.44-186-26.55-271.65-68.64a714.89,714.89,0,0,1-196.91-142c-44.65-45.56-81.71-96.77-112.12-152.85A681.18,681.18,0,0,1,142.81,850a666.7,666.7,0,0,1-12.35-116.66,703.77,703.77,0,0,1,28.76-213.12,664.6,664.6,0,0,1,83.67-178.64C302.78,251,379,177.65,472.93,122.8,530.74,89,592,63.7,657,47.61c58.93-14.59,118.8-21.39,172.94-21,67.65.68,127.59,9.44,186.47,25.6,92.59,25.41,175.74,69.16,250.55,129.12,57.77,46.28,107.35,100,147.31,162.36,49.24,76.81,83.07,159.85,99.54,249.77,9,49.42,13.1,99.25,11.11,149.44C1521.4,831.21,1502.33,915.94,1466.31,996.8Z"/><path class="cls-2" d="M1196.05,1185.21h0c.37.37.73.71,1.1,1.07Zm317.72-591.73c-16.47-89.92-50.3-173-99.54-249.77-40-62.35-89.54-116.08-147.31-162.36-74.81-60-158-103.71-250.55-129.12C957.49,36.07,897.55,27.31,829.9,26.63c-54.14-.41-114,6.39-172.94,21C592,63.7,530.74,89,472.93,122.8,379,177.65,302.78,251,242.89,341.59a664.6,664.6,0,0,0-83.67,178.64,703.77,703.77,0,0,0-28.76,213.12A666.7,666.7,0,0,0,142.81,850,681.18,681.18,0,0,0,213,1045.41c30.41,56.08,67.47,107.29,112.12,152.85a714.89,714.89,0,0,0,196.91,142c85.66,42.09,176.42,64.2,271.65,68.64,59.08,2.76,117.64-1,175.55-13.15a708.36,708.36,0,0,0,178.34-62.52c71.39-36.53,134.29-84.35,189.47-142.34,54.36-57.13,97.14-122.07,129.25-194.12,36-80.86,55.09-165.59,58.57-253.88C1526.87,692.73,1522.82,642.9,1513.77,593.48Zm-86-138.09a13.58,13.58,0,0,1,3-2.05c5-2.69,7.24-1.81,8.79,3.7,4,14.35.88,27.77-5.77,40.61-9.12,17.63-24.38,28-42.14,35.48-13.3,5.59-27,8.77-40.13,8.49-12.19.71-22.59-1.57-32.77-5.13-12.93-4.54-21-13.47-24.17-26.85-1.29-5.53-.19-7,5.3-5.91,2.71.52,5.26.63,7.7-.49,24.25-11.15,49.74-19,74.77-28,8.56-3.08,17.24-5.81,25.85-8.76C1415.42,464,1422.17,460.72,1427.76,455.39Zm-40.62-88.24c8.08-2.66,9.65-2,14,5.33.91,1.5,1.88,3,2.84,4.43,1.49,2.25,1.3,3.82-1,5.77-32.11,27.43-65.34,53.53-96.82,81.7-4.32,3.86-8.85,7.46-13.14,11.35-2.77,2.51-5.7,5-5.51,9.93a34.09,34.09,0,0,1-9.95-14.13c-.72-1.75-1.11-3.51,1.76-3.7,5.5-.37,6.85-6.08,10.8-8.54,1.43-.89.12-2.88-.85-4.17-7.3-9.64-13.44-20-19.43-30.51-1.09-1.91-2.39-1.09-3.5-1-5.36.61-9.49,3.18-11.7,8.45-5.89-4.47-6.64-12.12-11.67-16.84a2.34,2.34,0,0,1-.15-2.94c.68-1.09,1.75-.94,2.74-.26,4,2.74,7.95,1.54,12,.1q47.8-16.86,95.65-33.62C1364.55,374.6,1375.84,370.86,1387.14,367.15ZM1308,258c.58-2.75,1.82-3.2,3.79-1.12,3.14,3.29,6.58,6.36,9.35,9.95a197.18,197.18,0,0,0,22,24c2.69,2.5,2.88,4.45,0,6.78-4.08,3.26-7.22,7.69-12.29,9.71l-1.33,1c-4.75,6.88-11,12.23-17.68,17.1-.71.52-1.4,1.3-2.29.85a1.58,1.58,0,0,1-.41-2.3c4.42-6,.05-10.29-3.13-14.47s-7.19-8.13-10.81-12.18c-2.81-3.16-5.2-1.54-7.65.58q-19.07,16.57-38.17,33.1c-9.67,8.39-19.21,16.94-29,25.16-3.7,3.09-4,5.15-.57,8.89,4,4.45,10,7.95,9.85,15.25,2.87-1.32,4.73,2.37,7.8,1.4,2.41-.76,5.19-.45,7.8-.41a2.49,2.49,0,0,1,2.61,2.1,2.19,2.19,0,0,1-1.18,2.64c-4.64,2.2-7.33,6.44-10.59,10.06-2.86,3.17-5.33,2.8-7.81-.3-10.38-13.05-21.46-25.52-32.56-38-1.45-1.63-2.73-3.58-1.31-5.67,1.2-1.77,3.38-2,5.24-1.12,2.94,1.35,4.68-.59,6.47-2.12q49.25-42,98.46-84.12C1306.76,263,1307.46,260.61,1308,258Zm-188.78,32.71c2.16-2,4-4.3,6.6-5.94a23,23,0,0,0,6.5-6c11.21-16,25.25-29.66,36.83-45.34,12.52-16.94,25.33-33.66,38.91-49.79a11.34,11.34,0,0,0,2.81-9.24c-.46-3.24,1.47-3.81,3.77-2.75,5.7,2.64,10.44,6.47,13,12.39,1,2.24-.12,4.14-1,6.35-5.1,13.32-7.88,27.31-11,41.6q14.63-8.76,29.25-17.52c14.45-8.69,11.23-9.82,26.23,1.43,1,.73,1.85,1.54,3,2.53-6.89,2-11.17,6.64-15.27,11.88-14.92,19.09-30.2,37.9-45.21,56.91-5.32,6.75-10.29,13.78-15.36,20.72-2.4,3.26-4.49,7-7.89,9.11-6,3.74-8.87,9.17-10.21,15.8a43.25,43.25,0,0,1-1.71,4.95c-1,3.23-3,3.72-5.48,1.61-4.15-3.51-8.33-7-12.2-10.85-2.5-2.47-2.94-5.84.83-7.29,9.27-3.52,13.76-11.62,19.21-18.85,6.35-8.44,13-16.63,20.89-23.66.39-.35,1-.59,1.17-1,5.81-13.92,18.42-22.87,26-35.48l-.63-1.11a95.25,95.25,0,0,0-20.48,11.69c-3.13,2.34-6.21,5.14-10.35,2.43s-2.56-6.39-1.65-10c1.57-6.28,2.74-12.65,5.06-18.73a5.07,5.07,0,0,0-.16-4.76c-9,7.26-14.85,17-21.78,25.89q-16.86,21.5-33.66,43.07c-3.23,4.15-6.62,8.27-8,13.48-.73,2.82-2.05,3-4.07,1.56-4.7-3.38-9.36-6.82-14-10.27C1117.28,294,1117.39,292.45,1119.23,290.74Zm-49.74-160.53c3.15-6.15,9.55-10.39,10.45-17.91.34-2.8.48-5.32-3-6.18-2.32-.57-4.78-1.26-3.9-4.35s2.51-5.45,6.91-5.37c6.82,1.52,14.46,2.91,21.27,6.65,2.79,1.54,7.51,1.11,8.12,4.89.74,4.59-4.61,3.8-7,5.76-3.93,3.24-7.49,6.84-11.12,10.37-5.2,5.05-11,9.14-18.16,11.11-2,.56-4.06.76-5.28-1S1068.83,131.51,1069.49,130.21ZM779.07,54.79a2.29,2.29,0,0,1,2.46-1.62c5.57.74,11-1.14,16.52-1,3.07.12,5,1.06,2.62,4.49-1.27,1.85-1,3.89-.65,6.06,1.77,10.31,5.6,20.3,4.45,31.07-.24,2.29.74,4.85,1.6,7.11,8.44,22.23,11.78,45.76,17.52,68.68.9,3.61-.66,7.77,2.85,11.78,3.25-10.67,4-21.2,5.61-31.55,3-19,6.22-38.07,8.77-57.18,1.34-10,1.42-20.23,5.6-29.71.86-1.93.23-3.94-.62-5.61-1.55-3-.65-4.23,2.53-4.23h16c-8.92,14.53-7.94,30.94-10.7,46.34-5.53,30.7-9.45,61.68-14.13,92.53-.6,4-2.27,7.75-2,11.87a2.11,2.11,0,0,1-.34,1.5c-4.27,4-9.74,1.44-14.58,2.45-2.59.53-3.42-2-4.18-4-3.81-9.84-5.74-20.19-8-30.44C805.52,151.17,800.1,129,796,106.65c-2.66-14.36-6.54-28.34-10-42.46-.79-3.23-1.79-6-5.29-7.23C779.81,56.65,778.5,56.25,779.07,54.79ZM703.2,218.68c4.09-3.12,4.41-7.53,4.63-12.26,1-21.41.7-42.85,1-64.27.32-24.4.11-48.81,2-73.16.68-9,8.3-14.07,17-11.49a3.47,3.47,0,0,1,2.5,3c1.89,8.07,6,15.31,8.59,23.11,12.26,37.21,26.49,73.69,39.9,110.48,1.61,4.39,3.25,8.56,8.53,10.39-5.54,3.28-11,3.7-16.37,4.49-1.5.22-3.77.34-3.11-2.12,1.5-5.48-3.79-8.87-3.91-13.88,0-1.64-2.41-1.74-4-1.15-11.1,4.11-22.9,5.22-34.3,8.07-3.71.93-4.81,3.07-4.8,5.88s-.43,6.14,2.16,8.31c3.53,2.95,1.06,4.44-1.47,4.86-5.66.93-11.36,1.46-16.88,3.07-.73.21-1.85.25-2.07-1A2.13,2.13,0,0,1,703.2,218.68ZM568,108.48c5.81-2.49,11.59-5,17.45-7.35,3.33-1.3,3.53,1.08,3.27,3.38-.66,5.95,1.27,11.43,2.9,17,1.07,3.61,3.06,4.82,6.66,3.36,5.53-2.23,11.1-4.32,16.64-6.5,2.79-1.1,3.91-2.8,2.06-5.65-3.31-5.08-4.21-11.52-9.49-15.53-2.84-2.15,0-3.68,1.6-4.73,6.25-3.94,13.43-5.72,20.22-8.43.86,1.92,1.14,3.74-.18,5.18-3.32,3.63-2.2,7.28-.6,11.22q22.19,54.51,44.16,109.14c2.2,5.5,3.87,10.84,10.32,12.89,2.44.77,1.85,2.69.23,4.06a22.31,22.31,0,0,1-7.86,4.1c-4,1.27-8.15,2-11.5,4.93a3.41,3.41,0,0,1-4.42-.07,3,3,0,0,1-1-3.78c3.16-6.72-.17-12.62-2.4-18.58-9.25-24.79-20.68-48.73-28.8-74-2.21-6.85-2.28-6.8-9.2-4.35-4.45,1.56-9.23,2.08-13.44,4.44-2.9,1.63-4.05,3.55-2.45,6.84,13.45,27.62,23.5,56.62,34.52,85.23,1.48,3.84,3.92,6.64,8.17,7.37,1.21.21,2.57.12,2.82,1.75.22,1.38-.54,2.25-1.71,2.95a67.9,67.9,0,0,1-19.33,8.07c-2.27.55-4.76,0-3.88-3.07,1.91-6.87-1.27-12.76-3.18-18.86s-4.82-11.63-7.68-17.25c-12.9-25.38-20.64-52.84-31.75-78.94-2-4.67-3.65-9.48-5.58-14.19-1.13-2.77-2.28-5.63-6-5.8a2.21,2.21,0,0,1-2.16-1.93A2.45,2.45,0,0,1,568,108.48ZM492,148a144.07,144.07,0,0,0,25.72-16.34c3.64-2.94,6-2.53,8.13,1.71,1.54,3.15,3.56,6.05,5.31,9.09.49.84,1.44,1.72.58,2.83a2.41,2.41,0,0,1-2.88.58c-1.2-.42-2.27-.76-3.49,0-7.31,4.51-14.67,8.94-21.95,13.5-2.21,1.38-3,3.31-1.5,5.84,1.56,2.76,3.61,3.54,6.59,2.4,6.34-2.44,10.9-7.62,16.81-10.73a20.8,20.8,0,0,0,8.8-9c5.07,7.5,11,14,13.89,24.52-10.69-9.43-17.33-.91-24.89,2.8a14,14,0,0,0-1.7,1.22c-8.73,6.25-8.67,6.21-3.21,15.38q21.38,36,42.61,72c2.17,3.7,4.1,5.21,8.17,2.16a71.41,71.41,0,0,1,11.42-6.45c1.48-.73,3.37-3.23,5.08,0,.35.66,1.79-.16,1.65-.38-2.32-3.64,3.31-5.76,1.71-9.44-.58-1.33.33-3.42.86-5.05.47-1.42.87-3.21,3-3.11,1.84.07,2.1,1.66,2.58,2.92,1.57,4.23,4.71,7.37,7.46,10.76,2.56,3.15,2.48,5.54-1.3,7.53-14.75,7.79-28.9,16.62-43.2,25.19-1.77,1.06-3.65,2.56-5.74.74s-1.26-3.88-.29-5.77c1.4-2.7-.05-4.69-1.29-6.81q-30.34-52-60.7-104.06c-3.22-5.52-5.35-12.06-14.37-13.71C482.1,154.28,486.8,150.62,492,148Zm-84.55,61.73a199.46,199.46,0,0,0,24.05-21.19c2.86-2.92,5.14-3.1,7.72.26,2.34,3.06,5,5.91,7.43,8.86,1.75,2.06,1.12,3.45-1.43,3.18-3.26-.34-5.16,1.48-7.28,3.37-4.73,4.19-9.58,8.24-14.36,12.36-2.5,2.17-5.74,4-2.29,8,3.21,3.76,5.6,1.84,8.33-.56,6.93-6.1,15.11-11,18.87-20.1.76-1.84,2.08-1.28,3.28-.05,5.14,5.27,10.32,10.49,14.49,16.61.51.76,1.14,1.55.59,2.34-.73,1.06-1.76.8-2.72.08-5.32-3.93-9.68-.91-13.72,2.24-4.56,3.56-8.76,7.55-13.18,11.29-2.41,2-2.33,4-.4,6.29q29.51,35.34,58.93,70.75c2.39,2.89,4.23,3,6.78.27A53.62,53.62,0,0,1,514,304.57c1.13-.67,2.31-2.62,3.93-.58.64.81,1.15.37,1.67-.13-3.34-3,3-5.13.69-8.33-.86-1.21-.43-3.41-.43-5.15,0-2,.2-4.15,2.35-4.88,2.64-.92,3,1.75,4,3.22a42.56,42.56,0,0,0,8.46,8.6c3.18,2.64,3.26,5.15-.06,7.71-13.08,10-25.71,20.61-38.16,31.44-1.76,1.53-3.77,3-6.15,1.78-2.2-1.14-1.24-3.42-1-5.21.42-2.7-.63-4.73-2.27-6.71q-40.86-49.87-81.64-99.83c-2.59-3.2-6.34-3.44-10.32-5.52C399.49,216.93,403.16,212.89,407.45,209.71ZM329,289.33c9.2-9.65,19-18.42,35.92-17.81,22.12.15,44.05,17,50.65,40.61,2.35,8.42,2.35,8.42,11.13,9.39,25.65,2.8,40.7,24.13,34.33,48.44-2.44,9.36-9.7,15.16-15.66,21.93a2.31,2.31,0,0,1-2.86.76c-1.09-.64-.71-1.86-.48-2.83,1.17-4.8-1.12-8-4.69-10.78C405,353.7,374.2,326.53,343,299.9c-3.16-2.68-5.89-5.59-11-4.59C328.4,296,326.44,292,329,289.33Zm54.55,794.76c-4.65,8.93-14,10.22-20.57,2.65-10.12-11.71-19.1-24.3-27.82-37.06A583.92,583.92,0,0,1,233.89,750.83,652.81,652.81,0,0,1,234,676c.58-9,6.36-14.69,14.78-14.23,7.72.42,12,4.82,11.78,12.56-.26,10.71-1.36,21.4-1.1,29.28-1.15,105.26,22.14,201.57,72.36,291.08a535,535,0,0,0,48.11,71C384.33,1071.22,387.18,1077.07,383.52,1084.09Zm7.76,98.18c-3-3.43-4.54-7.21-1.9-11.49,3.33-5.36,6.81-10.63,10.36-15.85q23.33-34.4,46.7-68.76c1.51-2.22,3.72-4.45,2.06-7.63-.38-.74-.13-1.62.5-1.77a3.05,3.05,0,0,1,2.42.39c3.07,2.88,6.08,5.84,8.94,8.93,1,1.12,1.38,2.72-.82,3.1-2.84.47-3.93,2.79-5.29,4.76-4.41,6.34-9.37,12.2-14.28,18.14-4.39,5.31-7.27,11.87-10.82,17.87l-.87,1.38,0,.07c.32,3.66-.06,6.85-4.79,7.12l-1.89,3.2c2.21,2.27.17,4-.83,5.77-.38.66-1.63.83-2,1.5-1.08,1.82-4,3.45-2.59,5.61,1,1.62,3.33-.51,5.1-.74.66-.09,1.34-.08,2-.11,2.88-4.78,6.32-8.71,12.58-8.5,0-.7-.25-1.81,0-1.94,6-2.9,9-11.1,17.36-9.66l2.51-1.57c.33-.27.67-.52,1-.77v0l1.38-.92a4.44,4.44,0,0,0,2.88-2.13l1.39-1a.61.61,0,0,0,.75-.45l1-.72,1-.53c.16-.83.51-1.43,1.52-1.17l-.32,0h.32c.62-5,4.38-4.65,7.91-4.72l.05,0c.34-4.78,2.84-6.89,7.63-6.19h3.84c6.41,1,8.63,3.44,7.5,8.4-16.66,6.47-29.94,18.39-44.68,27.92-16.34,10.55-32,22.22-48.36,32.7C397.17,1184.61,394.26,1185.71,391.28,1182.27Zm81.25,66.31c-4.54-.69-7.34-3-9.9-5.68s-1.16-5,.71-7.37c4.55-5.78,4.34-6.48-1.46-10.73-5-3.63-9.8-7.41-14.65-11.19-5.19-4-9.53-3.2-11.32,3.06-1,3.66-2.35,3.27-4.5,1.66-2.83-2.12-5.09-4.93-8.21-6.74-.84-.48-1.71-1.62-1.05-2.67.31-.5,1.52-.62,2.33-.64,3.64-.09,6.15-2.31,8.7-4.44q37-30.88,74-61.73a34.75,34.75,0,0,1,6.49-4.45c4.17-2.08,7.35,0,10.23,3,2.65,2.77,2,5,.23,8.23-16.87,29.93-33.46,60-50.14,90C472.34,1241.82,471,1244.79,472.53,1248.58Zm56.14,23.08c2.07.26,3.86-1,5.77-1.82,1.32-.58,2.82-1.2,4-.15s.4,2.53-.26,3.81c-7.35,14.1-8.55,13.82-20,5.69-5.19-3.69-11.33-5.55-16.8-8.69-3.36-1.92-5.21-3.69-.59-6.51,3.18-1.94,5.35-5,7.14-8.3,13.53-24.59,27.7-48.79,43.27-72.17a25,25,0,0,0,4.07-11.28c.37-3.47,2.33-4,5.17-2.69a17.31,17.31,0,0,1,2.72,1.6c2.71,1.93,6.79,3.39,7.73,6,1.53,4.18-4.09,4-6.23,6.08-6.42,6.34-9.64,14.62-14.35,22-10.88,17-21.71,34-30.16,52.35C517,1264.43,520.77,1271.48,528.67,1271.66Zm63.51,1.14c-3.78-.66-5.75.67-7.16,4.24-3,7.5-6.39,14.81-9.61,22.19a12.85,12.85,0,0,0-1.49,6.59c.35,3.1-.68,4.2-3.8,2.73-2.83-1.35-5.87-2.29-8.66-3.72-3-1.53-3.74-3.78-.78-6.1,3.78-3,5.37-7.15,7.17-11.38,11.25-26.44,22.67-52.8,34-79.18,1.13-2.62,2.16-5.26,1.08-8.11-1.53-4,.79-4,3.29-3,11.2,4.48,26.39,16.55,24.61,34.88.35,13.25-4.75,24.28-16.91,31.65a27.45,27.45,0,0,0-5,3.89A18.26,18.26,0,0,1,592.18,1272.8Zm93.3-41.91c-5.43,32.14-9.6,64.47-13.54,96.83-.58,4.83-2.28,9.64-.54,14.57.36,1,0,1.6-1.08,1.85-6.55,1.46-11.89-4-10.17-10.45,1.64-6.15,1.2-6.75-4.93-8.33-7.3-1.86-14.55-3.92-21.26-5.73-4.88.29-7.18,2.84-7.14,6.82,0,3.77-1.87,3.77-4.45,3.22a26.19,26.19,0,0,1-4.44-1.36c-2.21-.92-5.7-.61-6.27-3.17s3.17-1.77,4.57-3.32a37.65,37.65,0,0,0,4.67-7q23.65-42.54,47.32-85.08c4.17-7.46,8.06-8.54,14.44-4.92C685.2,1226.3,686,1228.06,685.48,1230.89Zm69.84,43c-.34,12.22-3.61,23.18-13.49,31.3a9.51,9.51,0,0,0-3.51,9.4c1.84,11.26,3.5,22.55,6.73,33.52a23.91,23.91,0,0,0,1.39,3.41c3.3,7.13,3.31,7.12-5,6.45-7.62-.61-7.53-.59-6.21-8.26.88-5.18-1.25-10-2.08-15-.94-5.71-2.18-11.36-3.27-17-.39-2-1-4.08-3.32-4.13-2.91-.06-1.6,2.55-1.87,4-1.53,8.28-2.74,16.63-4.48,24.87-.74,3.48-.93,6.47,1.33,9.43,1.87,2.45.77,3.54-2,3.17-4-.55-8-1.24-11.94-1.94-2.14-.4-3-1.94-.94-3,3.54-1.87,3.51-5.11,3.87-8.1,3.09-24.9,6.81-49.71,10.87-74.47.74-4.49,1.46-9,2.29-13.49.71-3.83,1.76-7.61-1.62-10.85a2,2,0,0,1-.12-2.87c1.09-1,2.53-.88,4-.67,13.38,2,22.36,9.45,27.25,21.92A30.17,30.17,0,0,1,755.32,1273.85Zm81,90.53c-6.51.6-8-.76-8.16-7.32-.18-6-1.26-6.77-7.3-6.5-6.49.28-13,.21-19.5.35s-9.08,3.26-6.83,9.5c1.16,3.22.15,3.78-2.5,3.76-3.67,0-7.36-.19-11-.23-.93,0-1.91-.06-2.27-.92s.38-1.57,1.18-2.07c3.49-2.17,4.14-5.76,4.9-9.44q9.48-46.14,19.12-92.22a51.11,51.11,0,0,1,2.13-7.61,9.43,9.43,0,0,1,13.61-4.57,4,4,0,0,1,2,3.41q6.9,47.64,15.42,95c1.09,6-.19,12.9,6.77,17.49C840.76,1363.6,838.58,1364.18,836.37,1364.38Zm51.28-1.81c-4,.7-8,1.32-11.27,1.86-2.69,0-4.72-.26-2.9-2.82,2.71-3.78,2.6-7.8,1.94-12.06-3.12-20.36-3.43-41-5.27-61.41q-1.23-13.64-2.14-27.3c-.18-2.68-1.47-4.54-3.18-6.4-1.43-1.57-2.46-3.7-1.61-5.78s3-1.3,4.69-1.45c3.33-.28,6.64-.69,10-.89,2-.12,3.8.32,2.27,3-2.46,4.25-1.89,8.74-1.51,13.33q3.66,43.86,7.09,87.73c.23,3,.43,5.77,3.16,8C891,1360,890.94,1362,887.65,1362.57Zm73.54-118.36c-.73,3-3.21,2.58-5.55,1.45-5.43-2.6-6.52-1.91-7.68,3.76s0,10.7,1.9,15.91c6.93,18.9,11.57,38.24,10,58.6a95.6,95.6,0,0,1-1.37,10.94c-2.12,10.67-8.57,17.4-19.09,20.13a56.2,56.2,0,0,1-6.71,1.24c-3.72.51-8.28,2.83-11-.22-3.36-3.78-3.67-9.33-4.2-14.41-.29-2.7,1.64-2.7,3.47-2.53,2.76.26,4.78,2.06,6.94,3.54,6.41,4.41,12.8,2.77,15.95-4.29a55.79,55.79,0,0,0,4.73-24c-.06-13.21-4.38-25.49-8.2-37.89-2.91-9.43-4.89-18.89-3.06-29,1.07-5.83,3.93-9.56,9.21-11.73a30.26,30.26,0,0,1,5.38-2.07c2.34-.44,4.69-4.08,7-.93A13.93,13.93,0,0,1,961.19,1244.21Zm69.45,85.12c-8.62,2.67-15.36.13-20.28-7.66a88.21,88.21,0,0,1-8.68-17.35c-7.44-20.78-16.28-41.07-21.89-62.44-3.72-14.15,4.72-24.19,21.14-24.19,4.22.21,9.91,2.1,12.17,7.76,10,25,21.41,49.56,28.59,75.65a51.92,51.92,0,0,1,1.6,9.84A17.76,17.76,0,0,1,1030.64,1329.33Zm66.43-11.68c-.06.52,0,1.07-.11,1.57-.69,3.43-1.12,8.37-4.68,8.53-3.38.14-2.54-4.92-3.23-7.74s-1.36-5.77-3.13-8.26c-1.56-2.18-3.29-3.77-6.08-2-1.57,1-3,1.11-4.07-.54s-1.64-3.86-.15-5.37c5.65-5.67,12.62-9.33,20.08-12,2.4-.87,2.36,1.2,2.37,3.1C1095.81,1302.25,1098.13,1310,1097.07,1317.65Zm89.64-71c-1.46,1.26-3,2.49-4.54,3.6-2.13,1.51-4,4.52-6.41,4.24-3.6-.43-.81-4.42-2.24-6.42-1-1.42-1.7-3.1-2.78-4.46-16.5-20.79-30.46-43.38-46.15-64.74-4.16-5.66-7.15-12.54-14.95-14.8-2.41-.69-3.35-3.36-.84-5.41a91.64,91.64,0,0,1,9.38-6.79c2.51-1.59,4.4-1.14,4.29,2.43-.09,2.42,1.1,4.4,2.42,6.29q27.42,39,54.84,78a7.68,7.68,0,0,0,5.58,3.52,3.3,3.3,0,0,1,3,2.55A16.44,16.44,0,0,1,1186.71,1246.66Zm58.63-49.3c-2.94,3.41-6.3,4.66-10.12,1.78a201,201,0,0,0-19.52-12.47c-8-4.66-15.9-9.46-23.84-14.21-3.55-.34-3,2.34-3.3,4.42,5.09.44,7.16,3.6,7.49,8.33h0c.37.37.73.71,1.1,1.07s.56.7.83,1c5.43.78,8,4.16,8.72,9.37h0c4.44,1.09,8.28,2.7,7.34,8.46l1,1.2c1.43,3.2,3.52,5.17,7.38,4.27,1.12-.25,2.54-.64,3.24.85.62,1.3,0,2.31-1,3.24a96.16,96.16,0,0,1-12.37,10.75c-1.13-6.67-5.63-10.69-9.66-15.22-18.32-20.6-36.38-41.42-54.46-62.22-2.6-3-5.12-5.69-9.36-6.16-2.85-.32-3.13-1.83-1.21-3.88,1.43-1.54,2.75-3.19,4.22-4.7,4.22-4.37,6.38-4.37,11.4-1.12,15.76,10.2,30.65,21.73,47,31.1l2.23-3.47c-10.93-12.56-22.87-24.22-33.27-37.28a5.94,5.94,0,0,0-6.13-2.15,2.07,2.07,0,0,1-2.61-1.23c-.37-1.14.27-2,1.16-2.7,3.37-2.78,6.7-5.66,10.12-8.41,2.27-1.82,3.11-.57,3.14,1.74a9.08,9.08,0,0,0,2.74,6.08c12.68,14.07,24.85,28.65,38.11,42.16,9.87,10,18.53,21.07,28.1,31.31C1246.13,1191.8,1248.3,1193.94,1245.34,1197.36ZM1197,1029.53c-30.57,37.83-65.85,70.54-106.54,97.28-6.38,4.19-12.43,9-19.75,11.58-15.82,13.26-28.24,29.73-42.51,44.44-3.66,3.78-7.47,7.42-11.05,11.28-2.64,2.87-5.3,3.08-8.91,1.7-10.13-3.88-20.42-7.34-30.63-11-3.36-1.21-6.71-2-10.2-.56-11.73,5.32-24.38,7.46-36.82,10.2a448.54,448.54,0,0,1-115.67,9.75c-56.48-2.42-111-13.73-162.92-36.46q-148.18-64.93-228-205.86c-18.53-32.62-32.4-67.27-43.15-103.18-.49-1.62-.43-3.52-2.11-4.59-5.64,26-11.2,52-17,78-3.82,17.26-24.13,26.82-38,18.09-8.91-5.6-13.71-19.53-11-32,6.92-31.3,13.8-62.61,20.86-93.87.66-2.94-.08-4.78-1.73-7.13-7.51-10.64-12.48-21.77-4.39-34.45,1-1.6.2-2.93-.29-4.44-3.26-10.14-.87-19,6.33-26.65a10.12,10.12,0,0,0,3-6.89c.64-10.41,5.68-18.22,15-23.06,2.1-1.1,3.7-2.13,4.15-4.84,2.58-15.58,5.36-31.11,8.1-46.65.62-3.5-.88-5.32-4.08-6.87-10.23-4.92-18.2-11.86-19.59-24.1a25.11,25.11,0,0,1,.31-7.35c1.27-7.17-1.55-13.54-4.37-19.71-1.61-3.5-5.75-4.22-9.33-5.26-36.35-10.43-73.18-19-109.84-28.3-4.06-1-7.88-3-12.15-3.22a9.87,9.87,0,0,0-6.55,1.51c-4.4,3.24-4.17.4-4.28-2.85a23.16,23.16,0,0,1,2.24-10.68c2.22-4.78,5.21-7.83,11.31-7.14,8.85,1,17.29-2.45,26-3.6,4.68-.62,9.55.1,14.09-2,.43-2.09-1.61-2.43-2.74-3.23-10.59-7.52-21.12-15.15-31.94-22.3-3.7-2.43-4.94-5.1-4.1-9.16.88-4.28,1.7-8.55,2.47-12.41,22.88,11.12,47.86,14.21,71.67,21.12a433.73,433.73,0,0,0,46.07,10.64c3.51.61,6.61,2.25,9.78,3.75,2.68,1.27,6.23,1.19,5.46-2.61-2.09-10.46,3-18.12,8.88-26.21-13.91-5.35-27.36-11.44-40.85-17.47-21.6-9.67-43.33-19.08-65-28.61-3.25-1.44-6.34-2.68-10-.83-2.49,1.25-5.14-.38-7.69-.92-1.91-.4-1.93-1.79-1.3-3.27,2.35-5.46,4.64-11,7.14-16.35,1.53-3.28,3.69-3.89,5.6-.3,2.13,4,5.67,5.92,9.62,7.64Q304,473.52,357.47,497.06c3.65,1.61,5.83,1.52,8.22-2.16,4.59-7,11.64-11.26,19.78-14.92-6.54-2.47-11.59-6.24-17.15-9.12-3.86-2-4-3.84-.42-6.52a16.48,16.48,0,0,1,8.27-3c12.67-1.5,17.43-10.49,11.68-21.79-1.51-3-2.79-6-4.15-9.08-1.93-4.34-3.64-8.8-8.82-10.46a5.4,5.4,0,0,1-2.44-1.94c-9.59-13.2-24-19.39-37.83-26.58-15.31-7.94-31.64-14.45-42-29.78-3.36-5-4.19-9.43-2.44-14.67,1.87-5.65,4.15-11.17,6.05-16.82.67-2,1.91-2,3.23-1.37q6.16,2.88,12.18,6.1c2.2,1.18,2.54,3.19,1.67,5.42s-2.13,3.79-4.56,3.69c-2.07-.07-4.42-2-5.53,1.56-1,3.28-.71,6,1.7,8.72a55.54,55.54,0,0,0,19.23,14.3c19.77,8.83,38.91,18.79,54.95,33.71,8.25,7.66,16,15.73,21.69,25.63,5.57,9.73,6.07,19.59,1.23,29.66-3.65,7.58-8.6,14.38-13.91,22.54,11-.83,20.83,1.13,30.58,3.46,7.85-13.54,16.44-26.59,25-39.65,1.24-1.89,2.55-2.77,4.72-2.46a1.59,1.59,0,0,0,1-1.63c-.34-4.05.36-7.53,4.23-9.94,1.38-.85,2.23-2.65,3.2-4.09,5.23-7.77,12-14.56,17-22.18,5.33-8.08,13.87-12.89,18.35-21.37a5.82,5.82,0,0,1,6.68-3c-.47-2.43,1-3.91,2.57-5.37a27.08,27.08,0,0,0,6.1-7.81c1.9-3.86,6.9-4,9.5-7.38,1.17-1.53,3.34-2.49,4.41-4.35,4.07-7.13,12.23-9.57,17.52-15.29.48-.5,1.24-.74,1.67-1.26,6.66-8.11,16.81-11.53,24.46-18.23,9.32-8.16,20.23-13.93,30.76-20.06,7.44-4.34,14.86-9,23-12.29,7.41-3,14.62-6.51,21.72-10.16,5-2.58,10.74-3.66,15.37-6.59,6.61-4.2,14.46-4.71,21.06-8.45,2.69-1.51,5.77-1.54,8.49-2.09,7-1.43,12.43-6.62,20-6.62,6.66,0,12.34-4.63,18.89-5.81,8.16-1.49,16.31-3.06,24.5-4.35,3.26-.51,6-2.49,9.48-2.53,2.39,0,4.4-.1,6.27,1.42l2.11-.21c.38-3.32,2.38-4.44,5.49-4,8.73,1.26,17.21-1,25.78-1.95,3.27-.37,6.16.88,9.31,1,7,.31,13.91-1.28,20.9-1.17,13.49.21,27,.39,40.46.83,2,.06,4.35-4,6,.42.61-.62,1.21-1.25,1.82-1.88a7.14,7.14,0,0,0-.91-2.3c-1-1.12-1.65-2.34-.77-3.64a3.24,3.24,0,0,1,4-1.29,21.46,21.46,0,0,0,4,.5c5.7-4.83,10.71-10.45,17.42-14.82-3.58-2-6.89-1.77-10.07-2.17-1.3-.17-2.92-.36-3.32-2-.36-1.46.79-2.12,1.85-2.83,3.21-2.11,4.32-5.38,4.67-9,4.16-42.09,11.77-83.71,17.4-125.61.29-2.16.21-4-1.38-5.85a11.29,11.29,0,0,1-2.12-4.74c-1.34-5.61-.46-6.61,5.34-6,5,.56,10.08,1.34,15.13,2.06,3.12.44,4.91,1.56,1.84,4.52-3.79,3.65-4.83,8.47-5.51,13.35q-8.58,61-17,121.94c-.22,1.55-.89,3.06-1,4.61-.19,3.8,2.71,5.62,5.93,3.75a142.31,142.31,0,0,1,24.61-11.81c4.75-1.67,6-5.49,7.16-9.58q12-43.55,24-87.07c1.22-4.39,2.28-8.85,3.88-13.12,1.74-4.65,2.21-9-.05-13.67-1.57-3.27-1.08-5.34,3.69-4.14s9.78.55,14.26,3.09c3.34,1.87,4.61,4,3.46,8.11-2.05,7.34-.22,15-.69,22.51-1.57,25.26-1,50.55-.64,76.23,2.87-1.79,2.91-4.72,3.49-7.23,6.14-26.61,12.69-53.12,20.4-79.33.84-2.87.5-5-1.62-7.12-1.41-1.41-2.37-3.43-1.11-5.24s3.17-.41,4.77.08c5.18,1.6,10.37,3.14,15.52,4.82,1.08.35,2.6.24,3,1.79s-1,2.12-2,2.65c-2.75,1.41-3.93,3.9-4.7,6.65q-10.74,38.48-21.45,76.93c-2,7.25-.8,15.13-4.47,22-.78,1.49.42,2.27,1.45,2.93,20.55,13.22,28.56,33.75,32.94,56.41,2.3,11.92,3,24,3.59,36.09,17.2,7.24,33.1,16.83,48.45,27.29,58.36,39.76,107,89,143.83,149.39,28.47,46.69,48.14,97,60.22,150.24q3.53,15.46,6,31.06c.23,1.49.46,3,.67,4.48.2,1.34.39,2.69.57,4s.39,2.92.58,4.39c.22,1.78.43,3.58.63,5.36.07.55.12,1.09.18,1.64.2,1.9.4,3.8.57,5.7s.34,3.77.49,5.66q.12,1.43.21,2.85c.14,1.91.25,3.82.37,5.73q.67,12.24.54,24.59c22.15,3.21,44.28,6.66,66.49,9.43,5.33.66,5.23,4,6.17,7.36,1,3.69-1.79,4.38-4.18,5.47q-33.64,15.27-67.27,30.57c-1,.44-1.83,1-2.73,1.54-1,17.73-3.83,35.22-7.21,52.6A480.54,480.54,0,0,1,1255,939.36,487,487,0,0,1,1197,1029.53ZM1413.52,749.3c-1.37,68.46-12.86,135.08-36.72,199.41-19.93,53.72-47.54,103.22-81.94,149-3.17,4.21-6.32,8.44-9.66,12.51-6.06,7.44-12.22,8.85-18,4.36-6.61-5.11-7.81-14-2.58-21.13,4.54-6.25,9.42-12.25,14-18.44a530.85,530.85,0,0,0,61.82-106.88,555.74,555.74,0,0,0,38.91-132.47,578.81,578.81,0,0,0,6.94-123.42c-.2-3.86-.34-7.72-.39-11.58-.09-9,3.64-13.22,11.76-13.5s14.24,5.08,14.76,13.18C1413.43,716.61,1414,732.94,1413.52,749.3Zm70.62-118.06c-5.05,1.33-9.79,4-15.28,3.37-1.69-.18-3.26-.6-3.53-2.48s-1-4.15.89-5.9c1.33-1.24,4.39-1.07,3.38-4.25s-3.21-5.72-6.58-6.05c-5.7-.56-11.39-1.57-17.2,0-13.85,3.69-27.54,8.09-41.73,10.52a170.91,170.91,0,0,1-28.48,2.06,116.84,116.84,0,0,1-24.93-2.41c-19.3-3.83-27.16-11.6-30.81-30.79-.92-4.81-1.6-9.68-2.23-14.56-.51-4,1-7.06,5.1-8,5.29-1.19,10.68-1.94,16-2.84,3.74-.62,4.59,1.33,3.94,4.57s-2.41,5.76-4.46,8.21c-8.35,10-5.08,18.66,6.56,24.33,12.18,5.94,24.84,6.16,37.58,7.2,6.73.56,12.85-3.13,19.57-3.51,5.77-.32,11.13-3.32,16.6-4.38,17-3.31,34-9.07,51.59-2.88a11.21,11.21,0,0,1,7.16,6.3c2.65,6.08,5,12.29,7.49,18.47C1485.22,629.29,1486,630.75,1484.14,631.24Z"/><path class="cls-1" d="M378.67,854.08q2.13-11,4.24-21.94c.82-4.29,3.22-6.39,7.74-5.72,1.55.23,3.13.22,4.7.31a31.88,31.88,0,0,0,.51,4.17c10.82,42.34,26.14,83,47.39,121.18a435.88,435.88,0,0,0,109.61,130.05c40.76,32.57,85.16,58.78,134.48,76.29a432.34,432.34,0,0,0,110.38,23.22,444.83,444.83,0,0,0,94.61-2.51c14.45-1.93,28.69-4.75,42.91-7.85a7.94,7.94,0,0,1,5.63.25c8.19,2.9,16.28,6.06,24.39,9.15,1.59.61,2.77,1.56,2.13,3.55-11.74,5.31-24.38,7.46-36.82,10.19a448.54,448.54,0,0,1-115.67,9.75c-56.48-2.42-111.06-13.73-162.92-36.46q-148.18-64.93-228-205.87c-18.53-32.61-32.4-67.26-43.15-103.17C380.3,857.06,380.35,855.16,378.67,854.08Z"/><path class="cls-1" d="M259.49,703.63c-1.15,105.27,22.14,201.58,72.35,291.08a536.71,536.71,0,0,0,48.12,71c4.37,5.51,7.22,11.36,3.56,18.38-4.65,8.93-14,10.22-20.57,2.65-10.12-11.71-19.1-24.29-27.82-37.06A583.85,583.85,0,0,1,233.89,750.83,659.72,659.72,0,0,1,234,676c.58-9,6.37-14.69,14.79-14.23,7.72.43,12,4.82,11.78,12.56C260.33,685.06,259.23,695.75,259.49,703.63Z"/><path class="cls-1" d="M1413.52,749.3c-1.37,68.47-12.86,135.08-36.72,199.41-19.93,53.72-47.54,103.21-81.94,149-3.17,4.21-6.33,8.43-9.66,12.5-6.07,7.44-12.23,8.86-18,4.36-6.61-5.11-7.8-14-2.59-21.14,4.55-6.24,9.43-12.24,14-18.43a530.85,530.85,0,0,0,61.82-106.88,556.2,556.2,0,0,0,38.91-132.47,579.42,579.42,0,0,0,6.94-123.42c-.2-3.86-.34-7.72-.38-11.59-.11-9,3.63-13.22,11.74-13.48s14.25,5.07,14.76,13.16C1413.43,716.61,1414,733,1413.52,749.3Z"/><path class="cls-1" d="M871.3,239.45c.79,5.68-4.21,8.76-6.07,13.27-1.11,2.67-3.1,5-4.69,7.45-31-2.29-61.75-.35-92.46,4-46.88,6.61-91.18,21.25-133.38,42.4-64,32.08-116.54,77.79-159.62,134.71-11.25,14.86-21,30.69-30.49,46.7-6.32.63-12.23-2-18.43-2.38a2.71,2.71,0,0,1-2.57-2.79c0-1.89,1.19-3.24,2-4.76,6.94-12.58,15.25-24.31,22.82-36.51a1.59,1.59,0,0,0,1-1.63c2.64-3.48,5.37-6.9,7.91-10.45C470,411.69,484.61,395.58,499,379.29l0,0c2.43-2.26,4.94-4.44,7.27-6.8A429.11,429.11,0,0,1,559.35,327c49.28-35.88,103.89-60.35,162.76-75.67,14.08-3.67,28.38-6.22,42.59-9.25l2.1-.21c11.35-1.07,22.67-2.41,34-3.17C824.33,237.1,847.83,237,871.3,239.45Z"/><path class="cls-1" d="M1039.2,310.32c1.43-7.49.44-15.22,2.34-22.66,17.21,7.23,33.11,16.83,48.47,27.29,58.35,39.76,107,89,143.83,149.4,28.46,46.68,48.13,97,60.21,150.23,7.12,31.41,11.18,63.21,10.78,95.49-7.22.17-14.21-1.24-21.16-3C1279.19,539.76,1185.13,386.8,1039.2,310.32Z"/><path class="cls-1" d="M1070.69,1138.4c.76-4.85,4.54-7.69,7.6-10.85,15.9-16.45,31.08-33.56,46.47-50.47q6.69-7.35,13.39-14.69a12.41,12.41,0,0,0,3.22-5.91c2.74.24,3.91-2.09,5.42-3.6a473.77,473.77,0,0,0,43.53-49.92c37.76-50.09,64-105.75,79.35-166.49,5.21-20.57,9.73-41.29,10.8-62.59,7.47-3.5,14.75-7.47,22.85-9.44-1,17.73-3.83,35.22-7.21,52.6A480.15,480.15,0,0,1,1255,939.36a488.34,488.34,0,0,1-58,90.17c-30.58,37.83-65.86,70.54-106.55,97.28C1084.07,1131,1078,1135.8,1070.69,1138.4Z"/><path class="cls-1" d="M1202.46,1159.83c-10.93-12.57-22.88-24.24-33.27-37.29a5.94,5.94,0,0,0-6.13-2.15,2.08,2.08,0,0,1-2.61-1.22c-.38-1.14.28-2,1.16-2.71,3.38-2.79,6.69-5.66,10.11-8.41,2.28-1.83,3.12-.57,3.15,1.75a9.07,9.07,0,0,0,2.74,6.07c12.68,14.08,24.85,28.66,38.11,42.16,9.87,10,18.53,21.07,28.11,31.31,2.29,2.46,4.47,4.6,1.52,8s-6.31,4.67-10.13,1.79a197.86,197.86,0,0,0-19.52-12.46c-8-4.68-15.9-9.48-23.85-14.22a18.91,18.91,0,0,0-13.1-6.4l9.82,10.84,0,0a34,34,0,0,0,7.54,8.36l0,0,1.14,1.11.83,1a61.81,61.81,0,0,0,8.7,9.37l0,0a43,43,0,0,0,7.35,8.46h0l1,1.2c1.44,3.2,3.53,5.17,7.39,4.28,1.12-.26,2.54-.65,3.24.83.63,1.32,0,2.31-1,3.24a95.41,95.41,0,0,1-12.36,10.76c-1.13-6.67-5.63-10.69-9.66-15.22-18.31-20.6-36.38-41.42-54.46-62.22-2.59-3-5.12-5.69-9.36-6.17-2.85-.31-3.13-1.82-1.21-3.87,1.44-1.54,2.75-3.19,4.21-4.7,4.23-4.37,6.39-4.37,11.41-1.12,15.77,10.21,30.65,21.73,47,31.1l12.69,8.6,1.22-1.29Z"/><path class="cls-1" d="M472.54,1248.58c-4.56-.69-7.35-3-9.91-5.67s-1.17-5,.72-7.38c4.54-5.78,4.33-6.48-1.47-10.73-5-3.63-9.81-7.41-14.65-11.19-5.19-4-9.53-3.2-11.32,3.06-1,3.65-2.35,3.27-4.5,1.66-2.83-2.12-5.08-4.93-8.21-6.74-.84-.49-1.71-1.62-1.06-2.67.32-.51,1.53-.62,2.34-.64,3.64-.08,6.15-2.31,8.71-4.44q37-30.87,74-61.73a34.42,34.42,0,0,1,6.49-4.45c4.17-2.08,7.35,0,10.23,3,2.65,2.77,2,5,.23,8.23-16.87,29.93-33.46,60-50.14,90C472.34,1241.82,471,1244.79,472.54,1248.58Zm36.07-93.68-.83-.52c-1.22.88-2.51,1.7-3.67,2.66-10.09,8.42-20.1,16.93-30.25,25.27-6.35,5.22-13,10.12-19.36,15.3-5.4,4.37-5.41,6.2-.24,10.6q5.61,4.77,11.43,9.27c5.16,4,7,3.57,10.15-2.06,10.08-17.76,18.72-36.3,29.4-53.73C506.56,1159.55,507.5,1157.17,508.61,1154.9Z"/><path class="cls-1" d="M634,1319.63c-4.89.29-7.19,2.85-7.15,6.82,0,3.77-1.86,3.77-4.45,3.22a25.32,25.32,0,0,1-4.44-1.36c-2.21-.92-5.7-.61-6.27-3.17s3.17-1.77,4.56-3.32a36.64,36.64,0,0,0,4.68-7q23.67-42.52,47.31-85.07c4.18-7.46,8.07-8.53,14.45-4.92,2.54,1.44,3.29,3.2,2.82,6-5.44,32.14-9.6,64.47-13.53,96.83-.59,4.83-2.29,9.64-.54,14.56.35,1,0,1.61-1.09,1.86-6.56,1.46-11.89-4-10.17-10.45,1.64-6.15,1.2-6.75-4.93-8.32C647.92,1323.5,640.67,1321.44,634,1319.63Zm38.48-75.7c-2.42,1-2.93,2.76-3.7,4.25-8.41,16.17-17.29,32.07-27.06,47.44a97,97,0,0,0-5.3,10.4c-1.22,2.54-.71,4.68,2.49,5.67,5.19,1.58,10.27,3.49,15.46,5.08,7.93,2.43,9.08,1.5,10.06-6.61,1.9-15.75,4.19-31.46,5.85-47.23C670.9,1256.76,673.91,1250.85,672.45,1243.93Z"/><path class="cls-1" d="M843.88,1363c-3.12.58-5.3,1.17-7.51,1.37-6.52.6-8-.76-8.16-7.32-.17-6-1.26-6.77-7.3-6.5-6.49.28-13,.21-19.5.34s-9.08,3.27-6.83,9.51c1.16,3.22.15,3.77-2.5,3.75-3.68,0-7.35-.18-11-.22-.93,0-1.91-.06-2.27-.92s.39-1.57,1.18-2.07c3.49-2.18,4.14-5.76,4.9-9.44q9.48-46.14,19.12-92.22a50.65,50.65,0,0,1,2.13-7.6,9.44,9.44,0,0,1,13.61-4.58c1.39.8,1.75,1.9,2,3.41,4.6,31.75,9.67,63.43,15.42,95C838.2,1351.53,836.92,1358.42,843.88,1363Zm-31.1-96a21.84,21.84,0,0,0-1.46,3.74c-3.38,20.06-8.13,39.81-13.05,59.53a50.85,50.85,0,0,0-1,6.75c-.38,3.56,1.31,5.16,4.87,5.14,5.62,0,11.24.1,16.86.08,6.21,0,7.38-1.53,6.34-7.69q-4.94-29.28-9.83-58.59A24.68,24.68,0,0,0,812.78,1267Z"/><path class="cls-1" d="M755.32,1273.85c-.33,12.22-3.6,23.18-13.49,31.3a9.49,9.49,0,0,0-3.5,9.4c1.83,11.25,3.49,22.54,6.72,33.52a24.39,24.39,0,0,0,1.39,3.41c3.3,7.12,3.31,7.12-5,6.45-7.62-.61-7.53-.59-6.21-8.26.88-5.18-1.26-10-2.08-15-.94-5.71-2.18-11.36-3.27-17.05-.38-2-1-4.07-3.32-4.12-2.91-.06-1.6,2.54-1.87,4-1.53,8.29-2.74,16.63-4.48,24.87-.74,3.48-.93,6.47,1.33,9.43,1.87,2.45.77,3.54-2,3.17-4-.55-8-1.24-11.94-2-2.15-.38-3-1.93-1-3,3.54-1.86,3.5-5.1,3.87-8.11,3.08-24.9,6.81-49.7,10.87-74.45.74-4.51,1.45-9,2.29-13.5.71-3.83,1.76-7.61-1.63-10.85a2,2,0,0,1-.11-2.87c1.09-1,2.53-.88,4-.67,13.39,2,22.37,9.45,27.26,21.92A30.17,30.17,0,0,1,755.32,1273.85Zm-9.21-6.91a17.65,17.65,0,0,0-6.09-13.47c-1.25-1.12-2.22-3.15-4.24-2.53s-1.77,2.86-2,4.49c-2.18,12.92-4.24,25.87-6.38,38.79-.26,1.57-1,3.33.49,4.4s3.4.54,5-.29c6.42-3.37,10.66-8.47,11.7-15.77C745.25,1277.54,745.57,1272.47,746.11,1266.94Z"/><path class="cls-1" d="M1000.93,1217.69c4.22.21,9.91,2.1,12.18,7.76,10,25,21.4,49.56,28.59,75.65a51.88,51.88,0,0,1,1.59,9.85,17.74,17.74,0,0,1-12.66,18.38q-12.92,4-20.27-7.65a88.64,88.64,0,0,1-8.68-17.37c-7.44-20.76-16.28-41.06-21.9-62.43C976.07,1227.73,984.51,1217.68,1000.93,1217.69Zm32.72,89.65c-.72-3.12-1-6.36-2.2-9.21-9.08-21.63-14.92-44.53-25.72-65.48-2.24-4.36-6.21-5.77-10.43-5.07-4.39.73-6.81,4.21-6.81,8.75a18.7,18.7,0,0,0,1.39,6.09q12.23,33.55,24.55,67.08a19.83,19.83,0,0,0,4.68,7.52c4.86,4.8,10.77,3.53,13-3A58.26,58.26,0,0,0,1033.65,1307.34Z"/><path class="cls-1" d="M462.32,1127.22a.61.61,0,0,0,.75-.45l1-.72,1-.53c.86.07,1.27-.43,1.52-1.16l-.32,0h.32c2.89-1.14,5.74-2.36,7.91-4.72l.05,0c3.14-1.33,5.24-3.92,7.62-6.18h3.85l7.5,8.39c-16.66,6.47-29.94,18.39-44.68,27.92-16.34,10.55-32,22.21-48.36,32.71-3.34,2.13-6.24,3.23-9.23-.21s-4.54-7.22-1.9-11.48c3.33-5.36,6.81-10.64,10.35-15.86q23.34-34.4,46.71-68.76c1.51-2.23,3.72-4.45,2.06-7.62-.38-.74-.12-1.63.5-1.78a3.05,3.05,0,0,1,2.43.39c3.06,2.88,6.07,5.84,8.93,8.92,1,1.13,1.38,2.73-.82,3.1-2.85.48-3.93,2.8-5.29,4.76-4.41,6.34-9.37,12.22-14.28,18.16-4.4,5.3-7.28,11.86-10.82,17.86l-.87,1.38,0,.07a27.91,27.91,0,0,0-4.79,7.12l-1.9,3.2c-5.88,7.61-10.91,15.82-16.84,23.52,7.26-2.37,12.91-6.91,18.53-11.49l0,0a58.86,58.86,0,0,0,12.65-8.55l0,.06a105,105,0,0,0,17.36-11.67l2.51-1.57,1-.77h0l1.38-.93a4.31,4.31,0,0,0,2.88-2.13Z"/><path class="cls-1" d="M630.87,1231.91c.34,13.25-4.75,24.28-16.92,31.65a27.34,27.34,0,0,0-5,3.9,18.25,18.25,0,0,1-16.82,5.34c-3.78-.67-5.75.67-7.16,4.25-3,7.49-6.39,14.79-9.61,22.18a12.74,12.74,0,0,0-1.49,6.58c.34,3.11-.69,4.21-3.8,2.74-2.83-1.35-5.87-2.29-8.66-3.72-3-1.53-3.74-3.78-.78-6.11,3.77-3,5.37-7.14,7.17-11.37q16.89-39.64,34-79.18c1.13-2.62,2.17-5.27,1.07-8.11-1.53-4,.8-4,3.3-3C617.46,1201.51,632.65,1213.57,630.87,1231.91Zm-10.81-1.45c-.52-3.08-.53-6.87-2.5-10.1-1.15-1.89-2.31-4.4-4.88-4.28s-2.87,2.8-3.69,4.64c-5.46,12.33-10.83,24.68-16.25,37-.69,1.57-2.2,3.17-.79,4.83s3.57,1,5.39.35C608,1259.34,620.2,1242.09,620.06,1230.46Z"/><path class="cls-1" d="M948.62,1314.3c-.07-13.21-4.38-25.49-8.2-37.89-2.91-9.43-4.89-18.9-3.06-29,1.07-5.83,3.93-9.56,9.21-11.73a29,29,0,0,1,5.39-2.06c2.33-.45,4.67-4.09,7-.93a13.9,13.9,0,0,1,2.26,11.48c-.73,3-3.22,2.58-5.56,1.45-5.42-2.59-6.51-1.91-7.68,3.76s0,10.7,1.9,15.92c6.94,18.89,11.58,38.23,10,58.58a91.23,91.23,0,0,1-1.36,10.95c-2.13,10.66-8.57,17.39-19.09,20.13a56.57,56.57,0,0,1-6.71,1.24c-3.73.51-8.28,2.83-11-.22-3.35-3.79-3.67-9.34-4.2-14.41-.29-2.69,1.63-2.7,3.47-2.53,2.77.26,4.78,2.06,6.94,3.55,6.4,4.41,12.8,2.76,15.95-4.3A55.79,55.79,0,0,0,948.62,1314.3Z"/><path class="cls-1" d="M528.67,1271.66c2.07.26,3.86-1,5.77-1.82,1.32-.58,2.82-1.2,4-.15s.4,2.53-.27,3.81c-7.33,14.09-8.54,13.82-20,5.69-5.19-3.68-11.32-5.55-16.8-8.69-3.36-1.92-5.22-3.69-.59-6.51,3.19-1.94,5.34-5,7.13-8.3,13.54-24.59,27.71-48.79,43.27-72.17a25,25,0,0,0,4.08-11.28c.36-3.47,2.33-4,5.17-2.69a17.31,17.31,0,0,1,2.72,1.6c2.71,1.93,6.79,3.39,7.74,6,1.52,4.19-4.1,4-6.24,6.09-6.42,6.33-9.64,14.61-14.35,22-10.88,17-21.72,34-30.17,52.36C517,1264.42,520.77,1271.49,528.67,1271.66Z"/><path class="cls-1" d="M1188.37,1244.66a14.52,14.52,0,0,1-1.67,2,56.31,56.31,0,0,1-4.53,3.6c-2.13,1.51-4,4.53-6.42,4.23-3.59-.43-.8-4.41-2.23-6.41-1-1.42-1.7-3.1-2.78-4.46-16.49-20.79-30.46-43.38-46.15-64.74-4.16-5.66-7.14-12.54-14.95-14.8-2.4-.69-3.35-3.36-.84-5.41a91.64,91.64,0,0,1,9.38-6.79c2.52-1.59,4.4-1.14,4.28,2.44-.07,2.41,1.11,4.4,2.43,6.28q27.42,39,54.84,78a7.68,7.68,0,0,0,5.58,3.52A3.33,3.33,0,0,1,1188.37,1244.66Z"/><path class="cls-1" d="M876.39,1364.43c-2.69,0-4.73-.26-2.91-2.81,2.72-3.79,2.6-7.81,1.94-12.08-3.12-20.35-3.43-40.94-5.27-61.39-.83-9.1-1.52-18.2-2.14-27.31-.18-2.68-1.47-4.53-3.18-6.41-1.43-1.56-2.46-3.69-1.61-5.77s3-1.3,4.7-1.45c3.32-.28,6.63-.68,10-.89,2-.12,3.8.32,2.27,3-2.46,4.25-1.89,8.74-1.51,13.34q3.66,43.85,7.09,87.72c.24,3,.44,5.77,3.16,8,2.1,1.69,2.07,3.72-1.23,4.29C883.67,1363.27,879.68,1363.89,876.39,1364.43Z"/><path class="cls-3" d="M764.7,242.06c-14.21,3-28.51,5.58-42.59,9.25C663.24,266.63,608.63,291.1,559.35,327a429.11,429.11,0,0,0-53.12,45.54c-2.33,2.36-4.84,4.54-7.27,6.8-.51-2.45,1-3.94,2.55-5.41a27.32,27.32,0,0,0,6.12-7.81c1.89-3.87,6.9-4,9.49-7.39,1.17-1.53,3.34-2.48,4.41-4.34,4.08-7.13,12.23-9.57,17.53-15.29.46-.5,1.23-.74,1.66-1.26,6.66-8.1,16.8-11.53,24.46-18.23,9.32-8.16,20.23-13.93,30.76-20.06,7.44-4.34,14.87-9,23-12.29,7.41-3,14.62-6.51,21.73-10.16,5-2.57,10.74-3.66,15.36-6.6,6.6-4.2,14.46-4.7,21.06-8.43,2.69-1.52,5.78-1.54,8.5-2.1,6.95-1.43,12.42-6.61,20-6.62,6.66,0,12.34-4.63,18.89-5.82,8.16-1.48,16.31-3,24.5-4.34,3.26-.51,6-2.49,9.49-2.53C760.82,240.61,762.83,240.54,764.7,242.06Z"/><path class="cls-1" d="M1098.07,1295c-2.26,7.29.06,15.07-1,22.7-.08.51,0,1-.12,1.56-.68,3.43-1.12,8.37-4.68,8.53-3.38.14-2.54-4.92-3.23-7.74s-1.35-5.77-3.13-8.25c-1.56-2.19-3.29-3.78-6.07-2-1.57,1-3,1.09-4.08-.54s-1.64-3.87-.15-5.37c5.65-5.68,12.62-9.34,20.08-12C1098.1,1291,1098.06,1293.06,1098.07,1295Z"/><path class="cls-3" d="M1329.48,308.38c-2.11-.23-4.21-.54-5.83-2.09-6-5.67-12.09-11.18-17.35-17.55-2.08-2.51-3.25-5.18-.08-7.71s5.65-1.31,8,1.55c4,4.7,8.08,9.26,12.3,13.72,3,3.16,5.28,6.45,4.24,11.09Z"/><path class="cls-3" d="M871.3,239.45c-23.47-2.49-47-2.35-70.47-.77-11.36.76-22.68,2.1-34,3.17.39-3.32,2.39-4.44,5.5-4,8.73,1.26,17.22-1,25.78-1.94,3.27-.38,6.17.86,9.31,1,7,.31,13.91-1.28,20.9-1.17,13.49.22,27,.39,40.45.82,2,.07,4.37-3.95,6,.43A3,3,0,0,1,871.3,239.45Z"/><path class="cls-3" d="M499,379.29c-14.39,16.29-29,32.4-41.63,50.14-2.54,3.55-5.27,7-7.91,10.45-.33-4.05.36-7.54,4.23-9.94,1.39-.85,2.23-2.65,3.2-4.09,5.24-7.77,12-14.57,17-22.18,5.34-8.08,13.88-12.9,18.36-21.38A5.84,5.84,0,0,1,499,379.29Z"/><path class="cls-3" d="M448.44,441.51c-7.57,12.2-15.88,23.93-22.82,36.51-.84,1.52-2.06,2.87-2,4.76-1.38,1.76-2.94,2.43-4.89.83,7.85-13.52,16.44-26.57,25-39.64C445,442.08,446.28,441.2,448.44,441.51Z"/><path class="cls-3" d="M423.23,1153.76c-5.62,4.58-11.27,9.12-18.53,11.49,5.93-7.7,11-15.91,16.84-23.52,2.22,2.26.18,4-.82,5.77-.38.67-1.63.83-2,1.5-1.07,1.82-3.95,3.45-2.58,5.6,1,1.63,3.33-.49,5.1-.73C421.88,1153.78,422.56,1153.79,423.23,1153.76Z"/><path class="cls-3" d="M1188.57,1176.9l-9.82-10.84a18.91,18.91,0,0,1,13.1,6.4C1188.3,1172.12,1188.86,1174.83,1188.57,1176.9Z"/><path class="cls-3" d="M453.16,1133.65a105,105,0,0,1-17.36,11.67c0-.69-.27-1.88,0-2C441.76,1140.42,444.81,1132.22,453.16,1133.65Z"/><path class="cls-3" d="M1202.46,1159.83l11.68,10.77-1.22,1.29-12.69-8.6Z"/><path class="cls-3" d="M882.92,228.38l-6.35,6.73a7.23,7.23,0,0,0-.92-2.29c-1-1.13-1.65-2.36-.78-3.65a3.28,3.28,0,0,1,4-1.29A21.25,21.25,0,0,0,882.92,228.38Z"/><path class="cls-3" d="M435.84,1145.26a58.86,58.86,0,0,1-12.65,8.55C426.08,1149,429.54,1145,435.84,1145.26Z"/><path class="cls-3" d="M493.55,1121.85l-7.5-8.39C492.47,1114.42,494.67,1116.89,493.55,1121.85Z"/><path class="cls-3" d="M1206.69,1196.7a61.81,61.81,0,0,1-8.7-9.37C1203.41,1188.12,1206,1191.51,1206.69,1196.7Z"/><path class="cls-3" d="M1214.06,1205.18a43,43,0,0,1-7.35-8.46C1211.15,1197.81,1215,1199.42,1214.06,1205.18Z"/><path class="cls-3" d="M1196.06,1185.23a34,34,0,0,1-7.54-8.36C1193.65,1177.3,1195.72,1180.48,1196.06,1185.23Z"/><path class="cls-3" d="M482.2,1113.47c-2.38,2.26-4.48,4.85-7.62,6.18C474.91,1114.87,477.42,1112.76,482.2,1113.47Z"/><path class="cls-3" d="M474.53,1119.68c-2.17,2.36-5,3.58-7.91,4.72C467.24,1119.44,471,1119.76,474.53,1119.68Z"/><path class="cls-3" d="M423.44,1138.53a27.91,27.91,0,0,1,4.79-7.12C428.55,1135.07,428.17,1138.26,423.44,1138.53Z"/><path class="cls-3" d="M466.62,1124.36c-.25.73-.66,1.23-1.52,1.16C465.27,1124.69,465.61,1124.09,466.62,1124.36Z"/><path class="cls-3" d="M458.05,1130.37l-1.38.93Z"/><path class="cls-3" d="M428.28,1131.34l.87-1.38Z"/><path class="cls-3" d="M462.32,1127.22l-1.39,1Z"/><path class="cls-3" d="M1197.16,1186.29l-1.14-1.11Z"/><path class="cls-3" d="M464.07,1126.05l-1,.72Z"/><path class="cls-3" d="M1215.07,1206.38l-1-1.2Z"/><path class="cls-3" d="M456.65,1131.31l-1,.77Z"/><path class="cls-3" d="M659.21,402.12c-.22-7.95-1.29-16.1,0-24.31,3.15-20.58,13.45-37.13,30-48.94,11.31-8.07,25.34-8.77,39-7.15,17,2,30.63,10.56,41.91,23.09,25.45,28.25,46.92,59,59.54,95.29,1.78,5.12,3.46,10.28,5.32,15.37a12.74,12.74,0,0,0,3.46,5c0-2.29.12-4.58,0-6.87-2.55-41.86-1.82-83.59,5.53-125,5.09-28.66,12.87-56.47,30.23-80.51,21.88-30.29,52.09-47.53,88.35-54.12,24.27-4.42,49.49,10.16,59.49,34,10.3,24.59,13.06,50.44,10,76.88-3.94,34.17-15.8,66.35-25.18,99.14-4.18,14.64-9.33,29-14,43.49a16.4,16.4,0,0,0-.34,2.48c3.72-1.07,6-3.53,8.43-5.56,12.81-10.53,27.33-13.84,43.44-10.33,11.74,2.55,17.1,9.28,17.87,21.42.57,9-2.27,16.95-6.73,24.47-13.07,22-29.24,41.62-46.75,60.19-19.74,20.94-40.29,41.07-61.41,61,2.87,1.55,4.84-.36,7-1.36,67-30.73,134.05-32.93,200,2.25,40.73,21.74,71.7,54.28,94.85,94.2,1.31,2.26,2.81,4.58,3.43,7.07,1.86,7.42,7,9.25,13.92,10.14,31.84,4.07,63.63,8.6,95.43,13,1.64.22,3.25.7,5,1.09-.84,2.63-2.93,3-4.59,3.7q-45.87,20.39-91.82,40.64c-6,2.63-9.5,6.66-10.85,13.1-8,38.15-27.4,70.36-52.76,99.19-10.86,12.34-24.58,21.43-38.64,29.87-1.78,1.07-3.64,1.1-6,1.4,2.87,5.35,5.72,10.51,8.43,15.74,4.69,9,5.6,17.67.9,27.57-4.25,9-7.9,17.89-15.85,24.31-7.4,6-16.44,8.49-25,12-9.65,4-8.31,1.66-6.3,11.3,2.78,13.34,5.88,26.62,8.9,39.91a17.72,17.72,0,0,1-4.46,17q-56.78,61.9-113.37,124c-3.84,4.22-7.41,4.87-12.52,3q-56.16-20.33-112.43-40.37c-17.81-6.37-35.6-12.78-53.46-19-8.07-2.82-12.54-8.3-14.34-16.58-6.16-28.42-12.5-56.8-18.81-85.18-1.48-6.7-2-6.87-8.33-4.14-25.07,10.91-49.95,22.31-76.42,29.6-3.16.87-6.28,1.76-8.85-.91s-1.15-5.51,0-8.34c2.57-6.51,5-13.09,7.57-19.6.92-2.32.95-3.68-2-4.62-19.62-6.31-35.73-18.45-51.13-31.59-3.49-3-5.42-3-8.32.73-5.63,7.32-10.3,15-12.64,24-1.2,4.63-.65,8.6,3,12a16.71,16.71,0,0,1,4.89,9.71c.91,5.66-3.58,9.83-8.93,7.76-17.66-6.82-35.2-13.92-52.72-21.08-4.49-1.83-6.82-5.88-8.69-10.16a1312.38,1312.38,0,0,1-46.75-123.88c-4.38-13.67-8.58-27.41-13-41.54-7.35,4.78-14.91,8.64-23.62,9.84-15,2.06-28.46-2.53-41.49-9-16.22-8-31.89-17-46-28.43-1.45-1.18-2.59-2.07-4.51-.53-5,4-11,4.19-17,3.58-6.65-.68-8.19.32-9.56,6.66q-11,50.85-21.9,101.73a23.3,23.3,0,0,1-13.49,17.08c-8.67,4.06-18.07.68-22.12-8a31.3,31.3,0,0,1-2.22-20.53c7.08-32,14.06-64,21.32-96,.81-3.6-.13-5.48-2.74-7.59a21,21,0,0,1-3.44-28.8c1.47-2,2.48-3.24.58-5.82-5.6-7.54-2.85-21.14,5.44-25.73,3.71-2.06,4.15-3.85,3.28-7.75-1.79-8.06,4.24-17.56,12.26-19.54,3.8-.93,5-2.86,5.54-6.39,2.85-17.29,5.9-34.55,9-51.8.73-4.07-.49-6.72-4.3-8.45a78,78,0,0,1-8.75-4.77c-8.33-5.09-12.28-12.64-10.69-22.23.86-5.17-.18-9.69-1.76-14.31-1.86-5.47-2.93-10.88.21-16.24,1-1.77,0-3-.87-4.27-5.95-8.95-6-18-.51-27.2a16.58,16.58,0,0,0,2-12.63c-1.4-6.28-1.56-12.55,3.8-17.49,1.86-1.71,1.47-3.93,1-5.93-1.72-7.84,2.31-14.16,5.71-20.41,1.15-2.12,4.81-2.89,7.34-4.24a7.35,7.35,0,0,0,3.83-4.06c5.95-16.23,17.47-23,35-19.85,14.49,2.59,28.76,6.18,43.34,8.47,12.65,2,21.23,13.25,21.74,26.23.16,4.08,2,7.42,4,10.69,5.3,8.63,7.61,17.36,1.44,26.57a3.94,3.94,0,0,0-.18,4c2.51,6.21,1,12-1.73,17.76-.67,1.41-1.77,2.68-1.32,4.41,3.28,12.7-.24,25.15-1.69,37.6-3.18,27.37-10.3,54-15.61,81-1.44,7.27-2.11,14.65-.6,22,1.09,5.3.67,10.5-.15,15.7-1.08,6.83-5.15,11.46-11.55,13.8-5.58,2-10.37-.21-13.63-5.93-4.2-7.36-5.31-15.57-6.1-23.77-.92-9.46-.8-18.88,1.79-28.21,2.16-7.82-1.2-15.19-8.06-19.45-2.09-1.3-2.19-.08-2.51,1.53-2.78,13.92-5.53,27.84-7.3,41.93-.81,6.44-1.38,12.92-2.14,19.37a10,10,0,0,0,2.9,8.63,22.73,22.73,0,0,1,6.53,17.73c-.23,4.55,1.12,8.52,4.78,11.11,12.16,8.6,23.64,18.24,37.09,24.91,16,7.93,32.7,11.46,50.47,7.53,7.87-1.74,8.26-2.65,6.63-10.38-3.49-16.64-7.46-33.22-10.1-50-3.69-23.37-2.46-47-1-70.48,2.2-36.19,7.37-71.9,18.66-106.5C535,524.72,561.06,481,599.31,445a31.92,31.92,0,0,1,3.6-3.09,41.81,41.81,0,0,0,17.25-23.93c4.81-16.61,20.05-22.57,36.12-16.06A3.11,3.11,0,0,0,659.21,402.12Zm474.63,480.29c.82-.67.13-1.11-.24-1.6l-1.1-1.1c-3.93-4.88-9.19-8.1-14.54-11-3.94-2.15-5.72-4.61-4.47-9.28,1-3.67,1.11-7.58,1.62-11.38.22-1,.45-1.92.67-2.88,1.3-7.48,2.68-15,2.52-22.59.22-1.56.45-3.12.68-4.68.29-6.35,1.06-12.69.43-19.06.15-1.77.3-3.53.46-5.3-.33-10.69-.3-21.41-2-32-.1-.94-.21-1.88-.31-2.82a75.15,75.15,0,0,0-1.95-13.92,175.06,175.06,0,0,0-5-23.68c-13-48.22-39.77-88.3-73.83-124a7.18,7.18,0,0,0-6.58-2.53c-8.66,1.44-17.33,2.75-25.94,4.41-5.18,1-5.41,1.85-2,5.86,20.26,23.8,35.09,50.73,46.38,79.74,16.63,42.72,24.13,87.11,24.14,132.82,0,10.31.33,20.74-2.54,30.85-2.42.78-4.74.16-7.17-.17-4.58-.61-9.26-2-15.16,0l23.38,3.87,2.81.84,8.62,2.27a274.32,274.32,0,0,1,26.3,10.78l22.5,14.72,1.09,1,1.23.87,1.08,1,1.09.78c0-.23,0-.46.07-.7h-1.25C1135.13,882.53,1135.07,881.89,1133.84,882.41ZM802.08,919c3.11-1.43,5.92-3.13,6.39-7-2.78,1.54-5.49,3.13-7.09,6-.21.25-.66.61-.6.75C801.05,919.37,801.57,919.31,802.08,919Zm19-16.93c5-2.44,8.36-6.86,12.27-10.6q43.54-38.84,87.07-77.71c4.27-3.83,8.49-3.9,13.5-1.73q53.52,23.21,107.13,46.21c3.38,2.82,7.51,4.21,11.53,5.69,8,2.94,15.42,7.52,23.85,9.49,2.13.87,3,3.48,5.43,4,.49,1.87,1,3.72,1.44,5.59,11.61,52.55,23.06,105.14,34.94,157.63,2,8.61.39,15-5.57,21.53-32.67,35.72-65,71.71-97.49,107.63-6.68,7.4-8.2,7.8-17.29,4.44q-47.34-17.46-94.71-34.88-25.65-9.4-51.38-18.58c-8-2.88-13.79-7.61-14.39-16.8-.32-7-2.66-13.69-4-20.51-2.33-11.45-5-22.82-7.64-34.52-2.19,2-2.61,4.3-1.57,6.11,2.81,4.87,2.06,10.44,3.6,15.56,3.42,11.34,4.23,23.34,8.51,34.49.32,7.71,2.74,13.82,10.8,16.8,49.28,18.15,98.46,36.55,147.75,54.66,16.17,5.94,12.76,6.8,24.55-6.3,32.94-36.6,65.36-73.67,98.73-109.89a15.1,15.1,0,0,0,3.85-14q-5.43-24.33-10.78-48.68-11.61-53.07-23.16-106.16c-1.22-5.61-1.59-11.5-5.72-16.06-.7-2.91-3.19-2.35-5.21-2.7-2-3.48-6.08-2.94-9.06-4.52a270,270,0,0,0-27-12.07c-12.15-5.44-24.3-10.85-36.43-16.32q-36.66-16.53-73.27-33.16c-4-1.8-7-2-10.31,1.52-3.93,4.22-8.46,7.88-12.72,11.8l-75.49,69.41c-4.68,3.33-9.23,6.81-12.44,11.72-.18.27-.58.65-.51.81C820.11,902.52,820.62,902.38,821.1,902.08ZM937.58,285.24c4.84-1.84,7.71-6.15,11.54-9.25,18.45-14.88,39.47-25.22,60.93-34.75,2.81-1.25,3.81-2,2-5-8.2-13.69-20-22.17-35.56-25.66-3.35-.76-5.83.06-7,3.61-3.79,11.55-10.21,21.86-15.37,32.76-6,12.59-12.3,25-16.42,38.4l-.62.54.47.11C937.57,285.72,937.57,285.48,937.58,285.24ZM628.79,765.56c-.85,18.82,1,37.5,3.62,56.06,4.83,34.13,15.27,66.94,24.49,100,5.47,19.6,7.54,15.45-8.25,31.18-3.53,3.52-3.21,6,.12,9.13a353.07,353.07,0,0,0,32,26.54c1,.73,2.12,1.32,4.43,2.74a23.61,23.61,0,0,0-1.86-3c-10.43-10.34-11.08-21.86-6-35.25,9.36-24.6,25.53-41.54,51-49.17,11.31-3.4,22.91-5.18,34.6-6.46,2.29-.25,4.82-.26,5.91-2.64,3-6.64,6.07-13.31,7.48-21.32l-18.83,11.75c3,1,5.91-.11,8,2.36-2.38,2.4-5.2,3.06-8.23,3.3-5.42.43-11.25-1.5-16,2.9-.49.46-1.73.34-2.56.17C722.33,890.5,706.28,886.39,692,877c-17.24-11.26-29.49-26.81-39.35-44.49-11.69-21-18.47-43.56-21.88-67.23a53.88,53.88,0,0,0-2-16.25Zm-1,257.13c-1.31-5.81-5.4-9.23-8-13.47-9.66-15.5-17.78-31.9-27.53-47.31-17.1-27-33.33-54.29-44.6-84.47-13.53-36.28-21.4-73.34-20.16-112.12a113.56,113.56,0,0,1,3-24.51C533,731.05,543,722.67,553,722.16c8.94-.45,16.86,5.64,20.66,15.84a68.84,68.84,0,0,1,4,30.54c-1.55,17.33-1.76,34.71-2.14,52.1a146.09,146.09,0,0,0,10.12,56.59c6.35,16.39,14.21,32.12,20.53,48.48a41.5,41.5,0,0,0,22.39,23.87c4.68,2.15,8.31,1.93,11.66-2.16a39,39,0,0,1,6-6c4.56-3.55,5.17-7.69,3.48-13.07a812.74,812.74,0,0,1-24.39-96.29,341.42,341.42,0,0,1-2.83-103.77c1.69-13.89,5.25-27.48,15.31-37.94,19.43-20.22,42.72-34.3,70.17-40.48,17.93-4,35.67-2.69,52.05,6.74,22.8,13.13,36.85,33.38,44.56,57.85,10.32,32.78,9.77,66.07,1.37,99.2-9,35.46-22.5,69.4-35.52,103.48-15,39.16-30.28,78.19-45.39,117.3-.59,1.52-2.22,3.29-.75,4.79,1.21,1.23,3-.07,4.46-.47,22.42-6.21,43.52-15.78,64.7-25.18,6.54-2.91,7.34-4.63,5.75-11.43q-8.45-36.08-17-72.15c-1.35-5.66-.27-10.14,4.23-14.16,17.28-15.43,34.37-31.07,51.57-46.58,3.17-2.86,7.35-5.16,4-10.51-.36-.58.13-1.7.25-2.57,2.66-18.76,4.87-37.54,4.93-56.56.09-32.84.84-65.7-5.57-98.16-4.53-22.89-11.29-44.92-25.24-64.1-20-27.5-46.78-41.84-81-40.8-22,.67-42.22,7.91-61.89,17.29-34.64,16.53-59.07,42.67-74.4,77.63-2.6,5.94-3.43,6.47-9.57,4.1a80.3,80.3,0,0,0-34-5.42c-16.29,1-29.75,7-37.62,22-6.07,11.56-11.62,23.78-9,37.19a1176.56,1176.56,0,0,0,28,114.38c14,46.61,31.79,91.83,50.22,136.82,2,4.8,4.6,8.36,9.85,10s9.95,4.43,15.09,6.17S621.75,1022,627.8,1022.69Zm-12-373.23c1.18-.17,1.63-.09,1.83-.28,1.66-1.56,3.35-3.09,4.9-4.76,29-31.39,64.28-50.45,107.16-54.79,24.53-2.48,47.12,2.13,67.18,17.12,21.81,16.31,35.17,38.38,43.47,63.79,13.1,40.08,13.52,81.49,12.33,123-.57,20-2.12,40-4.53,59.86-.17,1.46-.75,3.45.9,4.27,1.49.74,2.46-1.1,3.41-1.94,12-10.58,23.83-21.3,35.8-31.89a8.79,8.79,0,0,0,3.23-7.29c-.11-13.75-2.56-27.27-3.91-40.89-2.83-28.47-5.88-56.92-8.94-85.36-1.95-18.15-3.07-36.47-6.79-54.32-8.24-39.45-20-77.84-37.94-114.08-12.6-25.45-28.46-48.37-52.08-65.09-19.65-13.91-41.18-24-63.68-32.29-3.92-1.44-6.82-.56-9.09,2.84-1.07,1.6-2.22,3.16-3.28,4.77-35.89,54.13-62,112.7-79.87,175.07A431.22,431.22,0,0,0,615.81,649.46Zm19.33,86.63c-2.06,26.28,7.9,65.83,21.9,91.42,11.65,21.28,27.06,38.32,49.24,48.69,34.29,16,72.36-.77,83.65-36.86,1.83-5.84,3.47-11.75,5-17.68,5.34-21.32,9.56-42.8,8.53-64.95-1.18-25.53-7.87-49.09-25-68.81-15.28-17.55-33.75-28.68-57.79-27-31,2.2-56.51,16.25-78.05,38.08-2.48,2.52-3.61,5.92-4.47,9.39C635.79,717.5,636,726.84,635.14,736.09ZM937.8,1126.47a23.29,23.29,0,0,0-.69-5.46q-9.14-39.91-18.05-79.87c-5.23-23.56-10.2-47.19-15.42-70.75Q895,931.18,886,892c-1.68-7.3-2.25-14.95-5.79-21.75-2.85-5.48-5.05-5.85-9.57-1.66-4.12,3.82-8,7.91-12.13,11.68-15.55,14.15-31.18,28.2-46.76,42.32-2.9,2.63-4.11,5.57-3.1,9.82,3.84,16.15,7.25,32.41,10.87,48.62,9,40.13,18,80.24,26.85,120.41,1.17,5.32,4.1,8.19,8.92,9.94,10.88,4,21.71,8.06,32.56,12.1,13,4.82,26,9.55,38.93,14.52,3.87,1.48,6.4.59,8.25-3C936.45,1132.25,938.28,1129.58,937.8,1126.47Zm17.47-193.2c-2.36-3.48-4.27-6.14-6-8.9Q929,892.63,908.86,860.86c-1.62-2.56-3.1-5.08-6.94-4.37-5.69,1-11.44,1.83-17.17,2.67-4.32.64-4.84,2.84-2.62,6.18,2.68,4,4,8.54,5,13.19q16.8,76,33.63,152.06,10.2,46,20.51,91.92c1.09,4.89,1.76,9.73-1.6,14.12-1,1.35-2.93,2.6-1.92,4.51s3.24,2,5.14,2a20.25,20.25,0,0,0,5.19-.67q12-3,23.94-6.12c7.48-2,8.07-3.76,3.23-9.77-5.53-6.87-10.43-14-12.39-22.89q-17.07-77.6-34.37-155.15c-1.4-6.33-2.79-12.67-4.13-19-.34-1.61-.32-3.27,1.58-4s2.3,1,3,2.12q4.85,7.2,9.67,14.42c7.65,11.35,15.28,22.71,23,34,1.23,1.79,2.24,4.87,4.6,4.41,2-.4,1.38-3.59,1.71-5.48,3-17.63,5.85-35.3,8.75-52.95.27-1.64-.24-4.07,2.07-4.24,2.46-.17,2.73,2.26,3.16,4.12q1.63,7.18,3.25,14.37c10.55,47.42,21,94.87,31.7,142.27,3.12,13.78,6.27,27.37,1.15,41.4-1.58,4.32,1.35,5.89,5.19,5.09,7.71-1.6,15.38-3.45,23-5.36,3.27-.81,5.15-3.5,7.06-6,.89-1.18,1-2.19-.51-3-5.47-2.68-6.43-7.92-7.57-13.12-15-68.16-30.06-136.28-44.76-204.5-3.2-14.84-9-29.28-7.93-44.9.19-2.74-1.58-3.29-3.74-3-4.71.52-9.39,1.41-14.11,1.69-5,.29-7.06,2.76-7.68,7.52-2.67,20.18-5.42,40.35-8.38,60.48C957.8,920.68,957.74,926.68,955.27,933.27ZM1111,1045.47a42.66,42.66,0,0,0-1-7.23q-6.55-28.65-12.84-57.34-10-45.58-20-91.19c-1.09-5-3.64-8.67-8.32-10.75-21.79-9.64-43.56-19.31-65.4-28.83-4.9-2.14-6.78-.68-6.79,4.71a33.67,33.67,0,0,0,.41,7.32c8.37,37.73,16.89,75.42,25.25,113.15,6,27.11,11.78,54.27,17.77,81.38,3.14,14.18,6.6,28.28,9.74,42.45.89,4,2.79,6.82,6.75,7.89,3.65,1,5.3-2,7.3-4.12,1.44-1.52,2.71-3.21,4.12-4.77q19.9-22,39.83-44A11.08,11.08,0,0,0,1111,1045.47Zm-73.79,84.4c-4.27,1.44-7.9,1.21-11.5,1.57-9.25.92-13.2-3.13-12-12.24a41,41,0,0,1,.83-4.11,67.27,67.27,0,0,0,.18-30.11c-2.57-11.44-5.31-22.84-7.83-34.29-6.23-28.36-12.36-56.75-18.58-85.12-1.88-8.54-3.94-17.05-5.94-25.56-.34-1.46-.14-3.69-2.23-3.6s-1.22,2.56-2,3.82a4.45,4.45,0,0,0-.35,1.53q-3.15,18.86-6.29,37.72c-.54,3.28.9,7.9-3.29,9.07-4.87,1.35-6.22-3.78-8.24-6.7-7.89-11.38-15.46-23-23.14-34.52-.85-1.27-1.44-3.35-3.35-2.65s-1,2.58-.7,4.06q7,32,14,64.08c5.41,24.77,10.91,49.53,16.16,74.33,3.13,14.76,7.52,28.78,18.25,40.12,3.09,3.26,2.82,7.41-.47,10.9a18.22,18.22,0,0,1-9.37,5.55c-2.91.64-5.82,1.3-8.67,2.16-1.76.53-4.45.7-4.45,2.92,0,1.78,2.5,2.13,4.12,2.73,12.66,4.72,25.42,9.19,37.94,14.24,4.48,1.81,7,.68,9.9-2.66,6.84-8,14-15.63,21-23.52A27.6,27.6,0,0,0,1037.2,1129.87ZM895.4,418.51c2.47-.18,3.19-1.82,4.23-2.84,7.87-7.75,15.54-15.7,23.45-23.4,28.22-27.46,57.46-53.64,92.47-72.43,3-1.61,4.46-4.12,4.76-7.62.63-7.34,1.69-14.64,2.35-22,1.45-16.12-.51-31.73-7.11-46.74-4.8,2.58-9.21,5.11-13.75,7.37-24.85,12.36-47.51,27.7-66.41,48.26-4.91,5.35-9,11-11.26,18.1-5.39,17.2-11.29,34.24-16.43,51.51C902.86,385,898,401.27,895.4,418.51ZM1121.45,606c31.51,42.19,49.08,89.19,57.73,139.86s7.82,100.87-9.89,151a115.63,115.63,0,0,0,28.35-20,30.31,30.31,0,0,0,8.44-14.26c6.63-24.19,9.2-48.9,10.09-73.87,1.87-52.6-10-101.66-37.41-146.79a40.33,40.33,0,0,0-14.5-14.22c-6.22-3.6-12.34-7.37-18.53-11C1138.36,612.22,1130.86,608.16,1121.45,606Zm-240.5-79c3.64-4.8,6.44-8.83,9.59-12.58,30.57-36.46,62.77-71.39,97.68-103.77a35.47,35.47,0,0,0,10.36-16.71c3.85-13.63,8-27.19,11.95-40.8,2.42-8.34,5.16-16.62,6.53-26-5.79,3.06-10.11,6.87-14.68,10.3a761.56,761.56,0,0,0-107.75,97.95,19.16,19.16,0,0,0-4.67,9.76c-3.56,19-6.11,38.08-8,57.27C881.14,510.12,879.67,517.93,881,526.93Zm-311.41-30.3c-35.87,37-67.79,154.2-60.37,219.25.31-.14.78-.2.91-.45.75-1.38,1.44-2.8,2.09-4.23,6.05-13.36,15.68-22.69,30.06-26.6a69.5,69.5,0,0,1,30.22-1.84c6.89,1.18,7.44.45,6.08-6.25-2.72-13.4-6.29-26.65-7.63-40.29a16.87,16.87,0,0,0-6.64-12.48c-13-10.38-14-28.48-2.28-40.26a16,16,0,0,0,4.9-10.65c1.11-15,1.2-30.18,4.72-45a12.86,12.86,0,0,0,.15-5.24C570.1,514.07,568.74,505.49,569.54,496.63Zm3.07,67.77c0,1.06,0,2.11,0,3.16-.17,7.84-.17,7.84,7.72,7.83,12.91,0,24.59,11.63,25.1,25,.58,15.18-8.57,26-24.42,28.52-3.53.55-5.71,1.59-5.06,5.58,2.68,16.26,5.74,32.44,10.49,48.26a6.85,6.85,0,0,0,2.83,4.3c2.25,1.32,4.82,2.39,6.34-.65,3.2-6.4,6.72-12.73,6.73-20.26a229.31,229.31,0,0,1,1.85-24.11,441,441,0,0,1,22.38-97.7,459.68,459.68,0,0,1,49.26-100.45c4.41-6.76,9-13.39,13.47-20.12,3.13-4.75,2.71-5.85-2.67-6.77-4.65-.79-9.34-1.55-14-1.9-6.58-.49-6.76-.15-6.13,6.58,1.22,13.05-3.06,21.69-14,26.83-10.61,5-19.31,1.62-26.62-6.91-2.24-2.61-4.61-1.6-6.86.41-6.93,6.21-13.93,12.34-20.88,18.51a23.51,23.51,0,0,0-6.22,9c-1.4,3.48-1.15,5.15,3.28,4.74,5.79-.53,11.62-.3,17.13,1.89,14,5.55,21.95,22.4,18,37.37-3.77,14.35-19.27,26.43-34,23.91a39.43,39.43,0,0,1-15.85-6.76c-2.78-1.92-4-1.26-4.42,1.82C574.79,543.13,572.78,553.66,572.61,564.4ZM988,423.51c-1,1-1.68,1.5-2.27,2.11-13.62,14.17-27.32,28.27-40.84,42.52q-29.9,31.51-59.6,63.22c-3.19,3.38-5.48,7.12-5.72,12-.79,16.66-1.3,33.33-.9,50,0,1.23-1,2.78.8,3.81,6.52-5.46,10.93-12.84,17.07-18.59,13.74-12.88,29.27-23.49,44.41-34.59,3-2.24,5.59-4.67,7.06-8.26,3.19-7.78,6.57-15.49,9.85-23.24,11.32-26.82,19.51-54.76,29.41-82.09A11.11,11.11,0,0,0,988,423.51Zm19.35,376.58h.21c0-2.29,0-4.57,0-6.86s.12-4.57,0-6.85c-2.08-60.07-24.45-112.18-62.06-158.35-2.67-3.28-5.17-3.69-8.48-1.18a103.18,103.18,0,0,0-18.3,17.38c-4.65,5.77-4.55,7.32,1.48,11.84,14.07,10.53,25.61,23.4,35.69,37.7,25.26,35.86,34.15,76.42,34.61,119.48,0,3.24-4.34,6.3-1,9.14,2.57,2.18,6.27,3,9.46,4.46,1.12.5,2.23,1,3.35,1.54,3.7,1.72,5.12.47,5.05-3.52C1007.23,816.61,1007.32,808.35,1007.32,800.09ZM884.12,419c.57-1.8,1.27-3.57,1.67-5.41a727.81,727.81,0,0,1,30.56-104.3,13.45,13.45,0,0,0-1.06-12.51c-3.78-6.35-6.18-13.28-8.19-20.4-3.5-12.43-1.77-25.14-2.42-37.72-.06-1.18.21-2.89-.43-3.41-1.43-1.14-2.51.61-3.54,1.35-11.45,8.22-18.33,20.15-25.55,31.78a8.41,8.41,0,0,0-.78,4.07c-1.18,35.46-2.93,70.92,1,106.33C876.92,392.35,879.07,405.84,884.12,419ZM867,290l-2.86-.1c-19.72,75.6-27.39,151,5.37,225.79a24.2,24.2,0,0,0,1.79-7c1.84-17.09,2.91-34.28,6.3-51.15A72.2,72.2,0,0,0,876.1,423c-7.58-27.26-11.78-55.15-11.15-83.64C865.31,322.9,864.55,306.41,867,290ZM580,889.92c-1-3.93-1.84-7.13-2.65-10.33-5.14-20.2-11.41-40.25-10.73-61.4.52-16.31,1.65-32.61,2.88-48.88.69-9.1.36-17.88-4.1-26.08-3.13-5.76-9.9-8.67-17.09-7.47-6.42,1.08-10.68,5-11.33,11.34a259.76,259.76,0,0,0,1.44,66.15c2.78,18.14,10,35,14.65,52.56C556.79,880.05,566.21,886.38,580,889.92Zm373.38,29.74c1.58-10.4,3.16-20,4.48-29.62,1.93-14,3.54-28.09,5.61-42.09.51-3.39,2-6.85,6.22-7.61,1.45-.26,3.69.52,4-1.56.33-2.25-2.11-2.55-3.58-3.2-13-5.72-26-11.31-39-17-2.74-1.21-4.74-.21-6.64,1.56-3.21,3-6.34,6.06-9.58,9-6,5.42-12,10.74-17.93,16.17-1,.89-2.34,1.86-1.57,3.54a2.08,2.08,0,0,0,2.72,1c6.89-2.15,10.7,2.22,13.75,7,11.11,17.41,21.87,35,32.93,52.47C946.94,912.71,948.54,916.77,953.33,919.66Zm-162-473.15a202,202,0,0,1,2.89-41.71,14.76,14.76,0,0,0-2.55-12c-11-14.73-22.6-29-36.21-41.55-3.24-3-4.7-2.89-6.6,1.17-6.3,13.43-9.49,27.77-12.94,42.05-2.76,11.48,2.47,22.94,13.14,27.9a244.61,244.61,0,0,1,35,20.21C786.13,444.06,788,446,791.29,446.51Zm-418,124.61c-3.85,0-7.73-.26-11.57.06-5.36.45-10.18,7.78-9.73,14.32.3,4.44,2.72,6,9.92,5.81a147.74,147.74,0,0,1,23.59,1.58c20.4,2.75,40.06,8.54,59.66,14.56,2,.61,3.93,1.53,6.09,1.22,3.71-.53,6.82-2,7.64-6,1.22-6.08-.69-11.23-5.52-13.54A92.57,92.57,0,0,0,441,584.62C418.89,577.69,396.7,571.21,373.24,571.12Zm2.61-26.45c-3.19,0-5,0-6.7,0-8.25.15-13.51,6.05-13,14.32.22,3.66,1.59,5.4,5.54,5.11,8.61-.62,17.17.45,25.71,1.4,22.78,2.53,44.6,9,66.21,16.33,6,2,9.27.08,10.49-6.25,1-5.43-1.57-10.87-6.83-12.83C430.51,552.81,403,546.06,375.85,544.67ZM922.4,292.8c10.66-27,24.21-52.08,38.53-76.75.84-1.44,2.76-2.8,1.71-4.62-1.19-2.08-3.56-1.18-5.3-.87-16.64,2.91-31.63,9.94-46,18.57-2.06,1.24-3.31,3-2.73,5.16,2.71,10.44,1.7,21.3,3.74,31.81C914.16,275.41,916.55,284.48,922.4,292.8ZM380.24,518.66c-5.24.74-11.5,5.64-17.72,10.38-2.08,1.59-1.24,4.62-.52,7s2.8,1.57,4.46,1.68c3.5.24,7,.61,10.49.71,28.21.78,54.86,8.79,81.37,17.47,2.06.68,3.9,1.92,5.71-.11s3.38-4.61,2.2-7.17c-3.18-6.89-6.8-13.76-14.67-16.32C429.32,525.05,406.67,519.78,380.24,518.66Zm245.35-11.93c-.43-15.45-11-25.7-26.13-25.31-14.55.39-25.06,11.11-24.61,25.11.42,13.17,12.89,24,27.18,23.61C614.83,529.79,625.92,518.77,625.59,506.73ZM370.7,598.11c-3.94.49-7.88-.82-11.18,1-2.94,1.61-1.39,5.56-2.85,8.14a13.37,13.37,0,0,0-.67,1.43c-3.08,7-2.07,8.79,5.48,9.17a211,211,0,0,1,45.09,6.89c10.64,2.9,21.38,5.4,32.13,7.87,6,1.38,8.41-.7,8.19-6.53-.09-2.45-.61-4.89-.57-7.32,0-2.77-1.35-4.15-3.74-5C419.16,605.62,395.22,599.9,370.7,598.11Zm569.47-44.23c-1.38-.78-2-.39-2.51,0-17.53,13.51-34.57,27.52-50.32,43.16-10.45,10.39-10.67,21.75-6.42,34.33,2,5.79,7,7,11.34,2.7A80.67,80.67,0,0,0,901,623.6C916.33,601.7,927.78,577.62,940.17,553.88ZM412.65,657c6.28.49,12.14-1.66,18.15-2.74,2.66-.48,5.56-1.34,5-4.82-.6-4,2.08-9.29-4-11.24-21.42-6.84-43.19-12-65.71-13.44-1.73-.12-3.56-.28-5,1.12-4.72,4.74-3.74,13.64,1.93,17.24C378.2,652.74,395.37,655.1,412.65,657ZM729.78,398.76c.29-3.48.49-5.92.72-8.35,1.27-13.56,6-26.16,10.55-38.83,3.17-8.87,2.32-10.13-6.89-12.86-12.56-3.72-25-1.62-37.37.72-2.9.55-2.93,1.89-1.79,4.47a248.53,248.53,0,0,0,20.76,37C719.8,387,723.57,393.21,729.78,398.76Zm-13.5.6a18.69,18.69,0,0,0-1.18-2.81c-10.32-15.48-19.91-31.33-26.39-48.88-1.49-4.05-3.3-1.72-4.85,0A67.83,67.83,0,0,0,667.66,379c-2.12,9.43-2.11,9.57,7.13,12.53C688.11,395.82,701.68,398.88,716.28,399.36ZM579.75,583.71c-12.21,0-19.8,6.94-19.8,18.19,0,10.74,8.7,18.87,20.26,19,10.89.07,19.82-7.4,19.92-16.67C600.26,592,592.06,583.74,579.75,583.71Zm-123.6,52.15c-5.09,5.19-8.19,10.22-9.84,16-2.91,10.17-8.3,17.57-20.25,18.84,8.64,8.9,10.09,19,7.27,29.81-2.5,9.53-2.15,19.13-2,28.77a19.12,19.12,0,0,0,2.38,9.07c1.38,2.49,3.68,3.14,6.29,2.75,3-.46,2.52-2.92,2.68-5a15.1,15.1,0,0,0,.06-3.15c-2.65-21,1.79-41.18,6.33-61.42C451.65,660.12,455.75,649,456.15,635.86ZM1046.2,473.19c-27.43-.59-56.16,21.34-59.65,45.26,11.05-5.67,22.1-10.79,33.42-15.32,3.39-1.36,7.3-2.06,9.67-5A174.19,174.19,0,0,0,1046.2,473.19Zm-223.05,5.36c0-5.37-.44-10.77.11-16.06.69-6.57,1-13.05-2-19.06-5.21-10.51-10.37-21.07-16.82-30.91-.68-1-.78-2.84-2.85-2.75a11.81,11.81,0,0,0-1,2.87c-1.22,12.39-2.44,24.79-2.26,37.27a9,9,0,0,0,3,6.46c6.18,6.21,12.48,12.32,17.34,19.7A4.52,4.52,0,0,0,823.15,478.55Zm-160.7-51.3c.27-8.12-7.92-16.38-16.51-16.68-11.26-.39-20.09,6.05-20.21,14.74s9,17.62,18.16,17.94S662.18,435.56,662.45,427.25ZM961.87,558.09C970.78,554,981,552.16,988,545.15a457.59,457.59,0,0,0,32-35.32c-2.2.2-3.15,0-3.86.38q-17,8.24-33.88,16.63a7.13,7.13,0,0,0-3.08,2.73C974,539.39,967,548.05,961.87,558.09Zm-570-55.79c-4.79,0-8.27.95-11.07,3.75a4.65,4.65,0,0,0-1,4.88c.53,1.82,2.3,1.17,3.62,1.26,3,.19,6,.23,8.93.5,20,1.84,39.34,6.76,58.57,12.28,1.94.55,4.3,2,5.61-.45a5.8,5.8,0,0,0-1.33-6.83,19.25,19.25,0,0,0-11-5.64c-8.31-1.28-16.62-2.57-24.88-4.12C409.74,506.14,400.33,504.06,391.84,502.3Zm942.81,228.11v-1c-12.61-1.77-25.19-3.68-37.82-5.27-7.81-1-15.38-3.65-23.39-3.35-2.5.1-4,.55-3.71,3.56.3,3.67.27,7.37.25,11.06,0,3.5,1.44,4.51,4.94,3.93,8.65-1.43,17.37-2.45,26-3.75C1312.2,734,1323.42,732.15,1334.65,730.41Zm-481-232.47c2.11,29.12,4.16,58.31,16.17,85.58.38-14.94.43-29.8.33-44.67a13.5,13.5,0,0,0-1.28-5.6C863.25,521.75,859.31,509.56,853.62,497.94Zm151.18-40.53c-18.21,12-27,32.71-24.4,57.65C994,501.2,1008.12,467.78,1004.8,457.41ZM718.89,952.13c-7.77.5-14.92,2.62-19.69,9.3a69.29,69.29,0,0,0-8.92,17.81c-1.15,3.31-.56,6,2.76,8.08a151.57,151.57,0,0,0,30.24,14.52c3.4,1.21,5.44,0,6.63-3.08q5.57-14.47,11-29c1.19-3.16.06-4.34-3.24-3.4-6.23,1.76-12.48,3.47-18.72,5.2-1.14.32-2.48,1.32-3.42.18-1.28-1.55.59-2.48,1.28-3.52a70.27,70.27,0,0,0,5.72-10.64C724.22,953.79,723.33,951.83,718.89,952.13Zm399.32-18.36c-8,.09-9.54,2.05-7.79,9.59.76,3.23,1.39,6.48,2.07,9.72,2,9.67,2,9.67,11.33,6.19,6.43-2.4,9.35-7.25,8-13.27C1130.67,940.85,1122.74,933.72,1118.21,933.77Zm-105-459.64a10,10,0,0,0,2.47.11c9.95-3.33,19.89-6.66,30.55-6.94,2.28-.06,3.71-1.44,4.6-3.68,1.62-4.07,1.2-7.52-2.32-10.33-3.73-3-10.15-3.66-13.19-1.19C1027.42,458.47,1020.47,465.79,1013.2,474.13Zm-38.06,28.11c-10.39,7.62-23.7,42.5-18.4,51.89C970.73,539.79,974,521.78,975.14,502.24Zm-144.77-35c-5.9,18.31,5.6,45.74,14.26,49.14C843.94,499,841.49,482.3,830.37,467.2Zm97.32,136.05,42.19-39.69c-7.76,0-14.54,1.45-18.67,8.15-5.54,9-12.44,16.89-19.72,24.49C929.85,597.92,928.08,599.61,927.69,603.25ZM804,950.56l-2.73.54q10.9,48.58,21.79,97.16l2.37-.52Q814.7,999.16,804,950.56ZM929.5,588.76c1.77.22,2.46-.34,3-1,5.29-6.72,10.68-13.35,15.77-20.22,3.43-4.61,2.58-9.71,1-15.26a16.19,16.19,0,0,0-1.3,1.66C941.86,565.41,935.77,576.92,929.5,588.76ZM1030,449.21c-3.86.31-6.71.22-9.4.84-3,.68-7.13.54-8.11,3.81-1.6,5.31-3.66,10.76-2.81,17.37ZM914,632.31c-.3-.34-.6-.69-.89-1l-13.28,12,1.09,1.26C908.69,644.43,909.11,635.76,914,632.31ZM800.42,939.82c.17-7-4.19-13,.1-19.6C795,923,795.15,930.89,800.42,939.82Zm-82,68.06-14.65-6.22-.64,1.5C707.6,1006.3,712.35,1008.75,718.44,1007.88Zm-4.18-599c3.75,1.36,7,2.84,11,2.88C721.7,407,720.36,406.65,714.26,408.9Zm-39-8a20.93,20.93,0,0,0-7.48-2.95c-1-.21-2.12-.55-2.39,1-.23,1.28-.11,2.45,1.44,2.85C669.57,402.5,672.27,403,675.29,400.92ZM818.14,903.63c-3.12,1.44-6.63,2.52-7,7.46C814.49,909.07,817.34,907.42,818.14,903.63Zm-15.71,45.69a10.55,10.55,0,0,0-1.23-8.85C798.8,944.75,798.83,945.06,802.43,949.32Zm-76-537.07c-.11-.1-.23-.29-.34-.29s-.22.19-.33.3l.51.32Z"/><path class="cls-3" d="M935.24,1171.28c-14.22,3.1-28.46,5.92-42.91,7.85a444.83,444.83,0,0,1-94.61,2.51,432.34,432.34,0,0,1-110.38-23.22c-49.32-17.51-93.72-43.72-134.48-76.29A435.88,435.88,0,0,1,443.25,952.08C422,913.87,406.68,873.24,395.86,830.9a31.88,31.88,0,0,1-.51-4.17,28.09,28.09,0,0,0,3-.84c10.51-4,19.24.45,22.15,11.32,18.73,70.15,52.56,132,102.12,185.11,57.89,62.06,127.7,104.06,210.17,124.57a407.69,407.69,0,0,0,145.33,9.8c11.66-1.32,22.5-1,33.25,4.07,6.33,3,13.15,4.85,19.75,7.21C932.89,1168.6,935,1168.72,935.24,1171.28Z"/><path class="cls-3" d="M444.59,488c9.48-16,19.24-31.84,30.49-46.7,43.08-56.92,95.63-102.63,159.62-134.71,42.2-21.15,86.5-35.79,133.38-42.4,30.71-4.32,61.48-6.26,92.46-4-3.06,7.25-6.23,14.46-9.1,21.79-1.16,3-3.13,3.22-5.82,3.14a415.23,415.23,0,0,0-148.94,22.59A422.55,422.55,0,0,0,560.45,385.4,434.34,434.34,0,0,0,466,497.62c-.35.59-.79,1.13-1.48,2.11C459.49,492.88,451.76,490.92,444.59,488Z"/><path class="cls-3" d="M1039.2,310.32c145.93,76.48,240,229.44,244.47,396.79-5.69.76-11.14-1-16.72-1.51-4-.35-4.38-3.26-4.67-6.36-1-10.17-1.38-20.38-2.57-30.55a440.23,440.23,0,0,0-37.59-133c-22.23-48.52-52.79-91.23-90.74-128.71a415.34,415.34,0,0,0-92.46-69c-3.47-1.91-4.66-4.23-3.75-8.12C1036.7,323.39,1037.87,316.84,1039.2,310.32Z"/><path class="cls-3" d="M1280.47,773.88c-1.07,21.3-5.59,42-10.8,62.59-15.39,60.74-41.59,116.4-79.35,166.49a473.77,473.77,0,0,1-43.53,49.92c-1.51,1.51-2.68,3.84-5.42,3.6,2.34-6.92.22-13.6-1.49-20.15-1.15-4.43-.43-7.54,2.73-10.89,37.09-39.3,66.23-83.78,86.75-133.82,3.38-8.26,6.68-16.61,9.29-25.14a341.38,341.38,0,0,1,19.15-48.21,123.45,123.45,0,0,0,11.33-35.94C1270.08,775.74,1275.9,775.64,1280.47,773.88Z"/><path class="cls-3" d="M244.39,567.26c8.36-4.13,16.89-3.37,24.78-5.51,3.27-.89,6.68-1,7.33-5.4s-2.46-5.59-5.44-7.24c-8.14-4.5-15.35-10.28-23.14-17,10.33,1.47,19.33,4.14,28.31,6.86,5,1.54,10.09,3,15.46,2.6a9.24,9.24,0,0,1,4.58,1c11.55,5.27,23.79,8.25,36.18,10.75,7.16,1.45,9.81,6.72,6.67,13.35-3.23,6.85-6.53,13.5-5.28,21.54.53,3.44-2.58,2-4.08,1.64-10.06-2.37-20.05-5-30.1-7.4-14.65-3.5-29.32-7-44-10.26C251.77,571.32,248.74,568.85,244.39,567.26Z"/><path class="cls-3" d="M977,126.42c0,11.73,0,23.46,0,35.19q.06,10,.42,20c.13,3.68-1.43,5.11-5.08,4.72a23.54,23.54,0,0,0-8.87.58c-3.69,1-5.13.12-4.06-4.16,3.15-12.56,6-25.19,9.86-37.55,1.26-4,2.11-8.12,3.16-12.18C973.14,130.49,973.88,128,977,126.42Z"/><path class="cls-2" d="M1228.4,241.14c.42-.11,1.11-.42,1.2-.29.5.66.11,1.12-.56,1.4Z"/><path class="cls-3" d="M1378.22,384.3c-5.4,7-11.86,11.28-17.74,16.18-18.07,15-36,30.23-53.33,46.15-5.2,4.79-7.62,4.56-11.79-1.27-5.33-7.44-8.7-16-13.39-23.8a3.84,3.84,0,0,1-.36-3.52c.35-.93,11-6.66,12-6.38,1.3.36,2.35-.19,3.54-.5,22.32-6,43.52-15.44,65.88-21.31C1367.88,388.58,1371.88,384.92,1378.22,384.3Z"/><path class="cls-3" d="M722.86,84.68a21.51,21.51,0,0,1,5.07,9.1C736.67,120.23,747,146.09,757.1,172c2.95,7.57,1.93,9.67-6.07,11.15-8.43,1.57-16.92,2.83-25.39,4.22-3.8.63-5-.85-5.41-4.82-1.4-13.33,1.77-26.44,1.37-39.7a335.66,335.66,0,0,1,1.46-40C723.58,97.19,721.84,91.4,722.86,84.68Z"/><path class="cls-3" d="M1349.43,527.66c-9,.35-20.47-2.08-31.09-8.24-1-.59-2.63-.73-2.64-2.22,0-1.71,1.71-2.13,2.92-2.61,11.42-4.5,22.84-9,34.32-13.33q31.44-11.91,63-23.62a34.91,34.91,0,0,1,5.53-1.69c1.89-.37,4-2.86,5.55-.91,1.41,1.74.38,4.39-.37,6.56-5,14.47-13.88,25.8-27.28,33.47C1384.86,523.36,1369.37,527.72,1349.43,527.66Z"/><path class="cls-3" d="M406,320.6a19.93,19.93,0,0,1-.39,3.48c-.57,2.12-.36,4.82-3,5.77s-4.12-1.22-5.79-2.67q-19.56-17.1-39.07-34.25c-1.51-1.33-3.94-2.5-3.44-4.91.56-2.7,3.47-2.64,5.51-3.25a21.76,21.76,0,0,1,16.77,1.52A79.63,79.63,0,0,1,397,300.93C402.34,306.31,405.83,312.6,406,320.6Z"/><path class="cls-3" d="M425.9,332.89a11.27,11.27,0,0,1,3,.75c8.26,3.84,15.27,9.24,19.86,17.24a18.88,18.88,0,0,1,1.45,15.72c-1.08,3.39-2.93,4.35-5.72,1.93Q430,356,415.68,343.32c-2.53-2.23-2.24-4.56.17-6.69A13.57,13.57,0,0,1,425.9,332.89Z"/><path class="cls-4" d="M1335.36,291.55a1.92,1.92,0,0,1,2.28,2.18c0,1.65-1.36,1.87-2.55,2.07-1.63.27-2.19-.67-2.11-2.16A2,2,0,0,1,1335.36,291.55Z"/><path class="cls-3" d="M508.61,1154.9c-1.11,2.27-2.05,4.65-3.37,6.79-10.68,17.43-19.32,36-29.4,53.73-3.19,5.63-5,6.08-10.15,2.06q-5.81-4.51-11.43-9.27c-5.17-4.4-5.16-6.23.24-10.6,6.39-5.18,13-10.08,19.36-15.3C484,1174,494,1165.46,504.11,1157c1.16-1,2.45-1.78,3.67-2.66Z"/><path class="cls-3" d="M672.45,1243.93c1.46,6.92-1.55,12.83-2.2,19-1.66,15.77-4,31.48-5.85,47.23-1,8.11-2.13,9-10.06,6.61-5.19-1.59-10.27-3.5-15.46-5.08-3.2-1-3.71-3.13-2.49-5.67a97,97,0,0,1,5.3-10.4c9.77-15.37,18.65-31.27,27.06-47.44C669.52,1246.69,670,1244.92,672.45,1243.93Z"/><path class="cls-3" d="M812.78,1267a24.68,24.68,0,0,1,2.73,9q4.92,29.3,9.83,58.59c1,6.16-.13,7.66-6.34,7.69-5.62,0-11.24-.12-16.86-.08-3.56,0-5.25-1.58-4.87-5.14a50.85,50.85,0,0,1,1-6.75c4.92-19.72,9.67-39.47,13.05-59.53A21.84,21.84,0,0,1,812.78,1267Z"/><path class="cls-3" d="M746.11,1266.94c-.54,5.53-.86,10.6-1.57,15.62-1,7.3-5.28,12.4-11.7,15.77-1.59.83-3.46,1.4-5,.29s-.75-2.83-.49-4.4c2.14-12.92,4.2-25.87,6.38-38.79.27-1.63,0-3.87,2-4.49s3,1.41,4.24,2.53A17.65,17.65,0,0,1,746.11,1266.94Z"/><path class="cls-3" d="M1033.65,1307.34a58.26,58.26,0,0,1-1.51,6.69c-2.26,6.52-8.17,7.79-13,3a19.83,19.83,0,0,1-4.68-7.52q-12.3-33.52-24.55-67.08a18.7,18.7,0,0,1-1.39-6.09c0-4.54,2.42-8,6.81-8.75,4.22-.7,8.19.71,10.43,5.07,10.8,20.95,16.64,43.85,25.72,65.48C1032.65,1301,1032.93,1304.22,1033.65,1307.34Z"/><path class="cls-3" d="M620.06,1230.46c.14,11.63-12.11,28.88-22.72,32.46-1.82.62-3.9,1.4-5.39-.35s.1-3.26.79-4.83c5.42-12.34,10.79-24.69,16.25-37,.82-1.84,1.22-4.52,3.69-4.64s3.73,2.39,4.88,4.28C619.53,1223.59,619.54,1227.38,620.06,1230.46Z"/><path class="cls-4" d="M627.8,1022.69c-6-.69-10.68-4.1-15.87-5.86s-9.93-4.52-15.09-6.17-7.89-5.25-9.85-10c-18.43-45-36.23-90.21-50.22-136.82a1176.56,1176.56,0,0,1-28-114.38c-2.6-13.41,2.95-25.63,9-37.19,7.87-15,21.33-21.06,37.62-22a80.3,80.3,0,0,1,34,5.42c6.14,2.37,7,1.84,9.57-4.1,15.33-35,39.76-61.1,74.4-77.63,19.67-9.38,39.92-16.62,61.89-17.29,34.26-1,61,13.3,81,40.8,13.95,19.18,20.71,41.21,25.24,64.1,6.41,32.46,5.66,65.32,5.57,98.16-.06,19-2.27,37.8-4.93,56.56-.12.87-.61,2-.25,2.57,3.39,5.35-.79,7.65-4,10.51-17.2,15.51-34.29,31.15-51.57,46.58-4.5,4-5.58,8.5-4.23,14.16q8.59,36,17,72.15c1.59,6.8.79,8.52-5.75,11.43-21.18,9.4-42.28,19-64.7,25.18-1.47.4-3.25,1.7-4.46.47-1.47-1.5.16-3.27.75-4.79,15.11-39.11,30.42-78.14,45.39-117.3,13-34.08,26.54-68,35.52-103.48,8.4-33.13,9-66.42-1.37-99.2C796.83,690,782.78,669.78,760,656.65c-16.38-9.43-34.12-10.78-52.05-6.74-27.45,6.18-50.74,20.26-70.17,40.48-10.06,10.46-13.62,24.05-15.31,37.94a341.42,341.42,0,0,0,2.83,103.77,812.74,812.74,0,0,0,24.39,96.29c1.69,5.38,1.08,9.52-3.48,13.07a39,39,0,0,0-6,6c-3.35,4.09-7,4.31-11.66,2.16a41.5,41.5,0,0,1-22.39-23.87c-6.32-16.36-14.18-32.09-20.53-48.48a146.09,146.09,0,0,1-10.12-56.59c.38-17.39.59-34.77,2.14-52.1a68.84,68.84,0,0,0-4-30.54c-3.8-10.2-11.72-16.29-20.66-15.84-9.93.51-20,8.89-22.46,18.65a113.56,113.56,0,0,0-3,24.51c-1.24,38.78,6.63,75.84,20.16,112.12,11.27,30.18,27.5,57.46,44.6,84.47,9.75,15.41,17.87,31.81,27.53,47.31C622.4,1013.46,626.49,1016.88,627.8,1022.69Z"/><path class="cls-5" d="M615.81,649.46a431.22,431.22,0,0,1,10.1-42.23c17.82-62.37,44-120.94,79.87-175.07,1.06-1.61,2.21-3.17,3.28-4.77,2.27-3.4,5.17-4.28,9.09-2.84,22.5,8.26,44,18.38,63.68,32.29,23.62,16.72,39.48,39.64,52.08,65.09,17.94,36.24,29.7,74.63,37.94,114.08,3.72,17.85,4.84,36.17,6.79,54.32,3.06,28.44,6.11,56.89,8.94,85.36,1.35,13.62,3.8,27.14,3.91,40.89a8.79,8.79,0,0,1-3.23,7.29c-12,10.59-23.82,21.31-35.8,31.89-1,.84-1.92,2.68-3.41,1.94-1.65-.82-1.07-2.81-.9-4.27,2.41-19.88,4-39.83,4.53-59.86,1.19-41.54.77-83-12.33-123-8.3-25.41-21.66-47.48-43.47-63.79-20.06-15-42.65-19.6-67.18-17.12C686.82,594,651.55,613,622.54,644.42c-1.55,1.67-3.24,3.2-4.9,4.76C617.44,649.37,617,649.29,615.81,649.46Z"/><path class="cls-4" d="M937.8,1126.47c.48,3.11-1.35,5.78-2.79,8.59-1.85,3.57-4.38,4.46-8.25,3-12.93-5-26-9.7-38.93-14.52-10.85-4-21.68-8.14-32.56-12.1-4.82-1.75-7.75-4.62-8.92-9.94-8.82-40.17-17.89-80.28-26.85-120.41-3.62-16.21-7-32.47-10.87-48.62-1-4.25.2-7.19,3.1-9.82,15.58-14.12,31.21-28.17,46.76-42.32,4.15-3.77,8-7.86,12.13-11.68,4.52-4.19,6.72-3.82,9.57,1.66,3.54,6.8,4.11,14.45,5.79,21.75q9,39.13,17.66,78.35c5.22,23.56,10.19,47.19,15.42,70.75q8.87,40,18.05,79.87A23.29,23.29,0,0,1,937.8,1126.47Z"/><path class="cls-4" d="M1111,1045.47a11.08,11.08,0,0,1-3.13,8.7q-19.92,22-39.83,44c-1.41,1.56-2.68,3.25-4.12,4.77-2,2.11-3.65,5.1-7.3,4.12-4-1.07-5.86-3.91-6.75-7.89-3.14-14.17-6.6-28.27-9.74-42.45-6-27.11-11.76-54.27-17.77-81.38-8.36-37.73-16.88-75.42-25.25-113.15a33.67,33.67,0,0,1-.41-7.32c0-5.39,1.89-6.85,6.79-4.71,21.84,9.52,43.61,19.19,65.4,28.83,4.68,2.08,7.23,5.71,8.32,10.75q9.87,45.62,20,91.19,6.33,28.7,12.84,57.34A42.66,42.66,0,0,1,1111,1045.47Z"/><path class="cls-1" d="M1119.87,793.5c-.16,1.77-.31,3.53-.46,5.29.58,6.37-2.51,12.66-.43,19.07-.23,1.56-.46,3.12-.68,4.67-2.78,7.31-2.88,14.93-2.52,22.6-.22,1-.45,1.92-.67,2.87-1.39.41-.7,1.72-1.11,2.54-2.38,4.83-.45,11.05-4.91,15.2a271.7,271.7,0,0,0-26.3-10.77c-2.5-2.16-5.17-3.69-8.62-2.28l-2.81-.84c.23-1.38.17-2.68-1-3.65,2.87-10.11,2.54-20.54,2.54-30.85,0-45.71-7.51-90.1-24.14-132.82-11.29-29-26.12-55.94-46.38-79.74-3.42-4-3.19-4.87,2-5.86,8.61-1.66,17.28-3,25.94-4.41a7.18,7.18,0,0,1,6.58,2.53c34.06,35.7,60.81,75.78,73.83,124a175.06,175.06,0,0,1,5,23.68,21.17,21.17,0,0,0,1.95,13.92c.1.94.21,1.88.31,2.82.28,10.32.56,20.64.9,31C1118.81,792.8,1119.5,793.15,1119.87,793.5Z"/><path class="cls-4" d="M1037.2,1129.87a27.6,27.6,0,0,1-6,9.72c-6.93,7.89-14.12,15.55-21,23.52-2.87,3.34-5.42,4.47-9.9,2.66-12.52-5-25.28-9.52-37.94-14.24-1.62-.6-4.12-1-4.12-2.73,0-2.22,2.69-2.39,4.45-2.92,2.85-.86,5.76-1.52,8.67-2.16a18.22,18.22,0,0,0,9.37-5.55c3.29-3.49,3.56-7.64.47-10.9-10.73-11.34-15.12-25.36-18.25-40.12-5.25-24.8-10.75-49.56-16.16-74.33q-7-32.05-14-64.08c-.32-1.48-1.2-3.37.7-4.06s2.5,1.38,3.35,2.65c7.68,11.53,15.25,23.14,23.14,34.52,2,2.92,3.37,8,8.24,6.7,4.19-1.17,2.75-5.79,3.29-9.07q3.13-18.86,6.29-37.72a4.45,4.45,0,0,1,.35-1.53c.76-1.26-.13-3.73,2-3.82s1.89,2.14,2.23,3.6c2,8.51,4.06,17,5.94,25.56,6.22,28.37,12.35,56.76,18.58,85.12,2.52,11.45,5.26,22.85,7.83,34.29a67.27,67.27,0,0,1-.18,30.11,41,41,0,0,0-.83,4.11c-1.16,9.11,2.79,13.16,12,12.24C1029.3,1131.08,1032.93,1131.31,1037.2,1129.87Z"/><path class="cls-1" d="M1121.45,606c9.41,2.2,16.91,6.26,24.28,10.62,6.19,3.67,12.31,7.44,18.53,11a40.33,40.33,0,0,1,14.5,14.22C1206.16,687,1218,736,1216.17,788.63c-.89,25-3.46,49.68-10.09,73.87a30.31,30.31,0,0,1-8.44,14.26,115.63,115.63,0,0,1-28.35,20c17.71-50.12,18.56-100.26,9.89-151S1153,648.15,1121.45,606Z"/><path class="cls-5" d="M569.54,496.63c-.8,8.86.56,17.44,2.21,26a12.86,12.86,0,0,1-.15,5.24c-3.52,14.78-3.61,29.93-4.72,45a16,16,0,0,1-4.9,10.65c-11.69,11.78-10.73,29.88,2.28,40.26a16.87,16.87,0,0,1,6.64,12.48c1.34,13.64,4.91,26.89,7.63,40.29,1.36,6.7.81,7.43-6.08,6.25a69.5,69.5,0,0,0-30.22,1.84c-14.38,3.91-24,13.24-30.06,26.6-.65,1.43-1.34,2.85-2.09,4.23-.13.25-.6.31-.91.45C501.75,650.83,533.67,533.66,569.54,496.63Z"/><path class="cls-4" d="M572.61,564.4c.17-10.74,2.18-21.27,3.5-31.87.39-3.08,1.64-3.74,4.42-1.82a39.43,39.43,0,0,0,15.85,6.76c14.68,2.52,30.18-9.56,34-23.91,3.94-15-4-31.82-18-37.37-5.51-2.19-11.34-2.42-17.13-1.89-4.43.41-4.68-1.26-3.28-4.74a23.51,23.51,0,0,1,6.22-9c7-6.17,14-12.3,20.88-18.51,2.25-2,4.62-3,6.86-.41,7.31,8.53,16,11.92,26.62,6.91,10.91-5.14,15.19-13.78,14-26.83-.63-6.73-.45-7.07,6.13-6.58,4.7.35,9.39,1.11,14,1.9,5.38.92,5.8,2,2.67,6.77-4.45,6.73-9.06,13.36-13.47,20.12a459.68,459.68,0,0,0-49.26,100.45,441,441,0,0,0-22.38,97.7,229.31,229.31,0,0,0-1.85,24.11c0,7.53-3.53,13.86-6.73,20.26-1.52,3-4.09,2-6.34.65a6.85,6.85,0,0,1-2.83-4.3c-4.75-15.82-7.81-32-10.49-48.26-.65-4,1.53-5,5.06-5.58,15.85-2.52,25-13.34,24.42-28.52-.51-13.4-12.19-25-25.1-25-7.89,0-7.89,0-7.72-7.83C572.63,566.51,572.61,565.46,572.61,564.4Z"/><path class="cls-1" d="M630.76,765.32c3.41,23.67,10.19,46.27,21.88,67.23C662.5,850.23,674.75,865.78,692,877c14.29,9.35,30.34,13.46,46.72,16.81.83.17,2.07.29,2.56-.17,4.76-4.4,10.59-2.47,16-2.9,3-.24,5.85-.9,8.23-3.3-2.11-2.47-5-1.35-8-2.36l18.83-11.75c-1.41,8-4.44,14.68-7.48,21.32-1.09,2.38-3.62,2.39-5.91,2.64-11.69,1.28-23.29,3.06-34.6,6.46-25.44,7.63-41.61,24.57-51,49.17-5.09,13.39-4.44,24.91,6,35.25a23.61,23.61,0,0,1,1.86,3c-2.31-1.42-3.42-2-4.43-2.74a353.07,353.07,0,0,1-32-26.54c-3.33-3.1-3.65-5.61-.12-9.13,15.79-15.73,13.72-11.58,8.25-31.18-9.22-33.1-19.66-65.91-24.49-100-2.63-18.56-4.47-37.24-3.62-56.07Z"/><path class="cls-1" d="M1007.32,800.09c0,8.26-.09,16.52,0,24.78.07,4-1.35,5.24-5.05,3.52-1.12-.52-2.23-1-3.35-1.54-3.19-1.44-6.89-2.28-9.46-4.46-3.33-2.84,1-5.9,1-9.14-.46-43.06-9.35-83.62-34.61-119.48-10.08-14.3-21.62-27.17-35.69-37.7-6-4.52-6.13-6.07-1.48-11.84A103.18,103.18,0,0,1,937,626.85c3.31-2.51,5.81-2.1,8.48,1.18,37.61,46.17,60,98.28,62.06,158.35.08,2.28,0,4.57,0,6.85s0,4.57,0,6.86Z"/><path class="cls-4" d="M953.33,919.66c-4.79-2.89-6.39-6.95-8.58-10.41-11.06-17.44-21.82-35.06-32.93-52.47-3.05-4.79-6.86-9.16-13.75-7a2.08,2.08,0,0,1-2.72-1c-.77-1.68.6-2.65,1.57-3.54,5.94-5.43,12-10.75,17.93-16.17,3.24-2.94,6.37-6,9.58-9,1.9-1.77,3.9-2.77,6.64-1.56,13,5.73,26,11.32,39,17,1.47.65,3.91.95,3.58,3.2-.3,2.08-2.54,1.3-4,1.56-4.25.76-5.71,4.22-6.22,7.61-2.07,14-3.68,28.07-5.61,42.09C956.49,899.67,954.91,909.26,953.33,919.66Z"/><path class="cls-1" d="M373.24,571.12c23.46.09,45.65,6.57,67.74,13.5a92.57,92.57,0,0,1,12.34,4.47c4.83,2.31,6.74,7.46,5.52,13.54-.82,4.08-3.93,5.51-7.64,6-2.16.31-4.1-.61-6.09-1.22-19.6-6-39.26-11.81-59.66-14.56a147.74,147.74,0,0,0-23.59-1.58c-7.2.18-9.62-1.37-9.92-5.81-.45-6.54,4.37-13.87,9.73-14.32C365.51,570.86,369.39,571.12,373.24,571.12Z"/><path class="cls-1" d="M375.85,544.67c27.19,1.39,54.66,8.14,81.41,18.08,5.26,2,7.87,7.4,6.83,12.83-1.22,6.33-4.44,8.3-10.49,6.25C432,574.51,410.17,568,387.39,565.5c-8.54-1-17.1-2-25.71-1.4-3.95.29-5.32-1.45-5.54-5.11-.5-8.27,4.76-14.17,13-14.32C370.9,544.64,372.66,544.67,375.85,544.67Z"/><path class="cls-1" d="M380.24,518.66c26.43,1.12,49.08,6.39,71.32,13.62,7.87,2.56,11.49,9.43,14.67,16.32,1.18,2.56-.39,5.14-2.2,7.17s-3.65.79-5.71.11c-26.51-8.68-53.16-16.69-81.37-17.47-3.5-.1-7-.47-10.49-.71-1.66-.11-3.75.64-4.46-1.68s-1.56-5.39.52-7C368.74,524.3,375,519.4,380.24,518.66Z"/><path class="cls-1" d="M370.7,598.11c24.52,1.79,48.46,7.51,71.88,15.66,2.39.83,3.78,2.21,3.74,5,0,2.43.48,4.87.57,7.32.22,5.83-2.23,7.91-8.19,6.53-10.75-2.47-21.49-5-32.13-7.87a211,211,0,0,0-45.09-6.89c-7.55-.38-8.56-2.17-5.48-9.17a13.37,13.37,0,0,1,.67-1.43c1.46-2.58-.09-6.53,2.85-8.14C362.82,597.29,366.76,598.6,370.7,598.11Z"/><path class="cls-1" d="M412.65,657c-17.28-1.91-34.45-4.27-49.58-13.88-5.67-3.6-6.65-12.5-1.93-17.24,1.4-1.4,3.23-1.24,5-1.12,22.52,1.48,44.29,6.6,65.71,13.44,6.1,1.95,3.42,7.29,4,11.24.53,3.48-2.37,4.34-5,4.82C424.79,655.35,418.93,657.5,412.65,657Z"/><path class="cls-1" d="M456.15,635.86c-.4,13.14-4.5,24.26-7,35.67-4.54,20.24-9,40.45-6.33,61.42a15.1,15.1,0,0,1-.06,3.15c-.16,2,.28,4.5-2.68,5-2.61.39-4.91-.26-6.29-2.75a19.12,19.12,0,0,1-2.38-9.07c-.18-9.64-.53-19.24,2-28.77,2.82-10.78,1.37-20.91-7.27-29.81,11.95-1.27,17.34-8.67,20.25-18.84C448,646.08,451.06,641.05,456.15,635.86Z"/><path class="cls-1" d="M391.84,502.3c8.49,1.76,17.9,3.84,27.37,5.63,8.26,1.55,16.57,2.84,24.88,4.12a19.25,19.25,0,0,1,11,5.64,5.8,5.8,0,0,1,1.33,6.83c-1.31,2.45-3.67,1-5.61.45-19.23-5.52-38.58-10.44-58.57-12.28-3-.27-6-.31-8.93-.5-1.32-.09-3.09.56-3.62-1.26a4.65,4.65,0,0,1,1-4.88C383.57,503.25,387.05,502.33,391.84,502.3Z"/><path class="cls-4" d="M718.89,952.13c4.44-.3,5.33,1.66,3.67,5.46a70.27,70.27,0,0,1-5.72,10.64c-.69,1-2.56,2-1.28,3.52.94,1.14,2.28.14,3.42-.18,6.24-1.73,12.49-3.44,18.72-5.2,3.3-.94,4.43.24,3.24,3.4q-5.45,14.52-11,29c-1.19,3.1-3.23,4.29-6.63,3.08A151.57,151.57,0,0,1,693,987.32c-3.32-2.1-3.91-4.77-2.76-8.08a69.29,69.29,0,0,1,8.92-17.81C704,954.75,711.12,952.63,718.89,952.13Zm4.76,46.4c2.11.38,3.84-1.17,5-4,2.54-6.09,5.67-11.94,7.21-18.44.43-1.8,2.35-3.68.86-5.35s-4-.58-5.92.06c-5.74,1.88-11.45,3.87-17.2,5.75-3,1-4,0-3.13-3.12,1.45-5.05,5.14-8.83,7.55-13.33.91-1.69,1.82-3,.71-4.71s-2.72-1-4.28-.54c-9.89,2.79-20.39,15.23-21.49,25.55-.23,2.15.86,3.52,2.42,4.9,5.37,4.76,12.3,6.64,18.31,10.21A21,21,0,0,0,723.65,998.53Z"/><path class="cls-5" d="M1109.09,865.74c4.46-4.15,2.53-10.37,4.91-15.2.41-.82-.28-2.13,1.11-2.54-.51,3.81-.63,7.72-1.62,11.39-1.25,4.67.53,7.13,4.47,9.28,5.35,2.94,10.61,6.16,14.54,11l-.91.75Z"/><path class="cls-5" d="M1070.31,848.2c1.22,1,1.28,2.27,1,3.65L1048,848c5.9-2,10.58-.56,15.16,0C1065.57,848.36,1067.89,849,1070.31,848.2Z"/><path class="cls-5" d="M1119.87,793.5c-.37-.35-1.06-.7-1.07-1.06-.34-10.33-.62-20.65-.9-31C1119.57,772.09,1119.54,782.81,1119.87,793.5Z"/><path class="cls-5" d="M1115.78,845.13c-.36-7.67-.26-15.29,2.52-22.6C1118.46,830.18,1117.08,837.65,1115.78,845.13Z"/><path class="cls-5" d="M718.44,1007.88c-6.09.87-10.84-1.58-15.29-4.72l.64-1.5Z"/><path class="cls-4" d="M630.76,765.32l-2,.23V749.07A53.88,53.88,0,0,1,630.76,765.32Z"/><path class="cls-5" d="M1117.59,758.65a21.17,21.17,0,0,1-1.95-13.92A75.15,75.15,0,0,1,1117.59,758.65Z"/><path class="cls-5" d="M1119,817.86c-2.08-6.41,1-12.7.43-19.07C1120,805.17,1119.27,811.51,1119,817.86Z"/><path class="cls-5" d="M1074.17,852.69c3.45-1.41,6.12.12,8.62,2.28C1079.92,854.2,1077,853.44,1074.17,852.69Z"/><path class="cls-5" d="M1134.9,883.48h1.25c0,.24-.05.47-.07.7l-1.09-.78Z"/><path class="cls-5" d="M1132.5,879.71l1.1,1.1-.92.69-1.09-1Z"/><path class="cls-5" d="M1135,883.41l-1.08-1-.08,0c1.24-.52,1.3.12,1.07,1.07Z"/><path class="cls-5" d="M1133.6,880.81c.37.49,1.06.93.24,1.6l.07,0-1.23-.87Z"/><path class="cls-3" d="M732.1,757.24c-.14,24.28-18.14,42-42.44,41.9-24.54-.15-42.15-18.15-42-42.94.15-24.45,18.39-41.8,43.79-41.65C714.54,714.68,732.25,733.28,732.1,757.24Zm-51.85-10.39c0,13.75,8.65,22.36,22.33,22.28,12.61-.08,22-9.68,22.1-22.54.06-12.48-9.82-22.18-22.5-22.09C689.13,724.59,680.23,733.66,680.25,746.85Z"/><path class="cls-3" d="M557.45,774.73c5.61-.08,8.94,3,9.06,8.42.11,5.68-3.35,9.47-8.7,9.54a9.14,9.14,0,0,1-9.35-9.16C548.47,778.51,552.26,774.8,557.45,774.73Zm5.69,6.11c-.6-1.45-.8-3.2-3.27-3.13-2.63.09-3.26,1.7-3.3,3.75,0,2.25,1.45,2.79,3.47,2.83C562.43,784.33,563,782.9,563.14,780.84Z"/><path class="cls-1" d="M723.65,998.53a21,21,0,0,1-10-3c-6-3.57-12.94-5.45-18.31-10.21-1.56-1.38-2.65-2.75-2.42-4.9,1.1-10.32,11.6-22.76,21.49-25.55,1.56-.44,3.17-1.13,4.28.54s.2,3-.71,4.71c-2.41,4.5-6.1,8.28-7.55,13.33-.89,3.1.17,4.09,3.13,3.12,5.75-1.88,11.46-3.87,17.2-5.75,2-.64,4.3-1.88,5.92-.06s-.43,3.55-.86,5.35c-1.54,6.5-4.67,12.35-7.21,18.44C727.49,997.36,725.76,998.91,723.65,998.53Z"/></svg>