<svg id="Layer_1" data-name="Layer 1" xmlns="http://www.w3.org/2000/svg" viewBox="0 0 2713.9 1959.85"><defs><style>.cls-1{fill:#fff;}</style></defs><path class="cls-1" d="M1613.73,280.7c1,7.24-2.36,8.89-6,10.29-3.88,1.5-7.77,3-11.64,4.52-22.35,8.87-34.32,26.52-41.94,48.35-10.41,29.87-21.43,59.53-32.28,89.24q-17.13,46.92-34.45,93.77c-11.24,30.44-22.36,60.94-33.9,91.27-11.7,30.72-23.86,61.25-35.77,91.89a49.58,49.58,0,0,0-1.47,6.44c6.23.31,9.06-3.47,11.88-6.68,40.41-46.08,81.28-91.77,120.91-138.5,31.27-36.88,60.9-75.13,91.46-112.61a388.84,388.84,0,0,1,26.46-30c14.78-14.72,32.71-22.77,54-21.85,16.87.73,24.72,11.68,17.69,26.83-9.63,20.76-21,40.7-31.14,61.24-25.59,51.92-52.33,103.35-76,156.15-27.27,60.93-49.13,124.09-61.68,189.81-8.11,42.48-15.59,85.35-13.62,129,1.18,26.24,2.88,52.49,11.92,77.54,8.63,23.92,23.24,41.23,50.15,44.89,13.46,1.84,18-.43,22.83-13.4Q1671,998,1700.46,917c20-55.18,39.63-110.52,59.73-165.67,22.66-62.2,45.85-124.21,68.47-186.43,21.2-58.32,41.92-116.8,62.9-175.2,5.48-15.28,11.45-30.4,16.53-45.81a87.31,87.31,0,0,0,4.27-22c.75-12.71-2.77-24-14.72-31-3.21-1.87-6.83-3.64-5.18-9.49h147.69c2.35,6.48-2.25,7.8-6.3,10-8.74,4.75-17.84,9.14-25.74,15.08-19.11,14.37-28.78,35.36-36.85,57-16.92,45.26-33.43,90.67-50,136.06-19.56,53.57-38.93,107.22-58.49,160.79s-39.37,107.1-58.9,160.71c-19.25,52.82-38.24,105.74-57.45,158.58-6.26,17.2-12.87,34.29-19.26,51.44-.53,1.42-.64,3,.74,6.21,3.09-2.24,6.46-4.17,9.22-6.75a1039.36,1039.36,0,0,0,132.4-151.36c25-34.63,44.34-72.53,63.14-110.65,13.63-27.64,26.48-55.67,38.9-83.87,22-50.11,39.49-101.71,48.12-156,4.86-30.61,2.42-60.28-8.74-89.64-9.45-24.86-17.87-50.4-15.25-77.82,1.15-12.07,2.31-24.3,10-34.35,3.47-4.55,7.57-9.31,12.47-11.94,12.6-6.75,24.29-6.1,33,4,5.65,6.56,11.29,13.54,15.05,21.25,17.25,35.37,22,73.17,19.49,112-1.13,17.81,4.74,28.52,21.69,36.33,5.3,2.43,11,4.07,16.12,6.79a44.75,44.75,0,0,1,12,8.66c6.19,6.73,4.64,15.65-3.46,19.93a26.69,26.69,0,0,1-13.09,3.33c-12-.6-24.11-1.23-35.33-6.79-8.46-4.19-10.19-3-12.78,6.49-7.78,28.51-14.34,57.44-23.79,85.4-12.79,37.83-27.1,75.19-42,112.24-22.83,56.55-51.61,110.18-84.27,161.63-39.92,62.89-85.13,121.62-141.34,171.12-22.87,20.14-47.2,38.48-73.78,53.55a26.35,26.35,0,0,0-12.52,14.81q-26.1,72.9-52.52,145.69c-12.83,35.22-26.1,70.28-38.93,105.5-9.55,26.2-18.73,52.55-28.07,78.83-.69,2-.9,4.37-2.2,5.77-1.8,1.93-4.31,3.92-6.73,4.24-1.23.16-3.53-3.06-4.34-5.15-10.34-26.76-20.28-53.67-30.74-80.38q-34.62-88.4-69.61-176.64-25.87-65.65-51.75-131.31-27.83-70.27-55.92-140.43c-1.28-3.21-3.48-6.06-6-10.45-2.34,3.22-3.91,4.62-4.53,6.36-8.54,23.9-16.84,47.9-25.42,71.79q-16.47,45.86-33.28,91.57c-11.11,30.07-22.57,60-33.8,90-11.08,29.65-22,59.34-33.07,89-8.58,23-17.36,46-25.81,69q-16.74,45.73-33.09,91.62c-3.51,9.79-6.48,19.79-10.25,29.48-1,2.71-4,4.67-6.16,7-2-2.37-5.14-4.46-5.79-7.15-6.8-28.13-19.85-53.89-30.49-80.54-18.35-46-37.35-91.73-55.93-137.64-12.8-31.65-25.26-63.43-38.07-95.07-2.29-5.66-5.55-10.94-8.8-17.24-3.93,1.72-6.93,2.81-9.72,4.29-40.69,21.59-83.65,35.24-130,36.32-16.69.39-33.18-1-49.28-6.72-33.72-11.87-50.84-36.17-54.64-70.74-3.06-27.79,1.49-55,8.74-81.6,15.38-56.52,39.21-109.7,65.9-161.65,8.94-17.41,18.43-34.55,28.11-51.57,3.61-6.34,4.1-11.62,1.12-18.66-13.79-32.6-26.81-65.52-40.13-98.31-13.62-33.55-27.36-67-40.9-100.63-15.88-39.37-31.38-78.89-47.46-118.18-14-34.27-27.38-68.92-43.35-102.29-16.11-33.67-43-56.87-78.81-69-4.91-1.67-9.53-3.21-8.7-10.69,100.75,2.75,201.2,2.9,302,1.26.58,7.32-4.41,7.74-8.41,9.69-9.31,4.53-19.25,8.44-27.32,14.67-24.23,18.69-31,43.83-22.13,72.53,5.79,18.65,13.49,36.74,20.8,54.9q35.25,87.51,70.82,174.91c3.11,7.7,5.59,15.66,8.73,23.36,1,2.44,3.67,6.45,4.71,6.19a12.68,12.68,0,0,0,7.38-5.2c17.2-29,34.76-57.9,50.92-87.52,19.53-35.84,38.64-72,56.35-108.71,12.81-26.58,22.86-54.48,34.54-81.62,3.07-7.13,1.6-12.76-2.52-18.61-14.81-21-33.22-37.29-58.39-44.82-4.71-1.41-10-2.3-9.44-10.5,4.22,0,8.15-.09,12.09,0,23.76.64,47.52,1.5,71.29,1.9,8.94.15,11.62-2.12,13.77-11.34,9.77-42.06,15.63-84.55,9.42-127.69-5.87-40.83-26.85-70.81-67.21-83.81-21.87-7.05-44.83-9.43-68-8-52,3.12-100.52,18.42-147.52,39.94C792.12,120.33,734.43,156.68,679,197,597.89,256.1,522,321.05,452.41,393.42c-46.36,48.24-88.61,99.7-123.9,156.69-18.27,29.5-34.95,59.88-45.25,93.07-6,19.38-10.65,39.39-9.77,60.14,1.17,27.61,17.47,46,44.87,50.11,18.93,2.83,37.26.76,55.46-5.41,22.45-7.61,45.25-14.2,67.89-21.28a27.38,27.38,0,0,1,20.7,1.34c8.16,3.89,11.21,10.82,6,18.29-4.89,7-10.84,14.48-18.12,18.48a365.35,365.35,0,0,1-49.83,22.78c-16,5.88-32.59,10.9-49.36,13.56-25.15,4-50.72,5.55-74.79-6.2q-35.82-17.47-45.78-56.18c-8.82-34.52-5.11-68.79,2.55-102.76,12.73-56.49,39.24-107,70.53-155A792.42,792.42,0,0,1,405.34,354.43C440,319.55,475,284.75,512.14,252.61c62.25-53.83,130.1-100.19,201.14-141.83,41.4-24.26,83.92-46.32,128.08-65.12,41.12-17.51,83.48-31.37,127.4-39.76A334.49,334.49,0,0,1,1094.47,6c30.07,5.69,58.61,15.9,83,35.66,29.65,24,46.86,54.92,53,92.09,7,42.59,2.31,84.78-6.26,126.67-.83,4-2.81,7.83-4.07,11.79-2.24,7-.82,9.35,6.35,9.74,5,.26,10-.06,15-.15q41.88-.72,83.77-1.39c2,0,3.91.69,6.07,1.11,1.14,7.63-4.54,7.84-8.86,9.94-9.67,4.69-20,8.72-28.38,15.2-20.38,15.74-27.17,36.71-21.44,62.17,5.27,23.37,15.22,44.91,24.45,66.73,21.09,49.88,42.71,99.52,63.94,149.34,5.88,13.78,11.12,27.83,16.75,41.72.73,1.82,2.06,3.4,4.4,7.14,2.35-5.2,4.21-8.65,5.51-12.31q31.1-87.69,62-175.44c9.69-27.47,19.4-54.94,28.74-82.54,3.73-11,6.85-22.28,9.56-33.59,3.88-16.15,2.23-30.77-13.51-40.65-1.58-1-2.5-3-5.19-6.46,13.53-1.85,25.35.66,37,0,12.07-.66,24.2-.16,36.3-.2,11.68,0,23.36.1,35-.22C1589.64,282.06,1601.56,281.29,1613.73,280.7ZM1150.09,443.78c-2.16,2-3.38,2.65-3.89,3.66-8.43,16.72-16.06,33.89-25.26,50.18q-63,111.55-126.85,222.61c-4.15,7.23-5.12,13.16-1.74,21,9.59,22.15,18.43,44.64,27.51,67q39.24,96.64,78.51,193.28c1,2.42,3.11,4.38,4.89,6.8a39.79,39.79,0,0,0,5.09-2.89c24-19.35,48-38.82,72-58.13,42.67-34.22,82.24-71.87,121.79-109.56,9-8.53,8.75-8.59,3.84-20.1-12.74-29.86-25.71-59.63-38-89.7-22.91-56.29-45.25-112.82-68.09-169.14-14.71-36.27-29.86-72.37-44.93-108.49C1154.14,448.18,1152.21,446.52,1150.09,443.78ZM880.2,760.62c2.47-1.74,3.82-2.21,4.39-3.16q24.88-41.15,49.66-82.36c2.82-4.67,3-8.91.85-14.11-14.36-34.56-28.42-69.25-42.5-103.93-21.43-52.79-42.31-105.82-64.43-158.32-9.38-22.27-7.56-43.87-.89-65.72,3.59-11.74,8.81-23,13.83-35.81-59.44-1-118-.72-177.22,1.37,1.9,7.49,7.66,9.16,11.77,12.18a116.72,116.72,0,0,1,31.65,34.9c16.2,27.33,28.19,56.56,39.93,85.93q31.5,78.81,63,157.63Q842.73,671,875.12,752.81C876.13,755.35,878.14,757.5,880.2,760.62ZM1346,849.37c-3.38,3.06-6.15,5.31-8.63,7.86-7,7.16-13.48,14.83-20.85,21.56a58,58,0,0,0-15.64,23.64c-17.84,48.45-36.24,96.69-53.76,145.26-23,63.77-45.33,127.78-68.19,191.61-.92,2.56-4.41,5.88-6.65,5.83s-5.37-3.49-6.4-6.12c-5.59-14.3-10.33-28.93-16-43.22q-22.39-56.94-45.35-113.67c-1.93-4.78-4.86-9.17-7.3-13.68a37.09,37.09,0,0,0-4.84,2.07c-20.42,13.7-40.78,27.48-61.22,41.14-8,5.36-9,7.28-5.3,16.5,7,17.41,14.37,34.63,21.36,52q28.15,70.13,56.07,140.36c11,27.88,21.55,56,32.47,83.88.91,2.34,3.05,4.21,6.28,8.5a66.18,66.18,0,0,0,3.05-6q101-276.24,201.85-552.53C1347.36,853.46,1346.59,852.11,1346,849.37Zm-339.71,226c3.3-.9,4.7-.93,5.66-1.59,20.22-14,40.61-27.69,60.48-42.13,9.18-6.67,8.57-7.24,4.29-17.75q-21.18-52-42.15-104.11-29-71.77-58-143.55c-1-2.39-3-4.34-4.5-6.39-1.33.73-1.84.83-2,1.13-17.08,28.58-34.27,57.09-51,85.88-1.78,3.08-1.28,7.92-.7,11.77.47,3.16,2.78,6,4,9.09q34.15,85.21,68.27,170.43C995.57,1050.41,1000.88,1062.52,1006.3,1075.37Zm-105.74-196c-2.81,3.62-4,4.75-4.7,6.13-8.05,15.52-16.49,30.87-23.93,46.69-18.11,38.49-34.91,77.37-39.1,120.55-1.53,15.72-.55,30.86,3.82,45.7,4.21,14.28,14.37,24,29.06,26.18s30.09,2.25,44.66-2.33c22.27-7,44.16-15,64.27-27.27,10.33-6.27,11.22-7.93,6.84-18.84q-15.35-38.22-30.86-76.36Q928.78,946,906.83,892.27C905.32,888.57,903.34,885.05,900.56,879.38Zm604.35-581.6c1.23,8.22,3.73,14.88,2.84,21.05-2.08,14.36-4.66,28.84-9.1,42.61-7.4,22.93-16.47,45.32-24.73,68q-23.73,65.05-47.36,130.13c-11,30.11-21.77,60.27-33.06,90.25-17.59,46.71-35.53,93.28-53.26,139.94a77.15,77.15,0,0,0-2.2,8.62l2.38,1.53c3.33-2.82,6.91-5.4,9.94-8.5,6.7-6.86,12.71-14.43,19.75-20.88a66.86,66.86,0,0,0,19.77-31.13c2.83-9.57,6.52-18.88,9.91-28.27,13.13-36.38,26.18-72.8,39.48-109.12,15.72-43,31.74-85.78,47.5-128.72,15.48-42.17,30.48-84.53,46.34-126.56,6.17-16.35,13.72-32.27,28.2-43.52,1.35-1.05,1.81-3.23,3-5.4Zm-232,628.3-2.54-2c-3.37,2.88-6.85,5.63-10.07,8.67-5.15,4.85-9.81,10.26-15.22,14.79q-58.9,49.34-118.06,98.35c-7.83,6.49-8.28,7.82-4.61,16.77,15.3,37.32,30.46,74.69,45.81,112,1.28,3.11,3.63,5.79,6.84,10.78C1210.41,1097.93,1241.17,1011.82,1272.88,926.08Zm288.55-295.43c-2.56,2.37-5.27,4.6-7.65,7.14-6.25,6.68-12.18,13.68-18.57,20.23q-48,49.13-96.32,98c-5.32,5.36-7,9.82-3.91,17.43,17.94,44.77,35.23,89.8,52.82,134.71.68,1.71,2.29,3.06,5.33,7C1511.26,817.74,1535.47,724.4,1561.43,630.65Zm18.08,503.84c7.12,17.94,13.52,34.1,19.93,50.25l3.08,0c2.76-7.58,6.38-15,8-22.79s9.36-14,6.34-22.9Z"/><path class="cls-1" d="M1598.88,1698.38c-8.42,3.81-9.35,9.66-12.3,13.87-7.88,11.23-15.26,22.85-23.72,33.62-4,5.11-9.64,9.27-15.22,12.74-10,6.21-18.72,3-23.11-7.79-1.22-3-2.12-6.11-3.67-10.6-3.48,2.23-6.35,3.59-8.63,5.61-10.8,9.61-23.55,15.75-37,20.33-18.66,6.35-33.59-1-41.28-19.46a37.89,37.89,0,0,0-2.14-3.92c-5.76-2-7.8,2.55-11,4.86-11.13,8-21.74,17-33.69,23.53-25.74,14.09-51.16.37-55.19-28.79-.39-2.76-1.08-5.49-2.1-10.6-4,3-7.07,4.75-9.37,7.15a174.15,174.15,0,0,1-43.55,33.19c-25.34,13.63-49.46,2.37-54.67-25.8-.67-3.66-1.35-7.32-2.21-11-.14-.62-1.18-1-3.13-2.64-2.6,2.65-5.25,5.46-8,8.16-6.5,6.41-12.45,13.58-19.73,18.95-9.57,7.06-20.6,9.28-31.73,2.92-10.69-6.1-16-15.46-15.64-27.9.08-3.13-.37-6.28-.63-10.14-6.27,1.14-7.51,6-10.37,9.25-8.26,9.3-16.19,19-25.41,27.29-6.53,5.86-15.08,9.68-24.16,4.27-7.47-4.45-9.64-14.11-6.3-25.93,7.75-27.51,22.83-50.81,42-71.52a71.69,71.69,0,0,1,31.47-19.64c11.23-3.54,20.54.75,29.39,6.31,5,3.15,5.28,7.49.66,11.28-7,5.78-9.73,13.64-11.31,21.69-3.37,17.22-4.83,34.68-2.18,52.2,2,13.55,11.92,18.35,22,9.44,10.85-9.59,20.09-21,29.71-31.94,1.78-2,2.52-5.29,2.92-8.09,4.19-29.39,16.48-55.79,30.39-81.5a636.59,636.59,0,0,1,70.57-104.47,139.94,139.94,0,0,1,27.74-24.9c13.23-9.15,25.86-5.16,31.69,8.91,1.6,3.88,1.61,8.94.84,13.19-3.12,17.12-11.43,32.18-20.86,46.43-33.67,50.88-71.72,98.28-115,141.36-5.53,5.5-10.06,10.6-8.87,19.36,1.69,12.47,2.3,25.24,13.21,33.87,4.76,3.77,10.63,5.24,16.52,2.7,7.6-3.26,16-5.73,22.26-10.82,13.18-10.77,25.38-22.8,37.48-34.82a21.51,21.51,0,0,0,6-12c2.3-21.17,10.78-40.31,20-58.89C1373,1604.3,1398,1563,1429.66,1526a185.67,185.67,0,0,1,29.18-27.12c12.93-9.73,27.09-5.48,32.4,9.15,1.67,4.61,1.13,10.73-.27,15.62-7,24.4-20.21,45.87-35.39,65.69-26.08,34.06-53.44,67.15-80.62,100.36-6.3,7.7-13.83,14.45-21.14,21.26-4.64,4.31-7.36,9.08-6.22,15.42,1.6,9,2.32,18.31,5.51,26.7,4.5,11.83,14.45,15.46,26.61,11.51,20.66-6.72,35.5-21.44,49.44-37,3.07-3.43,3.94-9,5.24-13.82,6.47-23.78,20.08-42.8,39-58.16,4.14-3.37,9.24-5.59,14-8.18,6.35-3.47,12-2,17.23,2.6,5,4.44,6.08,10.19,3.89,15.94a61.55,61.55,0,0,1-8.48,15.16,130.47,130.47,0,0,1-41.5,35.53c-7.78,4.24-11.84,17.89-8.71,28.5,2.25,7.65,9.73,11.53,20.41,10.1,21.45-2.89,37.47-15.38,51.86-30.28,2.38-2.45,3-6.73,4.1-10.26,4.08-12.75,8.69-25.27,17.92-35.34,6.2-6.76,11.31-8.38,15-5.58s2.71,7.78-1.82,15.64c-5.39,9.35-10.33,19-14.85,28.79-1.88,4-2.61,8.79-3.05,13.3s-.52,10.37,4.94,11.38c3.2.59,8-1.9,10.54-4.48a87,87,0,0,0,13.12-16.63c12.83-21.44,25.16-43.17,37.75-64.74,1.87-3.21,3.58-6.94,6.4-9s6.9-3.29,10.09-2.77c4.82.79,6.08,5.51,5.61,9.87-1,9.93-2.11,19.89-4,29.69-4.17,22.1-8.89,44.08-13.26,66.14-1.56,7.89-.89,8.46,7.46,11.12,4.32,1.38,8.77,2.88,12.49,5.34,1.89,1.25,2.28,4.77,3.34,7.26-2.43.94-4.84,2.58-7.3,2.66-3.26.1-6.54-1.19-9.84-1.58-9.47-1.15-10.61-.33-13.09,8.84-7.06,26.19-15.4,52-28.27,75.93-16.53,30.77-37,58.36-66.25,78.59a108.93,108.93,0,0,1-41.16,17.12c-35.13,7-66.9-23.94-61.6-59.12,2.59-17.18,10.87-31.34,21.36-44.5,17.74-22.26,41-38,65.28-51.79,19.86-11.23,40.93-20.4,61.79-29.76,6.71-3,14.43-3.85,21.73-5.48,10.21-2.29,12.12-4.47,13.91-14.77,1.92-11.07,4.42-22,6.35-33.12C1597.75,1712.09,1598,1706.37,1598.88,1698.38Zm-12.6,77.44c-5.59.69-8.92.57-11.88,1.55-23.7,7.88-47,16.63-68.89,29-27.06,15.25-52.5,32.35-70.4,58.52-10.68,15.63-16.54,32.65-13.51,51.82,2.23,14.11,12.85,25.07,26,26.79,22.46,3,43.18-1.24,60.72-16.36a220,220,0,0,0,21.63-20.66c28.32-32,43.58-70.41,53-111.47C1584.16,1789.43,1584.89,1783.77,1586.28,1775.82Zm-235-82c1,.75,2,1.49,3.08,2.23,3.55-3.2,7.56-6,10.6-9.68,13.89-16.64,28-33.12,41.12-50.36,21.46-28.2,42.18-57,56.82-89.51,3.89-8.63,6.1-18.13,8.06-27.45.63-3-1.19-7.57-3.5-9.58-1.54-1.34-6.44-.28-8.93,1.22a49.07,49.07,0,0,0-12.56,10.13c-8.51,10.23-16.93,20.63-24.37,31.64-27.19,40.25-47.1,84.27-65.8,128.87C1354.06,1685.39,1352.75,1689.64,1351.25,1693.8Zm-111.3,2,2.54,1.6c2.74-2.32,5.8-4.35,8.14-7,6.57-7.53,12.83-15.32,19.24-23,28.66-34.25,54.88-70.27,75.89-109.71,6.35-11.92,9.6-25.57,13.45-38.67.8-2.71-1.22-7.48-3.53-9.44-1.48-1.26-6.12.35-8.87,1.67a24.85,24.85,0,0,0-7.81,6.13c-8.63,10.12-18,19.79-25.25,30.84-29.1,44.3-51.59,92.09-72.29,140.75C1240.56,1691.06,1240.44,1693.5,1240,1695.79Zm-149.69,44.47c1.55,3.85,2.06,8.54,4,9.27,2.81,1,7.52.23,10-1.67a80.71,80.71,0,0,0,14-14.08c13.28-17.06,26.06-34.5,33.72-55,1.58-4.26,8-8.35,2.4-13-4.63-3.83-9.27.65-13.57,2.92-.73.38-1.36.95-2.07,1.38-17.19,10.7-28.23,26.88-37.89,43.91C1096.22,1722.11,1093.71,1731.47,1090.26,1740.26ZM1460,1703.42c2.14-.59,5.5-.48,7-2.1,8.49-8.92,16.59-18.22,24.69-27.51a7.47,7.47,0,0,0,1.69-4.57c0-2.3-.13-6-1.39-6.59-2.13-1-6.35-1.11-7.67.3-10.68,11.36-20.49,23.42-25.67,38.49C1458.58,1701.67,1459.07,1702.09,1460,1703.42Z"/><path class="cls-1" d="M2515.34,1676c-8.47,13.32-15.94,26.31-24.61,38.45a143.35,143.35,0,0,1-62.77,49.88c-22.68,9.39-36.33,4.26-48.53-17.51-.39-.69-1.17-1.16-2.88-2.8-2.44,2.22-5,4.55-7.59,6.9-10.59,9.65-21.49,18.56-37.05,18.32-13.83-.22-21.6-5.67-26.23-18.84-4.06-11.53-2.32-23,0-34.55,1.14-5.56,2.44-11.09,3.77-17.1-7-.85-9.35,3.52-11.91,7-14.09,19.06-31.82,35.42-42.53,57-1.82,3.68-5.32,6.37-9.07,4.06-1.9-1.17-2.15-5.43-2.59-8.38-.28-1.89.44-3.94,1.13-9-5.12,3.91-8.09,6.33-11.22,8.55-6.77,4.78-13.36,9.88-20.48,14.07-9.79,5.77-20,5.65-29.48-.87-10.41-7.18-14.24-17.95-11.25-29.66,4-15.65,9.45-31,15-46.17,2.57-7,6.93-13.25,10.57-19.79,2.74-4.93,6.49-7.73,12.28-4.79,6,3,8.76,10,5.81,15.74-4.74,9.26-10.78,17.94-14.7,27.51a139.37,139.37,0,0,0-8.51,29.91c-2.44,14.78,5.81,21.27,20.07,16.67a27.56,27.56,0,0,0,9.84-5.17c9.91-8.89,19.77-17.89,28.94-27.52,3.24-3.41,5.19-8.54,6.47-13.23,3.2-11.63,5.55-23.49,8.5-35.2a85.66,85.66,0,0,1,4.78-14.15c1.13-2.53,3.13-5.46,5.5-6.48,3-1.33,7.23-1.93,10.19-.84,1.42.53,2.24,6,1.43,8.64-3.88,12.73-8.44,25.26-12.68,37.88-1.25,3.75-2.22,7.58-3.32,11.37l2.6,1.61c3.58-3.65,7.23-7.24,10.73-11,14.24-15.21,28.33-30.56,42.71-45.63,5-5.29,10.05-5.8,14.45-2.55s5.65,8.46,2.75,14.58c-6.77,14.28-14.58,28.11-20.52,42.71-3.22,7.9-4.29,17-4.81,25.58-.68,11.19,7.62,17.63,18.68,15.78,17.44-2.92,36.94-23.2,41.68-40.53,8-29.18,24-53,51.3-67.73,8.52-4.61,13.79-3.94,19.47,1.32,5.46,5,6.71,11.28,3.32,19.47a42.29,42.29,0,0,1-5.73,9.6c-11.91,15.22-25.48,28.57-42.69,37.94-9.49,5.16-13.54,23.78-6.47,31.67,3,3.3,8.62,6.25,12.81,6,8.13-.57,16.68-2.3,24-5.79,21.6-10.29,38.39-26.37,50.79-46.81,6-10,11.47-20.31,17.09-30.53a48.89,48.89,0,0,0,6.39-25,71.53,71.53,0,0,1,8.16-35c4.11-7.72,10.28-8.07,15.3-.89,6.13,8.76,9.1,17.87,2.37,27.79-3.73,5.5-7.35,11.06-11,16.62-4.58,7-3,12.93,4.63,15.88,6.21,2.41,12.34,2.11,17.46-2.85,2.69-2.61,5.07-5.54,7.78-8.13,5.1-4.88,10-5.55,14.35-1.78,4.59,4,5.94,8.69,2.87,14.48-6.62,12.51-13.51,24.92-19.3,37.81a181.17,181.17,0,0,0-10.13,29.47c-4.24,16.71,4.51,24.82,21.37,20.48,2.79-.72,5.79-1.61,8-3.3,14.62-11.09,28.92-22,33.35-41.86,2.3-10.32,7.74-20.13,12.94-29.52,2.7-4.86,7.58-8.85,12.26-12.09,2-1.4,7.08-1,8.87.61s2.07,6.38.91,8.73c-4.57,9.33-10.58,18-14.85,27.42a76.53,76.53,0,0,0-5.75,21.49c-.45,3.49,1.26,8.8,3.89,10.79,4.07,3.07,7.83-1,10.32-4.32,7.76-10.28,15.93-20.35,22.62-31.31,10.2-16.69,19.29-34.06,28.84-51.14.6-1.09,1-2.28,1.69-3.35,4.38-7.32,9.71-10.13,15-8,5,2,6.91,6.82,5.45,15-4.92,27.47-10,54.92-15,82.37-.15.82-.35,1.63-.51,2.45-.94,4.76-3.64,10.18-2.2,14.07,1,2.66,7.9,2.84,11.83,4.82a33.4,33.4,0,0,1,9.92,7c2.62,2.93.47,6.83-3.58,6.9-3.29.07-6.6-.78-9.88-1.3-10.62-1.68-12.87-.12-16.24,10.26-5.8,17.81-10.83,35.93-17.9,53.23-15.05,36.8-36.95,69-68.44,94a112,112,0,0,1-48.22,22.42c-31.47,6.33-72.08-22.09-60.83-63.83,4.55-16.86,13-31.47,24.56-44.42,19.18-21.45,42.83-37.25,67.65-51,18.86-10.43,39-18.55,58.89-27.09,5.62-2.42,12.13-2.8,18.27-3.94,6.69-1.25,12-4.3,13.37-11.36,3.45-17.55,6.61-35.15,9.76-52.75.19-1-.67-2.25-1.31-4.2-6.14,2.7-7.69,8.66-10.75,13.2-7,10.34-13.17,21.25-20.72,31.13a78.82,78.82,0,0,1-17.22,16.13c-10.85,7.65-17.26,5.75-24.4-5.68a50.32,50.32,0,0,0-3.5-4.18c-2.72,2.22-5.28,4.51-8,6.52-9,6.59-17.65,14-27.38,19.37-12.73,7-28.37,2.69-36.88-8.61-5.12-6.8-5.35-14.82-5.06-22.72a104,104,0,0,1,12.63-46.59c1-1.76,1.59-3.7,2.58-6Zm26.31,268.6c20.12,1,36.49-7.68,51.09-20.24a192.12,192.12,0,0,0,39.11-46.84c17.28-28.61,26.44-60.09,33.75-92.28,1.93-8.48-1.24-10.69-10.76-7.76a359.51,359.51,0,0,0-83.06,37.14c-25.13,15.44-47.84,33.48-62.23,60.1a67.81,67.81,0,0,0-7.31,43.58,30.16,30.16,0,0,0,26.92,25.54C2533.3,1944.24,2537.49,1944.31,2541.65,1944.55Zm-136-245,2.94,3.25c3.3-1.89,7.05-3.27,9.79-5.77a140.43,140.43,0,0,0,14.47-15.3,40.09,40.09,0,0,0,6.51-11.83c.8-2.24-.53-5.24-.91-7.9-2.95.7-7,.42-8.64,2.28-5.37,6.22-10,13.13-14.64,20C2411.82,1689.24,2408.84,1694.48,2405.68,1699.6Z"/><path class="cls-1" d="M2174.58,1616.15c-7.22,18.94-13,36.78-20.72,53.74-15.15,33.27-34.54,63.74-63.82,86.77-7.9,6.21-16.12,11.72-26.17,14.11-20.33,4.81-39.7-8.35-41-29.19a148.63,148.63,0,0,1,1.69-34.83c2.85-15.92,7.73-31.48,11.69-47.2.78-3.12,1.33-6.3,2.14-10.18-7-.13-9.09,4.85-12.24,8.23-33.32,35.68-67.47,70.47-107.33,99.06-13.93,10-28.43,19-45.57,22.57a66.79,66.79,0,0,1-7.35,1.46c-21.49,2-35.11-14-29.89-34.86,6-24.06,16.84-46,29.18-67.37,17.07-29.56,34.56-58.93,50.14-89.27,7.7-15,12.83-31.69,16.82-48.17,8.54-35.25-9.53-53.26-45.26-45.64-11.3,2.41-22.85,5.85-33,11.3-48.74,26.27-90.52,60.87-122.59,106.4-8.18,11.63-15,24.1-17.37,38.42-2.56,15.15,4.59,22.31,19.84,19.49,4.44-.82,8.64-2.94,13-4.36,3.14-1,6.33-2.49,9.53-2.59,2-.06,4.74,1.59,6,3.31.75,1-.23,4-1.3,5.54-6.85,9.56-36.88,16.32-47.39,10.86-11.16-5.8-15.72-15.23-14.45-29.21,1.76-19.32,10.21-36,21-51.53,31.57-45.55,73.54-79.29,122.59-104.21,14.72-7.48,30.8-12.55,46.65-17.47,12.52-3.88,25.47-2.95,38.26.73,17.51,5,27.85,16.3,30.33,34.19,2,14.74-.44,29.07-6,42.85-13.7,34.12-32.11,65.81-50.42,97.56-12.27,21.28-24.92,42.36-36.43,64-4.41,8.31-6.84,17.89-8.88,27.17-3,13.61,5.42,21.81,18.55,17.49a131.53,131.53,0,0,0,30.22-14.49c26.67-17.31,50.31-38.41,73.08-60.54,29.37-28.53,55.86-59.59,81.69-91.26,3.16-3.87,6.27-7.89,10-11.12a21.66,21.66,0,0,1,9.72-5c7.41-1.32,11.13,3.94,7.74,10.72-3,5.94-6.79,11.45-9.86,17.35-12.17,23.29-23.19,47.06-29.77,72.64-4.81,18.7-7.39,37.63-4.59,56.91,2.29,15.72,11.3,21.18,25.45,14.16,8.41-4.17,16.17-10.28,23-16.75,24.39-23,41.26-51.1,53.65-82,3.7-9.24,6.57-18.82,9.59-28.32,4.13-13,5.23-25.65-.11-39-2.61-6.55-1.85-14.77-1.22-22.11.25-2.84,4-7,6.81-7.55s7.13,2,9.1,4.45a33.77,33.77,0,0,1,7,24.66c-.73,7.58,1.39,13.05,8.63,16.1a4.14,4.14,0,0,1,2.05,1.37c1.27,2.37,3.08,4.85,3.09,7.3,0,1.08-3.72,2.75-5.93,3.12C2181.09,1616.55,2177.74,1616.15,2174.58,1616.15Z"/><path class="cls-1" d="M483.21,1661.17c-17.73,10.61-14.74,27.52-18.84,41.35-4.7,15.9-7.19,32.45-10.84,48.67-1.71,7.62-1.49,8,6,10.36,5.1,1.6,10.29,3.37,14.82,6.09,1.79,1.07,3.11,5.31,2.42,7.36-.55,1.62-4.48,2.13-6.94,3.06-.32.12-.79-.2-1.2-.27-19.48-3.06-20-3.2-25.2,16-9.37,34.46-23,66.87-43.75,96.11-17.11,24.1-37.47,44.45-63.9,58.57-22.83,12.2-49,11-68.34-3.62-15.63-11.83-20.66-27.46-18.71-46.2,1.41-13.61,6.83-25.59,14.34-36.86,12-18,27.85-32.09,45.44-44.22,28.2-19.46,57.44-37.08,90.55-47.17,7.16-2.19,14.39-4.24,21.68-5.94,4.76-1.12,9.14-2.79,10.42-7.77,2.12-8.3,3.58-16.78,5.31-25.19l-2.77-1.44c-2.71,3.25-5.85,6.24-8.06,9.8a67.28,67.28,0,0,1-25.37,23.56,29.31,29.31,0,0,1-13,3.6c-9.37.21-14.53-5.29-15-14.7-.08-1.65.48-3.32.42-5a46.15,46.15,0,0,0-1.16-6c-3.51,2.31-6.3,3.81-8.71,5.77-9.43,7.68-19.38,14.63-31.23,17.8a88.67,88.67,0,0,1-21.88,3.2c-10.54.1-18-6-22.83-15a46,46,0,0,1-3.18-37.46,138.31,138.31,0,0,1,26.6-47.66c7.71-9,16.65-16.28,27.73-20.8,8.62-3.52,12.82-2.74,19,3.62,5.45,5.57,6.39,12.4,2.34,18.29-7.27,10.56-15,21-24,30.11-7.22,7.28-16.43,12.69-25.11,18.4-6.82,4.49-11,16.46-8.29,26.34,2.12,7.81,8.43,11.84,18.78,10.07,8.06-1.38,16.53-3.35,23.51-7.34,19-10.84,35.24-24.47,46.23-44.34,10.09-18.24,22.84-34.87,41-46.45,12.41-7.92,25.31-10.6,39-3.92C474.4,1653.89,477.61,1657.06,483.21,1661.17Zm-56,115.28c-3.64.23-6.21-.09-8.45.61-29.47,9.31-57.79,21.28-84.19,37.45-22.16,13.57-42.77,29-57.3,51.14-9.66,14.74-14.86,30.65-13.2,48.39,1.25,13.41,10.59,26.46,22.5,28.55,14.75,2.59,29.7,3.1,44.13-3.35,23.74-10.61,40.57-28.82,55-49.47,22.62-32.29,34.73-68.87,42.23-107.17C428.25,1781.12,427.6,1779.46,427.2,1776.45Zm-37.91-35.38c1.43,3.07,2.06,7.23,4.24,8.34s6.6.13,8.9-1.52A69.93,69.93,0,0,0,415.18,1736c6.14-7.33,12.35-14.76,17.28-22.9,8-13.13,15-26.81,22.11-40.43.93-1.78.69-5.34-.54-6.72s-4.59-1.88-6.64-1.34a31.42,31.42,0,0,0-8.89,4.41c-19.94,12.92-32.66,31.75-42.48,52.77C393.24,1727.77,391.63,1734.26,389.29,1741.07Zm-77.75-39.6c10.95-.48,15.36-8.8,20.71-14.8,5.06-5.68,8.49-12.87,12.18-19.64.52-1-1.21-3.77-2.58-4.9-.85-.7-3.3-.32-4.48.43a19.65,19.65,0,0,0-5.37,5q-10,14.16-19.53,28.6C311.72,1697.33,311.92,1699.11,311.54,1701.47Z"/><path class="cls-1" d="M171.09,1524.74c13.29,0,26.63-.08,38.13,8.61,8.14,6.15,13.85,13.74,13.19,24.13s-1.09,21.09-4.48,30.66c-11.67,32.91-24.66,65.36-37,98-6.8,18-11.27,36.57-12.31,55.87a29.6,29.6,0,0,0,0,5c1,8.54,5.51,11.37,12.66,6.8,7.66-4.9,15.75-10.08,21.44-17,17-20.52,34.31-41,48.8-63.21,25.46-39.06,48.55-79.66,73.38-119.15a397.26,397.26,0,0,1,32.55-44.24c7.95-9.45,17.65-17.73,27.69-25,5.33-3.86,12.95-5.14,19.74-6.07,2.21-.3,6.51,3.79,7.31,6.59,1.15,4-3,5.21-6.5,5.58-11.85,1.21-19.82,8.8-26.35,17.48-16.53,22-33.17,43.92-48.37,66.79-20.06,30.16-37.94,61.79-58.36,91.69-16.64,24.37-35.13,47.57-53.85,70.43-7.82,9.54-18.2,17-27.71,25.11a43,43,0,0,1-10.79,6.19c-17.33,7.52-30.76-1.08-31.56-20-.86-20.34,3.73-39.81,10.81-58.58,9.84-26.08,20.86-51.71,30.88-77.73a318.93,318.93,0,0,0,12.37-37.87c5.19-21-5.9-35.14-27.67-36.24-20-1-39.1,3.47-57.16,11.41-28.49,12.52-54.26,29.19-74.82,53.08-11.74,13.64-18.76,29.42-21.93,47-2,11.23,3.81,17.59,15.43,16.66,5.38-.43,10.65-2.26,16-2.55,2.4-.13,4.92,1.95,7.39,3-1.1,2.48-1.56,5.7-3.42,7.34-9.53,8.41-36,9-46.32,1.53-7-5-11.11-11.73-9.84-20.28,1.15-7.71,2.68-15.72,6-22.68,10.32-21.79,25.53-39.93,44.38-55,21.29-17,44.19-31.56,69.45-41.68C136.35,1530,153,1523.74,171.09,1524.74Z"/><path class="cls-1" d="M856.13,1665.58c-2,9.13-7.28,12.16-13,13-8.57,1.19-17.48,2.12-26,1.13-15.25-1.78-24.69-15.23-20.21-29.83a128.5,128.5,0,0,1,15.61-33.74c23.53-34.92,57.27-57.56,94.8-75.19,22.56-10.6,45.94-17.81,71.19-15.24a70.78,70.78,0,0,1,22.62,6.15c13.06,6.14,19.22,17.67,17.32,31.71a199.61,199.61,0,0,1-9.3,40c-9.52,26.62-20.6,52.68-30.79,79.07-7.21,18.71-12.39,38-13.85,58.07a36,36,0,0,0-.16,3.74c.35,11.36,5.9,14.92,15,8.39,9.41-6.77,19.08-14,26.14-23,18.5-23.56,36.68-47.5,53-72.56,19.11-29.26,35.39-60.38,54.36-89.74,14.43-22.33,30.74-43.49,47-64.53a70.78,70.78,0,0,1,30.87-22.77c5.39-2.07,10.56-2.63,15.45.89,4.28,3.08,3.78,8.84-1.18,9.37-19.53,2.07-29.69,16.45-39.24,30.33q-41.08,59.68-80.4,120.58c-23.24,36.15-46.2,72.43-76.93,102.87-8.52,8.44-17.84,16.55-28.07,22.7-19.78,11.91-35.72,2-35.72-21,0-21.6,5.71-42,13.5-61.83,12.76-32.53,26.06-64.86,38.76-97.41a65.5,65.5,0,0,0,3.8-18.27c1.28-15.84-6.69-26.62-22.31-29.75a59.12,59.12,0,0,0-19.84-.81c-49.11,7.24-89.27,30.84-121.65,68-10.65,12.22-16.26,27-19.75,42.68-2.77,12.46,4.47,20.39,17.17,18.8,3.71-.47,7.31-1.85,11-2.23C848.48,1664.76,851.63,1665.32,856.13,1665.58Z"/><path class="cls-1" d="M552.9,1724.62c-2.4,3.09-4.71,6.25-7.22,9.25-6.66,8-13,16.2-20.26,23.63a43,43,0,0,1-13.46,8.88c-13.27,5.84-24.93-2.12-24.21-16.69a58.94,58.94,0,0,1,4.17-18.16c11.72-30,28-56.9,55-75.64,11.74-8.13,24.86-11.86,38.88-4.86a36,36,0,0,1,6.47,3.67c4.3,3.43,5.43,7.35.7,11.42-8.15,7-11.29,16.68-12,26.68-1,15.32-1.62,30.81-.59,46.11,1,14.88,10.16,18,22.34,8.94,7.76-5.78,13.34-12,10.72-23.11-1-4.23,1.59-9.32,2.39-13.24,2.46-.69,3.46-1.33,4-1.07,9.68,4.47,15.37,0,20.15-8.17,6.55-11.12,13.7-21.88,20.46-32.87,8.56-13.9,17.74-27.34,31.08-37.16,9.64-7.1,20-10.42,31.3-3.27,1,.67,2.46,1.16,3,2.13,1.83,3,5.08,6.68,4.47,9.33-.52,2.27-5.42,4.07-8.69,5.06-4.66,1.42-10.05,1-14.34,3-12.88,6.07-16.58,15.14-12.24,28.64,2.29,7.13,5.53,13.94,7.86,21.06,3.73,11.39,7,22.91,11,35.79,11.77-1.52,22.4-6,31.12-14.88,2.33-2.37,4.24-5.18,6.69-7.42,2.76-2.52,5.83-5,10.79-1.36-.8,2.28-1.16,5.16-2.65,7.24-10.06,14-23.83,23.24-40.14,28.31-6,1.87-10,4.43-13.11,10.15-11.47,21.4-36.12,28.94-57.86,17.37-8-4.24-14.88-10.56-22.12-16.12-2.88-2.21-5.38-4.93-8.48-7.81-12.87,10-24.64,22.92-42.45,15.73-17.34-7-21.42-22-19.39-39.63Zm-47.64,15.92c1.61,3.37,2.41,8.22,4.77,9.15,2.56,1,7.28-.74,9.79-2.82a102.64,102.64,0,0,0,13.81-14.3c14.23-17.48,26.35-36.32,34.86-57.28,1.13-2.77,1-6.06,1.43-9.11-3.47.09-7-.28-10.38.42-2.3.48-4.33,2.38-6.41,3.75-18,11.79-29.72,28.86-39.23,47.56C510.37,1724.86,508.26,1732.53,505.26,1740.54ZM674.45,1669,639,1722c2.28,1.64,4.85,4.59,8,5.56a307.24,307.24,0,0,0,32.45,8.52c8.9,1.69,11.49-1.08,9.73-10.37-2.32-12.19-5.69-24.2-8.77-36.24C678.88,1683.57,677,1677.79,674.45,1669Zm-44.57,67.2c4,15.06,17.4,25.17,32.74,26.55,10.46,1,17-2.37,21.54-12.33-9.21-1.22-18.12-1.54-26.54-3.74C648.72,1744.38,640.29,1740.26,629.88,1736.23Z"/><path class="cls-1" d="M2228.93,1614.42c6.06-.29,12.56,6.4,12.66,13s-8.17,15.76-14.85,16.3c-6.11.5-13.12-5.78-13.6-12.19C2212.68,1625.57,2222.67,1614.72,2228.93,1614.42Z"/></svg>