<svg id="Layer_1" data-name="Layer 1" xmlns="http://www.w3.org/2000/svg" viewBox="0 0 3058.03 1959.85"><defs><style>.cls-1{fill:#da8b2e;}</style></defs><path class="cls-1" d="M1785.79,280.7c1,7.24-2.35,8.89-6,10.29-3.89,1.5-7.78,3-11.65,4.52-22.34,8.87-34.32,26.52-41.93,48.35-10.42,29.87-21.43,59.53-32.28,89.24q-17.15,46.92-34.46,93.77c-11.24,30.44-22.35,60.94-33.9,91.27-11.69,30.72-23.86,61.25-35.76,91.89a49.41,49.41,0,0,0-1.48,6.44c6.24.31,9.07-3.47,11.89-6.68,40.41-46.08,81.27-91.77,120.9-138.5,31.27-36.88,60.91-75.13,91.46-112.61a389,389,0,0,1,26.47-30c14.77-14.72,32.7-22.77,54-21.85,16.87.73,24.71,11.68,17.69,26.83-9.63,20.76-21,40.7-31.14,61.24-25.6,51.92-52.33,103.35-76,156.15C1776.4,712,1754.54,775.14,1742,840.86c-8.11,42.48-15.6,85.35-13.63,129,1.19,26.24,2.88,52.49,11.92,77.54,8.63,23.92,23.24,41.23,50.15,44.89,13.46,1.84,18-.43,22.83-13.4Q1843.08,998,1872.52,917c20-55.18,39.63-110.52,59.73-165.67,22.67-62.2,45.86-124.21,68.48-186.43,21.19-58.32,41.92-116.8,62.89-175.2,5.49-15.28,11.46-30.4,16.54-45.81a87.75,87.75,0,0,0,4.27-22c.75-12.71-2.78-24-14.73-31-3.2-1.87-6.83-3.64-5.18-9.49h147.69c2.36,6.48-2.25,7.8-6.3,10-8.73,4.75-17.83,9.14-25.73,15.08-19.12,14.37-28.78,35.36-36.85,57-16.92,45.26-33.43,90.67-50,136.06-19.55,53.57-38.92,107.22-58.48,160.79s-39.37,107.1-58.9,160.71c-19.25,52.82-38.24,105.74-57.45,158.58-6.26,17.2-12.87,34.29-19.26,51.44-.53,1.42-.65,3,.74,6.21,3.08-2.24,6.46-4.17,9.21-6.75A1040,1040,0,0,0,2041.6,879.2c24.94-34.63,44.33-72.53,63.14-110.65,13.62-27.64,26.48-55.67,38.89-83.87,22.06-50.11,39.5-101.71,48.12-156,4.87-30.61,2.42-60.28-8.73-89.64-9.45-24.86-17.87-50.4-15.26-77.82,1.15-12.07,2.31-24.3,10-34.35,3.46-4.55,7.56-9.31,12.47-11.94,12.6-6.75,24.29-6.1,33,4,5.65,6.56,11.28,13.54,15,21.25,17.26,35.37,22,73.17,19.5,112-1.13,17.81,4.73,28.52,21.69,36.33,5.29,2.43,11,4.07,16.11,6.79a44.8,44.8,0,0,1,12,8.66c6.19,6.73,4.63,15.65-3.46,19.93a26.73,26.73,0,0,1-13.1,3.33c-12-.6-24.11-1.23-35.33-6.79-8.46-4.19-10.19-3-12.77,6.49-7.79,28.51-14.34,57.44-23.79,85.4-12.79,37.83-27.1,75.19-42.06,112.24-22.82,56.55-51.61,110.18-84.26,161.63-39.92,62.89-85.14,121.62-141.34,171.12-22.87,20.14-47.2,38.48-73.79,53.55a26.33,26.33,0,0,0-12.51,14.81q-26.1,72.9-52.53,145.69c-12.82,35.22-26.09,70.28-38.93,105.5-9.55,26.2-18.72,52.55-28.06,78.83-.7,2-.91,4.37-2.21,5.77-1.8,1.93-4.31,3.92-6.73,4.24-1.23.16-3.53-3.06-4.33-5.15-10.34-26.76-20.28-53.67-30.74-80.38Q1667,1291.84,1632,1203.6q-25.89-65.65-51.76-131.31-27.83-70.27-55.92-140.43c-1.28-3.21-3.47-6.06-6-10.45-2.33,3.22-3.9,4.62-4.52,6.36-8.54,23.9-16.85,47.9-25.43,71.79q-16.47,45.86-33.27,91.57c-11.12,30.07-22.58,60-33.8,90-11.08,29.65-22,59.34-33.08,89-8.58,23-17.36,46-25.8,69q-16.74,45.73-33.09,91.62c-3.51,9.79-6.48,19.79-10.25,29.48-1,2.71-4.06,4.67-6.17,7-2-2.37-5.13-4.46-5.78-7.15-6.81-28.13-19.86-53.89-30.49-80.54-18.35-46-37.36-91.73-55.93-137.64-12.8-31.65-25.26-63.43-38.07-95.07-2.3-5.66-5.56-10.94-8.81-17.24-3.92,1.72-6.92,2.81-9.72,4.29-40.68,21.59-83.64,35.24-130,36.32-16.68.39-33.17-1-49.27-6.72-33.73-11.87-50.84-36.17-54.65-70.74-3.06-27.79,1.5-55,8.74-81.6,15.38-56.52,39.22-109.7,65.9-161.65,8.94-17.41,18.44-34.55,28.12-51.57,3.61-6.34,4.09-11.62,1.11-18.66-13.78-32.6-26.8-65.52-40.12-98.31-13.63-33.55-27.36-67-40.9-100.63-15.88-39.37-31.38-78.89-47.46-118.18-14-34.27-27.39-68.92-43.36-102.29-16.11-33.67-43-56.87-78.8-69-4.92-1.67-9.54-3.21-8.7-10.69,100.75,2.75,201.2,2.9,302,1.26.57,7.32-4.41,7.74-8.42,9.69-9.3,4.53-19.24,8.44-27.32,14.67-24.22,18.69-31,43.83-22.13,72.53,5.8,18.65,13.49,36.74,20.8,54.9,23.5,58.34,47.25,116.59,70.82,174.91,3.12,7.7,5.6,15.66,8.73,23.36,1,2.44,3.68,6.45,4.71,6.19a12.73,12.73,0,0,0,7.39-5.2c17.19-29,34.76-57.9,50.91-87.52,19.54-35.84,38.64-72,56.35-108.71,12.81-26.58,22.87-54.48,34.54-81.62,3.07-7.13,1.61-12.76-2.52-18.61-14.8-21-33.22-37.29-58.38-44.82-4.71-1.41-10-2.3-9.44-10.5,4.21,0,8.15-.09,12.08,0,23.76.64,47.53,1.5,71.29,1.9,8.95.15,11.63-2.12,13.77-11.34,9.78-42.06,15.64-84.55,9.43-127.69-5.88-40.83-26.86-70.81-67.22-83.81-21.87-7.05-44.82-9.43-68-8-51.94,3.12-100.51,18.42-147.51,39.94-62.46,28.61-120.14,65-175.56,105.31C770,256.1,694,321.05,624.48,393.42c-46.36,48.24-88.62,99.7-123.91,156.69-18.26,29.5-34.94,59.88-45.24,93.07-6,19.38-10.66,39.39-9.78,60.14,1.17,27.61,17.47,46,44.88,50.11,18.93,2.83,37.26.76,55.45-5.41,22.46-7.61,45.26-14.2,67.9-21.28a27.35,27.35,0,0,1,20.69,1.34c8.17,3.89,11.21,10.82,6,18.29-4.88,7-10.84,14.48-18.11,18.48a365.91,365.91,0,0,1-49.83,22.78c-16,5.88-32.59,10.9-49.36,13.56-25.16,4-50.72,5.55-74.79-6.2q-35.83-17.47-45.79-56.18c-8.81-34.52-5.1-68.79,2.55-102.76,12.73-56.49,39.24-107,70.54-155A791.87,791.87,0,0,1,577.41,354.43c34.66-34.88,69.63-69.68,106.8-101.82,62.25-53.83,130.09-100.19,201.14-141.83,41.4-24.26,83.92-46.32,128.08-65.12,41.11-17.51,83.47-31.37,127.39-39.76A334.49,334.49,0,0,1,1266.53,6c30.07,5.69,58.61,15.9,83,35.66,29.64,24,46.86,54.92,53,92.09,7,42.59,2.32,84.78-6.25,126.67-.83,4-2.81,7.83-4.07,11.79-2.24,7-.82,9.35,6.35,9.74,5,.26,10-.06,15-.15q41.88-.72,83.77-1.39c2,0,3.9.69,6.07,1.11,1.14,7.63-4.55,7.84-8.86,9.94-9.67,4.69-20,8.72-28.39,15.2-20.37,15.74-27.17,36.71-21.43,62.17,5.27,23.37,15.22,44.91,24.44,66.73,21.09,49.88,42.71,99.52,64,149.34,5.87,13.78,11.11,27.83,16.74,41.72.74,1.82,2.07,3.4,4.4,7.14,2.35-5.2,4.22-8.65,5.52-12.31q31.08-87.69,62-175.44c9.68-27.47,19.4-54.94,28.73-82.54,3.73-11,6.85-22.28,9.57-33.59,3.88-16.15,2.22-30.77-13.51-40.65-1.59-1-2.51-3-5.2-6.46,13.54-1.85,25.36.66,37,0,12.06-.66,24.19-.16,36.3-.2,11.67,0,23.35.1,35-.22C1761.71,282.06,1773.62,281.29,1785.79,280.7ZM1322.16,443.78c-2.16,2-3.39,2.65-3.9,3.66-8.43,16.72-16,33.89-25.25,50.18q-63,111.55-126.85,222.61c-4.16,7.23-5.13,13.16-1.75,21,9.59,22.15,18.43,44.64,27.51,67q39.24,96.64,78.52,193.28c1,2.42,3.11,4.38,4.88,6.8a40,40,0,0,0,5.1-2.89c24-19.35,47.94-38.82,72-58.13,42.67-34.22,82.24-71.87,121.79-109.56,9-8.53,8.74-8.59,3.83-20.1-12.73-29.86-25.71-59.63-38-89.7-22.92-56.29-45.25-112.82-68.09-169.14-14.71-36.27-29.86-72.37-44.93-108.49C1326.2,448.18,1324.27,446.52,1322.16,443.78Zm-269.9,316.84c2.48-1.74,3.83-2.21,4.4-3.16,16.59-27.43,33.06-54.93,49.65-82.36,2.82-4.67,3-8.91.85-14.11-14.35-34.56-28.41-69.25-42.49-103.93-21.44-52.79-42.32-105.82-64.43-158.32-9.39-22.27-7.57-43.87-.9-65.72,3.59-11.74,8.82-23,13.83-35.81-59.43-1-118-.72-177.21,1.37,1.9,7.49,7.66,9.16,11.76,12.18a116.59,116.59,0,0,1,31.65,34.9c16.2,27.33,28.2,56.56,39.94,85.93q31.49,78.81,63,157.63,32.54,81.76,64.91,163.59C1048.19,755.35,1050.2,757.5,1052.26,760.62Zm465.81,88.75c-3.38,3.06-6.15,5.31-8.62,7.86-7,7.16-13.48,14.83-20.85,21.56A58.17,58.17,0,0,0,1473,902.43c-17.83,48.45-36.24,96.69-53.76,145.26-23,63.77-45.32,127.78-68.19,191.61-.92,2.56-4.41,5.88-6.64,5.83s-5.38-3.49-6.4-6.12c-5.59-14.3-10.33-28.93-16-43.22q-22.4-56.94-45.35-113.67c-1.93-4.78-4.87-9.17-7.31-13.68a37.41,37.41,0,0,0-4.83,2.07c-20.42,13.7-40.78,27.48-61.23,41.14-8,5.36-9,7.28-5.3,16.5,7,17.41,14.38,34.63,21.36,52q28.17,70.13,56.08,140.36c11,27.88,21.55,56,32.46,83.88.92,2.34,3.06,4.21,6.29,8.5,1.53-3,2.47-4.41,3-6q101-276.24,201.85-552.53C1519.42,853.46,1518.66,852.11,1518.07,849.37Zm-339.71,226c3.31-.9,4.7-.93,5.66-1.59,20.22-14,40.61-27.69,60.49-42.13,9.18-6.67,8.56-7.24,4.28-17.75q-21.16-52-42.15-104.11-29-71.77-58-143.55c-1-2.39-3-4.34-4.51-6.39-1.32.73-1.84.83-2,1.13-17.07,28.58-34.26,57.09-51,85.88-1.78,3.08-1.28,7.92-.71,11.77.47,3.16,2.78,6,4,9.09q34.15,85.21,68.27,170.43C1167.64,1050.41,1173,1062.52,1178.36,1075.37Zm-105.74-196c-2.81,3.62-4,4.75-4.7,6.13-8.05,15.52-16.48,30.87-23.92,46.69-18.12,38.49-34.91,77.37-39.11,120.55-1.53,15.72-.54,30.86,3.83,45.7,4.21,14.28,14.37,24,29,26.18s30.1,2.25,44.66-2.33c22.27-7,44.16-15,64.28-27.27,10.33-6.27,11.22-7.93,6.84-18.84q-15.35-38.22-30.86-76.36-21.86-53.8-43.79-107.56C1077.38,888.57,1075.4,885.05,1072.62,879.38ZM1677,297.78c1.23,8.22,3.74,14.88,2.84,21.05-2.07,14.36-4.65,28.84-9.09,42.61-7.4,22.93-16.47,45.32-24.74,68q-23.73,65.05-47.35,130.13c-11,30.11-21.78,60.27-33.07,90.25C1548,696.5,1530,743.07,1512.31,789.73a75.07,75.07,0,0,0-2.21,8.62l2.38,1.53c3.33-2.82,6.91-5.4,10-8.5,6.7-6.86,12.7-14.43,19.75-20.88A67,67,0,0,0,1562,739.37c2.82-9.57,6.52-18.88,9.91-28.27C1585,674.72,1598,638.3,1611.33,602c15.73-43,31.75-85.78,47.5-128.72,15.49-42.17,30.49-84.53,46.35-126.56,6.17-16.35,13.72-32.27,28.2-43.52,1.34-1.05,1.81-3.23,2.95-5.4Zm-232,628.3-2.54-2c-3.37,2.88-6.86,5.63-10.08,8.67-5.15,4.85-9.81,10.26-15.22,14.79q-58.89,49.34-118.06,98.35c-7.82,6.49-8.28,7.82-4.61,16.77,15.3,37.32,30.46,74.69,45.82,112,1.28,3.11,3.62,5.79,6.83,10.78C1382.47,1097.93,1413.23,1011.82,1445,926.08ZM1733.5,630.65c-2.56,2.37-5.27,4.6-7.65,7.14-6.26,6.68-12.18,13.68-18.58,20.23q-48,49.13-96.32,98c-5.32,5.36-7,9.82-3.9,17.43,17.94,44.77,35.22,89.8,52.82,134.71.67,1.71,2.29,3.06,5.32,7C1683.33,817.74,1707.54,724.4,1733.5,630.65Zm18.08,503.84,19.92,50.25,3.08,0c2.76-7.58,6.39-15,8-22.79s9.37-14,6.35-22.9Z"/><path class="cls-1" d="M1771,1698.38c-8.42,3.81-9.35,9.66-12.31,13.87-7.88,11.23-15.25,22.85-23.71,33.62-4,5.11-9.64,9.27-15.23,12.74-10,6.21-18.71,3-23.1-7.79-1.22-3-2.13-6.11-3.67-10.6-3.48,2.23-6.36,3.59-8.64,5.61-10.8,9.61-23.55,15.75-37,20.33-18.66,6.35-33.6-1-41.29-19.46a36.08,36.08,0,0,0-2.14-3.92c-5.75-2-7.8,2.55-11,4.86-11.13,8-21.75,17-33.69,23.53-25.75,14.09-51.16.37-55.2-28.79-.38-2.76-1.07-5.49-2.09-10.6-4.06,3-7.08,4.75-9.37,7.15a174.33,174.33,0,0,1-43.55,33.19c-25.34,13.63-49.46,2.37-54.67-25.8-.68-3.66-1.36-7.32-2.21-11-.15-.62-1.19-1-3.14-2.64-2.59,2.65-5.24,5.46-8,8.16-6.5,6.41-12.45,13.58-19.72,18.95-9.57,7.06-20.6,9.28-31.73,2.92-10.69-6.1-16-15.46-15.64-27.9.07-3.13-.38-6.28-.63-10.14-6.27,1.14-7.51,6-10.38,9.25-8.26,9.3-16.19,19-25.4,27.29-6.53,5.86-15.09,9.68-24.16,4.27-7.48-4.45-9.64-14.11-6.31-25.93,7.75-27.51,22.83-50.81,42-71.52a71.65,71.65,0,0,1,31.46-19.64c11.23-3.54,20.54.75,29.4,6.31,5,3.15,5.28,7.49.66,11.28-7,5.78-9.74,13.64-11.31,21.69-3.38,17.22-4.83,34.68-2.18,52.2,2,13.55,11.92,18.35,22,9.44,10.84-9.59,20.08-21,29.71-31.94,1.77-2,2.51-5.29,2.91-8.09,4.19-29.39,16.49-55.79,30.4-81.5a637.17,637.17,0,0,1,70.56-104.47,140,140,0,0,1,27.75-24.9c13.22-9.15,25.85-5.16,31.68,8.91,1.61,3.88,1.61,8.94.84,13.19-3.11,17.12-11.42,32.18-20.85,46.43-33.68,50.88-71.73,98.28-115,141.36-5.52,5.5-10,10.6-8.86,19.36,1.69,12.47,2.29,25.24,13.2,33.87,4.77,3.77,10.63,5.24,16.53,2.7,7.6-3.26,16-5.73,22.25-10.82,13.19-10.77,25.39-22.8,37.49-34.82a21.64,21.64,0,0,0,6-12c2.3-21.17,10.77-40.31,20-58.89C1545,1604.3,1570.1,1563,1601.72,1526a185.73,185.73,0,0,1,29.19-27.12c12.92-9.73,27.09-5.48,32.4,9.15,1.67,4.61,1.13,10.73-.28,15.62-7,24.4-20.2,45.87-35.38,65.69-26.08,34.06-53.45,67.15-80.63,100.36-6.3,7.7-13.82,14.45-21.14,21.26-4.63,4.31-7.35,9.08-6.22,15.42,1.61,9,2.32,18.31,5.51,26.7,4.5,11.83,14.45,15.46,26.61,11.51,20.67-6.72,35.51-21.44,49.44-37,3.08-3.43,3.94-9,5.24-13.82,6.48-23.78,20.09-42.8,39-58.16,4.14-3.37,9.23-5.59,14-8.18,6.35-3.47,12-2,17.23,2.6,5,4.44,6.08,10.19,3.89,15.94a60.91,60.91,0,0,1-8.48,15.16,130.47,130.47,0,0,1-41.5,35.53c-7.77,4.24-11.83,17.89-8.7,28.5,2.25,7.65,9.73,11.53,20.41,10.1,21.44-2.89,37.47-15.38,51.86-30.28,2.37-2.45,3-6.73,4.1-10.26,4.07-12.75,8.68-25.27,17.92-35.34,6.2-6.76,11.3-8.38,15-5.58s2.7,7.78-1.82,15.64c-5.39,9.35-10.33,19-14.86,28.79-1.87,4-2.61,8.79-3,13.3s-.52,10.37,4.95,11.38c3.2.59,8-1.9,10.53-4.48a87.43,87.43,0,0,0,13.13-16.63c12.82-21.44,25.15-43.17,37.74-64.74,1.87-3.21,3.58-6.94,6.41-9,2.66-2,6.89-3.29,10.08-2.77,4.82.79,6.08,5.51,5.62,9.87-1,9.93-2.11,19.89-4,29.69-4.18,22.1-8.89,44.08-13.26,66.14-1.57,7.89-.89,8.46,7.45,11.12,4.32,1.38,8.78,2.88,12.49,5.34,1.89,1.25,2.28,4.77,3.35,7.26-2.43.94-4.85,2.58-7.31,2.66-3.25.1-6.53-1.19-9.84-1.58-9.46-1.15-10.61-.33-13.08,8.84-7.06,26.19-15.41,52-28.28,75.93-16.52,30.77-37,58.36-66.25,78.59a108.86,108.86,0,0,1-41.16,17.12c-35.13,7-66.9-23.94-61.6-59.12,2.59-17.18,10.87-31.34,21.36-44.5,17.74-22.26,41-38,65.29-51.79,19.86-11.23,40.93-20.4,61.79-29.76,6.71-3,14.42-3.85,21.72-5.48,10.22-2.29,12.13-4.47,13.92-14.77,1.92-11.07,4.42-22,6.35-33.12C1769.82,1712.09,1770.1,1706.37,1771,1698.38Zm-12.61,77.44c-5.58.69-8.91.57-11.88,1.55-23.7,7.88-47,16.63-68.88,29-27.06,15.25-52.5,32.35-70.4,58.52-10.69,15.63-16.54,32.65-13.51,51.82,2.22,14.11,12.85,25.07,25.95,26.79,22.46,3,43.19-1.24,60.73-16.36a221.16,221.16,0,0,0,21.63-20.66c28.31-32,43.58-70.41,53-111.47C1756.22,1789.43,1757,1783.77,1758.34,1775.82Zm-235-82,3.08,2.23c3.56-3.2,7.56-6,10.6-9.68,13.89-16.64,28-33.12,41.12-50.36,21.47-28.2,42.19-57,56.83-89.51,3.89-8.63,6.09-18.13,8.06-27.45.62-3-1.2-7.57-3.51-9.58-1.54-1.34-6.44-.28-8.93,1.22A49,49,0,0,0,1618,1520.8c-8.52,10.23-16.93,20.63-24.37,31.64-27.19,40.25-47.1,84.27-65.81,128.87C1526.12,1685.39,1524.81,1689.64,1523.31,1693.8Zm-111.29,2c.84.54,1.69,1.07,2.54,1.6,2.73-2.32,5.8-4.35,8.13-7,6.57-7.53,12.83-15.32,19.24-23,28.67-34.25,54.88-70.27,75.89-109.71,6.35-11.92,9.61-25.57,13.46-38.67.79-2.71-1.23-7.48-3.53-9.44-1.48-1.26-6.13.35-8.87,1.67a24.78,24.78,0,0,0-7.82,6.13c-8.62,10.12-18,19.79-25.24,30.84-29.11,44.3-51.6,92.09-72.3,140.75C1412.62,1691.06,1412.5,1693.5,1412,1695.79Zm-149.69,44.47c1.54,3.85,2.06,8.54,4,9.27,2.81,1,7.52.23,10-1.67a80.76,80.76,0,0,0,14-14.08c13.28-17.06,26.06-34.5,33.71-55,1.59-4.26,8-8.35,2.4-13-4.63-3.83-9.27.65-13.56,2.92-.73.38-1.37.95-2.07,1.38-17.2,10.7-28.24,26.88-37.9,43.91C1268.28,1722.11,1265.78,1731.47,1262.33,1740.26Zm369.7-36.84c2.14-.59,5.5-.48,7-2.1,8.49-8.92,16.58-18.22,24.68-27.51a7.42,7.42,0,0,0,1.7-4.57c0-2.3-.14-6-1.39-6.59-2.14-1-6.35-1.11-7.67.3-10.69,11.36-20.5,23.42-25.67,38.49C1630.65,1701.67,1631.14,1702.09,1632,1703.42Z"/><path class="cls-1" d="M2687.41,1676c-8.47,13.32-15.95,26.31-24.62,38.45a143.32,143.32,0,0,1-62.76,49.88c-22.69,9.39-36.33,4.26-48.54-17.51-.38-.69-1.16-1.16-2.87-2.8-2.44,2.22-5,4.55-7.59,6.9-10.6,9.65-21.49,18.56-37.06,18.32-13.83-.22-21.59-5.67-26.23-18.84-4-11.53-2.32-23,.05-34.55,1.14-5.56,2.43-11.09,3.76-17.1-7-.85-9.35,3.52-11.9,7-14.1,19.06-31.82,35.42-42.53,57-1.83,3.68-5.32,6.37-9.07,4.06-1.9-1.17-2.15-5.43-2.59-8.38-.29-1.89.43-3.94,1.13-9-5.12,3.91-8.1,6.33-11.23,8.55-6.76,4.78-13.35,9.88-20.47,14.07-9.8,5.77-20,5.65-29.48-.87-10.42-7.18-14.24-17.95-11.25-29.66,4-15.65,9.45-31,15.05-46.17,2.56-7,6.92-13.25,10.56-19.79,2.74-4.93,6.49-7.73,12.29-4.79,6,3,8.76,10,5.81,15.74-4.75,9.26-10.78,17.94-14.7,27.51a138.8,138.8,0,0,0-8.51,29.91c-2.44,14.78,5.8,21.27,20.06,16.67a27.6,27.6,0,0,0,9.85-5.17c9.91-8.89,19.76-17.89,28.93-27.52,3.25-3.41,5.19-8.54,6.48-13.23,3.19-11.63,5.55-23.49,8.49-35.2a87.56,87.56,0,0,1,4.78-14.15c1.13-2.53,3.14-5.46,5.5-6.48,3.06-1.33,7.24-1.93,10.19-.84,1.42.53,2.24,6,1.43,8.64-3.87,12.73-8.44,25.26-12.67,37.88-1.26,3.75-2.23,7.58-3.33,11.37l2.61,1.61c3.58-3.65,7.23-7.24,10.72-11,14.25-15.21,28.33-30.56,42.72-45.63,5-5.29,10-5.8,14.44-2.55s5.65,8.46,2.76,14.58c-6.77,14.28-14.59,28.11-20.53,42.71-3.21,7.9-4.28,17-4.8,25.58-.69,11.19,7.61,17.63,18.67,15.78,17.45-2.92,36.95-23.2,41.68-40.53,8-29.18,24-53,51.31-67.73,8.51-4.61,13.79-3.94,19.47,1.32,5.46,5,6.71,11.28,3.31,19.47a41.57,41.57,0,0,1-5.73,9.6c-11.91,15.22-25.48,28.57-42.69,37.94-9.48,5.16-13.54,23.78-6.46,31.67,3,3.3,8.62,6.25,12.8,6,8.13-.57,16.69-2.3,24-5.79,21.61-10.29,38.4-26.37,50.8-46.81,6-10,11.46-20.31,17.09-30.53a48.89,48.89,0,0,0,6.39-25,71.41,71.41,0,0,1,8.15-35c4.12-7.72,10.29-8.07,15.31-.89,6.12,8.76,9.09,17.87,2.37,27.79-3.73,5.5-7.36,11.06-11,16.62-4.58,7-3,12.93,4.62,15.88,6.21,2.41,12.35,2.11,17.46-2.85,2.69-2.61,5.07-5.54,7.78-8.13,5.1-4.88,10-5.55,14.36-1.78,4.59,4,5.93,8.69,2.86,14.48-6.62,12.51-13.5,24.92-19.29,37.81a179.29,179.29,0,0,0-10.13,29.47c-4.24,16.71,4.51,24.82,21.37,20.48,2.79-.72,5.79-1.61,8-3.3,14.63-11.09,28.93-22,33.35-41.86,2.3-10.32,7.74-20.13,13-29.52,2.69-4.86,7.57-8.85,12.26-12.09,2-1.4,7.07-1,8.86.61s2.07,6.38.92,8.73c-4.57,9.33-10.59,18-14.86,27.42a76.51,76.51,0,0,0-5.74,21.49c-.45,3.49,1.26,8.8,3.88,10.79,4.07,3.07,7.83-1,10.32-4.32,7.76-10.28,15.93-20.35,22.63-31.31,10.19-16.69,19.28-34.06,28.83-51.14.61-1.09,1.05-2.28,1.69-3.35,4.39-7.32,9.71-10.13,15-8,5,2,6.92,6.82,5.46,15-4.92,27.47-10,54.92-15,82.37-.15.82-.35,1.63-.51,2.45-.94,4.76-3.64,10.18-2.21,14.07,1,2.66,7.91,2.84,11.83,4.82a33.4,33.4,0,0,1,9.92,7c2.62,2.93.48,6.83-3.58,6.9-3.28.07-6.59-.78-9.88-1.3-10.61-1.68-12.86-.12-16.24,10.26-5.79,17.81-10.83,35.93-17.9,53.23-15,36.8-36.95,69-68.43,94a112.14,112.14,0,0,1-48.22,22.42c-31.47,6.33-72.08-22.09-60.83-63.83,4.54-16.86,13-31.47,24.55-44.42,19.18-21.45,42.83-37.25,67.65-51,18.87-10.43,39-18.55,58.9-27.09,5.61-2.42,12.13-2.8,18.26-3.94,6.69-1.25,12-4.3,13.38-11.36,3.45-17.55,6.6-35.15,9.76-52.75.18-1-.67-2.25-1.31-4.2-6.14,2.7-7.7,8.66-10.76,13.2-7,10.34-13.16,21.25-20.71,31.13a78.82,78.82,0,0,1-17.22,16.13c-10.85,7.65-17.27,5.75-24.41-5.68a49.53,49.53,0,0,0-3.49-4.18c-2.73,2.22-5.28,4.51-8,6.52-9,6.59-17.64,14-27.37,19.37-12.73,7-28.38,2.69-36.88-8.61-5.12-6.8-5.35-14.82-5.07-22.72a104,104,0,0,1,12.64-46.59c1-1.76,1.59-3.7,2.58-6Zm26.3,268.6c20.12,1,36.5-7.68,51.1-20.24a192.34,192.34,0,0,0,39.11-46.84c17.28-28.61,26.43-60.09,33.75-92.28,1.93-8.48-1.24-10.69-10.76-7.76a359.77,359.77,0,0,0-83.07,37.14c-25.12,15.44-47.84,33.48-62.23,60.1a67.94,67.94,0,0,0-7.31,43.58,30.18,30.18,0,0,0,26.93,25.54C2705.37,1944.24,2709.55,1944.31,2713.71,1944.55Zm-136-245,3,3.25c3.29-1.89,7-3.27,9.78-5.77a141.49,141.49,0,0,0,14.48-15.3,40.32,40.32,0,0,0,6.51-11.83c.79-2.24-.54-5.24-.91-7.9-3,.7-7,.42-8.64,2.28-5.38,6.22-10,13.13-14.64,20C2583.88,1689.24,2580.9,1694.48,2577.74,1699.6Z"/><path class="cls-1" d="M2346.65,1616.15c-7.23,18.94-13,36.78-20.72,53.74-15.16,33.27-34.54,63.74-63.83,86.77-7.9,6.21-16.11,11.72-26.17,14.11-20.32,4.81-39.69-8.35-41-29.19a148.1,148.1,0,0,1,1.7-34.83c2.85-15.92,7.72-31.48,11.68-47.2.79-3.12,1.34-6.3,2.15-10.18-7-.13-9.1,4.85-12.25,8.23-33.31,35.68-67.47,70.47-107.32,99.06-13.93,10-28.43,19-45.57,22.57a67.25,67.25,0,0,1-7.35,1.46c-21.49,2-35.12-14-29.89-34.86,6-24.06,16.83-46,29.17-67.37,17.07-29.56,34.57-58.93,50.15-89.27,7.7-15,12.82-31.69,16.82-48.17,8.54-35.25-9.53-53.26-45.27-45.64-11.3,2.41-22.85,5.85-32.94,11.3-48.74,26.27-90.53,60.87-122.59,106.4-8.19,11.63-15,24.1-17.38,38.42-2.56,15.15,4.59,22.31,19.84,19.49,4.45-.82,8.65-2.94,13-4.36,3.15-1,6.33-2.49,9.54-2.59,2-.06,4.74,1.59,6,3.31.74,1-.24,4-1.31,5.54-6.84,9.56-36.87,16.32-47.38,10.86-11.17-5.8-15.73-15.23-14.45-29.21,1.76-19.32,10.21-36,21-51.53,31.57-45.55,73.55-79.29,122.6-104.21,14.72-7.48,30.8-12.55,46.64-17.47,12.52-3.88,25.48-2.95,38.27.73,17.5,5,27.84,16.3,30.33,34.19,2.05,14.74-.45,29.07-6,42.85-13.7,34.12-32.12,65.81-50.42,97.56-12.27,21.28-24.93,42.36-36.43,64-4.41,8.31-6.85,17.89-8.88,27.17-3,13.61,5.42,21.81,18.54,17.49a131.6,131.6,0,0,0,30.23-14.49c26.66-17.31,50.3-38.41,73.08-60.54,29.37-28.53,55.85-59.59,81.69-91.26,3.16-3.87,6.27-7.89,10-11.12a21.61,21.61,0,0,1,9.72-5c7.41-1.32,11.12,3.94,7.74,10.72-3,5.94-6.79,11.45-9.87,17.35-12.16,23.29-23.19,47.06-29.77,72.64-4.81,18.7-7.38,37.63-4.58,56.91,2.28,15.72,11.3,21.18,25.45,14.16,8.4-4.17,16.16-10.28,23-16.75,24.39-23,41.26-51.1,53.65-82,3.71-9.24,6.57-18.82,9.6-28.32,4.13-13,5.23-25.65-.11-39-2.61-6.55-1.85-14.77-1.22-22.11.25-2.84,4-7,6.81-7.55s7.13,2,9.1,4.45a33.86,33.86,0,0,1,7,24.66c-.74,7.58,1.38,13.05,8.63,16.1a4.23,4.23,0,0,1,2,1.37c1.26,2.37,3.08,4.85,3.09,7.3,0,1.08-3.73,2.75-5.94,3.12C2353.16,1616.55,2349.8,1616.15,2346.65,1616.15Z"/><path class="cls-1" d="M655.27,1661.17c-17.72,10.61-14.74,27.52-18.83,41.35-4.71,15.9-7.2,32.45-10.84,48.67-1.71,7.62-1.49,8,6,10.36,5.09,1.6,10.28,3.37,14.82,6.09,1.78,1.07,3.1,5.31,2.41,7.36-.55,1.62-4.48,2.13-6.93,3.06-.32.12-.79-.2-1.2-.27-19.48-3.06-20-3.2-25.2,16-9.38,34.46-23,66.87-43.75,96.11-17.11,24.1-37.48,44.45-63.9,58.57-22.84,12.2-49,11-68.35-3.62-15.62-11.83-20.66-27.46-18.71-46.2,1.42-13.61,6.83-25.59,14.34-36.86,12-18,27.85-32.09,45.44-44.22,28.2-19.46,57.44-37.08,90.55-47.17,7.17-2.19,14.39-4.24,21.68-5.94,4.76-1.12,9.15-2.79,10.42-7.77,2.13-8.3,3.58-16.78,5.32-25.19l-2.78-1.44c-2.71,3.25-5.84,6.24-8,9.8a67.3,67.3,0,0,1-25.38,23.56,29.31,29.31,0,0,1-13,3.6c-9.37.21-14.53-5.29-15-14.7-.08-1.65.49-3.32.42-5a45.71,45.71,0,0,0-1.15-6c-3.52,2.31-6.3,3.81-8.71,5.77-9.44,7.68-19.39,14.63-31.23,17.8a88.81,88.81,0,0,1-21.89,3.2c-10.53.1-18-6-22.82-15a46,46,0,0,1-3.19-37.46A138.17,138.17,0,0,1,482.44,1668c7.71-9,16.64-16.28,27.72-20.8,8.63-3.52,12.82-2.74,19,3.62,5.44,5.57,6.39,12.4,2.34,18.29-7.27,10.56-15,21-24,30.11-7.23,7.28-16.44,12.69-25.12,18.4-6.82,4.49-11,16.46-8.29,26.34,2.13,7.81,8.43,11.84,18.79,10.07,8.05-1.38,16.53-3.35,23.51-7.34,19-10.84,35.23-24.47,46.22-44.34,10.09-18.24,22.85-34.87,41-46.45,12.4-7.92,25.31-10.6,39-3.92C646.46,1653.89,649.67,1657.06,655.27,1661.17Zm-56,115.28c-3.64.23-6.21-.09-8.45.61-29.47,9.31-57.79,21.28-84.18,37.45-22.17,13.57-42.78,29-57.31,51.14-9.65,14.74-14.85,30.65-13.2,48.39,1.25,13.41,10.6,26.46,22.51,28.55,14.75,2.59,29.7,3.1,44.12-3.35,23.75-10.61,40.58-28.82,55-49.47,22.62-32.29,34.74-68.87,42.24-107.17C600.32,1781.12,599.67,1779.46,599.26,1776.45Zm-37.91-35.38c1.43,3.07,2.06,7.23,4.24,8.34s6.61.13,8.91-1.52A69.55,69.55,0,0,0,587.24,1736c6.14-7.33,12.35-14.76,17.29-22.9,8-13.13,15-26.81,22.11-40.43.92-1.78.68-5.34-.55-6.72s-4.58-1.88-6.64-1.34a31.55,31.55,0,0,0-8.89,4.41c-19.94,12.92-32.66,31.75-42.48,52.77C565.31,1727.77,563.69,1734.26,561.35,1741.07Zm-77.74-39.6c10.94-.48,15.35-8.8,20.7-14.8,5.06-5.68,8.5-12.87,12.18-19.64.53-1-1.2-3.77-2.57-4.9-.85-.7-3.3-.32-4.48.43a19.55,19.55,0,0,0-5.38,5q-10,14.16-19.52,28.6C483.78,1697.33,484,1699.11,483.61,1701.47Z"/><path class="cls-1" d="M343.16,1524.74c13.28,0,26.62-.08,38.13,8.61,8.14,6.15,13.85,13.74,13.19,24.13s-1.1,21.09-4.49,30.66c-11.66,32.91-24.65,65.36-37,98-6.8,18-11.28,36.57-12.32,55.87a30.68,30.68,0,0,0,0,5c1,8.54,5.5,11.37,12.65,6.8,7.67-4.9,15.76-10.08,21.45-17,17-20.52,34.31-41,48.8-63.21,25.46-39.06,48.54-79.66,73.37-119.15a398.53,398.53,0,0,1,32.55-44.24c7.95-9.45,17.65-17.73,27.69-25,5.33-3.86,13-5.14,19.75-6.07,2.21-.3,6.51,3.79,7.31,6.59,1.14,4-3,5.21-6.51,5.58-11.84,1.21-19.82,8.8-26.35,17.48-16.53,22-33.16,43.92-48.37,66.79-20.05,30.16-37.93,61.79-58.35,91.69-16.65,24.37-35.14,47.57-53.86,70.43-7.81,9.54-18.2,17-27.71,25.11a42.94,42.94,0,0,1-10.78,6.19c-17.34,7.52-30.77-1.08-31.57-20-.85-20.34,3.73-39.81,10.81-58.58,9.84-26.08,20.86-51.71,30.88-77.73a320.81,320.81,0,0,0,12.38-37.87c5.18-21-5.91-35.14-27.67-36.24-20-1-39.11,3.47-57.16,11.41-28.49,12.52-54.27,29.19-74.83,53.08-11.73,13.64-18.75,29.42-21.92,47-2,11.23,3.8,17.59,15.43,16.66,5.37-.43,10.64-2.26,16-2.55,2.4-.13,4.93,1.95,7.4,3-1.11,2.48-1.57,5.7-3.42,7.34-9.53,8.41-36,9-46.32,1.53-7-5-11.12-11.73-9.84-20.28,1.14-7.71,2.67-15.72,6-22.68,10.32-21.79,25.53-39.93,44.38-55,21.28-17,44.19-31.56,69.45-41.68C308.41,1530,325,1523.74,343.16,1524.74Z"/><path class="cls-1" d="M1028.19,1665.58c-2,9.13-7.27,12.16-13,13-8.58,1.19-17.48,2.12-26,1.13-15.24-1.78-24.69-15.23-20.2-29.83a128.47,128.47,0,0,1,15.6-33.74c23.54-34.92,57.28-57.56,94.81-75.19,22.56-10.6,45.94-17.81,71.18-15.24a70.64,70.64,0,0,1,22.62,6.15c13.06,6.14,19.23,17.67,17.32,31.71a198.26,198.26,0,0,1-9.3,40c-9.51,26.62-20.6,52.68-30.78,79.07-7.22,18.71-12.4,38-13.85,58.07-.09,1.24-.2,2.5-.17,3.74.36,11.36,5.9,14.92,15,8.39,9.4-6.77,19.07-14,26.13-23,18.5-23.56,36.69-47.5,53-72.56,19.12-29.26,35.39-60.38,54.37-89.74,14.43-22.33,30.74-43.49,47-64.53a70.78,70.78,0,0,1,30.87-22.77c5.39-2.07,10.57-2.63,15.46.89,4.28,3.08,3.78,8.84-1.18,9.37-19.53,2.07-29.69,16.45-39.25,30.33q-41.09,59.68-80.4,120.58c-23.23,36.15-46.19,72.43-76.93,102.87-8.52,8.44-17.84,16.55-28.06,22.7-19.78,11.91-35.73,2-35.73-21,0-21.6,5.72-42,13.5-61.83,12.76-32.53,26.06-64.86,38.76-97.41a65.16,65.16,0,0,0,3.81-18.27c1.27-15.84-6.7-26.62-22.31-29.75a59.12,59.12,0,0,0-19.84-.81c-49.11,7.24-89.28,30.84-121.66,68-10.64,12.22-16.26,27-19.74,42.68-2.77,12.46,4.47,20.39,17.17,18.8,3.71-.47,7.31-1.85,11-2.23C1020.55,1664.76,1023.7,1665.32,1028.19,1665.58Z"/><path class="cls-1" d="M725,1724.62c-2.4,3.09-4.71,6.25-7.21,9.25-6.66,8-13,16.2-20.26,23.63a43.26,43.26,0,0,1-13.46,8.88c-13.27,5.84-24.94-2.12-24.22-16.69a59,59,0,0,1,4.18-18.16c11.72-30,28-56.9,55-75.64,11.74-8.13,24.85-11.86,38.87-4.86a35.68,35.68,0,0,1,6.47,3.67c4.3,3.43,5.43,7.35.71,11.42-8.15,7-11.29,16.68-12,26.68-1,15.32-1.63,30.81-.6,46.11,1,14.88,10.16,18,22.34,8.94,7.77-5.78,13.35-12,10.72-23.11-1-4.23,1.59-9.32,2.39-13.24,2.47-.69,3.46-1.33,4-1.07,9.69,4.47,15.37,0,20.15-8.17,6.55-11.12,13.7-21.88,20.47-32.87,8.56-13.9,17.73-27.34,31.07-37.16,9.64-7.1,20-10.42,31.31-3.27,1,.67,2.46,1.16,3,2.13,1.84,3,5.09,6.68,4.48,9.33-.52,2.27-5.42,4.07-8.69,5.06-4.66,1.42-10.06,1-14.35,3-12.88,6.07-16.57,15.14-12.23,28.64,2.29,7.13,5.53,13.94,7.86,21.06,3.72,11.39,7.05,22.91,11,35.79,11.77-1.52,22.4-6,31.12-14.88,2.34-2.37,4.25-5.18,6.69-7.42,2.76-2.52,5.83-5,10.8-1.36-.8,2.28-1.16,5.16-2.65,7.24-10.07,14-23.84,23.24-40.14,28.31-6,1.87-10.05,4.43-13.12,10.15-11.47,21.4-36.11,28.94-57.86,17.37-8-4.24-14.87-10.56-22.12-16.12-2.88-2.21-5.37-4.93-8.47-7.81-12.87,10-24.65,22.92-42.46,15.73-17.33-7-21.42-22-19.39-39.63Zm-47.63,15.92c1.6,3.37,2.41,8.22,4.76,9.15,2.56,1,7.28-.74,9.8-2.82a102.57,102.57,0,0,0,13.8-14.3c14.24-17.48,26.35-36.32,34.87-57.28,1.13-2.77,1-6.06,1.42-9.11-3.47.09-7-.28-10.38.42-2.3.48-4.32,2.38-6.41,3.75-18,11.79-29.72,28.86-39.22,47.56C682.43,1724.86,680.33,1732.53,677.33,1740.54ZM846.51,1669,811,1722c2.28,1.64,4.85,4.59,8,5.56a307.42,307.42,0,0,0,32.46,8.52c8.89,1.69,11.49-1.08,9.72-10.37-2.31-12.19-5.69-24.2-8.77-36.24C851,1683.57,849.08,1677.79,846.51,1669Zm-44.57,67.2c4,15.06,17.4,25.17,32.75,26.55,10.46,1,16.95-2.37,21.54-12.33-9.21-1.22-18.13-1.54-26.55-3.74C820.79,1744.38,812.36,1740.26,801.94,1736.23Z"/><path class="cls-1" d="M2401,1614.42c6.07-.29,12.57,6.4,12.67,13s-8.17,15.76-14.86,16.3c-6.11.5-13.11-5.78-13.6-12.19C2384.75,1625.57,2394.74,1614.72,2401,1614.42Z"/></svg>