<svg id="Layer_1" data-name="Layer 1" xmlns="http://www.w3.org/2000/svg" viewBox="0 0 3010.18 2424.91"><defs><style>.cls-1,.cls-2{fill:#a62b2a;}.cls-2{opacity:0.56;}</style></defs><path class="cls-1" d="M283.87,2297.2c24,5.24,41.42,15.68,46.3,39.28,5.34,25.81-5.54,46.14-24.1,62.91-30,27.13-81.6,34.64-105.27,12.69-10.41,2.7-18.29,5.74-26.4,6.59-10.51,1.09-21.21,0-31.8.62-9.3.49-11.78-3.77-9.94-11.9,13.52-59.63,26.88-119.3,41-178.78.95-4,7.64-9,12.06-9.42,13-1.24,26.21.09,39.3-.53,10.57-.5,12.05,4.53,10.09,13-4.49,19.42-8.9,38.85-13.45,58.73,22.65-2.79,39.78-21.93,41.79-45.28,1.92-22.33-8.13-37.2-30.5-44-23.19-7.05-46.06-5.75-67.71,5.38-19.18,9.86-23.76,23.12-17.8,43.76,2.44,8.47,4.16,17.74,3.37,26.39-1.4,15.26-14.18,24.78-29.58,24.26-14.08-.47-23.9-9.48-25.68-24.79-2.9-24.84,4.94-46.51,21.35-65.21,37.15-42.32,120-58.85,170.9-34.19,23.58,11.43,38,29.05,39.58,56,1.53,26.67-11.4,44.79-33.47,57.89C291.05,2292.3,288.32,2294.27,283.87,2297.2Zm-78.69,66.44c.21,20.5,11.81,30,28.07,27.11,19.1-3.37,33.36-23,32.6-44.84-.73-21.16-26.41-38-46.19-30.08a8.7,8.7,0,0,0-4.73,5C211.16,2336.39,207.78,2352,205.18,2363.64Z"/><path class="cls-1" d="M1142.79,2389.11c-13.94,19.51-29.08,32.68-51.66,34.88-25.52,2.49-42.69-9.47-45.69-34.67-1.45-12.22-.39-25.08,1.66-37.31,5.37-32.14,12.15-64,17.83-96.13,1.85-10.45,6.33-14.45,17.38-13.11,10.45,1.27,21.18.7,31.76.28,14.92-.61,16.66,1.11,13.54,16.28-6.27,30.44-12.7,60.86-19,91.3-.81,3.92-2.15,8-1.64,11.85.79,5.95,3,11.71,4.56,17.55,6.91-2,16.51-1.8,20.14-6.34a79.58,79.58,0,0,0,15-30.38c7-29.25,12.34-58.89,17.68-88.49,1.67-9.27,5.08-12.82,15.06-11.67,11,1.26,22.37,1.69,33.24.15,13.59-1.93,14.65,4.17,12.5,14.48q-9.69,46.38-19.18,92.8c-1,4.9-2.4,9.94-2.13,14.83s2.38,9.74,3.69,14.61c5-1.75,11.61-2,14.74-5.46,22.23-24.31,40.61-49.36,28-86-9.71-28.27,4.61-50.7,28.91-50.82,18-.08,32.29,11.77,28.9,29-11.36,57.79-33.86,110.57-84.24,145.94-11.06,7.77-27.39,10.12-41.56,11.09C1160.74,2425.22,1147.42,2413,1142.79,2389.11Z"/><path class="cls-1" d="M2515,2255.57c4.91-25.34,9.51-47.9,13.59-70.54,1.68-9.33,5.52-13.9,16-12.93,11,1,22.2.59,33.29.08,9-.41,11.83,3.1,10.16,11.65q-22,112-43.65,224.06c-1.6,8.33-4.94,12-14,11.45-14-.77-28.13-.2-43.14-.2l-2.78-12.84c-11.17,5.45-21.72,12.88-33.43,15.86-31.56,8-59.07-10.25-62.12-42.24-4-41.74,5-81.17,32.6-114,8.65-10.29,21.31-18.81,33.88-24C2476.4,2233.4,2497,2236.73,2515,2255.57Zm-5.3,45.42c-2.75-11.78-1.82-24.21-15.3-28.25-14.17-4.26-21.45,6.51-26.91,16.72a153.76,153.76,0,0,0-18.2,79.4c.22,5.73,5.33,14.41,10.14,16,5.87,2,14.9-.39,20.51-4,5.42-3.49,9.84-10.46,11.87-16.79C2498.49,2343.27,2503.86,2322.05,2509.73,2301Z"/><path class="cls-1" d="M918.39,2304.71c18.23-3.18,30-12.25,37.88-26.77,5-9.27,9.28-19,15.12-27.74,10.07-15,30-18.77,44-9.14,12.73,8.76,14.24,26.13,2.21,41.24-5.49,6.89-12.91,12.69-20.45,17.42s-16.23,7.41-27,12.11c28,11.5,30.85,31.87,25,56.27-1.36,5.64,1.22,12.22,2,18.37,6-1.16,11.93-2.58,18-3.38,4.44-.59,9-.36,13.51-.49-.51,5.05.93,12.53-1.87,14.75-11.65,9.21-23.53,20.14-37.23,24.38-34,10.54-58-11.52-53.73-46.67,1.22-9.94,3-19.85,3.61-29.83.54-8.49-3.2-15.34-12.67-15.32-7.88,0-15.69.76-17.73,11.93-3.88,21.16-10.17,41.91-13.68,63.13-2.08,12.63-8,15.55-19.48,14.15-7.47-.91-15.14-.49-22.7-.2-19,.72-19.62.37-15.89-17.69,9.41-45.63,19-91.22,28.53-136.83,1.54-7.35,3.27-14.69,4.38-22.11,1.2-8,2.08-15.77-7.77-20.44-2.87-1.36-5.11-7.42-4.71-11,.29-2.57,5.16-5.89,8.51-6.66,23.61-5.44,44.79-14.85,62-32.54,2.61-2.68,10.14-3.9,13-2.09s4.09,8.64,3.24,12.7c-7.57,36.28-15.78,72.44-23.73,108.64C919.77,2295.12,919.26,2299.43,918.39,2304.71Z"/><path class="cls-1" d="M2063,2304.54a153.18,153.18,0,0,1,63-114.4c24.14-17.73,51.69-25,81.6-21,42.47,5.62,67.61,45.12,53.07,83.92-2.81,7.5-8.52,16.72-15.2,19.31-8.78,3.41-21,3.86-29.62.43-11.07-4.39-12.13-17-9.06-27.62,2.46-8.5,8.6-15.91,11.39-24.37,1.86-5.62,3.09-13.89.24-17.93s-12-7.19-16.9-5.8c-10.34,2.88-22,6.87-29.17,14.18-32.63,33.11-46.45,74.08-41,119.68,4.58,38.06,37.47,57.72,76.13,48.05,10.63-2.65,20.43-8.46,30.89-12,4.17-1.43,9.1-.7,13.68-1-.13,5.08,1.86,11.92-.71,15-27.88,32.74-75.5,53.49-125.88,38.41C2084.18,2406.94,2060.59,2370.19,2063,2304.54Z"/><path class="cls-1" d="M567.32,2405.1c-12.23,6.13-23.13,13.91-35.26,17.18-23.43,6.32-44.95-3.22-54.82-21.5-10.15-18.83-6.17-45.64,10.8-60.84,8-7.19,18.09-12.87,28.18-16.91,14.92-6,30.73-9.73,46.07-14.72,17.21-5.59,23.07-13.15,22.35-30.89-.19-4.68-3.44-12.1-6.82-13.09-4.74-1.39-12.61.39-16.08,3.84-5.08,5.06-7.78,12.65-10.9,19.43-5.43,11.83-14.52,17.7-27.46,17.47-13.47-.25-24.32-12.39-18.8-24.27,5.37-11.56,14-23.77,24.51-30.39,22.13-13.89,47.83-15.38,73.19-9.5,27.58,6.39,40.8,23.29,37.73,51.32-2.72,24.79-9.42,49.14-13.48,73.83-1,6.25,1.35,13,2.15,19.59,6.15-1.11,12.28-2.36,18.46-3.26,4.19-.62,8.45-.74,12.68-1.08.13,4.73,2,10.34.09,14-11.36,22-52.64,35.76-74.78,24.58C577.9,2416.27,572.32,2409.38,567.32,2405.1Zm5.76-73.72c-6.79,4.46-11.76,7-15.89,10.58-8.68,7.45-18.18,14.5-24.77,23.55-3,4.12.1,12.61.43,19.12,6.89-.71,14.83.41,20.39-2.68,5-2.78,8.63-9.75,10.69-15.62C567.65,2355.72,569.75,2344.54,573.08,2331.38Z"/><path class="cls-1" d="M1396.18,2405.1c-12.23,6.13-23.12,13.91-35.26,17.18-23.43,6.32-45-3.22-54.82-21.5-10.15-18.83-6.17-45.64,10.8-60.84,8-7.19,18.09-12.87,28.18-16.91,14.92-6,30.73-9.73,46.07-14.72,17.21-5.59,23.07-13.16,22.35-30.89-.19-4.68-3.44-12.1-6.82-13.09-4.74-1.39-12.61.39-16.08,3.84-5.08,5.06-7.78,12.65-10.9,19.44-5.43,11.82-14.52,17.69-27.46,17.46-13.47-.25-24.32-12.39-18.8-24.28,5.37-11.55,14-23.76,24.51-30.38,22.14-13.89,47.83-15.38,73.19-9.5,27.59,6.39,40.8,23.29,37.73,51.32-2.72,24.8-9.42,49.14-13.48,73.83-1,6.25,1.35,13,2.16,19.59,6.14-1.11,12.27-2.36,18.45-3.26,4.19-.62,8.45-.74,12.68-1.08.13,4.73,2,10.34.09,14-11.35,22-52.64,35.76-74.78,24.58C1406.75,2416.26,1401.16,2409.36,1396.18,2405.1Zm5.31-71.54c-1-.73-1.92-1.46-2.89-2.18-12.32,10.77-25.59,20.71-36.43,32.79-3.48,3.88-.58,13.4-.6,20.34,7.28-1,15.2-.51,21.6-3.39,4.24-1.91,7.46-8.2,9.12-13.19C1396,2356.69,1398.5,2345,1401.49,2333.56Z"/><path class="cls-1" d="M1709,2350.8c4.16,29.68,23.76,43.46,51.57,37.11,6.83-1.56,13.18-5.24,20-6.68,4.21-.89,8.93.62,13.42,1.06-.57,4.66-.82,9.4-1.86,13.95-.38,1.69-2.56,3-4,4.41-24.6,24-70.09,30.37-103.62,14.62-29.16-13.7-43.06-41.13-40-79,4.5-56.49,51.58-100.4,105.18-98,20.13.91,36.68,8.72,45.38,27.44,8.82,19,2.78,36.4-9.49,51.89-16.48,20.8-40.4,27.22-65.06,31.84C1717,2350.07,1713.52,2350.27,1709,2350.8Zm1.27-28.5c21.2-10.39,34.78-23,40.77-42.06,1.51-4.82-.88-10.84-1.48-16.31-5.44,1.45-12.41,1.27-16.06,4.64C1718.88,2282,1713.76,2300.05,1710.25,2322.3Z"/><path class="cls-1" d="M2644.35,2351.24c3.14,28.6,23,42.94,50.85,36.8,6.84-1.51,13.2-5.14,20-6.65,4.3-.94,9.07.25,13.63.47-.7,5.07.46,12.72-2.42,14.76-12.55,8.87-25.38,18.93-39.73,23.43-48.28,15.11-95.53-9.28-105.45-53.42-12.17-54.13,27.27-130.72,103-128.37,20.11.62,36.79,8.34,45.64,27,9.27,19.54,3,37.32-9.94,53.07-17.16,21-41.65,27.12-66.9,31.4Zm1.36-28.79c20.48-10.48,34.65-23,40.57-42.72,1.42-4.74-1.27-10.69-2.07-16.09-5.42,1.67-12.35,1.79-16,5.28C2654,2282.58,2648.48,2300.39,2645.71,2322.45Z"/><path class="cls-1" d="M1526.52,2269.59l-24.12-1.23c-2.93-20.12-.7-22.92,16.81-27.32,27.41-6.89,46.56-25.11,62.72-47,2.68-3.63,4.33-8.41,7.74-11s9.36-5.45,12.77-4.24c3.06,1.08,6.33,7.82,5.79,11.53-2.41,16.78-6.15,33.37-9.8,52,9.59,0,18.16-.81,26.44.34,4.13.58,11.32,5.4,11,7.17-1.36,7.25,2.57,18.78-11.18,19.06-2.53,0-5.05,0-7.58,0-25,.11-25,.11-29.94,24.71-4.37,21.6-9.07,43.14-13,64.81-4.21,23.06,7.2,33.4,30.09,27.85,2.43-.59,4.72-2.09,7.15-2.28,6.28-.5,12.6-.49,18.9-.69-2.86,6.75-3.88,15.68-8.91,19.86-22.2,18.45-48.62,24-76.78,18.62-25.32-4.85-39.86-27.91-35.44-56.29,4.32-27.69,10.14-55.15,15.27-82.72C1525.12,2279,1525.66,2275,1526.52,2269.59Z"/><path class="cls-1" d="M390.84,2424.35c-28.09.36-45.28-17.23-41.29-49.45,3.94-31.7,11.73-62.93,18-94.34,2.25-11.28,5.3-22.42,7.34-33.74,1.76-9.76,4-19.21-8.18-25.91-8-4.4-5.68-14.12,3.65-16.31,25-5.9,47.8-15.33,66.2-34,2.46-2.5,11.94-2.84,13.18-.95a23.06,23.06,0,0,1,3.13,15.92c-10.9,51.93-22.44,103.72-33.7,155.57-1.92,8.79-4,17.63-4.84,26.56-1.46,16.45,5.73,22.21,21.86,18.47,1.46-.34,2.85-1,4.3-1.37,6.51-1.73,14.64-11.06,18.86-.45,1.89,4.75-3.92,14.81-9,19.54C434.54,2418.57,414.4,2423.38,390.84,2424.35Z"/><path class="cls-1" d="M771.4,2238.35c39.82-.21,62.94,30.25,50.14,66.05-6,16.7-23.41,24.93-38.89,18.35-13.61-5.78-15.8-20-7.28-37.47,3.08-6.35,6.06-19.2,3.87-20.51-10.36-6.21-18,1.66-23.37,9.83-16.25,24.84-22.88,52.37-19.1,81.67,3.06,23.66,24.09,36.93,49.36,32.15,7.36-1.39,14.26-5.07,21.59-6.73,3.92-.88,8.31.31,12.49.56-.3,4.69-.42,9.4-1,14-.16,1.24-1.83,2.31-2.86,3.41-27.37,29.5-92,32.75-120.73,4.65-8.91-8.71-16.44-20.88-19.76-32.8C661.56,2320.28,693.32,2239.29,771.4,2238.35Z"/><path class="cls-1" d="M1899.43,2263.44c11.78-7.85,22.13-16.92,34.17-22.27,17.14-7.63,35-1.41,42.49,12.09,7.63,13.67,4.61,38-8.26,46.82-7,4.79-17.77,6.93-26.36,6-9.89-1.09-14.34-9.69-13.47-20.34.23-2.79-2.71-8.38-3.88-8.3-4.63.32-11.57,1-13.29,4-9.54,16.76-20.21,33.49-25.92,51.65-7.47,23.76-11.09,48.77-15.52,73.39-1.77,9.88-5.66,13.62-16.06,12.58a196.14,196.14,0,0,0-33.23,0c-9.25.66-13.64-1.81-11.64-11.58,10.62-52,21-104,32.28-155.87.77-3.54,8.09-7.55,12.7-8,10.46-1,21.35,1.45,31.66-.12,13.58-2.07,18.21,1.59,14.4,14.89C1899,2260.19,1899.43,2262.27,1899.43,2263.44Z"/><path class="cls-1" d="M2741.76,2419.23c4.06-21.18,7.47-39.71,11.18-58.18,7-34.85,14.44-69.61,21.11-104.51,2.1-11,6.42-15.32,18.38-13.11a85.51,85.51,0,0,0,28.64.05c13-2.11,17.07,1.82,13.65,14.25-.59,2.14-.08,4.58-.08,6.73,10-7.55,18.82-16,29.18-21.6,16.18-8.72,34.91-5.28,44.49,6.12,9.11,10.83,9.22,31.52.16,45.26-7.08,10.75-17.19,15.75-29.82,12.9-11.32-2.56-15.9-10.15-15.53-22.23.34-11.43-9-11-14.31-5.61-8.23,8.42-16.94,18.25-20.38,29.06-8.46,26.6-14.55,54-20.63,81.29-6.27,28.17-5.77,28.18-35.28,28.24C2763.55,2417.91,2754.57,2418.65,2741.76,2419.23Z"/><path class="cls-1" d="M2329.79,2244.11c3.62-.23,11.24-.24,18.71-1.31,12.29-1.76,15.26,2.92,12.56,14.43-7.77,33.13-14.94,66.4-22.29,99.63a74.33,74.33,0,0,0-1.94,11.82c-.93,16.69,6.57,21.41,22.49,15.81,5.51-1.94,12.22-.53,18.39-.65-2.78,6.32-3.93,14.41-8.62,18.63-17,15.31-37,24.27-60.8,20.79-19-2.79-30.37-13.41-32.26-32.31a133.21,133.21,0,0,1,1.42-35.77c5.1-29.07,11.46-57.93,17.41-86.85C2300.06,2243.05,2300.11,2243.06,2329.79,2244.11Z"/><path class="cls-1" d="M2338.37,2169.06c20.32.07,35.47,12.58,35.21,29.08-.24,16.15-16.22,28.59-36.22,28.21-19.4-.37-34.36-12.72-34.46-28.47C2302.8,2181.44,2318.13,2169,2338.37,2169.06Z"/><path class="cls-1" d="M1261.23,991.5l-1.82-3.76c151.79-73.45,166.17-134.48,166.29-135.08l4.1.85C1429.26,856.08,1414.86,917.17,1261.23,991.5Z"/><path class="cls-1" d="M1198.06,981.68l-1.06-4c138.09-36.24,201.51-124.86,202.13-125.75l8.23-11.75-4.53,13.61c-22,65.86-108.85,107.45-109.73,107.86l-1.78-3.78c.8-.37,74.75-35.79,102.23-92.43C1371.47,890.73,1308.24,952.76,1198.06,981.68Z"/><path class="cls-1" d="M1262.28,1356.11l-3.93-1.44c.18-.48,17.42-49.06-4-117.25l4-1.26C1280.21,1305.8,1262.46,1355.61,1262.28,1356.11Z"/><path class="cls-1" d="M1248.28,1331.48c0-1.22-.38-117.45-29.6-196.89,4.85,30.27,12.33,69.91,23.75,121.67l-4.1.92q-1.89-8.54-3.6-16.68c-.37-1.55-.71-3.1-1-4.65-34.08-159.63-28.85-195.17-22.41-201.94a4,4,0,0,1,3.51-1.51l2.72.46-1.17,2.51c-13.47,28.85,3.93,91.61,4.1,92.24,31.6,79.94,32,202.61,32,203.87Z"/><path class="cls-1" d="M1219.56,1248.56l-3.89.34c1.29-1,2.51-1.92,3.68-2.8Z"/><path class="cls-1" d="M1163.64,1096.88c-8.1-26.34-.27-45.48.07-46.28l3.85,1.62c-.07.19-7.56,18.62.07,43.43Z"/><path class="cls-1" d="M1136.67,1174.36c-11.9-67.43,4.84-135.73,5-136.41l4.06,1c-.17.67-16.7,68.14-5,134.67Z"/><path class="cls-1" d="M1137.24,1243.75c-18.6-34.92-20.47-107.49-20.53-110.56l4.18-.1c0,.74,1.91,74.66,20,108.7Z"/><path class="cls-1" d="M908.6,1444c-11.58-24.38-12.87-48.63-3.84-72.12,23.25-60.67,106.07-95.67,109.59-97.13l1.75,3.76c-139,72-104,162.9-103.65,163.82Z"/><path class="cls-1" d="M1118.54,1615.75c-.63,2.26-1.13,4.39-1.55,6.61-60.12-29-204.16-105.49-218.13-179.62l-.71-3.81,3.56,1.47c.75.33,7.65,3.67,23.49,27.42.38.46,42.32,50.76,80.62,75.56-29.36-26-90.86-85.51-92.45-129.12l-.25-8.15,4.14,7c.42.72,21.07,34.71,58.29,78a5.18,5.18,0,0,0,.71.84C1010.58,1531.79,1059,1579.29,1118.54,1615.75Z"/><path class="cls-1" d="M1086.68,1499.93c.67,1.13,1.34,2.22,2,3.35A5.23,5.23,0,0,0,1086.68,1499.93Z"/><path class="cls-1" d="M1100.73,1513.94l-3.56,2.13c-3-4.26-5.81-8.53-8.48-12.79a5.23,5.23,0,0,0-2-3.35c-73.34-123.3.63-248.94,1.42-250.28l3.68,2C1033.12,1371.91,1100.06,1512.52,1100.73,1513.94Z"/><path class="cls-1" d="M1219.35,1246.1c-1.17.88-2.39,1.8-3.68,2.8l3.89-.34Zm15.59-11.08c-.08,0-.5.33-1.21.83.29,1.55.63,3.1,1,4.65.88-.72,1.72-1.38,2.6-2Z"/><polygon class="cls-1" points="1325.13 1424.97 1257.35 1463.85 1255.3 1460.21 1323.04 1421.33 1325.13 1424.97"/><polygon class="cls-1" points="1359.16 1415.89 1268.43 1478.69 1266.05 1475.27 1356.78 1412.46 1359.16 1415.89"/><path class="cls-1" d="M1150.69,1570.89c3.68,4.72,7,8.61,9.62,11.66,2.21,2.55,4.51,5.06,6.86,7.61l-3,2.89c-.17-.17-2.43-2.51-6.11-6.73-3.43-3.89-6.73-7.82-9.87-11.75a110.8,110.8,0,0,0-17.72,48.21c4.68,2.71,9.4,5.31,14.21,7.81l-1.8,3.77c-1.17-.5-5.77-2.51-12.92-5.86-1.08,19,3,40.73,15.6,64.77l3.8,7.27-6.81-4.55c-1-.63-23.5-16-26.84-48.42a84.49,84.49,0,0,1,1.29-25.17v0c.42-2.22.92-4.35,1.55-6.61q6.15-23.14,24-48.63a3.07,3.07,0,0,1-.34-.41c-37.88-50.22-105.11-164.11-36.08-271.73l3.68,1.92c-.38.92-21.41,52.43-17.23,120.92,7.91-39.77,30.52-75.81,55.44-105.16a148.63,148.63,0,0,0-7.35-20.07,145.61,145.61,0,0,0-9.2-17.73c-13.8-23.08-32.57-41.89-52.6-57.11-17.4,15.8-48.59,49.76-61.67,99.3l-4-1.09c13.17-49.88,44.36-84.29,62.26-100.76-52.68-38.72-112.51-52.89-113.52-53.1l.92-4.1c1.05.25,62.13,14.68,115.78,54.4,6.06-5.35,10-8.11,10.12-8.24l2.38,3.43c-.13.08-3.64,2.59-9.12,7.36,20.12,15.34,39,34.33,52.94,57.49a161.8,161.8,0,0,1,9.7,18.69v0a153.47,153.47,0,0,1,6.65,17.73,453,453,0,0,1,64.39-60h0l3.89-.34-.21-2.46c7-5.31,12.16-8.78,14.38-10.25.29,1.55.63,3.1,1,4.65-30.81,24.45-57.4,56.23-78.89,87.09v0c.83,4.43,1.46,8.95,1.92,13.59l-4.18.42c-.3-3.06-.67-6.07-1.17-9a672.82,672.82,0,0,0-58.08,104.44v.08a269,269,0,0,0,50.72,126.4,323.3,323.3,0,0,1,31.06-36.21l.51-.5,120.87-13.13,8.45-.92.16,1.38.38,2.76-122.13,19.86A142.26,142.26,0,0,0,1150.69,1570.89Z"/><path class="cls-1" d="M1276.46,1541.33a9.93,9.93,0,0,1-.88,1.46,9.19,9.19,0,0,1-2.51,2.43Q1274.83,1543.15,1276.46,1541.33Z"/><polygon class="cls-1" points="1589.54 1133.17 1587.45 1133.25 1587.45 1132.79 1589.54 1133.17"/><path class="cls-1" d="M1591.59,1133.5a.27.27,0,0,1,0,.17c0-.09,0-.13,0-.17Z"/><polygon class="cls-1" points="1589.54 1133.17 1587.45 1133.25 1587.45 1132.79 1589.54 1133.17"/><path class="cls-1" d="M1859.69,1017.77s-.38,0-1,.13c-124.94,17.35-201.87,75.09-248.74,133.92l-8.74-32.32c-11.79-51.81-25-134.59-15.47-219.26,9.83.79,52.68,2.93,98.93-17.85,48.42-21.75,110.63-73.67,132.25-197.85,0-.59-.46-58.58-39.51-124.69,3.55-12.83,41.81-160.63-34.21-284.4a284,284,0,0,0-25.17-34.78,155.91,155.91,0,0,1,6.74,15.13q-5-6.7-10.42-13.17c12.67,24.67,24.76,70.66,33.54,109.84-19.57-56-48.46-114.56-60.09-137.35a297.05,297.05,0,0,1,26.51,27.47l3.72-1.92c-53.76-64.23-136.55-107-246.68-127.4-.34,1.42-.63,2.21-.63,2.3-.21.71-.42,1.38-.67,2.05,15.6,6,118.16,49.11,165.2,157.71q3.82,8.78,7,17.81v0c3.22,3.3,5.64,6.15,6.82,7.53l.37.46a284.08,284.08,0,0,0-75.55-120.54c3.89-1.09,11.75-2.26,21.7,1.71,15.55,6.23,38.47,26.09,59,85.09,0,.37,5.85,33,17.52,62.8l-22.71-29c1.13,3.6,2.18,7.19,3.18,10.83v0c2.47,9,4.43,18.27,6.1,27.64v.08c.25,5.68-.46,10.08-2.17,13.17v0c10,75.14-6.44,161-49,256.52-2.64,3.22-8.83,9.11-12.13,7.86-1.38-.55-4.56-3.47-3.8-19.28.16-4.18,1.17-11.54,2.42-20.86,10.79-79.78,43.57-321.53-161.93-408.71-1.88,1.34-3.06,2.09-3.31,2.22l-2.13-3.6a9.46,9.46,0,0,0,.84-.54l-1.88-.75v16.89c-21.45-16.06-140.45-101-230.34-81.16a108.4,108.4,0,0,0-30.61,11.75c.67,1.09,1,1.72,1.09,1.76l-3.56,2.12s-.41-.66-1.12-1.7a104.37,104.37,0,0,0-22.21,18.56c-1.08,1.13-2.09,2.26-3.09,3.47a134.16,134.16,0,0,0-15.26,22c-.71,1.22-1.38,2.43-2,3.64s-1.21,2.17-1.75,3.29c-.21.64-5,15.53,4.81,34.8a77.55,77.55,0,0,0,16.64,21.45c1,1,2.09,1.92,3.17,2.89,15.56,13.29,37.84,24.58,66.65,33.69l.63.09c1.13,0,112.22.29,191.16,25,.92.46,90.4,48.08,92.19,197.6-6,8.87-78.6,119.25-48.83,217.5,14.38,47.46,50.09,84.8,106.24,111.22a913.71,913.71,0,0,0,37.8,323.2,424.11,424.11,0,0,0-5.23,58.29v.08q-3.82,6.46-7.23,12.8c-42.73,79.1-46.83,153.94-46.87,154.7l2.42.33h0l1.33.92,53.9-80.11c1,9.53,1.75,15.22,1.8,15.47l4.13-.58c0-.3-1.08-7.91-2.25-20.32v0l32.48-48.33c14.3,32.24,25.09,50.05,25.43,50.63l3.55-2.17c-.33-.59-11.5-19.11-26.22-52.56l26.18-38.88-3.47-2.34-24.67,36.67c-4.35-10.08-8.95-21.37-13.67-33.87,36.66-51.64,78.31-86.13,114-108.71,67.35-42.61,127.85-52.64,136.22-53.85l1-.13ZM1740.9,695c-.29.63-.54,1-.71,1.34-1.71-2.51-4-13-5.14-24.21,3-5.27,5.85-10.87,8.53-16.64Zm55.28-46.33-.63,16.1c-3.09,78.31-42.15,119.7-42.52,120.12l-3.1-2.8c6.78-8,32.28-87.93,41.52-118Zm-27.72-65.18c10.83,50.59,9.7,58.12,9.28,60.71-.25,1.88-.09,2.59,1.38,5.81a6.4,6.4,0,0,1,.63,3c-.3,5.73-8.83,11.25-12.09,12.88l-1.5.75.42,1.63c2.59,10.33.66,23,.12,26.09a2.66,2.66,0,0,1-2.51.54c-6.27-1.88-13.67-22.24-16.85-34.66l-2.17-8.32C1756.75,626,1764.82,597.48,1768.46,583.48Zm-28.14-107.16,3-6.11,1,6.73c4.22,30.23-4.18,63.14-8.91,68.95a3.58,3.58,0,0,1-2.34,1.42h-1c-4.43,0-6.82-2.09-8.07-4C1714.69,529.54,1737.68,481.71,1740.32,476.32Zm-67.78-196.77a223.22,223.22,0,0,1,33.2,67.61C1695.79,329,1679.27,297.86,1672.54,279.55Zm-67.06-106.62c47.28,20.24,72.91,58.79,85.5,84.88C1665.14,219.18,1626,187.86,1605.48,172.93ZM1355.4,189.16c-7,.41-133.08,7.81-176.11-7.41-2.09-.58-21.65-6.35-22.78-17.35-.67-6.48,4.93-12.67,17.06-18.9l.45-.2c.76-.17,68.37-15.89,123.85,4.22-3.09-3.14-4.26-5.6-3.47-7.4,1.25-2.8,5.44-3,14.88-.55,3.14,1.13,72.46,26.51,83.67,46.58l1.84,3.35Zm-49-55.32,9.66.67c33.78,2.34,67.48,35.71,68.9,37.08L1395,181.75Zm151.4,110.8-.55,10.16-3.51-9.53c-7.48-20.24-38.76-48.59-39-48.88l-4.68-4.22,6.27.58C1459.68,196.76,1457.76,244.18,1457.76,244.64Zm78.18,265.21c6.28-5.6,18.53-1.09,19.07-.92l3.47,1.29-24.08,19.07-.8-3.14C1531.64,518.54,1532.43,513,1535.94,509.85Zm-23.28,79.82-.8-3.39c-1.55-6.61-.46-12.54,3.18-17.56,9.53-13.21,33.53-15.56,34.53-15.64l6.57-.58Zm3-30.44,7.57-8.57c14.3-16.14,26-24,34.58-23.42,4.77.34,6.77,3.14,7,3.47l1.3,1.93Zm19.32,789.56c11.92-47,28.35-87.13,47.21-121.42.54,18.48,1.75,34.83,2.88,47Zm56.65-215.28a.24.24,0,0,1,0,.16c0-.08,0-.12,0-.16Zm-4.13-.72,2.09.38-2.09.08Zm2.67,10.25c2.68,8.49,5.39,16.64,8.15,24.37-4.22,5.94-8.15,11.75-11.79,17.56A417.52,417.52,0,0,1,1590.13,1143Zm29.73,79.57-31.11,46.2c-1.13-13-2.26-29.82-2.59-48.46v-.09q9.6-16.74,19.9-31.52C1610.83,1201.28,1615.47,1212.57,1619.86,1222.61Z"/><path class="cls-1" d="M1718.07,240.66l-3.72,1.93,0,0q5.4,6.45,10.41,13.17A152.77,152.77,0,0,0,1718.07,240.66Zm-130.62,892.13v.46l2.09-.08Zm71.29-793v-.09c-1.67-9.36-3.64-18.6-6.1-27.63V312c-1-3.63-2.05-7.23-3.18-10.83v0l-.38-.46c-1.17-1.38-3.59-4.22-6.81-7.52,1.21,3.3,2.34,6.6,3.38,9.95a287.67,287.67,0,0,1,8.91,36.79h0c.75,4.31,1.42,8.66,2,13.05C1658.28,349.87,1659,345.48,1658.74,339.8ZM1428.53,167l-1-.42a9.19,9.19,0,0,1-.83.55l2.13,3.59c.25-.12,1.42-.87,3.3-2.21ZM1164.7,113.35c-1.21.67-2.43,1.38-3.6,2.17.71,1,1.09,1.67,1.13,1.71l3.56-2.13S1165.37,114.43,1164.7,113.35Zm304.43-.51-1.05,4c.09,0,.75.29,2,.75.25-.67.46-1.34.67-2,0-.08.29-.88.62-2.3C1470.63,113.14,1469.88,113,1469.13,112.84Z"/><path class="cls-1" d="M990.1,613.12l.75.63c0-.08.13-.13.17-.21C990.72,613.41,990.43,613.29,990.1,613.12Z"/><path class="cls-1" d="M1428.53,167l3.59,1.51c-1.88,1.34-3,2.09-3.3,2.21l-2.13-3.59a9.19,9.19,0,0,0,.83-.55Z"/><path class="cls-1" d="M1471.38,113.26c-.33,1.42-.62,2.22-.62,2.3-.21.71-.42,1.38-.67,2-1.26-.46-1.92-.71-2-.75l1.05-4C1469.88,113,1470.63,113.14,1471.38,113.26Z"/><path class="cls-1" d="M1471.39,113.27c3-11.12,13.29-60.25-21.58-98.93l-.33-.29c-.8-.59-80-55.19-220,55C1217.68,60.84,1134.56,4.89,1082,15.3c-13.59,2.68-24,9.62-31.11,20.7-4,3.6-52.89,48.75-40.3,131.08,1.21-1.05,2.5-2.05,3.76-3v0a96.12,96.12,0,0,1,22-12.59c33.62-13.59,65.94-1.71,84.17,8.11a134.16,134.16,0,0,1,15.26-22c-35.29-11.21-76.14-8-76.64-8l-1.67.16-.5-1.62c-6.19-20.61,17.81-56.7,18.85-58.2l.5-.75.92-.18c49.47-7.6,81.16,35.09,87.43,44.37a108.4,108.4,0,0,1,30.61-11.75c89.89-19.87,208.89,65.1,230.34,81.16V165.87l1.88.75,1,.42c1.21.5,2.43,1,3.6,1.5,8.11-5.68,28.72-22.53,38-50.92-1.25-.46-1.92-.71-2-.76l1.05-4C1469.88,113,1470.63,113.14,1471.39,113.27Zm-42.86-68.54c-.33.13-36.38,15.14-40.72,32.37-1.09,4.35,0,8.36,3.26,12.34l2.67,3.29-4.22.13c-.54,0-52,1.72-80.65,9.83l-.67.17-28.85-11.29,2.26-2.26c.58-.59,60.29-59.41,146.42-48.58l7.86,1Z"/><path class="cls-1" d="M1165.79,115.1l-3.56,2.13s-.42-.66-1.13-1.71c1.17-.79,2.39-1.5,3.6-2.17C1165.37,114.43,1165.74,115.06,1165.79,115.1Z"/><path class="cls-1" d="M1402.66,465.34l-3.39,2.43c-.75-.84-74.13-84.88-162.77-59-3.55,3.26-34.33,31.23-69.32,69.87l-3.35,3.68-.29-5c-.12-2-2-50.51,77.43-88.51l.55-.21C1242.56,388.45,1348.05,371.73,1402.66,465.34Z"/><path class="cls-1" d="M1198.94,826c-.71.58-47.79,38.42-96.54,38.42-17.56,0-35.33-4.89-51.22-18.23-.33-.33-11.87-13.63,3.89-30.85-3.6-3.6-11.25-13.34-8.32-29.19.84-4.39,3-7.36,6.48-8.82,5.6-2.38,13.46-.17,19.9,2.63l.46,4.85,2,21.37v0a10.75,10.75,0,0,0-1.55,3.22,13.72,13.72,0,0,0,1.34,10.45c-3.64,1.72-10.08,5.44-10.87,10.87-.5,3.43,1.25,6.74,5.27,9.83,1.25,1.92,7.1,10,20.23,12.46a45.06,45.06,0,0,0,8,.71c19.9,0,44.82-12.42,74.25-37l1.18-1-.59-1.42c0-.17-6.48-15.14-28.31-7.65-17.52-25.38-47.16-13.13-54.14-9.79l-6.19-7-7.4-8.36c2.47,1.25,4.52,2.42,5.9,3.26,4.59-5.9,22.16-25.42,46.95-16.94l.46.21c17.23,11,64.81,37.8,77.52,29.65l1.8-1.13,1.12,1.75C1210.77,798.88,1217.17,809.59,1198.94,826Z"/><path class="cls-1" d="M1144.5,806.75c-.5.16-1,.33-1.54.54l-.46.25s-.63.46-1.72,1.13c-7.52,4.81-38.21,22.74-61,10.58-.12-.09-.25-.13-.37-.21l-.84-.46-.88.33c-.29.09-1.17.42-2.38,1a13.72,13.72,0,0,1-1.34-10.45,10.75,10.75,0,0,1,1.55-3.22v0a16.16,16.16,0,0,1,3.84-3.93,28.27,28.27,0,0,1,6.82-3.64h0c.88-.33,1.84-.67,2.8-1,.25-.13.67-.33,1.3-.67C1097.34,793.62,1127,781.37,1144.5,806.75Z"/><path class="cls-1" d="M1175.19,706.82c-4,7.4-15.59,8.73-23.62,8.73a66.92,66.92,0,0,1-8.11-.46l-8.61-1.12,8.15-2.89c8.91-3.22,14.8-8,17.48-14.34,3.84-9-.25-18.31-.3-18.4l-6.06-13.46,9.58,11.25C1175.24,689.72,1179,699.79,1175.19,706.82Z"/><path class="cls-1" d="M1120.38,702.84l-1.55,1.17a16.83,16.83,0,0,1-10.37,3.6,18.7,18.7,0,0,1-10.87-3.6l-1.8-1.38,1.55-1.67c3.93-4.26,8.07-6.27,12.13-5.93,6.06.5,9.7,6,9.86,6.18Z"/><path class="cls-1" d="M991,613.54c0,.08-.13.13-.17.21l-.75-.63C990.43,613.29,990.72,613.41,991,613.54Z"/><path class="cls-1" d="M989.93,608.44a0,0,0,0,0,0,0s0-.08-.09-.12S989.89,608.4,989.93,608.44Z"/><path class="cls-1" d="M1046.63,616.84l-.21.13s0-.09,0-.13S1046.54,616.84,1046.63,616.84Z"/><path class="cls-1" d="M1046.63,616.84l-.21.13s0-.09,0-.13S1046.54,616.84,1046.63,616.84Z"/><path class="cls-1" d="M1378.24,507.65c15.64-5.81,15.64-5.81,14.84-8.11s-.83-2.38-21.07,4.23l-39.13,15.17h-12.42c-4.39-3.05-32.78-22.28-50.76-26l-11.58-2.39,10,6.23c.13.09,12.21,7.61,26.38,22.37-13.5.63-45,2.26-57.44,5l4.85-13.59-25.26,18.77-15,1.17c5.48-7.57,20.07-25.13,40.56-28.68l4-.71-2.92-2.85c-.21-.2-5.4-5.26-15.06-4.55-12.58.92-40.89,44-40.89,44l-23.79,6.9,25.05,2.55-1.09,6.73-8,5.94,2.3,3.51,10.16-5.85-17.81,19.19L1200.5,564l-20.82,33.61L1202,577.14c6.9,6.74,37.42,31.66,97.38,14.72.71-.08,18.48-2,50-34.24l25.84-8.28-8.7-5.64L1391.08,530h-44.32C1348.43,525.84,1354.79,516.35,1378.24,507.65Zm-107.83,73.88a121.57,121.57,0,0,1-20.49,1.72c-10.79,0-23.75-1.51-33.53-7.23l-.34-.26c-.41-.37-3.93-3.67-3.51-7.65.13-1.5.92-3.63,3.81-5.39,1.29-.84,22.49-14.51,38.46-16.14l2.14-.21.16,2.18c0,.2,1.68,21.19,14.05,29.18l4.43,2.89Zm25.59-5.22a14.87,14.87,0,1,1,14.84-14.84A14.84,14.84,0,0,1,1296,576.31Z"/><path class="cls-1" d="M1467.41,1558.72l0,0,.51-.37A2.51,2.51,0,0,0,1467.41,1558.72Z"/><path class="cls-1" d="M1656.57,353v0a10.2,10.2,0,0,1-3.85,4c-4.93,2.72-11.37.42-15.3-1.54,1.21,23.37-6.73,25.33-8.41,25.46a21.91,21.91,0,0,1-6.6,1,17.83,17.83,0,0,1-11-3.72c-15-11.41-15-45.7-14.93-49.59-2.84-10.41-2.38-16.34,1.3-18.73s9.32.21,13.29,2.76l-3.67-19.65c-.8-9.95,1-15.55,5.39-17.35,7.82-3.22,21.16,8.7,29.52,17.43v.05c1.21,3.3,2.34,6.6,3.38,9.95a287.67,287.67,0,0,1,8.91,36.79h0C1655.35,344.23,1656,348.58,1656.57,353Z"/><path class="cls-1" d="M1649.46,301.2c1.13,3.6,2.17,7.2,3.18,10.83l-6.82-8.69c0-.09-.12-.13-.17-.21-1-3.35-2.17-6.65-3.38-9.95,3.22,3.3,5.64,6.14,6.81,7.52l.38.46Z"/><path class="cls-1" d="M1656.57,353c-.55-4.39-1.22-8.74-2-13.05l4.14-.21v.09C1659,345.48,1658.28,349.87,1656.57,353Z"/><path class="cls-1" d="M1724.8,255.8q-5-6.72-10.41-13.17l0,0,3.72-1.93A152.77,152.77,0,0,1,1724.8,255.8Z"/><path class="cls-1" d="M1104.87,195.93l-.42.67-.71.25a75.7,75.7,0,0,0-26.72,15.8l-.67.42c-11.54,4.77-20.86,6.4-28.18,6.4-14.67,0-21.32-6.44-21.74-6.86l-.54-.54,0-.76C1023.5,184,1075.77,178,1078,177.7c15-.17,24,2.63,27.13,8.19C1107.92,190.79,1105,195.72,1104.87,195.93Z"/><path class="cls-1" d="M1843.59,1343.52c-1.46.12-149.6,15.47-216,127.9l-3.76-1.8c.5-1.34,50.51-133.08,219.63-130.28Z"/><path class="cls-1" d="M1670.24,1315.88c-10.2,32.11-26.47,62.09-45.7,89.35-3.43,4.89-7,9.66-10.58,14.34v0c-7.52,9.79-15.39,19.2-23.5,28.23,5.9-4.73,11.92-9.62,18-14.64,2.51-3,5-6.1,7.4-9.24,4.6-5.93,9.12-12,13.42-18.27,18.9-27.09,34.83-56.78,45-88.55Zm-11.58,5.19c-1,1.38-74.72,110.25-144.21,186.18,9-6.86,24.92-18.94,44.2-34.07,36-39.64,75.46-91.11,103.6-150.07Zm141.53,94.15,29.56-9.86C1819.38,1408.33,1809.51,1411.67,1800.19,1415.22Zm-175.65-10c-3.43,4.89-7,9.66-10.58,14.34v0c-7.52,9.79-15.39,19.2-23.5,28.23s-16.51,17.85-24.92,26.09c-2.51,2.46-5,4.89-7.52,7.23a0,0,0,0,0,0,0q-13.31,12.67-26.26,23.63l10.28-3.43c5.11-4.43,10.25-9.12,15.43-14,4.77-4.43,9.58-9.07,14.34-13.84a525.25,525.25,0,0,0,36.67-40.39c2.51-3,5-6.1,7.4-9.24,4.6-5.93,9.12-12,13.42-18.27,18.9-27.09,34.83-56.78,45-88.55l-4-1.26C1660,1348,1643.77,1378,1624.54,1405.23Zm-65.89,68c36-39.64,75.46-91.11,103.6-150.07l-3.59-2c-1,1.38-74.72,110.25-144.21,186.18-1,1.13-2,2.26-3,3.35h-1.47c-2.34,1.79-3.59,2.71-3.59,2.71l20.11-6.69C1536.57,1496.67,1547.44,1485.51,1558.65,1473.18Zm111.59-157.3c-10.2,32.11-26.47,62.09-45.7,89.35-3.43,4.89-7,9.66-10.58,14.34v0c-7.52,9.79-15.39,19.2-23.5,28.23s-16.51,17.85-24.92,26.09a11.69,11.69,0,0,1,6.23-.34,525.25,525.25,0,0,0,36.67-40.39c2.51-3,5-6.1,7.4-9.24,4.6-5.93,9.12-12,13.42-18.27,18.9-27.09,34.83-56.78,45-88.55Z"/><path class="cls-1" d="M2110.39,1537.1l2,7.7,2.09-7.65c16.39-60.17-52.3-122.05-86.34-148.35-2.84-4.6-6.19-9.7-10.07-15.22,58.74,24.38,77.76,75.14,80.06,81.78.09.25.17.51.25.76l4-1.26s-.09-.25-.21-.67c-15.26-46.32-43.23-77.26-83.12-92.07-4.06-1.5-8.2-2.8-12.38-3.93-41.1-52.34-122.3-126.18-263.12-148.38l148.72-188.7-3.26-2.59-150.18,190.53c-6.57-1-13.21-1.84-20-2.59l-.63,4.14c.34.08,6.19,1.25,16.31,4l-68.78,87.26c-83.16,32.87-255.26,145.34-257,146.47l-.42.37c-86.63,99.31-122.93,104.91-123.26,104.95l-.92.13-.54.75q-10.23,14.41-17.86,27.68a90.18,90.18,0,0,1-14.88,2.09,3.33,3.33,0,0,1-.63,0,268.65,268.65,0,0,1,41.48-52.9l-2.84-3c-.21.21-5.15,4.85-12.3,13,0,0,0,.09,0,.09a9.93,9.93,0,0,1-.88,1.46,9.19,9.19,0,0,1-2.51,2.43c-12.75,15-30.43,39.09-41.77,67.6-4.3.63-8.65,1.09-13.08,1.51-.3,0-.63,0-.92.08l-3.6.3,2,3c.08.16,1.71,2.46,5.94,4.64a32.05,32.05,0,0,0,5.48,2.13c-8.16,25.55-10.42,54,.41,82.49l3.93-1.46c-10.49-27.56-8.23-55.19-.29-80l.71.13a60,60,0,0,0,9.62.75c1,0,2.09,0,3.22-.08a205.47,205.47,0,0,0-8.36,29.43c-4.56,1-7.11,1.59-7.28,1.63l.84,4.1c.16,0,2.09-.42,5.6-1.25-3.72,21.07-1.76,33.36-1.59,34.45l4.14-.71c0-.25-2-12.92,2.13-34.87a748.39,748.39,0,0,0,123.85-42.53c-32.91,58-19.49,93.49-14,103.82-20.49,1.42-35.2,8.7-43.78,21.53-15.84,23.88-5.43,59-2.67,67.07-16.22,10-26.43,22.95-30.36,38.59-7.11,28.35,8.82,55.07,9.49,56.15l.51.84.92.17c15,2.46,54.52,12.37,58.2,28.09,1.54,6.53-3.22,13.8-14.09,21.66-23.63,17.1-34,28.85-31.7,35.92,1.72,5.31,9.24,5.39,9.54,5.39l.58-.08c1.51-.42,153-41.44,214.58,47.46,63.38,91.35,150.73,63.34,151.44,63.09,84.71-22.45,117.45,51,118.78,54.14l4-1.33c-5.4-22.54-3.39-38.55,5.89-47.63,14.18-13.88,41.23-7,41.48-6.94l1.34-4c-26.68-11-33.29-20.15-34.12-25.88a9.14,9.14,0,0,1,2.92-8l.59-.71c2.38-4.89,6.27-8.15,12-9.95,27.22-8.7,82.28,21.28,82.83,21.57l2.3-3.47-48.63-36.83c.25-4.85,1.71-7.86,4.56-9.28,9.78-4.9,33.32,9.7,41.56,15.72l2.67-3.18-51.63-50.38-1.22,2.76c-6.56,14.71-14.59,23.41-23.79,25.75-8.86,2.3-16.22-2.17-17.81-3.22-3.05-5.22-3.43-10.12-1.17-15,12.42-26.5,96.75-40.6,106.12-42.1.17,0,.29,0,.42,0h.21c112.51-3.6,177.57-188,180.37-196.14,18.77-84.42,13.42-151.44-1.59-202.91v0c-.46-1.67-.92-3.26-1.42-4.85a292.31,292.31,0,0,0-37.88-79.15,280,280,0,0,0-53.69-58.62C2083.38,1434.46,2110.09,1535.93,2110.39,1537.1Zm-842.92,50.43c17.94-2,48.42-7.82,95.88-24.08-19.95,12.25-59.08,33.45-106.33,44.52Q1261.53,1598.19,1267.47,1587.53Zm-31.4,24.63a201.46,201.46,0,0,1,11.71-23.79c.29,0,.62,0,.92,0a98.94,98.94,0,0,0,13.63-.38q-6.09,11-10.58,21.16C1246.61,1610.32,1241.38,1611.28,1236.07,1612.16Zm5.06,42.35a214.8,214.8,0,0,1,8.45-28.6c30.14-3.05,82.45-23.37,172.43-89.43l12-8.87-14,5.23c-1.21.42-99.51,36.79-148.76,48.12,4.43-7.48,9.49-15.3,15.17-23.33,6.4-1.38,43.49-12.87,124.73-106,7.44-4.81,175.4-114.27,256.51-146.13l.54-.21,70.58-89.56c44,12.3,150.35,49.21,243.51,137.73-49.84-5.94-106,7.48-153.82,24.71,4.76-5.31,12.12-11.54,23-18.82,53.23-35.53-81.28-36.87-81.28-36.87s0-46.16-61.84,20.23c-25.21,27.1-63.47,60.46-100,90.48a525.25,525.25,0,0,1-36.67,40.39c-4.76,4.77-9.57,9.41-14.34,13.84-5.18,4.85-10.32,9.54-15.43,14l-10.28,3.43c-2.68,2.3-5.31,4.47-8,6.64-.66-.12-1.33-.2-2-.29,1.54-1.5,3.13-3,4.72-4.56l-20.11,6.69s1.25-.92,3.59-2.71c-25.29.25-57.65,9.11-72.33,22.66-19.82,18.35-14.76,39.93-13.42,44.49-.63,1.38-1.21,2.75-1.76,4.09C1349,1625.2,1270.48,1647.28,1241.13,1654.51ZM1468,1558.39l-.51.37,0,0A2.51,2.51,0,0,1,1468,1558.39ZM1695.58,2036c-158-128.16-215.71-254.26-216.25-255.51l-3.89,1.5c45.28,136.56,190,238.83,214.79,255.59a73.17,73.17,0,0,1-40.6-1.33c-61-19.15-97.67-85.76-98-86.43l-39.09-73.13-.59-.71c-.88-.62-84-64.43-77.77-142.66,5.48-69.49-13.17-86.71-19.27-90.43,1.38-3.89,6.19-14,19.86-20.91.29-.08.5-.17.54-.17v-.12c7.9-3.89,18.73-6.69,33.45-6.73-.21.62-.42,1.25-.58,1.88-30,102.81,88.43,260.77,93.32,267.21,54.44,92.82,139.15,109.8,186.23,111.47C1741.74,2003.72,1723.13,2026.84,1695.58,2036ZM2058,1477.48a286.76,286.76,0,0,1,36.54,75.51c.54,1.59,1.05,3.26,1.51,4.89,15.38,51.22,21.15,118.25,2.29,203.08-.66,1.93-66.85,189.57-176.56,193.09h-.17c-.13,0-.34,0-.63.08-.12,0-.25,0-.42,0-9.82.84-77.6,7.7-139.35,35.63-6.65,1-140.28,20.36-215.83-107.33v0c-.13-.25-.3-.46-.42-.71s-1.3-1.75-3.35-4.6c-19.48-27.13-116-167.95-89.43-259.14.29-1,.58-2,1-3a38.5,38.5,0,0,1,1.46-4.1c8.53-22.87,25.09-40.56,49.47-52.89,2.42-1.25,4.93-2.43,7.52-3.51s5.23-2.26,8-3.26l92.53-43c7.4,11.34,51.43,77.65,75.3,82.58l1.46.29.76-1.29c.54-.92,13.21-22.91,5.85-37-3.39-6.44-10.2-10.12-20.32-10.92l-2.26-.16v11.41a14.6,14.6,0,0,1-5.56-9.7c-.79-8.07,6.1-17.9,20-28.47l.29-.3c4.35-5.1,25.71-30.89,18.86-40.39-3-4-9.83-4.3-21.24-.66,28.85-23.42,127.1-92.11,267.8-75.93a168.46,168.46,0,0,1,19.23,12.12,120.24,120.24,0,0,0-24.25.92l.54,4.18a107.79,107.79,0,0,1,30.44-.08l0,0A276.39,276.39,0,0,1,2058,1477.48Zm-57.45-66.69c-15.18-11.54-25.76-16.89-26-17l-.71-.17a364.74,364.74,0,0,0-144.12,11.75l-29.56,9.86c9.32-3.55,19.19-6.89,29.56-9.86,0,0-15.39-5.1-6.44-20.32,67.07-24.67,124.56-31.07,171.84-19.07a513.89,513.89,0,0,1,42.86,49.51l10.08,13.25-6.52-15.35c-.13-.29-2.39-5.47-7.2-14,33.12,27.42,84.75,78.89,77.65,128.78C2103.53,1502.23,2071.59,1421.54,2000.55,1410.79Z"/><path class="cls-1" d="M1682.45,1580.17c-27.76,5.06-31.23-10.83-31.36-11.5l-.67-3.43-2.72,2.22c-16.81,13.59-36.83,10.45-39.13,10-11.42-5.43-20.74-5.93-27.72-1.54-12.34,7.77-12.51,27.76-12.51,28.6v1.17l1,.62a11.37,11.37,0,0,1,5.6,8.41c2.84,18.65-26.47,52.43-26.76,52.76l-4.68,5.36,6.81-2c16.94-4.85,37.3,24.25,37.51,24.54l1.55,2.26,98.75-118.57Zm-92.82,110.67c-4.85-6.39-19.74-24.25-34.92-24.62,8-10,26.89-35.46,24.34-52.14a15.15,15.15,0,0,0-6.48-10.62c.21-4.1,1.59-18.36,10.49-24,5.77-3.64,13.8-3,24,1.88l.46.17c.92.21,21.74,4.47,40.56-9.11,2.38,5.1,9.53,14.63,29.73,12.62Z"/><path class="cls-1" d="M1621.91,1860.35a7.79,7.79,0,0,1-4.94,5l-.75.25-.75-.29c-2.93-1.25-71.58-31.44-74.51-83.87l-.13-1.59,1.55-.5c.29-.13,33.53-10.83,58.75,25.75C1603.8,1809.34,1626.76,1846.59,1621.91,1860.35Z"/><circle class="cls-1" cx="1268.37" cy="1030.13" r="4.34"/><circle class="cls-1" cx="1257.96" cy="1044.67" r="6.07"/><circle class="cls-1" cx="1344.03" cy="1030.13" r="4.34"/><circle class="cls-1" cx="1347.84" cy="1066.4" r="4.34"/><circle class="cls-1" cx="1357.99" cy="1078.18" r="4.34"/><circle class="cls-1" cx="1400.06" cy="1106.23" r="4.34"/><circle class="cls-1" cx="1432.09" cy="1146.82" r="4.34"/><circle class="cls-1" cx="1395.72" cy="1151.16" r="4.34"/><circle class="cls-1" cx="1387.04" cy="1169.66" r="4.34"/><circle class="cls-1" cx="1330.17" cy="1106.23" r="6.07"/><circle class="cls-1" cx="1296.28" cy="1106.23" r="6.07"/><circle class="cls-1" cx="1272.7" cy="1118.36" r="6.07"/><circle class="cls-1" cx="1264.03" cy="1153.07" r="6.07"/><circle class="cls-1" cx="1195.57" cy="1189.85" r="6.07"/><circle class="cls-1" cx="1189.5" cy="1214.61" r="6.07"/><circle class="cls-1" cx="1319.12" cy="1169.66" r="6.07"/><circle class="cls-1" cx="1420.77" cy="1225.38" r="6.07"/><circle class="cls-1" cx="1516.98" cy="1175.73" r="6.07"/><circle class="cls-1" cx="1477.42" cy="1181.8" r="4.34"/><circle class="cls-1" cx="1466.22" cy="1195.92" r="4.34"/><circle class="cls-1" cx="1450.88" cy="1181.8" r="4.34"/><circle class="cls-1" cx="1347.84" cy="1137.48" r="4.34"/><circle class="cls-1" cx="1366.66" cy="1214.61" r="4.34"/><circle class="cls-1" cx="1183.44" cy="1122.7" r="4.34"/><circle class="cls-1" cx="1382.71" cy="1248.75" r="4.34"/><circle class="cls-1" cx="1319.12" cy="1200.25" r="4.34"/><circle class="cls-1" cx="1325.19" cy="1210.28" r="4.34"/><circle class="cls-1" cx="1450.88" cy="1261.21" r="4.34"/><circle class="cls-1" cx="1420.77" cy="1286.97" r="4.34"/><circle class="cls-1" cx="1436.43" cy="1214.61" r="4.34"/><circle class="cls-1" cx="1404.54" cy="1169.66" r="7.83"/><circle class="cls-1" cx="1523.04" cy="1265.54" r="7.83"/><circle class="cls-1" cx="1473.08" cy="1225.66" r="7.83"/><circle class="cls-1" cx="1450.88" cy="1341.43" r="7.83"/><circle class="cls-1" cx="1458.71" cy="1390.62" r="7.83"/><circle class="cls-1" cx="1469.41" cy="1383.94" r="6.68"/><circle class="cls-1" cx="1371" cy="1159.14" r="4.34"/><circle class="cls-1" cx="1339.7" cy="1163.6" r="4.34"/><circle class="cls-1" cx="1299.19" cy="1377.26" r="12.03"/><circle class="cls-1" cx="1336.11" cy="1392.52" r="10.56"/><path class="cls-1" d="M1310.87,1510.51a10.23,10.23,0,0,1-4.77,3.64,10.66,10.66,0,0,1-8.61-.46,11.78,11.78,0,0,1-1.38-.88,10.56,10.56,0,1,1,14.76-2.3Z"/><circle class="cls-1" cx="1323.35" cy="1515.48" r="8.18"/><circle class="cls-1" cx="1162.09" cy="1496.12" r="8.18"/><circle class="cls-1" cx="1139.08" cy="1398.45" r="8.18"/><circle class="cls-1" cx="1240.68" cy="1341.43" r="8.18"/><circle class="cls-1" cx="1329.52" cy="1195.92" r="4.34"/><circle class="cls-1" cx="1323.46" cy="1133.14" r="4.34"/><circle class="cls-1" cx="1312.61" cy="1137.48" r="4.34"/><circle class="cls-1" cx="1380.81" cy="1205.94" r="4.34"/><circle class="cls-1" cx="1391.38" cy="1200.25" r="4.34"/><circle class="cls-1" cx="1404.54" cy="1242.77" r="4.34"/><circle class="cls-1" cx="1440.76" cy="1250.74" r="6.07"/><circle class="cls-1" cx="1500.26" cy="1273.37" r="6.07"/><circle class="cls-1" cx="1538.69" cy="1276.65" r="4.34"/><circle class="cls-1" cx="1413.21" cy="1276.65" r="4.34"/><circle class="cls-1" cx="1412.36" cy="1238.43" r="4.34"/><circle class="cls-1" cx="1416.7" cy="1331.47" r="10.56"/><circle class="cls-1" cx="1427.75" cy="1322.22" r="4.34"/><circle class="cls-1" cx="1408.87" cy="1314.88" r="4.34"/><circle class="cls-1" cx="1494.19" cy="1310.54" r="4.34"/><circle class="cls-1" cx="1489.85" cy="1326.56" r="4.34"/><circle class="cls-1" cx="1506.32" cy="1330.9" r="4.34"/><circle class="cls-1" cx="1516.98" cy="1331.47" r="4.34"/><circle class="cls-1" cx="1498.53" cy="1377.26" r="4.34"/><circle class="cls-1" cx="1462.73" cy="1359.87" r="4.34"/><circle class="cls-1" cx="1455.22" cy="1355.39" r="4.34"/><circle class="cls-1" cx="1470.56" cy="1341.43" r="6.07"/><circle class="cls-1" cx="1308.27" cy="1248.75" r="7.83"/><circle class="cls-1" cx="1306.16" cy="1272.32" r="7.83"/><circle class="cls-1" cx="1308.83" cy="1234.54" r="6.07"/><circle class="cls-1" cx="1256.23" cy="1195.92" r="4.34"/><circle class="cls-1" cx="1296.28" cy="1225.38" r="6.07"/><circle class="cls-1" cx="1290.22" cy="1253.08" r="4.34"/><circle class="cls-1" cx="1272.7" cy="1253.08" r="4.34"/><circle class="cls-1" cx="1277.04" cy="1231.45" r="4.34"/><circle class="cls-1" cx="1277.04" cy="1272.32" r="6.07"/><circle class="cls-1" cx="1287.18" cy="1292.62" r="7.37"/><circle class="cls-1" cx="1396.71" cy="1264.49" r="4.34"/><circle class="cls-1" cx="1336.24" cy="1242.77" r="4.34"/><circle class="cls-1" cx="1510.66" cy="1359.87" r="4.34"/><circle class="cls-1" cx="1366.66" cy="1271.42" r="5.66"/><circle class="cls-1" cx="1396.71" cy="1285.24" r="5.66"/><circle class="cls-1" cx="1294.55" cy="1414.19" r="10.56"/><circle class="cls-1" cx="1391.38" cy="1326.56" r="5.66"/><circle class="cls-1" cx="1380.81" cy="1314.88" r="5.66"/><circle class="cls-1" cx="1347.84" cy="1296.09" r="5.66"/><circle class="cls-1" cx="1420.77" cy="1349.26" r="5.66"/><circle class="cls-1" cx="1327.79" cy="1296.09" r="5.66"/><circle class="cls-1" cx="1376.47" cy="1372.92" r="7.83"/><circle class="cls-1" cx="1391.67" cy="1365.77" r="5.66"/><circle class="cls-1" cx="1375.34" cy="1360.12" r="5.66"/><circle class="cls-1" cx="1357.99" cy="1337.07" r="5.66"/><circle class="cls-1" cx="1336.24" cy="1343.6" r="7.83"/><circle class="cls-1" cx="1312.61" cy="1326.56" r="5.66"/><circle class="cls-1" cx="1328.41" cy="1326.56" r="5.66"/><circle class="cls-1" cx="1340.57" cy="1314.88" r="5.66"/><circle class="cls-1" cx="1322.75" cy="1310.54" r="4.34"/><circle class="cls-1" cx="1283.11" cy="1311.32" r="5.66"/><circle class="cls-1" cx="1272.7" cy="1324.99" r="5.66"/><circle class="cls-1" cx="1434.69" cy="1355.39" r="4.34"/><circle class="cls-1" cx="1414.71" cy="1398.45" r="4.34"/><circle class="cls-1" cx="1404.54" cy="1380.75" r="4.34"/><circle class="cls-1" cx="1443.06" cy="1390.62" r="4.34"/><circle class="cls-1" cx="1434.69" cy="1402.79" r="4.34"/><circle class="cls-1" cx="1385.14" cy="1393.93" r="4.34"/><circle class="cls-1" cx="1352.18" cy="1354.46" r="4.34"/><circle class="cls-1" cx="1352.18" cy="1380.75" r="4.34"/><circle class="cls-1" cx="1316.1" cy="1376.41" r="5.66"/><circle class="cls-1" cx="1290.22" cy="1349.26" r="5.66"/><circle class="cls-1" cx="1287.18" cy="1364.21" r="5.66"/><circle class="cls-1" cx="1391.05" cy="1412.84" r="5.66"/><circle class="cls-1" cx="1356.51" cy="1437.35" r="5.66"/><circle class="cls-1" cx="1349.35" cy="1448.29" r="7.17"/><circle class="cls-1" cx="1315.93" cy="1472.07" r="5.66"/><circle class="cls-1" cx="1330.17" cy="1472.07" r="5.66"/><circle class="cls-1" cx="1288.77" cy="1485.35" r="5.66"/><circle class="cls-1" cx="1339.7" cy="1453.1" r="10.56"/><circle class="cls-1" cx="1172.59" cy="1195.92" r="4.34"/><circle class="cls-1" cx="1022.31" cy="1523.32" r="4.34"/><circle class="cls-1" cx="1107.76" cy="1582.21" r="4.34"/><circle class="cls-1" cx="1103.42" cy="1569.07" r="4.34"/><circle class="cls-1" cx="994.92" cy="1431.69" r="4.34"/><circle class="cls-1" cx="1030.98" cy="1380.75" r="4.34"/><circle class="cls-1" cx="1035.32" cy="1351.43" r="4.34"/><circle class="cls-1" cx="1039.66" cy="1292.62" r="4.34"/><circle class="cls-1" cx="1022.31" cy="1322.22" r="5.66"/><path class="cls-1" d="M1147.6,1288.37a9.51,9.51,0,0,1-3,2.76v0a10.34,10.34,0,0,1-4,1.42,10.56,10.56,0,0,1-10.08-16.68,6.62,6.62,0,0,1,.88-1.05,9.82,9.82,0,0,1,3.47-2.42,10.56,10.56,0,0,1,12.71,15.93Z"/><circle class="cls-1" cx="987.43" cy="1389.6" r="7.17"/><circle class="cls-1" cx="962.32" cy="1376.41" r="5.66"/><circle class="cls-1" cx="980.26" cy="1487.94" r="5.66"/><circle class="cls-1" cx="1044.79" cy="1466.41" r="8.18"/><circle class="cls-1" cx="1069.92" cy="1491.01" r="5.66"/><path class="cls-1" d="M1088.81,1504.28a5.67,5.67,0,1,1-5.68-5.64,5.42,5.42,0,0,1,3.55,1.29,5.23,5.23,0,0,1,2,3.35A4.27,4.27,0,0,1,1088.81,1504.28Z"/><circle class="cls-1" cx="1180.59" cy="1614.42" r="10.56"/><circle class="cls-1" cx="1270.1" cy="1498.62" r="10.56"/><path class="cls-1" d="M1276.5,1541.24s0,.09,0,.09a9.93,9.93,0,0,1-.88,1.46,9.19,9.19,0,0,1-2.51,2.43,10.55,10.55,0,1,1,.21-17.19A10.6,10.6,0,0,1,1276.5,1541.24Z"/><circle class="cls-1" cx="1195.57" cy="1569.07" r="5.66"/><circle class="cls-1" cx="1155.67" cy="1518.98" r="5.66"/><circle class="cls-1" cx="1203.87" cy="1588.78" r="7.89"/><circle class="cls-1" cx="1207.95" cy="1623.51" r="13.81"/><circle class="cls-1" cx="1143.71" cy="1477.73" r="10.56"/><circle class="cls-1" cx="1189.91" cy="1385.09" r="5.28"/><circle class="cls-1" cx="1188.4" cy="1394.11" r="5.28"/><circle class="cls-1" cx="1189.91" cy="1412.84" r="5.28"/><circle class="cls-1" cx="1212.37" cy="1377.26" r="4.34"/><circle class="cls-1" cx="1231.03" cy="1501.25" r="4.34"/><circle class="cls-1" cx="1235.36" cy="1412.84" r="4.34"/><circle class="cls-1" cx="1212.37" cy="1466.41" r="6.07"/><circle class="cls-1" cx="1192.62" cy="1482.28" r="6.07"/><circle class="cls-1" cx="1241.17" cy="1389.6" r="6.07"/><circle class="cls-1" cx="1231.03" cy="1371.43" r="6.07"/><circle class="cls-1" cx="1236.06" cy="1296.95" r="6.07"/><circle class="cls-1" cx="1216.7" cy="1396.76" r="10.56"/><circle class="cls-1" cx="1147.99" cy="1360.12" r="6.07"/><circle class="cls-1" cx="1180.59" cy="1324.99" r="7.83"/><circle class="cls-1" cx="1202.12" cy="1328.13" r="5.66"/><circle class="cls-1" cx="1189.91" cy="1337.84" r="5.66"/><circle class="cls-1" cx="1231.03" cy="1448.29" r="7.83"/><circle class="cls-1" cx="1253.04" cy="1439.65" r="4.34"/><circle class="cls-1" cx="1240.68" cy="1466.01" r="4.34"/><circle class="cls-1" cx="1143.71" cy="1668.9" r="4.34"/><circle class="cls-1" cx="1168.25" cy="1688.08" r="4.34"/><circle class="cls-1" cx="1625.75" cy="1417.18" r="12.03"/><circle class="cls-1" cx="1682.84" cy="1466.01" r="12.03"/><path class="cls-1" d="M1579,1492.45a12.08,12.08,0,0,1-16.81,2.63,12.06,12.06,0,0,1-4.22-13.88,0,0,0,0,1,0,0,10.33,10.33,0,0,1,1.55-2.93,11.44,11.44,0,0,1,6-4.3,12,12,0,0,1,10.83,1.71A12,12,0,0,1,1579,1492.45Z"/><circle class="cls-1" cx="1504.83" cy="1484.28" r="17.55"/><circle class="cls-2" cx="1387.04" cy="1632.45" r="5.66"/><circle class="cls-2" cx="1402.37" cy="1618" r="5.66"/><circle class="cls-2" cx="1375.15" cy="1688.08" r="10.56"/><circle class="cls-2" cx="1328.41" cy="1798.13" r="10.56"/><circle class="cls-2" cx="1389.48" cy="1745.94" r="7.89"/><circle class="cls-2" cx="1376.47" cy="1730.09" r="7.89"/><circle class="cls-2" cx="1376.47" cy="1840.42" r="7.89"/><circle class="cls-2" cx="1357.99" cy="1815.46" r="7.89"/><path class="cls-1" d="M1199.61,1026.3l-.16-1.67-1.68-.21c-.5-.08-20.65-2.51-47.66-12.71q5.9.25,12.17.25a303.21,303.21,0,0,0,55.56-5.31l-.75-4.14c-31,5.81-57.62,6.19-79.4,4.1,0,0-13.55-2.26-28.76-5.73a.63.63,0,0,1-.17,0,77.51,77.51,0,0,1-8-1.88,1.84,1.84,0,0,0-.25-.09c-12.25-3.59-34.78-12.71-45.24-33.4a49.44,49.44,0,0,1-4.76-14.18c0-.12,0-.25-.09-.37-.17-.66-.33-1.33-.5-2h0a133.48,133.48,0,0,1-2.51-13.71c-2.21-26.84.29-53.05.5-55.52a182.68,182.68,0,0,0-5.31,48.5l.51,8.28c.18,2.1.41,4.22.72,6.35q.28,2.07.66,4.14l-34.7-42.15c17.4,28.29,33.31,44,35.28,45.93l.15.14.06.06s-.67,12,9.49,25.37l0,.05c8.41,11.08,24.25,23.08,54.07,30a228.41,228.41,0,0,0,27.76,4.39c28.76,12.54,52.47,16.68,58.91,17.64l19.78,220.6.25,0h0c1.29-1,2.51-1.92,3.68-2.8Z"/><path class="cls-1" d="M1118.21,235.9a65.66,65.66,0,0,0,23.24-10.28c-1.08-1-2.17-1.89-3.17-2.89a77.55,77.55,0,0,1-16.64-21.45c-9.83-19.27-5-34.16-4.81-34.8.54-1.12,1.13-2.2,1.75-3.29s1.26-2.42,2-3.64c-18.23-9.82-50.55-21.7-84.17-8.11a96.12,96.12,0,0,0-22,12.59v0c-1.26,1-2.55,2-3.76,3-42.65,35.46-71.71,113.39-86.55,232.3-.21,1.34-5.15,33.53,19.52,115.07-7,6.69-48.62,49-50.3,110.21-1.29,47.58,21.2,94.7,66.94,140.07l0,0,5.82,22.37a325.07,325.07,0,0,0,43.73,117.65l34.7,42.15q-.37-2.07-.66-4.14c-83.18-86.43-77.64-213-77.64-213,2.68-26.61,9.18-67.27,24.82-116.29a102.23,102.23,0,0,0,41.22,8.4,119.58,119.58,0,0,0,26.6-3.05c-3.6,5.44-7.65,11.08-12.21,17-1.93,1.63-15.89,14.17-16.6,34.45-.55,15.93,42.59,40.89,48,43.93-48.58-28.84-18.11-65.42-18.11-65.42,4.6-5.64,56.2-70.91,31.69-106.49l-4.68-6.78.88,8.2c0,.17.67,7.52-2.93,21h-60.25c36.63-35.92,49.38-25.17,49.68-24.88l10.41,7.74.08-4c0-1,.5-24.21-12.71-34.87-6.27-5.06-14.47-6.4-24.38-4l-.5.12-.37.3c-1.89,1.59-46.12,38.55-46.79,64.39a3,3,0,0,1-1.21,0c-1.68-.34-5.52-2.09-11.63-10.5a48.42,48.42,0,0,1,3.85-8.74l.42-.75-.25-.84A347.62,347.62,0,0,1,982,503c12.58-22.83,33.36-28.43,33.61-28.51,35.54-8.74,72.13,47.12,72.51,47.7l3.63-2c-27.72-62.72-60.83-66.48-65.06-66.69-17.68-6.48-35,3.3-47.49,14.09a208.07,208.07,0,0,1,3.09-42.27l0-.21v-.21C982.32,423.67,981,301.25,1118.21,235.9Zm-56.45,347.83a9.49,9.49,0,1,1-9.49,9.49A9.47,9.47,0,0,1,1061.76,583.73Zm-15.13,33.11-.21.13s0-.09,0-.13S1046.54,616.84,1046.63,616.84Zm-3.39-32.44c-2.13,10.83-1.3,19.06.08,24.5-19.23,1.8-28.85-2-33.65-6.31a15.72,15.72,0,0,1-3-3.43C1018.4,591,1031.32,586.61,1043.24,584.4ZM991,613.54c0,.08-.13.13-.17.21l-.75-.63C990.43,613.29,990.72,613.41,991,613.54Zm-1.09-5.1a0,0,0,0,0,0,0s0-.08-.09-.12S989.89,608.4,989.93,608.44Zm-54.35,8.11-3.73-10.24c-.2-.55-4.51-13.38,12.8-63.43.75-1.59,4.22-8.11,9-7.32,3.88.59,6.39,5.77,7.9,16.18l.17,1-.76.71c-.25.25-24.29,25.29-25,52.14Zm33.11-15.3c-4.35,13.54-20.61,52.47-21.32,54.1l-.71,1.72-1.76-.51a3.78,3.78,0,0,1-2.47-2.09c-4.64-9.15,13.8-58.62,17.86-69.15,1.63-14.89,3.13-16.64,4.8-17.23a2.56,2.56,0,0,1,2.72.63C971,571.73,971.53,592.43,968.69,601.25Zm57.2-389.18,0-.76C1023.5,184,1075.77,178,1078,177.7c15-.17,24,2.63,27.13,8.19,2.76,4.9-.16,9.83-.29,10l-.42.67-.71.25a75.7,75.7,0,0,0-26.72,15.8l-.67.42c-11.54,4.77-20.86,6.4-28.18,6.4-14.67,0-21.32-6.44-21.74-6.86ZM1078,714.29l.4.23Z"/></svg>