<svg id="Layer_1" data-name="Layer 1" xmlns="http://www.w3.org/2000/svg" viewBox="0 0 2772.02 2424.91"><defs><style>.cls-1{fill:#710202;}.cls-2{fill:#dcdfe5;}.cls-3{fill:#010101;}</style></defs><path class="cls-1" d="M2592.58,1058.32c-6.64-44-15.4-87.68-24.52-131.26-8.66-41.29-23.51-80.8-38.22-120.26-16.45-44.22-31.8-88.95-50.64-132.17-10.77-24.66-28.09-46.38-41.61-69.89-30-52.38-62.56-103.58-102.71-148.26-33.73-37.67-63-79.42-100.87-113.47-28.09-25.26-53.21-54.13-83-77-10.22-7.89-17.73-18.47-29.46-25.58-41-24.74-80.21-52.52-122.42-75.34-33-17.92-66.45-35.2-100.45-51.24-34.33-16.13-68.93-31.62-104.72-44.73-51.24-18.83-103.26-35.2-156.47-45.69-53.39-10.54-107.24-18.24-162.23-21-115.91-5.82-230.57-2-343.68,24.75-16.82,4-33.92,3.85-50.78,10.41-35.52,13.79-72.32,24.38-108.34,36.84-43.59,15-85,34.65-126,54-35.56,16.86-71.22,35.65-103.76,59.35-38.45,28-79.37,52.7-117.87,80.7-56.78,41.2-101.15,95.33-147.76,146.93-17.18,19.07-35.19,37.63-50.32,58.25-29.69,40.56-58.7,81.76-85.93,124-19.15,29.74-41,59.94-50.73,93.12-13.25,45-36,85.7-50.32,130.25-12.93,40.24-22.69,81.26-33.78,121.77-10.86,39.78-16,81.35-23.19,122.18-7.74,44.14-15.76,87.58-13.7,132.63,1.47,31.17-3.21,63.2,2.52,93.4,8.48,44.46,11.46,89.74,23.05,133.73,12.06,45.7,20.53,92.35,32.68,138,12.65,47.48,32.13,92.72,52.06,137.49,10.63,23.93,15.49,50,32.22,71.91,19.52,25.57,38.13,52.93,51.15,82.22,18.79,42.21,51.46,73.46,78,109.44,17.37,23.51,38.22,44.55,58.38,66,26.91,28.69,53.35,58.34,82,84.92,71.72,66.55,153.16,120.49,239.73,165.72,39.1,20.44,70.12,53,119.25,59.95,47.07,6.64,90.2,34.09,138.46,45.78,43.35,10.45,85.79,21.77,130.52,25.9,33.22,3,66.45,6.69,99.72,9.71,71.59,6.51,142.85,1.47,214-4.08,59-4.63,116.27-19.29,173.78-33.18,53.08-12.79,105-30.25,153.49-52.47,80.61-36.9,161.14-74.48,233.73-128.56,62.33-46.42,121.31-95.41,176-150.23,38.49-38.58,70.67-82.4,105.54-124,19.94-23.79,33.27-51.75,50.87-77.09,27-39,55.64-78.87,72.14-122.69,15.58-41.29,36.62-80.84,47.07-123.87,6.18-25.58,24.06-46,28.87-71.32,8.11-42.94,17.51-85.42,21.81-129.42,6.92-70.25,17.56-140,15.49-217C2606.65,1148.33,2599.32,1103.23,2592.58,1058.32ZM1409,2390.54C739.14,2399.43,211,1866,209.9,1209.69,213.47,561.34,727.5,47.45,1362.61,33.84c324.06-7,606.64,103.39,840.93,327.41C2436.49,584,2559.45,859.92,2567,1181.73,2582.87,1858,2044.6,2382.11,1409,2390.54Z"/><path class="cls-2" d="M2567,1181.73c-7.51-321.81-130.47-597.75-363.42-820.48-234.29-224-516.87-334.38-840.93-327.41C727.5,47.45,213.47,561.34,209.9,1209.69,211,1866,739.14,2399.43,1409,2390.54,2044.6,2382.11,2582.87,1858,2567,1181.73ZM1397.62,2359.51c-650.14,4.4-1140.15-516.73-1157.15-1108C221.08,577.2,756,76.87,1359.9,64.32,2023.84,50.52,2541.48,589.25,2534,1213.5,2539.19,1832.7,2032.59,2355.2,1397.62,2359.51Z"/><path class="cls-3" d="M1359.9,64.32C756,76.87,221.08,577.2,240.47,1251.53c17,591.25,507,1112.38,1157.15,1108,635-4.31,1141.57-526.81,1136.35-1146C2541.48,589.25,2023.84,50.52,1359.9,64.32ZM1379.52,2342C769.43,2337.15,240.69,1838.43,257.42,1178,272.46,583.47,766.77,64.54,1425.16,82.51,2017.38,98.64,2522.28,595.8,2516,1210.79,2524.16,1833.2,2002.71,2346.91,1379.52,2342Z"/><path class="cls-2" d="M1425.16,82.51c-658.39-18-1152.7,501-1167.74,1095.51-16.73,660.41,512,1159.13,1122.1,1163.94,623.19,4.95,1144.64-508.76,1136.44-1131.17C2522.28,595.8,2017.38,98.64,1425.16,82.51ZM1159,798.92c1.38,3,6.83,4.17,10.63,6.14v-.23a1.57,1.57,0,0,1,.46-.09c-.32-12-17.37-22.46-1.6-35.52,11.27,3.9,22.91,9.63,21.35,25.48-1.14,12.15-12.42,8-19.75,10v.55a3.93,3.93,0,0,0-.46-.23c0,5.41,6.37,12.24-.59,15.9-8.11,4.27-17.19,1.38-25.07-2.88-7.24-3.94-10.63-9.67-5.68-17.65a5,5,0,0,1-.46.46v-.41l.59-.28c0,.09-.09.14-.13.23C1144.55,794.15,1149.77,778.75,1159,798.92Zm78.28-40.47c11.55,1,9.48,8.62,8.2,17.46,2.11,4.4,4.17,11.14-5.64,10.09-7.51-.83-11.13-8.53-10-15.17C1230.57,766.88,1227.09,757.58,1237.31,758.45Zm79.37-53.34c5.55,1.83,10.59-5.69,17.33-.51-5.82,10.59-8.16,25.07-26,21.27C1304.68,715.69,1319.48,714.18,1316.68,705.11Zm-155,135.61c-8.66,4.4-11.32,18.88-23.64,12.37-15.81-8.3-31.72-17.23-31.67-38.63-.19,0-.32-.05-.51-.05s0,0-.09,0a4.69,4.69,0,0,0,.6-.45v.55C1127.77,816.52,1141.66,834,1161.73,840.72Zm439.19,183.77a11.21,11.21,0,0,1,5.32.28Zm12.28-77.4c-2.7,2.06-9,4.86-9.44,1.1-1.28-11.55-3.44-24.25,9.86-34C1613.8,926.14,1627.32,936.41,1613.2,947.09ZM1316.41,704.24a2.63,2.63,0,0,1,.27.82,3,3,0,0,1-.77-.27c.09-.14.13-.33.22-.46S1316.32,704.28,1316.41,704.24Z"/><path class="cls-1" d="M1161.73,840.72c-8.66,4.4-11.32,18.88-23.64,12.37-15.81-8.3-31.72-17.23-31.67-38.63C1127.77,816.52,1141.66,834,1161.73,840.72Z"/><path class="cls-1" d="M1169.07,821c-8.11,4.27-17.19,1.38-25.07-2.88-7.24-3.94-10.63-9.67-5.68-17.65,6.23-6.28,11.45-21.68,20.71-1.51,1.38,3,6.83,4.17,10.63,6.14C1169.62,810.47,1176,817.3,1169.07,821Z"/><path class="cls-1" d="M1189.87,794.7c-1.14,12.15-12.42,8-19.75,10-.32-12-17.37-22.46-1.6-35.52C1179.79,773.12,1191.43,778.85,1189.87,794.7Z"/><path class="cls-1" d="M1239.87,786c-7.51-.83-11.13-8.53-10-15.17.69-4-2.79-13.25,7.43-12.38,11.55,1,9.48,8.62,8.2,17.46C1247.62,780.31,1249.68,787.05,1239.87,786Z"/><path class="cls-1" d="M1334,704.6c-5.82,10.59-8.16,25.07-26,21.27-3.34-10.18,11.46-11.69,8.66-20.76C1322.23,706.94,1327.27,699.42,1334,704.6Z"/><path class="cls-1" d="M1613.2,947.09c-2.7,2.06-9,4.86-9.44,1.1-1.28-11.55-3.44-24.25,9.86-34C1613.8,926.14,1627.32,936.41,1613.2,947.09Z"/><path class="cls-1" d="M2202.9,961.57c-16.27-58.89-42.53-113.93-72.32-167.23q-84.49-150.89-221.18-256.83c-65.12-50.73-136.8-89.32-213.61-119.93-82.77-33-168.06-53.26-256.74-55.78-50.27-1.42-100.41-2.93-151.37,6.14-36.76,6.6-75.71,6.78-111.64,18-24.84,7.74-68.47-23.15-89.83-33.27-13.66-6.51-27.86-12-41.2-19.07-14.16-7.47-22.14-1.74-29.74,10.08-9.68,15-5.92,31.44-5.92,48.08-35.24-10.36,18.38,5.41,31.85,7.42,17.37-6.78,27.78,8.66,47,12.19-7.7,3.71-10.73,5.37-13.89,6.69C973.19,460.7,880.11,515.74,800.69,592.69c-48.53,47-90.56,99.22-128.19,155C613.61,835,574.7,931,552.8,1033.57c-20.63,96.7-24.06,194.55-10.86,292.67,10.58,79,32.54,154.36,64.16,227.91,34.46,80.25,82.35,151.84,136.84,218.24,30.25,36.9,67.33,69.48,105.28,100,145.32,116.87,310.31,181.53,496.74,191.43,15.72.83,22.23-5.77,26.22-18.79,7.42-24.42,9.58-49.22,3.71-74.24-3.89-16.64-7.24-35.29.6-49.22,20.25-36.12,28.46-76.9,48.81-113.29,14.94-26.77,35.28-53.9,34.28-87.67-.51-15.59,4.53-29.47,8-44.23,6.87-29.33,22.87-60.86.36-89.46-17.41-22.18-31.48-46.38-47.89-69.06-14.39-19.94-33.78-34.24-53.12-47.07-9.8,6.37,7.57,14.48-6.6,20.71,1.2-20.16-11.87-19.47-25.39-19.11-29.88.78-56.23,9.49-78.68,30.2-11.51,10.64-22.55,23.74-45.74,23.7,33-16.46,49.63-46.43,79.65-59.63,9.07-4,23.69-3.48,20-20.48-3.94-18.11-.27-39.55-28.05-44.27-12.65-2.16-18,4.07-21.63,11.22-3.85,7.47,4.77,11.51,10.73,13.84,13.29,5.23,17.82,14.67,18.37,29.47-10-5-5.5-16.77-14.66-19.29-1.29,1.37-2.52,2.7-3.76,4.08-2.29,2.52,6.92,7.47-.23,7.19-6-.23-10.82-5.77-12.65-13.61-2.89-12.42-10.54-18.93-22-8.06-6.69,6.27-21-2-22.5,12.6-6.38-3.07-15.77-.73-19.67-9.9,15.45-4.17,29.79-8,46.25-12.42-4-3.12-6.19-5.09-8.62-6.55-5.18-3.17-12.37-6-4.67-13,8.34-7.47,6.69,3.3,9.48,6,10.54,10,15.68,2.48,20.72-6.18-14.3-9.31-28.23-17.46-46.29-13.11-6.37,1.56-15,1.51-19-4.86-19.57-31.39-40.38-30.52-70.16-10.72-12.93,8.57-29.84,10.81-36.21,31.48-4.45-15.9,3.57-23,11.46-28,10.68-6.74,23.51-10,34.28-16.59,27.45-16.82,37-17.55,59.71,4.13,10.41,9.89,20.72,14.48,34.28,13.33,5-.41,11.78,2.43,14.17-3.44,2.47-6.14-4.22-7.88-7.84-11.54a44.44,44.44,0,0,1-12.83-33.46c.64-13.34,13.52-4,20.12-7.61,9-4.86,18-7.93,11.82-21.86-4.31-9.76-.46-20,8.3-26.4s18.19-5.77,28,1.74c-12.33.51-24.93-1.37-28.82,13.11-.78,2.84-3.53,10.13,4.21,8.89,2.39-.36,3.21-10,7.79-1.46,1.74,3.2-.59,6-3.48,7.33-11.59,5.36-10,24.11-26.17,25.21-2.93.18-7.51,5.68-4.12,8.75,8.84,8,20.39,4.17,30.24,3.07,14.67-1.6-4-11.37,4.18-17.32,19.15,46,31.3-16.14,47.52-4.45-17,30.06-48.44,28.28-78.09,33.27,18.33,7.56,10.86,34,34.37,38.18,26.72,4.77,57.19,8.8,62.37,46,6.6-5.32,4-10.13,3.3-13.8-7.1-35.7-4.17-68.61,19.71-98.76,10.63-13.43,2.66-28.14-10.13-37-26.58-18.33-52.84-35.24-88.36-34.83-31.44.42-64.66-3.62-81.67-38-3.25-6.59-7.05-6.55-12-1.28-8.43,8.94-21.72,14.94-12.74,31.85,4.77,9,2.48,20.49-5.27,27.45-11.14,10-3.35,15.31,3.21,21.68,13.56,13,31.07,11.23,48,12-8,1-6,7-6.37,11.6,2.38-1.88,5.41,1.37,8.16,2.38a11.12,11.12,0,0,1,1.55-.46c-.09.28-.13.55-.23.78h.19c.18,3.44,4.21,6.56,1.14,10.31a5.61,5.61,0,0,1-3.16-1.6,16.09,16.09,0,0,1-2.66-4.67c-2.11-.65-4.44-2.89-6.5-3.12-.23.18-.46.37-.74.55,0-.23.14-.41.19-.6a.27.27,0,0,1-.19.05c0-.1-.08-.15-.11-.24a4.52,4.52,0,0,0-.67-1.41v0a2.86,2.86,0,0,0-.55-.55c-1.56-1.33-3.89-.87-6-.91-.73,1-1.47,2-2.2,3,.5,5.36,10.72,8.8,4,15.3-8.34,8-8.12-4.21-12.38-6.18-17.32-7.84-25.94-26.59-46.1-39.42,3.76,19.8,6.6,34.83,10.08,53.21-14.71-21.68-11.78.28-16.73,3.16-6.32-14.34,7.89-28.78,2-44.22-15.4,5.82-18.56,22.59-30.2,28.32-25.62,12.65-46.06,28.46-51.56,58.43-5.82,31.81-11.73,63.52,11.46,91.52l0,0c-3.89.32-6.78-.23-8.93-1.37a9.58,9.58,0,0,1-2.3-1.65c-5.13-4.86-4.58-14.44-7.83-20.86-2.62-5.13.64-14.16-9-14.57-11.54-.55-13.84-2.11-7.1-10.36,14.07-17.37,3.44-41.52,19.48-57.7-18.61,7.38-25.8,25-38.41,37.17-14.75,14.3-14,25.39,3.9,37.44-12.38,1.88-16-8.25-24.84-9.76,2.47,27.22-18.38,49.68-13.29,79-18.43-20.58-1.93-37.21,2.47-54.12,2.16-8.21,3.12-19.25-2.56-20-11.69-1.6-22.23-16.5-31.58-9.35-11.32,8.57-26.49,11.23-35.2,23.24h0c.09-.32.13-.69.23-1.06,1.28-5.18,5-10.54,9.94-15.26a36,36,0,0,1,2.8-2.57,59.72,59.72,0,0,1,6.14-4.58c1.1-.69,2.15-1.37,3.25-2,10.18-5.82,21.31-8.34,27.77-4,9.4,6.37,13.8,2.56,21.68-1.7,29.61-15.86,37.67-52.79,67.92-67.69,4-2,3.48-5.91.83-9.67s-4.82-2.24-7.38-.23c-23.24,18.56-51.38,15.17-78.28,17.51-2.43.23-3.07-.09-1.51-2.48,1.56-5.45,11.27-1.32,12.56-8.75-11.87-3.53-13.84-3.48-32.45-1.47-2.11.23-8.89,1.1-6.56-2.84,10.64-18.1-8.89-6.87-11.64-13.2,8.67-3.8,16-3.94,25.21.65,33,16.4,65.58,25.8,97.94-4,5.64-5.18,17.51-11.37,29.38-7.38,6.5,2.2,13.15-.64,18.74-5.73,17.87-16.22,36.11-32,54.22-48-1.7-2-3.35-4-5-6-5.08-.23-10.12-.5-15.53-.78,5.68-5.17,6-18,19.71-8.89,5.31,3.58,6.14-5.95,3.71-11-3.85-7.83-5.23-15.76-3-24.29,1.79-6.82,16.86-11.41,5.09-20.25-9.9-7.43-20.12-18.1-34.61-12.24-8.79,3.53-15.26,7.7-15.21-7.38,0-2.47-9.35-3.39-14.35-.59-5.4,3-7,7.83-5,13.61,3.94,11.46,9.26,21.08,22.36,25.16,12.38,3.85,9.54,12.6,5.18,22-6,12.78-10.13,3.16-16.82.82-15.17-5.27-14.85-17.32-15.35-30.34-7.84,4.86-21.59.42-20.94,10.73.41,7.51-1.52,18.37,7.6,24.93,8.71,6.23,16.46,13.79,27.55,23.23-31.26-6.82-41.07-26.26-47.07-51.46-3.62-15.31-8.94-25.8,13.84-17.51,3.9,1.42,8.25,2.29,10.18-1.33,3.29-6.19-6.19-11.27-2.25-19.16,1.51-3-5.91-2.42-8.94-1.6-28.41,8.2-55.08-3.16-81.62-9-17.74-3.85-35.33-4.49-47.25,5.63-14.62,12.42-32.4,19.25-46.2,32.09a0,0,0,0,1,0,0,.71.71,0,0,0-.28-.23c-4.67-5.77.55-9.16,4.26-12,14.17-11,28.69-21.45,45-33.55-15.31-3.21-34.83-1.51-40.79-9.67-15.35-21.13-30.52-10-45.87-5.5-18.15,5.32-31.17,20-49.23,32,.1-9.16,17.69-21.86-6.5-20,11.68-11.37,27.45-9,36.8-19-6.46-11.78-19.53-23.88-28.28-14.44-13.06,14-16.91-.27-27.73,1.56,9.58-12.1,23.56-1.28,28.51-13.43-13.66-18.37-28.19.74-45.51-.45,20.67-13.43,37.63-21.36,56.46-2.53,7.93,7.93,18.93,12.24,26.77,20.95,5.77,6.37,22.59.55,24.33-7.61,2.07-9.62,2.43-10,8.57-4.21,15.77,14.84,35.52,20.8,55.5,26.71-21.72-17.46-38.49-41.79-68.6-47.06,15.44.18,30.34,2.06,41.88,12.19,23.56,20.67,48.08,38.63,81,39.92,3,.13,3.53,2.38,5.18,4.21,8.66,9.58,19.48,11.83,32.54,3.9-22.14.46-17.92-22.14-29.29-30.75,9-6.74-2.75-18.06,6.83-26.86.41,8.2,0,14.8,1.15,21.13,2.66,14.11,6.23,28,24.7,13.15,2.66-2.15,3.07.37,4,1.79,0,0-.09.13-.13.18-.19.28-.37.55-.6.83-2.57,3.25-7.47,7.56-.6,9.25,14.85,3.62,30.76,9.21,44.83-3.25a39.2,39.2,0,0,0,15.26,13.84c1.19.6,2.43,1.15,3.66,1.7s2.48,1,3.76,1.37c11.46,3.76,24.29,4.26,36,7.29,24.06,6.28,31.62-3.53,25.71-26.81-1.24-4.86.32-10.64,1.37-15.86,4.49-22.23,8.67-44.64,14.16-66.64,4.4-17.59-2.1-23.69-19.2-23.46-12.74.23-25.16,0-37.67-6-31.44-14.94-62.6-8.75-92.71,5.59-5.78,2.75-12.15,10.17-7.43,14.12,13.8,11.5,2.75,15.9-5,18.1-9.67,2.75-2.43,11.78-13.79,19.75,8.93-12.92-15.22-20.39,6.64-31.3,7.24-3.62,5.27-24.24,17.83-31.53,2.48-1.42,5.82-1.19,8.71-2,7.29-1.93,14.39-4.17,19.29-11-5.5-5.32-15.67.37-19.38-9.53,3.57-1.24,7.33-2.52,10.86-3.76-10.18-20.85-23.65-29.38-43.22-8.71-2.15-10.49,10.91-12.69,7.7-20.53-22.41-13.61-16.54,27.54-37.08,18.42-.27-8.43,9-3.11,10.41-9.48,5.59-25.76,22.09-21.68,39.14-13,5.17,2.61,9.94,2.93,15.21,2.57l-.41.45.46-.32c13.56-9.44,27.17-11.22,40.79-.13.18.13.32.27.5.41l-.37-.6c9.35,2,7.38,18.66,17.37,16.27,19.07-4.53,18.79-5.77,31.35-3-3.44,2.06-5.64,4.17-8.25,4.81-6.09,1.51-16.54-11.64-17.92,5.68-1.19,14.48,8,18.11,19.52,18.38,11.78.32,23.56-.5,35.34-.82-3.48-8.39,5.68-9.4,9.12-13.16,2.66-2.84,3.85,1.84,5,4.17,8.16-9.07,16.13-17.73,29.28-20.67,8.62-1.92,16.69-7.24,24.34-12,19.57-12.29,19.66-23.24-.18-35.11-9.67-5.77-22.37-8.57-26.77-19.75-9.67-24.43-32.12-34.79-50.5-50-12-10-18,.23-25.71,4.35-10.5,5.69-4.08,13.84-2.16,21.45,1.61,6.42,12,8.39,6.51,21.63-9.53-33.22-27.91-29.47-46.15-13.06-10.31,9.35-17.23,2.8-21.68-2.89-5.13-6.5-18.24-15.4-2.38-25.48,1.19,23,5.09,24.66,26.86,18.47,13.24-3.76,16.95-17.46,28.18-22,18.84-7.7,14.58-15.17,2.52-26.81-16-15.45-24.06-5.23-32.77,6.83,0-.19,0-.37-.09-.55-1.51-12.33-7.28-14.62-17.64-6.05.27-10.41,8.2-10.64,15.72-11.32,5.82-.51,13.75,1.55,14.8-6.65.87-6.83-2.43-15.4-9.39-16.27-7.93-1-9.54-8.11-15.5-11.09-9.71-4.77-14.94-14.85-5.54-27.77,4.86,24.06,25.39,30.93,40.56,41.79,5.54,4,8.89,20.21,21.58,10.5-14.2-13-20.07-34.28-43-39-9.39-2,8.48-12.51-1-18.47,4.35-5.68,7.42-1.37,10.77,1.33S1076,768,1083.83,766c-4.13-22.92-26.49-33.92-35.8-53.3,20.49,14.71,42.76,27.68,46.29,56,.18,1.69,4.68,2.89,7.15,4.31h0l.23-.23c10.49-10.59,15.94,7.56,27.63,3.62-11.59-14.12,0-13.48,10.27-13.57-6.19-7.15-11.41-13.2-17-19.66,9.35-3.48,10.82,3.9,15.08,7.61,6,5.18,15.49,10.86,21.45,6.32,7.52-5.77-4.22-10.81-5.73-16.86-.87-3.53-2-7,.64-10.31A71.85,71.85,0,0,1,1168,755.11c2.2,7,9.34,10.18,16.72,9,4.17-.64,11.19-3.44,11.32-5.68.55-7.06-6.5-10.91-10.9-15.54-4.72-4.9-13.66-4.4-17.92-11.87,16.86-.64,26.72,11.82,39.13,19.8,3.35-18.06,11-34.37-.91-54,12,6.6,14.07,14.16,14.66,22.45.65,9.21,14.39,21,21,23.38,18.93,7.05,15.67-6.79,17.09-16.37,2.84-19.15-12.14-40.37,9.63-59.16-7.38,21.72-3.12,40.47,6.64,58.43,1.1,2-1.1,5.78-1.79,8.75a24,24,0,0,1,3.49,2.66c13-13.06,1-24.88-2.25-36.89-1.37-5-5.59-10.4,1.79-12.28,3.48-.92,4.12,4.86,5.32,9.26,7.51,27.31,8.06,27.13,29.19,9.76,1.6-1.33,3.94-1.7,6-2.48,9.39-19,21.54,9.31,32-5-4.08,18-15.86,25.62-27.5,35.24,7.56,3.44,14.21,6.42,20.85,9.44,0,0,0,.05.09.05-6.55,5.4-12.19-.37-18.37-1.79-9.58-2.25-21.68-5.59-28.24,1.33-11.13,11.78-26.3,20.67-31.57,37.67,9.3,1.74,18.74,2.93,26.4-3.35,11.18-9.21,16.36,1.29,29.65,5.82-14.44,1.93-23.51,3-13.16,14.21,4.91,5.32,8.71,11.37,3.17,19-21-30.44-38.55-35.8-61.28-17.83,8.85,1.51,16.91,2.47,24.66,4.58,1.37.37,1.92,5.36,2.06,8.25,0,1-.92,2-3.9.64-36.57-16.68-59.48,11-84.14,28.74-16.5,11.82-9.85,41.93,9,45.64,11.1,2.2,23.56-.41,35-2.65s16.54-8.76,4.08-21.77c28.32,18.6,26.72-6.56,34.64-19.89-3.2,22.87,11,17.73,22.32,17,2.39-6.42-9.67-15,2.16-19.16,2.38-.82,10.9-10.13,13.2,2.25,4.76,25.8,19.34,13.47,30.84,6.87,8.52-4.9,19-7.56,25.89-12.92,14.81-11.6,29.33,7.29,42.62-2.8,3.21-2.43,10.13,1.29,10.45-5.73.23-5.27-3.39-8.75-8.34-9-21-1-23.14-15.58-24.75-32.45,19.53,5.5,29.29,20.21,39.51,34.24,3,4,4.12,11.27,11.23,5.41,3.71-3.07,10.86-6.69,6.78-12.15-7.19-9.62-2.79-23.1-13.06-32.08,13.34,6.78,20-11.46,33.78-6.64-30.48,13.29-10.32,35.51-12.84,54.49,16.37-6,30.57-12.15,24.57-34.93,7,8.12,6.19,14.72-1.15,39.1-1.74,5.68-6,6.51-9.71,6.23-15.36-1.24-23.93,1.42-15.68,19.52,2.52,5.55-.36,11.51-8.25,12.52,2.71-19.9-4.21-30.48-25.57-29-8.94.64-18.06-1.05-27-.5-30.8,1.88-54.49,17-73.92,39.46-2.16-3.53,3.21-11.87-6-13.62-7.47-1.42-13.11.6-16.91,8-2,3.89-4.45,9.72-9.62,6.64,4.3,5.23-3.49,11.74-1.52,17.24-4.4-6.1-3.07-12.65-1-19.3l-.23-.23a.89.89,0,0,1,.27.19.37.37,0,0,1,.05-.23c4.77-1.79,8.11-5.69,5.59-10.13-2.2-3.94-6.46-.87-9.9.78-8.06,3.94-15.12,10.13-21.72,15.35-10.4,8.25-29,2.43-32.63,15.58-4.22,15.45,17,16.36,22.73,27.45a20.28,20.28,0,0,1,1.19,1.93c2.75,7.88,7.06,12.14,16.64,11,12.37-1.51,2.61-12.7,7.93-16.82-9.4,6-12.79-.5-13.89-8.34-1-7.29-.18-14.85-.18-22.78,16.08,5.64-1.06,25.8,14.48,30.84a.33.33,0,0,0,.18.1c1.24,1.78,2.57,5.18,3.71,5.18,11.37-.46-4.17-9.45,5.27-11.92,6.88,20.21,19,6.28,29.7,3.39,4.13-1.1,5.23-12.33,11.46-5.41,5.59,6.24-1.47,11.87-6.28,14.3-12.28,6.28-19.71,11.64-2.43,21,2.11,1.14,3.62,5.27-.91,6.83a47.88,47.88,0,0,1-8.25,2c-3.85-12.84-12.1-21.91-24.39-13-9,6.5-21.58,8.8-27.26,17.55-10.64,16.45-25.76,24.52-43,30.8-10.26,3.71-19.29,9.21-20.71,21.63,1.78,1,3.53,1.88,5.27,2.79,6.18-1.87,8.52-10.77,16.77-9.16,1.74,4.86-2.24,6.55-4.72,9-3.39,3.26-6.64,7.24-3.9,11.73,4.13,6.79,9-.18,13.57-.45,21.54-1.15,9-19.39,14.21-28.83.18-.09.32-.18.5-.28,1,4.45,2.29,8,4.36,10.13a4.06,4.06,0,0,0,.64.6c2.79,2.33,6.87,1.92,13-2.66,4.72-3.48,10.27-7,17.37-1.93-18.42,4.86-26,22.92-40,30.07-1.42,9.81,12.74,5.27,10.9,18-6.69-6.37-15.67-3.3-21.49-11.32s-11.55-2.2-13.06,3.3c-6.46,23.46-17.37,45.23-21.08,69.89-3.12,20.49.73,35.84,14.71,52.34,6.51-16.55,15.44-27.36,33.09-25-1.1-10.91-9.21-20.76,2.7-28.37,6.28,13.29,14.67,6.23,21.91,1.65,9.44-5.91,2.75-17.09,4.54-24.75,11.45-.5.22,19.76,18.19,13.71,13.34-4.49,19-8.34,17.92-22.87-.92-12.06,3.25-17.92,15.35-29.38-16.91,17.19,2,39.46-9.26,56.74,11.28,8.29,20.72-5,31.95-.19-11.37,8-25.71,17.15-35.75,10.18-19.89-13.89-32.63-1.51-48.17,5.68-6.27,2.89-10.72,5-9.39,12.74,1.33,7.93,5.27,11.64,13.88,11.14,11.46-.73,22.09,1.74,30,12-9.17,2.7-19.8-5.92-25.85,3.62-7.84,12.37-7,12.92-16.41,13.42,1.06-5.82,12.42-9.89,4.4-16.86-7-6.1-16.31-7.79-25.48-4.45s-6,10.09-5.18,17c1.65,14.94,9.76,22.45,23.79,26.58a102.89,102.89,0,0,0,53.71,1.33c1.51-.32,1.74-6.69,2.34-10.31,3.11-18.84,12.19-32.91,28.78-43.68,21.31-13.84,40.92-30.25,62.56-46.56-18.66-9.21-38.32-15.81-30.89-42.3,4.72-16.92,3.3-32-20.72-31.12-1.46,0-3.07-4.4-4.58-6.79-1.56-1.37-3.12-2.7-4.72-4,2.61-4.9,4.95-1.33,7.33,1,11.92,8.8,23-.64,34.56-1.46,1.74,25.3,7,28.14,28,15.58a172.93,172.93,0,0,0,40.2-33.23c3.85-4.3,7.19-7.56,13-8.2,1.46,10.82-14.9,10.91-9.49,20.62,1.51,2.8,10.22,5,1,6-21.76,2.34-35.1,20.12-54.4,26.72-7.42,2.57-16.13,7.24-15.35,19.29.78,12.56,8.48,19.8,17.65,24.57,8.75,4.58,15-3.26,21.08-9.12,14-13.57,29.79-22.37,50.46-22.82,8.89-.19,23.32,2.2,26.94-7.43,10.73-28.69,57.57-35.88,40.43-80.43,11.32,4.86,9.85,24.15,23.6,10.4,9.85-9.9,14.3-18.74,6.69-31.8-8.48-14.48-18-6.19-27-1.79-20.62,10-41.06,12.1-59.67-3.21-13.06-10.72,8.48-4.81,5.87-11.68-8.21-3.21-16.92-6.6-25.58-10,14.3,3,30.89-2.29,41.48,8.67,16.27,16.91,25.07,17.92,45.69,1.55-15-6-24.93-14.29-18.88-32.76,2-6.15,1.19-14.49-5.91-18.24-8.57-4.45-13.75,2.24-19.43,7.47-6.1,5.68-11.42,14.2-21.13,10.58,1.37,1.52.46,3.72-1.1,5.92-.69,1-2.34,1.23-3.53,1.78.69-3,1.33-6,1.92-9-.18-.09-.36-.23-.55-.32a6,6,0,0,1,.6.14v-.05a60.11,60.11,0,0,0,6.19-4.67s0,0,0,0c.83-.65,1.61-1.33,2.39-2.07,0,0,0,.05,0,0,1.19-1,2.38-2.06,3.58-3.16,10.22-8.89,21-17.92,40.78-15-15.81-11.14-12.55-24.89-8.52-32.59,12.92-24.79,15.31-47.25-3.12-69.8l3-2.34a3.44,3.44,0,0,1,.64,0,24.09,24.09,0,0,1,5,4.08c6.37,6.78,9.76,16.72,19,21.17,8.71-22,24.29-33.32,43.91-32.13-7.33,10.82-27.27,8.3-27.82,26,5.27,1.69,10.45-4.95,15.08,1.83-11.64,12.37-42.07,6-37.17,36,7.43,2,11-4.31,16-6.74,7.15-3.43,12.19,4.4,19.39,3.67,18.56-2,28.27-12.88,27-31.94,8.61-.23,1.37,15.63,11.77,12.23,7.75-2.56,8-10.35,7.38-17.37-1.14-13.24-2.56-26.49-3.89-39.87,7.74,4.45,12.46,10.08,12.46,19.89,0,22.5-.46,44.46-25.8,56.19,9.81,6.78,23.14,3.25,24.7,20-21.35-9.39-42.94-11.09-64.25-14.44-13.75-2.15-22.82,8-33.64,13.3-2.84,1.37-2.75,8.66,1,9.53,11,2.47,18.15-5.64,26-11.6.32-.23,1.79.92,3.48,1.84.42,18.47-41.11,16.68-20.76,43.81,16.27,1.33,25.12-10.59,31.76-23.83,5.78,4.4-1.69,12.14,6.42,16.36,16.54-19.3,38.77-25.44,64.25-30.8-11,15.17-42.8,6.83-34.74,36.34-23.14-9.76-43.08,8.25-65.4,11.37-7.33,1.05-7.33,12.92-6.83,19.34.55,6.83,7.75,10.17,15.59,10.54,8.93.41,12.1-5,14.2-11.82,1.15-3.62,1.2-7.57,1.88-12.61,9.4,8.25,6.69,15.49,2.48,22-4.91,7.56-6.37,14.21,3.57,17.73,6.69,2.39,4.36,17.24,15.4,11.51,7.38-3.81,13.15-10.31,13.93-19.66.69-8-2.79-17.33,5.46-23.33,13.65-9.85,26.62-20,30.84-37.67a7.7,7.7,0,0,1,10.86-5.27c3.81,1.83,2.94,6.64.83,10.08-12.51,20-16.41,39.41-12.33,64.53,3.34,20.58,10.54,18.88,22.5,14.66,9.58-3.34,20.58-6.83,25.3-17.69,3.07-7.06,10.91-12.19,15.54-11.45,33.18,5.13,52.15-22.19,77.68-33.64,12.19-5.46,19.84-7.43,27.17,2.47,4.45,6,8.35,9.08,14.44,5.09,5.55-3.62,11.69-8.39,10.13-16.41-1.06-5.36-1.93-10.49.73-15.31.83-1.46,3.53-2.29,5.46-2.56,1.1-.14,2.42,1.37,3.66,2.11-7.88,10.35,6.65,23.64-5.73,34.55-10.12,8.89-20.21,10.45-31,5.64-5.37-2.43-11.14-4.13-14.9-1.79-30.2,18.84-67.41,25.25-94.68,47.3-24.25,19.57-48.31,28.59-78.14,25.2-9.21-1-15.63,3.21-22.6,8.48-29.69,22.46-40.55,60.09-68.19,84.1-.37.27.87,2.43,1.47,4,13.75,1.19,27.17,1.88,39.09-7.56,10.86-8.58,1-19,2.11-30.25,22.55,21.63,28.82-10,43.67-12.65-7.88-.41-16.18-.83-26.9-1.33,4.45-2,5.09-2.52,5.78-2.57,17.27-1.65,35.06,3.26,51.23,1.38,20-2.29,17-30.57,31.49-42.35,5.41,7.75-7.84,13.84-.37,21.68,6-4.45,12.28-8.62,17.83-13.57,7.47-6.64,8.84,2.39,11.59,4.86,4.54,4-.82,3.58-3.11,4.08-31.62,6.65-44.69,45.78-81.08,46.65-3.2.1-21.44-2.52-24.28,11.69,9.34,13.61,20.53-2.38,30.61,1.33-2.75,2.61-5.55,5.32-8.48,8.07a24.35,24.35,0,0,0,13.15,1.37,35.71,35.71,0,0,0,3.72-.87.07.07,0,0,1,0,.09c-1.61,14.21-16.41,24.15-12.15,40.52-7.51-11.55-4.08-22.69.69-36.21-14.9,6-29.19-12.14-39.64.32-13.39,15.9-29,19.75-47.62,19.8-4.31,0-9.3.64-8.43,7.19-23.93-1.6-33.46,23-53,30.25-7.74,2.84,1.51,13.16,1.33,20.4-.23,7.7,7.56,5.5,12.37,5.31,9.35-.32,6.79-7.47,7.47-13.29,1.2-9.85,9.63-8.25,16.27-9.26-6.64,17.14-16.49,33.09-19.52,51.61-.78,5-4,8.06-9.49,7-1.92-.36-5.4,1.15-3.85-4.4,5.69-20-6.55-18.51-21.08-19.24-12.33-.65-18.51,6.69-26.81,11.59a22.87,22.87,0,0,1,2.48-10.31c3.34-6.46,9.76-10.36,17.05-12.88,6.27-2.11,15.53.28,10.08-11.09-4-8.34-10.18-9.12-18.61-4.81-16.73,8.57-34.69,14.85-50.82,24.24-14.26,8.34-28.42,17.92-32.45,36.35-1.79,8.11-2.66,14.2,6.46,19,22.55,11.82,42.21,26.76,51.42,52.2,1.83,5,8.07,12.46,12.7,3.76,5.08-9.4,17.41-15.17,15.49-29.43-17.24,2.34-30.43-3-38-20.48,9.72,1.51,11.37,13.47,21.18,13.06,1.28-19.07-8-31.39-24.34-40.65,15.63,8.06,29.15,5,41.62-7.47-3.76,6.6-9.45,9.21-12.38,16.13-5,11.69-3.85,21.72,5.32,28.55,9.81,7.38,18.1,2.48,23.74-8.11,2.93-5.54,8.43-7.47,15.17-8.25a50.86,50.86,0,0,0,33.41-17.64c9.48-10.86,18.79-19.76,36.48-18.06,16.73,1.65,60.72,19.94,69.06,34a32.12,32.12,0,0,0,28.1,15.81c11-.36,4.76-9.62,2.84-15.67,0-.37,3.16-1.61,4.72-2.57,14.94-9.44,5-24.15,7.06-36.2,1.74-10-7.34-13.71-16-15.72-7.7-1.74-15.31-3.76-25.39-6.28,40.92-2.75,50.87,4.49,52.88,36.39,8.85.59,13.11-12.74,24.8-7.61-3.58,3.9-6.33,7.47-9.67,10.4-28.28,24.75-25.44,52.16,7.15,69.62a109.65,109.65,0,0,0,30.7,11.36c-9.9,13.11-16.91,9.54-25.75,1.75-8.57-7.57-16.41-12.38-22.41,5.72-4.13,12.56-10.91,24.39-10.13,40.11-19.57-17.74-3.39-29.75,4.49-44.18-20.26,3.07-39.37,1.46-52.61,17.92-1.84,2.29-4,3.52-6.15-.74-5.59-11.32-10.4-5.18-14.84,1.15-3.67,5.18-3.21,13.33-11.19,16,3-22.87,33.37-45,54.72-40.1,10.32,2.33,21.59,3,24.61-9.12,2.85-11.37-8.06-12.61-16.54-15.54s-16.09-8.25-23.83-13c-6.74-4.17-12.28-6.37-20-.41-13.43,10.35-25.3,5.18-35.29-6.65V1227a.72.72,0,0,1-.32,0,1.41,1.41,0,0,1,.36-.37v-.09c.23-3,.42-6,.69-9a12.35,12.35,0,0,1,2.66,2.7,7.19,7.19,0,0,1,1,4.17,10.57,10.57,0,0,1,3.3.23c9.67,2.06,22.91,5.78,26.35-5,4.67-14.76-12.33-10.82-19.62-15.4-5.72-3.62-11.32-8.07-17.64-9.9-16.09-4.68-37.9,1.56-38.18,13.61-.45,19.48-15.44,36.43-4.21,58-14.67-7.6-1.51-25.75-17.51-29-3.34,4.35-6.64,8.71-10.31,13.47-1.51-7.74-.28-13.47,7.47-16-9.76-8.06-21.4-11.13-30.29-1.46-15.68,16.95-24.52,38-33.64,65.81,18.6-13.48,34.41-13.39,50.55-12.84-13.61,5.78-26.31,13.48-42.81,14.62,4.54,12.33,19.11,9.49,22,19.53-9.62,5.64-18.65-13.34-29.78,1.24-17,22.27,19.06,15,15.16,29.69-.64,2.48,2.16,3.21,11.78-1.23,26.31-12.1,51.47-28.65,82.95-19.94,1.93.55,5.37-4.31,8.12-6.69h0a21.31,21.31,0,0,1,1.29,4.81c1,8.2-6.47,10.17-13.16,8.43-12.1-3.25-22,2.8-32.77,3.49-24.38,1.55-38.95,22.64-61,27.36-9.63,2.06-22.55-.6-13.2,16.54,2,3.58.92,9.72-5.41,10.08-5.13.37-4.86-4.35-5.68-8-.92-3.89.87-8.89-4.45-11.55-1.6,3.53-3.39,6.83-4.72,10.32-8.11,21.44,8.25,33.13,18.56,47.48,9.86,13.7,18.47,2.15,27.32-.74,20.62-6.64,40.83-9.94,61.55,0,7.42,3.53,18.56,11.78,22.55-2,3.62-12.28-10.09-7.06-15.81-9.67-8.67-3.94-17.79-8.29-15.68-18.79,1.61-7.88,1.47-21.26,16.59-17.92-.69,1-1.51,2.06-2.34,3.12-.32.41-.64.82-.91,1.19l-1.88,2.29c-5.13,6.33-9.81,13-2.06,17.92,6.78,4.31,20.39,9.76,31.94,4.77,2,8.84,6.19,17.64,3,26.9-5.23,14.8,4.35,17.41,13.7,13.7,8.39-3.34,16.68-1,24.29-3.71,13.38-4.72,28.37,8.3,39.74-1.6,24.29-21.22,52.43-22,81.94-20,8.52.6,13.43-6.27,17.51-12.78,2.61-4.17,2.79-8.62-1.15-12.47-6.46-6.37-14-4.4-21.22-2.2-9.35,2.84-18.33,7.56-27.82,9.26-15.58,2.75-29.92.69-39.5-18,16,3.8,28.18,6.74,45.92,11-10-10.13-20.3-15.08-12-25.52,11.22-14.21,13.52-29,1.78-44.92,16.91,12.33,20.9,38.91,9.86,49.82a21.85,21.85,0,0,1-1.93,1.6v0c7.15,9.3,17.1,5.59,23.56,1.83,11-6.37,19,3.81,28.5,2.25-.27,11.36,7.8,14.43,15.36,10.68,8-3.9,14.75-12.88,13.61-22.32-2.43-20.12-.18-40.84-8.43-60.22-12.93-30.43-5.41-46.93,25-55.92-2.66-7.14-15.08-10.31-14.25-13,5.36-17.46-7.93-30.06-10.18-45.5-4.44-30.34-28.14-49.82-49.63-69.76,24.38-16.54,24.43-23.19,1.24-39-3.72-2.52-8.07-4.59-11-7.89-7.24-8.11-15-17.18-3.12-27.13,10.77-9,19.71-5.18,29.15,7.11-11-1.88-21.54-10.13-26.22,2.1-4.08,10.73,7.52,13.62,14.49,16.78,12.32,5.63,21.58,15.63,19.7,27.68-3.34,21.49,7.11,15.67,18.06,12,1.47,7-2.8,10.12-8.62,10.58-9.25.74-7.56,4.91-3.66,9.9,9.12,11.69,35.65,13.75,47.16,3.62,8.15-7.19,13.38-14.34-2.75-18-2.2-.51-4.4-.74-6.65-1.1.5-.69.87-1.7,1.56-2,17.92-8.06-1.56-14.76-1.24-22.41.37-8.11-11.14-16.82,2.71-26.31,0,5.69-.23,9.4,0,13.11,2,25.71,24.47,14.85,37.49,20.76a7.31,7.31,0,0,0,6.32-.82c3.21-2.71,4.59-7.89.6-9.63-20.94-9-18.56-36.29-37.44-46.93,26.9,3.62,23.69,44.64,56.46,42.12-10.13,8.66-18.29,18.75-14.62,28,3.85,9.85,17.14,10.77,27.91,12.1,17.6,2.15,35.11,4.4,52.93,4.17-9.85,3.34-19.06,5-30.15,3.8-28.51-3.16-56.88-7.79-84.33,10.86-21.13,14.39-23.14,11.46-16.86,40.19.27,1.2-.65,2.89-1.47,4-10.54,14,1.74,22.6,8.8,30.66,12.14,13.8,36.71,10.45,40.6-5,5,10.31,10.18,17,19.43,3.76,6.56-9.44,18.52-11.55,27.92-11,13.65.83,24.28-1.88,33.59-14.25,1.6,15.35-8.94,17-16.55,20.71-33,16.32-70.34,20.44-100.68,46.57-16,13.84-18.47,21-12.38,37.48,2.57,6.93,2.71,14.76,3.81,22.19,1.74,11.36,8,18.65,18.19,10.31,20.12-16.59,37.81-15.63,56.28,1.79a14.21,14.21,0,0,0,19,1c3.62-2.89,8-10.08,6.69-13.16-12.1-29.23,12.33-39.09,27.46-53.89.82-3.44,3.62-5.32,5.68-2.52,1.83,2.47-1.1,4.63-4.17,5.13h-.05c1.15,5.5,1.47,10.45,0,14.67a9.85,9.85,0,0,1-1,2.24,9,9,0,0,1-.74,1.15,10.46,10.46,0,0,1-1.65,2,21.79,21.79,0,0,1-8.24,4.86c-6.28,2.24-17.19,5.4-9.9,15.07,6,8,12.69-.41,16.54-4.94,14.35-16.87,32.4-20.72,53.3-18.57,7.29.74,15.86.37,22.14-2.84,17.73-8.93,33.27-14.16,49.81-13.93-24.38,10.31-22.54,8.62-5.63,26.67,13.38,14.3,27.08,13.66,43.12,9.12-1.33,18.47-29.19,1.06-24,26.58-5.41-7.24-8.44-10.67-10.77-14.52-9.72-16-21.31-26.13-40.2-13.06-6.09,4.17-11.59,3.11-16.72-.78-10.36-7.79-21.86-8.39-35.52-6.69,13.66,9.76,30.75,12.64,41,27.54-4.49.69-8.12,2.52-10.27,1.42-43.86-22.37-43.81-22.46-79.42,13-14.53,14.49-30.89,14.76-47.07,1.15-7.7-6.51-15.67-12.51-25.8-3.25-3.85,3.53-8.71,5.31-14.3,6.18-20.76,3.35-25.71,12.74-17.28,31.12,3.12,6.79,3.16,9-1.42,9.17-12.6.36-13,12.37-19.61,17.73-16.82,13.57-30.94,36.53-53.62,35.43-24.52-1.15-44.73,7.2-65.4,15.72-11.55,4.77-22.74,5.82-34.61,7.65-20.57,3.26-42.94-2.38-61.36,16.14-9.85,9.94-26.49,9-33.69-9.77-2.75-7.15-5.86-18.33-17-9.44-8.11,6.51-12.6,14.35-1.65,24.43,13.93,12.83,27.59,26.49,38.82,41.66,13.52,18.29,38.45,31.76,35.24,58.07-3.16,26.12-.87,52.84-8.61,78.41-6.42,21.36-3.58,42.58.32,64.16,6.14,33.82,1.65,67.69-17.14,96-14.3,21.63-19.66,42.71-19.66,67.78,0,28.78,5.08,58.34-3.44,86.29-7.7,25.35-3.12,49.82-4.54,75.81,26.08-8,50.69-8.71,73.47-15.13,101.65-28.59,199.17-67.27,285.52-130,51.83-37.67,100.68-78.23,144-126.21a935.69,935.69,0,0,0,106.79-144c65.67-108.62,100.36-227.27,113.84-352.94C2249.18,1177.89,2232.59,1069,2202.9,961.57ZM1120.49,1341.78c-2.43,3.11-5,6.23-8.25,10.35C1112.06,1344.44,1113.57,1340.27,1120.49,1341.78Zm-47.07,155.91c-9.25-6.19-19.84-4.67-15.85-17.51C1059,1487.7,1068.75,1486.83,1073.42,1497.69Zm-20.3-21.86c1.38,1.33,2.75,2.57,4.17,3.8-1.33.78-2.2,3-4.58.87S1052.48,1477.3,1053.12,1475.83Zm22.23-376.63c11.68,10.08,8.66,34.19,20.62,38.41-10.31,2.7-22.82,8.2-36.16,3.8C1079.15,1133.39,1087.58,1120.88,1075.35,1099.2Zm-38.82,4.17a19.69,19.69,0,0,1,3.71,1.38,12,12,0,0,1-3.34,2.2c-.37.13-1.38-1.38-1.88-2.25C1034.93,1104.56,1036.07,1103.33,1036.53,1103.37Zm-17.6-19.43c17.1,21.81,7.84,36.16-3,50.37C1010.5,1118.36,1026.49,1104.47,1018.93,1083.94Zm-41,41.43c-4.67,3.67,2.7,11.46-4,13.56-1.65.56-7.42-4.62-7.19-6.69C967.42,1125.92,972.55,1124.87,978,1125.37Zm82.86-283.09-2.84,1.88C1057.8,840.9,1059.12,841.23,1060.82,842.28Zm162.42,164.94c-.41-.55-.82-1.1-1.24-1.7,1.33-.64,2.66-1.28,4-2C1225.07,1004.79,1224.16,1006,1223.24,1007.22Zm73.65-43.58c2,12.19,3.89,24.38,5.86,36.57l-4.26.82c-3.11-12-6.18-24.06-9.3-36.06C1291.76,964.51,1294.32,964.09,1296.89,963.64Zm23.6,57.19c-28.14-4.86-34.74.92-52.93,51.19,1.74-16.86-7.66-16.5-15.49-20.76,20.8-5.41,31.85-19.7,33.5-36.07,1.69-16-16-17.23-29.38-20.11,10.5-6.7,18.88-18.57,27.68,1.87,3.21,7.48,12.29,16.92,25.53,14.67C1314.49,1010.7,1324,1009.92,1320.49,1020.83Zm130.94-65.21c-45.65-.23-64.76,34.87-88.45,63.75,1-13.11-3.08-23-15-31.21-14.84-10.36-17.14-25.17-5.86-45.06,0,9.26-.32,14.49,0,19.67,1.15,14.84,11.83,22.86,23.29,28.68,12.78,6.51,14.8-8.2,19.47-13.84,12.74-15.35,32.63-18.1,47.53-29.51C1435.25,946,1444.14,951.81,1451.43,955.62Zm-33.73,220.25.87.74-.65.36Zm82.26-46.33c.23-6.69,5.64-7.79,11.09-9.9C1510.36,1127.25,1505.78,1129.08,1500,1129.54Zm25.07-9c-2.71-8-16.87-11.14-9.85-23.33C1519.94,1104.29,1526.36,1110.7,1525,1120.51Zm88.91-64.16c.46-4.35,4.12-5.55,7.33-7.15.37,1.24,1.33,2.66,1,3.62C1620.72,1056.67,1618.06,1058.55,1613.94,1056.35Zm15.86,43c.45-.59.91-1.23,1.37-1.83.78,1,1.6,2,2.34,3C1632.27,1100.16,1631,1099.75,1629.8,1099.38Zm5.82,11.46c4.76-6.78,11.32-12.1,4.17-18.19-1.52-1.33-5.32,4.12-6,8,0,0,0,0-.09,0-5.32-16.73,5.27-17,16.91-16.23C1650.14,1094.89,1654.54,1108,1635.62,1110.84Zm15.39-27.27c5.37-27.49-16.91-15.35-28.23-19,12.93-15.44,27.23-5.54,36.8,2.16C1668.89,1074.22,1656.19,1078.62,1651,1083.57ZM1519.8,1381.92c-.59-.91-1.14-1.83-1.69-2.75C1521.82,1378.44,1520,1380.6,1519.8,1381.92Zm24.29-58.61s0-.14,0-.19c1.1.65,2.24,1.2,3.39,1.84-.46.46-1,.91-1.42,1.42C1545.38,1325.32,1544.74,1324.32,1544.09,1323.31Zm66.41,61c-1.28,10.81-14.11,8.7-22.68,11.09,1.55,9.85,16.49,8.52,16,21.26-5.46-3-11.37-4.72-15.08-8.52-12.1-12.47-22.09-12.83-32.17,2.43-1.47,2.2-7.2,8.71-11.78,1.37-2.89-11.87-14.94-22.77,1.6-35.65,9.49-7.38-8.94-11-8.16-20,10.5-4,13.43,17.09,25.07,8,2.8,6.87,3.49,12.92-5.82,15.17-8.43,2-11.78,7.52-8,15.12,5,10.22,11.55,1.7,16.87-.23,9.21-3.25,19.52-6.46,16.54-19.93,9.35-1.1,8.62,19,18.56,9.67,11.19-10.41-5.77-18.52-7-30C1608.9,1360.48,1611.88,1373,1610.5,1384.31Zm134.88-261.42c1-.09,2.06-.13,3.07-.22C1747.67,1125.87,1746.48,1123.44,1745.38,1122.89ZM894.73,1449.71c.78.91,1.61,1.78,2.39,2.75l-3.67-1C893.86,1450.9,894.32,1450.3,894.73,1449.71Zm-20.67-245c-3.8,5.13-7.65,10.26-11.45,15.4C863.66,1212.63,859.77,1200.71,874.06,1204.75Zm169.39-369.57c-2.38-.23-5.22,2.56-6.87-1.15-.14-.37.55-1.42,1.1-1.74C1041.3,830,1042.53,832.33,1043.45,835.18Zm274.7-195.1c-3.11,8-11.82,4.67-18.24,5.27-42.11,4-83.13-6.6-124-12.92-57.7-9-111,.82-162.42,24.42-37.12,17-67.64,44-99.9,69.16-72.51,56.37-113.71,134-154,212C725,1005.16,707.56,1078.12,717.42,1151c-6.28,76.72,6.14,148.13,19.61,218.57,8.12,42.43,20.4,84.78,32.91,126.58,20.9,69.89,59.62,130.52,96.65,192.34,20.86,34.84,41,70.35,65.27,102.57,27.26,36.25,44.5,78.65,73.73,113.34,4.82,5.68,7.7,12.69,1.79,18.33-6.09,5.77-15.4,5-21.31.32-38.08-29.7-86.62-43-121.68-77.08-35.33-34.42-71.9-67.79-104.49-104.63-44.54-50.46-80.57-108.25-110.81-167.51-29.47-57.61-48.81-120.49-61.6-185.66A941.67,941.67,0,0,1,569.57,1226c-2-87,7-172,33.14-255.6,12.19-38.86,22.91-78.69,43.17-113.38,26.53-45.37,47.39-94.22,81.9-135.11,26.3-31.21,58.84-56,85.19-86.84,33.87-39.64,75.21-70.81,116-102.43,12.65-9.81,30.52-12.56,44.22-21.36,45.56-29.19,92.58-54.9,144.6-71.26,9.94-3.12,14.3-3.07,20.8,4.76,11.6,14,29.15,20.81,44,30.16,47,29.7,75.85,74.47,105.82,118.47,6.92,10.17,15.86,18.38,22.69,28.32C1314.76,627.2,1320.9,633.16,1318.15,640.08Zm32,140.15c5.78-14.07-11.13-22.6-8.29-36C1356.47,753.14,1363.39,764.05,1350.14,780.23Zm133-25.94c10.13,2.79,14.16,15.72,26.12,15.62C1491.8,779.13,1490.75,761.3,1483.14,754.29Zm718.66,564.3c-5.32,39.82-11.78,79.92-24,117.37-15.54,47.61-29.84,96.47-55.64,140.42-12.88,21.95-20,47.3-39.73,65.12-6.74,6.1-8.12,14.39-6.65,23.15l.14-.14.69.83-.83-.69c-35.11,42.34-67,88.17-106.46,126.08-37.72,36.15-79.56,68.74-123.38,98.53-27.4,18.61-55.31,36.3-82.86,54.63-5,3.34-9.12,8.16-15.67,8.48-7,.32-16,8.8-20.39-.6-4-8.43,8.2-6,11.64-10.13,36.29-42.71,77.17-82.54,106.92-129.42,17.41-27.41,35.33-55.45,52.06-83.78,39-65.9,75.76-133.13,115.17-198.81,21.91-36.48,40.47-76.85,50.92-119.43,1-4.35,2.75-9,5.54-12.42,23.51-29.38,25-65.08,29.65-100,8.57-64.84,12.74-129.92,9.31-195.32-2.11-39.14-10.36-77.22-23.05-114.21-4.4-12.79-6-26-11.6-38.82-21.72-49.17-49.17-94.82-79.33-139-15.22-22.28-40.79-33.32-58.85-52.16-25-26-57.42-40.28-85.65-60.86-30.48-22.27-64-35.75-99.22-46.79-44.23-13.84-89.37-23-135.75-24.47-29-.92-58.07-2.11-86.89.09-39.92,3.07-79.88,7.84-119.39,14.48-34.37,5.77-35.11,4.35-54.22-24.52-39.64-59.81-80.11-119.25-132.08-169.61-18.56-18-15-32.5,10.77-37.86,75.35-15.72,151.33-24.06,228.33-13.34,31.43,4.36,63.93,5.05,94.13,13.75,59.4,17.1,119.8,29.79,175.21,62,28.82,16.73,61,30.57,91.29,46.61a433,433,0,0,1,81.21,56.1c26.17,22.68,50.46,47.8,77.59,69.25,14.62,11.5,19.48,28.27,30.84,41.43,56.65,65.17,99.55,139.5,135.66,217.51,16.08,34.78,21.58,73.83,34.42,109.8,13.84,38.73,16.45,78.51,21.08,118.06C2210.09,1192.6,2210.23,1255.57,2201.8,1318.59ZM1600.92,1024.5l5.32.27A11.2,11.2,0,0,0,1600.92,1024.5Zm-45,202.15c0,.09,0,.23,0,.32,2.79-.09,4.12-1,4.4-2.52a6.46,6.46,0,0,0-4.13,1.93A1.38,1.38,0,0,0,1556,1226.65ZM1467.79,901a5.37,5.37,0,0,0-2.66-1.46s-.05.13-.05.18A24.92,24.92,0,0,0,1467.79,901ZM1316.41,704.24c-.09,0-.18,0-.27.09s-.14.32-.23.46Zm-36.29,179.19a8,8,0,0,0-2.53-2.1l0,0A12.9,12.9,0,0,0,1280.12,883.43Zm-81.31,435.07c1.74.5,3.35-.14,4.49-4a3.36,3.36,0,0,1-1.32-.32C1199,1315.15,1198.35,1316.71,1198.81,1318.5Zm-5-6.74a7.2,7.2,0,0,0-2.06,3.57,2.09,2.09,0,0,1,.55.05A5.38,5.38,0,0,0,1193.82,1311.76ZM1152,997s0-.09,0-.14l-.09.09Zm-13.3,8.8a4.52,4.52,0,0,0-.82.05c.09.22.18.41.27.64Zm-32.26-191.89a5,5,0,0,1-.6.46s0,0,.1,0Z"/><path class="cls-3" d="M2075.94,1664.51c-35.21,42.4-67.08,88.28-106.6,126.2-37.71,36.19-79.55,68.77-123.37,98.54-27.38,18.6-55.31,36.31-82.85,54.63-5,3.34-9.11,8.15-15.7,8.47-7,.34-16,8.8-20.36-.56-3.94-8.47,8.17-6.06,11.64-10.15,36.28-42.72,77.15-82.55,106.92-129.42,17.42-27.42,35.34-55.46,52.07-83.76,39-65.92,75.73-133.14,115.16-198.84,21.89-36.48,40.45-76.84,50.88-119.44,1.07-4.35,2.8-9,5.55-12.41,23.55-29.37,25-65.07,29.68-100,8.57-64.86,12.73-129.9,9.28-195.3-2.07-39.17-10.33-77.26-23-114.24-4.39-12.76-5.93-26-11.6-38.8-21.71-49.16-49.14-94.81-79.31-139-15.2-22.24-40.79-33.29-58.86-52.13-25-26-57.4-40.27-85.62-60.88-30.48-22.27-64.06-35.75-99.26-46.78-44.2-13.85-89.35-23.07-135.75-24.49-28.94-.88-58.07-2.11-86.86.11-39.94,3.07-79.88,7.83-119.38,14.49-34.37,5.79-35.12,4.34-54.26-24.53-39.63-59.8-80.09-119.23-132-169.63-18.57-18-15-32.49,10.74-37.85,75.36-15.69,151.36-24,228.36-13.35,31.44,4.37,63.92,5.07,94.11,13.77,59.39,17.12,119.81,29.78,175.22,61.95,28.84,16.75,61,30.56,91.27,46.61a434,434,0,0,1,81.21,56.09c26.21,22.72,50.46,47.82,77.63,69.26,14.58,11.51,19.44,28.3,30.84,41.42C2068.25,749.68,2111.16,824,2147.24,902c16.09,34.79,21.6,73.84,34.45,109.83,13.83,38.7,16.43,78.48,21.06,118,7.35,62.75,7.5,125.7-.93,188.74-5.33,39.81-11.82,79.91-24,117.35-15.51,47.61-29.82,96.49-55.61,140.43-12.86,21.93-20,47.27-39.72,65.1-6.74,6.1-8.11,14.38-6.67,23.16Z"/><path class="cls-3" d="M717.43,1151c-6.27,76.7,6.12,148.11,19.61,218.57,8.12,42.42,20.41,84.76,32.92,126.59,20.89,69.86,59.6,130.49,96.65,192.34,20.86,34.84,41,70.34,65.25,102.58,27.28,36.24,44.51,78.63,73.74,113.32,4.8,5.7,7.69,12.71,1.79,18.32-6.1,5.79-15.41,5-21.34.35-38.07-29.72-86.6-43-121.67-77.13-35.32-34.37-71.9-67.74-104.47-104.6-44.56-50.45-80.57-108.26-110.85-167.49-29.46-57.63-48.78-120.51-61.58-185.67A947,947,0,0,1,569.55,1226c-1.95-87,7-172,33.16-255.59,12.16-38.85,22.92-78.66,43.18-113.35,26.5-45.39,47.39-94.25,81.88-135.15,26.31-31.2,58.83-56,85.2-86.82,33.87-39.64,75.22-70.82,116-102.45,12.64-9.79,30.52-12.54,44.21-21.32,45.57-29.23,92.58-54.94,144.6-71.27,9.93-3.12,14.28-3.1,20.8,4.75,11.6,14,29.14,20.79,44,30.16,47,29.68,75.83,74.45,105.81,118.48,6.92,10.18,15.86,18.35,22.67,28.33,3.75,5.48,9.84,11.44,7.12,18.37-3.13,8-11.81,4.66-18.26,5.26-42.12,4-83.11-6.6-123.94-12.94-57.7-8.95-111,.86-162.44,24.43-37.12,17-67.63,44.06-99.9,69.15-72.53,56.4-113.73,134-154,212C725,1005.17,707.55,1078.1,717.43,1151Z"/><path d="M504.39,1825.41l-15.56,1.65q-28.92-17.3-47.34-48.82-36.86-63-5-112.78a114.17,114.17,0,0,1,39.24-37.37q39.62-23.16,78.56-10.6,40,12.75,67.28,59.37A187.07,187.07,0,0,1,644.65,1741l-.9,2.63q-19.08,5.64-42,17.73l-1.84-.38-4.17-7.12.63-2q14.39-8.89,19.51-13.19,8.21-25.05-8.46-53.56-17.16-29.34-45.5-35.14t-60.22,12.85q-43.12,25.22-48.82,68.4-3.07,23,12.46,49.6,14.11,24.15,40,40Z"/><path d="M567.16,1937l-1.89-.08q-8.26-11.31-26.93-33.82t-28.13-32.65l.27-1.86,7.22-6,2,.19q9.75,10.44,11.52,11.71a6.12,6.12,0,0,0,7,.36q8.91-5,34.56-26.27l57-47.21q25.63-21.24,32.23-29.07a6.1,6.1,0,0,0,1-7q-.91-2-9.37-13.49l.19-2,7.33-6.07,1.86.27q7.92,10.88,26.84,33.72t28.05,32.54l-.09,1.88-7.32,6.07-2-.19q-9.75-10.45-11.52-11.71a6.09,6.09,0,0,0-7-.36q-8.91,5-34.55,26.27l-57,47.21q-25.64,21.24-32.24,29.07a6.1,6.1,0,0,0-.95,7q.91,2,9.36,13.5l-.18,2Z"/><path d="M828.71,2027.16q-30.59,36.24-74.33,40.14a103.93,103.93,0,0,1-43.26-5.57q-23.5-7.93-46.67-28.22L627.25,2001q-15.22-13.21-26-20.84l-.17-2,2.53-3,1.61-.83q12.16,1.65,13.89.91,2.58-1.11,13.17-13.23l20.54-23.68,45.74-54.2q21.46-25.44,26.58-34.32a6.1,6.1,0,0,0-.29-7q-1.25-1.78-11.61-11.63l-.17-2,6.14-7.27,1.88-.06q10.78,10.2,21.06,18.87,24.9,21,45.44,37.25,10.21,8.07,20.27,16.56,27.78,23.46,37.33,42.3a71.2,71.2,0,0,1,7,43.29Q848.74,2003.43,828.71,2027.16Zm-37.15-22.57q25-29.61,24.11-57.64a53,53,0,0,0-8.78-27.55q-8-12.24-27.12-28.38a164.29,164.29,0,0,0-20.21-14.67q-11.17,11.07-50,57l-39.21,46.9q-13.07,15.7-16.65,21.47a161.28,161.28,0,0,0,18,17.74q21.27,18,38.81,22.12,18.93,4.47,40.37-5.1Q773,2026.61,791.56,2004.59Z"/><path d="M957.77,2167.53a313,313,0,0,0-24.46,39.27l-1.89.58-89.32-48.65q-22.47-12-32.12-16.19l-.57-1.89,1.84-3.46,1.41-1.15q12.23-.93,13.76-2,2.36-1.76,10.12-15.69l15.14-27.45,33.4-62.56q15.69-29.38,18.82-39.12a6.1,6.1,0,0,0-1.75-6.8q-1.6-1.48-13.79-9l-.57-1.89,4.48-8.4,1.83-.45q12.07,7.4,38.11,21.3,23.19,12.39,88.63,46.38l.83,1.71-8.92,12.84q-4.23,6.15-7,10.51l-7,11-2,.7-7.16-3.82-.57-1.89q8.84-16.86,8.23-20.19c-.28-1.63-4.23-4.9-11.81-9.8s-14.39-9-20.39-12.15q-10.74-5.74-22.19-10.74-8.26,12.24-20.53,35.19l-13.63,25.55q9.4,5.82,15.46,9.05l16.24,8.51q11.42,5.94,13.82,5,3.15-1.17,11.48-15.28l1.89-.57,7.66,4.08.57,1.9q-7.87,13.56-14,25-6.68,12.47-14.08,27.54l-1.82.45-8.27-4.41-.58-1.9q7.57-14.19,7-17.9T934,2100.92q-7.2-4.64-15.71-9.18-9-4.81-17.12-8.35L881.1,2121q-8.64,16.17-16.13,31.67l16.79,9q36,19.24,45.69,20.75a4.47,4.47,0,0,0,2.7-.3q2.16-1.07,6.31-6.15l11.13-13.72,2-.7,7.52,4Z"/><path d="M1159.44,2282.49l-1.74.93q-.95-.28-5-1.68-18.14-6.25-22.68-7.64-6.83-2.07-21.93-5.79.45-3.37-1.83-12.25l-16.33-65.51-8-27.14a39.15,39.15,0,0,0-5.41-10.57l2.85-4.1q3,1.07,4.51,1.51,13.13,4,21.89,2.13,8-1.68,16.56-9.29t12.56-20.6q6.87-22.62-7.58-35.65-6.88-6.2-22.28-10.87a77.62,77.62,0,0,0-13.18-2.84q-5.33,12.7-14.94,44.29l-21.29,70q-9.69,31.86-10.88,42a6.06,6.06,0,0,0,3,6.33q1.85,1.14,15.25,6.11l.93,1.74-2.72,9-1.62,1q-13.14-4.87-41-13.35-28.77-8.74-41.47-11.74l-1-1.6,2.77-9.11,1.75-.93q13.89,3.35,16.06,3.43a6.1,6.1,0,0,0,6.06-3.57q4.66-9.1,14.36-41l21.55-70.81q9.69-31.84,10.87-42a6.07,6.07,0,0,0-3-6.33q-1.85-1.15-15.25-6.11l-.93-1.74,2.77-9.1,1.71-.8q12.86,4.79,41,13.35,16.34,5,26.62,7.66,20.46,5.34,30.5,8.39,23.14,7,32.73,14.5,12.88,10,13.76,24.95a47,47,0,0,1-2.31,16.26q-11.07,36.41-56.68,39.2,3.27,13.28,7.27,27.07l11,38q9.66,33.65,14.49,39.36,2.47,2.94,8,4.61l.93,1.75Z"/><path d="M1503,2266.79l2.9,6.39-.39,2.11q-2.74,2.55-12.58,13.63t-12.69,15.18a75.07,75.07,0,0,1-16.33,2.64,67.24,67.24,0,0,1-29.13-5.82,128.24,128.24,0,0,1-24.08-14q-25,21.26-59.11,21.8-31.48.51-48.83-16.49t-17.71-40.07q-.33-20,11.76-34.06t32.35-24.17q-9.87-21.1-10.14-38.59-.19-12.32,4.47-17.84l13.17-16q8.35-10.2,11.62-12.5t10.55-4.79a48.51,48.51,0,0,1,14.86-2.62q15.12-.24,23.92,8.22t9,22.73q.24,14.4-9.76,27.72T1362,2189.74a296.28,296.28,0,0,0,28.15,35.86q17.1,19,32.66,30.18,8.71-14.7,8.51-27.7a42.88,42.88,0,0,0-1.79-11.59,40.47,40.47,0,0,0-4-9.45l-25.18.41-1.29-1.66a139.3,139.3,0,0,0,8.8-18.05q21.27.36,30.23.21,41.4-.67,59.83-3.21l1.41,1.09q-4.54,13-4.69,20.93l-1.38,1.42q-18.76-1.38-40.87-1.29a54.84,54.84,0,0,1,1.59,11.86,56,56,0,0,1-3.59,20.07q-3.75,10.28-14.86,24.45a70,70,0,0,0,21.22,9.94,78.19,78.19,0,0,0,23.22,3.47,21,21,0,0,0,5.65-.79q2.42-.73,15.44-9.91ZM1335,2205.71a36.58,36.58,0,0,0-11.14,11.45,29.92,29.92,0,0,0-4.63,17.07,51.07,51.07,0,0,0,7.93,26.88,63.47,63.47,0,0,0,18.93,19.56,43,43,0,0,0,24.81,7.15q14.4-.22,27.69-9.4a305.67,305.67,0,0,1-34.82-33.23A301.36,301.36,0,0,1,1335,2205.71Zm20.82-27.76q12.6-9,19.23-18.36a33.23,33.23,0,0,0,6.46-20.12q-.15-8.67-5.13-14.25a16,16,0,0,0-12.82-5.46,16.9,16.9,0,0,0-13.55,6.3q-5,6.17-4.85,15.27Q1345.38,2157.13,1355.78,2178Z"/><path d="M1885.76,2190.56l-.84,1.8q-13.31,3.91-40.8,13.88-28.14,10.2-40.23,15.47l-1.61-.76L1799,2212l.84-1.79q13.13-5.64,14.91-6.89a6.09,6.09,0,0,0,2.71-6.48q-1.73-10.1-13.06-41.4l-32.2-88.92-7.57,70.74q-.69,5.91-3.76,43l-5,61.34-8.81,3.19q-12.75-13.83-33.46-34.45l-32.57-32.4-60.43-59.2L1653.7,2210q11.34,31.32,16.48,40.16a6.08,6.08,0,0,0,6.23,3.25q2.17-.19,15.87-4.26l1.79.84,3.24,8.94-.88,1.66q-15.42,4.7-28.44,9.41-15.13,5.48-30.1,11.8l-1.75-.71-3.23-9,.84-1.79q13.13-5.66,14.91-6.89a6.09,6.09,0,0,0,2.71-6.48q-1.72-10.09-13.06-41.4L1613.1,2146q-11.32-31.29-16.47-40.15a6.1,6.1,0,0,0-6.24-3.25q-2.16.2-15.87,4.26l-1.79-.84-3.24-9,.88-1.65q14-4.17,34.89-11.75,16-5.8,27.73-10.93,8,8.42,22.56,23.67l15,15.1,73.52,72.32,5.36-48.06,7.08-78.61q1.2-14,1.45-29.69,15.15-4.59,20.28-6.45,25.79-9.35,39.18-15.08l1.74.7,3.29,9.08-.89,1.66q-13.12,5.64-14.92,6.89a6.09,6.09,0,0,0-2.7,6.49q1.71,10.08,13.06,41.39l25.2,69.59q11.34,31.3,16.48,40.15a6.1,6.1,0,0,0,6.24,3.25q2.16-.2,15.86-4.26l1.8.84Z"/><path d="M2029.77,2039.12a311.75,311.75,0,0,0,22.89,40.21l-.39,1.94-85.31,55.4q-21.23,14-29.53,20.53l-1.93-.4-2.16-3.27-.35-1.78q5-11.2,4.79-13.06-.42-2.91-9-16.37L1911.87,2096l-39.12-59.17q-18.36-27.77-25.44-35.18a6.12,6.12,0,0,0-6.82-1.69q-2.06.69-14.43,7.86l-1.94-.39-5.24-7.94.47-1.82q12.24-7.09,36.88-23.37,21.93-14.51,83-55.87l1.9.08,7.05,14q3.39,6.64,5.89,11.2l6.36,11.39-.32,2-6.76,4.48-1.94-.4q-10.61-15.8-13.83-16.85-2.37-.78-14.25,5.73t-20.39,12.14q-10.15,6.72-20,14.4,6.83,13.1,21.17,34.81l16,24.16q9.62-5.52,15.33-9.3l15.21-10.22q10.67-7.21,11-9.78.48-3.33-8-17.37l.39-1.94,7.24-4.79,1.94.4q8.17,13.38,15.35,24.23,7.8,11.79,17.52,25.48l-.47,1.83-7.82,5.17-1.94-.4q-8.88-13.42-12.4-14.69t-13.52,4.16q-7.5,4.11-15.56,9.44-8.52,5.64-15.48,11.08l23.53,35.59q10.11,15.28,20.19,29.26l15.86-10.49q34.08-22.53,40-30.31a4.67,4.67,0,0,0,1-2.52c0-1.6-.75-4.43-2.41-8.47l-6.77-16.32.31-2.06,7.12-4.7Z"/><path d="M2238.27,1904.38l.1,1.88q-22.53,21.39-27.07,26-18.2,18.22-33.2,34.46l-1.88-.1-6.24-6.22-.1-2.08,8.1-9.11c3.43-3.83,3.94-6.93,1.57-9.3q-2.09-2.07-12.08-6.51l-28.9-12.83q-13.83,13.45-28.06,27.72-7.71,7.74-22.72,23.18l7.73,16.41q8.82,18.69,12.29,22.15,3.77,3.75,9.1-.21,3-2.18,10.87-9.31h2l6.34,6.32v2q-18.87,17.73-24.11,23-4,4-19.46,20.69l-1.89.11-6.43-6.43.1-2.07q9.57-10.8,8.43-16.59t-23.86-58.68L2030,1878.4q-4.66-10.38-14-31.35l14-14.06,175.86,70.73q10.1,3.94,13.46,2.36,4.45-2.08,10.58-8.22l2,.19ZM2122.34,1914l-73-30.59,31.63,72.08q8.4-7.82,21.35-20.8Q2114.83,1922.13,2122.34,1914Z"/><path d="M2286.55,1627.5q40.45,24.75,50.92,67.41a103.94,103.94,0,0,1,1,43.61q-4.31,24.43-20.84,50.39l-26.5,41.69q-10.76,17-16.66,28.83l-1.93.47-3.34-2.05-1.06-1.47q-.21-12.26-1.2-13.86-1.49-2.38-15.07-11l-26.51-16.72-60.49-37q-28.41-17.37-37.95-21.08a6.1,6.1,0,0,0-6.9,1.35q-1.56,1.5-9.73,13.23l-1.93.47-8.11-5-.35-1.85q8.46-12.21,15.47-23.66,17-27.81,30-50.56,6.43-11.31,13.3-22.53,19-31,36.18-43.31a71.15,71.15,0,0,1,41.72-13.5Q2260.06,1611.28,2286.55,1627.5Zm-16.69,40.14q-33-20.23-60.62-15.13a53.07,53.07,0,0,0-25.91,12.85q-10.89,9.75-23.95,31.1a164.31,164.31,0,0,0-11.45,22.19q12.65,9.38,63.94,40.78l52.3,31.68q17.49,10.53,23.73,13.21a160,160,0,0,0,14.82-20.46q14.52-23.74,16-41.7,1.55-19.41-11.14-39.14Q2294.44,1682.68,2269.86,1667.64Z"/><path d="M464.35,919q33.07,7.85,43.67,44.18,5.22,17.92-.69,42.84-1.87,7.9-3.22,13L496,1050.38q-4,16.88-5.39,26.28l-1.63,1-3.69-.88-1.42-1q-3.89-11.22-5.28-12.39-2.08-1.74-17.18-5.6L432,1050.38l-66.81-15.84q-31.36-7.43-41.26-8a5.92,5.92,0,0,0-5.94,3.33q-1,1.85-5,15.1l-1.63,1-9-2.13-.87-1.59q3.57-11.55,10.34-40.14,4.32-18.18,7.12-33,2.24-11.71,4.13-19.76,8.72-36.76,28.17-44.26A35.93,35.93,0,0,1,373,903.9q18.72,4.44,27.76,22a52.22,52.22,0,0,1,5.4,16.6,151.37,151.37,0,0,1,1.17,20.31Q422.57,909.11,464.35,919ZM370,945.23q-29.13-6.9-36.31,23.41a120,120,0,0,0-3,17.25q13.71,3.81,25.44,6.58l36.37,8.62q1-3,3.14-12.06,5.66-23.85-7.85-35A43.31,43.31,0,0,0,370,945.23Zm88.84,15.08q-39.54-9.37-49.38,32.14-1.25,5.26-2.44,12.08l61,14.46q9.89,2.34,19.5,4.07a98.21,98.21,0,0,0,4.51-14.94q4.38-18.45-4.85-31.21Q478.38,964.93,458.88,960.31Z"/><path d="M548.19,763.45a301.56,301.56,0,0,0,39.62,20.89l.69,1.78-40.76,89.64q-10,22.51-13.4,32.12l-1.79.69L529.09,907l-1.21-1.28c-1.16-7.82-2.13-12.21-2.9-13.14q-1.74-2.11-15.85-8.69l-27.56-12.7-62.73-27.9q-29.46-13.1-39.08-15.45a5.91,5.91,0,0,0-6.45,2.17Q372,831.68,365.64,844l-1.79.69-8.41-3.74-.57-1.74q6.4-12.4,17.37-37,11.34-25.5,16.48-39.06l1.66-.75,8.54,3.8.56,1.74q-4.86,12.95-5.2,15a5.92,5.92,0,0,0,2.71,6.25q8.19,5.57,37.64,18.67l74,32.91q16.22,7.21,31.71,13.36l7.48-16.83q16.08-36.12,16.86-45.56a4.49,4.49,0,0,0-.48-2.59q-1.19-2-6.38-5.65l-14-9.8-.81-1.84,3.35-7.55Z"/><path d="M708.43,608.43l.4,1.78q-18.15,24-21.77,29-14.49,20.28-26.27,38.15l-1.81.21-6.94-5-.43-2,6.3-10q4-6.3,0-9.13-2.3-1.65-12.55-4.32l-29.63-7.69q-11.09,15-22.43,30.91-6.15,8.6-18.05,25.72l10,14.45q11.38,16.46,15.24,19.21,4.18,3,8.66-1.63,2.49-2.55,8.91-10.61l1.89-.31,7,5,.31,1.89q-15.22,19.9-19.4,25.75-3.23,4.51-15.32,22.83l-1.78.4-7.17-5.12-.23-2q7.46-11.82,5.44-17.17t-32-52.28l-51.39-80.19q-6.09-9.16-18.3-27.73l11.18-15.64L677.44,612.9q10.26,2.19,13.22.13,3.92-2.68,8.8-9.52l1.92-.12Zm-109.2,27.48-74.59-17.69,41.59,63.85q6.79-8.79,17.11-23.23Q593.33,644.85,599.23,635.91Z"/><path d="M833.68,465.17l4.61,14.43q-10.74,30.79-37,54.44-52.54,47.28-105.94,26.82A110.54,110.54,0,0,1,652.22,531q-29.7-33-25.42-72.4,4.23-40.44,43.1-75.4a181.15,181.15,0,0,1,56.28-34.43l2.67.34q9.07,17,25,36.32v1.82l-5.94,5.35-2-.21q-11.27-11.89-16.32-15.91-25.36-2.88-49.12,18.5Q656,417,656.09,445t24,54.58q32.34,35.94,74.4,32.89,22.44-1.6,44.58-21.53,20.15-18.11,30-45.78Z"/><path d="M1030,378l-.51,1.85q-19.72,10.25-27.14,14.46-6.6,3.74-20.45,12.53-6.06-4.35-21.55-9.74L902.71,377a246.64,246.64,0,0,0-38.11-9.83l15.89,28q15.9,28,22.24,35.65a5.9,5.9,0,0,0,6.48,2.09q2-.54,14.45-6.64l1.85.51,4.47,7.89-.39,1.79q-12.18,6-36.69,19.86Q867.58,470.74,857,477.65l-1.78-.39-4.54-8,.51-1.85q11.61-7.51,13.11-9a5.89,5.89,0,0,0,1.54-6.63q-3.29-9.34-19.18-37.39l-35.33-62.32q-15.9-28-22.24-35.65a5.9,5.9,0,0,0-6.48-2.09q-2,.53-14.45,6.63l-1.84-.51-4.55-8,.58-1.73q11.7-5.72,36.69-19.87,25.55-14.49,35.88-21.28l1.66.46,4.61,8.13-.58,1.73q-11.61,7.51-13.11,9a5.9,5.9,0,0,0-1.54,6.63q3.28,9.35,19.18,37.39l16.56,29.21q10.41-33,14.34-48.29L883,287q3.53-13.81,8.14-37l-4.61-8.13.63-1.91q9.47-4.44,18.19-9.38,10.24-5.82,23.63-14.34l1.85.51,4.14,7.31-.51,1.84q-13.66,7.76-17.8,15.85-5.93,11.78-18.26,52.08L887.4,330q8.94,4,27.91,10.79l43.76,15.66q48.64,17.43,54.43,16.94,3.57-.32,10.11-3.87l1.92.63Z"/><path d="M1347.09,303.31l-1.09,1.58q-13.32,1.65-41.16,6.79-28.5,5.28-40.87,8.39l-1.42-1-1.67-9.06,1.08-1.58q13.44-3.3,15.34-4.21a5.91,5.91,0,0,0,3.61-5.77q0-9.9-5.91-41.6l-16.66-90-18.43,66.36q-1.61,5.52-10.41,40.49L1215,331.48l-8.92,1.65q-10-15.22-26.49-38.2l-26-36.1-48.32-66.12,17.1,92.42q5.88,31.69,9.38,41a5.9,5.9,0,0,0,5.44,4.09q2.08.17,15.82-1.55l1.58,1.08,1.68,9.06-1.11,1.44q-15.47,2-28.65,4.48-15.32,2.83-30.61,6.49l-1.56-.95-1.67-9.06,1.08-1.58q13.44-3.3,15.34-4.21a5.88,5.88,0,0,0,3.61-5.76q0-9.92-5.91-41.61l-13-70.44q-5.87-31.69-9.37-41a5.91,5.91,0,0,0-5.44-4.09q-2.1-.17-15.82,1.55l-1.58-1.09-1.68-9,1.11-1.45q14-1.75,35.17-5.68,16.24-3,28.22-6.05,6.27,9.31,17.79,26.18l11.92,16.8,58.74,80.72,12.74-45,19.23-73.94q3.35-13.15,6.08-28.12,15.19-2,20.39-3,26.1-4.83,39.8-8.2l1.56,1,1.7,9.19-1.11,1.44q-13.44,3.32-15.33,4.21a5.91,5.91,0,0,0-3.62,5.77q0,9.92,5.91,41.6l13,70.45q5.87,31.69,9.37,41a5.91,5.91,0,0,0,5.44,4.09q2.1.17,15.83-1.56l1.58,1.09Z"/><path d="M1571.77,223.93q-4.1,49.8-35.45,75.76-30.46,25.21-79.33,21.2-46.15-3.79-70.34-31.94t-20.38-74.45q5.34-64.92,56.93-85.82,23.47-9.48,56.41-6.77,47.1,3.87,71.26,30.73Q1575.38,179.93,1571.77,223.93Zm-42.15,3.6q3.21-39.15-10.61-63.45t-44.2-26.8q-40.08-3.3-56.14,31.66-8.28,17.94-10.16,40.88-3.43,41.72,10,67.14,13.88,26.28,45.59,28.88,38.48,3.17,54.82-33.67Q1527.56,252.64,1529.62,227.53Z"/><path d="M1820.84,217.12l-1.71.86q-15.2-5-19.78,2.48-2.52,4.15-8,19-4.08,11.07-11,32.17l-13,39.62q-12.57,38.2-33,49.6-27.06,15-64,2.9-33.69-11.09-48.93-28.5a46.75,46.75,0,0,1-12-33.87q.6-12.21,16.12-59.42l10.92-33.19q10.08-30.62,11.45-40.43a5.9,5.9,0,0,0-2.81-6.2q-1.76-1.14-14.63-6.23l-.86-1.72,2.83-8.62,1.71-.86q12.11,4.83,39.37,13.81,27.78,9.13,39.75,12.22l.86,1.71-2.84,8.62-1.7.86c-8.92-2.37-14.08-3.58-15.48-3.67a5.88,5.88,0,0,0-5.93,3.33q-4.73,8.72-14.8,39.32l-8.71,26.51q-16,48.63-15.22,61,1.63,24.5,36,35.79,22.5,7.41,38.75.49a33,33,0,0,0,11.75-8q4.1-4.65,9.1-15.54a204.53,204.53,0,0,0,8.18-21l8.81-26.75q11.09-33.7,14.89-46.14,3.55-11.67,3.41-15.57c-.12-1.93-1.19-3.76-3.19-5.46q-2.58-2.13-15.19-7.14l-.87-1.71,2.84-8.62,1.71-.86q10.93,4.45,22.77,8.35,8.88,2.91,34.35,10.44l.86,1.71Z"/><path d="M2046.27,349l-2,.37q-12.18-6.57-14.19-7.18a5.89,5.89,0,0,0-6.55,1.85q-6.63,7.35-23.57,34.78l-28.9,46.77q-32,51.74-40.15,68.33l-2.14.11q-11.67-10.25-17.78-15.29-9.45-53.76-27.24-191.64l-46.56,75.35q-16.95,27.42-20.58,36.64a5.9,5.9,0,0,0,1.29,6.68q1.44,1.53,12.76,9.48l.45,1.86-4.85,7.84-1.79.32q-12.83-8.87-24.22-15.92-13.26-8.19-27-15.76l-.51-1.74,4.84-7.84,1.87-.44q12.16,6.57,14.19,7.18a5.92,5.92,0,0,0,6.55-1.84q6.63-7.38,23.57-34.79l37.66-60.95q16.93-27.4,20.57-36.63a5.89,5.89,0,0,0-1.28-6.69q-1.46-1.53-12.77-9.48l-.43-1.87,4.83-7.83,1.8-.32q10.52,7.45,20.42,13.57,15.56,9.62,26.23,15.26,7.31,80.93,24.2,178.78l41.65-67.4q17-27.4,20.58-36.63a5.9,5.9,0,0,0-1.29-6.69q-1.44-1.53-12.76-9.48l-.44-1.87,4.84-7.83,1.8-.32q12.47,8.66,24.11,15.85,14.85,9.19,27.15,15.83l.51,1.75Z"/><path d="M2211.22,492.26a141.55,141.55,0,0,0-15.7,13.62l-16,16-1.91,0-6.12-6-.21-1.91q11.59-12.9,13.09-15.61,2.61-5-1.78-10.6-1.65-2.19-18-18l-13-12.66q-3.51,3.21-26.45,26.81l-53.62,55.14q-22.48,23.11-28,31.33a5.89,5.89,0,0,0-.2,6.8q1.1,1.82,10.42,12l0,1.91-6.32,6.51-1.92,0q-9-9.93-29.34-29.67-20.77-20.2-30.47-28.49l0-1.73,6.43-6.6,1.91,0q10.47,9,12.3,10.08a5.91,5.91,0,0,0,6.8-.38q8.05-5.77,30.53-28.87l53.63-55.15q23.32-24,26-27.28l-13.89-13.5q-17.38-16.91-21.33-18.66a5.91,5.91,0,0,0-3.55-.62c-1.59.47-4.09,2.06-7.5,4.8q-5.69,4.47-11.17,9.73l-1.91,0-6.12-5.95-.12-2,15.95-16.79a159,159,0,0,0,12.9-15.6l1.82-.13q4.77,6.56,40.8,41.58l39.32,38.23q33.21,32.3,42.7,39.63Z"/><path d="M2186.69,782.88l-1.81-.23q-16.52-25.12-20.08-30.24-14.24-20.45-27.13-37.54l.41-1.78,7-4.87,2,.26,7.29,9.28q4.6,5.88,8.6,3.09,2.33-1.62,8.27-10.38l17.18-25.34q-10.45-15.5-21.6-31.49-6-8.67-18.18-25.63l-17,4.56q-19.32,5.19-23.21,7.91-4.22,2.94-1.36,8.7,1.57,3.21,7,12l-.34,1.88-7.11,5-1.88-.34q-13.67-21-17.76-26.91-3.18-4.56-16.38-22.1l.22-1.8,7.23-5,2,.45q8.64,11,14.35,10.89t60-12.67l92.77-21.54q10.7-2.65,32.26-7.95l11,15.78-97.55,155.43q-5.49,8.93-4.56,12.41c.82,3.07,2.83,6.89,6,11.49l-.53,1.85Zm10.71-112.1,41.66-64.34L2165,624.22q6,9.35,16.16,23.9Q2190.95,662.23,2197.4,670.78Z"/><path d="M2223.94,872l-1.75-.53q-5-12.6-17-38.24t-18.42-37.43l.7-1.68,8.22-3.85,1.8.66q6.58,12.17,7.95,13.77a5.89,5.89,0,0,0,6.49,2q9.57-2.54,38.76-16.2l64.88-30.39q29.21-13.67,37.28-19.4a5.88,5.88,0,0,0,2.58-6.29q-.37-2.07-5.49-14.93l.65-1.8,8.35-3.91,1.67.72q4.79,12.11,17,38.12,12.11,25.86,18.36,37.3l-.53,1.74-8.34,3.91-1.8-.65q-6.59-12.16-7.94-13.78a5.91,5.91,0,0,0-6.49-2q-9.59,2.54-38.77,16.21l-64.88,30.38q-29.19,13.68-37.28,19.4a5.9,5.9,0,0,0-2.58,6.3q.38,2.07,5.5,14.92l-.66,1.8Z"/><path d="M2462,1041.23l-1.69-1.09q-4.32-13.16-5.36-15a5.92,5.92,0,0,0-6-3.17q-9.87.79-41,9l-53.15,14.06q-58.78,15.56-76.14,22l-1.63-1.38q-1.42-15.47-2.39-23.33,30.12-45.51,112.06-157.82L2301,907.17q-31.16,8.24-40.13,12.44a5.88,5.88,0,0,0-3.66,5.73q0,2.1,2.74,15.66l-1,1.66-8.9,2.35-1.52-1q-3.2-15.27-6.63-28.23-4-15-8.79-30l.83-1.62,8.91-2.36,1.65,1q4.32,13.15,5.37,15a5.88,5.88,0,0,0,6,3.16q9.89-.78,41-9l69.25-18.33q31.17-8.24,40.14-12.43a5.9,5.9,0,0,0,3.66-5.74q0-2.1-2.74-15.66l1-1.65,8.91-2.36,1.52,1q2.51,12.63,5.49,23.9,4.66,17.67,8.54,29.12-50.37,63.76-105.42,146.4l76.59-20.26q31.17-8.25,40.14-12.44a5.91,5.91,0,0,0,3.67-5.73q0-2.1-2.75-15.67l1-1.65,8.91-2.36,1.52,1q3.1,14.87,6.59,28.1,4.47,16.88,8.83,30.16l-.84,1.62Z"/><path d="M2264.41,1330.6c-.49-.35-1-.7-1.54-1.07a3.63,3.63,0,0,0,.6.21C2263.8,1330.06,2264.08,1330.28,2264.41,1330.6Z"/><path d="M2373.59,1449c-7.4,26-23.44,44.27-38.26,43.64,14.84,1.28,31-16.87,38.65-42.83C2373.88,1449.51,2373.7,1449.22,2373.59,1449Zm4.1-18.42a33.85,33.85,0,0,0,.33-5.1c-.14-.11-.35-.24-.49-.35,0,1.61-.14,3.2-.27,4.87C2377.38,1430.15,2377.59,1430.28,2377.69,1430.54Zm-1.52-25.49a70.47,70.47,0,0,1,1.39,10.83,1.4,1.4,0,0,0,.51.27,65,65,0,0,0-1.33-10.73C2376.52,1405.29,2376.39,1405.18,2376.17,1405.05Zm9.53-29.33a23.28,23.28,0,0,1-6.56,11.64,3.71,3.71,0,0,0,.63.06,22.87,22.87,0,0,0,6.46-11.58,23.74,23.74,0,0,0-5.67-21l-.34.09A23.79,23.79,0,0,1,2385.7,1375.72Zm-10.26-25.5a24.51,24.51,0,0,0-7.68-3.65,26.65,26.65,0,0,1,7.41,3.76ZM2333,1492.31a11.63,11.63,0,0,0,2.36.29,14.8,14.8,0,0,1-2.59-.34Z"/><path d="M2474.63,1404.49c9.31-3.66,9.83-22.71,9.83-22.71-2-7.56-10.73-8.46-19.41-7.24l-.08,0c-.67.1-1.26.21-1.85.32-5.74,1.8-11.25,3.32-16.62,4.55-.61.19-.87.29-.87.29a283.87,283.87,0,0,1-55.67,7.74l22.77-55-37.29,17.82-.27.11a26.65,26.65,0,0,0-7.41-3.76,11.33,11.33,0,0,0-2.2-.65c-.92-.2-1.86-.33-2.81-.46a27.4,27.4,0,0,0-8.3.25l-.12-.19-26.28-32-2.73,59.48a284,284,0,0,1-47.12-30.63s-.2-.2-.67-.63c-4.34-3.39-8.69-7.11-13.12-11.17-.49-.35-1-.7-1.54-1.07l-.08,0c-7.34-4.79-15.67-7.7-20.65-1.69,0,0-7.61,17.47-.74,24.75,0,0,42.86,50.86,88.26,42.37.25,0,.42-.07.67-.09a69.18,69.18,0,0,0-5.85,9.21,1.64,1.64,0,0,1-.58,0c-17.52,2.08-61.53,9-60.27,27,0,0,33.49-14.94,56.37-18.58l.59-.11c-.65,1.47-1.22,3-1.81,4.53-.19.12-.36.16-.65.34-9.85,4.68-29.77,20.06-43.94,69.15,0,0,4.36,1.86,10.11-9.08,4.6-8.68,15.34-30.38,29-41.08.21-.2.49-.38.69-.57-4.32,26.69,2.45,50,16.14,55.75a14.3,14.3,0,0,0,2.57.81,14.8,14.8,0,0,0,2.59.34c14.82.63,30.86-17.64,38.26-43.64.11.26.29.55.39.81,7.87,15.5,8.38,39.71,8.87,49.53.56,12.33,5.3,12.5,5.3,12.5,8-50.46-3.52-72.84-10.46-81.26-.1-.26-.31-.39-.43-.58.13-1.67.24-3.26.27-4.87.14.11.35.24.49.35,19.18,13,43.17,40.75,43.17,40.75,8.76-15.76-28.13-40.72-43.12-50a1.4,1.4,0,0,1-.51-.27,70.47,70.47,0,0,0-1.39-10.83c.22.13.35.24.57.37C2414.24,1432.37,2474.63,1404.49,2474.63,1404.49Zm-140.48-40.25a23.17,23.17,0,0,0,1,13.32,3.31,3.31,0,0,1-.6-.21c-1.18-.51-4.05-1.79-8.28-3.87l7.43-39.18,14,13.22.27.22A23.78,23.78,0,0,0,2334.15,1364.24Zm46.41-9.4,18.25-6-9.9,38.63c-4.71.08-7.85,0-9.14,0a3.71,3.71,0,0,1-.63-.06,23.28,23.28,0,0,0,6.56-11.64,23.79,23.79,0,0,0-5.48-20.79Z"/><path d="M507.6,1330.6c.49-.35,1-.7,1.55-1.07a3.63,3.63,0,0,1-.6.21C508.21,1330.06,507.94,1330.28,507.6,1330.6Z"/><path d="M398,1449.77c7.64,26,23.81,44.11,38.65,42.83-14.82.63-30.86-17.64-38.27-43.64C398.32,1449.22,398.14,1449.51,398,1449.77ZM394.76,1430c-.13-1.67-.24-3.26-.28-4.87-.13.11-.35.24-.48.35a35.19,35.19,0,0,0,.32,5.1C394.42,1430.28,394.64,1430.15,394.76,1430Zm.52-24.54a64,64,0,0,0-1.33,10.73,1.36,1.36,0,0,0,.5-.27,71.72,71.72,0,0,1,1.39-10.83Zm-3.48-50.49-.34-.09a23.75,23.75,0,0,0-5.68,21,22.94,22.94,0,0,0,6.46,11.58,3.71,3.71,0,0,0,.63-.06,23.26,23.26,0,0,1-6.55-11.64A23.79,23.79,0,0,1,391.8,1354.93Zm5-4.6a26.79,26.79,0,0,1,7.41-3.76,24.56,24.56,0,0,0-7.67,3.65Zm42.44,141.93a14.93,14.93,0,0,1-2.59.34,11.63,11.63,0,0,0,2.36-.29Z"/><path d="M395.28,1405.42l.56-.37a71.72,71.72,0,0,0-1.39,10.83,1.36,1.36,0,0,1-.5.27c-15,9.32-51.89,34.28-43.12,50,0,0,24-27.75,43.17-40.75.13-.11.35-.24.48-.35,0,1.61.15,3.2.28,4.87-.12.19-.34.32-.44.58-6.94,8.42-18.45,30.8-10.45,81.26,0,0,4.73-.17,5.3-12.5.48-9.82,1-34,8.87-49.53.1-.26.28-.55.38-.81,7.41,26,23.45,44.27,38.27,43.64a15.2,15.2,0,0,0,5.16-1.15c13.69-5.72,20.46-29.06,16.13-55.75.21.19.49.37.69.57,13.71,10.7,24.44,32.4,29.05,41.08,5.75,10.94,10.1,9.08,10.1,9.08-14.16-49.09-34.08-64.47-43.94-69.15-.28-.18-.45-.22-.64-.34-.59-1.57-1.17-3.06-1.82-4.53l.59.11c22.89,3.64,56.38,18.58,56.38,18.58,1.25-18-42.75-24.93-60.28-27a1.59,1.59,0,0,1-.57,0,71.26,71.26,0,0,0-5.85-9.21c.25,0,.42.06.67.09,45.39,8.49,88.25-42.37,88.25-42.37,6.87-7.28-.74-24.75-.74-24.75-5-6-13.3-3.1-20.65,1.69l-.07,0c-.57.37-1.06.72-1.55,1.07-4.43,4.06-8.78,7.78-13.12,11.17-.47.43-.66.63-.66.63A284.38,284.38,0,0,1,446.7,1373L444,1313.55l-26.28,32-.12.19a27.46,27.46,0,0,0-8.31-.25c-.94.13-1.88.26-2.81.46a11.54,11.54,0,0,0-2.2.65,26.79,26.79,0,0,0-7.41,3.76l-.26-.11-37.29-17.82,22.76,55a283.79,283.79,0,0,1-55.66-7.74s-.27-.1-.87-.29c-5.37-1.23-10.89-2.75-16.62-4.55-.59-.11-1.19-.22-1.85-.32l-.08,0c-8.68-1.22-17.46-.32-19.42,7.24,0,0,.53,19,9.83,22.71C297.38,1404.49,357.77,1432.37,395.28,1405.42Zm28.8-57.68.28-.22,14-13.22,7.43,39.18c-4.23,2.08-7.1,3.36-8.28,3.87a3.63,3.63,0,0,1-.6.21,23.25,23.25,0,0,0,1-13.32A23.79,23.79,0,0,0,424.08,1347.74Zm-32.28,7.19a23.79,23.79,0,0,0-5.48,20.79,23.26,23.26,0,0,0,6.55,11.64,3.71,3.71,0,0,1-.63.06c-1.28,0-4.43.09-9.13,0l-9.9-38.63,18.25,6Z"/></svg>