<svg id="Layer_1" data-name="Layer 1" xmlns="http://www.w3.org/2000/svg" viewBox="0 0 3615.67 2419.88"><defs><style>.cls-1{fill:#a62b2a;}</style></defs><path class="cls-1" d="M1188.39,823.58c11.74-4.29,23.27-9.38,35.28-12.71,24.75-6.85,40.47-27.15,61.28-39.78,12.82,1,14.46-8,15.6-17.41L1273,738.83c28.79-14.59,61.29-29.55,92-47.54,9.29-5.43,13.66-19.26,22.9-33.19-52.69,26.47-98.07,24.18-139.27-13.12,4.41-1.07,11.88-1.1,12.66-3.4,3.27-9.62,7.33-20.36,5.84-29.86-2.17-13.84-13.76-22.63-26.59-27.54-11.82-4.53-17.47,4.25-22.11,13.21a127.89,127.89,0,0,0-5.38,11.8c-.1.24,3.52,2.34,3.62,2.21,2.71-3.52,4.83-7.55,7.78-10.82,3.64-4.05,8-7.49,12-11.2l3.25,2.66-2.53,23.63c10.77,2.89,25.16-1.52,22.09,16.57l-15.16,1.66c1.88,4.28,3.48,7.91,5.09,11.54-7.3.07-15,1.62-21.73-.32-4.06-1.17-10.14-9.22-9.14-11.61,3.81-9.2-.63-13.41-6.39-18.93-2.62-2.52-2.94-8-3.26-12.21-.51-6.63-.14-13.32-.14-20l-4.32,4.2c-22.61-11-46.34-20.27-67.54-33.54-24-15-34.67-40-37.87-67.6-1.21-10.48-3-19.09-14.53-19.83,1.29-7.62,2.28-14.31,3.58-20.94,1.76-9-1-20.48,13.07-22.73,2.11-.34,4-3.39,5.58-5.47,44.33-57,86.43-67.9,148.64-38-6.9-47,4.39-87.42,45.39-114.59,29.91-19.82,83.19-22.71,126.63,11.68,1.2-5.26,2.41-9.35,3-13.54,2.31-15.32,2.31-31.4,7.27-45.79,4.12-11.95,13.39-22.4,21.66-32.47,2.37-2.89,9.16-2.14,13.93-3.06l.66,4.27h-11.08l12.23,11.09c-20.9-6-25-2.42-26.24,18.58-.69,11.47-4.65,22.74-6.88,33,5.29-.74,25.11-25.18,22-31.18l-5.27,2.33c-9.48-18.26,6-18.66,16.11-23,5.37,8.13,7.82,1.45,11.57-1.92q38.05-34.23,76.52-68c3.44-3,8-4.76,12.89-5.86-17.58,15.36-35.47,30.38-52.5,46.33-4,3.78-5.16,10.69-6.93,14.62-7,5.34-14.93,9.4-19.52,15.87-2.28,3.21.94,11.13,3,16.42,3.21,8.36,7.5,16.32,11.3,24.37,13.22.81,16.43-24.24,29.4-13.54,4.89-8.11,7.88-18.23,14.65-23.4,28.28-21.58,57.69-41.67,87-62.53L1658,156c-4-24.41,12.28-27.77,26.7-31,33.8-7.51,67.77-14.58,102-19.8,7.75-1.19,16.77,5.88,26.73,9.74,3.38-14.11,17.54-11.9,30.66-9.25,34,6.87,67.92,13.89,101.48,22.41,17.6,4.46,17.22,5.94,18.79,24.24,10.75-2.47,12.91-8.91,13.05-19.55.16-13,4.07-25.91,6.36-38.86q-.73,15.78-1.49,31.53c6.73-19,13.3-37.45,19.54-56,.28-.82-2.42-2.65-3.73-4,6.27-9.74,11.41-20.54,19.17-28.91,6.36-6.86,17.23-9.76,24-.75,13.37,17.67,28.09,35.27,36.88,55.27,20.1,45.72,42.78,89.16,81,123.31,13.47-24.89,13.68-53,14.72-81,1.32-35.64,2.89-71.32,6-106.84.8-9.12,7.74-17.71,11.86-26.55h22.51c13.13,9.4,19.91,22.2,23.81,37.94,16.74,67.73,4.94,132.05-21.46,194.86-.89,2.12-3.64,3.46-5.53,5.17,4.67-14.27,10.5-28.3,13.58-42.91,1.66-7.85,12.4-18-2-25.12,11.37-.71,11.35-.71,8-9.94-.27-.75-.44-2.23-.14-2.39,12.34-6.58,6.7-12.73,2.74-17.37,3.9-5.74,9.09-11.82,9.3-18.07,1.72-50.74-3.33-71-18.39-78.2-.16,2.25-.64,4.39-.42,6.46,1.43,13.22,4.63,26.49,4.13,39.62-.62,16.08-4,32.11-7,48-.43,2.16-6.18,3.29-6.11,3.26,1.6,5.1,3.27,10.09,4.74,15.14,1.33,4.57,2.44,9.21,3.67,13.83-17.53-2.53-5.7,14.5-13,20.56-4.52,3.74-1,16.48-2.34,25-1.57,9.61-4.61,19-7.64,30.92l11.51-9.33c-3.28,7.24-5.11,15.74-10.12,21.46-12.05,13.76-5.16,25.9,2,37.56,2.61,4.25,9.45,5.92,15.11,9.21l-9,6.37,6.4,16,20.55-8.37L2223.44,315l-1.48-4.18,70.69-27.57-8.89-12.55c4.53-5.85,9-11.78,13.65-17.64,8.38-10.68,12.48-20.69,5.08-35-9.77-18.84-5.42-39,3.91-57.06a313.61,313.61,0,0,1,80.26-98.87c6.93-5.69,14.89-15.21,26.5-7.35V73.29l20.17,4-.52-.52c15.7,7.3-1.45,17.21,1.49,25.46l34.94-41.7L2462,55c14-1.76,17.74,7.67,15.66,17.88-10.93,53.85-21.87,107.78-59.45,151.36-21,24.31-48,34.75-79,35.87-13.69.5-25.53,3.37-32.56,15.78-2.67,4.72-2.85,10.84-4.17,16.31,2.93,0,7.79,1.17,8.46,0,2.71-4.86,4.12-10.45,6.34-16.68.53,5.25,1.15,11.39,2.23,22.06,13.79.72,29.5,3.65,44.65,1.85,28.75-3.4,54,3.56,77,19.91,9.43,6.7,18.1,14.47,27.11,21.75-15.41-7.53-31.34-12.9-48.85-11.71l-2.79-1.05-.22-.46-2.94-3.5.12.16-3.61-3.38.52.52-4.71-3.72-5.6,3.17c0,1.25,0,2.5,0,3.76.17.73.35,1.46.52,2.2l-22,1.32,18.3,14.55h-15.85c0,1.49-.09,3-.14,4.47,8.24.18,16.54,1.08,24.69.35,7.87-.7,15.59-3.07,23.37-4.7l10,14c-3.57,1.6-7,4.08-10.75,4.55s-7.67-.67-11.16-2.05c-2.42-1-4.21-3.53-7.29-6.28,2.39,26.66,38.59,47.84,66.38,34.62-25,1.6-36.29-6.82-33.75-28l8.68,3.27c3.06,3.29,6.07,6.63,9.34,9.71a51.37,51.37,0,0,0,4.06-3.57l5.35.42-.45-.25c4,23.81,27.51,27.41,47.07,41.58l-25.37-4.86c3,10.83,5.67,20.15,9.35,33.24l-29.58-19.09-2.41,3.69,50.73,35.25c1.31-15.73,2.2-26.51,3.09-37.29,13.47,33.38-7.3,63.63-42.08,60-43.63-4.57-83.32-17.86-112.72-53.43-14-17-29.78-32.51-43.46-47.3,0-1.88-.78.67.12,2.3,13.43,24.43,7.72,48.38-1.22,72.42-1.61,4.31-3.61,9.62-2.47,13.63,7,24.58,2.89,48.69-1.37,72.95-.64,3.63-.21,8.46,1.76,11.37,27.3,40.34,20.06,80.78,1.79,121.85-3,6.87-3.31,15.65-2.62,23.35.89,10,1.71,17.5-11.14,20.42-6.69,1.52-12.35,7.54-16.83,14.6-1,.26-2.61,1.06-3,.68-15.76-16.81-34.34-8.57-52.55-6.56-32.55,3.6-60.78-6.24-84.05-29.64-2.21-2.22-5-3.85-7.53-5.74L2095.19,758l-20.47-8.69c-.86,1.14-2.12,2.26-1.93,2.65,9.1,18.44-.34,29.66-14.8,39.34-20,13.39-39.77,27-59.58,40.69-11,7.59-21.88,11.34-34.92-4.88,4.08,23.55-9.85,27.79-23.87,30.91-31.75,7.09-63.63,13.58-95.49,20.2-13.73,2.85-26.87,3.69-33.77-19.27-5.15,24.57-19.27,21.76-32.5,19.14-32.43-6.43-64.88-12.88-97-20.6-13-3.12-28.85-6.2-25.07-27.33l-12.06,14.18-81.5-50.93c-8.79,33.52-8.39,71-36.37,97.73,15.22-28.92,26.92-59.08,30-91.86.56-5.88-2.11-12.38-4.42-18.13-2.93-7.28-7-14.1-10.7-21.27-20.74,4.39-23.22-21.88-40.83-29.16l-3.94,7.47-1.26-1.29q1.27-7.25,2.54-14.5c-4.9,5.13-10.29,14-8.27,16.3,11.24,12.5-3.18,22.88-1.35,34.23.38,2.34-2,5.56-3.82,7.7-4.4,5.08-10.86,9-13.63,14.74-7.82,16.28-14.2,33.26-21.15,50l-6.25-2.76c-1.71-15.23,15.34-30,1.55-45.5.42-14.54,26.55-3.27,22.78-23.7l-36.53,13.41V768.12l4.43,9.65c1.06-4.73,1.82-8.14,2.84-12.71,1,4.48,1.67,7.67,1.47,6.75,6-13,12.9-28.13,20.43-44.57.89,11.63,1.67,21.73,2.44,31.83L1464,759l3.54-32.88,2.62-.18,5.23,12.61c2.78-7.63,6.51-15.08,8-23a28.59,28.59,0,0,0-2.28-16.24,348.47,348.47,0,0,0-17.57-32.77c-6.28-10.53-9.5-20.26,4.87-29.5-20.67,5.93-21.12-12.9-28.44-21.28-22.81,16.84-16.49,36.35-6.53,56.33l-5.76,2.08c-6.52-10.26-13-20.51-20.94-32.91-2.94,5.82-5.56,11-8.32,16.47l13.92,7.65-21.71,4.39c.1.56.19,1.12.29,1.67l13.27,1.65.87,5.8-22.44,3.93c2.17,2.1,4.2,2.41,6.21,2.78.3.06.54.47-.84-.78-3.27,3.07-6.66,6.18-9.9,9.45-.23.23.7,1.62,1.09,2.48l14.47-2.43-6.35,13.5h-18.55l18.31,7.42c-15.26,17.66-9.94,46.41-37.32,55l13.06-1.84c-12.67,27.42-15.52,55-10.08,83.71,4.4,23.19,6.08,46.61,31.26,59.85,14.43,7.58,29.93,5,36.71-10.67l5-4.41,3.71,2.94-21.8,30.45c6.63,11.4,18.16,13.69,30.62,15,20.42,2.22,36.56-8.36,53.47-16.84-28.61,32.52-72.17,35.44-104.19,7-.79-.7-1.38-1.83-2.28-2.18-60.41-23.47-54.11-76-53.54-125.18.15-13.5,5.61-26.94,9.35-43.65-61.8,30.8-128.71,48.05-182.89,92q15.34-16.69,30.68-33.38Zm1183.22-598.8.09,3.46c7.23,12.69,16.53,9,24.86,2.1,3.11-2.56,3.57-8.35,5.23-12.66l6.09,5.29c5.94-8.5,18.93-13.06,15.09-27l13.24-13.48c-20.6-8-45.43,9.57-54.15-20.78l-12.26,16.45,24.76,14.24q-.21,3.65-.41,7.28c.7.88,1.41,1.75,2.11,2.62-.63,1.28-1.27,2.57-1.91,3.85-14-6.47-13.07,8.72-19.41,13.38l-3.41,5.42ZM1342,478.6l-1.53,0-15.9-.12-.09.05c-15.5,3.29,2.16,8.85-.88,13l-3.78,19.36c1.2,1.8,2.39,3.6,3.59,5.39l-37,4.16c-.47,3.78-1,8-1.54,12.33l-4.75,2,5,2,0,0,12.91,6.41,0,3.18c-2.79,15.2,14.21,9.36,18.33,17.23.23-4.31.47-8.62.66-12.12,3.78,1.4,8.32,2.52,12.29,4.68,11.57,6.29,24.26,11.45,34,20,10.56,9.26,19.55,12,31.2,4.75-3.91-22.06-9-42.89-10.93-64-2-22.43-2.29-24.59-24.29-29.62q-1.08-4.47-2.15-8.94h.53l-8,4.13Zm1000.8-279.4c10.81-3.58,13.05-10.49,9.35-21-3.44-9.73-5.24-20-8.37-29.89-1.87-5.93-4.91-11.49-7.62-17.65l-9.55,7.14,5.14,1.84-5.19,24.15-13.27-2.32c-3.81,22.56-6.73,44.09,8.65,69.49l16.51-25.09ZM1417.88,530.89c.61-5,2.95-10.73,1.35-14.91-1.52-4-6.75-7.43-11.12-9.16s-9.52-.88-14.46-1.17c1.35,6.75,2.83,14.08,4.3,21.42q1.38,22.74,2.75,45.48c9.59-4.21,16.06-6.45,21.78-9.91,2-1.22,3.63-5.77,3-8.21C1423.56,546.43,1420.5,538.71,1417.88,530.89Zm956.77-430.62c-14.61,8.25-7.16,24.06-12.2,35.59l-6.56,11.63c2.24,5.12,4.44,10.17,6.91,15.8,19.66-4.15,28.57-22.89,33.15-37.28,5-15.65-2.16-35.17-3.92-52Zm-297,489.46c-30.58-18.59-64.22-25.51-100.34-27.5v14.83c23.18,2.8,45.42,5.44,67.64,8.2,10.92,1.36,21.82,3,32.73,4.44-5.41,1.46-10.77,3.94-16.25,4.21-29.07,1.46-58.17,2.36-88.59,3.5,1.23,7.81,2.08,13.2,2.46,15.66h117.5C2086,602.52,2081.84,596.12,2077.68,589.73Zm204-142.54-25.65-11.33c7.86-15.75,1.54-23.09-23.2-23l15,15.41h-9.45c-.26.81-.51,1.62-.77,2.43l43.58,20.83-41,31.44,16.69,3.77-12.09,3.42,12.05,4.23-16.06,3.47,19,8.49c-.52,1.07-1,2.14-1.54,3.21l-10.7-3.05c-1.41,4.46-2.79,8.86-4.17,13.26,14.64-11.89,24.52-4.75,34.17,9.46V516.27c23.25-3.55,33.69-13,22.52-37.64-1.34-2.95,1.09-7.62,1.33-9-3.51-7.38-17.62-3.7-11.94-17.15C2289.64,451.92,2284.39,449,2281.7,447.19ZM2256,363.49c-6.59-4.52-13.19-9-18.21-12.46-2.23,9.34-4,17-6.23,26.15,4.44-6.41,14.84,8.69,16.71-6.6,2.59,5.32,6.48,10.4,7.51,16,2.39,13,21.27,28.42,34.55,27.53,2-.14,4.31,2.72,6.38,4.14,2.88-4.53,5.79-9.1,9.94-15.64,2.63,8.11,4.07,13.67,6.36,18.85.65,1.47,3.83,2.5,5.82,2.46,1.53,0,4.49-2.68,4.32-3.08-3.9-8.94,3.49-22.39-11.94-27.21-4.19-1.31-7.94-9.39-8.45-14.69-.24-2.46,7.58-6.07,12.12-8.46,2.56-1.35,5.87-1.28,8.65-1.81,0-12.07,1.39-23.45-.32-34.34-2.82-18-16.41-27.48-32.83-30.65-6.94-1.34-15.17,4-22.81,6.36l.36,5.43,37.28,27.66-1.68,4.22-36.83,5.76c-.23,2.2-.72,6.94-1.19,11.55ZM2024.78,47c-1.33,4.3-4.84,9.41-3.58,12.74,3.78,10,2.47,16.06-7,22.48-8.23,5.57-15.93,13.7-20.45,22.46-3.87,7.52-4,17.58-3.67,26.42.28,6.59,2.08,15.8,6.64,19.06,17.93,12.87,37.22,23.85,56.07,35.57.66-2.3,1.23-4.3,2.15-7.57l15.88,24.72,3.7-7.41,3.27,0v35.54l4.37-.37c1.14-14.76,5.29-30.14,2.44-44.09-2.16-10.62-6.62-20.29-5.83-32,.42-6.22-4.55-14.27-9.46-19-8.1-7.9-18.14-13.81-27.36-20.56l1.68-2.5,17.54,8.66c-1.59-9.45-2.2-18.33-4.69-26.64-4.26-14.23-6.38-30.1-22.3-37.55ZM1718.51,823.94c6.41,3.87,13.14,11,20.62,11.92,29.63,3.62,59.63,8.2,89.23,6.84,28.45-1.32,57.1-7.67,84.68-15.33,21.1-5.87,40.67-17.23,60.82-26.11-.64-.77-1.6-1.93-2.55-3.1l19.85-6.44c-.51-1.13-1-2.26-1.55-3.4l16-5.35-6.77-5,20.92-4.66-.41-2.53H1910.55c29.74-2.53,59.61-6.77,89.18-5.26,32.59,1.67,53.27-13.39,71.65-39.77-11.63,3.9-21.31,9.08-31.43,10.2-35.75,3.93-71.63,7-107.52,9.37-26.08,1.75-52.26,2.65-78.39,2.66-19.13,0-38.28-1.83-57.38-3.3-10.58-.81-21.1-3.76-31.63-3.71-50.83.26-101.65,1.11-152.47,2-14,.24-28,1.27-43.41,2,21.19,26.52,46.59,42.6,66.65,43.69.14,2.57-.54,6.74.52,7.24,8,3.77,16.36,6.7,24.52,10.12,14.66,6.14,29.09,12.91,44,18.39C1709.16,826,1714.77,824.15,1718.51,823.94Zm291.33-618.15.24-5.06-115-4.94.09-2.16,90.76-4.56-.07-3.54H1795.4v-1.44l158.88-9.59c-9.61-4-19.06-4.52-28.51-5.12-.23,0-.4-.93-.76-1.8,1.23-.72,2.53-1.41,3.76-2.23s2.1-1.58,2.13-1.6c-86.22-34-172.15-30.83-254.86,5.19-3,14.31-17.16,2.75-21.66,9.74l9,6.35L1635.56,187c0,1.37,0,2.74,0,4.11l45.61,3.24v.92L1616,198.45c0,1.12.07,2.23.1,3.34l39.51,3.58c-.11,1.22-.22,2.43-.34,3.64H1603l-.19,2.2,23.25,2.6-.26,4.56h-35.61l.21,2.78,18.37,3.74c-.17.69-.34,1.37-.52,2.06l-27.9,1.32-.11,2.54,17.28,2.27-15.16,2.71c15.18,3.61,30.11,3.55,45,3.62q182.33.84,364.64,1.72c14.83.07,29.69.34,44.49-.36,3.89-.19,7.62-3.64,11.94-5.86-6.75-4.82-10.13-8.12-14.17-9.86a47.64,47.64,0,0,0-14-3.18c-5.16-.52-10.41-.12-15.62-.12.09-.94.18-1.88.28-2.82l19.17-4c-.09-1.52-.18-3-.28-4.56h-53.41c.08-1.53.15-3.06.23-4.59Zm-249.2,525c.26-.9.53-1.81.79-2.72-7.12-1.48-14.2-4-21.38-4.28-32.59-1.5-65.22-2.39-97.83-3.5l.09-3.12h101.27c-4.57-12.79-13.33-14.89-24.39-15.12-45.58-1-91.15-2.6-136.72-4l-.11-3.44,74.16-13.55c.13.67.25,1.34.38,2l-28.09,8.48c.22,1.19.45,2.37.67,3.56H1724V621.49H1480.78l-1.68,5.27c5.71,2.3,11.39,6.48,17.14,6.58,36.4.6,72.82.31,109.23.31h104.75c0,.91,0,1.83,0,2.75l-217.37,7.12-1,5.6,24.84,4.73.13,1.92-17.11,3.48c10.15,15.24,25.1,8.51,37.1,10.86,12.45,2.44,25.46,2,38.22,2.86v1.4l-60.6,3q-.77,2.37-1.52,4.74l26.34,10.41-14,2.81c-.07.84-.15,1.69-.22,2.53l20.73,4.36-12,6.53,24.74,5.44L1541.49,719l21.19,4.51-8.55,7.27Zm268.28-334.71c0,.72.07,1.43.1,2.15l-230.63,14.25c24.4,25.38,49.38,38.81,80.84,14.07,1.87-1.47,5.11-1.76,7.69-1.7,38.82,1,77.7,1.09,116.42,3.62,18.58,1.21,36.74,6.93,50,22.44,3.22,3.77,8.78,7.7,13.35,7.8,30.89.68,61.8.35,92.7.35l2.19-7.56-18.32-10.78c8.43-1.2,20.5-.56,10.14-16l-4.74,6.62c-6.95-1.67-12.75-4.23-18.59-4.29-34.47-.38-69-.19-103.44-.19v-.86l127.4-6.12c-5.11-14-9.79-26.75-15.95-43.56H1942.91v19.74Zm-400.54-116.5h217.93l0,2.68-98.71,6.81c26.4,14.09,47.86,27.48,49.67,57.62.17,2.71,5,7.11,7.92,7.34,18.22,1.48,36.6,2.2,44.76-15.66-2.61-14.93-4.7-26.86-6.65-38,3.61-2,9.6-5.8,16-8.75,3.86-1.78,9.23-4.36,12.37-3,23.82,10.36,44.5-1.79,66.16-8.14-128.94-16.8-257.36-40.33-389.23-23.34l6.18,8.43-20.59,3.63,15.22,6.7-18.76,4,.28,2.5h99.73l.06-2.22Zm467.75,4.4-15-2.11,5.4-7.72c-4.76-2-10.63-2.62-12-5.44-9.07-18.14-8.75-18.25-20.53-18.47-25.46-.49-50.92-1.23-76.38-1.5-39.07-.42-78.14-.59-117.21-.74-28.45-.12-56.9,0-85.34,0l0,4.65,192.7,23.11.54,3.43L1893.06,299c-2.45,18.92,11.43,14.3,20.85,14.08,52.93-1.26,105.85-3,158.78-4.58,11.54-.34,24.28,2.17,29.57-13.79l-14.57-3.69ZM1554.61,575.27l-.24,5.21h-90.89c2.5,9.3,2.59,17.28,6.55,22.07,3.69,4.48,15.5,4.44,16.62,8.39,2.2,7.81,6.47,6.6,11.3,6.6,72.84.05,145.68-.1,218.52.19,10.1,0,16.12-2.84,17-13.59H1581c0-.44,0-.88,0-1.32l16-1c1.69-10.33-2.71-23,13-25.77,3.55-.62,6.41-5.22,9.59-8l-7.61-5.21,11.33-19.59H1456.65c4.63,38.11,1.76,31.3,33.82,32C1511.84,575.62,1533.23,575.27,1554.61,575.27Zm535.53,89.05c-.64-6-1.27-11.89-1.89-17.81,1.33-5.26,3-11.7,5.36-21.13H1976V706.2l11.83,2.23-15.4,5.21c44.06,9.4,102.65-14,109.45-42.23h-70.46l-.11-2.51ZM1918.74,356l210.19-8.91c0-1.85.07-3.7.1-5.54l-16.79-5.4,13.41-4-16.81-5.62,9.62-5.9c-8.9-.82-15-1.84-21-1.87-60.44-.3-120.9.17-181.32-1-16.52-.32-28.71,2.61-35.36,19.39,5.9,7.79,6.83,22.72,23.47,16.32l-7.09-10.29L1899,339l26.59,4.07ZM1700.83,545.74v28.41c56.22,5.14,104.24-19,113.33-58.2-30.31,0-60.12,0-89.93,0a5.25,5.25,0,0,0-1.51.5l3.18-1.35c25.15-1.13,52.85-2,80.48-3.93,4.46-.31,8.63-5,12.93-7.61l-2.49-5.44h-116c-2.16,55.53-6.63,45.41,38.57,46.49,2,0,4,0,6,0v1.1Zm-82.32-8.08V502.51H1453.12c-.85,1.93-1.71,3.85-2.56,5.77,4.22,5.18,8.45,10.35,12.4,15.19l-10.75,6Zm80.4-72.68h66.34c0,1.73,0,3.46,0,5.19h-64.28v20.72h114.54c1.32-25.13-8.51-46-24.4-46.8-29.76-1.48-59.64-.42-90.46-.42C1700,450.79,1699.59,456.4,1698.91,465Zm-239.32-41.65c-2.65,20.67-5.18,40.45-8.14,63.61h167.4V470.68l-106.92-5c0-.63,0-1.25,0-1.88l18.16-1.36c-15.88-7.18-28.13-12.67-40.31-18.32a5.3,5.3,0,0,1-2.7-3.27C1484.57,425.89,1474.59,422.19,1459.59,423.33Zm592.17,123.33c32.64,5.44,63.31,3,94-1.17,3.87-.52,7.69-1.32,12-2.08,1.59-13.1,3.44-28.22,5.41-44.41H2074c-3.31,11.06-2.53,18.51,11.92,16.28C2071.79,516.35,2071.79,516.35,2051.76,546.66Zm127.07-301.11c6-15,14.74-28.34,16.32-42.45,4-35.32,6.57-71,6.08-106.54-.37-27.19-6.31-54.31-9.77-81.46l-5.44.69c0,4.2.3,8.44-.05,12.62q-2.22,26.59-4.76,53.17c-4.12,43.36-7.43,86.82-13,130C2166.55,224.4,2166.79,234.41,2178.83,245.55ZM1811,697.91l-38.77,5.37-1.24,4.93c8.94,2.77,17.89,7.86,26.83,7.86,27.25,0,54.49-2.38,81.75-3,12-.25,18.37-3.75,16.38-16.8-.7-4.56-.55-9.24-.89-15.84-24.5,0-48,.62-71.37-.17-23.81-.82-47.58-3-71.36-4.63-1.25,21.89-1.25,22,17.94,22.2C1783.09,698,1795.88,697.91,1811,697.91ZM1371.69,345l10.71,11.19-16.2,10.08-7.38-5.32c8-1.1,16-3.36,23.88-3,10.67.5,14.37-6.3,18.13-13.78,1.33-2.66,2.25-5.53,3.37-8.29,6.12-15.21,15.3-29.63,14.37-46.4-6.43-.85-10.76-1.08-14.89-2.08-3.09-.75-5.93-2.51-8.88-3.81-8.65-5.54-20.88-11.66-30.73-9-8.88,2.41-15.14,14.45-22.72,22.41l10.66,8.24-14,25.51h25.46l-15.21,8.89Zm1078.84,81.7-2.06.36c3,10.52,6,21,9.62,33.8-9.31-6-16.58-10.93-24-15.54-8.28-5.13-16.71-10-25.3-15.12-1.26,4.18-2.17,7.2-3.35,11.09-17.28-21-13.64-61.19,5.56-65.2l-13.49-10.13c-3.93,17-7.62,32.94-11.74,50.7-8.71-13-12.8-23.14-2.93-29.59l-47.32-51.47C2321.49,389,2403.79,466,2475,468,2467.74,455.68,2459.14,441.17,2450.53,426.65ZM1822.19,570.29h73V518.15h-50Zm13.51,50c-23.53,0-47.06-.25-70.58.23-4.21.09-11.43,2.44-12,5a274.08,274.08,0,0,0-6.14,40.23c-.19,2.21,5.35,7,8.37,7.06,18.07.67,36.18.33,54.67.33C1800.34,639.15,1803.92,632.45,1835.7,620.3ZM1700.31,334.76l29.25,1.42,0-.94-30.2,2.34c1.07,10.89,1.92,19.61,2.86,29.16,18.45,0,35,0,51.49,0,18.23-.06,23.44-9.83,14.65-26.33-10-18.7-28.11-23-46.33-26.8C1702.19,309.5,1700.4,311.42,1700.31,334.76Zm-114.62,79.55-48.83-30.49,11.6-3.5-.89-2.82h-56.81c-.5,22.87,9,40.82,22.27,41.64,19.15,1.19,38.36,1.74,57.54,1.48C1575.63,420.55,1580.64,416.52,1585.69,414.31Zm495,142.22c12.6,16.62,25,32.49,36.79,48.74,5.5,7.55,23.09,8.62,26,.29,5.47-15.69,9.31-31.94,14.14-49ZM1179.83,406.62l-23,25.43,17.06,29c10.68-8.57,18.56-7.74,22.39,2.6,3.7-11.44,29.15-30.23,37-27.35l1.94-3.77-19-9.63c-2.41-5.74-6-12.57-11.39-14.49C1197.67,405.82,1189.12,407.07,1179.83,406.62Zm979.73,59.28h-92.2l6.19,24.81h85.65c0-.46,0-.91,0-1.37L2146,486.86C2153.25,481.28,2168.64,484.37,2159.56,465.9ZM1488.67,362.21c23,0,43.49,5,59.44-1.28,19.47-7.71,36.47-13.1,56.14-4-.38,1.39-1,3.58-1.61,5.78,8.85.1,17.71.4,26.52-.12.58,0,2.25-8.47.94-9.36-7.81-5.3-16.24-13.25-24.66-13.49-34.56-1-69.19.46-103.78,1.09-1.44,0-2.86.89-5.67,1.81l4.82,9.26Zm346.08,82,13.16,47h52.75c-14.68-10.94,3.4-30.17-20.53-40C1863.54,444.49,1849.13,446.16,1834.75,444.21ZM1449.31,319.85l2.12,3c4.27-2.36,10-3.68,12.51-7.27a165.69,165.69,0,0,0,14.47-26.7c3.27-7.33,7.24-15.31,7.16-23-.11-12.9-3.19-25.77-4.92-37.94-7.78,3.12-35.81,38.2-37.53,49.4-.75,4.87-1.27,9.77-2,15.53l10.93,1.5-15.65,9.28,19.84,1.1-12.63,8.24h10.05C1452,315.64,1450.66,317.75,1449.31,319.85ZM2264.64,642.7c2.59,3.85,4.07,7.84,6.94,10,6.34,4.72,13.09,11.1,20.21,11.87,5.78.62,16.74-5,17.71-9.51,2.78-13,9.5-25.87,5.22-40.71-12.46,0-25.3-.54-38,.4-2.93.22-6.07,5.15-8.07,8.53-2.21,3.74-3.23,8.2-4.81,12.45l5.74,1.72ZM2045.87,491.08c-1.86-28.25-31.19-32.08-69.45-26.16v26.16ZM1560.09,333.43h57c3.47-22.24.18-27-20.83-27.12-12-.06-24,2.23-36,3.47l.06,2.14h39c-27.67,12-61.21-7.54-86,16.6l.7,5.15,57.63-6ZM1872.21,621c-4.83,19.09-9.14,36.14-13.44,53.16h35.84V621Zm264.2-256.93c-.08-1.52-.15-3-.22-4.56h-220.4l.09,4.56Zm-310.33,8.86-31.07,1.8c.13,1.75.26,3.5.4,5.26l19,1.16c-17.42-4.32-28,5.58-38.22,25.38l61.66-2.78C1833.43,392.18,1830.26,383.86,1826.08,372.92Zm299-178.54q6.34,45,12.73,90.41C2156.64,250.3,2161.47,218.4,2125.1,194.38ZM1615.9,441.72c1-1.44,4.38-4.77,5.8-8.78.73-2.05-1.85-7.53-3.25-7.64-4.34-.34-10-.34-13,2.15-14.18,11.76-27.63,24.4-39.46,35h56.63Zm222.15,175.16c-13-22.79-63.22-22-76.23,0Zm-4.92-42.79c12.38,21.13,30.83,21,49.88,20,10.94-.56,16-4.28,11.36-17.18ZM1881.5,392c-9.28-20.68-17.81-23.72-42-15.59C1844.71,398.6,1861.94,405.46,1881.5,392Zm-184.15,44.28H1777c.19-1.6.39-3.2.59-4.8-23.41-3.52-46.77-7.44-70.29-9.94C1704.93,421.25,1701.65,429.64,1697.35,436.24ZM1979.14,499l-4.15,3.72c3.41,2.94,6.64,8.13,10.27,8.43a332.18,332.18,0,0,0,46.35,1c5.6-.33,10.92-5.55,16.37-8.54l-2.11-4.63Zm54.95,25.73c-.49-2.23-1-4.45-1.46-6.67h-56.18v19.9Zm-191.19-17.8,3.13,4.58c19.4-5,42,8.08,59.06-10.65a271.13,271.13,0,0,0-52.94-2.25C1848.94,498.72,1846,504,1842.9,506.89Zm488.92-274.5L2316,229.07l-26.36,44.07C2307.72,268.79,2321.87,255.15,2331.82,232.39ZM2186,286.51l-3.85-1.15c-3.23,14.18-26.19,16.76-22.79,39.32L2194,304.34ZM1573.5,425.15h-59.22C1538.14,442.75,1558.54,442.45,1573.5,425.15Zm287.68,175.24c4.12,24.25,20.34,15.87,33.73,16.68V600.39ZM2352.07,308l-50.55-10.57c-.25,1.15-.5,2.31-.74,3.46l45.14,21.36ZM2467,98.24c-12.27,5.68-24.44,14.82-37.45,16.25-11,1.2-14.05,4.62-16.38,13.41l52.23-16.27C2466,106.39,2466.68,100.74,2467,98.24ZM1331.05,456.59c-18.44-10.95-52.47-5.53-63.11,6.69Zm-198.37-66.41c.79,1.72,1.57,3.45,2.36,5.17l46.77-17.57q-1.83-4.27-3.67-8.57Zm627.62-12.65-.09-1.8h-58.48c.07.6.14,1.2.2,1.8Zm-367.94,96.81,5.63,4.81c6.69-11.2,26.06-12.19,24.6-29.95l-4.64-3.95Zm425.36,247.82c-.07,1.77-.15,3.55-.23,5.32l68.13-3-.28-6Zm674.39-251.64,2.15,3.46,15.27-10.37c-4.21-3.89-7.85-8.95-12.79-11.34-5.5-2.65-12.19-2.87-18.36-4.15-.39,1.56-.79,3.11-1.18,4.67l15,5.58-9.7,3.28,20.62,2.89Zm-661.4-112c-11.57-.32-24.92-8.87-32.56,5.82C1809.6,364.45,1822.75,373.05,1830.71,358.51Zm318.82-78.79,4.57,1.23c1.33-12.09,23.32-19.12,7.47-37.84C2157.05,256.87,2153.29,268.3,2149.53,279.72Zm-733.1,162.94c-4.08-12.08-7.72-22.89-12.44-36.9C1397.42,425.12,1402.89,438.39,1416.43,442.66ZM2249,585l-14.59-13.77-21.88,16.1Zm-507.45-194.7c.14-1.12.27-2.25.41-3.37h-41.66q.07,3.09.16,6.16ZM2223.17,535c17.08,17,17.08,17,30.13-1.75ZM1917.49,374.78l-3.77-2.51c-1.45,5.21-5.56,11.84-3.71,15.27,2.59,4.82,9.61,7.25,14.73,10.71.47-1.1,1-2.19,1.43-3.29Q1921.82,384.88,1917.49,374.78Z"/><path class="cls-1" d="M3471.24,1970.07c-3.85,13.18-7.19,26.53-11.64,39.51-30.91,90.15-102.85,135.93-203.34,128.92-24-1.67-48.51-2.88-71.57-8.92-26.66-7-52-19-77.89-29-14.92-5.73-29.74-11.7-44.64-17.48-5-1.93-12.15-2.09-14.69-5.65-12.18-17.06-25.87-11.5-41.7-6.54-10.18,3.2-22.18.54-33.37.6-24.52.12-49.05.46-73.57.41-10.62,0-21.47.45-31.79-1.51-11.35-2.16-18.48-11.59-15.9-22.33,1.41-5.89,10.59-12.55,17.32-14,15-3.24,22.2-9.59,21.65-25.85-1.05-31-1-62-.68-93,.22-23.44,2-46.87,2.21-70.31.13-18.61-1.54-37.23-1.7-55.85-.3-35.31,0-70.61-.15-105.92-.07-17.13-5.7-22.8-22.54-19.91-12.58,2.16-15.43-4.63-16.28-13.89s-.44-19.3,12.76-19.56c34.72-.67,69.45-.86,104.17-1.48,17.1-.31,34.19-.88,51.26-1.87,10.08-.58,19.06-.27,18.45,13.13-.51,11.23,5.43,25.72-15.06,26.89-24.84,1.42-24.64,2.14-24,27.79.41,15.61,6.69,31.91-5.79,46.21-1.71,2-1.33,8.24.53,10.42,9.62,11.22,6.81,23.46,5.93,36.47-1,14.8,2.29,29.83,2.28,44.76,0,32.52-1.27,65-1.39,97.57-.11,28.85.8,57.7.9,86.56,0,9.53,4,13.41,13.34,16.48,47.59,15.63,95.38,30.94,142,49.19,47.46,18.59,95.46,28,146,18.95,78.9-14.16,125.1-67.1,130.21-148.21.64-10.14-.25-20.4.74-30.49,6.56-67.24-61.34-128.77-122.38-132.07-40.39-2.19-89.21,36.21-102.21,57.71-1.24,2-.89,5-1.38,8.29,4.46,1.49,8.39,3,12.42,4.12,22.69,6.43,36.68,23.24,35.89,43.26-.86,21.45-19.59,44-39.39,47.44-18.63,3.22-42.69-10.35-50.43-29.81-9.32-23.42-9.33-47.78,1.43-70.29,12.31-25.76,27.16-50.28,50.94-68,11.67-8.68,22.89-14.43,38.46-10.47,5.46,1.38,12.87-4.38,19.24-7.22,9.41-4.19,19.39-13.43,27.89-12.17,24.5,3.62,49.12,9.43,72.3,18.1a131.08,131.08,0,0,1,66.42,54.68c12.06,20,17.25,44.15,25.44,66.48,1.24,3.39,2.21,6.89,3.3,10.34Z"/><path class="cls-1" d="M1288.65,1771.28c66.5,32.17,79.85,92.85,68.06,133.84-5,17.34-16.45,33.05-26.38,48.6-4.66,7.3-11.58,14.67-22.91,9.45-1.6-.73-5.7,1.65-7.3,3.65-19.66,24.56-47.72,28.66-76.23,31.6-13,1.33-26,2.19-42.87,3.58,15.45,13.32,29,22.36,39.16,34.26,25.31,29.61,49.48,60.23,73.33,91,10.5,13.58,13,14.46,23,.61,35.26-48.82,58-103.56,73-161.34,21.27-82.23,40.66-165,60.77-247.5,1.64-6.73,2.09-13.79,4-20.42,3.35-11.39,3.71-19-10.48-24.83-6.1-2.49-8.66-16.39-10-25.53-.3-2,11.16-8.06,17.4-8.37,36.33-1.83,72.75-1.93,109.08-3.83,16.26-.86,24,6.27,26.44,21.09,3,18.34,8.24,36.8-3.69,54.48-1.25,1.85,2.93,10.79,5.45,11.2,15,2.42,15.52,13.66,17.84,24.83,14.21,68.52,28.74,137,43.64,207.66,17.49-6.27,33.58-13.3,50.37-17.71a297.57,297.57,0,0,1,51.49-8.73c10.57-.85,16.15-3.35,16.11-14.55,0-12.69,5.15-22,16.45-29.08,8.73-5.44,10.49-13.39-2.43-16.42-12.36-2.89-14.2-11.34-14-21.74,1-47.06,1.64-94.14,2.95-141.2.72-25.72-.61-27.08-25.67-32.16-5.16-1-11.51-8.79-12.66-14.4-2.25-11,4.11-18.95,15.81-19.53,17.64-.87,35.39.29,53-.95,53.85-3.82,106.86,1.43,159.41,12.9,3.55.78,7.69,1.52,10.25,3.76,18.09,15.87,36.36,31.59,53.56,48.4,18.18,17.76,25.15,40.43,25.19,65.59.06,35.24-2.85,70.2-24.25,99.59-10.8,14.83-25.41,27.2-39.61,39.12-7.75,6.51-11.36,11.94-7.14,21.56,14.37,32.72,27.6,66,43.56,97.92,3.4,6.78,16.2,11.24,25.17,12.22,10.19,1.12,13.37,4.49,12.38,13.66s5.64,23.21-10.69,23.65c-29.95.81-60,.07-89.9-1.31-4.08-.19-11.12-7.87-11-12,.18-8.86-.45-20,12.11-23.42,21.45-5.84,22.76-7.07,14.58-27.71-9.63-24.33-20.51-48.21-32.24-71.59-2.34-4.65-10.78-8.06-16.73-8.6-7.75-.72-15.84,1.86-23.74,3.26-8.2,1.46-22.11,1.3-23.38,5.17-3.31,10.05-2.37,22.16-.54,33,1.26,7.47,6.19,14.65,10.61,21.2,63.88,94.84,82.26,252.41-54.15,358.77-12.6,9.82-22.29,4-35.82-4.53,5.42,28.53-13.89,33.34-31.39,40.72-165.87,69.92-342.79,13.85-450.53-144.77a177.54,177.54,0,0,1-11.14-19.48c-9.53-18.82-9.71-19.22-26.77-5.49-77.39,62.32-163.76,77.64-257.92,48.16-34.16-10.7-64-30.49-88.92-56-44.27-45.28-45.91-130.49-4.81-185.6,29.68-39.8,70.16-58,119.19-58.64,5.89-.08,11.8.12,17.66-.34,12.92-1,19.11-8.16,18.74-21.17-.78-27.78-2.17-55.56-2-83.34.34-57.79,1.55-115.57,2.37-173.35.16-11.47-5.44-16.08-17-15.83-16.74.37-27.05-16.63-19-31.48,1.77-3.28,7.56-6.3,11.46-6.26,48.62.45,97.26.8,145.83,2.75,15.82.64,31.6,5.25,47.16,9,52.85,12.87,76.19,78,39.56,117.79C1290.38,1767.34,1289.91,1768.91,1288.65,1771.28Zm364.77,281.34c-10.11,17.34-23.07,25.68-40.85,26.44-2.56.11-7.48,8.54-6.75,12.21,5.75,28.93,12.62,57.56,34.76,79.5,19.86,19.68,24.36,19.77,43.93-.49,19.06-19.73,48.71-18.74,68,2.26,15.63,17,11.7,47.31-11,61.12-11.76,7.14-28.59,11.92-41.78,9.7-67-11.26-116.73-65.52-127.48-135.39-4.57-29.71-4.59-29.19-35.26-30.68-6.1-.3-15.87-5.24-17-9.74-1.73-7,.73-16.68,4.88-22.93,2.64-4,11.9-3,17.49-5.76,4.33-2.11,11-6.82,10.7-9.78-1.71-16.93-5-33.73-8.17-50.48-1.57-8.2-5.94-12.33-15.66-12.09-26.72.67-53.49.1-80.23-.19-21.7-.23-23.69,1.59-25.81,22.75a69.71,69.71,0,0,1-4.28,17c-20.81,56.31-42.48,112.14-84.28,157.26-7.67,8.28-8.25,17.3-2.56,27.88,20.11,37.37,42.6,72.37,75.51,100.53,79,67.53,166.76,106.54,272.74,86.16,57.32-11,111.78-30.68,154.69-72.59,56.28-55,76.69-121.64,62.35-199.22-5-26.86-5.38-28.4-32.2-28.25q-57,.3-114,1c-14,.17-20.65-5.73-19.87-20.4.69-12.84,4.4-20.58,19.26-18.47,10.26,1.46,16.21-3.52,17-14.24,1-13.31,2.3-26.6,3.47-39.89,1.07-12-4.89-19.94-16.43-18.28-23,3.3-46.9,5.82-68.19,14.28-28.23,11.21-28.21,16.36-19.55,46,3,10.41,7.66,16,19.32,13.27,11-2.58,15.92,3.3,17.08,13.54,1,9.06.63,18-10,20.72s-22.33,6.9-29.48-7.06C1661.4,2063.75,1658.14,2059.72,1653.42,2052.62Zm-536.17,194.52c35.6,1.69,67.75-8.38,97.36-27.41,16.21-10.41,32-21.58,48.57-31.28,12.83-7.49,13.43-15.86,6.5-27.78-26.92-46.24-59.91-87.27-102.13-120.47-62.42-49.07-127.1-51.12-192.31-6.3-49.1,33.75-56.1,111.55-14.4,154.06C1004,2232,1058.87,2244.07,1117.25,2247.14Zm894.39-465c0-38.81-10.6-58.36-42.18-80.82-21.62-15.38-46-21.7-71.69-25.4-18.18-2.62-21.26.58-20.87,19.23,1.18,57.11,2.54,114.25,2,171.36-.32,37.38-1.93,35.2,35.59,31.2C1975.9,1891.16,2013.94,1846.48,2011.64,1782.13Zm-819.22,101.24-2.09,0c0,20.79.11,41.59,0,62.38-.07,9.84,1,20,13.58,18.92,36.63-3.11,72.22-10.75,100.23-36.9,31.76-29.64,25.7-85.64-11.51-108.18-26.35-16-55.71-20.78-86.15-20.28-9.18.16-14,4.5-14,13.66C1192.38,1836.45,1192.42,1859.91,1192.42,1883.37ZM1490.05,1732l-4.61-.06c-5.22,23.35-9.93,46.83-15.76,70-9.22,36.71-19.42,73.19-28.74,109.88-4.25,16.74-1.23,19.84,15.88,19.82,20.3,0,40.62-.14,60.91.52,12.52.4,16.11-4,13-16.32-7-27.93-13.27-56-19.45-84.16C1504,1798.49,1497.12,1765.21,1490.05,1732Zm-216.6-8.33c-4-18.85-11.17-31.08-27.36-36.43-12.63-4.18-25.64-7.2-38.29-11.34-12-3.93-15.58,1.83-16,12.39-.74,21.26-2,42.52-1.9,63.78,0,3.35,6.31,10,8.58,9.52,19.13-3.83,38.72-7.17,56.6-14.5C1263.1,1743.79,1267.45,1731.72,1273.45,1723.64Z"/><path class="cls-1" d="M352.89,1158.39c10.27-12.54,18.29-5.67,26.48,1.08,41.94,34.59,54.73,75.31,35.32,115.69-9.95,20.7-22.9,39-48.07,43.14-19.21,3.14-35-3.73-43.95-19.26s-7.93-30.94,2.21-45.32c11-15.6,26.48-18.74,44.19-13.71,6,1.71,12.07,3.48,18.18,5.24,4.83-24.37-16.19-56.17-42.92-66.12-40.86-15.21-91.89-3.2-122,30.71-45.09,50.81-52.63,109.68-31.92,172.58,23.88,72.52,79.38,113.23,147,140.13,48.73,19.38,100.4,19.6,151.81,20.64,9.3.19,12.11-4.43,11.94-12.89-.35-17.12-.05-34.27-.55-51.39-.36-11.94-.87-23.3,9.38-32.5,2.56-2.3,3.68-10.22,1.76-12.85-14.31-19.52-10.54-42.09-10.64-63.43-.37-79.6.61-159.21,1-238.81.06-13.48.08-26.22-20.4-22.77-4.12.7-12.55-7-14.13-12.29-2.58-8.61-1.46-20.82,10.12-21.72,21.92-1.7,44.6-3.38,65.17,11.69,7.18-14.23,18.89-13.23,32.76-10.66,29.82,5.52,60.22,8,90,13.87,44.19,8.74,66.36,46.65,52.94,89.41-4.75,15.14-12.22,29.44-18.82,45,1.32.86,3.7,3.18,6.54,4.13,35.83,12,55.51,39.44,70.24,72.13,12.81,28.42,10.16,57.84,5.28,86.8-16.74,99.32-82.13,153.54-174.34,177.48-110.91,28.8-219.82,17.82-324.58-28.89-25-11.13-49.17-24.53-58.68-53.43-.76-2.29-3.07-5.3-5.12-5.73-29.86-6.27-37.42-33.53-49.66-54.87-24.44-42.58-30.14-91.36-20.66-137.22,13.44-64.92,49.89-117.58,116.35-140.72C294.82,1133.19,326.23,1128.75,352.89,1158.39Zm247.34,372.75c9.1-2.17,15.46-2.91,21.23-5.18,66.73-26.21,111-74,128.85-143,17.77-68.77-19.31-121.45-90.1-133.36-14.72-2.47-29.84-2.47-44.59-4.78-13.6-2.12-16.1,3.35-16,15.86.67,71.1.49,142.2.59,213.29C600.25,1492,600.23,1510,600.23,1531.14Zm5.57-344.09-6.33,2.82c3.71,6.94,6.57,19.16,11.29,19.93,21.26,3.45,42.86,2.4,60.44-13.07,14.31-12.6,20.88-28.39,15.86-47.31-4.62-17.42-15.92-28.5-34.17-31.77-8.91-1.59-17.74-3.65-26.67-5.16-22.83-3.85-23-3.8-26.57,19.12-1.42,9.15-3.62,18.61-2.57,27.59C598.19,1168.69,602.75,1177.78,605.8,1187.05Z"/><path class="cls-1" d="M1034.24,1503.87c-22.74-2.52-45.66-4-68.19-7.75C898.3,1484.79,863.52,1438.2,841,1378.24c-16.22-43.17-16.78-87.56-11.42-132.2,1.41-11.75,9.76-22.64,14.72-34,2-4.64,6.11-10.38,4.84-14.13-5.53-16.29,3.24-28.64,11-40.13,29.21-43.35,71.62-67.33,121.95-77.48,61.52-12.41,117.66,4.06,165.16,42,38.13,30.47,54,75.74,60.6,123.75a319.6,319.6,0,0,1-2.54,104.77c-11.66,60.25-38.29,109-98.16,134.64C1083.61,1495.54,1060.54,1504.17,1034.24,1503.87ZM931.13,1370.3c6.17,15.26,13.16,40.77,26.09,62.79,28.62,48.71,109.13,43.77,130.82-9.93,6.64-16.47,7.83-35.07,13.54-52,6-17.84,11.08-35,2.66-53.33-.36-.77.59-2,.63-3.09.73-17.22,3.25-34.6,1.7-51.62-2.51-27.55-7.62-54.87-11.77-82.27-6.53-43.1-51.28-73.55-93.39-63.67-29.49,6.92-57.94,40.47-63.4,75.17-2.58,16.38-6.17,32.81-6.57,49.29C930.47,1281,931.13,1320.5,931.13,1370.3Z"/><path class="cls-1" d="M2210.23,2075.88c-23.55,0-47.1-.05-70.65,0-13.37,0-19.15-6-18.86-19.77.28-13.35,5.05-20.45,19.07-19.1,12.62,1.21,17.53-5.37,17.59-17,.21-40.58.68-81.17.46-121.75-.09-18-4.87-36.27,7.73-52.57,1.74-2.26-.53-7.78-1.23-11.74-2.18-12.32-6.25-24.59-6.42-36.93-.5-35.26.69-70.54.95-105.82.1-14.06-4.62-23.45-21.37-23.32-12.35.1-19-8.9-17.3-20.2.77-5,9.26-12.56,14.3-12.6,55.56-.47,111.28-2.07,166.63,1.54,41.21,2.69,80.14,17.76,107,51.44,10.43,13.06,14.6,31.16,21.31,47.09,1.41,3.33.75,7.55,2.21,10.85,20.57,46.4,8.09,88.15-19.83,126.32-10.41,14.24-25.38,25.39-39.27,36.71-7.22,5.88-8.89,10.79-5,19,14.86,31.37,28.79,63.19,44.47,94.13,3.27,6.47,11.93,12.63,19.14,14.21,18.69,4.09,24.56,9,22.29,24.93-2.36,16.46-17.81,18.75-26.94,15.34-22.53-8.43-43.82,3.94-65.7-.23-9-1.72-18.86.67-20.49-12.12-1.5-11.79,1.27-20.67,14.44-24.74,19.62-6.07,19.65-9.72,10.83-28.34a452.52,452.52,0,0,1-22.94-59.35c-7.82-25.13-10.26-27.06-35.92-21.19-9.3,2.13-19.41,1-28.5,3.66-4.49,1.3-10.62,7.62-10.7,11.77-.46,24,1.36,48,1,71.91-.19,11.42,3.24,16.32,14.66,18,7.41,1.13,16.45,4,20.94,9.32,11.15,13.21.6,29.79-20.06,30.7-24.56,1.08-49.22.25-73.83.25Zm59-406.38c1.24,11.12,2.7,18,2.65,24.82q-.4,52.11-1.5,104.2c-.51,26-.52,52.1-2.39,78-1.24,17.22.6,20.8,18.34,21.12,72.42,1.34,120.25-46.53,118-118.3-.92-29.93-9.18-58.8-31.72-78.08C2344.13,1676.89,2305.75,1678.27,2269.26,1669.5Z"/><path class="cls-1" d="M2031,1221.68c0,12.21.22,24.44,0,36.65-.7,31.8-2.07,63.6-2.31,95.41-.23,29.81.49,59.63,1.13,89.43.23,10.72,5.45,17.49,17.15,16,12.72-1.59,19,3.2,19.9,16.34.93,13.4-3.63,19.81-17.86,19.7-34.57-.28-69.15.36-103.72.35-13.69,0-27.4-1.35-41.07-1-11.2.31-14.08-6.06-14-15,.09-8.77,1-16.56,13.39-17.67,25.67-2.29,25.2-2.9,23.58-29.67-1-16.48-.52-33-.67-49.57,0-1.59-.39-3.68.44-4.72,14.46-18.22,1.48-36.09-.14-54.21-1.53-16.94-1.56-34.07-1.24-51.09.54-28.6,2-57.18,2.79-85.78.38-14.09,0-28.2.07-42.3,0-18.8-4.57-24.67-23.14-25.52-15.6-.71-12.81-11.18-12.47-20.54.33-9,1.49-16.23,14.33-16.1,41.13.42,82.26-.47,123.39-.86,5.89,0,11.78-.17,17.67-.14,9.08,0,17.61.88,18.07,13,.39,10.41,1.56,21.06-13.37,22.51-14.54,1.41-13.87,9.47-9.27,20.32,19.36,45.74,38.12,91.72,57.48,137.45,13.84,32.67,28.26,65.1,42.49,97.6,1.88,4.28,4.19,8.36,4.67,9.31,0-45.32-.33-93.33.18-141.33.17-16.51,3.19-33,3.51-49.51.39-20.18.35-40.52-1.95-60.5-.52-4.54-11.06-11.12-17-11.18-12.62-.12-21.36-2-21.56-16.6-.2-13.72,7.28-21.86,22.76-19.84,22.42,2.93,43.79,9.42,66.94.15,13.37-5.36,17.82,7.18,19,19,1.23,12.57-4.3,18-16.82,16.61-15.29-1.63-20.05,7.22-19.48,20.48,1.29,29.86,3.56,59.7,4.12,89.58.4,21.22-2.07,42.48-2,63.71.26,50.72,1.58,101.44,1.78,152.15,0,11.63,2.81,16.89,15.44,15,16.21-2.46,16.53,9.44,16.88,20.54.38,12-5.3,17.91-17.58,17.23q-15.93-.87-31.9-1.28c-10.73-.27-18.31-4.68-22.14-15.13-6.05-16.53-11.82-33.2-18.69-49.4-18.32-43.17-37.05-86.18-55.84-129.16q-14.71-33.69-30.26-67c-2.4-5.16-6.27-9.64-9.47-14.43Z"/><path class="cls-1" d="M2647,1813.93c20.6,0,41.41,1.36,62-.42,17.48-1.51,18.31,9.1,18.92,20.67.68,12.81-4.91,20.5-19,19.57-16.55-1.09-33.14-1.67-49.64-3.25-12.58-1.21-15.09,4.24-14.88,15.84.9,48.67,1,97.37,1,146.06,0,20.64,3,26.4,23.78,27.11,26,.89,52.13-1.3,78.2-2.27,11.4-.42,14.07-7.94,13.69-17.59-.55-14.13,6.07-19,19.91-17.09,12.83,1.73,19.19,5.79,16.63,20.7-1.85,10.78.54,22.31,1.2,33.49,1.06,18.09-.45,19.19-18,19.18q-116.25,0-232.51.61c-10.1,0-20.28,1.58-30.28.76-17.21-1.41-14.7-15.9-15.59-27-1-12.49,9.24-11.06,16.91-11,11.1,0,13.54-4.55,14.35-15.63,1.89-25.8,6.53-51.39,10-77.08.28-2,.92-4.58.06-6.17-15.9-29.32-7.9-60.83-8.39-91.48-.83-52.21-1-104.44-1.33-156.67-.08-12.73-3-20.87-19-21.19-14.47-.29-14.79-13.51-13.72-24.33.86-8.65,3.31-15.48,15.91-15.14,52.86,1.43,105.76,1.53,158.65,1.93,35.83.28,71.68-.08,107.49.79,4.32.1,11.63,5.66,12.2,9.5,2.54,16.8,3.54,33.89,4.25,50.91.54,13.19-9.2,13.62-18.87,13.38-9.91-.24-17.38-2-17.79-15-.71-22.41-1.39-22-23.46-22.07-23-.06-46-1.31-69-1.36-20.22,0-24.27,4.06-27.48,23.36-2.09,12.56-4.91,25-7.33,37.49-.3,1.54-.92,3.79-.18,4.65,20,23.06,4.93,50.64,9.9,75.59A16.59,16.59,0,0,0,2647,1813.93Z"/><path class="cls-1" d="M2518.43,1372.81c0,10.19-1,16.54.17,22.42,9.06,43.75,36.08,66,81.7,68.87,18.27,1.17,35.73,2.22,53.28-6.25,51.75-24.95,56.2-72.53,26.55-116.19-7.91-11.65-14-24.6-22.61-35.68-3.9-5-11.64-7.34-18-10.17-5.93-2.66-13.14-3.15-18.29-6.75-13.29-9.29-25.62-20-38.59-29.74-24.54-18.49-43.19-41.61-53.21-70.68-9.63-27.93-.22-54.76,16.3-75.29,21.67-26.92,51.93-43.59,88.92-36.28,18,3.56,35.66,9.91,52.89,16.53,9.07,3.48,13.61.73,19.1-5.72,3-3.53,9.32-7.8,12.45-6.75,3.94,1.33,7.65,7.38,8.86,12.07,4.81,18.49,8.8,37.2,12.7,55.91,2.78,13.31-14.36,29.89-27,25.63-3.5-1.18-6-6.74-8-10.78-14.51-29.56-37.7-47.44-70.48-51.64-18.42-2.36-25.3,3.53-28.61,21.88-.38,2.1,0,4.53-.9,6.33-8.43,16.64-9.67,26.27,15,28.53,11.39,1,21.09,16.81,32.22,25,22.23,16.36,45.55,31.29,67.28,48.27,44.26,34.58,62.92,80.69,58.08,136.41-3.58,41.17-47.17,94.88-86.75,107.11-14.26,4.41-28.36,9.62-42.91,12.73-11.83,2.52-23,6.62-36.26-2.81-7.55-5.38-23.32,2.46-34.7.45-76.84-13.62-115-99.82-88.46-163.52,11-26.31,46.08-41.2,77.07-34.56,26.27,5.63,47,36.18,42.32,62-3.19,17.67-13.32,30.52-30.5,36.19-16.44,5.43-31.65,2.46-44.31-10.33C2530.05,1382.27,2525.77,1379.09,2518.43,1372.81Z"/><path class="cls-1" d="M1700.07,1388.51c-30.74,0-62.52-.23-94.29.29-3.9.06-10.15,3.36-11.18,6.51-5.26,16.12-9.2,32.67-13.53,49.09-2.52,9.6,1.2,14.86,11.2,14,14.81-1.26,19,6.46,17.86,19.47-1.09,12.69-8.07,17.26-20.52,16.66-17-.82-34-.8-51.06-.55-12.07.18-17.8-5.7-18.69-17.13-.83-10.56.61-19.53,14.25-20.07,9.51-.37,13.08-5.56,15.05-15.11,6.35-30.69,14.36-61,21.39-91.59,9.07-39.4,17.42-79,26.82-118.27,6.94-29,14.36-57.91,22.9-86.46,6.16-20.61,5.42-21.56-12.88-32.49-5.52-3.3-8.29-15.42-7.67-23.12.37-4.55,9.75-11.73,15.24-11.89,18-.53,36.09,2.13,54.16,2.55,13.21.31,26.48-.63,39.67-1.65,20.73-1.6,25.1,1.25,26.76,21.55,1,12,.18,24.15.18,38.55,15.52,3.7,14.24,19.34,17.31,34.16,13,62.65,27.48,125,41.14,187.52,5.34,24.46,9.93,49.09,14.84,73.65,2.51,12.57,5.92,23.1,21.93,25.57,4.73.73,10.21,11.65,10.82,18.31.35,4-7.62,11.8-12.68,12.59-16.31,2.56-34.14,6.76-49.22,2.57-15.26-4.25-26.89-7.22-42.51-.29-10.6,4.7-25.11,1.75-37.64.25-4-.48-10.65-7.78-10.15-11.07,1.2-8,4.47-21,9.4-22.3,17.72-4.53,15-14.45,11.58-26.77C1706.9,1419.8,1704.2,1406.3,1700.07,1388.51Zm-7-34.62c-14.75-66.14-29.06-130.32-43.72-196.08-15,66.26-29.65,130.83-44.43,196.08Z"/><path class="cls-1" d="M1410.49,1404.7c20.64,6.21,17.47,22.07,15,35.9-2.69,15,.22,22.88,16.78,22.21,13-.52,16.12,8.36,16.83,18.83.82,12.08-7.71,14.22-16.85,14.25-36.93.14-73.87-.19-110.81-.1-9,0-18.06.72-27.05,1.55-10.21.93-18.91-.45-19.13-13.1-.18-10.76-.61-21.82,15.49-22.68,19.7-1,19.9-3.54,19.64-22.19-.69-48,0-96.07.07-144.11,0-31.93-.39-63.87-.17-95.8.15-21.32,1.3-42.62,1.59-63.93.17-12.8-2.69-21.53-19.55-17.73-10,2.27-21.5,1.51-31.67-.78-14.67-3.31-20.12,1.26-19.4,15.72.5,10,.16,19.44-13.63,20.94-17.06,1.85-22.28-2.2-22.74-19.64-.25-9.63-.7-19.27-.45-28.88.51-19.71,5-24.33,25-24.68,28.86-.51,57.79-1.49,86.56.1,8.45.47,16.45,9,26.25,14.72,4.78-16.6,18.4-15.75,32.84-15.29,40.59,1.3,81.21,2.39,121.81,2.1,15.24-.1,21.71,3.63,19.9,19.82-1,9.36,1.2,19.09,2,28.64,1.26,14.89-7.84,24.9-22.54,24.43-8.48-.28-13.82-3.54-14.31-13.4-1.23-24.8-7.65-29.21-32.67-24.61a79,79,0,0,1-19,1c-17.25-1.07-20.91,2.06-20,19.8.91,18.65,3.18,37.26,3.5,55.9.81,47.4,1,94.8,1.12,142.21,0,14.35.14,28.9-2.15,43C1421.31,1387.21,1415.34,1394.81,1410.49,1404.7Z"/><path class="cls-1" d="M3004.76,1118.41c-2.26,20.2-4.85,35.42-5.43,50.72-.64,16.77.74,33.61,1,50.42.48,37.92,3.53,76.09.16,113.68-2.07,23-1.78,45.51-1,68.33.56,15.41-.47,30.88,0,46.3.34,11.22,8,16,18.3,16.09,14.13.15,19.06,7.53,17.67,20.55-1.5,14-12.09,13.39-21.71,12.3-16.09-1.84-32-5.42-48.12-6.84-5.75-.51-11.79,4.23-17.84,4.66-22.41,1.61-44.87,2.88-67.33,3.39-16.19.37-25.42-12.87-19.18-28,1.56-3.78,8.65-7,13.45-7.42,22.39-1.81,24.45-3.1,24.17-26.1-.83-67.76-2.3-135.51-2.89-203.26-.1-11,3.09-22,4.52-33a58.35,58.35,0,0,0,.19-10.82c-1.05-18.33-3.52-36.69-3-55,.47-15.92.08-17.5-16.21-16-13.3,1.25-26.67,2.4-40,2.38-12,0-17.17,5.15-15.29,16.61,2.5,15.24-5.27,18.16-18.37,18.09-14.22-.08-17.16-6.93-15.84-19.37,1.12-10.6.53-21.37.94-32.06.49-13.13,5.33-20.08,20.63-19.93,52.86.53,105.74-.29,158.61-.67,36.87-.27,73.75-.34,110.61-1.17,15.05-.33,21.76,5.92,21.46,20.82-.23,11.23.46,22.48.33,33.72-.16,13.41-8.67,16.6-20.39,17-12.25.36-15.84-5.23-15-16.64,1-13.11-5-19.74-19.15-19C3034.32,1119,3018.53,1118.41,3004.76,1118.41Z"/><path class="cls-1" d="M2406.22,1122.6c0,42.09.28,82.36-.07,122.63-.4,45.81,1.77,92-3.32,137.29-2.77,24.76,9.83,46.75,5.11,70.78-.4,2,9.73,8.86,14.83,8.71,11.82-.35,18.89,2.66,19.06,15.29.17,12-3.57,21.14-17.63,21.81-7.46.35-14.93,1.09-22.39,1-36.72-.23-73.43-1-110.14-.88-17.57.06-21.91-3.56-23.54-20.38-1.19-12.2,4-16.11,15.27-16.71,20.86-1.1,19.85-1.72,19.58-22.69-.53-42.64.7-85.29.61-127.94,0-21.32-1.4-42.64-2.16-64a8.91,8.91,0,0,1-.15-1.6c2.81-17.13,11.85-36.39,6.89-50.84a120.23,120.23,0,0,1-6.17-50.61c1.77-21.85.91-22.51-20.74-25.67-4.87-.71-11.43-7.33-12.57-12.3-2.17-9.39-1.2-20.18,11.37-22.72,7.77-1.57,16-1.46,24-1.41,37.65.25,75.29.8,112.94,1.12,20.34.17,23.44,2.73,23.87,19.06s-9.37,19.7-22.91,19.06C2414.83,1121.54,2411.71,1122.14,2406.22,1122.6Z"/><path class="cls-1" d="M346.25,1947.32c34.54-5.24,49.32-43.45,29.75-71.15-21.14-29.94-64.37-34.27-91.79-9.19-25.26,23.11-33.09,58.53-19.8,89.52,13.95,32.52,48.07,55,83.83,49.6,26.53-4,53.1-12.4,77.75-23.17,42.9-18.74,84.33-40.82,126.09-61.36-28.5,0-58.49-.22-88.47.28-3.62.06-7.24,5.88-10.75,5.76-6.24-.22-14.4-1.17-17.95-5.18-2.9-3.28-2.58-13.89.52-16.86,3.86-3.69,12.2-4.31,18.32-3.65,9.06,1,17.87,6.23,26.79,6.25q224.91.61,449.81,0c8.34,0,16.56-5.11,25-6.06,6.12-.69,15.12-.55,18.16,3.11,3.18,3.83,3.27,14.29.14,18.18s-12,4.29-18.14,3.77c-8-.68-15.77-5.54-23.66-5.58q-139-.63-278-.16c-56.12.24-101,46.54-98.62,100.66,1.45,33.48,28.94,62.17,62.14,64.85,27,2.18,48.25-17,46.08-44.92-5.12,3.75-9,6.67-12.88,9.43-11.45,8-24.24,6.58-33-3.65-8.05-9.37-7.54-24.48,1.15-33.7,13.62-14.45,36.58-12.75,49.08,3.65,22.68,29.76,5,73.47-32.81,80.92-55.72,11-104.63-43.54-90.86-102.23a124.43,124.43,0,0,1,15.53-36.57c6.87-11,16.93-20.1,26.75-31.35-50.14,12.44-94.66,34.17-138.26,58.07-31.22,17.11-63.58,30.58-99.66,33a97.12,97.12,0,0,1-96.06-59.21c-15.32-35.87-5.72-77.86,23.75-103.93,23.06-20.4,55.94-24.66,84-10.87,24.94,12.27,39.06,35.32,36.86,62.27-1.93,23.7-13.36,41.68-36,50.78-17.46,7-41.07,1.14-53.34-12.48-9.3-10.33-11.54-22.1-3-33.61,7.06-9.52,17.29-12.46,28.56-7.34,13,5.92,18,15.9,14.08,30.06C346.43,1938.68,346.67,1942.38,346.25,1947.32Z"/><path class="cls-1" d="M854.69,1742.21c-3.65-16.51-7.14-29.22-8.9-42.16-.5-3.72,3.64-11.37,6.25-11.65,12-1.26,24.23-.55,37.64-.55,0,31.74.1,61.6,0,91.45-.08,17.09-1.43,34.22-.44,51.23.46,8,6,15.6,7.49,23.7.73,3.93-2.4,12.32-3.92,12.35-14,.3-30.12,9.12-40-8.56-22.17,19.16-52.24,15.22-66.6-9-16.36-27.63-15.81-57.18-5.47-86.49,10.41-29.52,35-31,60.71-26.15C844.32,1736.9,847,1738.77,854.69,1742.21Zm-1.88,59.55c-2.88-15.73-3.83-29.82-8.53-42.53-2.17-5.88-11.23-10.86-18.08-12.55-2.74-.67-10.23,8-11.63,13.47-7.06,27.56-6.86,55.61-.67,83.28,1.22,5.47,8.6,14.13,11.82,13.59,6-1,13.89-6.67,16-12.26C847,1830.58,849.48,1815.37,852.81,1801.76Z"/><path class="cls-1" d="M675.18,1742.08c13.12-3.26,25.74-9.72,37.72-8.69,25,2.15,37.4,20.72,38.36,52.24.59,19.32.38,38.67.6,58a15.19,15.19,0,0,0,1,6.11c2.18,4.61,4.8,9,7.24,13.49-5.78,1.48-11.49,3.75-17.35,4.26a160,160,0,0,1-25.62,0c-3.8-.28-9-1.81-10.64-4.52-1.29-2.17,1.75-7.06,3.11-10.64,1.26-3.3,4.1-6.47,4.11-9.71,0-27.62.12-55.26-1.15-82.84-.23-5.11-6.52-14-10-14-5.58,0-13.86,4.75-16.15,9.72A122.76,122.76,0,0,0,675.68,1792c-1.88,15.81-.95,32-.77,48,0,3.45,1.89,6.93,3.15,10.31,1.65,4.44,3.53,8.8,5.32,13.2-4.27,1.27-8.5,3.44-12.81,3.65a260.1,260.1,0,0,1-32.08-.12c-10.32-.79-12.67-6.24-6.47-15,2-2.8,4.86-6,4.88-9,.19-28.48,1.17-57.06-.78-85.43-1.46-21.21-3.23-21.52,19.54-21.81C663.07,1735.66,675.42,1728.71,675.18,1742.08Z"/><path class="cls-1" d="M602,1857c5.77-8.69,9.13-13.77,14.19-21.4,6,14.84,4.58,25.28-5.47,31.51-15.39,9.54-28.52,1.89-39.13-8.38-8.18,4-15.23,8.78-23,10.89-18.26,5-40.92-2.87-44.17-16.36-5.63-23.34-4.58-39.91,18.17-53,9.15-5.24,19.47-8.59,29.51-12.1,14.77-5.16,10.51-17.26,9.12-27-.87-6-6.57-11.26-10.1-16.86l-5.34,3.05c.76,3.86,2.9,8.08,2,11.49-1.93,7.22-3.66,16.74-8.86,20.16-4.36,2.87-15.63.65-20-3.43-4.15-3.88-5.42-13.54-4-19.81,1.3-6,6.58-12.7,12-15.84,17.78-10.29,36.82-9.68,55.26-1.43,12.23,5.48,15.33,16.45,15.49,29.2.32,25.58,1.39,51.14,2.27,76.71C600,1847.38,600.84,1850.31,602,1857Zm-39.25-57.82c-23.32,7.09-29.88,19.61-24.67,44.46,1.08,5.14,6,9.46,9.18,14.17,4.19-4.81,11.08-9.13,12.05-14.51C561.82,1829.37,561.71,1815,562.76,1799.14Z"/><path class="cls-1" d="M977.68,1653.18c-.29,11.71-12.18,17.07-23.64,11.44-5.83-2.87-12.57-5.51-18.9-5.52q-229.8-.45-459.6,0c-6.86,0-13.63,4.82-20.6,5.34-6.64.49-15.45.39-19.59-3.45-3.06-2.84-2.59-15.11.69-17.77,4.36-3.54,13.06-2.65,19.77-2.09,6,.51,11.76,4.62,17.64,4.63q231.41.4,462.82,0c6.25,0,12.76-3.31,18.69-6.08C966.17,1634.41,978,1641.18,977.68,1653.18Z"/><path class="cls-1" d="M1970.82,866.67c15.38,18.48,28.14,8.56,39.82.54,36.12-24.81,71.76-50.3,107.57-75.56,3.35-2.36,6.56-4.91,12.07-5.21-7.05,7.3-13.92,14.78-21.19,21.86s-14.51,14.31-22.49,20.56c-148.09,115.82-308.54,130.67-479.45,58.07-4.36-1.85-7.66-6.2-11.46-9.38,3.74-1.89,7.64-3.51,11.16-5.72,5.72-3.6,11.18-7.59,19-13,0,6.36.7,9.93-.14,13.1-2.19,8.31.55,12.53,8.73,15.55a493.71,493.71,0,0,0,150.25,30.38c7.59.33,15.61-8.92,24.83-14.59,8.9,23.66,30.44,13.78,48.4,11.05,29.51-4.5,58.64-11.58,87.85-18C1960.06,893.24,1975,890.06,1970.82,866.67Z"/><path class="cls-1" d="M1263.69,761.74l-29.55,17L1244.75,763l-28.42-17.35C1210,751,1201.66,758.36,1192.8,765c-3.16,2.37-7.71,2.87-11.63,4.22l-.13,0c9.3-9.32,18.37-18.89,28-27.83,4-3.74,9.11-8.34,14-8.71,9.45-.72,22.44-2.07,27.68,3.15,4.71,4.68,1,17.82,1,29l12-3Z"/><path class="cls-1" d="M1300.55,753.68c-1.14,9.44-2.78,18.43-15.6,17.41-3.81-2-7.53-4.25-11.46-6-3.13-1.4-6.52-2.24-9.8-3.33v0Z"/><path class="cls-1" d="M1181.17,769.22c-3.2,5-5.44,11.12-9.77,14.75-15,12.53-30.63,24.19-47.83,33.9l57.47-48.6Z"/><path class="cls-1" d="M1137.72,846.25c2.31,3.69,5.41,7.72,5,8.12a134.61,134.61,0,0,1-17.15,14.21c-.64.44-4.55-3.9-7-6Z"/><path class="cls-1" d="M1188.82,823.07l-24.45,14.79-3.27-3.57c6.22-5.78,12.24-11.84,19-17,.75-.57,5.46,4,8.33,6.25C1188.39,823.58,1188.82,823.07,1188.82,823.07Z"/><path class="cls-1" d="M2461.72,348.16l9.39,2.9q1.48,3,3,6l.51-.39q-6.53-3.63-13.05-7.23Z"/><path class="cls-1" d="M2477.06,357.05l-.34.88.73.6-2.84-1.84-.51.38A3.25,3.25,0,0,0,2477.06,357.05Z"/><path class="cls-1" d="M2374.65,100.27l8.76-3c5.31,25,1.58,31.89-21,38.56C2367.49,124.33,2360,108.52,2374.65,100.27Z"/><path class="cls-1" d="M2442.6,359.9l-3.43-2.89-10-14c11.91-5,23.13-5.77,32.53,5.11l-.16,1.29.24,7.38-6.49,3.35-4,3Z"/><path class="cls-1" d="M1431.81,877.59c1.26-3,3.27-5.81,3.61-8.86a173.6,173.6,0,0,0,.62-18.41c.08-9.53,0-19.06,0-30.89l6.74,23.1,6.25,2.76Q1440.44,861.45,1431.81,877.59Z"/><path class="cls-1" d="M2034.14,56.93l-3.83,1-2.43-3.84.59.56-4.15-6c.15-.54.31-1.08.46-1.62Z"/><path class="cls-1" d="M2413.63,333.16l-12.84-6.1c-.17-.74-.35-1.47-.52-2.2l.24-.13,3.63.11-.61-.51,7.07,5.94.73.57Z"/><path class="cls-1" d="M2469.58,369.48l.45.25-5.38-3.13.12-6.75,6.89,9.89-1-.28Z"/><path class="cls-1" d="M2400.26,321.1l5.6-3.17,4.71,3.72-.52-.52c.38,1.26.77,2.51,1.16,3.77l-.76.29.3.76-7.22-1.62.61.51-3.65-3.63Z"/><path class="cls-1" d="M1324.54,478.52c.52.73,1,1.46,1.58,2.18l-1.84.66c.06-.93.11-1.86.17-2.79Z"/><path class="cls-1" d="M1342,478.6l1.08,7-2.61-7Z"/><path class="cls-1" d="M2433.33,77.32l3-3.77-3.55,3.24S2433.33,77.32,2433.33,77.32Z"/><polygon class="cls-1" points="1356.98 478.27 1357.29 478.81 1357.51 478.26 1356.98 478.27"/><path class="cls-1" d="M2394.15,199.66l3.52-.58-1.41,3.2C2395.56,201.41,2394.85,200.54,2394.15,199.66Z"/><path class="cls-1" d="M2400.27,324.86c0-1.26,0-2.51,0-3.76l.23.11,0,3.52Z"/><path class="cls-1" d="M2371.61,224.78l.09,3.46Z"/><path class="cls-1" d="M2435.78,74.13l3.37-3.19Z"/><path class="cls-1" d="M1841.15,778.5l-154.5,15.84-.51-4.8,154.65-16.14Z"/><path class="cls-1" d="M1917.36,807.1c-20.41,5.86-40.65,13.82-62,9.6-.18-1.81-.36-3.61-.55-5.41Z"/><path class="cls-1" d="M1851,221.57H1644.59v-3.49h207Z"/><path class="cls-1" d="M2024.32,48.64l4.15,6Z"/><path class="cls-1" d="M2027.88,54.11l2.43,3.84Z"/><path class="cls-1" d="M1342.75,485.1l6.87.49-.55-.57,3.77,3.77-.59-.55-10.08,6.92L1340,492c-.31-.46-.61-.92-.91-1.39Z"/><path class="cls-1" d="M1301.61,545.55,1298,543l-6.77-6.41c8,.67,16.86.3,14.22,12.77l-4.22-3.94Z"/><path class="cls-1" d="M1330,494.65l9.09-4c.3.47.6.93.91,1.39l.84,3.22-.84.19.1.87c-.36.27-.71.55-1.06.83l1-.18-10.34,1.24C1329.8,497,1329.91,495.84,1330,494.65Z"/><path class="cls-1" d="M1352.33,485.56l3.9,3.07-4-.39.59.55c0-1.23,0-2.47-.07-3.7Z"/><path class="cls-1" d="M1404.32,527l.81-2.2,1.95,2.26-1.38-.2Z"/><path class="cls-1" d="M2333.08,202.44,2329.6,212l-10.16-7.38.31-.61-.17,1,1.11-7.92,6.07-4.53,6.35,6.85.24-.44-.09,3.7Z"/><path class="cls-1" d="M2333.3,176.43l-6.69,3.9c0-2.32,0-4.63,0-7l3.76-2.74-.11.17,2.67-3.8.12-.4,2.66-2.78c1.22,2.18,2.45,4.35,3.68,6.53l.52-.33-3.84,3.81.58-.59-3.81,3.76Z"/><path class="cls-1" d="M2323.34,170.21l3.42.08.12,3.4-3.33-.16Z"/><path class="cls-1" d="M2397.21,199.48q-1.61-3.25-3.23-6.51l9.86,3.08c.31,2.39.61,4.77,1.12,8.75Z"/><path class="cls-1" d="M2342.62,177.05q.12,4.8.26,9.6-1.8,1.6-3.57,3.22l.52-.48-3.69.39.4-6.87-.51.5,3.81-3.78-.57.59,3.79-3.77Z"/><path class="cls-1" d="M2333,183.3c.11-2.29.21-4.58.32-6.87l-.48.58,3.81-3.76-.58.59,3.84-3.81-.52.33q1.62,3.34,3.25,6.69l.44-.6-3.79,3.77.57-.59-3.81,3.78.51-.5Z"/><path class="cls-1" d="M2342.42,195.2l-6.15,4,.24.28q-.18-3.4-.38-6.79l3.7-3.27-.52.48,3.78-1.9Q2342.76,191.58,2342.42,195.2Z"/><path class="cls-1" d="M1330.43,495.18l-3.83-.14Z"/><path class="cls-1" d="M1349.62,485.59c-.17-1.25-.35-2.51-.52-3.77q1.61,1.88,3.23,3.74l.44-.47-3.7-.07Z"/><path class="cls-1" d="M2336.27,199.17l-3.19,3.27.18.29.09-3.7-.24.44,3.4,0Z"/><path class="cls-1" d="M2458.24,362.88l3.78,3.77Z"/><path class="cls-1" d="M2455,359.71l3.79,3.73Z"/><path class="cls-1" d="M2465.09,360.16c-1.19-1.2-2.37-2.4-3.56-3.59Z"/><path class="cls-1" d="M2330.05,186.17l-3.57,7Z"/><path class="cls-1" d="M2333.45,182.87l-3.72,3.71Z"/><path class="cls-1" d="M2336.63,173.25l-3.81,3.76Z"/><path class="cls-1" d="M2339.89,170l-3.84,3.81Z"/><path class="cls-1" d="M2336,183.41l3.81-3.78Z"/><path class="cls-1" d="M2339.27,180.22l3.79-3.77Z"/><path class="cls-1" d="M2336.57,189.31l-.06,3.75Z"/></svg>