<svg id="Layer_1" data-name="Layer 1" xmlns="http://www.w3.org/2000/svg" viewBox="0 0 3326.81 2419.88"><defs><style>.cls-1{fill:#fff;}</style></defs><path class="cls-1" d="M1044,823.58c11.74-4.29,23.26-9.38,35.28-12.71,24.75-6.85,40.47-27.15,61.28-39.78,12.82,1,14.46-8,15.6-17.41l-27.52-14.85c28.79-14.59,61.29-29.55,92-47.54,9.28-5.43,13.65-19.26,22.9-33.19-52.69,26.47-98.08,24.18-139.27-13.12,4.4-1.07,11.88-1.1,12.66-3.4,3.26-9.62,7.33-20.36,5.84-29.86-2.17-13.84-13.76-22.63-26.59-27.54-11.82-4.53-17.47,4.25-22.11,13.21a128,128,0,0,0-5.39,11.8c-.09.24,3.53,2.34,3.63,2.21,2.71-3.52,4.82-7.55,7.78-10.82,3.64-4.05,7.94-7.49,12-11.2l3.25,2.66-2.53,23.63c10.77,2.89,25.15-1.52,22.09,16.57l-15.17,1.66,5.09,11.54c-7.29.07-15,1.62-21.73-.32-4.06-1.17-10.13-9.22-9.14-11.61,3.82-9.2-.63-13.41-6.39-18.93-2.62-2.52-2.93-8-3.25-12.21-.51-6.63-.14-13.32-.14-20l-4.32,4.2c-22.61-11-46.34-20.27-67.54-33.54-24-15-34.67-40-37.87-67.6-1.21-10.48-3-19.09-14.54-19.83,1.29-7.62,2.28-14.31,3.58-20.94,1.76-9-.95-20.48,13.07-22.73,2.11-.34,4-3.39,5.59-5.47,44.33-57,86.43-67.9,148.63-38-6.89-47,4.39-87.42,45.39-114.59,29.92-19.82,83.2-22.71,126.63,11.68,1.21-5.26,2.42-9.35,3-13.54,2.31-15.32,2.31-31.4,7.27-45.79,4.11-11.95,13.39-22.4,21.65-32.47,2.37-2.89,9.17-2.14,13.93-3.06.23,1.42.45,2.85.67,4.27h-11.08l12.23,11.09c-20.91-6-25-2.42-26.24,18.58-.7,11.47-4.65,22.74-6.89,33,5.29-.74,25.12-25.18,22-31.18l-5.27,2.33c-9.49-18.26,6-18.66,16.11-23,5.36,8.13,7.81,1.45,11.56-1.92q38.07-34.23,76.52-68c3.45-3,8-4.76,12.89-5.86-17.57,15.36-35.47,30.38-52.49,46.33-4,3.78-5.16,10.69-6.93,14.62-7,5.34-14.94,9.4-19.53,15.87-2.28,3.21.94,11.13,3,16.42,3.2,8.36,7.5,16.32,11.29,24.37,13.22.81,16.44-24.24,29.4-13.54,4.9-8.11,7.89-18.23,14.66-23.4,28.28-21.58,57.69-41.67,87-62.53l16,17.95c-4-24.41,12.28-27.77,26.7-31,33.81-7.51,67.77-14.58,102-19.8C1650,104,1659,111.11,1669,115c3.37-14.11,17.53-11.9,30.66-9.25,33.95,6.87,67.91,13.89,101.48,22.41,17.59,4.46,17.22,5.94,18.79,24.24,10.75-2.47,12.91-8.91,13-19.55.16-13,4.07-25.91,6.36-38.86q-.75,15.78-1.49,31.53c6.73-19,13.3-37.45,19.54-56,.28-.82-2.42-2.65-3.73-4C1859.9,55.77,1865,45,1872.79,36.6c6.36-6.86,17.23-9.76,24-.75,13.37,17.67,28.1,35.27,36.88,55.27,20.1,45.72,42.78,89.16,81,123.31,13.47-24.89,13.67-53,14.72-81,1.32-35.64,2.89-71.32,6-106.84.8-9.12,7.74-17.71,11.86-26.55h22.5c13.13,9.4,19.92,22.2,23.81,37.94,16.75,67.73,5,132.05-21.45,194.86-.9,2.12-3.64,3.46-5.53,5.17,4.67-14.27,10.5-28.3,13.58-42.91,1.65-7.85,12.4-18-2-25.12,11.38-.71,11.36-.71,8-9.94-.28-.75-.45-2.23-.14-2.39,12.34-6.58,6.69-12.73,2.74-17.37,3.89-5.74,9.09-11.82,9.3-18.07,1.72-50.74-3.34-71-18.39-78.2-.17,2.25-.64,4.39-.42,6.46,1.43,13.22,4.63,26.49,4.13,39.62-.62,16.08-4,32.11-7,48-.42,2.16-6.17,3.29-6.1,3.26,1.6,5.1,3.27,10.09,4.73,15.14,1.33,4.57,2.45,9.21,3.68,13.83-17.54-2.53-5.7,14.5-13,20.56-4.52,3.74-1,16.48-2.34,25-1.57,9.61-4.62,19-7.65,30.92l11.52-9.33c-3.28,7.24-5.12,15.74-10.13,21.46-12,13.76-5.15,25.9,2,37.56,2.61,4.25,9.45,5.92,15.11,9.21l-9,6.37c2.09,5.24,4,10.1,6.39,16l20.56-8.37L2079,315l-1.49-4.18,70.7-27.57c-3.79-5.35-6.2-8.74-8.89-12.55,4.52-5.85,9-11.78,13.65-17.64,8.37-10.68,12.48-20.69,5.08-35-9.77-18.84-5.42-39,3.91-57.06a313.58,313.58,0,0,1,80.25-98.87c6.93-5.69,14.9-15.21,26.51-7.35V73.29l20.17,4-.52-.52c15.7,7.3-1.45,17.21,1.49,25.46l34.94-41.7L2317.58,55c14-1.76,17.73,7.67,15.66,17.88-10.93,53.85-21.87,107.78-59.46,151.36-21,24.31-48,34.75-79,35.87-13.7.5-25.53,3.37-32.56,15.78-2.67,4.72-2.86,10.84-4.17,16.31,2.93,0,7.79,1.17,8.46,0,2.71-4.86,4.12-10.45,6.33-16.68.53,5.25,1.15,11.39,2.23,22.06,13.8.72,29.51,3.65,44.66,1.85,28.75-3.4,54,3.56,77,19.91,9.43,6.7,18.09,14.47,27.11,21.75-15.42-7.53-31.35-12.9-48.85-11.71l-2.8-1.05-.22-.46q-1.45-1.75-2.93-3.5l.12.16-3.62-3.38.53.52-4.71-3.72-5.61,3.17c0,1.25,0,2.5,0,3.76.17.73.34,1.46.52,2.2l-22,1.32,18.3,14.55h-15.85c-.05,1.49-.09,3-.14,4.47,8.23.18,16.53,1.08,24.69.35,7.87-.7,15.59-3.07,23.37-4.7l10,14c-3.58,1.6-7,4.08-10.75,4.55s-7.67-.67-11.16-2.05c-2.42-1-4.21-3.53-7.29-6.28,2.39,26.66,38.58,47.84,66.38,34.62-25,1.6-36.29-6.82-33.75-28l8.68,3.27c3.06,3.29,6.07,6.63,9.33,9.71a51.37,51.37,0,0,0,4.06-3.57l5.36.42-.45-.25c3.94,23.81,27.51,27.41,47.06,41.58l-25.36-4.86c3.05,10.83,5.67,20.15,9.34,33.24l-29.57-19.09L2324.2,424l50.74,35.25c1.3-15.73,2.2-26.51,3.09-37.29,13.47,33.38-7.3,63.63-42.09,60-43.62-4.57-83.31-17.86-112.71-53.43-14-17-29.78-32.51-43.46-47.3,0-1.88-.78.67.12,2.3,13.43,24.43,7.72,48.38-1.22,72.42-1.61,4.31-3.61,9.62-2.47,13.63,7,24.58,2.88,48.69-1.38,72.95-.63,3.63-.2,8.46,1.76,11.37,27.31,40.34,20.07,80.78,1.8,121.85-3.05,6.87-3.31,15.65-2.62,23.35.89,10,1.71,17.5-11.15,20.42-6.68,1.52-12.34,7.54-16.82,14.6-1,.26-2.62,1.06-3,.68-15.75-16.81-34.33-8.57-52.54-6.56-32.55,3.6-60.78-6.24-84.06-29.64-2.2-2.22-5-3.85-7.52-5.74L1950.76,758l-20.48-8.69c-.85,1.14-2.11,2.26-1.92,2.65,9.1,18.44-.34,29.66-14.8,39.34-20,13.39-39.77,27-59.58,40.69-11,7.59-21.89,11.34-34.92-4.88,4.07,23.55-9.86,27.79-23.87,30.91-31.75,7.09-63.64,13.58-95.49,20.2-13.74,2.85-26.87,3.69-33.77-19.27-5.15,24.57-19.27,21.76-32.5,19.14-32.43-6.43-64.88-12.88-97-20.6-13-3.12-28.84-6.2-25.06-27.33l-12.06,14.18-81.51-50.93c-8.78,33.52-8.38,71-36.37,97.73,15.22-28.92,26.93-59.08,30-91.86.56-5.88-2.11-12.38-4.43-18.13-2.93-7.28-7-14.1-10.7-21.27-20.73,4.39-23.21-21.88-40.82-29.16-.85,1.59-2.4,4.53-4,7.47l-1.25-1.29q1.26-7.25,2.53-14.5c-4.89,5.13-10.29,14-8.26,16.3,11.24,12.5-3.18,22.88-1.35,34.23.37,2.34-2,5.56-3.82,7.7-4.4,5.08-10.87,9-13.63,14.74-7.82,16.28-14.2,33.26-21.15,50l-6.26-2.76c-1.71-15.23,15.35-30,1.56-45.5.42-14.54,26.54-3.27,22.77-23.7l-36.52,13.41V768.12l4.43,9.65c1.05-4.73,1.81-8.14,2.83-12.71,1,4.48,1.68,7.67,1.48,6.75,6-13,12.9-28.13,20.43-44.57.89,11.63,1.67,21.73,2.44,31.83l1.77-.12,3.54-32.88,2.61-.18c1.86,4.47,3.71,9,5.23,12.61,2.79-7.63,6.52-15.08,8-23a28.6,28.6,0,0,0-2.29-16.24,350.71,350.71,0,0,0-17.56-32.77c-6.28-10.53-9.5-20.26,4.86-29.5-20.66,5.93-21.11-12.9-28.44-21.28-22.8,16.84-16.48,36.35-6.52,56.33l-5.76,2.08c-6.52-10.26-13-20.51-20.94-32.91-2.94,5.82-5.56,11-8.32,16.47l13.91,7.65-21.7,4.39c.09.56.19,1.12.28,1.67l13.27,1.65c.3,1.93.59,3.87.88,5.8l-22.44,3.93c2.17,2.1,4.19,2.41,6.2,2.78.31.06.55.47-.83-.78-3.27,3.07-6.66,6.18-9.9,9.45-.23.23.7,1.62,1.09,2.48l14.47-2.43-6.36,13.5h-18.54l18.31,7.42c-15.26,17.66-9.94,46.41-37.32,55l13.06-1.84c-12.68,27.42-15.52,55-10.08,83.71,4.39,23.19,6.07,46.61,31.26,59.85,14.42,7.58,29.92,5,36.71-10.67l5-4.41,3.71,2.94-21.8,30.45c6.63,11.4,18.16,13.69,30.61,15,20.42,2.22,36.57-8.36,53.48-16.84-28.61,32.52-72.17,35.44-104.2,7-.79-.7-1.37-1.83-2.27-2.18-60.42-23.47-54.11-76-53.55-125.18.16-13.5,5.61-26.94,9.36-43.65-61.8,30.8-128.72,48.05-182.89,92l30.68-33.38Zm1183.22-598.8.09,3.46c7.23,12.69,16.53,9,24.86,2.1,3.11-2.56,3.56-8.35,5.23-12.66l6.08,5.29c5.95-8.5,18.94-13.06,15.1-27l13.24-13.48c-20.6-8-45.43,9.57-54.16-20.78l-12.25,16.45,24.75,14.24q-.2,3.65-.41,7.28l2.12,2.62c-.64,1.28-1.27,2.57-1.91,3.85-14-6.47-13.08,8.72-19.41,13.38-1.14,1.81-2.28,3.61-3.41,5.42ZM1197.54,478.6l-1.53,0-15.91-.12-.08.05c-15.5,3.29,2.15,8.85-.88,13l-3.78,19.36,3.58,5.39-37,4.16-1.53,12.33-4.75,2,4.95,2,0,0,12.92,6.41c0,1.06,0,2.12,0,3.18-2.78,15.2,14.22,9.36,18.33,17.23.24-4.31.47-8.62.66-12.12,3.79,1.4,8.33,2.52,12.3,4.68,11.56,6.29,24.26,11.45,34,20,10.56,9.26,19.55,12,31.19,4.75-3.9-22.06-9-42.89-10.92-64-2-22.43-2.3-24.59-24.3-29.62-.71-3-1.43-6-2.14-8.94h.53l-7.95,4.13ZM2198.33,199.2c10.82-3.58,13.05-10.49,9.35-21-3.43-9.73-5.23-20-8.36-29.89-1.88-5.93-4.91-11.49-7.62-17.65l-9.55,7.14,5.14,1.84-5.19,24.15-13.28-2.32c-3.81,22.56-6.72,44.09,8.65,69.49,7-10.58,11.74-17.83,16.51-25.09ZM1273.44,530.89c.62-5,3-10.73,1.36-14.91-1.52-4-6.75-7.43-11.12-9.16s-9.52-.88-14.47-1.17c1.36,6.75,2.83,14.08,4.31,21.42q1.37,22.74,2.75,45.48c9.59-4.21,16-6.45,21.78-9.91,2-1.22,3.63-5.77,3-8.21C1279.12,546.43,1276.06,538.71,1273.44,530.89Zm956.78-430.62c-14.61,8.25-7.16,24.06-12.21,35.59-2.33,4.15-4.67,8.29-6.55,11.63,2.23,5.12,4.44,10.17,6.9,15.8,19.67-4.15,28.58-22.89,33.16-37.28,5-15.65-2.16-35.17-3.92-52Zm-297,489.46c-30.58-18.59-64.23-25.51-100.35-27.5v14.83c23.18,2.8,45.42,5.44,67.65,8.2,10.92,1.36,21.82,3,32.72,4.44-5.41,1.46-10.77,3.94-16.24,4.21-29.07,1.46-58.18,2.36-88.6,3.5,1.23,7.81,2.08,13.2,2.47,15.66h117.5C1941.56,602.52,1937.4,596.12,1933.25,589.73Zm204-142.54-25.66-11.33c7.87-15.75,1.54-23.09-23.19-23l14.95,15.41h-9.46c-.25.81-.51,1.62-.76,2.43l43.58,20.83L2095.68,483l16.7,3.77-12.09,3.42,12,4.23-16,3.47,19,8.49-1.55,3.21-10.7-3.05c-1.4,4.46-2.78,8.86-4.17,13.26,14.65-11.89,24.53-4.75,34.17,9.46V516.27c23.25-3.55,33.7-13,22.53-37.64-1.34-2.95,1.09-7.62,1.33-9-3.51-7.38-17.62-3.7-11.94-17.15C2145.2,451.92,2140,449,2137.27,447.19Zm-25.73-83.7L2093.32,351c-2.22,9.34-4,17-6.23,26.15,4.45-6.41,14.84,8.69,16.72-6.6,2.59,5.32,6.48,10.4,7.51,16,2.38,13,21.27,28.42,34.55,27.53,2.05-.14,4.31,2.72,6.38,4.14l9.94-15.64c2.63,8.11,4.06,13.67,6.36,18.85.65,1.47,3.82,2.5,5.82,2.46,1.53,0,4.49-2.68,4.31-3.08-3.9-8.94,3.5-22.39-11.93-27.21-4.19-1.31-7.94-9.39-8.46-14.69-.23-2.46,7.59-6.07,12.13-8.46,2.56-1.35,5.87-1.28,8.64-1.81,0-12.07,1.39-23.45-.31-34.34-2.82-18-16.41-27.48-32.84-30.65-6.93-1.34-15.16,4-22.8,6.36l.35,5.43,37.29,27.66-1.68,4.22-36.84,5.76c-.22,2.2-.71,6.94-1.18,11.55ZM1880.35,47c-1.33,4.3-4.84,9.41-3.59,12.74,3.78,10,2.48,16.06-7,22.48-8.24,5.57-15.94,13.7-20.45,22.46-3.87,7.52-4.06,17.58-3.68,26.42.29,6.59,2.09,15.8,6.65,19.06,17.93,12.87,37.21,23.85,56.07,35.57.65-2.3,1.22-4.3,2.15-7.57,5.8,9,10.64,16.56,15.88,24.72,1.52-3.06,2.61-5.23,3.69-7.41l3.27,0v35.54l4.38-.37c1.14-14.76,5.28-30.14,2.44-44.09-2.17-10.62-6.62-20.29-5.83-32,.41-6.22-4.55-14.27-9.46-19-8.11-7.9-18.14-13.81-27.36-20.56l1.67-2.5,17.55,8.66c-1.6-9.45-2.2-18.33-4.69-26.64-4.26-14.23-6.39-30.1-22.3-37.55ZM1574.08,823.94c6.41,3.87,13.13,11,20.62,11.92,29.63,3.62,59.63,8.2,89.23,6.84,28.45-1.32,57.1-7.67,84.68-15.33,21.1-5.87,40.67-17.23,60.82-26.11l-2.56-3.1,19.86-6.44c-.52-1.13-1-2.26-1.55-3.4l16-5.35-6.77-5,20.91-4.66-.4-2.53H1766.11c29.75-2.53,59.61-6.77,89.18-5.26,32.6,1.67,53.28-13.39,71.66-39.77-11.63,3.9-21.31,9.08-31.44,10.2-35.75,3.93-71.62,7-107.51,9.37-26.08,1.75-52.26,2.65-78.39,2.66-19.13,0-38.28-1.83-57.39-3.3-10.58-.81-21.09-3.76-31.63-3.71-50.82.26-101.64,1.11-152.46,2-14,.24-28.05,1.27-43.41,2,21.18,26.52,46.59,42.6,66.65,43.69.13,2.57-.54,6.74.52,7.24,8,3.77,16.35,6.7,24.51,10.12,14.67,6.14,29.1,12.91,44,18.39C1564.73,826,1570.34,824.15,1574.08,823.94ZM1865.4,205.79l.24-5.06-115-4.94.09-2.16,90.75-4.56-.06-3.54H1651v-1.44l158.87-9.59c-9.6-4-19-4.52-28.5-5.12-.23,0-.41-.93-.76-1.8,1.22-.72,2.53-1.41,3.75-2.23a24.86,24.86,0,0,0,2.13-1.6c-86.21-34-172.15-30.83-254.85,5.19-3,14.31-17.16,2.75-21.67,9.74l9,6.35L1491.12,187c0,1.37,0,2.74.05,4.11l45.6,3.24v.92l-65.23,3.21c0,1.12.07,2.23.11,3.34l39.51,3.58c-.11,1.22-.23,2.43-.34,3.64h-52.27l-.18,2.2,23.24,2.6-.26,4.56h-35.61l.21,2.78,18.38,3.74c-.18.69-.35,1.37-.52,2.06l-27.91,1.32-.11,2.54,17.29,2.27-15.17,2.71c15.19,3.61,30.12,3.55,45,3.62q182.32.84,364.63,1.72c14.84.07,29.69.34,44.5-.36,3.89-.19,7.62-3.64,11.94-5.86-6.75-4.82-10.13-8.12-14.18-9.86a47.51,47.51,0,0,0-14-3.18c-5.16-.52-10.41-.12-15.63-.12.1-.94.19-1.88.28-2.82l19.18-4c-.09-1.52-.19-3-.28-4.56H1826l.24-4.59Zm-249.19,525c.26-.9.52-1.81.79-2.72-7.13-1.48-14.2-4-21.38-4.28-32.6-1.5-65.22-2.39-97.83-3.5l.09-3.12h101.26c-4.57-12.79-13.32-14.89-24.38-15.12-45.58-1-91.15-2.6-136.73-4l-.1-3.44,74.16-13.55c.12.67.25,1.34.38,2l-28.09,8.48c.22,1.19.44,2.37.67,3.56h94.52V621.49H1336.35l-1.69,5.27c5.72,2.3,11.4,6.48,17.15,6.58,36.4.6,72.81.31,109.22.31h104.76c0,.91,0,1.83,0,2.75l-217.36,7.12-1,5.6,24.84,4.73.13,1.92-17.11,3.48c10.14,15.24,25.1,8.51,37.1,10.86,12.45,2.44,25.45,2,38.22,2.86v1.4l-60.6,3-1.53,4.74,26.34,10.41-13.95,2.81c-.07.84-.15,1.69-.22,2.53l20.73,4.36-12,6.53,24.73,5.44-17.1,4.83,21.19,4.51-8.55,7.27Zm268.28-334.71c0,.72.07,1.43.1,2.15L1654,412.51c24.4,25.38,49.37,38.81,80.84,14.07,1.87-1.47,5.11-1.76,7.69-1.7,38.82,1,77.69,1.09,116.41,3.62,18.58,1.21,36.75,6.93,50,22.44,3.21,3.77,8.78,7.7,13.35,7.8,30.89.68,61.8.35,92.7.35l2.19-7.56-18.32-10.78c8.42-1.2,20.5-.56,10.14-16l-4.74,6.62c-7-1.67-12.76-4.23-18.59-4.29-34.48-.38-69-.19-103.44-.19v-.86l127.4-6.12c-5.11-14-9.8-26.75-16-43.56H1798.48v19.74ZM1484,279.61h217.93c0,.89,0,1.79,0,2.68l-98.7,6.81c26.4,14.09,47.85,27.48,49.67,57.62.16,2.71,5,7.11,7.92,7.34,18.22,1.48,36.6,2.2,44.76-15.66-2.61-14.93-4.7-26.86-6.65-38,3.6-2,9.59-5.8,16-8.75,3.86-1.78,9.24-4.36,12.38-3,23.82,10.36,44.5-1.79,66.16-8.14-128.94-16.8-257.37-40.33-389.23-23.34l6.18,8.43-20.59,3.63,15.22,6.7-18.76,4,.28,2.5h99.73l0-2.22Zm467.74,4.4-15-2.11,5.4-7.72c-4.76-2-10.63-2.62-12-5.44-9.08-18.14-8.76-18.25-20.53-18.47-25.46-.49-50.92-1.23-76.38-1.5-39.07-.42-78.14-.59-117.21-.74-28.45-.12-56.9,0-85.35,0l0,4.65,192.71,23.11.54,3.43L1748.63,299c-2.45,18.92,11.43,14.3,20.85,14.08,52.93-1.26,105.85-3,158.77-4.58,11.55-.34,24.29,2.17,29.58-13.79l-14.57-3.69ZM1410.18,575.27c-.08,1.74-.16,3.47-.25,5.21H1319c2.51,9.3,2.6,17.28,6.56,22.07,3.68,4.48,15.5,4.44,16.62,8.39,2.2,7.81,6.46,6.6,11.29,6.6,72.84.05,145.68-.1,218.52.19,10.1,0,16.13-2.84,17-13.59H1436.58c0-.44,0-.88,0-1.32l16-1c1.68-10.33-2.72-23,13-25.77,3.56-.62,6.42-5.22,9.6-8l-7.62-5.21L1479,543.24H1312.22c4.63,38.11,1.76,31.3,33.82,32C1367.41,575.62,1388.8,575.27,1410.18,575.27Zm535.52,89.05c-.63-6-1.26-11.89-1.89-17.81,1.34-5.26,3-11.7,5.37-21.13H1831.52V706.2l11.83,2.23-15.4,5.21c44.06,9.4,102.65-14,109.45-42.23h-70.47l-.11-2.51ZM1774.3,356l210.2-8.91c0-1.85.07-3.7.1-5.54l-16.79-5.4,13.41-4-16.81-5.62c2.46-1.52,4.58-2.81,9.62-5.9-8.9-.82-15-1.84-21-1.87-60.45-.3-120.9.17-181.33-1-16.51-.32-28.7,2.61-35.35,19.39,5.9,7.79,6.83,22.72,23.47,16.32-2.46-3.56-4.77-6.92-7.09-10.29l1.86-4.22,26.59,4.07ZM1556.39,545.74v28.41c56.22,5.14,104.24-19,113.34-58.2-30.31,0-60.12,0-89.93,0a5.15,5.15,0,0,0-1.51.5l3.17-1.35c25.16-1.13,52.86-2,80.48-3.93,4.47-.31,8.64-5,12.94-7.61l-2.49-5.44h-116c-2.16,55.53-6.63,45.41,38.56,46.49,2,0,4,0,6,0v1.1Zm-82.31-8.08V502.51H1308.69c-.86,1.93-1.71,3.85-2.57,5.77l12.41,15.19-10.75,6Zm80.4-72.68h66.33c0,1.73,0,3.46,0,5.19h-64.28v20.72H1671c1.33-25.13-8.51-46-24.39-46.8-29.76-1.48-59.64-.42-90.47-.42C1555.6,450.79,1555.16,456.4,1554.48,465Zm-239.33-41.65c-2.64,20.67-5.17,40.45-8.13,63.61h167.4V470.68l-106.92-5c0-.63,0-1.25,0-1.88l18.16-1.36c-15.88-7.18-28.14-12.67-40.32-18.32a5.31,5.31,0,0,1-2.69-3.27C1340.13,425.89,1330.16,422.19,1315.15,423.33Zm592.17,123.33c32.65,5.44,63.32,3,94-1.17,3.86-.52,7.69-1.32,12-2.08,1.6-13.1,3.44-28.22,5.42-44.41h-89.17c-3.31,11.06-2.53,18.51,11.92,16.28C1927.36,516.35,1927.36,516.35,1907.32,546.66ZM2034.4,245.55c6-15,14.74-28.34,16.32-42.45,4-35.32,6.57-71,6.08-106.54-.38-27.19-6.31-54.31-9.77-81.46l-5.44.69c0,4.2.3,8.44,0,12.62q-2.22,26.59-4.76,53.17c-4.12,43.36-7.44,86.82-13,130C2022.12,224.4,2022.36,234.41,2034.4,245.55ZM1666.6,697.91l-38.78,5.37-1.23,4.93c8.94,2.77,17.88,7.86,26.83,7.86,27.24,0,54.49-2.38,81.75-3,12-.25,18.36-3.75,16.37-16.8-.69-4.56-.54-9.24-.88-15.84-24.5,0-48,.62-71.37-.17-23.82-.82-47.58-3-71.37-4.63-1.24,21.89-1.24,22,17.95,22.2C1638.66,698,1651.45,697.91,1666.6,697.91ZM1227.25,345,1238,356.14l-16.19,10.08-7.39-5.32c8-1.1,16-3.36,23.89-3,10.67.5,14.36-6.3,18.12-13.78,1.34-2.66,2.26-5.53,3.38-8.29,6.12-15.21,15.29-29.63,14.37-46.4-6.43-.85-10.76-1.08-14.89-2.08-3.09-.75-5.93-2.51-8.88-3.81-8.65-5.54-20.89-11.66-30.73-9-8.88,2.41-15.15,14.45-22.73,22.41l10.66,8.24c-4.83,8.84-9.51,17.38-14,25.51h25.45l-15.2,8.89Zm1078.85,81.7L2304,427l9.61,33.8c-9.3-6-16.57-10.93-24-15.54-8.28-5.13-16.71-10-25.31-15.12L2261,441.24c-17.28-21-13.64-61.19,5.55-65.2l-13.48-10.13c-3.93,17-7.63,32.94-11.74,50.7-8.72-13-12.8-23.14-2.93-29.59l-47.33-51.47C2177.06,389,2259.36,466,2330.61,468,2323.31,455.68,2314.7,441.17,2306.1,426.65ZM1677.76,570.29h73V518.15h-50C1693,535.64,1685.81,552,1677.76,570.29Zm13.51,50c-23.53,0-47.06-.25-70.58.23-4.22.09-11.44,2.44-12,5a274.08,274.08,0,0,0-6.14,40.23c-.19,2.21,5.35,7,8.37,7.06,18.07.67,36.17.33,54.67.33C1655.9,639.15,1659.49,632.45,1691.27,620.3Zm-135.4-285.54,29.25,1.42,0-.94-30.2,2.34c1.07,10.89,1.92,19.61,2.86,29.16,18.45,0,35,0,51.48,0,18.24-.06,23.44-9.83,14.66-26.33-10-18.7-28.12-23-46.33-26.8C1557.76,309.5,1556,311.42,1555.87,334.76Zm-114.61,79.55-48.83-30.49,11.59-3.5-.88-2.82h-56.82c-.49,22.87,9,40.82,22.28,41.64,19.14,1.19,38.36,1.74,57.53,1.48C1431.2,420.55,1436.21,416.52,1441.26,414.31Zm495,142.22c12.6,16.62,25,32.49,36.79,48.74,5.49,7.55,23.08,8.62,26,.29,5.47-15.69,9.31-31.94,14.13-49ZM1035.39,406.62l-23,25.43,17.06,29c10.68-8.57,18.56-7.74,22.38,2.6,3.7-11.44,29.15-30.23,37-27.35.65-1.25,1.3-2.51,1.94-3.77l-19-9.63c-2.41-5.74-6-12.57-11.39-14.49C1053.23,405.82,1044.69,407.07,1035.39,406.62Zm979.73,59.28h-92.2c1.82,7.26,4.08,16.31,6.2,24.81h85.64c0-.46,0-.91,0-1.37l-13.27-2.48C2008.82,481.28,2024.21,484.37,2015.12,465.9ZM1344.24,362.21c23,0,43.49,5,59.44-1.28,19.46-7.71,36.47-13.1,56.14-4-.39,1.39-1,3.58-1.61,5.78,8.85.1,17.7.4,26.51-.12.59,0,2.26-8.47,1-9.36-7.81-5.3-16.25-13.25-24.67-13.49-34.55-1-69.18.46-103.78,1.09-1.44,0-2.86.89-5.66,1.81,1.74,3.34,3.21,6.18,4.82,9.26Zm346.07,82c4.64,16.59,8.81,31.46,13.16,47h52.76c-14.68-10.94,3.39-30.17-20.54-40C1719.11,444.49,1704.7,446.16,1690.31,444.21ZM1304.88,319.85l2.11,3c4.27-2.36,10-3.68,12.52-7.27A166.47,166.47,0,0,0,1334,288.9c3.27-7.33,7.23-15.31,7.16-23-.12-12.9-3.19-25.77-4.92-37.94-7.79,3.12-35.81,38.2-37.53,49.4-.75,4.87-1.28,9.77-2,15.53l10.92,1.5L1292,303.71l19.84,1.1-12.63,8.24h10ZM2120.21,642.7c2.59,3.85,4.07,7.84,6.93,10,6.34,4.72,13.1,11.1,20.22,11.87,5.77.62,16.74-5,17.7-9.51,2.78-13,9.51-25.87,5.23-40.71-12.47,0-25.3-.54-38,.4-2.93.22-6.07,5.15-8.07,8.53-2.21,3.74-3.23,8.2-4.81,12.45l5.73,1.72ZM1901.44,491.08c-1.86-28.25-31.19-32.08-69.45-26.16v26.16ZM1415.66,333.43h57c3.48-22.24.19-27-20.83-27.12-12-.06-24,2.23-36,3.47,0,.71,0,1.42.07,2.14h39c-27.66,12-61.2-7.54-86.05,16.6l.7,5.15,57.64-6ZM1727.78,621c-4.83,19.09-9.14,36.14-13.44,53.16h35.84V621ZM1992,364.06c-.07-1.52-.14-3-.22-4.56H1771.36c0,1.52.05,3,.08,4.56Zm-310.32,8.86-31.07,1.8L1651,380l19,1.16c-17.42-4.32-28,5.58-38.23,25.38l61.67-2.78C1689,392.18,1685.82,383.86,1681.65,372.92Zm299-178.54q6.35,45,12.73,90.41C2012.21,250.3,2017,218.4,1980.67,194.38Zm-509.2,247.34c1-1.44,4.37-4.77,5.8-8.78.72-2.05-1.86-7.53-3.25-7.64-4.34-.34-10-.34-13,2.15-14.18,11.76-27.64,24.4-39.46,35h56.63Zm222.15,175.16c-13-22.79-63.22-22-76.23,0Zm-4.93-42.79c12.39,21.13,30.84,21,49.89,20,10.94-.56,16-4.28,11.36-17.18ZM1737.07,392c-9.28-20.68-17.81-23.72-42-15.59C1700.27,398.6,1717.51,405.46,1737.07,392Zm-184.16,44.28h79.65l.6-4.8c-23.41-3.52-46.78-7.44-70.29-9.94C1560.5,421.25,1557.22,429.64,1552.91,436.24ZM1834.71,499l-4.16,3.72c3.42,2.94,6.64,8.13,10.27,8.43a332.32,332.32,0,0,0,46.36,1c5.6-.33,10.92-5.55,16.36-8.54q-1.05-2.32-2.11-4.63Zm55,25.73-1.47-6.67H1832v19.9Zm-191.19-17.8,3.13,4.58c19.39-5,41.94,8.08,59.06-10.65a271.24,271.24,0,0,0-53-2.25C1704.51,498.72,1701.55,504,1698.47,506.89Zm488.92-274.5-15.87-3.32-26.37,44.07C2163.29,268.79,2177.44,255.15,2187.39,232.39ZM2041.6,286.51l-3.85-1.15c-3.23,14.18-26.19,16.76-22.79,39.32l34.61-20.34ZM1429.06,425.15h-59.22C1393.71,442.75,1414.11,442.45,1429.06,425.15Zm287.69,175.24c4.12,24.25,20.33,15.87,33.73,16.68V600.39ZM2207.64,308l-50.55-10.57-.75,3.46,45.14,21.36C2203.1,318.56,2204.91,314.35,2207.64,308Zm114.91-209.8c-12.27,5.68-24.44,14.82-37.46,16.25-11,1.2-14,4.62-16.37,13.41L2321,111.63C2321.58,106.39,2322.25,100.74,2322.55,98.24ZM1186.61,456.59c-18.43-10.95-52.47-5.53-63.1,6.69ZM988.25,390.18l2.35,5.17,46.78-17.57q-1.85-4.27-3.67-8.57Zm627.62-12.65-.09-1.8H1557.3c.07.6.13,1.2.2,1.8Zm-367.94,96.81q2.8,2.42,5.63,4.81c6.69-11.2,26.06-12.19,24.6-29.95l-4.64-3.95Zm425.36,247.82c-.08,1.77-.15,3.55-.23,5.32l68.13-3-.28-6Zm674.39-251.64,2.15,3.46,15.27-10.37c-4.21-3.89-7.85-8.95-12.79-11.34-5.5-2.65-12.19-2.87-18.36-4.15l-1.19,4.67,15,5.58-9.7,3.28,20.61,2.89Zm-661.4-112c-11.57-.32-24.93-8.87-32.56,5.82C1665.17,364.45,1678.32,373.05,1686.28,358.51Zm318.82-78.79,4.57,1.23c1.33-12.09,23.31-19.12,7.47-37.84C2012.62,256.87,2008.86,268.3,2005.1,279.72ZM1272,442.66c-4.08-12.08-7.72-22.89-12.45-36.9C1253,425.12,1258.45,438.39,1272,442.66ZM2104.57,585,2090,571.26l-21.87,16.1Zm-507.44-194.7c.14-1.12.27-2.25.41-3.37h-41.66l.15,6.16ZM2078.74,535c17.07,17,17.07,17,30.13-1.75ZM1773.06,374.78l-3.78-2.51c-1.44,5.21-5.55,11.84-3.7,15.27,2.58,4.82,9.6,7.25,14.72,10.71.48-1.1,1-2.19,1.43-3.29Z"/><path class="cls-1" d="M3326.81,1970.07c-3.85,13.18-7.19,26.53-11.64,39.51-30.91,90.15-102.85,135.93-203.35,128.92-24-1.67-48.5-2.88-71.56-8.92-26.67-7-52-19-77.9-29-14.91-5.73-29.74-11.7-44.63-17.48-5-1.93-12.16-2.09-14.7-5.65-12.17-17.06-25.87-11.5-41.7-6.54-10.18,3.2-22.18.54-33.36.6-24.53.12-49,.46-73.58.41-10.61,0-21.46.45-31.78-1.51-11.35-2.16-18.48-11.59-15.9-22.33,1.41-5.89,10.59-12.55,17.32-14,15-3.24,22.2-9.59,21.65-25.85-1-31-1-62-.69-93,.23-23.44,2-46.87,2.21-70.31.14-18.61-1.53-37.23-1.69-55.85-.31-35.31,0-70.61-.15-105.92-.07-17.13-5.7-22.8-22.55-19.91-12.57,2.16-15.42-4.63-16.27-13.89s-.45-19.3,12.76-19.56c34.72-.67,69.45-.86,104.17-1.48,17.09-.31,34.19-.88,51.26-1.87,10.08-.58,19.05-.27,18.45,13.13-.52,11.23,5.43,25.72-15.07,26.89-24.83,1.42-24.64,2.14-24,27.79.42,15.61,6.7,31.91-5.79,46.21-1.71,2-1.33,8.24.54,10.42,9.62,11.22,6.81,23.46,5.93,36.47-1,14.8,2.29,29.83,2.28,44.76,0,32.52-1.27,65-1.4,97.57-.1,28.85.81,57.7.91,86.56,0,9.53,4,13.41,13.34,16.48,47.59,15.63,95.38,30.94,142,49.19,47.47,18.59,95.47,28,146,18.95,78.9-14.16,125.11-67.1,130.22-148.21.63-10.14-.25-20.4.73-30.49,6.57-67.24-61.33-128.77-122.38-132.07-40.38-2.19-89.21,36.21-102.21,57.71-1.23,2-.88,5-1.37,8.29,4.46,1.49,8.39,3,12.41,4.12,22.7,6.43,36.69,23.24,35.89,43.26-.85,21.45-19.58,44-39.38,47.44-18.64,3.22-42.69-10.35-50.44-29.81-9.31-23.42-9.32-47.78,1.44-70.29,12.31-25.76,27.15-50.28,50.94-68,11.67-8.68,22.89-14.43,38.45-10.47,5.46,1.38,12.88-4.38,19.24-7.22,9.42-4.19,19.4-13.43,27.9-12.17,24.5,3.62,49.12,9.43,72.3,18.1a131,131,0,0,1,66.41,54.68c12.07,20,17.26,44.15,25.44,66.48,1.25,3.39,2.21,6.89,3.31,10.34Z"/><path class="cls-1" d="M1144.22,1771.28c66.5,32.17,79.85,92.85,68.06,133.84-5,17.34-16.46,33.05-26.39,48.6-4.65,7.3-11.58,14.67-22.91,9.45-1.59-.73-5.69,1.65-7.3,3.65-19.65,24.56-47.71,28.66-76.22,31.6-13,1.33-26,2.19-42.88,3.58,15.46,13.32,29,22.36,39.16,34.26,25.32,29.61,49.49,60.23,73.33,91,10.51,13.58,13,14.46,23,.61,35.27-48.82,58-103.56,73-161.34,21.27-82.23,40.66-165,60.77-247.5,1.64-6.73,2.08-13.79,4-20.42,3.36-11.39,3.71-19-10.47-24.83-6.11-2.49-8.66-16.39-10-25.53-.31-2,11.15-8.06,17.39-8.37,36.33-1.83,72.76-1.93,109.08-3.83,16.26-.86,24,6.27,26.44,21.09,3,18.34,8.24,36.8-3.68,54.48-1.25,1.85,2.93,10.79,5.44,11.2,15,2.42,15.53,13.66,17.85,24.83,14.21,68.52,28.74,137,43.64,207.66,17.48-6.27,33.58-13.3,50.37-17.71a297.25,297.25,0,0,1,51.49-8.73c10.57-.85,16.15-3.35,16.11-14.55,0-12.69,5.15-22,16.45-29.08,8.72-5.44,10.49-13.39-2.43-16.42-12.36-2.89-14.21-11.34-14-21.74,1-47.06,1.64-94.14,3-141.2.72-25.72-.61-27.08-25.67-32.16-5.16-1-11.52-8.79-12.67-14.4-2.25-11,4.12-18.95,15.81-19.53,17.64-.87,35.4.29,53-.95,53.84-3.82,106.86,1.43,159.41,12.9,3.55.78,7.69,1.52,10.25,3.76,18.09,15.87,36.35,31.59,53.55,48.4,18.19,17.76,25.16,40.43,25.2,65.59.06,35.24-2.86,70.2-24.25,99.59-10.8,14.83-25.41,27.2-39.61,39.12-7.75,6.51-11.37,11.94-7.14,21.56,14.37,32.72,27.6,66,43.56,97.92,3.39,6.78,16.2,11.24,25.17,12.22,10.19,1.12,13.36,4.49,12.37,13.66s5.65,23.21-10.68,23.65c-30,.81-60,.07-89.91-1.31-4.08-.19-11.12-7.87-11-12,.17-8.86-.45-20,12.11-23.42,21.44-5.84,22.76-7.07,14.58-27.71-9.63-24.33-20.52-48.21-32.25-71.59-2.33-4.65-10.78-8.06-16.72-8.6-7.75-.72-15.84,1.86-23.75,3.26-8.19,1.46-22.1,1.3-23.37,5.17-3.31,10.05-2.38,22.16-.54,33,1.26,7.47,6.19,14.65,10.6,21.2,63.89,94.84,82.27,252.41-54.14,358.77-12.6,9.82-22.3,4-35.83-4.53,5.42,28.53-13.89,33.34-31.39,40.72-165.86,69.92-342.79,13.85-450.52-144.77a177.54,177.54,0,0,1-11.14-19.48c-9.53-18.82-9.72-19.22-26.77-5.49-77.39,62.32-163.76,77.64-257.93,48.16-34.16-10.7-64-30.49-88.92-56-44.26-45.28-45.9-130.49-4.8-185.6,29.68-39.8,70.15-58,119.19-58.64,5.89-.08,11.8.12,17.66-.34,12.92-1,19.11-8.16,18.74-21.17-.78-27.78-2.17-55.56-2-83.34.35-57.79,1.56-115.57,2.38-173.35.16-11.47-5.44-16.08-17-15.83-16.73.37-27-16.63-19-31.48,1.78-3.28,7.56-6.3,11.47-6.26,48.62.45,97.25.8,145.82,2.75,15.83.64,31.61,5.25,47.17,9,52.85,12.87,76.19,78,39.56,117.79C1146,1767.34,1145.48,1768.91,1144.22,1771.28ZM1509,2052.62c-10.12,17.34-23.07,25.68-40.85,26.44-2.57.11-7.49,8.54-6.76,12.21,5.75,28.93,12.63,57.56,34.77,79.5,19.86,19.68,24.35,19.77,43.93-.49,19.06-19.73,48.71-18.74,68,2.26,15.63,17,11.7,47.31-11,61.12-11.76,7.14-28.59,11.92-41.78,9.7-67-11.26-116.73-65.52-127.48-135.39-4.57-29.71-4.6-29.19-35.26-30.68-6.11-.3-15.87-5.24-17-9.74-1.72-7,.74-16.68,4.88-22.93,2.64-4,11.91-3,17.5-5.76,4.32-2.11,11-6.82,10.7-9.78-1.71-16.93-5-33.73-8.17-50.48-1.57-8.2-5.94-12.33-15.66-12.09-26.73.67-53.49.1-80.24-.19-21.7-.23-23.68,1.59-25.8,22.75a69.73,69.73,0,0,1-4.29,17c-20.8,56.31-42.47,112.14-84.28,157.26-7.67,8.28-8.24,17.3-2.55,27.88,20.11,37.37,42.59,72.37,75.51,100.53,79,67.53,166.76,106.54,272.74,86.16,57.31-11,111.78-30.68,154.69-72.59,56.28-55,76.68-121.64,62.35-199.22-5-26.86-5.38-28.4-32.2-28.25q-57,.3-114,1c-14,.17-20.65-5.73-19.86-20.4.68-12.84,4.4-20.58,19.26-18.47,10.26,1.46,16.2-3.52,17-14.24,1-13.31,2.29-26.6,3.47-39.89,1.06-12-4.9-19.94-16.43-18.28-23,3.3-46.9,5.82-68.19,14.28-28.23,11.21-28.21,16.36-19.56,46,3,10.41,7.66,16,19.33,13.27,11-2.58,15.91,3.3,17.08,13.54,1,9.06.63,18-10,20.72s-22.32,6.9-29.47-7.06C1517,2063.75,1513.71,2059.72,1509,2052.62ZM972.81,2247.14c35.6,1.69,67.76-8.38,97.37-27.41,16.2-10.41,32-21.58,48.57-31.28,12.83-7.49,13.43-15.86,6.5-27.78-26.92-46.24-59.91-87.27-102.14-120.47-62.41-49.07-127.1-51.12-192.31-6.3-49.09,33.75-56.1,111.55-14.39,154.06C859.58,2232,914.44,2244.07,972.81,2247.14Zm894.4-465c0-38.81-10.61-58.36-42.18-80.82-21.62-15.38-46-21.7-71.69-25.4-18.18-2.62-21.26.58-20.88,19.23,1.19,57.11,2.55,114.25,2.06,171.36-.32,37.38-1.94,35.2,35.58,31.2C1831.47,1891.16,1869.51,1846.48,1867.21,1782.13ZM1048,1883.37l-2.09,0c0,20.79.11,41.59-.05,62.38-.08,9.84,1,20,13.57,18.92,36.64-3.11,72.22-10.75,100.24-36.9,31.76-29.64,25.7-85.64-11.52-108.18-26.35-16-55.7-20.78-86.15-20.28-9.17.16-14,4.5-14,13.66C1047.94,1836.45,1048,1859.91,1048,1883.37ZM1345.61,1732l-4.61-.06c-5.21,23.35-9.92,46.83-15.75,70-9.22,36.71-19.42,73.19-28.74,109.88-4.25,16.74-1.24,19.84,15.88,19.82,20.3,0,40.62-.14,60.9.52,12.52.4,16.12-4,13-16.32-7-27.93-13.27-56-19.45-84.16C1359.58,1798.49,1352.68,1765.21,1345.61,1732ZM1129,1723.64c-4-18.85-11.17-31.08-27.36-36.43-12.63-4.18-25.65-7.2-38.29-11.34-12-3.93-15.58,1.83-15.95,12.39-.75,21.26-2,42.52-1.91,63.78,0,3.35,6.31,10,8.59,9.52,19.12-3.83,38.72-7.17,56.6-14.5C1118.66,1743.79,1123,1731.72,1129,1723.64Z"/><path class="cls-1" d="M208.46,1158.39c10.27-12.54,18.29-5.67,26.48,1.08,41.94,34.59,54.73,75.31,35.32,115.69-9.95,20.7-22.9,39-48.07,43.14-19.21,3.14-35.05-3.73-43.95-19.26s-7.94-30.94,2.21-45.32c11-15.6,26.47-18.74,44.18-13.71,6.05,1.71,12.08,3.48,18.18,5.24,4.83-24.37-16.19-56.17-42.91-66.12-40.86-15.21-91.89-3.2-122,30.71C32.82,1260.65,25.27,1319.52,46,1382.42c23.88,72.52,79.38,113.23,147,140.13,48.73,19.38,100.39,19.6,151.81,20.64,9.3.19,12.11-4.43,11.94-12.89-.35-17.12-.05-34.27-.56-51.39-.35-11.94-.86-23.3,9.39-32.5,2.55-2.3,3.67-10.22,1.75-12.85C353,1414,356.8,1391.47,356.7,1370.13c-.37-79.6.61-159.21,1-238.81.07-13.48.08-26.22-20.4-22.77-4.12.7-12.55-7-14.13-12.29-2.57-8.61-1.45-20.82,10.13-21.72,21.91-1.7,44.59-3.38,65.16,11.69,7.19-14.23,18.89-13.23,32.77-10.66,29.82,5.52,60.22,8,90,13.87,44.19,8.74,66.35,46.65,52.94,89.41-4.76,15.14-12.22,29.44-18.82,45,1.31.86,3.7,3.18,6.54,4.13,35.83,12,55.51,39.44,70.24,72.13,12.8,28.42,10.16,57.84,5.28,86.8-16.74,99.32-82.14,153.54-174.34,177.48-110.92,28.8-219.83,17.82-324.58-28.89-25-11.13-49.17-24.53-58.69-53.43-.75-2.29-3.06-5.3-5.12-5.73-29.85-6.27-37.41-33.53-49.65-54.87C.56,1378.89-5.15,1330.11,4.34,1284.25c13.44-64.92,49.89-117.58,116.35-140.72C150.38,1133.19,181.8,1128.75,208.46,1158.39ZM455.8,1531.14c9.1-2.17,15.46-2.91,21.22-5.18,66.73-26.21,111-74,128.85-143,17.78-68.77-19.3-121.45-90.1-133.36-14.71-2.47-29.84-2.47-44.59-4.78-13.59-2.12-16.09,3.35-16,15.86.67,71.1.49,142.2.58,213.29C455.82,1492,455.8,1510,455.8,1531.14Zm5.56-344.09-6.33,2.82c3.72,6.94,6.58,19.16,11.3,19.93,21.26,3.45,42.85,2.4,60.43-13.07,14.32-12.6,20.89-28.39,15.87-47.31-4.63-17.42-15.92-28.5-34.17-31.77-8.91-1.59-17.74-3.65-26.67-5.16-22.83-3.85-23-3.8-26.57,19.12-1.43,9.15-3.62,18.61-2.57,27.59C453.76,1168.69,458.31,1177.78,461.36,1187.05Z"/><path class="cls-1" d="M889.81,1503.87c-22.74-2.52-45.66-4-68.19-7.75-67.76-11.33-102.53-57.92-125.06-117.88-16.22-43.17-16.79-87.56-11.42-132.2,1.41-11.75,9.75-22.64,14.72-34,2-4.64,6.11-10.38,4.84-14.13-5.54-16.29,3.24-28.64,11-40.13,29.21-43.35,71.61-67.33,122-77.48,61.52-12.41,117.65,4.06,165.15,42,38.14,30.47,54,75.74,60.6,123.75a319.06,319.06,0,0,1-2.54,104.77c-11.66,60.25-38.28,109-98.15,134.64C939.17,1495.54,916.11,1504.17,889.81,1503.87ZM786.69,1370.3c6.18,15.26,13.16,40.77,26.1,62.79,28.61,48.71,109.13,43.77,130.81-9.93,6.65-16.47,7.84-35.07,13.54-52,6-17.84,11.09-35,2.66-53.33-.35-.77.59-2,.64-3.09.73-17.22,3.24-34.6,1.69-51.62-2.51-27.55-7.61-54.87-11.76-82.27-6.53-43.1-51.28-73.55-93.39-63.67-29.49,6.92-57.94,40.47-63.4,75.17-2.58,16.38-6.17,32.81-6.58,49.29C786,1281,786.69,1320.5,786.69,1370.3Z"/><path class="cls-1" d="M2065.8,2075.88c-23.55,0-47.1-.05-70.65,0-13.38,0-19.15-6-18.87-19.77.28-13.35,5-20.45,19.08-19.1,12.62,1.21,17.53-5.37,17.59-17,.2-40.58.68-81.17.46-121.75-.1-18-4.87-36.27,7.73-52.57,1.74-2.26-.54-7.78-1.24-11.74-2.17-12.32-6.24-24.59-6.41-36.93-.5-35.26.69-70.54,1-105.82.1-14.06-4.62-23.45-21.37-23.32-12.36.1-19-8.9-17.3-20.2.77-5,9.26-12.56,14.3-12.6,55.55-.47,111.28-2.07,166.63,1.54,41.21,2.69,80.13,17.76,107,51.44,10.42,13.06,14.6,31.16,21.31,47.09,1.4,3.33.75,7.55,2.21,10.85,20.57,46.4,8.09,88.15-19.84,126.32-10.41,14.24-25.37,25.39-39.27,36.71-7.21,5.88-8.89,10.79-5,19,14.86,31.37,28.79,63.19,44.47,94.13,3.27,6.47,11.93,12.63,19.14,14.21,18.69,4.09,24.56,9,22.28,24.93-2.35,16.46-17.81,18.75-26.94,15.34-22.53-8.43-43.81,3.94-65.69-.23-9-1.72-18.86.67-20.49-12.12-1.51-11.79,1.27-20.67,14.44-24.74,19.62-6.07,19.65-9.72,10.82-28.34a453.93,453.93,0,0,1-22.94-59.35c-7.81-25.13-10.25-27.06-35.92-21.19-9.3,2.13-19.4,1-28.49,3.66-4.49,1.3-10.62,7.62-10.7,11.77-.46,24,1.36,48,1,71.91-.19,11.42,3.25,16.32,14.67,18,7.4,1.13,16.45,4,20.93,9.32,11.15,13.21.6,29.79-20,30.7-24.57,1.08-49.22.25-73.83.25Zm59-406.38c1.24,11.12,2.71,18,2.66,24.82q-.41,52.11-1.5,104.2c-.51,26-.52,52.1-2.39,78-1.24,17.22.6,20.8,18.33,21.12,72.42,1.34,120.26-46.53,118-118.3-.93-29.93-9.18-58.8-31.72-78.08C2199.7,1676.89,2161.32,1678.27,2124.82,1669.5Z"/><path class="cls-1" d="M1886.56,1221.68c0,12.21.22,24.44,0,36.65-.69,31.8-2.06,63.6-2.3,95.41-.23,29.81.49,59.63,1.12,89.43.23,10.72,5.46,17.49,17.16,16,12.72-1.59,19,3.2,19.9,16.34.93,13.4-3.64,19.81-17.87,19.7-34.57-.28-69.14.36-103.71.35-13.7,0-27.41-1.35-41.08-1-11.2.31-14.07-6.06-14-15,.1-8.77,1-16.56,13.4-17.67,25.67-2.29,25.2-2.9,23.58-29.67-1-16.48-.52-33-.67-49.57,0-1.59-.39-3.68.44-4.72,14.45-18.22,1.48-36.09-.15-54.21-1.52-16.94-1.55-34.07-1.23-51.09.53-28.6,2-57.18,2.79-85.78.38-14.09,0-28.2.06-42.3.06-18.8-4.56-24.67-23.14-25.52-15.59-.71-12.8-11.18-12.46-20.54.32-9,1.49-16.23,14.33-16.1,41.12.42,82.26-.47,123.39-.86,5.89,0,11.78-.17,17.67-.14,9.08,0,17.61.88,18.06,13,.39,10.41,1.56,21.06-13.37,22.51-14.54,1.41-13.86,9.47-9.27,20.32,19.36,45.74,38.12,91.72,57.49,137.45,13.83,32.67,28.26,65.1,42.49,97.6,1.87,4.28,4.19,8.36,4.67,9.31,0-45.32-.33-93.33.17-141.33.18-16.51,3.2-33,3.52-49.51.39-20.18.35-40.52-2-60.5-.52-4.54-11.06-11.12-17-11.18-12.62-.12-21.36-2-21.57-16.6-.19-13.72,7.29-21.86,22.76-19.84,22.43,2.93,43.79,9.42,66.94.15,13.38-5.36,17.83,7.18,19,19,1.23,12.57-4.31,18-16.82,16.61-15.29-1.63-20.06,7.22-19.48,20.48,1.29,29.86,3.55,59.7,4.12,89.58.4,21.22-2.07,42.48-2,63.71.26,50.72,1.59,101.44,1.78,152.15,0,11.63,2.82,16.89,15.45,15,16.21-2.46,16.52,9.44,16.88,20.54.37,12-5.31,17.91-17.58,17.23q-15.95-.87-31.9-1.28c-10.73-.27-18.31-4.68-22.14-15.13-6-16.53-11.83-33.2-18.7-49.4-18.31-43.17-37-86.18-55.83-129.16q-14.71-33.69-30.26-67c-2.4-5.16-6.28-9.64-9.47-14.43Z"/><path class="cls-1" d="M2502.56,1813.93c20.6,0,41.41,1.36,62-.42,17.47-1.51,18.31,9.1,18.92,20.67.68,12.81-4.91,20.5-19,19.57-16.55-1.09-33.14-1.67-49.64-3.25-12.58-1.21-15.09,4.24-14.88,15.84.89,48.67,1,97.37,1,146.06,0,20.64,3,26.4,23.78,27.11,26,.89,52.13-1.3,78.2-2.27,11.4-.42,14.06-7.94,13.69-17.59-.55-14.13,6.07-19,19.91-17.09,12.83,1.73,19.19,5.79,16.63,20.7-1.85,10.78.54,22.31,1.2,33.49,1.06,18.09-.45,19.19-18,19.18q-116.27,0-232.52.61c-10.1,0-20.27,1.58-30.27.76-17.21-1.41-14.71-15.9-15.59-27-1-12.49,9.23-11.06,16.9-11,11.1,0,13.55-4.55,14.36-15.63,1.89-25.8,6.52-51.39,10-77.08.28-2,.92-4.58.05-6.17-15.89-29.32-7.89-60.83-8.38-91.48-.84-52.21-1-104.44-1.33-156.67-.09-12.73-3-20.87-19-21.19-14.46-.29-14.79-13.51-13.71-24.33.86-8.65,3.31-15.48,15.9-15.14,52.87,1.43,105.77,1.53,158.66,1.93,35.83.28,71.67-.08,107.49.79,4.32.1,11.62,5.66,12.2,9.5,2.54,16.8,3.54,33.89,4.24,50.91.55,13.19-9.2,13.62-18.86,13.38-9.92-.24-17.39-2-17.8-15-.7-22.41-1.38-22-23.46-22.07-23-.06-46-1.31-69-1.36-20.21,0-24.27,4.06-27.48,23.36-2.08,12.56-4.9,25-7.32,37.49-.3,1.54-.93,3.79-.18,4.65,20,23.06,4.93,50.64,9.89,75.59A16.69,16.69,0,0,0,2502.56,1813.93Z"/><path class="cls-1" d="M2374,1372.81c0,10.19-1.05,16.54.17,22.42,9.06,43.75,36.08,66,81.69,68.87,18.28,1.17,35.74,2.22,53.29-6.25,51.75-24.95,56.19-72.53,26.55-116.19-7.91-11.65-14-24.6-22.61-35.68-3.9-5-11.65-7.34-18-10.17-5.93-2.66-13.15-3.15-18.29-6.75-13.3-9.29-25.62-20-38.59-29.74-24.54-18.49-43.19-41.61-53.22-70.68-9.63-27.93-.21-54.76,16.31-75.29,21.67-26.92,51.92-43.59,88.92-36.28,18,3.56,35.66,9.91,52.89,16.53,9.07,3.48,13.61.73,19.1-5.72,3-3.53,9.31-7.8,12.44-6.75,4,1.33,7.65,7.38,8.87,12.07,4.81,18.49,8.79,37.2,12.7,55.91,2.78,13.31-14.36,29.89-27,25.63-3.5-1.18-6-6.74-8-10.78-14.51-29.56-37.69-47.44-70.47-51.64-18.42-2.36-25.3,3.53-28.61,21.88-.38,2.1,0,4.53-.91,6.33-8.42,16.64-9.66,26.27,15,28.53,11.38,1,21.09,16.81,32.22,25,22.23,16.36,45.55,31.29,67.28,48.27,44.26,34.58,62.91,80.69,58.07,136.41-3.57,41.17-47.16,94.88-86.74,107.11-14.26,4.41-28.37,9.62-42.92,12.73-11.83,2.52-23,6.62-36.25-2.81-7.56-5.38-23.33,2.46-34.7.45-76.84-13.62-115-99.82-88.46-163.52,11-26.31,46.07-41.2,77.07-34.56,26.27,5.63,47,36.18,42.32,62-3.19,17.67-13.32,30.52-30.5,36.19-16.44,5.43-31.65,2.46-44.31-10.33C2385.62,1382.27,2381.34,1379.09,2374,1372.81Z"/><path class="cls-1" d="M1555.64,1388.51c-30.74,0-62.53-.23-94.29.29-3.9.06-10.16,3.36-11.18,6.51-5.26,16.12-9.21,32.67-13.53,49.09-2.53,9.6,1.19,14.86,11.2,14,14.8-1.26,19,6.46,17.86,19.47-1.09,12.69-8.08,17.26-20.53,16.66-17-.82-34-.8-51.06-.55-12.06.18-17.79-5.7-18.68-17.13-.83-10.56.61-19.53,14.25-20.07,9.51-.37,13.07-5.56,15-15.11,6.35-30.69,14.36-61,21.39-91.59,9.06-39.4,17.41-79,26.82-118.27,6.93-29,14.36-57.91,22.89-86.46,6.17-20.61,5.43-21.56-12.88-32.49-5.51-3.3-8.28-15.42-7.66-23.12.36-4.55,9.74-11.73,15.24-11.89,18-.53,36.09,2.13,54.16,2.55,13.2.31,26.47-.63,39.66-1.65,20.74-1.6,25.1,1.25,26.76,21.55,1,12,.18,24.15.18,38.55,15.53,3.7,14.25,19.34,17.32,34.16,13,62.65,27.48,125,41.13,187.52,5.35,24.46,9.94,49.09,14.85,73.65,2.51,12.57,5.92,23.1,21.93,25.57,4.72.73,10.21,11.65,10.81,18.31.36,4-7.62,11.8-12.68,12.59-16.3,2.56-34.13,6.76-49.21,2.57-15.26-4.25-26.9-7.22-42.52-.29-10.6,4.7-25.11,1.75-37.63.25-4-.48-10.65-7.78-10.16-11.07,1.21-8,4.48-21,9.41-22.3,17.71-4.53,15-14.45,11.58-26.77C1562.46,1419.8,1559.77,1406.3,1555.64,1388.51Zm-7-34.62c-14.75-66.14-29.06-130.32-43.73-196.08l-44.42,196.08Z"/><path class="cls-1" d="M1266.06,1404.7c20.64,6.21,17.47,22.07,15,35.9-2.69,15,.21,22.88,16.78,22.21,13-.52,16.12,8.36,16.83,18.83.81,12.08-7.71,14.22-16.85,14.25-36.94.14-73.88-.19-110.81-.1-9,0-18.06.72-27,1.55-10.21.93-18.92-.45-19.13-13.1-.18-10.76-.62-21.82,15.49-22.68,19.7-1,19.9-3.54,19.63-22.19-.69-48,0-96.07.08-144.11,0-31.93-.39-63.87-.17-95.8.15-21.32,1.3-42.62,1.58-63.93.18-12.8-2.68-21.53-19.55-17.73-10,2.27-21.49,1.51-31.66-.78-14.67-3.31-20.12,1.26-19.4,15.72.5,10,.16,19.44-13.63,20.94-17.07,1.85-22.29-2.2-22.74-19.64-.25-9.63-.7-19.27-.45-28.88.51-19.71,5-24.33,25-24.68,28.86-.51,57.79-1.49,86.56.1,8.45.47,16.45,9,26.25,14.72,4.78-16.6,18.4-15.75,32.84-15.29,40.59,1.3,81.21,2.39,121.8,2.1,15.25-.1,21.72,3.63,19.91,19.82-1,9.36,1.2,19.09,2,28.64,1.26,14.89-7.84,24.9-22.54,24.43-8.48-.28-13.82-3.54-14.31-13.4-1.23-24.8-7.66-29.21-32.67-24.61a79,79,0,0,1-19,1c-17.25-1.07-20.92,2.06-20,19.8.92,18.65,3.19,37.26,3.51,55.9.81,47.4,1,94.8,1.12,142.21,0,14.35.14,28.9-2.15,43C1276.87,1387.21,1270.91,1394.81,1266.06,1404.7Z"/><path class="cls-1" d="M2860.32,1118.41c-2.25,20.2-4.84,35.42-5.43,50.72-.63,16.77.74,33.61,1,50.42.48,37.92,3.53,76.09.15,113.68-2.07,23-1.78,45.51-.95,68.33.55,15.41-.47,30.88,0,46.3.33,11.22,8,16,18.29,16.09,14.14.15,19.06,7.53,17.67,20.55-1.49,14-12.08,13.39-21.71,12.3-16.09-1.84-32-5.42-48.11-6.84-5.75-.51-11.79,4.23-17.84,4.66-22.41,1.61-44.87,2.88-67.33,3.39-16.19.37-25.42-12.87-19.18-28,1.56-3.78,8.65-7,13.45-7.42,22.39-1.81,24.45-3.1,24.16-26.1-.83-67.76-2.29-135.51-2.88-203.26-.1-11,3.08-22,4.52-33a58.35,58.35,0,0,0,.19-10.82c-1.05-18.33-3.52-36.69-3-55,.47-15.92.08-17.5-16.22-16-13.3,1.25-26.67,2.4-40,2.38-12,0-17.17,5.15-15.29,16.61,2.5,15.24-5.27,18.16-18.38,18.09-14.21-.08-17.15-6.93-15.83-19.37,1.12-10.6.53-21.37.93-32.06.5-13.13,5.34-20.08,20.64-19.93,52.86.53,105.74-.29,158.61-.67,36.87-.27,73.74-.34,110.6-1.17,15.06-.33,21.77,5.92,21.47,20.82-.23,11.23.46,22.48.33,33.72-.16,13.41-8.68,16.6-20.39,17-12.26.36-15.84-5.23-15-16.64.95-13.11-5-19.74-19.16-19C2889.89,1119,2874.1,1118.41,2860.32,1118.41Z"/><path class="cls-1" d="M2261.79,1122.6c0,42.09.28,82.36-.07,122.63-.4,45.81,1.76,92-3.32,137.29-2.78,24.76,9.83,46.75,5.11,70.78-.4,2,9.73,8.86,14.83,8.71,11.82-.35,18.88,2.66,19.06,15.29.16,12-3.58,21.14-17.63,21.81-7.47.35-14.93,1.09-22.4,1-36.71-.23-73.42-1-110.13-.88-17.58.06-21.91-3.56-23.55-20.38-1.18-12.2,4-16.11,15.28-16.71,20.86-1.1,19.84-1.72,19.58-22.69-.53-42.64.7-85.29.61-127.94,0-21.32-1.4-42.64-2.17-64a8.06,8.06,0,0,1-.14-1.6c2.81-17.13,11.85-36.39,6.89-50.84a120.07,120.07,0,0,1-6.17-50.61c1.77-21.85.91-22.51-20.75-25.67-4.86-.71-11.42-7.33-12.57-12.3-2.17-9.39-1.2-20.18,11.38-22.72,7.76-1.57,15.95-1.46,23.94-1.41,37.65.25,75.3.8,112.95,1.12,20.34.17,23.43,2.73,23.87,19.06s-9.37,19.7-22.91,19.06C2270.39,1121.54,2267.28,1122.14,2261.79,1122.6Z"/><path class="cls-1" d="M201.81,1947.32c34.54-5.24,49.32-43.45,29.76-71.15-21.14-29.94-64.38-34.27-91.79-9.19-25.26,23.11-33.1,58.53-19.81,89.52,13.95,32.52,48.08,55,83.84,49.6,26.53-4,53.09-12.4,77.75-23.17,42.9-18.74,84.33-40.82,126.09-61.36-28.5,0-58.49-.22-88.47.28-3.62.06-7.25,5.88-10.75,5.76-6.24-.22-14.41-1.17-18-5.18-2.9-3.28-2.58-13.89.52-16.86,3.86-3.69,12.2-4.31,18.33-3.65,9.06,1,17.86,6.23,26.79,6.25q224.9.61,449.81,0c8.34,0,16.56-5.11,25-6.06,6.11-.69,15.11-.55,18.15,3.11,3.19,3.83,3.27,14.29.15,18.18s-12,4.29-18.14,3.77c-8-.68-15.78-5.54-23.66-5.58q-139-.63-278-.16c-56.13.24-101,46.54-98.63,100.66,1.45,33.48,28.95,62.17,62.14,64.85,27,2.18,48.26-17,46.08-44.92-5.12,3.75-8.94,6.67-12.88,9.43-11.44,8-24.23,6.58-33-3.65-8-9.37-7.53-24.48,1.16-33.7,13.62-14.45,36.58-12.75,49.07,3.65,22.69,29.76,5,73.47-32.8,80.92-55.72,11-104.63-43.54-90.87-102.23a124.73,124.73,0,0,1,15.54-36.57c6.87-11,16.93-20.1,26.75-31.35-50.15,12.44-94.66,34.17-138.26,58.07-31.22,17.11-63.58,30.58-99.66,33A97.12,97.12,0,0,1,108,1960.42c-15.32-35.87-5.72-77.86,23.75-103.93,23.06-20.4,55.94-24.66,84-10.87,25,12.27,39.07,35.32,36.87,62.27-1.93,23.7-13.36,41.68-36,50.78-17.46,7-41.07,1.14-53.34-12.48-9.3-10.33-11.54-22.1-3-33.61,7.06-9.52,17.3-12.46,28.56-7.34,13,5.92,18,15.9,14.09,30.06C202,1938.68,202.23,1942.38,201.81,1947.32Z"/><path class="cls-1" d="M710.26,1742.21c-3.66-16.51-7.14-29.22-8.9-42.16-.51-3.72,3.64-11.37,6.24-11.65,12-1.26,24.23-.55,37.65-.55,0,31.74.1,61.6,0,91.45-.08,17.09-1.44,34.22-.45,51.23.47,8,6,15.6,7.49,23.7.74,3.93-2.39,12.32-3.91,12.35-14,.3-30.13,9.12-40-8.56-22.18,19.16-52.24,15.22-66.6-9-16.36-27.63-15.82-57.18-5.48-86.49,10.42-29.52,35-31,60.71-26.15C699.89,1736.9,702.59,1738.77,710.26,1742.21Zm-1.88,59.55c-2.89-15.73-3.83-29.82-8.53-42.53-2.18-5.88-11.23-10.86-18.08-12.55-2.74-.67-10.23,8-11.63,13.47-7.06,27.56-6.86,55.61-.67,83.28,1.22,5.47,8.59,14.13,11.82,13.59,6-1,13.89-6.67,16-12.26C702.54,1830.58,705.05,1815.37,708.38,1801.76Z"/><path class="cls-1" d="M530.75,1742.08c13.11-3.26,25.74-9.72,37.72-8.69,25,2.15,37.4,20.72,38.36,52.24.59,19.32.38,38.67.6,58a15.18,15.18,0,0,0,1,6.11c2.18,4.61,4.8,9,7.25,13.49-5.78,1.48-11.49,3.75-17.35,4.26a160.08,160.08,0,0,1-25.63,0c-3.79-.28-9-1.81-10.63-4.52-1.29-2.17,1.74-7.06,3.11-10.64,1.26-3.3,4.1-6.47,4.1-9.71,0-27.62.13-55.26-1.14-82.84-.24-5.11-6.52-14-10-14-5.58,0-13.86,4.75-16.16,9.72A123.36,123.36,0,0,0,531.24,1792c-1.87,15.81-.94,32-.76,48,0,3.45,1.89,6.93,3.14,10.31,1.66,4.44,3.54,8.8,5.32,13.2-4.26,1.27-8.49,3.44-12.81,3.65a260,260,0,0,1-32.07-.12c-10.32-.79-12.67-6.24-6.48-15,2-2.8,4.87-6,4.89-9,.18-28.48,1.16-57.06-.78-85.43-1.46-21.21-3.24-21.52,19.54-21.81C518.64,1735.66,531,1728.71,530.75,1742.08Z"/><path class="cls-1" d="M457.58,1857l14.19-21.4c6,14.84,4.57,25.28-5.47,31.51-15.4,9.54-28.52,1.89-39.14-8.38-8.17,4-15.23,8.78-23,10.89-18.26,5-40.92-2.87-44.18-16.36-5.62-23.34-4.58-39.91,18.18-53,9.14-5.24,19.47-8.59,29.5-12.1,14.78-5.16,10.52-17.26,9.12-27-.86-6-6.56-11.26-10.09-16.86l-5.34,3.05c.76,3.86,2.9,8.08,2,11.49-1.93,7.22-3.66,16.74-8.86,20.16-4.37,2.87-15.63.65-20-3.43-4.14-3.88-5.42-13.54-4.05-19.81,1.31-6,6.58-12.7,12-15.84,17.78-10.29,36.82-9.68,55.26-1.43,12.23,5.48,15.32,16.45,15.49,29.2.32,25.58,1.39,51.14,2.27,76.71C455.54,1847.38,456.41,1850.31,457.58,1857Zm-39.25-57.82c-23.32,7.09-29.88,19.61-24.67,44.46,1.08,5.14,6,9.46,9.18,14.17,4.19-4.81,11.08-9.13,12.05-14.51C417.39,1829.37,417.28,1815,418.33,1799.14Z"/><path class="cls-1" d="M833.25,1653.18c-.3,11.71-12.18,17.07-23.64,11.44-5.84-2.87-12.57-5.51-18.9-5.52q-229.8-.45-459.61,0c-6.86,0-13.63,4.82-20.59,5.34-6.64.49-15.46.39-19.59-3.45-3.06-2.84-2.6-15.11.69-17.77,4.36-3.54,13.06-2.65,19.77-2.09,6,.51,11.76,4.62,17.63,4.63q231.42.4,462.82,0c6.26,0,12.77-3.31,18.7-6.08C821.74,1634.41,833.55,1641.18,833.25,1653.18Z"/><path class="cls-1" d="M1826.39,866.67c15.38,18.48,28.14,8.56,39.81.54,36.12-24.81,71.77-50.3,107.57-75.56,3.35-2.36,6.57-4.91,12.08-5.21-7,7.3-13.92,14.78-21.19,21.86s-14.51,14.31-22.49,20.56c-148.09,115.82-308.54,130.67-479.46,58.07-4.36-1.85-7.66-6.2-11.45-9.38,3.73-1.89,7.64-3.51,11.16-5.72,5.72-3.6,11.18-7.59,19-13,0,6.36.7,9.93-.14,13.1-2.2,8.31.55,12.53,8.73,15.55a493.65,493.65,0,0,0,150.24,30.38c7.6.33,15.61-8.92,24.84-14.59,8.9,23.66,30.43,13.78,48.39,11.05,29.52-4.5,58.65-11.58,87.85-18C1815.63,893.24,1830.61,890.06,1826.39,866.67Z"/><path class="cls-1" d="M1119.26,761.74l-29.55,17L1100.32,763l-28.42-17.35c-6.39,5.33-14.67,12.74-23.54,19.38-3.15,2.37-7.71,2.87-11.62,4.22l-.13,0c9.3-9.32,18.36-18.89,28-27.83,4-3.74,9.11-8.34,14-8.71,9.44-.72,22.44-2.07,27.68,3.15,4.7,4.68,1,17.82,1,29l12-3S1119.26,761.74,1119.26,761.74Z"/><path class="cls-1" d="M1156.12,753.68c-1.14,9.44-2.78,18.43-15.6,17.41-3.81-2-7.53-4.25-11.46-6-3.14-1.4-6.53-2.24-9.8-3.33,0,0,0,.06,0,0Z"/><path class="cls-1" d="M1036.74,769.22c-3.2,5-5.44,11.12-9.78,14.75-15,12.53-30.63,24.19-47.82,33.9l57.47-48.6Z"/><path class="cls-1" d="M993.28,846.25c2.32,3.69,5.41,7.72,5,8.12a134.51,134.51,0,0,1-17.14,14.21c-.64.44-4.55-3.9-6.95-6Z"/><path class="cls-1" d="M1044.39,823.07l-24.45,14.79-3.28-3.57c6.23-5.78,12.25-11.84,19-17,.75-.57,5.46,4,8.33,6.25C1044,823.58,1044.39,823.07,1044.39,823.07Z"/><path class="cls-1" d="M2317.29,348.16l9.38,2.9,3,6,.51-.39-13-7.23Z"/><path class="cls-1" d="M2332.62,357.05l-.33.88.72.6-2.83-1.84-.51.38A3.23,3.23,0,0,0,2332.62,357.05Z"/><path class="cls-1" d="M2230.22,100.27l8.75-3c5.31,25,1.58,31.89-21,38.56C2223.06,124.33,2215.61,108.52,2230.22,100.27Z"/><path class="cls-1" d="M2298.17,359.9l-3.43-2.89-10-14c11.9-5,23.13-5.77,32.53,5.11l-.16,1.29.24,7.38q-3.26,1.67-6.49,3.35l-4,3Z"/><path class="cls-1" d="M1287.38,877.59c1.26-3,3.26-5.81,3.61-8.86a176.3,176.3,0,0,0,.62-18.41c.08-9.53,0-19.06,0-30.89,2.72,9.33,4.73,16.22,6.73,23.1l6.26,2.76Z"/><path class="cls-1" d="M1889.71,56.93l-3.83,1-2.43-3.84.58.56-4.14-6c.15-.54.3-1.08.46-1.62Z"/><path class="cls-1" d="M2269.2,333.16l-12.84-6.1c-.18-.74-.35-1.47-.52-2.2l.24-.13,3.63.11-.62-.51,7.07,5.94.74.57Z"/><path class="cls-1" d="M2325.15,369.48l.45.25-5.38-3.13.12-6.75q3.45,4.95,6.89,9.89l-1-.28Z"/><path class="cls-1" d="M2255.83,321.1l5.6-3.17,4.71,3.72-.52-.52c.38,1.26.77,2.51,1.15,3.77l-.75.29.3.76-7.23-1.62.62.51-3.65-3.63Z"/><path class="cls-1" d="M1180.1,478.52l1.59,2.18-1.84.66c.05-.93.11-1.86.17-2.79Z"/><path class="cls-1" d="M1197.54,478.6l1.08,7-2.61-7Z"/><path class="cls-1" d="M2288.9,77.32l3-3.77-3.55,3.24Z"/><polygon class="cls-1" points="1212.55 478.27 1212.86 478.81 1213.08 478.26 1212.55 478.27"/><path class="cls-1" d="M2249.71,199.66l3.53-.58-1.41,3.2Z"/><path class="cls-1" d="M2255.84,324.86c0-1.26,0-2.51,0-3.76l.24.11,0,3.52Z"/><path class="cls-1" d="M2227.18,224.78l.09,3.46Z"/><path class="cls-1" d="M2291.35,74.13l3.37-3.19Z"/><path class="cls-1" d="M1696.72,778.5l-154.5,15.84-.51-4.8,154.64-16.14C1696.47,775.1,1696.6,776.8,1696.72,778.5Z"/><path class="cls-1" d="M1772.93,807.1c-20.41,5.86-40.65,13.82-62,9.6-.19-1.81-.37-3.61-.55-5.41Z"/><path class="cls-1" d="M1706.55,221.57h-206.4v-3.49h207Z"/><path class="cls-1" d="M1879.89,48.64l4.14,6Z"/><path class="cls-1" d="M1883.45,54.11l2.43,3.84Z"/><path class="cls-1" d="M1198.32,485.1l6.87.49-.55-.57,3.77,3.77-.59-.55-10.09,6.92-2.15-3.12c-.31-.46-.61-.92-.91-1.39Q1196.49,487.88,1198.32,485.1Z"/><path class="cls-1" d="M1157.18,545.55l-3.61-2.51-6.77-6.41c8,.67,16.86.3,14.22,12.77l-4.22-3.94Z"/><path class="cls-1" d="M1185.58,494.65l9.09-4c.3.47.6.93.91,1.39l.84,3.22-.85.19.1.87-1.06.83,1-.18-10.35,1.24C1185.37,497,1185.48,495.84,1185.58,494.65Z"/><path class="cls-1" d="M1207.9,485.56l3.9,3.07-4-.39.59.55c0-1.23-.05-2.47-.07-3.7Z"/><path class="cls-1" d="M1259.89,527c.27-.73.54-1.47.8-2.2l2,2.26-1.38-.2Z"/><path class="cls-1" d="M2188.65,202.44l-3.48,9.57q-5.09-3.67-10.16-7.38l.31-.61-.17,1q.55-4,1.1-7.92l6.07-4.53,6.36,6.85.23-.44c0,1.23,0,2.47-.08,3.7Z"/><path class="cls-1" d="M2188.86,176.43l-6.68,3.9,0-7,3.77-2.74-.11.17,2.67-3.8.11-.4c.89-.92,1.78-1.85,2.66-2.78,1.23,2.18,2.46,4.35,3.68,6.53l.52-.33-3.83,3.81.58-.59-3.81,3.76Z"/><path class="cls-1" d="M2178.91,170.21l3.42.08.12,3.4-3.34-.16C2179,172.42,2179,171.31,2178.91,170.21Z"/><path class="cls-1" d="M2252.78,199.48l-3.23-6.51,9.86,3.08c.3,2.39.61,4.77,1.12,8.75Z"/><path class="cls-1" d="M2198.18,177.05q.14,4.8.26,9.6l-3.57,3.22.53-.48-3.69.39.4-6.87-.52.5,3.82-3.78-.57.59,3.78-3.77Z"/><path class="cls-1" d="M2188.55,183.3q.15-3.44.32-6.87l-.48.58,3.81-3.76-.58.59,3.83-3.81-.52.33q1.64,3.34,3.25,6.69l.44-.6-3.78,3.77.57-.59-3.82,3.78.52-.5Z"/><path class="cls-1" d="M2198,195.2l-6.16,4,.25.28c-.13-2.27-.25-4.53-.38-6.79l3.7-3.27-.53.48,3.79-1.9C2198.44,190.38,2198.21,192.79,2198,195.2Z"/><path class="cls-1" d="M1186,495.18l-3.82-.14Z"/><path class="cls-1" d="M1205.19,485.59c-.18-1.25-.35-2.51-.53-3.77l3.24,3.74.44-.47-3.7-.07Z"/><path class="cls-1" d="M2191.83,199.17l-3.18,3.27.18.29c0-1.23.06-2.47.08-3.7l-.23.44,3.4,0Z"/><path class="cls-1" d="M2313.81,362.88l3.78,3.77Z"/><path class="cls-1" d="M2310.58,359.71l3.79,3.73Z"/><path class="cls-1" d="M2320.65,360.16l-3.55-3.59Z"/><path class="cls-1" d="M2185.62,186.17l-3.57,7Z"/><path class="cls-1" d="M2189,182.87l-3.71,3.71Z"/><path class="cls-1" d="M2192.2,173.25l-3.81,3.76Z"/><path class="cls-1" d="M2195.45,170l-3.83,3.81Z"/><path class="cls-1" d="M2191.59,183.41l3.82-3.78Z"/><path class="cls-1" d="M2194.84,180.22l3.78-3.77Z"/><path class="cls-1" d="M2192.14,189.31l-.06,3.75Z"/></svg>