<svg id="Layer_1" data-name="Layer 1" xmlns="http://www.w3.org/2000/svg" viewBox="0 0 4874.02 2419.88"><defs><style>.cls-1{fill:#060606;}.cls-2{fill:#040404;}.cls-3{fill:#0b0b0b;}.cls-4{fill:#77af42;}</style></defs><path class="cls-1" d="M209.57,1757.39c10.59,10.06,10.66,20.11,0,30.17Z"/><path class="cls-2" d="M4038.13,1567.82c0,113.55-.9,222.06.4,330.55.59,49.7,14.94,65.09,69.83,78.67,17.8,4.4,12.68,13.74,13.72,22.81,1.51,13.27-9.79,10.86-18.54,10.88q-82.34.18-164.69,0c-8.7,0-19.86,2.28-19-10.87.62-9.56-3.6-20.6,14.25-22.63,49.71-5.65,60.29-37.83,60.81-72.56,1.55-102.48.71-205,1-307.49.09-29.31-20.62-37.91-50-38.16-14.09-.11-27.63,2.23-26.69-17.5.92-19,15.26-14.19,26.7-14.24,67.75-.31,135.52.64,203.23-.6,22.08-.41,32.39,4.73,39.56,23.74,30.2,80,62.76,159.31,94.52,238.86,2.2,5.51,4.93,10.86,10.39,22.78,9.56-22.82,17-39.74,23.75-56.86,26.9-68.3,54.11-136.52,80-205.11,6.23-16.53,14.18-24,36.25-23.49,66.53,1.46,133.14.2,199.71.87,10.36.11,26.56-7.42,28.54,12.12,1.72,17-7.33,18.75-23.78,20.52-42.4,4.57-51.49,14-51.63,51q-.57,158.28,0,316.55c.16,36.92,10,46.23,52.06,50.14,13.93,1.29,23.64,1,23.63,17.69,0,18.55-13,15.24-25.25,15.26q-124.4.1-248.79,0c-12.78,0-25.25,2.37-25.12-15.68.13-17,11.18-16,24.66-17.14,52.16-4.26,56.82-8.77,56.89-53.78q.23-164.3-.2-328.61c0-8.16,4.69-17.79-6.05-25.57-12.81,4.89-12.4,15.8-15.79,24.6q-75.85,196.77-151.31,393.65c-4.92,12.91-7.45,23.17-28.71,23.32-20.8.15-24.53-9.44-29.6-22.32q-76.72-194.9-154.37-389.54C4054.65,1590.09,4054.29,1578.35,4038.13,1567.82Z"/><path class="cls-1" d="M1281,2010.82c-39.7,0-79.41.25-119.11-.15-11.33-.12-26,5-26.18-14.26-.12-15.62,7.7-17.3,22.75-18.69,54.25-5,55.06-6.38,55.19-54,.11-42.19-.62-84.4.35-126.58.36-15.67-5.52-20.94-24-20.65-54.86.88-109.79,1.15-164.63-.1-21.56-.49-24.93,7.25-24.58,23.11,1,43.19.18,86.4.38,129.6.19,41.07,3.5,43.86,50.75,48.91,11,1.18,27.44-4.43,26.75,14.69-.41,11.22-.36,18.6-17.85,18.47-85.24-.67-170.49-.36-255.73-.23-11.41,0-20.28-.2-19.67-13.89.51-11.5,2-17.25,18.37-19,48.71-5.31,54-11.4,54.13-53.6q.35-152.2,0-304.42c-.11-48.41-1.94-51.06-57.8-60.38-16-2.68-13.6-10.07-14.46-18.93-1.09-11.22,5.71-13.62,16.77-13.61,86.41.12,172.83.26,259.24-.12,14.67-.07,16.85,5.71,17,16.55.19,11.7-4.54,14.66-17.92,16-58.86,5.68-59.49,6.81-59.64,57-.12,36.16.78,72.35-.4,108.49-.52,15.9,5.47,20.65,23.86,20.33,54.86-1,109.79-1.18,164.63.08,21.21.48,25.22-6.58,24.76-22.75-1.12-39.16.07-78.36-.56-117.54-.57-36-8.31-42.85-51.69-45.58-14.73-.92-27.13.5-26-18.45,1.14-19.32,16.17-13.67,27.25-13.72q119.12-.58,238.22.09c10.52.08,26.35-6.91,28.15,12.64,1.64,17.81-8.39,19.34-24.53,19.71-32.85.74-47.66,16.23-47.57,44.46q.55,165.77-.09,331.54c-.12,27.35,14.91,41,45.92,42.41,14.08.62,27.16-1.22,26.44,18.16-.82,22-18.1,14-29.44,14.21C1360.39,2011.33,1320.67,2010.82,1281,2010.82Z"/><path class="cls-1" d="M2754.87,1527.07c40.87,0,81.74.1,122.61,0,13.26,0,25.05-1.43,24.55,16.23-.41,14.61-8.23,15.17-21.43,16.12-52.26,3.79-56.13,7.84-56.36,53.81-.19,37.17.7,74.36-.4,111.51-.46,15.57,4.85,20.9,23.58,20.56,54.86-1,109.79-1.15,164.63,0,20.81.46,25.54-6,25-22.51-1.19-39.15,0-78.36-.57-117.54-.56-36.18-8.29-43-51.44-45.82-14.4-.94-27.34,1-26.3-18.21s15.76-13.92,27-14c79.41-.34,158.82-.44,238.22.14,10.46.08,26.48-7.1,28.36,12.4,1.67,17.36-7.59,19.67-24.22,20-32.73.55-47.9,15.87-47.81,44.21q.54,165.78-.15,331.55c-.14,29.36,17.11,42.36,49.2,42.66,14.87.14,23.2,1.75,23.21,17.89,0,19.08-14.06,14.63-25.68,14.66q-120.86.32-241.72-.06c-11.15-.05-25.76,5.31-26.48-14-.7-18.62,11.37-17.67,26-19,49.23-4.37,51.72-7.09,51.91-50.77.19-43.2-.56-86.41.36-129.6.33-15.39-4.92-21.19-23.69-20.88-54.87.92-109.79,1.15-164.64-.09-21.25-.47-25.23,6.72-24.86,22.89,1,44.19.12,88.41.43,132.61.26,38,4.23,41.42,50.49,45.91,13.2,1.28,28.89-2.29,27.17,17.72-1,11.37-3.83,15.64-17.77,15.56-86.42-.44-172.83-.32-259.25-.11-11.52,0-17.28-2.88-16.18-13.7.9-8.8-1.58-16.4,14.33-19.13,58.1-10,58-10.73,58-62.54q.06-147.69-.06-295.38c-.1-48.74-2.09-51.58-57.54-60.59-15.84-2.58-13.9-9.67-14.75-18.71-1.31-13.91,8.87-13.85,20-13.83Q2691.81,1527.18,2754.87,1527.07Z"/><path class="cls-2" d="M1915.14,2010.79c-44.35,0-88.71-.2-133.06.12-13.64.1-24.57,1.13-23.83-16.31.59-14.07,7-15.35,20.8-16.42,67.48-5.23,76.54-17.56,56.21-73-23.16-63.09-23.16-63.09-98.42-63.09-19.85,0-39.8-1.1-59.51.29-21.38,1.52-51-10.12-62.51,7-18.26,27.23-30.35,59.38-27.37,91.82,2.16,23.47,26.21,31.77,50.69,34.22,18,1.8,27.51,7,24.82,24.29-2.94,18.89-19.27,10.44-29.39,10.6-52.51.88-105,.55-157.57.27-8.15-.05-20.56,3.8-20.06-9.55.34-9.23-5.23-21,11.51-24.84,38.16-8.83,54.93-36.08,69.7-63.24,42.5-78.15,68.31-161.66,102.6-242.46q25.73-60.61,48.84-122c5.69-15.14,12.72-23.21,33.71-21.89,34.81,2.2,76.69-8.63,102.92,4.61,26.54,13.39,27.54,52.75,39.35,80.82,42.35,100.69,83.69,201.7,126,302.41,12.38,29.49,25.16,59.43,69.8,63.2,15.64,1.32,11.59,12.22,12.56,20.81,1.39,12.29-7.8,12.34-17.69,12.33Q1985.18,2010.74,1915.14,2010.79Zm-201.21-399.4-8.35.3q-35.7,90.63-71.35,181.28c-4.16,10.59-1.81,17.38,13.68,17.27,43.12-.29,86.24-.07,129.35-.15,10.45,0,19.19-1.33,14-13.7Q1752.45,1703.93,1713.93,1611.39Z"/><path class="cls-2" d="M3736.84,2010.79c-44.35,0-88.71-.06-133.06,0-11.8,0-22.41,1.74-22.42-14.4,0-15.07,6.41-17.26,22.15-18.36,65.2-4.53,74.79-17.62,55.39-71.09-23.54-64.85-23.54-64.86-103.87-64.85q-47.27,0-94.54,0c-9.27,0-20.85-1.41-24.66,7.55-12.36,29.11-27.66,58.48-25.72,89.78,1.55,25.07,26.69,33.51,52.47,36.25,16.28,1.73,24.73,5.88,23.78,22.2-1.15,19.89-17.26,12.4-27.58,12.53-53.68.67-107.39.44-161.08.15-7.09,0-18.49,3.54-18.44-7.71,0-9.1-6.67-21.89,9.34-25.84,43.57-10.77,60.27-42.44,76.84-73.2,31.37-58.22,51.11-120.23,76.21-180.5,23.93-57.46,47.77-115,69.15-173.18,7-19.1,17.4-24.83,39.45-23.46,33.55,2.08,75.71-8.54,98.61,5.32s27,51,38.35,78.21c41.73,99.81,82.94,199.79,124.62,299.62,13.09,31.37,25,63.76,72.91,68.17,15.74,1.45,10.28,13.33,11.05,21.62,1.21,12.92-10,11-18.88,11C3830.22,2010.86,3783.53,2010.79,3736.84,2010.79Zm-200-399.73-8.07.1q-36.26,92.77-72.38,185.6c-3.36,8.68,1.37,13.3,12.11,13.3q66.42,0,132.84,0c11.5,0,17.58-2.91,12.67-14.52C3588,1734.16,3562.52,1672.58,3536.84,1611.06Z"/><path class="cls-2" d="M2314,1527.11c72.41,0,144.83.77,217.21-.45,23.27-.39,33,3.81,32.63,25.84-.9,48.19,1.45,96.43,2.2,144.65.15,9.28,4.54,20.62-15.17,20.55-16.17-.06-25.88-1.83-27-18.94-2.46-37.64-14.74-73.07-41.27-103.82-18.05-20.91-40.65-35.38-72.53-37.19-18.07-1-25.55,4.6-25.5,20.3.37,116.55-.53,233.11.9,349.66.44,36.18,23.67,48.55,82.32,51,12,.5,29.4-6.46,28.26,15.23-.67,12.7-3.81,17.2-19.48,17.12-108.61-.55-217.23-.38-325.84-.17-12.31,0-19.24-1.81-19.1-14.66.15-12.57,3.88-18.42,19.66-17.89a218.2,218.2,0,0,0,38.29-2.51c38.5-5.53,53-19.19,53.19-52.4.49-113.54-.44-227.09.77-340.62.25-23.38-11.26-27.78-33.84-24.41-35.23,5.27-57.27,25.14-74.65,50-19.64,28.1-28.85,59.24-31.44,91.42-1.23,15.28-8.44,17.37-23.7,18-20.05.81-19.28-8.86-18.84-20.7,1.86-50.21,4.12-100.43,4.48-150.65.12-16.16,6.55-19.88,24.22-19.7C2164.46,1527.55,2239.21,1527.11,2314,1527.11Z"/><path d="M702.87,1512.37c9,62.39,16.88,117,24.8,171.79-25.93,8.46-37.37,1.2-47-18.41-22-44.74-56.61-81.06-108.34-102.87-78.18-33-157-6.81-182.78,64.62-31.24,86.53-32.45,175.72-3.12,262.37,32.54,96.12,164.5,124.76,258.24,58.36,24-17,42.8-39.48,66.81-62.1L737,1897.52c-41.8,83.85-151.46,135.18-266.14,126.46-161-12.25-269.63-123-259.75-265,10.38-149,125.33-246.14,290.59-240.59,36.8,1.24,74,15.53,109,27.87,35.44,12.47,41,11.93,59.38-17.43C674.49,1521.76,688.57,1519.22,702.87,1512.37Z"/><path class="cls-3" d="M2502.26,1005.52c-30.22,32.88-58.86,65.46-89,96.58q-130.78,134.91-275.66,16.09c-20.32-16.67-42.73-34.15-55.25-56.28-31.13-55-57.25-41.91-85.64.33-2.07,3.09-5.16,5.5-7.74,8.25-132,140.43-244.56,137.33-366.16-14.14-104.37-130-158.26-278.75-141.18-446.57,23-226.08,204.14-291.31,370-276.4,24.34,2.18,51.81,1.2,89.73,25.58-48.06,2.77-80.27,4.83-112.51,6.45-187.52,9.43-282.46,117.53-264.24,303.85C1576.2,788,1623.81,891,1711.48,973.09c93.78,87.8,191.47,79,274.88-17.89,19.1-22.17,4.65-34.5-1.49-49.64-38.82-95.73-61.39-193.77-49.46-297.88,25.42-221.69,204.14-290.61,372.32-273.93,24,2.38,51.35,1.22,71.83,26.87-32.74,1.63-65.49,3.15-98.22,4.91C2094.07,375.65,2000,484,2018.83,670.8c12,118.63,59.85,221.64,147.93,303.34,97.32,90.27,211.15,75.55,286.7-32.32,14.38-20.53.48-32-4.61-45.81-41.84-113.7-63-229.21-31.37-349.06C2434.1,483.9,2464.4,429.28,2532,388.46c-86.06,185.73-46.63,350.85,46.94,509.66a333.15,333.15,0,0,0,95.26,103.52c66.2,46.8,132,44.49,189.35-11.71,23.11-22.66,33.29-28.19,60.32-2.92,70.11,65.52,145.48,59.64,220.79-10.44,146.23-136.08,197.34-393.69,112-600.11,55.47,32.69,84.91,73.39,103.85,122.24,35.39,91.23,32.16,184.83,12.29,278.53-26.38,124.39-78.76,236-171.86,324.91-92,87.85-183.76,90.44-282.18,10.19-15.73-12.83-24.81-24.11-44.93-3.19-101.69,105.71-212.8,67.32-292.62-12.87C2553.57,1068.49,2529.54,1037.11,2502.26,1005.52Z"/><path class="cls-4" d="M2509.8,0c115-1.64,208.48,42.57,280.66,130.91,11.55,14.14,18.82,32.81,24.4,50.54,19,60.43,5.57,80.06-57.37,83-153.6,7.3-258.71-71.72-336.45-194.16-31-48.79-24.86-57.1,32.33-65.61C2472,2,2491,1.55,2509.8,0Z"/><path class="cls-3" d="M2986.89,53.61c-71.88,49.44-97.4,116.59-108.1,198.59-19.5-51.77-20.18-97-10-143.5C2889.27,15.19,2888.78,15.08,2986.89,53.61Z"/><path class="cls-3" d="M2930.24,567.22c15,22.34,31.39,43.9,44.39,67.34,7.57,13.64,6.5,30.39-11.25,37.58-17.18,7-28.33-3.75-35.08-18.16C2915.93,627.62,2921,599.35,2930.24,567.22Z"/><path class="cls-3" d="M2872.21,571.54c-1.46,24.9-.22,50.37-5.28,74.52-3.77,18-16.4,36.14-39.73,24.76-19.25-9.39-16.57-27.48-7.09-42.87,12.42-20.19,26.78-39.19,40.3-58.71Z"/><path d="M460.45,2196.06c3.42,27.16,6.4,50.92,9.41,74.78-9.84,3.68-14.17.52-17.82-8-8.33-19.48-21.46-35.29-41.08-44.78-29.64-14.35-59.52-3-69.3,28.13a193.67,193.67,0,0,0-1.18,114.2c12.33,41.84,62.37,54.31,97.91,25.41,9.1-7.4,16.23-17.19,25.33-27l9.65,4.95c-15.84,36.5-57.42,58.84-100.9,55.05-61.06-5.33-102.23-53.56-98.49-115.36,3.94-64.85,47.52-107.14,110.18-104.72,13.95.54,28,6.76,41.34,12.13S441,2216,448,2203.22C449.69,2200.15,455,2199,460.45,2196.06Z"/><path d="M2668.65,2199.71v11.51c-28.13,4.6-29.8,6.92-21.62,29.73q15.81,44.13,31.73,88.23c1.31,3.64,3.14,7.14,6.27,14.18,3.29-7.34,5.35-11.54,7.06-15.84,9.91-25,20.34-49.85,29.4-75.05,7.73-21.51-3.38-36-30.61-41-.21-3.5-.44-7.25-.72-11.85h120.61v12.07c-5.57.84-11.79.39-15.55,2.69-4.7,2.87-11.32,8.86-10.31,12,12,38,25.34,75.68,39.33,116.43,3.16-4.49,4.78-6,5.43-7.82,10.56-28.95,21.75-57.76,31.21-86.95,7.54-23.27,1-30.69-28.48-36.2-.25-3.61-.51-7.43-.83-12.17h81.81c1.83,6.87.77,10.36-7.63,15.4-9.3,5.59-15.88,16.15-19.81,25.64-17.71,42.7-34.07,85.79-50.9,128.74-3.26,8.34-6.46,16.69-9.7,25-8.3,21.44-8.3,21.44-37.82,19.81l-53.35-147c-3.6,8-5.74,12.34-7.48,16.77-15.7,40-31.78,80-46.65,120.2-3.4,9.2-8.81,10.9-19.2,11.05-10.81.16-15.73-2.4-19-11.28-20-54.52-40.89-108.84-61.44-163.23-4.68-12.38-9.84-24-27.36-28.45-3.15-.8-4.2-7.32-7-12.73Z"/><path d="M4272.42,2412.58H4162.78c-.21-4.1-.41-7.79-.63-12.08,3.59-.79,6.48-1.54,9.41-2.05,14.18-2.47,16.76-7.45,8.48-19.34-11.58-16.61-24-32.63-36.1-48.89-4.67-6.27-9.37-12.52-14-18.69-17.6,11.6-28.2,25.31-24.16,46.41.57,3,.08,6.13.08,9.21,0,28.37,0,28.37,28.67,33,.19,3.66.4,7.48.65,12.13H4026.53v-12.26c24.58-3.7,25.66-4.94,25.67-29.25q0-63.26,0-126.51c0-24.16-1.7-26.11-25.84-29.61v-12.1h105v11.55c-25.48,5-25.48,5-25.48,31.66q0,31.41,0,62.82l3.64,2.34c21.94-23.58,45-46.28,65.35-71.11,10.18-12.41,1.88-21.85-20.47-24.84v-12.52h104v12.76c-40.34,0-61.51,29.93-86.43,53.68-2.19,2.08-2.44,9.4-.49,12q39.4,53,79.93,105.21c3.38,4.38,8.2,9,13.25,10.47C4274.05,2399.32,4275.26,2404.26,4272.42,2412.58Z"/><path d="M1941.2,2212.7v-11.6c1.55-.48,3.16-1.39,4.76-1.39,43,0,85.94-.56,128.86.69,12.86.38,26.43,4.08,38.18,9.47,27.3,12.55,31.62,44.78,9.87,65.59-13.41,12.81-30.36,17.33-48.24,19.52-6.18.76-12.31,1.95-18.29,6,3.19.64,6.36,1.48,9.58,1.9,28.62,3.74,43.31,17.22,48.94,45.49,1.46,7.3,1.32,15,3.34,22.07,1.09,3.83,5.2,6.83,7.94,10.21,3.45-2.95,8.75-5.3,10-9,2.7-8.2,3.36-17.06,5-26.44l12.67-.63c.51,17.92-.61,34.71-9.38,50.08-9.37,16.39-24.44,22.14-42.66,20.71-18.42-1.44-31.21-11.13-35-28.94-3.43-16.18-4.49-32.89-5.86-49.43-1.78-21.46-9.08-30.24-27.25-32.68-9-1.2-13,.69-12.65,10.7.67,19.3.17,38.63.2,58,0,19.91,1.54,21.53,21.38,23.66,2.19.24,4.38.52,7.27.87.23,3.93.46,7.76.74,12.49H1941.3v-11.56c26.13-5.55,26.17-5.59,26.17-32.09q0-62.55,0-125.12C1967.43,2218.39,1965,2215.64,1941.2,2212.7Zm80,41.32h0c0,9.17-.45,18.38.26,27.5.23,3,3.32,8,5.38,8.18,15.52,1,32.12,1.7,42.39-12.27,10.61-14.44,10.5-31.28,2.85-47.27-7.32-15.33-21.5-17.73-36.91-17.24-9.25.29-13.92,4.37-13.92,13.57Z"/><path d="M3700.42,2300.9c3.21.63,6.39,1.43,9.63,1.85,28.53,3.72,43.22,17.27,48.87,45.59,1.36,6.86,1.09,14.13,3.11,20.76,1.29,4.23,5.4,7.62,8.24,11.39,3.61-3.37,9.05-6.14,10.43-10.25,2.6-7.74,2.86-16.25,4.19-25.07h12.92c.56,16.86-.68,33.23-8.78,48.34-8.61,16.06-24.52,23.71-43.39,21.83-18.4-1.84-31.16-11.31-34.9-29.12-3.39-16.18-4.45-32.9-5.83-49.43-1.79-21.42-9.14-30.16-27.35-32.6-9.14-1.22-12.86,1-12.54,10.83.65,19.74.14,39.51.21,59.26.06,18.07,2,20.11,20.15,22.14l8.53,1c.21,4,.41,7.83.65,12.53H3585.35v-11.7c26-5.25,26.15-5.49,26.15-32.1q0-62.57,0-125.12c0-22.67-2.56-25.47-26-28.5-.28-3.58-.58-7.35-.9-11.47,2.23-.64,3.86-1.51,5.49-1.51,43,0,85.93-.48,128.85.68,12.47.34,25.6,3.77,37,8.86,28.72,12.76,33.14,46,9.85,67.18-13.33,12.14-29.87,16.48-47.29,18.56-6.05.72-12.07,1.71-18.1,2.57Zm-22-10.81c30.93-1.05,43.17-13.35,42.41-41.15-.66-24.19-15.13-36.87-40.23-36.31-11.45.26-15.69,5.41-15.47,16.21.31,15.72.78,31.5-.17,47.17C3664.27,2287.8,3668.32,2292.34,3678.44,2290.09Z"/><path d="M1040.28,2215.16v-10.69c1.23-.78,2-1.64,2.67-1.63,48.64.7,97.72-2.25,145.82,3.22,56.19,6.38,89.58,49.08,88.55,102.52-1,53.09-37.82,97.18-92.37,101.92-47.38,4.11-95.42.85-144.19.85v-10.91c3.57-.38,6.59-.79,9.64-1,11.74-.84,17.45-6.87,17.42-18.73-.12-47.86.08-95.73-.13-143.6C1067.61,2221,1064.25,2218.55,1040.28,2215.16Zm81.34,90.68h.05c0,24.56-.18,49.13.11,73.69.09,7.81.38,15.75,10.18,19.31,36.3,13.17,76.22-8,81.73-45.56,3.28-22.39,3.49-45.45,2.81-68.14-1.62-54.79-22.36-72.58-77.58-69.37-12,.69-17.66,5.29-17.43,17.69C1121.94,2257.58,1121.62,2281.71,1121.62,2305.84Z"/><path d="M3236.39,2197.05c70.84.11,121.88,46.19,122,110.15.12,64.4-51.68,111.09-122.95,110.81-70.84-.27-121.76-46.32-122-110.31C3113.24,2243.15,3164.58,2196.93,3236.39,2197.05Zm55.78,110.32c-3.15-21.23-4.49-42.8-9.92-63.57-5.83-22.34-23-32.68-46.54-32.58-23.42.1-40.69,10.74-46.56,32.84a244.31,244.31,0,0,0-.08,126.44c5.91,22.52,22.31,32.64,46.25,32.78,25,.15,41.13-9.65,47.23-33.16C3287.83,2349.76,3289.07,2328.62,3292.17,2307.37Z"/><path d="M1708.22,2342.73v69.84H1508.05c-.21-3.78-.41-7.49-.66-12,4.17-.52,7.52-1.17,10.9-1.32,12.49-.57,18.33-7,18.31-19.33-.09-47.44.17-94.88-.17-142.32-.13-17.45-3.51-19.74-27.77-22.45a31,31,0,0,1-1.29-5.65c-.1-2.07.44-4.16.76-6.81h194.34v62.77l-11.4.65c-13.31-42.67-45.49-60.62-88.23-49.25-4.53,1.2-11,6.73-11.22,10.5-1,22.67-.52,45.42-.52,67.85,29.12,5.69,42.43-4.53,46.47-35.78l13.09-1v90.92l-9.33.74c-5.64-11.64-8.36-24.57-16.36-31.64-7.47-6.6-20.54-7-33.62-10.82,0,29.73-.62,55.49.67,81.16.19,3.87,9.16,10.24,14.23,10.4,15.82.48,32.12.43,47.47-2.89,23-5,33.12-23.52,38.3-44.54C1694.29,2342.51,1698.1,2338.67,1708.22,2342.73Z"/><path d="M4646.08,2262c-9.15,3.16-13.66-.28-18-9-16.23-32.51-51.51-49.14-83.74-41-12.11,3.07-21.12,9.23-23.22,22.21s5.43,21.21,16,26.08c14.78,6.81,30.34,12,45.39,18.22,17.49,7.27,35.76,13.37,51.94,22.89,25.23,14.84,34.14,38.19,28.35,65.37-5.55,26-25.15,43.87-52.87,48.85-27.53,5-53.76.59-79.13-10.19-11.24-4.78-21.06-7.71-26.27,8-.9,2.71-7.08,3.69-12.81,6.41-1.42-27.07-2.68-51-3.92-74.52,10.65-4.43,15.08-.29,19.4,8.15,18.44,36,57.52,56.35,92.79,49.16,15.82-3.23,26.44-12.18,28.52-24s-4.34-23.16-20.4-30.53c-15.6-7.16-32.17-12.21-48.22-18.41-11.53-4.45-23.33-8.46-34.27-14.08-30.1-15.45-42.68-40.65-36.12-70.29,6.38-28.78,29.72-48,63.07-47.91,18.68.08,37.39,5.13,56,8.54,8.9,1.64,17.12,4.69,23-6,1.44-2.6,7.25-2.83,12.81-4.76.65,12.67,1.41,23.43,1.68,34.2S4646.08,2251.13,4646.08,2262Z"/><path d="M710.06,2412.53v-11.81c2.33-.51,4.34-1.12,6.4-1.38,16.81-2.11,20.39-5.8,20.44-22.73q.2-67.16,0-134.32c0-21.21-1.8-22.93-26.65-27.84a54.76,54.76,0,0,1-.61-6.19,35.47,35.47,0,0,1,.92-5.56H816.92c.19,4,.39,8,.58,11.86-26.24,4.51-26.74,5.1-26.74,31.78q0,61.89,0,123.78c0,25.94.54,26.57,26.26,30.21.21,3.68.43,7.51.7,12.2Z"/></svg>