<svg id="Layer_1" data-name="Layer 1" xmlns="http://www.w3.org/2000/svg" viewBox="0 0 2409.46 2416.64"><defs><style>.cls-1{fill:#fff;}</style></defs><path class="cls-1" d="M1125.9,1980.5c-3.31-22.75-7.22-45.43-9.84-68.25-9.93-86.26-23-172.41-11.59-259.62.89-6.76,1.88-13.67,4.08-20.08,7.76-22.69,13.65-21.7,32.71-7.22,19.47,14.79,42,30.11,65.14,34.35,29.16,5.35,60.8,2.63,90.54-2,36.23-5.6,39.84-23.24,12.58-54.33-5,4-10.19,8-15.28,12.13-4.51,3.66-8.94,7.42-15.76,10,4.27-26.13,49.07-41.17,17.45-82.35-4.22,7.62-6.12,14-10.26,18-24.24,23.86-62,17.16-76.07-13.52-7.36-16.1-7.6-31.34,10.58-41.24,3.88-2.11,8.13-3.53,10.34-7.13-23.93-5.65-39,3.12-43.83,24.66-3.88,17.16-4,35.16-10.19,53.24-2-7.31-4-14.61-6.47-23.56-31.56,8-63.48,14.23-94.16,24.25-71.13,23.21-132.1,3.65-186.87-42.07-32.88-27.45-63.2-57.74-78.73-99.11-7-18.66-19.26-14.82-33.25-10.52-16.11,5-11.25,15.55-7.67,25.47,19.52,54.1,43,106.14,86,146.26s96.06,53.29,153.47,54.53c61.77,1.34,59.61,2,62.61,63.12,3.13,63.84,11,127.45,16.68,191.17,1.75,19.73,3.79,39.49,3.92,59.25,0,5.53-6.31,11.09-9.73,16.63-6.32-4.52-17.15-8.12-18.3-13.7-17.73-86.52-38-172.9-33.7-262.13,1-21.92-3.5-31-27.93-30.86-127.69.71-201.08-72.35-244.58-184.17-6.89-17.72-13.12-35.75-18.43-54-3.59-12.37-9.82-17.11-23-15.9a510.76,510.76,0,0,1-57.09,2.05c-33-.68-36.55-8.25-33.31-40.87,8.48-85.55,14.82-171.32,21.88-257,.24-2.84-.89-5.79-1.32-8.3-26-5.57-51.56-9.37-76.08-16.71-41.58-12.45-69.18-43.51-75.84-83.79-5.06-30.64,5.54-63.92,9.62-96,.64-5,3.67-9.69,6.54-16.89l-34.4-14.18,2.24-6.55c8.12,2.71,16.08,6.3,24.42,7.87,6.78,1.27,15.7,2.76,20.71-.45,12.59-8.09,23.51-18.78,37.32-30.28-28.31-57.12-29.94-114.23,19.32-163.9C604,673,633.22,659.75,669.23,661.47V683l5,2.31c3.16-6.12,9.41-12.51,8.9-18.3-1.39-15.83-4.93-31.6-9-47-2.48-9.36-7.55-18-12.81-30.13,5.45-2.3,12.15-7.72,16.25-6.19,4.92,1.83,10.21,9.32,10.81,14.85,2.12,19.68,2.31,39.57,3.24,59.63,16.21,8.05,34.69,15.41,51.23,25.84,29.71,18.74,47.5,46.22,54.71,81,1.63,7.85,6.83,16.82,13.17,21.53,51.07,38,66,85.05,46.42,146.89-1.86,5.88-1.17,15.08,2.32,19.76,37,49.68,17.76,104.43-42.16,118.11-46.64,10.64-48.23,11.55-23.4,54.79,40.93,71.31,83.72,141.57,126.59,211.74,20.15,33,18.23,41.28-19.51,53.16-22.09,7-44.86,11.81-67.26,17.59,26.48,99.9,131.28,165.52,228.69,145,20.11-4.23,39.91-10.5,60.21-13.12,20-2.57,29.38-13.32,38.37-30.47,12.25-23.36,6.85-38.3-6.75-60.22-19.19-30.91-29.51-67.64-41.28-102.67-4-12-5.31-19.6-20.86-20.49-30.69-1.75-48-27.73-43.51-59.49.86-6,.09-14.91-3.69-18.45-35.57-33.21-31.29-70.37-15.37-111.13,6.41-16.41,5.34-35.73,7.82-54.92-38.48,3.14-38.69,3-45.25-36.16-8.26,8-14.36,15.32-21.89,20.66-6.79,4.82-18.73,12.4-22,10-6.83-4.95-14.16-16.56-12.89-24,4.32-25.19,12.11-49.82,19-74.54,1.79-6.42,5.18-12.4,10.25-24.17-12.38,4.32-20.3,6.91-28.08,9.84-23.2,8.74-37.68,0-33-24.94C908,915.37,920.33,892.83,930,870c2.53-6,7.89-10.78,13.68-18.39-5.61-.88-8.93-1.24-12.18-1.94-9.12-1.95-18.21-4-27.31-6.08,2.7-10.49,2.76-22.81,8.53-31.17,36.07-52.28,88.52-79.89,148.69-94.87,15.16-3.77,26-9.26,37-23.92,10.12-13.52,35-19.23,54.29-21.87,25.93-3.56,52.71-.89,79.2-.89a35.86,35.86,0,0,1-1.78-4c-3.65-9.18-7.22-18.39-10.82-27.58,10.11-3.3,22.14-11.84,30-9a814.62,814.62,0,0,1,93.23,41.32c12.34,6.38,20.72,7.86,33.12.69,78.93-45.59,157.9-35.33,235.77,3,7.88,3.88,12,15.48,17.8,23.5-8.43,4.78-16.55,10.27-25.4,14.07-5.71,2.45-12.49,2.41-24.42,4.44,21.27,12.59,38.45,20.58,53,32,13.49,10.59,26.57,23.3,35.46,37.77,13.51,22,5.88,33.55-19.8,35.06-15.68.92-31.38,1.6-54,2.74,42.73,40.08,81.37,75.67,98.93,124.73-6.13,10.84-11.48,20.28-17.94,31.69l-44.9-22.91c13.53,43.19,53.32,76.13,26.65,124.2L1562,1047.93c4.82,17.5,7.43,26.7,9.88,35.93,8.68,32.7,8.87,64.83-7.82,95.34-13.94,25.47-8.52,50.67,2.48,74.56,3.42,7.45,14.34,12.84,23,16.22,27.07,10.58,33.63,35.86,13.54,57.4-7.26,7.78-16,14.16-23.33,21.89-15.29,16.12-14.23,28.21,3.1,42.08,4.16,3.33,8.72,6.16,12.89,9.48,30.47,24.21,29.23,54.93-3,76.34-24.43,16.21-26,21.93-11.21,48.35,55.7-38.14,104.19-81.21,125.63-147.92,10.31-32.08,12.72-62.85-5.26-94.46-14.53-25.53-23.68-53.72,2.1-80.08,3.29-3.35,2.6-11.53,2.22-17.37-2.64-41.07-4.54-82.24-9-123.13-3.09-28.35,3.38-51.92,26.43-68.65,22.31-16.2,29.79-36.13,25.35-63.19C1743.43,897,1739.47,863,1736.7,829c-1.78-21.89-.3-44.06,0-66.1a16.72,16.72,0,0,1,2.94-8.52c16.82-25,43.16-13.82,65.26-14.83,7.36-.33,20.21,13.64,22.22,22.88,5.4,24.87,6.93,50.66,8.83,76.17,2.78,37.22,3.62,74.62,7.46,111.71.83,8,9.4,17.75,17,22,36.66,20.31,50.89,50.78,51.41,92.07.61,48,4.63,96,9.53,143.69,1.31,12.69,11.53,24.37,17.17,36.73,4.83,10.6,14.7,23.15,12.19,31.94-4.93,17.29.52,28.25,9.29,41.56,9.79,14.86,7.5,29.73-6.17,43.3-5,4.93-5.16,14.69-7.45,22.28-.18.62.56,1.48.49,2.2-3.36,33.37-5.8,66.89-11.05,100-.92,5.82-13.06,12.62-20.91,14-17.89,3.23-36.35,3.26-54.55,4.87-10.33.92-20.61,2.42-32.59,3.86,12.68,88.56-26.37,157.32-76.3,221.91-19.19,24.82-33.36,25.57-57.2,5.23-12.1-10.33-22.76-28.19-35.78-29.93-12.66-1.69-27.33,13.18-41.4,20.22-71,35.55-144.37,39.57-219.64,15.44-5.07-1.63-10.14-3.29-15.29-4.58-2.09-.52-4.41-.09-8.37-.09-1.3,4.57-3.58,9.31-3.91,14.18-4.76,70.69-8.94,141.42-14.33,212.06-.51,6.69-7.35,17.23-12.84,18.38-14.84,3.1-14-9.67-14.17-19.58q-2.41-136.05-4.68-272.1c-.13-7.53,0-15.05,0-25.11-72.19,16-140.69,20.1-201.58-40.19-4,18.43-10.08,32-9.36,45.23,4.73,87.37,10.82,174.67,16.7,262,1.07,15.74,3.22,31.42,4.87,47.13ZM1629.55,797.63q1.77-4.12,3.53-8.25c-12.59-9-24-21.09-38-26.52-34.56-13.4-70.39-23.46-105.45-35.62-6.3-2.18-11.35-8-17-12.07,5.9-3.59,11.46-9.42,17.76-10.38,26.66-4.07,53.54-6.69,83.06-10.15-4.35-4-6.5-7.6-9.5-8.62-64.47-21.85-127.61-22.28-185.83,17.21-15.6,10.57-25.06,10.32-39.9-.29-21.67-15.49-45.75-27.61-68.8-41.16q-1.61,2.69-3.19,5.37,16.56,26.48,33.11,53l-5.51,5.67c-45.13-6.73-87.46-37.42-137.47-21.35l27,34.39-4.1,6.22q-23.54-1.17-47-2.34c-59.19-2.87-113.32,11.47-160.33,48.45-9,7.05-16,16.5-27.55,28.61l80.12-5.38,1.2,7.62c-20.21,15.5-41.81,29.52-60.25,46.89-19.17,18.05-35.15,39.4-32.85,72.34l79.7-32.13c-15.81,43.87-43.59,78-48,128.43L1027,996v53.81l32.66-17,6.72.67c-20.42,26.88,9.57,40,10.49,59.44,1.76,37.31,37.47,20.66,51.14,40.78,4.07-8.67,6.36-13.54,8.64-18.41l4.79.15,8.15,38.64c-17-8.65-28.32-16.92-40.88-20-11.36-2.79-27.44-4.59-35.66,1.27-30.85,22-28.13,74.54,3.42,95.35,12,7.92,17.57,16.24,10,30.16-2.13,3.91-4.85,9.78-3.38,12.93,4,8.5,10,16,15.24,23.93,6.55-6,17.73-11.41,18.69-18.24,2.19-15.48-1-31.66-1.35-47.57-.27-11.21,1.12-22.47.55-33.64-.45-8.84-2.75-17.59-4.23-26.37-8.78,1.71-17.62,3.15-26.29,5.26-3.14.77-5.88,3.15-10.15,5.55,4.86-20.63,17.79-29.47,33.41-24.7,16.79,5.13,26.89,22,22.16,36.78-2.19,6.82-4,13.76-6,20.65,17.79-13.54,22-39.82,55.21-37.81-44.49,33.89-56.68,75.34-46.24,123.79,5.29,24.53,12.59,48.65,19.63,72.77,11.69,40.08,33.56,73.08,68.74,96.59,23.61,15.78,25.69,22,11,46.47-9.19,15.39-11.61,28.13,4.78,39.25,16.21,11,30.47,7.74,41.67-7.7,13.11-18.09,31.6-25.68,52.7-28.3,34.93-4.33,66.9.61,98.26,20,22.56,14,49.81,21.89,76,27.56,10,2.16,31.13-7.45,33.09-15.24,6.94-27.59-1-55.09-11.63-81.75,11.22-4.76,25-9.45,37.6-16.2,21.15-11.3,21.27-20.18,4.14-34.65-12.63,4.36-23.9,7.49-34.52,12.11-13.69,6-28.84,10.81-39.8,20.27-17.67,15.27-34.08,18.27-56.38,10.63-16.24-5.56-35.75-7.55-52.43-4.23-18.17,3.62-32.94,2.09-47.44-8-10.62-7.38-21.23-14.87-31.18-23.11-14.81-12.25-30.38-16.35-48.72-8.49-18.17,7.78-33.72,2.89-48.18-10.15-39.43-35.61-69.34-75.12-60.1-132.76,1.44-9,1.21-18.27,1.08-27.41-.4-28.8,20.11-43.61,40.62-56.33,5.84-3.63,22.86.68,27.33,6.79,15.48,21.13,30.3,43.55,40.46,67.55,12.29,29,51.06,59.16,82.35,61.67,11.55.94,25.21,7.47,33.13,15.93,24.3,26,53.36,27,84.07,19.55,22.85-5.55,46.09-11.82,67.1-22,18.74-9.1,34.67-24,51.83-36.36l-.39-6.69c-53-14.09-52-58.66-59.28-100.3l-45.2,12c9.73,27.36,19.58,51.94,26.9,77.25,2.68,9.28-.65,20.3-1.24,30.52-10.71-1.74-22.49-1.2-31.94-5.64-35.81-16.8-69.71-38.36-106.59-52-27.69-10.24-47.48-20.07-38.48-54-106.86,17.13-192.29-65-145-155.92l-45.89,3.42-31.59-27.71c3.62-6.71,8.13-15.06,12.6-23.37l-24.49-14.61c12.67-7.55,21.1-12.82,29.77-17.63,4.49-2.49,13.19-3.62,13.57-6.27,3.45-24.26,22.28-17.8,35.42-16.58,63.83,5.9,110.46,38.77,143,93.64,9.62,16.24,21,32.14,34.63,45,7.38,7,24,12.58,31.24,8.79s10.09-19.87,11-30.88c.81-10.15-3.56-20.71-5.64-31.09l4,4.42c29.14-48,63.28-87.92,126.66-86l-7.67,16.59,46.59,10.73L1534.12,994c23.3,38.44,64.24,40.55,102.64,51.3-10-27.24-20.94-53.18-36.14-76.3-14.73-22.38-33.87-41.85-51.06-62.6l3.29-6.57L1650.46,930c-8.65-12.34-12.67-19.4-17.93-25.38-28.94-32.89-60.44-62.29-103.22-76.87-5.34-1.83-9-8.48-13.5-12.9,4.85-2.87,9.39-7.15,14.62-8.33a255.7,255.7,0,0,1,36.12-5.4C1587.51,799.47,1608.55,798.74,1629.55,797.63Zm147.86,119.6c14.78,47.92-5.33,78.93-38.85,105.78-7.18,5.76-10.76,20.14-10.47,30.39,1.13,38.72,5.51,77.35,6.68,116.08.58,19,8.21,20.32,25.1,21.26,21,1.17,47.82,3.67,60.84,16.8,22.37,22.53,44.27,16.13,68.93,15,0-11.34.6-21.08-.11-30.73-3.23-44-8.6-87.89-9.64-131.91-.62-26.25-8-45.69-31.37-58-28.83-15.15-41-39.14-38.79-71.23.29-4.3-1.11-8.71-2-15Zm-444.12,688.39c1.43,18.3,1.19,35.61,4.63,52.16,2.37,11.36,7,25.15,15.47,31.88,67,53.48,200.79,54.74,271.21,3.86,7.82-5.65,19.37-12.08,8-22.9-11-10.5-14.21-36.61-39-23.88-71.62,36.81-140.9,28.24-208.72-10C1367.34,1626.85,1350.34,1615.94,1333.29,1605.62Zm215.63-488.29a102.82,102.82,0,0,0-39.43-63.32c-5.38-4.06-15-6.66-21.17-4.85-36.77,10.82-71,26.95-96.53,56.81-3.88,4.54-6.17,16.56-3.26,19.81,21.2,23.73,43.76,46.27,66.38,68.69,2.78,2.75,8.43,3.16,12.85,3.59C1512.1,1202.32,1549.78,1167.4,1548.92,1117.33Zm-264.4,81c5.61-.42,10.18-.56,14.69-1.15,24.57-3.19,46.69-21.2,51.51-42.28,5.87-25.66-6.42-42.51-27.76-54-27.22-14.73-53.79-31.34-82.4-42.68-50.11-19.85-65,11.61-64.63,53.08.13,14.54,8.17,31.66,18,42.94C1217.54,1181.38,1248.45,1197.13,1284.52,1198.29ZM523.12,967.64l-6.8,5.35c4.85,7.16,8.27,16.18,14.78,21.16,30.69,23.45,66.21,30.16,103.5,23.49,28.33-5.07,35.8-21.9,30-50.37-6.2-30.27-25.11-51.59-45.85-71.56-17.16-16.52-31.45-16-45.86-1l15,18.22L542.55,928.8v45.58Zm962.87,341c13.5-55.08-65.06-143.12-121.12-177.74-6.7,40.78-6.61,40.63,25.18,60.52,7,4.41,14.43,9.36,19.28,15.83,4.58,6.11,6,14.56,10.57,26.48-20.88-16.24-35.61-29.69-52.28-40-12.38-7.67-25.11-6.16-30.23,11.34-4.75,16.21-8.54,30.72,12.92,39.41,29.49,11.94,58.26,25.73,87.08,39.27C1453.6,1291.33,1469.3,1300,1486,1308.62Zm-373.2-326.34c.21,2.12.43,4.24.64,6.36l31.1,10.16-24.46,18.94,20.34,22.64c30,1.6,60.7,0,90,5.7,29,5.64,56.54,18.63,86.16,28.89-22.81-64.62-91-117.71-147.76-115.39,9.39,16.78-2.18,17.09-13.59,18.11C1141.05,979,1126.93,980.73,1112.79,982.28ZM698.41,1360.66c55.66-3.79,110.35-7.8,159.69-35.5,5.47-3.08,12.81-8.16,13.64-13.23,3.41-20.73-21.93-40.52-41.18-33-45.56,17.74-91.67,33-141.41,32-26.79-.53-29.82,2.92-27.89,29.71C663.27,1368.52,684.93,1357,698.41,1360.66ZM836.42,847l-45.18,23.77c47.65-.17,53.56,1.73,51.82,21.21-.77,8.62-4.61,23.37-8.89,24.07-12,2-25-1.95-38.29-3.64,7,15.34,46.78,17,18.9,45-6.5,6.52-20.56,14.63-25.31,11.89-10.41-6-17.08-18.48-25.23-28.26-7.71,12.32,14.74,32.37-8.42,39.12-11.11,3.25-34.46.43-35.28-3.34-3.11-14.27.74-30.06,1.89-44-13.35,8.49-13.06,47.69-48.89,25.71,3.9,7.87,7.3,13.42,12.22,16.64,32.09,20.94,66.77,25.23,102.13,10.77,43.64-17.85,68.68-62,64.8-110.12-3.49-43.34-37.79-82.58-81.83-93.62-39.52-9.91-89.38,10.54-113.77,46.66-23.55,34.87-23.17,68,1.54,95.7l38-19.6c-17.8-3.48-43,18.09-43.58-16-.18-10.46,3-24.53,10.11-30.4,5.45-4.51,19.4,1.24,32.48,2.77-26.43-24.8-27.88-30.77-12.85-44.12,17.26-15.33,23.26-13.51,46.64,16.2.1-20.38-10.2-44.79,25.22-41.65,38.52,3.42,14.4,28.66,16,43.6,11.74-8,24.63-23,32.51-20.77C815.13,818.07,823.57,833.57,836.42,847Zm751.45,776.24c-12.11-34.51-12.34-32.93-41-24-17.41,5.44-38.3,8.19-55.5,3.81-24.46-6.24-46.62-21-70.42-30.51a492.38,492.38,0,0,0-63.75-20.5c-5.26-1.3-15.91,4.44-18,9.47-2,4.67,2.3,15.22,7.11,18.9,57.81,44.4,120.77,74,196.23,60.06C1558.2,1637.62,1572.88,1629.11,1587.87,1623.25Zm55.32-111.44c-37.47,25.48-38.07,26.41-12.45,59.76,20.36,26.51,41.65,52.35,63.44,77.7,15.59,18.14,32.68,35,49.89,53.27,6-7,8.71-9.59,10.85-12.58,20.79-29.1,20.21-28.55-4.69-53.09C1711.41,1598.6,1667.67,1564.48,1643.19,1511.81ZM1507.65,982c-3.06-.45-15.66,1.51-20.18-3.63-15.62-17.79-30.83-7-40.6,2-16.21,15-27.48,35.1-42,52.06-13,15.22-10.17,29.68-2.84,45l121.56-56.92ZM1243.3,1253.85c-17.93,22.29-35.17,41.1-49.37,62-23.32,34.26-14.67,59.1,26.49,78.27,8.92-19.84,14.41-42.42,27.53-58.92C1270.13,1307.28,1259.21,1284.28,1243.3,1253.85Zm582.83,110.73-6.92-3.25c-5.38,11.46-14,22.56-15.38,34.48-2.07,18.6.22,37.81,1.77,56.68,1.59,19.28,11.55,27.71,32,24.14,17.18-3,34.82-4.05,52.29-4.48,14.07-.35,18.68-6.21,17.3-19.74-1.2-11.79-.57-22.86-17.81-22.75-15.88.1-32.21-.44-47.57-4-26.54-6.16-33.22-23.88-20.39-47.47C1823.68,1374,1824.6,1369.13,1826.13,1364.58Zm-661.53-35.82,7.15,1.47c6.83-10.7,13.09-21.82,20.65-32a314.34,314.34,0,0,1,26.3-31.19c24.65-25.5,24.23-26,.87-52.83-13.45-15.44-24.4-14.35-37.31-.43C1149.58,1249,1165.69,1289.88,1164.6,1328.76Zm202.1,126.72c3.45-34.56,8.71-61.64,7.42-88.39-.45-9.32-15.66-21.37-26.69-25.87-13.7-5.58-23.6,3.1-26.49,19-2.45,13.39-8,26.23-10.27,39.64-1,5.75.63,14.73,4.59,18.06C1329.5,1429.87,1345.25,1440.09,1366.7,1455.48Zm-139.85-51,6.08,6.79c18.39-2.5,36.81-4.81,55.14-7.68a16.57,16.57,0,0,0,9.39-5.12c20.58-24.44,15.84-63.42-10.61-79.8-4.22-2.62-16.73-.35-18.73,3.31C1253.41,1348.94,1240.4,1376.84,1226.85,1404.46Zm159.88-29.29c-2.56,23.88-5,46.53-7.3,68.22H1435C1432.76,1373.45,1438.24,1378.44,1386.73,1375.17ZM1501,1432.38c-6.14-17.45-10-29-14.23-40.35s-9-20.46-24.68-16.33c-14.51,3.82-20.51,11-17.94,26,1.79,10.47,2.14,21.18,3.25,31.77,1.19,11.38,1.72,27.09,17.54,22.55C1478.47,1452.12,1489.69,1440.14,1501,1432.38Zm-13-65.89c6.67,18,11.38,33.18,17.87,47.59,8.55,19,23.82,6.69,35.87,5.13,2.88-.37,7.44-12.07,6-17-4.54-15.55-11.58-30.38-18.73-48.18ZM752.16,913.1c5.53-11.35,12.7-19.23,11.11-24.43-2.29-7.49-10.94-13-16.88-19.41-5.38,6.34-15.89,13.62-14.94,18.8C732.86,895.78,742.37,902,752.16,913.1ZM1771.79,849c4.31,14,6.64,25,11.62,34.7,1,1.87,17.32-.31,18-2.86,2.73-10.52,2.15-21.89,2.88-34.47ZM635.18,680.71c5.33,17.87,19.27,24.56,35.11,24.45,12.27-.1,24.51-5.19,36.77-8.06l-1.47-9.22C679.83,703,656.58,701.8,635.18,680.71Zm1133.44,124.5.69,10.28,36.58-2.36c-.24-3.56-.49-7.12-.73-10.68Z"/><path class="cls-1" d="M1092.87,326.77c-19.24,2.83-38.57,5.17-57.7,8.59-24.34,4.35-49.75,6.34-72.51,15.07-51,19.55-101.2,41.47-150.53,64.93-17.38,8.26-31.15,24-46.81,36-10.8,8.28-21,20.2-33.25,23.29C675.2,489,638.42,530.11,601,569.94c-21.19,22.55-38.81,48.46-57.94,72.94-2.8,3.59-4.23,8.8-7.71,11.23-56.16,39.23-72.5,107.7-114.77,157.7-18.1,21.41-22.12,57.75-25.34,88.08-6.86,64.63-23.61,125.14-55.88,181.74-5.46,9.57-4.5,23.55-4.28,35.45.78,42.34,1.7,84.72,4.23,127,1.39,23.34,0,49.83,10.5,69.07,28.36,51.91,28.43,110.15,44.27,164.62,5.32,18.26,9.28,36.93,15.17,55,2.49,7.64,6.78,17.81,13,20.54,23.51,10.29,28.51,29.52,30,51.73.24,3.72,1.05,8,3.15,10.91,33.61,46.62,67.21,93.26,101.42,139.43,14.2,19.15,31,36.44,44.41,56.06,8,11.62,12.92,22.12,30.17,23.12,9.72.56,20.67,9.46,28,17.44,33.54,36.7,70.47,66.52,121.4,76,9.44,1.76,19.7,13,24.54,22.44,8.11,15.87,17.36,26.42,36.32,25.44a50.44,50.44,0,0,1,15.9,1.35c56.13,15.69,112.06,32.14,168.37,47.17,12.46,3.32,26.18,2,39.32,2.61,14.22.66,28.79-.71,42.62,1.9,46.21,8.76,92,23.62,139.09,4.58,3.38-1.36,8.1-2.2,11.23-.92,51.62,21.05,101.94-5.5,153.07-4.1,31.54.86,59.18-9.32,86.42-28.76,22.35-16,53.56-19.3,80.51-29.13,10.35-3.78,23-7.6,29.06-15.61,20.86-27.58,49-43.17,80.33-53.91,34.79-11.92,61.82-30.36,75.43-67,4.9-13.22,18.64-23.48,29.26-34.18,38-38.31,76.88-75.78,114.22-114.73,6.43-6.7,6.63-19.18,10.34-28.75,3.89-10.08,7.15-20.8,13.13-29.59,14.71-21.64,31-42.19,46.22-63.5,3.46-4.86,4-12,7.8-16.41,48.35-55.34,42.6-129.71,68.12-193,1.92-4.78,2.26-10.39,2.44-15.65,1.16-33.91.31-68,3.58-101.69,3.13-32.26,4.91-63.57-7.19-94.54-2.55-6.54-1.16-14.88-.62-22.32,1.29-17.79,5.8-35.79,4.17-53.25-2.46-26.42-8-52.69-14.24-78.56-3.49-14.54-11.48-28-16.46-42.21-5.89-16.87-10.37-34.23-16.13-51.15-3.61-10.62-6.28-22.65-13.18-30.84-15.57-18.47-20.52-39.56-24.64-62.56-11.3-63-47.78-109.72-99.37-146.06-8.2-5.77-16.81-14.52-19.71-23.64-14.16-44.51-43-71.37-85.79-90.79-26.91-12.2-49.56-37.28-69.36-60.62-15.94-18.78-32.9-29.68-56.38-34.63-13.48-2.85-25.92-10.71-38.77-16.45-8.2-3.65-16.54-7.1-24.38-11.43-13.42-7.41-26.11-16.2-39.8-23-18.12-9-36.46-18-55.48-24.78-49.38-17.66-98.92-35-149-50.6-17.06-5.32-35.84-5.11-52.76-7.29,35-8.35,130.54,8.42,169.65,27.42,45.08,21.92,91.29,40.17,142.33,45.83,46.24,5.14,82.39,33.47,117,62.57,4.62,3.89,7.45,10.61,12.54,13.16,49.91,25,80.85,71.35,121.23,107,35.36,31.22,74.38,60.6,101.53,98.19,31.51,43.64,58.7,91.35,86,137.76,20.51,34.92,37,77.23,47.38,116.68,10,38.1,25.75,74.07,34.5,111.66,11.74,50.44,23.39,103,1,155.11-4.14,9.61-3.42,23.44-.1,33.76,20.34,63.27.38,125.4-4.06,187.9-.61,8.62-5.42,17.52-10.1,25.19-21.83,35.85-33.42,74.2-36.28,116.37-1.23,18.15-9.81,36.7-18.49,53.27-26.48,50.54-53.22,101-82.85,149.76-11,18-30.31,30.89-45.69,46.25-21.29,21.28-46.35,40.06-62.82,64.6-31.27,46.59-70.41,79.54-125.79,90.18-21.78,4.18-37.13,15.14-51,31.36-34.36,40.08-78,64.93-130.08,73.65-25.31,4.24-47.6,12.51-68.34,28.88-12.81,10.11-31,14.77-47.51,18.52-25.87,5.85-52.88,6.9-78.52,13.48-51.75,13.27-102.41,7.83-153.72-2.2a191.17,191.17,0,0,0-60.79-2.07c-52.8,7-102.56,3.79-149.62-25.11-13.93-8.56-32.93-11.42-49.82-12.18-57-2.55-107.85-18-146.29-62.74-15.5-18-34.19-25.9-58.23-25.41-42.37.86-68-30.79-97.18-54.28-28.33-22.8-58.25-44.88-81.61-72.27-26.75-31.38-49.92-66.75-69.12-103.29-12.87-24.48-22.31-47.13-52.33-54.86-9.29-2.39-18.85-13.13-23.52-22.43C381.89,1631.11,356.69,1578.19,332,1525c-5.68-12.24-8.1-26.07-11.49-39.3-6.93-27.06-14.46-54-19.82-81.41-3-15.39,1.08-32.61-3.68-47.16-26.65-81.5,2.84-165.46-12.05-247.53-3-16.71,4.85-35.63,8.76-53.29,4.1-18.51,11.64-36.49,13.82-55.14,4.14-35.49,16.61-67.11,32.88-98.75s28.35-65.7,39.12-99.7c15.94-50.31,48.68-88.77,81.95-127.67,34.09-39.86,67.49-80.43,98.93-122.38,15.51-20.68,31.68-38,55.67-48.82,17.1-7.71,32.36-19.56,48.32-29.75,5.77-3.68,10.67-9.71,16.89-11.55,45.25-13.36,75.23-50.64,115-72.24,15.53-8.43,33.55-12.3,50.47-18.16,21.17-7.32,42.33-14.65,63.57-21.76,16.93-5.67,33.62-13.48,51-16,36.06-5.21,72.54-7.65,108.87-10.95,7.34-.67,14.79-.1,22.19-.1Z"/><path class="cls-1" d="M1435.78,2394.35c3.46-12,8.78-23.81,10.07-36,5.71-53.76,10.13-107.65,15.32-161.46.95-9.92,3.31-19.71,5-29.56l7.09.15c1,6.7,3.36,13.53,2.72,20.07-6,62.17-12,124.36-19.52,186.37-1.17,9.67-7.58,22.13-15.41,26.71-10.15,5.92-20.78,2.82-33.79-5.91-16.06-10.76-21.43-23.74-27.73-38.79-14-33.48-28.3-66.85-47.17-100.1-5.15,29.49-10.24,59-15.46,88.48-2.4,13.5-2.63,28.13-8.41,40-4.13,8.5-15.08,16.2-24.47,18.7-6,1.58-19.33-5.4-21.36-11.3-21.72-63.22-41.88-127-62.3-190.64-.86-2.68-.11-5.88-.11-8.45,30.26-13.27,34.27-11,43.66,19.46,10,32.31,21.16,64.24,37.25,95.31,7.71-36,15.19-72,23.24-107.91,2.93-13.07,4.1-27.52,23.37-28.6,19.75-1.12,25.19,10.35,30.84,26.36a493.17,493.17,0,0,0,41.92,89.75c1.83-12.27,4-24.49,5.43-36.81,2.88-24.92,5-49.94,8.16-74.83,1.78-14.25,10.74-18.39,24.62-16.44s17.31,8.85,15.85,21.89c-7.18,64.31-13.71,128.69-20.74,193-.69,6.25-3.28,12.29-5,18.43Z"/><path class="cls-1" d="M987.25,253.4c-18.61,2.78-29.33-4.5-36-22.87-20.09-55.76-42.18-110.81-62.13-166.62-2.3-6.43,1.53-20.16,6.72-23.1,11.39-6.46,22.75-4.44,28.21,11.7,11.86,35,25.12,69.6,43,103.72C972,120,976.82,83.8,981.8,47.6c1.71-12.43,0-26.42,19.15-28.26,17.92-1.73,23.18,8.44,28.92,22.37,12.52,30.33,26.82,59.91,40.39,89.8l8.33-1.87c0-35.41-.26-70.82.14-106.22.14-12.09,2.7-23.46,19.16-22.14,13.88,1.12,20,8.14,19.53,22.46-2,61.68-2.91,123.39-5.7,185-.37,8.34-7.32,20.7-14.32,23.52-14.37,5.79-25.07-1.53-31.59-17.13-15.46-37-32.57-73.24-49-109.8l-6.32.28c-.69,8.17-1.4,16.35-2.08,24.52-2.56,30.35-4.1,60.83-8.17,91-1.53,11.35-8.94,21.91-13.66,32.83Z"/><path class="cls-1" d="M925.81,2378.08c-5.4-4.35-10.26-9.72-16.29-12.89-27.85-14.63-36.1-40.1-13.06-60.61,31.23-27.8,45.54-57,39-99.41-2.85-18.58,5.75-39.6,29-46.75,19.76-6.09,61.7,4.92,72.38,18.88,11.26,14.7,8.9,47.14-5.17,64.31a94.86,94.86,0,0,1-14.89,14c-27.71,21.72-27.32,32.81,2.81,56.35,20.73-7.43,24.29-61.57,63.61-22.46-8.42,13.57-15.1,29.68-26.43,41.22-14,14.27-9,24,.18,37.09,6.23,8.89,8.9,20.28,13.16,30.55l.66-.49c-27.91,12.37-39.44-12.41-54.18-26-3.33,6.48-4.55,13.56-8.26,15.29-22.57,10.52-68.33,4.37-82.63-10l70.19,3.67c0-2.8-.07-5.61-.11-8.42Zm65.64-40.18L957,2290.48l-35.5,38.22C939.81,2348.33,959.22,2351.15,991.45,2337.9Zm-17.27-101,10.12,3.47c7.06-12.34,15.3-24.23,20.39-37.34,1.35-3.48-6.12-14-11-15.23-4.36-1.07-14.44,5.4-15.62,10.13C974.9,2210.46,975.23,2223.85,974.18,2236.9Z"/><path class="cls-1" d="M593.17,2086.14c28-.5,48.2-11.68,68.44-30.86,15.21-14.42,39.37-21.61,61.11-3.29,9.83,8.28,21.64,14.18,31.64,22.27,59.46,48.08,58.95,123.17-2.22,170.24-14.43,11.11-32.9,17-47.22,24.09,33.5,7.27,61.63-18.39,104.54-99,3.95,52.49-45.31,111.34-101.45,113.93-31,1.43-62.83-7.31-93.79-13.79-13.92-2.92-25-41.12-17.86-56.84,15.71-34.61,32.15-68.9,48.24-103.33,3.42-7.31,6.66-14.71,12.19-27C632.74,2091.55,613.21,2103.18,593.17,2086.14Zm135.69,6.57.7.73c-22.65-21.54-27.5-21-40.34,5.68q-25.59,53.28-50.31,107C629,2227.51,631.7,2232,655,2236c48.17,8.35,79.85-10.25,101.69-59.7C773.43,2138.49,765.23,2113.89,728.86,2092.71Z"/><path class="cls-1" d="M1839.3,1978.13c3.8-4.4,10.93-8.82,10.9-13.19-.41-50.57,37.81-73.6,71-99.49,14.22-11.11,32.46-10.68,47.12.42,15.6,11.81,21.4,29.19,18.25,48.75-1,6.57-3.7,12.88-6.48,22.16,56.54-6.13,92,31.13,132.11,58.23l3.57-4.48c-11.83-9.36-23.34-19.16-35.57-28-13.46-9.69-27.58-18.46-41.42-27.63l4.29-6.59c26.29,17.79,52.83,35.24,78.59,53.77,3.5,2.51,6.08,12.76,4,15.37-6.26,7.84-14.43,18-23,19.19-10.72,1.47-23.57-3.15-33.68-8.56-18-9.66-34.16-22.91-52.13-32.75-22-12-46.33-8.41-71.49,13.06l87.09,70.3c-22.5,31.84-25.51,32.41-45,14.17-38.83-36.3-77.53-72.75-119-111.72-13.54,31.5-60.49,33.81-56.55,76.38-16.86-5.51-19.51-11.39-9.62-24.91,3.92-5.36,8.77-10.05,13.15-15Zm97.3-27.33c12.64-17,26.4-32.57,11.2-51.89-3.37-4.28-16.63-1-25.32-.77-3,.07-5.9,1.35-8.84,2.08l4.58,4.53,15.09-1.49C1908,1923.6,1923.25,1936.08,1936.6,1950.8Z"/><path class="cls-1" d="M1811.11,2247.12c-15,11.35-28.09,4.5-41.92-3.42-39.3-22.51-79-44.42-118.65-66.2-5-2.74-11.19-3.31-23-6.62,6.69,14.21,10.79,24.09,15.86,33.46,11.89,22,23.54,44.17,36.67,65.42,7.41,12,5.66,20.92-3.58,29.94l.69-.67c-17.74,5-28.34-2.33-35.82-18.55-21.33-46.25-44-91.88-64.66-138.42-2.83-6.39.25-20.61,5.38-24,6.93-4.63,20.24-6,27.79-2.39,45.4,21.6,89.93,45,139.09,63.93-8.64-17.18-17.34-34.33-25.89-51.56-10.14-20.44-19.65-41.22-30.41-61.34-6.12-11.44-3.79-17.88,7.58-23.55s20-5.7,26.45,6.8c11.13,21.63,22.81,43,33.9,64.65,17.34,33.87,35.28,67.48,50.9,102.14,3.82,8.48-.39,20.59-1,31.08Z"/><path class="cls-1" d="M163.51,1599.81c-27.22,12.7-54.11,26.19-81.81,37.73-13.62,5.68-28.19-10-22.5-25.92,4.21-11.75,13.23-23.92,23.5-30.9,17.47-11.88,38.24-18.78,56.48-29.68,21.25-12.71,31-32.47,28.58-62.7-19,4.51-36.86,8.6-54.62,13-14.75,3.61-29.28,9.18-44.2,10.49-5.73.51-16.09-7.51-17.38-13.22s4.94-17.59,10.22-19.23q82.79-25.75,166.46-48.6c21.49-5.87,34.52,2.67,41.3,24.79,4.89,16,8.23,32.43,11.87,48.76,6.22,27.93-1.77,51.12-20.35,60.07-18.17,8.75-44.37,1.41-61.64-17.35-2.46-2.67-4.62-5.62-8-9.74-25.31,52.39-72.07,69.54-123.07,83.31,16.56,15.9,30.72-1.09,44.78-6.4,16-6.06,31.06-14.85,46.53-22.45C161,1594.42,162.23,1597.12,163.51,1599.81Zm94.37-79c-19.21-16.14-27.52-43.82-55-24.67,5.18,15.68,10.48,33,31.49,34.72C241.61,1531.45,249.47,1524.61,257.88,1520.8Z"/><path class="cls-1" d="M208.7,1420.58c-6.41,3.53-12.55,9.46-19.28,10.22-41.33,4.69-82.95,12.36-124.18,10.9-37.56-1.34-71.79-49.25-64.17-86.82,4.54-22.39,15.75-46.06,30.94-62.83,12.5-13.79,34.49-21.83,53.68-26a373.12,373.12,0,0,1,86-8.78c41.25.75,66.4,24.21,71.28,60.37,6.28,46.43-12.1,85.64-51.62,95-35.83,8.49-73.64,11.19-110.62,11.54-38.21.35-56.48-27.24-67.23-63.85-.89,35.9,25.35,68,57.8,70C116.64,1433.2,162.32,1434.88,208.7,1420.58Zm-104.08-30.89c.34.83.68,1.66,1,2.48,29.41-6.62,59.51-11.15,88-20.55,21-6.93,24.78-27.34,22-47.7-2.54-18.82-16.6-30-33-29a896.71,896.71,0,0,0-116.57,14.27c-15.42,3-27.1,17.54-25.6,36.28,1.4,17.54,7.39,33.71,26,39.18C78.68,1388.21,91.89,1388.13,104.62,1389.69Z"/><path class="cls-1" d="M2115.4,853.34c-8.66-16.07-.64-28.13,8.3-41.19,24.81-36.24,48.68-73.14,72.62-110,2.66-4.08,3.41-9.4,7.23-20.5-16.76,8.19-28.47,13.85-40.13,19.61-21.78,10.76-43.2,22.36-65.54,31.79-5.43,2.29-19.65-1.93-19.87-4.13-.81-8.26-.07-22.35,4.67-24.6,52.12-24.77,105-48.11,158.15-70.5,4.64-2,16.69,3.91,19.19,9.1,3.1,6.43,2.59,17.55-1.11,23.86-24.32,41.41-49.91,82.07-75.09,123l3.77,4.47c12.73-5.59,25.52-11,38.17-16.82,25.59-11.67,50.82-24.2,76.87-34.69,5.27-2.13,19.1,2.55,19.38,5.14.87,8-.37,21.59-5.26,24q-88.74,44-179.13,84.65c-5.87,2.66-15.28-2.5-23-4Z"/><path class="cls-1" d="M530.36,2048.53c-19.16,26.56-37.06,51.57-55.19,76.4-7.47,10.24-16.24,21.26-28.33,6.62-4.23-5.12-6.69-17.36-3.55-22,32.7-48.63,66.8-96.32,100.32-144.39,12.63-18.11,28.36-16.14,43.74-5.82a452.86,452.86,0,0,1,48.81,37.51c18.43,16.4,23.33,38.86,14.42,55.38-9.61,17.8-31.52,27.15-55,23.56-4.35-.66-8.75-1-8.55-1-4.31,26-5.6,51.31-13.22,74.58-7.56,23.06-21.51,44-33.92,68.38,30.83-16.58,30-54.21,49.54-76.68l7.05,3.69c-14.16,26.89-27,54.6-43.12,80.26-6.43,10.23-33.75-5-34.05-19.95a97.24,97.24,0,0,1,5.68-34.69c6.26-17.08,16.1-32.84,22.53-49.86C557.11,2095.14,553.23,2071.81,530.36,2048.53Zm30.34-19-.7-.43c10.29,5.5,20.2,14.18,31,15.49,8.57,1.05,20.27-5.07,26.42-11.81,2.51-2.75-5.29-15.91-9.7-23.59-2.47-4.32-7.59-7.12-11.51-10.6-.13-.14-.51-.57-1.13-1.3l-21.27-11.89c-7.19,9.94-14.93,18.48-19.72,28.44C552.46,2017.22,558.29,2024.19,560.7,2029.52Z"/><path class="cls-1" d="M1864.93,316c15.41,55.08-20.54,92.74-37.78,135.84l4.85,2.7q21.33-40.79,42.68-81.57l6.15,3c-14.59,28.61-28.72,57.47-44.34,85.5-1.89,3.39-13.63,5.17-17.6,2.65-6.66-4.22-14.37-12.14-15.06-19.16-1-10.56,2.13-22.25,6.12-32.45,6.63-16.95,16.24-32.74,22.93-49.67,8.89-22.49,8.35-44.48-11.72-67.57-9.2,11.77-17.91,22.42-26.09,33.47-11.3,15.27-21.23,31.7-33.82,45.77-4.18,4.67-14.77,3.6-22.44,5.16-1.18-7.62-6.11-17.75-3-22.47,32.54-48.68,66.5-96.41,99.82-144.57,12.18-17.6,26.92-18.28,43.1-7,13.69,9.58,27.36,19.42,39.69,30.63,14.6,13.27,25.15,28.85,16.09,50.33-8.28,19.65-28.12,31.84-51.08,30.81C1878.34,317.28,1873.22,316.71,1864.93,316Zm-14.76-38c19.37,10.71,37.36,17.34,50.92-1.49,3.83-5.33-2.39-17.91-4-27.16l-6.83,1.35c.81,3.5,1.62,7,3.28,14.16C1869.33,244.62,1861.56,263.1,1850.17,278.08Z"/><path class="cls-1" d="M2148.63,946.5c-10.53-31.08-6.19-41.06,23.49-48.6q79.55-20.22,159.45-38.95c22.65-5.3,34.31,1.43,36.92,24.57,2.8,24.74,4.53,50.58.52,74.91-7,42.38-41.47,59.63-78.49,65.3-26.93,4.13-55.47-2.24-83.19-3.87C2178.32,1003.07,2159.77,977.76,2148.63,946.5Zm190.63-47.66c-8.1-9.08-126.49,15.2-160.35,35.67,6.74,32,30,53.94,63.3,59.81,32.13,5.66,82.23-11.62,94.88-32.79a42.39,42.39,0,0,0,3.89-8.23c8.49-25.75-5.43-42.51-32-37.23-27.54,5.47-54.74,12.67-82.18,18.66-11.46,2.5-23.16,3.83-34.75,5.7l-1.47-7.49Z"/><path class="cls-1" d="M1644.56,299.52c12.2,7.32,24.06,15.31,36.67,21.82,25.27,13,26.37,16.49,11.16,40.39q9.78-6.57,19.57-13.13c.38,21.07-8,28.1-26.26,20.3-22.31-9.55-44.25-20.07-65.91-31-14.66-7.41-25.59-41.45-18.22-56.32,25.68-51.82,51.9-103.36,77.69-155.11,9.14-18.34,23.6-20.54,40.18-12.9,19.32,8.9,38.33,18.65,56.68,29.4,5.55,3.25,11.66,11,11.63,16.7,0,5.23-7.93,10.42-15.82,19.69L1798.55,169c.51,20.34-5.29,25-24.72,16.94-9.8-4.08-18.75-10.81-28.84-13.46-11-2.89-22.86-2.42-36.1-3.57-1-12.91,2.51-15.8,25.84-13.7l-.18-6.05c-8.91.82-21.63-1.75-26,3.13-10.81,12.16-15.27,27.15,5.25,36.87,15,7.1,32.55,13.44,17.08,36.39L1744,215.6c1.45,1.3,3.64,2.91,3.49,3.18-4.14,7.21-7.14,16.2-13.37,20.65-3.64,2.6-13.64-.37-18.8-3.81-19.68-13.13-29.21-4.08-38.55,13.59s-21.69,33.88-32.71,50.73c14.08-30.77,22.27-65.31,51-87.41-8.92-7.44-16.92-6.28-23.79,9.47-8.73,20-20.57,38.61-29.49,58.53C1639.57,285.46,1643.47,293.12,1644.56,299.52Z"/><path class="cls-1" d="M1839.3,1978.13l-23.93,19.53c-5,3.14-10.18,6.08-15,9.57-8.35,6-19.43,11-9.81,24.59,8.63,12.23,17.8,21.09,33.17,10,4.87-3.53,9.1-8.44,14.47-10.66,6.12-2.53,13.19-2.76,19.84-4q1.13,10.88,2.24,21.75l.85-.77c-34.71,27.8-34.7,27.8-6.67,62.39q8.6,10.62,17.07,21.33c21,26.54,21,26.51,46.29,5.35,9.91-8.28,19.31-17.46,30.26-24.05,5.64-3.4,14.17-2,21.4-2.77-1.37,7.83-1.1,16.49-4.55,23.26-4,7.83-11.27,14-17.11,20.87l1.2-1.47c-13.65,9.5-27.62,18.57-40.89,28.57-21.92,16.52-34.84,15-52-6.34-27.67-34.37-55.8-68.37-83.46-102.75-4.1-5.1-6.66-11.43-9.93-17.2l-7.94,6.53c10.15,19.84,20.25,39.71,30.46,59.52,15.68,30.42,31.76,60.65,47.08,91.25,13.86,27.69,6.11,41.32-28.79,49,2.91-5.61,5.19-10,7.51-14.42l-.58.62c22.68-7.33,18.11-22.28,10.14-37.51-24.25-46.36-48.85-92.53-73.23-138.82-13.85-26.32-10.5-47.61,12.49-67.94a654.91,654.91,0,0,1,55.3-43.8c5.49-3.89,14.64-2.63,22.11-3.73Q1838.31,1967,1839.3,1978.13Z"/><path class="cls-1" d="M315.71,1812.09c-8.28,2-17.78,2.05-24.62,6.34-21.89,13.71-42.91,28.83-64,43.76-9.9,7-19,10-27.6-1.48-8.75-11.62-6-19.82,5.78-28.31,46.86-33.77,92.72-68.94,139.85-102.31,16.95-12,31.32-4.45,30.37,14.91-.29,6.1-8.06,13.36-14.19,17.39-27,17.81-27.8,33.4-.6,52.14,3.68,2.53,11.31,1.89,15.92-.07,7.57-3.24,14.48-8.35,21.1-13.42,9.9-7.57,17.09-6,25.1,3.55,9,10.77,5.05,17.68-4.16,24.45-32.48,23.89-65.12,47.57-97.42,71.71-15.22,11.37-29,25-45.05,34.82-7.27,4.45-18.62,2.2-28.12,3l.85.75c-12-11.91-10.4-21.62,3.24-31.73,29.79-22.1,58.9-45.13,91.77-70.47l-28.71-25.43Z"/><path class="cls-1" d="M517.69,1909.13c-1.45,2.79-3.28,6.95-5.65,10.77-32.87,52.95-65.95,105.76-98.62,158.83-8.82,14.33-19.26,19.26-33.62,8.42-14.74-11.12-4.6-21.16,2-31.2,8.38-12.7,16.43-25.62,25.18-38.06,8.19-11.65,6.86-20.05-2.49-31.87-11.95-15.09-21.94-18.16-37.47-6.9-11.05,8-23.33,14.32-34.84,21.73-13.42,8.63-23.37,2.8-31.38-7.86-9.83-13.09.73-19.3,10.1-24.7,17.78-10.23,35.48-20.78,54-29.5,37.8-17.78,76.18-34.36,114.24-51.61C496.3,1879.43,518.71,1891.15,517.69,1909.13Zm-57.07,30.09L456,1933.7l-40.16,20.86c6.72,8.51,10.58,13.41,16.11,20.43C444.09,1959.86,452.36,1949.54,460.62,1939.22Z"/><path class="cls-1" d="M617.2,429c-12.66,8-25.6,15.66-37.93,24.17-18.53,12.81-31.22,11.68-45.12-5.62q-52.09-64.85-103.85-130c-13.67-17.22-12.71-30.36,4.53-45.32,15.47-13.42,31.55-26.37,48.63-37.6,5.79-3.8,15.46-1.7,23.35-2.29q-2.47,11.7-4.94,23.41c-8.32,7.56-16.37,15.45-25,22.61-11.39,9.41-14.38,18.87-2.05,29.66,13.76,3.6,26,4.26,38.61-6.3,3.63-3,17,5.66,26.64,9.23-.17-1.79-.84-9.11-1.5-16.44,19.37,5.94,22.51,17,8.76,30.77-23.88,24-23.76,23.91-2.68,49.82,9.41,11.56,18.21,23.61,27.29,35.44q-3.55,2.73-7.12,5.45l-58.73-78.14c1.21,8.05.18,15.78,3.47,20.45,13.56,19.2,28.65,37.31,42.74,56.16,7.91,10.59,15.61,12.94,26.33,3.43,11.92-10.57,24.18-21,37.49-29.62,4.72-3.05,13-.63,19.64-.7-.53,6.49.79,14-2,19.24C629.22,415.34,622,422.39,615.9,430Z"/><path class="cls-1" d="M2138.9,578.06c-18.63,19.6-37.34,39.11-55.85,58.82-10.9,11.61-21.43,23.57-32.18,35.31s-22.21,6.6-29.29-2.32c-3.08-3.89.79-16.46,5.15-22.43a248.19,248.19,0,0,1,32-35.48c14.78-13.65,10.63-25.54.47-39.37-10.85-14.76-21.17-4.44-32.13-1.39-19.33,5.36-35.15,27.13-58.76,12.79l.9.9c-12.12-12.73-10.29-22.45,6.26-29,23.28-9.19,46.28-19.17,69.91-27.35,31.47-10.9,63.57-20,95.11-30.67,14.58-4.95,28.86-13.12,41.07,3.27,13,17.46-5.1,25.83-12.2,36.66-9.41,14.34-20.77,27.41-31.3,41Zm-12.49-44.55-43,16.24C2095.49,571,2106.64,566.52,2126.41,533.51Z"/><path class="cls-1" d="M1384.45,46.62c-2.17,5.39-5.5,10.6-6.34,16.18-7.16,47.42-13.85,94.9-20.74,142.35-1,6.77-.27,15.14-4,19.82-5.15,6.43-13.81,10.06-21,14.89-4-7-11.89-14.43-11.19-20.94,5.5-51.48,12.67-102.79,19.24-154.16.89-7,1.26-14.07,2.09-23.68-26.36,19-42,14-49.73-14.36-1.27-4.65,8.2-17.68,12.32-17.51,37.24,1.55,74.45,4.65,111.5,8.76,5.63.63,15.26,9.74,14.59,13.36-1.39,7.53-8.45,14-17.41,27.09l30.49-23.79c7.5,19.58,2.15,29.58-20,26.71-23.41-3-30.3,5.85-32.66,27.9-5,46.93-12.79,93.57-19.57,140.3-3.88,26.7-12.51,31-46.73,18.17,38.71,1.36,37.48-22.87,40.47-45.35,6.82-51.16,14.7-102.17,22.16-153.25Z"/><path class="cls-1" d="M867.75,211.92c3.07-.79,7.68-3.3,9-2.12,15.65,14,21.23,43.25,12.75,63.46-13.21,31.46-52.11,50.08-86.64,41.56-13.07-3.22-26.2-6.22-39.3-9.32l-.18-10.2c10-3,19.76-7,29.94-8.72,20.08-3.36,40.13-7.12,45.86-30.29,4.29-17.35-11.27-35.72-34.38-45-21.15-8.47-43.06-15.74-62.84-26.76-27.83-15.52-35.43-46.42-20.74-72.68,13-23.19,50.75-36,74.85-26.22,3.53,1.43,8.81-1.45,13.34-2.35,6.56,23.6-.89,33.12-24.63,32.83-13.19-.15-30.91-7.65-35.84,13.47-4.62,19.79,8.78,29.41,24.15,36.21,13.16,5.82,27.46,9.2,40.35,15.51,18.7,9.17,36.59,20,54.79,30.15,0,23.77,0,47.51,0,69.91C886.11,260.42,886.29,243.42,867.75,211.92Z"/><path class="cls-1" d="M1580.07,88.07c-15.53-5.59-31.44-10.33-46.36-17.22-5.21-2.4-8-10.09-11.88-15.36,6.2-3,13.61-10,18.4-8.46,23.88,7.43,47.88,15.42,70.24,26.46,17.63,8.71,17.4,21.2,3.6,36.93-19,21.72-37.53,43.93-56.88,65.37-19.2,21.28-39.17,41.87-61.45,65.58,15.87,6.81,29.72,12.13,43,18.65,9.11,4.48,26.89,3.9,20.26,20.45-2.63,6.56-16.41,8.64-24.8,12.61,14.1,8.83,28.17,7.9,38.41-13.42,4.43,23.32-4.12,33.87-23.36,27.78-27.39-8.67-54.49-19.17-80.09-32.1-8.83-4.46-14.1-18-18.69-28.38-7.32-16.57,6.28-23.66,16.31-33.31,39.76-38.25,78.63-77.44,117.82-116.27Z"/><path class="cls-1" d="M2391.54,1239.81l-9.75-26.66c9.36,5.68,15.84,7.42,16.38,10.29,4.59,24.29,9,48.71,11.26,73.29.54,5.83-6.93,12.47-10.85,18.66-49.71,78.46-115.53,97.8-195.8,49.08-33-20-46.93-75.8-34.31-113,1.07-3.18,4.34-7.89,6.59-7.89,4,0,10.4,2.26,11.36,5.08,2.83,8.29,5.08,17.4,4.69,26.06-1.53,34.18,14.19,56.56,45.17,68.82,37.92,15,74.7,12,108.91-10.26,22.48-14.62,26.55-36.49,22.59-62.1C2364.1,1247.34,2371.6,1238.7,2391.54,1239.81Z"/><path class="cls-1" d="M1962.92,1832.39c3.47-33.45,7.08-36.61,35.47-32.74,7.46,1,14.65,3.86,22.08,5.26,6.42,1.21,13,1.57,23.66,2.77-3.82-13.07-6.52-22.88-9.56-32.58-3.18-10.14-10.11-20.57-9-30.14,1-8.29,10.84-15.55,16.78-23.26,5.53,4.54,14.82,8.27,16,13.76,14.1,64.61,50.4,111.69,107.76,144,8.7,4.9,23.59,11.17,13.36,28.06-7.71,12.73-15.77,18.16-28.67,7-1.15-1-2.57-1.65-3.72-2.64C2094.38,1866.68,2033.53,1839.67,1962.92,1832.39Z"/><path class="cls-1" d="M2379.5,1461.89c-3.71-13.6-7.43-27.21-12.08-44.24,8.12-2.75,21.37-2.57,20.16,13.89-2.49,34-9.31,67.63-14.66,101.37-.4,2.48-3.25,4.58-9.05,5.84q3.39-23.34,6.79-46.68l-4.29-.8c-2.88,14-6.22,27.88-8.53,42s-9.49,17.08-22.64,14c-62.18-14.63-124.47-28.79-186.75-43-13.94-3.17-15.21-12.3-13.44-24.3,2.24-15.14,12.16-15.84,23.55-13.37,52,11.31,104,22.9,156,34.34,6.49,1.43,13,2.56,21.24,4.16,2.45-16.68,3.16-31.94,7.36-46.18,2.51-8.51,9.5-20.75,16.21-22,16.66-3.1,9.28,12.57,11.52,20.74.58,2.1,1.38,4.13,2.08,6.19Z"/><path class="cls-1" d="M315.4,1661c-15.09-28.18-48.95-38.37-87.22-24.84-25.48,9-46.87,24.14-61.91,47.43-16.15,25-15.19,46.29,1.3,71.33,7.64,11.6,11.86,25.45,17.63,38.29l-6.8,4.92-19.4-8.64-24.46-33.73c-16.49-36.48-11.89-70.74,10.82-103.12,32.38-46.2,89.7-67.27,141.51-52,22.86,6.73,65.09,55.68,67,78.24.27,3.18-2.26,9.45-3.36,9.42-5.62-.15-12.9-.11-16.45-3.46-7.44-7-12.91-16.16-19.19-24.42Z"/><path class="cls-1" d="M1233.76,152.29Q1240.09,82.66,1246.4,13l6.18-.11c.82,5.12,2.69,10.33,2.29,15.36-4.72,59.93-9.78,119.84-14.78,179.76a20,20,0,0,1-1.1,4.43c-4.53,13.76-4.61,37.08-24,31.29-11.8-3.53-25.24-25.64-25.43-39.57-.59-43.25,4.74-86.59,7.91-129.89,1.39-19,3-38,4.74-56.92,1.17-12.9,7.71-18.35,21.32-17.25,15,1.2,14.33,10.89,13.6,21.09-3,41-6.1,82-9,123-.21,2.92.66,5.91,1,8.87Z"/><path class="cls-1" d="M238.4,1069.93c-.92-8.6-1.83-17.2-3.19-29.93-10,41.77-10,41.66-49.47,34.86-54.77-9.43-109.52-18.95-164.39-27.76-12.2-2-17.17-7.29-16.89-19.48.32-13.67,7.88-17.14,19.49-15.3,51.1,8.1,102.16,16.44,153.25,24.58,9.44,1.51,19,2.47,28.05,3.63,3.75-21.64,6.4-40.74,11-59.36.65-2.64,10.76-2.95,19.12-5,.89,13.76,1.65,25.43,2.41,37.11,5.24-17.55,14.49-36.15-12.18-46.93,13.82-9.73,26.43-10.23,26.6,7.16.31,32.31-3.75,64.66-6,97Z"/><path class="cls-1" d="M2310.33,1671.46c-10.56,26.47-26,23.82-49.2,13.3-51.1-23.21-103.79-43-156.37-62.84-15.42-5.8-17.74-14.33-13.85-28,4.14-14.53,13.63-13.82,25-9.36q68.9,27,137.9,53.78c9.75,3.8,19.46,7.68,32.1,12.67,4.56-15.8,8.51-29.32,12.35-42.86,3.34-11.79,6-26.76,22.25-21.46,5,1.64,5.58,17,8.18,26.11Z"/><path class="cls-1" d="M400.53,651.86c-9.85,12.92-20,12.29-32.72,2.92-39.65-29.34-79.86-57.93-119.94-86.7-6.63-4.75-13.68-8.92-21.68-14.1-7.71,10.24-13.25,20.54-21.55,27.61-5.48,4.66-14.92,4.69-22.58,6.79-.26-7-3.32-15.73-.3-20.85,16.92-28.74,35.16-56.72,53.29-84.73,5.76-8.91,12-19.38,25.19-10.79,13.75,8.92,4.41,18.14-.32,27.24-1,2-1.29,4.3-1.91,6.46l.73-.68c-12.82,11.12-9.29,20.1,3,29,41,29.63,82.15,59,122.1,90,8,6.17,10.86,18.86,16.09,28.54Z"/><path class="cls-1" d="M313.77,812.05c-10.14,9.47-20.11,9.3-32.87,3.28-51.35-24.22-103.29-47.2-156.53-71.33-6,11.93-10.3,24.13-17.75,34-3.76,5-13.17,5.67-20,8.3-1.75-6.4-6.56-13.87-4.74-19,10.86-30.7,22.84-61,35.33-91.11,4-9.73,7.46-25.59,22.55-18.17,5.76,2.84,5.85,17.21,8.53,26.33l.64-.84c-14,17.09-8.66,27.73,10.34,36.34,44.66,20.22,88.64,41.92,133.32,62.1,14.08,6.37,22.29,14.71,20.64,30.71Z"/><path class="cls-1" d="M500.75,521.55c-10.08,11.31-20.59,22.28-30.12,34-9.69,11.95-18,13.49-29.92,1.93q-67.24-65.24-135.8-129.08c-10.75-10-11.08-18.94-2.16-29.45,9.69-11.41,18.17-3.74,25.22,2.75,39.21,36.08,78.48,72.13,116.68,109.28,13.47,13.09,21.83,13.33,30.72-3.51,3.87-7.34,8.41-15.59,15-19.87,6.36-4.13,15.69-3.7,23.71-5.27-.44,6.62-.19,13.39-1.56,19.81-1.08,5.08-4.17,9.72-6.35,14.54Z"/><path class="cls-1" d="M1897.17,519.51c-10.24-11.16-19.85-23-30.91-33.29-10.26-9.53-10.21-17.42-.42-26.74,46.33-44.08,92.18-88.67,139.27-131.92,4.82-4.43,18.4-4.25,25-.74,11.9,6.32,7.59,16.39-.51,24.38Q1976,404,1922.21,456.73c-7,6.86-14.53,13.21-24.89,22.57,12.26,10.14,22.12,18.95,32.67,26.85,10.35,7.75,17.47,17.05,7.67,28.17-2.46,2.8-14.76-2-22-4.76-6.31-2.39-11.86-6.77-17.74-10.28Z"/><path class="cls-1" d="M1581.38,2331.1l-14.47,21.62c-7.16-5.37-18.59-9.36-20.83-16.31-19.74-61.39-37.84-123.3-56.45-185-4.5-15,6.3-19.67,16.7-21,6-.79,17.43,3.67,18.74,8,18.21,61,35.09,122.29,52.22,183.56.61,2.16.4,4.54.56,6.81Z"/><path class="cls-1" d="M214.7,891.28c11.12,6.11,23.23,11,33,18.74,6.71,5.32,10.18,14.71,15.1,22.28-8.81,1.87-18.41,6.94-26.27,5-19.76-4.91-39-12.4-58-19.94C139.8,902,101.35,885.79,62.69,870.15c-11.46-4.63-20.93-9.41-14.85-24.85,6.2-15.73,16.47-11.85,27.77-7.46Q145.44,865,215.38,891.75Z"/><path class="cls-1" d="M703.74,622.71c19-41,79.38-55.28,104.9-30.39-15.36,43.47-67.95,69.66-108,50.44l29.94-24.11-1.26-2.76Z"/><path class="cls-1" d="M2179.7,1922.49c16.39-34.3,16.39-34.31-11.57-54.61-3.69-2.68-7.11-6-11.17-7.87-61.46-28.84-78.81-86.72-95.6-145-.54-1.9.42-4.23,1.42-12.42,6.89,8.51,13.4,13,14.55,18.53,14.36,69.45,55.32,117.69,115.82,152.5C2214.27,1885.82,2210,1901.28,2179.7,1922.49Z"/><path class="cls-1" d="M148.27,684.3c12.86-14.92,8-27.92-6.88-40.16,27.66.53,33.73,7.64,23.49,29.54-9.24,19.75-2.33,28.24,15.42,36.17,45.85,20.47,91.2,42,136.44,63.83,18.57,8.94,19.66,32.2,2.64,43.69-.46.31-3.68-3.46-5.61-5.32l-.56.56c10.87-16.81,6.46-27-11.94-35.25-45.77-20.62-90.5-43.53-136.32-64-14.76-6.6-20-14.91-16-29.88Z"/><path class="cls-1" d="M258,505.71c15.7-13.43,26.42-27.44,1.48-45.58l5.89-3.45c6.75,4.25,16.52,7.08,19.38,13.16,2.68,5.7.55,17-3.83,22.07-15.48,17.84-9.06,27.85,8,39.68,39.93,27.68,78.87,56.82,117.72,86,21.16,15.9,19.78,28.51-4.75,45.72-.51-4.33-.94-7.89-1.37-11.46l-.58.67c14.89-12.44,8-21.51-4.26-30.43-40.94-29.74-82.12-59.19-122.15-90.12-7.44-5.74-10-17.81-14.8-27Z"/><path class="cls-1" d="M2148.63,946.5c11.14,31.26,29.69,56.57,58.7,73.36,40.21,28.21,81,10.86,122,3-35.24,18.17-71.35,32.11-112.11,17.8-50.39-17.69-71.76-58.79-87-104.62l4.84-4.74Z"/><path class="cls-1" d="M1090,242.32c27.63-2.69,30.57-20.08,30.53-42.2-.11-54,1.51-108,2.72-162,.21-9.56,1.78-19.1,2.72-28.65l6.1-.81c1.71,7,5,14.06,4.88,21-1.13,60.83-3,121.65-4.41,182.48C1131.81,243.37,1123.91,249.69,1090,242.32Z"/><path class="cls-1" d="M1573.43,2361.39c20.61-20.17,14-39.54,8.57-58.58-14.89-51.73-30.13-103.36-45-155.08-1.41-4.89-1.41-10.19-2.94-22.13,7.1,8.22,11.51,11.1,12.6,14.93,18.13,63.43,36.66,126.77,53.18,190.63C1605.25,2352.19,1598.64,2358.6,1573.43,2361.39Z"/><path class="cls-1" d="M248.9,1939.32l-.85-.75c7.92,17.34,18,16.58,32.13,5.87,42.41-32.2,85.48-63.52,128.4-95,7.07-5.19,14.67-9.66,22-14.47l4.19,4.54c-5.3,5.21-10.07,11.13-16,15.52q-70.51,52.44-141.43,104.32c-16.61,12.15-27.49,7.44-43.65-20Z"/><path class="cls-1" d="M215.38,891.75q-63-28.38-126.07-56.74C81.8,831.65,74,828.86,67,820.58c6.49.61,13.57-.27,19.36,2.06,57,23,114.1,45.75,170.52,70.11,26.17,11.29,29.06,21,17.53,39.87-9.91-26-32.23-41.47-59.77-41.4C214.7,891.28,215.38,891.75,215.38,891.75Z"/><path class="cls-1" d="M2114.58,852.52c7,15.7,17.44,18.58,33,10.87,50.9-25.2,102.15-49.7,153.34-74.3,7.74-3.71,15.94-6.46,23.93-9.66.77,1.74,1.55,3.48,2.32,5.23-5.5,3.35-10.76,7.19-16.53,10-56,27-112,54.18-168.35,80.54-21.16,9.9-33.89.88-37.35-25.65l10.48,3.82Z"/><path class="cls-1" d="M2176.14,1228.89c19.43-6.28,30.28.82,29.83,17.28-.87,31.87.7,60.67,35.49,76.08,28.26,12.52,56.58,15.52,87.4,6.39-33.79,32.21-106.44,10.48-124.28-20.1-4.33-7.42-6.39-17.33-6.16-26C2199,1261.71,2202.3,1240.65,2176.14,1228.89Z"/><path class="cls-1" d="M314.87,1660.43c1.79,26.53,18,38.21,46.67,39.47-13.92,14.24-24.6,13.34-35.57,3.78-2.23-2-3.77-4.75-5.44-7.28-31.78-48.22-70.22-56.6-119.75-26-5.43,3.35-10.68,7-19.33,12.69,30.1-47.41,86.54-55.33,133.9-22.1Z"/><path class="cls-1" d="M367.28,2089.43c38.57,15.71,42.18,14.8,66.7-23.92,26.73-42.21,52.41-85.09,78.59-127.66,2.29-3.73,4.86-7.31,10.21-9.77-.93,3.81-1,8.18-2.94,11.35-33.21,53.43-65.76,107.3-100.45,159.75C403.65,2123,382.61,2119,367.28,2089.43Z"/><path class="cls-1" d="M2138.09,578.85l50.55-46.05,2.16,1.19c-13.4,16.73-26.19,34-40.32,50.09-31,35.32-62,70.66-94.32,104.78-17.44,18.43-34.58,12.6-44.8-12.74,11.3,2.73,23.82,9.64,34,7.12,10.57-2.61,20.3-13.19,27.92-22.34,22.52-27.06,43.83-55.14,65.61-82.83C2138.9,578.06,2138.09,578.85,2138.09,578.85Z"/><path class="cls-1" d="M1635.83,97.19c-4,31.69-99.35,139.06-125.67,142.39Z"/><path class="cls-1" d="M2327.66,1493.61l-176.81-38.08c.4-2.11.81-4.22,1.21-6.33,60.23,6,119.4,17.53,177.32,35.54C2328.81,1487.7,2328.24,1490.65,2327.66,1493.61Z"/><path class="cls-1" d="M2278.81,1637.77l-172.19-67.15C2132.18,1565.42,2263.67,1614.16,2278.81,1637.77Z"/><path class="cls-1" d="M1345.24,2293.33c0,8.56,1.13,17.31-.21,25.65-3.74,23.18-8,46.29-13,69.23-5.67,26-22.11,33.52-54.56,20.92,41,.41,43.12-26,47-52,3.18-21.48,7.95-42.72,12-64.06Z"/><path class="cls-1" d="M198.75,1031.88,20.83,1002.75l.9-6.33c59.93,4.43,119.46,11.69,177.79,27.42Q199.13,1027.86,198.75,1031.88Z"/><path class="cls-1" d="M1917.27,483.67q61.29-63.62,122.56-127.24l4.12,4.1C2002.9,402.76,1964.78,447.89,1917.27,483.67Z"/><path class="cls-1" d="M331.53,381.71l134.4,121.38-7.26,8.05-132.89-123Z"/><path class="cls-1" d="M986.56,254c18.35-1.37,20.83-15.07,22.25-29.18,2.89-28.6,5.44-57.23,8.59-90.7,4.63,7,8.18,9.82,8,12.37-2.75,34.54-3.88,69.47-10.66,103.25-1.73,8.61-21.82,13.54-33.47,20.15l-7.6-9.93,13.57-6.5S986.56,254,986.56,254Z"/><path class="cls-1" d="M1861.13,2048.12l-.85.77,13.63-28.86c12.92,2,18.69,13.23,8,26.75-4.16,5.27-9.71,9.6-15.11,13.71-12.12,9.2-13.63,18.81-3.21,30.55,9.05,10.19,17.48,20.95,25.74,31.79,4,5.3,7.07,11.36,10.55,17.08l-6,4.22c-16.77-20.79-33.92-41.29-49.85-62.71-2.2-3,.43-11.12,3-15.65C1850.71,2059.3,1856.34,2054,1861.13,2048.12Z"/><path class="cls-1" d="M315.2,1811.69l11.52,17.12c-14.18,5-28.06,7.54-39.44,14.32-18.79,11.22-35.8,25.4-53.87,37.87-23.68,16.35-32.26,12.86-43.84-21.87,17.81,25.29,33,18.54,50,5.82,24.75-18.49,50.82-35.2,76.23-52.77C315.71,1812.09,315.2,1811.69,315.2,1811.69Z"/><path class="cls-1" d="M1676.45,2299.7c21-5.81,21.23-17.88,11.52-34.55-14-24.11-27-48.83-40.43-73.29l4.6-3.62c3.5,3.75,7.84,7,10.35,11.33,11.88,20.38,23.58,40.89,34.74,61.68,17,31.63,12.23,40.92-26.64,49.55,2.72-4.9,4.64-8.34,6.55-11.77Z"/><path class="cls-1" d="M2023,2089.13c23.94-24.55,5-38.17-10.73-52.81q-19.14-17.79-37.49-36.42c-4.73-4.81-8.39-10.67-12.54-16.05l5.76-5.16c25.8,25.4,54.21,48.76,76.37,77C2056.59,2071.3,2033.58,2078.61,2023,2089.13Z"/><path class="cls-1" d="M2310.33,1671.46l18.36-58.61c12-14.58,9.72-28.23-6.15-42.35,16.5-2.22,30-1.53,25.73,15.86-7.87,32.21-19.1,63.6-29.24,95.24-.71,2.23-3.91,3.66-8.7,7.87Z"/><path class="cls-1" d="M42.08,1497.73c3.26,30.08,21.65,24.85,39.58,20.12,19.82-5.23,39.51-10.9,59.35-16.06,6-1.56,12.36-2,18.55-3q2.43,3.74,4.87,7.46c-3.52,1.27-7,2.8-10.56,3.77-26.34,7.17-52.61,14.6-79.08,21.23C46.06,1538.42,38.93,1531.89,42.08,1497.73Z"/><path class="cls-1" d="M537.78,2068.13c-19.27,27.14-38,54.7-58,81.26-11.8,15.64-20.93,13.05-42.57-12.56,30.89,23.46,39.72-2,52.52-19.51,13.49-18.45,27.58-36.47,41.4-54.68Z"/><path class="cls-1" d="M294.74,1998.22c18.8,20.72,36.52,14.38,54.9.82,7.87-5.8,16.73-11.4,26-13.83,7.64-2,16.54.77,28.41,1.71-24.72,12.47-44.28,21.89-63.41,32.11C318.18,2031,303.58,2025.56,294.74,1998.22Z"/><path class="cls-1" d="M2184.75,709.8c-31.91,15.84-63.33,32.8-96,47-13.13,5.71-23.65-10-23-37.42,12.91,32.5,30.51,26.92,51.45,14.49,20.32-12.08,42.4-21.22,63.71-31.64Z"/><path class="cls-1" d="M474.8,308.06c-12.33-10.79-9.34-20.25,2.05-29.66,8.65-7.16,16.7-15,25-22.61,16.78-5.5,19.2-16.73,11.42-32,21.57,8.4,23.79,16.93,8.62,30.85-7.75,7.11-17.59,12.39-23.9,20.5-6.09,7.85-8.4,18.53-13.4,27.4C483,305.33,478.16,306.27,474.8,308.06Z"/><path class="cls-1" d="M1969.24,584.89l-.9-.9c4,14.45,13.82,14,24.92,9.55,14-5.67,27.8-11.94,41.89-17.42s23.07-1.06,26.38,15.3c-25-11.75-43.1,5.65-63.06,13-24.85,9.2-34.09,5.52-44.38-22.66Z"/><path class="cls-1" d="M1829.19,308.89c-24.06,33.19-44.09,63.09-67.19,90.37-3.71,4.38-21.2-2.9-32.31-4.8l1.17-6.68c9.54,0,20.91,3.24,28.16-.85,8.53-4.8,13.59-15.88,20-24.38,12.76-17,25.32-34.12,38.2-51C1818.11,310.34,1821,310.62,1829.19,308.89Z"/><path class="cls-1" d="M1007.08,2282.09l54.35-71.26C1069.87,2234.88,1049.2,2268.71,1007.08,2282.09Z"/><path class="cls-1" d="M1949,2153l-1.2,1.47c5.67-4.92,12.56-9,16.76-14.95,7.77-11,14-23.15,22.58-37.82,6.26,4.72,15.47,14.38,3.26,26.25-24.73,24.05-51.85,45.67-78,68.29l-4.55-5Z"/><path class="cls-1" d="M500.75,521.55l5.39-4.84c11.06-12,26.81-22.41,11.89-44.33,15.64.35,27,6.65,19.77,18.2-17.19,27.45-38.38,52.4-58,78.36L474,564.52Z"/><path class="cls-1" d="M1897.17,519.51l.75-.23c5.36,5.36,9.89,12.21,16.26,15.72,9.73,5.36,20.73,8.41,31.87,12.7-4.16,16.79-9.07,19.13-25.54,5.48-20.46-17-40.29-34.71-60.25-52.29-2.72-2.39-4.6-5.74-3.93-12.42Q1876.76,504,1897.17,519.51Z"/><path class="cls-1" d="M134.54,1755.78,159,1789.51,183.35,1815c-22.27,5.75-58.11-33-60.54-65.79Z"/><path class="cls-1" d="M617.2,429l-1.3,1c5.05-4.53,9.87-9.37,15.2-13.57,12.5-9.83,24.5-19.64,12.09-39.16,16.28,7.85,24.92,17.75,10.9,31-20.4,19.24-42.62,36.56-64.3,54.41-1.8,1.49-5.36.84-13,1.79Z"/><path class="cls-1" d="M266.13,1574.43c-30.77,23.09-65.85,13.11-77.51-25.15C213.3,1570.25,236.84,1582,266.13,1574.43Z"/><path class="cls-1" d="M1997.37,1927.7c-6.26-25.5-12.12-49.37-18.92-77,9.13,11.5,19.77,20.92,25.2,32.73C2010.69,1898.69,2009.55,1915.09,1997.37,1927.7Z"/><path class="cls-1" d="M1942.64,300.32c-7.1,28.87-38,45-63.63,29.52Z"/><path class="cls-1" d="M1060.27,2354.06c5.11-25.36,23.17-41.49,41.22-57.62C1095.47,2321.15,1080.37,2339.39,1060.27,2354.06Z"/><path class="cls-1" d="M1270.39,2267.53l-21.78-75.18,8.51-2.45q10.71,37.88,21.43,75.74Z"/><path class="cls-1" d="M939.7,44.56q11.37,35.53,22.75,71.07l-6.71,2.16q-12.13-35.54-24.28-71.08Z"/><path class="cls-1" d="M1372.33,2180.86l22.82,61.3-6.84,2.81q-12.7-30.1-25.39-60.2Z"/><path class="cls-1" d="M1042.59,28.54l22.89,55.51-6.29,2.72-25.27-54.3Z"/><path class="cls-1" d="M1070.11,2398.41q9.47-.66,18.93-1.29c-2.88,18.74-20.06,24.68-40.23,14.79L1070.7,2398Z"/><path class="cls-1" d="M596.21,1998.58l12.38,21.84c-25.48-19-34.92,1.14-48.59,8.67l.7.43c3.45-27.49,10.19-33.82,34.38-32.24C595.7,1998,596.08,1998.44,596.21,1998.58Z"/><path class="cls-1" d="M1120,929.84c-11.92-29.13-4.84-49.51,7.91-69.59,5.46-8.59,10.53-18,13-27.77,11.68-45.72,50.09-66.76,92.72-45.77,29.66,14.6,56.35-6.4,84.4-.52,1.69.36,4.47-3.53,6.46-5.69,31.6-34.29,75.11-39.25,111.62-12.68a64.52,64.52,0,0,1,24.25,70.93c-6.74,23.35-26.38,37.17-56.28,38-35,.94-66.48-5.21-85.56-40.26-3.15-5.78-17.06-9.32-25-7.93-8.87,1.55-21.07,8.08-24,15.52-19.41,49.23-53.78,65.3-102.29,43.58-13.9-6.22-21.09-3.36-27.66,8.58C1134.23,906,1128.4,915.43,1120,929.84Zm275.18-62c36.45.87,57.78-15.86,58.48-45.88.83-35.28-29.64-61.41-72.81-62.45-29.94-.72-55.43,24.38-55.47,54.62C1325.3,845,1353.73,866.85,1395.13,867.85Zm-137.71-27.17c-.1-32.11-20.9-51.9-53.91-51.31-30.6.54-54.88,24.37-54.1,53.08.75,27.31,23.48,46.32,54.7,45.74C1235,887.61,1257.51,867.58,1257.42,840.68Zm58.94-34.53c-1.69-2.39-3-5.74-4.15-5.66-15.87,1.15-31.71,2.76-47.56,4.26,1.21,5.64,3,16.25,3.53,16.19,14.74-1.75,29.4-4.34,43.92-7.51C1314,813,1315,808.7,1316.36,806.15Z"/><path class="cls-1" d="M1216.77,1098.52c3.78-1.18,8.88-4.48,11.1-3.11,5.56,3.43,9.82,9,14.6,13.69-4.65,4.6-9.53,13.16-13.91,12.91-7-.41-18.44-5.59-19.56-10.63-2-9.12-.13-21,4.61-29.05,2.79-4.74,17.27-8.48,21.17-5.56,10.69,8,23.7,18.71,26,30.31,2.11,10.51-8.66,23.6-19,34.23,5.63-18.68,23.75-36.93-2.79-51.76-5.77-3.23-15.62.85-23.6,1.56C1215.88,1093.58,1216.32,1096.05,1216.77,1098.52Z"/><path class="cls-1" d="M728.86,2092.71l6,13.73c-17.76-14.79-24.89-4.23-31.13,8.38-14.11,28.55-28,57.2-42.36,85.62-4.14,8.19-9.54,15.74-14.36,23.59l-6.08-3.21c6.39-13.92,12.59-27.94,19.22-41.75,12.14-25.27,25.57-50,36.47-75.76,7.8-18.48,18.1-19.59,33-9.87C729.56,2093.44,728.86,2092.71,728.86,2092.71Z"/><path class="cls-1" d="M57.1,1323.05c42.3-18.75,82.82-27.49,125.58-20.63,21,3.38,32.41,15.56,23.62,42.62-4.47-28.93-24-33.2-44.56-32C128.06,1315.13,94.51,1319.37,57.1,1323.05Z"/><path class="cls-1" d="M1391.47,837.06c-25.52-.11-41.32-11.45-41-29.44.27-15.47,14.57-27.23,33.06-27.18,23.23.06,43.35,14.51,43.77,31.43C1427.72,828.45,1415.33,837.15,1391.47,837.06Zm-.51-1.28c11.72-10.87,25.22-17.65,25.32-24.63.27-17.74-16.33-21.26-30-19.1-9.34,1.48-17.53,10.26-26.24,15.78Z"/><path class="cls-1" d="M1199.8,855c-17.52-.33-32.46-3.45-31.3-21.26,1.24-19,18-24.69,34.2-26.13,15.74-1.41,26.74,6.84,26.56,23.5C1229,852,1211.54,852,1199.8,855Zm-20.74-17.44c14.12,9.89,27.36,8.63,38.93-2.41,1.5-1.43-2.89-13.86-6.34-14.83C1196.76,816.1,1183.11,817.77,1179.06,837.54Z"/><ellipse class="cls-1" cx="1152.83" cy="1813.45" rx="17.04" ry="25.88" transform="translate(-569.4 528.32) rotate(-20.83)"/><ellipse class="cls-1" cx="1159.99" cy="1933.98" rx="17.04" ry="25.88" transform="translate(-611.78 538.75) rotate(-20.83)"/><ellipse class="cls-1" cx="1151.58" cy="1702.54" rx="15.44" ry="23.46" transform="translate(-530.05 520.64) rotate(-20.83)"/><ellipse class="cls-1" cx="600.14" cy="898.04" rx="5.21" ry="6.86" transform="translate(-474.79 792.38) rotate(-50.63)"/><ellipse class="cls-1" cx="602.08" cy="924.34" rx="5.21" ry="6.86" transform="translate(-494.41 803.5) rotate(-50.63)"/><ellipse class="cls-1" cx="581.73" cy="949.14" rx="5.21" ry="6.86" transform="translate(-521.03 796.83) rotate(-50.63)"/><ellipse class="cls-1" cx="622.53" cy="919.03" rx="5.21" ry="6.86" transform="translate(-482.83 817.37) rotate(-50.63)"/><ellipse class="cls-1" cx="639.76" cy="945.81" rx="5.21" ry="6.86" transform="translate(-497.23 840.47) rotate(-50.63)"/><ellipse class="cls-1" cx="611.05" cy="949.96" rx="5.21" ry="6.86" transform="translate(-510.94 819.8) rotate(-50.63)"/><ellipse class="cls-1" cx="564.1" cy="968.48" rx="5.21" ry="6.86" transform="translate(-542.43 790.28) rotate(-50.63)"/><ellipse class="cls-1" cx="551.44" cy="994.43" rx="5.21" ry="6.86" transform="translate(-567.12 789.98) rotate(-50.63)"/><ellipse class="cls-1" cx="580.33" cy="992.02" rx="5.21" ry="6.86" transform="translate(-554.69 811.43) rotate(-50.63)"/><ellipse class="cls-1" cx="600.78" cy="978.87" rx="5.21" ry="6.86" transform="translate(-537.05 822.43) rotate(-50.63)"/><ellipse class="cls-1" cx="628.78" cy="977.08" rx="5.21" ry="6.86" transform="translate(-525.43 843.43) rotate(-50.63)"/><ellipse class="cls-1" cx="654.99" cy="974.41" rx="5.21" ry="6.86" transform="translate(-513.78 862.71) rotate(-50.63)"/><ellipse class="cls-1" cx="642.01" cy="1002.24" rx="5.21" ry="6.86" transform="translate(-540.04 862.85) rotate(-50.63)"/><ellipse class="cls-1" cx="611.05" cy="1009.71" rx="5.21" ry="6.86" transform="translate(-557.13 841.65) rotate(-50.63)"/><ellipse class="cls-1" cx="584.07" cy="1013.68" rx="5.21" ry="6.86" transform="translate(-570.07 822.24) rotate(-50.63)"/><circle class="cls-1" cx="1495.04" cy="1091.41" r="13.9"/></svg>