<svg id="Layer_1" data-name="Layer 1" xmlns="http://www.w3.org/2000/svg" viewBox="0 0 2556.28 2372.09"><defs><style>.cls-1{fill:#a62b2a;}</style></defs><path class="cls-1" d="M908.92,1849.28c4.11-3.07,7.42-8.4,13.61-2.34,5,4.91,5.58,8,1.33,14.53-12.75,19.69-24,40.34-37.52,63.41,15.8-5,28.49-9.14,41.23-13.06,3.59-1.1,7.54-1.16,11-2.54,9.4-3.75,15.67,0,20.42,7.67-52.1,47.31-111.14,75.63-187.81,62.68-13.26-7.2-32.06-15.78-47.39-29.35l1.57-2.64,8.74,3.46,1.43-1.78-14.65-11.1c-.25,4.64-.41,7.56-.61,11.24-6.57-4.93-13-9.43-19-14.36-7-5.67-13.22-16-20.53-16.72-16.06-1.58-25-13.21-36.52-20.66-21.54-14-44.41-25.49-66.62-38.17-26.37-15-33.88-28-30.09-57.86,1.67-13.17,2.33-26.55,5.09-39.48,1.25-5.82,5.52-12,10.18-15.86,7.14-6,16.23-9.57,23.71-15.22,7.93-6,14.83-13.33,22.4-19.83,15.18-13,30.5-25.91,46.06-39.11l-9.33-13.88c30.82-.79,46.15-23,64.87-39.61,6.39-5.68,3.78-13.14-.67-19.23-7.25-9.94-16.29-18.85-22-29.56-7-13.1-21.06-19.9-27.08-33.41q-11.08-24.95-22.29-49.84c-.88-2-1.87-3.87-2.81-5.8l-3.05,1.18c5.38,13.7,10.76,27.4,15.61,39.73-25.6,8.61-51.51,16.71-77,26-29.16,10.69-57.72,23-86.92,33.55-15.86,5.74-24.21,17.49-24.76,32.38-.84,22.78-2.19,44.62-11.21,66.29-3.4,8.14,2.38,20.24,4.4,30.45,1.33,6.66,3.27,13.21,5.23,19.72,1.79,6,2.58,12,12.35,10.33,7.94-1.35,12.45,5.13,15.47,15.39l-18.7-7.34c-3.79,8.84,33,104,46,118.08,6.1-2.05,10.32-15.85,19.24-3.23l-6,11.27c10.64,3.92,20.69,7.66,30.77,11.34,26.4,9.62,48.39,24.54,60,51.29,1.68,3.88,0,9.1.77,13.53.65,3.54,3,6.74,4.12,10.23.38,1.15-.52,2.72-1,5l-40-18.16c8.77,22.32,16.21,41.24,24.88,63.32-6.16-.43-11.67.71-15.41-1.36-13.94-7.7-27-17-41-24.7-24.74-13.66-39.2-37-56.11-58-1.69-2.1-3.66-4-5.38-5.81a10.49,10.49,0,0,0-2.56.32c-4.19,1.73-8.35,3.54-12.53,5.33.7-4.7,1.53-9.38,2.05-14.1.33-3,1.45-6.92.06-8.94-26.44-38.18-49.31-78.24-67.23-121.21-7.44-17.83-18.79-34-26.17-51.89-9.13-22.09-29.69-33.18-43.93-50.2-14.78-17.65-31.86-34.75-31.36-60.16.13-6.65,4.21-13.3,6.82-19.82,3.23-8.07,8.1-15.72,10-24.06,2.69-12.15,9.34-19.73,21.09-21.48,20.11-3,36.65-13.67,54.33-22.4a339.36,339.36,0,0,0,56.49-35.29c4.4-3.37,11.54-3.15,17.47-4.6l-4.23-2.69c11.34-8.76,23.45-16.46,33.51-26.26A510.62,510.62,0,0,0,544.61,1417c9.68-12.14,16.75-26.38,24.94-39.72,6.71-10.93,3.73-22.2,1-33.42-10.69-43.94-29.38-84.67-49.75-124.77-4-7.82-6.73-16.27-10.13-24.64L495,1213c5.28-42.34-10.8-80.41-21-118.18l-27.17,11.31-2.29-2.59c17.05-32.74,12.36-67.8,12.31-103,17.33,3.3,34.51,7.24,51.9,9.54,6.76.9,15.14-.8,12.88-9.29l-48.5-13.88c.37,1,1.59,4.13,3.88,10.11l-39.61-13.59,4.47,7.61-13.11,2.08,7.06,9.12c-3.5.34-6.59,1.4-7.2.59-12-16-32.15-15.79-48-24.08-16.33-8.55-33.53-15.55-50.67-22.42-5.81-2.32-13.21-4.28-18.79-2.65-6.8,2-12,6.71-9.21,17.06,8.43,30.89,22,59.32,38.39,86.49,8.49,14.09,11,14.74,34.6,18.15-28.61,13-52.64,9.92-72.77-15.91-2.83,14.73,1.9,26.42,8.94,35.49s17.78,14.82,26.59,21.79c-5.53,4.29-20.9,4.37-30.56-4.63-14.59-13.59-27.61-29-40.29-44.44-6.16-7.52-10-16.91-17-29L240,1071.34c-12.64-18.84-15.41-38.56-17.69-58.33-1.09-9.46-.61-19.13-2-28.52-.47-3.11-4.15-6.94-7.28-8.25-37.69-15.66-49.31-50-41.12-85.7.7-3.06,5.82-7.53,8.53-7.3,12.85,1.14,25.5,4.3,38.35,5.59,32.55,3.28,64.59,15.22,97.5,9.73,18.68-3.12,36.93-10.83,54.42-18.64,20.67-9.23,40.36-20.7,60.38-31.36,12.85-6.84,25.54-14,39-21.4,1.07,3.68,2,6.9,3,10.23,15.91-8.86,19.19-29.11,7.32-43.83-1.26-1.56-3.93-4-4.63-3.61a11.06,11.06,0,0,0-4.94,5.42c-.64,1.82.3,4.39,1,6.47,4.25,12.46-2.21,18.31-12.58,23.66-27.65,14.27-54.44,30.23-82.3,44-19.36,9.59-39.35,19.14-60.15,24.16-14.39,3.47-30.71-.25-46.07-1.77-16.56-1.65-33.06-4.14-49.47-6.92-10.31-1.75-20.41-4.72-31.81-7.44V826.23c15.54,12,39.48,15.28,38.18,42.28,0-4.93.7-10-.13-14.77-2.24-13.07,6.34-13.54,15.5-15,17.46-2.72,34.81-6.14,52.14-9.63a19.6,19.6,0,0,0,8.82-4.66c2.06-1.85,4.1-5,3.95-7.5-.1-1.53-4.44-4.16-6.66-3.94-11,1.07-22.17,1.92-32.79,4.73-15.26,4-30.09,9.69-43.64,14.17l-40.46-34.12c16.06.36,18.79-18.4,29.34-28.44,11.21-10.68,25.74-20.19,19.69-41.43l10.7,4.91c1.88-6.7,3.73-13.26,5.79-20.59l8,4.45C270.94,702.53,284,688.44,297,674.31c8-8.66,6.08-20,4.66-29.28C298,621.28,305,603.58,325.37,591.3c18.19-11,36.42-22,55.22-31.83,3.31-1.73,9.5,2,15.17,3.4,5.76-3.86,14-7.76,20.05-13.87,6.79-6.9,12.39-15.34,17.06-23.89,11.43-20.91,29.52-29,52.24-29.65,6.36-.19,13-.5,18.9-2.6,3.87-1.38,6.28-6.4,9.8-9.22,22.31-17.86,14.79-44.26,19.17-67.2.4-2.08-2.86-4.77-4.19-7.3-2.11-4-4-8.14-6-12.22l2.32-1.68,8.52,4.45c5-23.69-3.11-49.26,9.71-71.38-2.5-9.75-5.06-19.79-7.58-29.66-7-.44-16.19,5.29-19.24-6.8,23-5.49,22.44-5.45,20.44-30.26-1-11.82.9-23.87,1.42-35.82.13-2.94,0-5.89,0-9.23l5.72-2.62c1,8.59,2.45,17.2,2.7,25.85.44,15.1.13,30.23.13,49.52,18.72-7.3,34.5-13.1,49.89-19.78,2.53-1.1,4.94-6.19,4.75-9.28-1.51-24.62-3.66-49.21-5.61-73.72l-52.12,27.65-9-4.63c1.71-1.85,5.34-8.55,8.1-8.21,10.41,1.29,14.95-8.09,23.06-10.65,6-1.89,11.34-6.13,16.78-9.62,12.73-8.19,13.89-14.51,9.38-29.78-5.65-19.14-9.15-38.93-15-58-3-9.77-9-18.61-14-28.59-12,13.08-22.51,24.18-32.46,35.77-1.75,2-2.06,6.38-1.41,9.29,4.15,18.72,9.25,37.25,13,56.05,1.47,7.45.24,15.44.24,23.57-2.86,0-7.08,5.25-7.91-6.08-1.73-23.51-7.51-46.72-11.75-70-.16-.88-1.64-1.53-1.76-1.64l-19.84,10.66-2.73-3.85c2.89-3.65,5.09-8.4,8.8-10.74,8.86-5.59,9.12-12.21,2.33-18.39-10.8-9.83-21.8-19.86-34.17-27.42-14.41-8.79-28.52-1.37-38.09,9.68-4.2,4.85-9.39,9-12.84,14.29-5,7.63-11.83,11.2-19.26,6.92-8-4.6-12.5-12.34-10.44-23C400.76,39.33,420.8,22.54,449,15.58,458.9,13.15,466.59,11.3,470.27,0c2,8.84,6.61,10.06,14.52,11,29.25,3.29,52.87,18.76,74.84,39.47l9.2-11.11,2.76.1c-.59,4.93-1.34,9.84-1.7,14.79-.2,2.71-.71,6.09.57,8.13,17.84,28.35,27.57,59.29,30.62,92.52.35,3.87,1.79,7.63,3,12.56l12.44-8.7,2.27,1.53c-1.43,3.69-1.8,9.18-4.48,10.78-12,7.16-9.95,18.32-9.16,28.87,1.49,19.76,3.72,39.48,5.68,59.6l9.91-2.26c-.78,4.15-1.15,7.71-2.14,11.08-1.82,6.21-5.88,12.35-5.72,18.44.93,35.9,3.31,71.76,4.08,107.66.26,12.29,8,9.82,17.85,10.51-4.74,4-8.27,6.14-10.73,9.19-2.13,2.67-4.18,6.27-4.3,9.52-.32,9-.52,18.18.89,27,2.52,15.85,4.74,32,10.08,47,3,8.3,12,14.44,17.58,20.78l-15.86,16.06,2.49,3.68c6.86-10.22,16.93-7.31,25.76-9.46,14.08-3.44,29.78-1.92,42.89-10.71,4.74-3.17,12.54-1.43,18-4,16.22-7.57,32.18-15.77,47.83-24.46,17-9.44,33.69-19.46,50.13-29.83,3.59-2.27,5.56-7.09,8.14-10.55,3.13-.93,7.23-1.32,10.39-3.25q17-10.38,33.42-21.75c2.06-1.43,4-5.11,3.73-7.45-4.65-35.57,7.4-64.83,33.81-88.13,25-22.06,54-30.12,87-22.29,19.46,4.6,30.87,18.3,40.93,33.91,1.62,2.51,3.17,5.07,4.84,7.74,8.7-8.13,8-8,4.55-24-2.36-11.08-2.91-22.66-3-34,0-3.78,2.89-9.06,6.06-10.88,2-1.14,7.46,2.24,10.48,4.69,14.73,12,20.17,28.43,21,47.87,14.32-4.48,27.85-8.87,41.48-12.94,16.69-5,33.51-7.16,51-3.74,19.19,3.75,32,15,37,33,5.15,18.52,8.29,37.71,10.87,56.8,1.46,10.79-3.28,19.73-14.9,23.37-9,2.82-17.73,7.58-26.89,8.54-12.16,1.27-18-6.87-19.61-23.07-1.18-12.17-1.61-24.51-4.17-36.39-.71-3.3-8.71-8.24-11.83-7.31a261.21,261.21,0,0,0-70.56,33.35c13.1,13.76,19.1,30.09,13.9,46.54-3.51,11.1-8.47,25.51-25.12,26.36l-11.6-14.87c-5,13.84-11,26.53-30.24,18.85,1.69,7.52,2.88,12.8,4.35,19.35l-17,6.9c1.64,4.9,5.27,10.23,4.57,14.91-1.18,7.84-8,11.25-15.87,11.44-22.08.53-43-2.68-60.43-18.11-2.26-2-8.67-2.46-10.95-.73C914.48,521.9,905,531,895,539.38c-5.4,4.56-10.71,8.66-2.54,15.45,1.08.9.85,3.36,1.23,5.12-.74.26-1.8.93-2.08.69-10.79-9.35-19.18-4.08-27.43,4.11-13.7,13.59-29.73,25.47-40.69,41-7.13,10.08-7.23,25.25-9.82,38.28-.28,1.4,3.58,5,5.88,5.33,22,3.55,44.13,8,67.39,1.3,2.81,10.73,12.41,10.13,20.88,10.44,29.9,1.1,59.84,1.18,89.72,2.53,42.24,1.92,84.14,6.95,125.42,16.39,1,.23,1.88.94,4.11,2.09-5.43,7.77-10.38,15.26-15.75,22.45-19,25.46-37.64,51.27-57.52,76a194.09,194.09,0,0,1-33.63,33.18c-6.48,4.9-16.9,4.59-26.63,6.89,1.93,9.5-4.2,13.72-14.91,15.92-28.18,5.79-56.14,11-85,4.38-21-4.79-32.73-20.24-45.83-35.31-9.7-11.17-22.63-19.52-36.19-30.86,1.2,21.81,2.54,39.42,3,57.06.27,10.39-1,20.82-1.36,31.23-.17,4.43-.85,9.15.36,13.26,8.14,27.67,6,31.15,45.21,30.34-4.53,4.55-9.14,9-13.55,13.66-3.71,3.92-7.19,8-10.77,12.08,5.75,4.18,11,9.73,17.39,12.17,7.37,2.8,15.79,2.86,23.75,4.11l.57,3.2-38,11.27c4.23,14.5,8.12,30,13.6,44.91,1.28,3.49,7.87,6.83,12.2,7.07a322.42,322.42,0,0,0,41.82-.22c11.84-.87,21.06-7.29,27.91-17.25,2.36-3.42,6.15-5.85,9.28-8.71,12,14.82,29.7,16.28,44.83,1.69,12.61-12.16,28.24-17.76,43.67-24.16,2.79-1.16,6.32-.52,10.13-.75l-22.47,24.19c35.71-7.77,68.87-14.52,101.77-22.33,17-4,33.49-10,50.26-14.93,3.44-1,7.14-2.26,10.57-1.91,2.61.26,5,2.85,7.44,4.45,1.54,1,3.53,3.33,4.46,2.95,7.54-3.09,14.86-6.69,22.27-10.1,2.72-1.26,5.38-3.09,8.24-3.54,13.52-2.12,27.09-3.89,40.65-5.7,6.54-.87,13.39-3,19.55-1.74,3.27.65,5.58,5.33,9.48.78,1.25-1.47,2.79-2.69,5.45-5.21,19.88-3.46,42.48-6.39,64.54-11.58,13.9-3.27,26.93-10.1,40.49-14.94,4.31-1.54,9.08-1.78,11.53-2.23,2.76,7.65,3.59,15.26,7.72,20,5.28,6.11,12.19,2,18.88-.85,5.37-2.29,12.06-1.49,20.94-2.32l-13-3.92c3.08-7.52,7-7.39,14-2.76,12.51,8.23,25.82,14.84,41.94,13.52,6.17-.51,12.62,2.44,18,3.62,5-.57,9.63-1.1,14.3-1.65,6.23-.73,11.49,3.32,18.72,1.49,8.88-2.25,19,0,28.54.85,17.35,1.54,34.65,3.49,51.35,5.21l5.89,11.3L1646,947q-1.76-4.89-3.5-9.77l1.78-1.47c2,2.23,4.09,4.45,6.72,7.3,5.47-6.7,12.22-8,19.12-.45,6.55-7.42,13-.15,19.33.48,7.78.77,15.36,3.34,23.11,4.69,2.19.39,4.66-.78,8.26-1.47.41,2.85.7,6.2,1.47,9.44.23,1,1.86,2.37,2.72,2.29a43,43,0,0,0,7-1.81c-1-2.36-2-4.72-2.87-6.86l33.77,4.23c.39.05.77.15,1.15.22l-.8-2h0c21.11,4,41.92,10.89,63.91,6.61,4.55-.89,9.22-1.13,14.64-1.77.06-.14.41-3.12,1.78-3.71,11.62-5,23.43-7,36.19-3.64,12.45,3.27,26.39,2.71,37.66,8.07,16.58,7.89,31.24,19.72,46.94,29.53,15.16,9.48,30.4,18.89,46,27.67,19.87,11.2,39.85,22.28,60.27,32.42,22.56,11.19,45.68,21.26,68.5,31.78,19.09-20.36,37.91-39.76,55.75-60,4-4.53,4.58-12.09,6.62-18.3.79-2.39,1.24-4.88,2.16-8.59,10.55,10.61,13.12,2.25,19.4-4.29,17.61-18.36,26.37-40.74,32.44-64.26,7.29-28.3,3.63-53.47-16.25-69.44-13.67-11-31.1-12.54-45,6.57-1.73,2.37-4.3,4.12-6.72,6.4-4.81-15.34,3.64-30.51,18.56-42.68,36.9-30.08,94.63-9.21,119.35,25.63,22.27,31.38,22.76,64.95,15,100-2.58,11.61-8.32,22.48-11.93,33.91-1.06,3.35-.89,8.22.91,10.94,1.19,1.79,6.73,2.14,9.59,1.1,12-4.34,26.07-19.33,25.76-34.35a30.23,30.23,0,0,1,.94-5.59c1.93.8,4.25,1.15,5.73,2.46,13.47,11.89,21.13,25.26,10.59,47.91-5.17,11.11-14.31,20.67-22.84,29.83-8.19,8.79-18.24,15.83-26.79,24.33-3.3,3.28-4.72,8.44-8,14.56,24.73,6.57,47.63,13.79,56.88,40.4-42.92-2.1-71.13,29-105.83,45-12.72,5.87-24,15-36.78,20.6-7.25,3.17-6,6.41-4,11.16,1.93,4.54,4.16,9,6.53,13.32,11.15,20.35,4.35,41.35-.39,60.93-9.14,37.78-13.26,75.85-10.52,114.24,1,14.09,9.67,27.64,15.26,42.56,1.06-1.22.58-.16,0-.12-10.51.62-12.56,4.45-6.3,13.54,4.1,6,9.32,11.14,14.42,17.12-3.93,2.56-15.11.7-13.86,11.69,1,8.88,2.85,17.66,4.82,29.45l19.68-21.2,3.62.23c0,4.62,1.68,10.29-.4,13.62-3,4.87-9,11.59-13.29,11.27-10.78-.8-8.67,5.23-7.8,10.73,2.69,17.16,4.36,34.68,9.27,51.21,3.37,11.34,9.64,23.1,17.9,31.42,12.71,12.81,28,23.15,42.74,33.78,3.37,2.43,9,1.66,13.54,2.52,16.05,3,13.84,17.91,18.22,28.43,1.25,3,.57,6.78,1.63,9.91,3.78,11.17,3.55,18.75-9.86,24.69-19.61,8.68-38.14,20-56.43,31.37-15.21,9.44-29.55,20.31-44,30.91-34.81,25.49-69.68,50.91-104,77-8.45,6.42-15.36,15-22.32,23.14-1.65,1.94-2,6.82-.71,9.17,10.59,19.68,21.74,39,32.59,58.58,3.11,5.59,5.79,11.42,8.84,17.46-6.37,8.52-12.89,14.62-25.62,6.35-13.87-9-29.41-15.48-46.58-24.26,6.32,18.13,12.26,35.18,18.5,53-6.07,7.32-12.23,11.11-22.73,3.09-12.57-9.62-27.95-15.71-40-25.83-15.7-13.18-29.87-28.34-43.65-43.59-9.23-10.21-5.44-37.08,4.81-46.4,35.42-32.18,70.94-64.24,106-96.8,16.74-15.54,32-32.66,48.91-48,12.71-11.55,27-21.41,42.12-33.27-18.26-5.81-34.91-10.68-51.26-16.4-26.66-9.34-53-19.53-79.72-28.8-31.76-11-63.79-21.29-95.56-32.3-8.89-3.07-16.93-9-25.94-11.23-22-5.48-44.35-9.49-66.51-14.3-6-1.29-11.74-3.32-18-5.12,4.06,10.17,13.34,10.61,21.73,12.08,18.26,3.19,36.6,6,54.82,8.89-6.6,44.55-14.36,87.36-18.82,130.5-2.82,27.17-7.1,55.29,7.86,81.53,5.67,9.94-10.26,29-21.52,27.63s-22.74-3.61-33.74-2.29c-2.23.27-7.52,2.09-11.3,2.84-16.45,3.29-33,8.32-49.52,8.52-23.29.28-45.18,7.3-67.87,10-8.73,1-17.22,3.91-25.92,5.42-13.37,2.33-20.53,11.23-22.39,25.21-2.47,18.43-6.26,36.7-9.75,55-.37,2-2.22,4.7-3.85,5.07-2.16.48-6.74-.72-6.87-1.68-1.23-8.61-10.72-8.68-14.57-15.12-6.5-10.88-15.25-20.44-23.16-30.47-1.38-1.74-3.28-3.07-6-5.52-2.89,21.12-5.42,41-8.51,60.7-.52,3.31-2.85,7.33-5.57,8.92-1.48.87-6.49-2-8.3-4.35-16-21.14-32-42.28-47.23-64-5.6-8-9-17.58-13.31-26.46-5.31-10.89-1.46-23.46,10-28,28.3-11.14,56.65-22.27,85.5-31.85,29.91-9.94,60.42-18.08,90.68-27,11.07-3.24,22.18-6.32,32.38-9.22-12.69-18.38-26.05-35.83-37.33-54.54-12.83-21.29-23.75-43.71-35.59-65.6-3.16-5.83-.37-8.73,4.84-10.33,20.59-6.32,40.94-13.82,61.93-18.28,12.55-2.66,26.12-.49,41-.49l-7.41-11.43c19.62-8.28,43.84-9,59.19-28.84-6.88,3.32-13.52,7.32-20.68,9.82-12.87,4.51-26.11,7.92-39.07,12.19-6.12,2-11.89,5-3.45,14.76-39.28-7.79-70.39,13.07-104.48,20.23-22,4.62-44.34,7.9-66.4,12.38-34.86,7.08-69.6,14.72-104.42,22-30.49,6.39-61,12.58-91.52,18.92-28,5.81-55.7,13.57-84,17.08-39.09,4.86-78.54,6.87-117.88,9.47-27.24,1.8-54.54,3.15-81.83,3.54-15.59.22-31.21-1.9-50.67-3.22l10.65,19.23c-21.6,9.47-23-17.71-37.89-22.21-2.16,5.61-4.29,11.12-6.69,17.36l-29.35-19.15-10.29,11.63-2.95-2.61,4.17-5.13c-29.5-16.85-59.25-26.26-91.63,1,.44-5.32-.3-9,1.14-11.45,4.59-7.68,3.85-12.49-5.24-15.63-10.38-3.59-22.16-5.88-30.33-12.47-13.23-10.66-30.55-11.39-43.61-21.33-5.5-4.18-10.06-2.62-15.35,1.2-20.48,14.76-41.25,29.1-62,43.52-25.46,17.73-50.62,35.94-76.68,52.76-8.81,5.69-12.41,12.86-13.9,22-2.31,14.07-3.62,28.32-6.25,42.32-2.59,13.79,1.24,23.39,12.88,32.13,25,18.75,48.65,39.17,73.15,58.54,6.19,4.9,13.44,8.45,21.27,13.28.3-4.69.53-8.36.77-12l2.61-1.65,9,15.93L909.2,1849Zm1090.42-509c4.83,6.12,3.9,16.47,1.89,27.86q-9.17,51.9-16.22,104.16c-1.84,13.62.81,17,17.94,20,10,1.74,12.3-7.9,13.4-15.16,5.62-37.22,10.63-74.54,15.85-111.83,1.48-10.63,8.29-16.42,18.26-16.84,7.8-.33,9.23,6.84,11.4,13.25,12.53,37,24.22,74.37,43.64,108.69,6,10.67,2.73,16.9-8.89,21.23-8.87,3.3-18,6-26.58,10-12.1,5.64-23.82,12.12-35.58,18.46-9.67,5.2-19.45,10.28-28.69,16.21-13.89,8.91-27.73,18-40.72,28.18-3,2.36-5,10.53-3.22,13.63,3.12,5.5,9.21,3.63,14.58.45,25.85-15.36,51.66-30.79,77.88-45.5,18.82-10.57,38.23-20.08,57.41-30,6.4-3.31,11.57-3.18,14.15,5,.52,1.67,2.54,3,4.06,4.19,16.29,13.16,35.08,19.88,55.83,21.5,16.06,1.25,32.09-10.09,34.35-24.33,2.9-18.33-4.5-27.69-23.11-34.36-18.46-6.61-36.16-6.39-54.42-.45-5.69,1.85-11.08,2-14.22-5.42-5.44-12.92-12.89-25.08-17.42-38.27-6.87-20-10.3-41.22-18.26-60.66-8.25-20.15-6.33-34.13,14.83-42.86.48-.2.36-1.56.86-2,24.11-22.65,35.68-50.65,36.45-83.58.7-30.18-13.7-63-50-64.8-15.55-.77-31.28.63-46.84,2-16.17,1.46-18.4,3.9-20.86,19.53-5.76,36.6-10.92,73.31-17.17,109.82C2008.19,1318.46,2003.52,1328,1999.34,1340.32ZM764.42,1190.93c2.3,4.12,4.44,6.13,4.24,7.88q-1.63,14.34-4.28,28.55c-3.14,17-7.19,33.76-9.73,50.8-3,20-4.22,40.29-7.22,60.3-3.73,24.91-9.12,49.59-12.5,74.54-1.36,10,6.16,15.57,15.77,17,8.58,1.27,12.75-2.65,14.13-11.53,3.2-20.72,7.55-41.25,11-61.93,4.13-24.87,7.51-49.87,11.86-74.7,1.34-7.59,6.22-14.67,7-22.24,1.7-16,1.07-32.34,2.72-48.4,2.31-22.56,5.77-45,8.86-67.47.88-6.37,3-13-5.66-15.82-9.17-3-17-3.57-23.45,6.57-11.36,17.76-24,34.68-36.37,51.8-3.58,5-7.87,9.39-13.56,16.12-13.73-36.89-33.57-66.8-69.92-75.91-36.54-9.17-68.36,2.86-87.91,38.1,7.83,9.2,13.49,10.68,20.58-1.74,5.84-10.23,14.22-15,25.13-18,11.61-3.14,23-7.55,34.86-2.68,3.31,1.37,7.64,6,7.49,9-.43,8.72-3,17.32-4.48,26-4.15,23.95-9,47.81-12,71.9-1.83,14.76-2.5,29.12-15.37,36.46,2.87,6.75,8,12.78,7.27,18.09-3.73,29.54-8.9,58.89-13.48,88.33-1.65,10.56-3.35,21.13-4.41,31.75-.89,8.86,6,15.81,16.09,16.68,8.68.75,15.68.18,16.88-11.79,1.36-13.6,5.72-26.87,7.84-40.42,5.28-33.89,10-67.86,15-101.79,2.27-15.4,5-30.74,7-46.18,1.75-13.55,2.57-27.23,4.35-40.78.39-2.94,3.11-5.57,4.76-8.35,2.49,2.36,6,4.26,7.29,7.15,5.81,12.65,11.06,25.55,16.37,38.43,4.6,11.16,13.76,12.94,20.84,3.51,6.42-8.55,12.22-17.57,18.18-26.46C754.22,1206.8,758.65,1199.81,764.42,1190.93Zm846,187.3,5.15-.32c.77,4.83,2.71,9.82,2.11,14.47-2.55,19.8-5.84,39.5-8.88,59.23s-6.38,39.7-9.18,59.6c-3.54,25.2-6.77,50.45-10,75.7-1.38,10.84,7.08,12.68,14.57,14.24,7.24,1.5,12.71-.66,14.08-9.46,2.31-14.75,5.71-29.33,8-44.08,4.56-29.74,8.31-59.61,13.13-89.3,2-12.43,5.93-24.56,8.34-34.24-.54-9.09-2.22-16.33-1.17-23.14,5.29-34.37,11.66-68.57,16.66-103,.79-5.39-1.81-14.37-5.77-16.69-7.79-4.55-17.16-4.36-23.1,5.52q-23.1,38.36-46.6,76.47c-1.74,2.82-4.86,4.79-7.34,7.15-2.21-3.05-5.44-5.8-6.44-9.21-4.36-14.87-7.54-30.1-12.22-44.87-3.09-9.77-4-21.17-18.77-23.24-12.21-1.71-21,2.69-22.88,15.22-2.86,19-6.16,37.83-9,56.78-3.65,24.5-4.89,49.63-11.43,73.31a114.1,114.1,0,0,0-4.29,33.77c.24,18.45-5.83,36.92-8.52,55.49-3.3,22.83-5.94,45.76-8.76,68.66-1.5,12.23,3.51,19.39,16.07,18.22,5.07-.47,12.49-8.82,13.49-14.52,5.24-30,8.58-60.43,13-90.64,4-27.74,8.56-55.42,12.86-83.12,1.79-11.56,3.49-23.14,5.35-34.7,1.62-10.09,3.4-20.15,5.12-30.23l4.46-.24c2.25,4.6,5.26,9,6.59,13.85,3.58,13,6.61,26.17,9.52,39.34,2.13,9.68,6.45,16.53,18.53,16.15C1592,1413.35,1601.24,1395.79,1610.44,1378.23ZM981.58,1210.6l3.36-.16c-1.72-2.49-5-5.07-4.89-7.45.94-16.16,2-32.36,4.22-48.38,3.13-22.2,5.49-44.51-2-65.94-4.89-14-12.61-28.46-28.28-32.51-43.28-11.16-82.72,1-99.11,49.31-11.3,33.33-14.93,67.87-18.14,102.52-.88,9.51-.48,19.11-10.59,22.89,2.05,6.5,5.5,12.28,5.38,18-.52,25.14-3.74,50.32-2.75,75.36.81,20.39,6.48,41,26.7,51.8s40.8,14.59,62.61,1.78c21.09-12.37,31.07-31.88,37.28-53.55,7.39-25.79,12.82-52.16,18.89-78.32C977,1234.21,979.15,1222.38,981.58,1210.6Zm280.24,144.7a48.66,48.66,0,0,1,0,5.3c-4.75,31.55-9.72,63.07-14.21,94.66-2.09,14.69-10.23,21.57-24.7,23.16-6.6.73-13,3.9-19.37,6.16-11.24,4-14.14,2-13.48-9.69.14-2.56,1.22-5.06,1.6-7.62q6.06-41,12-82c.28-2,.67-4.73-.37-5.9-7.44-8.35-28.24-4-30.27,6.91-5.1,27.15-9.25,54.47-13.62,81.75-2.64,16.45-1.69,34.66-23.41,40.39-2.46.65-4.51,6.27-4.87,9.77-.13,1.34,4.87,4,7.86,4.68,7.42,1.79,11.25,5.77,10.1,13.57-1.39,9.36-2.93,18.7-4.49,28-4.9,29.33-9.7,58.69-14.84,88-1.66,9.47,2.84,16.88,12.49,18.9,13.56,2.85,18.71.07,20.18-12,2.31-18.88,3.33-37.93,6.23-56.7,3.75-24.27,8.55-48.39,13.46-72.45,1.87-9.14,2.82-19.32,15-22.19a286.67,286.67,0,0,0,32.48-9.61c8.06-2.92,9.41.25,8.43,7.08-4.16,28.76-8.26,57.53-12.56,86.26-2.22,14.82-4.45,29.65-7.37,44.34-2.44,12.28.63,17.56,13.71,20.76,9.64,2.36,15.5-1.46,17.63-12.73,3.73-19.67,7-39.44,10.24-59.2,5.22-31.75,10.41-63.5,15.31-95.3q6.23-40.32,11.75-80.74c2.15-15.53,3.29-31.23,5.85-46.69,1.11-6.72-.49-9-6.91-8.49C1277.73,1354.24,1269.77,1354.76,1261.82,1355.3Zm201.53,30.07-1.64-.19a26.46,26.46,0,0,0,.76-4.53c0-19.5-3.68-38.86-19.74-50.72-24.61-18.16-61.67-11.07-82.48,6.12-24.85,20.53-29.8,51.2-35.78,80.53-3.7,18.11-3,37.27-7.84,55a117.65,117.65,0,0,0-4,43.44c1.61,18.61-5.56,37.81-5.61,56.76,0,19.12,1.66,39.42,13.92,55.27,24.24,31.35,75.89,30.21,98-11.73,11.91-22.58,16.89-49,23.75-74a279.07,279.07,0,0,0,8.9-47.83c1.39-15.11,14.9-29.28,4.07-45.45-.18-.28,1-1.25,1.07-2Q1460.13,1415.69,1463.35,1385.37Zm66.71-253.06c-1.27-3.24-3.26-5.87-3.15-8.43.52-12.52.93-25.11,2.61-37.51,3.13-23,7.2-45.84,10.71-68.78,2.85-18.59,5.79-37.18,7.9-55.86.47-4.16-1-10.6-3.89-12.71-13.89-10-28.48-2.24-31.17,15.19-5.19,33.64-10.1,67.37-16.85,100.72-2.5,12.41-8.81,25.3-22.1,30.24-10.2,3.79-22.23,12.69-32.11,2.07a51.54,51.54,0,0,1-12.55-27c-1.92-14.85-.86-30.23.26-45.29a343.88,343.88,0,0,1,6.21-45.21c1.66-7.89,4.33-14.21-5.88-17.65-11.9-4-21.91-1.42-24.16,7.95a187.61,187.61,0,0,0-5.12,33.37c-1.21,21.82-2.92,43.81-1.37,65.51,1.14,16,5.33,32.22,20.56,42.71,19,13.06,38.72,16.24,60.6,8.78,1.64-.56,8,5.3,7.69,7.52-5.26,36.21-10.91,72.37-17.48,108.36-.81,4.43-6.92,10.17-11.51,11.22-19.69,4.5-39.77,7.26-59.6,11.25-2.9.58-7.2,4.29-7.27,6.65-.09,3.56,2.07,8.8,4.92,10.42,3.78,2.15,9.26,2.41,13.82,1.89,26.6-3,53.16-6.53,79.72-10,9.46-1.22,13.91-6.71,14.32-16.32.31-7.25,1.64-14.47,2.63-21.68,1.93-14.2,3-28.59,6.14-42.52C1518.22,1168.18,1516,1147,1530.06,1132.31Zm-234.89-31.17c3.8-30,7.42-56.05,10.31-82.17,2.4-21.72,5.5-25.05,26.49-29.3a373.08,373.08,0,0,0,43.41-11.57c3.2-1.06,6.45-7.24,6.42-11,0-3-4.7-7.91-7.93-8.49a58.21,58.21,0,0,0-21.34.11c-16.28,3.31-32.25,8.09-48.48,11.65-13.25,2.91-26.4,5.35-28.79,22.07-.55,3.87-.56,7.82-1.09,11.7-3.93,28.76-7.7,57.55-12,86.25-2,12.88-1.91,27.15-20.13,30.36-3.6.63-7.24,8.51-8.19,13.55-.48,2.56,4.72,8.65,7.8,9,9.92,1,10.83,7.27,10.15,14.52-1.24,13.3-2.72,26.59-4.73,39.79-4.4,29-9.56,57.83-13.71,86.84-2.94,20.58,7.59,29.76,28.13,25.09,26.08-5.92,52.19-11.8,78-18.85,5-1.37,11.44-7.67,12-12.35.77-6.12-5.07-11.26-12.69-11.1-4.33.09-8.78,0-13,1-15.49,3.52-30.83,7.7-46.34,11.11-7.1,1.55-12-5.13-9.64-12.21,1-2.88,2.55-5.65,3-8.59,2.51-18.17,4.42-36.42,7.31-54.52.88-5.5,6.91-11.16,6-15.8-3.16-15.38,2.25-29.7,2.85-44.5.46-11.15,6.85-15.32,15.85-18.21,14.27-4.58,28.76-8.65,42.58-14.35,4-1.64,7.39-7.91,8.15-12.53.35-2.09-6.36-7.5-10-7.64-7.78-.29-15.74,1.49-23.48,3.13C1313.44,1095.86,1305,1098.48,1295.17,1101.14Zm392.5,307.53c7.82,10.95,2.54,23.93.52,36.78-5.4,34.29-10.89,68.56-16.23,102.85-1.7,10.91,4.1,17.46,17.58,20.09,10.88,2.13,12.76-6.79,14.72-13.6,2.48-8.62,3.21-17.77,4.45-26.72,3.54-25.56,7.67-51.08,10.21-76.74,2.17-22,7.42-29.57,29.66-30.52,15.73-.68,28.28-7.52,39.5-16.46,36.17-28.85,56.45-81.46,39.29-129.44-6.78-19-31-36.36-50-34-15.1,1.91-30.3,3.74-45,7.35-5.94,1.45-14.34,6.76-15.44,11.69-4.74,21.25-7.33,43-10.43,64.59-3.21,22.35-5.68,44.82-9.43,67.08C1696.1,1397.12,1691.48,1402,1687.67,1408.67ZM1868.74,1529c5.26-1.49,14.64-4.42,24.14-6.81,19.35-4.86,38.83-9.24,58.11-14.34,3-.79,6.73-3.93,7.44-6.68.82-3.14-.29-9.08-2.45-10.22-4.37-2.31-10.31-3.72-15.08-2.79-16.58,3.2-32.94,7.52-49.37,11.51-8.1,2-11.88-2.73-11.11-9.35,1.88-16.12,5.26-32.07,7.66-48.14,3.08-20.57,5.11-41.32,8.91-61.75,2.39-12.87,1.41-28.47,19.16-33.13,13.54-3.55,27.06-7.36,40.21-12.14,3.74-1.36,7.77-6.16,8.5-10,.42-2.18-5.15-6.73-8.81-8.12s-8.61-1-12.7-.11c-9.25,2-18.36,4.65-27.46,7.28-6.09,1.76-8.59-.54-8.33-6.54a96.4,96.4,0,0,1,.7-11.55c3.24-19.67,7.14-39.24,9.89-59,2.37-17,6.95-23.54,20.57-26,12.82-2.32,25.66-4.52,38.42-7.14,3.6-.74,9.07-2,9.91-4.35,1.37-3.9,1.3-10.64-1.17-12.93-2.75-2.55-9.09-2.61-13.49-1.76-23,4.39-45.67,10.06-68.7,13.91-10.09,1.69-13.59,6.86-14.84,15.71-4.13,29.41-7.72,58.91-12.86,88.15-2.4,13.62-2.45,30-22.06,33.56-2.86.51-6,6.57-6.53,10.39-.31,2.32,3.77,7,6.58,7.67,11.68,2.8,13,9.91,10.45,19.93-1.37,5.31-1.65,10.88-2.51,16.32-5.48,34.86-11.38,69.66-16.31,104.59C1843.1,1523,1848.53,1529,1868.74,1529Zm-868.5,12c-.34-4-2.16-10.54-1.16-16.6,2.86-17.44,6-34.92,10.66-52,4.23-15.57,6.35-32.67,21.18-43.2,22.24-15.79,45.62-17.34,53.8,9.13,3.22,10.43.66,22.53,1.69,33.78.43,4.77,2.43,12.59,5.24,13.34,7.4,2,16.86,4.89,21.59-5.69,8-18,6.72-36-2.51-52.87-5.47-10-13.6-17-26-20.36-18.07-4.79-35.4-3.27-52.79.69-14.9,3.4-27.57,10.52-37,23.72-16,22.31-19.47,48.29-25.05,74-3.18,14.62,1.72,32.22-12.62,41.32,1.79,6.48,4.65,11.81,4.43,17-.65,15.28-3.11,30.49-3.8,45.78-2,44.13,12.87,65.29,51.27,70.19,26.25,3.36,50-2.43,65.12-25.55,9.65-14.73,16.44-31.47,23.38-47.78,6.09-14.32,3.89-17.85-11.22-19.14-7.27-.62-15.62.11-18.41,9.35-2.73,9.07-5,18.27-7.38,27.45-6.16,24.24-25.72,39.73-49.36,38.29-4.24-.26-10.16-1.83-12.14-4.86-5.48-8.4-9.29-17.9-13.77-27,3.59-1.51,4.42-1.33,5.13-.94,4.7,2.58,4.71,2.6,8.17-5,.13-.28-.6-1-1.2-1.84l-9.51,2.5C988.56,1596.72,990.74,1569.85,1000.24,1541.05Zm125.81-360.26c-.29-.55,2.06,1.82,2,4.12-.31,10.06-.9,20.16-2.16,30.14-3.7,29.43-7.23,58.89-11.89,88.18-3.28,20.58,11,38.56,31.1,35.54,14.52-2.18,28.84-6.56,42.76-11.36,3.21-1.11,6.26-8.07,6-12.14-.2-3.4-5-8.91-8.3-9.27-7.71-.84-15.79.24-23.53,1.61-12.68,2.25-13.45,2-11.29-11.51,3-18.46,6.92-36.77,9.51-55.28,4.62-33,8.26-66.14,12.82-99.14,4.66-33.69,10.19-67.24,14.78-100.93a197,197,0,0,0,1.87-35.07c-.53-12.35-10.93-11.14-19.65-12.11-8.19-.91-10.64,3.27-11.69,10.29-1.65,11.11-4.16,22.1-5.69,33.23-5.47,39.74-10.35,79.58-16.28,119.26C1135.3,1163.88,1130.39,1170.85,1126.05,1180.79Zm-113.35,22.58c.43,2.44,2.3,7,1.79,11.21-3,25-6.79,49.81-9.79,74.76q-3.57,29.75-5.66,59.67c-.21,3,2.8,8.41,5.34,9.14,6.41,1.83,13.69,3.18,20.1,2,17.6-3.36,34.94-8.14,52.15-12.3.47-9.27,2.07-18.68-9.56-20.64-5.09-.86-10.74.23-15.9,1.43-12.31,2.85-18.37-3.17-15.77-15.44,1.93-9.12,2.09-18.64,4.34-27.65,3.83-15.34.11-32.79,12.54-45.81.89-.94,1.6-3.48,1-4.18-6.28-7.78-2.22-14.8-.64-23.21,4.18-22.27,5-45.14,7.85-67.7,1.7-13.64,4.84-27.1,6.88-40.71q5.3-35.34,9.84-70.79c.36-2.82-.72-7-2.71-8.77-9.12-8.26-29.67-2.81-32.39,9.13-3.28,14.43-4.73,29.28-6.82,44-5,35.21-9.74,70.46-15.12,105.61C1019.22,1189.46,1015.68,1195.49,1012.7,1203.37Zm884.11-16.59c-.36-3.46-.61-6.41-1-9.34-2.71-21.27-20.44-38.41-41.93-40.56l-51.43-5.11c3.3-4.72,6.64-10.22,10.69-15.13,14.37-17.44,21.77-37.07,17.25-59.6-4-20.12-14.76-37.22-27.76-52.82-3.35-4-6.63-9-13.36-2.93-6.31,5.74-2.2,9.05,1.13,13.22,1.65,2.07,3,4.35,4.52,6.55,10.71,16,17.16,33.33,13.08,52.67-6.33,30-25,52.39-48.41,70.42-18.23,14-38.27,25.67-57.5,38.38l-2.14-2.88c2.11-7.57,4.46-15.09,6.28-22.72,3.93-16.51-4.66-36.66-19.25-45.34-6.89-4.1-13.76-6-20.86,3,4.35,3,8.36,5.66,12.13,8.58s9,5.41,10.6,9.31c6.69,15.89-1.83,45.82-15.15,57.53-24,21.1-52.84,30.12-83.86,33.43-13,1.38-26,1.9-39,2.81,1,10.76,8.15,11,15.51,11.3a235.18,235.18,0,0,0,80-10.84c44.79-13.94,85.74-36.45,126.83-58.69,21.64-11.71,44.63-21.41,70.12-18.88,17,1.69,31.54,8.05,36.45,27.1,1.29,5,4.44,9.49,6.68,14.12ZM869,545.84c-13.51-27-26.2-52.43-39.56-79.14-11,7.76-22.06,16.25-33.8,23.59-18.45,11.54-37.4,22.29-56.1,33.43-8.61,5.13-14.45,11.86-7.49,21.82,9.3,13.31,19.43,26,29.27,39a8.06,8.06,0,0,0,2.83,1.88c8.62,4.38,17.6,8.17,25.79,13.24s14.34,4.57,21.27-2c11.58-11,22.83-22.65,35.93-31.51C856.71,559.63,863.6,551.47,869,545.84ZM790.3,1589.06c-12.08-14.56-23.89-37.24-22.71-48.86.9-8.91,5.51-17.46,8.61-26.13,1.76-4.93,2.58-12.76,5.93-14.11,13.25-5.39,27.1-10.87,41.16-12.38,26.91-2.91,45.73,12.18,60.17,33.18,17,24.76,29.09,51.43,30.26,82.17.35,9.18,7.07,7.94,16,6.82-4-22.35-6.27-44.37-12.14-65.39-7.65-27.41-9.89-53.77,5-79.1,6.41-10.94,2.75-16.13-6.5-19.58-16.27,17.88-24.79,38-22,59.64-16.69-10.55-33.79-22.26-51.79-32.36-9.11-5.12-19.71-7.84-29.92-10.58-3.48-.93-7.84,1.38-11.79,2.21,2.42,8.62-5,6.92-9.13,8.89-25.74,12.2-42.91,30.78-45.07,60.64-1.93,26.71,13.12,44.28,31.52,60.6ZM1171.07,424.3c5-.5,8.69-.62,12.3-1.28,20.88-3.85,26.52-10,24.85-30.92-1-12.72-3.09-25.92-7.77-37.68-9.51-23.89-25.1-32.24-45.35-30.88-19.31,1.31-38.21,8.15-57.38,12.13-15.9,3.29-24.73,13.47-30.12,29.77,7.43-1.34,13.9-2.7,20.43-3.61a21.13,21.13,0,0,1,8.14.63c.58.16,1.12,4.26.43,4.73a19.35,19.35,0,0,1-7.91,3.41c-8.35,1.16-16.81,1.55-25.16,2.7-8.93,1.23-17.66,3.21-23.78,9.59,6.54,2.13,11.7,3.92,16.93,5.49,2.87.86,6.2,2.59,8.71,1.85,27.92-8.22,53.4-24.41,84.21-24.15l-5.71-10.71c4.37.05,7.41,1.26,9.58,3.38C1172.06,376.84,1168.43,401.47,1171.07,424.3ZM544.92,298.63c0,32.27-.15,64.73.31,97.18,0,2.53,4.28,7,6.8,7.17,16.33,1.08,32.78.6,49.08,2,7.4.63,7.54-1.43,7.19-7.57-1.62-27.91-2.78-55.85-3.82-83.79-.4-10.79-.06-21.61-.06-34.08-11.58,5.26-19.6,9.8-28.19,12.55C567.36,294.9,557.93,296,544.92,298.63ZM550.32,687c-1.38,2.47-1.73,3.53-2.42,4.27-17.45,18.66-16.11,42.86,3.9,54.43,5.48,3.16,13.09,3.52,19.73,3.56,11.61.08,23.58.44,34.75-2.11,16-3.65,32.08-8.75,38-27.35.55-1.73,4.07-2.47,6.15-3.75,6.8-4.19,7.46-14.46,1.7-18.82C641,688.71,629.68,680.29,619.23,671c-7.79-7-15.23-10-25.63-6.22-21.91,7.93-44.11,15.1-66.19,22.58-3.51,1.19-7,2.42-10.52,3.63l.79,2.69ZM880.21,433.89c-11.7,8.14-21.1,15.82-31.57,21.56-7.11,3.9-6.45,8.29-4.26,13.83,5.16,13,10,26.27,16,38.86,5.1,10.55,11.83,20.31,17.83,30.4,13.73-11.9,25.91-22.23,37.8-32.87,5.24-4.68,11.43-8.84,7.17-18.16-1.9-4.15-.32-9.89-.32-15.56C904.94,464.64,888.56,454.19,880.21,433.89ZM608.42,417.45c-21.15-.95-41.43-2-61.73-2.55-1.45,0-4.21,3.09-4.31,4.87-.78,13.31-1.74,26.68-1.07,40,.21,4.28,4.4,11.1,8,12,20.68,5.33,41.61,4.36,62,.4C610.3,453.21,609.38,435.6,608.42,417.45ZM459.27,574.53c-13.69,4.44-25.24,8.33-36.89,11.92-8.24,2.55-10.91,7.08-9.9,16.19,1.22,10.93,3.58,23-4.72,32.6-15.57,18.13-31.29,36.16-47.33,53.87-16.46,18.18-33.79,35.57-49.93,54-7.53,8.61-13.15,18.9-19.63,28.42l2.64,2.12c4.8-9.26,10.72-15.29,22.27-15.94,8.28-.47,16.28-6,24.41-9.32l-1.61-4L313.22,750l-1.5-2.91c6.48-5.29,12.3-11.93,19.6-15.57,10.83-5.39,22.71-8.66,34.14-12.83-.46-1.37-.91-2.73-1.36-4.1l-21.43,4.75c-.55-1.27-1.1-2.55-1.66-3.82l44.82-24.17-.88-1.86L360.84,699c10.12-22.12,32.94-23.57,48.76-35.7l-22.56,6c-.7-1.5-1.39-3-2.09-4.51l47.36-27.39-.37-1-23.58,8.28-1.79-3.52c7.14-4.26,14-9,21.48-12.66a120.13,120.13,0,0,1,23.34-9c6.75-1.69,8.13-5.24,8-11.29C459.06,597.56,459.27,586.85,459.27,574.53ZM523.83,92.68c9.31-10.59,19.22-21.84,29.07-33.15.85-1,2.06-3.1,1.74-3.45-7.44-8.11-13.67-19.19-23-23.3C517,26.3,500.08,25.22,484.51,20.52,475,17.63,471,22.05,468.14,29.31A85,85,0,0,0,463,46.64c-.37,2.25,1.73,6.33,3.77,7.29,6.87,3.2,15.28,3.93,21.17,8.25C500.27,71.23,511.41,82,523.83,92.68Zm-62.29-73c-17.52,3.13-32.13,7.94-42.19,20.84-9.32,12-21.73,23-14.76,41.17,3,7.9,7.19,8.61,12.87,3.34C424.13,78.83,430,71.67,437,65.94,451.38,54.17,456.19,37.81,461.54,19.68ZM659,870.94c3.53,38.67-13.47,67-34.7,93.72-2.65,3.34-5,6.94-8.6,12C664.3,972.39,682.56,922.45,659,870.94ZM807.58,678.46l-2.78-.05c-.87,5.38-2,10.73-2.56,16.14-1.21,12.42,4.27,18.92,17,18,25.8-1.85,51.66-3.8,77.27-7.38,40-5.58,79.79-12.5,120.41-11.47,5.31.14,10.66-1.43,16-2.21-.14-1.26-.29-2.52-.43-3.78-16.66,0-33.47-1.45-50,.29-39,4.13-77.83,9.87-116.75,14.77-15.4,1.93-30.84,3.74-46.32,4.84-7.52.54-13.18-2.29-12-11.88C808.15,690.05,807.58,684.22,807.58,678.46Zm-256-128.07-29.9,9.25c7,.92,13.38-.11,19.73-1.53s12.68-3.24,20.25-5.21c-3.24-4.06-5.86-7.26-8.4-10.53-2.71-3.51-5.34-7.08-8.5-11.28,35.73-1.67,35.73-1.67,48.12-15,.89,9.19,6.1,10.27,11.16,4.84C607.7,517,609,510.8,611.12,506c7.28,3,9.8,13.26,20.11,10.38l-21.92-20.12-10,22.3L590,508.1c-2.55,2.94-4.59,6.72-7.75,8.63-6,3.61-12.35,7.36-19,8.76-7.09,1.5-14.75.34-26.11.34ZM1887,1036.05c.16,1.14.31,2.28.46,3.42,4.74-1,9.77-1.35,14.13-3.23,7-3,11.58-4.21,16.36,4.39,5.86,10.54,14,19.9,21.81,29.23,2.13,2.55,6.56,3.17,11.71,5.48-9.14-10.23-17.42-17.76-23.59-26.74C1912.39,1026.11,1912.77,1025.85,1887,1036.05ZM294.24,959.8c-20.85,11.52-40.52,22.4-64.14,20C248.24,988.85,287.12,977.26,294.24,959.8Zm471.29,23,2.8.83L787,929l-5.11-1.57Q773.73,955.12,765.53,982.77Zm175.3-644.69,43.77-16.93C963.9,317.81,951,324,940.83,338.08ZM551.07,998.39l2.13-1.86-1.36-4,34.79-9.95c-.22-.52-.45-1-.67-1.55l-49.72,8.23Zm502.51-646c-3.74,1.63-6.79,2-7.59,3.49a97.2,97.2,0,0,0-5.77,14.8c-.09.27,3.6,2.37,3.85,2.09,3.13-3.43,6.34-6.9,8.65-10.88C1053.89,359.87,1053.26,356.83,1053.58,352.38Zm973,1511.7,26-3.27C2043.62,1850.56,2034.1,1851.58,2026.53,1864.08ZM511.05,651.06l5.07,4.65,19.81-20.3L532.68,632Z"/><path class="cls-1" d="M2040.13,1325c3-22,5.74-43.11,8.9-64.21,2.31-15.44,5.55-30.74,7.67-46.21,1.33-9.73,4.07-17.06,15.63-17.25,3.19,0,6.38-1.14,9.55-1.87,17.45-4,29.93,5.83,31,23.67,1.87,29.89-5.1,57.32-20.82,82.79C2082.12,1318.11,2057.15,1330,2040.13,1325Z"/><path class="cls-1" d="M2199.57,1496.1c2.68,12.53-6.26,20.47-13.77,27.11-3.65,3.23-14.2,2.39-19.31-.59-8.53-5-15.67-12.72-22.53-20.1s-1.83-14.44,4.68-16.57c12.37-4,25.54-7.24,38.43-7.48C2195.53,1478.3,2201.56,1485.66,2199.57,1496.1Z"/><path class="cls-1" d="M857.21,1318.13c1.78-21.88,2.41-42.2,5.27-62.19q9.81-68.52,21.65-136.75c2.66-15.24,7.48-31.1,22.68-38.91,8.27-4.25,18.43-7.17,27.58-6.81,13.75.55,17.07,13.53,18.47,24.08,4.14,31.24-.74,62.21-5.19,93.16-2.65,18.48-3.59,37.21-6.14,55.71-4.36,31.6-9.49,63.11-21.7,92.87-5.08,12.41-29.33,25.76-41.65,21.23-6.39-2.35-12.53-9.67-15.4-16.22C859.06,1335.83,858.71,1325.88,857.21,1318.13Z"/><path class="cls-1" d="M1435.16,1381.86q-7,42.93-13.92,85.87c-.16,1,.9,2.18.79,3.21-2.21,20-3.41,40.2-7.09,59.94-4.11,22-10.1,43.72-16,65.37-5.18,19-20.44,26.48-38,30.06-8.58,1.74-20.79-12.24-22.69-24.72-4.47-29.41.3-58.08,5.61-86.94,3.46-18.81,3.54-38.22,6.29-57.19,2.31-16,6.39-31.65,9.51-47.5,2.35-12,3.4-24.27,6.85-35.9,4.5-15.18,13.53-27.18,29.6-32.5,21.26-7,34.6,2,36.17,24.91.33,5,.45,9.94.68,14.91Z"/><path class="cls-1" d="M1804.64,1293.55c-4.23,19.35-6.5,39.42-13.19,57.88-8.63,23.85-23.23,43.78-51.37,47.87-10,1.45-12.15-1.36-10.5-11.34,5.84-35.39,11.33-70.83,16.92-106.26,1.45-9.17,4.63-16.46,15.8-16.33,2.14,0,4.28-1.27,6.45-1.84C1789.57,1258,1804.54,1271.15,1804.64,1293.55Z"/><path class="cls-1" d="M642.37,699.41c2,16.87,2.15,17.36-23.44,26.36-22.63,8-45.16,6.5-67.47-2.88-9.07-3.82-8.59-12.66-6.23-16.66,2.82-4.76,5-12.44,16.61-10.91C588.26,698.81,615.21,698.28,642.37,699.41Z"/><path class="cls-1" d="M691.82,2275.88h21.95v35.5h41.31v-35.24H776.4v95.67H755.32v-41H714v41.27H691.82Z"/><path class="cls-1" d="M1187.16,2371.93v-96c18.8.77,37.47-2.22,55.73,3.12,20.61,6,32.43,20.65,33.43,41,1.1,22.27-9.29,39.5-29.19,47.27a60.53,60.53,0,0,1-18.59,4.43C1215,2372.39,1201.34,2371.93,1187.16,2371.93Zm21.54-18.46c9.56-1.19,18.91-1.4,27.71-3.7,11.4-3,17.32-12.18,17.77-24.32.48-13-4.92-21.94-16.12-26.78-9.42-4.07-19.25-3.2-29.36-2.94Z"/><path class="cls-1" d="M1681.6,2371.85v-96.08c19.89.8,39.77-2.59,59,4.13,18.52,6.46,29.21,20.79,30.17,39.93,1,20.68-6.92,36.67-26,45.79a63.07,63.07,0,0,1-22.3,6C1709.12,2372.53,1695.66,2371.85,1681.6,2371.85Zm21.45-18.94c8.37-.64,16.16-.62,23.71-1.94,12.46-2.16,19.89-10.38,21.64-22.52,1.87-13-3.2-23.67-14.09-29.09-9.94-5-20.53-4.16-31.26-3.69Z"/><path class="cls-1" d="M1032.11,2277c17,0,33.63-1.4,49.93.36,19.88,2.13,29.57,22,21.33,40.18-3.45,7.61-9.78,11.71-18.32,14l24.51,40.5c-8.58,0-16.1.18-23.6-.16-1.35-.06-3-2-3.84-3.51-4.92-9-10.11-17.84-14.26-27.16-2.94-6.61-6.91-9.16-14.5-6.91v37.37h-21.25Zm21.39,38.15c7.31,0,13.93.39,20.48-.11,6.14-.47,9.46-4.26,9.69-9.64.25-5.6-3-10-9.13-10.81-6.84-.86-13.81-.79-21-1.14Z"/><path class="cls-1" d="M2009,2277c17,0,33.61-1.4,49.91.35,19.88,2.14,29.58,22,21.34,40.18-3.45,7.61-9.78,11.71-18.32,14l24.51,40.5c-8.57,0-16.09.18-23.59-.16-1.36-.06-3-2-3.84-3.5-4.93-9-9.64-18.05-14.43-27.1-4.31-8.15-4.31-8.15-14.33-7.2v37.59H2009Zm21.3,38.1c7.4,0,14.19.41,20.91-.13,5.3-.43,9-3.56,9.31-9.34.27-5.25-2-9.56-7.22-10.44-7.48-1.26-15.17-1.34-23-1.94Z"/><path class="cls-1" d="M1854.18,2276.59h65.33v19.18h-44v17.83h41.27V2333h-41.07v19.78h46.23v19.29h-67.76Z"/><path class="cls-1" d="M950.73,2371.51c-2.31,0-3.66,0-5,0-6.22-.1-13.74,1.87-18.27-.93-4.18-2.58-4.9-10.41-7.68-15.64-.93-1.75-3.48-3.66-5.36-3.73q-14.86-.55-29.77,0c-1.86.07-4.39,2-5.3,3.7-2.76,5.26-3.55,13.9-7.55,15.62-6.21,2.67-14.44.71-22.52.71.9-2.26,1.67-4.33,2.55-6.36,12.27-28.12,24.64-56.2,36.71-84.4,1.72-4,3.86-4.95,8.08-5.43,9.08-1,13.47,2.18,17,10.76,10.85,26.61,22.84,52.77,34.39,79.1C948.81,2366.82,949.58,2368.76,950.73,2371.51ZM911,2333l-11.83-29.72L887.5,2333Z"/><path class="cls-1" d="M1479,2342.57l16.89,12.51c-7.49,13.55-27.4,20-48,15.71-21.93-4.51-37-21.71-38.76-44.27-1.86-23.78,9.82-43.57,30.44-51.59,20.25-7.88,43.08-3.71,54.24,10.47L1478.38,2298c-16.4-10.58-31.16-9.15-40.88,3.76-9.89,13.13-7.73,34.43,4.55,44.88C1452.73,2355.68,1467.36,2354.29,1479,2342.57Z"/><path class="cls-1" d="M1596.86,2372.09h-20.65V2276.4h20.65Z"/></svg>