<svg id="Layer_1" data-name="Layer 1" xmlns="http://www.w3.org/2000/svg" viewBox="0 0 8926.3 2384.33"><defs><style>.cls-1{fill:#fff;}</style></defs><path class="cls-1" d="M3942.82,1124.4v-426c-51.1,0-100.58-1.23-150,.46-30.62,1-44.3-7.63-42.15-41,2.76-42.83,1.36-86,.43-129-.56-25.95,8-37.27,36.44-37.21q546.49,1.2,1093,.74c86.36.06,163.6,26.73,227.63,85,78.62,71.58,84.7,169.21,14.05,249.71-30.17,34.37-66.95,63-99.68,93.21,28.52,16.21,61.62,29.66,88.22,51.11,91.31,73.67,89.36,232.15-2.41,306.55-52.23,42.33-112,64.62-180.33,64.55q-568.1-.61-1136.18.5c-31.91.09-42.86-8.61-41.15-40.78,2.51-47.29,1.58-94.83.32-142.22-.73-27.39,10.2-37,37.39-36.15C3839.06,1125.5,3889.77,1124.4,3942.82,1124.4Zm412.81,5.24c99.24,0,196.21,0,293.19-.12,4.31,0,9.68-.44,12.75-2.91,16.13-13,38.41-23.78,45.8-40.82,10.29-23.72-8.14-44.06-28.94-56.62-12.83-7.75-28.25-15.59-42.62-15.81-92.59-1.41-185.22-.72-280.18-.72Zm0-313.3c6.48.89,10.73,2,15,2,89.57.12,179.14.62,268.7-.11,38.75-.32,65.46-20.28,69.55-48.63,3.92-27.24-17.89-53.21-55.31-64.24-10.39-3.06-21.64-4.25-32.53-4.41-36.48-.52-73-.18-109.47-.18H4355.65Z"/><path class="cls-1" d="M831.53,1129.78V710.09c-53.38,0-105.32-1-157.2.41-25.77.69-35.62-8.23-34.82-34.27,1.46-47.4,1.92-94.93-.1-142.28-1.23-29.14,9.84-39.27,38.16-39.12,110.78.58,221.56-.08,332.33-.27,113-.19,226,.19,339-1,26.64-.27,45.08,8,62.41,28.91,123.79,149.47,248.78,298,373.48,446.67,6.12,7.31,13,14,23.14,24.66V709.9c-51,0-101.56-2.2-151.8.75-34.67,2-44.71-10.82-43.28-43.26,2-45.15,1.16-90.45.33-135.67-.47-25.9,8-37,36.55-36.79q264.19,1.71,528.41.15c29.35-.14,39.3,11.47,38.68,39.24-1.09,48.51-1.29,97.1.07,145.6.71,25-10.59,33.7-33.52,33.61-49.72-.21-99.45-.07-153.18-.07-.77,14.63-2,27.31-2,40q-.2,264.78-.1,529.55c0,66.1,0,66.11-67.65,66.11-140.69,0-281.38-.47-422.06.4-24.48.15-40.75-7.88-56.32-26.84q-206.88-251.94-415.32-502.62c-3.45-4.18-5.43-9.58-8.09-14.4l-6.93,4.31v319.67c54.81,0,108.71,1.17,162.51-.47,29.44-.9,42.23,7.44,40.6,39.2-2.41,47.31-1.11,94.85-.36,142.28.37,23-7,33.75-32.49,33.64q-275.84-1.15-551.67,0c-23.23.08-31.22-8-30.7-30.74,1.15-50.72.74-101.49.24-152.23-.22-22.21,9.08-32,31.82-31.72C723.58,1130.27,775.54,1129.78,831.53,1129.78Z"/><path class="cls-1" d="M7078.9,1129.68V709.34H6885.22c0-68.58-.83-133.22,1.35-197.75.21-6.09,19.22-16.15,29.77-16.51,57.54-2,115.16-1.56,172.75-1.8q559.84-2.29,1119.7-4.47c51.34-.2,51.36,0,51.37,51.6,0,92.65-.84,185.32.55,278,.41,27.52-5.36,39.1-36.41,38.18-76.35-2.26-152.82-.52-229.24-.61-9.75,0-19.5-1.38-32.59-2.37V708.14H7503.4V810c32,0,63.74,0,95.51,0,46.52,0,93.07.92,139.54-.49,24.85-.76,32.57,8.3,31.6,32.72-1.79,45.15-1.85,90.48,0,135.63,1.09,27-7.44,36.93-35.48,36.19-64.19-1.71-128.46-.53-192.7-.52h-37.65v111.38c8.82.93,18.21,2.75,27.6,2.76,135.13.18,270.26-.47,405.37.59,25.68.2,35.84-6.56,34-33.37-2.17-31.84.09-63.95-.6-95.92-.46-21.71,7.68-32.7,30.77-32.58q129.59.64,259.18,0c18-.09,26.37,6.45,26.31,25q-.45,160.49.12,321c.1,19.89-8.49,28.33-27.7,28-8.85-.16-17.72.21-26.58.21q-651.26,0-1302.53.78c-33.75.09-44.81-9.15-42.85-42.74,2.71-46.17,1.59-92.64.35-138.93-.62-23.25,8.25-30.89,31.1-30.37C6970.72,1130.5,7022.74,1129.68,7078.9,1129.68Z"/><path class="cls-1" d="M3000.07,1346.84c-127.05-5.69-252.94-10.49-374.36-51.13-109.91-36.8-207.11-95.11-269-194.14-114.27-182.73-47.1-379.35,104.75-491,96-70.62,207.61-103.63,324.59-114,146.87-13,294.33-13.14,440.37,11.45,106.15,17.88,204.05,56.94,289.39,124.2,166.49,131.2,179.81,305.29,79.31,473.28-75.05,125.46-194.4,191.23-334.65,216.31C3174.9,1337.15,3086.94,1339,3000.07,1346.84Zm193.74-421.47c-9.46-33.5-15.39-68.5-29-100.24-56.51-131.73-201.34-174.52-303.93-91.54-91.58,74.07-112.58,204.2-49.11,303.75,44.79,70.25,106.06,113.06,192.38,103.79C3113.26,1129.41,3185.41,1043,3193.81,925.37Z"/><path class="cls-1" d="M5946.67,1122.58h458.27c0-17.39,0-34.49,0-51.59.3-131.84-9.08-108.24,108.57-110,59.81-.9,119.64-.38,179.46-.06,39.63.21,44.9,5.3,45.2,43.15.78,97.07,1.55,194.15,1.73,291.22.08,41.6-4,45.23-45.56,45.24q-656.39.21-1312.79.73c-29.81,0-42.37-9.24-41.29-39.88,1.63-46.28,1.63-92.71,0-139-1-29.59,12-38.85,39.69-38.24,50.61,1.1,101.27.31,153.79.31V706.81c-50.72,0-100.24-1.91-149.53.67-32.94,1.73-43.47-11.07-42.55-41.87,1.34-45.2.86-90.47.19-135.69-.37-25.21,7.15-38.14,36-38q362.27,1.19,724.53,0c29-.08,39.27,10.9,38.4,39.17-1.44,46.3-1.57,92.72.23,139,1.16,29.71-11.07,38.2-39.3,37.24-50.69-1.73-101.49-.49-155.07-.49Z"/><polygon class="cls-1" points="8926.3 0 8926.3 1850.31 7260.28 1850.31 7260.28 1795.29 8871.28 1795.29 8871.28 55.02 55.02 55.02 55.02 1795.29 1643.96 1795.29 1643.96 1850.31 0 1850.31 0 0 8926.3 0"/><path class="cls-1" d="M3192.84,1899.44l-1.83,0L3134.43,2080h107.45Zm0,0-1.83,0L3134.43,2080h107.45Zm0,0-1.83,0L3134.43,2080h107.45Zm421.7-34.91h-24.37v119.29q58.5,0,74-17t15.52-43.13Q3679.7,1864.53,3614.54,1864.53Zm515.29,59.14q-14.47-25.76-42.54-38.34a140.57,140.57,0,0,0-57.92-12.55H4016V2136.2h14.25q36.1,0,75.07-21.82t39-104.11Q4144.32,1949.48,4129.83,1923.67Zm0,0q-14.47-25.76-42.54-38.34a140.57,140.57,0,0,0-57.92-12.55H4016V2136.2h14.25q36.1,0,75.07-21.82t39-104.11Q4144.32,1949.48,4129.83,1923.67Zm-515.29-59.14h-24.37v119.29q58.5,0,74-17t15.52-43.13Q3679.7,1864.53,3614.54,1864.53Zm-421.7,34.91-1.83,0L3134.43,2080h107.45Zm0,0-1.83,0L3134.43,2080h107.45Zm421.7-34.91h-24.37v119.29q58.5,0,74-17t15.52-43.13Q3679.7,1864.53,3614.54,1864.53Zm515.29,59.14q-14.47-25.76-42.54-38.34a140.57,140.57,0,0,0-57.92-12.55H4016V2136.2h14.25q36.1,0,75.07-21.82t39-104.11Q4144.32,1949.48,4129.83,1923.67Zm0,0q-14.47-25.76-42.54-38.34a140.57,140.57,0,0,0-57.92-12.55H4016V2136.2h14.25q36.1,0,75.07-21.82t39-104.11Q4144.32,1949.48,4129.83,1923.67Zm-515.29-59.14h-24.37v119.29q58.5,0,74-17t15.52-43.13Q3679.7,1864.53,3614.54,1864.53Zm-421.7,34.91-1.83,0L3134.43,2080h107.45Zm0,0-1.83,0L3134.43,2080h107.45Zm421.7-34.91h-24.37v119.29q58.5,0,74-17t15.52-43.13Q3679.7,1864.53,3614.54,1864.53Zm515.29,59.14q-14.47-25.76-42.54-38.34a140.57,140.57,0,0,0-57.92-12.55H4016V2136.2h14.25q36.1,0,75.07-21.82t39-104.11Q4144.32,1949.48,4129.83,1923.67Zm1311.88,0q-14.47-25.76-42.54-38.34a140.64,140.64,0,0,0-57.92-12.55h-13.36V2136.2h14.25q36.07,0,75-21.82t39-104.11Q5456.18,1949.48,5441.71,1923.67Zm0,0q-14.47-25.76-42.54-38.34a140.64,140.64,0,0,0-57.92-12.55h-13.36V2136.2h14.25q36.07,0,75-21.82t39-104.11Q5456.18,1949.48,5441.71,1923.67Zm-1311.88,0q-14.47-25.76-42.54-38.34a140.57,140.57,0,0,0-57.92-12.55H4016V2136.2h14.25q36.1,0,75.07-21.82t39-104.11Q4144.32,1949.48,4129.83,1923.67Zm-515.29-59.14h-24.37v119.29q58.5,0,74-17t15.52-43.13Q3679.7,1864.53,3614.54,1864.53Zm-421.7,34.91-1.83,0L3134.43,2080h107.45ZM1919.59,1557.25v827.08H7009.15V1557.25Zm985,654H2784.33V2036.7H2672.51v174.51H2551.36v-412.8h120.26v157.66h112.71V1798.41h120.28Zm372.88,0-18.55-64.45H3112.42l-20.21,64.45H2974.55l159-412.8h122.06l139.43,412.8Zm411.21,0L3591.93,2007h-1.76v204.25H3469.89v-412.8h156.35a325.55,325.55,0,0,1,93.32,13.88q46.55,13.89,66.37,43.3t19.83,61.15q0,38.34-22.23,63t-71.28,44.77l98.87,186.74Zm517.53-53.87q-64.15,53.88-183.08,53.87H3894.4v-412.8h133.19q111.36,0,177.08,52.88t65.7,152Q4270.37,2103.46,4206.23,2157.34Zm673.53,47.18q-45.89,14.94-102,15-100.66,0-168.16-54.54t-67.49-159q0-107.76,66.83-162.11t155.89-54.37q53.48,0,114.05,20.58v86.58q-47.22-17.9-61.24-20.24a185.65,185.65,0,0,0-30.09-2.31q-47.19,0-82.85,29.08t-35.63,100.13q0,74.38,34.51,103t85.75,28.59q41.9,0,90.44-24.54Zm208.91,6.69H4968.41v-412.8h120.26Zm429.44-53.87Q5454,2211.22,5335,2211.21H5206.28v-412.8h133.19q111.36,0,177.06,52.88t65.72,152Q5582.25,2103.46,5518.11,2157.34Zm429,53.87H5669.55v-412.8h260.16v79.65H5788.94v84h120.72v76.68H5788.94v91.22h158.13Zm307.9,0L6158.21,2007h-1.76v204.25H6036.17v-412.8h156.35a325.6,325.6,0,0,1,93.32,13.88q46.55,13.89,66.37,43.3t19.83,61.15q0,38.34-22.23,63t-71.28,44.77l98.86,186.74Zm-74.16-346.68h-24.36v119.29q58.5,0,74-17t15.52-43.13Q6246,1864.53,6180.81,1864.53Zm-781.64,20.8a140.64,140.64,0,0,0-57.92-12.55h-13.36V2136.2h14.25q36.07,0,75-21.82t39-104.11q0-60.8-14.47-86.6T5399.17,1885.33Zm-1311.88,0a140.57,140.57,0,0,0-57.92-12.55H4016V2136.2h14.25q36.1,0,75.07-21.82t39-104.11q0-60.8-14.49-86.6T4087.29,1885.33Zm-472.75-20.8h-24.37v119.29q58.5,0,74-17t15.52-43.13Q3679.7,1864.53,3614.54,1864.53ZM3191,1899.42,3134.43,2080h107.45l-49-180.56Zm1.83,0-1.83,0L3134.43,2080h107.45Zm421.7-34.91h-24.37v119.29q58.5,0,74-17t15.52-43.13Q3679.7,1864.53,3614.54,1864.53Zm515.29,59.14q-14.47-25.76-42.54-38.34a140.57,140.57,0,0,0-57.92-12.55H4016V2136.2h14.25q36.1,0,75.07-21.82t39-104.11Q4144.32,1949.48,4129.83,1923.67Zm1311.88,0q-14.47-25.76-42.54-38.34a140.64,140.64,0,0,0-57.92-12.55h-13.36V2136.2h14.25q36.07,0,75-21.82t39-104.11Q5456.18,1949.48,5441.71,1923.67Zm0,0q-14.47-25.76-42.54-38.34a140.64,140.64,0,0,0-57.92-12.55h-13.36V2136.2h14.25q36.07,0,75-21.82t39-104.11Q5456.18,1949.48,5441.71,1923.67Zm-1311.88,0q-14.47-25.76-42.54-38.34a140.57,140.57,0,0,0-57.92-12.55H4016V2136.2h14.25q36.1,0,75.07-21.82t39-104.11Q4144.32,1949.48,4129.83,1923.67Zm-515.29-59.14h-24.37v119.29q58.5,0,74-17t15.52-43.13Q3679.7,1864.53,3614.54,1864.53Zm-421.7,34.91-1.83,0L3134.43,2080h107.45Zm0,0-1.83,0L3134.43,2080h107.45Zm421.7-34.91h-24.37v119.29q58.5,0,74-17t15.52-43.13Q3679.7,1864.53,3614.54,1864.53Zm515.29,59.14q-14.47-25.76-42.54-38.34a140.57,140.57,0,0,0-57.92-12.55H4016V2136.2h14.25q36.1,0,75.07-21.82t39-104.11Q4144.32,1949.48,4129.83,1923.67Zm0,0q-14.47-25.76-42.54-38.34a140.57,140.57,0,0,0-57.92-12.55H4016V2136.2h14.25q36.1,0,75.07-21.82t39-104.11Q4144.32,1949.48,4129.83,1923.67Zm-515.29-59.14h-24.37v119.29q58.5,0,74-17t15.52-43.13Q3679.7,1864.53,3614.54,1864.53Zm-421.7,34.91-1.83,0L3134.43,2080h107.45Zm0,0-1.83,0L3134.43,2080h107.45Zm421.7-34.91h-24.37v119.29q58.5,0,74-17t15.52-43.13Q3679.7,1864.53,3614.54,1864.53Zm0,0h-24.37v119.29q58.5,0,74-17t15.52-43.13Q3679.7,1864.53,3614.54,1864.53Zm-421.7,34.91-1.83,0L3134.43,2080h107.45Z"/></svg>