<svg id="Layer_1" data-name="Layer 1" xmlns="http://www.w3.org/2000/svg" viewBox="0 0 1664.61 1436.38"><path d="M1550.36,730.4c-6.09,393.6-331.51,714.23-733.66,705.81-393.18-8.23-711.39-333.77-702.37-735C123.15,309,448.3-9.55,850.64.22,1242,9.72,1557.17,333.55,1550.36,730.4ZM832.4,51.08c-363.69-2-665,296.65-667.1,661.16-2.1,370,294.06,670.75,662.78,673,368.06,2.22,669.33-295,671.3-662.25C1501.37,352.08,1204.61,53.14,832.4,51.08Z"/><path d="M857.71,323.35c16.31-9.77,30-17.38,43.11-26,24.84-16.26,50.07-31.44,80.08-36.12q92.72-14.44,163.18,47.55c8,7.05,7.52,15.63-1.37,20.86-30.89,18.16-61.39,37.09-93.06,53.79-53.33,28.12-107.76,23.93-161.93,1.69-8.43-3.46-17-9.79-25.52-2.75-8.08,6.65-3.84,16.16-2.6,24.72,1.83,12.71,9.35,20.2,20.47,26,48.33,25.26,100,41.16,152.49,54.52,36.42,9.27,73.23,17,110,24.75,7.81,1.64,12,5.13,13.25,12.48,1.43,8.64,3.44,17.36,3.42,26.05-.27,95.7-.23,191.41-1.59,287.09-1.62,114.24-53.93,201.48-145.8,266.63-47,33.31-99.16,56-154.34,71.11-15.29,4.19-33.66,4.45-48.9.25-75.16-20.67-144.07-54.06-201.21-108.46C543.75,1007,509,932.7,507.32,844.71c-1.88-98.13-1.48-196.31-2-294.47a99.38,99.38,0,0,1,1.22-14.7c3-20.12,4-20.61,23.49-24.51,74.82-15,149-32.51,219.83-61.58,11.36-4.65,22-11,33.4-15.61,14.19-5.73,20.15-16.66,21.75-30.85a223.75,223.75,0,0,0,1.84-23.09c.21-28.5-.48-57,.4-85.5a55.17,55.17,0,0,1,7.24-25.77C823.89,253,843.25,254,851.94,270c3.36,6.23,4.86,13.88,5.54,21C858.4,300.67,857.71,310.43,857.71,323.35ZM831.86,699v.06q118.25,0,236.48,0c25.88,0,40-13.92,40.19-39.55q.23-31.66,0-63.34c-.17-23.18-12.6-39.56-34.86-45.56-15.93-4.29-32.1-7.7-48-12-65.53-17.7-130.93-35.76-189.25-72.43-2.17-1.36-6.57-.75-9.22.48-30.56,14.11-60,31.29-91.66,42.18-46.07,15.86-93.61,27.51-140.66,40.43-25.76,7.08-38.61,22.63-38.71,49.16-.08,20.41-.17,40.82,0,61.23.21,25.09,14.34,39.3,39.28,39.33Q713.64,699.08,831.86,699ZM806.92,938.85c0-50.67.1-101.34,0-152-.06-22.45-14.69-36.82-37.12-37-10.56-.07-21.11,0-31.67,0-27.24,0-40.78,13.43-40.79,40.75,0,81.28-.12,162.57.15,243.85,0,9.38.74,19.26,3.78,28,2.69,7.74,7.46,17.31,14.07,20.68,25,12.73,51.11,23.18,76.73,34.67,6.13,2.74,9.86.51,11-5.26,1.78-8.89,3.64-18,3.71-27C807.1,1036.67,806.92,987.76,806.92,938.85Zm50.8-.12h.06c0,49.63-.11,99.26.13,148.88a116.37,116.37,0,0,0,2.77,23c1.54,7.45,5.7,10.51,13.82,6.87,20.82-9.35,41.6-18.91,62.94-27s28-24.78,29.61-45.25c.32-4.21.32-8.44.32-12.67q0-48,0-96.08c0-50,.09-100-.07-149.94-.07-21.89-14.65-36.39-36.35-36.64-10.91-.12-21.82,0-32.73,0-26.72,0-40.44,13.46-40.47,40Q857.65,864.3,857.72,938.73Zm160.46-46.29c0,34.48-.07,69,.08,103.45a51.31,51.31,0,0,0,1.83,14.53c2,6.57,6.85,8.86,13.16,5.36a33.28,33.28,0,0,0,9.15-7c18.42-21.45,34.43-44.38,43.84-71.46,15.07-43.32,19.54-88.25,22.26-133.69,2.25-37.46-9.16-56.51-52.16-54-23.67,1.38-38,14.53-38.12,38.3C1018.11,822.77,1018.19,857.6,1018.18,892.44Zm-371.71.43c0-35.53-.05-71.07,0-106.6,0-12.07-4.6-21.89-13.93-29.36-9.83-7.88-21.68-6.37-33.25-7.25-28-2.12-44.73,16.51-43.38,44C557.82,832,560.61,870,569.4,907.57s25.46,70.69,51.34,99c4.46,4.87,12.08,6.86,18.24,10.18,2.5-6.47,5-12.93,7.45-19.44.35-.93,0-2.09,0-3.15ZM927.32,343.3c43.88,16.77,96.23,5.48,128.25-26.65C1008.25,302.7,966.1,311.61,927.32,343.3Z"/><path d="M695.75,649.2c-6-4.16-9.43-6-12.26-8.52-6.16-5.45-12-6.53-18.29-.21-2.2,2.2-5,4.64-7.79,5.12-1.7.29-4.42-2.71-5.85-4.8-.63-.91.51-3.41,1.36-4.9,5.85-10.33,2.71-17.41-7.3-22.89-2.58-1.4-3.93-5.06-5.84-7.69,3.08-1,6.35-3.35,9.2-2.91,11.61,1.78,17.66-2.77,19.66-14.24.52-2.94,3.55-5.44,5.42-8.14,2,2.57,5.31,5,5.7,7.75,1.73,12.32,8.5,16.31,20.27,14.6,2.69-.39,5.72,1.6,8.59,2.49-1.76,2.67-2.92,6.66-5.4,7.8-12.3,5.64-12.14,14.31-7.63,25C696.67,640.19,695.75,643.59,695.75,649.2Z"/><path d="M811,645.2c1.68-7.65,6.32-16.26,4.23-22.67s-10.9-10.65-19.26-18c6.83-1.08,10.71-2.54,14.36-2.1,10,1.18,15.82-2.06,17.8-12.48.66-3.52,4-6.53,6.16-9.78,2.09,3.36,5.33,6.49,6,10.11,1.91,9.83,7,13.38,16.91,12.17,3.6-.44,7.53,1.87,11.32,2.93-2.48,3-4.35,7.3-7.55,8.92-9.9,5-10,11.79-6,20.71,1.37,3.11.58,7.19.78,10.82-3.38-1.16-7.63-1.41-10-3.65-7.82-7.37-14.87-7.65-22.7-.17-2.54,2.42-6.25,3.61-9.42,5.36Z"/><path d="M970.26,649c2.4-10.91,7-19.45,4.94-25.84s-10.75-10.92-19.41-18.9c7.58-.93,12.38-2.44,16.92-1.88,8.74,1.07,12.82-2.43,14.51-10.71.85-4.19,3.24-8.06,4.94-12.07l3.3-.34c1.94,4.43,4.69,8.69,5.66,13.33,1.6,7.66,5.56,10.69,13.21,9.72a36.11,36.11,0,0,1,9.46.13c5.22.74,7.68,5.13,2.87,7.45-15.75,7.59-15.75,18.84-9.87,32.46.33.78-.33,2-.94,5-3.93-1.92-8-2.85-10.48-5.31-7.8-7.61-14.87-7.29-22.62,0C980.22,644.39,976.53,645.54,970.26,649Z"/></svg>