<svg id="Layer_1" data-name="Layer 1" xmlns="http://www.w3.org/2000/svg" xmlns:xlink="http://www.w3.org/1999/xlink" viewBox="0 0 1738.92 1436.38"><defs><style>.cls-1{fill:url(#linear-gradient);}.cls-2{fill:url(#linear-gradient-2);}.cls-3{fill:url(#linear-gradient-3);}.cls-4{fill:url(#linear-gradient-4);}.cls-5{fill:url(#linear-gradient-5);}.cls-6{fill:url(#linear-gradient-6);}.cls-7{fill:url(#linear-gradient-7);}.cls-8{fill:url(#linear-gradient-8);}.cls-9{fill:url(#linear-gradient-9);}.cls-10{fill:url(#linear-gradient-10);}.cls-11{fill:url(#linear-gradient-11);}.cls-12{fill:url(#linear-gradient-12);}.cls-13{fill:url(#linear-gradient-13);}.cls-14{fill:url(#linear-gradient-14);}.cls-15{fill:url(#linear-gradient-15);}.cls-16{fill:url(#linear-gradient-16);}.cls-17{fill:url(#linear-gradient-17);}.cls-18{fill:url(#linear-gradient-18);}.cls-19{fill:url(#linear-gradient-19);}.cls-20{fill:url(#linear-gradient-20);}.cls-21{fill:url(#linear-gradient-21);}.cls-22{fill:url(#linear-gradient-22);}.cls-23{fill:url(#linear-gradient-23);}.cls-24{fill:url(#linear-gradient-24);}</style><linearGradient id="linear-gradient" x1="1462.3" y1="24.86" x2="1460.9" y2="149.86" gradientUnits="userSpaceOnUse"><stop offset="0" stop-color="#121e13"/><stop offset="0.49" stop-color="#5a0f10"/><stop offset="1" stop-color="#d30215"/></linearGradient><linearGradient id="linear-gradient-2" x1="435.36" y1="13.33" x2="433.95" y2="138.32" xlink:href="#linear-gradient"/><linearGradient id="linear-gradient-3" x1="807.38" y1="17.51" x2="805.97" y2="142.5" xlink:href="#linear-gradient"/><linearGradient id="linear-gradient-4" x1="664.23" y1="15.9" x2="662.82" y2="140.89" xlink:href="#linear-gradient"/><linearGradient id="linear-gradient-5" x1="1113.15" y1="20.94" x2="1111.75" y2="145.94" xlink:href="#linear-gradient"/><linearGradient id="linear-gradient-6" x1="212.14" y1="10.82" x2="210.73" y2="135.81" xlink:href="#linear-gradient"/><linearGradient id="linear-gradient-7" x1="1253.71" y1="22.52" x2="1252.31" y2="147.52" xlink:href="#linear-gradient"/><linearGradient id="linear-gradient-8" x1="952.04" y1="19.13" x2="950.64" y2="144.13" xlink:href="#linear-gradient"/><linearGradient id="linear-gradient-9" x1="569.16" y1="14.83" x2="567.76" y2="139.83" xlink:href="#linear-gradient"/><linearGradient id="linear-gradient-10" x1="1017.08" y1="19.86" x2="1015.68" y2="144.86" xlink:href="#linear-gradient"/><linearGradient id="linear-gradient-11" x1="644.65" y1="15.68" x2="643.25" y2="140.67" xlink:href="#linear-gradient"/><linearGradient id="linear-gradient-12" x1="1310.88" y1="23.16" x2="1309.47" y2="148.16" xlink:href="#linear-gradient"/><linearGradient id="linear-gradient-13" x1="579.66" y1="14.95" x2="578.26" y2="139.94" xlink:href="#linear-gradient"/><linearGradient id="linear-gradient-14" x1="1027.37" y1="19.98" x2="1025.97" y2="144.97" xlink:href="#linear-gradient"/><linearGradient id="linear-gradient-15" x1="1427.53" y1="24.47" x2="1426.13" y2="149.47" xlink:href="#linear-gradient"/><linearGradient id="linear-gradient-16" x1="399.92" y1="12.93" x2="398.52" y2="137.92" xlink:href="#linear-gradient"/><linearGradient id="linear-gradient-17" x1="1497.73" y1="25.26" x2="1496.33" y2="150.26" xlink:href="#linear-gradient"/><linearGradient id="linear-gradient-18" x1="1146.85" y1="21.32" x2="1145.44" y2="146.32" xlink:href="#linear-gradient"/><linearGradient id="linear-gradient-19" x1="475.17" y1="13.77" x2="473.76" y2="138.77" xlink:href="#linear-gradient"/><linearGradient id="linear-gradient-20" x1="923.65" y1="18.81" x2="922.24" y2="143.81" xlink:href="#linear-gradient"/><linearGradient id="linear-gradient-21" x1="368.59" y1="12.58" x2="367.18" y2="137.57" xlink:href="#linear-gradient"/><linearGradient id="linear-gradient-22" x1="657.91" y1="15.83" x2="656.5" y2="140.82" xlink:href="#linear-gradient"/><linearGradient id="linear-gradient-23" x1="1396.05" y1="24.12" x2="1394.64" y2="149.12" xlink:href="#linear-gradient"/><linearGradient id="linear-gradient-24" x1="800.52" y1="17.43" x2="799.11" y2="142.42" xlink:href="#linear-gradient"/></defs><path d="M568.14,985.2c-1.73-13-3-26.17-5.3-39.1-4.05-22.55-8.85-45-21.93-64.44A50.14,50.14,0,0,0,528.61,869a23.19,23.19,0,0,0-12.82-4.09,53.12,53.12,0,0,1-37.14-14.29,149.54,149.54,0,0,1-19.77-22.06,47,47,0,0,1-9.29-30.85c.89-17.78,2-35.54,3.2-55.65,4.72,10.69,5.7,19.88,5.9,29.29.21,9.6.27,19.23,1,28.81.64,8.4,3.35,16.1,9.68,22.27,5.43,5.29,11.57,9,19.19,9.41,8.25.5,16.52.59,24.79.8,3.56.09,7.12,0,10.68,0l.66,2c-3.73,1.63-7.67,2.9-11.09,5-2,1.21-4.4,4-4.18,5.71s3.12,4.24,5.27,4.8a32.72,32.72,0,0,0,10.83.61c19.48-1.6,38.92-3.9,58.43-4.93a214.22,214.22,0,0,1,34.71,1.26C639,849.4,655.35,860,670,873.52c6.17,5.68,13.09,10.86,15.82,20.07-2.69-2.08-5.48-4.05-8.07-6.25-17-14.44-36-24.66-58-29.31-10.86-2.31-18.93-2.3-26.54.43-.31,5,3.55,6.39,7.07,8.07,8.37,4,16.81,7.89,25.1,12.06,6.93,3.48,12.51,8.52,15.71,16.44a42.4,42.4,0,0,1-5.08-3,70.53,70.53,0,0,0-27.76-12.85c-5.17-1.2-10.48-1.88-16.1,3.23,2,2.1,3.63,4.37,5.76,5.9,15.15,10.89,31.74,19.17,48.77,26.64a36.74,36.74,0,0,1,7.67,4.48c4.14,3.21,5.84,7.47,2.68,12.18-4.28,6.4-3.16,12.15.28,18.56a123.3,123.3,0,0,1,13.11,38.43,7.09,7.09,0,0,0,2.69,4.24c7.52-19.23,5.17-39.49,7.43-59.6.83,1.61,2,3.13,2.42,4.84,7.23,29.22,6.87,57.84-7.57,85.1-2.3,4.34-2.22,7.41.72,11.67,3.84,5.55,6.2,12.1,9.65,19.13,1.47-1,3.64-1.83,4.76-3.4a124,124,0,0,0,17-33.54c1.81-5.57,4.23-10.93,6.65-17.07,3.63,10.23-2.4,28-18.7,57.38l11.92,13.81c6.14-8.45,5.61-18.84,13.82-26.6-2.28,14.05-4.28,26.34-6.48,39.92,10.1,1.44,17.56,6.36,23.35,17.09,6.36-15.42,7.61-29.72,14.38-44.22,1.77,10.52-2.15,18.69-2.59,27.12s-1.47,16.85-2.21,25c8.48-.28,16.06-2.26,22.38-.26s11.5,8,18.49,13.21c5.32-22.56,10.41-44.18,15.51-65.79l2.41.34c-2.08,23.76-6.88,47.38-5.91,72.26,8-2.68,14.54-5.69,21.44-7a26.79,26.79,0,0,1,20,4.14c6,4,11.6,8.45,18.23,13.33,3.2-6,2-12.06,2.85-17.69A105,105,0,0,1,867,1104.5c3.52,10.51,1,21.66,3.55,33.35a48.16,48.16,0,0,0,6.29-2.62c5.94-3.57,11.45-8,17.72-10.85,9.35-4.17,19.13-5.46,28.51.67a6.29,6.29,0,0,0,2.85.7,12,12,0,0,0,2.86-.75c2.39-22.78-3.34-45.36-4.42-68.26,9.06,21.32,10.43,44.55,17.34,68,9.87-8.25,17.5-19.13,32.36-16.67,1.72-17.46-2.89-33.47-4-49.87,7.18,13.22,9.55,27.94,13.53,44.17,3.12-2.73,5.39-4.27,7.1-6.29,5.63-6.67,11.42-13,20.5-14.86,4.18-.88,5-3.77,4.32-7.55-1.17-6.86-2.25-13.73-3.35-20.6-.47-2.89-.92-5.78-1.6-10,6.07,3.15,6.15,8.48,8,12.5,2,4.41,3.26,9.16,5.07,14.41,6.41-5,12.31-9.12,17.39-14,1.55-1.51,1.45-5.4,1.11-8.08-2.4-19-5.09-38.07-7.6-57.11a52.23,52.23,0,0,1,0-6.74l1.95-.41c.81,3.26,1.66,6.52,2.42,9.79,3.07,13.23,6,26.48,9.22,39.68.74,3,2.25,5.88,4,10.34,6-5.48,10.83-9.66,15.24-14.3.88-.92.55-3.94-.28-5.39-12.64-22.06-14.8-45.74-10.91-70.28a74.62,74.62,0,0,1,6.62-21.14c.36,1.61,1.13,3.24,1,4.81-.57,7.93-1.38,15.84-2,23.77-.27,3.22-.83,6.61,3.29,9.1,1.42-1.38,3.23-2.42,4-4,4.08-8.63,8.79-16.86,8.84-27.07.06-11.31,2.41-12.86,13.73-12.75s15.55-1.87,18.45-12.64c3.19-11.85,10.76-17.51,21.74-20.63,6.6-1.87,13.07-4.36,18.09-9.66-1.93-5.23-6-5-9.94-4.64-11.45,1.17-22,4.78-31.07,12a43.6,43.6,0,0,1-9,5.92,23.22,23.22,0,0,1,10.52-13.23c9.75-5.57,19.89-10.47,29.8-15.78,3.56-1.9,9.91-2.1,8.82-7.7-1.16-5.92-7-3-11-3.24-15.9-1-30.06,3.83-43,12.73a70.9,70.9,0,0,1-6.88,4c-.47.25-1.21,0-2.92-.13,3-5.3,7.44-8.39,11.64-11.83,13-10.66,27.7-14.61,44.38-13.67,26.48,1.5,53,2.23,79.5,3.35a40.44,40.44,0,0,0,22-5.22c10.21-5.77,11.19-11.59,3.68-20.38-1-1.19-1.85-2.55-3.63-5a61.67,61.67,0,0,1,6.54,0c15.31,1.9,26.88-5.47,30.32-20.57,2.19-9.65,2.94-19.63,4.18-29.48.89-7.16,1.52-14.34,4.19-21.7a18.38,18.38,0,0,1,1.19,3.78c1,11.22,1.47,22.52,3,33.67,4.94,36.76-18.62,61.1-43.16,73.64-6.24,3.19-13.94,4.48-21,4.77-9.47.39-17.07,3.69-22.11,11.22-5.3,7.91-10.51,16.22-13.8,25.08-9.26,25-14.11,51-16.64,77.54a8.84,8.84,0,0,1-3.25,6.21c-.22-4.42-.55-8.84-.66-13.27-.6-24.19,6.19-47.2,11.26-70.49,1.14-5.26,3.7-10.79-1.28-16.25-9.22,6.22-8.5,18.58-16.4,25.67-5-4.42,1.54-11.78-5.6-16-1.36,2.13-3.25,4-3.82,6.16-3.85,15-8.48,30-10.79,45.31-2.11,14-1.68,28.43-2.23,42.67a10.76,10.76,0,0,0,2.53,7.11,50.81,50.81,0,0,0,2.15-6.45c1.75-9.11,3-18.32,5.09-27.35,1-4.55,3.47-8.78,5.27-13.15l2.16.62c0,2.1.16,4.21,0,6.29-1.35,15.17-2.82,30.33-4.15,45.51s-2.07,30.45-7.28,45c-4.52,12.61-10.34,24.5-20.9,33.26-7.48,6.2-10.25,14.39-11,23.61a31.77,31.77,0,0,0-.25,5c1.93,26.11-6.39,49.56-18,72.34-6.46,12.62-11.93,25.73-19.69,38.5.13-2.2-.19-4.54.45-6.57,4.09-13,8.5-25.81,12.55-38.78,2-6.5,4.33-13.11,1.81-21.74-6.87,6.38-7.35,14.6-10.64,21.29-3.65,7.44-7.44,14.82-10.86,22.36-3.28,7.24-6.41,14.57-9.16,22-2.87,7.76-5.42,15.65-7.71,23.6-2.17,7.55-3.82,15.25-6.06,24.35-2.83-8.91-2.61-14.58,1.69-30.92,2.58-9.78,5.88-19.37,9.14-30-7,4.63-19.48,25.19-28,47.76-6.56,17.25-11.62,35.07-18,52.53-.45-24,6.05-46.58,16.2-68.4l-1.66-1c-2.27,1.61-4.53,3.25-6.82,4.83-4.61,3.19-9,6.87-13.92,9.4a32.61,32.61,0,0,0-12.82,12.07c-7.52,11.73-10.37,25.06-13,38.37-2.09,10.38-3.26,21-4.9,31.42-.68,4.39-1.52,8.76-2.28,13.14l-2.09,0a11.47,11.47,0,0,1-.94-3.26c.43-21.24,1.63-42.39,6.62-63.16.71-3,.72-6.11,1.19-10.4-11.49,5.09-22,8.44-31,14.1a36.54,36.54,0,0,0-16.9,24.89c-3.39,19.91-6.37,39.89-9.08,59.9-1.47,10.78-2,21.69-4,32.55-3.39-8.32-2.36-17.07-2.56-25.62-.22-8.93,0-17.91.57-26.83.52-8.6,1.62-17.16,2.6-25.72,1-8.76,2.17-17.5,3.43-27.62-3.44,1.21-5.71,1.54-7.42,2.69-7.88,5.29-16.62,8-25.88,9.65-12.38,2.17-16.7,6-18.14,18.76-1.59,14.14-2,28.43-2.47,42.66-.63,18.23-.77,36.47-1.23,54.7-.13,4.88-.7,9.75-1.06,14.62l-2.23.21c-.41-3.58-1-7.15-1.2-10.75-1.15-20.52-2.15-41-3.34-61.56-.66-11.25-1.49-22.49-2.41-33.72-1-12.19-8.55-20.21-20.53-23.29-5.68-1.46-11-4.29-16.49-6.46-1.43-.57-2.92-1-6-2,2,36.26,4.94,71.38,1.37,106.44l-2.26.3c-.39-3-.85-6-1.16-9-2.64-25.7-5.07-51.43-8-77.09a140.08,140.08,0,0,0-4.61-21.35c-1.68-6.13-4.37-12-10.54-15-11.17-5.51-22.41-10.87-34.89-16.9-1,24.6,1.43,48.85-1.24,72.81l-2.4,0c-1.35-13.43-2.12-27-4.21-40.27-2.15-13.71-5.22-27.3-8.58-40.77a36.56,36.56,0,0,0-15.93-22c-5.4-3.57-10.44-7.67-16.64-11,3,18.89,7.41,37.25,4.24,56.29-2.76-12.52-5.37-25.08-8.32-37.55-5.48-23.24-18.43-42.35-33.77-60.09a12.06,12.06,0,0,0-3.09-2.45c-.79-.45-1.81-.49-4.54-1.14,1.28,3.93,1.94,7,3.21,9.69,5.27,11.44,10.89,22.72,16.07,34.2,4.75,10.53,4.78,11.66,3.81,19.18-5.55-10.4-10.93-20.17-16-30.08-7.69-15-15.7-29.93-22.5-45.35-3-6.79-5-14.83-4.56-22.13,1.06-17.65-4.07-33.36-11.75-48.65-2.68-5.33-5.17-10.81-8.38-15.81-15.08-23.48-19.76-49.37-19.65-76.84.08-20.85-1-41.74-2.37-62.55-1.09-16.3-4.83-32.21-13-46.58a70.75,70.75,0,0,0-12.19-15.45c-3.92-3.82-6.83-2.93-9.75,1.63s-4.8,9.47-3.41,15.07c1.44,5.79,2.67,11.63,4.25,17.38a210.48,210.48,0,0,1,7.59,66.9c-.08,1.61-.35,3.21-.53,4.81ZM869,1182.8h.56c0,4.62-.13,9.24,0,13.86s.43,9.24.95,13.83c1.29,11.16,6.24,15.94,17.47,15.8,13.28-.17,25.26-4.33,35.32-13.41a25.06,25.06,0,0,0,8.56-15.18c2.17-14.41,3.52-28.81,1.49-43.41-3.09-22.18-23.64-32.25-42.54-20.28-6.39,4-12.18,9.06-18.07,13.85a13,13,0,0,0-5.06,12.21C868.49,1167.62,868.61,1175.23,869,1182.8Zm-9.88,1.9h.65c0-7.3-.61-14.65.15-21.86.94-8.91-2.59-15.45-8.9-20.91-3.74-3.24-7.54-6.58-11.81-9-17.57-9.93-43,4-43.34,24.13-.25,13.51,1.13,27.08,2.17,40.59.63,8.06,5.21,14.22,11.34,19.16a55.09,55.09,0,0,0,26.2,11.3c14.15,2.29,23.18-5.38,23.51-19.55C859.28,1200.61,859.13,1192.65,859.13,1184.7Zm-116.8-37.38-1.15.1c1,7.87,1.19,15.93,3.08,23.57,4.2,17,16.34,26.8,32.14,32.46,5.63,2,9.85-.84,10.73-6.82a35.32,35.32,0,0,0-.14-9.9,91.16,91.16,0,0,1,.88-31.65c3.17-14.86-4.33-25.54-13.44-35.56-4.44-4.89-9.9-6-16.26-3.07-9.57,4.35-15.59,11-15.83,21.93C742.28,1141.36,742.33,1144.34,742.33,1147.32Zm124.14,116.55h.65c0,6.27-.13,12.55,0,18.82.26,10.34,5.16,14.83,15.55,14.62a49.73,49.73,0,0,0,23.67-6.38c5.81-3.27,11.79-7.19,13.22-14.06,2.33-11.27,4.69-22.73,5-34.16.4-15.07-4.2-17.23-16.55-8.91-8.36,5.63-16.86,7.16-26.27,3.44a42.43,42.43,0,0,0-4.71-1.53c-7-1.82-10.11.15-10.5,7.35C866.18,1250,866.47,1256.93,866.47,1263.87ZM981.8,1151.28c-1.42-8.45-2.27-17-4.41-25.29-2.41-9.26-9.54-12-17.48-6.82-5.14,3.39-9.36,8.23-13.8,12.62-5.65,5.57-7,12.18-5.47,20a81.44,81.44,0,0,1,1.38,19.71c-.6,10.88-2.12,21.7-3.32,32.54-.81,7.31,1.68,10,8.8,8.57a32,32,0,0,0,20.26-13.24C978.09,1185,980.82,1168.6,981.8,1151.28Zm39.88-25.37-.81-.12c-.48-9.24-.67-18.52-1.54-27.72s-6.88-11.67-14.41-6a23,23,0,0,0-5,4.74c-3.82,5.38-7.1,11.17-11.09,16.41-3.5,4.6-4.32,9.35-3.36,14.89,2.77,16.13,1.72,32.31.16,48.48a35,35,0,0,0-.46,6.9c.69,6.24,4.93,8.79,10.5,5.85,10.81-5.69,20.49-12.89,22.33-26.06C1019.68,1150.89,1020.48,1138.37,1021.68,1125.91ZM857.43,1250.39c.59-12-.41-13.1-9.43-14.25-11.42-1.45-23.08-1.18-33.83-6.72-7.94-4.09-10.54-2-10.5,7.31a15.45,15.45,0,0,0,.16,3c2.73,12.93,4.83,26,8.45,38.73,3.43,12,15.91,19.23,27.85,17.76,7.93-1,12.16-4.54,13.28-12.37C855.14,1271.71,856.35,1259.53,857.43,1250.39Zm-105.06-48.81c-.58,3.17-1.83,6.62-1.7,10,.34,8.89.68,17.86,2.11,26.63,3.07,18.76,15.21,30.69,33.59,34.06,10.23,1.88,14.57-1.66,13.64-12.06-1-11.52-3.32-22.94-4-34.47-.49-7.74-4.65-11.17-11.05-13.32C774.68,1209,764.43,1205.6,752.37,1201.58Zm180.35,44.53h.52c0,3,0,6,0,8.94s-.12,6,.09,9c.55,7.85,4.56,11.28,12.43,10.41,11.28-1.25,20.61-6.58,25.62-16.63,6.69-13.42,7-28.15,4.84-42.77-.71-4.77-4.13-6.12-8-3.15-6,4.63-12.69,5.24-19.68,5.6a38.59,38.59,0,0,0-6.88.81c-7,1.67-8.76,3.79-9,11C932.6,1234.85,932.72,1240.48,932.72,1246.11ZM707.91,1124c0,5.62-.41,11.27.09,16.85,1,11.1,4.59,21.33,12.32,29.65,3.1,3.35,6.64,7.64,11.74,5.59,5.3-2.14,4.11-7.62,3.91-12.2,0-1-.28-2-.26-3,.2-10.19.32-20.39.69-30.57a53.33,53.33,0,0,0-7.9-30.19c-2.42-4-5.88-7.2-11.52-5.57-5.46,1.58-8.62,5-9,11.56C707.65,1112.06,707.92,1118,707.91,1124ZM1054,1096.72c-.46-7.25-1-14.5-1.32-21.77-.16-4.54-.71-9-5.44-10.75-5.06-1.9-9.27.93-12.22,4.57-5.55,6.82-9.31,14.54-7.73,23.76,2.46,14.42,3.89,28.85,1.86,43.48a26.81,26.81,0,0,0,.75,9.83c1.25,5,5.54,6.29,8.73,2.24a65.08,65.08,0,0,0,9-15.28C1052.29,1121.32,1053.67,1109.12,1054,1096.72Zm-33.1,86.28c-1.5.7-2.89,1-3.75,1.81-7.75,7.45-16.11,13.66-27,15.94-1.82.38-4.27,3.64-4.32,5.62-.24,10.25-.21,20.54.56,30.76.46,6.1,4.88,8.61,10.69,6.7a36.16,36.16,0,0,0,10.55-5.38c12.42-9.49,18-22.82,18.84-37.92C1026.77,1194.61,1026.24,1188,1020.88,1183Zm-313.32-14.48c-1.2,6.77-2.43,11.44-2.8,16.18-1.44,18.91,8.43,36.81,24.1,44.22,9.41,4.45,14.75,1.5,15.36-8.75.49-8.22.51-16.46,1-24.69.3-5.17-1.69-8.16-6.9-8.94-9.22-1.38-16.37-6.57-23.08-12.6C713.6,1172.47,711.63,1171.37,707.56,1168.52Zm352.3-23.15c-2,.71-3.15.77-3.75,1.38-7,7-13.9,14-23.93,16.92-1.6.47-3.38,4.24-3.18,6.31.8,8.5,2.15,17,3.69,25.39.78,4.3,2.63,8.53,7.49,9.53s7.93-2.52,10.47-6c3.66-5.06,7.26-10.18,10.48-15.53A22.06,22.06,0,0,0,1064,1175C1065.33,1165.06,1063.82,1155.44,1059.86,1145.37Zm-359.73,8.14c.37-5.8,1-11.26,1-16.71-.12-16.12-1.73-32.2,1.75-48.31,1-4.54-1.39-10.36-3.62-14.9-3.28-6.68-8.64-7-13.1-1-1.85,2.47-2.68,5.88-3.35,9a66.75,66.75,0,0,0-.86,9.83c-1.16,19,1.14,37.51,8.95,55.08C692.35,1149.74,693.35,1153.5,700.13,1153.51Zm360.87-46c7.43-2,9.42-6.83,11.52-11a74.44,74.44,0,0,0,7.75-40.41c-.45-5.17-2.42-10.27-4.15-15.24-1.31-3.76-4.18-5-7.93-2.91-6.22,3.39-10.67,16-9.73,23.11,1.58,12.08,2.12,24.3,3,36.46C1061.6,1100.3,1061.19,1103.19,1061,1107.46Zm-384.88,30.39c-1.11,4-2,5.75-2,7.49,0,9.23.2,18.45.27,27.68.06,8.54,4.13,15.2,10,20.81,5.42,5.14,10.57,3.83,12.48-3.48,2.06-7.92,3.15-16.09,4.82-25C688.67,1161.14,684.18,1149.08,676.12,1137.85Zm-4.71-38.48c.59-2.48,1.25-4.6,1.56-6.76,1-7.17.88-14.69,3.13-21.43,3.35-10.07,0-18.8-3.07-27.77-.64-1.85-2.78-3.19-4.5-5.07-5.86,4.85-10.23,10.22-9.65,17,1.07,12.42,3.31,24.76,5.36,37.08C664.75,1095.51,665.54,1099.13,671.41,1099.37Zm408.5,3.42c-3.09,2.19-5,2.93-5.92,4.3-6.42,9.09-8.36,41.6-3.29,52.52,4,.36,4.88-2.81,5.65-5.58C1080.91,1137.73,1082.12,1121.26,1079.91,1102.79Zm-422.23-2.12c-.64,2-1.53,3.5-1.49,4.93.24,8.93.26,17.9,1.22,26.76.77,7.19,2.59,14.28,4.27,21.34.61,2.53,1.93,5.23,6.68,3.09,0-13.59,2.36-27.74-.56-41.68C666.7,1109.86,664.54,1103.78,657.68,1100.67Z"/><path d="M1214.71,702.82c1.58-13.56,8.69-26.31,6.86-42.91-2.44,3.34-4.06,4.74-4.64,6.49-2.1,6.28-3.8,12.69-5.77,19a48.49,48.49,0,0,1-3.16,8.35c-8.5,16-14.25,14.66-25.3,9.67-13.24-6-27.48-7.4-41.69-8.47a28.82,28.82,0,0,0-12.61,2.18c-10.34,4.22-20.59,4.69-31,.93-6.48-2.34-12.27-2-17.38,3.19-3.23,3.25-6.68,2.94-10.89,1.14A43.29,43.29,0,0,0,1055,699c-13.86-.84-27.76-1.07-41.65-1.48a11.3,11.3,0,0,0-3.06.87c.41,4.73,4.53,5.42,7.47,7,19,10.17,39.52,15.12,60.63,18.3a68.46,68.46,0,0,1,19.37,5.48c-2.93,0-5.86.07-8.79,0a267.29,267.29,0,0,1-72.41-11.52c-25.88-8-44.24-24.73-57.29-47.82-10.51-18.58-17.2-38.68-22.75-59.22-1.12-4.13-2.27-8.43-4.4-12.08a20.49,20.49,0,0,0-7.61-7.41c-5.33-2.86-13.55-.88-13.25,7.77.24,6.88,1.24,13.74,2,20.59.21,1.88.82,3.71-.26,6.69l-8.87-9c-5.08.93-4.67,4.51-4.36,7.77a227.33,227.33,0,0,0,9.39,47.67C919.84,706,930.78,739.41,941,773c6,19.65,10.44,39.73,11.5,60.39a10.89,10.89,0,0,1-1.7,6.58,11.59,11.59,0,0,1-1.39-3.22c-3.5-33.59-13.93-65.33-25.45-96.82-11.84-32.36-24.15-64.57-35-97.27a220.49,220.49,0,0,1-11.44-75.35c.05-1.85.32-3.7.66-7.37,2.62,2.68,4.18,4,5.48,5.63,7.08,8.66,15,10.21,23,2.54,6.83-6.53,12-14.77,17.81-22.38,1.73-2.28,2.87-5,5.12-9.06,1.17,3.22,1.84,4.85,2.35,6.52,4,13.14,12.48,18.89,26.1,17.72,9-.77,16.47-4.7,23.17-10.46l7.29-6.25c.55,6.53-2.75,9.43-6.06,12-4.73,3.62-9.88,6.67-14.7,10.17-5.79,4.21-6,6.44-1.77,12.23,5.14,7,13.85,9.56,23.19,6.69,14.61-4.5,26.7-13.25,37.75-23.37a187.11,187.11,0,0,0,36.76-46.71c2.25-4,3.64-8.5,5.48-12.75a13.67,13.67,0,0,1,5-6.54v24.6c25.43-4.11,38.44-22.17,52.44-39.11-12.38,29.32-40.29,44.66-61.2,66.26.37.55.73,1.11,1.09,1.66,1.92-.63,4-1,5.75-1.93A287.83,287.83,0,0,0,1127.49,507c20.94-19.3,42.35-38.11,63.72-56.94,4.2-3.7,9.17-6.52,13.75-9.79,3.28-2.33,6.49-2.26,10.29-.88,13,4.72,16.49,3.4,23.94-7.95a29,29,0,0,1,2.49-2.71c2.21,17.55-10.08,22-22.72,27.24,1.42,3.91,2.47,7.58,4,11,10.83,23.94,20.24,48.43,24.67,74.38,2.73,15.94,3.44,32.25,4.82,48.41.23,2.71-.78,5.52-1.21,8.29h-2.18c-.55-2.72-1.26-5.43-1.65-8.18-2.66-18.7-4.6-37.53-8-56.08s-9-36.74-18.73-53.23c-1.91-3.23-3.31-8.59-8.19-7.2s-3.46,6.65-2.87,10.34a56.61,56.61,0,0,0,3.78,13.26c14.26,33.2,23.29,67.66,25,103.85,1.49,31.57-3.16,62.16-15.59,91.36-1.65,3.88-4,7.47-6,11.19Z"/><path d="M662.26,548.73c-7.32-16.5-9.82-33.81-9-52.11,1.33,2.4,3,4.67,3.94,7.23,8.37,24.27,24.37,43,43,59.93C711.51,574.15,724,582.69,738.59,588A61.07,61.07,0,0,0,762,591.64c14.47-.54,23.73-8.43,28.43-21.07,3.39-9.14,4.48-19.14,6.68-29.17,3.21,1.53,3.26,5.51,4.37,8.54,2.77,7.59,6.53,14.42,12.43,20.06,3.48,3.33,6.61,3.83,10.22.13,3.78-3.87,7.91-6.53,14-5.79,2.66.32,5.69-2.46,9.26-4.17,2,7.05,1.2,14.19.72,21.15C845.75,616,836.32,649,823.94,681.38c-14.09,36.8-29.73,73.08-39.46,111.41C780.33,809.13,777,825.7,773,842.11c1.09-18.9,2.64-37.84,8.16-56,10.78-35.49,23-70.56,33.41-106.15,5-17.07,7.56-34.89,10.86-52.44.6-3.23-.54-6.78-.88-10.19l-2.22-.89L813.14,625c-1.77-3.82.27-7.15.49-10.47.34-5.27,1.42-10.61.84-15.77-1-8.94-9.32-12.15-15.86-6-3.42,3.22-5.88,8-7.51,12.48-4.26,11.84-7.77,24-11.69,35.92-4.77,14.58-11.3,28.38-20.42,40.71-11.87,16.06-26.91,28-46.15,34.6-27.26,9.41-55.32,12.38-84.22,10.88,5.68-1.16,11.32-2.58,17-3.44,21.41-3.21,42.41-7.7,61.7-18.09,4.23-2.27,4.23-2.28,7.91-8.08-5.15.79-9.55,2-14,2-14.23.21-28.48-.07-42.72,0-8.58,0-17.19,0-25.72.72-5.28.47-9.83-.08-14-3.39-3.56-2.83-7.56-4.08-12.1-2.89-6.59,1.73-12.55.16-17.82-3.83-4.59-3.48-9-3.46-13.79-.52-5.65,3.44-11.4,6.76-17.23,9.89-10.59,5.68-15,5-22.29-4.18-9.89-12.52-18.79-25.67-23.34-41.28-.59-2-2.06-3.78-3.9-7-1.31,3-2.43,4.58-2.61,6.23a104.77,104.77,0,0,0,4.09,43.23c.95,3,1.65,6.17,2.46,9.26-.68.39-1.36.78-2.05,1.16-1.42-1.73-3.21-3.27-4.22-5.22a163.67,163.67,0,0,1-18.49-67.46c-2-36.25,4.11-71.35,15.15-105.66,4.87-15.12,11-29.83,16.34-44.8a66.69,66.69,0,0,0,3.5-13.39c.24-1.78-1.34-4.93-2.82-5.49s-4.78.92-5.63,2.43c-4.88,8.63-10.41,17.14-13.59,26.43-6.19,18.13-11,36.75-16.37,55.16a5.78,5.78,0,0,1-2.37,3.44c0-5.33-.71-10.77.12-16,4-25.31,10.61-50,22.43-72.84,4.47-8.65,7.14-16.44.18-25.78,1.89.43,3.93.54,5.65,1.33,28.38,13.09,52,32.64,74.52,53.95,16.82,15.88,35,30.39,53.1,44.82,6.53,5.21,14.66,8.42,22.06,12.54Z"/><path d="M845.23,691.9c3,3.7,5.61,6.1,7.23,9,2.37,4.34,3.77,9.2,6.1,13.57,2.6,4.89,6.33,4.82,8.68-.18,1.83-3.88,2.71-8.18,4.36-12.15,1.46-3.54,3.4-6.87,5.66-11.36,3,2.24,5.25,3.48,6.93,5.25,9.94,10.52,16.72,23.11,22.22,36.27,22.74,54.43,33.87,111.39,35.91,170.19A54.67,54.67,0,0,1,939.57,921c-2.87,8.76-8.58,10.93-17.26,7.78a31.93,31.93,0,0,1-8-4C900.45,914.69,886.53,904.54,873,894c-7.86-6.13-11.13-6.36-19.09-.22-12.33,9.5-24.77,18.87-37.38,28a60.32,60.32,0,0,1-13.06,7c-7.95,3.15-13.88.71-16.43-7.5a52,52,0,0,1-2.41-18.54c1.52-21.8,2.78-43.69,6-65.26,5.4-35.79,14.18-70.84,29.28-103.94C824.69,723,830.68,713,836.47,703,838.56,699.4,841.65,696.37,845.23,691.9Z"/><path d="M453.52,288.91c-.95,13.77-2.25,25.52-2.38,37.28a41.68,41.68,0,0,0,3.37,17.27c4.74,10.41,10.82,11.21,19.44,3.8,9.81-8.43,12.24-20.23,13.79-32.05,1.88-14.37-1.48-28.31-5.38-42.09-4.23-15-8.25-30-12.27-45.05a11.45,11.45,0,0,1,.51-7.56c1.3,1.85,3,3.54,3.83,5.57,8.28,19.51,16.84,38.91,24.4,58.69a100.57,100.57,0,0,1,5.85,26.07c3.05,32.1,15.56,59.29,39.71,80.93,1.9,1.7,3.51,3.75,6.26,6.73-2.79,0-4.41.48-5.49-.07C529.31,390.28,515.43,380,506.39,364c-8.28-14.62-12.45-15-24.64-3.15-5.23,5.07-10.67,10-15.46,15.44-16.46,18.75-18.17,40.43-11.62,63.39,2,6.95,7,11.92,13,15.82,2.45,1.61,5.07,3,8.64,5-2.27,8.6-4.33,17.2-6.82,25.68-4.65,15.89-10.22,31.54-14.12,47.61-2.64,10.84-3.16,22.22-4.41,33.38-.39,3.49-.06,7.06-.06,10.59l-2.07.57c-.84-1.79-2-3.49-2.47-5.37a110.19,110.19,0,0,1-1.57-45.34c3.05-18.29,6.11-36.59,9.35-54.85,1-5.53-.44-9.08-5.38-12.42-11.61-7.86-15.2-20.38-17.31-33.39-3.16-19.43,1.53-36.92,14-52,4.71-5.7,5.27-10.95,3.58-18.16C443.83,334.53,444.43,312.32,453.52,288.91Z"/><path d="M1189.17,397.44c2.85-3,5.64-6,8.55-8.91,21.18-21.16,33.73-46.24,36.3-76.4a112.26,112.26,0,0,1,6.65-28.93c7.19-19.57,15.48-38.73,23.38-58a22.84,22.84,0,0,1,2.45-3.76l2,.65c-.79,5-1.23,10-2.46,14.89-4.19,16.69-9.15,33.2-12.91,50-3.9,17.47-4.07,35,4.93,51.28a40.58,40.58,0,0,0,7.81,10.13c6,5.57,12.09,4.58,16.6-2.41a29,29,0,0,0,3.51-8.14,66.89,66.89,0,0,0,.84-29.56c-.89-4.85-1.54-9.75-2.43-15.46,4,5.76,5.66,10.53,7.24,20.08,2.59,15.65,1.12,31.15-2.91,46.29-1.58,5.93-.31,10.13,3,14.66a111,111,0,0,1,9.74,14.95c10.89,21.36,8.23,42.3-3.2,62.5-2.19,3.87-5.87,7.24-9.57,9.82-4.18,2.91-5.53,6.12-4.63,10.93,2.13,11.39,3.93,22.83,6.07,34.22,3.87,20.6,6.85,41.22,2.77,62.16a18.44,18.44,0,0,1-3.61,8.52c-.52-1.53-1.52-3.07-1.5-4.6.34-23.6-6.18-45.82-13.25-68-3.73-11.67-7.17-23.44-10.46-35.25-2.29-8.23-2.14-8.37,5.09-12.56,9.16-5.31,14.94-13,16.61-23.49,3.43-21.57,1.08-41.67-15.28-58.09-6.08-6.11-11.75-12.64-18.12-18.42-6.81-6.18-10.81-5.55-16.51,1.55a24.75,24.75,0,0,0-3.38,4.88c-7.82,16.92-22.32,26.68-37.8,35.35-1.24.7-3,.51-4.48.74C1189.91,398.51,1189.54,398,1189.17,397.44Z"/><path d="M953.61,910.67c4.53,1.55,7.59-.37,10.92-3.65a56.92,56.92,0,0,1,36.66-16.76l1,2c-3,1.47-6,2.9-9,4.42-7.09,3.62-14,7.31-18.43,14.5-5.54,8.92-7.1,17.78-1.17,27,8.34,12.95,10.25,27.79,12.6,42.5.13.79-.5,1.7-1.3,4.19-2.55-3.35-4.37-5.86-6.3-8.28-9.56-12-19.35-23.71-35.23-27.63a29.85,29.85,0,0,0-7.78-1.24c-14.72.4-21.42,6-18.45,20.87,1.26,6.29,1.14,12.84.54,19.5-4.06-3.23-4.21-7.79-5.07-12-3.86-19-15.2-31.87-32.63-39.58-7.55-3.35-10.58-2.06-14.46,5.09-1.18,2.17-2.38,4.33-4.4,8-1.72-3.48-2.8-5.3-3.55-7.24-2.8-7.29-4.86-8.21-11.8-5.22-13.11,5.64-20.41,16.38-25.57,29-1.67,4.08-3.37,8.15-5.05,12.23l-2.39-.59c.44-4.74.68-9.5,1.34-14.21,1.29-9.22-2-13.12-11.17-12.86-10.92.31-19.16,4.7-23.23,15.35-3.31,8.66-6.58,17.32-9.9,26-.54,1.4-1.29,2.71-1.94,4.07l-1.86-.59c2.1-8.51,4.12-17,6.33-25.5,1-3.84,2.39-7.58,3.55-11.38A22.57,22.57,0,0,0,774,940.46c-2.61-4.84-4.08-10.3-6.06-15.49l1.72-1.06c1.48,2.15,3.1,4.21,4.43,6.45,7.71,13,17.89,17.42,31.89,11.11,12.28-5.54,24.69-12,35-20.49,14.12-11.7,26.8-11.71,41.54-2.22,10,6.43,20.84,11.54,31.45,17,18.38,9.4,35.74,3.45,38.67-21.63A22.81,22.81,0,0,1,953.61,910.67Z"/><path d="M862.49,480.75c-.21-13.16-.6-26.32-.57-39.48,0-18-1.8-35.6-8.46-52.62-6.05-15.45-15.8-27.52-30-35.84-10.85-6.37-22.24-11.8-33.11-18.13-16.1-9.37-34.56-28.22-41.2-47.93,4.42,1.13,5.73,4.69,7.7,7.22,14.17,18.28,30.61,33.84,51.57,44.23,21.44,10.62,43.19,12.34,66.44,5.57a135.76,135.76,0,0,0,45.53-23.36,103.79,103.79,0,0,0,27.24-31.26c1.06-1.87,2.39-3.59,4.45-6.65,1.4,8.1-2.44,12.93-5.25,17.9-9.5,16.8-24.31,28.64-38.67,40.92-7,6-14.07,12.08-20.49,18.72-8,8.3-12.19,18.6-14.71,29.9-4.94,22.17-5.07,44.71-6.31,67.18-.43,7.92-1.14,15.82-1.72,23.73Z"/><path d="M506.61,263.28c7.39,7.22,12.31,16.19,16.11,25.63,5.07,12.58,8.8,25.7,14.06,38.18,7.34,17.4,19.21,31.57,34,43.19,7.57,5.93,16.73,8,26,9,15.3,1.7,27.4,8,37,20.4,13.61,17.47,32,29.53,50.3,41.6,7.6,5,15.46,9.64,22.6,16-1.68-.23-3.52-.1-5-.74C676.61,446,655,430,635.52,411.5c-12.28-11.62-24.29-17.8-40.77-10.43-3,1.32-6.41,1.63-9.65,2.28-8.4,1.69-15.76-.54-22.05-6.25-24.38-22.16-41-48.3-43-82.26-.86-14.72-5.75-28.49-11.94-41.8-1.34-2.88-2.44-5.87-3.65-8.81Z"/><path d="M1224.65,285.14c-3.77,18.73-6.6,37.72-11.55,56.14-5.73,21.33-19.08,38.31-34.86,53.49-5.63,5.41-12,6.74-19.17,5.12-6.47-1.45-12.85-3.29-19.3-4.83-5.66-1.35-11.22-1.45-16.13,2.37-7.15,5.55-15.5,7.77-24.25,7.54-19.67-.52-33.37,8.61-43.31,24.89-4.79,7.84-9.9,15.55-18.46,20.61.79-1.46,1.51-3,2.39-4.38,5.1-8.14,10.08-16.36,15.41-24.35a112.66,112.66,0,0,1,10.29-13.33c5-5.56,11.26-9.05,19.13-9.26,6-.15,11.88-1,17.83-1.32,5.23-.26,10-1.73,13.28-5.8,9-11.38,21.71-14.83,35.08-16.29,13.18-1.43,23.78-6.9,33-16.37,13.88-14.26,25-29.84,30-49.53,2.14-8.57,5.79-16.76,8.76-25.12Z"/><path d="M1040.9,927.84c-3.9-20.89-7.27-41.81-.85-63,1.82-6,6.49-9.05,12.48-10,3.92-.59,8.07-.15,11.83-1.21,6.59-1.85,14.29-2.94,19.2-7.1,18.52-15.67,40.13-22.71,63.53-25.38,16.77-1.91,33.64-3.34,50.37.7a10.23,10.23,0,0,1,6.17,3.59c-3.51,0-7,0-10.54,0-20.33-.24-40.39,2-59.74,8.26a90.32,90.32,0,0,0-20.35,10c-9.18,5.88-17.52,13-26.67,19-4.88,3.17-10.51,6.15-16.13,7-12.56,1.92-19.76,9.58-22.9,20.62-2.49,8.75-2.62,18.19-3.61,27.34-.37,3.4-.21,6.85-.29,10.27Z"/><path d="M722.84,935.72c-5.67-6.43-10-13.5-10.24-22.58-.1-4.3,0-8.63-.49-12.9-.93-8.2-3.88-11.78-12.07-13.49-6.68-1.4-11-4.58-11.6-11.54-.56-6.78-4.65-10.92-10.08-13.78-7.52-3.94-15.33-7.34-23.71-11.3,1.38-.63,2.17-1.34,2.86-1.26,21.83,2.83,41.73,10.35,58.44,25,6.8,6,11.38,13.57,14.76,22.08,3.08,7.75,3.68,14.23-2.94,20.76-2.36,2.33-2.6,7.08-3.21,10.82-.4,2.42.28,5,.48,7.53Z"/><path d="M577.4,915.25c.92,3,2.26,5.88,2.69,8.91q3.7,26,7,52.06c2.32,18,4.29,36.1,6.71,54.12a128.72,128.72,0,0,0,17.63,49.15c.79,1.33,1.39,2.77,3,6-9.51-4.82-13.12-12.19-17-19.06-11-19.41-15.14-40.87-17-62.73-2.38-28-4-56.06-6-84.1a21.32,21.32,0,0,1,.41-3.78Z"/><path d="M504.45,723.23c-17-11.57-31.58-61.75-21.51-84.76C486.48,667.64,493.2,696,504.45,723.23Z"/><path d="M1263.39,603.36c3.6,30.71-2,59.11-21.92,83.93-1-7.42,3.87-13.22,5.54-19.92,1.83-7.38,4.1-14.66,5.92-22,1.74-7.07,3.36-14.17,4.66-21.33,1.27-7,2.07-14.08,3.07-21.12Z"/><path d="M700.31,950.22c15.66,17.38,9.61,64.48-9.48,83.55.23-3.13,0-5.19.58-7,2.06-7,4.47-13.87,6.57-20.85a103.86,103.86,0,0,0,3.35-46.22C700.89,956.83,700.7,954,700.31,950.22Z"/><path class="cls-1" d="M1599.18,189.14c-3.55-6.25-7.22-12.43-10.72-18.7-6.17-11.05-12.57-22-17.3-33.77-1.28-3.18-2.57-6.08-6.15-5.81-1.92-4.29-3.31-8.39-5.51-12-1.91-3.13-2-3.37.48-6.17,4.5-5.09,12-5.88,16.07-11.46.07-.11.3-.1.42-.19,6.35-4.7,11.53-10.14,11.7-18.72,0-1.56.23-3.12.18-4.68-.16-5.14,1.33-9.76,3.48-14.42,2.67-5.76,2.21-11.69-.81-17.42a8.85,8.85,0,0,1-.79-4.42,19.06,19.06,0,0,0-1.85-10,80.57,80.57,0,0,0-16.47-22.63,20.09,20.09,0,0,0-6.77-3.89c-3.93-1.47-8.1-2.27-12.05-3.7a11.08,11.08,0,0,0-7.75-.3,49.68,49.68,0,0,1-19.86,2.54c-15.45-1-30.92-1.79-46.39-2.65-4.21-.24-8.43-.38-12.64-.67-3.63-.26-6,1.53-7.35,4.61a13.92,13.92,0,0,0-1.28,5.39,79.54,79.54,0,0,0,.58,12.64c1.51,9.78,2,19.53.37,29.33-.15.92-.21,1.86-.29,2.8a70.91,70.91,0,0,0,.66,17.75,129.81,129.81,0,0,1,2.06,20c.16,14.23-.26,28.47-.43,42.7a33.67,33.67,0,0,0,0,3.76c.34,3.29,2.23,4.71,5.43,4.1a18.53,18.53,0,0,0,2.58-.91c.62,4.19.29,4.67-3.24,5.05-5.1.55-5.1.56-5,5.65,0,.78.13,1.56.1,2.34-.12,3.17-.94,4-4,3.23-1.83-.42-3.31-.45-4.74.93-1.22,1.19-2.46.56-3.86,0a19.54,19.54,0,0,0-5.74-1.3c-3.27-.21-6.57-.14-9.85,0-1.7,0-3.59,0-5,.72-3.79,1.89-7.65,1.56-11.48.79-8.68-1.76-17.43-1.61-26.19-1.32-6.73.21-13.45.5-20.18.56-4.23,0-4.81-.83-4.73-5,.17-8.14.23-16.27.27-24.41a9.64,9.64,0,0,0-.49-4.15c-1.57-3.18-.84-6.47-.84-9.7s.8-3.62,4.14-3.48c3.59.16,7.19.38,10.78.47a12.71,12.71,0,0,0,7.5-2.19,10.49,10.49,0,0,1,5.68-1.5c7,.17,14.06.61,21.09,1,5.84.37,6.18.12,6.12-5.6,0-1.34-.48-2.88,1.65-3.75a7.29,7.29,0,0,1,.92,2.31,28.49,28.49,0,0,1-.6,3.2c-.19,1.76,1,3.4,2.47,3.32,1.66-.09,1.9-1.39,1.91-2.7,0-2.82,0-5.64,0-8.45-.09-5.14-.55-5.57-5.68-5.65-4.72-.07-4.81,0-4,4.62a11.76,11.76,0,0,1-.11,2.21c-4-2-2.74-6.3-4.78-8.93-1.08-1.4-.19-4.32-.19-6.74-2.83-2.91-4.4,2.72-7.5,1.34a35.17,35.17,0,0,1,.89-5.8,3.17,3.17,0,0,1,2.48-1.52c4.41,0,9.16,3.62,10.58,7.88.29.86.48,1.75.72,2.63,1.11.25,2,.5,2.92.66,3.67.67,4.52-.11,4.2-3.79-.2-2.33-.41-4.67-.57-7-.14-2-1.07-3.46-3-3.66a101.47,101.47,0,0,0-14-1c-4.39.16-6.45,2.83-6.87,7.33-.07.72-.27,1.43-.42,2.22L1392,78.91c-1.51-5.67-1.52-5.69-8.16-5-3.27.32-6.53,1-9.8,1a37.52,37.52,0,0,1-8.27-1.14c-1.91-.43-2.64-1.87-2.35-4,1.11-7.9,2.08-15.81,3.15-23.7.42-3.11,1.07-3.88,4.19-3.84,4.62,0,8.71-.74,11.35-5,.19-.32.82-.38.83-.38,2.62.67,4.82,1.54,7.09,1.74,3.19.28,4.61-1.17,4.87-4.31.06-.78-.07-1.57,0-2.35.12-3.16.53-3.66,3.83-3.84,2-.12,3.81-.49,4.43-2.67.74-2.57,2.53-2.64,4.76-2.58,4.32.11,8.71.7,12.83-1.52.82-.45,2.15,0,3.73.12-2.17,3.15-5.13,2.83-7.45,3.88s-4.54,2.47-6.86,3.77c-4.92-3-4.93-3-7.32,2.72a12.88,12.88,0,0,0-.46,2c2.81,1.49,5.13,3.4,5.71,7.16,13.66,0,27.1,0,40.54,0,3.28,0,3.94-.72,4.08-4.34q.54-14.55.8-29.09c.07-3.63-1-4.23-4.17-2.25-1.73,1.09-3.43,2-5.07.4-2.4-2.37-4.37-1.58-6.52.26a13.38,13.38,0,0,1-8.08,3.05c-1.78-3.81-3.73-7.18-8.21-8.93a33.69,33.69,0,0,1-.72,3.6,14.4,14.4,0,0,1-1.2,2.3c-.85-.5-2.19-.81-2.47-1.53C1416,1.53,1413.57.65,1411.1.49a57.19,57.19,0,0,0-9.78.41c-3.1.34-6.15,1.24-9.25,1.53-7,.67-14,1-21,1.66-8.94.82-17.8.8-26.58-1.44a112.09,112.09,0,0,0-11-2.21c-4.41-.64-6.1.79-6.45,5.17-1.41,17.63-2.22,35.28-2,53,.16,11.26.5,22.53-1.32,33.72-.56,3.49-.18,3.78,3.88,4.42,2.55.41,3.34,2.25,1.77,4.36-.74,1-1.81,1.73-2.61,2.68-2,2.39-3.23,5-2,8.21.7,1.84,1,4.28,2.33,5.28.92.67,3.32-.9,5.1-1.07a6.52,6.52,0,0,1,3.83.77c.53.33.63,2,.35,2.91-1.19,3.68-1.53,7,2.37,9.39a2.51,2.51,0,0,1,.56,2.41,2.82,2.82,0,0,1-2.29,1.05,5.8,5.8,0,0,1-5.61-4.19c-.84-2.6-2.15-4.58-5.27-3.8-.51-1.63-.95-3-1.35-4.3-2.13.19-2.43,1.31-2.36,2.69.34,6,.45,12.06-1.05,18a9,9,0,0,0,.26,3.15c.22,1.82.58,3.64.7,5.47.19,2.95-.46,6.18.52,8.81a16.32,16.32,0,0,1,.74,9.55,17,17,0,0,0,0,4.67c.48,7,1,14,1.52,21,0,.16,0,.32,0,.47.15,1.4.79,2.64,2.28,2.31.74-.15,1.35-1.4,1.77-2.27.23-.49-.11-1.23-.1-1.85,0-2,.62-3.75,2.84-4.29a6.52,6.52,0,0,1,6.55,2.93l-3.77,2.36c2.12,3.87,5.19,4.33,7.68,1.34a39.77,39.77,0,0,1,3.9-4.63,6,6,0,0,0,2-3.95,10.08,10.08,0,0,1,2.27-4.35,2.35,2.35,0,0,1,3.71-.24,2.63,2.63,0,0,1,.22,3.81,43.54,43.54,0,0,1-3.79,4.13c-1.31,1.28-1.69,2.87-.76,4.23.67,1,2.12,1.54,3.32,2a6.74,6.74,0,0,0,2.33,0c16.27,0,32.55,0,48.83.2,3.45,0,5.58-1.15,7.1-4.17a8.74,8.74,0,0,1,3-3.23c3-1.89,3.19-1.93,2.52-5.62-.28-1.54-1-3.09,1.27-4.09,2.52.58,4.79,3.71,8.15,1.52.06-.72.08-1.49.19-2.24s.31-1.44.45-2.08c4.44-.31,5.33,0,5.79,3.65a76.06,76.06,0,0,1,.27,11.2c-.1,4,.1,4.56,3.91,4.7,6.09.23,12.19.07,18.28.25a37,37,0,0,1,5.32,1c3.34.6,6.68,1.51,10,1.58,1.59,0,3.6-1.23,4.73-2.51a9.36,9.36,0,0,1,5.4-3.27c3-.65,3.37-2.24,2.15-5.21a8.55,8.55,0,0,1-.82-4c.24-2.13.47-3.9-1.68-5.34-1.59-1.07-1.3-2.6,0-4,1.62-1.85,3-3.89,4.67-5.73a3.42,3.42,0,0,1,2.31-1.11c2.22.11,3.12,1.92,3.75,3.71s.21,3.07-1.79,3.69l-2.58-3.05c-1.28,2.23-2.29,4-3.15,5.5,2,3.13,6.11-.77,7.56,3.34a21.35,21.35,0,0,0-4,2.35c-.63.58-.59,1.88-.86,2.85,1,.16,2.14.7,2.93.38,1.39-.59,2.48-2.33,3.82-2.47,3-.33,4-2.22,4.74-4.49s2-4.91,1.7-7.22c-.85-7.28.46-14.13,2-21.2.93-4.17-.52-8.94-1.22-13.39-.37-2.38-.74-4.59.55-6.8a8.3,8.3,0,0,0,.37-7.26c-.52-1.47-1.21-2.88-1.71-4.36-.92-2.74-.25-4.87,2.23-6.9.41.65,1,1.24,1.13,1.9.49,3.43,2.63,4.69,5.83,4.94a20.53,20.53,0,0,1,5.53,1c3.61,1.35,7.09,2,10.57-.26.12-.08.52.27.89.47.66,2.31-.76,3.16-2.62,4.08-3.27,1.62-4.42,4-2.73,6.29,4.11,5.52,6,12,8.51,18.2,1,2.59,1.68,5.88,3.64,7.43,3.89,3.09,4.75,7.24,5.61,11.45.48,2.32,1.18,4.24,3.22,5.4a8.41,8.41,0,0,1,3.89,5.61c.67,2.57,1.37,5.14,1.89,7.74.6,3.06,2,5.07,5.36,5.56,2.62.37,5.12,1.46,7.72,2,6.29,1.29,12.59,2.55,19,.88a57,57,0,0,1,18.56-2.06,7.44,7.44,0,0,0,2.37-.75A17.61,17.61,0,0,0,1599.18,189.14ZM1583.78,50.5c.76-.06,2.27.93,2.28,1.49,0,.94-.89,1.89-1.89,3.73-1.25-1.65-2.3-2.46-2.41-3.37C1581.7,51.77,1583,50.56,1583.78,50.5ZM1400.05,87.23c.34-.06.75.27,1.13.43l-.62,1.09-1.26-.67C1399.55,87.78,1399.76,87.28,1400.05,87.23Zm-27.59,3.84c.38.12.7.94.77,1.47,0,.33-.37.85-.72,1.07-1.62,1-4,.24-5.9-1.88C1368.37,89.7,1370.47,90.46,1372.46,91.07Zm11.38-61c-2.4-2.35-2.4-2.35-.38-5.93C1385.33,27.23,1385.33,27.23,1383.84,30Zm-2.38-16.46c.39,1,.8,1.56.71,2s-.7.76-1.08,1.13c-.3-.46-.82-.92-.82-1.38S1380.82,14.46,1381.46,13.57ZM1333.2,182.51c-.15.73-1,1.31-1.55,2a11,11,0,0,1-1.94-1.7c-.32-.44-.21-1.18-.36-2.22.52-1.56,1.09-3.47,1.85-5.31.17-.41,1.18-.88,1.49-.72.58.29,1.32,1,1.29,1.58A39.39,39.39,0,0,1,1333.2,182.51Zm1.53-19.5c-.21-.14-.55-.24-.6-.41s.18-.46.29-.69l.64.39Zm3-18.87a1.71,1.71,0,0,1-1.5.74c-1.94-.46-1.68-1.81-1.1-3.71C1337.15,141.64,1338.14,142.43,1337.72,144.14Zm20.35-72.84c-1.16,1.93-1.8,4.35-4.9,4.4-.83,0-1.8,1.48-2.42,2.46-1.61,2.57-3.76,3.43-7,2.79,1.55-3.57,3-6.62,7.36-6.54.47-2,.75-3.87,1.35-5.61a3.24,3.24,0,0,1,4.84-2C1359.22,67.65,1359.49,68.93,1358.07,71.3Zm52,117.59c-2.17.25-3.46-.67-4-2.93-.32-1.25-1.4-2.3-2-3.48a21.77,21.77,0,0,1-1-2.39c.94-.36,1.9-1.06,2.82-1,3.94.18,6.53,2.61,6.55,6C1412.19,186.61,1412.49,188.6,1410.05,188.89Zm10-14.31c-.37-.59-.84-1-.79-1.32.22-1.43.58-2.84.89-4.26.55.16,1.46.17,1.59.49C1422.62,171.54,1422.19,173.25,1420.09,174.58ZM1538,25.11c2.06-.22,2.78-1.67,3.73-3.12.75-1.13,1.9-2.49,3.3-1.11.4.39-.11,2.37-.78,3.07a68.38,68.38,0,0,1-6.62,5.87c-1,.8-2.36,1.16-4.36,2.1C1533.81,27.82,1534.78,25.46,1538,25.11Zm-35-1.52c.51-.59,2.75-.34,3.73.27,1.38.85.7,2.5-.37,3.12-2.3,1.34-3.77,4.19-8.24,4.15C1500,28.06,1501.27,25.6,1503,23.59Zm-27.39,132c-2,0-2.45-1.72-2.33-3.3a9.9,9.9,0,0,1,1.21-2.95l1.2-.05c.6,1.06,1.51,2.06,1.73,3.2C1477.69,153.82,1477.51,155.59,1475.63,155.61Zm-.47-100.88a2.54,2.54,0,0,1,1.43-.86c.12,0,.46.63.85,1.21l-1.56,1C1475.62,55.6,1475,54.94,1475.16,54.73Zm-9-13.81c-1.54-.36-1.39-1.41.4-4.27,3.42,2.9,7.15,2.13,11,.89,1.82-.59,3.76-1.63,6,0-1.38,1.56-2.62,3-3.94,4.41-.4.43-1.07,1-1.55.91C1474.12,42.33,1470.11,41.83,1466.2,40.92ZM1484.3,165c-.57-.57-1.57-1.12-1.61-1.73a2.34,2.34,0,0,1,1.44-1.77c.52-.12,1.28.75,2.21,1.37Zm6.48-28.1c-3.42,1.82-7,3.37-10.53,4.94-.3.14-.83-.26-2-.68a18.88,18.88,0,0,1,2-2.43c1.92-1.59,3.89-3.11,5.89-4.59.86-.63,1.84-1.47,2.78-1.5a3.25,3.25,0,0,1,2.53,1.48C1491.76,134.81,1491.38,136.56,1490.78,136.87ZM1491,43a7.4,7.4,0,0,0-3.93,4.25c-.35.76-2,1.71-2.46,1.46-.84-.44-1.24-1.72-1.4-2,.2-5,2.77-7.46,6.74-7.26a2.24,2.24,0,0,1,1.7,1.18C1491.82,41.41,1491.53,42.8,1491,43Zm1.34,119.15c-.93-1.7-.5-3.07.68-4.52C1495.49,160.33,1495.35,161,1492.38,162.16Zm9.7-58.91V96.76c2.51-.19,3.27,1.06,3.21,2.77C1505.23,101.4,1504.83,103.25,1502.08,103.25ZM1530.63,131c-1.09-1.32-2-2-2.15-2.79-.1-.56,1-1.92,1.35-1.85a3.38,3.38,0,0,1,2.37,1.52C1532.42,128.45,1531.44,129.49,1530.63,131Zm7.08,18.11c-.93,1.25-2.07,1-3.42.09.59-2.08,1.79-2.12,3-1.61A1.61,1.61,0,0,1,1537.71,149.11Zm13.21-84.57c-.55,4.88-1.82,9.83-5.81,13.52-1,.94-1.18,2.78-1.62,3.91-3.49,1.22-6.35,2.3-9.27,3.22a28,28,0,0,1-6.35,1.57q-10.53.76-21.09,1.07c-4,.12-4.65-.62-4.7-4.59-.11-8.92-.12-17.84-.2-26.75,0-1.3-.22-2.6-.4-4.68a25.71,25.71,0,0,1-3.62,2.57,7.73,7.73,0,0,1-2.58.28c-.07-1-.51-2.2-.13-3a5.22,5.22,0,0,1,2.42-2c3.53-1.78,3.61-1.87,2.9-5.71a44.2,44.2,0,0,1-.82-5.09c-.16-2.64.55-3.4,3.23-3.32,3.59.1,7.2.73,10.76.51A133.05,133.05,0,0,0,1528,34.15c2.08-.37,3.87-1,5.49,1.08.57.71,1.89.86,2.88,1.21,1.56.55,3.15,1,4.71,1.58a8.4,8.4,0,0,1,6.14,7.49,3.1,3.1,0,0,0,.75,1.7C1552.87,52.3,1551.58,58.64,1550.92,64.54Z"/><path class="cls-2" d="M544,154.83c2.55-1,5-2.54,7.93-1.54.47.16,1.31-.68,2-1.09,2.73-1.71,3.85-1.59,6,.8.94,1,1.71,2.24,2.68,3.26,1.28,1.35,2.68,1.57,4,0,2.26-2.76,5.18-5.23,6.61-8.38,3.27-7.19,1.87-14.48-1.9-21.09a17.4,17.4,0,0,1-2.66-7.31,24.17,24.17,0,0,0-.77-5.1q-3.87-12.73-8-25.42c-1.52-4.75-3-9.52-4.84-14.18a6.67,6.67,0,0,0-3-3.15,3.6,3.6,0,0,1-2.14-4.15,64.89,64.89,0,0,0-5.18-32C542,29,539.57,22.74,538.34,16c-.42-2.31-1.46-4-3.93-4.77a4.08,4.08,0,0,1-2.51-1.87c-1.84-4.89-5.2-5.82-9.78-4.2-.38.13-.9-.11-1.58-.21-.47-1.37-1-2.78-1.45-4.22a9.68,9.68,0,0,0-1.94-.43C506.2.2,495.25.12,484.3.18c-3.55,0-5.36,1.63-6.05,5.31-.72,3.84-1.14,7.74-1.69,11.61-.37,2.62,1,4.13,3.25,5a19.67,19.67,0,0,0,3.11,1.06,10.16,10.16,0,0,1,5.71,3.74,21.59,21.59,0,0,0,6.17,4.85c3.19,1.71,5.59-.11,5.89-3.68a13.51,13.51,0,0,1,1.69-5.66c1-1.61,2.09-2.92,2.16-5a3.36,3.36,0,0,1,2.28-2.33,3.85,3.85,0,0,1,2.9,1.63c1.51,2.21,1.14,3.74-1.41,5.43s-4.05,3.56-3.95,6.86c.16,5.32-.53,5.9-5.52,7.73-2.24.82-3.82.89-4.94-1.66a4.27,4.27,0,0,0-2.63-2.21c-4.6-.91-9.24-1.66-13.89-2.21-4.13-.48-4.58-.12-5.49,3.88-1.45,6.38-2.78,12.78-4.1,19.19-.25,1.21-.09,2.5-.28,3.72-.28,1.79-.67,3.57-1.1,5.34-.29,1.2-.88,2.34-1.08,3.56-.78,4.62-1.46,9.26-2.17,13.9-1,6.16-1,6.16,2.65,10-.25.36-.45,1-.79,1.06-3.51.87-4.4,3.6-5,6.67a10.94,10.94,0,0,1-1.4,4.42c-2.36,3.27-2.36,7-2.68,10.27,1.3,1.43,2.63,2.41,3.27,3.71,1.23,2.51,2,5.24,3.09,7.8a5.63,5.63,0,0,1-.44,5.78,3.38,3.38,0,0,1-2.83.82c-.57-.1-1.34-1.33-1.33-2.06,0-1.7.55-3.4.62-5.1.13-3.23-.65-3.89-4.32-4.21-1.22,2.7-2.53,5.31-3.6,8a110.3,110.3,0,0,0-7.28,28.08c-.36,3.27-.53,6.62-3.83,8.62a2.61,2.61,0,0,0-1,1.55c-1.27,5.62-4.35,10.77-4.27,16.74,0,1.32.28,2.94-1.79,3.44-2-1.22-1.34-3.25-1.23-5,.35-5.62.95-11.22,1.24-16.84.19-3.54-2.81-6.78-5.69-5.67-3.41,1.32-6.31,2.14-9.42-.28-.3-.22-.92,0-1.38,0-4.07,0-8.14,0-12.21.08-1.39,0-3,0-4.1.63-3.25,2-6.66,1.74-10,1-8.51-1.75-17.1-1.8-25.72-1.54-7,.21-14.07.51-21.11.63-5.12.08-5.69-.61-5.67-5.59q.06-11.73,0-23.47a45.58,45.58,0,0,0-.31-4.67c-.29-2.92-.85-5.83-.94-8.75-.11-4,.54-4.5,4.66-4.31,3.59.16,7.18.41,10.77.49,2.37.06,4.64-.29,6.51-2.08,1.68-1.6,3.8-1.9,6.12-1.75,7.33.51,14.67.87,22,1.27,1.09.06,2.64.52,3.18,0,2.29-2.27,4.77-1.27,7.33-.63,2-3.43.92-6.92.92-10.24,0-7.53-.73-6.36-7.47-6.53-1.92,0-2.79,1.06-2.52,3.07.17,1.25,1.09,2.77-1.29,3.81-.91-2.68-1.63-5.34-2.7-7.85-.77-1.79-1.53-3.31-.43-5.29a2.9,2.9,0,0,0-.54-2.8c-.56-.42-2.06-.11-2.83.38-1.25.8-2.1,2.42-4.22,1.14.15-1.6.26-3.28.46-4.94.23-2,1.46-2.69,3.31-2.21,3.16.81,6.49,1.38,8.14,4.78.67,1.38,1.39,2.73,2.08,4.1a5.65,5.65,0,0,0,6,2.51c2.27-.77,1.79-2.56,1.59-4.3-.26-2.17-.43-4.36-.54-6.54-.1-2-.93-3.55-2.87-3.74-4.95-.51-10-1.24-14.88-.9-4.37.3-6.1,3.28-5.95,7.83a18,18,0,0,1-.54,2.73c-1.55-1.82-2.57-3-3.71-4.34a19.88,19.88,0,0,1-2.17,0,14.77,14.77,0,0,1-2-.4,6,6,0,0,1-.58-1.1c-1.12-5-1.12-5.13-6-4.8-4.37.3-8.71,1-13.08,1.13a21.39,21.39,0,0,1-6.79-1.3c-2-.64-2.71-2.1-2.27-4.43.86-4.6,1.32-9.28,1.95-13.92.42-3.1.75-6.22,1.31-9.29.42-2.35,1.62-4.18,4.41-3.89,4.79.5,8.57-1,11.16-5.2.12-.19.57-.18,1.07-.33A23.07,23.07,0,0,0,358.56,38a12.48,12.48,0,0,0,3.69.53c3.12-.05,4.24-1.12,4.54-4.17.11-1.24-.09-2.51.09-3.74.27-1.9,1.08-3.29,3.44-2.69,2.92.75,4.41-.69,5-3.41.1-.43.49-.78,1.13-1.75,3.06,0,6.52-.36,9.87.1s6.15-3.35,10.12-1.12c-4.18,4.34-11.74,1.93-14,8.26-2.22-.94-2.81-4.28-5.69-2.79l-2.69,6.43,4.65,2.77c.39,1.37.76,2.68,1.28,4.48,13.25,0,26.37,0,39.5,0,4.36,0,4.74-.48,4.91-4.89q.52-13.83.92-27.67a34.27,34.27,0,0,0-.72-5c-1.93,1.1-3.11,1.75-4.26,2.45A3.54,3.54,0,0,1,416,5.65c-3.18-2.2-3.27-2.15-6.25.28a10.68,10.68,0,0,1-7.59,2.78C400,6,398.25,3.62,396.32,1.43a3,3,0,0,0-2.38-1c-.59.16-1.05,1.34-1.29,2.15a27.72,27.72,0,0,0-.5,4c-1.5-1-2.83-1.42-3.25-2.28C387.14.73,384,.19,380.6.13a26.9,26.9,0,0,0-6.52.6C360.56,3.84,346.75,3.85,333,4.52c-4.93.23-10-.78-14.89-1.53-4.32-.65-8.54-1.87-12.85-2.59-4.15-.7-6.23,1.11-6.54,5.22-1.58,21.24-2.06,42.5-1.84,63.79.08,7.49-.47,15-.91,22.49-.23,3.87-.34,3.95,3.59,5,2.73.72,3.2,2,1.51,4.32a13.57,13.57,0,0,1-1.61,1.7,9.42,9.42,0,0,0-2.76,9.41c1.3,6.19,1.28,6.2,7.08,4a4.65,4.65,0,0,1,3.44.13,2.63,2.63,0,0,1,1.07,3.65c-1.64,3.72-1.51,6.93,2.47,9.2a2.12,2.12,0,0,1,.73,2,3.36,3.36,0,0,1-2.11,1.45,5.58,5.58,0,0,1-5.9-3.73c-.95-3.17-2.48-4.89-5.93-3.94-.46-1.88.5-4-1.93-4.68-1.66.63-1.7,2-1.48,3.43.16,1.08.7,2.24.45,3.2-1.29,4.86.77,10.08-1.65,14.8a1.7,1.7,0,0,0,.06,1.36c2,3.86.84,8,1.09,12,.13,2,.16,3.93,1.53,5.73.71.94.63,2.6.63,3.94,0,3.1-.37,6.2-.28,9.29.18,6.24.54,12.47.85,18.7a6,6,0,0,0,.35,2.73,3,3,0,0,0,2.25,1.12c.47,0,1.23-.94,1.37-1.56.2-.87-.33-1.93-.08-2.77a7.28,7.28,0,0,1,1.83-3.5c1.83-1.48,5.6-.59,8.1,1.7-1.43,1.07-2.82,2.09-4.2,3.11,2.83,4,5.64,4.14,8.15.77.57-.75,1.06-1.56,1.66-2.28,1.84-2.16,4.71-3.69,3.83-7.39-.15-.67,1.13-1.76,1.88-2.53,1-1.05,2.26-1.93,3.68-.72a2.9,2.9,0,0,1,.54,4.19,15.63,15.63,0,0,1-3.13,3.45,3.83,3.83,0,0,0-1.56,4.5c.57,2.18,2.37,2.2,4.12,2.26.93,0,1.87,0,2.81,0h24.42l24.41,0c3.72,0,4.75-.74,6.21-4.35.28-.7.53-1.85,1-2,4.83-1.33,6.24-4,4.05-8.69-.67-1.46,1.1-2.61,2.63-1.89.55.26,1,.8,1.5,1.12,3.69,2.26,5,1.74,5.9-2.38.5-2.21,2.49-3,4.11-1.43a8.64,8.64,0,0,1,2.47,4.37,31.89,31.89,0,0,1,.22,8.83c-.76,5.88-.91,5.9,5,6.3.78.06,1.57.06,2.35.1,8.56.41,17.2-.16,25.6,2.31a16.87,16.87,0,0,0,5.59.46q13.82-.76,27.62-1.77c3-.22,3.54-1.09,3.65-4.31s-.08-6.6.33-9.85c.85-6.8,1.92-13.58,3.09-20.34.44-2.54,2.12-3.1,4.84-3,11.25.4,22.51.44,33.77.5,3.67,0,7.13-.76,9.9-3.54a3.45,3.45,0,0,1,4.66-.69c2.16,1.34,4.15.39,6.18-.74-.39-1.65-.74-3.15-1.12-4.79C540.86,149.73,541.78,153.09,544,154.83ZM497.74,10.36c-.22.83-1.13,1.48-1.51,1.94-2.35-.19-4.14-2.28-3.6-4a3.13,3.13,0,0,1,2.16-1.76C496.58,6.39,498.23,8.53,497.74,10.36ZM392.19,100.77c2.21,2.2,2.21,2.2.1,4.55C390.63,103.07,390.63,103.07,392.19,100.77ZM373,87.43a3.92,3.92,0,0,1,.34.91,4.83,4.83,0,0,1-1.22.13c-.13,0-.19-.48-.28-.74A6,6,0,0,1,373,87.43Zm-32.32,3.16a12,12,0,0,1,3.73,1.08,2.56,2.56,0,0,1-.08,1.55,12.93,12.93,0,0,1-3.49.42c-.69,0-1.35-.58-3-1.35C339.28,91.37,340,90.55,340.66,90.59Zm13.82-65.91,1.59,0a15.9,15.9,0,0,1,.55,3.44c0,.48-.9,1.11-1.51,1.3-.28.09-1.23-.7-1.22-1.07A26.26,26.26,0,0,1,354.48,24.68Zm-49.22,158.4c0,.59-.9,1.63-1.3,1.59-.79-.08-2.13-.7-2.17-1.2a24,24,0,0,1,.17-5.87,3.17,3.17,0,0,1,3.36-3C305.32,177.63,305.4,180.36,305.26,183.08Zm.93-19.87c-.14-.33-.28-.65-.43-1,.24-.09.56-.31.7-.23s.21.46.31.7Zm2.45-18.42a13.91,13.91,0,0,1-2.37-1.59l1.93-1.59a10,10,0,0,1,1.48,2C309.78,143.83,308.83,144.86,308.64,144.79ZM331,69.8c-.94,1.9-2.05,4.47-3.71,5.09-2.85,1.07-4.45,3-6.31,5.08-1.14,1.26-2.74,2.09-5.05.52,1.75-3,2.73-6.3,7.34-6,.28-1.75.48-3.4.82-5,.56-2.67,2.73-3.89,5.19-3C330.79,67.11,331.7,68.37,331,69.8ZM384.1,185.86c-.14,1.47-.4,2.85-2.16,3.14a2.64,2.64,0,0,1-3.36-2.39c-.29-1.78-.77-3.22-2.58-4.12a2.46,2.46,0,0,1-.91-2.24c.21-.62,1.36-.92,1.69-1.11C382.34,179.21,384.54,181.41,384.1,185.86Zm8.09-12.16c-.14-.06-.33-.08-.41-.19-1.29-1.74-1.23-3.39.52-4.74a1.7,1.7,0,0,1,1.6.25C395.08,170.14,394.43,171.8,392.19,173.7Zm154.4-75c.16-3.43.21-3.49,4.87-4.6C550.65,98.22,550.33,98.5,546.59,98.7Zm4.49-23.54c.37.66,1.11,1.67,1,1.78-2.27,2.14-1.86,5-2.31,7.68-.06.34-.6.6-.93.9C545,81,545,81,551.08,75.16Zm-5.8,67.42a3.23,3.23,0,0,1,1,1.13c.07.14-.45.56-.91,1.1a6.16,6.16,0,0,1-.9-1.53C544.44,143.11,545.2,142.53,545.28,142.58Zm-29-117.49a1.59,1.59,0,0,1,1.3-.88c2,.45,2.44,1.85,2.15,3.81a4.48,4.48,0,0,1-1,.22C517.13,27.82,516,26.92,516.3,25.09ZM463.35,160.77a32.59,32.59,0,0,1-3.08,5c-2.14-2.73-2.5-5.26-1.12-7.14.89-1.22,2.21-2.09,3.48-1A3.48,3.48,0,0,1,463.35,160.77Zm-.65-27.2c1.84-2,3.3-1.56,4.11,0a10.74,10.74,0,0,1,.88,8.93C466.5,139.23,466.67,135.33,462.7,133.57Zm5.81,30c-2.2-1.45-1.95-3.32-1.24-5,.31-.76,1.46-1.18,2.23-1.75.58.81,1.58,1.59,1.65,2.46A4.3,4.3,0,0,1,468.51,163.61Zm15.14-64.09c-2.16.22-4.26,1-6.42,1.26s-3.69,2.89-7.18,1.36c3-1.47,4.73-3,4.43-5.89,0-.45,1.31-1.51,2-1.48,3.58.14,7.17.41,10.72.9a3.63,3.63,0,0,1,3.41,3.8C488.16,99.47,485.89,99.3,483.65,99.52Zm25.66,24.35c-4.85-.34-9.68-.37-14.41,1.2a4.1,4.1,0,0,1-3.43-.33c-.58-.54-.33-2.23-.11-3.34.5-2.44,1.16-4.84,1.84-7.24,1.59-5.52,2-11.27,4-16.8,1.54-4.18.9-9.26.78-13.92a10,10,0,0,1,2.33-7.26c1.36-1.66,1.93-4.17,2.33-6.39,1.5-8.46,2.77-17,4.17-25.42.21-1.27.72-2.77,2.28-2.31a3.72,3.72,0,0,1,2.28,2.48c.7,7.91,3.67,15.16,6.29,22.52.51,1.44,1.36,2.75,2,4.17a18,18,0,0,1,1.73,4.66c.48,3.87.45,7.82,1,11.69.41,3.06,1.34,6,2,9.08.47,2.13,1,4.25,1.31,6.4.24,1.69.1,3.44.22,5.15.37,5.13.22,10.42,5,14.45-2.88,2.6-5.66,2.73-8.49,2.48C518,124.76,513.67,124.18,509.31,123.87Zm28.1,19.22c-1.5,2.59-2.23,2.76-4.76.84a6.62,6.62,0,0,0-7.39-.82,5,5,0,0,1-3.85-.23c-.84-.45-1.11-2-1.63-3a13.91,13.91,0,0,1,2.79-1.26,15.36,15.36,0,0,1,2.79,0,6.7,6.7,0,0,0,6.61-5,25.48,25.48,0,0,0,1.15-5.47c.23-2.42.61-4.5,3-5.89.8-.45,1.62-2.52,1.25-3.09-2.3-3.59-.1-6.54,1-9.66a25,25,0,0,1,1.19-2.37c1.57,2.11,2.75,3.51,3.73,5,1.34,2.09.1,3.86-.93,5.62-1.59,2.72-3.51,5.38-1.35,8.27-.4.75-.47,1.12-.7,1.27-4.66,3.11-4.61,3,.26,6a13.45,13.45,0,0,1,3.55,3.62c1.14,1.59.23,3.41-1.68,3C539.56,139.54,538.59,141.06,537.41,143.09Z"/><path class="cls-3" d="M872.59,137.23c-.13-3.59-.3-7.19-.63-10.76a12.44,12.44,0,0,0-3.16-7.57c-1.48-1.66-3.44-3.28-3.65-6.24A10.48,10.48,0,0,0,858,103a7.78,7.78,0,0,1-3.61-2.71,12.23,12.23,0,0,0-7.18-4.9c-1.42-.43-3.19-.48-3.59-2.76a94,94,0,0,1,8.68-4.85,10,10,0,0,0,5.07-5.2,9.56,9.56,0,0,1,3.14-3.86,8.64,8.64,0,0,0,4.24-6.39c.51-3.39.89-6.81,1.22-10.23.21-2.09.22-4.2.36-7.11-.5-.89-2.49-2.08-1.42-4.57,1.9-4.43.73-9-.19-13.37-.37-1.75-1.16-3.95-2.5-4.86-2.92-2-3.39-4.63-3.53-7.68a8.61,8.61,0,0,0-5.47-8,17.36,17.36,0,0,1-5.1-3.24c-5.76-5.67-12.86-8.15-20.66-8.92-4.51-.44-9.06-.44-13.57-.87-5.58-.53-11.23-.86-16.68-2.07C791.29,0,791.38-.38,789,5.46c-.06.15-.07.34-.17.44-.77.71-1.49,1.87-2.34,2a3.14,3.14,0,0,1-2.38-1.61c-.77-1.53-1.54-3-3.42-2.43-3.46,1.07-5.54-.6-7.06-3.18a9.08,9.08,0,0,0-1.22.21c-.29.09-.67.2-.81.43-2.79,4.27-7,4.09-11.31,3.68-5.14-.49-10.28-1-15.43-1.28-4.22-.26-4.68.2-4.73,4.28-.06,5.16-.16,10.33.07,15.48.07,1.49,1.13,2.93,1.79,4.39l0,0c0,1.36.56,3.18-.11,4-1.57,1.88-1.57,3.44-.68,5.55a8.22,8.22,0,0,1,.2,4.11,128.46,128.46,0,0,0-.69,29c.49,5.6,1,11.2,1.47,16.8.27,3.66.36,7.34.53,10.93,2.89,1.37,6.92-.2,8,4.26a20.88,20.88,0,0,0-3.29.75c-.81.33-2.06,1-2.11,1.54-.43,4.45-4.49,8.68-.65,13.42-2,2.27-2.48,4.64-.91,7.25.27.46,0,1.22.05,1.85q.48,32.12,1,64.25c.06,4.42.64,5.14,5.18,5.19,10.79.11,21.58.18,32.38.11A68.8,68.8,0,0,0,794,196c2.81-.5,5.3-1.45,8,.44,1,.7,2.71.52,4.09.49,10.08-.23,19.84-2.49,29.57-4.8,1.11-.26,2-1.4,3.06-2a14.46,14.46,0,0,1,4-1.77c2.6-.48,5.31-.39,7.9-.92s5.46-1.28,6.56-4c1.77-4.34,6.4-6.64,7.66-11.31a18.64,18.64,0,0,1,2-4c.59-1,1.07-2.44,2-2.94,3.82-2.07,4.31-5.45,4.2-9.22C872.93,149.73,872.81,143.48,872.59,137.23ZM859,55.49c1.91-.88,3.47.14,4.61,2.84-.33.26-.65.68-1,.78-2,.46-3.78.25-4.59-1.89C857.83,56.81,858.49,55.73,859,55.49ZM761.44,28.54a6.73,6.73,0,0,1,1.64.88c-.54.48-1,1-1.09.93a6.9,6.9,0,0,1-1.32-1C760.93,29.07,761.25,28.5,761.44,28.54Zm-19.33-.74c.06-1.47-.05-3.08,2-3.3.29,0,.89.53.93.86C745.4,27.74,743.32,27.24,742.11,27.8ZM745.59,48l6.56-1.34C750.08,50.76,748.48,51.16,745.59,48Zm11,88.22c-1-1.95-.6-3.05.95-3.65a1.24,1.24,0,0,1,1.09.56C759.15,134.73,758.44,135.66,756.59,136.22Zm.71-32.16c.23-3.09,2.46-4.16,4.83-4.82.7-.2,1.88.61,2.52,1.27.2.21-.52,2-1,2.09C761.58,103.09,760,105.9,757.3,104.06Zm2.9,19c.54-1,2.52-1.38,3.92-1.67a9.62,9.62,0,0,1,4.17,0c1,.24,1.73,1.28,3,2.32-1.5,1.92-2.36,3.78-3.8,4.58-1,.55-2.82-.35-4.26-.65a2,2,0,0,1-.77-.52C761.19,126,759.19,124.91,760.2,123Zm8.74,45.25c-2.72.94-3.22,3.36-4.14,5.58-.25.59-1.16.92-1.89,1.46-.59-.35-1.36-.55-1.53-1a2.74,2.74,0,0,1,0-2.17,73.41,73.41,0,0,1,5.39-6.3c.33-.35,1.85-.28,2,0A3.82,3.82,0,0,1,768.94,168.27Zm4.38-21.1c-1.38,1.25-2.73,1-3.93-.65.89-1.76,2.14-2.3,3.74-1.27A2,2,0,0,1,773.32,147.17Zm69-29.32c-2.84.3-4-1.26-5-4.09C841.84,114.27,841.84,114.27,842.33,117.85Zm-4.22-97c1,1.34,2.09,2.16,2,2.86s-1.22,1.57-2,1.77c-.44.11-1.68-1.06-1.67-1.64C836.42,23,837.26,22.23,838.11,20.84ZM836.5,75.51c.43.17.9.28.9.37a5,5,0,0,1-.29,1.12c-.26-.1-.71-.17-.74-.32A4.11,4.11,0,0,1,836.5,75.51ZM822,16.56c2.57-1.36,7.68.29,9.15,2.77,1.06,1.79,1,3.49-1,5.55-1.61-2.67-3.4-4-6.24-3.79-.92.07-2.22-1.07-2.79-2A2.75,2.75,0,0,1,822,16.56Zm8.61,82.69c-1.74-2.07-3.25-3.53-6.23-2.48-2.5.89-3.79-1.44-2.9-4.9l4.77.73L828.11,88C830.79,91.53,832.57,94.66,830.61,99.25Zm-55.4-23.88a5.8,5.8,0,0,1-.51-1s.56-.42.65-.36a4.28,4.28,0,0,1,.71.86Zm3.64,36.87c.27-.08.75.64,1.52,1.34a12.42,12.42,0,0,1-2.64,1c-.26,0-.63-.82-1-1.27A9.24,9.24,0,0,1,778.85,112.24Zm.32,68.06a1.88,1.88,0,0,1-2.35-2.12c.07-.87.83-1.7,1.79-3.5,1,1.8,1.84,2.7,2,3.7A2.41,2.41,0,0,1,779.17,180.3Zm.42-56.06c-.49-.16-.89-1-1-1.61,0-.21.88-1,1.23-.88.58.13,1.06.73,2,1.46C780.73,123.74,780,124.38,779.59,124.24Zm3-47.22c.07-4.06.35-8.12.38-12.18.06-6.71.17-13.43-.12-20.13-.13-3.07-1.2-6.08-1.8-9.13a13.58,13.58,0,0,1,0-2.28c2.29-.44,4.54-1.29,6.77-1.23,7.16.2,14.36.34,21.45,1.24s11.66,5,12.57,12.44a8.17,8.17,0,0,0,.43,1.82c1.12,3,3.4,6.1,3.12,9s-1.06,6-1,9.16A7.09,7.09,0,0,1,821.13,72c-2.82,2-5.37,4.31-8.2,6.24-1.2.83-2.93,1.66-4.22,1.42-5-.93-9.59.51-14.32,1.4a46.53,46.53,0,0,1-6.93.94C783.55,82.18,782.54,81.07,782.61,77Zm34.63,20.46c-3.7,2.77-7.88-.5-11.53,1.57l-1,4.83c-2.76-2.81-5.56-3.26-8.69-1.2l-3.45-6.06c1.3-1.59,2.33-.56,3.37,0,3.3,1.79,4.07,1.68,5.85-1.49,1.2-2.14,2.09-4.46,3.5-7.52.56,2.52,1,4.31,1.43,6.47C811.22,92.36,814.73,93.15,817.24,97.48Zm-30.6,90.39c-.59-.23-1-.86-1.82-1.62l2-1.31c.34.61.89,1.2.93,1.83C787.82,187.13,786.87,188,786.64,187.87Zm27.22-5.61c-2.23-.16-4.71-1.94-4.3-3.26.31-1,1.28-1.74,2.4-3.16,1.81,1.78,3.55,2.89,4.3,4.47C816.79,181.43,815.31,182.37,813.86,182.26Zm5.68,2.87c-.21.05-.49-.19-.74-.31l.43-.69.74.34C819.83,184.7,819.73,185.08,819.54,185.13Zm12.09-67a3.62,3.62,0,0,1-1.15,2.8c-1.88,1.6-1.85,3.2-.41,4.86,2,2.35,1.81,4.7,1.47,7.73-.68,6-2.89,12.44,2,18.51-1.8-.26-3.28-.93-4.23-.49-1.12.53-1.8,2-2.64,3.1-2.12,2.74-4.42,5.25-7.77,6.56-2,.81-4,1.71-4.55,4.28-.12.62-1,1.1-1.49,1.64a56.41,56.41,0,0,0-4.09,4.25c-.83,1.05-1.48,2.23-3,1.34A2.53,2.53,0,0,1,805,169a27.15,27.15,0,0,1,3-3.42c-2.83-1.6-5.75-.42-8.73-1.19.21,2.31.69,4.24.48,6.09s-3.12,2.86-1.74,5.84c1,0,2.15-.09,3.31,0,3.26.3,4,1.81,2.39,4.67-.43.77-.91,1.52-1.58,2.63a28.63,28.63,0,0,1,3.68,1.34,2.59,2.59,0,0,1,1.35,1.63c.05.6-.63,1.78-1,1.81-3.26.18-4.48,3-6.66,5.36-.86-1.25-2.11-2.22-2.08-3.15.17-4.57-3.24-7.62-4.56-11.52-.3-.86-.72-1.68-1.14-2.67.67-.76,1.24-1.48,1.86-2.14,1.27-1.37,1.6-2.9-.06-4s-2.85.07-3.55,1.7a15.76,15.76,0,0,1-1,1.7c-2.38-.45-2.79-1.86-2.34-3.28.78-2.48-.31-4.33-1-6.58-1-3.23-2.61-6.56-1.31-10.41.88-2.57.62-5.56.67-8.36.14-7.34.25-14.69.19-22,0-2-.75-4-1-6-.39-3,.33-3.91,3.3-4.52.61-.12,1.24-.16,1.85-.24,5.86-.85,5.86-.85,8.6-6.22,4,4.57,9.8,3.85,14.92,4.94a44.52,44.52,0,0,0,16.07.68c-.33-1.65-.57-2.89-.94-4.75a24.61,24.61,0,0,1,4.32,1.65c1.64,1,2.33,2.75,1,4.38A5.89,5.89,0,0,0,831.63,118.08ZM838,182.21c-1.25.45-2.91-1.38-2.61-3.06.18-1,1.23-1.86,1.89-2.79l3.06,3.33C839.31,180.86,838.79,181.93,838,182.21Zm2.69-50.06c-.44-.1-.76-.73-1.13-1.12.48-.29,1-.79,1.43-.8s.86.53,1.76,1.17C841.69,131.81,841.13,132.24,840.69,132.15Zm5.73-108.33c1.73,3.38,1.77,5.19.06,5.71a3.48,3.48,0,0,1-2.86-.57C842.45,27.91,843.44,26.11,846.42,23.82Zm5.09,130.52a18.27,18.27,0,0,1-3.12-1.68,1.89,1.89,0,0,1-.09-3.2c1.27-1,2.8-1,3.64.41.6,1.06.53,2.49.76,3.75ZM848,118c3.43-1.82,5.59,0,8.51,1.15C852.12,121.2,850.88,121,848,118Z"/><path class="cls-4" d="M729.91,80.55a12.21,12.21,0,0,0-1-2.75,13.28,13.28,0,0,0-1.69,1.33c-.51.58-.82,1.36-1.37,1.89-1.16,1.09-2.53.84-3-.47-.71-1.92,1-8,2.69-9.31,3-2.26,5.36-4.69,4.88-8.92-.33-2.91-2.09-4.49-5-3.77-.73.18-1.35.8-2.08,1-2.51.83-3.66-.26-3.45-3a6,6,0,0,0-.48-3.4c-2-3.14-.41-5.42,1.77-8.88a44.19,44.19,0,0,0,1.88,6.07c.46.92,1.65,1.49,2.5,2.22.56-.84,1.46-1.62,1.61-2.53,1.26-7.34-1.2-13.81-5.18-19.77a6.86,6.86,0,0,0-3.59-2.64c-1.92-.52-2.37,1.41-3.23,2.72-.43.66-1.7.77-2.6,1.12a17.35,17.35,0,0,1-.89-3.24c0-.44.76-.93,1.09-1.45,2.61-4,2.28-6.69-1.14-10.13a8.24,8.24,0,0,1-1.6-2.28,4.29,4.29,0,0,0-4.94-2.61C704,12,702,11.6,701.78,11c-1.09-3.57-4-4-6.91-4.62a3.56,3.56,0,0,1-1.94-1.23c-1.95-2.61-4.72-2.8-7.6-2.74-8,.17-16,.32-23.92.54C653.28,3.2,645.13,4,637,3.63c-9-.46-18-2.09-27-3A87.77,87.77,0,0,0,599.26.37a9.87,9.87,0,0,0-4,1c-2.36,1.17-2.33,3.21,0,4.5,1,.56,2.6.45,2.26,2.54l-4.19,1.74v7.58q0,20.41,0,40.82c0,3.2.92,4.1,3.85,3.75,3.4-.42,6.77-1,10.16-1.51,1.31-.18,2.8-.89,3.65.94-1,1.91-2.68,1-4.13,1.22s-3.3.19-3.8,1c-1.62,2.63-4.81,4.73-3.43,8.68.61,1.78-.47,2.84-2.35,3.29-3.87.92-3.93,1-3.91,4.8,0,4.53.23,9.06.33,13.59.35,15.48.75,31,1,46.42.16,9.21,1.33,18.43-.22,27.63a13,13,0,0,0,.45,3.51c2.19-.29,3.06-1.19,3-2.84,0-.93-.58-2-.32-2.75s1.23-1.49,1.89-2.23a11.34,11.34,0,0,1,1.81,1.86,2.44,2.44,0,0,1,.17,1.82c-1.27,3.86,1,8.59-2.9,11.8a2,2,0,0,0-.4,1.32c-.09,3.72-.21,7.44-.18,11.17,0,2.61,1.54,4.22,3.81,5.44,4.46,2.41,8.86,1,13.22-.1.79-.2,1.69-1.9,1.7-2.91,0-6.14-1.83-8.11-8-8.92-.46-.06-1.08,0-1.36-.23-.72-.67-2-1.77-1.81-2.22,1-2.7-1-4.32-2.19-6.4.79-.4,1.33-.91,1.86-.91,6.4.05,12.8.08,19.2.32,2.64.1,4.86,1.06,5.39,4.21.11.63,1.6,1.66,1.89,1.5a4.33,4.33,0,0,0,1.9-2.24,14.64,14.64,0,0,0,.08-3.8c6.11.66,11.47.35,15.7-3.74,4.76,4.45,4.75,4.31,11.36,3.92,2.58-.15,5.47-.11,7.76.89a13.31,13.31,0,0,0,12.1-.11c4.43-2.16,6.51-.82,8.07,4.88-2.23.06-4.33.12-6.43.16s-4.2-.34-5.65,1.53c-1.85,2.38-4.25,2.17-6.81,1.86-2.09-.25-4.29-1.22-6.47.57,0,.66,0,1.42,0,2.19.18,3.92.74,4.49,4.71,4.61a45.83,45.83,0,0,0,6.09,0,60.15,60.15,0,0,0,10.05-1.49c4.94-1.37,9.74-3.23,14.58-5,1.89-.67,3.72-1.53,5.59-2.27a9.18,9.18,0,0,1,3-1c2.57,0,4-1.37,5-3.54a7.37,7.37,0,0,1,6.1-4.52c1.21-.17,3.15-1.16,3.29-2,.45-2.77,1.92-4.32,4.2-5.67.93-.56,1.47-2,2-3.09a74.83,74.83,0,0,0,5.78-34.4C732.74,113.25,731.24,96.91,729.91,80.55ZM724.1,62.3c2.59.65,3,2,1.67,4.57C723.51,65.63,723,64.35,724.1,62.3ZM603,16.11a10.84,10.84,0,0,1-1.62-1.69c.45-.32,1-1,1.31-.88.61.17,1.1.78,1.91,1.42C603.84,15.52,603.15,16.21,603,16.11Zm15.5,37.7a3.5,3.5,0,0,1-3.27-.42c-1.19-1-1.89-2.66-2.8-4l.71-1.29a24.81,24.81,0,0,1,4.82.57c.83.25,1.95,1.36,2,2.11A4,4,0,0,1,618.5,53.81Zm7.75,98.57c-.22-.66-.52-1.08-.42-1.37s.63-.38,1-.43c.09,0,.43.53.36.69A5.31,5.31,0,0,1,626.25,152.38Zm-2.32-80.15a1.6,1.6,0,0,1,.44-1.51c1.75-.69,2.83.14,3.56,2.1C626.06,74.3,624.82,73.74,623.93,72.23Zm6.88-18.8c-2.89,0-4.19-1.93-5.89-4.08,2.32-3,4.18-6.26,2.61-10.37C630.49,43.44,634.16,47.62,630.81,53.43ZM682,25.81c.83.12,1.55,1,3.15,2.05A29,29,0,0,1,680.54,30c-.29.08-1.37-1.26-1.38-1.95A2.22,2.22,0,0,1,682,25.81ZM654,26.44a3.9,3.9,0,0,1,1.34,1.66c.11.34-.48.91-1,1.89a16,16,0,0,1-1.5-2.62C652.78,27.2,653.92,26.36,654,26.44Zm-14.37-.09c2.09.75,3.72,2.11,5,5.32-1.81.24-3.37,1-4.21.46a11.33,11.33,0,0,1-3.74-3.92C636.14,27.13,638.1,25.79,639.67,26.35Zm29,138.77a5.35,5.35,0,0,1-5.49-.23c0-.36.11-.73.16-1.1l6.45-1.93C669.23,163.46,669.2,164.79,668.62,165.12ZM692.68,60.56c-4.08,2.63-4.53,3.51-3,7.92.8,2.29,1.34,4.37.49,6.78-.33.93.21,2.14.25,3.22.11,3.26.15,6.53.24,9.79a13.51,13.51,0,0,0,.22,3.25,23.77,23.77,0,0,1-1.64,18.12c-.73,1.39-.55,3.35-.47,5a39.71,39.71,0,0,0,.82,7,12.39,12.39,0,0,1-1.69,9.84c-1,1.62-1.1,3.86-1.39,5.85-.39,2.57-1.14,4.87-3.46,6.35a1,1,0,0,0-.35.31c-3,5.89-8.73,8.38-14.06,11.54a30.79,30.79,0,0,1-14,4.68c-3.75.23-7.5.51-11.24.47s-4.19-.79-4.18-4.58q.09-25.58.16-51.15c0-8.1,0-16.21-.14-24.31-.07-3.26-.76-6.51-.94-9.78q-.79-14.27-1.36-28.55c-.09-2.15,1.25-3,3.37-2.83,9,.9,18,1.64,27,2.76a34.06,34.06,0,0,1,8.45,2.64c4.38,1.79,7.57,4.74,8.8,9.6.46,1.81.55,4.13,3.35,5.18,1-1.57,1.83-2.83,2.72-4.22C693.56,56.57,692.51,58.8,692.68,60.56Zm-2.35-7.24a4.22,4.22,0,0,1-2.28-2.83,2.91,2.91,0,0,1,2.73-3.55c.94,0,1.9,1.28,2.43,1.67C693.35,51.44,691.69,53.84,690.33,53.32Zm29.32-12.38c-2.2-.14-3.82-.77-4.85-2.84C718.19,37.13,718.19,37.13,719.65,40.94Zm-23.54,70.82c-1-.25-2.4-1.39-2.4-2.14,0-1.84,1.73-2.62,3.3-2.38,1.09.17,2,1.31,2.88,1.89C699.2,111.7,697.66,112.17,696.11,111.76Zm8.88,69c-.34-.34-.79-.63-1-1-.07-.15.45-.75.78-.82s.59.43,1,.73C705.46,180.09,705.22,180.42,705,180.76Zm6.32-81.52c-.27,1.66-.53,3.32-.77,4.89-5.8,1.28-7.29.65-10.22-3.89A20.81,20.81,0,0,0,697,95.77c-2.56-2.27-2.81-5.09-2.41-8.08.11-.9.93-1.7,1.43-2.54.81.77,1.92,1.39,2.36,2.33s.38,2.45.6,3.68c.72,4,1.42,4.39,5.34,2.85,3.16-1.24,5-.67,6.6,2.11a7.22,7.22,0,0,1,.59,2.2A2.77,2.77,0,0,1,711.31,99.24Zm8.16-9.69c-2.12,3.11-7.71,2.86-9.33-.54-1.07-2.24-2-4.09-4.86-4.29-.74,0-1.4-1.31-2.09-2l1.71-1.22a55.81,55.81,0,0,0,6.91.7c3.94-.15,5.5,3,7.72,5.26A2.27,2.27,0,0,1,719.47,89.55Zm6.79,11.93a3.1,3.1,0,0,1-2.16-2.18A3.07,3.07,0,0,1,726,96.91c.79-.12,1.78,1.07,3.31,2.1C727.92,100.22,727.06,101.51,726.26,101.48Z"/><path class="cls-5" d="M1183.6,128.64c-.38-10.47-.54-20.95-1-31.42-.15-3.16-1.08-6.28-1.75-9.93,1.43-1.23,1.81-3.4,1.54-5.89a78.73,78.73,0,0,1-.85-11.65,214.92,214.92,0,0,0-1.85-37.36c-.51-3.82,1.41-8-1.53-11.53-.31-.37.37-1.47.41-2.24.21-4,.64-7.94-.49-12.06l-4.75,1.53c-3.38-4.4-7.19-3.75-11.12-.85-3.65-3.14-7-2.2-10.32.32a18.22,18.22,0,0,1-2.4,1.45c-1.4.75-3.17,1.47-2.27,3.42s2.72,1.8,4.48,1.09a6.13,6.13,0,0,1,1.73-.69c2.1-.11,3.87.42,4.7,3-.83.32-1.41.77-1.92.7-2.54-.4-4.08.9-5.45,2.81-1.51,2.1-2.38,4.66-5,6-.82.44-.84,2.39-1.3,3.87,1.69.5,3.4.48,3.9,1.25,1.92,2.92,4.7,2.4,7.29,2.16.85,1.2,1.55,2.18,2.2,3.08l3.76-.69c1.35,3.9-.69,10-4.9,14.11a18.26,18.26,0,0,1,.22-3.38c.55-1.93,1-4.2-1.34-4.69s-1.67,2-2,3.4c-.69,2.94-1.91,3.47-4.69,2.2-.91-.42-1.88-.73-3.14-1.21a14.64,14.64,0,0,0-.72,3c0,9.84,0,19.69.35,29.51.16,3.9-.94,8.26,2.61,11.32-2.57,3.48-2.58,3.48-2.21,7.5.48,5.13,1,10.26,1.45,15.4.14,1.66.78,3.86-1.36,4.44s-2.74-1.51-3.26-3.16c-1.93-6.21-5.37-11.63-9-16.87a13.1,13.1,0,0,1-2.65-6.32,7.62,7.62,0,0,0-1.82-4.1,35.29,35.29,0,0,1-7.23-11.28c-.76-2-1.86-4.31-3.52-5.31a8.59,8.59,0,0,1-4.64-8c-.09-4-1.53-5-5.71-5-1,0-1.9-.12-2.85-.19-.05-.25-.09-.5-.14-.76l3.9-2.12c-1.28-5.73-2.07-11.31-7.16-15a7,7,0,0,1-2-3.08c-1.11-2.76-2-5.61-3-8.37a18.7,18.7,0,0,0-2.17-4.07c-2.35-3.21-4.86-6.3-7.26-9.47-.24-.33-.16-.89-.28-1.33-.71-2.66-1.29-5.37-2.23-7.95a3.79,3.79,0,0,0-2.39-1.85c-8-2-15.91-2.93-24,.79-.14,1-.32,2.29-.63,4.46a26.14,26.14,0,0,0-3.77-2.27c-1.51-.59-3.37-1.53-4.67-1.09a4.56,4.56,0,0,1-4.25-.26c-2-1.07-3.15-.27-3.6,2a9.59,9.59,0,0,0-.09,1.86c0,7.83-.18,15.65,0,23.47.1,4.83.71,9.65,1,14.49.18,2.66,1,4.46,4.15,4.54.76,0,2.23,1.45,2.11,1.9-.9,3.5-.76,7.52-4.42,9.82-2.27,1.43-3.11,3.13-1.49,4.88,2.71,3,2.56,5.67.92,8.83a3.52,3.52,0,0,0-.11,1.39c-.31,5.78-.84,11.56-.85,17.34,0,4.17-.52,8.63,2,12.32a10,10,0,0,1,1.72,5.65c.05,2,.23,4.06.36,6.09.28,4.49,1,5.06,5.45,4.8a49.07,49.07,0,0,1,7.95.11c1.72.17,3.52,1,3.46,3.13a3.81,3.81,0,0,1-1.48,2.61c-1.63,1.17-3.16.71-4.53-.81a8.77,8.77,0,0,0-3-2.16c-4.87-2.08-7.06-.36-6.61,5a66,66,0,0,1,.41,8.42c-.24,5.3-.75,10.6-1.21,15.89a5,5,0,0,0,1.88,4.92c2.72,2.13,2.45,2.48,1.1,5.44a25.7,25.7,0,0,0-1.82,6.61c-.34,2.07.92,3.16,3,3.34,1.45.13,2.9.33,4.35.5.07.38.13.76.19,1.14-1.42.78-2.88,1.49-4.25,2.34-3.55,2.19-4.8,6.06-3.53,10.73,1.19,4.37,3.51,6.3,8.07,6.18,6.41-.17,12.81-.55,19.22-.91,10.87-.62,9.11.66,9.33-10.58,0-2-.92-3.34-3-3.53-3.56-.34-7.13-.56-10.7-.83a33.88,33.88,0,0,1-4.63-.38c-.53-.11-1.34-1.4-1.19-1.66a3.18,3.18,0,0,1,2-1.5c.85-.12,1.77.49,2.69.63a49.89,49.89,0,0,0,7,.9c3.13,0,6.24-1.94,6.56-4.32.42-3.05,1.12-6.28-.7-9.15-1.33-2.09-1.55-3.88,0-6a7.79,7.79,0,0,0,1-4c.5-7.87-2.12-15.69-.42-23.61a10.18,10.18,0,0,0-.32-3.25c-2.53-19.13-2.4-38.38-2.83-57.61,0-1,.48-2.07,1-4.15,1.2,2,1.8,2.83,2.29,3.76,3.5,6.63,7,13.25,10.43,19.94,2.91,5.71,5.33,11.69,8.52,17.24,3.65,6.32,8.2,12.12,10.62,19.13.75,2.19,2.35,2.77,4.48,2.09,1.08-.35,2.17-1.27,3.26.06-4.29,3.79-4.06,7.86.43,11.61a10.05,10.05,0,0,1,2.74,3.09c3.63,7.59,7,15.27,10.68,22.85a9.23,9.23,0,0,0,3.15,3.88,10.64,10.64,0,0,1,4.82,6.65c.78,2.7,1.35,5.47,2.12,8.18,1.2,4.27,3.81,7,8.36,7.84,9.27,1.83,18.37-.6,27.55-1,.8,0,2.13-1.56,2.21-2.48.33-3.73.28-7.49.33-11.25a2.28,2.28,0,0,0-2.23-2.51l-9-1.13a12.41,12.41,0,0,1-2.5,2.89,2.77,2.77,0,0,1-2.71-.41c-.43-.64-.22-2.58.23-2.79a81.47,81.47,0,0,1,10.81-4.17c1.47-.41,3.28.4,5.37.72a34.1,34.1,0,0,0,.43-3.84c0-7.51,0-15,.06-22.53,0-2.85,0-5.6-2.61-7.77C1183.57,134.57,1183.71,131.68,1183.6,128.64ZM1054.81,62a5,5,0,0,1,1.29.14c-.17.43-.29.93-.38.93a6.13,6.13,0,0,1-1.23-.3C1054.59,62.5,1054.67,62,1054.81,62Zm1.7,10.92c-1.37-1.31-2.18-2.07-3-2.83.75-.78,1.38-1.81,2.29-2.21.35-.15,1.72,1.06,1.92,1.83S1057.15,71.37,1056.51,72.92Zm13.19,64.74a25,25,0,0,1-2.08-3.14c-.07-.15,1.26-1.33,1.54-1.19a15,15,0,0,1,2.69,2ZM1073,67.43a40.51,40.51,0,0,1-4.34,2.45l1.87,4.21c-2.28,1.24-6.48.79-7.91-.93-1.14-1.38-.75-2.69.67-3.53a13.22,13.22,0,0,1,3-.95c0-.37.11-.74.17-1.11a14,14,0,0,1-2.67-1.2c-.66-.49-1.5-1.34-1.47-2s1-1.92,1.55-1.91a42.79,42.79,0,0,1,8.77.79C1074.46,63.68,1074.6,66.23,1073,67.43Zm5-56.62c-.68-.27-1.5-2-1.24-2.42.54-.86,2-1.94,2.68-1.73,1.5.42,2.78,1.62,4.46,2.69C1081.88,12.27,1079.83,11.51,1078.06,10.81Zm19.16,50.39c-.48.11-2-1.59-1.89-2.38s1.42-1.79,2.37-2c.63-.16,1.56.87,3,1.81C1099.19,59.84,1098.3,61,1097.22,61.2Zm9.88,9.16c2.52-1.55,3.53-1.16,4,1.19ZM1143.62,151c-.21-.11-.26-.5-.37-.76l.62-.54.52,1.06C1144.13,150.9,1143.78,151.13,1143.62,151Zm25.87-89.78a13.4,13.4,0,0,1-5.33-8.12C1168.52,53,1170.49,56,1169.49,61.26ZM1159.62,179c-3.35,2-7,.18-7.36-3.71,0-.46,0-.93,0-1.4l-.56-.24c.61-1.3.88-3.11,1.91-3.79,1.65-1.09,3.19.06,4.39,1.52a17.73,17.73,0,0,0,2.1,1.84A3.41,3.41,0,0,1,1159.62,179Zm-8.85-24.55a2.84,2.84,0,0,1,1-2.3c.48-.29,1.8.16,2.28.69a25.57,25.57,0,0,1,2.4,3.92C1152.85,157.68,1151,156.83,1150.77,154.47Zm14.44-13.33c-3.61,1.73-7.31,3.28-11,4.75-.56.23-1.87-.1-2-.48a2.81,2.81,0,0,1,.16-2.46,12.77,12.77,0,0,1,4.34-3.21,61.47,61.47,0,0,1,8.46-2c.39-.08.86.18,2.18.51C1166.39,139.59,1166,140.77,1165.21,141.14Zm.16-60.63a18,18,0,0,0,2.84,1.57c1.2.77,2.36,1.64,1.36,3.75-3.52-.35-6.74-1.2-8.67-4.72s-3.33-3.94-7.11-2.68a43,43,0,0,1-4.91,1c.83-4.15,1.26-4.73,4-4.36,1.81.24,3.29-.55,4.85-.71,3.67-.38,7.45.1,11.17.35.46,0,.87.76,1.31,1.16-.1.32-.21.64-.31.95a24.69,24.69,0,0,0-3.55.05,10.14,10.14,0,0,0-2.38,1A9.86,9.86,0,0,0,1165.37,80.51Zm8.71,57.3c-.65-.82-1.07-1.35-1.5-1.87.67-.48,1.3-1.21,2-1.34.41-.07,1,.84,1.5,1.31Z"/><path class="cls-6" d="M283.38,90c.43-10.63.77-21.27.92-31.9.05-4.19-.53-8.39-.76-12.59-.3-5.42.44-10.91-1.07-16.26a2.69,2.69,0,0,1,0-.47c.25-7,.58-14,.71-21,.07-3.47-.58-3.91-4-4.38Q268.74,1.91,258.29.38a21,21,0,0,0-11.09.94c-3.26,1.3-4.24,3.09-4,6.56.1,1.54.56,3.39-.09,4.57-1.55,2.81-1.36,5.72-1.48,8.66-.18,4.38-.5,8.75-.55,13.13,0,2.93.42,5.86.5,8.79.08,3.4,1,7.22-.25,10.12-2,4.89-1.58,9.34-.67,14.19a19.55,19.55,0,0,1-.28,8.27c-1,4-1.35,3.86,1.93,6.17A7.57,7.57,0,0,1,244,83.35c1.32,1.74,3.09,2,5,1.68,1.24-.18,2.46-.5,3.7-.65,2.75-.34,8.68,3.29,9.28,5.88.19.82-.59,1.86-.93,2.8-.92-.36-2.09-.48-2.68-1.13a19.08,19.08,0,0,1-2.1-3.71c-4,1.91-7.77,3.48-11.3,5.4-2,1.07-3.44.62-4.44-1-2.53-4-6.49-5.69-10.59-7.36-1.37-.57-3.24-1.54-3.57-2.7-.93-3.24-2.53-4.83-6-4.5a3.73,3.73,0,0,1-2.15-.84,10.77,10.77,0,0,0-7.65-1.53c-4.49.53-8.94,1.37-13.44,1.72a119.18,119.18,0,0,1-12.54.13c-.84,0-2.34-1-2.36-1.64-.14-3.67-2-7.17-.65-11.08.67-1.86-.06-4.23-.21-6.37a19.76,19.76,0,0,1-.33-3.63c.9-6.81,1.94-13.6,2.89-20.4.19-1.39.17-2.81.24-4.22A3,3,0,0,0,182.14,27a3,3,0,0,0-3.66,1.29A12.86,12.86,0,0,1,176,31a2.18,2.18,0,0,1-2.07-.25,2.07,2.07,0,0,1-.16-2c2.05-2.71,3.84-5.71,7.49-6.75s3.92-1.43,3.91-5.22c0-4.22-.19-8.44-.49-12.65-.25-3.73-1-4.33-4.75-3.8-4.33.6-8.64,1.45-12.94,2.3-1.9.38-3.75.68-5.34-.72-2-1.79-4.29-1.5-6.65-.95a32.66,32.66,0,0,1-4.59.9c-6.81.59-10.57,3.74-11.38,12.47-.48,5.26-.06,10.63.13,15.94.1,3,.71,3.72,3.63,3.7a10.2,10.2,0,0,1,8.6,3.91,7.84,7.84,0,0,0,7.56,2.78,11.06,11.06,0,0,1,1.4-.14c2.84,0,4,.83,3.71,2.85-.35,2.41-2,2.34-3.87,2a9.16,9.16,0,0,0-4.07.05A3.31,3.31,0,0,1,152,44c-1.86-2.51-4.6-3.05-7.48-3.23s-3.54.28-3.54,3.4q0,17.84.13,35.67c0,2.33-.07,4.83.71,7,2.53,6.93.92,13.78.33,21,3.91,2.94,1.48,6.62.41,10.19-.3,1-1.2,1.89-1.26,2.87-.21,3.11-.2,6.23-.2,9.34q0,29.82,0,59.62c0,8,.59,9,8.84,8.74a119.78,119.78,0,0,0,18.57-2.14c4.43-.81,8.71-2.5,13-4A2.86,2.86,0,0,0,182.9,190c-.19-.69-1.5-1.28-2.43-1.52s-1.76.15-3.14.32a63.32,63.32,0,0,1-1.21-7c-.05-.76,1-1.6,1.51-2.41.66.53,1.56.93,1.92,1.62a52.34,52.34,0,0,1,2.06,5c3.92-4-.8-5.9-1.08-8.76a22.86,22.86,0,0,0,1.68-2.63c.81-1.68.37-5.14-1-5.56a8.36,8.36,0,0,0-4.38.3c-2.32.61-3.26,2.68-4.41,4.58s-2.91,2.44-4.26,1.43c-1.64-1.23-2.09-4.88-.35-5.73,3.76-1.82,3.19-5,3.13-8,0-1.65-.63-3.38.94-4.75,1.5,1.8,1.5,1.8,1.23,4-.4,3.26,0,3.75,3.91,4.41.41-2.43,1-5,4-5.57s3.44-2.64,3.43-5.25c-.06-8.13,0-16.27,0-24.4,0-2.81.48-5.62-1.95-7.88a3.83,3.83,0,0,1-.58-2.66c.14-2.31.46-4.61.81-7.8,2.38.48,4.31.93,6.26,1.25,3.54.59,7.09,1.62,10.62,1.56,9.69-.15,19.38-.74,29.06-1.22,3-.15,5.91-.45,8.86-.8s4.2.33,4.25,3.39c.08,5.6-.32,11.21-.44,16.82-.12,5.27-.14,10.54-.18,15.8a1.5,1.5,0,0,0,.24.9c2.47,2.92,1.93,6,.61,9.18a10.45,10.45,0,0,0-.51,3.23c-.6,7.8-1.27,15.59-1.72,23.39-.5,8.69-.44,8.85,8,10.53,7.56,1.51,15.21,2,22.82.17,2.33-.55,4.42-1.33,5.2-4.1a4.44,4.44,0,0,1,2.56-2.48c3-1.06,3.49-3.18,3.39-5.94a140.58,140.58,0,0,1-.16-14.07c.35-5.51-1.26-11.28,1.88-16.52.39-.67,0-1.82-.06-2.74-.11-2.18-.38-4.36-.31-6.52.25-7.82.55-15.64,1-23.45a4.86,4.86,0,0,0-3-5.23c-4-2.05-8-3.33-12.57-1.57-2.31.89-4.89.91-6.82-1.87.67-.59,1.13-1.29,1.77-1.52,2.81-1,5.5-2,7.49-4.52,1.16-1.47,3-1.43,4.64-.26,1,6.06,3.23,7.6,7.57,5.07-.41-2.25-.93-4.52-1.22-6.83a17.58,17.58,0,0,1,.09-4.16C282.52,96.12,283.26,93.06,283.38,90ZM172.65,48c.41.37.81.75,1.43,1.34-.62.56-1,1.22-1.42,1.22s-1.25-.79-1.18-1A6.22,6.22,0,0,1,172.65,48Zm-4.49-8.57a4.84,4.84,0,0,1,1.27.14c-.17.44-.29,1-.38,1a6.52,6.52,0,0,1-1.21-.31C167.94,39.93,168,39.45,168.16,39.43Zm-.83-5.67c.28.55.68,1,.58,1.22a1.55,1.55,0,0,1-1,.54c-.12,0-.53-.52-.47-.65A5.3,5.3,0,0,1,167.33,33.76Zm-4.75,106c-2.54-3-2.29-5.92-2-9C164,131.82,164.84,135.16,162.58,139.78Zm7.6-8.27c-.53-.62-1.45-1.22-1.49-1.88s.81-1.35,1.54-2.44c.79,1.15,1.69,1.89,1.63,2.53S170.78,130.92,170.18,131.51Zm4.15-11.37c-3.31.27-5.24,2.26-6.83,5-.54.92-1.78,1.41-2.7,2.1-.66-1.11-1.85-2.2-1.89-3.34-.2-5.59-.09-11.2-.09-17.34l2.91-.14c4.44-.22,5.67-2.31,3.6-6.31-.85-1.63-1.62-3.58-3-4.58-2.9-2.11-6.17-3-9.54-.55a12.74,12.74,0,0,1-3.72,1.95,6.23,6.23,0,0,1-3.6.09,3.58,3.58,0,0,1-1.71-2.34c-.09-.33,1.17-1.34,1.94-1.53,3.19-.75,6.41-1.38,9.64-1.91,5.58-.93,6.12-1.54,5.93-7.35,0-.16,0-.31,0-.47,0-2.18.42-4.44,0-6.53s-1.7-3.85-2.6-5.75c3.26-1.67,5.76-1.07,6,1.83.19,2.73,1.64,4.09,3.85,5.36-.63.74-1,1.22-1.4,1.64-2.57,2.62-2.68,2.91.14,4.82a4.36,4.36,0,0,1,2,4.38c-.31,5-.65,9.94-1,14.92,0,.62-.3,1.34-.08,1.85,1.88,4.22,1.27,9,3,13.39C174.92,119.51,174.65,120.11,174.33,120.14Zm57-27.27a2.64,2.64,0,0,1-1.77,1.22c-3.32.62-4.7-1.33-3.9-6.55,2.07,1.32,3.68,2.2,5.09,3.32A2.21,2.21,0,0,1,231.34,92.87Zm12,4.58c0-.33,1.26-.92,1.85-.82,2.11.34,4.2.89,5.52,3.64a7.36,7.36,0,0,1-6.58-.51A2.87,2.87,0,0,1,243.32,97.45Zm5.17,58.67c-.89-.38-1.42-1.58-2.1-2.44.83-.52,1.69-1.46,2.48-1.41s1.43,1.13,2.61,2.17C250.09,155.27,249,156.35,248.49,156.12Zm5.06-47.23c.76-.57,1.58-1.67,2.28-1.6,1,.1,1.89,1.06,3.59,2.12-1.72.91-2.73,1.88-3.39,1.68C255.07,110.8,254.36,109.67,253.55,108.89ZM268,185.28c-.31,0-.83-.55-.81-.83a1.19,1.19,0,0,1,.84-.84c.29,0,.63.47,1.1.86C268.68,184.84,268.33,185.31,268,185.28Zm-2-33.61a7.27,7.27,0,0,1,.86-1.19A59.94,59.94,0,0,1,274,152.6a3.77,3.77,0,0,1,1.88,2.74,11.16,11.16,0,0,1-1.15,4.27,3.86,3.86,0,0,1-2.28-.6,19.79,19.79,0,0,1-2.22-3.59c-1.19.78-2,1.22-2.7,1.78a3.43,3.43,0,0,1-4.31.12,14.53,14.53,0,0,0-3.32-1.55c-4-1.19-4.07-1.36-1.61-5.86l2.89,2.83C263.71,155.2,264.39,155,266,151.67ZM258.46,28.25c2.67-.31,3.53.69,3.65,2.21.16,1.84-.62,3.16-3.26,3.64C258.71,32,258.59,30.22,258.46,28.25Zm4.19,29.42a9.54,9.54,0,0,1-2.25-1.14c.42-.53.89-1.54,1.23-1.49a9.2,9.2,0,0,1,2.61,1.32C263.48,57,263,57.75,262.65,57.67Zm4.63-30.78c-.55-.05-1.51-1.16-1.42-1.65a2.39,2.39,0,0,1,1.66-1.62c.54-.05,1.18.94,2.1,1.77C268.59,26.1,267.9,26.94,267.28,26.89Z"/><path class="cls-7" d="M1313.93,46.77a96.06,96.06,0,0,0-3.45-10.14c-1.17-3-2.76-5.92-3.81-9s-2.49-5.62-5.3-7.45a13.37,13.37,0,0,1-3.9-3.92,19.19,19.19,0,0,0-7.31-6.41c-7.23-4-15.1-6-23.11-7.51A93.67,93.67,0,0,0,1252.69.24c-8.52-.28-16.72,1.91-24.75,4.59a11.73,11.73,0,0,0-4.77,2.87c-2,2.15-3.76,4.26-6.72,5.31a21.52,21.52,0,0,0-5.81,3.68,9.64,9.64,0,0,0-2.75,3.53c-.77,1.82-1.5,3.51-3.57,4s-2.56,2-3.39,3.55c-2.73,5-3.24,11.11-7.39,15.49-.46.49-.43,1.47-.59,2.23a28.47,28.47,0,0,0-.45,11.63c.37,1.92.56,4.3-.25,5.93-1.54,3.12-1.75,6.28-1.74,9.57,0,4.84-.52,9.77.17,14.52a52.75,52.75,0,0,1,.44,14.58c-.48,3.83.12,7.79.31,11.7.23,4.63.26,4.63,5.07,4.54a4.6,4.6,0,0,1,1.39.06c1.66.54,2.83,1.78,2.43,3.47a3.85,3.85,0,0,1-2.54,2.11c-4.61,1.19-6.29,2.63-6,7.24.35,5.75,1.38,11.47,2.17,17.2a3,3,0,0,0,.84,1.64c2.24,2.11,2.39,4.91,2.92,7.69.8,4.14,1,8.92,3.32,12.09,3.42,4.71,5.78,10.37,10.65,14,2.61,1.93,5.12,4.16,8,5.48a80.65,80.65,0,0,0,13.12,4.51,130.23,130.23,0,0,0,17.43,3.5c4.92.56,6.36-1.74,5.4-6.58a68.44,68.44,0,0,1-1-8.34,4,4,0,0,1,.68-2.61c.45-.55,1.53-.58,2.34-.84.22.69.69,1.42.59,2.06a7,7,0,0,1-1.14,2c-.87,1.54-.48,3,1.08,3.46,3.38,1,3.92,3.33,4.21,6.41.38,4.12,2.8,4.88,6,2,1.62-1.46,3.12-2.47,5.42-1.89s4-.49,5.5-2c2.71-2.58,5.3-5.3,8-7.83a5.22,5.22,0,0,1,3.12-1.53c1.7,0,1.87,1.66,2.25,3.07.61,2.22,1.54,4.36,2.32,6.53,1,2.91,3.1,3.35,6,3a56.79,56.79,0,0,1,9.76-.07c2.13.12,3.33-.5,3.56-2.65a36.13,36.13,0,0,0,.25-3.74c-.07-13.92-.13-27.83-.28-41.75-.1-8.89-1.7-17.76-.41-26.69a10,10,0,0,0-.36-4.18c-.36-1.16-1.28-2.15-2.37-3.89a39.16,39.16,0,0,1-1.94,4.1c-.27.43-1.13.89-1.51.75a2.62,2.62,0,0,1-1.54-1.46,6.47,6.47,0,0,1,.18-2.75c.32-1.56,0-2.86-1.47-3.57-2.56-1.21-2.34-3.42-2.15-5.63.1-1.16.33-2.31.65-4.45l-4.93,2.52c-2.12-6.26-3.45-6.85-10.08-6.21-9,.87-18,2.35-27.05.18-1.69-.4-3.16.08-3.08,2.35a19.29,19.29,0,0,1-.18,2.12,16.14,16.14,0,0,0-2.78,1.32c-2.79,2.15-5,4.37-4.08,8.6.76,3.46.5,7.16.63,10.75.15,4.22.66,4.8,4.94,5,4.53.24,9.07.38,13.59.64,2.81.17,4.12,1.09,3.89,3.58-.61,6.83-.9,13.81-2.64,20.38-2,7.44-7.61,11.74-15.55,12a60.21,60.21,0,0,1-10.69-.91c-3.54-.52-4.87.41-4.22,3.73.3,1.5.82,3.06-1.16,3.28s-2-1.65-2.2-3a18.68,18.68,0,0,1,0-2.8v-4c-2,0-4,.6-5.11-.14a8.89,8.89,0,0,1-3.55-4.79c-.58-2.51-1.62-5.63,1.69-7.48,1.68-.94,1.5-2.46,1.43-4.09-.29-7.66-.88-15.33-.58-23a319.14,319.14,0,0,0-1.28-48.19,16.24,16.24,0,0,1,1.22-7.68,13.71,13.71,0,0,0,1.13-5.8c-.06-2.6-.15-5.47.85-7.75a8.8,8.8,0,0,0,.9-5.42c-.36-2.59,0-5.4-.25-8.16-.08-.76,1.49-1.7,2.31-2.56a10.58,10.58,0,0,1,2.24,2.52c.41.93-.08,2.25.3,3.21s1.35,2.55,2.11,2.57a22.61,22.61,0,0,0,13.3-3.62c1-.66,1.38-2.37,1.93-3.64.43-1,.56-2.14,1-3.11.62-1.25,1.82-2.05,3-1.09.62.5.67,1.88.68,2.86,0,.5-.75,1-1.07,1.49-1.64,2.82-1.27,4.4,1.6,6.2q3,1.88,6.11,3.5a5.8,5.8,0,0,1,3.26,5.72,64,64,0,0,0,.66,8.41c.46,3.43,1,3.9,4.58,3.87,6.57-.06,13.14-.14,19.71-.35,4.84-.16,9.69-.45,14.52-.86s5-.86,4.48-5.48A60.62,60.62,0,0,0,1313.93,46.77ZM1205.17,85c.63,0,1.26.91,2.25,1.72-1.05.74-1.83,1.69-2.35,1.56-.68-.16-1.15-1.17-1.72-1.81C1204,85.94,1204.57,85,1205.17,85ZM1196,87.51a1.17,1.17,0,0,1,.8-.85c.3,0,.66.44,1.13.8-.47.4-.8.88-1.12.88A1.17,1.17,0,0,1,1196,87.51Zm14.5,15c-1.45,1.48-2.78,3.07-4.68,5.2-1.87.09-4.19.35-6.49.24a3.59,3.59,0,0,1-2.49-1.52c-.27-.44.4-1.7.93-2.34,1.38-1.64,2.94-3.13,4.41-4.7s6.64-2.07,8.36-.82C1211.89,99.59,1211.82,101.11,1210.45,102.52Zm92.85,28.15a3.52,3.52,0,0,1,3.64,3.33,2.17,2.17,0,0,1-1.25,1.55c-1.5.38-4.54-1.77-4.62-3.6A6.66,6.66,0,0,1,1303.3,130.67Zm-5.37-24.43c.9,1.73,1.47,2.35,1.34,2.68a6.48,6.48,0,0,1-1.4,1.59c-.42-.52-1.15-1-1.16-1.56S1297.28,107.6,1297.93,106.24Zm-9.86,17c1.72.08,2.53,1.09,2.55,3.19,0,2.27-1,3.63-2.75,3.5-2.4-.18-2.34-2.16-2.49-3.8C1285.2,124.22,1286.28,123.19,1288.07,123.28Zm-3.89,14.8c.85,1.71,1.65,3.3,2.39,4.8-1.48,2.2-3.26,2.56-5.08,1.67A3.4,3.4,0,0,1,1280,142C1279.91,139.84,1281.37,138.71,1284.18,138.08ZM1270.65,107a4.81,4.81,0,0,1-1.09-.31c.09-.25.17-.69.29-.71a4.56,4.56,0,0,1,1.17.16C1270.85,106.55,1270.73,107,1270.65,107Zm-4.7,77.21c.51,0,1,.8,1.78,1.48-.86.63-1.62,1.48-1.91,1.34-.63-.29-1-1.1-1.51-1.69C1264.86,184.94,1265.41,184.22,1266,184.22ZM1246,176.36a1.71,1.71,0,0,1,1.55-.57c1.81.57,2.84,1.77,2.34,3.81-.07.27-.34.49-.74,1a5,5,0,0,1-1.51-.43C1246.41,179.25,1245.26,178.13,1246,176.36Zm-10.11-5.61a36.59,36.59,0,0,0,.9,4c.3,1.68,0,3.26-1.89,3.72a2.68,2.68,0,0,1-3.41-2.38c-.55-3.15-.77-6.36-1.19-10C1235.6,166.93,1235.67,167.06,1235.92,170.75ZM1221.71,14.2c1.68-1,2.64-.31,3.15,1a15.42,15.42,0,0,1,1.08,4,12.22,12.22,0,0,0,2.86,7.15c.34.39.25,1.15.35,1.67-1.58,1.4-3.32.88-3.29-.62.11-4.38-3-7.37-4.12-11.14A6.87,6.87,0,0,1,1221.71,14.2Zm-4.33,112.5c-.43-.55-1.27-1.14-1.21-1.63.08-.7.81-1.32,1.59-2.44.72,1.15,1.59,1.94,1.44,2.46S1218,126.17,1217.38,126.7Zm5.85,13.07c-2.18.53-3.28-.48-3.62-2.18-.45-2.26-.71-4.61,1.91-6.27A8.06,8.06,0,0,1,1223.23,139.77Zm.89-55.76c-1.38.51-3.14,1-4.77,1.79s-1.46,3.53-4.11,3.25c-.12-2.14-.23-4.08-.36-6.37l6.17-5.41-.44-.88h-4.28c-.84-2.54.07-4,2.4-3.93a41.19,41.19,0,0,1,6.39,1C1224.78,77.15,1224.48,80.23,1224.12,84Zm1.42,63a1.81,1.81,0,0,1-.32-.69,16.18,16.18,0,0,1,1.39-.86l.49,1A15,15,0,0,1,1225.54,147Zm-2-108.21c4.36-.88,6.73.81,8.48,6.33C1225.39,45.94,1223.25,44.27,1223.55,38.83Zm24.8-26.58c-2.25.27-3.3-.47-3.35-2.36a1.24,1.24,0,0,1,.88-.82C1247.81,9,1248.55,10,1248.35,12.25Zm25.21,31.51c-.34-1.93-.84-2.91-.57-3.61.59-1.53,1.83-1.94,4.2-.59Z"/><path class="cls-8" d="M999.78,153.31c.59.21,1.63-.69,2.4-1.17,2.87-1.8,3.17-1.75,5.45.75,1.52,1.67,3.1,3.28,4.62,4.89,4.42-3,7.69-6.57,9.11-10.62,2.58-7.4,2.23-15-2.87-21.73a5.21,5.21,0,0,1-1.2-3c.16-5.35-2-10-3.81-14.88-.48-1.32-.85-2.68-1.21-4-1.08-4-2-8.13-3.21-12.12-1.66-5.36-3.47-10.68-5.47-15.93a8,8,0,0,0-3.08-3.77c-1.71-1.06-2.48-2.08-2.22-4.11,1.37-10.86-2.11-21-4.53-31.37a9.94,9.94,0,0,0-1.12-2,29.7,29.7,0,0,1-2.54-4.95c-1.24-4-2.3-8.11-3.23-12.22-.61-2.74-1.45-4.95-4.47-6-1.25-.44-2.28-2-3-3.22-1.93-3.15-3.19-3.82-6.93-3.12-.9.16-1.8.35-3.18.62a13.61,13.61,0,0,1-.93-2.53C968.05.85,966.87.16,965.08.16c-11,0-21.91,0-32.85.15-3.74.06-4.75.92-5.56,4.53-.86,3.8-1.28,7.7-1.77,11.57-.42,3.38.24,4.49,3.33,5.8,1.29.55,2.78.67,4,1.31a24.76,24.76,0,0,1,4.11,2.82c2.14,1.76,4,3.89,6.34,5.37,3.38,2.16,6.29.17,6.3-3.89a7.75,7.75,0,0,1,.86-4c1.36-2.11,2.8-4,3-6.73,0-.73,1.36-1.79,2.22-1.93a3.68,3.68,0,0,1,2.79,1.12,3.54,3.54,0,0,1-1,5.81,7.18,7.18,0,0,0-4.18,7.2c.2,5.16-1.23,5.73-6,7.61-1.75.69-3.48.63-4.28-1.49a4,4,0,0,0-3.52-2.67c-4.48-.69-8.94-1.56-13.43-2.1-4-.47-4.46.09-5.32,4-1.23,5.62-1.24,11.46-3.59,16.9-.82,1.89-.45,4.3-.62,6.47-.08,1.08.24,2.55-.34,3.16-2.92,3.09-2.11,7.06-2.83,10.64s-1,7.44-1.72,11.13c-.78,4.24-.86,4.22,2.91,6.43.21.12.26.53.45,1-.43.35-.85.94-1.38,1.07-3.08.75-4,3-4.61,5.79-.58,2.52-2,4.84-2.75,7.34a26.56,26.56,0,0,0-1.26,7.29c0,1,1.63,2,2.39,3.15a11.29,11.29,0,0,1,1.18,2.48c.77,2,1.35,4.13,2.27,6.08s1.15,4,0,5.81a4,4,0,0,1-3.08,1.22c-.43,0-1.15-1.59-1.2-2.48-.07-1,.55-2.11.72-3.18.52-3.39-.38-4.59-4-5.73-1.51,2.85-3.39,5.53-4.4,8.5-3,8.7-6.26,17.34-6.81,26.69-.21,3.58-.54,7.19-3.91,9.63-.78.56-1.08,1.86-1.45,2.88a78.56,78.56,0,0,0-3.12,9.33c-1.08,4.94-1.59,9.88-4.31,14.5-2,3.48-.34,5.8,3.77,6.72a35.3,35.3,0,0,0,8.8,1.14c9.53-.38,19.05-1,28.56-1.72,3-.22,3.5-.93,3.66-4.27.29-6.1.37-12.21.92-18.28a67.39,67.39,0,0,1,2.19-11.48c1-3.6,1.68-3.59,5.43-3.48q16.65.48,33.29.59a14.16,14.16,0,0,0,10-3.45c1-.85,3.22-1.46,4.13-.92,2.58,1.54,4.41.49,6.54-.73-.23-1.44-.44-2.75-.69-4.36,1-.07,2-.45,2.43-.12,1.63,1.33,3.07,2.89,4.74,4.52C994.69,153.87,996.92,152.3,999.78,153.31ZM944,12.25c-1.68.16-3.14-1.68-3-3.41a2.12,2.12,0,0,1,2.42-2.19c1.8,0,3.1,1.56,2.93,4.23C945.81,11.19,945,12.15,944,12.25Zm55,63.42a5.85,5.85,0,0,1,1.35,1.32c.09.15-.62.76-1.19,1.41-.52-.66-1.11-1.08-1.1-1.48S998.67,76.08,999,75.67Zm-3.57,3.42c3.15.7,3.5,1.72,2,6.6C994.74,83.73,994.27,81.66,995.44,79.09Zm4.17,15.33c-.57,3.41-1.83,4.94-3.68,4.58a1.9,1.9,0,0,1-1.23-1.16C994.33,96.25,996.07,95,999.61,94.42ZM994,142.75a1.31,1.31,0,0,1,.85.82c.06.23-.43.59-.77,1-.4-.47-.84-.77-.87-1.1S993.73,142.71,994,142.75Zm-2.43-51.62c.19-.36.93-.54,1.46-.59.13,0,.35.7.66,1.36l-1.63.71C991.83,92.1,991.37,91.46,991.53,91.13ZM966,23.81c1.81,1.65,1.81,1.65,1.87,3.94C964.32,26.79,964.11,26.35,966,23.81ZM911.45,161.07A31.41,31.41,0,0,1,909,165.8l-1.31-.13a28.85,28.85,0,0,1-.58-5.66c.07-.95,1.18-2,2.06-2.64a2.13,2.13,0,0,1,2,.38A5.56,5.56,0,0,1,911.45,161.07Zm3.18-23.61c-1-1.44-2.25-2.69-3.53-4.21,2.16-1.47,3.8-.85,4.45.82a41.47,41.47,0,0,1,1.77,7.55c.07.36-.65.88-1,1.36C913.73,141.53,915.69,139,914.63,137.46Zm4.25,24.37c-.44.76-1.57,1.12-2.38,1.66-.48-.9-1.46-1.87-1.34-2.68a21.85,21.85,0,0,1,1.77-4.6C919.86,158.55,920.23,159.53,918.88,161.83Zm.58-58.88-.39-1c.44-.46.8-1.14,1.34-1.35,1.32-.5,2.11-1.18,2.05-2.72-.11-2.54,1.6-3.23,3.68-3.11,3,.17,5.93.45,8.86.86,1.88.26,3.6,1,4.24,4.46C931.9,98.19,925.69,100.68,919.46,103ZM961,124.17c-5.93-.59-11.81-.79-17.67.91-3.51,1-4.45-.32-3.6-4,1.26-5.47,2.33-11,3.48-16.48.19-.91.11-2,.6-2.71,4-5.6,2.92-12,2.82-18.16-.06-3.25.09-6,2.77-8.47,1.19-1.08,1.8-3.36,1.78-5.08-.11-8.88,2.41-17.3,4.18-25.84.19-.92,1.51-1.59,2.3-2.38.75.89,2.07,1.74,2.15,2.7A60.93,60.93,0,0,0,966.52,67c3.43,6.75,3.55,13.67,4.31,20.72.32,3.06,1.31,6,1.88,9.09.61,3.2,1.15,6.42,1.58,9.65a51.42,51.42,0,0,1,.38,6.08c0,3.38.52,6.51,3.52,8.69.3.22.33.83.6,1.6-2.4,2.45-5.18,2.58-8,2.34C967.5,124.9,964.24,124.49,961,124.17Zm29.36,16c-2.28-.58-3.33.49-4.43,2.34-1.82,3.1-2.55,3.27-5.5,1.2-2.33-1.63-4.46-2-6.9-.47-1.31.81-2.79,1-3.77-.39a5.41,5.41,0,0,1-1.06-3.26c0-.43,1.72-1,2.67-1.07,6.26-.18,7.88-1.36,9.52-7.34a15.17,15.17,0,0,0,.78-3.65c0-2.17.46-3.93,2.64-5,1.51-.72,1.56-2.13,1.31-3.64-1-5.76-.94-5.77,2.61-11.67,1.34,1.91,2.43,3.37,3.43,4.9,1.28,2,.12,3.62-.84,5.19-1.75,2.88-3.1,5.78-1.57,9.33-1,.71-1.91,1.27-2.73,1.94-2,1.59-1.72,2.85.48,4.24s4.4,3.15,6.27,4.51C993.06,140,991.94,140.63,990.33,140.21Z"/><path class="cls-9" d="M589.43,177.4a44.9,44.9,0,0,1-5.65-13.76c-.6-2.45-2.34-3.57-4.9-3.41-1.71.11-3.43.24-5.14.23-5.64,0-11.26,0-15.6,4.42-2.51-1.08-5-1.74-5.51-4.77-.35-2-1.65-2.38-3.52-2a19.54,19.54,0,0,1-3.68.16c-3.29.08-4.11,1.56-2.42,4.36.31.52.63,1,1,1.72-2.19,2.56-2.08,5.36-1,8.3a22.86,22.86,0,0,1,.6,3.22c1.13,5.19,2.23,10.38,3.45,15.54.63,2.69,2.22,4.17,5.21,4.51,3.71.42,7.36,1.37,11,2.16,5.22,1.12,10.27.94,14.93-1.94,1.5-.93,2.81-1.12,4.31-.07,2.42,1.71,5.15.81,7.74.69,1.7-.09,2.37-1.23,2.14-2.95-.42-3.24-.65-6.51-1.19-9.73C590.89,181.82,590.64,179.26,589.43,177.4Zm-39.37,2.75c-2.18-1.3-2.12-3.14-1.48-4.88s2.22-1.8,4-1A6.39,6.39,0,0,1,550.06,180.15Zm1.66-9.22c-.78-.91-1.54-1.4-1.58-2s.68-1.1,1.07-1.65c.52.45,1.33.83,1.48,1.38S552.22,169.88,551.72,170.93Z"/><path class="cls-10" d="M1034.8,173c-.66-.75-.77-2-1.06-3.07-.49-1.8-.83-3.66-1.39-5.44-.86-2.75-3-4.43-5.4-4.38-2.79.06-5.57.07-8.35.24-3.75.23-7.54.4-10.49,3.25a2.84,2.84,0,0,1-4.21.09,70.5,70.5,0,0,1-4.77-5.56c-1.71,0-4-.11-6.32,0-2,.12-3.33,2.08-2.21,3.61,1.47,2,1.33,3.54.19,5.49a4.15,4.15,0,0,0-.19,2.71c1.64,7.47,3.37,14.92,5.07,22.37a4.16,4.16,0,0,0,3.89,3.44,73.21,73.21,0,0,1,8.75,1.59c7.05,1.88,13.88,2.39,20.06-2.5,2.91,2.48,6,2.27,9.16,2,2.09-.18,3.28-1.46,2.8-3.48C1038.68,186.58,1040,178.93,1034.8,173Zm-35.75,7.23c-3.23-.8-3-2.8-2.41-4.73s2.2-2.24,4.6-1.12C1000.42,176.59,999.75,178.37,999.05,180.25Zm.8-10.31a1.74,1.74,0,0,1-1.06-1.23c0-.4.64-.84,1-1.27l1.91,1.61C1000.78,169.52,1000.23,170,999.85,169.94Z"/><path class="cls-11" d="M648.6,186.68c-4.57,1.64-8.6.18-12.82-.86-3.51-.86-5.4-.06-7.14,2.82-1.58,2.6-1.24,4.22,2,7.88,2.92-3.16,6.26-3.34,10-2.28a68.33,68.33,0,0,0,7.79,1.54,36.65,36.65,0,0,0,6.49.73c2.14,0,3.05-1.51,2.61-3.5C656.86,190.14,651.33,185.7,648.6,186.68Z"/><path class="cls-12" d="M1312.36,95.5c-2.42-.73-3.61,1.86-5.09,3.35a5,5,0,0,0-.9,1.05,3.91,3.91,0,0,0,1,5,8.5,8.5,0,0,0,4.87,1.81c.58,0,1.28-2.4,1.8-3.75a8.79,8.79,0,0,0,0-2.38C1313.88,99.13,1315.07,96.32,1312.36,95.5Z"/><path class="cls-13" d="M575.31,154a15,15,0,0,0,3.9,4.21c.24.2,1.79-.55,2.12-1.19a2.88,2.88,0,0,0-.29-2.47c-1.24-1.87-2.72-3.59-4.48-5.85C574.2,150.2,574.48,152.35,575.31,154Z"/><path class="cls-14" d="M1025.82,157.31a3.34,3.34,0,0,0,3.18.21c1.28-.8.7-2.11-.14-3.2s-1.5-2.29-2.36-3.34a18.44,18.44,0,0,0-2.16-2l-2.36,3A37.66,37.66,0,0,0,1025.82,157.31Z"/><path class="cls-15" d="M1428.15,190.61c-1.74-.83-3.59-1.43-5.39-2.12l-.76.9a21.35,21.35,0,0,0,2.61,3.63,4.24,4.24,0,0,0,2.9.92c.66-.05,1.5-.94,1.79-1.64C1429.45,191.94,1428.71,190.88,1428.15,190.61Z"/><path class="cls-16" d="M394.75,188.24c.48,3.65,2.05,5.84,4.09,5.92a2.8,2.8,0,0,0,2.21-1.11,2.46,2.46,0,0,0-.84-2.22A52,52,0,0,0,394.75,188.24Z"/><path class="cls-17" d="M1493.57,190.67c-.14.39,1.19,1.85,1.5,1.75,1-.31,1.73-1.14,3.13-2.19l-2.68-2.23A10.54,10.54,0,0,0,1493.57,190.67Z"/><path class="cls-18" d="M1146.84,42.19c.88-1.29,1.91-2.14,1.82-2.85s-1.25-1.4-2-2.09c-.73.81-1.79,1.51-2.08,2.45C1144.49,40.16,1145.79,41.06,1146.84,42.19Z"/><path class="cls-19" d="M477,25.56c.26-1.35-.46-2.61-1.95-2.42a2.81,2.81,0,0,0-1.92,1.95c0,.73,1.05,1.52,1.9,2.62C475.89,26.76,476.82,26.23,477,25.56Z"/><path class="cls-20" d="M926,25.19c-1.1-.88-1.85-1.94-2.6-1.94s-1.47,1.07-2.2,1.67A11.88,11.88,0,0,0,923.71,27C924,27.17,924.92,26.08,926,25.19Z"/><path class="cls-21" d="M366.46,76c.15.59,1.22.94,1.88,1.4a7.43,7.43,0,0,0,1-2.24,6,6,0,0,0-.63-2.15l-1.28.83C367.05,74.6,366.3,75.43,366.46,76Z"/><path class="cls-22" d="M657.45,184.36c0-.65-.78-1.37-1.48-2.44-.67.92-1.46,1.53-1.39,2,.1.74.8,1.4,1.24,2.09C656.4,185.47,657.41,185,657.45,184.36Z"/><path class="cls-23" d="M1395.4,74.23c-.26-.1-.91.89-1.66,1.68a8.74,8.74,0,0,0,2.38,1.45c.24.06,1.21-1.24,1.06-1.58A3.24,3.24,0,0,0,1395.4,74.23Z"/><path class="cls-24" d="M797.32,179.09a4.89,4.89,0,0,0,.41,1.12l2.35-1a13,13,0,0,0-2.08-.59C797.77,178.66,797.31,179,797.32,179.09Z"/></svg>