<svg id="Layer_1" data-name="Layer 1" xmlns="http://www.w3.org/2000/svg" viewBox="0 0 5729.95 2507.16"><defs><style>.cls-1{fill:#fff;}</style></defs><path class="cls-1" d="M5438,159.09c0-15.3-5.17-20.86-20.62-20.51q-57.53,1.11-115.19-.05c-14.95-.25-19.57,6.06-19.47,20,.05,16.59,2.43,33.38-1.84,49.82,4.67,6.11,2.38,13.16,2.38,19.72q.23,133.81.1,267.54c0,33.33-3.72,36.06-38.55,28.22-20.76,5.06-41.92.74-62.73,2.58-17.44,1.49-23.35-4.37-23.2-22.8.89-114.4.25-228.8.74-343.2.05-15.69-4.37-22.3-21.11-21.9-38.34.94-76.74.54-115.09.1-13.41-.15-19.07,5.06-19.12,18.58-.05,17.18,2.18,34.42-1,51.56,4,7.65,1.44,15.74,1.44,23.59q.22,450.35-.25,900.68c0,18,5.72,23.55,23.5,23.4,24.59-.2,49.38-3.53,73.87,1.84,12-4.72,24.53-2.78,36.7-2,16.5,1,21.16-5.41,21.11-21.51-.54-125.42-.34-250.85-.29-376.27,0-7.9-2-16.1,2-23.7-4-11.47-.79-23.3-1.39-34.92-.44-9.19,5.71-13.31,14.26-13.36,31.59-.25,63.13-.1,94.73-.3,9.34,0,13.46,4.92,14.2,13.46.4,4.27.2,8.64.2,13,0,139.78.3,279.56-.44,419.34-.1,18.58,5,24.89,24,24.54,24.54-.45,49.32-3.58,73.81,1.89,12-4.62,24.59-2.54,36.76-2,15.4.65,20.52-5.26,20.52-20.51Q5437.57,647.4,5438,159.09Zm-46.2,978.67c-21.71-.1-43.47-.1-65.17-.15-24.54,0-25.78-1.29-25.78-26.67V694.48c0-25.54.05-25.49-25.88-25.49-37.21,0-74.46.75-111.67-.39-16.89-.5-22.45,4.37-22.35,21.9.69,140,.49,280.11.54,420.19,0,27.07-.09,27.07-26.32,27.07-23,0-45.9-1-68.8.1-18.28.9-23.65-6.6-23.6-24,.55-117.73.3-235.5.3-353.23q0-288.21-.05-576.41c0-24.79,1.29-26.08,26.33-26.13,23,0,46,1.24,68.85-.35,19.67-1.34,23.74,6.71,23.64,24.74-.69,112.76,0,225.57-.74,338.38-.1,18.33,4,25,23.54,24.24,38.4-1.54,76.9-1.09,115.34,0,16.5.44,21.26-5.07,21.16-21.26-.59-113.41-.29-226.81-.29-340.22,0-24,1.34-25.43,25-25.48,22.95-.1,45.9,0,68.85,0,25.14.05,25.28.15,25.28,24.49q.08,233.37,0,466.68.08,230.54.05,461.07C5420,1137.81,5419.93,1137.81,5391.77,1137.76Z"/><path class="cls-1" d="M3486.54,1155.1a1.46,1.46,0,0,0,.1.45v0c0,.05.05.09.05.14v-.54C3486.64,1155.15,3486.59,1155.1,3486.54,1155.1Zm103.92-572.49c-60.06.6-120.16.35-180.27.1-12.67-.1-17.68,5.31-17.83,17.88-.15,17.83,2.33,35.87-1.79,53.6,4.22,23.94,1.44,48.08,1.64,72.13.1,14.2,5.41,20.56,19.77,19.92,13-.55,26.08.14,39.09-.15,10.68-.25,16.2,4,16,15.2-1,55.73,2.83,111.56-2.39,167.15-2.43,26.08-8.39,52.35-33.48,68.25-29.31,18.38-58.16,11.42-76.15-17.88-10.53-17.09-13-35.77-13-55.14q0-276.51,0-553c0-12.32-.55-24.83,6-36.16,1.59-11.37,8-20.51,15.25-28.76,22.15-25.08,55.38-22.55,73.52,5.71a96.26,96.26,0,0,1,15.79,52.56c.1,19.82,0,39.59,0,59.36,0,23.64,1.09,24.14,25.48,24.93,24.54.85,49.23-3.38,73.57,2.49,12.12-3.78,24.64-3,37-2.44,13.46.7,19.37-4.17,19.07-18-.59-28.51.5-57-.64-85.49-3.78-95.87-64.23-194-166.26-215.23-71.48-14.86-173.76,14.7-216.88,91.05a507.74,507.74,0,0,0-35.16,76.74c3.47,18.43-3.13,36.22-3,54.65.8,73.66.2,147.38.2,221q0,184.86.2,369.72c.15,52.86,15.25,101.34,45.8,144.5,30.75,43.52,73,69,125.68,78.09,39.29,6.76,77.59,4.42,115.34-8.64,3.47-1.19,7.15-4.62,11.27-3.08a4.87,4.87,0,0,1,.55.25,2,2,0,0,1,.55.29,2,2,0,0,1,.54.35,2.35,2.35,0,0,1,.6.45c-.85-4,1.24-5,5.12-4.12,85.73-58.92,115.09-144.55,115.73-243.75.15-16.74.05-33.43.05-50.17q.07-126.3,0-252.59C3607.49,592.74,3607.64,582.46,3590.46,582.61Zm-5,375.33c-6.26,66.12-31,126.62-90.31,165.32-80.17,52.35-227.2,32.88-272.61-92-12.22-33.63-17.83-68.1-17.78-103.72q.15-140.29,0-280.65c.05-94.18-.25-188.36.15-282.55.25-55,11.38-107.49,46.64-151.5,47.14-58.86,110.58-76.7,182.75-65,94.38,15.3,150.31,103.57,155.08,198.59,1.1,21.66.15,43.37.55,65.07.2,13.17-5.17,19.08-18.93,18.78-26.62-.65-53.35-.94-80-.1-15.3.55-19.12-6.56-19.22-20.12-.15-25.88,2.63-51.95-5.37-77.49-3.38-10.78-7.6-21.11-13.71-30.25-13.91-20.76-32.48-33.43-59.21-30.89C3366,274.09,3348.35,290,3336.18,313c-8.25,15.5-11.63,32.39-11.63,50.17q.22,284.34.15,568.72c.05,42.42,19.77,75.5,51,87.32,41.62,15.75,82.85-5.56,98.6-49.67,9.39-26.23,11.23-53.2,11.52-80.47.45-47.69-.24-95.43.45-143.11.2-13.66-4-19.28-18-18.43-14.21.89-28.51,0-42.77.25-11,.15-15.65-5-15.6-15.85.15-30.95.25-61.94-.15-92.89-.15-12.77,5.42-17.78,17.89-17.73q72.57.45,145.14,0c11.82,0,17.19,5.26,17,16.74C3588,731.33,3596.17,845,3585.44,957.94Z"/><path class="cls-1" d="M4873.82,722.54q-81.73-125.92-165-250.85c-27.12-40.83-40.29-84.49-32.14-133.57,1.09-20.07,11.82-34.63,28.31-44.31,19.37-11.38,40.49-4.22,53.5,17.33,14.85,24.64,17.64,52.16,17.78,80.23.25,47,.35,46.54,47.39,47.19,18.33.25,37-3.58,55,2.58,11.33-5.27,23.25-2.28,34.87-2.43,10.68-.15,17.09-4.28,17-15-.5-58.61,3.33-117.57-21.06-173.6-33-76-92-119-172.72-124.14-77.93-4.92-141.71,27.42-184.29,96.07-10.87,17.49-16.19,37.35-26.82,54.74v.05c-1.49,26.38-7.8,52.11-8.89,78.78-3.48,86.19,21,162.88,68.7,234.26,45.05,67.41,94.33,131.64,141.72,197.26,32.78,45.4,53.2,95.27,47.58,152.44-2.33,23.65-6.25,48.09-31.74,60.41-20.46,12.86-45.15,5.56-57-17.49-5-9.83-9.24-20.07-10-31.49-2.93-42.37-2.63-84.74-.84-127.16l-.75-.3c-45.75-.35-91.54-.25-137.29-1.25-15.06-.29-19.18,6-19.08,20,.05,16,2.34,32.14-1,48.09,2.73,38.05-.4,76.25,8.24,114.25,33.93,148.52,177.59,197.1,290.2,145.29,8-3.72,12.76-14.6,24-11.47,43.21-32.19,73.76-73.92,85.79-126.37C4949,908.77,4931.64,811.66,4873.82,722.54Zm34.08,282.59c-17.49,76.65-73.22,134.47-157.61,144.06-87.28,9.93-156.48-28-192.54-104.91-14.6-31.2-21.56-75.11-21.86-136.56,0-14.9.8-29.8-.2-44.6-1-15.75,4.18-22.85,20.87-22.36,26.62.85,53.35.65,80,0,14.31-.34,20.17,5,19.77,19.58-.64,24.73-.1,49.57.05,74.36A124.57,124.57,0,0,0,4669,988.59c11.82,24.59,37.75,38.95,61.84,36.12,26.13-3.13,49.28-25.74,56.63-54.65,18.08-71-2.83-133.27-43.61-190.54-56.28-79-119.17-153.59-165.76-239-53.25-97.51-61.85-200.24-13.61-301.27,33-69.25,96.41-98.51,171.82-94,72.72,4.32,124.78,42.22,155.23,109.38,21.75,48.13,20.07,98.9,19.82,149.66-.05,10.38-5.27,15.65-16.3,15.5-27.91-.3-55.83-.45-83.7-.05-13.66.2-16.69-7.35-16.69-18.92,0-30.5-2.38-60.66-15.35-88.92-11.07-24.09-27.66-41-56.38-40.83-26.07.2-48.87,16.69-58.21,44.06-19.77,57.87-6.36,111.47,25.43,160.89,57.52,89.36,117.53,177.14,174.4,266.9C4915.75,823.58,4929.06,912.64,4907.9,1005.13Z"/><path class="cls-1" d="M4576,2310.06c-5-11.28-7.95-23.4-11.87-35.12q-36.28-108-72.62-216.18-24.52-72.87-49-145.79c-2.68-8-4.87-14.9,3.13-21.76,51.61-44.16,78.63-102.13,91.54-167.4,19.58-99,19.68-197.15-20.11-291.73-28.32-67.21-75.9-114.4-152.6-117.58-78.58-3.28-157.42-1-236.15-1.49-13.16,0-16.39,6.51-17.09,18.58-.84,15.4,4.82,30.65.45,46q.15,176.51.3,352.93,0,287.08-.1,574.22c0,22.66,1.39,24.2,24.29,24.2,21.06,0,42.12-.3,63.18-.55,6.11-.05,12.42-1.09,17.34,4,7.4-.39,14.8-1.09,22.16-1.14,24.24-.15,26.87-2.68,26.87-26.33q-.15-132.69-.25-265.35c0-9.24,1.24-18.48,1.89-27.67-4.42-23.89-.7-47.94-1.54-71.88-.25-7.25,3.38-11.37,11.08-11.87,8.59-.5,15.4.2,18.67,10.53,10.93,34.67,22.9,69.05,34,103.72q43.22,134.87,85.93,269.88c3.68,11.57,10.44,16.78,23,16.93,26.48.35,53.06-2.13,79.53,1.2,14.61-4.13,29.61-1.74,44.36-1.89C4576,2328.34,4582.74,2325.41,4576,2310.06Zm-37.4.45c-29.76-.55-59.56-.45-89.32-.2-10,.1-15.35-3.33-18.58-13.61-20.76-66-42.37-131.84-63.53-197.7q-28.38-88.3-56.43-176.64c-2.53-8-7.45-12.62-16-13-.6,0-1.24,0-1.84,0-54.49.6-44.9-6.55-45.1,41.08q-.68,169.14.39,338.28c.1,17.34-5.21,22.9-22.2,22.06-24.09-1.2-48.38-1.3-72.52-.15-17.79.79-23.4-5.47-23.35-23.4.6-156.17.35-312.3.35-468.42h-.15c0-154.88.35-309.82-.4-464.7-.1-18.73,6.51-23.3,23.7-23.15q95.82,1,191.59.25c75.05-.69,124.08,38,153,103.32,39.44,89.27,39.74,182.75,22.85,277-9.74,54.44-28.81,104.86-67.26,146.24-4.22,4.52-8.34,9.19-12.91,13.31-24.59,22.21-24.24,22-13.91,52.71q50.9,151.11,101.38,302.41c7.25,21.66,14.71,43.32,22.75,64.68C4556.06,2303.9,4554.52,2310.75,4538.58,2310.51Z"/><path class="cls-1" d="M4030.17,2167.05l-6.76.15,7,.05A.73.73,0,0,0,4030.17,2167.05Z"/><path class="cls-1" d="M2869.79,2033.38c.4-11.43-7.95-12.37-16.49-12.42-40.24,0-80.47.2-120.71-.15-13.81-.15-18.23,6.26-18,19.37.2,15.35,2.54,30.9-1.84,46,7.45,32.34-3.92,59.41-23.59,84.1-.65.84-3.23.05-4.92.05-13.56,14.25-29.11,12.27-44,3.77-27.77-15.84-36.71-42.82-36.81-72.42-.44-187.42-.2-374.89-.25-562.36,0-12,1.79-23.39,8.5-33.58,4.82-22.25,21.66-39.49,42.12-43.11,19.08-3.38,34.62,4.67,47.29,25.08a88.3,88.3,0,0,1,13.81,47.34c0,21.61.79,43.22-.25,64.78-.84,16.54,5.91,21.85,21.76,21.11,22.2-1,44.46-.45,66.71-.5,6,0,12.42-1.69,17.29,3.73,2.83-1.15,5.51-2.89,8.44-3.43,13-2.49,29.71,6.9,38.5-5.27,8.19-11.37,2.13-27.66,2.68-41.77,2.24-54.79-2.19-108.14-26.82-158.91-58.17-119.76-192.84-143.8-293-85.39-47.34,27.57-72.62,72.43-91.6,121.65-12.86,49.48-11,100-11,150.46q.23,250.59,0,501.26c-.05,59.86,14.4,114.85,50.91,163.23,55.29,73.22,175.1,98.6,255.72,55,6.86-3.73,9.49-15.1,20.27-11.68,47.68-37.25,76.4-85.93,89.46-144.84C2873.62,2121,2868.3,2077.14,2869.79,2033.38Zm-45.95,191.94c-33.43,64.32-101.58,101.83-174.2,97.7-111.72-6.3-174.8-90-180.51-184.29-6.46-105.75-.8-211.85-2.54-317.81,1.94-107.19-5.26-214.64,3.18-321.48,6.31-79.68,44.06-143.06,125.13-170.29,98.7-33.08,196.95,6,238.83,108.59,20.07,49.23,19.22,100.34,18.53,151.8-.15,9.19-4.18,13.27-13.71,13.17q-44.64-.45-89.32,0c-12.86.1-17.28-6-17-18.38.34-20.47.05-40.93-.75-61.35-.89-21.85-10.38-40.93-24-57.22-29.16-34.82-82.71-27-106,14.55-10.34,18.33-14.86,38-14.91,58.77-.1,187.76-.35,375.53.25,563.29.1,36,9.84,69.25,45.35,87.38s71.63,2.38,89.61-36c13.32-28.42,10.14-58.12,10.64-87.63.39-27.27.09-27.32,27.81-27.32q38.16,0,76.3.05c7.7,0,15.3-.3,15.65,10.78C2854.19,2110.07,2852.8,2169.58,2823.84,2225.32Z"/><path class="cls-1" d="M2886.68,778.82c-9.29-64.23-34.82-121.05-88.17-162-9.74-7.46-6.85-13.86.55-21.31,27.47-27.67,42.77-62.34,51.51-99.25,17.93-75.46,18.38-151.16-8.05-225.07-25.23-70.54-72.57-117.48-149.17-128.06-68.45-9.49-137.49-2.29-206.29-4.17-10.53-.3-15.45,5-15.75,16-.45,17.29,2.29,34.67-1.59,51.86,3.48,8.34,1.74,17.09,1.74,25.63q.15,443.79.1,887.67c0,35.81.1,35.86,36.71,35.91,54.54,0,109.08-.49,163.57.15,37.36.45,72.53-6.26,104.57-26.28,1.83-1.19,4.61-.84,7-1.24,42-33,70.88-75,87.87-125.72C2895.87,929.48,2897.61,854.32,2886.68,778.82Zm-35.32,226.66c-19.47,52.56-50.12,96.87-104.46,119.22a173.54,173.54,0,0,1-67.11,13.06c-55.19-.2-110.37,0-165.61,0-23,0-24.34-1.14-24.34-23.89V647.24q-.08-232.41-.05-464.8c0-23.2,1.19-24.54,23.89-24.39,54.54.35,109.23-.94,163.68,1.89,71.13,3.62,120.06,42.57,144.3,107.69,33.87,91.2,32.48,183.25-6.86,273.35-10.28,23.65-25.68,43.91-48.43,57.08-11.27,6.51-11.82,12.07-.84,18.38,60.4,34.92,90.4,90.6,102.13,156.27C2881.66,851.25,2879.43,929.73,2851.36,1005.48Z"/><path class="cls-1" d="M5477.7,2289.1c.1,16-6.65,24.88-23.54,22.9-17.24-2-21,6.45-20.47,21.9.9,25.93-1.54,27.67-27,27.67q-344,.07-688.13,0c-25.78,0-27.07-1.34-27.12-27.62-.05-14.9,0-29.75,0-44.6,0-31.6,0-31.6,30.1-37.66,4.42,6.86,1.69,14.46,1.74,21.61.2,34.13.5,34.67,33.93,34.67q220.32.08,440.7,0c83.65-.1,167.3-1,251-.94.7,0,1.39,0,2-.05.5,0,1,0,1.44,0,.6-.05,1.19-.1,1.74-.2l2-.3c.1,0,.15-.05.24-.05s.25,0,.4-.1a9.85,9.85,0,0,0,1.74-.44l1.34-.45c.35-.15.7-.3,1-.45a12.77,12.77,0,0,0,5.32-4.22,8.77,8.77,0,0,0,.85-1.34,4.15,4.15,0,0,0,.49-1,11.89,11.89,0,0,0,.94-2.39,14.77,14.77,0,0,0,.4-1.59,16.25,16.25,0,0,0,.35-1.69v-.05c.1-.59.15-1.19.2-1.83a12.3,12.3,0,0,0,.15-1.94c0-.95,0-1.94,0-3-.4-25.39-.65-50.77.2-76.15.54-15.5-5.67-20.32-20.82-20.27q-352.35.45-704.72.05c-8.49,0-15.84,1.54-21.8,7.8-4-10,2.83-13.51,10.18-15.55,4.67-1.29,9.84-.64,14.8-.64H5443c30.95,0,34.63,3.57,34.67,33.68C5477.7,2239.57,5477.51,2264.31,5477.7,2289.1Z"/><path class="cls-1" d="M4040.9,1151.62a.17.17,0,0,1-.05.1c.05,0,.05,0,.1,0Zm-3.48,3.33s0,0,.1.1l.3-.3A3,3,0,0,1,4037.42,1155Z"/><path class="cls-1" d="M4053.91,301.16l127.76,1.19,45.2-1.93c6.06-36.27,2.09-72.83,2.59-109.24.69-49.82.15-49.82-49.38-49.82-89.21,0-178.48.45-267.74-.35-18.33-.15-23,6.11-23.2,23.7-4,321.33-.49,642.72-1.69,964.11-.1,27,.05,26.58,26.63,27.32,24.09.7,48.23-2.73,72.18,1.79,15.2-4.32,30.74-1.14,46.09-2a4.2,4.2,0,0,0,1.05,0,10.9,10.9,0,0,0,4-.94,3,3,0,0,0,.4-.2.15.15,0,0,0,.1,0,6.39,6.39,0,0,0,2.88-2.93,0,0,0,0,0,0,0,.17.17,0,0,0,.05-.1,8.73,8.73,0,0,0,.89-4.07q-.08-196.71-.1-393.47c0-6.16-.84-12.41,2-18.23-4.47-11.87-1.29-24.19-1.59-36.26-.2-7,4-11.82,11.37-11.57,24.29.69,48.63-2.58,72.87,1.34,14.21-3.78,28.72.3,43-1.34,13.22,2.78,13.36-6.86,13.41-15,.3-43.91-.1-87.78.25-131.69.1-11.77-5.51-17.88-16.29-18-40.09-.35-80.17-3.48-120.21,1.54-9.39-10.73-4.62-23.69-4.47-35.42.45-45.55-3-91.15,1.69-136.65-4.62-13.26-1.2-26.92-1.64-40.33C4041.89,305,4046.41,301.11,4053.91,301.16ZM4024,302q1.11,112.51.25,225c-.1,14.1,5,18.23,18.47,17.93,32.24-.8,64.53.45,96.77-.7,16.74-.64,22.15,6.06,21.86,21.66q-.75,42.76.14,85.54c.3,14.45-5.81,20.07-20,19.92-32.89-.45-65.77.45-98.66-.55-15.1-.45-18.87,5-18.82,19.42.54,140.68.44,281.4.44,422.08.05,25.68,0,25.73-25.88,25.68q-33.45-.08-67-.2c-25.48,0-26.62-1.09-26.62-25.73q-.07-232.47,0-464.84t0-464.9c0-22.9,1.14-24.14,24.29-24.14,88.07-.1,176.19.2,264.26-.35,16.15-.05,22.16,5.62,21.66,21.81-.84,27.87-.55,55.78.05,83.65.3,14.26-5.26,19.92-19.77,19.77-50.27-.6-100.54.1-150.76-.65C4030,282.13,4023.81,285.91,4024,302Z"/><path class="cls-1" d="M3611.07,1579.41c-.84-63-7.35-126.32-42.67-182.1-27.62-43.62-63.13-79.63-116.73-82-85.39-3.83-171-1.69-256.52-2.14-11.92-.05-16.24,5.61-15.89,17.34.44,15.4-.55,30.84-.9,46.29,3.53,8.35,1,17,1,25.53q.23,449.52.15,899.05c0,26.42.34,26.82,27.12,26.87,63.83.1,127.66-.4,191.49.25,35.37.35,70.44-.1,103.77-14.06,22.2-16.89,43.11-34.77,58.31-58.86,37.61-59.71,50.32-126.47,51-195C3612.86,1900.15,3613.11,1739.76,3611.07,1579.41Zm-16.94,478.16c-.84,67.8-13.16,134.42-52.2,192.68-26.78,39.94-63.74,60.6-112.57,60.21q-104.16-.9-208.38.1c-17.53.15-23.39-5.22-23.34-23.45.69-156.12.39-312.25.39-468.37h-.14c0-155.48.24-311-.35-466.54-.05-16.89,6-21.36,21.56-21.26,67,.5,134,1.79,200.88-.2s109.33,32.44,139.28,87.23c28.22,51.56,34,108.94,34.72,165.66Q3597,1820.57,3594.13,2057.57Z"/><path class="cls-1" d="M4238.05,286c0,7.2-1.34,13.61-9,16.59a1.91,1.91,0,0,1-1.69-.4c-.35-.39-.3-1.19-.45-1.78,6.06-36.27,2.09-72.83,2.59-109.24.69-49.82.15-49.82-49.38-49.82-89.21,0-178.48.45-267.74-.35-18.33-.15-23,6.11-23.2,23.7-4,321.33-.49,642.72-1.69,964.11-.1,27,.05,26.58,26.63,27.32,24.09.7,48.23-2.73,72.18,1.79-.7,46.4-.7,46.4-47.89,46.4-21.71,0-43.42.05-65.12,0-26,0-26.53-.55-26.53-27.62q-.07-258.48,0-516.86c0-142.56.25-285.07-.3-427.64,0-18.18,3.28-29.06,24.39-25.93,9.84,1.44,13-4.67,12.82-13.61-.25-11.77-.1-23.54,0-35.31.2-21,3.68-24.54,25.28-24.59q133.08-.15,266.11-.05c13.66,0,27.32.15,41,0,14.55-.15,21.95,7,22,21.41C4238.1,198,4238.05,242,4238.05,286Z"/><path class="cls-1" d="M4989.66,1843.18c-24.69.84-49.42.69-74.11,0-13.76-.4-18.93,4.82-18.18,18.43,1.19,22.75,2.38,45.6-5.66,67.7-3,8.4-6.81,16.44-14.26,21.06-.7.45-1.39.85-2.14,1.29a55.12,55.12,0,0,1-6.45,3.38c-.7.3-1.4.6-2.14.85a20.47,20.47,0,0,1-4.27,1.09,13.48,13.48,0,0,1-3.18.1,9.85,9.85,0,0,1-1.69-.25,11.13,11.13,0,0,1-2.43-.79,5,5,0,0,1-1.15-.6,5.23,5.23,0,0,1-.54-.3s-26.08-5.07-27.32-43.07h.54s0-.09-.05-.09c-.15-.55-.25-1.1-.35-1.69a1.71,1.71,0,0,0,0-.45c-.05-.7-.1-1.44-.1-2.14,0-4.07,1.09-8.39,1.09-12.17-.4-122.59-.1-245.14-.35-367.73,0-17.93-1.84-35.72,5.42-52.9,3.92-9.39,8.69-17.64,17.18-23.55,10.78-7.5,20.62-6.85,30.06,2.39,11.82,11.62,16.14,26.17,16.59,42.07.44,15.45.39,31-.05,46.4-.35,12.22,4,18.77,17.08,18.37,27.87-.84,55.74-1.64,83.6-1.88,9.59-.1,8.7-6.16,9.34-12.42,2.29-21.41-4.91-42.62-.84-64-3.33-21.21-5.37-42.52-12.82-63.24-26-72.07-95.47-108.48-168.79-88.32-51.11,14.06-77.69,51.32-96.22,97.07,1.2,3.28.25,5.46-3.18,6.31,0,0-.09,0-.14,0v.24c-12.52,160.5-3.78,321.19-5,481.84-.45,61.24,22.25,114.2,79.23,145.54,33.28,18.28,69,22.65,105.75,9.49,4-1.44,8.05-3.33,12.52-1.59,26.18-15.65,48.14-35.42,64.43-61.6,8.49-13.66,8.59-30.6,18.73-43.31.24-1,.44-2.14.69-3.23s.5-2.14.65-3.23c.79-4.32,1.49-8.59,2-12.91.3-2.14.55-4.33.75-6.51.45-4.32.79-8.65,1.09-13,.15-2.13.25-4.32.35-6.5s.2-4.28.25-6.41c0-1.14.1-2.29.1-3.38.1-3.28.15-6.56.2-9.78.19-13.12.14-26.18.44-39.25C5006.55,1848,5003,1842.73,4989.66,1843.18Zm-1.19,69.69c-1.29,39-12,76-38.1,106.4-58.66,68.45-169.69,46.49-200.73-38.89-10.83-29.66-14-60.11-14.26-91.16-.35-31.59-.05-63.23-.05-94.82v-92.94c-.05-63.19-.25-126.37.05-189.61.2-39.93,4.42-79.37,26.88-114,26.82-41.23,65.81-59.11,114.39-54.34,48.34,4.77,77.74,35.12,96.52,77.09,14.95,33.53,16.94,69.45,16,105.61-.29,10.88-5.71,15.9-16.14,16-13,0-26.08-.75-39,0-15,.89-19.77-6.12-19.18-20.07.8-17.94.2-35.67-5.61-53.2-8.05-24.29-27-41.93-46.74-41.18-20.32.74-42.47,20.46-47.49,43.46a162.93,162.93,0,0,0-4.32,34.92q-.45,195.15-.1,390.34c.05,17.93,1.84,35.66,12,51.66,10.83,17,25.18,28.16,45.7,25.78s32-17.54,39.24-35.52c7.4-18.13,8.59-37.35,7.1-56.63-1.24-15.69,4.33-23.84,21-21.8a30.78,30.78,0,0,0,3.72,0C4994.88,1860.71,4990.56,1851.47,4988.47,1912.87Z"/><path class="cls-1" d="M2469.75,206.82c3.46,8.34,1.69,17.09,1.7,25.62q.15,443.85.1,887.7c0,35.82.09,35.86,36.74,35.88,54.53,0,109.06-.46,163.57.18,37.35.43,72.49-6.26,104.52-26.3,1.87-1.16,4.67-.83,7-1.2-16.61,33.84-46.9,51.24-79.75,64.88-19,7.86-39,11.19-59.88,11q-93-.76-185.92.19c-16.09.18-23.08-3.69-23-21.73q.72-477.42,0-954.84C2434.75,198.06,2456.86,211.77,2469.75,206.82Z"/><path class="cls-1" d="M3178.35,1376.77c3.54,8.37,1.06,17.06,1.06,25.54q.26,449.54.14,899.07c0,26.42.34,26.83,27.11,26.87,63.83.07,127.67-.41,191.5.24,35.4.35,70.43-.08,103.77-14.08-4.36,21.87-23,31.35-39.07,41.39-22.27,13.87-47.34,20.12-74.28,19.88-72.54-.64-145.09-.16-217.64-.22-22.83,0-24.61-1.71-24.61-24.21q-.07-474.85,0-949.71C3146.33,1378.24,3146.77,1378,3178.35,1376.77Z"/><path class="cls-1" d="M3107.63,154.42c0-10.48-4.37-15.89-15.65-15.79-40.33.35-80.62.54-120.95.05-13.17-.15-17.24,5.41-17.39,17.78-.25,17.29,2.53,34.67-1.79,51.76.55,7.35,1.54,14.7,1.54,22.06q.08,447.79.05,895.56c0,30.1.15,29.51,30.8,30.4,22.05.65,44.36-3.62,66.21,2.34,10.83-4,22.11-2.39,33.19-2.49,23.39-.2,23.94-.74,23.94-24q0-479.55,0-959.1C3107.53,166.79,3107.63,160.58,3107.63,154.42Zm-15.7,960.19c0,7.21,4.27,17.29-7.8,20.47-34.32,6.21-68.89,1.24-103.37,2.24-6.06.14-8.34-4.72-8.79-10-.45-5.56-.5-11.13-.55-16.69q-.08-463.23-.2-926.46c0-26,.05-26,25.24-26,23.54,0,47.09-.1,70.64,0,7.3,0,15.1-1.29,20.46,5.76,8.45,3,4.37,10.14,4.37,15.2Q3092.23,646.84,3091.93,1114.61Z"/><path class="cls-1" d="M3094.66,2279q.3-459.8.15-919.6c0-10.53,0-21.07.25-31.55.3-10-3.72-14.8-14.21-14.7q-62.28.3-124.58,0c-11,0-15.74,4.32-15.49,15.55.39,16-.25,32.14-.45,48.18.3,9.79.89,19.52.89,29.31v898c0,23.34.7,24.14,23.9,24.19,20.46,0,40.93-.2,61.39-.2,6.11-.05,12.52-1.49,17.49,3.73,2.18-1.15,4.22-2.89,6.55-3.33,14.11-2.78,32.44,7.15,41.93-5.86C3101,2311,3094.66,2293.72,3094.66,2279Zm-17.53-457.34q-.08,230.46-.05,460.92c0,28,0,28-28.81,27.92-24.19-.05-48.38-.5-72.53-.15-11.92.2-17.38-4.52-16.39-16.49.25-3.08.05-6.21.05-9.29q-.15-465.62-.59-931.13c0-17.19,5.06-23.25,22.2-22.51,24.79,1.1,49.67,1.3,74.41-.05,17.54-.94,22.06,5.47,22,22.41C3076.88,1509.37,3077.13,1665.49,3077.13,1821.62Z"/><path class="cls-1" d="M3957.89,2373.49c-91.15.45-182.3.1-273.45.1-28.22,0-28.22-.05-28.22-27.37V1413.3c0-33.33,0-33.33,32.74-34.32,3.28,7.1,1.69,14.65,1.69,22q.07,448.93,0,897.8c0,30,.05,30.2,29.8,30.15q134-.29,267.89-.79c3.68,0,7.55-.45,9.79,3.53C3998.43,2381.89,4003.39,2373.24,3957.89,2373.49Z"/><path class="cls-1" d="M5237.63,2064.52c-33.53,12.47-67,18.63-102.77,7-43.62-14.16-71-43.47-87.38-84.7-11.13-28-14.75-57.42-14.75-87.37.05-132-.15-264,.25-396,.05-21.51,2.68-43.07,4.17-64.58-9.19,1.15-10.23,9.64-13,15.65-4.81,10.48-10.13,20.22-18.87,27.77-4.07,21.36,3.13,42.57.84,64-.64,6.26.25,12.32-9.34,12.42-27.86.24-55.73,1-83.6,1.88-13.06.4-17.43-6.15-17.08-18.37.44-15.45.49-31,.05-46.4-.45-15.9-4.77-30.45-16.59-42.07-9.44-9.24-19.28-9.89-30.06-2.39-8.49,5.91-13.26,14.16-17.18,23.55-7.26,17.18-5.42,35-5.42,52.9.25,122.59-.05,245.14.35,367.73,0,3.78-1.09,8.1-1.09,12.17,0,.7,0,1.44.1,2.14a1.71,1.71,0,0,1,0,.45c.1.59.2,1.14.35,1.69.05,0,.05,0,.05.09h-.54c1.24,38,27.32,43.07,27.32,43.07a5.23,5.23,0,0,0,.54.3,5,5,0,0,0,1.15.6,11.13,11.13,0,0,0,2.43.79,9.85,9.85,0,0,0,1.69.25,13.48,13.48,0,0,0,3.18-.1,24.14,24.14,0,0,0,4.27-1.09c.74-.25,1.44-.55,2.14-.85a55.12,55.12,0,0,0,6.45-3.38c.75-.44,1.44-.84,2.14-1.29,7.45-4.62,11.23-12.66,14.26-21.06,8-22.1,6.85-45,5.66-67.7-.75-13.61,4.42-18.83,18.18-18.43,24.69.74,49.42.89,74.11,0,13.36-.45,16.89,4.77,16.64,17.33-.3,13.07-.25,26.13-.44,39.25,0,3.27-.1,6.5-.2,9.78,0,1.09-.05,2.24-.1,3.38-.05,2.13-.15,4.27-.25,6.41s-.2,4.37-.35,6.5c-.3,4.37-.64,8.7-1.09,13-.2,2.18-.45,4.37-.75,6.51-.54,4.32-1.19,8.64-2,12.91-.15,1.09-.4,2.14-.65,3.23s-.4,2.18-.64,3.28c3.32,14.5,6.85,28.91,10,43.36,16,75,66.81,116.69,140.38,111.07,37.85-2.93,70.48-17.38,87.72-54.79Zm-236.2-248.22c.1,14.36-4.27,20.12-19.07,19.53-22.25-.9-44.61-.4-66.91-.25-19.82.15-25.53,5.86-25.83,25.18-.1,6.21-.35,12.42.15,18.58.94,12.12-1.09,20-16.44,20.12-17.14.15-12.87,14.55-13.71,25.08-.7,8.5,3.42,20-8.2,22.21-13.41-4.57-17.58-33.18-17.78-34.68v0q.22-195.88.54-391.72c0-6.41-1.69-13.26,3.38-21.16,16.64,15.5,19.37,35,21.76,54.14,1.39,11,.84,22.31.15,33.38-.8,13.12,3.38,19.52,17.78,18.93,19.77-.9,39.64-.6,59.46-.1,14.31.35,21.16-5.76,19.57-20-2.48-21.71,12.87-17.34,25.43-18.28,14.11-1,19.87,3.78,19.77,18.83Q5000.6,1701.13,5001.43,1816.3Z"/><path class="cls-1" d="M4446,168.63c0-5,.05-9.88,0-14.85-.09-10.68-5.06-15.25-16.19-15.15q-59.53.66-119,.1c-14.2-.15-18.18,6.55-18.08,19.42.15,16,2.09,32.14-1,48.08.35,8.6,1,17.19,1,25.74q.07,446.53.05,893.08c0,30.89.15,30.3,31.89,31.19,22.06.6,44.26-3.58,66.12,2.29,12-4.43,24.59-3.13,36.86-2.39,15.24.9,18.82-5.91,18.82-19.92Q4445.91,652.43,4446,168.63Zm-43.26,969.28c-24.19-.1-48.43-1-72.57.15-15.45.8-19.23-5.61-19.08-19.47.45-47,.15-94.13.15-141.22V646.54h-.15V183.73c0-26,0-26,25.38-26,22.31,0,44.66,0,67,0,24.29,0,25.54,1.2,25.54,24.89V723.44q0,194.23.05,388.44C4429,1136.57,4427.55,1138,4402.72,1137.91Z"/><path class="cls-1" d="M4291.68,206.25c.35,8.58,1,17.16,1,25.73q.07,446.53.06,893.05c0,30.91.12,30.32,31.88,31.2,22,.62,44.27-3.56,66.11,2.31,4.48,45.77,4.48,45.77-40.25,45.77-25.4,0-50.83-.66-76.21.24-14.78.53-19.35-5.06-19.23-19.44.54-63.76.21-127.54.21-191.31q0-373.33,0-746.68C4255.31,211.56,4255.31,211.56,4291.68,206.25Z"/><path class="cls-1" d="M5003.27,208.77c4,7.63,1.45,15.76,1.46,23.6q.19,450.33-.25,900.67c0,18,5.69,23.55,23.5,23.41,24.57-.2,49.37-3.54,73.84,1.82,3.54,46,3.54,46-42.63,46q-33.46,0-66.93,0c-26.93,0-27-.06-27-26.31V356.9q0-61.31,0-122.61c0-25.71,0-25.72,25-25.79C4994.61,208.49,4998.94,208.67,5003.27,208.77Z"/><path class="cls-1" d="M2951.87,208.24c.52,7.34,1.51,14.69,1.51,22q.1,447.79.07,895.58c0,30.1.12,29.49,30.77,30.39,22.07.64,44.36-3.61,66.23,2.33,5.43,44.53,4.4,45.74-38.79,45.74-26.68,0-53.35-.36-80,.13-12,.23-17.19-4.44-16.41-16.41.44-6.79,0-13.63,0-20.44q0-461.07,0-922.13C2915.3,202.92,2911.86,209.2,2951.87,208.24Z"/><path class="cls-1" d="M2458.57,1451.11c-12.86,49.48-11,100-10.93,150.43q.15,250.64,0,501.26c-.1,59.88,14.4,114.85,50.91,163.23,55.25,73.22,175.07,98.64,255.69,55.06,6.87-3.71,9.51-15.12,20.26-11.68-14.61,32.61-43.6,49.49-73.08,65.05-116.78,61.68-273.48-26.43-280.54-177.81-9.43-202.26-2.39-404.77-3.22-607.17-.18-43.34,8-86.24,29.41-125.23C2449.83,1459.14,2450.59,1451.84,2458.57,1451.11Z"/><path class="cls-1" d="M5317.36,1490.84c.1-29.75-7.3-57.47-18.68-84.44-33.88-80.27-133.67-107.3-204-56.28-31,22.5-44.31,55.33-57.57,88.71-1.49,21.51-4.12,43.07-4.17,64.58-.4,132-.2,264.06-.25,396,0,30,3.62,59.36,14.75,87.37,16.39,41.23,43.76,70.54,87.38,84.7,35.81,11.62,69.24,5.46,102.77-7v-.2l.25.1,6.26-4.67v-.05c48.83-34.42,71.63-83.7,72.32-141.66C5318.15,1775.67,5316.91,1633.26,5317.36,1490.84Zm-17.69,210.22c0,66.31.15,132.58-.05,198.89-.09,42.38-9.73,81.72-35.61,116.69-49.08,66.26-162.63,56.53-198.05-31.55-10.83-26.92-15-54.93-15.05-83.55q-.37-201.69.1-403.3c.15-39.49,6.41-77.74,31.54-110.42,53.9-70,163.33-56.63,198.7,24.24,12.31,28.17,18.72,57.42,18.52,88.32C5299.43,1567.29,5299.67,1634.15,5299.67,1701.06Z"/><path class="cls-1" d="M2940.33,1376.79c.3,9.77.88,19.53.88,29.3q0,449,0,898c0,23.32.74,24.11,23.92,24.15,20.47,0,40.94-.16,61.41-.2,6.07,0,12.49-1.45,17.47,3.72,2.72,41.72,2.72,41.72-37.29,41.72-26,0-52.12-1.09-78.07.36-17.92,1-21.83-6-21.63-22.48.78-64.39.35-128.79.35-193.18v-743C2907.36,1382.68,2907.35,1382.68,2940.33,1376.79Z"/><path class="cls-1" d="M3188.82,297.48c3.45,18.42-3.18,36.23-3,54.62.77,73.69.19,147.39.19,221.09q0,184.86.2,369.71c.12,52.82,15.25,101.32,45.77,144.5,30.77,43.53,73,69.06,125.69,78.09,39.31,6.73,77.62,4.42,115.36-8.66,4.12-1.43,8.57-6,13.64-1.61-1.37,21.32-19.85,28.62-33.92,37.13-82.28,49.72-186.5,32.31-248.24-41.73a202.25,202.25,0,0,1-47.55-130c-1.15-209.23-.68-418.48-.24-627.71.07-30,9-58.5,20.72-86C3179.65,301.68,3181.12,295.87,3188.82,297.48Z"/><path class="cls-1" d="M4675.14,823.9s-.74-.34-.74-.33c-9.56-27.6-30.63-47.62-47.3-70.4-41.28-56.41-80.68-113.95-113.23-175.91-15.47-29.44-23.67-61.33-25.9-94.13-4.19-61.72-9.24-123.92,20-182,4.47-8.89,6.18-20.23,17.63-24.25-1.5,26.4-7.79,52.11-8.87,78.81-3.49,86.2,21,162.86,68.69,234.23,45.05,67.42,94.31,131.66,141.73,197.3,32.78,45.37,53.2,95.25,47.57,152.41-2.34,23.67-6.28,48.12-31.73,60.4-.31-38.4-4.87-76.08-22.5-110.8C4708.44,865.45,4698.68,839.81,4675.14,823.9Z"/><path class="cls-1" d="M4111.62,1377.56q.15,176.45.29,352.91,0,287.12-.06,574.23c0,22.67,1.35,24.2,24.25,24.21,21.07,0,42.14-.34,63.21-.57,6.13-.07,12.43-1.11,17.35,4,2.16,43.08,2.16,43.08-40,43.08-24.79,0-49.58-.17-74.37,0-14.6.11-22.18-4-22.15-21.32q.71-478.32.38-956.65C4080.51,1377,4080.75,1377,4111.62,1377.56Z"/><path class="cls-1" d="M5161.34,734.74c-4-11.47-.79-23.25-1.38-34.88-.47-9.22,5.68-13.33,14.24-13.39,31.57-.22,63.14-.09,94.71-.3,9.36-.06,13.49,4.92,14.25,13.46.38,4.3.16,8.65.16,13,0,139.78.3,279.56-.42,419.33-.09,18.59,5,24.9,24,24.55,24.55-.46,49.36-3.57,73.81,1.88,4.56,45.94,4.56,45.94-40.91,45.94-24.15,0-48.34-.92-72.43.3-17.8.89-23.37-5.22-23.28-23.2.65-139.19.36-278.38.36-417.57,0-30.58,0-30.75-31.39-30.53C5195.82,733.43,5178.58,734.24,5161.34,734.74Z"/><path class="cls-1" d="M4724.09,1434.37c-12.52,160.48-3.73,321.2-5,481.81-.47,61.28,22.25,114.22,79.23,145.56,33.26,18.29,69,22.67,105.71,9.5,4-1.44,8.09-3.34,12.56-1.61-18,32.83-47.53,47.16-83.15,49.77-92.3,6.76-144.21-60.08-146.05-135.67-3.74-154-1.58-308.17-.68-462.27.17-28.7,11.4-55.44,27.23-79.73C4716.4,1438,4719.35,1435,4724.09,1434.37Z"/><path class="cls-1" d="M4517,890.37c2.72,38.07-.41,76.26,8.26,114.24,33.9,148.57,177.6,197.13,290.18,145.32,8.05-3.7,12.77-14.61,24-11.47-21.76,39-57.25,60.81-98.15,73-74.94,22.32-142.64,6.4-197.7-49.17-37.9-38.25-54.45-87.76-57-141.17-1.6-33.93-.64-68-.74-102C4485.78,890.63,4487.26,889.31,4517,890.37Z"/><path class="cls-1" d="M4267.32,2011.8c-4.43-23.86-.73-47.9-1.55-71.84-.25-7.27,3.4-11.41,11.09-11.87,8.59-.51,15.4.2,18.65,10.49,10.94,34.69,22.91,69.06,34,103.71q43.2,134.86,85.91,269.89c3.67,11.58,10.42,16.82,23,17,26.5.33,53.07-2.15,79.52,1.16,3.29,9.27,6.64,18.52,9.86,27.82,3.49,10.12.36,15.4-10.92,15.35q-57.69-.21-115.37,0c-9,0-13.2-4.72-15.8-12.69q-36.8-112.9-73.85-225.72-17.28-52.84-34.22-105.79C4275.51,2022.53,4271.44,2017.21,4267.32,2011.8Z"/><path class="cls-1" d="M5451.63,2203.46c1.24,1.24,2.48,2.43,3.67,3.63,4.37-.4,4.72,1.14,2,4.12v6.11c0,17.93,10.18-3.43,10.18-3.43l-3.72-15.2-20.82-6.75-11.27,6.75h4.82C5441.54,2198.69,5449,2194.42,5451.63,2203.46Zm5.66,72.52V2282l.15.15c3.87,3.63,3.52,6.06-2.19,6.91a13.55,13.55,0,0,1-4.92,3,.35.35,0,0,1-.24.1,18,18,0,0,1-4.87,1.39c-15.6,2.33,11.17,12.76,11.17,12.76l7.36-15.2,3.72-15.15Z"/><path class="cls-1" d="M4676.65,338.13c1.12-20.07,11.86-34.65,28.32-44.3,19.4-11.39,40.51-4.22,53.5,17.32,14.86,24.63,17.65,52.17,17.79,80.23.24,47,.33,46.55,47.39,47.18,18.32.25,36.94-3.6,55,2.56,2.95,45.95,2.95,45.9-41.42,45.68-24.78-.12-49.59-.83-74.33.21-17.45.73-23.2-7.15-23-23.17.4-27.8.74-55.46-8.39-82.55C4722.37,354,4703.37,338,4676.65,338.13Z"/><path class="cls-1" d="M3348.1,334.56c1.61-11.41,8-20.52,15.23-28.77,22.17-25.11,55.43-22.55,73.54,5.7a96.5,96.5,0,0,1,15.79,52.57c.08,19.79,0,39.58,0,59.37,0,23.6,1.1,24.1,25.47,24.93,24.52.83,49.23-3.38,73.58,2.45.14,52.26,5.92,44.45-45.16,44.75-21,.12-42.06-1.32-62.94.11-18.53,1.27-25-4.57-24.37-23.66,1-28.77,3.24-58-7.16-86C3401,356,3383.22,334.59,3348.1,334.56Z"/><path class="cls-1" d="M2611.65,1505.78c4.83-22.23,21.67-39.47,42.14-43.11,19.05-3.39,34.58,4.7,47.25,25.09a88.43,88.43,0,0,1,13.84,47.35c0,21.59.76,43.23-.28,64.77-.81,16.54,5.93,21.84,21.78,21.12,22.19-1,44.46-.46,66.69-.49,6,0,12.45-1.69,17.32,3.73,3.42,42.21,3.42,42.21-38.4,42.14-25.42,0-50.9-1-76.26.2-17.78.87-22.12-6.41-22.1-22.85,0-30.12,4.33-60.66-7.51-90S2646.75,1503.48,2611.65,1505.78Z"/><path class="cls-1" d="M3390.55,654.18c4.25,23.94,1.46,48.08,1.64,72.12.11,14.25,5.42,20.56,19.81,20,13-.54,26,.11,39.06-.19,10.69-.24,16.21,4,16,15.22-1,55.73,2.82,111.59-2.39,167.15-2.45,26.09-8.37,52.39-33.5,68.28,7.15-59.71,3-119.68,4.35-179.53.35-15.2-6.52-21.32-21.26-20.91s-29.69.08-44.54,0c-9.3-.08-14.23-2.52-13.71-14.21,1.35-30.84,1-61.77,1-92.66C3357.08,651.89,3354.59,655,3390.55,654.18Z"/><path class="cls-1" d="M5280.83,208.39c4.68,6.09,2.38,13.15,2.4,19.72q.23,133.77.08,267.54c0,33.3-3.7,36-38.54,28.19q-.17-144.89-.3-289.78c0-25.22,0-25.22,25.21-25.56C5273.4,208.45,5277.11,208.43,5280.83,208.39Z"/><path class="cls-1" d="M5335.87,2045.1c0-16.09.14-32.18,0-48.27-.17-15,10.13-16.5,21.31-17,11.92-.52,21.12,2.44,21.1,16.89,0,15.48.49,31-.15,46.42-.57,13.56,5.12,19.64,18.59,18.76,3.08-.2,6.19-.1,9.29,0,21,.51,24.07,3.81,23.95,25.61-.13,23.39-1.26,24.63-23.6,24.74-17.35.09-34.71-.51-52,.15-14,.54-18.83-6.05-18.57-19,.32-16.09.07-32.18.07-48.28Z"/><path class="cls-1" d="M4175.71,332.21c2.38,15.64-5.66,20.81-20.46,20.61-37.16-.45-74.32-.1-111.47-.05-4.62-13.26-1.2-26.92-1.64-40.33-.25-7.46,4.27-11.33,11.77-11.28l127.76,1.19C4178.59,312.09,4174.07,321.38,4175.71,332.21Z"/><path class="cls-1" d="M3942.05,1521.29c-31.5.6-63.19-3.28-94.53,2.73-.55-1.09-1.59-2.13-1.54-3.22,2-55.19-7.55-47.19,46.79-46.9,31.1.15,62.44-3.92,93.34,2.74C3985.16,1526.76,3994.45,1520.3,3942.05,1521.29Z"/><path class="cls-1" d="M4120.52,715.19c1.74,15.3-6.55,21-21.16,20.66-18.53-.44-37-.05-55.63,0-4.47-11.87-1.29-24.19-1.59-36.26-.2-7,4-11.82,11.37-11.57,24.29.69,48.63-2.58,72.87,1.34C4123.16,697.65,4119.43,705.65,4120.52,715.19Z"/><path class="cls-1" d="M3975.92,1864.79a74.43,74.43,0,0,1-20.21.79c-18.33-2.09-28.27,3.13-25.09,23.89,1.79,11.58-6,14.56-16.09,14.46-22.11-.2-44.26-.1-66.37-.1-4.62-41.58-4.62-41.28,36-41.63,27.66-.25,55.38-1.19,83.1-2.28,5.27-.2,10.43-2.59,15.65-3.93C3986.7,1863.74,3979.75,1864.14,3975.92,1864.79Z"/><path class="cls-1" d="M5437.39,1994.56c0,7.41.32,14.83-.07,22.22-.63,12-9,15.25-19.14,15.61s-16.79-4.44-17.22-15q-.87-21.27-.5-42.58c.22-11.89,6.41-18.18,18.83-17.55,12,.6,18,7,18.22,18.79.13,6.17,0,12.35,0,18.53Zm-9.44,3c0-3.8.11-6.27,0-8.73-.34-6,.89-13.71-8.33-13.39s-7.23,8.14-7.61,14a28.46,28.46,0,0,0,.06,7.38c1.51,7.56-4.55,20.89,8.13,20.6C5432.39,2017.15,5425.92,2003.77,5428,1997.58Z"/><path class="cls-1" d="M2712.71,2086.24c7.46,32.31-3.91,59.41-23.56,84.1-.65.81-3.26.06-5,0-.06-17.92-.15-35.83-.18-53.74C2684,2087.58,2684,2087.58,2712.71,2086.24Z"/><path class="cls-1" d="M3486.67,1155.75c-1.16-4.55.93-5.69,5-4.76C3492,1154.69,3490.54,1156.49,3486.67,1155.75Z"/><path class="cls-1" d="M123,1249.64C118.71,664.72,596.75,182.56,1189.92,183.33c588.41.76,1067.53,469,1068,1066.31.46,589.59-477.58,1063.7-1068,1064.47S118.72,1832.39,123,1249.64Zm30.08-2.81c1.35,573.11,460.76,1034.65,1035.33,1035.78,572.69,1.12,1036.85-459,1037.74-1032.92.89-573.12-465.26-1033-1033.91-1034.32C621.46,214.05,155.66,674.82,153.08,1246.83Z"/><path class="cls-1" d="M5348.21,178.62c-24-.1-25.19,1.39-25.19,25.23,0,112.21-.25,224.38.4,336.59.1,17.19-5.66,22.9-22.5,22.7-52.71-.7-105.46-.85-158.21.1-17.29.3-22-5.52-21.86-22.55.7-106.6.5-213.2.3-319.8-.1-40.93,9.53-46-45.8-45.16-29.46.45-33.58,3.68-33.58,32.79q-.15,440.73-.1,881.41c0,6.85.05,13.61,3.58,19.87,7.2,12.71,65.86,13.71,73.46,1.29,5.22-8.5.15-17,.15-25.49q.3-207.28.1-414.62c0-16.74,6.56-24.74,24.54-24.44,49,.7,98,.2,147,.25,30.11,0,32.54,2.48,32.59,32.93v390.49c0,56.67-5.21,48.18,48.13,48.68,26.68.24,28.86-2.09,28.86-28.22V648.13q0-209.14,0-418.35C5400.11,171.11,5405.68,178.86,5348.21,178.62ZM5390,1080.94c0,25.93-26.13,41.52-48,28.26-9.19-5.56-8.2-15.8-8.2-25.18q.15-205.5.1-410.95c0-33.73-2.24-36-35.87-36-53.34,0-106.69-.05-160,0-23.65,0-28.32,5.67-25.29,29.16a154.23,154.23,0,0,1,1.29,20.37q.07,196.18.1,392.32c0,10,1,20.12-10.48,25.43-13.11,6.06-26.92,5.76-39.79,1.44-9-3-6.8-13.56-6.8-21.46q-.07-146.85,0-293.77V647.43q0-216.6,0-433.25c0-22.85,22.4-35.17,42.72-23.64,8.14,4.67,6.56,12.61,6.6,19.87q.07,100.36,0,200.78c0,44.65-.09,89.26,0,133.92,0,23.74,7.51,31.49,30.85,31.54q84.65.15,169.34,0c21.46,0,27.37-6.21,27.37-28q.07-168.31-.05-336.53c0-24.94.6-25.49,24.49-25.54,28.16-.05,31.64,2.73,31.64,26Q5390.11,646.74,5390,1080.94Z"/><path class="cls-1" d="M3275.92,228.79a194.28,194.28,0,0,0-13,16.34A119.57,119.57,0,0,1,3275.92,228.79Z"/><path class="cls-1" d="M3487.28,706.75c-13.46,0-26.92.44-40.38-.15l39.79-.15h0C3486.94,706.55,3487.09,706.65,3487.28,706.75Z"/><path class="cls-1" d="M3571.18,643.81c.6-13.11-4.91-23.15-20.41-23.15q-50.3-.07-100.49,0c-12,.05-18.43,6.21-18.48,18.33-.1,16.69,0,33.43,0,50.17,0,10.18,4.67,16.94,15.1,17.44l39.79-.15h0l13.16-.05a2.43,2.43,0,0,1-.05-.6l.6.6h-.55a20.22,20.22,0,0,0,1.94,5c3,6.51,2.08,13.42,2.08,20.17.1,45.2-.59,90.46.25,135.66.8,43.81-1,86.38-22.35,126.82-14.16,26.92-34,44-63.18,48.58-33,5.16-62.3-3.18-84.55-30.15-6.21-7.55-10.63-16.5-15.94-24.94a.72.72,0,0,0-.1-.15c-1-1.59-1.94-3.13-3-4.67-3.88-7.75-9.94-26.82-10-70.09v-.89q.15-267.65-.1-535.38c-.05-31.25,5.52-58.42,23.95-86.44,28.21-42.71,95.87-60.5,136.8-3.82,21.7,30.05,26.62,64.87,26,100.39-.35,18.43,6.3,24.64,23.84,23.3,12.32-1,24.79-.45,37.15-.25,11.43.2,17.34-4.32,17-16.44-.89-36.22,1.34-72.48-11.57-107.7-21.26-58.16-54.64-104-119.62-114.84-55.18-9.24-108.83-4.77-152.49,36.56-7.35,6.9-14.95,13.76-21,21.71,0,0-8.15,6.25-17,22.2v0c-9,16.29-18.73,42.72-21.07,83v.35c-.34,5.86-.54,12-.54,18.48v608s-1.69,43.26,21.61,79.42c.05,0,.05.1.1.15a159.11,159.11,0,0,0,38.59,51.61c38,33.48,82.71,40.79,131.39,38,44-2.58,77.19-23,103.47-56.72,33.58-43.22,46.2-93.44,47.54-147C3571.33,832.12,3567,737.94,3571.18,643.81Zm-28.71,359.64c-17.58,54.74-47.24,95.32-108.14,109.57-44.36,10.39-83.65,1.84-120.95-18.67-30.3-16.59-48.53-43.52-63-74-.05,0-.05-.1-.05-.19-1.14-2.84-2.68-6.21-4.67-10.19l-.15-.3a6.33,6.33,0,0,1-.39-.89c-1.74-4-3.43-8-5.07-12a3.44,3.44,0,0,1-.15-.4c-7.45-21.41-9-44.51-9.39-55.93-.1-4.57,0-7.3,0-7.3V352.82s1.49-61.5,32.09-107.24a2.75,2.75,0,0,1,.35-.45,119.57,119.57,0,0,1,13-16.34c29-32.74,66-51.12,115-51.91,37.35-.65,70.68,6.75,99.49,29.9,48.34,38.9,65,92.69,67.06,152,1.44,40.19.3,40-39.84,37.26-11.82-.8-15.64-5.07-15-17.44,1.54-30.35-1.09-60.35-18.48-86.83-19-29-43.31-53.5-79.22-54.49-57.53-1.64-105.81,42.67-106.26,103.42-1.44,190.35-.59,380.7-.39,571.05,0,0-4.23,43.21,2.28,60.45v.1c0,6.76,5,11.47,6.61,17.14,20.81,73.22,122.14,87.62,170.53,35.17,26-28.22,33.77-62.39,34-99,.3-45.85-.39-91.7-.29-137.55,0-25.33.64-50.72,1.44-76a31.79,31.79,0,0,0-.15-6.16v0c0-12.42-35.07-9.14-37.7-8.84h-.15c-14.86-.84-28.27-.94-28.27-.94-4.72-4.77-6.6-12.37-6.75-23.8-.1-6.16.34-12.42-.1-18.58-1.15-15.44,6.9-21.26,21.21-21.21,24.78,0,49.62,0,74.41,0,23.34.1,23.94.65,23.94,24.19.05,79.33-.84,158.66.4,237.94C3560.3,932.16,3553.9,968,3542.47,1003.45Z"/><path class="cls-1" d="M3500.45,706.4h-.55a2.43,2.43,0,0,1-.05-.6Z"/><path class="cls-1" d="M3226.89,334v.35c-.34,5.86-.54,12-.54,18.48V334Z"/><path class="cls-1" d="M3230.47,933.16v7.3C3230.37,935.89,3230.47,933.16,3230.47,933.16Z"/><path class="cls-1" d="M4614.48,564.63a3.88,3.88,0,0,1-2.14-1.94c-5-10.63-11.72-20.61-16.14-33.08C4601.56,541.08,4607.67,552.86,4614.48,564.63Z"/><path class="cls-1" d="M3991.67,2205.89c-52.7.85-105.41-.39-158.11.7-18.68.35-25.38-6.21-25.34-24.39q.53-169.14,0-338.33c0-15,6.06-19.27,20.06-19,31,.69,62,.3,93,.2,19.67,0,27.37-7,26.33-26.68a342.76,342.76,0,0,1,.25-35.12c.94-18.18-7.11-25.78-25.49-25.88-30.39-.15-60.8-.74-91.15.25-16.89.6-23.19-5.31-23.09-22.35q.81-130.17,0-260.24c-.1-15.9,5.81-20.17,20.81-20,49.57.69,99.25-.45,148.82.69,18.63.4,24.34-7.25,23.65-24-.55-11.77,0-23.54-.1-35.32-.15-22-2.93-24.88-24.49-24.88q-109.76-.07-219.56,0c-27.22,0-29.71,2.43-29.71,29.6v438.67q.07,60.43,0,120.86-.07,161.68-.14,323.42c0,15.4,2.28,26.68,21.9,26.58q122.79-.75,245.59-.05c14.5.1,20.31-6.41,20.21-20.07s-.84-27.32.2-40.88C4016.66,2211.85,4009.55,2205.6,3991.67,2205.89Zm12.67,33.73c-1.39,38.8-.35,38.85-40.24,38.85q-98.66,0-197.2,0c-22.21,0-24.29-2.19-24.29-24.64V1389.56c0-26.48,0-26.48,27.22-26.48q96.71-.07,193.48,0c23.29,0,24.59,1.34,24.83,23.7.4,38.79.4,38.79-38,38.79-43.41,0-86.83.55-130.19-.35-15.9-.29-21.86,4.18-21.71,20.92q1,141.27.05,282.49c-.1,15.1,6.26,19.52,20.07,19.32,31.59-.44,63.23.25,94.83-.35,13.36-.29,19.37,4.43,19.27,18.14-.25,57.87,3.72,46.74-45.4,47.53-22.95.4-45.9.45-68.8,0-13.71-.29-20.07,3.88-20,19.13q.67,182.18-.05,364.26c-.1,15.84,5.86,20.11,20.86,20,54-.69,107.89,0,161.84-.49C3998.13,2215.88,4005,2221.09,4004.34,2239.62Z"/><path class="cls-1" d="M2780,2058.36c-24.69-.15-25.88,1-25.23,26.73.84,33.53-6.71,64.77-25.49,92.74-31.49,46.89-95.67,59.16-140.37-.95-20.67-27.81-24.29-60.4-24.44-93-.55-172.92-.05-345.83-.45-518.75-.05-22.55,1.64-44.8,8.44-66,11-34.48,31.85-61.95,68.41-72,46.94-12.91,79.52,15.85,99.14,54.94,12.13,24.14,12.67,50,12.22,76.2-.44,22.15,2.79,25,24.15,25,13,0,26,0,39,.24,10.48.25,16.64-3.72,16.64-15,0-43.07,2.68-86.18-17.39-126.91-19.62-39.79-44-73.82-87-91.2-35.82-14.46-70.64-19.77-109.63-8.65-38.7,11-69.1,29.91-93.69,61-31,39.24-39.84,84.69-39.94,132.83-.24,95.42-.1,190.89-.1,286.32s-.49,190.89.25,286.32c.3,39.49,6.51,77.93,27.57,113,26.18,43.42,64.18,68.25,113.31,78.39,47.19,9.68,91.89,4.77,130.54-24.69,53.75-41,76.94-97.46,76-164.37C2831.15,2051,2841.63,2058.81,2780,2058.36Zm39.34,28.62c-3.47,39.73-2.18,80.17-21.51,117.42-19.91,38.5-47.58,65-90.15,79.13-66.67,22.16-152.05-11.77-184.44-67.2-20.27-34.68-26-73.87-26.18-112.76-1-187.77-1.34-375.54.15-563.3.4-45.7,8.54-91.35,37.45-129.85,27.32-36.31,64.18-55.73,109-58.27,22.55-1.29,44.85-.79,67.65,6.41,47.69,15.1,74.27,49.18,92.64,92.1,13.12,30.65,13.27,63.88,15.55,96.46,1.39,20-4.07,24.24-25.48,24.44-24.84.2-26.23-1.29-26.68-23.84-1-49.18-15.44-92.84-58-121.4-46.25-31-115.1-9-137.85,42.62-11.22,25.48-17.88,51.61-17.48,80.32,1.24,91.1.44,182.2.44,273.3h-.1c0,95.43-1.59,190.9.65,286.32,1.19,49.87,20.22,94.63,70.59,114,43.26,16.69,86.63,7.35,114.89-39.64a171,171,0,0,0,24.94-92.34c-.3-15,4.67-22.4,21.06-18.78,5.21,1.15,11-.4,16.59-.69C2814.16,2070.78,2820.27,2077.14,2819.37,2087Z"/><path class="cls-1" d="M2852.41,816.08c-2-37.31-8.6-73.37-25.29-107.3-20.31-41.18-54.59-67.46-92.74-90.16-19.57-11.62-19.82-15.25.1-23.89,64.33-28,76.6-87.72,88.37-146.24,5.12-25.63.1-53.1,1.14-79.72,1.54-40.14-11.22-76.55-28.36-111.52-19.77-40.39-52.26-68.05-96.76-76.25-53.85-9.89-108.74-4.52-163.18-5-22.36-.25-26.23,4.17-26.23,25.53q.08,222.12.05,444.14v444.08c0,23.29,3.82,27.32,26.67,27.32,51.42.1,102.88,0,154.34.15,19.47,0,37.5-6.41,54.84-13.36,46.69-18.83,70.39-58.87,87.33-102.78C2855.68,941.45,2855.78,878.81,2852.41,816.08ZM2841.23,900c-4.47,65.66-24.54,127-71.88,175.59-20.51,21.06-47.93,31.3-77.09,32.09-50.17,1.34-100.44.55-150.66.4-19.67-.1-25-5.81-25-25.68q-.08-217.43-.05-434.9.08-216.52.05-433c0-24.24,3.38-27.72,28-27.82,33.53-.15,67.06,1.29,100.44-.3,84.15-4.07,139.43,49.38,156.32,122q21.24,91.58-2.18,183.45c-11.68,46.09-38,77.34-80.57,97.21-33.44,15.6-33.14,17-3.13,36.26,11.92,7.65,25,13.56,37.05,21,45.95,28.51,67.16,72.18,80.72,123C2844.91,813,2844.16,856.66,2841.23,900Z"/><path class="cls-1" d="M4191.56,200.82c.14-23-1.49-24.94-25.49-24.94q-104.23-.15-208.38,0c-28.91,0-32.88,4.08-32.88,33.53V648.08q.08,209.07,0,418.25c-.15,62.79-1,51.76,53.1,52.51,20.47.25,24.39-4.37,24.39-25.34q-.08-210,.05-420.09c0-22.9,6.75-30.15,30-29.55,30.25.69,60.65-3.28,90.85,2.73,10.69,2.09,16.79-1.79,14.21-14.41a113.42,113.42,0,0,1-.3-46.09c3.48-16.59-3.27-21.41-18.28-21.26-31,.25-62,0-93-.05-14.51,0-22-4.67-21.86-21.81q1.26-128.31.1-256.51c-.15-18.23,6.7-23.55,24-23.3,48.38.79,96.76-.1,145.1.45,13.56.15,19.37-4.27,18.62-18.18C4191,230.62,4191.46,215.72,4191.56,200.82ZM4140.94,252c-40.93.3-81.86.55-122.74-.2-17.09-.34-24.29,4.47-24.1,23.15.85,92.3.4,184.59.4,276.88.05,21.31,3.48,24.79,24.84,24.84,30.35.1,60.75.3,91.15-.1,13.31-.2,19,5,18.73,18.73-.95,50.47,5.41,44.8-44.56,45-21.71.1-43.47.75-65.07-.3-16.79-.79-22.8,4.77-22.7,22.31.59,138.14.39,276.28.39,414.42,0,29-22.2,44.51-48.73,33.24-10.93-4.62-10.13-15.75-10.13-25.74V212.59c0-26,0-26,25.73-26q96.72,0,193.43,0c23.64,0,24.79,1,24.69,23.6C4182.07,258.94,4186.84,251.59,4140.94,252Z"/><path class="cls-1" d="M3562.24,1491.14c-5.86-48.18-28-86.53-64.57-116.43-14.26-11.68-30.6-21-51.71-21.81-67.61-2.58-135.17-.4-202.72-1.24-23.85-.3-26.88,3-26.88,26.52v886.58c0,22.45,3.28,25.68,25.93,25.68,60.8,0,121.65-1.89,182.31.54,57.67,2.24,91.3-29.1,114.54-75.3,25.83-51.41,34.08-108.14,33.28-164.37C3569.74,1864.59,3584.84,1677.52,3562.24,1491.14ZM3557.77,2121c-4,38.6-16.49,77.05-38.4,110.58-22.6,34.62-57.22,48.18-96.66,49-55.83,1.2-111.67.35-167.5.3-22.65,0-25.14-2.58-25.14-26q-.08-216.6,0-433.2V1390.25c0-27.42,1.84-29.25,29.76-29.25,54.59,0,109.18-.2,163.77,0,37.41.14,67.21,13.71,89.91,45.3,19.47,27.07,32.94,54.54,39.09,88.07,9.34,50.91,13,101.93,13.47,153.14,1.09,115.3-.3,230.59.69,345.88C3567.11,2036.26,3562.19,2078.73,3557.77,2121Z"/><path class="cls-1" d="M3015,178.27c-16.84-.05-22.6,5.76-22.55,22.9.54,148.62.29,297.29.29,446h.1V1082c0,35.07,0,35.07,35.17,35.07,36.86,0,36.86,0,36.86-36.71V227.4C3064.86,178.07,3064.86,178.57,3015,178.27Zm42.07,31.84v871.67c0,25.93-19.22,38.6-43.46,28.22-9.09-3.93-13.81-10.64-13.46-21.81.84-28.46.34-57,.34-85.49q0-394,.1-788c0-8.74-3.67-19.62,7.65-24.64,13.56-6.06,28.27-5.41,41.68-1.29C3058.55,191.43,3057.06,202.11,3057.06,210.11Z"/><path class="cls-1" d="M3058.75,1374.46c.25-16.4-4.92-24.44-22.45-23.15a211.55,211.55,0,0,1-37.16,0c-17-1.74-21.95,7.55-22.85,21.71-.3,4.91-.1,9.88-.1,14.85q0,435.06,0,870.08c0,4.37-.2,8.69.1,13,.85,13.21,6.86,20.46,21.26,19.62,11.72-.7,23.55-.15,35.37-.15,23.2,0,25.58-2.34,25.58-25.43q.08-222.2,0-444.33V1517.62C3058.5,1469.93,3058.1,1422.19,3058.75,1374.46Zm-20.42,901.67a65.67,65.67,0,0,1-41.87-.45c-4.17-1.49-5-6.8-5.12-11.27-.15-5-.15-9.94-.15-14.9V1392.74c0-26.73,24-40.64,48.29-28,9.19,4.77,7.25,13.51,7.25,21.31q.15,118,.05,236v198.84q0,215.64-.1,431.17C3046.68,2260.93,3050.26,2272.46,3038.33,2276.13Z"/><path class="cls-1" d="M4407.09,648.08H4407V478.89q0-138.51.1-277c0-11.52,1-25.08-14.55-24.88-20.12.24-42.28-9.59-59.81,8.14-2.44,2.49-2.63,8.5-1.89,12.47,3,16.74-.3,33.38-.3,50q.22,401.61.15,803.22c0,7.45-1.29,15.45,1.05,22.16,4.86,14.3-10.49,33,7.1,43.07,13.61,7.74,30.45,1.49,45.8,2.88,16.94,1.59,22.75-5.77,22.7-22.75C4406.89,946.82,4407.09,797.45,4407.09,648.08Zm-10.23-2.58q0,215.7-.15,431.41c0,8.74,4.17,21.41-7.06,24.64-13.36,3.78-28.41,4.62-41.87-1.39-7.65-3.38-5.22-11.87-5.22-18.43q-.15-117.13-.05-234.31,0-317,.05-634.08c0-8.2-3.22-19,8-22.36,13.71-4.12,28.66-5.36,41.73.7,7.84,3.63,4.47,14.6,4.47,22.45Q4396.91,429.77,4396.86,645.5Z"/><path class="cls-1" d="M5252.19,1700.56H5252c0-70.58-.25-141.17.2-211.75.1-17-3.48-32.24-10-48.19-12.07-29.55-35.51-45.1-63.63-46.54-26.38-1.34-51.66,11.42-67,36-12.67,20.42-16.54,43.17-16.54,67.11.3,130.69.1,261.33.15,392,0,21,.15,41.63,7.8,62.1,13.71,36.76,48.38,58.11,82.26,53.59,41.18-5.51,65.37-44.9,66.26-81.41C5253.48,1849.24,5252.19,1774.88,5252.19,1700.56Zm-27.87,262.18c-30.9,47.89-74.06,36.81-101.28,0-13.62-18.33-20.32-40.43-20.27-63.93q.15-100.36,0-200.73c0-63.18.64-126.37-.35-189.55-.45-26.53,7.95-49.08,21.71-70.84,12.52-19.82,30.15-33.43,53.15-31.09,23.54,2.33,40.53,18,52.65,39.09,13.22,22.85,16.1,47,16,72.82q-.82,186.72.1,373.55C5246.23,1918.53,5238.18,1941.23,5224.32,1962.74Z"/><path class="cls-1" d="M5223.23,1374.61c-2.69-1-5.32-2-7.9-2.93A30,30,0,0,1,5223.23,1374.61Z"/><path class="cls-1" d="M5435.88,2230.78c-3.13-9.14-13.56-9.39-22.5-9.39q-315.41,0-630.91.1c-19.47,0-27.37,8.45-27,27,.45,20.62,3.38,23.25,26.13,23.25h314.53q159.09.07,318.21,0c7.25,0,16.79,2.73,20.62-4.82C5440.7,2255.67,5439.85,2242.3,5435.88,2230.78Zm-15.25,27.67c-6.71,4.27-14.21,3.67-21.66,3.67q-302.36,0-604.82,0c-5,0-10,.1-14.76-1-7.45-1.89-11.42-7.25-11.37-15,.1-8.84,6-11.52,13.56-11.92,5-.25,9.93-.2,14.9-.2H5098q150.73,0,301.52.05a154.69,154.69,0,0,1,16.69.45c6,.59,10.78,3.28,11.57,10C5428.48,2250.55,5425.85,2255.12,5420.63,2258.45Z"/><path class="cls-1" d="M179.86,1204.35c.21-5.69.42-11.37.62-17,10.15-38.12,10-77.75,16.83-116.51a979,979,0,0,1,80.95-253.48Q380.35,604,567,457.44c132-103.48,280.59-171,445.49-199.06,152-25.83,303.25-20.21,452.78,22.87,87.5,25.21,170.48,59.79,247.72,107q258.38,158,389.59,431.74c29.1,61,51,124.67,67.6,189.93,13.89,54.57,21.44,110.47,25.66,166.72,8,106.47-1.37,211.67-26.82,315.06-14.74,59.89-35.52,118-61.32,174.43Q2039.23,1816.06,1927,1936q-172,182.83-410.16,264.77c-78.38,26.81-158.8,44.31-240.92,50.64-69.69,5.36-139.76,5.21-209.74-4.38-87.49-12-172-32.88-254.22-65.54-110.5-43.9-209.35-105.89-297.27-185.06-116.28-104.71-204-229.62-261.73-375.55-32.5-82.16-54.85-166.46-63.69-254.39-2-19.36-5.84-38.52-8.84-57.77-.17-4.49-.35-9-.52-13.41A621.71,621.71,0,0,0,179.86,1204.35Zm263.55-114.63c-20.53-1.76-22.89,8.8-21.71,22.1,1,11.08-1.13,23.51,3.23,33,10.64,23.16,7.63,46.45,6.93,70.36-.49,17-3.46,32-14.81,44.51-25.84,28.58-34.94,67.06-58.12,97.32-5.77,7.54-7.16,18.36-10.94,27.51-2.05,5-3.22,9.42,1.48,13.41,4.21,3.58,7.93.94,11.93-.76,29-12.35,59.44-18.59,90.72-15.52,29.35,2.88,52.27-7.54,74.83-25,32.7-25.33,66-50,106-64.07,17.79-6.25,33-5.18,46.92,6.39,18.07,15,35.45,30.92,52.68,46.92,7.44,6.91,4.76,12.07-3.7,17.16-24.41,14.71-24.52,15.49-1.58,32.92,30.69,23.33,52,52.48,59.91,90.67,3,14.35,9.18,16.47,22.13,8.25,36.27-23,70.36-48.5,99.42-80.23,9.7-10.59,19.38-14,34.42-10.42,48.13,11.59,96.7,21.41,145.2,31.4,23,4.75,29,13.18,23.72,36.56-1.85,8.26-7.29,16.08-3,25.12,3.83,8.1,1.08,15-2.46,22.82-6.89,15.23-8.34,34.31,1.69,45.71,10.33,11.73,27.89,3.31,41.84-2,2.83-1.07,5.25-3.24,7.84-4.93a509.74,509.74,0,0,0,102.64-88c11-12.31,22.4-17.41,38.68-16.56,56.42,2.95,112.82,2.24,169.1-3.41,12.31-1.24,24.71-3.06,37-2.74,19.66.51,24.21,6,23.23,25.66-.31,6.19,1.27,10.94,6.12,14.59,4.54,3.42,8.28,7.07,9.4,13.18,2.55,13.86,9.79,24.2,24.44,26.9,16.66,3.07,27.56-6.71,35-19.39,12.25-20.76,24.21-41.88,33.91-63.9,6.81-15.46,18.14-22.42,32.81-27.11,31.32-10,62.39-20.64,89-40.87a28.72,28.72,0,0,1,13.42-5.89c57-8.5,109.91-28.26,159.39-57.37,38.62-22.73,69.91-53,91.48-92.53,3.33-6.13,9.62-13.19,3.59-20.43-5.07-6.08-12.57-2.37-19.27-1.78-19.13,1.7-38.3,3.1-57.49,4.08-7.35.38-16-.79-7.74-11,16.37-20.14,28.81-43.49,48.92-60.55,6.5-5.51,12.22-11.09,9.14-20.36-3.26-9.85-8.82-18.76-20.17-19.44-28.47-1.7-56.13-9.86-84.93-9.28-21.66.44-43.51.15-65-2.12-121.45-12.81-242.69-27.84-365.1-28.38a114.85,114.85,0,0,1-55.22-14.16c-41.31-22.69-77.21-53.45-116.36-79.41-29.31-19.45-34.52-17.29-59.53,7.47-19.77,19.57-24.18,48.54-45.89,66.36-13.8,11.33-28.2,23-38.52,37.26-19.32,26.67-44.87,42.27-75.82,49.88-42.69,10.49-86.14,18.19-128.34,30.3-75,21.51-151.09,26.73-228.28,21.3-28.14-2-56.21-7.6-76.63-28.72-30.92-32-64.43-61.58-89.42-99.09-25.49-38.27-57.46-71.2-89.8-103.69-7.42-7.45-16.25-12.08-26.78-8.2-10.14,3.73-12.18,13.38-13.45,22.75-1.51,11.2-.89,22.35,3.55,32.89,2.71,6.47,4.48,12.76,2.27,19.76C418.23,1035.87,415.39,1063.89,443.41,1089.72Z"/><path class="cls-1" d="M4247.61,1615.76c0-46.47.54-93-.29-139.41-.29-16.29,5.11-22,21.45-20.94a443.6,443.6,0,0,0,57.65.12c59.73-3.83,78,30.43,86.66,74.31,11.2,57,8.8,114.87.14,172.12-6.85,45.29-31.51,67-80.9,71.94-23.36,2.36-47.08,1-70.62,1.74-14,.42-14-8.62-14-18.6.13-47.09.06-94.18.06-141.28Zm122.63,126c12.78-3.24,15.8-14.38,19.37-24.66,13.31-38.38,9.91-78.42,10.24-117.89.25-30.27-.18-60.82-11.89-89.75-10.14-25-24.12-35.07-50.7-35.28-11.17-.09-22.33,0-33.5,0-41.21,0-41.23,0-38.09,41.29.13,1.71,1.34,3.34,2,5-.51,1.78-1.46,3.55-1.47,5.33q-.45,108.6-.74,217.21c0,10.31,6.06,14.3,15.5,14.13,15.48-.29,31.06.12,46.4-1.53C4342.41,1753.94,4359,1755.54,4370.24,1741.74Z"/><path class="cls-1" d="M2608,840.61c0-50.13.49-100.26-.3-150.37-.23-14.54,4.27-18.76,18.87-19.64,84.52-5,119.3,42.94,130.9,113.36,7.17,43.54,10.11,87.29-.06,131-5.69,24.42-15.94,46.53-32,66-20.32,24.59-47.09,31.65-77.82,31.12-46.49-.81-39.23,3.75-39.44-39.58-.21-43.93-.05-87.87-.05-131.8Zm103.75,125.07c17.71-14,22.35-34.74,27.55-54.76,11.45-44.07,6.39-88.51-1-132.34-9.08-53.6-35.06-80.9-80.33-89.12-27.58-5-31-2.18-31,26.26,0,7.93.72,15.86,1.1,23.79-3.44,80.34-.57,160.72-1.44,241.08-.07,6.71,2.7,11.56,10.12,13.48C2663,1000.83,2696.86,988.2,2711.79,965.68Z"/><path class="cls-1" d="M2757.33,309.7c-17.93-34-42.87-56.62-85-53.74-24,1.64-48.53,2.48-72.38-.35-18.72-2.19-20.56,4.67-20.31,20,.79,44.56.3,89.16.3,133.72,0,46.44.1,92.89-.1,139.33,0,10.93,1,19.92,15.1,20.37,40.33,1.29,80-1.19,117.87-17,29-12.12,45.11-35.07,55-63.58,10.83-31.1,7.2-63.38,8.2-95.37C2777,363.45,2771,335.68,2757.33,309.7Zm3,109.93c-1.39,20.32,2.09,40.88-3.58,61-15.69,55.69-51.61,68.35-99.14,73.82-15.9,1.83-32.19.39-48.29,1.29-14.7.84-20-5.57-19.47-19.82.7-21,.2-42.13.2-63.19V409.55c0-41.48.7-83-.35-124.48-.44-17.39,5.76-23,22.65-21.91a486,486,0,0,0,57.63.15c36.21-2,68.74,27.22,79.57,56C2761.75,351.93,2762.7,385.65,2760.31,419.63Z"/><path class="cls-1" d="M2759.62,700.54c-10.73-21.76-32.94-38.95-56.38-47.19-9.14-5-27.27-11.33-61.75-12.77-2.73-.1-5.56-.2-8.54-.25h-26.53c-12,0-18.63.2-22.15,2.88-.05,0-.05,0-.05,0a7,7,0,0,0-1.24,1.19.15.15,0,0,0-.05.1c-2.79,3.53-2.93,9.89-2.93,21.46q0,68.78.05,137.55-.08,108.71,0,217.42c0,8.4-2.29,19.82,10.13,20.37l77.89.29s41.38-2.38,61.89-22.9l.1-.1c15.8-11,29-24.83,37.25-43.16C2809.39,882.89,2804,790.59,2759.62,700.54Zm-48.53,317.36c-.65.4-1.3.79-2,1.14-1.64.85-2.68,1.34-2.68,1.34s-.4.2-1.3.55a6.32,6.32,0,0,0-.64.25c-7.4,2.68-37.46,11.57-111.37,11.57-2.93-3.82-3.08-10.68-3.08-23.24q-.08-145,0-290c0-17.34.25-34.67-.05-52-.15-7.6.94-13.76,4-18h.05s73.12-3.73,117.73,20.66a.38.38,0,0,0,.2.1c22.6,13.81,39.34,33.48,49.72,60.9,9,23.75,12.42,48,17.64,72.43,10.13,47.68,5,93-10.24,137.84C2758.37,973,2740.24,999.37,2711.09,1017.9Z"/><path class="cls-1" d="M2641.49,640.33v.25c-2.73-.1-5.56-.2-8.54-.25Z"/><path class="cls-1" d="M2668.07,1041.64c-26,0-52,.8-77.89-.29Z"/><path class="cls-1" d="M3316.32,1818.76q0-169,0-338.06c0-25,0-25,24.22-25,18.59,0,37.18-.08,55.77.08,42,.36,68.73,21.6,77.51,62.61,5.31,24.8,9,49.79,9,75.42-.33,151.08-.13,302.15-.16,453.23,0,32.35-3.33,64.13-15.89,94.46-12,28.89-33.33,43.58-64.51,43.9-21.69.22-43.43-.85-65.05.43-16.86,1-21.06-5.88-21-21.56.51-106.5.29-213,.3-319.49q0-13,0-26Zm113.22,340c11.28-1.23,14-11.2,17.78-18.93,14.47-29.6,17.42-61.74,17.49-94q.54-224.52.12-449c0-18.56-2.21-36.88-5.5-55.25-11.58-64.64-32.86-70.57-82.71-68.2-46.45,2.22-42-9.67-41.83,44.7,0,1.07,1.08,2.14,1.66,3.2-.73,6.1-2.08,12.19-2.08,18.28q-.09,295.08.06,590.17c0,8-.32,16.09-.06,24.12.19,5.75,1.9,13,8.17,12.82C3371.73,2165.78,3401.94,2175.78,3429.54,2158.72Z"/><path class="cls-1" d="M3439.7,1431.93a74.58,74.58,0,0,0-11.28-3.18C3431.8,1429.4,3436.52,1430.19,3439.7,1431.93Z"/><path class="cls-1" d="M3435,1440.18c.89.54,1.84,1.19,2.88,1.88A16.16,16.16,0,0,1,3435,1440.18Z"/><path class="cls-1" d="M3469.8,1452.1c-1.59-1.69-3.28-3.38-5-4.92A18.69,18.69,0,0,1,3469.8,1452.1Z"/><path class="cls-1" d="M5124,1699.72q0-102.23-.07-204.43c0-18.64,5-35.43,16.79-49.9,23-28.11,56.65-24.82,74.15,7,8,14.5,11.17,30,11.17,46.43q0,200.72,0,401.43c0,15-2.33,29.49-9.26,43.17-8.59,16.94-20.12,30.65-40.46,30.55-21.56-.12-35.17-13.8-43.91-32.15-6.17-12.94-8.63-26.8-8.54-41.43C5124.17,1833.53,5124,1766.62,5124,1699.72Zm19.57-209.59c-.76,3.57-2.17,7.14-2.17,10.71q0,200.33,0,400.65a69.91,69.91,0,0,0,10.24,37c5.7,9.28,12.55,21,27.67,14.84,9.78,1.22,13.9-5.54,18.25-12.48,9-14.3,10.32-30.23,10.33-46.4q.09-194.82,0-389.64a146.74,146.74,0,0,0-1.84-22.14c-3.3-21.6-15.75-37.82-29.06-38.48-13.73-.68-27.69,13.78-33.34,35.09C5142.67,1482.69,5143.49,1486.51,5143.52,1490.13Z"/><path class="cls-1" d="M4370.24,1741.74c.4-17.88.89-35.69,2.43-53.57,3.46-40.2-.12-80.1-11.85-118.88-9-29.89-29.09-51.63-69-48.29-7.95.66-16-.35-24.07-.58-.7-1.66-1.91-3.29-2-5-3.14-41.32-3.12-41.32,38.09-41.29,11.17,0,22.33-.06,33.5,0,26.58.21,40.56,10.25,50.7,35.28,11.71,28.93,12.14,59.48,11.89,89.75-.33,39.47,3.07,79.51-10.24,117.89C4386,1727.36,4383,1738.5,4370.24,1741.74Z"/><path class="cls-1" d="M2711.79,965.68c.57-23.92,2.11-47.86,1.46-71.74-.92-34-4.07-68.08-19.3-99.15-13.57-27.68-31.33-51.84-65.86-55.27-.38-7.94-1.09-15.87-1.1-23.8,0-28.44,3.4-31.27,31-26.26,45.27,8.22,71.25,35.52,80.33,89.12,7.43,43.83,12.49,88.27,1,132.34C2734.14,930.94,2729.5,951.72,2711.79,965.68Z"/><path class="cls-1" d="M3429.54,2158.72c4.87-42.37,6.11-84.88,6-127.53-.43-122.56.27-245.12-.47-367.67-.18-31.4-2.64-63-12.39-93.3-10-31.21-33.45-53.31-73.11-49.13-4.29.45-8.66.13-13,.16-.58-1.06-1.66-2.13-1.66-3.2-.22-54.37-4.62-42.48,41.83-44.7,49.85-2.37,71.13,3.56,82.71,68.2,3.29,18.37,5.49,36.69,5.5,55.25q.14,224.52-.12,449c-.07,32.22-3,64.36-17.49,94C3443.54,2147.52,3440.82,2157.49,3429.54,2158.72Z"/><path class="cls-1" d="M5179.27,1953.37c-.18-131-.55-262.09-.37-393.13,0-20.36-2.8-39.15-14.89-56.15-5.3-7.45-11.16-13-20.5-14,0-3.62-.84-7.44.06-10.81,5.65-21.31,19.61-35.77,33.34-35.09,13.31.66,25.76,16.88,29.06,38.48a146.74,146.74,0,0,1,1.84,22.14q.16,194.82,0,389.64c0,16.17-1.37,32.1-10.33,46.4C5193.17,1947.83,5189.05,1954.59,5179.27,1953.37Z"/><path class="cls-1" d="M2608,408.6c0-35.88.43-71.77-.21-107.65-.24-13.41,4-19.65,18-18.53a193.19,193.19,0,0,0,27.85.05c49.57-3.19,77.81,22.78,86.46,76.53,5.54,34.49,4.79,69,.11,103.55-4.55,33.59-20.93,57.27-54.86,67.08-21.8,6.31-44.11,5.58-66.33,5.92-12,.18-10.88-9.38-10.88-17.44q0-54.75,0-109.51Zm84.47,96.9c10.57.53,14.41-8.2,19.34-14.77a38.06,38.06,0,0,0,6.87-15.07c9.43-49,13.11-98.17-6.48-145.58-10.77-26.06-42-38.3-74.81-28.05-21.56,6.73-6,28-10.42,42-.8,2.55.87,5.88,1.4,8.85-4,51.3-.76,102.68-1.69,154-.13,6.75,4.1,10.45,10.57,10.29C2656.35,516.76,2675.93,518.16,2692.47,505.5Z"/><path class="cls-1" d="M2628.37,352.92c-.53-3-2.2-6.3-1.4-8.85,4.37-14-11.14-35.31,10.42-42,32.83-10.25,64,2,74.81,28.05,19.59,47.41,15.91,96.57,6.48,145.58a38.06,38.06,0,0,1-6.87,15.07c-4.93,6.57-8.77,15.3-19.35,14.78-.24-25.82,1.09-51.76-1.07-77.42C2688.05,388.33,2667.76,352.07,2628.37,352.92Z"/><path class="cls-1" d="M2584.22,643.26a7,7,0,0,0-1.24,1.19C2583,644.06,2583.37,643.61,2584.22,643.26Z"/><path class="cls-1" d="M2633,640.33h-14.8c2.53-.05,5.26-.05,8.19-.05C2628.63,640.28,2630.81,640.28,2633,640.33Z"/><path class="cls-1" d="M3500.45,706.4h-.55a2.43,2.43,0,0,1-.05-.6Z"/><path class="cls-1" d="M4832.49,725.77c-53.69-81.46-108.73-162-161.29-244.2-35.06-54.84-48.68-114.64-23-177.63,11.22-27.52,32.38-46.64,63.13-51.56,32.79-5.21,58.17,7.5,76.55,34.57,18.63,27.37,26.37,58.12,25.88,90.86-.2,17.13,6.11,25.58,24.09,24.39,11.72-.75,23.54-.25,35.32-.05,11.47.19,17.58-5.47,17.93-16.64,1.79-54.79-4.72-107.7-35.86-154.89-43.62-66.06-132.58-76.84-196-52.3-4.91,1.89-10.08,3.72-15.05,5.91-5.66.64-70.83,43.11-84,122.34,0,.05-.05.1-.05.15C4548.81,341.15,4557.7,416,4557.7,416s.2,1,.6,2.89c2.43,11.72,13,57.82,37.75,110.32,0,.15.1.25.15.4,5.36,11.47,11.47,23.25,18.28,35,6.41,11.13,13.51,22.25,21.31,33.13a5.09,5.09,0,0,0,.39.6c24.79,39.49,54.6,75.35,82,113,38.1,52.26,80.52,102.13,92.09,168.65,7.35,42.12,7.7,83.65-15.1,122.24-23.79,40.39-74,55.44-110.33,31.5-28.46-18.78-44.45-46.35-47-80.28-1.79-24-.79-48.33-1.09-72.47-.15-14.16-6.06-22-21.51-21.16-13.61.69-27.32.45-40.93-.05s-19.62,6.46-19.72,19c-.55,49.23.05,97.56,16.69,145.75,31.69,91.69,122.94,124.23,204.51,100.59,66.51-19.28,116.38-88.87,121.85-157.82C4904.67,878.81,4880.73,799,4832.49,725.77Zm47.94,250.6c-2.09,35.32-15.4,69.89-41.28,95.28-44,43.06-95.62,58.17-157.86,42.62-53.65-13.42-82.21-47.29-99.5-96.07-15.4-43.52-7.7-88.37-9.44-132.73-.19-4.42.6-10,4.77-11.37a61.16,61.16,0,0,1,36.56-.6c10.48,3,8.55,13.86,8.5,22.35-.4,34.18,2.53,68.1,15.2,100,12,30.44,34.67,52.7,67.16,58.11,37.9,6.36,72.12-2.28,94.92-38.24,29.56-46.65,29.71-95.92,18.08-147.54-9.63-43-29.45-80.27-54.74-116-36-50.82-75-99.3-111.61-149.62-5.17-7.1-9-15.45-14.76-22.65a.62.62,0,0,0-.1-.15,0,0,0,0,0-.05-.05s-.1-.1-.14-.2a2.73,2.73,0,0,0-.35-.5c-1.59-2.28-6.71-9.68-13.51-21.45C4603,524.1,4570.17,455.4,4564.8,368c0,0,0-82.56,27.72-120.8,2.29-3.18,4.57-6.36,6.91-9.54.59-.85,1.19-1.64,1.78-2.44,17.59-23.89,14.51-17.13,39.25-37.25h.05c21.85-11.33,44.4-20.52,70.58-20.91,36.41-.6,70.79,2.08,101.24,25.68,51.31,39.79,69,94.23,71,156,.94,28.71-2.33,31.69-31.34,31.94a74,74,0,0,0-7.45,0c-15.06,1.54-22.16-4.62-20.72-20.22,2.48-28-7-53.39-18-78.18-15-33.68-59.16-60-91.2-55.49-37.11,5.27-76.85,41.78-85.14,79.13-12.52,56.48-6.06,111.62,24.34,160.4,56.18,90.11,115.84,178,173.76,267C4847.4,773.8,4863,806,4873,841.71,4885.6,886.51,4883.11,931.62,4880.43,976.37Z"/><path class="cls-1" d="M4965.72,1895.73c-.35-9.58-2.83-16.19-13.26-15.84-9.19.34-16.69,3-16.84,15.1-.2,15.44-2.29,31-7.65,45.6-9.69,26.22-26.53,47.09-55,52.9-26.33,5.41-47.34-8-63-27.82-14.65-18.58-19.27-41.18-19.27-64.57q0-198.94-.05-397.89a130.85,130.85,0,0,1,7.1-43.81c17.29-48.68,68.2-65.67,105.11-35,12.62,10.48,20.77,24.29,25.58,40,4.33,14.4,4.92,29.2,5.57,44.11.44,11.17,9.09,14.45,18.13,14.6,9.88.15,13.86-6.36,13.56-16-.4-12.37.84-24.94-.6-37.16-4.67-39.84-20.06-78.88-62-96.12v0c-1.09-.44-2.19-.89-3.28-1.29-53.5-20.66-85.49,2.33-88.22,4.42a1.48,1.48,0,0,0-.2.15c-38.59,23.3-52.6,61-52.95,102.43q-2.09,222.18-.05,444.38c.6,57.47,35.27,126.32,115.94,114.89,25.13-3.57,47-13,62.74-34.27C4961.15,1971.93,4967.26,1935,4965.72,1895.73Zm-22,74.21c-19.47,44.26-57.32,68.85-95.57,59.36-55-13.61-77.74-51.61-78.93-103.12-3.38-146.78-.84-293.72-1.54-440.6-.1-22,7.7-40.74,15.5-60,7.15-17.68,19.42-30.55,35.37-40.93,37.65-21.21,83-2,87.07-.15.1,0,.15.1.2.1a.15.15,0,0,0,.1,0c34.23,21.26,54.59,76.1,49.77,114.8-.54,4.52-1.49,9.53-7,9.09-7-.55-4-6.46-3.63-10.19,2.88-29.75-10.18-53.69-27.76-75.9-21-26.47-58.77-32.24-90.21-14.7-32.88,18.23-46.94,49.27-47.24,84.64-1,138.19-.35,276.39-.5,414.63,0,23.19,7.35,44.11,20.37,62.54,35.47,50.22,104,46.94,130.69-9.59,7.9-16.69,14.95-33.48,12.57-52.7-.65-5.42-.5-13.27,6.55-13.12,7.8.15,4.87,8.4,5.42,13.46C4957.57,1929.51,4952.56,1949.78,4943.71,1969.94Z"/><polygon class="cls-1" points="4724.09 1434.37 4727.43 1427.76 4737.57 1422.47 4733.35 1435.07 4724.09 1434.37"/><path class="cls-1" d="M5278.21,1477.63c-.29-36.66-15.64-69.44-43.66-94.68a55.51,55.51,0,0,0-11.27-8.29l-.05-.05c-2.69-1-5.32-2-7.9-2.93-56.48-19.53-91.55,5.26-91.55,5.26-7.55,3.53-14.95,10.09-23.35,20a127,127,0,0,0-13,17.58c-.25.4-.45.75-.7,1.1-16.44,26.52-14.05,42.32-14.05,42.32v459.28c0,48.78,16.88,77.44,16.88,77.44s2.84,4.77,12.13,13.91l0,.1c1.69,1.64,3.58,3.48,5.72,5.41.35.3.69.65,1.09,1a33,33,0,0,0,3.58,2.83.69.69,0,0,0,.2.15c25,18.68,63.13,27.17,90.55,18.38,48.63-15.55,74.86-68.25,75.3-114.65Q5280.31,1699.72,5278.21,1477.63Zm-10.38,430.27c-.1,27.82-7.8,53.55-22.1,78.54-30.7,53.64-108.49,59.31-143.16.59a32.38,32.38,0,0,1-1.79-3.92c-.84-2.29-1.84-4.67-3.38-5.91-17.68-32.44-13.36-59.56-13.36-59.56V1457.91a1.18,1.18,0,0,1,.1-.4,108.44,108.44,0,0,1,5.27-19.52c7.89-21.16,21.45-36.91,38.69-49.92,51.26-24.49,80.57-8.5,84.6-6a1.48,1.48,0,0,1,.34.25.92.92,0,0,1,.15.09c42,35.47,54.59,61.75,54.74,111.08Q5268.53,1700.69,5267.83,1907.9Z"/><path class="cls-1" d="M4521.84,2272.21l-.15-.45-26.58-82.31-2.38-7.65c-7.11-22.15-15.25-43.91-22.36-66-10.18-31.65-17.73-64.33-30.3-95-16.84-41-27.27-84.1-43.06-125.43-3.58-9.28-.1-17.08,8.39-22.2,52.61-31.49,76.6-83.4,91.65-138.34a453,453,0,0,0,14.16-157.47c-4.52-53.79-12.92-106-40.14-153.79-21.81-38.24-53.4-66.86-96.62-69.94-66-4.77-132.52-1.83-198.84-2-23.84,0-24.79,1.09-24.79,25.38q0,431.27.05,862.53c0,59.81-5.31,50.22,49.83,50.87,25.83.3,27.17-1.29,27.17-27.32-.05-117.13.35-234.21-.35-351.34-.1-16.74,6.26-22.06,21.41-21.81,18.58.3,37.2-.1,55.78.3,10.43.25,17.74,3.18,21.31,15.79,7,25,16.15,49.48,25.29,75.61l.15.39,8.74,29.21v.1l1.74,5.86,2.93,9.69c9.68,32,18.33,64.33,30.55,95.77,16.74,43.12,26.62,88.82,40.78,133,11.28,35.12,12.17,34.87,49.23,34.82,7.45,0,14.9.2,22.35-.05C4521.49,2289.89,4526.21,2283.93,4521.84,2272.21Zm-15.2,8.89c-16.3,12.07-48.88-1.19-54.94-21.21-10-32.69-21.21-65-31.74-97.51-11.58-35.72-22.71-71.58-34.58-107.2-3.77-11.42-7.9-22.8-12.27-34.52l.05-.05-19.57-59.76-1.34-4.12c-6.95-21.31-14.11-42.57-20.71-63.93-3.43-11.08-10.73-14.11-21-14.06-18.57.2-37.2.15-55.83.15-34,0-34,0-33.93,33.13v338.33c0,3.73.3,7.5-.14,11.18-2.19,16.49-14.26,21.9-40.59,21.95-17.93.05-16.24-11.67-16.24-22.55q-.15-438.72-.3-877.43c0-14.71,4-21,20-20.77,55.19.85,110.37,0,165.56.45,51.06.5,88.12,24.69,112.16,69.1,25.59,47.19,33.48,99.15,37,151.5a412.34,412.34,0,0,1-6.56,107c-6.45,32.88-13.56,65.07-27.66,95.37-15.5,33.23-39.15,59.51-69.25,80.42-7.05,4.87-18,9.34-13.91,21.36,12.62,37.16,26,74.07,38.55,111.22,14.55,42.92,28.46,86,42.87,129q12.29,36.66,24.79,73.32l.14.45,23.2,74.06A10.2,10.2,0,0,1,4506.64,2281.1Z"/><path class="cls-1" d="M4433.66,1487.12c-13.46-31.45-41.22-63.54-86-61.8-37.75,1.44-75.55.55-113.36,0-14.95-.25-19.91,8-20,20.62-.25,56.28-.15,112.56-.15,168.84.49,0,1.54,112.66,1.34,168.94-.05,13.76,3.52,23,19.62,22.75,37.15-.55,74.36.3,111.47-1.44,44.7-2.09,88.86-45.11,96.81-86.38,8.45-44.16,6.26-88.37,7.8-132.63C4452.39,1551.49,4447.13,1518.41,4433.66,1487.12Zm2.19,150.51c-2,28.81.5,57.72-8.54,86.43-10.24,32.64-36.36,61.4-81.86,66.21-31.6,3.33-63,2.89-94.53,4.08-18.14.69-23.7-6.46-23.4-24,.89-52.66.35-105.31.35-158,.05-52,.54-104.06-.3-156.07-.25-16.59,5.86-21.66,21.76-21.16,29.75.89,59.51.25,89.26.25,40,0,74.06,24.59,86,62.78C4438.88,1543.74,4439.23,1590.69,4435.85,1637.63Z"/><path class="cls-1" d="M4052.82,2183.64c0-7.4-1-13.61-8.89-16.39h-13.52l-7-.05h-.89l-168.1-.2c-11-3.28-8.24-12.52-8.24-20q-.3-113.4,0-226.71c0-5.46,1.29-11,2-16.44-4.62-41.58-4.62-41.28,36-41.63,27.66-.25,55.38-1.19,83.1-2.28,5.27-.2,10.43-2.59,15.65-3.93,2.68-49.67,1.54-99.44.54-149.22,0-10.38-7.75-6.8-7.75-6.8-37.1,0-74.21-.3-111.31-.15-9.49,0-18.23-.55-18.09-12.82.6-54.29-1.88-108.68,1.25-163-.55-1.09-1.59-2.13-1.54-3.22,2-55.19-7.55-47.19,46.79-46.9,31.1.15,62.44-3.92,93.34,2.74,9.28-.1,18.57-.7,27.81-.3,16.84.74,24.64-5.57,24.19-23.7-.94-38.94-1.24-77.93.15-116.83.65-18.87-6.65-23-23.84-23-99.65.6-199.29.3-299,.3-4.32,0-8.74-.25-13,.5-8.64,1.49-14.26,4.42-12.17,15.89,2.88,16.3.74,33-1.34,49.43,3.28,7.1,1.69,14.65,1.69,22q.07,448.93,0,897.8c0,30,.05,30.2,29.8,30.15q134-.29,267.89-.79c3.68,0,7.55-.45,9.79,3.53,11.17-5.57,23.15-3.68,34.77-3.08,13.91.69,20.32-3.58,20.07-18.73C4052.27,2267.79,4052.62,2225.71,4052.82,2183.64Zm-18,23.64c-1.2,28.47-.8,57-.2,85.49.25,12.57-3.93,17.84-17,17.79q-145.14-.6-290.24-.2c-17.64.1-17.74-10.14-17.74-23q.3-233.3.15-466.59h-.1c0-156.12.25-312.29-.34-468.42,0-16.69,5.71-21.51,21.4-21.41q134,.68,267.94,0c16.4-.1,21.76,5.47,21.12,21.71-1.15,27.87-.65,55.78-.1,83.65.29,14.26-5.12,19.87-19.67,19.67-50.87-.54-101.74.15-152.55-.54-14.51-.2-19.67,4.52-19.57,19.17q.88,112.44.14,224.92c-.09,14.7,5.12,19.67,19.53,19.37,32.23-.74,64.52,0,96.76-.49,15.4-.2,22.6,5,21.91,21.7-1.1,27.23-.9,54.55,0,81.82.59,16.49-6.51,22-22.11,21.7-32.24-.54-64.47.3-96.71-.49-14.31-.4-19.57,4.07-19.47,19q.81,152.37.09,304.85c-.05,15.15,6.16,18.92,20.07,18.78,54.59-.6,109.19.14,163.73-.65C4028.43,2184.88,4035.48,2189.7,4034.79,2207.28Z"/><path class="cls-1" d="M3434.88,1440.08a54.3,54.3,0,0,0-6.56-3.68C3430.46,1436.5,3432.74,1438.44,3434.88,1440.08Z"/><path class="cls-1" d="M3514.9,2075.2V1609.76c0-116.28-30.55-139.53-32-140.58l-.05,0a107,107,0,0,0-13-17c-1.59-1.69-3.28-3.38-5-4.92l-.1-.1a76.77,76.77,0,0,0-25-15.15,74.58,74.58,0,0,0-11.28-3.18c-7.3-1.29-14.8-1.34-22.25-1.39-32.24-.15-64.53.65-96.72-.5-15.94-.54-19.42,5.12-19.37,20.27q.52,375.39-.3,750.77c0,13.51,5,17.08,17.44,16.89,35.31-.5,70.63-.2,106-.3a62.87,62.87,0,0,0,9.24-.45v.79C3522.4,2214.83,3514.9,2075.2,3514.9,2075.2Zm-16.44-466.38V2075.2c0,83.85-15.65,93.59-15.65,93.59-12.51,32.58-54.59,36.36-59.8,36.66a4.33,4.33,0,0,1-.55.05c-33.83,1.93-66.71.34-99.55.59-25.93.25-28.11-2.38-28.11-29.21q0-347.51,0-695c0-9.29.5-18.63-.1-27.87-.9-13.51,4.67-19,18.38-18.82,34.67.49,69.44.1,104.16.15,3.68,0,7.36.84,11,1,2.14.1,4.42,2,6.56,3.68l.1.1c.89.54,1.84,1.19,2.88,1.88l0,0c9.59,6.61,24.83,19.52,39.09,42l.15.29C3504.07,1531.87,3498.46,1608.82,3498.46,1608.82Z"/><path class="cls-1" d="M5469.61,2285.87c0,1,0,2,0,3a12.3,12.3,0,0,1-.15,1.94c-.05.64-.1,1.24-.2,1.83v.05a16.25,16.25,0,0,1-.35,1.69,14.77,14.77,0,0,1-.4,1.59,11.89,11.89,0,0,1-.94,2.39,4.15,4.15,0,0,1-.49,1,8.77,8.77,0,0,1-.85,1.34,12.77,12.77,0,0,1-5.32,4.22,8,8,0,0,1-1,.45l-1.34.45a9.85,9.85,0,0,1-1.74.44c-.15.05-.25.05-.4.1l7.36-15.2,3.72-15.15h-10.18v-58.66c0,17.93,10.18-3.43,10.18-3.43l-3.72-15.2-20.82-6.75-11.27,6.75q-332.77-.37-665.48,0h-.5c-15.94,0-22.15,6.06-23.94,8.35a3.38,3.38,0,0,0-.6.84c-.59.89-1.19,1.74-1.78,2.63-6.26,24.94-3.33,49.92.1,74.86,4.66,10.88,14.5,7.75,22.6,7.75q336.93.23,673.87.2c4.77,0,9.69.45,14.16-1.19a18,18,0,0,1-4.87,1.39c-15.6,2.33,11.17,12.76,11.17,12.76s-.14.05-.24.05l-2,.3c-.55.1-1.14.15-1.74.2-.45,0-.94,0-1.44,0-.65.05-1.34.05-2,.05-83.7-.05-167.35.84-251,.94q-220.4.3-440.7,0c-33.43,0-33.73-.54-33.93-34.67-.05-7.15,2.68-14.75-1.74-21.61,2.79-18.08,1.79-36.26.95-54.39,6-6.26,13.31-7.8,21.8-7.8q352.36.23,704.72-.05c15.15,0,21.36,4.77,20.82,20.27C5469,2235.1,5469.21,2260.48,5469.61,2285.87Z"/><path class="cls-1" d="M5467.47,2213.89s-10.18,21.36-10.18,3.43-25.63-18.63-25.63-18.63l11.27-6.75,20.82,6.75Z"/><path class="cls-1" d="M5467.47,2276l-3.72,15.15-7.36,15.2s-26.77-10.43-11.17-12.76a18,18,0,0,0,4.87-1.39.35.35,0,0,0,.24-.1,12.25,12.25,0,0,0,7.11-9.89,18.94,18.94,0,0,0-.15-6.21Z"/><path class="cls-1" d="M3248,251c-9,16.29-18.73,42.72-21.07,83v.35l-.54-.35S3231,273.29,3248,251Z"/><path class="cls-1" d="M0,6.84V2507.16H5730V6.84Zm5643.86,2415H64.58V90.94H5643.86Z"/><path class="cls-1" d="M63.06,1249.69C58.54,633.28,562.33,125.16,1187.42,126c620.08.81,1125,494.29,1125.49,1123.72.48,621.33-503.3,1121-1125.46,1121.77S58.56,1863.81,63.06,1249.69Zm31.71-3c1.42,604,485.56,1090.34,1091.06,1091.53,603.52,1.19,1092.67-483.68,1093.61-1088.52.93-604-490.31-1088.6-1089.57-1090C588.37,158.35,97.48,643.93,94.77,1246.73Z"/></svg>