<svg id="Layer_1" data-name="Layer 1" xmlns="http://www.w3.org/2000/svg" viewBox="0 0 2916.39 2506.21"><defs><style>.cls-1{fill:#a62b2a;}</style></defs><path class="cls-1" d="M1465.84,2271.15q-179.56-2.88-359.15-5.8c-19.19-.31-37.73-25.73-32.57-43.86,2.07-7.27,6.75-3.49,9.9-2.64,37.52,10.08,75.86,14.71,114.43,17.84,12.53,1,25.12,1.24,37.69,1.73,5.63.22,12.45.87,12.64-7.06.18-7.77-6.53-7.72-12.23-7.93-48.51-1.73-96.85-5.67-143.84-18.4-49.65-13.45-96.28-35-141.54-59-304.2-161-506.39-406.3-586.31-741.28-90.89-381-5-725.15,251.94-1021.74C786.69,186.91,1003,64.62,1258.67,19.66c345.79-60.8,658.24,19.31,930.52,242,194.49,159.08,324,362.77,378.74,608.12,88.43,396.19-5.66,747-280.84,1046.49-118,128.36-261.65,220.48-424.95,281.54-40,15-82.37,19.16-124.6,23-14.37,1.32-28.82,1.73-43.24,2.56-6,.34-13.55-.46-13,8.45.48,8,7.58,6.65,13,6.5,50.41-1.41,100.37-6.44,149.37-19,13.23-3.4,15.58-1.05,13.25,12.75-3.65,21.66-16.67,32.75-38.92,33.33-90.83,2.37-181.66,4-272.52,3.93h-79.65C1465.85,2270,1465.85,2270.55,1465.84,2271.15Zm0-91.52q113.93,0,227.85,0c9.33,0,18.48-.54,27.67-2.86,221.43-55.8,407.8-169.65,555.08-343.67,183.8-217.17,267.73-469.38,253.06-754.06-3.27-63.45-12-126-27.2-187.55-54.56-221-167.17-407.09-339.28-556.18-180.27-156.15-390.6-241.3-628.09-258a1025.62,1025.62,0,0,0-313.31,25.94C993.74,158.12,803,274.2,651.69,453.1,484,651.4,401.57,882.05,399.09,1141.18c-.68,69.83,6.9,139.21,20.55,207.93,75.29,379,350.56,688.51,718.09,807.49,48.2,15.6,96.52,25.57,147.81,23.58C1345.56,2177.84,1405.74,2179.63,1465.85,2179.63Zm165.2,60.38v-.08c6.46,0,12.92.17,19.36-.06,4.13-.14,7.26-2.6,7.63-6.67a7.31,7.31,0,0,0-7.32-8.39c-12.89-.42-25.82-.4-38.71,0-4.51.14-8,3.3-7.66,8.15s4,7,8.71,7C1619.06,2240.08,1625.06,2240,1631.05,2240Z"/><path class="cls-1" d="M1466.2,2281.81c124.35,1.68,248.66-.32,373-3.14,8.54-.2,19.16-3.21,23.2,7.61s3.34,22-4,31.9c-6.93,9.25-16.57,13.18-27.81,13.75-14.87.76-29.76,1.3-44.63,2.28-5,.33-11.34.66-10.29,8.14.89,6.33,6.65,5.52,11.19,5.29,18.6-.93,37.21-1.75,55.77-3.26,7.89-.65,12.44.86,15.76,9.11,12.5,31.07,26.07,61.72,39,92.63,7.86,18.78,1,31.32-19.14,33.83-78.11,9.68-156.41,17.1-235,21.38q-156.35,8.51-312.75,2.11c-92.63-3.84-184.89-11.9-276.86-23.36-21.13-2.63-27.94-15.08-19.72-34.58,12.83-30.46,26.18-60.7,38.49-91.36,3.51-8.73,8.32-10.55,16.87-9.8,18.54,1.62,37.17,2.37,55.77,3.3,4.58.23,10.21.72,10.71-5.82s-4.92-7.12-9.62-7.41c-15.8-1-31.62-1.45-47.4-2.67-21.25-1.65-33-15.34-32.1-36.08.52-12,5.77-17.58,18.31-17.27,56.32,1.37,112.65,2.84,169,3.28C1324.63,2282.23,1395.42,2281.81,1466.2,2281.81Z"/><path class="cls-1" d="M2104.15,1141.37c.59,341.38-271.78,639-639.35,638.69-364.38-.26-640.8-295.68-638-644.19,2.77-344.72,281.06-636.26,644.88-633.13C1830.11,505.83,2104.52,797.7,2104.15,1141.37Zm-639.66,575.88c316.86,1,576.82-256.68,576.76-574.45-.07-324.14-259.21-572-565.6-577-323.12-5.27-580.09,253-585.73,565.07C884.22,1446.25,1136,1715.24,1464.49,1717.25Z"/><path class="cls-1" d="M640.42,1648.1c38-44.16,54-99.51,89.94-145.49C704.47,1508.33,606,1571,593,1589.74c-6.39-10.19-12.44-19.74-18.4-29.34-6.09-9.82-12.09-19.69-17.84-29.06,71.24-11.14,125.61-56.79,187.07-86.86,16.13-7.89,22.61-18.46,31.88-37.79,12.21,19.75,23.83,38.61,35.53,57.41,2.34,3.76,1,5.73-2.58,7.56-11,5.59-16.26,16.19-22.4,26.08-21.3,34.27-37.17,72.18-70.6,102.76,49.63-11.35,96.91-9.72,143.49-15.48,1.83-.23,4.05-.4,5.33-1.49,16.06-13.73,20.81,0,27.2,10.8,8.49,14.38,17.43,28.49,27.1,44.22-26-4.26-45.91,5.78-64.71,19.44-32,23.26-64,46.63-96.25,69.52-19.2,13.6-36.9,28.32-47.11,53.48l-40.16-65.18c21.3-.16,36.39-9.58,51.34-20.17,31.75-22.5,61.89-47.36,96.58-66.23C760.1,1642.05,699.79,1632.16,640.42,1648.1Z"/><path class="cls-1" d="M1843.57,518.27c-22.18-5.64-42.41-16.43-63.81-24.13-4-1.46-5.43-4.22-5.79-8.44-4.25-50.63-16.6-100-23.51-150.24-3-21.83-2.32-43.66-2.22-65.7-3.33-.35-3.12,2.67-3.51,4.19-11,43-29.44,83.34-45.67,124.45-7.27,18.41-12.39,37-5.65,60.7L1614.63,428c24.51-11.88,34.56-32.31,43.13-54.15,16.34-41.6,32.84-83.15,50-124.44,8.09-19.53,11.22-39.08,4.79-62.3,25.38,10.19,48.85,19.6,72.3,29,2.7,1.09,4.82,2.63,4.68,6.08-1.68,40.87,9.57,80.15,15.34,120.06,4,27.74,5.31,55.55,7.41,83.37.16,2.17.69,4.3,1.69,10.33,12.38-48.92,32.65-90.91,48.8-134.43,6-16.22,9.75-33,1.56-53.51l79.17,31.59c-32.55,17-39.39,48.53-51.15,76.85-14.29,34.4-27.52,69.23-41.89,103.59-7.84,18.76-8.65,37.87-6.17,57.52Z"/><path class="cls-1" d="M792,861.32c-7.31-27.9-25.74-41.44-46.17-53.42-38.12-22.36-76-45.16-114-67.69-18.32-10.86-37.42-18.73-59.24-13.4-2.15-5,1.3-7.55,3-10.52q22.71-38.47,45.63-76.82c6.22-10.39,13-20.42,21.55-29.09q32.31-32.55,71.13-14c25.58,12.3,37.65,34.6,34.26,66.12,13.25-11.51,26.52-19.9,43-21.37,47.61-4.23,83.67,39.66,72.63,88.61a99.5,99.5,0,0,1-11,28.53C833.31,791.59,813.62,824.77,792,861.32ZM822,728.23c0-16-12.86-31.83-30.76-38.49-16.56-6.17-31.73-2.48-42.37,11.65-6.69,8.89-11.76,19-17.85,28.36-3.3,5.07-2.37,8.06,2.87,11.08,18.56,10.72,36.88,21.84,55.35,32.7,3.51,2.06,8,5.44,11,.44C809.12,759.36,820.37,745.76,822,728.23ZM714.68,676.31c.19-14.91-9.88-27.11-27.22-33-14.3-4.87-24.36,1.65-32.29,12.59-4.89,6.75-8.65,14.3-13.33,21.22-3.51,5.2-2,8,3,10.88,14.51,8.3,28.73,17.09,43.16,25.53,3,1.73,6.79,5.17,9.58.29C704.46,701.85,714.42,691.25,714.68,676.31Z"/><path class="cls-1" d="M1102.6,498.41c-11.84,19.58-28.89,34.9-43,52.66-2.83,3.57-5.85,3.51-9.76,1.35-40.6-22.43-85.46-34.3-128.18-51.49-14.4-5.79-14.49-5.5-2.76-15.71,3.16-2.75,6.29-5.55,9.25-8.52,19-19.07,20.22-37.37,3.81-58.27-16-20.4-35.92-24.62-57.85-11.27-8.68,5.29-16.17,12.52-24.31,18.72-4.33,3.29-4.2,6.27-.81,10.38,36.17,43.82,72.1,87.85,108.37,131.59,10.27,12.39,24.14,19.69,41.28,24.16l-68.93,55.92c.91-26.35-10.85-44.3-25-61.46-30.19-36.69-60-73.72-90-110.51-12.07-14.77-26.35-26.28-46-28.78-.28-5.2,4-6.43,6.63-8.61,25.2-20.69,50.42-41.36,75.88-61.73,14.35-11.48,30.32-20.35,48.65-23.31,29.22-4.73,53,5,71.47,28.29,18.79,23.74,26.12,49.5,12.78,78-4.43,9.44-2.87,12.91,6.63,15.27a171.24,171.24,0,0,1,22.48,7.59c28.77,11.62,58,20.18,89.61,15.95Z"/><path class="cls-1" d="M1400.34,162.68c32.17,0,60.94,0,89.71,0,5.7,0,7.61,1.47,4.64,7.31-6.84,13.44-4.86,27,.25,40.54q25.3,67.27,50.3,134.67c9.71,26.31,21,51.66,42.68,75h-81.48c4.76-14.85,2.23-30-3.43-45.09-2.34-6.24-5.66-8.63-12.32-8.48-25.59.56-51.2,1-76.8.74-8.14-.08-11.46,3.32-13.81,10.43-4.8,14.48-6.66,28.92-1.41,45.64H1325.3c43.08-65.81,55.16-143.85,82.52-216C1413.25,193.09,1410.86,179.08,1400.34,162.68Zm47.29,56.46c-1.28,6.84-2.31,13.75-3.88,20.53-6.28,27.26-15.73,53.55-24.81,80-2.69,7.82-3,11.88,7.48,11.32,16.73-.9,33.52-.7,50.28-.65,6.41,0,9.61-.78,6.85-8.57C1471.48,287.65,1456.87,254.43,1447.63,219.14Z"/><path class="cls-1" d="M2389.82,1445.06c-7.53,25.82-14.38,49.31-22,75.42-17.77-25.74-44.65-31-70.41-38.52-38.43-11.2-76.83-22.52-115.28-33.67-17.75-5.15-35.58-7.53-56.05,1.84,7.71-26.42,14.74-50.54,22.33-76.55,22.08,29,54.93,31.74,84.4,41.64,4.55,1.53,6.78-.32,8.07-4.8q10.23-35.57,20.86-71c1.31-4.36,1-7.11-3.91-8.35-29.85-7.55-58.61-22.93-93.65-11.1l21.91-75.46c16.59,23.28,40.9,29.81,65.1,36.77,39.81,11.46,79.55,23.17,119.3,34.83,18.24,5.34,36.45,7.6,57.35-1.24l-22.24,76.38c-19.19-26.12-47.42-30.67-73.93-38.61-33.12-9.93-33.14-9.85-42.76,23.63-4.11,14.32-8.14,28.65-12.4,42.93-1.29,4.35-2.39,8.3,3.53,9.79,27,6.81,52.85,18.33,81.05,20.5C2370,1450.16,2378.55,1447.9,2389.82,1445.06Z"/><path class="cls-1" d="M1673.31,1958.15c7,2.28,14.35,3.82,20.93,6.91,44.13,20.73,49.44,85.62,9.43,115.62-5.89,4.42-12.51,8.69-19.46,10.75-37,11-75.31,16.06-115.54,24.7,19.85-39.14,2.23-74.72-3.31-110.73-4-25.74-10.15-51.13-15.1-76.72-4.3-22.22-9.9-43.7-31.67-59.32,38.62-7,74-17.36,110.55-20.12,31.52-2.37,50.22,8.83,60.41,32.57,12.09,28.14,7.26,51.8-15,73.63C1674,1956,1673.85,1957,1673.31,1958.15Zm9,69.81c0-28.92-17.66-52.63-50.94-42.32a67.31,67.31,0,0,1-13.69,2.7c-6.74.61-8.48,3.37-6.89,10.09,3.31,14,5.75,28.27,8.61,42.42,5.85,29,5.87,29,34.64,21.61C1673.2,2057.58,1682.13,2046.67,1682.33,2028Zm-32.28-109c-1-10.25-2.66-22.54-14.58-29.3-14-7.94-28.06-.91-42,1.72-5,.94-2.63,5.05-2.1,8,2.24,12.32,4.16,24.72,7,36.88,5.18,21.79-1.25,19.88,23.43,15.08C1642,1947.35,1650,1938.11,1650.05,1918.93Z"/><path class="cls-1" d="M761.24,1830.42c31.85-6.85,55.89-21.71,79.5-37.7q52-35.23,104.58-69.59c15.2-10,28.61-20.91,31.65-42.65l67.88,54.25c-20.54,6.56-28.33,21.74-34.57,38.76-16.17,44.09-32.85,88-49.44,131.93-8.43,22.34-14.53,45.14-14.47,73.07l-57.51-45.84c3.48-2.38,5.76-3.71,7.79-5.36,9.76-8,14.72-19,19.13-30.32,6.89-17.68-11.14-18.72-18.52-26.06-11.48-11.42-25.28-20.47-37.72-31-5.11-4.31-9.11-4.67-14.65-.76-10.73,7.58-21.34,15.19-26.8,27.64-1.87,4.25-3.12,6.59-7.66,2.92C794.94,1857.26,779.36,1844.89,761.24,1830.42Zm209.29-75.78c-26.15,19.89-54,36.5-80.74,54.62-5.37,3.63-3.82,6.08.22,9.25q18.59,14.63,37,29.5c3.22,2.59,5.89,4.78,8.18-1.11C947,1816.41,957.67,1785.44,970.53,1754.64Z"/><path class="cls-1" d="M1830.23,1767.19c-1.79,21.84,9.71,35.29,23.12,48.3,35.76,34.68,71,69.87,106.52,104.84,15,14.73,32.16,26.32,53.16,35.93-20.89,10.79-39.87,20.46-58.69,30.42-5.34,2.83-7,1.62-7.89-4.17-.72-4.46-2.87-8.88-5.15-12.87-14.49-25.38-19.65-26.91-45.08-13.84-14.9,7.66-29.63,15.67-44.73,22.92-6.7,3.21-8.43,7.27-7,14.33,3.07,14.65,6.61,28.91,19.46,40l-59.45,30.72c6.6-76.17-17.53-147.62-27.16-220.85-2.26-17.27-6.68-22.35-23.1-36.58Zm-15.34,71.64c3.1,11.61,6.85,23.11,9.18,34.88,4.17,21,7.75,42.07,11,63.21,1.11,7.16,3.07,8.72,9.71,5.1,13.47-7.35,27.26-14.11,41-21,4.5-2.27,6.85-4.47,2.08-9.1C1863.23,1888.08,1838.54,1864.35,1814.89,1838.83Z"/><path class="cls-1" d="M2296.83,747.42c8.89-26.87,4.24-51.41-13.32-73.33-8.33-10.4-17.63-19.85-33.12-14.59-13.39,4.55-20.26,15.41-20.39,33.09-.17,22.83,6.26,45.13,5.15,68.1-2.17,44.72-38.47,78.29-83.12,76.2-16.5-.77-30.81-7.37-42.86-18.22-28.44-25.58-44.11-58.18-51.12-95.38-1.14-6.08-.47-10.84,5-14.64,14.43-10.11,28.7-20.45,43.61-31.11,2.71,5.23-.6,8.62-1.69,12.13-9.66,31.05-3.07,59,16.73,83.92,8.73,11,19.78,18.58,35.24,13.56s24.19-16.3,25.41-33.13c1.42-19.67-2.87-38.92-4.6-58.35-3.82-42.93,21.35-78.63,62.15-83.87,34.4-4.42,58.57,14.39,77,41.09,11.68,16.9,20,35.71,25.71,55.55,1,3.5,3.47,7.71-.46,10.25-15,9.71-27.88,22.95-45.47,28.58Z"/><path class="cls-1" d="M1264.15,449,1174.7,480.9c15.9-38.44-3.48-68.77-13.67-100.54-.91-2.82-3.82-5.26-6.29-7.26-36.94-29.86-73.81-59.8-111-89.28-9.06-7.17-19.37-12.77-31.39-20.58,23.53-8.46,45.61-16.41,67.71-24.32,3.83-1.37,6.29.23,7.48,4,5.46,17.05,19.47,26.82,32.13,37.71,14.47,12.45,29.18,24.63,43.4,37.35,5.79,5.18,8,5,9.27-3q5.65-36.54,12-73c1.88-10.77,1.87-21.3-1.78-31.62-1.35-3.83-2.63-7.17,2.47-9l63.28-23.08c-18.48,56.7-25.35,113-37.83,168.14a37.76,37.76,0,0,0,1.64,23.13c4.75,12.13,8.81,24.54,13.64,36.64C1232.75,423.75,1243,438.94,1264.15,449Z"/><path class="cls-1" d="M560.94,1280.39c-18.36,27.08-25.42,54.14-12.9,84.47,4.71,11.41,12,20.19,25.39,21,14.05.81,25.58-4.2,33.43-16.28,5.16-8,7.27-17.07,9.33-26.17,2.89-12.71,5-25.68,8.91-38,12-37.52,49.88-58.64,87.15-49.17,17.57,4.46,31,14.94,40.53,30.08,15,23.81,18,50.51,17.78,77.89,0,3.48-.62,6.37-4.6,7.5-16,4.54-31.31,11.51-51,14.07,19.57-21.87,20.76-44.39,11-68.12-4.52-11-11.46-19.5-24.64-19.36-12.94.14-22,6.71-27.3,18.37-6.47,14.16-7.81,29.64-11.26,44.58-9.65,41.83-30.85,62.7-70.33,69.17-30.44,5-57.84-7.72-72.92-35.07-14.89-27-18.47-56.33-15-86.67.59-5.16,1.69-10,7.76-12C528.53,1291.33,544.72,1285.81,560.94,1280.39Z"/><path class="cls-1" d="M2172.12,1502.5c-28.86,2.36-48.5,13.21-62.55,33.68-19,27.74-18.88,57.48,1.37,84.32,17.38,23,40.62,38.28,67.76,47.18,53.58,17.57,100.72-20,96.81-76.56-.67-9.77-3-19.2-4.05-30.31q22.2,19.2,44.39,38.4c3.64,3.17,1.68,7,.55,10.38-3.7,11-7,22.26-11.71,32.81-34.08,75.53-105.14,98.83-176.77,57-45.17-26.35-76.87-62.84-73.89-119,2.31-43.74,26.66-76.41,58.17-104.53,2.67-2.39,5.37-3.49,8.81-1.58C2136.74,1483,2152.5,1491.69,2172.12,1502.5Z"/><path class="cls-1" d="M2162.76,539.29c1.36-29.72-15.74-47.2-35.06-63.7-4.8-4.1-7.95-3-11.67,1.09-38,41.54-76.35,82.73-113.85,124.69-10.64,11.91-16.55,26.79-14.15,46.68l-70-64.93c31.06-3.08,49.37-21.62,67.3-41.45,29.64-32.79,59.84-65.08,90.28-97.12,6.57-6.92,7.11-10.86-.1-17.8-17-16.41-35.06-29.29-60.82-25.4l-1.35-3.23c14.66-13,29.21-26.06,44.07-38.8,3.45-3,5.68.78,7.93,3.08,41,41.89,83.68,82.08,128.9,119.46,4.26,3.53,7.83,6.71,3.27,12.54C2185.86,509.3,2174.34,524.32,2162.76,539.29Z"/><path class="cls-1" d="M1916,1787.81c-11.14-14.75-22.16-29.6-33.48-44.22-3.25-4.19-3.2-6.63,1.24-10.14a1256.89,1256.89,0,0,0,117.46-105.08c4.13-4.2,6.86-4.72,11.31-.35,12.84,12.62,26.12,24.81,39.42,39.07-24.69-5.46-42.62,4.9-58.75,21.17-5.23,5.28-5.36,8.18-.56,13.47,35,38.59,69.68,77.54,104.78,116.07,11.51,12.64,25.42,21.82,46.4,23.77l-63,56.42c-.48-30.28-18-49.37-35.49-68.65-28.75-31.72-57.4-63.55-85.58-95.78-6.17-7-9.6-6.46-16.38-.79C1926.34,1747,1914.53,1763.11,1916,1787.81Z"/><path class="cls-1" d="M1267.78,1843.33l78.77,13.74c-17.2,15.11-23.35,33.23-26.7,52.89q-12.4,73-25.53,145.82c-1.36,7.5-.67,11.19,7.82,12,10.63,1.05,21.09,3.75,31.72,4.85,22.34,2.3,42.43-3.49,61.62-17.77q-9.23,30.66-18.47,61.31c-1.1,3.66-3.71,3.13-6.7,2.34-47.18-12.45-95.93-16.85-145.16-27.61,28.59-26.84,26.4-63.19,33.27-96.31,6.62-31.89,11.35-64.17,16.88-96.29C1278.76,1878.21,1276.91,1863.59,1267.78,1843.33Z"/><path class="cls-1" d="M1008,2007.62c19.8-10.24,30.08-27,38.17-45.61q27.57-63.35,55.24-126.63c7.77-17.74,12.82-35.82,6.54-57.93l73.6,32.08c-23.46,12.36-33.2,32.7-42.27,53.68-18.08,41.85-36.19,83.69-54.84,125.28-3.86,8.61-3.5,13.2,6.11,16.4,10.12,3.38,19.66,8.49,29.75,12,20.13,6.93,40,4.83,61.26-2.08q-15.69,26.64-31.4,53.28c-2.28,3.86-5,2.78-8.23,1.05-41-22.1-84.83-38.09-127.07-57.52C1012.83,2010.65,1011,2009.35,1008,2007.62Z"/><path class="cls-1" d="M622.79,992.07c-4.21,5.13-2.17,9.48-2.88,13.41-.5,2.81,1.63,7.77-3.5,7.35-4.57-.38-2.7-5.13-2.83-8-.27-6-.18-12.1,0-18.16.07-3-1.21-6.9,3.63-7.71,3.71-.62,6.08,1.2,8,4.25,3.4,5.4,7,10.65,10.61,16,1.36-1,2.3-1.38,2.55-2,2.29-5.76-2.74-17.32,3.14-16.87,7.35.55,2.16,11.47,3.47,17.73.57,2.67.18,5.57.08,8.36-.1,2.63.91,6-2.79,7-3.51.89-6.07-.66-8-3.92C630.73,1003.66,626.83,998.16,622.79,992.07Z"/><path class="cls-1" d="M714.77,1062.59c1.41-7.46-4.48-18.19,10.84-17.17,14.26.95,21.81,6,22,17.59.16,11.32-7.86,17.25-21.59,18.16C708.23,1082.35,717.43,1069.12,714.77,1062.59Zm7.47,1.18c.85,4.52-2.37,11.43,6.55,10.53,6.92-.69,11.1-4.29,10.77-11.69-.29-6.68-4.22-9.91-10.65-10.3C718.83,1051.69,723.64,1059.57,722.24,1063.77Z"/><path class="cls-1" d="M662.08,996.21c2-7.19-5.33-19,11.1-18,14.38.89,21.59,5.92,21.5,17.75-.08,11.27-8.09,17.13-21.81,18.08C656.13,1015.16,664.5,1002.78,662.08,996.21Zm12.79-11.63c-8-.33-5.55,6.4-5.24,10.62.33,4.43-4,12.39,5.86,11.9,6.6-.33,11.37-4,11.43-11.23S682.42,985.36,674.87,984.58Z"/><path class="cls-1" d="M2280.69,996.34c-3.62,6.74-15.75-2.44-15.09,7.85.65,9.95,12.66.7,17.49,8.16-7.78,5.59-16.13,2.95-24.09,1.89-1.91-.26-3.44-32.35-1.12-33.79,7.82-4.84,16-3.78,24.23-.71-1.23,5.47-5,4.19-8,4.67-3.26.53-8.5-1.81-8.71,3.9-.25,6.87,5.67,4.16,9.29,4.78C2276.87,993.46,2279.47,992.66,2280.69,996.34Z"/><path class="cls-1" d="M2297.5,1055.82c2.67-6.75-4-11-10.83-11-7.44.06-13.15,3.89-11.47,12.12.86,4.24.92,7.19-.55,11.41-3.17,9.14,2.44,15.3,12.3,15C2309.21,1081.75,2293.88,1065,2297.5,1055.82Zm-5.84,16.51c-.12,3.26-2.35,4.9-5.63,4.62s-5.09-2-5.16-5.21c1-3,2.54-5.23,5.88-5S2291.78,1069.28,2291.66,1072.33Zm0-17c-.12,3.25-2.35,4.9-5.63,4.61s-5.09-1.94-5.16-5.2c1-3,2.54-5.23,5.88-5S2291.78,1052.26,2291.66,1055.32Z"/><path class="cls-1" d="M533.92,1063.73c4.45-4.67,5.42-9.91.49-14.59-5.27-5-12.37-4-18.45-2.7-6.53,1.35-2.56,7.68-3.31,11.73a28.62,28.62,0,0,0,0,9.64c.67,4.14-2.88,11.39,2.75,11.8,6.55.46,1.67-7.42,4-10.84.45-.65,1.45-.93,2.11-1.32,6.76,2.06,4.66,13.77,15,12.88C538.1,1073.84,527.5,1070.42,533.92,1063.73ZM520,1059.92v-6.64c9.1-2,11.82,3.32,11.82,3.32C527.42,1062,520,1059.92,520,1059.92Z"/><path class="cls-1" d="M586.14,981.5c-2.22-4.48-6.47-4.14-8.57,0-4.37,8.64-7.94,17.67-11.76,26.58-.71,1.64-1.53,3.88.55,4.79,1.34.57,4.19.32,4.86-.63,7.52-10.63,14.42-8.88,21.54.41.68.88,3.4.55,5,.14.59-.15.71-2.16,1-3C594.43,1000,590.64,990.57,586.14,981.5Zm-8.81,16.15a21.92,21.92,0,0,1,4.55-10.58c3.08,2.95,4.56,10.58,4.56,10.58A8.72,8.72,0,0,0,577.33,997.65Z"/><path class="cls-1" d="M699.82,1077.44c-18.2,8.9-24.84,5.43-24.85-12.57,0-19.44,3.29-22.74,19-19.23,1.9.43,4,.68,4.26,2.76.44,3.14-2.13,3.21-4.42,3.88-3.77,1.1-11.08-3.48-10.58,4.33.34,5.37,7,2.3,10.65,3.57a18.55,18.55,0,0,1,3.26,1.87c-.25,1.24-.13,2.43-.66,3-3.84,3.82-13.79-2.51-13.39,5.56.37,7.57,9.3,2,13.84,4.26A15.11,15.11,0,0,1,699.82,1077.44Z"/><path class="cls-1" d="M2363.3,1053.11c1.19,6.46,5.34,5.26,8.07,6.24,5.63,2,8.05,6,8.11,11.66a11.21,11.21,0,0,1-7.07,11c-4.87,2.11-9.93,2.23-14.64-.81-2-1.31-4.07-3.28-2.82-5.61,1.13-2.12,3.74-2.4,6-.78,4.53,3.23,9.4,4,10.66-2.48,1.39-7.22-4.35-8.49-9.86-7.53-5.78,1-6.88-2.21-5.85-6.19,1.13-4.35-3-11.05,4.69-12.73,3.11-.68,6.48-.35,9.72-.22,2.6.11,6.53-.93,7,2.57.73,5.42-4.16,3.33-6.88,3.91C2368.29,1052.63,2366.06,1052.76,2363.3,1053.11Z"/><path class="cls-1" d="M570.8,1047.75c-2.21-3.91-6.5-2.16-8.43,2.2-3.54,8-7.15,16-10.51,24.13-.77,1.84-2.83,4.31,0,6,2.18,1.32,4.23.44,5.91-1.67,6.23-7.83,12.62-7.93,18.88,0,1.66,2.09,3.69,2.83,6,1.74.82-.39,1.06-2,1.55-3C579.69,1067,576,1057,570.8,1047.75Zm-8.06,17.34a21.82,21.82,0,0,1,4.55-10.58c3.07,3,4.56,10.58,4.56,10.58A8.69,8.69,0,0,0,562.74,1065.09Z"/><path class="cls-1" d="M521.37,996.17c0-3.71-.1-7.42,0-11.12.08-2.17-.38-5.07,2.74-5.45s3.64,2.2,3.62,4.53c0,5.4,1.5,8.33,7.89,8.6,7.56.32,8.32-3.63,8.1-9.34-.07-1.84.37-3.9,2.72-4,3.13-.13,3.54,2.3,3.56,4.67.07,7.88.07,15.76.06,23.64,0,2.33-.06,5.08-2.94,5.41-3.08.36-3.46-2.26-3.49-4.66-.06-5,1.28-9.93-7.11-10.06-8.18-.11-9.2,3.76-8.81,10.13.14,2.39-.59,4.71-3.77,4.33-2.39-.29-2.51-2.34-2.54-4.17-.06-4.17,0-8.34,0-12.52Z"/><path class="cls-1" d="M2307,1016.11c-4-.37-10.27-1-9.84-5.26.73-7.33,6.16-1.7,9.6-1.5,2.46.15,4.82-.35,5.91-2.64,1.6-3.36-.85-5.13-3.4-6.46-2.86-1.49-6.1-2.38-8.7-4.21a9,9,0,0,1-3.62-9.85c1.16-5.13,4.93-7.66,9.69-8.88,4.23-1.08,8.76-.93,11.72,2.34,2.5,2.75.71,5.31-3,5.14-3.84-.17-9-3.52-10,2.84-.78,4.7,4.62,4.86,7.82,6.28,5.68,2.51,9.35,6.46,7.76,13C2319.24,1013.87,2313.76,1016,2307,1016.11Z"/><path class="cls-1" d="M488.13,1052.07c-5.77-1.57-10.08.49-12.84,5.59a11.41,11.41,0,0,0,1.13,13.1c3.2,4.19,7.42,5.41,12.37,3.46,3-1.18,6.76-3.54,7.91,1.21.94,3.87-3.27,5-6.31,5.8-7.87,2.19-15,.63-20.07-5.94-5.41-7-5.34-14.9-1.13-22.28s11.26-9.36,19.26-8c3.11.54,7.7,1.35,7.34,5.08C495.32,1054.91,491.2,1053.11,488.13,1052.07Z"/><path class="cls-1" d="M2336.11,1061.88c-10.33-3.51-6.81-9-2.78-15.4-13.21,2.41-23.83,20.75-18.57,30.21,2.7,4.87,7.17,7,12.79,6.71s9.85-2.61,11.95-8S2340.78,1063.46,2336.11,1061.88Zm-5.51,14.27a5.73,5.73,0,0,1-1,.5,7.25,7.25,0,0,1-1.82.44c-3.67.46-6.29-1.37-7-4.92-.83-4.39,1.72-7.16,5.84-7.49a5.41,5.41,0,0,1,4.07,1.18,2.6,2.6,0,0,1,.38.36,7.08,7.08,0,0,1,1.82,4.18C2333.05,1073,2332.34,1075,2330.6,1076.15Z"/><path class="cls-1" d="M2361.69,980.43c-16.74,3.62-10.79,16-11.66,25.5-.31,3.33,1.7,8.69-3.69,8.85s-3.88-5.16-4.15-8.58c-.77-9.55,4.81-21.59-13.89-25.1C2341.37,976.07,2350.89,977.41,2361.69,980.43Z"/><path class="cls-1" d="M2251.68,1066c-2,4.69,3.74,15.48-3.33,15.68-7.76.23-2.45-10.4-4.15-16-.81-2.68,2.17-7-2.65-7.82-2.81-.49-8,1.88-6.17-3.42A13.36,13.36,0,0,1,2247,1046c5.94-.35,4.5,4.49,4.62,7.91C2251.78,1057.55,2251.68,1061.24,2251.68,1066Z"/><path class="cls-1" d="M631.56,1050c11.05-5.09,19.91-4.37,32.89-2.53-17.31,5.41-13.29,16.93-13.7,26.89-.11,2.66.29,6.11-3.88,5.72-3.15-.3-2.66-3.26-2.73-5.46-.12-3.26,0-6.52-.06-9.78C643.92,1057.59,647.06,1048.08,631.56,1050Z"/><path class="cls-1" d="M621.61,1047.41c-.84,5.53-4.25,4-6.67,4.6-3.49.83-9.61-2.36-9.47,4.34s6.25,3.38,9.82,4.31c1.63.42,3.23,1,7.45,2.29-8.92,4.35-21.2,2.83-18.44,16,0,.08-2.57,1.22-3.5.83a4.19,4.19,0,0,1-1.77-3.25c-.14-8.82-2.74-18.86.59-26.17C603.88,1041,613.72,1046.85,621.61,1047.41Z"/><path class="cls-1" d="M607.89,920.15c5.29.63,8,4.14,7.39,9.37s-4.29,8.24-9.69,7.52c-4.73-.62-7.21-4-7-8.74C598.83,922.77,602,920.06,607.89,920.15Z"/><path class="cls-1" d="M2316.2,1130.29c-.45,5.48-3,8.93-8.67,9s-8.6-3.24-8.54-8.77c.06-4.89,2.9-7.82,7.75-8.14C2312.29,1122,2315.28,1125,2316.2,1130.29Z"/><path class="cls-1" d="M2316.27,927.94c-.83,5.89-3.75,9.41-9.13,9.15s-8.45-3.69-8.16-9.23c.26-4.9,3.28-7.49,8.14-7.66C2312.79,920,2315.33,923.36,2316.27,927.94Z"/><path class="cls-1" d="M615.53,1130.35c-.44,5.13-2.84,8.71-8.42,8.88-4.77.15-7.89-2.42-8.39-7.27-.55-5.34,1.75-9,7.36-9.62S614.44,1125.1,615.53,1130.35Z"/><path class="cls-1" d="M1102.84,498.62l.86-1.26c0,.24,0,.6-.13.7a3.6,3.6,0,0,1-1,.35Z"/><path class="cls-1" d="M2296.67,747.27l-1,1.51c0-.31-.15-.78,0-.91a3.78,3.78,0,0,1,1.15-.45Z"/><path class="cls-1" d="M1844.24,517.57l1.06,1.75-1.73-1.05Z"/><path class="cls-1" d="M2022.6,1138.28c-1.8,303.34-245.52,551.54-555.63,548.09-298.21-3.32-543-242.23-542.23-550C925.53,831.21,1168,587.63,1476.51,589,1780,590.28,2020.76,833.26,2022.6,1138.28Zm-16.51,0c1.25-295.14-237.44-528.85-522.12-533.53-304.61-5-542,239.37-543.51,529.43-1.51,298.87,239.74,532.44,525.27,536.43C1766.71,1674.86,2008.31,1428.12,2006.09,1138.32Z"/><path class="cls-1" d="M1981.23,1137.13c.73,276.65-225.8,505.15-498.79,508.56-278.35,3.47-515.57-218.42-516.63-506-1-283.43,227-504.95,498.7-509.64C1745.35,625.19,1980.53,850.76,1981.23,1137.13Zm-480.88-160.9c0-2.12-.37-4.09-2.59-5.11.11-2.57-2.43-5.19,1.46-9.12,10.52,18.52,21.39,36.3,30.81,54.82,4.54,8.93,7.53,8.59,13.57,1.95,15.21-16.73,15.34-16.58.91-34.82-.92-1.16-2.94-2.64-.42-4.43,4.24.22,6.3,3.84,8.56,6.41,6.25,7.1,9.8,7.36,16.67-.79,8.87-10.52,6.16-15.16-4.41-20.34a260.54,260.54,0,0,1-24.17-13.95c-4.72-3-11.22-4.47-12.87-14.13,14.66,5.75,25.42,14.46,37,21.49,18.73,11.38,18.58,11.62,32.48-5.8-3.31-5-11.71-3.69-13.84-11.37,8.32-1.16,14,7.68,20.69,6.13s12.48-7.08,15.64-14c-3.51-3-8.8-1.19-12.28-8.28,20.66,5.5,31.62-6.88,44.55-20.34-33.28-2.51-64.76,5.59-96.33-2,5.29-4.41,11-2.28,16.25-2.32,10.22-.09,20.47,1.12,30.66.67,19-.84,37.7-4.42,57-1.36,5.57.88,14.42,3.39,19.71-2.78,6.83-8,12.81-16.66,20.31-26.57-29,.35-55.57,7.39-82.62,4.39,22.47-5.56,45.27-8.31,68.27-9.6,11.1-.62,21.66-1.2,30.21-10.61,6.07-6.68,16.16-8.07,23.22-2.85,10.14,7.49,20.12,4.71,30.58,3.74,13.89-1.29,27.8-2.46,41.72-3.43,2.73-.19,6.93-1.75,7,4.47l-63.34,7c8.74,9.93,14.24,17.44,27.74,12.84,9-3.07,20-.58,30-.58-11.48,6.59-23.49,5.24-37.72,7,9.74,6.88,17.42,11.74,24.44,17.42,6,4.84,9.17,3.1,13.14-2.65a122.65,122.65,0,0,1,30.51-31c4.27-3,12.79-5.7,10.94-10.87-2.5-7-10.61-.66-16.1-2-1-.25-3,.65-1.5-4.61.23-2.71,15.18,2.08,8.41-7.33-8.15-11.32-14.87-26.58-36.17-25.11,12.86-1.35,10.12-5.1,5.46-10.78-7.91-9.64-16-13.66-28.75-8.35-12.37,5.16-25.73,8-38.78,11.43-14.87,3.86-29.45,9.19-45.22,9.43,30.15-11,61.27-19.1,91.39-30.84-8.14-12.76-17-17-30.48-9.14-11.21,6.49-23.55,11.08-35.51,16.24-3.79,1.63-7.66,5.78-12.53,1.18,1.63-5.5,6.72-6.26,10.77-8,12.4-5.31,24.81-10.65,37.46-15.33,8.17-3,7.66-6.21,1.61-10.91-11.86-9.2-22.93-21-40.12-11.09-.64.38-2.11-.67-3.15-1,1.32-6,9-4.72,10.69-11-6.74-4.14-13.36-8.36-20.13-12.32-5.52-3.23-11-7.78-17.67-2.12.86-1.64.53-2.56-1.49-2.44-2.32-13.82-16.34-11.54-24.38-17.5-5.85-4.33-9.36,1.49-12.6,5.12a1079.3,1079.3,0,0,1-99.16,98.37c-2.44,2.11-5.13,3.93-7.71,5.89,33-40.51,72.91-74,105.48-114.78-23.53-11.48-23.45-11.41-39.43,6.52-4,4.47-8.61,8.37-12.94,12.53l-2.74-2.28c4-11.43,14.56-18.6,20-29.27-20.31-8.58-21.27-9-29.67,8.32-20.54,42.47-47.74,80.95-71.35,121.56-2.85,4.9-5,10.81-11.6,12.94-2.1-6.52,2.21-10.31,4.81-14.35,26.69-41.51,51.86-83.93,75.16-127.43,1.62-3,7.23-6.57,1.88-10.42-4.91-3.55-9.53-2.14-12.64,3.53a19.19,19.19,0,0,1-4.67,5.11c-1.78,1.5-4.23,2.77-6.16.85-.95-.94-.79-3.34-.6-5,.42-3.71,6.92-8.21-1.82-10.52-7.91-2.1-8,4.18-9.64,8.68-5.58,15.29-10.15,31-16.76,45.84-7.33,16.4-16.48,32-26.17,50.46-2.55-9.43,1.28-13.52,3.35-18,9.66-20.65,20.19-40.9,29.22-61.81,12-27.71,11.42-27.87-18-31.09-6.57-.72-9.81,0-11.18,7.76-3.79,21.52-8.79,42.83-13.41,64.2-.82,3.81-.52,8.51-6,9.93-3.2-4.48-1.19-8.91-.27-13.2,4.27-20,8.31-40.1,13.18-60,1.69-6.87,1.8-10.55-6.63-10.43-18.16.25-36.31.33-54.47.14-7.43-.08-10,3.13-8.94,10.21,1.36,9.2,2.66,18.41,3.69,27.65,1.48,13.2,2.7,26.42,4,39.62l-4,.28c-2.79-16.69-6-33.38-5.32-50.48.89-23.61-5-28.71-27.13-22.51-.39.11-.68.62-1,1l-1.07-.72-.12,1.28c-16.1-4.58-29.81,6.85-45.4,6.76-10.14-.06-13.75,4.22-7.63,14.78,23.33,40.29,46,81,68.78,121.58,2.43,4.34,6.4,8.47,4.46,17.45-12.76-22.14-24-41.9-35.47-61.5Q1366.69,728.59,1343,689c-4-6.79-19.72-6.84-27.82.48-6.62,6,1.55,9.66,4,13.47,7.57,11.87,16,23.18,24.12,34.7-12.92-5.93-19.49-17.16-26.89-27.54-12.69-17.8-12.52-17.93-32.22-8.58-1.23.59-2.32,1.46-4.3,2.72,32.95,35.59,72.37,64.82,99.81,105.16-8.62-3.51-14.67-9.92-20.43-16.5-23-26.37-49-49.73-74.24-73.94-10.86-10.43-19-10.39-31.22-3.48-10,5.67-9.74,8.3-.69,14.1,10,6.43,19.19,14.16,25.11,24.7-12.81-5-24.07-12.15-31.5-23-7.31-10.65-12.76-3.45-19.65-.57-8.76,3.66-8.06,8.89-3,16.5-14.9-7.64-24.1-1.26-32.31,9.32,12.07,7.7,23.74,14.2,37.53,16.15,6.58.93,12.09,4.8,16.6,9.73,2.14,2.32,5,5.16,2.2,8.31-2.31,2.57-5-.08-7.45-1.22q-26.62-12.27-53.35-24.33c-10.07-4.56-16.23,3.51-18.84,9.51-2.44,5.58,6.8,5.17,11,7.24a45.78,45.78,0,0,0,6.62,2.17c49.55,16,100.16,29.34,145.16,56.93,3.19,2,8.52,1.62,8.7,8.21-5.54,0-9.82-2.68-14.19-5a579.83,579.83,0,0,0-54.11-25.9c-35.28-14.44-73.41-20.66-107.69-37.82a4,4,0,0,0-5,.8c-12.62,11.23-25.3,22.42-36.88,37.08l193.36,41.47c-.31,1.35-.62,2.7-.94,4.05-5.58,1.69-11,.39-16.46-.84-53.61-12-107.27-23.74-160.87-35.77-22.65-5.08-25.59-3.81-36.23,18.12,5,4.25,13.53-.16,18.6,7.93-7-.35-12.56-.51-18.1-.95-6.56-.52-23.76,15.62-23,21.9.41,3.41,3.73,3.46,6.09,4.66,8.81,4.51,19,2.92,28.15,6.51-.64,4.48-7.07,1.93-7.85,6.9,7.09,5.28,13.49,12.14,21.38,15.49,13.79,5.86,29.1-1,46.14,3-11.28,5.89-21.81,3.62-31.45,6,4.46,7.91,7.83,12.18,10.61,11.44,27-7.17,59.1,3.72,80.21-24.81,7.4-10,21.83-10.65,29.68-.78,10,12.61,21,12.84,34.4,10.43,3.6-.65,7.82-1.82,12.42,1.4-8.76,5.31-18.79,2.86-27,7,10.82,19.14,10.79,19.06,30.47,12.88,9.66-3,19.26-7.1,33.71-4.79-17,8.34-32.63,9.58-46.46,17.52,8.42,8.6,19.79,2,27.09,8.47,6.15,5.49,11.51,2.95,17.5-.45,16-9.07,32.24-17.73,51.09-28-3.23,8.08-7.81,9.49-11.56,11.67-12.49,7.23-25.12,14.22-37.6,21.48-2.13,1.24-7,2.61-4.89,5.26a128.15,128.15,0,0,0,18.4,18.86c4.51,3.77,6.87-3.08,10.65-4l2.32,2.76c-10,12.71,3.46,15.67,9.46,20.28,8.12,6.25,8.6-4,10.93-7.56,7.91-12,12.93-26,24.69-36.62,2.64,7.13-1.44,10.54-3.64,14.34-6.28,10.87-12.59,21.76-19.52,32.23-6.18,9.33,3.17,12.15,6.79,16.86,3.74,4.87,7,1.48,9.57-2.62,1.09-1.77,1.94-5.6,5.45-1.18,5.12,6.46,5.75,6.24,8.27-.88,2.79-7.84,6.12-15.7,7.38-23.84,3.21-20.79,7.4-25.58,27.88-27.27,11.67-1,23.3-.6,34.06,5l5.31,6.05c-2.53,18,11.21,29.57,17.78,43.94,1.9,4.16,6.15,2.38,11.37.55Zm-165.53,615.46c7.49,2.4,15.06,4.56,22.43,7.25,5.37,2,8.79-.26,12.19-4,19.86-21.61,30.43-47.26,28.81-76.34-2.87-51.33-42.1-88.57-89.34-86.77-49.81,1.89-94.38,47.57-94.39,96.65,0,3.76-.7,7.43,3.22,9.91,27.11,17.1,55.21,32.16,86.21,43.07,0-10.66,0-19.91,0-29.16,0-3.66,0-6.92-4.17-9.38-9.43-5.6-10-14.22-5-22.91,3.9-6.77,10.79-9.37,18.12-6.18,10.39,4.51,10,13,7.24,22.42s5.46,19.46,14.85,18.84c8.25-.54,9.08,6.85,12.74,11.07s1.44,8-1.7,12.26-8.68,5.2-11.62,9.41c-9.32-3.13-17.23-11.27-13.37-19.09,7-14.24-3.35-17.42-9.71-24.12-2,6.76-2.35,13.1-2.64,19.44C1307.64,1585.74,1312.36,1590.71,1334.82,1591.69ZM1522.32,1410c0,62.9.1,125.8-.12,188.7,0,8.35.52,12.27,11.23,10.82,32-4.32,63-11.91,93.76-21.52,7.48-2.34,9.78-6.58,9.91-14.27q.89-52.37,2.9-104.71,1.85-46,5-92c1.43-21.09,12.68-28.51,33.1-23.61,5.55,1.34,10.9,6.09,17.25,2.18,6.73-4.14,7.95.27,8.54,5.62,2.58,23.58,6.09,47.1,7.53,70.74,1.91,31.3,26.1,52.84,56.69,49.13a56.86,56.86,0,0,1,16.63.37c19.28,3.41,28.6-4.11,28.62-23.92,0-50.79-.36-101.58.31-152.36.15-11.06-3.83-15.07-13.82-17.86q-132.5-36.88-264.71-74.75c-10.69-3.06-13.2-1.08-13.11,10.15C1522.59,1285.14,1522.32,1347.58,1522.32,1410Zm-74.78,201.06c14.26,4.07,28.64,1.8,42.91,2.13,12.55.29,16.06-4.69,16-17.3-.49-123.43-.29-246.86-.3-370.3,0-17-.05-17.11-16.3-13.71q-186.43,39-372.89,77.95c-8.16,1.69-11.67,4.53-11.57,13.59.49,42.39.23,84.78.22,127.16,0,4.2-.12,8.33,2.94,11.86,11,12.59,21.45,25.6,35.44,37.06,17.49-47.93,46.07-85.83,91.21-109.37,45.55-23.75,92.33-26.33,140.15-6.82C1444.26,1391.43,1506.83,1491.76,1447.54,1611.08Zm-187-598.47c13.6,2.3,23.66-.21,33.72-.16,9.18,0,21.93-2.52,25.57,6,3.45,8.07-8.36,14.1-14.29,20.13-20.87,21.2-46.91,35-72.62,49.2-15.22,8.41-30.89,16.13-44,28.2,36.52-11.33,71.83-25.61,102.1-49.26,19.11-14.91,38.68-27.22,62.74-31.87,6.69-1.29,13.92-1.41,20.79-6-19-17.49-37.74-34.74-56.59-51.81a9.26,9.26,0,0,0-6.37-2.31c-17.7,2-27.11-9-36.08-21.68-6.16-8.73-14-16.29-20.21-25-5.81-8.05-9.87-8-17-.85A303.31,303.31,0,0,1,1181,971.76c-9.07,5.55-19.19,8.5-26-2.13-17.06-26.79-43.16-43.37-67.35-62.21-19.64-15.3-28.82-12-35,13.89,2.16-.54,3.84-1,5.52-1.37,18.76-4.33,28.1,5,23.36,23.39-2.09,8.12-4.64,16.12-6.49,24.29-1.24,5.42-4.22,7.42-8.94,5-16.49-8.38-25.48-.18-32.71,13.7-3.2,6.16-7.75,11.61-11.57,17.46-8.48,13-13.81,26.94-14,45.41,17-12.53,32.23-23.79,47.49-35,5.66-4.17,12.49-10.59,18.56-8.18,14.06,5.59,17.47-4.44,23.21-12.32,2-2.76,2.82-7.21,7.85-6.93,11.73,32.77-6.84,55.88-28.23,79.33,18.35,2.07,29-5.45,37.06-17,6.15-8.74,11.21-18.25,16.91-27.31,1.91-3,3.44-6.47,8.36-6.07,18.91,1.53,30.4,23.6,20.36,39.6-6.29,10-15.38,17.41-24.1,25.14-9.06,8-18.26,15.9-26.92,24.34-2.76,2.69-6.86,6.71-4.29,10.85,2.13,3.41,7,1.28,10.49.61q24.69-4.69,49.32-9.78c33-6.83,57.67-25,73.61-54.84,7.77-14.52,6.78-18.16-6.92-27.4q-22.61-15.24-45-30.75c-4.33-3-10.11-8-.62-10.31,29.49-7.13,60.33-20.46,84.72,11.46a3.83,3.83,0,0,0,1.08.87c8.15,4.92,6.39,8.63-1.32,11.83C1267.37,1008.22,1265.53,1009.63,1260.5,1012.61Zm652.85-55.37c-10.16-25.53-23.61-50.42-38.44-74.68-4.59-7.51-8-6.5-13.92-1.81-12.83,10.2-24.86,20.94-34.12,34.68-10.76,16-17.12,17.44-33.52,7.2a331.29,331.29,0,0,1-57-44.85c-5.38-5.3-8.57-5.32-13.08.6-8.46,11.09-17.61,21.66-26.1,32.73-7.47,9.73-16,17-29.21,15.74a13.53,13.53,0,0,0-11.41,4.18c-27.31,28.42-61.53,50-82.57,84.68-7.12,11.73-6.58,13.62,7,16,5.7,1,7.5-2.2,9.83-5.59,5.27-7.68,11.16-15,15.5-23.22,5.11-9.66,10.84-9.13,18.84-3.94,20.8,13.5,34.91,33.29,49.92,52.25,6.75,8.53,13.12,17.37,20.38,27,17.23-27-12.66-38.4-18.23-61.23,39.28,22.37,75.84,40.76,114.57,54.45-20.1-17.25-43.5-28.58-66-41.37-23.18-13.16-45.43-27.55-63.13-47.86-2.9-3.33-8.53-6.52-6.59-11.32,2-5,8.43-5.34,13.38-5.61,7.87-.43,15.79.12,23.69.19,6.72,0,13.43,0,24.3,0L1699.05,955c31.59-32.16,32.91-32.56,74.33-23.58,5,1.09,10,2,15,3.17,3,.7,7.07.14,7.83,4.36.73,4.06-3,5.42-5.56,7.2-15.35,10.53-30.55,21.32-46.23,31.35-10.31,6.59-12,14.14-6.3,24.68,14.19,26.09,34.16,45.48,63.31,53.31,18.38,4.94,37.23,8.2,55.92,11.94,5.18,1,12.58,5.39,15.28,0s-4.28-10.39-8.14-14.85a57.51,57.51,0,0,0-6.24-5.6c-12.32-10.64-25.58-20.31-36.11-32.87-15.36-18.32-11.86-32.56,9.57-43.45,6.82-3.47,10.94-2.93,14.79,3.74,5.58,9.67,11.1,19.46,17.66,28.45,8.21,11.26,19,18,34.58,15.62-31.87-43.22-36.43-57.76-24.49-81.25C1882,954,1892.32,965.63,1913.35,957.24Zm-544.62,478.27c-1,12.74,7.27,22.17,19.6,23.29,2.31.21,3.9.63,3.23,2.6-4.54,13.3.18,22,12.84,27,2.63,1,1.49,2.33.45,4.11-6.06,10.38-4.68,20.13,3.6,28.57,2.31,2.35,2,2.73-.11,4.85-8.25,8.42-9.72,18.2-4.27,28.73,1.08,2.08,1,2.9-1.15,4.07-10.83,5.91-15.69,14.81-12.79,27.19.76,3.23-.25,4.12-3.35,3.54-9.79-1.82-10.14,6.86-15.2,12.78,8.76,1.65,16,2.81,23.17,4.42,7.79,1.75,9.08-3,7.5-8.34-.76-2.57-5.56-4.26-1.16-7.37a6.89,6.89,0,0,1,7.86-.17c2.82,2,2,5.21.68,7.6-5.19,9.44.43,10,7.89,11.73,10.42,2.43,16.88.19,20.7-10.08,2.75-7.39,6.78-14.31,9.57-21.69,28.57-75.66,0-161.08-65.88-197.12-88.41-48.33-196.06,5.88-225.88,102.4-1,3.2-1.78,6.43,1.21,9,16,13.87,32.1,27.51,53.52,40.64-4.77-12.89,7.8-22.88-3.7-31.77-1-.79-.33-2.39,1.21-3.08,12.51-5.61,17.48-14.72,13.43-28.29a2.17,2.17,0,0,1,3.3-2.53c6.46,4,8.25-2,10.76-5.15,4.24-5.41,12.84-8.82,9.31-18.25,7.16,1.65,12.87-1,19.09-4.64,6-3.5,10.67-6.69,10.37-15.12,3.94,6.54,8.64,7.08,14.57,5,6.48-2.29,14.94-1,17-10.39,4,8,11.81,7.11,19,8.53,6.29,1.25,10.38-.47,13.59-6.08C1342.71,1434.58,1357.25,1441.55,1368.73,1435.51Zm395.82-229.89c-11.67-23.44-27.66-35.58-48.88-41.58q-85.29-24.16-170.54-48.45a180.41,180.41,0,0,0-88.4-3.11c-24.11,5.19-48.28,10.11-72.43,15.16q-95,19.88-189.94,39.7c-26.26,5.45-45.13,19.47-56.47,46.48,6.71-1.19,11.23-1.86,15.7-2.8q168-35.34,336.09-70.7a104.47,104.47,0,0,1,51.14,1.59q55.68,16,111.42,31.79C1688.39,1184,1724.55,1194.25,1764.55,1205.62Zm61.52,64.17c3.77-20.36,3.76-20.34-14.83-25.65-73-20.82-146.53-39.78-218.68-63.13-50.66-16.39-98.92-19.32-151.47-6.77-113.6,27.16-228.4,49.33-342.86,72.8-12.48,2.56-12.3,9.7-11.06,18,1.56,10.57,9.32,4.42,14,3.46q201-41.79,401.9-84.06a47.27,47.27,0,0,1,23.4.85c42.51,12.21,85.12,24,127.69,36Q1740.07,1245.54,1826.07,1269.79ZM1317,1117c39.73-8.35,77.52-15.48,114.89-24.34,45.92-10.89,91.09-10.93,136.1,4.11,12.29,4.11,25,7.11,37.45,10.62-5.52-11.08-13.81-17.94-23.87-21.5-37.86-13.39-76.3-24.65-117.17-20.05-37.47,4.22-74.07,13.29-110.61,22.24C1338.63,1091.82,1326.46,1101.14,1317,1117Zm356.85,302.39c-9.27,6.3-9.49,12-4.32,18.86,3.62,4.8,6.24,10.36,9.83,15.2,12.33,16.6,24.94,32.77,6.32,53.32-4.22,4.66-1.56,8.59,5.11,8.58q29.27-.06,58.54,0c9.38,0,7.52-7.79,9-13,1.36-4.8,3.58-10.82-3.62-12.75C1716.54,1479.28,1688.69,1456.81,1673.84,1419.41Zm-175.93-395.87c-9.87-5.41-12.59-10.29-13-27.67-.21-8.11-3.09-11.52-11-12.63-18-2.51-23.43,1.13-26.24,18.87a44.61,44.61,0,0,1-1.8,6.66c-8.75,26.93-.25,37.6,27.65,35.23,7.47-.63,13.27-2.59,12.44-11.15C1485,1023.45,1491.29,1023.83,1497.91,1023.54ZM1156.6,933.25c15.82,22.37,9.76,21.73,31.13,7,4.37-3,8.44-6.46,14.92-11.46C1185.47,927.63,1171.94,931.71,1156.6,933.25Zm505.83,439c0,12.46-.09,21.84.06,31.22,0,2.53-1.28,6.47,2.1,7.15,5.23,1.05,9.42-2.92,14-4.87,3.13-1.34,3.82-4.24,2-6.87C1675.35,1391,1672.54,1381.54,1662.43,1372.22Z"/><path class="cls-1" d="M1415.23,890.49c0-20.46,14.78-41.74,34.48-48.63a49.46,49.46,0,0,1,56.3,16.69c14.77,19.1,16.31,41.9,3.18,61-7.23,10.49-14.08,20.93-15.06,34-.43,5.74-2.92,7.26-8.09,5.94-2.25-.57-4.83-.41-6.79-1.47-12.76-6.88-32.66,12-39.85-8.06-5.33-14.85-15.11-26.54-20.93-40.63C1416.1,903.5,1415.66,897.52,1415.23,890.49Zm52.3,58.08c5.65-3.48,15.74,8.2,19.43-4.44,3.19-10.93,9-20.23,15.32-29.55,12.54-18.53,8.27-42.63-9.54-57.74a40.88,40.88,0,0,0-52.63.34C1422.27,872.75,1418.62,896,1431,915c3.79,5.84,9.18,11.36,10.75,17.77C1445.23,947.09,1452.07,953.73,1467.53,948.57Z"/><path class="cls-1" d="M1529.28,858.91c1.94-4.58,6.21-5.77,9.62-7.78q70.88-41.65,141.93-83c5.15-3,13-10.79,16.75-4,4.72,8.64-7.15,8.14-11.92,10.83q-70.38,39.74-141.17,78.71C1540,856.17,1535.85,860.75,1529.28,858.91Z"/><path class="cls-1" d="M1395.13,850.31c-53-30.26-106-60.73-158.1-92.8C1292.63,783.39,1344.61,815.46,1395.13,850.31Z"/><path class="cls-1" d="M1468.84,682.14c1.68,39,7.19,78,.36,116.93C1468.72,760.09,1462.45,721.1,1468.84,682.14Z"/><path class="cls-1" d="M1259.45,887.81c-5.11,3.55-10.92,2.2-16.25,1.6-34.09-3.82-68.29-3.95-102.51-4-3.15,0-6.6.54-9.08-2.35,0-3.25,2.44-3.54,4.65-3.55,39.49,0,78.83,2.82,118.17,5.8,1.66.12,3.22,1.6,4.83,2.44Z"/><path class="cls-1" d="M1679.24,829.71c-31.56,13.17-63.23,26-97.94,32.15C1586.73,854.45,1668,827.09,1679.24,829.71Z"/><path class="cls-1" d="M1394.49,684.3c12.17,7.72,33.4,71.08,31.25,95.2C1414.82,745.19,1406,714.39,1394.49,684.3Z"/><path class="cls-1" d="M1758,831.43c-31.21,10.14-64.08,13.14-95.63,22C1692.94,840.84,1725.15,834.85,1758,831.43Z"/><path class="cls-1" d="M1218.8,866.07a667.14,667.14,0,0,1-88.41-11C1141.22,850,1201.68,857.91,1218.8,866.07Z"/><path class="cls-1" d="M1214.19,827.9c-21.26-3.83-41.43-10.15-60.25-20.26C1175.65,809.87,1197.8,810.76,1214.19,827.9Z"/><path class="cls-1" d="M1613.71,778.47c17.29-16.48,36.87-29.71,60.19-37.77l-57.54,40.95Z"/><path class="cls-1" d="M1259.45,887.81l-.19,0c18.18-.33,36.22-3.82,54.49-2.28,0,1.24,0,2.49,0,3.74-12.91.85-25.83,1.57-38.73,2.61C1269.23,892.29,1264.25,890.6,1259.45,887.81Z"/><path class="cls-1" d="M1701.1,799.61c-8.57,7.64-18.44,12.23-30.09,12.69C1679.69,804.93,1689.34,799.82,1701.1,799.61Z"/><path class="cls-1" d="M1313.71,889.22c0-1.25,0-2.5,0-3.74,12.28-2.94,39.18-2.54,53,2C1349.23,890.85,1331.27,886.36,1313.71,889.22Z"/><path class="cls-1" d="M1372.5,978c1.19-.78,2.32-2.71,3.72-.48.18.29-1.18,1.56-1.83,2.37Q1373.46,978.91,1372.5,978Z"/><path class="cls-1" d="M1374.39,979.87l-2.36,3.27-2.32-2.76,2.79-2.4Q1373.46,978.91,1374.39,979.87Z"/><path class="cls-1" d="M1601.33,717.46c-.92.67-2.27,2.11-2.7,1.87-2.09-1.15-.93-2.73,0-4.15Z"/><path class="cls-1" d="M1178.71,1488.76c-2.71-10.89,5.23-14,11.39-13.74,10.2.36,2.92,10.06,5.29,15.24,2.22,4.86-.9,9.17-8.28,8.54C1179.49,1498.15,1175.78,1495.91,1178.71,1488.76Z"/><path class="cls-1" d="M1264.1,1401.27c-6.13-12.07.18-12.62,8.3-13.76,8.6-1.2,8.56,3.09,9.47,9.29,1.71,11.61-4.22,14-13.95,14.17C1256.44,1411.23,1266.28,1402.58,1264.1,1401.27Z"/><path class="cls-1" d="M1246.66,1417.74c.52,5.64,1.64,11.47-7.05,11.89-3.67.17-7.67-1.82-8.35-3.82-1.49-4.38-.85-9.46-1.22-14.25-.67-8.91,7.65-5.35,10.33-5.65C1249.58,1404.88,1246.16,1412.73,1246.66,1417.74Z"/><path class="cls-1" d="M1201.31,1457.27c9.71-9,1-13.91-1.43-20.61,6.48.14,14.43-5.1,17-.11,3.6,6.93-3,14.86-3.32,22.64-3.22-.33-4-1.48-4.45-3.58-1-4.21,5.27-11.51-2-12.11C1200.68,1443,1205.13,1451.77,1201.31,1457.27Z"/><path class="cls-1" d="M1416.12,1564.26c.69-5-1.59-12.85,7.06-11.72,9.12,1.19,1.31,10.21,5,15.16,2.25,3-.89,8.44-6.2,8.17C1414,1575.47,1416.83,1568.87,1416.12,1564.26Z"/><path class="cls-1" d="M1410.84,1444.69c.06,1.41,1.6,5.84-2.62,8.69-2.44,1.65-7.38,1-7-.75,1.41-6.94.8-13.56.17-20.44-.19-2.1,4.4-3.1,7-1.42C1412.64,1433.62,1410.65,1438.15,1410.84,1444.69Z"/><path class="cls-1" d="M1433,1521.48c-.85,5.75,2,12.28-6.2,12.5-3.89.1-6.17-2.73-4.54-6.42,2.56-5.79-6.52-16.64,5.92-17.43C1438.2,1509.49,1425.66,1520.35,1433,1521.48Z"/><path class="cls-1" d="M1312.58,1390.68c-.85,4.72,2.19,11.88-5.51,12s-5.57-7-5.51-11.52c.07-4.94-2.54-12.76,6.21-12.38C1315.84,1379.18,1311,1386.73,1312.58,1390.68Z"/><path class="cls-1" d="M1382.08,1421.74c-.21,3.7-2.81,3.61-5,3.91-3.78.53-6.26-.72-6.3-5,0-5,5.58-9.25,1.23-15.22-1.44-2,2.68-4.15,5.68-3.77,4.11.52,4.42,3.5,4.84,7C1383.12,1413.26,1371.7,1417.4,1382.08,1421.74Z"/><path class="cls-1" d="M1425.5,1465.47c.7,6.2,1.38,11,1.72,15.81.22,3.07.85,6.62-2.45,8.54-2,1.17-2.89-1.08-4.23-2.24-2.71-2.36-6.73-4-4.52-8.59C1418.12,1474.64,1418.23,1469,1425.5,1465.47Z"/><path class="cls-1" d="M1341.35,1408.72v-22.9h3.86c1.34,7.62,1.68,15.27-.39,23Z"/><path class="cls-1" d="M1463,871.43c-5.71,5.69-9.92,14.38-19,17.19-4.1,1.27-6.48-2.53-6.58-6.78-.16-6.93,12.92-20,19.32-19.12C1461,863.27,1463.08,866,1463,871.43Z"/></svg>