<svg id="Layer_1" data-name="Layer 1" xmlns="http://www.w3.org/2000/svg" viewBox="0 0 2306.39 2506.21"><defs><style>.cls-1{fill:#a62b2a;}</style></defs><path class="cls-1" d="M1889,1968.09c-31.69,34-62.86,68.42-95.32,101.62-12.42,12.71-14,18.89,3.73,27.91,39.36,20,76.77,43.43,108.94,74.19a136.53,136.53,0,0,1,15.85,18.35c4.12,5.69,10.61,12.22,8,19.1-3.4,8.83-12.69,3.66-19.18,3.48-494.08-13.86-965.71,82.93-1415.67,286.79-6.2,2.81-11.73,8-21.49,6.36,11.25-59.48,35.69-113.07,68.81-162.5,11.71-17.49,10.59-23.84-9-31.85-37.22-15.2-73.32-33.14-117.18-53.3C894.29,2074.56,1378.91,1963.93,1889,1968.09Zm-234.49,170.24c-1.51-8.28-3.41-15.24-3.88-22.31-.44-6.55-5.62-15.67,2.88-19.12s11.67,6,15.3,11.77c7.21,11.45,14,23.18,28,27.67,5.15,1.65,11.31,4.34,14.77-1,3.69-5.69-1.55-9.11-5.95-12.74-17.16-14.16-26.92-27.41-1.88-45.35,14-10,7.61-31.65-9.79-39-21.68-9.09-44.35-3-66.56-2.16-11.3.45-4.61,8.66-4.27,14,1.41,22.38,6.51,45.37,3.11,67C1622.09,2143.76,1634.49,2142.14,1654.51,2138.33ZM895.72,2263.68c-3.73-9-7.57-17-10.4-25.47-1.53-4.57-6.85-10.11-1.42-14.43,6.47-5.17,11.48.43,16,4.79,10.23,9.92,19.39,21.42,35.27,22.6,6.19.45,13.85,2.7,15.74-5.39,1.52-6.51-5.62-7.08-10.28-9.69-17.23-9.61-32.36-19-12.59-42.05,12.46-14.53,1.3-34.48-18.58-37.07-23.13-3-43.63,8.29-65.13,13.78-8.07,2.06-2.92,7.11-1.2,12.13,7.55,22,17.5,43.89,20.08,66.57C866.07,2274.8,876.7,2272.84,895.72,2263.68Zm515.06-209c-37.72,1.56-37.61,1.55-33.62,37.85,1.65,15.1,4.81,30.44,3.59,45.37-1.9,23.37,9.11,26.58,27.84,22.21,3.46-.81,7.09-.89,10.63-1.37,35.15-4.79,47.6-19.51,45-53.21C1461.3,2066.72,1447,2053.16,1410.78,2054.66ZM593.19,2258.08c10.14,26.87,21.44,53.33,29.85,80.67,3.7,12,5.51,16.51,19.22,11.76,14.76-5.12,10.34-11.47,6.58-21.55-3.3-8.85-18.85-20.75.66-28.46,20.93-8.27,16.74,12,21.78,21.46,1.21,2.26.32,5.71,1.65,7.84,6.58,10.58,14.32,1.77,21.33.5,4.93-.9,11.36-3.34,5.78-10.59-17.61-22.91-18.32-52.35-30.19-77.46-2.15-4.54-1.64-12.05-9.4-10-6.74,1.81-17.94,5.09-18.31,8.64-.71,6.82,4.79,14.33,7.84,21.49,4,9.42,8.12,17.42-6.56,23-15.32,5.78-18.22-4.18-19.38-13.61C621.13,2248.05,610.74,2245.33,593.19,2258.08Zm474.24-74.49c-3.59-18.72-4.66-41.69-26.25-53.4-22.86-12.39-45.32-.07-67.64,4.72-8.37,1.8-4,6.89-2.64,12.05,6.59,25,12.39,50.29,18.53,75.45,1.18,4.84-1.56,11.2,4.94,14.05C1018.74,2247.13,1067.49,2213.37,1067.43,2183.59ZM831.22,2284.52c-24.6-26.56-43.52-52.77-61-79.92-6.54-10.17-12.71-5.77-20.46-4.4-10.37,1.83-8.71,7.08-7.95,15.26a523.41,523.41,0,0,1,.56,95.43c14.88-3.25,32.59.61,25-23.75-2.39-7.7,5.14-10,11.22-12.37,6.51-2.59,13.45-3.75,15.86,3.64C802.39,2302.51,816.37,2287.88,831.22,2284.52ZM1582,2120c-11.13,6.33-21,6.06-30.67,6-6.39,0-15.58,4.74-18.26-5.22-2.29-8.52-4.21-18.42,11.23-17.61,5.06.27,5-6.58,4.42-11-.54-4.08-.78-10.53-7.3-7.7-14.93,6.46-11.41-5.06-12.41-12-1.44-10,5.26-11.72,13-12.78,11.31-1.53,22.59-2,34.48.72-7.49-23.8-27.71-26.6-76.19-12.31,7.26,17.86,7.94,36.78,8.87,55.64,2.15,43.56,2.12,43.34,46.86,41.48C1570.32,2144.63,1584.07,2144.74,1582,2120Zm-360.13,66.95c17.76-.68,30.45-8.35,40.44-20.95,4.59-5.78,10-12.31-.19-17.25-6.26-3-12.52-9.12-18.7,3.81-8.6,18-26.81,19.18-41.47,9.3-13.52-9.11-17.49-25.26-8.9-40.78,9.31-16.81,24.44-22.51,40.78-11.63,9.51,6.32,14.89,4.42,19.58-2.92,7.26-11.36-4.57-13.85-10.5-17.07-20.26-11-40-8.87-57.63,6.1-18.23,15.53-25.1,35.56-16.58,58.17C1177.85,2178.1,1200.4,2183.31,1221.82,2186.91Zm119.46-20.45c-11.32-28.65-12.66-57.59-15-86-1-12.29-3.52-15.38-15.4-14.07-13.06,1.44-12.85,6.53-10.24,17.78,4.87,21,10.25,42.77,9.23,63.92C1308.5,2176.43,1320.91,2174.62,1341.28,2166.46Z"/><path class="cls-1" d="M1544.7,528.94c-13.2-13-28.84-22.24-46.89-25-25-3.82-33-15.19-32.76-41.67.46-53.79-1.84-107.92-15.8-160.57C1420.63,193.8,1326.86,139.74,1219.13,169c-7.65,12.2.12,27.3-7.09,41.91-17.08-11-17.28-33.1-32.87-42.72-102.56-28.06-175.58,12.31-206.1,113.63-14.67,48.73-18,98.93-20,149.3-1.72,44.39-1.69,44.17-46.25,52.48-33.1,6.15-58.31,23.15-70,56.23-10.84,30.82,4.53,53.85,23.34,75.65,14.19,16.44,31.37,28.4,50.69,37.09.39-20.61,6.92-67.58,54.21-103.79,0,0,49.26-26.64,130-14s110.91,30.62,269.56,51.35,124.2,22.33,184.51,15h0a70.84,70.84,0,0,0,13.14-22.22C1570.41,557.91,1558.79,542.76,1544.7,528.94Zm-200-261c-6.51-7.6-12.33-17.53-1.94-25.86,9.55-7.68,16.45,1.23,22.75,7.29,33.46,32.17,36.94,114.35,2.1,156.18,2.38-20.62,4.94-35.56,5.67-50.57C1374.88,322.47,1366.31,293.12,1344.72,267.92Zm16.48,197.16a808.44,808.44,0,0,1-165,2c-2.49-.23-3.2-.06-.7-4.85C1250,464.35,1305.56,468.1,1361.2,465.08ZM1139.87,215.22c38.34,17.39,74.69,20.59,113.41-1.21a139.48,139.48,0,0,1,83.57-16.82c11.73,1.27,24.91,2.43,34.92,20.09-50-10.53-92.73.35-132.64,18.3-41.41,18.61-77.43,15.2-114.05-10.25-13.48-9.38-30.33-13.91-47.95-21.66C1101.86,196.59,1121.14,206.72,1139.87,215.22Zm-96.31,19c5.18-2.28,11.27-3.92,15.51-.54,27.64,22,61.56,22.09,95.1,28.56-46.32,18.06-83.94,45.51-108.59,88.78-7.71,13.55-15.68,8.23-23.6.82C992.11,323.89,1005.54,251.09,1043.56,234.24Zm109.79,226c-63.28,1.63-125.42-8-188.23-20.15Zm-253.6,88.21c0,.1.07.2.1.3l-.32-.09-.08.08-1.36-.48,1.44.4.22-.21c-5-15.42,8.18-19.17,17.12-20.7,17.24-3,34.31-9.51,58.45-6C948.22,535.7,919.16,529.91,899.75,548.49Zm289.46-14.6c-61.59-13.17-122.89-28.46-186.38-29.43-43.62-.66-86.34,3.61-125.68,25.07-3.57,2-8.54,1.34-13.8,2,16.06-23,33.22-32.65,69.18-38.26,83.45-13,165.36-.75,246.34,17.88,63.1,14.52,125.42,32.44,188,49.06,4.7,1.24,11.36.88,12.18,14.35C1315,560.85,1252.11,547.34,1189.21,533.89Zm101.8-5.62c40.52-2.1,80.25,1.18,119.54-6.31C1371.87,535,1332.13,533.73,1291,528.27Zm219.22-3.36c-1.59-.46-2.81-2.23-4.18-3.44,1.43-.51,3-1.58,4.27-1.37s2.53,1.65,3.84,2.6C1512.79,523.54,1511.22,525.2,1510.23,524.91Zm6.25,56.67c15.63-17.76,18.19-35,2.11-54.67,14.66,5.3,23,14,23,29.5C1541.54,572.18,1533.47,580.58,1516.48,581.58Zm-25.7,36.8.1-.1a2099,2099,0,0,1-242.59-33.65A2096.59,2096.59,0,0,0,1490.78,618.38Zm-466.52-69.15c-59.27,10.67-85.79,32.29-95.81,82,10-49.71,36.58-71.29,95.91-81.93a175.35,175.35,0,0,1,32.86-2.62A177.28,177.28,0,0,0,1024.26,549.23Z"/><path class="cls-1" d="M1857.52,1626.82c39.37-38.21,69-77.47,91.94-121.64,5.81-11.16,16.48-23.49-7.46-30-11-3-5.67-15.48,2.68-17.65,31.3-8.15,62.93-15.4,94.8-20.83,13.32-2.27,12.62,10.35,6.85,16-49.37,48.13-63.44,121.27-117.91,165.63-4.84,3.94-7.91,10.37-13.09,13.54-50.67,31-56.75,83.71-66.48,134.79-2,10.27-2.6,18.53,7.61,26,13.08,9.54,8.46,20.29-4.7,23.44-33.21,8-67,13.67-100.51,20.2-5.75,1.11-11.43.18-13.07-6.18-1.47-5.68,1.5-12,6.54-13.56,31.72-10.11,28.54-39.89,37.64-63.33,20.06-51.66,17.08-100.82-9-149.71-9.67-18.12-14.69-38.66-22.93-57.62-11-25.42-27.63-27.53-42.84-5-11.55,17.09-20.85,35.69-31.34,53.52-3.09,5.25-5.33,12.94-13,11.94-9.21-1.21-6-9.65-6.12-15.26-.45-21.92-13.48-28.48-32.33-25.31-19.47,3.27-38.44,9.44-57.88,12.91-15.92,2.84-16.27,15.71-18.27,26.44-14.1,75.81-24.62,64.47,50.82,50.12,15.32-2.92,29.21-8.76,38-23.13,2.73-4.45,7.61-9.33,13.26-5.8,5.15,3.21,4.19,9.87,2.19,14.81q-18.2,45-37.15,89.76c-1.63,3.85-4.46,8.55-10.09,6.27-5.32-2.15-3.93-7.36-4-11.7-.78-31.71-.49-29.45-33.32-25.27-33.49,4.26-50.71,18.72-54.2,53.43-2.84,28.24-11.46,55.89-15.75,89.09,34.08-36.54,70.46-21.17,106.84-11.84,19.78,5.08,37.42-1,51.84-15.48,8.15-8.17,12.3-18.07,8.25-29.48-3.63-10.24-12.72-11.49-22.19-11.42-4.18,0-9.86,1.93-11.38-3.7s2.09-10.18,6.26-14c17.53-16.06,43.79-6.57,49.4,18.71,6.83,30.81-6.19,54.35-29.73,73.12-10,8-21.23,14-33.63,16.66-70.32,15.26-140.69,30.34-211.18,44.81-7.53,1.54-19.2,8.69-23.11-4.18-2.85-9.43,6.88-14,14.3-16.92,13.7-5.31,18.25-16.77,21.18-29.22,19.81-84,39.34-168.14,59.13-252.19,2.18-9.25,3.68-18.5-5.22-24.51-31.94-21.54-3-24,9.6-27.15,41.89-10.35,84.35-18.39,126.49-27.81,65.68-14.67,131.23-29.93,197-44.4,7.92-1.75,18.82-8.09,24.16,2.76,4.71,9.57-4.81,13.92-11.73,18.09-8.71,5.25-8.78,12.76-5.6,21.12C1831.43,1558.19,1843.83,1590.79,1857.52,1626.82Z"/><path class="cls-1" d="M525.15,1911.79c64.14,26.31,77.63,75.71,37.84,134.82-22.13,32.88-54.43,52.66-91.12,63.77-62.86,19-127.91,28.88-192.32,41.19-7.58,1.45-19.84,7.33-23.55-4.21-3.62-11.27,8.72-13.77,16.4-17.63,9.72-4.89,13.63-12.8,16.12-23.2,20.52-85.65,41.8-171.11,62.26-256.77,2.58-10.82,9.85-22.75-10.36-29.76-15.41-5.33-5.16-16.07,4.85-19.19,15.38-4.8,31.39-7.83,47.29-10.7,37.15-6.68,74.2-14.49,111.65-18.63,27.72-3.07,57.43-3.29,73.29,27,11.78,22.48.82,65.24-21.24,87.2C546.87,1895,535.94,1902.82,525.15,1911.79Zm-15.29,81c.41-11.73-4.77-25.35-19.43-34.13-28.34-17-100.85,10.36-110.27,42.33-7.34,24.91-12.08,50.58-19.28,75.54-3.84,13.33-1.62,18.76,12.93,16.18,35.48-6.29,70.42-14.22,100.7-35.19C495.43,2043,509.47,2024.17,509.86,1992.76ZM395,1943c41.73-18,71.45-43.19,98.12-72.37,11.18-12.23,20.83-25.58,11.43-43.27-6.61-12.44-18-19.61-31.15-14.48-18.33,7.17-46.11-3.5-53.64,24.86C411.05,1870.49,404.14,1903.66,395,1943Z"/><path class="cls-1" d="M1215.8,1801.54c-22.14,7.39-33.69,19.9-37.58,40.82-4.1,22.08-10.74,43.68-15.77,65.61-3,13.17-11.41,26.29,8,36.85,10.5,5.71,1.56,14.35-7.07,16.32-30.7,7-61.55,13.31-92.41,19.56-5.88,1.19-13.57,3.51-16.22-4.63-2.53-7.79,3.43-11.28,10-13,17.45-4.56,23.11-18.29,27.08-33.75q32.55-126.83,65.29-253.58c2.91-11.33,6.56-21.93-10.11-28.23-10-3.79-7.89-15.28,2.21-17.55,34.2-7.68,68.79-13.63,103.31-19.76,2.66-.47,7,2.15,8.77,4.63,3.28,4.67,0,9.2-4,11.06-49.86,22.85-34.53,74.13-49.65,112.9,46.64-23.44,85.64-54.68,113.39-98.69,6.1-9.68,5.64-17.27-7.2-23.47-14.62-7.06-9.35-16.41,3.11-19.24,32.46-7.37,65.29-13.14,98-19.37,4.46-.85,9.56-.7,11.32,4.56,1.6,4.81-1.3,9.26-5.2,11.38-65.83,35.7-90.58,110.88-148.37,154.29-6.1,4.58-10.93,9.58,0,15.83,23,13.14,26.45,37,30.92,60.17,3.23,16.74,5.87,33.71,10.7,50,4,13.65,15.5,18.19,27.92,11.7,12-6.29,18.2-15.51,2.72-26.3-6.9-4.81-3.74-11.53.16-16.41,5.78-7.22,14.23-8.13,22.1-4.5,14.6,6.75,17,20,15.52,34.21-3.75,35.74-38,65.9-78.74,69.71-36.66,3.42-57.7-12.08-71.25-51.75C1223.16,1862.57,1222.79,1832.49,1215.8,1801.54Z"/><path class="cls-1" d="M858.92,1851.85c8.23,15.24.69,30.13-.36,44.67-2.72,37.82,15.9,62.26,53.38,67.79,29.88,4.42,57.78-.73,81.29-20.32,25.21-21,23.84-52.59-2.63-70.92-7.3-5.06-16-15.76-25.47-4.08-8.73,10.8-20.54,22.48-9.52,38.11,3.42,4.85,11.25,7.13,6,14.88a17.48,17.48,0,0,1-16.27,7.88c-8.19-.57-12.79-6-14.8-13.58-4.48-17,.32-32.55,9.49-46.26,9.78-14.61,5.35-21.45-9.33-28.09-33.7-15.26-55.18-40-54.85-79.14.35-41.28,21.8-70.07,56.72-88.42,37.85-19.89,77.36-22.41,116.72-2.8,10.49,5.22,20.55,11.58,33.09,6.29,4.64-2,10.33-6.39,14.38-.29,4.52,6.81-1.84,11.72-5.38,16.55-18.62,25.42-36.89,51.13-56.41,75.86-15.22,19.28-23.13,33.07,6.84,48.41,26.61,13.63,37,41.27,34.07,71.5-10.61,109.48-139.58,143-199.47,107.18C828.4,1968.32,817.93,1888.88,858.92,1851.85Zm131.49-154.7c-29-.84-50.27,18.27-50.5,41.71-.22,22.59,24.27,47.49,46.57,47.34,12.45-.08,32.13-32.38,31.75-53.66C1017.86,1712.1,1008.88,1698.35,990.41,1697.15Z"/><path class="cls-1" d="M797.77,1794.3c0-13.49-.2-27,.06-40.46.22-11.72-1.82-21.5-15.45-24.57-5.62-1.27-10.11-4.86-9.12-11.33,1-6.29,6.39-7.85,11.9-9.08,22.81-5.07,45.56-10.4,68.37-15.43,4.24-.94,9.36-2,11.83,2.93a9.38,9.38,0,0,1-3.52,12c-25.75,16.86-22.15,43.35-22.25,68.16-.2,54.3-5.83,107.86-22.7,159.59-17.85,54.77-47.32,101.29-101.83,126.44-29.48,13.61-60.4,21-89.26-1.69-27.73-21.8-29.69-52.36-23.48-83.62,12.08-60.83,25.69-121.36,38.32-182.08,3-14.4,9.38-28.71-12.16-37.89-12.34-5.25-4.66-15.67,5.7-18.08,31.51-7.35,63.26-13.69,94.93-20.33,5.29-1.11,11.28-2.51,13.33,4.67,1.69,5.92-1.23,11-6.59,13.25-23.84,9.75-27,31.54-31.69,52.69-12.12,54.4-24.88,108.67-36.48,163.18-4.82,22.67-11.79,47.55,12.82,63.73,15.76,10.37,45.73-2.61,65-27.19,32.9-42.1,41.69-92.84,49-143.77,2.43-16.88,2.81-34.06,4.12-51.1Z"/><path class="cls-1" d="M1219.14,169c-7.66,12.21.12,27.31-7.1,41.92-17.08-11-17.28-33.09-32.87-42.72-16.45-27.22-32-55-49.71-81.4-10.74-15.95-6.85-25,9.2-30.71,9.2-3.26,19.52-3.26,28.95-6,19-5.59,32-3.8,26.63,29.38,36.91-56.34,88-68.42,141.68-71.49,52.85-3,103,9.62,154.48,36.5-13.09,5.13-22.55,8.19-31.44,12.45-33,15.81-66.54,29.57-97.83,49.71-33.82,21.76-74.57,31.77-115,33.63C1223.52,141.31,1215.94,147.88,1219.14,169Zm-39.28-80.71c-8.75-1-20.84-.7-21.82,7.4-.93,7.76,7.63,16.52,18.37,24.46,1.13-13,2-22.64,2.81-32.33,1-.86,2.11-1.71,3.17-2.56l-2.26-.65Zm-42.61-10.26c18.46,3.06,32.59,3,44.31-8.58.76-.75-.71-5.79-1.83-6.08C1164.4,59.54,1150.48,61.46,1137.25,78.05Z"/><path class="cls-1" d="M1314.66,887.48v.9h-.23c0-.23-.22-.45-.45-.68C1314.21,887.7,1314.43,887.48,1314.66,887.48Z"/><path class="cls-1" d="M1466.29,764.05c-.22,0-.22.23-.45.23v-.45Z"/><path class="cls-1" d="M1466.07,762.92c0,.45.22.68.22,1.13l-.45-.22C1465.84,763.6,1466.07,763.15,1466.07,762.92Z"/><path class="cls-1" d="M1458.62,815.27c18.73,38.81-13.76,55.51-33.17,78.08-5.64,6.31-6.54,2.93-10.61-2.71-8.34-11.51-18.95-12-29.1-.68-32.5,35.65-38.36,35.65-71.08-1.58v-.9c7-2.94,13.31.9,19.63,3.16,14.21,5,26.17-1.36,38.13-7,8.13-3.83,12.19-11.73,6.55-19.85s-10.83-.91-14.9,3.15c-7.67,8.13-14.21,2.26-21.66-.45-20.53-7.67-29.78-.22-27.75,21-.23,0-.45.22-.68.22.23.23.45.45.45.68-20.53-14.67-44.45-23.69-62-42.42-5.42-5.87-13.54-13.54-8.12-20.76,5.86-8.12,14.44-1.13,21.43,2.71,36.56,19.85,64.54,3.16,65.89-38.81.23-7,28.43-19.18,37.46-15.8,9.48,3.61,16,21.21,29.11,7,11-11.74,9.25-26.4,5-40.84-1.13-4.07-1.35-8.35-2.48-15.35,23.24,27.76,18.95,55.28-11.73,79.65,9.47,7.68,21.43,12.41,26.17,24.15,2.93,7.67,5.64,16.24,15.8,15.79,11.05-.45,13.76-9.93,16.69-18.5,1.13-3.61,2-7,2.94-10.38,8.8-15.57-4.29-38.13,15.34-50.54C1466.52,781.65,1467,799.25,1458.62,815.27Z"/><path class="cls-1" d="M2069,1353.44c-1.58-9.48-9.48-9.26-17.15-7.67-6.09,1.12-12.41,2-18.73,3.38-97.71,19.63-195.85,39-293.34,60-17.82,3.84-23-.91-27.75-17.15-25.28-88.68-78.75-152.08-167.88-182.78-16.25-5.4-31.59-13.08-46.94-20.75-62.73-31.14-120.94-67.92-156.82-131.32-5.19-9.26-13.76-16.7-21.44-24.15-7.44-6.55-17.37-11.51-13.31-23.7,4.07-11.5,14.67-11.5,24.6-12.86,32-4.28,52.8-22.33,63.4-53.7-31.82,43.1-72.65,52.13-121.85,37.45-45.12-13.53-81.67-37.9-107-82.35-8.13,23.24,2.49,32.71,13.54,44.68,29.33,31.59,77.17,47.15,82.81,100,2,19.41,5.19,37.46-4.28,54.84-8.36,14.89-14.9,29.79-13.77,50.09-27.53-21-51.9-40.39-77.17-58.44-5.64-4.06-10.61-20.08-20.09-7.45-6.76,9,2.94,16.48,10.61,21.44,18.28,11.73,36.55,22.79,54.83,34.53,4.74,2.93,8.81,7.21,5.65,13.31-2.26,4.73-7.23,4.28-11.74,3.38-56.64-11.51-112.82-23.69-161.57-57.31-17.37-11.74-24.14-28.21-19.63-49.19,3.62-16,5.2-32.05,2.26-48.29-3.83-21.21,7-25.73,25.28-20.54,11,5.87,21.88,13.54,38.13,11.73-9.93-15.11-26.85-11.73-36.78-20.75-7-7.22-13.76-16.25-12.86-26,2.48-34.07-2.48-68.14-.23-102,1.36-22.57,15.8-37.46,39.94-40.85,14-2,28.21-5,42.2-7.44,8.12-1.35,11-6.54,7.44-13.54-2.93-6.09-8.34-16.25-15.56-9.25-22.57,22.56-36.11,14.21-48.29-10.38-1.81-3.83-9-5.18-13.77-7.89-30-17.15-46.7-52.81-40.61-87.11a37.46,37.46,0,0,1,1.67-6.43c5.23-14.5,18.37-19.21,33.07-22,16.48-3.38,27.75,4.06,36.11,17.38.37.59.73,1.2,1.07,1.83,2.79,5.11,4.28,11.24-1.75,14.86-6.09,3.84-8.35-4.28-11.73-7.67a46.46,46.46,0,0,0-6.88-6.38c-5.29-3.85-11.33-5.59-19.08-2.64a38,38,0,0,0-6.9,3.67,27.41,27.41,0,0,0-12.27,20.47c-1.58,17.83.9,34.75,18,47.84,4.06-16.47-3.83-30.69,1.35-44.68,2.26-6.32,5.42-12,13.09-10.61,10.84,1.81,5.87,8.58,4.07,14.22-6.55,20.08,4.51,32.72,18.72,43.55,4.52,3.61,7.44,12,14.9,8.57,6.09-2.48,4.06-9.25,4.06-14.21,0-6.32-1.13-13.76,6.54-15.8,5.64-1.35,9.48,3.84,13.31,7.67,3.84,3.61,5.65,9.7,12.64,9.7,4.06-13.76-9.93-30.46,6.32-42.42,3.83-2.7.67-4.28-.91-5.86-3.83-4.29-17.82,2.94-12.85-10.38,3.38-8.57,11.5-10.61,20.3-7.22,5.41,2.25,8.8-.68,10.61-5.19,0-.11.1-.23.16-.35,1.25-2.7,4.34-6.5-.84-8.45-22.79-7.9-12.86-25.73-8.35-37.46,5.87-14.66,25.27-9.25,37.23-11.73,11.51-2.48,10.84,17.38,12.19,28.43,1.57,13.31,5.87,14.89,17.14,7.89,14-9,28.21-20.75,50.55-10.82-12.86,8.13-22.34,14.43-32.26,20.08-5.82,3.41-11.78,6.61-17.81,9.76-4.72,2.47-9.48,4.91-14.24,7.38,8.58,12,20.08,18.06,31.14,16.93,20.76-2,40.62-20.76,62.05,1.36,4.29,4.51,9.25-10.38,15.12-13.54,9.93,3.38,4.06,21.21,18.28,17.15,10.82-2.94,10.15-13.32,11.06-22.34a13.2,13.2,0,0,1,.9-5.19,34,34,0,0,0,2.16-6.78c2.45-10.59,3-22.9,20-21.43,14.58,1.33,24.05,7.88,28.13,19.51a45.21,45.21,0,0,1,2.33,14.56c0,15.12-2.49,31.37,9.47,47.17,1.35-7.23,2.7-11.52,3.16-15.8.45-6.32.23-13.54,9-13.76,8.13-.23,5.65,7,6.77,12,2.26,9.48,8.13,7.45,14.22,4.07,7.22-4.29,12.41-12.19,22.11-12.41,1.81,3.38,3.38,5.63,3.83,8.34a170.63,170.63,0,0,1,2.71,18.51c-5,19.4,1.59,37.68,5.2,56.18,6.54-18.95,4.51-38.14,1.8-57.31,3.42-21.52,1.43-44.57,9.08-65.07a63.47,63.47,0,0,1,13.83-22.16l.1-.1a2099,2099,0,0,1-242.59-33.65l-3.84-.77q-61-12.12-121.59-27.4c-20.64-5.27-41.95-9.22-63.49-9.73l-2.15,0a177.28,177.28,0,0,0-33,2.54c-59.27,10.67-85.79,32.29-95.81,82-1,4.81-1.8,9.88-2.47,15.23-.19,1.5-.37,3-.54,4.59-.07.6-.13,1.2-.19,1.81L925,655l-.3,3.22c.28,1.43.56,2.85.86,4.27,10.38,50.38,33.56,95.09,61.64,137.89,19.63,30,28.44,63.85,30.24,99.73,2,40.62-3.15,80.79-10.15,120.73-1.35,7.89-.68,18.5-5.41,23-39.72,36.56-67,84.62-111.93,116.66-103.56,73.33-209.39,143.28-316.12,212.11C551.75,1386.83,529,1401,519,1426.77c-27.07,71.53-55.28,143.06-53,221.58.22,14.67-4.51,20.31-19,23-46,8.34-91.83,18.27-137.64,27.53-15.8,3.16-31.6,6.54-47.61,9.7-6.54,1.35-12.63,4.06-11.74,12,1.35,9.71,8.81,10.16,16.48,8.57,3.61-.67,7-1.8,10.6-2.48q835.68-169.58,1671.8-338.92c35.43-7,70.64-14,105.83-21.43C2061.54,1364.71,2070.57,1363.14,2069,1353.44Zm-801.94-231.52c4.06-15.57,8.12-31.13,14.44-46,5-12,6.32-38.13,18.28-32.27,14.89,7.45,37.68,19.63,35.42,45.36.67,32.94-29.1,62.5-54.38,56C1266.37,1141.33,1264.11,1133.43,1267.05,1121.92Zm74.91,366.9c-16.25,4.51-34.07,5.19-49.87,11.06-23.92,8.8-37.23-1.35-47.83-20.76-19.63-35.43-39.49-70.86-59.12-106-15.12-27.76-30-55.51-50.54-79.65-8.13-9.71-16.93-19-30-21.67-7.45-1.35-18,4.29-20.3-7.44-1.81-11.06,10.15-10.83,16-15.58,2-1.57,3.62-3.83,6.32-7-18.5-11.5-25-30.24-34.75-53.93,33,16,49.2,45.14,82.37,60.92-9.71-26.85-33.85-38.35-38.37-64.3,37.46,7,73.56,14,109.89,20.3,17.38,3.16,28.44,14,29.56,30.46,2,33,17.37,60,32,87.79,8.12,15.56,12,30-3.84,45.57-7,6.78-8.35,6.32-13.31,1.58-4.75-4.51-10.15-5.42-13.54,0-4.07,6.1,2.48,8.81,6.09,12.87,22.56,24.81,53.93,43.09,58.89,81,1.59,10.6,8.13,6.77,13.76,2.71,14-10.16,21.9,1.35,24.38,10.6C1364.52,1493.11,1348.73,1486.79,1342,1488.82Zm42.87-74.69c-.22,7.45-4.28,8.8-10.6,5-10.83-6.77-33.4,6.1-33.4-23.69,10.16,7,19.41,19.4,23.69-1.36,1.13-6.09,3.61-14.21,12-9.25C1387.32,1391.56,1385.51,1403.53,1384.83,1414.13Zm-39.49-110.56c-12.4-21.89-19.41-45.81-26.85-68.15-15.56-5.41-4.51,21-16.25,12.41-9.47-7-16.92-20.53-19.39-32.49-2.71-13.77.9-28.65-12-39.49-4.74-4.06-2-8.57,2.26-10.38,7.67-3.16,16.48-5.41,20.76,4.74,6.09,14.67,11.28,30,16.92,45.13,3.61-6.77,6.1-14.22,10.61-20.08,7.66-9.93,18-22.35,29.56-20.76,12.41,2,9.7,19,12.18,29.56,12.18,53,21.89,106.28,24.82,167C1368.36,1347.12,1357.53,1324.78,1345.34,1303.57Z"/><path class="cls-1" d="M899.45,548.78l-1.36-.48,1.79.51Z"/><path class="cls-1" d="M1231.16,1325.24c.07,8.3-4.17,13-11.32,11.56-15.29-3.12-28.44-11.59-35.74-25.1-3.6-6.65,5-10.67,11.56-9.88C1211.34,1303.71,1224.08,1310.7,1231.16,1325.24Z"/><path class="cls-1" d="M1663,2073.68c-8.8,1.65-15,1.08-15.24-7.78-.39-14.92,11.53-11,19.39-11.14,7.09-.12,19.79-2.89,18.6,8.13C1684.37,2075.23,1670,2071.49,1663,2073.68Z"/><path class="cls-1" d="M884.15,2200.46c-7.85,2.06-12.61-.71-12.55-7.12.13-15.67,14.16-12.91,23.35-15.64,5.43-1.61,15.21-2.73,13.38,6.62C905.92,2196.67,892.25,2196.5,884.15,2200.46Z"/><path class="cls-1" d="M1440.75,2104.18c.54,16.31-2.07,26.28-13.28,31.71-13.13,6.35-24.18,8.39-23.43-12.27.19-5.32-1.85-11.07-.43-15.91,3.25-11.07-16.1-30.87,10.06-32.67C1436,2073.51,1441.43,2090,1440.75,2104.18Z"/><path class="cls-1" d="M1043.84,2182.11c.22,17.37-9.22,26.64-23.53,29.08-17,2.89-9.14-13.4-13.1-20.57-2.46-4.44-3.35-10.38-3.13-15.56.43-9.59-14.74-23.64,5.27-27.93,17.32-3.72,29.24,4.4,32,23.14C1042,2174.65,1043.17,2179,1043.84,2182.11Z"/><circle class="cls-1" cx="771.68" cy="2254.41" r="6.83"/></svg>