<svg id="Layer_1" data-name="Layer 1" xmlns="http://www.w3.org/2000/svg" viewBox="0 0 2206.48 2491.14"><defs><style>.cls-1{fill:#fff;}</style></defs><path class="cls-1" d="M1093.73,1376.05c-80.58,0-161.21,1.74-241.73-.38-149-3.93-298-10.16-446.69-20.34-48.15-3.3-96.33-6.35-144.4-10.63-46.21-4.11-75.57-30.61-84.08-76.27-7.89-42.35-6.15-83.08,25.77-117.26,18.1-19.37,41.52-25.46,66.07-27.11,132-8.85,263.88-18.86,396.14-23.62,105-3.78,210-4.86,315-7.63,137.9-3.63,275.7.18,413.49,2.86,138.89,2.7,277.68,9.65,416.26,20,44.56,3.34,89.17,6.15,133.71,9.78,42.68,3.48,76.84,39.29,81,86.58,2.15,24.12,3,48.23-6.35,72.24-18.15,46.44-54.38,61.08-100.07,63.59-184,10.1-367.76,22.84-552.06,27C1275.08,1377,1184.38,1375.33,1093.73,1376.05ZM967.59,1275.23h-2.45c0,11.91-.68,23.86.23,35.7.69,9,3.06,18.76,14.66,19.2,10.65.4,15.58-7.34,17.93-16.69a61.57,61.57,0,0,0,1.82-12.37c2.29-55.22,15.24-108.33,31.22-160.9,2.23-7.3,11.06-16.57,1.27-22.42-10.42-6.22-23.47-5.45-33.86,2-6.83,4.88-9.95,13.28-11.81,21.56-3.54,15.69-6.81,31.45-10.24,47.18-3.32,15.27-19,22.82-44,20.44-17.11-1.63-8.51-15.4-9.84-23.8-1.47-9.32-.22-19-.42-28.59-.17-8.11,2.1-18.31-9.09-20.58-11.53-2.34-18.55,4.14-23.16,14.87-7.74,18-7.46,37.26-9.6,56.1-.92,8.11-1.39,14.55-10.57,18.34-6.69,2.75-13.21,13.71-5.21,16.29,20,6.45,15.22,22.61,18.63,35.69,5.1,19.58,9.06,39.56,21,56.53,5.95,8.44,14.78,10.72,23.73,7s5.34-12.17,4-18.9c-4.59-23.49-6.23-47.17-6.39-71.09-.06-9.67,3.7-14.07,12.58-16.11,27.22-6.24,30.64-3.48,29.59,24.56C967.42,1264.51,967.59,1269.88,967.59,1275.23Zm377.51-61.56c.08-22.53-8.52-36.81-24.44-40.6-32.09-7.62-68.31,12.1-83,45.18-15.14,34.15-6.51,81.31,18.06,98.74,23.16,16.43,55.34,10.85,65.21-11.12,4.42-9.83,1.89-18-6.58-23.28-9.7-6-13.91.77-16.34,9.26a9.11,9.11,0,0,1-.66,1.66c-4.85,9.58-13,9.79-21.33,6.43-9.91-4-15.38-12.6-14.2-22.68,1.53-13,11.57-4.06,16.93-3.82C1318.75,1275.26,1345,1252.1,1345.1,1213.67Zm-198.6,49c-9.2-24.26-12.13-49-16.52-73.33-1.52-8.45-2.92-17.78-14.52-16.32-10.11,1.28-11.08,10.5-10.53,18,2.93,39.86,7,79.6,24,116.56,5.07,11,10.39,23,24.88,22.2,15.37-.83,19.36-13.28,22.76-26,11.71-43.73,22.5-87.85,49.3-125.72,2.93-4.13,7.35-9.65,2.65-14.55-5.27-5.49-12.31-3.56-18.19-.17-12.82,7.37-20.95,19.28-28.79,31.31C1167.65,1216,1155.64,1238.35,1146.5,1262.64Zm-66,1.91c.57-22.21-2.59-44-7.08-65.67-1.64-8-5.26-12.74-14.37-12.6-10,.16-10.81,6.77-12.19,14.23-6.23,33.64-1.67,67.93-6.54,101.67-1.57,10.89,3.25,19,15.4,19.65,11.3.56,19.12-3.37,21.36-16.35C1079.49,1291.86,1080.18,1278.26,1080.55,1264.55Zm-25.82-91.71c9.42-1.25,20.08-3,20.81-16.11.68-12.11-7.16-19.14-18.59-19.17-11.07,0-19.72,6.4-19.86,18.34C1037,1165.79,1042.89,1172.38,1054.73,1172.84Z"/><path class="cls-1" d="M1886,1048.63c-43.11.68-77.31-5.09-111.73-7-44.6-2.53-89.12-6.26-133.71-8.93-80.19-4.81-160.36-10.54-240.62-13.48-109.13-4-218.35-4.78-327.57-5.08-122.39-.34-244.7,3.07-366.82,9.16-110,5.49-220.23,10.35-329.81,23.16-17.71,2.07-35.67,2.43-53.53,2.8-52.15,1.06-82.51-32-87.09-80.23-6.81-71.67,39.63-130.86,110.36-143.78,113.2-20.67,227.12-35.32,341.71-45.84C790,769.93,892.83,763.9,996,760.48c95.51-3.18,191-1.88,286.28,2.32,119.64,5.27,239.06,14.61,358,29.84,73.33,9.4,146.57,19.57,219,34,78.75,15.64,124.38,93.95,97.78,170.88C1944.85,1032.6,1916.18,1050.2,1886,1048.63ZM1050.51,946.4c24.63,7.91,46.51,10.22,63.09-9.63,18.39-22,17.4-47.66,7.22-72.52-9.61-23.48-28.79-33.81-54.27-32.23-7.46.46-14.17,2.08-17.46-9.26-2.68-9.26-19.5-8-24.55,1.77-3.47,6.68-5.3,14.54-6.38,22.08-5.69,39.75-4.41,79.63-1,119.47.76,8.83.52,17.93,4.84,26.17,3.37,6.43,6.51,12.88,15.62,11.68,9.76-1.28,12.65-8,12.81-16.44C1050.7,974.44,1050.51,961.38,1050.51,946.4Zm-262.13-61c-.86-14.14,2.06-27.46,10.42-38.94,11-15.13,30.91-15.9,40.33-1.28,4.39,6.8,8.16,12.69,16.49,7.68,7.43-4.48,6.33-11.74,3.71-19.09-8.82-24.66-32-36.09-57.48-28-47.81,15.2-70.2,78.48-45.2,128.47,24.36,48.72,68.94,49.41,107,26.15,6.46-4,14.26-9.25,8.63-18.56s-13.1-5.28-19.94-.61a48.63,48.63,0,0,1-4.56,2.82c-20.46,11-36.71,6.22-48-14C792,916.22,789.26,901.07,788.38,885.44Zm630.87,23.23c0-2.38-.19-4.78,0-7.14.76-8.25-.11-16.65-9.16-19-9.37-2.44-11.17,7.28-14.6,12.9-5.89,9.67-11.12,19.79-19.31,27.76-7.15,7-14.89,8.49-20.28-1.74-5.65-10.73,2.16-35.91,14.5-47.38,10-9.31,20.94-13.48,33.49-3.63,4.62,3.62,10.59,3.91,14.43-1,3.59-4.58,2.66-10.3-.86-15-9.69-12.81-23.06-14.88-38.19-13.93-27.31,1.72-60.72,50.87-57,84.93,2.85,26.36,20.22,39.72,45.53,31.78a63.51,63.51,0,0,0,16.13-7.54c9.56-6.42,15-3.88,18.58,6.48,1.12,3.31,3.29,6.35,5.39,9.22,4.8,6.56,9.35,16.25,19.26,11,8.63-4.61,4.6-13.82,2.13-20.93C1424,940.23,1419,925,1419.25,908.67ZM889.5,909c-.24,37.08,21.31,58.46,44.88,45.76,21.75-11.72,38-19,51.37,8.9,2,4.27,8.52,6.84,14.22,3.24s5.76-9.07,3.29-14.21c-10.38-21.61-19-43.63-20.32-68a11,11,0,0,0-8.89-10.16c-5.66-1.21-8.44,3.11-10.54,7.68-2.73,5.95-5.28,12-8.34,17.79-5.92,11.21-10.75,29.62-26,23.2-14.64-6.16-8.85-24-4.42-36.79,8.09-23.41,18.71-28.42,42.81-22,4.81,1.27,9.57,1.45,12.91-3.2,4-5.57.79-10.29-2.37-14.63-10.4-14.33-38.3-15.63-55.09-1.86A90.86,90.86,0,0,0,889.5,909Zm340.63,1.26c.88,7.4,2,14.47,2.51,21.58,1.21,17,9.08,28,26.89,30,17.43,1.91,37-8.74,42.87-23.12,1.56-3.84,4-8.28,0-11.5-4.23-3.41-7.62.16-10.67,3.12-4.64,4.52-9,10.33-16.67,6.93-8.71-3.86-8.92-12.21-8.63-19.84.72-18.44,2.44-36.83,3.23-55.26.59-13.6,4-23.19,20.69-21.89,7,.54,15.38-.57,15.26-10.7-.13-10.37-8.95-8.3-14.71-7.87-13.83,1-14.25-5.09-11.37-16.11,1.48-5.67,8.8-14.8-2.26-18.09-9.16-2.71-19.38-1.22-26,7.11-3.18,4-5.89,9.58-6,14.53-.32,11.91-5.52,17-17.23,17.18-3.82.05-7.89,1.89-11.35,3.8-3.78,2.09-6.71,5.87-4.57,10.34,1.65,3.44,4,7.28,9.52,5.67,16.29-4.72,16,5.59,14.6,16.56C1234.19,878.6,1232.13,894.53,1230.13,910.26Zm262.07-66.38c0-11.29-.08-22.58,0-33.87.08-8-2.46-14.56-11-15.76-9.43-1.33-14.24,4.67-15.9,13.17-3,15.14-6.28,30.25-8.08,45.54-4,33.62-7.84,67.3-5.53,101.29.46,6.7,1,13.61,9.32,15.17,8.84,1.67,13-4.24,15.81-11.26a107.09,107.09,0,0,0,5.32-17C1488.92,909.12,1490.94,876.53,1492.2,843.88ZM1187.35,902.7c.41-19.69-1.95-37.36-5.76-54.9-1.55-7.17-4.34-12.14-12.78-12-9.17.17-10.29,6.37-10.82,13.32q-3.45,44.55-6.92,89.09c-.78,9.8,2.81,16.58,13.1,17.7s17.5-3.47,19.32-14.06C1185.82,928.37,1188.3,914.83,1187.35,902.7ZM1165.86,823c7.74-.06,17.12-1.11,17.42-13.28.29-11.79-7.09-17.14-18.26-16.85-10.34.26-17,6.05-17.25,16.45S1154.26,823.9,1165.86,823Z"/><path class="cls-1" d="M1859.34,1421.08c-110.34,11-220.94,18.66-331.64,24q-154.56,7.41-309.33,10c-213.6,3.36-427-2.65-640.23-15.84q-74.91-4.62-149.64-11.21c-36.76-3.23-73.63-6.16-110.49-7.06-34.61-.9-64.46,20.35-75.31,50.12-27.37,75.13,16.69,155.81,95.26,171.58,75.31,15.11,151.37,25.76,227.68,34.78,66.85,7.92,133.71,15.41,200.88,20.21,45.14,3.19,90.14,11.18,135.21,11.29,146.71.39,293.53,3.76,440.17-5.88,49.9-3.26,100-4,149.47-12.25-3-13-4.62-25.91,4-37.66,4.69-6.41,10.89-9.74,18.63-6.66,9.17,3.65,5.16,10.42,2.9,16.48-2.69,7.34-4.05,14.87,5.77,17.16,8.17,1.9,13.36-3,15.69-11,4-13.79,2.15-27.44-2.47-40.37-4.44-12.54-12.72-5.63-19.81-2-28.66,14.87-48.4,6.88-55.53-24.29a105.48,105.48,0,0,1,.86-51.12c2.4-9,5.16-17.7,10.71-25.83,4.58-6.7,9.78-7.13,14.79-4.87,3.91,1.75,6.67,5.51,6,12.57-1.36,14.62-6.41,28.73-5.16,43.78,1.15,13.94,1.33,28.63,18.67,30.85,12.79,1.61,26.69-20.53,23.32-36.44-3.44-16.23-5.8-32.71-12.14-48.29-2.8-7-12.4-16.45,2-21.75,12.86-4.76,24.72-4.37,31.21,10.86,8.77,20.56,12.14,42.38,14.18,64.31,3.33,35.5,8.67,71.11-.28,106.62,7,2.72,14.15,1.32,21.21.64,37.26-3.76,74.19-10.6,111.63-12.83v-.25c-.18-11.21,2.51-19.27,8.17-24.64,5.23-5,12.61-7.17,22-6.53,1,.08,1.75.11,2.29.11v-.28c.07-7.21,2.87-24,26.84-24h20.45c9.85,0,19.71,0,29.56,0,21.14,0,24.86,12.79,25.51,18.23.61,5.23,1.86,7.1,2.29,7.38,1.47,1,8.35-1.11,11.64-2.15l2.48-.75c15.76-4.69,29-14.29,43-24.43,7.41-5.38,15.08-10.93,23.21-15.77,6.35-3.76,12.36-8,18.71-12.39,2.9-2,5.8-4.09,8.74-6.06l1.93-1.29,2.33-.21c1-.07,2.08-.18,3.12-.25a153.8,153.8,0,0,1,5.26-17.81C1980.22,1494,1955,1411.58,1859.34,1421.08ZM836.28,1506.31c-2.55,28.52-5.2,57-8.32,85.45a333.4,333.4,0,0,0-1.68,44.67c.14,6.38.9,13.87-7.7,16-8.14,2-13.65-2.4-18-8.71-3.91-5.66-4.84-12.1-5.31-18.7-1.46-22.14.79-44.1,2.69-66.06.72-8.31,1.51-16.62,1.94-24.94.18-4,1.07-9.45-3.77-10.92-4.51-1.37-7.3,3.08-9.6,6.55-8.92,13.51-15.4,28.23-21.1,43.28-3.3,8.67-7.38,15-18,13.26-9.68-1.58-10.79-8.49-12.58-16.73-3.62-16.52-1-33.11-2.72-49.55-.5-4.66.5-11.32-4.66-12.51-6.81-1.54-8,6-9.89,10.57-11.57,27.27-16,56-17.05,85.41-.22,6.56-.25,13.15,0,19.71.36,8.63-1.68,16-11.5,17.12-10.21,1.15-16.69-3.44-19.27-14.08-5.31-22.14-1.22-44,1.57-65.74,3.52-27.3,10.64-53.67,24.72-77.78,7.6-13,17.2-24.22,33.43-22.6s21.32,15.22,24.9,29.12c2.47,9.6,5.3,19.1,8.71,31.32,11.82-12.58,17.19-25.84,28.12-34.47,8.81-7,17.52-16.27,30.09-9.71C833,1482.38,837.46,1493.41,836.28,1506.31ZM904,1610.46c-3-.18-6.3-1.33-8.88-.36-6.06,2.22-14.87-9.17-17.92,2.18-2,7.31,2.3,15.16,9.68,19.6,7.81,4.66,16.19,6.09,22.75-1.32,4.55-5.13,6.12-13.62,15.83-10.64,5.91,1.82,8.67,6.66,9.1,12.14.72,9.35-4.83,15.44-12.5,19.88-21.93,12.72-56.61.72-66.75-23.1-22.67-53.35,16.91-109.56,74.24-105.37q28.59,2.1,29.12,31.21C959.23,1589.86,938.24,1611.28,904,1610.46Zm177.67,56.78c-3.91,4.09-8.14,5.13-12.58,1.83-6.27-4.62-11.46-10.5-14.33-17.84-5.23-13.58-13.68-12.79-23.36-5.45-9.28,7.06-19.85,11-31.1,10.21-20-1.43-29.09-14.29-29.23-45.85,1.25-26.16,18-50,45.54-66.25,15.87-9.31,38.37-5.09,47.36,7.17,3.51,4.73,7.41,10.24,2.54,16.12-4.08,4.91-9.71,4.48-14.51,1.11-11.28-7.92-21.53-5-30.88,3-12.11,10.35-19.92,23.86-19.63,39.84.21,12.72,13,17,23.07,8.52,9.24-7.73,14.94-18.27,20.81-28.55,2.87-5.09,4.73-11.11,12.76-10,7.81,1.15,10.17,9,10,13-1.15,23.1,8.53,42.74,17.55,62.66C1088,1662,1084.55,1664.16,1081.62,1667.24Zm120-10.32c-2.08,7.06-4.91,13.55-13.87,14.26-8.2.61-11.39-3.36-13-11.1-1.86-8.64-9.28-5.09-14.87-4.84-39.12,1.54-62.73-20.38-63-58.61s26-59.69,63.91-49.94c14.19,3.61,15.12-1.19,14.59-12.26-.58-11.89-.54-23.86-.26-35.75.26-9.93,2-20.92,14.44-20.82,10.72.07,10.75,11.07,12.08,19,5.23,30.67,5.16,61.77,6.88,87C1208.73,1612.28,1208.09,1634.93,1201.64,1656.92Zm69.36-19.16c8.45,3,17.19,3,21.71-6.2,2.86-5.91,3.22-13.22,12.5-11.5,5.73,1,9.93,4.33,11.11,10.17,1.54,7.49-.61,13.76-6.41,19.28-19,18-55.75,13.29-70.91-9.42-29.48-44.25-2.83-106.7,49.34-115.65,28.3-4.84,43.17,7.84,43,36.86-.18,33.14-20.82,52.13-56.22,52.81-6.05.11-16.3-5.55-17.84,4.73C1256.06,1627.15,1262.26,1634.68,1271,1637.76ZM1438.09,1554c-1,10.32-5.34,19.14-16.8,19.57-11.18.43-12.93-8.21-12.65-17.38.15-4.37-.14-9.14-6.37-7.88-8,1.65-15.23,5-14.55,14.94,1.18,16.62,2.83,33.17,4,47.36-.72,11.25,1.36,20.28-3.3,28.7-7.09,12.86-18.27,13.47-25.86.93-2.76-4.51-5.34-9.53-6.31-14.65-6.38-32.71-12.36-65.49-12-99,.11-10.42,2.4-18.88,14.44-21.1,12.43-2.33,15.3,5.45,16.77,15.19,1.9,12.29,8.6,9.06,16.7,5.84C1418.07,1516.2,1440.49,1529.88,1438.09,1554Z"/><path class="cls-1" d="M1089.08,699.3c-86.33-1.78-185.35,1.72-284.11,8.36-103.94,7-207.84,15.6-311,30.71-18.92,2.77-38.06,2.41-56.22-6-35.35-16.33-42.54-51.18-36.81-82.95,10.55-58.53,65.27-107.05,124.64-114.07,72.75-8.61,145.34-18.57,218.34-25.13,92.66-8.31,185.51-12,278.48-14.85,136.71-4.13,273,2.26,409.2,12.66,80.75,6.17,161.14,16.29,241.34,27.8,61.5,8.82,110.78,51.65,123.76,108.58,13.65,59.85-24.55,102-85.15,94.2Q1567.1,719.95,1421.82,710C1315.28,702.58,1208.64,698.54,1089.08,699.3Z"/><path class="cls-1" d="M1732.37,1743.77c-.78.82-3.94,1.86-11,.68-29.24-4.87-42.49,17.73-47.11,26-5.88,4.69-35.44,8.52-44.29,6,0-.75,0-1.69-.07-2.47,0-4.27-.14-10.75-5.33-15.27-3.59-3.15-8.42-4.33-14.73-3.54a36.87,36.87,0,0,1-6.63,0c-5.44-.28-12.21-.68-19.06,2.94-46.32,24.36-60.69,51.05-54.88,101.89,4.55,39.63,29.7,65,74.84,75.24l.68.14c5,1.18,13.54,3.15,19.7-2.26,2.58-2.25,5.52-6.59,4.8-14.26-.5-5.33.51-6.66.54-6.66.47-.47,2.47-1.15,10.75-.64,9.57.57,19.78,1,30.06-.11,11.82-1.29,19.17,3.11,24.65,14.76l1.5,3.19c-3.33,1.47-7.34,1.72-11.21,2.29-117.8,18-236.24,29.34-355.22,36.79-116.3,7.31-232.59,7.85-348.85,5.23-108.41-2.43-216.57-10.71-324.41-22-48.54-5-96.66-13.9-145.06-20.42-56.89-7.67-115.76-72.48-112.86-131.55,2.05-41,26-67.43,67.11-67.64,26.47-.15,52.77,4.44,79,7.55,36.75,4.38,74,8.21,111.24,10.39,56.25,3.34,112.39,8.14,168.24,15.77,40,5.48,79.82,6.88,120.31,5.59,73.91-2.37,147.89-.54,221.87-1.11,116.9-.9,233.52-8.85,350.06-17.2,37-2.62,74.09-6.49,111-10.68,34.72-3.94,69.18-10.42,104.18-11.5l0,.33.32,1.46C1734,1739.76,1733.13,1743,1732.37,1743.77Z"/><path class="cls-1" d="M1541.16,463.42c-36.09-3.88-72.14-8.2-108.28-11.53-40.32-3.71-80.67-7.65-121.09-9.49-106.71-4.86-213.53-7.21-320.3-3.76-101.81,3.29-203.64,7.57-304.64,22.66-11.72,1.75-23.82,1.76-35.71,1.45-36.51-.95-56.49-23.42-55.36-59.85.47-15.24,11-23.73,19.92-32.37,45-43.38,101.65-62.79,161.37-74.37,153.09-29.7,308-15.62,462.14-17.41,83.64-1,166.71,7.57,246.72,34.83,42.39,14.45,80.16,36.1,109.48,70.89,17.61,20.91,5.14,61.65-22.65,73.27A73.21,73.21,0,0,1,1541.16,463.42Z"/><path class="cls-1" d="M1107.21,2189.12c-66.21,0-132.49,1.78-198.62-.46-79.43-2.68-158-13.09-231.12-47.18-27.55-12.84-52.6-30.48-72.8-53.55-21-24-7.15-66.36,24.51-77.19,15.7-5.37,31.8-4.26,47.83-2.23,68,8.62,136.25,13.37,204.58,17.85,98.85,6.49,197.79,8.1,296.76,6.12,120.38-2.4,240.26-12.58,360-25,40.94-4.26,66.6,20.38,64,59.41-1.3,19.7-16,30.21-29.09,40.75-59.83,48.12-131.37,64.69-205.3,74.75C1281.28,2194.14,1194.18,2189.7,1107.21,2189.12Z"/><path class="cls-1" d="M2173,1624.79c-.93.93-4.51,1.32-10.67,1.36-28.16-.18-56.79-.14-84.45-.11-29.2,0-59.36,0-89-.18-14,0-25.61,3.33-36.61,10.75-17.59,11.93-35.58,23.9-53,35.47-16.51,11-33.6,22.36-50.37,33.68-7.16,4.83-11.07,7-16.08,6.09-3-.58-12.33-2.33-19,3.4-6.09,5.27-6.7,13.44-6.45,21.5.25,8.52.51,17.34,7.46,22.78,4.65,3.62,10.89,4.55,19.13,2.8,13.25-2.83,22.46,2.08,29,15.47,7.38,15.09,19.78,17.13,30.92,17.13h.07c5.23,0,10.5-.11,15.73-.22,17.91-.35,34.86-.71,51.7,3,53,11.68,90.21,57.14,90.53,110.56.07,15.33-.18,31-.47,46.14-.07,3.69-.1,7.38-.17,11.07-23-3.61-48.66-6.66-75.2-6.66-5.81,0-11.65.14-17.52.47-.08-2.19-.11-4.37-.18-6.52-.33-12.26-.65-24.9-.25-37.19.14-4.87-.25-11.93-5.27-17s-11.89-5.37-17.41-5.19c-13.47.46-27.27.36-40.63.25-6,0-12,0-18.09-.07-5,0-13.22,0-20.71,7.16-46.93,44.64-82.22,48.83-139.83,16.7a27.89,27.89,0,0,0-6.52-2.58c-9-16.09-22.68-23.22-40.92-21.25-8.92,1-18.27.54-27.05,0-7.09-.43-17.8-1.08-24.72,6-4.19,4.37-6.05,10.5-5.62,18.74-.93-.18-1.86-.39-2.47-.54l-.75-.18c-38-8.63-57.36-27.62-61-59.79-5-44,5.16-62.81,45.43-84,2.33-1.21,5.23-1.14,9.75-.89a52.21,52.21,0,0,0,9.74-.07v1.29a31.84,31.84,0,0,0,.82,7.92,16.23,16.23,0,0,0,3.84,6.87c7.09,7.35,25,6.74,38.73,5,18.84-2.47,30.34-7.28,34.21-14.26,8.21-14.76,16.3-19.71,28.84-17.63,12.18,2,21.28,0,27-6,5.48-5.8,7.09-14.51,4.8-25.9.29-5.48-1.15-9.92-4.3-13.22-5.55-5.77-13.94-5.16-18-4.91-4.84.36-8.38-.32-9.92-1.86-1.79-1.79-2.55-6.23-2.12-12.47a181.86,181.86,0,0,0-.07-19.27c-.11-2.69-.21-5.34-.28-8-.08-5.62.82-9.67,2.57-11.32s5.56-1.83,8.42-1.65c3.19.22,10.72.75,16.16-4.23,3.44-3.22,5.23-7.81,5.3-13.65,0-3.47.08-6.23,8.93-6.23h20.49c9.81,0,19.67,0,29.48,0,1.76,0,7.49.18,7.74,2.4,1.15,9.89,4.52,16.55,10.32,20.32,8.53,5.55,18.59,2.47,26.69,0l2.33-.72c18.7-5.59,33.78-16.51,48.37-27.08,7.41-5.38,14.43-10.46,21.89-14.87,6.87-4.08,13.43-8.67,19.77-13.11,2.22-1.54,4.41-3.08,6.63-4.59,26.48-2.11,53.6-1.75,79.82-1.43,14.4.18,29.31.36,44,.14,28.41-.43,57.79-.43,87.34,0,7.45.14,9.82.68,10.39,1,1.51,2,1.83,13,2,21.85C2174.4,1623.21,2173.19,1624.64,2173,1624.79Z"/><path class="cls-1" d="M2103.83,2433.68c-.33,36.19-34.15,63.92-69.26,56.14-16.3-3.61-23.89-16.3-26.55-32.24-4.19-24.94,2.58-48.69,8.71-72.19,8.63-33.1,14.22-65.92,9.53-100.49-3.94-29.17,6.56-57.69,8.49-86.71,1.72-25.36,7.06-50.94-3-75.77-3.26-8.1-6.2-19-17.38-17-9.78,1.72-9.31,12.22-10.89,20.42-3.87,20.17-2.55,40.45-1.58,60.62.61,12.36-3.22,23.5-6.77,34.79-4.23,13.29-15.3,16.12-27.23,15.26-11.46-.86-17.95-7.74-19.56-19.56-2.11-15.48-2.58-30.74,1-46.11,5.73-24.69,5.12-48-11.18-69.76-11-14.68-7.74-33.42-8.38-50.3-1-25.47,7.84-49.15,16.59-72.65l4.19-.36c38.22-3.33,76.06,1.68,108,7l5.34.9c6.77,19.56,9.31,40.77,23,57.79,3.12,3.86,2.69,11.57,2,17.3a1114,1114,0,0,0-7.17,122.63c-.07,21.25-5.33,42.39-7.45,63.67-4.48,45.07-1.5,88.88,18.09,131C2100.24,2395.17,2104,2414.41,2103.83,2433.68Z"/><path class="cls-1" d="M287.43,629.87c5.38,20.4,5.86,40.79-.27,61.18-13.66.08-27.34-.06-41,.27-34.37.82-68.85-2.13-103.14,1.5-2.42-23.07-3.68-46.12,1.16-69.13,2.42,7.15,10.36,5.7,17.19,5.73Q224.4,629.71,287.43,629.87Z"/><path class="cls-1" d="M1993.24,654.49c18.9-4.84,37.8-2.53,56.71-.06.23,7.13.58,14.26.64,21.4q.49,60.84.88,121.67c-19.82,5.46-39.62,6.15-59.39-.37C1993.16,749.59,1990.75,702,1993.24,654.49Z"/><path class="cls-1" d="M225.75,782.44c-40.7,5.45-74.55-23.46-82-69.21-.12-.77-.39-2.52-.46-3.28a27.13,27.13,0,0,1-.22-4.21c34.28-5,68.78-.93,103.14-2.08,13.65-.43,27.34-.25,41-.36C292.28,742.14,260,777.86,225.75,782.44Z"/><path class="cls-1" d="M1979.56,654.49c-3.67,47.51-.11,95.1-1.72,142.64-45.14-.88-77.83-30.16-78.56-70.36C1898.51,684,1936.42,649.9,1979.56,654.49Z"/><path class="cls-1" d="M2065.71,797.5q-.64-60.84-1.3-121.67c-.09-7.14-.62-14.27-.95-21.4,38.08-3.27,70.55,22.41,77.89,61.61,5.9,31.5-17.59,67.39-51.22,77.39C2082.28,795.76,2073.86,796.19,2065.71,797.5Z"/><path class="cls-1" d="M287.43,619.26q-63-.28-126-.61c-6.83,0-14.77,2-17.19-7.87,2.56-40.51,36.3-70,78.22-68.34C259.77,543.91,289,578.42,287.43,619.26Z"/><path class="cls-1" d="M1276.29,1253.55c-8.48-1.21-17-3-11.77-16.27,4.36-11.17,10.07-21.35,18.86-29.59,5.55-5.2,12.37-8,19.47-4.92,7.64,3.3,5.63,11.2,5.15,17.32C1306.49,1239.32,1293.74,1252.85,1276.29,1253.55Z"/><path class="cls-1" d="M1063.4,857.07c16.25-.19,23.94,10.06,29.86,21.08,6.31,11.74,9.22,24.81,1.53,37.26-4.74,7.65-12.78,11.55-21.52,8.79-10.47-3.29-23-5.69-25.41-19.22-1.76-9.86-1.92-20.06-2.16-30.13C1045.41,862.06,1052.65,856.71,1063.4,857.07Z"/><path class="cls-1" d="M1179.66,1608.87c1.72,12.05-.64,24-19.2,24.2-16.74.18-34.32-19.87-34.67-39.29-.28-15.6,7.78-25.2,21.36-25.46C1167.44,1567.94,1179.49,1582,1179.66,1608.87Z"/><path class="cls-1" d="M925.26,1561.34c-1.67,9.8-4.53,20.25-14.56,26.24-8.5,5.07-18.73,7.78-26.64.56-9-8.2,1.69-14.61,5-21.17,4.35-8.64,11.1-15.47,20.72-18.4C920.11,1545.42,926,1548.62,925.26,1561.34Z"/><path class="cls-1" d="M1297.94,1564.67c0,8.66-2,16.86-8.06,23-8.1,8.29-19.36,13-29,6.37-10.25-7-.22-15.77,2.93-23.34,2.79-6.67,7.48-12.11,13.08-16.73,4.9-4,10.48-6.42,16.44-3.62S1297.63,1559.48,1297.94,1564.67Z"/><path class="cls-1" d="M135.77,1660.43c17.33,9.91,29.7,25,42,40.2-4.77,5.3-9.45,10.7-14.35,15.89q-41.76,44.24-83.6,88.39c-18.43-10.11-33.54-23.67-43.65-42.4C69.86,1729,101,1692.94,135.77,1660.43Z"/><path class="cls-1" d="M126.41,1651.44c-35.54,31.74-65.93,68.54-100,101.72-31.95-31.9-35.26-75.66-7.95-105.16C47.48,1616.64,98.47,1618.26,126.41,1651.44Z"/><path class="cls-1" d="M89.53,1814.26q41.67-44.31,83.32-88.67c4.88-5.21,9.44-10.71,14.13-16.09,29.74,24,35.38,65,13.53,98.39-17.55,26.8-59.35,36.43-90.54,20.35C102.69,1824.49,96.32,1819,89.53,1814.26Z"/><path class="cls-1" d="M1736.94,135.77c-9.92,17.33-25,29.7-40.2,42-5.3-4.77-10.7-9.45-15.89-14.35q-44.25-41.76-88.4-83.6c10.12-18.43,23.68-33.54,42.41-43.65C1668.38,69.86,1704.42,101,1736.94,135.77Z"/><path class="cls-1" d="M1745.92,126.41c-31.73-35.54-68.53-65.93-101.71-100,31.89-31.95,75.65-35.26,105.16-7.95C1780.73,47.48,1779.1,98.47,1745.92,126.41Z"/><path class="cls-1" d="M1583.1,89.53q44.33,41.67,88.67,83.32c5.21,4.88,10.72,9.44,16.09,14.13-24,29.74-65,35.38-98.38,13.53-26.81-17.55-36.43-59.35-20.36-90.54C1572.87,102.69,1578.39,96.32,1583.1,89.53Z"/></svg>