<svg id="Layer_1" data-name="Layer 1" xmlns="http://www.w3.org/2000/svg" viewBox="0 0 7666.49 982.71"><defs><style>.cls-1{fill:#fff;}</style></defs><path class="cls-1" d="M2558.65,411.25c0,124.2.29,248.4-.31,372.6-.09,18.26,1.41,29.58,24.54,28.52,16.45-.75,33.39,3.4,49.73,7,39.25,8.77,58.06,34.19,54.54,72-3.05,32.84-29.87,57.67-67.23,59.13-37.12,1.45-74.34.42-111.52.47-19.48,0-39-.61-58.42.19-17,.7-31.43.46-35-21.53-2.71-16.68-13.54-8.35-21.81-4.26-56,27.63-115,44.69-177.12,52.43-182.75,22.77-360.21-91.26-402.38-259.31-54.78-218.28,118.46-442.77,344.65-448.35,82.09-2,157.87,16.6,227.67,58.78,18.83,11.38,25.45,8.5,27.49-13.17a923.59,923.59,0,0,0,1.22-153c-1.14-15.77-7.63-21.27-22.91-21.15-13.2.09-26.45-2-39.62-3.52-38.9-4.52-63.77-31.47-63.38-68.42.38-36.06,27.09-64.79,65.85-65.8,61.93-1.63,123.93-.2,185.89-.88,15.25-.16,17.6,8,17.64,19.77.12,36.11.43,72.22.45,108.33Q2558.73,271.19,2558.65,411.25ZM2417.77,641.77c0-9.68.29-19.37-.11-29-.22-5.23-1.4-10.46-2.48-15.62-19.75-94.46-77.06-156.29-169.8-180.33-96-24.88-181.7-.73-247.58,74.74-105.2,120.52-56.25,294.6,93.32,337.27,46.61,13.3,94.1,12.45,141.86,7.61C2342.31,825.31,2418.45,745.64,2417.77,641.77Z"/><path class="cls-1" d="M6906.7,474.59c0-99.57-.84-199.16.55-298.71.38-26.76-9.62-37.15-35-36.59-16.83.38-33.59-.19-49.8-5.95-31.14-11-47.66-36.33-45-69.66,2.32-29.54,22.25-53.52,52.9-58,66.87-9.83,134.36-3.58,201.57-4.9,15.23-.3,13.13,12.09,13.32,21,.93,44.91,1.39,89.84,1.61,134.77.24,50.23-.2,100.46.28,150.68.09,9.05-4.91,20.2,5.22,26.89,11.48,7.58,19.86-2,28.72-7.08,107.26-61.21,220.19-75.76,337-34.22,228.37,81.21,316.06,363.76,172.38,552-63.82,83.62-154.11,117.71-254.87,130.12-91.42,11.27-177.91-6.26-259.95-47-13.47-6.68-25-13-30.08,9.29-2.63,11.5-14.23,16.36-25.17,15.94-61-2.33-122.29,4.16-182.95-4.48-39.32-5.6-58.75-27.68-60.08-62.37-1.27-33.05,14.63-55.1,46.39-65.49,17.93-5.86,36.57-7.23,55-7.88,22.12-.77,28.46-11.06,28.33-31.72C6906.34,679,6906.7,576.81,6906.7,474.59Zm377.49-66.17c-83.42,0-155.21,37.11-200.93,104C6998.6,636.16,7052.48,789,7195.53,828.25c48.91,13.42,98.92,17.35,149.61,7.67C7438.8,818,7503.8,759.14,7517,678.78,7540.77,534.45,7432.28,408.48,7284.19,408.42Z"/><path class="cls-1" d="M3197.19,693.43q-142.11,0-284.22,0c-30.92,0-34,5.1-17.3,32.57,38,62.31,96.09,93.31,166.6,105.8,91.44,16.21,179.46-3.2,267.64-22.83,31.9-7.1,63.75-14.69,96-20.16,45.2-7.68,75.43,10.93,85.47,50.46,8.71,34.26-10.66,66.68-50.73,81.39A900.69,900.69,0,0,1,3307,962.07c-107.17,19-215.33,26.48-321-3.45-267.8-75.85-324.57-375.23-182.16-547.38,151.31-182.91,456.56-190.46,618.76-17.11,75.73,80.94,95,179.93,89.67,286.44-.93,18.37-13.8,12.62-22.91,12.65C3392,693.55,3294.59,693.43,3197.19,693.43Zm-76-138.81c70.72-.57,141.46.74,212.13-3.6,17.41-1.07,21.59-6.29,13-22.44-11.29-21.31-24.8-40.65-43-56.37-67.81-58.4-148.42-72.93-233.57-60-73.54,11.18-135.2,45.38-172.45,113.81-9.31,17.09-7.22,24.33,14.42,25.47C2981.48,555.21,3051.32,553.94,3121.15,554.62Z"/><path class="cls-1" d="M6612.85,633.86c0,53.71.3,107.42-.19,161.12-.14,15.27,5.5,20.34,20.71,18.18,23.52-3.34,45.43,4.64,67,12.52,24.51,9,40,25.77,41,52.76,1.09,28.07-11,49.4-35.84,62.91-13.43,7.3-28.1,9.83-43.52,9.75-54.89-.29-109.77,0-164.66-.19-9.27,0-21.13,3.32-24.5-9.65-6.83-26.37-21.43-17.45-37.87-10.36-88.52,38.2-181,54.55-277.11,43.93-65.33-7.22-122.06-33.71-168-81.88-58.73-61.55-67.93-144.3-21.93-215.55,65.33-101.2,163.57-143.81,279.75-153,63.77-5,127.42-1.89,190.52,8.16,21.84,3.48,29.31-3.72,31-24.94,3.45-44.07-17.45-75.54-62.55-88.34-64.13-18.19-128.06-9.46-191.84,2.81-38.2,7.35-76.17,16.22-114.61,21.93-52.93,7.86-85.82-22.57-84.51-74.79.61-24,11.79-41.25,33.65-49,129.66-46,261.71-69,398.09-33.17,104.39,27.42,159,96.23,162.81,204.12,1.67,47.49.28,95.1.28,142.65Zm-401.28,205c90.77-.52,162.13-27.61,230.86-63.26,8.3-4.3,15.88-11.65,21.39-19.3,19.45-27,9.28-78.22-16.69-81.32-62.85-7.49-125.15-22.23-189.47-12.44-53.23,8.1-103.86,20.47-145.45,57.41-45.93,40.8-37.79,85.94,19.75,106.07C6161.53,836.38,6192.08,839.75,6211.57,838.87Z"/><path class="cls-1" d="M737,440.72c-1.13,24.61-1.3,49.32-3.61,73.83-3.68,38.86-26.51,62.22-61.27,64.83-38.41,2.88-66-14.29-74-52.84-12.76-61.09-52.68-89.71-109.81-103.74-92.46-22.71-180.72-21.86-260.53,38.35-79.52,60-108.66,173.8-66.93,264.07,27.2,58.84,78.12,87.34,138.35,100.47,81.31,17.72,163,17.44,245,1.39,44.26-8.66,79.74-32.81,115.4-57.06,38.49-26.17,66.46-26.4,94.81,2.07,26,26.07,27.7,66.46,1,98.47-33.78,40.55-78.58,66.84-129.15,79.27-119.45,29.34-239.81,42.4-361.92,12.54C140.4,932.07,50.4,862.73,15.72,738.45c-36.6-131.13-9.64-252,84.62-353.23,85-91.31,194.82-119.27,315.94-114.78,58.05,2.16,114.33,12.05,167.34,36.27,15.9,7.26,29.55,6.64,45.27-.92,60.66-29.18,100-6.38,105,61.06,1.82,24.48.29,49.22.29,73.84Z"/><path class="cls-1" d="M4020.42,381.84c51.4-29.73,96.54-57.35,143.05-82.44,102.81-55.46,202.37-38.71,281.51,45.81,30.73,32.82,32.68,66.2,5.65,96.52-27.29,30.63-65,34.11-99.95,9.09a175.17,175.17,0,0,1-14.38-11.73c-33.95-30.15-71.73-33.35-110.61-12.37-68.78,37.13-130.69,84.21-190,134.74-11.63,9.92-15.49,22.61-15.41,37.66.37,61.69.67,123.4-.15,185.08-.26,20.08,6,28.22,27.39,28.07,67.2-.47,134.41,1,201.62,1.44,16.95.12,33.69,1.16,49.45,7.87,25.07,10.68,39.3,29.49,40.71,56.83,1.44,28-9.35,49.75-34.93,63.13-14.3,7.48-29.49,12.7-45.67,12.72-166.52.23-333,.75-499.57-.26-32.08-.2-61.76-11.53-75.14-44.8-18.21-45.27,11.5-91.72,61-94.91,32.59-2.1,65.36-2.7,98-2.07,21.66.41,30.64-8.2,30.52-29.35q-1-165.21-1.19-330.42c0-15.66-6.36-21.71-22.48-21.08-25.61,1-51.32,1-76.57-5.35-38.85-9.76-61.77-36.42-59.61-70,2.23-34.77,32.18-63.95,71.2-65.85,37.12-1.81,74.38-.62,111.58-.68,34.55-.05,69.12.78,103.63-.34,16.67-.54,21.59,5.22,20.65,21.26C4019.46,332.17,4020.42,354.05,4020.42,381.84Z"/><path class="cls-1" d="M5479,411.88c0,125.13.38,250.27-.41,375.4-.11,18,4.66,24.83,23.15,24.77,52.21-.17,104.42,1.07,156.63,1.66,18.6.21,37.15.5,55.33,5.23,35.5,9.23,53.24,31.4,52.67,66-.55,33.09-18.35,55.61-53.42,62.67-53.37,10.76-107.73,4.93-161.56,5.48-135.46,1.4-271-.24-406.43-.52-17,0-33.6-2.29-49.61-7.72-28.67-9.7-43.82-31.69-43.73-62.36.1-29.91,16.37-52.1,45-61.43,19.62-6.41,39.92-7.33,60.31-7.36,52.25,0,104.52-.75,156.74.38,17.71.39,22.15-5,22.1-22.29q-.89-313.28.15-626.54c.08-19.4-7.27-23.88-23.86-24.09-41.58-.54-83.25-.33-124.7-3.05-30.87-2-59.77-10.75-71.24-45-12.75-38.07,5.24-74.12,43.55-86.1,17-5.31,34.67-6.57,52.5-6.54Q5325,.79,5438,.62c40.07,0,40.76,0,40.88,41.15C5479.19,165.14,5479,288.51,5479,411.88Z"/><path class="cls-1" d="M1288.68,952.55q-131.51,0-263,0c-17.87,0-35.4-2-52.08-8.54-26.53-10.48-40.59-32.46-40.3-62.17.28-29,15.52-50.87,42.76-60.36,20.35-7.1,41.67-7.52,62.93-7.79,52.2-.66,104.4-1.68,156.6-1.53,15.07,0,19-5.44,20-19.84,7.38-112.69,4.92-225.4,3-338.15-.3-17.47-8.52-23.42-24.22-23.55-34.52-.29-69-.66-103.55-.92a170.24,170.24,0,0,1-49.65-7.67c-31.74-9.88-46.95-30.27-47-62.25-.08-30.8,16.57-53,46.88-62.91,32.81-10.68,66.87-5.54,100.23-6.72,61.92-2.2,124-.19,186-.85,23.85-.26,35.36,4.28,35,33.44-1.83,154.21-.41,308.46-1.39,462.68-.14,20.72,6,26,25.91,27,63.61,3.16,127.36-3.06,190.86,3.33,48.89,4.92,76.42,35.71,69.87,77.89-4.19,27-19.15,45-45.89,52.43a175,175,0,0,1-47.19,6.52Q1421.51,952.45,1288.68,952.55Z"/><path class="cls-1" d="M1251.5,148.75c-21.19,0-42.4-.63-63.55.19-13.91.54-18.56-4.8-18.29-18.37.67-34.25.41-68.53.19-102.8-.13-20.11,9.38-27.9,29.52-27.41,38,.92,76,1,113.9-.1,14.62-.41,20.82,5,22.49,18.51,4.73,38.46,4.27,76.93,1.42,115.5-.85,11.41-6,14.89-16.84,14.65C1297.4,148.42,1274.45,148.77,1251.5,148.75Z"/></svg>