<svg id="Layer_1" data-name="Layer 1" xmlns="http://www.w3.org/2000/svg" viewBox="0 0 1513.37 2506.21"><defs><style>.cls-1{fill:#9ca739;}.cls-2{fill:#e0e1e0;}</style></defs><path class="cls-1" d="M941.64,1111.86c43.16,17.09,86.66,33.37,129.37,51.53,36.53,15.55,67.76,38.26,93.76,79-46.08-2-79.82-20-115.36-29.92-114.31-32-229.32-51.16-347.89-25.8a356.33,356.33,0,0,0-96.84,36c-76,41.48-86.33,99.62-27.27,163.92,41.26,44.93,92.59,77.41,144.78,108.29,112,66.26,231.3,116.95,352,164.23,75.23,29.46,142.48,71.56,200.52,126.34,103.08,97.28,131.3,217.47,89,351.13-55,173.84-177,283.51-350.24,329.83-224.83,60.1-442.41,37.23-645.56-82.54-65.11-38.39-119.43-88.94-152.49-158.22-46.69-97.86-29.61-191.55,22.59-282,70.06-121.38,270.47-227.37,405.29-209C591,1759.79,537.26,1764.24,497.81,1805c-113,116.8-127.95,252.52-82.05,399,41.93,133.81,149.39,189.2,278,208.73,154.47,23.46,298.24-3.66,411.68-119.15,143.59-146.18,112-388.21-60.92-497.22-88.17-55.57-186.5-90.28-279.07-136.53-100-49.95-208.13-81.77-304.09-139.56-65.59-39.51-137-80.92-134.76-169.41,2.35-91.6,76.14-132.71,146-173.46,41.7-24.32,92.88-27.25,130.56-59.85C716.47,1144,829.23,1138.07,941.64,1111.86Z"/><path class="cls-2" d="M941.64,1111.86c-112.41,26.21-225.17,32.13-338.52,5.72-91.59-20-172.14-61.34-239.22-126.9C226,855.94,220.14,664.46,350.31,522c81.07-88.74,184.28-139.77,301.6-158,177-27.55,342.13-3.94,486.95,115.38,167.45,138,174.57,365.48,12.13,513.88C1090,1049,1018.58,1085,941.64,1111.86ZM776,408.42C593.79,406.29,440.91,560,440.69,745.55c-.22,182.2,150.21,335.23,331.1,336.81,177.71,1.56,329.4-149.61,331-329.8C1104.39,563,959.66,410.57,776,408.42Z"/><path class="cls-1" d="M1373.25,3.3c55.78,220.79-7.82,409.87-155,472.14,5.5-59.56,59.59-100.05,70.49-172.68-36.29,34.84-65.9,55.47-86,88.4-13.81,22.65-35.82,48.43-66.1,40.28-26.23-7.07-25.07-38.74-30.37-61.54-12.17-52.33,11.49-90.35,52.5-119.59,48.76-34.77,96.69-68.77,138.78-113.51C1334,98.13,1333.94,44.17,1373.25,3.3Z"/></svg>