<svg id="Layer_1" data-name="Layer 1" xmlns="http://www.w3.org/2000/svg" viewBox="0 0 7995.03 2491.14"><defs><style>.cls-1{fill:#fff;}</style></defs><path class="cls-1" d="M3812.59,1705.28c.79-3.33.77-7.14,5-8.38,22.61-.22,32.15-15.46,38.92-33.89h0c15.92,3.48,24.87-6.77,33.76-17.14,14.47,1.31,27.61,1.36,34.23-16,2.66-7,10.8-10.49,19.59-9.66,5.31.5,9.78-1.41,10.13-8s-3.69-8.52-9-9.41l9.45-8.35,8.29-.64c4.68,10.84,7.67,22.9,14.41,32.25,12.43,17.22,20.07,45.72,52,28.62,1.64-.87,4.16-.19,6.27-.11,5.65.2,11.87-.2,12.38,7.85s-5,9.21-11.12,9c-9.69-.25-15.74,1.84-9.61,13.07l-20.93,5c-1.47-9.18-7.18-13.27-16-11.7-4.67.84-9.16,3.64-9.63,9.49-.73,9.06,5.29,10,12.11,9.8-10.56,12-7.25,19.08,8.08,18.83a218.87,218.87,0,0,0,42.09-4.74c41.72-9,81.6-9.32,116.49,20.2l0,0c19.95,28.12,43.09,53.41,68.25,76.9l0-.06c.16,8.06,7,12,11.11,17.47,32.37,43.38,47.35,91.51,37.7,145.43-7.5,42-23.17,81.42-41.7,119.72q-7.6,1.68-15.21,3.39c-5.83-10.75-8.37-21,8.16-23.06,9.66-1.21,8.29-7.12,8.7-13.41,1.11-16.69,4.19-36.1,11.13-48,16-27.4,14.16-55,14.31-83.44,0-6.74,1.66-15.82-9.46-15-9.39.69-7.36,9-7.39,14.92-.06,13.17.77,26.48-15.82,34-.55-6.41-1.24-11.19-1.34-16-.73-36.59-1.88-38-38.76-37.84-14.15.07-26.25-.94-33.3-16.24-3.69-8-12.47-11-21.81-9.55-1.31-4.43,2.84-14.5-8.67-8.39-6.62-2.86-6.59-9.49-9.29-14.86-4.73-9.4-10.27-20.36-24.71-15.15l-1.32.45c-7.85-16.47-17.68-30.9-36.92-35.54-10.61-6.94-21.64-12.59-34.89-11.59-1.86-2.89-3.07-6.81-7.23-6.89-44.68-.94-89.85-7.64-132.91,11l-.06,0c-11.4.67-19.11,9.75-29.43,12.88-3.17-2.22-5.72-7.86-3.24-8.48,15.8-4,26.38-21,42.06-20.84,39.54.4,77.62-15.18,117.43-9.33a39.43,39.43,0,0,0,10.62-.29c5.59-.71,6.88-4,4.72-9-1-2.31-55.55-23.67-56.82-21.88-17.31,24.35-42.77,12.73-64.61,13.45-16.35.54-27.44-12.49-34.46-27.09-6.49-13.5,8.21-11.76,13-17.07,6.38-7,7.18-14.55.14-20.47-6.27-5.28-15.82-12-22.21-2.21C3844.38,1706,3829.56,1707.45,3812.59,1705.28Z"/><path class="cls-1" d="M4666.34,1594.35a3.75,3.75,0,0,0-3.17,1.24l-90.38,41.15.09-.19-106,26.57-.09,0c-34.34,0-67.93,9.6-102.4,8,2.51-11.72,12-7.57,19-7.94,14.86-.78,31.82,3.64,44.24-2.08,30.83-14.19,63.89-16.28,96-23.41,9.46-2.11,15.64-6.66,18.93-14.72,3.2-7.83-4.79-10.39-8.82-15-19.47-22.36-45-23.93-71.73-21.72-10.29.85-21.45.67-24.89-10.9-6.87-23.09-23.6-25-43.26-23.33-11.52,1-25.08,1.49-28.17-12.54-2.84-12.89-10-13-19.82-13-48.31,0-96.61-.33-144.92-.54,42.92-8.5,86.44-9,129.94-9.7l1.64.67,1.47-1a63.88,63.88,0,0,1,26.09-.2c53.8,5.1,107.73,1.1,161.59,2.13a12.55,12.55,0,0,0,6.17-1.27c24.08-13.67,51.84-6.56,77.67-14.39,33.9-10.28,66.13,2.43,93.63,25.51,7.46,6.26,6.09,13.59,6.54,21.19.47,8-4.23,9.87-11,12.6-11.56,4.66-27.55,7.49-22.38,26.82Z"/><path class="cls-1" d="M3812.59,1705.28c17,2.17,31.79.7,42.6-15.93,6.39-9.81,15.94-3.07,22.21,2.21,7,5.92,6.24,13.45-.14,20.47-4.82,5.31-19.52,3.57-13,17.07,7,14.6,18.11,27.63,34.46,27.09,21.84-.72,47.3,10.9,64.61-13.45,1.27-1.79,55.82,19.57,56.82,21.88,2.16,5,.87,8.3-4.72,9a39.43,39.43,0,0,1-10.62.29c-39.81-5.85-77.89,9.73-117.43,9.33-15.68-.17-26.26,16.86-42.06,20.84-2.48.62.07,6.26,3.23,8.48l-15.71,13.13-5.71,4.51.38,0c-7.34-.62-9.28,3.5-8.68,9.86-1.72,3.11-3.42,6.22-5.16,9.32-36.89,65.72-29.9,107.2,26.5,157.22,19.4,17.21,18.81,33.36-1.88,49.06-18,13.62-37.57,13.34-56.24,3.4-23.78-12.65-41.58-31.57-50-58,19.16,3.2,28.47,19.78,38,32.68,17.84,24.09,44.42,29.38,67.37,8.84,5.24-4.69,9.22-12,4.68-16.8-10.35-10.94-21.39-22.89-34.66-28.88-10.18-4.59-15.29-8.14-14.89-18.95.24-6.39.5-13-5.66-17.32-14.88-10.52-15.92-28.39-10.21-40.25,14.51-30.12-1-63.32,17.85-94.69-15.23,2.49-23,7.53-27.57,17-6.26,12.89-12.2,25.8-23.43-1,3.26,16.5-8.46,25.71-9.83,36.74-2.78,22.34-14.21,43.72-7.82,67.3,4.88,18,10.45,36.16,6.07,55.27-11.79-16.93-14.48-36.56-16.12-56.32-6.64-80.38,20.33-150.18,67.75-213.44Zm-32.75,55.86-1.87-.92,1.74,1c1.52,6.89-10.85,16.26,3,20.62,5.5,1.73,13.58,3,16.74-3.88,2.1-4.58,2.68-11.93.38-16C3794.57,1752.58,3786.72,1758.39,3779.84,1761.14Z"/><path class="cls-1" d="M4302.7,1363.44l-1.36-.19-1.17.72-32,10.06c-8.89-.83-17.78-1.66-25.7-6.39l20.49-37.08s.69-1.72.68-1.73q50.79-65,101.6-129.9l.06,0c23.62-16.48,44.1-37.66,74.17-43.92,101.9-21.22,203.23-20.13,303.58,8,36.15,10.14,71.83,22.86,96.38,54.38-6.22,1.81-13.45,4-18.6.25-23.31-17-49.08-27.61-75.76-38.62-34.41-14.2-69.37-24.87-105.23-27.16-65.1-4.14-130.46-1.13-195.42,7.21-7.33.94-8.85,4.75-11.78,9-10.09,5.91-21.76,8.88-30.67,17-12.92,11.84-23.86,25.65-40.46,33.69-8.7,4.21-16.51,16.93-12.54,24.72,6.71,13.19-1.47,21.35-4.71,31.11-1.9,5.73-8.71,10.62-1.41,16.45,5.72,4.56,12.94,7.27,19.75,3s14.08-9.08,21.62-6.16c17.94,7,37.46-2,55.44,7.27,6.71,3.45,20.18,4.09,24.51-.16,11.7-11.49,24.71-7,37.13-7.27,34-.67,68-.23,102-.23v0l0,9.48c-12.79-.07-25.65.7-38.36-.35C4469.78,1288.89,4385.3,1322.38,4302.7,1363.44Z"/><path class="cls-1" d="M3210.82,1656.09c12.54-42.66,37.93-78.33,62.34-114.53,14.45-13.37,28.15-27.68,43.55-39.84,15.14-12,29.33-26.86,51-27,9.39-2.61,23.63,8.93,27.61-9.46l5.27-1.14c8.17,8.62,17.72,11.9,30,11.46,26.77-1,53.6-.24,80.4-.21-1.3,11.06,14.07,5.09,15,15.35-15.06,8.34-34.51,17.33-2.47,30.08,2.08.83,3.47,4.39,4.37,7,3,8.5,9.14,8.9,15.12,4.82,14.79-10.1,16,1.9,19.23,11.05-14.67,8.46-31.84,5.88-47.1,10.37-23.81,7-46.93,16-72.31,15.22.8-10.47-.94-18.71-14.49-17.19-7,.79-12.37-2.63-16.7-7.7-6.3-7.39-12.08-10.32-21.41-3.08-7.06,5.49-14.64,1.67-20.53-5-8.64-9.7,9.2-8.61,6-16.93-10.71-1.11-23.63.94-32.26-4.2-10.47-6.24-14.69-.34-22.2,3-16.3,7.27-23.13,23.27-35,34.13s-11.76,29.7-22.18,35.72c-20.62,11.91-24.93,30.16-30.3,49.43,1.8,15.9-8.15,22.07-21.23,25.64Z"/><path class="cls-1" d="M4672.28,1588.28c-5.17-19.33,10.82-22.16,22.38-26.82,6.78-2.73,11.48-4.57,11-12.6-.45-7.6.92-14.93-6.54-21.19-27.5-23.08-59.73-35.79-93.63-25.51-25.83,7.83-53.59.72-77.67,14.39a12.55,12.55,0,0,1-6.17,1.27c-53.86-1-107.79,3-161.59-2.13,6.32-.46,12.65-1.36,19-1.32,85.1.59,169.64-5,252.23-26.84,24.39-6.45,50.72-10,70.1-29.26l4.15-1.19c29.5-12.69,47.56-35.49,58.58-65,6.85-18.37,7-34-13.12-44,17.29-3.81,25.6,2,23.17,20.69-.91,7-.13,14.15-.11,21.23-1.39,8.73,2.18,17.73-4.67,26.26-7.7,9.59-17.52,20.76-11.69,33.93,4.46,10.09,19.62,13.45,19.23,28.49-.11,4,6,1,7.78-1.8,9-13.68,28-21.72,23.67-43-.77-3.73,1.06-8.22,2.42-12.11,7.52-21.35,16.61-42.33,14.39-65.8,3.58-.64,8-2,7.74-5.75-1.63-22.4,12.79-41.83,10-65-2.47-20.61.49-41.87,1.06-62.85,13.56,8.24,11.24,22,11.17,34.39-.46,80.08-20.87,155.4-55.23,227.29l-.18.23a114.52,114.52,0,0,0-27.06,32.44c-5.76,1-9.16,4.82-11.53,9.82h0l-64.84,50.4.08-.11Z"/><path class="cls-1" d="M3750,1705.69c-1.54,21.52-16.63,21-32.18,19.8l-.56.17c3.17-21.45,7.82-42.82,9.18-64.39,2-32.06,4.56-65-23.87-89.27-14.88-16.93-34.38-21-55.85-21-86.09,0-169,18.32-250.94,42.55a72.87,72.87,0,0,1-8.37,1.48l-.89-1c1.5-4.23,5.59-5.47,8.56-8,13.89-12,34.91-2.58,47.67-16.71h0c25.38.82,48.5-8.21,72.31-15.22,15.26-4.49,32.43-1.91,47.1-10.37l8.53,0h8.54c49.31.72,100.29-8.32,144,25.17,3,2.29,10.75,2.88,6.9,7.32-9.15,10.56,1.44,17.77,1.77,26.3.59,14.83,17,27.75,8.06,41.89-9.4,14.82-5.71,29.85-7.25,44.91C3731.33,1702.57,3737.29,1707.49,3750,1705.69Z"/><path class="cls-1" d="M3331.71,1663.16C3292.87,1774.59,3291,1890,3294.8,2006c.28,8.49,0,17,0,25.49-2.76,4.75.7,11.56-5.07,15.33a36,36,0,0,1-.52-4.14c1.51-15.58-4.62-31.12-3-46.09,9.43-88.18-6.79-177.42,11.56-265.13,17-7.7,4.74-23,8.85-34,7.06-7.62,2.69-17.07,4.08-25.6,6.1-.18,12.31-.21,12.53-8.78l0,0Z"/><path class="cls-1" d="M4092.09,2184.05c9.29-5.83,14.07-14.69,16.82-24.93l8.67-5,12.09,3.94c-11.86,18.5-22.54,37.44-41,51.22-12.21,9.09-21.16,22.54-31.57,34.05-6,4.46-11.43,10.28-17.23,14.06-11.87,7.75-19.87,23.7-37.69,20.62l-1.71-1.89,27.09-27.65,30-25.78C4070.32,2211,4085.2,2201.08,4092.09,2184.05Z"/><path class="cls-1" d="M3289.71,2046.83c5.76-3.76,2.3-10.57,5.06-15.32,9.77,63.17,32.37,121.82,62.52,177.81l-.72.67c-5.59-1.82-14.3,1.27-15.55-7.71-3.65-26.09-25.84-43.29-31-69.48C3304.31,2104,3291.07,2076.83,3289.71,2046.83Z"/><path class="cls-1" d="M3548.68,928.25,3557.6,912l.29-.24,4.72-3.51.1.11c20.42-1.48,33.72,14.11,50.6,21.12,32.1,27.47,66.91,51.91,94.31,84.62l-1,1c-5.35-1.32-11.27.1-15.92-4.55-21.78-21.78-44.34-42.53-69-61.19-21.51-16.24-39.91-38.61-70.93-20.87C3550.27,928.79,3549.38,928.36,3548.68,928.25Z"/><path class="cls-1" d="M3863.92,2386.8c6.87-6.55,18.46-5.74,23.52-15.09,25.17-16.89,46.74-37.85,67.54-59.67,16.75-9.95,27.41-27.62,45.45-35.95l1.71,1.89c.49,8.91-5.52,13.36-11.28,19-26.59,26.23-58.2,46.62-83.85,74.12C3896.66,2382.24,3882.24,2392.62,3863.92,2386.8Z"/><path class="cls-1" d="M4091.29,1842.25c14.44-5.21,20,5.75,24.71,15.15,2.7,5.37,2.67,12,9.29,14.86q0,4.21.05,8.43c1.83,7.53-5.09,18.56,8.55,21.37h0c-2.85,28.08,15.53,54.24,7.51,82.8-4.25-14.77-5.24-30.46-12.57-44.35C4121.26,1905.87,4107.57,1873.56,4091.29,1842.25Z"/><path class="cls-1" d="M4137.48,2072.72l1.41-8.34c10-19.35,1.41-40.09,4.46-60l7.71.07c-.37,45.64,2.45,91.49-8.59,136.46-1.39,0-2.77,0-4.16.05l-15.56-.07C4130.65,2118.84,4139.84,2097,4137.48,2072.72Z"/><path class="cls-1" d="M3412,2278.83l10.14,13.63c-18-.05-30-12.05-38-24.88-5.7-9.09-9.39-20-17.47-27.46-9.25-8.54-12.25-18.23-10-30.13l.72-.67c18.77,19.8,30.36,45.24,50.33,64.1l4.43,5Z"/><path class="cls-1" d="M4153.22,2247.2c-11.61,9.13-17.55,23.8-30.67,31.47-2.16-42.27,40.28-58,54-90.77l3.33,8.42c-5.38,17.24-21.58,28.68-25.14,46.89C4154.26,2244.54,4153.74,2245.87,4153.22,2247.2Z"/><path class="cls-1" d="M3945.19,1602.82c5.36.89,9.4,3,9,9.41s-4.82,8.47-10.13,8c-8.79-.83-16.93,2.69-19.59,9.66-6.62,17.38-19.76,17.33-34.23,16l-5.2-4.72A198.15,198.15,0,0,1,3945.19,1602.82Z"/><path class="cls-1" d="M3707.62,1014.14c19.58,9,27.86,29.27,42.73,43l17.55,25.12c-29.8-13.8-52.2-34.36-61.26-67.1Z"/><path class="cls-1" d="M3331.71,1663.16l-8.48-.13c5-11.69-12.73-34.85,17.14-34q.42,7.32.83,14.63C3339.64,1651,3338.13,1658.25,3331.71,1663.16Z"/><path class="cls-1" d="M4229.07,1378.93l13.39-11.29c7.91,4.73,16.8,5.56,25.69,6.39-13.37,5.47-23.88,21.13-41.45,11.65Z"/><path class="cls-1" d="M3856.55,1663c-6.77,18.43-16.31,33.67-38.92,33.89C3829.45,1684.28,3840.27,1670.51,3856.55,1663Z"/><path class="cls-1" d="M3885.09,1641.16l5.2,4.72c-8.89,10.37-17.84,20.62-33.76,17.14C3864.71,1654,3872.35,1644.25,3885.09,1641.16Z"/><path class="cls-1" d="M3387.4,1595l-29.53,25.92-1-1c3.75-15.67,14.57-23.24,29.69-25.87Z"/><path class="cls-1" d="M3341.2,1643.67q-.4-7.32-.83-14.63l0,0c7.49.59,9.46-8.75,16.41-9.14l1.06,1C3354.13,1629.81,3349.72,1638.24,3341.2,1643.67Z"/><path class="cls-1" d="M3210.82,1656.09q.81,3.53,1.61,7.05l-7.26,4a12.88,12.88,0,0,1-.89-4Z"/><path class="cls-1" d="M3562.61,908.29l-4.72,3.51Z"/><path class="cls-1" d="M4125.44,1678.54c-32.73,2.06-65.65,1-98.19,6-6.13-11.23-.08-13.32,9.61-13.07,6.09.16,11.62-1.11,11.12-9s-6.73-7.65-12.38-7.85c-2.11-.08-4.63-.76-6.27.11-31.92,17.1-39.56-11.4-52-28.62-6.74-9.35-9.73-21.41-14.41-32.25,14.3-9.94,29.57-17.73,46.83-21.12,2.35,3.78,5.75,6.2,9.77,3.44,4.24-2.91,1-5.47-1.61-7.62,5.53-3.46,10.48-8.35,17.86-7.24,7.8,18.35,14.13,2.84,21.95-.34,19.71-8,41.36-11.87,61.82-10.48,15.42,1,43.32-9.07,42,24.85-.16,4,5.47,5.91,10,6.52,10.47,1.41,20.94,4.13,31.4,4.11,11.31,0,19.24,2.93,23.31,14,5.79,15.78,16,21,33.19,17,12.14-2.86,27.43-3.9,33.46,11,6.8,16.73,17.41,23.54,35.16,24.37,6.3.29,15.54-.86,24.28,10.2-34.22-3.25-62.57,11-93.89,9.52-37.58-1.83-75.32-.63-113-.23C4138.42,1671.87,4129.11,1667.6,4125.44,1678.54Z"/><path class="cls-1" d="M4142.47,2141c11-45,8.22-90.82,8.59-136.46,7.35-.94,10.83-6.59,7.23-11.75-12.11-17.38-5.78-36.13-6.33-54.48-.44-14.46-7.2-26.55-18.08-36.2h0q0-10.68,0-21.35l.06-.06c9.34-1.48,18.12,1.54,21.81,9.55,7,15.3,19.15,16.31,33.3,16.24,36.88-.21,38,1.25,38.76,37.84.1,4.79.79,9.57,1.34,16,16.59-7.5,15.76-20.81,15.82-34,0-5.94-2-14.23,7.39-14.92,11.12-.82,9.49,8.26,9.46,15-.15,28.47,1.67,56-14.31,83.44-6.94,11.89-10,31.3-11.13,48-.41,6.29,1,12.2-8.7,13.41-16.53,2.07-14,12.31-8.16,23.05-.22,4.89-2.83,8.93-4.39,13.3-6.19,17.3-22.89,30.11-21.58,50.48-2.38-1.26-6-1.93-6.95-3.88C4169.33,2116.82,4169.4,2116.79,4142.47,2141Z"/><path class="cls-1" d="M4193.57,2158c-1.31-20.37,15.39-33.18,21.58-50.48,1.56-4.37,4.17-8.41,4.39-13.3l15.21-3.38a727.81,727.81,0,0,1-54.84,105.45l-3.33-8.42C4170.6,2171.32,4189.57,2168.93,4193.57,2158Z"/><path class="cls-1" d="M4006.32,1689.56c-3.38,4.55-8.37,6.2-13.52,7.59-6.82.16-12.84-.74-12.11-9.8.47-5.85,5-8.65,9.63-9.49C3999.14,1676.29,4004.85,1680.38,4006.32,1689.56Z"/><path class="cls-1" d="M4125.34,1880.69q0-4.21-.05-8.43c11.51-6.11,7.36,4,8.67,8.39l-.06.06Z"/><path class="cls-1" d="M4125.44,1678.54c3.67-10.94,13-6.67,20-6.74,37.66-.4,75.4-1.6,113,.23,31.32,1.53,59.67-12.77,93.89-9.52-8.74-11.06-18-9.91-24.28-10.2-17.75-.83-28.36-7.64-35.16-24.37-6-14.85-21.32-13.81-33.46-11-17.16,4-27.4-1.22-33.19-17-4.07-11.11-12-14.06-23.31-14-10.46,0-20.93-2.7-31.4-4.11-4.49-.61-10.12-2.47-10-6.52,1.35-33.92-26.55-23.81-42-24.85-20.46-1.39-42.11,2.45-61.82,10.48-7.82,3.18-14.15,18.69-21.95.34,53.46-19.22,108.23-32.37,165.16-35.38,48.3.21,96.6.53,144.91.54,9.81,0,17,.15,19.82,13,3.09,14,16.65,13.51,28.17,12.54,19.66-1.64,36.39.24,43.26,23.33,3.44,11.57,14.6,11.75,24.89,10.9,26.77-2.21,52.26-.64,71.73,21.72,4,4.63,12,7.19,8.82,15-3.29,8.06-9.47,12.61-18.93,14.72-32.08,7.13-65.14,9.22-96,23.41-12.42,5.72-29.38,1.3-44.24,2.08-7,.37-16.52-3.78-19,7.94A2140.77,2140.77,0,0,1,4125.44,1678.54Z"/><path class="cls-1" d="M4330.87,1516.21a2.09,2.09,0,0,1,3.11-.33l-1.47,1Z"/><path class="cls-1" d="M3731.92,2001c4.38-19.11-1.19-37.27-6.07-55.27-6.39-23.58,5-45,7.82-67.3,1.37-11,13.09-20.24,9.83-36.74,11.23,26.77,17.17,13.86,23.43,1,4.59-9.46,12.34-14.5,27.57-17-18.8,31.37-3.34,64.57-17.85,94.69-5.71,11.86-4.67,29.73,10.21,40.25,6.16,4.35,5.9,10.93,5.66,17.32-.4,10.81,4.71,14.36,14.89,18.95,13.27,6,24.31,17.94,34.66,28.88,4.54,4.8.56,12.11-4.68,16.8-22.95,20.54-49.53,15.25-67.37-8.84-9.55-12.9-18.86-29.48-38-32.68l.73-.89Z"/><path class="cls-1" d="M3779.84,1761.14c6.88-2.75,14.73-8.56,20,.82,2.3,4.12,1.72,11.47-.38,16-3.16,6.91-11.24,5.61-16.74,3.88-13.84-4.36-1.47-13.73-3-20.62Z"/><path class="cls-1" d="M3827.48,1830.16l-8.68,9.86C3818.2,1833.66,3820.14,1829.54,3827.48,1830.16Z"/><path class="cls-1" d="M3779.71,1761.27l-1.74-1,1.87.92Z"/><path class="cls-1" d="M3832.81,1825.7l-5.71,4.5Z"/><path class="cls-1" d="M3356.57,2210c-2.22,11.9.78,21.59,10,30.13,8.08,7.46,11.77,18.37,17.47,27.46,8,12.83,20,24.83,38,24.88,22.9,14.53,48.29,19.06,74.91,18.83,9.91-.09,19.87.84,29.71.06,48.8-3.91,84.38,15.5,108.38,58.3,11,19.67,24.12,38.47,47,46.82,30.44,11.42,61.23,7.35,92,1.93.66-.12.92-2.47,1.36-3.78l42.42-.88c13.68,2.2,31.82-6.5,40.37,4.45,10.59,13.56,22.21,12.22,35.26,13,7.07.41,16.47-3.41,18.56,8.37l-8.5.22c-5.44,0-8.33,2.65-8.6,8.12l-17,4.55c-5.58-6.93-16.9-2.62-21.7-11.24-15.89-28.48-43-16.53-66.24-17.94-5.23-.31-9.3,3.84-9.26,9.59,0,5.47,4.6,5.82,8.91,6.77,17.41,3.81,34.07,11.71,52.7,8.73,5.71-.91,9.24,2.46,10,8.34-11.17,8.68-24.13,9.21-37.51,8.76-6.21-.22-14.36-1.41-18.4,1.85-23.63,19.07-51.2,14.58-78,15.09-8.82.17-18.84-2.5-23.84,8.55H3681.5c-.49-6-4.09-9.38-9.7-8.34-17,3.12-25.55-11.11-38.05-16.49-17.87-7.69-18.91-30.77-38.1-34.66-30.09-44.24-73.84-59.46-125.14-60.19-48.11-.69-96.19-2.32-144.15-7.57-69-7.55-105.08-39.79-116.85-107.77-3.14-18.09-4.18-36.55-6.19-54.84,0-12.06,3.34-25.39-.64-36-15-40-24-81.75-37.55-122.1-2-10.27-4.43-20.33-4.25-31.08.57-33.76.29-67.55.33-101.32,19.83,1.6,30.27,12.28,21.1,22.2-13.54,14.65-2.74,26.36-1.72,41.34,8.48-6.31,12.93-12.1,14.52-20,1.16-5.79-3-14.35,5.14-16.59,9.09-2.5,13.27,6.37,18.21,11.91,18.54,20.79,37.83,40.65,62.09,55,3.94,12.52-8.43,28.72,8.63,38.28a36,36,0,0,0,.52,4.14c1.37,30,14.61,57.2,20.3,86,5.18,26.19,27.37,43.39,31,69.48C3342.27,2211.26,3351,2208.17,3356.57,2210Zm-118.64,84.54c4-24.92-6.7-46.88-13.38-69.91a158.77,158.77,0,0,1-2.84,24.5c-3.31,17.59.54,34,16.15,45.47,1.08,9.06,34.49,50.52,42.91,50.55,15.65.07,30.85,8.42,44.48,7.78,42.53-2,83.53,9.51,125.49,9.57,8.37,0,20.13,5.58,24.75-5.59,4.85-11.73-9.27-9.33-13.68-14.45-1.28-1.48-1.15-4.09-2.16-5.91-9-16.1-21.07-16.88-33.53-2.27-13.17,15.45-25.33,16-45.86-3,18.92,6.42,25.59-5.47,35.67-10.8,2.91-1.54,7.64-.72,7.58-5.58-.05-4-3.32-6.48-6.84-7-17.9-2.52-30.83-12.91-42.16-25.93-4.39-5-10-5.29-15.58-3.63-7.41,2.2-5.41,8.95-5.78,14.34-.24,3.53.06,7.1-.11,10.64-.2,4.11.72,8.95-4.23,11-5.3,2.23-7.17-2.35-10-5.43-10.56-11.47-21.16-22.67-27.39-37.49-5-12-13.39-25-25.85-26.2-18.53-1.76-24.81-8.66-22.39-26.24.77-5.58-2.4-9.55-8.83-9.17-5.13.3-8,3.52-7.6,8.29,1.06,13-3.07,26,4.44,39.13C3260.15,2273,3256.75,2287.23,3237.93,2294.53Z"/><path class="cls-1" d="M3912.08,2439.54c-2.09-11.78-11.49-8-18.56-8.37-13.05-.76-24.67.58-35.26-13-8.55-11-26.69-2.25-40.37-4.44,1.73-10.41,10.57-6.42,16.6-8.71,10.76-4.09,25.9-1.82,29.41-17.95l0-.29c18.32,5.82,32.74-4.56,43.09-15.66,25.65-27.5,57.26-47.89,83.85-74.12,5.76-5.68,11.77-10.13,11.28-19,17.82,3.08,25.82-12.87,37.69-20.62,5.8-3.78,11.25-9.6,17.23-14.06,5.73,1,13.36-2.55,16.2,5.74,2.32,6.79-3.4,8.72-7.39,12.73-8.63,8.68-1.57,14.16,6.91,15.12,11.73,1.34,23.71.51,35.58.61,0,2.83-.09,5.66-.13,8.49q-8.25.32-8.42,8.57h0c-5.51.12-8.39,2.91-8.55,8.45-.15,2.82-.3,5.65-.44,8.47-6.54.9-15.34-2.56-16.62,8.56l-.11.1c-5.46.15-8.28,2.95-8.42,8.42l-.12.12c-8.62.46-8.49,6.63-8.36,12.8,0,1.42-.09,2.83-.16,4.24-5.5.2-8.3,3-8.39,8.55l-.05,0c-5.53.1-8.36,2.92-8.52,8.43l-.07.09-4.18,4.18c-6.23,5.19-16.42,8-11.76,19.69-12.63,11.76-25.82,22.66-42.79,27.72C3955.05,2414.14,3935.41,2431.91,3912.08,2439.54Z"/><path class="cls-1" d="M3289.18,2042.7c-17.06-9.56-4.69-25.76-8.63-38.28v-204.5c-7.65,20.43-24,21.74-40.65,20.86-16.29-.86-30.9,2-44.6,19.15V1787.3c-4.81,7.06-7.35,14.72-17.67,12-2.05-22.84,9-44,14-64.85,4.65-19.5,12.29-38.43,11.78-59.29l1.77-8,7.26-4c13.09-3.57,23-9.74,21.24-25.64,3.43-.66,7.23-.59,10.23-2.11,17.36-8.84,19.8-7.42,19.59,12.15-.06,5.65.53,11.42-3.31,16.33-10,12.78,4.25,18.53,8.26,27.07,1.68,3.56,6,6.63,10.78,4.12,8.78-4.61,10.49-12.69,9.91-21.77-.23-3.53,0-7.1,0-10.65-.08-12.14-1.31-28.56,14.64-27.72,14.37.76,10.1,17.37,11,28.14l-4.05,8.79c-1.39,8.53,3,18-4.08,25.6-18.1,7.41-5.07,22.9-8.85,34-18.35,87.71-2.13,177-11.56,265.13C3284.56,2011.58,3290.69,2027.12,3289.18,2042.7Z"/><path class="cls-1" d="M3203.4,1675.17c.51,20.86-7.13,39.79-11.78,59.29-5,20.86-16,42-14,64.85-9.33,26.25-11.39,54-16.73,81.08l-7.71,4.45C3160.45,1812.68,3174.4,1742.13,3203.4,1675.17Z"/><path class="cls-1" d="M3694.58,2490.93c5-11,15-8.38,23.84-8.55,26.85-.51,54.42,4,78-15.09,4-3.26,12.19-2.07,18.4-1.85,13.38.45,26.34-.08,37.51-8.76l25.32-.21c.49.55,1,1.11,1.41,1.7C3819.61,2480.44,3758.28,2492.35,3694.58,2490.93Z"/><path class="cls-1" d="M3165.13,2043c13.59,40.35,22.5,82.11,37.55,122.1,4,10.57.63,23.9.64,36-13-50.82-39.49-97.62-44.67-150.75Z"/><path class="cls-1" d="M3165.13,2043l-6.48,7.31a259.83,259.83,0,0,1-6.93-61.69l0-75.58q.75-14.1,1.49-28.21l7.72-4.44q.17,15.11.31,30.21c0,33.77.24,67.56-.33,101.32C3160.7,2022.68,3163.13,2032.74,3165.13,2043Z"/><path class="cls-1" d="M3595.65,2431.44c19.19,3.89,20.23,27,38.1,34.66,12.5,5.38,21.1,19.61,38.05,16.49,5.61-1,9.21,2.35,9.7,8.34C3639.86,2493.34,3613.85,2475.31,3595.65,2431.44Z"/><path class="cls-1" d="M3912.08,2439.54c23.33-7.63,43-25.4,69.18-25.1-30.69,22.43-66.14,33.74-102.16,43.72-.44-.58-.91-1.14-1.4-1.69.15-1.34.24-2.69.26-4l17-4.55c5.62.21,8.31-2.69,8.6-8.12Z"/><path class="cls-1" d="M4024.05,2386.72c-4.66-11.69,5.53-14.5,11.76-19.69l4.18-4.18.07-.09c5.56-.06,8.39-2.88,8.52-8.43l.05,0c5.55-.15,8.38-3,8.39-8.55.07-1.41.12-2.82.16-4.24,8.66-.42,8.54-6.59,8.36-12.8l.12-.12q8.37,0,8.42-8.42l.11-.1,12.69-.05a20.51,20.51,0,0,0,2.3,2.17L4073,2344.74C4056.63,2358.66,4044.12,2377.1,4024.05,2386.72Z"/><path class="cls-1" d="M3151.69,1913.05l0,75.58A191.91,191.91,0,0,1,3151.69,1913.05Z"/><path class="cls-1" d="M4751,1348.06l-20.39-11.7c-1-18.54-17.13-24.46-29.39-31.19-30.26-16.63-64.14-17.88-97.92-17.56v0c-.33-1.37-.2-3.19-1-4-11.25-11.26-38.65-8.39-31.55-36,.07-.26-4.76-2.06-7.41-2.67-13.27-3.1-22.07-11.43-29.24-22.71-6.11-9.61-14.21-19.69-26.68-17.92-11.64,1.65-25.76,5.83-29.84-6.35-4.8-14.3,15.73-8.53,22.56-19-15.11-3.41-28.56-3.57-42.09.08-11.4,3.08-21,2.45-25.36-10.8,2.93-4.26,4.45-8.07,11.78-9,65-8.34,130.32-11.35,195.42-7.21,35.86,2.29,70.82,13,105.23,27.16,26.68,11,52.45,21.66,75.76,38.62,5.15,3.75,12.38,1.56,18.6-.25,0,0,0,.47,0,.48-.23,3,1.2,4.39,4.11,4.44l.45-.05c-.56,21-3.52,42.24-1.05,62.85,2.78,23.19-11.64,42.62-10,65,.27,3.74-4.16,5.11-7.74,5.75a7,7,0,0,0,0-2.1c-3.38-10.31,7.86-29.48-7.87-30.07-16.72-.61-7.66,18.48-8.87,28.72-3.25,27.65-11.36,37.33-34.36,37.47,0-7.08-.8-14.27.11-21.23C4776.58,1350.07,4768.27,1344.25,4751,1348.06Z"/><path class="cls-1" d="M4432.62,1168.16c4.34,13.25,14,13.88,25.36,10.8,13.53-3.65,27-3.49,42.09-.08-6.83,10.46-27.36,4.69-22.56,19,4.08,12.18,18.2,8,29.84,6.35,12.47-1.77,20.57,8.31,26.68,17.92,7.17,11.28,16,19.61,29.24,22.71,2.65.61,7.48,2.41,7.41,2.67-7.1,27.64,20.3,24.77,31.55,36,.84.85.71,2.67,1,4-34,0-68-.44-102,.23-12.42.25-25.43-4.22-37.13,7.27-4.33,4.25-17.8,3.61-24.51.16-18-9.27-37.5-.31-55.44-7.27-7.54-2.92-14.79,1.85-21.62,6.16s-14,1.59-19.75-3c-7.3-5.83-.49-10.72,1.41-16.45,3.24-9.76,11.42-17.92,4.71-31.11-4-7.79,3.84-20.51,12.54-24.72,16.6-8,27.54-21.85,40.46-33.69C4410.86,1177,4422.53,1174.07,4432.62,1168.16Z"/><path class="cls-1" d="M4603.28,1287.61c33.78-.32,67.66.93,97.92,17.56,12.26,6.73,28.36,12.65,29.39,31.19-40.48-19.49-82.22-34.9-127.35-39.28C4603.25,1293.93,4603.27,1290.77,4603.28,1287.61Z"/><path class="cls-1" d="M3750,1705.69c-12.7,1.8-18.66-3.12-17.3-16.46,1.54-15.06-2.15-30.09,7.25-44.91,9-14.14-7.47-27.06-8.06-41.89-.33-8.53-10.92-15.74-1.77-26.3,3.85-4.44-3.91-5-6.9-7.32-43.68-33.49-94.66-24.45-144-25.17-2.85-4.41-5.7-4.38-8.54,0l-8.53,0c-3.23-9.15-4.44-21.15-19.23-11.05-6,4.08-12.12,3.68-15.12-4.82-.9-2.57-2.29-6.13-4.37-7-32-12.75-12.59-21.74,2.47-30.08-.89-10.26-16.26-4.29-15-15.35,12.65,1.43,24.87-1.35,38.05,5.91,10.71,5.9,25.91,1.46,28.73-16.13l1.27.16s-1.28,0-1.26,0c14-4.17,27-12.26,42.43-.87,5.86,4.32,12.82-4.7,13.79-11.73,1.91-13.83,11.46-19.56,22.39-24.56,1.31.07,2.62.11,3.93.15.46,3.75-1.29,8.9,3.3,10.46,4.76,1.62,4.46-3.31,5.32-6.25l9.21-.85.16.1c6.12,9.35-4.69,31.83,20.47,26.42l0,0c1.28,8.08-4,18,4.05,24,28.31,21.21,49.06,49.71,73.71,74.4,11.4,11.42,18.22,22.83,17.1,38.79,0,0,.21.43.2.43-22.89,22.06-32.56,49.7-34.12,80.77,0,0-.12.16-.13.15l-4.69,4.63C3753.61,1689.6,3748.07,1696.89,3750,1705.69ZM3600.08,1505.3c-14.2-13.63-28.56-17.47-45.9-13.12-8.71,2.19-8.91,7.48-9,14.16-.14,8,3.69,10.68,11.48,11.85C3572.47,1520.56,3585,1513.37,3600.08,1505.3Z"/><path class="cls-1" d="M3314.71,1663.06c-.88-10.77,3.39-27.38-11-28.14-15.95-.84-14.72,15.58-14.64,27.72,0,3.55-.19,7.12,0,10.65.58,9.08-1.13,17.16-9.91,21.77-4.78,2.51-9.1-.56-10.78-4.12-4-8.54-18.24-14.29-8.26-27.07,3.84-4.91,3.25-10.68,3.31-16.33.21-19.57-2.23-21-19.59-12.15-3,1.52-6.8,1.45-10.23,2.11,5.37-19.27,9.68-37.52,30.3-49.43,10.42-6,10.41-25,22.18-35.72s18.72-26.86,35-34.13c7.51-3.35,11.73-9.25,22.2-3,8.63,5.14,21.55,3.09,32.26,4.2,3.2,8.32-14.64,7.23-6,16.93,5.89,6.62,13.47,10.44,20.53,5,9.33-7.24,15.11-4.31,21.41,3.08,4.33,5.07,9.69,8.49,16.7,7.7,13.55-1.52,15.29,6.72,14.49,17.19h0c-12.07,0-24.16-.34-36.21.07-9.83.33-25.05-4.59-28.48,2.43-10.22,20.91-41.13,28-37.65,57.25l0,0c-29.87-.86-12.14,22.3-17.14,34l0,0Z"/><path class="cls-1" d="M3577.74,1465.19c-2.82,17.59-18,22-28.73,16.13-13.18-7.26-25.4-4.48-38.05-5.91-26.8,0-53.63-.75-80.4.21-12.27.44-21.82-2.84-30-11.46,27.54-4.64,54.74,1.3,82.1,2.49C3514.37,1468,3546.09,1468,3577.74,1465.19Z"/><path class="cls-1" d="M3367.69,1474.76c7.07-9.39,17.73-8.28,27.61-9.46C3391.32,1483.69,3377.08,1472.15,3367.69,1474.76Z"/><path class="cls-1" d="M4774,1390c23-.14,31.11-9.82,34.36-37.47,1.21-10.24-7.85-29.33,8.87-28.72,15.73.59,4.49,19.76,7.87,30.07a7,7,0,0,1,0,2.1c2.22,23.47-6.87,44.45-14.39,65.8-1.36,3.89-3.19,8.38-2.42,12.11,4.34,21.27-14.72,29.31-23.67,43-1.81,2.78-7.89,5.78-7.78,1.8.39-15-14.77-18.4-19.23-28.49-5.83-13.17,4-24.34,11.69-33.93C4776.22,1407.71,4772.65,1398.71,4774,1390Z"/><path class="cls-1" d="M3767.9,1082.23l30.75,32.9c14.38,16.29,28.61,32.72,43.2,48.82,10.93,12.07,19.3,25.51,24.07,41.12q1.88,17.75,3.74,35.48c-4.34-3.6-11.36-6.46-12.6-10.92-7.57-27.34-27.59-39.77-52.61-47.28-6.22-1.87-10.72-6.41-14.71-11.61-16.93-22-48.2-34.11-72.28-22.09-11.86,5.92-29,.37-36.11,16-24.9-22.31-43.64-50.11-66.36-74.4-17.88-19.11-25.67-18.65-36.4,6.15-7.75,17.88-13.9,36.45-20.77,54.71-6.93-11.16-7-23.19,0-33.5,6.83-10.11,5.2-20.76,3.69-30.53s-7.82-18.6-12-27.86c-13.05,11.46-32.78,0-44.91,12.41-8.4,8.59-17,12.71-28.71,10.05a822,822,0,0,1,69.95-148.44q1.52-2.31,3-4.62l-.11-.34c.7.1,1.59.53,2.07.26,31-17.74,49.42,4.63,70.93,20.87,24.7,18.66,47.26,39.41,69,61.19,4.65,4.65,10.57,3.23,15.92,4.55C3715.7,1047.87,3738.1,1068.43,3767.9,1082.23Z"/><path class="cls-1" d="M3656.36,1428.21c-10.93,5-20.48,10.73-22.39,24.56-1,7-7.93,16-13.79,11.73-15.43-11.39-28.46-3.3-42.43.87,3.32-15.44-6.58-25.44-15.43-35.27-16.55-18.37-32.17-38.15-51.22-53.58-44.64-36.12-61.35-86.75-77.17-138.34-1.86-6.06-3.16-12.29-4.72-18.44,8.74-3,.48-14.73,8.83-17.5,7.08-2.35,11.12-8.67,9.79-13.89-1.47-5.78-9.7-2.28-14.81-3.63l6.6-24.7c3.79,3.53,5.76,9.54,13.52,4.41,17.9-11.82,22.18.53,23.51,15.08a156,156,0,0,1,0,27.59c-1.17,13.5,5.12,17.91,17.51,16.49,12.56-1.45,25.1-3,37.69-4.13,6.9-.59,13.51,1.06,12.91,9.86-1.54,22.51-1.77,44.26,20.85,58.11,1.33.81.69,4.37,1.91,5.9,14.84,18.65,18.8,45.31,39.11,59,10.81,7.29,17.26,13,12.07,27.65l11.71-7.08c.77,4.73.42,13,2.47,13.63C3654.21,1393.28,3647.31,1415.18,3656.36,1428.21Z"/><path class="cls-1" d="M3630.46,1372.92l-11.71,7.08c5.19-14.68-1.26-20.36-12.07-27.65-20.31-13.71-24.27-40.37-39.11-59-1.22-1.53-.58-5.09-1.91-5.9-22.62-13.85-22.39-35.6-20.85-58.11.6-8.8-6-10.45-12.91-9.86-12.59,1.08-25.13,2.68-37.69,4.13-12.39,1.42-18.68-3-17.51-16.49a156,156,0,0,0,0-27.59c-1.33-14.55-5.61-26.9-23.51-15.08-7.76,5.13-9.73-.88-13.52-4.41-2.59-9.13,8-11.23,9.67-18.09,4.11.07,8.47.28,9.54-5,.78-3.88-1.75-6.2-4.87-7.93q3.26-8.24,6.5-16.47c1.07-1.59,2.13-3.18,3.2-4.76l-.38.11c15.72-2.81,13.28-14.72,12.85-25.63l-.31-.57c11.69,2.66,20.31-1.46,28.71-10.05,12.13-12.43,31.86-.95,44.91-12.41,4.21,9.26,10.53,18.19,12,27.86s3.14,20.42-3.69,30.53c-7,10.31-6.89,22.34,0,33.5l.15,4.26c.18,1.6.35,3.21.53,4.81l.21-.18c-18.36,4.6-13.31,13.4-4.13,23-.29,8.46-1.11,16.94-.77,25.38.63,15.3-5.13,32,4,45.58,17.59,26.1,33.1,53.82,55.43,76.51h0c2.16,12,13,18.87,17.26,29.65Q3630.46,1366.49,3630.46,1372.92Z"/><path class="cls-1" d="M3433,1184.72c5.11,1.35,13.34-2.15,14.81,3.63,1.33,5.22-2.71,11.54-9.79,13.89-8.35,2.77-.09,14.53-8.83,17.5C3422,1207.15,3425.66,1195.73,3433,1184.72Z"/><path class="cls-1" d="M3476.13,1082.23c.43,10.91,2.87,22.82-12.85,25.63C3465.5,1098.28,3468.68,1089.19,3476.13,1082.23Z"/><path class="cls-1" d="M3454,1129c3.12,1.73,5.65,4,4.87,7.93-1.07,5.3-5.43,5.09-9.54,5Q3451.62,1135.45,3454,1129Z"/><path class="cls-1" d="M3463.66,1107.75c-1.07,1.58-2.13,3.17-3.2,4.76C3460.18,1110,3461,1108.27,3463.66,1107.75Z"/><path class="cls-1" d="M3548.79,928.6q-1.5,2.31-3,4.62Q3547.29,930.91,3548.79,928.6Z"/><path class="cls-1" d="M4843.52,1222.39c-2.91-.05-4.34-1.48-4.11-4.44Z"/><path class="cls-1" d="M3818.9,1461.42a3.11,3.11,0,0,0-1-3.09q0-4,0-8c.09-8.5.5-17,.17-25.49-.27-7.19,2.88-16.66-9.4-17.61a1.62,1.62,0,0,1,.2-2.48c7.72-33.39-9.47-64.6-8.86-97.54.13-7.22-5-18.75-9-22.13-11.75-9.86-10.27-34.71-33.75-31-26-29.22-53-57.62-75.89-89.45,7.07-15.61,24.25-10.06,36.11-16,24.08-12,55.35.07,72.28,22.09,4,5.2,8.49,9.74,14.71,11.61,25,7.51,45,19.94,52.61,47.28,1.24,4.46,8.26,7.32,12.6,10.93l3.93.06c-7.54,23.89-3,48.48-4.15,72.75l.51,89.81s.28.28.27.28c-9.26-.14-9.36,6.38-9.25,12.9.2,11.82.53,23.64.8,35.46a475.34,475.34,0,0,1-21.23,101.4c-1.54,4.77-2.81,11-8.23,11.13-7.34.19-8.43-7.32-8.61-12.53-.71-19.78-.21-39.6-.79-59.39C3822.6,1482,3825.39,1471.08,3818.9,1461.42Z"/><path class="cls-1" d="M3793.59,1595.46c1.12-16-5.7-27.37-17.1-38.79-24.65-24.69-45.4-53.19-73.71-74.4-8-6-2.77-16-4.05-24,29.49,30.49,58.21,61.79,88.79,91.14C3803.18,1564.38,3805.87,1578.19,3793.59,1595.46Z"/><path class="cls-1" d="M3870,1403.18l-.51-89.82c2.37-1.25,6.91-2.77,6.79-3.72-2.82-23,8.22-46.45-2.64-69l-3.93-.06q-1.86-17.74-3.74-35.49c16.86,10.93,18.55,29,19.95,46.15,1.44,17.5,0,35.23-.25,52.86C3878.34,1336.79,3880.3,1371,3870,1403.18Z"/><path class="cls-1" d="M3630.46,1372.92q0-6.43,0-12.88c17.26,23,36.17,44.86,47.63,71.69l-9.21.84-8.61-4.21c-1.31,0-2.62-.08-3.93-.15-9.05-13-2.15-34.93-23.43-41.66C3630.88,1385.9,3631.23,1377.65,3630.46,1372.92Z"/><path class="cls-1" d="M3759.67,1676.66c1.56-31.07,11.23-58.71,34.12-80.77C3786.83,1624.68,3774.84,1651.34,3759.67,1676.66Z"/><path class="cls-1" d="M3698.75,1458.24c-25.16,5.41-14.35-17.07-20.47-26.42C3688.55,1438,3694.87,1447.15,3698.75,1458.24Z"/><path class="cls-1" d="M3861.77,1451.82c-.27-11.82-.6-23.64-.8-35.46-.11-6.52,0-13,9.25-12.9C3870,1420,3869,1436.47,3861.77,1451.82Z"/><path class="cls-1" d="M3754.85,1681.44l4.69-4.63Z"/><path class="cls-1" d="M4017.92,1568.53c2.57,2.15,5.85,4.71,1.61,7.62-4,2.76-7.42.34-9.77-3.44C4011.35,1569.12,4014.48,1568.52,4017.92,1568.53Z"/><path class="cls-1" d="M3863.9,2387.09c-3.51,16.13-18.65,13.86-29.41,17.95-6,2.29-14.87-1.7-16.6,8.71l-42.42.87c-4.29-.26-8.59-.5-12.89-.75Z"/><path class="cls-1" d="M3762.58,2413.87c4.3.25,8.6.49,12.89.75-.44,1.31-.7,3.66-1.36,3.78-30.79,5.42-61.58,9.49-92-1.93C3709.07,2420.2,3735.73,2414.13,3762.58,2413.87Z"/><path class="cls-1" d="M3340.4,1629c-3.48-29.22,27.43-36.34,37.65-57.25,3.43-7,18.65-2.1,28.48-2.43,12-.41,24.14-.08,36.21-.07C3430,1583.38,3409,1574,3395.07,1586c-3,2.57-7.06,3.81-8.56,8-15.12,2.62-25.94,10.19-29.69,25.86C3349.86,1620.25,3347.89,1629.59,3340.4,1629Z"/><path class="cls-1" d="M3570.7,1543.65c2.84-4.39,5.69-4.42,8.54,0Z"/><path class="cls-1" d="M3297.73,1731.48c3.78-11.13-9.25-26.62,8.85-34C3302.47,1708.49,3314.7,1723.78,3297.73,1731.48Z"/><path class="cls-1" d="M3314.71,1663.06h8.48c-.22,8.57-6.43,8.6-12.53,8.78Z"/><path class="cls-1" d="M4108.36,2277.5c-11.87-.1-23.85.73-35.58-.61-8.48-1-15.54-6.44-6.91-15.12,4-4,9.71-5.94,7.39-12.73-2.84-8.29-10.47-4.71-16.2-5.74,10.41-11.51,19.36-25,31.57-34.05,18.5-13.78,29.18-32.72,41-51.22,7.74-3.21,8.9-9.76,8.64-17,1.39,0,2.77,0,4.16-.05,26.93-24.16,26.86-24.13,44.15,13.2.9,1.95,4.57,2.62,6.95,3.88-4,10.9-23,13.29-17,29.87-13.75,32.79-56.19,48.5-54,90.77l-.41-.07Z"/><path class="cls-1" d="M4138.31,2141c.26,7.27-.9,13.82-8.64,17l-12.09-3.94c-1.2-5.53,2.88-9,5.17-13.16Z"/><path class="cls-1" d="M4133.88,1902.06c10.88,9.65,17.64,21.74,18.08,36.2.55,18.35-5.78,37.1,6.33,54.48,3.6,5.16.12,10.81-7.23,11.75l-7.71-.07-2-19.57C4149.41,1956.3,4131,1930.14,4133.88,1902.06Z"/><path class="cls-1" d="M4125.34,1880.69l8.56,0q0,10.68,0,21.35C4120.25,1899.25,4127.17,1888.22,4125.34,1880.69Z"/><path class="cls-1" d="M4108.36,2277.5l13.78,1.1c-5.75,16-17.68,27.23-29.51,38.56l-1.72-1.53a18.51,18.51,0,0,0-.11-4.14l.45-8.47q8.33-.12,8.55-8.45h0c5.56-.15,8.41-3,8.42-8.57C4108.27,2283.16,4108.32,2280.33,4108.36,2277.5Z"/><path class="cls-1" d="M4092.63,2317.16q-1.74,2.49-3.47,5a21.07,21.07,0,0,1-2.28-2.16l4-4.37Z"/><path class="cls-1" d="M3161.21,1910.61q-.15-15.1-.31-30.21c5.34-27.08,7.4-54.84,16.73-81.09,10.32,2.71,12.86-5,17.67-12v52.63c13.7-17.19,28.31-20,44.6-19.15,16.69.88,33-.43,40.65-20.86v204.5c-24.26-14.3-43.55-34.16-62.09-55-4.94-5.54-9.12-14.41-18.21-11.91-8.11,2.24-4,10.8-5.14,16.59-1.59,7.9-6,13.69-14.52,20-1-15-11.82-26.69,1.72-41.34C3191.48,1922.89,3181,1912.21,3161.21,1910.61Z"/><path class="cls-1" d="M3237.93,2294.53c18.82-7.3,22.22-21.54,13.25-37.25-7.51-13.14-3.38-26.11-4.44-39.13-.39-4.77,2.47-8,7.6-8.29,6.43-.38,9.6,3.59,8.83,9.17-2.42,17.58,3.86,24.48,22.39,26.24,12.46,1.19,20.82,14.21,25.85,26.2,6.23,14.82,16.83,26,27.39,37.49,2.84,3.08,4.71,7.66,10,5.43,5-2.08,4-6.92,4.23-11,.17-3.54-.13-7.11.11-10.64.37-5.39-1.63-12.14,5.78-14.34,5.58-1.66,11.19-1.41,15.58,3.63,11.33,13,24.26,23.41,42.16,25.93,3.52.5,6.79,3,6.84,7,.06,4.86-4.67,4-7.58,5.58-10.08,5.33-16.75,17.22-35.67,10.8,20.53,19,32.69,18.42,45.86,3,12.46-14.61,24.5-13.83,33.53,2.27,1,1.82.88,4.43,2.16,5.91,4.41,5.12,18.53,2.72,13.68,14.45-4.62,11.17-16.38,5.61-24.75,5.59-42-.06-83-11.55-125.49-9.57-13.63.64-28.83-7.71-44.48-7.78-8.42,0-41.83-41.49-42.91-50.55Z"/><path class="cls-1" d="M3878,2452.43c0,1.35-.11,2.7-.26,4l-25.32.21c-.77-5.88-4.3-9.25-10-8.34-18.63,3-35.29-4.92-52.7-8.73-4.31-1-8.87-1.3-8.91-6.77,0-5.75,4-9.9,9.26-9.59,23.25,1.41,50.35-10.54,66.24,17.94C3861.06,2449.81,3872.38,2445.5,3878,2452.43Z"/><path class="cls-1" d="M3237.86,2294.59c-15.61-11.51-19.46-27.88-16.15-45.47a158.77,158.77,0,0,0,2.84-24.5c6.68,23,17.34,45,13.38,69.91Z"/><path class="cls-1" d="M3903.58,2439.76c-.29,5.43-3,8.33-8.6,8.12C3895.25,2442.41,3898.14,2439.74,3903.58,2439.76Z"/><path class="cls-1" d="M4090.91,2315.63l-4,4.37-12.69.05c1.28-11.12,10.08-7.66,16.62-8.56A19.12,19.12,0,0,1,4090.91,2315.63Z"/><path class="cls-1" d="M4065.54,2328.69c.18,6.21.3,12.38-8.36,12.8C4057.05,2335.32,4056.92,2329.15,4065.54,2328.69Z"/><path class="cls-1" d="M4099.8,2294.57q-.23,8.32-8.55,8.45C4091.41,2297.48,4094.29,2294.69,4099.8,2294.57Z"/><path class="cls-1" d="M4108.23,2286c0,5.61-2.86,8.42-8.42,8.57Q4100,2286.31,4108.23,2286Z"/><path class="cls-1" d="M4074.08,2320.15q-.06,8.37-8.42,8.42C4065.8,2323.1,4068.62,2320.3,4074.08,2320.15Z"/><path class="cls-1" d="M4057,2345.73c0,5.59-2.84,8.4-8.39,8.55C4048.72,2348.77,4051.52,2345.93,4057,2345.73Z"/><path class="cls-1" d="M4048.58,2354.33c-.13,5.55-3,8.37-8.52,8.43C4040.22,2357.25,4043.05,2354.43,4048.58,2354.33Z"/><path class="cls-1" d="M4040,2362.85l-4.19,4.18Z"/><path class="cls-1" d="M3600.08,1505.3c-15.08,8.07-27.61,15.26-43.44,12.89-7.79-1.17-11.62-3.84-11.48-11.85.11-6.68.31-12,9-14.16C3571.52,1487.83,3585.88,1491.67,3600.08,1505.3Z"/><path class="cls-1" d="M3660.29,1428.36l8.61,4.21c-.85,2.94-.55,7.87-5.31,6.25C3659,1437.26,3660.75,1432.11,3660.29,1428.36Z"/><path class="cls-1" d="M3558.71,1160c-.57,7.79.67,15.9-4.13,22.94C3545.4,1173.38,3540.35,1164.58,3558.71,1160Z"/><path class="cls-1" d="M3558,1155.35c3.42,1.25,4.83,2.72.53,4.81C3558.32,1158.56,3558.15,1157,3558,1155.35Z"/><path class="cls-1" d="M3808.83,1404.78c-8.84-25.51-11-52.43-14.62-78.8-4-29-19.41-50.65-37-71.9,23.48-3.68,22,21.17,33.75,31,4,3.38,9.11,14.91,9,22.13C3799.36,1340.18,3816.55,1371.39,3808.83,1404.78Z"/><path class="cls-1" d="M3873.59,1240.62c10.86,22.57-.18,46.07,2.64,69,.12.95-4.42,2.47-6.79,3.72C3870.57,1289.1,3866.05,1264.51,3873.59,1240.62Z"/><path class="cls-1" d="M3817.86,1450.36c-6.94-13.54-8.6-28.21-9.23-43.1,12.28,1,9.13,10.42,9.4,17.61C3818.36,1433.35,3818,1441.86,3817.86,1450.36Z"/><path class="cls-1" d="M6645.06,425.37c27.27-4.18,46.45-10.88,64.94-9.33C6816.13,425,6901,326.11,6889.35,225c-8.42-73.21-88.9-150-171.08-157.73-92.49-8.71-110.74,6.93-109.68,100,1,89.3,6.72,178.58,6.47,267.86-.35,124.62-4.92,249.22-6.46,373.85-.73,58.75,9.6,70.31,66.44,89.42,17,5.71,33.09,14,53,22.6-25.85,32.19-49.58,46.28-85.34,31.63-56.17-23-113.2-22.06-170.32-1.74-10.45,3.72-23.75,8.46-32.82,5-15.12-5.7-27.89-17.61-41.64-26.9,11.75-8.61,22.35-21.51,35.47-25,40.37-10.86,66.72-38.21,66.8-79.79q.69-334.87-.31-669.74c-.17-46.14-26.08-72.48-71.18-83.5-11.21-2.74-20.27-14.19-30.32-21.64,11.37-9.7,22.72-19.43,34.19-29,.77-.65,2.53-.51,3.71-.24,92.56,21.11,182.85-9.43,274.22-11.36,103.37-2.18,199,26.43,262.35,115,66.72,93.19,58,226.19-55.17,285.84-15.55,8.2-29.92,18.72-45.74,26.3-66.07,31.66-56.45,29.1-20.8,92.55C6910.74,634.42,6976,737.4,7038.2,842.11c27.2,45.8,93.38,80.1,138.08,69.64,55-12.86,75.56-38,75.67-96.13q.57-297,.21-594.07c0-24,.52-48-.3-71.89-2.06-59.42-10.58-69.1-68.37-84.19-7.34-1.91-18.91-9.42-18.68-13.83.44-8.6,5.88-21,12.83-24.28,12-5.64,26.69-7.43,40.27-7.5,96-.48,192-2.14,288,.53,113.81,3.17,219.64,38.4,309.63,106.68,107.75,81.76,172.79,191.09,178.69,330.18,4.74,111.69-9.36,218.12-75.57,313.33-79.9,114.88-190.34,174.82-328.14,179.61-122.36,4.25-245,.83-367.51-.4-17.22-.17-34.51-6.7-51.55-11.13-22.95-6-42.94-7.39-62.34,12.55-8.21,8.43-28.59,12.34-40.46,8.67-51.37-15.86-98-40.74-127.57-88.48-52.91-85.5-103.76-172.32-158.35-256.73-31.79-49.17-69.23-94.69-104-141.93C6669.78,460.65,6661.28,448.26,6645.06,425.37ZM7358,475.5h-.21q0,143.63,0,287.25c0,2.52-.17,5,0,7.55,1.65,20-.85,41.71,6.19,59.64,7.63,19.41,20.85,39.88,37.42,51.95,60.71,44.19,230.61,30.7,303.36-24.09,110.28-83,161.11-197.87,161.78-333.35.47-93.36-13.2-185.19-59.76-269.45-34.52-62.47-84.51-109.93-145.21-143.45-65.05-35.94-137.49-46.1-212.37-40.62-64.72,4.74-90.59,28.78-91,94.65C7357.43,268.88,7358,372.19,7358,475.5Z"/><path class="cls-1" d="M5729.05,1378.54c-16.34,24.53-35.11,47.8-48.55,73.82-43.78,84.69-85.12,170.62-128.36,255.59-26.73,52.53-54,104.83-83.3,156-21.28,37.2-46.44,38.71-67.24,2.06-35.29-62.2-66.42-126.76-98.9-190.54q-64.09-125.88-127.59-252.06c-2.32-4.58-4.72-9.1-7.09-13.64L5156,1411.2c-5.82,17.62-16.57,35.19-16.71,52.86q-1.92,236.39-.18,472.8c.36,45.2,17,60.81,62.47,72.21,18.15,4.55,48.16,3,37.13,32.73-4.35,11.7-34.24,24.14-48.07,20.3-52.87-14.67-103.73-16.78-155.78,1.4-8.71,3-22.6,3.05-29.09-2-10-7.76-18.25-20.34-21.74-32.46-1.15-4,13.78-15.82,23.09-19,67-23.12,71.13-27.53,71.3-98.07.47-208,.08-416.09,1.08-624.14.22-46.64-6.3-84.6-61.34-97.29-16.38-3.77-29.48-21.74-46.21-34.89,6.57-6.2,9.79-12,13.23-12.08,49.83-1.83,99.76-4.72,149.49-2.78,11.56.45,26.76,15.81,32.94,28,43.09,85,83.56,171.27,126.18,256.49,46,92,91.33,184.53,141.26,274.45,23,41.39,35.52,37.78,57.66-3.7q107.28-201,215.7-401.32c24.41-45.08,50.48-89.28,76.26-133.61a51.78,51.78,0,0,1,15.3-16.49c22.78-15.28,138.77-9.23,165.57,9.86-23.13,14.29-44.44,29.38-67.45,41.17-28.45,14.58-39,37.93-39.42,67.69q-.84,62.4-.83,124.81-.07,257.24.21,514.45c.16,66.85,14.75,85.26,77.78,107.77,9.89,3.53,17.13,14.48,25.6,22-9.78,10-18.05,25.41-29.73,28.69-14.61,4.12-32-2.7-48.25-3.08-44.85-1-89.73-1.94-134.58-1.37-22.47.28-45.64,8.06-67.07,4.31-11.62-2-20.24-21.13-30.22-32.52,9.57-6.09,18.41-15.27,28.84-17.74,57.17-13.53,71.75-29.57,72-88.13.68-158.86,1.11-317.74.42-476.6-.09-22.18-7-44.32-10.79-66.48Z"/><path class="cls-1" d="M3192.23.21C3457.5-4,3675.65,221.4,3669.44,505.26c-6.31,288-198,468.4-489.87,466.39-263.36-1.81-473.71-208.67-469.83-507.27C2713.12,203.82,2921.89-5.11,3192.23.21Zm-4.07,912.44,3,11c54.91-15.44,110.88-27.9,164.49-47,81.29-29,136.29-92.31,159.25-170.17,45.23-153.34,40.49-308-24.56-457.58C3441.67,137,3359.09,71.49,3235.6,59.68c-191.86-18.37-306,73.65-366.16,221.32-57.3,140.62-43.69,284.49,2,425.63,10.94,33.81,30.78,66.51,53,94.57C2991.33,885.51,3083.07,915.93,3188.16,912.65Z"/><path class="cls-1" d="M5877.77.18C6143.05-7.19,6360.35,218.09,6359.62,493c-.78,293.66-192.83,476.44-481.47,479-266.14,2.36-475-206.89-477.94-487.72C5397.28,205.31,5607.8-2.21,5877.77.18Zm-3.09,912.43q1.48,5.5,3,11c56.21-15.41,113.59-27.52,168.35-47,84.18-29.95,138.65-96.35,161.42-177.4,42.52-151.32,36.74-303.73-27-450.49-47.82-110.06-128.55-176.28-251-188.8-190.93-19.53-307.36,70.2-368.46,217.81-59.18,143-45,289.27,1.35,432.91,10.51,32.57,30.74,63.62,52.34,90.73C5680.72,884.39,5770.89,915.32,5874.68,912.61Z"/><path class="cls-1" d="M1803.45,45.08c16-5.1,32-14.42,48-14.55,56.48-.46,113,2.17,169.48,3.77,8.81.25,18.36-.6,26.17,2.53,7.23,2.9,16.84,10,17.5,16.1.62,5.67-8,15-14.67,18.22-11.15,5.4-25.38,4.92-35.94,11-31.86,18.39-53.12,41.74-52.79,83.88,1.63,209.32-.15,418.68,1.47,628,.25,33.25,12.07,66.34,17.74,99.64,3.44,20.2,5.34,40.65,8.38,64.59-55-6-69.52-48.06-92.81-77.88-73.42-94-144.85-189.59-216.57-284.92C1597.83,487.05,1517.05,378,1435.06,269.94c-7.33-9.67-21.06-14.51-31.81-21.59-8.32,12.65-22.85,24.85-23.8,38-3.09,42.65-1.22,85.67-1.21,128.54,0,128.63-.22,257.27.14,385.9.2,71.81,10.32,84.89,79.29,108.86,9.28,3.23,17.92,8.31,26.86,12.53q1.52,6.12,3,12.25c-17.88,5.9-35.61,16.26-53.66,16.85-53.87,1.77-107.92.87-161.8-1.49-19.6-.86-38.9-8.78-58.33-13.47l.27-13.91c13.07-4.82,26-10.07,39.21-14.4,41-13.43,64.9-43.51,65-86.64q.81-329.14.45-658.28c-.07-50.48-23.46-77.75-73.16-91.16-12.64-3.41-24.74-8.83-38.14-13.71,4-7.6,4.91-12.1,7.59-13.86,39.2-25.64,168.75-11.23,197.14,24.34,55.66,69.76,109.72,140.83,163.54,212,70.48,93.24,140.18,187.06,210,280.79,20.22,27.15,38.61,55.74,60,81.86,8.35,10.17,22.79,15.36,34.45,22.82,7.25-11.76,20.71-23.48,20.79-35.3q1.82-242.1,0-484.23c-.24-35-19.56-58.31-54.48-68.51-14.79-4.31-28.46-12.45-42.64-18.85Z"/><path class="cls-1" d="M3870.55,233c-3.72,27.06-8,43.8-8,60.54q-.42,253.53.42,507.06c.18,65.34,19.55,89.34,81.43,107.64,10,3,17.55,14.28,26.23,21.74-11.49,7.58-22.82,21.41-34.5,21.71-62.75,1.62-125.63.87-188.36-1.56-12.71-.49-25-11.71-37.47-18,10.18-8.45,19.12-21.25,30.78-24.59,41.15-11.8,68.13-44.17,68.39-91.86.75-136.22.42-272.45.5-408.67,0-73.16.53-146.32-.09-219.48-.59-69.84-16.27-90.63-81.84-116.31-7.94-3.11-13.27-12.86-19.81-19.54,8.07-6.67,16-18.87,24.24-19.07,40.25-1,80.79-.85,120.77,3.31,14.1,1.46,30.67,12.54,39.68,24.19,88.41,114.31,175.54,229.62,262.88,344.76C4219.63,489,4283,573.54,4347.37,657.31c6,7.75,19.68,17.36,25.92,15.16,8.18-2.88,15.11-16,17.83-25.94,3.58-13.1,3.35-27.46,3.36-41.28q.21-211.9-.14-423.82c-.18-72.7-8.73-84-78.47-110.08-10.08-3.77-19.6-9-29.38-13.58q-.42-6.75-.85-13.49c20.32-4.61,40.58-12.76,61-13.13,52.65-.95,105.42.62,158.05,3.17,18.52.9,36.76,7.58,55.14,11.62l.13,12.3c-15.38,6.74-30.49,14.2-46.19,20.09-38.15,14.31-59.11,38.33-58.92,82,.93,218.2-.38,436.42.87,654.62.19,32.27,11.56,64.33,14.24,96.78,1,12.55-7.71,25.91-12,38.9-10.72-5.7-24.91-8.74-31.64-17.49q-183.89-239.28-366-479.92c-44.71-59.13-86.17-120.75-131.59-179.32C3916.73,258.42,3895.49,250.06,3870.55,233Z"/><path class="cls-1" d="M997.67,1869.73c19.8,25.79,14.26,43.59-5.52,62.2-142.74,134.25-306,173.47-494.59,114.66-74.69-23.29-137.64-61.86-190.6-117-87.73-91.44-128.36-203.42-131.85-328.45-4-142.1,36.22-268.92,143.48-367.78,54.31-50.06,118.87-80.25,190.69-102.3,107.54-33,210.89-19,312.53,12.75,46.26,14.46,86.31,48.84,129,74.52,4.09,2.46,7.47,6.9,9.93,11.14,13.38,23,11.74,127.6-5.89,161.22-16.37-20-37.2-35.37-44.3-55.58C854.39,1175.23,655,1140.45,530,1191c-124.71,50.37-183.39,144.79-210.21,268.82-21.27,98.43-16.82,196.47,7.53,292.34,38.38,151.09,155.36,268.87,336.27,263.31,107.83-3.31,199.52-45.13,282.51-110.71C961.7,1892.38,979.08,1882.25,997.67,1869.73Z"/><path class="cls-1" d="M2127.51,700.67c33.93,13.11,51.34,31.72,52.26,63.58,2.23,77.48,85.29,141.69,158.2,145.35,106.25,5.34,168.56-27.43,212.49-115.18,28.92-57.76,18.54-114.68-33.46-165.11-69.05-67-148.14-123.67-223.33-184.28-61.44-49.53-126.89-94.13-148.58-178.2-19.54-75.75.66-138,57.24-187,102.33-88.72,236.58-101.16,355.35-36.2,29.23,16,48.75,39.68,47.64,75.71-.74,23.92.5,48-1.84,71.71-.82,8.3-9.7,15.8-14.9,23.66-7.64-5.41-18-9.21-22.36-16.56-8.94-15.06-15.87-31.61-21.5-48.27-18.35-54.31-57.62-80.93-112.94-84.35-50.81-3.14-98.69.86-143.19,34.42-62.5,47.14-74.21,116.05-17.34,170.16,41.66,39.64,88.55,74,134.38,109,74.84,57.2,151.7,111.65,207.51,189.87,79.48,111.41,57.78,256.64-51,333.54-96.59,68.26-200.76,91.23-314.14,47-35.84-14-70.47-31.09-105.3-47.51-6.51-3.06-15.39-8.92-16.37-14.65C2115.8,825.78,2113.34,764.24,2127.51,700.67Z"/><path class="cls-1" d="M7501.83,1143.89c17.91-.89,35.81-2.37,53.73-2.52,24-.2,48,1.37,71.94.89,55.39-1.11,76.16,18.19,76.62,76.92,1,131.15.85,262.32,1.08,393.48.17,98.37-.29,196.75.55,295.12.41,47.54,8.81,90.68,64.44,107.13,8.32,2.47,17.22,22.15,15.64,32.27-1.12,7.16-19.25,15.87-30.21,16.5-32.5,1.86-65.22.23-97.85-.39-8.79-.17-20.82,1.82-25.8-3-36.11-34.66-65.34-10.57-101.35,3.67-92.88,36.73-182.93,28.85-261.7-39.5-83.29-72.27-101.79-162.69-67.64-263.69,19.31-57.11,62.76-98.39,116-124.31,66.51-32.35,136-45.38,206.77-7.17,21.83,11.78,38.08,23.55,32.18,58.41-17.85-3.69-35.88-3.54-49.92-10.93-92.07-48.53-178.7,14.14-204.35,88.18-26.48,76.47-23.45,154.62,35.33,220.31a148.52,148.52,0,0,0,159.87,41c90.86-31.8,111.43-95.14,111.11-178.36q-1.05-268.62,0-537.25c.25-55.51-14.95-98.16-72.49-119-15.26-5.52-26-23.46-38.83-35.7Q7499.42,1149.93,7501.83,1143.89Z"/><path class="cls-1" d="M1710.4,1147c14-2.14,28.06-5.87,42.13-6.09,34-.55,68.1.37,102.14,1,41.83.8,57.36,14.28,59.21,56.6,2.09,47.82,1.58,95.76,1.62,143.64.13,180.22.58,360.44-.3,540.66-.28,57,3.67,108.86,68.13,133.31,8.08,3.06,9,25.07,13.16,38.3-11,3.41-21.83,9.33-32.9,9.72a646.55,646.55,0,0,1-78.37-1.9c-17-1.47-34.35-5-50.18-11.12-27.31-10.59-50.2-14.05-77.42,5.76-57.31,41.7-182,37.88-237.33-6-30.93-24.54-63.71-50.23-85.37-82.33-84.55-125.25-25.54-264.3,88-328.51,69.79-39.48,148.22-52,222.66-5.39,11.19,7,13.22,28.6,19.48,43.45-13.27.7-29.81,6.9-39.33,1.27-107.16-63.43-217.39,39.12-226.63,136.17-8.59,90.24,26.07,176.19,107.63,208.69,27.64,11,63.25,8.52,93.87,3.67,25.05-4,51-16.88,71.33-32.52,31.3-24,44.83-59.23,44.81-99.57-.14-205.27.32-410.54.27-615.81,0-39.09-17.31-65.86-54.85-82.07-20.46-8.84-37.18-26.33-55.58-39.93Z"/><path class="cls-1" d="M4814.71,923.54c25.35-16.07,51.94-28.58,72.62-47.53,14.16-13,28.3-34.83,28.43-52.82q2.35-334.71-.21-669.45c-.33-51.75-24.75-74.7-77.11-85.47-10.2-2.1-18.76-12.11-28.08-18.48,8.93-9.29,16.9-19.89,27.18-27.32,5.28-3.81,14.67-2.56,22.21-2.57,147.72-.08,295.47-1.29,443.14,1.49,21.24.4,53.41,15.3,60.65,32.06,12.8,29.63,22.43,67.31-12.13,102.92-15.75-19.51-27.79-38.47-43.82-53.07-14.51-13.22-32.82-29.56-50.4-30.78-56.55-3.9-113.56-2.48-170.34-1.11-46.23,1.11-62.43,15.85-64.49,61-2.17,47.79-2.19,95.88.36,143.65s19.11,63,66.35,64.23c53,1.38,106.05-.1,159.07.16,29,.14,46.48-12,55.84-40.69,3.41-10.44,19.32-16.81,29.52-25,7.93,10.54,21.26,20.35,22.8,31.75,5.5,40.8,8.9,82.15,8.73,123.27,0,10.86-13.83,25.92-25,30.91-6.79,3-27.76-7.45-30-15.34-10.67-37.79-36.38-48.38-71.5-48-51.75.54-103.57-.93-155.27.94-46,1.67-58.54,15-58.8,60.37-.65,113.47-.08,226.95-.34,340.42-.09,37.88,8.13,69.57,49.11,84.09,16.4,5.81,31.61,15.68,46.23,25.4,6.41,4.26,10,12.78,14.84,19.37-7.52,5.44-14.4,13.68-22.74,15.61-10.66,2.47-22.5-.63-33.83-.49-66.48.81-133,1.14-199.44,3.24C4854.39,947,4830.83,951.48,4814.71,923.54Z"/><path class="cls-1" d="M550.21,922c8.21-5.34,16.16-11.14,24.67-16,34-19.27,56.09-46,56.2-87.12.32-117.18,1.9-234.37.51-351.52-.6-50.18-21.81-68.77-74-69.5-87.07-1.21-174.17-.31-261.25-.62-29.91-.1-57.41-5.6-76.08-45.9,28.9-4.31,53.66-10.84,78.52-11.21,84.54-1.28,169.12-.39,253.68-.32,56.85.05,74.23-16.59,76-74,.77-25.18-1.66-50.58.67-75.58,5.61-60.19-23.78-97.57-75.13-122.3-6.47-3.12-12.22-7.74-18.3-11.66q-.72-5.88-1.43-11.75c20.17-4.75,40.25-13,60.55-13.57,55.27-1.59,110.64-.09,166,.51,11.27.12,23.09-.14,33.59,3.15,7.17,2.25,16.58,9.82,17.42,16,.79,5.75-7.14,16.44-13.53,18.83C745,89.44,734.64,131.28,734.84,181.92q1.23,308.15-.21,616.29c-.27,51.68,13.16,91.44,66.39,110.06,7.45,2.61,18.19,16.68,16.47,20.45-4,8.77-13.88,16-23,20.9-6,3.23-14.81,1.6-22.36,1.58-57.75-.1-115.54.8-173.22-1.23-16.78-.59-33.27-9.62-49.89-14.79Q549.63,928.58,550.21,922Z"/><path class="cls-1" d="M7040.47,1828.13c0,32.78-.47,65.57.12,98.34.68,37.36,17.63,65.56,51.91,81,18.3,8.25,34.23,18.88,21.25,38.59-6.21,9.43-25.75,12.81-39.65,13.91-23.46,1.84-47.24-.51-70.89-.64-6.21,0-14.45,4.67-18.36,2.08-43.14-28.62-79.72-7.3-122.85,5.83-71.52,21.76-145,21.24-213.66-25.4-84.62-57.46-94.9-194.81-13.53-257.89,67.46-52.3,143.86-62.58,225.38-41.38,7.2,1.87,17.52,3.81,20.12,8.91,5.71,11.2,7.4,24.44,10.73,36.84-11.07,1.85-25.17,9-32.69,4.68-45.61-26.16-85.47-17-127.11,10.49-47,31-51.43,74.47-43.17,122.93,8,47.11,37.27,76.23,83.06,87.15,86.58,20.66,175.87-14.79,170.57-130.51-2.21-48.18-.51-96.52-1.75-144.76-1.56-61.24-26.82-91.1-87.57-88.85-40,1.49-79.32,18.93-119.22,28-11.62,2.65-24.19,1.17-36.32,1.58,1.47-14.95-1.86-33.3,5.69-43.95,8.64-12.17,26.21-19.28,41.2-25.46,65.9-27.16,206.49-35.26,265.68,45.11,15.45,21,24.81,49.09,28.78,75.17,4.87,32,1.16,65.39,1.16,98.17Z"/><path class="cls-1" d="M269.37,58.26c-97.28,34.35-90.52,111.52-89.7,189,1.89,179,2.92,358-.67,536.91-1.24,62,22.52,100.17,75.58,125.4,7.55,3.59,13.93,9.62,32.47,22.73-30.57,8-50.81,17.27-71.35,18-55.16,2-110.45.49-165.68.11-10.05-.07-21,.84-29.86-2.77C11.83,944.26,1.3,936.25,0,928.82-1.06,922.77,8.64,910.7,16,908c46.78-17.22,59.49-51.93,59.27-98.36-1-211.75-1.33-423.51.27-635.25.36-47.63-17.23-79-58.95-100.14C7.26,69.49,1.85,57-5.39,48c11.33-6.25,22.54-17.64,34-17.89q98-2.13,196.13.84c13.29.39,26.32,9.77,39.47,15Z"/><path class="cls-1" d="M1172.16,45c-8,13.32-8.33,15-9.26,15.37-75.74,33-82.59,95.83-81.33,168.69,3.34,191.58,2.3,383.27.49,574.9-.46,48.7,15.12,82.31,59.35,103.5,8.34,4,12.93,15.78,19.25,24-9.79,6.52-18.83,15.3-29.6,18.86-8.94,3-19.9-.55-30-.65-47.7-.46-95.41-1.49-143.1-.78-25.36.39-50.91,4.58-65.29-23,.73-2.31.78-4.28,1.54-4.6,81.5-34.75,85.13-102.68,83.71-178.76q-5.12-272.25.22-544.62c1.21-60.73-19.69-101.22-70.65-129.56a48.23,48.23,0,0,1-9.06-6.8c-1.79-1.63-2.9-4-9-12.84,14.41-6.5,29.75-20.19,40.78-17.32C1007.78,51.47,1090,19.28,1172.16,45Z"/><path class="cls-1" d="M2522.74,1985.84c-7.21,13.44-10.94,32.53-22.18,39.46-129,79.54-312.47,85.68-409.92-70.66-86.23-138.34-16.08-267.85,111.42-329.85,93.32-45.38,182.93-38.37,272,6.66,71.74,36.25,102.26,101.19,114.66,176.48,4.64,28.17-16.23,41.42-38,41.92-99.64,2.27-199.35,1.91-299,1.18-9.14-.06-18.21-9.47-27.31-14.54l.27-11.59c14.38-4.11,28.67-11.27,43.18-11.77,44.13-1.5,88.35-.43,132.53-.36,26.39,0,55.49,4.6,69.61-25.44,15.56-33.14-.62-62.27-19.6-87.43-56.87-75.34-204.1-70.63-260.42,23.49-13.49,22.53-23.31,47.58-32.36,72.37-20.8,57,4.12,105.52,37.48,147,66.91,83.26,167.53,94.53,267.42,49.14,16-7.28,33-12.46,49.52-18.61Q2517.39,1979.58,2522.74,1985.84Z"/><path class="cls-1" d="M6343.34,1852.21c-45.44,0-90.93,1.18-136.29-.81-11.61-.51-22.79-11.05-34.16-17,11.44-7.17,22.56-19.87,34.38-20.54,44-2.51,88.3-1,132.48-1.15,30.12-.06,64.74,5.54,76.93-31.79,11.83-36.26-7.53-67.29-32.09-90.77-75.82-72.47-208.54-46.74-258.62,45.56-37.93,69.92-42.42,137.67,7.11,201.39,48.17,62,113.56,91.69,193.09,77.14,30.26-5.54,58.68-20.45,88.64-28.49,14-3.78,29.76-1.4,44.71-1.81-7.54,15.6-10.87,37.94-23.31,45.69-77.31,48.2-163.23,62.39-250.63,39.76-77.77-20.13-134.11-71.41-166.1-146.8-25.86-60.91-34.24-123.55,2.77-181.19,23.81-37.08,52.87-75.93,89.15-99,121.26-76.93,276.42-66.59,373.24,47.27,22.54,26.51,34.66,64.1,44.47,98.61,11.87,41.8-4.89,61.52-49.46,63.44C6434.29,1853.73,6388.78,1852.21,6343.34,1852.21Z"/><path class="cls-1" d="M2652.93,2055.26c13.92-14.23,29.44-27.25,41.3-43,12.61-16.76,29.92-35.68,30.92-54.42,3.7-69,1.37-138.35,1.55-207.56.07-27.74-10.14-46.87-36.9-59.78-12.93-6.24-20.49-23.61-31.76-37.52,63.84-28.29,126.61-13.26,163.52,34.06,24.69,31.65,32.06,29.2,51-6.48a315.16,315.16,0,0,1,52.48-72c17.88-18.29,47-23.94,63.53-2.71,7.16,9.19-2.33,42.43-14.51,53.63-57.37,52.78-107,111.22-132.36,184.89-14,40.7-17.71,85.71-20.21,129.11-.75,13.06,16.8,28.56,28.42,40.58,14.36,14.85,31.27,27.23,47.08,40.69q-1.83,4.78-3.67,9.59h-233.9Z"/><path class="cls-1" d="M1087.63,1634.34c13.45-3.31,26.79-8.76,40.37-9.45,23.87-1.22,48,2,71.82.61,35.58-2,51,13.36,50.75,48.63-.63,78.11-.77,156.24.23,234.34.55,43-.07,87.39,52.43,106.27,5.42,2,10.62,17.76,8.32,24.61-3,8.93-12.52,19.68-21.14,21.75-11.42,2.75-24.69-3.45-37.16-3.48-32.28-.06-64.56.88-96.82,2-12.54.43-26.14,5.93-37.21,2.51-9.73-3-20.48-14.06-23.45-23.79-2.15-7,5.6-23.29,12.53-25.89,42.73-16,48.87-51.07,49.4-89,.79-56.69-1.1-113.44.81-170.07,1.25-36.93-15.87-62.25-42.47-83.8-9.47-7.67-19.51-14.63-29.3-21.91Q1087.19,1641,1087.63,1634.34Z"/><path class="cls-1" d="M1209,1531.56c-28.19,1-67.24-34.88-68.88-63.25-1.79-31.11,28.17-62.79,60.64-64.1,36.45-1.47,69.41,28.31,70.17,63.42C1271.56,1495.94,1238,1530.55,1209,1531.56Z"/></svg>