<svg id="Layer_1" data-name="Layer 1" xmlns="http://www.w3.org/2000/svg" viewBox="0 0 8810.18 2506.21"><defs><style>.cls-1{fill:#ac8a42;}.cls-2{fill:#919a46;}.cls-3{fill:#b38444;}.cls-4{fill:#869f4d;}.cls-5{fill:#ab905e;}.cls-6{fill:#a49041;}.cls-7{fill:#f7f5dd;}.cls-8{fill:#bb7f38;}.cls-9{fill:#9c9443;}.cls-10{fill:#c67638;}.cls-11{fill:#d86137;}.cls-12{fill:#cf6e33;}.cls-13{fill:#72a744;}.cls-14{fill:#7fa343;}.cls-15{fill:#e15932;}.cls-16{fill:#4d4d4f;}</style></defs><path class="cls-1" d="M4236.8,1715.6c.79-3.35.78-7.19,5.07-8.44,22.75-.22,32.35-15.55,39.15-34.08h0c16,3.5,25-6.82,34-17.25,14.56,1.31,27.78,1.37,34.44-16.12,2.67-7,10.87-10.55,19.7-9.72,5.35.5,9.84-1.42,10.2-8s-3.72-8.58-9.1-9.47l9.5-8.41,8.34-.63c4.71,10.9,7.72,23,14.5,32.43,12.5,17.33,20.19,46,52.3,28.81,1.65-.89,4.19-.19,6.31-.12,5.68.2,11.94-.2,12.45,7.9s-5.06,9.26-11.18,9.1c-9.75-.25-15.83,1.85-9.67,13.15l-21.06,5c-1.48-9.23-7.22-13.35-16.09-11.77-4.7.84-9.22,3.66-9.69,9.54-.73,9.12,5.32,10,12.18,9.87-10.62,12-7.29,19.2,8.13,18.94a220.66,220.66,0,0,0,42.34-4.76c42-9,82.1-9.39,117.2,20.32l0,0c20.07,28.29,43.35,53.73,68.67,77.36l-.05-.06c.16,8.11,7.05,12,11.18,17.57,32.56,43.65,47.63,92.07,37.93,146.32-7.55,42.23-23.31,81.91-41.95,120.44l-15.3,3.41c-5.88-10.82-8.43-21.12,8.2-23.2,9.72-1.22,8.34-7.16,8.76-13.49,1.11-16.79,4.21-36.31,11.19-48.28,16.08-27.56,14.25-55.3,14.4-83.94,0-6.78,1.67-15.92-9.52-15.09-9.45.69-7.4,9-7.43,15-.06,13.24.78,26.63-15.92,34.18-.56-6.45-1.25-11.26-1.34-16.08-.74-36.81-1.89-38.27-39-38.07-14.23.08-26.4-.94-33.5-16.33-3.72-8.06-12.54-11.1-21.94-9.61-1.32-4.46,2.85-14.59-8.72-8.44-6.67-2.88-6.64-9.54-9.35-14.95-4.76-9.46-10.34-20.49-24.87-15.24l-1.32.45c-7.9-16.57-17.78-31.08-37.14-35.76-10.67-7-21.78-12.66-35.1-11.66-1.88-2.9-3.09-6.84-7.28-6.93-44.95-1-90.39-7.68-133.72,11.06l-.05,0c-11.47.67-19.23,9.81-29.62,13-3.18-2.24-5.75-7.91-3.25-8.54,15.89-4,26.54-21.13,42.31-21,39.78.42,78.1-15.26,118.14-9.37a39.54,39.54,0,0,0,10.69-.3c5.62-.72,6.92-4,4.74-9.06-1-2.33-55.88-23.82-57.16-22-17.41,24.49-43,12.81-65,13.53-16.45.54-27.6-12.57-34.67-27.26-6.53-13.58,8.26-11.83,13.11-17.17,6.42-7.06,7.23-14.64.14-20.6-6.3-5.3-15.91-12.09-22.34-2.21C4268.78,1716.3,4253.87,1717.78,4236.8,1715.6Z"/><path class="cls-2" d="M5095.71,1604a3.76,3.76,0,0,0-3.19,1.25l-90.92,41.39.09-.18L4895,1673.18l-.09,0c-34.55,0-68.34,9.66-103,8,2.52-11.79,12.06-7.62,19.14-8,14.95-.78,32,3.66,44.51-2.09,31-14.28,64.28-16.38,96.56-23.56,9.51-2.11,15.72-6.69,19-14.8,3.22-7.88-4.82-10.46-8.87-15.11-19.59-22.5-45.24-24.07-72.17-21.85-10.35.86-21.58.68-25-11-6.91-23.23-23.74-25.12-43.52-23.47-11.59,1-25.23,1.5-28.34-12.62-2.86-13-10.07-13.11-19.94-13.12-48.6,0-97.2-.33-145.8-.54,43.18-8.55,87-9,130.73-9.75l1.65.67,1.48-1a64.26,64.26,0,0,1,26.24-.2c54.13,5.13,108.39,1.1,162.57,2.15a12.58,12.58,0,0,0,6.21-1.29c24.23-13.75,52.15-6.6,78.14-14.47,34.1-10.34,66.53,2.45,94.19,25.67,7.51,6.29,6.13,13.66,6.58,21.31.48,8.08-4.25,9.93-11.07,12.68-11.63,4.68-27.72,7.54-22.52,27Z"/><path class="cls-3" d="M4236.8,1715.6c17.07,2.18,32,.7,42.86-16,6.43-9.88,16-3.09,22.34,2.21,7.09,6,6.28,13.54-.14,20.6-4.85,5.34-19.64,3.59-13.11,17.17,7.07,14.69,18.22,27.8,34.67,27.26,22-.72,47.59,11,65-13.53,1.28-1.81,56.16,19.68,57.16,22,2.18,5,.88,8.34-4.74,9.06a39.54,39.54,0,0,1-10.69.3c-40-5.89-78.36,9.79-118.14,9.37-15.77-.16-26.42,17-42.31,21-2.5.63.07,6.3,3.25,8.54l-15.8,13.21-5.75,4.53.39,0c-7.39-.64-9.35,3.51-8.74,9.92-1.73,3.12-3.44,6.25-5.19,9.37-37.12,66.12-30.09,107.85,26.66,158.17,19.51,17.31,18.92,33.57-1.9,49.35-18.06,13.71-37.79,13.43-56.57,3.43-23.93-12.73-41.83-31.76-50.32-58.35,19.27,3.21,28.64,19.9,38.25,32.87,17.94,24.24,44.68,29.56,67.77,8.9,5.28-4.72,9.28-12.08,4.71-16.91-10.42-11-21.52-23-34.87-29-10.24-4.62-15.38-8.18-15-19.07.24-6.42.5-13-5.69-17.42-15-10.58-16-28.56-10.27-40.49,14.59-30.31-1-63.71,18-95.27-15.33,2.51-23.12,7.58-27.75,17.1-6.3,13-12.27,26-23.56-1,3.27,16.6-8.52,25.86-9.9,37-2.79,22.49-14.29,44-7.86,67.71,4.9,18.11,10.51,36.38,6.11,55.61-11.87-17-14.58-36.78-16.22-56.66-6.69-80.87,20.45-151.09,68.16-214.74Zm-32.95,56.19-1.87-.92,1.75,1.05c1.53,6.94-10.92,16.36,3,20.75,5.53,1.74,13.66,3,16.84-3.9,2.11-4.61,2.7-12,.38-16.15C4218.68,1763.19,4210.78,1769,4203.85,1771.79Z"/><path class="cls-4" d="M4729.88,1371.69l-1.37-.19-1.18.73-32.21,10.11c-8.95-.83-17.89-1.67-25.86-6.43q10.31-18.65,20.62-37.3s.69-1.73.68-1.74q51.1-65.36,102.22-130.69l.06,0c23.76-16.57,44.36-37.89,74.61-44.18,102.52-21.35,204.47-20.25,305.42,8.08,36.37,10.2,72.26,23,97,54.71-6.25,1.81-13.53,4-18.7.25-23.46-17.06-49.38-27.78-76.23-38.85-34.61-14.29-69.79-25-105.87-27.33-65.49-4.17-131.24-1.14-196.6,7.25-7.37.95-8.9,4.78-11.85,9.07-10.15,5.94-21.89,8.93-30.85,17.14-13,11.91-24,25.81-40.71,33.89-8.75,4.24-16.61,17-12.62,24.87,6.76,13.27-1.48,21.48-4.73,31.3-1.91,5.77-8.76,10.69-1.42,16.55,5.76,4.59,13,7.32,19.87,3s14.17-9.13,21.75-6.19c18.05,7,37.69-2,55.78,7.31,6.74,3.47,20.3,4.11,24.65-.17,11.77-11.55,24.87-7.06,37.35-7.3,34.2-.68,68.41-.24,102.61-.24l0,0-.05,9.53c-12.87-.07-25.8.71-38.59-.34C4898,1296.69,4813,1330.38,4729.88,1371.69Z"/><path class="cls-3" d="M3631.39,1666.11c12.61-42.92,38.16-78.8,62.72-115.22,14.53-13.46,28.32-27.85,43.81-40.08,15.24-12,29.51-27,51.29-27.12,9.45-2.63,23.77,9,27.78-9.53l5.3-1.14c8.22,8.68,17.82,12,30.17,11.53,26.93-1,53.92-.25,80.88-.22-1.31,11.14,14.16,5.13,15.06,15.45-15.16,8.39-34.73,17.43-2.49,30.26,2.09.84,3.49,4.42,4.4,7,3,8.54,9.19,9,15.21,4.84,14.88-10.16,16.1,1.91,19.34,11.12-14.75,8.51-32,5.91-47.38,10.43-24,7-47.21,16.14-72.75,15.31.81-10.53-.94-18.81-14.57-17.29-7.06.79-12.45-2.65-16.8-7.75-6.35-7.43-12.16-10.38-21.54-3.09-7.1,5.51-14.73,1.68-20.66-5-8.69-9.75,9.26-8.66,6-17-10.78-1.11-23.77,1-32.46-4.22-10.53-6.28-14.77-.34-22.33,3-16.4,7.31-23.27,23.41-35.23,34.33s-11.83,29.88-22.32,35.94c-20.74,12-25.08,30.34-30.48,49.73,1.81,16-8.2,22.2-21.36,25.8C3632.47,1670.84,3631.93,1668.48,3631.39,1666.11Z"/><path class="cls-4" d="M5101.69,1597.89c-5.2-19.44,10.89-22.3,22.52-27,6.82-2.75,11.55-4.6,11.07-12.68-.45-7.65.93-15-6.58-21.31-27.66-23.22-60.09-36-94.19-25.67-26,7.87-53.91.72-78.14,14.47a12.58,12.58,0,0,1-6.21,1.29c-54.18-1-108.44,3-162.57-2.15,6.37-.46,12.73-1.37,19.09-1.33,85.62.6,170.67-5,253.75-27,24.54-6.49,51-10.1,70.53-29.43l4.17-1.21c29.68-12.76,47.86-35.7,58.94-65.4,6.89-18.48,7.05-34.23-13.2-44.28,17.39-3.83,25.75,2,23.31,20.82-.92,7-.13,14.24-.11,21.36-1.4,8.78,2.2,17.83-4.7,26.42-7.75,9.65-17.63,20.89-11.77,34.13,4.5,10.16,19.75,13.53,19.35,28.67-.1,4,6,1,7.83-1.81,9-13.76,28.18-21.85,23.81-43.25-.76-3.75,1.07-8.28,2.45-12.19,7.55-21.48,16.7-42.58,14.47-66.19,3.6-.65,8.06-2,7.79-5.79-1.65-22.53,12.86-42.09,10.07-65.41-2.49-20.74.49-42.13,1.06-63.23,13.65,8.28,11.31,22.17,11.24,34.59-.46,80.56-21,156.34-55.57,228.67l-.18.23a115.29,115.29,0,0,0-27.22,32.64c-5.8,1-9.21,4.85-11.6,9.88h0l-65.23,50.7.08-.11Z"/><path class="cls-5" d="M4173.82,1716c-1.55,21.65-16.73,21.16-32.37,19.92l-.56.17c3.18-21.58,7.86-43.08,9.23-64.78,2-32.25,4.59-65.42-24-89.81-15-17-34.6-21.17-56.19-21.18-86.61,0-170,18.43-252.46,42.81a71.61,71.61,0,0,1-8.42,1.49l-.9-1c1.51-4.25,5.63-5.5,8.62-8.08,14-12.07,35.11-2.6,47.95-16.81h0c25.53.83,48.78-8.26,72.74-15.31,15.36-4.52,32.63-1.92,47.38-10.43l8.59,0H4002c49.61.72,100.9-8.37,144.84,25.32,3,2.3,10.82,2.9,6.94,7.37-9.2,10.62,1.45,17.88,1.79,26.46.59,14.92,17.12,27.92,8.1,42.14-9.45,14.91-5.74,30-7.29,45.18C4155.05,1712.87,4161.05,1717.82,4173.82,1716Z"/><path class="cls-5" d="M3753,1673.22c-39.08,112.11-41,228.21-37.14,344.94.28,8.54,0,17.1,0,25.65-2.78,4.78.7,11.62-5.1,15.41a36.1,36.1,0,0,1-.53-4.16c1.52-15.67-4.64-31.31-3-46.37,9.49-88.71-6.82-178.5,11.64-266.74,17.07-7.74,4.77-23.12,8.9-34.23,7.1-7.67,2.71-17.17,4.1-25.75,6.14-.18,12.38-.22,12.61-8.84l0,0Z"/><path class="cls-3" d="M4518,2197.27c9.35-5.87,14.16-14.79,16.92-25.09l8.73-5.06,12.16,4c-11.93,18.61-22.68,37.67-41.29,51.52-12.28,9.15-21.29,22.69-31.76,34.26-6,4.49-11.5,10.34-17.33,14.15-11.95,7.8-20,23.84-37.92,20.74-.58-.62-1.15-1.26-1.72-1.9l27.25-27.81,30.16-25.94C4496.09,2224.32,4511.06,2214.4,4518,2197.27Z"/><path class="cls-3" d="M3710.76,2059.22c5.79-3.79,2.31-10.63,5.09-15.41,9.83,63.54,32.57,122.55,62.9,178.88l-.72.67c-5.63-1.83-14.4,1.28-15.66-7.76-3.66-26.25-26-43.54-31.2-69.89C3725.44,2116.77,3712.13,2089.4,3710.76,2059.22Z"/><path class="cls-5" d="M3971.29,933.87l9-16.31.29-.24,4.75-3.54.1.12c20.54-1.5,33.92,14.19,50.91,21.24,32.29,27.64,67.31,52.23,94.88,85.14l-1,1c-5.38-1.33-11.34.1-16-4.58-21.9-21.9-44.61-42.79-69.45-61.55-21.64-16.35-40.15-38.85-71.36-21C3972.89,934.41,3972,934,3971.29,933.87Z"/><path class="cls-3" d="M4288.44,2401.24c6.91-6.59,18.57-5.77,23.67-15.18,25.32-17,47-38.07,67.94-60,16.86-10,27.58-27.79,45.73-36.17.57.64,1.14,1.28,1.72,1.9.5,9-5.56,13.45-11.35,19.16-26.75,26.38-58.55,46.9-84.35,74.57C4321.38,2396.66,4306.88,2407.1,4288.44,2401.24Z"/><path class="cls-5" d="M4517.18,1853.4c14.53-5.25,20.11,5.78,24.87,15.24,2.71,5.41,2.68,12.07,9.35,14.95,0,2.82,0,5.65,0,8.48,1.84,7.58-5.11,18.67,8.6,21.5h0c-2.87,28.26,15.62,54.58,7.55,83.31-4.28-14.86-5.27-30.64-12.65-44.62C4547.34,1917.4,4533.56,1884.9,4517.18,1853.4Z"/><path class="cls-3" d="M4563.65,2085.26c.48-2.79,1-5.59,1.43-8.39,10.05-19.47,1.42-40.33,4.48-60.33l7.76.08c-.38,45.92,2.46,92-8.64,137.28-1.4,0-2.79,0-4.19,0l-15.65-.06C4556.79,2131.66,4566,2109.72,4563.65,2085.26Z"/><path class="cls-3" d="M3833.74,2292.62l10.2,13.71c-18.12,0-30.16-12.13-38.25-25-5.74-9.14-9.45-20.12-17.57-27.63-9.31-8.59-12.33-18.34-10.09-30.31l.72-.67c18.88,19.92,30.54,45.51,50.63,64.48l4.46,5Z"/><path class="cls-3" d="M4579.5,2260.79c-11.69,9.19-17.66,23.95-30.86,31.66-2.18-42.51,40.52-58.33,54.35-91.31l3.35,8.47c-5.41,17.35-21.7,28.85-25.28,47.18Z"/><path class="cls-6" d="M4370.21,1612.52c5.38.89,9.45,3,9.1,9.47s-4.85,8.51-10.2,8c-8.83-.83-17,2.71-19.7,9.72-6.66,17.49-19.88,17.43-34.44,16.12l-5.23-4.75A199.24,199.24,0,0,1,4370.21,1612.52Z"/><path class="cls-5" d="M4131.2,1020.28c19.69,9.08,28,29.45,43,43.23l17.66,25.26c-30-13.88-52.52-34.56-61.63-67.49Z"/><path class="cls-3" d="M3753,1673.22l-8.54-.13c5-11.76-12.81-35.06,17.25-34.2q.42,7.36.83,14.73C3761,1660.94,3759.47,1668.28,3753,1673.22Z"/><path class="cls-4" d="M4655.8,1387.27q6.73-5.67,13.47-11.36c8,4.76,16.9,5.6,25.85,6.43-13.45,5.5-24,21.26-41.71,11.73Z"/><path class="cls-5" d="M4281,1673.08c-6.8,18.53-16.4,33.86-39.15,34.08C4253.77,1694.47,4264.65,1680.62,4281,1673.08Z"/><path class="cls-5" d="M4309.74,1651.09l5.23,4.75c-8.94,10.43-17.94,20.75-34,17.25C4289.24,1664,4296.93,1654.2,4309.74,1651.09Z"/><path class="cls-5" d="M3809,1604.63l-29.71,26.07-1.06-1c3.78-15.76,14.66-23.38,29.87-26Z"/><path class="cls-5" d="M3762.56,1653.62q-.41-7.36-.83-14.73l0,0c7.54.59,9.52-8.8,16.52-9.2l1.06,1C3775.57,1639.68,3771.13,1648.16,3762.56,1653.62Z"/><path class="cls-5" d="M3631.39,1666.11l1.62,7.1-7.3,4a12.68,12.68,0,0,1-.9-4Z"/><path class="cls-7" d="M3985.31,913.78l-4.75,3.54Z"/><path class="cls-6" d="M4551.54,1688.69c-32.92,2.08-66,1-98.78,6.06-6.16-11.3-.08-13.4,9.67-13.15,6.12.16,11.69-1.12,11.18-9.1s-6.77-7.7-12.45-7.9c-2.12-.07-4.66-.77-6.31.12-32.11,17.19-39.8-11.48-52.3-28.81-6.78-9.4-9.79-21.53-14.5-32.43,14.38-10,29.75-17.84,47.11-21.25,2.37,3.8,5.79,6.24,9.84,3.45,4.26-2.92,1-5.5-1.62-7.66,5.56-3.48,10.54-8.4,18-7.28,7.84,18.46,14.21,2.86,22.07-.35,19.83-8.08,41.61-11.93,62.2-10.54,15.51,1.05,43.58-9.12,42.22,25-.16,4.08,5.5,6,10,6.56,10.54,1.42,21.07,4.16,31.59,4.14,11.38,0,19.36,3,23.46,14.12,5.82,15.88,16.12,21.17,33.39,17.1,12.21-2.88,27.59-3.92,33.66,11,6.84,16.84,17.51,23.68,35.37,24.51,6.34.3,15.64-.86,24.43,10.27-34.43-3.27-62.95,11.11-94.46,9.58-37.81-1.85-75.77-.64-113.66-.24C4564.6,1682,4555.23,1677.69,4551.54,1688.69Z"/><path class="cls-8" d="M4568.68,2153.9c11.1-45.24,8.26-91.36,8.64-137.28,7.39-.95,10.89-6.63,7.27-11.82-12.18-17.49-5.81-36.35-6.37-54.82-.44-14.54-7.24-26.71-18.18-36.42h0q0-10.74,0-21.48l.06-.06c9.4-1.49,18.22,1.55,21.94,9.61,7.1,15.39,19.27,16.41,33.5,16.33,37.11-.2,38.26,1.26,39,38.07.09,4.82.78,9.63,1.34,16.08,16.7-7.55,15.86-20.94,15.92-34.18,0-6-2-14.32,7.43-15,11.19-.83,9.55,8.31,9.52,15.09-.15,28.64,1.68,56.38-14.4,83.94-7,12-10.08,31.49-11.19,48.28-.42,6.33,1,12.27-8.76,13.49-16.63,2.08-14.08,12.38-8.21,23.19-.21,4.92-2.84,9-4.41,13.38-6.23,17.41-23,30.3-21.71,50.79-2.4-1.28-6.09-2-7-3.91C4595.7,2129.63,4595.77,2129.6,4568.68,2153.9Z"/><path class="cls-5" d="M4620.09,2171.09c-1.32-20.49,15.48-33.38,21.71-50.79,1.57-4.4,4.2-8.46,4.41-13.38l15.31-3.4a732.19,732.19,0,0,1-55.18,106.09c-1.12-2.82-2.23-5.65-3.35-8.47C4597,2184.46,4616.06,2182.05,4620.09,2171.09Z"/><path class="cls-6" d="M4431.7,1699.78c-3.39,4.58-8.42,6.24-13.6,7.64-6.86.16-12.91-.75-12.18-9.87.47-5.88,5-8.7,9.69-9.54C4424.48,1686.43,4430.22,1690.55,4431.7,1699.78Z"/><path class="cls-8" d="M4551.44,1892.07c0-2.83,0-5.66,0-8.48,11.57-6.15,7.4,4,8.72,8.44l-.06.06Z"/><path class="cls-9" d="M4551.54,1688.69c3.69-11,13.06-6.71,20.1-6.78,37.89-.4,75.85-1.61,113.66.24,31.51,1.53,60-12.85,94.46-9.58-8.79-11.13-18.09-10-24.43-10.27-17.86-.83-28.53-7.67-35.37-24.51-6.07-14.94-21.45-13.9-33.66-11-17.27,4.07-27.57-1.22-33.39-17.1-4.1-11.17-12.08-14.15-23.46-14.12-10.52,0-21.05-2.72-31.59-4.14-4.52-.61-10.18-2.48-10-6.56,1.36-34.12-26.71-23.95-42.22-25-20.59-1.39-42.37,2.46-62.2,10.54-7.86,3.21-14.23,18.81-22.07.35,53.78-19.34,108.87-32.57,166.15-35.59,48.59.2,97.19.53,145.79.53,9.87,0,17.08.16,19.94,13.12,3.11,14.12,16.75,13.6,28.34,12.62,19.78-1.65,36.61.24,43.52,23.47,3.46,11.65,14.69,11.83,25,11,26.93-2.22,52.58-.65,72.17,21.85,4.05,4.65,12.09,7.23,8.87,15.11-3.32,8.11-9.53,12.69-19,14.8-32.28,7.18-65.54,9.28-96.56,23.56-12.49,5.75-29.56,1.31-44.51,2.09-7.08.37-16.62-3.8-19.14,8A2152.33,2152.33,0,0,1,4551.54,1688.69Z"/><path class="cls-4" d="M4758.22,1525.39a2.09,2.09,0,0,1,3.13-.33l-1.48,1Z"/><path class="cls-10" d="M4155.65,2013.09c4.4-19.23-1.21-37.5-6.11-55.61-6.43-23.72,5.07-45.22,7.86-67.71,1.38-11.1,13.17-20.36,9.9-37,11.29,26.93,17.26,14,23.56,1,4.63-9.52,12.42-14.59,27.75-17.1-18.93,31.56-3.37,65-18,95.27-5.75,11.93-4.7,29.91,10.27,40.49,6.19,4.38,5.93,11,5.69,17.42-.4,10.89,4.74,14.45,15,19.07,13.35,6,24.45,18,34.87,29,4.57,4.83.57,12.19-4.71,16.91-23.09,20.66-49.83,15.34-67.77-8.9-9.61-13-19-29.66-38.25-32.87,0,0,.73-.9.73-.9Z"/><path class="cls-8" d="M4203.86,1771.79c6.92-2.76,14.82-8.6,20.09.83,2.32,4.14,1.73,11.54-.38,16.15-3.18,7-11.31,5.64-16.84,3.9-13.92-4.39-1.47-13.81-3-20.75Z"/><path class="cls-1" d="M4251.79,1841.24q-4.38,5-8.74,9.91C4242.44,1844.75,4244.4,1840.6,4251.79,1841.24Z"/><path class="cls-8" d="M4203.73,1771.92l-1.75-1.05,1.88.92Z"/><path class="cls-1" d="M4257.15,1836.75l-5.75,4.53Z"/><path class="cls-11" d="M3778,2223.36c-2.24,12,.78,21.72,10.09,30.31,8.12,7.51,11.83,18.49,17.57,27.63,8.09,12.9,20.13,25,38.25,25,23,14.62,48.58,19.18,75.37,18.94,10-.08,20,.85,29.88.06,49.1-3.93,84.89,15.6,109,58.66,11.1,19.79,24.27,38.7,47.28,47.1,30.63,11.5,61.61,7.4,92.58,1.94.66-.12.92-2.48,1.37-3.8l42.67-.88c13.77,2.21,32-6.54,40.62,4.47,10.65,13.64,22.34,12.3,35.48,13.06,7.11.41,16.56-3.43,18.67,8.43l-8.56.21c-5.47,0-8.38,2.67-8.65,8.17l-17.12,4.58c-5.61-7-17-2.64-21.84-11.31-16-28.65-43.25-16.63-66.63-18.05-5.26-.31-9.36,3.86-9.32,9.65,0,5.51,4.62,5.86,9,6.81,17.52,3.84,34.28,11.79,53,8.79,5.75-.92,9.3,2.47,10.07,8.38-11.23,8.73-24.27,9.27-37.73,8.81-6.25-.21-14.45-1.41-18.52,1.87-23.77,19.19-51.5,14.66-78.52,15.18-8.87.17-19-2.51-24,8.6h-13.16c-.49-6-4.12-9.43-9.76-8.39-17.06,3.14-25.7-11.17-38.28-16.59-18-7.74-19-31-38.33-34.87-30.27-44.5-74.29-59.82-125.89-60.56-48.41-.68-96.78-2.32-145-7.6-69.42-7.6-105.71-40-117.56-108.43-3.16-18.2-4.21-36.77-6.22-55.17,0-12.13,3.36-25.55-.64-36.18-15.15-40.23-24.11-82.24-37.79-122.83-2-10.34-4.46-20.46-4.27-31.27.58-34,.29-68,.34-101.94,19.94,1.61,30.45,12.36,21.22,22.34-13.62,14.73-2.76,26.51-1.73,41.59,8.53-6.35,13-12.18,14.61-20.13,1.16-5.82-3-14.44,5.17-16.68,9.15-2.52,13.35,6.4,18.32,12,18.64,20.92,38.06,40.9,62.46,55.29,4,12.6-8.48,28.89,8.68,38.51a36.1,36.1,0,0,0,.53,4.16c1.38,30.18,14.69,57.55,20.42,86.49,5.21,26.35,27.54,43.64,31.2,69.89C3763.63,2224.64,3772.4,2221.53,3778,2223.36Zm-119.36,85c4-25.07-6.74-47.16-13.47-70.33a158.41,158.41,0,0,1-2.85,24.65c-3.33,17.7.54,34.16,16.25,45.75,1.08,9.11,34.7,50.82,43.17,50.85,15.73.07,31,8.47,44.74,7.83,42.79-2,84,9.57,126.25,9.63,8.42,0,20.26,5.61,24.9-5.63,4.88-11.8-9.32-9.39-13.77-14.53-1.28-1.5-1.14-4.13-2.17-6-9.08-16.2-21.2-17-33.73-2.28-13.24,15.53-25.48,16.1-46.14-3,19,6.46,25.75-5.51,35.89-10.87,2.93-1.55,7.69-.72,7.63-5.61,0-4-3.34-6.53-6.88-7-18-2.53-31-13-42.42-26.09-4.41-5.06-10.06-5.31-15.67-3.64-7.45,2.21-5.45,9-5.82,14.42-.24,3.55.07,7.14-.11,10.7-.2,4.14.72,9-4.25,11.11-5.33,2.24-7.22-2.37-10.07-5.47-10.63-11.53-21.3-22.81-27.56-37.72-5.06-12.06-13.47-25.16-26-26.36-18.64-1.77-25-8.71-22.52-26.4.77-5.6-2.41-9.6-8.89-9.22-5.16.3-8,3.54-7.64,8.34,1.06,13.1-3.09,26.15,4.46,39.37C3681,2286.74,3677.6,2301.07,3658.67,2308.41Z"/><path class="cls-12" d="M4336.9,2454.31c-2.11-11.86-11.56-8-18.67-8.43-13.14-.76-24.83.58-35.48-13.06-8.61-11-26.85-2.26-40.62-4.47,1.75-10.47,10.64-6.45,16.7-8.76,10.83-4.12,26.06-1.83,29.6-18.05v-.3c18.44,5.86,32.94-4.58,43.36-15.75,25.8-27.67,57.6-48.19,84.35-74.57,5.79-5.71,11.85-10.2,11.35-19.16,17.92,3.1,26-12.94,37.92-20.74,5.83-3.81,11.31-9.66,17.33-14.15,5.77,1,13.44-2.56,16.29,5.78,2.34,6.83-3.41,8.77-7.43,12.81-8.68,8.73-1.58,14.24,7,15.21,11.81,1.35,23.86.51,35.8.61,0,2.85-.09,5.69-.13,8.54q-8.31.32-8.47,8.62v0c-5.55.12-8.44,2.92-8.6,8.49l-.45,8.53c-6.58.91-15.42-2.58-16.71,8.61l-.11.1q-8.25.22-8.48,8.47l-.12.12c-8.67.46-8.54,6.67-8.41,12.88,0,1.42-.09,2.84-.16,4.27q-8.29.29-8.44,8.59l-.06.05c-5.55.1-8.4,2.94-8.56,8.48l-.07.09-4.21,4.22c-6.26,5.21-16.52,8-11.83,19.8-12.7,11.83-26,22.8-43.05,27.88C4380.13,2428.75,4360.36,2446.63,4336.9,2454.31Z"/><path class="cls-10" d="M3710.22,2055.06c-17.16-9.62-4.72-25.91-8.68-38.51V1810.81c-7.69,20.56-24.1,21.87-40.9,21-16.38-.86-31.08,2-44.87,19.27v-52.94c-4.83,7.09-7.39,14.81-17.77,12.08-2.07-23,9.07-44.26,14.07-65.25,4.68-19.62,12.37-38.66,11.86-59.64l1.77-8.08,7.31-4c13.17-3.6,23.18-9.8,21.37-25.8,3.45-.67,7.28-.59,10.29-2.12,17.47-8.9,19.92-7.47,19.71,12.22-.06,5.68.53,11.49-3.33,16.43-10,12.85,4.27,18.64,8.31,27.23,1.69,3.58,6,6.67,10.84,4.15,8.84-4.64,10.55-12.77,10-21.9-.22-3.56,0-7.14,0-10.72-.09-12.21-1.32-28.73,14.72-27.89,14.46.76,10.17,17.47,11,28.31q-2,4.43-4.07,8.85c-1.4,8.58,3,18.08-4.11,25.75-18.21,7.45-5.1,23-8.9,34.23-18.46,88.24-2.15,178-11.64,266.74C3705.58,2023.75,3711.74,2039.39,3710.22,2055.06Z"/><path class="cls-5" d="M3623.93,1685.31c.51,21-7.18,40-11.86,59.64-5,21-16.14,42.27-14.07,65.25-9.39,26.41-11.46,54.33-16.83,81.57l-7.76,4.48C3580.71,1823.65,3594.75,1752.67,3623.93,1685.31Z"/><path class="cls-10" d="M4118.08,2506c5-11.11,15.11-8.43,24-8.6,27-.52,54.75,4,78.52-15.18,4.07-3.28,12.27-2.08,18.52-1.87,13.46.46,26.5-.08,37.73-8.81l25.47-.21c.5.55,1,1.12,1.42,1.71C4243.87,2495.45,4182.16,2507.43,4118.08,2506Z"/><path class="cls-3" d="M3585.42,2055.38c13.68,40.59,22.64,82.6,37.79,122.83,4,10.63.63,24.05.64,36.18-13-51.13-39.73-98.22-44.95-151.66Z"/><path class="cls-10" d="M3585.42,2055.38l-6.52,7.35a262,262,0,0,1-7-62.06q0-38,0-76,.75-14.19,1.51-28.38c2.58-1.49,5.17-3,7.76-4.47q.16,15.2.32,30.39c0,34,.24,68-.34,101.94C3581,2034.92,3583.41,2045,3585.42,2055.38Z"/><path class="cls-10" d="M4018.55,2446.15c19.3,3.91,20.35,27.13,38.33,34.87,12.58,5.42,21.22,19.73,38.28,16.59,5.64-1,9.27,2.36,9.76,8.39C4063,2508.42,4036.86,2490.29,4018.55,2446.15Z"/><path class="cls-10" d="M4336.9,2454.31c23.46-7.68,43.23-25.56,69.59-25.27-30.87,22.58-66.54,33.95-102.77,44-.45-.59-.92-1.16-1.42-1.71.16-1.35.24-2.7.27-4.06l17.12-4.58c5.66.21,8.36-2.7,8.65-8.17Z"/><path class="cls-3" d="M4449.54,2401.16c-4.69-11.76,5.57-14.59,11.83-19.8l4.21-4.22.07-.08q8.39-.11,8.56-8.49l.06-.05c5.58-.14,8.43-3,8.44-8.59.07-1.43.12-2.85.16-4.27,8.71-.43,8.6-6.63,8.41-12.88l.12-.12q8.42,0,8.48-8.47l.11-.1,12.76-.05a20.69,20.69,0,0,0,2.31,2.18l-16.26,22.71C4482.32,2372.93,4469.73,2391.48,4449.54,2401.16Z"/><path class="cls-5" d="M3571.9,1924.63q0,38,0,76A193.1,193.1,0,0,1,3571.9,1924.63Z"/><path class="cls-13" d="M5180.87,1356.21q-10.26-5.88-20.51-11.77c-1-18.65-17.24-24.6-29.57-31.38-30.45-16.72-64.53-18-98.51-17.66l0,0c-.32-1.37-.19-3.21-1-4.06-11.32-11.33-38.89-8.44-31.74-36.25.07-.26-4.79-2.07-7.46-2.69-13.35-3.12-22.2-11.49-29.42-22.85-6.14-9.66-14.29-19.81-26.84-18-11.7,1.66-25.91,5.87-30-6.38-4.82-14.39,15.83-8.59,22.7-19.11-15.2-3.43-28.73-3.59-42.35.09-11.46,3.09-21.14,2.46-25.51-10.87,2.95-4.29,4.48-8.12,11.85-9.07,65.36-8.39,131.11-11.42,196.6-7.25,36.08,2.3,71.26,13,105.87,27.33,26.85,11.07,52.77,21.79,76.23,38.85,5.17,3.77,12.45,1.56,18.7-.25a3.84,3.84,0,0,1,0,.48c-.22,3,1.21,4.41,4.14,4.46l.46,0c-.57,21.1-3.55,42.49-1.06,63.23,2.79,23.32-11.72,42.88-10.07,65.41.27,3.77-4.19,5.14-7.79,5.79a7.14,7.14,0,0,0,0-2.12c-3.4-10.37,7.91-29.66-7.92-30.25-16.82-.62-7.71,18.6-8.92,28.9-3.28,27.81-11.43,37.55-34.57,37.69,0-7.12-.81-14.35.11-21.36C5206.62,1358.23,5198.26,1352.38,5180.87,1356.21Z"/><path class="cls-14" d="M4860.58,1175.23c4.37,13.33,14.05,14,25.51,10.87,13.62-3.68,27.15-3.52,42.35-.09-6.87,10.52-27.52,4.72-22.7,19.11,4.11,12.25,18.32,8,30,6.38,12.55-1.78,20.7,8.37,26.84,18,7.22,11.36,16.07,19.73,29.42,22.85,2.67.62,7.53,2.43,7.46,2.69-7.15,27.81,20.42,24.92,31.74,36.25.85.85.72,2.69,1,4.06-34.2,0-68.41-.44-102.61.24-12.48.24-25.58-4.25-37.35,7.3-4.35,4.28-17.91,3.64-24.65.17-18.09-9.33-37.73-.32-55.78-7.31-7.58-2.94-14.88,1.86-21.75,6.19s-14.11,1.6-19.87-3c-7.34-5.86-.49-10.78,1.42-16.55,3.25-9.82,11.49-18,4.73-31.3-4-7.84,3.87-20.63,12.62-24.87,16.7-8.08,27.71-22,40.71-33.89C4838.69,1184.16,4850.43,1181.17,4860.58,1175.23Z"/><path class="cls-14" d="M5032.28,1295.4c34-.32,68.06.94,98.51,17.66,12.33,6.78,28.53,12.73,29.57,31.38-40.73-19.6-82.72-35.11-128.13-39.51C5032.25,1301.76,5032.26,1298.58,5032.28,1295.4Z"/><path class="cls-1" d="M4173.82,1716c-12.77,1.81-18.77-3.14-17.4-16.56,1.55-15.15-2.16-30.27,7.29-45.18,9-14.22-7.51-27.22-8.1-42.14-.34-8.58-11-15.84-1.79-26.46,3.88-4.47-3.94-5.07-6.94-7.37-43.94-33.69-95.23-24.6-144.84-25.32-2.87-4.43-5.73-4.41-8.59,0l-8.59,0c-3.24-9.21-4.46-21.28-19.34-11.12-6,4.11-12.2,3.7-15.21-4.84-.91-2.59-2.31-6.17-4.4-7-32.24-12.83-12.67-21.87,2.49-30.26-.9-10.32-16.37-4.31-15.06-15.45,12.74,1.45,25-1.35,38.29,6,10.78,5.93,26.07,1.47,28.9-16.23l1.28.17s-1.29,0-1.27,0c14.06-4.2,27.16-12.34,42.69-.88,5.89,4.34,12.9-4.73,13.87-11.8,1.92-13.91,11.53-19.68,22.53-24.7,1.31.06,2.63.11,3.95.14.46,3.77-1.29,9,3.32,10.53,4.79,1.62,4.49-3.33,5.35-6.29l9.27-.86.15.1c6.16,9.41-4.71,32,20.61,26.59l0,0c1.28,8.12-4,18.15,4.06,24.18,28.49,21.35,49.36,50,74.16,74.86,11.47,11.48,18.33,23,17.21,39l.2.42c-23,22.2-32.76,50-34.33,81.26a1.83,1.83,0,0,1-.13.16l-4.72,4.65C4177.47,1699.82,4171.89,1707.16,4173.82,1716ZM4023,1514.41c-14.28-13.72-28.72-17.58-46.17-13.2-8.76,2.21-9,7.52-9.08,14.25-.13,8,3.71,10.74,11.55,11.92C3995.23,1529.76,4007.83,1522.53,4023,1514.41Z"/><path class="cls-8" d="M3735.91,1673.12c-.88-10.84,3.41-27.55-11-28.31-16-.84-14.81,15.68-14.72,27.89,0,3.58-.19,7.16,0,10.72.58,9.13-1.13,17.26-10,21.9-4.8,2.52-9.15-.57-10.84-4.15-4-8.59-18.35-14.38-8.31-27.23,3.86-4.94,3.27-10.75,3.33-16.43.21-19.69-2.24-21.12-19.71-12.22-3,1.53-6.84,1.45-10.29,2.12,5.4-19.39,9.74-37.75,30.48-49.73,10.49-6.06,10.48-25.13,22.32-35.94s18.83-27,35.23-34.33c7.56-3.37,11.8-9.31,22.33-3,8.69,5.17,21.68,3.11,32.46,4.22,3.22,8.37-14.73,7.28-6,17,5.93,6.67,13.56,10.5,20.66,5,9.38-7.29,15.19-4.34,21.54,3.09,4.35,5.1,9.74,8.54,16.8,7.75,13.63-1.52,15.38,6.76,14.57,17.29h0c-12.14,0-24.3-.35-36.43.06-9.88.33-25.19-4.61-28.65,2.45-10.28,21-41.37,28.2-37.88,57.6l0,0c-30.06-.86-12.21,22.44-17.25,34.2l0,0Z"/><path class="cls-6" d="M4000.53,1474.05c-2.83,17.7-18.12,22.16-28.9,16.23-13.26-7.3-25.55-4.5-38.29-6-27,0-54-.75-80.88.22-12.35.44-21.95-2.85-30.17-11.53,27.7-4.67,55.07,1.31,82.59,2.51C3936.78,1476.92,3968.69,1476.84,4000.53,1474.05Z"/><path class="cls-6" d="M3789.21,1483.69c7.11-9.45,17.84-8.33,27.78-9.52C3813,1492.66,3798.66,1481.06,3789.21,1483.69Z"/><path class="cls-14" d="M5204.07,1398.39c23.14-.14,31.29-9.88,34.57-37.69,1.21-10.3-7.9-29.52,8.92-28.9,15.83.59,4.52,19.88,7.92,30.25a7.14,7.14,0,0,1,0,2.12c2.23,23.61-6.92,44.71-14.47,66.19-1.38,3.91-3.21,8.44-2.45,12.19,4.37,21.4-14.81,29.49-23.81,43.25-1.82,2.79-7.93,5.81-7.83,1.81.4-15.14-14.85-18.51-19.35-28.67-5.86-13.24,4-24.48,11.77-34.13C5206.27,1416.22,5202.67,1407.17,5204.07,1398.39Z"/><path class="cls-2" d="M4191.84,1088.77q15.46,16.56,30.93,33.11c14.47,16.39,28.79,32.91,43.47,49.11,11,12.15,19.42,25.66,24.21,41.38q1.89,17.84,3.77,35.69c-4.37-3.62-11.43-6.5-12.68-11-7.61-27.51-27.76-40-52.93-47.57-6.26-1.87-10.78-6.45-14.8-11.67-17-22.16-48.49-34.33-72.71-22.23-11.94,6-29.21.37-36.33,16.08-25.05-22.44-43.9-50.42-66.76-74.85-18-19.23-25.83-18.77-36.63,6.18-7.79,18-14,36.67-20.89,55-7-11.24-7-23.34,0-33.71,6.87-10.17,5.23-20.88,3.71-30.71s-7.87-18.72-12.1-28c-13.13,11.52-33,0-45.19,12.48-8.44,8.65-17.12,12.79-28.88,10.12a827.68,827.68,0,0,1,70.38-149.34c1-1.55,2-3.1,3-4.66l-.12-.33c.71.09,1.6.53,2.09.25,31.21-17.84,49.72,4.66,71.36,21,24.84,18.76,47.55,39.65,69.45,61.55,4.68,4.68,10.64,3.25,16,4.58C4139.32,1054.21,4161.86,1074.89,4191.84,1088.77Z"/><path class="cls-6" d="M4079.63,1436.85c-11,5-20.61,10.8-22.53,24.71-1,7.07-8,16.14-13.87,11.8-15.53-11.46-28.63-3.32-42.69.88,3.34-15.54-6.62-25.6-15.52-35.48-16.65-18.49-32.36-38.39-51.54-53.91-44.9-36.34-61.71-87.27-77.63-139.18-1.87-6.09-3.18-12.36-4.75-18.55,8.8-3,.48-14.81,8.88-17.6,7.13-2.37,11.19-8.73,9.85-14-1.48-5.82-9.76-2.29-14.89-3.65q3.32-12.42,6.64-24.85c3.81,3.55,5.79,9.59,13.6,4.43,18-11.89,22.31.54,23.65,15.17a156.94,156.94,0,0,1,.05,27.76c-1.18,13.58,5.15,18,17.61,16.59,12.64-1.45,25.26-3.07,37.92-4.15,6.94-.6,13.59,1.06,13,9.92-1.54,22.65-1.78,44.53,21,58.46,1.34.82.69,4.4,1.92,5.94,14.93,18.76,18.91,45.57,39.35,59.37,10.88,7.34,17.36,13,12.13,27.82l11.79-7.12c.77,4.75.42,13,2.49,13.71C4077.46,1401.71,4070.52,1423.75,4079.63,1436.85Z"/><path class="cls-9" d="M4053.57,1381.23l-11.79,7.12c5.23-14.77-1.25-20.48-12.13-27.82-20.44-13.8-24.42-40.61-39.35-59.37-1.23-1.54-.58-5.12-1.92-5.94-22.76-13.93-22.52-35.81-21-58.46.6-8.86-6.05-10.52-13-9.92-12.66,1.08-25.28,2.7-37.92,4.15-12.46,1.43-18.79-3-17.61-16.59a156.94,156.94,0,0,0-.05-27.76c-1.34-14.63-5.64-27.06-23.65-15.17-7.81,5.16-9.79-.88-13.6-4.43-2.61-9.19,8-11.3,9.72-18.2,4.14.06,8.52.28,9.6-5,.79-3.9-1.76-6.24-4.89-8l6.54-16.57,3.21-4.79s-.39.11-.38.12c15.81-2.83,13.36-14.82,12.92-25.79l-.3-.57c11.75,2.67,20.43-1.47,28.87-10.12,12.22-12.5,32.06-1,45.19-12.48,4.23,9.31,10.6,18.3,12.1,28s3.16,20.54-3.71,30.71c-7,10.37-6.93,22.47,0,33.71l.15,4.28c.18,1.61.36,3.23.53,4.84l.21-.18c-18.47,4.62-13.39,13.48-4.15,23.08-.3,8.52-1.12,17.05-.77,25.54.63,15.39-5.17,32.24,4,45.86,17.7,26.25,33.3,54.15,55.77,77h0c2.17,12,13.12,19,17.36,29.83Q4053.58,1374.75,4053.57,1381.23Z"/><path class="cls-9" d="M3854.94,1191.89c5.13,1.36,13.41-2.17,14.89,3.65,1.34,5.25-2.72,11.61-9.85,14-8.4,2.79-.08,14.61-8.88,17.6C3843.89,1214.45,3847.53,1203,3854.94,1191.89Z"/><path class="cls-2" d="M3898.3,1088.78c.44,11,2.89,23-12.92,25.79C3887.61,1104.93,3890.81,1095.78,3898.3,1088.78Z"/><path class="cls-2" d="M3876,1135.81c3.13,1.74,5.68,4.08,4.89,8-1.08,5.33-5.46,5.11-9.6,5C3872.86,1144.49,3874.44,1140.15,3876,1135.81Z"/><path class="cls-2" d="M3885.76,1114.45l-3.21,4.79C3882.26,1116.73,3883.1,1115,3885.76,1114.45Z"/><path class="cls-5" d="M3971.41,934.21c-1,1.56-2,3.11-3,4.66C3969.39,937.32,3970.4,935.76,3971.41,934.21Z"/><path class="cls-4" d="M5274,1229.78c-2.93,0-4.36-1.48-4.14-4.46C5271.22,1226.8,5272.59,1228.29,5274,1229.78Z"/><path class="cls-9" d="M4243.15,1470.26a3.13,3.13,0,0,0-1-3.11c0-2.67,0-5.35,0-8,.09-8.55.5-17.1.18-25.63-.28-7.24,2.89-16.77-9.47-17.72a1.65,1.65,0,0,1,.2-2.5c7.77-33.6-9.51-65-8.91-98.13.14-7.26-5-18.86-9-22.26-11.82-9.93-10.33-34.93-33.95-31.22-26.16-29.4-53.29-58-76.36-90,7.13-15.71,24.4-10.12,36.34-16.08,24.22-12.1,55.69.07,72.71,22.23,4,5.22,8.54,9.8,14.8,11.67,25.17,7.56,45.32,20.06,52.93,47.57,1.25,4.49,8.31,7.37,12.68,11,1.31,0,2.63,0,3.95.06-7.59,24.05-3,48.78-4.18,73.19l.52,90.36s.28.28.27.28c-9.32-.14-9.42,6.42-9.3,13,.2,11.89.52,23.78.8,35.68a477.77,477.77,0,0,1-21.36,102c-1.55,4.8-2.82,11.07-8.28,11.21-7.39.18-8.48-7.37-8.66-12.61-.72-19.9-.22-39.84-.8-59.75C4246.87,1491,4249.68,1480,4243.15,1470.26Z"/><path class="cls-5" d="M4217.69,1605.12c1.12-16.06-5.74-27.55-17.21-39-24.8-24.84-45.67-53.51-74.16-74.86-8-6-2.78-16.06-4.06-24.18,29.66,30.67,58.55,62.15,89.32,91.68C4227.33,1573.84,4230,1587.74,4217.69,1605.12Z"/><path class="cls-5" d="M4294.51,1411.67q-.26-45.18-.52-90.36c2.39-1.26,7-2.8,6.84-3.75-2.84-23.09,8.27-46.73-2.66-69.44-1.32,0-2.64,0-3.95-.06q-1.89-17.85-3.77-35.69c17,11,18.66,29.18,20.08,46.42,1.44,17.6-.05,35.45-.26,53.18C4303,1344.88,4304.93,1379.25,4294.51,1411.67Z"/><path class="cls-5" d="M4053.57,1381.23q0-6.48,0-13c17.37,23.12,36.39,45.13,47.92,72.12l-9.26.85-8.67-4.24c-1.32,0-2.64-.08-3.95-.14-9.11-13.11-2.17-35.15-23.57-41.92C4054,1394.28,4054.34,1386,4053.57,1381.23Z"/><path class="cls-5" d="M4183.56,1686.8c1.57-31.25,11.3-59.06,34.33-81.26C4210.89,1634.51,4198.82,1661.33,4183.56,1686.8Z"/><path class="cls-5" d="M4122.28,1467.07c-25.32,5.44-14.45-17.18-20.61-26.59C4112,1446.66,4118.37,1455.91,4122.28,1467.07Z"/><path class="cls-5" d="M4286.28,1460.61c-.28-11.9-.6-23.79-.8-35.68-.12-6.56,0-13.12,9.3-13C4294.54,1428.62,4293.55,1445.16,4286.28,1460.61Z"/><path class="cls-5" d="M4178.71,1691.61l4.72-4.65C4181.87,1688.51,4180.29,1690.06,4178.71,1691.61Z"/><path class="cls-9" d="M4443.38,1578c2.58,2.16,5.88,4.74,1.62,7.66-4.05,2.79-7.47.35-9.84-3.45C4436.77,1578.61,4439.92,1578,4443.38,1578Z"/><path class="cls-3" d="M4288.43,2401.54c-3.54,16.22-18.77,13.93-29.6,18.05-6.06,2.31-14.95-1.71-16.7,8.76l-42.67.88-13-.76Z"/><path class="cls-12" d="M4186.49,2428.47l13,.76c-.45,1.32-.71,3.68-1.37,3.8-31,5.46-61.95,9.56-92.58-1.94C4132.65,2434.84,4159.48,2428.74,4186.49,2428.47Z"/><path class="cls-3" d="M3761.75,1638.86c-3.49-29.4,27.6-36.56,37.88-57.6,3.46-7.06,18.77-2.12,28.65-2.45,12.13-.41,24.29-.08,36.43-.06-12.84,14.21-34,4.74-47.95,16.81-3,2.58-7.11,3.83-8.62,8.08-15.21,2.64-26.09,10.26-29.87,26C3771.27,1630.06,3769.29,1639.45,3761.75,1638.86Z"/><path class="cls-3" d="M3993.45,1553c2.86-4.42,5.72-4.44,8.59,0Z"/><path class="cls-8" d="M3718.83,1742c3.8-11.19-9.31-26.78,8.9-34.23C3723.6,1718.83,3735.9,1734.21,3718.83,1742Z"/><path class="cls-3" d="M3735.91,1673.12h8.53c-.23,8.62-6.47,8.66-12.61,8.84Z"/><path class="cls-10" d="M4534.36,2291.28c-11.94-.1-24,.74-35.8-.61-8.53-1-15.63-6.48-7-15.21,4-4,9.77-6,7.43-12.81-2.85-8.34-10.52-4.74-16.29-5.78,10.47-11.57,19.48-25.11,31.76-34.26,18.61-13.85,29.36-32.91,41.29-51.52,7.79-3.23,8.95-9.82,8.69-17.14,1.4,0,2.79,0,4.19,0,27.09-24.3,27-24.27,44.41,13.28.91,2,4.6,2.63,7,3.91-4,11-23.11,13.37-17.1,30-13.83,33-56.53,48.8-54.35,91.31a3.34,3.34,0,0,1-.42-.07Z"/><path class="cls-1" d="M4564.49,2154c.26,7.32-.9,13.91-8.69,17.14l-12.16-4c-1.21-5.56,2.89-9,5.2-13.23Z"/><path class="cls-1" d="M4560,1913.56c10.94,9.71,17.74,21.88,18.18,36.42.56,18.47-5.81,37.33,6.37,54.82,3.62,5.19.12,10.87-7.27,11.82l-7.76-.08q-1-9.84-2-19.68C4575.66,1968.14,4557.17,1941.82,4560,1913.56Z"/><path class="cls-1" d="M4551.44,1892.07l8.62,0q0,10.74,0,21.48C4546.33,1910.74,4553.28,1899.65,4551.44,1892.07Z"/><path class="cls-3" d="M4534.36,2291.28l13.86,1.1c-5.78,16.08-17.79,27.4-29.69,38.8-.57-.52-1.15-1-1.73-1.54a18.19,18.19,0,0,0-.1-4.17l.45-8.51q8.37-.14,8.6-8.5v0c5.6-.14,8.46-3,8.47-8.62C4534.27,2297,4534.32,2294.13,4534.36,2291.28Z"/><path class="cls-3" d="M4518.53,2331.18c-1.16,1.67-2.33,3.35-3.48,5a21.5,21.5,0,0,1-2.3-2.18l4.05-4.4C4517.38,2330.15,4518,2330.66,4518.53,2331.18Z"/><path class="cls-12" d="M3581.49,1922.17q-.16-15.2-.32-30.39c5.37-27.25,7.44-55.17,16.83-81.58,10.38,2.73,12.94-5,17.77-12.08v52.94c13.79-17.29,28.49-20.13,44.87-19.27,16.8.89,33.21-.42,40.9-21v205.74c-24.4-14.39-43.82-34.37-62.46-55.29-5-5.57-9.17-14.49-18.32-12-8.16,2.24-4,10.86-5.17,16.68-1.6,8-6.08,13.78-14.61,20.13-1-15.08-11.89-26.86,1.73-41.59C3611.94,1934.53,3601.43,1923.78,3581.49,1922.17Z"/><path class="cls-15" d="M3658.67,2308.41c18.93-7.34,22.35-21.67,13.32-37.47-7.55-13.22-3.4-26.27-4.46-39.37-.4-4.8,2.48-8,7.64-8.34,6.48-.38,9.66,3.62,8.89,9.22-2.44,17.69,3.88,24.63,22.52,26.4,12.54,1.2,21,14.3,26,26.36,6.26,14.91,16.93,26.19,27.56,37.72,2.85,3.1,4.74,7.71,10.07,5.47,5-2.09,4.05-7,4.25-11.11.18-3.56-.13-7.15.11-10.7.37-5.42-1.63-12.21,5.82-14.42,5.61-1.67,11.26-1.42,15.67,3.64,11.4,13.11,24.41,23.56,42.42,26.09,3.54.5,6.83,3,6.88,7,.06,4.89-4.7,4.06-7.63,5.61-10.14,5.36-16.85,17.33-35.89,10.87,20.66,19.09,32.9,18.52,46.14,3,12.53-14.71,24.65-13.92,33.73,2.28,1,1.82.89,4.45,2.17,6,4.45,5.14,18.65,2.73,13.77,14.53-4.64,11.24-16.48,5.64-24.9,5.63-42.22-.06-83.46-11.63-126.25-9.63-13.7.64-29-7.76-44.74-7.83-8.47,0-42.09-41.74-43.17-50.85Z"/><path class="cls-12" d="M4302.57,2467.27c0,1.36-.11,2.71-.27,4.06l-25.47.21c-.77-5.91-4.32-9.3-10.07-8.38-18.74,3-35.5-4.95-53-8.79-4.34-.95-8.92-1.3-9-6.81,0-5.79,4.06-10,9.32-9.65,23.38,1.42,50.65-10.6,66.63,18.05C4285.57,2464.63,4297,2460.29,4302.57,2467.27Z"/><path class="cls-15" d="M3658.6,2308.48c-15.71-11.59-19.58-28.05-16.25-45.75a158.41,158.41,0,0,0,2.85-24.65c6.73,23.17,17.45,45.26,13.47,70.33Z"/><path class="cls-12" d="M4328.34,2454.52c-.29,5.47-3,8.38-8.65,8.17C4320,2457.19,4322.87,2454.5,4328.34,2454.52Z"/><path class="cls-10" d="M4516.8,2329.64l-4.05,4.4-12.76.05c1.29-11.19,10.13-7.7,16.71-8.61A18.09,18.09,0,0,1,4516.8,2329.64Z"/><path class="cls-10" d="M4491.28,2342.78c.19,6.25.3,12.45-8.41,12.88C4482.74,2349.45,4482.61,2343.24,4491.28,2342.78Z"/><path class="cls-10" d="M4525.75,2308.46q-.22,8.37-8.6,8.5C4517.31,2311.38,4520.2,2308.58,4525.75,2308.46Z"/><path class="cls-10" d="M4534.23,2299.82c0,5.65-2.87,8.48-8.47,8.62Q4525.92,2300.14,4534.23,2299.82Z"/><path class="cls-10" d="M4499.88,2334.19q-.07,8.42-8.48,8.47Q4491.63,2334.41,4499.88,2334.19Z"/><path class="cls-10" d="M4482.71,2359.93c0,5.62-2.86,8.45-8.44,8.59Q4474.4,2360.21,4482.71,2359.93Z"/><path class="cls-10" d="M4474.21,2368.57q-.18,8.38-8.56,8.49C4465.81,2371.51,4468.66,2368.67,4474.21,2368.57Z"/><path class="cls-10" d="M4465.58,2377.14l-4.21,4.22Z"/><path class="cls-3" d="M4023,1514.41c-15.17,8.12-27.77,15.35-43.7,13-7.84-1.18-11.68-3.87-11.55-11.92.12-6.73.32-12,9.08-14.25C3994.28,1496.83,4008.72,1500.69,4023,1514.41Z"/><path class="cls-6" d="M4083.58,1437l8.67,4.24c-.86,3-.56,7.91-5.35,6.29C4082.29,1446,4084,1440.77,4083.58,1437Z"/><path class="cls-2" d="M3981.38,1167c-.57,7.84.68,16-4.15,23.08C3968,1180.48,3962.91,1171.62,3981.38,1167Z"/><path class="cls-2" d="M3980.64,1162.34c3.44,1.26,4.86,2.73.53,4.84C3981,1165.57,3980.82,1164,3980.64,1162.34Z"/><path class="cls-5" d="M4233,1413.28c-8.88-25.66-11.05-52.75-14.7-79.27-4-29.22-19.53-51-37.19-72.34,23.62-3.71,22.13,21.29,33.95,31.22,4.05,3.4,9.17,15,9,22.26C4223.5,1348.28,4240.78,1379.68,4233,1413.28Z"/><path class="cls-2" d="M4298.17,1248.12c10.93,22.71-.18,46.35,2.66,69.44.12,1-4.45,2.49-6.84,3.75C4295.14,1296.9,4290.58,1272.17,4298.17,1248.12Z"/><path class="cls-5" d="M4242.1,1459.13c-7-13.62-8.65-28.38-9.28-43.35,12.35,1,9.18,10.48,9.46,17.72C4242.6,1442,4242.19,1450.58,4242.1,1459.13Z"/><path class="cls-16" d="M7086.41,428c27.44-4.21,46.73-10.95,65.33-9.39,106.77,9,192.13-90.48,180.43-192.23-8.46-73.66-89.43-150.9-172.11-158.68-93.05-8.76-111.41,7-110.34,100.56,1,89.84,6.76,179.66,6.51,269.48-.35,125.38-5,250.73-6.5,376.11-.73,59.11,9.65,70.74,66.85,90,17.08,5.74,33.28,14.11,53.28,22.73-26,32.39-49.88,46.56-85.85,31.82-56.51-23.15-113.89-22.19-171.36-1.74-10.51,3.74-23.88,8.5-33,5.06-15.2-5.73-28.05-17.71-41.89-27.06,11.82-8.67,22.48-21.64,35.69-25.19,40.61-10.92,67.12-38.44,67.21-80.28q.68-336.89-.32-673.79c-.17-46.42-26.24-72.92-71.61-84-11.27-2.75-20.4-14.28-30.51-21.77,11.45-9.76,22.87-19.55,34.4-29.19.78-.65,2.55-.51,3.74-.24,93.11,21.24,183.95-9.48,275.87-11.43,104-2.19,200.18,26.59,263.94,115.64,67.13,93.76,58.31,227.57-55.5,287.58-15.65,8.24-30.1,18.83-46,26.46-66.46,31.85-56.79,29.27-20.92,93.1,60,106.78,125.63,210.39,188.22,315.73,27.37,46.08,93.94,80.58,138.91,70.07,55.32-12.94,76-38.25,76.13-96.72q.57-298.83.21-597.66c0-24.11.53-48.24-.3-72.32-2.07-59.79-10.64-69.52-68.78-84.7-7.39-1.93-19-9.48-18.8-13.92.45-8.65,5.92-21.13,12.91-24.42,12.06-5.68,26.85-7.48,40.51-7.55,96.57-.48,193.21-2.16,289.71.53,114.5,3.19,221,38.64,311.5,107.33,108.4,82.25,173.84,192.24,179.77,332.18,4.77,112.36-9.41,219.44-76,315.22-80.38,115.58-191.48,175.88-330.12,180.7-123.1,4.28-246.48.84-369.73-.4-17.33-.18-34.72-6.75-51.86-11.2-23.09-6-43.2-7.43-62.73,12.62-8.26,8.49-28.76,12.42-40.69,8.73-51.68-16-98.64-41-128.35-89-53.23-86-104.39-173.37-159.31-258.29-32-49.47-69.64-95.26-104.65-142.79C7111.28,463.44,7102.73,451,7086.41,428Zm717.2,50.43h-.21v289c0,2.54-.17,5.09,0,7.6,1.65,20.16-.86,42,6.22,60,7.67,19.53,21,40.12,37.65,52.26,61.07,44.46,232,30.89,305.19-24.23,111-83.54,162.08-199.07,162.76-335.36.47-93.93-13.28-186.32-60.12-271.09-34.73-62.84-85-110.59-146.09-144.32-65.45-36.15-138.32-46.38-213.65-40.86-65.12,4.77-91.14,29-91.6,95.22C7803.09,270.51,7803.61,374.45,7803.61,478.38Z"/><path class="cls-16" d="M6164.85,1386.88c-16.43,24.68-35.31,48.09-48.84,74.27-44,85.2-85.63,171.65-129.13,257.14-26.89,52.84-54.37,105.46-83.81,156.91-21.41,37.42-46.71,39-67.64,2.07-35.51-62.57-66.83-127.53-99.5-191.69q-64.49-126.64-128.37-253.59c-2.33-4.6-4.75-9.15-7.12-13.73l-12.14,1.48c-5.86,17.72-16.67,35.41-16.81,53.18q-1.93,237.81-.19,475.66c.37,45.47,17.13,61.17,62.86,72.64,18.25,4.58,48.45,3.07,37.35,32.94-4.38,11.76-34.45,24.28-48.36,20.42-53.19-14.76-104.36-16.88-156.72,1.4-8.77,3.06-22.74,3.07-29.27-2-10.07-7.8-18.36-20.46-21.87-32.65-1.16-4,13.86-15.92,23.23-19.15,67.37-23.26,71.56-27.69,71.73-98.66.48-209.31.08-418.61,1.09-627.91.22-46.93-6.34-85.12-61.72-97.88-16.47-3.8-29.65-21.88-46.48-35.1,6.61-6.25,9.85-12,13.3-12.17,50.14-1.83,100.37-4.74,150.4-2.79,11.63.46,26.92,15.91,33.14,28.19,43.35,85.5,84.07,172.31,127,258,46.3,92.59,91.88,185.65,142.1,276.11,23.12,41.64,35.74,38,58-3.72q107.93-202.18,217-403.75c24.56-45.35,50.78-89.81,76.72-134.41a52.08,52.08,0,0,1,15.39-16.59c22.92-15.38,139.62-9.29,166.58,9.92-23.27,14.37-44.71,29.55-67.86,41.41-28.62,14.67-39.26,38.16-39.66,68.11q-.84,62.77-.83,125.56-.07,258.78.21,517.56c.15,67.26,14.84,85.78,78.25,108.42,9.95,3.56,17.23,14.57,25.75,22.13-9.84,10.08-18.16,25.57-29.91,28.87-14.7,4.14-32.2-2.71-48.53-3.09-45.13-1.05-90.28-2-135.4-1.39-22.61.29-45.92,8.11-67.48,4.34-11.69-2-20.36-21.25-30.4-32.72,9.63-6.12,18.52-15.36,29-17.85,57.52-13.61,72.19-29.74,72.44-88.65.69-159.83,1.12-319.67.43-479.49-.09-22.31-7.06-44.59-10.85-66.88Z"/><path class="cls-16" d="M3612.69.21C3879.57-4.06,4099,222.74,4092.78,508.32c-6.34,289.73-199.17,471.23-492.83,469.21C3335,975.71,3123.38,767.6,3127.28,467.19,3130.68,205.05,3340.71-5.15,3612.69.21Zm-4.1,918q1.53,5.54,3,11.08c55.25-15.53,111.56-28.07,165.48-47.29,81.78-29.14,137.12-92.86,160.23-171.2,45.49-154.26,40.73-309.9-24.72-460.35C3863.64,137.8,3780.56,71.93,3656.32,60c-193-18.48-307.82,74.09-368.37,222.67-57.65,141.46-44,286.2,2,428.2,11,34,31,66.91,53.35,95.14C3410.57,890.87,3502.86,921.48,3608.59,918.17Z"/><path class="cls-16" d="M6314.48.18C6581.37-7.23,6800,219.41,6799.25,496c-.79,295.43-194,479.31-484.39,481.88C6047.11,980.23,5837,769.72,5834,487.19,5831.08,206.55,6042.87-2.22,6314.48.18Zm-3.11,918q1.48,5.55,3,11.09c56.54-15.5,114.27-27.68,169.36-47.28,84.69-30.12,139.49-96.93,162.4-178.47,42.78-152.24,37-305.57-27.2-453.22C6570.8,139.53,6489.58,72.91,6366.42,60.31c-192.09-19.65-309.22,70.62-370.69,219.13-59.53,143.83-45.28,291,1.35,435.53,10.58,32.77,30.94,64,52.66,91.28C6116.24,889.74,6207,920.86,6311.37,918.13Z"/><path class="cls-16" d="M2215.5,45.35c16.09-5.13,32.15-14.5,48.28-14.63,56.83-.47,113.68,2.17,170.52,3.79,8.86.25,18.47-.61,26.32,2.55,7.27,2.91,16.94,10,17.61,16.19.62,5.71-8,15.07-14.76,18.33-11.22,5.44-25.54,5-36.17,11.08-32,18.5-53.43,42-53.1,84.38,1.64,210.6-.15,421.21,1.47,631.81.26,33.45,12.15,66.74,17.86,100.24,3.46,20.31,5.37,40.9,8.43,65-55.31-6-69.94-48.34-93.37-78.34C2234.72,791.14,2162.86,695,2090.7,599.07c-82.06-109.07-163.33-218.75-245.82-327.5-7.37-9.73-21.18-14.59-32-21.71-8.36,12.72-23,25-23.94,38.25-3.11,42.92-1.22,86.19-1.22,129.32,0,129.41-.22,258.82.14,388.23.2,72.25,10.39,85.41,79.77,109.53,9.34,3.24,18,8.35,27,12.6l3.06,12.32c-18,5.94-35.82,16.36-54,17-54.2,1.77-108.58.87-162.78-1.5-19.72-.86-39.13-8.83-58.68-13.56l.27-14c13.14-4.86,26.14-10.14,39.45-14.49,41.28-13.51,65.29-43.78,65.4-87.17q.81-331.12.45-662.26c-.07-50.79-23.6-78.22-73.6-91.72-12.72-3.43-24.89-8.88-38.37-13.78,4.06-7.65,4.94-12.18,7.64-14,39.43-25.8,169.76-11.3,198.32,24.49,56,70.18,110.39,141.67,164.54,213.31,70.9,93.8,141,188.19,211.27,282.49,20.34,27.31,38.84,56.07,60.41,82.35,8.4,10.24,22.93,15.46,34.66,23,7.29-11.83,20.83-23.62,20.92-35.51q1.82-243.57,0-487.16c-.25-35.26-19.68-58.66-54.82-68.92-14.87-4.35-28.63-12.53-42.89-19Z"/><path class="cls-16" d="M4295.11,234.4c-3.74,27.23-8,44.06-8.06,60.91q-.42,255.06.43,510.13c.17,65.73,19.67,89.88,81.92,108.29,10.08,3,17.66,14.36,26.39,21.86-11.56,7.64-23,21.55-34.72,21.85-63.12,1.63-126.38.87-189.49-1.57-12.78-.49-25.15-11.78-37.7-18.1,10.25-8.51,19.24-21.38,31-24.74,41.4-11.87,68.54-44.44,68.8-92.41.75-137,.43-274.1.51-411.15,0-73.6.53-147.21-.09-220.8-.6-70.27-16.37-91.18-82.34-117-8-3.13-13.35-12.94-19.93-19.65,8.12-6.71,16.1-19,24.39-19.2,40.49-1,81.28-.85,121.5,3.33,14.18,1.48,30.85,12.62,39.92,24.34,88.94,115,176.59,231,264.46,346.84,64.23,84.68,128,169.7,192.74,254,6,7.8,19.81,17.47,26.09,15.25,8.22-2.9,15.19-16,17.94-26.1,3.6-13.18,3.36-27.62,3.38-41.53q.21-213.18-.15-426.38c-.18-73.14-8.78-84.5-78.95-110.75C4733,68,4723.4,62.71,4713.57,58.12q-.43-6.79-.85-13.57c20.44-4.64,40.82-12.84,61.34-13.21,53-.95,106.06.62,159,3.19,18.64.9,37,7.63,55.48,11.69l.13,12.37c-15.47,6.79-30.67,14.29-46.46,20.21-38.39,14.4-59.47,38.57-59.29,82.51.94,219.52-.37,439.06.89,658.59.18,32.45,11.62,64.71,14.32,97.36,1,12.63-7.76,26.07-12.07,39.14-10.78-5.74-25.06-8.8-31.83-17.61Q4669.23,698.07,4486,456c-45-59.49-86.69-121.48-132.38-180.4C4341.57,260,4320.21,251.58,4295.11,234.4Z"/><path class="cls-16" d="M1404.85,1881c19.92,25.94,14.34,43.86-5.56,62.57C1255.7,2078.68,1091.45,2118.14,901.71,2059c-75.14-23.43-138.47-62.23-191.75-117.76-88.26-92-129.14-204.65-132.65-330.43-4-143,36.44-270.55,144.35-370,54.64-50.36,119.59-80.73,191.85-102.92,108.19-33.23,212.16-19.15,314.42,12.83,46.54,14.55,86.83,49.13,129.75,75,4.12,2.47,7.52,6.94,10,11.21,13.46,23.16,11.8,128.37-5.93,162.2-16.47-20.08-37.42-35.59-44.57-55.92-56.48-160.8-257-195.79-382.86-145-125.46,50.67-184.5,145.66-211.48,270.44-21.41,99-16.92,197.66,7.57,294.11,38.62,152,156.3,270.49,338.3,264.9,108.49-3.33,200.73-45.4,284.23-111.38C1368.66,1903.83,1386.15,1893.64,1404.85,1881Z"/><path class="cls-16" d="M2541.53,704.91c34.13,13.19,51.65,31.92,52.57,64,2.25,78,85.81,142.55,159.16,146.24,106.89,5.37,169.58-27.6,213.78-115.88,29.09-58.12,18.64-115.38-33.67-166.12-69.47-67.37-149-124.41-224.67-185.38C2646.88,397.89,2581,353,2559.21,268.44c-19.65-76.21.66-138.82,57.59-188.17C2719.75-9,2854.81-21.5,2974.3,43.86c29.41,16.09,49,39.91,47.93,76.16-.74,24.06.5,48.27-1.85,72.15-.83,8.34-9.77,15.89-15,23.8-7.69-5.44-18.1-9.27-22.49-16.66-9-15.15-16-31.8-21.63-48.56-18.46-54.64-58-81.42-113.62-84.87-51.12-3.16-99.29.87-144.06,34.64-62.88,47.42-74.65,116.74-17.44,171.19,41.9,39.88,89.08,74.42,135.19,109.67,75.29,57.54,152.62,112.32,208.76,191,80,112.08,58.13,258.19-51.35,335.55-97.18,68.67-202,91.78-316,47.3-36.05-14.06-70.89-31.29-105.94-47.8-6.54-3.08-15.48-9-16.46-14.74C2529.75,830.77,2527.27,768.86,2541.53,704.91Z"/><path class="cls-16" d="M7948.37,1150.82c18-.9,36-2.39,54.05-2.54,24.12-.2,48.26,1.37,72.37.89,55.73-1.11,76.62,18.3,77.09,77.38,1,132,.85,263.91,1.08,395.87.18,99-.29,197.94.56,296.9.41,47.83,8.87,91.23,64.82,107.79,8.37,2.47,17.33,22.27,15.74,32.46-1.13,7.2-19.36,16-30.39,16.59-32.7,1.88-65.62.23-98.44-.39-8.84-.16-20.95,1.84-26-3-36.32-34.87-65.74-10.64-102,3.69-93.43,37-184,29-263.28-39.74-83.79-72.71-102.41-163.67-68.05-265.29,19.43-57.45,63.15-99,116.74-125.06,66.91-32.54,136.78-45.65,208-7.21,22,11.85,38.32,23.7,32.39,58.76-18-3.71-36.11-3.55-50.23-11-92.63-48.82-179.78,14.23-205.58,88.72-26.65,76.93-23.6,155.55,35.53,221.65a149.46,149.46,0,0,0,160.85,41.2c91.4-32,112.1-95.71,111.78-179.44q-1.06-270.24,0-540.5c.25-55.85-15-98.75-72.93-119.71-15.35-5.56-26.17-23.6-39.07-35.91Z"/><path class="cls-16" d="M2121.89,1153.92c14.13-2.15,28.23-5.9,42.39-6.13,34.24-.55,68.5.38,102.75,1,42.09.81,57.72,14.37,59.58,56.94,2.1,48.11,1.59,96.34,1.62,144.52.14,181.3.59,362.62-.3,543.92-.28,57.3,3.69,109.53,68.54,134.12,8.13,3.08,9,25.22,13.25,38.53-11,3.43-22,9.39-33.11,9.78a650.28,650.28,0,0,1-78.84-1.91c-17.07-1.48-34.56-5-50.48-11.19-27.48-10.65-50.51-14.13-77.89,5.79-57.66,42-183.12,38.12-238.77-6-31.11-24.69-64.09-50.54-85.89-82.83-85.06-126-25.68-265.9,88.52-330.5,70.21-39.71,149.11-52.26,224-5.42,11.26,7,13.3,28.78,19.61,43.71-13.36.71-30,6.94-39.58,1.28-107.8-63.81-218.7,39.36-228,137-8.65,90.79,26.22,177.27,108.27,210,27.81,11.08,63.64,8.57,94.44,3.69,25.2-4,51.27-17,71.77-32.71,31.48-24.17,45.1-59.6,45.07-100.18-.14-206.51.33-413,.27-619.53,0-39.33-17.41-66.27-55.17-82.57-20.59-8.89-37.41-26.5-55.93-40.17Z"/><path class="cls-16" d="M5245,929.13c25.51-16.16,52.26-28.76,73.07-47.82,14.24-13,28.47-35,28.59-53.14q2.38-336.73-.21-673.5c-.32-52.06-24.89-75.15-77.58-86-10.25-2.11-18.87-12.18-28.24-18.59,9-9.34,17-20,27.34-27.48,5.31-3.84,14.76-2.58,22.34-2.59,148.62-.08,297.27-1.3,445.83,1.5,21.36.4,53.73,15.4,61,32.25,12.88,29.82,22.57,67.72-12.19,103.54-15.85-19.62-28-38.69-44.09-53.38-14.6-13.3-33-29.75-50.71-31-56.89-3.93-114.24-2.5-171.37-1.12-46.51,1.12-62.81,16-64.88,61.39-2.18,48.08-2.2,96.46.36,144.52s19.23,63.38,66.76,64.62c53.31,1.38,106.68-.1,160,.16,29.18.14,46.76-12.06,56.18-40.93,3.42-10.51,19.43-16.92,29.7-25.2,8,10.6,21.39,20.47,22.93,31.94,5.54,41,9,82.64,8.79,124-.05,10.93-13.92,26.08-25.13,31.1-6.83,3.06-27.92-7.49-30.17-15.44-10.74-38-36.6-48.67-71.93-48.3-52.07.53-104.19-.95-156.21.94-46.3,1.68-58.9,15.1-59.16,60.74-.65,114.15-.07,228.31-.34,342.47-.09,38.11,8.18,70,49.41,84.6,16.49,5.85,31.8,15.77,46.51,25.55,6.45,4.29,10,12.86,14.93,19.49-7.57,5.47-14.49,13.77-22.88,15.71-10.72,2.49-22.64-.63-34-.49-66.89.81-133.8,1.15-200.65,3.25C5284.9,952.73,5261.21,957.23,5245,929.13Z"/><path class="cls-16" d="M954.69,927.54c8.25-5.37,16.25-11.21,24.81-16,34.26-19.39,56.43-46.33,56.54-87.65.33-117.88,1.92-235.78.51-353.64-.6-50.49-21.93-69.19-74.49-69.92-87.59-1.22-175.22-.32-262.83-.62-30.09-.11-57.75-5.65-76.54-46.18,29.08-4.34,54-10.91,79-11.28,85-1.29,170.14-.39,255.21-.32,57.2,0,74.69-16.69,76.45-74.43.77-25.34-1.67-50.89.67-76,5.64-60.55-23.93-98.16-75.58-123-6.51-3.14-12.3-7.78-18.42-11.73l-1.44-11.82c20.3-4.78,40.5-13.06,60.92-13.65,55.61-1.6,111.31-.09,167,.51,11.34.12,23.23-.14,33.8,3.17,7.21,2.26,16.68,9.88,17.53,16.14.79,5.78-7.19,16.53-13.62,18.94-53.56,20-64,62.14-63.75,113.09q1.23,310-.21,620c-.28,52,13.24,92,66.79,110.73,7.5,2.62,18.3,16.78,16.57,20.57-4,8.82-14,16.12-23.13,21-6,3.25-14.9,1.6-22.5,1.59-58.1-.1-116.23.8-174.26-1.24-16.89-.59-33.47-9.68-50.19-14.88Q954.09,934.2,954.69,927.54Z"/><path class="cls-16" d="M7484.21,1839.19c0,33-.48,66,.12,98.94.68,37.58,17.74,65.95,52.23,81.51,18.4,8.3,34.43,19,21.38,38.82-6.26,9.49-25.91,12.89-39.9,14-23.6,1.86-47.52-.51-71.31-.64-6.25,0-14.54,4.7-18.47,2.09-43.41-28.79-80.2-7.34-123.59,5.87-72,21.89-145.86,21.37-215-25.55-85.13-57.81-95.48-196-13.61-259.46,67.87-52.61,144.73-63,226.74-41.63,7.25,1.89,17.63,3.84,20.25,9,5.74,11.26,7.44,24.58,10.78,37.06-11.13,1.86-25.32,9-32.88,4.71-45.89-26.32-86-17.12-127.88,10.55-47.32,31.24-51.74,74.92-43.43,123.68,8.08,47.39,37.5,76.68,83.57,87.67,87.09,20.79,176.93-14.88,171.59-131.3-2.22-48.47-.51-97.1-1.75-145.63-1.58-61.62-27-91.66-88.11-89.39-40.25,1.5-79.8,19-119.94,28.2-11.69,2.66-24.33,1.17-36.54,1.59,1.49-15-1.87-33.51,5.73-44.22,8.68-12.24,26.37-19.4,41.45-25.61,66.3-27.32,207.73-35.48,267.28,45.38,15.55,21.11,25,49.39,29,75.63,4.9,32.24,1.17,65.78,1.17,98.77Z"/><path class="cls-16" d="M672.15,58.61C574.27,93.17,581.07,170.8,581.9,248.77c1.9,180,2.94,360.16-.67,540.15-1.25,62.42,22.65,100.78,76,126.17,7.59,3.61,14,9.67,32.67,22.86-30.76,8.09-51.12,17.37-71.78,18.12-55.49,2-111.12.49-166.69.11-10.1-.07-21.12.85-30-2.79-8.37-3.41-19-11.48-20.28-18.95-1.07-6.09,8.7-18.23,16.14-21,47.06-17.32,59.85-52.24,59.63-99-1-213-1.34-426.07.27-639.1.36-47.92-17.34-79.47-59.31-100.74-9.42-4.77-14.87-17.37-22.15-26.36,11.4-6.28,22.68-17.74,34.21-18q98.61-2.16,197.31.84c13.37.39,26.49,9.83,39.72,15.1Z"/><path class="cls-16" d="M1580.4,45.24c-8,13.4-8.39,15.06-9.32,15.47-76.2,33.21-83.1,96.41-81.82,169.71,3.36,192.74,2.31,385.59.49,578.37-.46,49,15.21,82.82,59.71,104.13,8.39,4,13,15.87,19.37,24.11-9.85,6.56-18.95,15.39-29.79,19-9,3-20-.55-30.15-.65-48-.47-96-1.51-144-.78-25.51.38-51.22,4.6-65.68-23.13.73-2.32.78-4.31,1.55-4.63,82-35,85.64-103.29,84.21-179.84q-5.15-273.89.22-547.92c1.22-61.1-19.81-101.82-71.07-130.34a48.46,48.46,0,0,1-9.12-6.83c-1.8-1.65-2.91-4-9.07-12.92,14.49-6.55,29.93-20.32,41-17.43C1415,51.78,1497.78,19.39,1580.4,45.24Z"/><path class="cls-16" d="M2939.15,1997.85c-7.26,13.53-11,32.73-22.32,39.71-129.75,80-314.36,86.2-412.4-71.09-86.75-139.18-16.17-269.47,112.1-331.85,93.88-45.65,184-38.6,273.68,6.71,72.18,36.47,102.88,101.79,115.36,177.54,4.67,28.34-16.33,41.67-38.28,42.17-100.23,2.29-200.55,1.93-300.82,1.19-9.19-.06-18.32-9.53-27.48-14.63l.27-11.65c14.48-4.14,28.85-11.35,43.45-11.85,44.39-1.51,88.88-.43,133.33-.36,26.55,0,55.83,4.63,70-25.6,15.65-33.34-.62-62.65-19.72-88-57.21-75.8-205.33-71.06-262,23.63-13.57,22.67-23.44,47.87-32.55,72.81-20.93,57.31,4.14,106.15,37.7,147.91,67.32,83.77,168.55,95.1,269,49.44,16.12-7.32,33.19-12.53,49.83-18.72Z"/><path class="cls-16" d="M6782.87,1863.42c-45.72,0-91.49,1.19-137.12-.82-11.68-.51-22.93-11.12-34.37-17.09,11.51-7.22,22.7-20,34.59-20.66,44.3-2.53,88.83-1.06,133.28-1.16,30.31-.06,65.14,5.57,77.4-32,11.9-36.47-7.58-67.69-32.29-91.32-76.27-72.9-209.8-47-260.18,45.84-38.16,70.34-42.68,138.51,7.15,202.61,48.46,62.35,114.25,92.24,194.26,77.6,30.44-5.57,59-20.57,89.17-28.66,14.14-3.79,29.94-1.4,45-1.82-7.59,15.7-10.93,38.17-23.45,46-77.78,48.49-164.22,62.77-252.15,40-78.24-20.25-134.93-71.85-167.11-147.68-26-61.29-34.44-124.31,2.79-182.3,23.95-37.3,53.19-76.38,89.69-99.54,122-77.4,278.1-67,375.5,47.55,22.68,26.68,34.87,64.49,44.73,99.21,11.95,42-4.91,61.9-49.75,63.82C6874.37,1865,6828.58,1863.42,6782.87,1863.42Z"/><path class="cls-16" d="M3070.13,2067.7c14-14.32,29.61-27.41,41.55-43.28,12.68-16.85,30.1-35.89,31.11-54.74,3.71-69.44,1.37-139.19,1.55-208.82.07-27.91-10.2-47.15-37.12-60.14-13-6.28-20.61-23.75-32-37.75,64.24-28.46,127.38-13.33,164.52,34.27,24.83,31.84,32.25,29.38,51.26-6.52a317.15,317.15,0,0,1,52.8-72.43c18-18.4,47.28-24.08,63.91-2.73,7.21,9.25-2.34,42.69-14.59,54-57.72,53.1-107.66,111.9-133.16,186-14.09,40.94-17.82,86.23-20.34,129.89-.75,13.14,16.91,28.73,28.6,40.82,14.44,14.94,31.46,27.4,47.36,40.94l-3.69,9.65H3076.61Z"/><path class="cls-16" d="M1495.35,1644.23c13.53-3.33,27-8.81,40.62-9.51,24-1.22,48.26,2,72.25.61,35.8-2,51.34,13.44,51.06,48.93-.63,78.58-.77,157.18.23,235.76.55,43.25-.07,87.92,52.75,106.91,5.45,2,10.68,17.87,8.37,24.76-3,9-12.6,19.8-21.27,21.88-11.49,2.77-24.84-3.47-37.39-3.5-32.46-.06-64.94.89-97.4,2-12.61.43-26.3,6-37.43,2.53-9.8-3-20.61-14.15-23.6-23.94-2.16-7.08,5.64-23.43,12.61-26,43-16.13,49.17-51.39,49.7-89.52.79-57-1.11-114.13.81-171.1,1.26-37.15-16-62.63-42.72-84.3-9.53-7.72-19.64-14.72-29.48-22Q1494.91,1650.94,1495.35,1644.23Z"/><path class="cls-16" d="M1617.47,1540.83c-28.36,1-67.65-35.09-69.3-63.64-1.8-31.29,28.34-63.16,61-64.48,36.68-1.49,69.84,28.48,70.61,63.8C1680.39,1505,1646.66,1539.81,1617.47,1540.83Z"/></svg>