<svg id="Layer_1" data-name="Layer 1" xmlns="http://www.w3.org/2000/svg" viewBox="0 0 4534.86 2506.21"><defs><style>.cls-1{fill:#a62b2a;}</style></defs><path class="cls-1" d="M1263,2368c-1.06.41-2.09.79-3.08,1.12C1261,2368.8,1262,2368.43,1263,2368Z"/><path class="cls-1" d="M451.9,2290l-.7-.74h0C451.45,2289.54,451.68,2289.78,451.9,2290Z"/><path class="cls-1" d="M4110.82,1300.67h0l-.6,0Z"/><path class="cls-1" d="M451.9,2290l-.7-.74h0C451.45,2289.54,451.68,2289.78,451.9,2290Z"/><path class="cls-1" d="M371.37,1114.2l-1.42.71a4.26,4.26,0,0,1,.07-2.84Z"/><path class="cls-1" d="M4110.82,1300.67h0l-.6,0Z"/><path class="cls-1" d="M4110.82,1300.67h0l-.6,0Z"/><path class="cls-1" d="M4187.33,351.69c0-7,1.7-54.21-.14-70.82q0-54.13,0-108.28,0-3,0-6-.16-5.4-.31-10.8c1.06-1.68.17-2.1-1.37-2.11-12.19-1.3-24.37-2.87-36.59-3.83-65.54-5.16-131.34-5.67-196.81-12.42-54.49-5.62-109.22-8.95-163.83-13.46-60.7-5-197.87-17.22-205.81-17.64l-3.24-.53c-2.22-.17-58-5.81-66.82-6.76Q3387.21,85.6,3262,73.1c-98.28-9.77-196.55-19.7-294.94-28.24-35-3-69.89-9-105.25-7.68-82.25-9.22-164.88-13.08-247.47-17.4-46.28-2.42-92.58-4.26-138.88-6.12-15.08-.6-197-4.44-202.51-4.47-94.1-.48-188.13,3-282.1,7.13-50.83,2.24-101.77,3.72-152.4,9.59-98,3.56-195.62,13-293.14,23.11-3.33.16-75.26,6.64-80.69,7-27.83,2.16-55.73,3.75-83.5,6.58Q1217.4,79.35,1053.74,96.7c-3.6-.42-25.91,2.86-33.72,3.42-2.53-.77-84.5,8.62-120,12-79.94,7.62-253.39,20.68-260,21.2-38.29,3-76.53,6.79-114.85,9.2-46.71,2.94-93.47,4.88-140.23,7-10.06.46-15.45,4.08-15.07,15.11.67,19.52.61,39.08.86,58.62,0,0,0,0,0,0q-.18,72.57-.38,145.11,0,114.42-.1,228.87l.24,349.44L370.2,1088l-.18,24.08,1.35,2.13-1.42.71.12,64.15.06,121.16q.19,70.65.38,141.31.14,50.55.25,101.11.14,52.27.26,104.55c-.2,2.23-.57,4.46-.57,6.69q-.15,233.86-.14,467.72c0,13.39,2.73,137.51,2.32,146.91-1.72,27.21-3,88.82,1.23,91.83,8.15,6.76,126.31,10.91,176.22,13.83,107.51,6.28,214.68,16.57,321.91,26.14L1181.6,2431c68.8,7.59,137.49,16.29,206.41,22.47,67.38,6,134.58,13.7,202.07,18.78,67,5.05,133.9,11.18,201,15.44,66,6.2,132.11,8.64,198.27,11.21,18.42,1.65,154.1,6.15,170.27,6.37,101.41,1.37,202.84,1.52,304.21-2.09,62.07-2.22,124.1-5.73,186.15-8.65l9.75-.32c13.55-.94,64.11-3.52,67.4-5,3.86.33,103.91-5.92,150-9.78,40-3.35,79.85-7.29,119.78-11,52-4.55,104.08-8.92,156.08-13.72,36.7-3.38,73.36-7.22,110-11.08q97.41-10.26,194.81-20.79c2.29-.07,103.28-9.79,141.53-13.36,2.53.66,86.54-8.54,90.92-9,35.11-2.78,70.24-5.33,105.32-8.4,27.77-2.42,55.49-5.46,83.23-8.23l117.73-7.94c3.69.85,71.83-5.59,94.39-6.14,24.67-1,45.67-2.83,68.76-3.27,28.75-.54,28.77-.23,28.77-28.12q-.06-983.35-.18-1966.69C4188.3,365.08,4187.66,358.39,4187.33,351.69Zm-80.78,1937.7-130,8.05c-46.81,3.3-93.67,6.14-140.44,10q-86.88,7.2-173.65,15.85c-88.41,8.81-176.77,18.2-265.15,27.34-47.77,4.48-95.57,8.72-143.31,13.52-49.47,5-98.85,10.82-148.32,15.68-53.15,5.22-195.51,15.46-213,18.71-16,3-63.45,5.92-71.15,6.26-5.86-.6-21.5,2.29-23.71,2.38-70.85,4.29-141.68,8.94-212.56,12.73-40.78,2.18-81.65,2.58-122.45,4.47-90.13,4.16-180.32,4.41-270.46,2.56-77.15-1.58-154.36-2.93-231.37-8.82-8.35-.64-16.79-.17-25.19-.21q-92.31-6.54-184.64-13c-4.76-.33-68.93-4.59-96.47-7.24Q1513,2384,1371.16,2371.17c-24.32-2.19-89.2-8.47-97.62-8h0s-29.75-4.25-44.75-5.42l-6.63-.49q-98.76-10.36-197.54-20.69c-11.6-1.21-23.25-2-34.88-3-15.46-3.86-104.41-10.55-131.45-13.38-59.88-6.25-119.88-11.38-179.88-16.36-48.36-4-96.78-7.35-145.21-10.55-27.3-1.8-54.65-2.71-82-4,.24.25.47.49.69.74l-.7-.74h0q-.82-45.29-1.66-90.58c.36-64.76.95-129.52,1-194.28.06-54.15-.47-108.29-.74-162.44.35-78.76.84-157.52,1-236.28.06-31.25-.62-62.51-1-93.76q.12-52,.23-104l.57-228.88q-.18-31.9-.35-63.83c-.16-2.31-.33-4.61-.49-6.91l.33-104.2a310.44,310.44,0,0,0,0-53.94l0-9.94a177,177,0,0,0,.08-40.5Q450,750,449.74,600.33c.24-52.67.66-105.34.66-158,0-58.29-.4-116.59-.63-174.88,1.74-10.12,1.33-20.25.25-30.4.44-3.13.87-6.29,1.31-9.43,11.72-1.64,43.07-2.28,46.89-3.88,30.26.71,60.27-2.67,90.3-5.62L616,216.2c48.6-3.59,97.24-6.65,145.79-10.89q100.29-8.76,200.44-19.1c34.43-3.56,116.67-12.52,119.32-12.88l2.5-.33c5.69-.31,39.84-3.72,47.28-4.22,5.78.47,25.67-3,30.14-3.25,49-4.73,98.06-9.37,147.07-14.25,29.54-2.94,59-6.25,88.55-9.39q75.09-6.84,150.16-13.66,89.31-8,178.63-15.78c16.14-1.42,32.29-2.74,48.44-4.1,5.59,0,11.21.31,16.77-.13,115.53-8.89,231.16-15.69,347.06-17.21,4.38-.06,35.59-2.35,46.94-2.4,77.85.23,155.75-1.3,233.53,1.17,83.73,2.67,167.53,5.11,251.11,12,55.1,4.56,110.35,7.23,165.53,10.88,18.95,1.25,104.66,8.62,127.25,10.66,64.18,5.79,128.32,12.12,192.47,18.24,9.75.43,169.23,16.92,205.73,21,71.51,8,143.1,15.19,214.69,22.34,39.39,3.91,78.86,7,118.3,10.52,85.57,8.49,171.23,16,257,21.65q73.47,4.88,146.94,9.83c3.84.26,7.94-.1,10.68,3.55q-.3,249-.58,497.89c0,77.37.36,154.73.55,232.1q.08,170,.14,340h0q-.06,99.3-.11,198.61,0,196.7-.07,393.38l.24,390.39Q4107.55,2286.09,4106.55,2289.39Zm4.27-988.71-.6,0,.6,0Z"/><path class="cls-1" d="M2767.57,166.29h0v0Z"/><path class="cls-1" d="M1254.7,2300.09c-.72,0-1.44,0-2.15,0a3.37,3.37,0,0,1,1.74-.13A3,3,0,0,1,1254.7,2300.09Z"/><path class="cls-1" d="M2767.56,166.29v0h0Z"/><path class="cls-1" d="M918.78,2266.63c-.07.09-.07.1,0,0Z"/><polygon class="cls-1" points="973.05 2272.7 973.04 2272.7 973.04 2272.66 973.05 2272.7"/><path class="cls-1" d="M1254.7,2300.09c-.72,0-1.44,0-2.15,0a3.37,3.37,0,0,1,1.74-.13A3,3,0,0,1,1254.7,2300.09Z"/><polygon class="cls-1" points="2767.57 166.29 2767.57 166.31 2767.56 166.29 2767.57 166.29"/><path class="cls-1" d="M918.78,2266.63c-.07.09-.13.18-.21.27a2.69,2.69,0,0,0,.2-.27Z"/><polygon class="cls-1" points="973.05 2272.7 973.04 2272.7 973.04 2272.66 973.05 2272.7"/><path class="cls-1" d="M1040.41,2279.45a4.92,4.92,0,0,1-3-1.16Z"/><path class="cls-1" d="M4068,1993.32c2.11-44.73,1.79-89.45-.07-134.17.34-30.72,1-61.43,1-92.14-.08-62.56-.55-125.12-.85-187.68a829.8,829.8,0,0,0,0-90.74c1.84-41.55,1.36-83.1-.1-124.65,1.78-37,1.11-74-.14-111,2.22-84,1.76-261.91,1.74-266.85-.26-59.9-.76-119.8-.94-179.71q-.59-197.36-.93-394.72c.24-45.81.37-91.62.84-137.42.09-8-3-10.43-10.78-10.68-24.56-.8-162.59-12-164.71-12.12-58.56-4.93-117.15-9.47-175.69-14.68-51.82-4.59-103.54-10.32-155.37-14.83-56.84-5-210.35-22.11-218.32-21.56-5.45-.29-101.42-10.88-130.17-13.91-53.09-5.59-106.21-11-159.38-15.78-47.08-4.25-150.36-14.34-155.23-13.59-12-.49-143.88-10.24-158.77-11.62-97.39-9-195.13-11.73-292.79-15.62-30.54-1.21-198.6-4.19-252.09-.5-31.49.27-162.55,4.08-187.93,4.71-22.82,1.19-153,8.08-188.53,10.7-14.79,1.09-46.79,4.33-47.92,4.42l-6.56.38c-9.12.47-138.91,10.08-185.41,15.08-45.4,4.89-184.49,17.54-185.73,17.8-11.15.85-243,24.64-248.64,24.91-5.82-.32-77,10-106.82,11.92-63.07,4.07-125.73,11.9-188.65,17.11-36.66,3-73.29,6.46-109.94,9.67q-61.69,5.43-123.39,10.76c-7.75.33-95.1,6-119,6.85-6.94.23-8.21,3.56-8.14,9.45.4,37.33.62,74.67.9,112q0,15.12-.07,30.25c-1.49,15.61.11,107.58.19,138l-.36,73.87c0,1.14,0,2.28,0,3.42q0,161.52,0,323a68.19,68.19,0,0,0,0,23.5l.06,20.29,0,6.65q-.06,26.83-.13,53.68c0,1.25,0,2.5,0,3.76l.36,13.15q-.22,6.76-.47,13.54l-.33,104.29q.1,6.78.2,13.57l.24,94.07c0,1.2,0,2.39,0,3.58l.06,53.73a64,64,0,0,0,0,23.57q.17,26.84.34,53.69c-1.72,68.43-1,136.86,0,205.29-1.83,107.61-1,215.22.09,322.83-2.07,75.25-1.26,150.51-.25,225.76-.3,17.87-.39,35.74-1,53.6-.28,8.17,3.43,10.22,11,10.71,65.12,4.27,130.24,8.5,195.29,13.59,42.78,3.35,85.36,9.42,128.17,11.87,47.9,2.74,244.38,23.9,274.8,26.93,38.17,3.81,76.39,7.08,114.59,10.59,5.47.28,50.19,6.21,67.33,6.87,6.48.32,44.46,4.09,56.91,6.08,13.85,1.53,27.68,3.21,41.55,4.57,51.08,5,102.13,10.24,153.26,14.65,68.35,5.9,301.06,25,303.13,25.11,81,3.78,250.1,13.36,254,13.47,54.87,1.43,109.77,1.58,164.65,2.69,68.84,1.4,137.8-.74,206.65-3,22.68-.74,195.49-9.11,206-9.79,64.78-4.17,129.57-8.36,194.27-13.48,45.67-3.61,143.51-13.36,146.86-13.48,6,.28,30.55-3.08,37.1-3.39,5.88.42,165.2-15.77,239.12-23.74l6.94-.74c1.35-.44,19.33-2.18,27-2.61,4.74.65,133.09-13.7,177.48-18,23.82-2.32,124.47-11.49,132.66-13.84,1.15-.23,125.63-10.87,186.7-16.17,25.45-2.21,50.85-5,76.28-7.46,4.35-.12,124.68-9,169-10.75,5.31-.21,10.41-.22,9.78-7.63C4067.82,2235.31,4068.73,2014.68,4068,1993.32ZM4048.49,1371q-.16,18.54-.32,37.08h0a736.92,736.92,0,0,0-.05,80.59l.24,77.48q-.2,13.45-.38,26.9a318.89,318.89,0,0,0-.07,53.88q.23,58.85.44,117.71,0,77.36.07,154.71l.06,84.2q-.17,11.82-.35,23.62c0,1.1,0,2.2,0,3.3l.09,67.49h0a849.93,849.93,0,0,0,.06,87.14l0,17c-2.63,30.59-2.62,30.69-34.86,33.12-38.22,2.88-76.45,5.57-114.68,8.35-.39.27-.39.26,0,0-6.9-1-33.53,2.87-40.24,3.16-56.89,4.85-113.79,9.6-170.67,14.59-19.5,1.71-39,4-58.43,6.07a2.25,2.25,0,0,0-2.92.24c-9.14.91-78.87,8.5-81.12,8.69l-20,1.51-158.41,16h0c-5.87-.51-37.27,3.7-37.27,3.7-3.78-.95-63.07,5-70.93,7.69-1.22.3-14.25,1.52-19.54,1.83-39.82,3.69-79.65,7.29-119.46,11.1-21,2-63,6.64-63,6.6-3.64-1.22-21.17,2.28-26.77,2.55-5.73-.38-67.26,6.47-73.86,6.74-40.43,4.12-81.08,5.15-121.4,11.79-24.59,4.06-50.12,1.16-75.28,3.67-38.35,3.81-77.14,3.48-115.36,8.14-25.1,3.07-50.16.52-75.06,3.68l-129,4.44c-10.62.36-21.24,1-31.86,1-80.7.12-161.4.52-242.09-.1-25.11-.2-50.18-3.84-75.37-1.57h0l-239-11.28c-4.43-.1-26.56-3.26-33.43-2.61-9-.35-42.58-3.68-50.48-3.7-6.75-.27-28.82-3.76-33.47-2.56-57.44-5-114.91-9.82-172.33-15q-64.38-5.85-128.69-12.54c-23.89-2.49-109.84-10.75-116.82-10.54-3.42-.11-25.78-3.89-33.84-3.25-3.35-.2-21.84-3.71-28-3.47-.72,0-1.44,0-2.15,0-3.41-.12-57.5-6.16-81.17-8.65-43.6-4.59-133.1-12.46-134-13.19-10-3-64.35-5.6-64.35-5.6s-23.67-2.84-27.08-3c-5.32-.3-23.18-3.67-27.19-3.06-.07.09-.13.18-.21.27a2.69,2.69,0,0,0,.2-.27c-2.08-.06-70.58-7.1-102.77-10.26-62.79-6.17-125.68-11.3-188.57-16.39-39.54-3.21-79.14-5.58-118.72-8.32q-.42-21.59-.83-43.15l.24-332.93q0-112.78,0-225.57,0-106,0-212l0-188.46q0-85.8.08-171.59-.06-26.93-.13-53.85c.29-88.82.73-177.64.8-266.46,0-50.26-.52-100.53-.81-150.8q0-141.33,0-282.65c-1.87-15.94,4.58-21.64,21.14-21.9,27.88-.44,55.7-3.8,83.55-5.93l1.64.23,1.56-.58,7.16-.34c4.61.59,9.15.66,13.39-1.69l6.49-.19c49.14-3.71,98.34-6.78,147.41-11.29,87.55-8,175-16.94,262.53-25.56,25-2.47,50.06-5.26,75.08-7.91,4.69.62,22.4-2.69,26.91-2.9l9.54-1.09c10.33-1,55.3-5.74,61-6,42.73-4.33,160.71-16.55,168.46-17.07l4.43-1.41q11.22-.69,22.45-1.38c41.17-3.72,82.33-7.58,123.52-11.11,60.15-5.14,120.32-10,180.47-15.1,16.66-1.41,33.28-3.16,49.92-4.75,4.66.79,9.32,1.54,13.42-1.8l23.27-.89c40.53-2.35,81.12-3.66,121.5-8.64,16.53-2,33.44-1.06,50.18-1.45l6.85-.61,10.13-.4h.49l144.12-5.28c93.12.14,186.26-.54,279.36.7,64.94.86,129.84,4.76,194.73,7.26,49.57,1.92,99.1,7.57,148.81,9.24v0h0s40.51,3.94,57.64,5.26l9.66.75c7.81.26,193.69,16.74,273.72,24.5,72.74,7,145.38,15.19,218.07,22.79,2.2.23,69.9,7.17,73.79,6.61q158.18,17.34,316.66,31.53c61.72,5.63,123.4,11.47,185.23,15.68,6.63.23,28.65,3.26,33.3,2.37,32.25,2.53,64.47,5.89,96.77,7.19,13.06.52,15.54,5.19,15.45,16.94-.52,67.68-.38,135.37-.38,203.06,0,6.68.62,13.36.95,20,0,16.87-.09,112.14-.09,114.53-1.56,14.44,0,325.06.12,440.69q0,99.26.07,198.52Q4048.52,1323.87,4048.49,1371Z"/><path class="cls-1" d="M2353.21,1491.82a9.26,9.26,0,0,0-.07-2.08h0A9.32,9.32,0,0,1,2353.21,1491.82Z"/><path class="cls-1" d="M2405.25,1404.66c-.68.46-1.34.92-2,1.4h0C2403.91,1405.57,2404.57,1405.11,2405.25,1404.66Z"/><path class="cls-1" d="M839.34,518.46h0l.39.07Zm261.8,8a1.76,1.76,0,0,0,0,.23l.23-.37Z"/><path class="cls-1" d="M3791,781.84l.12.06v-.18Z"/><path class="cls-1" d="M3295.61,1850h67.19c-7.9,26.45,12.09,44,18.33,66,7-22,23.69-40.92,16.83-66.16h70.35c-43,77.27-79.92,155.22-55.45,247.74h-61.2C3375.7,2005.45,3338.48,1927.67,3295.61,1850Z"/><path class="cls-1" d="M1117.41,2088h0v.1l0-.11Z"/><path class="cls-1" d="M1533.2,2098.38c-18.39,0-36.79-.34-55.18-.53h-6.71c-4.22.11-9.59,2.82-12.1-1.86-2-3.65,2.08-7,4.44-10,.3-1.67.59-3.33.89-5q-.24-99.19-.51-198.38c0-6.1,1.28-12.44-1.76-18.2-6.59-12.5-2.6-15.92,11-15.55,30.82.84,61.69.57,92.53.05,10-.17,14.19,2.52,13.55,13.18-.83,13.91-.2,27.91-.2,43.25-19.28-9.47-38.53-5.07-57.34-5.9-4.6-.21-9.41,0-9.46,6.49-.07,11.21,0,22.42,0,33.63,0,6.49,4.58,6.77,9.29,6.66,12.72-.3,25.85,2.42,40.22-9.06,0,22,.59,40.12-.28,58.14-.37,7.69-5.48,4.81-9.28,1.56l-.2-.11-10.32-2.59-6.27,0q-3.57,3.11-7.12,0h-6.59l-9.79,3.24c2.07,17.18-3.22,34.79,3.12,51.7,20.77-3.36,42.15,3.08,62.64-5.13.68,2.78,1.33,4.35,1.41,6C1581.58,2098.4,1581.57,2098.45,1533.2,2098.38Z"/><path class="cls-1" d="M2703.45,2097.52c6.14-21.76,7.16-225.29,1.09-248.08,14.7,0,29.05,0,43.4,0,17.74,0,17.74.07,9.47,16.12l-.09,6.79q.42,93.32.81,186.65c0,13.27-1.82,26.81,10.9,38.51Z"/><path class="cls-1" d="M1703.87,1990.69c22.3-11.57,28.81-23.53,27-48.14-.65-8.88-.38-17.86-.15-26.78.91-35.62-16-57-51.65-63.74-27.61-5.24-55.52-3.2-83.35-1.69l-6.48-.08c-5.65,1.42-2.23,3.42-.34,5.33q1.61,3.48,3.23,7,.36,15.09.74,30.18-.36,79.86-.73,159.72c-.07,14.95,1.75,30.12-6.26,45h59.74c-11.32-32.37-2.59-65.14-6.3-97.14a4,4,0,0,0,.4-3.16c12.67-4.84,17.77.85,19.64,13,2.31,15,3.89,30.19,10.35,44.22l-.33-.22a39.13,39.13,0,0,0-.05,5c1.38,12.75-1.66,31.1,5.43,36.77,8.22,6.58,25.36,2.2,38.63,2.25,19.33.08,19.33,0,10.41-19.88Q1713.84,2034.47,1703.87,1990.69ZM1657,1898.81c15.24-1.35,23.39,5.4,24.38,20.7l-.42,10.12a12,12,0,0,1,.77,2.36c0,.24-.68.58-1.06.88-6.49,11.06-26.65,18-36.85,13-4.73-2.31-3.72-6.32-3.75-9.93-.11-12.16.07-24.32.14-36.49C1645.77,1899.24,1651.39,1899.31,1657,1898.81Z"/><path class="cls-1" d="M2536.14,2067.4c-12.42,26.45-37.19,31.87-63.87,30.67-28.48-1.28-46.5-17.61-57.16-42.54-13.79-32.23-12.63-33.43,21.57-33.59,11.27,0,21.05-2.06,19.71,16.1-.95,12.71,11.28,17.7,24.15,14.25,15.4-4.14,11.83-15.61,9.76-25.45-1.19-5.63-6.12-10.48-9.37-15.68-16.7-14.29-33.86-28.09-49.94-43.05-10.78-10-17.63-22.82-18.07-38.18-5.08-26,.4-49.62,21.82-65.81,21.76-16.44,47.37-19.22,73.05-9.46,20.52,7.8,37.14,36.49,37.14,59.54,0,6.91-4.25,5.14-7.61,5.23-8.37.24-16.76-.1-25.12.15-8.74.26-14.89.63-16.19-12.11-1.47-14.4-13.89-15.85-27.36-4.67-4.44,18.54,3.36,32,16.93,43.94,15.93,14,31.13,28.73,46.65,43.14C2550.39,2014.86,2548.25,2041.62,2536.14,2067.4Z"/><path class="cls-1" d="M2127.67,2085c-5.85-24.44-11.37-49-17-73.45-1.07-4.72-2.7-8.46-8.54-8.42-13.51.11-27,0-40.54,0,11.16,12.57,10.93,26.86,14.74,39.46,1.16,3.82,3.28,8.4-3.48,10.77-28,9.79-55.55-9.45-55.95-39.42,7.1-16.54,19.14-23.65,37.62-25.5,24-2.42,45.39-12.1,53.79-38.19l-.15,0c7-3.69,6.13-11.09,8.14-17.13,7.92-42.7-18.82-80.33-59.91-84.3-40.46-3.91-74.89,24.81-76.63,63.91-2.21,16.07.78,31,10.29,44.3,2.8,3.92,4.11,7.84,2.11,12.45-23.07,23.52-26.21,51.45-14.86,80.59,11.57,29.69,34.91,46.2,66.92,47.91,24,1.28,48.19-.1,72.26.75C2127.89,2099.13,2130.05,2094.9,2127.67,2085Zm-94.15-101.54-1.31-.82,1.45.68Zm17.85-88.71c16.17,2.21,21.42,13.62,22.61,28.08-5.23,12.07-13.52,21-27.49,19.51-14.86-1.59-21.1-12.33-22.45-26.36C2029.48,1904.15,2035.28,1892.54,2051.37,1894.73Z"/><path class="cls-1" d="M1400.26,482.4q-131.88.24-263.74,0c-8.65,0-12.13,2.6-11.62,11.5.74,12.82.58,25.7.8,38.55V695.11c17.44-15.1,32.19-27.89,47-40.65,9.42-8.14,21.51-9,31.75-5.78,8.9,2.79,3.79,13.82,3.81,20.93.32,136.11.19,272.22.36,408.33,0,12.42-1.27,24.32-5,36.28-5.76,18.36-10.27,37.12-15.86,57.76,48.37-16.17,93.84-31.59,139.47-46.54,29.19-9.57,29.4-9.5,14-36.09-.77-1.32-2.36-2.16-3.57-3.23-5.8-17.29-4.31-35.19-4.33-52.94q-.18-196.23-.27-392.47c33-14,50.89,17.39,77.45,26.74V492.53C1412.56,483.6,1407.64,482.39,1400.26,482.4Zm-251.54,166c-6-3.28-3.46-8.33-3.49-12.17-.25-39.2.23-78.41-.41-117.61-.19-11.82,2.14-16.7,15.47-16.57q107.58,1,215.18,0c12.68-.09,17.74,3.56,14.78,16.18l-5.9.22a107.48,107.48,0,0,0-41.72.06l-160.35.19c-4.5-2-9-3.8-13,.87-2.52,22.37-1.6,44.77-.68,67.17l-.27,43.74Zm103.53,466.79q-2.52,8.34-5,16.69c-29.37,6.89-29.59,6.83-21.14-23.52,2.3-8.26,2.82-16.43,2.82-24.84q0-221,.12-442c7.81.11,16.08-4.2,23.2,2.45-.44,48.59-1.31,97.18-1.23,145.77.14,82.69.88,165.38,1.37,248.07C1250.11,1063.62,1250.81,1089.42,1252.25,1115.23Z"/><path class="cls-1" d="M1295.87,2095.25c-1.67,5.38-7.7,3-11.84,3-15.12.12-33.81,5.11-44.26-1.94-8.67-5.85-.07-25.92-.23-39.77-.69-58.79-.23-117.59-.24-176.38,0-5,1.34-10.93-.78-14.93-8.39-15.81-.71-17.3,12.57-16.29a257.37,257.37,0,0,0,31.91.07c13.18-.64,15.63,3.19,6.39,13.1l-.66,3.79q.07,107.43.14,214.85c.21,1.17.41,2.34.62,3.51C1292.7,2087.38,1297.21,2090.93,1295.87,2095.25Z"/><path class="cls-1" d="M2912.35,1364c-.23.4-.46.79-.71,1.16a4.13,4.13,0,0,0,.92-1.08Zm-43.52,10.32.12-.46-.22.26Z"/><path class="cls-1" d="M3125.31,2098.55c-36.42-.4-72.84-.17-105.59-.17.74-78,.29-155.4.39-232.76-4.93-3.91-3.37-10-7.85-16.48,39.94,0,77.13.11,114.31-.1,6.67,0,8.86,2.75,8.79,9-.16,15-.05,30-.05,46.86-21.7-9-43.23-4.19-64.41-5.49a176.54,176.54,0,0,0,0,46.89c15.46-.45,31.3,2.28,46.53-6.93v61.44c-12.51-4.8-24.88-5.35-37.41-5.29-7.9,0-10.24,2.87-10.73,10.74-2.61,42-2.84,42,39.74,42.36,3.92,0,7.83.34,11.75.51l6.19-2.21c2.74-2.88,5.45-5.45,7.69.43.2,13.44.08,26.9.7,40.32C3135.72,2095.24,3133.88,2098.65,3125.31,2098.55Z"/><path class="cls-1" d="M3841.55,1165.82q0-3.54-.08-7.09c.34-6.46,1.88-13-1.34-20.17-14.12,5.16-26.91,12.4-39.45,20.14-21.87-5.53-41-17.72-62-25.21-9.13-3.25-11.54-8.23-11.42-17.33.46-33.61,0-67.23.3-100.84.07-6.77-3.72-17.18,3.19-19.42,6-1.95,14.93,2.92,21.79,6.34,4.16,2.07,7.09,6.93,10.16,10.86,11.67,14.94,23.18,30,34.75,45,3.51,5.73,6.22,12.21,13.12,15.86V765.93c-7.73,6.28-13.6,11.06-19.46,15.81v.16l-.12-.06.12-.12-9.95,7c-13.48,12-28.48,13.84-45,7.06-2.4-1-5.4-.47-8.13-.66l-.63-114c10.13-.83,20.24,2.54,30,2,23.38-1.4,38.41,9.76,52.25,26.84,9,11.17,17.63,23.59,31.89,32.75V486c-1.13-1.06-2.25-3-3.38-3q-121.08-.36-242.17-.45c-8,0-7.48,4.59-6.2,10,16.85,60.25,13.3,122,13.31,183.45,0,159.8-.25,319.61.14,479.41.08,32.06.37,63.89-12.47,94-4.19,9.86.25,13.51,8.67,17.52q45.3,21.61,89.92,44.69c44.18,22.87,88.07,46.3,132.09,69.5,3.23,2.12,6.56,4.12,9.7,6.37,8.83,6.35,11.17,2.86,11.13-6.57Q3841.71,1273.35,3841.55,1165.82Zm-50.74-286.29-.47.23.47-.24Zm-63-63.37c2.23-.08,4.58-.7,6.66-.18,19.51,4.86,38.95,9.81,56.64-12.14v34.63l-57-9.74C3728.41,826.33,3726.68,822,3727.78,816.16Zm-43.64-297.59c-13.83-3-27.66-2.65-41.5-.09-8.19-.21-7.46,5.6-5.91,10.24,11.06,33.24,8.73,67.72,9.91,101.87q.06,25.26.11,50.5,0,97.56,0,195.14l-.06,67.3-.06,50.54q.09,58.8.19,117.59,0,32,0,64c-2.82,23.35,3,47.39-5.6,70.29-4.82,3.8-.82,17.66-15,11.27-11.3-5.09-16-10-10.31-22.36,3.22-6.93,4.18-14.91,6.16-22.42.25-5.59.72-11.18.72-16.77q0-245.48,0-490.95c0-50.42-.5-100.84-.76-151.26-2.59-12.58-4.85-25.24-7.88-37.71-2.13-8.76-1.49-13.66,9.61-13.6,62.27.34,124.54.16,186.81.28,4.65,0,10.65-1.61,11.21,6.33.65,9.05-5.83,7.59-11.26,8a43.69,43.69,0,0,0-6.45,1.52h-32.34c-1.59-1.7-3.16-1.68-4.71,0l-5.46.08a142.51,142.51,0,0,0-48.36.08Zm130.7,678c-28.35-14-57.27-26.73-86.84-37.95,0-2.07-.05-4.13-.07-6.2,20.36,4.61,38.15,15.56,57.23,23.33,7.48,3.06,14.31,5.35,22.36,1,4-2.17,10.75-10,13.35-2.25C3823,1180.78,3827.92,1192.46,3814.84,1196.62Z"/><path class="cls-1" d="M3791.08,781.74v.16l-.12-.06Z"/><path class="cls-1" d="M1168.82,1926.18c1.94-6.91.53-13.19-1.28-19.64l.21,0c-9.81-6.43-19.6-4.82-29.4,0l.1-.3q-1.76,2.09-3.52,4.16c-.11,1.89-.21,3.77-.32,5.66l-.18,23.54.06,53.9c.23,11.19.5,22.37.71,33.55.21,12.11,6.37,19.4,18.42,19.12,13.49-.32,20.08-10.17,16.8-21.68-5.38-18.91,5.64-16.74,17.12-16.68,30,.16,30.35,0,28.3,29.84-1.23,17.86-7.62,33.52-23.12,44.16l-.14.06c-1.7,4.37-5,6.54-9.58,6.91,0,0-.75,0-.75,0-19.91,13.58-43.47,13.31-64.84-.71h0l0,.11c-3.74-.51-6.36-2.33-7.25-6.18,0,0-.15-.08-.15-.1-17-10.52-22.3-27.67-22.71-45.66-1-41.81-.36-83.66-.24-125.49,0-7.81,1.09-15.53,6.54-21.82a5.65,5.65,0,0,1,1.13-3c2.87-8.8,8.66-15.24,16.31-20.18,28.67-23.16,60.37-21.85,86.71,3.58,18.66,16,17,39,20.87,60.11,1.24,6.68-3.7,7.08-8.45,7-9.51-.15-19-.4-28.54-.61l-6.58,0C1166.11,1937.09,1167.58,1930.64,1168.82,1926.18Z"/><path class="cls-1" d="M2868.83,1374.34l-.31-.11.21-.09Z"/><path class="cls-1" d="M2983.21,1235.16c-4.74,26.93-19.74,44.68-37.08,45-8.75,3.23-17,9.1-27.11,5.7-10.19.33-19.62,6.8-30.23,3.77l-60.33,9.7-17,1.07c-20.94,6.7-42.85,6.42-67.59,11.24,10.68-15.08,18.77-27.39,27.78-39,7.58-9.74,18.89-10.19,30-8.8,2.5.31.12,3.7-.08,5.67,1,.3,2,.64,3,1l6.86-3.78c6.15-11.12,17.71-6.73,26.83-9.35h0c19.35,9.32,34.62-14.11,53.94-6.4,1.94,6.15-4.17,11-3.62,17.05q6.71-7.53,13.4-15.09c12.69-10.86,29.87-12.2,40.71-3.17C2952.33,1233.86,2969.2,1240,2983.21,1235.16Z"/><path class="cls-1" d="M2912.58,1364a.68.68,0,0,1,0,.14l-.21-.08Z"/><path class="cls-1" d="M2405.25,1404.66c-.68.46-1.34.92-2,1.4h0C2403.91,1405.57,2404.57,1405.11,2405.25,1404.66Z"/><path class="cls-1" d="M2429.75,532.29c-.24-15.57,2.54-31.31-1.9-46.72-3.13-4.82-8.06-3-12.24-3q-124.4-.18-248.78.06c-3.76,0-9.2-3-11.38,3.37,16.66,37.81,18.23,77.56,17.66,118.21-1.16,82.39-.33,164.8-.38,247.21,0,44.49,4.86,89.65-17.36,131.22-5.51,7.07-.48,7,4.61,6.68,9.5-.5,19-1.47,28.51-1.53,44.33-.3,88.65-.37,133-.47,8.62,0,16.73-.07,5.51-10.44q-11.43-16.56-22.86-33.1c-3.84-5.53-7.45-10.84-7.41-18.24q.36-59.71,0-119.44c-.07-8.55,2.79-11.54,11.6-11.86,18.3-.67,35.5.82,51,12.23,7.91,5.84,17.12,9.91,26.88,15.43V638.35c-13.59,6.66-25.74,12.25-37.54,18.52a41.68,41.68,0,0,1-20.88,5.06c-37.94-.63-29.26,4.41-31.21-31-.8-14.5,4.42-17.32,17.95-17.43,36.52-.31,72.86-2.33,104.63,21,9.65,7.1,10.9,0,10.87-8C2429.85,595.08,2430.23,563.68,2429.75,532.29Zm-130.57,152.2c3.8-3.46,8.54-2.35,12.85-2.22,18.54.57,36.92.61,54.86-13v28.27h0l-53.82,1C2303.5,698.73,2296.27,696.59,2299.18,684.49Zm99-168.07c-53.84.08-107.67,0-161.51,0-6.06,0-12.35-1.44-18.18,1.57h0c-9.43-1.14-15.71-.14-9.95,11.91a73.21,73.21,0,0,1,7.12,35.41c-.69,16.1.11,32.26.27,48.4q0,85.72.08,171.46-.29,79.49-.52,159c0,7.83.16,15.6-3.61,22.79-2.24.14-4.48.38-6.72.39-22,.14-22.16.06-13.55-20.88,2.68-6.52,2.66-13.08,2.66-19.79q0-186.63.18-373.26c0-13.9-3.71-26.42-8.55-39-2.68-7-3.88-12.27,7.58-12.2,68.41.46,136.83.21,205.24.3,4.69,0,10.84-1.67,11.21,6.29C2410.31,517.89,2403.42,516.41,2398.16,516.42Z"/><path class="cls-1" d="M2690.72,1905.18c-15-8.09-29.85-6.64-44.61-6-.29,3.38-.57,6.75-.86,10.13q.15,85.76.28,171.52l1.2,6.71c6.52,6.81,7.67,11.14-4.35,10.81-12.87-.36-25.8-.8-38.61.1-14.56,1-13.2-5-7.46-14,.18-2.22.35-4.45.52-6.67l-.6-178.55c-15.44.28-31.33-3.72-47.92,7.35,0-18.21.1-34,0-49.82-.07-7.42,4.67-7.53,10.09-7.53,40.77.07,81.54.12,122.31-.06,6.73,0,10.4,1.49,10.18,9.26C2690.41,1873.4,2690.72,1888.42,2690.72,1905.18Z"/><path class="cls-1" d="M717,1394.38h.16a.66.66,0,0,0,0,.14Z"/><path class="cls-1" d="M1117.41,2088h0Z"/><path class="cls-1" d="M3267.36,2022.63c-4.75-16.84-12.39-33.87,10.1-44.44,1.17-.54,1.51-2.85,2.23-4.34,14.31-28,14.18-56.58,3.53-85.6-8.68-22.23-26.94-32.21-48.73-36.28-30.37-5.66-61.07-1.49-89.33-2.75v248.42H3202c-9-30.4-3.16-60.72-4.73-90.66-.25-4.72-1.32-10.39,6.38-11.29,7.93-.92,9.28,4.31,10.45,10,3.67,18.09,5.86,36.65,11.47,54.11,4.08,12.75-4.93,31.42,8.51,37.36,12.22,5.39,28.69.81,43.26,1.33,9.48.34,9.58-3.31,7.34-11.05C3278.44,2066,3273.42,2044.16,3267.36,2022.63Zm-56.52-76c-23.5,1.31-10.65-16.19-14.46-24.34,1.68-10.72-5.94-25.4,15.18-23.9,20.54,1.45,24.62,4.25,24.66,24.54C3236.26,1942.31,3231.89,1945.42,3210.84,1946.6Z"/><path class="cls-1" d="M3552.41,943c-37.82-13-76.76-21.62-116.89-32.4.73,4.55,1.07,6.62,1.4,8.7,4.35,27.51,13,54.47,10.31,82.88-.44,4.54-.34,10-5.15,11.24-5.49,1.44-9.6-2.9-11.69-7.6-4.14-9.27-5.7-19.14-5.69-29.37.09-95.17-.06-190.35.24-285.53,0-10.48-2.56-28.39,9.8-27.81,13.05.61,11.7,18.69,12.22,30.73.09,2.17-1,4.35-1.3,6.56-2,15-3.53,30-6.06,44.83-1.3,7.64.28,11.83,8.41,12.83,28.81,3.54,57.61,7.23,86.42,10.86,7.74,5.22,17.12,2.64,25.49,5.38,11.47,3.74,15.12-1.51,12.11-12.5-.93-27.16-6.32-53.85-7.2-81.15-1.74-53.77-12.31-105.77-43.53-151.26-39.74-57.88-111.34-64.62-160.79-14.87-43.72,44-59.28,99.43-60,159.39-1.06,91.94-.79,183.91-.46,275.86.18,51.6,10.5,101.25,33.28,147.85,18.88,38.62,44.33,71.27,84.35,90.34,46.49,22.16,89,10.52,116.34-33.35,21.58-34.61,29.71-73.29,30.83-113.67,2.59-23.79-.93-47.91,5.49-71.61C3576.36,947.2,3575.22,946.61,3552.41,943ZM3485,741.63c-24.39-.78-24.69-.83-20.76-24.33,3.36-20.07,4.1-39.87-2.64-59.42,4.79-.94,9.12.29,13.24,2.68C3495.59,685.4,3489.76,713.58,3485,741.63ZM3344.25,987.18c1.53,34,8.62,66.68,22.77,97.73a179.29,179.29,0,0,0,36.84,64.06,4.55,4.55,0,0,1,.44,3.09,9.13,9.13,0,0,1,6.44,6.81c-3.84-.68-8.25-.81-6.69-6.7-15.62-3.19-22.48-16.74-30.63-27.71-35.05-47.18-49-101.69-53-159.35-.35-5-.55-10-.82-15q.45-147.93.91-295.86c4-21.81,7.45-43.72,15.63-64.58,10.77-27.48,25.59-51.95,49.34-70.26,32.47-25,71.25-23.9,102.54,3-3.87-.06-8.15.92-11.57-.36-24.46-9.16-46.42-3-66.06,11.77-26.9,20.23-44,47.64-54.09,79.59a144.32,144.32,0,0,0-10.91,54.45c-.26,2.09-.51,4.18-.77,6.26-.15,1.29-.3,2.58-.44,3.87Q3344.2,832.6,3344.25,987.18Zm204.59-15.85c-17.75-4.71-35.53-9.29-53.23-14.17-8.82-2.44-13-.74-9.85,9.26,6.21,19.67,4.1,39.79,2.82,59.78-1.59,25-13.65,31.77-37.27,21.79-3.66-1.55-6.58-6.74-11.75-3.45l-.11,0c3-5.37-5-5.72-4.52-9.94,25.46,1.81,26.93.38,30.88-24.78,3.06-19.5,3.24-38.86-2.31-57.81-2.94-10.06-1-13.91,9.61-11,23.59,6.44,47.09,13.23,70.76,19.35C3551.11,962.17,3551.06,965.91,3548.84,971.33Z"/><path class="cls-1" d="M2889.19,2056c-.17,42.2.37,42.21-41.9,42.22-21.61,0-43.21,0-64.93,0-1.17-6.47,2.44-10.07,5.18-14q.21-45.54.41-91.08c-3.46-47,3.92-94.55-5-143.84,16.72,0,34.77,0,52.81,0,3.68,0,6.38.83,5.11,5.85-8.25,32.5-1.82,65.58-3.76,98.34-.39,6.64-.9,13.28-1.35,19.91,1.13,21.91,1.71,43.81-.12,65.72,0,1.38.07,2.75.11,4.13l2.28,5.4,37.35-.65C2884.86,2042.26,2889.24,2042.3,2889.19,2056Z"/><path class="cls-1" d="M2953.08,1357.93c0,.87,0,1.73,0,2.59,0,8.67-7.06,2.73-10.23,4.86-9.21,2.63-18.48,6-26.78-2.26l-3.53.84c.58-2.77-1.62-3.24-3.47-4-.54,1.29-1.89,3.25-1.48,3.75,1,1.22,2.48,2.72,4,1.48-7.94,12.35-21.26,7.77-32.61,9.36-3.34.47-6.53-4.67-10.08-.66,2-8.3-4.52-8.19-9.75-9.38,2.13,4.2,4.57,8.1,9.32,9.73-17.41,7.3-34.7,13.19-50.22-4-6.27,5.11,7.85,10,.91,13.39-7.24,3.49-17.4,7.73-23.95,3-14.65-10.54-31.64-18.1-43.65-32.21l70-10,15.65-2h0c28.59-3.15,56.37-11.54,85.25-12.7,4.22-2.52,8.78-2.87,13.52-2.14,12.14-2,24.06-6.71,36.69-3.23l34.38,30.37C2986.1,1362.19,2969.7,1362.35,2953.08,1357.93Z"/><path class="cls-1" d="M1449.61,1916.15c1-2.65.86-5.05-1.53-6.94.87-6.08-1.76-11.23-4.29-16.42-10.46-23.2-28.85-36.31-53.25-41.68-18.85-4.14-38-1.25-57-1.86-9.44-.31-21.2-2.69-27.74,1.85-6.39,4.45,1.14,15.91,1.06,24.59-.6,65.51-.36,131-.48,196.56,0,5,.54,10.6-1.42,14.89-4.72,10.28.4,11.41,8.6,11.34,23-.19,46-.06,68.92-.32a49.25,49.25,0,0,0,29.62-9.9c20.11-9.55,31.84-25.44,35.86-47.19a11.12,11.12,0,0,0,1.87-10.63C1451.1,1992.34,1451.34,1954.24,1449.61,1916.15Zm-86.71-16.69c13.31-2.66,27.1-1.72,34.48,13.27q-.09,56.07-.15,112.15c0,11.75-3.49,20.7-16.29,23.73-19.35,4.58-23.58,1.29-23.67-18.68q-.23-55.23-.63-110.45C1359.74,1913,1352,1901.63,1362.9,1899.46Z"/><path class="cls-1" d="M1117.41,2088h0v.1l0-.11Z"/><path class="cls-1" d="M3005.4,2060.39c-.39,38.11-.13,38.1-38.47,38-21.84-.06-43.67-.06-65.51-.14a17.34,17.34,0,0,1-3.47-.74c-1.62-6.69,5-10.83,5.39-16.86q-.35-99.11-.64-198.23c0-10.6.81-21.26-8.18-32.6,22.43,0,42.1,0,61.76,0,.28,0,.8.61.78.91a5,5,0,0,1-.62,1.54c-4.63,11.06-4.2,22.69-4.22,34.34q-.1,70.36-.46,140.73,0,6.52,0,13c.65,4.78,2.1,8.65,8.14,8.36,10-.48,21,1.71,29.93-1.68C3006,2041,3005.53,2048.77,3005.4,2060.39Z"/><path class="cls-1" d="M3791.08,781.72v.18l-.12-.06Z"/><path class="cls-1" d="M1101.37,526.3v.23l-.23.14a1.76,1.76,0,0,1,0-.23Z"/><path class="cls-1" d="M1101.37,526.3v.23l-.23.14a1.76,1.76,0,0,1,0-.23Z"/><path class="cls-1" d="M2966.68,1304c-.59-12.59-3.93-18.75-19.11-14.54-16.7,4.64-34.4,5.69-51.66,8.3l-27.43,4.17c-2.53-1-4.85-1.15-6.36,1.69l-6.67.64-3.78,0c-4.61-.12-9.52-1.68-13.18,2.73l-6.78.67c-8.27-2.28-15.48,3.37-23.47,3.16-14.46,3.45-30,.13-43.91,7-9.72-2-18,2.3-26.47,6-1.78-2.94-3.49-6-7.26-6.78-3.74-4.62-8.54-3.32-13.29-2.39-2.92-.93-5.09.38-7,2.36-6.9.25-7.65,8.43-13.3,10.3L2626.5,1338l-44.1,6.71-64,9.52-63.43,7.38c3.92-15.09,1.85-30.36-1.24-45-8.4-39.69-18.82-78.91-56.81-102.19-24.78-15.18-52.65-16.78-80.77-16.59-10.54.08-23.45,7.16-30.93.53-9.49-8.41,2.56-20.38,2.62-31.14,0-3.93,1.86-7.86-2.75-10.2-5.78-2.93-6.76,2.7-8.28,5.58-4.15,7.87-9.76,15.68-9.72,24.76.06,14.28-8,15-18.65,13.22a204.72,204.72,0,0,0-60.27-1c-34.95,4.46-63.66,18.94-80.71,52.08-27.33,53.12-32.27,107.38-10.49,163.5l-103.7,17-43.91,6.5-5.58,1.6-7.88,1.1c-21.92.27-42.92,6.78-64.47,9.54-1.36-1.38-2.22-.67-2.91.7l-6.41.63-37.84,5.54c-1.3-1.48-2-.56-2.6.66l-6.64.56-30.76,4.08c-3.62-.95-7-1-9.76,2.15l-.11,0c-16-1.32-31.4,5.89-47.5,3.78-4.68-4.9-10.49-5-16.6-3.93-4-.94-7.48-.07-10.25,3.1l-5.78-.42c2.17-18.51,9.4-36.3,9.86-57.28l-41.32,33.83-29.89,20.83L1596.18,1486c-7.73,1.41-11.42,11.13-20.43,9.89l-35.56,15,1,3.39,37.75,4.33,37,6.49,17,3.28,8.26,1.39,5,1.83c9,2.82,17.55,7,27.18,7.25l50.21,20.74a11.68,11.68,0,0,1,1.79-1.65q-10.8-24.5-21.59-49l13.31-.34c8.68-.27,12.66-7,17.37-12.69,15.72-1,31.41-2.22,46.51-7.24a193.79,193.79,0,0,0,47.26-7.13c4.18.52,8.26.4,11.93-2.08,3,2.11,5.66,1.54,8.16-.86,11.63,1.14,22.6-2.81,33.87-4.44l7.09-1.5c1.37,1.35,2.33.66,3.18-.63,15.48-3.24,31.67-1.67,46.87-6.83l10.16-.77c3.07.61,6,.46,8.29-2,16.51-.91,33-2.13,48.83-7.33l16.84-1.63,3-1,84.3-10.89c10.69,20.31,21.25,40.64,30.11,61.88,11.72,28.12,26.52,54.12,51.88,72.89,17.79,13.17,35.79,15.21,54.57,3.69,15-9.22,28.84-8.76,44.09.06,18.6,10.76,37.2,9.47,55-3.72,18.87-14,33.59-31.58,42.7-52.84,16.11-37.57,35.28-73.62,52.84-110.46a34.68,34.68,0,0,0,6.32-21.09l54-10.35c24.58-2.52,49.16-5,73.23-10.9l7-.53c4.88.92,9.49.34,13.67-2.53,8,.59,15.81,0,23.15-3.61l6.89-.42,3.26-.34,7.36-1.6,3.38-.58c20.32.31,39.82-5.85,59.88-7.56l9.82,4.19c1.59,3.32,4.35,3.11,7.27,2.41,4.32,1.78,6.82-2.06,10.17-3.28,4.09,1.43,7.08-1.24,10.39-2.76l2.91-3.46h0q.43-3.1.86-6.21c8.84-1.37,18.34,2.85,26.64-3.14,18.27-.39,36.39-2,54.12-6.81l11.54-1.5c17.8-2.65,35.93-3.17,53.36-8.25,9.57-1.14,19.57.53,28.58-4.34,17.85-1.42,35.82-2.09,52.87-8.51C2968,1309.32,2966.8,1306.7,2966.68,1304Zm-613.47,187.79a9.26,9.26,0,0,0-.07-2.08h0A9.32,9.32,0,0,1,2353.21,1491.82Zm50.05-85.76c-13.63,29.72-28,59-50.11,83.66-2.62.52-3.16,2.42-3.12,4.71l-2.33,3.25c-4.65,7.25-8.35,15.44-17.76,18l-.82,1.34.72-1.44c1-7.48,2.13-14.87,9.54-19.14,7.88-23.07,21.52-44.1,24.2-69h0c0-6.27,2.57-12.82-2.08-18.58q-.4-7.55-.82-15.09c-8.18-15.89,0-27.72,9.74-39.16,6.63-12.94,13.92-25.52,18.12-39.63,10.46-35.14-3.55-63.12-39.38-77.52-6.21-2.49-12.68-4.32-19-6.46-11.31.7-21.61-3.71-32.27-7,11.3.36,22.79-4.66,33.84,2,51.2,1,75.7,38,81.78,91.78a182.21,182.21,0,0,1-.6,45c-.71,5.18-2.44,9.14-8.12,7.93-6.4-1.36-2.28-6.61-1.82-9.48,1.62-10.08.31-19.89-1-33.28-7.66,14.24-11.52,28.23-25.77,33.26-9.55,8.73-12.54,20-12.72,32.44,2.17,10,12.44,15.48,13.77,26.37,1,8,6.38,4.1,9.25.8,5.36-6.15,6.55-14,7.26-21.89,6.42-2,10.62-1,9.52,7.1.65-.48,1.31-.94,2-1.39C2404.57,1405.12,2403.91,1405.58,2403.26,1406.06Zm88.4-34.69-54,7.6-57.43,9.6c-6.58-9.31,2.14-9.57,7.06-11.11,12.69-4,26-3.27,39.08-4.07l92.12-11.43,19.94-1.17.36,2.43Z"/><path class="cls-1" d="M961.07,511.77c0,.17-.67.57-1,.87a4.1,4.1,0,0,1,0-3A12.79,12.79,0,0,1,961.07,511.77Z"/><path class="cls-1" d="M1860.1,2097.43h-61.3c1.54-44,8.89-87.57-4.17-130.85q-15.09-33.57-30.17-67.14c-7.43-16.57-11.65-34.74-28.53-49.45h70.75c-7.75,25.78,12,43,18.2,65,7.27-19.36,21.3-36.08,17.6-58.14-.86-5.16.53-7.51,5.63-7.52,21,0,42,0,64.93,0-25.15,35.14-32.75,75.64-53.44,109.9-1.6,12.84-11.59,23.38-10.17,37.06a18.72,18.72,0,0,1,1.09,2.92c.07.37-.53.89-.83,1.34q.42,31,.84,62C1850.7,2074.15,1848.6,2086.19,1860.1,2097.43Z"/><path class="cls-1" d="M733.58,543.11l-.78-3.35C735.2,540.38,736.59,541.23,733.58,543.11Z"/><path class="cls-1" d="M1726.39,1561.52l-2.75-1.92a11.68,11.68,0,0,1,1.79-1.65Z"/><path class="cls-1" d="M2345.37,2097c8.58-35.69,2.42-72.33,4.3-108.65.72-13.91.64-27.86.92-41.79l-.27-10.29q0-25.18.07-50.39c-.85-12-.25-24.19-7-36.69,19,0,36.17,0,53.36,0,5.21,0,9.79,1.2,6.58,7.42-5.46,10.57-1.93,21.88-3.89,32.66l.21,40.4c0,1.13-.11,2.26-.16,3.39q-.12,21.89-.23,43.75.2,25.17.4,50.34l.06,6.71q-.23,3.4-.43,6.82h0l.42,36.86v3.6L2408,2097Z"/><path class="cls-1" d="M717,1394.38l-.33,1.35.48-1.21Z"/><path class="cls-1" d="M2836.58,2042c.07.37-.55.85-.85,1.28,0-1.38-.08-2.75-.11-4.13A17.37,17.37,0,0,1,2836.58,2042Z"/><path class="cls-1" d="M730.49,1327.16a5.64,5.64,0,0,1-.67,2.48C729.11,1328.66,729.33,1327.84,730.49,1327.16Z"/><path class="cls-1" d="M727,516.4l-1-2.93A4.4,4.4,0,0,1,727,516.4Z"/><path class="cls-1" d="M3274.7,1106.4c-14.7-26.57-20-54.38-19.73-85.1,1.24-137.37.87-274.75.41-412.13-.14-39.82-1.66-79.51,16.48-116.61,2.78-5.87,4.18-10.25-5.5-10.2-50.92.26-101.84.12-152.87.12-.73,7.86,3.07,13.66,5.12,19.91,3.14,10.54,5.88,21.23,11.72,30.74q.69,67.13,1.36,134.24c-.86.53-1.79,1.56-2.56,1.46s-1.69-1.22-2.06-2.1c-15-35.27-30.32-70.38-44.46-106-3.63-9.12-2.38-19.61,1.86-29.24,2.65-6,4.41-12.46,6.57-18.71a2.84,2.84,0,0,0,.74-2.89h-.43c7.13-7.45,9.38-16.86,11.85-27.42-49.65,0-98.19,0-146.73,0-20.1,0-20.1.1-10.67,18.45,1.73,15.58,11.69,28.7,11.64,45.15q-.6,223.7-.26,447.39c0,8.3-.74,16.31-7.9,23.37-7.82-12.61-15-24.73-17.93-38.35-9.77-44.71-19.35-89.53-27.71-134.46-12.57-67.66-27.39-134.86-39.78-202.52-9.41-51.37-31-101.93-13.32-155.68-1.08-1.06-2.16-3.05-3.25-3.06-47.66-.21-95.31-.2-143-.35-7.64,0-8,4.17-6.56,9.89,1,18.75,8.74,36.45,4.32,56.26-27.18,121.71-53.37,243.66-80,365.5-4,18.44-6.57,37.62-22.17,52-9.95-10.42-15.51-21.73-15.45-37.07q.76-171.57.18-343.17c-.09-31.32-2-62.7,17.33-90.16,6.87-9.06,7.88-14.42-6.77-13.41-13.39.93-26.9.15-40.35.15H2437l10.52,21.31a2,2,0,0,0,.52,2.28q1.42,2.28,2.83,4.56c2,12.53,7.78,23.89,7.71,37.35q-.93,169.05-.26,338.12c.09,32.51,1.93,65-16.91,94.1-4.83,7.46-1.68,10.37,7,10.71,94.67,3.65,188.92,12.65,282.92,24.15,13.3,1.63,14.73-2.63,11.21-13-9.8-28.72-6.51-57.13,1.21-85.61,1.45-5.34,2.23-9.83,9.28-8.87,12.15,1.65,24.29,3.6,36.5,4.48,8.21.59,10.88,3.94,12.46,12,5.78,29.65,13.11,59,3,89.18-2.9,8.61,0,12.83,10,14.32,149.68,22.34,296.4,57.35,440.6,103.15,10.77,3.42,21.34,8.48,35.08,8.9C3284.78,1127.42,3280.33,1116.58,3274.7,1106.4Zm-780-133c-26.57-1.86-26.57-1.86-17.48-26.87h0c2.17-124.32,1-248.64.57-373,.78-23.26,4.76-46.89-10.75-69.92H2574c1.4,18.63-14.8,10-22.41,14.62h0l-15.94,0a76.71,76.71,0,0,0-34.34,0c-6.15-.4-12.53-.72-7.07,8.37,7.87,13.09,7.77,27.44,7.52,42-.18,10.57.28,21.16.45,31.73l0,87.5q0,45.32,0,90.63l-.09,44.07v74c-3.26,25.65,4.69,52.16-5.94,77.25A13,13,0,0,0,2494.65,973.41Zm251.11-437.5c5.38,15.25-1.29,29.65-4.62,44.21q-2.26,13.39-4.54,26.78a.9.9,0,0,0-.56,1.43q-19.56,87.84-39.17,175.68c-1.81,8.08-4.73,15.92-3.94,24.4l.11,0c.63,2.82.21,5.31-2.26,7.15-1.2,6.77-5.06,13-3.8,20.27,1.9,12.08-9.88,21.25-7.15,33.51-2.16,8-4,16.15-6.53,24.08-9.52,30.09-7.94,63.42-26.59,90.84-1.12,0-2.24.12-3.36.08-27.43-1-27.15-.8-13.63-24.86,10.34-18.39,11.46-39.61,15.92-59.62,25.9-116.09,50.67-232.43,76.3-348.58,2.86-12.94,3.47-25.15-.44-37.72-2.95-9.47,2-11.45,10.39-11.35,28,.31,56,0,84,.28,3.6,0,9.55-2.61,9.54,5.21,0,7.49-4.07,9-10.72,9.11-17.85.39-35.78-2-53.56,1.31C2746.22,515.56,2740.22,520.2,2745.76,535.91Zm59.66,284c-8.83-3.63-18-5.55-27.49-4.46-8.77,1-6.3-5.33-6.7-9.85l3.89-6.52c21.08,3.07,20.94,3.1,16.9-17-2.69-13.38-4.9-26.87-7.33-40.31,2.88-10.33,5.77-20.66,9.72-34.84,6.5,27.5,12.14,51.33,17.77,75.17l2,6.92c-.18,7,.81,13.74,4.29,20C2819.34,818.85,2816.68,824.58,2805.42,819.94Zm46.27,190.74c-5.53-.14-11.07-.07-16.58-.46-4.91-.35-9.14-2.09-7.32-8.26,8.63-29.2-3.49-56.81-6.29-85.14-.32-3.24.31-6.57.5-9.86-.14-.33-.28-.65-.43-1,.15.31.3.63.44,1,13-.65,19.83,3.79,20.77,18.45.91,14,5.56,27.77,8.56,41.65C2851.66,981.6,2857.3,996.09,2851.69,1010.68Zm205.94-492.39-44.66.12c-3.46-2.06-6.89-2.17-10.29.13-4.67.22-14.54-2.59-10.27,6,12.24,24.55,6.06,50.51,8.88,75.69q0,33.75,0,67.49l.15,43.07q-.11,64.28-.23,128.55.06,38.71.13,77.43l-.48,90.65a15.52,15.52,0,0,1,1.06,2.54c.06.24-.69.67-1.06,1-.11,9.64-.69,19.15-7.67,26.83-3.37,0-6.74.09-10.09-.18-12.06-1-19.08-4.8-10.93-18.24,4.77-7.86,5.4-16.77,5.39-25.92q-.21-211.74-.06-423.46c0-20,3.08-40.18-7.65-58.88-4.75-8.28,1.19-8.86,7.56-8.83,26.34.13,52.69-.18,79,.31,5.4.1,14.37-4,15.81,3.52C3073.94,515.18,3064.74,516.73,3057.63,518.29Zm56.73,562.28c-14.1-30.74-36.41-56.29-33.68-93.22,2.55-34.46.54-69.26.54-103.9l3.83-.75c15,38.51,32,76.39,44.19,115.76C3137.72,1025.84,3130.19,1053.62,3114.36,1080.57Zm58.45-15.72h0l-7.65,16.93c-4.88-1.13-9.71-2.63-14.65-3.32-9.35-1.3-10.84-6-7.24-14,14.11-31.63,10.83-62.84-2.05-94.05-18.1-43.89-35.34-88.14-53.77-131.88-5.12-12.15-1.09-24.41-3.84-36.33l.21-7.5,3.45,1,8.68,20.34,2.31,6.4L3114.19,858c.41,1.62.81,3.24,1.22,4.86q19.85,48.76,39.7,97.55,8.61,23.63,17.24,47.26l1.86,5Q3173.5,1038.76,3172.81,1064.85Zm60.07-547.72c-1.55-.1-3.16.92-4.74,1.42l-53.71-.15h0c-3.16-1.63-6.26-2.67-8.94.84,12.63,37.46,4.79,76.51,9,114.63,0,1.89.09,3.79.13,5.68-2.88,13.46-2.37,27-.45,40.48a64.21,64.21,0,0,0,0,24.48c-2.1,10.65-2.46,21.29.22,31.9,0,1.32,0,2.62.07,3.93-3.1,6.36-.81,13.23-1.89,19.74-1.53,9.33,4.7,19.75-3.88,28.08l-9.39-21.93c-1.16-6.57-3.12-12.81-7.55-18l.27-.11c-.2-16.21-.48-32.43-.59-48.64q-.58-83-1.09-166c-10.23-31.07-10.23-31.08,22.66-31.12,19.5,0,39-.25,58.48.23,4.66.11,12.5-4,13.48,4.59C3245.8,514.83,3240.18,517.58,3232.88,517.13Z"/><path class="cls-1" d="M2353.21,1491.82a9.26,9.26,0,0,0-.07-2.08h0A9.32,9.32,0,0,1,2353.21,1491.82Z"/><path class="cls-1" d="M2329.94,1515.68l-.82,1.34.72-1.44Z"/><path class="cls-1" d="M1017,973.45v3.68C1016.94,975.85,1016.94,974.63,1017,973.45Z"/><path class="cls-1" d="M1017,973.45v3.68C1016.94,975.85,1016.94,974.63,1017,973.45Z"/><path class="cls-1" d="M839.72,518.54l-.39-.07h0Z"/><path class="cls-1" d="M1108.9,1185.58c-.91-2.59-.55-5.94-4.12-7l.46-.27c-10.14-23.4-7.69-48.15-7.7-72.61q-.07-283-.07-565.95a1.42,1.42,0,0,0,.38-2.07c3.16-3.12,3.54-7.09,3.52-11.19l-.23.14a1.76,1.76,0,0,1,0-.23l.23-.14v.23c2.65-1.63,2.79-4.28,2.69-7l.08-.3c5.42-11.4,10.2-23,12.48-36.71H973.2c-19.83,0-19.83,0-14.52,20.67q.68,3.21,1.33,6.42a12.79,12.79,0,0,1,1.06,2.17c0,.17-.67.57-1,.87,7,18.8,5.06,36.79-4.37,54.37-2.88,5.38-4.64,11.36-6.8,17.11-11.08,29.57-22.12,59.15-34.34,91.83-12.94-34.65-23.16-66.62-36.77-97.08-11.53-25.79-12.34-50.54-3.23-76.46-1.39-6.66,13.25-19.05-4.54-19.5-47.1-1.19-94.25-.24-141.38-.51-8.25,0-9.61,3.34-7.54,10.13-1,5,1.36,9.13,3.14,13.44l1.8,7.5a4.4,4.4,0,0,1,1,2.93,4.48,4.48,0,0,0,.45,3.21l2.39,5.3-.39,1.13c.36,4.36.1,8.92,3.77,12.26l-.7.59.3.87c2.4.62,3.79,1.47.78,3.35l.66,3.45q-.07,346-.22,692c0,29.57,2.1,59.26-3.53,88.62a5.64,5.64,0,0,1-.67,2.48c-.66,2.59-1.33,5.2-2,7.8-4.57,18.79-10,37.43-10.71,56.94,11.33.23,18.84-7.62,27.47-13.09,41.4-22.24,82.66-44.73,124.3-66.51,8.45-4.42,5.42-9.28,3.62-15.09-6.25-20.2-14-39.64-13.87-61.77.78-96.39.32-192.8.31-289.2V930.36l3.33-.17c18,46.74,36.06,93.48,55.76,144.53l52-162.65c2.84,2.83,3.22,4.94,3.22,7q.09,131.16,0,262.3c0,6-1.49,12.17-3,18.1-5.72,23.16-11.71,46.25-18.61,73.33l122.27-54.5,6.61-2.78,3.77-2.21c5.39-.42,10.23-2,13.76-6.45l.48.14c6.33-3.16,21.17,1.25,13.1-14.72ZM839.34,518.46l.38.08-.39-.07h0c-20.09,0-40.18.37-60.25-.11-10.13-.24-13,3.15-10.08,12.9,4.1,13.86,8.38,27.73,9.25,42.32l-.06,107.53q0,26.92.05,53.85v80.77q0,23.56,0,47.11,0,89.13,0,178.27l-.06,67.3q0,42.06,0,84.13v80.76c-1.59,22.42,1.3,45.12-4.22,67.3-4.56,6.75-12.3,8.9-18.69,13.05-11,7.17-11.32.42-10.7-7.87,3.86-5.62,4.33-12.16,5.06-18.62q.63-7.45,1.25-14.9c5.52-5.63,3.27-12.74,3.27-19.2q.18-351.52,0-703c0-5.79,2.63-12.43-3.15-17.32-3.66-11.05,8.14-22,.16-33.08l-1-6.52-3.33-13.49q-1.54-6.76-3.11-13.53c1-3.86,4.51-3.52,7.32-4.37,30.14.3,60.29.84,90.43.75,7.86,0,13.3.6,11.09,10.4C849.84,518.72,843.51,516.06,839.34,518.46ZM915,1011.59c-13.6-35.84-25.54-70.24-39.7-103.7C863.94,881,859,853.8,861.79,825l6.48,11.52c15.83,51.09,35.82,100.66,54.86,150.59C922.37,994.74,921.37,1002.34,915,1011.59Zm98.49,207.88c-7.18,9.67-18.67,11.35-28.93,16.39-.5-2.38-1.54-4.2-1.07-5.48,13.4-36.73,10-75,10.07-112.84q.12-123.42-.08-246.86c0-7.27.07-14.46,2.54-21.4q9.12-21.82,18.3-43.62c0-.09,1.22,0,1.38.3a23,23,0,0,1,1.23,3q0,82.23,0,164.45v3.68l.21,188.29C1014.73,1183.35,1018.59,1201.72,1013.5,1219.47Zm70.77-702.93c-3.62-.13-7.34-.9-10.56,1.61l-53.34,0a8.69,8.69,0,0,0-10.45-.19c-8.64.64-8.1,7.09-6,12,8.08,18.7,3.76,36.19-3.68,53.63-6.5,15.42-14.56,30.23-18,46.83-9.17,22.46-17.47,45-23.75,68.68-4.53,17-13.75,33.31-20.13,51.46-8.5-7.37-9.42-17.19-12.8-25.74-2.18-8.93-.47-17.2,2.74-25.78,16.45-44,31.64-88.51,49-132.16,6.72-16.87,10.88-32.59,4.21-49.93-4.17-10.85-.95-15,11.08-14.77q42.06.94,84.15,0C1090.93,501.85,1090.49,507.21,1084.27,516.54Z"/><path class="cls-1" d="M3790.81,879.52h0l-.47.23Z"/><path class="cls-1" d="M3790.81,879.52h0l-.47.23Z"/><path class="cls-1" d="M3404.09,1152l.21.07,0,.16Z"/><path class="cls-1" d="M2145.51,974.15c-.71-40.9-.3-81.81-.29-122.71,0-18.91-1.64-20.77-16.53-9.94-26.26,19.11-56.22,19.48-86.3,21.19-8,.46-12.59-1.3-12.17-10.84.64-14.54.17-29.13.19-43.7,0-4.6-.07-9.48,6.49-9.37,14.3.22,28.84-3.58,42.31,5.94,8.54,6,18.8,9.63,28.29,14.32,4.53,4.59,6.81,3,6.82-2.78.09-56.52.21-113,0-169.56,0-11.81-5.64-5.73-10-2.47-7.49,3.68-15.58,6.49-22.33,11.21-12.79,8.95-27,9.92-41.63,9.51-3.78-.1-9.15.81-9.37-4.38-.6-14-.56-28,0-41.9.22-5.51,5.74-4.33,9.38-4.34,30.52-.06,61.9-4.27,88.07,17.61,1.67,1.4,4,2,5.91,3.13,8,4.88,11,2.31,10.95-6.58-.39-45.32-.6-90.64-.88-136,1.68-7-.54-10.17-8.34-10.15q-119.25.27-238.5.16c-4.41,0-9.63-.63-8,6.71,14.26,33.57,17.19,68.55,16.75,104.83-1.18,96.36-.47,192.75-.36,289.13,0,39,4,78.65-18,114.2a13.33,13.33,0,0,0-.62,1.56c-3.09,6.81-.43,9.19,6.46,8.59,4.46-.39,9-.27,13.41-.75,74.08-8,148.33-13.85,222.81-15.85C2143.05,990.62,2145.72,986.14,2145.51,974.15ZM1952.36,518.21c-12.26-2.1-15.12,2.12-9.91,13.46,6.16,13.41,6.69,27.79,6.65,42.45-.18,53.59.35,107.17.6,160.75q.08,80.71.13,161.44,0,26.91,0,53.82-.37,15.14-.76,30.27c-9.76,5.35-20.79,2.07-30.52,5.17,16-73.13,5.61-146.71,7.4-219.8,1.8-73.9.23-147.87.56-221.81,0-11.2-5.3-20.48-8.21-30.57-2.33-8.06-1.6-11.17,7.49-11.14,62.78.2,125.55.31,188.32,0,11.2-.06,11.6,5.76,10.38,13.86-38.53.09-77-.16-115.56.42C1990.05,516.78,1971.09,514,1952.36,518.21Zm78.56,166.49c21.44.7,43.1,2.72,63.08-13.9-.12,12.28,3.54,21.49-2.78,30-14.51.3-29.12-.34-43.5,1.16C2033.5,703.47,2027.9,698.84,2030.92,684.7Zm93.91,189.37c-.19,7.2-.34,14.41-.5,21.61l-93.74,3.52q.17-8,.34-16l9.61-1.49c25-4,52.18,5.27,75.12-11.92C2119.31,870,2125.05,865.55,2124.83,874.07Z"/><path class="cls-1" d="M1681.69,1932c0,.24-.68.58-1.06.88a3.46,3.46,0,0,1,.29-3.24A12,12,0,0,1,1681.69,1932Z"/><path class="cls-1" d="M1487.79,938c-44.52,13.11-67.41,78.27-41,116.57,13.08,18.94,33.27,26.58,55.66,21.08,35.11-8.63,58.52-41.72,58.15-82.21C1560.26,952.67,1526.17,926.73,1487.79,938Zm-5,113c-8.56,8.88-13.6-.19-16.93-4.86-12.25-17.12-12.84-36.24-5.25-55.38,7.41-18.67,20.2-32.16,41.09-34.72,12.62-1.55,24.49.81,30.15,14.69-41.54,6.14-61.05,38.06-49.06,80.26a3,3,0,0,1,.25.25Z"/><path class="cls-1" d="M2033.66,1983.3l-.14.14-1.31-.82Z"/><path class="cls-1" d="M2332.64,1970.12l.06-50.46c1.36-12-1.57-22.68-9.2-32.05-5.89-18.34-22.42-24.32-37.38-32.11l-3.07-1.15-6.94-1.78-8.93-1.71c-25-4.42-50.09-.73-75.13-1.58-3.71-.12-7.48,1.17-5.28,5.66,10.17,20.87,1.83,43.15,5.4,64.46a2.29,2.29,0,0,0,.34-.07,2.37,2.37,0,0,1-.34.08l-.09,50.57h0q.07,15.18.13,30.36,0,11.79.08,23.58c-3.52,24.12,4.55,49.2-7.58,74.54,32-2.1,62.47,3.63,92.82-3.1,6.91-.79,13.63-2.06,18.53-7.69,22.91-11.46,35.72-30.24,37-55.49C2334.19,2011.56,2332.88,1990.81,2332.64,1970.12Zm-56.9,73.19-9.5,5c-2.72-.6-5.39-.9-7.64,1.28l-5.52-.21c-3.4-2.48-7.28-1.56-11-1.56l-1.62-3.45c-.08-.23-.17-.47-.26-.7l.27.7c0-1.35,0-2.7,0-4,0-3.16,0-6.31,0-9.47h0c0-1.31,0-2.61,0-3.91q.11-28.41.19-56.82,0-6.74,0-13.47c1.77-5.87-.83-11.36-1.48-17,3.35-13.39-4.46-27.68,3.3-40.71,9.61,1.36,19.55-1.35,29,2.28,8.72,6.38,7.8,16,8.46,25.1q0,10.1,0,20.2.4,6.75.8,13.48-.33,32.36-.69,64.71C2279.92,2031.15,2280.87,2037.93,2275.74,2043.31Z"/><path class="cls-1" d="M3001.9,1009.94c.06.24-.69.67-1.06,1v-3.56A15.52,15.52,0,0,1,3001.9,1009.94Z"/><path class="cls-1" d="M2690.78,815.6c-.38-2.74,0-5.23,2.26-7.15C2693.67,811.27,2693.25,813.76,2690.78,815.6Z"/><path class="cls-1" d="M1880.83,637.6c-.76-47.31-18.53-87.94-55.74-118.81q-31.26-30.48-74.68-35.32-83-.47-166-.9c-4.28,0-9.81-1-7.73,6.63,16.54,33.7,17.33,69.59,17.1,106.29-.83,129.46-.33,258.93-.22,388.39a69.34,69.34,0,0,1-3.95,24.63c-6,16.38-11.15,33.07-17.21,51.34,55.44-10.78,107.94-21.82,161-29.81,38-5.71,69.51-23.72,94.89-52.51a73,73,0,0,0,20.78-26.59l-.1-.09c22.23-27.78,31.39-60.45,31.85-95C1881.85,783.09,1882,710.33,1880.83,637.6Zm-160.61,2.23c0-6.1-3.76-14.57,4-18,8.13-3.55,16.46-1.22,23,5.42,2.65,9.16,3.27,18.46,3.28,28,0,62.38.28,124.76.48,187.14,0,1.25,0,2.5,0,3.74a68.23,68.23,0,0,1-11.94,43.18c-15.51,3.84-19.51-2.24-19.35-17.82C1720.52,794.3,1720,717.06,1720.22,639.83Zm71.33,241.27c-.93,27-16,43-42.42,45.6-3.9.38-8.06.21-11.63,1.54-15.38,5.77-18.73-1.63-17.11-15,3.07-1.07,6.07-2.69,9.23-3.13,24.17-3.34,37.37-16.15,38.68-40.49,1.13-21.13.32-42.36.42-63.54.25-54.72.75-109.44.59-164.16,0-8.13-3.07-16.26-4.73-24.4,19.13.82,22.09,16.25,27,29.89q.2,5,.38,10,.23,92.52.43,185.06C1792.14,855.38,1792,868.25,1791.55,881.1ZM1775,519.81c-49.06-3.7-98.1-.69-147.82-1.46l10.6,35q-2.28,139.52,0,279.05l-.09,67.26c-.24,34.31-.44,68.62-.78,102.93-.06,6.07-.66,12.14-1,18.21-7.34,11.08-19,9.15-29.57,11.09,15.06-76.95,5.48-153.48,7.15-229.6,1.68-76.77.43-153.61.37-230.43,0-20.56,3.2-41.52-7.82-60.78-3.5-6.12-1.1-8.76,6.11-8.7,46,.41,92.08-1.14,137.94,1.53,18.68,1.09,39.8,5.4,51,25.4C1791.78,527.57,1784.61,520.54,1775,519.81Z"/></svg>