<svg id="Layer_1" data-name="Layer 1" xmlns="http://www.w3.org/2000/svg" viewBox="0 0 7023.16 2491.14"><defs><style>.cls-1{fill:#fff;}.cls-2{fill:#2a1b0e;}</style></defs><path class="cls-1" d="M2606.08,1969.07l-3.46,4.91c-11.38,16.19-46.65,47-99.22,47-54.91,0-114.17-48.55-114.17-126.9,0-78.12,58.81-126.34,113.17-126.34,36.27,0,68.52,14.06,95.87,41.74l4.35,4.47-26.12,49.11-8.14-7.93c-16.63-16-35.94-30.8-64.29-30.8-27.57,0-56.92,24.77-56.92,70.65,0,44,28.8,70.31,56.59,70.31,29.46,0,50.67-16.85,65.85-31.47l7.25-6.92Z"/><rect class="cls-1" x="2857.42" y="1774.43" width="58.59" height="240.85"/><path class="cls-1" d="M3271.38,1774.43h-98.22v240.85h89.29c68.19,0,115.74-49.44,115.74-120.31C3378.19,1826.22,3332.31,1774.43,3271.38,1774.43Zm-40,53.79H3257c53.12,0,64.28,36.83,64.28,67.75,0,18.75-6.69,35.83-18.75,47.77-11.83,11.72-27.45,18.08-46.54,17.74h-24.88Z"/><polygon class="cls-1" points="3807.54 1961.15 3807.54 2015.28 3632.43 2015.28 3632.43 1774.43 3804.3 1774.43 3804.3 1828.22 3690.69 1828.22 3690.69 1869.52 3787.68 1869.52 3787.68 1922.09 3690.69 1922.09 3690.69 1961.15 3807.54 1961.15"/><path class="cls-1" d="M4245.38,1848.43c0-42.86-34.15-74-81.25-74H4053.75v240.85h57.92l.34-88.73h18.64c18.08,25.45,55.24,84,55.58,84.71l2.56,4h54.36v-14.84l-50-79.36A77.16,77.16,0,0,0,4245.38,1848.43Zm-82.81,22.65-50.56-.56v-41.63h53.35c16.52,0,25,6.7,25,20.09S4179.2,1871.08,4162.57,1871.08Z"/><polygon class="cls-1" points="4770.38 1774.43 4694.82 2015.28 4655.65 2015.28 4616.25 1880.46 4580.87 2015.28 4538.35 2015.28 4459.67 1774.43 4519.49 1774.43 4559.56 1897.76 4590.25 1778.22 4638.02 1778.22 4675.85 1901.22 4712.01 1774.43 4770.38 1774.43"/><path class="cls-1" d="M5104.43,1768.07c-60.16,0-121,43.64-121,127.23,0,81.81,62.39,126,121,126,59.93,0,120.53-43.08,120.53-125.34C5225,1815.84,5163.69,1768.07,5104.43,1768.07Zm0,196.87c-37.62,0-64.85-29-64.85-69,0-42.19,26.68-71.65,64.85-71.65,37.39,0,64.51,30.13,64.51,71.65C5168.94,1936.6,5142.37,1964.94,5104.43,1964.94Z"/><path class="cls-1" d="M5662.24,1848.43c0-42.86-34.15-74-81.36-74H5470.61v240.85h57.93l.22-88.73h18.75c18.08,25.45,55.14,84,55.58,84.71l2.46,4H5660v-14.84l-50-79.25C5640.59,1910.7,5662.24,1881.57,5662.24,1848.43Zm-82.81,22.65-50.56-.56v-41.63h53.35c16.52,0,25,6.7,25,20.09S5596,1871.08,5579.43,1871.08Z"/><polygon class="cls-1" points="6115.71 2015.28 6047.96 2015.28 5989.59 1921.31 5976.64 1935.93 5976.64 2015.28 5918.38 2015.28 5918.38 1774.43 5976.64 1774.43 5976.64 1857.02 6048.07 1774.43 6114.26 1774.43 6027.87 1875.99 6115.71 2015.28"/><path class="cls-1" d="M6522.74,1938.38c0,59-53.79,80-99.78,80-36.49,0-59.59-11.16-89.51-31.8l-5.35-3.69,18.41-51.78,9,5.35c26.57,16,47.66,26.57,63.84,26.57,18.42,0,45.76-6.59,45.76-24.67,0-11.83-18.08-16.41-49.33-20.2-33.15-4.24-88.62-11.27-88.62-72.32,0-56.92,50.34-77.23,97.33-77.23,32.25,0,61.38,9.82,88.95,30.13l5.24,3.68L6501,1851.33l-9-6c-20.65-13.73-45.31-21.54-67.41-21.54-29.69,0-40.29,10.38-40.29,20.2,0,12.17,26.56,14.62,39.28,15.74,2.35.22,4.24.44,5.92.67C6459.57,1863.49,6522.74,1870.19,6522.74,1938.38Z"/><path class="cls-1" d="M1380.63,1959.25c-.12,0-.12,0-.23.11s-.11.23-.22.34a10.15,10.15,0,0,0,3.46,2.9A13.79,13.79,0,0,0,1380.63,1959.25Z"/><path class="cls-1" d="M1629.29,1505.68c-129.36,95.64-252.79,107.81-352.24,34.71l-12.39-10.05c-3.79-4.46-12.61-7.81-6.25-15.18,6.25-7.14,11.16,1.23,16.41,3.69,3.8,3.23,7.7,6.36,11.5,9.48,126.78,54.69,242.63,33.26,340.18-65.62,113.84-115.63,136.49-258.6,116.18-411.84-19.31-145.42-77.9-276.78-155.69-400.11C1442.9,422.52,1279.4,210.58,1066.9,40.38,1045.35,23.08,1024.15,1.76,993.46.2c-8.71,28.23,9.48,37.72,22.43,50.33,39.73,38.84,80.8,76.45,118.42,117.19,194.42,211.39,332.36,452.35,387.28,737.17,8.37,43.19-7.82,99.89,66,119.53-49.22-8.81-50,15.29-52.57,44.87-3,34,44.64,24.78,42.3,55.36-58.93,2.45-68,26-31.81,88.95-73.66,7.92-53.24,55.47-39.73,103.24-29.36-32.7-66-24.33-76.34.11-18.75,44.08-36.61,19.75-59.49,11.16-18.86-7-39.84-8-59.26-13.95-35.83-10.94-61.5-34.49-74.11-69.76-10.49-29.57-31.92-62.39,33.37-54.13,64.51,8.15,117.63-55.8,117.3-127.57-.11-57.7-45.31-91.63-117.19-87.61-20.09,1.12-40.29,12.39-61.5-.78,15.74-21.76,37.39-29.69,59.49-28.79,35.49,1.34,47.1-15.07,52-47.77,12.72-84.71,19.09-168.86,3.8-253.91-29.24-163.62-145.09-280.14-304-305.58-43.2-6.92-64.62-3-64.29,53.35,3.35,477.79,2.68,955.58,3.24,1433.38,0,7.36.67,14.84,0,22.21-3,29.69,12,29.13,33.7,21.54,67.52-23.66,117.75-95,121.77-177.57,2-41,.33-82.26.33-135.27,67.19,106.92,153.8,173.55,254.24,225.11,50.56,26,65.18,70.21,44.31,121.77-8.14,20-21.65,37.83-32.7,56.58.11-.11.11-.11.23-.11a13.79,13.79,0,0,1,3,3.35c12.72,8.26,28.24-15.07,41.74,3.13-4.69,23.54-22.55,32.36-43.3,36.49-19.31-14.28,9.93-26.67,1.56-39.62a10.15,10.15,0,0,1-3.46-2.9c.11-.11.11-.22.22-.34-103.68,36.28-159.71-2-175.33-119.53-3.24,2.9-8.38,8.71-9.16,8.26-7.59-5.13-3.23-10.83.45-16.29,17.3-26.46,43.08-33.15,72.55-29.58,31.58,3.68,43.41,33,65.73,58-13.73-71.43-64.28-102.57-132-87.73-93.75,20.43-116.74,103.91-71.32,261.5-5.35,0-11.72,2-15.18-.34-67-43.75-67.41-44.3-124.22,15-17.74,18.64-34.93,38.84-47.54,61-52.57,92.08-64.06,187.28,1.34,276.56,66.63,90.74,161.38,120.43,270.87,97.44,112.17-23.55,176.23-137.17,142.64-247.44-10.94-35.71-28.46-65.62-68-72.88-41.74-7.59-79.58.23-109.83,38.29,89.63-7.71,89.63-7.71,105.36,28.12,24.33,55.47,15.52,78.91-44.64,117.64-70.65,45.42-145.2,9.26-153.13-74.22-6.8-73.22,32-128.8,105.7-156.93,54.57-20.75,110-9.15,165.29-10.26,174-3.46,281.36-154.8,225.56-318.64-24.78-72.88-52.57-93.75-129.69-98.78-8.48-.56-16.63-4.8-27.23-8C1587.77,1596.53,1620,1568.29,1629.29,1505.68Zm-290-124.56c149.89,19.31,239.62-87.94,249.78-234.71,6.25-90.4,4.24-180-18.08-268.53-2.12-8.26-.23-17.63-.23-26.56,59.27,151.67,87.73,305.58,8.38,457-48.89,93.09-157.48,120.88-266.41,79C1320.13,1377.55,1330.85,1380,1339.33,1381.12Zm-59.93-354.58c33.48,1.57,55.13,22.33,56.25,57,1.34,38.39-23.66,55.35-57,62.61-36.72-5.58-61.61-25.9-60.61-61.61C1219,1049.76,1241.56,1024.65,1279.4,1026.54Zm-224,1279.7c-1.56,6.81-9.71,13-17,6.25-19.19-17.3-17.85-38.73-7.25-68.64C1055.62,2263.72,1060.76,2283.47,1055.4,2306.24Zm9.26-116.41c-3.9,7-9.15,18.31-20.2,9.94-7.92-6-6.81-15.52-3.57-25,13.39-38.73,39.51-57.26,81.59-50.56C1106.29,2150.77,1079.06,2164.05,1064.66,2189.83Zm379.58-261.72c.89-43.08,2-77.56-1.11-111.38C1486.32,1849.88,1490.22,1883.92,1444.24,1928.11Z"/><path class="cls-1" d="M290.11,881.22c-36.89,117.58-48.56,237-20.09,357.8,26.46,112.27,144.7,207.4,286,152.93,11.69-.27,28.75-6.15,25.78-14.27-4.72-12.91-17.59-5.15-25.74,3.17-13,.37-26.07,1.88-38.95.83-15.58-1.26-39.89,8.59-44.39-9.61-5.49-22.19,17.81-34.74,35.94-42.87,16.63-7.46,35.63-9.6,53.54-14.27,36.62-9.54,63-32.06,76.79-66.67,12.28-30.74,17.43-56.45-33-57-61.9-.73-106-45.37-115.8-107.07-10.71-67.56,39.59-114.4,117.9-108.52,17.76,1.33,35.18,10.81,53.6.14-11.37-29-36.5-29.51-60.45-29-24.9.51-39.34-10.64-42.75-34-18.64-127.19-29.82-253.67,28.81-375.36,56.19-116.65,152-177.47,275.94-200.65,46-8.6,60.18,8.68,60,56.06-1.65,479.94-.59,959.89-1.24,1439.84-.21,160.09-80.87,271.23-219.23,309.21-36.62,10.05-73.76,5-120.5,9,55.27,34.43,112.22,38.93,163.61,57.69,101,36.85,135.95,137.76,76.34,227.49-2.52,3.8-8.16,5.53-11.53,7.69-3.31-1.93-5.88-2.62-6-3.63-14.18-112.1-29.63-129.36-144-157.8-55.56-13.81-113.21-20-165.64-45-35.51-17-69.24-36.55-86.8-74.21-11.5-24.64-14.45-50.29,1.74-74,16.57-24.23,43.07-23.67,65.54-15.32,46.95,17.46,108.13-12.41,140.73,46.15,19.42-21.55-21.49-53.27,19.94-68.19,32.13-11.57,48.07,9.31,69,24.33,22.64-27.51-28.23-46-6.58-74.82,21.15-28.12,42.46-18.61,74.32,2.17-19.44-49.79-53-92.31,12-118.81,6.8-2.78-10.08-16.56-14.82-25.58-14.29-27.16-30.49-56.11,9-77.66l4.68,2.32-4.93-2.06c-2.33-12.42-13.06-16.18-21.73-23.06-32-25.4-55.67-53.73-29.61-98,10.47-17.8,10.56-38.8,2.38-70.06-71.78,99.84-169.59,102.35-272.2,85.22-23.89-4-31,9.07-18.5,22.81,22.67,24.94,8.23,42.3-2.57,63.83-29.94,59.71-14.53,119.23,35.79,144.12,52.71,26.08,117.75,4.07,141.93-57.14,7.64-19.32,42.15-24.93,27.44-49.89-10.91-18.52-27.48-36.3-45.8-47.34-34.58-20.84-69.7,4.52-91.75,65.65-13.55-55.53,14.89-83.12,57.44-99,51.47-19.18,104.3,3.74,126,50.89,53.23,115.71-36.17,260.19-163.4,268.75-101,6.79-186.74-17.24-233.61-113S242.87,1732,312,1644c18.49-23.53,12.32-30-7.51-45.76-30.18-23.9-58.58-51.72-60-95l-.62.65C334.8,1577.08,435,1608.83,550,1570.37c22-7.34,47.15-12.62,53.26-41.3,8.87-1.45,16.65-4.6,20.73-13.45q2.16-3.64,4.34-7.27l-7.09,4.54c-9.25.14-16.75,3.49-21.6,11.72C416.1,1629.16,219.85,1494,156.45,1314c-55.13-156.56-29.13-309.87,29.61-458.95C270,642,408.24,463.08,553.59,289.48c67.77-80.94,139.32-158.69,223.06-224.06,17.5-13.67,34.21-28.61,52.92-40.39,16-10.1,37-35.18,52-16.19,16.06,20.22-14.69,33.46-28,45.85-200.1,185.8-356.28,401.08-448.11,659.93C377,795,358.91,878,346.71,962.08c-3.83,26.39-8,47.47-45.83,51.24,33.31,13.89,48.78,32,42.21,63.38-4.73,22.54-23.29,31.65-40.31,32.24-22.9.79-13.57-22-14.31-34.41-3.86-65,8.67-128.85,15.44-193.1,6.86-8.57,12.15-23.54,1.82-25.7C291.21,852.7,290.82,869.52,290.11,881.22Zm355.65,207.64c-3.84-35.4-22.12-59.95-58.14-62.3-36.42-2.39-61,19.88-62.9,55.33s20.95,61.39,56.41,63C615.5,1146.38,639.14,1125.31,645.76,1088.86ZM406.54,1731.41c-.39-14.06-7.78-16.12-18.12-13.88-31.64,6.88-56.13,72.23-35.83,95.75,6.57,7.62,18.57,13,20.88,1.63C379.63,1784.34,386.77,1754.94,406.54,1731.41Zm-3.63,193.25c7.84-.9,17.14-1.84,15-11.42-4.85-21.69-14.37-41.53-38.1-47.92-9.19-2.48-12.74,7.65-11,14.31C373.94,1899.09,381.81,1917.36,402.91,1924.66Z"/><path class="cls-1" d="M6483.23,808.91c-3.12-123.78-55.47-216.3-146.09-257H6337c-23.78-10.82-50.34-18-79.25-21.2-99-11-200-4-300.11-5.8-20.2-.34-24.89,8.92-25.89,23-.23,2.79-.23,5.8-.23,8.93.45,148,5.14,740.18,4.13,888.28-.22,28.8,4.47,44.54,38.84,43.53,74.11-2.23,148.55,2.46,222.55-1.56,190.4-10.27,281.59-103.69,286.39-295.09Q6488.14,1000.6,6483.23,808.91Zm-215.18,350.34c-4,106.69-20,117.74-127.68,117.74h-55.24c-4.36-4-8.71-8-13.06-12.16,91.63-10.16,80-71.1,79.35-128.58q-2-171.93.56-344c.33-18.42-17.19-49,17.63-54.91,33.82-5.81,68.75-3.69,83.71,35.82,7.14,18.75,13.06,39.18,13.39,58.93C6268.61,941.16,6272.29,1050.43,6268.05,1159.25Z"/><path class="cls-1" d="M2781.61,838.29c-13,0-26.13-1.29-38.94.24-43.68,5.23-74.43-.19-74.24-56.93.08-27.49-19.79-54.86-53.72-52.86-32.48,1.91-45.93,27.63-51.87,56.84-12.84,63.25,7.22,94,70.86,107.94,21.72,4.78,43.93,7.41,65.53,12.63,129.82,31.42,203.5,130.49,202.91,274.9a513.72,513.72,0,0,1-9.72,99.23c-30.57,151.17-149.36,235.88-305.37,219.65-161.26-16.78-259.12-125.64-259.48-285.43-.06-28.23,9.44-35,34.9-33.79,33.34,1.56,66.9,2,100.17,0,43.75-2.71,81.81-6,85.39,56.83,2,35,33.35,52.23,69.07,50.52,36.55-1.74,57.91-24.52,64.25-58.73,7.39-39.85,6.53-80.66-36.32-101.12-26.22-12.53-56.13-18.6-85.05-24-129.1-24.23-195.16-91.17-214.83-219.74-10.59-69.26-2.08-137,21.31-202.15,39.64-110.33,138.74-171.94,261.78-166.48,122.88,5.45,208,71.23,240.9,186.29,2,7.1,3.39,14.4,5,21.62C2899.11,838.29,2899.11,838.29,2781.61,838.29Z"/><path class="cls-1" d="M4223.27,1003.13c2.81-83.1-4.2-166.34,9.27-249.29,24.1-148.44,125.74-237.82,274.34-238.17,150.09-.36,249.05,85.8,272.81,237.51,19.3,123.24,19.3,123.24-104,123.24h-11.13c-83.78,0-83.1-.15-99.44-79.82-6.74-32.87-15.2-71-58.35-69.05-37.7,1.73-49.9,34-52.78,67.74-12.17,142.19-12.27,284.43,1,426.52,2.86,30.57,12.88,60.31,50.43,62.89,42.18,2.9,51.32-30.69,58.44-61.51,6.12-26.47-2.32-65.12,13.07-78.57,23.86-20.86,63.57-7.44,96.45-7.66,127.72-.86,127.73-.35,106.52,125.25-25.57,151.43-127.57,239.45-274.44,236.8-148.41-2.67-249.18-92.67-272.89-241C4219.05,1173.23,4225.93,1088.1,4223.27,1003.13Z"/><path class="cls-1" d="M7023.16,524.08V735.24H6815.72V898.88h207.44v214.47H6815.72V1277h207.44v207.58h-373v-.21c-46.43,2.34-54.91-15-54.13-56.7,2.35-140.85.89-281.7.89-422.44,0-144.53,1-289.06-.78-433.59a103.49,103.49,0,0,1,.9-17.3c2.49-20.66,12.32-29.64,38.65-30.25H6947l-.23.22h.23v-.22Z"/><path class="cls-1" d="M6641.94,524.08h-6.21Q6638.69,524,6641.94,524.08Z"/><path class="cls-1" d="M4009,518.39l-4,10.72-9.27,24.66-36.6,97.77-.34.78c-1.79,4.24-3.57,8.48-5,12.61-1.68,4.8-3.46,9.71-5.14,14.51-41,115.41-79.57,231.92-128.35,344.09-50.67,116.63-30.35,236.61-33.7,355.58C3783.43,1488,3785.89,1488,3680,1488c-122.1,0-128.35-.33-120.64-121.43,10.82-168.3-20.32-325.67-86.17-479.91-41.74-97.77-75.78-198.89-112.16-300.9l-3.35-9.37-16.07-45.2-3.13-8.6-2-5.69,105.58.22,56.81.12,61.28.11,2.45,7.36,6.36,19.87,51.57,160.27.11.33q1.67,6.19,3.68,12.06,2.85,8.54,5.69,17.07l.78,2.35c12.84,39.51,25.12,80.8,41.52,132.7,23.33-76.9,46.43-145.65,65.63-213.4l.78-2.9,32.92-126.34,2.24-8.93,116.74.23,52.23.11Z"/><path class="cls-1" d="M3357.65,576.43c-5.36-15.07-10.83-30-16.3-45.09.12,0,.12,0,.23-.11Z"/><path class="cls-1" d="M5889.7,522.19l-9,25.22-2.12-.11a54.08,54.08,0,0,1-1.45,10.27l-20.2,56.69c-52.46,139.85-101.45,280.92-155.14,420.32-23.1,59.93-34,119.42-31.81,183.37,2.68,75.78-1.22,151.79,1.46,227.57,1.22,35.38-11.28,44.87-44.54,43a1332.44,1332.44,0,0,0-133.48,0c-34.15,1.56-53.68-6-47.66-45.43,43.42-287.94-83.7-538.17-176.23-796h-.11l-1.45-4.24-20.65-60.27-.33-1.23-13.84-40.29-6.92-20.2,60.05.11,97.65.22,60.83.11,7.59,21.88h.11l6.25,18.19.11.22,27.57,79c21.54,70,43.3,140.29,70.2,227.46,30.58-99.11,58.82-184.93,83.15-270.65l12.95-42,3.12-10.27,7.25-23.44,58.6.11,84.82.23Z"/><path class="cls-1" d="M5267.93,642.84c-.67-1.9-1.34-3.69-2-5.59-8-22.54-14.39-40.51-18.64-54.68Z"/><path class="cls-1" d="M5486.35,640.6l-27.57-79c8.15,15.74,15.18,38.51,25.34,71.66C5484.9,635.69,5485.68,638.15,5486.35,640.6Z"/><path class="cls-1" d="M5646.28,573.64a122.39,122.39,0,0,1,6.37-18.19l-12.95,42C5641.93,589.49,5644.16,581.56,5646.28,573.64Z"/><path class="cls-1" d="M5877.09,557.57a132.52,132.52,0,0,1-6.14,19.64c-4.69,12.39-9.37,24.67-14.06,37Z"/><path class="cls-1" d="M3217.58,762.81c.56,114.74.11,229.47,0,344.31Z"/><path class="cls-1" d="M1788.71,1336.21c86.88,201.49,130.42,405.48,61.29,620.73-62.23,193.78-209.87,281.67-396.29,322.67-12.12,2.66-27.5,6.55-30.28-12.87-2.3-16,11.78-15.35,21.82-18.84,78.81-27.43,136.64-80.53,179.07-150.48,13.79-22.74,27.54-36.44,59.42-18.68-34.64-63.23-22.62-95.48,32.23-95.22-19.21-34.1-59.39-69.12,2.44-99.33,13.52-6.6-.5-14.06-6.06-19.86-32.84-34.27-32.1-64.25,14-87.22-58.22-34.72-61.68-58.46-10.84-93.7-37.13-2-59.65-17.3-66.65-52-5.46-27.09,15.12-38.57,31.26-46.49,24.94-12.23,24,15.75,28.79,28,28.53,73.24,40.34,149.71,39.53,228.2-.15,14.4,0,28.82,4.36,43,18.88-99.45,13.57-197.78-20.08-293.62-10.85-30.88-15.28-55.62,4.9-86.65C1770.05,1454,1781.93,1395.63,1788.71,1336.21Z"/><path class="cls-1" d="M165.84,1991.26c14.85-1.26,30.67-20,44.27,1.68,16.75,26.76,16.62,52.34-11.65,78.68,36.08-8.75,51.21,9.59,66.13,34.26,39.44,65.24,95.88,111.82,166.77,140.61,12.73,5.17,34.93,4.43,28.82,24.86-5.47,18.3-25.18,10.08-38.81,7.67C193.91,2238.83,48.68,2092.33,10.1,1864.71c-27.9-164.62,2.52-362.61,84.8-535.16,12.43,76,24.62,145.3,66.92,204.14,8.22,11.44,2.27,24.59-2.81,37-39.54,96.52-43.5,197.33-35.46,299.51,2.93,30.81,4.77,61.87,20.51,89.76l-.53-.88c3.5,13.48,3.46,29.68,11.3,39.81C167.47,2015.17,163.07,1995.66,165.84,1991.26Z"/><path class="cls-1" d="M133.28,1870.41c-.79-81.38,8.68-161.44,34-239,5.83-17.85,6.87-45.37,32.11-45.37,18.32,0,34.42,17.74,33.35,37.82-1.31,24.5-.71,54.21-38.07,56.29-6.65.37-13.23,2.11-21.93,3.57,42.63,35.12,42.53,51.59.26,85.42-5.87,4.69-14.3,6.2-5.32,13.72,47.64,39.84,15.35,68.81-12.81,98.53Z"/><path class="cls-1" d="M377.06,1303.43c31.24-19.58,52.34-1.61,71.74,15.12,14.81,12.79,11.28,31.34,2.14,45.09-8.56,12.89-23.91,7.62-34.88,1.08-33-19.67-63.73-42.55-84.32-75.86-11-17.86-18.07-37.23,1.25-54.8,10.42-9.47,24.46-13.92,35.08-4.44,15.3,13.65,26.4,30.84,14.41,53.42C379.27,1289.1,378.79,1296.59,377.06,1303.43Z"/><path class="cls-1" d="M303.17,1229.66c4.43-39.77-37.52-71.59,6.87-99.9,12.25-7.81,27.27-6.26,36.6,11.52C368,1181.94,342.18,1201.89,303.17,1229.66Z"/><path class="cls-1" d="M155.2,1890.26c51.53,19.45,53.55,36.09,11.25,92.45l-22.92-23.66.53.88C147,1936.58,134.92,1910.84,155.2,1890.26Z"/><path class="cls-1" d="M244.48,1503.29l-5-3.85c.9.23,2.16.18,2.63.76a17,17,0,0,1,1.79,3.74Z"/><path class="cls-1" d="M778.79,1781.68l4.93,2.06-4.68-2.32Z"/><path class="cls-1" d="M2996.93,574.2q.51,75.49.67,151.11l-.67.56Z"/><path class="cls-1" d="M3407.65,1318.18c-2.68,44.19-2.23,88.84-.11,133.14,1.45,30.81-12.17,37.17-39.62,37.17-109.38-.11-218.87.11-328.13,3.12-36.38,1-42.63-13.61-42.52-45.53q1.17-360.43.33-720.77-.17-75.49-.67-151.11V516.27l63.84.11,29.58.11,127.23.23V680.78c-.22,4.58-.33,9.15-.33,13.51.11,22.88.33,45.64.33,68.52V1133c0,91.74,0,91.74-73.1,146.32,79.35,0,149.89,1,220.31-.45C3394.15,1278.22,3409.66,1284.14,3407.65,1318.18Z"/><path class="cls-1" d="M3217.25,694.29c0-4.36.11-8.93.33-13.51v82C3217.58,739.93,3217.36,717.17,3217.25,694.29Z"/><path class="cls-1" d="M3630,734.35q-2.83-8.54-5.69-17.07-2-5.87-3.68-12.06Z"/><path class="cls-1" d="M3953.75,664.93c1.45-4.13,3.23-8.37,5-12.61l-10.16,27.12C3950.29,674.64,3952.07,669.73,3953.75,664.93Z"/><path class="cls-1" d="M5290.81,1316.61c-2.9,46.1-1.56,92.53-.44,138.73.67,23.77-8.37,33-32.26,32.93-113.06-.56-226.34-.79-339.4.22-26.78.22-35.27-9.93-35.27-35.94q.84-394.59.11-789.07c0-33.14-.11-66.4-.22-99.55V520.18l85.49.11,45.87.11v.67c4.91-.45,9.83-.67,14.62-.67h8.15l4.35.11,60.5.11V687c-.12,2.35-.12,4.58-.12,6.81.12,21.76.12,43.53.12,65.29.11,131.92-.56,263.84.55,395.65.34,46.65,4.58,92.41-51.89,119.76,64.84,0,129.57,1.34,194.31-.56C5277.42,1273,5293.16,1280.34,5290.81,1316.61Z"/><path class="cls-1" d="M4883.33,563.93c.11,33.15.22,66.41.22,99.55l-.22-.11Z"/><path class="cls-1" d="M5102.19,693.84c0-2.23,0-4.46.12-6.81v72.1C5102.31,737.37,5102.31,715.6,5102.19,693.84Z"/><path class="cls-1" d="M5878.54,547.3l2.12.11-3.57,10.16A54.08,54.08,0,0,0,5878.54,547.3Z"/><polygon class="cls-1" points="6946.97 524.08 6946.97 524.3 6946.74 524.3 6946.97 524.08"/><path class="cls-1" d="M5014.69,520.4h14.62c-4.79,0-9.71.22-14.62.67Z"/><polygon class="cls-1" points="6946.97 524.08 6946.97 524.3 6946.74 524.3 6946.97 524.08"/><polygon class="cls-2" points="7023.16 524.04 7023.16 524.08 7023.14 524.08 7023.16 524.04"/><polygon class="cls-2" points="6946.97 524.08 6946.97 524.3 6946.74 524.3 6946.97 524.08"/></svg>