<svg id="Layer_1" data-name="Layer 1" xmlns="http://www.w3.org/2000/svg" viewBox="0 0 2490.84 2491.14"><defs><style>.cls-1{fill:#fff;}</style></defs><path class="cls-1" d="M2490.83,1245.63c2,683.76-555.86,1249.88-1253.64,1245.48C555,2486.82,0,1933.15,0,1245.54,0,551.52,566.26-8.14,1260.7.09,1946.34,8.22,2492.75,568.54,2490.83,1245.63Zm-1201.6,415.65c-5.1,2-8.65,6.06-12.11,10a319.39,319.39,0,0,0-60.51,100.15c-1.18,3.12-3.18,6.32-1.94,11.11,14.63-17.12,28.7-33.57,42.73-50a9,9,0,0,0,1.59-2.91c8.12-23.51,20-45.26,31.52-67.15.14-.67.6-1.76.37-1.93C1290.09,1659.85,1289.52,1660.45,1289.23,1661.28Zm1032.06-113.46a189.23,189.23,0,0,1-38.28,24.83c-25.79,12.56-52.7,22.2-80.16,30.34-14.51,4.3-29.12,8.24-44.35,12.54,1.23.56,1.65.91,2.07.92,1.67,0,3.34,0,5-.1,48.56-3.16,94.34-17.11,138.86-35.91,1.72-.73,4.05-1.71,4.64-3.17,4-9.87,10.52-18.77,12.1-29.63l1.09.12c-.06-.33-.12-.65-.17-1C2321.82,1547.12,2321.55,1547.47,2321.29,1547.82Zm-1224.11-28.47.83,1c.06-.34.12-.68.17-1l-1.13.2c1.31-.79.74-1.78.29-2.76a184.44,184.44,0,0,0-22.24-37.17c-13.63-17.31-31.41-26-53.4-26.55-10-.23-20.11.19-30-1.82-8.49-1.74-7.94,4.29-9,9.42-1.57,7.58,4.27,5.16,7.23,5,26.08-1.49,48.67,7,68.79,23.12Q1077.93,1504.13,1097.18,1519.35Zm63.29,93.94-18.84-17.77c9.89,39.22,39.73,65.36,60.44,97.34-2.75-41.77-59.31-148.27-85.4-159.49,5.85,12,13.29,22.33,20.6,32.7,10.11,14.35,20,28.79,24.19,46.24C1161.12,1612.62,1160.79,1613,1160.47,1613.29Zm319.81,356.09c52.1-22.55,93.48-67.64,96.07-102.58-18.65,23.55-27,24.69-46.07,30.57-6.13,1.9-9.7,4.17-11.08,11.12-1.62,8.22-7.23,14.94-12.31,21.59-7.09,9.3-14.45,18.4-21.3,27.87-2.44,3.38-6.09,6.57-5.2,11.58l-1,.16c.11,0,.25.11.32.07A3.94,3.94,0,0,0,1480.28,1969.38ZM745.85,1763.65c.38-.85.29-1.29-.77-.89l.93.76c-.8,6,.85,11.61,2.54,17.15,17.36,56.87,60.14,90.71,109.21,120.88a31.55,31.55,0,0,0-5.25-13.47c-9.21-14.55-18.78-28.88-28-43.42-5.37-8.45-10.85-17.12-11.75-27.31-.53-6.11-3.37-8.48-8.64-10.21-23.6-7.75-44.22-19.57-56.38-42.57C747.47,1764.07,746.49,1764,745.85,1763.65ZM1312,1691l-1.37-1.72c18.67-13.94,39.89-22.84,61.26-31.63,15-6.17,25.16-18.3,35.58-30.83-45.81-12.38-118.61,42.19-127.58,88.07,28.83-10.44,57-20.55,85-30.94,2.69-1,4.84-3.66,7-5.8a5.78,5.78,0,0,0,1.67-6.13c-1-2.79-3.61-2.14-5.73-2.14-7.71,0-14.58,3.15-21.54,6C1334.72,1680.57,1324.14,1687.53,1312,1691Zm-15.3,293.81-1.84-1.39c.8-4.22,3.45-7.53,5.59-11.08,3.14-5.24,6.92-10.19,8.45-16.19.57-2.22,2.52-6.24-2.2-6.27-5.93,0-4.48-3.6-3.89-6.74,1-5.22,3.53-10.17,3.25-16.15-13.59,8.85-26.72,26.31-30.55,40.19a33.41,33.41,0,0,0,12.76,36.18c1.55,1.1,2.81,2.65,5.09,1.11,17.49-11.76,37.86-11.68,57.68-13.92,11.65-1.32,23.21-3.32,33.16-10.12,13.08-9,20.58-21,20.78-37.86l-45.63,20.32c-10.83,4.81-22.17,8-34,6.51-8.1-1-14.05,1.72-19.55,6.91C1302.82,1979.19,1299.77,1982,1296.73,1984.84Zm-212.92-47.42c-4.88-5.24-9.57-10.67-14.68-15.67-4.33-4.25-8.72-8.43-15.76-8.07-17.75.92-34.06-4.13-49.48-12.61-15.84-8.72-31.74-17.32-47.63-26-1.39-.75-2.67-2.37-4.42-1.54-2,1-.92,2.85-.83,4.42,1.6,26.21,15.54,43.26,39.34,52.94,10.92,4.45,22.49,6.21,34,8.21,20.85,3.63,42,6.56,59.22,20.46,3.15,2.52,5.09.44,7.31-1.09,17.72-12.24,23.86-30.89,16.51-51.34-6.45-17.94-17.86-32.53-31.77-45.28l-1.14-.1.35.51.88-.66c-2.09,7.59,2.3,13.2,6,18.88,5.48,8.46,9.75,17.23,9.87,29.38-5.13-7.26-8.1-14.21-15.27-17.09-2.21-.89-4.61-3.53-6.8-1.69-1.92,1.62-1,4.73-.53,7.18,1.62,8.64,6.77,15.73,10.35,23.51,2.29,5,6.61,9.53,4.35,15.81ZM962.11,622.64c6-.37,11.49,1.87,16.84,4.18,9.5,4.1,17.67,10.49,26.5,15.75,8.48,5.06,17.28,9.35,27.87,9.64-1.42-7.9-5.55-13.45-10.63-18.26-7.46-7.08-15.3-13.77-22.77-20.85-3.56-3.37-6.86-7.15-5.89-13.26,19.71,6.56,34.43,22.4,55.07,25.87-17.7-11.34-30.43-28.28-47.11-40.64a36.48,36.48,0,0,0-7.07-4.38c-36.12-15.67-72.59-17.43-109.33-2.21-7.72,3.2-7.79,4.06-1.08,9.69,14.92,12.55,29.12,25.85,43.2,39.32,22.22,21.26,48.72,35.49,77.53,45.68l.64,1,.26-.65-1-.14c-1.09-9-7.16-15.23-13.09-21.07-10-9.86-20.66-19-31-28.49C961.35,623.41,961.73,623,962.11,622.64Zm1215.45,814.91a5.11,5.11,0,0,0-1.23-.93c.85-4.07,2.17-8.11,2.42-12.21.34-5.46-.9-10.8-6.43-13.46-5.28-2.53-10.37-1-14.91,2.2-4.69,3.32-7.41,8.23-9.91,13.24-7,14-11.41,28.94-15.45,44-2.44,9.06-6.69,17.06-13.6,23.48-1.36,1.27-3.19,2.67-5.26,1.55-1.72-.92-1.58-2.82-1.24-4.45,2-9.5,4.13-19,6.08-28.49.32-1.54,1.1-1.61,2.24-1.51,3.81.34,6-1.71,6.18-5.19s-2.9-5.25-5.69-6.47c-12.74-5.58-24.9-4.77-36.22,3.73-8,6-13.23,14.17-17.16,23.25-2.9,6.7-6.49,13-12.36,17.56-2.84,2.21-6.2,4.57-9.85,2-3.4-2.43-3.16-6.08-2.06-9.83a42.19,42.19,0,0,1,5.47-11.2c8.58-13,8.46-13.71-2.49-25.36-2.73-2.91-6.49-5.17-5.74-10.38.63-4.44-1.54-8.18-6.5-7.29-4.69.84-6.74,4.64-5.74,9.52.55,2.69,2.48,5.58,1.92,7.94-3.69,15.81-9.3,30.87-19.53,43.78-1.3,1.65-3.19,3.6-5.68,2.45s-2.21-3.75-2.06-5.89a125.71,125.71,0,0,1,3.75-21.3c4.17-17.06,10.1-33.53,16.2-50,1-2.78,2.93-6-1.56-7.59-3.62-1.33-7.19-1.77-9.43,2.34a49.47,49.47,0,0,0-3.06,6.86c-2.71,7.59-5.52,15.17-7.82,22.89-1.07,3.57-2.43,4.62-6.33,4.43-27.09-1.36-41.13,27.63-38.91,45.6,1.63,13.15,14,18.46,24.75,10.67,3.34-2.43,6.12-5.64,9.13-8.47,6.16,12.25,13.86,14.34,23,5.83a54.81,54.81,0,0,0,7.83-9.7c7.34-11.09,11.78-23.56,16.17-36.39,5.74,3.61,6.94,7.41,3.31,12.72a101.69,101.69,0,0,0-8.08,13.62c-4.14,8.71-2.29,18.21,3.92,22.76s16.12,3.69,23.14-2.35c2.19-1.88,3.85-4.39,6.75-7.79,2.66,9.66,7.84,13.83,16.34,13.08,7.8-.7,12.33-6.73,17.9-11.6,1.11,4.43,2.34,8.15,6.27,9.94,7.07,3.21,12.14-2.71,18.66-4.9-1.42,11-3.35,21.16-2.83,31.47.63,12.4,10.71,17.48,21.11,10.76a19.62,19.62,0,0,0,8-10.36c4.39-12.57,4.89-25-2-37.55a52.25,52.25,0,0,0,22.68-6.28c1.37,13.79,5.74,18.71,15.55,18.29,6.53-.28,11.67-3.38,15.85-8.19,5.9-6.78,10.23-14.53,14-22.63,3.47-7.41,6.45-15.15,12.63-21.58,2.22,6.42,3.77,12.3,6.26,17.75,2.72,6,1.57,11-.62,16.84-1,2.57,2.63,7.17-3.1,7.91-4.7.6-7-2.67-8-6.86-.67-2.88,1.15-7.82-4.55-6.64-4.79,1-5.18,4.95-4.52,9.28,2.17,14.3,17.15,19.37,29.44,9.89,2.53-2,4.2-4.8,8.28-4.86,12.05-.18,18.05-8.53,22.73-18.17,1.05-2.16,2.22-5.11-1-6.48s-4.17,1.65-5.29,3.83c-2.72,5.29-6,10.1-11.77,12.43-3.17,1.29-6.12,1.51-6-3.48.12-8.08-3.81-15-6.52-22.27-2-5.39-4.6-10.58-2.33-16.87,1.49-4.14-1.41-6-5.6-5.87s-7.16,2.46-10,5.35c-6.32,6.51-10.32,14.47-14.26,22.45-4.33,8.77-9,17.31-16.14,24.15-2.59,2.47-5.44,5.58-9.38,3.71s-3.51-6.14-2.89-9.64c1.59-9,3.53-18,5.43-27,1.53-7.21,3.18-14.17,13.23-13.24,3.14.29,4.93-2.4,4.8-5.66-.15-3.61-2.85-3.9-5.42-3.31-7.06,1.64-5.64-2.45-4.5-6.39.78-2.67,1.79-5.28,2.51-8,1-3.62.53-6.7-3.81-7.8-4.15-1.06-7.21.12-8.46,4.42a91.22,91.22,0,0,0-2.79,11.35C2184.74,1435.76,2182.08,1437.65,2177.56,1437.55Zm-1909,34.23,2.22,2c-3.23,6-1.61,11.52,2.57,16.12,4.68,5.16,11.94,6.45,16.83,2.87,8.42-6.16,19.1-6.44,27.33-12.92,1.3,8.26,4.5,14,13.77,14.14,8,.16,12.59-5.55,18.41-10.47,2.24,7.49,6.86,11,13.88,10.5,6.7-.49,11.55-4.57,16-10.65,2.22,8.17,6.5,11.51,13.95,9.17,6.16-1.94,9.35-7.58,13.93-11.69,5,12.09,14.29,17.56,25.15,11.3,10-5.78,21.71-4.72,30.83-11.69,3.71,11.47,7.9,14.83,16.41,13.52s14.14-7.1,19.15-13.91c6.42,12.59,13.89,16.21,26.83,13.58,9.64-2,23.67-16.15,25.44-25.64.34-1.8.32-3.42-1.36-4.4-2.49-1.44-3.51.58-4.42,2.27-2.67,4.9-5.23,9.82-9.53,13.6-5.11,4.49-10.95,6.61-17.7,5.25-5.3-1.07-7.3-5-6.88-9.94.54-6.3,5.09-2.12,7.62-2.23,6-.27,11.66-1.14,16.65-4.54,6.56-4.48,9.5-14.26,6.44-20.73-2.86-6-10.7-9-18.8-6.79-10.74,2.88-17.76,9.82-21.82,20.07-3.31,8.35-7.48,16.26-14.67,22-5.54,4.38-10.89,3.15-11.35-2.7-.63-7.89-1.19-15.27,7.68-21a51.36,51.36,0,0,0,23.55-36c.92-5.85-.61-11.43-6.22-14.33-5.45-2.83-10.25-.2-14.36,3.61-3.52,3.27-5.89,7.33-8,11.59-6.24,12.27-9.5,25.46-12.63,38.74-1.73,7.32-5.14,13.5-13,15.95l-1.5-1.5c1.7-5.85,4.05-11.5,4.19-17.78.34-15.68-9-22.61-23.8-17.35-1.39.49-2.71,1.19-5.69,2.52,3.54-10.14,6.57-18.7,9.52-27.3,1.11-3.24,3.83-7-1.7-8.89-5-1.73-7.49.55-9.27,5.38-5.5,14.88-10.58,29.86-13.94,45.39-1.94,9-6.81,16.35-12.94,23-1.29,1.38-3,2.94-5.12,1.79-1.74-1-1.21-2.9-.86-4.51,1.71-7.87,3.59-15.71,5.12-23.61.38-2,1.18-1.9,2.67-2a4.79,4.79,0,0,0,4.79-4.84c.2-3-2.32-4.26-4.44-5.53-10.09-6.06-24.06-4.31-34.28,4.07-6.88,5.64-11.08,13.12-14.73,21-2.74,5.9-6.27,11.24-11.68,14.95-3.77,2.58-8,2.78-9.19-2.53-2.37-10.2,1.76-19.79,4.55-29.26,1.7-5.72,7.83-1.89,11.81-3,2.76-.76,4.69-2,4.68-4.94,0-3.3-2.21-3.94-5.11-3.92-2.41,0-5,.77-7.63-1.06,2.2-6.48,4.34-13.06,6.67-19.58,1.14-3.19,1.65-6.18-2.19-7.62s-7.1-.92-8.64,3.67c-1.67,5-3.57,10-5.33,14.93-1.51,4.26-1.62,9.41-8.42,9.32-2.65,0-3.6,3.48-2,5.17,9.49,10.25.08,18.34-2.91,27-1,2.83-3.73,4.84-6.56,6.2-3.45,1.66-6.27,2.36-6.36-3.28-.09-5.94-2.86-11.23-4.92-16.7s-5.36-10.83-2.95-17.52c1.4-3.89-2.09-5.28-5.57-5-3.88.25-6.54,2.72-9.09,5.41-7.42,7.84-11.06,17.94-16.19,27.14-2.86,5.11-5.5,10.32-9.9,14.34-1.46,1.34-3.2,2.87-5.15,1.66-1.5-.94-1.16-3-.8-4.66,1.39-6.24,2.8-12.48,4.34-18.68.83-3.3.82-6.43,5.76-7.85,4.48-1.28,3.66-5.77-.32-8.19-8.89-5.41-18.22-6.25-27.87-2-10.89,4.83-17.06,13.94-21.84,24.23-3,6.39-6.45,12.43-12.26,16.58-5.08,3.62-9.23,1.66-10-4.47a35.51,35.51,0,0,1,1.3-13.23c2.25-8.62,1.54-19.8,16-17.31,2.68.45,4.53-2,4.37-5-.11-2.28-1.65-3.74-3.87-3.38-12.37,2-7.91-5-5.83-10.77,1-2.88,1.9-5.81,2.9-8.7,1.21-3.43,3.17-7.13-1.88-9.07-5.21-2-7.6,1-9.07,5.58-1.77,5.56-3.71,11.08-5.74,16.55-1,2.73-1.57,5.35-5.86,5.75-5.29.49-5.64,4.74-1.63,7.2,3.61,2.21,2.45,4.21,1.8,6.8-2.26,8.92-4.5,17.87-3.79,27.17.94,12.26,11.66,17.82,22.22,11.41,3.28-2,6-4.88,9.42-7.72,2.58,6.48,6.74,10.89,14.31,10.19,6.74-.62,11.3-5,15.56-10,5.29,10.62,12,11.85,20.7,4.51C261.73,1483.94,264.64,1477.5,268.53,1471.78ZM1669.09,1651.5c-5.19.26-9.33,3.38-13.94,5.18-12,4.67-14.24,3.44-16.94-9.08-1.27-5.94-.44-12.42-3.91-18.65a369.85,369.85,0,0,0-25.56,34.07c-9,13.44-17.07,27.42-21,43.33-.72,2.88-2.31,6.08.36,8.67,7.36,7.17,12.16,16.14,17.33,25.66,7.72-11.56,7-26.07,17.11-36,2.5,7.42,4.32,14.07,7,20.35,1.8,4.19.77,6.41-2.52,9.09-6.71,5.47-11.1,12.73-11.94,21.35-2.21,22.58,9.58,41.56,16.64,61.74a2.18,2.18,0,0,0,2.61,1.38c5.28-.67,20-16.45,20.36-22.12a180.68,180.68,0,0,1,12.57-54.92c.74-1.83.84-4.31,4.41-5.06-.78,26,10.39,47.45,24.83,67.72,3.18,4.47,5.48,5.77,10.34,1.89a107.72,107.72,0,0,0,33.24-45.22c1.51-3.77,1.55-8.14,2.34-12.21.6-3.15,2.6-5.18,5.78-4.85,4.33.44,2,3.69,1.84,5.81a35.2,35.2,0,0,0,.38,10.79c3,14.36,11.29,27.66,6.86,44.13,17.39-10,41.21-63.94,38-84-7.29,20.28-11.12,41.31-22.25,61.57-.77-5.46.25-8.64.86-11.9,3.73-20.19,10.84-39.8,10.43-60.71-.19-10.14-3-19.16-10.63-26.28-3.4-3.17-6-4.85-7.66,1.61-1.49,5.66-4.27,10.8-11.16,13.19a62.35,62.35,0,0,1,1.36-7.81c3.87-12.31.86-21.47-9.69-29.85-13.72-10.9-23.49-24.93-22.37-46.28-9.48,15.4-15.22,30.06-25.64,41.76l-1.66-1.67c.19-6.45,3.54-12.64,1.73-20.72-14.19,11.71-21.94,27.06-32,41.82-1.77-9.17,2.75-16.19,2.57-23.78.59.54,1,.43,1.14-.36,0-.23-.16-.5-.25-.75ZM1156.43,552.06c9,3.67,11.7,12.12,15.11,20,2.88,6.65,5.37,13.56,11.15,18.39,8.77,7.32,15.58,5,18-6.16,1.53-7.14,1.41-14.38.89-21.63-.28-3.78-1.39-7.7,1.42-11.48,8.11,6,10.17,15.13,13,23.79,2.48,7.71,4.61,15.62,11.19,21.09s12.06,3.66,14.4-4.49c1.87-6.51,1.27-13.27,1.34-19.94,0-4.51.34-9,3-12.81s5.55-5.05,7.48.55c1.72,5,3.15,10.08,4.54,15.17,2.21,8,3.76,16.22,8.53,23.37,3.68,5.54,8.87,6.25,14.64,5.57,5.61-.66,6.87-5.48,7.72-9.69,1.32-6.52,1.74-13.23,2.48-19.87.63-5.56,1.45-11.08,5-15.7,2.41-3.19,4.63-3.09,5.58,1,1.19,5.14,2.11,10.34,2.92,15.56,1.58,10.12,1.17,20.71,6.59,29.92,6,10.27,13.92,10.24,19.36,0,3.74-7,4-15,5.7-22.59,1.39-6.22,2.38-12.58,8-17.7,4.8,14.16,9.76,27.9,9.4,42.52-.23,9.4.32,15.36,12,16.63,5.49.59,7.39.27,8.81-4.43,2.81-9.32,5.48-18.68,8.52-27.93,2-6.2,4-12.56,10.3-17.54,3.82,15.42,4.52,30.35,4.81,45.31.08,4.45-1.2,9.29.13,13.28,1.83,5.43,8.48,1.46,12.16,4.22,5.16,3.87,7.33.35,9.14-3.75,4.94-11.21,9.69-22.49,14.75-33.64,1.85-4.07,3.59-8.41,8.45-12.11.86,6.44,1.94,11.58,2.16,16.76.6,14.16,1.14,28.33,1.08,42.5,0,6.6,2.9,7.34,8.2,6.29,9.71-1.92,15.41-8.33,19.39-16.78,3.2-6.79,5.56-14,10-20.17,1.89-2.63,4-6.86,7.29-5.91,3,.87,3.32,5.54,3.68,8.76a49.41,49.41,0,0,1-.57,16.62c-2.25,9.77-4.48,19.54-6.5,29.35-.38,1.89-2.12,4.24.66,5.95,8.42,5.2,16.85,3.88,23.9-3.85,6.87-7.54,10.17-17.21,15.29-25.79,3.19-5.32,6.23-10.82,12.67-13.7a40.48,40.48,0,0,1,.77,20.38c-2.09,10.64-4.54,21.22-6.45,31.9-.83,4.68-1,9.79,4.1,12.59,5.45,3,11.11,3.51,16.62-.13,4.31-2.85,7.24-6.94,9.86-11.22,3.79-6.16,7.13-12.6,11-18.71,3-4.81,6-9.9,12.44-12.77.07,11.16-3.18,20.89-5.14,30.82-2,10.36-5.34,20.61-4.18,31.31,1.39,13,5.89,14.94,16.59,7.8,7.76-5.18,13.47-12.44,19.44-19.43,4.52-5.28,8.81-10.89,15-14.29,1.85-1,4.77-2.06,6.24-1.28,2.13,1.13.76,4,.35,6.15-1.93,10.21-6.56,19.49-10.18,29.11-2.47,6.55-4.67,13.14-4.63,20.22.06,11.73,5.6,15.34,16.75,11.07,5-1.94,9.16-5.25,13-9,5-4.85,9.88-9.82,14.8-14.75,2.77-2.77,5.73-5.34,9.4-6.8,1.45-.58,3-1.77,4.72-.71,2.23,1.39,1.18,3.42.82,5.25-1.75,9.14-6.11,17.27-9.86,25.64-3.08,6.88-6.72,13.91-5.51,21.56,2.18,13.7,7.26,17.36,19.81,11.48,7.52-3.53,12.68-9.87,17.91-16,3.6-4.24,7-8.66,10.9-12.63,2.71-2.76,6.53-6.18,10.18-4,3.46,2.11.89,6.59.09,9.94-2.72,11.24-9.26,20.8-13.93,31.19-2.89,6.43-5.13,13-3.44,20.18,2,8.58,6,10.9,14.46,9.07,10.11-2.18,17-9.1,24-15.86,3.81-3.66,7.31-7.75,12.24-10,2.22-1,4.94-2.29,7-.08,1.76,1.87.29,4.18-.33,6.26-2.92,9.75-8.91,17.87-14,26.47-3.69,6.21-7.67,12.37-7,20.15.93,10.4,8.51,14.91,18,10.71,8.33-3.72,14.41-10.33,21.23-16,5.26-4.4,9.65-10.7,17.79-10.32.52,7.31-3.07,13.34-6.29,19.4-4.29,8.08-9.16,15.87-13.21,24.06-3.15,6.38-3.84,13.19-.84,20.09,2.08,4.78,5,6.55,10.42,5.6,10.26-1.81,18.37-7.45,26.4-13.44,5.74-4.29,11.19-9.11,19.71-9.86-10.54-16.09-21.66-30.9-33-45.54-.81-1.05-2.18-1.8-3.34-.08,1.89-4.88-2.41-7.06-4.66-9.83-43-53.06-91.88-100.13-147.1-140.32-120-87.34-252.11-142-402.33-146.39a473.87,473.87,0,0,0-104.66,8.69c-2,.38-6.4-.34-4.86,3.48,5,12.34,3.8,25.88,8.09,38.28,2,5.85,4.92,10.77,12.27,12.31a162.46,162.46,0,0,0-2.33-45.6C1155.67,552.85,1156.05,552.46,1156.43,552.06Zm204.08,1147c-29.21,6.08-54.62,20.26-78.66,37.21-31.33,22.08-53.75,51.37-69,86.34-1.55,3.57-3.44,7.45.15,10.82,3.94,3.69,8.27,2.4,12.33,0a72.29,72.29,0,0,0,6.11-4.37c18.89-14.27,37.74-28.58,56.7-42.76,2.28-1.71,4.11-4.54,8-4.27-1.12,9.26-2.34,18.34-3.3,27.45-.53,5.1-3.13,8.06-8,9.46-18.33,5.31-30.52,17.75-39,34.22-11.68,22.64-11.81,47.17-11.39,71.77.06,4,2.13,4.45,5.34,4.32,10.87-.43,21.74-1,32.26-4,16.84-4.78,30.3-13.94,37.36-30.64,2.78-6.56,4.14-13.4,1.68-21.21-20.22,17.07-41.11,31.24-64.34,41.79-.39-.5-.77-1-1.16-1.49,25.37-28.37,52-54.94,91.1-65.71a19.55,19.55,0,0,1-.25,2.48c-1.06,2.57-2.18,5.11-3.21,7.69-12.68,31.58-15.89,64-9.25,97.46,1.06,5.34,2.83,6.55,8.24,5.92,26.63-3.1,49.75-13.56,69.46-31.64,4.92-4.5,9.52-9.38,14.63-13.66,3.51-3,7.67-5,13.21-3a71.88,71.88,0,0,0-11.38,23.56c-5.19,19.06-5.84,39.53-19,56.48,24.41.56,84.75-44.27,94.66-71.09-20,18.74-38.3,36-58.92,50.59a21.32,21.32,0,0,1,3.93-7.09c10.93-13.37,22.11-26.54,32.84-40.07,10.56-13.3,21-26.78,27.32-42.79,4.24-10.66,4.22-21.07-1.48-31.34-2.25-4.06-3.93-5.08-7.79-1.34-5.74,5.54-12.52,9.3-21.89,8.69a35.15,35.15,0,0,1,1.74-4.38c1.18-1.88,2.21-4,3.83-5.44,14-12.39,13.71-26.84,6.68-42.53a78.14,78.14,0,0,1-6.64-42.39c.93-7.34,3.07-14.53,4.81-22.48-16.29,12.41-34.26,20.07-54.16,27.53l12.89-26c-23.17,5.9-42.78,16.23-62.06,27.31l-1.38-1.1c3.75-9.24,11-16.07,17.64-24.43-10.56-1.36-20.1-2.86-29.7-3.75-7.73-.72-9.72-4.66-8.56-11.78,1.65-10.15,5.61-19.58,8.46-29.35l1.07-.93Zm-207.33,155.85c-9.59-2.56-17.7-8-25.6-13.64-14.28-10.27-26.92-22.48-40.15-34-4.67-4.06-9.55-7.89-15.5-12.79,1.13,10.63,6.39,17.16,12,23.22,7.57,8.15,15.73,15.75,23.5,23.72,1.54,1.59,5,2.88,3.23,5.8s-5.09,2.16-7.62,1.1a61.25,61.25,0,0,1-10.23-5.54c-5.13-3.45-10-7.25-16.89-12.27,5.9,12.29,14,19.25,23.44,24.62,18.5,10.49,38.89,14.64,59.74,17.15,4.23.51,5.08-1.1,5.42-4.88,2.16-24,2.55-47.9-2.41-71.54-6.59-31.47-20.51-57.21-54.85-65.61-2.48-.61-3.89-1.35-4-4.2-.79-14.26-.89-28.59-4.67-43,9.07,1.25,14.82,6.45,19.61,12,15.67,18.28,33.73,33.83,52.6,48.59,6.37,5,12.32,10.6,20.54,12.34,3.78.8,8,1.69,11-1.78,3.32-3.87,1.73-8.12-.65-11.61-8.07-11.85-12.7-25.34-18.74-38.15-11.75-24.94-26.57-47.74-47.33-66.08-32.39-28.63-70-49.26-108.32-68.53-.31-.16-.9.23-2,.57,1,4,2.08,8,3,12,2.35,10.28,6.74,20.1,7.06,30.82.35,11.83-1.82,14-13.63,14.92-12.38,1-24.89-.75-38.37,1.61,10.55,10.52,19.92,20.77,24.51,34.3a12.78,12.78,0,0,0-1.15,1.06c-3.26-2.06-6.61-4-9.79-6.21-19-13.14-38.4-25.74-60.11-34.15-2.65-1-6.27-3.65-8.41-.72-1.88,2.59.87,5.8,2.53,8.31,5.95,8.94,12,17.79,19.52,28.78-29.26-12.88-50.43-33.63-75.15-50.68,0,2.25-.27,3.14,0,3.73,8.48,16.2,10.33,33.12,6.75,51-3,14.89-7.59,29.2-15,42.3-7.61,13.55-5.55,25.28,3,37.24,4.58,6.44,9.92,12.48,13.39,20.4-12.52.4-20.29-6.53-27.56-14.47-6.67-7.28-6.72-7.26-11.35,1.68-9.41,18.22-6.25,36.12,1.42,53.89,8.58,19.87,21.52,37,34.16,54.32,12,16.39,25.22,31.88,35.3,49.63l-1.29,1.38a178.11,178.11,0,0,1-26.39-24.12c-18.26-20.14-36.3-40.46-54.43-60.71-.52-.5-1.34-1.52-1.52-1.42-1.42.82-.35,1.72.1,2.59,4.08,8.61,9.53,16.35,15.37,23.81,17.37,22.22,36.94,42.46,57.36,61.8,13.93,13.18,30.37,22.32,52.67,23.88-17.78-19.73-17.78-42.83-19.68-65.55-.92-10.91-4.82-21.08-10.64-30.49-1.24-2-5.25-4-2.13-6.85a9.06,9.06,0,0,1,9.41-1.79,13,13,0,0,1,7.5,7.48c5,11.75,14.27,19.71,24,27.29,22.88,17.9,47.79,31.57,76.73,36.86,3.21.59,6.58,2,7.69-3.15,6.62-31.16,12-62.36,6.3-94.38-2.71-15.3-8.12-29.68-14.87-44.62,17.94,2.16,31.6,10.46,44.23,20.68,25.67,20.77,46.69,46.14,68.87,70.35Zm179.91-576.23-.19-.15c-.72,2.79-3.44,3.43-5.38,4.79a347,347,0,0,1-57.17,32.65c-28.49,12.75-57.15,24.94-89.26,25.18a50.27,50.27,0,0,0-18.78,3.6c-7.14,2.93-12.37,7.61-15.33,15.77,68-2.73,132-19.91,196.06-37.9a84.31,84.31,0,0,1-11.72,10.76,258.59,258.59,0,0,1-44.91,27.19c-36.43,17.66-75.07,29.3-113.44,41.66-14.32,4.61-28.6,9.33-42.9,14,39.07-1.24,77.11-7.65,114.74-16.9,37.37-9.18,73.62-21.83,109.72-35.17-63.18,56-140,83.73-219.32,106.29a24.5,24.5,0,0,0,6.52.36c45.65-4.23,90-14.36,133.42-29,29.53-10,58.11-22.33,87.18-33.48l.84.81c-10.19,11.14-22.51,19.72-34.7,28.38-45,31.94-94.67,54.9-145.5,75.66-2.59,1.06-6,1.16-8,5.47,34.88-5.08,67.46-15,99.62-26.49,32.33-11.54,63.56-25.87,95.84-39.25-.13,4.72-3.1,5.83-5.05,7.53a466.21,466.21,0,0,1-39.62,30.63c-29.94,20.9-62,38.19-94,55.73-1.27.62-3.94,1.15-3.3,2.15,1,1.57,3.18.77,4.58-.66,4.36-.88,8.77-1.54,13.06-2.67,139.08-36.78,278-74.39,419.79-99.57,4.51-.8,5.72-3.13,6.81-6.92,4.62-16,9.25-32.08,14.37-48,22.63-70.15,30.47-141.71,22.62-215.16-10.89-101.94-48.84-192.45-113-272.17A522.54,522.54,0,0,0,1527,832.45c5.1-1.61,8,1.54,11.24,3.46a442.92,442.92,0,0,1,130.67,119.15c76.68,104.3,108.31,223.1,111.63,350.77,1,38.48-1.72,76.84-6.65,115-.84,6.5,1,7.28,6.38,6,10-2.42,20-5.26,30.1-6.85,6-.94,8.37-3.76,9.82-9.19,3.16-11.82,7.2-23.4,10.32-35.23,24.09-91.2,28.4-183,6.33-275.16-26.74-111.77-84.83-205.44-168.68-282.77-142.6-131.53-313.5-195.78-505.56-207.5-7.91-.49-13.94-3.17-19.12-8.54-8.13-8.41-15.94-17.14-24.21-25.41-5.28-5.27-10.85-10.42-18.77-11.59l-1.09-.86c0,.27-.13.61,0,.79.43.65.88.58,1.22-.14,4.3,11.76,9,23.37,9.26,36.23.2,9-1.48,16.61-7.69,23.74-8.71,10-19.67,14.36-32.22,15.37-5.49.44-9.17,2.62-12.7,6.64-66,75.13-128.49,153.07-184.34,236.14-29.51,43.9-57.36,88.8-81.24,136.06-.37.83-1.59,1.7-.42,2.57s1.55-.48,2-1.25a6.22,6.22,0,0,0,1.28-1c42.06-57.93,94.78-103.91,156.64-139.6,3.59-2.08,4.1-4.18,3.52-8-4.76-31.37,6-51,35-64.32,19.79-9.1,40.9-12.7,62.34-14.28,7.11-.52,10.85-3.91,12.76-9.84,2.3-7.13,3.72-14.54,5.91-21.71,1.37-4.47,2.42-9.51,8.76-11.64-.59,3.51-1,6.24-1.51,8.92-8,38.63-28.62,69.62-58.06,95.2-26.25,22.8-56.33,39.8-86.17,57.19C907,926.31,879.33,940.88,857,962.52c-87.12,84.47-136.88,186.7-143.89,308.64-1.24,21.39-1,42.92-7.1,63.73-3.12,10.68-8,20.25-18.23,26-3.31,1.86-7.47,4.92-10.61,2.61-2.23-1.65.58-6,1.38-9.16.9-3.5,2-7,2.88-10.45,2.64-10,4.57-20.14,2.85-30.56-2-12.09-11.41-16.34-21.87-9.75-3,1.9-5.58,4.57-8.19,7.06-2.86,2.73-5.09,2.41-6-1.42-2.69-11.93.69-22.6,7.74-32.17,5.89-8,14.43-6.2,22.26-4.67,14.58,2.86,14.84,3.2,16.77-11.66,3.64-27.92,11.3-55.09,15-83,1.17-8.77,2.91-17.69.72-26.71-14.75,34.06-35.48,64.56-52.53,97a305.74,305.74,0,0,0-20.59,48.31c-.86,2.68-2.84,5.43-.3,8.62,9.39,11.79,13.37,26.13,18.43,40,4.12,11.22,7.78,22.67,14.62,32.66,5.55,8.09,12.34,14.12,22.92,14.86,6.76.47,9.73-1.48,11.09-8.61,4.33-22.67,8.77-45.36,16.49-67.21,5.91-16.72,13.45-32.53,27.5-44.1,26-21.43,65.09-18.14,88.51,6.82,21.33,22.74,28.69,72.18,1.22,96.49a238.71,238.71,0,0,0-19.52,19.44c-5.4,6-9.49,12.93-9,22.64,13.37-9.48,28.42-12.67,43-17.11,25.76-7.84,37.88-28,33.07-54.59a170.41,170.41,0,0,0-7.09-25.73c-10.19-29.28-10.56-58.86-3.25-88.82,5-20.35,12.6-39.78,20.1-59.24,3.61-9.35,3.91-17.68-2.41-25.9-2.09-2.72-4.39-5.73-2.72-10.46,12.93,15.72,27.29,29.23,44.41,39.38,58.19,34.55,118.87,35.17,180.72,11.78,35.11-13.28,64.92-34.54,87.3-65,37.3-50.76,40.1-105.67,18.11-163.19-1.23-3.22-3.76-6.16-1.48-10.15,5.8-10.17,11.35-20.51,20.12-28.55,7.45-6.81,16-11.36,26.91-12.35-2.83,35.11,2.78,69.06,4.78,103.21,2,34.42,2.29,68.63-17.24,99.72a20.79,20.79,0,0,0,3.25.22,41.49,41.49,0,0,0,4.08-.82c20.51-4.84,38.11-15.18,54.17-28.52,17.25-14.32,31.43-31.53,45.73-48.62,2.33-2.78,4.64-5.57,7-8.29s4.84-5.34,7.27-8c-6,24.13-16.77,45.62-30.74,65.57-24.57,35.08-56.87,62.51-89.11,90-7.74,6.6-7.8,6.68,1.37,10.82,17.78,8,36.57,8.9,55.65,7.62,17.21-1.14,33.83-5.05,51.18-11.67-7.74,16-20.62,22.7-34.93,27.38-16.21,5.3-33.17,7-49.87,10-14.82,2.62-29.67,5.19-43.17,12.3-7,3.67-13.36,8.15-17.36,16,36.79,3.59,70.84-12.23,108.78-9.36-19.13,9.52-35.93,18-52.87,26.26a139.63,139.63,0,0,1-49.51,14c-10.5.9-21,2.41-31,6.26-9.47,3.65-16.65,9.57-20.19,20.19,3.21,0,5.66.11,8.1,0,36-1.91,71.4-7.41,106.67-14.43C1303.39,1284.89,1317.86,1279.92,1333.09,1278.69ZM939.55,518.28a141.17,141.17,0,0,1,25.83-10.61c37-11.22,74-7.9,110.33,2.51,16.68,4.78,32.68,7.31,49.8,4,10.34-2,21-2.56,31.53-3.4,80.37-6.39,160.32-3.52,239.44,12.72,268.19,55,485.46,256.88,559.44,520.59,23.31,83.09,34.44,167.82,25.89,254.33-.55,5.55.87,7.12,6.49,7,40.66-.69,81.33-1.09,122-1.55,83-.94,166-2,249-2.53,8.52,0,10.12-3,10.22-10.31.46-34.54.81-69-.89-103.59a1100.24,1100.24,0,0,0-43.3-257.11q-77.88-265.05-269.43-464.28Q1897.57,301.23,1687.33,211.2q-188.14-80.61-392.71-89.13c-113.16-4.87-224.73,6.49-334.27,35.54Q653.77,238.94,433.84,467.69,250.66,658.27,171.76,910.85A1103,1103,0,0,0,125.26,1148a1172,1172,0,0,0-1.78,173.56c.38,6,2.25,7.29,7.87,7.29,28.42,0,56.83.52,85.24.64q103.25.43,206.49.67c26.19.08,52.39.1,78.57.42,13.07.16,13,.44,11.59-12.29-7.55-67.86-7.53-135.58,3.42-203.16q30.6-188.76,153.4-335.25c56.17-67.13,123.4-121.24,198.37-166,2.3-1.38,5.25-2,6.65-5.09-7.89-7.16-12.71-16.89-19.82-24.62-6-6.56-3.46-8.63,2.63-12.27,28.06-16.77,58.66-21.81,90.71-20.69,8.12.28,16.23.89,26.06,1.45C963.59,539.15,952.24,528.63,939.55,518.28Zm-697,1235C434.89,2139.69,879.87,2432.63,1407,2358.53c185.2-26,353.34-95.65,504-206.49s266.51-251,348.81-419.94c-35.74,0-69.74-.06-103.73,0q-155.51.29-311,.56c-8.54,0-16.75-.81-19.83,9.82-.42,1.47-2,2.65-3.14,3.86-9,9.48-19.11,18.07-22.41,31.61-.7,2.88-3.19,3.36-5.16,1.49-6.26-5.94-6.79-.21-8.23,3.81-.75,2.1-1.36,4.25-2.21,6.3-6,14.51-12.39,28.6-31.54,28.76a5.81,5.81,0,0,0-2.95,1.43c-16.61,12.42-36.31,21-48.13,39.41-2.57,4-6.8,8.16-11.61,7-13.31-3.16-23.91,2.91-34.8,8.47-6.63,3.4-13.32,5.76-20.75,2.72-2.81-1.15-4.77.66-6.91,1.87-14,7.9-27.65,15.94-39.22,27.79-11.8,12.08-27.21,20.66-38.74,33-18.58,19.79-41,32.06-66.2,40.38-5.69,1.88-11.35,1.15-14.47-3.22-3.54-5-5.11-3.39-8.48-.37-15.58,14-33,24.81-53.9,28.66-14,2.57-28.26,1.86-42.37,2-23.66.2-47.24-1.33-69.64,9.25-7.47,3.53-15.48,2.36-22.31-4.22-6-5.8-14.16-7.51-22.44-7.64-7.24-.12-14.49,0-21.74,0-14.49-.2-23.06-6-27.53-19.7-1.38-4.21-3.64-4.67-7.19-5-16.06-1.63-32.08-3.65-48.14-5.2-12-1.16-23.74.89-33.21,8.47-7.71,6.17-15.25,6-23.37,2.84a120.75,120.75,0,0,1-17.28-8.28,103.55,103.55,0,0,0-33.52-12.31c-12.32-2.28-24.69-4.2-37-6.47-14.34-2.64-28.12-5.58-43.17-.7-12.46,4-24.51-2.48-35.1-9.78-12.95-8.94-23.64-20.33-33.91-32.09-3.4-3.9-5.14-3.58-7.87.49-3.23,4.82-6.11,10.13-11.32,13.21-2.79,1.65-5.73,3.61-8.57-.62-11.09-16.5-27.51-26.49-44.4-35.88-10.74-6-21.29-12.28-29.27-21.89-13.21-15.91-28.14-30-43.66-43.67-22.34-19.62-40.66-42.16-46.94-72.26-1.17-5.6-4.86-4.13-8.21-4.12q-108.24.56-216.5,1.12-63.52.3-127.07.33C311,1753.28,277.31,1753.24,242.51,1753.24Zm489.38-80.13c.7,46,38.14,100,80.74,117.35,6,2.44,6-1,6.43-4.42,1.8-16.33,8.17-31.07,15-45.76,9.63-20.67,19.17-41.4,26.14-63.19,7.2-22.53,6.17-44.58-5.09-65.55-11.06-20.61-30.74-29.41-53.48-23.9-27.29,6.6-45,25.44-59.23,48.24A67.27,67.27,0,0,0,731.89,1673.11Zm1206-289.67a614.38,614.38,0,0,0,1.77-266.91c-18.23-85.55-52.88-164-101.87-237.49-8.31,15.75-14.49,31-24.14,44.39-3.29,4.55-9.07,8.87-.31,13.92,1.59.91,2.43,3.76,2.91,5.87,1.83,8,7,8.13,13.33,6,7.58-2.48,13.51-7.62,19.88-12.09,4-2.78,8.82-8.08,13-4.34,3.49,3.15-1.17,8.69-3.24,12.66-4.74,9.13-10.51,17.73-15,27-5.45,11.14-3.38,19,5.25,27,3.86,3.58,6.88,4.29,11.38.78,7-5.47,14.46-10.45,22.78-13.81,1.92-.77,4.51-2.27,6.16-.13,1.24,1.62-.48,3.61-1.29,5.34-4,8.64-10.38,15.79-15.55,23.71-5.73,8.79-8.79,18-4.67,28.39,3.87,9.77,9.77,12.41,19.55,8.15,4.31-1.88,8.25-4.6,12.47-6.71a5.41,5.41,0,0,1,6.83,1.34c2.26,2.43.12,4.22-1,5.84-4.07,5.64-8.43,11.07-12.57,16.67-6,8.16-7.5,17.2-4.65,26.91,2.8,9.55,6.66,11.61,16.13,8.69,2.92-.9,5.77-2,8.71-2.91a6,6,0,0,1,6.77,2.07c2.31,2.9-.55,4.52-2,6.27-3.05,3.61-6.58,6.85-9.37,10.63-7.38,10-7.37,22-1,32,4.84,7.59,12.27,8.07,22.33,7.45-12.63,10.8-16.38,22.5-14.77,36.6.92,8,2.7,12.89,12.17,11.76,4.07-.49,9.08.28,5.86,7.11-6.32,13.41-7.61,27.78-7.67,42.36C1925.71,1300.13,1937.14,1341.27,1937.91,1383.44ZM981.78,1613c4.13-.33,11.9-.86,19.66-1.58,18.21-1.69,18.2-1.73,13.87-19.57-.13-.55-.19-1.1-.33-1.64-6.11-23.4-11.23-47.16-23.13-68.59-27.36-49.3-82.39-57.14-122.48-17.61-16.88,16.64-29.16,36.44-39.9,57.32-4,7.67-2.65,11.69,5.85,14,15.64,4.28,30.21,11.27,45.34,16.8C912.19,1603.71,944.24,1612.57,981.78,1613Zm611.71,181.26c.19-30.59-25.21-64.87-50.72-72.4-19.57-5.78-36.8,1.16-46.68,19.11-8.26,15-10,31.09-6.41,47.69,3.08,14.13,8.06,27.71,12.93,41.31,6,16.69,13.8,32.9,14.16,51.12.09,4.66,2.27,4,5.26,2.91a97.87,97.87,0,0,0,32.66-19.65C1576.67,1844.48,1591.47,1820.75,1593.49,1794.3Zm-176-62.22c30.91.64,65.24-13.66,100.64-22.85,3.38-.88,6.39-3.07,4.27-8.08-8.52-20.1-18.29-39.43-34-55-13.23-13.13-28.79-20.53-48-18.58-25,2.52-40.75,17.37-51.91,38.4-9.31,17.53-14.46,36.67-21.07,55.25-1.6,4.49.48,5.06,3.92,6C1384.25,1730.6,1397.45,1732.12,1417.44,1732.08ZM1128,1602.7c-12.48-63.22-93.4-129.17-150.29-121,27.7,3.82,46.89,18,62.77,37.57a4.66,4.66,0,0,1-3.41,0c-9.52-3-19-6.14-28.55-9.17-1.57-.5-3.5-1.06-4.54.59s.65,3,1.69,4.25a34,34,0,0,0,12,8.77c23.9,10.78,46.68,23.52,67.49,39.57,2.19,1.69,5.6,2.61,5.79,6.51-4.1.92-7-1.51-10.06-3.17-9.51-5.21-18.82-10.77-28.36-15.93-8.79-4.77-17.58-9.66-27.63-11.38-3.46-.59-7.79-2.2-9.93,1.46-2.46,4.21.5,8.08,3.41,11.13,5.47,5.75,12.37,9.54,19.62,12.41,22.75,9,45.26,18.51,67.34,29.05C1112.36,1596.72,1119.7,1599.3,1128,1602.7ZM1818.1,1640c.56-33.48-20.42-50.82-50.28-54.7-22.5-2.92-37,14.28-32.91,36.51,3.27,17.52,15.61,28.31,27.38,39.75,10.14,9.86,22.48,17.59,30,29.94,3,5,5,4.65,8.25.46C1812.51,1676.66,1817.74,1659.17,1818.1,1640Zm-176.54-35.57c.12,12.6,3.08,24.84,4.64,37.25.54,4.29,2.37,5.64,6.64,4.32a143.37,143.37,0,0,0,25.47-10.29c23-12.34,39.78-32,58.46-49.4,2.65-2.47,3-5-.31-7.58-12.54-9.85-25.5-19-41.18-23.12-23.76-6.33-45.86,6.75-52.06,30.59C1641.66,1592.21,1641.56,1598.31,1641.56,1604.43ZM970.66,521c20,16.45,34.9,35.69,48.79,55.87,5.24,7.62,12.56,13.37,20.86,17.63,13.23,6.78,30.24,5.9,36.77-1.79,7.79-9.18,6.79-23.67-3.15-37-12.32-16.5-28.32-28.15-48.08-34.29C1008,515.89,990,515.52,970.66,521ZM207,1671c4.26,13.53,11,24.94,14.74,37.29,3.85,12.62,11.78,15.67,23.63,16.76,65.35,6,130.67,4.43,196,.56,1.24-.07,2.91.38,3-2-1-.15-2.1-.38-3.17-.43-44.21-2-88.36-5.17-131.93-13.2C273.4,1703.42,236.85,1697.68,207,1671Zm213.23,13c-4.68-.87-8.93-1.88-13.24-2.44-48.31-6.23-96.18-14.68-142.91-28.67-27.3-8.18-53.84-18.28-78.74-35.34a159.42,159.42,0,0,0,13.05,34c2.2,4.38,5.29,6.52,10,7.62q46.33,10.75,93.43,17.28C341,1681.86,380.27,1684.76,420.27,1684.05Zm694.64,194c1.28,6.14,2.42,11.23,3.4,16.33,3.14,16.3,10.56,31.74,9.86,48.79-.08,1.92.66,2.44,2.19,2.66,15.57,2.2,31.06,2.85,46.14-2.82,3-1.13,6.23-3.43,5.29-6.65-4.44-15.14-5.18-31.41-13.65-45.35-1.76-2.9-3.87-4.25-7.41-4.14C1145.28,1887.39,1130.26,1885.23,1114.91,1878.05Zm954.29-180.58a1192.86,1192.86,0,0,0,124.22,4.23c23.93-.36,47.81-1.45,71.54-4.78,2.77-.39,5.65-.27,7-3.43,6-13.86,12.62-27.47,18.05-44.09-11.66,12.38-24.52,18.1-38,22.83-16.85,5.92-34.21,9.69-51.75,12.73C2156.89,1692.46,2113.1,1695.67,2069.2,1697.47Zm239.23-93.86c-20.9,14.31-42.8,22.78-65.33,29.8-22.84,7.11-46.12,12.35-69.59,16.95-22.63,4.43-45.52,7.25-68.23,11.35,7.14,1.72,14.23.37,21.31.21,55-1.24,109-9.5,162.47-22,2.43-.57,4.89-.85,6.34-3.4A113.16,113.16,0,0,0,2308.43,1603.61ZM168.71,1552.16c5.26,11.76,9.8,21.26,13.74,31,1.94,4.82,5.1,7.45,9.73,9.37,29.07,12,58.74,22.22,89.38,29.47,25.19,6,50.61,10.19,76.63,10.13-23.84-6.58-47.75-12.85-71.14-20.81C245.69,1597.26,204.35,1583,168.71,1552.16Zm1470.36,19.39c-33.77,9.32-59.07,68.58-49.45,97.2,14.13-15.44,28.05-30.5,41.75-45.77,2.35-2.62,4.71-6,3.65-9.83C1631.1,1599.05,1634.64,1585.75,1639.07,1571.55Zm277-86.07c-16,2.83-30.34,3.18-43,8-36.63,14-74.48,22.18-113,27.89a34.09,34.09,0,0,0-4.66,1.4c1.2,3.86,2.41,7.72,3.6,11.58s4.27,2,6.29,1.65c42.39-6.61,84.19-15.44,123.2-34.23C1897.37,1497.5,1906.19,1493,1916.06,1485.48ZM888.48,1261.78c14.61-8.62,29.11-16.82,43.23-25.63,10.72-6.69,19.91-15.16,25.43-26.92.86-1.84,3.14-4.17-1-4.84-8.29-1.35-14.4-7-21.61-10.5-5.91-2.86-10.75-3.9-14.68,4.13s-9.95,14.68-15.19,21.87c-5.08,7-10.48,13.74-13.88,21.74C888.12,1248,885.72,1254.54,888.48,1261.78ZM1676.79,1793c-4.15,11.3-7.07,21.41-6,32.25,1.09,11.48,8.62,20,19.37,22.23,2.4.49,4.22.83,5.6-1.75,5.94-11,16.26-17.28,26.21-24,5.78-3.87,11.64-7.68,16.44-12.8,10.42-11.09,12.61-25.11,5.63-37.55-6.92,8.86-13.72,17.59-20.55,26.3a58.28,58.28,0,0,1-18.83,16.18c-5,2.62-8.84,1.91-12.92-1.5C1685.64,1807.35,1681.39,1800.91,1676.79,1793Zm57.89-312.71c71.56,3.76,142,1.8,203.43-43.79C1870.2,1451.12,1805.5,1479.86,1734.68,1480.28Zm-460.94,456.41c-12.54,5.33-23.87,6-35.22,4.9-4.89-.46-7.78.94-10.23,5-6.17,10.14-8,21.83-11.87,32.77-1.44,4.06,2.4,5.76,5.42,7.16,6.16,2.86,12.83,3.59,19.48,4,5.23.32,11.07,1.31,15.6-.54,4-1.62,1.78-7.93,3.25-12C1264.8,1964.89,1268.86,1951.68,1273.74,1936.69Zm268.36-322.08c-.59,19-6.61,35.56-14.76,51.47-3.77,7.34-2.28,15.48,3.6,20.3s12.37,4.41,19.45-2.09c9.5-8.7,14.83-19.9,18.75-32,2.48-7.66.64-13.71-5-18.78C1557.11,1627.24,1549.89,1621.27,1542.1,1614.61ZM1950,1400.54c-57.17,13.37-113.86,28.65-169.79,46.71C1839.81,1442.68,1897.55,1431.37,1950,1400.54ZM844.45,1507.42c12.38-10.47,23.49-19.26,36.07-25.93,19.5-10.34,39.91-15.35,62-10.31,14.36,3.28,16,2.37,20.52-11.79a36,36,0,0,0,2.07-9.74c.09-3.32,3.25-7.62-.94-9.9-3.86-2.11-7.71.67-10.69,3-7.44,5.81-16,8.61-24.91,11.15a282.39,282.39,0,0,0-66.49,28.58C853.3,1487.69,846.14,1494.49,844.45,1507.42ZM728.3,1380.94c16.48-24.86,30-49.18,34.08-77.68a32.67,32.67,0,0,0-.6-13.24c-.58-2.1-.38-5.15-2.57-5.82-2.63-.81-4.19,2-5.74,3.76-16.64,19.09-25.23,41.59-27.75,66.54C724.88,1362.77,724.65,1371.12,728.3,1380.94Zm94.8,137.51c-5.93-17.75-12.78-35.46-10.4-55.92-6.24,4.93-11.08,8.65-15.81,12.52-5.28,4.32-9.83,9.07-9.63,16.65.43,15.47,3.08,30.41,9.94,44.43,2,4.07,4.43,7.81,8.3,10.25,6.19,3.9,10.94.67,15.75-3.22,5.38-4.35.76-7.25-1.22-10.4-6.81-10.81-14.46-21.17-17.78-33.82-1.89-7.24-1.32-13.27,2-18.63C805.49,1495.41,812.93,1507.33,823.1,1518.45ZM1226,1849.75c-8,1-11.53,5.52-13.68,13.09a353.18,353.18,0,0,0-12.15,64.64c-.71,7.68.71,15,5.15,21.45,1.24,1.79,2.71,4.12,5.16,3.35,2-.62,1.87-3.21,2.13-5.1Q1219.32,1898.49,1226,1849.75ZM1307,1651c11.49-8,21.08-14.69,30.64-21.41,18.11-12.73,37.73-20,60.3-16.9,3.2.44,7.09,1.57,6.36-4.23-.5-4-.64-7.72-6.54-7.39a165.92,165.92,0,0,1-22.52-.11c-18.83-1.53-34.39,4.68-47,18.65C1320.24,1628.49,1313.65,1638.33,1307,1651Zm574.87-115.31c-9.9,1-20.46.19-29.58,3.42a819.49,819.49,0,0,1-80.2,23.42c13.24,3.35,25.13,10.53,40.32,5C1836.3,1558.73,1860.88,1551.89,1881.85,1535.67Zm-81.7,226.71c22.47-27.06,37.78-71.93,26.38-96.69-1.25,11.1-4.64,20.82-12.35,28.19-6.67,6.37-11.32,12.49-8.87,22.8,1.26,5.3-1,11.48-1.85,17.25C1802.23,1742.88,1799.42,1751.66,1800.15,1762.38Zm-1000.29-193c-18.08.47-32.13,9.48-44.5,21.54-22.92,22.33-36.17,50.34-46.05,80.18-.79,2.41-4.19,6.34-.16,7.88,3.67,1.4,6.67-2,8.12-5.61a15.73,15.73,0,0,0,1.51-6.46c-.76-12.33,5.48-21.87,12.2-31.17C749.91,1609.59,773.49,1588.24,799.86,1569.43Zm712.7,85.15c-1.48-13.33-9.89-18.76-18-24.62-21.36-15.39-48-20.37-69.46-35.68-4.4-3.14-6.58-.4-6.38,4.47a54.79,54.79,0,0,0,3.91,17.8c1.78,4.54,4.16,5.65,8.88,4.4,12.77-3.38,25.33-1.89,37.6,2.75C1485.56,1629.93,1498.6,1641.09,1512.56,1654.58ZM732.7,1799.37c-.22-12.16-3.39-21.6-6-31.14s-5-19.25-2.45-29.48c3.36-13.75-.9-26.37-6.62-40.66C702.29,1735.41,708.47,1767.6,732.7,1799.37ZM1180.75,1774c4,37.39,4.52,74.82,7.74,112.09,2.76-11.94,7-23.95,5.48-36-1.5-12.22.72-22.89,5.71-33.7,1.91-4.11,3.29-9.07-3.41-11.47-3.7-1.32-2.89-4.76-2.31-7.87C1197,1780.51,1196.78,1780.08,1180.75,1774Zm478.85,37.72A54.8,54.8,0,0,1,1639,1826a5.7,5.7,0,0,0-4,5.6c-.37,9.23-.9,20.72,5,26.08,6.39,5.86,15.91-1.78,23.63-5.3a16,16,0,0,0,1.49-.75c1.82-1,2.92-2.17,2-4.65C1663.1,1836,1663.19,1824.15,1659.6,1811.71Zm-116.38-105c20.67,16.45,37.39,33.83,50.77,54.28,6,9.14,11.43,18.37,10.59,30.07-.34,4.82,1.06,9.54,8.52,10.11-7.27-31.76-18-61-43.28-82.82C1562.76,1712.22,1554.61,1708.18,1543.22,1706.66ZM1603.1,1817c-5.45,9.15-8.69,18.45-7.65,27.73,1.25,11-1.1,20.82-4.76,30.78-2.21,6-4.76,12-4.76,19.15C1606.79,1874,1613.87,1842.22,1603.1,1817ZM1586,1618.21c1.8-3.57,2.81-5.54,3.77-7.52,9.18-18.9,18.24-37.88,40.1-45.66,2-.7,3.61-1.91,2-4.33-1.42-2.11-2.88-4.31-6-2.57-3.39,1.89-6.75,3.87-10.24,5.59C1592,1575.37,1583.85,1589.8,1586,1618.21Zm146.71-85.33c5.62,8.47,3.56,17.68,2,26.8-.59,3.46-1.35,6.66,3.37,7.68,4.42,1,7.24-1.2,8.14-5.11,2.47-10.75,0-21-4.65-30.64-3.54-7.27-11.43-6.32-18.89-8.71,5.31,10.3,5.86,20.42,7.08,30.45C1732,1546.7,1732.37,1540,1732.66,1532.88ZM1715,1553c-4.64-6.73-10.54-8.25-16.65-8.56-8.88-.45-17.8-.13-26.7-.42s-17.57,3.28-26.57,1.35c-2.6-.56-6.06-2-7.54,1.1-1.28,2.73,1.57,5,3.17,7.2,6.07,8.19,8,8.46,16.08,2.75a47.16,47.16,0,0,1,23.33-8.23C1691.65,1547.08,1702.69,1549.82,1715,1553ZM1033.24,808.39c-6.17-1.71-10.47.08-14.61,2.44a47.75,47.75,0,0,1-13.77,5.63c-2.83.6-7.32-1-7.17,4.47.13,4.77.37,9.57,5,12.47,1.65,1,3.79,1.93,5.26-.07C1014.87,823.93,1025.88,818.66,1033.24,808.39Zm720.87,767.27c27.63,7.14,54.06,13.62,71.61,37.45C1816.09,1593.28,1776.8,1566.12,1754.11,1575.66Zm-177.58,129.76c6.76-14.43,3.56-28.57,2-44l-9.11,17.94c-.37.75-.76,1.49-1.06,2.26C1564,1692.63,1566.62,1700.54,1576.53,1705.42Zm250.93-78.7c1.23,18.23,14.42,32.92,14.08,51.64C1847.55,1658.13,1843,1640.88,1827.46,1626.72Zm-121.88-96.62c4.24,3.44,8,5.76,13.12,6.28C1715,1528,1715,1528,1705.58,1530.1ZM1172,1519.42c.45-.19,1.49-.31,1.78-.84.43-.8-.14-1.42-1.16-1.12-.79.24-2,.33-2.23.86C1169.86,1519.3,1171,1519.23,1172,1519.42Zm-382-495.22,1.13-1.06c-.36-.31-.91-.94-1-.87a9.47,9.47,0,0,0-1.5,1.34Z"/><path class="cls-1" d="M1005.09,673.35l1,.14-.26.65-.64-1Z"/><path class="cls-1" d="M1480.28,1969.38a3.94,3.94,0,0,1-.53.38c-.07,0-.21,0-.32-.07.32-.06.64-.11,1-.15A1.67,1.67,0,0,0,1480.28,1969.38Z"/><path class="cls-1" d="M835.49,308.87c29.61.08,55.54,25.65,54.67,54a32.39,32.39,0,0,1-1,7.42c-3.07,11.4-3.13,11.38,8.42,15.62,43.3,15.92,51.06,69.22,14.54,99.93-18.74,15.76-40.59,26.44-62.33,37-14.54,7.06-28.36,15.45-43.05,22.15-13.19,6-13.88,5.65-20.27-7-24.65-48.92-49.21-97.89-75.26-146.08-2.37-4.41-5.17-8.59-7.87-12.81-3.58-5.61-2.49-9.84,3.37-13.06,9-5,17.78-10.45,27-15.09,23.6-11.9,47.34-23.53,71.11-35.1A69.14,69.14,0,0,1,835.49,308.87Zm22,116.83a8.9,8.9,0,0,0-2.64.24c-16.4,5.62-30.79,15-45.32,24.14-2.81,1.76-1.83,4.19-.6,6.58,3.68,7.14,7.34,14.29,10.87,21.51,2.27,4.61,5.62,6.11,10.15,3.61,14.33-7.92,28.63-15.88,42.82-24,4.29-2.47,6.91-6.35,6.64-11.68C878.83,434.55,869.75,425.84,857.48,425.7Zm-20-47.67c.37-10.24-8.23-17.95-17.59-15.35-15.06,4.17-28.92,11.19-42.06,19.68-5.74,3.71-3.39,8.2-1.46,12.38,2.8,6.06,4.06,13.52,11.94,15.68.87.23,2.09-.61,3.08-1.09,12.19-6,24.4-12,36.55-18.07A17.35,17.35,0,0,0,837.47,378Z"/><path class="cls-1" d="M1730,543.18a272.43,272.43,0,0,0,1-31.57c-.1-6.56-7.18-15.83-13.16-17.33-3.81-1-5.48,1.78-7.47,4.1-9.11,10.62-15.59,23-23.21,34.64-10.2,15.58-10.57,15.65-24.9,3.77-8.36-6.93-18.11-11.88-26.42-19-5.33-4.55-6.58-8.47-1.9-13.82,16.9-19.33,30.43-41.11,45.23-62,20.12-28.36,42.31-55.2,61.53-84.22,7.64-11.54,11.25-12.43,21.77-3.66,23.75,19.81,49.79,36.52,74.39,55.19,36.62,27.79,39.43,81.17,4.54,111-14.78,12.62-32.4,17.13-51.53,12.82-5.57-1.26-7.26-.78-7.17,5.11.34,23.37-.45,46.77,1.4,70.11a64.9,64.9,0,0,1,.33,7.5c-.19,5.18-3.1,6.62-7.13,3.84-14.87-10.28-29.57-20.83-44.27-31.35-3.1-2.22-3.06-5.75-3.06-9.11C1730,567.81,1730,556.39,1730,543.18Zm81.59-85.32c.24-6-3-10.18-6.85-13.91-9-8.8-19.72-15.36-30.19-22.24-5.36-3.53-8.58-2.21-11.38,2.91A155.64,155.64,0,0,1,1745,451.57c-2.68,3.12-2.43,5.64.68,8.51a158.15,158.15,0,0,0,34.13,23.82c4.82,2.52,10.1,3.48,15.19.45C1805.06,478.36,1809.9,469.07,1811.57,457.86Z"/><path class="cls-1" d="M1141.88,287.06c-.38-20.59-1.89-41.16-.54-61.78.74-11.37,1.4-12.07,12.87-11.87,43.14.75,86.27.24,129.37-2,14.81-.76,15.88.21,15.88,14.68,0,8.63,0,17.25.22,25.88.17,6.83-2.3,10.25-9.75,10-25.88-.67-51.74,2.42-77.65.4-4.49-.34-11.08-2.67-13.11,3.77-2.53,8-3.17,16.87.94,24.44,1.89,3.5,7.76,2.11,11.82,2,18.93-.65,37.84-1.58,56.76-2.39,4.45-.18,8.91-.48,13.35-.41,11.51.18,11.87.44,12.61,11.5.6,8.88.83,17.78,1.16,26.68.28,7.58-3,11.7-11,10.75-24.46-2.87-49,2.2-73.4-.25-8.29-.83-11.67,2.08-12.18,10.85-1.16,20.39-1.56,21.36,18.45,20.36,21.14-1.05,42.3.36,63.43-1.65,22.93-2.18,25.89.83,25.47,23.49-.12,6.12-.49,12.24-.8,18.36-.24,4.59-2.31,7.17-7.31,7.08-16.13-.28-32.17,2.41-48.39.92-7.1-.65-14.4.77-21.61,1.27-24.45,1.7-49-.69-73.42,1.65-7.45.72-10.89-2.27-11.75-10.23-1.24-11.5.55-22.82.33-34.2-.47-24.49-1.18-49-1.74-73.47C1141.77,297.64,1141.88,292.35,1141.88,287.06Z"/><path class="cls-1" d="M1993.28,559.52c4.33-.24,6.86,2.11,9,4.66q14.6,17.72,28.9,35.68c2.76,3.46,3.59,7.17,1.24,11.58-30,56.16-61,111.78-88.49,169.22-2.28,4.76-5,9.31-7.75,13.83-3.21,5.3-7.66,5.93-11.51,1.23-9.69-11.82-18.56-24.31-29.13-35.42-3-3.13-1.42-6.73.58-10,3.92-6.41,7.65-12.94,11.67-19.29,2.21-3.5,2.16-6.39-.29-9.89-15.33-21.91-31.84-42.91-48.85-63.54-3.15-3.82-6.61-4.44-11.06-2.64-5.93,2.4-12,4.39-18,6.7-6.64,2.58-11.79,1.24-15.82-4.92a205.64,205.64,0,0,0-23.08-28.52c-6.78-7.17-5.52-12.21,4.2-15,22.16-6.43,44.44-12.45,66.73-18.44q64-17.19,128.17-34.17C1991.12,560.19,1992.44,559.77,1993.28,559.52Zm-26.85,69.18c-1-6.21-4.34-8.91-10-7.21-13.8,4.15-27.51,8.61-41.22,13.07-6.54,2.12-7.19,6.11-3.18,11.35,5.57,7.26,11,14.6,16.65,21.82,5.08,6.53,8.58,6.37,13.33-.75,7.22-10.85,14.3-21.8,21.39-32.74C1964.6,632.4,1965.52,630.38,1966.43,628.7Z"/><path class="cls-1" d="M613.39,715.48c-6.63-.15-8.14-4.36-9.54-8.22q-11.83-32.55-23.38-65.2c-14.58-41.45-29-83-43.69-124.37-1.88-5.29-.86-9,2.73-12.77,10.51-11.17,21.91-21.4,33.39-31.53,3.56-3.15,7.22-4.25,12.16-2,32.21,14.46,64.81,28.06,96.76,43,29,13.62,59.87,22.62,88.54,37,10.78,5.39,11.62,9.63,2.19,17.37A217.1,217.1,0,0,0,745.94,594c-4,4.57-8.14,5.19-13.29,2.38-4.39-2.4-9.22-4.12-13.31-6.94-7.83-5.37-13.87-4.62-21.19,1.94-17.83,16-35.82,31.77-53.19,48.27-4.63,4.39-5,8.32-2.51,14,11.07,24.69,10.87,24.68-8.91,42.81-5.11,4.69-9.68,10-14.44,15.07C617.15,713.59,615.24,715.57,613.39,715.48Zm-13.84-171.1c5.89,14.36,10.87,30.27,18.81,44.93,2.24,4.13,5.77,2.39,8.46.08,7.79-6.67,15.58-13.37,23.07-20.37,3.51-3.26,4.55-7.51-.48-10.36-13.27-7.53-26.6-14.95-40.17-21.93C604.34,534.21,599.48,537.91,599.55,544.38Z"/><path class="cls-1" d="M520.9,878.22a179.39,179.39,0,0,1-22.37,70.22c-11.23,20.19-30.62,31-50.82,40.32-4.23,2-7.13.22-8.63-3.73A137.65,137.65,0,0,0,425,957.63c-3.79-5.72-2.59-10.11,3.79-13.54,22.39-12.06,34.38-31.67,39.93-55.89,2.12-9.27-.5-17.89-6.94-21.33-6.69-3.57-14.68-1-21.06,7-5.95,7.46-9.91,16.13-14.16,24.57-9.45,18.77-23.75,33-41.59,43.48-16.56,9.72-33.18,4.18-48.78-3-26.06-12-37.86-35.87-33.38-66.37,5.29-35.92,21.61-65.75,50.35-88.4,8.58-6.76,10.3-6.82,16.56,2,5.45,7.71,10.12,16,14.93,24.13,2.8,4.73,2.05,8.62-2.65,12.26-14.18,10.94-22.42,26-27.95,42.66a33.36,33.36,0,0,0-1.51,9.84,12.83,12.83,0,0,0,8,12.61c5.25,2.4,9.77.53,14-2.68,3.66-2.8,5.74-6.83,7.67-10.82,8.59-17.77,20.51-33.27,34.55-46.8,20.9-20.15,45-24.4,67.24-13.56C510.31,826.58,522.88,848.64,520.9,878.22Z"/><path class="cls-1" d="M1573.22,437.58c8.69.16,17.34-.5,25.53-3.47,5.9-2.14,9.42.25,11.24,5.22,4.28,11.75,8.06,23.7,12.07,35.56,1.65,4.9-1.58,6.29-5.23,7.64-19,7-38.37,9.59-58.21,4.49-21.39-5.49-41.81-12.78-59.48-27.12-23.58-19.15-35.63-42.73-36.22-73.47-.64-33.36,11.73-61,33.76-84.43,33.08-35.19,83.65-41.23,128.29-17.93,21,11,35,27.91,46.38,47.76,2.8,4.86,2,8.52-3.13,10.91q-15.87,7.39-31.81,14.64c-6.45,2.93-9-2-11.85-6.13-12.5-17.91-29.35-27.35-51.51-27.55-13.06-.11-24.15,3.79-32.94,13.39-12.65,13.82-20,30.25-21,48.89C1517.35,417,1545.05,439.6,1573.22,437.58Z"/><path class="cls-1" d="M2147.7,899.55c-4.2.2-6.3-2.35-7.29-5.73-7.39-25.25-21.89-47.46-30.79-72.06-3.53-9.75-4.33-9.94-13.89-6-5.92,2.44-11.72,5.21-17.74,7.34-6.21,2.19-7.7,5.68-4.47,11.4,11.37,20.15,18,42.51,29.24,62.74,6.74,12.12,5.31,15-7.71,20.37-7.71,3.17-15.51,6.15-23.1,9.59-7.38,3.34-11.78.87-13.85-6.45-5.87-20.73-17.07-39.25-24.44-59.35a49,49,0,0,0-1.94-4.62c-4.66-9.53-5.21-9.65-15.14-5.53-15.41,6.38-30.93,12.52-46.3,19-5.22,2.2-9,1.83-11.52-3.77-5.62-12.4-11.37-24.74-17.11-37.08-2.19-4.71-.93-7.64,3.83-10,14.24-7,28.35-14.08,43.29-19.64,24.5-9.13,47.2-22.4,71.58-31.95,19.94-7.81,39.57-16.43,59.22-25,5.55-2.4,8.78-1.34,11.08,4.29,16.11,39.37,34.41,77.77,51.46,116.73,7.92,18.09,7.36,18.18-10.86,25.32-6.46,2.52-12.58,5.89-18.89,8.79A43.11,43.11,0,0,1,2147.7,899.55Z"/><path class="cls-1" d="M2202.58,942.77c7.66-.83,9.29,3.06,10.07,7.89,7.47,46.38,17.73,92.23,26.51,138.36,1.15,6,2.46,12,3.43,18,.83,5.19-1.19,8.68-6.71,9.58-11.24,1.84-22.47,3.76-33.73,5.53-6.78,1.06-9.19-3.3-9.34-8.83-.34-13.21-5.57-25.54-6.56-38.6-.51-6.71-3.58-8.78-10.57-7.47-45.85,8.62-92.22,14.6-137.45,26.43-5.26,1.37-9.27.64-9.57-5.45-.73-14.54-5.48-28.36-7.17-42.75-.86-7.36,1.6-9.26,8-10.06,45.89-5.69,90.81-16.47,136-25.73,7.25-1.48,8.27-4.3,6.83-10.7-2.81-12.46-4.86-25.09-7.5-37.6-1.54-7.3.13-11.7,8.32-12.95C2183.58,946.84,2193.87,944.48,2202.58,942.77Z"/><path class="cls-1" d="M505.66,609.72c-.06,3-1.74,5.34-3.63,7.33-9.06,9.59-14.27,21.92-22.86,31.83-3.83,4.43-3.5,8.07,1.66,11.69C505.66,678,530.21,695.73,555.08,713c13.68,9.52,26.56,20.29,41.78,27.52,5.3,2.52,7.06,6.6,2.6,11.25-9.72,10.14-15.87,22.81-24.38,33.82-4.75,6.14-8.1,6.41-14,1.75-36.25-28.75-75.53-53.14-113.92-78.83-5.61-3.75-8.15-2.84-11.56,2.57-7,11-14.81,21.53-22,32.45-4.25,6.48-8.79,7.47-15.13,2.82-7.61-5.59-15.57-10.7-23.4-16-5.65-3.83-6.66-8-2.37-13.92,29.88-41.2,58-83.65,86.3-125.92,7.17-10.7,10.32-11.09,20.76-3.52,7,5.06,13.94,10.15,20.74,15.45C502.86,604.31,505.55,606.19,505.66,609.72Z"/><path class="cls-1" d="M981.89,459.75c-8.64.86-9.87-3.9-10.71-8.71-4.93-28.23-12.77-55.8-19.39-83.63-7.2-30.3-15.72-60.29-23.94-90.35-3.83-14-3-15.84,10.75-19,11.39-2.6,22.8-5.12,34.09-8.08,5.7-1.49,8.92-.39,10.31,5.75,10.09,44.76,24,88.6,32.56,133.73,1.88,9.92,3.2,11.18,12.81,8.56,22.52-6.14,45.46-10.79,67.48-18.73a73.16,73.16,0,0,1,9.61-2.76c4.45-.94,7.61.62,8.9,5.28,3,11,6.14,22,9.22,32.95,1.93,6.84-.95,10.73-7.6,12.11-10.35,2.16-20.83,3.8-31.07,6.38-31.26,7.88-62.43,16.11-93.65,24.18C987.5,458.43,983.72,459.31,981.89,459.75Z"/><path class="cls-1" d="M260.74,1075.15q1.61-9.87,3.22-19.74c.5-3,2-5,5.15-5.78,30.18-7.42,60.41-14.64,90.33-23.1,11.07-3.14,11.95-1.8,9.39,9.91-.29,1.36-.9,2.75-.78,4.08.9,10.3-3.7,15.43-14.07,15.53-4.28,0-5.36,3.12-6,6.68-2,10.93-4,21.86-6.15,32.74-.89,4.41.86,6.94,4.83,8.29,8.24,2.81,11.7,7.87,8,16.5a14,14,0,0,0-.53,3.28c-2.38,15.82-2.43,15.89-16.26,6.94-24-15.55-48-31.25-72-46.76C262.59,1081.6,259.89,1079.59,260.74,1075.15Zm61.4-5.57c.89-3.69-.72-5.23-4.34-4.78s-7.14.91-10.66,1.64c-4.17.85-10.61-.54-11.69,4-1.2,5,5.47,6,9,8.14C321.24,1088.56,317.78,1089,322.14,1069.58Z"/><path class="cls-1" d="M1341.51,305.23c8.5,1.32,17.09,2.21,25.47,4.06s13.24-1.6,16.87-8.4c3.93-7.34,7.9-14.67,11.77-22,1.12-2.13,2.54-4.11,5-3.52,2.24.52,1.95,3,2.22,4.92,1.25,8.8,2.53,17.6,3.91,26.39.91,5.84,4.38,10.05,10.15,10.64,9.15.92,17.59,5.38,26.94,4.9,2.45-.13,4.75.63,5.25,3.09.58,2.8-2.29,3.51-4.11,4.48-7.61,4-15.23,8.07-23,11.74-6.22,2.93-8.27,7.35-7.48,14.11,1,8.56,1.33,17.19,3.25,25.65.55,2.4,1.29,5.54-1.37,6.82-2.48,1.2-4.57-1.15-6.25-2.92-5.17-5.44-10.21-11-15.38-16.46-6-6.33-12.69-7-20.37-2.85-7.08,3.82-14.46,7.09-21.75,10.52-1.77.83-4,1.44-5.47-.22-1.9-2.07.6-3.29,1.36-4.92,4.37-9.27,8.67-18.57,12.79-28,1.92-4.39.11-8.13-3-11.34-6.38-6.57-12.83-13.07-19.15-19.7-1.47-1.54-3.48-3.23-2.1-5.77C1338,304.74,1339.83,304.9,1341.51,305.23Z"/><path class="cls-1" d="M328.3,1159.54c6.11,0,12.23.22,18.32-.07,5.44-.26,7.08,2,5.7,7a24.94,24.94,0,0,0-.8,4.08c-.59,5.73,2.19,13.18-2.37,16.74-4.36,3.4-11.23-.33-17-.52-17.23-.58-34.48-1.18-51.68-2.27-4.94-.32-6.61,1-6.21,5.75a34.18,34.18,0,0,1-.43,7.48c-2.27,16.1-2.84,16.38-19.54,14-3.92-.57-5.21-2.34-5-6q1.95-36.63,3.76-73.27c.3-6.1,3.22-8,9.26-7.24,15.58,2.07,15.6,1.89,15.13,18-.39,13.14-.36,12.91,12.64,13.4,12.77.48,25.51,1.54,38.27,2.35Z"/><path class="cls-1" d="M392.18,1193.32a24,24,0,0,0-4.16,0c-6.15,1.09-7.38-1.37-6.41-7.2,7-41.93,13.69-83.91,20.5-125.87,1.42-8.79,3.18-17.52,4.28-26.35,1-8.31,7.53-5.12,11.63-5.43,5.57-.41,2.65,4.2,2.42,6.68q-6.7,73.52-13.64,147C405.79,1193,405.65,1193,392.18,1193.32Z"/><path class="cls-1" d="M2226.39,1207.72c7.43,2.74,13.51,5.28,19.78,7.2,4,1.24,5.12,3.73,5,7.45-.1,4.5-3.81,3.42-6.15,3.72-9.95,1.25-20,2-29.91,3.31-3.66.49-5-.48-5.48-4s1.28-4.32,4.15-4.62c5.48-.57,10.94-1.26,16.67-3.46-4.24-1.58-8.54-3-12.72-4.78-4.74-2-5.2-4.79-1-7.85,3.49-2.54,7.19-4.79,10.23-8.8-5.13.49-10.26.85-15.36,1.51-3.23.41-5.2.15-5.61-3.89-.43-4.21,2-4.54,4.91-4.87,10.24-1.13,20.47-2.35,30.72-3.39,2.25-.22,5.39-1.41,5.79,2.6.3,2.94,1.19,5.93-2.43,8C2239.05,1199.33,2233.35,1203.25,2226.39,1207.72Z"/><path class="cls-1" d="M2246,1175.19c.46,2.47.49,5.14-4.12,5.48s-4.21-2.74-4.17-5.39c.07-5.31-2.76-5.66-7-5-7.15,1.11-14.36,1.76-21.53,2.67-3.07.4-5.2.26-5.76-3.78s1.26-4.85,4.44-5.18c7.46-.78,14.91-1.78,22.4-2.37,4.17-.33,6.17-1.77,5.15-6.22-.73-3.21-.88-5.77,3.88-6.2s4.09,2.8,4.42,5.24C2244.59,1161.06,2245.2,1167.71,2246,1175.19Z"/><path class="cls-1" d="M1087.72,1146c46.74-26.33,62.4-70.71,69.8-119.84,1.79-11.84,2.23-23.81,2.59-35.77.1-3.17-1.72-8.34,4.54-7.31,5.17.85,12.37-4.18,14.71,5.76,5.88,25,5.65,49.84-2.74,74.08-13.43,38.77-39.71,65.75-77.66,81.28C1095.49,1145.58,1092,1147.75,1087.72,1146Z"/><path class="cls-1" d="M1372.8,1453.43l-.54.61a4.66,4.66,0,0,1-.52-1c0-.12.33-.34.51-.51Z"/><path class="cls-1" d="M1362.33,1408.32c.72-.67,1.45-1.36,2.39-.3l-1.55,1.11Z"/><path class="cls-1" d="M1333.09,1278.69c0-.37,0-.74,0-1.11l1,.36-1.19.6Z"/><path class="cls-1" d="M1294.91,2180.46c-4.85,14.92-9.49,28.51-13.68,42.24-3.81,12.5-7.21,25.14-10.65,37.76-1.24,4.54-4,6.3-8.58,5.95a93,93,0,0,0-13.34-.42c-19.47,1.36-20.91,1.26-27.34-16.95-14.18-40.15-31.24-79.13-46.83-118.7-4.48-11.37-10.4-22.16-15.41-33.33-3.82-8.52-2.51-10.55,6.57-10.53,13.09,0,26.19.27,39.22-1.16,4.91-.54,6.76,1.66,8.14,6,9.51,30.22,25.74,58.06,31.74,89.54.18,1,1.15,1.78,2.8,4.21,2.43-9.62,4.89-17.8,6.53-26.13,4.64-23.5,10.72-46.64,16.74-69.81,1.28-4.93,3.92-6.66,8.66-7.17,32.2-3.49,26.24-5.57,37.27,22.36,7.44,18.84,10.52,39.24,20.55,57.22,2.84,5.1,1.63,11.86,6,17,2.67-15.91,8.42-30.91,10.94-46.63,2.79-17.43,11.23-33.23,13.89-50.65.5-3.28,3.06-4.77,6.12-4.48,14.24,1.35,28.28-2.2,42.52-1.53,5.49.26,6.78,1.64,5,6.93-11.18,33.5-20,67.7-30.41,101.45-6.93,22.53-15.18,44.82-19.26,68.18-1.13,6.48-3.45,10-10.79,9.23-5.2-.54-10.55.36-15.83.38-17.55.07-17.69.08-24.68-17-7.69-18.81-15.08-37.73-22.62-56.59C1297.42,2185.78,1296.44,2183.81,1294.91,2180.46Z"/><path class="cls-1" d="M1603.52,2099.83c.5,6.2,3.11,11.5,5.68,16.51,9.78,19.06,15.85,39.84,27.29,58.11,3,4.82,2.46,9-3,11.79-10.91,5.55-21.75,11.24-32.78,16.53-7.39,3.53-9.65-2-12.06-7.39-12.57-27.91-23.86-56.35-35.68-84.57-8-19.21-17.75-37.72-26.2-56.78-5.47-12.34-4.45-14,8-19.35,2.55-1.1,5.5-1.66,7.63-3.3,12-9.3,23.43-6,35.28.67,24.28,13.6,48.81,26.75,73.24,40.09,2.44,1.33,4.85,2.73,7.34,4a2.74,2.74,0,0,0,3.73-.74c.4-.69,0-2.2-.56-3.06-12.79-21-20.21-44.49-31.33-66.25-6.8-13.3-6.17-15,7.61-20.91,6.9-2.94,13.6-6.37,20.48-9.36,12.06-5.25,13.71-4.86,18.29,7.74a576.89,576.89,0,0,0,22.62,54.74c12.87,26.55,24.85,53.47,36.22,80.68,4.93,11.79,3.61,14.64-7,21.63-15.37,10.07-28.25,13.32-45.73,1-21.88-15.46-47.08-26.2-70.87-38.95C1609.34,2101.35,1607.26,2099.24,1603.52,2099.83Z"/><path class="cls-1" d="M708.37,2079.59c-18.4-.49-32.7-8-45.87-17.52-21.66-15.64-43-31.8-64.16-48.05-10.42-8-10-8.92-2.39-19.26,29.74-40.26,61.41-79.12,88.32-121.43,3.9-6.14,7.81-7.62,14.21-3.09,26.35,18.68,52.36,37.86,76.78,59,23.59,20.39,25,53.84,4.42,74.13-5.5,5.41-11.64,9.65-19.67,9.82s-7.58,4.86-6.62,10.77c4.19,26-11.82,49.35-37.39,54.79A64.17,64.17,0,0,1,708.37,2079.59Zm2-60.43c-.4-7.72-3.13-13.85-9.25-18.2-6.34-4.5-12.78-8.87-19-13.47-12.56-9.23-12.5-9.26-21.41,3-1.79,2.46-3.74,4.83-5.76,7.12-4,4.5-3.59,8.26,1.41,11.76,10.47,7.32,20.81,14.83,31.25,22.19,4.31,3,8.83,4.68,13.89,1.46C706.77,2029.68,709.8,2025,710.4,2019.16ZM732,1976c5.81.36,9.39-2.91,11.89-7.59,2.56-4.83,1.19-9.32-2.29-13a135.36,135.36,0,0,0-24-20.55c-11.32-7.4-11.78-7.48-19.76,3.22-.67.89-1.16,1.91-1.86,2.77-3.88,4.8-3.48,8.44,1.9,12.24,8.15,5.76,15.77,12.26,23.61,18.46C724.57,1974,727.78,1976.18,732,1976Z"/><path class="cls-1" d="M961,2074.36c-1.93,25.93-20.93,53.43-54,52.75-5.53-.11-5,1.3-4.2,5.35,4.27,21,8.24,42.06,14,62.72.79,2.82,2.88,6-.27,8.45-2.71,2.08-5.26-.35-7.68-1.46-12.13-5.59-24.17-11.39-36.36-16.85-4-1.8-5.79-4.56-6.58-8.78-3.52-18.87-7.6-37.63-10.82-56.54-1.08-6.39-4.51-9.49-9.69-12.33s-8-1.78-10.52,3.36c-4.79,9.79-8,20.16-11.89,30.29-1.49,3.89-3.25,7.68-4.91,11.51-1.93,4.46-5.09,4.39-8.89,2.51-10.47-5.17-20.86-10.52-31.52-15.28-6.46-2.89-8.45-6.77-4.88-13,11.3-19.62,18.23-41.18,27.37-61.75,11.63-26.18,23.29-52.35,34.54-78.69,5.7-13.36,7.48-14.69,20.07-7.78,22,12.07,45.45,21,67.78,32.35C948,2024.15,960.81,2044.3,961,2074.36Zm-66.51,12.83c2-.43,4.35-.5,6.29-1.41,13.27-6.23,15.5-29.48,3.48-38-9.15-6.45-19.73-10.14-30.06-14.28-5-2-6.64.78-7.87,4.53-2.94,9-6,17.93-10.4,26.34-1.29,2.45-1.79,4.75,1,6.53A118.6,118.6,0,0,0,894.51,2087.19Z"/><path class="cls-1" d="M1817.2,2066.54c-35.36-1.3-60.61-19.32-78-49-17-29-17.59-59.85-1.32-88.51,18.4-32.43,49.19-55.81,91.52-53.67,5.09.26,6.79,2.37,6.86,7.16.17,10.41-1.86,20.44-4.42,30.45-1,3.81-3.36,4.59-6.76,4.64-16.32.22-29.21,8-40.75,18.7-7.82,7.28-11.4,16.47-11.48,26.85-.17,22.42,20,49.41,41.4,55.8,16.88,5,30.58-1.08,42.53-12.61a88.78,88.78,0,0,0,7.48-9c10.67-13.51,10.39-14.87-.91-27.93-3.51-4.06-5.82-3.93-9.44-.71-7.05,6.27-13.6,13.07-21.88,18-5.62,3.34-9,2.19-12.61-2.53a173.37,173.37,0,0,0-12.35-14.68c-5-5.27-4.4-9.49,1-13.88,9.09-7.34,17.78-15.22,27.1-22.26,8.44-6.37,17.25-12.13,24.83-19.66,6.79-6.74,10.09-6.5,15.66.81,13.16,17.26,26.58,34.4,38.58,52.46,6.06,9.12,3.41,20.36-.76,29.8-11.75,26.6-30.72,46.87-56.94,59.73C1844.32,2062.48,1831.65,2067.9,1817.2,2066.54Z"/><path class="cls-1" d="M1120.22,2149.72c-1.7,9.3-3.29,18.63-5.14,27.91-1.13,5.71-4.61,8.18-10.36,6-19.39-7.24-40.34-8-59.87-14.79-10.43-3.61-10.82-3-13.95,7.32-4.93,16.29-5,16.55,11.68,20.4,20.31,4.7,40.82,8.55,61.08,13.46,11.75,2.84,11.89,3.51,10,15.14-1.3,7.94-3.59,15.72-5.36,23.59-1,4.46-3.68,5.78-8,4.83-27.7-6.08-55.55-11.57-83.06-18.4-11.91-3-24-4.68-35.9-7.62-6.85-1.7-9.89-4.77-8.26-12.32,7.36-34.26,14.06-68.65,21.66-102.85,4.16-18.73,6.21-37.86,11.64-56.37,2.17-7.38,4.89-9.23,12.28-7.22,36.25,9.83,72.94,17.81,109.85,24.78,10.94,2.07,11.88,3.63,9.43,14.65-1.68,7.6-3.3,15.21-4.74,22.86-1.18,6.34-4,9.17-11,7.28-21.22-5.7-43.06-8.84-64.11-15.37-10.6-3.3-11.56-2.57-14.25,8.23-.13.54-.2,1.09-.32,1.64-2.93,13.5-2.38,14.16,11.58,16.75,18.06,3.34,36.13,6.63,54.08,10.49C1114,2141.17,1121.35,2141,1120.22,2149.72Z"/><path class="cls-1" d="M1530.38,2217.23c1.28,5.93-1.68,6.88-4.29,7.59-11.53,3.13-23.17,5.88-34.64,9.18-4.67,1.35-6.59-.17-7.8-4.47-2.64-9.36-6.09-18.52-8.27-28-10.15-44.15-22.75-87.66-34-131.53-1.68-6.54-.74-9.74,6.09-11.45q16.56-4.16,32.81-9.5c5.09-1.68,7.06-.08,8.31,4.61,3.9,14.78,8.25,29.44,12,44.25,10,39.32,19.7,78.7,29.52,118.06C1530.4,2217.07,1530.56,2218.17,1530.38,2217.23Z"/><path class="cls-1" d="M1073.79,1723.05c-1.75-34.79-3.57-69.57-16.68-102.49-2.57-6.45-5.75-12.66-8.73-18.93-1-2.13-1.78-4.1.08-6.15,2.06-2.26,4.1-1,6,.13,10.12,6.28,18.63,12.62,22.18,26,11.58,43.62,15.94,88.14,18.64,132.84,1.29,21.55-.69,18.43-17,11.94-15.74-6.25-30.64-14.58-46-21.79-11.36-5.33-23-9.67-35.72-10.91-5.13-.5-6.9,1-6.77,6.24.35,13.47,3.57,26.43,6.28,39.51,4,19.34,7.59,38.77,11.54,58.12.94,4.6,0,5.85-4.89,5.08a175.18,175.18,0,0,1-32.31-8.23c-29.81-10.81-61.52-15.67-90.49-29.08-4.54-2.1-9.09-4.21-13.51-6.54-13.51-7.11-16.18-12.28-15-27.59.46-5.85,1.73-8,7.72-3.9,24.75,17.17,50.59,32.47,78.46,44.12a207.34,207.34,0,0,0,47.17,13.68c6,1,8-.42,6.23-6.88-6.8-24.75-17.7-48-25.6-72.36-4.22-13-7.94-26-8.2-39.9-.14-7.59,2.73-10.4,10.45-9.29a99.38,99.38,0,0,1,29.31,9.28c18.77,9.1,37.35,18.6,56,27.93,1,.49,2,.88,3.08,1.3C1074.25,1742.6,1074.25,1742.6,1073.79,1723.05Z"/><path class="cls-1" d="M1042.36,1866.67c-9-38-32.79-70-33.25-110.51C1031.2,1777.22,1055,1833.85,1042.36,1866.67Z"/><path class="cls-1" d="M1146.8,1789.88c-10.24-9.61-23.3-14.94-34.08-23.56-6.2-5-10.52-10.89-8-19.46.59-2,1.29-4.84,4.43-2.72C1126.18,1755.62,1141.16,1768.83,1146.8,1789.88Z"/><path class="cls-1" d="M1022.3,1888.28a93.78,93.78,0,0,0-17.52-27.88c-3-3.28-1.25-4.6,1.91-5.82,10.29-4,11.11-3.58,14.66,7.39A45.16,45.16,0,0,1,1022.3,1888.28Z"/><path class="cls-1" d="M1154.61,1853.25c.46.57,1.42,1.47,1.3,1.65-.8,1.2-1.8.57-2.73,0Z"/><path class="cls-1" d="M915.37,1910.21c.91.63,1.66,1.39.54,2.35-.2.16-1.2-.63-1.83-1Z"/><path class="cls-1" d="M1007.77,1664.06c.16.67.64,1.75.42,1.91-.82.62-1.29-.07-1.57-.85A12.78,12.78,0,0,1,1007.77,1664.06Z"/><path class="cls-1" d="M1376,1902.1c14.31,0,28-3.3,41.52-7.59,23.71-7.54,45.88-18.53,67.23-31.15,6.07-3.59,7.1-1.49,6.82,4.07-.48,9.6-2.8,17.08-13.7,20.9-16.31,5.73-32.57,11.34-49.64,14.09-19.79,3.18-38.8,9.92-58.73,12.53-6.37.84-9.28.84-6.89-7.15,6.29-21,12.45-42.15,17.41-63.52,4-17.29,5.2-18.23-15.4-14.76-14.59,2.47-27.76,9.69-41.51,15-7,2.68-14.2,4.8-21.32,7.18-4.27,1.43-5.94.13-6-4.6-.24-13.22,3-25.9,5.18-38.77,4.65-27.19,10.31-54,20-80,3.54-9.47,12.22-11.3,19.37-15.58,1.39-.83,2.64.2,3.42,1.49,1.3,2.14-.23,3.79-1.21,5.33-10.47,16.43-16.46,34.57-20.63,53.42-3.68,16.6-5,33.55-7.42,50.34-.63,4.47.47,5.91,5.28,4.81,12.86-2.95,24.62-8.67,36.67-13.71,13.58-5.68,26.85-12.5,41.74-14.08,12.11-1.29,13.16,0,11.57,11.89-1.53,11.43-6,22-10.57,32.41-6.91,15.8-14.07,31.48-21,47.27C1376.88,1894.89,1375.57,1898,1376,1902.1Z"/><path class="cls-1" d="M1364.37,1846.29c-1.5,31.61-22.51,55.78-32.47,84.23C1327.52,1896.75,1342.76,1870.36,1364.37,1846.29Z"/><path class="cls-1" d="M1375,1770.48l-1.71.88.33-2Z"/><path class="cls-1" d="M1246.82,1915.22c-.72.07-1.86.46-2.09.16-.63-.84.15-1.34.93-1.65C1246.05,1914.22,1246.43,1914.72,1246.82,1915.22Z"/><path class="cls-1" d="M1155.28,553.23c-.31-.42-1-1.05-.87-1.21.61-1,1.34-.55,2,0Q1155.86,552.66,1155.28,553.23Z"/><path class="cls-1" d="M1770.43,1690.68c7.6,8.75,8,13.54,1.58,21.23-17.5,20.8-39.56,36.57-60.23,53.85-1,.83-2.39,1.18-4,1.93-3.88-11.7-6-23.44-8.44-35.09-1-4.62-1.84-9.28-3.06-13.83-3.82-14.27-5.7-15.06-16.4-4.39-9.84,9.8-18.75,20.53-27.85,31-4.69,5.43-7.71,4.76-10.11-1.77-9.78-26.63-19.1-53.4-22.24-81.8-.61-5.52,3.11-10.18,6.88-13.63,3.25-3,4.16.6,4,3.23-1.85,26.16,7.61,49.69,16.89,73.27.5,1.26,1.21,2.44,2,4,8.16-4.83,13.06-12.33,18.67-19.09,7.79-9.41,14.84-19.44,24.81-26.91,5.79-4.34,8.8-2.63,10.89,3.5,4.21,12.3,4.1,25.19,5.22,37.91q1.05,12,1.77,24.12c.37,5.89,2.56,6.38,7.19,3.19,16.07-11.11,28.32-25.81,39.49-41.52C1761.91,1703.66,1766.06,1697.17,1770.43,1690.68Z"/><path class="cls-1" d="M1691.26,1769.48c-9.41-11.23-10.82-31-4.27-46.91C1693.21,1737.55,1688.62,1752.87,1691.26,1769.48Z"/><path class="cls-1" d="M1698.51,1655.9c-.7.53-1,2.21-2.18,1.16-.38-.33.31-1.86.52-2.83Z"/><polygon class="cls-1" points="1771.98 1783.15 1771.79 1782.47 1772.31 1782.53 1771.98 1783.15"/><path class="cls-1" d="M765.62,1642.62c1.59,3,.29,6-.1,9-4.11,31.08,1.4,60.36,16.1,88,5.31,10,12,19.54,11.06,31.72-3.32.85-4-1.9-5.25-3.44-25.77-32.06-38-67.68-28.16-108.93a51.72,51.72,0,0,1,6.48-16.19Z"/><path class="cls-1" d="M796.25,1724.62c-16.13-35.62-28.19-71.72-14.68-111C783.24,1651.07,802.65,1686.18,796.25,1724.62Z"/><path class="cls-1" d="M765.75,1642.79a4.89,4.89,0,0,1,.71-.23c.11,0,.23.09.35.15l-1.18-.07Z"/><path class="cls-1" d="M1006.87,1596.3c-12-7.66-22.09-17.61-33-26.53-16-13-31.8-26.2-49.4-37-9.32-5.74-18.91-10.63-30.26-10.77a31.4,31.4,0,0,1-7.4-1.25c-2.45-.62-5.48-1.7-5-4.62.58-3.73,4.1-2,6.18-1.71a153.71,153.71,0,0,1,53.75,17.13c26.38,14,47.34,34,63.24,59.23,1,1.61,3.59,3.06,1.84,5.7Z"/><path class="cls-1" d="M998.29,1559.13c-25.59-21.47-50.43-41.42-76.54-60.85C944.42,1500.1,990.91,1524.44,998.29,1559.13Z"/><path class="cls-1" d="M1006.76,1596.46l1.21-.14c-.08.37-.17.73-.26,1.1l-.84-1.12Z"/><path class="cls-1" d="M418.89,1473.24c1.89-8.5,1.22-18.35,11.81-22.9,8.53-3.66,13.52-.91,12.54,8.14-.59,5.57.59,12.73-7.57,14.83a3.19,3.19,0,0,0-1.78,2.58c1.38,7.69-3.37,9.5-9.22,8.86C417.84,1484,419.6,1478,418.89,1473.24Z"/><path class="cls-1" d="M248.28,1450.28c-5.47,1.66-6.51,5.49-7.73,9.35a55.42,55.42,0,0,1-12.8,22c-1.92,2-4.25,4-7.27,2.61-2.58-1.22-2.57-4-2.61-6.51C217.58,1461,232.62,1446.49,248.28,1450.28Z"/><path class="cls-1" d="M392,1450.46c-5.16,1.42-6.32,4.85-7.49,8.54-2.69,8.52-6.8,16.33-13.15,22.76-2,2-4.35,3.94-7.32,2.38-2.5-1.32-2.45-4.08-2.45-6.62C361.56,1460.35,376.51,1446.19,392,1450.46Z"/><path class="cls-1" d="M268.53,1471.78c4-8.13,7.57-16.46,13.51-24.88,2.72,7.76,5.12,14.38,7.38,21,1.8,5.3-4.48,9.62-2,15.26.37.83-2.44,1.89-4.17,1.57a6.44,6.44,0,0,1-5.59-6.32c-.21-5.13-1.61-7.57-6.95-4.73Z"/><path class="cls-1" d="M479.33,1451.86c3.44-12.28,6.48-21.95,11.76-30.74.89-1.47,1.83-4.07,4.15-3,2.11,1,1.3,3.39.89,5.2C493.75,1433.75,488.78,1442.74,479.33,1451.86Z"/><path class="cls-1" d="M517.93,1464.32c-1.48-.64-4.69,1.56-4.41-2.6.31-4.82,9.15-13.06,13.85-12.81,3,.15,4.57,1.52,4.41,4.7C531.49,1459.22,524.88,1464.45,517.93,1464.32Z"/><path class="cls-1" d="M452.36,1478.35c-.68.54-1.45.84-1.95-.09-.16-.3.28-.93.45-1.41Z"/><path class="cls-1" d="M2174.47,1440.56c10.79,11.06,2.63,21.61-.3,31.51-2.7,9.13-11,13.65-20.47,15-4.38.61-11.45,1.46-12.13-2.1-.86-4.47.07-10.85,6-14.39A64,64,0,0,0,2174.47,1440.56Z"/><path class="cls-1" d="M2115.69,1459.1c-5.73-.65-9,1.2-10.61,7.44a59,59,0,0,1-14.4,26c-2.31,2.44-5,5-8.7,3.37s-3.55-5.42-3.08-8.75c1.64-11.78,6.26-22,16.83-28.38,6.5-3.93,13.33-5.08,19.79.46Z"/><path class="cls-1" d="M1968.43,1486.21c.9-13.79,11.06-26.94,21.78-29.09,3.67-.73,6.25-.84,5,4.07-2.63,10.79-5.92,21.32-13.3,30-2.51,3-5.27,6.45-9.69,4.58S1968.71,1489.4,1968.43,1486.21Z"/><path class="cls-1" d="M2137.89,1496.69c7.34,10,7.22,27.66.89,35.6-.84,1-1.65,2.55-3.24,2-2.31-.85-1.88-3.16-1.92-5a46.32,46.32,0,0,1,.46-7.44C2135.21,1514,2136.45,1506.1,2137.89,1496.69Z"/><path class="cls-1" d="M2149.22,1456.9c2.88-11.31,6.14-22.37,12-32.44,1.07-1.84,2.4-4.47,5-3.4s1.42,4,1,5.88C2164.35,1438.72,2158.91,1449,2149.22,1456.9Z"/><path class="cls-1" d="M2115.52,1459.26l1.6.81c-.2.15-.41.44-.6.42-.89-.06-1.13-.57-.83-1.39Z"/><path class="cls-1" d="M2177.56,1437.55c-.22.62-.21,1.7-1.23,1.16-.29-.15,0-1.37,0-2.09A5.26,5.26,0,0,1,2177.56,1437.55Z"/><path class="cls-1" d="M1539.19,1871.14c-1.17-7.43,1.84-12.88,5.24-17.8,17.58-25.4,26-53.19,22.59-84.91C1581,1791.84,1573.9,1840.37,1539.19,1871.14Z"/><path class="cls-1" d="M1376.82,1716.34c18.7-28.07,44.3-46.55,77.06-54.94a103.63,103.63,0,0,1,23.83-3.51c1.55,0,3.6-1,4.14,1.3.61,2.56-1.55,3.22-3.43,3.76a9.78,9.78,0,0,1-3.29.47c-14.75-1.06-26.81,5.93-38.8,13C1415.76,1688.62,1397.17,1703.7,1376.82,1716.34Z"/><path class="cls-1" d="M1450.47,1642.45q-31.9,21.87-63.8,43.26C1398.73,1657.84,1423.32,1648.16,1450.47,1642.45Z"/><path class="cls-1" d="M961,623.79c-.17-.56-.35-1.11-.53-1.67l1.69.52C961.73,623,961.35,623.41,961,623.79Z"/><path class="cls-1" d="M1083.67,1937.63l1.08-.21-.16,1-.78-1Z"/><path class="cls-1" d="M1093,1569.66a4.29,4.29,0,0,1,.49,1c0,.12-.33.33-.51.5a4.73,4.73,0,0,1-.5-1C1092.44,1570,1092.8,1569.83,1093,1569.66Z"/><path class="cls-1" d="M1774.37,1596.38c9.24,6.92,11.94,17.43,14.67,27.69a81.57,81.57,0,0,1,2,31.46c-10.73-18.25-11.46-39.38-16.51-59.26Z"/><path class="cls-1" d="M1793.27,1610.91c18.87,20.24,18.82,43.85,12.47,69.47-4.94-4.3-4-9.52-3.47-14,2.4-19.21-1.58-37.05-10.47-54Z"/><path class="cls-1" d="M1791.8,1612.38l-2-2.29c1.45-1,2.54-.51,3.43.82Z"/><path class="cls-1" d="M1774.49,1596.27l-1.19-.59.83-.64c.08.44.16.89.25,1.34Z"/><path class="cls-1" d="M1651.53,1637.65c3-31.63,18.07-55.68,45.76-72.3,1.89,4.07-.63,5.36-2.63,6.36-9.75,4.88-15.46,13.45-20.39,22.53C1666.47,1608.59,1659.09,1623.17,1651.53,1637.65Z"/><path class="cls-1" d="M1296.73,1984.84c-.56.49-1.41,1.51-1.63,1.39-1.26-.72-.73-1.79-.21-2.78Z"/><path class="cls-1" d="M1312,1691c-1.13.65-2.27,1-3.42,0l2.05-1.77Z"/><path class="cls-1" d="M1161.46,1612.31c.12.68.52,1.83.29,2-1,.62-1-.42-1.28-1C1160.79,1613,1161.12,1612.62,1161.46,1612.31Z"/></svg>