<svg id="Layer_1" data-name="Layer 1" xmlns="http://www.w3.org/2000/svg" viewBox="0 0 3821.53 2506.21"><defs><style>.cls-1{fill:#a62b2a;}</style></defs><path class="cls-1" d="M2104.09,1650.09l-43.55-25.53c-.64,20.27,3.41,38.29,10.15,58.1-11.16-5.71-18.07-12.92-25.65-19.16-13.41-11-27.29-21.4-42.27-30.21-10.68-6.28-12.83-5-12.56,7.66.21,9.78,2.76,19.19,5.54,28.55,3.33,11.24,5.75,22.65,3.81,35.67-9.73-5.18-14.52-13.31-20.43-20.2-7-8.14-14.27-15.83-25.19-18.27-8.24-1.84-14.07-.26-13.19,10.41,1.09,13.06,1.65,26.16,2.11,39.26a53.53,53.53,0,0,1-3.4,20.59c-10.93-7.1-13.74-19.1-19.33-29.1-6-10.68-11.44-21.64-17.12-32.48-4.21-8-8.64-6.48-12.93-.15-5.56,8.18-7.45,17.85-10.64,27-2.92,8.36-5.63,20.77-14.64,19.87-8.56-.86-6.59-13.79-7.52-21.66-1.74-14.56-1.21-29.42-5.7-44.43-12.82,6-18.17,17.29-24.52,27.5-5.19,8.34-10.63,16.36-18.64,22.16-2.57,1.86-5.37,5.34-8.88,3.47-2.94-1.57-1.2-5.35-1.44-8.13-1.35-15.59-2.77-31.18-3.79-46.79-.47-7.15-3.36-7.75-8.7-4.3a55.9,55.9,0,0,0-12.14,11c-4.94,5.77-10.11,11.37-15.55,16.67-3.37,3.28-8.08,6.32-12.52,4.17-5.11-2.47-1-7.56-.8-11.38,1-16.42,2.36-32.82,3.65-49.94-8.92.53-11.44,8-15.2,13.34-15,21.39-18.91,23.59-44.38,17.93-121.45-27-230.28-80.38-326.78-158.57Q1224.25,1381.67,1146.83,1222a785.82,785.82,0,0,1-78.1-304.94c-5.4-105.22,8.65-207.67,44-306.8,51.76-145,138.29-265.56,259.48-360.64q184.44-144.69,418.34-166.45c51.08-4.77,102.29-5.36,153.32,1,12.22,1.52,22.26-.61,31.61-8.63,18.94-16.25,38.36-31.95,57.37-48.12C2054.68,8.84,2079-.13,2108.32,0c40.32.19,79.16,5,116.6,20.39a224.48,224.48,0,0,0,38.85,11.45c20.55,4.35,38.68,14.49,55.9,26.25,16.91,11.54,35,20.69,55.14,24.77,28.74,5.82,54.22,18.54,78.46,34.41a360.13,360.13,0,0,0,56,29.55c15.7,6.72,25,20.61,31.17,36.42,16,40.78,20.27,83.6,22.22,126.81.92,20.29,1.26,40.64-1.44,60.83-.93,7,1.85,10.62,7.16,14.53,21.51,15.83,42.56,32.36,57.3,55.15,9.58,14.82,18.08,29.29,14.55,49.28-2,11.59,3.79,24.75,6.85,37,4.66,18.64,1.93,36.41-11,50-19.76,20.74-19.19,41.57-11.16,67.7,24.33,79.2,37.95,160.64,36.17,243.67-3.82,177.65-59.73,337.34-169.24,477.85-62.32,80-136.2,146.82-224.19,197.63-47.85,27.63-97.82,50.25-152.71,59.9-12.16,2.13-18.5,6-11.84,19C2103.81,1643.93,2103.57,1645.77,2104.09,1650.09Zm-666-635.49a311.81,311.81,0,0,1,82.33-44.94c-8.47-10.53-16.27-20.2-19-33.57-21,16.41-39.79,32.75-53.19,54.12-4.7,7.48-11.52,14.54-10,24.66l-1.72-.84c-.14.34-.28.68-.43,1Zm698.29-132.55A111.23,111.23,0,0,0,2181,865.2c8.11-5.23,17.07-11.13,19.44-21,3.85-16,14.44-19.45,28.52-18.17,23.18,2.12,45.67-.28,66.93-10.27,37.52-17.62,67.71-41.68,75.21-85.73,2.62-15.38-1.18-22-16.67-25.81-35-8.61-64.36.36-86.88,29.11-3.25,4.16-6.91,7.21-12,8.75-11.89,3.57-22.44,9.95-32.58,16.85-19.87,13.53-38.15,29.71-61.92,36.62-5.16,1.5-4.15,4.29-2,7.55,12.68,19.67,5.4,36.83-6.29,53.8-5.66,8.22-14,14.7-16.57,25l-1,1ZM1206.45,556.92a222.11,222.11,0,0,1,60.42-25.12c2.58-.66,5.56-1.3,5.72-4.13.81-13.63,12.11-18.65,20.86-25.42,42.24-32.67,87.26-60.82,141.15-68.28,34.39-4.76,68.53-8.93,101.57-20.26,33.56-11.51,68.49-14.64,103.79-14.15a589.58,589.58,0,0,1,115.65,13.53c8.87,1.91,10.51-.86,9.63-8.53-.81-7.12-1.58-14.28-1.79-21.44-1.73-59.49,13.21-115.41,36.7-169.46a354.78,354.78,0,0,1,39.19-67.86c-41-1.73-79.1,3.84-116.74,10.81-95.07,17.58-183.36,52.74-264,106.4q-144.09,95.89-229.57,246.43c-8.63,15.22-19.68,29.52-22.52,47.57l-1.28.9c.26,0,.62.08.74,0A3.29,3.29,0,0,0,1206.45,556.92Zm894.37-141.79c.39,3.34.59,6.71,1.2,10,3.58,19.53,7.45,39,10.83,58.59,2.52,14.54-3,23.49-15.26,26-23.91,5-41.25-1.69-54.92-21.5-1.78,2.59-3.44,5-5.07,7.38-14.49,21.34-28.87,42.75-43.53,64-3.22,4.65-7.57,12.84-13.13,8.83-5.77-4.16,1.51-10.57,4.41-15,14.05-21.63,27.43-43.89,43.49-64,11.06-13.83,10.38-25.8,2.66-40.57-2.18,3.23-4.08,5.86-5.78,8.61q-36.83,60-73.6,120c-15.25,24.85-14.49,24.08,6.08,45.39,14,14.55,29,20.6,48.75,16,8.61-2,17.61-.85,26.51.55,13.44,2.12,27.49,3.91,39.73-3.36,16.35-9.71,32.79-12.08,50.35-4.87,9.42,3.87,14.65.27,19.21-8.06,4-7.33,8.55-14.73,15.32-20,2.87-2.25,6.93-5,10.29-1.82,3.14,3-.23,6.39-2,9-5.73,8.37-11.8,16.51-17.8,24.69s-10.09,16.49-5.08,26.93c1.36,2.83,1,6.63.91,10-.59,25.3,18.26,39,42.07,29.83,24.57-9.47,44.46-25.83,62.19-44.89,2.5-2.69,3.4-7.37,8.43-5.65,4.51,1.55,4.29,5.71,4.46,9.56.15,3.63-.91,8.48,5,8.27,5.66-.2,14,2.6,16.13-3.81,3.69-11.09,9.08-18.14,21.16-19.87,2.53-.36,4.58-4.64,6.69-7.24,4.53-5.58,8.27-12,13.62-16.65,6.2-5.33,5.91-9.84,2.36-16.31-3.65-6.63-6.76-13.73-7.45-21.43-.46-5.12,1.79-10.07,6.73-10.9,5.3-.89,4.56,5.26,5.47,8.34A343.33,343.33,0,0,0,2347.86,625c3,6.72,7.55,10.07,15.08,6.15,10.23-5.33,21.55-7.41,32.46-10.71,15.27-4.61,26.68-14.2,35.47-27.29,2-3,3.32-5.47,1.08-9.15-10.47-17.21-20.7-34.58-31.71-53.06-8.25,12.45-15.35,23.85-23.2,34.7-4,5.57-4.29,10-.92,16,4,7.19,9.84,13.95,7.78,24.54-4.52-2.78-7.18-7.1-10.29-11.06-4.06-5.16-7.7-11.92-15.4-3.42-2.45,2.71-8.42,1.57-5.6-3.08,8.14-13.41-1.4-22.92-5.15-34-2.91-8.57-7.94-17.51-1.37-27.7,9.69,9.39,12.37,21.92,19.79,32.64,8.7-12.91,16.89-25.09,25.11-37.25,1.49-2.2,2.39-4.38,1-7-5.81-11.44-11.57-22.91-17.76-35.18-34.39,36.11-60.86,77.18-96.7,110.12a60.38,60.38,0,0,1,9.2-20.56c18.86-28.17,39-55.48,63.61-78.89,14.88-14.18,22.48-27.49,6.38-45.16a4.27,4.27,0,0,1-.59-1.12c-2.54-5.12-2.93-9.46,3-12.87,5.8-3.32,8.62,0,11.31,4.15,3.78,5.78,7.42,11.66,11.58,18.21,5.77-6.56,10.42-12,15.23-17.27,2.76-3,4.35-5.77,1.84-10.05-7.62-13-14.86-26.2-22.75-40.23-2.12,2.74-3.55,4.27-4.63,6q-29.66,48-59.21,96.1c-10.15,16.59-20,33.39-30,50-1.44,2.39-2.79,5.74-6.68,4.22-4.5-1.77-3.25-5.32-2.09-8.54a62.32,62.32,0,0,1,3.21-6.89c23.63-46.34,46.81-93,77.45-135.25,10-13.84,16.83-26,3.53-41a7.31,7.31,0,0,1-1.39-3.51c-.88-5.1,2.37-7.79,6.19-10,5.35-3.07,6.34,1.73,8.28,4.74,2.71,4.22,3.48,9.6,8.07,13.3,4.29-5.81,8.4-11.66,12.82-17.26,2.7-3.43,3.22-6.34.58-10.21-2.42-3.55-5-5.25-9.37-4.69-8,1-16,2.44-24,2.34-10.87-.15-18.07,3.51-22.38,14-2.68,6.54-7.48,12.22-11.4,18.24-14.08,21.61-31.51,40.86-44.23,63.47-28,49.74-56.35,99.29-84.5,149-2.43,4.29-5,8.55-10.7,6.25-6-2.44-4.63-7.11-2.34-11.67,1-1.88,1.54-3.94,2.46-5.84,24.27-49.83,50.42-98.65,80.28-145.36,18.85-29.48,41.16-56.52,63.2-83.53-15.18,0-29.77-.3-44.35.06-35.11.86-70.21-2.51-105.35-.26-6.24.4-9.9,2.53-13.49,7.35-13.12,17.66-26.66,35-38.82,53.36-4.79,7.23-9.6,15.17-19.54,16.73-.69-4.7,2.34-8.06,4.55-11.51,12.31-19.22,24.48-38.54,37.46-57.3,5.8-8.4,2-9.8-5.37-10.22-1.67-.1-3.36.41-5,.38-2.93,0-6.43.3-7.61-3.13-1.33-3.85,2.49-4.92,4.75-6.4,11.56-7.52,24.64-8.87,37.82-7.65,46.42,4.3,92.95,4.62,139.47,4.12,39-.41,77.73-3,115.57-13.62,7.57-2.13,10.29-4.8,8.06-13.07-3.2-11.82-3.74-24.12-4.46-36.41-1.42-24.08,11.75-34,33.44-38.35,16-3.2,22.62,2.91,23.23,19.42.35,9.42-2,18.46-3.37,27.65-1.21,7.8,8.78,21.11,13,17.85,9.76-7.48,21.21-7.87,32.39-9.52,7.75-1.14,9.72-4.78,7.88-12.13-5.73-22.94-12.87-45.72-16.15-69-3.39-24.19-18.77-30.59-38.94-33.18-.84-.11-1.67-.24-2.51-.36-27.26-4.15-54.85-3.36-82.24-5.48-105-8.11-210.06-16.43-315.52-9.15-84.24,5.82-166.84,21.06-248.12,43.72-4.57,1.28-8.09,3.08-10.57,7.93-21.5,42.12-35.41,86.68-44,133.05-1.25,6.78.77,7.87,7.18,7,13.83-1.8,27.77-3.77,41.67-3.81,28.31-.07,56.64.77,84.94,1.9,12.75.5,18.55-4.17,20.66-17.17,3.91-24.16,8.83-48.23,14.83-71.95,6.16-24.39,15.41-47.61,37.16-63,3.24-2.29,7.14-6.56,11.23-3.49s5.44,8.36,3.66,13.79c-2.63,8-5,16.11-7.84,24.07-4.36,12.34-8.91,24.61-13.48,36.87-3.36,9-1.3,13.23,9.24,12.52,11.63-.78,15.37,5.09,10.92,15.85-5.77,14-11.69,27.85-18.06,43,12-.59,22.9-1.95,33.69-1.39,8,.42,10.12-3.45,11.53-9.81,7.83-35.23,21.51-68.44,36-101.3,7.57-17.19,17.28-33.24,36-40.7,12.5-5,14.61-2.86,13,10.13-.73,5.95-6.07,14.66,3.65,17.3,8.19,2.22,7.11,7.1,6.49,12.4-1.95,16.64-9.31,31.4-17.19,46.77,15.19,2,12.26,10.85,7.92,20-3.08,6.49-6.27,12.93-9.72,19.23-2.39,4.35-3.68,7.68,3,9.09,11.73,2.48,11.87,9.21,7.62,18.89-6,13.76-15.09,25.74-22.87,39,17.45,3,18.3,4.35,13,19.7-1.51,4.39-3.18,8.74-5,13C2098,400.51,2096.74,407.77,2100.82,415.13Zm-646.13,618.46c9.57,2.11,16.69,1.55,23.52-.52,17.37-5.26,34.82-10.41,51.87-16.62,16.66-6.07,35-8.69,46.06-26.17,5.09-8,14.27-5.17,16.31,4.14,1.12,5.1,2.62,7.48,8,7.21,12.56-.64,15.21,6.36,12.51,17-1.57,6.14-2.76,12.51-5.35,18.21-10.78,23.66-16.91,48.47-21.16,74-3,18.18-5.14,18.55-21.71,10.78-1.91-.89-3.86-1.72-5.8-2.58-15.82-7-18.21-6.1-24.42,9.69-1.57,4-2.92,8-6.28,10.81-2.13,1.76-4.41,4.49-7.68,1.69-15.14-13-29.83-7.15-44.63.84-3.15,1.7-6.91,4.81-10.54,2-3.86-3-2.55-7.95-1.88-11.92,2.61-15.51,12.57-25.67,26.06-32.24,14.81-7.2,30.08-13.44,45.16-20.09,8.13-3.58,11.06-9.57,9-18.07a8.11,8.11,0,0,0-7.47,2.41c-8.89,9.19-19.35,12.65-32.14,10.75-7.79-1.16-14.88,2-21.27,6.69-9.88,7.22-19.8,14.39-29.94,21.24-3.05,2.06-7.21,4.21-10.65,1.48-3.85-3.06-2.39-7.8-1.37-11.85,1.48-5.83,6.6-10.5,6.52-17.9-10,1.79-16.2,7.9-21.34,14.12-31.21,37.74-41.55,81.2-34.09,129.28,1.71,11,9.08,16.81,18.91,16.42,41.55-1.64,81.57,6.42,121.28,17.12,5,1.34,8.81,1.14,12.47-3,15.59-17.79,32.15-34.81,44.66-55.06,4.84-7.83,11.89-15.44,20-10,7.84,5.22.22,13.55-3.31,20-3.66,6.66-10.38,12.14-8.16,22.75,5.35-3.51,9.79-6.53,14.33-9.37,3-1.88,6.45-3,9.39-.38s0,5.41-.77,8.08c-2.39,8.23-10.43,13.7-12.36,24,7.3-2.55,11.52-6.64,15.73-10.68,6.81-6.52,14-12.31,23.72-13.79,3-.46,6.3-.23,7.9,2.6,1.44,2.56-.83,4.71-2.43,6.66-6.94,8.52-14,16.94-20.77,25.59-2,2.59-7.11,5.55-1.67,9.17,7,4.64,2.47,8.36-.23,12.48a152.91,152.91,0,0,0-16,31.63c-2.63,7.17-1.26,9.47,6.47,7.87s15.36-4.8,23.62-4.22c5.12.37,9.54,2.45,10.83,7.27,1.34,5-4.21,5.42-7.16,7.3-3.91,2.5-8,4.66-12.07,7-20.87,12-39.4,27-56.71,44.83-6.92-14.35,4.65-26.8,1.5-41.11-2.73,1.86-4.54,2.78-6,4.12-17.31,16.07-18,49.93-1,74.67,12.86-13,25.85-25.68,38.2-38.91,6-6.41,10.09-8.16,17.37-1,10.89,10.69,22.88,19.58,40.23,17.79,9.6-1,16.59,9.35,13.87,17.43-7.88,23.46-5.08,28.62,18.83,34.94,1.73.46,4.28-.22,5.15,3.44-19.35,9.15-39.54,16.41-59.94,23-7.6,2.44-9.27,5-5,12.1,15.93,26.15,34.63,48.24,68.28,50.3,9.52.58,12.52,3.49,4.79,11.81-7.15,7.7-10.61,17.23-9.2,28,.26,2-.31,4.62,2,5.56,3.23,1.29,4.23-1.79,5.68-3.66,5.7-7.35,11.26-14.8,17-22.09,7.53-9.52,16.48-17.22,29-18.65,5.24-.6,12.26-2.55,15.42,2.6,3.42,5.57-2.63,9.71-5.86,13.9-.78,1-1.7,1.89-2.46,2.9-2.13,2.84-3.86,6.34-1.71,9.33,2.42,3.37,6.22,1.43,9.28.17,8.54-3.53,13.49-11.33,20-17.22,4.65-4.19,9.83-10.89,15.91-8.2,6.28,2.79,1.94,10.57,1.8,16.16-.07,3.21-2.6,6.85,1.4,9.1,3.36,1.89,6.67-.42,9.59-1.71,4.77-2.1,7.83-6.28,10.63-10.6,3.44-5.29,6.85-10.7,13.65-12.87,4.77,6.57,3.45,14.62,5.58,21.73,1.24,4.1-2.38,10.88,3.71,11.95s9.32-5,11.87-9.86c3.12-6,5.56-12.33,8.72-18.29,1.6-3,4.62-6,8-5.4,4.26.72,3.16,5.23,3.53,8.41.68,5.87.82,11.84,2,17.59,1.48,7,.06,18.34,8.92,18.35,9.1,0,7.72-11.5,9.3-18.53,1.28-5.71.27-13.27,6.63-15.29s11.78,3.21,16.35,7.72c4,3.9,8.18,8.84,14,7.07,6.43-2,3-8.75,4-13.38.81-3.68.75-8.34,4.69-9.68s6.88,2.44,9.39,5.19c3.7,4,7,8.5,10.66,12.54,2.32,2.53,5.45,5,8.91,3,3.12-1.73,4.14-5.53,3.54-9-.87-5-2.65-9.77-3.67-14.72-.66-3.17-2.21-7.29,1.51-9.14,3.38-1.68,6.48,1.14,8.83,3.53,3,3,5.26,6.63,8.23,9.59,2.82,2.82,6.59,4.44,10.37,2.34,3.48-1.94,3-5.56,2.37-9.06-1.3-7.48-2.57-15-3.46-22.52-.38-3.21-1.31-7.5,2.5-9.07s6,1.91,8.13,4.53a35.72,35.72,0,0,0,3.4,3.76c2.19,2,4.75,4.48,7.74,3.14,4.13-1.85,2.45-5.65,1.66-8.89-1.69-7-3.4-14-5.06-20.94-.8-3.38-1.33-6.94,1.61-9.47s5.53.29,8.22,1.12c1.19.37,2.26,1.14,3.43,1.64,14.11,6,17.17,3.65,15.83-12-.69-8-1.81-16-2.09-24-.14-3.92-2-10.13,2.82-11.25,6-1.39,5.9,5.72,8.12,9.42.43.72.68,1.55,1.07,2.3,2.57,5,2.37,15.47,8,13.69,6.53-2.08,3.27-11.84,1.82-17.94-5.53-23.39-11.56-46.68-17.79-69.9-1.9-7.12-2.8-17.92-10.94-18-6.72-.11-8,10.61-10.63,17.11-8,20.15-8.18,42.27-15.5,62.62-3.18,8.82-5.08,18.43-14.52,24.3-2.12-7.72-.63-14.26.8-20.87.82-3.84.46-8.46-3.25-10.06s-5.76,2.74-7.51,5.4c-3.46,5.29-6.61,10.8-9.63,16.36-9.26,17.06-15.43,35.77-27.24,51.46-3.56,4.73-6.6,10.42-14.59,11.66,3.46-30,12.27-57.83,18.24-86.21,5.67-26.92,10.23-54,9.41-81.58-.08-2.74,1.36-6.51-2-8-3.48-1.59-6.69.88-9,3.12a122.32,122.32,0,0,0-10,11.46c-2.56,3.15-6,6.09-9.66,4.65-4.67-1.84-2.1-6.56-1.22-9.83,2.86-10.6,5.62-21.28,9.45-31.54a79.15,79.15,0,0,0,5-29.78c-.28-14.11-5.08-16.87-18-10.35-10.06,5.07-16.32,14.56-25,21.23-2.64,2-5.33,5.3-8.86,3.33s-2-6.12-1.62-9.25c2.73-23.17,14.66-41.44,32.41-55.5,19.86-15.74,40.79-30.14,61.3-45.07,2.53-1.84,4.33-6.24,8.29-4.11,3.65,2,4.28,6,4.26,10,0,6.42,1,12.24,4.89,17.9,15.56,22.64,30.52,45.7,45.93,68.44,12.56,18.54,24.21,38.46,42.36,51.75,31.6,23.12,49,55.26,62.68,90.25,11.56,29.6,18.37,60.57,24.64,91.63,1.63,8.09,3.23,11.25,12.78,6.19A742.12,742.12,0,0,0,2394.19,1379c10.07-10.51,19.3-21.81,31-35.11-13.45.85-20.9,5.82-28.07,11.91-8.62,7.32-16.26,16.09-28.07,18.86-7.06,1.64-11.54.4-15.43-6.62-7.6-13.75-10.76-28-7.62-44.54-14.15,4-24.49,12.89-37.32,15.82-22.63,5.18-28,1-27.54-21.66,0-1.69.17-3.38.26-5.07.28-5.62-2-7.07-6.76-4-2.84,1.83-5.3,4.28-8.24,5.86-6.86,3.66-13.17,1.36-19-2.69s-5.32-9.08-2-14.45c3.42-5.58,0-6.33-4.53-6.7-5.19-.42-8.49,2.84-12.42,5.36a13.73,13.73,0,0,1-20.41-7.7c-3.47-11.17,1.58-22.15,12.47-26.78,46.71-19.86,96-22,145.64-20,9.67.39,14.35-1.8,17-10.21,1.6-5.1,3-10.27,5-17.31-30.29,7.59-55.56-2.23-80.13-15.38-5.67-3-11.49-2-17.28-.33-17.42,5.05-32,15.15-46,26.23-24.8,19.69-51,33.87-84.69,29.12-40-5.63-63.48-32.58-85.48-62.19a8.71,8.71,0,0,1-1.35-8.48c4-9.48-1.8-10.87-8.95-11.48-18.94-1.62-38.6-.61-56.65-5.51-33-9-48.83,6.93-60,34.24-3.34,8.21-8.93,16.29-17.48,19.38-22.39,8.08-33.46,26.38-43.2,45.8-12.88,25.67-27,50-54.64,62.67-22.68,10.44-42,25-57.1,45.1-4.67,6.2-10.77,11.55-19.89,12.65-1.1-9.14,1.72-16.34,5.53-23.61,8.32-15.89,22.56-26.06,35.21-37.82,3.27-3,8.26-5.53,7.36-11.07-1.47-9.09,1.26-17.56,2.66-26.3a39.6,39.6,0,0,0-8.27-32.09c-9.44-12.09-22.09-21-31.51-33-2-2.5-5.32-5.26-2.09-8.75,2.61-2.82,5.35-.45,8,.88a486,486,0,0,0,66.75,27.52c15,5,14.41,5.21,18.09-11,6.94-30.67,16.13-60.53,37-85.15,4.91-5.79,3.36-7.86-3.2-10.48-15.29-6.13-30.14-13.33-45.31-19.79-5.91-2.52-7.06-5.35-4.49-11.61,6.13-14.95,14.75-26.4,31.77-29.52,4.06-.74,7.8-3.16,11.72-4.7,8-3.12,8.4-8,4.16-14.79-5.1-8.17-10.31-16-12.16-26.14-6.21-34.15-7.79-68.77-11.94-103.11-3.25-26.83-6.53-53.7-16.09-79.25-1.56-4.18-2.56-9.09-8.6-9.75-29-3.14-57.71-9.05-87-7.32-12.22.73-19.56,9.06-24.17,19.57-4.08,9.28,5.1,12.2,9.42,17.24,3.56,4.16,7.95,7.61,11.67,11.66,4.28,4.67,9.51,9,9,18.3-28.35-19.26-58.92-13.61-88.71-13.67-3.91,0-6.6,1.48-6.35,5.94.91,16.28-7.87,28.21-18.27,39-13.74,14.3-16.33,29.9-7.52,47.53,2.65,5.3,5.73,10.42,7.87,15.91,3.07,7.87,7.87,9.61,15.89,7.34,15.81-4.47,17.33-7,15.31-23.79-2-16.59,3.61-34.26-9.63-49.14-3.46-3.88-2.16-11.42,4.45-15.24,6.44-3.72,9,1.21,12.48,4.81,17.91,18.74,40.21,29.06,65.77,27.7,28.84-1.52,49.4-7.56,49-45.24-.16-14.09,1.21-28.81,7.8-42,1.81-3.63,4.51-9.16,8.48-1.88,9.68,17.77,21.19,34.62,27.4,54.18,2.1,6.63,2.13,11.86-3.82,17-15.49,13.23-14.78,17.33,4.26,25.36,7,3,11.42,6.64,11.12,14.83-1,27.3-30.34,60.54-57.28,63.49-12.69,1.39-23.53-3.43-32.41-15.32,22.21-4.11,39.48-12.5,49.42-34.63-10,0-18,.54-26-.16s-15.77-2.89-23.7-4c-24.38-3.38-38.94,10-35.4,33.2,1.21,7.9-3.59,8.5-8.36,9.68-23.71,5.88-47,2.17-70.17-3.42-33.12-8-33-8.17-37.53-41.27-.65-4.86-.39-11.37-5.51-13.06-4.94-1.62-9.14,3.21-13,6.45-4.87,4.06-9.82,8-14.62,12.16-3,2.6-6.54,4.65-10.4,3.72-7.74-1.88-13.94,1.64-20.52,4.5-13.57,5.9-27.29,11.45-40.89,17.27C1489.67,1010.77,1471.3,1018.27,1454.69,1033.59Zm34.89-487.75c-4.44,3.27-5.91,4.09-7,5.23-17.89,18-29.51,40-39.29,63.09-3.15,7.44-6.4,14.74-11.5,21-2,2.52-4,6.61-7.9,5-4.07-1.72-4.06-6.15-3.19-10,1.53-6.81,2.66-13.53.11-22.88-6.87,10.87-9.29,21.52-16.6,29.22-3.49,3.68-7.29,8.65-12.45,7.1-5.84-1.75-6.46-8.26-7-13.8-.5-5,1.14-10.43-1.79-16.31-5.93,6-7.49,12.75-10.6,18.62-1.77,3.32-3.17,7.6-8,6.61-3.64-.75-5-4.24-5.63-7.74-1.15-6.31-2.29-12.61-3.67-20.23-4.54,5.55-4.89,13.8-12.83,12.25-7-1.37-7.36-8.36-9.57-13.7-2.87-7-1.35-15.08-6-22.59a45.13,45.13,0,0,1-1.46,5.87c-2.43,5.93-2.4,15.71-11.21,14.28-7.42-1.21-5.27-10.21-6.4-16.23-1.54-8.21.29-17.25-5.78-26.19-1.77,4.08-2.86,6.77-4.08,9.4-7.62,16.48-12.3,18.87-28.75,13-19.38-7-38.15-5.79-56.7,2.59-22.7,10.26-37.22,35.1-31.87,55.87,26-15.85,53.59-25.31,84.38-22.26a7.79,7.79,0,0,0,4.75-1.43c8.53-6,16-2.46,23.39,2.32,6.37,4.1,15.84,6.69,18.53,12.47,3.87,8.32-8.23,10.82-11.91,17-1.71,2.86-4.17,6.34,2.16,6.78,23,1.63,45.67,3.59,68.53-3.12,10.53-3.09,22.72-4,33.31,2.56,3.56,2.22,7.87,4.75,7.7,9.36-.18,4.89-5.59,4.16-8.81,5.7-9.3,4.42-20.11,6.52-28,16.24h27.66c8.41,0,16.93-.51,24.9,3,3.5,1.52,7.26,3.56,7.42,7.83s-4.22,5-7.06,6.31c-11.13,5.12-22.55,9.6-33.63,14.82-9.62,4.53-19,9.68-24.86,21.17,21.88-.41,40.06-6,56.65-17.11,2.86-1.92,5.75-6.67,9.83-3.25,14.88,12.49,31.79,8.53,48.54,6.75,4.57-.48,10.94-1.58,11.17,4.77.41,11.46,8.06,9.87,15,9.95,6.34.08,12.69-.27,19-.39,4.93-.1,10.18.84,11.57,5.88,1.6,5.81-4.8,6.07-8.1,7.73-22.72,11.44-47,18.83-70.93,27.25-37.07,13.05-72.23,29-97,61.56-18.85,24.79-31.9,52.7-44.44,80.92-2.59,5.82-4.47,12.15-10,18.18-13.34-35.54,4.47-65.34,13.55-96.92-58.46,12.06-88,87.31-90.87,142.46,5.84.36,12.32-7.17,17.31-.14,4.76,6.7,1.38,13.84-2.24,20.24a116.29,116.29,0,0,1-8.16,12.82c-4.91,6.46-9,13.25-11.32,21.09-2.4,8.23-1,12.41,9,9.74,4.8-1.28,10.09-.7,15.16-.93,26.6-1.24,53.32,2,79.84-2.31,13.92-2.26,26.79-6.27,36-19.67-11.84-2.25-23,1.3-33.38-3-3.88-1.62-8.87-2.92-8.2-8.12.71-5.48,6-5.44,10.13-5.18,19.67,1.23,36.28-6.72,52-17.22,7.89-5.29,14.23-12,18-23.19-24.16,12-48.06,16.91-72.51,19.88-8.1,1-14.51-1.29-17.94-8.65-2.32-5-9.23-9.8-4.51-15.84,9.52-12.18,17.06-26.18,36.72-26.43a80.32,80.32,0,0,0,40-10.95c3.9-2.32,9.45-5.34,1-9.37-4.13-2-10.3-3.29-9.1-8.87,1.27-5.86,8-4.84,12.71-5.59,12.53-2,25.24-3.44,36.36-10.18,7-4.25,13.5-9.43,12.31-18.9-.55-4.37-5-10.19-.16-12.54,5.19-2.51,7.86,4.75,11.58,7.79a73.68,73.68,0,0,1,5.36,5.39c18.29,18.4,36,16.29,49.88-5.78,4.14-6.57,6.41-13.69,7.94-21.2,1.69-8.27,3.71-16.47,6-26.63,7.61,10.48,9.84,20.22,12.14,30.09,4.25,18.28,15.12,21.76,30.09,9.92A36.56,36.56,0,0,0,1576,852.91c4.41-10.49,3.61-21.6,5.28-32.39,1-6.64-1.41-15.2,2-19.74,4.6-6.19,12.72,1.57,19.79.42,9.82-1.6,19.06-3.49,26.48-10.64,7.1-6.83-2.59-12.31-1.4-18.63a11.8,11.8,0,0,1,.88-2.31c21,9.46,29,10,49.58,6,9.81-1.89,15.34-6.09,18.3-16.06,12.21-41.07,18.3-83.17,23-125.59,2.51-22.75,2.73-45.55,2.67-68.39,0-3.16-1.5-10,4.46-7.88,15.54,5.39,24-4,32.31-13.76,6.54-7.74,12.3-13.46,20.35-1.88,1.83,2.64,4.92,3.05,8.06,2.19,1.94-.53,2.43-1.8,2.52-3.69.94-20.73-13.42-33.61-33-26.61-42.11,15.08-83.76,31.51-125.15,48.48-15.31,6.28-28.69,16.48-36.68,31.88-2.25,4.33-7.56,9.44-4.22,13.67,3.61,4.57,9.37-.29,13.9-1.8,5.22-1.73,10.23-3.91,15.83-4.24,11.18-.68,14.93,3.82,11,14-4.66,12.23-9.77,24.29-14.59,36.46-2.18,5.5-4,10.69,5.26,11.42,5.09.4,5.73,4,3.77,8.41-13.7,30.54-22.17,62.91-32.87,94.5-2.42,7.15-5,6.69-9.26,2-7.24-8-8.25-18-9.77-28.18-2.31-15.44-.22-31.44-5.16-49.25-2.6,8.87-4,15-6.26,20.88-1.64,4.28-4.28,9.61-9.65,8.32-4.78-1.15-6.4-6.58-6.43-11.41a121.91,121.91,0,0,1,1.2-15.11c.45-3.65,2.21-7.37-1.9-11.15-4.28,7.27-9.76,12.79-18.93,10.71-8.79-2-14.44-8.32-15.66-16.53-1.75-11.73-7-10.3-15.51-7.23-15.56,5.58-25.76-2.64-25.22-19.27.23-6.91,3-13.15,5.54-19.39,4.07-9.86,6.74-20,6.81-30.73C1483.4,583.1,1483.11,565.79,1489.58,545.84Zm958.52,768.91c68.69-91.48,113.51-190.9,134.29-300.49,20.65-108.93,21-217.49-13.95-326.5-5.61,8.91-7.71,16.14-8.07,23.83-.56,12-5.81,20.52-16.45,26.47s-20.81,12.9-31.07,19.59c-5.16,3.36-7.08,6.07-.15,10.86,41.25,28.5,52.55,69.88,47.11,116.89-2.62,22.72-14.32,41.63-35,53.09-5.71,3.16-7.47,6.53-7.78,12.66-.58,11.32-5.25,19.42-16.1,25.94q-50,30-97.28,64.46c-3.84,2.79-7.28,5.5-9.11,10.14-4.65,11.79-9.89,23.35-14.38,35.2-6,15.91-4.87,18.37,10,27.33,7.23,4.36,14.46,8.78,21.21,13.82,4,3,7.75,7.46,6.76,12.89-1.09,6-7,6.48-11.91,7.7-3.28.82-6.59,1.5-9.88,2.28s-7.35.88-8,4.88c-.58,3.52,3.18,4.67,5.67,5.93,27.59,14.11,36.83,37,35.22,67.11C2427.65,1257.86,2435.48,1285.63,2448.1,1314.75ZM2442.85,131c-4-2.19-7.93-4.45-11.95-6.58-30-15.84-62.84-24.78-93.61-38.77-29.21-13.29-57.28-29-87.13-41-49.44-19.81-102-23-154-28.69-13.24-1.45-24.63,5-35.26,12.16-20.17,13.61-36.35,31.59-52.79,49.18-13.94,14.91-29.71,25.1-50.23,29.74A370.39,370.39,0,0,0,1878,135.27C1866.06,141,1855.79,149,1847.77,163c19.9-3.26,37-5.69,54-8.92,45.64-8.69,90.73-20.43,136.87-26.36,98.8-12.69,197.6-6.08,296.35,1.3C2370.72,131.73,2406.42,134.64,2442.85,131ZM2032,897.9C2017.39,887,2017.39,887,2008.25,867c-11.92-26.11-13.49-26.7-39.22-14.8a47.77,47.77,0,0,1-4.66,2c-4.38,1.46-9.15,4-13.33.8-5-3.77-1-8.62,0-12.83,3-12.22,10.62-23.05,10.23-36.38-.21-7.26-1.21-10.75-9.12-6.16a40.49,40.49,0,0,1-21.84,5.62,18.8,18.8,0,0,1-17.06-11.4c-3-6.4,2.34-10.36,6.07-14.06,5.68-5.64,11.94-10.72,18.13-15.82,17.08-14.06,24.17-36.59,13.89-55.75-15.56-29-41.28-49.6-64.76-71.88a7.77,7.77,0,0,0-2.26-1.15c-12.08-5.43-23.5-.42-26.71,12.43a98.8,98.8,0,0,0-2.15,36.4c2.74,22.3,10.23,43.59,13.12,65.73,2,15.06,8.32,27.48,17.92,38.37,16.2,18.37,22.88,39.86,24,63.89,1.78,39.11-5.25,77.44-9.24,116.05-2.68,25.83-2.43,51.42,7.26,76.2,4.1,10.47,8.2,18.53,21.67,11.45,4.69-2.47,10.71-2.27,16-3.78,23.52-6.75,47.56-12.21,68.36-26.13,4-2.65,9.22-5.4,4.14-10.51-15.45-15.52-31.53-30.52-53.34-36.74-9.31-2.65-19.18-3.43-27.79-8.3-3.43-1.94-6.82-5.39-6-9,1.23-5.07,6.61-2.88,9.78-2.31,12.86,2.32,25.17,0,37.52-3,7.66-1.9,11.87-5.75,13.26-14.44,1.86-11.59,9.47-20.67,18.49-28C2017.37,908,2024.69,903.19,2032,897.9ZM2337.41,1066c8,2,15.54,4.18,23.18,5.86,5.54,1.21,10.39.11,11.33-6.61,3.49-24.81,20.78-38.68,40.16-50.91,14.31-9,28.93-17.54,40.42-30.37,17.8-19.88,23-54.81,5.37-73.81-16.2-17.47-41.38-22.78-64.91-23.28-32-.68-64,4.06-96.25,1.15-24.81-2.24-50.14-5.26-74.66-2.6-46,5-91.13,17.22-138.18,13.42-12.18-1-25.64,1.26-36.75,12.74,7.78-.52,13.66-1.56,19.44-1.15,8,.57,17,1.13,20.34,10.06a25.3,25.3,0,0,1-4.6,26.24c-3.77,4.39-9.05,7.53-13.81,11-4,2.94-10.08,2.53-14.3,7.76,58.43.73,115.41,1.23,170-8.45-4.63-5.81-8.82-11.11-13.08-16.37-2.88-3.56-4.67-7.48-1.56-11.53,12.08-15.71,25.57-29.4,46.89-31.54,8.11-.82,12.69,2,14,10.56,2.13,14.48,6.88,18.15,21.63,15.92a60.12,60.12,0,0,1,25.07,1.06c3,.79,5.85,1.86,6.57,5.18.89,4.07-2,6.17-5,7.95-9.24,5.54-19.84,7.05-30,9.88-6.08,1.69-11.84,3.72-15.29,11.66,34.19.12,66.74,11.07,100-.19,13-4.42,27.29-6.08,41.09-.59,7.33,2.91,8.32,6.53,1.88,11.58-9.07,7.09-20,8.48-30.82,10.55-7.77,1.49-16.59.72-22.57,8.05,3.56,3.28,7.27,3.93,11,4.79,6.17,1.4,12.32,3,18.35,4.91,5.2,1.66,11.81,3.42,12.2,9.54s-6.07,8.71-10.75,11.26a80.14,80.14,0,0,1-28.72,9.56c-17.7,2.11-35.46,3.72-55.76,5.81,9.1,2.22,15.66,3.62,22.08,5.46,6.57,1.89,13.16,4.21,15.67,11.51C2349.87,1060.2,2339.89,1060,2337.41,1066Zm-474.84,35.12c22.83,0,44.81.42,66.76-.07,141.81-3.14,283.28.52,424.07,19.57,6.13.83,16.25,8,18.37-.91,2-8.32-10-9.75-16.66-12.1-54.13-19.07-108.62-36.83-160.78-61.4-37.78-17.79-39.89-18.21-31.92-60.29.62-3.25,6.78-10.19-2.91-9.69-6.13.32-17-4.22-15.73,9.48,1.24,13,2.36,26.09,3.91,39.08.66,5.59-1,9.13-6.56,6.58-10.42-4.82-21.37-7.29-32.33-10.21-5.7-1.51-10-6.87-10.86-13.06-1-7.26,6-7.06,10.2-9,9.83-4.46,16.26-12.22,23.63-21.45-16.34-1.68-30.54.38-44.78.71-8.33.2-11.16,4.5-11.53,11.78q-.76,15.2-1.39,30.39c-.19,4.41-.76,7.84-6.12,9.54-37.39,11.88-72.9,29.25-111.56,37.51-25.17,5.38-50.08,11.94-75.18,17.7C1871.87,1087.41,1865.27,1092.06,1862.57,1101.1Zm766.35-565c-1.66-11.64-3.91-24.94-5.36-38.34-1-9.56-4-16.33-14.55-18.91-6.84-1.68-12.91-6-18.9-10.09-20.12-13.85-33.23-33.54-45.23-54-5.21-8.88-8.65-7-12.9-.09-10.85,17.7-15.09,37.14-10.73,57.21,9.18,42.24,22.35,48.51,52.61,50.35,11.65.71,23.7,1.23,34.91,5.62,11.49,4.49,12.62,9.52,4.06,18.14-10.7,10.77-23.34,18.28-38.45,20.49-5.11.75-8.55,2.47-11.29,6.68-12.91,19.82-26.47,39.2-36.14,61-8.56,19.3-9.07,19.37,7.71,32.33,9.27,7.16,10.77,14.13,2.69,23.19s-16.24,17.39-27.36,22.12c-10.64,4.54-23.09,6.24-30.95-2.59-10.78-12.1-17.92-6.56-26.68,1-9.53,8.22-9.55,9.56,1.56,16.61,7.83,5,15.61,10.06,23.57,14.83,4,2.39,8.12,4.37,13.18,2.62,10-3.45,20.06-6.56,30.09-9.83,12.21-4,19.54-12.18,23.26-24.6,4-13.29,6.77-26.93,13.29-39.52,18.08-34.91,36.34-69.64,60.87-100.66C2625.44,560.48,2629.15,549.76,2628.92,536.13ZM2101.34,268.58c-5.75-2.09-12.43,2.05-15-3.8s4.53-8.2,7.09-12.2c5.94-9.27,12.14-18.44,15.33-29,2.1-7,9.89-16.3-5.78-18.36-3.28-.43-3-4.84-2.43-7.7.64-3.28,2.13-6.38,2.95-9.64.56-2.2,2.68-4.91-.62-6.62-2.25-1.17-3.91.72-5.57,1.95-5.89,4.39-10.12,10.13-13.52,16.54-46.89,88.36-58.61,180.57-30.28,277.12,4,13.79,16.37,22.11,30.9,21.1,10.16-.71,15-4.68,13.08-16.33-3.8-22.91-6.39-46-9.07-69.11-1.25-10.8-2.77-21.61,5.67-31.19,4.59-5.21,1.6-8.47-5.16-7.89-4.45.38-9.72,3-12.67-2.34-3.37-6.05,1.46-10.47,4.67-14.63,7.79-10.06,15.19-20.29,19.73-32.3,2.34-6.19,1.76-10-6-11.8-14.24-3.28-16.07-8.86-7.82-20.95C2091.72,284.18,2098.55,278.17,2101.34,268.58Zm-177,853.87c141,47.36,280.36,36.39,420,9.64-55.7-9.64-112-3.86-167.91-6-16.68-.63-33.52,3.77-50.32,5.52-10.4,1.09-19.78-1.24-24-12.1-2.41-6.24-7-5-11.42-4.88-40.54,1.34-81.08,2.64-121.61,4.32C1955.08,1119.54,1941.05,1121.11,1924.37,1122.45Zm-21.72-620.83c9.62,2.59,15.7,4.1,21.69,5.92,1.89.57,4.14,1.61,3.67,4.31-.51,2.91-3.15,2.51-5,2.41-5.47-.3-11.3.1-16.31-1.67-12.4-4.4-14.51,6.84-20.58,12.23-6.64,5.9-2.7,11,.4,16.66,9,16.5,21.66,30.09,34.37,43.69,5.28,5.65,7.8,5.15,11.71-1.63,29.32-50.89,61.36-100.12,92.75-149.75,1.53-2.43,4.09-4.49,3.66-7.81-1.69-13-3.45-25.9-5.51-41.32-7.94,16.59-15.83,30.07-26,42-4.37,5.09-5.33,8.83.56,13.34,4.24,3.24,4.62,7.72,1.86,12.46-9.81,16.86-20.92,32.73-34.74,46.6-6.66,6.69-11.32,5.77-14.87-3.11-4.8-12-8.19-24.49-11.55-38.37-4.64,4.44-8.67,7.29-8,13.06.18,1.68,3.82,4.48.84,4.74C1915.61,476.78,1915.11,492.89,1902.65,501.62Zm84-306.94c-9.24,8.52-14,19.67-17.82,30.92-23.12,68.1-34.19,137.56-21.76,209.38,2.65,15.35,3,31.18,9.09,45.85,3.27,7.92,7.45,10,13,1.63,5.84-8.79,11.93-17.41,17.8-26.19,2.15-3.21,4.74-8,.63-10.1-15.8-8-13.88-19.84-9-33.24,1.42-3.9,3.16-9.93-5.56-8.61-12.63,1.91-13.6-6.14-11.17-14.94,2-7.23,6-13.91,8.93-20.9,1.57-3.77,2.73-7.89-3.77-7.5-10.28.6-10-5.18-7.56-12.17,1.65-4.78,3.66-9.43,5.5-14.15,7.21-18.56,17.78-35.46,26.51-53.26,3.71-7.56,3.7-12.57-7.07-10-2,.5-4.18.61-6.27.91-9.93,1.42-13.6-2.53-10.58-12.27s5.77-19.42,9-29C1980.61,219.21,1985.86,207.74,1986.64,194.68Zm460.27,646.1c27.57-.76,44.86-17.38,44.76-42.5,0-7.28,1.11-11.5,9.47-10.47,2.47.31,5.48.11,6-3.11.49-2.81-1.58-4.72-3.8-6.08-6.31-3.84-13.71-4-20.57-6-6.48-1.87-13.18-3.32-16.1-10.77-7.33-18.75-24.69-25.62-41.26-31.79-6.34-2.36-13.6-1.58-18.79-7.68-3.39-4-8.74-4-12.9-1.6-4.83,2.79-.68,6.9.26,10.08,4.92,16.56,5.2,33.25,2.5,50.18-2.46,15.48-8.47,29.16-20,40-3.05,2.88-4.91,5.88-3.37,10,1.24,3.32,3.87,2.5,6.32,1.56,23.26-8.87,48-29.51,48.38-53.43.14-8.63,3.59-13.17,12.45-14.35,9.46-1.27,12.94,4.22,15.1,11.65C2461.83,798.61,2461.06,819.9,2446.91,840.78Zm42-522.29c-5.77,2.25-10.69,4.23-15.66,6.06-3.11,1.14-6.89,3.22-9.38.18-1.93-2.37.43-5.55,1.71-8.18,4.61-9.47,9.4-18.86,13.75-28.45,1.47-3.25,4.27-8.27-.1-10.25-8.92-4.05-4.78-9.52-3.32-15.29a56.8,56.8,0,0,0,1.86-13.77c0-7.36,3.38-17.82-3.37-21.11-8-3.91-16.89,2.68-24.21,7.72-6.51,4.49-6.06,11.77-5.6,18.46s1.07,13.62,3.09,20c5.52,17.4,5.3,34-4.42,49.91-1.61,2.64-4.59,6.77.27,8.4,8.37,2.83,6.48,9.17,5.58,14.57-1.78,10.79-4.47,21.43-6.89,32.12-5.71,25.26-7.31,50.89-6.52,77.37,1.92-44.56,25-77.61,58.69-106.23-8.14-1.66-14.48-1.17-16.51-6.5C2473.7,332.63,2487,328.67,2488.86,318.49Zm8.46,136.24c-.36.61-1.56,2.86-3,4.94-5.46,8-3.72,16-.35,24.08,3.73,8.91,8.87,17.37,8.3,27.63-.43,7.72,2.12,14,9.26,18.06,6.59,3.72,6.83,9.47,5.87,16.4-2.4,17.33-13.39,30.6-20.17,45.83-15.91,35.77-39.58,65.69-65.25,94.47-4.51,5.05-8.9,10.21-13,15.57-2.48,3.23-6.07,7.09-1.52,11,3.77,3.24,7.74,1.64,11.44-1.27,36.89-29,59.21-69.9,86.94-106.37,1.19-1.55,1.27-4,1.79-6,5.74-22.52,11.26-45.1,17.35-67.52,1.75-6.44.11-9.75-5.57-13-11.94-6.91-18.73-17.91-22.24-31.13-2.19-8.28-2.67-16.65-2.61-25.15C2504.58,459.05,2505.17,455.06,2497.32,454.73ZM2439.93,576c12-27.43,23.15-52.87,34.25-78.31,1.35-3.09,2.55-6.24,3.76-9.39,3.26-8.46-.27-15.79-4.32-22.74-8.33-14.3-17.27-28.28-19.54-45.57-6.25,12.1-5.21,25.36-7.72,37.88-1.22,6.12-.15,14.72-5.89,17.29-14.78,6.61-17,22-25.81,32.69-3.53,4.29-2.43,8.26-.29,12.79C2422.64,538.11,2430.63,555.74,2439.93,576ZM2128.2,1585.23c-12.16-3.55-21.31-11-32.6-13.33-4.44-.91-9-1.38-12.07,1.33-3.52,3.15,1,6.69,1.91,10,1.45,5.28,3.5,10.39,5,15.65,1.24,4.24,3.07,6.07,8.13,5.36,25.28-3.53,49.5-10.09,72.05-22.41,6.64-3.63,9.1-8.1,9.2-16,.18-14.8-5.56-28-8.73-41.93-1.51-6.61-25.62-15.75-31.28-11.58-8.75,6.44,1.44,12.25,2.25,18.5,0,.39.39.74.55,1.13,3.87,9.32-.37,11.51-8.77,9.83-2-.41-4-1.44-6-1.91-4.33-1-9.2-4.61-12.94,0-3.59,4.46.54,8.75,2.23,12.86C2121.25,1562.76,2127.76,1571.9,2128.2,1585.23Zm-632.63-82.62c.88-10,1.7-16.5,2-23.06,1-22.53,8.43-44.84,2.54-67.62-1.42-5.46-.41-10.77-.15-16.23,1.28-27.21,11.71-52.53,15.57-79.16.64-4.34,3-9.94-2.26-12.53-5.14-2.51-8.44,2.18-11.51,5.61-16.56,18.47-24.46,41-30.39,64.5-2.84,11.25-1.77,21.55,4.53,31.31,7.83,12.13,10.33,25.49,10.11,39.8A154.68,154.68,0,0,0,1495.57,1502.61Zm330-736.66c-20.55,10-37.81,9.14-54.89.32-16.68-8.61-25.43-24.25-35.12-41-11.93,25.39-11.41,50-8,74.87.48,3.5,2.67,4.65,5.86,5.52C1760.93,813.17,1807.6,794.43,1825.57,766Zm15-157.84c-2.66-56-29.83-106.1-36.24-161.75-17.76,12.41-20.54,18.87-16.34,36.94a492.26,492.26,0,0,0,20.84,67.57C1816.74,571.17,1824.46,591.75,1840.55,608.11Zm563.39-261.48c-5.32,7.28-10.12,14.16-15.25,20.79-2.86,3.69-1.84,6.86,0,10.46,6.11,12,12.29,24,18,36.24,3,6.47,4.86,5.41,9.47,1,19.11-18.4,20.38-42.48,22.33-66.43.4-4.89-1.53-7.58-7.31-7.68-8.35-.13-8.49-5.19-5.19-11.21,1.93-3.54,4.07-7,6.31-10.76-16.71.7-20.46,9-13.34,27.13,1.91,4.87,7.38,11.72,2.76,14.8-5.57,3.71-8.17-5-12-8.35C2407.85,351,2406.26,349.06,2403.94,346.63Zm-198.85,850.73c5.13,0,6.82,0,8.51,0,19.74.68,38.64-2.92,56.18-12.08,5.12-2.67,11.55-6.85,10.29-13.1-1.3-6.41-8.64-3.38-13-3.11-36.53,2.24-73,4.91-109.54,7.67-3.3.25-8.8-2.18-9.4,3.11-.44,3.89,4.42,5.66,7.72,7.51C2172.28,1196.57,2190.2,1198.08,2205.09,1197.36Zm-669,276.12c8.77-11.58,9.55-22.19,7.91-32.26-5.92-36.23,1.48-71.26,8-106.46.61-3.31,4.48-7.52-.4-10.14-3.51-1.88-6.66,1.44-8.68,3.76-13.58,15.55-30.75,29.49-22.16,54.51,2.68,7.8,2,16.69,3.46,25C1527.84,1428.78,1531.78,1449.62,1536.13,1473.48Zm614.14-694.82c-19.83-5-37.43-8.69-55.62-3.56-15.61,4.4-20.81,17.49-12.42,31.4,3.05,5,8.23,9.38,9.59,14.75,2.72,10.74,7,8.78,13.86,4.07C2123.05,813.31,2133.57,795,2150.27,778.66Zm-126.63-446.3c-11.74,15-18.24,32.78-33.78,43.39,3.24-15.55,14-27.37,20.53-42.12-9.82-1-18.44.33-27.14,1.65-6.78,1-9.49,6.31-10.55,11.24-1.33,6.16,5.29,3.12,8.15,4.47,4.9,2.3,5.93,5.78,4.43,10.31-2,6-4.22,11.94-6.59,17.81-2.57,6.37-6.63,12.78,5.09,14.35,4.68.62,5.23,5,4.85,9-.47,4.95-1.23,9.87-1.86,14.81C2002.72,391.08,2032.63,371.32,2023.64,332.36Zm-644,958.85a268,268,0,0,0,9,52.15c1.09,3.87.58,9.68,6.17,9.55,5.41-.12,5.38-6.09,6-9.81,3.9-21.9,7.41-43.88,10.81-65.86.48-3.08,1.83-7.77-2.2-9-8.29-2.48-15.57-12.83-22.62-10-7.22,2.92-6.36,14.58-7.18,22.93C1379.5,1283.29,1379.67,1285.41,1379.67,1291.21Zm729.64-408.75c5.06,0,8.64.39,11.35-2,15-13.38,26.76-29.25,32.93-48.47,2.9-9-1.36-12.3-10.92-10-22.28,5.43-37.4,23.69-42.09,48.6C2098.68,880.67,2101.82,883.5,2109.31,882.46ZM2030.13,953a85.84,85.84,0,0,0,20-1.88c9.81-2.3,18.39-5.86,23.23-15.37,2.74-5.36,2.55-9.78-4.17-11.76-18.11-5.36-35.7-4.84-52.08,5.45-6.45,4.05-10.74,10.48-8.53,18,2.1,7.16,9.65,5,15.28,5.53C2025.91,953.13,2028,953,2030.13,953Zm-795.38,278.24a39,39,0,0,0,0,5.07c.69,5,1.32,11.64,6.49,12.71,6.63,1.38,7.37-6.26,8.63-10.46,6.18-20.64,12.63-41,24.69-59.26,2.1-3.18,5.45-8.31,1.28-11.41-3.59-2.67-7.9,1-11.36,3.36C1243.26,1185.58,1237.75,1207.81,1234.75,1231.21Zm546.58-780.93c14.74-9.16,19.88-22.73,25.8-35.73.64-1.4,1.83-3.05,0-4.52-6.82-5.52-4.33-13-4.31-20,0-2.74,1.66-6.43-1.85-7.87-3.25-1.34-5.38,1.87-7.35,3.81C1775.15,404.23,1774.77,426,1781.33,450.28Zm776.34-51.13c6,18.12,14.94,31.68,24.54,44.72,8.35,11.33,18.91,20.32,32.36,25.39,2,.74,4.14,1.75,5.85-.1s.32-3.89-.6-5.73C2606.25,436.35,2585,416.74,2557.67,399.15Zm-709,65.2c4.44-9.3,16-13.49,13.06-25.78-.44-1.88.22-3.67,2.18-3.6,11.6.45,12.34-11.1,18.51-16.6,1.82-1.62,2.7-3.63.52-6.5-7.14-9.39-14-9.64-21.14-.19-4.54,6.05-8.35,12.8-13.62,18.11C1837,441.13,1840.37,451.84,1848.71,464.35ZM1563.19,932.48c12.58-.13,28.72-10.74,28-19.24-.86-10.27-8.53-14-17.71-14.48-12.15-.59-26.07,11.59-25.17,21.89C1549.09,929.43,1554.83,932.8,1563.19,932.48Zm841.7-432.67c21.29-26.45,21.26-27.6,8.34-49-4-6.57-6.83-7.54-11.58-1-3,4-6.68,7.53-10.17,11.16-2.44,2.54-4.24,4.66-2,8.67C2394.68,479.09,2399.33,488.84,2404.89,499.81Zm128.05,335.57c1.17,7.39-10,10.86-1.29,17.89,9.4,7.55,8,17.12,3.3,26.29a89,89,0,0,1-20.65,27c-3.74,3.27-5.19,6.53-2,10.84,4.12,5.6,7.37.91,10.52-1.16C2544.9,901.6,2554.79,855.13,2532.94,835.38ZM1807.05,345.19c-8.49,1-15.12,1.8-21.75,2.61-8,1-13.11,8.07-9.21,12.89,8.19,10.09-.46,17.55-.76,26.1-.07,2-.57,4.26,2.54,5.82C1790.24,379.21,1803.24,366.14,1807.05,345.19Zm-560.64,794.44c-13.1,4-22.65,12.33-31.57,19.94-7.16,6.12-9.75,17.53-5.38,28,1.24,3,2.69,6.75,7,6.21,3.61-.45,4.22-4.13,4.67-6.79,2.23-13.1,9.85-23,18.15-32.73C1242.45,1150.48,1246.19,1146.81,1246.41,1139.63ZM1791.6,724.74c3.57-1.08,7.51-1.6,10.73-3.4,6.22-3.48,15-7.88,13.36-15s-11.36-5.19-17.85-4.86a68.55,68.55,0,0,0-16.08,3.21c-3.94,1.2-8.83,2.86-8.94,7.81-.12,5.22,4.21,8,8.71,9.69A99,99,0,0,0,1791.6,724.74ZM1827,386.25c4.36-5.14,13.11-7.65,8.19-17.16-1.55-3-.26-7.19,3.29-6.25,14.32,3.79,13.38-10.51,21.52-15.41-20.69-5.48-16.07-5.95-33.57,9.2C1816.24,365.46,1826.81,376.06,1827,386.25Zm10,42c1.2-3.06,1.51-4.92,2.51-6.24,5.59-7.36,11.15-14.75,17.1-21.81,5.49-6.5-.71-8.58-4-11.81-3.56-3.53-6.4-7.38-12.25-1.93C1827.81,398.19,1826.9,402.68,1837,428.25Zm-30.67,161.46c-.22-10.41-5.66-17.69-9.47-25.56-1.13-2.35-.66-6.85-4.8-6.08-2,.38-3.92,3.06-5.14,5.13-10.57,17.85-8,25.54,9.83,32.54C1804.84,598.91,1806.68,595.68,1806.35,589.71Zm105.46-117.47c-17.38-8-17.38-8-29.83,7.93-8.52,10.88-7.58,12.92,6.08,16.27,4.59,1.12,6.92-.13,9.31-3.76C1901.74,486.05,1906.51,479.69,1911.81,472.24Zm13-128.85c-5.4,0-25.45,17.2-26,22.57-.12,1,.47,2.76,1.17,3,5.52,2.06,10.21,8.74,17,4.46,8.33-5.28,17.08-23.1,14.5-27.95C1929.78,342.54,1927.2,343.31,1924.76,343.39Zm-61.52,143.16c3.77.9,5.15-2,6.85-4.33,3.2-4.44,6.2-9,9.62-13.28,3.66-4.54,6.66-7.72-.47-12.79-6.7-4.76-9.88-3.73-13.73,2.6-2.82,4.65-6.93,8.51-9.8,13.13A9.52,9.52,0,0,0,1863.24,486.55Zm-424.66,959.07a53.66,53.66,0,0,1,13.8-19c7.55-6.72,8.58-14.57,5.62-24-2.23-7.15-4.38-6.79-9-2.06C1436.58,1413.37,1437.38,1429.25,1438.58,1445.62ZM1849.1,1258c-17.36,10.12-28.55,28.61-27.8,45.07C1835.87,1291.48,1847.18,1278.84,1849.1,1258Zm72.18-825.1c-6.82,2.58-9.56,9.2-13.42,14.39-2,2.74-9.33,6.51-1.26,10.61,5,2.55,10.61,8.88,15.48-.71,1.89-3.73,4.94-6.87,6.92-10.58,1.43-2.67,6-5.28,2.76-8.55C1929.28,435.5,1925.09,434.65,1921.28,432.87Zm-13.41-45.23c-6.68-3.76-11.8-8.91-17.08-9.07-7.08-.22-11.73,7.86-12.88,13.33-1.45,6.88,7.41,10.74,12.42,11.23C1899.22,404,1899.45,392.66,1907.87,387.64Zm-17.58,62.22c3.76.25,18.53-19.1,17.28-22.14-.55-1.35-2.23-2.31-3.54-3.25-12.74-9.19-13.92,5-19.46,9.93-2.17,1.94-6.5,4.64-3.84,8.2C1883.14,445.82,1887.32,447.7,1890.29,449.86ZM1223,1126c-1.48-4.82-5.16-2.88-7.86-1.59-8.94,4.26-15.05,11.93-21.56,19-3.22,3.51-.45,6.14,2.23,8.35,3.21,2.65,5.37,1,7-2,3.12-5.74,8.31-9.33,13.33-13.14A17.08,17.08,0,0,0,1223,1126Zm691.41-710.19c4.53.12,16.1-14.12,13.84-17.12-2.56-3.38-7.56-6.61-10.84-5.05A24.05,24.05,0,0,0,1904.76,410C1904,413.47,1911,414.09,1914.42,415.78Zm-36-43.32c-2.94-5.18-8-9.21-12.67-8.92s-10.77,5.23-10.22,10.66c.51,5,6.06,10.54,11.06,10.25C1872.27,384.12,1874.86,377.22,1878.4,372.46Zm18.22-25.12c-5,.31-10,.52-14.95,1a7.58,7.58,0,0,0-6.67,5.1c-1.18,4,3.13,4.25,5.37,5.45C1892.1,365.15,1891.92,352.08,1896.62,347.34Zm528.32,100.34V426.29C2415,434.17,2415,434.17,2424.94,447.68Zm-557.26,57.47c3.47,4.18,1.14,12.33,8.89,12.39,2.1,0,6.49-5.3,6-7C1880.36,503.58,1873.08,507.11,1867.68,505.15ZM2534.8,828.58c-2-7-2.16-13.08-8.78-15.19-3-.94-2.85,2-3.1,3.91C2521.86,825.52,2528.1,825.88,2534.8,828.58Z"/><path class="cls-1" d="M1605.26,1920.6c1.17-13.45,11.84-21.95,17.37-33.13,1.89-3.82,5.26-2.25,7.55-.41,19.67,15.72,38.48,11.35,56.9-2.25,3.34-2.46,5.74-1.36,9,.48,18.63,10.47,32.08,25.68,42.49,44.07,2.24,4,.89,6.08-1.4,8.85-3.24,3.9-6.24,8-9.32,12-12.95,17-19.5,35.3-19,57.48,1.22,57.11,1.62,114.29-.17,171.37-.74,23.58,7.21,41.09,23.59,55.69,8.51,7.59,9.53,12.9,2.58,22.61-16.32,22.8-16.53,24.62-40.7,10-16-9.63-28.77-11.11-42.47,1.71a3.6,3.6,0,0,1-1.09.64c-8.1,3.21-15.44,14-23.32,10.37-12.23-5.65-25.08-12.58-32-25.73a20.94,20.94,0,0,0-2-3.21c-10.71-13.5-16.44-26.71,0-40.55,4.65-3.92,5.61-9.63,2.3-16.09-12.55-24.43-24.54-49.15-36.81-73.72-.84-1.68-1.11-4.21-5.68-4.18,0,20.47,1.42,41.07-.36,61.38-2.27,25.89,6.79,46.37,24.81,63.64,5.88,5.64,7,10.12,1.77,16.87-6,7.6-9.2,19.8-16.67,23.07-8,3.5-17.14-6.56-25.76-10.67-5.08-2.43-9.42-3.25-14.18-.06a18,18,0,0,1-2.31,1.07c-33.81,16-33.81,16-61.57-9a7.94,7.94,0,0,0-2,1.55c-5.47,8.36-7,22.62-15.93,24.37-8.35,1.63-19.71-4.76-27.78-10.41-23.4-16.37-44-13.93-64.76,4.69-5.67,5.09-13.54,13-20.78,10.11a79.59,79.59,0,0,1-30.37-22.1c-15.23-17.58-22.35-34.56-2.67-54.62,6.88-7,10.63-18,10.7-30.78-12.55,12.4-20.51,2-28.69-4.06-7.17-5.29-10.87-5.14-12.46,4.3a36.8,36.8,0,0,1-3.32,9.56c-10.38,21.63-4.61,40.58,10.63,57,7.08,7.66,7.71,13.83,1.66,21.95s-7.69,22.37-16.1,24.6-16.86-9-24.81-15c-5.33-4-9.75-4-14.72,0-2.31,1.83-5.11,3.09-7.26,5.08-15.82,14.69-31.49,17.48-47.33,0-4.58-5.05-7.66-3.8-11.45,1.94-12.25,18.53-12.37,17.42-35.44,13.35-30-5.29-51.42-25-74.17-42.11-16.79-12.58-16-33.55-17.92-52.42-1.74-17.67-2.8-35.41-4.41-53.09-.3-3.26,1-8.43-5.38-7.77-5,.52-8.76,1.85-8.67,8.32.29,21.58,0,43.17.23,64.75,0,6.18,3.34,11.32,7,16,5.68,7.36,11.74,14.43,17.5,21.72,5.45,6.9,17.54,12.53,16.09,19.9-2.34,11.91-10.8,22.63-16.68,33.84-2.34,4.47-5.54,2.38-8.65,1.13-15.69-6.28-31.61-12.06-47-19.05-6.26-2.84-10.45-2.38-16.16,1.1-15.16,9.22-31,17.26-46.25,26.41-6.9,4.15-11.58,2.3-18.12-1.28-18.08-9.89-27.55-26.75-38.19-42.94-3.12-4.75-1.57-7.78,1.73-11,32.7-31.63,43.18-69.83,39.63-115-3.22-40.8-.44-82.05-.78-123.1-.19-23.49-18.67-36-33-50.37-4.42-4.46-5.35,3.54-6.59,6-13.72,27.63-13.74,56-4.26,84.94,1.59,4.87,6.26,11.46,1.84,15.36-7.49,6.61-16.62,11.46-25.46,16.31-1.34.73-5-2.4-7.39-4-18.47-12.46-36.85-25-53.79-45v20.8c0,52.9.35,105.8-.24,158.7-.15,13.56,3,24.89,12.21,34.69,4.06,4.31,8,8.78,11.64,13.41,5.75,7.22,18.7,12.87,17.48,20.31-2.11,12.78-10.45,24.59-16.58,36.6-2.92,5.72-7.58,1.9-11,.55-15.35-6-30.68-12.1-45.7-18.87-5.39-2.43-9.11-1.81-13.8,1.31a458.26,458.26,0,0,1-48.36,27.79c-7.06,3.55-11.61,2-18.23-1.68-18.08-10-27.63-26.7-37.86-43.23-3.12-5-2.44-8.48,1.49-12.12,33.93-31.42,45.13-70,40.3-115.63-2.82-26.6-.51-53.74-.51-82.9-9.35,10.56-17.23,19.13-24.69,28-3.85,4.6-7.29,5.76-12.95,2.64A447.4,447.4,0,0,1,574,2094.93c-4.2-3-5-5.45-3.26-10.41,3.33-9.55,5.73-19.43,8.24-29.25,6.15-24.14-1.64-46.13-11.93-67.19-4.38-9-3-13.79,4.24-20.08,17.45-15.06,17.51-16,35.62-2.36,9.28,7,15.42,8.66,25.31,0,16-14,39.3-13.57,56.33-.55,6.47,5,9.92,5.93,16.3-.67,20.42-21.14,38.23-23.56,65-9.55,4.8,2.52,6.51.51,9.54-1.92,37.57-30.11,22.27-27.58,61.06-2,16.66,11,16.79,12.19,25.19-5.94,5.33-11.51,11.34-14.6,23-9,11.39,5.44,24,8.44,35.24,14.09,8.07,4,13.12,3.24,19.82-2.71,29.19-25.9,63-32.57,99.16-18.4a171.19,171.19,0,0,1,65.75,46.2c34.58,39.37,28.35,96.11-13.23,130.8-9.26,7.72-8.62,11.3-.65,19.39,21,21.26,29.31,48.91,35.35,77.29,2.64,12.37,4,25,9.12,38.9,16.08-18.48,34.18-34,41.64-57.29,19-59.14,37.23-118.51,56.49-177.55,3.19-9.77,1.4-17.18-3.7-24.88-9.2-13.89-21-25.44-33.51-36.22-5.51-4.75-7.05-8.93-2.28-14.77a28.75,28.75,0,0,0,2.6-4.35c14.32-26.13,15.36-28.12,41.2-14.69,24.36,12.67,45.76,15.64,67.81-2.53,2.22-1.82,5.24-2.74,8-3.86,8.81-3.6,17.65-13.29,26.45-9.23,12.25,5.64,24.28,13.34,32,25.94,15.26,25,16.45,25.72-4.29,47.13-15,15.53-17.56,29.79-10.12,50.41,21.5,59.58,40.54,120,60.55,180.15a23.94,23.94,0,0,0,1.08,3.64c5.19,9.75,10.74,22.09,20.48,24.44,7.24,1.74,13-11.3,19.15-18.05,12.58-13.82,17.28-29.59,16.85-48.66-1.13-50.34-2-100.78.21-151,1.31-30.36-8-54.78-28.15-75.79-7.12-7.42-7.65-12.39-2.19-21.23,14.89-24.1,15.23-26,40.74-11.82,19.23,10.7,33.48,12.73,51.93-2.51,19.6-16.2,40.93-9.44,55.59,12.78,2.15,3.26,2.73,8.06,7.8,8.77l.69,2.91,1.61-1Zm6.48,5.86c-1-.9-2-2.64-3.55-1s.21,2.63,1.11,3.73c.39,4.88,8.53,8.64,2.16,14.47-17.92,16.42-16.37,34-3.37,52.45,1.19,1.69,1.7,3.86,2.64,5.75q11.55,23.25,23.15,46.48c1.81-21.13.69-41.5,2.1-61.7C1637.7,1962.18,1627.65,1943.37,1611.74,1926.46Zm-579.49,169.42c15.92-9.77,29.18-19.37,39.89-32.12,34.26-40.84,16.54-106.25-33.73-123.38-36.64-12.5-68.35-3.89-94.7,24-5,5.31-8.11,6.09-14.61,2.22-13.44-8-28.07-13.64-43-18.54-5.71-1.87-8.14-.4-11,4.47-5.06,8.58-5.69,14.55,3,22.32,18,16.06,31.39,34.83,31,61.18-.72,53.74-.26,107.49-.15,161.24a67.68,67.68,0,0,1-2.36,18.77c-5.74,20.17-18.64,35.9-32.47,50.8-6.49,7-2.63,11.75.83,17.79,4.24,7.42,9,4.16,13.85,1.56,13.79-7.39,27.95-14.22,40.39-23.83,4.55-3.52,8.33-4.72,13.65-1.56,12.08,7.16,25.84,10.43,38.66,15.91,9.33,4,14.12,1.63,18.93-7.42,5.12-9.63-1.86-13-6.37-17.81-12.83-13.57-27.31-26.92-28.62-46.49-1.69-25.28-.38-50.76-.49-76.15,0-4.25.92-7.4,5.49-8.64,12.26-3.32,24.72-6.24,37.42-5.21,13.8,1.13,21.22,12.07,23.15,33.06q3,32.79,5.2,65.67c2.51,37.46,28.12,61,66,60.36,9.15-.16,17.88-11.49,12.79-17.37-18-20.76-19.72-46.94-25.43-71.87C1081.4,2149.18,1070.66,2115,1032.25,2095.88ZM1648.14,2139l-2.24.5c-1.51-2.5-3.24-4.9-4.51-7.52-25.22-52.08-49.66-104.56-76-156.1-9.3-18.22-14-34,1.39-50.41a8.6,8.6,0,0,0,1.78-3.35c2.42-8.08-2.84-14.12-7.09-19.2-3.14-3.74-7.27,1.94-10.43,4.08-8.75,5.9-17.58,11.81-25.56,18.67-4.81,4.14-7.83,4-13,.77-10-6.29-21-10.9-31-17.22-11-7-15.24-1.79-19.66,7.82-3.52,7.64,1.85,11,5.1,15.43,12.68,17.09,25.12,34.32,25.12,56.84,0,56.67-1.57,113.38.18,170,.86,28-9,49.3-27.78,67.75-6.44,6.33-6.88,10.63-2,18.13,6.12,9.35,11.8,2.69,15.86-.08,15.27-10.4,29.83-12.05,44.93-.17,5.12,4,8.22,2.35,11.83-3.23,4.93-7.62,3.09-12.8-2.22-18.94-14.61-16.92-21.78-36.18-21.37-59.17.91-50.32.25-100.66.42-151,0-2.76-2.18-6.57,2.63-8.92,3,5.74,6.1,11.23,8.88,16.87,25.35,51.54,50,103.44,76.33,154.49,9.29,18,15,33.51-1.71,50-6.22,6.14.7,11.77,3.6,16.84,4,7,8.1.64,11.4-1.23,10.22-5.8,20-17,30.08-17.15,10.78-.2,21.6,10.07,32.7,15.13,4.68,2.14,10,8.39,15.23.26,4.38-6.8,6.3-12.36-.74-19.72-16.35-17.09-23.22-37.09-22.38-61.87,1.86-54.93,1.46-110,.2-164.93-.62-26.74,5-50.34,22.65-70.37,6.7-7.63,2.44-13.08-1.58-18.77-5.19-7.36-10.27-1-13.82,1.76-11.82,9.08-22.8,10.6-35.05.65-3.26-2.65-8.44-8.82-13.69-.91-4.1,6.18-7.64,11-1.12,18.76,10.92,12.91,22,27.1,22.29,44.63C1648.67,2025.1,1648.14,2082.07,1648.14,2139ZM1302,2131.87c4.33,12.9,7.51,24.79,12.27,36,6.13,14.42,4.75,28-1.81,41.56-4,8.36-7.67,17-13.89,24.1-7.55,8.57-1,15.35,3.23,21.49,4.63,6.81,8.74-.79,12.71-2.5,9.77-4.21,18.46-10.5,26.24-17.56,6.9-6.27,12.3-5.48,20-1.37,11.88,6.35,24.59,11.22,37.17,16.12,4,1.57,9.72,6.4,12.64-1.5,2.31-6.27,10.22-11.09,2.16-19.92-11.88-13-24.76-26.08-30.51-43.22-22.67-67.66-44.56-135.59-67.17-203.28-2.46-7.37-1.19-12.7,2.61-18.87,6.94-11.24,15.8-20.88,24.27-30.84,6.73-7.91-2.18-12-4.16-17.63-2.18-6.19-7-2.5-10.52-.73-14.38,7.14-29,13.82-42.14,23.25-5,3.58-9.14,4.32-14.88.76-12.24-7.59-26-12.15-39.39-17.27-6.44-2.46-11.51-3.67-15.42,4.58-3.48,7.33-5.2,12.21,2.76,18.15,14.08,10.53,24.19,24.62,31.41,40.74,3.25,7.29,3.52,14.24,1,22q-24.85,77.14-49,154.51c-7.29,23.44-14,47-31.19,65.69-5.42,5.92-10.2,12.42-15.58,18.37-3.28,3.61-3.73,6.7-1.57,11.29,4.56,9.67,10,13,18.92,4.92,15-13.65,30.23-18.71,46.27-1.34,3.08,3.34,6,3.25,8.91-1.48,4.83-7.93,7.74-13.94.24-23.22-13.12-16.23-17.87-35-8.94-55.74,3.82-8.86,5.65-18.56,8.56-27.82,4.58-14.6,4.64-14.58,17.17-6.53,4.27,2.74,8.92,5,12.74,8.28,6,5.16,10.81,4.19,16.69-.63C1282.28,2145.35,1291.53,2139.37,1302,2131.87Zm-575.42-8.19c0-31.31-.17-62.62.06-93.93.13-16.57,2.72-32.81,9-48.27.91-2.25,2.29-5.45,4.09-5.94,3.19-.89,5,2.49,6.39,5,6,10.3,10,21.42,13.12,32.89,5.78,21.31,18.85,37.47,36.09,50.62,3.48,2.65,6.94,4.79,11.3,1.11,3.39-2.86,6.41-5.29,4.21-10.52-1.29-3.05-1.13-6.69-2.2-9.87-9.49-28.07-4-55,6-81.62.89-2.37,2-4.65,2.94-7,1.62-4.2,0-7.19-3.34-9.91s-6-1.42-9,.73c-7.59,5.46-15.38,11-20.59,18.68-6.06,8.89-11,7.07-18.44,1.82-18.57-13.17-34.86-11.57-51.37,4.19-3.34,3.19-6.72,6.6-9.08,10.52-4.82,8-8.61,7.77-15.14,1.07-19.51-20-37.55-20.21-58.89-1.72a42.43,42.43,0,0,0-4.67,4.3c-4.82,5.69-8.77,6-14.34.07-4.8-5.14-11.32-8.77-17.38-12.6-3.79-2.39-7.7-5-12.48-.48s-4.09,8.27-1.71,13.46c13.56,29.65,16,60,5.24,91.14-1.62,4.67-2.68,8.7,2.91,11.87,5.2,3,8.76,1.17,12.26-2.55,15.82-16.79,29.29-34.95,35.64-57.67a280.77,280.77,0,0,1,10.5-31.15c1.89-4.61,3.3-12.17,9.93-11.31,5.47.72,6,7.75,7.15,12.45,3.41,14.4,5.78,29,5.75,43.88-.12,53.74-1.76,107.56.59,161.19,1.44,33-8.89,59.47-29.68,83.39-2.22,2.55-4.57,5-6.7,7.62-6.15,7.57,1.26,12.49,4,17.94,3.28,6.39,7.19,1,10.39-.77,9.65-5.25,19.89-9.85,28.48-16.53,13.67-10.65,26.5-15.5,42.44-4.26,6,4.22,14.28,5,21.28,8,10,4.22,16.48,3.16,21.41-8.21,3-6.92,1.09-9.74-3.38-13.52-24.12-20.38-36.4-45.05-33.32-77.9C728.44,2174.64,726.55,2149.07,726.56,2123.68Z"/><path class="cls-1" d="M2315.8,1935c-10.93,18.65-12.81,37.11-8.65,56.44,1.42,6.62,3.14,13.24,3.71,19.94.47,5.64,5.79,12.29.56,16.75-6.65,5.67-15,9.43-22.68,13.77-2.13,1.2-4-.7-5.66-1.95-30.68-23.38-65.57-42.76-78.45-84-21.93,20-32.5,42.67-26.51,71.24a5.29,5.29,0,0,0,1.57-1c4.09-5,.62-15.91,8.55-16.33,12.55-.67,26.43-5.79,37.7,4.51,6.4,5.86,17.4,7.43,19.55,16.82,3.41,14.9,4,30.15-1.42,45-1.12,3.08-4.74,5.92-3.11,9.27,7.25,14.86,7.26,30.73,6.11,49.11,16.72-15.32,25.8.48,35.91,6.71,6,3.71,11.5,9.75,18.12,12.54,11.82,5,13.56,12.51,10.28,23.82-8.67,29.83-8.82,59.2,6.92,87.19,2.17,3.85,2.17,7.14-1.93,9.76a49.61,49.61,0,0,0-3.92,3.22c-17.37,13.68-17.54,13.87-34.88-.53-10.88-9-20.72-13-35.85-6.78-34.48,14.27-67.25,6.25-97.24-14.27-6-4.1-10.14-4.51-16.84-1.12-15.82,8-32.38,14.53-48.62,21.7-3.18,1.41-5.88,2-9.5.16-21.68-10.93-33.36-30.18-43.58-50.84-1.62-3.27.3-4.6,2-6.35,2.35-2.44,4.73-4.85,7.17-7.2,22.89-22.08,35.71-46.84,33.29-80.82-3-42.52-2.37-85.51-.15-128.14,1.5-28.84-8.62-50.64-27.81-70.32-15.54-15.94-15.23-16.25-3.51-35.59,9.94-16.4,10.07-16.69,28-8.63,13.46,6.06,26,16,39.93,18.68s24.55-12.22,38.26-16.06c28.22-7.91,55.29-6.4,81,8.15,6.92,3.91,11.49,3.14,17.69-2,24.48-20.13,24.7-19.86,50.17-1.49,1.71,1.23,3.42,2.46,5.17,3.63,14.93,10,15.12,10.09,24.94-4.87,2.87-4.37,5.2-5.65,10.15-3.2,16.27,8,33,15.26,49,23.71,6,3.17,10.26,3.62,16-.16a88.5,88.5,0,0,1,20.28-10.32c11.4-3.82,21.24-17.26,35.42-6.5,10.3,7.81,20.31,14.82,27.43,27,9.53,16.27,10.43,27.23-4.48,40.78-13.4,12.18-18.71,28.57-10.2,47.25,4.09,9,3.81,19.71,9.9,30.3,9.16-31.5,18.23-61.19,26.25-91.17,2.64-9.89,6.77-14.39,17.29-12.67,11.76,1.93,23.68-2.14,35.58,5.09,16.06,9.77,24.57,22.57,28.28,40.77,4,19.75,10.61,39,18.23,58.39,4.93-18.73,11.33-37.23,14.36-56.26,2.64-16.54-7.91-30-17.89-42-6.12-7.35-5.85-11.63-.1-19,19-24.17,18.8-24.66,43.63-5.48,5.44,4.21,9.69,6.16,15.52,1.65a16.71,16.71,0,0,1,5.71-2.71c9.23-2.52,17.7-13.72,26.43-9.24,12.35,6.33,25.46,13.5,32.62,27.14,4.87,9.29,14.79,18.1,14.82,27.15,0,8.63-12.21,15.29-19.91,21.54-26.29,21.31-30.17,52.73-38.34,82.12-11.1,39.89-21.06,80.09-32.1,120-2.71,9.81-1.61,17.85,3.73,26.37A360.88,360.88,0,0,0,2685.3,2264c-5.14-10.46.09-17,7.09-22.85,32.7-27.13,41-66.78,53.57-104.23,12.49-37.24,24.54-74.63,37.25-111.8,2.52-7.36,2.47-13.4-1.12-20.36-9.07-17.55-21.91-32.09-35.37-46.15-5-5.21-6.26-9.14-2.24-16.23,15.1-26.65,14.73-26.86,41.89-13.73,2.66,1.29,5.75,2.09,7.92,4,20.14,17.38,41.21,16.7,63.16,3.81,2.51-1.47,5.49-2.16,8.27-3.15,27.71-9.86,46.75-1.38,58.84,26.22,10.34,23.57,11,24.34-7.63,41.06-14.41,12.92-17.46,25.47-11.13,44.26,21.41,63.66,40.88,128,61.21,192,6.59,20.77,20.4,36.87,35.42,51.83,5.54,5.52,6.2,9.29,2,16-18,29-18.86,30.65-46.69,11.79-22.54-15.29-43.08-22.13-66.56-4.26a6.43,6.43,0,0,1-2.32,1c-7.23,1.77-14.29,10.1-21,6.09-11.29-6.74-23.08-13.05-30.86-25.31-11.23-17.7-14.71-33,1-50.36a48.07,48.07,0,0,0,12.53-34c-14.3,10.69-20.54-2.09-28.39-8.46-7.33-6-9.38-6.79-14.06,3.56-11.37,25.18-6.39,46.87,9.38,67.39,5.06,6.59,4.29,11.4-.15,17.84-16.55,24-16.5,24.32-40.19,6.35-5.86-4.44-10.9-5.74-17.09-1.73a30.79,30.79,0,0,1-3.36,1.79c-32.31,15.61-48,10-64.31-23-.74-1.5-1.76-2.86-3.41-5.51-5.83,10.3-11.63,19.67-16.56,29.49-3.42,6.81-7.12,8.19-13.82,4.28-15-8.74-30.5-16.54-45.23-25.64-6.16-3.81-10.63-4.65-17-.75-9.37,5.69-19.46,10.19-29.25,15.18-8.84,4.51-17.59,8.75-26-1.07-1.31-1.54-4.36-4.68-6.16-1.48-6.09,10.77-12.05,3.23-17.56.06-13.2-7.57-25.59-20.75-39.25-22.09-12.85-1.26-26.9,9.76-40.43,15.37a7.32,7.32,0,0,1-1.19.42c-8.1,1.82-16,11-23.47,6.64-11.73-6.8-24.87-12.9-31.69-26.25-5-9.74-15.62-19.73-14.58-28.52,1-8.62,13.17-16.36,21.24-23.61,13.57-12.2,17-24.5,11.2-43.4-17.39-56.52-32.31-113.81-47.34-171C2345.69,1971.87,2330.7,1954.49,2315.8,1935Zm147,197.38c-12.9-46.66-23.7-90.53-37.39-133.48-8.14-25.54-2.14-45.88,15-63.8,8.69-9.09,1.29-14.44-2.07-20.75-4.16-7.83-9.24-2.06-13.83.15-9.51,4.58-19.22,8.91-27.42,15.69-5.12,4.23-9.32,3.55-14.82.36-13.14-7.61-26.67-14.55-40.16-21.54-4.73-2.45-9.78-6-13.81,1.54-3.52,6.6-8.19,11.65-.78,19.87,13.52,15,27,30.81,32.69,50.71,18.59,65.39,36.37,131,54.67,196.47,2.47,8.85,1.35,16.47-3.83,24-7,10.15-14.43,20-23.84,27.88-8.2,6.92-.75,12,1.21,17.69,2.23,6.49,6.64,6,12.16,3.86,13.77-5.41,27.71-10.43,40.5-17.93,5.76-3.38,10.18-3.72,16,.65,9.78,7.33,20.39,13.6,30.88,19.92,3.4,2,7.66,8.4,11.41,1.61,3.19-5.75,11.86-10.51,4.08-19.7-24.33-28.76-33.34-59.87-18.77-97.34,11.76-30.25,19-62.23,29.34-96.87,9.54,43.52,16.29,84.05,27.78,123.2,7.32,25,1.78,44.28-12.15,63.57-1.74,2.4-3.28,5-5.43,7-8.42,7.7-1.46,13.94,2.09,20,3.89,6.69,9.45,3.56,14.36.94,9.7-5.17,19.63-10,28.82-16,5.56-3.61,9.23-2.95,14.57.36,12.93,8,26.66,14.67,39.6,22.65,8.64,5.33,13.32,3.26,17.39-5.45,2.41-5.17,3.35-8.88-1.28-13.39a108,108,0,0,1-13.9-16.44c-13-19.08-27.83-37-19.84-63.52,11.42-38,21.34-76.43,30.76-115,9.31-38.11,19.22-75.52,52.35-101.17,3-2.34,3.28-5,1.73-8.88-5.88-14.59-7.88-16.33-21.76-7.93-15,9.09-27.82,12.29-40.31-3.33-7.53-9.44-12.3-5.67-16.77,3.68-2.81,5.9-.6,9.35,2.36,13.64,9,13.11,17.87,27.63,14.06,43.5-11.53,48-25,95.47-37.87,143.89-4.91-5.38-5.5-11.4-7.09-16.94-14.35-50.35-28.72-100.69-42.78-151.12-1.59-5.69-3.77-8.06-10-8.92-12.31-1.7-17.63,2.4-21,14.76C2495.05,2023.43,2479.23,2076,2462.77,2132.35Zm-326.21-9.67c0-14,.16-27.92-.07-41.87-.1-5.85,2-7.93,8-8.37,27.44-2,38,3.94,47.32,29.2,2.08,5.66,5,7.2,10.18,6.74,6.71-.58,4.95-5.78,5-9.62.19-12.93-1-25.47-12.61-34.08,9.94-9.13,13-20.85,12.67-33.81,0-1.27,0-2.54-.08-3.8-.16-3.72-1.29-6.58-5.66-7s-6.79,1.32-8.45,5.64c-10.47,27.3-17.68,31.41-47.33,29.52-7.38-.47-9.23-3.28-9.14-10.07.31-21.57.22-43.14.09-64.71,0-7,2.21-13.33,5.36-19.33,8.13-15.5,19.24-28.71,31.44-41.18,5-5.05,8.59-4.74,14.07-.88,13.95,9.79,23.62,22.77,30.7,38,7.78,16.73,19,31,32.51,43.34,4.11,3.77,8.22,9,15.36,4.84,6.9-4,5.12-9.89,3.88-15.66-5.84-27.25-8.33-54.19,5.87-80,2-3.56,3.94-7.52-1.16-11-4.75-3.28-8.83-4.39-13.59-.19-5.37,4.74-11.73,8.55-16.37,13.89-5.91,6.8-11.26,7.08-18.65,2.65-38.38-23-75.56-20.5-111,6.47-5,3.83-8,3.25-13.16.29-12.79-7.37-26.42-13.3-39.32-20.5-9.44-5.27-14.15-2.45-18.33,6.84-2.91,6.46-1.07,9.92,3.32,14.23,23,22.61,35.37,48.46,33.59,82.51-2.5,47.66-1.44,95.57-.28,143.33.55,22.46-7.79,40.13-21.42,56.45-4.6,5.51-9.52,10.76-14.37,16.05-6.73,7.34.78,12.38,3.06,18.07,2.37,5.93,6.92,3.07,10.68,1.49,14-5.87,28.58-10.75,41.24-19.33,6.73-4.57,11.25-3.73,17.66,1.11,26.19,19.78,55.84,31.78,87.49,18.09,22.41-9.69,39.14-11.73,54.44,9.67,2.64,3.7,7.38,8,14,2.66,6.44-5.17,2.9-9.61.93-14.38-8.58-20.69-13.2-41.68-6.69-64,1.64-5.63,1.95-11.65,2.91-17.48.8-4.9.15-8.66-4.65-11.9-5.1-3.45-8.39-1.63-12.35,1.35-15.16,11.4-27.44,25.29-34.61,42.89-6.72,16.46-18.51,27.95-32.75,37.62-3.92,2.66-7.45,3.65-11.16-.43-21.48-23.68-43.13-47.16-38.75-83C2137.25,2136.3,2136.55,2129.45,2136.56,2122.68Zm622.67,88.07c3.49-11.28,7.38-24.19,11.47-37,7-22.08,7.73-22.74,24.64-6.69,10.94,10.38,19.32,11.76,32.37,2.82,19-13,19.79-11.88,27.18,10.6,1.06,3.2,1.93,6.49,3.22,9.6,9.54,22.91,5.24,43.81-9.09,63.28-2,2.72-3.91,5.53-6.12,8.07-6.55,7.52,1.11,12.27,3.47,18,2.63,6.3,7.16,3.91,11.65,2.22a152.59,152.59,0,0,0,30.38-15.64c4.74-3.13,8.71-4.2,13.67-.18,11.88,9.65,25.88,15.93,39.13,23.37,4.27,2.41,9.45,8.48,14.18,1.55,4.18-6.14,9.79-11.8,2-21-16-19.12-28.65-40.16-35.9-64.84-17.25-58.73-34.63-117.54-55.46-175-9.19-25.38-4.9-42.63,14.19-58.79,1.29-1.09,2.22-2.72,3.64-3.52,9.4-5.32,4.7-11.29,1.56-17.93-3.75-7.94-8.95-7.19-15.61-4.74-13.1,4.79-26.48,8.93-38.65,15.87-5.42,3.1-9.65,3.19-14.8-1-11.89-9.66-25.82-16-39.5-22.71-5-2.42-9.73-7.43-14.9.73-4.59,7.25-6.77,12.6,1.23,19.37,13.72,11.61,23.49,26.46,31.15,42.72,4.37,9.26,4.65,18,1.19,28-13.78,39.91-26.14,80.32-40,120.19-12.13,34.78-18.74,72.79-50.82,97.07-10,7.59-6.67,14.64-1.32,22.62,6.26,9.35,12.72,2,16.94-1,15.36-10.91,28.5-11.42,40.79,4.29,7.31,9.35,11.61,4.68,15.92-3.54,3.28-6.26.6-10.29-2.58-14.94A85.79,85.79,0,0,1,2759.23,2210.75Zm-582.06-106.89c0,28.49-.19,53.27.17,78,.06,4.44,1.84,9.09,3.75,13.21,6.9,14.95,11.13,15.85,19.08,1.92,11.13-19.51,20.21-40.21,38-56.05C2211.34,2140.48,2191.34,2130.47,2177.17,2103.86Zm344.65,110.53c18-17.11,10.15-35.13,5-56.07C2520.15,2178.36,2512.47,2195.2,2521.82,2214.39Z"/><path class="cls-1" d="M3587.82,1955c-15.29-11.25-30.57-22.44-45.66-33.93-4.23-3.25-7.93-1.73-11.76-.1-14.4,6.24-28.74,12.95-40.64,23.19-6.71,5.76-11.05,5.15-17.22-.14-16.26-13.9-34.64-24.23-55.38-29.86-65.21-17.63-137.23,2.44-153.88,83.82-4.44-6.61-6.94-12.17-11.05-16.1-14.84-14.24-31.08-22.88-50.84-8.47-10.1,7.35-18.06,3.79-26.81-3.33-21.55-17.49-21.55-17-37,6.07-4.68,7-6.14,11.76-1.22,20.07,14.54,24.57,11.79,35.82-10.14,53.65-.64.51-1.18,1.22-1.86,1.73-1.56,1.15-2.85.71-4.47-.31-10.31-6.44-14.14-19.69-5.16-27.48,19.19-16.65,15.22-32.37,1.8-49.29-.78-1-1.32-2.16-2-3.22-12.51-18.71-32.68-26.47-51.25-15.79-21.73,12.54-40.64,13.93-59.59-3.63-1.76-1.66-4.47-2.34-6.71-3.52-27.21-14.07-26.81-13.83-42.67,11.73-5,8.06-4,12.91,2.3,19.14,28.51,27.87,52.23,59.83,77.93,90.13,20.23,23.93,32.06,48.5,27.31,80.26a121.92,121.92,0,0,0,0,32.94c5,39-5.12,71.76-37.65,95.89-3.29,2.44-4.55,5-2.45,9.66,8.31,18.64,16.58,36.71,36.14,47,6.23,3.29,10.77,4.54,17.42,2,15-5.73,30.5-10.13,45.45-16,6.37-2.51,10.84-2,16.13,2.17,14,11,30.24,18.54,45.93,26.81,3.08,1.63,7.15,5.36,10.13,1,7.15-10.41,15.7-20.68,19.46-32.34,2-6.37-9-12.06-13.63-18.5-3.93-5.49-8.51-10.58-12.23-16.2-7.36-11.26-15.43-22.07-15.29-36.78.34-40.64.1-81.24.14-121.88,0-4.17-.55-8.37,2.78-12,25.89-27.89,51.14-56.43,83.07-77.92,4.13-2.74,7-4.64,8.3,2.65,7.26,41.62,34.37,70.67,63.05,98.66,37.52,36.64,75.82,72.53,108.25,114,10.17,13,20,26.33,24.61,42.53,4,14-7.19,18.17-15.76,24-9.53,6.44-11.73-3.26-15.39-7.6-19.32-23.08-36-48-51.79-73.58a480.89,480.89,0,0,0-55.25-72.6c-19.86-21.66-29.58-22.88-57.21-12.74-10.74,4-13.89,8.1-10.88,19.93,7.22,28.16,14.85,56.53,12.07,86.15-2.21,23-10.17,44.47-19.59,65.28-3.53,7.77-3,12.07,3.62,18.24,14.65,13.49,33.32,21.39,47.29,35.59,3.66,3.76,7.76,2.44,11.79,1.28,17.56-4.94,34.88-10.57,50.5-20.13,6-3.66,10.51-3.52,16,.58,11.15,8.37,22.95,16,35.76,21.55,40,17.56,80.53,20.78,119.64-1.25,44.57-25.05,64.57-83.58,48.64-136.32-13.49-44.77-42.33-79.38-74-112.16-33.15-34.4-70.06-65.07-101.18-101.51-7.22-8.44-12.81-17.72-15.42-28.77-2.47-10.38,2.61-15.26,11.08-19.76,9.36-5,14-.51,18.41,6.5,4.3,6.75,9.18,13.22,12.91,20.27a600.74,600.74,0,0,0,60.54,92.09c13.15,16.61,26.74,32.64,45.21,43.93,5.66,3.46,9.69,4.71,15.93,1.12,25.66-14.81,27.08-14.88,20.07-43.83-11.29-46.7-10.68-91.31,16.33-132.93C3594.16,1961.36,3592.09,1958.1,3587.82,1955Zm-364.7,49.38c-33.79,22.37-60.23,52.81-87.75,82-4.17,4.4-5.49,8.91-5.46,14.74.14,42.27-.27,84.57.17,126.87.31,27.48,18.34,46.4,34.3,66,3.36,4.14,5.9,6.68,2.51,12.92-4.91,9-9.39,11.45-18.34,5.32-7.66-5.22-17.59-7.73-24-14-14.51-14.43-28.88-14.84-45.65-4.84-6.41,3.83-14.1,5.73-21.43,7.69-5.89,1.56-12.33,6.1-16.91-3.76-3.76-8.14-5.22-13.42,2.85-20.37,21.93-18.81,33.52-41.79,31.28-72.33-2.27-30.71-.64-61.72-.4-92.6a28,28,0,0,0-6.27-18.54c-31.29-40.43-61.45-81.82-97.31-118.42-7.26-7.43-3.9-12.37.13-18.48,4.54-6.88,9.39-2.91,14.2-.4,14.27,7.39,28.54,14.81,41.18,24.84,4.07,3.19,6.95,2.85,11.22.27a249.07,249.07,0,0,1,28.07-14.5c4.23-1.8,9.79-8.41,14.16-.92,3.83,6.61,12.31,13.59,2.24,22a20.32,20.32,0,0,0-3,4c-15.32,21.49-15.42,22.68.14,43.39,9.62,12.84,19.66,25.38,29.42,38.13,3.35,4.37,6.37,6.47,11.05,1.35,11.66-12.81,23.55-25.42,35.45-38,3.05-3.22,5-6.78,4.81-8.13-1.35-13.86-3.79-24.27-9.28-33.35-5.67-9.43,1.45-15.19,5.21-21.59,2.24-3.83,5.5,0,7,2,13.86,18,29.69,20.33,48.27,7.11,4.37-3.08,10-5.86,13.08,2.48C3226.48,1991.76,3233.53,1997.42,3223.12,2004.33Zm321.55-50.84c-21.39,32.2-21.32,67.66-15.49,103.92,1.9,11.66,4.17,23.25,6.44,34.85,1.05,5.32,1.59,9.93-4.91,12.43-6,2.28-10.88,5.09-16.82-1.39-24.16-26.4-43.62-56-61-87-13.73-24.48-28.47-48-50.81-65.79-12.34-9.83-24.1-9.46-40.57,1.42-11.8,7.8-15,17-11.25,31.86,4.06,16.17,13.45,29.18,24.81,40.71,37.11,37.62,75.07,74.46,111.74,112.52,21.19,22,38.51,47,49.69,75.93,5.8,14.91,8.71,29.93,7.8,44.13,2.61,70.53-53.15,115.74-126.09,100.53-24.23-5-45-17-64.57-31.32-8.84-6.44-16.4-8.14-25.92-.61-10.71,8.51-24.34,11.45-37.15,15.83-8.27,2.84-14.71,1.66-21.63-4.72-6.33-5.82-9.55-9.79-4.94-18.7,22.91-44.47,19.08-90.57,7.45-137.14-1.42-5.63-8.78-12.81.14-17.69,8.74-4.78,17-7.93,26.57,2.41,19.83,21.35,34.84,45.62,49.32,70.49a415,415,0,0,0,73.51,93.38c6.81,6.44,13.12,8.24,21.25,3.49,3.29-1.9,6.92-3.22,10.21-5.11,24.09-13.9,28.09-27.9,15.08-52.51-20.34-38.3-51.42-67.89-80.8-98.8-28.27-29.72-60.57-55.65-85.52-88.46-25.15-33-33.11-70.33-18.78-109.95,13.9-38.37,45-54.57,83.69-57.28,36-2.51,68.43,8.27,96.6,31.18,3.28,2.68,6.81,5,10,7.9,6.71,6.06,12.17,7,19-.92,9.79-11.52,23.79-17.18,37.11-23.76,8-4,10.27,2.92,14.57,6.21C3547.89,1945,3547.75,1948.85,3544.67,1953.49Z"/><path class="cls-1" d="M570.18,1916.72c-15.76-10.64-31.49-21.35-46.81-32.64-4.74-3.49-7.89-2.92-12.27.07-15.86,10.71-30.87,22.54-42.8,37.48-5.63,7-9.83,6.88-16.75,2.92-10.67-6.1-22.33-10.64-34.57-11.9-61.45-6.4-111.41,14.61-147.78,64.87-33.11,45.76-37.69,124,28.41,169,20.27,13.79,40.23,28.09,60.23,42.29,24.84,17.66,49.62,35.46,69.82,58.61,24.74,28.43,23.08,40.5-7.12,62.57-5.46,4-8.91,4.23-13.93-.58-13.49-13-26.2-26.68-36.54-42.13-18.71-28.06-40.37-52.27-69.18-71.14s-27.31-20.48-56.12-3.73c-7.49,4.4-9.32,8.4-6.61,17,10.17,32.51,16.94,65.49,10.84,99.89-3.45,19.32-10,37.55-18.23,55.21-3.05,6.51-2.1,10.64,4,14.78,15.73,10.67,31.18,21.79,46.47,33.08,4.07,3,7.15,3.05,11.39.64,18.74-10.74,37.76-21.08,53.86-35.62,5.79-5.29,10.67-6.44,18-3.32,17.63,7.49,35.83,13,54.78,11.52,20,1,38.33-3.59,56.26-10.54,64.74-25.15,104.43-96.29,90.56-162.62-7.55-36.23-29.55-63.18-56.9-86.19-31.76-26.71-66.88-48.88-101.08-72.33-13.59-9.32-27.72-18.51-33.75-35-5.29-14.38,1.72-25.7,20.3-35.73,13.69-7.42,16.47,5.86,20.54,12,27.52,41.65,58.91,79.11,101.71,106.32,10.68,6.78,18.1,9.16,27.12-.37a22.26,22.26,0,0,1,6-4.68c10.88-5.52,12.44-13.35,9.29-24.94-13.46-49.69-15.26-98.63,13.59-144.46C575.81,1922.41,574.55,1919.67,570.18,1916.72ZM527.81,1912c-24.33,43-21.21,88.23-11,134.16,1.46,6.57,7,13.76-1.39,20.87s-14.34,8.85-23.52.82c-24.14-21.12-43.46-46.1-61.05-72.57-11.15-16.78-24.47-31.11-41.55-42.06-10.37-6.64-19.73-7.36-30.3,0-15.9,10.95-30.64,22-26.2,44.68,2.3,11.83,9.35,20.64,17.79,28.54,24.58,22.94,53.86,39.41,81.25,58.46,25,17.46,49.58,35.42,69.14,59.21,50.71,61.62,24.51,145.92-27.83,182.39-38.74,27-80.56,36.74-125.78,18.27-16.3-6.68-28.91-8.07-42,7.11-9.46,11-23.73,17.36-36.51,24.92-9.49,5.66-15.11-.24-21.52-4.41-7.69-5.05-1.59-10.64.51-15.49,18.74-43.76,20.4-88.39,7-133.78-3.32-11.29-7-21.62,8.24-28.06,6.81-2.88,11.29-3.12,17.22,1.18,22.06,16,37,37.93,52.43,59.69,19.73,27.86,43.49,51.62,72.8,69.69,6.17,3.79,10.41,3.66,15.63-1,5.36-4.78,11.56-8.58,16.88-13.39,24.33-21.86,25.45-40.23,4.64-65.69-22.5-27.48-51.11-47.85-79.58-68.36-17.49-12.61-34.91-25.35-53-37-79.93-51.25-56.3-146.89-2.31-186.45,24.74-18.1,59.08-30.6,95.51-30.57,13.19.47,30.95,5.29,47.39,14.74,9.52,5.53,16.57,6.44,24.13-4.57,9.56-13.93,23.15-24.47,37.05-34.3,6.4-4.55,9.86-.44,14.47,2.33C531.51,1904.48,530.08,1908,527.81,1912Z"/><path class="cls-1" d="M1891.49,1965.16c-41.57,51.44-40.54,185.45-13,233,7.15-3.28,9-9.06,8.83-16.53-.34-15.64-1.15-31.39.2-46.92,1.32-15.08-4-26.41-15-35.51-7.06-5.89-8.15-10.56-2.28-18.52,14.45-19.61,14.81-21.28,35.71-9.07,15.7,9.18,28.32,8.67,43.88.28,22-11.87,34.36-8.4,51.24,10.27a37.06,37.06,0,0,1,2.92,4.14c5.18,7.71,13.39,14.94,14.72,23.27,1.49,9.3-10.86,13.5-16.09,20.83-2.91,4.08-6.29,7.45-6.2,13.28.35,22.41-.46,44.85.38,67.23.56,14.88,5.33,29.1,12.36,42.28,3.81,7.15,3,11.63-3.8,16.91-19,14.77-18.67,15.13-38.42,1.51a18.46,18.46,0,0,1-3.15-2.12c-10-10.73-19.44-10.32-32.92-3.69-25.63,12.61-52.88,10-78.66-1.35-21.36-9.39-39.51-24.31-57.25-39.09-20.79-17.32-32.22-41.42-38.94-67-16.61-63.23-16.58-126.32,6.91-188.13,19-49.91,60.76-79.58,108.71-78.5,16.06.36,30.76,5.27,44.38,13.41,5.76,3.44,9.59,4.13,15.1-1.47,7.64-7.77,16.08-17,25.85-19.8,10.91-3.09,17.55,10.44,26.76,15.5,10,5.5,21.75,11,26.68,20.14,5.21,9.7-5.18,20.23-8.78,30.24-9.43,26.28-4.09,52.15,1.85,77.47,3.61,15.34-6.4,18.37-14.53,25.11-8.57,7.11-15.6,4.41-22.16-1.73-12.09-11.33-27.53-17.91-39.65-29.25C1910.7,2005.91,1901.06,1986.29,1891.49,1965.16Zm8.51,188c0,44.5-.33,44.16-23,66.31-7.35,7.18-11.88,5.18-17.48-.92-13.42-14.63-22.23-31.91-28-50.64-16.54-54.07-17.36-108.87-6.34-164,5.54-27.73,15.8-53.4,34-75.46,8.76-10.6,10.88-10.77,20.84-.71,12.37,12.51,20.66,27.7,27.87,43.52,8.37,18.34,19.44,34.63,35.53,47.09,4.07,3.15,8.31,5.34,13.88,2s5.24-7.11,4.62-12.77c-2.81-25.79-10.94-51.61-.85-77.58,2-5.11,3.39-10.45,5.44-15.53,2.31-5.76,4.16-10.63-2.45-15.5-7.5-5.53-10.88.84-14.9,4.23-5.79,4.89-11.48,10.19-16,16.23-4,5.34-7.45,5.58-12.64,2.59-6.94-4-13.82-8.34-21.22-11.32-43.07-17.34-93.33,1.09-115.85,46.4-36.5,73.43-35.91,149.86-5.1,224.51,24.28,58.82,92.28,77.32,140.26,42.3,5.62-4.1,9.71-4.28,14.71,2.07,5.68,7.21,13.28,12.92,20.1,19.22,3,2.78,6.2,4.45,10.07,1.25,3.39-2.8,6.48-5.68,4.78-10.67-1.49-4.39-3-8.79-4.7-13.11-11.59-29.38-5.73-60.17-7.72-90.35-.94-14.35,3.14-25.84,13.62-34.95,5.39-4.68,6.58-7.85,2.06-14.36-4.78-6.89-9.55-5-13.8-1.71-20.38,15.91-40.21,14.48-60.29-.4-4.3-3.18-8.74-4.75-12.79,1.55-3.32,5.17-5.24,8.88.64,13.68,12.86,10.5,17,24.39,14.73,40.64C1899.38,2142,1900,2147.61,1900,2153.11Z"/><path class="cls-1" d="M1887.17,2455.32c7.19-26,14.85-51.89,21.31-78.08,2.19-8.88,6.74-10.27,14.33-9.51,7,.7,14.45-2.37,17.21,9.15,6.14,25.65,14.1,50.86,21.32,76.24l3.23.19c4.67-16.28,9.4-32.55,14-48.86,2.07-7.31,3.73-14.74,5.83-22,4.13-14.32,11.25-18.06,25.73-14.61,7,1.67,3.11,5.83,2.3,8.68-8.31,29.22-16.89,58.37-25.37,87.55-2.83,9.73-6.49,19.32-8.15,29.25-2.09,12.53-11.05,8.59-18.37,9.22-6.94.61-11.17-.49-13.23-9.09-6.54-27.42-14.48-54.49-22.76-84.9-8,29.87-15.53,56.42-22.17,83.19-2.11,8.52-5.66,11.91-14.61,11-8.14-.84-15.51,1.56-18.74-10.79-10-38.35-21.71-76.29-33.24-114.24-2.45-8.08-.82-9.44,7.46-10.23,12.9-1.23,18.64,2.94,21.6,15.73,5.6,24.19,13,48,19.66,71.9Z"/><path class="cls-1" d="M1207.88,2434.83c0-19.42,0-38.84,0-58.26,0-5-.06-9.11,7.06-8.85,32,1.17,64.26-2.62,96.13,2.6,25,4.09,39.52,24.29,28,44.41-8.52,14.84-3.19,21.11,3.77,32.05,11.89,18.67,2.17,42.56-18.91,51-9.56,3.85-19.57,4.78-29.82,4.71-24.5-.16-49-.63-73.49.26-11,.39-13.39-3.27-12.91-13.51C1208.5,2471.18,1207.88,2453,1207.88,2434.83Zm62.2,9.43v-.56c-9.29,0-18.57,0-27.86,0-4.06,0-7.68.18-7.59,5.77.14,8.44.1,16.88,0,25.32-.06,4.42,2.24,6,6.27,5.86,20.24-.53,40.51,1.23,60.72-1.16,10.29-1.22,18.11-5,18.5-16.72.41-12.43-7.91-17.33-18.41-18.29S1280.63,2444.26,1270.08,2444.26Zm-.92-23.21v-.53c10.56,0,21.24,1,31.67-.24,13-1.5,18.85-14,11.66-22.93-4.69-5.84-11.8-6.39-18.54-6.54-14.37-.32-28.76-.25-43.14-.13-18.58.15-15.2-2.32-16.43,16.11-.78,11.68,2.85,15.93,14.49,14.42C1255.53,2420.34,1262.39,2421.05,1269.16,2421.05Z"/><path class="cls-1" d="M2538.78,2434.32c11.37,0,26.37-4.38,33.14,1.2,7.17,5.92,1.84,21.49,2.25,32.83.32,8.87.33,17.78-.06,26.65-.15,3.54,2.7,9.49-4.5,9.52-5,0-11.81,2.65-13.61-5.23-1.93-8.5-5.77-6.77-11.45-3.47-21.46,12.48-45,12.35-67.74,6.77-35.61-8.76-53.38-37-50.09-74.71,3-34.19,27.35-58.8,62.6-62.53,17.87-1.89,35.47-.46,52.26,6.89,9.13,4,17,9.54,23,17.45,4.53,5.95,9.7,12.59,6.83,20.14-1.66,4.36-25.27-.7-29.28-5.8-13.18-16.74-40.67-21.25-64-10.49-18.78,8.66-28.24,30.7-23.12,53.87,4.69,21.23,21.57,34.09,45.49,34.62,17.09.38,33.09-2.13,43.84-17.51,1.58-2.26,4.65-4.94,2.39-7.74-1.15-1.42-4.62-1.26-7-1.3-9.31-.13-18.7-.76-27.92.15-9.86,1-9.48-4.52-9.79-11.45-.33-7.76,1.13-11.77,10.16-10.94,8.81.82,17.76.18,26.65.18C2538.77,2433.72,2538.78,2434,2538.78,2434.32Z"/><path class="cls-1" d="M2322.63,2460.68c0-26.33,0-52.31,0-78.29,0-13.11,10.73-19.73,22.85-14.36,3.78,1.68,3.05,4.7,3.05,7.45q.09,60.26,0,120.5c0,2.94.45,6.46-4,6.38-10.18-.19-20,2.19-28.8-7.81-24.51-28-50.41-54.67-75.65-82-1.93-2.09-3-5-4.34-7.41-6.57,5.17-4.7,9.71-4.73,13.54-.19,24.94-.72,49.91.2,74.83.4,10.7-5.54,9.31-11.79,8.93s-14.42,3.49-14.19-9.28c.7-38.47.43-77,.11-115.43-.06-7.54,1.82-10,9.83-10.29,12.21-.47,21.12,2.35,29.67,12.21,22.12,25.54,45.7,49.83,68.8,74.53C2315.85,2456.52,2317.26,2460,2322.63,2460.68Z"/><path class="cls-1" d="M1527.47,2449.75l37.84,50.59c-23.2,5.92-30.06,3.65-43.18-13.72-3.31-4.38-7.56-8.35-9.75-13.24-10-22.43-28.25-25.87-50-23.37-6.37.73-9,2.23-8.74,8.88.41,11.82-.16,23.68.19,35.51.39,13.55-9.7,6.85-15.31,7.86-5.46,1-11.44,2.06-11.3-7.91.52-39.32.24-78.65.15-118,0-5.11.07-8.93,7.13-8.67,30.42,1.08,60.94-2,91.27,1.87,24.86,3.16,35.69,13.34,37.24,33.85,1.77,23.41-7.56,36.66-31,44A40.18,40.18,0,0,0,1527.47,2449.75Zm-38.86-59.08c-10.24,0-18.69.17-27.13-.07-5-.14-8.87,1.1-7.64,6.83,2.13,10-5.49,21.47,4.67,30.13.26.22.83.09,1.25.08,20.64-.62,41.35,1.53,62-1.45,10.21-1.47,14.62-7.64,14.61-17.37,0-9.39-5-14.61-14.16-16.54C1510.42,2389.82,1498.59,2391.06,1488.61,2390.67Z"/><path class="cls-1" d="M1646.53,2435.75c0-19,.31-38.07-.14-57.09-.19-7.78,1.3-11.22,10.25-11.08,33.84.53,67.71.61,101.54,0,10-.19,9.67,4.91,9.54,11.71s1.46,13.24-9.67,12.9c-24.51-.77-49.07,0-73.61-.39-7.64-.12-11.19,1.07-11,10.1.38,20.46-.18,20.47,20.83,20.47,16.5,0,33,.47,49.49-.19,8.84-.36,11.39,2.29,11.48,11.23.1,9.47-2.45,12.47-12.09,12.11-19.86-.74-39.78.12-59.65-.39-7.69-.2-10,1.88-10,9.82,0,24.38-.41,24.38,24.33,24.38,21.16,0,42.34.66,63.46-.27,10.43-.46,9.43,5.22,9.2,11.7-.22,5.94,2.2,12.29-8.72,12.06-35.11-.73-70.24-.49-105.35-.11-7.66.08-10.29-1.82-10-9.85C1646.93,2473.82,1646.52,2454.78,1646.53,2435.75Z"/><path class="cls-1" d="M1153.22,2427.76c-9.84,5.28-12.16,10.72-10.59,17.94.78,3.58-.33,7.43,4.52,9.33,6,2.35,3,6.86,1.56,10.62s-1.48,7.25-8.14,6.83c-9.08-.57-13.44,8-14.1,15.36-.35,4,.77,7.11-3.58,8.55-4,1.32-7.23,5.38-12.63,1.32-7.42-5.59-15.86-6.63-22.48,1.8-3.93,5-7.56,1.36-11.26.45s-6.36-1.8-6.32-7.4c.07-9.16-7.67-14.63-15.26-14-7.86.7-7.9-4.43-10.6-8-3.44-4.59.35-6.31,2.63-9.89,4-6.33,3.42-15.24-2.38-20.2-4.42-3.78-4.38-6.62-2.6-10.45,1.69-3.63,1.73-7.64,9-7.75a14,14,0,0,0,13.36-16.54c-1-6.47,3.14-6.94,6.44-8.88,3.61-2.13,6.41-3.55,10.87.68,6.13,5.84,15.29,5.86,20.55-.8,4.27-5.41,7.54-3.54,11.84-2.47,4.92,1.21,6.57,3.08,7,9.28.49,6.73,7.23,14.09,15.19,12.67C1148,2414.13,1143.28,2426.17,1153.22,2427.76ZM1128,2447a32.38,32.38,0,1,0-64.75,1.22c.47,17.92,14.76,31.39,33,31.08A31.87,31.87,0,0,0,1128,2447Z"/><path class="cls-1" d="M2677,2502.11c-3.92-3.32-11.68-.43-12.18-9.91-.46-8.71-7.47-13.22-16.18-14.07-9-.88-12.18-8.63-7.76-16.71,3.9-7.12,5.37-15.78-1.75-21.38-4.72-3.71-4-6.4-2.45-10.45,1.62-4.31,2.7-6.92,9.22-7.32,7.38-.45,14.45-7.73,13-15.93-1.13-6.47,2.11-7.26,5.56-8.89s6.17-4.86,11.07-.55c7.09,6.25,15.18,6.4,22.45-1.37,4.85-5.18,16.13-1.66,17.19,5.3,1.53,10.15,7.31,15.5,17.28,15,7-.33,6.39,5.51,9,8.74s1.49,5.33-1.21,8.49c-6.2,7.28-5.18,15.8,1.71,21.51,5.06,4.2,2.43,7.41,1.26,10.91s-1.85,6.71-8.17,6.92c-8.64.29-14.06,7.19-14,16.63.06,5.75-9.55,13.31-14.08,10-9.87-7.25-18.28-8.55-26.26,2.24C2680.2,2502,2678.42,2501.82,2677,2502.11Zm13-22.81c17.65.09,32.72-14.34,33-31.58.26-17.08-14.67-32.29-32.11-32.68-17.77-.4-33.93,15.18-33.65,32.45S2672.47,2479.2,2690,2479.3Z"/><path class="cls-1" d="M2117.35,2435.17c0,19-.73,38,.29,56.92.62,11.59-5.86,10.71-13.27,10.41-6.71-.28-14,2.57-13.79-9.76q1.14-57.55,0-115.13c-.24-12.31,7-9.54,13.79-9.85,7.54-.35,13.84-1,13.24,10.49C2116.61,2397.18,2117.34,2416.19,2117.35,2435.17Z"/><path class="cls-1" d="M1206.45,556.92a3.29,3.29,0,0,1-.46.94c-.12.13-.48,0-.74,0l1.28-.9Z"/><path class="cls-1" d="M2136.34,882.05l-1.22.85,1-1Z"/><path class="cls-1" d="M1438.05,1014.6l-2,.45c.15-.34.29-.68.43-1,.57.28,1.15.56,1.73.87Z"/><path class="cls-1" d="M3462.88,2191.53c-5.25-9-11.21-17.62-15.59-27-5.45-11.79-10.91-10.44-17.72-1.66-1,1.32-2.48,2.27-4.61,4.24-7.49-12.61-15.32-24.54-21.8-37.18-4.78-9.33-8.81-10.89-15.42-2.07-2.23,2.95-5.35,5.18-9.32,9-6.81-22.74-14.13-43.93-17.42-66.26,8.64,6.94,13.49,16.84,19.49,25.76,4.81,7.08,8.07,8.84,15.42,2.54,11.69-10.1,12.24-9.53,17.56,4.57,3.73,9.83,7.52,19.7,11,29.63,2.38,6.84,5.32,7.76,10.1,2,3.73-4.5,7.8-8.74,13.43-15C3454.11,2145.26,3461.33,2167.5,3462.88,2191.53Z"/><path class="cls-1" d="M452.87,2180.28c-11.15-6.88-17.55-17.53-24.91-27.19-5.29-6.88-8.84-8.3-13.59-.16-5.49,9.38-10.37,8.13-16.13-.24-6.24-9.05-14.14-17-20.1-26.13-5.8-8.95-9.22-6.82-13.73.71-2.54,4.27-6.13,7.86-10.67,13.49-9.43-23-18.1-44.23-26.95-65.89,8.71,8,17.32,14.78,24.54,22.84,6,6.68,9.9,8.31,17,1.09,11.93-12.17,12.1-11.49,20.81,3.45,6.13,10.44,10,22.24,18.64,32.47,6.07-7.72,11.76-14.94,18.71-23.72C435.66,2135.06,444.27,2157.67,452.87,2180.28Z"/><path class="cls-1" d="M1807.62,1508.42c-18.51,2.49-36.21,1.87-53.59,6.67a27.61,27.61,0,0,0,1.66,3.7c2.93,4.46,13,5.72,10.51,10.65-2.94,5.76-10.46,0-15.52-1.48-18.15-5.41-36.91-9.6-52.59-21.21a66.6,66.6,0,0,1-8.82-7.18c-9.82-10.32-9.21-12,4.66-16.33,19.48-6.13,36.72-15.23,45.9-35,3.07-6.61,3.67-9.21-5.88-8.69-18.24,1-29-9.17-27-26.87,1.74-15.4-4.14-24.06-16.92-30-4.93-2.3-8.07-5.52-8.31-11.52-.76-19.26,1.08-37.95,10-55.45a29.35,29.35,0,0,1,10.9-12c3.81-2.37,8.29-4.11,11.95-1.84,4.62,2.88.07,6.89-.89,10-8.86,29.08-3.28,48.56,20,65.81,5,3.71,5.82,7.19,4.21,12.86-3,10.6,2.1,13.9,12.06,11.88a57.67,57.67,0,0,0,29.73-15.92c5.9-5.89,10.56-8.62,19.4-4.57,13.91,6.38,28.25,1.43,42.08-2.51,8.52-2.43,16.92-5.32,25.26-8.33,6.11-2.2,9.54-.93,7.61,6-4.27,15.19-7.89,30.27-2.43,46a5.31,5.31,0,0,1-2.94,6.47c-11,4-8.9,11.74-7.48,20.45,1.23,7.54,3.27,18.14-11.4,10.25-7.13-3.83-9,1.53-7.8,7.62,1.48,7.26,6.42,17,0,20.83-4.92,2.94-11.84-6.23-17-10.8-6.19-5.46-10.69-7.87-17.76-1.08-7.39,7.11-18.21,5.74-27.38,8.58-4,1.24-11,.65-10.33,6.7.46,4.08,6.65,3.89,10.77,4.75C1789.64,1498.7,1800.69,1497,1807.62,1508.42Z"/><path class="cls-1" d="M1824.1,1212.9c2.49-27.39-12-49.48-21-73.25-1.49-4-6-8.82-.77-12.43s8.45,2.25,11.33,5.21c11.73,12.11,23,24.63,34.44,37,1.37,1.49,3,2.66,3,5.23C1851.09,1185.08,1835.49,1208,1824.1,1212.9Z"/><path class="cls-1" d="M2102.88,597.82c-6.78-.14-3.82-5.33-2.15-9.5,7.08-17.74,17.27-33.88,26.88-50.26q52-88.62,104.51-176.93c.86-1.46,1.87-2.83,2.72-4.28,3-5.08,7.13-7.61,12.62-4.31,5.84,3.5,2.7,8.13.38,12.07q-16.07,27.34-32.42,54.52c-24.37,40.61-49.07,81-73,121.86-9.39,16-16.51,33.33-27.21,48.64C2112.5,593.44,2110.21,597.69,2102.88,597.82Z"/><path class="cls-1" d="M2187.88,687.35c3.66-18.5,13.54-34.23,21.81-50.59,7.22-14.29,13.82-29,23.52-41.9,2.1-2.79,4.5-7.8,8.6-5.6,3.92,2.11,1.55,7,.46,10.45-2,6.42-4,13.08-7.4,18.82C2220.76,642.4,2206.72,666.35,2187.88,687.35Z"/><path class="cls-1" d="M2308.08,738.8c6.69,5.83,13.43.65,19.92,1.15,8.52.67,12.95,2.75,7.71,12.37-8.94,16.41-26.21,23.55-38.69,36-1.48,1.48-3.05.88-4.26-.6-7.22-8.78-17.15-9.51-27.53-10-12.59-.55-13.78-3.31-8.3-14.88A101,101,0,0,1,2282,729.74a34.84,34.84,0,0,1,13-7.68c7.25-2.16,16.36-6.19,21.22.23C2320,727.3,2310.68,732.33,2308.08,738.8Z"/><path class="cls-1" d="M1788.28,363.34c-2.94-.32-4.32-1.19-3.56-3.22,1.55-4.12,4.28-7.27,8.8-8.15,2.09-.41,3.13,1.06,2.51,3C1794.62,359.22,1790.94,361.23,1788.28,363.34Z"/><path class="cls-1" d="M965,2059.58c-6.73-39.11,10.47-70.61,31.58-101.12,4.59-6.64,6.75-5.88,11.69-.66,31.9,33.72,30.51,87.49,10.73,121.47-6.1,10.49-15.14,16.72-27.58,17.61-8.62.61-19.4,8.8-24.59,3.45-4.56-4.7-1.58-16.75-1.8-25.56C964.9,2069.71,965,2064.64,965,2059.58Zm41.3,15.38c12.09-18.28,17.23-46.54,11.92-60.65C1005.38,2032.07,1003.69,2052,1006.31,2075Z"/><path class="cls-1" d="M1266.37,2025.68c10.18,29.59,19.21,55.79,28.15,82a8.65,8.65,0,0,1,.37,4.91c-1.84,6.25-28.62,17.85-34.74,15.23-21.71-9.29-22-9.38-15.51-31.8S1258.4,2051.37,1266.37,2025.68Z"/><path class="cls-1" d="M2813.74,2051q12.95,40.36,25.85,80.75c.75,2.38,1.34,4.95-.2,7.34-4.66,7.24-29.11,11.91-36.54,7-19.51-12.91-19.49-12.91-12.27-34.51q10.17-30.37,20.28-60.78Z"/><polygon class="cls-1" points="3466.25 2195.16 3466.56 2196.15 3465.8 2196.09 3466.25 2195.16"/></svg>