<svg id="Layer_1" data-name="Layer 1" xmlns="http://www.w3.org/2000/svg" viewBox="0 0 3750.5 2507.16"><defs><style>.cls-1{fill:#fff;}</style></defs><path class="cls-1" d="M2576.21,1689.71c-8.21-2.64-16.46-5.15-24.62-8-70.7-24.24-141.45-48.3-212-72.89-46.38-16.17-92.18-34-138.81-49.41-30.06-9.91-60.83-18.55-91.94-24-13.76-2.4-29.92,2.5-43.67,7.64-78.32,29.28-152.81,66.52-219.71,116.89-42.55,32-83.24,66.72-123,102.14-28.61,25.45-54.32,54.14-81.5,81.21a154,154,0,0,1-19.08,16.49c-36.64,26.05-59.61,64.24-87.63,97.92-12.15,14.61-23.39,30-36.35,46.68-13.21-15.41-25-29.67-37.34-43.46q-48.59-54.32-97.57-108.26c-43.21-47.37-87.05-94.16-130-141.77-33.8-37.48-65.64-76.75-100.21-113.48-32.54-34.6-67.66-66.76-101.31-100.33-9.16-9.13-15.89-6.83-25.16.39-50.45,39.28-93.69,85.82-136.69,132.73-26.87,29.31-55.92,56.65-82.37,86.32-30.48,34.19-59.58,69.63-88.53,105.15-31.6,38.77-62.8,77.89-93.21,117.59-11.31,14.77-20.37,31.37-29.65,47.59-19.74,34.51-38.95,69.33-58.43,104a50.29,50.29,0,0,1-5.44,8.15c-9.11,10.71-13.79,10.19-20.6-1.88C406.85,1947.56,318,1800.6,222,1658.08c-34.51-51.2-70.38-101.49-106.28-151.73-16.49-23.09-38.13-40.82-62.25-56-15.84-10-28.22-1.59-41.52,4.16-3.23,1.4-5.87,4.15-11.91,8.58.74-8.26-.25-14.1,1.9-18.36,12.23-24.17,24.27-48.52,38.24-71.68,9.76-16.19,38.08-20,55.69-9.3,22.21,13.43,41.73,29.52,56.81,51.33,53,76.57,108.68,151.33,159.6,229.22,52.47,80.25,100.7,163.28,150.49,245.27,21.13,34.8,41.47,70.08,62.29,105.07,2.3,3.86,5.41,7.23,9.57,12.73,3.65-5.34,6.7-8.68,8.5-12.59C612.55,1844,699.52,1702.85,785,1561c31.13-51.68,64.51-102,97.93-152.31,8.68-13,20.9-23.91,32.37-34.87,16-15.27,36.35-14.23,54.22-7.27,26.48,10.31,51.38,24.65,77,37.27,29.56,14.58,52.76,37.3,74.5,61.07,77.11,84.31,153.26,169.5,230.15,254,28.31,31.13,58.3,60.75,86.33,92.12,25.84,28.91,50.09,59.24,75,88.94a108.42,108.42,0,0,0,7.4,8.44c12.82,12.37,16.75,11,26.61-3.53,20.19-29.79,40.91-59.26,62.46-88.08,43.72-58.44,87-117.26,132.63-174.2,37.15-46.37,77.39-90.26,116.36-135.17,12.79-14.74,24.93-30.25,39.3-43.29,5.77-5.24,17.38-7.95,25.21-6.34,34.64,7.1,69,15.67,103.2,24.82,14.82,4,28.7,11.35,43.4,15.89,27.54,8.51,55.38,16,83.08,24,28.25,8.16,57.18,14.53,84.57,25,61.17,23.29,121.43,49,182.3,73,48.72,19.29,97.8,37.64,146.65,56.6,4.62,1.8,8.72,5,13.06,7.47Z"/><path class="cls-1" d="M3188.24,519.58,3268,455.7l1.95,1.75a75.53,75.53,0,0,1-5.23,6.16c-29.07,27.73-58.29,55.31-87.14,83.27-2.78,2.69-3.32,7.68-4.9,11.6,4.67,1.18,9.47,3.7,14,3.27,9.42-.9,18.68-3.35,28-5.16l3.49,5.3c-3.16,1.7-6.16,3.89-9.51,5-17.91,6-33.9,18.32-54.63,15.47-4.44-.61-11.31,2.78-14.09,6.52-7.14,9.63-12.62,20.48-21.49,35.45l28.19-7.44c-4.29,15.3-26,33-42.88,35.24-6.13.81-13.43,2.55-17.62,6.56-14.13,13.53-27.18,28.21-40.45,42.62-1.76,1.92-2.42,4.84-4.44,9.08l58.33-20.18,1.56,3.62c-21.37,19.25-39.07,44.33-73.55,42.36-3.58-.21-9.17,4.32-11,8-30.68,62.52-61.65,124.93-90.85,188.15-11.12,24.05-18,50.07-26.64,75.24a32.39,32.39,0,0,0-1.3,8.29q-3.16,48.33-6.17,96.67c-.22,3.43.28,6.91.58,13,15.88-15.69,26.39-29.89,25.93-51.25-.32-14.58,3.89-29.26,6.4-46,22.87,9.4,5.22,29.8,17.1,45.23,10.76-31,8.63-61.44,20.19-90.51,3.78,15.15,7.57,30.29,11.32,45.32,15.76-3.54,18.27-8.64,13.11-22.24-2-5.37-2.1-12-1.37-17.81,2-15.72,4.84-31.34,7.35-47l3.92-1.47c5.41,15.12,10.82,30.23,17.06,47.68l25.27-18.48c2.05,14.32,11.87,5.88,18.4,6.43,7.29.62,14.67.14,22.48,2.16-9.77,9.71-20.85,16.33-34.56,15.33-24.19-1.76-41.42,9.59-48.55,32.22l56.34-6.92c.33,2.05.68,4.1,1,6.15-21.51,9.42-39.11,32-67.84,17.51-2.36-1.19-8.1,1.09-10.42,3.52-31,32.59-60,66.88-78.73,108.25-4.68,10.33-6.38,22.25-8.06,33.64-9.64,65.15-7.16,130.59-4.38,196.06,1.71,40.14,2.24,80.32,3.92,120.46a158,158,0,0,0,8,43c3.5-5.45,7.54-10.63,10.41-16.39,10-20.07,18.36-41,29.59-60.39,25-43.16,51-85.82,77.44-128.16,28.69-46,57.53-91.9,87.94-136.73,11.65-17.16,27.47-31.59,42-46.65,18.2-18.81,37.12-36.93,55.56-55.51,2.19-2.2,3.39-5.39,6.3-10.2-13-6.41-25-13-37.47-18.34-17.24-7.42-25.29-22.32-34.19-37.13,2-1.16,3.11-2.14,3.42-1.94,11.71,7.9,23.08,15.33,37.61,18.91,8.18,2,14,13.53,21.19,21.08q3.07-36.29,6.14-72.41l4.82-.68c10.79,23.76,12.78,49.81,15.87,78,23.07-12.4,46.84-21,56.24-47.64a211.55,211.55,0,0,1,9-20.55c7.67-16.13,4.87-22.64-12.63-25-26.89-3.66-46.29-17.71-62.87-43.27,33.75,6.16,58.87,23.35,86.37,39.81,4.86-10.48,9-19.43,14.76-31.88,6.62,35.51-15.39,58.23-27.35,84,1,1.17,2.09,2.33,3.13,3.49,10.27-5.5,20.27-11.61,30.88-16.35,12.23-5.47,16.46-14.15,16.9-27.33C3338,972,3354,956,3368.31,939.32c4.11-4.78,8.41-9.4,12.62-14.09l4.94,2.46c-5.52,13.55-9.89,27.73-16.88,40.48s-16.54,24-23.72,37.82c81.5-26,158.64-63.48,241.78-82.76.37,1.09.75,2.18,1.12,3.26l-66.43,22,60.73,22c-.42,1-.85,2-1.27,3.05-14.36,0-28.88,1.3-43-.35-15.86-1.85-31.43-6.25-47.08-9.79-8.49-1.93-33.23,7.36-38.44,14.26L3510.76,990l-.61,3.82c-18.53,5.86-37.31,11.08-56.58,3-34.74-14.6-61.81,2.1-91.67,21.26l46.56,9.86c-6.36,3.77-10.15,7.84-14.19,8.11-16,1-32.4-.67-48.19,1.67-16.15,2.41-33.23,5.68-47.37,13.29-41.37,22.28-73,56.38-103.94,91.12-16.44,18.49-33.89,36.1-50.77,54.21-2.08,2.24-3.41,5.17-5.09,7.78l2.05,3.23c15.53-7.48,31.09-14.88,46.57-22.47,7.55-3.69,14.53-9.4,22.47-11.31,40.14-9.64,54.75-42.72,70.64-74.87,1.15-2.32,2.69-4.44,4.05-6.66l4.26.65q-1.27,22.15-2.56,44.25c13.89,2.78,30.17-5.43,34.34-17.67,4.06-11.93,7.19-24.2,11.8-35.9,3.22-8.14,8.25-15.56,12.48-23.3l5.46,2c-3.22,18.58-6.45,37.15-9.9,57,10.26-1.94,21.1-2.45,26.37-15.12a31.23,31.23,0,0,1,8.07-11.13c17.17-15,34.67-29.52,53-43.86-12.33,18.92-16.52,43.7-43,53.6,14.64,7.06,28,.51,35.89-9.52,10.5-13.36,23.64-25,37.1-35.56,9.33-7.29,21.13-11.42,32.78-15.93-11.34,16-19.2,35.33-41.57,40.44-9.68,2.2-19,4.42-20.51,17.41-.36,3-7.32,6.37-11.79,7.66-23.66,6.8-47.57,12.74-71.22,19.54-7,2-13.55,5.87-22.06,9.66,19.84,9.87,46.52,8.1,50.22,39.11-6.39-2.19-12-3-16.28-5.8-13-8.55-25.14-18.3-38.22-26.64-3.08-2-8.87-1.36-12.8-.07-53.62,17.6-102.49,43.58-148.82,76.36-31.24,22.11-61.65,43.74-83.6,75.3-10.94,15.72-20.89,32.21-30.33,48.9-30.83,54.5-62.94,108.38-91,164.27-14.08,28-20.76,59.76-30.37,89.95-9.76,30.72-21.29,61.13-27.77,92.56-5.23,25.37-5.76,52.07-5.47,78.15.7,62.68,2.19,125.39,5.05,188,3.37,73.86,9.13,147.61,12.66,221.46,2.23,46.75,2.24,93.61,3.34,140.42.14,5.87.87,11.73,1.33,17.59l4.23,2.2c21.28-24.5,43.62-48.19,63.39-73.87,9.68-12.58,2.24-25.56-13.38-29.4-4.3-1.06-8.55-2.31-12.32-6.83h102.39c.15.69.31,1.37.46,2.06-2.27,1.07-4.49,2.94-6.82,3.08-20.68,1.3-35.77,12.81-49.43,26.81-16,16.39-31.74,33-49.81,51.82,54,47.86,88.58,115,159.57,143.77H2980c6-3.87,8.32-6.09,11.13-7.14,14.42-5.4,17.4-13.13,8.31-25.21-6.16-8.2-13.6-15.46-20.62-23-15.64-16.79-31.23-33.63-47.23-50.07-2.85-2.93-9.5-6.63-11.09-5.46-4.08,3-8.81,8.48-8.85,13-.33,36.22,2.35,72.09,18.85,105.37,1.25,2.52,3.11,4.9,3.69,7.56,4.89,22.4,4.48,25-17.64,25.81-34,1.24-67.9,5.07-101.86,7.38-6.95.47-14-.92-20.19-1.39,6.49-17.16,12.17-32.16,17.85-47.16l-3.7-2.39c-34,15.08-63.26,11.27-82.77-18-20.77,8.88-39.16,19.65-59,24.26-14.21,3.31-31,.7-45.46-3.42-20.82-5.94-34.09-20.7-35.42-43.86-1.39-24.16,8.59-42.93,30.28-52.34,20-8.67,41.81-13.25,62.71-20a182.68,182.68,0,0,0,22.05-8.89c13.48-6.36,21.45-17.13,20.82-32.18-.6-14.34-1.23-29.09-5-42.77-4.93-17.77-19.52-25.57-37.45-26.46-18.08-.89-30.24,7.86-37.23,24.28-1.65,3.88-3.43,7.7-5.27,11.49-4.6,9.48-12.85,15.59-22.53,12.54-7.4-2.33-15.51-8.89-18.95-15.76-4.88-9.71,1.76-19.95,10.75-22.89,21.09-6.9,42.94-15.09,64.62-15.52s44.26,6.19,65.42,12.92c19.48,6.2,29.55,21.84,29.47,43.22q-.19,57.61.32,115.25a202.9,202.9,0,0,0,2.46,29.33c1.86,11.95,8.8,19.6,21.55,20.13,12.57.52,22.35-4.27,25.53-17.19,3.68-14.94,7.18-30,9.2-45.24,4.68-35.23,9.81-70.49,12.17-105.91,2.56-38.5,2.19-77.19,3.11-115.81,1.35-57.05,3.14-114.09,3.88-171.15.34-26.55-1.78-53.13-2-79.71-.25-27.6,1.21-55.22.58-82.8-1.36-59.36-3.43-118.7-5.49-178-1.79-51.42-4.35-102.81-5.83-154.24-.77-26.58,2.08-53.4-.51-79.73-1.88-19.11-8.37-38.27-15.66-56.24-14.73-36.31-31.93-71.6-47.08-107.75-11-26.13-33.43-36.5-57.8-41.22-33.37-6.45-67.4-11.12-101.33-12.69-43.36-2-87-1.59-130.34.44-41.83,2-81.76,14.66-121.19,28.27-2.07.72-4.25,1.14-7.82,2.07,14.44-13.84,35.56-25,61-29.2,46.16-7.57,92.56-13.65,138.85-20.42a18.67,18.67,0,0,0,11.76-5.85c-17.87-7.65-37.2-13.07-53.2-23.57-16.42-10.79-29.58-26.55-44.16-40.13l3.56-4.53c8.15,3.61,16.26,7.3,24.45,10.81,25.81,11,55.38,19.7,69.86,44.22,11.63,19.71,25.67,13.55,40.15,14.47a109.41,109.41,0,0,0,30.91-2.26c-28.54-14.43-57.15-27.56-75.51-57.47,23.92,8.27,50,8.89,68.07,29.84,4,4.58,8.85,9.35,10.37,14.85,4.8,17.3,18.68,18.21,32.48,20,18.32,2.4,36.64,4.86,58.53,7.77-4.43-8-7.1-13.49-10.43-18.6q-27.56-42.18-55.38-84.19c-23.57-35.72-13-25.76-53-18.08-16.88,3.23-33.61,8-50.63,9.39-8.72.69-17.93-4.67-25.87-10.49,17-3.42,33.92-7.73,51.09-10,16.68-2.22,33.64-2.38,54.38-3.68-84.84-98.1-170.36-192.74-268.61-275.31l3.74-4.16c21.28,18.54,42.62,37,63.84,55.63,22.15,19.43,44.4,38.78,66.23,58.57,21.3,19.31,42.12,39.14,65.09,60.54V865.11l3.47-.82c1.23,1.49,3.26,2.82,3.58,4.48,4.71,24.77,18.48,48.28,10,74.91-3.74,11.73,1,20.48,8.77,30.25,41.52,52.46,82.57,105.34,122.46,159.05,34.27,46.15,66.68,93.68,100.12,140.45,8.3,11.6,17.41,22.62,28.28,36.67,1.93-6.72,3.43-9.9,3.7-13.18,3.66-45.12,5.32-90.48,11.15-135.3,7.06-54.31,2.88-108.36,2-162.56-.21-12.11,1.63-24.26,2.71-36.38,5.12-57.55-14.73-108.08-42.23-157.11-25.12-44.79-46.91-91.48-72.6-135.93-18.42-31.88-40.33-61.81-62-91.69-4-5.57-13.84-8.76-21.38-9.64-19.13-2.23-36.7-5.37-48.63-23.19-5-7.39-13.26-12.53-18.83-20.66,12.09,4.86,23.83,11.25,36.38,14.14,11.49,2.66,22.74,16.64,36.7,2.76,5.54,7.53,11.24,15.3,20,27.19,3.46-15.75,6-27.48,8.62-39.21l7.34,1.1c0,15.09-.23,30.18.14,45.26.1,4.37.89,9.32,3.09,13q46,76.25,92.6,152.12c.86,1.41,2.66,2.25,7.76,6.38v-74.5l5-1.06c2.06,3.14,5.06,6,6,9.45,6.86,24.15,16.12,47.62,13,74-1.3,10.86,3.52,22.45,6,35.89l-15.42-11.09,45.74,91.63c1.16-5.84,2.47-9.41,2.49-13,.11-21-.14-42.09-.15-63.14,0-66.92.94-133.86-.46-200.75-.63-29.81-5.77-59.56-9.46-89.26-.51-4.09-3.88-8.37-7-11.5-14.56-14.61-29.49-28.86-44.29-43.23l3-3.41,36.18,18.91-17.07-47.87,3.55-2.4,22.47,28.29,3-.85c0-16.11.08-32.22,0-48.33-.12-19.1,5-39.27-13.92-54-4.53-3.54-5.86-11.18-10.49-20.7l24.47,4.53V286.39c-9.78,10-20.4,20.83-31,31.68l-5-4.56c4.08-13.24,8.16-26.47,12.79-41.51-21.87,9.46-32.88,31.42-57.48,34.42,14.42-14.84,27.07-28.78,40.84-41.51,4.38-4,12-7.26,17.71-6.69,16.42,1.64,23.45-5.93,25.4-20.86a29.9,29.9,0,0,1,1.63-5c1.59.81,3.09,1.33,3,1.58-2.86,17.22,8.19,27.58,19.11,37.51,10,9.1,13.74,19.15,10.37,32.53-1.49,5.92-.25,12.52-.25,18.92q-12.79-21.36-25.54-42.66l-5.51,2.34c2.9,117.83,2.51,235.81,18.6,353.78,2.14-8.71,3.15-17.91,6.65-26,11.64-27,23.46-54,36.69-80.32,5.91-11.73,7.73-21,2.18-33.93-7.81-18.22-11.68-38.13-17.31-57.3-2.88-9.83-5.9-19.62-8.86-29.43l5.42-2.33,29.78,55.21c2.88-39.65,5.55-76.56,8.22-113.48l6.09-.17c12.58,18.41,9.43,40.4,10.16,65.75l29.69-40.2,4.09,1.71c-4.36,18.87-8.73,37.75-14,60.64,21.64-14.8,39.12-32.41,68-24.12l-72.05,51.33c.79,1.65,1.59,3.29,2.38,4.94h36.06c-12.53,15.61-23.82,25.9-41.4,24.26-10.37-1-16.68,2.29-21.37,11.55-19.94,39.37-36.05,80.28-45.09,123.41-8,38.37-14.95,77.17-19.15,116.13-5.59,52-8.43,104.28-11.74,156.49-1.39,21.93-1,44-1.25,66,0,2.76,1.23,5.54,5,8.55,2.24-6.78,4.9-13.46,6.66-20.36,14.46-56.76,45.9-105.07,76.8-153.53,25.88-40.58,53.66-80,79-120.84,9.65-15.54,15-33.76,23.21-52.92-15.68,1.83-17.92-7.28-17.21-17.63a311.82,311.82,0,0,1,4.41-35.94c2.38-12.66,6.06-25.08,9.17-37.6l4.07-.82c2.2,13.86,7.88,28.28,5.72,41.42-2.75,16.75.23,28.79,16.26,41,10.33-11.2,21.85-22.92,32.19-35.61,1.87-2.29-.33-8.86-2-12.89-8.57-20.65-3.81-40.93-.8-61.31l5.51-.57c2.8,19.71,5.6,39.42,8.85,62.32,21.35-13.43,34.79-33.56,51.15-50.47Zm-464.5,1809.57-4-2.25c-22.68,14.22-45.69,27.95-67.81,43-5.74,3.9-9.67,11.45-12.73,18.1-11.62,25.27-1.64,53.54,21,61.26,17.05,5.82,39.75-3.08,50.39-21.27C2728.86,2396.68,2722.21,2362.41,2723.74,2329.15Z"/><path class="cls-1" d="M2128.6,2272.83c3.32-85.47,48.84-141.91,124.31-176.12,107.34-48.66,235.88,4.13,278,113,28.3,73.21,2.23,156.84-65.45,210-96.89,76.09-242.46,53.95-307.94-47C2137.87,2342.48,2128.37,2309.14,2128.6,2272.83Zm68.4,2.29-3.51.62c5.3,26.44,8,53.76,16.51,79.11,13.65,40.54,37.78,74.92,78.67,92.35,58.72,25,121.18,2.24,155.34-58.25,44.2-78.28,38.89-158.15-1.41-236.12-23.19-44.88-60.75-67.42-113.11-65.75-50.62,1.61-82.53,28.82-105.09,70.27C2204.52,2193.87,2197.38,2233.81,2197,2275.12Z"/><path class="cls-1" d="M2413.23,1815.92h105.38c-1.56,2.89-1.8,4.14-2.43,4.38-29.64,11.37-31.86,14.26-22.58,45.19,11.14,37.16,23.94,73.81,36.18,110.63.78,2.34,2.95,4.22,6,8.43,10.14-25.7,19.52-49.39,28.81-73.11,6.48-16.54,13.25-33,19.13-49.74,8.42-24,3.86-32.63-20.08-40.72-1.25-.42-2.33-1.32-2.54-5.06h103.25c-.89,2.58-1,3.95-1.5,4.17-26.63,10.9-29.42,15-21.42,43.05,11.39,39.84,24.12,79.3,37,121.39,3.44-4.19,6-6.15,7-8.71,12.85-31.1,25.65-62.22,38.13-93.47,14.15-35.43,11.79-42.68-19.57-63.68,7.17-5.49,63.88-7.06,78-2.15-.07.89,0,2.48-.26,2.56-23.94,6.1-32.94,25.71-41.33,45.76-23.12,55.2-46,110.49-69.39,165.58-2.12,5-7,8.82-10.67,13.18-3.13-4.75-7.39-9.11-9.21-14.31-18.48-52.89-36.55-105.91-56-162.55-3.63,6.59-6.05,10.12-7.65,14-20.34,49.26-40.45,98.63-61,147.8-2.31,5.53-7.14,10-10.8,15-3.64-5.44-8.63-10.41-10.72-16.39-19.12-54.74-37.5-109.74-56.65-164.47-6.47-18.47-12.36-38.16-37-42.26Z"/><path class="cls-1" d="M2267,2048.77c-63,0-115.29-38.57-128.78-96.31-9.36-40.06,4.19-73.71,32.6-102,59.07-58.79,154.28-52.3,205,13.81,43.28,56.4,23.12,136.52-44.13,169-19.7,9.51-42.28,13.08-63.54,19.37Zm80.45-117.71c-.26-33.11-9.12-63.69-30.82-89.37-28.86-34.16-73.19-33.51-101.89.72-38.37,45.75-37.36,129.47,2.11,174.43,32.8,37.36,81.8,33.74,108.56-8.36C2340.28,1985,2346.83,1959,2347.41,1931.06Z"/><path class="cls-1" d="M2108.58,2042.77H1989.45c-.3-.9-.61-1.79-.91-2.69,3.44-1.52,6.76-3.43,10.34-4.48,18.3-5.39,25.32-13.48,27.57-32.4a82.51,82.51,0,0,0,.72-9.8c0-90.32.29-180.65-.11-271-.11-25.38-7-33.48-31-41.83-1.53-.54-2.81-1.78-8.06-5.2,14.24-2.09,24.52-3.71,34.84-5.07,12.05-1.59,24.18-2.73,36.21-4.48,8.64-1.26,12,2,11.76,10.67-.34,15.91-.08,31.82-.07,47.74.06,86.58.58,173.17-.08,259.75-.21,26.4,4.13,47.77,34.57,53.38a4,4,0,0,1,2.21,1.6C2108,2039.66,2108,2040.65,2108.58,2042.77Z"/><path class="cls-1" d="M1852.1,1674.55c23.86-3,47.69-6.18,71.62-8.54,2.16-.21,6.31,4.71,7,7.82,1.2,5.35.47,11.16.48,16.77q.13,146,.29,292c0,6.07.74,12.14.81,18.22.24,18.37,8.83,29.9,27,34.16,3.41.8,6.52,2.92,9.31,7.26H1850.11l-1.08-2c4.22-1.74,8.29-4.16,12.68-5.09,13.63-2.89,21.22-11.46,23.57-24.62,1.71-9.63,3.23-19.45,3.26-29.19.28-81.43.18-162.87.2-244.3,0-1.87-.07-3.74-.08-5.62-.26-25.72-5.3-48.19-37.66-52.12C1851.36,1677.71,1851.73,1676.13,1852.1,1674.55Z"/><path class="cls-1" d="M1782.38,1451.4c-.74,39.32-34.33,70.72-74.84,69.95s-73.65-33.22-73.31-72c.35-39.43,34.45-70.95,76-70.28C1751.29,1379.74,1783.13,1411.68,1782.38,1451.4Z"/><path class="cls-1" d="M3129.61,2456.45v-73l3.11-.92c2,4.84,3.39,10.09,6.14,14.46,9.39,14.88,17.61,31,29.37,43.75,13.78,15,33.15,16.77,52.26,10.87,29.64-9.15,37-49.72,12.75-72.52-8.71-8.18-19.88-13.84-30.28-20.08-13.63-8.17-28.09-15-41.34-23.75-28.28-18.63-37.82-46.07-26.71-73.66,10.65-26.46,42.66-43.6,72.78-38.66,6.44,1,12.61,3.74,19,4.72,9.28,1.4,18.69,1.94,32.16,3.25.86,14.49,2,33.35,3.08,52.2l-4.34,1.27c-2-4.19-4.16-8.29-5.89-12.58-9.43-23.37-25.13-39.3-51.17-42.4-16.7-2-31,6.24-37.85,20.88-7.2,15.39-5.41,31.17,9,41.62,14.94,10.84,32.34,18.32,48.78,27,7,3.72,14.54,6.49,21.5,10.3,31.86,17.45,46.09,47.09,38.5,79.65-6.82,29.31-36.09,51.82-70.37,52.15-12.38.12-25.17-2.54-37.11-6.11C3158.71,2450.64,3145.14,2442.94,3129.61,2456.45Z"/><path class="cls-1" d="M1713.87,1819.51c23.51-2.54,47-5.4,70.58-7,2-.15,6.64,7.71,6.71,11.91.58,33.68.32,67.37.39,101,0,22,.31,44,.3,66,0,22.84,6.67,40.64,32.4,45,2,.35,3.82,2.24,5.39,5.85H1710.59c-.32-.81-.63-1.63-.94-2.44,4.39-1.62,8.66-3.82,13.2-4.77,14.44-3,23.1-12.92,23.4-26.25,1.14-50.9,1.4-101.85.44-152.75-.28-15-10-25.79-26.18-28.73-2.69-.49-5.15-2.22-7.71-3.37C1713.16,1822.44,1713.51,1821,1713.87,1819.51Z"/><path class="cls-1" d="M2544.54,355.67c18.89,24.27,37.77,48.55,56.47,72.59-2.43-15.35-5-31.82-7.66-48.29l5-1.14c19.88,33.66,35.89,68.79,37.95,108-44.13-32.14-70.35-79.81-96-127.94Z"/><path class="cls-1" d="M2310.5,1376.48c-4.15-26.81-7.81-50.47-11.82-76.39-3.38,2.88-7.46,4.93-9.3,8.22-4.31,7.72-8.54,15.75-11,24.18-5.06,17.33-14.67,30-34.93,36.91,15.24-32.15,24.45-65.22,50.93-86.68l19.27,13.64c3.8,10.62,10.52,22.62,11.89,35.2,1.39,12.82-2,26.3-4.46,39.28C2320.65,1373.12,2314.7,1374.36,2310.5,1376.48Z"/><path class="cls-1" d="M2978.52,556.49c19.28,4.92,21.56,20.67,25,34.18,3.54,14.09,4.41,28.85,6.45,43.31l6.4.36c3.89-19.2,7.79-38.39,11.48-56.6,13,15.32,11.8,71-4.3,96.77-2.69-4.55-4.57-8.45-7.1-11.87-4.06-5.46-9.15-10.24-12.7-16-4.06-6.55-8.23-13.51-10-20.87C2988.16,603.47,2983.76,580.88,2978.52,556.49Z"/><path class="cls-1" d="M3249.52,717.25l-67.74,16.07c29.48,13.9,56.06,28.62,64,60.69l-3.34,4c-6.54-5.05-13.45-9.7-19.57-15.23-12.74-11.5-25.06-23.47-37.55-35.24-2-1.9-5.53-3.55-5.85-5.7-1.63-10.83-9.26-11.26-17.62-11.72-2.66-.15-5.22-2.38-10.66-5.05,32.48-19.73,65.56-10.26,96.7-14.74Z"/><path class="cls-1" d="M2213.67,1145.38c49.24-7.53,89.81,13.18,129.89,35.89-.28.79-.52,2.27-.85,2.29-38.76,2.44-76.72,2.29-107.57-27.35C2229.86,1151.14,2221.54,1149.22,2213.67,1145.38Z"/><path class="cls-1" d="M2525,398.13c-18.52-2.57-90.37-66.31-95.26-88.33L2486,356.29l4.17-1.11-7.21-42.43c17.46,11.9,30.47,38.75,31.79,61.13C2515.21,382.19,2521.46,390.17,2525,398.13Z"/><path class="cls-1" d="M2416.69,1167c-7.67-.49-15.73.38-22.93-1.71-33.6-9.71-71.3-13.53-85.12-57,36,20.4,77.41,26.51,108.83,53.24Z"/><path class="cls-1" d="M2864.61,186.47c1.39-2.75,2.92-5.79,4.46-8.82l2.31,0c.41,7.9.82,15.79,1.19,23.11-16.16-7.21-32.31-12.68-46.45-21.4-8.14-5-15.08-14.44-18.89-23.43-6.22-14.68-9.45-30.64-11.22-47Z"/><path class="cls-1" d="M2663.49,791.42c31.1-4.75,76.65,12.26,91.16,34.05C2729.28,841.47,2676.53,821.77,2663.49,791.42Z"/><path class="cls-1" d="M2545.33,1210.54c-1.8,5.43-1.89,7.54-2.7,7.86-25.83,10.3-32.44,37.14-48.37,55.92-8.27,9.74-16.89,19.19-25.36,28.77l-4.45-3.62c5.41-13.48,11.31-26.8,16.12-40.5,7.4-21.09,18.7-38.82,40.63-46.64C2528,1209.9,2536.19,1211.1,2545.33,1210.54Z"/><path class="cls-1" d="M2184.13,1255c36.21-17.8,66.25-53.77,115.06-30.76C2262.18,1241.91,2227.36,1261.36,2184.13,1255Z"/><path class="cls-1" d="M2480.81,1155.86c-39.78-12.67-79.42-25.58-102.19-65.53C2416.87,1105.1,2457.15,1117,2480.81,1155.86Z"/><path class="cls-1" d="M2381.38,814.88c-11.89,1.24-24.07,1.22-35.59,4-26.83,6.39-46.49-4-65.83-26.26,30,1.72,57.06,2.36,83.88,5.4,7.17.82,13.52,9,20.24,13.74Z"/><path class="cls-1" d="M3581.53,815.74c-1.28,8.44-1.83,17.08-4,25.29-4.66,17.61-9.69,35.16-15.56,52.4A76.87,76.87,0,0,1,3550,915.29c-2.46,3.17-8.38,3.67-12.73,5.37-1.38-4.64-4.52-9.59-3.76-13.86,1.37-7.7,4.62-15.2,7.88-22.43,9.6-21.22,19.51-42.3,29.54-63.32,1.26-2.65,4-4.6,6.05-6.87Z"/><path class="cls-1" d="M2355,1310.36c-21.7-23.35,13.63-86.64,47.64-86.81C2382.55,1250.53,2382.71,1287.16,2355,1310.36Z"/><path class="cls-1" d="M2788.31,803.77c-23.9-.54-47.65,3.14-65.82-18.33-6.1-7.2-15.23-11.82-23.11-17.73C2737.7,761.25,2781.94,778.49,2788.31,803.77Z"/><path class="cls-1" d="M3038.48,369.32c17.19-7.58,34.09-10.4,55.89-6.74-15.72,7.39-27.62,13.57-40,18.64-11.95,4.9-24.37,8.64-36.67,12.93-.27-.52-1.16-1.9-1-2,11.77-9.61,15.09-20.69,12.31-36.43-2.14-12.11,23.61-40.55,39.2-46C3057.57,331.08,3048,350.2,3038.48,369.32Z"/><path class="cls-1" d="M2732.86,595.9c-18.51-32.18-12.29-62.51,1.18-92C2747.3,519.06,2758.24,564.65,2732.86,595.9Z"/><path class="cls-1" d="M2651.13,356.72c36.21,16,40.94,48.21,47.87,79,.47,2.1-1.51,6.59-3,6.9-2.62.55-7.21-.34-8.4-2.24-6.42-10.18-12.77-20.53-17.75-31.46-6.53-14.34-11.82-29.25-17.49-44C2651.6,363,2651.69,360.64,2651.13,356.72Z"/><path class="cls-1" d="M3366.6,463c-21.67,16.55-43.85,30.47-73.88,23.95-10.48-2.28-21.87-.36-36.7-.36,5.5-4.63,8.5-9.25,12.25-10,32.3-6.22,64.74-11.74,97.14-17.48C3365.81,460.46,3366.21,461.75,3366.6,463Z"/><path class="cls-1" d="M2374.38,840.22c26.88,7.64,54.18,14.14,80.4,23.63,8.11,2.93,13.27,14,18.11,23.68-31.06-20.41-73.09-13.06-99.65-42.54Z"/><path class="cls-1" d="M2655.43,1032.79c-27.74-17.6-29.23-44.79-26.94-90.58a23.56,23.56,0,0,1,2.14-1.31c12.17,16.45,27.67,31.33,21.92,55.26-1.67,6.91-.07,14.67.38,22C2653.16,1021.94,2654.17,1025.66,2655.43,1032.79Z"/><path class="cls-1" d="M2278.33,642.9c41.86,4.7,54.41,32.59,62.73,63.85,1,3.78-2.46,8.75-3.86,13.18-2.53-3.27-5.1-6.51-7.58-9.82-7.5-10-14.88-20.14-22.48-30.09C2298.21,668.32,2289.1,656.76,2278.33,642.9Z"/><path class="cls-1" d="M3246.2,374.63c2,37.93-7.33,68.86-28.87,96C3205.18,455.05,3216.57,415.26,3246.2,374.63Z"/><path class="cls-1" d="M3217.37,517.53c32.86-11.74,66.7-5.62,100.62-2.78-23.32,17-54.06,20.49-79.06,10.39-6.34-2.56-14-1.71-21.12-2.43Z"/><path class="cls-1" d="M2575.75,450l29.3,27.65c-38.46-8.5-76.45-4.2-106.25-32.07,19.66,2.53,38.22,5.24,56.87,7.1C2561,453.24,2566.6,451.34,2575.75,450Z"/><path class="cls-1" d="M3500.3,840.53c-12.93,29.26-1,65.51-27.57,92.82-12.77-15-8.24-29.86-3.24-42.59,7-17.88,17.53-34.39,26.54-51.49Z"/><path class="cls-1" d="M3188.56,519.25c-7.86,1.31-11.15-.69-14.68-9.53-10.71-26.85-2.22-52.47,3.53-80,2.1,3.78,5.09,7.32,6.13,11.37,2.87,11.24,5.87,22.59,7,34.08.84,8.59-1.25,17.45-1.8,26.2-.38,6-.36,12.11-.52,18.16Z"/><path class="cls-1" d="M2682.79,905.62c15-20,27.18-36.72,39.92-52.94a27.39,27.39,0,0,1,12.3-8.82c2.09-.68,8.41,3.77,8.49,6.06.52,13.63-32,52.7-45.59,55.6C2694.55,906.23,2690.92,905.62,2682.79,905.62Z"/><path class="cls-1" d="M2534.54,493.87c21.05,1.18,42.54.13,63,4.19,19.17,3.81,37.26,13,56.65,20.17-9.43,9-20.74,8.91-32.63,2.58-6.3-3.36-13.39-5.53-20.36-7.29-22.3-5.62-44.71-10.8-67.08-16.16Z"/><path class="cls-1" d="M2264.52,1451c-7.75-16.66,2.62-63.1,16.22-73.33,2.18-1.64,6.64-2.67,8.61-1.52s3.48,5.37,3.48,8.25C2292.88,1410.46,2281.94,1431.87,2264.52,1451Z"/><path class="cls-1" d="M3142.22,756c-16.2,11.68-30.91,16.54-48.36,4.84-6.11-4.09-15.1-3.73-22.56-6.06-4.23-1.32-8-4-12-6,4.18-2.95,8.63-8.73,12.5-8.37,16.89,1.58,33.69,4.57,50.37,7.84C3128.36,749.47,3134.16,752.82,3142.22,756Z"/><path class="cls-1" d="M2648.06,441.05c20,9.82,46.24,62.84,42.63,89.94C2659.22,507.59,2657.66,472.46,2648.06,441.05Z"/><path class="cls-1" d="M2843.68,353.06c-5.57,35.33-33.26,65.72-59.65,66-2.15-12.46,4.66-21.34,12.75-28.72,13-11.85,26.91-22.71,40.5-33.91C2838.59,355.4,2840.31,354.83,2843.68,353.06Z"/><path class="cls-1" d="M2883.83,229c-6.32-32.84,20.48-43.07,36.82-60.46,2.41,13.22,9.23,27.47-1.76,38.11C2909.52,215.73,2896.59,221.12,2883.83,229Z"/><path class="cls-1" d="M2451.58,374.76l101.59,55.67q-.55,2.9-1.12,5.81c-7.53-.47-16.39,1.46-22.34-1.85-17-9.47-33-20.75-49-32-10.72-7.52-20.69-16.12-31-24.23Z"/><path class="cls-1" d="M3250.31,879.89c23.69,16.07,35.6,39.92,49.2,62.3,1.33,2.2-1,6.64-1.64,10-2.92-.64-6.35-.52-8.7-2.05C3264.21,934,3253.94,909.49,3250.31,879.89Z"/><path class="cls-1" d="M3295,439.59c19.67-23.49,46.71-30.45,73.66-41C3350.67,434.83,3319.46,449.57,3295,439.59Z"/><path class="cls-1" d="M3243.8,591.25c-18.29,13.94-34.3,26.09-57.54,18.39-7.5-2.48-16.52-.39-24.6-.39C3166.55,593.3,3202.52,584.67,3243.8,591.25Z"/><path class="cls-1" d="M2392.5,756.66c-5.12-34.31-3.22-62.71,28.3-82.7,1.2,17.64-.22,33-8.89,47.64-5,8.46-8.33,17.92-12.68,26.81C2398.14,750.64,2396,752.39,2392.5,756.66Z"/><path class="cls-1" d="M2664.66,712.92c2.51-11.24,4.91-19.1,5.94-27.14,2.6-20.15,25-44,42.34-43.61C2707.29,672.56,2687.55,692.62,2664.66,712.92Z"/><path class="cls-1" d="M2180.54,1282.28c-4.41,17.48-38.62,43.92-66.11,51.82C2118.09,1312.37,2159.91,1279,2180.54,1282.28Z"/><path class="cls-1" d="M2724,425.69c2.71,17.67,5.06,31.36,6.85,45.12,1.72,13.37-4.93,23.28-14.56,31.49-7.8,6.65-13.38,2.8-12.45-5.56,1.79-16,5.43-31.8,9.34-47.43C2714.9,442.31,2719.16,435.94,2724,425.69Z"/><path class="cls-1" d="M2277.65,1253.88c-32.29,18.63-47.57,58.71-87.28,68.65C2194.33,1302.58,2253.91,1254.38,2277.65,1253.88Z"/><path class="cls-1" d="M3431.41,860.24c1.92,3,3.31,4.2,3.21,5.22-2.21,24.4-4.15,48.83-7.32,73.11-.62,4.75-6.12,8.87-9.38,13.29-2.36-4.55-7.23-9.45-6.66-13.59,2.39-17.33,5.93-34.54,10-51.56C3423.31,878.28,3427.46,870.36,3431.41,860.24Z"/><path class="cls-1" d="M3538.55,1064.32c-6.46,6.67-11.77,15.68-19.62,19.5-16.14,7.87-33.55,13.2-50.65,18.93-2.68.9-6.48-1.53-9.77-2.42,1.62-3,2.49-7.27,5-8.82a162.81,162.81,0,0,1,24.82-12.82c15.46-6.15,31.27-11.42,46.93-17Z"/><path class="cls-1" d="M3012.76,724.88c-26.65-25.59-25.47-57.32-30.53-87C3002.1,662.62,3017.39,688.85,3012.76,724.88Z"/><path class="cls-1" d="M2698.93,1086.88c-9.73-10.35-16.64-22.23-15.55-36.68,1.43-18.8,4.27-37.5,6.36-55.12C2710.78,1022.22,2701.4,1054.8,2698.93,1086.88Z"/><path class="cls-1" d="M2802.28,660.75c-18.29-28.11-4.26-57.6-8-87C2813.56,585.57,2817.13,629.47,2802.28,660.75Z"/><path class="cls-1" d="M2586.19,1219.25c-15.3,23.36-23.54,50.47-48.72,64.82C2542.26,1242.17,2561.81,1215.37,2586.19,1219.25Z"/><path class="cls-1" d="M2366.35,638.35c15.58,32.74,12.4,67.76-7.43,89.45C2351.6,697.26,2358.83,669.79,2366.35,638.35Z"/><path class="cls-1" d="M2422.14,964.93c20.33-36.13,63-52.21,76.1-30.63Z"/><path class="cls-1" d="M3152.16,316.66c-21.47,20.82-67.26,29.87-85.12,21.93C3092.64,319.8,3119.7,313.25,3152.16,316.66Z"/><path class="cls-1" d="M2630.13,854.69c24.3-12.8,63.29-12.77,69.66.06C2669.24,874.06,2644.55,874,2630.13,854.69Z"/><path class="cls-1" d="M2418.85,1294.66c-6.13-37.65,9.75-63.09,42.39-79Z"/><path class="cls-1" d="M2828.31,349.81c-30.27,20.36-56.68,3.16-83.63-6.09C2772.42,341.19,2800.78,329.46,2828.31,349.81Z"/><path class="cls-1" d="M2610.1,664.11c15.41-19.93,45.55-33.54,78.67-36.56-13.36,10.5-25.59,23.25-40.47,30.75C2637.37,663.8,2623,662.42,2610.1,664.11Z"/><path class="cls-1" d="M3698.9,963.6c-28.67,7.29-52.76-.6-73.07-23.09C3643.48,933.24,3677.94,943.84,3698.9,963.6Z"/><path class="cls-1" d="M2519.45,810.21c14.76,18.16,23,75.15,13.69,87.34C2511.73,871,2520.93,839.78,2519.45,810.21Z"/><path class="cls-1" d="M2431.59,909.32l-76.15-5.08c21.1-7.2,40.25-25.56,64.35-11.61,5.7,3.3,10.32,8.44,15.44,12.73Z"/><path class="cls-1" d="M2757.54,886.54c3.39-13.46,5.79-25.67,9.64-37.41a149.64,149.64,0,0,1,12.48-27.5c1.52-2.65,8.76-5.2,10.3-4,2.93,2.36,5.93,8.27,4.87,11.3-3.64,10.42-8,20.94-14,30.09C2774.22,869,2765.39,877.44,2757.54,886.54Z"/><path class="cls-1" d="M3255.7,446.31c7.55-33.24,24.42-56.82,46.6-77.45C3306.21,386.44,3292.64,409.35,3255.7,446.31Z"/><path class="cls-1" d="M2756,195.34c26.21,1.66,53-16.32,79,3C2821.3,211.12,2787.1,210.12,2756,195.34Z"/><path class="cls-1" d="M3056.71,940c1.21-28.26,12.25-50,24.16-73.19C3092.33,890.38,3082.05,922.18,3056.71,940Z"/><path class="cls-1" d="M3364.89,887.37c.45,24.89-10,43.89-20,63.2C3326.36,940.78,3336.94,906.54,3364.89,887.37Z"/><path class="cls-1" d="M2798.26,705.75c-22.68-26.93-31.38-59.62-37.51-93.39l3.81-1.61q19.79,46.1,39.55,92.2Z"/><path class="cls-1" d="M3019.86,1085.77c-13.25,15.33-36.58,13.44-58.4-6.48C2971.57,1064.57,2985.68,1066,3019.86,1085.77Z"/><path class="cls-1" d="M3736.84,900.24c-27.29,20.79-57.62,12.63-89.05,10.36C3677,891.45,3707.59,902.39,3736.84,900.24Z"/><path class="cls-1" d="M2841.37,7.79c15.39,28.5,9.1,55.9,9.13,83.1C2834.09,82.61,2831.1,56.6,2841.37,7.79Z"/><path class="cls-1" d="M3142.59,862.89c-6.88,20.78-10.89,43.27-34.14,53.3a13.19,13.19,0,0,1-9,.08c-1.13-.42-2-5.27-1.08-7C3109.12,890.19,3124.69,875.54,3142.59,862.89Z"/><path class="cls-1" d="M3328.15,849.51c-6.91,26.31,5.68,56-15.07,79.8C3313.07,901.86,3301.82,872.63,3328.15,849.51Z"/><path class="cls-1" d="M3481.28,1215.07c-21-8.09-35.73-22-41-44.28-.59-2.51,1-5.74,2.26-8.29.22-.44,4.33.32,6,1.46C3466.53,1176.14,3475.32,1194.52,3481.28,1215.07Z"/><path class="cls-1" d="M2607.17,590.34l85.33,12.06C2658.22,619.76,2626.89,614.52,2607.17,590.34Z"/><path class="cls-1" d="M2985.23,260l-77.74-15.23C2934,228.77,2971.12,236.73,2985.23,260Z"/><path class="cls-1" d="M2967.76,307.33c-30.3-8.85-50.81-26.39-66.39-51.32C2913.65,252.63,2953.8,283.52,2967.76,307.33Z"/><path class="cls-1" d="M2884.45,162.06c-7.09-22.93,13.32-46.83,39-45.47C2918.72,138.75,2901.39,149.49,2884.45,162.06Z"/><path class="cls-1" d="M3074.68,954.22c13.32-18.31,36.69-23.41,57.8-14.79C3126.89,956.1,3114,959.52,3074.68,954.22Z"/><path class="cls-1" d="M3025.17,956.19V888.71C3045.45,901.77,3045.94,941.59,3025.17,956.19Z"/><path class="cls-1" d="M2450.34,824.64c-18.32-14.87-26.12-46.22-14.42-75.3,5.5,15.66,11.45,28,14,41.11C2452.06,801.73,2450.34,813.75,2450.34,824.64Z"/><path class="cls-1" d="M2251.43,721.9c25.58,8.43,56.83-5.13,77.74,21.4C2301.52,742.92,2275.24,737.16,2251.43,721.9Z"/><path class="cls-1" d="M2588.66,1013.45c-31.1-1-57.36,16-87,2.79,16.71-4,32.42-6.32,47-11.64,11.72-4.26,21.82-3.09,32.3,1.75C2582.87,1007.21,2584.18,1009.21,2588.66,1013.45Z"/><path class="cls-1" d="M2891.45,41.91c6.44,16.68.13,33.69-21.36,59.86C2858.94,89.79,2862.38,79.93,2891.45,41.91Z"/><path class="cls-1" d="M2299.19,688.92c-29.77-.7-44.6-16.71-55.58-39.69C2270.08,651.53,2281.87,671.61,2299.19,688.92Z"/><path class="cls-1" d="M3599.23,894.78c15.35-21.06,31-41.84,57-54.76C3647.45,871,3624.32,883.91,3599.23,894.78Z"/><path class="cls-1" d="M3412.07,1140.83c11.54,16.27,23.66,30.18,20.86,50.24C3408.5,1191.89,3401,1175,3412.07,1140.83Z"/><path class="cls-1" d="M3431.1,1135.28c28.32-8.94,35.58,19.56,54.94,28.54-16.66,6.87-29.57,3-38.11-9.06C3443.19,1148.09,3437.23,1142.29,3431.1,1135.28Z"/><path class="cls-1" d="M3009.11,562.13c-8.93-16.93-6.26-49.83,4.22-58.24C3026.09,522.39,3024.32,553,3009.11,562.13Z"/><path class="cls-1" d="M3234,742.06c20.38-7.65,52.6-2.15,64.51,16.15C3274.09,761.59,3254.28,753.57,3234,742.06Z"/><path class="cls-1" d="M3163.45,683.36c-9.28,25.08-28.45,34.87-54.07,36.21C3119.51,703.06,3137.54,691.09,3163.45,683.36Z"/><path class="cls-1" d="M2712,342.54c11.91,30.74,20.14,48.14.72,64.44C2703.86,385.68,2706.2,365.07,2712,342.54Z"/><path class="cls-1" d="M2821,82.59c13.25,6.79,34.84,40.87,35.39,55.88C2837.52,130.57,2820.09,103.05,2821,82.59Z"/><path class="cls-1" d="M2451.54,1008.24c5.14-11.36,9.69-23,15.7-33.91,2.48-4.49,7.81-7.7,12.43-10.53,1.68-1,5.86-.13,7.45,1.4s2.4,5.9,1.33,7.27c-10.52,13.41-21.5,26.45-32.36,39.59Z"/><path class="cls-1" d="M3093,546l-6.84-62.12c14.27,11.5,20,50.6,12.27,61.67Z"/><path class="cls-1" d="M2428,251.56c17.47,13.3,26.76,31.19,29.48,53.27-15.63-3.55-24.33-18.91-19.53-27.89l-14.28-22.49Z"/><path class="cls-1" d="M2670.29,287.92c9.09,21.19,18.19,42.38,28.18,65.66-15.95-3.64-32.33-40.41-32-64.26Z"/><path class="cls-1" d="M3553.2,1017.65c-11.79,17.05-26.58,31-45.19,40.83-1.77.93-5-.43-7.28-1.34-.43-.17-.37-4.13.6-4.89,16.23-12.7,32.65-25.17,49-37.7C3551.3,1015.59,3552.25,1016.62,3553.2,1017.65Z"/><path class="cls-1" d="M2276.79,699.47c-45.13,2.5-48.19,1.92-55-10.4C2240.4,684.68,2274.38,691.1,2276.79,699.47Z"/><path class="cls-1" d="M2837,225.6l-35.08,33.21C2799.86,235.54,2815.42,220.72,2837,225.6Z"/><path class="cls-1" d="M2980.12,199c-8.39,20.93-27.18,17.13-42.65,23.13C2939.44,208.51,2954.63,200.74,2980.12,199Z"/><path class="cls-1" d="M3314,1174.93l-39.76-8.6c-.29-1.8-.57-3.6-.86-5.39,5.72-1.88,12.58-6.72,16.94-5,9.58,3.68,17.9,10.66,26.73,16.29Z"/><path class="cls-1" d="M2200.8,649.63l28.64,12-2.79,6.73-28.8-12.12Q2199.32,652.93,2200.8,649.63Z"/></svg>