<svg id="Layer_1" data-name="Layer 1" xmlns="http://www.w3.org/2000/svg" viewBox="0 0 9594 2266.74"><defs><style>.cls-1{fill:#e7fc37;}.cls-2{fill:#070707;}.cls-3{fill:#353535;}.cls-4{fill:#e8d631;}.cls-5{fill:#0e0e0e;}.cls-6{fill:#1f1f1f;}.cls-7{fill:#a9f812;}.cls-8{fill:none;}</style></defs><path class="cls-1" d="M4052.8,368.27q65-.33,129.93-.68c27.93,2.68,28.18,3.42,46.75,5.71l15.14,1.94c13.49,2.76,6.07,1.24,16.18,3.16q42.2,6.38,84.37,12.74c16.64,4.49,8.1,2.5,22.83,6.43,18.86,6,22.4,6.26,51.66,15.61q7.53,6.78,15,13.58c-10.92-.32-21.1,1.48-25.12,13.36-4.63,13.71,7.38,17.72,15.38,23.22,12.64,8.68,25.79,16.67,39,24.53,57.18,34.1,114.76,73.14,156,121.58,58.41,68.57,121.81,136.16,154.88,225.34,21.35,57.6,33.89,116.66,50.14,175.11s3.2,117.11.72,175.85c-2.4,56.91-17.65,111.47-38.38,162-41.6,101.43-99.08,192.86-186.13,265.46-45.81,38.22-92.56,75.14-139.83,111.28-52.32,40-117,54.41-177.27,77.79l-.16.21c-49.55-3-88.77,25.53-131.55,43.18l-39.44.08-10.39-2.13a4.08,4.08,0,0,1-5.33-2.06c23.52-17.35,14.72-35.21-5.4-42.15-19.47-6.72-36-19.26-54.29-25-107.16-33.85-180.23-114.64-256.76-188.19-61.94-59.52-101.33-138.07-135.7-216.42-12.69-29-23.81-40-53-32.07,14.59-29,45.3-52.15,32.72-90.91,9.93-21.36,13.26-44.24,14-67.37C3640.79,1111,3578,1052,3513.3,1060.9c-16.42,2.27-32.88,4.21-49.33,6.3l-10-13.86c41.57-2.87,83.12-7.28,124.74-8.11,31.24-.62,48-8.06,35.15-43.14-4.46-12.14-5.44-25.9.33-37.71,28-57.18,39.94-121.1,74.59-175.49,52.25-82,106.45-162,191.21-215.44,37-23.34,73.15-48.83,51.51-102.73-4.12-10.26,3.39-16.66,11.34-21.78q4.59,34.19,9.18,68.36c4.18,31.47,7.28,62-38.69,63.33-6.91.2-15.55,3.2-15.53,13.73,0,9.61,7.79,12.8,14.16,16.39,72.51,40.82,214.18,7.63,262.53-61.24,3.5-5,9.74-9.52,4-16.3-5-5.94-11-4.05-17.33-1.21-19.82,8.94-40.57,16.12-59.56,26.54-16.05,8.81-22.32,6.41-24.66-11.81C4069.31,487.19,4060.91,427.75,4052.8,368.27Z"/><path class="cls-2" d="M3249.26,2182.82v.15c-.07,0-.15.08-.23.08Z"/><path class="cls-2" d="M3817.65,2237.09c.24,23.89-22.57,26.9-42.44,26.9-181.14.08-362.2.77-543.19-7-4.33-.23-8.35-4.79-12.52-7.34-4.33-9.59-4.72-19.25-.54-29,17.62-6.57,31.31-16.24,30.3-37.73,4.64-1.47,8.51-3.56,6.88-9.66-.07-5.11-.07-10.21-.15-15.31-18.09-28.3-13.53-64.48-32.47-92.47-2.24-5.25-4.49-10.43-6.73-15.69-32.08-72.36-55.2-148.21-87.05-220.88-15.77-35.79-31.62-74.53-38.27-113.49-8.19-48.17-43.22-86-45.53-135.29,3.71-3.48,6.8-8,11.21-10.29,28-14.07,58.13-6.88,87.13-6.26,27.67.7,26.2-19.17,31.15-34.94,6.5-20.57-11.52-17.17-22.26-22.19-47-21.88-100.51-17.94-148.05-37.73-8.59-42.52-24.82-82.26-44-120.91.23-3.79,1.62-8.12.38-11.44q-39.78-111.92-80.56-223.51c-1.23-3.33-8.5-4.41-13-6.49,5.25-24.59-12-43.15-17.63-64.79-3.17-12.37-12-10.44-20.64-5.18q-58,35.13-115.89,70.43c-9.82,2.39-19.56,5.8-29.53,7.11-65,8.89-131.67.7-196,18.17-1.08.31-4.48-7.89-6.8-12.14,43.29-27.37,89.37-49,136.76-68.65,59.07-24.35,117.44-50.49,173.87-80.87,23.27-12.52,25.75-23.89,17.17-48.16-45.69-128.88-89.07-258.45-133.29-387.8.47-6.8-14.45-7.88-3.71-20.33,17-19.71,1.47-25.43-16.93-26.05,2.17-17-7.19-27.91-18.86-39-20.72,20.41-22.11,47.54-33.48,69.88-10.44,28.38-37.34,51.49-27.06,86.36-27.06,85.58-54.89,170.94-81,256.83-27.14,89.37-61.15,176.73-82.57,267.88-49.55-7.73-99.88-11.21-146.73-31.23,4-12.06,8-24.2,12.29-36.18q39.78-113.88,79.86-227.61c.62-1.85,1.24-3.71,1.93-5.56l61.85-170.71a78.63,78.63,0,0,0,7.35-20.18l44.3-122.38,18.7-51.64,1.94-5.41,25.59-70.59c.54-2.86,72.05-214.54,97.1-277.16,12.83-32.08,24-65.95,43-94.24,7.5-11.21,14.07-16,20.1-16.93V.09c28.68-2,39.73,28.92,40.35,30.77l.08.08,24.66,63.4,3.56,9.2,220.8,568.7,82.72,213.53.85,2.16,11.75,30.31a39.36,39.36,0,0,0,5.18,1.39c5.42.39,10.75.7,16.16,1.08q69.69,14.26,139.32,28.61c18.47,2.24,38.88,16.23,48.55-15.7,30.92-101.35,84.5-190.34,151.83-271.51l15.78-14.54,5.95-5.41,9.2-8.43,41.28-38,.16-.15,17.55-16.08,7.19-6.57a11.89,11.89,0,0,0,4.41-3.48c11.82-7.58,23.73-15.08,35.56-22.65,6.41-4.1,13.22-10.67,20.64-4,10,8.89.93,17.47-4.48,23-26.75,27.52-53.35,55.51-82.18,80.86-90,79-144.5,178.52-174.42,293.09-2.94,11.21-5.72,20.72,9.2,23.2,21.18,3.55,44.76,14.37,63.24-.7,19.48-15.93,18.56-1.47,22.81,10,10.36,27.83,8.42,61.31,36.64,81.1,3.33,4.56,6.65,9.2,10,13.84-29.23,17.7-60.77,5.87-91.23,6.88,7.27-8.43,12.76-21.26,1.55-26-20.8-8.81-45.23-16-66.49-8.27-16.55,6.11-6.8,26.59-6.26,41.05-18.71.62-37.42,1.16-56.05,1.78.77-12.83,1-25.75,2.47-38.5,1.24-11.37-2.63-15.7-14.22-17.24-42.68-5.41-85.36-11.75-134.45-18.71L3131,1090a14,14,0,0,0,1.23.92q51,133.14,102.21,266.11L3379,1761.7c31.23,79.63,64.17,158.64,100.74,236.19,16.85,35.72,39,69.19,61,102.12,54.5,81.34,134.44,115,229.46,118.6,2.62.15,5.17-.15,7.73.08C3793.53,2220.39,3817.42,2213.59,3817.65,2237.09Z"/><path class="cls-2" d="M2744.73,94.34l-24.66-63.4c1.39,3.32,2.71,6.57,4.1,9.9C2731.05,58.7,2737.93,76.48,2744.73,94.34Z"/><path class="cls-2" d="M3053,886.7a7.91,7.91,0,0,0-.31,1.23l-.85-2.16Z"/><path class="cls-3" d="M2265.6,1098.83c46.86,20,97.25,23.52,146.74,31.24l69.13-10c2.33,4.25,5.75,12.47,6.84,12.17,64.32-17.49,131-9.29,196-18.16,10-1.36,19.69-4.74,29.52-7.19l154.19-.44c4.45,2.12,11.74,3.19,12.95,6.5q41,111.49,80.59,223.5c1.19,3.36-.21,7.63-.4,11.48-138.33,8.78-276.49,22.29-415.39,14.32-17.94-.51-36.36,1.5-53.72-1.92-145.11-28.6-289.82-59.24-435.09-87-59.49-11.37-117.43-36.46-180.19-25l.63.43-.75-6.25-4.74,3.71c-17.32-6.12-34.79-10.89-53.32-5.71l-16.21,5.16c-133.86,12.56-268.1,14.65-402.42,13.93-23-.13-45.89-2.43-68.83-3.73l-15.95-.58c-51.22-6-102.35-14-154.19-7.8-37.45,7.09-76.87,7.26-109.5,31.23l-7,4.46-24.74,17.61c-47.64,30.28-87.84,2-129.28-16.43-3.68-18.77-27.24-25.86-27.4-46.69,2-43.44,6.4-86.94,5.25-130.3-1-38.22,17-68.77,30.9-101.42l1.43-1.86-1.28-2C912.15,998,916.29,985.5,924,976.46c8.88-5.46,17.51-11.18,21.32-21.64,28.15-38.4,73.6-55.87,107.32-88,12.09-11.53,21.93-21.57,26.36-37.16,11.37-5.25,25.55,3,35.84-7.45,34.62-16.82,67.82-10.55,100.38,6.16,6.86,11.74,17.38,16.29,30.58,15.57,33.56-4.71,51.87,23.49,76,37.39,54.63,31.46,111.84,48.92,174.6,47.81,18.53-.33,32.85,12,50.3,14.12,8.46,12.64,23.54,21,35.3,20.46,37.33-1.84,72.37,8.3,108.29,14,38.18,6.07,75.19,23.64,115.21,11.94,36.23,2.77,71.35-5.15,106.88-10.21,41.07-5.85,84.33-9.86,118.36,18.85C2099.21,1056.1,2181.11,1079.88,2265.6,1098.83Zm-1084-162c5.91-5.63,11.36-17.6,5.65-19.4-33.33-10.56-58.16-44.24-103.39-23.3-48.55,22.48-93.95,47.14-130.95,85-51.35,52.57-65.09,158.08-29.07,215.49,3.76,6,3,23.94,23,14.07,28.63-14.11,43.68-44.79,48.63-65.6,19.34-81.41,57.34-139.76,142.36-159.72l23.37-1.31c5.78,9.93-2.53,23,7.05,32l-4.23,23.39c-21.27,46.77-54.27,86.07-99.88,106.15-40.55,17.85-65.93,40.06-70.14,86.8,18.38,0,37.55,1.93,56.22-.31,133.11-15.92,239.17-110.36,228.52-257.87-2.83-39.13-34.84-35.28-54.44-48.1-18.84-12.32-22.33,13.58-32.64,22.58C1185.1,946.59,1181,944.08,1181.55,936.8ZM2677,1234.8c-6-.1-11.2,1.52-13.24,6.52s0,10,5.81,12.2c40.71,15.32,81.41,30.69,122.22,45.76,5.33,2,10-.76,12.43-5.92,2.74-5.84-.66-10.81-5.24-12.57C2758.4,1265.16,2717.66,1250.06,2677,1234.8Zm54.41,68.25c-1.24-2.19-2-5.62-3.78-6.37-34-14-68.14-28-102.5-41.23-4.76-1.84-10.91,2.19-10.52,8,.29,4.08,3.84,9.94,7.43,11.46,30.59,12.88,61.47,25.09,92.39,37.16C2722.84,1315.32,2729.37,1313,2731.38,1303.05Zm131.52-30c-1.11-2.21-2-7.48-4.45-8.34q-50.34-17.7-101.15-34c-2.1-.67-7.23,2.83-8.35,5.49-2.4,5.69,1.72,10.18,6.54,12,31.1,11.58,62.37,22.68,93.56,34C2856.79,1285,2861,1282.19,2862.9,1273.06Zm40-31.91c-2.14-2.44-4.06-6.67-7.13-7.83-18-6.76-36-13.35-54.38-18.76-5.78-1.7-17.31,2.49-14.43,7.52,13.45,23.48,41.68,19.17,62.57,29.3C2895.75,1254.38,2901.69,1249.75,2902.93,1241.15Z"/><path class="cls-3" d="M5907.37,843.87q-19.36,7.18-38.73,14.53-30,15.2-60,30.38a35.75,35.75,0,0,1-24.89,9.59c-7.42,4.17-14.77,8.35-22.19,12.53-9.82,6.1-19,14.14-32.08,9.73-69.27,50.34-148,29.23-223.82,29.46l-16.46-2.32c-68.42,8.35-129.42-26.59-195.21-34.17-32.63-3.79-64.48-14.84-97.8-15.62l-142.49-8.35c-6.49-.92-13-1.85-19.48-2.7-8-.08-16-.08-24-.16-7.73.16-15.38.24-23.11.31-20.72,1.94-41.52,3.64-62.16-1.08-2.16-.31-4.25-.7-6.34-1,10.2,31.23,14.84,64.16,24.35,95.63,30.77,101.74-1.31,198.84-23.73,296.56l8.58,25c17.7-47.08,20.33-97.33,27.76-146.27,3.47-22.58,12.13-31.54,30.76-36.88,10.67-4.17,21.34-8.27,32-12.44l1-2,2.32.3c7.88-7,16.08-13.52,27.52-12.83a5.93,5.93,0,0,1,7.27,0c41.67-31.77,83.57-62.47,140.39-38.34,19.56-4.26,36.26,6.26,54.2,10.35,6.34,3.79,12.75,11,18.86,10.75,46.31-1.62,88.83,17.55,133.44,24.66,85.43,13.61,170.32,31.16,256.21,42.68,7.5-7,23.27-4.25,24-19.41,2.62.62,5.1,1.4,7.73,2,25.59-26.28,54.35-46.38,92.46-48.93,7.73-3.79,15.54-7.58,23.27-11.45,32.47-27.44,61.69-60.22,107.31-66.33Zm-847,207.81c-9,10.59-19.25,2-27.29-1.39-16.7-7.19-32.32-12.84-49.32-1.4-.62.39-4.72-4.32-7.19-6.65,1.77,1.09,3.47,2.17,8.73,5.57-2.47-48.7,31.55-10,47.55-21.26,9-6.34,21.72,3.48,27.91,14.23C5062.28,1043.56,5062.28,1049.44,5060.35,1051.68Zm263.4-68.35c-7.58-2.24-21.49,3.17-20.95-9.27.31-8.66,9.82-18.48,21.41-16.62,16.55,2.7,34.87.3,49.1,16.46C5355,969.11,5341.53,988.52,5323.75,983.33Zm360.5,103.91c-5.1,9-1.16,23.12-1.24,34.94-53,8.82-81-4-96.94-45-9.9-25.43-1.47-43.22,25.28-48.4a139.93,139.93,0,0,1,49.48-.92C5692.06,1033.28,5700.26,1059.41,5684.25,1087.24Zm95.56-108.93c28.6-22.27,49.94-54.27,86.2-70.43C5859.51,951,5830.14,976.76,5779.81,978.31Z"/><path class="cls-4" d="M4943,980.6c-9.51-31.46-14.32-64.34-24.46-95.62l.08,0c-.29-.9-.61-1.78-.91-2.67-.37-1.12-.76-2.25-1.15-3.37q-2.4-6.9-5.26-13.67c-.36-.84-.74-1.67-1.11-2.5-1.93-4.37-4-8.71-6.26-13,0,0,0,0,0,0-.24-.45-.42-.92-.66-1.37q-6.56-16.53-13.12-33c-4.53-13.37-7.51-21.32-15.09-36-9.83-16.44-9.34-17.18-25.24-35.83-1.63-1.3-30.83-45-49.34-68.4,0,0,0,0,0,0-13.79-15.1-30.95-34.24-45-47.35l-.37-.36q-62.2-53.29-124.42-106.58a4.92,4.92,0,0,1-.55-.14c-28.15-20-42.81-29.72-78-49-13-7.29-9.79-6.55-25-15.74-12.67-6-7.21-3.48-23.91-10.62-14.37-5.54-14.37-5.54-34.47-10.35l-34.07-8.31c-10.93-.33-21.11,1.48-25.13,13.36-4.63,13.72,7.38,17.72,15.38,23.22,12.65,8.68,25.79,16.67,39,24.53,57.18,34.1,114.76,73.14,156,121.58,58.41,68.57,121.81,136.16,154.88,225.34,21.35,57.6,33.89,116.66,50.14,175.11s3.2,117.11.72,175.85c-2.4,56.91-17.65,111.47-38.38,162-41.6,101.43-99.08,192.86-186.13,265.46-45.81,38.22-92.56,75.14-139.83,111.28-52.32,40-117,54.41-177.27,77.8l14.9,2c-.78,1.55-1.57,3.1-2.34,4.65l-12.72-6.46c-49.55-3-88.77,25.53-131.55,43.18,296.18,25.91,564.23-153.75,689.22-384.67a1055.69,1055.69,0,0,0,77.66-183.84C4941.66,1179.46,4973.78,1082.39,4943,980.6Z"/><path class="cls-3" d="M7121.55,653.5c74.9,9,150.14,12.58,225.44,9.83,101.14-3.7,200.8,6.45,299.74,26.31l21.56,10.55c4.73,7.64,10.22,14.92,14.06,23,11.22,23.58,4.72,37.7-22.77,37.14-41.66-.86-83.17.15-124.54-9.91-49-11.91-99.82-4.74-149.79-7.85-77.81-4.86-155.88-5.31-233.77-9.16-82.89-4.09-165.74,5.41-247.56,11.55-75.14,5.63-151.55,7.77-226.64,13.6-63.94,5-130,16.39-195.91,9-44.73-5.06-88.16,3.91-131.94,19.5-29.47,10.49-64.91,3.07-97.79,11.22-73.75,18.27-132.42,64.92-197.58,99.3l-4.14-121.78c35.24,3.79,53.92-36.17,88.7-33.59,11,14.45,24.75,6.85,38.35,5.76,45.25-3.64,88.37-18.22,133.89-23.07,44.53-4.74,95-1.86,133.41-35.3l48.13-2.65,25.69-5.51,15.56-.39c87.93.74,175.49-4.78,262.75-15.45l23.6-3.16c95.38,7.84,190-9.36,285.2-8.44Z"/><path class="cls-5" d="M4919.23,1277.17q4.28,12.54,8.57,25.1c-1.13,40.73-24.58,75.06-32.66,113.79l-7.23,15.44c-11.25,13.73-19.52,29-24,46.27l-38.68,62.1-121.65,135.79-12.25,10.11-53.16,43.38-6.36,4.53-9,6.29-60.32,39.94-109,59.54c-290.18,78.73-576.12,61.46-847.61-64.5-175.88-81.61-279.76-235.62-336-420.41,21-6.82,39.85-17.19,56.35-32,8.38-7.55,16.17-16.89,29.85-14.17,45.6,9.06,90.78-7.71,136.82-1.23,53.8,7.56,105.46,4.57,128.76-58.17.36-1,2.06-1.44,3.14-2.14,12.58,38.76-18.13,61.93-32.72,90.91-38.8,20.52-79.81,8.4-109.57-10.77-40.93-26.38-79.87-12.59-119.69-12.48-17.33,0-27.58,10.8-17.66,31.37,10,20.77,16.2,43.4,26.52,64,46.63,93,91.19,190,177.27,252.74,162.4,118.42,349.72,167.61,548.26,179a4.06,4.06,0,0,0,5.33,2l10.39,2.14,39.44-.08c296.18,25.91,564.23-153.75,689.22-384.67A1056,1056,0,0,0,4919.23,1277.17Z"/><path class="cls-2" d="M6168.68,380.08c0,12.14-10.9,16.23-22.19,14.38-22.11-3.48-41.82,5.18-58.68,16.31-14.76,9.82-25.43,22.5-27.36,38.27v.23a30.66,30.66,0,0,0-.31,7.11V457l-1.7,39.51v.23l-5.8,133.67v1.47c-1,47.93-1.78,95.94-2.71,143.88q2.08,60.87,4.1,121.76c-4.87,34.56-2.94,69.12-1.16,103.67-46.39,6.73-92.7,11.6-138.54-3.09l-7-154.23c3.79-6,7-119.53,5.1-203.8l.08.08V478s11.37-82-100.89-82a111.19,111.19,0,0,0-17.78-1.32c-11.44,0-25.75,2.09-24.66-15.07,1-15.77,15-14.62,26.44-14.38,17,.31,33.94.61,50.94,1h309.64C6163.27,367.71,6168.6,371.73,6168.68,380.08Z"/><path class="cls-3" d="M3624.78,1246.79c-1.08.7-2.78,1.17-3.14,2.14-23.3,62.74-75,65.73-128.76,58.17-46-6.48-91.22,10.29-136.82,1.23-13.68-2.72-21.47,6.62-29.85,14.17-16.5,14.85-35.37,25.22-56.35,32l-35.48,2.43q-51.09-133-102.19-266.06l113.26-8.23,56.06-1.76,71.18-6.81c30.53-1,62,10.81,91.29-6.9,16.44-2.1,32.9-4,49.32-6.31,64.68-8.93,127.49,50.08,125.44,118.52C3638,1202.55,3634.71,1225.43,3624.78,1246.79Zm-154.49-88.12c-37-19.22-78-22.48-118.37-23.24-8.51-.16-19.77,20-25.17,32.78-2.79,6.61,72.52,16.92,72.71,9.1.63-26.64,17.69-15.17,28.19-13.4C3441.74,1166.3,3455.23,1168.12,3470.29,1158.67Z"/><path class="cls-6" d="M3175.43,1528.69c-4.95,15.77-3.48,35.64-31.15,34.94-29-.62-59.15-7.81-87.13,6.26-4.41,2.24-7.5,6.81-11.21,10.29-8.43-14.23-19.41-24-37.27-22.5-5.33-.31-10.59-.7-15.92-1.08q-65.64-16.12-131.2-32.32c-17.24-8.27-35.1-13.53-54.51-11.83-43.06-10.67-87.2,1.47-130.42-6-1.47-9.43-8-10-15.46-8.58-75.38-17.32-150.45-36-226.37-50.72-16.54-3.17-27.37-18.4-44.84-15.77-8.5-8.11-19.48-9-30.3-10.28l-39.59-10.9c-3.24-.93-6.49-1.78-9.74-2.71-9.35-3.55-18.48-7.73-27.52-12-24.66-11.6-49.09-23.89-77.08-26a87.23,87.23,0,0,0-10.13-.47c-9.58.08-11.13-19.25-25.28-15.3a37.1,37.1,0,0,0-4.79-3.25c-15.23-9.36-33.17-10-50.18-13.76-11.59-4.18-23.19-8.43-34.71-12.61-9.74-4.63-22.65.16-30.38-10.2-9.12-8-20.41-10.21-31.93-11.67-36.65-10.6-73.37-20.8-109.78-31.93-12.53-3.87-26.91-6.42-31.78-21.88.16,0,.39-.08.54-.08,62.55-11.29,120.3,13.61,179.67,25,145.27,27.76,289.92,58.45,435,87,17.4,3.4,35.8,1.39,53.73,1.94-2.78,10.59,3.95,12.83,12.22,14.53q223.7,45.93,447.17,92c47.54,19.79,101,15.85,148.05,37.73C3163.91,1511.52,3181.93,1508.12,3175.43,1528.69Z"/><path class="cls-2" d="M5056.51,1092.1c41.62-31.75,83.52-62.43,140.39-38.31q.78,18.84,1.55,37.69c-5.29,137.27-.18,274.47,6.3,411.5,4.08,86.19,28.15,104.86,117.59,107,13.07.32,33.57-5,32.77,14.23-.54,13-19.76,15.93-34.41,15.27-46-2-92-5.38-138-5.16-75.58.37-151.14,3.17-226.71,4.87-10.69.24-24.18,5-20.68-15.43,2.53-14.72,6.49-23.35,23.7-16.32,12.58,5.14,25.05,2.81,36.37-4.86,26.18-.24,37.12-15.68,39.53-39.63,33.51-153.54,17.2-309.16,19.45-464A7.23,7.23,0,0,0,5056.51,1092.1Z"/><path class="cls-2" d="M6193.37,1640.64c-117.71-3.85-235.38-12.27-353.17-1.51-10.17.92-20.53-.12-30.8-.25-9.38-.13-17-.72-17.46-14-.41-12.53,5.15-14.33,15.65-15.43,83.57-8.81,90.24-36.72,94.07-115.74l3.9-23.93c4.41-128.6,11.15-257.17,5-385.91q1.43-7.65,2.84-15.29c46-2.65,91,5.36,135.8,14.26,1.9,89.67,4.76,179.33,5.34,269,.33,52,3.18,103.89,5.65,155.83,3.59,75.89,37.19,108.39,113.45,100.86,16.51-1.63,21,.71,30.08,10.71C6202.51,1632.06,6203.46,1636,6193.37,1640.64Z"/><path class="cls-6" d="M6444.27,689.54c-38.46,33.44-88.88,30.56-133.41,35.3-45.52,4.85-88.64,19.43-133.89,23.07-13.6,1.09-27.38,8.69-38.35-5.76,16.46-18.34,41.34-12.17,61.1-21,36.44-16.28,73-32.26,109.53-48.37a39.78,39.78,0,0,0,25.54-13.21c55.91-43.72,118.46-78.59,170.34-127.7L6520,520.22l31.24-23.33c31.78-21.33,64.5-41.43,90.74-69.95,15.81-10,35.39-15.76,41.72-36.59l.79-1.26c20.77.35,30.14-17.69,44.55-27.6a154,154,0,0,0,44.73-33.89L6804.05,302c25.55-6.06,42-26.41,62.86-39.9,5.32-13.74,22.7-10.2,30.08-21l16.5-10.47,6.62-5.12c10.73-1.22,12.36-7.06,8.09-15.9,38.16-21.74,77.54-41.35,112.54-68.42,18.36-14.2,38-26.71,57.1-40,12,3.49,17.44-5.61,24-12.56,37.44-28.88,70.14-65.84,121.43-71.05,3.33,7.46,8.23,13.36,16.11,16.32,11,22.94-5.15,36.39-17.87,51-12.68,1.73-20.5,11.11-29.47,18.69l-25.79,18.65a207.26,207.26,0,0,0-57.68,40.25c-45.57,22.73-84.54,54.8-123.24,87.24-8.62,1.49-12.87,8.33-17.72,14.45l-153,99.45-30.66,23.38c-25.6,5.65-34.43,32.39-55.3,44-20.33,8.28-31.79,27-47.64,40.53-15.85,25-47.94,30.08-65.32,53.22q-5.17,2.8-10.37,5.59l-60.91,42.72-31,23.32c-7.83,6-19.46,8.63-19.1,22,0,.2-.25,2-.25,2-10.37,3.4-20.37,7.43-27.46,16.32C6467.6,650.44,6445,661.17,6444.27,689.54Z"/><path class="cls-2" d="M5313.7,379c-.54,12.13-8.74,14.3-20.57,16.31A136.62,136.62,0,0,1,5276,397c-70,0-75.22,22.81-75.22,22.81V526.19c-7.66,123.78-1.08,247.94-4.56,371.79l-142.49-8.35c.47-139.62,6.11-279.24-3.09-418.95-2.78-42.44-27.91-62.39-62.93-67.49-17-2.47-33.4-9.66-51.26-9-8.27.23-23.19,4.41-22.26-12.37.69-12.29,10.36-16.93,21.8-16.7,34.63.62,69.19,1.16,103.75,2.32,59.91,2,119.91,8,179.59-3.56h15.62c19.09.39,38.19.46,57.29,1.32C5301.72,365.54,5314.4,363.77,5313.7,379Z"/><path class="cls-6" d="M2359.72,829.49c5.11-14.62,10.28-29.23,15.39-43.84-8.66-2.78-15.46,2.24-20.8,7-38.34,34.09-78.31,65.4-125.94,86.12-14.15,6.11-26,18.25-30.46,33.17-5.95,19.94-18.71,23.5-37.26,25.28-99,9.66-198,20.48-296.88,31.77-20.56,2.32-44.45-1.93-58.29,20.64-40,11.68-77-5.87-115.19-11.9-36-5.72-71-15.93-108.32-14.07-11.75.62-26.82-7.81-35.25-20.41,22.42-22.66,52.26-9.74,78.24-16.08,65.79-16.16,133.52-21.26,200.54-30.15,5.26-.7,10.6-1.4,15.85-2.17,15.31-2.16,30.62-4.41,45.85-6.57,5.56-.62,11-1.16,16.54-1.78,68.65-10.36,137-24.35,206-30.23,75.45-6.41,124.78-56.82,181.68-95.24,15.15-10.21,30.38-20.26,45.61-30.31,6.42-4.41,12.84-8.81,19.18-13.22,3.24-2.47,6.41-4.95,9.66-7.5v-.31c2.78-2.09,5.64-4.17,8.42-6.18,5.18-2.17,10.44-4.33,15.62-6.42,3.4-5,6.81-10,10.13-14.92a63.87,63.87,0,0,0,21.49-23.43Z"/><path class="cls-2" d="M3942.85,448.94c4.17-22.28-.29-43.94-4.76-65.61,2.45-6.63,3.27-13-2.5-18.57-14.76-44.32-21.84-89.1-6.85-134.86,2.22-6.76,6.51-12.84,9.85-19.23,5.5-4.12,5.74-10,5.4-16.07,20.25-17.55,8.57-49.81,32.2-66.93,17.67-12.81,24-17.63,31.74,9.79,10.35,36.73,11.32,74.75,21.48,111.15l1.44,15.73c4.07,35.31,7.83,70.68,21.94,103.9,8.12,59.51,16.52,119,24.18,178.49,2.34,18.22,8.61,20.62,24.66,11.81,19-10.42,39.74-17.6,59.56-26.54,6.3-2.84,12.32-4.73,17.33,1.21,5.72,6.78-.52,11.31-4,16.3-48.35,68.87-190,102.06-262.53,61.24-6.37-3.59-14.15-6.78-14.16-16.39,0-10.53,8.62-13.53,15.53-13.73,46-1.37,42.87-31.86,38.69-63.33Q3947.5,483.12,3942.85,448.94Z"/><path class="cls-6" d="M6049.21,1082.89c-44.83-8.9-89.76-16.91-135.8-14.26l-13.86.38c-23.11-5.34-46.24-.47-69.37-.13l-23.14-4.43c32.47-27.47,61.64-60.28,107.33-66.37,45.84,14.71,92.14,9.87,138.48,3.15,40.43,1.94,82.36-9.5,114.78,32.44,9.76,12.63,43.27,8.51,66,9.21,58.62,1.82,117.29,2,175.94,2.9l.69,14.68c-45.63,30.56-98.41,27.4-149.54,31.09C6189.94,1096.65,6119.92,1080.75,6049.21,1082.89Z"/><path class="cls-7" d="M4097.19,1841.57c-198.54-11.41-385.86-60.6-548.26-179-86.08-62.77-130.64-159.73-177.27-252.74-10.32-20.59-16.52-43.22-26.52-64-9.92-20.57.33-31.33,17.66-31.37,39.82-.11,78.76-13.9,119.69,12.48,29.76,19.17,70.77,31.29,109.57,10.77,29.17-8,40.29,3.12,53,32.07,34.37,78.35,73.76,156.9,135.7,216.42,76.53,73.55,149.6,154.34,256.76,188.19,18.3,5.78,34.82,18.32,54.29,25C4111.91,1806.36,4120.71,1824.22,4097.19,1841.57Z"/><path class="cls-4" d="M4112.91,1845.76l-10.39-2.14Z"/><path class="cls-6" d="M2676,534.54c-40.2,13.84-66,48.09-100,70.82-10.28-34.87,16.62-58,27.06-86.36,5.34,13.3,10.59,4,15.62-.15,12.29-10.13,24.51-20.41,36.72-30.69,18.4.62,33.94,6.34,16.93,26.05C2661.55,526.66,2676.47,527.74,2676,534.54Z"/><path class="cls-7" d="M3372.69,1074.11l-71.18,6.81c-.52-14.45-10.26-35,6.29-41.06,21.21-7.77,45.7-.52,66.48,8.24C3385.48,1052.81,3380,1065.63,3372.69,1074.11Z"/><path class="cls-1" d="M4284.06,1802.29l14.9,2-2.34,4.65-12.72-6.46Z"/><path class="cls-3" d="M5614.11,1065.39c2.57-2.9,3.15-4.21,4-4.38,18.88-4,34.91.69,46.65,16.5a7.47,7.47,0,0,1-4.19,12.07C5637.9,1094.66,5627.63,1077.56,5614.11,1065.39Z"/><path d="M4147.31,1986.75c0,6.88-3,12.37-8.89,16.47s-14.92,6.26-27.06,6.26H3961.14v74H4086.7c11.59,0,20.33,2,26.05,6s8.58,9.36,8.58,16.08-2.86,12-8.73,15.93-14.46,5.95-25.9,5.95H3961.14v131h-76.22V2000.21q0-12.64,4.87-20.65t15.3-11.59c6.88-2.48,15.77-3.71,26.6-3.71h179.67c12.14,0,21.18,2.09,27.06,6.26S4147.31,1980,4147.31,1986.75Z"/><path d="M4627.8,1988.53c0,7.27-3.33,13.07-9.82,17.47s-16.24,6.65-29.22,6.65h-83.19v245.77h-76V2012.65h-83.19c-13,0-22.65-2.24-29-6.65s-9.51-10.2-9.51-17.47c0-7.5,3.33-13.37,9.9-17.7s16.16-6.57,28.6-6.57h242.38c13.14,0,23,2.24,29.37,6.72S4627.8,1981.34,4627.8,1988.53Z"/><path d="M5103.41,2230.44v28H4813.34v-32.16l.7.08a51.3,51.3,0,0,1-.7-8.73v-217.4q0-12.64,4.87-20.65c3.25-5.33,8.35-9.19,15.23-11.59s15.78-3.71,26.6-3.71h201.24c12.14,0,21.18,2.09,27.06,6.26s8.89,9.51,8.89,16.23c0,6.88-2.94,12.37-8.89,16.47s-14.92,6.26-27.06,6.26H4889.57v71h158.1c11.6,0,20.33,2,26.06,6s8.58,9.36,8.58,15.93-2.78,11.91-8.43,16.08-14.38,6.19-26.21,6.19h-158.1v82.26h177.58c12,0,21,2.16,27.14,6.41S5103.41,2223.32,5103.41,2230.44Z"/><path d="M5633.23,2256.88l-24.36-42.14-1.47-2.55a249.17,249.17,0,0,0-21.1-30.38,260.2,260.2,0,0,0-33-34.4,137.9,137.9,0,0,0-38.74-24.51c32.16-5.41,56.21-14.54,72-27.45s23.73-30.07,23.73-51.64a66.07,66.07,0,0,0-7-29.92,73.66,73.66,0,0,0-20.64-24.74,99.27,99.27,0,0,0-31.31-16.39,140.42,140.42,0,0,0-32.86-6.8c-12.14-1.09-26.83-1.7-43.91-1.7h-124c-16.39,0-28.3,2.86-35.64,8.5s-11.06,14.77-11.06,27.45v258.21H5380V2129.78h26.67q20.29,0,33.63,4.17c8.89,2.79,17.71,7.89,26.37,15.39s18.4,18.4,29.38,32.78l30.53,39c3,3.79,5.72,7.27,8.12,10.28l16.62,22.42,3.41,4.56h79.32Zm-138.7-172.71c-12.53,2.39-27.91,3.63-46.23,3.63H5380v-79.55h70.36c26.2,0,43.68,1.47,52.64,4.4q14,4.53,22,13.69a31.3,31.3,0,0,1,8,21.18c0,10.28-3.32,18.32-9.9,24.2S5507.05,2081.69,5494.53,2084.17Z"/><path d="M6314,1621.69c2.47-4.33,5.18-9.66,8.11-15.92Zm235.64-35.17-3.17-6.27,9.67,20.26C6554.54,1596.41,6552.38,1591.77,6549.67,1586.52Z"/><path d="M6556.17,1600.51l-9.67-20.26-83.26-166c-4.1-8.58-7.42-15.47-10.05-20.65a72.28,72.28,0,0,0-9.74-14.45,42.46,42.46,0,0,0-15.08-11.06c-6.26-2.86-14.07-4.25-23.35-4.25s-16.93,1.39-23.19,4.25a42.33,42.33,0,0,0-15.08,11.21,86.57,86.57,0,0,0-10.82,17.4c-3.4,7-6.34,12.91-8.74,17.93l-78.31,160.5-.47.93-33.47,63.78h69.89l8.73-17.32.47-.85,8.11-15.92,15.85-34.18h134.52l14.23,30.23,1.55,3.25,16.08,34.79H6575Zm-200.63-69.58,49-110.09,49.86,110.09Z"/><path d="M7000.24,1599.5q-7.08-13.56-19.87-30.38a243,243,0,0,0-29-31.78,120.3,120.3,0,0,0-34.1-22.57c28.3-5,49.41-13.45,63.32-25.28s20.88-27.83,20.88-47.7a63.74,63.74,0,0,0-6.19-27.6,67.46,67.46,0,0,0-18.17-22.89,88.82,88.82,0,0,0-27.52-15.07,114.18,114.18,0,0,0-28.91-6.26c-10.67-1.09-23.58-1.55-38.58-1.55h-109c-14.46,0-24.9,2.55-31.39,7.81s-9.74,13.68-9.74,25.28v238.35h67V1521.11h23.5c11.91,0,21.72,1.31,29.53,3.87s15.54,7.26,23.2,14.14,16.15,17,25.82,30.23l26.83,36.11c2,2.7,3.86,5.18,5.64,7.42l.93,1.24,18.09,25.74h70.2ZM6899.66,1479c-11,2.24-24.51,3.4-40.59,3.4H6799V1409h61.85c23,0,38.5,1.31,46.31,4,8.27,2.78,14.76,7,19.4,12.6a30,30,0,0,1,7,19.56c0,9.51-2.86,16.93-8.66,22.34S6910.71,1476.73,6899.66,1479Z"/><path d="M7225.8,1399.35l74.93,179,75.16-180.23q5.86-14.19,8.8-19.75a28,28,0,0,1,9.71-10q6.77-4.45,18.5-4.46a36.84,36.84,0,0,1,15.92,3.46,29.4,29.4,0,0,1,11.51,9.19,19.54,19.54,0,0,1,4.17,11.56,31.13,31.13,0,0,1-1.35,8.65,66.55,66.55,0,0,1-3.39,9.1q-2,4.45-4.06,9.19l-80.12,174.4q-4.31,10-8.58,19a76,76,0,0,1-9.93,15.84,42.37,42.37,0,0,1-15,11.2q-9.37,4.36-22.91,4.37t-22.91-4.28a41.31,41.31,0,0,1-15.12-11.29,78.43,78.43,0,0,1-10-15.93q-4.31-8.91-8.58-18.93l-78.77-172.94q-2-4.73-4.18-9.28a63.27,63.27,0,0,1-3.61-9.83,34.78,34.78,0,0,1-1.47-8.93q0-9.27,9.26-16.92t23.25-7.65q17.15,0,24.26,8.46T7225.8,1399.35Z"/><path d="M7873.31,1614v25.9H7618.26V1401.51c0-7.73,1.39-14.07,4.26-19s7.34-8.5,13.45-10.75,13.91-3.32,23.35-3.32h177c10.67,0,18.63,1.86,23.81,5.72a17.78,17.78,0,0,1,7.81,15,18.1,18.1,0,0,1-7.81,15.23c-5.18,3.79-13.14,5.72-23.81,5.72h-151v65.56h139c10.28,0,17.86,1.86,23,5.49a17.44,17.44,0,0,1,7.5,14.69,17.91,17.91,0,0,1-7.43,14.84c-4.94,3.79-12.6,5.72-23,5.72h-139v75.92h156.17c10.51,0,18.48,2,23.81,6A18.52,18.52,0,0,1,7873.31,1614Z"/><path d="M8301.42,1555.18a67.78,67.78,0,0,1-15.46,43.5q-15.47,19.3-45.26,30.22t-70.64,10.93q-49,0-80.8-14.93-22.58-10.74-36.68-28.67t-14.11-34.86q0-9.84,8.47-16.84t21.55-7q10.61,0,17.95,5.46t12.52,16.2a102.45,102.45,0,0,0,13.66,21.3q7.32,8.57,20.65,14.11t35,5.55q29.81,0,48.42-11.19t18.62-28a26.62,26.62,0,0,0-10.05-21.57q-10-8.28-25.95-12.65t-42.55-9.29q-35.67-6.73-59.7-15.74t-38.14-24.58q-14.11-15.57-14.11-38.68,0-22,14.9-39.14T8102.8,1373q28.21-9.19,66.36-9.19,30.47,0,52.7,6.1t36.9,16.2q14.67,10.11,21.44,21.21T8287,1429q0,9.64-8.46,17.39t-21.1,7.73q-11.52,0-17.5-4.64t-13-15.2q-9-15.1-21.67-23.57t-40.63-8.47q-25.95,0-41.87,9.19t-15.91,22.12a19.64,19.64,0,0,0,5.42,13.84q5.42,5.82,14.9,10a114,114,0,0,0,19.18,6.55q9.71,2.37,32.05,6.92,28,5.28,50.67,11.65t38.6,15.47q15.9,9.1,24.82,23T8301.42,1555.18Z"/><path d="M8730.92,1390.76c0,6.73-2.86,12.06-8.58,16.16S8708,1413,8696.6,1413h-73.14v226.83h-66.8V1413h-73.13c-11.45,0-20-2.09-25.51-6.11s-8.35-9.43-8.35-16.16a18.93,18.93,0,0,1,8.66-16.39c5.79-3.94,14.22-5.95,25.2-5.95H8696.6c11.59,0,20.18,2,25.82,6.19S8730.92,1384.12,8730.92,1390.76Z"/><line class="cls-8" x1="6060.45" y1="449.27" x2="6060.14" y2="456.38"/><line class="cls-8" x1="6052.64" y1="631.88" x2="6052.48" y2="634.74"/><path class="cls-7" d="M3931.53,470.68c21.65,54-14.53,79.4-51.56,102.75C3795.23,626.85,3741,706.87,3688.78,788.9c-34.64,54.35-46.54,118.28-74.61,175.49-5.72,11.83-4.79,25.59-.31,37.73,12.91,35-3.94,42.52-35.17,43.14-41.6.77-83.11,5.18-124.71,8.12-28.22-19.79-26.28-53.27-36.64-81.1-4.25-11.52-3.33-26-22.81-10-18.48,15.07-42.06,4.25-63.24.7-14.92-2.48-12.14-12-9.2-23.2,29.92-114.57,84.42-214.07,174.42-293.09,28.83-25.35,55.43-53.34,82.18-80.86,5.41-5.49,14.45-14.07,4.48-23-7.42-6.65-14.23-.08-20.64,4-11.83,7.57-23.74,15.07-35.56,22.65a11.89,11.89,0,0,1-4.41,3.48l-7.19,6.57-17.55,16.08-.16.15-41.28,38-9.2,8.43-5.95,5.41-15.78,14.54A158.29,158.29,0,0,1,3437,644.25c1.77-2.55,3.71-5,5.71-7.5,2.94-3.86,6.19-7.65,9.51-11.52a505.75,505.75,0,0,1,40.59-40.74c2.55-2.32,5.18-4.64,7.81-7,9.74-8.58,19.56-16.78,29.15-24.51,5-4,9.89-7.88,14.69-11.59,8-6.27,15.69-12.07,22.65-17.17,8.89-6.57,16.7-12.21,22.81-16.54,3.71-.93,7.11-3.25,10.36-6.11l4.25-3.87.08-.07c31.85-15.54,63.93-30.7,95.55-46.7,62.78-31.85,131.58-46,197.45-68.73,10.36-.77,20.72-1.54,31-2.32,3.17,1.16,6.34,2.24,9.5,3.4,4.49,21.65,8.89,43.3,4.72,65.64C3934.94,454.06,3927.36,460.48,3931.53,470.68Z"/><path class="cls-7" d="M3604.51,497.74l-4.25,3.87c-3.25,2.86-6.65,5.18-10.36,6.11C3598.32,501.84,3603.66,498.29,3604.51,497.74Z"/><path class="cls-2" d="M2357.71,835.05l2-5.56c-.69,1.85-1.31,3.71-1.93,5.56Z"/><path class="cls-2" d="M2428.92,638.6a78.63,78.63,0,0,1-7.35,20.18Z"/><path class="cls-6" d="M1844.21,2150.58c-1.23,2-2.55,3.86-3.94,5.72A15.25,15.25,0,0,1,1844.21,2150.58Z"/><path class="cls-6" d="M2135.83,2198.66c-8.27-2.24-14.53-6.72-17.16-15.23Z"/><path class="cls-2" d="M2262.39,2240.8c-1,21.88-16.47,23.89-34.95,23.73-47.46-.38-95,0-142.48,2-49.48,2.09-96.87-13.29-147.59-9.27-97.25,7.73-195.36,4.71-293.08,7-19.25.39-41.29-1.62-40.44-22.19.7-18.09,22.42-24,42.29-23.58,54.89,1.24,107.7-7.73,156.33-34.86,15.15-5.8,28-14.54,37.72-27.22,0-.08,0-.08.08-.15,1.39-1.86,2.71-3.71,3.94-5.72,22.73-22.42,50.41-76.77,55.67-87.13.54-1.16.85-1.78.85-1.78l11.83-25.75.15-.46,252.81-685a37.1,37.1,0,0,1,4.79,3.25c14.15-4,15.7,15.38,25.28,15.3a87.23,87.23,0,0,1,10.13.47c28,2.16,52.42,14.45,77.08,26,9,4.25,18.17,8.43,27.52,12,3.25.93,6.5,1.78,9.74,2.71L2134.83,1957c-25.36,55.12-36.5,113.49-39.2,173.72-1,21.18,3.4,40.35,23,52.72,2.63,8.51,8.89,13,17.16,15.23,28.22,20.18,61.15,19.49,93.62,21.11C2244.3,2220.54,2263.47,2216.75,2262.39,2240.8Z"/></svg>