<svg id="Layer_1" data-name="Layer 1" xmlns="http://www.w3.org/2000/svg" viewBox="0 0 5931.43 2266.18"><defs><style>.cls-1{fill:#fff;}</style></defs><path class="cls-1" d="M4706.15,1937.82q-426.37,0-852.74-.14c-61.78-.07-90.51-29.59-91.22-90.81-.16-13.37.59-26.78-.18-40.1-.57-9.72,4.9-24.22-6.21-27.82-13.94-4.52-17,11.79-22.66,20.57-125.09,194-443,249.67-625.58,108.65-82-63.38-126.11-150-147.61-249.54-1.3-6-1.68-12.23-2.92-18.27-4-19.57-11.79-26.38-27.47-8.23a411.34,411.34,0,0,1-75.49,68.09c-84.4,59.12-172.85,74.24-266.33,21.71-14.25-8-26.63-6.93-40.85-.66-72.91,32.13-144.33,29.54-212.64-12.57-18.64-11.49-32.16-5-47.87,5-69.54,44.27-145.19,60.21-219.63,21.07-39.22-20.62-68.34-24-106.8-3.79-33.08,17.4-71.8,18.72-109,12.53-23.62-3.94-35.35,3.6-44.57,25.55-33.64,80-80.39,152.36-131.13,222.77-88.92,123.4-205.71,167.82-353.53,133.31-26-6.08-52.62-9.85-78.8-15.41-63.4-13.47-120.11.59-172.07,38.76-34,25-68.87,48.73-104.08,71.94-92.93,61.27-188.15,58.57-283.46,6.61-78.73-42.91-143.59-103.39-202.76-169.57-163-182.27-299.57-381.72-391.27-609.68-68.62-170.61-103-347.69-84.27-531.2C25.05,720.28,116.79,560.79,278,446c83.2-59.27,181.09-70.56,281.12-58.39,53.09,6.46,105.68,17,158.69,24.28,44.8,6.15,46.17,2.79,39.38-40.46-13.54-86.21-43.8-166.77-79.14-245.9-22.79-51-10.09-79.42,42.59-97.09C756.77,16.28,793.1,4.5,831.27.68c38-3.81,54.12,8.11,59.11,45.74,13,97.85,27.13,195.63,25.51,294.78-.18,10.82-4.34,25.26,7.27,31.11,14.24,7.17,21.52-8.34,30.21-15.78,143.5-122.72,304.2-174.34,489.91-115.34C1641.1,304,1776.88,434.11,1855.4,625.62c28.25,68.91,48.37,139.81,62.62,212.67,7,35.69,9.78,36.6,41.45,21.32,54.43-26.26,108.08-26.53,157,11.4,19.61,15.19,32.55,12.72,51.27-.76,58.59-42.19,133.59-38.66,187.62,9.43,22.27,19.83,32.61,12.16,43.8-9.49,44.92-86.9,94.8-170.89,151.69-250.53,22.09-30.92,44.82-61.87,76.81-83.75,54.92-37.57,118.61-36.49,173.09,2.1,45.31,32.08,69,99.41,52.36,157.35-10.19,35.47-24.47,69.81-37.67,104.37-6.37,16.66-5.2,27.47,15.18,31.12,43.78,7.84,81.88,26.88,112.66,59.54,8.49,9,18.62,12.63,30.75,8,12-4.54,14.11-14.53,12.53-25.28-21.41-145.94,102.61-286.17,281-292.41,59-2.06,117.67.41,174.61,16.47,29.08,8.21,53.59,3.88,79.47-10.43,123.22-68.14,255-103.29,396.51-100,137,3.16,243.42,77.72,281.25,200.25,14.31,46.33,23.37,94,10.87,142.79-5.31,20.76,0,30.55,22.92,23a9.16,9.16,0,0,1,3-.81c67.18,2.43,100.7-36.83,127.91-93.08C4399,686.72,4441.6,618.27,4499.42,561c55.47-54.92,126.91-65,188.42-25.82,37.13,23.62,57.27,58.15,61.34,101.82,3.61,38.72-4.7,75.54-17.85,111.76-21.39,59-42.2,118.14-62.87,177.36-2.88,8.24-10.45,19.23-1.15,25.46s16.31-5.31,23-10.83c85.12-69.84,178.11-114.58,292.49-94.48,57.52,10.1,103.76,37.84,138.75,84.42,16.82,22.39,22.4,22,35.28-3.65,51.28-102.15,107.25-201.6,172.87-295.32a678.44,678.44,0,0,1,58.2-71.83c52.57-56.72,125.16-67.55,187.39-29.64,60.68,37,85.38,109.66,60.7,180.72-10.46,30.11-22,59.86-33.72,89.51-6.86,17.35-2.9,26.63,16.31,30.63,87.51,18.2,141.92,70.59,161,158.33,3.31,15.26,12.54,21.59,27.14,25.2,85.91,21.27,121.46,70,124.54,158.5,3,86.15-29,160.89-67.47,234.2-51.74,98.67-108.24,194.19-192.43,269.82-12.75,11.45-16.12,25.44-16.08,41.52.11,43.2.38,86.4-.36,129.59-1,59.88-29.74,89.21-89.83,89.3Q5135.61,1938.26,4706.15,1937.82Zm687.44-899.49c-5.92-15.27.72-25.26,4.53-35.47q43.11-115.62,86.65-231.09c12-31.76,24.42-63.32,36.38-95.08,5.78-15.35,7.91-31.28-8.1-41.52-17.6-11.25-31.51-1-43.1,11.91A396.26,396.26,0,0,0,5440.78,683c-97,137.4-178.2,283.65-241.89,439.21-28,68.38-68.19,128.41-115.4,184.09-16.94,20-40,34-68.4,23.22-29.42-11.19-23.6-38.19-23.19-60.89.35-19.36,4.08-38.85,8.12-57.9,4.91-23.12,12.12-45.73,17.52-68.75,3-12.91,7-27.54-7.73-36.08-15-8.7-27.53-1.06-38.75,9.35-16.68,15.47-30.77,33.07-44.18,51.39-30.44,41.58-62.21,82.13-104.81,112.32-16.07,11.38-34.47,23.63-53.65,9.38-18.37-13.66-11.76-34.22-4.66-51.13,31.38-74.72,80.17-136.45,146.34-183.17,33.9-23.92,59.11-20.84,89.69,5.32,7.16,6.13,12.8,14.64,23.47,9.9,11-4.88,12.17-15.63,12.83-26.14,2.06-32.95-20.79-63.24-58.32-74-58.47-16.72-112-2.48-162,29.18-79.43,50.33-137.31,119.92-181.19,202.17-22.35,41.89-47.85,81.85-83.51,113.87-17.49,15.7-38.67,25.19-62.56,15.61-24.28-9.73-31.3-31.63-32.49-55.17a318.32,318.32,0,0,1,1.79-52.29c9.79-84.4,36.83-164.36,64.6-244,34.51-99.05,69.87-197.81,104.17-296.93,4.94-14.27,10.1-32-5.79-42.5-17.71-11.65-31,2.26-42.83,13.68-30.74,29.53-52.89,65.51-74.95,101.48C4464.26,817.43,4431,883.58,4398.16,950c-6.2,12.56-12.56,24.17-30,19.42-91.84-25-161.61,17.53-227.07,73.84-66.21,57-108.3,131.11-149.17,206.32-13.74,25.27-27.71,50.78-49.88,70-14,12.19-30.71,17.22-48.87,10.69-19.35-7-25-23.58-25.55-41.93a182.57,182.57,0,0,1,2.8-39.85c10.45-53.54,23-106.56,44.18-157.14,3.56-8.5,6.91-17.25,8.91-26.21,3.09-13.82,1.71-27.09-12-35.25s-26.21-3.28-37.18,5.37c-7.15,5.64-13,13.06-18.85,20.19-50.17,61.26-85.13,131.29-112.16,204.78-25.43,69.13-32.19,140.77-3.53,211.15,27.19,66.78,85.65,82.91,145.61,42.22a223.46,223.46,0,0,0,58.7-58.48c12.27-17.75,19.67-16.81,28.44,4,26.55,62.88,71.74,82.58,134.33,57,58.93-24.1,102-68.29,139-118.8,8.47-11.56,5.27-30,22.69-40,8.27,29.1,8.64,57,18,83.11,32.88,91.89,128.1,122.27,207.39,65.4,21.05-15.11,38.47-34,54.74-54.07,6.95-8.57,11.57-23.32,23.44-22.27,14.33,1.27,10.5,17.83,13.68,27.74,15.63,48.71,53.26,73.32,103.88,66.85,55.21-7.06,123.61-69.88,136.23-124.47,3.1-13.42,2.77-28.54,17.29-41,2.62,30.5,2.82,58.93,7.84,86.5,16.1,88.41,86.33,116.73,160.77,65.8,31.89-21.82,56.09-51,78.84-81.83,9.25-12.54,13.92-36,31.88-32.89,14.05,2.48,8.35,25.11,12.92,38.35,6.08,17.65,13.35,34.55,24.93,49.29,28.77,36.63,79.22,49.26,119.39,30.37,13.34-6.27,24.1-15.18,18.81-30.82-22.81-67.37-5.41-132.75,10.93-197.28,22.7-89.59,76.14-160.81,144.29-221.6,9-8,20.76-19.71,32.29-11.24,12.32,9,1.64,22.76-2.61,33.72-7.05,18.2-15.16,36-22.84,54-22.63,52.93-47.23,105.07-63.06,160.71-14.55,51.12-23.84,102-5.91,154.51,23.3,68.25,81,94.84,147.16,65.84,28.65-12.57,52.47-32.38,74.11-54.67,68.32-70.37,114.46-155.29,158.1-241.78q13.2-26.16,24.69-53.16c5-11.74,8.09-25.25-5.28-33.12-14.8-8.71-22.4,3.66-29.21,14.09-11.25,17.23-21.36,35.23-33.18,52-32.7,46.49-67.61,91.12-119.73,117.75-13.44,6.87-29.23,14.74-43.41,2.51-12.86-11.1-7.85-26.62-4.84-40.58,6.76-31.39,20-60.36,33.48-89.34,20.38-43.81,41.91-87.29,58.93-132.42,28-74.31-19.29-127.84-97.72-112.24-37.84,7.52-72.13,24-103.47,46.53C5432.56,1011.12,5413.54,1024.28,5393.59,1038.33ZM1603.24,1405.42c-40.72,85.25-85,162.45-148.87,226.09-26.28,26.17-65.35,21.53-91.54-5.25-21.3-21.77-35.49-48.35-43.12-77.46-30.89-117.73-48.28-237.74-58-358.92-.77-9.56-4.69-22.57,7.6-27.31,10.16-3.92,15.85,6.73,22.6,12.81,18.94,17.07,32.63,13.71,39.48-11.06,9-32.45.17-62.19-23-85.27-15.78-15.76-16.55-29.5-10-49.38,37.81-114.65,86-224.6,143.81-330.57,19.32-35.44,8.13-56.79-31.65-63-34.79-5.46-67.09,1.74-98.14,18.78-77.12,42.33-138.49,102.87-196.64,167.2-69,76.39-131,158.59-195.93,238.38-10.86,13.35-22.61,23.06-40.78,24.49-47.32,3.74-94.72,6-141.95,1.36-35.08-3.42-70-11.36-97.17-35.45-19.59-17.36-30.81-9.68-41.31,8.06a93.39,93.39,0,0,0-12.41,37.84c-6.87,62.5,36.61,109.8,110.37,119.42,43.21,5.64,86.65,5.65,129.22-3.24,80.6-16.83,160.79-35.63,241.17-53.54,8.52-1.9,17.18-7.35,27.23.9-13.65,24-15,50.77-15.11,77.54-.22,48.33-1.89,96.79.85,145,6.84,120.52,23.27,239.55,65.2,353.72,20,54.32,48,102.63,101.68,130.78,99.79,52.29,206.38,36.86,287.09-41.34,35.26-34.17,61.47-74.87,81.33-119.15,76.73-171.11,142-346.46,188.22-528.36,14.42-56.73,27.64-114,29.58-173.05.51-15.57,1.23-32.77-17-39.2-19.9-7-31.27,7.58-39.45,21.9-21.42,37.49-41.49,75.75-61.89,113.82-30.62,57.13-59.35,115.63-106.64,161.59-19.31,18.77-42.62,39.81-70.52,27-30.35-13.92-21.85-45.62-18-71.69,9.91-67.11,42.6-126.26,67.62-188.09,8.17-20.19,27.22-44.84,3-61.28-25.46-17.26-43.56,8.91-58.61,25.74C1445.05,1092,1385.88,1203.91,1352,1329c-9.71,35.79-15,72.74-9.64,110,11.68,81.89,83.27,112,150.3,63.36,31-22.49,56.9-50.47,82.59-78.62C1581.23,1417.13,1584.84,1407.6,1603.24,1405.42ZM3455.89,867.05c25.69,2.67,44,4.18,62.28,6.54,130.49,16.91,259.39,48.59,392.38,42.21,14.89-.71,20.6,6.38,19.73,20.47-.51,8.21-1.22,16.46-.85,24.65,1.45,32.66,16.35,40.69,43.56,22.38,35.57-23.94,61.33-57.2,86-91.76,39.6-55.48,31.53-116.62,22.64-177.58-2.82-19.36-15.55-35.62-29.07-50.16-40.87-44-93.7-58-151.08-58-131.36.18-251.35,40.68-362.23,108.4-27.21,16.62-50.52,19.72-80.79,10.81-77.52-22.82-156.5-38.27-237.26-16.1-52.63,14.45-92.71,44.61-110.45,98.17-9.71,29.32-10.19,59.19,8.65,85.74,13.79,19.43,31,26.27,52.36,9.14,40.49-32.49,88.62-41.79,138.8-43.93,8.8-.37,20.43-3.59,25.09,6.58,4.85,10.62-6.31,16.07-12.28,22.49-79.75,85.79-146.77,180.17-194.19,287.66-53.63,121.54-78.3,247.43-46.92,378.85,26.32,110.22,92.65,186.79,207.31,207.68,96.24,17.53,188.67.59,271.45-55.7,63.91-43.47,101.06-104.07,115.49-179.15,5-25.83,4.37-51.6-9.85-74.76-11.74-19.12-27.55-26.28-44.65-6.4-45.82,53.25-107.24,66.08-172.81,66.63-90.77.75-144.23-52.66-144.72-143.71-.34-65,18.56-125.79,43.59-184.89,38.89-91.79,92.93-173.89,159.66-247.88,28.26-31.34,27.51-32.54-13.1-48.05C3483.44,883.13,3470.69,881.82,3455.89,867.05ZM2052,1372.08c5,31.64,7.33,57.87,13.6,83.1,18.35,73.87,77.36,99.86,144.5,64.25,37.26-19.76,63.54-51.4,89.15-84,11-13.94,15.75-41.56,34.91-38.22,16.92,2.94,10.83,30.14,16.49,46.12,22.63,63.85,83.05,95.87,138.51,72.46,19.26-8.13,27.89-20,20-41a138.22,138.22,0,0,1-8.66-54.49c5.3-135.58,53.51-252.22,154-345.38,12.24-11.36,26.89-32.77,43.17-20.73s-.76,32.41-7.3,47.29c-30.63,69.66-62.23,138.86-84.06,212-12.91,43.25-16.74,86.76-6.08,130.89,19,78.53,87.49,110.1,159.68,73.69,23.19-11.71,43.41-27.79,61.42-46.23,84.11-86.12,137.28-191.7,187.18-299.21,5.3-11.42,8.43-25.49-5-33.1-16.12-9.12-24.66,4.35-31.45,15.86-18.84,31.94-38.58,63.28-62.56,91.61-25.31,29.89-51.59,59.16-88,76-13.72,6.35-29.3,14.8-43.78,3.67-14.91-11.47-9.27-28.31-5.5-43a280.26,280.26,0,0,1,15.27-43.57c16.64-37.61,34.67-74.6,51.11-112.29,13.11-30.06,29.53-59.07,34.47-92.12,6.71-44.94-21.54-81.35-66.74-86.34-18.59-2-36.76.26-55,5.12-47,12.56-84.91,40.94-123.42,68.51-6.46,4.62-13.52,13.65-21.34,8-8.19-5.93-1-15.33,1.7-22.55q38.18-102.63,77-205c15.36-40.35,31.85-80.28,47.1-120.67,6.21-16.46,12.77-35-6.45-47.24-20.78-13.19-34.5,2.29-47.6,15.71A161.45,161.45,0,0,0,2664.63,668c-98.16,131.88-175.77,275.52-240.76,426-27.45,63.53-56.51,125.64-99.18,180.51-17.06,21.93-34.36,44-61.72,54.32-30.69,11.56-53.81-2-57.79-34.25-2.55-20.64.33-41.1,4.93-61.23,9.38-41.11,20-81.87,34.41-121.6q18.95-52.18,36.31-104.93c4.77-14.43,4.66-29.34-9.82-38.66-15.61-10-30.3-4.12-41.72,7.83s-22.15,24.57-30.7,38.45c-39.38,63.88-77.72,128.39-116.79,192.45-15.53,25.46-31.67,50.71-54,71-11.53,10.46-24.59,20.67-41.48,12.45-14.82-7.22-17.59-21.77-18.11-36.69-.75-21.71.89-43.06,7.66-64a1422.77,1422.77,0,0,1,60.82-154.91c9.6-20.89,31.45-47.66,3.5-66.23-25.51-17-43.44,10-58.34,26.9C1893.43,1096,1831.76,1211,1799.62,1341.19c-8.39,34-12.18,69-6.13,104.08,11.33,65.61,63.29,95.84,126,73.08,38.2-13.85,66.56-40.76,89.11-73.42C2023.42,1423.53,2035.43,1400.21,2052,1372.08Zm-1716.19,19c-2.15,171.63,137.25,272.73,285.63,206,44.39-19.95,81.76-51,116.63-85.06,81.15-79.29,139-175.34,197.59-271,4.71-7.69,14.09-16.16,8.17-24.7-7.4-10.68-19.18-2.46-28.3.14C867,1230.36,818.65,1244.72,768,1248.4c-14.5,1.06-24.48,9.91-34.08,19.38a416.76,416.76,0,0,1-88.72,66.46C557,1383.78,448,1381.71,394.89,1273.12c-10.43-21.32-20.48-20.74-31.51-.92C342.81,1309.18,336.06,1349.38,335.84,1391.08Zm4456,379c0,8.33-.55,16.6.13,24.77,1.11,13.25.81,29.2,20.13,28.37,17.35-.74,16.43-15.51,16.87-27.78.65-18.48.24-37,1.35-55.46.6-10.07,6-18.08,17.48-17.65,13.82.53,12,11.05,11.74,20.39-.26,8.21-1,16.53,0,24.62,4.81,39.71,38.55,64.73,82.23,61.49,39.2-2.91,68.29-35.14,67.37-74.64-.85-36.68-31.52-66.47-70.4-68.34-20.21-1-38.74,4-55.4,15.62-7.83,5.48-14.3,9.62-24,.3-25-24-61-20.79-83.22-8.54-22.95,12.66-34.33,8.15-52.93-.93-32.1-15.67-70.92-5.11-88.4,21.27-19.82,29.91-16.05,74,8.28,96.77,23.34,21.85,67.95,23.4,94.58,3,17.54-13.48,30.28-32.5,22.58-53.25-8.33-22.46-32.28-11.53-49.41-11.37-15.7.14-22.68,9.6-12,24.62,3.84,5.4,13.72,9,6,17.16-6.27,6.7-15.42,5.75-23.21,2.53-15.23-6.32-20.38-19.4-20.79-34.81s4.88-35.43,18.95-34.49c33.47,2.23,66.94-1.74,99.59,1C4801.11,1726.54,4788.3,1754.22,4791.83,1770.11Zm661,21.09c-3.91-22.88-8.86-52.16-13.91-81.41-1.92-11.1-7.31-19.15-19.56-20.32-12.61-1.2-22,3.45-27,15.55-1.56,3.78-2.81,7.73-4.68,11.36-4,7.86-4.94,20-16.5,19.55-9.32-.38-11-10.92-14.31-18.25-1.26-2.79-2.3-5.69-3.34-8.59-4.6-12.79-12.57-21-27.26-20.08-16,1-19.53,12.74-21.64,25.42-4.54,27.27-9.12,54.55-13.21,81.89-1.69,11.25-3.46,24.22,12,27.08,16.21,3,20.57-9,23.74-21.9,2-8.37-1.5-22.25,9.68-23.27,12.59-1.15,12.28,13.94,16.76,22.42,4.2,8,5.22,19.23,16.33,20.34,13.75,1.38,14.53-12,19.55-20.23,4.49-7.35,4.3-20.46,16.7-18.57,9.75,1.49,8.89,12.53,10.47,20.2,2.71,13.23,7.48,24.52,23.7,21.88C5456,1821.71,5454.19,1809.14,5452.83,1791.2Zm-1061.6-6.14c-3.59-22.23-7.84-48.52-12.09-74.8-1.78-11-6.39-19.64-18.71-21.17-12.67-1.57-22.07,3.26-27.24,15.18-2.85,6.58-5.17,13.39-8,20-2.46,5.69-5.37,11.73-12.54,11.92-7.49.2-9.84-6.33-12.33-11.89s-4.72-11.36-6.81-17.14c-4.33-11.93-12.14-18.43-25.44-17.84-14.22.62-19.32,9.82-21.55,21.82-4.68,25.18-9.95,50.28-13.41,75.62-1.65,12.09-8.63,29.47,10.31,33.5,20.43,4.34,21.42-13.63,24.55-27.6,1.68-7.46-1.22-19.08,9.53-20,10.19-.88,10.72,10.55,13.72,17.81,1.57,3.77,2.36,7.85,3.79,11.69,3.2,8.65,5.82,18.69,17.44,18.63,9.93-.06,12.61-9.17,16.22-16.42,2.29-4.59,4.09-9.43,6.62-13.87,3.42-6,5.9-15,14.77-12.82,6.38,1.58,6.26,9.71,7.63,15.65,2.92,12.61,2.85,29.9,22.07,26.48C4397,1816.69,4390.84,1800.9,4391.23,1785.06ZM5159.39,1756h-.34c0-16.39.42-32.78-.15-49.14-.37-10.51-6.13-17.49-17.33-17.6-10.88-.11-17.25,6-18.33,16.7-.93,9.16-.88,18.41-1.64,27.59-.51,6.06-.86,13.73-8.39,14.35-4.1.33-9.71-3.43-12.74-7-12-14-22.09-29.76-35.05-42.71-15.8-15.79-39.75-12.09-41.1,6.27-2.55,34.59-1,69.52-.32,104.29.19,9,6.74,14.91,16.39,15s15.66-5.4,16.86-14.54c1.33-10.11,1-20.42,1.72-30.63.33-5-.36-10.92,5-13.57,7.24-3.57,11.53,2.42,15.33,6.77,12.79,14.66,24.59,30.19,37.75,44.48,8.35,9.07,19.82,10.74,31.24,6.08,10.33-4.2,10.88-14,11-23.38C5159.56,1784.67,5159.39,1770.33,5159.39,1756Zm-556.84,2.29c0-7.17,1.06-14.53-.21-21.47-2.84-15.46,9.9-41.41-14.94-43.15-27-1.89-15.15,25-18.62,40.06a22.09,22.09,0,0,0-.15,3.06c-.52,6,.25,13.43-6.57,15.93-7.11,2.6-10.9-4.13-14.64-8.64-11.76-14.2-22.75-29-34.85-42.94-7.95-9.13-18.86-12.7-30.7-8.77-12.17,4-12.54,15.14-12.69,25.43-.31,21.49-.86,43,.21,64.49.71,14.11-6.21,36.34,15.48,37.32,25.31,1.15,15.86-22.82,18.5-37.31.36-2,0-4.1.16-6.13.57-5.89-1-13.37,6.63-15.47,6.88-1.89,11.35,3.57,15.1,8.39,10.05,12.94,19.6,26.27,29.75,39.11,8.94,11.32,20.41,17.6,35,12.46,13.83-4.86,11.95-17.59,12.4-28.59C4602.89,1780.82,4602.54,1769.54,4602.55,1758.28Zm867.75-.84c.88,69.47,7.13,76.59,58.66,68,10-1.68,18.25-4.47,18.91-16.2.6-10.63-6.33-14-15.46-15.29-6.83-1-16.18-.14-17.18-9.4-1.08-10.14,8.73-9.65,15.29-11.31,9.07-2.29,15-7.11,14.47-17-.41-8.33-5.84-12.6-13.6-14.54-6.79-1.7-16.44-1.61-16.72-10.6-.36-11.82,10.85-9.88,18.38-11.44,9-1.87,15.8-6.14,15.27-16.15-.65-12.28-10.1-13.45-19.87-14.54-52.84-5.92-58.32-1-58.16,53.08C5470.31,1747.16,5470.3,1752.3,5470.3,1757.44Zm-1313.52-67.63c-34-.64-41.1,1.89-42.34,22.17-1.81,29.67-.79,59.54-.2,89.31.19,9.57,3.85,18.77,15.51,19.73,12.16,1,16.25-6.6,16-17.44-.13-6.18-1.3-13.33,6.32-15.45,7.89-2.2,9.28,6.48,13.52,10.32,3.79,3.43,7,7.51,10.7,11,6.48,6.09,14.85,9.78,22.43,4.78,9.73-6.42,3-14.86-1.24-21.29-6.9-10.49-8.17-19.74-1.42-31.31C4223.54,1714.53,4210.32,1690.82,4156.78,1689.81Zm-119.26,112.38c10.75-1.19,20.78,2.64,29.11,11.69,6.92,7.52,15.64,10.91,24.56,3.89,7.76-6.1,5.79-14.85,2.76-22.72-11-28.81-22.37-57.51-33.63-86.24-4.61-11.77-13-18.06-26-18-13.29.07-20.7,7.68-25.11,19.16-11.07,28.81-22.18,57.6-33,86.49-2.85,7.62-6.74,16.51,1.87,22.51,8.88,6.17,18.4,3.28,25-4.19C4012.25,1804.56,4023.09,1800.83,4037.52,1802.19Zm-144.53-47h.66c0,15.42-.43,30.85.16,46.25.37,9.85,4.1,18.74,15.66,19.53,11.79.81,17.3-7.26,16.86-17.49-.84-19.78,7.69-28.67,26.79-34.56,14-4.32,14.12-19.17-.64-24.4-36.75-13-24.73-20.2,1.93-27.8,6.44-1.83,10.47-6.59,9.9-13.72-.58-7.3-6.11-9.92-12.23-12-37.57-12.71-58.66,2.44-59.08,42.58C3892.92,1740.77,3893,1748,3893,1755.17Zm521.61-1.29h-.41c0,16.42-.51,32.86.2,49.25.37,8.46,3.72,16.64,14,17.45,11.77.92,17.35-7.06,17.56-17,.66-31.78.46-63.58,0-95.37-.13-9.25-5.72-15.64-15.47-15.87-9.92-.23-15.3,6.18-15.69,15.43C4414.13,1723.09,4414.6,1738.5,4414.6,1753.88Zm803.47,47.62c-.35-9.85-5.34-12.24-12.29-12.11-11.88.21-33.41,33.39-31.26,48,1.1,7.37,6,12.26,12.4,9C5205.64,1836.74,5209.43,1816.42,5218.07,1801.5Z"/><path class="cls-1" d="M4144.13,1261.91a103,103,0,0,1,10.49-38.41c30.66-62.83,72.61-116.73,127.38-160.45,4.8-3.84,9.79-7.68,15.24-10.44,16.18-8.2,34.39-23.36,50.81-8.91,14.24,12.54-4.23,27.84-7.67,42-17.39,71.46-57.52,128.68-112.15,176.66-13.17,11.57-26.36,23.31-43.32,29C4160.09,1299.53,4143.93,1287.61,4144.13,1261.91Z"/><path class="cls-1" d="M1258.48,779.86c-46.63,86-88.17,170.56-121.8,258.84-5.06,13.28-68.61,28.59-82,21.45-7.32-3.9-7-10.05-3.37-15.48,61.72-91.65,113.8-190.55,198.81-264.75C1250.71,779.42,1252.09,779.86,1258.48,779.86Z"/><path class="cls-1" d="M3861.34,820.69c-48.7-2.23-96.46-9.75-143.85-19.9-6.79-1.45-15.54-1.51-17.32-10.23-1.87-9.24,6.57-12.22,12.78-15.11,65.3-30.37,132.7-52.12,205.91-40.16,26.78,4.37,64,8.53,64.71,40.86.73,34.65-37.62,34.38-63.94,39.46C3900.59,819.29,3880.8,819.13,3861.34,820.69Z"/><path class="cls-1" d="M4897.39,1757.18c2.25-21.48,14.27-34.35,35.85-34.41,21.41-.06,35.56,11.82,35.42,34.13-.14,22.08-14.34,34.17-35.48,34.71C4911.31,1792.17,4899.51,1779.15,4897.39,1757.18Z"/><path class="cls-1" d="M4162,1746.18c-9.31.37-12.82-4.86-12.64-13.28.15-6.71,2.77-12.19,10.21-12.76,8.27-.62,13.85,3.68,14.73,12C4175.16,1740.61,4170.37,1745.27,4162,1746.18Z"/><path class="cls-1" d="M4036.44,1746.65c7.33,2.23,8.61,8.37,8.7,14.55.11,7.15-3.78,11.83-11.28,10.92-7.68-.93-9.65-6.81-8.48-13.57C4026.44,1752.43,4028.26,1746.42,4036.44,1746.65Z"/></svg>