<svg id="Layer_1" data-name="Layer 1" xmlns="http://www.w3.org/2000/svg" viewBox="0 0 1901.04 2496.01"><defs><style>.cls-1{fill:#191714;}.cls-2{fill:#392216;}.cls-3{fill:#d28728;}.cls-4{fill:#493f35;}.cls-5{fill:#ea242a;}</style></defs><path class="cls-1" d="M1001.86,2452.92a2.12,2.12,0,0,1,1.92-1.64l2,0c1.62,5.74.77,11.65,1.17,17.47a6.28,6.28,0,0,1-1.46,5.16c-8.91,9.38-17.7,18.92-31.8,20-3.69.11-7.66-1.31-10.74,2-1.86,0-11.44-2-14.6-2-23-4.72-38.07-18.85-44.56-40.75-6.68-22.59-1.75-43.23,16-59.86l5.27.32a65,65,0,0,0-7.13,28.38c-1.26,36.69,39.54,70.84,82.33,51,1.38-.64,3.31-1.22,3.28-2.89-.06-5,2.21-10.27-1.48-14.9Z"/><path class="cls-2" d="M968.54,3.69c.14-1.47,2.73-1.71,1.85-3.69h3.72c.07,1.2.15,2.4.22,3.61Z"/><path class="cls-1" d="M968.54,3.69l5.79-.08c6.25,8.48,10.92,17.91,16.16,27q448.27,776.85,896.43,1553.74c6.44,11.16,6.45,11.17-4.21,17.67-15.6,9.51-31.26,18.9-46.76,28.57-4.36,2.72-8.68,4.47-13.9,4-3.38-.29-6.81-.06-10.22-.06H8.61c-3.71,0-7.42-.25-11.12-.38l-.27-4.3c.68-3.44,2.92-6.12,4.6-9Q454.1,836.79,906.39,52.76a40.1,40.1,0,0,1,12.19-13.64C935.41,27.57,951.38,14.78,968.54,3.69Zm911.5,1584c-1.28-2.46-2.47-5-3.86-7.39q-121.92-211.39-243.86-422.78Q1414,779,1195.56,400.59q-108-187.21-216-374.46c-2-3.54-4.27-7-6.44-10.51-2.84,2.11-3.63,4.55-4.85,6.66q-20,34.57-40,69.2L687.14,509.42Q552.43,743,417.71,976.49q-147.94,256.48-295.9,513-27.89,48.32-56,96.47c-1.11,1.61-1,3.12,1.08,3.4a62.46,62.46,0,0,0,8.33.29H1871.66c2.48,0,5,.06,7.44-.08C1880.07,1589.5,1880.66,1588.78,1880,1587.68Z"/><path class="cls-1" d="M1901,2260.54c0,5.74-.68,31.43-.34,38.55-5.46,8.78-13.9,14.79-20.75,22.28-1.17,1.28-2.73,1.31-4.28,1.32H15.86c-12.71,0-12.71,0-12.84-12.78-.08-7.76,0-15.51-.3-23.26a10,10,0,0,1,3.32-8.2q8.75-8.36,17.07-17.12a9.5,9.5,0,0,1,8.21-3.31c1.84.16,3.71,0,5.57,0q926.19,0,1852.37.13C1893.14,2258.19,1898,2255.65,1901,2260.54Zm-936.77,34.13q459,0,917.93-.07c18.12,0,16.41,3.84,15.73-17.15-.47-14.73-.77-14.72-15.24-14.72q-916.53,0-1833.07.05c-5.83,0-13.23-2.47-17.13,1.11-4.41,4.05-1.48,11.73-1.51,17.8-.08,14.81-2,13,12.58,13Q503.91,2294.71,964.27,2294.67Z"/><path class="cls-1" d="M656.24,1987c-1.6,2.87-1,5.06-1,7.16q1.38,100.48,3,201c.11,6.43-2.3,10.59-6.2,15.48-9.51,11.93-20.71,16-36.08,15.28-29.08-1.34-58.26-.36-87.4-.4-8,0-8.09-.08-8.21-8.1q-2.16-149.78-4.31-299.55-1.43-95.82-3.24-191.63c-.14-6.83,2.52-11.09,6.59-16.2,9.32-11.73,20.33-15.52,35.28-14.87,28.77,1.24,57.64.58,86.46.18,6.15-.08,9.34,2,12.46,7q69,111.35,138.45,222.45c1.91,3.06,4,6,6.62,10.1,1.6-4.25,1-7.57.94-10.74q-1.24-98.62-2.7-197.23c-.12-7,2-11.8,6.56-17.21,9.3-11.08,19.79-15.23,34.48-14.6,29.39,1.25,58.88.35,88.32.38,8.47,0,8.49,0,8.6,8.57.84,62.64,1.58,125.28,2.54,187.92q2.29,150.24,5,300.47c.13,7.42-1.32,13.07-7.19,17.82-5.25,4.26-8.74,11.37-14.92,13.55-5.83,2-12.86.72-19.36.79-24.18.28-48.36.24-72.52,1-7.06.22-11.09-1.94-15.05-7.82q-75-111.43-150.46-222.5C661,1992.55,659.57,1989.47,656.24,1987Zm-8.65-80c1.82,2.48,3.29,4.36,4.63,6.33l98.54,145.54q44.32,65.46,88.54,131c3.08,4.58,6.24,6.72,12,6.62,25.1-.44,50.21-.37,75.32-.57,8-.06,8.14-.17,8-8.53-.18-9.3-.82-18.58-1-27.88-.6-40.93-.67-81.87-1.72-122.8-1.11-43.09-1-86.2-1.94-129.3-1.26-55.5-1.59-111-2.31-166.53-.13-10.23-.16-20.47-.35-30.7-.13-7-.22-7.11-7.36-7.13q-43.24-.09-86.49,0c-7.78,0-7.91.11-7.79,8.45.19,13.64.56,27.28.86,40.92.94,42.79.61,85.6,1.82,128.39,1.06,37.51,1.15,75,1.67,112.57,0,1.23,0,2.45-2.11,2.73-1.39-2.16-2.92-4.46-4.39-6.81Q736.37,1849.69,649.36,1710c-3.18-5.11-6.44-7.16-12.55-7.09-28.52.35-57,.14-85.56.17-9,0-9,0-9,9.13,0,.93,0,1.86,0,2.79,0,46.21,1,92.42,1.88,138.62.61,31,.64,62,1.33,93,1.26,56.74,1.7,113.5,2.51,170.25.34,23.88.84,47.75,1.13,71.62.11,8.91,1.35,7.92,8.61,7.92q42.32,0,84.63,0c1.55,0,3.1,0,4.65,0,2.25,0,3.41-1.17,3.42-3.42q0-3.72,0-7.44-.85-56.28-1.72-112.56c-.36-22.94-.93-45.89-1.06-68.83C647.45,1972.14,647.59,1940.21,647.59,1907Z"/><path class="cls-1" d="M337.83,1805.64c-.71,4.11,1.34,7.45,2.43,10.89q59.46,187,119.24,374c1.91,6,2.14,10.23-3.14,14.57-5.48,4.5-9.39,11.6-15.46,14.53-6.43,3.1-14.62.89-22,.91-29.44.1-58.89,0-88.33,0-11.74,0-11.72,0-15-10.87-4.88-16.28-9.82-32.55-14.71-48.76-3.76-.31-5.1,2.57-7,4.28Q259.64,2196,225.58,2227c-5.05,4.56-5.13,4.54-10.34,0q-28.28-24.87-56.57-49.74c-2.24-2-4-4.71-7.94-5.49-2,7.12-4.26,14.07-5.89,21.17a19.61,19.61,0,0,1-5.77,10.3c-5.84,5.54-10.67,12.93-17.52,16.4-6.56,3.33-15.19.9-22.9.93q-44.16.15-88.33,0c-3.07,0-6.2.52-10.32-.94q30.11-104.13,60.24-208.34c20.07-69.53,40.09-139.07,60.32-209.25-5.87-1.34-11.23,0-16.54.55q-46.17,5.12-92.31,10.37c-2.15.25-4.32.41-6.48.54s-3.39-1.1-3.49-3.3q-.11-2.33-.12-4.65c-.3-27.29-.5-54.58-1-81.86-.07-4.66.87-8.27,4.49-11.49,5.77-5.14,10.3-12.42,16.9-15.68s15.21-.94,22.93-.94q194.81-.09,389.6,0c13.12,0,11-1.65,11.25,11.4.53,26.36.71,52.72,1.58,79.06.23,6.87-1.28,12.09-6.8,16.08a8.2,8.2,0,0,0-.67.65c-5,4.57-8.62,11.89-14.93,13.36s-13.42-1-20.15-1.93c-19.93-2.77-39.84-5.68-59.76-8.46C342.7,1805.34,340.23,1804.79,337.83,1805.64Zm-186.83-35c1.41,3.69-.1,5.92-.77,8.25q-44.43,153.94-88.89,307.87-13.92,48.2-27.78,96.4c-2.17,7.58-1.79,8.14,5.81,8.15,30.38,0,60.75-.16,91.13,0,5.37,0,7.5-1.83,8.78-7,4-16.23,8.44-32.35,13-48.43,1-3.41.78-7.48,4.05-10.16,4.21,1.8,6.94,5.29,10.16,8.12,22.83,20,45.57,40.19,68.41,60.23,6.8,6,6.88,5.82,13.4-.12q34.41-31.29,68.87-62.51c2.39-2.16,4.54-4.94,8.42-5.82,1.11,3.37,2.13,6.25,3,9.16,4.85,16,9.65,32,14.51,48,2.6,8.58,2.64,8.63,11.23,8.62q44.64,0,89.27-.16c2.36,0,5,.77,7.5-1.69-44.25-139.35-88.91-278.85-133.58-419.52,7.81,1,13.92,1.63,20,2.49q48.25,6.77,96.51,13.66c4,.58,5.77-.46,5.5-4.81-1.4-22.3-.71-44.65-1.16-67-.26-12.61,1.48-11.4-11.52-11.4q-193,0-385.92,0H38.16c-8.69.07-8.83.08-8.69,8.5q.53,32.57,1.27,65.11c.16,6.92.31,7.26,7.47,6.54,20-2,40-4.33,60-6.56C115.7,1774.69,133.18,1772.7,151,1770.69Z"/><path class="cls-1" d="M1213.24,2100.1c-2.88,2.06-3.83,5.12-5.35,7.78-16.85,29.59-33.82,59.13-50.42,88.86-6,10.84-15.86,18.1-23.92,27-1.58,1.75-3.81,1.78-6,1.77l-133-.25c-.25,0-.49-.27-1.29-.74.41-3.56,2.84-6.42,4.6-9.49q67-117.35,134.32-234.56c3.51-6.1,3.86-10.3,0-16.61q-71.19-118.17-141.74-236.73a63.63,63.63,0,0,0-3.38-5.55c-2.19-2.94-2.47-5.55.74-7.92a6.73,6.73,0,0,0,.66-.65c5.74-5.64,10.65-12.88,17.47-16.46,6.58-3.46,15.19-1,22.91-1,35.33-.11,70.67.1,106-.19,6.29,0,9.87,1.73,13.19,7.34,22.06,37.31,44.58,74.36,67,111.5,1.75,2.92,3.55,5.81,5.4,8.84,3.71-1.45,4.47-5.08,6.07-7.85,17.48-30.31,35-60.6,52.1-91.11,6.08-10.85,15.9-18,24-27,1.43-1.58,3.24-1.61,5.1-1.61q66,.13,132,.29c.22,0,.44.3,1,.74-.36,3.32-2.69,6-4.31,8.8q-67.14,118.35-134.56,236.55c-3.73,6.53-3.46,11.12.34,17.4q71.49,118,142.47,236.29a42.86,42.86,0,0,0,2.38,4c2,2.66,1.93,4.89-.57,7.3-5.35,5.16-10.62,10.43-15.74,15.82-2.13,2.24-4.49,2.86-7.44,2.86-43.09-.06-86.18-.15-129.26.1-5.54,0-7.41-3.11-9.68-6.92q-33.09-55.42-66.32-110.79C1216.45,2105.32,1214.85,2102.73,1213.24,2100.1Zm15.28-43.73c3.64,2.77,4.7,5.77,6.26,8.38Q1272,2127,1309.13,2189.3c2.95,5,6,7.42,12.29,7.35,35.65-.39,71.3-.17,106.95-.26,2.2,0,4.9,1.12,6.86-1.75-2-3.45-4-6.94-6-10.36q-67.85-112.72-135.89-225.35c-3.71-6.12-3.91-10.39-.35-16.62q66.51-116.2,132.44-232.74c1-1.77,2.83-3.44,1.78-6a13.37,13.37,0,0,0-2.55-.49c-36.89,0-73.78.1-110.67-.21-5.63,0-7.36,3.18-9.54,7q-36.47,63.77-73,127.47c-1.6,2.79-3.4,5.47-5.64,9-3-5-5.47-8.93-7.85-12.88-24.76-41.17-49.61-82.29-74.14-123.6-3.11-5.22-6.43-7.09-12.5-7-34.72.31-69.44.13-104.16.2-2.29,0-4.84-.85-7.4,1.28,2,3.54,3.95,7,6,10.4q67.93,113.77,136.07,227.41c4,6.65,3.47,11.24-.16,17.55q-66.08,114.84-131.67,229.95c-1.12,2-3.3,3.74-1.82,6.83,38.39,0,76.82-.1,115.24.13,5.05,0,7-2.57,9.08-6.26q26.26-46.56,52.73-93C1212.8,2083.87,1220.47,2070.47,1228.52,2056.37Z"/><path class="cls-1" d="M1900.67,1954.46c0,28.22.1,56.44,0,84.66-.17,38.52-14.31,72-38.46,101.23A338.34,338.34,0,0,1,1817.5,2185c-29.2,24.32-63.1,37.5-101,39.73a527.21,527.21,0,0,1-68.73-.36c-76-5.42-144.16-64.61-160.07-139a190.37,190.37,0,0,1-4.1-35c-1.4-54.56-2.33-109.13-2.11-163.7.18-45.49,17.48-84.34,48.77-117.08q10.92-11.43,22.19-22.52,50.68-49.83,121.75-51.49c16.11-.36,32.24-.25,48.35,0,84.11,1.22,157.22,62.1,173.72,144.67a161.48,161.48,0,0,1,2.9,27.7C1899.85,1896.78,1900.53,1925.62,1900.67,1954.46Zm-7.92-6.52h-.18c0-15.2.59-30.43-.15-45.59-.9-18.55.27-37.18-2.72-55.68-13-80.74-85.38-143.15-166.92-143.66-15.19-.1-30.38.11-45.56-.07a164.14,164.14,0,0,0-43.17,5.58c-73.94,19.19-125.36,86.45-124.34,160.23.75,54,1.16,107.93,2.18,161.88a156.16,156.16,0,0,0,20.15,74.64c28.47,50.42,71.27,80.42,128.63,89.49,18.22,2.89,36.5,1.33,54.76,1.63,11.74.19,23.45.06,35.22-1.57,84.61-11.76,146.12-84.6,143.77-170.61C1893.72,1998.79,1893.3,1973.37,1892.75,1947.94Z"/><path class="cls-1" d="M1424.76,2480a3.52,3.52,0,0,1-.42.82c-11.63,13.11-11.63,13.11-29,13.11-13,0-26,0-39,0-8.93,0-8.78,1.31-8.94-8.18-.53-33.46-.92-66.92-1.63-100.37-.11-4.84,2-7.83,4.81-11.35,5.7-7,12.31-9.69,21.43-9.2,14.21.77,28.48.16,42.72.24,3,0,6.18-.72,9.28,1a26.2,26.2,0,0,0,.39,3.55c2.82,11.76-3.72,19.18-11.78,26.06-2.12,1.81-4.31,2.12-6.82,2.11-6.81,0-13.63.14-20.43-.07-3.9-.11-5.56,1.11-5.49,5.27.06,3.93,2,4.63,5.25,4.62q15.32-.07,30.65,0c8,.05,7.14.24,8.41,8.1,2,12.38-7.38,17.36-14.14,24.05-1.18,1.17-4.14.67-6.29.7-6.19.08-12.38.12-18.57,0-3.2,0-4.42,1.31-4.31,4.44.13,3.4-.06,6.81-.11,10.21l-2.57,3.6c-.28-11.13-.78-22.27,0-33.4,9.9,0,19.81,0,29.72-.09,3,0,6.24.94,8.91-1.41,3.07-.18,4-1.83,4.11-4.85.3-7.95,0-8.49-7.79-8.59-4.64-.06-9.29.14-13.93,0-6.75-.27-15.35,2.83-19.77-1.28-4.9-4.55-1.73-13.46-2-20.45-.3-7.71,0-7.8,7.48-7.86,10.21-.08,20.43,0,30.65,0,2.09,0,4.85.72,5.86-1.63a13.77,13.77,0,0,0,.17-9.12c-.91-3.28-4-2.3-6.29-2.31q-22.76-.12-45.52,0c-6.73,0-7,.17-6.92,6.5.21,31.91,0,63.83,1.44,95.72.31,7,.42,7.07,7.5,7.11,16.73.08,33.45,0,50.17.05Z"/><path class="cls-1" d="M1580.27,2475.62c2.15,1.87,3.11,3.8.64,6.21-3.32,3.25-6.56,6.58-9.8,9.91a6.67,6.67,0,0,1-5.8,2.23,7.22,7.22,0,0,0-.93,0c-18.43.88-18.42.87-29.25-14.28a86.13,86.13,0,0,0-7.82-9.66c1.55,11.11-7.22,15.56-13,21.8-3.74,4-8.79,1.85-13.23,2.05-8.47.37-8.22.74-8.35-7.79q-.76-49.73-1.55-99.47c-.15-10.9,10.52-21.59,21.52-21.54,8.34,0,16.72-.52,25,.83,0,.73,0,1.47,0,2.2-7.11-.11-14.23-.31-21.34-.3-8,0-8.18.1-8.07,8.21q.64,47.37,1.45,94.72a7.24,7.24,0,0,1,0,.93c-.41,4.09,1.6,5.3,5.48,5.35,7.4.09,7.94-.19,8-7.51,0-3.09-.13-6.19-.14-9.28,0-8.36-.07-16.73,0-25.09,0-1.46-.22-3.21,1.73-3.81a3.81,3.81,0,0,1,4.23,1,53.74,53.74,0,0,1,3.39,4.41q11.64,16.22,23.26,32.45c6.33,8.83,9.14,9.66,21.08,6.3Z"/><path class="cls-1" d="M591,2475.49c2.3,1.77,3.21,3.8.9,6.19-3.44,3.56-7,7-10.43,10.58-1.42,1.45-3.18,1.58-5.08,1.74-19,1.64-19,1.63-30.25-14.12-2.31-3.21-4.12-6.85-8.49-10.32,1.65,10.86-5.92,15.62-11.65,21.56a9.13,9.13,0,0,1-6.44,2.93c-15.94,1.07-15.86,1.15-16.11-15.14-.47-30.65-1.07-61.3-1.54-91.95-.16-10.73,10.66-21.9,21.22-21.87,8.34,0,16.71-.53,25,.78,0,.71,0,1.42,0,2.13-7.11-.07-14.22-.22-21.33-.19-7.92,0-8.22.13-7.85,8.41.94,21.34,1.18,42.68,1.24,64,0,10.52.32,21,.33,31.56,0,5.88,4.11,5,7.75,5.14,3.85.16,6.77-.52,6.54-5.41-.3-6.49-.39-13-.59-19.48-.18-5.56-.43-11.13-.54-16.69,0-1.47-.23-3.23,1.6-4a4.08,4.08,0,0,1,5,1.31c1.19,1.42,2.31,2.9,3.39,4.41,6.49,9,13.59,17.74,19.24,27.29s12.49,14.85,23.87,12.58Z"/><path class="cls-3" d="M415,2464.82l-.41.43c-7.22,4.83-14.72,8.94-23.48,10.26-11,1.67-22.15,1.36-33.26,1.5-4.61,0-6.56-1.42-6.65-6.35-.61-32.43.33-64.89-1.58-97.3-.22-3.81,1-5.73,5.18-5.61,10.49.32,21-.46,31.48.57a21,21,0,0,0,3.46,1.09c24.59,3.34,47.3,26.15,43.67,60.14C431.83,2444,425.31,2455.26,415,2464.82ZM364.25,2390c-.71,22.32-.07,44.63.34,66.94a23,23,0,0,0,.46,3.68c.36,2,1.25,3.56,3.53,3.57,11.44,0,23,.48,32.83-7,17.09-9.13,21.52-31.09,16.9-46.83-5.16-17.63-18.09-27.7-36.55-28.26-5.85-1.87-11.68-3.06-17.4.44Q364.31,2386.24,364.25,2390Z"/><path class="cls-1" d="M386.25,2368.32c-10.48-1-21-.25-31.48-.57-4.17-.12-5.4,1.8-5.18,5.61,1.91,32.41,1,64.87,1.58,97.3.09,4.93,2,6.4,6.65,6.35,11.11-.14,22.22.17,33.26-1.5,8.76-1.32,16.26-5.43,23.48-10.26,3.22,2.29.24,3.7-.9,5.06-12.81,15.32-29.07,23.46-49.21,23.46-8.05,0-16.11,0-24.15.26-4.23.16-6-1-6.08-5.64-.39-34.7-1-69.39-1.65-104.08-.06-3.33.68-5.93,3.26-8.18,2.79-2.44,5.3-5.21,7.84-7.91A9.14,9.14,0,0,1,351,2365c11.75.34,23.53-.61,35.24.95C386.26,2366.75,386.25,2367.53,386.25,2368.32Z"/><path class="cls-1" d="M1255.16,2472.07c-9.91,12.5-22.73,19.38-38.68,20.94-10.49,1-21,.93-31.48.93-6.52,0-6.63-.12-6.76-6.5q-.67-30.6-1.19-61.21c-.22-13.3-.09-26.6-.5-39.89-.15-5,1.48-8.47,4.78-12.27,5.93-6.84,12.48-10,21.7-9.17s18.53-.2,27.74,1.13c0,.65,0,1.3-.08,1.95-9.9-.12-19.79-.34-29.69-.34-7.38,0-7.5.12-7.45,7.82q.29,38.07.76,76.15c.09,6.81.58,13.61.8,20.41.09,2.77.67,4.93,4.05,4.92,18.18,0,36.61,1.76,53.55-7.32Z"/><path class="cls-1" d="M705.78,2477.45c-2.21,6.89-8,11.08-13.22,14.91s-12.54,1.65-18.89,1c-1.94-.19-1.4-3.08-1.45-4.84-.34-11.46-.92-22.93-.8-34.39a33.05,33.05,0,0,0-5-18.3c-9.84-16.1-19.35-32.4-28.81-48.73-5.18-8.93-5.79-6.28,2-14.4a46.06,46.06,0,0,0,3.25-3.31c2.71-3.51,6.19-4.82,10.57-4.4,5.2.5,10.49-.74,15.66.72-.11,1-.21,1.91-.31,2.86-5-1.37-10-.89-15-.53,0,3.68,1.81,5.59,3,7.68,8.44,14.43,16.82,28.91,25.56,43.17,3.81,6.23,6.35,12.44,6.12,20-.26,8.34.54,16.71.77,25.07.42,14.83-1.92,12.8,12.74,13Z"/><path class="cls-4" d="M1745.49,2477.37q-36.23,0-72.44,0c-14.25,0-18.13-3.91-18.16-18.2q-.06-33.91,0-67.83c0-14,4.13-18,18.44-18q72-.06,143.94,0c14.13,0,18.11,4.09,18.14,18.3,0,22-.34,44,.14,66,.32,14.83-4.38,20.15-19.5,19.89C1792.54,2477.07,1769,2477.37,1745.49,2477.37Zm-.34-98.77c-24.18,0-48.36,0-72.53,0-10.61,0-12.46,1.88-12.5,12.56-.09,20.78,0,41.56,0,62.34,0,3.1-.15,6.22.07,9.3.48,6.49,2.76,8.73,9.23,9.26,2.16.17,4.34.06,6.51.06q69.28,0,138.55,0c2.17,0,4.35.11,6.51-.07,6.46-.52,9.1-2.77,9.15-9.27q.29-37.68,0-75.37c0-5.87-2.84-8.21-8.68-8.75-2.15-.2-4.33-.08-6.5-.08Z"/><path class="cls-4" d="M153.29,2477.37H83.54c-2.17,0-4.35.11-6.51,0-8.43-.64-13.31-4.14-13.48-12.38q-.78-39.53,0-79.06c.14-7.86,4.7-11.4,12.54-12.44a50.42,50.42,0,0,1,6.51-.14q71.14,0,142.29,0c1.55,0,3.11-.09,4.65,0,9.71.79,14,4.91,14,14.82q.31,37.22,0,74.44c-.1,10.64-4.62,14.67-15.88,14.73C202.89,2477.45,178.09,2477.36,153.29,2477.37Zm.37-5.23c24.17,0,48.34.06,72.52,0,10.45,0,12.8-2.26,12.85-12.44q.16-34.42,0-68.84c-.05-9.45-2.79-12.2-12.22-12.21q-73.44-.11-146.89,0c-9.35,0-11.59,2.3-11.65,11.53-.1,17.67,0,35.35,0,53,0,6.52-.18,13,.07,19.54s2.76,8.81,9.12,9.35c2.15.19,4.33.07,6.5.07Q118.79,2472.16,153.66,2472.14Z"/><path class="cls-1" d="M1105.85,2436.49c.22,12.36.28,24.73.75,37.08.13,3.36-1.17,6-2.73,8.46-6.44,10.1-15.72,13.89-27.54,12-2.8-.45-3.55-1.77-3.59-4.27q-.83-53.34-1.74-106.68a7.84,7.84,0,0,1,2.79-6.48,20,20,0,0,0,3.88-4c5.92-9.36,15.21-7.66,24-7.51,3.12,0,3.17,2.29,3.2,4.52q.3,17.61.59,35.23c-2.09,1.23-.73,4.14-2.66,5.45-.19-12.07-.36-24.14-.6-36.21,0-2.06.73-4.9-1.79-5.72-3.53-1.15-7.54-1.41-10.9.14-2.53,1.16-1.32,4.44-1.5,6.82a21.65,21.65,0,0,0,0,2.79c1.64,30.3,1,60.64,1.55,91,0,1.55,0,3.1.1,4.65a2.94,2.94,0,0,0,2.54,3.17c8.23,2,11.62-.51,11.67-8.84.07-10.51-1.75-21-.81-31.52Z"/><path class="cls-1" d="M1005.4,2390c1.62,5.29-2.47,7.75-5.39,10.73-2.57,2.62-4.9,6.23-8,7.3-3.58,1.22-6-3.26-9.07-5.08-13.9-8.31-27.95-10.35-42.55-1.94l-1.62-1.81c10.51-17,27.76-23.82,46.7-18.64,6,1.66,11.07,5.27,16.63,7.83C1002.76,2389.73,1004,2389.92,1005.4,2390Z"/><path class="cls-4" d="M591,2475.49l-4.28,1.53c.48-3.95-2.69-6.07-4.59-8.71-7.21-10-14.66-19.88-22-29.79-5.73-7.73-5.71-7.71,3-12.25,11-5.76,15.94-15.42,15.86-27.31-.1-13.53-7.58-23.19-19.38-27.8-3.77-1.47-8-.79-11.47-3.16,0-.71,0-1.42,0-2.13,14.91.53,26.52,6.68,31.69,21.13,5.1,14.22,2.66,27.36-8.75,38.22-9.78,9.32-9.63,9.37-1.69,20.24C576.63,2455.42,584.54,2464.92,591,2475.49Z"/><path class="cls-4" d="M705.78,2477.45l-3.84-.51c1.27-13.6.36-27.23.23-40.84a24.72,24.72,0,0,1,3.44-13.19q10.25-17.67,20.07-35.58c3.34-6.13,7.46-11.92,9.68-18.83-10-.82-10-.82-15.79,1.36l-2.36-2.36a3.1,3.1,0,0,1,2.63-2.31,122.23,122.23,0,0,1,22,.14c-6.58,11.74-12.58,22.45-18.59,33.15-4.69,8.36-9.22,16.8-14.13,25a24.88,24.88,0,0,0-3.56,14C705.93,2450.85,706.68,2464.15,705.78,2477.45Z"/><path class="cls-4" d="M386.25,2368.32c0-.79,0-1.57,0-2.35,25.69,1.46,47.28,21.84,50.25,47.62,2.07,18-.95,34.63-13.94,48.3a28.85,28.85,0,0,1-5.6,4.82c-1.38.85-2-.54-2-1.89,10.34-9.56,16.86-20.87,18.41-35.27,3.63-34-19.08-56.8-43.67-60.14A21,21,0,0,1,386.25,2368.32Z"/><path class="cls-4" d="M1580.27,2475.62l-3.56-.11L1543,2430.25c20.11-8.37,26.24-17.8,24.48-35.66-.58-5.79-3.51-10.45-6.21-15.29l1.53-2.18c12.33,15.09,11.43,34-2.24,47.62-3.24,3.25-8.89,6-8.7,10.21.18,3.89,4.66,7.59,7.29,11.36C1566.08,2456.18,1574,2465.29,1580.27,2475.62Z"/><path class="cls-4" d="M1005.4,2390c-1.36,0-2.64-.22-3.35-1.61.06-3.09-.1-6.21.24-9.27.55-4.94-2.13-7.16-6.22-8.93a55.61,55.61,0,0,0-61.6,12.15c-3.42,3.55-6.28,7.63-9.4,11.46l-5.27-.32a126,126,0,0,1,15.82-16.66c17-15.27,42.93-18.5,64-8.58,4.44,2.1,6.89,4.58,6.23,9.79C1005.3,2381.93,1005.51,2386,1005.4,2390Z"/><path class="cls-2" d="M717.21,2367.5l2.36,2.36c-4,7.26-7.69,14.66-11.92,21.76-4.13,6.91-6.73,14.85-12.82,20.79a23.65,23.65,0,0,1-5.59-9c.22-1.13.45-2.26.67-3.39,1,.1,2,2.13,3,.42,2.23-3.66,4.45-7.35,6.32-11.2A62.31,62.31,0,0,1,717.21,2367.5Z"/><path class="cls-4" d="M1267.12,2384.74c17,17.07,19.12,54.42,2,73.56l-1.65-1.85c5.26-8.73,9.32-17.74,10-28.25a62,62,0,0,0-11.83-41.54Z"/><path class="cls-4" d="M1424.76,2480l-2.84-3c1.68-12.91,1.68-12.91-11-12.92h-3.7c-8,0-16-.05-24,0-3.72,0-6.11-1-5.07-5.38l2.57-3.6c.24,3.77,1.34,5.85,6,5.65,11-.46,22,0,33.06-.23,4.67-.11,7,1.26,6.27,6.17C1425.47,2471.13,1427.67,2475.84,1424.76,2480Z"/><path class="cls-4" d="M1001.86,2452.92l.21,2.47c-17.68,15-40.42,14.24-56.24-1.81l1.11-2c9.25,8.1,19.83,11.95,32.28,11C988,2461.94,994.66,2456.93,1001.86,2452.92Z"/><path class="cls-4" d="M938.72,2399.15l1.62,1.81c-8.47,17.73-6.74,34.3,5.67,49.65l-2,1.1C931.46,2441.58,927.08,2414.5,938.72,2399.15Z"/><path class="cls-4" d="M689.91,2400c-.22,1.13-.45,2.26-.67,3.39a323.56,323.56,0,0,1-20.5-34.78c.1-.95.2-1.91.31-2.86,3.83,2,4.89,6.06,6.8,9.37C680.62,2383.35,686.12,2391.19,689.91,2400Z"/><path class="cls-4" d="M1105.85,2436.49l-2.73.06a146.5,146.5,0,0,1-.28-26.24c1.93-1.31.57-4.22,2.66-5.45A222.61,222.61,0,0,1,1105.85,2436.49Z"/><path class="cls-4" d="M1230.69,2368c0-.65,0-1.3.08-1.95a43.93,43.93,0,0,1,23.72,7.86l-1.82,1.7C1245.73,2371.92,1238,2370.54,1230.69,2368Z"/><path class="cls-4" d="M1537.68,2368.11c0-.73,0-1.47,0-2.2,8.3.3,16,2.34,22.13,8.31l-2.23,1.45C1551.55,2371.66,1544.51,2370.16,1537.68,2368.11Z"/><path class="cls-4" d="M1254.49,2373.89a22,22,0,0,1,7.62,5.8l-1.95,1.39a24.3,24.3,0,0,1-7.49-5.49Z"/><path class="cls-4" d="M1255.16,2472.07l-2.45-2.45a12.35,12.35,0,0,1,5.46-4l2,1.77C1258.75,2469.16,1257.46,2471.16,1255.16,2472.07Z"/><path class="cls-4" d="M1266.51,2461a6.4,6.4,0,0,1-3.73,3.74c-.56-.57-1.12-1.14-1.69-1.7l3.71-3.69Z"/><path class="cls-4" d="M1269.1,2458.3c-.68,1.08-1.18,2.31-2.59,2.68l-1.71-1.65c.89-.95,1.77-1.92,2.65-2.88Z"/><path class="cls-4" d="M1262.78,2464.72c-.34,1.39-1.52,2-2.59,2.62l-2-1.77,2.92-2.56Z"/><path class="cls-4" d="M1262.11,2379.69l2.05,2.09-2.11,1.08-1.89-1.78Z"/><path class="cls-4" d="M1005.78,2451.32l-2,0c.21-.78.59-1.48,1.52-1.2C1005.56,2450.16,1005.63,2450.89,1005.78,2451.32Z"/><path class="cls-4" d="M946,2450.61a2.29,2.29,0,0,1,.93.92l-1.11,2c-.62-.62-1.24-1.25-1.87-1.87Z"/><path class="cls-4" d="M1265,2382.61l2.13,2.13-1.49,1.92-1.72-1.94Z"/><path class="cls-4" d="M1264.16,2381.78a3.27,3.27,0,0,1,.83.83l-1.08,2.11-1.86-1.86Z"/><path class="cls-4" d="M1560.73,2375.1l2.11,2-1.53,2.18-1.78-1.88Z"/><path class="cls-4" d="M1559.86,2374.22a3.47,3.47,0,0,1,.87.88l-1.2,2.32-1.9-1.75Z"/><path class="cls-3" d="M944,2451.71c.63.62,1.25,1.25,1.87,1.87,15.82,16.05,38.56,16.78,56.24,1.81,3.69,4.63,1.42,9.9,1.48,14.9,0,1.67-1.9,2.25-3.28,2.89-42.79,19.79-83.59-14.36-82.33-51a65,65,0,0,1,7.13-28.38c3.12-3.83,6-7.91,9.4-11.46a55.61,55.61,0,0,1,61.6-12.15c4.09,1.77,6.77,4,6.22,8.93-.34,3.06-.18,6.18-.24,9.27-5.56-2.56-10.59-6.17-16.63-7.83-18.94-5.18-36.19,1.62-46.7,18.64C927.08,2414.5,931.46,2441.58,944,2451.71Z"/><path class="cls-5" d="M65.8,1585.93q28-48.23,56-96.47,148-256.45,295.9-513Q552.41,743,687.14,509.42L928.24,91.48q20-34.62,40-69.2c1.22-2.11,2-4.55,4.85-6.66,2.17,3.53,4.4,7,6.44,10.51q108,187.23,216,374.46,218.37,378.47,436.76,756.92,122,211.38,243.86,422.78c1.39,2.41,2.58,4.93,3.86,7.39-4.33.15-8.66.41-13,.41q-893.59,0-1787.21,0c-3.1,0-6.2,0-9.3,0C68.67,1588.06,66.79,1588,65.8,1585.93ZM975.62,273.25c-1.51.68-2.27.78-2.57,1.2-1.24,1.76-2.42,3.59-3.5,5.46Q623.16,880.71,276.78,1481.53c-.11.2.06.58.14.87s.2.58.31.9H1673.71Q1324,877.11,975.62,273.25Z"/><path class="cls-2" d="M65.8,1585.93c1,2,2.87,2.13,4.74,2.15,3.1,0,6.2,0,9.3,0q893.61,0,1787.21,0c4.33,0,8.66-.26,13-.41.62,1.1,0,1.82-.94,1.87-2.48.14-5,.08-7.44.08H75.21a62.46,62.46,0,0,1-8.33-.29C64.84,1589.05,64.69,1587.54,65.8,1585.93Z"/><path class="cls-3" d="M964.27,2294.67q-460.35,0-920.71,0c-14.6,0-12.66,1.85-12.58-13,0-6.07-2.9-13.75,1.51-17.8,3.9-3.58,11.3-1.11,17.13-1.11q916.53-.08,1833.07-.05c14.47,0,14.77,0,15.24,14.72.68,21,2.39,17.14-15.73,17.15Q1423.23,2294.74,964.27,2294.67Z"/><path class="cls-3" d="M647.59,1907c0,33.18-.14,65.11,0,97,.13,22.94.7,45.89,1.06,68.83q.87,56.28,1.72,112.56.06,3.72,0,7.44c0,2.25-1.17,3.39-3.42,3.42-1.55,0-3.1,0-4.65,0q-42.32,0-84.63,0c-7.26,0-8.5,1-8.61-7.92-.29-23.87-.79-47.74-1.13-71.62-.81-56.75-1.25-113.51-2.51-170.25-.69-31-.72-62-1.33-93-.9-46.2-1.86-92.41-1.88-138.62,0-.93,0-1.86,0-2.79,0-9.08,0-9.13,9-9.13,28.52,0,57,.18,85.56-.17,6.11-.07,9.37,2,12.55,7.09q86.88,139.79,174.14,279.34c1.47,2.35,3,4.65,4.39,6.81,2.06-.28,2.13-1.5,2.11-2.73-.52-37.53-.61-75.06-1.67-112.57-1.21-42.79-.88-85.6-1.82-128.39-.3-13.64-.67-27.28-.86-40.92-.12-8.34,0-8.44,7.79-8.45q43.24-.07,86.49,0c7.14,0,7.23.16,7.36,7.13.19,10.23.22,20.47.35,30.7.72,55.51,1.05,111,2.31,166.53,1,43.1.83,86.21,1.94,129.3,1.05,40.93,1.12,81.87,1.72,122.8.14,9.3.78,18.58,1,27.88.15,8.36,0,8.47-8,8.53-25.11.2-50.22.13-75.32.57-5.72.1-8.88-2-12-6.62q-44.07-65.62-88.54-131l-98.54-145.54C650.88,1911.39,649.41,1909.51,647.59,1907Z"/><path class="cls-3" d="M151,1770.69c-17.82,2-35.3,4-52.79,5.94-20,2.23-40,4.55-60,6.56-7.16.72-7.31.38-7.47-6.54q-.72-32.55-1.27-65.11c-.14-8.42,0-8.43,8.69-8.5H41q193,0,385.92,0c13,0,11.26-1.21,11.52,11.4.45,22.32-.24,44.67,1.16,67,.27,4.35-1.51,5.39-5.5,4.81q-48.24-6.92-96.51-13.66c-6.09-.86-12.2-1.52-20-2.49,44.67,140.67,89.33,280.17,133.58,419.52-2.54,2.46-5.14,1.68-7.5,1.69q-44.64.15-89.27.16c-8.59,0-8.63,0-11.23-8.62-4.86-16-9.66-32-14.51-48-.88-2.91-1.9-5.79-3-9.16-3.88.88-6,3.66-8.42,5.82q-34.5,31.18-68.87,62.51c-6.52,5.94-6.6,6.08-13.4.12-22.84-20-45.58-40.19-68.41-60.23-3.22-2.83-6-6.32-10.16-8.12-3.27,2.68-3.08,6.75-4.05,10.16-4.56,16.08-9,32.2-13,48.43-1.28,5.2-3.41,7.06-8.78,7-30.38-.18-60.75,0-91.13,0-7.6,0-8-.57-5.81-8.15q13.8-48.23,27.78-96.4,44.44-153.93,88.89-307.87C150.9,1776.61,152.41,1774.38,151,1770.69Zm88.93,322.94c2.09-1.89,3.95-3.45,5.66-5.16,15.59-15.54,31-31.31,46.83-46.55,4.95-4.75,5.62-8.77,3.62-15.31-16.23-53-32-106.1-47.89-159.17-3.68-12.27-7.51-24.5-11.31-36.89-2.29,1.21-2.53,2.76-2.94,4.26q-26.24,97.28-52.64,194.52c-1.3,4.75-.13,7.37,3.05,10.45,15.16,14.64,30.14,29.48,45.22,44.2C232.83,2087.21,236.3,2090.27,239.93,2093.63Z"/><path class="cls-3" d="M1228.52,2056.37c-8,14.1-15.72,27.5-23.35,40.93q-26.4,46.48-52.73,93c-2.09,3.69-4,6.29-9.08,6.26-38.42-.23-76.85-.13-115.24-.13-1.48-3.09.7-4.87,1.82-6.83q65.73-115,131.67-229.95c3.63-6.31,4.17-10.9.16-17.55q-68.37-113.5-136.07-227.41c-2-3.4-4-6.86-6-10.4,2.56-2.13,5.11-1.28,7.4-1.28,34.72-.07,69.44.11,104.16-.2,6.07-.06,9.39,1.81,12.5,7,24.53,41.31,49.38,82.43,74.14,123.6,2.38,4,4.8,7.88,7.85,12.88,2.24-3.58,4-6.26,5.64-9q36.54-63.72,73-127.47c2.18-3.81,3.91-7,9.54-7,36.89.31,73.78.17,110.67.21a13.37,13.37,0,0,1,2.55.49c1,2.6-.77,4.27-1.78,6Q1359.3,1826,1293,1942.31c-3.56,6.23-3.36,10.5.35,16.62q68.23,112.5,135.89,225.35c2.06,3.42,4,6.91,6,10.36-2,2.87-4.66,1.75-6.86,1.75-35.65.09-71.3-.13-106.95.26-6.33.07-9.34-2.38-12.29-7.35q-37-62.39-74.35-124.55C1233.22,2062.14,1232.16,2059.14,1228.52,2056.37Z"/><path class="cls-3" d="M1892.75,1947.94c.55,25.43,1,50.85,1.67,76.27,2.35,86-59.16,158.85-143.77,170.61-11.77,1.63-23.48,1.76-35.22,1.57-18.26-.3-36.54,1.26-54.76-1.63-57.36-9.07-100.16-39.07-128.63-89.49a156.16,156.16,0,0,1-20.15-74.64c-1-54-1.43-107.92-2.18-161.88-1-73.78,50.4-141,124.34-160.23a164.14,164.14,0,0,1,43.17-5.58c15.18.18,30.37,0,45.56.07,81.54.51,153.87,62.92,166.92,143.66,3,18.5,1.82,37.13,2.72,55.68.74,15.16.15,30.39.15,45.59ZM1780.06,1952h-.59c-.57-28.83-1.23-57.66-1.67-86.5a77,77,0,0,0-4-22.78c-9.88-30.32-38.8-53.39-69.09-55.84-39.28-3.18-66.94,18.91-79,43.2-6.21,12.51-8.46,25.7-8.23,39.61q1.3,81.39,2.17,162.79a77.32,77.32,0,0,0,2,15.65c8.43,38.81,44.63,70.46,91.34,63.83,44-6.25,67.79-44.56,67.19-77.16C1779.65,2007.24,1780.06,1979.63,1780.06,1952Z"/><path class="cls-3" d="M1378.16,2458.72c-1,4.37,1.35,5.4,5.07,5.38,8-.06,16,0,24,0h3.7c12.63,0,12.63,0,11,12.92-16.72,0-33.44,0-50.17-.05-7.08,0-7.19-.16-7.5-7.11-1.43-31.89-1.23-63.81-1.44-95.72,0-6.33.19-6.46,6.92-6.5q22.77-.12,45.52,0c2.3,0,5.38-1,6.29,2.31a13.77,13.77,0,0,1-.17,9.12c-1,2.35-3.77,1.62-5.86,1.63-10.22.05-20.44,0-30.65,0-7.49.06-7.78.15-7.48,7.86.27,7-2.9,15.9,2,20.45,4.42,4.11,13,1,19.77,1.28,4.64.18,9.29,0,13.93,0,7.77.1,8.09.64,7.79,8.59-.11,3-1,4.67-4.11,4.85q-17.46-.18-34.92-.35c-1.51,0-3.09,0-3.71,1.85C1377.38,2436.45,1377.88,2447.59,1378.16,2458.72Z"/><path class="cls-2" d="M1378.13,2425.32c.62-1.86,2.2-1.86,3.71-1.85q17.46.15,34.92.35c-2.67,2.35-5.91,1.37-8.91,1.41C1397.94,2425.36,1388,2425.3,1378.13,2425.32Z"/><path class="cls-3" d="M1557.63,2375.67l1.9,1.75,1.78,1.88c2.7,4.84,5.63,9.5,6.21,15.29,1.76,17.86-4.37,27.29-24.48,35.66l33.67,45.26c-11.94,3.36-14.75,2.53-21.08-6.3q-11.64-16.22-23.26-32.45a53.74,53.74,0,0,0-3.39-4.41,3.81,3.81,0,0,0-4.23-1c-2,.6-1.72,2.35-1.73,3.81,0,8.36,0,16.73,0,25.09,0,3.09.17,6.19.14,9.28,0,7.32-.59,7.6-8,7.51-3.88-.05-5.89-1.26-5.48-5.35a7.24,7.24,0,0,0,0-.93q-.73-47.35-1.45-94.72c-.11-8.11,0-8.19,8.07-8.21,7.11,0,14.23.19,21.34.3C1544.51,2370.16,1551.55,2371.66,1557.63,2375.67Zm-35,23.81h.22c0,1.55,0,3.09,0,4.64.13,16.3,2.13,17.79,18.13,13.55.3-.08.6-.15.9-.24,7.91-2.47,12.58-8.88,12.64-17.38.07-8.8-4.11-14.87-12.37-17.39a45.69,45.69,0,0,0-10-1.82c-9.58-.68-9.58-.57-9.54,9.38C1522.62,2393.31,1522.6,2396.39,1522.6,2399.48Z"/><path class="cls-3" d="M548.07,2368c3.45,2.37,7.7,1.69,11.47,3.16,11.8,4.61,19.28,14.27,19.38,27.8.08,11.89-4.83,21.55-15.86,27.31-8.7,4.54-8.72,4.52-3,12.25,7.37,9.91,14.82,19.76,22,29.79,1.9,2.64,5.07,4.76,4.59,8.71-11.38,2.27-18.24-3.06-23.87-12.58s-12.75-18.24-19.24-27.29c-1.08-1.51-2.2-3-3.39-4.41a4.08,4.08,0,0,0-5-1.31c-1.83.72-1.63,2.48-1.6,4,.11,5.56.36,11.13.54,16.69.2,6.5.29,13,.59,19.48.23,4.89-2.69,5.57-6.54,5.41-3.64-.16-7.75.74-7.75-5.14,0-10.52-.3-21-.33-31.56-.06-21.36-.3-42.7-1.24-64-.37-8.28-.07-8.37,7.85-8.41C533.85,2367.78,541,2367.93,548.07,2368Zm-5.27,12.75c-9.62-.16-9.63-.16-9.57,8.83,0,4.93.12,9.86.14,14.8.1,16.68,1.34,17.63,17.89,13.56,9-2.21,13.73-7.92,14-17,.32-10.26-3.43-15.72-12.88-18.68C549.15,2381.26,545.87,2380.45,542.8,2380.75Z"/><path class="cls-1" d="M381.76,2382.08c18.46.56,31.39,10.63,36.55,28.26,4.62,15.74.19,37.7-16.9,46.83l-2.1-2.07c.87-2.63,1.92-5.21,2.58-7.89,5.58-22.73-7.73-47.64-34.29-48.5-2.47-2.39-1-6.32-3.35-8.75q.06-3.72.11-7.44Z"/><path class="cls-4" d="M399.31,2455.1l2.1,2.07c-9.85,7.46-21.39,7-32.83,7-2.28,0-3.17-1.6-3.53-3.57a23,23,0,0,1-.46-3.68c-.41-22.31-1-44.62-.34-66.94,2.4,2.43.88,6.36,3.35,8.75.15,18.6.46,37.2.32,55.8,0,5,1.6,6.36,6.36,6.2C383,2460.41,391.59,2459.77,399.31,2455.1Z"/><path class="cls-2" d="M381.76,2382.08l-17.4.44C370.08,2379,375.91,2380.21,381.76,2382.08Z"/><path class="cls-3" d="M1262.05,2382.86l1.86,1.86,1.72,1.94a62,62,0,0,1,11.83,41.54c-.69,10.51-4.75,19.52-10,28.25-.88,1-1.76,1.93-2.65,2.88l-3.71,3.69-2.92,2.55a12.35,12.35,0,0,0-5.46,4c-16.94,9.08-35.37,7.28-53.55,7.32-3.38,0-4-2.15-4.05-4.92-.22-6.8-.71-13.6-.8-20.41q-.48-38.07-.76-76.15c0-7.7.07-7.83,7.45-7.82,9.9,0,19.79.22,29.69.34,7.32,2.56,15,3.94,22,7.61a24.3,24.3,0,0,0,7.49,5.49Zm-18.11,74.81c15.13-8.71,20.71-22.29,19.27-39-1.52-17.79-10.8-29.93-28-35.33a59.69,59.69,0,0,0-19.21-2.59c-7.77.16-7.94.08-7.88,7.49.16,20.4.48,40.8.73,61.2-.08,3.36-.21,6.71-.22,10.07,0,3,1.69,4.51,4.59,4.5C1223.86,2463.91,1234.63,2464.29,1243.94,2457.67Z"/><path class="cls-3" d="M668.74,2368.6a323.56,323.56,0,0,0,20.5,34.78,23.65,23.65,0,0,0,5.59,9c6.09-5.94,8.69-13.88,12.82-20.79,4.23-7.1,8-14.5,11.92-21.76,5.78-2.18,5.78-2.18,15.79-1.36-2.22,6.91-6.34,12.7-9.68,18.83q-9.78,17.93-20.07,35.58a24.72,24.72,0,0,0-3.44,13.19c.13,13.61,1,27.24-.23,40.84-14.66-.18-12.32,1.85-12.74-13-.23-8.36-1-16.73-.77-25.07.23-7.53-2.31-13.74-6.12-20-8.74-14.26-17.12-28.74-25.56-43.17-1.22-2.09-3-4-3-7.68C658.72,2367.71,663.7,2367.23,668.74,2368.6Z"/><path class="cls-3" d="M1745.15,2378.59h69.74c2.17,0,4.35-.12,6.5.08,5.84.54,8.63,2.88,8.68,8.75q.33,37.68,0,75.37c0,6.5-2.69,8.75-9.15,9.27-2.16.18-4.34.07-6.51.07q-69.27,0-138.55,0c-2.17,0-4.35.11-6.51-.06-6.47-.53-8.75-2.77-9.23-9.26-.22-3.08-.07-6.2-.07-9.3,0-20.78-.06-41.56,0-62.34,0-10.68,1.89-12.53,12.5-12.56C1696.79,2378.55,1721,2378.6,1745.15,2378.59Zm-64.6,46.26c-3.82,2.77-3.93,6.71-3.28,10.8a3.06,3.06,0,0,0,3.2,2.71,2.83,2.83,0,0,0,2.72-2c2.48-5.39,2.53-5.39,7.2-2.41,1.3.83,2.48,1.85,3.77,2.68,4.38,2.82,8.93,4.41,13.72,1,3.39-2.39,3.74-5.7,1.73-12.8-2.92,11.34-4.82,12.23-15.85,6.68-3.38-1.7-6.72-2.93-10.54-2.83-1.81,0-1.52-1.46-1.51-2.65l2-1.82c3.11-1.29,6.16-2.78,9.35-3.81,4.11-1.33,8.12-2.77,11.62-5.36,4.2-3.12,5.06-7.5,4.45-12.32a9.55,9.55,0,0,0-7.49-8.45c-6.51-1.48-13.37-2.78-18.92,2.94-3.84,2.09-4.22,5.58-3.57,9.34a4.13,4.13,0,0,0,3.64,3.49,3.17,3.17,0,0,0,3.2-1.23c1.21-1.65,1.3-3.77-.28-4.88-2.31-1.63-3.5-3.14-1.82-5.81,4.13-1,8.06-3.08,12.5-2.19,3.79.76,7,2.41,8.13,6.46,1,3.88-.21,7.22-3.16,9.92-2.76,2.53-6.15,3.93-9.57,5.26s-7,2.27-9.35,5.39Zm124.21-34.23c1.85,2.59.46,4.24-1.41,6.15s-1,4,1.38,5,4.25-.39,4.73-2.77c.74-3.72.49-7.3-3.46-9.4-9.75-5.92-19.1-3.68-23.82,6.31-4.82,10.22-4.64,21.12-1.75,31.75,2.42,8.89,12,13,20.93,9.92,8.31-2.85,12.46-12.39,9.77-22.44-2-7.31-10.32-11.65-18.62-9.71-2.92.68-5.34,2.9-8.52,2.91-.8-14.8,5.17-20.45,19-18.14C1803.57,2390.26,1804.16,2390.47,1804.76,2390.62Zm-59.62,66.73c22,0,44,0,66,0,1.95,0,5.08.79,5.18-2.11.1-3.07-3.07-2-5-2.26a21.63,21.63,0,0,0-2.79,0H1682.12c-1.86,0-3.72.07-5.56.23-1.34.12-2.47.83-2.07,2.32a2.68,2.68,0,0,0,1.9,1.55,67.63,67.63,0,0,0,7.4.33Q1714.47,2457.38,1745.14,2457.35ZM1745,2448q14.42,0,28.82,0c13,0,26,0,39-.07,1.42,0,3.34.12,3.54-2s-1.7-2.19-3.16-2.32-3.1-.08-4.64-.08H1682.21a44.8,44.8,0,0,0-4.64.09c-1.46.15-3.32.17-3.14,2.39.13,1.52,1.58,1.75,2.75,1.81,2.48.15,5,.13,7.43.13Q1714.82,2448,1745,2448Zm27.3-12c-7.83-2.53-7.87-2.53-7.89-10.63,0-9,.12-18,0-26.95,0-1.91,1.19-4.41-2.34-5.87-.67,6.67-5.94,8.7-11.24,10.11.67,1.85,1.57,2.14,2.46,2,4.9-.64,6.56,1.55,6.31,6.32-.32,6.18-.14,12.39-.17,18.59,0,2.85-1,4.72-4.23,4.84-1.15,0-3.29-.46-2.62,3C1759.09,2437,1765.66,2438.45,1772.33,2436Zm-29.47-28.46q.23-14.07-11.75-14.33c-7.89-.16-12.68,4.93-12.8,13.61s4.62,14.42,12,14.61C1737.92,2421.61,1742.72,2416.3,1742.86,2407.52Zm-7.61,28.63c-.08-2.53-1.47-4.57-4.38-4.54a4.5,4.5,0,0,0-4.7,4.73c0,3,2.13,4.28,5,4.2C1733.66,2440.48,1735.1,2439.1,1735.25,2436.15Z"/><path class="cls-3" d="M153.66,2472.14q-34.86,0-69.73,0c-2.17,0-4.35.12-6.5-.07-6.36-.54-8.87-3-9.12-9.35s-.07-13-.07-19.54c0-17.67-.07-35.35,0-53,.06-9.23,2.3-11.51,11.65-11.53q73.44-.11,146.89,0c9.43,0,12.17,2.76,12.22,12.21q.16,34.42,0,68.84c-.05,10.18-2.4,12.4-12.85,12.44C202,2472.2,177.83,2472.14,153.66,2472.14ZM131,2436.92c5.89,3.72,11.83,4.85,17.87.31,7.62-6.51,6.93-15-1.68-18.92-2.5-1.15-5.29-1.68-7.93-2.55-8.46-2.79-9.23-4.29-7.11-13.75,12.29-2.94,13.77-2.27,19.69,9.75.18-3.66.34-6.25.42-8.85,0-1.24-.2-2.91-1.44-3.06-6.59-.81-13.43-5.67-19.66,1-6.18,7.83-4.8,14.44,3.87,18.1,2.25.95,4.68,1.47,7,2.25,9.3,3.13,10.34,5.82,5.76,14.89-5.17.84-10.31,1.33-15.35-.68-2.91-2.36-2-6.9-5.28-10-1.75,3.17-.94,6-1.32,8.53C125.09,2439.25,128.76,2436.87,131,2436.92Zm20.86,6.66c-21.68,0-43.37,0-65.05,0-1.94,0-5.09-.84-5.16,2.08s3.09,2,5,2.25a12.66,12.66,0,0,0,1.85,0q64.14,0,128.26,0a30.06,30.06,0,0,0,5.53-.46,1.62,1.62,0,0,0,1.21-2.11c-.17-.5-.68-1.21-1.09-1.26a70,70,0,0,0-7.36-.53Q183.51,2443.53,151.9,2443.58Zm.95,9.34q-33,0-66,0c-1.94,0-5.07-.84-5.18,2.07s3.06,2,5,2.31a12.66,12.66,0,0,0,1.85,0q64.14,0,128.29,0a29.12,29.12,0,0,0,5.52-.47,1.62,1.62,0,0,0,1.22-2.11c-.16-.51-.65-1.23-1.06-1.28a67.49,67.49,0,0,0-7.36-.55Q184,2452.87,152.85,2452.92Zm-34.75-26.28c-3.3,9.7-3.3,9.7-13.61,9.72-1.86,0-3.72-.11-5.57,0-3.64.22-5-1.57-4.84-5,.1-1.86-.09-3.73,0-5.57.15-2-.88-4.87,1.68-5.71,2.88-.94,6-1.16,8.61,1.51,1.18,1.23.11,3.85,2.92,4.13a60.81,60.81,0,0,0-.14-15.37c-1.7.29-1.57,1.36-1.75,2.21-1.06,4.88-4.88,5.37-8.63,4.75-4-.66-2.58-4.35-2.67-6.88-.33-9.34-.25-9.34,8.7-9.4,2.16,0,4.33.09,6.49,0,3.7-.13,5.62,1.82,6.71,5.16.44,1.36-.66,3.63,2.26,4.22,0-2.74,0-5.2,0-7.66,0-2.72-1.32-3.9-4-3.89H83.26c7.09,3.2,7.11,3.2,7.15,10.78,0,5.89,0,11.77,0,17.65a30.27,30.27,0,0,1-.58,7.33c-.85,3.23-5.34.14-6.89,4h27.13c9.16,0,9.17,0,8.81-9.24A13.11,13.11,0,0,0,118.1,2426.64Zm84.56-3.91c5.94.95,11.4,1.23,16.72,0,6.39-1.51,9.26-6.18,9-13.33-.26-6.52-3.42-10.67-9.81-11.6a44,44,0,0,0-15.78.31C209.39,2404.35,209.46,2416.36,202.66,2422.73Zm-17,15.42c-3.85-2.1-7.33-2.78-7.12-7.29.38-8.34.1-16.72.12-25.08,0-1.53,0-3.11,1.51-4.1,4.34-2.82,11.4.37,12.49,5.66.24,1.16-.11,2.52,1.33,3.18,1.44-1.07,1-2.66,1.05-4.07.15-7.46.13-7.48-7.66-7.52-6.5,0-13,0-19.5,0-9.21,0-9.23,0-8.7,9.22a11.41,11.41,0,0,0,.73,2.48c1.93-1,1.28-2.72,1.63-4.13,1.23-5.11,3-5.78,9.68-5.45,4.76.24,4.43,3.25,4.43,6.39,0,6.81-.3,13.64.1,20.44.28,4.74-.85,8.23-5.72,10.29a49.32,49.32,0,0,0,8.73.45C180.55,2438.58,182.38,2438.38,185.61,2438.15Zm33.81-2.21c0-1.54-.54-2.89-2.33-3.18-2.15-.35-3.57.71-3.69,2.82a2.76,2.76,0,0,0,2.82,2.89C218,2438.63,219,2437.72,219.42,2435.94Z"/><path class="cls-3" d="M1102.84,2410.31a146.5,146.5,0,0,0,.28,26.24c-.94,10.54.88,21,.81,31.52,0,8.33-3.44,10.81-11.67,8.84a2.94,2.94,0,0,1-2.54-3.17c-.07-1.55-.07-3.1-.1-4.65-.55-30.32.09-60.66-1.55-91a21.65,21.65,0,0,1,0-2.79c.18-2.38-1-5.66,1.5-6.82,3.36-1.55,7.37-1.29,10.9-.14,2.52.82,1.75,3.66,1.79,5.72C1102.48,2386.17,1102.65,2398.24,1102.84,2410.31Z"/><path class="cls-2" d="M975.62,273.25q348.67,604.38,698.09,1210.05H277.23c-.11-.32-.23-.6-.31-.9s-.25-.67-.14-.87Q623.15,880.71,969.55,279.91c1.08-1.87,2.26-3.7,3.5-5.46C973.35,274,974.11,273.93,975.62,273.25ZM283.2,1479.05H1665.8L974.5,280.79Q628.29,880.91,283.2,1479.05Z"/><path class="cls-1" d="M239.93,2093.63c-3.63-3.36-7.1-6.42-10.4-9.65-15.08-14.72-30.06-29.56-45.22-44.2-3.18-3.08-4.35-5.7-3.05-10.45q26.6-97.18,52.64-194.52c.41-1.5.65-3,2.94-4.26,3.8,12.39,7.63,24.62,11.31,36.89,15.93,53.07,31.66,106.19,47.89,159.17,2,6.54,1.33,10.56-3.62,15.31-15.88,15.24-31.24,31-46.83,46.55C243.88,2090.18,242,2091.74,239.93,2093.63Zm-16.18-189.48a36.59,36.59,0,0,0-1.75,4.06q-16.35,59.94-32.69,119.88c-1,3.79.11,6.27,2.88,8.94,14.71,14.2,29.34,28.48,43.73,43,3.4,3.44,5.23,2.63,8.1-.41,6.59-7,13.26-13.92,20.4-20.32,3.91-3.49,4.17-6.66,2.72-11.34-8.59-27.75-16.92-55.58-25.3-83.4C235.87,1944.75,230,1924.92,223.75,1904.15Z"/><path class="cls-1" d="M1780.06,1952c0,27.6-.41,55.21.1,82.8.6,32.6-23.2,70.91-67.19,77.16-46.71,6.63-82.91-25-91.34-63.83a77.32,77.32,0,0,1-2-15.65q-1-81.4-2.17-162.79c-.23-13.91,2-27.1,8.23-39.61,12.07-24.29,39.73-46.38,79-43.2,30.29,2.45,59.21,25.52,69.09,55.84a77,77,0,0,1,4,22.78c.44,28.84,1.1,57.67,1.67,86.5Zm-28.27,21.54h-2.24c0-27.26-.07-54.53,0-81.8a89.39,89.39,0,0,0-1.66-17.53c-9.14-46.75-62.29-72.87-104.8-51.61a22.34,22.34,0,0,0-10.81,10.88,75.47,75.47,0,0,0-7.43,34.11q1.24,82.26,2.23,164.52a79.83,79.83,0,0,0,1.8,14.73c9.29,46.7,62.67,72.46,105,50.83a22,22,0,0,0,10.73-10.95c4.38-9.73,7.16-19.69,7.12-30.45C1751.72,2028.72,1751.79,2001.15,1751.79,1973.57Z"/><path class="cls-1" d="M1522.6,2399.48c0-3.09,0-6.17,0-9.26,0-9.95,0-10.06,9.54-9.38a45.69,45.69,0,0,1,10,1.82c8.26,2.52,12.44,8.59,12.37,17.39-.06,8.5-4.73,14.91-12.64,17.38-.3.09-.6.16-.9.24-16,4.24-18,2.75-18.13-13.55,0-1.55,0-3.09,0-4.64Zm3-.09c0,4.72,0,9,0,13.2,0,1.61.37,3.29,2.29,3.38,3,.14,6.78,1.3,8.92-1s.72-5.83-.74-8.58A12.59,12.59,0,0,0,1525.63,2399.39Z"/><path class="cls-1" d="M542.8,2380.75c3.07-.3,6.35.51,9.6,1.53,9.45,3,13.2,8.42,12.88,18.68-.29,9.06-5,14.77-14,17-16.55,4.07-17.79,3.12-17.89-13.56,0-4.94-.11-9.87-.14-14.8C533.17,2380.59,533.18,2380.59,542.8,2380.75Zm-6.14,18.55c0,3.87,0,6.9,0,9.93-.06,7.85,0,6.85,7,6.81a28.73,28.73,0,0,0,4.35-.67C548.15,2405.06,547.06,2403.43,536.66,2399.3Z"/><path class="cls-1" d="M1208.84,2449.41c-.25-20.4-.57-40.8-.73-61.2-.06-7.41.11-7.33,7.88-7.49a59.69,59.69,0,0,1,19.21,2.59c17.21,5.4,26.49,17.54,28,35.33,1.44,16.74-4.14,30.32-19.27,39l-.42-3.1c1.07-4.47,2.56-8.89,3.14-13.43,2.42-19.25-9.45-37-27.51-41.53-7.77-1.95-8.47-1.48-8.38,6.44.16,14.46.45,28.93.68,43.39Z"/><path class="cls-4" d="M1208.84,2449.41l2.61,0c.21,2.42.52,4.83.58,7.25s.46,4,3.49,4c9.77-.12,19.52-.13,28-6.1l.42,3.1c-9.31,6.63-20.08,6.25-30.73,6.32-2.9,0-4.6-1.51-4.59-4.5C1208.63,2456.12,1208.76,2452.77,1208.84,2449.41Z"/><path class="cls-1" d="M1745.14,2457.36q-30.67,0-61.35,0a67.63,67.63,0,0,1-7.4-.33,2.68,2.68,0,0,1-1.9-1.55c-.4-1.49.73-2.2,2.07-2.32,1.84-.16,3.7-.23,5.56-.23h126.41a21.63,21.63,0,0,1,2.79,0c1.92.26,5.09-.81,5,2.26-.1,2.9-3.23,2.11-5.18,2.11C1789.14,2457.38,1767.14,2457.35,1745.14,2457.36Z"/><path class="cls-1" d="M1745,2448q-30.21,0-60.42,0c-2.47,0-4.95,0-7.43-.13-1.17-.06-2.62-.29-2.75-1.81-.18-2.22,1.68-2.24,3.14-2.39a44.8,44.8,0,0,1,4.64-.09h126.42c1.54,0,3.1-.06,4.64.08s3.38.1,3.16,2.32-2.12,1.94-3.54,2c-13,.07-26,.06-39,.07Q1759.44,2448,1745,2448Z"/><path class="cls-2" d="M1804.75,2390.63a18.1,18.1,0,0,0-1.79-.47c-13.8-2.31-19.77,3.34-19,18.14,3.18,0,5.6-2.23,8.52-2.91,8.3-1.94,16.66,2.4,18.62,9.71,2.69,10.05-1.46,19.59-9.77,22.44-9,3.09-18.51-1-20.93-9.92-2.89-10.63-3.07-21.53,1.75-31.75,4.72-10,14.07-12.23,23.82-6.31C1805.59,2389.92,1805.18,2390.28,1804.75,2390.63Zm2.83,30.45c0-8.8-3.88-12.94-11.94-12.77s-12.34,4.59-12.41,12.8c-.07,8.5,4.77,14.06,12.35,14.2S1807.58,2430.14,1807.58,2421.08Z"/><path class="cls-2" d="M1772.33,2436c-6.67,2.47-13.24,1-19.69,1.47-.67-3.49,1.47-3,2.62-3,3.27-.12,4.22-2,4.23-4.84,0-6.2-.15-12.41.17-18.59.25-4.77-1.41-7-6.31-6.32-.89.11-1.79-.18-2.46-2,5.3-1.41,10.57-3.44,11.24-10.11,3.53,1.46,2.33,4,2.34,5.87.09,9,0,18,0,26.95C1764.46,2433.45,1764.5,2433.45,1772.33,2436Z"/><path class="cls-2" d="M1742.86,2407.52c-.14,8.78-4.94,14.09-12.54,13.89-7.39-.19-12.14-6-12-14.61s4.91-13.77,12.8-13.61S1743,2398.14,1742.86,2407.52Zm-4.23-.62a12.51,12.51,0,0,0-1.64-7.07c-2.29-3.56-5.91-4.56-9.52-2.66-4.37,2.3-4.14,6.46-4.17,10.43,0,3.77.41,7.61,4.34,9.46,3.4,1.6,6.62,1,8.94-2.28A12.32,12.32,0,0,0,1738.63,2406.9Z"/><path class="cls-2" d="M1682.69,2397.24c5.55-5.72,12.41-4.42,18.92-2.94a9.55,9.55,0,0,1,7.49,8.45c.61,4.82-.25,9.2-4.45,12.32-3.5,2.59-7.51,4-11.62,5.36-3.19,1-6.24,2.52-9.35,3.81-.42-.42-.84-.84-1.27-1.25,2.35-3.12,5.95-4.07,9.35-5.39s6.81-2.73,9.57-5.26c3-2.7,4.21-6,3.16-9.92-1.09-4.05-4.34-5.7-8.13-6.46-4.44-.89-8.37,1.23-12.5,2.19Z"/><path class="cls-2" d="M1681.72,2426.07c0,1.18-.31,2.68,1.5,2.64,3.82-.1,7.16,1.13,10.54,2.83,11,5.55,12.93,4.66,15.85-6.68,2,7.1,1.66,10.41-1.73,12.8-4.79,3.39-9.34,1.8-13.72-1-1.29-.83-2.47-1.85-3.77-2.68-4.67-3-4.72-3-7.2,2.41a2.83,2.83,0,0,1-2.72,2,3.06,3.06,0,0,1-3.2-2.71c-.65-4.09-.54-8,3.28-10.8C1680.94,2425.25,1681.34,2425.66,1681.72,2426.07Z"/><path class="cls-2" d="M1735.25,2436.15c-.15,2.95-1.59,4.33-4.11,4.39-2.84.08-5-1.2-5-4.2a4.5,4.5,0,0,1,4.7-4.73C1733.78,2431.58,1735.17,2433.62,1735.25,2436.15Z"/><path class="cls-2" d="M1683.86,2398.15c-1.68,2.67-.49,4.18,1.82,5.81,1.58,1.11,1.49,3.23.28,4.88a3.17,3.17,0,0,1-3.2,1.23,4.13,4.13,0,0,1-3.64-3.49c-.65-3.76-.27-7.25,3.57-9.34Z"/><path class="cls-2" d="M1806,2389.56c4,2.1,4.2,5.68,3.46,9.4-.48,2.38-2.27,3.71-4.73,2.77s-3.36-2.92-1.38-5,3.26-3.56,1.41-6.15C1805.18,2390.28,1805.59,2389.92,1806,2389.56Z"/><path class="cls-2" d="M1683.68,2424.24c-.66.6-1.31,1.21-2,1.82l-1.17-1.21,1.86-1.86C1682.84,2423.4,1683.26,2423.82,1683.68,2424.24Z"/><path class="cls-1" d="M151.9,2443.57q31.6,0,63.21,0a70,70,0,0,1,7.36.53c.41.05.92.76,1.09,1.26a1.62,1.62,0,0,1-1.21,2.11,30.06,30.06,0,0,1-5.53.46q-64.12,0-128.26,0a12.66,12.66,0,0,1-1.85,0c-1.93-.28-5.1.78-5-2.25s3.22-2.08,5.16-2.08C108.53,2443.55,130.22,2443.58,151.9,2443.57Z"/><path class="cls-1" d="M152.85,2452.92q31.14,0,62.28,0a67.49,67.49,0,0,1,7.36.55c.41.05.9.77,1.06,1.28a1.62,1.62,0,0,1-1.22,2.11,29.12,29.12,0,0,1-5.52.47q-64.14,0-128.29,0a12.66,12.66,0,0,1-1.85,0c-1.94-.27-5.1.72-5-2.31s3.24-2.06,5.18-2.07Q119.85,2452.87,152.85,2452.92Z"/><path class="cls-2" d="M118.1,2426.64a13.11,13.11,0,0,1,.76,2.7c.36,9.26.35,9.25-8.81,9.24H82.92c1.55-3.82,6-.73,6.89-4a30.27,30.27,0,0,0,.58-7.33c.07-5.88,0-11.76,0-17.65,0-7.58-.06-7.58-7.15-10.78h31.09c2.63,0,4,1.17,4,3.89,0,2.46,0,4.92,0,7.66-2.92-.59-1.82-2.86-2.26-4.22-1.09-3.34-3-5.29-6.71-5.16-2.16.07-4.33,0-6.49,0-9,.06-9,.06-8.7,9.4.09,2.53-1.31,6.22,2.67,6.88,3.75.62,7.57.13,8.63-4.75.18-.85,0-1.92,1.75-2.21a60.81,60.81,0,0,1,.14,15.37c-2.81-.28-1.74-2.9-2.92-4.13-2.58-2.67-5.73-2.45-8.61-1.51-2.56.84-1.53,3.68-1.68,5.71-.13,1.84.06,3.71,0,5.57-.17,3.45,1.2,5.24,4.84,5,1.85-.11,3.71,0,5.57,0C114.8,2436.34,114.8,2436.34,118.1,2426.64Z"/><path class="cls-2" d="M202.66,2422.73c6.8-6.37,6.73-18.38.1-24.66a44,44,0,0,1,15.78-.31c6.39.93,9.55,5.08,9.81,11.6.29,7.15-2.58,11.82-9,13.33C214.06,2424,208.6,2423.68,202.66,2422.73Zm8.6-13.19h.13c0,2.47,0,4.94,0,7.4,0,1.84,1.15,2.59,2.92,2.85,4.47.64,8.26-1.41,9.64-5.38,1.64-4.75.05-10.44-3.5-12.44-5.06-2.85-8.94-.83-9.2,4.79C211.23,2407.69,211.26,2408.61,211.26,2409.54Z"/><path class="cls-2" d="M185.61,2438.15c-3.23.23-5.06.43-6.9.47a49.32,49.32,0,0,1-8.73-.45c4.87-2.06,6-5.55,5.72-10.29-.4-6.8-.11-13.63-.1-20.44,0-3.14.33-6.15-4.43-6.39-6.71-.33-8.45.34-9.68,5.45-.35,1.41.3,3.15-1.63,4.13a11.41,11.41,0,0,1-.73-2.48c-.53-9.2-.51-9.21,8.7-9.22,6.5,0,13,0,19.5,0,7.79,0,7.81.06,7.66,7.52,0,1.41.39,3-1.05,4.07-1.44-.66-1.09-2-1.33-3.18-1.09-5.29-8.15-8.48-12.49-5.66-1.51,1-1.51,2.57-1.51,4.1,0,8.36.26,16.74-.12,25.08C178.28,2435.37,181.76,2436.05,185.61,2438.15Z"/><path class="cls-4" d="M132.2,2402c-2.13,9.45-1.36,10.95,7.1,13.74,2.64.87,5.43,1.4,7.93,2.55,8.61,4,9.3,12.41,1.68,18.92-.36-.4-.72-.8-1.09-1.19,4.59-9.07,3.55-11.76-5.75-14.89-2.32-.78-4.75-1.3-7-2.25-8.67-3.66-10-10.27-3.87-18.1Z"/><path class="cls-4" d="M131.2,2400.8c6.23-6.62,13.07-1.76,19.66-1,1.24.15,1.47,1.82,1.44,3.06-.08,2.6-.24,5.19-.42,8.85-5.92-12-7.4-12.69-19.69-9.74C131.87,2401.61,131.53,2401.2,131.2,2400.8Z"/><path class="cls-4" d="M131,2436.92c-2.28-.05-5.95,2.33-5.16-3,.38-2.57-.43-5.36,1.32-8.53,3.29,3.1,2.37,7.64,5.27,10Z"/><path class="cls-4" d="M148.91,2437.23c-6,4.54-12,3.41-17.87-.31l1.43-1.56c5.05,2,10.19,1.52,15.36.68Z"/><path class="cls-2" d="M219.42,2435.94c-.41,1.78-1.47,2.69-3.2,2.53a2.76,2.76,0,0,1-2.82-2.89c.12-2.11,1.54-3.17,3.69-2.82C218.88,2433.05,219.38,2434.4,219.42,2435.94Z"/><path class="cls-3" d="M283.2,1479.05Q629.09,879.53,974.5,280.79l691.3,1198.26Zm38.46-21.79H1614c2.17,0,4.35.09,6.51,0,5.4-.29,6-1.13,3.23-6.09-6.5-11.63-13.26-23.12-19.91-34.67q-106.63-184.85-213.25-369.68Q1288.77,870.42,1187,694.05q-104.09-180.4-208.18-360.8c-1.16-2-1.66-4.72-5.48-5.57Q648.13,891.4,321.66,1457.26Z"/><path class="cls-3" d="M1807.58,2421.08c0,9.06-4.48,14.37-12,14.23s-12.42-5.7-12.35-14.2c.07-8.21,4.35-12.62,12.41-12.8S1807.58,2412.28,1807.58,2421.08Z"/><path class="cls-3" d="M1738.62,2406.9a12.25,12.25,0,0,1-2,7.88c-2.32,3.24-5.54,3.88-8.94,2.28-3.93-1.85-4.36-5.69-4.34-9.46,0-4-.2-8.13,4.17-10.43,3.61-1.9,7.23-.9,9.52,2.66A12.43,12.43,0,0,1,1738.62,2406.9Z"/><path class="cls-3" d="M211.26,2409.54c0-.93,0-1.85,0-2.78.26-5.62,4.14-7.64,9.2-4.79,3.55,2,5.14,7.69,3.5,12.44-1.38,4-5.17,6-9.64,5.38-1.77-.26-2.88-1-2.92-2.85-.07-2.46,0-4.93,0-7.4Z"/><path class="cls-2" d="M321.66,1457.26q327-566.74,651.67-1129.58c3.82.85,4.32,3.56,5.48,5.57Q1082.93,513.63,1187,694.05q101.76,176.37,203.54,352.75,106.64,184.83,213.25,369.68c6.65,11.55,13.41,23,19.91,34.67,2.77,5,2.17,5.8-3.23,6.09-2.16.11-4.34,0-6.51,0H321.66ZM974.5,335.17Q651.71,894.69,330.61,1451.25c15,1.85,1279.78,1.18,1287.35-.73Q1296.62,893.51,974.5,335.17Z"/><path class="cls-5" d="M974.5,335.17Q1297.18,894.47,1618,1450.52c-7.57,1.91-1272.39,2.58-1287.35.73Q652.32,893.64,974.5,335.17Zm-219,1060.69c7.43,0,14.87.15,22.3-.07,3.38-.09,6.73-.94,10.11-1.41,48.73-6.81,88.4-29.35,117.71-69,22.74-30.78,36.7-65.27,40-103.6,2.22-25.47-2.16-50.09-12.3-73.54-15.68-36.23-39.55-66-73-87-49.57-31.13-101.62-29.56-154.08-8.3-35.75,14.49-61.69,39.94-77.21,75.35-13.46,30.71-19.43,62.66-13,96.14,7.15,37.49,27.7,66.73,57.27,89.64,31.32,24.26,67.26,32.25,106.11,25.58,26.8-4.59,51.17-15.47,70.72-34.72,33.25-32.74,45.17-73.08,36.22-118.36-12.57-63.57-67.66-100.35-133.54-91.26-26,3.59-46.49,17.88-62.44,38.67-25.63,33.37-28.81,74.22-8.41,108.86,20.51,34.81,60.61,51.87,96.93,41.28,27.76-8.1,59.47-36,55.79-75.26-2.73-29.1-18.42-52.46-49.82-59.57-24.95-5.65-50.49,8.4-58.65,32.48-7.3,21.53,3.18,43.52,23.54,49.42,12.14,3.53,25.14-2.13,29.62-12.88,4.94-11.84-1.54-20.5-14.2-19-.61.07-1.19.38-1.8.46-3.84.45-4.94-1.83-4.77-5.08.18-3.4,2.29-5.65,5-7.45a19.58,19.58,0,0,1,21.88-.09,30.58,30.58,0,0,1,12.86,30.76c-3.69,18.13-20,31.36-38.91,33.1-24.09,2.22-47.84-20.42-53.08-41.33-5.65-22.55,4.12-60.33,38.26-73.74s70-3.15,92.45,25.55c20.54,26.24,19.8,70.61,2.86,98.49-22.09,36.37-67.19,53.15-110.21,41.73-51.38-13.64-87.42-66-78.3-124.42,10.63-68.07,78.07-114.19,145.25-101.08,78.56,15.33,127,91.39,107.71,169.43-17.78,72-73.5,110.14-139.79,114.49-53.76,3.53-98.54-17.64-132.1-59.27-36.55-45.34-45.31-97.91-30.47-153.56,18.94-71,86.84-123.8,160.28-127.62q87-4.52,147.31,57.83c32.52,33.6,49.71,74.23,53.38,120.76a256.25,256.25,0,0,0,15,67.83c16.8,46,44.23,83.67,86.68,109.24,31,18.7,65,28.49,100.92,32.11,29.52,3,58.17-.27,85.91-10.52,45.08-16.64,79.4-47,104.74-87,35.52-56,39.4-115.86,15.83-177.23-32.17-83.76-119-133-206.59-117.92-93.21,16.07-166.23,106.74-142.74,211.34,18.23,81.15,99.87,142.11,189.08,123.39,77.23-16.2,126.91-89.8,118.18-160.35-9.4-76-70.68-122-134.74-121.08-50.63.75-87.74,24.2-110,69.29-15.21,30.77-18.11,63.28-3,95.19,22.16,46.69,72.9,82.41,135.73,57.49,35.49-14.08,66.95-56.36,55.6-103.11-7.61-31.35-25.93-53.15-57.81-61.78-38.94-10.55-77.22,11.81-86.18,50-7.4,31.55,13.35,62.73,45,67.36,16.48,2.41,41.08-6.46,46.42-32.39,3-14.41-5.75-29.18-19.26-32.94-7-2-12.93.36-17.81,5.19s-3.14,10.2-.48,15.45c.42.83.89,1.64,1.24,2.49,2,4.86,1.29,5.82-4.17,5.83-8,0-13.12-4.37-14.75-12.62-3.82-19.35,12.2-36.12,33.19-34.76,26,1.68,46.23,29.4,40.41,55.32-6,26.85-30.2,46.68-58.17,47.73-26.41,1-53.56-16.79-65.49-42.87-19.41-42.43,8-98.82,54.11-111.43a97.92,97.92,0,0,1,41.47-1.87c23.46,3.7,43.71,13.72,59.1,32.12,36.08,43.12,30.77,111.81-12.08,148.68-36.64,31.53-78.85,37.86-123.51,21.38-56.1-20.7-89.85-84.35-78.22-144.12,13.06-67.16,71.5-112.76,131.24-114.63,52.76-1.65,96.65,17.24,129.16,59.06,43.29,55.7,43.21,136.5,1.07,194.41-47.92,65.87-139.7,87.81-215.09,51.59-80-38.43-126.4-136.91-92.55-230,14.93-41.08,41.34-73,76.6-98.09a248.39,248.39,0,0,0,42.37-37.57c44.6-50.32,64.74-108.68,55.16-175.82-8-55.67-33.36-102.19-77.75-137.3-43.26-34.23-93-49.25-147.71-43.82C903.28,637.12,857.7,662.82,823,707c-46.22,58.89-55.27,141.79-18.23,206.21,33.05,57.5,82.52,90.82,149.34,95,40.67,2.51,78-9.2,110.35-34.27,50-38.78,72.79-90,65.41-153.13-5-42.28-25.77-76.46-59-103-48.08-38.47-116.56-42.6-168-10.24-50.61,31.85-76.26,91.81-62.67,147.52,15.57,63.82,77.62,107.57,141,96.41,58.94-10.39,103.87-63.72,93.28-125.55-6.8-39.66-28.74-67.47-67.39-80.25C963,731,916.08,752,898.84,793.23c-18.26,43.64,3,90.33,46.86,102.89,30.9,8.85,65-9.76,73.73-40.18,7.09-24.87-5.38-50.08-28.75-58.16-13.84-4.78-29.07-.79-38,10-6.88,8.25-8.38,19.44-3.71,27.75,6.73,12,17.56,12.55,25.28,1.37,1.35-2,2.29-5,5.31-4.38,3.25.66,5.24,3.19,5.88,6.49a15.18,15.18,0,0,1-1.84,10.73,24.58,24.58,0,0,1-27.18,11.45c-13.71-3.51-22.94-12.1-26.38-26-6-24.1,9.42-49.09,33.72-55.21,31.24-7.88,59.82,7.1,71.86,37.67,13,32.89-3.17,73.44-35.84,90.17-37,19-84.28,6-109.69-29.51-29.93-41.89-17.33-102.36,21-132,36.84-28.49,77.55-31.16,119-11.7,48,22.52,74.26,81.41,62.25,135-16,71.3-89.62,115.29-160.28,99.15-66.48-15.19-109.73-71.19-112.81-133.51-2.78-56,17.4-102.22,62.28-136.07,39.86-30.07,85.13-38.57,133.83-27.92,33.9,7.4,63.55,23.23,87,48.82,44.1,48.08,57,104.93,41.83,167.57-24.74,102-131.27,155.75-221,135.19-20.64-4.73-40.24-12.1-59.52-20.72-39.14-17.53-80.15-23.68-122.52-17-53.45,8.46-98.48,33-133.07,74.91-42.68,51.67-56.16,111.42-45.31,176.94,4.91,29.65,18.51,55.71,36.18,79.7C637.75,1369.33,689.62,1396.78,755.45,1395.86Z"/><path class="cls-2" d="M755.45,1395.86c-65.83.92-117.7-26.53-156.54-79.27-17.67-24-31.27-50-36.18-79.7-10.85-65.52,2.63-125.27,45.31-176.94,34.59-41.88,79.62-66.45,133.07-74.91,42.37-6.71,83.38-.56,122.52,17,19.28,8.62,38.88,16,59.52,20.72,89.77,20.56,196.3-33.16,221-135.19,15.2-62.64,2.27-119.49-41.83-167.57-23.47-25.59-53.12-41.42-87-48.82-48.7-10.65-94-2.15-133.83,27.92-44.88,33.85-65.06,80-62.28,136.07,3.08,62.32,46.33,118.32,112.81,133.51,70.66,16.14,144.29-27.85,160.28-99.15,12-53.54-14.23-112.43-62.25-135-41.48-19.46-82.19-16.79-119,11.7-38.33,29.64-50.93,90.11-21,132,25.41,35.56,72.65,48.47,109.69,29.51,32.67-16.73,48.79-57.28,35.84-90.17C1023.53,787,995,772,963.71,779.92,939.41,786,924,811,930,835.13c3.44,13.91,12.67,22.5,26.38,26a24.58,24.58,0,0,0,27.18-11.45A15.18,15.18,0,0,0,985.39,839c-.64-3.3-2.63-5.83-5.88-6.49-3-.61-4,2.42-5.31,4.38-7.72,11.18-18.55,10.61-25.28-1.37-4.67-8.31-3.17-19.5,3.71-27.75,9-10.74,24.21-14.73,38-10,23.37,8.08,35.84,33.29,28.75,58.16-8.68,30.42-42.83,49-73.73,40.18-43.86-12.56-65.12-59.25-46.86-102.89C916.08,752,963,731,1007.15,745.63c38.65,12.78,60.59,40.59,67.39,80.25,10.59,61.83-34.34,115.16-93.28,125.55-63.33,11.16-125.38-32.59-141-96.41C826.72,799.31,852.37,739.35,903,707.5c51.4-32.36,119.88-28.23,168,10.24,33.2,26.55,54,60.73,59,103,7.38,63.13-15.38,114.35-65.41,153.13-32.35,25.07-69.68,36.78-110.35,34.27-66.82-4.14-116.29-37.46-149.34-95-37-64.42-28-147.32,18.23-206.21,34.66-44.16,80.24-69.86,136-75.38,54.75-5.43,104.45,9.59,147.71,43.82,44.39,35.11,69.8,81.63,77.75,137.3,9.58,67.14-10.56,125.5-55.16,175.82a248.39,248.39,0,0,1-42.37,37.57c-35.26,25.05-61.67,57-76.6,98.09-33.85,93.08,12.54,191.56,92.55,230,75.39,36.22,167.17,14.28,215.09-51.59,42.14-57.91,42.22-138.71-1.07-194.41-32.51-41.82-76.4-60.71-129.16-59.06-59.74,1.87-118.18,47.47-131.24,114.63-11.63,59.77,22.12,123.42,78.22,144.12,44.66,16.48,86.87,10.15,123.51-21.38,42.85-36.87,48.16-105.56,12.08-148.68-15.39-18.4-35.64-28.42-59.1-32.12a97.92,97.92,0,0,0-41.47,1.87c-46.14,12.61-73.52,69-54.11,111.43,11.93,26.08,39.08,43.86,65.49,42.87,28-1,52.14-20.88,58.17-47.73,5.82-25.92-14.43-53.64-40.41-55.32-21-1.36-37,15.41-33.19,34.76,1.63,8.25,6.75,12.63,14.75,12.62,5.46,0,6.15-1,4.17-5.83-.35-.85-.82-1.66-1.24-2.49-2.66-5.25-4.36-10.67.48-15.45s10.8-7.15,17.81-5.19c13.51,3.76,22.23,18.53,19.26,32.94-5.34,25.93-29.94,34.8-46.42,32.39-31.62-4.63-52.37-35.81-45-67.36,9-38.2,47.24-60.56,86.18-50,31.88,8.63,50.2,30.43,57.81,61.78,11.35,46.75-20.11,89-55.6,103.11-62.83,24.92-113.57-10.8-135.73-57.49-15.15-31.91-12.25-64.42,3-95.19,22.29-45.09,59.4-68.54,110-69.29,64.06-1,125.34,45.12,134.74,121.08,8.73,70.55-41,144.15-118.18,160.35-89.21,18.72-170.85-42.24-189.08-123.39-23.49-104.6,49.53-195.27,142.74-211.34C1253,999.72,1339.81,1049,1372,1132.74c23.57,61.37,19.69,121.28-15.83,177.23-25.34,39.92-59.66,70.33-104.74,87-27.74,10.25-56.39,13.49-85.91,10.52-36-3.62-69.88-13.41-100.92-32.11-42.45-25.57-69.88-63.25-86.68-109.24a256.25,256.25,0,0,1-15-67.83c-3.67-46.53-20.86-87.16-53.38-120.76q-60.36-62.35-147.31-57.83c-73.44,3.82-141.34,56.58-160.28,127.62-14.84,55.65-6.08,108.22,30.47,153.56,33.56,41.63,78.34,62.8,132.1,59.27,66.29-4.35,122-42.44,139.79-114.49,19.27-78-29.15-154.1-107.71-169.43-67.18-13.11-134.62,33-145.25,101.08-9.12,58.4,26.92,110.78,78.3,124.42,43,11.42,88.12-5.36,110.21-41.73,16.94-27.88,17.68-72.25-2.86-98.49-22.48-28.7-58.4-38.93-92.45-25.55s-43.91,51.19-38.26,73.74c5.24,20.91,29,43.55,53.08,41.33,18.92-1.74,35.22-15,38.91-33.1a30.58,30.58,0,0,0-12.86-30.76,19.58,19.58,0,0,0-21.88.09c-2.66,1.8-4.77,4-5,7.45-.17,3.25.93,5.53,4.77,5.08.61-.08,1.19-.39,1.8-.46,12.66-1.54,19.14,7.12,14.2,19-4.48,10.75-17.48,16.41-29.62,12.88-20.36-5.9-30.84-27.89-23.54-49.42,8.16-24.08,33.7-38.13,58.65-32.48,31.4,7.11,47.09,30.47,49.82,59.57,3.68,39.26-28,67.16-55.79,75.26-36.32,10.59-76.42-6.47-96.93-41.28-20.4-34.64-17.22-75.49,8.41-108.86,16-20.79,36.44-35.08,62.44-38.67,65.88-9.09,121,27.69,133.54,91.26,9,45.28-3,85.62-36.22,118.36-19.55,19.25-43.92,30.13-70.72,34.72-38.85,6.67-74.79-1.32-106.11-25.58-29.57-22.91-50.12-52.15-57.27-89.64-6.39-33.48-.42-65.43,13-96.14,15.52-35.41,41.46-60.86,77.21-75.35,52.46-21.26,104.51-22.83,154.08,8.3,33.48,21,57.35,50.77,73,87,10.14,23.45,14.52,48.07,12.3,73.54-3.35,38.33-17.31,72.82-40,103.6-29.31,39.68-69,62.22-117.71,69-3.38.47-6.73,1.32-10.11,1.41C770.32,1396,762.88,1395.86,755.45,1395.86Zm424-19.18c-7.42-.48-14.89-.6-22.25-1.54a184.58,184.58,0,0,1-21.87-4.19c-101-25.86-162.32-132.56-134.24-233.18,13.3-47.67,40.89-85,80.65-113.76,17.91-13,34.75-27,48.88-44.12,38.06-46.06,56.66-98.42,50.12-158.49-6-54.67-28.77-101.19-70.74-137-45.49-38.84-98.7-55.43-158-47.11-60.3,8.46-106.79,39.9-138.34,92.05-23.8,39.34-32.09,82.17-24,127.76,7.37,41.65,28,75.95,59.49,103.56,37.06,32.5,80.69,46.82,129.7,42.13,41-3.92,75.7-21.86,104.28-51.73,54.32-56.76,58.57-144.57,9.19-205.62-26.18-32.37-60.3-51.37-102-54.46-39.85-3-75.79,8.39-104.95,36.18-37.45,35.68-52.41,79.39-39.3,130.22,15.07,58.44,75,103,140.4,88.18,51.54-11.72,95.92-60.15,82.35-124.93-10.34-49.39-53.2-77.23-94.41-74.5-34,2.25-59.07,18.89-71.62,50.67-16.21,41.06,2.73,80.43,41.19,93.85,23.13,8.07,50.23-1.15,64.18-21.38,11.57-16.79,11.51-38.55-.52-53.88-7.46-9.52-17.4-15-29.65-14.87-16.06.16-28.32,13-26.49,27.13.79,6.07,4.88,11.06,9.95,12.17,5.79,1.26,7.2-3.41,9.61-6.91,5.16-7.48,10.68-7.57,16.38-.44a14.14,14.14,0,0,1,2.63,14c-3.41,10.24-10.39,16.76-20.9,19.13-18.32,4.13-38.27-8.73-43.38-27.85-4-15-1.27-28.86,7.2-41.7,18.38-27.89,64-30.14,88.12-7.54,35.4,33.13,27.25,79.46,3.19,106.12C997.78,924,952.33,930.27,917,908.82s-51.67-53.18-47.39-94.73c2.89-28.07,14.85-51.76,36.42-70,37.5-31.63,94.42-34.9,136.35-8.43,44.87,28.34,66.94,86,53.49,139-14.48,57.09-67,100.7-132.25,102-37.77.78-71.36-12.34-99.26-37.77-40.34-36.76-55.88-83.1-48.61-136.89,6.11-45.29,28.1-81.6,65-108.53,56.63-41.35,132.83-41.75,190.76-4.43,63.74,41.07,89.81,101.57,81.39,176.17-6.7,59.35-36.65,105.17-87.65,136.6-43.54,26.82-90.45,35.78-140.86,25.82-22-4.36-42.72-12.41-63.1-21.56-35.88-16.11-73.58-22.22-112.48-17.34-57.61,7.21-105.34,33.4-141.33,79.27-37.26,47.5-48.77,102.1-41.22,161.21,3.86,30.22,16.82,56.85,34.26,81.44,24.77,34.9,56.42,60.72,97.89,73.22,29.87,9,60.26,10.28,91,5.46,27.39-4.28,52.8-13.55,75.23-30,38.52-28.2,61-67.06,72.09-112.72,8.24-33.82,5.45-67.11-8.79-99.11a193.78,193.78,0,0,0-50.72-68q-45.27-39.35-105.14-37c-20.24.79-39.79,5.36-58.8,12.46-75.19,28.07-100.51,103.17-93.79,161,4.74,40.83,26.76,72.32,59.23,96.22,43.46,32,103,32.91,149.61,3.56,56.1-35.32,73.43-113.07,37.07-168.46-18.64-28.4-45.62-43.67-79.27-47.79-41.65-5.1-74.38,9.47-97,44.7-20.27,31.62-22.2,64.43-2.48,97.39,18.28,30.54,52.67,46,86.51,38.93,40.74-8.48,65.41-48.46,53.7-87-8.59-28.29-37-45.85-64-39.49-24.55,5.78-39.79,30.72-32.42,53,4.37,13.2,17.15,21.63,30,19.93a17.46,17.46,0,0,0,13.51-8.79,11.65,11.65,0,0,0,.53-11.6c-2-3.87-5.81-2.65-9.14-2.41-.62,0-1.24.16-1.86.17-7.12.17-9.48-2.21-9.49-9.28a12.88,12.88,0,0,1,5-10.52c7.73-6.32,20.62-7.25,28.74-1.48,9.29,6.61,14.87,15.51,15.46,27.28,1.45,28.78-27.26,48.73-52.1,45.17s-41.5-19-48.71-43c-9.29-30.88,7.84-66.53,37.56-79.77a83.88,83.88,0,0,1,91.57,15.55C863,1177.92,863,1226.78,846,1258.44c-21.13,39.24-67,58.9-111.74,49.28-65.92-14.17-99-81.48-86.57-138.46,10.4-47.68,56.72-99.65,125.53-99.85,37.19-.1,70,13.51,96.5,39.57,40.17,39.53,51.85,87.83,37.94,141.83-22.62,87.77-105.12,122.14-174.46,113-36.52-4.81-68.38-20.87-93.53-47.61-49.39-52.5-61.68-114.79-38.44-181.86,26.34-76,106.64-132.74,204.21-117.57,83.42,13,154,86.46,161.31,174.71a279.25,279.25,0,0,0,15.14,71.6c22.83,63.54,65.14,107.38,129.82,128.44,35.27,11.48,71.33,15.72,108.14,9.15,43.17-7.71,78.29-29.78,107.79-61.58,44.76-48.25,62.39-104.7,50.14-169.64-18.66-99-110.4-167.28-213-149.55-87.35,15.09-157,101.22-139,198.76,13.75,74.28,87.21,142,178.47,127.41,73-11.65,133.38-82,119.86-163.19-10.32-62-59.45-109-127-110.21-44.67-.8-79.74,19-102.86,57.36-21.89,36.33-24.16,84.52,4.6,121.44,27.49,35.29,64.78,48.75,105.79,38.22,44.66-11.47,82.52-62.89,59.51-116.79-14.46-33.87-51.83-52.89-86-43-30.84,8.88-50.24,39.25-43.93,69.27,4.72,22.43,24.44,40.76,49.58,38.72,20-1.63,34.89-18.9,32.27-37.93-1.5-10.9-11.5-19.51-21-18.13-7.91,1.14-10.74,5.87-7.78,13.15.69,1.71,1.81,3.26,2.46,5,2.4,6.4.17,10-6.69,11.14-8.64,1.4-17.41-3.77-20.79-12.25-7.91-19.83,7.56-42.66,30.09-44.84,25.84-2.51,55,21.28,52.57,53.52-2.73,36.59-38.3,67.81-82.87,56.7-26.81-6.68-44.49-25.35-53.65-51.11-10.82-30.43,1.92-70.76,27.79-92.64,18.78-15.88,40.46-22,64.7-20.56,25.35,1.5,48.06,9.67,66.18,27.76,30.42,30.37,38.33,67.34,27.5,108-14.67,55-63.45,87-120.67,85.26-39.56-1.23-71.29-19.05-95.6-50-42.11-53.62-37.51-130.19,11.43-181.1,34.76-36.15,77.52-50.78,127.42-44.09,33.63,4.51,62.75,18.48,87.5,41.56,49.06,45.74,64,124.52,34.88,187.09C1308.06,1341.75,1252.21,1372.89,1179.49,1376.68Z"/><path class="cls-3" d="M1179.49,1376.68c72.72-3.79,128.57-34.93,160-102.34,29.16-62.57,14.18-141.35-34.88-187.09-24.75-23.08-53.87-37-87.5-41.56-49.9-6.69-92.66,7.94-127.42,44.09-48.94,50.91-53.54,127.48-11.43,181.1,24.31,31,56,48.78,95.6,50,57.22,1.77,106-30.25,120.67-85.26,10.83-40.62,2.92-77.59-27.5-108-18.12-18.09-40.83-26.26-66.18-27.76-24.24-1.43-45.92,4.68-64.7,20.56-25.87,21.88-38.61,62.21-27.79,92.64,9.16,25.76,26.84,44.43,53.65,51.11,44.57,11.11,80.14-20.11,82.87-56.7,2.4-32.24-26.73-56-52.57-53.52-22.53,2.18-38,25-30.09,44.84,3.38,8.48,12.15,13.65,20.79,12.25,6.86-1.11,9.09-4.74,6.69-11.14-.65-1.73-1.77-3.28-2.46-5-3-7.28-.13-12,7.78-13.15,9.54-1.38,19.54,7.23,21,18.13,2.62,19-12.31,36.3-32.27,37.93-25.14,2-44.86-16.29-49.58-38.72-6.31-30,13.09-60.39,43.93-69.27,34.21-9.86,71.58,9.16,86,43,23,53.9-14.85,105.32-59.51,116.79-41,10.53-78.3-2.93-105.79-38.22-28.76-36.92-26.49-85.11-4.6-121.44,23.12-38.37,58.19-58.16,102.86-57.36,67.55,1.2,116.68,48.23,127,110.21,13.52,81.14-46.83,151.54-119.86,163.19-91.26,14.56-164.72-53.13-178.47-127.41-18-97.54,51.6-183.67,139-198.76,102.63-17.73,194.37,50.56,213,149.55,12.25,64.94-5.38,121.39-50.14,169.64-29.5,31.8-64.62,53.87-107.79,61.58-36.81,6.57-72.87,2.33-108.14-9.15-64.68-21.06-107-64.9-129.82-128.44a279.25,279.25,0,0,1-15.14-71.6c-7.36-88.25-77.89-161.73-161.31-174.71-97.57-15.17-177.87,41.55-204.21,117.57-23.24,67.07-11,129.36,38.44,181.86,25.15,26.74,57,42.8,93.53,47.61,69.34,9.13,151.84-25.24,174.46-113,13.91-54,2.23-102.3-37.94-141.83-26.48-26.06-59.31-39.67-96.5-39.57-68.81.2-115.13,52.17-125.53,99.85-12.43,57,20.65,124.29,86.57,138.46,44.75,9.62,90.61-10,111.74-49.28,17-31.66,17-80.52-14.41-110.14A83.88,83.88,0,0,0,740,1132.75c-29.72,13.24-46.85,48.89-37.56,79.77,7.21,24,23.8,39.43,48.71,43s53.55-16.39,52.1-45.17c-.59-11.77-6.17-20.67-15.46-27.28-8.12-5.77-21-4.84-28.74,1.48a12.88,12.88,0,0,0-5,10.52c0,7.07,2.37,9.45,9.49,9.28.62,0,1.24-.12,1.86-.17,3.33-.24,7.11-1.46,9.14,2.41a11.65,11.65,0,0,1-.53,11.6,17.46,17.46,0,0,1-13.51,8.79c-12.89,1.7-25.67-6.73-30-19.93-7.37-22.3,7.87-47.24,32.42-53,27-6.36,55.39,11.2,64,39.49,11.71,38.58-13,78.56-53.7,87-33.84,7-68.23-8.39-86.51-38.93-19.72-33-17.79-65.77,2.48-97.39,22.6-35.23,55.33-49.8,97-44.7,33.65,4.12,60.63,19.39,79.27,47.79,36.36,55.39,19,133.14-37.07,168.46-46.6,29.35-106.15,28.42-149.61-3.56-32.47-23.9-54.49-55.39-59.23-96.22-6.72-57.84,18.6-132.94,93.79-161,19-7.1,38.56-11.67,58.8-12.46q59.77-2.33,105.14,37a193.78,193.78,0,0,1,50.72,68c14.24,32,17,65.29,8.79,99.11-11.12,45.66-33.57,84.52-72.09,112.72-22.43,16.42-47.84,25.69-75.23,30-30.76,4.82-61.15,3.54-91-5.46-41.47-12.5-73.12-38.32-97.89-73.22-17.44-24.59-30.4-51.22-34.26-81.44-7.55-59.11,4-113.71,41.22-161.21,36-45.87,83.72-72.06,141.33-79.27,38.9-4.88,76.6,1.23,112.48,17.34,20.38,9.15,41.05,17.2,63.1,21.56,50.41,10,97.32,1,140.86-25.82,51-31.43,81-77.25,87.65-136.6,8.42-74.6-17.65-135.1-81.39-176.17-57.93-37.32-134.13-36.92-190.76,4.43-36.89,26.93-58.88,63.24-65,108.53C808.49,855.88,824,902.22,864.37,939c27.9,25.43,61.49,38.55,99.26,37.77,65.22-1.34,117.77-45,132.25-102,13.45-53-8.62-110.66-53.49-139-41.93-26.47-98.85-23.2-136.35,8.43-21.57,18.19-33.53,41.88-36.42,70-4.28,41.55,12.1,73.3,47.39,94.73s80.77,15.13,107.26-14.23c24.06-26.66,32.21-73-3.19-106.12-24.15-22.6-69.74-20.35-88.12,7.54-8.47,12.84-11.2,26.71-7.2,41.7,5.11,19.12,25.06,32,43.38,27.85,10.51-2.37,17.49-8.89,20.9-19.13a14.14,14.14,0,0,0-2.63-14c-5.7-7.13-11.22-7-16.38.44-2.41,3.5-3.82,8.17-9.61,6.91-5.07-1.11-9.16-6.1-9.95-12.17-1.83-14.13,10.43-27,26.49-27.13,12.25-.12,22.19,5.35,29.65,14.87,12,15.33,12.09,37.09.52,53.88-14,20.23-41,29.45-64.18,21.38-38.46-13.42-57.4-52.79-41.19-93.85,12.55-31.78,37.61-48.42,71.62-50.67,41.21-2.73,84.07,25.11,94.41,74.5,13.57,64.78-30.81,113.21-82.35,124.93C921,960.41,861.11,915.8,846,857.36c-13.11-50.83,1.85-94.54,39.3-130.22C914.5,699.35,950.44,688,990.29,691c41.72,3.09,75.84,22.09,102,54.46,49.38,61.05,45.13,148.86-9.19,205.62-28.58,29.87-63.25,47.81-104.28,51.73-49,4.69-92.64-9.63-129.7-42.13C817.64,933,797,898.73,789.65,857.08c-8.06-45.59.23-88.42,24-127.76,31.55-52.15,78-83.59,138.34-92.05,59.32-8.32,112.53,8.27,158,47.11,42,35.83,64.78,82.35,70.74,137,6.54,60.07-12.06,112.43-50.12,158.49-14.13,17.09-31,31.17-48.88,44.12-39.76,28.74-67.35,66.09-80.65,113.76-28.08,100.62,33.19,207.32,134.24,233.18a184.58,184.58,0,0,0,21.87,4.19C1164.6,1376.08,1172.07,1376.2,1179.49,1376.68ZM936.05,1061.37c19.12,16.54,26.57,39,43.38,56.39,6.7-23.42,19.94-42.48,30.69-64.9C985.29,1059.5,961.63,1058,936.05,1061.37Z"/><path class="cls-2" d="M936.05,1061.37c25.58-3.33,49.24-1.87,74.07-8.51-10.75,22.42-24,41.48-30.69,64.9C962.62,1100.41,955.17,1077.91,936.05,1061.37Zm41.27,47.17c6.34-17.26,15.22-31.73,23.42-47.83l-53.85,4.52C959.27,1079,966.32,1094.26,977.32,1108.54Z"/><path class="cls-5" d="M977.32,1108.54c-11-14.28-18.05-29.58-30.43-43.31l53.85-4.52C992.54,1076.81,983.66,1091.28,977.32,1108.54Z"/><path class="cls-1" d="M947.05,2493.76s21.7,7.84,42.92-5.6-43.79-1.9-43.79-1.9Z"/></svg>