<svg id="Layer_1" data-name="Layer 1" xmlns="http://www.w3.org/2000/svg" viewBox="0 0 5440.21 1432.82"><defs><style>.cls-1{fill:#232323;}</style></defs><path class="cls-1" d="M3366.43,494.51c-28.54-119.4-56.24-235.28-84.06-351.14-.28-1.17-2.2-2-5.2-4.45-27.9,118.44-55.54,235.81-83.76,355.61-23.5,0-46.51,1.11-69.27-.78-5.72-.48-13.28-9.71-15.51-16.41-17.32-52-35-104-49.45-156.81-6.95-25.44-19.27-42-44-50.39-8.82-3-16.84-8.33-24.7-12.33.18-2.92-.28-5.23.44-5.69,37-23.43,33.11-53.54,19.6-89.74-19.08-51.11-33-104.13-49.91-158.72,24.29,0,46-1.9,67,1,7.12,1,15.67,13.3,18.23,22,32.88,112.09,64.78,224.47,97,336.77,2.33,8.11,4.83,16.17,13.06,24.13,9.81-44.26,19.74-88.49,29.41-132.78,16.61-76.08,33.38-152.13,49.33-228.35,3.39-16.2,8.69-25.27,27.69-23.23,18,2,36.45.42,57,.42,27.94,128.46,55.69,256,83.43,383.55l5,.61c2.66-7.7,5.66-15.31,7.91-23.13,32.71-113.77,65.61-227.5,97.61-341.47,4.14-14.72,9.92-21.15,25.85-19.93,18.8,1.45,37.8.34,59.83.34l-43,139c-1.88,6.07-3.83,12.12-5.74,18.19-16.74,53.1-16.74,53.1,21.35,94.52-5.39,3.3-10.1,7.72-15.62,9.31-35,10.1-51.06,34.23-59.8,68.78-12.26,48.44-29.95,95.49-44.2,143.47-4.13,13.91-10.6,18.93-25.09,18C3407.07,493.54,3387.23,494.51,3366.43,494.51Z"/><path class="cls-1" d="M441.83,494.49c0-60.55-1.2-117.72.56-174.81.75-24.52-4.42-43.31-26-56.24-4.7-2.81-8.71-6.79-11.95-9.37,1.06-4,1-6.21,1.86-6.74,31.89-19,38.37-47.21,36.33-82.66-3-52.23-.77-104.76-.77-159.26,8.3-.66,15.1-1.65,21.9-1.67,64.56-.12,129.13-.74,193.66.56,10.89.22,24.16,6.43,31.91,14.24C710,39.4,728.72,62.27,747.21,85.16c5,6.22,6.52,15.3,9.43,23.15.52,1.4.07,3.15.11,4.74,1.12,49.12,8.9,100.37-45,128.66,3.09,6.35,3.53,9.3,5.19,10.36,55.2,35.26,45,90.8,44.36,143.17a25.9,25.9,0,0,1-5.71,15c-21.2,25.84-42.67,51.46-64.75,76.54a24.41,24.41,0,0,1-16.22,7.41C598.19,494.65,521.77,494.49,441.83,494.49Zm71-276c31.35,0,61.31-3.93,89.76.91,43,7.33,62.14-19.81,80.62-48.23,16.4-25.21-14-93.59-43.51-95.69-41.7-3-83.77-.75-126.87-.75Zm-.11,205.23c33.17,0,64.58-3.66,94.74.91,39.41,6,59.93-13.92,78.26-42.92,18.82-29.77-4.57-89.14-39.27-91.48-44-3-88.41-.72-133.73-.72Z"/><path class="cls-1" d="M3775.06,939.14c84,0,163.65-.18,243.27.33,6.35,0,13.21,3.9,18.85,7.51,5.94,3.81,10.71,9.44,16,14.28,22.26,20.38,53.18,37,64.35,62.21s2.75,59.31,2.77,89.5c.05,71.55.7,143.12-.68,214.65-.23,11.62-7.63,24.63-15.16,34.34-45.19,58.18-104.59,77.24-177.62,69-48.74-5.46-98.6-1-151.77-1V1387c0-44.53-1.33-89.11.56-133.55,1-22.9-4.56-40-23.9-52.51-6-3.84-11.42-8.46-21.8-16.24,52.26-20.11,46-59.78,45.34-98C3774.46,1038.48,3775.06,990.17,3775.06,939.14Zm70.8,419.88c50.56,0,98.31.82,146-.35,23.74-.58,59.95-42.73,60-66.75q0-105,0-210c0-25-31.42-69.58-55.44-70.81-49.76-2.56-99.74-.77-150.53-.77Z"/><path class="cls-1" d="M4690.42,494.51c0-55.52-2.41-108,.82-160.14,2.25-36.19-6.78-63.38-38.3-79.59.64-4.33.34-6.69,1.14-7.15,35.72-20.38,38.45-53,36.88-89.63-2.16-50.53-.54-101.21-.54-154.33h26.07c41.39,0,82.79-.11,124.18,0,34.2.12,71.87-8.29,101.64,3.31,30.66,12,54.22,42.91,79.55,67,7,6.69,13.12,18.34,13.21,27.78q1.44,146.55,0,293.12c-.1,10.19-7.07,21.64-13.8,30.2-46.48,59.12-106.9,79.31-181.7,70.49C4791.79,489.93,4742.81,494.51,4690.42,494.51Zm71-419.93v349c49.47,0,97.11.73,144.71-.31,23.86-.52,60.68-42.15,60.68-66q0-108.34-.1-216.67c0-23.43-37.54-65.27-61.06-65.75C4858.07,73.91,4810.46,74.58,4761.41,74.58Z"/><path class="cls-1" d="M1566.72,248.68c45-18.67,47.79-54,42.47-90.81-7.55-52.2,10.74-88.79,53-121.46,28.83-22.27,54.7-37.75,91.37-33,14.9,1.9,30.87,3.11,45.27-.16,74.67-16.93,114,36.8,159.67,77.91,3.52,3.17,5.28,9.89,5.37,15,.5,28.5.24,57,.24,87.83H1897.7c-.69-5.38-2.75-11-1.86-16,6.09-34.34-6.41-60.52-35.3-78.56-10.71-6.69-23.26-13.05-35.47-14.21a371.34,371.34,0,0,0-71.58,0c-13.83,1.39-27.77,7.94-40.3,14.69-30.22,16.28-36.23,42.7-34.87,75.79,2.62,63.51.73,127.19.73,190.8,0,28.55,38,66.79,67.12,67.17,23.1.31,46.33-1.4,69.27.51,21.91,1.83,36-8,52.54-20.79,27.45-21.22,32-46.63,25.24-79.78h-90.74V253.6h163c0,35.88-2.63,72.37.73,108.3,3.47,37-11.22,60.05-37.31,85.51-36.89,36-75.78,46.48-126.53,49.32-73.4,4.09-132.13-13.08-177.25-70.88-7.52-9.64-13.63-22.54-14.8-34.48a385.82,385.82,0,0,1-.27-71.45c2.19-24.66-4.27-43.31-25.89-56.28C1579.44,260.85,1575.7,256.51,1566.72,248.68Z"/><path class="cls-1" d="M4139.79,251c46.53-22,45.57-60.54,40.57-97.84-6.6-49.17,11.28-82.14,49.8-113.26,31-25,59.38-43.11,99.75-36.35a42.12,42.12,0,0,0,14.3,0c75.38-13.84,134.39,13.87,181.11,71.61,5.9,7.29,10.8,17.27,11.61,26.4a361.48,361.48,0,0,1,.27,59.59c-2.77,35.86-.09,68.61,39.41,85.63-2.89,4.81-3.77,8.37-6,9.63-32.46,18.59-38.52,48.22-32.95,81.48,9.07,54.13-10.9,92.2-54.72,125.5-27.52,20.9-51.77,34.77-87.07,31.78-35.61-3-71.7-.07-107.53-1.11-8.61-.25-18.41-4.19-25.3-9.49-15.74-12.11-28.65-28.21-45.18-38.89-31.94-20.63-43-48.48-37-84.83.89-5.42-.19-11.14.18-16.68C4183.45,307.67,4185.36,271.43,4139.79,251Zm328.13.46q0-54.89,0-109.76c0-28.6-38.09-66.85-67.12-67.13-27.9-.27-55.8-.34-83.69,0-27.52.36-65.69,39-65.72,66.06q-.12,108.57-.11,217.14c0,25.8,37.6,65.17,63.6,65.67,30.27.59,60.58.74,90.85-.05,24.8-.64,62.11-40.12,62.18-64.59C4468,323.07,4467.93,287.27,4467.92,251.48Z"/><path class="cls-1" d="M3638.8,247.21c42.73-17.4,45-52.54,39.54-88.19-8.14-53.51,11.32-90.32,54.27-123,28.08-21.37,52.84-36.31,89.17-33,34,3.09,68.47-.25,102.65,1.2,10.81.45,23.44,4.7,31.61,11.53,26.8,22.39,61.47,42.38,75,71.63,13.08,28.31,6.81,67.25,3.37,100.94-3.32,32.58,22.48,42.59,38,60.34-.67,2.34-.61,4.65-1.59,5.22-35.42,20.76-41.2,53.65-35.3,89.92,8.12,49.85-11.12,83.9-50.18,115.62-30.28,24.6-58.24,40.8-97.52,35.43a160.25,160.25,0,0,0-45.3,0c-51.61,7.89-89.44-12.09-126.74-47.48-27.49-26.07-42.91-50.54-37-87.55.37-2.32,0-4.76,0-7.14C3678.82,292.88,3678.82,292.88,3638.8,247.21Zm110.33,2q0,54.75,0,109.52c0,25.56,38,64.37,64.18,64.83q44.13.78,88.27,0c26-.44,64.23-39.41,64.24-64.77q0-109.51-.09-219c0-25.45-38.22-64.61-64.1-65q-44.12-.77-88.27,0c-25.82.47-64.1,39.68-64.16,65C3749.14,176.17,3749.2,212.68,3749.13,249.19Z"/><path class="cls-1" d="M958.73,289.3V492.93H889.47V443.86c0-41.33-1.18-82.71.46-124,.93-23.37-3.95-41.84-24.66-54.53-5.34-3.27-10-7.6-13.67-10.4,1.28-4.85,1.2-7.1,2.12-7.63,34.52-20,38.18-51.32,36.39-87.55-2.51-50.71-.64-101.63-.64-154.63,8.17-.55,15-1.4,21.87-1.41,64.52-.11,129-.66,193.54.53,10.21.19,21.29,7,30.12,13.31,8.18,5.86,13,16.31,20.85,22.76,45.29,37,56,85.67,48,140.5-1.29,8.83-4.23,18.6-9.59,25.45-17.62,22.54-35.51,45.11-55.63,65.36-13.37,13.45-12.46,24-4.46,39.34,27.14,52.15,53,105,79.16,157.63,3.8,7.62,6.93,15.57,11.48,25.89-23.2,0-43.81,1.24-64.11-.74-6.31-.62-13.88-8.91-17.27-15.53C1115.9,424.49,1088,370.86,1062.86,316c-9.89-21.57-22.18-29.66-45.26-27.09C999.55,290.91,981.1,289.3,958.73,289.3Zm.92-70.86c36.56,0,71.39,0,106.22,0,38.38,0,80.78-52.59,67.05-88.54-7.74-20.27-27.23-36.11-41.7-53.73-1.15-1.4-4.46-1.44-6.77-1.45-41.14-.08-82.28,0-124.8,0Z"/><path class="cls-1" d="M1280.6,1428.66c-1.89.5-2.65.75-3.43.9-48.18,9.36-79.27-4.88-97-55.19-16.22-46.12-43.21-88.41-64.57-132.81-6-12.39-13.09-17.88-27.3-17.14-22.88,1.2-45.86.32-71.19.32v203.53H947.49v-33.93c0-46.11-1.43-92.28.57-138.3,1.08-24.62-4.59-43.19-25.87-56.33-4.65-2.87-8.48-7.07-12.64-10.62,1.53-3.59,1.83-6.7,3.37-7.54,33.88-18.46,36.42-48.75,35.1-83-2-52.2-.53-104.53-.53-159.45,52.24,0,102.52,3.67,152-1,58-5.42,97.07,12.73,135.37,59,36,43.47,25.67,87.07,25.37,132-.08,10.68-15.1,21.4-23.55,31.87-17.4,21.57-46.46,41.6-49.29,64.85s20.28,49.78,32.45,74.66c19.91,40.68,40.19,81.19,60.22,121.82C1280.72,1423.59,1280.37,1425.33,1280.6,1428.66ZM1018.81,1010v143.84h104.53c31.38,0,67.65-37.39,69.71-69.11,2.26-34.74-26.09-50.2-43-72.92-1.36-1.84-6-1.73-9.07-1.74C1100.59,1010,1060.17,1010,1018.81,1010Z"/><path class="cls-1" d="M4728.36,1224.74v203.37h-69.81V1273c0-47,0-47-37.12-85.37.68-1.84.85-5,2.33-5.86,34.6-19.17,36.86-50.25,35.36-85.32-2.2-51.42-.57-103-.57-157.39h41.86c48.59,0,97.34,2.36,145.72-.8,34.56-2.25,60.26,6.17,77.64,36.47a12.77,12.77,0,0,0,3.06,3.64c46,36,53.41,85,46.3,138.51-1.18,8.82-4.57,18.52-10,25.37q-28.19,35.48-58.81,69c-9,9.81-9.54,17.36-3.48,29.28,30.93,60.93,60.75,122.42,90.9,183.74.29.59-.08,1.49-.43,5.61-20.52,0-41.61,1.3-62.35-.79-6.2-.63-13.34-9.75-16.84-16.61q-43.41-84.93-85.28-170.63c-5.94-12.18-12.67-18.25-27.08-17.46C4776.81,1225.66,4753.77,1224.74,4728.36,1224.74Zm.5-70.86c28.53,0,55-2.53,80.77.6,38.1,4.62,63.79-8,84.45-40.65,19.64-31-2.13-99.22-38.86-102.71-41.4-3.94-83.47-.91-126.36-.91Z"/><path class="cls-1" d="M2177.57,493.36h-70.66V402.93c0-27.81-1.34-55.72.42-83.42,1.47-23.32-3.35-41.92-24.29-54.67-5.31-3.24-9.52-8.26-13.58-11.87.7-3,.57-5.12,1.41-5.62,31.76-18.95,39.28-46.89,36.78-82.55-3.1-44.29-.74-89-.74-133.47V4.73h68.71v207h206V5.75h70.72V74.07q0,36.95,0,73.91c.07,38.34-9.35,80.25,48.09,100.83-56.57,21.16-48.31,62.6-48.15,101.17.21,47.5.05,95,.05,143.4h-68.77V286.45h-206Z"/><path class="cls-1" d="M1788,1429.92c-21.72,0-41.49,1.06-61-.69-5.52-.49-12.58-8.29-15-14.31-12.56-30.92-24.41-62.16-35.3-93.7-4.08-11.8-10.15-15.71-22.45-15.58-56.56.57-113.12.73-169.67-.1-13.93-.21-19.42,5.34-23.59,17.47-10.34,30-22.67,59.42-32.7,89.56-4.58,13.76-11.68,18.71-25.94,17.68-16.47-1.19-33.1-.28-52.73-.28,12.33-33.83,23.56-65,35.07-96.08,10.49-28.33,20-57.12,32.39-84.6,8.75-19.39,8.25-34.16-9.3-47.47-4.74-3.6-7.85-9.35-11.49-13.84,1.77-2.48,2.41-4.48,3.54-4.81,46.13-13.26,63.36-49.23,76.45-91.18,14.42-46.19,33.72-90.85,50-136.48,4.42-12.36,10.54-16.83,24.08-16.85,54.42-.09,54.7-.73,73.36,49q79.2,210.89,157.94,421.95C1783.87,1415.36,1785.4,1421.37,1788,1429.92Zm-144.12-195.73c-24.67-67.07-48.23-131.13-71.78-195.19l-6.14.61-71.29,194.58Z"/><path class="cls-1" d="M2996.32,1186.18c52.28-21.13,51.65-58.73,46.52-95.34-7.16-51,11.86-85.35,52-117.16,29.78-23.59,56.73-41,95.31-34.76,7.77,1.25,15.91.18,23.88.18,102.47,0,102.54-.07,175.77,72.92,4.66,4.65,9.57,11.64,9.78,17.7,1,29.25.45,58.55.45,89.94h-68.32c-.5-7.8-2.52-15.09-1.13-21.67,7.74-36.64-9.46-60.7-39.15-78-8.42-4.92-18.56-9.09-28.1-9.52-27.83-1.26-55.79-1.32-83.61,0-9.39.45-19.21,5.31-27.61,10.24-31,18.21-41.21,44.61-39.29,81.25,3.33,63.44.9,127.17,1,190.78,0,27.62,37.39,65.86,65.29,66.25q43,.62,86-.06c29.05-.49,65.12-37.27,65.2-65.75,0-10.26,0-20.51,0-32.89H3400c0,26.66.64,53.46-.49,80.19-.25,6-5.59,12.82-10.43,17.28-23.41,21.56-47.08,42.89-71.54,63.24a40,40,0,0,1-23.21,8.54c-47.79.78-95.6.87-143.39,0-8.54-.15-18.3-4.15-25.19-9.4-15.78-12-28.79-28-45.34-38.65-32.05-20.59-43-48.56-37.14-84.89.87-5.43-.23-11.14.18-16.68C3046.16,1243.34,3046.94,1207.59,2996.32,1186.18Z"/><path class="cls-1" d="M825.15,1119.87c-3.52.67-5.83,1.4-8.17,1.52-57.39,3-57.39,3-58.72-53.1-.5-21-39.61-57.62-63.25-58.1q-45.39-.91-90.8,0c-24.39.51-62.64,40.21-62.65,64.1q-.09,109.7,0,219.4c0,25.71,37.87,64.83,63.75,65.29q44.19.79,88.41.1c28.56-.43,64.52-37.76,64.56-66.24,0-10.89,0-21.79,0-33.28H827.7c0,28.19.25,55-.27,81.77-.08,4.17-3.36,8.51-5.85,12.32-1.68,2.58-4.6,4.34-6.93,6.51-74.92,69.84-75,68-179.41,70.7-46.82,1.23-83.73-7.78-119.89-41.28-31.94-29.59-52.19-57.34-44-101.14a13.49,13.49,0,0,0,0-2.38c0-58,0-58-36.49-99.38.47-1.37.52-3.51,1.5-4.08,32.29-19,41-48.21,34.87-83-9.95-56.7,11.28-96.73,57.5-131.12,26.45-19.68,49.61-32.58,83-30,34,2.66,68.53-.7,102.66,1.25,13,.74,26.07,7.85,38,14.17,8.2,4.34,13.58,13.88,21.72,18.43C834.42,1006,834,1060.59,825.15,1119.87Z"/><path class="cls-1" d="M4242.45,940.14h292.23V1009H4313.61v139.38H4483.3v71.23H4313v139.77h221.93v69.1H4242.45v-49c0-42.13-1.31-84.33.51-126.38,1-23.59-4.61-41.51-24.78-54.49-5.23-3.36-9.32-8.47-13.7-12.56.79-2.26.85-4.4,1.83-5,34-20.11,38.79-50.88,36.82-87.39C4240.41,1043.13,4242.45,992.35,4242.45,940.14Z"/><path class="cls-1" d="M1975.6,1428.61h-70.39v-46.72c0-42.13-1.47-84.33.56-126.37,1.18-24.56-4.3-43.29-25.73-56.39-4.66-2.85-8.62-6.85-11.91-9.52.91-3.94.77-6.2,1.66-6.74,33.87-20.39,37.84-51.54,36-87.7-2.51-50.64-.63-101.51-.63-154.16h288.23v68.08H1977v139.08H2146.7v70.77H1975.6Z"/><path class="cls-1" d="M2821.31,248.36c-.72,3.11-.64,4.32-1.11,4.59-37.47,21.8-38.76,56.54-37,94.53,2.22,47.56.53,95.3.53,145h-69.42V381.36c0-9.54.09-19.09,0-28.63-.41-38.13,10.69-80.42-38.26-97.51,2-5.6,2.08-7.67,3-8.24,32.22-19.11,39.11-47.94,35.78-83.17-2.67-28.32-.54-57.09-.54-88.45H2573.62v-70h351.43V74H2784c0,46.7-.79,90.95.78,135.1.26,7.38,10.35,14.81,16.7,21.46S2815.28,243,2821.31,248.36Z"/><path class="cls-1" d="M2626.26,940.38v68.41h-141c0,47.38-2.88,92.61,1.67,137.07,1.47,14.28,22.58,26.56,34.73,39.76-.5,1.47-.58,3.7-1.6,4.28-36.08,20.63-37.47,53.76-35.87,90.21,2.15,49,.53,98.15.53,148.54h-69.18V1311.9c0-8-.23-15.91,0-23.85,1.3-38.8,7.92-79.46-38.13-98.17,1.7-4.87,1.77-7,2.74-7.58,33.45-19.39,39.26-49.32,35.87-85-2.61-27.51-.52-55.45-.52-85.8h-140.7V940.38Z"/><path class="cls-1" d="M1358.12,4.76h68.79V97.82c0,19.85.93,39.76-.2,59.55-2.1,36.71-3.7,72.66,37.84,88.79-.88,4.49-.66,6.81-1.55,7.36-34.31,21.16-38.83,52.9-36.76,90.07,2.73,49,.67,98.29.67,149.18h-68.79V456.19c0-44.47-1.39-89,.53-133.39,1.09-25.18-3.93-45-26.21-58.66-4.65-2.86-8.51-7-11.77-9.76.51-3.63.21-6,1-6.44,35.14-20.61,38.81-52.75,37-89.65C1356.3,107.78,1358.12,57.06,1358.12,4.76Z"/><path class="cls-1" d="M3602.88,1428.93h-68.74v-32.44c0-46.07-1.32-92.19.52-138.19,1-25.16-4-45-26.25-58.78-4.65-2.87-8.61-6.87-11.75-9.41.64-4,.36-6.44,1.17-6.89,36.06-20.2,38.44-52.9,36.85-89.51-2.18-50.53-.54-101.24-.54-153.25h68.74v152.59c0,54.5,0,54.5,37,91.59-.26,1.51,0,3.9-.9,4.4-35.63,20.5-38.24,53.2-36.65,89.76C3604.48,1327.89,3602.88,1377.14,3602.88,1428.93Z"/></svg>