<svg id="Layer_1" data-name="Layer 1" xmlns="http://www.w3.org/2000/svg" viewBox="0 0 5631.21 1435.47"><defs><style>.cls-1{fill:#630402;}.cls-2{fill:#770b06;}</style></defs><path class="cls-1" d="M4335.51,66.11l6-1c8.51,8.22,16.07.16,20.41-3.93,12.32-11.6,27.05-14.4,42.56-17.18,28.54-5.13,51.18,9.52,51.68,34.31-11.37-1.25-16.36,3.2-16.21,15.23.1,7.69-3.15,15.37-4.47,23.13-3.17,18.63-8,37.37-3.22,56.29,12.14,48.23,36.73,90.13,67.91,128.24,7.31,8.93,6.95,22.45,18.57,28.37,8.39,4.28,14.44,9.95,14.23,20.76-.1,5.47,5.15,9.11,9.68,11.79,4,2.36,5.28-1.61,7-4.14,28.54-43,63.18-81.95,87.49-127.7,16.93-31.86,25.16-65.42,17.76-102.73-4.25-21.44-14-39.22-23.54-57.83-6.21-12.17-2-19.64,11.62-19.8,24-.28,47,2.28,64.1,23.12,7.3,8.9,13.7,18.46,21,27.14,17.74,21.06,29.85,45.37,41.43,69.71,11,23.06,16.14,48.41,32,69.78,14.89,20,25.25,43.34,39.43,64,7.56,11,18.9,20.69,29.7,27.48,11.68,7.35,25.94,12.89,40.46,16.11,15.21,3.38,16.19,7.56,6.67,19.89a39.07,39.07,0,0,1-10.55,9.42c-20.24,12.21-43.42,14.88-65.44,11.77-26.54-3.74-52.76.35-79-2-4.51-.4-8.61,1-10.45,5.51-1.46,3.59-2.68,6.86-7.35,7-15,.46-27.15,8.82-38.21,16.95-15.11,11.1-30.08,24.76-35,43.12-2.76,10.21-5.45,20.26-9.58,30-1.21,2.87-2.63,6-2.53,9,1.31,39.53-3.44,79.18,2.57,118.64,1,6.56,2.65,14.41-3.63,19.4-20.54,16.34-34,40.3-57.15,53.57-11,6.28-8.32,9.62.79,13.66l-15.43,9.09c-.5-3.68-1.06-9.05-5.67-7.63-7.35,2.25-15,1.78-22.42,6-10.47,6-24.15,9.29-33.67-1-7.35-8-15.43-11.6-25.1-14.66-7.76-2.45-14.52-7-21.3-12.44-16.15-12.83-27.55-30.57-45.24-41.66-5.78-3.62-11.27-9.64-8.65-17.28,11.35-33.07,2.65-67.26,6.49-100.59,2.14-18.58-6.54-34-10.54-50.44-8.42-34.66-32.39-61-57.48-84.88-22.1-21-41.16-44.86-68.38-61.5-19.72-12.06-37.63-28.17-58.17-40-30-17.28-60.91-31.36-96.65-30.15-5.37.19-11.67.39-13.16-6-1.64-7-3.67-15.5,2.71-21,20.4-17.57,29-40.38,34.78-66,6.85-30.64-2-57.83-15.58-83.27-9.95-18.63-5.76-35.52,15.72-38.82,15.37-2.37,30.75-4.24,46.76-.57,38.81,8.9,75.28,21.4,101.91,53.23,6.12,7.31,12,2.17,13.46-2.72C4329.07,82.4,4335.77,75.46,4335.51,66.11Z"/><path class="cls-2" d="M1530.22,572.32c-15.25,43.29-43.58,58.45-82.3,44.78-34.8-12.29-52.15-53.87-39.1-93.7,20.32-62,87-78.92,142.31-36.72,61.18,46.69,69,141.45,42.74,196-7.67,15.9-20.38,27-35.46,35.14-13.87,7.5-28.12,14.61-42.86,20.15-28.5,10.72-53.74,11.37-83.27-6.63-59.68-36.38-126.4-41.75-194.14-23.52-68.47,18.42-138.21,16-207.9,13.64C970,719.42,910.18,714.62,851.7,698c-100.56-28.67-170-89.79-203.79-189.88-12.73-37.71-34.55-69.65-65-95.66-18.36-15.69-19-18.18-4-35.77,34.28-40.19,58.84-85.94,80.65-133.65C700.9,152.53,774,99,866.3,68.89c68.82-22.45,140-29.78,212-33.41,81.33-4.1,160.21,3.58,235.13,37.75a50.82,50.82,0,0,0,11.9,4.15c8.19,1.46,18.83,5.14,24-1.19,5.32-6.5-4.42-12.73-8.09-18.77-8.34-13.73-6.32-22.51,8.48-26.87a168.08,168.08,0,0,1,79.86-3.79c10.49,2,18.25,7.92,22.21,18.15,12.64,32.57.69,85.19-24.61,109-18,16.91-39.73,22.41-64.23,20.14,19.12,51.06,8.08,93.73-30.41,122.09-6.49,4.78-13.44,8.63-21.17,10.34-9.06,2-18.3,1.36-25.12-5.93-7.19-7.68-3.06-15.81.73-23.4,36.37-72.84,2.75-123.55-55-153.37a178.57,178.57,0,0,0-30.71-12.48C1162.45,99.7,1122.74,94,1082.42,101c-40.54,7-72.53,27.17-92.52,64.57a233.26,233.26,0,0,0-27.51,96.49c-2.55,40.26,12.1,73.12,42.05,99.77,32.43,28.86,32.33,30.65-3.2,56.67-20.49,15-37.83,32.12-43.24,58.21-3.73,17.95-2.64,35.87,1.85,53.37,13.36,52.18,33.73,100.78,89.12,120.55,58.16,20.76,117.88,22.35,176.86,1.17,21-7.54,33.47-22.81,36.1-45.68,4.6-40.11,1.31-80.32,2-120.47.18-9.67-5.5-14.08-14.77-15.15-15.14-1.74-29.33,2.75-43.58,6.42-27.52,7.09-54.13,17.6-82.39,21.87-24.41,3.68-32.11-2-31.26-26.06,1.79-50.61,17.89-97,44-140.23,9.32-15.46,23.1-18.83,39.37-16,69,12,135.18,32.26,196.53,66.69A64.17,64.17,0,0,1,1385.48,394c13.74,13.76,14.38,27.78,2.45,43.42-44.18,57.89-47.71,132.33-8.94,188.92,25.11,36.67,78.21,57.89,121.23,48.46,45.38-9.95,65.5-64.23,36.13-97.58C1534.72,575.35,1532.44,574.06,1530.22,572.32ZM1077,705.35c-11.47-13.14-27.2-10.22-39.18-19.74-13.56-10.77-24-24.52-37.63-34.47C973.87,632,955,608,943.42,577.63c-18.81-49.6-20-97.11,10.06-143.75,7.62-11.81,17.41-19,27.64-26.82,13.24-10.16,11.8-20.59,4.79-35.38-9.47-20-26.84-33.66-33.12-57.66-7-26.72-7.69-52.41-9.16-78.89-1.81-32.73,12.49-61.27,28.69-86.62,18.69-29.24,41.8-56.24,74.12-73.88,17.1-9.33,33.87-18.32,52.31-23.4-16.78-11.46-34.47,0-51.56.12-37.22.31-75.49.46-111.22,14.43-20.85,8.16-43.77,8.72-63.83,20.56-21,12.38-44.67,20-63.47,36.46-8.93,7.82-20.88,10.79-30.25,18.76-40.47,34.45-72.9,74.72-95.58,123-16.15,34.38-31.56,69.27-56.86,98.54-6.41,7.42-10.54,16.79-16,25.06-5.3,8-2.67,14,4.33,18.91,30,20.83,46.93,49.09,58.11,84.21,10.88,34.18,27.85,67.74,52.89,94.13,20.91,22,40.92,45.51,69.11,60.67,34,18.25,68.88,32.68,106.1,41.93,35.29,8.76,71.87,8.37,107.53,15.16C1029.88,707.33,1052.51,709.4,1077,705.35Z"/><path class="cls-1" d="M3348.21,564c-2.92-12.17,2.54-23.94,1.67-36-1.75-24-11.13-44.64-27.68-62.07,1.15-6.25,17.21-8.82,4.87-18.23-5-3.8-10.17-7.29-6.49-13.87,3.11-5.57,9.74-3.49,14.55-2.81,24.28,3.42,40.46,19.66,53.63,38.07,12.47,17.43,21.79,37.09,33,55.45,17.54,28.69,37.45,55.8,64,76.71,14.25,11.23,28.09,24,46.5,29.14,41.1,11.4,82,9.33,123-1,28.59-7.21,49.18-34.72,44.53-63.65-1.73-10.79-3.57-24.72-16-29.67-6.11-2.43-10.41-5.64-15.4-9.48-19.38-14.9-35.83-35.45-63.62-35.59-13.35-.06-24.22,5.85-35.09,12.68-5.14,3.22-11.76,7.39-17.6,4.26-6.82-3.67-4.07-10.9-2.7-17.14a17,17,0,0,0-.58-7.59c-7-26.32-16.34-51.46-35.81-71.54l0,0c-26-27.95-54.83-52.46-69.42-90.73a238.87,238.87,0,0,1-15.45-82.6c-.44-29.31,7.44-58.09,25.55-82.63,18.25-24.74,36.28-49.42,64.13-65.13,13.62-7.69,28.55-13.66,41-22,20.64-13.86,44-15.66,66.18-21.19,35.56-8.86,70.89-.53,104.95,11,41.91,14.15,84.43,24,129,23.3,4-.06,10.29-1.7,11.39,2.89,3.85,16,15.47,29.18,14.67,47.21-.86,19.32-2.82,39,2.67,58.21,2,7.16,4,13.36,13.33,12,9.43,12.12,13.38,27.76,24.78,38.62-11.43,9.76-3.84,16,4,22.38,4.67,3.81,12.84,6.87,10,14.18s-11.18,4.68-17.15,4.29c-19-1.26-36.08-9.71-53.78-15.78a9,9,0,0,1-6.37-8.33c-.46-8.92-6.57-13.23-13.78-15.5-6.17-1.94-9.64-6.09-12.83-10.91-15.23-23-18.93-51.37-36.06-74.05-11.27-14.93-23.35-25.3-41.39-27.42-15.11-1.78-29.7-3-45.81.61-11.85,2.62-24.19,2.16-36.36,8.1-10.33,5-19.94,8.56-23.52,20.71-.57,2-1.72,5.41-6.05,5.75-7.52.57-11.1,7.25-12.46,13.14-6.58,28.61-8.08,57.79,13.93,80.31,16.32,16.69,33.16,36.53,61.06,32.91,14.49-1.88,27.49-8.66,40.1-15.66,4.51-2.5,8.7-4.13,13.39-2.55,6.22,2.08,4.27,7.85,4.15,12.24-.11,4.12-1.75,8.18-2.39,12.32-4,25.47,2.91,50.09,17.79,56.39,35.59,15,64.24,37.86,86.36,69.15,12.3,17.41,24.24,37.41,20.59,57.91-3.09,17.33-2.9,34.34-4.88,51.41-2.21,19.07-6.89,38.67-17,54.42-38.68,60.57-98.57,90.38-165.84,107.46-25.59,6.5-53,2.69-78.21,7.9-35.16,7.26-65.11-3.56-92.7-19.34-21.27-12.17-42.66-24.58-64.43-35.7-16.79-8.58-31.85-22.76-52.51-22.41-9.58.16-18.79-1.51-28.18-3-13.6-2.08-18.94-9.48-18.7-22.63.3-16.38.82-32.82-.16-49.15-.83-13.71-1.43-27.78-7.87-43.64-7.73,14.72-3.32,27.49-4.53,39.62C3353.54,552.28,3356.06,559.8,3348.21,564Z"/><path class="cls-2" d="M1532.08,165.9c41.31-18.42,69.2-9.19,83.81,26.93,16.14,39.9.14,78-38.23,92.08-22.53,8.27-45.79,10.51-68.5,4.23-30.42-8.41-45.81-31.12-52.32-61.44-16.19-75.37,27.83-155.76,98.49-179.35,46-15.36,138.56-2.19,175,48.82,1.52,2.13,3.5,3.94,6.3,7,15.82-22.83,32.13-44.73,53.53-62,29.1-23.57,61-39.52,99.86-37,26.17,1.66,32,10.23,18.88,32.5-18.88,32.13-32.2,65.29-28,103.37,3.8,34,13.06,66.31,31.81,95.2,19,29.22,38.71,57.92,59,88.24,21.59-39.1,52.49-71.28,70.54-111.46,25.84-57.52,29.5-114.47-5.55-170.74-17.46-28-11.54-36.66,21.86-37.22,40.6-.68,73,17.88,102.08,43.89,17.76,15.88,31.7,35,45.3,55.44,43.69-55.58,103.11-66.34,167.3-60.57,60.23,5.42,105.62,55.66,114.12,121.69,2.81,21.77,3.39,43.52-1.37,64.68-11.95,53-59.5,75.46-116.85,56.33-51.11-17-65.35-77.91-27.17-116.09,20.65-20.65,43.38-17.75,68.78-4.28.35-18.92-5.58-32.88-19.34-43.19-37.58-28.16-87.32-15.24-106.1,29.95-42.3,101.83,15.83,171.08,101.7,180.17,9.2,1,22.51-4,26.76,10.75,3.91,13.55-3.3,32-16.9,41.54-25.93,18.12-55.29,19.43-85.19,15.55-16.17-2.1-32.05-6.33-48.17-8.94-61.13-9.89-135.75,32.79-158.21,90.24-.76,1.95-2.13,3.92-2.1,5.87.64,43.81-5.11,88,4.16,131.31,10.65,49.75,44.05,53.47,86.36,48.62,1.53-.17,3-1.28,4.5-1.43,9.3-.89,20.3-8.84,26.81,4,5.89,11.59-.47,21.68-7.66,30.31C2191.51,732,2137.1,739.5,2103.51,717a190.36,190.36,0,0,1-37-32.18c-4.51-5.1-7.43-6.66-13.74-1.2-18.52,16-41,25.64-63.13,35.49-11.61,5.16-23.31,5.31-35.29.35-22.51-9.33-44.74-19.34-63.54-35-6.73-5.62-9.27-4.68-14.8,1.18-10.48,11.11-22.25,20.88-34.65,30.06-34.31,25.38-85.9,15.26-113.37-11.89a45.94,45.94,0,0,1-11.32-18.87c-4.4-13.61,3.89-22.9,17.89-20,15.08,3.08,30.18,5.12,45.62,4.42,25.79-1.18,43.94-14.35,52.38-38.57,6-17.19,7.22-35.06,7.18-53.11-.06-22.74-1.31-45.59.32-68.22,2.83-39.38-22.38-62.33-48.23-84.14-42.49-35.84-91.27-43-144.28-27.76a134.6,134.6,0,0,1-82.71-2.21c-16-5.53-29-15-34.73-32.15-6-17.86-.83-27.66,17.36-29.19,38.11-3.21,71.29-15.61,98.23-44.37,41.07-43.82,25.79-127.13-.78-157.67-19-21.8-47.5-28.77-76.33-18.47C1544.79,122,1532.78,138.86,1532.08,165.9ZM2087,543.4c0-18.51,1.81-37.24-.38-55.49-4.46-37.2,22.6-57.47,44.9-75.71,16.4-13.42,36.07-26.58,59.34-33.16a154.32,154.32,0,0,1,75.79-2.28c29.48,6.29,57.59,2.64,85.56-4.92,6.45-1.74,15.1-8.23,13.25-17.54-1.74-8.78-10-9.18-17.83-9.42-44.76-1.36-77-25.81-101.18-60.19-22.13-31.44-36.14-67.69-49.21-103.81-12.74-35.18-27.59-69.17-51.39-98.28-12-14.65-24.85-29.22-41.92-38.24-10-5.31-23.86-12.5-32.54-5.1-7.83,6.67,5.87,17.19,6.53,26.24.86,11.72,14.26,14.83,15,24.36,2.12,26.85.68,54.29-5.09,80.11-9.19,41.11-30.15,77.46-56.45,110.77-7.58,9.6-20.87,13.63-25,24.29a42.56,42.56,0,0,1-14.45,19.31c-4.39,3.47-9.25,5.34-11.56,12.65-4.07,12.83-11.93,12.22-22.15,2.3-9.43-9.15-11.67-23.66-20.56-31.21-21.65-18.37-37.91-40.92-51.4-64.68-17.83-31.4-38.55-62.89-34.29-102.15.65-6-1.28-11.36-3.72-16.77-4.39-9.76-5-20.37,1.85-28.61,10-12.07,9.61-28,18-40.78,7.19-10.9-.44-15.64-11.13-14.66-12.32,1.12-23.23,6.27-33.22,13.67-21.06,15.6-36.1,36.38-49.18,58.45-16.8,28.34-24.5,60.81-38.41,90.33C1718.08,241.33,1704,282,1669.75,312c-22,19.29-43.48,33.32-72.92,33-8.11-.09-15.38,1.44-17.32,10.24-2,9.07,4.63,12.17,11.86,15.85,25.09,12.74,51.32,10.33,77.48,6.72,23-3.17,46.31-8.18,69-2,27.21,7.37,53.77,17.59,74,38.83,18.93,19.89,44,34.33,44.84,68,.83,35.29,3.17,70.45-.63,105.67-1.84,17-5.8,34.17,10.38,47.7,16.59,13.86,32.07,29.07,48.62,43,9.7,8.16,23.49,10.68,31.14,22.2,1.29,1.95,6.17,3.08,8.77,2.36,14.9-4.11,35.77,11.86,44.6-13,.25-.7,1.87-1.41,2.77-1.31,19.61,2.16,25.42-17.5,39.12-24.61,11.74-6.1,14.6-22.42,26.32-26.3,15.2-5,19.23-14.47,19.25-28.2Q2087,576.74,2087,543.4Z"/><path class="cls-2" d="M3058.86,444.52c-58.79,4.12-115.49-4.37-170.89-28.65,0,19.55-1.15,38.77.25,57.8,2.61,35.39,1.82,70.77,2,106.17.08,20.06,5.23,38.69,16.39,55.28,19.1,28.41,44.46,37.22,80.07,29.1,8.86-2,19.39-7.43,25.9,3,6.29,10.1,2,20.28-4.24,29.54-17.61,26.3-75.07,47.86-114.45,24a208,208,0,0,1-44-36c-5.34-5.68-8.48-6.46-15.13-1-19.36,15.79-42.07,26-64.94,35.72-11.74,5-23.39,4.89-35.33.08-23.09-9.3-45.48-20-64.83-35.72-7.33-5.94-10.66-4.74-16.42,1.25C2633,706.15,2611.82,727,2581,730.24c-32,3.34-60.52-5.8-82.72-30.47a37.29,37.29,0,0,1-9.09-16.47c-3.42-14.42,3.39-22.68,18-21,10.46,1.19,20.78,3.63,31.24,4.83,38.84,4.44,65.4-13,72.75-51.5,6.54-34.3,7.06-69.42-3.07-103.46-15-50.4-63.56-81.35-115.84-75.62-32.08,3.52-67.86,41.53-52,81.53,3.88.38,5.37-3,7.15-5.19,15.1-18.82,34.47-25.57,57.76-20,26.1,6.24,41.55,23.31,48.68,48.89,15.88,56.93-32.07,101.46-81.31,104.73-42.16,2.81-77.76-21.78-93.76-63.61-30.24-79.11,2.64-167.82,79.18-214.31,32.89-20,68.05-36.15,98.27-60.6,38.56-31.2,59.25-70.56,58.28-120.64-.47-24.28.85-48.61-3.33-72.76-3.91-22.55-14.27-32-37.22-33.18a128.08,128.08,0,0,0-40.79,4.23c-7.16,2-14.87,4.94-20.45-2.31-6.11-8-5.23-17-.47-25.33,11.44-20,29.9-30.7,51.37-36.6,19.78-5.43,39.87-5.54,59.49.46,30.63,9.37,61.92,12.34,93.77,12.3,103.7-.11,207.41-.39,311.12.21,61.34.36,122.56,3.28,181.78,21.81,37.36,11.69,70.06,31.13,91,64.77,37,59.46,41.33,122.7,16.39,188,1.49-8.87-6.36-16.28-3.48-25.59,10.84-35.11,6.18-69.59-2-104.72-3.48-14.83-9-30.45-15.29-41.82-8.4-15.29-26.71-26.41-38-42-.74-1-3-.93-4.41-1.55-22.47-9.5-44.73-19.1-68.59-25.45-32.7-8.69-65.89-11.45-99.19-15.3-18.48-2.14-31.27,10.28-47.5,13-4.77.79-12.31-2.63-13.67,4.25-1.32,6.66,7.36,7.84,10.83,12.22,2.51,3.17,6.62,2.78,10.33,2.81h0c1.72,1.1,3.67,2,5.13,3.34,7.16,6.69,19.58,2.78,25.14,10.94,16.11,23.65,26.38,50.68,32.54,77.88,8.51,37.57,3.78,75.54-4.17,113.79-9.5,45.68-32.3,81.6-64.83,113.14-7.44,7.22-17.28,9.76-25.29,15.63-2.48,1.82-6.15,2.69-5.95,6.6.23,4.63,4.29,6,7.7,6.78a54.63,54.63,0,0,0,12.55,1q26.16.17,52.34,0c11.71-.05,7.79,4.55,3,9.52a5.49,5.49,0,0,1-6.43.34C3071.23,438.62,3064.88,437.57,3058.86,444.52Zm1.23-335.79c0-8.06-3.58-10.7-11.13-7.5-32.49-15.24-66.55-19.51-101.71-13.31-38.54,6.79-53.85,20.57-59.61,53.11a172.57,172.57,0,0,0-2.62,31.44c.44,48.59,1.9,97.17,1.89,145.75,0,21,9.16,36,24.44,49,43.12,36.51,121.89,15.56,147.65-23.08,47.58-71.38,47.35-147,12.21-223.68,5.5-12.45-1.7-12.92-10.88-11.51ZM2753.4,697.94c3.55-.85,7.3-1.23,10.61-2.65,28.4-12.21,55.47-26.39,74.6-52a19,19,0,0,1,5.91-5.15c15.67-8.58,20.11-24.86,23-39.69,3-15.5,2.4-31.89,1.58-48.28-2.45-49-2.93-98.12-3.32-147.14-.69-86.07-3.45-172.19,1.82-258.31,1.61-26.27,12.55-46.77,25.65-67.52,1.85-2.94,6.76-4.71,4.86-9s-6.54-2.5-10-2.52c-61.27-.29-122.55.54-183.79-3-23.45-1.37-47.26,2-69.86-7.58-5.78-2.44-12.26-4.8-17.2,1.88-4.31,5.84-1.93,11.51-.38,17.93,3.77,15.67,17,29.87,12.67,46.3-10.77,40.58,4.51,80.18,2.59,120.76-1.63,34.47,1.12,70.32,3.21,105.51,2.5,42,6.41,84.22,4.28,126.49a34.82,34.82,0,0,0,.6,7.89c7,38.11.53,76.73,4.4,115.17,1.88,18.69,6.55,34.65,17.73,47.52,16.21,18.67,39.53,29,60.17,42.14C2730.94,692,2741.37,698.71,2753.4,697.94Z"/><path class="cls-2" d="M4335.51,66.11c.26,9.35-6.44,16.29-8.94,24.78-1.45,4.89-7.34,10-13.46,2.72-26.63-31.83-63.1-44.33-101.91-53.23-16-3.67-31.39-1.8-46.76.57-21.48,3.3-25.67,20.19-15.72,38.82,13.59,25.44,22.43,52.63,15.58,83.27-5.73,25.66-14.38,48.47-34.78,66-6.38,5.5-4.35,14-2.71,21,1.49,6.4,7.79,6.2,13.16,6,35.74-1.21,66.65,12.87,96.65,30.15,20.54,11.84,38.45,27.95,58.17,40,27.22,16.64,46.28,40.47,68.38,61.5,25.09,23.87,49.06,50.22,57.48,84.88,4,16.44,12.68,31.86,10.54,50.44-3.84,33.33,4.86,67.52-6.49,100.59-2.62,7.64,2.87,13.66,8.65,17.28,17.69,11.09,29.09,28.83,45.24,41.66,6.78,5.39,13.54,10,21.3,12.44,9.67,3.06,17.75,6.69,25.1,14.66,9.52,10.33,23.2,7,33.67,1,7.41-4.25,15.07-3.78,22.42-6,4.61-1.42,5.17,3.95,5.67,7.63-19.37,8.68-37.45,25.07-60.77,10.17-.83-4.66-2.23-7.67-6.63-2.38C4500,713,4481.87,703.3,4466,690.24c-6.73-5.52-10.33-5.8-16.27.76a174.44,174.44,0,0,1-41.55,34c-34.15,19.88-86,9.74-110.29-21.51-3.26-4.2-6.11-8.52-7.2-13.85-3.12-15.29,5.07-23.44,20.24-19.7,10.26,2.53,20.48,4.95,31.13,5.13,40,.69,62.8-17.27,68.91-56.83,4.52-29.28,5.58-58.91,1.72-88.5-4.81-36.87-24.13-49.66-60.84-40.41-21.7,5.47-38.83,18.42-55.17,32.88-26.57,23.5-53.94,45.19-89.14,55.57-101.9,30-180.51-41.79-197.07-103.39-16.92-63,8.79-153.12,94.93-169.51,51.92-9.88,103.74,9.05,125,50,17.13,33,20.06,67.61,2,101.57-14.09,26.46-40.29,37.06-74.41,31.68-27.53-4.34-44.6-20.63-50-47.67-6.61-33.13,7.47-51.94,46.15-61.65-15.09-24.55-58.92-20-75,8.56-19.46,34.67-10,67.76,10.2,98.05,22.21,33.21,62.4,44.27,107.64,32.39,49.58-13,84.86-51,90.4-98.62,6.26-53.66-19.36-91.12-62.84-118.38-33.6-21.07-71.28-27.7-110.32-28.41-4.75-.09-9.6.09-14.23-.81-15.65-3-19.47-11.08-11.4-24.77a150.67,150.67,0,0,1,14.78-20.58c45.79-54.28,43.93-112.58,13.9-172.63-16-31.94-5.86-52.55,30.7-53.5C4212.55-1.57,4271.45,15,4318,62.75,4324.1,69,4328.66,70.2,4335.51,66.11Z"/><path class="cls-2" d="M4602.18,703.25c-9.11-4-11.74-7.38-.79-13.66,23.13-13.27,36.61-37.23,57.15-53.57,6.28-5,4.63-12.84,3.63-19.4-6-39.46-1.26-79.11-2.57-118.64-.1-3,1.32-6.15,2.53-9,4.13-9.75,6.82-19.8,9.58-30,5-18.36,19.93-32,35-43.12,11.06-8.13,23.22-16.49,38.21-16.95,4.67-.15,5.89-3.42,7.35-7,1.84-4.52,5.94-5.91,10.45-5.51,26.26,2.33,52.48-1.76,79,2,22,3.11,45.2.44,65.44-11.77a39.07,39.07,0,0,0,10.55-9.42c9.52-12.33,8.54-16.51-6.67-19.89-14.52-3.22-28.78-8.76-40.46-16.11-10.8-6.79-22.14-16.48-29.7-27.48-14.18-20.61-24.54-43.94-39.43-64-15.89-21.37-21.07-46.72-32-69.78-11.58-24.34-23.69-48.65-41.43-69.71-7.31-8.68-13.71-18.24-21-27.14C4690,52.25,4667,49.69,4642.94,50c-13.67.16-17.83,7.63-11.62,19.8,9.5,18.61,19.29,36.39,23.54,57.83,7.4,37.31-.83,70.87-17.76,102.73-24.31,45.75-59,84.7-87.49,127.7-1.69,2.53-3,6.5-7,4.14-4.53-2.68-9.78-6.32-9.68-11.79.21-10.81-5.84-16.48-14.23-20.76-11.62-5.92-11.26-19.44-18.57-28.37-31.18-38.11-55.77-80-67.91-128.24-4.76-18.92.05-37.66,3.22-56.29,1.32-7.76,4.57-15.44,4.47-23.13-.15-12,4.84-16.48,16.21-15.23h0c-2.79,14.13-5.69,28.25-8.31,42.41-1.07,5.78-4.36,12.71,5.32,14.77q.91,6,1.82,11.91c-7.86,6.38-2.06,11.48,1.58,16.78.55,1.8,1.11,3.6,1.66,5.4-8.78,6-5.32,9.93,2.2,13.2l1.4,3.57c-3.19,3.25-1.49,5.16,1.82,6.61,17.1,50.74,54.1,89.49,81.38,137,31.86-54.71,77.26-99.41,87.66-163.94,5.29-32.89,2.61-63.82-10.85-94,.33-.39,1-1,.92-1.11A19,19,0,0,0,4620.9,69l.15.22c.05-3.39-1.17-6-4.42-7.45-3.56-5.78-7.57-11.34-10.61-17.38-10-19.86-5.33-27.73,17.13-29.68,45.06-3.92,80.74,15.83,112.54,44.93,14.06,12.87,26.67,27.22,36.43,43.56,6.1,10.21,9.25,9,15.9.42,41.61-53.77,164.84-76.09,223.33-17.49,44.86,45,61.46,97.82,45.7,158.83-12.67,49-55.76,67.6-111.41,51.49-47.29-13.69-66.14-62.49-40.36-104.51,15.59-25.43,38.36-33.06,66.42-22.3,3.74,1.43,7.53,2.7,11.46,4.1,5.72-41.59-49.69-69.27-89.92-49.69-21.37,10.4-33.64,28.79-39.78,50.66-14.34,51.1-12.19,97.59,30.24,138.27,16,15.33,35.29,15.68,51.53,25.79a20.39,20.39,0,0,0-4.59.37c-1.54.47-2.89,2.45-.5,2.78,11.3,1.56,22.51,12.2,34.07.74,8.4-.32,18.33-2.25,21.83,7.87,4.16,12,2,24.17-6.25,34.31-11.6,14.18-27.61,20-45,24.09-33.84,7.86-66-2.19-98.42-8.28-61-11.44-136.43,30.09-158.26,88-.92,2.44-2.22,5-2.19,7.51.5,41.14-3.6,82.54,3.94,123.3,8,43.45,36.64,62.13,80.75,54.58a139.36,139.36,0,0,0,17-3.65c6.84-2.08,13.61-4,18.88,2.53,5.64,6.94,5,14.85,1.15,22.29-8.95,17.4-24.24,27.41-41.95,33.91-32.86,12.07-63.22,7.71-90.08-15.42-10.39-8.94-18.89-22.17-30.81-26.67C4622.55,682.44,4616,703,4602.18,703.25Z"/><path class="cls-1" d="M3046.1,84.71c-3.71,0-7.82.36-10.33-2.81-3.47-4.38-12.15-5.56-10.83-12.22,1.36-6.88,8.9-3.46,13.67-4.25,16.23-2.67,29-15.09,47.5-13,33.3,3.85,66.49,6.61,99.19,15.3,23.86,6.35,46.12,16,68.59,25.45,1.46.62,3.67.51,4.41,1.55,11.27,15.63,29.58,26.75,38,42,6.25,11.37,11.81,27,15.29,41.82,8.23,35.13,12.89,69.61,2,104.72-2.88,9.31,5,16.72,3.48,25.59-18.73,53.11-57.25,87.11-107.13,109.56-39.89,17.95-82.13,25.27-125.78,24.88,4.84-5,8.76-9.57-3-9.52q-26.17.12-52.34,0a54.63,54.63,0,0,1-12.55-1c-3.41-.83-7.47-2.15-7.7-6.78-.2-3.91,3.47-4.78,5.95-6.6,8-5.87,17.85-8.41,25.29-15.63,32.53-31.54,55.33-67.46,64.83-113.14,8-38.25,12.68-76.22,4.17-113.79-6.16-27.2-16.43-54.23-32.54-77.88-5.56-8.16-18-4.25-25.14-10.94-1.46-1.38-3.41-2.24-5.13-3.34l.73-1.31Z"/><path class="cls-2" d="M3900.92,201.89c-9.29,1.37-11.29-4.83-13.33-12-5.49-19.23-3.53-38.89-2.67-58.21.8-18-10.82-31.18-14.67-47.21-1.1-4.59-7.38-3-11.39-2.89-44.54.73-87.06-9.15-129-23.3-34.06-11.49-69.39-19.82-104.95-11-22.18,5.53-45.54,7.33-66.18,21.19-12.48,8.38-27.41,14.35-41,22-27.85,15.71-45.88,40.39-64.13,65.13-18.11,24.54-26,53.32-25.55,82.63a238.87,238.87,0,0,0,15.45,82.6c14.59,38.27,43.41,62.78,69.42,90.73-.25.45-.49.91-.73,1.37l.75-1.35c19.47,20.08,28.85,45.22,35.81,71.54a17,17,0,0,1,.58,7.59c-1.37,6.24-4.12,13.47,2.7,17.14,5.84,3.13,12.46-1,17.6-4.26,10.87-6.83,21.74-12.74,35.09-12.68,27.79.14,44.24,20.69,63.62,35.59,5,3.84,9.29,7,15.4,9.48,12.41,4.95,14.25,18.88,16,29.67,4.65,28.93-15.94,56.44-44.53,63.65-41,10.31-81.85,12.38-123,1-18.41-5.1-32.25-17.91-46.5-29.14-26.52-20.91-46.43-48-64-76.71-11.22-18.36-20.54-38-33-55.45-13.17-18.41-29.35-34.65-53.63-38.07-4.81-.68-11.44-2.76-14.55,2.81-3.68,6.58,1.51,10.07,6.49,13.87,12.34,9.41-3.72,12-4.87,18.23-10.71-8.63-22-16.37-34.91-21.38-9.42-3.67-9.94-10-6.11-17.79,6-12.15,16.58-16.9,29.37-18.53,38.68-4.93,89.58,23.41,109.78,62,6.85,13.06,12.44,26.79,18.37,40.32,26.08,59.47,74.5,88,136.11,98,24.13,3.9,48.43,5,72.62-.05,14.5-3,27.89-8,32.26-24.16,4.65-17.19-1.08-31.73-14.58-42.37-24-18.91-48.87-36.33-82.22-27.12-12.43,3.43-22.37,11.71-33.19,18.23-15,9.07-21.48,6.82-19.89-10.23,4.58-49.44-19.09-84.61-53-116.29-21.6-20.15-42.44-41.24-57.16-67.51-38-67.82-24.82-178.2,26.27-236.8,49-56.21,111.92-76.18,183.6-77.73,50.13-1.08,99.05,3.54,146.12,22.5,25.33,10.21,52.46,11.8,79.5,11.28,16.63-.33,29.79-9.86,42.76-19C3930.51,16.31,3965.5,5.34,4005.52,16c50.77,13.52,84.94,63.79,83.11,122.61-1,32-11.44,60.08-34.51,82.59-20.35,19.84-54.39,22.5-81.11,7.29-27.11-15.43-40.54-43.46-33.94-72.12,4.62-20.12,17-33.4,36.82-40,22.85-7.6,40.06.48,53.61,19.37,12.36-26.68-6.32-55.1-38.66-60.51-46.87-7.82-80.79,17.75-87.44,65C3900.52,160.81,3900.68,181.31,3900.92,201.89Z"/><path class="cls-2" d="M3348.21,564c7.85-4.21,5.33-11.73,6-18.33,1.21-12.13-3.2-24.9,4.53-39.62,6.44,15.86,7,29.93,7.87,43.64,1,16.33.46,32.77.16,49.15-.24,13.15,5.1,20.55,18.7,22.63,9.39,1.45,18.6,3.12,28.18,3,20.66-.35,35.72,13.83,52.51,22.41,21.77,11.12,43.16,23.53,64.43,35.7,27.59,15.78,57.54,26.6,92.7,19.34,25.21-5.21,52.62-1.4,78.21-7.9,67.27-17.08,127.16-46.89,165.84-107.46,10.06-15.75,14.74-35.35,17-54.42,2-17.07,1.79-34.08,4.88-51.41,3.65-20.5-8.29-40.5-20.59-57.91-22.12-31.29-50.77-54.11-86.36-69.15-14.88-6.3-21.75-30.92-17.79-56.39.64-4.14,2.28-8.2,2.39-12.32.12-4.39,2.07-10.16-4.15-12.24-4.69-1.58-8.88.05-13.39,2.55-12.61,7-25.61,13.78-40.1,15.66-27.9,3.62-44.74-16.22-61.06-32.91-22-22.52-20.51-51.7-13.93-80.31,1.36-5.89,4.94-12.57,12.46-13.14,4.33-.34,5.48-3.79,6.05-5.75,3.58-12.15,13.19-15.67,23.52-20.71,12.17-5.94,24.51-5.48,36.36-8.1,16.11-3.57,30.7-2.39,45.81-.61,18,2.12,30.12,12.49,41.39,27.42,17.13,22.68,20.83,51,36.06,74.05,3.19,4.82,6.66,9,12.83,10.91,7.21,2.27,13.32,6.58,13.78,15.5a9,9,0,0,0,6.37,8.33c17.7,6.07,34.76,14.52,53.78,15.78,6,.39,14.38,2.9,17.15-4.29s-5.36-10.37-10-14.18c-7.85-6.42-15.44-12.62-4-22.38,11.07,8.67,21.71,17.92,35.35,22.66,13,4.5,12.2,13.27,5.39,22.15-13.58,17.7-32.65,17.66-51.87,13.59-41.88-8.85-72-33.73-91.9-71C3812,208,3802.5,187.5,3792.48,167.24l1-2-2.4.24,1.16-.13-1.17,0c1.7-4.78-.26-7.12-5.05-7.58-11.43-11.82-24.83-20-41.3-22.68-3.11-3.63-6.24-3.57-9.39-.06-39.24,3.59-68.17,21.28-80.21,60.46-6.58,21.42-1.39,40.85,14.52,56.77,18.13,18.14,39,26.33,64.72,17.05,13-4.69,24.63-12,37.05-17.71,16.18-7.48,20-4.85,18.48,12.54-1,11.58-2.68,23.1-3.54,34.69-1.44,19.58,5.27,34.56,23.35,44.63a357.08,357.08,0,0,1,57.41,39.48c45,38.21,54,88.71,47.66,143.69-9.63,83.24-56.22,138.32-133.3,167.76-81.26,31.05-164.4,36.22-248.49,12-23.53-6.78-43.6-21-64.39-33.53-9.45-5.69-19.09-11.42-29.32-15.41-28.06-10.93-55-11.07-81.12,7.46-22.81,16.2-46.86,31.05-76.37,31.63-90,1.78-125.53-73.6-119.88-136.54a117.78,117.78,0,0,1,27.53-66.22c20.47-24.5,47.39-27.86,76.33-20.83,24.38,5.92,42.17,19.77,45.59,46.42,2.87,22.42-2.33,43.22-17.18,60.57-10.6,12.39-24.66,15.23-40.38,11.25-12.57-3.18-23.1-10-32.87-18.31-9.9,20.71-1.74,41.51,20.55,53.52,42,22.63,92-.27,102.86-47.09C3345.5,574.19,3346.9,569.11,3348.21,564Z"/><path class="cls-2" d="M3132.41,1252.32c.21-8.8,5.1-13.08,13.49-14.11,12.27-1.51,24.06.67,35.56,4.7,13.8,4.83,16.3,15,12.63,27.82-1.66,2.26-4.71,4.92-1.64,7.32,1.91,1.51,4.26-1,5.12-3.53,6.88-5.69,13.62-11.54,20.66-17,6.21-4.82,12.82-11.39,21.13-8,8.83,3.62,6.78,13.17,7.19,21.84,10.71-2.64,15.22-13.07,24.22-17,6.57-2.85,13.95-9.87,19.85-4.08,6.6,6.45,6,16.58,1,25-4.55,7.73-9.83,15-14.82,22.49-2.15,3.23-4,7.55-2.08,10.37,2.87,4.08,7.8,1.78,11.65.29,3.41-1.32,7-2.85,9.67-5.26,14.49-13.13,34-18.41,48-32.87,16.25-16.78,37.94-22.14,61.13-20.5,17.56,1.23,20.3,4.68,19.22,22.3-.19,3-.31,6.77,3,8.42,3.91,2,5-2.23,7.36-4,26.15-19.91,54.92-26.18,86.22-14.69,5,1.83,7.08,2.35,9.81-2.14,3.07-5.06,8.31-6,12-2s4,10.29-.63,14.25c-8.8,7.47-17.15,18.86-8.6,26.59,9,8.14,18.28-5,26.14-11.18,7.45-5.83,13.85-13,21.1-19.1,11-9.26,17.13-6.78,20.56,7.06,1.75,7.09-3.5,18.74,5.13,20.41,7.81,1.52,12.95-9.23,18.5-15.52,5.93-6.73,12.31-13,18.42-19.62s12.39-3.27,18.85-.68c7.36,3,3.71,8.4,3.63,13.33-.16,9.52-6.94,21.9,4.08,27.56,11.64,6,21.89-2.71,31.09-10.15,5.16-4.18,7.55-10,10.57-15.48,3.77-6.91,7-14.25,14.2-18.71,4.48-2.79,8.6-3.75,12.82.41,4,4,2.23,7.76-.25,11.36-3.59,5.21-7.55,10.18-11.2,15.36-1.92,2.73-2.72,6.26-1,8.93,2,3,6,2.35,8.79,1.19,25.24-10.63,47.49-25.08,60.45-50.39,2.48-4.85,2-12.68,10.48-10.57,8.08,2,5.59,9.18,5.16,14.6-1.33,16.66-7.82,31.67-16.11,45.91-5.53,9.49-11.63,18.64-20.18,32.25,30.33-8.23,55.88-16,77.78-32.71,4.89-3.72,7.2-9.89,2.49-15.3-4.17-4.79-9.32-3.93-13.56.88-3.64,4.14-8.43,5.46-12.68,2.3-3.72-2.76-2.53-7.69-1.73-11.89,1.24-6.5,6.31-6.21,11.1-6.13,11.2.18,21.52,3.11,26.2,14.23,5.05,12-3.62,18.62-12.12,24.43a207.56,207.56,0,0,1-69.08,30.65c-13.34,3.2-23.89,9.32-33.82,18.66-23.85,22.46-48.5,44.15-76.29,61.78-16.47,10.44-33.08,21.23-53.59,21.51-16.89.24-21.84-7.06-15.84-22.85,6.11-16.08,18.66-26.66,32.45-35.72a274.14,274.14,0,0,1,92.76-39.14c29.4-6.32,42.42-24.67,50.21-51.53-11.05-.52-15.6,8.9-23.11,12.8-16.21,8.43-31,21.35-50.62,6.93-4.42-3.25-9.73,2.35-14.33,4.27-30.91,12.91-39.69,8.86-49.27-23.79-8,.79-12.53,7-17.94,11.62-25.33,21.65-32.28,20.37-46.18-9.47-12.32,9.21-22,21.65-35.89,28.44-15.22,7.44-28.32,1.72-36.15-15.21-51.24,28.18-77.06,21.78-78.1-21.42-21.4,24.22-47.12,38.11-77.9,42.12-3.64.48-7.79,1.95-10.91.8-21.08-7.76-29.73,5.27-38.55,20.83-14.06,24.79-28.31,49.39-38.6,76.06-3,7.89-6.4,14.63-17.28,9.64-10.28-4.71-13.16-11.07-8.15-21.4,12.11-25,30.87-45.32,46.76-67.66,4.84-6.8,10.8-12.89,13-22.48-12-.7-24.29,7.88-34.9-1-11.87-9.9-2.8-20,2.94-31.27-16.66,1.92-22.69,15.06-32.74,22.33-6.73,4.88-11.67,17.54-21.58,10.55-8.71-6.15-2.31-16.3.72-24.64,1-2.83,1.06-6,1.76-10.3-11,.53-15.33,8.83-21.45,14.34-7.06,6.37-13.81,13.07-21,19.3-3.15,2.72-6.94,5.3-11.4,2.12-4-2.84-4.57-7-3.7-11.36,1.79-8.93,6.54-16.53,10.94-24.39,4.26-7.63,9.7-15.54,4.57-25.17-3.8-7.12-9.73-8.9-17.31-7.88-9.55,1.28-4.45,8.05-4.31,12.17.38,11.51-4.91,20.53-11.92,28.5-18.84,21.39-42.61,34.13-70.85,38.34-9.91,1.48-19.37-.47-20.79-11.64-1.34-10.59-4.64-9.82-12.33-6-23.93,11.74-49,18.92-76.06,18.67-35.32-.34-51.05-25.46-35.68-57.81,12.47-26.26,53.45-45.76,81.74-38.9,15.21,3.69,24.19,16.92,20.52,30.44-2.19,8.06-7.54,12.26-16,12.69-6.19.31-12.33-.39-14.61-6.78-2.58-7.23-.22-13.43,7.18-17.15,1.15-.58,1.64-2.49,2.46-3.83-5.62-6.51-12.76-5.08-19.25-3.63-21.38,4.78-41,30.12-42.22,52.16-.76,13.58,6.52,18.89,17.93,18.46,32.07-1.23,62.34-10.19,90.91-24.56,3.92-2,6.46-6.68,9.65-10.11,19.13-20.54,41.18-32.84,70.4-24.94,1.39,5.16,2.79,10.31,4.39,16.24C3137.67,1264.12,3138.45,1257.86,3132.41,1252.32Zm602.33,92c-31.91,7.47-62,19.28-89.52,37.28-8.93,5.84-16.92,12.56-21.36,22.54-1.66,3.72-4.59,8-1.41,11.8,3,3.52,7.81,2.51,11.92,1.65a36.74,36.74,0,0,0,8.92-3.05c34.84-17.62,66.89-39.13,93.93-67.59,1.55-1,4.22-1.92,2.46-4C3738.51,1341.56,3735.83,1341.82,3734.74,1344.36Zm-395.48-34.08c19.34-1.82,37.6-8,53.65-19.86,6.61-4.9,16.28-10.31,11.36-19.85-4.6-8.93-14.93-7.82-24-5.59-19.75,4.85-34.71,17.15-48.51,31.18-2.88,2.93-7.23,6.48-5.7,10.52C3328.16,1312.21,3334.35,1309.22,3339.26,1310.28ZM3521,1273.11c-20.13-11.85-39.73-9.9-59-.26-8.93,4.46-17,12-11.76,22.63,4.39,8.83,14.72,9.59,23.87,6.88C3492.09,1297,3507.85,1287.89,3521,1273.11Zm-387.12,2.07c-10,3.78-17.46,5.94-23.35-2-2.05-2.79-5.88-2.32-8.84-1.38-15.65,5-28.3,14.15-35.14,29.26-4.07,9-2,15.58,10.4,13.61C3101.19,1310.75,3119.06,1297.92,3133.92,1275.18Z"/><path class="cls-2" d="M2578.44,1152.77c31.19-3,31.19-3,33.58-31,12.9,17.18,32.76,24.43,32.71,50.29,0,14.94,18.47,24.23,30.55,34.23.93.77,4.54,0,5.55-1.24,12.28-14.73,27.33-8.91,42.19-6.35,7.68,1.33,15.12,5.34,24.21,2.62-1-7.54-6.12-12.46-10.92-17.61-2.1-2.25-8.26-3-4.09-7.84,3.14-3.68,7.85-3.46,11.47-.47,5.46,4.5,8.53,11,10,17.57,2,9,7.46,10.4,15.11,8.83,5.17-1.07,10.34-2.18,15.5-3.29,30.34-6.52,45.7.34,58.54,28.61,19,41.8,15.19,82.22-11.64,119.53-5.73,8-5.26,11.81,1.57,17.75,8.35,7.28,15.86,15.53,23.59,23.51,7.11,7.33,13.7,12.78,16.9-9.07,9.5,21.57,16.61,37.74,24.92,56.62-20.11-6-35.81-14-53.55-22.58,16-4.27,12.83-10.48,4.11-17.42a68.88,68.88,0,0,1-5.65-5.56c-7.79-7.9-14.3-18.35-23.7-23.08-11.19-5.62-17.76,9.38-28.15,12.18-9.87,2.65-19.15,5.33-29.38,2.44-4-1.12-8.71-2.17-12.44-1-28.09,8.45-48.57-5.16-65.74-24.09-34.79-38.37-39.88-82.57-20.42-129.61,3.42-8.27,3.25-12.37-3.06-18.63-13.18-13-25.13-24.77-46.37-26C2599.69,1181.19,2592,1164,2578.44,1152.77Z"/><path class="cls-2" d="M2509,1283.68c-10.74-1.16-20.42,4-30.68,5.23-10.9,1.31-22,1.29-29-8.11-5.73-7.76-9.63-4.78-15.29-1-26.43,17.51-53.51,33.82-84.14,43.13-21.59,6.57-36.87,2.28-49.64-15.91-5-7.12-8.83-2.86-13-1.26a365.62,365.62,0,0,1-68.31,19.1c-15.12,2.61-27.93-.33-33.16-16.36-2.57-7.87-5.72-3.25-9.13-2.13-19,6.26-37.35,14-57.25,17.62-26.53,4.78-31.67,2.24-37.43-23.37-21.85,9.13-43.45,18.91-66.48,24.39-24.62,5.87-40.29-7.15-37.67-32.75-11.91,6.25-22.79,12.07-33.77,17.71-27.88,14.33-56.8,25.33-88.57,27-15.3.78-30.27-.56-39.56-14.55-9.08-13.68-6.21-28.28.39-42.27,12.49-26.44,52.93-46.48,81.51-40.11,12.69,2.83,20.5,10.72,20.64,24.35.09,9.32-3.54,16.16-13.53,18.64-6.93,1.72-13.06.75-16.72-5.28-3.29-5.43-1.93-11.14,2.79-15.86,2.24-2.24,8.45-3.17,4.68-7.83-1.9-2.36-6.65-3.24-10.16-3.35-26-.85-55.68,35.82-49.54,60.95,2.67,10.9,11.52,11.37,20.11,10.82a204.37,204.37,0,0,0,67.41-15.82c29.31-12.5,60.93-21.45,81.28-49.12,6.61-9,15.36-6.53,22.13-.44,7.65,6.89.49,12.16-4,17-7.48,8.07-16.6,14.79-19.67,26.23-2.34,8.73.14,14.06,9.75,12.58,30-4.62,58.57-12.46,81.24-34.59a130.29,130.29,0,0,1,70.77-36.07c7.86-1.32,14.87-.26,20.1,6.06,3.57,4.31,5.06,10,2.26,14.82-3.07,5.31-7.08.56-10.88-.44-20.52-5.36-60.59,16.74-66.49,36.72-2.69,9.13-1.42,15.19,10.94,14,19.13-1.87,37.09-7.66,54.73-14.51,7.65-3,10.94-9.91,13.15-18.13,9.7-36.19,28.27-66.86,59.21-89a67.81,67.81,0,0,1,16.85-8.48c7.36-2.58,15.93-6.26,22.1,1.31s5.26,16.78.75,25.25c-13.19,24.72-33.55,43.25-54,61.67-5.87,5.3-12,10.64-18.82,14.5-7.13,4-7.86,8.8-5.7,15.72,2.35,7.5,6.68,12,14.9,11.24,24.41-2.42,47.29-10.14,69.35-20.54,3.55-1.68,5-4.81,6-8.7,7.13-26.44,27.68-38.67,51.47-46.52,7.24-2.38,17.35-3.82,20.75,5.7,3.05,8.56,4.89,18.46-3.57,26.52-9.49,9-21.18,13.94-33.13,18-7,2.4-11.45,5.1-9.36,13.21s8.17,8.88,14.91,7.94c21.15-3,40.78-10.42,59.44-20.55,8.81-4.77,17.61-9.56,26.17-14.75,7.47-4.53,15.08-8.08,11.11-20.48-2.69-8.39,4.7-14.42,13.28-16.74,8.32-2.26,15.89-1.11,21.28,6.32,6.11,8.43,1,13.3-5.77,18-3.58,2.45-10.14,3.94-8,10.08,2.17,6.31,8.59,7.95,14.42,7,11.41-1.75,22.67-4.53,34-6.91,2.57-.54,5.16-1.77,7.69-1.64,8.94.47,20.33-6,25.93,5.08,5.44,10.75-3.85,17.19-10.79,23.77-4.06,3.85-9.84,7.73-6.18,14.59,3,5.57,8.36,7.27,14.72,7.44a64.56,64.56,0,0,0,29.06-6.36c5.37-2.47,10.63-4.58,6.62-12.78-2.68-5.46.32-10.8,6.31-12.32,5.48-1.39,12-2.62,15.6,3.82,2.88,5.18,1.72,10.37-2.87,14.27-22.9,19.45-48.62,29.67-78.88,22-18.42-4.69-22.08-16.27-11.19-32C2505.06,1292.63,2509.55,1289.88,2509,1283.68Zm-298.32-9.22c27.47-16,50-36.5,64.7-64.68,2.47-4.74,4.85-10.36.2-14.45-5.2-4.57-10.12.16-13.76,3.44C2238.59,1219.67,2221.22,1244.7,2210.65,1274.46Zm116.86,3.72c13-3.71,22.29-8.3,30.44-15.09,2.61-2.17,4-5.19,2.06-8.37-2-3.35-5.73-2.9-8.46-1.54C2341.37,1258.24,2333.79,1266,2327.51,1278.18Z"/><path class="cls-2" d="M2608.3,1041.7c-1.29,1-1.65,1.5-2,1.51-40.93,1.16-39.52,6.1-40.33-34.31a13.82,13.82,0,0,0-.07-1.58c-6.22-47.47-11.07-44.83-48.26-44.1-12.65.25-29.45-4.38-36.87,2-8.79,7.5-2.08,24.83-2.9,37.87-.51,7.9-1.09,16,.11,23.76,2.37,15.35-4.56,18.08-18.25,17.77-11.39-.25-15.18-2.44-15-14.78.84-57.11.83-114.25.28-171.38-.1-10.74,2.88-13.22,13.13-12.93,27.5.76,55,.3,82.55.45,28.64.16,48.49,11.69,56.41,32.54,9.07,23.86,1.75,50.08-19.76,68.89,14.38,12.23,17.65,28.7,18.8,46.64C2597.18,1010.58,2597.38,1027.75,2608.3,1041.7ZM2515.46,875v-.14c-9,0-18,.45-26.9-.13-7.84-.52-11.53,1.34-11,10.17.7,13.16.35,26.37.18,39.56-.07,5.58,1.12,8.87,7.79,8.68,18.45-.53,37,.32,55.36-1.08,18.08-1.38,26.78-13,25.84-31.22-.86-17-10.3-25.43-29-25.81C2530.25,874.87,2522.85,875,2515.46,875Z"/><path class="cls-2" d="M4003.46,1046.5c-42.79.08-71.25-18.52-79.33-52.28-1.59-6.67-6.73-16.22,3.62-20.27,12.87-5,23.3,1.68,26.72,14.45,6.61,24.76,26.27,31.14,53.53,31.92,8.11.23,16.63-2.52,24.43-5.37,11.15-4.07,17.66-11.68,17.82-24.87s-6-21.36-17.51-25c-16.94-5.29-34.34-9.1-51.5-13.72-7-1.89-14.13-3.7-20.83-6.46-17-7-29.59-18.2-31.22-37.94-1.82-22.08,4.95-40.27,24.5-52.51,40.43-25.35,94.81-14.48,114.5,23,1.44,2.75,3.19,5.69,3.44,8.65.57,6.63,7.3,14.73,1.76,19.3-6.38,5.25-16.2,1.79-24.52,1.48-6.24-.22-4.71-5.83-6-9.49-9.69-27.75-50.15-38.76-73.34-20-14.16,11.47-11.79,31.87,4.83,39.79,18.17,8.66,38.3,10.29,57.43,15.51,34.37,9.38,50,26.87,50.25,55.73.28,30.94-25.3,54.66-62.76,58C4014.05,1046.9,4008.74,1046.5,4003.46,1046.5Z"/><path class="cls-2" d="M2927.72,949.17c0,10.67,1.83,24.72,8.18,37.85,11.54,23.84,32.61,34.53,61.69,31.34,19.94-2.19,33.7-16.3,40-41.05,2.84-11.07,23.54-19.1,31.87-11.89,5.19,4.5,2.19,11.08,1.14,16.38-9,45.09-46.29,71.56-93.17,66.57s-75.6-32.24-82.5-81.45c-4.82-34.38-.79-68,23-95.5,24.34-28.19,56-35.85,91.84-28.39,29.89,6.22,50.12,22.82,59.11,52.8,3.24,10.77,2.54,15.14-10.32,14.72-12.49-.41-21.4.13-26.59-16-6.13-19.06-25.61-24.27-44.23-24.45-20.68-.2-38,8.25-49.11,26.61C2929.68,911.67,2927.24,928.3,2927.72,949.17Z"/><path class="cls-2" d="M3538.51,916.78c0-19.56.45-39.14-.2-58.68-.3-9.36,1.87-13.34,12.14-12.86,27.08,1.28,21.78-3.25,22.05,21.39.37,34.37.1,68.73,0,103.1-.15,52.32-30.66,81.4-82.94,79.14-53.67-2.31-78.34-28.06-78.35-81.73,0-35.95,1-71.95-.5-107.84-.8-19,11.36-12.33,20.41-13.88,12.55-2.15,13.27,4.57,13.13,14.43-.51,36.48-.74,73-.23,109.44.46,33,14.78,48.25,44.6,49.5,33.92,1.41,49.68-13.75,49.86-48.08C3538.59,952.73,3538.51,934.76,3538.51,916.78Z"/><path class="cls-2" d="M1534.28,946.12c-3.59-54.3,31.2-91.67,64.35-100.8,45.44-12.52,88.7,4.58,104.54,43.48,3.15,7.73,6.75,16.62-3.24,20-8.39,2.86-18.89,3.52-25.07-7.14-15.29-26.4-33.77-36.63-57.88-32.46-26.87,4.64-46.66,24.66-50.42,53.51-2.71,20.89-3,42,5.69,62.15,10,23.2,32.72,37.58,57.61,35.72,24.46-1.84,40.39-15.81,47.33-41.52,3.63-13.46,10.87-17.32,24.64-12.81,11.33,3.71,7.3,11.62,5,19.14-13.19,44-37.33,60.35-85.18,61.36-38.68.82-72.47-24.63-83.57-63.3A108.54,108.54,0,0,1,1534.28,946.12Z"/><path class="cls-2" d="M2051.35,945c0-29,.38-58.09-.21-87.12-.2-9.67,2.33-14.4,12.28-11.78,8,2.12,21.86-8.17,21.53,12.26q-1.42,86.34.14,172.7c.28,16.29-9.28,12.44-18.17,13-10,.66-16.69.33-16.1-13.53,1.22-28.48.37-57,.37-85.57Z"/><path class="cls-2" d="M4456.15,78.36c-.5-24.79-23.14-39.44-51.68-34.31-15.51,2.78-30.24,5.58-42.56,17.18-4.34,4.09-11.9,12.15-20.41,3.93-1.59-6.37-.44-11.75,3.79-17.21,32.4-41.86,85.28-55.59,134.1-35,11.22,4.74,12,12.06,7.28,21.37-7.56,14.86-15.53,29.52-23.32,44.26l-7.22-.26Z"/><path class="cls-1" d="M4456.13,78.35l7.22.26c-6,18.51-10.76,37.24-10.21,56.92-9.68-2.06-6.39-9-5.32-14.77C4450.44,106.6,4453.34,92.48,4456.13,78.35Z"/><path class="cls-2" d="M2055.4,1202.91c5.68,1.45,10.41,3.42,9.36,10.28-.83,5.41-4.2,8.2-9.65,7.85-6.23-.41-9.3-4.22-9.08-10.25S2051.08,1203.81,2055.4,1202.91Z"/><path class="cls-1" d="M4964.21,342.66c-11.56,11.46-22.77.82-34.07-.74-2.39-.33-1-2.31.5-2.78a20.39,20.39,0,0,1,4.59-.37Z"/><path class="cls-1" d="M3058.86,444.52c6-6.95,12.37-5.9,18.9-.79C3071.55,446.12,3065.23,446,3058.86,444.52Z"/><path class="cls-1" d="M4456.54,164.22c-3.64-5.3-9.44-10.4-1.58-16.78Q4455.75,155.82,4456.54,164.22Z"/><path class="cls-1" d="M4460.4,182.82c-7.52-3.27-11-7.21-2.2-13.2Q4459.3,176.22,4460.4,182.82Z"/><path class="cls-1" d="M4519.35,720.13c4.4-5.29,5.8-2.28,6.63,2.38C4523.41,722.73,4520.6,723.61,4519.35,720.13Z"/><path class="cls-1" d="M3735.3,135c3.15-3.51,6.28-3.57,9.39.06Z"/><path class="cls-1" d="M3786,157.77c4.79.46,6.75,2.8,5.05,7.58Z"/><path class="cls-1" d="M4616.63,61.77c3.25,1.42,4.47,4.06,4.42,7.45C4619.58,66.73,4618.1,64.25,4616.63,61.77Z"/><path class="cls-1" d="M4463.62,193c-3.31-1.45-5-3.36-1.82-6.61C4462.41,188.59,4463,190.8,4463.62,193Z"/><path class="cls-1" d="M4620.9,69a19,19,0,0,1,1.83,1.87c.07.08-.59.72-.92,1.11C4621.51,71,4621.21,70,4620.9,69Z"/><path class="cls-1" d="M3791.05,165.46l2.4-.24-1,2A1.47,1.47,0,0,1,3791.05,165.46Z"/><path class="cls-1" d="M1077,705.35c-24.44,4-47.07,2-68.91-2.18-35.66-6.79-72.24-6.4-107.53-15.16-37.22-9.25-72.15-23.68-106.1-41.93-28.19-15.16-48.2-38.63-69.11-60.67-25-26.39-42-59.95-52.89-94.13-11.18-35.12-28.15-63.38-58.11-84.21-7-4.86-9.63-10.9-4.33-18.91,5.47-8.27,9.6-17.64,16-25.06,25.3-29.27,40.71-64.16,56.86-98.54,22.68-48.28,55.11-88.55,95.58-123,9.37-8,21.32-10.94,30.25-18.76,18.8-16.47,42.49-24.08,63.47-36.46,20.06-11.84,43-12.4,63.83-20.56,35.73-14,74-14.12,111.22-14.43,17.09-.14,34.78-11.58,51.56-.12-18.44,5.08-35.21,14.07-52.31,23.4-32.32,17.64-55.43,44.64-74.12,73.88-16.2,25.35-30.5,53.89-28.69,86.62,1.47,26.48,2.17,52.17,9.16,78.89,6.28,24,23.65,37.69,33.12,57.66,7,14.79,8.45,25.22-4.79,35.38-10.23,7.85-20,15-27.64,26.82C923.4,480.52,924.61,528,943.42,577.63,955,608,973.87,632,1000.14,651.14c13.62,10,24.07,23.7,37.63,34.47C1049.75,695.13,1065.48,692.21,1077,705.35Z"/><path class="cls-1" d="M2087,543.4q0,33.33,0,66.65c0,13.73-4.05,23.16-19.25,28.2-11.72,3.88-14.58,20.2-26.32,26.3-13.7,7.11-19.51,26.77-39.12,24.61-.9-.1-2.52.61-2.77,1.31-8.83,24.84-29.7,8.87-44.6,13-2.6.72-7.48-.41-8.77-2.36-7.65-11.52-21.44-14-31.14-22.2-16.55-13.92-32-29.13-48.62-43-16.18-13.53-12.22-30.65-10.38-47.7,3.8-35.22,1.46-70.38.63-105.67-.79-33.67-25.91-48.11-44.84-68-20.22-21.24-46.78-31.46-74-38.83-22.67-6.14-45.95-1.13-69,2-26.16,3.61-52.39,6-77.48-6.72-7.23-3.68-13.86-6.78-11.86-15.85,1.94-8.8,9.21-10.33,17.32-10.24,29.44.36,50.9-13.67,72.92-33,34.28-30,48.33-70.64,66.44-109.09,13.91-29.52,21.61-62,38.41-90.33,13.08-22.07,28.12-42.85,49.18-58.45,10-7.4,20.9-12.55,33.22-13.67,10.69-1,18.32,3.76,11.13,14.66-8.41,12.74-8.06,28.71-18,40.78-6.8,8.24-6.24,18.85-1.85,28.61,2.44,5.41,4.37,10.8,3.72,16.77-4.26,39.26,16.46,70.75,34.29,102.15,13.49,23.76,29.75,46.31,51.4,64.68,8.89,7.55,11.13,22.06,20.56,31.21,10.22,9.92,18.08,10.53,22.15-2.3,2.31-7.31,7.17-9.18,11.56-12.65A42.56,42.56,0,0,0,2006.39,305c4.13-10.66,17.42-14.69,25-24.29,26.3-33.31,47.26-69.66,56.45-110.77,5.77-25.82,7.21-53.26,5.09-80.11-.75-9.53-14.15-12.64-15-24.36-.66-9-14.36-19.57-6.53-26.24,8.68-7.4,22.49-.21,32.54,5.1,17.07,9,29.94,23.59,41.92,38.24,23.8,29.11,38.65,63.1,51.39,98.28,13.07,36.12,27.08,72.37,49.21,103.81,24.2,34.38,56.42,58.83,101.18,60.19,7.86.24,16.09.64,17.83,9.42,1.85,9.31-6.8,15.8-13.25,17.54-28,7.56-56.08,11.21-85.56,4.92a154.32,154.32,0,0,0-75.79,2.28c-23.27,6.58-42.94,19.74-59.34,33.16-22.3,18.24-49.36,38.51-44.9,75.71C2088.81,506.16,2087,524.89,2087,543.4Z"/><path class="cls-1" d="M2753.4,697.94c-12,.77-22.46-5.9-30.86-11.24-20.64-13.11-44-23.47-60.17-42.14-11.18-12.87-15.85-28.83-17.73-47.52-3.87-38.44,2.59-77.06-4.4-115.17a34.82,34.82,0,0,1-.6-7.89c2.13-42.27-1.78-84.5-4.28-126.49-2.09-35.19-4.84-71-3.21-105.51,1.92-40.58-13.36-80.18-2.59-120.76,4.36-16.43-8.9-30.63-12.67-46.3-1.55-6.42-3.93-12.09.38-17.93,4.94-6.68,11.42-4.32,17.2-1.88,22.6,9.53,46.41,6.21,69.86,7.58,61.24,3.57,122.52,2.74,183.79,3,3.45,0,8.1-1.74,10,2.52s-3,6.06-4.86,9c-13.1,20.75-24,41.25-25.65,67.52-5.27,86.12-2.51,172.24-1.82,258.31.39,49,.87,98.18,3.32,147.14.82,16.39,1.44,32.78-1.58,48.28-2.89,14.83-7.33,31.11-23,39.69a19,19,0,0,0-5.91,5.15c-19.13,25.57-46.2,39.75-74.6,52C2760.7,696.71,2757,697.09,2753.4,697.94Z"/><path class="cls-1" d="M3071.21,120.45l-10.88-11.52C3069.51,107.53,3076.71,108,3071.21,120.45Z"/><path class="cls-1" d="M3060.09,108.73l-11.13-7.5C3056.51,98,3060.12,100.67,3060.09,108.73Z"/><path class="cls-2" d="M3046.1,84.71l.71-1.32-.73,1.31Z"/><path class="cls-1" d="M3512.94,411.67l-.75,1.35c.24-.46.48-.92.73-1.37Z"/></svg>